<?xml version="1.0" encoding="UTF-8" standalone="no"?>
<!DOCTYPE svg PUBLIC "-//W3C//DTD SVG 1.1//EN"
 "http://www.w3.org/Graphics/SVG/1.1/DTD/svg11.dtd">
<!-- Generated by graphviz version 2.43.0 (0)
 -->
<!-- Title: %3 Pages: 1 -->
<svg width="1173pt" height="578pt"
 viewBox="0.00 0.00 1173.00 577.80" xmlns="http://www.w3.org/2000/svg" xmlns:xlink="http://www.w3.org/1999/xlink">
<g id="graph0" class="graph" transform="scale(1 1) rotate(0) translate(4 573.8)">
<title>%3</title>
<polygon fill="white" stroke="transparent" points="-4,4 -4,-573.8 1169,-573.8 1169,4 -4,4"/>
<g id="clust1" class="cluster">
<title>cluster_000</title>
<polygon fill="none" stroke="black" points="821,-519.2 821,-561.8 1157,-561.8 1157,-519.2 821,-519.2"/>
<text text-anchor="middle" x="989" y="-546.6" font-family="Times,serif" font-size="14.00">Legend</text>
</g>
<!-- node0 -->
<g id="node1" class="node">
<title>node0</title>
<polygon fill="lightgrey" stroke="black" points="811.5,-547 36.5,-547 36.5,-511 811.5,-511 811.5,-547"/>
<text text-anchor="middle" x="424" y="-525.3" font-family="Times,serif" font-size="14.00">#0 LocalVariable[name=this, slot=0, type=Lde/mirkosertic/metair/ir/examples/FieldAccessTest;] Order: 0</text>
</g>
<!-- node1 -->
<g id="node2" class="node">
<title>node1</title>
<polygon fill="lightgrey" stroke="black" points="659,-474 189,-474 189,-438 659,-438 659,-474"/>
<text text-anchor="middle" x="424" y="-452.3" font-family="Times,serif" font-size="14.00">#1 Label[context=CodeModel[id=882471736], bci=0] Order: 1</text>
</g>
<!-- node0&#45;&gt;node1 -->
<g id="edge1" class="edge">
<title>node0&#45;&gt;node1</title>
<path fill="none" stroke="red" d="M424,-510.81C424,-502.79 424,-493.05 424,-484.07"/>
<polygon fill="red" stroke="red" points="427.5,-484.03 424,-474.03 420.5,-484.03 427.5,-484.03"/>
</g>
<!-- node2 -->
<g id="node3" class="node">
<title>node2</title>
<polygon fill="lightgrey" stroke="black" points="555.5,-401 292.5,-401 292.5,-365 555.5,-365 555.5,-401"/>
<text text-anchor="middle" x="424" y="-379.3" font-family="Times,serif" font-size="14.00">#2 LineNumber[line=83] Order: 2</text>
</g>
<!-- node1&#45;&gt;node2 -->
<g id="edge2" class="edge">
<title>node1&#45;&gt;node2</title>
<path fill="none" stroke="red" d="M424,-437.81C424,-429.79 424,-420.05 424,-411.07"/>
<polygon fill="red" stroke="red" points="427.5,-411.03 424,-401.03 420.5,-411.03 427.5,-411.03"/>
</g>
<!-- node3 -->
<g id="node4" class="node">
<title>node3</title>
<polygon fill="lightgrey" stroke="black" points="781,-328 67,-328 67,-292 781,-292 781,-328"/>
<text text-anchor="middle" x="424" y="-306.3" font-family="Times,serif" font-size="14.00">#3 NewObj[OP=NEW, type=de/mirkosertic/metair/ir/examples/FieldAccessTest$Source] Order: 3</text>
</g>
<!-- node2&#45;&gt;node3 -->
<g id="edge3" class="edge">
<title>node2&#45;&gt;node3</title>
<path fill="none" stroke="red" d="M424,-364.81C424,-356.79 424,-347.05 424,-338.07"/>
<polygon fill="red" stroke="red" points="427.5,-338.03 424,-328.03 420.5,-338.03 427.5,-338.03"/>
</g>
<!-- node4 -->
<g id="node5" class="node">
<title>node4</title>
<polygon fill="lightgrey" stroke="black" points="605.5,-255 242.5,-255 242.5,-219 605.5,-219 605.5,-255"/>
<text text-anchor="middle" x="424" y="-233.3" font-family="Times,serif" font-size="14.00">#4 UnboundStackInstruction[op=DUP] Order: 4</text>
</g>
<!-- node3&#45;&gt;node4 -->
<g id="edge4" class="edge">
<title>node3&#45;&gt;node4</title>
<path fill="none" stroke="red" d="M424,-291.81C424,-283.79 424,-274.05 424,-265.07"/>
<polygon fill="red" stroke="red" points="427.5,-265.03 424,-255.03 420.5,-265.03 427.5,-265.03"/>
</g>
<!-- node5 -->
<g id="node6" class="node">
<title>node5</title>
<polygon fill="lightgrey" stroke="black" points="848,-182 0,-182 0,-146 848,-146 848,-182"/>
<text text-anchor="middle" x="424" y="-160.3" font-family="Times,serif" font-size="14.00">#5 Invoke[OP=INVOKESPECIAL, m=de/mirkosertic/metair/ir/examples/FieldAccessTest$Source.&lt;init&gt;()V] Order: 5</text>
</g>
<!-- node4&#45;&gt;node5 -->
<g id="edge5" class="edge">
<title>node4&#45;&gt;node5</title>
<path fill="none" stroke="red" d="M424,-218.81C424,-210.79 424,-201.05 424,-192.07"/>
<polygon fill="red" stroke="red" points="427.5,-192.03 424,-182.03 420.5,-192.03 427.5,-192.03"/>
</g>
<!-- node6 -->
<g id="node7" class="node">
<title>node6</title>
<polygon fill="lightgrey" stroke="black" points="837.5,-109 10.5,-109 10.5,-73 837.5,-73 837.5,-109"/>
<text text-anchor="middle" x="424" y="-87.3" font-family="Times,serif" font-size="14.00">#6 Field[OP=GETFIELD, field=de/mirkosertic/metair/ir/examples/FieldAccessTest$Source.short_field:S] Order: 6</text>
</g>
<!-- node5&#45;&gt;node6 -->
<g id="edge6" class="edge">
<title>node5&#45;&gt;node6</title>
<path fill="none" stroke="red" d="M424,-145.81C424,-137.79 424,-128.05 424,-119.07"/>
<polygon fill="red" stroke="red" points="427.5,-119.03 424,-109.03 420.5,-119.03 427.5,-119.03"/>
</g>
<!-- node7 -->
<g id="node8" class="node">
<title>node7</title>
<polygon fill="lightgrey" stroke="black" points="558.5,-36 289.5,-36 289.5,0 558.5,0 558.5,-36"/>
<text text-anchor="middle" x="424" y="-14.3" font-family="Times,serif" font-size="14.00">#7 Return[OP=IRETURN] Order: 7</text>
</g>
<!-- node6&#45;&gt;node7 -->
<g id="edge7" class="edge">
<title>node6&#45;&gt;node7</title>
<path fill="none" stroke="red" d="M424,-72.81C424,-64.79 424,-55.05 424,-46.07"/>
<polygon fill="red" stroke="red" points="427.5,-46.03 424,-36.03 420.5,-46.03 427.5,-46.03"/>
</g>
<!-- c0 -->
<!-- c1 -->
<!-- c0&#45;&gt;c1 -->
<g id="edge8" class="edge">
<title>c0&#45;&gt;c1</title>
<path fill="none" stroke="red" d="M1039.89,-529C1051.11,-529 1109.24,-529 1134.86,-529"/>
<polygon fill="red" stroke="red" points="1135.06,-532.5 1145.06,-529 1135.06,-525.5 1135.06,-532.5"/>
<text text-anchor="middle" x="1092.5" y="-535.8" font-family="Times,serif" font-size="14.00">Control flow</text>
</g>
<!-- c2 -->
<!-- c3 -->
<!-- c2&#45;&gt;c3 -->
<g id="edge9" class="edge">
<title>c2&#45;&gt;c3</title>
<path fill="none" stroke="red" stroke-dasharray="5,2" d="M833.08,-529C850.05,-529 966.21,-529 1004.08,-529"/>
<polygon fill="red" stroke="red" points="1004.17,-532.5 1014.17,-529 1004.17,-525.5 1004.17,-532.5"/>
<text text-anchor="middle" x="923.5" y="-535.8" font-family="Times,serif" font-size="14.00">Control flow back edge</text>
</g>
</g>
</svg>
