<?xml version="1.0" encoding="UTF-8" standalone="no"?>
<!DOCTYPE svg PUBLIC "-//W3C//DTD SVG 1.1//EN"
 "http://www.w3.org/Graphics/SVG/1.1/DTD/svg11.dtd">
<!-- Generated by graphviz version 2.43.0 (0)
 -->
<!-- Title: %3 Pages: 1 -->
<svg width="1203pt" height="359pt"
 viewBox="0.00 0.00 1202.50 358.80" xmlns="http://www.w3.org/2000/svg" xmlns:xlink="http://www.w3.org/1999/xlink">
<g id="graph0" class="graph" transform="scale(1 1) rotate(0) translate(4 354.8)">
<title>%3</title>
<polygon fill="white" stroke="transparent" points="-4,4 -4,-354.8 1198.5,-354.8 1198.5,4 -4,4"/>
<g id="clust1" class="cluster">
<title>cluster_000</title>
<polygon fill="none" stroke="black" points="850.5,-300.2 850.5,-342.8 1186.5,-342.8 1186.5,-300.2 850.5,-300.2"/>
<text text-anchor="middle" x="1018.5" y="-327.6" font-family="Times,serif" font-size="14.00">Legend</text>
</g>
<!-- node0 -->
<g id="node1" class="node">
<title>node0</title>
<polygon fill="lightgrey" stroke="black" points="841,-328 24,-328 24,-292 841,-292 841,-328"/>
<text text-anchor="middle" x="432.5" y="-306.3" font-family="Times,serif" font-size="14.00">#0 LocalVariable[name=this, slot=0, type=Lde/mirkosertic/metair/ir/examples/StaticFieldAccessTest;] Order: 0</text>
</g>
<!-- node1 -->
<g id="node2" class="node">
<title>node1</title>
<polygon fill="lightgrey" stroke="black" points="672,-255 193,-255 193,-219 672,-219 672,-255"/>
<text text-anchor="middle" x="432.5" y="-233.3" font-family="Times,serif" font-size="14.00">#1 Label[context=CodeModel[id=1548946718], bci=0] Order: 1</text>
</g>
<!-- node0&#45;&gt;node1 -->
<g id="edge1" class="edge">
<title>node0&#45;&gt;node1</title>
<path fill="none" stroke="red" d="M432.5,-291.81C432.5,-283.79 432.5,-274.05 432.5,-265.07"/>
<polygon fill="red" stroke="red" points="436,-265.03 432.5,-255.03 429,-265.03 436,-265.03"/>
</g>
<!-- node2 -->
<g id="node3" class="node">
<title>node2</title>
<polygon fill="lightgrey" stroke="black" points="564,-182 301,-182 301,-146 564,-146 564,-182"/>
<text text-anchor="middle" x="432.5" y="-160.3" font-family="Times,serif" font-size="14.00">#2 LineNumber[line=91] Order: 2</text>
</g>
<!-- node1&#45;&gt;node2 -->
<g id="edge2" class="edge">
<title>node1&#45;&gt;node2</title>
<path fill="none" stroke="red" d="M432.5,-218.81C432.5,-210.79 432.5,-201.05 432.5,-192.07"/>
<polygon fill="red" stroke="red" points="436,-192.03 432.5,-182.03 429,-192.03 436,-192.03"/>
</g>
<!-- node3 -->
<g id="node4" class="node">
<title>node3</title>
<polygon fill="lightgrey" stroke="black" points="865,-109 0,-109 0,-73 865,-73 865,-109"/>
<text text-anchor="middle" x="432.5" y="-87.3" font-family="Times,serif" font-size="14.00">#3 Field[OP=GETSTATIC, field=de/mirkosertic/metair/ir/examples/StaticFieldAccessTest$Source.long_field:J] Order: 3</text>
</g>
<!-- node2&#45;&gt;node3 -->
<g id="edge3" class="edge">
<title>node2&#45;&gt;node3</title>
<path fill="none" stroke="red" d="M432.5,-145.81C432.5,-137.79 432.5,-128.05 432.5,-119.07"/>
<polygon fill="red" stroke="red" points="436,-119.03 432.5,-109.03 429,-119.03 436,-119.03"/>
</g>
<!-- node4 -->
<g id="node5" class="node">
<title>node4</title>
<polygon fill="lightgrey" stroke="black" points="569,-36 296,-36 296,0 569,0 569,-36"/>
<text text-anchor="middle" x="432.5" y="-14.3" font-family="Times,serif" font-size="14.00">#4 Return[OP=LRETURN] Order: 4</text>
</g>
<!-- node3&#45;&gt;node4 -->
<g id="edge4" class="edge">
<title>node3&#45;&gt;node4</title>
<path fill="none" stroke="red" d="M432.5,-72.81C432.5,-64.79 432.5,-55.05 432.5,-46.07"/>
<polygon fill="red" stroke="red" points="436,-46.03 432.5,-36.03 429,-46.03 436,-46.03"/>
</g>
<!-- c0 -->
<!-- c1 -->
<!-- c0&#45;&gt;c1 -->
<g id="edge5" class="edge">
<title>c0&#45;&gt;c1</title>
<path fill="none" stroke="red" d="M1069.39,-310C1080.61,-310 1138.74,-310 1164.36,-310"/>
<polygon fill="red" stroke="red" points="1164.56,-313.5 1174.56,-310 1164.56,-306.5 1164.56,-313.5"/>
<text text-anchor="middle" x="1122" y="-316.8" font-family="Times,serif" font-size="14.00">Control flow</text>
</g>
<!-- c2 -->
<!-- c3 -->
<!-- c2&#45;&gt;c3 -->
<g id="edge6" class="edge">
<title>c2&#45;&gt;c3</title>
<path fill="none" stroke="red" stroke-dasharray="5,2" d="M862.58,-310C879.55,-310 995.71,-310 1033.58,-310"/>
<polygon fill="red" stroke="red" points="1033.67,-313.5 1043.67,-310 1033.67,-306.5 1033.67,-313.5"/>
<text text-anchor="middle" x="953" y="-316.8" font-family="Times,serif" font-size="14.00">Control flow back edge</text>
</g>
</g>
</svg>
