<?xml version="1.0" encoding="UTF-8" standalone="no"?>
<!DOCTYPE svg PUBLIC "-//W3C//DTD SVG 1.1//EN"
 "http://www.w3.org/Graphics/SVG/1.1/DTD/svg11.dtd">
<!-- Generated by graphviz version 2.43.0 (0)
 -->
<!-- Title: %3 Pages: 1 -->
<svg width="1321pt" height="297pt"
 viewBox="0.00 0.00 1321.00 297.00" xmlns="http://www.w3.org/2000/svg" xmlns:xlink="http://www.w3.org/1999/xlink">
<g id="graph0" class="graph" transform="scale(1 1) rotate(0) translate(4 293)">
<title>%3</title>
<polygon fill="white" stroke="transparent" points="-4,4 -4,-293 1317,-293 1317,4 -4,4"/>
<g id="clust1" class="cluster">
<title>cluster_0</title>
<polygon fill="none" stroke="lightgray" points="8,-138 8,-281 444,-281 444,-138 8,-138"/>
</g>
<g id="clust2" class="cluster">
<title>cluster_000</title>
<polygon fill="none" stroke="black" points="452,-236.2 452,-278.8 1305,-278.8 1305,-236.2 452,-236.2"/>
<text text-anchor="middle" x="878.5" y="-263.6" font-family="Times,serif" font-size="14.00">Legend</text>
</g>
<!-- node0 -->
<g id="node1" class="node">
<title>node0</title>
<polygon fill="lightgrey" stroke="transparent" points="407.5,-273 198.5,-273 198.5,-219 407.5,-219 407.5,-273"/>
<polygon fill="none" stroke="black" points="199,-246 199,-273 408,-273 408,-246 199,-246"/>
<text text-anchor="start" x="263" y="-255.8" font-family="Times,serif" font-size="14.00">#0 Method</text>
<polygon fill="yellow" stroke="transparent" points="199,-219 199,-246 408,-246 408,-219 199,-219"/>
<polygon fill="none" stroke="black" points="199,-219 199,-246 408,-246 408,-219 199,-219"/>
<text text-anchor="start" x="205" y="-228.8" font-family="Times,serif" font-size="14.00">this : StaticFieldAccessTest</text>
</g>
<!-- node3 -->
<g id="node2" class="node">
<title>node3</title>
<polygon fill="lightgreen" stroke="black" points="436.19,-156.54 436.19,-171.46 313.06,-182 138.94,-182 15.81,-171.46 15.81,-156.54 138.94,-146 313.06,-146 436.19,-156.54"/>
<text text-anchor="middle" x="226" y="-160.3" font-family="Times,serif" font-size="14.00">#3 Class StaticFieldAccessTest$Source</text>
</g>
<!-- node0&#45;&gt;node3 -->
<g id="edge1" class="edge">
<title>node0&#45;&gt;node3</title>
<path fill="none" stroke="black" stroke-dasharray="1,5" d="M277.79,-218.81C268.74,-209.41 258.58,-198.85 249.67,-189.59"/>
<polygon fill="black" stroke="black" points="251.99,-186.95 242.53,-182.17 246.94,-191.81 251.99,-186.95"/>
</g>
<!-- node4 -->
<g id="node4" class="node">
<title>node4</title>
<polygon fill="lightgrey" stroke="black" points="557.5,-109 452.5,-109 452.5,-73 557.5,-73 557.5,-109"/>
<text text-anchor="middle" x="505" y="-87.3" font-family="Times,serif" font-size="14.00">#4 ClassInit</text>
</g>
<!-- node0&#45;&gt;node4 -->
<g id="edge5" class="edge">
<title>node0&#45;&gt;node4</title>
<path fill="none" stroke="green" d="M382.75,-218.97C404.4,-209.52 426.85,-197.29 445,-182 465.86,-164.43 482.36,-137.83 492.74,-118.1"/>
<polygon fill="green" stroke="green" points="495.93,-119.54 497.33,-109.03 489.69,-116.37 495.93,-119.54"/>
</g>
<!-- node2 -->
<g id="node5" class="node">
<title>node2</title>
<polygon fill="lightgrey" stroke="black" points="611.5,-182 492.5,-182 492.5,-146 611.5,-146 611.5,-182"/>
<text text-anchor="middle" x="552" y="-160.3" font-family="Times,serif" font-size="14.00">#2 LabelNode</text>
</g>
<!-- node0&#45;&gt;node2 -->
<g id="edge7" class="edge">
<title>node0&#45;&gt;node2</title>
<path fill="none" stroke="red" d="M384.19,-218.92C418.27,-207.97 457.3,-195.43 489.14,-185.2"/>
<polygon fill="red" stroke="red" points="490.32,-188.49 498.77,-182.1 488.18,-181.83 490.32,-188.49"/>
</g>
<!-- node5 -->
<g id="node3" class="node">
<title>node5</title>
<polygon fill="orange" stroke="black" points="417.2,-83.54 417.2,-98.46 305.2,-109 146.8,-109 34.8,-98.46 34.8,-83.54 146.8,-73 305.2,-73 417.2,-83.54"/>
<text text-anchor="middle" x="226" y="-87.3" font-family="Times,serif" font-size="14.00">#5 GetStaticField : long_field : long</text>
</g>
<!-- node3&#45;&gt;node5 -->
<g id="edge2" class="edge">
<title>node3&#45;&gt;node5</title>
<path fill="none" stroke="black" d="M226,-145.81C226,-137.79 226,-128.05 226,-119.07"/>
<polygon fill="black" stroke="black" points="229.5,-119.03 226,-109.03 222.5,-119.03 229.5,-119.03"/>
<text text-anchor="middle" x="234.45" y="-123.45" font-family="Times,serif" font-size="14.00">*0</text>
</g>
<!-- node3&#45;&gt;node4 -->
<g id="edge4" class="edge">
<title>node3&#45;&gt;node4</title>
<path fill="none" stroke="black" d="M292.83,-145.99C338.24,-134.44 397.91,-119.25 442.4,-107.93"/>
<polygon fill="black" stroke="black" points="443.39,-111.29 452.22,-105.43 441.66,-104.51 443.39,-111.29"/>
<text text-anchor="middle" x="436.74" y="-114.39" font-family="Times,serif" font-size="14.00">*0</text>
</g>
<!-- node6 -->
<g id="node6" class="node">
<title>node6</title>
<polygon fill="lightgrey" stroke="black" points="452.5,-36 277.5,-36 277.5,0 452.5,0 452.5,-36"/>
<text text-anchor="middle" x="365" y="-14.3" font-family="Times,serif" font-size="14.00">#6 ReturnValue : long</text>
</g>
<!-- node5&#45;&gt;node6 -->
<g id="edge8" class="edge">
<title>node5&#45;&gt;node6</title>
<path fill="none" stroke="black" d="M253.43,-72.99C271.43,-63.27 295.35,-50.99 316.47,-40.59"/>
<polygon fill="black" stroke="black" points="318.18,-43.65 325.63,-36.11 315.1,-37.36 318.18,-43.65"/>
<text text-anchor="middle" x="313.05" y="-47.97" font-family="Times,serif" font-size="14.00">*0</text>
</g>
<!-- node5&#45;&gt;node6 -->
<g id="edge10" class="edge">
<title>node5&#45;&gt;node6</title>
<path fill="none" stroke="green" d="M265.15,-72.99C285.03,-63.36 308.97,-51.21 328.47,-40.87"/>
<polygon fill="green" stroke="green" points="330.2,-43.92 337.37,-36.11 326.9,-37.74 330.2,-43.92"/>
</g>
<!-- node4&#45;&gt;node5 -->
<g id="edge3" class="edge">
<title>node4&#45;&gt;node5</title>
<path fill="none" stroke="green" d="M452.22,-91C443.94,-91 435.66,-91 427.37,-91"/>
<polygon fill="green" stroke="green" points="427.27,-87.5 417.27,-91 427.27,-94.5 427.27,-87.5"/>
</g>
<!-- node4&#45;&gt;node6 -->
<g id="edge9" class="edge">
<title>node4&#45;&gt;node6</title>
<path fill="none" stroke="red" d="M471.47,-72.99C452.39,-63.32 428.29,-51.1 407.85,-40.73"/>
<polygon fill="red" stroke="red" points="409.25,-37.52 398.75,-36.11 406.08,-43.76 409.25,-37.52"/>
</g>
<!-- node2&#45;&gt;node4 -->
<g id="edge6" class="edge">
<title>node2&#45;&gt;node4</title>
<path fill="none" stroke="red" d="M540.62,-145.81C535.02,-137.35 528.16,-126.98 521.95,-117.61"/>
<polygon fill="red" stroke="red" points="524.71,-115.44 516.27,-109.03 518.87,-119.3 524.71,-115.44"/>
</g>
<!-- c0 -->
<!-- c1 -->
<!-- c0&#45;&gt;c1 -->
<g id="edge11" class="edge">
<title>c0&#45;&gt;c1</title>
<path fill="none" stroke="red" d="M1187.89,-246C1199.11,-246 1257.24,-246 1282.86,-246"/>
<polygon fill="red" stroke="red" points="1283.06,-249.5 1293.06,-246 1283.06,-242.5 1283.06,-249.5"/>
<text text-anchor="middle" x="1240.5" y="-252.8" font-family="Times,serif" font-size="14.00">Control flow</text>
</g>
<!-- c2 -->
<!-- c3 -->
<!-- c2&#45;&gt;c3 -->
<g id="edge12" class="edge">
<title>c2&#45;&gt;c3</title>
<path fill="none" stroke="red" stroke-dasharray="5,2" d="M981.08,-246C998.05,-246 1114.21,-246 1152.08,-246"/>
<polygon fill="red" stroke="red" points="1152.17,-249.5 1162.17,-246 1152.17,-242.5 1152.17,-249.5"/>
<text text-anchor="middle" x="1071.5" y="-252.8" font-family="Times,serif" font-size="14.00">Control flow back edge</text>
</g>
<!-- d0 -->
<!-- d1 -->
<!-- d0&#45;&gt;d1 -->
<g id="edge13" class="edge">
<title>d0&#45;&gt;d1</title>
<path fill="none" stroke="black" d="M869.86,-246C879.41,-246 923.31,-246 944.92,-246"/>
<polygon fill="black" stroke="black" points="945.15,-249.5 955.15,-246 945.15,-242.5 945.15,-249.5"/>
<text text-anchor="middle" x="912.5" y="-252.8" font-family="Times,serif" font-size="14.00">Data flow</text>
</g>
<!-- d2 -->
<!-- d3 -->
<!-- d2&#45;&gt;d3 -->
<g id="edge14" class="edge">
<title>d2&#45;&gt;d3</title>
<path fill="none" stroke="black" stroke-dasharray="1,5" d="M743.81,-246C754.46,-246 809.46,-246 834.08,-246"/>
<polygon fill="black" stroke="black" points="834.15,-249.5 844.15,-246 834.15,-242.5 834.15,-249.5"/>
<text text-anchor="middle" x="794" y="-252.8" font-family="Times,serif" font-size="14.00">Declaration</text>
</g>
<!-- d4 -->
<!-- d5 -->
<!-- d4&#45;&gt;d5 -->
<g id="edge15" class="edge">
<title>d4&#45;&gt;d5</title>
<path fill="none" stroke="blue" d="M601.1,-246C613.72,-246 679.88,-246 707.68,-246"/>
<polygon fill="blue" stroke="blue" points="707.84,-249.5 717.84,-246 707.84,-242.5 707.84,-249.5"/>
<text text-anchor="middle" x="659.5" y="-252.8" font-family="Times,serif" font-size="14.00">PHI Data flow</text>
</g>
<!-- d6 -->
<!-- d7 -->
<!-- d6&#45;&gt;d7 -->
<g id="edge16" class="edge">
<title>d6&#45;&gt;d7</title>
<path fill="none" stroke="green" d="M464,-246C475.94,-246 538.3,-246 564.93,-246"/>
<polygon fill="green" stroke="green" points="564.95,-249.5 574.95,-246 564.95,-242.5 564.95,-249.5"/>
<text text-anchor="middle" x="519.5" y="-252.8" font-family="Times,serif" font-size="14.00">Memory flow</text>
</g>
</g>
</svg>
