<?xml version="1.0" encoding="UTF-8" standalone="no"?>
<!DOCTYPE svg PUBLIC "-//W3C//DTD SVG 1.1//EN"
 "http://www.w3.org/Graphics/SVG/1.1/DTD/svg11.dtd">
<!-- Generated by graphviz version 2.43.0 (0)
 -->
<!-- Title: debugoutput Pages: 1 -->
<svg width="1419pt" height="359pt"
 viewBox="0.00 0.00 1418.89 358.80" xmlns="http://www.w3.org/2000/svg" xmlns:xlink="http://www.w3.org/1999/xlink">
<g id="graph0" class="graph" transform="scale(1 1) rotate(0) translate(4 354.8)">
<title>debugoutput</title>
<polygon fill="white" stroke="transparent" points="-4,4 -4,-354.8 1414.89,-354.8 1414.89,4 -4,4"/>
<g id="clust1" class="cluster">
<title>cluster_000</title>
<polygon fill="none" stroke="black" points="563.89,-300.2 563.89,-342.8 1402.89,-342.8 1402.89,-300.2 563.89,-300.2"/>
<text text-anchor="middle" x="983.39" y="-327.6" font-family="Times,serif" font-size="14.00">Legend</text>
</g>
<!-- node0 -->
<g id="node1" class="node">
<title>node0</title>
<polygon fill="lightgrey" stroke="black" points="553.89,-328 387.89,-328 387.89,-292 553.89,-292 553.89,-328"/>
<text text-anchor="middle" x="470.89" y="-306.3" font-family="Times,serif" font-size="14.00">#0 Method Order : 0</text>
</g>
<!-- node1 -->
<g id="node2" class="node">
<title>node1</title>
<polygon fill="lightgrey" stroke="black" points="326.89,-182 152.89,-182 152.89,-146 326.89,-146 326.89,-182"/>
<text text-anchor="middle" x="239.89" y="-160.3" font-family="Times,serif" font-size="14.00">#1 ClassInit Order : 4</text>
</g>
<!-- node0&#45;&gt;node1 -->
<g id="edge3" class="edge">
<title>node0&#45;&gt;node1</title>
<path fill="none" stroke="black" d="M387.73,-307.68C296.92,-304.36 160.26,-293.02 127.89,-255 117.52,-242.82 119.61,-232.69 127.89,-219 136.33,-205.05 149.69,-194.53 164.31,-186.66"/>
<polygon fill="black" stroke="black" points="166.13,-189.66 173.55,-182.1 163.03,-183.39 166.13,-189.66"/>
</g>
<!-- node4 -->
<g id="node3" class="node">
<title>node4</title>
<polygon fill="lightgreen" stroke="black" points="869.66,-229.54 869.66,-244.46 718.08,-255 503.7,-255 352.12,-244.46 352.12,-229.54 503.7,-219 718.08,-219 869.66,-229.54"/>
<text text-anchor="middle" x="610.89" y="-233.3" font-family="Times,serif" font-size="14.00">#4 Class StaticFieldAccessTest$Source Order : 1</text>
</g>
<!-- node0&#45;&gt;node4 -->
<g id="edge10" class="edge">
<title>node0&#45;&gt;node4</title>
<path fill="none" stroke="black" stroke-dasharray="1,5" d="M498.57,-291.99C516.7,-282.27 540.79,-269.99 562.05,-259.59"/>
<polygon fill="black" stroke="black" points="563.81,-262.63 571.28,-255.11 560.75,-256.33 563.81,-262.63"/>
</g>
<!-- node3 -->
<g id="node4" class="node">
<title>node3</title>
<polygon fill="lightgrey" stroke="black" points="333.89,-255 145.89,-255 145.89,-219 333.89,-219 333.89,-255"/>
<text text-anchor="middle" x="239.89" y="-233.3" font-family="Times,serif" font-size="14.00">#3 LabelNode Order : 2</text>
</g>
<!-- node0&#45;&gt;node3 -->
<g id="edge8" class="edge">
<title>node0&#45;&gt;node3</title>
<path fill="none" stroke="red" d="M409.7,-291.99C375.58,-281.84 333.32,-268.88 299.46,-258.2"/>
<polygon fill="red" stroke="red" points="300.29,-254.79 289.7,-255.11 298.18,-261.47 300.29,-254.79"/>
</g>
<!-- node2 -->
<g id="node5" class="node">
<title>node2</title>
<polygon fill="lightgrey" stroke="black" points="1233.89,-255 925.89,-255 925.89,-219 1233.89,-219 1233.89,-255"/>
<text text-anchor="middle" x="1079.89" y="-233.3" font-family="Times,serif" font-size="14.00">#2 this : StaticFieldAccessTest Order : 3</text>
</g>
<!-- node0&#45;&gt;node2 -->
<g id="edge6" class="edge">
<title>node0&#45;&gt;node2</title>
<path fill="none" stroke="black" d="M551.35,-291.95C706.5,-273.3 747.74,-294.46 902.89,-274 932.78,-270.06 965.26,-263.62 994.18,-257.26"/>
<polygon fill="black" stroke="black" points="995.25,-260.61 1004.25,-255.03 993.73,-253.78 995.25,-260.61"/>
<text text-anchor="middle" x="988.39" y="-263.51" font-family="Times,serif" font-size="14.00">*0</text>
</g>
<!-- node1&#45;&gt;node0 -->
<g id="edge1" class="edge">
<title>node1&#45;&gt;node0</title>
<path fill="none" stroke="green" stroke-width="2" d="M190.55,-182.1C173.45,-190.31 156.08,-202.16 145.89,-219 137.61,-232.69 135.52,-242.82 145.89,-255 175.48,-289.76 292.27,-302.22 377.44,-306.64"/>
<polygon fill="green" stroke="green" stroke-width="2" points="377.5,-310.15 387.66,-307.14 377.85,-303.16 377.5,-310.15"/>
</g>
<!-- node5 -->
<g id="node6" class="node">
<title>node5</title>
<polygon fill="orange" stroke="black" points="479.67,-83.54 479.67,-98.46 339.21,-109 140.57,-109 0.11,-98.46 0.11,-83.54 140.57,-73 339.21,-73 479.67,-83.54"/>
<text text-anchor="middle" x="239.89" y="-87.3" font-family="Times,serif" font-size="14.00">#5 GetStaticField : long_field : long Order : 5</text>
</g>
<!-- node1&#45;&gt;node5 -->
<g id="edge13" class="edge">
<title>node1&#45;&gt;node5</title>
<path fill="none" stroke="black" d="M239.89,-145.81C239.89,-137.79 239.89,-128.05 239.89,-119.07"/>
<polygon fill="black" stroke="black" points="243.39,-119.03 239.89,-109.03 236.39,-119.03 243.39,-119.03"/>
</g>
<!-- node6 -->
<g id="node7" class="node">
<title>node6</title>
<polygon fill="lightgrey" stroke="black" points="495.89,-36 251.89,-36 251.89,0 495.89,0 495.89,-36"/>
<text text-anchor="middle" x="373.89" y="-14.3" font-family="Times,serif" font-size="14.00">#6 ReturnValue : long Order : 6</text>
</g>
<!-- node1&#45;&gt;node6 -->
<g id="edge16" class="edge">
<title>node1&#45;&gt;node6</title>
<path fill="none" stroke="red" d="M327.08,-155.58C390.48,-148.17 468.62,-134.14 488.89,-109 498.93,-96.54 497.47,-86.51 488.89,-73 479.88,-58.82 466.05,-48.29 451.06,-40.5"/>
<polygon fill="red" stroke="red" points="452.15,-37.14 441.61,-36 449.13,-43.46 452.15,-37.14"/>
</g>
<!-- node4&#45;&gt;node0 -->
<g id="edge9" class="edge">
<title>node4&#45;&gt;node0</title>
<path fill="none" stroke="green" stroke-width="2" d="M583.02,-255.11C564.84,-264.85 540.73,-277.14 519.5,-287.52"/>
<polygon fill="green" stroke="green" stroke-width="2" points="517.75,-284.48 510.28,-291.99 520.81,-290.78 517.75,-284.48"/>
</g>
<!-- node4&#45;&gt;node1 -->
<g id="edge2" class="edge">
<title>node4&#45;&gt;node1</title>
<path fill="none" stroke="black" d="M522.03,-218.99C466.31,-208.33 394.46,-194.58 337.22,-183.63"/>
<polygon fill="black" stroke="black" points="337.55,-180.13 327.07,-181.68 336.23,-187 337.55,-180.13"/>
<text text-anchor="middle" x="346.46" y="-173.09" font-family="Times,serif" font-size="14.00">*0</text>
</g>
<!-- node4&#45;&gt;node5 -->
<g id="edge12" class="edge">
<title>node4&#45;&gt;node5</title>
<path fill="none" stroke="black" d="M566.88,-218.92C498.54,-192.39 367.14,-141.39 293.42,-112.78"/>
<polygon fill="black" stroke="black" points="294.44,-109.42 283.85,-109.06 291.91,-115.94 294.44,-109.42"/>
<text text-anchor="middle" x="303.81" y="-104.04" font-family="Times,serif" font-size="14.00">*0</text>
</g>
<!-- node3&#45;&gt;node0 -->
<g id="edge7" class="edge">
<title>node3&#45;&gt;node0</title>
<path fill="none" stroke="green" stroke-width="2" d="M301.44,-255.11C335.62,-265.29 377.88,-278.25 411.67,-288.91"/>
<polygon fill="green" stroke="green" stroke-width="2" points="410.83,-292.31 421.42,-291.99 412.94,-285.64 410.83,-292.31"/>
</g>
<!-- node3&#45;&gt;node1 -->
<g id="edge4" class="edge">
<title>node3&#45;&gt;node1</title>
<path fill="none" stroke="red" d="M239.89,-218.81C239.89,-210.79 239.89,-201.05 239.89,-192.07"/>
<polygon fill="red" stroke="red" points="243.39,-192.03 239.89,-182.03 236.39,-192.03 243.39,-192.03"/>
</g>
<!-- node2&#45;&gt;node0 -->
<g id="edge5" class="edge">
<title>node2&#45;&gt;node0</title>
<path fill="none" stroke="green" stroke-width="2" d="M1020.7,-255.03C990.96,-262.06 954.31,-269.59 920.89,-274 765.59,-294.48 724.41,-273.26 568.89,-292 567.38,-292.18 565.85,-292.38 564.32,-292.58"/>
<polygon fill="green" stroke="green" stroke-width="2" points="563.46,-289.16 554.06,-294.04 564.45,-296.09 563.46,-289.16"/>
</g>
<!-- node5&#45;&gt;node0 -->
<g id="edge11" class="edge">
<title>node5&#45;&gt;node0</title>
<path fill="none" stroke="green" stroke-width="2" d="M192.77,-109.03C175.08,-117.61 156.27,-129.71 143.89,-146 140.42,-150.56 110.9,-229.81 125.89,-255 151.16,-297.48 284.21,-307.75 377.48,-309.61"/>
<polygon fill="green" stroke="green" stroke-width="2" points="377.45,-313.11 387.51,-309.78 377.57,-306.11 377.45,-313.11"/>
</g>
<!-- node5&#45;&gt;node6 -->
<g id="edge15" class="edge">
<title>node5&#45;&gt;node6</title>
<path fill="none" stroke="black" d="M266.13,-72.99C283.36,-63.32 306.29,-51.1 326.6,-40.73"/>
<polygon fill="black" stroke="black" points="328.38,-43.75 335.72,-36.11 325.22,-37.51 328.38,-43.75"/>
<text text-anchor="middle" x="323.37" y="-48.14" font-family="Times,serif" font-size="14.00">*0</text>
</g>
<!-- node5&#45;&gt;node6 -->
<g id="edge17" class="edge">
<title>node5&#45;&gt;node6</title>
<path fill="none" stroke="black" d="M277.85,-72.99C296.96,-63.4 319.92,-51.32 338.65,-41.01"/>
<polygon fill="black" stroke="black" points="340.42,-44.03 347.46,-36.11 337.02,-37.91 340.42,-44.03"/>
</g>
<!-- node6&#45;&gt;node0 -->
<g id="edge14" class="edge">
<title>node6&#45;&gt;node0</title>
<path fill="none" stroke="green" stroke-width="2" d="M496.08,-23.67C650.92,-31.25 897.89,-49.66 897.89,-90 897.89,-238 897.89,-238 897.89,-238 897.89,-311.17 654.71,-282.87 564.24,-291.66"/>
<polygon fill="green" stroke="green" stroke-width="2" points="563.74,-288.2 554.24,-292.89 564.59,-295.14 563.74,-288.2"/>
</g>
<!-- c0 -->
<!-- c1 -->
<!-- c0&#45;&gt;c1 -->
<g id="edge18" class="edge">
<title>c0&#45;&gt;c1</title>
<path fill="none" stroke="red" d="M1285.78,-310C1297,-310 1355.13,-310 1380.75,-310"/>
<polygon fill="red" stroke="red" points="1380.95,-313.5 1390.95,-310 1380.95,-306.5 1380.95,-313.5"/>
<text text-anchor="middle" x="1338.39" y="-316.8" font-family="Times,serif" font-size="14.00">Control flow</text>
</g>
<!-- c2 -->
<!-- c3 -->
<!-- c2&#45;&gt;c3 -->
<g id="edge19" class="edge">
<title>c2&#45;&gt;c3</title>
<path fill="none" stroke="red" stroke-dasharray="5,2" d="M1078.97,-310C1095.94,-310 1212.1,-310 1249.97,-310"/>
<polygon fill="red" stroke="red" points="1250.06,-313.5 1260.06,-310 1250.06,-306.5 1250.06,-313.5"/>
<text text-anchor="middle" x="1169.39" y="-316.8" font-family="Times,serif" font-size="14.00">Control flow back edge</text>
</g>
<!-- d0 -->
<!-- d1 -->
<!-- d0&#45;&gt;d1 -->
<g id="edge20" class="edge">
<title>d0&#45;&gt;d1</title>
<path fill="none" stroke="black" d="M967.75,-310C977.3,-310 1021.2,-310 1042.81,-310"/>
<polygon fill="black" stroke="black" points="1043.04,-313.5 1053.04,-310 1043.04,-306.5 1043.04,-313.5"/>
<text text-anchor="middle" x="1010.39" y="-316.8" font-family="Times,serif" font-size="14.00">Data flow</text>
</g>
<!-- d2 -->
<!-- d3 -->
<!-- d2&#45;&gt;d3 -->
<g id="edge21" class="edge">
<title>d2&#45;&gt;d3</title>
<path fill="none" stroke="black" stroke-dasharray="1,5" d="M841.7,-310C852.35,-310 907.36,-310 931.97,-310"/>
<polygon fill="black" stroke="black" points="932.04,-313.5 942.04,-310 932.04,-306.5 932.04,-313.5"/>
<text text-anchor="middle" x="891.89" y="-316.8" font-family="Times,serif" font-size="14.00">Declaration</text>
</g>
<!-- d4 -->
<!-- d5 -->
<!-- d4&#45;&gt;d5 -->
<g id="edge22" class="edge">
<title>d4&#45;&gt;d5</title>
<path fill="none" stroke="blue" d="M698.99,-310C711.61,-310 777.77,-310 805.57,-310"/>
<polygon fill="blue" stroke="blue" points="805.73,-313.5 815.73,-310 805.73,-306.5 805.73,-313.5"/>
<text text-anchor="middle" x="757.39" y="-316.8" font-family="Times,serif" font-size="14.00">PHI Data flow</text>
</g>
<!-- d6 -->
<!-- d7 -->
<!-- d6&#45;&gt;d7 -->
<g id="edge23" class="edge">
<title>d6&#45;&gt;d7</title>
<path fill="none" stroke="green" d="M576,-310C587.04,-310 638.56,-310 662.55,-310"/>
<polygon fill="green" stroke="green" points="662.79,-313.5 672.79,-310 662.79,-306.5 662.79,-313.5"/>
<text text-anchor="middle" x="624.39" y="-316.8" font-family="Times,serif" font-size="14.00">Dominance</text>
</g>
</g>
</svg>
