<?xml version="1.0" encoding="UTF-8" standalone="no"?>
<!DOCTYPE svg PUBLIC "-//W3C//DTD SVG 1.1//EN"
 "http://www.w3.org/Graphics/SVG/1.1/DTD/svg11.dtd">
<!-- Generated by graphviz version 2.43.0 (0)
 -->
<!-- Title: %3 Pages: 1 -->
<svg width="1558pt" height="587pt"
 viewBox="0.00 0.00 1558.00 586.80" xmlns="http://www.w3.org/2000/svg" xmlns:xlink="http://www.w3.org/1999/xlink">
<g id="graph0" class="graph" transform="scale(1 1) rotate(0) translate(4 582.8)">
<title>%3</title>
<polygon fill="white" stroke="transparent" points="-4,4 -4,-582.8 1554,-582.8 1554,4 -4,4"/>
<g id="clust1" class="cluster">
<title>cluster_0</title>
<polygon fill="none" stroke="lightgray" points="8,-211 8,-336 492,-336 492,-211 8,-211"/>
</g>
<g id="clust2" class="cluster">
<title>cluster_1</title>
<polygon fill="none" stroke="lightgray" points="432,-357 432,-482 868,-482 868,-357 432,-357"/>
</g>
<g id="clust3" class="cluster">
<title>cluster_000</title>
<polygon fill="none" stroke="black" points="689,-528.2 689,-570.8 1542,-570.8 1542,-528.2 689,-528.2"/>
<text text-anchor="middle" x="1115.5" y="-555.6" font-family="Times,serif" font-size="14.00">Legend</text>
</g>
<!-- node0 -->
<g id="node1" class="node">
<title>node0</title>
<polygon fill="lightgrey" stroke="transparent" points="679.5,-565 470.5,-565 470.5,-511 679.5,-511 679.5,-565"/>
<polygon fill="none" stroke="black" points="471,-538 471,-565 680,-565 680,-538 471,-538"/>
<text text-anchor="start" x="535" y="-547.8" font-family="Times,serif" font-size="14.00">#0 Method</text>
<polygon fill="yellow" stroke="transparent" points="471,-511 471,-538 680,-538 680,-511 471,-511"/>
<polygon fill="none" stroke="black" points="471,-511 471,-538 680,-538 680,-511 471,-511"/>
<text text-anchor="start" x="477" y="-520.8" font-family="Times,serif" font-size="14.00">this : StaticFieldAccessTest</text>
</g>
<!-- node2 -->
<g id="node2" class="node">
<title>node2</title>
<polygon fill="lightgrey" stroke="black" points="634.5,-474 515.5,-474 515.5,-438 634.5,-438 634.5,-474"/>
<text text-anchor="middle" x="575" y="-452.3" font-family="Times,serif" font-size="14.00">#2 LabelNode</text>
</g>
<!-- node0&#45;&gt;node2 -->
<g id="edge1" class="edge">
<title>node0&#45;&gt;node2</title>
<path fill="none" stroke="red" d="M575,-510.81C575,-502.35 575,-492.95 575,-484.4"/>
<polygon fill="red" stroke="red" points="578.5,-484.17 575,-474.17 571.5,-484.17 578.5,-484.17"/>
</g>
<!-- node4 -->
<g id="node5" class="node">
<title>node4</title>
<polygon fill="lightgrey" stroke="black" points="464.5,-328 359.5,-328 359.5,-292 464.5,-292 464.5,-328"/>
<text text-anchor="middle" x="412" y="-306.3" font-family="Times,serif" font-size="14.00">#4 ClassInit</text>
</g>
<!-- node0&#45;&gt;node4 -->
<g id="edge6" class="edge">
<title>node0&#45;&gt;node4</title>
<path fill="none" stroke="green" d="M679.76,-512.04C681.52,-511.69 683.27,-511.34 685,-511 726.27,-502.94 844.64,-513.93 872,-482 908.15,-439.81 910.19,-397.35 872,-357 842.86,-326.21 532.71,-343.62 491,-336 483.8,-334.68 476.34,-332.9 469.01,-330.9"/>
<polygon fill="green" stroke="green" points="469.71,-327.46 459.13,-328.04 467.77,-334.18 469.71,-327.46"/>
</g>
<!-- node3 -->
<g id="node3" class="node">
<title>node3</title>
<polygon fill="lightgreen" stroke="black" points="860.19,-375.54 860.19,-390.46 737.06,-401 562.94,-401 439.81,-390.46 439.81,-375.54 562.94,-365 737.06,-365 860.19,-375.54"/>
<text text-anchor="middle" x="650" y="-379.3" font-family="Times,serif" font-size="14.00">#3 Class StaticFieldAccessTest$Source</text>
</g>
<!-- node2&#45;&gt;node3 -->
<g id="edge2" class="edge">
<title>node2&#45;&gt;node3</title>
<path fill="none" stroke="black" stroke-dasharray="1,5" d="M593.16,-437.81C602.55,-428.92 614.18,-417.91 624.47,-408.17"/>
<polygon fill="black" stroke="black" points="627.16,-410.45 632.01,-401.03 622.34,-405.36 627.16,-410.45"/>
</g>
<!-- node2&#45;&gt;node4 -->
<g id="edge7" class="edge">
<title>node2&#45;&gt;node4</title>
<path fill="none" stroke="red" d="M515.39,-446.41C485.93,-439.12 452.23,-425.7 431,-401 416.16,-383.73 411.95,-357.78 411.14,-338.17"/>
<polygon fill="red" stroke="red" points="414.64,-337.98 411,-328.03 407.64,-338.08 414.64,-337.98"/>
</g>
<!-- node5 -->
<g id="node4" class="node">
<title>node5</title>
<polygon fill="orange" stroke="black" points="891.64,-302.54 891.64,-317.46 777.04,-328 614.96,-328 500.36,-317.46 500.36,-302.54 614.96,-292 777.04,-292 891.64,-302.54"/>
<text text-anchor="middle" x="696" y="-306.3" font-family="Times,serif" font-size="14.00">#5 GetStaticField : array_field : int[]</text>
</g>
<!-- node3&#45;&gt;node5 -->
<g id="edge3" class="edge">
<title>node3&#45;&gt;node5</title>
<path fill="none" stroke="black" d="M661.14,-364.81C666.62,-356.35 673.33,-345.98 679.41,-336.61"/>
<polygon fill="black" stroke="black" points="682.47,-338.32 684.97,-328.03 676.59,-334.52 682.47,-338.32"/>
<text text-anchor="middle" x="682.2" y="-344.14" font-family="Times,serif" font-size="14.00">*0</text>
</g>
<!-- node3&#45;&gt;node4 -->
<g id="edge5" class="edge">
<title>node3&#45;&gt;node4</title>
<path fill="none" stroke="black" d="M589.87,-364.99C560.08,-356.46 523.59,-345.87 491,-336 485.66,-334.38 480.13,-332.69 474.59,-330.96"/>
<polygon fill="black" stroke="black" points="475.23,-327.5 464.64,-327.86 473.14,-334.18 475.23,-327.5"/>
<text text-anchor="middle" x="484.46" y="-321.49" font-family="Times,serif" font-size="14.00">*0</text>
</g>
<!-- node7 -->
<g id="node6" class="node">
<title>node7</title>
<polygon fill="lightgrey" stroke="black" points="517.5,-182 412.5,-182 412.5,-146 517.5,-146 517.5,-182"/>
<text text-anchor="middle" x="465" y="-160.3" font-family="Times,serif" font-size="14.00">#7 ClassInit</text>
</g>
<!-- node5&#45;&gt;node7 -->
<g id="edge9" class="edge">
<title>node5&#45;&gt;node7</title>
<path fill="none" stroke="green" d="M620.62,-291.93C605.42,-287.14 589.86,-281.21 576,-274 570.25,-271.01 489.18,-205.95 485,-201 482.5,-198.04 480.16,-194.72 478.03,-191.32"/>
<polygon fill="green" stroke="green" points="480.91,-189.3 472.9,-182.36 474.83,-192.78 480.91,-189.3"/>
</g>
<!-- node8 -->
<g id="node8" class="node">
<title>node8</title>
<polygon fill="lightgrey" stroke="black" points="604,-109 326,-109 326,-73 604,-73 604,-109"/>
<text text-anchor="middle" x="465" y="-87.3" font-family="Times,serif" font-size="14.00">#8 PutStaticField : array_field : int[]</text>
</g>
<!-- node5&#45;&gt;node8 -->
<g id="edge13" class="edge">
<title>node5&#45;&gt;node8</title>
<path fill="none" stroke="black" d="M678.35,-291.63C647.72,-261.58 582.53,-198.09 526,-146 515.14,-136 503,-125.17 492.42,-115.86"/>
<polygon fill="black" stroke="black" points="494.51,-113.04 484.68,-109.07 489.89,-118.3 494.51,-113.04"/>
<text text-anchor="middle" x="503.88" y="-110.97" font-family="Times,serif" font-size="14.00">*1</text>
</g>
<!-- node4&#45;&gt;node5 -->
<g id="edge4" class="edge">
<title>node4&#45;&gt;node5</title>
<path fill="none" stroke="green" d="M464.7,-310C473.25,-310 481.8,-310 490.35,-310"/>
<polygon fill="green" stroke="green" points="490.38,-313.5 500.38,-310 490.38,-306.5 490.38,-313.5"/>
</g>
<!-- node4&#45;&gt;node7 -->
<g id="edge10" class="edge">
<title>node4&#45;&gt;node7</title>
<path fill="none" stroke="red" d="M453.28,-291.86C468.63,-283.22 484.39,-271.09 493,-255 503.95,-234.54 494.18,-209.14 483.28,-190.54"/>
<polygon fill="red" stroke="red" points="486.21,-188.62 477.93,-182.01 480.28,-192.34 486.21,-188.62"/>
</g>
<!-- node6 -->
<g id="node7" class="node">
<title>node6</title>
<polygon fill="lightgreen" stroke="black" points="483.62,-229.54 483.62,-244.46 346.77,-255 153.23,-255 16.38,-244.46 16.38,-229.54 153.23,-219 346.77,-219 483.62,-229.54"/>
<text text-anchor="middle" x="250" y="-233.3" font-family="Times,serif" font-size="14.00">#6 Class StaticFieldAccessTest$Destination</text>
</g>
<!-- node4&#45;&gt;node6 -->
<g id="edge11" class="edge">
<title>node4&#45;&gt;node6</title>
<path fill="none" stroke="black" stroke-dasharray="1,5" d="M373.2,-291.99C350.72,-282.14 322.23,-269.66 298.31,-259.17"/>
<polygon fill="black" stroke="black" points="299.61,-255.92 289.05,-255.11 296.8,-262.33 299.61,-255.92"/>
</g>
<!-- node7&#45;&gt;node8 -->
<g id="edge14" class="edge">
<title>node7&#45;&gt;node8</title>
<path fill="none" stroke="green" d="M459.12,-145.81C458.28,-137.79 458.05,-128.05 458.42,-119.07"/>
<polygon fill="green" stroke="green" points="461.92,-119.25 459.14,-109.03 454.94,-118.75 461.92,-119.25"/>
</g>
<!-- node7&#45;&gt;node8 -->
<g id="edge15" class="edge">
<title>node7&#45;&gt;node8</title>
<path fill="none" stroke="red" d="M470.88,-145.81C471.72,-137.79 471.95,-128.05 471.58,-119.07"/>
<polygon fill="red" stroke="red" points="475.06,-118.75 470.86,-109.03 468.08,-119.25 475.06,-118.75"/>
</g>
<!-- node6&#45;&gt;node7 -->
<g id="edge8" class="edge">
<title>node6&#45;&gt;node7</title>
<path fill="none" stroke="black" d="M301.5,-218.99C332.12,-208.88 371.16,-195.99 403.4,-185.34"/>
<polygon fill="black" stroke="black" points="404.78,-188.57 413.18,-182.11 402.58,-181.93 404.78,-188.57"/>
<text text-anchor="middle" x="398.62" y="-192.12" font-family="Times,serif" font-size="14.00">*0</text>
</g>
<!-- node6&#45;&gt;node8 -->
<g id="edge12" class="edge">
<title>node6&#45;&gt;node8</title>
<path fill="none" stroke="black" d="M275.51,-218.92C314.22,-192.99 387.86,-143.67 431.05,-114.74"/>
<polygon fill="black" stroke="black" points="433.16,-117.53 439.53,-109.06 429.27,-111.72 433.16,-117.53"/>
<text text-anchor="middle" x="429.17" y="-122.47" font-family="Times,serif" font-size="14.00">*0</text>
</g>
<!-- node9 -->
<g id="node9" class="node">
<title>node9</title>
<polygon fill="lightgrey" stroke="black" points="511,-36 419,-36 419,0 511,0 511,-36"/>
<text text-anchor="middle" x="465" y="-14.3" font-family="Times,serif" font-size="14.00">#9 Return</text>
</g>
<!-- node8&#45;&gt;node9 -->
<g id="edge16" class="edge">
<title>node8&#45;&gt;node9</title>
<path fill="none" stroke="red" d="M459.12,-72.81C458.28,-64.79 458.05,-55.05 458.42,-46.07"/>
<polygon fill="red" stroke="red" points="461.92,-46.25 459.14,-36.03 454.94,-45.75 461.92,-46.25"/>
</g>
<!-- node8&#45;&gt;node9 -->
<g id="edge17" class="edge">
<title>node8&#45;&gt;node9</title>
<path fill="none" stroke="green" d="M470.88,-72.81C471.72,-64.79 471.95,-55.05 471.58,-46.07"/>
<polygon fill="green" stroke="green" points="475.06,-45.75 470.86,-36.03 468.08,-46.25 475.06,-45.75"/>
</g>
<!-- c0 -->
<!-- c1 -->
<!-- c0&#45;&gt;c1 -->
<g id="edge18" class="edge">
<title>c0&#45;&gt;c1</title>
<path fill="none" stroke="red" d="M1424.89,-538C1436.11,-538 1494.24,-538 1519.86,-538"/>
<polygon fill="red" stroke="red" points="1520.06,-541.5 1530.06,-538 1520.06,-534.5 1520.06,-541.5"/>
<text text-anchor="middle" x="1477.5" y="-544.8" font-family="Times,serif" font-size="14.00">Control flow</text>
</g>
<!-- c2 -->
<!-- c3 -->
<!-- c2&#45;&gt;c3 -->
<g id="edge19" class="edge">
<title>c2&#45;&gt;c3</title>
<path fill="none" stroke="red" stroke-dasharray="5,2" d="M1218.08,-538C1235.05,-538 1351.21,-538 1389.08,-538"/>
<polygon fill="red" stroke="red" points="1389.17,-541.5 1399.17,-538 1389.17,-534.5 1389.17,-541.5"/>
<text text-anchor="middle" x="1308.5" y="-544.8" font-family="Times,serif" font-size="14.00">Control flow back edge</text>
</g>
<!-- d0 -->
<!-- d1 -->
<!-- d0&#45;&gt;d1 -->
<g id="edge20" class="edge">
<title>d0&#45;&gt;d1</title>
<path fill="none" stroke="black" d="M1106.86,-538C1116.41,-538 1160.31,-538 1181.92,-538"/>
<polygon fill="black" stroke="black" points="1182.15,-541.5 1192.15,-538 1182.15,-534.5 1182.15,-541.5"/>
<text text-anchor="middle" x="1149.5" y="-544.8" font-family="Times,serif" font-size="14.00">Data flow</text>
</g>
<!-- d2 -->
<!-- d3 -->
<!-- d2&#45;&gt;d3 -->
<g id="edge21" class="edge">
<title>d2&#45;&gt;d3</title>
<path fill="none" stroke="black" stroke-dasharray="1,5" d="M980.81,-538C991.46,-538 1046.46,-538 1071.08,-538"/>
<polygon fill="black" stroke="black" points="1071.15,-541.5 1081.15,-538 1071.15,-534.5 1071.15,-541.5"/>
<text text-anchor="middle" x="1031" y="-544.8" font-family="Times,serif" font-size="14.00">Declaration</text>
</g>
<!-- d4 -->
<!-- d5 -->
<!-- d4&#45;&gt;d5 -->
<g id="edge22" class="edge">
<title>d4&#45;&gt;d5</title>
<path fill="none" stroke="blue" d="M838.1,-538C850.72,-538 916.88,-538 944.68,-538"/>
<polygon fill="blue" stroke="blue" points="944.84,-541.5 954.84,-538 944.84,-534.5 944.84,-541.5"/>
<text text-anchor="middle" x="896.5" y="-544.8" font-family="Times,serif" font-size="14.00">PHI Data flow</text>
</g>
<!-- d6 -->
<!-- d7 -->
<!-- d6&#45;&gt;d7 -->
<g id="edge23" class="edge">
<title>d6&#45;&gt;d7</title>
<path fill="none" stroke="green" d="M701,-538C712.94,-538 775.3,-538 801.93,-538"/>
<polygon fill="green" stroke="green" points="801.95,-541.5 811.95,-538 801.95,-534.5 801.95,-541.5"/>
<text text-anchor="middle" x="756.5" y="-544.8" font-family="Times,serif" font-size="14.00">Memory flow</text>
</g>
</g>
</svg>
