<?xml version="1.0" encoding="UTF-8" standalone="no"?>
<!DOCTYPE svg PUBLIC "-//W3C//DTD SVG 1.1//EN"
 "http://www.w3.org/Graphics/SVG/1.1/DTD/svg11.dtd">
<!-- Generated by graphviz version 2.43.0 (0)
 -->
<!-- Title: debugoutput Pages: 1 -->
<svg width="1708pt" height="578pt"
 viewBox="0.00 0.00 1708.00 577.80" xmlns="http://www.w3.org/2000/svg" xmlns:xlink="http://www.w3.org/1999/xlink">
<g id="graph0" class="graph" transform="scale(1 1) rotate(0) translate(4 573.8)">
<title>debugoutput</title>
<polygon fill="white" stroke="transparent" points="-4,4 -4,-573.8 1704,-573.8 1704,4 -4,4"/>
<g id="clust1" class="cluster">
<title>cluster_000</title>
<polygon fill="none" stroke="black" points="716,-519.2 716,-561.8 1692,-561.8 1692,-519.2 716,-519.2"/>
<text text-anchor="middle" x="1204" y="-546.6" font-family="Times,serif" font-size="14.00">Legend</text>
</g>
<!-- node0 -->
<g id="node1" class="node">
<title>node0</title>
<polygon fill="lightgrey" stroke="black" points="706,-547 540,-547 540,-511 706,-511 706,-547"/>
<text text-anchor="middle" x="623" y="-525.3" font-family="Times,serif" font-size="14.00">#0 Method Order : 0</text>
</g>
<!-- node1 -->
<g id="node2" class="node">
<title>node1</title>
<polygon fill="lightgrey" stroke="black" points="308,-474 0,-474 0,-438 308,-438 308,-474"/>
<text text-anchor="middle" x="154" y="-452.3" font-family="Times,serif" font-size="14.00">#1 this : StaticFieldAccessTest Order : 3</text>
</g>
<!-- node0&#45;&gt;node1 -->
<g id="edge2" class="edge">
<title>node0&#45;&gt;node1</title>
<path fill="none" stroke="black" d="M539.97,-521.21C477.23,-515.26 389.3,-505.58 313,-493 284.95,-488.37 254.49,-482.2 227.78,-476.28"/>
<polygon fill="black" stroke="black" points="228.26,-472.8 217.74,-474.02 226.73,-479.63 228.26,-472.8"/>
<text text-anchor="middle" x="237.27" y="-466.05" font-family="Times,serif" font-size="14.00">*0</text>
</g>
<!-- node2 -->
<g id="node3" class="node">
<title>node2</title>
<polygon fill="lightgrey" stroke="black" points="717,-474 529,-474 529,-438 717,-438 717,-474"/>
<text text-anchor="middle" x="623" y="-452.3" font-family="Times,serif" font-size="14.00">#2 LabelNode Order : 1</text>
</g>
<!-- node0&#45;&gt;node2 -->
<g id="edge4" class="edge">
<title>node0&#45;&gt;node2</title>
<path fill="none" stroke="red" d="M617.12,-510.81C616.28,-502.79 616.05,-493.05 616.42,-484.07"/>
<polygon fill="red" stroke="red" points="619.92,-484.25 617.14,-474.03 612.94,-483.75 619.92,-484.25"/>
</g>
<!-- node4 -->
<g id="node5" class="node">
<title>node4</title>
<polygon fill="lightgrey" stroke="black" points="790,-328 616,-328 616,-292 790,-292 790,-328"/>
<text text-anchor="middle" x="703" y="-306.3" font-family="Times,serif" font-size="14.00">#4 ClassInit Order : 4</text>
</g>
<!-- node0&#45;&gt;node4 -->
<g id="edge9" class="edge">
<title>node0&#45;&gt;node4</title>
<path fill="none" stroke="green" d="M675.31,-510.97C748.79,-487.28 875.97,-442.57 900,-401 927.44,-353.53 862.73,-331.06 800.23,-320.44"/>
<polygon fill="green" stroke="green" points="800.66,-316.97 790.23,-318.84 799.55,-323.88 800.66,-316.97"/>
</g>
<!-- node1&#45;&gt;node0 -->
<g id="edge1" class="edge">
<title>node1&#45;&gt;node0</title>
<path fill="none" stroke="fuchsia" stroke-width="2" d="M234.4,-474.02C264.67,-480.6 299.36,-487.78 331,-493 397.23,-503.92 472.21,-512.65 529.65,-518.66"/>
<polygon fill="fuchsia" stroke="fuchsia" stroke-width="2" points="529.5,-522.16 539.8,-519.71 530.22,-515.2 529.5,-522.16"/>
</g>
<!-- node2&#45;&gt;node0 -->
<g id="edge3" class="edge">
<title>node2&#45;&gt;node0</title>
<path fill="none" stroke="fuchsia" stroke-width="2" d="M628.86,-474.03C629.71,-482.03 629.95,-491.77 629.59,-500.75"/>
<polygon fill="fuchsia" stroke="fuchsia" stroke-width="2" points="626.09,-500.59 628.88,-510.81 633.07,-501.08 626.09,-500.59"/>
</g>
<!-- node3 -->
<g id="node4" class="node">
<title>node3</title>
<polygon fill="lightgreen" stroke="black" points="881.77,-375.54 881.77,-390.46 730.19,-401 515.81,-401 364.23,-390.46 364.23,-375.54 515.81,-365 730.19,-365 881.77,-375.54"/>
<text text-anchor="middle" x="623" y="-379.3" font-family="Times,serif" font-size="14.00">#3 Class StaticFieldAccessTest$Source Order : 2</text>
</g>
<!-- node2&#45;&gt;node3 -->
<g id="edge6" class="edge">
<title>node2&#45;&gt;node3</title>
<path fill="none" stroke="black" stroke-dasharray="1,5" d="M617.12,-437.81C616.28,-429.79 616.05,-420.05 616.42,-411.07"/>
<polygon fill="black" stroke="black" points="619.92,-411.25 617.14,-401.03 612.94,-410.75 619.92,-411.25"/>
</g>
<!-- node2&#45;&gt;node4 -->
<g id="edge10" class="edge">
<title>node2&#45;&gt;node4</title>
<path fill="none" stroke="red" d="M717.11,-448.47C785.26,-441.56 869.09,-427.76 891,-401 923.75,-361 861.4,-337.62 799.9,-324.76"/>
<polygon fill="red" stroke="red" points="800.54,-321.32 790.05,-322.79 799.16,-328.18 800.54,-321.32"/>
</g>
<!-- node3&#45;&gt;node2 -->
<g id="edge5" class="edge">
<title>node3&#45;&gt;node2</title>
<path fill="none" stroke="fuchsia" stroke-width="2" d="M628.86,-401.03C629.71,-409.03 629.95,-418.77 629.59,-427.75"/>
<polygon fill="fuchsia" stroke="fuchsia" stroke-width="2" points="626.09,-427.59 628.88,-437.81 633.07,-428.08 626.09,-427.59"/>
</g>
<!-- node3&#45;&gt;node4 -->
<g id="edge8" class="edge">
<title>node3&#45;&gt;node4</title>
<path fill="none" stroke="black" d="M642.37,-364.81C652.49,-355.83 665.04,-344.69 676.09,-334.89"/>
<polygon fill="black" stroke="black" points="678.66,-337.28 683.81,-328.03 674.01,-332.05 678.66,-337.28"/>
<text text-anchor="middle" x="675.87" y="-342.68" font-family="Times,serif" font-size="14.00">*0</text>
</g>
<!-- node5 -->
<g id="node6" class="node">
<title>node5</title>
<polygon fill="orange" stroke="black" points="580.22,-302.54 580.22,-317.46 437.16,-328 234.84,-328 91.78,-317.46 91.78,-302.54 234.84,-292 437.16,-292 580.22,-302.54"/>
<text text-anchor="middle" x="336" y="-306.3" font-family="Times,serif" font-size="14.00">#5 GetStaticField : array_field : int[] Order : 6</text>
</g>
<!-- node3&#45;&gt;node5 -->
<g id="edge12" class="edge">
<title>node3&#45;&gt;node5</title>
<path fill="none" stroke="black" d="M554.26,-364.99C512.32,-354.62 458.57,-341.32 414.9,-330.52"/>
<polygon fill="black" stroke="black" points="415.73,-327.12 405.18,-328.11 414.04,-333.91 415.73,-327.12"/>
<text text-anchor="middle" x="424.8" y="-320.56" font-family="Times,serif" font-size="14.00">*0</text>
</g>
<!-- node4&#45;&gt;node0 -->
<g id="edge7" class="edge">
<title>node4&#45;&gt;node0</title>
<path fill="none" stroke="fuchsia" stroke-width="2" d="M790.22,-316.92C862.62,-325.71 948.96,-347.45 918,-401 894.95,-440.86 777.05,-483.61 697.39,-507.95"/>
<polygon fill="fuchsia" stroke="fuchsia" stroke-width="2" points="695.95,-504.73 687.38,-510.97 697.97,-511.43 695.95,-504.73"/>
</g>
<!-- node4&#45;&gt;node5 -->
<g id="edge13" class="edge">
<title>node4&#45;&gt;node5</title>
<path fill="none" stroke="green" d="M615.86,-310C607.46,-310 599.07,-310 590.67,-310"/>
<polygon fill="green" stroke="green" points="590.43,-306.5 580.43,-310 590.43,-313.5 590.43,-306.5"/>
</g>
<!-- node6 -->
<g id="node7" class="node">
<title>node6</title>
<polygon fill="lightgreen" stroke="black" points="980.2,-229.54 980.2,-244.46 814.89,-255 581.11,-255 415.8,-244.46 415.8,-229.54 581.11,-219 814.89,-219 980.2,-229.54"/>
<text text-anchor="middle" x="698" y="-233.3" font-family="Times,serif" font-size="14.00">#6 Class StaticFieldAccessTest$Destination Order : 5</text>
</g>
<!-- node4&#45;&gt;node6 -->
<g id="edge15" class="edge">
<title>node4&#45;&gt;node6</title>
<path fill="none" stroke="black" stroke-dasharray="1,5" d="M695.91,-291.81C694.51,-283.79 693.59,-274.05 693.33,-265.07"/>
<polygon fill="black" stroke="black" points="696.83,-265.03 693.34,-255.03 689.83,-265.03 696.83,-265.03"/>
</g>
<!-- node7 -->
<g id="node8" class="node">
<title>node7</title>
<polygon fill="lightgrey" stroke="black" points="699,-182 525,-182 525,-146 699,-146 699,-182"/>
<text text-anchor="middle" x="612" y="-160.3" font-family="Times,serif" font-size="14.00">#7 ClassInit Order : 7</text>
</g>
<!-- node4&#45;&gt;node7 -->
<g id="edge19" class="edge">
<title>node4&#45;&gt;node7</title>
<path fill="none" stroke="red" d="M615.71,-295.85C530.87,-282.65 413.79,-263.14 407,-255 369.98,-210.62 445.12,-187.43 514.62,-175.79"/>
<polygon fill="red" stroke="red" points="515.5,-179.19 524.82,-174.15 514.39,-172.28 515.5,-179.19"/>
</g>
<!-- node5&#45;&gt;node0 -->
<g id="edge11" class="edge">
<title>node5&#45;&gt;node0</title>
<path fill="none" stroke="fuchsia" stroke-width="2" d="M335.3,-328.13C335.39,-347.76 338.38,-379.94 355,-401 399.49,-457.37 475.06,-490.02 534.64,-508.06"/>
<polygon fill="fuchsia" stroke="fuchsia" stroke-width="2" points="533.85,-511.47 544.43,-510.94 535.82,-504.76 533.85,-511.47"/>
</g>
<!-- node5&#45;&gt;node7 -->
<g id="edge18" class="edge">
<title>node5&#45;&gt;node7</title>
<path fill="none" stroke="green" d="M510.72,-297.42C701.38,-284.36 980.9,-263.8 989,-255 999.84,-243.23 999.48,-231.09 989,-219 953.46,-178.01 808.55,-167.38 709.11,-165.03"/>
<polygon fill="green" stroke="green" points="709.1,-161.53 699.03,-164.82 708.95,-168.53 709.1,-161.53"/>
</g>
<!-- node8 -->
<g id="node9" class="node">
<title>node8</title>
<polygon fill="lightgrey" stroke="black" points="871.5,-109 524.5,-109 524.5,-73 871.5,-73 871.5,-109"/>
<text text-anchor="middle" x="698" y="-87.3" font-family="Times,serif" font-size="14.00">#8 PutStaticField : array_field : int[] Order : 8</text>
</g>
<!-- node5&#45;&gt;node8 -->
<g id="edge22" class="edge">
<title>node5&#45;&gt;node8</title>
<path fill="none" stroke="black" d="M344.29,-291.98C354.24,-272.74 372.31,-241.21 394,-219 449.59,-162.07 534.53,-129.51 600.51,-111.65"/>
<polygon fill="black" stroke="black" points="601.73,-114.94 610.51,-109.01 599.95,-108.18 601.73,-114.94"/>
<text text-anchor="middle" x="595.14" y="-118.1" font-family="Times,serif" font-size="14.00">*1</text>
</g>
<!-- node6&#45;&gt;node4 -->
<g id="edge14" class="edge">
<title>node6&#45;&gt;node4</title>
<path fill="none" stroke="fuchsia" stroke-width="2" d="M705.06,-255.03C706.47,-263.03 707.4,-272.77 707.67,-281.75"/>
<polygon fill="fuchsia" stroke="fuchsia" stroke-width="2" points="704.17,-281.81 707.67,-291.81 711.17,-281.81 704.17,-281.81"/>
</g>
<!-- node6&#45;&gt;node7 -->
<g id="edge17" class="edge">
<title>node6&#45;&gt;node7</title>
<path fill="none" stroke="black" d="M677.18,-218.81C666.2,-209.74 652.55,-198.48 640.59,-188.6"/>
<polygon fill="black" stroke="black" points="642.57,-185.7 632.63,-182.03 638.11,-191.09 642.57,-185.7"/>
<text text-anchor="middle" x="651.99" y="-183.35" font-family="Times,serif" font-size="14.00">*0</text>
</g>
<!-- node6&#45;&gt;node8 -->
<g id="edge21" class="edge">
<title>node6&#45;&gt;node8</title>
<path fill="none" stroke="black" d="M702.06,-218.6C704.31,-208.08 706.87,-194.34 708,-182 709.46,-166.07 709.46,-161.93 708,-146 707.19,-137.23 705.67,-127.75 704.04,-119.22"/>
<polygon fill="black" stroke="black" points="707.47,-118.51 702.06,-109.4 700.61,-119.89 707.47,-118.51"/>
<text text-anchor="middle" x="713.93" y="-121.79" font-family="Times,serif" font-size="14.00">*0</text>
</g>
<!-- node7&#45;&gt;node0 -->
<g id="edge16" class="edge">
<title>node7&#45;&gt;node0</title>
<path fill="none" stroke="fuchsia" stroke-width="2" d="M699.14,-164.38C773.76,-165.97 883.34,-173.38 975,-200 1008.98,-209.87 1046,-200.62 1046,-236 1046,-457 1046,-457 1046,-457 1046,-529.25 805.96,-500.45 716.5,-510.57"/>
<polygon fill="fuchsia" stroke="fuchsia" stroke-width="2" points="715.78,-507.13 706.37,-512 716.76,-514.06 715.78,-507.13"/>
</g>
<!-- node7&#45;&gt;node8 -->
<g id="edge23" class="edge">
<title>node7&#45;&gt;node8</title>
<path fill="none" stroke="green" d="M626.94,-145.81C637.07,-136.66 650.71,-125.26 663.37,-115.32"/>
<polygon fill="green" stroke="green" points="665.74,-117.91 671.51,-109.03 661.46,-112.37 665.74,-117.91"/>
</g>
<!-- node7&#45;&gt;node8 -->
<g id="edge24" class="edge">
<title>node7&#45;&gt;node8</title>
<path fill="none" stroke="red" d="M638.7,-145.81C650.52,-136.83 664.19,-125.69 675.49,-115.89"/>
<polygon fill="red" stroke="red" points="678.07,-118.28 683.24,-109.03 673.43,-113.03 678.07,-118.28"/>
</g>
<!-- node8&#45;&gt;node0 -->
<g id="edge20" class="edge">
<title>node8&#45;&gt;node0</title>
<path fill="none" stroke="fuchsia" stroke-width="2" d="M871.52,-108.74C974.06,-121.07 1084,-139.73 1084,-163 1084,-457 1084,-457 1084,-457 1084,-486.96 1055.53,-483.85 1027,-493 963.1,-513.48 796.73,-503.37 716.58,-510.65"/>
<polygon fill="fuchsia" stroke="fuchsia" stroke-width="2" points="715.9,-507.2 706.33,-511.74 716.64,-514.16 715.9,-507.2"/>
</g>
<!-- node9 -->
<g id="node10" class="node">
<title>node9</title>
<polygon fill="lightgrey" stroke="black" points="778.5,-36 617.5,-36 617.5,0 778.5,0 778.5,-36"/>
<text text-anchor="middle" x="698" y="-14.3" font-family="Times,serif" font-size="14.00">#9 Return Order : 9</text>
</g>
<!-- node8&#45;&gt;node9 -->
<g id="edge26" class="edge">
<title>node8&#45;&gt;node9</title>
<path fill="none" stroke="red" d="M686.24,-72.81C684.56,-64.79 684.1,-55.05 684.84,-46.07"/>
<polygon fill="red" stroke="red" points="688.33,-46.42 686.28,-36.03 681.4,-45.43 688.33,-46.42"/>
</g>
<!-- node8&#45;&gt;node9 -->
<g id="edge27" class="edge">
<title>node8&#45;&gt;node9</title>
<path fill="none" stroke="green" d="M709.76,-72.81C711.44,-64.79 711.9,-55.05 711.16,-46.07"/>
<polygon fill="green" stroke="green" points="714.6,-45.43 709.72,-36.03 707.67,-46.42 714.6,-45.43"/>
</g>
<!-- node9&#45;&gt;node8 -->
<g id="edge25" class="edge">
<title>node9&#45;&gt;node8</title>
<path fill="none" stroke="fuchsia" stroke-width="2" d="M698,-36.03C698,-44.03 698,-53.77 698,-62.75"/>
<polygon fill="fuchsia" stroke="fuchsia" stroke-width="2" points="694.5,-62.81 698,-72.81 701.5,-62.81 694.5,-62.81"/>
</g>
<!-- c0 -->
<!-- c1 -->
<!-- c0&#45;&gt;c1 -->
<g id="edge28" class="edge">
<title>c0&#45;&gt;c1</title>
<path fill="none" stroke="red" d="M1574.89,-529C1586.11,-529 1644.24,-529 1669.86,-529"/>
<polygon fill="red" stroke="red" points="1670.06,-532.5 1680.06,-529 1670.06,-525.5 1670.06,-532.5"/>
<text text-anchor="middle" x="1627.5" y="-535.8" font-family="Times,serif" font-size="14.00">Control flow</text>
</g>
<!-- c2 -->
<!-- c3 -->
<!-- c2&#45;&gt;c3 -->
<g id="edge29" class="edge">
<title>c2&#45;&gt;c3</title>
<path fill="none" stroke="red" stroke-dasharray="5,2" d="M1368.08,-529C1385.05,-529 1501.21,-529 1539.08,-529"/>
<polygon fill="red" stroke="red" points="1539.17,-532.5 1549.17,-529 1539.17,-525.5 1539.17,-532.5"/>
<text text-anchor="middle" x="1458.5" y="-535.8" font-family="Times,serif" font-size="14.00">Control flow back edge</text>
</g>
<!-- d0 -->
<!-- d1 -->
<!-- d0&#45;&gt;d1 -->
<g id="edge30" class="edge">
<title>d0&#45;&gt;d1</title>
<path fill="none" stroke="black" d="M1256.86,-529C1266.41,-529 1310.31,-529 1331.92,-529"/>
<polygon fill="black" stroke="black" points="1332.15,-532.5 1342.15,-529 1332.15,-525.5 1332.15,-532.5"/>
<text text-anchor="middle" x="1299.5" y="-535.8" font-family="Times,serif" font-size="14.00">Data flow</text>
</g>
<!-- d2 -->
<!-- d3 -->
<!-- d2&#45;&gt;d3 -->
<g id="edge31" class="edge">
<title>d2&#45;&gt;d3</title>
<path fill="none" stroke="black" stroke-dasharray="1,5" d="M1130.81,-529C1141.46,-529 1196.46,-529 1221.08,-529"/>
<polygon fill="black" stroke="black" points="1221.15,-532.5 1231.15,-529 1221.15,-525.5 1221.15,-532.5"/>
<text text-anchor="middle" x="1181" y="-535.8" font-family="Times,serif" font-size="14.00">Declaration</text>
</g>
<!-- d4 -->
<!-- d5 -->
<!-- d4&#45;&gt;d5 -->
<g id="edge32" class="edge">
<title>d4&#45;&gt;d5</title>
<path fill="none" stroke="blue" d="M988.1,-529C1000.72,-529 1066.88,-529 1094.68,-529"/>
<polygon fill="blue" stroke="blue" points="1094.84,-532.5 1104.84,-529 1094.84,-525.5 1094.84,-532.5"/>
<text text-anchor="middle" x="1046.5" y="-535.8" font-family="Times,serif" font-size="14.00">PHI Data flow</text>
</g>
<!-- d6 -->
<!-- d7 -->
<!-- d6&#45;&gt;d7 -->
<g id="edge33" class="edge">
<title>d6&#45;&gt;d7</title>
<path fill="none" stroke="green" d="M851,-529C862.94,-529 925.3,-529 951.93,-529"/>
<polygon fill="green" stroke="green" points="951.95,-532.5 961.95,-529 951.95,-525.5 951.95,-532.5"/>
<text text-anchor="middle" x="906.5" y="-535.8" font-family="Times,serif" font-size="14.00">Memory flow</text>
</g>
<!-- d8 -->
<!-- d9 -->
<!-- d8&#45;&gt;d9 -->
<g id="edge34" class="edge">
<title>d8&#45;&gt;d9</title>
<path fill="none" stroke="fuchsia" d="M728.11,-529C739.15,-529 790.67,-529 814.66,-529"/>
<polygon fill="fuchsia" stroke="fuchsia" points="814.9,-532.5 824.9,-529 814.9,-525.5 814.9,-532.5"/>
<text text-anchor="middle" x="776.5" y="-535.8" font-family="Times,serif" font-size="14.00">Dominance</text>
</g>
</g>
</svg>
