<?xml version="1.0" encoding="UTF-8" standalone="no"?>
<!DOCTYPE svg PUBLIC "-//W3C//DTD SVG 1.1//EN"
 "http://www.w3.org/Graphics/SVG/1.1/DTD/svg11.dtd">
<!-- Generated by graphviz version 2.43.0 (0)
 -->
<!-- Title: %3 Pages: 1 -->
<svg width="1233pt" height="505pt"
 viewBox="0.00 0.00 1233.00 504.80" xmlns="http://www.w3.org/2000/svg" xmlns:xlink="http://www.w3.org/1999/xlink">
<g id="graph0" class="graph" transform="scale(1 1) rotate(0) translate(4 500.8)">
<title>%3</title>
<polygon fill="white" stroke="transparent" points="-4,4 -4,-500.8 1229,-500.8 1229,4 -4,4"/>
<g id="clust1" class="cluster">
<title>cluster_000</title>
<polygon fill="none" stroke="black" points="881,-446.2 881,-488.8 1217,-488.8 1217,-446.2 881,-446.2"/>
<text text-anchor="middle" x="1049" y="-473.6" font-family="Times,serif" font-size="14.00">Legend</text>
</g>
<!-- node0 -->
<g id="node1" class="node">
<title>node0</title>
<polygon fill="lightgrey" stroke="black" points="871.5,-474 54.5,-474 54.5,-438 871.5,-438 871.5,-474"/>
<text text-anchor="middle" x="463" y="-452.3" font-family="Times,serif" font-size="14.00">#0 LocalVariable[name=this, slot=0, type=Lde/mirkosertic/metair/ir/examples/StaticFieldAccessTest;] Order: 0</text>
</g>
<!-- node1 -->
<g id="node2" class="node">
<title>node1</title>
<polygon fill="lightgrey" stroke="black" points="698,-401 228,-401 228,-365 698,-365 698,-401"/>
<text text-anchor="middle" x="463" y="-379.3" font-family="Times,serif" font-size="14.00">#1 Label[context=CodeModel[id=264394929], bci=0] Order: 1</text>
</g>
<!-- node0&#45;&gt;node1 -->
<g id="edge1" class="edge">
<title>node0&#45;&gt;node1</title>
<path fill="none" stroke="red" d="M463,-437.81C463,-429.79 463,-420.05 463,-411.07"/>
<polygon fill="red" stroke="red" points="466.5,-411.03 463,-401.03 459.5,-411.03 466.5,-411.03"/>
</g>
<!-- node2 -->
<g id="node3" class="node">
<title>node2</title>
<polygon fill="lightgrey" stroke="black" points="594.5,-328 331.5,-328 331.5,-292 594.5,-292 594.5,-328"/>
<text text-anchor="middle" x="463" y="-306.3" font-family="Times,serif" font-size="14.00">#2 LineNumber[line=39] Order: 2</text>
</g>
<!-- node1&#45;&gt;node2 -->
<g id="edge2" class="edge">
<title>node1&#45;&gt;node2</title>
<path fill="none" stroke="red" d="M463,-364.81C463,-356.79 463,-347.05 463,-338.07"/>
<polygon fill="red" stroke="red" points="466.5,-338.03 463,-328.03 459.5,-338.03 466.5,-338.03"/>
</g>
<!-- node3 -->
<g id="node4" class="node">
<title>node3</title>
<polygon fill="lightgrey" stroke="black" points="910,-255 16,-255 16,-219 910,-219 910,-255"/>
<text text-anchor="middle" x="463" y="-233.3" font-family="Times,serif" font-size="14.00">#3 Field[OP=GETSTATIC, field=de/mirkosertic/metair/ir/examples/StaticFieldAccessTest$Source.boolean_field:Z] Order: 3</text>
</g>
<!-- node2&#45;&gt;node3 -->
<g id="edge3" class="edge">
<title>node2&#45;&gt;node3</title>
<path fill="none" stroke="red" d="M463,-291.81C463,-283.79 463,-274.05 463,-265.07"/>
<polygon fill="red" stroke="red" points="466.5,-265.03 463,-255.03 459.5,-265.03 466.5,-265.03"/>
</g>
<!-- node4 -->
<g id="node5" class="node">
<title>node4</title>
<polygon fill="lightgrey" stroke="black" points="926,-182 0,-182 0,-146 926,-146 926,-182"/>
<text text-anchor="middle" x="463" y="-160.3" font-family="Times,serif" font-size="14.00">#4 Field[OP=PUTSTATIC, field=de/mirkosertic/metair/ir/examples/StaticFieldAccessTest$Destination.boolean_field:Z] Order: 4</text>
</g>
<!-- node3&#45;&gt;node4 -->
<g id="edge4" class="edge">
<title>node3&#45;&gt;node4</title>
<path fill="none" stroke="red" d="M463,-218.81C463,-210.79 463,-201.05 463,-192.07"/>
<polygon fill="red" stroke="red" points="466.5,-192.03 463,-182.03 459.5,-192.03 466.5,-192.03"/>
</g>
<!-- node5 -->
<g id="node6" class="node">
<title>node5</title>
<polygon fill="lightgrey" stroke="black" points="594.5,-109 331.5,-109 331.5,-73 594.5,-73 594.5,-109"/>
<text text-anchor="middle" x="463" y="-87.3" font-family="Times,serif" font-size="14.00">#5 LineNumber[line=40] Order: 5</text>
</g>
<!-- node4&#45;&gt;node5 -->
<g id="edge5" class="edge">
<title>node4&#45;&gt;node5</title>
<path fill="none" stroke="red" d="M463,-145.81C463,-137.79 463,-128.05 463,-119.07"/>
<polygon fill="red" stroke="red" points="466.5,-119.03 463,-109.03 459.5,-119.03 466.5,-119.03"/>
</g>
<!-- node6 -->
<g id="node7" class="node">
<title>node6</title>
<polygon fill="lightgrey" stroke="black" points="595,-36 331,-36 331,0 595,0 595,-36"/>
<text text-anchor="middle" x="463" y="-14.3" font-family="Times,serif" font-size="14.00">#6 Return[OP=RETURN] Order: 6</text>
</g>
<!-- node5&#45;&gt;node6 -->
<g id="edge6" class="edge">
<title>node5&#45;&gt;node6</title>
<path fill="none" stroke="red" d="M463,-72.81C463,-64.79 463,-55.05 463,-46.07"/>
<polygon fill="red" stroke="red" points="466.5,-46.03 463,-36.03 459.5,-46.03 466.5,-46.03"/>
</g>
<!-- c0 -->
<!-- c1 -->
<!-- c0&#45;&gt;c1 -->
<g id="edge7" class="edge">
<title>c0&#45;&gt;c1</title>
<path fill="none" stroke="red" d="M1099.89,-456C1111.11,-456 1169.24,-456 1194.86,-456"/>
<polygon fill="red" stroke="red" points="1195.06,-459.5 1205.06,-456 1195.06,-452.5 1195.06,-459.5"/>
<text text-anchor="middle" x="1152.5" y="-462.8" font-family="Times,serif" font-size="14.00">Control flow</text>
</g>
<!-- c2 -->
<!-- c3 -->
<!-- c2&#45;&gt;c3 -->
<g id="edge8" class="edge">
<title>c2&#45;&gt;c3</title>
<path fill="none" stroke="red" stroke-dasharray="5,2" d="M893.08,-456C910.05,-456 1026.21,-456 1064.08,-456"/>
<polygon fill="red" stroke="red" points="1064.17,-459.5 1074.17,-456 1064.17,-452.5 1064.17,-459.5"/>
<text text-anchor="middle" x="983.5" y="-462.8" font-family="Times,serif" font-size="14.00">Control flow back edge</text>
</g>
</g>
</svg>
