<?xml version="1.0" encoding="UTF-8" standalone="no"?>
<!DOCTYPE svg PUBLIC "-//W3C//DTD SVG 1.1//EN"
 "http://www.w3.org/Graphics/SVG/1.1/DTD/svg11.dtd">
<!-- Generated by graphviz version 2.43.0 (0)
 -->
<!-- Title: debugoutput Pages: 1 -->
<svg width="763pt" height="432pt"
 viewBox="0.00 0.00 762.50 431.80" xmlns="http://www.w3.org/2000/svg" xmlns:xlink="http://www.w3.org/1999/xlink">
<g id="graph0" class="graph" transform="scale(1 1) rotate(0) translate(4 427.8)">
<title>debugoutput</title>
<polygon fill="white" stroke="transparent" points="-4,4 -4,-427.8 758.5,-427.8 758.5,4 -4,4"/>
<g id="clust1" class="cluster">
<title>cluster_000</title>
<polygon fill="none" stroke="black" points="287.5,-373.2 287.5,-415.8 746.5,-415.8 746.5,-373.2 287.5,-373.2"/>
<text text-anchor="middle" x="517" y="-400.6" font-family="Times,serif" font-size="14.00">Legend</text>
</g>
<!-- node0 -->
<g id="node1" class="node">
<title>node0</title>
<polygon fill="lightgrey" stroke="black" points="277.5,-401 111.5,-401 111.5,-365 277.5,-365 277.5,-401"/>
<text text-anchor="middle" x="194.5" y="-379.3" font-family="Times,serif" font-size="14.00">#0 Method Order : 0</text>
</g>
<!-- node1 -->
<g id="node2" class="node">
<title>node1</title>
<polygon fill="lightgrey" stroke="black" points="288.5,-328 100.5,-328 100.5,-292 288.5,-292 288.5,-328"/>
<text text-anchor="middle" x="194.5" y="-306.3" font-family="Times,serif" font-size="14.00">#1 LabelNode Order : 1</text>
</g>
<!-- node0&#45;&gt;node1 -->
<g id="edge2" class="edge">
<title>node0&#45;&gt;node1</title>
<path fill="none" stroke="red" d="M188.62,-364.81C187.78,-356.79 187.55,-347.05 187.92,-338.07"/>
<polygon fill="red" stroke="red" points="191.42,-338.25 188.64,-328.03 184.44,-337.75 191.42,-338.25"/>
</g>
<!-- node1&#45;&gt;node0 -->
<g id="edge1" class="edge">
<title>node1&#45;&gt;node0</title>
<path fill="none" stroke="fuchsia" stroke-width="2" d="M200.36,-328.03C201.21,-336.03 201.45,-345.77 201.09,-354.75"/>
<polygon fill="fuchsia" stroke="fuchsia" stroke-width="2" points="197.59,-354.59 200.38,-364.81 204.57,-355.08 197.59,-354.59"/>
</g>
<!-- node2 -->
<g id="node3" class="node">
<title>node2</title>
<polygon fill="lightgrey" stroke="black" points="281.5,-255 107.5,-255 107.5,-219 281.5,-219 281.5,-255"/>
<text text-anchor="middle" x="194.5" y="-233.3" font-family="Times,serif" font-size="14.00">#2 ClassInit Order : 2</text>
</g>
<!-- node1&#45;&gt;node2 -->
<g id="edge4" class="edge">
<title>node1&#45;&gt;node2</title>
<path fill="none" stroke="red" d="M188.62,-291.81C187.78,-283.79 187.55,-274.05 187.92,-265.07"/>
<polygon fill="red" stroke="red" points="191.42,-265.25 188.64,-255.03 184.44,-264.75 191.42,-265.25"/>
</g>
<!-- node2&#45;&gt;node1 -->
<g id="edge3" class="edge">
<title>node2&#45;&gt;node1</title>
<path fill="none" stroke="fuchsia" stroke-width="2" d="M200.36,-255.03C201.21,-263.03 201.45,-272.77 201.09,-281.75"/>
<polygon fill="fuchsia" stroke="fuchsia" stroke-width="2" points="197.59,-281.59 200.38,-291.81 204.57,-282.08 197.59,-281.59"/>
</g>
<!-- node3 -->
<g id="node4" class="node">
<title>node3</title>
<polygon fill="lightgrey" stroke="black" points="281.5,-182 107.5,-182 107.5,-146 281.5,-146 281.5,-182"/>
<text text-anchor="middle" x="194.5" y="-160.3" font-family="Times,serif" font-size="14.00">#3 ClassInit Order : 3</text>
</g>
<!-- node2&#45;&gt;node3 -->
<g id="edge6" class="edge">
<title>node2&#45;&gt;node3</title>
<path fill="none" stroke="red" d="M188.62,-218.81C187.78,-210.79 187.55,-201.05 187.92,-192.07"/>
<polygon fill="red" stroke="red" points="191.42,-192.25 188.64,-182.03 184.44,-191.75 191.42,-192.25"/>
</g>
<!-- node3&#45;&gt;node2 -->
<g id="edge5" class="edge">
<title>node3&#45;&gt;node2</title>
<path fill="none" stroke="fuchsia" stroke-width="2" d="M200.36,-182.03C201.21,-190.03 201.45,-199.77 201.09,-208.75"/>
<polygon fill="fuchsia" stroke="fuchsia" stroke-width="2" points="197.59,-208.59 200.38,-218.81 204.57,-209.08 197.59,-208.59"/>
</g>
<!-- node4 -->
<g id="node5" class="node">
<title>node4</title>
<polygon fill="lightgrey" stroke="black" points="389,-109 0,-109 0,-73 389,-73 389,-109"/>
<text text-anchor="middle" x="194.5" y="-87.3" font-family="Times,serif" font-size="14.00">#4 PutStaticField : boolean_field : boolean Order : 4</text>
</g>
<!-- node3&#45;&gt;node4 -->
<g id="edge8" class="edge">
<title>node3&#45;&gt;node4</title>
<path fill="none" stroke="red" d="M188.62,-145.81C187.78,-137.79 187.55,-128.05 187.92,-119.07"/>
<polygon fill="red" stroke="red" points="191.42,-119.25 188.64,-109.03 184.44,-118.75 191.42,-119.25"/>
</g>
<!-- node4&#45;&gt;node3 -->
<g id="edge7" class="edge">
<title>node4&#45;&gt;node3</title>
<path fill="none" stroke="fuchsia" stroke-width="2" d="M200.36,-109.03C201.21,-117.03 201.45,-126.77 201.09,-135.75"/>
<polygon fill="fuchsia" stroke="fuchsia" stroke-width="2" points="197.59,-135.59 200.38,-145.81 204.57,-136.08 197.59,-135.59"/>
</g>
<!-- node5 -->
<g id="node6" class="node">
<title>node5</title>
<polygon fill="lightgrey" stroke="black" points="275,-36 114,-36 114,0 275,0 275,-36"/>
<text text-anchor="middle" x="194.5" y="-14.3" font-family="Times,serif" font-size="14.00">#5 Return Order : 5</text>
</g>
<!-- node4&#45;&gt;node5 -->
<g id="edge10" class="edge">
<title>node4&#45;&gt;node5</title>
<path fill="none" stroke="red" d="M188.62,-72.81C187.78,-64.79 187.55,-55.05 187.92,-46.07"/>
<polygon fill="red" stroke="red" points="191.42,-46.25 188.64,-36.03 184.44,-45.75 191.42,-46.25"/>
</g>
<!-- node5&#45;&gt;node4 -->
<g id="edge9" class="edge">
<title>node5&#45;&gt;node4</title>
<path fill="none" stroke="fuchsia" stroke-width="2" d="M200.36,-36.03C201.21,-44.03 201.45,-53.77 201.09,-62.75"/>
<polygon fill="fuchsia" stroke="fuchsia" stroke-width="2" points="197.59,-62.59 200.38,-72.81 204.57,-63.08 197.59,-62.59"/>
</g>
<!-- c0 -->
<!-- c1 -->
<!-- c0&#45;&gt;c1 -->
<g id="edge11" class="edge">
<title>c0&#45;&gt;c1</title>
<path fill="none" stroke="red" d="M629.39,-383C640.61,-383 698.74,-383 724.36,-383"/>
<polygon fill="red" stroke="red" points="724.56,-386.5 734.56,-383 724.56,-379.5 724.56,-386.5"/>
<text text-anchor="middle" x="682" y="-389.8" font-family="Times,serif" font-size="14.00">Control flow</text>
</g>
<!-- c2 -->
<!-- c3 -->
<!-- c2&#45;&gt;c3 -->
<g id="edge12" class="edge">
<title>c2&#45;&gt;c3</title>
<path fill="none" stroke="red" stroke-dasharray="5,2" d="M422.58,-383C439.55,-383 555.71,-383 593.58,-383"/>
<polygon fill="red" stroke="red" points="593.67,-386.5 603.67,-383 593.67,-379.5 593.67,-386.5"/>
<text text-anchor="middle" x="513" y="-389.8" font-family="Times,serif" font-size="14.00">Control flow back edge</text>
</g>
<!-- d8 -->
<!-- d9 -->
<!-- d8&#45;&gt;d9 -->
<g id="edge13" class="edge">
<title>d8&#45;&gt;d9</title>
<path fill="none" stroke="fuchsia" d="M299.61,-383C310.65,-383 362.17,-383 386.16,-383"/>
<polygon fill="fuchsia" stroke="fuchsia" points="386.4,-386.5 396.4,-383 386.4,-379.5 386.4,-386.5"/>
<text text-anchor="middle" x="348" y="-389.8" font-family="Times,serif" font-size="14.00">Dominance</text>
</g>
</g>
</svg>
