<?xml version="1.0" encoding="UTF-8" standalone="no"?>
<!DOCTYPE svg PUBLIC "-//W3C//DTD SVG 1.1//EN"
 "http://www.w3.org/Graphics/SVG/1.1/DTD/svg11.dtd">
<!-- Generated by graphviz version 2.43.0 (0)
 -->
<!-- Title: debugoutput Pages: 1 -->
<svg width="1810pt" height="505pt"
 viewBox="0.00 0.00 1810.00 504.80" xmlns="http://www.w3.org/2000/svg" xmlns:xlink="http://www.w3.org/1999/xlink">
<g id="graph0" class="graph" transform="scale(1 1) rotate(0) translate(4 500.8)">
<title>debugoutput</title>
<polygon fill="white" stroke="transparent" points="-4,4 -4,-500.8 1806,-500.8 1806,4 -4,4"/>
<g id="clust1" class="cluster">
<title>cluster_000</title>
<polygon fill="none" stroke="black" points="901,-446.2 901,-488.8 1740,-488.8 1740,-446.2 901,-446.2"/>
<text text-anchor="middle" x="1320.5" y="-473.6" font-family="Times,serif" font-size="14.00">Legend</text>
</g>
<!-- node0 -->
<g id="node1" class="node">
<title>node0</title>
<polygon fill="lightgrey" stroke="black" points="891,-474 725,-474 725,-438 891,-438 891,-474"/>
<text text-anchor="middle" x="808" y="-452.3" font-family="Times,serif" font-size="14.00">#0 Method Order : 0</text>
</g>
<!-- node1 -->
<g id="node2" class="node">
<title>node1</title>
<polygon fill="lightgrey" stroke="black" points="320,-328 146,-328 146,-292 320,-292 320,-328"/>
<text text-anchor="middle" x="233" y="-306.3" font-family="Times,serif" font-size="14.00">#1 ClassInit Order : 5</text>
</g>
<!-- node0&#45;&gt;node1 -->
<g id="edge3" class="edge">
<title>node0&#45;&gt;node1</title>
<path fill="none" stroke="black" d="M724.92,-452.42C576.66,-446.93 278.98,-431.96 244,-401 226.55,-385.55 222.48,-358.56 223.87,-338.15"/>
<polygon fill="black" stroke="black" points="227.35,-338.52 225.05,-328.18 220.4,-337.7 227.35,-338.52"/>
</g>
<!-- node4 -->
<g id="node3" class="node">
<title>node4</title>
<polygon fill="lightgreen" stroke="black" points="779.77,-375.54 779.77,-390.46 628.19,-401 413.81,-401 262.23,-390.46 262.23,-375.54 413.81,-365 628.19,-365 779.77,-375.54"/>
<text text-anchor="middle" x="521" y="-379.3" font-family="Times,serif" font-size="14.00">#4 Class StaticFieldAccessTest$Source Order : 2</text>
</g>
<!-- node0&#45;&gt;node4 -->
<g id="edge10" class="edge">
<title>node0&#45;&gt;node4</title>
<path fill="none" stroke="black" stroke-dasharray="1,5" d="M733.4,-437.99C690.45,-427.64 636.75,-414.38 594.07,-403.59"/>
<polygon fill="black" stroke="black" points="594.86,-400.18 584.31,-401.11 593.14,-406.96 594.86,-400.18"/>
</g>
<!-- node3 -->
<g id="node4" class="node">
<title>node3</title>
<polygon fill="lightgrey" stroke="black" points="188,-401 0,-401 0,-365 188,-365 188,-401"/>
<text text-anchor="middle" x="94" y="-379.3" font-family="Times,serif" font-size="14.00">#3 LabelNode Order : 3</text>
</g>
<!-- node0&#45;&gt;node3 -->
<g id="edge8" class="edge">
<title>node0&#45;&gt;node3</title>
<path fill="none" stroke="red" d="M724.77,-453.06C580.9,-449.13 291.9,-438.99 193,-420 174.5,-416.45 154.81,-410.55 137.84,-404.55"/>
<polygon fill="red" stroke="red" points="138.79,-401.17 128.19,-401.02 136.38,-407.74 138.79,-401.17"/>
</g>
<!-- node2 -->
<g id="node5" class="node">
<title>node2</title>
<polygon fill="lightgrey" stroke="black" points="1802,-401 1494,-401 1494,-365 1802,-365 1802,-401"/>
<text text-anchor="middle" x="1648" y="-379.3" font-family="Times,serif" font-size="14.00">#2 this : StaticFieldAccessTest Order : 4</text>
</g>
<!-- node0&#45;&gt;node2 -->
<g id="edge6" class="edge">
<title>node0&#45;&gt;node2</title>
<path fill="none" stroke="red" d="M888.38,-437.96C1145.74,-409.63 1213.79,-451.27 1471,-420 1501.46,-416.3 1534.57,-409.76 1563.86,-403.26"/>
<polygon fill="red" stroke="red" points="1564.65,-406.67 1573.64,-401.06 1563.12,-399.84 1564.65,-406.67"/>
</g>
<!-- node6 -->
<g id="node7" class="node">
<title>node6</title>
<polygon fill="lightgreen" stroke="black" points="1438.2,-375.54 1438.2,-390.46 1272.89,-401 1039.11,-401 873.8,-390.46 873.8,-375.54 1039.11,-365 1272.89,-365 1438.2,-375.54"/>
<text text-anchor="middle" x="1156" y="-379.3" font-family="Times,serif" font-size="14.00">#6 Class StaticFieldAccessTest$Destination Order : 1</text>
</g>
<!-- node0&#45;&gt;node6 -->
<g id="edge15" class="edge">
<title>node0&#45;&gt;node6</title>
<path fill="none" stroke="black" stroke-dasharray="1,5" d="M885.5,-437.99C935.96,-427.47 1002.23,-413.94 1056.56,-403.05"/>
<polygon fill="black" stroke="black" points="1057.44,-406.45 1066.56,-401.05 1056.07,-399.58 1057.44,-406.45"/>
</g>
<!-- node1&#45;&gt;node0 -->
<g id="edge1" class="edge">
<title>node1&#45;&gt;node0</title>
<path fill="none" stroke="green" stroke-width="2" d="M237.69,-328.18C239.47,-348.8 241.51,-382.86 262,-401 295.34,-430.51 567.35,-445.49 714.47,-451.59"/>
<polygon fill="green" stroke="green" stroke-width="2" points="714.7,-455.1 724.84,-452.01 714.99,-448.11 714.7,-455.1"/>
</g>
<!-- node5 -->
<g id="node6" class="node">
<title>node5</title>
<polygon fill="orange" stroke="black" points="818.22,-229.54 818.22,-244.46 657.59,-255 430.41,-255 269.78,-244.46 269.78,-229.54 430.41,-219 657.59,-219 818.22,-229.54"/>
<text text-anchor="middle" x="544" y="-233.3" font-family="Times,serif" font-size="14.00">#5 GetStaticField : boolean_field : boolean Order : 6</text>
</g>
<!-- node1&#45;&gt;node5 -->
<g id="edge13" class="edge">
<title>node1&#45;&gt;node5</title>
<path fill="none" stroke="black" d="M307.49,-291.99C353.21,-281.56 411.89,-268.16 459.36,-257.32"/>
<polygon fill="black" stroke="black" points="460.34,-260.69 469.31,-255.05 458.78,-253.87 460.34,-260.69"/>
</g>
<!-- node7 -->
<g id="node8" class="node">
<title>node7</title>
<polygon fill="lightgrey" stroke="black" points="933,-182 759,-182 759,-146 933,-146 933,-182"/>
<text text-anchor="middle" x="846" y="-160.3" font-family="Times,serif" font-size="14.00">#7 ClassInit Order : 7</text>
</g>
<!-- node1&#45;&gt;node7 -->
<g id="edge19" class="edge">
<title>node1&#45;&gt;node7</title>
<path fill="none" stroke="red" d="M233.02,-291.65C234.07,-270.85 239.25,-236.61 261,-219 297.99,-189.05 592.03,-174.07 748.62,-168.15"/>
<polygon fill="red" stroke="red" points="748.86,-171.64 758.73,-167.77 748.6,-164.65 748.86,-171.64"/>
</g>
<!-- node4&#45;&gt;node0 -->
<g id="edge9" class="edge">
<title>node4&#45;&gt;node0</title>
<path fill="none" stroke="green" stroke-width="2" d="M595.79,-401.05C638.85,-411.43 692.66,-424.73 735.35,-435.52"/>
<polygon fill="green" stroke="green" stroke-width="2" points="734.56,-438.93 745.12,-437.99 736.28,-432.14 734.56,-438.93"/>
</g>
<!-- node4&#45;&gt;node1 -->
<g id="edge2" class="edge">
<title>node4&#45;&gt;node1</title>
<path fill="none" stroke="black" d="M452.02,-364.99C409.94,-354.62 356,-341.32 312.18,-330.52"/>
<polygon fill="black" stroke="black" points="312.97,-327.11 302.42,-328.11 311.29,-333.91 312.97,-327.11"/>
<text text-anchor="middle" x="322.04" y="-320.55" font-family="Times,serif" font-size="14.00">*0</text>
</g>
<!-- node4&#45;&gt;node5 -->
<g id="edge12" class="edge">
<title>node4&#45;&gt;node5</title>
<path fill="none" stroke="black" d="M523.73,-364.92C527.67,-340.23 535,-294.35 539.68,-265.04"/>
<polygon fill="black" stroke="black" points="543.15,-265.49 541.27,-255.06 536.24,-264.38 543.15,-265.49"/>
<text text-anchor="middle" x="546.76" y="-270.59" font-family="Times,serif" font-size="14.00">*0</text>
</g>
<!-- node3&#45;&gt;node0 -->
<g id="edge7" class="edge">
<title>node3&#45;&gt;node0</title>
<path fill="none" stroke="green" stroke-width="2" d="M144.61,-401.02C165.04,-408.15 188.87,-415.75 211,-420 305.18,-438.09 571.76,-448.15 714.76,-452.45"/>
<polygon fill="green" stroke="green" stroke-width="2" points="714.74,-455.95 724.84,-452.75 714.94,-448.96 714.74,-455.95"/>
</g>
<!-- node3&#45;&gt;node1 -->
<g id="edge4" class="edge">
<title>node3&#45;&gt;node1</title>
<path fill="none" stroke="red" d="M127.29,-364.99C146.24,-355.32 170.16,-343.1 190.46,-332.73"/>
<polygon fill="red" stroke="red" points="192.18,-335.78 199.5,-328.11 189,-329.55 192.18,-335.78"/>
</g>
<!-- node2&#45;&gt;node0 -->
<g id="edge5" class="edge">
<title>node2&#45;&gt;node0</title>
<path fill="none" stroke="green" stroke-width="2" d="M1590.03,-401.06C1560.09,-408.24 1522.9,-415.88 1489,-420 1231.66,-451.29 1163.67,-409.59 906,-438 904.49,-438.17 902.96,-438.35 901.42,-438.53"/>
<polygon fill="green" stroke="green" stroke-width="2" points="900.59,-435.12 891.15,-439.93 901.53,-442.05 900.59,-435.12"/>
</g>
<!-- node5&#45;&gt;node0 -->
<g id="edge11" class="edge">
<title>node5&#45;&gt;node0</title>
<path fill="none" stroke="green" stroke-width="2" d="M610.34,-255.06C666.55,-273.02 744.84,-306.95 789,-365 802.64,-382.93 807.02,-408.44 808.2,-427.72"/>
<polygon fill="green" stroke="green" stroke-width="2" points="804.71,-428.11 808.57,-437.98 811.7,-427.86 804.71,-428.11"/>
</g>
<!-- node5&#45;&gt;node7 -->
<g id="edge18" class="edge">
<title>node5&#45;&gt;node7</title>
<path fill="none" stroke="black" d="M616.34,-218.99C660.64,-208.58 717.47,-195.22 763.52,-184.39"/>
<polygon fill="black" stroke="black" points="764.54,-187.75 773.47,-182.05 762.93,-180.93 764.54,-187.75"/>
</g>
<!-- node8 -->
<g id="node9" class="node">
<title>node8</title>
<polygon fill="lightgrey" stroke="black" points="1040.5,-109 651.5,-109 651.5,-73 1040.5,-73 1040.5,-109"/>
<text text-anchor="middle" x="846" y="-87.3" font-family="Times,serif" font-size="14.00">#8 PutStaticField : boolean_field : boolean Order : 8</text>
</g>
<!-- node5&#45;&gt;node8 -->
<g id="edge22" class="edge">
<title>node5&#45;&gt;node8</title>
<path fill="none" stroke="black" d="M579.83,-218.92C635,-192.61 740.67,-142.22 800.95,-113.48"/>
<polygon fill="black" stroke="black" points="802.7,-116.53 810.22,-109.06 799.68,-110.21 802.7,-116.53"/>
<text text-anchor="middle" x="797.49" y="-120.79" font-family="Times,serif" font-size="14.00">*1</text>
</g>
<!-- node6&#45;&gt;node0 -->
<g id="edge14" class="edge">
<title>node6&#45;&gt;node0</title>
<path fill="none" stroke="green" stroke-width="2" d="M1078.36,-401.04C1025.96,-411.96 956.59,-426.12 901.21,-437.19"/>
<polygon fill="green" stroke="green" stroke-width="2" points="900.52,-433.76 891.4,-439.15 901.89,-440.63 900.52,-433.76"/>
</g>
<!-- node6&#45;&gt;node7 -->
<g id="edge17" class="edge">
<title>node6&#45;&gt;node7</title>
<path fill="none" stroke="black" d="M1117.12,-364.86C1106.17,-359.56 1094.41,-353.42 1084,-347 1002.9,-296.98 915.99,-225.35 873.12,-188.65"/>
<polygon fill="black" stroke="black" points="875.26,-185.87 865.39,-182.01 870.69,-191.18 875.26,-185.87"/>
<text text-anchor="middle" x="884.65" y="-183.72" font-family="Times,serif" font-size="14.00">*0</text>
</g>
<!-- node6&#45;&gt;node8 -->
<g id="edge21" class="edge">
<title>node6&#45;&gt;node8</title>
<path fill="none" stroke="black" d="M1130.73,-364.93C1115.1,-352.15 1098,-333.12 1098,-311 1098,-311 1098,-311 1098,-163 1098,-138.34 1052.74,-121.83 1000.57,-110.99"/>
<polygon fill="black" stroke="black" points="1001.26,-107.56 990.76,-109.03 999.89,-114.42 1001.26,-107.56"/>
<text text-anchor="middle" x="1010.19" y="-100.59" font-family="Times,serif" font-size="14.00">*0</text>
</g>
<!-- node7&#45;&gt;node0 -->
<g id="edge16" class="edge">
<title>node7&#45;&gt;node0</title>
<path fill="none" stroke="green" stroke-width="2" d="M846,-182.22C846,-196.59 846,-217.63 846,-236 846,-384 846,-384 846,-384 846,-400.47 837.95,-416.82 829.26,-429.67"/>
<polygon fill="green" stroke="green" stroke-width="2" points="826.28,-427.82 823.24,-437.96 831.95,-431.93 826.28,-427.82"/>
</g>
<!-- node7&#45;&gt;node8 -->
<g id="edge23" class="edge">
<title>node7&#45;&gt;node8</title>
<path fill="none" stroke="black" d="M840.12,-145.81C839.28,-137.79 839.05,-128.05 839.42,-119.07"/>
<polygon fill="black" stroke="black" points="842.92,-119.25 840.14,-109.03 835.94,-118.75 842.92,-119.25"/>
</g>
<!-- node7&#45;&gt;node8 -->
<g id="edge24" class="edge">
<title>node7&#45;&gt;node8</title>
<path fill="none" stroke="red" d="M851.88,-145.81C852.72,-137.79 852.95,-128.05 852.58,-119.07"/>
<polygon fill="red" stroke="red" points="856.06,-118.75 851.86,-109.03 849.08,-119.25 856.06,-118.75"/>
</g>
<!-- node8&#45;&gt;node0 -->
<g id="edge20" class="edge">
<title>node8&#45;&gt;node0</title>
<path fill="none" stroke="green" stroke-width="2" d="M1040.9,-96.14C1222.68,-102.68 1466,-119.56 1466,-163 1466,-384 1466,-384 1466,-384 1466,-445.03 998.75,-431.15 901.32,-437.84"/>
<polygon fill="green" stroke="green" stroke-width="2" points="900.96,-434.36 891.33,-438.77 901.61,-441.33 900.96,-434.36"/>
</g>
<!-- node9 -->
<g id="node10" class="node">
<title>node9</title>
<polygon fill="lightgrey" stroke="black" points="926.5,-36 765.5,-36 765.5,0 926.5,0 926.5,-36"/>
<text text-anchor="middle" x="846" y="-14.3" font-family="Times,serif" font-size="14.00">#9 Return Order : 9</text>
</g>
<!-- node8&#45;&gt;node9 -->
<g id="edge26" class="edge">
<title>node8&#45;&gt;node9</title>
<path fill="none" stroke="red" d="M834.24,-72.81C832.56,-64.79 832.1,-55.05 832.84,-46.07"/>
<polygon fill="red" stroke="red" points="836.33,-46.42 834.28,-36.03 829.4,-45.43 836.33,-46.42"/>
</g>
<!-- node8&#45;&gt;node9 -->
<g id="edge27" class="edge">
<title>node8&#45;&gt;node9</title>
<path fill="none" stroke="black" d="M857.76,-72.81C859.44,-64.79 859.9,-55.05 859.16,-46.07"/>
<polygon fill="black" stroke="black" points="862.6,-45.43 857.72,-36.03 855.67,-46.42 862.6,-45.43"/>
</g>
<!-- node9&#45;&gt;node8 -->
<g id="edge25" class="edge">
<title>node9&#45;&gt;node8</title>
<path fill="none" stroke="green" stroke-width="2" d="M846,-36.03C846,-44.03 846,-53.77 846,-62.75"/>
<polygon fill="green" stroke="green" stroke-width="2" points="842.5,-62.81 846,-72.81 849.5,-62.81 842.5,-62.81"/>
</g>
<!-- c0 -->
<!-- c1 -->
<!-- c0&#45;&gt;c1 -->
<g id="edge28" class="edge">
<title>c0&#45;&gt;c1</title>
<path fill="none" stroke="red" d="M1622.89,-456C1634.11,-456 1692.24,-456 1717.86,-456"/>
<polygon fill="red" stroke="red" points="1718.06,-459.5 1728.06,-456 1718.06,-452.5 1718.06,-459.5"/>
<text text-anchor="middle" x="1675.5" y="-462.8" font-family="Times,serif" font-size="14.00">Control flow</text>
</g>
<!-- c2 -->
<!-- c3 -->
<!-- c2&#45;&gt;c3 -->
<g id="edge29" class="edge">
<title>c2&#45;&gt;c3</title>
<path fill="none" stroke="red" stroke-dasharray="5,2" d="M1416.08,-456C1433.05,-456 1549.21,-456 1587.08,-456"/>
<polygon fill="red" stroke="red" points="1587.17,-459.5 1597.17,-456 1587.17,-452.5 1587.17,-459.5"/>
<text text-anchor="middle" x="1506.5" y="-462.8" font-family="Times,serif" font-size="14.00">Control flow back edge</text>
</g>
<!-- d0 -->
<!-- d1 -->
<!-- d0&#45;&gt;d1 -->
<g id="edge30" class="edge">
<title>d0&#45;&gt;d1</title>
<path fill="none" stroke="black" d="M1304.86,-456C1314.41,-456 1358.31,-456 1379.92,-456"/>
<polygon fill="black" stroke="black" points="1380.15,-459.5 1390.15,-456 1380.15,-452.5 1380.15,-459.5"/>
<text text-anchor="middle" x="1347.5" y="-462.8" font-family="Times,serif" font-size="14.00">Data flow</text>
</g>
<!-- d2 -->
<!-- d3 -->
<!-- d2&#45;&gt;d3 -->
<g id="edge31" class="edge">
<title>d2&#45;&gt;d3</title>
<path fill="none" stroke="black" stroke-dasharray="1,5" d="M1178.81,-456C1189.46,-456 1244.46,-456 1269.08,-456"/>
<polygon fill="black" stroke="black" points="1269.15,-459.5 1279.15,-456 1269.15,-452.5 1269.15,-459.5"/>
<text text-anchor="middle" x="1229" y="-462.8" font-family="Times,serif" font-size="14.00">Declaration</text>
</g>
<!-- d4 -->
<!-- d5 -->
<!-- d4&#45;&gt;d5 -->
<g id="edge32" class="edge">
<title>d4&#45;&gt;d5</title>
<path fill="none" stroke="blue" d="M1036.1,-456C1048.72,-456 1114.88,-456 1142.68,-456"/>
<polygon fill="blue" stroke="blue" points="1142.84,-459.5 1152.84,-456 1142.84,-452.5 1142.84,-459.5"/>
<text text-anchor="middle" x="1094.5" y="-462.8" font-family="Times,serif" font-size="14.00">PHI Data flow</text>
</g>
<!-- d6 -->
<!-- d7 -->
<!-- d6&#45;&gt;d7 -->
<g id="edge33" class="edge">
<title>d6&#45;&gt;d7</title>
<path fill="none" stroke="green" d="M913.11,-456C924.15,-456 975.67,-456 999.66,-456"/>
<polygon fill="green" stroke="green" points="999.9,-459.5 1009.9,-456 999.9,-452.5 999.9,-459.5"/>
<text text-anchor="middle" x="961.5" y="-462.8" font-family="Times,serif" font-size="14.00">Dominance</text>
</g>
</g>
</svg>
