<?xml version="1.0" encoding="UTF-8" standalone="no"?>
<!DOCTYPE svg PUBLIC "-//W3C//DTD SVG 1.1//EN"
 "http://www.w3.org/Graphics/SVG/1.1/DTD/svg11.dtd">
<!-- Generated by graphviz version 2.43.0 (0)
 -->
<!-- Title: debugoutput Pages: 1 -->
<svg width="1643pt" height="286pt"
 viewBox="0.00 0.00 1643.00 285.80" xmlns="http://www.w3.org/2000/svg" xmlns:xlink="http://www.w3.org/1999/xlink">
<g id="graph0" class="graph" transform="scale(1 1) rotate(0) translate(4 281.8)">
<title>debugoutput</title>
<polygon fill="white" stroke="transparent" points="-4,4 -4,-281.8 1639,-281.8 1639,4 -4,4"/>
<g id="clust1" class="cluster">
<title>cluster_000</title>
<polygon fill="none" stroke="black" points="651,-227.2 651,-269.8 1627,-269.8 1627,-227.2 651,-227.2"/>
<text text-anchor="middle" x="1139" y="-254.6" font-family="Times,serif" font-size="14.00">Legend</text>
</g>
<!-- node0 -->
<g id="node1" class="node">
<title>node0</title>
<polygon fill="lightgrey" stroke="black" points="641,-255 475,-255 475,-219 641,-219 641,-255"/>
<text text-anchor="middle" x="558" y="-233.3" font-family="Times,serif" font-size="14.00">#0 Method Order : 0</text>
</g>
<!-- node1 -->
<g id="node2" class="node">
<title>node1</title>
<polygon fill="lightgrey" stroke="black" points="206,-182 0,-182 0,-146 206,-146 206,-182"/>
<text text-anchor="middle" x="103" y="-160.3" font-family="Times,serif" font-size="14.00">#1 arg1 : double Order : 4</text>
</g>
<!-- node0&#45;&gt;node1 -->
<g id="edge2" class="edge">
<title>node0&#45;&gt;node1</title>
<path fill="none" stroke="black" d="M474.81,-223.84C402.35,-212.8 296.7,-196.35 216.5,-183.65"/>
<polygon fill="black" stroke="black" points="216.78,-180.15 206.36,-182.04 215.69,-187.07 216.78,-180.15"/>
<text text-anchor="middle" x="225.58" y="-172.83" font-family="Times,serif" font-size="14.00">*0</text>
</g>
<!-- node2 -->
<g id="node3" class="node">
<title>node2</title>
<polygon fill="lightgrey" stroke="black" points="430,-182 224,-182 224,-146 430,-146 430,-182"/>
<text text-anchor="middle" x="327" y="-160.3" font-family="Times,serif" font-size="14.00">#2 arg0 : double Order : 3</text>
</g>
<!-- node0&#45;&gt;node2 -->
<g id="edge4" class="edge">
<title>node0&#45;&gt;node2</title>
<path fill="none" stroke="black" d="M496.81,-218.99C462.69,-208.84 420.43,-195.88 386.57,-185.2"/>
<polygon fill="black" stroke="black" points="387.4,-181.79 376.81,-182.11 385.29,-188.47 387.4,-181.79"/>
<text text-anchor="middle" x="396.64" y="-175.82" font-family="Times,serif" font-size="14.00">*0</text>
</g>
<!-- node3 -->
<g id="node4" class="node">
<title>node3</title>
<polygon fill="lightgrey" stroke="black" points="667.5,-182 448.5,-182 448.5,-146 667.5,-146 667.5,-182"/>
<text text-anchor="middle" x="558" y="-160.3" font-family="Times,serif" font-size="14.00">#3 this : MathTest Order : 2</text>
</g>
<!-- node0&#45;&gt;node3 -->
<g id="edge6" class="edge">
<title>node0&#45;&gt;node3</title>
<path fill="none" stroke="black" d="M552.12,-218.81C551.28,-210.79 551.05,-201.05 551.42,-192.07"/>
<polygon fill="black" stroke="black" points="554.92,-192.25 552.14,-182.03 547.94,-191.75 554.92,-192.25"/>
<text text-anchor="middle" x="559.28" y="-197.01" font-family="Times,serif" font-size="14.00">*0</text>
</g>
<!-- node4 -->
<g id="node5" class="node">
<title>node4</title>
<polygon fill="lightgrey" stroke="black" points="912,-182 724,-182 724,-146 912,-146 912,-182"/>
<text text-anchor="middle" x="818" y="-160.3" font-family="Times,serif" font-size="14.00">#4 LabelNode Order : 1</text>
</g>
<!-- node0&#45;&gt;node4 -->
<g id="edge8" class="edge">
<title>node0&#45;&gt;node4</title>
<path fill="none" stroke="red" d="M629.8,-218.99C652.64,-213.67 677.93,-207.49 701,-201 717.62,-196.33 735.47,-190.65 752.14,-185.2"/>
<polygon fill="red" stroke="red" points="753.39,-188.48 761.8,-182.03 751.21,-181.83 753.39,-188.48"/>
</g>
<!-- node6 -->
<g id="node7" class="node">
<title>node6</title>
<polygon fill="lightgrey" stroke="black" points="948.5,-36 687.5,-36 687.5,0 948.5,0 948.5,-36"/>
<text text-anchor="middle" x="818" y="-14.3" font-family="Times,serif" font-size="14.00">#6 ReturnValue : double Order : 6</text>
</g>
<!-- node0&#45;&gt;node6 -->
<g id="edge15" class="edge">
<title>node0&#45;&gt;node6</title>
<path fill="none" stroke="green" d="M638.36,-218.94C699.32,-209.2 871.64,-228.17 912,-182 951.26,-137.08 885.94,-75.7 845.65,-42.56"/>
<polygon fill="green" stroke="green" points="847.7,-39.71 837.73,-36.12 843.29,-45.14 847.7,-39.71"/>
</g>
<!-- node1&#45;&gt;node0 -->
<g id="edge1" class="edge">
<title>node1&#45;&gt;node0</title>
<path fill="none" stroke="fuchsia" stroke-width="2" d="M206.02,-180.19C283.85,-192.11 389.71,-208.63 464.99,-220.6"/>
<polygon fill="fuchsia" stroke="fuchsia" stroke-width="2" points="464.51,-224.07 474.94,-222.18 465.61,-217.16 464.51,-224.07"/>
</g>
<!-- node5 -->
<g id="node6" class="node">
<title>node5</title>
<polygon fill="orange" stroke="black" points="628.9,-83.54 628.9,-98.46 546.36,-109 429.64,-109 347.1,-98.46 347.1,-83.54 429.64,-73 546.36,-73 628.9,-83.54"/>
<text text-anchor="middle" x="488" y="-87.3" font-family="Times,serif" font-size="14.00">#5 Mul : double Order : 5</text>
</g>
<!-- node1&#45;&gt;node5 -->
<g id="edge11" class="edge">
<title>node1&#45;&gt;node5</title>
<path fill="none" stroke="black" d="M195.22,-145.99C257.17,-134.57 338.35,-119.6 399.51,-108.32"/>
<polygon fill="black" stroke="black" points="400.34,-111.73 409.53,-106.47 399.07,-104.84 400.34,-111.73"/>
<text text-anchor="middle" x="393.24" y="-114.37" font-family="Times,serif" font-size="14.00">*1</text>
</g>
<!-- node2&#45;&gt;node0 -->
<g id="edge3" class="edge">
<title>node2&#45;&gt;node0</title>
<path fill="none" stroke="fuchsia" stroke-width="2" d="M388.55,-182.11C422.73,-192.29 464.99,-205.25 498.78,-215.91"/>
<polygon fill="fuchsia" stroke="fuchsia" stroke-width="2" points="497.94,-219.31 508.53,-218.99 500.05,-212.64 497.94,-219.31"/>
</g>
<!-- node2&#45;&gt;node5 -->
<g id="edge10" class="edge">
<title>node2&#45;&gt;node5</title>
<path fill="none" stroke="black" d="M365.56,-145.99C387.9,-136.14 416.22,-123.66 439.99,-113.17"/>
<polygon fill="black" stroke="black" points="441.46,-116.35 449.19,-109.11 438.63,-109.95 441.46,-116.35"/>
<text text-anchor="middle" x="436.02" y="-120.46" font-family="Times,serif" font-size="14.00">*0</text>
</g>
<!-- node3&#45;&gt;node0 -->
<g id="edge5" class="edge">
<title>node3&#45;&gt;node0</title>
<path fill="none" stroke="fuchsia" stroke-width="2" d="M563.86,-182.03C564.71,-190.03 564.95,-199.77 564.59,-208.75"/>
<polygon fill="fuchsia" stroke="fuchsia" stroke-width="2" points="561.09,-208.59 563.88,-218.81 568.07,-209.08 561.09,-208.59"/>
</g>
<!-- node4&#45;&gt;node0 -->
<g id="edge7" class="edge">
<title>node4&#45;&gt;node0</title>
<path fill="none" stroke="fuchsia" stroke-width="2" d="M778.57,-182.03C760.53,-188.39 738.88,-195.41 719,-201 697.2,-207.13 673.42,-212.99 650.97,-218.1"/>
<polygon fill="fuchsia" stroke="fuchsia" stroke-width="2" points="650.09,-214.71 641.1,-220.32 651.63,-221.54 650.09,-214.71"/>
</g>
<!-- node4&#45;&gt;node6 -->
<g id="edge14" class="edge">
<title>node4&#45;&gt;node6</title>
<path fill="none" stroke="red" d="M818,-145.92C818,-121.34 818,-75.75 818,-46.43"/>
<polygon fill="red" stroke="red" points="821.5,-46.06 818,-36.06 814.5,-46.06 821.5,-46.06"/>
</g>
<!-- node5&#45;&gt;node0 -->
<g id="edge9" class="edge">
<title>node5&#45;&gt;node0</title>
<path fill="none" stroke="fuchsia" stroke-width="2" d="M571.86,-105.76C616.04,-114.91 663.77,-128.46 677,-146 686.64,-158.77 685.67,-168.55 677,-182 667.75,-196.35 653.67,-206.93 638.38,-214.71"/>
<polygon fill="fuchsia" stroke="fuchsia" stroke-width="2" points="636.84,-211.57 629.27,-218.98 639.81,-217.91 636.84,-211.57"/>
</g>
<!-- node5&#45;&gt;node6 -->
<g id="edge13" class="edge">
<title>node5&#45;&gt;node6</title>
<path fill="none" stroke="black" d="M559.61,-74.59C609.2,-63.92 675.58,-49.64 728.65,-38.22"/>
<polygon fill="black" stroke="black" points="729.69,-41.58 738.73,-36.05 728.22,-34.74 729.69,-41.58"/>
<text text-anchor="middle" x="722.79" y="-44.43" font-family="Times,serif" font-size="14.00">*0</text>
</g>
<!-- node6&#45;&gt;node0 -->
<g id="edge12" class="edge">
<title>node6&#45;&gt;node0</title>
<path fill="none" stroke="fuchsia" stroke-width="2" d="M848.31,-36.12C894.44,-67.17 971.97,-133.99 930,-182 889.57,-228.26 716.64,-209.12 656,-219 654.5,-219.25 652.98,-219.5 651.45,-219.75"/>
<polygon fill="fuchsia" stroke="fuchsia" stroke-width="2" points="650.5,-216.36 641.23,-221.5 651.68,-223.26 650.5,-216.36"/>
</g>
<!-- c0 -->
<!-- c1 -->
<!-- c0&#45;&gt;c1 -->
<g id="edge16" class="edge">
<title>c0&#45;&gt;c1</title>
<path fill="none" stroke="red" d="M1509.89,-237C1521.11,-237 1579.24,-237 1604.86,-237"/>
<polygon fill="red" stroke="red" points="1605.06,-240.5 1615.06,-237 1605.06,-233.5 1605.06,-240.5"/>
<text text-anchor="middle" x="1562.5" y="-243.8" font-family="Times,serif" font-size="14.00">Control flow</text>
</g>
<!-- c2 -->
<!-- c3 -->
<!-- c2&#45;&gt;c3 -->
<g id="edge17" class="edge">
<title>c2&#45;&gt;c3</title>
<path fill="none" stroke="red" stroke-dasharray="5,2" d="M1303.08,-237C1320.05,-237 1436.21,-237 1474.08,-237"/>
<polygon fill="red" stroke="red" points="1474.17,-240.5 1484.17,-237 1474.17,-233.5 1474.17,-240.5"/>
<text text-anchor="middle" x="1393.5" y="-243.8" font-family="Times,serif" font-size="14.00">Control flow back edge</text>
</g>
<!-- d0 -->
<!-- d1 -->
<!-- d0&#45;&gt;d1 -->
<g id="edge18" class="edge">
<title>d0&#45;&gt;d1</title>
<path fill="none" stroke="black" d="M1191.86,-237C1201.41,-237 1245.31,-237 1266.92,-237"/>
<polygon fill="black" stroke="black" points="1267.15,-240.5 1277.15,-237 1267.15,-233.5 1267.15,-240.5"/>
<text text-anchor="middle" x="1234.5" y="-243.8" font-family="Times,serif" font-size="14.00">Data flow</text>
</g>
<!-- d2 -->
<!-- d3 -->
<!-- d2&#45;&gt;d3 -->
<g id="edge19" class="edge">
<title>d2&#45;&gt;d3</title>
<path fill="none" stroke="black" stroke-dasharray="1,5" d="M1065.81,-237C1076.46,-237 1131.46,-237 1156.08,-237"/>
<polygon fill="black" stroke="black" points="1156.15,-240.5 1166.15,-237 1156.15,-233.5 1156.15,-240.5"/>
<text text-anchor="middle" x="1116" y="-243.8" font-family="Times,serif" font-size="14.00">Declaration</text>
</g>
<!-- d4 -->
<!-- d5 -->
<!-- d4&#45;&gt;d5 -->
<g id="edge20" class="edge">
<title>d4&#45;&gt;d5</title>
<path fill="none" stroke="blue" d="M923.1,-237C935.72,-237 1001.88,-237 1029.68,-237"/>
<polygon fill="blue" stroke="blue" points="1029.84,-240.5 1039.84,-237 1029.84,-233.5 1029.84,-240.5"/>
<text text-anchor="middle" x="981.5" y="-243.8" font-family="Times,serif" font-size="14.00">PHI Data flow</text>
</g>
<!-- d6 -->
<!-- d7 -->
<!-- d6&#45;&gt;d7 -->
<g id="edge21" class="edge">
<title>d6&#45;&gt;d7</title>
<path fill="none" stroke="green" d="M786,-237C797.94,-237 860.3,-237 886.93,-237"/>
<polygon fill="green" stroke="green" points="886.95,-240.5 896.95,-237 886.95,-233.5 886.95,-240.5"/>
<text text-anchor="middle" x="841.5" y="-243.8" font-family="Times,serif" font-size="14.00">Memory flow</text>
</g>
<!-- d8 -->
<!-- d9 -->
<!-- d8&#45;&gt;d9 -->
<g id="edge22" class="edge">
<title>d8&#45;&gt;d9</title>
<path fill="none" stroke="fuchsia" d="M663.11,-237C674.15,-237 725.67,-237 749.66,-237"/>
<polygon fill="fuchsia" stroke="fuchsia" points="749.9,-240.5 759.9,-237 749.9,-233.5 749.9,-240.5"/>
<text text-anchor="middle" x="711.5" y="-243.8" font-family="Times,serif" font-size="14.00">Dominance</text>
</g>
</g>
</svg>
