<?xml version="1.0" encoding="UTF-8" standalone="no"?>
<!DOCTYPE svg PUBLIC "-//W3C//DTD SVG 1.1//EN"
 "http://www.w3.org/Graphics/SVG/1.1/DTD/svg11.dtd">
<!-- Generated by graphviz version 2.43.0 (0)
 -->
<!-- Title: %3 Pages: 1 -->
<svg width="1849pt" height="662pt"
 viewBox="0.00 0.00 1848.50 662.00" xmlns="http://www.w3.org/2000/svg" xmlns:xlink="http://www.w3.org/1999/xlink">
<g id="graph0" class="graph" transform="scale(1 1) rotate(0) translate(4 658)">
<title>%3</title>
<polygon fill="white" stroke="transparent" points="-4,4 -4,-658 1844.5,-658 1844.5,4 -4,4"/>
<g id="clust1" class="cluster">
<title>cluster_0</title>
<polygon fill="none" stroke="lightgray" points="167.5,-503 167.5,-646 971.5,-646 971.5,-503 167.5,-503"/>
</g>
<g id="clust2" class="cluster">
<title>cluster_000</title>
<polygon fill="none" stroke="black" points="979.5,-601.2 979.5,-643.8 1832.5,-643.8 1832.5,-601.2 979.5,-601.2"/>
<text text-anchor="middle" x="1406" y="-628.6" font-family="Times,serif" font-size="14.00">Legend</text>
</g>
<!-- node0 -->
<g id="node1" class="node">
<title>node0</title>
<polygon fill="lightgrey" stroke="transparent" points="463,-638 296,-638 296,-584 463,-584 463,-638"/>
<polygon fill="none" stroke="black" points="296.5,-611 296.5,-638 463.5,-638 463.5,-611 296.5,-611"/>
<text text-anchor="start" x="339.5" y="-620.8" font-family="Times,serif" font-size="14.00">#0 Method</text>
<polygon fill="yellow" stroke="transparent" points="296.5,-584 296.5,-611 463.5,-611 463.5,-584 296.5,-584"/>
<polygon fill="none" stroke="black" points="296.5,-584 296.5,-611 463.5,-611 463.5,-584 296.5,-584"/>
<text text-anchor="start" x="302.5" y="-593.8" font-family="Times,serif" font-size="14.00">this : FieldAccessTest</text>
</g>
<!-- node4 -->
<g id="node2" class="node">
<title>node4</title>
<polygon fill="lightgreen" stroke="black" points="583.53,-521.54 583.53,-536.46 464.01,-547 294.99,-547 175.47,-536.46 175.47,-521.54 294.99,-511 464.01,-511 583.53,-521.54"/>
<text text-anchor="middle" x="379.5" y="-525.3" font-family="Times,serif" font-size="14.00">#4 Class FieldAccessTest$Destination</text>
</g>
<!-- node0&#45;&gt;node4 -->
<g id="edge1" class="edge">
<title>node0&#45;&gt;node4</title>
<path fill="none" stroke="black" stroke-dasharray="1,5" d="M379.5,-583.81C379.5,-575.35 379.5,-565.95 379.5,-557.4"/>
<polygon fill="black" stroke="black" points="383,-557.17 379.5,-547.17 376,-557.17 383,-557.17"/>
</g>
<!-- node5 -->
<g id="node3" class="node">
<title>node5</title>
<polygon fill="lightgrey" stroke="black" points="432,-474 327,-474 327,-438 432,-438 432,-474"/>
<text text-anchor="middle" x="379.5" y="-452.3" font-family="Times,serif" font-size="14.00">#5 ClassInit</text>
</g>
<!-- node0&#45;&gt;node5 -->
<g id="edge4" class="edge">
<title>node0&#45;&gt;node5</title>
<path fill="none" stroke="green" d="M295.99,-598.15C219.69,-583.8 124.66,-554.85 166.5,-503 171.33,-497.02 255.8,-480.11 316.9,-468.54"/>
<polygon fill="green" stroke="green" points="317.69,-471.96 326.86,-466.66 316.39,-465.08 317.69,-471.96"/>
</g>
<!-- node2 -->
<g id="node4" class="node">
<title>node2</title>
<polygon fill="lightgrey" stroke="black" points="119,-547 0,-547 0,-511 119,-511 119,-547"/>
<text text-anchor="middle" x="59.5" y="-525.3" font-family="Times,serif" font-size="14.00">#2 LabelNode</text>
</g>
<!-- node0&#45;&gt;node2 -->
<g id="edge5" class="edge">
<title>node0&#45;&gt;node2</title>
<path fill="none" stroke="red" d="M295.92,-604.29C243.37,-598.69 174.89,-587.66 117.5,-566 108.46,-562.59 99.3,-557.7 91.01,-552.62"/>
<polygon fill="red" stroke="red" points="92.7,-549.55 82.4,-547.09 88.92,-555.44 92.7,-549.55"/>
</g>
<!-- node3 -->
<g id="node12" class="node">
<title>node3</title>
<polygon fill="lightgreen" stroke="black" points="963.1,-521.54 963.1,-536.46 857.31,-547 707.69,-547 601.9,-536.46 601.9,-521.54 707.69,-511 857.31,-511 963.1,-521.54"/>
<text text-anchor="middle" x="782.5" y="-525.3" font-family="Times,serif" font-size="14.00">#3 Class FieldAccessTest$Source</text>
</g>
<!-- node0&#45;&gt;node3 -->
<g id="edge24" class="edge">
<title>node0&#45;&gt;node3</title>
<path fill="none" stroke="black" stroke-dasharray="1,5" d="M463,-593.42C529.25,-580.27 621.78,-561.9 690.22,-548.32"/>
<polygon fill="black" stroke="black" points="691.01,-551.73 700.14,-546.35 689.65,-544.86 691.01,-551.73"/>
</g>
<!-- node4&#45;&gt;node5 -->
<g id="edge2" class="edge">
<title>node4&#45;&gt;node5</title>
<path fill="none" stroke="black" d="M379.5,-510.81C379.5,-502.79 379.5,-493.05 379.5,-484.07"/>
<polygon fill="black" stroke="black" points="383,-484.03 379.5,-474.03 376,-484.03 383,-484.03"/>
<text text-anchor="middle" x="387.95" y="-488.45" font-family="Times,serif" font-size="14.00">*0</text>
</g>
<!-- node7 -->
<g id="node5" class="node">
<title>node7</title>
<polygon fill="lightgrey" stroke="black" points="602.5,-328 352.5,-328 352.5,-292 602.5,-292 602.5,-328"/>
<text text-anchor="middle" x="477.5" y="-306.3" font-family="Times,serif" font-size="14.00">#7 Invoke special &lt;init&gt; : ()void</text>
</g>
<!-- node5&#45;&gt;node7 -->
<g id="edge7" class="edge">
<title>node5&#45;&gt;node7</title>
<path fill="none" stroke="red" d="M403.62,-437.9C415.94,-428.2 430.42,-415.18 440.5,-401 454.21,-381.72 464,-356.59 470.04,-337.79"/>
<polygon fill="red" stroke="red" points="473.44,-338.66 473.02,-328.08 466.75,-336.61 473.44,-338.66"/>
</g>
<!-- node6 -->
<g id="node6" class="node">
<title>node6</title>
<polygon fill="orange" stroke="black" points="431.62,-375.54 431.62,-390.46 401.09,-401 357.91,-401 327.38,-390.46 327.38,-375.54 357.91,-365 401.09,-365 431.62,-375.54"/>
<text text-anchor="middle" x="379.5" y="-379.3" font-family="Times,serif" font-size="14.00">#6 New</text>
</g>
<!-- node5&#45;&gt;node6 -->
<g id="edge9" class="edge">
<title>node5&#45;&gt;node6</title>
<path fill="none" stroke="black" d="M373.62,-437.81C372.78,-429.79 372.55,-420.05 372.92,-411.07"/>
<polygon fill="black" stroke="black" points="376.42,-411.25 373.64,-401.03 369.44,-410.75 376.42,-411.25"/>
<text text-anchor="middle" x="380.78" y="-416.01" font-family="Times,serif" font-size="14.00">*0</text>
</g>
<!-- node5&#45;&gt;node6 -->
<g id="edge10" class="edge">
<title>node5&#45;&gt;node6</title>
<path fill="none" stroke="green" d="M385.38,-437.81C386.22,-429.79 386.45,-420.05 386.08,-411.07"/>
<polygon fill="green" stroke="green" points="389.56,-410.75 385.36,-401.03 382.58,-411.25 389.56,-410.75"/>
</g>
<!-- node2&#45;&gt;node5 -->
<g id="edge3" class="edge">
<title>node2&#45;&gt;node5</title>
<path fill="none" stroke="red" d="M106.57,-510.99C115.45,-508.1 124.71,-505.29 133.5,-503 195.05,-486.93 266.66,-474.2 316.7,-466.24"/>
<polygon fill="red" stroke="red" points="317.38,-469.67 326.72,-464.66 316.3,-462.76 317.38,-469.67"/>
</g>
<!-- node8 -->
<g id="node11" class="node">
<title>node8</title>
<polygon fill="lightgrey" stroke="black" points="832,-255 727,-255 727,-219 832,-219 832,-255"/>
<text text-anchor="middle" x="779.5" y="-233.3" font-family="Times,serif" font-size="14.00">#8 ClassInit</text>
</g>
<!-- node7&#45;&gt;node8 -->
<g id="edge22" class="edge">
<title>node7&#45;&gt;node8</title>
<path fill="none" stroke="red" d="M543.98,-291.99C595.5,-279.57 666.32,-262.96 716.85,-251.45"/>
<polygon fill="red" stroke="red" points="717.7,-254.85 726.68,-249.22 716.15,-248.02 717.7,-254.85"/>
</g>
<!-- node7&#45;&gt;node8 -->
<g id="edge23" class="edge">
<title>node7&#45;&gt;node8</title>
<path fill="none" stroke="green" d="M555.7,-291.99C605.85,-280.49 670.04,-265.39 716.84,-254.08"/>
<polygon fill="green" stroke="green" points="717.95,-257.42 726.85,-251.66 716.31,-250.61 717.95,-257.42"/>
</g>
<!-- node6&#45;&gt;node7 -->
<g id="edge6" class="edge">
<title>node6&#45;&gt;node7</title>
<path fill="none" stroke="black" d="M397.34,-364.81C409.25,-355.48 425.18,-343.83 439.75,-333.75"/>
<polygon fill="black" stroke="black" points="441.85,-336.56 448.13,-328.03 437.9,-330.78 441.85,-336.56"/>
<text text-anchor="middle" x="437.93" y="-341.53" font-family="Times,serif" font-size="14.00">*0</text>
</g>
<!-- node6&#45;&gt;node7 -->
<g id="edge8" class="edge">
<title>node6&#45;&gt;node7</title>
<path fill="none" stroke="green" d="M406.44,-366.59C420.53,-357.2 437.59,-345.02 451.52,-334.45"/>
<polygon fill="green" stroke="green" points="453.96,-336.99 459.74,-328.12 449.69,-331.45 453.96,-336.99"/>
</g>
<!-- node12 -->
<g id="node7" class="node">
<title>node12</title>
<polygon fill="lightgrey" stroke="black" points="502,-36 263,-36 263,0 502,0 502,-36"/>
<text text-anchor="middle" x="382.5" y="-14.3" font-family="Times,serif" font-size="14.00">#12 PutField : char_field : char</text>
</g>
<!-- node6&#45;&gt;node12 -->
<g id="edge11" class="edge">
<title>node6&#45;&gt;node12</title>
<path fill="none" stroke="black" d="M356.49,-365.47C341.42,-352.56 324.5,-333.14 324.5,-311 324.5,-311 324.5,-311 324.5,-90 324.5,-71.51 336.45,-55.17 349.5,-42.85"/>
<polygon fill="black" stroke="black" points="352.02,-45.3 357.23,-36.07 347.4,-40.03 352.02,-45.3"/>
<text text-anchor="middle" x="349.17" y="-50.68" font-family="Times,serif" font-size="14.00">*0</text>
</g>
<!-- node13 -->
<g id="node13" class="node">
<title>node13</title>
<polygon fill="lightgrey" stroke="black" points="906,-36 805,-36 805,0 906,0 906,-36"/>
<text text-anchor="middle" x="855.5" y="-14.3" font-family="Times,serif" font-size="14.00">#13 Return</text>
</g>
<!-- node12&#45;&gt;node13 -->
<g id="edge26" class="edge">
<title>node12&#45;&gt;node13</title>
<path fill="none" stroke="green" d="M502.14,-18C599.67,-18 697.19,-18 794.72,-18"/>
<polygon fill="green" stroke="green" points="794.77,-21.5 804.77,-18 794.77,-14.5 794.77,-21.5"/>
</g>
<!-- node11 -->
<g id="node8" class="node">
<title>node11</title>
<polygon fill="orange" stroke="black" points="690.18,-83.54 690.18,-98.46 591.37,-109 451.63,-109 352.82,-98.46 352.82,-83.54 451.63,-73 591.37,-73 690.18,-83.54"/>
<text text-anchor="middle" x="521.5" y="-87.3" font-family="Times,serif" font-size="14.00">#11 GetField : char_field : char</text>
</g>
<!-- node11&#45;&gt;node12 -->
<g id="edge12" class="edge">
<title>node11&#45;&gt;node12</title>
<path fill="none" stroke="black" d="M482.35,-72.99C462.47,-63.36 438.53,-51.21 419.03,-40.87"/>
<polygon fill="black" stroke="black" points="420.6,-37.74 410.13,-36.11 417.3,-43.92 420.6,-37.74"/>
<text text-anchor="middle" x="430.1" y="-33.51" font-family="Times,serif" font-size="14.00">*1</text>
</g>
<!-- node11&#45;&gt;node12 -->
<g id="edge13" class="edge">
<title>node11&#45;&gt;node12</title>
<path fill="none" stroke="green" d="M494.07,-72.99C476.07,-63.27 452.15,-50.99 431.03,-40.59"/>
<polygon fill="green" stroke="green" points="432.4,-37.36 421.87,-36.11 429.32,-43.65 432.4,-37.36"/>
</g>
<!-- node9 -->
<g id="node9" class="node">
<title>node9</title>
<polygon fill="orange" stroke="black" points="827.62,-156.54 827.62,-171.46 797.09,-182 753.91,-182 723.38,-171.46 723.38,-156.54 753.91,-146 797.09,-146 827.62,-156.54"/>
<text text-anchor="middle" x="775.5" y="-160.3" font-family="Times,serif" font-size="14.00">#9 New</text>
</g>
<!-- node9&#45;&gt;node11 -->
<g id="edge14" class="edge">
<title>node9&#45;&gt;node11</title>
<path fill="none" stroke="black" d="M736.09,-151.98C697.84,-141.29 638.93,-124.83 592.51,-111.85"/>
<polygon fill="black" stroke="black" points="593.37,-108.46 582.8,-109.14 591.49,-115.2 593.37,-108.46"/>
<text text-anchor="middle" x="602.53" y="-102.17" font-family="Times,serif" font-size="14.00">*0</text>
</g>
<!-- node10 -->
<g id="node10" class="node">
<title>node10</title>
<polygon fill="lightgrey" stroke="black" points="985,-109 726,-109 726,-73 985,-73 985,-109"/>
<text text-anchor="middle" x="855.5" y="-87.3" font-family="Times,serif" font-size="14.00">#10 Invoke special &lt;init&gt; : ()void</text>
</g>
<!-- node9&#45;&gt;node10 -->
<g id="edge16" class="edge">
<title>node9&#45;&gt;node10</title>
<path fill="none" stroke="black" d="M788.99,-145.81C798.26,-136.74 810.78,-125.48 822.51,-115.6"/>
<polygon fill="black" stroke="black" points="824.98,-118.1 830.45,-109.03 820.51,-112.71 824.98,-118.1"/>
<text text-anchor="middle" x="821.87" y="-123.4" font-family="Times,serif" font-size="14.00">*0</text>
</g>
<!-- node9&#45;&gt;node10 -->
<g id="edge18" class="edge">
<title>node9&#45;&gt;node10</title>
<path fill="none" stroke="green" d="M799.86,-146.53C811.03,-137.5 824.05,-126.13 834.75,-116.12"/>
<polygon fill="green" stroke="green" points="837.27,-118.56 842.08,-109.12 832.43,-113.5 837.27,-118.56"/>
</g>
<!-- node10&#45;&gt;node11 -->
<g id="edge15" class="edge">
<title>node10&#45;&gt;node11</title>
<path fill="none" stroke="green" d="M725.92,-91C717.51,-91 709.11,-91 700.71,-91"/>
<polygon fill="green" stroke="green" points="700.46,-87.5 690.46,-91 700.46,-94.5 700.46,-87.5"/>
</g>
<!-- node10&#45;&gt;node13 -->
<g id="edge25" class="edge">
<title>node10&#45;&gt;node13</title>
<path fill="none" stroke="red" d="M855.5,-72.81C855.5,-64.79 855.5,-55.05 855.5,-46.07"/>
<polygon fill="red" stroke="red" points="859,-46.03 855.5,-36.03 852,-46.03 859,-46.03"/>
</g>
<!-- node8&#45;&gt;node9 -->
<g id="edge19" class="edge">
<title>node8&#45;&gt;node9</title>
<path fill="none" stroke="black" d="M772.65,-218.81C771.36,-210.79 770.58,-201.05 770.45,-192.07"/>
<polygon fill="black" stroke="black" points="773.95,-192.08 770.6,-182.03 766.95,-191.98 773.95,-192.08"/>
<text text-anchor="middle" x="778.78" y="-196.58" font-family="Times,serif" font-size="14.00">*0</text>
</g>
<!-- node8&#45;&gt;node9 -->
<g id="edge20" class="edge">
<title>node8&#45;&gt;node9</title>
<path fill="none" stroke="green" d="M784.41,-218.81C784.8,-210.79 784.48,-201.05 783.6,-192.07"/>
<polygon fill="green" stroke="green" points="787.06,-191.5 782.32,-182.03 780.12,-192.39 787.06,-191.5"/>
</g>
<!-- node8&#45;&gt;node10 -->
<g id="edge17" class="edge">
<title>node8&#45;&gt;node10</title>
<path fill="none" stroke="red" d="M803.62,-218.8C815.27,-209.24 828.44,-196.39 836.5,-182 847.26,-162.78 851.94,-138.14 853.97,-119.51"/>
<polygon fill="red" stroke="red" points="857.47,-119.59 854.88,-109.32 850.5,-118.96 857.47,-119.59"/>
</g>
<!-- node3&#45;&gt;node8 -->
<g id="edge21" class="edge">
<title>node3&#45;&gt;node8</title>
<path fill="none" stroke="black" d="M782.12,-510.78C781.84,-496.41 781.5,-475.37 781.5,-457 781.5,-457 781.5,-457 781.5,-309 781.5,-294.65 781.09,-278.67 780.64,-265.51"/>
<polygon fill="black" stroke="black" points="784.12,-265.08 780.26,-255.21 777.13,-265.33 784.12,-265.08"/>
<text text-anchor="middle" x="789.37" y="-269.32" font-family="Times,serif" font-size="14.00">*0</text>
</g>
<!-- c0 -->
<!-- c1 -->
<!-- c0&#45;&gt;c1 -->
<g id="edge27" class="edge">
<title>c0&#45;&gt;c1</title>
<path fill="none" stroke="red" d="M1715.39,-611C1726.61,-611 1784.74,-611 1810.36,-611"/>
<polygon fill="red" stroke="red" points="1810.56,-614.5 1820.56,-611 1810.56,-607.5 1810.56,-614.5"/>
<text text-anchor="middle" x="1768" y="-617.8" font-family="Times,serif" font-size="14.00">Control flow</text>
</g>
<!-- c2 -->
<!-- c3 -->
<!-- c2&#45;&gt;c3 -->
<g id="edge28" class="edge">
<title>c2&#45;&gt;c3</title>
<path fill="none" stroke="red" stroke-dasharray="5,2" d="M1508.58,-611C1525.55,-611 1641.71,-611 1679.58,-611"/>
<polygon fill="red" stroke="red" points="1679.67,-614.5 1689.67,-611 1679.67,-607.5 1679.67,-614.5"/>
<text text-anchor="middle" x="1599" y="-617.8" font-family="Times,serif" font-size="14.00">Control flow back edge</text>
</g>
<!-- d0 -->
<!-- d1 -->
<!-- d0&#45;&gt;d1 -->
<g id="edge29" class="edge">
<title>d0&#45;&gt;d1</title>
<path fill="none" stroke="black" d="M1397.36,-611C1406.91,-611 1450.81,-611 1472.42,-611"/>
<polygon fill="black" stroke="black" points="1472.65,-614.5 1482.65,-611 1472.65,-607.5 1472.65,-614.5"/>
<text text-anchor="middle" x="1440" y="-617.8" font-family="Times,serif" font-size="14.00">Data flow</text>
</g>
<!-- d2 -->
<!-- d3 -->
<!-- d2&#45;&gt;d3 -->
<g id="edge30" class="edge">
<title>d2&#45;&gt;d3</title>
<path fill="none" stroke="black" stroke-dasharray="1,5" d="M1271.31,-611C1281.96,-611 1336.96,-611 1361.58,-611"/>
<polygon fill="black" stroke="black" points="1361.65,-614.5 1371.65,-611 1361.65,-607.5 1361.65,-614.5"/>
<text text-anchor="middle" x="1321.5" y="-617.8" font-family="Times,serif" font-size="14.00">Declaration</text>
</g>
<!-- d4 -->
<!-- d5 -->
<!-- d4&#45;&gt;d5 -->
<g id="edge31" class="edge">
<title>d4&#45;&gt;d5</title>
<path fill="none" stroke="blue" d="M1128.6,-611C1141.22,-611 1207.38,-611 1235.18,-611"/>
<polygon fill="blue" stroke="blue" points="1235.34,-614.5 1245.34,-611 1235.34,-607.5 1235.34,-614.5"/>
<text text-anchor="middle" x="1187" y="-617.8" font-family="Times,serif" font-size="14.00">PHI Data flow</text>
</g>
<!-- d6 -->
<!-- d7 -->
<!-- d6&#45;&gt;d7 -->
<g id="edge32" class="edge">
<title>d6&#45;&gt;d7</title>
<path fill="none" stroke="green" d="M991.5,-611C1003.44,-611 1065.8,-611 1092.43,-611"/>
<polygon fill="green" stroke="green" points="1092.45,-614.5 1102.45,-611 1092.45,-607.5 1092.45,-614.5"/>
<text text-anchor="middle" x="1047" y="-617.8" font-family="Times,serif" font-size="14.00">Memory flow</text>
</g>
</g>
</svg>
