<?xml version="1.0" encoding="UTF-8" standalone="no"?>
<!DOCTYPE svg PUBLIC "-//W3C//DTD SVG 1.1//EN"
 "http://www.w3.org/Graphics/SVG/1.1/DTD/svg11.dtd">
<!-- Generated by graphviz version 2.43.0 (0)
 -->
<!-- Title: %3 Pages: 1 -->
<svg width="1325pt" height="879pt"
 viewBox="0.00 0.00 1325.00 878.80" xmlns="http://www.w3.org/2000/svg" xmlns:xlink="http://www.w3.org/1999/xlink">
<g id="graph0" class="graph" transform="scale(1 1) rotate(0) translate(4 874.8)">
<title>%3</title>
<polygon fill="white" stroke="transparent" points="-4,4 -4,-874.8 1321,-874.8 1321,4 -4,4"/>
<g id="clust1" class="cluster">
<title>cluster_0</title>
<polygon fill="none" stroke="lightgray" points="169,-357 169,-482 547,-482 547,-357 169,-357"/>
</g>
<g id="clust2" class="cluster">
<title>cluster_1</title>
<polygon fill="none" stroke="lightgray" points="223,-649 223,-774 647,-774 647,-649 223,-649"/>
</g>
<g id="clust3" class="cluster">
<title>cluster_000</title>
<polygon fill="none" stroke="black" points="456,-820.2 456,-862.8 1309,-862.8 1309,-820.2 456,-820.2"/>
<text text-anchor="middle" x="882.5" y="-847.6" font-family="Times,serif" font-size="14.00">Legend</text>
</g>
<!-- node0 -->
<g id="node1" class="node">
<title>node0</title>
<polygon fill="lightgrey" stroke="transparent" points="446.5,-857 279.5,-857 279.5,-803 446.5,-803 446.5,-857"/>
<polygon fill="none" stroke="black" points="280,-830 280,-857 447,-857 447,-830 280,-830"/>
<text text-anchor="start" x="323" y="-839.8" font-family="Times,serif" font-size="14.00">#0 Method</text>
<polygon fill="yellow" stroke="transparent" points="280,-803 280,-830 447,-830 447,-803 280,-803"/>
<polygon fill="none" stroke="black" points="280,-803 280,-830 447,-830 447,-803 280,-803"/>
<text text-anchor="start" x="286" y="-812.8" font-family="Times,serif" font-size="14.00">this : FieldAccessTest</text>
</g>
<!-- node4 -->
<g id="node2" class="node">
<title>node4</title>
<polygon fill="lightgrey" stroke="black" points="314.5,-620 209.5,-620 209.5,-584 314.5,-584 314.5,-620"/>
<text text-anchor="middle" x="262" y="-598.3" font-family="Times,serif" font-size="14.00">#4 ClassInit</text>
</g>
<!-- node0&#45;&gt;node4 -->
<g id="edge3" class="edge">
<title>node0&#45;&gt;node4</title>
<path fill="none" stroke="green" d="M279.37,-815.43C255.98,-807.36 233.11,-794.5 219,-774 187.49,-728.24 198.61,-700.68 219,-649 222.05,-641.28 227.07,-634.09 232.63,-627.8"/>
<polygon fill="green" stroke="green" points="235.41,-629.96 239.85,-620.33 230.38,-625.09 235.41,-629.96"/>
</g>
<!-- node2 -->
<g id="node4" class="node">
<title>node2</title>
<polygon fill="lightgrey" stroke="black" points="422.5,-766 303.5,-766 303.5,-730 422.5,-730 422.5,-766"/>
<text text-anchor="middle" x="363" y="-744.3" font-family="Times,serif" font-size="14.00">#2 LabelNode</text>
</g>
<!-- node0&#45;&gt;node2 -->
<g id="edge4" class="edge">
<title>node0&#45;&gt;node2</title>
<path fill="none" stroke="red" d="M363,-802.81C363,-794.35 363,-784.95 363,-776.4"/>
<polygon fill="red" stroke="red" points="366.5,-776.17 363,-766.17 359.5,-776.17 366.5,-776.17"/>
</g>
<!-- node5 -->
<g id="node5" class="node">
<title>node5</title>
<polygon fill="orange" stroke="black" points="274.12,-521.54 274.12,-536.46 243.59,-547 200.41,-547 169.88,-536.46 169.88,-521.54 200.41,-511 243.59,-511 274.12,-521.54"/>
<text text-anchor="middle" x="222" y="-525.3" font-family="Times,serif" font-size="14.00">#5 New</text>
</g>
<!-- node4&#45;&gt;node5 -->
<g id="edge6" class="edge">
<title>node4&#45;&gt;node5</title>
<path fill="none" stroke="black" d="M246.44,-583.81C240.9,-575.53 234.98,-565.41 230.22,-556.19"/>
<polygon fill="black" stroke="black" points="233.27,-554.47 225.73,-547.03 226.98,-557.55 233.27,-554.47"/>
<text text-anchor="middle" x="241.29" y="-555.89" font-family="Times,serif" font-size="14.00">*0</text>
</g>
<!-- node4&#45;&gt;node5 -->
<g id="edge7" class="edge">
<title>node4&#45;&gt;node5</title>
<path fill="none" stroke="green" d="M258.2,-583.81C254.31,-575.35 248.68,-564.98 242.94,-555.61"/>
<polygon fill="green" stroke="green" points="245.79,-553.57 237.46,-547.03 239.89,-557.34 245.79,-553.57"/>
</g>
<!-- node6 -->
<g id="node12" class="node">
<title>node6</title>
<polygon fill="lightgrey" stroke="black" points="427,-474 177,-474 177,-438 427,-438 427,-474"/>
<text text-anchor="middle" x="302" y="-452.3" font-family="Times,serif" font-size="14.00">#6 Invoke special &lt;init&gt; : ()void</text>
</g>
<!-- node4&#45;&gt;node6 -->
<g id="edge21" class="edge">
<title>node4&#45;&gt;node6</title>
<path fill="none" stroke="red" d="M269.54,-583.74C273.91,-573.26 279.27,-559.53 283,-547 289.18,-526.24 294.15,-502.22 297.45,-484.22"/>
<polygon fill="red" stroke="red" points="300.94,-484.58 299.24,-474.13 294.05,-483.36 300.94,-484.58"/>
</g>
<!-- node3 -->
<g id="node3" class="node">
<title>node3</title>
<polygon fill="lightgreen" stroke="black" points="639.03,-667.54 639.03,-682.46 519.51,-693 350.49,-693 230.97,-682.46 230.97,-667.54 350.49,-657 519.51,-657 639.03,-667.54"/>
<text text-anchor="middle" x="435" y="-671.3" font-family="Times,serif" font-size="14.00">#3 Class FieldAccessTest$Destination</text>
</g>
<!-- node3&#45;&gt;node4 -->
<g id="edge1" class="edge">
<title>node3&#45;&gt;node4</title>
<path fill="none" stroke="black" d="M393.56,-656.99C369.45,-647.1 338.86,-634.54 313.25,-624.03"/>
<polygon fill="black" stroke="black" points="314.28,-620.67 303.7,-620.11 311.62,-627.15 314.28,-620.67"/>
<text text-anchor="middle" x="323.68" y="-615.48" font-family="Times,serif" font-size="14.00">*0</text>
</g>
<!-- node2&#45;&gt;node4 -->
<g id="edge2" class="edge">
<title>node2&#45;&gt;node4</title>
<path fill="none" stroke="red" d="M303.3,-732.38C276.63,-723.87 245.9,-711.15 222,-693 198.21,-674.94 191.36,-667.36 182,-639 177.66,-625.84 186.51,-617.49 199.73,-612.18"/>
<polygon fill="red" stroke="red" points="201.06,-615.43 209.46,-608.98 198.87,-608.78 201.06,-615.43"/>
</g>
<!-- node2&#45;&gt;node3 -->
<g id="edge5" class="edge">
<title>node2&#45;&gt;node3</title>
<path fill="none" stroke="black" stroke-dasharray="1,5" d="M380.43,-729.81C389.45,-720.92 400.61,-709.91 410.49,-700.17"/>
<polygon fill="black" stroke="black" points="413.07,-702.54 417.73,-693.03 408.15,-697.56 413.07,-702.54"/>
</g>
<!-- node12 -->
<g id="node6" class="node">
<title>node12</title>
<polygon fill="lightgrey" stroke="black" points="316.5,-109 77.5,-109 77.5,-73 316.5,-73 316.5,-109"/>
<text text-anchor="middle" x="197" y="-87.3" font-family="Times,serif" font-size="14.00">#12 PutField : char_field : char</text>
</g>
<!-- node5&#45;&gt;node12 -->
<g id="edge8" class="edge">
<title>node5&#45;&gt;node12</title>
<path fill="none" stroke="black" d="M169.67,-521.85C104.04,-512.64 0,-492.46 0,-457 0,-457 0,-457 0,-163 0,-140.59 45.67,-123.31 93.03,-111.4"/>
<polygon fill="black" stroke="black" points="93.94,-114.78 102.83,-109.02 92.28,-107.98 93.94,-114.78"/>
<text text-anchor="middle" x="87.21" y="-117.81" font-family="Times,serif" font-size="14.00">*0</text>
</g>
<!-- node5&#45;&gt;node6 -->
<g id="edge20" class="edge">
<title>node5&#45;&gt;node6</title>
<path fill="none" stroke="black" d="M235.49,-510.81C244.76,-501.74 257.28,-490.48 269.01,-480.6"/>
<polygon fill="black" stroke="black" points="271.48,-483.1 276.95,-474.03 267.01,-477.71 271.48,-483.1"/>
<text text-anchor="middle" x="268.37" y="-488.4" font-family="Times,serif" font-size="14.00">*0</text>
</g>
<!-- node5&#45;&gt;node6 -->
<g id="edge22" class="edge">
<title>node5&#45;&gt;node6</title>
<path fill="none" stroke="green" d="M246.36,-511.53C257.53,-502.5 270.55,-491.13 281.25,-481.12"/>
<polygon fill="green" stroke="green" points="283.77,-483.56 288.58,-474.12 278.93,-478.5 283.77,-483.56"/>
</g>
<!-- node13 -->
<g id="node13" class="node">
<title>node13</title>
<polygon fill="lightgrey" stroke="black" points="247.5,-36 146.5,-36 146.5,0 247.5,0 247.5,-36"/>
<text text-anchor="middle" x="197" y="-14.3" font-family="Times,serif" font-size="14.00">#13 Return</text>
</g>
<!-- node12&#45;&gt;node13 -->
<g id="edge26" class="edge">
<title>node12&#45;&gt;node13</title>
<path fill="none" stroke="red" d="M191.12,-72.81C190.28,-64.79 190.05,-55.05 190.42,-46.07"/>
<polygon fill="red" stroke="red" points="193.92,-46.25 191.14,-36.03 186.94,-45.75 193.92,-46.25"/>
</g>
<!-- node12&#45;&gt;node13 -->
<g id="edge27" class="edge">
<title>node12&#45;&gt;node13</title>
<path fill="none" stroke="green" d="M202.88,-72.81C203.72,-64.79 203.95,-55.05 203.58,-46.07"/>
<polygon fill="green" stroke="green" points="207.06,-45.75 202.86,-36.03 200.08,-46.25 207.06,-45.75"/>
</g>
<!-- node11 -->
<g id="node7" class="node">
<title>node11</title>
<polygon fill="orange" stroke="black" points="365.68,-156.54 365.68,-171.46 266.87,-182 127.13,-182 28.32,-171.46 28.32,-156.54 127.13,-146 266.87,-146 365.68,-156.54"/>
<text text-anchor="middle" x="197" y="-160.3" font-family="Times,serif" font-size="14.00">#11 GetField : char_field : char</text>
</g>
<!-- node11&#45;&gt;node12 -->
<g id="edge9" class="edge">
<title>node11&#45;&gt;node12</title>
<path fill="none" stroke="black" d="M191.12,-145.81C190.28,-137.79 190.05,-128.05 190.42,-119.07"/>
<polygon fill="black" stroke="black" points="193.92,-119.25 191.14,-109.03 186.94,-118.75 193.92,-119.25"/>
<text text-anchor="middle" x="198.28" y="-124.01" font-family="Times,serif" font-size="14.00">*1</text>
</g>
<!-- node11&#45;&gt;node12 -->
<g id="edge10" class="edge">
<title>node11&#45;&gt;node12</title>
<path fill="none" stroke="green" d="M202.88,-145.81C203.72,-137.79 203.95,-128.05 203.58,-119.07"/>
<polygon fill="green" stroke="green" points="207.06,-118.75 202.86,-109.03 200.08,-119.25 207.06,-118.75"/>
</g>
<!-- node10 -->
<g id="node8" class="node">
<title>node10</title>
<polygon fill="lightgrey" stroke="black" points="660.5,-182 401.5,-182 401.5,-146 660.5,-146 660.5,-182"/>
<text text-anchor="middle" x="531" y="-160.3" font-family="Times,serif" font-size="14.00">#10 Invoke special &lt;init&gt; : ()void</text>
</g>
<!-- node10&#45;&gt;node12 -->
<g id="edge11" class="edge">
<title>node10&#45;&gt;node12</title>
<path fill="none" stroke="red" d="M451,-145.99C401.7,-135.51 338.36,-122.05 287.26,-111.19"/>
<polygon fill="red" stroke="red" points="287.73,-107.71 277.22,-109.05 286.27,-114.55 287.73,-107.71"/>
</g>
<!-- node10&#45;&gt;node11 -->
<g id="edge25" class="edge">
<title>node10&#45;&gt;node11</title>
<path fill="none" stroke="green" d="M401.42,-164C393.01,-164 384.61,-164 376.21,-164"/>
<polygon fill="green" stroke="green" points="375.96,-160.5 365.96,-164 375.96,-167.5 375.96,-160.5"/>
</g>
<!-- node9 -->
<g id="node9" class="node">
<title>node9</title>
<polygon fill="orange" stroke="black" points="410.12,-229.54 410.12,-244.46 379.59,-255 336.41,-255 305.88,-244.46 305.88,-229.54 336.41,-219 379.59,-219 410.12,-229.54"/>
<text text-anchor="middle" x="358" y="-233.3" font-family="Times,serif" font-size="14.00">#9 New</text>
</g>
<!-- node9&#45;&gt;node11 -->
<g id="edge24" class="edge">
<title>node9&#45;&gt;node11</title>
<path fill="none" stroke="black" d="M326.58,-222.14C303.43,-211.93 271.53,-197.87 245.17,-186.24"/>
<polygon fill="black" stroke="black" points="246.3,-182.92 235.74,-182.08 243.48,-189.32 246.3,-182.92"/>
<text text-anchor="middle" x="255.74" y="-177.96" font-family="Times,serif" font-size="14.00">*0</text>
</g>
<!-- node9&#45;&gt;node10 -->
<g id="edge12" class="edge">
<title>node9&#45;&gt;node10</title>
<path fill="none" stroke="black" d="M387.46,-221.63C411.14,-211.37 444.97,-197.39 473.87,-185.89"/>
<polygon fill="black" stroke="black" points="475.46,-189.03 483.47,-182.1 472.88,-182.52 475.46,-189.03"/>
<text text-anchor="middle" x="469.72" y="-192.93" font-family="Times,serif" font-size="14.00">*0</text>
</g>
<!-- node9&#45;&gt;node10 -->
<g id="edge14" class="edge">
<title>node9&#45;&gt;node10</title>
<path fill="none" stroke="green" d="M393.4,-223.63C420.2,-213.28 457.07,-198.28 485.95,-186.05"/>
<polygon fill="green" stroke="green" points="487.58,-189.15 495.41,-182.01 484.84,-182.71 487.58,-189.15"/>
</g>
<!-- node8 -->
<g id="node10" class="node">
<title>node8</title>
<polygon fill="lightgrey" stroke="black" points="410.5,-328 305.5,-328 305.5,-292 410.5,-292 410.5,-328"/>
<text text-anchor="middle" x="358" y="-306.3" font-family="Times,serif" font-size="14.00">#8 ClassInit</text>
</g>
<!-- node8&#45;&gt;node10 -->
<g id="edge13" class="edge">
<title>node8&#45;&gt;node10</title>
<path fill="none" stroke="red" d="M378.52,-291.92C409.35,-266.26 467.69,-217.7 502.59,-188.65"/>
<polygon fill="red" stroke="red" points="505.06,-191.15 510.5,-182.06 500.58,-185.77 505.06,-191.15"/>
</g>
<!-- node8&#45;&gt;node9 -->
<g id="edge15" class="edge">
<title>node8&#45;&gt;node9</title>
<path fill="none" stroke="black" d="M352.12,-291.81C351.28,-283.79 351.05,-274.05 351.42,-265.07"/>
<polygon fill="black" stroke="black" points="354.92,-265.25 352.14,-255.03 347.94,-264.75 354.92,-265.25"/>
<text text-anchor="middle" x="359.28" y="-270.01" font-family="Times,serif" font-size="14.00">*0</text>
</g>
<!-- node8&#45;&gt;node9 -->
<g id="edge16" class="edge">
<title>node8&#45;&gt;node9</title>
<path fill="none" stroke="green" d="M363.88,-291.81C364.72,-283.79 364.95,-274.05 364.58,-265.07"/>
<polygon fill="green" stroke="green" points="368.06,-264.75 363.86,-255.03 361.08,-265.25 368.06,-264.75"/>
</g>
<!-- node7 -->
<g id="node11" class="node">
<title>node7</title>
<polygon fill="lightgreen" stroke="black" points="538.6,-375.54 538.6,-390.46 432.81,-401 283.19,-401 177.4,-390.46 177.4,-375.54 283.19,-365 432.81,-365 538.6,-375.54"/>
<text text-anchor="middle" x="358" y="-379.3" font-family="Times,serif" font-size="14.00">#7 Class FieldAccessTest$Source</text>
</g>
<!-- node7&#45;&gt;node8 -->
<g id="edge17" class="edge">
<title>node7&#45;&gt;node8</title>
<path fill="none" stroke="black" d="M358,-364.81C358,-356.79 358,-347.05 358,-338.07"/>
<polygon fill="black" stroke="black" points="361.5,-338.03 358,-328.03 354.5,-338.03 361.5,-338.03"/>
<text text-anchor="middle" x="366.45" y="-342.45" font-family="Times,serif" font-size="14.00">*0</text>
</g>
<!-- node6&#45;&gt;node8 -->
<g id="edge18" class="edge">
<title>node6&#45;&gt;node8</title>
<path fill="none" stroke="red" d="M208.39,-437.99C188.83,-430 170.65,-418.25 159,-401 148.06,-384.79 146.91,-372.37 159,-357 175.48,-336.06 243.23,-323.5 295.23,-316.92"/>
<polygon fill="red" stroke="red" points="295.9,-320.36 305.4,-315.68 295.05,-313.42 295.9,-320.36"/>
</g>
<!-- node6&#45;&gt;node8 -->
<g id="edge19" class="edge">
<title>node6&#45;&gt;node8</title>
<path fill="none" stroke="green" d="M225.78,-437.99C206.83,-430 188.65,-418.25 177,-401 166.06,-384.79 164.91,-372.37 177,-357 191.96,-337.99 249.16,-325.89 295.38,-318.9"/>
<polygon fill="green" stroke="green" points="295.96,-322.35 305.35,-317.44 294.95,-315.42 295.96,-322.35"/>
</g>
<!-- node6&#45;&gt;node7 -->
<g id="edge23" class="edge">
<title>node6&#45;&gt;node7</title>
<path fill="none" stroke="black" stroke-dasharray="1,5" d="M315.56,-437.81C322.37,-429.18 330.75,-418.56 338.25,-409.03"/>
<polygon fill="black" stroke="black" points="341.12,-411.05 344.57,-401.03 335.63,-406.71 341.12,-411.05"/>
</g>
<!-- c0 -->
<!-- c1 -->
<!-- c0&#45;&gt;c1 -->
<g id="edge28" class="edge">
<title>c0&#45;&gt;c1</title>
<path fill="none" stroke="red" d="M1191.89,-830C1203.11,-830 1261.24,-830 1286.86,-830"/>
<polygon fill="red" stroke="red" points="1287.06,-833.5 1297.06,-830 1287.06,-826.5 1287.06,-833.5"/>
<text text-anchor="middle" x="1244.5" y="-836.8" font-family="Times,serif" font-size="14.00">Control flow</text>
</g>
<!-- c2 -->
<!-- c3 -->
<!-- c2&#45;&gt;c3 -->
<g id="edge29" class="edge">
<title>c2&#45;&gt;c3</title>
<path fill="none" stroke="red" stroke-dasharray="5,2" d="M985.08,-830C1002.05,-830 1118.21,-830 1156.08,-830"/>
<polygon fill="red" stroke="red" points="1156.17,-833.5 1166.17,-830 1156.17,-826.5 1156.17,-833.5"/>
<text text-anchor="middle" x="1075.5" y="-836.8" font-family="Times,serif" font-size="14.00">Control flow back edge</text>
</g>
<!-- d0 -->
<!-- d1 -->
<!-- d0&#45;&gt;d1 -->
<g id="edge30" class="edge">
<title>d0&#45;&gt;d1</title>
<path fill="none" stroke="black" d="M873.86,-830C883.41,-830 927.31,-830 948.92,-830"/>
<polygon fill="black" stroke="black" points="949.15,-833.5 959.15,-830 949.15,-826.5 949.15,-833.5"/>
<text text-anchor="middle" x="916.5" y="-836.8" font-family="Times,serif" font-size="14.00">Data flow</text>
</g>
<!-- d2 -->
<!-- d3 -->
<!-- d2&#45;&gt;d3 -->
<g id="edge31" class="edge">
<title>d2&#45;&gt;d3</title>
<path fill="none" stroke="black" stroke-dasharray="1,5" d="M747.81,-830C758.46,-830 813.46,-830 838.08,-830"/>
<polygon fill="black" stroke="black" points="838.15,-833.5 848.15,-830 838.15,-826.5 838.15,-833.5"/>
<text text-anchor="middle" x="798" y="-836.8" font-family="Times,serif" font-size="14.00">Declaration</text>
</g>
<!-- d4 -->
<!-- d5 -->
<!-- d4&#45;&gt;d5 -->
<g id="edge32" class="edge">
<title>d4&#45;&gt;d5</title>
<path fill="none" stroke="blue" d="M605.1,-830C617.72,-830 683.88,-830 711.68,-830"/>
<polygon fill="blue" stroke="blue" points="711.84,-833.5 721.84,-830 711.84,-826.5 711.84,-833.5"/>
<text text-anchor="middle" x="663.5" y="-836.8" font-family="Times,serif" font-size="14.00">PHI Data flow</text>
</g>
<!-- d6 -->
<!-- d7 -->
<!-- d6&#45;&gt;d7 -->
<g id="edge33" class="edge">
<title>d6&#45;&gt;d7</title>
<path fill="none" stroke="green" d="M468,-830C479.94,-830 542.3,-830 568.93,-830"/>
<polygon fill="green" stroke="green" points="568.95,-833.5 578.95,-830 568.95,-826.5 568.95,-833.5"/>
<text text-anchor="middle" x="523.5" y="-836.8" font-family="Times,serif" font-size="14.00">Memory flow</text>
</g>
</g>
</svg>
