<?xml version="1.0" encoding="UTF-8" standalone="no"?>
<!DOCTYPE svg PUBLIC "-//W3C//DTD SVG 1.1//EN"
 "http://www.w3.org/Graphics/SVG/1.1/DTD/svg11.dtd">
<!-- Generated by graphviz version 2.43.0 (0)
 -->
<!-- Title: debugoutput Pages: 1 -->
<svg width="1913pt" height="505pt"
 viewBox="0.00 0.00 1913.00 504.80" xmlns="http://www.w3.org/2000/svg" xmlns:xlink="http://www.w3.org/1999/xlink">
<g id="graph0" class="graph" transform="scale(1 1) rotate(0) translate(4 500.8)">
<title>debugoutput</title>
<polygon fill="white" stroke="transparent" points="-4,4 -4,-500.8 1909,-500.8 1909,4 -4,4"/>
<g id="clust1" class="cluster">
<title>cluster_000</title>
<polygon fill="none" stroke="black" points="1058,-446.2 1058,-488.8 1897,-488.8 1897,-446.2 1058,-446.2"/>
<text text-anchor="middle" x="1477.5" y="-473.6" font-family="Times,serif" font-size="14.00">Legend</text>
</g>
<!-- node0 -->
<g id="node1" class="node">
<title>node0</title>
<polygon fill="lightgrey" stroke="black" points="1048,-474 882,-474 882,-438 1048,-438 1048,-474"/>
<text text-anchor="middle" x="965" y="-452.3" font-family="Times,serif" font-size="14.00">#0 Method Order : 0</text>
</g>
<!-- node1 -->
<g id="node2" class="node">
<title>node1</title>
<polygon fill="lightgrey" stroke="black" points="308,-401 0,-401 0,-365 308,-365 308,-401"/>
<text text-anchor="middle" x="154" y="-379.3" font-family="Times,serif" font-size="14.00">#1 this : StaticFieldAccessTest Order : 4</text>
</g>
<!-- node0&#45;&gt;node1 -->
<g id="edge2" class="edge">
<title>node0&#45;&gt;node1</title>
<path fill="none" stroke="black" d="M881.95,-449.08C759.17,-439.81 522,-420.96 318.28,-401.96"/>
<polygon fill="black" stroke="black" points="318.58,-398.47 308.3,-401.03 317.93,-405.44 318.58,-398.47"/>
<text text-anchor="middle" x="327.14" y="-390.6" font-family="Times,serif" font-size="14.00">*0</text>
</g>
<!-- node2 -->
<g id="node3" class="node">
<title>node2</title>
<polygon fill="lightgrey" stroke="black" points="1190,-401 1002,-401 1002,-365 1190,-365 1190,-401"/>
<text text-anchor="middle" x="1096" y="-379.3" font-family="Times,serif" font-size="14.00">#2 LabelNode Order : 3</text>
</g>
<!-- node0&#45;&gt;node2 -->
<g id="edge4" class="edge">
<title>node0&#45;&gt;node2</title>
<path fill="none" stroke="red" d="M990.52,-437.99C1007.35,-428.32 1029.75,-416.1 1049.63,-405.73"/>
<polygon fill="red" stroke="red" points="1051.28,-408.82 1058.55,-401.11 1048.06,-402.6 1051.28,-408.82"/>
</g>
<!-- node3 -->
<g id="node4" class="node">
<title>node3</title>
<polygon fill="lightgreen" stroke="black" points="890.2,-375.54 890.2,-390.46 724.89,-401 491.11,-401 325.8,-390.46 325.8,-375.54 491.11,-365 724.89,-365 890.2,-375.54"/>
<text text-anchor="middle" x="608" y="-379.3" font-family="Times,serif" font-size="14.00">#3 Class StaticFieldAccessTest$Destination Order : 2</text>
</g>
<!-- node0&#45;&gt;node3 -->
<g id="edge6" class="edge">
<title>node0&#45;&gt;node3</title>
<path fill="none" stroke="black" stroke-dasharray="1,5" d="M881.86,-439.59C826.69,-428.88 754.38,-414.52 697.89,-403.08"/>
<polygon fill="black" stroke="black" points="698.39,-399.61 687.89,-401.05 696.99,-406.47 698.39,-399.61"/>
</g>
<!-- node4 -->
<g id="node5" class="node">
<title>node4</title>
<polygon fill="lightgreen" stroke="black" points="1725.77,-375.54 1725.77,-390.46 1574.19,-401 1359.81,-401 1208.23,-390.46 1208.23,-375.54 1359.81,-365 1574.19,-365 1725.77,-375.54"/>
<text text-anchor="middle" x="1467" y="-379.3" font-family="Times,serif" font-size="14.00">#4 Class StaticFieldAccessTest$Source Order : 1</text>
</g>
<!-- node0&#45;&gt;node4 -->
<g id="edge8" class="edge">
<title>node0&#45;&gt;node4</title>
<path fill="none" stroke="black" stroke-dasharray="1,5" d="M1045.27,-437.96C1135.97,-423.38 1238.31,-409.99 1319.5,-400.18"/>
<polygon fill="black" stroke="black" points="1320.28,-403.61 1329.79,-398.95 1319.45,-396.67 1320.28,-403.61"/>
</g>
<!-- node5 -->
<g id="node6" class="node">
<title>node5</title>
<polygon fill="lightgrey" stroke="black" points="1136,-328 962,-328 962,-292 1136,-292 1136,-328"/>
<text text-anchor="middle" x="1049" y="-306.3" font-family="Times,serif" font-size="14.00">#5 ClassInit Order : 5</text>
</g>
<!-- node0&#45;&gt;node5 -->
<g id="edge11" class="edge">
<title>node0&#45;&gt;node5</title>
<path fill="none" stroke="black" d="M961.14,-437.68C962.29,-418.73 969.83,-387.98 984,-365 990.88,-353.84 1000.59,-343.38 1010.49,-334.7"/>
<polygon fill="black" stroke="black" points="1012.95,-337.21 1018.42,-328.13 1008.49,-331.81 1012.95,-337.21"/>
</g>
<!-- node1&#45;&gt;node0 -->
<g id="edge1" class="edge">
<title>node1&#45;&gt;node0</title>
<path fill="none" stroke="green" stroke-width="2" d="M308.28,-399.31C314.27,-399.89 320.19,-400.46 326,-401 520.05,-419.2 747.09,-437.41 871.6,-447.34"/>
<polygon fill="green" stroke="green" stroke-width="2" points="871.61,-450.85 881.85,-448.16 872.16,-443.88 871.61,-450.85"/>
</g>
<!-- node2&#45;&gt;node0 -->
<g id="edge3" class="edge">
<title>node2&#45;&gt;node0</title>
<path fill="none" stroke="green" stroke-width="2" d="M1070.29,-401.11C1053.43,-410.81 1031.01,-423.03 1011.15,-433.38"/>
<polygon fill="green" stroke="green" stroke-width="2" points="1009.51,-430.29 1002.24,-437.99 1012.73,-436.51 1009.51,-430.29"/>
</g>
<!-- node2&#45;&gt;node5 -->
<g id="edge12" class="edge">
<title>node2&#45;&gt;node5</title>
<path fill="none" stroke="red" d="M1084.62,-364.81C1079.02,-356.35 1072.16,-345.98 1065.95,-336.61"/>
<polygon fill="red" stroke="red" points="1068.71,-334.44 1060.27,-328.03 1062.87,-338.3 1068.71,-334.44"/>
</g>
<!-- node3&#45;&gt;node0 -->
<g id="edge5" class="edge">
<title>node3&#45;&gt;node0</title>
<path fill="none" stroke="green" stroke-width="2" d="M699.6,-401.05C753.68,-411.58 821.79,-425.12 875.5,-436"/>
<polygon fill="green" stroke="green" stroke-width="2" points="874.85,-439.44 885.35,-437.99 876.24,-432.58 874.85,-439.44"/>
</g>
<!-- node7 -->
<g id="node8" class="node">
<title>node7</title>
<polygon fill="lightgrey" stroke="black" points="1093,-182 919,-182 919,-146 1093,-146 1093,-182"/>
<text text-anchor="middle" x="1006" y="-160.3" font-family="Times,serif" font-size="14.00">#7 ClassInit Order : 7</text>
</g>
<!-- node3&#45;&gt;node7 -->
<g id="edge17" class="edge">
<title>node3&#45;&gt;node7</title>
<path fill="none" stroke="black" d="M646.01,-364.97C657.43,-359.54 669.87,-353.3 681,-347 784.31,-288.54 797.46,-252.35 904,-200 914.83,-194.68 926.67,-189.82 938.33,-185.52"/>
<polygon fill="black" stroke="black" points="939.81,-188.71 948.05,-182.05 937.46,-182.12 939.81,-188.71"/>
<text text-anchor="middle" x="933.83" y="-192.41" font-family="Times,serif" font-size="14.00">*0</text>
</g>
<!-- node8 -->
<g id="node9" class="node">
<title>node8</title>
<polygon fill="lightgrey" stroke="black" points="1164.5,-109 847.5,-109 847.5,-73 1164.5,-73 1164.5,-109"/>
<text text-anchor="middle" x="1006" y="-87.3" font-family="Times,serif" font-size="14.00">#8 PutStaticField : int_field : int Order : 8</text>
</g>
<!-- node3&#45;&gt;node8 -->
<g id="edge21" class="edge">
<title>node3&#45;&gt;node8</title>
<path fill="none" stroke="black" d="M634.05,-364.75C649.86,-352.02 667,-333.12 667,-311 667,-311 667,-311 667,-163 667,-124.39 752.3,-106.65 837.33,-98.56"/>
<polygon fill="black" stroke="black" points="837.78,-102.03 847.42,-97.64 837.14,-95.06 837.78,-102.03"/>
<text text-anchor="middle" x="830.13" y="-104" font-family="Times,serif" font-size="14.00">*0</text>
</g>
<!-- node4&#45;&gt;node0 -->
<g id="edge7" class="edge">
<title>node4&#45;&gt;node0</title>
<path fill="none" stroke="green" stroke-width="2" d="M1339.69,-399.64C1260.06,-409.49 1155.46,-423.14 1063,-438 1061.5,-438.24 1059.98,-438.49 1058.45,-438.74"/>
<polygon fill="green" stroke="green" stroke-width="2" points="1057.5,-435.35 1048.23,-440.48 1058.67,-442.25 1057.5,-435.35"/>
</g>
<!-- node4&#45;&gt;node5 -->
<g id="edge10" class="edge">
<title>node4&#45;&gt;node5</title>
<path fill="none" stroke="black" d="M1366.88,-364.99C1300.03,-353.64 1212.55,-338.78 1146.29,-327.53"/>
<polygon fill="black" stroke="black" points="1146.71,-324.05 1136.26,-325.82 1145.54,-330.95 1146.71,-324.05"/>
<text text-anchor="middle" x="1155.55" y="-316.82" font-family="Times,serif" font-size="14.00">*0</text>
</g>
<!-- node6 -->
<g id="node7" class="node">
<title>node6</title>
<polygon fill="orange" stroke="black" points="1481.92,-229.54 1481.92,-244.46 1350.75,-255 1165.25,-255 1034.08,-244.46 1034.08,-229.54 1165.25,-219 1350.75,-219 1481.92,-229.54"/>
<text text-anchor="middle" x="1258" y="-233.3" font-family="Times,serif" font-size="14.00">#6 GetStaticField : int_field : int Order : 6</text>
</g>
<!-- node4&#45;&gt;node6 -->
<g id="edge14" class="edge">
<title>node4&#45;&gt;node6</title>
<path fill="none" stroke="black" d="M1442.2,-364.92C1404.57,-338.99 1332.99,-289.67 1291,-260.74"/>
<polygon fill="black" stroke="black" points="1292.98,-257.85 1282.76,-255.06 1289.01,-263.62 1292.98,-257.85"/>
<text text-anchor="middle" x="1302.49" y="-254.69" font-family="Times,serif" font-size="14.00">*0</text>
</g>
<!-- node5&#45;&gt;node0 -->
<g id="edge9" class="edge">
<title>node5&#45;&gt;node0</title>
<path fill="none" stroke="green" stroke-width="2" d="M1034.42,-328.13C1023.99,-337.84 1010.72,-350.86 1002,-365 990.04,-384.39 982.81,-409.31 977.25,-428.01"/>
<polygon fill="green" stroke="green" stroke-width="2" points="973.87,-427.09 974.32,-437.68 980.57,-429.13 973.87,-427.09"/>
</g>
<!-- node5&#45;&gt;node6 -->
<g id="edge15" class="edge">
<title>node5&#45;&gt;node6</title>
<path fill="none" stroke="black" d="M1099.06,-291.99C1128.83,-281.88 1166.77,-268.99 1198.12,-258.34"/>
<polygon fill="black" stroke="black" points="1199.28,-261.64 1207.62,-255.11 1197.03,-255.02 1199.28,-261.64"/>
</g>
<!-- node5&#45;&gt;node7 -->
<g id="edge19" class="edge">
<title>node5&#45;&gt;node7</title>
<path fill="none" stroke="red" d="M1040.27,-291.85C1035.23,-281.42 1029.11,-267.69 1025,-255 1018.3,-234.3 1013.35,-210.14 1010.18,-192.06"/>
<polygon fill="red" stroke="red" points="1013.63,-191.48 1008.53,-182.2 1006.73,-192.64 1013.63,-191.48"/>
</g>
<!-- node6&#45;&gt;node0 -->
<g id="edge13" class="edge">
<title>node6&#45;&gt;node0</title>
<path fill="none" stroke="green" stroke-width="2" d="M1451.96,-246.89C1622.85,-261.44 1830.84,-299.82 1735,-401 1684.72,-454.08 1167.53,-430.63 1058.57,-437.82"/>
<polygon fill="green" stroke="green" stroke-width="2" points="1057.97,-434.36 1048.32,-438.73 1058.6,-441.33 1057.97,-434.36"/>
</g>
<!-- node6&#45;&gt;node7 -->
<g id="edge18" class="edge">
<title>node6&#45;&gt;node7</title>
<path fill="none" stroke="black" d="M1197.64,-218.99C1161.28,-208.75 1114.81,-195.66 1076.73,-184.93"/>
<polygon fill="black" stroke="black" points="1077.32,-181.46 1066.74,-182.11 1075.42,-188.19 1077.32,-181.46"/>
</g>
<!-- node6&#45;&gt;node8 -->
<g id="edge22" class="edge">
<title>node6&#45;&gt;node8</title>
<path fill="none" stroke="black" d="M1228.73,-218.99C1197.42,-200.82 1146.28,-171.23 1102,-146 1083.46,-135.44 1062.85,-123.83 1045.5,-114.09"/>
<polygon fill="black" stroke="black" points="1047.18,-111.02 1036.74,-109.18 1043.75,-117.13 1047.18,-111.02"/>
<text text-anchor="middle" x="1056.69" y="-106.97" font-family="Times,serif" font-size="14.00">*1</text>
</g>
<!-- node7&#45;&gt;node0 -->
<g id="edge16" class="edge">
<title>node7&#45;&gt;node0</title>
<path fill="none" stroke="green" stroke-width="2" d="M961.23,-182.06C939.49,-193.54 918,-211.17 918,-236 918,-384 918,-384 918,-384 918,-401.22 927.73,-417.47 938.34,-430.06"/>
<polygon fill="green" stroke="green" stroke-width="2" points="936.03,-432.73 945.34,-437.79 941.22,-428.03 936.03,-432.73"/>
</g>
<!-- node7&#45;&gt;node8 -->
<g id="edge23" class="edge">
<title>node7&#45;&gt;node8</title>
<path fill="none" stroke="black" d="M1000.12,-145.81C999.28,-137.79 999.05,-128.05 999.42,-119.07"/>
<polygon fill="black" stroke="black" points="1002.92,-119.25 1000.14,-109.03 995.94,-118.75 1002.92,-119.25"/>
</g>
<!-- node7&#45;&gt;node8 -->
<g id="edge24" class="edge">
<title>node7&#45;&gt;node8</title>
<path fill="none" stroke="red" d="M1011.88,-145.81C1012.72,-137.79 1012.95,-128.05 1012.58,-119.07"/>
<polygon fill="red" stroke="red" points="1016.06,-118.75 1011.86,-109.03 1009.08,-119.25 1016.06,-118.75"/>
</g>
<!-- node8&#45;&gt;node0 -->
<g id="edge20" class="edge">
<title>node8&#45;&gt;node0</title>
<path fill="none" stroke="green" stroke-width="2" d="M1164.59,-98.53C1394.18,-109.06 1792,-131.81 1792,-163 1792,-384 1792,-384 1792,-384 1792,-427.49 1743.87,-412.66 1701,-420 1562.42,-443.74 1213.15,-423.41 1058.65,-437.63"/>
<polygon fill="green" stroke="green" stroke-width="2" points="1057.92,-434.19 1048.32,-438.66 1058.62,-441.15 1057.92,-434.19"/>
</g>
<!-- node9 -->
<g id="node10" class="node">
<title>node9</title>
<polygon fill="lightgrey" stroke="black" points="1086.5,-36 925.5,-36 925.5,0 1086.5,0 1086.5,-36"/>
<text text-anchor="middle" x="1006" y="-14.3" font-family="Times,serif" font-size="14.00">#9 Return Order : 9</text>
</g>
<!-- node8&#45;&gt;node9 -->
<g id="edge26" class="edge">
<title>node8&#45;&gt;node9</title>
<path fill="none" stroke="red" d="M994.24,-72.81C992.56,-64.79 992.1,-55.05 992.84,-46.07"/>
<polygon fill="red" stroke="red" points="996.33,-46.42 994.28,-36.03 989.4,-45.43 996.33,-46.42"/>
</g>
<!-- node8&#45;&gt;node9 -->
<g id="edge27" class="edge">
<title>node8&#45;&gt;node9</title>
<path fill="none" stroke="black" d="M1017.76,-72.81C1019.44,-64.79 1019.9,-55.05 1019.16,-46.07"/>
<polygon fill="black" stroke="black" points="1022.6,-45.43 1017.72,-36.03 1015.67,-46.42 1022.6,-45.43"/>
</g>
<!-- node9&#45;&gt;node8 -->
<g id="edge25" class="edge">
<title>node9&#45;&gt;node8</title>
<path fill="none" stroke="green" stroke-width="2" d="M1006,-36.03C1006,-44.03 1006,-53.77 1006,-62.75"/>
<polygon fill="green" stroke="green" stroke-width="2" points="1002.5,-62.81 1006,-72.81 1009.5,-62.81 1002.5,-62.81"/>
</g>
<!-- c0 -->
<!-- c1 -->
<!-- c0&#45;&gt;c1 -->
<g id="edge28" class="edge">
<title>c0&#45;&gt;c1</title>
<path fill="none" stroke="red" d="M1779.89,-456C1791.11,-456 1849.24,-456 1874.86,-456"/>
<polygon fill="red" stroke="red" points="1875.06,-459.5 1885.06,-456 1875.06,-452.5 1875.06,-459.5"/>
<text text-anchor="middle" x="1832.5" y="-462.8" font-family="Times,serif" font-size="14.00">Control flow</text>
</g>
<!-- c2 -->
<!-- c3 -->
<!-- c2&#45;&gt;c3 -->
<g id="edge29" class="edge">
<title>c2&#45;&gt;c3</title>
<path fill="none" stroke="red" stroke-dasharray="5,2" d="M1573.08,-456C1590.05,-456 1706.21,-456 1744.08,-456"/>
<polygon fill="red" stroke="red" points="1744.17,-459.5 1754.17,-456 1744.17,-452.5 1744.17,-459.5"/>
<text text-anchor="middle" x="1663.5" y="-462.8" font-family="Times,serif" font-size="14.00">Control flow back edge</text>
</g>
<!-- d0 -->
<!-- d1 -->
<!-- d0&#45;&gt;d1 -->
<g id="edge30" class="edge">
<title>d0&#45;&gt;d1</title>
<path fill="none" stroke="black" d="M1461.86,-456C1471.41,-456 1515.31,-456 1536.92,-456"/>
<polygon fill="black" stroke="black" points="1537.15,-459.5 1547.15,-456 1537.15,-452.5 1537.15,-459.5"/>
<text text-anchor="middle" x="1504.5" y="-462.8" font-family="Times,serif" font-size="14.00">Data flow</text>
</g>
<!-- d2 -->
<!-- d3 -->
<!-- d2&#45;&gt;d3 -->
<g id="edge31" class="edge">
<title>d2&#45;&gt;d3</title>
<path fill="none" stroke="black" stroke-dasharray="1,5" d="M1335.81,-456C1346.46,-456 1401.46,-456 1426.08,-456"/>
<polygon fill="black" stroke="black" points="1426.15,-459.5 1436.15,-456 1426.15,-452.5 1426.15,-459.5"/>
<text text-anchor="middle" x="1386" y="-462.8" font-family="Times,serif" font-size="14.00">Declaration</text>
</g>
<!-- d4 -->
<!-- d5 -->
<!-- d4&#45;&gt;d5 -->
<g id="edge32" class="edge">
<title>d4&#45;&gt;d5</title>
<path fill="none" stroke="blue" d="M1193.1,-456C1205.72,-456 1271.88,-456 1299.68,-456"/>
<polygon fill="blue" stroke="blue" points="1299.84,-459.5 1309.84,-456 1299.84,-452.5 1299.84,-459.5"/>
<text text-anchor="middle" x="1251.5" y="-462.8" font-family="Times,serif" font-size="14.00">PHI Data flow</text>
</g>
<!-- d6 -->
<!-- d7 -->
<!-- d6&#45;&gt;d7 -->
<g id="edge33" class="edge">
<title>d6&#45;&gt;d7</title>
<path fill="none" stroke="green" d="M1070.11,-456C1081.15,-456 1132.67,-456 1156.66,-456"/>
<polygon fill="green" stroke="green" points="1156.9,-459.5 1166.9,-456 1156.9,-452.5 1156.9,-459.5"/>
<text text-anchor="middle" x="1118.5" y="-462.8" font-family="Times,serif" font-size="14.00">Dominance</text>
</g>
</g>
</svg>
