<?xml version="1.0" encoding="UTF-8" standalone="no"?>
<!DOCTYPE svg PUBLIC "-//W3C//DTD SVG 1.1//EN"
 "http://www.w3.org/Graphics/SVG/1.1/DTD/svg11.dtd">
<!-- Generated by graphviz version 2.43.0 (0)
 -->
<!-- Title: debugoutput Pages: 1 -->
<svg width="1591pt" height="651pt"
 viewBox="0.00 0.00 1590.50 650.80" xmlns="http://www.w3.org/2000/svg" xmlns:xlink="http://www.w3.org/1999/xlink">
<g id="graph0" class="graph" transform="scale(1 1) rotate(0) translate(4 646.8)">
<title>debugoutput</title>
<polygon fill="white" stroke="transparent" points="-4,4 -4,-646.8 1586.5,-646.8 1586.5,4 -4,4"/>
<g id="clust1" class="cluster">
<title>cluster_000</title>
<polygon fill="none" stroke="black" points="735.5,-592.2 735.5,-634.8 1574.5,-634.8 1574.5,-592.2 735.5,-592.2"/>
<text text-anchor="middle" x="1155" y="-619.6" font-family="Times,serif" font-size="14.00">Legend</text>
</g>
<!-- node0 -->
<g id="node1" class="node">
<title>node0</title>
<polygon fill="lightgrey" stroke="black" points="725.5,-620 559.5,-620 559.5,-584 725.5,-584 725.5,-620"/>
<text text-anchor="middle" x="642.5" y="-598.3" font-family="Times,serif" font-size="14.00">#0 Method Order : 0</text>
</g>
<!-- node1 -->
<g id="node2" class="node">
<title>node1</title>
<polygon fill="lightgrey" stroke="black" points="523,-547 346,-547 346,-511 523,-511 523,-547"/>
<text text-anchor="middle" x="434.5" y="-525.3" font-family="Times,serif" font-size="14.00">#1 arg0 : int Order : 4</text>
</g>
<!-- node0&#45;&gt;node1 -->
<g id="edge2" class="edge">
<title>node0&#45;&gt;node1</title>
<path fill="none" stroke="red" d="M586.82,-583.99C556.25,-573.92 518.58,-561.1 488.31,-550.48"/>
<polygon fill="red" stroke="red" points="489.36,-547.14 478.77,-547.11 487.03,-553.74 489.36,-547.14"/>
</g>
<!-- node2 -->
<g id="node3" class="node">
<title>node2</title>
<polygon fill="lightgrey" stroke="black" points="327.5,-547 139.5,-547 139.5,-511 327.5,-511 327.5,-547"/>
<text text-anchor="middle" x="233.5" y="-525.3" font-family="Times,serif" font-size="14.00">#2 LabelNode Order : 3</text>
</g>
<!-- node0&#45;&gt;node2 -->
<g id="edge4" class="edge">
<title>node0&#45;&gt;node2</title>
<path fill="none" stroke="red" d="M559.17,-587.48C494.58,-576.53 404.82,-560.98 335.87,-548.82"/>
<polygon fill="red" stroke="red" points="336.31,-545.34 325.85,-547.05 335.09,-552.24 336.31,-545.34"/>
</g>
<!-- node3 -->
<g id="node4" class="node">
<title>node3</title>
<polygon fill="lightgreen" stroke="black" points="743.61,-521.54 743.61,-536.46 684.38,-547 600.62,-547 541.39,-536.46 541.39,-521.54 600.62,-511 684.38,-511 743.61,-521.54"/>
<text text-anchor="middle" x="642.5" y="-525.3" font-family="Times,serif" font-size="14.00">#3 int 0 Order : 2</text>
</g>
<!-- node0&#45;&gt;node3 -->
<g id="edge6" class="edge">
<title>node0&#45;&gt;node3</title>
<path fill="none" stroke="black" stroke-dasharray="1,5" d="M636.62,-583.81C635.78,-575.79 635.55,-566.05 635.92,-557.07"/>
<polygon fill="black" stroke="black" points="639.42,-557.25 636.64,-547.03 632.44,-556.75 639.42,-557.25"/>
</g>
<!-- node11 -->
<g id="node12" class="node">
<title>node11</title>
<polygon fill="lightgreen" stroke="black" points="1053.27,-521.54 1053.27,-536.46 990.14,-547 900.86,-547 837.73,-536.46 837.73,-521.54 900.86,-511 990.14,-511 1053.27,-521.54"/>
<text text-anchor="middle" x="945.5" y="-525.3" font-family="Times,serif" font-size="14.00">#11 int 1 Order : 1</text>
</g>
<!-- node0&#45;&gt;node11 -->
<g id="edge25" class="edge">
<title>node0&#45;&gt;node11</title>
<path fill="none" stroke="black" stroke-dasharray="1,5" d="M723.66,-583.96C765.85,-575.66 809.61,-567.19 814.5,-566 835.89,-560.79 859.13,-554.17 880.06,-548.04"/>
<polygon fill="black" stroke="black" points="881.21,-551.35 889.81,-545.17 879.23,-544.64 881.21,-551.35"/>
</g>
<!-- node13 -->
<g id="node14" class="node">
<title>node13</title>
<polygon fill="lightgrey" stroke="black" points="251,-36 0,-36 0,0 251,0 251,-36"/>
<text text-anchor="middle" x="125.5" y="-14.3" font-family="Times,serif" font-size="14.00">#13 ReturnValue : int Order : 13</text>
</g>
<!-- node0&#45;&gt;node13 -->
<g id="edge33" class="edge">
<title>node0&#45;&gt;node13</title>
<path fill="none" stroke="black" d="M559.22,-598.65C405.61,-593.1 93.5,-576.01 93.5,-530 93.5,-530 93.5,-530 93.5,-90 93.5,-74.57 98.48,-58.13 104.71,-44.96"/>
<polygon fill="black" stroke="black" points="107.86,-46.49 109.41,-36.01 101.66,-43.23 107.86,-46.49"/>
</g>
<!-- node1&#45;&gt;node0 -->
<g id="edge1" class="edge">
<title>node1&#45;&gt;node0</title>
<path fill="none" stroke="green" stroke-width="2" d="M490.51,-547.11C521.12,-557.2 558.79,-570.03 589.01,-580.63"/>
<polygon fill="green" stroke="green" stroke-width="2" points="587.94,-583.97 598.54,-583.99 590.27,-577.37 587.94,-583.97"/>
</g>
<!-- node4 -->
<g id="node5" class="node">
<title>node4</title>
<polygon fill="orange" stroke="black" points="768.14,-448.54 768.14,-463.46 653.54,-474 491.46,-474 376.86,-463.46 376.86,-448.54 491.46,-438 653.54,-438 768.14,-448.54"/>
<text text-anchor="middle" x="572.5" y="-452.3" font-family="Times,serif" font-size="14.00">#4 NumericCondition : NE Order : 5</text>
</g>
<!-- node1&#45;&gt;node4 -->
<g id="edge8" class="edge">
<title>node1&#45;&gt;node4</title>
<path fill="none" stroke="black" d="M467.55,-510.99C486.36,-501.32 510.11,-489.1 530.26,-478.73"/>
<polygon fill="black" stroke="black" points="531.95,-481.8 539.24,-474.11 528.74,-475.58 531.95,-481.8"/>
<text text-anchor="middle" x="526.99" y="-486.22" font-family="Times,serif" font-size="14.00">*0</text>
</g>
<!-- node2&#45;&gt;node0 -->
<g id="edge3" class="edge">
<title>node2&#45;&gt;node0</title>
<path fill="none" stroke="green" stroke-width="2" d="M327.75,-545.38C394.32,-556.7 483.09,-572.09 549.4,-583.82"/>
<polygon fill="green" stroke="green" stroke-width="2" points="548.97,-587.3 559.43,-585.59 550.19,-580.4 548.97,-587.3"/>
</g>
<!-- node5 -->
<g id="node6" class="node">
<title>node5</title>
<polygon fill="lightgrey" stroke="black" points="556.5,-401 434.5,-401 434.5,-365 556.5,-365 556.5,-401"/>
<text text-anchor="middle" x="495.5" y="-379.3" font-family="Times,serif" font-size="14.00">#5 If Order : 6</text>
</g>
<!-- node2&#45;&gt;node5 -->
<g id="edge12" class="edge">
<title>node2&#45;&gt;node5</title>
<path fill="none" stroke="red" d="M255.9,-511C281.85,-491.77 326.32,-460.25 367.5,-438 390.43,-425.61 416.81,-414.06 439.64,-404.85"/>
<polygon fill="red" stroke="red" points="441.19,-408 449.19,-401.04 438.6,-401.49 441.19,-408"/>
</g>
<!-- node3&#45;&gt;node0 -->
<g id="edge5" class="edge">
<title>node3&#45;&gt;node0</title>
<path fill="none" stroke="green" stroke-width="2" d="M648.36,-547.03C649.21,-555.03 649.45,-564.77 649.09,-573.75"/>
<polygon fill="green" stroke="green" stroke-width="2" points="645.59,-573.59 648.38,-583.81 652.57,-574.08 645.59,-573.59"/>
</g>
<!-- node3&#45;&gt;node4 -->
<g id="edge9" class="edge">
<title>node3&#45;&gt;node4</title>
<path fill="none" stroke="black" d="M625.55,-510.81C616.78,-501.92 605.93,-490.91 596.33,-481.17"/>
<polygon fill="black" stroke="black" points="598.8,-478.69 589.29,-474.03 593.82,-483.61 598.8,-478.69"/>
<text text-anchor="middle" x="608.03" y="-477.3" font-family="Times,serif" font-size="14.00">*1</text>
</g>
<!-- node12 -->
<g id="node13" class="node">
<title>node12</title>
<polygon fill="lightgreen" stroke="black" points="601.75,-83.54 601.75,-98.46 534.24,-109 438.76,-109 371.25,-98.46 371.25,-83.54 438.76,-73 534.24,-73 601.75,-83.54"/>
<text text-anchor="middle" x="486.5" y="-87.3" font-family="Times,serif" font-size="14.00">#12 Φ int Order : 12</text>
</g>
<!-- node3&#45;&gt;node12 -->
<g id="edge29" class="edge">
<title>node3&#45;&gt;node12</title>
<path fill="none" stroke="blue" d="M714.26,-516.15C738.46,-508.35 762.99,-495.43 777.5,-474 786.47,-460.75 781.47,-453.5 777.5,-438 740.8,-294.64 727.75,-244.71 617.5,-146 600.02,-130.35 577.38,-118.86 555.85,-110.61"/>
<polygon fill="blue" stroke="blue" points="556.98,-107.3 546.39,-107.16 554.58,-113.88 556.98,-107.3"/>
<text text-anchor="middle" x="566.31" y="-101.73" font-family="Times,serif" font-size="14.00">if #9</text>
</g>
<!-- node4&#45;&gt;node0 -->
<g id="edge7" class="edge">
<title>node4&#45;&gt;node0</title>
<path fill="none" stroke="green" stroke-width="2" d="M661.53,-473.35C700.87,-482.55 740.86,-495.36 752.5,-511 762.05,-523.84 760.96,-533.42 752.5,-547 743.74,-561.06 730.14,-571.56 715.45,-579.36"/>
<polygon fill="green" stroke="green" stroke-width="2" points="713.64,-576.35 706.19,-583.89 716.72,-582.64 713.64,-576.35"/>
</g>
<!-- node4&#45;&gt;node5 -->
<g id="edge11" class="edge">
<title>node4&#45;&gt;node5</title>
<path fill="none" stroke="black" d="M553.86,-437.81C544.12,-428.83 532.04,-417.69 521.4,-407.89"/>
<polygon fill="black" stroke="black" points="523.69,-405.23 513.97,-401.03 518.95,-410.38 523.69,-405.23"/>
<text text-anchor="middle" x="533.02" y="-403.4" font-family="Times,serif" font-size="14.00">*0</text>
</g>
<!-- node5&#45;&gt;node0 -->
<g id="edge10" class="edge">
<title>node5&#45;&gt;node0</title>
<path fill="none" stroke="green" stroke-width="2" d="M556.54,-386.87C630.9,-391.79 750.03,-404.77 777.5,-438 808.45,-475.44 791.07,-503.48 769.5,-547 762.14,-561.84 749.5,-572.61 734.95,-580.42"/>
<polygon fill="green" stroke="green" stroke-width="2" points="733.16,-577.4 725.68,-584.9 736.21,-583.7 733.16,-577.4"/>
</g>
<!-- node6 -->
<g id="node7" class="node">
<title>node6</title>
<polygon fill="lightgrey" stroke="black" points="393,-328 248,-328 248,-292 393,-292 393,-328"/>
<text text-anchor="middle" x="320.5" y="-306.3" font-family="Times,serif" font-size="14.00">#6 false Order : 9</text>
</g>
<!-- node5&#45;&gt;node6 -->
<g id="edge14" class="edge">
<title>node5&#45;&gt;node6</title>
<path fill="none" stroke="red" d="M447.72,-364.99C422.29,-355.1 391.22,-342.54 366.12,-332.03"/>
<polygon fill="red" stroke="red" points="367.39,-328.77 356.81,-328.11 364.67,-335.22 367.39,-328.77"/>
</g>
<!-- node8 -->
<g id="node9" class="node">
<title>node8</title>
<polygon fill="lightgrey" stroke="black" points="566,-328 425,-328 425,-292 566,-292 566,-328"/>
<text text-anchor="middle" x="495.5" y="-306.3" font-family="Times,serif" font-size="14.00">#8 true Order : 7</text>
</g>
<!-- node5&#45;&gt;node8 -->
<g id="edge18" class="edge">
<title>node5&#45;&gt;node8</title>
<path fill="none" stroke="red" d="M489.62,-364.81C488.78,-356.79 488.55,-347.05 488.92,-338.07"/>
<polygon fill="red" stroke="red" points="492.42,-338.25 489.64,-328.03 485.44,-337.75 492.42,-338.25"/>
</g>
<!-- node6&#45;&gt;node5 -->
<g id="edge13" class="edge">
<title>node6&#45;&gt;node5</title>
<path fill="none" stroke="green" stroke-width="2" d="M368.55,-328.11C394.03,-338.03 425.09,-350.58 450.16,-361.08"/>
<polygon fill="green" stroke="green" stroke-width="2" points="448.87,-364.34 459.44,-364.99 451.59,-357.89 448.87,-364.34"/>
</g>
<!-- node7 -->
<g id="node8" class="node">
<title>node7</title>
<polygon fill="lightgrey" stroke="black" points="383.5,-255 229.5,-255 229.5,-219 383.5,-219 383.5,-255"/>
<text text-anchor="middle" x="306.5" y="-233.3" font-family="Times,serif" font-size="14.00">#7 Goto Order : 10</text>
</g>
<!-- node6&#45;&gt;node7 -->
<g id="edge16" class="edge">
<title>node6&#45;&gt;node7</title>
<path fill="none" stroke="red" d="M311.23,-291.81C308.81,-283.79 306.66,-274.05 305.26,-265.07"/>
<polygon fill="red" stroke="red" points="308.72,-264.51 304,-255.03 301.77,-265.39 308.72,-264.51"/>
</g>
<!-- node7&#45;&gt;node6 -->
<g id="edge15" class="edge">
<title>node7&#45;&gt;node6</title>
<path fill="none" stroke="green" stroke-width="2" d="M315.72,-255.03C318.14,-263.03 320.31,-272.77 321.71,-281.75"/>
<polygon fill="green" stroke="green" stroke-width="2" points="318.26,-282.33 322.99,-291.81 325.2,-281.45 318.26,-282.33"/>
</g>
<!-- node10 -->
<g id="node11" class="node">
<title>node10</title>
<polygon fill="lightgrey" stroke="black" points="609,-182 364,-182 364,-146 609,-146 609,-182"/>
<text text-anchor="middle" x="486.5" y="-160.3" font-family="Times,serif" font-size="14.00">#10 Merge : Merge9 Order : 11</text>
</g>
<!-- node7&#45;&gt;node10 -->
<g id="edge22" class="edge">
<title>node7&#45;&gt;node10</title>
<path fill="none" stroke="red" d="M349.61,-218.99C374.81,-209.06 406.81,-196.43 433.53,-185.89"/>
<polygon fill="red" stroke="red" points="435.1,-189.04 443.11,-182.11 432.53,-182.53 435.1,-189.04"/>
</g>
<!-- node8&#45;&gt;node5 -->
<g id="edge17" class="edge">
<title>node8&#45;&gt;node5</title>
<path fill="none" stroke="green" stroke-width="2" d="M501.36,-328.03C502.21,-336.03 502.45,-345.77 502.09,-354.75"/>
<polygon fill="green" stroke="green" stroke-width="2" points="498.59,-354.59 501.38,-364.81 505.57,-355.08 498.59,-354.59"/>
</g>
<!-- node9 -->
<g id="node10" class="node">
<title>node9</title>
<polygon fill="lightgrey" stroke="black" points="589.5,-255 401.5,-255 401.5,-219 589.5,-219 589.5,-255"/>
<text text-anchor="middle" x="495.5" y="-233.3" font-family="Times,serif" font-size="14.00">#9 LabelNode Order : 8</text>
</g>
<!-- node8&#45;&gt;node9 -->
<g id="edge20" class="edge">
<title>node8&#45;&gt;node9</title>
<path fill="none" stroke="red" d="M489.62,-291.81C488.78,-283.79 488.55,-274.05 488.92,-265.07"/>
<polygon fill="red" stroke="red" points="492.42,-265.25 489.64,-255.03 485.44,-264.75 492.42,-265.25"/>
</g>
<!-- node9&#45;&gt;node8 -->
<g id="edge19" class="edge">
<title>node9&#45;&gt;node8</title>
<path fill="none" stroke="green" stroke-width="2" d="M501.36,-255.03C502.21,-263.03 502.45,-272.77 502.09,-281.75"/>
<polygon fill="green" stroke="green" stroke-width="2" points="498.59,-281.59 501.38,-291.81 505.57,-282.08 498.59,-281.59"/>
</g>
<!-- node9&#45;&gt;node10 -->
<g id="edge23" class="edge">
<title>node9&#45;&gt;node10</title>
<path fill="none" stroke="red" d="M493.32,-218.81C492.3,-210.79 491.07,-201.05 489.93,-192.07"/>
<polygon fill="red" stroke="red" points="493.39,-191.51 488.66,-182.03 486.44,-192.39 493.39,-191.51"/>
</g>
<!-- node10&#45;&gt;node5 -->
<g id="edge21" class="edge">
<title>node10&#45;&gt;node5</title>
<path fill="none" stroke="green" stroke-width="2" d="M551.91,-182.12C570.12,-190.22 587.82,-202 598.5,-219 624.88,-261.01 604.3,-288.34 574.5,-328 565.17,-340.41 552.13,-350.95 539.33,-359.34"/>
<polygon fill="green" stroke="green" stroke-width="2" points="537.2,-356.55 530.55,-364.8 540.89,-362.49 537.2,-356.55"/>
</g>
<!-- node10&#45;&gt;node12 -->
<g id="edge27" class="edge">
<title>node10&#45;&gt;node12</title>
<path fill="none" stroke="black" stroke-dasharray="1,5" d="M486.5,-145.81C486.5,-137.79 486.5,-128.05 486.5,-119.07"/>
<polygon fill="black" stroke="black" points="490,-119.03 486.5,-109.03 483,-119.03 490,-119.03"/>
</g>
<!-- node10&#45;&gt;node13 -->
<g id="edge32" class="edge">
<title>node10&#45;&gt;node13</title>
<path fill="none" stroke="red" d="M367.2,-145.92C346.6,-141.25 325.67,-135.37 306.5,-128 249.84,-106.22 190.81,-67.05 156.14,-42.08"/>
<polygon fill="red" stroke="red" points="158.01,-39.11 147.86,-36.05 153.89,-44.77 158.01,-39.11"/>
</g>
<!-- node11&#45;&gt;node0 -->
<g id="edge24" class="edge">
<title>node11&#45;&gt;node0</title>
<path fill="none" stroke="green" stroke-width="2" d="M900.42,-546.98C879.83,-553.4 855.14,-560.49 832.5,-566 827.47,-567.23 781.21,-576.17 735.56,-584.71"/>
<polygon fill="green" stroke="green" stroke-width="2" points="734.72,-581.3 725.54,-586.58 736.01,-588.18 734.72,-581.3"/>
</g>
<!-- node11&#45;&gt;node12 -->
<g id="edge28" class="edge">
<title>node11&#45;&gt;node12</title>
<path fill="none" stroke="blue" d="M937.43,-510.63C908.29,-449.92 802.18,-245.52 650.5,-146 624.72,-129.08 593.17,-117.04 564.66,-108.69"/>
<polygon fill="blue" stroke="blue" points="565.29,-105.23 554.72,-105.89 563.39,-111.97 565.29,-105.23"/>
<text text-anchor="middle" x="574.46" y="-98.97" font-family="Times,serif" font-size="14.00">if #7</text>
</g>
<!-- node12&#45;&gt;node0 -->
<g id="edge26" class="edge">
<title>node12&#45;&gt;node0</title>
<path fill="none" stroke="green" stroke-width="2" d="M601.93,-94.35C774.96,-99.45 1081.5,-115.21 1081.5,-163 1081.5,-530 1081.5,-530 1081.5,-530 1081.5,-605.78 829.14,-574.78 735.89,-583.66"/>
<polygon fill="green" stroke="green" stroke-width="2" points="735.35,-580.2 725.84,-584.88 736.19,-587.15 735.35,-580.2"/>
</g>
<!-- node12&#45;&gt;node13 -->
<g id="edge31" class="edge">
<title>node12&#45;&gt;node13</title>
<path fill="none" stroke="black" d="M416.9,-76.31C361.58,-65.43 283.58,-50.09 222.2,-38.02"/>
<polygon fill="black" stroke="black" points="222.6,-34.53 212.11,-36.03 221.25,-41.4 222.6,-34.53"/>
<text text-anchor="middle" x="231.53" y="-27.54" font-family="Times,serif" font-size="14.00">*0</text>
</g>
<!-- node13&#45;&gt;node0 -->
<g id="edge30" class="edge">
<title>node13&#45;&gt;node0</title>
<path fill="none" stroke="green" stroke-width="2" d="M123.93,-36.01C119.19,-50.09 111.5,-70.82 111.5,-90 111.5,-530 111.5,-530 111.5,-530 111.5,-573.96 396.49,-591.52 548.95,-597.84"/>
<polygon fill="green" stroke="green" stroke-width="2" points="549.11,-601.35 559.24,-598.26 549.39,-594.35 549.11,-601.35"/>
</g>
<!-- c0 -->
<!-- c1 -->
<!-- c0&#45;&gt;c1 -->
<g id="edge34" class="edge">
<title>c0&#45;&gt;c1</title>
<path fill="none" stroke="red" d="M1457.39,-602C1468.61,-602 1526.74,-602 1552.36,-602"/>
<polygon fill="red" stroke="red" points="1552.56,-605.5 1562.56,-602 1552.56,-598.5 1552.56,-605.5"/>
<text text-anchor="middle" x="1510" y="-608.8" font-family="Times,serif" font-size="14.00">Control flow</text>
</g>
<!-- c2 -->
<!-- c3 -->
<!-- c2&#45;&gt;c3 -->
<g id="edge35" class="edge">
<title>c2&#45;&gt;c3</title>
<path fill="none" stroke="red" stroke-dasharray="5,2" d="M1250.58,-602C1267.55,-602 1383.71,-602 1421.58,-602"/>
<polygon fill="red" stroke="red" points="1421.67,-605.5 1431.67,-602 1421.67,-598.5 1421.67,-605.5"/>
<text text-anchor="middle" x="1341" y="-608.8" font-family="Times,serif" font-size="14.00">Control flow back edge</text>
</g>
<!-- d0 -->
<!-- d1 -->
<!-- d0&#45;&gt;d1 -->
<g id="edge36" class="edge">
<title>d0&#45;&gt;d1</title>
<path fill="none" stroke="black" d="M1139.36,-602C1148.91,-602 1192.81,-602 1214.42,-602"/>
<polygon fill="black" stroke="black" points="1214.65,-605.5 1224.65,-602 1214.65,-598.5 1214.65,-605.5"/>
<text text-anchor="middle" x="1182" y="-608.8" font-family="Times,serif" font-size="14.00">Data flow</text>
</g>
<!-- d2 -->
<!-- d3 -->
<!-- d2&#45;&gt;d3 -->
<g id="edge37" class="edge">
<title>d2&#45;&gt;d3</title>
<path fill="none" stroke="black" stroke-dasharray="1,5" d="M1013.31,-602C1023.96,-602 1078.96,-602 1103.58,-602"/>
<polygon fill="black" stroke="black" points="1103.65,-605.5 1113.65,-602 1103.65,-598.5 1103.65,-605.5"/>
<text text-anchor="middle" x="1063.5" y="-608.8" font-family="Times,serif" font-size="14.00">Declaration</text>
</g>
<!-- d4 -->
<!-- d5 -->
<!-- d4&#45;&gt;d5 -->
<g id="edge38" class="edge">
<title>d4&#45;&gt;d5</title>
<path fill="none" stroke="blue" d="M870.6,-602C883.22,-602 949.38,-602 977.18,-602"/>
<polygon fill="blue" stroke="blue" points="977.34,-605.5 987.34,-602 977.34,-598.5 977.34,-605.5"/>
<text text-anchor="middle" x="929" y="-608.8" font-family="Times,serif" font-size="14.00">PHI Data flow</text>
</g>
<!-- d6 -->
<!-- d7 -->
<!-- d6&#45;&gt;d7 -->
<g id="edge39" class="edge">
<title>d6&#45;&gt;d7</title>
<path fill="none" stroke="green" d="M747.61,-602C758.65,-602 810.17,-602 834.16,-602"/>
<polygon fill="green" stroke="green" points="834.4,-605.5 844.4,-602 834.4,-598.5 834.4,-605.5"/>
<text text-anchor="middle" x="796" y="-608.8" font-family="Times,serif" font-size="14.00">Dominance</text>
</g>
</g>
</svg>
