<?xml version="1.0" encoding="UTF-8" standalone="no"?>
<!DOCTYPE svg PUBLIC "-//W3C//DTD SVG 1.1//EN"
 "http://www.w3.org/Graphics/SVG/1.1/DTD/svg11.dtd">
<!-- Generated by graphviz version 2.43.0 (0)
 -->
<!-- Title: %3 Pages: 1 -->
<svg width="1344pt" height="806pt"
 viewBox="0.00 0.00 1344.07 805.80" xmlns="http://www.w3.org/2000/svg" xmlns:xlink="http://www.w3.org/1999/xlink">
<g id="graph0" class="graph" transform="scale(1 1) rotate(0) translate(4 801.8)">
<title>%3</title>
<polygon fill="white" stroke="transparent" points="-4,4 -4,-801.8 1340.07,-801.8 1340.07,4 -4,4"/>
<g id="clust1" class="cluster">
<title>cluster_0</title>
<polygon fill="none" stroke="lightgray" points="63.07,-503 63.07,-628 321.07,-628 321.07,-503 63.07,-503"/>
</g>
<g id="clust2" class="cluster">
<title>cluster_1</title>
<polygon fill="none" stroke="lightgray" points="336.07,-576 336.07,-701 472.07,-701 472.07,-576 336.07,-576"/>
</g>
<g id="clust3" class="cluster">
<title>cluster_2</title>
<polygon fill="none" stroke="lightgray" points="148.07,-284 148.07,-409 348.07,-409 348.07,-284 148.07,-284"/>
</g>
<g id="clust4" class="cluster">
<title>cluster_000</title>
<polygon fill="none" stroke="black" points="475.07,-747.2 475.07,-789.8 1328.07,-789.8 1328.07,-747.2 475.07,-747.2"/>
<text text-anchor="middle" x="901.57" y="-774.6" font-family="Times,serif" font-size="14.00">Legend</text>
</g>
<!-- node0 -->
<g id="node1" class="node">
<title>node0</title>
<polygon fill="lightgrey" stroke="transparent" points="465.57,-784 342.57,-784 342.57,-730 465.57,-730 465.57,-784"/>
<polygon fill="none" stroke="black" points="343.07,-757 343.07,-784 466.07,-784 466.07,-757 343.07,-757"/>
<text text-anchor="start" x="364.07" y="-766.8" font-family="Times,serif" font-size="14.00">#0 Method</text>
<polygon fill="yellow" stroke="transparent" points="343.07,-730 343.07,-757 466.07,-757 466.07,-730 343.07,-730"/>
<polygon fill="none" stroke="black" points="343.07,-730 343.07,-757 466.07,-757 466.07,-730 343.07,-730"/>
<text text-anchor="start" x="349.07" y="-739.8" font-family="Times,serif" font-size="14.00">this : ArrayTest</text>
</g>
<!-- node2 -->
<g id="node2" class="node">
<title>node2</title>
<polygon fill="lightgrey" stroke="black" points="463.57,-693 344.57,-693 344.57,-657 463.57,-657 463.57,-693"/>
<text text-anchor="middle" x="404.07" y="-671.3" font-family="Times,serif" font-size="14.00">#2 LabelNode</text>
</g>
<!-- node0&#45;&gt;node2 -->
<g id="edge1" class="edge">
<title>node0&#45;&gt;node2</title>
<path fill="none" stroke="red" d="M404.07,-729.81C404.07,-721.35 404.07,-711.95 404.07,-703.4"/>
<polygon fill="red" stroke="red" points="407.57,-703.17 404.07,-693.17 400.57,-703.17 407.57,-703.17"/>
</g>
<!-- node5 -->
<g id="node4" class="node">
<title>node5</title>
<polygon fill="orange" stroke="black" points="528.76,-448.54 528.76,-463.46 458.65,-474 359.5,-474 289.38,-463.46 289.38,-448.54 359.5,-438 458.65,-438 528.76,-448.54"/>
<text text-anchor="middle" x="409.07" y="-452.3" font-family="Times,serif" font-size="14.00">#5 NewArray : byte[]</text>
</g>
<!-- node0&#45;&gt;node5 -->
<g id="edge4" class="edge">
<title>node0&#45;&gt;node5</title>
<path fill="none" stroke="green" d="M451.46,-729.75C461.37,-721.88 470.49,-712.28 476.07,-701 500.7,-651.2 490.16,-629.74 476.07,-576 466.9,-541.02 444.88,-505.48 428.57,-482.47"/>
<polygon fill="green" stroke="green" points="431.34,-480.33 422.64,-474.29 425.67,-484.44 431.34,-480.33"/>
</g>
<!-- node4 -->
<g id="node3" class="node">
<title>node4</title>
<polygon fill="lightgreen" stroke="black" points="463.26,-594.54 463.26,-609.46 428.59,-620 379.56,-620 344.88,-609.46 344.88,-594.54 379.56,-584 428.59,-584 463.26,-594.54"/>
<text text-anchor="middle" x="404.07" y="-598.3" font-family="Times,serif" font-size="14.00">#4 int 10</text>
</g>
<!-- node2&#45;&gt;node4 -->
<g id="edge2" class="edge">
<title>node2&#45;&gt;node4</title>
<path fill="none" stroke="black" stroke-dasharray="1,5" d="M404.07,-656.81C404.07,-648.79 404.07,-639.05 404.07,-630.07"/>
<polygon fill="black" stroke="black" points="407.57,-630.03 404.07,-620.03 400.57,-630.03 407.57,-630.03"/>
</g>
<!-- node3 -->
<g id="node8" class="node">
<title>node3</title>
<polygon fill="lightgrey" stroke="black" points="251.57,-620 132.57,-620 132.57,-584 251.57,-584 251.57,-620"/>
<text text-anchor="middle" x="192.07" y="-598.3" font-family="Times,serif" font-size="14.00">#3 LabelNode</text>
</g>
<!-- node2&#45;&gt;node3 -->
<g id="edge10" class="edge">
<title>node2&#45;&gt;node3</title>
<path fill="none" stroke="red" d="M353.29,-656.99C323.1,-646.88 284.61,-633.99 252.81,-623.34"/>
<polygon fill="red" stroke="red" points="253.77,-619.97 243.17,-620.11 251.54,-626.61 253.77,-619.97"/>
</g>
<!-- node4&#45;&gt;node5 -->
<g id="edge3" class="edge">
<title>node4&#45;&gt;node5</title>
<path fill="none" stroke="black" d="M404.66,-583.92C405.52,-559.34 407.1,-513.75 408.12,-484.43"/>
<polygon fill="black" stroke="black" points="411.63,-484.18 408.48,-474.06 404.63,-483.93 411.63,-484.18"/>
<text text-anchor="middle" x="416.3" y="-488.77" font-family="Times,serif" font-size="14.00">*0</text>
</g>
<!-- node10 -->
<g id="node5" class="node">
<title>node10</title>
<polygon fill="lightgrey" stroke="black" points="340.57,-401 155.57,-401 155.57,-365 340.57,-365 340.57,-401"/>
<text text-anchor="middle" x="248.07" y="-379.3" font-family="Times,serif" font-size="14.00">#10 ArrayStore : byte[]</text>
</g>
<!-- node5&#45;&gt;node10 -->
<g id="edge5" class="edge">
<title>node5&#45;&gt;node10</title>
<path fill="none" stroke="black" d="M364.65,-437.99C341.37,-428.19 313.08,-415.77 290.15,-405.31"/>
<polygon fill="black" stroke="black" points="291.56,-402.11 281.01,-401.11 288.64,-408.47 291.56,-402.11"/>
<text text-anchor="middle" x="301.01" y="-397.29" font-family="Times,serif" font-size="14.00">*0</text>
</g>
<!-- node5&#45;&gt;node10 -->
<g id="edge8" class="edge">
<title>node5&#45;&gt;node10</title>
<path fill="none" stroke="green" d="M376.37,-437.99C354.98,-428.1 326.63,-415.54 301.99,-405.03"/>
<polygon fill="green" stroke="green" points="303.32,-401.8 292.75,-401.11 300.59,-408.24 303.32,-401.8"/>
</g>
<!-- node12 -->
<g id="node11" class="node">
<title>node12</title>
<polygon fill="lightgrey" stroke="black" points="303.07,-255 133.07,-255 133.07,-219 303.07,-219 303.07,-255"/>
<text text-anchor="middle" x="218.07" y="-233.3" font-family="Times,serif" font-size="14.00">#12 ArrayLoad : byte</text>
</g>
<!-- node5&#45;&gt;node12 -->
<g id="edge15" class="edge">
<title>node5&#45;&gt;node12</title>
<path fill="none" stroke="black" d="M399.99,-437.83C395.71,-429.32 390.75,-418.78 387.07,-409 366.77,-355 391.67,-325.95 352.07,-284 341.27,-272.56 327.5,-263.96 312.91,-257.5"/>
<polygon fill="black" stroke="black" points="313.81,-254.09 303.23,-253.56 311.17,-260.57 313.81,-254.09"/>
<text text-anchor="middle" x="323.21" y="-248.87" font-family="Times,serif" font-size="14.00">*0</text>
</g>
<!-- node8 -->
<g id="node16" class="node">
<title>node8</title>
<polygon fill="orange" stroke="black" points="581.79,-375.54 581.79,-390.46 527.48,-401 450.66,-401 396.35,-390.46 396.35,-375.54 450.66,-365 527.48,-365 581.79,-375.54"/>
<text text-anchor="middle" x="489.07" y="-379.3" font-family="Times,serif" font-size="14.00">#8 ArrayLength</text>
</g>
<!-- node5&#45;&gt;node8 -->
<g id="edge24" class="edge">
<title>node5&#45;&gt;node8</title>
<path fill="none" stroke="black" d="M428.44,-437.81C438.56,-428.83 451.11,-417.69 462.16,-407.89"/>
<polygon fill="black" stroke="black" points="464.73,-410.28 469.88,-401.03 460.08,-405.05 464.73,-410.28"/>
<text text-anchor="middle" x="461.94" y="-415.68" font-family="Times,serif" font-size="14.00">*0</text>
</g>
<!-- node11 -->
<g id="node10" class="node">
<title>node11</title>
<polygon fill="lightgreen" stroke="black" points="340.26,-302.54 340.26,-317.46 305.59,-328 256.56,-328 221.88,-317.46 221.88,-302.54 256.56,-292 305.59,-292 340.26,-302.54"/>
<text text-anchor="middle" x="281.07" y="-306.3" font-family="Times,serif" font-size="14.00">#11 int 1</text>
</g>
<!-- node10&#45;&gt;node11 -->
<g id="edge14" class="edge">
<title>node10&#45;&gt;node11</title>
<path fill="none" stroke="black" stroke-dasharray="1,5" d="M256.06,-364.81C259.91,-356.53 264.61,-346.41 268.9,-337.19"/>
<polygon fill="black" stroke="black" points="272.12,-338.57 273.16,-328.03 265.77,-335.62 272.12,-338.57"/>
</g>
<!-- node10&#45;&gt;node12 -->
<g id="edge17" class="edge">
<title>node10&#45;&gt;node12</title>
<path fill="none" stroke="green" d="M225.32,-364.81C216.6,-354.79 208.06,-341.5 204.07,-328 198,-307.46 199.85,-283.15 204.26,-264.98"/>
<polygon fill="green" stroke="green" points="207.64,-265.9 207.03,-255.32 200.91,-263.97 207.64,-265.9"/>
</g>
<!-- node10&#45;&gt;node12 -->
<g id="edge18" class="edge">
<title>node10&#45;&gt;node12</title>
<path fill="none" stroke="red" d="M241.18,-364.81C234.6,-354.79 226.06,-341.5 222.07,-328 216.05,-307.65 217.81,-283.6 219.46,-265.49"/>
<polygon fill="red" stroke="red" points="222.97,-265.59 220.38,-255.32 216,-264.96 222.97,-265.59"/>
</g>
<!-- node6 -->
<g id="node6" class="node">
<title>node6</title>
<polygon fill="lightgreen" stroke="black" points="312.6,-521.54 312.6,-536.46 281.83,-547 238.32,-547 207.55,-536.46 207.55,-521.54 238.32,-511 281.83,-511 312.6,-521.54"/>
<text text-anchor="middle" x="260.07" y="-525.3" font-family="Times,serif" font-size="14.00">#6 int 0</text>
</g>
<!-- node6&#45;&gt;node10 -->
<g id="edge6" class="edge">
<title>node6&#45;&gt;node10</title>
<path fill="none" stroke="black" d="M258.65,-510.92C256.59,-486.23 252.77,-440.35 250.33,-411.04"/>
<polygon fill="black" stroke="black" points="253.81,-410.74 249.49,-401.06 246.84,-411.32 253.81,-410.74"/>
<text text-anchor="middle" x="259.42" y="-414.72" font-family="Times,serif" font-size="14.00">*1</text>
</g>
<!-- node9 -->
<g id="node7" class="node">
<title>node9</title>
<polygon fill="orange" stroke="black" points="233.53,-448.54 233.53,-463.46 171.17,-474 82.98,-474 20.62,-463.46 20.62,-448.54 82.98,-438 171.17,-438 233.53,-448.54"/>
<text text-anchor="middle" x="127.07" y="-452.3" font-family="Times,serif" font-size="14.00">#9 Truncate : byte</text>
</g>
<!-- node9&#45;&gt;node10 -->
<g id="edge7" class="edge">
<title>node9&#45;&gt;node10</title>
<path fill="none" stroke="black" d="M156.05,-437.99C172.25,-428.49 192.62,-416.54 210.08,-406.29"/>
<polygon fill="black" stroke="black" points="212.05,-409.19 218.91,-401.11 208.51,-403.16 212.05,-409.19"/>
<text text-anchor="middle" x="207.55" y="-413.88" font-family="Times,serif" font-size="14.00">*2</text>
</g>
<!-- node3&#45;&gt;node10 -->
<g id="edge9" class="edge">
<title>node3&#45;&gt;node10</title>
<path fill="none" stroke="red" d="M132.51,-584.41C108.9,-575.85 82.56,-563.64 62.07,-547 20.69,-513.4 -21.15,-479.68 12.07,-438 29.12,-416.61 89.86,-403.01 145.45,-394.81"/>
<polygon fill="red" stroke="red" points="145.99,-398.26 155.39,-393.39 145,-391.33 145.99,-398.26"/>
</g>
<!-- node3&#45;&gt;node6 -->
<g id="edge13" class="edge">
<title>node3&#45;&gt;node6</title>
<path fill="none" stroke="black" stroke-dasharray="1,5" d="M208.53,-583.81C216.97,-575 227.39,-564.13 236.65,-554.46"/>
<polygon fill="black" stroke="black" points="239.37,-556.67 243.76,-547.03 234.32,-551.83 239.37,-556.67"/>
</g>
<!-- node7 -->
<g id="node9" class="node">
<title>node7</title>
<polygon fill="lightgreen" stroke="black" points="189.26,-521.54 189.26,-536.46 154.59,-547 105.56,-547 70.88,-536.46 70.88,-521.54 105.56,-511 154.59,-511 189.26,-521.54"/>
<text text-anchor="middle" x="130.07" y="-525.3" font-family="Times,serif" font-size="14.00">#7 int 10</text>
</g>
<!-- node3&#45;&gt;node7 -->
<g id="edge11" class="edge">
<title>node3&#45;&gt;node7</title>
<path fill="none" stroke="black" stroke-dasharray="1,5" d="M177.06,-583.81C169.45,-575.09 160.06,-564.34 151.68,-554.75"/>
<polygon fill="black" stroke="black" points="154.16,-552.26 144.94,-547.03 148.88,-556.86 154.16,-552.26"/>
</g>
<!-- node7&#45;&gt;node9 -->
<g id="edge12" class="edge">
<title>node7&#45;&gt;node9</title>
<path fill="none" stroke="black" d="M129.35,-510.81C129.01,-502.79 128.59,-493.05 128.22,-484.07"/>
<polygon fill="black" stroke="black" points="131.71,-483.87 127.79,-474.03 124.72,-484.17 131.71,-483.87"/>
<text text-anchor="middle" x="137" y="-488.08" font-family="Times,serif" font-size="14.00">*0</text>
</g>
<!-- node11&#45;&gt;node12 -->
<g id="edge16" class="edge">
<title>node11&#45;&gt;node12</title>
<path fill="none" stroke="black" d="M265.82,-291.81C258.08,-283.09 248.54,-272.34 240.03,-262.75"/>
<polygon fill="black" stroke="black" points="242.44,-260.19 233.18,-255.03 237.2,-264.83 242.44,-260.19"/>
<text text-anchor="middle" x="251.53" y="-259.28" font-family="Times,serif" font-size="14.00">*1</text>
</g>
<!-- node13 -->
<g id="node12" class="node">
<title>node13</title>
<polygon fill="orange" stroke="black" points="447.52,-156.54 447.52,-171.46 374.03,-182 270.11,-182 196.63,-171.46 196.63,-156.54 270.11,-146 374.03,-146 447.52,-156.54"/>
<text text-anchor="middle" x="322.07" y="-160.3" font-family="Times,serif" font-size="14.00">#13 Extend : SIGN int</text>
</g>
<!-- node12&#45;&gt;node13 -->
<g id="edge19" class="edge">
<title>node12&#45;&gt;node13</title>
<path fill="none" stroke="black" d="M242.98,-218.99C256.65,-209.67 273.77,-197.97 288.59,-187.86"/>
<polygon fill="black" stroke="black" points="290.72,-190.64 297,-182.11 286.77,-184.86 290.72,-190.64"/>
<text text-anchor="middle" x="286.8" y="-195.61" font-family="Times,serif" font-size="14.00">*0</text>
</g>
<!-- node14 -->
<g id="node13" class="node">
<title>node14</title>
<polygon fill="lightgrey" stroke="black" points="179.07,-182 51.07,-182 51.07,-146 179.07,-146 179.07,-182"/>
<text text-anchor="middle" x="115.07" y="-160.3" font-family="Times,serif" font-size="14.00">#14 LabelNode</text>
</g>
<!-- node12&#45;&gt;node14 -->
<g id="edge20" class="edge">
<title>node12&#45;&gt;node14</title>
<path fill="none" stroke="red" d="M193.4,-218.99C179.87,-209.67 162.91,-197.97 148.23,-187.86"/>
<polygon fill="red" stroke="red" points="150.12,-184.91 139.9,-182.11 146.15,-190.67 150.12,-184.91"/>
</g>
<!-- node16 -->
<g id="node15" class="node">
<title>node16</title>
<polygon fill="lightgrey" stroke="black" points="165.57,-36 64.57,-36 64.57,0 165.57,0 165.57,-36"/>
<text text-anchor="middle" x="115.07" y="-14.3" font-family="Times,serif" font-size="14.00">#16 Return</text>
</g>
<!-- node12&#45;&gt;node16 -->
<g id="edge23" class="edge">
<title>node12&#45;&gt;node16</title>
<path fill="none" stroke="green" d="M303.44,-232.6C387.44,-225.82 497.53,-205.68 456.07,-146 392.78,-54.88 255.85,-29.01 176.1,-21.75"/>
<polygon fill="green" stroke="green" points="175.97,-18.23 165.72,-20.88 175.39,-25.2 175.97,-18.23"/>
</g>
<!-- node15 -->
<g id="node14" class="node">
<title>node15</title>
<polygon fill="lightgrey" stroke="black" points="179.07,-109 51.07,-109 51.07,-73 179.07,-73 179.07,-109"/>
<text text-anchor="middle" x="115.07" y="-87.3" font-family="Times,serif" font-size="14.00">#15 LabelNode</text>
</g>
<!-- node14&#45;&gt;node15 -->
<g id="edge21" class="edge">
<title>node14&#45;&gt;node15</title>
<path fill="none" stroke="red" d="M115.07,-145.81C115.07,-137.79 115.07,-128.05 115.07,-119.07"/>
<polygon fill="red" stroke="red" points="118.57,-119.03 115.07,-109.03 111.57,-119.03 118.57,-119.03"/>
</g>
<!-- node15&#45;&gt;node16 -->
<g id="edge22" class="edge">
<title>node15&#45;&gt;node16</title>
<path fill="none" stroke="red" d="M115.07,-72.81C115.07,-64.79 115.07,-55.05 115.07,-46.07"/>
<polygon fill="red" stroke="red" points="118.57,-46.03 115.07,-36.03 111.57,-46.03 118.57,-46.03"/>
</g>
<!-- c0 -->
<!-- c1 -->
<!-- c0&#45;&gt;c1 -->
<g id="edge25" class="edge">
<title>c0&#45;&gt;c1</title>
<path fill="none" stroke="red" d="M1210.96,-757C1222.18,-757 1280.31,-757 1305.93,-757"/>
<polygon fill="red" stroke="red" points="1306.13,-760.5 1316.13,-757 1306.13,-753.5 1306.13,-760.5"/>
<text text-anchor="middle" x="1263.57" y="-763.8" font-family="Times,serif" font-size="14.00">Control flow</text>
</g>
<!-- c2 -->
<!-- c3 -->
<!-- c2&#45;&gt;c3 -->
<g id="edge26" class="edge">
<title>c2&#45;&gt;c3</title>
<path fill="none" stroke="red" stroke-dasharray="5,2" d="M1004.15,-757C1021.12,-757 1137.28,-757 1175.16,-757"/>
<polygon fill="red" stroke="red" points="1175.24,-760.5 1185.24,-757 1175.24,-753.5 1175.24,-760.5"/>
<text text-anchor="middle" x="1094.57" y="-763.8" font-family="Times,serif" font-size="14.00">Control flow back edge</text>
</g>
<!-- d0 -->
<!-- d1 -->
<!-- d0&#45;&gt;d1 -->
<g id="edge27" class="edge">
<title>d0&#45;&gt;d1</title>
<path fill="none" stroke="black" d="M892.93,-757C902.48,-757 946.38,-757 967.99,-757"/>
<polygon fill="black" stroke="black" points="968.22,-760.5 978.22,-757 968.22,-753.5 968.22,-760.5"/>
<text text-anchor="middle" x="935.57" y="-763.8" font-family="Times,serif" font-size="14.00">Data flow</text>
</g>
<!-- d2 -->
<!-- d3 -->
<!-- d2&#45;&gt;d3 -->
<g id="edge28" class="edge">
<title>d2&#45;&gt;d3</title>
<path fill="none" stroke="black" stroke-dasharray="1,5" d="M766.88,-757C777.53,-757 832.54,-757 857.15,-757"/>
<polygon fill="black" stroke="black" points="857.22,-760.5 867.22,-757 857.22,-753.5 857.22,-760.5"/>
<text text-anchor="middle" x="817.07" y="-763.8" font-family="Times,serif" font-size="14.00">Declaration</text>
</g>
<!-- d4 -->
<!-- d5 -->
<!-- d4&#45;&gt;d5 -->
<g id="edge29" class="edge">
<title>d4&#45;&gt;d5</title>
<path fill="none" stroke="blue" d="M624.17,-757C636.79,-757 702.95,-757 730.75,-757"/>
<polygon fill="blue" stroke="blue" points="730.91,-760.5 740.91,-757 730.91,-753.5 730.91,-760.5"/>
<text text-anchor="middle" x="682.57" y="-763.8" font-family="Times,serif" font-size="14.00">PHI Data flow</text>
</g>
<!-- d6 -->
<!-- d7 -->
<!-- d6&#45;&gt;d7 -->
<g id="edge30" class="edge">
<title>d6&#45;&gt;d7</title>
<path fill="none" stroke="green" d="M487.07,-757C499.01,-757 561.37,-757 588,-757"/>
<polygon fill="green" stroke="green" points="588.02,-760.5 598.02,-757 588.02,-753.5 588.02,-760.5"/>
<text text-anchor="middle" x="542.57" y="-763.8" font-family="Times,serif" font-size="14.00">Memory flow</text>
</g>
</g>
</svg>
