<?xml version="1.0" encoding="UTF-8" standalone="no"?>
<!DOCTYPE svg PUBLIC "-//W3C//DTD SVG 1.1//EN"
 "http://www.w3.org/Graphics/SVG/1.1/DTD/svg11.dtd">
<!-- Generated by graphviz version 2.43.0 (0)
 -->
<!-- Title: %3 Pages: 1 -->
<svg width="1427pt" height="806pt"
 viewBox="0.00 0.00 1427.16 805.80" xmlns="http://www.w3.org/2000/svg" xmlns:xlink="http://www.w3.org/1999/xlink">
<g id="graph0" class="graph" transform="scale(1 1) rotate(0) translate(4 801.8)">
<title>%3</title>
<polygon fill="white" stroke="transparent" points="-4,4 -4,-801.8 1423.16,-801.8 1423.16,4 -4,4"/>
<g id="clust1" class="cluster">
<title>cluster_0</title>
<polygon fill="none" stroke="lightgray" points="130.16,-284 130.16,-409 330.16,-409 330.16,-284 130.16,-284"/>
</g>
<g id="clust2" class="cluster">
<title>cluster_1</title>
<polygon fill="none" stroke="lightgray" points="419.16,-576 419.16,-701 555.16,-701 555.16,-576 419.16,-576"/>
</g>
<g id="clust3" class="cluster">
<title>cluster_2</title>
<polygon fill="none" stroke="lightgray" points="131.16,-503 131.16,-628 389.16,-628 389.16,-503 131.16,-503"/>
</g>
<g id="clust4" class="cluster">
<title>cluster_000</title>
<polygon fill="none" stroke="black" points="558.16,-747.2 558.16,-789.8 1411.16,-789.8 1411.16,-747.2 558.16,-747.2"/>
<text text-anchor="middle" x="984.66" y="-774.6" font-family="Times,serif" font-size="14.00">Legend</text>
</g>
<!-- node0 -->
<g id="node1" class="node">
<title>node0</title>
<polygon fill="lightgrey" stroke="transparent" points="548.66,-784 425.66,-784 425.66,-730 548.66,-730 548.66,-784"/>
<polygon fill="none" stroke="black" points="426.16,-757 426.16,-784 549.16,-784 549.16,-757 426.16,-757"/>
<text text-anchor="start" x="447.16" y="-766.8" font-family="Times,serif" font-size="14.00">#0 Method</text>
<polygon fill="yellow" stroke="transparent" points="426.16,-730 426.16,-757 549.16,-757 549.16,-730 426.16,-730"/>
<polygon fill="none" stroke="black" points="426.16,-730 426.16,-757 549.16,-757 549.16,-730 426.16,-730"/>
<text text-anchor="start" x="432.16" y="-739.8" font-family="Times,serif" font-size="14.00">this : ArrayTest</text>
</g>
<!-- node2 -->
<g id="node2" class="node">
<title>node2</title>
<polygon fill="lightgrey" stroke="black" points="546.66,-693 427.66,-693 427.66,-657 546.66,-657 546.66,-693"/>
<text text-anchor="middle" x="487.16" y="-671.3" font-family="Times,serif" font-size="14.00">#2 LabelNode</text>
</g>
<!-- node0&#45;&gt;node2 -->
<g id="edge1" class="edge">
<title>node0&#45;&gt;node2</title>
<path fill="none" stroke="red" d="M487.16,-729.81C487.16,-721.35 487.16,-711.95 487.16,-703.4"/>
<polygon fill="red" stroke="red" points="490.66,-703.17 487.16,-693.17 483.66,-703.17 490.66,-703.17"/>
</g>
<!-- node5 -->
<g id="node7" class="node">
<title>node5</title>
<polygon fill="orange" stroke="black" points="659.85,-448.54 659.85,-463.46 589.73,-474 490.58,-474 420.47,-463.46 420.47,-448.54 490.58,-438 589.73,-438 659.85,-448.54"/>
<text text-anchor="middle" x="540.16" y="-452.3" font-family="Times,serif" font-size="14.00">#5 NewArray : byte[]</text>
</g>
<!-- node0&#45;&gt;node5 -->
<g id="edge11" class="edge">
<title>node0&#45;&gt;node5</title>
<path fill="none" stroke="green" d="M534.55,-729.75C544.46,-721.88 553.58,-712.28 559.16,-701 594.78,-628.97 567.4,-530.2 550.66,-483.51"/>
<polygon fill="green" stroke="green" points="553.94,-482.26 547.18,-474.1 547.37,-484.7 553.94,-482.26"/>
</g>
<!-- node3 -->
<g id="node3" class="node">
<title>node3</title>
<polygon fill="lightgrey" stroke="black" points="258.66,-620 139.66,-620 139.66,-584 258.66,-584 258.66,-620"/>
<text text-anchor="middle" x="199.16" y="-598.3" font-family="Times,serif" font-size="14.00">#3 LabelNode</text>
</g>
<!-- node2&#45;&gt;node3 -->
<g id="edge2" class="edge">
<title>node2&#45;&gt;node3</title>
<path fill="none" stroke="red" d="M427.48,-659.29C381.24,-647.89 317.09,-632.07 268.55,-620.11"/>
<polygon fill="red" stroke="red" points="269.3,-616.69 258.76,-617.69 267.63,-623.48 269.3,-616.69"/>
</g>
<!-- node4 -->
<g id="node9" class="node">
<title>node4</title>
<polygon fill="lightgreen" stroke="black" points="546.35,-594.54 546.35,-609.46 511.67,-620 462.64,-620 427.97,-609.46 427.97,-594.54 462.64,-584 511.67,-584 546.35,-594.54"/>
<text text-anchor="middle" x="487.16" y="-598.3" font-family="Times,serif" font-size="14.00">#4 int 10</text>
</g>
<!-- node2&#45;&gt;node4 -->
<g id="edge12" class="edge">
<title>node2&#45;&gt;node4</title>
<path fill="none" stroke="black" stroke-dasharray="1,5" d="M487.16,-656.81C487.16,-648.79 487.16,-639.05 487.16,-630.07"/>
<polygon fill="black" stroke="black" points="490.66,-630.03 487.16,-620.03 483.66,-630.03 490.66,-630.03"/>
</g>
<!-- node7 -->
<g id="node4" class="node">
<title>node7</title>
<polygon fill="lightgreen" stroke="black" points="381.35,-521.54 381.35,-536.46 346.67,-547 297.64,-547 262.97,-536.46 262.97,-521.54 297.64,-511 346.67,-511 381.35,-521.54"/>
<text text-anchor="middle" x="322.16" y="-525.3" font-family="Times,serif" font-size="14.00">#7 int 10</text>
</g>
<!-- node3&#45;&gt;node7 -->
<g id="edge3" class="edge">
<title>node3&#45;&gt;node7</title>
<path fill="none" stroke="black" stroke-dasharray="1,5" d="M228.62,-583.99C245.57,-574.21 267.01,-561.83 285.1,-551.39"/>
<polygon fill="black" stroke="black" points="287.29,-554.17 294.2,-546.14 283.79,-548.1 287.29,-554.17"/>
</g>
<!-- node10 -->
<g id="node6" class="node">
<title>node10</title>
<polygon fill="lightgrey" stroke="black" points="322.66,-401 137.66,-401 137.66,-365 322.66,-365 322.66,-401"/>
<text text-anchor="middle" x="230.16" y="-379.3" font-family="Times,serif" font-size="14.00">#10 ArrayStore : byte[]</text>
</g>
<!-- node3&#45;&gt;node10 -->
<g id="edge9" class="edge">
<title>node3&#45;&gt;node10</title>
<path fill="none" stroke="red" d="M166.03,-583.98C152.27,-575 137.75,-562.59 130.16,-547 121.59,-529.42 124.52,-521.73 130.16,-503 141.94,-463.83 174.84,-429.32 199.71,-407.69"/>
<polygon fill="red" stroke="red" points="202.09,-410.26 207.46,-401.13 197.57,-404.91 202.09,-410.26"/>
</g>
<!-- node6 -->
<g id="node8" class="node">
<title>node6</title>
<polygon fill="lightgreen" stroke="black" points="244.68,-521.54 244.68,-536.46 213.91,-547 170.4,-547 139.63,-536.46 139.63,-521.54 170.4,-511 213.91,-511 244.68,-521.54"/>
<text text-anchor="middle" x="192.16" y="-525.3" font-family="Times,serif" font-size="14.00">#6 int 0</text>
</g>
<!-- node3&#45;&gt;node6 -->
<g id="edge24" class="edge">
<title>node3&#45;&gt;node6</title>
<path fill="none" stroke="black" stroke-dasharray="1,5" d="M197.46,-583.81C196.67,-575.79 195.71,-566.05 194.83,-557.07"/>
<polygon fill="black" stroke="black" points="198.3,-556.64 193.84,-547.03 191.34,-557.32 198.3,-556.64"/>
</g>
<!-- node9 -->
<g id="node5" class="node">
<title>node9</title>
<polygon fill="orange" stroke="black" points="402.61,-448.54 402.61,-463.46 340.25,-474 252.06,-474 189.7,-463.46 189.7,-448.54 252.06,-438 340.25,-438 402.61,-448.54"/>
<text text-anchor="middle" x="296.16" y="-452.3" font-family="Times,serif" font-size="14.00">#9 Truncate : byte</text>
</g>
<!-- node7&#45;&gt;node9 -->
<g id="edge4" class="edge">
<title>node7&#45;&gt;node9</title>
<path fill="none" stroke="black" d="M315.86,-510.81C312.86,-502.62 309.2,-492.62 305.86,-483.48"/>
<polygon fill="black" stroke="black" points="309.12,-482.22 302.39,-474.03 302.55,-484.62 309.12,-482.22"/>
<text text-anchor="middle" x="316.56" y="-484.44" font-family="Times,serif" font-size="14.00">*0</text>
</g>
<!-- node9&#45;&gt;node10 -->
<g id="edge7" class="edge">
<title>node9&#45;&gt;node10</title>
<path fill="none" stroke="black" d="M280.18,-437.81C271.99,-429 261.88,-418.13 252.89,-408.46"/>
<polygon fill="black" stroke="black" points="255.36,-405.97 245.99,-401.03 250.23,-410.74 255.36,-405.97"/>
<text text-anchor="middle" x="264.52" y="-404.85" font-family="Times,serif" font-size="14.00">*2</text>
</g>
<!-- node12 -->
<g id="node11" class="node">
<title>node12</title>
<polygon fill="lightgrey" stroke="black" points="285.16,-255 115.16,-255 115.16,-219 285.16,-219 285.16,-255"/>
<text text-anchor="middle" x="200.16" y="-233.3" font-family="Times,serif" font-size="14.00">#12 ArrayLoad : byte</text>
</g>
<!-- node10&#45;&gt;node12 -->
<g id="edge16" class="edge">
<title>node10&#45;&gt;node12</title>
<path fill="none" stroke="green" d="M207.41,-364.81C198.69,-354.79 190.15,-341.5 186.16,-328 180.08,-307.46 181.93,-283.15 186.35,-264.98"/>
<polygon fill="green" stroke="green" points="189.73,-265.9 189.12,-255.32 183,-263.97 189.73,-265.9"/>
</g>
<!-- node10&#45;&gt;node12 -->
<g id="edge17" class="edge">
<title>node10&#45;&gt;node12</title>
<path fill="none" stroke="red" d="M223.26,-364.81C216.69,-354.79 208.15,-341.5 204.16,-328 198.14,-307.65 199.9,-283.6 201.55,-265.49"/>
<polygon fill="red" stroke="red" points="205.06,-265.59 202.47,-255.32 198.08,-264.96 205.06,-265.59"/>
</g>
<!-- node11 -->
<g id="node12" class="node">
<title>node11</title>
<polygon fill="lightgreen" stroke="black" points="322.35,-302.54 322.35,-317.46 287.67,-328 238.64,-328 203.97,-317.46 203.97,-302.54 238.64,-292 287.67,-292 322.35,-302.54"/>
<text text-anchor="middle" x="263.16" y="-306.3" font-family="Times,serif" font-size="14.00">#11 int 1</text>
</g>
<!-- node10&#45;&gt;node11 -->
<g id="edge18" class="edge">
<title>node10&#45;&gt;node11</title>
<path fill="none" stroke="black" stroke-dasharray="1,5" d="M238.15,-364.81C242,-356.53 246.7,-346.41 250.98,-337.19"/>
<polygon fill="black" stroke="black" points="254.2,-338.57 255.24,-328.03 247.85,-335.62 254.2,-338.57"/>
</g>
<!-- node5&#45;&gt;node10 -->
<g id="edge5" class="edge">
<title>node5&#45;&gt;node10</title>
<path fill="none" stroke="black" d="M468.32,-441.34C425.63,-432.4 370.64,-420.33 322.16,-409 314.61,-407.24 306.76,-405.36 298.96,-403.46"/>
<polygon fill="black" stroke="black" points="299.68,-400.04 289.13,-401.05 298.01,-406.83 299.68,-400.04"/>
<text text-anchor="middle" x="308.75" y="-393.46" font-family="Times,serif" font-size="14.00">*0</text>
</g>
<!-- node5&#45;&gt;node10 -->
<g id="edge8" class="edge">
<title>node5&#45;&gt;node10</title>
<path fill="none" stroke="green" d="M477.33,-439.91C437.9,-431.15 386.1,-419.74 340.16,-409 332.53,-407.22 324.59,-405.32 316.61,-403.4"/>
<polygon fill="green" stroke="green" points="317.43,-400 306.89,-401.05 315.79,-406.8 317.43,-400"/>
</g>
<!-- node8 -->
<g id="node10" class="node">
<title>node8</title>
<polygon fill="orange" stroke="black" points="525.88,-375.54 525.88,-390.46 471.57,-401 394.75,-401 340.44,-390.46 340.44,-375.54 394.75,-365 471.57,-365 525.88,-375.54"/>
<text text-anchor="middle" x="433.16" y="-379.3" font-family="Times,serif" font-size="14.00">#8 ArrayLength</text>
</g>
<!-- node5&#45;&gt;node8 -->
<g id="edge13" class="edge">
<title>node5&#45;&gt;node8</title>
<path fill="none" stroke="black" d="M514.53,-437.99C500.47,-428.67 482.85,-416.97 467.61,-406.86"/>
<polygon fill="black" stroke="black" points="469.22,-403.73 458.95,-401.11 465.35,-409.56 469.22,-403.73"/>
<text text-anchor="middle" x="478.73" y="-400.39" font-family="Times,serif" font-size="14.00">*0</text>
</g>
<!-- node5&#45;&gt;node12 -->
<g id="edge14" class="edge">
<title>node5&#45;&gt;node12</title>
<path fill="none" stroke="black" d="M544.22,-437.98C547.84,-418.45 550.47,-386.37 535.16,-365 480.56,-288.78 374.12,-258.29 295.81,-246.1"/>
<polygon fill="black" stroke="black" points="295.85,-242.57 285.44,-244.57 294.82,-249.49 295.85,-242.57"/>
<text text-anchor="middle" x="304.61" y="-235.16" font-family="Times,serif" font-size="14.00">*0</text>
</g>
<!-- node6&#45;&gt;node10 -->
<g id="edge6" class="edge">
<title>node6&#45;&gt;node10</title>
<path fill="none" stroke="black" d="M185.31,-510.81C178.99,-492.25 171.86,-462.08 181.16,-438 185.46,-426.86 193.25,-416.59 201.37,-408.07"/>
<polygon fill="black" stroke="black" points="203.83,-410.56 208.51,-401.05 198.92,-405.57 203.83,-410.56"/>
<text text-anchor="middle" x="201.5" y="-416.09" font-family="Times,serif" font-size="14.00">*1</text>
</g>
<!-- node4&#45;&gt;node5 -->
<g id="edge10" class="edge">
<title>node4&#45;&gt;node5</title>
<path fill="none" stroke="black" d="M489.58,-583.72C493.12,-561.65 500.89,-522.64 515.16,-492 516.65,-488.79 518.45,-485.57 520.39,-482.45"/>
<polygon fill="black" stroke="black" points="523.39,-484.26 526.09,-474.02 517.59,-480.34 523.39,-484.26"/>
<text text-anchor="middle" x="522.94" y="-490.07" font-family="Times,serif" font-size="14.00">*0</text>
</g>
<!-- node16 -->
<g id="node13" class="node">
<title>node16</title>
<polygon fill="lightgrey" stroke="black" points="399.66,-36 298.66,-36 298.66,0 399.66,0 399.66,-36"/>
<text text-anchor="middle" x="349.16" y="-14.3" font-family="Times,serif" font-size="14.00">#16 Return</text>
</g>
<!-- node12&#45;&gt;node16 -->
<g id="edge20" class="edge">
<title>node12&#45;&gt;node16</title>
<path fill="none" stroke="green" d="M115.04,-226.26C49.91,-215.07 -23.77,-191.96 8.16,-146 71.45,-54.88 208.38,-29.01 288.13,-21.75"/>
<polygon fill="green" stroke="green" points="288.84,-25.2 298.51,-20.88 288.26,-18.23 288.84,-25.2"/>
</g>
<!-- node14 -->
<g id="node15" class="node">
<title>node14</title>
<polygon fill="lightgrey" stroke="black" points="413.16,-182 285.16,-182 285.16,-146 413.16,-146 413.16,-182"/>
<text text-anchor="middle" x="349.16" y="-160.3" font-family="Times,serif" font-size="14.00">#14 LabelNode</text>
</g>
<!-- node12&#45;&gt;node14 -->
<g id="edge22" class="edge">
<title>node12&#45;&gt;node14</title>
<path fill="none" stroke="red" d="M235.85,-218.99C256.34,-209.23 282.26,-196.88 304.14,-186.45"/>
<polygon fill="red" stroke="red" points="305.72,-189.57 313.24,-182.11 302.71,-183.26 305.72,-189.57"/>
</g>
<!-- node13 -->
<g id="node16" class="node">
<title>node13</title>
<polygon fill="orange" stroke="black" points="267.6,-156.54 267.6,-171.46 194.12,-182 90.2,-182 16.71,-171.46 16.71,-156.54 90.2,-146 194.12,-146 267.6,-156.54"/>
<text text-anchor="middle" x="142.16" y="-160.3" font-family="Times,serif" font-size="14.00">#13 Extend : SIGN int</text>
</g>
<!-- node12&#45;&gt;node13 -->
<g id="edge23" class="edge">
<title>node12&#45;&gt;node13</title>
<path fill="none" stroke="black" d="M186.12,-218.81C179.07,-210.18 170.39,-199.56 162.61,-190.03"/>
<polygon fill="black" stroke="black" points="165.11,-187.56 156.07,-182.03 159.69,-191.99 165.11,-187.56"/>
<text text-anchor="middle" x="174.08" y="-187.02" font-family="Times,serif" font-size="14.00">*0</text>
</g>
<!-- node11&#45;&gt;node12 -->
<g id="edge15" class="edge">
<title>node11&#45;&gt;node12</title>
<path fill="none" stroke="black" d="M247.91,-291.81C240.17,-283.09 230.63,-272.34 222.12,-262.75"/>
<polygon fill="black" stroke="black" points="224.52,-260.19 215.27,-255.03 219.29,-264.83 224.52,-260.19"/>
<text text-anchor="middle" x="233.62" y="-259.28" font-family="Times,serif" font-size="14.00">*1</text>
</g>
<!-- node15 -->
<g id="node14" class="node">
<title>node15</title>
<polygon fill="lightgrey" stroke="black" points="413.16,-109 285.16,-109 285.16,-73 413.16,-73 413.16,-109"/>
<text text-anchor="middle" x="349.16" y="-87.3" font-family="Times,serif" font-size="14.00">#15 LabelNode</text>
</g>
<!-- node15&#45;&gt;node16 -->
<g id="edge19" class="edge">
<title>node15&#45;&gt;node16</title>
<path fill="none" stroke="red" d="M349.16,-72.81C349.16,-64.79 349.16,-55.05 349.16,-46.07"/>
<polygon fill="red" stroke="red" points="352.66,-46.03 349.16,-36.03 345.66,-46.03 352.66,-46.03"/>
</g>
<!-- node14&#45;&gt;node15 -->
<g id="edge21" class="edge">
<title>node14&#45;&gt;node15</title>
<path fill="none" stroke="red" d="M349.16,-145.81C349.16,-137.79 349.16,-128.05 349.16,-119.07"/>
<polygon fill="red" stroke="red" points="352.66,-119.03 349.16,-109.03 345.66,-119.03 352.66,-119.03"/>
</g>
<!-- c0 -->
<!-- c1 -->
<!-- c0&#45;&gt;c1 -->
<g id="edge25" class="edge">
<title>c0&#45;&gt;c1</title>
<path fill="none" stroke="red" d="M1294.05,-757C1305.26,-757 1363.4,-757 1389.02,-757"/>
<polygon fill="red" stroke="red" points="1389.21,-760.5 1399.21,-757 1389.21,-753.5 1389.21,-760.5"/>
<text text-anchor="middle" x="1346.66" y="-763.8" font-family="Times,serif" font-size="14.00">Control flow</text>
</g>
<!-- c2 -->
<!-- c3 -->
<!-- c2&#45;&gt;c3 -->
<g id="edge26" class="edge">
<title>c2&#45;&gt;c3</title>
<path fill="none" stroke="red" stroke-dasharray="5,2" d="M1087.24,-757C1104.21,-757 1220.36,-757 1258.24,-757"/>
<polygon fill="red" stroke="red" points="1258.33,-760.5 1268.33,-757 1258.33,-753.5 1258.33,-760.5"/>
<text text-anchor="middle" x="1177.66" y="-763.8" font-family="Times,serif" font-size="14.00">Control flow back edge</text>
</g>
<!-- d0 -->
<!-- d1 -->
<!-- d0&#45;&gt;d1 -->
<g id="edge27" class="edge">
<title>d0&#45;&gt;d1</title>
<path fill="none" stroke="black" d="M976.02,-757C985.56,-757 1029.47,-757 1051.08,-757"/>
<polygon fill="black" stroke="black" points="1051.31,-760.5 1061.31,-757 1051.31,-753.5 1051.31,-760.5"/>
<text text-anchor="middle" x="1018.66" y="-763.8" font-family="Times,serif" font-size="14.00">Data flow</text>
</g>
<!-- d2 -->
<!-- d3 -->
<!-- d2&#45;&gt;d3 -->
<g id="edge28" class="edge">
<title>d2&#45;&gt;d3</title>
<path fill="none" stroke="black" stroke-dasharray="1,5" d="M849.96,-757C860.61,-757 915.62,-757 940.23,-757"/>
<polygon fill="black" stroke="black" points="940.3,-760.5 950.3,-757 940.3,-753.5 940.3,-760.5"/>
<text text-anchor="middle" x="900.16" y="-763.8" font-family="Times,serif" font-size="14.00">Declaration</text>
</g>
<!-- d4 -->
<!-- d5 -->
<!-- d4&#45;&gt;d5 -->
<g id="edge29" class="edge">
<title>d4&#45;&gt;d5</title>
<path fill="none" stroke="blue" d="M707.26,-757C719.88,-757 786.04,-757 813.84,-757"/>
<polygon fill="blue" stroke="blue" points="814,-760.5 824,-757 814,-753.5 814,-760.5"/>
<text text-anchor="middle" x="765.66" y="-763.8" font-family="Times,serif" font-size="14.00">PHI Data flow</text>
</g>
<!-- d6 -->
<!-- d7 -->
<!-- d6&#45;&gt;d7 -->
<g id="edge30" class="edge">
<title>d6&#45;&gt;d7</title>
<path fill="none" stroke="green" d="M570.15,-757C582.1,-757 644.46,-757 671.09,-757"/>
<polygon fill="green" stroke="green" points="671.11,-760.5 681.11,-757 671.11,-753.5 671.11,-760.5"/>
<text text-anchor="middle" x="625.66" y="-763.8" font-family="Times,serif" font-size="14.00">Memory flow</text>
</g>
</g>
</svg>
