<?xml version="1.0" encoding="UTF-8" standalone="no"?>
<!DOCTYPE svg PUBLIC "-//W3C//DTD SVG 1.1//EN"
 "http://www.w3.org/Graphics/SVG/1.1/DTD/svg11.dtd">
<!-- Generated by graphviz version 2.43.0 (0)
 -->
<!-- Title: %3 Pages: 1 -->
<svg width="1356pt" height="806pt"
 viewBox="0.00 0.00 1356.41 805.80" xmlns="http://www.w3.org/2000/svg" xmlns:xlink="http://www.w3.org/1999/xlink">
<g id="graph0" class="graph" transform="scale(1 1) rotate(0) translate(4 801.8)">
<title>%3</title>
<polygon fill="white" stroke="transparent" points="-4,4 -4,-801.8 1352.41,-801.8 1352.41,4 -4,4"/>
<g id="clust1" class="cluster">
<title>cluster_0</title>
<polygon fill="none" stroke="lightgray" points="348.41,-576 348.41,-701 484.41,-701 484.41,-576 348.41,-576"/>
</g>
<g id="clust2" class="cluster">
<title>cluster_1</title>
<polygon fill="none" stroke="lightgray" points="147.41,-284 147.41,-409 347.41,-409 347.41,-284 147.41,-284"/>
</g>
<g id="clust3" class="cluster">
<title>cluster_2</title>
<polygon fill="none" stroke="lightgray" points="54.41,-503 54.41,-628 312.41,-628 312.41,-503 54.41,-503"/>
</g>
<g id="clust4" class="cluster">
<title>cluster_000</title>
<polygon fill="none" stroke="black" points="487.41,-747.2 487.41,-789.8 1340.41,-789.8 1340.41,-747.2 487.41,-747.2"/>
<text text-anchor="middle" x="913.91" y="-774.6" font-family="Times,serif" font-size="14.00">Legend</text>
</g>
<!-- node0 -->
<g id="node1" class="node">
<title>node0</title>
<polygon fill="lightgrey" stroke="transparent" points="477.91,-784 354.91,-784 354.91,-730 477.91,-730 477.91,-784"/>
<polygon fill="none" stroke="black" points="355.41,-757 355.41,-784 478.41,-784 478.41,-757 355.41,-757"/>
<text text-anchor="start" x="376.41" y="-766.8" font-family="Times,serif" font-size="14.00">#0 Method</text>
<polygon fill="yellow" stroke="transparent" points="355.41,-730 355.41,-757 478.41,-757 478.41,-730 355.41,-730"/>
<polygon fill="none" stroke="black" points="355.41,-730 355.41,-757 478.41,-757 478.41,-730 355.41,-730"/>
<text text-anchor="start" x="361.41" y="-739.8" font-family="Times,serif" font-size="14.00">this : ArrayTest</text>
</g>
<!-- node5 -->
<g id="node2" class="node">
<title>node5</title>
<polygon fill="orange" stroke="black" points="535.1,-448.54 535.1,-463.46 464.99,-474 365.83,-474 295.72,-463.46 295.72,-448.54 365.83,-438 464.99,-438 535.1,-448.54"/>
<text text-anchor="middle" x="415.41" y="-452.3" font-family="Times,serif" font-size="14.00">#5 NewArray : byte[]</text>
</g>
<!-- node0&#45;&gt;node5 -->
<g id="edge2" class="edge">
<title>node0&#45;&gt;node5</title>
<path fill="none" stroke="green" d="M369.02,-729.75C359.11,-721.88 349.99,-712.28 344.41,-701 319.79,-651.2 329.65,-629.56 344.41,-576 354.16,-540.63 377.49,-505.17 394.76,-482.27"/>
<polygon fill="green" stroke="green" points="397.7,-484.2 401.05,-474.14 392.16,-479.92 397.7,-484.2"/>
</g>
<!-- node2 -->
<g id="node4" class="node">
<title>node2</title>
<polygon fill="lightgrey" stroke="black" points="475.91,-693 356.91,-693 356.91,-657 475.91,-657 475.91,-693"/>
<text text-anchor="middle" x="416.41" y="-671.3" font-family="Times,serif" font-size="14.00">#2 LabelNode</text>
</g>
<!-- node0&#45;&gt;node2 -->
<g id="edge4" class="edge">
<title>node0&#45;&gt;node2</title>
<path fill="none" stroke="red" d="M416.41,-729.81C416.41,-721.35 416.41,-711.95 416.41,-703.4"/>
<polygon fill="red" stroke="red" points="419.91,-703.17 416.41,-693.17 412.91,-703.17 419.91,-703.17"/>
</g>
<!-- node10 -->
<g id="node7" class="node">
<title>node10</title>
<polygon fill="lightgrey" stroke="black" points="339.91,-401 154.91,-401 154.91,-365 339.91,-365 339.91,-401"/>
<text text-anchor="middle" x="247.41" y="-379.3" font-family="Times,serif" font-size="14.00">#10 ArrayStore : byte[]</text>
</g>
<!-- node5&#45;&gt;node10 -->
<g id="edge7" class="edge">
<title>node5&#45;&gt;node10</title>
<path fill="none" stroke="black" d="M369.31,-437.99C344.96,-428.14 315.28,-415.66 291.27,-405.17"/>
<polygon fill="black" stroke="black" points="292.6,-401.93 282.03,-401.11 289.78,-408.34 292.6,-401.93"/>
<text text-anchor="middle" x="302.03" y="-396.97" font-family="Times,serif" font-size="14.00">*0</text>
</g>
<!-- node5&#45;&gt;node10 -->
<g id="edge10" class="edge">
<title>node5&#45;&gt;node10</title>
<path fill="none" stroke="green" d="M381.03,-437.99C358.57,-428.06 328.82,-415.43 303.06,-404.89"/>
<polygon fill="green" stroke="green" points="304.36,-401.64 293.78,-401.11 301.72,-408.13 304.36,-401.64"/>
</g>
<!-- node12 -->
<g id="node10" class="node">
<title>node12</title>
<polygon fill="lightgrey" stroke="black" points="332.41,-255 162.41,-255 162.41,-219 332.41,-219 332.41,-255"/>
<text text-anchor="middle" x="247.41" y="-233.3" font-family="Times,serif" font-size="14.00">#12 ArrayLoad : byte</text>
</g>
<!-- node5&#45;&gt;node12 -->
<g id="edge14" class="edge">
<title>node5&#45;&gt;node12</title>
<path fill="none" stroke="black" d="M402.86,-437.76C397.22,-429.39 390.85,-419.01 386.41,-409 363,-356.27 389.18,-327.61 351.41,-284 342.61,-273.83 331.12,-265.82 319.01,-259.53"/>
<polygon fill="black" stroke="black" points="320.18,-256.21 309.65,-255.05 317.16,-262.53 320.18,-256.21"/>
<text text-anchor="middle" x="329.65" y="-251.56" font-family="Times,serif" font-size="14.00">*0</text>
</g>
<!-- node8 -->
<g id="node16" class="node">
<title>node8</title>
<polygon fill="orange" stroke="black" points="581.13,-375.54 581.13,-390.46 526.82,-401 450,-401 395.69,-390.46 395.69,-375.54 450,-365 526.82,-365 581.13,-375.54"/>
<text text-anchor="middle" x="488.41" y="-379.3" font-family="Times,serif" font-size="14.00">#8 ArrayLength</text>
</g>
<!-- node5&#45;&gt;node8 -->
<g id="edge24" class="edge">
<title>node5&#45;&gt;node8</title>
<path fill="none" stroke="black" d="M433.08,-437.81C442.23,-428.92 453.55,-417.91 463.56,-408.17"/>
<polygon fill="black" stroke="black" points="466.17,-410.51 470.9,-401.03 461.29,-405.49 466.17,-410.51"/>
<text text-anchor="middle" x="463.8" y="-416.03" font-family="Times,serif" font-size="14.00">*0</text>
</g>
<!-- node4 -->
<g id="node3" class="node">
<title>node4</title>
<polygon fill="lightgreen" stroke="black" points="476.6,-594.54 476.6,-609.46 441.93,-620 392.89,-620 358.22,-609.46 358.22,-594.54 392.89,-584 441.93,-584 476.6,-594.54"/>
<text text-anchor="middle" x="417.41" y="-598.3" font-family="Times,serif" font-size="14.00">#4 int 10</text>
</g>
<!-- node4&#45;&gt;node5 -->
<g id="edge1" class="edge">
<title>node4&#45;&gt;node5</title>
<path fill="none" stroke="black" d="M417.17,-583.92C416.83,-559.34 416.2,-513.75 415.79,-484.43"/>
<polygon fill="black" stroke="black" points="419.29,-484.01 415.65,-474.06 412.29,-484.11 419.29,-484.01"/>
<text text-anchor="middle" x="424.35" y="-488.37" font-family="Times,serif" font-size="14.00">*0</text>
</g>
<!-- node2&#45;&gt;node4 -->
<g id="edge3" class="edge">
<title>node2&#45;&gt;node4</title>
<path fill="none" stroke="black" stroke-dasharray="1,5" d="M416.65,-656.81C416.77,-648.79 416.9,-639.05 417.03,-630.07"/>
<polygon fill="black" stroke="black" points="420.53,-630.08 417.17,-620.03 413.53,-629.98 420.53,-630.08"/>
</g>
<!-- node3 -->
<g id="node5" class="node">
<title>node3</title>
<polygon fill="lightgrey" stroke="black" points="184.91,-620 65.91,-620 65.91,-584 184.91,-584 184.91,-620"/>
<text text-anchor="middle" x="125.41" y="-598.3" font-family="Times,serif" font-size="14.00">#3 LabelNode</text>
</g>
<!-- node2&#45;&gt;node3 -->
<g id="edge5" class="edge">
<title>node2&#45;&gt;node3</title>
<path fill="none" stroke="red" d="M356.82,-659.46C309.84,-648 244.24,-631.99 194.88,-619.95"/>
<polygon fill="red" stroke="red" points="195.47,-616.49 184.92,-617.52 193.81,-623.29 195.47,-616.49"/>
</g>
<!-- node7 -->
<g id="node6" class="node">
<title>node7</title>
<polygon fill="lightgreen" stroke="black" points="303.94,-521.54 303.94,-536.46 273.17,-547 229.65,-547 198.89,-536.46 198.89,-521.54 229.65,-511 273.17,-511 303.94,-521.54"/>
<text text-anchor="middle" x="251.41" y="-525.3" font-family="Times,serif" font-size="14.00">#7 int 0</text>
</g>
<!-- node3&#45;&gt;node7 -->
<g id="edge6" class="edge">
<title>node3&#45;&gt;node7</title>
<path fill="none" stroke="black" stroke-dasharray="1,5" d="M155.59,-583.99C173.49,-573.91 196.28,-561.07 215.15,-550.43"/>
<polygon fill="black" stroke="black" points="217.06,-553.37 224.06,-545.41 213.62,-547.27 217.06,-553.37"/>
</g>
<!-- node3&#45;&gt;node10 -->
<g id="edge11" class="edge">
<title>node3&#45;&gt;node10</title>
<path fill="none" stroke="red" d="M97.71,-583.84C52.25,-553.56 -29.27,-489.04 11.41,-438 28.46,-416.61 89.2,-403.01 144.79,-394.81"/>
<polygon fill="red" stroke="red" points="145.33,-398.26 154.73,-393.39 144.34,-391.33 145.33,-398.26"/>
</g>
<!-- node6 -->
<g id="node9" class="node">
<title>node6</title>
<polygon fill="lightgreen" stroke="black" points="180.6,-521.54 180.6,-536.46 145.93,-547 96.89,-547 62.22,-536.46 62.22,-521.54 96.89,-511 145.93,-511 180.6,-521.54"/>
<text text-anchor="middle" x="121.41" y="-525.3" font-family="Times,serif" font-size="14.00">#6 int 10</text>
</g>
<!-- node3&#45;&gt;node6 -->
<g id="edge13" class="edge">
<title>node3&#45;&gt;node6</title>
<path fill="none" stroke="black" stroke-dasharray="1,5" d="M124.44,-583.81C123.99,-575.79 123.44,-566.05 122.94,-557.07"/>
<polygon fill="black" stroke="black" points="126.43,-556.82 122.37,-547.03 119.44,-557.21 126.43,-556.82"/>
</g>
<!-- node7&#45;&gt;node10 -->
<g id="edge8" class="edge">
<title>node7&#45;&gt;node10</title>
<path fill="none" stroke="black" d="M250.94,-510.92C250.25,-486.34 248.99,-440.75 248.17,-411.43"/>
<polygon fill="black" stroke="black" points="251.66,-410.96 247.88,-401.06 244.66,-411.16 251.66,-410.96"/>
<text text-anchor="middle" x="256.84" y="-415.25" font-family="Times,serif" font-size="14.00">*1</text>
</g>
<!-- node10&#45;&gt;node12 -->
<g id="edge16" class="edge">
<title>node10&#45;&gt;node12</title>
<path fill="none" stroke="green" d="M224.66,-364.81C215.94,-354.79 207.4,-341.5 203.41,-328 197.87,-309.25 197.16,-302.53 203.41,-284 205.94,-276.51 210.22,-269.28 215.2,-262.85"/>
<polygon fill="green" stroke="green" points="217.93,-265.04 221.81,-255.18 212.63,-260.47 217.93,-265.04"/>
</g>
<!-- node10&#45;&gt;node12 -->
<g id="edge17" class="edge">
<title>node10&#45;&gt;node12</title>
<path fill="none" stroke="red" d="M240.52,-364.81C233.94,-354.79 225.4,-341.5 221.41,-328 215.87,-309.25 215.16,-302.53 221.41,-284 223.88,-276.68 228.03,-269.6 232.38,-263.28"/>
<polygon fill="red" stroke="red" points="235.23,-265.32 238.3,-255.18 229.57,-261.19 235.23,-265.32"/>
</g>
<!-- node11 -->
<g id="node11" class="node">
<title>node11</title>
<polygon fill="lightgreen" stroke="black" points="339.6,-302.54 339.6,-317.46 304.93,-328 255.89,-328 221.22,-317.46 221.22,-302.54 255.89,-292 304.93,-292 339.6,-302.54"/>
<text text-anchor="middle" x="280.41" y="-306.3" font-family="Times,serif" font-size="14.00">#11 int 1</text>
</g>
<!-- node10&#45;&gt;node11 -->
<g id="edge18" class="edge">
<title>node10&#45;&gt;node11</title>
<path fill="none" stroke="black" stroke-dasharray="1,5" d="M255.4,-364.81C259.25,-356.53 263.95,-346.41 268.24,-337.19"/>
<polygon fill="black" stroke="black" points="271.46,-338.57 272.5,-328.03 265.11,-335.62 271.46,-338.57"/>
</g>
<!-- node9 -->
<g id="node8" class="node">
<title>node9</title>
<polygon fill="orange" stroke="black" points="232.87,-448.54 232.87,-463.46 170.51,-474 82.32,-474 19.96,-463.46 19.96,-448.54 82.32,-438 170.51,-438 232.87,-448.54"/>
<text text-anchor="middle" x="126.41" y="-452.3" font-family="Times,serif" font-size="14.00">#9 Truncate : byte</text>
</g>
<!-- node9&#45;&gt;node10 -->
<g id="edge9" class="edge">
<title>node9&#45;&gt;node10</title>
<path fill="none" stroke="black" d="M155.39,-437.99C171.59,-428.49 191.96,-416.54 209.42,-406.29"/>
<polygon fill="black" stroke="black" points="211.39,-409.19 218.25,-401.11 207.85,-403.16 211.39,-409.19"/>
<text text-anchor="middle" x="206.89" y="-413.88" font-family="Times,serif" font-size="14.00">*2</text>
</g>
<!-- node6&#45;&gt;node9 -->
<g id="edge12" class="edge">
<title>node6&#45;&gt;node9</title>
<path fill="none" stroke="black" d="M122.62,-510.81C123.19,-502.79 123.87,-493.05 124.5,-484.07"/>
<polygon fill="black" stroke="black" points="128,-484.25 125.21,-474.03 121.02,-483.76 128,-484.25"/>
<text text-anchor="middle" x="132.37" y="-489" font-family="Times,serif" font-size="14.00">*0</text>
</g>
<!-- node13 -->
<g id="node12" class="node">
<title>node13</title>
<polygon fill="orange" stroke="black" points="572.85,-156.54 572.85,-171.46 499.37,-182 395.45,-182 321.97,-171.46 321.97,-156.54 395.45,-146 499.37,-146 572.85,-156.54"/>
<text text-anchor="middle" x="447.41" y="-160.3" font-family="Times,serif" font-size="14.00">#13 Extend : SIGN int</text>
</g>
<!-- node12&#45;&gt;node13 -->
<g id="edge19" class="edge">
<title>node12&#45;&gt;node13</title>
<path fill="none" stroke="black" d="M295.32,-218.99C323.68,-208.92 359.8,-196.1 389.72,-185.48"/>
<polygon fill="black" stroke="black" points="390.95,-188.76 399.2,-182.11 388.61,-182.16 390.95,-188.76"/>
<text text-anchor="middle" x="384.95" y="-192.44" font-family="Times,serif" font-size="14.00">*0</text>
</g>
<!-- node16 -->
<g id="node13" class="node">
<title>node16</title>
<polygon fill="lightgrey" stroke="black" points="252.91,-36 151.91,-36 151.91,0 252.91,0 252.91,-36"/>
<text text-anchor="middle" x="202.41" y="-14.3" font-family="Times,serif" font-size="14.00">#16 Return</text>
</g>
<!-- node12&#45;&gt;node16 -->
<g id="edge21" class="edge">
<title>node12&#45;&gt;node16</title>
<path fill="none" stroke="green" d="M261.3,-218.75C275.16,-199.3 292.19,-167.57 275.41,-146 234.3,-93.17 170.52,-161.83 129.41,-109 119.58,-96.37 122.21,-87.29 129.41,-73 135.81,-60.31 146.75,-49.87 158.24,-41.66"/>
<polygon fill="green" stroke="green" points="160.25,-44.52 166.65,-36.07 156.38,-38.69 160.25,-44.52"/>
</g>
<!-- node14 -->
<g id="node15" class="node">
<title>node14</title>
<polygon fill="lightgrey" stroke="black" points="266.41,-182 138.41,-182 138.41,-146 266.41,-146 266.41,-182"/>
<text text-anchor="middle" x="202.41" y="-160.3" font-family="Times,serif" font-size="14.00">#14 LabelNode</text>
</g>
<!-- node12&#45;&gt;node14 -->
<g id="edge23" class="edge">
<title>node12&#45;&gt;node14</title>
<path fill="none" stroke="red" d="M236.52,-218.81C231.16,-210.35 224.58,-199.98 218.64,-190.61"/>
<polygon fill="red" stroke="red" points="221.51,-188.6 213.2,-182.03 215.6,-192.35 221.51,-188.6"/>
</g>
<!-- node11&#45;&gt;node12 -->
<g id="edge15" class="edge">
<title>node11&#45;&gt;node12</title>
<path fill="none" stroke="black" d="M272.42,-291.81C268.57,-283.53 263.87,-273.41 259.59,-264.19"/>
<polygon fill="black" stroke="black" points="262.71,-262.62 255.33,-255.03 256.37,-265.57 262.71,-262.62"/>
<text text-anchor="middle" x="270.63" y="-264.2" font-family="Times,serif" font-size="14.00">*1</text>
</g>
<!-- node15 -->
<g id="node14" class="node">
<title>node15</title>
<polygon fill="lightgrey" stroke="black" points="266.41,-109 138.41,-109 138.41,-73 266.41,-73 266.41,-109"/>
<text text-anchor="middle" x="202.41" y="-87.3" font-family="Times,serif" font-size="14.00">#15 LabelNode</text>
</g>
<!-- node15&#45;&gt;node16 -->
<g id="edge20" class="edge">
<title>node15&#45;&gt;node16</title>
<path fill="none" stroke="red" d="M202.41,-72.81C202.41,-64.79 202.41,-55.05 202.41,-46.07"/>
<polygon fill="red" stroke="red" points="205.91,-46.03 202.41,-36.03 198.91,-46.03 205.91,-46.03"/>
</g>
<!-- node14&#45;&gt;node15 -->
<g id="edge22" class="edge">
<title>node14&#45;&gt;node15</title>
<path fill="none" stroke="red" d="M202.41,-145.81C202.41,-137.79 202.41,-128.05 202.41,-119.07"/>
<polygon fill="red" stroke="red" points="205.91,-119.03 202.41,-109.03 198.91,-119.03 205.91,-119.03"/>
</g>
<!-- c0 -->
<!-- c1 -->
<!-- c0&#45;&gt;c1 -->
<g id="edge25" class="edge">
<title>c0&#45;&gt;c1</title>
<path fill="none" stroke="red" d="M1223.3,-757C1234.52,-757 1292.65,-757 1318.27,-757"/>
<polygon fill="red" stroke="red" points="1318.47,-760.5 1328.47,-757 1318.47,-753.5 1318.47,-760.5"/>
<text text-anchor="middle" x="1275.91" y="-763.8" font-family="Times,serif" font-size="14.00">Control flow</text>
</g>
<!-- c2 -->
<!-- c3 -->
<!-- c2&#45;&gt;c3 -->
<g id="edge26" class="edge">
<title>c2&#45;&gt;c3</title>
<path fill="none" stroke="red" stroke-dasharray="5,2" d="M1016.49,-757C1033.46,-757 1149.62,-757 1187.49,-757"/>
<polygon fill="red" stroke="red" points="1187.58,-760.5 1197.58,-757 1187.58,-753.5 1187.58,-760.5"/>
<text text-anchor="middle" x="1106.91" y="-763.8" font-family="Times,serif" font-size="14.00">Control flow back edge</text>
</g>
<!-- d0 -->
<!-- d1 -->
<!-- d0&#45;&gt;d1 -->
<g id="edge27" class="edge">
<title>d0&#45;&gt;d1</title>
<path fill="none" stroke="black" d="M905.27,-757C914.82,-757 958.72,-757 980.33,-757"/>
<polygon fill="black" stroke="black" points="980.56,-760.5 990.56,-757 980.56,-753.5 980.56,-760.5"/>
<text text-anchor="middle" x="947.91" y="-763.8" font-family="Times,serif" font-size="14.00">Data flow</text>
</g>
<!-- d2 -->
<!-- d3 -->
<!-- d2&#45;&gt;d3 -->
<g id="edge28" class="edge">
<title>d2&#45;&gt;d3</title>
<path fill="none" stroke="black" stroke-dasharray="1,5" d="M779.22,-757C789.87,-757 844.88,-757 869.49,-757"/>
<polygon fill="black" stroke="black" points="869.56,-760.5 879.56,-757 869.56,-753.5 869.56,-760.5"/>
<text text-anchor="middle" x="829.41" y="-763.8" font-family="Times,serif" font-size="14.00">Declaration</text>
</g>
<!-- d4 -->
<!-- d5 -->
<!-- d4&#45;&gt;d5 -->
<g id="edge29" class="edge">
<title>d4&#45;&gt;d5</title>
<path fill="none" stroke="blue" d="M636.51,-757C649.13,-757 715.29,-757 743.09,-757"/>
<polygon fill="blue" stroke="blue" points="743.25,-760.5 753.25,-757 743.25,-753.5 743.25,-760.5"/>
<text text-anchor="middle" x="694.91" y="-763.8" font-family="Times,serif" font-size="14.00">PHI Data flow</text>
</g>
<!-- d6 -->
<!-- d7 -->
<!-- d6&#45;&gt;d7 -->
<g id="edge30" class="edge">
<title>d6&#45;&gt;d7</title>
<path fill="none" stroke="green" d="M499.41,-757C511.35,-757 573.71,-757 600.34,-757"/>
<polygon fill="green" stroke="green" points="600.36,-760.5 610.36,-757 600.36,-753.5 600.36,-760.5"/>
<text text-anchor="middle" x="554.91" y="-763.8" font-family="Times,serif" font-size="14.00">Memory flow</text>
</g>
</g>
</svg>
