<?xml version="1.0" encoding="UTF-8" standalone="no"?>
<!DOCTYPE svg PUBLIC "-//W3C//DTD SVG 1.1//EN"
 "http://www.w3.org/Graphics/SVG/1.1/DTD/svg11.dtd">
<!-- Generated by graphviz version 2.43.0 (0)
 -->
<!-- Title: debugoutput Pages: 1 -->
<svg width="2336pt" height="213pt"
 viewBox="0.00 0.00 2335.50 212.80" xmlns="http://www.w3.org/2000/svg" xmlns:xlink="http://www.w3.org/1999/xlink">
<g id="graph0" class="graph" transform="scale(1 1) rotate(0) translate(4 208.8)">
<title>debugoutput</title>
<polygon fill="white" stroke="transparent" points="-4,4 -4,-208.8 2331.5,-208.8 2331.5,4 -4,4"/>
<g id="clust1" class="cluster">
<title>cluster_000</title>
<polygon fill="none" stroke="black" points="1232.5,-154.2 1232.5,-196.8 2208.5,-196.8 2208.5,-154.2 1232.5,-154.2"/>
<text text-anchor="middle" x="1720.5" y="-181.6" font-family="Times,serif" font-size="14.00">Legend</text>
</g>
<!-- node0 -->
<g id="node1" class="node">
<title>node0</title>
<polygon fill="lightgrey" stroke="black" points="1222.5,-182 1056.5,-182 1056.5,-146 1222.5,-146 1222.5,-182"/>
<text text-anchor="middle" x="1139.5" y="-160.3" font-family="Times,serif" font-size="14.00">#0 Method Order : 0</text>
</g>
<!-- node1 -->
<g id="node2" class="node">
<title>node1</title>
<polygon fill="lightgrey" stroke="black" points="197,-109 0,-109 0,-73 197,-73 197,-109"/>
<text text-anchor="middle" x="98.5" y="-87.3" font-family="Times,serif" font-size="14.00">#1 arg9 : int[] Order : 12</text>
</g>
<!-- node0&#45;&gt;node1 -->
<g id="edge2" class="edge">
<title>node0&#45;&gt;node1</title>
<path fill="none" stroke="black" d="M1056.29,-161.07C893.42,-156.58 521.39,-143.2 207.42,-110.06"/>
<polygon fill="black" stroke="black" points="207.53,-106.55 197.22,-108.97 206.79,-113.51 207.53,-106.55"/>
<text text-anchor="middle" x="216.14" y="-98.78" font-family="Times,serif" font-size="14.00">*0</text>
</g>
<!-- node2 -->
<g id="node3" class="node">
<title>node2</title>
<polygon fill="lightgrey" stroke="black" points="401.5,-109 215.5,-109 215.5,-73 401.5,-73 401.5,-109"/>
<text text-anchor="middle" x="308.5" y="-87.3" font-family="Times,serif" font-size="14.00">#2 arg2 : int Order : 11</text>
</g>
<!-- node0&#45;&gt;node2 -->
<g id="edge4" class="edge">
<title>node0&#45;&gt;node2</title>
<path fill="none" stroke="black" d="M1056.4,-159.58C921.32,-153.27 645.86,-137.84 411.31,-110.17"/>
<polygon fill="black" stroke="black" points="411.58,-106.67 401.23,-108.97 410.75,-113.63 411.58,-106.67"/>
<text text-anchor="middle" x="420.23" y="-99.02" font-family="Times,serif" font-size="14.00">*0</text>
</g>
<!-- node3 -->
<g id="node4" class="node">
<title>node3</title>
<polygon fill="lightgrey" stroke="black" points="605.5,-109 419.5,-109 419.5,-73 605.5,-73 605.5,-109"/>
<text text-anchor="middle" x="512.5" y="-87.3" font-family="Times,serif" font-size="14.00">#3 arg0 : int Order : 10</text>
</g>
<!-- node0&#45;&gt;node3 -->
<g id="edge6" class="edge">
<title>node0&#45;&gt;node3</title>
<path fill="none" stroke="black" d="M1056.08,-156.64C952.88,-148.02 771.82,-131.29 615.24,-110.44"/>
<polygon fill="black" stroke="black" points="615.34,-106.92 604.97,-109.06 614.41,-113.86 615.34,-106.92"/>
<text text-anchor="middle" x="624.06" y="-99.4" font-family="Times,serif" font-size="14.00">*0</text>
</g>
<!-- node4 -->
<g id="node5" class="node">
<title>node4</title>
<polygon fill="lightgrey" stroke="black" points="826,-109 623,-109 623,-73 826,-73 826,-109"/>
<text text-anchor="middle" x="724.5" y="-87.3" font-family="Times,serif" font-size="14.00">#4 arg8 : String Order : 9</text>
</g>
<!-- node0&#45;&gt;node4 -->
<g id="edge8" class="edge">
<title>node0&#45;&gt;node4</title>
<path fill="none" stroke="black" d="M1056.03,-149.65C990.48,-138.7 898.91,-123.06 828.59,-110.84"/>
<polygon fill="black" stroke="black" points="828.83,-107.33 818.38,-109.06 827.63,-114.23 828.83,-107.33"/>
<text text-anchor="middle" x="837.68" y="-100.14" font-family="Times,serif" font-size="14.00">*0</text>
</g>
<!-- node5 -->
<g id="node6" class="node">
<title>node5</title>
<polygon fill="lightgrey" stroke="black" points="1033,-109 844,-109 844,-73 1033,-73 1033,-109"/>
<text text-anchor="middle" x="938.5" y="-87.3" font-family="Times,serif" font-size="14.00">#5 arg6 : float Order : 8</text>
</g>
<!-- node0&#45;&gt;node5 -->
<g id="edge10" class="edge">
<title>node0&#45;&gt;node5</title>
<path fill="none" stroke="black" d="M1085.5,-145.99C1056.05,-135.97 1019.83,-123.21 990.67,-112.62"/>
<polygon fill="black" stroke="black" points="991.67,-109.26 981.08,-109.11 989.27,-115.83 991.67,-109.26"/>
<text text-anchor="middle" x="1001" y="-103.69" font-family="Times,serif" font-size="14.00">*0</text>
</g>
<!-- node6 -->
<g id="node7" class="node">
<title>node6</title>
<polygon fill="lightgrey" stroke="black" points="1228,-109 1051,-109 1051,-73 1228,-73 1228,-109"/>
<text text-anchor="middle" x="1139.5" y="-87.3" font-family="Times,serif" font-size="14.00">#6 arg1 : int Order : 7</text>
</g>
<!-- node0&#45;&gt;node6 -->
<g id="edge12" class="edge">
<title>node0&#45;&gt;node6</title>
<path fill="none" stroke="black" d="M1133.62,-145.81C1132.78,-137.79 1132.55,-128.05 1132.92,-119.07"/>
<polygon fill="black" stroke="black" points="1136.42,-119.25 1133.64,-109.03 1129.44,-118.75 1136.42,-119.25"/>
<text text-anchor="middle" x="1140.78" y="-124.01" font-family="Times,serif" font-size="14.00">*0</text>
</g>
<!-- node7 -->
<g id="node8" class="node">
<title>node7</title>
<polygon fill="lightgrey" stroke="black" points="1423,-109 1246,-109 1246,-73 1423,-73 1423,-109"/>
<text text-anchor="middle" x="1334.5" y="-87.3" font-family="Times,serif" font-size="14.00">#7 arg4 : int Order : 6</text>
</g>
<!-- node0&#45;&gt;node7 -->
<g id="edge14" class="edge">
<title>node0&#45;&gt;node7</title>
<path fill="none" stroke="black" d="M1180.35,-145.99C1206.93,-135.92 1242.04,-123.1 1272.07,-112.48"/>
<polygon fill="black" stroke="black" points="1273.36,-115.74 1281.63,-109.11 1271.03,-109.13 1273.36,-115.74"/>
<text text-anchor="middle" x="1267.34" y="-119.41" font-family="Times,serif" font-size="14.00">*0</text>
</g>
<!-- node8 -->
<g id="node9" class="node">
<title>node8</title>
<polygon fill="lightgrey" stroke="black" points="1629.5,-109 1441.5,-109 1441.5,-73 1629.5,-73 1629.5,-109"/>
<text text-anchor="middle" x="1535.5" y="-87.3" font-family="Times,serif" font-size="14.00">#8 arg5 : long Order : 5</text>
</g>
<!-- node0&#45;&gt;node8 -->
<g id="edge16" class="edge">
<title>node0&#45;&gt;node8</title>
<path fill="none" stroke="black" d="M1219.9,-145.93C1290.2,-133.03 1369.62,-119.08 1431.25,-108.6"/>
<polygon fill="black" stroke="black" points="1432.1,-112.01 1441.37,-106.88 1430.93,-105.1 1432.1,-112.01"/>
<text text-anchor="middle" x="1424.92" y="-114.55" font-family="Times,serif" font-size="14.00">*0</text>
</g>
<!-- node9 -->
<g id="node10" class="node">
<title>node9</title>
<polygon fill="lightgrey" stroke="black" points="1853.5,-109 1647.5,-109 1647.5,-73 1853.5,-73 1853.5,-109"/>
<text text-anchor="middle" x="1750.5" y="-87.3" font-family="Times,serif" font-size="14.00">#9 arg7 : double Order : 4</text>
</g>
<!-- node0&#45;&gt;node9 -->
<g id="edge18" class="edge">
<title>node0&#45;&gt;node9</title>
<path fill="none" stroke="black" d="M1219.77,-145.96C1400.73,-120.59 1447.95,-130.95 1629.5,-109 1632.06,-108.69 1634.66,-108.37 1637.27,-108.03"/>
<polygon fill="black" stroke="black" points="1638,-111.47 1647.46,-106.7 1637.09,-104.53 1638,-111.47"/>
<text text-anchor="middle" x="1630.59" y="-113.73" font-family="Times,serif" font-size="14.00">*0</text>
</g>
<!-- node10 -->
<g id="node11" class="node">
<title>node10</title>
<polygon fill="lightgrey" stroke="black" points="2057.5,-109 1871.5,-109 1871.5,-73 2057.5,-73 2057.5,-109"/>
<text text-anchor="middle" x="1964.5" y="-87.3" font-family="Times,serif" font-size="14.00">#10 arg3 : int Order : 3</text>
</g>
<!-- node0&#45;&gt;node10 -->
<g id="edge20" class="edge">
<title>node0&#45;&gt;node10</title>
<path fill="none" stroke="black" d="M1219.91,-145.95C1499.68,-111.25 1573.14,-140.45 1853.5,-109 1856.04,-108.72 1858.61,-108.41 1861.2,-108.09"/>
<polygon fill="black" stroke="black" points="1861.83,-111.53 1871.29,-106.76 1860.92,-104.59 1861.83,-111.53"/>
<text text-anchor="middle" x="1854.42" y="-113.8" font-family="Times,serif" font-size="14.00">*0</text>
</g>
<!-- node11 -->
<g id="node12" class="node">
<title>node11</title>
<polygon fill="lightgrey" stroke="black" points="2273,-109 2076,-109 2076,-73 2273,-73 2273,-109"/>
<text text-anchor="middle" x="2174.5" y="-87.3" font-family="Times,serif" font-size="14.00">#11 LabelNode Order : 1</text>
</g>
<!-- node0&#45;&gt;node11 -->
<g id="edge22" class="edge">
<title>node0&#45;&gt;node11</title>
<path fill="none" stroke="red" d="M1219.77,-145.97C1405.1,-124.35 1872.12,-127.62 2057.5,-109 2060.2,-108.73 2062.93,-108.44 2065.68,-108.12"/>
<polygon fill="red" stroke="red" points="2066.23,-111.58 2075.75,-106.91 2065.4,-104.63 2066.23,-111.58"/>
</g>
<!-- node12 -->
<g id="node13" class="node">
<title>node12</title>
<polygon fill="lightgrey" stroke="black" points="2327.5,-36 2157.5,-36 2157.5,0 2327.5,0 2327.5,-36"/>
<text text-anchor="middle" x="2242.5" y="-14.3" font-family="Times,serif" font-size="14.00">#12 Return Order : 2</text>
</g>
<!-- node0&#45;&gt;node12 -->
<g id="edge25" class="edge">
<title>node0&#45;&gt;node12</title>
<path fill="none" stroke="green" d="M1219.85,-145.96C1281.45,-139.5 2232.88,-151.07 2273.5,-109 2290.96,-90.92 2275.18,-63.93 2260.28,-44.22"/>
<polygon fill="green" stroke="green" points="2262.97,-41.98 2254.05,-36.27 2257.46,-46.3 2262.97,-41.98"/>
</g>
<!-- node1&#45;&gt;node0 -->
<g id="edge1" class="edge">
<title>node1&#45;&gt;node0</title>
<path fill="none" stroke="fuchsia" stroke-width="2" d="M197.26,-106.82C203.44,-107.62 209.56,-108.36 215.5,-109 518.49,-141.54 879.09,-155.4 1046.13,-160.47"/>
<polygon fill="fuchsia" stroke="fuchsia" stroke-width="2" points="1046.26,-163.98 1056.36,-160.78 1046.47,-156.98 1046.26,-163.98"/>
</g>
<!-- node2&#45;&gt;node0 -->
<g id="edge3" class="edge">
<title>node2&#45;&gt;node0</title>
<path fill="none" stroke="fuchsia" stroke-width="2" d="M401.72,-106.66C407.74,-107.51 413.71,-108.3 419.5,-109 643.84,-135.95 908.75,-151.53 1046.25,-158.52"/>
<polygon fill="fuchsia" stroke="fuchsia" stroke-width="2" points="1046.17,-162.02 1056.33,-159.03 1046.52,-155.03 1046.17,-162.02"/>
</g>
<!-- node3&#45;&gt;node0 -->
<g id="edge5" class="edge">
<title>node3&#45;&gt;node0</title>
<path fill="none" stroke="fuchsia" stroke-width="2" d="M605.74,-106.6C611.42,-107.45 617.04,-108.26 622.5,-109 770.4,-129.02 942.6,-145.39 1046.28,-154.67"/>
<polygon fill="fuchsia" stroke="fuchsia" stroke-width="2" points="1046.13,-158.17 1056.4,-155.58 1046.75,-151.2 1046.13,-158.17"/>
</g>
<!-- node4&#45;&gt;node0 -->
<g id="edge7" class="edge">
<title>node4&#45;&gt;node0</title>
<path fill="none" stroke="fuchsia" stroke-width="2" d="M826.04,-108.38C893.27,-119.67 980.75,-134.63 1046.23,-146.04"/>
<polygon fill="fuchsia" stroke="fuchsia" stroke-width="2" points="1045.68,-149.5 1056.13,-147.77 1046.88,-142.6 1045.68,-149.5"/>
</g>
<!-- node5&#45;&gt;node0 -->
<g id="edge9" class="edge">
<title>node5&#45;&gt;node0</title>
<path fill="none" stroke="fuchsia" stroke-width="2" d="M992.82,-109.11C1022.31,-119.16 1058.53,-131.92 1087.64,-142.5"/>
<polygon fill="fuchsia" stroke="fuchsia" stroke-width="2" points="1086.62,-145.85 1097.21,-145.99 1089.02,-139.28 1086.62,-145.85"/>
</g>
<!-- node6&#45;&gt;node0 -->
<g id="edge11" class="edge">
<title>node6&#45;&gt;node0</title>
<path fill="none" stroke="fuchsia" stroke-width="2" d="M1145.36,-109.03C1146.21,-117.03 1146.45,-126.77 1146.09,-135.75"/>
<polygon fill="fuchsia" stroke="fuchsia" stroke-width="2" points="1142.59,-135.59 1145.38,-145.81 1149.57,-136.08 1142.59,-135.59"/>
</g>
<!-- node7&#45;&gt;node0 -->
<g id="edge13" class="edge">
<title>node7&#45;&gt;node0</title>
<path fill="none" stroke="fuchsia" stroke-width="2" d="M1293.37,-109.11C1266.72,-119.2 1231.6,-132.03 1201.61,-142.63"/>
<polygon fill="fuchsia" stroke="fuchsia" stroke-width="2" points="1200.34,-139.37 1192.07,-145.99 1202.66,-145.97 1200.34,-139.37"/>
</g>
<!-- node8&#45;&gt;node0 -->
<g id="edge15" class="edge">
<title>node8&#45;&gt;node0</title>
<path fill="none" stroke="fuchsia" stroke-width="2" d="M1444.39,-109.02C1385.38,-119.47 1306.96,-133.26 1237.5,-146 1236,-146.27 1234.49,-146.55 1232.96,-146.83"/>
<polygon fill="fuchsia" stroke="fuchsia" stroke-width="2" points="1231.96,-143.46 1222.77,-148.73 1233.24,-150.34 1231.96,-143.46"/>
</g>
<!-- node9&#45;&gt;node0 -->
<g id="edge17" class="edge">
<title>node9&#45;&gt;node0</title>
<path fill="none" stroke="fuchsia" stroke-width="2" d="M1647.23,-109.03C1465.81,-130.95 1418.6,-120.6 1237.5,-146 1235.99,-146.21 1234.47,-146.43 1232.94,-146.66"/>
<polygon fill="fuchsia" stroke="fuchsia" stroke-width="2" points="1232.03,-143.26 1222.69,-148.26 1233.11,-150.17 1232.03,-143.26"/>
</g>
<!-- node10&#45;&gt;node0 -->
<g id="edge19" class="edge">
<title>node10&#45;&gt;node0</title>
<path fill="none" stroke="fuchsia" stroke-width="2" d="M1871.77,-108.97C1871.68,-108.98 1871.59,-108.99 1871.5,-109 1591,-140.47 1517.61,-111.23 1237.5,-146 1235.99,-146.19 1234.46,-146.39 1232.93,-146.59"/>
<polygon fill="fuchsia" stroke="fuchsia" stroke-width="2" points="1232.06,-143.18 1222.67,-148.08 1233.07,-150.11 1232.06,-143.18"/>
</g>
<!-- node11&#45;&gt;node0 -->
<g id="edge21" class="edge">
<title>node11&#45;&gt;node0</title>
<path fill="none" stroke="fuchsia" stroke-width="2" d="M2075.78,-108.97C2075.69,-108.98 2075.59,-108.99 2075.5,-109 1890.03,-127.63 1422.64,-124.35 1237.5,-146 1235.99,-146.18 1234.46,-146.37 1232.92,-146.56"/>
<polygon fill="fuchsia" stroke="fuchsia" stroke-width="2" points="1232.08,-143.15 1222.66,-148 1233.05,-150.08 1232.08,-143.15"/>
</g>
<!-- node11&#45;&gt;node12 -->
<g id="edge24" class="edge">
<title>node11&#45;&gt;node12</title>
<path fill="none" stroke="red" d="M2190.96,-72.81C2199.4,-64 2209.82,-53.13 2219.08,-43.46"/>
<polygon fill="red" stroke="red" points="2221.8,-45.67 2226.19,-36.03 2216.75,-40.83 2221.8,-45.67"/>
</g>
<!-- node12&#45;&gt;node0 -->
<g id="edge23" class="edge">
<title>node12&#45;&gt;node0</title>
<path fill="none" stroke="fuchsia" stroke-width="2" d="M2266.96,-36.27C2287.99,-56.03 2311.45,-88.33 2291.5,-109 2250.8,-151.15 1295.73,-139.46 1237.5,-146 1235.99,-146.17 1234.46,-146.35 1232.92,-146.54"/>
<polygon fill="fuchsia" stroke="fuchsia" stroke-width="2" points="1232.09,-143.13 1222.65,-147.95 1233.04,-150.06 1232.09,-143.13"/>
</g>
<!-- c0 -->
<!-- c1 -->
<!-- c0&#45;&gt;c1 -->
<g id="edge26" class="edge">
<title>c0&#45;&gt;c1</title>
<path fill="none" stroke="red" d="M2091.39,-164C2102.61,-164 2160.74,-164 2186.36,-164"/>
<polygon fill="red" stroke="red" points="2186.56,-167.5 2196.56,-164 2186.56,-160.5 2186.56,-167.5"/>
<text text-anchor="middle" x="2144" y="-170.8" font-family="Times,serif" font-size="14.00">Control flow</text>
</g>
<!-- c2 -->
<!-- c3 -->
<!-- c2&#45;&gt;c3 -->
<g id="edge27" class="edge">
<title>c2&#45;&gt;c3</title>
<path fill="none" stroke="red" stroke-dasharray="5,2" d="M1884.58,-164C1901.55,-164 2017.71,-164 2055.58,-164"/>
<polygon fill="red" stroke="red" points="2055.67,-167.5 2065.67,-164 2055.67,-160.5 2055.67,-167.5"/>
<text text-anchor="middle" x="1975" y="-170.8" font-family="Times,serif" font-size="14.00">Control flow back edge</text>
</g>
<!-- d0 -->
<!-- d1 -->
<!-- d0&#45;&gt;d1 -->
<g id="edge28" class="edge">
<title>d0&#45;&gt;d1</title>
<path fill="none" stroke="black" d="M1773.36,-164C1782.91,-164 1826.81,-164 1848.42,-164"/>
<polygon fill="black" stroke="black" points="1848.65,-167.5 1858.65,-164 1848.65,-160.5 1848.65,-167.5"/>
<text text-anchor="middle" x="1816" y="-170.8" font-family="Times,serif" font-size="14.00">Data flow</text>
</g>
<!-- d2 -->
<!-- d3 -->
<!-- d2&#45;&gt;d3 -->
<g id="edge29" class="edge">
<title>d2&#45;&gt;d3</title>
<path fill="none" stroke="black" stroke-dasharray="1,5" d="M1647.31,-164C1657.96,-164 1712.96,-164 1737.58,-164"/>
<polygon fill="black" stroke="black" points="1737.65,-167.5 1747.65,-164 1737.65,-160.5 1737.65,-167.5"/>
<text text-anchor="middle" x="1697.5" y="-170.8" font-family="Times,serif" font-size="14.00">Declaration</text>
</g>
<!-- d4 -->
<!-- d5 -->
<!-- d4&#45;&gt;d5 -->
<g id="edge30" class="edge">
<title>d4&#45;&gt;d5</title>
<path fill="none" stroke="blue" d="M1504.6,-164C1517.22,-164 1583.38,-164 1611.18,-164"/>
<polygon fill="blue" stroke="blue" points="1611.34,-167.5 1621.34,-164 1611.34,-160.5 1611.34,-167.5"/>
<text text-anchor="middle" x="1563" y="-170.8" font-family="Times,serif" font-size="14.00">PHI Data flow</text>
</g>
<!-- d6 -->
<!-- d7 -->
<!-- d6&#45;&gt;d7 -->
<g id="edge31" class="edge">
<title>d6&#45;&gt;d7</title>
<path fill="none" stroke="green" d="M1367.5,-164C1379.44,-164 1441.8,-164 1468.43,-164"/>
<polygon fill="green" stroke="green" points="1468.45,-167.5 1478.45,-164 1468.45,-160.5 1468.45,-167.5"/>
<text text-anchor="middle" x="1423" y="-170.8" font-family="Times,serif" font-size="14.00">Memory flow</text>
</g>
<!-- d8 -->
<!-- d9 -->
<!-- d8&#45;&gt;d9 -->
<g id="edge32" class="edge">
<title>d8&#45;&gt;d9</title>
<path fill="none" stroke="fuchsia" d="M1244.61,-164C1255.65,-164 1307.17,-164 1331.16,-164"/>
<polygon fill="fuchsia" stroke="fuchsia" points="1331.4,-167.5 1341.4,-164 1331.4,-160.5 1331.4,-167.5"/>
<text text-anchor="middle" x="1293" y="-170.8" font-family="Times,serif" font-size="14.00">Dominance</text>
</g>
</g>
</svg>
