<?xml version="1.0" encoding="UTF-8" standalone="no"?>
<!DOCTYPE svg PUBLIC "-//W3C//DTD SVG 1.1//EN"
 "http://www.w3.org/Graphics/SVG/1.1/DTD/svg11.dtd">
<!-- Generated by graphviz version 2.43.0 (0)
 -->
<!-- Title: debugoutput Pages: 1 -->
<svg width="2336pt" height="213pt"
 viewBox="0.00 0.00 2336.00 212.80" xmlns="http://www.w3.org/2000/svg" xmlns:xlink="http://www.w3.org/1999/xlink">
<g id="graph0" class="graph" transform="scale(1 1) rotate(0) translate(4 208.8)">
<title>debugoutput</title>
<polygon fill="white" stroke="transparent" points="-4,4 -4,-208.8 2332,-208.8 2332,4 -4,4"/>
<g id="clust1" class="cluster">
<title>cluster_000</title>
<polygon fill="none" stroke="black" points="1215,-154.2 1215,-196.8 2191,-196.8 2191,-154.2 1215,-154.2"/>
<text text-anchor="middle" x="1703" y="-181.6" font-family="Times,serif" font-size="14.00">Legend</text>
</g>
<!-- node0 -->
<g id="node1" class="node">
<title>node0</title>
<polygon fill="lightgrey" stroke="black" points="1205,-182 1039,-182 1039,-146 1205,-146 1205,-182"/>
<text text-anchor="middle" x="1122" y="-160.3" font-family="Times,serif" font-size="14.00">#0 Method Order : 0</text>
</g>
<!-- node1 -->
<g id="node2" class="node">
<title>node1</title>
<polygon fill="lightgrey" stroke="black" points="186,-109 0,-109 0,-73 186,-73 186,-109"/>
<text text-anchor="middle" x="93" y="-87.3" font-family="Times,serif" font-size="14.00">#1 arg0 : int Order : 12</text>
</g>
<!-- node0&#45;&gt;node1 -->
<g id="edge2" class="edge">
<title>node0&#45;&gt;node1</title>
<path fill="none" stroke="black" d="M1038.95,-161.27C876.9,-157.15 507.45,-144.42 195.86,-110.1"/>
<polygon fill="black" stroke="black" points="196.06,-106.6 185.73,-108.97 195.28,-113.55 196.06,-106.6"/>
<text text-anchor="middle" x="204.68" y="-98.87" font-family="Times,serif" font-size="14.00">*0</text>
</g>
<!-- node2 -->
<g id="node3" class="node">
<title>node2</title>
<polygon fill="lightgrey" stroke="black" points="390,-109 204,-109 204,-73 390,-73 390,-109"/>
<text text-anchor="middle" x="297" y="-87.3" font-family="Times,serif" font-size="14.00">#2 arg4 : int Order : 11</text>
</g>
<!-- node0&#45;&gt;node2 -->
<g id="edge4" class="edge">
<title>node0&#45;&gt;node2</title>
<path fill="none" stroke="black" d="M1039,-159.52C904.8,-153.14 632.02,-137.65 399.72,-110.16"/>
<polygon fill="black" stroke="black" points="400.08,-106.68 389.73,-108.97 399.25,-113.63 400.08,-106.68"/>
<text text-anchor="middle" x="408.73" y="-99.02" font-family="Times,serif" font-size="14.00">*0</text>
</g>
<!-- node3 -->
<g id="node4" class="node">
<title>node3</title>
<polygon fill="lightgrey" stroke="black" points="620,-109 408,-109 408,-73 620,-73 620,-109"/>
<text text-anchor="middle" x="514" y="-87.3" font-family="Times,serif" font-size="14.00">#3 arg8 : String Order : 10</text>
</g>
<!-- node0&#45;&gt;node3 -->
<g id="edge6" class="edge">
<title>node0&#45;&gt;node3</title>
<path fill="none" stroke="black" d="M1038.61,-155.51C940.92,-146.08 774.2,-128.84 629.38,-110.33"/>
<polygon fill="black" stroke="black" points="629.8,-106.86 619.43,-109.06 628.9,-113.8 629.8,-106.86"/>
<text text-anchor="middle" x="638.49" y="-99.28" font-family="Times,serif" font-size="14.00">*0</text>
</g>
<!-- node4 -->
<g id="node5" class="node">
<title>node4</title>
<polygon fill="lightgrey" stroke="black" points="814.5,-109 637.5,-109 637.5,-73 814.5,-73 814.5,-109"/>
<text text-anchor="middle" x="726" y="-87.3" font-family="Times,serif" font-size="14.00">#4 arg1 : int Order : 9</text>
</g>
<!-- node0&#45;&gt;node4 -->
<g id="edge8" class="edge">
<title>node0&#45;&gt;node4</title>
<path fill="none" stroke="black" d="M1038.74,-149.06C976.32,-138.13 890.72,-122.81 824.83,-110.8"/>
<polygon fill="black" stroke="black" points="825.31,-107.33 814.84,-108.98 824.05,-114.22 825.31,-107.33"/>
<text text-anchor="middle" x="834.19" y="-100.22" font-family="Times,serif" font-size="14.00">*0</text>
</g>
<!-- node5 -->
<g id="node6" class="node">
<title>node5</title>
<polygon fill="lightgrey" stroke="black" points="1009.5,-109 832.5,-109 832.5,-73 1009.5,-73 1009.5,-109"/>
<text text-anchor="middle" x="921" y="-87.3" font-family="Times,serif" font-size="14.00">#5 arg2 : int Order : 8</text>
</g>
<!-- node0&#45;&gt;node5 -->
<g id="edge10" class="edge">
<title>node0&#45;&gt;node5</title>
<path fill="none" stroke="black" d="M1068,-145.99C1038.55,-135.97 1002.33,-123.21 973.17,-112.62"/>
<polygon fill="black" stroke="black" points="974.17,-109.26 963.58,-109.11 971.77,-115.83 974.17,-109.26"/>
<text text-anchor="middle" x="983.5" y="-103.69" font-family="Times,serif" font-size="14.00">*0</text>
</g>
<!-- node6 -->
<g id="node7" class="node">
<title>node6</title>
<polygon fill="lightgrey" stroke="black" points="1216,-109 1028,-109 1028,-73 1216,-73 1216,-109"/>
<text text-anchor="middle" x="1122" y="-87.3" font-family="Times,serif" font-size="14.00">#6 arg9 : int[] Order : 7</text>
</g>
<!-- node0&#45;&gt;node6 -->
<g id="edge12" class="edge">
<title>node0&#45;&gt;node6</title>
<path fill="none" stroke="black" d="M1116.12,-145.81C1115.28,-137.79 1115.05,-128.05 1115.42,-119.07"/>
<polygon fill="black" stroke="black" points="1118.92,-119.25 1116.14,-109.03 1111.94,-118.75 1118.92,-119.25"/>
<text text-anchor="middle" x="1123.28" y="-124.01" font-family="Times,serif" font-size="14.00">*0</text>
</g>
<!-- node7 -->
<g id="node8" class="node">
<title>node7</title>
<polygon fill="lightgrey" stroke="black" points="1422,-109 1234,-109 1234,-73 1422,-73 1422,-109"/>
<text text-anchor="middle" x="1328" y="-87.3" font-family="Times,serif" font-size="14.00">#7 arg5 : long Order : 6</text>
</g>
<!-- node0&#45;&gt;node7 -->
<g id="edge14" class="edge">
<title>node0&#45;&gt;node7</title>
<path fill="none" stroke="black" d="M1165.48,-145.99C1193.75,-135.88 1231.05,-122.99 1262.81,-112.34"/>
<polygon fill="black" stroke="black" points="1264.1,-115.6 1272.48,-109.11 1261.88,-108.96 1264.1,-115.6"/>
<text text-anchor="middle" x="1257.96" y="-119.17" font-family="Times,serif" font-size="14.00">*0</text>
</g>
<!-- node8 -->
<g id="node9" class="node">
<title>node8</title>
<polygon fill="lightgrey" stroke="black" points="1629.5,-109 1440.5,-109 1440.5,-73 1629.5,-73 1629.5,-109"/>
<text text-anchor="middle" x="1535" y="-87.3" font-family="Times,serif" font-size="14.00">#8 arg6 : float Order : 5</text>
</g>
<!-- node0&#45;&gt;node8 -->
<g id="edge16" class="edge">
<title>node0&#45;&gt;node8</title>
<path fill="none" stroke="black" d="M1202.42,-145.92C1245.01,-138.32 1349.43,-121.01 1430.06,-108.04"/>
<polygon fill="black" stroke="black" points="1430.94,-111.44 1440.26,-106.4 1429.83,-104.53 1430.94,-111.44"/>
<text text-anchor="middle" x="1423.71" y="-113.92" font-family="Times,serif" font-size="14.00">*0</text>
</g>
<!-- node9 -->
<g id="node10" class="node">
<title>node9</title>
<polygon fill="lightgrey" stroke="black" points="1854,-109 1648,-109 1648,-73 1854,-73 1854,-109"/>
<text text-anchor="middle" x="1751" y="-87.3" font-family="Times,serif" font-size="14.00">#9 arg7 : double Order : 4</text>
</g>
<!-- node0&#45;&gt;node9 -->
<g id="edge18" class="edge">
<title>node0&#45;&gt;node9</title>
<path fill="none" stroke="black" d="M1202.28,-145.96C1391.18,-119.84 1440.5,-131.55 1630,-109 1632.56,-108.69 1635.16,-108.38 1637.78,-108.05"/>
<polygon fill="black" stroke="black" points="1638.5,-111.48 1647.97,-106.72 1637.6,-104.54 1638.5,-111.48"/>
<text text-anchor="middle" x="1631.08" y="-113.74" font-family="Times,serif" font-size="14.00">*0</text>
</g>
<!-- node10 -->
<g id="node11" class="node">
<title>node10</title>
<polygon fill="lightgrey" stroke="black" points="2058,-109 1872,-109 1872,-73 2058,-73 2058,-109"/>
<text text-anchor="middle" x="1965" y="-87.3" font-family="Times,serif" font-size="14.00">#10 arg3 : int Order : 3</text>
</g>
<!-- node0&#45;&gt;node10 -->
<g id="edge20" class="edge">
<title>node0&#45;&gt;node10</title>
<path fill="none" stroke="black" d="M1202.42,-145.95C1490.14,-110.5 1565.68,-141.11 1854,-109 1856.54,-108.72 1859.11,-108.41 1861.7,-108.09"/>
<polygon fill="black" stroke="black" points="1862.33,-111.54 1871.79,-106.77 1861.42,-104.6 1862.33,-111.54"/>
<text text-anchor="middle" x="1854.92" y="-113.8" font-family="Times,serif" font-size="14.00">*0</text>
</g>
<!-- node11 -->
<g id="node12" class="node">
<title>node11</title>
<polygon fill="lightgrey" stroke="black" points="2273.5,-109 2076.5,-109 2076.5,-73 2273.5,-73 2273.5,-109"/>
<text text-anchor="middle" x="2175" y="-87.3" font-family="Times,serif" font-size="14.00">#11 LabelNode Order : 1</text>
</g>
<!-- node0&#45;&gt;node11 -->
<g id="edge22" class="edge">
<title>node0&#45;&gt;node11</title>
<path fill="none" stroke="red" d="M1202.28,-145.97C1391.59,-123.97 1868.64,-127.93 2058,-109 2060.7,-108.73 2063.43,-108.44 2066.18,-108.13"/>
<polygon fill="red" stroke="red" points="2066.73,-111.59 2076.25,-106.92 2065.9,-104.64 2066.73,-111.59"/>
</g>
<!-- node12 -->
<g id="node13" class="node">
<title>node12</title>
<polygon fill="lightgrey" stroke="black" points="2328,-36 2158,-36 2158,0 2328,0 2328,-36"/>
<text text-anchor="middle" x="2243" y="-14.3" font-family="Times,serif" font-size="14.00">#12 Return Order : 2</text>
</g>
<!-- node0&#45;&gt;node12 -->
<g id="edge25" class="edge">
<title>node0&#45;&gt;node12</title>
<path fill="none" stroke="green" d="M1202.36,-145.96C1265.01,-139.41 2232.68,-151.77 2274,-109 2291.46,-90.92 2275.68,-63.93 2260.78,-44.22"/>
<polygon fill="green" stroke="green" points="2263.47,-41.98 2254.55,-36.27 2257.96,-46.3 2263.47,-41.98"/>
</g>
<!-- node1&#45;&gt;node0 -->
<g id="edge1" class="edge">
<title>node1&#45;&gt;node0</title>
<path fill="none" stroke="fuchsia" stroke-width="2" d="M186.21,-106.76C192.23,-107.59 198.2,-108.35 204,-109 504.5,-142.7 862.31,-156 1028.58,-160.71"/>
<polygon fill="fuchsia" stroke="fuchsia" stroke-width="2" points="1028.68,-164.21 1038.77,-161 1028.87,-157.22 1028.68,-164.21"/>
</g>
<!-- node2&#45;&gt;node0 -->
<g id="edge3" class="edge">
<title>node2&#45;&gt;node0</title>
<path fill="none" stroke="fuchsia" stroke-width="2" d="M390.22,-106.65C396.24,-107.51 402.21,-108.3 408,-109 630.04,-135.74 892.14,-151.37 1028.73,-158.44"/>
<polygon fill="fuchsia" stroke="fuchsia" stroke-width="2" points="1028.58,-161.93 1038.74,-158.95 1028.94,-154.94 1028.58,-161.93"/>
</g>
<!-- node3&#45;&gt;node0 -->
<g id="edge5" class="edge">
<title>node3&#45;&gt;node0</title>
<path fill="none" stroke="fuchsia" stroke-width="2" d="M620.28,-106.77C625.94,-107.55 631.54,-108.3 637,-109 773.15,-126.59 930.9,-143.17 1028.64,-153.21"/>
<polygon fill="fuchsia" stroke="fuchsia" stroke-width="2" points="1028.48,-156.71 1038.78,-154.25 1029.19,-149.75 1028.48,-156.71"/>
</g>
<!-- node4&#45;&gt;node0 -->
<g id="edge7" class="edge">
<title>node4&#45;&gt;node0</title>
<path fill="none" stroke="fuchsia" stroke-width="2" d="M814.78,-106.91C878.45,-118.08 964,-133.4 1028.68,-145.2"/>
<polygon fill="fuchsia" stroke="fuchsia" stroke-width="2" points="1028.4,-148.71 1038.87,-147.07 1029.66,-141.82 1028.4,-148.71"/>
</g>
<!-- node5&#45;&gt;node0 -->
<g id="edge9" class="edge">
<title>node5&#45;&gt;node0</title>
<path fill="none" stroke="fuchsia" stroke-width="2" d="M975.32,-109.11C1004.81,-119.16 1041.03,-131.92 1070.14,-142.5"/>
<polygon fill="fuchsia" stroke="fuchsia" stroke-width="2" points="1069.12,-145.85 1079.71,-145.99 1071.52,-139.28 1069.12,-145.85"/>
</g>
<!-- node6&#45;&gt;node0 -->
<g id="edge11" class="edge">
<title>node6&#45;&gt;node0</title>
<path fill="none" stroke="fuchsia" stroke-width="2" d="M1127.86,-109.03C1128.71,-117.03 1128.95,-126.77 1128.59,-135.75"/>
<polygon fill="fuchsia" stroke="fuchsia" stroke-width="2" points="1125.09,-135.59 1127.88,-145.81 1132.07,-136.08 1125.09,-135.59"/>
</g>
<!-- node7&#45;&gt;node0 -->
<g id="edge13" class="edge">
<title>node7&#45;&gt;node0</title>
<path fill="none" stroke="fuchsia" stroke-width="2" d="M1284.22,-109.11C1255.89,-119.25 1218.58,-132.14 1186.85,-142.77"/>
<polygon fill="fuchsia" stroke="fuchsia" stroke-width="2" points="1185.58,-139.51 1177.2,-145.99 1187.8,-146.15 1185.58,-139.51"/>
</g>
<!-- node8&#45;&gt;node0 -->
<g id="edge15" class="edge">
<title>node8&#45;&gt;node0</title>
<path fill="none" stroke="fuchsia" stroke-width="2" d="M1440.49,-108.69C1363.68,-121.63 1261.61,-138.56 1220,-146 1218.5,-146.27 1216.99,-146.54 1215.46,-146.82"/>
<polygon fill="fuchsia" stroke="fuchsia" stroke-width="2" points="1214.47,-143.44 1205.26,-148.68 1215.73,-150.33 1214.47,-143.44"/>
</g>
<!-- node9&#45;&gt;node0 -->
<g id="edge17" class="edge">
<title>node9&#45;&gt;node0</title>
<path fill="none" stroke="fuchsia" stroke-width="2" d="M1647.72,-109.03C1458.36,-131.55 1409.04,-119.84 1220,-146 1218.49,-146.21 1216.97,-146.43 1215.43,-146.65"/>
<polygon fill="fuchsia" stroke="fuchsia" stroke-width="2" points="1214.54,-143.25 1205.19,-148.24 1215.61,-150.17 1214.54,-143.25"/>
</g>
<!-- node10&#45;&gt;node0 -->
<g id="edge19" class="edge">
<title>node10&#45;&gt;node0</title>
<path fill="none" stroke="fuchsia" stroke-width="2" d="M1872.27,-108.97C1872.18,-108.98 1872.09,-108.99 1872,-109 1583.54,-141.13 1508.06,-110.47 1220,-146 1218.49,-146.19 1216.96,-146.38 1215.43,-146.59"/>
<polygon fill="fuchsia" stroke="fuchsia" stroke-width="2" points="1214.57,-143.18 1205.17,-148.07 1215.57,-150.11 1214.57,-143.18"/>
</g>
<!-- node11&#45;&gt;node0 -->
<g id="edge21" class="edge">
<title>node11&#45;&gt;node0</title>
<path fill="none" stroke="fuchsia" stroke-width="2" d="M2076.28,-108.97C2076.19,-108.98 2076.09,-108.99 2076,-109 1886.54,-127.94 1409.12,-123.97 1220,-146 1218.49,-146.18 1216.96,-146.36 1215.42,-146.56"/>
<polygon fill="fuchsia" stroke="fuchsia" stroke-width="2" points="1214.58,-143.14 1205.16,-148 1215.55,-150.08 1214.58,-143.14"/>
</g>
<!-- node11&#45;&gt;node12 -->
<g id="edge24" class="edge">
<title>node11&#45;&gt;node12</title>
<path fill="none" stroke="red" d="M2191.46,-72.81C2199.9,-64 2210.32,-53.13 2219.58,-43.46"/>
<polygon fill="red" stroke="red" points="2222.3,-45.67 2226.69,-36.03 2217.25,-40.83 2222.3,-45.67"/>
</g>
<!-- node12&#45;&gt;node0 -->
<g id="edge23" class="edge">
<title>node12&#45;&gt;node0</title>
<path fill="none" stroke="fuchsia" stroke-width="2" d="M2267.46,-36.27C2288.5,-56.04 2311.96,-88.34 2292,-109 2250.6,-151.86 1279.22,-139.36 1220,-146 1218.49,-146.17 1216.96,-146.35 1215.42,-146.54"/>
<polygon fill="fuchsia" stroke="fuchsia" stroke-width="2" points="1214.59,-143.12 1205.15,-147.95 1215.54,-150.06 1214.59,-143.12"/>
</g>
<!-- c0 -->
<!-- c1 -->
<!-- c0&#45;&gt;c1 -->
<g id="edge26" class="edge">
<title>c0&#45;&gt;c1</title>
<path fill="none" stroke="red" d="M2073.89,-164C2085.11,-164 2143.24,-164 2168.86,-164"/>
<polygon fill="red" stroke="red" points="2169.06,-167.5 2179.06,-164 2169.06,-160.5 2169.06,-167.5"/>
<text text-anchor="middle" x="2126.5" y="-170.8" font-family="Times,serif" font-size="14.00">Control flow</text>
</g>
<!-- c2 -->
<!-- c3 -->
<!-- c2&#45;&gt;c3 -->
<g id="edge27" class="edge">
<title>c2&#45;&gt;c3</title>
<path fill="none" stroke="red" stroke-dasharray="5,2" d="M1867.08,-164C1884.05,-164 2000.21,-164 2038.08,-164"/>
<polygon fill="red" stroke="red" points="2038.17,-167.5 2048.17,-164 2038.17,-160.5 2038.17,-167.5"/>
<text text-anchor="middle" x="1957.5" y="-170.8" font-family="Times,serif" font-size="14.00">Control flow back edge</text>
</g>
<!-- d0 -->
<!-- d1 -->
<!-- d0&#45;&gt;d1 -->
<g id="edge28" class="edge">
<title>d0&#45;&gt;d1</title>
<path fill="none" stroke="black" d="M1755.86,-164C1765.41,-164 1809.31,-164 1830.92,-164"/>
<polygon fill="black" stroke="black" points="1831.15,-167.5 1841.15,-164 1831.15,-160.5 1831.15,-167.5"/>
<text text-anchor="middle" x="1798.5" y="-170.8" font-family="Times,serif" font-size="14.00">Data flow</text>
</g>
<!-- d2 -->
<!-- d3 -->
<!-- d2&#45;&gt;d3 -->
<g id="edge29" class="edge">
<title>d2&#45;&gt;d3</title>
<path fill="none" stroke="black" stroke-dasharray="1,5" d="M1629.81,-164C1640.46,-164 1695.46,-164 1720.08,-164"/>
<polygon fill="black" stroke="black" points="1720.15,-167.5 1730.15,-164 1720.15,-160.5 1720.15,-167.5"/>
<text text-anchor="middle" x="1680" y="-170.8" font-family="Times,serif" font-size="14.00">Declaration</text>
</g>
<!-- d4 -->
<!-- d5 -->
<!-- d4&#45;&gt;d5 -->
<g id="edge30" class="edge">
<title>d4&#45;&gt;d5</title>
<path fill="none" stroke="blue" d="M1487.1,-164C1499.72,-164 1565.88,-164 1593.68,-164"/>
<polygon fill="blue" stroke="blue" points="1593.84,-167.5 1603.84,-164 1593.84,-160.5 1593.84,-167.5"/>
<text text-anchor="middle" x="1545.5" y="-170.8" font-family="Times,serif" font-size="14.00">PHI Data flow</text>
</g>
<!-- d6 -->
<!-- d7 -->
<!-- d6&#45;&gt;d7 -->
<g id="edge31" class="edge">
<title>d6&#45;&gt;d7</title>
<path fill="none" stroke="green" d="M1350,-164C1361.94,-164 1424.3,-164 1450.93,-164"/>
<polygon fill="green" stroke="green" points="1450.95,-167.5 1460.95,-164 1450.95,-160.5 1450.95,-167.5"/>
<text text-anchor="middle" x="1405.5" y="-170.8" font-family="Times,serif" font-size="14.00">Memory flow</text>
</g>
<!-- d8 -->
<!-- d9 -->
<!-- d8&#45;&gt;d9 -->
<g id="edge32" class="edge">
<title>d8&#45;&gt;d9</title>
<path fill="none" stroke="fuchsia" d="M1227.11,-164C1238.15,-164 1289.67,-164 1313.66,-164"/>
<polygon fill="fuchsia" stroke="fuchsia" points="1313.9,-167.5 1323.9,-164 1313.9,-160.5 1313.9,-167.5"/>
<text text-anchor="middle" x="1275.5" y="-170.8" font-family="Times,serif" font-size="14.00">Dominance</text>
</g>
</g>
</svg>
