<?xml version="1.0" encoding="UTF-8" standalone="no"?>
<!DOCTYPE svg PUBLIC "-//W3C//DTD SVG 1.1//EN"
 "http://www.w3.org/Graphics/SVG/1.1/DTD/svg11.dtd">
<!-- Generated by graphviz version 2.43.0 (0)
 -->
<!-- Title: debugoutput Pages: 1 -->
<svg width="2337pt" height="213pt"
 viewBox="0.00 0.00 2337.00 212.80" xmlns="http://www.w3.org/2000/svg" xmlns:xlink="http://www.w3.org/1999/xlink">
<g id="graph0" class="graph" transform="scale(1 1) rotate(0) translate(4 208.8)">
<title>debugoutput</title>
<polygon fill="white" stroke="transparent" points="-4,4 -4,-208.8 2333,-208.8 2333,4 -4,4"/>
<g id="clust1" class="cluster">
<title>cluster_000</title>
<polygon fill="none" stroke="black" points="1225,-154.2 1225,-196.8 2201,-196.8 2201,-154.2 1225,-154.2"/>
<text text-anchor="middle" x="1713" y="-181.6" font-family="Times,serif" font-size="14.00">Legend</text>
</g>
<!-- node0 -->
<g id="node1" class="node">
<title>node0</title>
<polygon fill="lightgrey" stroke="black" points="1215,-182 1049,-182 1049,-146 1215,-146 1215,-182"/>
<text text-anchor="middle" x="1132" y="-160.3" font-family="Times,serif" font-size="14.00">#0 Method Order : 0</text>
</g>
<!-- node1 -->
<g id="node2" class="node">
<title>node1</title>
<polygon fill="lightgrey" stroke="black" points="186,-109 0,-109 0,-73 186,-73 186,-109"/>
<text text-anchor="middle" x="93" y="-87.3" font-family="Times,serif" font-size="14.00">#1 arg2 : int Order : 12</text>
</g>
<!-- node0&#45;&gt;node1 -->
<g id="edge2" class="edge">
<title>node0&#45;&gt;node1</title>
<path fill="none" stroke="black" d="M1048.74,-161.33C885.32,-157.32 511.34,-144.74 195.98,-110.11"/>
<polygon fill="black" stroke="black" points="196.06,-106.59 185.73,-108.97 195.29,-113.55 196.06,-106.59"/>
<text text-anchor="middle" x="204.68" y="-98.87" font-family="Times,serif" font-size="14.00">*0</text>
</g>
<!-- node2 -->
<g id="node3" class="node">
<title>node2</title>
<polygon fill="lightgrey" stroke="black" points="419.5,-109 204.5,-109 204.5,-73 419.5,-73 419.5,-109"/>
<text text-anchor="middle" x="312" y="-87.3" font-family="Times,serif" font-size="14.00">#2 arg7 : double Order : 11</text>
</g>
<!-- node0&#45;&gt;node2 -->
<g id="edge4" class="edge">
<title>node0&#45;&gt;node2</title>
<path fill="none" stroke="black" d="M1048.81,-158.76C917.54,-151.39 654.45,-134.64 429.69,-110.07"/>
<polygon fill="black" stroke="black" points="430.02,-106.58 419.69,-108.97 429.25,-113.54 430.02,-106.58"/>
<text text-anchor="middle" x="438.64" y="-98.85" font-family="Times,serif" font-size="14.00">*0</text>
</g>
<!-- node3 -->
<g id="node4" class="node">
<title>node3</title>
<polygon fill="lightgrey" stroke="black" points="624,-109 438,-109 438,-73 624,-73 624,-109"/>
<text text-anchor="middle" x="531" y="-87.3" font-family="Times,serif" font-size="14.00">#3 arg1 : int Order : 10</text>
</g>
<!-- node0&#45;&gt;node3 -->
<g id="edge6" class="edge">
<title>node0&#45;&gt;node3</title>
<path fill="none" stroke="black" d="M1048.65,-156.04C949.98,-147.07 780.73,-130.23 633.82,-110.34"/>
<polygon fill="black" stroke="black" points="634.11,-106.85 623.73,-108.96 633.17,-113.78 634.11,-106.85"/>
<text text-anchor="middle" x="642.83" y="-99.34" font-family="Times,serif" font-size="14.00">*0</text>
</g>
<!-- node4 -->
<g id="node5" class="node">
<title>node4</title>
<polygon fill="lightgrey" stroke="black" points="830,-109 642,-109 642,-73 830,-73 830,-109"/>
<text text-anchor="middle" x="736" y="-87.3" font-family="Times,serif" font-size="14.00">#4 arg9 : int[] Order : 9</text>
</g>
<!-- node0&#45;&gt;node4 -->
<g id="edge8" class="edge">
<title>node0&#45;&gt;node4</title>
<path fill="none" stroke="black" d="M1048.74,-149.06C986.43,-138.15 901.02,-122.87 835.18,-110.87"/>
<polygon fill="black" stroke="black" points="835.66,-107.4 825.2,-109.04 834.41,-114.28 835.66,-107.4"/>
<text text-anchor="middle" x="844.55" y="-100.28" font-family="Times,serif" font-size="14.00">*0</text>
</g>
<!-- node5 -->
<g id="node6" class="node">
<title>node5</title>
<polygon fill="lightgrey" stroke="black" points="1025.5,-109 848.5,-109 848.5,-73 1025.5,-73 1025.5,-109"/>
<text text-anchor="middle" x="937" y="-87.3" font-family="Times,serif" font-size="14.00">#5 arg0 : int Order : 8</text>
</g>
<!-- node0&#45;&gt;node5 -->
<g id="edge10" class="edge">
<title>node0&#45;&gt;node5</title>
<path fill="none" stroke="black" d="M1079.43,-145.99C1050.96,-136.01 1016,-123.32 987.8,-112.76"/>
<polygon fill="black" stroke="black" points="988.72,-109.36 978.13,-109.11 986.26,-115.91 988.72,-109.36"/>
<text text-anchor="middle" x="998.07" y="-103.89" font-family="Times,serif" font-size="14.00">*0</text>
</g>
<!-- node6 -->
<g id="node7" class="node">
<title>node6</title>
<polygon fill="lightgrey" stroke="black" points="1220.5,-109 1043.5,-109 1043.5,-73 1220.5,-73 1220.5,-109"/>
<text text-anchor="middle" x="1132" y="-87.3" font-family="Times,serif" font-size="14.00">#6 arg4 : int Order : 7</text>
</g>
<!-- node0&#45;&gt;node6 -->
<g id="edge12" class="edge">
<title>node0&#45;&gt;node6</title>
<path fill="none" stroke="black" d="M1126.12,-145.81C1125.28,-137.79 1125.05,-128.05 1125.42,-119.07"/>
<polygon fill="black" stroke="black" points="1128.92,-119.25 1126.14,-109.03 1121.94,-118.75 1128.92,-119.25"/>
<text text-anchor="middle" x="1133.28" y="-124.01" font-family="Times,serif" font-size="14.00">*0</text>
</g>
<!-- node7 -->
<g id="node8" class="node">
<title>node7</title>
<polygon fill="lightgrey" stroke="black" points="1427.5,-109 1238.5,-109 1238.5,-73 1427.5,-73 1427.5,-109"/>
<text text-anchor="middle" x="1333" y="-87.3" font-family="Times,serif" font-size="14.00">#7 arg6 : float Order : 6</text>
</g>
<!-- node0&#45;&gt;node7 -->
<g id="edge14" class="edge">
<title>node0&#45;&gt;node7</title>
<path fill="none" stroke="black" d="M1174.29,-145.99C1201.72,-135.92 1237.92,-123.1 1268.84,-112.48"/>
<polygon fill="black" stroke="black" points="1270.35,-115.66 1278.68,-109.11 1268.09,-109.04 1270.35,-115.66"/>
<text text-anchor="middle" x="1264.27" y="-119.28" font-family="Times,serif" font-size="14.00">*0</text>
</g>
<!-- node8 -->
<g id="node9" class="node">
<title>node8</title>
<polygon fill="lightgrey" stroke="black" points="1622.5,-109 1445.5,-109 1445.5,-73 1622.5,-73 1622.5,-109"/>
<text text-anchor="middle" x="1534" y="-87.3" font-family="Times,serif" font-size="14.00">#8 arg3 : int Order : 5</text>
</g>
<!-- node0&#45;&gt;node8 -->
<g id="edge16" class="edge">
<title>node0&#45;&gt;node8</title>
<path fill="none" stroke="black" d="M1212.28,-145.95C1307.89,-128.63 1332.13,-125.61 1428,-109 1430.47,-108.57 1432.97,-108.14 1435.5,-107.7"/>
<polygon fill="black" stroke="black" points="1436.1,-111.15 1445.36,-105.99 1434.91,-104.25 1436.1,-111.15"/>
<text text-anchor="middle" x="1428.95" y="-113.72" font-family="Times,serif" font-size="14.00">*0</text>
</g>
<!-- node9 -->
<g id="node10" class="node">
<title>node9</title>
<polygon fill="lightgrey" stroke="black" points="1829,-109 1641,-109 1641,-73 1829,-73 1829,-109"/>
<text text-anchor="middle" x="1735" y="-87.3" font-family="Times,serif" font-size="14.00">#9 arg5 : long Order : 4</text>
</g>
<!-- node0&#45;&gt;node9 -->
<g id="edge18" class="edge">
<title>node0&#45;&gt;node9</title>
<path fill="none" stroke="black" d="M1212.27,-145.96C1393.68,-120.55 1441.15,-132.16 1623,-109 1625.56,-108.67 1628.15,-108.33 1630.76,-107.98"/>
<polygon fill="black" stroke="black" points="1631.52,-111.4 1640.94,-106.55 1630.55,-104.47 1631.52,-111.4"/>
<text text-anchor="middle" x="1624.17" y="-113.74" font-family="Times,serif" font-size="14.00">*0</text>
</g>
<!-- node10 -->
<g id="node11" class="node">
<title>node10</title>
<polygon fill="lightgrey" stroke="black" points="2059,-109 1847,-109 1847,-73 2059,-73 2059,-109"/>
<text text-anchor="middle" x="1953" y="-87.3" font-family="Times,serif" font-size="14.00">#10 arg8 : String Order : 3</text>
</g>
<!-- node0&#45;&gt;node10 -->
<g id="edge20" class="edge">
<title>node0&#45;&gt;node10</title>
<path fill="none" stroke="black" d="M1212.4,-145.95C1348.97,-128.96 1692.51,-123.15 1829,-109 1831.55,-108.74 1834.12,-108.46 1836.72,-108.16"/>
<polygon fill="black" stroke="black" points="1837.32,-111.62 1846.84,-106.97 1836.5,-104.67 1837.32,-111.62"/>
<text text-anchor="middle" x="1829.83" y="-113.79" font-family="Times,serif" font-size="14.00">*0</text>
</g>
<!-- node11 -->
<g id="node12" class="node">
<title>node11</title>
<polygon fill="lightgrey" stroke="black" points="2274.5,-109 2077.5,-109 2077.5,-73 2274.5,-73 2274.5,-109"/>
<text text-anchor="middle" x="2176" y="-87.3" font-family="Times,serif" font-size="14.00">#11 LabelNode Order : 1</text>
</g>
<!-- node0&#45;&gt;node11 -->
<g id="edge22" class="edge">
<title>node0&#45;&gt;node11</title>
<path fill="none" stroke="red" d="M1212.27,-145.97C1399.59,-124.16 1871.63,-127.78 2059,-109 2061.7,-108.73 2064.43,-108.44 2067.18,-108.12"/>
<polygon fill="red" stroke="red" points="2067.73,-111.58 2077.25,-106.92 2066.9,-104.63 2067.73,-111.58"/>
</g>
<!-- node12 -->
<g id="node13" class="node">
<title>node12</title>
<polygon fill="lightgrey" stroke="black" points="2329,-36 2159,-36 2159,0 2329,0 2329,-36"/>
<text text-anchor="middle" x="2244" y="-14.3" font-family="Times,serif" font-size="14.00">#12 Return Order : 2</text>
</g>
<!-- node0&#45;&gt;node12 -->
<g id="edge25" class="edge">
<title>node0&#45;&gt;node12</title>
<path fill="none" stroke="green" d="M1212.35,-145.96C1274.48,-139.46 2234.03,-151.42 2275,-109 2292.46,-90.92 2276.68,-63.93 2261.78,-44.22"/>
<polygon fill="green" stroke="green" points="2264.47,-41.98 2255.55,-36.27 2258.96,-46.3 2264.47,-41.98"/>
</g>
<!-- node1&#45;&gt;node0 -->
<g id="edge1" class="edge">
<title>node1&#45;&gt;node0</title>
<path fill="none" stroke="fuchsia" stroke-width="2" d="M186.21,-106.76C192.23,-107.59 198.2,-108.35 204,-109 508.49,-143.05 871.19,-156.21 1038.75,-160.8"/>
<polygon fill="fuchsia" stroke="fuchsia" stroke-width="2" points="1038.68,-164.3 1048.78,-161.07 1038.87,-157.3 1038.68,-164.3"/>
</g>
<!-- node2&#45;&gt;node0 -->
<g id="edge3" class="edge">
<title>node2&#45;&gt;node0</title>
<path fill="none" stroke="fuchsia" stroke-width="2" d="M419.55,-106.81C425.8,-107.59 431.98,-108.33 438,-109 652.62,-132.81 905.26,-149.45 1038.68,-157.49"/>
<polygon fill="fuchsia" stroke="fuchsia" stroke-width="2" points="1038.67,-161 1048.86,-158.1 1039.09,-154.01 1038.67,-161"/>
</g>
<!-- node3&#45;&gt;node0 -->
<g id="edge5" class="edge">
<title>node3&#45;&gt;node0</title>
<path fill="none" stroke="fuchsia" stroke-width="2" d="M624.25,-106.43C630.26,-107.34 636.22,-108.21 642,-109 779.78,-127.92 939.72,-144.24 1038.45,-153.84"/>
<polygon fill="fuchsia" stroke="fuchsia" stroke-width="2" points="1038.41,-157.36 1048.7,-154.84 1039.08,-150.39 1038.41,-157.36"/>
</g>
<!-- node4&#45;&gt;node0 -->
<g id="edge7" class="edge">
<title>node4&#45;&gt;node0</title>
<path fill="none" stroke="fuchsia" stroke-width="2" d="M830.31,-107.88C893.43,-118.97 976.1,-133.78 1038.96,-145.25"/>
<polygon fill="fuchsia" stroke="fuchsia" stroke-width="2" points="1038.4,-148.71 1048.87,-147.07 1039.66,-141.82 1038.4,-148.71"/>
</g>
<!-- node5&#45;&gt;node0 -->
<g id="edge9" class="edge">
<title>node5&#45;&gt;node0</title>
<path fill="none" stroke="fuchsia" stroke-width="2" d="M989.87,-109.11C1018.39,-119.11 1053.35,-131.81 1081.5,-142.36"/>
<polygon fill="fuchsia" stroke="fuchsia" stroke-width="2" points="1080.56,-145.74 1091.15,-145.99 1083.03,-139.19 1080.56,-145.74"/>
</g>
<!-- node6&#45;&gt;node0 -->
<g id="edge11" class="edge">
<title>node6&#45;&gt;node0</title>
<path fill="none" stroke="fuchsia" stroke-width="2" d="M1137.86,-109.03C1138.71,-117.03 1138.95,-126.77 1138.59,-135.75"/>
<polygon fill="fuchsia" stroke="fuchsia" stroke-width="2" points="1135.09,-135.59 1137.88,-145.81 1142.07,-136.08 1135.09,-135.59"/>
</g>
<!-- node7&#45;&gt;node0 -->
<g id="edge13" class="edge">
<title>node7&#45;&gt;node0</title>
<path fill="none" stroke="fuchsia" stroke-width="2" d="M1290.42,-109.11C1262.92,-119.2 1226.72,-132.03 1195.83,-142.63"/>
<polygon fill="fuchsia" stroke="fuchsia" stroke-width="2" points="1194.33,-139.45 1186,-145.99 1196.6,-146.07 1194.33,-139.45"/>
</g>
<!-- node8&#45;&gt;node0 -->
<g id="edge15" class="edge">
<title>node8&#45;&gt;node0</title>
<path fill="none" stroke="fuchsia" stroke-width="2" d="M1445.72,-109.05C1349.98,-125.63 1325.75,-128.66 1230,-146 1228.5,-146.27 1226.99,-146.55 1225.46,-146.83"/>
<polygon fill="fuchsia" stroke="fuchsia" stroke-width="2" points="1224.47,-143.45 1215.26,-148.7 1225.73,-150.33 1224.47,-143.45"/>
</g>
<!-- node9&#45;&gt;node0 -->
<g id="edge17" class="edge">
<title>node9&#45;&gt;node0</title>
<path fill="none" stroke="fuchsia" stroke-width="2" d="M1640.73,-109.03C1459.02,-132.16 1411.54,-120.55 1230,-146 1228.49,-146.21 1226.97,-146.43 1225.44,-146.66"/>
<polygon fill="fuchsia" stroke="fuchsia" stroke-width="2" points="1224.53,-143.26 1215.19,-148.26 1225.61,-150.17 1224.53,-143.26"/>
</g>
<!-- node10&#45;&gt;node0 -->
<g id="edge19" class="edge">
<title>node10&#45;&gt;node0</title>
<path fill="none" stroke="fuchsia" stroke-width="2" d="M1847.3,-108.97C1847.2,-108.98 1847.1,-108.99 1847,-109 1710.38,-123.17 1366.3,-128.97 1230,-146 1228.49,-146.19 1226.96,-146.39 1225.43,-146.6"/>
<polygon fill="fuchsia" stroke="fuchsia" stroke-width="2" points="1224.56,-143.18 1215.17,-148.09 1225.57,-150.11 1224.56,-143.18"/>
</g>
<!-- node11&#45;&gt;node0 -->
<g id="edge21" class="edge">
<title>node11&#45;&gt;node0</title>
<path fill="none" stroke="fuchsia" stroke-width="2" d="M2077.28,-108.97C2077.19,-108.98 2077.09,-108.99 2077,-109 1889.54,-127.79 1417.13,-124.16 1230,-146 1228.49,-146.18 1226.96,-146.36 1225.42,-146.56"/>
<polygon fill="fuchsia" stroke="fuchsia" stroke-width="2" points="1224.58,-143.15 1215.16,-148 1225.55,-150.08 1224.58,-143.15"/>
</g>
<!-- node11&#45;&gt;node12 -->
<g id="edge24" class="edge">
<title>node11&#45;&gt;node12</title>
<path fill="none" stroke="red" d="M2192.46,-72.81C2200.9,-64 2211.32,-53.13 2220.58,-43.46"/>
<polygon fill="red" stroke="red" points="2223.3,-45.67 2227.69,-36.03 2218.25,-40.83 2223.3,-45.67"/>
</g>
<!-- node12&#45;&gt;node0 -->
<g id="edge23" class="edge">
<title>node12&#45;&gt;node0</title>
<path fill="none" stroke="fuchsia" stroke-width="2" d="M2268.46,-36.27C2289.49,-56.03 2312.96,-88.34 2293,-109 2251.95,-151.5 1288.72,-139.41 1230,-146 1228.49,-146.17 1226.96,-146.35 1225.42,-146.54"/>
<polygon fill="fuchsia" stroke="fuchsia" stroke-width="2" points="1224.59,-143.12 1215.15,-147.95 1225.54,-150.06 1224.59,-143.12"/>
</g>
<!-- c0 -->
<!-- c1 -->
<!-- c0&#45;&gt;c1 -->
<g id="edge26" class="edge">
<title>c0&#45;&gt;c1</title>
<path fill="none" stroke="red" d="M2083.89,-164C2095.11,-164 2153.24,-164 2178.86,-164"/>
<polygon fill="red" stroke="red" points="2179.06,-167.5 2189.06,-164 2179.06,-160.5 2179.06,-167.5"/>
<text text-anchor="middle" x="2136.5" y="-170.8" font-family="Times,serif" font-size="14.00">Control flow</text>
</g>
<!-- c2 -->
<!-- c3 -->
<!-- c2&#45;&gt;c3 -->
<g id="edge27" class="edge">
<title>c2&#45;&gt;c3</title>
<path fill="none" stroke="red" stroke-dasharray="5,2" d="M1877.08,-164C1894.05,-164 2010.21,-164 2048.08,-164"/>
<polygon fill="red" stroke="red" points="2048.17,-167.5 2058.17,-164 2048.17,-160.5 2048.17,-167.5"/>
<text text-anchor="middle" x="1967.5" y="-170.8" font-family="Times,serif" font-size="14.00">Control flow back edge</text>
</g>
<!-- d0 -->
<!-- d1 -->
<!-- d0&#45;&gt;d1 -->
<g id="edge28" class="edge">
<title>d0&#45;&gt;d1</title>
<path fill="none" stroke="black" d="M1765.86,-164C1775.41,-164 1819.31,-164 1840.92,-164"/>
<polygon fill="black" stroke="black" points="1841.15,-167.5 1851.15,-164 1841.15,-160.5 1841.15,-167.5"/>
<text text-anchor="middle" x="1808.5" y="-170.8" font-family="Times,serif" font-size="14.00">Data flow</text>
</g>
<!-- d2 -->
<!-- d3 -->
<!-- d2&#45;&gt;d3 -->
<g id="edge29" class="edge">
<title>d2&#45;&gt;d3</title>
<path fill="none" stroke="black" stroke-dasharray="1,5" d="M1639.81,-164C1650.46,-164 1705.46,-164 1730.08,-164"/>
<polygon fill="black" stroke="black" points="1730.15,-167.5 1740.15,-164 1730.15,-160.5 1730.15,-167.5"/>
<text text-anchor="middle" x="1690" y="-170.8" font-family="Times,serif" font-size="14.00">Declaration</text>
</g>
<!-- d4 -->
<!-- d5 -->
<!-- d4&#45;&gt;d5 -->
<g id="edge30" class="edge">
<title>d4&#45;&gt;d5</title>
<path fill="none" stroke="blue" d="M1497.1,-164C1509.72,-164 1575.88,-164 1603.68,-164"/>
<polygon fill="blue" stroke="blue" points="1603.84,-167.5 1613.84,-164 1603.84,-160.5 1603.84,-167.5"/>
<text text-anchor="middle" x="1555.5" y="-170.8" font-family="Times,serif" font-size="14.00">PHI Data flow</text>
</g>
<!-- d6 -->
<!-- d7 -->
<!-- d6&#45;&gt;d7 -->
<g id="edge31" class="edge">
<title>d6&#45;&gt;d7</title>
<path fill="none" stroke="green" d="M1360,-164C1371.94,-164 1434.3,-164 1460.93,-164"/>
<polygon fill="green" stroke="green" points="1460.95,-167.5 1470.95,-164 1460.95,-160.5 1460.95,-167.5"/>
<text text-anchor="middle" x="1415.5" y="-170.8" font-family="Times,serif" font-size="14.00">Memory flow</text>
</g>
<!-- d8 -->
<!-- d9 -->
<!-- d8&#45;&gt;d9 -->
<g id="edge32" class="edge">
<title>d8&#45;&gt;d9</title>
<path fill="none" stroke="fuchsia" d="M1237.11,-164C1248.15,-164 1299.67,-164 1323.66,-164"/>
<polygon fill="fuchsia" stroke="fuchsia" points="1323.9,-167.5 1333.9,-164 1323.9,-160.5 1323.9,-167.5"/>
<text text-anchor="middle" x="1285.5" y="-170.8" font-family="Times,serif" font-size="14.00">Dominance</text>
</g>
</g>
</svg>
