<?xml version="1.0" encoding="UTF-8" standalone="no"?>
<!DOCTYPE svg PUBLIC "-//W3C//DTD SVG 1.1//EN"
 "http://www.w3.org/Graphics/SVG/1.1/DTD/svg11.dtd">
<!-- Generated by graphviz version 2.43.0 (0)
 -->
<!-- Title: debugoutput Pages: 1 -->
<svg width="2404pt" height="213pt"
 viewBox="0.00 0.00 2404.00 212.80" xmlns="http://www.w3.org/2000/svg" xmlns:xlink="http://www.w3.org/1999/xlink">
<g id="graph0" class="graph" transform="scale(1 1) rotate(0) translate(4 208.8)">
<title>debugoutput</title>
<polygon fill="white" stroke="transparent" points="-4,4 -4,-208.8 2400,-208.8 2400,4 -4,4"/>
<g id="clust1" class="cluster">
<title>cluster_000</title>
<polygon fill="none" stroke="black" points="1318,-154.2 1318,-196.8 2157,-196.8 2157,-154.2 1318,-154.2"/>
<text text-anchor="middle" x="1737.5" y="-181.6" font-family="Times,serif" font-size="14.00">Legend</text>
</g>
<!-- node0 -->
<g id="node1" class="node">
<title>node0</title>
<polygon fill="lightgrey" stroke="black" points="1308,-182 1142,-182 1142,-146 1308,-146 1308,-182"/>
<text text-anchor="middle" x="1225" y="-160.3" font-family="Times,serif" font-size="14.00">#0 Method Order : 0</text>
</g>
<!-- node1 -->
<g id="node2" class="node">
<title>node1</title>
<polygon fill="lightgrey" stroke="black" points="186,-109 0,-109 0,-73 186,-73 186,-109"/>
<text text-anchor="middle" x="93" y="-87.3" font-family="Times,serif" font-size="14.00">#1 arg3 : int Order : 12</text>
</g>
<!-- node0&#45;&gt;node1 -->
<g id="edge2" class="edge">
<title>node0&#45;&gt;node1</title>
<path fill="none" stroke="black" d="M1141.8,-161.9C966.75,-158.86 547.86,-147.84 195.86,-110.07"/>
<polygon fill="black" stroke="black" points="196.05,-106.57 185.73,-108.97 195.3,-113.53 196.05,-106.57"/>
<text text-anchor="middle" x="204.66" y="-98.82" font-family="Times,serif" font-size="14.00">*0</text>
</g>
<!-- node2 -->
<g id="node3" class="node">
<title>node2</title>
<polygon fill="lightgrey" stroke="black" points="401.5,-109 204.5,-109 204.5,-73 401.5,-73 401.5,-109"/>
<text text-anchor="middle" x="303" y="-87.3" font-family="Times,serif" font-size="14.00">#2 arg9 : int[] Order : 11</text>
</g>
<!-- node0&#45;&gt;node2 -->
<g id="edge4" class="edge">
<title>node0&#45;&gt;node2</title>
<path fill="none" stroke="black" d="M1141.83,-160.16C994.79,-154.43 679.51,-139.46 412.01,-110.11"/>
<polygon fill="black" stroke="black" points="412.04,-106.59 401.72,-108.97 411.27,-113.55 412.04,-106.59"/>
<text text-anchor="middle" x="420.66" y="-98.86" font-family="Times,serif" font-size="14.00">*0</text>
</g>
<!-- node3 -->
<g id="node4" class="node">
<title>node3</title>
<polygon fill="lightgrey" stroke="black" points="606,-109 420,-109 420,-73 606,-73 606,-109"/>
<text text-anchor="middle" x="513" y="-87.3" font-family="Times,serif" font-size="14.00">#3 arg1 : int Order : 10</text>
</g>
<!-- node0&#45;&gt;node3 -->
<g id="edge6" class="edge">
<title>node0&#45;&gt;node3</title>
<path fill="none" stroke="black" d="M1141.81,-158.12C1024.61,-150.49 804.32,-134.11 615.39,-110.32"/>
<polygon fill="black" stroke="black" points="615.64,-106.82 605.28,-109.04 614.76,-113.77 615.64,-106.82"/>
<text text-anchor="middle" x="624.33" y="-99.23" font-family="Times,serif" font-size="14.00">*0</text>
</g>
<!-- node4 -->
<g id="node5" class="node">
<title>node4</title>
<polygon fill="lightgrey" stroke="black" points="800.5,-109 623.5,-109 623.5,-73 800.5,-73 800.5,-109"/>
<text text-anchor="middle" x="712" y="-87.3" font-family="Times,serif" font-size="14.00">#4 arg2 : int Order : 9</text>
</g>
<!-- node0&#45;&gt;node4 -->
<g id="edge8" class="edge">
<title>node0&#45;&gt;node4</title>
<path fill="none" stroke="black" d="M1141.94,-154.11C1058.53,-144.44 926.27,-128.02 810.43,-110.58"/>
<polygon fill="black" stroke="black" points="810.76,-107.09 800.35,-109.05 809.71,-114.01 810.76,-107.09"/>
<text text-anchor="middle" x="819.53" y="-99.71" font-family="Times,serif" font-size="14.00">*0</text>
</g>
<!-- node5 -->
<g id="node6" class="node">
<title>node5</title>
<polygon fill="lightgrey" stroke="black" points="1021.5,-109 818.5,-109 818.5,-73 1021.5,-73 1021.5,-109"/>
<text text-anchor="middle" x="920" y="-87.3" font-family="Times,serif" font-size="14.00">#5 arg8 : String Order : 8</text>
</g>
<!-- node0&#45;&gt;node5 -->
<g id="edge10" class="edge">
<title>node0&#45;&gt;node5</title>
<path fill="none" stroke="black" d="M1146.09,-145.99C1100.24,-135.58 1042.76,-122.22 997.21,-111.39"/>
<polygon fill="black" stroke="black" points="997.93,-107.96 987.39,-109.05 996.3,-114.77 997.93,-107.96"/>
<text text-anchor="middle" x="1006.98" y="-101.33" font-family="Times,serif" font-size="14.00">*0</text>
</g>
<!-- node6 -->
<g id="node7" class="node">
<title>node6</title>
<polygon fill="lightgrey" stroke="black" points="1228.5,-109 1039.5,-109 1039.5,-73 1228.5,-73 1228.5,-109"/>
<text text-anchor="middle" x="1134" y="-87.3" font-family="Times,serif" font-size="14.00">#6 arg6 : float Order : 7</text>
</g>
<!-- node0&#45;&gt;node6 -->
<g id="edge12" class="edge">
<title>node0&#45;&gt;node6</title>
<path fill="none" stroke="black" d="M1197.34,-145.99C1184.76,-136.93 1170.1,-125.63 1157.98,-115.71"/>
<polygon fill="black" stroke="black" points="1159.99,-112.83 1150.06,-109.11 1155.51,-118.2 1159.99,-112.83"/>
<text text-anchor="middle" x="1169.4" y="-110.52" font-family="Times,serif" font-size="14.00">*0</text>
</g>
<!-- node7 -->
<g id="node8" class="node">
<title>node7</title>
<polygon fill="lightgrey" stroke="black" points="1423.5,-109 1246.5,-109 1246.5,-73 1423.5,-73 1423.5,-109"/>
<text text-anchor="middle" x="1335" y="-87.3" font-family="Times,serif" font-size="14.00">#7 arg0 : int Order : 6</text>
</g>
<!-- node0&#45;&gt;node7 -->
<g id="edge14" class="edge">
<title>node0&#45;&gt;node7</title>
<path fill="none" stroke="black" d="M1245.49,-145.99C1259.08,-136.58 1277.24,-124.76 1293.69,-114.57"/>
<polygon fill="black" stroke="black" points="1295.91,-117.32 1302.62,-109.11 1292.26,-111.35 1295.91,-117.32"/>
<text text-anchor="middle" x="1291.56" y="-122.08" font-family="Times,serif" font-size="14.00">*0</text>
</g>
<!-- node8 -->
<g id="node9" class="node">
<title>node8</title>
<polygon fill="lightgrey" stroke="black" points="1618.5,-109 1441.5,-109 1441.5,-73 1618.5,-73 1618.5,-109"/>
<text text-anchor="middle" x="1530" y="-87.3" font-family="Times,serif" font-size="14.00">#8 arg4 : int Order : 5</text>
</g>
<!-- node0&#45;&gt;node8 -->
<g id="edge16" class="edge">
<title>node0&#45;&gt;node8</title>
<path fill="none" stroke="black" d="M1292.2,-145.99C1335.92,-135.56 1393.39,-122.16 1440.91,-111.32"/>
<polygon fill="black" stroke="black" points="1441.91,-114.68 1450.88,-109.05 1440.36,-107.86 1441.91,-114.68"/>
<text text-anchor="middle" x="1435.09" y="-117.62" font-family="Times,serif" font-size="14.00">*0</text>
</g>
<!-- node9 -->
<g id="node10" class="node">
<title>node9</title>
<polygon fill="lightgrey" stroke="black" points="1843,-109 1637,-109 1637,-73 1843,-73 1843,-109"/>
<text text-anchor="middle" x="1740" y="-87.3" font-family="Times,serif" font-size="14.00">#9 arg7 : double Order : 4</text>
</g>
<!-- node0&#45;&gt;node9 -->
<g id="edge18" class="edge">
<title>node0&#45;&gt;node9</title>
<path fill="none" stroke="black" d="M1305.41,-145.94C1443.95,-124.59 1479.87,-127.75 1619,-109 1621.56,-108.66 1624.15,-108.3 1626.76,-107.94"/>
<polygon fill="black" stroke="black" points="1627.52,-111.37 1636.94,-106.51 1626.55,-104.44 1627.52,-111.37"/>
<text text-anchor="middle" x="1620.16" y="-113.7" font-family="Times,serif" font-size="14.00">*0</text>
</g>
<!-- node10 -->
<g id="node11" class="node">
<title>node10</title>
<polygon fill="lightgrey" stroke="black" points="2058.5,-109 1861.5,-109 1861.5,-73 2058.5,-73 2058.5,-109"/>
<text text-anchor="middle" x="1960" y="-87.3" font-family="Times,serif" font-size="14.00">#10 arg5 : long Order : 3</text>
</g>
<!-- node0&#45;&gt;node10 -->
<g id="edge20" class="edge">
<title>node0&#45;&gt;node10</title>
<path fill="none" stroke="black" d="M1305.35,-145.95C1542.75,-115.26 1604.95,-135.87 1843,-109 1845.69,-108.7 1848.42,-108.37 1851.17,-108.03"/>
<polygon fill="black" stroke="black" points="1851.75,-111.49 1861.23,-106.74 1850.86,-104.55 1851.75,-111.49"/>
<text text-anchor="middle" x="1844.32" y="-113.74" font-family="Times,serif" font-size="14.00">*0</text>
</g>
<!-- node11 -->
<g id="node12" class="node">
<title>node11</title>
<polygon fill="lightgrey" stroke="black" points="2273.5,-109 2076.5,-109 2076.5,-73 2273.5,-73 2273.5,-109"/>
<text text-anchor="middle" x="2175" y="-87.3" font-family="Times,serif" font-size="14.00">#11 LabelNode Order : 1</text>
</g>
<!-- node0&#45;&gt;node11 -->
<g id="edge22" class="edge">
<title>node0&#45;&gt;node11</title>
<path fill="none" stroke="red" d="M1305.49,-145.94C1472.39,-126.1 1892.3,-126.28 2059,-109 2061.41,-108.75 2063.84,-108.48 2066.3,-108.2"/>
<polygon fill="red" stroke="red" points="2066.99,-111.64 2076.49,-106.96 2066.14,-104.69 2066.99,-111.64"/>
</g>
<!-- node12 -->
<g id="node13" class="node">
<title>node12</title>
<polygon fill="lightgrey" stroke="black" points="2396,-36 2226,-36 2226,0 2396,0 2396,-36"/>
<text text-anchor="middle" x="2311" y="-14.3" font-family="Times,serif" font-size="14.00">#12 Return Order : 2</text>
</g>
<!-- node0&#45;&gt;node12 -->
<g id="edge25" class="edge">
<title>node0&#45;&gt;node12</title>
<path fill="none" stroke="black" d="M1305.32,-145.96C1361.93,-139.91 2231.32,-141.7 2274,-109 2293.03,-94.43 2299.45,-67.07 2303.14,-46.32"/>
<polygon fill="black" stroke="black" points="2306.64,-46.63 2304.88,-36.18 2299.74,-45.45 2306.64,-46.63"/>
</g>
<!-- node1&#45;&gt;node0 -->
<g id="edge1" class="edge">
<title>node1&#45;&gt;node0</title>
<path fill="none" stroke="green" stroke-width="2" d="M186.2,-106.8C192.23,-107.62 198.2,-108.37 204,-109 544.72,-146.21 951.75,-157.96 1131.69,-161.53"/>
<polygon fill="green" stroke="green" stroke-width="2" points="1131.84,-165.03 1141.91,-161.73 1131.98,-158.03 1131.84,-165.03"/>
</g>
<!-- node2&#45;&gt;node0 -->
<g id="edge3" class="edge">
<title>node2&#45;&gt;node0</title>
<path fill="none" stroke="green" stroke-width="2" d="M401.77,-106.76C407.94,-107.58 414.06,-108.34 420,-109 676.96,-137.69 981.37,-152.92 1131.63,-159.3"/>
<polygon fill="green" stroke="green" stroke-width="2" points="1131.6,-162.8 1141.74,-159.73 1131.9,-155.81 1131.6,-162.8"/>
</g>
<!-- node3&#45;&gt;node0 -->
<g id="edge5" class="edge">
<title>node3&#45;&gt;node0</title>
<path fill="none" stroke="green" stroke-width="2" d="M606.23,-106.69C611.91,-107.52 617.53,-108.3 623,-109 802.61,-132.02 1013.19,-148.28 1131.72,-156.61"/>
<polygon fill="green" stroke="green" stroke-width="2" points="1131.62,-160.11 1141.84,-157.32 1132.11,-153.13 1131.62,-160.11"/>
</g>
<!-- node4&#45;&gt;node0 -->
<g id="edge7" class="edge">
<title>node4&#45;&gt;node0</title>
<path fill="none" stroke="green" stroke-width="2" d="M800.6,-106.25C806.5,-107.21 812.34,-108.14 818,-109 925.47,-125.38 1049.05,-141.02 1131.63,-151.21"/>
<polygon fill="green" stroke="green" stroke-width="2" points="1131.39,-154.71 1141.75,-152.46 1132.25,-147.76 1131.39,-154.71"/>
</g>
<!-- node5&#45;&gt;node0 -->
<g id="edge9" class="edge">
<title>node5&#45;&gt;node0</title>
<path fill="none" stroke="green" stroke-width="2" d="M999.12,-109.05C1045,-119.48 1102.47,-132.84 1147.99,-143.66"/>
<polygon fill="green" stroke="green" stroke-width="2" points="1147.27,-147.08 1157.8,-145.99 1148.89,-140.27 1147.27,-147.08"/>
</g>
<!-- node6&#45;&gt;node0 -->
<g id="edge11" class="edge">
<title>node6&#45;&gt;node0</title>
<path fill="none" stroke="green" stroke-width="2" d="M1161.69,-109.03C1174.24,-118.07 1188.85,-129.33 1200.94,-139.23"/>
<polygon fill="green" stroke="green" stroke-width="2" points="1198.93,-142.1 1208.85,-145.81 1203.41,-136.72 1198.93,-142.1"/>
</g>
<!-- node7&#45;&gt;node0 -->
<g id="edge13" class="edge">
<title>node7&#45;&gt;node0</title>
<path fill="none" stroke="green" stroke-width="2" d="M1314.36,-109.11C1300.73,-118.55 1282.56,-130.37 1266.12,-140.54"/>
<polygon fill="green" stroke="green" stroke-width="2" points="1263.91,-137.79 1257.21,-145.99 1267.56,-143.76 1263.91,-137.79"/>
</g>
<!-- node8&#45;&gt;node0 -->
<g id="edge15" class="edge">
<title>node8&#45;&gt;node0</title>
<path fill="none" stroke="green" stroke-width="2" d="M1462.61,-109.05C1418.85,-119.5 1361.37,-132.89 1313.89,-143.72"/>
<polygon fill="green" stroke="green" stroke-width="2" points="1312.89,-140.36 1303.91,-145.99 1314.44,-147.19 1312.89,-140.36"/>
</g>
<!-- node9&#45;&gt;node0 -->
<g id="edge17" class="edge">
<title>node9&#45;&gt;node0</title>
<path fill="none" stroke="green" stroke-width="2" d="M1636.59,-109.05C1497.67,-127.76 1461.74,-124.6 1323,-146 1321.49,-146.23 1319.97,-146.47 1318.44,-146.72"/>
<polygon fill="green" stroke="green" stroke-width="2" points="1317.51,-143.32 1308.22,-148.41 1318.65,-150.23 1317.51,-143.32"/>
</g>
<!-- node10&#45;&gt;node0 -->
<g id="edge19" class="edge">
<title>node10&#45;&gt;node0</title>
<path fill="none" stroke="green" stroke-width="2" d="M1861.28,-108.97C1861.19,-108.98 1861.09,-108.99 1861,-109 1622.84,-135.88 1560.69,-115.24 1323,-146 1321.49,-146.2 1319.96,-146.4 1318.43,-146.61"/>
<polygon fill="green" stroke="green" stroke-width="2" points="1317.55,-143.21 1308.18,-148.14 1318.58,-150.13 1317.55,-143.21"/>
</g>
<!-- node11&#45;&gt;node0 -->
<g id="edge21" class="edge">
<title>node11&#45;&gt;node0</title>
<path fill="none" stroke="green" stroke-width="2" d="M2076.51,-109.05C1909.32,-126.3 1489.41,-126.12 1323,-146 1321.49,-146.18 1319.96,-146.37 1318.42,-146.57"/>
<polygon fill="green" stroke="green" stroke-width="2" points="1317.57,-143.16 1308.16,-148.03 1318.56,-150.09 1317.57,-143.16"/>
</g>
<!-- node11&#45;&gt;node12 -->
<g id="edge24" class="edge">
<title>node11&#45;&gt;node12</title>
<path fill="none" stroke="red" d="M2207.58,-72.99C2226.03,-63.36 2249.31,-51.21 2269.11,-40.87"/>
<polygon fill="red" stroke="red" points="2270.97,-43.84 2278.22,-36.11 2267.73,-37.64 2270.97,-43.84"/>
</g>
<!-- node12&#45;&gt;node0 -->
<g id="edge23" class="edge">
<title>node12&#45;&gt;node0</title>
<path fill="none" stroke="green" stroke-width="2" d="M2317.42,-36.18C2319.3,-57.14 2314.34,-91.88 2292,-109 2249.23,-141.76 1376.53,-139.9 1323,-146 1321.49,-146.17 1319.96,-146.36 1318.42,-146.55"/>
<polygon fill="green" stroke="green" stroke-width="2" points="1317.58,-143.13 1308.16,-147.97 1318.54,-150.07 1317.58,-143.13"/>
</g>
<!-- c0 -->
<!-- c1 -->
<!-- c0&#45;&gt;c1 -->
<g id="edge26" class="edge">
<title>c0&#45;&gt;c1</title>
<path fill="none" stroke="red" d="M2039.89,-164C2051.11,-164 2109.24,-164 2134.86,-164"/>
<polygon fill="red" stroke="red" points="2135.06,-167.5 2145.06,-164 2135.06,-160.5 2135.06,-167.5"/>
<text text-anchor="middle" x="2092.5" y="-170.8" font-family="Times,serif" font-size="14.00">Control flow</text>
</g>
<!-- c2 -->
<!-- c3 -->
<!-- c2&#45;&gt;c3 -->
<g id="edge27" class="edge">
<title>c2&#45;&gt;c3</title>
<path fill="none" stroke="red" stroke-dasharray="5,2" d="M1833.08,-164C1850.05,-164 1966.21,-164 2004.08,-164"/>
<polygon fill="red" stroke="red" points="2004.17,-167.5 2014.17,-164 2004.17,-160.5 2004.17,-167.5"/>
<text text-anchor="middle" x="1923.5" y="-170.8" font-family="Times,serif" font-size="14.00">Control flow back edge</text>
</g>
<!-- d0 -->
<!-- d1 -->
<!-- d0&#45;&gt;d1 -->
<g id="edge28" class="edge">
<title>d0&#45;&gt;d1</title>
<path fill="none" stroke="black" d="M1721.86,-164C1731.41,-164 1775.31,-164 1796.92,-164"/>
<polygon fill="black" stroke="black" points="1797.15,-167.5 1807.15,-164 1797.15,-160.5 1797.15,-167.5"/>
<text text-anchor="middle" x="1764.5" y="-170.8" font-family="Times,serif" font-size="14.00">Data flow</text>
</g>
<!-- d2 -->
<!-- d3 -->
<!-- d2&#45;&gt;d3 -->
<g id="edge29" class="edge">
<title>d2&#45;&gt;d3</title>
<path fill="none" stroke="black" stroke-dasharray="1,5" d="M1595.81,-164C1606.46,-164 1661.46,-164 1686.08,-164"/>
<polygon fill="black" stroke="black" points="1686.15,-167.5 1696.15,-164 1686.15,-160.5 1686.15,-167.5"/>
<text text-anchor="middle" x="1646" y="-170.8" font-family="Times,serif" font-size="14.00">Declaration</text>
</g>
<!-- d4 -->
<!-- d5 -->
<!-- d4&#45;&gt;d5 -->
<g id="edge30" class="edge">
<title>d4&#45;&gt;d5</title>
<path fill="none" stroke="blue" d="M1453.1,-164C1465.72,-164 1531.88,-164 1559.68,-164"/>
<polygon fill="blue" stroke="blue" points="1559.84,-167.5 1569.84,-164 1559.84,-160.5 1559.84,-167.5"/>
<text text-anchor="middle" x="1511.5" y="-170.8" font-family="Times,serif" font-size="14.00">PHI Data flow</text>
</g>
<!-- d6 -->
<!-- d7 -->
<!-- d6&#45;&gt;d7 -->
<g id="edge31" class="edge">
<title>d6&#45;&gt;d7</title>
<path fill="none" stroke="green" d="M1330.11,-164C1341.15,-164 1392.67,-164 1416.66,-164"/>
<polygon fill="green" stroke="green" points="1416.9,-167.5 1426.9,-164 1416.9,-160.5 1416.9,-167.5"/>
<text text-anchor="middle" x="1378.5" y="-170.8" font-family="Times,serif" font-size="14.00">Dominance</text>
</g>
</g>
</svg>
