<?xml version="1.0" encoding="UTF-8" standalone="no"?>
<!DOCTYPE svg PUBLIC "-//W3C//DTD SVG 1.1//EN"
 "http://www.w3.org/Graphics/SVG/1.1/DTD/svg11.dtd">
<!-- Generated by graphviz version 2.43.0 (0)
 -->
<!-- Title: debugoutput Pages: 1 -->
<svg width="2404pt" height="213pt"
 viewBox="0.00 0.00 2404.00 212.80" xmlns="http://www.w3.org/2000/svg" xmlns:xlink="http://www.w3.org/1999/xlink">
<g id="graph0" class="graph" transform="scale(1 1) rotate(0) translate(4 208.8)">
<title>debugoutput</title>
<polygon fill="white" stroke="transparent" points="-4,4 -4,-208.8 2400,-208.8 2400,4 -4,4"/>
<g id="clust1" class="cluster">
<title>cluster_000</title>
<polygon fill="none" stroke="black" points="1322,-154.2 1322,-196.8 2161,-196.8 2161,-154.2 1322,-154.2"/>
<text text-anchor="middle" x="1741.5" y="-181.6" font-family="Times,serif" font-size="14.00">Legend</text>
</g>
<!-- node0 -->
<g id="node1" class="node">
<title>node0</title>
<polygon fill="lightgrey" stroke="black" points="1312,-182 1146,-182 1146,-146 1312,-146 1312,-182"/>
<text text-anchor="middle" x="1229" y="-160.3" font-family="Times,serif" font-size="14.00">#0 Method Order : 0</text>
</g>
<!-- node1 -->
<g id="node2" class="node">
<title>node1</title>
<polygon fill="lightgrey" stroke="black" points="186,-109 0,-109 0,-73 186,-73 186,-109"/>
<text text-anchor="middle" x="93" y="-87.3" font-family="Times,serif" font-size="14.00">#1 arg2 : int Order : 12</text>
</g>
<!-- node0&#45;&gt;node1 -->
<g id="edge2" class="edge">
<title>node0&#45;&gt;node1</title>
<path fill="none" stroke="black" d="M1145.83,-161.92C970.32,-158.92 549.5,-147.98 195.91,-110.07"/>
<polygon fill="black" stroke="black" points="196.05,-106.57 185.73,-108.97 195.3,-113.53 196.05,-106.57"/>
<text text-anchor="middle" x="204.66" y="-98.82" font-family="Times,serif" font-size="14.00">*0</text>
</g>
<!-- node2 -->
<g id="node3" class="node">
<title>node2</title>
<polygon fill="lightgrey" stroke="black" points="401.5,-109 204.5,-109 204.5,-73 401.5,-73 401.5,-109"/>
<text text-anchor="middle" x="303" y="-87.3" font-family="Times,serif" font-size="14.00">#2 arg5 : long Order : 11</text>
</g>
<!-- node0&#45;&gt;node2 -->
<g id="edge4" class="edge">
<title>node0&#45;&gt;node2</title>
<path fill="none" stroke="black" d="M1145.74,-160.19C998.05,-154.5 680.74,-139.57 411.67,-110.07"/>
<polygon fill="black" stroke="black" points="412.04,-106.59 401.72,-108.97 411.27,-113.55 412.04,-106.59"/>
<text text-anchor="middle" x="420.66" y="-98.86" font-family="Times,serif" font-size="14.00">*0</text>
</g>
<!-- node3 -->
<g id="node4" class="node">
<title>node3</title>
<polygon fill="lightgrey" stroke="black" points="606,-109 420,-109 420,-73 606,-73 606,-109"/>
<text text-anchor="middle" x="513" y="-87.3" font-family="Times,serif" font-size="14.00">#3 arg4 : int Order : 10</text>
</g>
<!-- node0&#45;&gt;node3 -->
<g id="edge6" class="edge">
<title>node0&#45;&gt;node3</title>
<path fill="none" stroke="black" d="M1145.8,-158.18C1027.98,-150.6 805.9,-134.24 615.47,-110.33"/>
<polygon fill="black" stroke="black" points="615.64,-106.82 605.28,-109.04 614.76,-113.77 615.64,-106.82"/>
<text text-anchor="middle" x="624.33" y="-99.23" font-family="Times,serif" font-size="14.00">*0</text>
</g>
<!-- node4 -->
<g id="node5" class="node">
<title>node4</title>
<polygon fill="lightgrey" stroke="black" points="826.5,-109 623.5,-109 623.5,-73 826.5,-73 826.5,-109"/>
<text text-anchor="middle" x="725" y="-87.3" font-family="Times,serif" font-size="14.00">#4 arg8 : String Order : 9</text>
</g>
<!-- node0&#45;&gt;node4 -->
<g id="edge8" class="edge">
<title>node0&#45;&gt;node4</title>
<path fill="none" stroke="black" d="M1145.94,-152.93C1066.81,-142.7 944.28,-126.16 836.38,-110.51"/>
<polygon fill="black" stroke="black" points="836.72,-107.02 826.32,-109.05 835.72,-113.95 836.72,-107.02"/>
<text text-anchor="middle" x="845.48" y="-99.59" font-family="Times,serif" font-size="14.00">*0</text>
</g>
<!-- node5 -->
<g id="node6" class="node">
<title>node5</title>
<polygon fill="lightgrey" stroke="black" points="1033.5,-109 844.5,-109 844.5,-73 1033.5,-73 1033.5,-109"/>
<text text-anchor="middle" x="939" y="-87.3" font-family="Times,serif" font-size="14.00">#5 arg6 : float Order : 8</text>
</g>
<!-- node0&#45;&gt;node5 -->
<g id="edge10" class="edge">
<title>node0&#45;&gt;node5</title>
<path fill="none" stroke="black" d="M1153.68,-145.99C1110.3,-135.64 1056.04,-122.38 1012.9,-111.59"/>
<polygon fill="black" stroke="black" points="1013.58,-108.15 1003.03,-109.11 1011.88,-114.94 1013.58,-108.15"/>
<text text-anchor="middle" x="1022.67" y="-101.62" font-family="Times,serif" font-size="14.00">*0</text>
</g>
<!-- node6 -->
<g id="node7" class="node">
<title>node6</title>
<polygon fill="lightgrey" stroke="black" points="1228.5,-109 1051.5,-109 1051.5,-73 1228.5,-73 1228.5,-109"/>
<text text-anchor="middle" x="1140" y="-87.3" font-family="Times,serif" font-size="14.00">#6 arg3 : int Order : 7</text>
</g>
<!-- node0&#45;&gt;node6 -->
<g id="edge12" class="edge">
<title>node0&#45;&gt;node6</title>
<path fill="none" stroke="black" d="M1201.58,-145.81C1189.26,-136.74 1174.96,-125.48 1163.18,-115.6"/>
<polygon fill="black" stroke="black" points="1165.36,-112.86 1155.48,-109.03 1160.82,-118.18 1165.36,-112.86"/>
<text text-anchor="middle" x="1174.76" y="-110.67" font-family="Times,serif" font-size="14.00">*0</text>
</g>
<!-- node7 -->
<g id="node8" class="node">
<title>node7</title>
<polygon fill="lightgrey" stroke="black" points="1423.5,-109 1246.5,-109 1246.5,-73 1423.5,-73 1423.5,-109"/>
<text text-anchor="middle" x="1335" y="-87.3" font-family="Times,serif" font-size="14.00">#7 arg1 : int Order : 6</text>
</g>
<!-- node0&#45;&gt;node7 -->
<g id="edge14" class="edge">
<title>node0&#45;&gt;node7</title>
<path fill="none" stroke="black" d="M1248.53,-145.99C1261.59,-136.58 1279.08,-124.76 1294.96,-114.57"/>
<polygon fill="black" stroke="black" points="1297.01,-117.42 1303.58,-109.11 1293.26,-111.51 1297.01,-117.42"/>
<text text-anchor="middle" x="1292.79" y="-122.26" font-family="Times,serif" font-size="14.00">*0</text>
</g>
<!-- node8 -->
<g id="node9" class="node">
<title>node8</title>
<polygon fill="lightgrey" stroke="black" points="1630,-109 1442,-109 1442,-73 1630,-73 1630,-109"/>
<text text-anchor="middle" x="1536" y="-87.3" font-family="Times,serif" font-size="14.00">#8 arg9 : int[] Order : 5</text>
</g>
<!-- node0&#45;&gt;node8 -->
<g id="edge16" class="edge">
<title>node0&#45;&gt;node8</title>
<path fill="none" stroke="black" d="M1296.67,-145.99C1340.7,-135.56 1398.54,-122.16 1446.36,-111.32"/>
<polygon fill="black" stroke="black" points="1447.42,-114.67 1456.4,-109.05 1445.88,-107.84 1447.42,-114.67"/>
<text text-anchor="middle" x="1440.59" y="-117.6" font-family="Times,serif" font-size="14.00">*0</text>
</g>
<!-- node9 -->
<g id="node10" class="node">
<title>node9</title>
<polygon fill="lightgrey" stroke="black" points="1825.5,-109 1648.5,-109 1648.5,-73 1825.5,-73 1825.5,-109"/>
<text text-anchor="middle" x="1737" y="-87.3" font-family="Times,serif" font-size="14.00">#9 arg0 : int Order : 4</text>
</g>
<!-- node0&#45;&gt;node9 -->
<g id="edge18" class="edge">
<title>node0&#45;&gt;node9</title>
<path fill="none" stroke="black" d="M1309.42,-145.94C1451.03,-124.3 1488,-129.48 1630,-109 1632.71,-108.61 1635.46,-108.2 1638.24,-107.78"/>
<polygon fill="black" stroke="black" points="1639.05,-111.2 1648.39,-106.2 1637.97,-104.28 1639.05,-111.2"/>
<text text-anchor="middle" x="1631.78" y="-113.64" font-family="Times,serif" font-size="14.00">*0</text>
</g>
<!-- node10 -->
<g id="node11" class="node">
<title>node10</title>
<polygon fill="lightgrey" stroke="black" points="2058.5,-109 1843.5,-109 1843.5,-73 2058.5,-73 2058.5,-109"/>
<text text-anchor="middle" x="1951" y="-87.3" font-family="Times,serif" font-size="14.00">#10 arg7 : double Order : 3</text>
</g>
<!-- node0&#45;&gt;node10 -->
<g id="edge20" class="edge">
<title>node0&#45;&gt;node10</title>
<path fill="none" stroke="black" d="M1309.33,-145.96C1537.48,-116.13 1597.1,-133.93 1826,-109 1828.39,-108.74 1830.81,-108.47 1833.24,-108.18"/>
<polygon fill="black" stroke="black" points="1833.84,-111.64 1843.35,-106.97 1833.01,-104.69 1833.84,-111.64"/>
<text text-anchor="middle" x="1826.37" y="-113.83" font-family="Times,serif" font-size="14.00">*0</text>
</g>
<!-- node11 -->
<g id="node12" class="node">
<title>node11</title>
<polygon fill="lightgrey" stroke="black" points="2273.5,-109 2076.5,-109 2076.5,-73 2273.5,-73 2273.5,-109"/>
<text text-anchor="middle" x="2175" y="-87.3" font-family="Times,serif" font-size="14.00">#11 LabelNode Order : 1</text>
</g>
<!-- node0&#45;&gt;node11 -->
<g id="edge22" class="edge">
<title>node0&#45;&gt;node11</title>
<path fill="none" stroke="red" d="M1309.49,-145.94C1475.51,-126.19 1893.18,-126.21 2059,-109 2061.41,-108.75 2063.84,-108.48 2066.3,-108.2"/>
<polygon fill="red" stroke="red" points="2066.99,-111.64 2076.49,-106.95 2066.14,-104.69 2066.99,-111.64"/>
</g>
<!-- node12 -->
<g id="node13" class="node">
<title>node12</title>
<polygon fill="lightgrey" stroke="black" points="2396,-36 2226,-36 2226,0 2396,0 2396,-36"/>
<text text-anchor="middle" x="2311" y="-14.3" font-family="Times,serif" font-size="14.00">#12 Return Order : 2</text>
</g>
<!-- node0&#45;&gt;node12 -->
<g id="edge25" class="edge">
<title>node0&#45;&gt;node12</title>
<path fill="none" stroke="black" d="M1309.32,-145.96C1365.7,-139.93 2231.49,-141.56 2274,-109 2293.03,-94.42 2299.45,-67.07 2303.14,-46.32"/>
<polygon fill="black" stroke="black" points="2306.64,-46.63 2304.88,-36.18 2299.74,-45.45 2306.64,-46.63"/>
</g>
<!-- node1&#45;&gt;node0 -->
<g id="edge1" class="edge">
<title>node1&#45;&gt;node0</title>
<path fill="none" stroke="green" stroke-width="2" d="M186.2,-106.8C192.23,-107.62 198.2,-108.37 204,-109 546.26,-146.34 955.18,-158.03 1135.65,-161.55"/>
<polygon fill="green" stroke="green" stroke-width="2" points="1135.84,-165.06 1145.9,-161.75 1135.97,-158.06 1135.84,-165.06"/>
</g>
<!-- node2&#45;&gt;node0 -->
<g id="edge3" class="edge">
<title>node2&#45;&gt;node0</title>
<path fill="none" stroke="green" stroke-width="2" d="M401.77,-106.76C407.94,-107.58 414.06,-108.34 420,-109 678.56,-137.83 984.95,-153.02 1135.75,-159.35"/>
<polygon fill="green" stroke="green" stroke-width="2" points="1135.76,-162.85 1145.9,-159.77 1136.05,-155.86 1135.76,-162.85"/>
</g>
<!-- node3&#45;&gt;node0 -->
<g id="edge5" class="edge">
<title>node3&#45;&gt;node0</title>
<path fill="none" stroke="green" stroke-width="2" d="M606.23,-106.69C611.91,-107.52 617.53,-108.3 623,-109 804.04,-132.15 1016.35,-148.39 1135.57,-156.68"/>
<polygon fill="green" stroke="green" stroke-width="2" points="1135.54,-160.18 1145.76,-157.38 1136.02,-153.2 1135.54,-160.18"/>
</g>
<!-- node4&#45;&gt;node0 -->
<g id="edge7" class="edge">
<title>node4&#45;&gt;node0</title>
<path fill="none" stroke="green" stroke-width="2" d="M826.69,-106.44C832.56,-107.32 838.36,-108.18 844,-109 943.55,-123.51 1057.41,-139 1135.39,-149.65"/>
<polygon fill="green" stroke="green" stroke-width="2" points="1135.29,-153.17 1145.67,-151.05 1136.24,-146.23 1135.29,-153.17"/>
</g>
<!-- node5&#45;&gt;node0 -->
<g id="edge9" class="edge">
<title>node5&#45;&gt;node0</title>
<path fill="none" stroke="green" stroke-width="2" d="M1014.51,-109.05C1058.01,-119.43 1112.38,-132.73 1155.53,-143.52"/>
<polygon fill="green" stroke="green" stroke-width="2" points="1154.85,-146.96 1165.4,-145.99 1156.55,-140.17 1154.85,-146.96"/>
</g>
<!-- node6&#45;&gt;node0 -->
<g id="edge11" class="edge">
<title>node6&#45;&gt;node0</title>
<path fill="none" stroke="green" stroke-width="2" d="M1167.21,-109.03C1179.5,-118.07 1193.8,-129.33 1205.61,-139.23"/>
<polygon fill="green" stroke="green" stroke-width="2" points="1203.45,-141.99 1213.33,-145.81 1208,-136.66 1203.45,-141.99"/>
</g>
<!-- node7&#45;&gt;node0 -->
<g id="edge13" class="edge">
<title>node7&#45;&gt;node0</title>
<path fill="none" stroke="green" stroke-width="2" d="M1315.32,-109.11C1302.23,-118.55 1284.73,-130.37 1268.86,-140.54"/>
<polygon fill="green" stroke="green" stroke-width="2" points="1266.82,-137.69 1260.25,-145.99 1270.57,-143.6 1266.82,-137.69"/>
</g>
<!-- node8&#45;&gt;node0 -->
<g id="edge15" class="edge">
<title>node8&#45;&gt;node0</title>
<path fill="none" stroke="green" stroke-width="2" d="M1468.13,-109.05C1424.07,-119.5 1366.22,-132.89 1318.43,-143.72"/>
<polygon fill="green" stroke="green" stroke-width="2" points="1317.37,-140.37 1308.39,-145.99 1318.92,-147.2 1317.37,-140.37"/>
</g>
<!-- node9&#45;&gt;node0 -->
<g id="edge17" class="edge">
<title>node9&#45;&gt;node0</title>
<path fill="none" stroke="green" stroke-width="2" d="M1648.26,-108.96C1648.17,-108.98 1648.09,-108.99 1648,-109 1505.86,-129.5 1468.96,-124.29 1327,-146 1325.49,-146.23 1323.97,-146.47 1322.44,-146.71"/>
<polygon fill="green" stroke="green" stroke-width="2" points="1321.51,-143.32 1312.21,-148.4 1322.65,-150.22 1321.51,-143.32"/>
</g>
<!-- node10&#45;&gt;node0 -->
<g id="edge19" class="edge">
<title>node10&#45;&gt;node0</title>
<path fill="none" stroke="green" stroke-width="2" d="M1843.66,-109.04C1614.93,-133.92 1555.31,-116.13 1327,-146 1325.49,-146.2 1323.96,-146.4 1322.43,-146.62"/>
<polygon fill="green" stroke="green" stroke-width="2" points="1321.55,-143.21 1312.18,-148.15 1322.59,-150.14 1321.55,-143.21"/>
</g>
<!-- node11&#45;&gt;node0 -->
<g id="edge21" class="edge">
<title>node11&#45;&gt;node0</title>
<path fill="none" stroke="green" stroke-width="2" d="M2076.51,-109.05C1910.21,-126.23 1492.53,-126.21 1327,-146 1325.49,-146.18 1323.96,-146.37 1322.42,-146.57"/>
<polygon fill="green" stroke="green" stroke-width="2" points="1321.57,-143.16 1312.16,-148.03 1322.56,-150.09 1321.57,-143.16"/>
</g>
<!-- node11&#45;&gt;node12 -->
<g id="edge24" class="edge">
<title>node11&#45;&gt;node12</title>
<path fill="none" stroke="red" d="M2207.58,-72.99C2226.03,-63.36 2249.31,-51.21 2269.11,-40.87"/>
<polygon fill="red" stroke="red" points="2270.97,-43.84 2278.22,-36.11 2267.73,-37.64 2270.97,-43.84"/>
</g>
<!-- node12&#45;&gt;node0 -->
<g id="edge23" class="edge">
<title>node12&#45;&gt;node0</title>
<path fill="none" stroke="green" stroke-width="2" d="M2317.42,-36.18C2319.3,-57.14 2314.34,-91.88 2292,-109 2249.41,-141.63 1380.31,-139.92 1327,-146 1325.49,-146.17 1323.96,-146.36 1322.42,-146.55"/>
<polygon fill="green" stroke="green" stroke-width="2" points="1321.58,-143.13 1312.16,-147.97 1322.54,-150.07 1321.58,-143.13"/>
</g>
<!-- c0 -->
<!-- c1 -->
<!-- c0&#45;&gt;c1 -->
<g id="edge26" class="edge">
<title>c0&#45;&gt;c1</title>
<path fill="none" stroke="red" d="M2043.89,-164C2055.11,-164 2113.24,-164 2138.86,-164"/>
<polygon fill="red" stroke="red" points="2139.06,-167.5 2149.06,-164 2139.06,-160.5 2139.06,-167.5"/>
<text text-anchor="middle" x="2096.5" y="-170.8" font-family="Times,serif" font-size="14.00">Control flow</text>
</g>
<!-- c2 -->
<!-- c3 -->
<!-- c2&#45;&gt;c3 -->
<g id="edge27" class="edge">
<title>c2&#45;&gt;c3</title>
<path fill="none" stroke="red" stroke-dasharray="5,2" d="M1837.08,-164C1854.05,-164 1970.21,-164 2008.08,-164"/>
<polygon fill="red" stroke="red" points="2008.17,-167.5 2018.17,-164 2008.17,-160.5 2008.17,-167.5"/>
<text text-anchor="middle" x="1927.5" y="-170.8" font-family="Times,serif" font-size="14.00">Control flow back edge</text>
</g>
<!-- d0 -->
<!-- d1 -->
<!-- d0&#45;&gt;d1 -->
<g id="edge28" class="edge">
<title>d0&#45;&gt;d1</title>
<path fill="none" stroke="black" d="M1725.86,-164C1735.41,-164 1779.31,-164 1800.92,-164"/>
<polygon fill="black" stroke="black" points="1801.15,-167.5 1811.15,-164 1801.15,-160.5 1801.15,-167.5"/>
<text text-anchor="middle" x="1768.5" y="-170.8" font-family="Times,serif" font-size="14.00">Data flow</text>
</g>
<!-- d2 -->
<!-- d3 -->
<!-- d2&#45;&gt;d3 -->
<g id="edge29" class="edge">
<title>d2&#45;&gt;d3</title>
<path fill="none" stroke="black" stroke-dasharray="1,5" d="M1599.81,-164C1610.46,-164 1665.46,-164 1690.08,-164"/>
<polygon fill="black" stroke="black" points="1690.15,-167.5 1700.15,-164 1690.15,-160.5 1690.15,-167.5"/>
<text text-anchor="middle" x="1650" y="-170.8" font-family="Times,serif" font-size="14.00">Declaration</text>
</g>
<!-- d4 -->
<!-- d5 -->
<!-- d4&#45;&gt;d5 -->
<g id="edge30" class="edge">
<title>d4&#45;&gt;d5</title>
<path fill="none" stroke="blue" d="M1457.1,-164C1469.72,-164 1535.88,-164 1563.68,-164"/>
<polygon fill="blue" stroke="blue" points="1563.84,-167.5 1573.84,-164 1563.84,-160.5 1563.84,-167.5"/>
<text text-anchor="middle" x="1515.5" y="-170.8" font-family="Times,serif" font-size="14.00">PHI Data flow</text>
</g>
<!-- d6 -->
<!-- d7 -->
<!-- d6&#45;&gt;d7 -->
<g id="edge31" class="edge">
<title>d6&#45;&gt;d7</title>
<path fill="none" stroke="green" d="M1334.11,-164C1345.15,-164 1396.67,-164 1420.66,-164"/>
<polygon fill="green" stroke="green" points="1420.9,-167.5 1430.9,-164 1420.9,-160.5 1420.9,-167.5"/>
<text text-anchor="middle" x="1382.5" y="-170.8" font-family="Times,serif" font-size="14.00">Dominance</text>
</g>
</g>
</svg>
