<?xml version="1.0" encoding="UTF-8" standalone="no"?>
<!DOCTYPE svg PUBLIC "-//W3C//DTD SVG 1.1//EN"
 "http://www.w3.org/Graphics/SVG/1.1/DTD/svg11.dtd">
<!-- Generated by graphviz version 2.43.0 (0)
 -->
<!-- Title: debugoutput Pages: 1 -->
<svg width="2404pt" height="213pt"
 viewBox="0.00 0.00 2404.00 212.80" xmlns="http://www.w3.org/2000/svg" xmlns:xlink="http://www.w3.org/1999/xlink">
<g id="graph0" class="graph" transform="scale(1 1) rotate(0) translate(4 208.8)">
<title>debugoutput</title>
<polygon fill="white" stroke="transparent" points="-4,4 -4,-208.8 2400,-208.8 2400,4 -4,4"/>
<g id="clust1" class="cluster">
<title>cluster_000</title>
<polygon fill="none" stroke="black" points="1338,-154.2 1338,-196.8 2177,-196.8 2177,-154.2 1338,-154.2"/>
<text text-anchor="middle" x="1757.5" y="-181.6" font-family="Times,serif" font-size="14.00">Legend</text>
</g>
<!-- node0 -->
<g id="node1" class="node">
<title>node0</title>
<polygon fill="lightgrey" stroke="black" points="1328,-182 1162,-182 1162,-146 1328,-146 1328,-182"/>
<text text-anchor="middle" x="1245" y="-160.3" font-family="Times,serif" font-size="14.00">#0 Method Order : 0</text>
</g>
<!-- node1 -->
<g id="node2" class="node">
<title>node1</title>
<polygon fill="lightgrey" stroke="black" points="186,-109 0,-109 0,-73 186,-73 186,-109"/>
<text text-anchor="middle" x="93" y="-87.3" font-family="Times,serif" font-size="14.00">#1 arg1 : int Order : 12</text>
</g>
<!-- node0&#45;&gt;node1 -->
<g id="edge2" class="edge">
<title>node0&#45;&gt;node1</title>
<path fill="none" stroke="red" d="M1161.96,-162.01C984.58,-159.18 555.85,-148.52 195.83,-110.06"/>
<polygon fill="red" stroke="red" points="196.05,-106.56 185.73,-108.97 195.3,-113.52 196.05,-106.56"/>
</g>
<!-- node2 -->
<g id="node3" class="node">
<title>node2</title>
<polygon fill="lightgrey" stroke="black" points="419.5,-109 204.5,-109 204.5,-73 419.5,-73 419.5,-109"/>
<text text-anchor="middle" x="312" y="-87.3" font-family="Times,serif" font-size="14.00">#2 arg7 : double Order : 11</text>
</g>
<!-- node0&#45;&gt;node2 -->
<g id="edge4" class="edge">
<title>node0&#45;&gt;node2</title>
<path fill="none" stroke="red" d="M1161.96,-159.88C1014.75,-153.68 698.54,-137.95 430.03,-110.05"/>
<polygon fill="red" stroke="red" points="430,-106.53 419.69,-108.97 429.27,-113.49 430,-106.53"/>
</g>
<!-- node3 -->
<g id="node4" class="node">
<title>node3</title>
<polygon fill="lightgrey" stroke="black" points="624,-109 438,-109 438,-73 624,-73 624,-109"/>
<text text-anchor="middle" x="531" y="-87.3" font-family="Times,serif" font-size="14.00">#3 arg0 : int Order : 10</text>
</g>
<!-- node0&#45;&gt;node3 -->
<g id="edge6" class="edge">
<title>node0&#45;&gt;node3</title>
<path fill="none" stroke="red" d="M1161.56,-158.13C1043.98,-150.52 822.97,-134.16 633.42,-110.32"/>
<polygon fill="red" stroke="red" points="633.64,-106.82 623.28,-109.04 632.76,-113.77 633.64,-106.82"/>
</g>
<!-- node4 -->
<g id="node5" class="node">
<title>node4</title>
<polygon fill="lightgrey" stroke="black" points="844.5,-109 641.5,-109 641.5,-73 844.5,-73 844.5,-109"/>
<text text-anchor="middle" x="743" y="-87.3" font-family="Times,serif" font-size="14.00">#4 arg8 : String Order : 9</text>
</g>
<!-- node0&#45;&gt;node4 -->
<g id="edge8" class="edge">
<title>node0&#45;&gt;node4</title>
<path fill="none" stroke="red" d="M1161.95,-152.87C1083.2,-142.61 961.5,-126.09 854.32,-110.5"/>
<polygon fill="red" stroke="red" points="854.72,-107.03 844.32,-109.05 853.71,-113.95 854.72,-107.03"/>
</g>
<!-- node5 -->
<g id="node6" class="node">
<title>node5</title>
<polygon fill="lightgrey" stroke="black" points="1039.5,-109 862.5,-109 862.5,-73 1039.5,-73 1039.5,-109"/>
<text text-anchor="middle" x="951" y="-87.3" font-family="Times,serif" font-size="14.00">#5 arg4 : int Order : 8</text>
</g>
<!-- node0&#45;&gt;node5 -->
<g id="edge10" class="edge">
<title>node0&#45;&gt;node5</title>
<path fill="none" stroke="red" d="M1168.72,-145.99C1124.66,-135.62 1069.52,-122.32 1025.73,-111.52"/>
<polygon fill="red" stroke="red" points="1026.54,-108.12 1015.99,-109.11 1024.86,-114.91 1026.54,-108.12"/>
</g>
<!-- node6 -->
<g id="node7" class="node">
<title>node6</title>
<polygon fill="lightgrey" stroke="black" points="1246.5,-109 1057.5,-109 1057.5,-73 1246.5,-73 1246.5,-109"/>
<text text-anchor="middle" x="1152" y="-87.3" font-family="Times,serif" font-size="14.00">#6 arg6 : float Order : 7</text>
</g>
<!-- node0&#45;&gt;node6 -->
<g id="edge12" class="edge">
<title>node0&#45;&gt;node6</title>
<path fill="none" stroke="red" d="M1216.87,-145.99C1204.03,-136.93 1189.04,-125.63 1176.65,-115.71"/>
<polygon fill="red" stroke="red" points="1178.51,-112.71 1168.55,-109.11 1174.09,-118.14 1178.51,-112.71"/>
</g>
<!-- node7 -->
<g id="node8" class="node">
<title>node7</title>
<polygon fill="lightgrey" stroke="black" points="1453,-109 1265,-109 1265,-73 1453,-73 1453,-109"/>
<text text-anchor="middle" x="1359" y="-87.3" font-family="Times,serif" font-size="14.00">#7 arg9 : int[] Order : 6</text>
</g>
<!-- node0&#45;&gt;node7 -->
<g id="edge14" class="edge">
<title>node0&#45;&gt;node7</title>
<path fill="none" stroke="red" d="M1266.45,-145.99C1280.7,-136.49 1299.74,-124.54 1316.89,-114.29"/>
<polygon fill="red" stroke="red" points="1318.82,-117.22 1325.65,-109.11 1315.26,-111.19 1318.82,-117.22"/>
</g>
<!-- node8 -->
<g id="node9" class="node">
<title>node8</title>
<polygon fill="lightgrey" stroke="black" points="1659,-109 1471,-109 1471,-73 1659,-73 1659,-109"/>
<text text-anchor="middle" x="1565" y="-87.3" font-family="Times,serif" font-size="14.00">#8 arg5 : long Order : 5</text>
</g>
<!-- node0&#45;&gt;node8 -->
<g id="edge16" class="edge">
<title>node0&#45;&gt;node8</title>
<path fill="none" stroke="red" d="M1315.79,-145.99C1361.91,-135.51 1422.53,-122.05 1472.45,-111.19"/>
<polygon fill="red" stroke="red" points="1473.25,-114.59 1482.28,-109.05 1471.77,-107.75 1473.25,-114.59"/>
</g>
<!-- node9 -->
<g id="node10" class="node">
<title>node9</title>
<polygon fill="lightgrey" stroke="black" points="1854.5,-109 1677.5,-109 1677.5,-73 1854.5,-73 1854.5,-109"/>
<text text-anchor="middle" x="1766" y="-87.3" font-family="Times,serif" font-size="14.00">#9 arg3 : int Order : 4</text>
</g>
<!-- node0&#45;&gt;node9 -->
<g id="edge18" class="edge">
<title>node0&#45;&gt;node9</title>
<path fill="none" stroke="red" d="M1325.43,-145.93C1472.76,-123.76 1511.28,-129.98 1659,-109 1661.71,-108.62 1664.46,-108.21 1667.24,-107.8"/>
<polygon fill="red" stroke="red" points="1668.04,-111.21 1677.4,-106.23 1666.98,-104.3 1668.04,-111.21"/>
</g>
<!-- node10 -->
<g id="node11" class="node">
<title>node10</title>
<polygon fill="lightgrey" stroke="black" points="2058,-109 1872,-109 1872,-73 2058,-73 2058,-109"/>
<text text-anchor="middle" x="1965" y="-87.3" font-family="Times,serif" font-size="14.00">#10 arg2 : int Order : 3</text>
</g>
<!-- node0&#45;&gt;node10 -->
<g id="edge20" class="edge">
<title>node0&#45;&gt;node10</title>
<path fill="none" stroke="red" d="M1325.34,-145.96C1559.22,-115.59 1620.63,-136.84 1855,-109 1857.22,-108.74 1859.47,-108.46 1861.74,-108.16"/>
<polygon fill="red" stroke="red" points="1862.34,-111.61 1871.79,-106.81 1861.41,-104.68 1862.34,-111.61"/>
</g>
<!-- node11 -->
<g id="node12" class="node">
<title>node11</title>
<polygon fill="lightgrey" stroke="black" points="2273.5,-109 2076.5,-109 2076.5,-73 2273.5,-73 2273.5,-109"/>
<text text-anchor="middle" x="2175" y="-87.3" font-family="Times,serif" font-size="14.00">#11 LabelNode Order : 1</text>
</g>
<!-- node0&#45;&gt;node11 -->
<g id="edge22" class="edge">
<title>node0&#45;&gt;node11</title>
<path fill="none" stroke="red" d="M1325.48,-145.94C1487.73,-126.54 1895.93,-125.8 2058,-109 2060.69,-108.72 2063.42,-108.42 2066.18,-108.1"/>
<polygon fill="red" stroke="red" points="2066.74,-111.56 2076.24,-106.87 2065.89,-104.61 2066.74,-111.56"/>
</g>
<!-- node12 -->
<g id="node13" class="node">
<title>node12</title>
<polygon fill="lightgrey" stroke="black" points="2396,-36 2226,-36 2226,0 2396,0 2396,-36"/>
<text text-anchor="middle" x="2311" y="-14.3" font-family="Times,serif" font-size="14.00">#12 Return Order : 2</text>
</g>
<!-- node0&#45;&gt;node12 -->
<g id="edge25" class="edge">
<title>node0&#45;&gt;node12</title>
<path fill="none" stroke="black" d="M1325.32,-145.96C1380.76,-140.01 2232.21,-141.04 2274,-109 2293.02,-94.42 2299.44,-67.06 2303.14,-46.32"/>
<polygon fill="black" stroke="black" points="2306.64,-46.63 2304.88,-36.18 2299.74,-45.44 2306.64,-46.63"/>
</g>
<!-- node1&#45;&gt;node0 -->
<g id="edge1" class="edge">
<title>node1&#45;&gt;node0</title>
<path fill="none" stroke="green" stroke-width="2" d="M186.2,-106.81C192.23,-107.63 198.2,-108.37 204,-109 552.62,-146.89 969.34,-158.32 1151.8,-161.67"/>
<polygon fill="green" stroke="green" stroke-width="2" points="1151.84,-165.17 1161.9,-161.85 1151.96,-158.17 1151.84,-165.17"/>
</g>
<!-- node2&#45;&gt;node0 -->
<g id="edge3" class="edge">
<title>node2&#45;&gt;node0</title>
<path fill="none" stroke="green" stroke-width="2" d="M419.54,-106.88C425.79,-107.65 431.98,-108.36 438,-109 695.93,-136.23 1001.26,-152.1 1151.73,-158.95"/>
<polygon fill="green" stroke="green" stroke-width="2" points="1151.71,-162.45 1161.86,-159.41 1152.03,-155.46 1151.71,-162.45"/>
</g>
<!-- node3&#45;&gt;node0 -->
<g id="edge5" class="edge">
<title>node3&#45;&gt;node0</title>
<path fill="none" stroke="green" stroke-width="2" d="M624.23,-106.69C629.91,-107.52 635.53,-108.3 641,-109 821.2,-132.07 1032.47,-148.31 1151.39,-156.63"/>
<polygon fill="green" stroke="green" stroke-width="2" points="1151.33,-160.13 1161.55,-157.33 1151.82,-153.15 1151.33,-160.13"/>
</g>
<!-- node4&#45;&gt;node0 -->
<g id="edge7" class="edge">
<title>node4&#45;&gt;node0</title>
<path fill="none" stroke="green" stroke-width="2" d="M844.69,-106.44C850.56,-107.32 856.36,-108.18 862,-109 960.88,-123.45 1073.96,-138.92 1151.52,-149.57"/>
<polygon fill="green" stroke="green" stroke-width="2" points="1151.37,-153.09 1161.75,-150.98 1152.32,-146.15 1151.37,-153.09"/>
</g>
<!-- node5&#45;&gt;node0 -->
<g id="edge9" class="edge">
<title>node5&#45;&gt;node0</title>
<path fill="none" stroke="green" stroke-width="2" d="M1027.47,-109.05C1071.65,-119.45 1126.91,-132.78 1170.71,-143.59"/>
<polygon fill="green" stroke="green" stroke-width="2" points="1169.89,-146.99 1180.44,-145.99 1171.57,-140.2 1169.89,-146.99"/>
</g>
<!-- node6&#45;&gt;node0 -->
<g id="edge11" class="edge">
<title>node6&#45;&gt;node0</title>
<path fill="none" stroke="green" stroke-width="2" d="M1180.17,-109.03C1192.97,-118.07 1207.91,-129.33 1220.27,-139.23"/>
<polygon fill="green" stroke="green" stroke-width="2" points="1218.4,-142.22 1228.37,-145.81 1222.82,-136.79 1218.4,-142.22"/>
</g>
<!-- node7&#45;&gt;node0 -->
<g id="edge13" class="edge">
<title>node7&#45;&gt;node0</title>
<path fill="none" stroke="green" stroke-width="2" d="M1337.39,-109.11C1323.11,-118.63 1304.05,-130.59 1286.92,-140.82"/>
<polygon fill="green" stroke="green" stroke-width="2" points="1284.99,-137.89 1278.17,-145.99 1288.55,-143.92 1284.99,-137.89"/>
</g>
<!-- node8&#45;&gt;node0 -->
<g id="edge15" class="edge">
<title>node8&#45;&gt;node0</title>
<path fill="none" stroke="green" stroke-width="2" d="M1494.01,-109.05C1447.84,-119.54 1387.23,-133.01 1337.33,-143.86"/>
<polygon fill="green" stroke="green" stroke-width="2" points="1336.54,-140.45 1327.51,-145.99 1338.02,-147.29 1336.54,-140.45"/>
</g>
<!-- node9&#45;&gt;node0 -->
<g id="edge17" class="edge">
<title>node9&#45;&gt;node0</title>
<path fill="none" stroke="green" stroke-width="2" d="M1677.26,-108.96C1677.17,-108.98 1677.09,-108.99 1677,-109 1529.13,-130 1490.69,-123.75 1343,-146 1341.49,-146.23 1339.97,-146.46 1338.44,-146.7"/>
<polygon fill="green" stroke="green" stroke-width="2" points="1337.52,-143.31 1328.21,-148.37 1338.64,-150.22 1337.52,-143.31"/>
</g>
<!-- node10&#45;&gt;node0 -->
<g id="edge19" class="edge">
<title>node10&#45;&gt;node0</title>
<path fill="none" stroke="green" stroke-width="2" d="M1872.66,-109.04C1638.46,-136.83 1577.05,-115.59 1343,-146 1341.49,-146.2 1339.96,-146.4 1338.43,-146.62"/>
<polygon fill="green" stroke="green" stroke-width="2" points="1337.55,-143.21 1328.18,-148.14 1338.58,-150.13 1337.55,-143.21"/>
</g>
<!-- node11&#45;&gt;node0 -->
<g id="edge21" class="edge">
<title>node11&#45;&gt;node0</title>
<path fill="none" stroke="green" stroke-width="2" d="M2076.28,-108.97C2076.19,-108.98 2076.09,-108.99 2076,-109 1913.77,-125.81 1504.93,-126.54 1343,-146 1341.49,-146.18 1339.96,-146.37 1338.42,-146.58"/>
<polygon fill="green" stroke="green" stroke-width="2" points="1337.57,-143.16 1328.16,-148.04 1338.56,-150.09 1337.57,-143.16"/>
</g>
<!-- node11&#45;&gt;node12 -->
<g id="edge24" class="edge">
<title>node11&#45;&gt;node12</title>
<path fill="none" stroke="red" d="M2207.58,-72.99C2226.03,-63.36 2249.31,-51.21 2269.11,-40.87"/>
<polygon fill="red" stroke="red" points="2270.97,-43.84 2278.22,-36.11 2267.73,-37.64 2270.97,-43.84"/>
</g>
<!-- node12&#45;&gt;node0 -->
<g id="edge23" class="edge">
<title>node12&#45;&gt;node0</title>
<path fill="none" stroke="green" stroke-width="2" d="M2317.42,-36.18C2319.3,-57.13 2314.34,-91.88 2292,-109 2250.13,-141.1 1395.42,-140.01 1343,-146 1341.49,-146.17 1339.96,-146.36 1338.42,-146.55"/>
<polygon fill="green" stroke="green" stroke-width="2" points="1337.58,-143.13 1328.16,-147.97 1338.54,-150.07 1337.58,-143.13"/>
</g>
<!-- c0 -->
<!-- c1 -->
<!-- c0&#45;&gt;c1 -->
<g id="edge26" class="edge">
<title>c0&#45;&gt;c1</title>
<path fill="none" stroke="red" d="M2059.89,-164C2071.11,-164 2129.24,-164 2154.86,-164"/>
<polygon fill="red" stroke="red" points="2155.06,-167.5 2165.06,-164 2155.06,-160.5 2155.06,-167.5"/>
<text text-anchor="middle" x="2112.5" y="-170.8" font-family="Times,serif" font-size="14.00">Control flow</text>
</g>
<!-- c2 -->
<!-- c3 -->
<!-- c2&#45;&gt;c3 -->
<g id="edge27" class="edge">
<title>c2&#45;&gt;c3</title>
<path fill="none" stroke="red" stroke-dasharray="5,2" d="M1853.08,-164C1870.05,-164 1986.21,-164 2024.08,-164"/>
<polygon fill="red" stroke="red" points="2024.17,-167.5 2034.17,-164 2024.17,-160.5 2024.17,-167.5"/>
<text text-anchor="middle" x="1943.5" y="-170.8" font-family="Times,serif" font-size="14.00">Control flow back edge</text>
</g>
<!-- d0 -->
<!-- d1 -->
<!-- d0&#45;&gt;d1 -->
<g id="edge28" class="edge">
<title>d0&#45;&gt;d1</title>
<path fill="none" stroke="black" d="M1741.86,-164C1751.41,-164 1795.31,-164 1816.92,-164"/>
<polygon fill="black" stroke="black" points="1817.15,-167.5 1827.15,-164 1817.15,-160.5 1817.15,-167.5"/>
<text text-anchor="middle" x="1784.5" y="-170.8" font-family="Times,serif" font-size="14.00">Data flow</text>
</g>
<!-- d2 -->
<!-- d3 -->
<!-- d2&#45;&gt;d3 -->
<g id="edge29" class="edge">
<title>d2&#45;&gt;d3</title>
<path fill="none" stroke="black" stroke-dasharray="1,5" d="M1615.81,-164C1626.46,-164 1681.46,-164 1706.08,-164"/>
<polygon fill="black" stroke="black" points="1706.15,-167.5 1716.15,-164 1706.15,-160.5 1706.15,-167.5"/>
<text text-anchor="middle" x="1666" y="-170.8" font-family="Times,serif" font-size="14.00">Declaration</text>
</g>
<!-- d4 -->
<!-- d5 -->
<!-- d4&#45;&gt;d5 -->
<g id="edge30" class="edge">
<title>d4&#45;&gt;d5</title>
<path fill="none" stroke="blue" d="M1473.1,-164C1485.72,-164 1551.88,-164 1579.68,-164"/>
<polygon fill="blue" stroke="blue" points="1579.84,-167.5 1589.84,-164 1579.84,-160.5 1579.84,-167.5"/>
<text text-anchor="middle" x="1531.5" y="-170.8" font-family="Times,serif" font-size="14.00">PHI Data flow</text>
</g>
<!-- d6 -->
<!-- d7 -->
<!-- d6&#45;&gt;d7 -->
<g id="edge31" class="edge">
<title>d6&#45;&gt;d7</title>
<path fill="none" stroke="green" d="M1350.11,-164C1361.15,-164 1412.67,-164 1436.66,-164"/>
<polygon fill="green" stroke="green" points="1436.9,-167.5 1446.9,-164 1436.9,-160.5 1436.9,-167.5"/>
<text text-anchor="middle" x="1398.5" y="-170.8" font-family="Times,serif" font-size="14.00">Dominance</text>
</g>
</g>
</svg>
