<?xml version="1.0" encoding="UTF-8" standalone="no"?>
<!DOCTYPE svg PUBLIC "-//W3C//DTD SVG 1.1//EN"
 "http://www.w3.org/Graphics/SVG/1.1/DTD/svg11.dtd">
<!-- Generated by graphviz version 2.43.0 (0)
 -->
<!-- Title: debugoutput Pages: 1 -->
<svg width="2336pt" height="213pt"
 viewBox="0.00 0.00 2336.00 212.80" xmlns="http://www.w3.org/2000/svg" xmlns:xlink="http://www.w3.org/1999/xlink">
<g id="graph0" class="graph" transform="scale(1 1) rotate(0) translate(4 208.8)">
<title>debugoutput</title>
<polygon fill="white" stroke="transparent" points="-4,4 -4,-208.8 2332,-208.8 2332,4 -4,4"/>
<g id="clust1" class="cluster">
<title>cluster_000</title>
<polygon fill="none" stroke="black" points="1251,-154.2 1251,-196.8 2227,-196.8 2227,-154.2 1251,-154.2"/>
<text text-anchor="middle" x="1739" y="-181.6" font-family="Times,serif" font-size="14.00">Legend</text>
</g>
<!-- node0 -->
<g id="node1" class="node">
<title>node0</title>
<polygon fill="lightgrey" stroke="black" points="1241,-182 1075,-182 1075,-146 1241,-146 1241,-182"/>
<text text-anchor="middle" x="1158" y="-160.3" font-family="Times,serif" font-size="14.00">#0 Method Order : 0</text>
</g>
<!-- node1 -->
<g id="node2" class="node">
<title>node1</title>
<polygon fill="lightgrey" stroke="black" points="198,-109 0,-109 0,-73 198,-73 198,-109"/>
<text text-anchor="middle" x="99" y="-87.3" font-family="Times,serif" font-size="14.00">#1 arg6 : float Order : 12</text>
</g>
<!-- node0&#45;&gt;node1 -->
<g id="edge2" class="edge">
<title>node0&#45;&gt;node1</title>
<path fill="none" stroke="black" d="M1074.88,-161.19C909.8,-156.89 529.2,-143.78 208.42,-110.1"/>
<polygon fill="black" stroke="black" points="208.79,-106.62 198.47,-109.05 208.05,-113.58 208.79,-106.62"/>
<text text-anchor="middle" x="217.39" y="-98.85" font-family="Times,serif" font-size="14.00">*0</text>
</g>
<!-- node2 -->
<g id="node3" class="node">
<title>node2</title>
<polygon fill="lightgrey" stroke="black" points="431.5,-109 216.5,-109 216.5,-73 431.5,-73 431.5,-109"/>
<text text-anchor="middle" x="324" y="-87.3" font-family="Times,serif" font-size="14.00">#2 arg7 : double Order : 11</text>
</g>
<!-- node0&#45;&gt;node2 -->
<g id="edge4" class="edge">
<title>node0&#45;&gt;node2</title>
<path fill="none" stroke="black" d="M1074.89,-158.92C941.64,-151.7 672.08,-135.06 441.93,-110.09"/>
<polygon fill="black" stroke="black" points="442.02,-106.57 431.69,-108.97 441.25,-113.53 442.02,-106.57"/>
<text text-anchor="middle" x="450.63" y="-98.83" font-family="Times,serif" font-size="14.00">*0</text>
</g>
<!-- node3 -->
<g id="node4" class="node">
<title>node3</title>
<polygon fill="lightgrey" stroke="black" points="636,-109 450,-109 450,-73 636,-73 636,-109"/>
<text text-anchor="middle" x="543" y="-87.3" font-family="Times,serif" font-size="14.00">#3 arg4 : int Order : 10</text>
</g>
<!-- node0&#45;&gt;node3 -->
<g id="edge6" class="edge">
<title>node0&#45;&gt;node3</title>
<path fill="none" stroke="black" d="M1074.57,-156.39C973.35,-147.63 797.58,-130.87 645.44,-110.41"/>
<polygon fill="black" stroke="black" points="645.83,-106.94 635.45,-109.06 644.89,-113.87 645.83,-106.94"/>
<text text-anchor="middle" x="654.55" y="-99.42" font-family="Times,serif" font-size="14.00">*0</text>
</g>
<!-- node4 -->
<g id="node5" class="node">
<title>node4</title>
<polygon fill="lightgrey" stroke="black" points="856.5,-109 653.5,-109 653.5,-73 856.5,-73 856.5,-109"/>
<text text-anchor="middle" x="755" y="-87.3" font-family="Times,serif" font-size="14.00">#4 arg8 : String Order : 9</text>
</g>
<!-- node0&#45;&gt;node4 -->
<g id="edge8" class="edge">
<title>node0&#45;&gt;node4</title>
<path fill="none" stroke="black" d="M1074.84,-149.31C1011.34,-138.39 923.61,-122.96 856.06,-110.87"/>
<polygon fill="black" stroke="black" points="856.29,-107.35 845.83,-109.03 855.05,-114.24 856.29,-107.35"/>
<text text-anchor="middle" x="865.16" y="-100.21" font-family="Times,serif" font-size="14.00">*0</text>
</g>
<!-- node5 -->
<g id="node6" class="node">
<title>node5</title>
<polygon fill="lightgrey" stroke="black" points="1051.5,-109 874.5,-109 874.5,-73 1051.5,-73 1051.5,-109"/>
<text text-anchor="middle" x="963" y="-87.3" font-family="Times,serif" font-size="14.00">#5 arg0 : int Order : 8</text>
</g>
<!-- node0&#45;&gt;node5 -->
<g id="edge10" class="edge">
<title>node0&#45;&gt;node5</title>
<path fill="none" stroke="black" d="M1105.43,-145.99C1076.96,-136.01 1042,-123.32 1013.8,-112.76"/>
<polygon fill="black" stroke="black" points="1014.72,-109.36 1004.13,-109.11 1012.26,-115.91 1014.72,-109.36"/>
<text text-anchor="middle" x="1024.07" y="-103.89" font-family="Times,serif" font-size="14.00">*0</text>
</g>
<!-- node6 -->
<g id="node7" class="node">
<title>node6</title>
<polygon fill="lightgrey" stroke="black" points="1246.5,-109 1069.5,-109 1069.5,-73 1246.5,-73 1246.5,-109"/>
<text text-anchor="middle" x="1158" y="-87.3" font-family="Times,serif" font-size="14.00">#6 arg1 : int Order : 7</text>
</g>
<!-- node0&#45;&gt;node6 -->
<g id="edge12" class="edge">
<title>node0&#45;&gt;node6</title>
<path fill="none" stroke="black" d="M1152.12,-145.81C1151.28,-137.79 1151.05,-128.05 1151.42,-119.07"/>
<polygon fill="black" stroke="black" points="1154.92,-119.25 1152.14,-109.03 1147.94,-118.75 1154.92,-119.25"/>
<text text-anchor="middle" x="1159.28" y="-124.01" font-family="Times,serif" font-size="14.00">*0</text>
</g>
<!-- node7 -->
<g id="node8" class="node">
<title>node7</title>
<polygon fill="lightgrey" stroke="black" points="1441.5,-109 1264.5,-109 1264.5,-73 1441.5,-73 1441.5,-109"/>
<text text-anchor="middle" x="1353" y="-87.3" font-family="Times,serif" font-size="14.00">#7 arg2 : int Order : 6</text>
</g>
<!-- node0&#45;&gt;node7 -->
<g id="edge14" class="edge">
<title>node0&#45;&gt;node7</title>
<path fill="none" stroke="black" d="M1198.85,-145.99C1225.43,-135.92 1260.54,-123.1 1290.57,-112.48"/>
<polygon fill="black" stroke="black" points="1291.86,-115.74 1300.13,-109.11 1289.53,-109.13 1291.86,-115.74"/>
<text text-anchor="middle" x="1285.84" y="-119.41" font-family="Times,serif" font-size="14.00">*0</text>
</g>
<!-- node8 -->
<g id="node9" class="node">
<title>node8</title>
<polygon fill="lightgrey" stroke="black" points="1636.5,-109 1459.5,-109 1459.5,-73 1636.5,-73 1636.5,-109"/>
<text text-anchor="middle" x="1548" y="-87.3" font-family="Times,serif" font-size="14.00">#8 arg3 : int Order : 5</text>
</g>
<!-- node0&#45;&gt;node8 -->
<g id="edge16" class="edge">
<title>node0&#45;&gt;node8</title>
<path fill="none" stroke="black" d="M1238.39,-145.93C1308.7,-132.91 1388.28,-118.65 1449.21,-108.07"/>
<polygon fill="black" stroke="black" points="1449.95,-111.49 1459.2,-106.34 1448.75,-104.6 1449.95,-111.49"/>
<text text-anchor="middle" x="1442.79" y="-114.06" font-family="Times,serif" font-size="14.00">*0</text>
</g>
<!-- node9 -->
<g id="node10" class="node">
<title>node9</title>
<polygon fill="lightgrey" stroke="black" points="1843,-109 1655,-109 1655,-73 1843,-73 1843,-109"/>
<text text-anchor="middle" x="1749" y="-87.3" font-family="Times,serif" font-size="14.00">#9 arg9 : int[] Order : 4</text>
</g>
<!-- node0&#45;&gt;node9 -->
<g id="edge18" class="edge">
<title>node0&#45;&gt;node9</title>
<path fill="none" stroke="black" d="M1238.26,-145.96C1414.38,-121.05 1460.45,-131.73 1637,-109 1639.56,-108.67 1642.15,-108.33 1644.76,-107.97"/>
<polygon fill="black" stroke="black" points="1645.52,-111.39 1654.94,-106.53 1644.54,-104.46 1645.52,-111.39"/>
<text text-anchor="middle" x="1638.17" y="-113.74" font-family="Times,serif" font-size="14.00">*0</text>
</g>
<!-- node10 -->
<g id="node11" class="node">
<title>node10</title>
<polygon fill="lightgrey" stroke="black" points="2058.5,-109 1861.5,-109 1861.5,-73 2058.5,-73 2058.5,-109"/>
<text text-anchor="middle" x="1960" y="-87.3" font-family="Times,serif" font-size="14.00">#10 arg5 : long Order : 3</text>
</g>
<!-- node0&#45;&gt;node10 -->
<g id="edge20" class="edge">
<title>node0&#45;&gt;node10</title>
<path fill="none" stroke="black" d="M1238.39,-145.95C1505.36,-112.46 1575.33,-138.19 1843,-109 1845.69,-108.71 1848.42,-108.39 1851.18,-108.06"/>
<polygon fill="black" stroke="black" points="1851.75,-111.52 1861.23,-106.8 1850.87,-104.57 1851.75,-111.52"/>
<text text-anchor="middle" x="1844.3" y="-113.75" font-family="Times,serif" font-size="14.00">*0</text>
</g>
<!-- node11 -->
<g id="node12" class="node">
<title>node11</title>
<polygon fill="lightgrey" stroke="black" points="2273.5,-109 2076.5,-109 2076.5,-73 2273.5,-73 2273.5,-109"/>
<text text-anchor="middle" x="2175" y="-87.3" font-family="Times,serif" font-size="14.00">#11 LabelNode Order : 1</text>
</g>
<!-- node0&#45;&gt;node11 -->
<g id="edge22" class="edge">
<title>node0&#45;&gt;node11</title>
<path fill="none" stroke="red" d="M1238.27,-145.97C1419.83,-124.7 1877.4,-127.46 2059,-109 2061.41,-108.76 2063.84,-108.49 2066.3,-108.21"/>
<polygon fill="red" stroke="red" points="2066.99,-111.66 2076.5,-106.98 2066.15,-104.71 2066.99,-111.66"/>
</g>
<!-- node12 -->
<g id="node13" class="node">
<title>node12</title>
<polygon fill="lightgrey" stroke="black" points="2328,-36 2158,-36 2158,0 2328,0 2328,-36"/>
<text text-anchor="middle" x="2243" y="-14.3" font-family="Times,serif" font-size="14.00">#12 Return Order : 2</text>
</g>
<!-- node0&#45;&gt;node12 -->
<g id="edge25" class="edge">
<title>node0&#45;&gt;node12</title>
<path fill="none" stroke="green" d="M1238.35,-145.96C1298.89,-139.59 2234.09,-150.36 2274,-109 2291.45,-90.91 2275.67,-63.92 2260.78,-44.22"/>
<polygon fill="green" stroke="green" points="2263.47,-41.98 2254.54,-36.26 2257.96,-46.3 2263.47,-41.98"/>
</g>
<!-- node1&#45;&gt;node0 -->
<g id="edge1" class="edge">
<title>node1&#45;&gt;node0</title>
<path fill="none" stroke="fuchsia" stroke-width="2" d="M198.06,-106.86C204.13,-107.65 210.15,-108.37 216,-109 526,-142.12 895.16,-155.74 1064.64,-160.63"/>
<polygon fill="fuchsia" stroke="fuchsia" stroke-width="2" points="1064.67,-164.13 1074.77,-160.91 1064.87,-157.13 1064.67,-164.13"/>
</g>
<!-- node2&#45;&gt;node0 -->
<g id="edge3" class="edge">
<title>node2&#45;&gt;node0</title>
<path fill="none" stroke="fuchsia" stroke-width="2" d="M431.55,-106.82C437.8,-107.6 443.98,-108.34 450,-109 669.79,-133.22 928.7,-149.77 1064.38,-157.68"/>
<polygon fill="fuchsia" stroke="fuchsia" stroke-width="2" points="1064.55,-161.19 1074.73,-158.28 1064.95,-154.2 1064.55,-161.19"/>
</g>
<!-- node3&#45;&gt;node0 -->
<g id="edge5" class="edge">
<title>node3&#45;&gt;node0</title>
<path fill="none" stroke="fuchsia" stroke-width="2" d="M636.24,-106.58C641.92,-107.44 647.54,-108.25 653,-109 796.32,-128.57 962.97,-144.91 1064.48,-154.32"/>
<polygon fill="fuchsia" stroke="fuchsia" stroke-width="2" points="1064.43,-157.83 1074.71,-155.27 1065.07,-150.86 1064.43,-157.83"/>
</g>
<!-- node4&#45;&gt;node0 -->
<g id="edge7" class="edge">
<title>node4&#45;&gt;node0</title>
<path fill="none" stroke="fuchsia" stroke-width="2" d="M856.59,-108.87C920.48,-119.92 1002.28,-134.32 1064.56,-145.5"/>
<polygon fill="fuchsia" stroke="fuchsia" stroke-width="2" points="1064.31,-149.01 1074.77,-147.33 1065.55,-142.12 1064.31,-149.01"/>
</g>
<!-- node5&#45;&gt;node0 -->
<g id="edge9" class="edge">
<title>node5&#45;&gt;node0</title>
<path fill="none" stroke="fuchsia" stroke-width="2" d="M1015.87,-109.11C1044.39,-119.11 1079.35,-131.81 1107.5,-142.36"/>
<polygon fill="fuchsia" stroke="fuchsia" stroke-width="2" points="1106.56,-145.74 1117.15,-145.99 1109.03,-139.19 1106.56,-145.74"/>
</g>
<!-- node6&#45;&gt;node0 -->
<g id="edge11" class="edge">
<title>node6&#45;&gt;node0</title>
<path fill="none" stroke="fuchsia" stroke-width="2" d="M1163.86,-109.03C1164.71,-117.03 1164.95,-126.77 1164.59,-135.75"/>
<polygon fill="fuchsia" stroke="fuchsia" stroke-width="2" points="1161.09,-135.59 1163.88,-145.81 1168.07,-136.08 1161.09,-135.59"/>
</g>
<!-- node7&#45;&gt;node0 -->
<g id="edge13" class="edge">
<title>node7&#45;&gt;node0</title>
<path fill="none" stroke="fuchsia" stroke-width="2" d="M1311.87,-109.11C1285.22,-119.2 1250.1,-132.03 1220.11,-142.63"/>
<polygon fill="fuchsia" stroke="fuchsia" stroke-width="2" points="1218.84,-139.37 1210.57,-145.99 1221.16,-145.97 1218.84,-139.37"/>
</g>
<!-- node8&#45;&gt;node0 -->
<g id="edge15" class="edge">
<title>node8&#45;&gt;node0</title>
<path fill="none" stroke="fuchsia" stroke-width="2" d="M1459.5,-108.99C1401.6,-119.49 1324.39,-133.33 1256,-146 1254.5,-146.28 1252.99,-146.56 1251.47,-146.84"/>
<polygon fill="fuchsia" stroke="fuchsia" stroke-width="2" points="1250.46,-143.47 1241.27,-148.75 1251.75,-150.35 1250.46,-143.47"/>
</g>
<!-- node9&#45;&gt;node0 -->
<g id="edge17" class="edge">
<title>node9&#45;&gt;node0</title>
<path fill="none" stroke="fuchsia" stroke-width="2" d="M1654.74,-109.03C1478.32,-131.73 1432.25,-121.05 1256,-146 1254.49,-146.21 1252.97,-146.44 1251.44,-146.66"/>
<polygon fill="fuchsia" stroke="fuchsia" stroke-width="2" points="1250.53,-143.26 1241.2,-148.27 1251.62,-150.18 1250.53,-143.26"/>
</g>
<!-- node10&#45;&gt;node0 -->
<g id="edge19" class="edge">
<title>node10&#45;&gt;node0</title>
<path fill="none" stroke="fuchsia" stroke-width="2" d="M1861.28,-108.97C1861.19,-108.98 1861.09,-108.99 1861,-109 1593.2,-138.2 1523.29,-112.44 1256,-146 1254.49,-146.19 1252.96,-146.39 1251.43,-146.6"/>
<polygon fill="fuchsia" stroke="fuchsia" stroke-width="2" points="1250.56,-143.19 1241.17,-148.1 1251.57,-150.11 1250.56,-143.19"/>
</g>
<!-- node11&#45;&gt;node0 -->
<g id="edge21" class="edge">
<title>node11&#45;&gt;node0</title>
<path fill="none" stroke="fuchsia" stroke-width="2" d="M2076.73,-109.03C1894.86,-127.47 1437.29,-124.71 1256,-146 1254.49,-146.18 1252.96,-146.37 1251.42,-146.56"/>
<polygon fill="fuchsia" stroke="fuchsia" stroke-width="2" points="1250.58,-143.15 1241.16,-148.01 1251.55,-150.08 1250.58,-143.15"/>
</g>
<!-- node11&#45;&gt;node12 -->
<g id="edge24" class="edge">
<title>node11&#45;&gt;node12</title>
<path fill="none" stroke="red" d="M2191.46,-72.81C2199.9,-64 2210.32,-53.13 2219.58,-43.46"/>
<polygon fill="red" stroke="red" points="2222.3,-45.67 2226.69,-36.03 2217.25,-40.83 2222.3,-45.67"/>
</g>
<!-- node12&#45;&gt;node0 -->
<g id="edge23" class="edge">
<title>node12&#45;&gt;node0</title>
<path fill="none" stroke="fuchsia" stroke-width="2" d="M2267.46,-36.26C2288.49,-56.03 2311.95,-88.33 2292,-109 2252.01,-150.44 1313.23,-139.55 1256,-146 1254.49,-146.17 1252.96,-146.35 1251.42,-146.55"/>
<polygon fill="fuchsia" stroke="fuchsia" stroke-width="2" points="1250.59,-143.13 1241.15,-147.95 1251.54,-150.06 1250.59,-143.13"/>
</g>
<!-- c0 -->
<!-- c1 -->
<!-- c0&#45;&gt;c1 -->
<g id="edge26" class="edge">
<title>c0&#45;&gt;c1</title>
<path fill="none" stroke="red" d="M2109.89,-164C2121.11,-164 2179.24,-164 2204.86,-164"/>
<polygon fill="red" stroke="red" points="2205.06,-167.5 2215.06,-164 2205.06,-160.5 2205.06,-167.5"/>
<text text-anchor="middle" x="2162.5" y="-170.8" font-family="Times,serif" font-size="14.00">Control flow</text>
</g>
<!-- c2 -->
<!-- c3 -->
<!-- c2&#45;&gt;c3 -->
<g id="edge27" class="edge">
<title>c2&#45;&gt;c3</title>
<path fill="none" stroke="red" stroke-dasharray="5,2" d="M1903.08,-164C1920.05,-164 2036.21,-164 2074.08,-164"/>
<polygon fill="red" stroke="red" points="2074.17,-167.5 2084.17,-164 2074.17,-160.5 2074.17,-167.5"/>
<text text-anchor="middle" x="1993.5" y="-170.8" font-family="Times,serif" font-size="14.00">Control flow back edge</text>
</g>
<!-- d0 -->
<!-- d1 -->
<!-- d0&#45;&gt;d1 -->
<g id="edge28" class="edge">
<title>d0&#45;&gt;d1</title>
<path fill="none" stroke="black" d="M1791.86,-164C1801.41,-164 1845.31,-164 1866.92,-164"/>
<polygon fill="black" stroke="black" points="1867.15,-167.5 1877.15,-164 1867.15,-160.5 1867.15,-167.5"/>
<text text-anchor="middle" x="1834.5" y="-170.8" font-family="Times,serif" font-size="14.00">Data flow</text>
</g>
<!-- d2 -->
<!-- d3 -->
<!-- d2&#45;&gt;d3 -->
<g id="edge29" class="edge">
<title>d2&#45;&gt;d3</title>
<path fill="none" stroke="black" stroke-dasharray="1,5" d="M1665.81,-164C1676.46,-164 1731.46,-164 1756.08,-164"/>
<polygon fill="black" stroke="black" points="1756.15,-167.5 1766.15,-164 1756.15,-160.5 1756.15,-167.5"/>
<text text-anchor="middle" x="1716" y="-170.8" font-family="Times,serif" font-size="14.00">Declaration</text>
</g>
<!-- d4 -->
<!-- d5 -->
<!-- d4&#45;&gt;d5 -->
<g id="edge30" class="edge">
<title>d4&#45;&gt;d5</title>
<path fill="none" stroke="blue" d="M1523.1,-164C1535.72,-164 1601.88,-164 1629.68,-164"/>
<polygon fill="blue" stroke="blue" points="1629.84,-167.5 1639.84,-164 1629.84,-160.5 1629.84,-167.5"/>
<text text-anchor="middle" x="1581.5" y="-170.8" font-family="Times,serif" font-size="14.00">PHI Data flow</text>
</g>
<!-- d6 -->
<!-- d7 -->
<!-- d6&#45;&gt;d7 -->
<g id="edge31" class="edge">
<title>d6&#45;&gt;d7</title>
<path fill="none" stroke="green" d="M1386,-164C1397.94,-164 1460.3,-164 1486.93,-164"/>
<polygon fill="green" stroke="green" points="1486.95,-167.5 1496.95,-164 1486.95,-160.5 1486.95,-167.5"/>
<text text-anchor="middle" x="1441.5" y="-170.8" font-family="Times,serif" font-size="14.00">Memory flow</text>
</g>
<!-- d8 -->
<!-- d9 -->
<!-- d8&#45;&gt;d9 -->
<g id="edge32" class="edge">
<title>d8&#45;&gt;d9</title>
<path fill="none" stroke="fuchsia" d="M1263.11,-164C1274.15,-164 1325.67,-164 1349.66,-164"/>
<polygon fill="fuchsia" stroke="fuchsia" points="1349.9,-167.5 1359.9,-164 1349.9,-160.5 1349.9,-167.5"/>
<text text-anchor="middle" x="1311.5" y="-170.8" font-family="Times,serif" font-size="14.00">Dominance</text>
</g>
</g>
</svg>
