<?xml version="1.0" encoding="UTF-8" standalone="no"?>
<!DOCTYPE svg PUBLIC "-//W3C//DTD SVG 1.1//EN"
 "http://www.w3.org/Graphics/SVG/1.1/DTD/svg11.dtd">
<!-- Generated by graphviz version 2.43.0 (0)
 -->
<!-- Title: debugoutput Pages: 1 -->
<svg width="2337pt" height="213pt"
 viewBox="0.00 0.00 2336.50 212.80" xmlns="http://www.w3.org/2000/svg" xmlns:xlink="http://www.w3.org/1999/xlink">
<g id="graph0" class="graph" transform="scale(1 1) rotate(0) translate(4 208.8)">
<title>debugoutput</title>
<polygon fill="white" stroke="transparent" points="-4,4 -4,-208.8 2332.5,-208.8 2332.5,4 -4,4"/>
<g id="clust1" class="cluster">
<title>cluster_000</title>
<polygon fill="none" stroke="black" points="1222.5,-154.2 1222.5,-196.8 2198.5,-196.8 2198.5,-154.2 1222.5,-154.2"/>
<text text-anchor="middle" x="1710.5" y="-181.6" font-family="Times,serif" font-size="14.00">Legend</text>
</g>
<!-- node0 -->
<g id="node1" class="node">
<title>node0</title>
<polygon fill="lightgrey" stroke="black" points="1212.5,-182 1046.5,-182 1046.5,-146 1212.5,-146 1212.5,-182"/>
<text text-anchor="middle" x="1129.5" y="-160.3" font-family="Times,serif" font-size="14.00">#0 Method Order : 0</text>
</g>
<!-- node1 -->
<g id="node2" class="node">
<title>node1</title>
<polygon fill="lightgrey" stroke="black" points="197,-109 0,-109 0,-73 197,-73 197,-109"/>
<text text-anchor="middle" x="98.5" y="-87.3" font-family="Times,serif" font-size="14.00">#1 arg9 : int[] Order : 12</text>
</g>
<!-- node0&#45;&gt;node1 -->
<g id="edge2" class="edge">
<title>node0&#45;&gt;node1</title>
<path fill="none" stroke="black" d="M1046.19,-161C884.54,-156.41 517.31,-142.88 207.3,-110.05"/>
<polygon fill="black" stroke="black" points="207.53,-106.55 197.22,-108.97 206.79,-113.51 207.53,-106.55"/>
<text text-anchor="middle" x="216.14" y="-98.79" font-family="Times,serif" font-size="14.00">*0</text>
</g>
<!-- node2 -->
<g id="node3" class="node">
<title>node2</title>
<polygon fill="lightgrey" stroke="black" points="401.5,-109 215.5,-109 215.5,-73 401.5,-73 401.5,-109"/>
<text text-anchor="middle" x="308.5" y="-87.3" font-family="Times,serif" font-size="14.00">#2 arg0 : int Order : 11</text>
</g>
<!-- node0&#45;&gt;node2 -->
<g id="edge4" class="edge">
<title>node0&#45;&gt;node2</title>
<path fill="none" stroke="black" d="M1046.39,-159.47C912.78,-153.04 642.13,-137.52 411.49,-110.19"/>
<polygon fill="black" stroke="black" points="411.58,-106.68 401.23,-108.97 410.75,-113.63 411.58,-106.68"/>
<text text-anchor="middle" x="420.23" y="-99.03" font-family="Times,serif" font-size="14.00">*0</text>
</g>
<!-- node3 -->
<g id="node4" class="node">
<title>node3</title>
<polygon fill="lightgrey" stroke="black" points="617.5,-109 419.5,-109 419.5,-73 617.5,-73 617.5,-109"/>
<text text-anchor="middle" x="518.5" y="-87.3" font-family="Times,serif" font-size="14.00">#3 arg6 : float Order : 10</text>
</g>
<!-- node0&#45;&gt;node3 -->
<g id="edge6" class="edge">
<title>node0&#45;&gt;node3</title>
<path fill="none" stroke="black" d="M1046.44,-155.94C947.26,-146.8 776.37,-129.75 628.12,-110.4"/>
<polygon fill="black" stroke="black" points="628.31,-106.89 617.94,-109.06 627.4,-113.83 628.31,-106.89"/>
<text text-anchor="middle" x="637.01" y="-99.34" font-family="Times,serif" font-size="14.00">*0</text>
</g>
<!-- node4 -->
<g id="node5" class="node">
<title>node4</title>
<polygon fill="lightgrey" stroke="black" points="813,-109 636,-109 636,-73 813,-73 813,-109"/>
<text text-anchor="middle" x="724.5" y="-87.3" font-family="Times,serif" font-size="14.00">#4 arg1 : int Order : 9</text>
</g>
<!-- node0&#45;&gt;node4 -->
<g id="edge8" class="edge">
<title>node0&#45;&gt;node4</title>
<path fill="none" stroke="black" d="M1046.44,-149.39C981.65,-138.3 891.51,-122.53 823.07,-110.33"/>
<polygon fill="black" stroke="black" points="823.59,-106.87 813.13,-108.56 822.36,-113.76 823.59,-106.87"/>
<text text-anchor="middle" x="832.46" y="-99.72" font-family="Times,serif" font-size="14.00">*0</text>
</g>
<!-- node5 -->
<g id="node6" class="node">
<title>node5</title>
<polygon fill="lightgrey" stroke="black" points="1008,-109 831,-109 831,-73 1008,-73 1008,-109"/>
<text text-anchor="middle" x="919.5" y="-87.3" font-family="Times,serif" font-size="14.00">#5 arg4 : int Order : 8</text>
</g>
<!-- node0&#45;&gt;node5 -->
<g id="edge10" class="edge">
<title>node0&#45;&gt;node5</title>
<path fill="none" stroke="black" d="M1073.34,-145.99C1042.49,-135.92 1004.46,-123.1 973.89,-112.48"/>
<polygon fill="black" stroke="black" points="974.84,-109.1 964.25,-109.11 972.54,-115.71 974.84,-109.1"/>
<text text-anchor="middle" x="984.15" y="-103.41" font-family="Times,serif" font-size="14.00">*0</text>
</g>
<!-- node6 -->
<g id="node7" class="node">
<title>node6</title>
<polygon fill="lightgrey" stroke="black" points="1232.5,-109 1026.5,-109 1026.5,-73 1232.5,-73 1232.5,-109"/>
<text text-anchor="middle" x="1129.5" y="-87.3" font-family="Times,serif" font-size="14.00">#6 arg7 : double Order : 7</text>
</g>
<!-- node0&#45;&gt;node6 -->
<g id="edge12" class="edge">
<title>node0&#45;&gt;node6</title>
<path fill="none" stroke="black" d="M1123.62,-145.81C1122.78,-137.79 1122.55,-128.05 1122.92,-119.07"/>
<polygon fill="black" stroke="black" points="1126.42,-119.25 1123.64,-109.03 1119.44,-118.75 1126.42,-119.25"/>
<text text-anchor="middle" x="1130.78" y="-124.01" font-family="Times,serif" font-size="14.00">*0</text>
</g>
<!-- node7 -->
<g id="node8" class="node">
<title>node7</title>
<polygon fill="lightgrey" stroke="black" points="1438.5,-109 1250.5,-109 1250.5,-73 1438.5,-73 1438.5,-109"/>
<text text-anchor="middle" x="1344.5" y="-87.3" font-family="Times,serif" font-size="14.00">#7 arg5 : long Order : 6</text>
</g>
<!-- node0&#45;&gt;node7 -->
<g id="edge14" class="edge">
<title>node0&#45;&gt;node7</title>
<path fill="none" stroke="black" d="M1175.14,-145.99C1204.82,-135.84 1243.96,-122.88 1277.16,-112.2"/>
<polygon fill="black" stroke="black" points="1278.35,-115.5 1286.81,-109.11 1276.22,-108.83 1278.35,-115.5"/>
<text text-anchor="middle" x="1272.12" y="-118.99" font-family="Times,serif" font-size="14.00">*0</text>
</g>
<!-- node8 -->
<g id="node9" class="node">
<title>node8</title>
<polygon fill="lightgrey" stroke="black" points="1634,-109 1457,-109 1457,-73 1634,-73 1634,-109"/>
<text text-anchor="middle" x="1545.5" y="-87.3" font-family="Times,serif" font-size="14.00">#8 arg3 : int Order : 5</text>
</g>
<!-- node0&#45;&gt;node8 -->
<g id="edge16" class="edge">
<title>node0&#45;&gt;node8</title>
<path fill="none" stroke="black" d="M1209.8,-145.95C1311.08,-128.1 1336.92,-126.02 1438.5,-109 1441.2,-108.55 1443.94,-108.09 1446.71,-107.62"/>
<polygon fill="black" stroke="black" points="1447.57,-111.02 1456.84,-105.9 1446.4,-104.12 1447.57,-111.02"/>
<text text-anchor="middle" x="1440.39" y="-113.56" font-family="Times,serif" font-size="14.00">*0</text>
</g>
<!-- node9 -->
<g id="node10" class="node">
<title>node9</title>
<polygon fill="lightgrey" stroke="black" points="1855,-109 1652,-109 1652,-73 1855,-73 1855,-109"/>
<text text-anchor="middle" x="1753.5" y="-87.3" font-family="Times,serif" font-size="14.00">#9 arg8 : String Order : 4</text>
</g>
<!-- node0&#45;&gt;node9 -->
<g id="edge18" class="edge">
<title>node0&#45;&gt;node9</title>
<path fill="none" stroke="black" d="M1209.78,-145.96C1397.35,-119.97 1446.35,-131.7 1634.5,-109 1636.89,-108.71 1639.3,-108.41 1641.74,-108.1"/>
<polygon fill="black" stroke="black" points="1642.39,-111.55 1651.85,-106.77 1641.48,-104.61 1642.39,-111.55"/>
<text text-anchor="middle" x="1634.98" y="-113.82" font-family="Times,serif" font-size="14.00">*0</text>
</g>
<!-- node10 -->
<g id="node11" class="node">
<title>node10</title>
<polygon fill="lightgrey" stroke="black" points="2058.5,-109 1872.5,-109 1872.5,-73 2058.5,-73 2058.5,-109"/>
<text text-anchor="middle" x="1965.5" y="-87.3" font-family="Times,serif" font-size="14.00">#10 arg2 : int Order : 3</text>
</g>
<!-- node0&#45;&gt;node10 -->
<g id="edge20" class="edge">
<title>node0&#45;&gt;node10</title>
<path fill="none" stroke="black" d="M1209.92,-145.95C1494.98,-110.75 1569.86,-141.12 1855.5,-109 1857.73,-108.75 1859.98,-108.48 1862.25,-108.2"/>
<polygon fill="black" stroke="black" points="1862.83,-111.65 1872.29,-106.89 1861.92,-104.71 1862.83,-111.65"/>
<text text-anchor="middle" x="1855.42" y="-113.92" font-family="Times,serif" font-size="14.00">*0</text>
</g>
<!-- node11 -->
<g id="node12" class="node">
<title>node11</title>
<polygon fill="lightgrey" stroke="black" points="2274,-109 2077,-109 2077,-73 2274,-73 2274,-109"/>
<text text-anchor="middle" x="2175.5" y="-87.3" font-family="Times,serif" font-size="14.00">#11 LabelNode Order : 1</text>
</g>
<!-- node0&#45;&gt;node11 -->
<g id="edge22" class="edge">
<title>node0&#45;&gt;node11</title>
<path fill="none" stroke="red" d="M1209.77,-145.97C1397.54,-124.12 1870.69,-127.81 2058.5,-109 2061.2,-108.73 2063.93,-108.44 2066.68,-108.13"/>
<polygon fill="red" stroke="red" points="2067.23,-111.58 2076.75,-106.92 2066.4,-104.63 2067.23,-111.58"/>
</g>
<!-- node12 -->
<g id="node13" class="node">
<title>node12</title>
<polygon fill="lightgrey" stroke="black" points="2328.5,-36 2158.5,-36 2158.5,0 2328.5,0 2328.5,-36"/>
<text text-anchor="middle" x="2243.5" y="-14.3" font-family="Times,serif" font-size="14.00">#12 Return Order : 2</text>
</g>
<!-- node0&#45;&gt;node12 -->
<g id="edge25" class="edge">
<title>node0&#45;&gt;node12</title>
<path fill="none" stroke="green" d="M1209.86,-145.96C1272.1,-139.45 2233.45,-151.5 2274.5,-109 2291.96,-90.92 2276.18,-63.93 2261.28,-44.22"/>
<polygon fill="green" stroke="green" points="2263.97,-41.98 2255.05,-36.27 2258.46,-46.3 2263.97,-41.98"/>
</g>
<!-- node1&#45;&gt;node0 -->
<g id="edge1" class="edge">
<title>node1&#45;&gt;node0</title>
<path fill="none" stroke="fuchsia" stroke-width="2" d="M197.27,-106.81C203.44,-107.62 209.56,-108.36 215.5,-109 514.66,-141.22 870.59,-155.21 1036.22,-160.39"/>
<polygon fill="fuchsia" stroke="fuchsia" stroke-width="2" points="1036.27,-163.89 1046.37,-160.7 1036.48,-156.89 1036.27,-163.89"/>
</g>
<!-- node2&#45;&gt;node0 -->
<g id="edge3" class="edge">
<title>node2&#45;&gt;node0</title>
<path fill="none" stroke="fuchsia" stroke-width="2" d="M401.72,-106.65C407.74,-107.51 413.71,-108.3 419.5,-109 639.94,-135.59 900.09,-151.26 1036.09,-158.37"/>
<polygon fill="fuchsia" stroke="fuchsia" stroke-width="2" points="1036.3,-161.89 1046.46,-158.91 1036.66,-154.9 1036.3,-161.89"/>
</g>
<!-- node3&#45;&gt;node0 -->
<g id="edge5" class="edge">
<title>node3&#45;&gt;node0</title>
<path fill="none" stroke="fuchsia" stroke-width="2" d="M617.6,-106.52C623.66,-107.39 629.67,-108.23 635.5,-109 775.03,-127.46 936.97,-143.97 1036.38,-153.73"/>
<polygon fill="fuchsia" stroke="fuchsia" stroke-width="2" points="1036.11,-157.22 1046.4,-154.72 1036.79,-150.26 1036.11,-157.22"/>
</g>
<!-- node4&#45;&gt;node0 -->
<g id="edge7" class="edge">
<title>node4&#45;&gt;node0</title>
<path fill="none" stroke="fuchsia" stroke-width="2" d="M813.22,-106.58C879.24,-117.9 969.09,-133.63 1036.17,-145.6"/>
<polygon fill="fuchsia" stroke="fuchsia" stroke-width="2" points="1035.86,-149.1 1046.32,-147.42 1037.09,-142.21 1035.86,-149.1"/>
</g>
<!-- node5&#45;&gt;node0 -->
<g id="edge9" class="edge">
<title>node5&#45;&gt;node0</title>
<path fill="none" stroke="fuchsia" stroke-width="2" d="M975.99,-109.11C1006.89,-119.2 1044.92,-132.03 1075.44,-142.63"/>
<polygon fill="fuchsia" stroke="fuchsia" stroke-width="2" points="1074.46,-146 1085.06,-145.99 1076.77,-139.39 1074.46,-146"/>
</g>
<!-- node6&#45;&gt;node0 -->
<g id="edge11" class="edge">
<title>node6&#45;&gt;node0</title>
<path fill="none" stroke="fuchsia" stroke-width="2" d="M1135.36,-109.03C1136.21,-117.03 1136.45,-126.77 1136.09,-135.75"/>
<polygon fill="fuchsia" stroke="fuchsia" stroke-width="2" points="1132.59,-135.59 1135.38,-145.81 1139.57,-136.08 1132.59,-135.59"/>
</g>
<!-- node7&#45;&gt;node0 -->
<g id="edge13" class="edge">
<title>node7&#45;&gt;node0</title>
<path fill="none" stroke="fuchsia" stroke-width="2" d="M1298.55,-109.11C1268.8,-119.29 1229.65,-132.25 1196.49,-142.91"/>
<polygon fill="fuchsia" stroke="fuchsia" stroke-width="2" points="1195.31,-139.61 1186.86,-145.99 1197.45,-146.28 1195.31,-139.61"/>
</g>
<!-- node8&#45;&gt;node0 -->
<g id="edge15" class="edge">
<title>node8&#45;&gt;node0</title>
<path fill="none" stroke="fuchsia" stroke-width="2" d="M1456.76,-108.96C1456.67,-108.97 1456.59,-108.99 1456.5,-109 1354.82,-126.03 1329.03,-128.1 1227.5,-146 1226,-146.26 1224.48,-146.53 1222.96,-146.81"/>
<polygon fill="fuchsia" stroke="fuchsia" stroke-width="2" points="1221.97,-143.43 1212.76,-148.65 1223.22,-150.32 1221.97,-143.43"/>
</g>
<!-- node9&#45;&gt;node0 -->
<g id="edge17" class="edge">
<title>node9&#45;&gt;node0</title>
<path fill="none" stroke="fuchsia" stroke-width="2" d="M1652.22,-109.03C1464.21,-131.7 1415.21,-119.97 1227.5,-146 1225.99,-146.21 1224.47,-146.43 1222.93,-146.65"/>
<polygon fill="fuchsia" stroke="fuchsia" stroke-width="2" points="1222.04,-143.25 1212.69,-148.24 1223.11,-150.17 1222.04,-143.25"/>
</g>
<!-- node10&#45;&gt;node0 -->
<g id="edge19" class="edge">
<title>node10&#45;&gt;node0</title>
<path fill="none" stroke="fuchsia" stroke-width="2" d="M1873.08,-109.05C1587.65,-141.11 1512.77,-110.74 1227.5,-146 1225.99,-146.19 1224.46,-146.38 1222.93,-146.59"/>
<polygon fill="fuchsia" stroke="fuchsia" stroke-width="2" points="1222.07,-143.18 1212.67,-148.07 1223.07,-150.11 1222.07,-143.18"/>
</g>
<!-- node11&#45;&gt;node0 -->
<g id="edge21" class="edge">
<title>node11&#45;&gt;node0</title>
<path fill="none" stroke="fuchsia" stroke-width="2" d="M2076.78,-108.97C2076.69,-108.98 2076.59,-108.99 2076.5,-109 1888.59,-127.82 1415.07,-124.12 1227.5,-146 1225.99,-146.18 1224.46,-146.36 1222.92,-146.56"/>
<polygon fill="fuchsia" stroke="fuchsia" stroke-width="2" points="1222.08,-143.15 1212.66,-148 1223.05,-150.08 1222.08,-143.15"/>
</g>
<!-- node11&#45;&gt;node12 -->
<g id="edge24" class="edge">
<title>node11&#45;&gt;node12</title>
<path fill="none" stroke="red" d="M2191.96,-72.81C2200.4,-64 2210.82,-53.13 2220.08,-43.46"/>
<polygon fill="red" stroke="red" points="2222.8,-45.67 2227.19,-36.03 2217.75,-40.83 2222.8,-45.67"/>
</g>
<!-- node12&#45;&gt;node0 -->
<g id="edge23" class="edge">
<title>node12&#45;&gt;node0</title>
<path fill="none" stroke="fuchsia" stroke-width="2" d="M2267.96,-36.27C2288.99,-56.04 2312.46,-88.34 2292.5,-109 2251.37,-151.58 1286.33,-139.4 1227.5,-146 1225.99,-146.17 1224.46,-146.35 1222.92,-146.54"/>
<polygon fill="fuchsia" stroke="fuchsia" stroke-width="2" points="1222.09,-143.12 1212.65,-147.95 1223.04,-150.06 1222.09,-143.12"/>
</g>
<!-- c0 -->
<!-- c1 -->
<!-- c0&#45;&gt;c1 -->
<g id="edge26" class="edge">
<title>c0&#45;&gt;c1</title>
<path fill="none" stroke="red" d="M2081.39,-164C2092.61,-164 2150.74,-164 2176.36,-164"/>
<polygon fill="red" stroke="red" points="2176.56,-167.5 2186.56,-164 2176.56,-160.5 2176.56,-167.5"/>
<text text-anchor="middle" x="2134" y="-170.8" font-family="Times,serif" font-size="14.00">Control flow</text>
</g>
<!-- c2 -->
<!-- c3 -->
<!-- c2&#45;&gt;c3 -->
<g id="edge27" class="edge">
<title>c2&#45;&gt;c3</title>
<path fill="none" stroke="red" stroke-dasharray="5,2" d="M1874.58,-164C1891.55,-164 2007.71,-164 2045.58,-164"/>
<polygon fill="red" stroke="red" points="2045.67,-167.5 2055.67,-164 2045.67,-160.5 2045.67,-167.5"/>
<text text-anchor="middle" x="1965" y="-170.8" font-family="Times,serif" font-size="14.00">Control flow back edge</text>
</g>
<!-- d0 -->
<!-- d1 -->
<!-- d0&#45;&gt;d1 -->
<g id="edge28" class="edge">
<title>d0&#45;&gt;d1</title>
<path fill="none" stroke="black" d="M1763.36,-164C1772.91,-164 1816.81,-164 1838.42,-164"/>
<polygon fill="black" stroke="black" points="1838.65,-167.5 1848.65,-164 1838.65,-160.5 1838.65,-167.5"/>
<text text-anchor="middle" x="1806" y="-170.8" font-family="Times,serif" font-size="14.00">Data flow</text>
</g>
<!-- d2 -->
<!-- d3 -->
<!-- d2&#45;&gt;d3 -->
<g id="edge29" class="edge">
<title>d2&#45;&gt;d3</title>
<path fill="none" stroke="black" stroke-dasharray="1,5" d="M1637.31,-164C1647.96,-164 1702.96,-164 1727.58,-164"/>
<polygon fill="black" stroke="black" points="1727.65,-167.5 1737.65,-164 1727.65,-160.5 1727.65,-167.5"/>
<text text-anchor="middle" x="1687.5" y="-170.8" font-family="Times,serif" font-size="14.00">Declaration</text>
</g>
<!-- d4 -->
<!-- d5 -->
<!-- d4&#45;&gt;d5 -->
<g id="edge30" class="edge">
<title>d4&#45;&gt;d5</title>
<path fill="none" stroke="blue" d="M1494.6,-164C1507.22,-164 1573.38,-164 1601.18,-164"/>
<polygon fill="blue" stroke="blue" points="1601.34,-167.5 1611.34,-164 1601.34,-160.5 1601.34,-167.5"/>
<text text-anchor="middle" x="1553" y="-170.8" font-family="Times,serif" font-size="14.00">PHI Data flow</text>
</g>
<!-- d6 -->
<!-- d7 -->
<!-- d6&#45;&gt;d7 -->
<g id="edge31" class="edge">
<title>d6&#45;&gt;d7</title>
<path fill="none" stroke="green" d="M1357.5,-164C1369.44,-164 1431.8,-164 1458.43,-164"/>
<polygon fill="green" stroke="green" points="1458.45,-167.5 1468.45,-164 1458.45,-160.5 1458.45,-167.5"/>
<text text-anchor="middle" x="1413" y="-170.8" font-family="Times,serif" font-size="14.00">Memory flow</text>
</g>
<!-- d8 -->
<!-- d9 -->
<!-- d8&#45;&gt;d9 -->
<g id="edge32" class="edge">
<title>d8&#45;&gt;d9</title>
<path fill="none" stroke="fuchsia" d="M1234.61,-164C1245.65,-164 1297.17,-164 1321.16,-164"/>
<polygon fill="fuchsia" stroke="fuchsia" points="1321.4,-167.5 1331.4,-164 1321.4,-160.5 1321.4,-167.5"/>
<text text-anchor="middle" x="1283" y="-170.8" font-family="Times,serif" font-size="14.00">Dominance</text>
</g>
</g>
</svg>
