<?xml version="1.0" encoding="UTF-8" standalone="no"?>
<!DOCTYPE svg PUBLIC "-//W3C//DTD SVG 1.1//EN"
 "http://www.w3.org/Graphics/SVG/1.1/DTD/svg11.dtd">
<!-- Generated by graphviz version 2.43.0 (0)
 -->
<!-- Title: debugoutput Pages: 1 -->
<svg width="2336pt" height="213pt"
 viewBox="0.00 0.00 2336.00 212.80" xmlns="http://www.w3.org/2000/svg" xmlns:xlink="http://www.w3.org/1999/xlink">
<g id="graph0" class="graph" transform="scale(1 1) rotate(0) translate(4 208.8)">
<title>debugoutput</title>
<polygon fill="white" stroke="transparent" points="-4,4 -4,-208.8 2332,-208.8 2332,4 -4,4"/>
<g id="clust1" class="cluster">
<title>cluster_000</title>
<polygon fill="none" stroke="black" points="1244,-154.2 1244,-196.8 2220,-196.8 2220,-154.2 1244,-154.2"/>
<text text-anchor="middle" x="1732" y="-181.6" font-family="Times,serif" font-size="14.00">Legend</text>
</g>
<!-- node0 -->
<g id="node1" class="node">
<title>node0</title>
<polygon fill="lightgrey" stroke="black" points="1234,-182 1068,-182 1068,-146 1234,-146 1234,-182"/>
<text text-anchor="middle" x="1151" y="-160.3" font-family="Times,serif" font-size="14.00">#0 Method Order : 0</text>
</g>
<!-- node1 -->
<g id="node2" class="node">
<title>node1</title>
<polygon fill="lightgrey" stroke="black" points="186,-109 0,-109 0,-73 186,-73 186,-109"/>
<text text-anchor="middle" x="93" y="-87.3" font-family="Times,serif" font-size="14.00">#1 arg2 : int Order : 12</text>
</g>
<!-- node0&#45;&gt;node1 -->
<g id="edge2" class="edge">
<title>node0&#45;&gt;node1</title>
<path fill="none" stroke="black" d="M1067.76,-161.46C901.88,-157.64 518.62,-145.37 195.75,-110.07"/>
<polygon fill="black" stroke="black" points="196.06,-106.59 185.73,-108.97 195.29,-113.55 196.06,-106.59"/>
<text text-anchor="middle" x="204.68" y="-98.86" font-family="Times,serif" font-size="14.00">*0</text>
</g>
<!-- node2 -->
<g id="node3" class="node">
<title>node2</title>
<polygon fill="lightgrey" stroke="black" points="390,-109 204,-109 204,-73 390,-73 390,-109"/>
<text text-anchor="middle" x="297" y="-87.3" font-family="Times,serif" font-size="14.00">#2 arg4 : int Order : 11</text>
</g>
<!-- node0&#45;&gt;node2 -->
<g id="edge4" class="edge">
<title>node0&#45;&gt;node2</title>
<path fill="none" stroke="black" d="M1067.98,-159.82C929.61,-153.77 643.29,-138.61 399.83,-110.16"/>
<polygon fill="black" stroke="black" points="400.07,-106.66 389.73,-108.97 399.25,-113.62 400.07,-106.66"/>
<text text-anchor="middle" x="408.72" y="-99" font-family="Times,serif" font-size="14.00">*0</text>
</g>
<!-- node3 -->
<g id="node4" class="node">
<title>node3</title>
<polygon fill="lightgrey" stroke="black" points="620,-109 408,-109 408,-73 620,-73 620,-109"/>
<text text-anchor="middle" x="514" y="-87.3" font-family="Times,serif" font-size="14.00">#3 arg8 : String Order : 10</text>
</g>
<!-- node0&#45;&gt;node3 -->
<g id="edge6" class="edge">
<title>node0&#45;&gt;node3</title>
<path fill="none" stroke="black" d="M1067.63,-156.13C964.98,-146.99 785.32,-129.73 629.68,-110.34"/>
<polygon fill="black" stroke="black" points="629.82,-106.83 619.46,-109.06 628.95,-113.77 629.82,-106.83"/>
<text text-anchor="middle" x="638.5" y="-99.23" font-family="Times,serif" font-size="14.00">*0</text>
</g>
<!-- node4 -->
<g id="node5" class="node">
<title>node4</title>
<polygon fill="lightgrey" stroke="black" points="814.5,-109 637.5,-109 637.5,-73 814.5,-73 814.5,-109"/>
<text text-anchor="middle" x="726" y="-87.3" font-family="Times,serif" font-size="14.00">#4 arg1 : int Order : 9</text>
</g>
<!-- node0&#45;&gt;node4 -->
<g id="edge8" class="edge">
<title>node0&#45;&gt;node4</title>
<path fill="none" stroke="black" d="M1067.85,-150.63C1002.29,-140.2 908.43,-124.78 824.65,-110.63"/>
<polygon fill="black" stroke="black" points="825.19,-107.17 814.74,-108.96 824.02,-114.08 825.19,-107.17"/>
<text text-anchor="middle" x="834.03" y="-99.94" font-family="Times,serif" font-size="14.00">*0</text>
</g>
<!-- node5 -->
<g id="node6" class="node">
<title>node5</title>
<polygon fill="lightgrey" stroke="black" points="1039,-109 833,-109 833,-73 1039,-73 1039,-109"/>
<text text-anchor="middle" x="936" y="-87.3" font-family="Times,serif" font-size="14.00">#5 arg7 : double Order : 8</text>
</g>
<!-- node0&#45;&gt;node5 -->
<g id="edge10" class="edge">
<title>node0&#45;&gt;node5</title>
<path fill="none" stroke="black" d="M1093.64,-145.99C1061.95,-135.88 1022.81,-122.99 991.43,-112.34"/>
<polygon fill="black" stroke="black" points="992.55,-109.03 981.95,-109.11 990.29,-115.65 992.55,-109.03"/>
<text text-anchor="middle" x="1001.84" y="-103.26" font-family="Times,serif" font-size="14.00">*0</text>
</g>
<!-- node6 -->
<g id="node7" class="node">
<title>node6</title>
<polygon fill="lightgrey" stroke="black" points="1245,-109 1057,-109 1057,-73 1245,-73 1245,-109"/>
<text text-anchor="middle" x="1151" y="-87.3" font-family="Times,serif" font-size="14.00">#6 arg9 : int[] Order : 7</text>
</g>
<!-- node0&#45;&gt;node6 -->
<g id="edge12" class="edge">
<title>node0&#45;&gt;node6</title>
<path fill="none" stroke="black" d="M1145.12,-145.81C1144.28,-137.79 1144.05,-128.05 1144.42,-119.07"/>
<polygon fill="black" stroke="black" points="1147.92,-119.25 1145.14,-109.03 1140.94,-118.75 1147.92,-119.25"/>
<text text-anchor="middle" x="1152.28" y="-124.01" font-family="Times,serif" font-size="14.00">*0</text>
</g>
<!-- node7 -->
<g id="node8" class="node">
<title>node7</title>
<polygon fill="lightgrey" stroke="black" points="1440.5,-109 1263.5,-109 1263.5,-73 1440.5,-73 1440.5,-109"/>
<text text-anchor="middle" x="1352" y="-87.3" font-family="Times,serif" font-size="14.00">#7 arg0 : int Order : 6</text>
</g>
<!-- node0&#45;&gt;node7 -->
<g id="edge14" class="edge">
<title>node0&#45;&gt;node7</title>
<path fill="none" stroke="black" d="M1193.29,-145.99C1220.72,-135.92 1256.92,-123.1 1287.84,-112.48"/>
<polygon fill="black" stroke="black" points="1289.35,-115.66 1297.68,-109.11 1287.09,-109.04 1289.35,-115.66"/>
<text text-anchor="middle" x="1283.27" y="-119.28" font-family="Times,serif" font-size="14.00">*0</text>
</g>
<!-- node8 -->
<g id="node9" class="node">
<title>node8</title>
<polygon fill="lightgrey" stroke="black" points="1635.5,-109 1458.5,-109 1458.5,-73 1635.5,-73 1635.5,-109"/>
<text text-anchor="middle" x="1547" y="-87.3" font-family="Times,serif" font-size="14.00">#8 arg3 : int Order : 5</text>
</g>
<!-- node0&#45;&gt;node8 -->
<g id="edge16" class="edge">
<title>node0&#45;&gt;node8</title>
<path fill="none" stroke="black" d="M1231.21,-145.96C1243.14,-143.78 1360.13,-123.23 1448.31,-108.13"/>
<polygon fill="black" stroke="black" points="1449.1,-111.55 1458.37,-106.41 1447.92,-104.65 1449.1,-111.55"/>
<text text-anchor="middle" x="1441.92" y="-114.1" font-family="Times,serif" font-size="14.00">*0</text>
</g>
<!-- node9 -->
<g id="node10" class="node">
<title>node9</title>
<polygon fill="lightgrey" stroke="black" points="1842,-109 1654,-109 1654,-73 1842,-73 1842,-109"/>
<text text-anchor="middle" x="1748" y="-87.3" font-family="Times,serif" font-size="14.00">#9 arg5 : long Order : 4</text>
</g>
<!-- node0&#45;&gt;node9 -->
<g id="edge18" class="edge">
<title>node0&#45;&gt;node9</title>
<path fill="none" stroke="black" d="M1231.26,-145.96C1410.03,-120.8 1456.8,-131.94 1636,-109 1638.56,-108.67 1641.15,-108.33 1643.76,-107.97"/>
<polygon fill="black" stroke="black" points="1644.52,-111.4 1653.94,-106.54 1643.55,-104.47 1644.52,-111.4"/>
<text text-anchor="middle" x="1637.17" y="-113.74" font-family="Times,serif" font-size="14.00">*0</text>
</g>
<!-- node10 -->
<g id="node11" class="node">
<title>node10</title>
<polygon fill="lightgrey" stroke="black" points="2058,-109 1860,-109 1860,-73 2058,-73 2058,-109"/>
<text text-anchor="middle" x="1959" y="-87.3" font-family="Times,serif" font-size="14.00">#10 arg6 : float Order : 3</text>
</g>
<!-- node0&#45;&gt;node10 -->
<g id="edge20" class="edge">
<title>node0&#45;&gt;node10</title>
<path fill="none" stroke="black" d="M1231.4,-145.95C1501.01,-112.21 1571.67,-138.39 1842,-109 1844.56,-108.72 1847.15,-108.43 1849.76,-108.11"/>
<polygon fill="black" stroke="black" points="1850.45,-111.55 1859.94,-106.84 1849.58,-104.61 1850.45,-111.55"/>
<text text-anchor="middle" x="1843" y="-113.78" font-family="Times,serif" font-size="14.00">*0</text>
</g>
<!-- node11 -->
<g id="node12" class="node">
<title>node11</title>
<polygon fill="lightgrey" stroke="black" points="2273.5,-109 2076.5,-109 2076.5,-73 2273.5,-73 2273.5,-109"/>
<text text-anchor="middle" x="2175" y="-87.3" font-family="Times,serif" font-size="14.00">#11 LabelNode Order : 1</text>
</g>
<!-- node0&#45;&gt;node11 -->
<g id="edge22" class="edge">
<title>node0&#45;&gt;node11</title>
<path fill="none" stroke="red" d="M1231.27,-145.97C1414.16,-124.58 1875.05,-127.43 2058,-109 2060.7,-108.73 2063.43,-108.43 2066.18,-108.12"/>
<polygon fill="red" stroke="red" points="2066.74,-111.58 2076.24,-106.91 2065.9,-104.63 2066.74,-111.58"/>
</g>
<!-- node12 -->
<g id="node13" class="node">
<title>node12</title>
<polygon fill="lightgrey" stroke="black" points="2328,-36 2158,-36 2158,0 2328,0 2328,-36"/>
<text text-anchor="middle" x="2243" y="-14.3" font-family="Times,serif" font-size="14.00">#12 Return Order : 2</text>
</g>
<!-- node0&#45;&gt;node12 -->
<g id="edge25" class="edge">
<title>node0&#45;&gt;node12</title>
<path fill="none" stroke="green" d="M1231.35,-145.96C1292.31,-139.56 2233.81,-150.64 2274,-109 2291.46,-90.91 2275.68,-63.92 2260.78,-44.22"/>
<polygon fill="green" stroke="green" points="2263.47,-41.98 2254.55,-36.27 2257.96,-46.3 2263.47,-41.98"/>
</g>
<!-- node1&#45;&gt;node0 -->
<g id="edge1" class="edge">
<title>node1&#45;&gt;node0</title>
<path fill="none" stroke="fuchsia" stroke-width="2" d="M186.21,-106.77C192.23,-107.6 198.2,-108.35 204,-109 515.88,-143.69 887.61,-156.58 1057.75,-160.96"/>
<polygon fill="fuchsia" stroke="fuchsia" stroke-width="2" points="1057.83,-164.46 1067.92,-161.22 1058.01,-157.47 1057.83,-164.46"/>
</g>
<!-- node2&#45;&gt;node0 -->
<g id="edge3" class="edge">
<title>node2&#45;&gt;node0</title>
<path fill="none" stroke="fuchsia" stroke-width="2" d="M390.22,-106.67C396.24,-107.52 402.21,-108.31 408,-109 641,-136.72 916.43,-152.1 1057.52,-158.83"/>
<polygon fill="fuchsia" stroke="fuchsia" stroke-width="2" points="1057.7,-162.34 1067.86,-159.31 1058.03,-155.35 1057.7,-162.34"/>
</g>
<!-- node3&#45;&gt;node0 -->
<g id="edge5" class="edge">
<title>node3&#45;&gt;node0</title>
<path fill="none" stroke="fuchsia" stroke-width="2" d="M620.28,-106.81C625.94,-107.57 631.54,-108.31 637,-109 783.81,-127.52 954.39,-144.23 1057.5,-154.01"/>
<polygon fill="fuchsia" stroke="fuchsia" stroke-width="2" points="1057.28,-157.5 1067.57,-154.96 1057.94,-150.53 1057.28,-157.5"/>
</g>
<!-- node4&#45;&gt;node0 -->
<g id="edge7" class="edge">
<title>node4&#45;&gt;node0</title>
<path fill="none" stroke="fuchsia" stroke-width="2" d="M814.66,-105.88C820.88,-106.94 827.04,-107.99 833,-109 908.8,-121.83 994.54,-135.98 1057.93,-146.57"/>
<polygon fill="fuchsia" stroke="fuchsia" stroke-width="2" points="1057.46,-150.04 1067.9,-148.24 1058.62,-143.14 1057.46,-150.04"/>
</g>
<!-- node5&#45;&gt;node0 -->
<g id="edge9" class="edge">
<title>node5&#45;&gt;node0</title>
<path fill="none" stroke="fuchsia" stroke-width="2" d="M993.69,-109.11C1025.3,-119.2 1064.24,-132.03 1095.5,-142.63"/>
<polygon fill="fuchsia" stroke="fuchsia" stroke-width="2" points="1094.77,-146.08 1105.36,-145.99 1097.02,-139.46 1094.77,-146.08"/>
</g>
<!-- node6&#45;&gt;node0 -->
<g id="edge11" class="edge">
<title>node6&#45;&gt;node0</title>
<path fill="none" stroke="fuchsia" stroke-width="2" d="M1156.86,-109.03C1157.71,-117.03 1157.95,-126.77 1157.59,-135.75"/>
<polygon fill="fuchsia" stroke="fuchsia" stroke-width="2" points="1154.09,-135.59 1156.88,-145.81 1161.07,-136.08 1154.09,-135.59"/>
</g>
<!-- node7&#45;&gt;node0 -->
<g id="edge13" class="edge">
<title>node7&#45;&gt;node0</title>
<path fill="none" stroke="fuchsia" stroke-width="2" d="M1309.42,-109.11C1281.92,-119.2 1245.72,-132.03 1214.83,-142.63"/>
<polygon fill="fuchsia" stroke="fuchsia" stroke-width="2" points="1213.33,-139.45 1205,-145.99 1215.6,-146.07 1213.33,-139.45"/>
</g>
<!-- node8&#45;&gt;node0 -->
<g id="edge15" class="edge">
<title>node8&#45;&gt;node0</title>
<path fill="none" stroke="fuchsia" stroke-width="2" d="M1458.38,-108.76C1374.35,-123.89 1259.53,-144.07 1249,-146 1247.5,-146.27 1245.99,-146.55 1244.46,-146.83"/>
<polygon fill="fuchsia" stroke="fuchsia" stroke-width="2" points="1243.46,-143.46 1234.27,-148.73 1244.74,-150.34 1243.46,-143.46"/>
</g>
<!-- node9&#45;&gt;node0 -->
<g id="edge17" class="edge">
<title>node9&#45;&gt;node0</title>
<path fill="none" stroke="fuchsia" stroke-width="2" d="M1653.74,-109.03C1474.67,-131.94 1427.9,-120.8 1249,-146 1247.49,-146.21 1245.97,-146.43 1244.44,-146.66"/>
<polygon fill="fuchsia" stroke="fuchsia" stroke-width="2" points="1243.53,-143.26 1234.19,-148.26 1244.62,-150.18 1243.53,-143.26"/>
</g>
<!-- node10&#45;&gt;node0 -->
<g id="edge19" class="edge">
<title>node10&#45;&gt;node0</title>
<path fill="none" stroke="fuchsia" stroke-width="2" d="M1859.6,-109.04C1589.47,-138.38 1518.81,-112.2 1249,-146 1247.49,-146.19 1245.96,-146.39 1244.43,-146.6"/>
<polygon fill="fuchsia" stroke="fuchsia" stroke-width="2" points="1243.56,-143.19 1234.17,-148.09 1244.57,-150.11 1243.56,-143.19"/>
</g>
<!-- node11&#45;&gt;node0 -->
<g id="edge21" class="edge">
<title>node11&#45;&gt;node0</title>
<path fill="none" stroke="fuchsia" stroke-width="2" d="M2076.28,-108.97C2076.19,-108.98 2076.09,-108.99 2076,-109 1892.97,-127.44 1431.71,-124.58 1249,-146 1247.49,-146.18 1245.96,-146.37 1244.42,-146.56"/>
<polygon fill="fuchsia" stroke="fuchsia" stroke-width="2" points="1243.58,-143.15 1234.16,-148 1244.55,-150.08 1243.58,-143.15"/>
</g>
<!-- node11&#45;&gt;node12 -->
<g id="edge24" class="edge">
<title>node11&#45;&gt;node12</title>
<path fill="none" stroke="red" d="M2191.46,-72.81C2199.9,-64 2210.32,-53.13 2219.58,-43.46"/>
<polygon fill="red" stroke="red" points="2222.3,-45.67 2226.69,-36.03 2217.25,-40.83 2222.3,-45.67"/>
</g>
<!-- node12&#45;&gt;node0 -->
<g id="edge23" class="edge">
<title>node12&#45;&gt;node0</title>
<path fill="none" stroke="fuchsia" stroke-width="2" d="M2267.46,-36.27C2288.49,-56.03 2311.95,-88.33 2292,-109 2251.73,-150.72 1306.62,-139.51 1249,-146 1247.49,-146.17 1245.96,-146.35 1244.42,-146.54"/>
<polygon fill="fuchsia" stroke="fuchsia" stroke-width="2" points="1243.59,-143.13 1234.15,-147.95 1244.54,-150.06 1243.59,-143.13"/>
</g>
<!-- c0 -->
<!-- c1 -->
<!-- c0&#45;&gt;c1 -->
<g id="edge26" class="edge">
<title>c0&#45;&gt;c1</title>
<path fill="none" stroke="red" d="M2102.89,-164C2114.11,-164 2172.24,-164 2197.86,-164"/>
<polygon fill="red" stroke="red" points="2198.06,-167.5 2208.06,-164 2198.06,-160.5 2198.06,-167.5"/>
<text text-anchor="middle" x="2155.5" y="-170.8" font-family="Times,serif" font-size="14.00">Control flow</text>
</g>
<!-- c2 -->
<!-- c3 -->
<!-- c2&#45;&gt;c3 -->
<g id="edge27" class="edge">
<title>c2&#45;&gt;c3</title>
<path fill="none" stroke="red" stroke-dasharray="5,2" d="M1896.08,-164C1913.05,-164 2029.21,-164 2067.08,-164"/>
<polygon fill="red" stroke="red" points="2067.17,-167.5 2077.17,-164 2067.17,-160.5 2067.17,-167.5"/>
<text text-anchor="middle" x="1986.5" y="-170.8" font-family="Times,serif" font-size="14.00">Control flow back edge</text>
</g>
<!-- d0 -->
<!-- d1 -->
<!-- d0&#45;&gt;d1 -->
<g id="edge28" class="edge">
<title>d0&#45;&gt;d1</title>
<path fill="none" stroke="black" d="M1784.86,-164C1794.41,-164 1838.31,-164 1859.92,-164"/>
<polygon fill="black" stroke="black" points="1860.15,-167.5 1870.15,-164 1860.15,-160.5 1860.15,-167.5"/>
<text text-anchor="middle" x="1827.5" y="-170.8" font-family="Times,serif" font-size="14.00">Data flow</text>
</g>
<!-- d2 -->
<!-- d3 -->
<!-- d2&#45;&gt;d3 -->
<g id="edge29" class="edge">
<title>d2&#45;&gt;d3</title>
<path fill="none" stroke="black" stroke-dasharray="1,5" d="M1658.81,-164C1669.46,-164 1724.46,-164 1749.08,-164"/>
<polygon fill="black" stroke="black" points="1749.15,-167.5 1759.15,-164 1749.15,-160.5 1749.15,-167.5"/>
<text text-anchor="middle" x="1709" y="-170.8" font-family="Times,serif" font-size="14.00">Declaration</text>
</g>
<!-- d4 -->
<!-- d5 -->
<!-- d4&#45;&gt;d5 -->
<g id="edge30" class="edge">
<title>d4&#45;&gt;d5</title>
<path fill="none" stroke="blue" d="M1516.1,-164C1528.72,-164 1594.88,-164 1622.68,-164"/>
<polygon fill="blue" stroke="blue" points="1622.84,-167.5 1632.84,-164 1622.84,-160.5 1622.84,-167.5"/>
<text text-anchor="middle" x="1574.5" y="-170.8" font-family="Times,serif" font-size="14.00">PHI Data flow</text>
</g>
<!-- d6 -->
<!-- d7 -->
<!-- d6&#45;&gt;d7 -->
<g id="edge31" class="edge">
<title>d6&#45;&gt;d7</title>
<path fill="none" stroke="green" d="M1379,-164C1390.94,-164 1453.3,-164 1479.93,-164"/>
<polygon fill="green" stroke="green" points="1479.95,-167.5 1489.95,-164 1479.95,-160.5 1479.95,-167.5"/>
<text text-anchor="middle" x="1434.5" y="-170.8" font-family="Times,serif" font-size="14.00">Memory flow</text>
</g>
<!-- d8 -->
<!-- d9 -->
<!-- d8&#45;&gt;d9 -->
<g id="edge32" class="edge">
<title>d8&#45;&gt;d9</title>
<path fill="none" stroke="fuchsia" d="M1256.11,-164C1267.15,-164 1318.67,-164 1342.66,-164"/>
<polygon fill="fuchsia" stroke="fuchsia" points="1342.9,-167.5 1352.9,-164 1342.9,-160.5 1342.9,-167.5"/>
<text text-anchor="middle" x="1304.5" y="-170.8" font-family="Times,serif" font-size="14.00">Dominance</text>
</g>
</g>
</svg>
