<?xml version="1.0" encoding="UTF-8" standalone="no"?>
<!DOCTYPE svg PUBLIC "-//W3C//DTD SVG 1.1//EN"
 "http://www.w3.org/Graphics/SVG/1.1/DTD/svg11.dtd">
<!-- Generated by graphviz version 2.43.0 (0)
 -->
<!-- Title: %3 Pages: 1 -->
<svg width="1037pt" height="295pt"
 viewBox="0.00 0.00 1037.22 294.80" xmlns="http://www.w3.org/2000/svg" xmlns:xlink="http://www.w3.org/1999/xlink">
<g id="graph0" class="graph" transform="scale(1 1) rotate(0) translate(4 290.8)">
<title>%3</title>
<polygon fill="white" stroke="transparent" points="-4,4 -4,-290.8 1033.22,-290.8 1033.22,4 -4,4"/>
<g id="clust1" class="cluster">
<title>cluster_0</title>
<polygon fill="none" stroke="lightgray" points="12.22,-65 12.22,-190 162.22,-190 162.22,-65 12.22,-65"/>
</g>
<g id="clust2" class="cluster">
<title>cluster_000</title>
<polygon fill="none" stroke="black" points="168.22,-236.2 168.22,-278.8 1021.22,-278.8 1021.22,-236.2 168.22,-236.2"/>
<text text-anchor="middle" x="594.72" y="-263.6" font-family="Times,serif" font-size="14.00">Legend</text>
</g>
<!-- node0 -->
<g id="node1" class="node">
<title>node0</title>
<polygon fill="lightgrey" stroke="transparent" points="158.72,-273 25.72,-273 25.72,-219 158.72,-219 158.72,-273"/>
<polygon fill="none" stroke="black" points="26.22,-246 26.22,-273 159.22,-273 159.22,-246 26.22,-246"/>
<text text-anchor="start" x="52.22" y="-255.8" font-family="Times,serif" font-size="14.00">#0 Method</text>
<polygon fill="yellow" stroke="transparent" points="26.22,-219 26.22,-246 159.22,-246 159.22,-219 26.22,-219"/>
<polygon fill="none" stroke="black" points="26.22,-219 26.22,-246 159.22,-246 159.22,-219 26.22,-219"/>
<text text-anchor="start" x="32.22" y="-228.8" font-family="Times,serif" font-size="14.00">this : ReturnTest</text>
</g>
<!-- node4 -->
<g id="node2" class="node">
<title>node4</title>
<polygon fill="lightgrey" stroke="black" points="228.72,-36 53.72,-36 53.72,0 228.72,0 228.72,-36"/>
<text text-anchor="middle" x="141.22" y="-14.3" font-family="Times,serif" font-size="14.00">#4 ReturnValue : long</text>
</g>
<!-- node0&#45;&gt;node4 -->
<g id="edge3" class="edge">
<title>node0&#45;&gt;node4</title>
<path fill="none" stroke="green" d="M35.38,-218.95C24.48,-211.24 14.52,-201.65 8.22,-190 -1.08,-172.8 -3.93,-161.32 8.22,-146 53.03,-89.49 121.41,-165.51 166.22,-109 180.83,-90.57 170.87,-64.14 159.48,-44.68"/>
<polygon fill="green" stroke="green" points="162.33,-42.64 154.05,-36.03 156.4,-46.36 162.33,-42.64"/>
</g>
<!-- node2 -->
<g id="node4" class="node">
<title>node2</title>
<polygon fill="lightgrey" stroke="black" points="151.72,-182 32.72,-182 32.72,-146 151.72,-146 151.72,-182"/>
<text text-anchor="middle" x="92.22" y="-160.3" font-family="Times,serif" font-size="14.00">#2 LabelNode</text>
</g>
<!-- node0&#45;&gt;node2 -->
<g id="edge4" class="edge">
<title>node0&#45;&gt;node2</title>
<path fill="none" stroke="red" d="M92.22,-218.81C92.22,-210.35 92.22,-200.95 92.22,-192.4"/>
<polygon fill="red" stroke="red" points="95.72,-192.17 92.22,-182.17 88.72,-192.17 95.72,-192.17"/>
</g>
<!-- node3 -->
<g id="node3" class="node">
<title>node3</title>
<polygon fill="lightgreen" stroke="black" points="153.89,-83.54 153.89,-98.46 114.83,-109 59.61,-109 20.56,-98.46 20.56,-83.54 59.61,-73 114.83,-73 153.89,-83.54"/>
<text text-anchor="middle" x="87.22" y="-87.3" font-family="Times,serif" font-size="14.00">#3 long 10</text>
</g>
<!-- node3&#45;&gt;node4 -->
<g id="edge1" class="edge">
<title>node3&#45;&gt;node4</title>
<path fill="none" stroke="black" d="M100.29,-72.81C106.86,-64.18 114.94,-53.56 122.18,-44.03"/>
<polygon fill="black" stroke="black" points="125,-46.11 128.27,-36.03 119.43,-41.87 125,-46.11"/>
<text text-anchor="middle" x="124.02" y="-51.87" font-family="Times,serif" font-size="14.00">*0</text>
</g>
<!-- node2&#45;&gt;node4 -->
<g id="edge2" class="edge">
<title>node2&#45;&gt;node4</title>
<path fill="none" stroke="red" d="M151.8,-157.87C171.02,-153.06 190.39,-144.18 202.22,-128 218.82,-105.3 208.23,-90.44 196.22,-65 192.16,-56.4 185.63,-48.84 178.46,-42.46"/>
<polygon fill="red" stroke="red" points="180.49,-39.6 170.52,-36.01 176.08,-45.03 180.49,-39.6"/>
</g>
<!-- node2&#45;&gt;node3 -->
<g id="edge5" class="edge">
<title>node2&#45;&gt;node3</title>
<path fill="none" stroke="black" stroke-dasharray="1,5" d="M91.01,-145.81C90.45,-137.79 89.76,-128.05 89.13,-119.07"/>
<polygon fill="black" stroke="black" points="92.61,-118.76 88.42,-109.03 85.63,-119.25 92.61,-118.76"/>
</g>
<!-- c0 -->
<!-- c1 -->
<!-- c0&#45;&gt;c1 -->
<g id="edge6" class="edge">
<title>c0&#45;&gt;c1</title>
<path fill="none" stroke="red" d="M904.11,-246C915.33,-246 973.46,-246 999.08,-246"/>
<polygon fill="red" stroke="red" points="999.28,-249.5 1009.28,-246 999.28,-242.5 999.28,-249.5"/>
<text text-anchor="middle" x="956.72" y="-252.8" font-family="Times,serif" font-size="14.00">Control flow</text>
</g>
<!-- c2 -->
<!-- c3 -->
<!-- c2&#45;&gt;c3 -->
<g id="edge7" class="edge">
<title>c2&#45;&gt;c3</title>
<path fill="none" stroke="red" stroke-dasharray="5,2" d="M697.3,-246C714.27,-246 830.43,-246 868.31,-246"/>
<polygon fill="red" stroke="red" points="868.39,-249.5 878.39,-246 868.39,-242.5 868.39,-249.5"/>
<text text-anchor="middle" x="787.72" y="-252.8" font-family="Times,serif" font-size="14.00">Control flow back edge</text>
</g>
<!-- d0 -->
<!-- d1 -->
<!-- d0&#45;&gt;d1 -->
<g id="edge8" class="edge">
<title>d0&#45;&gt;d1</title>
<path fill="none" stroke="black" d="M586.08,-246C595.63,-246 639.53,-246 661.14,-246"/>
<polygon fill="black" stroke="black" points="661.37,-249.5 671.37,-246 661.37,-242.5 661.37,-249.5"/>
<text text-anchor="middle" x="628.72" y="-252.8" font-family="Times,serif" font-size="14.00">Data flow</text>
</g>
<!-- d2 -->
<!-- d3 -->
<!-- d2&#45;&gt;d3 -->
<g id="edge9" class="edge">
<title>d2&#45;&gt;d3</title>
<path fill="none" stroke="black" stroke-dasharray="1,5" d="M460.03,-246C470.68,-246 525.69,-246 550.3,-246"/>
<polygon fill="black" stroke="black" points="550.37,-249.5 560.37,-246 550.37,-242.5 550.37,-249.5"/>
<text text-anchor="middle" x="510.22" y="-252.8" font-family="Times,serif" font-size="14.00">Declaration</text>
</g>
<!-- d4 -->
<!-- d5 -->
<!-- d4&#45;&gt;d5 -->
<g id="edge10" class="edge">
<title>d4&#45;&gt;d5</title>
<path fill="none" stroke="blue" d="M317.32,-246C329.94,-246 396.1,-246 423.9,-246"/>
<polygon fill="blue" stroke="blue" points="424.06,-249.5 434.06,-246 424.06,-242.5 424.06,-249.5"/>
<text text-anchor="middle" x="375.72" y="-252.8" font-family="Times,serif" font-size="14.00">PHI Data flow</text>
</g>
<!-- d6 -->
<!-- d7 -->
<!-- d6&#45;&gt;d7 -->
<g id="edge11" class="edge">
<title>d6&#45;&gt;d7</title>
<path fill="none" stroke="green" d="M180.22,-246C192.16,-246 254.52,-246 281.15,-246"/>
<polygon fill="green" stroke="green" points="281.17,-249.5 291.17,-246 281.17,-242.5 281.17,-249.5"/>
<text text-anchor="middle" x="235.72" y="-252.8" font-family="Times,serif" font-size="14.00">Memory flow</text>
</g>
</g>
</svg>
