<?xml version="1.0" encoding="UTF-8" standalone="no"?>
<!DOCTYPE svg PUBLIC "-//W3C//DTD SVG 1.1//EN"
 "http://www.w3.org/Graphics/SVG/1.1/DTD/svg11.dtd">
<!-- Generated by graphviz version 2.43.0 (0)
 -->
<!-- Title: debugoutput Pages: 1 -->
<svg width="1429pt" height="286pt"
 viewBox="0.00 0.00 1428.50 285.80" xmlns="http://www.w3.org/2000/svg" xmlns:xlink="http://www.w3.org/1999/xlink">
<g id="graph0" class="graph" transform="scale(1 1) rotate(0) translate(4 281.8)">
<title>debugoutput</title>
<polygon fill="white" stroke="transparent" points="-4,4 -4,-281.8 1424.5,-281.8 1424.5,4 -4,4"/>
<g id="clust1" class="cluster">
<title>cluster_000</title>
<polygon fill="none" stroke="black" points="436.5,-227.2 436.5,-269.8 1412.5,-269.8 1412.5,-227.2 436.5,-227.2"/>
<text text-anchor="middle" x="924.5" y="-254.6" font-family="Times,serif" font-size="14.00">Legend</text>
</g>
<!-- node0 -->
<g id="node1" class="node">
<title>node0</title>
<polygon fill="lightgrey" stroke="black" points="426.5,-255 260.5,-255 260.5,-219 426.5,-219 426.5,-255"/>
<text text-anchor="middle" x="343.5" y="-233.3" font-family="Times,serif" font-size="14.00">#0 Method Order : 0</text>
</g>
<!-- node1 -->
<g id="node2" class="node">
<title>node1</title>
<polygon fill="lightgrey" stroke="black" points="231,-182 0,-182 0,-146 231,-146 231,-182"/>
<text text-anchor="middle" x="115.5" y="-160.3" font-family="Times,serif" font-size="14.00">#1 this : ReturnTest Order : 4</text>
</g>
<!-- node0&#45;&gt;node1 -->
<g id="edge2" class="edge">
<title>node0&#45;&gt;node1</title>
<path fill="none" stroke="black" d="M283.03,-218.99C249.34,-208.84 207.63,-195.88 174.22,-185.2"/>
<polygon fill="black" stroke="black" points="175.18,-181.83 164.59,-182.11 173.04,-188.5 175.18,-181.83"/>
<text text-anchor="middle" x="184.43" y="-175.9" font-family="Times,serif" font-size="14.00">*0</text>
</g>
<!-- node2 -->
<g id="node3" class="node">
<title>node2</title>
<polygon fill="lightgrey" stroke="black" points="437.5,-182 249.5,-182 249.5,-146 437.5,-146 437.5,-182"/>
<text text-anchor="middle" x="343.5" y="-160.3" font-family="Times,serif" font-size="14.00">#2 LabelNode Order : 1</text>
</g>
<!-- node0&#45;&gt;node2 -->
<g id="edge4" class="edge">
<title>node0&#45;&gt;node2</title>
<path fill="none" stroke="red" d="M337.62,-218.81C336.78,-210.79 336.55,-201.05 336.92,-192.07"/>
<polygon fill="red" stroke="red" points="340.42,-192.25 337.64,-182.03 333.44,-191.75 340.42,-192.25"/>
</g>
<!-- node4 -->
<g id="node5" class="node">
<title>node4</title>
<polygon fill="lightgrey" stroke="black" points="590.5,-36 346.5,-36 346.5,0 590.5,0 590.5,-36"/>
<text text-anchor="middle" x="468.5" y="-14.3" font-family="Times,serif" font-size="14.00">#4 ReturnValue : long Order : 3</text>
</g>
<!-- node0&#45;&gt;node4 -->
<g id="edge10" class="edge">
<title>node0&#45;&gt;node4</title>
<path fill="none" stroke="green" d="M385.54,-218.93C403.63,-210.4 423.67,-198.33 437.5,-182 475.34,-137.32 466.63,-113.25 472.5,-55 472.8,-52.02 472.59,-48.98 472.1,-45.99"/>
<polygon fill="green" stroke="green" points="475.46,-45.01 469.61,-36.17 468.67,-46.72 475.46,-45.01"/>
</g>
<!-- node1&#45;&gt;node0 -->
<g id="edge1" class="edge">
<title>node1&#45;&gt;node0</title>
<path fill="none" stroke="fuchsia" stroke-width="2" d="M176.33,-182.11C210.07,-192.29 251.79,-205.25 285.13,-215.91"/>
<polygon fill="fuchsia" stroke="fuchsia" stroke-width="2" points="284.16,-219.27 294.75,-218.99 286.29,-212.61 284.16,-219.27"/>
</g>
<!-- node2&#45;&gt;node0 -->
<g id="edge3" class="edge">
<title>node2&#45;&gt;node0</title>
<path fill="none" stroke="fuchsia" stroke-width="2" d="M349.36,-182.03C350.21,-190.03 350.45,-199.77 350.09,-208.75"/>
<polygon fill="fuchsia" stroke="fuchsia" stroke-width="2" points="346.59,-208.59 349.38,-218.81 353.57,-209.08 346.59,-208.59"/>
</g>
<!-- node3 -->
<g id="node4" class="node">
<title>node3</title>
<polygon fill="lightgreen" stroke="black" points="440.75,-83.54 440.75,-98.46 373.24,-109 277.76,-109 210.25,-98.46 210.25,-83.54 277.76,-73 373.24,-73 440.75,-83.54"/>
<text text-anchor="middle" x="325.5" y="-87.3" font-family="Times,serif" font-size="14.00">#3 long 10 Order : 2</text>
</g>
<!-- node2&#45;&gt;node3 -->
<g id="edge6" class="edge">
<title>node2&#45;&gt;node3</title>
<path fill="none" stroke="black" stroke-dasharray="1,5" d="M333.26,-145.81C330.39,-137.79 327.69,-128.05 325.78,-119.07"/>
<polygon fill="black" stroke="black" points="329.19,-118.24 323.96,-109.03 322.3,-119.49 329.19,-118.24"/>
</g>
<!-- node2&#45;&gt;node4 -->
<g id="edge9" class="edge">
<title>node2&#45;&gt;node4</title>
<path fill="none" stroke="red" d="M398.79,-145.92C417.45,-137.57 436.75,-125.64 449.5,-109 463.27,-91.03 467.61,-65.37 468.75,-46.04"/>
<polygon fill="red" stroke="red" points="472.25,-46.16 469.09,-36.04 465.25,-45.92 472.25,-46.16"/>
</g>
<!-- node3&#45;&gt;node2 -->
<g id="edge5" class="edge">
<title>node3&#45;&gt;node2</title>
<path fill="none" stroke="fuchsia" stroke-width="2" d="M335.68,-109.03C338.55,-117.03 341.26,-126.77 343.18,-135.75"/>
<polygon fill="fuchsia" stroke="fuchsia" stroke-width="2" points="339.78,-136.61 345.02,-145.81 346.66,-135.35 339.78,-136.61"/>
</g>
<!-- node3&#45;&gt;node4 -->
<g id="edge8" class="edge">
<title>node3&#45;&gt;node4</title>
<path fill="none" stroke="black" d="M359.75,-72.99C379.33,-63.27 404.08,-50.99 425.02,-40.59"/>
<polygon fill="black" stroke="black" points="426.63,-43.7 434.03,-36.11 423.52,-37.43 426.63,-43.7"/>
<text text-anchor="middle" x="421.56" y="-48.04" font-family="Times,serif" font-size="14.00">*0</text>
</g>
<!-- node4&#45;&gt;node0 -->
<g id="edge7" class="edge">
<title>node4&#45;&gt;node0</title>
<path fill="none" stroke="fuchsia" stroke-width="2" d="M486.66,-36.17C489.47,-42 491.14,-48.65 490.5,-55 484.63,-113.25 493.34,-137.32 455.5,-182 443.83,-195.78 427.74,-206.52 411.36,-214.67"/>
<polygon fill="fuchsia" stroke="fuchsia" stroke-width="2" points="409.83,-211.52 402.26,-218.93 412.8,-217.86 409.83,-211.52"/>
</g>
<!-- c0 -->
<!-- c1 -->
<!-- c0&#45;&gt;c1 -->
<g id="edge11" class="edge">
<title>c0&#45;&gt;c1</title>
<path fill="none" stroke="red" d="M1295.39,-237C1306.61,-237 1364.74,-237 1390.36,-237"/>
<polygon fill="red" stroke="red" points="1390.56,-240.5 1400.56,-237 1390.56,-233.5 1390.56,-240.5"/>
<text text-anchor="middle" x="1348" y="-243.8" font-family="Times,serif" font-size="14.00">Control flow</text>
</g>
<!-- c2 -->
<!-- c3 -->
<!-- c2&#45;&gt;c3 -->
<g id="edge12" class="edge">
<title>c2&#45;&gt;c3</title>
<path fill="none" stroke="red" stroke-dasharray="5,2" d="M1088.58,-237C1105.55,-237 1221.71,-237 1259.58,-237"/>
<polygon fill="red" stroke="red" points="1259.67,-240.5 1269.67,-237 1259.67,-233.5 1259.67,-240.5"/>
<text text-anchor="middle" x="1179" y="-243.8" font-family="Times,serif" font-size="14.00">Control flow back edge</text>
</g>
<!-- d0 -->
<!-- d1 -->
<!-- d0&#45;&gt;d1 -->
<g id="edge13" class="edge">
<title>d0&#45;&gt;d1</title>
<path fill="none" stroke="black" d="M977.36,-237C986.91,-237 1030.81,-237 1052.42,-237"/>
<polygon fill="black" stroke="black" points="1052.65,-240.5 1062.65,-237 1052.65,-233.5 1052.65,-240.5"/>
<text text-anchor="middle" x="1020" y="-243.8" font-family="Times,serif" font-size="14.00">Data flow</text>
</g>
<!-- d2 -->
<!-- d3 -->
<!-- d2&#45;&gt;d3 -->
<g id="edge14" class="edge">
<title>d2&#45;&gt;d3</title>
<path fill="none" stroke="black" stroke-dasharray="1,5" d="M851.31,-237C861.96,-237 916.96,-237 941.58,-237"/>
<polygon fill="black" stroke="black" points="941.65,-240.5 951.65,-237 941.65,-233.5 941.65,-240.5"/>
<text text-anchor="middle" x="901.5" y="-243.8" font-family="Times,serif" font-size="14.00">Declaration</text>
</g>
<!-- d4 -->
<!-- d5 -->
<!-- d4&#45;&gt;d5 -->
<g id="edge15" class="edge">
<title>d4&#45;&gt;d5</title>
<path fill="none" stroke="blue" d="M708.6,-237C721.22,-237 787.38,-237 815.18,-237"/>
<polygon fill="blue" stroke="blue" points="815.34,-240.5 825.34,-237 815.34,-233.5 815.34,-240.5"/>
<text text-anchor="middle" x="767" y="-243.8" font-family="Times,serif" font-size="14.00">PHI Data flow</text>
</g>
<!-- d6 -->
<!-- d7 -->
<!-- d6&#45;&gt;d7 -->
<g id="edge16" class="edge">
<title>d6&#45;&gt;d7</title>
<path fill="none" stroke="green" d="M571.5,-237C583.44,-237 645.8,-237 672.43,-237"/>
<polygon fill="green" stroke="green" points="672.45,-240.5 682.45,-237 672.45,-233.5 672.45,-240.5"/>
<text text-anchor="middle" x="627" y="-243.8" font-family="Times,serif" font-size="14.00">Memory flow</text>
</g>
<!-- d8 -->
<!-- d9 -->
<!-- d8&#45;&gt;d9 -->
<g id="edge17" class="edge">
<title>d8&#45;&gt;d9</title>
<path fill="none" stroke="fuchsia" d="M448.61,-237C459.65,-237 511.17,-237 535.16,-237"/>
<polygon fill="fuchsia" stroke="fuchsia" points="535.4,-240.5 545.4,-237 535.4,-233.5 535.4,-240.5"/>
<text text-anchor="middle" x="497" y="-243.8" font-family="Times,serif" font-size="14.00">Dominance</text>
</g>
</g>
</svg>
