<?xml version="1.0" encoding="UTF-8" standalone="no"?>
<!DOCTYPE svg PUBLIC "-//W3C//DTD SVG 1.1//EN"
 "http://www.w3.org/Graphics/SVG/1.1/DTD/svg11.dtd">
<!-- Generated by graphviz version 2.43.0 (0)
 -->
<!-- Title: debugoutput Pages: 1 -->
<svg width="2306pt" height="213pt"
 viewBox="0.00 0.00 2306.49 212.80" xmlns="http://www.w3.org/2000/svg" xmlns:xlink="http://www.w3.org/1999/xlink">
<g id="graph0" class="graph" transform="scale(1 1) rotate(0) translate(4 208.8)">
<title>debugoutput</title>
<polygon fill="white" stroke="transparent" points="-4,4 -4,-208.8 2302.49,-208.8 2302.49,4 -4,4"/>
<g id="clust1" class="cluster">
<title>cluster_000</title>
<polygon fill="none" stroke="black" points="1221,-154.2 1221,-196.8 2197,-196.8 2197,-154.2 1221,-154.2"/>
<text text-anchor="middle" x="1709" y="-181.6" font-family="Times,serif" font-size="14.00">Legend</text>
</g>
<!-- node0 -->
<g id="node1" class="node">
<title>node0</title>
<polygon fill="lightgrey" stroke="black" points="1211,-182 1045,-182 1045,-146 1211,-146 1211,-182"/>
<text text-anchor="middle" x="1128" y="-160.3" font-family="Times,serif" font-size="14.00">#0 Method Order : 0</text>
</g>
<!-- node1 -->
<g id="node2" class="node">
<title>node1</title>
<polygon fill="lightgrey" stroke="black" points="186,-109 0,-109 0,-73 186,-73 186,-109"/>
<text text-anchor="middle" x="93" y="-87.3" font-family="Times,serif" font-size="14.00">#1 arg2 : int Order : 12</text>
</g>
<!-- node0&#45;&gt;node1 -->
<g id="edge2" class="edge">
<title>node0&#45;&gt;node1</title>
<path fill="none" stroke="black" d="M1044.76,-161.31C881.85,-157.25 509.74,-144.61 195.93,-110.1"/>
<polygon fill="black" stroke="black" points="196.06,-106.59 185.73,-108.97 195.29,-113.55 196.06,-106.59"/>
<text text-anchor="middle" x="204.68" y="-98.87" font-family="Times,serif" font-size="14.00">*0</text>
</g>
<!-- node2 -->
<g id="node3" class="node">
<title>node2</title>
<polygon fill="lightgrey" stroke="black" points="402,-109 204,-109 204,-73 402,-73 402,-109"/>
<text text-anchor="middle" x="303" y="-87.3" font-family="Times,serif" font-size="14.00">#2 arg6 : float Order : 11</text>
</g>
<!-- node0&#45;&gt;node2 -->
<g id="edge4" class="edge">
<title>node0&#45;&gt;node2</title>
<path fill="none" stroke="black" d="M1044.86,-159.22C911.62,-152.44 642.19,-136.43 412.55,-110.22"/>
<polygon fill="black" stroke="black" points="412.67,-106.71 402.34,-109.04 411.87,-113.66 412.67,-106.71"/>
<text text-anchor="middle" x="421.31" y="-99.02" font-family="Times,serif" font-size="14.00">*0</text>
</g>
<!-- node3 -->
<g id="node4" class="node">
<title>node3</title>
<polygon fill="lightgrey" stroke="black" points="606,-109 420,-109 420,-73 606,-73 606,-109"/>
<text text-anchor="middle" x="513" y="-87.3" font-family="Times,serif" font-size="14.00">#3 arg3 : int Order : 10</text>
</g>
<!-- node0&#45;&gt;node3 -->
<g id="edge6" class="edge">
<title>node0&#45;&gt;node3</title>
<path fill="none" stroke="black" d="M1044.57,-156.39C943.35,-147.63 767.58,-130.87 615.44,-110.41"/>
<polygon fill="black" stroke="black" points="615.83,-106.94 605.45,-109.06 614.89,-113.87 615.83,-106.94"/>
<text text-anchor="middle" x="624.55" y="-99.42" font-family="Times,serif" font-size="14.00">*0</text>
</g>
<!-- node4 -->
<g id="node5" class="node">
<title>node4</title>
<polygon fill="lightgrey" stroke="black" points="826.5,-109 623.5,-109 623.5,-73 826.5,-73 826.5,-109"/>
<text text-anchor="middle" x="725" y="-87.3" font-family="Times,serif" font-size="14.00">#4 arg8 : String Order : 9</text>
</g>
<!-- node0&#45;&gt;node4 -->
<g id="edge8" class="edge">
<title>node0&#45;&gt;node4</title>
<path fill="none" stroke="black" d="M1044.84,-149.31C981.34,-138.39 893.61,-122.96 826.06,-110.87"/>
<polygon fill="black" stroke="black" points="826.29,-107.35 815.83,-109.03 825.05,-114.24 826.29,-107.35"/>
<text text-anchor="middle" x="835.16" y="-100.21" font-family="Times,serif" font-size="14.00">*0</text>
</g>
<!-- node5 -->
<g id="node6" class="node">
<title>node5</title>
<polygon fill="lightgrey" stroke="black" points="1021.5,-109 844.5,-109 844.5,-73 1021.5,-73 1021.5,-109"/>
<text text-anchor="middle" x="933" y="-87.3" font-family="Times,serif" font-size="14.00">#5 arg0 : int Order : 7</text>
</g>
<!-- node0&#45;&gt;node5 -->
<g id="edge10" class="edge">
<title>node0&#45;&gt;node5</title>
<path fill="none" stroke="black" d="M1075.43,-145.99C1046.96,-136.01 1012,-123.32 983.8,-112.76"/>
<polygon fill="black" stroke="black" points="984.72,-109.36 974.13,-109.11 982.26,-115.91 984.72,-109.36"/>
<text text-anchor="middle" x="994.07" y="-103.89" font-family="Times,serif" font-size="14.00">*0</text>
</g>
<!-- node6 -->
<g id="node7" class="node">
<title>node6</title>
<polygon fill="lightgrey" stroke="black" points="1216.5,-109 1039.5,-109 1039.5,-73 1216.5,-73 1216.5,-109"/>
<text text-anchor="middle" x="1128" y="-87.3" font-family="Times,serif" font-size="14.00">#6 arg4 : int Order : 6</text>
</g>
<!-- node0&#45;&gt;node6 -->
<g id="edge12" class="edge">
<title>node0&#45;&gt;node6</title>
<path fill="none" stroke="black" d="M1122.12,-145.81C1121.28,-137.79 1121.05,-128.05 1121.42,-119.07"/>
<polygon fill="black" stroke="black" points="1124.92,-119.25 1122.14,-109.03 1117.94,-118.75 1124.92,-119.25"/>
<text text-anchor="middle" x="1129.28" y="-124.01" font-family="Times,serif" font-size="14.00">*0</text>
</g>
<!-- node7 -->
<g id="node8" class="node">
<title>node7</title>
<polygon fill="lightgrey" stroke="black" points="1411.5,-109 1234.5,-109 1234.5,-73 1411.5,-73 1411.5,-109"/>
<text text-anchor="middle" x="1323" y="-87.3" font-family="Times,serif" font-size="14.00">#7 arg1 : int Order : 5</text>
</g>
<!-- node0&#45;&gt;node7 -->
<g id="edge14" class="edge">
<title>node0&#45;&gt;node7</title>
<path fill="none" stroke="black" d="M1168.85,-145.99C1195.43,-135.92 1230.54,-123.1 1260.57,-112.48"/>
<polygon fill="black" stroke="black" points="1261.86,-115.74 1270.13,-109.11 1259.53,-109.13 1261.86,-115.74"/>
<text text-anchor="middle" x="1255.84" y="-119.41" font-family="Times,serif" font-size="14.00">*0</text>
</g>
<!-- node8 -->
<g id="node9" class="node">
<title>node8</title>
<polygon fill="lightgrey" stroke="black" points="1618,-109 1430,-109 1430,-73 1618,-73 1618,-109"/>
<text text-anchor="middle" x="1524" y="-87.3" font-family="Times,serif" font-size="14.00">#8 arg9 : int[] Order : 4</text>
</g>
<!-- node0&#45;&gt;node8 -->
<g id="edge16" class="edge">
<title>node0&#45;&gt;node8</title>
<path fill="none" stroke="black" d="M1208.4,-145.93C1278.7,-133.03 1358.12,-119.08 1419.75,-108.6"/>
<polygon fill="black" stroke="black" points="1420.6,-112.01 1429.87,-106.88 1419.43,-105.1 1420.6,-112.01"/>
<text text-anchor="middle" x="1413.42" y="-114.55" font-family="Times,serif" font-size="14.00">*0</text>
</g>
<!-- node9 -->
<g id="node10" class="node">
<title>node9</title>
<polygon fill="lightgrey" stroke="black" points="1842,-109 1636,-109 1636,-73 1842,-73 1842,-109"/>
<text text-anchor="middle" x="1739" y="-87.3" font-family="Times,serif" font-size="14.00">#9 arg7 : double Order : 3</text>
</g>
<!-- node0&#45;&gt;node9 -->
<g id="edge18" class="edge">
<title>node0&#45;&gt;node9</title>
<path fill="none" stroke="black" d="M1208.27,-145.96C1389.23,-120.59 1436.45,-130.95 1618,-109 1620.56,-108.69 1623.16,-108.37 1625.77,-108.03"/>
<polygon fill="black" stroke="black" points="1626.5,-111.47 1635.96,-106.7 1625.59,-104.53 1626.5,-111.47"/>
<text text-anchor="middle" x="1619.09" y="-113.73" font-family="Times,serif" font-size="14.00">*0</text>
</g>
<!-- node10 -->
<g id="node11" class="node">
<title>node10</title>
<polygon fill="lightgrey" stroke="black" points="2057.5,-109 1860.5,-109 1860.5,-73 2057.5,-73 2057.5,-109"/>
<text text-anchor="middle" x="1959" y="-87.3" font-family="Times,serif" font-size="14.00">#10 arg5 : long Order : 2</text>
</g>
<!-- node0&#45;&gt;node10 -->
<g id="edge20" class="edge">
<title>node0&#45;&gt;node10</title>
<path fill="none" stroke="black" d="M1208.41,-145.95C1488.18,-111.25 1561.5,-139.19 1842,-109 1844.69,-108.71 1847.42,-108.4 1850.18,-108.07"/>
<polygon fill="black" stroke="black" points="1850.75,-111.53 1860.24,-106.82 1849.88,-104.58 1850.75,-111.53"/>
<text text-anchor="middle" x="1843.3" y="-113.75" font-family="Times,serif" font-size="14.00">*0</text>
</g>
<!-- node11 -->
<g id="node12" class="node">
<title>node11</title>
<polygon fill="lightgrey" stroke="black" points="2272.5,-109 2075.5,-109 2075.5,-73 2272.5,-73 2272.5,-109"/>
<text text-anchor="middle" x="2174" y="-87.3" font-family="Times,serif" font-size="14.00">#11 LabelNode Order : 1</text>
</g>
<!-- node0&#45;&gt;node11 -->
<g id="edge22" class="edge">
<title>node0&#45;&gt;node11</title>
<path fill="none" stroke="red" d="M1208.28,-145.97C1396.26,-124.1 1869.98,-127.97 2058,-109 2060.41,-108.76 2062.84,-108.5 2065.3,-108.22"/>
<polygon fill="red" stroke="red" points="2065.99,-111.66 2075.5,-106.99 2065.15,-104.71 2065.99,-111.66"/>
</g>
<!-- node12 -->
<g id="node13" class="node">
<title>node12</title>
<polygon fill="lightgrey" stroke="black" points="2295,-36 2053,-36 2053,0 2295,0 2295,-36"/>
<text text-anchor="middle" x="2174" y="-14.3" font-family="Times,serif" font-size="14.00">#12 ReturnValue : int Order : 8</text>
</g>
<!-- node0&#45;&gt;node12 -->
<g id="edge26" class="edge">
<title>node0&#45;&gt;node12</title>
<path fill="none" stroke="green" d="M1208.36,-145.96C1270.6,-139.45 2231.95,-151.5 2273,-109 2284.12,-97.49 2281.41,-86.61 2273,-73 2264.33,-58.97 2250.79,-48.46 2236.45,-40.64"/>
<polygon fill="green" stroke="green" points="2237.96,-37.48 2227.46,-36.11 2234.81,-43.73 2237.96,-37.48"/>
</g>
<!-- node1&#45;&gt;node0 -->
<g id="edge1" class="edge">
<title>node1&#45;&gt;node0</title>
<path fill="none" stroke="fuchsia" stroke-width="2" d="M186.21,-106.76C192.23,-107.59 198.2,-108.35 204,-109 506.84,-142.9 867.51,-156.12 1034.6,-160.76"/>
<polygon fill="fuchsia" stroke="fuchsia" stroke-width="2" points="1034.74,-164.27 1044.84,-161.04 1034.94,-157.27 1034.74,-164.27"/>
</g>
<!-- node2&#45;&gt;node0 -->
<g id="edge3" class="edge">
<title>node2&#45;&gt;node0</title>
<path fill="none" stroke="fuchsia" stroke-width="2" d="M402.07,-106.74C408.14,-107.56 414.16,-108.32 420,-109 639.79,-134.53 898.97,-150.6 1034.62,-158.06"/>
<polygon fill="fuchsia" stroke="fuchsia" stroke-width="2" points="1034.79,-161.58 1044.97,-158.63 1035.17,-154.59 1034.79,-161.58"/>
</g>
<!-- node3&#45;&gt;node0 -->
<g id="edge5" class="edge">
<title>node3&#45;&gt;node0</title>
<path fill="none" stroke="fuchsia" stroke-width="2" d="M606.24,-106.58C611.92,-107.44 617.54,-108.25 623,-109 766.32,-128.57 932.97,-144.91 1034.48,-154.32"/>
<polygon fill="fuchsia" stroke="fuchsia" stroke-width="2" points="1034.43,-157.83 1044.71,-155.27 1035.07,-150.86 1034.43,-157.83"/>
</g>
<!-- node4&#45;&gt;node0 -->
<g id="edge7" class="edge">
<title>node4&#45;&gt;node0</title>
<path fill="none" stroke="fuchsia" stroke-width="2" d="M826.59,-108.87C890.48,-119.92 972.28,-134.32 1034.56,-145.5"/>
<polygon fill="fuchsia" stroke="fuchsia" stroke-width="2" points="1034.31,-149.01 1044.77,-147.33 1035.55,-142.12 1034.31,-149.01"/>
</g>
<!-- node5&#45;&gt;node0 -->
<g id="edge9" class="edge">
<title>node5&#45;&gt;node0</title>
<path fill="none" stroke="fuchsia" stroke-width="2" d="M985.87,-109.11C1014.39,-119.11 1049.35,-131.81 1077.5,-142.36"/>
<polygon fill="fuchsia" stroke="fuchsia" stroke-width="2" points="1076.56,-145.74 1087.15,-145.99 1079.03,-139.19 1076.56,-145.74"/>
</g>
<!-- node5&#45;&gt;node12 -->
<g id="edge24" class="edge">
<title>node5&#45;&gt;node12</title>
<path fill="none" stroke="black" d="M1021.74,-73.99C1024.52,-73.63 1027.28,-73.3 1030,-73 1395.3,-32.53 1829.51,-22.35 2042.66,-19.82"/>
<polygon fill="black" stroke="black" points="2043,-23.31 2052.96,-19.7 2042.92,-16.31 2043,-23.31"/>
<text text-anchor="middle" x="2034.93" y="-24.66" font-family="Times,serif" font-size="14.00">*0</text>
</g>
<!-- node6&#45;&gt;node0 -->
<g id="edge11" class="edge">
<title>node6&#45;&gt;node0</title>
<path fill="none" stroke="fuchsia" stroke-width="2" d="M1133.86,-109.03C1134.71,-117.03 1134.95,-126.77 1134.59,-135.75"/>
<polygon fill="fuchsia" stroke="fuchsia" stroke-width="2" points="1131.09,-135.59 1133.88,-145.81 1138.07,-136.08 1131.09,-135.59"/>
</g>
<!-- node7&#45;&gt;node0 -->
<g id="edge13" class="edge">
<title>node7&#45;&gt;node0</title>
<path fill="none" stroke="fuchsia" stroke-width="2" d="M1281.87,-109.11C1255.22,-119.2 1220.1,-132.03 1190.11,-142.63"/>
<polygon fill="fuchsia" stroke="fuchsia" stroke-width="2" points="1188.84,-139.37 1180.57,-145.99 1191.16,-145.97 1188.84,-139.37"/>
</g>
<!-- node8&#45;&gt;node0 -->
<g id="edge15" class="edge">
<title>node8&#45;&gt;node0</title>
<path fill="none" stroke="fuchsia" stroke-width="2" d="M1432.89,-109.02C1373.88,-119.47 1295.46,-133.26 1226,-146 1224.5,-146.27 1222.99,-146.55 1221.46,-146.83"/>
<polygon fill="fuchsia" stroke="fuchsia" stroke-width="2" points="1220.46,-143.46 1211.27,-148.73 1221.74,-150.34 1220.46,-143.46"/>
</g>
<!-- node9&#45;&gt;node0 -->
<g id="edge17" class="edge">
<title>node9&#45;&gt;node0</title>
<path fill="none" stroke="fuchsia" stroke-width="2" d="M1635.73,-109.03C1454.31,-130.95 1407.1,-120.6 1226,-146 1224.49,-146.21 1222.97,-146.43 1221.44,-146.66"/>
<polygon fill="fuchsia" stroke="fuchsia" stroke-width="2" points="1220.53,-143.26 1211.19,-148.26 1221.61,-150.17 1220.53,-143.26"/>
</g>
<!-- node10&#45;&gt;node0 -->
<g id="edge19" class="edge">
<title>node10&#45;&gt;node0</title>
<path fill="none" stroke="fuchsia" stroke-width="2" d="M1860.28,-108.97C1860.19,-108.98 1860.09,-108.99 1860,-109 1579.36,-139.2 1506.11,-111.23 1226,-146 1224.49,-146.19 1222.96,-146.39 1221.43,-146.59"/>
<polygon fill="fuchsia" stroke="fuchsia" stroke-width="2" points="1220.56,-143.18 1211.17,-148.08 1221.57,-150.11 1220.56,-143.18"/>
</g>
<!-- node11&#45;&gt;node0 -->
<g id="edge21" class="edge">
<title>node11&#45;&gt;node0</title>
<path fill="none" stroke="fuchsia" stroke-width="2" d="M2075.72,-109.03C1887.42,-127.97 1413.7,-124.11 1226,-146 1224.49,-146.18 1222.96,-146.36 1221.42,-146.56"/>
<polygon fill="fuchsia" stroke="fuchsia" stroke-width="2" points="1220.58,-143.15 1211.16,-148 1221.55,-150.08 1220.58,-143.15"/>
</g>
<!-- node11&#45;&gt;node12 -->
<g id="edge25" class="edge">
<title>node11&#45;&gt;node12</title>
<path fill="none" stroke="red" d="M2174,-72.81C2174,-64.79 2174,-55.05 2174,-46.07"/>
<polygon fill="red" stroke="red" points="2177.5,-46.03 2174,-36.03 2170.5,-46.03 2177.5,-46.03"/>
</g>
<!-- node12&#45;&gt;node0 -->
<g id="edge23" class="edge">
<title>node12&#45;&gt;node0</title>
<path fill="none" stroke="fuchsia" stroke-width="2" d="M2244.54,-36.11C2262.96,-44.26 2280.53,-56.06 2291,-73 2299.41,-86.61 2302.12,-97.49 2291,-109 2249.87,-151.58 1284.83,-139.4 1226,-146 1224.49,-146.17 1222.96,-146.35 1221.42,-146.54"/>
<polygon fill="fuchsia" stroke="fuchsia" stroke-width="2" points="1220.59,-143.12 1211.15,-147.95 1221.54,-150.06 1220.59,-143.12"/>
</g>
<!-- c0 -->
<!-- c1 -->
<!-- c0&#45;&gt;c1 -->
<g id="edge27" class="edge">
<title>c0&#45;&gt;c1</title>
<path fill="none" stroke="red" d="M2079.89,-164C2091.11,-164 2149.24,-164 2174.86,-164"/>
<polygon fill="red" stroke="red" points="2175.06,-167.5 2185.06,-164 2175.06,-160.5 2175.06,-167.5"/>
<text text-anchor="middle" x="2132.5" y="-170.8" font-family="Times,serif" font-size="14.00">Control flow</text>
</g>
<!-- c2 -->
<!-- c3 -->
<!-- c2&#45;&gt;c3 -->
<g id="edge28" class="edge">
<title>c2&#45;&gt;c3</title>
<path fill="none" stroke="red" stroke-dasharray="5,2" d="M1873.08,-164C1890.05,-164 2006.21,-164 2044.08,-164"/>
<polygon fill="red" stroke="red" points="2044.17,-167.5 2054.17,-164 2044.17,-160.5 2044.17,-167.5"/>
<text text-anchor="middle" x="1963.5" y="-170.8" font-family="Times,serif" font-size="14.00">Control flow back edge</text>
</g>
<!-- d0 -->
<!-- d1 -->
<!-- d0&#45;&gt;d1 -->
<g id="edge29" class="edge">
<title>d0&#45;&gt;d1</title>
<path fill="none" stroke="black" d="M1761.86,-164C1771.41,-164 1815.31,-164 1836.92,-164"/>
<polygon fill="black" stroke="black" points="1837.15,-167.5 1847.15,-164 1837.15,-160.5 1837.15,-167.5"/>
<text text-anchor="middle" x="1804.5" y="-170.8" font-family="Times,serif" font-size="14.00">Data flow</text>
</g>
<!-- d2 -->
<!-- d3 -->
<!-- d2&#45;&gt;d3 -->
<g id="edge30" class="edge">
<title>d2&#45;&gt;d3</title>
<path fill="none" stroke="black" stroke-dasharray="1,5" d="M1635.81,-164C1646.46,-164 1701.46,-164 1726.08,-164"/>
<polygon fill="black" stroke="black" points="1726.15,-167.5 1736.15,-164 1726.15,-160.5 1726.15,-167.5"/>
<text text-anchor="middle" x="1686" y="-170.8" font-family="Times,serif" font-size="14.00">Declaration</text>
</g>
<!-- d4 -->
<!-- d5 -->
<!-- d4&#45;&gt;d5 -->
<g id="edge31" class="edge">
<title>d4&#45;&gt;d5</title>
<path fill="none" stroke="blue" d="M1493.1,-164C1505.72,-164 1571.88,-164 1599.68,-164"/>
<polygon fill="blue" stroke="blue" points="1599.84,-167.5 1609.84,-164 1599.84,-160.5 1599.84,-167.5"/>
<text text-anchor="middle" x="1551.5" y="-170.8" font-family="Times,serif" font-size="14.00">PHI Data flow</text>
</g>
<!-- d6 -->
<!-- d7 -->
<!-- d6&#45;&gt;d7 -->
<g id="edge32" class="edge">
<title>d6&#45;&gt;d7</title>
<path fill="none" stroke="green" d="M1356,-164C1367.94,-164 1430.3,-164 1456.93,-164"/>
<polygon fill="green" stroke="green" points="1456.95,-167.5 1466.95,-164 1456.95,-160.5 1456.95,-167.5"/>
<text text-anchor="middle" x="1411.5" y="-170.8" font-family="Times,serif" font-size="14.00">Memory flow</text>
</g>
<!-- d8 -->
<!-- d9 -->
<!-- d8&#45;&gt;d9 -->
<g id="edge33" class="edge">
<title>d8&#45;&gt;d9</title>
<path fill="none" stroke="fuchsia" d="M1233.11,-164C1244.15,-164 1295.67,-164 1319.66,-164"/>
<polygon fill="fuchsia" stroke="fuchsia" points="1319.9,-167.5 1329.9,-164 1319.9,-160.5 1319.9,-167.5"/>
<text text-anchor="middle" x="1281.5" y="-170.8" font-family="Times,serif" font-size="14.00">Dominance</text>
</g>
</g>
</svg>
