<?xml version="1.0" encoding="UTF-8" standalone="no"?>
<!DOCTYPE svg PUBLIC "-//W3C//DTD SVG 1.1//EN"
 "http://www.w3.org/Graphics/SVG/1.1/DTD/svg11.dtd">
<!-- Generated by graphviz version 2.43.0 (0)
 -->
<!-- Title: debugoutput Pages: 1 -->
<svg width="2307pt" height="213pt"
 viewBox="0.00 0.00 2307.49 212.80" xmlns="http://www.w3.org/2000/svg" xmlns:xlink="http://www.w3.org/1999/xlink">
<g id="graph0" class="graph" transform="scale(1 1) rotate(0) translate(4 208.8)">
<title>debugoutput</title>
<polygon fill="white" stroke="transparent" points="-4,4 -4,-208.8 2303.49,-208.8 2303.49,4 -4,4"/>
<g id="clust1" class="cluster">
<title>cluster_000</title>
<polygon fill="none" stroke="black" points="1251,-154.2 1251,-196.8 2227,-196.8 2227,-154.2 1251,-154.2"/>
<text text-anchor="middle" x="1739" y="-181.6" font-family="Times,serif" font-size="14.00">Legend</text>
</g>
<!-- node0 -->
<g id="node1" class="node">
<title>node0</title>
<polygon fill="lightgrey" stroke="black" points="1241,-182 1075,-182 1075,-146 1241,-146 1241,-182"/>
<text text-anchor="middle" x="1158" y="-160.3" font-family="Times,serif" font-size="14.00">#0 Method Order : 0</text>
</g>
<!-- node1 -->
<g id="node2" class="node">
<title>node1</title>
<polygon fill="lightgrey" stroke="black" points="186,-109 0,-109 0,-73 186,-73 186,-109"/>
<text text-anchor="middle" x="93" y="-87.3" font-family="Times,serif" font-size="14.00">#1 arg3 : int Order : 12</text>
</g>
<!-- node0&#45;&gt;node1 -->
<g id="edge2" class="edge">
<title>node0&#45;&gt;node1</title>
<path fill="none" stroke="black" d="M1074.83,-161.5C908.12,-157.77 521.48,-145.61 195.83,-110.08"/>
<polygon fill="black" stroke="black" points="196.06,-106.59 185.73,-108.97 195.29,-113.54 196.06,-106.59"/>
<text text-anchor="middle" x="204.67" y="-98.85" font-family="Times,serif" font-size="14.00">*0</text>
</g>
<!-- node2 -->
<g id="node3" class="node">
<title>node2</title>
<polygon fill="lightgrey" stroke="black" points="401.5,-109 204.5,-109 204.5,-73 401.5,-73 401.5,-109"/>
<text text-anchor="middle" x="303" y="-87.3" font-family="Times,serif" font-size="14.00">#2 arg5 : long Order : 11</text>
</g>
<!-- node0&#45;&gt;node2 -->
<g id="edge4" class="edge">
<title>node0&#45;&gt;node2</title>
<path fill="none" stroke="black" d="M1074.97,-159.54C937.33,-153.09 653.4,-137.35 411.74,-110.11"/>
<polygon fill="black" stroke="black" points="412.05,-106.62 401.72,-108.97 411.26,-113.57 412.05,-106.62"/>
<text text-anchor="middle" x="420.68" y="-98.92" font-family="Times,serif" font-size="14.00">*0</text>
</g>
<!-- node3 -->
<g id="node4" class="node">
<title>node3</title>
<polygon fill="lightgrey" stroke="black" points="632,-109 420,-109 420,-73 632,-73 632,-109"/>
<text text-anchor="middle" x="526" y="-87.3" font-family="Times,serif" font-size="14.00">#3 arg8 : String Order : 10</text>
</g>
<!-- node0&#45;&gt;node3 -->
<g id="edge6" class="edge">
<title>node0&#45;&gt;node3</title>
<path fill="none" stroke="black" d="M1074.92,-156.05C973.16,-146.87 795.5,-129.59 641.56,-110.33"/>
<polygon fill="black" stroke="black" points="641.82,-106.83 631.46,-109.06 640.94,-113.78 641.82,-106.83"/>
<text text-anchor="middle" x="650.5" y="-99.23" font-family="Times,serif" font-size="14.00">*0</text>
</g>
<!-- node4 -->
<g id="node5" class="node">
<title>node4</title>
<polygon fill="lightgrey" stroke="black" points="826.5,-109 649.5,-109 649.5,-73 826.5,-73 826.5,-109"/>
<text text-anchor="middle" x="738" y="-87.3" font-family="Times,serif" font-size="14.00">#4 arg1 : int Order : 9</text>
</g>
<!-- node0&#45;&gt;node4 -->
<g id="edge8" class="edge">
<title>node0&#45;&gt;node4</title>
<path fill="none" stroke="black" d="M1074.69,-150.35C1010.22,-139.91 918.59,-124.6 836.68,-110.65"/>
<polygon fill="black" stroke="black" points="837.19,-107.19 826.74,-108.96 836.01,-114.09 837.19,-107.19"/>
<text text-anchor="middle" x="846.03" y="-99.97" font-family="Times,serif" font-size="14.00">*0</text>
</g>
<!-- node5 -->
<g id="node6" class="node">
<title>node5</title>
<polygon fill="lightgrey" stroke="black" points="1051,-109 845,-109 845,-73 1051,-73 1051,-109"/>
<text text-anchor="middle" x="948" y="-87.3" font-family="Times,serif" font-size="14.00">#5 arg7 : double Order : 8</text>
</g>
<!-- node0&#45;&gt;node5 -->
<g id="edge10" class="edge">
<title>node0&#45;&gt;node5</title>
<path fill="none" stroke="black" d="M1101.84,-145.99C1070.99,-135.92 1032.96,-123.1 1002.39,-112.48"/>
<polygon fill="black" stroke="black" points="1003.34,-109.1 992.75,-109.11 1001.04,-115.71 1003.34,-109.1"/>
<text text-anchor="middle" x="1012.65" y="-103.41" font-family="Times,serif" font-size="14.00">*0</text>
</g>
<!-- node6 -->
<g id="node7" class="node">
<title>node6</title>
<polygon fill="lightgrey" stroke="black" points="1246.5,-109 1069.5,-109 1069.5,-73 1246.5,-73 1246.5,-109"/>
<text text-anchor="middle" x="1158" y="-87.3" font-family="Times,serif" font-size="14.00">#6 arg4 : int Order : 7</text>
</g>
<!-- node0&#45;&gt;node6 -->
<g id="edge12" class="edge">
<title>node0&#45;&gt;node6</title>
<path fill="none" stroke="black" d="M1152.12,-145.81C1151.28,-137.79 1151.05,-128.05 1151.42,-119.07"/>
<polygon fill="black" stroke="black" points="1154.92,-119.25 1152.14,-109.03 1147.94,-118.75 1154.92,-119.25"/>
<text text-anchor="middle" x="1159.28" y="-124.01" font-family="Times,serif" font-size="14.00">*0</text>
</g>
<!-- node7 -->
<g id="node8" class="node">
<title>node7</title>
<polygon fill="lightgrey" stroke="black" points="1453.5,-109 1264.5,-109 1264.5,-73 1453.5,-73 1453.5,-109"/>
<text text-anchor="middle" x="1359" y="-87.3" font-family="Times,serif" font-size="14.00">#7 arg6 : float Order : 6</text>
</g>
<!-- node0&#45;&gt;node7 -->
<g id="edge14" class="edge">
<title>node0&#45;&gt;node7</title>
<path fill="none" stroke="black" d="M1200.29,-145.99C1227.72,-135.92 1263.92,-123.1 1294.84,-112.48"/>
<polygon fill="black" stroke="black" points="1296.35,-115.66 1304.68,-109.11 1294.09,-109.04 1296.35,-115.66"/>
<text text-anchor="middle" x="1290.27" y="-119.28" font-family="Times,serif" font-size="14.00">*0</text>
</g>
<!-- node8 -->
<g id="node9" class="node">
<title>node8</title>
<polygon fill="lightgrey" stroke="black" points="1648.5,-109 1471.5,-109 1471.5,-73 1648.5,-73 1648.5,-109"/>
<text text-anchor="middle" x="1560" y="-87.3" font-family="Times,serif" font-size="14.00">#8 arg0 : int Order : 4</text>
</g>
<!-- node0&#45;&gt;node8 -->
<g id="edge16" class="edge">
<title>node0&#45;&gt;node8</title>
<path fill="none" stroke="black" d="M1238.28,-145.95C1333.89,-128.63 1358.13,-125.61 1454,-109 1456.47,-108.57 1458.97,-108.14 1461.5,-107.7"/>
<polygon fill="black" stroke="black" points="1462.1,-111.15 1471.36,-105.99 1460.91,-104.25 1462.1,-111.15"/>
<text text-anchor="middle" x="1454.95" y="-113.72" font-family="Times,serif" font-size="14.00">*0</text>
</g>
<!-- node9 -->
<g id="node10" class="node">
<title>node9</title>
<polygon fill="lightgrey" stroke="black" points="1843.5,-109 1666.5,-109 1666.5,-73 1843.5,-73 1843.5,-109"/>
<text text-anchor="middle" x="1755" y="-87.3" font-family="Times,serif" font-size="14.00">#9 arg2 : int Order : 3</text>
</g>
<!-- node0&#45;&gt;node9 -->
<g id="edge18" class="edge">
<title>node0&#45;&gt;node9</title>
<path fill="none" stroke="black" d="M1238.27,-145.96C1419.68,-120.55 1467.27,-133.06 1649,-109 1651.48,-108.67 1654,-108.32 1656.54,-107.96"/>
<polygon fill="black" stroke="black" points="1657.06,-111.42 1666.44,-106.5 1656.03,-104.5 1657.06,-111.42"/>
<text text-anchor="middle" x="1649.74" y="-113.81" font-family="Times,serif" font-size="14.00">*0</text>
</g>
<!-- node10 -->
<g id="node11" class="node">
<title>node10</title>
<polygon fill="lightgrey" stroke="black" points="2058.5,-109 1861.5,-109 1861.5,-73 2058.5,-73 2058.5,-109"/>
<text text-anchor="middle" x="1960" y="-87.3" font-family="Times,serif" font-size="14.00">#10 arg9 : int[] Order : 2</text>
</g>
<!-- node0&#45;&gt;node10 -->
<g id="edge20" class="edge">
<title>node0&#45;&gt;node10</title>
<path fill="none" stroke="black" d="M1238.39,-145.95C1372.53,-129.19 1710.02,-123.7 1844,-109 1846.41,-108.74 1848.84,-108.46 1851.3,-108.16"/>
<polygon fill="black" stroke="black" points="1852,-111.6 1861.48,-106.88 1851.12,-104.66 1852,-111.6"/>
<text text-anchor="middle" x="1844.56" y="-113.83" font-family="Times,serif" font-size="14.00">*0</text>
</g>
<!-- node11 -->
<g id="node12" class="node">
<title>node11</title>
<polygon fill="lightgrey" stroke="black" points="2273.5,-109 2076.5,-109 2076.5,-73 2273.5,-73 2273.5,-109"/>
<text text-anchor="middle" x="2175" y="-87.3" font-family="Times,serif" font-size="14.00">#11 LabelNode Order : 1</text>
</g>
<!-- node0&#45;&gt;node11 -->
<g id="edge22" class="edge">
<title>node0&#45;&gt;node11</title>
<path fill="none" stroke="red" d="M1238.27,-145.97C1419.83,-124.7 1877.4,-127.46 2059,-109 2061.41,-108.76 2063.84,-108.49 2066.3,-108.21"/>
<polygon fill="red" stroke="red" points="2066.99,-111.66 2076.5,-106.98 2066.15,-104.71 2066.99,-111.66"/>
</g>
<!-- node12 -->
<g id="node13" class="node">
<title>node12</title>
<polygon fill="lightgrey" stroke="black" points="2296,-36 2054,-36 2054,0 2296,0 2296,-36"/>
<text text-anchor="middle" x="2175" y="-14.3" font-family="Times,serif" font-size="14.00">#12 ReturnValue : int Order : 5</text>
</g>
<!-- node0&#45;&gt;node12 -->
<g id="edge26" class="edge">
<title>node0&#45;&gt;node12</title>
<path fill="none" stroke="green" d="M1238.35,-145.96C1298.89,-139.59 2234.09,-150.36 2274,-109 2285.11,-97.49 2282.41,-86.61 2274,-73 2265.33,-58.97 2251.79,-48.46 2237.45,-40.64"/>
<polygon fill="green" stroke="green" points="2238.96,-37.48 2228.46,-36.11 2235.81,-43.73 2238.96,-37.48"/>
</g>
<!-- node1&#45;&gt;node0 -->
<g id="edge1" class="edge">
<title>node1&#45;&gt;node0</title>
<path fill="none" stroke="fuchsia" stroke-width="2" d="M186.21,-106.78C192.23,-107.6 198.2,-108.36 204,-109 518.57,-143.93 893.59,-156.72 1064.69,-161.02"/>
<polygon fill="fuchsia" stroke="fuchsia" stroke-width="2" points="1064.84,-164.52 1074.92,-161.27 1065.01,-157.52 1064.84,-164.52"/>
</g>
<!-- node2&#45;&gt;node0 -->
<g id="edge3" class="edge">
<title>node2&#45;&gt;node0</title>
<path fill="none" stroke="fuchsia" stroke-width="2" d="M401.78,-106.72C407.95,-107.55 414.06,-108.32 420,-109 651.26,-135.51 924.37,-151.35 1064.64,-158.48"/>
<polygon fill="fuchsia" stroke="fuchsia" stroke-width="2" points="1064.76,-161.99 1074.92,-159 1065.11,-155 1064.76,-161.99"/>
</g>
<!-- node3&#45;&gt;node0 -->
<g id="edge5" class="edge">
<title>node3&#45;&gt;node0</title>
<path fill="none" stroke="fuchsia" stroke-width="2" d="M632.28,-106.8C637.94,-107.57 643.54,-108.31 649,-109 794.19,-127.38 962.86,-144.11 1065,-153.92"/>
<polygon fill="fuchsia" stroke="fuchsia" stroke-width="2" points="1064.69,-157.41 1074.98,-154.88 1065.36,-150.44 1064.69,-157.41"/>
</g>
<!-- node4&#45;&gt;node0 -->
<g id="edge7" class="edge">
<title>node4&#45;&gt;node0</title>
<path fill="none" stroke="fuchsia" stroke-width="2" d="M826.66,-105.86C832.88,-106.93 839.04,-107.98 845,-109 918.97,-121.62 1002.54,-135.63 1064.76,-146.21"/>
<polygon fill="fuchsia" stroke="fuchsia" stroke-width="2" points="1064.5,-149.72 1074.95,-147.95 1065.68,-142.82 1064.5,-149.72"/>
</g>
<!-- node5&#45;&gt;node0 -->
<g id="edge9" class="edge">
<title>node5&#45;&gt;node0</title>
<path fill="none" stroke="fuchsia" stroke-width="2" d="M1004.49,-109.11C1035.39,-119.2 1073.42,-132.03 1103.94,-142.63"/>
<polygon fill="fuchsia" stroke="fuchsia" stroke-width="2" points="1102.96,-146 1113.56,-145.99 1105.27,-139.39 1102.96,-146"/>
</g>
<!-- node6&#45;&gt;node0 -->
<g id="edge11" class="edge">
<title>node6&#45;&gt;node0</title>
<path fill="none" stroke="fuchsia" stroke-width="2" d="M1163.86,-109.03C1164.71,-117.03 1164.95,-126.77 1164.59,-135.75"/>
<polygon fill="fuchsia" stroke="fuchsia" stroke-width="2" points="1161.09,-135.59 1163.88,-145.81 1168.07,-136.08 1161.09,-135.59"/>
</g>
<!-- node7&#45;&gt;node0 -->
<g id="edge13" class="edge">
<title>node7&#45;&gt;node0</title>
<path fill="none" stroke="fuchsia" stroke-width="2" d="M1316.42,-109.11C1288.92,-119.2 1252.72,-132.03 1221.83,-142.63"/>
<polygon fill="fuchsia" stroke="fuchsia" stroke-width="2" points="1220.33,-139.45 1212,-145.99 1222.6,-146.07 1220.33,-139.45"/>
</g>
<!-- node8&#45;&gt;node0 -->
<g id="edge15" class="edge">
<title>node8&#45;&gt;node0</title>
<path fill="none" stroke="fuchsia" stroke-width="2" d="M1471.72,-109.05C1375.98,-125.63 1351.75,-128.66 1256,-146 1254.5,-146.27 1252.99,-146.55 1251.46,-146.83"/>
<polygon fill="fuchsia" stroke="fuchsia" stroke-width="2" points="1250.47,-143.45 1241.26,-148.7 1251.73,-150.33 1250.47,-143.45"/>
</g>
<!-- node8&#45;&gt;node12 -->
<g id="edge24" class="edge">
<title>node8&#45;&gt;node12</title>
<path fill="none" stroke="black" d="M1648.63,-74.35C1651.79,-73.88 1654.92,-73.43 1658,-73 1788.87,-54.84 1939.14,-39.79 2043.82,-30.23"/>
<polygon fill="black" stroke="black" points="2044.16,-33.71 2053.8,-29.32 2043.53,-26.74 2044.16,-33.71"/>
<text text-anchor="middle" x="2036.52" y="-35.68" font-family="Times,serif" font-size="14.00">*0</text>
</g>
<!-- node9&#45;&gt;node0 -->
<g id="edge17" class="edge">
<title>node9&#45;&gt;node0</title>
<path fill="none" stroke="fuchsia" stroke-width="2" d="M1666.73,-109.04C1485.13,-133.06 1437.54,-120.55 1256,-146 1254.49,-146.21 1252.97,-146.43 1251.44,-146.66"/>
<polygon fill="fuchsia" stroke="fuchsia" stroke-width="2" points="1250.53,-143.26 1241.19,-148.26 1251.61,-150.17 1250.53,-143.26"/>
</g>
<!-- node10&#45;&gt;node0 -->
<g id="edge19" class="edge">
<title>node10&#45;&gt;node0</title>
<path fill="none" stroke="fuchsia" stroke-width="2" d="M1861.61,-109.04C1727.23,-123.72 1389.74,-129.21 1256,-146 1254.49,-146.19 1252.96,-146.39 1251.43,-146.6"/>
<polygon fill="fuchsia" stroke="fuchsia" stroke-width="2" points="1250.56,-143.19 1241.17,-148.09 1251.57,-150.11 1250.56,-143.19"/>
</g>
<!-- node11&#45;&gt;node0 -->
<g id="edge21" class="edge">
<title>node11&#45;&gt;node0</title>
<path fill="none" stroke="fuchsia" stroke-width="2" d="M2076.73,-109.03C1894.86,-127.47 1437.29,-124.71 1256,-146 1254.49,-146.18 1252.96,-146.37 1251.42,-146.56"/>
<polygon fill="fuchsia" stroke="fuchsia" stroke-width="2" points="1250.58,-143.15 1241.16,-148.01 1251.55,-150.08 1250.58,-143.15"/>
</g>
<!-- node11&#45;&gt;node12 -->
<g id="edge25" class="edge">
<title>node11&#45;&gt;node12</title>
<path fill="none" stroke="red" d="M2175,-72.81C2175,-64.79 2175,-55.05 2175,-46.07"/>
<polygon fill="red" stroke="red" points="2178.5,-46.03 2175,-36.03 2171.5,-46.03 2178.5,-46.03"/>
</g>
<!-- node12&#45;&gt;node0 -->
<g id="edge23" class="edge">
<title>node12&#45;&gt;node0</title>
<path fill="none" stroke="fuchsia" stroke-width="2" d="M2245.54,-36.11C2263.96,-44.26 2281.53,-56.06 2292,-73 2300.41,-86.61 2303.11,-97.49 2292,-109 2252.01,-150.44 1313.23,-139.55 1256,-146 1254.49,-146.17 1252.96,-146.35 1251.42,-146.55"/>
<polygon fill="fuchsia" stroke="fuchsia" stroke-width="2" points="1250.59,-143.13 1241.15,-147.95 1251.54,-150.06 1250.59,-143.13"/>
</g>
<!-- c0 -->
<!-- c1 -->
<!-- c0&#45;&gt;c1 -->
<g id="edge27" class="edge">
<title>c0&#45;&gt;c1</title>
<path fill="none" stroke="red" d="M2109.89,-164C2121.11,-164 2179.24,-164 2204.86,-164"/>
<polygon fill="red" stroke="red" points="2205.06,-167.5 2215.06,-164 2205.06,-160.5 2205.06,-167.5"/>
<text text-anchor="middle" x="2162.5" y="-170.8" font-family="Times,serif" font-size="14.00">Control flow</text>
</g>
<!-- c2 -->
<!-- c3 -->
<!-- c2&#45;&gt;c3 -->
<g id="edge28" class="edge">
<title>c2&#45;&gt;c3</title>
<path fill="none" stroke="red" stroke-dasharray="5,2" d="M1903.08,-164C1920.05,-164 2036.21,-164 2074.08,-164"/>
<polygon fill="red" stroke="red" points="2074.17,-167.5 2084.17,-164 2074.17,-160.5 2074.17,-167.5"/>
<text text-anchor="middle" x="1993.5" y="-170.8" font-family="Times,serif" font-size="14.00">Control flow back edge</text>
</g>
<!-- d0 -->
<!-- d1 -->
<!-- d0&#45;&gt;d1 -->
<g id="edge29" class="edge">
<title>d0&#45;&gt;d1</title>
<path fill="none" stroke="black" d="M1791.86,-164C1801.41,-164 1845.31,-164 1866.92,-164"/>
<polygon fill="black" stroke="black" points="1867.15,-167.5 1877.15,-164 1867.15,-160.5 1867.15,-167.5"/>
<text text-anchor="middle" x="1834.5" y="-170.8" font-family="Times,serif" font-size="14.00">Data flow</text>
</g>
<!-- d2 -->
<!-- d3 -->
<!-- d2&#45;&gt;d3 -->
<g id="edge30" class="edge">
<title>d2&#45;&gt;d3</title>
<path fill="none" stroke="black" stroke-dasharray="1,5" d="M1665.81,-164C1676.46,-164 1731.46,-164 1756.08,-164"/>
<polygon fill="black" stroke="black" points="1756.15,-167.5 1766.15,-164 1756.15,-160.5 1756.15,-167.5"/>
<text text-anchor="middle" x="1716" y="-170.8" font-family="Times,serif" font-size="14.00">Declaration</text>
</g>
<!-- d4 -->
<!-- d5 -->
<!-- d4&#45;&gt;d5 -->
<g id="edge31" class="edge">
<title>d4&#45;&gt;d5</title>
<path fill="none" stroke="blue" d="M1523.1,-164C1535.72,-164 1601.88,-164 1629.68,-164"/>
<polygon fill="blue" stroke="blue" points="1629.84,-167.5 1639.84,-164 1629.84,-160.5 1629.84,-167.5"/>
<text text-anchor="middle" x="1581.5" y="-170.8" font-family="Times,serif" font-size="14.00">PHI Data flow</text>
</g>
<!-- d6 -->
<!-- d7 -->
<!-- d6&#45;&gt;d7 -->
<g id="edge32" class="edge">
<title>d6&#45;&gt;d7</title>
<path fill="none" stroke="green" d="M1386,-164C1397.94,-164 1460.3,-164 1486.93,-164"/>
<polygon fill="green" stroke="green" points="1486.95,-167.5 1496.95,-164 1486.95,-160.5 1486.95,-167.5"/>
<text text-anchor="middle" x="1441.5" y="-170.8" font-family="Times,serif" font-size="14.00">Memory flow</text>
</g>
<!-- d8 -->
<!-- d9 -->
<!-- d8&#45;&gt;d9 -->
<g id="edge33" class="edge">
<title>d8&#45;&gt;d9</title>
<path fill="none" stroke="fuchsia" d="M1263.11,-164C1274.15,-164 1325.67,-164 1349.66,-164"/>
<polygon fill="fuchsia" stroke="fuchsia" points="1349.9,-167.5 1359.9,-164 1349.9,-160.5 1349.9,-167.5"/>
<text text-anchor="middle" x="1311.5" y="-170.8" font-family="Times,serif" font-size="14.00">Dominance</text>
</g>
</g>
</svg>
