<?xml version="1.0" encoding="UTF-8" standalone="no"?>
<!DOCTYPE svg PUBLIC "-//W3C//DTD SVG 1.1//EN"
 "http://www.w3.org/Graphics/SVG/1.1/DTD/svg11.dtd">
<!-- Generated by graphviz version 2.43.0 (0)
 -->
<!-- Title: debugoutput Pages: 1 -->
<svg width="2300pt" height="213pt"
 viewBox="0.00 0.00 2299.50 212.80" xmlns="http://www.w3.org/2000/svg" xmlns:xlink="http://www.w3.org/1999/xlink">
<g id="graph0" class="graph" transform="scale(1 1) rotate(0) translate(4 208.8)">
<title>debugoutput</title>
<polygon fill="white" stroke="transparent" points="-4,4 -4,-208.8 2295.5,-208.8 2295.5,4 -4,4"/>
<g id="clust1" class="cluster">
<title>cluster_000</title>
<polygon fill="none" stroke="black" points="1221,-154.2 1221,-196.8 2197,-196.8 2197,-154.2 1221,-154.2"/>
<text text-anchor="middle" x="1709" y="-181.6" font-family="Times,serif" font-size="14.00">Legend</text>
</g>
<!-- node0 -->
<g id="node1" class="node">
<title>node0</title>
<polygon fill="lightgrey" stroke="black" points="1211,-182 1045,-182 1045,-146 1211,-146 1211,-182"/>
<text text-anchor="middle" x="1128" y="-160.3" font-family="Times,serif" font-size="14.00">#0 Method Order : 0</text>
</g>
<!-- node1 -->
<g id="node2" class="node">
<title>node1</title>
<polygon fill="lightgrey" stroke="black" points="186,-109 0,-109 0,-73 186,-73 186,-109"/>
<text text-anchor="middle" x="93" y="-87.3" font-family="Times,serif" font-size="14.00">#1 arg1 : int Order : 12</text>
</g>
<!-- node0&#45;&gt;node1 -->
<g id="edge2" class="edge">
<title>node0&#45;&gt;node1</title>
<path fill="none" stroke="black" d="M1044.76,-161.31C881.85,-157.25 509.74,-144.61 195.93,-110.1"/>
<polygon fill="black" stroke="black" points="196.06,-106.59 185.73,-108.97 195.29,-113.55 196.06,-106.59"/>
<text text-anchor="middle" x="204.68" y="-98.87" font-family="Times,serif" font-size="14.00">*0</text>
</g>
<!-- node2 -->
<g id="node3" class="node">
<title>node2</title>
<polygon fill="lightgrey" stroke="black" points="390,-109 204,-109 204,-73 390,-73 390,-109"/>
<text text-anchor="middle" x="297" y="-87.3" font-family="Times,serif" font-size="14.00">#2 arg4 : int Order : 11</text>
</g>
<!-- node0&#45;&gt;node2 -->
<g id="edge4" class="edge">
<title>node0&#45;&gt;node2</title>
<path fill="none" stroke="black" d="M1044.79,-159.62C909.58,-153.38 633.94,-138.07 399.43,-110.25"/>
<polygon fill="black" stroke="black" points="399.69,-106.76 389.35,-109.04 398.86,-113.71 399.69,-106.76"/>
<text text-anchor="middle" x="408.35" y="-99.1" font-family="Times,serif" font-size="14.00">*0</text>
</g>
<!-- node3 -->
<g id="node4" class="node">
<title>node3</title>
<polygon fill="lightgrey" stroke="black" points="584.5,-109 407.5,-109 407.5,-73 584.5,-73 584.5,-109"/>
<text text-anchor="middle" x="496" y="-87.3" font-family="Times,serif" font-size="14.00">#3 arg0 : int Order : 9</text>
</g>
<!-- node0&#45;&gt;node3 -->
<g id="edge6" class="edge">
<title>node0&#45;&gt;node3</title>
<path fill="none" stroke="black" d="M1044.76,-156.93C940.05,-148.53 754.81,-131.92 594.76,-110.33"/>
<polygon fill="black" stroke="black" points="595.12,-106.84 584.74,-108.96 594.18,-113.78 595.12,-106.84"/>
<text text-anchor="middle" x="603.84" y="-99.33" font-family="Times,serif" font-size="14.00">*0</text>
</g>
<!-- node4 -->
<g id="node5" class="node">
<title>node4</title>
<polygon fill="lightgrey" stroke="black" points="809,-109 603,-109 603,-73 809,-73 809,-109"/>
<text text-anchor="middle" x="706" y="-87.3" font-family="Times,serif" font-size="14.00">#4 arg7 : double Order : 8</text>
</g>
<!-- node0&#45;&gt;node4 -->
<g id="edge8" class="edge">
<title>node0&#45;&gt;node4</title>
<path fill="none" stroke="black" d="M1044.98,-149.94C978.03,-138.94 883.52,-123.07 811.27,-110.73"/>
<polygon fill="black" stroke="black" points="811.67,-107.24 801.22,-109.01 810.49,-114.14 811.67,-107.24"/>
<text text-anchor="middle" x="820.52" y="-100.03" font-family="Times,serif" font-size="14.00">*0</text>
</g>
<!-- node5 -->
<g id="node6" class="node">
<title>node5</title>
<polygon fill="lightgrey" stroke="black" points="1015,-109 827,-109 827,-73 1015,-73 1015,-109"/>
<text text-anchor="middle" x="921" y="-87.3" font-family="Times,serif" font-size="14.00">#5 arg5 : long Order : 7</text>
</g>
<!-- node0&#45;&gt;node5 -->
<g id="edge10" class="edge">
<title>node0&#45;&gt;node5</title>
<path fill="none" stroke="black" d="M1072.56,-145.99C1042.13,-135.92 1004.64,-123.1 974.52,-112.48"/>
<polygon fill="black" stroke="black" points="975.62,-109.15 965.02,-109.11 973.28,-115.75 975.62,-109.15"/>
<text text-anchor="middle" x="984.93" y="-103.5" font-family="Times,serif" font-size="14.00">*0</text>
</g>
<!-- node6 -->
<g id="node7" class="node">
<title>node6</title>
<polygon fill="lightgrey" stroke="black" points="1222.5,-109 1033.5,-109 1033.5,-73 1222.5,-73 1222.5,-109"/>
<text text-anchor="middle" x="1128" y="-87.3" font-family="Times,serif" font-size="14.00">#6 arg6 : float Order : 6</text>
</g>
<!-- node0&#45;&gt;node6 -->
<g id="edge12" class="edge">
<title>node0&#45;&gt;node6</title>
<path fill="none" stroke="black" d="M1122.12,-145.81C1121.28,-137.79 1121.05,-128.05 1121.42,-119.07"/>
<polygon fill="black" stroke="black" points="1124.92,-119.25 1122.14,-109.03 1117.94,-118.75 1124.92,-119.25"/>
<text text-anchor="middle" x="1129.28" y="-124.01" font-family="Times,serif" font-size="14.00">*0</text>
</g>
<!-- node7 -->
<g id="node8" class="node">
<title>node7</title>
<polygon fill="lightgrey" stroke="black" points="1443.5,-109 1240.5,-109 1240.5,-73 1443.5,-73 1443.5,-109"/>
<text text-anchor="middle" x="1342" y="-87.3" font-family="Times,serif" font-size="14.00">#7 arg8 : String Order : 5</text>
</g>
<!-- node0&#45;&gt;node7 -->
<g id="edge14" class="edge">
<title>node0&#45;&gt;node7</title>
<path fill="none" stroke="black" d="M1173.4,-145.99C1202.93,-135.84 1241.89,-122.88 1274.95,-112.2"/>
<polygon fill="black" stroke="black" points="1276.1,-115.51 1284.55,-109.11 1273.96,-108.85 1276.1,-115.51"/>
<text text-anchor="middle" x="1269.88" y="-119.01" font-family="Times,serif" font-size="14.00">*0</text>
</g>
<!-- node8 -->
<g id="node9" class="node">
<title>node8</title>
<polygon fill="lightgrey" stroke="black" points="1638.5,-109 1461.5,-109 1461.5,-73 1638.5,-73 1638.5,-109"/>
<text text-anchor="middle" x="1550" y="-87.3" font-family="Times,serif" font-size="14.00">#8 arg3 : int Order : 4</text>
</g>
<!-- node0&#45;&gt;node8 -->
<g id="edge16" class="edge">
<title>node0&#45;&gt;node8</title>
<path fill="none" stroke="black" d="M1208.31,-145.95C1312.65,-127.81 1339.37,-126.37 1444,-109 1446.47,-108.59 1448.98,-108.17 1451.51,-107.75"/>
<polygon fill="black" stroke="black" points="1452.1,-111.2 1461.37,-106.08 1450.93,-104.29 1452.1,-111.2"/>
<text text-anchor="middle" x="1444.91" y="-113.73" font-family="Times,serif" font-size="14.00">*0</text>
</g>
<!-- node9 -->
<g id="node10" class="node">
<title>node9</title>
<polygon fill="lightgrey" stroke="black" points="1845,-109 1657,-109 1657,-73 1845,-73 1845,-109"/>
<text text-anchor="middle" x="1751" y="-87.3" font-family="Times,serif" font-size="14.00">#9 arg9 : int[] Order : 3</text>
</g>
<!-- node0&#45;&gt;node9 -->
<g id="edge18" class="edge">
<title>node0&#45;&gt;node9</title>
<path fill="none" stroke="black" d="M1208.28,-145.96C1398.5,-119.72 1448.32,-132.88 1639,-109 1641.56,-108.68 1644.15,-108.34 1646.76,-107.99"/>
<polygon fill="black" stroke="black" points="1647.52,-111.42 1656.94,-106.57 1646.55,-104.49 1647.52,-111.42"/>
<text text-anchor="middle" x="1640.15" y="-113.75" font-family="Times,serif" font-size="14.00">*0</text>
</g>
<!-- node10 -->
<g id="node11" class="node">
<title>node10</title>
<polygon fill="lightgrey" stroke="black" points="2049,-109 1863,-109 1863,-73 2049,-73 2049,-109"/>
<text text-anchor="middle" x="1956" y="-87.3" font-family="Times,serif" font-size="14.00">#10 arg2 : int Order : 2</text>
</g>
<!-- node0&#45;&gt;node10 -->
<g id="edge20" class="edge">
<title>node0&#45;&gt;node10</title>
<path fill="none" stroke="black" d="M1208.41,-145.95C1489.5,-111.13 1563.31,-140.56 1845,-109 1847.54,-108.72 1850.11,-108.41 1852.7,-108.09"/>
<polygon fill="black" stroke="black" points="1853.33,-111.53 1862.79,-106.76 1852.42,-104.59 1853.33,-111.53"/>
<text text-anchor="middle" x="1845.92" y="-113.8" font-family="Times,serif" font-size="14.00">*0</text>
</g>
<!-- node11 -->
<g id="node12" class="node">
<title>node11</title>
<polygon fill="lightgrey" stroke="black" points="2264.5,-109 2067.5,-109 2067.5,-73 2264.5,-73 2264.5,-109"/>
<text text-anchor="middle" x="2166" y="-87.3" font-family="Times,serif" font-size="14.00">#11 LabelNode Order : 1</text>
</g>
<!-- node0&#45;&gt;node11 -->
<g id="edge22" class="edge">
<title>node0&#45;&gt;node11</title>
<path fill="none" stroke="red" d="M1208.27,-145.97C1394.26,-124.29 1862.96,-127.68 2049,-109 2051.7,-108.73 2054.43,-108.44 2057.18,-108.12"/>
<polygon fill="red" stroke="red" points="2057.73,-111.58 2067.25,-106.91 2056.9,-104.63 2057.73,-111.58"/>
</g>
<!-- node12 -->
<g id="node13" class="node">
<title>node12</title>
<polygon fill="lightgrey" stroke="black" points="2291.5,-36 2040.5,-36 2040.5,0 2291.5,0 2291.5,-36"/>
<text text-anchor="middle" x="2166" y="-14.3" font-family="Times,serif" font-size="14.00">#12 ReturnValue : int Order : 10</text>
</g>
<!-- node0&#45;&gt;node12 -->
<g id="edge26" class="edge">
<title>node0&#45;&gt;node12</title>
<path fill="none" stroke="green" d="M1208.35,-145.96C1270.13,-139.49 2224.26,-151.19 2265,-109 2276.11,-97.49 2273.41,-86.61 2265,-73 2256.33,-58.97 2242.79,-48.46 2228.45,-40.64"/>
<polygon fill="green" stroke="green" points="2229.96,-37.48 2219.46,-36.11 2226.81,-43.73 2229.96,-37.48"/>
</g>
<!-- node1&#45;&gt;node0 -->
<g id="edge1" class="edge">
<title>node1&#45;&gt;node0</title>
<path fill="none" stroke="fuchsia" stroke-width="2" d="M186.21,-106.76C192.23,-107.59 198.2,-108.35 204,-109 506.84,-142.9 867.51,-156.12 1034.6,-160.76"/>
<polygon fill="fuchsia" stroke="fuchsia" stroke-width="2" points="1034.74,-164.27 1044.84,-161.04 1034.94,-157.27 1034.74,-164.27"/>
</g>
<!-- node2&#45;&gt;node0 -->
<g id="edge3" class="edge">
<title>node2&#45;&gt;node0</title>
<path fill="none" stroke="fuchsia" stroke-width="2" d="M390.22,-106.78C395.9,-107.59 401.53,-108.34 407,-109 631.78,-136.17 897.27,-151.68 1034.89,-158.6"/>
<polygon fill="fuchsia" stroke="fuchsia" stroke-width="2" points="1034.82,-162.1 1044.98,-159.1 1035.17,-155.1 1034.82,-162.1"/>
</g>
<!-- node3&#45;&gt;node0 -->
<g id="edge5" class="edge">
<title>node3&#45;&gt;node0</title>
<path fill="none" stroke="fuchsia" stroke-width="2" d="M584.6,-106.3C590.83,-107.26 597.01,-108.18 603,-109 753.77,-129.67 929.49,-145.95 1034.64,-155.02"/>
<polygon fill="fuchsia" stroke="fuchsia" stroke-width="2" points="1034.64,-158.53 1044.9,-155.9 1035.24,-151.56 1034.64,-158.53"/>
</g>
<!-- node3&#45;&gt;node12 -->
<g id="edge24" class="edge">
<title>node3&#45;&gt;node12</title>
<path fill="none" stroke="black" d="M584.6,-74.07C587.77,-73.68 590.91,-73.32 594,-73 870.57,-44.4 1701.85,-27.13 2030.33,-21.26"/>
<polygon fill="black" stroke="black" points="2030.44,-24.76 2040.37,-21.08 2030.31,-17.76 2030.44,-24.76"/>
<text text-anchor="middle" x="2022.4" y="-26.16" font-family="Times,serif" font-size="14.00">*0</text>
</g>
<!-- node4&#45;&gt;node0 -->
<g id="edge7" class="edge">
<title>node4&#45;&gt;node0</title>
<path fill="none" stroke="fuchsia" stroke-width="2" d="M809.23,-108.39C878.17,-119.78 968.04,-134.9 1034.8,-146.34"/>
<polygon fill="fuchsia" stroke="fuchsia" stroke-width="2" points="1034.45,-149.83 1044.9,-148.07 1035.63,-142.93 1034.45,-149.83"/>
</g>
<!-- node5&#45;&gt;node0 -->
<g id="edge9" class="edge">
<title>node5&#45;&gt;node0</title>
<path fill="none" stroke="fuchsia" stroke-width="2" d="M976.77,-109.11C1007.24,-119.2 1044.73,-132.03 1074.8,-142.63"/>
<polygon fill="fuchsia" stroke="fuchsia" stroke-width="2" points="1073.68,-145.95 1084.28,-145.99 1076.02,-139.35 1073.68,-145.95"/>
</g>
<!-- node6&#45;&gt;node0 -->
<g id="edge11" class="edge">
<title>node6&#45;&gt;node0</title>
<path fill="none" stroke="fuchsia" stroke-width="2" d="M1133.86,-109.03C1134.71,-117.03 1134.95,-126.77 1134.59,-135.75"/>
<polygon fill="fuchsia" stroke="fuchsia" stroke-width="2" points="1131.09,-135.59 1133.88,-145.81 1138.07,-136.08 1131.09,-135.59"/>
</g>
<!-- node7&#45;&gt;node0 -->
<g id="edge13" class="edge">
<title>node7&#45;&gt;node0</title>
<path fill="none" stroke="fuchsia" stroke-width="2" d="M1296.29,-109.11C1266.69,-119.29 1227.72,-132.25 1194.71,-142.91"/>
<polygon fill="fuchsia" stroke="fuchsia" stroke-width="2" points="1193.57,-139.6 1185.12,-145.99 1195.71,-146.26 1193.57,-139.6"/>
</g>
<!-- node8&#45;&gt;node0 -->
<g id="edge15" class="edge">
<title>node8&#45;&gt;node0</title>
<path fill="none" stroke="fuchsia" stroke-width="2" d="M1461.69,-109.05C1357.21,-126.39 1330.5,-127.83 1226,-146 1224.5,-146.26 1222.98,-146.53 1221.46,-146.8"/>
<polygon fill="fuchsia" stroke="fuchsia" stroke-width="2" points="1220.48,-143.42 1211.25,-148.62 1221.71,-150.31 1220.48,-143.42"/>
</g>
<!-- node9&#45;&gt;node0 -->
<g id="edge17" class="edge">
<title>node9&#45;&gt;node0</title>
<path fill="none" stroke="fuchsia" stroke-width="2" d="M1656.72,-109.03C1466.18,-132.88 1416.36,-119.72 1226,-146 1224.49,-146.21 1222.97,-146.43 1221.43,-146.65"/>
<polygon fill="fuchsia" stroke="fuchsia" stroke-width="2" points="1220.54,-143.25 1211.19,-148.23 1221.61,-150.16 1220.54,-143.25"/>
</g>
<!-- node10&#45;&gt;node0 -->
<g id="edge19" class="edge">
<title>node10&#45;&gt;node0</title>
<path fill="none" stroke="fuchsia" stroke-width="2" d="M1863.27,-108.97C1863.18,-108.98 1863.09,-108.99 1863,-109 1581.18,-140.58 1507.43,-111.1 1226,-146 1224.49,-146.19 1222.96,-146.39 1221.43,-146.59"/>
<polygon fill="fuchsia" stroke="fuchsia" stroke-width="2" points="1220.56,-143.18 1211.17,-148.08 1221.57,-150.11 1220.56,-143.18"/>
</g>
<!-- node11&#45;&gt;node0 -->
<g id="edge21" class="edge">
<title>node11&#45;&gt;node0</title>
<path fill="none" stroke="fuchsia" stroke-width="2" d="M2067.28,-108.97C2067.19,-108.98 2067.09,-108.99 2067,-109 1880.87,-127.68 1411.8,-124.28 1226,-146 1224.49,-146.18 1222.96,-146.36 1221.42,-146.56"/>
<polygon fill="fuchsia" stroke="fuchsia" stroke-width="2" points="1220.58,-143.15 1211.16,-148 1221.55,-150.08 1220.58,-143.15"/>
</g>
<!-- node11&#45;&gt;node12 -->
<g id="edge25" class="edge">
<title>node11&#45;&gt;node12</title>
<path fill="none" stroke="red" d="M2166,-72.81C2166,-64.79 2166,-55.05 2166,-46.07"/>
<polygon fill="red" stroke="red" points="2169.5,-46.03 2166,-36.03 2162.5,-46.03 2169.5,-46.03"/>
</g>
<!-- node12&#45;&gt;node0 -->
<g id="edge23" class="edge">
<title>node12&#45;&gt;node0</title>
<path fill="none" stroke="fuchsia" stroke-width="2" d="M2236.54,-36.11C2254.96,-44.26 2272.53,-56.06 2283,-73 2291.41,-86.61 2294.11,-97.49 2283,-109 2242.18,-151.27 1284.39,-139.44 1226,-146 1224.49,-146.17 1222.96,-146.35 1221.42,-146.54"/>
<polygon fill="fuchsia" stroke="fuchsia" stroke-width="2" points="1220.59,-143.13 1211.15,-147.95 1221.54,-150.06 1220.59,-143.13"/>
</g>
<!-- c0 -->
<!-- c1 -->
<!-- c0&#45;&gt;c1 -->
<g id="edge27" class="edge">
<title>c0&#45;&gt;c1</title>
<path fill="none" stroke="red" d="M2079.89,-164C2091.11,-164 2149.24,-164 2174.86,-164"/>
<polygon fill="red" stroke="red" points="2175.06,-167.5 2185.06,-164 2175.06,-160.5 2175.06,-167.5"/>
<text text-anchor="middle" x="2132.5" y="-170.8" font-family="Times,serif" font-size="14.00">Control flow</text>
</g>
<!-- c2 -->
<!-- c3 -->
<!-- c2&#45;&gt;c3 -->
<g id="edge28" class="edge">
<title>c2&#45;&gt;c3</title>
<path fill="none" stroke="red" stroke-dasharray="5,2" d="M1873.08,-164C1890.05,-164 2006.21,-164 2044.08,-164"/>
<polygon fill="red" stroke="red" points="2044.17,-167.5 2054.17,-164 2044.17,-160.5 2044.17,-167.5"/>
<text text-anchor="middle" x="1963.5" y="-170.8" font-family="Times,serif" font-size="14.00">Control flow back edge</text>
</g>
<!-- d0 -->
<!-- d1 -->
<!-- d0&#45;&gt;d1 -->
<g id="edge29" class="edge">
<title>d0&#45;&gt;d1</title>
<path fill="none" stroke="black" d="M1761.86,-164C1771.41,-164 1815.31,-164 1836.92,-164"/>
<polygon fill="black" stroke="black" points="1837.15,-167.5 1847.15,-164 1837.15,-160.5 1837.15,-167.5"/>
<text text-anchor="middle" x="1804.5" y="-170.8" font-family="Times,serif" font-size="14.00">Data flow</text>
</g>
<!-- d2 -->
<!-- d3 -->
<!-- d2&#45;&gt;d3 -->
<g id="edge30" class="edge">
<title>d2&#45;&gt;d3</title>
<path fill="none" stroke="black" stroke-dasharray="1,5" d="M1635.81,-164C1646.46,-164 1701.46,-164 1726.08,-164"/>
<polygon fill="black" stroke="black" points="1726.15,-167.5 1736.15,-164 1726.15,-160.5 1726.15,-167.5"/>
<text text-anchor="middle" x="1686" y="-170.8" font-family="Times,serif" font-size="14.00">Declaration</text>
</g>
<!-- d4 -->
<!-- d5 -->
<!-- d4&#45;&gt;d5 -->
<g id="edge31" class="edge">
<title>d4&#45;&gt;d5</title>
<path fill="none" stroke="blue" d="M1493.1,-164C1505.72,-164 1571.88,-164 1599.68,-164"/>
<polygon fill="blue" stroke="blue" points="1599.84,-167.5 1609.84,-164 1599.84,-160.5 1599.84,-167.5"/>
<text text-anchor="middle" x="1551.5" y="-170.8" font-family="Times,serif" font-size="14.00">PHI Data flow</text>
</g>
<!-- d6 -->
<!-- d7 -->
<!-- d6&#45;&gt;d7 -->
<g id="edge32" class="edge">
<title>d6&#45;&gt;d7</title>
<path fill="none" stroke="green" d="M1356,-164C1367.94,-164 1430.3,-164 1456.93,-164"/>
<polygon fill="green" stroke="green" points="1456.95,-167.5 1466.95,-164 1456.95,-160.5 1456.95,-167.5"/>
<text text-anchor="middle" x="1411.5" y="-170.8" font-family="Times,serif" font-size="14.00">Memory flow</text>
</g>
<!-- d8 -->
<!-- d9 -->
<!-- d8&#45;&gt;d9 -->
<g id="edge33" class="edge">
<title>d8&#45;&gt;d9</title>
<path fill="none" stroke="fuchsia" d="M1233.11,-164C1244.15,-164 1295.67,-164 1319.66,-164"/>
<polygon fill="fuchsia" stroke="fuchsia" points="1319.9,-167.5 1329.9,-164 1319.9,-160.5 1319.9,-167.5"/>
<text text-anchor="middle" x="1281.5" y="-170.8" font-family="Times,serif" font-size="14.00">Dominance</text>
</g>
</g>
</svg>
