<?xml version="1.0" encoding="UTF-8" standalone="no"?>
<!DOCTYPE svg PUBLIC "-//W3C//DTD SVG 1.1//EN"
 "http://www.w3.org/Graphics/SVG/1.1/DTD/svg11.dtd">
<!-- Generated by graphviz version 2.43.0 (0)
 -->
<!-- Title: debugoutput Pages: 1 -->
<svg width="2308pt" height="213pt"
 viewBox="0.00 0.00 2308.49 212.80" xmlns="http://www.w3.org/2000/svg" xmlns:xlink="http://www.w3.org/1999/xlink">
<g id="graph0" class="graph" transform="scale(1 1) rotate(0) translate(4 208.8)">
<title>debugoutput</title>
<polygon fill="white" stroke="transparent" points="-4,4 -4,-208.8 2304.49,-208.8 2304.49,4 -4,4"/>
<g id="clust1" class="cluster">
<title>cluster_000</title>
<polygon fill="none" stroke="black" points="1263,-154.2 1263,-196.8 2239,-196.8 2239,-154.2 1263,-154.2"/>
<text text-anchor="middle" x="1751" y="-181.6" font-family="Times,serif" font-size="14.00">Legend</text>
</g>
<!-- node0 -->
<g id="node1" class="node">
<title>node0</title>
<polygon fill="lightgrey" stroke="black" points="1253,-182 1087,-182 1087,-146 1253,-146 1253,-182"/>
<text text-anchor="middle" x="1170" y="-160.3" font-family="Times,serif" font-size="14.00">#0 Method Order : 0</text>
</g>
<!-- node1 -->
<g id="node2" class="node">
<title>node1</title>
<polygon fill="lightgrey" stroke="black" points="198,-109 0,-109 0,-73 198,-73 198,-109"/>
<text text-anchor="middle" x="99" y="-87.3" font-family="Times,serif" font-size="14.00">#1 arg6 : float Order : 12</text>
</g>
<!-- node0&#45;&gt;node1 -->
<g id="edge2" class="edge">
<title>node0&#45;&gt;node1</title>
<path fill="none" stroke="black" d="M1086.86,-161.27C920.28,-157.09 534.02,-144.16 208.57,-110.12"/>
<polygon fill="black" stroke="black" points="208.79,-106.62 198.48,-109.05 208.06,-113.58 208.79,-106.62"/>
<text text-anchor="middle" x="217.39" y="-98.85" font-family="Times,serif" font-size="14.00">*0</text>
</g>
<!-- node2 -->
<g id="node3" class="node">
<title>node2</title>
<polygon fill="lightgrey" stroke="black" points="413.5,-109 216.5,-109 216.5,-73 413.5,-73 413.5,-109"/>
<text text-anchor="middle" x="315" y="-87.3" font-family="Times,serif" font-size="14.00">#2 arg5 : long Order : 11</text>
</g>
<!-- node0&#45;&gt;node2 -->
<g id="edge4" class="edge">
<title>node0&#45;&gt;node2</title>
<path fill="none" stroke="black" d="M1086.97,-159.54C949.33,-153.09 665.4,-137.35 423.74,-110.11"/>
<polygon fill="black" stroke="black" points="424.05,-106.62 413.72,-108.97 423.26,-113.57 424.05,-106.62"/>
<text text-anchor="middle" x="432.68" y="-98.92" font-family="Times,serif" font-size="14.00">*0</text>
</g>
<!-- node3 -->
<g id="node4" class="node">
<title>node3</title>
<polygon fill="lightgrey" stroke="black" points="644,-109 432,-109 432,-73 644,-73 644,-109"/>
<text text-anchor="middle" x="538" y="-87.3" font-family="Times,serif" font-size="14.00">#3 arg8 : String Order : 10</text>
</g>
<!-- node0&#45;&gt;node3 -->
<g id="edge6" class="edge">
<title>node0&#45;&gt;node3</title>
<path fill="none" stroke="black" d="M1086.92,-156.05C985.16,-146.87 807.5,-129.59 653.56,-110.33"/>
<polygon fill="black" stroke="black" points="653.82,-106.83 643.46,-109.06 652.94,-113.78 653.82,-106.83"/>
<text text-anchor="middle" x="662.5" y="-99.23" font-family="Times,serif" font-size="14.00">*0</text>
</g>
<!-- node4 -->
<g id="node5" class="node">
<title>node4</title>
<polygon fill="lightgrey" stroke="black" points="838.5,-109 661.5,-109 661.5,-73 838.5,-73 838.5,-109"/>
<text text-anchor="middle" x="750" y="-87.3" font-family="Times,serif" font-size="14.00">#4 arg1 : int Order : 9</text>
</g>
<!-- node0&#45;&gt;node4 -->
<g id="edge8" class="edge">
<title>node0&#45;&gt;node4</title>
<path fill="none" stroke="black" d="M1086.69,-150.35C1022.22,-139.91 930.59,-124.6 848.68,-110.65"/>
<polygon fill="black" stroke="black" points="849.19,-107.19 838.74,-108.96 848.01,-114.09 849.19,-107.19"/>
<text text-anchor="middle" x="858.03" y="-99.97" font-family="Times,serif" font-size="14.00">*0</text>
</g>
<!-- node5 -->
<g id="node6" class="node">
<title>node5</title>
<polygon fill="lightgrey" stroke="black" points="1063,-109 857,-109 857,-73 1063,-73 1063,-109"/>
<text text-anchor="middle" x="960" y="-87.3" font-family="Times,serif" font-size="14.00">#5 arg7 : double Order : 8</text>
</g>
<!-- node0&#45;&gt;node5 -->
<g id="edge10" class="edge">
<title>node0&#45;&gt;node5</title>
<path fill="none" stroke="black" d="M1113.84,-145.99C1082.99,-135.92 1044.96,-123.1 1014.39,-112.48"/>
<polygon fill="black" stroke="black" points="1015.34,-109.1 1004.75,-109.11 1013.04,-115.71 1015.34,-109.1"/>
<text text-anchor="middle" x="1024.65" y="-103.41" font-family="Times,serif" font-size="14.00">*0</text>
</g>
<!-- node6 -->
<g id="node7" class="node">
<title>node6</title>
<polygon fill="lightgrey" stroke="black" points="1258.5,-109 1081.5,-109 1081.5,-73 1258.5,-73 1258.5,-109"/>
<text text-anchor="middle" x="1170" y="-87.3" font-family="Times,serif" font-size="14.00">#6 arg3 : int Order : 7</text>
</g>
<!-- node0&#45;&gt;node6 -->
<g id="edge12" class="edge">
<title>node0&#45;&gt;node6</title>
<path fill="none" stroke="black" d="M1164.12,-145.81C1163.28,-137.79 1163.05,-128.05 1163.42,-119.07"/>
<polygon fill="black" stroke="black" points="1166.92,-119.25 1164.14,-109.03 1159.94,-118.75 1166.92,-119.25"/>
<text text-anchor="middle" x="1171.28" y="-124.01" font-family="Times,serif" font-size="14.00">*0</text>
</g>
<!-- node7 -->
<g id="node8" class="node">
<title>node7</title>
<polygon fill="lightgrey" stroke="black" points="1453.5,-109 1276.5,-109 1276.5,-73 1453.5,-73 1453.5,-109"/>
<text text-anchor="middle" x="1365" y="-87.3" font-family="Times,serif" font-size="14.00">#7 arg2 : int Order : 6</text>
</g>
<!-- node0&#45;&gt;node7 -->
<g id="edge14" class="edge">
<title>node0&#45;&gt;node7</title>
<path fill="none" stroke="black" d="M1210.85,-145.99C1237.43,-135.92 1272.54,-123.1 1302.57,-112.48"/>
<polygon fill="black" stroke="black" points="1303.86,-115.74 1312.13,-109.11 1301.53,-109.13 1303.86,-115.74"/>
<text text-anchor="middle" x="1297.84" y="-119.41" font-family="Times,serif" font-size="14.00">*0</text>
</g>
<!-- node8 -->
<g id="node9" class="node">
<title>node8</title>
<polygon fill="lightgrey" stroke="black" points="1660,-109 1472,-109 1472,-73 1660,-73 1660,-109"/>
<text text-anchor="middle" x="1566" y="-87.3" font-family="Times,serif" font-size="14.00">#8 arg9 : int[] Order : 5</text>
</g>
<!-- node0&#45;&gt;node8 -->
<g id="edge16" class="edge">
<title>node0&#45;&gt;node8</title>
<path fill="none" stroke="black" d="M1250.4,-145.93C1320.7,-133.03 1400.12,-119.08 1461.75,-108.6"/>
<polygon fill="black" stroke="black" points="1462.6,-112.01 1471.87,-106.88 1461.43,-105.1 1462.6,-112.01"/>
<text text-anchor="middle" x="1455.42" y="-114.55" font-family="Times,serif" font-size="14.00">*0</text>
</g>
<!-- node9 -->
<g id="node10" class="node">
<title>node9</title>
<polygon fill="lightgrey" stroke="black" points="1855.5,-109 1678.5,-109 1678.5,-73 1855.5,-73 1855.5,-109"/>
<text text-anchor="middle" x="1767" y="-87.3" font-family="Times,serif" font-size="14.00">#9 arg0 : int Order : 3</text>
</g>
<!-- node0&#45;&gt;node9 -->
<g id="edge18" class="edge">
<title>node0&#45;&gt;node9</title>
<path fill="none" stroke="black" d="M1250.27,-145.96C1431.24,-120.6 1478.69,-132.87 1660,-109 1662.72,-108.64 1665.47,-108.26 1668.25,-107.87"/>
<polygon fill="black" stroke="black" points="1669.03,-111.29 1678.41,-106.37 1668.01,-104.37 1669.03,-111.29"/>
<text text-anchor="middle" x="1661.72" y="-113.68" font-family="Times,serif" font-size="14.00">*0</text>
</g>
<!-- node10 -->
<g id="node11" class="node">
<title>node10</title>
<polygon fill="lightgrey" stroke="black" points="2059,-109 1873,-109 1873,-73 2059,-73 2059,-109"/>
<text text-anchor="middle" x="1966" y="-87.3" font-family="Times,serif" font-size="14.00">#10 arg4 : int Order : 2</text>
</g>
<!-- node0&#45;&gt;node10 -->
<g id="edge20" class="edge">
<title>node0&#45;&gt;node10</title>
<path fill="none" stroke="black" d="M1250.39,-145.95C1517.8,-112.42 1588.04,-139.64 1856,-109 1858.22,-108.75 1860.48,-108.48 1862.74,-108.19"/>
<polygon fill="black" stroke="black" points="1863.34,-111.64 1872.79,-106.86 1862.42,-104.7 1863.34,-111.64"/>
<text text-anchor="middle" x="1855.93" y="-113.92" font-family="Times,serif" font-size="14.00">*0</text>
</g>
<!-- node11 -->
<g id="node12" class="node">
<title>node11</title>
<polygon fill="lightgrey" stroke="black" points="2274.5,-109 2077.5,-109 2077.5,-73 2274.5,-73 2274.5,-109"/>
<text text-anchor="middle" x="2176" y="-87.3" font-family="Times,serif" font-size="14.00">#11 LabelNode Order : 1</text>
</g>
<!-- node0&#45;&gt;node11 -->
<g id="edge22" class="edge">
<title>node0&#45;&gt;node11</title>
<path fill="none" stroke="red" d="M1250.26,-145.97C1429.17,-124.95 1880.04,-127.12 2059,-109 2061.7,-108.73 2064.43,-108.43 2067.18,-108.12"/>
<polygon fill="red" stroke="red" points="2067.74,-111.58 2077.24,-106.9 2066.9,-104.63 2067.74,-111.58"/>
</g>
<!-- node12 -->
<g id="node13" class="node">
<title>node12</title>
<polygon fill="lightgrey" stroke="black" points="2297,-36 2055,-36 2055,0 2297,0 2297,-36"/>
<text text-anchor="middle" x="2176" y="-14.3" font-family="Times,serif" font-size="14.00">#12 ReturnValue : int Order : 4</text>
</g>
<!-- node0&#45;&gt;node12 -->
<g id="edge26" class="edge">
<title>node0&#45;&gt;node12</title>
<path fill="none" stroke="green" d="M1250.34,-145.96C1310.25,-139.65 2235.52,-149.93 2275,-109 2286.11,-97.48 2283.41,-86.61 2275,-73 2266.33,-58.97 2252.79,-48.46 2238.45,-40.64"/>
<polygon fill="green" stroke="green" points="2239.96,-37.48 2229.46,-36.11 2236.81,-43.73 2239.96,-37.48"/>
</g>
<!-- node1&#45;&gt;node0 -->
<g id="edge1" class="edge">
<title>node1&#45;&gt;node0</title>
<path fill="none" stroke="fuchsia" stroke-width="2" d="M198.06,-106.87C204.13,-107.66 210.15,-108.38 216,-109 530.72,-142.51 905.67,-155.97 1076.72,-160.73"/>
<polygon fill="fuchsia" stroke="fuchsia" stroke-width="2" points="1076.86,-164.23 1086.95,-161.01 1077.05,-157.23 1076.86,-164.23"/>
</g>
<!-- node2&#45;&gt;node0 -->
<g id="edge3" class="edge">
<title>node2&#45;&gt;node0</title>
<path fill="none" stroke="fuchsia" stroke-width="2" d="M413.78,-106.72C419.95,-107.55 426.06,-108.32 432,-109 663.26,-135.51 936.37,-151.35 1076.64,-158.48"/>
<polygon fill="fuchsia" stroke="fuchsia" stroke-width="2" points="1076.76,-161.99 1086.92,-159 1077.11,-155 1076.76,-161.99"/>
</g>
<!-- node3&#45;&gt;node0 -->
<g id="edge5" class="edge">
<title>node3&#45;&gt;node0</title>
<path fill="none" stroke="fuchsia" stroke-width="2" d="M644.28,-106.8C649.94,-107.57 655.54,-108.31 661,-109 806.19,-127.38 974.86,-144.11 1077,-153.92"/>
<polygon fill="fuchsia" stroke="fuchsia" stroke-width="2" points="1076.69,-157.41 1086.98,-154.88 1077.36,-150.44 1076.69,-157.41"/>
</g>
<!-- node4&#45;&gt;node0 -->
<g id="edge7" class="edge">
<title>node4&#45;&gt;node0</title>
<path fill="none" stroke="fuchsia" stroke-width="2" d="M838.66,-105.86C844.88,-106.93 851.04,-107.98 857,-109 930.97,-121.62 1014.54,-135.63 1076.76,-146.21"/>
<polygon fill="fuchsia" stroke="fuchsia" stroke-width="2" points="1076.5,-149.72 1086.95,-147.95 1077.68,-142.82 1076.5,-149.72"/>
</g>
<!-- node5&#45;&gt;node0 -->
<g id="edge9" class="edge">
<title>node5&#45;&gt;node0</title>
<path fill="none" stroke="fuchsia" stroke-width="2" d="M1016.49,-109.11C1047.39,-119.2 1085.42,-132.03 1115.94,-142.63"/>
<polygon fill="fuchsia" stroke="fuchsia" stroke-width="2" points="1114.96,-146 1125.56,-145.99 1117.27,-139.39 1114.96,-146"/>
</g>
<!-- node6&#45;&gt;node0 -->
<g id="edge11" class="edge">
<title>node6&#45;&gt;node0</title>
<path fill="none" stroke="fuchsia" stroke-width="2" d="M1175.86,-109.03C1176.71,-117.03 1176.95,-126.77 1176.59,-135.75"/>
<polygon fill="fuchsia" stroke="fuchsia" stroke-width="2" points="1173.09,-135.59 1175.88,-145.81 1180.07,-136.08 1173.09,-135.59"/>
</g>
<!-- node7&#45;&gt;node0 -->
<g id="edge13" class="edge">
<title>node7&#45;&gt;node0</title>
<path fill="none" stroke="fuchsia" stroke-width="2" d="M1323.87,-109.11C1297.22,-119.2 1262.1,-132.03 1232.11,-142.63"/>
<polygon fill="fuchsia" stroke="fuchsia" stroke-width="2" points="1230.84,-139.37 1222.57,-145.99 1233.16,-145.97 1230.84,-139.37"/>
</g>
<!-- node8&#45;&gt;node0 -->
<g id="edge15" class="edge">
<title>node8&#45;&gt;node0</title>
<path fill="none" stroke="fuchsia" stroke-width="2" d="M1474.89,-109.02C1415.88,-119.47 1337.46,-133.26 1268,-146 1266.5,-146.27 1264.99,-146.55 1263.46,-146.83"/>
<polygon fill="fuchsia" stroke="fuchsia" stroke-width="2" points="1262.46,-143.46 1253.27,-148.73 1263.74,-150.34 1262.46,-143.46"/>
</g>
<!-- node9&#45;&gt;node0 -->
<g id="edge17" class="edge">
<title>node9&#45;&gt;node0</title>
<path fill="none" stroke="fuchsia" stroke-width="2" d="M1678.26,-108.97C1678.17,-108.98 1678.09,-108.99 1678,-109 1496.6,-132.88 1449.19,-120.58 1268,-146 1266.49,-146.21 1264.97,-146.43 1263.44,-146.66"/>
<polygon fill="fuchsia" stroke="fuchsia" stroke-width="2" points="1262.53,-143.26 1253.19,-148.26 1263.61,-150.17 1262.53,-143.26"/>
</g>
<!-- node9&#45;&gt;node12 -->
<g id="edge24" class="edge">
<title>node9&#45;&gt;node12</title>
<path fill="none" stroke="black" d="M1855.55,-74.47C1858.4,-73.98 1861.22,-73.48 1864,-73 1931.59,-61.23 2007.43,-48.1 2067.41,-37.74"/>
<polygon fill="black" stroke="black" points="2068.02,-41.18 2077.28,-36.03 2066.83,-34.29 2068.02,-41.18"/>
<text text-anchor="middle" x="2060.85" y="-43.75" font-family="Times,serif" font-size="14.00">*0</text>
</g>
<!-- node10&#45;&gt;node0 -->
<g id="edge19" class="edge">
<title>node10&#45;&gt;node0</title>
<path fill="none" stroke="fuchsia" stroke-width="2" d="M1873.61,-109.04C1605.84,-139.63 1535.6,-112.41 1268,-146 1266.49,-146.19 1264.96,-146.39 1263.43,-146.6"/>
<polygon fill="fuchsia" stroke="fuchsia" stroke-width="2" points="1262.56,-143.19 1253.17,-148.09 1263.57,-150.11 1262.56,-143.19"/>
</g>
<!-- node11&#45;&gt;node0 -->
<g id="edge21" class="edge">
<title>node11&#45;&gt;node0</title>
<path fill="none" stroke="fuchsia" stroke-width="2" d="M2077.28,-108.97C2077.19,-108.98 2077.09,-108.99 2077,-109 1897.95,-127.13 1446.73,-124.95 1268,-146 1266.49,-146.18 1264.96,-146.37 1263.42,-146.57"/>
<polygon fill="fuchsia" stroke="fuchsia" stroke-width="2" points="1262.58,-143.15 1253.16,-148.01 1263.55,-150.08 1262.58,-143.15"/>
</g>
<!-- node11&#45;&gt;node12 -->
<g id="edge25" class="edge">
<title>node11&#45;&gt;node12</title>
<path fill="none" stroke="red" d="M2176,-72.81C2176,-64.79 2176,-55.05 2176,-46.07"/>
<polygon fill="red" stroke="red" points="2179.5,-46.03 2176,-36.03 2172.5,-46.03 2179.5,-46.03"/>
</g>
<!-- node12&#45;&gt;node0 -->
<g id="edge23" class="edge">
<title>node12&#45;&gt;node0</title>
<path fill="none" stroke="fuchsia" stroke-width="2" d="M2246.54,-36.11C2264.96,-44.26 2282.53,-56.06 2293,-73 2301.41,-86.61 2304.11,-97.48 2293,-109 2253.44,-150.01 1324.62,-139.61 1268,-146 1266.49,-146.17 1264.96,-146.35 1263.42,-146.55"/>
<polygon fill="fuchsia" stroke="fuchsia" stroke-width="2" points="1262.59,-143.13 1253.16,-147.96 1263.54,-150.06 1262.59,-143.13"/>
</g>
<!-- c0 -->
<!-- c1 -->
<!-- c0&#45;&gt;c1 -->
<g id="edge27" class="edge">
<title>c0&#45;&gt;c1</title>
<path fill="none" stroke="red" d="M2121.89,-164C2133.11,-164 2191.24,-164 2216.86,-164"/>
<polygon fill="red" stroke="red" points="2217.06,-167.5 2227.06,-164 2217.06,-160.5 2217.06,-167.5"/>
<text text-anchor="middle" x="2174.5" y="-170.8" font-family="Times,serif" font-size="14.00">Control flow</text>
</g>
<!-- c2 -->
<!-- c3 -->
<!-- c2&#45;&gt;c3 -->
<g id="edge28" class="edge">
<title>c2&#45;&gt;c3</title>
<path fill="none" stroke="red" stroke-dasharray="5,2" d="M1915.08,-164C1932.05,-164 2048.21,-164 2086.08,-164"/>
<polygon fill="red" stroke="red" points="2086.17,-167.5 2096.17,-164 2086.17,-160.5 2086.17,-167.5"/>
<text text-anchor="middle" x="2005.5" y="-170.8" font-family="Times,serif" font-size="14.00">Control flow back edge</text>
</g>
<!-- d0 -->
<!-- d1 -->
<!-- d0&#45;&gt;d1 -->
<g id="edge29" class="edge">
<title>d0&#45;&gt;d1</title>
<path fill="none" stroke="black" d="M1803.86,-164C1813.41,-164 1857.31,-164 1878.92,-164"/>
<polygon fill="black" stroke="black" points="1879.15,-167.5 1889.15,-164 1879.15,-160.5 1879.15,-167.5"/>
<text text-anchor="middle" x="1846.5" y="-170.8" font-family="Times,serif" font-size="14.00">Data flow</text>
</g>
<!-- d2 -->
<!-- d3 -->
<!-- d2&#45;&gt;d3 -->
<g id="edge30" class="edge">
<title>d2&#45;&gt;d3</title>
<path fill="none" stroke="black" stroke-dasharray="1,5" d="M1677.81,-164C1688.46,-164 1743.46,-164 1768.08,-164"/>
<polygon fill="black" stroke="black" points="1768.15,-167.5 1778.15,-164 1768.15,-160.5 1768.15,-167.5"/>
<text text-anchor="middle" x="1728" y="-170.8" font-family="Times,serif" font-size="14.00">Declaration</text>
</g>
<!-- d4 -->
<!-- d5 -->
<!-- d4&#45;&gt;d5 -->
<g id="edge31" class="edge">
<title>d4&#45;&gt;d5</title>
<path fill="none" stroke="blue" d="M1535.1,-164C1547.72,-164 1613.88,-164 1641.68,-164"/>
<polygon fill="blue" stroke="blue" points="1641.84,-167.5 1651.84,-164 1641.84,-160.5 1641.84,-167.5"/>
<text text-anchor="middle" x="1593.5" y="-170.8" font-family="Times,serif" font-size="14.00">PHI Data flow</text>
</g>
<!-- d6 -->
<!-- d7 -->
<!-- d6&#45;&gt;d7 -->
<g id="edge32" class="edge">
<title>d6&#45;&gt;d7</title>
<path fill="none" stroke="green" d="M1398,-164C1409.94,-164 1472.3,-164 1498.93,-164"/>
<polygon fill="green" stroke="green" points="1498.95,-167.5 1508.95,-164 1498.95,-160.5 1498.95,-167.5"/>
<text text-anchor="middle" x="1453.5" y="-170.8" font-family="Times,serif" font-size="14.00">Memory flow</text>
</g>
<!-- d8 -->
<!-- d9 -->
<!-- d8&#45;&gt;d9 -->
<g id="edge33" class="edge">
<title>d8&#45;&gt;d9</title>
<path fill="none" stroke="fuchsia" d="M1275.11,-164C1286.15,-164 1337.67,-164 1361.66,-164"/>
<polygon fill="fuchsia" stroke="fuchsia" points="1361.9,-167.5 1371.9,-164 1361.9,-160.5 1361.9,-167.5"/>
<text text-anchor="middle" x="1323.5" y="-170.8" font-family="Times,serif" font-size="14.00">Dominance</text>
</g>
</g>
</svg>
