<?xml version="1.0" encoding="UTF-8" standalone="no"?>
<!DOCTYPE svg PUBLIC "-//W3C//DTD SVG 1.1//EN"
 "http://www.w3.org/Graphics/SVG/1.1/DTD/svg11.dtd">
<!-- Generated by graphviz version 2.43.0 (0)
 -->
<!-- Title: debugoutput Pages: 1 -->
<svg width="2406pt" height="213pt"
 viewBox="0.00 0.00 2406.00 212.80" xmlns="http://www.w3.org/2000/svg" xmlns:xlink="http://www.w3.org/1999/xlink">
<g id="graph0" class="graph" transform="scale(1 1) rotate(0) translate(4 208.8)">
<title>debugoutput</title>
<polygon fill="white" stroke="transparent" points="-4,4 -4,-208.8 2402,-208.8 2402,4 -4,4"/>
<g id="clust1" class="cluster">
<title>cluster_000</title>
<polygon fill="none" stroke="black" points="1320,-154.2 1320,-196.8 2159,-196.8 2159,-154.2 1320,-154.2"/>
<text text-anchor="middle" x="1739.5" y="-181.6" font-family="Times,serif" font-size="14.00">Legend</text>
</g>
<!-- node0 -->
<g id="node1" class="node">
<title>node0</title>
<polygon fill="lightgrey" stroke="black" points="1310,-182 1144,-182 1144,-146 1310,-146 1310,-182"/>
<text text-anchor="middle" x="1227" y="-160.3" font-family="Times,serif" font-size="14.00">#0 Method Order : 0</text>
</g>
<!-- node1 -->
<g id="node2" class="node">
<title>node1</title>
<polygon fill="lightgrey" stroke="black" points="186,-109 0,-109 0,-73 186,-73 186,-109"/>
<text text-anchor="middle" x="93" y="-87.3" font-family="Times,serif" font-size="14.00">#1 arg1 : int Order : 12</text>
</g>
<!-- node0&#45;&gt;node1 -->
<g id="edge2" class="edge">
<title>node0&#45;&gt;node1</title>
<path fill="none" stroke="black" d="M1143.98,-161.92C968.8,-158.9 548.8,-147.92 195.89,-110.07"/>
<polygon fill="black" stroke="black" points="196.05,-106.57 185.73,-108.97 195.3,-113.53 196.05,-106.57"/>
<text text-anchor="middle" x="204.66" y="-98.82" font-family="Times,serif" font-size="14.00">*0</text>
</g>
<!-- node2 -->
<g id="node3" class="node">
<title>node2</title>
<polygon fill="lightgrey" stroke="black" points="390,-109 204,-109 204,-73 390,-73 390,-109"/>
<text text-anchor="middle" x="297" y="-87.3" font-family="Times,serif" font-size="14.00">#2 arg4 : int Order : 11</text>
</g>
<!-- node0&#45;&gt;node2 -->
<g id="edge4" class="edge">
<title>node0&#45;&gt;node2</title>
<path fill="none" stroke="black" d="M1143.94,-160.52C994.97,-155.33 672.75,-141.13 399.83,-110.13"/>
<polygon fill="black" stroke="black" points="400.07,-106.63 389.73,-108.97 399.27,-113.59 400.07,-106.63"/>
<text text-anchor="middle" x="408.7" y="-98.94" font-family="Times,serif" font-size="14.00">*0</text>
</g>
<!-- node3 -->
<g id="node4" class="node">
<title>node3</title>
<polygon fill="lightgrey" stroke="black" points="594,-109 408,-109 408,-73 594,-73 594,-109"/>
<text text-anchor="middle" x="501" y="-87.3" font-family="Times,serif" font-size="14.00">#3 arg3 : int Order : 10</text>
</g>
<!-- node0&#45;&gt;node3 -->
<g id="edge6" class="edge">
<title>node0&#45;&gt;node3</title>
<path fill="none" stroke="black" d="M1143.93,-158.28C1024.65,-150.75 798.12,-134.37 603.84,-110.23"/>
<polygon fill="black" stroke="black" points="604.09,-106.74 593.73,-108.97 603.22,-113.68 604.09,-106.74"/>
<text text-anchor="middle" x="612.77" y="-99.13" font-family="Times,serif" font-size="14.00">*0</text>
</g>
<!-- node4 -->
<g id="node5" class="node">
<title>node4</title>
<polygon fill="lightgrey" stroke="black" points="818,-109 612,-109 612,-73 818,-73 818,-109"/>
<text text-anchor="middle" x="715" y="-87.3" font-family="Times,serif" font-size="14.00">#4 arg7 : double Order : 9</text>
</g>
<!-- node0&#45;&gt;node4 -->
<g id="edge8" class="edge">
<title>node0&#45;&gt;node4</title>
<path fill="none" stroke="black" d="M1143.93,-153.07C1063.61,-142.83 938.4,-126.18 828.26,-110.47"/>
<polygon fill="black" stroke="black" points="828.72,-107 818.33,-109.05 827.73,-113.93 828.72,-107"/>
<text text-anchor="middle" x="837.47" y="-99.55" font-family="Times,serif" font-size="14.00">*0</text>
</g>
<!-- node5 -->
<g id="node6" class="node">
<title>node5</title>
<polygon fill="lightgrey" stroke="black" points="1024,-109 836,-109 836,-73 1024,-73 1024,-109"/>
<text text-anchor="middle" x="930" y="-87.3" font-family="Times,serif" font-size="14.00">#5 arg5 : long Order : 8</text>
</g>
<!-- node0&#45;&gt;node5 -->
<g id="edge10" class="edge">
<title>node0&#45;&gt;node5</title>
<path fill="none" stroke="black" d="M1150,-145.99C1105.42,-135.6 1049.59,-122.27 1005.31,-111.46"/>
<polygon fill="black" stroke="black" points="1006.01,-108.03 995.47,-109.05 1004.35,-114.83 1006.01,-108.03"/>
<text text-anchor="middle" x="1015.08" y="-101.45" font-family="Times,serif" font-size="14.00">*0</text>
</g>
<!-- node6 -->
<g id="node7" class="node">
<title>node6</title>
<polygon fill="lightgrey" stroke="black" points="1230,-109 1042,-109 1042,-73 1230,-73 1230,-109"/>
<text text-anchor="middle" x="1136" y="-87.3" font-family="Times,serif" font-size="14.00">#6 arg9 : int[] Order : 7</text>
</g>
<!-- node0&#45;&gt;node6 -->
<g id="edge12" class="edge">
<title>node0&#45;&gt;node6</title>
<path fill="none" stroke="black" d="M1199.34,-145.99C1186.76,-136.93 1172.1,-125.63 1159.98,-115.71"/>
<polygon fill="black" stroke="black" points="1161.99,-112.83 1152.06,-109.11 1157.51,-118.2 1161.99,-112.83"/>
<text text-anchor="middle" x="1171.4" y="-110.52" font-family="Times,serif" font-size="14.00">*0</text>
</g>
<!-- node7 -->
<g id="node8" class="node">
<title>node7</title>
<polygon fill="lightgrey" stroke="black" points="1425.5,-109 1248.5,-109 1248.5,-73 1425.5,-73 1425.5,-109"/>
<text text-anchor="middle" x="1337" y="-87.3" font-family="Times,serif" font-size="14.00">#7 arg2 : int Order : 6</text>
</g>
<!-- node0&#45;&gt;node7 -->
<g id="edge14" class="edge">
<title>node0&#45;&gt;node7</title>
<path fill="none" stroke="black" d="M1247.49,-145.99C1261.08,-136.58 1279.24,-124.76 1295.69,-114.57"/>
<polygon fill="black" stroke="black" points="1297.91,-117.32 1304.62,-109.11 1294.26,-111.35 1297.91,-117.32"/>
<text text-anchor="middle" x="1293.56" y="-122.08" font-family="Times,serif" font-size="14.00">*0</text>
</g>
<!-- node8 -->
<g id="node9" class="node">
<title>node8</title>
<polygon fill="lightgrey" stroke="black" points="1620.5,-109 1443.5,-109 1443.5,-73 1620.5,-73 1620.5,-109"/>
<text text-anchor="middle" x="1532" y="-87.3" font-family="Times,serif" font-size="14.00">#8 arg0 : int Order : 4</text>
</g>
<!-- node0&#45;&gt;node8 -->
<g id="edge16" class="edge">
<title>node0&#45;&gt;node8</title>
<path fill="none" stroke="black" d="M1294.2,-145.99C1337.92,-135.56 1395.39,-122.16 1442.91,-111.32"/>
<polygon fill="black" stroke="black" points="1443.91,-114.68 1452.88,-109.05 1442.36,-107.86 1443.91,-114.68"/>
<text text-anchor="middle" x="1437.09" y="-117.62" font-family="Times,serif" font-size="14.00">*0</text>
</g>
<!-- node9 -->
<g id="node10" class="node">
<title>node9</title>
<polygon fill="lightgrey" stroke="black" points="1841.5,-109 1638.5,-109 1638.5,-73 1841.5,-73 1841.5,-109"/>
<text text-anchor="middle" x="1740" y="-87.3" font-family="Times,serif" font-size="14.00">#9 arg8 : String Order : 3</text>
</g>
<!-- node0&#45;&gt;node9 -->
<g id="edge18" class="edge">
<title>node0&#45;&gt;node9</title>
<path fill="none" stroke="black" d="M1307.41,-145.94C1445.95,-124.59 1481.9,-127.94 1621,-109 1623.38,-108.68 1625.79,-108.34 1628.23,-108"/>
<polygon fill="black" stroke="black" points="1628.92,-111.44 1638.32,-106.57 1627.93,-104.51 1628.92,-111.44"/>
<text text-anchor="middle" x="1621.57" y="-113.79" font-family="Times,serif" font-size="14.00">*0</text>
</g>
<!-- node10 -->
<g id="node11" class="node">
<title>node10</title>
<polygon fill="lightgrey" stroke="black" points="2058,-109 1860,-109 1860,-73 2058,-73 2058,-109"/>
<text text-anchor="middle" x="1959" y="-87.3" font-family="Times,serif" font-size="14.00">#10 arg6 : float Order : 2</text>
</g>
<!-- node0&#45;&gt;node10 -->
<g id="edge20" class="edge">
<title>node0&#45;&gt;node10</title>
<path fill="none" stroke="black" d="M1307.35,-145.96C1543.43,-115.38 1605.28,-135.77 1842,-109 1844.56,-108.71 1847.15,-108.4 1849.76,-108.08"/>
<polygon fill="black" stroke="black" points="1850.46,-111.52 1859.93,-106.78 1849.57,-104.58 1850.46,-111.52"/>
<text text-anchor="middle" x="1843.03" y="-113.77" font-family="Times,serif" font-size="14.00">*0</text>
</g>
<!-- node11 -->
<g id="node12" class="node">
<title>node11</title>
<polygon fill="lightgrey" stroke="black" points="2273.5,-109 2076.5,-109 2076.5,-73 2273.5,-73 2273.5,-109"/>
<text text-anchor="middle" x="2175" y="-87.3" font-family="Times,serif" font-size="14.00">#11 LabelNode Order : 1</text>
</g>
<!-- node0&#45;&gt;node11 -->
<g id="edge22" class="edge">
<title>node0&#45;&gt;node11</title>
<path fill="none" stroke="red" d="M1307.49,-145.94C1473.73,-126.17 1891.95,-126.11 2058,-109 2060.69,-108.72 2063.43,-108.42 2066.18,-108.1"/>
<polygon fill="red" stroke="red" points="2066.74,-111.56 2076.24,-106.88 2065.89,-104.61 2066.74,-111.56"/>
</g>
<!-- node12 -->
<g id="node13" class="node">
<title>node12</title>
<polygon fill="lightgrey" stroke="black" points="2398,-36 2156,-36 2156,0 2398,0 2398,-36"/>
<text text-anchor="middle" x="2277" y="-14.3" font-family="Times,serif" font-size="14.00">#12 ReturnValue : int Order : 5</text>
</g>
<!-- node0&#45;&gt;node12 -->
<g id="edge26" class="edge">
<title>node0&#45;&gt;node12</title>
<path fill="none" stroke="black" d="M1307.32,-145.96C1363.84,-139.94 2236.79,-147.66 2274,-109 2289.72,-92.67 2285.74,-66.03 2280.95,-45.96"/>
<polygon fill="black" stroke="black" points="2284.31,-44.99 2278.46,-36.15 2277.52,-46.71 2284.31,-44.99"/>
</g>
<!-- node1&#45;&gt;node0 -->
<g id="edge1" class="edge">
<title>node1&#45;&gt;node0</title>
<path fill="none" stroke="green" stroke-width="2" d="M186.2,-106.8C192.23,-107.62 198.2,-108.37 204,-109 545.38,-146.26 953.2,-157.99 1133.5,-161.54"/>
<polygon fill="green" stroke="green" stroke-width="2" points="1133.67,-165.04 1143.74,-161.74 1133.81,-158.04 1133.67,-165.04"/>
</g>
<!-- node2&#45;&gt;node0 -->
<g id="edge3" class="edge">
<title>node2&#45;&gt;node0</title>
<path fill="none" stroke="green" stroke-width="2" d="M390.21,-106.71C396.24,-107.56 402.2,-108.33 408,-109 670.29,-139.33 981.44,-153.91 1133.73,-159.75"/>
<polygon fill="green" stroke="green" stroke-width="2" points="1133.85,-163.25 1143.97,-160.14 1134.11,-156.26 1133.85,-163.25"/>
</g>
<!-- node3&#45;&gt;node0 -->
<g id="edge5" class="edge">
<title>node3&#45;&gt;node0</title>
<path fill="none" stroke="green" stroke-width="2" d="M594.23,-106.57C600.25,-107.45 606.21,-108.27 612,-109 796.49,-132.32 1012.96,-148.58 1133.67,-156.81"/>
<polygon fill="green" stroke="green" stroke-width="2" points="1133.76,-160.32 1143.97,-157.51 1134.23,-153.34 1133.76,-160.32"/>
</g>
<!-- node4&#45;&gt;node0 -->
<g id="edge7" class="edge">
<title>node4&#45;&gt;node0</title>
<path fill="none" stroke="green" stroke-width="2" d="M818.08,-106.4C824.15,-107.29 830.16,-108.16 836,-109 937.94,-123.62 1054.67,-139.25 1133.9,-149.91"/>
<polygon fill="green" stroke="green" stroke-width="2" points="1133.48,-153.39 1143.86,-151.25 1134.41,-146.45 1133.48,-153.39"/>
</g>
<!-- node5&#45;&gt;node0 -->
<g id="edge9" class="edge">
<title>node5&#45;&gt;node0</title>
<path fill="none" stroke="green" stroke-width="2" d="M1007.19,-109.05C1051.81,-119.45 1107.63,-132.78 1151.89,-143.59"/>
<polygon fill="green" stroke="green" stroke-width="2" points="1151.17,-147.02 1161.72,-145.99 1152.84,-140.22 1151.17,-147.02"/>
</g>
<!-- node6&#45;&gt;node0 -->
<g id="edge11" class="edge">
<title>node6&#45;&gt;node0</title>
<path fill="none" stroke="green" stroke-width="2" d="M1163.69,-109.03C1176.24,-118.07 1190.85,-129.33 1202.94,-139.23"/>
<polygon fill="green" stroke="green" stroke-width="2" points="1200.93,-142.1 1210.85,-145.81 1205.41,-136.72 1200.93,-142.1"/>
</g>
<!-- node7&#45;&gt;node0 -->
<g id="edge13" class="edge">
<title>node7&#45;&gt;node0</title>
<path fill="none" stroke="green" stroke-width="2" d="M1316.36,-109.11C1302.73,-118.55 1284.56,-130.37 1268.12,-140.54"/>
<polygon fill="green" stroke="green" stroke-width="2" points="1265.91,-137.79 1259.21,-145.99 1269.56,-143.76 1265.91,-137.79"/>
</g>
<!-- node8&#45;&gt;node0 -->
<g id="edge15" class="edge">
<title>node8&#45;&gt;node0</title>
<path fill="none" stroke="green" stroke-width="2" d="M1464.61,-109.05C1420.85,-119.5 1363.37,-132.89 1315.89,-143.72"/>
<polygon fill="green" stroke="green" stroke-width="2" points="1314.89,-140.36 1305.91,-145.99 1316.44,-147.19 1314.89,-140.36"/>
</g>
<!-- node8&#45;&gt;node12 -->
<g id="edge24" class="edge">
<title>node8&#45;&gt;node12</title>
<path fill="none" stroke="black" d="M1620.62,-74.27C1623.78,-73.82 1626.92,-73.4 1630,-73 1808.02,-50.18 2014.89,-34.85 2145.85,-26.53"/>
<polygon fill="black" stroke="black" points="2146.17,-30.02 2155.93,-25.89 2145.73,-23.03 2146.17,-30.02"/>
<text text-anchor="middle" x="2138.37" y="-31.77" font-family="Times,serif" font-size="14.00">*0</text>
</g>
<!-- node9&#45;&gt;node0 -->
<g id="edge17" class="edge">
<title>node9&#45;&gt;node0</title>
<path fill="none" stroke="green" stroke-width="2" d="M1638.59,-109.06C1499.69,-127.95 1463.74,-124.6 1325,-146 1323.49,-146.23 1321.97,-146.47 1320.44,-146.72"/>
<polygon fill="green" stroke="green" stroke-width="2" points="1319.51,-143.32 1310.22,-148.41 1320.65,-150.23 1319.51,-143.32"/>
</g>
<!-- node10&#45;&gt;node0 -->
<g id="edge19" class="edge">
<title>node10&#45;&gt;node0</title>
<path fill="none" stroke="green" stroke-width="2" d="M1859.65,-109.04C1623.1,-135.76 1561.25,-115.38 1325,-146 1323.49,-146.2 1321.96,-146.4 1320.43,-146.62"/>
<polygon fill="green" stroke="green" stroke-width="2" points="1319.55,-143.21 1310.18,-148.14 1320.58,-150.13 1319.55,-143.21"/>
</g>
<!-- node11&#45;&gt;node0 -->
<g id="edge21" class="edge">
<title>node11&#45;&gt;node0</title>
<path fill="none" stroke="green" stroke-width="2" d="M2076.28,-108.97C2076.19,-108.98 2076.09,-108.99 2076,-109 1909.79,-126.13 1490.91,-126.17 1325,-146 1323.49,-146.18 1321.96,-146.37 1320.42,-146.57"/>
<polygon fill="green" stroke="green" stroke-width="2" points="1319.57,-143.16 1310.16,-148.03 1320.56,-150.09 1319.57,-143.16"/>
</g>
<!-- node11&#45;&gt;node12 -->
<g id="edge25" class="edge">
<title>node11&#45;&gt;node12</title>
<path fill="none" stroke="red" d="M2199.43,-72.99C2212.83,-63.67 2229.63,-51.97 2244.16,-41.86"/>
<polygon fill="red" stroke="red" points="2246.21,-44.7 2252.41,-36.11 2242.21,-38.95 2246.21,-44.7"/>
</g>
<!-- node12&#45;&gt;node0 -->
<g id="edge23" class="edge">
<title>node12&#45;&gt;node0</title>
<path fill="none" stroke="green" stroke-width="2" d="M2291.19,-36.15C2301.76,-56.42 2310.46,-89.82 2292,-109 2254.72,-147.74 1378.42,-139.91 1325,-146 1323.49,-146.17 1321.96,-146.36 1320.42,-146.55"/>
<polygon fill="green" stroke="green" stroke-width="2" points="1319.58,-143.13 1310.16,-147.97 1320.54,-150.07 1319.58,-143.13"/>
</g>
<!-- c0 -->
<!-- c1 -->
<!-- c0&#45;&gt;c1 -->
<g id="edge27" class="edge">
<title>c0&#45;&gt;c1</title>
<path fill="none" stroke="red" d="M2041.89,-164C2053.11,-164 2111.24,-164 2136.86,-164"/>
<polygon fill="red" stroke="red" points="2137.06,-167.5 2147.06,-164 2137.06,-160.5 2137.06,-167.5"/>
<text text-anchor="middle" x="2094.5" y="-170.8" font-family="Times,serif" font-size="14.00">Control flow</text>
</g>
<!-- c2 -->
<!-- c3 -->
<!-- c2&#45;&gt;c3 -->
<g id="edge28" class="edge">
<title>c2&#45;&gt;c3</title>
<path fill="none" stroke="red" stroke-dasharray="5,2" d="M1835.08,-164C1852.05,-164 1968.21,-164 2006.08,-164"/>
<polygon fill="red" stroke="red" points="2006.17,-167.5 2016.17,-164 2006.17,-160.5 2006.17,-167.5"/>
<text text-anchor="middle" x="1925.5" y="-170.8" font-family="Times,serif" font-size="14.00">Control flow back edge</text>
</g>
<!-- d0 -->
<!-- d1 -->
<!-- d0&#45;&gt;d1 -->
<g id="edge29" class="edge">
<title>d0&#45;&gt;d1</title>
<path fill="none" stroke="black" d="M1723.86,-164C1733.41,-164 1777.31,-164 1798.92,-164"/>
<polygon fill="black" stroke="black" points="1799.15,-167.5 1809.15,-164 1799.15,-160.5 1799.15,-167.5"/>
<text text-anchor="middle" x="1766.5" y="-170.8" font-family="Times,serif" font-size="14.00">Data flow</text>
</g>
<!-- d2 -->
<!-- d3 -->
<!-- d2&#45;&gt;d3 -->
<g id="edge30" class="edge">
<title>d2&#45;&gt;d3</title>
<path fill="none" stroke="black" stroke-dasharray="1,5" d="M1597.81,-164C1608.46,-164 1663.46,-164 1688.08,-164"/>
<polygon fill="black" stroke="black" points="1688.15,-167.5 1698.15,-164 1688.15,-160.5 1688.15,-167.5"/>
<text text-anchor="middle" x="1648" y="-170.8" font-family="Times,serif" font-size="14.00">Declaration</text>
</g>
<!-- d4 -->
<!-- d5 -->
<!-- d4&#45;&gt;d5 -->
<g id="edge31" class="edge">
<title>d4&#45;&gt;d5</title>
<path fill="none" stroke="blue" d="M1455.1,-164C1467.72,-164 1533.88,-164 1561.68,-164"/>
<polygon fill="blue" stroke="blue" points="1561.84,-167.5 1571.84,-164 1561.84,-160.5 1561.84,-167.5"/>
<text text-anchor="middle" x="1513.5" y="-170.8" font-family="Times,serif" font-size="14.00">PHI Data flow</text>
</g>
<!-- d6 -->
<!-- d7 -->
<!-- d6&#45;&gt;d7 -->
<g id="edge32" class="edge">
<title>d6&#45;&gt;d7</title>
<path fill="none" stroke="green" d="M1332.11,-164C1343.15,-164 1394.67,-164 1418.66,-164"/>
<polygon fill="green" stroke="green" points="1418.9,-167.5 1428.9,-164 1418.9,-160.5 1418.9,-167.5"/>
<text text-anchor="middle" x="1380.5" y="-170.8" font-family="Times,serif" font-size="14.00">Dominance</text>
</g>
</g>
</svg>
