<?xml version="1.0" encoding="UTF-8" standalone="no"?>
<!DOCTYPE svg PUBLIC "-//W3C//DTD SVG 1.1//EN"
 "http://www.w3.org/Graphics/SVG/1.1/DTD/svg11.dtd">
<!-- Generated by graphviz version 2.43.0 (0)
 -->
<!-- Title: debugoutput Pages: 1 -->
<svg width="2406pt" height="213pt"
 viewBox="0.00 0.00 2405.50 212.80" xmlns="http://www.w3.org/2000/svg" xmlns:xlink="http://www.w3.org/1999/xlink">
<g id="graph0" class="graph" transform="scale(1 1) rotate(0) translate(4 208.8)">
<title>debugoutput</title>
<polygon fill="white" stroke="transparent" points="-4,4 -4,-208.8 2401.5,-208.8 2401.5,4 -4,4"/>
<g id="clust1" class="cluster">
<title>cluster_000</title>
<polygon fill="none" stroke="black" points="1332.5,-154.2 1332.5,-196.8 2171.5,-196.8 2171.5,-154.2 1332.5,-154.2"/>
<text text-anchor="middle" x="1752" y="-181.6" font-family="Times,serif" font-size="14.00">Legend</text>
</g>
<!-- node0 -->
<g id="node1" class="node">
<title>node0</title>
<polygon fill="lightgrey" stroke="black" points="1322.5,-182 1156.5,-182 1156.5,-146 1322.5,-146 1322.5,-182"/>
<text text-anchor="middle" x="1239.5" y="-160.3" font-family="Times,serif" font-size="14.00">#0 Method Order : 0</text>
</g>
<!-- node1 -->
<g id="node2" class="node">
<title>node1</title>
<polygon fill="lightgrey" stroke="black" points="197,-109 0,-109 0,-73 197,-73 197,-109"/>
<text text-anchor="middle" x="98.5" y="-87.3" font-family="Times,serif" font-size="14.00">#1 arg5 : long Order : 12</text>
</g>
<!-- node0&#45;&gt;node1 -->
<g id="edge2" class="edge">
<title>node0&#45;&gt;node1</title>
<path fill="none" stroke="black" d="M1156.35,-161.72C980.92,-158.32 560.35,-146.65 206.93,-110.09"/>
<polygon fill="black" stroke="black" points="207.07,-106.58 196.76,-109.03 206.34,-113.55 207.07,-106.58"/>
<text text-anchor="middle" x="215.67" y="-98.8" font-family="Times,serif" font-size="14.00">*0</text>
</g>
<!-- node2 -->
<g id="node3" class="node">
<title>node2</title>
<polygon fill="lightgrey" stroke="black" points="412,-109 215,-109 215,-73 412,-73 412,-109"/>
<text text-anchor="middle" x="313.5" y="-87.3" font-family="Times,serif" font-size="14.00">#2 arg9 : int[] Order : 11</text>
</g>
<!-- node0&#45;&gt;node2 -->
<g id="edge4" class="edge">
<title>node0&#45;&gt;node2</title>
<path fill="none" stroke="black" d="M1156.24,-160.19C1008.55,-154.5 691.24,-139.57 422.17,-110.07"/>
<polygon fill="black" stroke="black" points="422.54,-106.59 412.22,-108.97 421.77,-113.55 422.54,-106.59"/>
<text text-anchor="middle" x="431.16" y="-98.86" font-family="Times,serif" font-size="14.00">*0</text>
</g>
<!-- node3 -->
<g id="node4" class="node">
<title>node3</title>
<polygon fill="lightgrey" stroke="black" points="616.5,-109 430.5,-109 430.5,-73 616.5,-73 616.5,-109"/>
<text text-anchor="middle" x="523.5" y="-87.3" font-family="Times,serif" font-size="14.00">#3 arg4 : int Order : 10</text>
</g>
<!-- node0&#45;&gt;node3 -->
<g id="edge6" class="edge">
<title>node0&#45;&gt;node3</title>
<path fill="none" stroke="black" d="M1156.43,-158.13C1038.75,-150.49 816.88,-134.05 626.42,-110.25"/>
<polygon fill="black" stroke="black" points="626.59,-106.74 616.23,-108.97 625.72,-113.69 626.59,-106.74"/>
<text text-anchor="middle" x="635.27" y="-99.15" font-family="Times,serif" font-size="14.00">*0</text>
</g>
<!-- node4 -->
<g id="node5" class="node">
<title>node4</title>
<polygon fill="lightgrey" stroke="black" points="840.5,-109 634.5,-109 634.5,-73 840.5,-73 840.5,-109"/>
<text text-anchor="middle" x="737.5" y="-87.3" font-family="Times,serif" font-size="14.00">#4 arg7 : double Order : 9</text>
</g>
<!-- node0&#45;&gt;node4 -->
<g id="edge8" class="edge">
<title>node0&#45;&gt;node4</title>
<path fill="none" stroke="black" d="M1156.47,-152.74C1078.11,-142.42 957.24,-125.88 850.75,-110.48"/>
<polygon fill="black" stroke="black" points="851.22,-107.02 840.82,-109.05 850.21,-113.94 851.22,-107.02"/>
<text text-anchor="middle" x="859.97" y="-99.58" font-family="Times,serif" font-size="14.00">*0</text>
</g>
<!-- node5 -->
<g id="node6" class="node">
<title>node5</title>
<polygon fill="lightgrey" stroke="black" points="1036,-109 859,-109 859,-73 1036,-73 1036,-109"/>
<text text-anchor="middle" x="947.5" y="-87.3" font-family="Times,serif" font-size="14.00">#5 arg0 : int Order : 7</text>
</g>
<!-- node0&#45;&gt;node5 -->
<g id="edge10" class="edge">
<title>node0&#45;&gt;node5</title>
<path fill="none" stroke="black" d="M1163.7,-145.99C1120.03,-135.64 1065.39,-122.38 1021.95,-111.59"/>
<polygon fill="black" stroke="black" points="1022.56,-108.13 1012.01,-109.11 1020.87,-114.93 1022.56,-108.13"/>
<text text-anchor="middle" x="1031.64" y="-101.59" font-family="Times,serif" font-size="14.00">*0</text>
</g>
<!-- node6 -->
<g id="node7" class="node">
<title>node6</title>
<polygon fill="lightgrey" stroke="black" points="1243,-109 1054,-109 1054,-73 1243,-73 1243,-109"/>
<text text-anchor="middle" x="1148.5" y="-87.3" font-family="Times,serif" font-size="14.00">#6 arg6 : float Order : 6</text>
</g>
<!-- node0&#45;&gt;node6 -->
<g id="edge12" class="edge">
<title>node0&#45;&gt;node6</title>
<path fill="none" stroke="black" d="M1211.84,-145.99C1199.26,-136.93 1184.6,-125.63 1172.48,-115.71"/>
<polygon fill="black" stroke="black" points="1174.49,-112.83 1164.56,-109.11 1170.01,-118.2 1174.49,-112.83"/>
<text text-anchor="middle" x="1183.9" y="-110.52" font-family="Times,serif" font-size="14.00">*0</text>
</g>
<!-- node7 -->
<g id="node8" class="node">
<title>node7</title>
<polygon fill="lightgrey" stroke="black" points="1438,-109 1261,-109 1261,-73 1438,-73 1438,-109"/>
<text text-anchor="middle" x="1349.5" y="-87.3" font-family="Times,serif" font-size="14.00">#7 arg2 : int Order : 5</text>
</g>
<!-- node0&#45;&gt;node7 -->
<g id="edge14" class="edge">
<title>node0&#45;&gt;node7</title>
<path fill="none" stroke="black" d="M1259.99,-145.99C1273.58,-136.58 1291.74,-124.76 1308.19,-114.57"/>
<polygon fill="black" stroke="black" points="1310.41,-117.32 1317.12,-109.11 1306.76,-111.35 1310.41,-117.32"/>
<text text-anchor="middle" x="1306.06" y="-122.08" font-family="Times,serif" font-size="14.00">*0</text>
</g>
<!-- node8 -->
<g id="node9" class="node">
<title>node8</title>
<polygon fill="lightgrey" stroke="black" points="1633,-109 1456,-109 1456,-73 1633,-73 1633,-109"/>
<text text-anchor="middle" x="1544.5" y="-87.3" font-family="Times,serif" font-size="14.00">#8 arg1 : int Order : 4</text>
</g>
<!-- node0&#45;&gt;node8 -->
<g id="edge16" class="edge">
<title>node0&#45;&gt;node8</title>
<path fill="none" stroke="black" d="M1306.7,-145.99C1350.42,-135.56 1407.89,-122.16 1455.41,-111.32"/>
<polygon fill="black" stroke="black" points="1456.41,-114.68 1465.38,-109.05 1454.86,-107.86 1456.41,-114.68"/>
<text text-anchor="middle" x="1449.59" y="-117.62" font-family="Times,serif" font-size="14.00">*0</text>
</g>
<!-- node9 -->
<g id="node10" class="node">
<title>node9</title>
<polygon fill="lightgrey" stroke="black" points="1854,-109 1651,-109 1651,-73 1854,-73 1854,-109"/>
<text text-anchor="middle" x="1752.5" y="-87.3" font-family="Times,serif" font-size="14.00">#9 arg8 : String Order : 3</text>
</g>
<!-- node0&#45;&gt;node9 -->
<g id="edge18" class="edge">
<title>node0&#45;&gt;node9</title>
<path fill="none" stroke="black" d="M1319.91,-145.94C1458.45,-124.59 1494.4,-127.94 1633.5,-109 1635.88,-108.68 1638.29,-108.34 1640.73,-108"/>
<polygon fill="black" stroke="black" points="1641.42,-111.44 1650.82,-106.57 1640.43,-104.51 1641.42,-111.44"/>
<text text-anchor="middle" x="1634.07" y="-113.79" font-family="Times,serif" font-size="14.00">*0</text>
</g>
<!-- node10 -->
<g id="node11" class="node">
<title>node10</title>
<polygon fill="lightgrey" stroke="black" points="2057.5,-109 1871.5,-109 1871.5,-73 2057.5,-73 2057.5,-109"/>
<text text-anchor="middle" x="1964.5" y="-87.3" font-family="Times,serif" font-size="14.00">#10 arg3 : int Order : 2</text>
</g>
<!-- node0&#45;&gt;node10 -->
<g id="edge20" class="edge">
<title>node0&#45;&gt;node10</title>
<path fill="none" stroke="black" d="M1319.85,-145.96C1555.93,-115.38 1617.92,-137.02 1854.5,-109 1856.72,-108.74 1858.97,-108.46 1861.24,-108.17"/>
<polygon fill="black" stroke="black" points="1861.84,-111.62 1871.29,-106.81 1860.91,-104.68 1861.84,-111.62"/>
<text text-anchor="middle" x="1854.45" y="-113.91" font-family="Times,serif" font-size="14.00">*0</text>
</g>
<!-- node11 -->
<g id="node12" class="node">
<title>node11</title>
<polygon fill="lightgrey" stroke="black" points="2273,-109 2076,-109 2076,-73 2273,-73 2273,-109"/>
<text text-anchor="middle" x="2174.5" y="-87.3" font-family="Times,serif" font-size="14.00">#11 LabelNode Order : 1</text>
</g>
<!-- node0&#45;&gt;node11 -->
<g id="edge22" class="edge">
<title>node0&#45;&gt;node11</title>
<path fill="none" stroke="red" d="M1319.98,-145.94C1483.34,-126.44 1894.33,-125.88 2057.5,-109 2060.19,-108.72 2062.92,-108.42 2065.68,-108.1"/>
<polygon fill="red" stroke="red" points="2066.24,-111.56 2075.74,-106.87 2065.39,-104.61 2066.24,-111.56"/>
</g>
<!-- node12 -->
<g id="node13" class="node">
<title>node12</title>
<polygon fill="lightgrey" stroke="black" points="2397.5,-36 2155.5,-36 2155.5,0 2397.5,0 2397.5,-36"/>
<text text-anchor="middle" x="2276.5" y="-14.3" font-family="Times,serif" font-size="14.00">#12 ReturnValue : int Order : 8</text>
</g>
<!-- node0&#45;&gt;node12 -->
<g id="edge26" class="edge">
<title>node0&#45;&gt;node12</title>
<path fill="none" stroke="black" d="M1319.82,-145.96C1375.57,-140.01 2236.8,-147.15 2273.5,-109 2289.22,-92.66 2285.24,-66.02 2280.44,-45.96"/>
<polygon fill="black" stroke="black" points="2283.81,-44.99 2277.96,-36.15 2277.02,-46.7 2283.81,-44.99"/>
</g>
<!-- node1&#45;&gt;node0 -->
<g id="edge1" class="edge">
<title>node1&#45;&gt;node0</title>
<path fill="none" stroke="green" stroke-width="2" d="M197.01,-106.94C202.93,-107.7 208.79,-108.4 214.5,-109 556.9,-145.04 965.75,-157.38 1146.18,-161.31"/>
<polygon fill="green" stroke="green" stroke-width="2" points="1146.35,-164.81 1156.43,-161.53 1146.5,-157.81 1146.35,-164.81"/>
</g>
<!-- node2&#45;&gt;node0 -->
<g id="edge3" class="edge">
<title>node2&#45;&gt;node0</title>
<path fill="none" stroke="green" stroke-width="2" d="M412.27,-106.76C418.44,-107.58 424.56,-108.34 430.5,-109 689.06,-137.83 995.45,-153.02 1146.25,-159.35"/>
<polygon fill="green" stroke="green" stroke-width="2" points="1146.26,-162.85 1156.4,-159.77 1146.55,-155.86 1146.26,-162.85"/>
</g>
<!-- node3&#45;&gt;node0 -->
<g id="edge5" class="edge">
<title>node3&#45;&gt;node0</title>
<path fill="none" stroke="green" stroke-width="2" d="M616.73,-106.57C622.75,-107.44 628.71,-108.26 634.5,-109 815.27,-131.98 1027.22,-148.28 1146.24,-156.62"/>
<polygon fill="green" stroke="green" stroke-width="2" points="1146.19,-160.13 1156.41,-157.33 1146.68,-153.14 1146.19,-160.13"/>
</g>
<!-- node4&#45;&gt;node0 -->
<g id="edge7" class="edge">
<title>node4&#45;&gt;node0</title>
<path fill="none" stroke="green" stroke-width="2" d="M840.58,-106.37C846.65,-107.27 852.66,-108.15 858.5,-109 956.74,-123.26 1069.03,-138.72 1146.17,-149.43"/>
<polygon fill="green" stroke="green" stroke-width="2" points="1145.96,-152.93 1156.34,-150.84 1146.92,-146 1145.96,-152.93"/>
</g>
<!-- node5&#45;&gt;node0 -->
<g id="edge9" class="edge">
<title>node5&#45;&gt;node0</title>
<path fill="none" stroke="green" stroke-width="2" d="M1023.49,-109.05C1067.28,-119.43 1122.03,-132.73 1165.48,-143.52"/>
<polygon fill="green" stroke="green" stroke-width="2" points="1164.87,-146.97 1175.42,-145.99 1166.56,-140.18 1164.87,-146.97"/>
</g>
<!-- node5&#45;&gt;node12 -->
<g id="edge24" class="edge">
<title>node5&#45;&gt;node12</title>
<path fill="none" stroke="black" d="M1036.24,-73.97C1039.02,-73.62 1041.78,-73.3 1044.5,-73 1443.81,-29.44 1919.55,-20.73 2145.22,-19.18"/>
<polygon fill="black" stroke="black" points="2145.47,-22.68 2155.44,-19.11 2145.42,-15.68 2145.47,-22.68"/>
<text text-anchor="middle" x="2137.37" y="-23.98" font-family="Times,serif" font-size="14.00">*0</text>
</g>
<!-- node6&#45;&gt;node0 -->
<g id="edge11" class="edge">
<title>node6&#45;&gt;node0</title>
<path fill="none" stroke="green" stroke-width="2" d="M1176.19,-109.03C1188.74,-118.07 1203.35,-129.33 1215.44,-139.23"/>
<polygon fill="green" stroke="green" stroke-width="2" points="1213.43,-142.1 1223.35,-145.81 1217.91,-136.72 1213.43,-142.1"/>
</g>
<!-- node7&#45;&gt;node0 -->
<g id="edge13" class="edge">
<title>node7&#45;&gt;node0</title>
<path fill="none" stroke="green" stroke-width="2" d="M1328.86,-109.11C1315.23,-118.55 1297.06,-130.37 1280.62,-140.54"/>
<polygon fill="green" stroke="green" stroke-width="2" points="1278.41,-137.79 1271.71,-145.99 1282.06,-143.76 1278.41,-137.79"/>
</g>
<!-- node8&#45;&gt;node0 -->
<g id="edge15" class="edge">
<title>node8&#45;&gt;node0</title>
<path fill="none" stroke="green" stroke-width="2" d="M1477.11,-109.05C1433.35,-119.5 1375.87,-132.89 1328.39,-143.72"/>
<polygon fill="green" stroke="green" stroke-width="2" points="1327.39,-140.36 1318.41,-145.99 1328.94,-147.19 1327.39,-140.36"/>
</g>
<!-- node9&#45;&gt;node0 -->
<g id="edge17" class="edge">
<title>node9&#45;&gt;node0</title>
<path fill="none" stroke="green" stroke-width="2" d="M1651.09,-109.06C1512.19,-127.95 1476.24,-124.6 1337.5,-146 1335.99,-146.23 1334.47,-146.47 1332.94,-146.72"/>
<polygon fill="green" stroke="green" stroke-width="2" points="1332.01,-143.32 1322.72,-148.41 1333.15,-150.23 1332.01,-143.32"/>
</g>
<!-- node10&#45;&gt;node0 -->
<g id="edge19" class="edge">
<title>node10&#45;&gt;node0</title>
<path fill="none" stroke="green" stroke-width="2" d="M1872.15,-109.04C1635.75,-137.02 1573.75,-115.38 1337.5,-146 1335.99,-146.2 1334.46,-146.4 1332.93,-146.62"/>
<polygon fill="green" stroke="green" stroke-width="2" points="1332.05,-143.21 1322.68,-148.14 1333.08,-150.13 1332.05,-143.21"/>
</g>
<!-- node11&#45;&gt;node0 -->
<g id="edge21" class="edge">
<title>node11&#45;&gt;node0</title>
<path fill="none" stroke="green" stroke-width="2" d="M2075.78,-108.97C2075.69,-108.98 2075.59,-108.99 2075.5,-109 1912.17,-125.9 1500.54,-126.44 1337.5,-146 1335.99,-146.18 1334.46,-146.37 1332.92,-146.58"/>
<polygon fill="green" stroke="green" stroke-width="2" points="1332.07,-143.16 1322.66,-148.03 1333.06,-150.09 1332.07,-143.16"/>
</g>
<!-- node11&#45;&gt;node12 -->
<g id="edge25" class="edge">
<title>node11&#45;&gt;node12</title>
<path fill="none" stroke="red" d="M2198.93,-72.99C2212.33,-63.67 2229.13,-51.97 2243.66,-41.86"/>
<polygon fill="red" stroke="red" points="2245.71,-44.7 2251.91,-36.11 2241.71,-38.95 2245.71,-44.7"/>
</g>
<!-- node12&#45;&gt;node0 -->
<g id="edge23" class="edge">
<title>node12&#45;&gt;node0</title>
<path fill="none" stroke="green" stroke-width="2" d="M2290.69,-36.15C2301.25,-56.42 2309.96,-89.81 2291.5,-109 2254.73,-147.22 1390.2,-139.98 1337.5,-146 1335.99,-146.17 1334.46,-146.36 1332.92,-146.55"/>
<polygon fill="green" stroke="green" stroke-width="2" points="1332.08,-143.13 1322.66,-147.97 1333.04,-150.07 1332.08,-143.13"/>
</g>
<!-- c0 -->
<!-- c1 -->
<!-- c0&#45;&gt;c1 -->
<g id="edge27" class="edge">
<title>c0&#45;&gt;c1</title>
<path fill="none" stroke="red" d="M2054.39,-164C2065.61,-164 2123.74,-164 2149.36,-164"/>
<polygon fill="red" stroke="red" points="2149.56,-167.5 2159.56,-164 2149.56,-160.5 2149.56,-167.5"/>
<text text-anchor="middle" x="2107" y="-170.8" font-family="Times,serif" font-size="14.00">Control flow</text>
</g>
<!-- c2 -->
<!-- c3 -->
<!-- c2&#45;&gt;c3 -->
<g id="edge28" class="edge">
<title>c2&#45;&gt;c3</title>
<path fill="none" stroke="red" stroke-dasharray="5,2" d="M1847.58,-164C1864.55,-164 1980.71,-164 2018.58,-164"/>
<polygon fill="red" stroke="red" points="2018.67,-167.5 2028.67,-164 2018.67,-160.5 2018.67,-167.5"/>
<text text-anchor="middle" x="1938" y="-170.8" font-family="Times,serif" font-size="14.00">Control flow back edge</text>
</g>
<!-- d0 -->
<!-- d1 -->
<!-- d0&#45;&gt;d1 -->
<g id="edge29" class="edge">
<title>d0&#45;&gt;d1</title>
<path fill="none" stroke="black" d="M1736.36,-164C1745.91,-164 1789.81,-164 1811.42,-164"/>
<polygon fill="black" stroke="black" points="1811.65,-167.5 1821.65,-164 1811.65,-160.5 1811.65,-167.5"/>
<text text-anchor="middle" x="1779" y="-170.8" font-family="Times,serif" font-size="14.00">Data flow</text>
</g>
<!-- d2 -->
<!-- d3 -->
<!-- d2&#45;&gt;d3 -->
<g id="edge30" class="edge">
<title>d2&#45;&gt;d3</title>
<path fill="none" stroke="black" stroke-dasharray="1,5" d="M1610.31,-164C1620.96,-164 1675.96,-164 1700.58,-164"/>
<polygon fill="black" stroke="black" points="1700.65,-167.5 1710.65,-164 1700.65,-160.5 1700.65,-167.5"/>
<text text-anchor="middle" x="1660.5" y="-170.8" font-family="Times,serif" font-size="14.00">Declaration</text>
</g>
<!-- d4 -->
<!-- d5 -->
<!-- d4&#45;&gt;d5 -->
<g id="edge31" class="edge">
<title>d4&#45;&gt;d5</title>
<path fill="none" stroke="blue" d="M1467.6,-164C1480.22,-164 1546.38,-164 1574.18,-164"/>
<polygon fill="blue" stroke="blue" points="1574.34,-167.5 1584.34,-164 1574.34,-160.5 1574.34,-167.5"/>
<text text-anchor="middle" x="1526" y="-170.8" font-family="Times,serif" font-size="14.00">PHI Data flow</text>
</g>
<!-- d6 -->
<!-- d7 -->
<!-- d6&#45;&gt;d7 -->
<g id="edge32" class="edge">
<title>d6&#45;&gt;d7</title>
<path fill="none" stroke="green" d="M1344.61,-164C1355.65,-164 1407.17,-164 1431.16,-164"/>
<polygon fill="green" stroke="green" points="1431.4,-167.5 1441.4,-164 1431.4,-160.5 1431.4,-167.5"/>
<text text-anchor="middle" x="1393" y="-170.8" font-family="Times,serif" font-size="14.00">Dominance</text>
</g>
</g>
</svg>
