<?xml version="1.0" encoding="UTF-8" standalone="no"?>
<!DOCTYPE svg PUBLIC "-//W3C//DTD SVG 1.1//EN"
 "http://www.w3.org/Graphics/SVG/1.1/DTD/svg11.dtd">
<!-- Generated by graphviz version 2.43.0 (0)
 -->
<!-- Title: debugoutput Pages: 1 -->
<svg width="2308pt" height="213pt"
 viewBox="0.00 0.00 2308.49 212.80" xmlns="http://www.w3.org/2000/svg" xmlns:xlink="http://www.w3.org/1999/xlink">
<g id="graph0" class="graph" transform="scale(1 1) rotate(0) translate(4 208.8)">
<title>debugoutput</title>
<polygon fill="white" stroke="transparent" points="-4,4 -4,-208.8 2304.49,-208.8 2304.49,4 -4,4"/>
<g id="clust1" class="cluster">
<title>cluster_000</title>
<polygon fill="none" stroke="black" points="1237,-154.2 1237,-196.8 2213,-196.8 2213,-154.2 1237,-154.2"/>
<text text-anchor="middle" x="1725" y="-181.6" font-family="Times,serif" font-size="14.00">Legend</text>
</g>
<!-- node0 -->
<g id="node1" class="node">
<title>node0</title>
<polygon fill="lightgrey" stroke="black" points="1227,-182 1061,-182 1061,-146 1227,-146 1227,-182"/>
<text text-anchor="middle" x="1144" y="-160.3" font-family="Times,serif" font-size="14.00">#0 Method Order : 0</text>
</g>
<!-- node1 -->
<g id="node2" class="node">
<title>node1</title>
<polygon fill="lightgrey" stroke="black" points="186,-109 0,-109 0,-73 186,-73 186,-109"/>
<text text-anchor="middle" x="93" y="-87.3" font-family="Times,serif" font-size="14.00">#1 arg3 : int Order : 12</text>
</g>
<!-- node0&#45;&gt;node1 -->
<g id="edge2" class="edge">
<title>node0&#45;&gt;node1</title>
<path fill="none" stroke="black" d="M1060.7,-161.41C895.74,-157.52 516.14,-145.14 196.14,-110.12"/>
<polygon fill="black" stroke="black" points="196.06,-106.59 185.73,-108.97 195.29,-113.55 196.06,-106.59"/>
<text text-anchor="middle" x="204.68" y="-98.86" font-family="Times,serif" font-size="14.00">*0</text>
</g>
<!-- node2 -->
<g id="node3" class="node">
<title>node2</title>
<polygon fill="lightgrey" stroke="black" points="402,-109 204,-109 204,-73 402,-73 402,-109"/>
<text text-anchor="middle" x="303" y="-87.3" font-family="Times,serif" font-size="14.00">#2 arg6 : float Order : 11</text>
</g>
<!-- node0&#45;&gt;node2 -->
<g id="edge4" class="edge">
<title>node0&#45;&gt;node2</title>
<path fill="none" stroke="black" d="M1060.78,-159.39C925.18,-152.78 648.26,-136.92 412.48,-110.2"/>
<polygon fill="black" stroke="black" points="412.68,-106.7 402.35,-109.04 411.89,-113.65 412.68,-106.7"/>
<text text-anchor="middle" x="421.32" y="-99" font-family="Times,serif" font-size="14.00">*0</text>
</g>
<!-- node3 -->
<g id="node4" class="node">
<title>node3</title>
<polygon fill="lightgrey" stroke="black" points="617.5,-109 420.5,-109 420.5,-73 617.5,-73 617.5,-109"/>
<text text-anchor="middle" x="519" y="-87.3" font-family="Times,serif" font-size="14.00">#3 arg9 : int[] Order : 10</text>
</g>
<!-- node0&#45;&gt;node3 -->
<g id="edge6" class="edge">
<title>node0&#45;&gt;node3</title>
<path fill="none" stroke="black" d="M1060.89,-156.28C959.09,-147.34 781.41,-130.32 627.56,-110.38"/>
<polygon fill="black" stroke="black" points="627.83,-106.88 617.46,-109.06 626.92,-113.82 627.83,-106.88"/>
<text text-anchor="middle" x="636.53" y="-99.32" font-family="Times,serif" font-size="14.00">*0</text>
</g>
<!-- node4 -->
<g id="node5" class="node">
<title>node4</title>
<polygon fill="lightgrey" stroke="black" points="812.5,-109 635.5,-109 635.5,-73 812.5,-73 812.5,-109"/>
<text text-anchor="middle" x="724" y="-87.3" font-family="Times,serif" font-size="14.00">#4 arg1 : int Order : 9</text>
</g>
<!-- node0&#45;&gt;node4 -->
<g id="edge8" class="edge">
<title>node0&#45;&gt;node4</title>
<path fill="none" stroke="black" d="M1060.69,-150.35C996.22,-139.91 904.59,-124.6 822.68,-110.65"/>
<polygon fill="black" stroke="black" points="823.19,-107.19 812.74,-108.96 822.01,-114.09 823.19,-107.19"/>
<text text-anchor="middle" x="832.03" y="-99.97" font-family="Times,serif" font-size="14.00">*0</text>
</g>
<!-- node5 -->
<g id="node6" class="node">
<title>node5</title>
<polygon fill="lightgrey" stroke="black" points="1037,-109 831,-109 831,-73 1037,-73 1037,-109"/>
<text text-anchor="middle" x="934" y="-87.3" font-family="Times,serif" font-size="14.00">#5 arg7 : double Order : 8</text>
</g>
<!-- node0&#45;&gt;node5 -->
<g id="edge10" class="edge">
<title>node0&#45;&gt;node5</title>
<path fill="none" stroke="black" d="M1087.84,-145.99C1056.99,-135.92 1018.96,-123.1 988.39,-112.48"/>
<polygon fill="black" stroke="black" points="989.34,-109.1 978.75,-109.11 987.04,-115.71 989.34,-109.1"/>
<text text-anchor="middle" x="998.65" y="-103.41" font-family="Times,serif" font-size="14.00">*0</text>
</g>
<!-- node6 -->
<g id="node7" class="node">
<title>node6</title>
<polygon fill="lightgrey" stroke="black" points="1232.5,-109 1055.5,-109 1055.5,-73 1232.5,-73 1232.5,-109"/>
<text text-anchor="middle" x="1144" y="-87.3" font-family="Times,serif" font-size="14.00">#6 arg0 : int Order : 6</text>
</g>
<!-- node0&#45;&gt;node6 -->
<g id="edge12" class="edge">
<title>node0&#45;&gt;node6</title>
<path fill="none" stroke="black" d="M1138.12,-145.81C1137.28,-137.79 1137.05,-128.05 1137.42,-119.07"/>
<polygon fill="black" stroke="black" points="1140.92,-119.25 1138.14,-109.03 1133.94,-118.75 1140.92,-119.25"/>
<text text-anchor="middle" x="1145.28" y="-124.01" font-family="Times,serif" font-size="14.00">*0</text>
</g>
<!-- node7 -->
<g id="node8" class="node">
<title>node7</title>
<polygon fill="lightgrey" stroke="black" points="1439,-109 1251,-109 1251,-73 1439,-73 1439,-109"/>
<text text-anchor="middle" x="1345" y="-87.3" font-family="Times,serif" font-size="14.00">#7 arg5 : long Order : 5</text>
</g>
<!-- node0&#45;&gt;node7 -->
<g id="edge14" class="edge">
<title>node0&#45;&gt;node7</title>
<path fill="none" stroke="black" d="M1186.29,-145.99C1213.72,-135.92 1249.92,-123.1 1280.84,-112.48"/>
<polygon fill="black" stroke="black" points="1282.35,-115.66 1290.68,-109.11 1280.09,-109.04 1282.35,-115.66"/>
<text text-anchor="middle" x="1276.27" y="-119.28" font-family="Times,serif" font-size="14.00">*0</text>
</g>
<!-- node8 -->
<g id="node9" class="node">
<title>node8</title>
<polygon fill="lightgrey" stroke="black" points="1634.5,-109 1457.5,-109 1457.5,-73 1634.5,-73 1634.5,-109"/>
<text text-anchor="middle" x="1546" y="-87.3" font-family="Times,serif" font-size="14.00">#8 arg4 : int Order : 4</text>
</g>
<!-- node0&#45;&gt;node8 -->
<g id="edge16" class="edge">
<title>node0&#45;&gt;node8</title>
<path fill="none" stroke="black" d="M1224.28,-145.95C1319.45,-128.68 1343.55,-125.49 1439,-109 1441.7,-108.53 1444.44,-108.06 1447.21,-107.58"/>
<polygon fill="black" stroke="black" points="1448.07,-110.98 1457.33,-105.83 1446.88,-104.09 1448.07,-110.98"/>
<text text-anchor="middle" x="1440.91" y="-113.55" font-family="Times,serif" font-size="14.00">*0</text>
</g>
<!-- node9 -->
<g id="node10" class="node">
<title>node9</title>
<polygon fill="lightgrey" stroke="black" points="1855.5,-109 1652.5,-109 1652.5,-73 1855.5,-73 1855.5,-109"/>
<text text-anchor="middle" x="1754" y="-87.3" font-family="Times,serif" font-size="14.00">#9 arg8 : String Order : 3</text>
</g>
<!-- node0&#45;&gt;node9 -->
<g id="edge18" class="edge">
<title>node0&#45;&gt;node9</title>
<path fill="none" stroke="black" d="M1224.27,-145.96C1405.68,-120.55 1453.04,-131.23 1635,-109 1637.39,-108.71 1639.8,-108.4 1642.24,-108.09"/>
<polygon fill="black" stroke="black" points="1642.89,-111.54 1652.35,-106.75 1641.97,-104.6 1642.89,-111.54"/>
<text text-anchor="middle" x="1635.49" y="-113.81" font-family="Times,serif" font-size="14.00">*0</text>
</g>
<!-- node10 -->
<g id="node11" class="node">
<title>node10</title>
<polygon fill="lightgrey" stroke="black" points="2059,-109 1873,-109 1873,-73 2059,-73 2059,-109"/>
<text text-anchor="middle" x="1966" y="-87.3" font-family="Times,serif" font-size="14.00">#10 arg2 : int Order : 2</text>
</g>
<!-- node0&#45;&gt;node10 -->
<g id="edge20" class="edge">
<title>node0&#45;&gt;node10</title>
<path fill="none" stroke="black" d="M1224.41,-145.95C1503.29,-111.34 1576.55,-140.6 1856,-109 1858.23,-108.75 1860.48,-108.48 1862.75,-108.2"/>
<polygon fill="black" stroke="black" points="1863.34,-111.65 1872.79,-106.88 1862.42,-104.71 1863.34,-111.65"/>
<text text-anchor="middle" x="1855.92" y="-113.92" font-family="Times,serif" font-size="14.00">*0</text>
</g>
<!-- node11 -->
<g id="node12" class="node">
<title>node11</title>
<polygon fill="lightgrey" stroke="black" points="2274.5,-109 2077.5,-109 2077.5,-73 2274.5,-73 2274.5,-109"/>
<text text-anchor="middle" x="2176" y="-87.3" font-family="Times,serif" font-size="14.00">#11 LabelNode Order : 1</text>
</g>
<!-- node0&#45;&gt;node11 -->
<g id="edge22" class="edge">
<title>node0&#45;&gt;node11</title>
<path fill="none" stroke="red" d="M1224.27,-145.97C1408.93,-124.41 1874.28,-127.57 2059,-109 2061.7,-108.73 2064.43,-108.44 2067.18,-108.12"/>
<polygon fill="red" stroke="red" points="2067.73,-111.58 2077.25,-106.91 2066.9,-104.63 2067.73,-111.58"/>
</g>
<!-- node12 -->
<g id="node13" class="node">
<title>node12</title>
<polygon fill="lightgrey" stroke="black" points="2297,-36 2055,-36 2055,0 2297,0 2297,-36"/>
<text text-anchor="middle" x="2176" y="-14.3" font-family="Times,serif" font-size="14.00">#12 ReturnValue : int Order : 7</text>
</g>
<!-- node0&#45;&gt;node12 -->
<g id="edge26" class="edge">
<title>node0&#45;&gt;node12</title>
<path fill="none" stroke="green" d="M1224.35,-145.96C1285.78,-139.52 2234.5,-150.95 2275,-109 2286.11,-97.49 2283.41,-86.61 2275,-73 2266.33,-58.97 2252.79,-48.46 2238.45,-40.64"/>
<polygon fill="green" stroke="green" points="2239.96,-37.48 2229.46,-36.11 2236.81,-43.73 2239.96,-37.48"/>
</g>
<!-- node1&#45;&gt;node0 -->
<g id="edge1" class="edge">
<title>node1&#45;&gt;node0</title>
<path fill="none" stroke="fuchsia" stroke-width="2" d="M186.21,-106.77C192.23,-107.6 198.2,-108.35 204,-109 513.19,-143.46 881.65,-156.45 1050.81,-160.91"/>
<polygon fill="fuchsia" stroke="fuchsia" stroke-width="2" points="1050.84,-164.41 1060.93,-161.17 1051.02,-157.41 1050.84,-164.41"/>
</g>
<!-- node2&#45;&gt;node0 -->
<g id="edge3" class="edge">
<title>node2&#45;&gt;node0</title>
<path fill="none" stroke="fuchsia" stroke-width="2" d="M402.07,-106.75C408.14,-107.57 414.15,-108.33 420,-109 646,-135.07 912.73,-151.02 1050.81,-158.3"/>
<polygon fill="fuchsia" stroke="fuchsia" stroke-width="2" points="1050.76,-161.8 1060.93,-158.83 1051.13,-154.81 1050.76,-161.8"/>
</g>
<!-- node3&#45;&gt;node0 -->
<g id="edge5" class="edge">
<title>node3&#45;&gt;node0</title>
<path fill="none" stroke="fuchsia" stroke-width="2" d="M617.55,-106.59C623.46,-107.44 629.31,-108.25 635,-109 780.1,-128.08 948.79,-144.62 1050.96,-154.2"/>
<polygon fill="fuchsia" stroke="fuchsia" stroke-width="2" points="1050.66,-157.69 1060.95,-155.14 1051.32,-150.72 1050.66,-157.69"/>
</g>
<!-- node4&#45;&gt;node0 -->
<g id="edge7" class="edge">
<title>node4&#45;&gt;node0</title>
<path fill="none" stroke="fuchsia" stroke-width="2" d="M812.66,-105.86C818.88,-106.93 825.04,-107.98 831,-109 904.97,-121.62 988.54,-135.63 1050.76,-146.21"/>
<polygon fill="fuchsia" stroke="fuchsia" stroke-width="2" points="1050.5,-149.72 1060.95,-147.95 1051.68,-142.82 1050.5,-149.72"/>
</g>
<!-- node5&#45;&gt;node0 -->
<g id="edge9" class="edge">
<title>node5&#45;&gt;node0</title>
<path fill="none" stroke="fuchsia" stroke-width="2" d="M990.49,-109.11C1021.39,-119.2 1059.42,-132.03 1089.94,-142.63"/>
<polygon fill="fuchsia" stroke="fuchsia" stroke-width="2" points="1088.96,-146 1099.56,-145.99 1091.27,-139.39 1088.96,-146"/>
</g>
<!-- node6&#45;&gt;node0 -->
<g id="edge11" class="edge">
<title>node6&#45;&gt;node0</title>
<path fill="none" stroke="fuchsia" stroke-width="2" d="M1149.86,-109.03C1150.71,-117.03 1150.95,-126.77 1150.59,-135.75"/>
<polygon fill="fuchsia" stroke="fuchsia" stroke-width="2" points="1147.09,-135.59 1149.88,-145.81 1154.07,-136.08 1147.09,-135.59"/>
</g>
<!-- node6&#45;&gt;node12 -->
<g id="edge24" class="edge">
<title>node6&#45;&gt;node12</title>
<path fill="none" stroke="black" d="M1232.61,-74.16C1235.77,-73.75 1238.91,-73.36 1242,-73 1527.05,-40.14 1863.47,-26.92 2044.61,-21.88"/>
<polygon fill="black" stroke="black" points="2044.82,-25.37 2054.72,-21.6 2044.62,-18.38 2044.82,-25.37"/>
<text text-anchor="middle" x="2036.83" y="-26.85" font-family="Times,serif" font-size="14.00">*0</text>
</g>
<!-- node7&#45;&gt;node0 -->
<g id="edge13" class="edge">
<title>node7&#45;&gt;node0</title>
<path fill="none" stroke="fuchsia" stroke-width="2" d="M1302.42,-109.11C1274.92,-119.2 1238.72,-132.03 1207.83,-142.63"/>
<polygon fill="fuchsia" stroke="fuchsia" stroke-width="2" points="1206.33,-139.45 1198,-145.99 1208.6,-146.07 1206.33,-139.45"/>
</g>
<!-- node8&#45;&gt;node0 -->
<g id="edge15" class="edge">
<title>node8&#45;&gt;node0</title>
<path fill="none" stroke="fuchsia" stroke-width="2" d="M1457.26,-108.96C1457.17,-108.97 1457.09,-108.99 1457,-109 1361.46,-125.51 1337.4,-128.68 1242,-146 1240.5,-146.27 1238.99,-146.55 1237.46,-146.83"/>
<polygon fill="fuchsia" stroke="fuchsia" stroke-width="2" points="1236.47,-143.45 1227.27,-148.71 1237.73,-150.34 1236.47,-143.45"/>
</g>
<!-- node9&#45;&gt;node0 -->
<g id="edge17" class="edge">
<title>node9&#45;&gt;node0</title>
<path fill="none" stroke="fuchsia" stroke-width="2" d="M1652.73,-109.03C1470.9,-131.23 1423.54,-120.55 1242,-146 1240.49,-146.21 1238.97,-146.43 1237.44,-146.66"/>
<polygon fill="fuchsia" stroke="fuchsia" stroke-width="2" points="1236.53,-143.26 1227.19,-148.26 1237.61,-150.17 1236.53,-143.26"/>
</g>
<!-- node10&#45;&gt;node0 -->
<g id="edge19" class="edge">
<title>node10&#45;&gt;node0</title>
<path fill="none" stroke="fuchsia" stroke-width="2" d="M1873.59,-109.05C1594.34,-140.59 1521.09,-111.33 1242,-146 1240.49,-146.19 1238.96,-146.39 1237.43,-146.59"/>
<polygon fill="fuchsia" stroke="fuchsia" stroke-width="2" points="1236.56,-143.18 1227.17,-148.08 1237.57,-150.11 1236.56,-143.18"/>
</g>
<!-- node11&#45;&gt;node0 -->
<g id="edge21" class="edge">
<title>node11&#45;&gt;node0</title>
<path fill="none" stroke="fuchsia" stroke-width="2" d="M2077.28,-108.97C2077.19,-108.98 2077.09,-108.99 2077,-109 1892.19,-127.58 1426.48,-124.41 1242,-146 1240.49,-146.18 1238.96,-146.37 1237.42,-146.56"/>
<polygon fill="fuchsia" stroke="fuchsia" stroke-width="2" points="1236.58,-143.15 1227.16,-148 1237.55,-150.08 1236.58,-143.15"/>
</g>
<!-- node11&#45;&gt;node12 -->
<g id="edge25" class="edge">
<title>node11&#45;&gt;node12</title>
<path fill="none" stroke="red" d="M2176,-72.81C2176,-64.79 2176,-55.05 2176,-46.07"/>
<polygon fill="red" stroke="red" points="2179.5,-46.03 2176,-36.03 2172.5,-46.03 2179.5,-46.03"/>
</g>
<!-- node12&#45;&gt;node0 -->
<g id="edge23" class="edge">
<title>node12&#45;&gt;node0</title>
<path fill="none" stroke="fuchsia" stroke-width="2" d="M2246.54,-36.11C2264.96,-44.26 2282.53,-56.06 2293,-73 2301.41,-86.61 2304.11,-97.49 2293,-109 2252.42,-151.03 1300.06,-139.47 1242,-146 1240.49,-146.17 1238.96,-146.35 1237.42,-146.54"/>
<polygon fill="fuchsia" stroke="fuchsia" stroke-width="2" points="1236.59,-143.13 1227.15,-147.95 1237.54,-150.06 1236.59,-143.13"/>
</g>
<!-- c0 -->
<!-- c1 -->
<!-- c0&#45;&gt;c1 -->
<g id="edge27" class="edge">
<title>c0&#45;&gt;c1</title>
<path fill="none" stroke="red" d="M2095.89,-164C2107.11,-164 2165.24,-164 2190.86,-164"/>
<polygon fill="red" stroke="red" points="2191.06,-167.5 2201.06,-164 2191.06,-160.5 2191.06,-167.5"/>
<text text-anchor="middle" x="2148.5" y="-170.8" font-family="Times,serif" font-size="14.00">Control flow</text>
</g>
<!-- c2 -->
<!-- c3 -->
<!-- c2&#45;&gt;c3 -->
<g id="edge28" class="edge">
<title>c2&#45;&gt;c3</title>
<path fill="none" stroke="red" stroke-dasharray="5,2" d="M1889.08,-164C1906.05,-164 2022.21,-164 2060.08,-164"/>
<polygon fill="red" stroke="red" points="2060.17,-167.5 2070.17,-164 2060.17,-160.5 2060.17,-167.5"/>
<text text-anchor="middle" x="1979.5" y="-170.8" font-family="Times,serif" font-size="14.00">Control flow back edge</text>
</g>
<!-- d0 -->
<!-- d1 -->
<!-- d0&#45;&gt;d1 -->
<g id="edge29" class="edge">
<title>d0&#45;&gt;d1</title>
<path fill="none" stroke="black" d="M1777.86,-164C1787.41,-164 1831.31,-164 1852.92,-164"/>
<polygon fill="black" stroke="black" points="1853.15,-167.5 1863.15,-164 1853.15,-160.5 1853.15,-167.5"/>
<text text-anchor="middle" x="1820.5" y="-170.8" font-family="Times,serif" font-size="14.00">Data flow</text>
</g>
<!-- d2 -->
<!-- d3 -->
<!-- d2&#45;&gt;d3 -->
<g id="edge30" class="edge">
<title>d2&#45;&gt;d3</title>
<path fill="none" stroke="black" stroke-dasharray="1,5" d="M1651.81,-164C1662.46,-164 1717.46,-164 1742.08,-164"/>
<polygon fill="black" stroke="black" points="1742.15,-167.5 1752.15,-164 1742.15,-160.5 1742.15,-167.5"/>
<text text-anchor="middle" x="1702" y="-170.8" font-family="Times,serif" font-size="14.00">Declaration</text>
</g>
<!-- d4 -->
<!-- d5 -->
<!-- d4&#45;&gt;d5 -->
<g id="edge31" class="edge">
<title>d4&#45;&gt;d5</title>
<path fill="none" stroke="blue" d="M1509.1,-164C1521.72,-164 1587.88,-164 1615.68,-164"/>
<polygon fill="blue" stroke="blue" points="1615.84,-167.5 1625.84,-164 1615.84,-160.5 1615.84,-167.5"/>
<text text-anchor="middle" x="1567.5" y="-170.8" font-family="Times,serif" font-size="14.00">PHI Data flow</text>
</g>
<!-- d6 -->
<!-- d7 -->
<!-- d6&#45;&gt;d7 -->
<g id="edge32" class="edge">
<title>d6&#45;&gt;d7</title>
<path fill="none" stroke="green" d="M1372,-164C1383.94,-164 1446.3,-164 1472.93,-164"/>
<polygon fill="green" stroke="green" points="1472.95,-167.5 1482.95,-164 1472.95,-160.5 1472.95,-167.5"/>
<text text-anchor="middle" x="1427.5" y="-170.8" font-family="Times,serif" font-size="14.00">Memory flow</text>
</g>
<!-- d8 -->
<!-- d9 -->
<!-- d8&#45;&gt;d9 -->
<g id="edge33" class="edge">
<title>d8&#45;&gt;d9</title>
<path fill="none" stroke="fuchsia" d="M1249.11,-164C1260.15,-164 1311.67,-164 1335.66,-164"/>
<polygon fill="fuchsia" stroke="fuchsia" points="1335.9,-167.5 1345.9,-164 1335.9,-160.5 1335.9,-167.5"/>
<text text-anchor="middle" x="1297.5" y="-170.8" font-family="Times,serif" font-size="14.00">Dominance</text>
</g>
</g>
</svg>
