<?xml version="1.0" encoding="UTF-8" standalone="no"?>
<!DOCTYPE svg PUBLIC "-//W3C//DTD SVG 1.1//EN"
 "http://www.w3.org/Graphics/SVG/1.1/DTD/svg11.dtd">
<!-- Generated by graphviz version 2.43.0 (0)
 -->
<!-- Title: debugoutput Pages: 1 -->
<svg width="2307pt" height="213pt"
 viewBox="0.00 0.00 2307.49 212.80" xmlns="http://www.w3.org/2000/svg" xmlns:xlink="http://www.w3.org/1999/xlink">
<g id="graph0" class="graph" transform="scale(1 1) rotate(0) translate(4 208.8)">
<title>debugoutput</title>
<polygon fill="white" stroke="transparent" points="-4,4 -4,-208.8 2303.49,-208.8 2303.49,4 -4,4"/>
<g id="clust1" class="cluster">
<title>cluster_000</title>
<polygon fill="none" stroke="black" points="1233,-154.2 1233,-196.8 2209,-196.8 2209,-154.2 1233,-154.2"/>
<text text-anchor="middle" x="1721" y="-181.6" font-family="Times,serif" font-size="14.00">Legend</text>
</g>
<!-- node0 -->
<g id="node1" class="node">
<title>node0</title>
<polygon fill="lightgrey" stroke="black" points="1223,-182 1057,-182 1057,-146 1223,-146 1223,-182"/>
<text text-anchor="middle" x="1140" y="-160.3" font-family="Times,serif" font-size="14.00">#0 Method Order : 0</text>
</g>
<!-- node1 -->
<g id="node2" class="node">
<title>node1</title>
<polygon fill="lightgrey" stroke="black" points="198,-109 0,-109 0,-73 198,-73 198,-109"/>
<text text-anchor="middle" x="99" y="-87.3" font-family="Times,serif" font-size="14.00">#1 arg6 : float Order : 12</text>
</g>
<!-- node0&#45;&gt;node1 -->
<g id="edge2" class="edge">
<title>node0&#45;&gt;node1</title>
<path fill="none" stroke="black" d="M1056.79,-161.07C894,-156.59 522.26,-143.21 208.66,-110.13"/>
<polygon fill="black" stroke="black" points="208.78,-106.63 198.46,-109.05 208.04,-113.59 208.78,-106.63"/>
<text text-anchor="middle" x="217.38" y="-98.86" font-family="Times,serif" font-size="14.00">*0</text>
</g>
<!-- node2 -->
<g id="node3" class="node">
<title>node2</title>
<polygon fill="lightgrey" stroke="black" points="413.5,-109 216.5,-109 216.5,-73 413.5,-73 413.5,-109"/>
<text text-anchor="middle" x="315" y="-87.3" font-family="Times,serif" font-size="14.00">#2 arg5 : long Order : 11</text>
</g>
<!-- node0&#45;&gt;node2 -->
<g id="edge4" class="edge">
<title>node0&#45;&gt;node2</title>
<path fill="none" stroke="black" d="M1056.86,-159.22C923.56,-152.43 653.92,-136.41 423.95,-110.15"/>
<polygon fill="black" stroke="black" points="424.05,-106.63 413.72,-108.97 423.25,-113.59 424.05,-106.63"/>
<text text-anchor="middle" x="432.69" y="-98.94" font-family="Times,serif" font-size="14.00">*0</text>
</g>
<!-- node3 -->
<g id="node4" class="node">
<title>node3</title>
<polygon fill="lightgrey" stroke="black" points="618,-109 432,-109 432,-73 618,-73 618,-109"/>
<text text-anchor="middle" x="525" y="-87.3" font-family="Times,serif" font-size="14.00">#3 arg2 : int Order : 10</text>
</g>
<!-- node0&#45;&gt;node3 -->
<g id="edge6" class="edge">
<title>node0&#45;&gt;node3</title>
<path fill="none" stroke="black" d="M1056.57,-156.39C955.35,-147.63 779.58,-130.87 627.44,-110.41"/>
<polygon fill="black" stroke="black" points="627.83,-106.94 617.45,-109.06 626.89,-113.87 627.83,-106.94"/>
<text text-anchor="middle" x="636.55" y="-99.42" font-family="Times,serif" font-size="14.00">*0</text>
</g>
<!-- node4 -->
<g id="node5" class="node">
<title>node4</title>
<polygon fill="lightgrey" stroke="black" points="838.5,-109 635.5,-109 635.5,-73 838.5,-73 838.5,-109"/>
<text text-anchor="middle" x="737" y="-87.3" font-family="Times,serif" font-size="14.00">#4 arg8 : String Order : 9</text>
</g>
<!-- node0&#45;&gt;node4 -->
<g id="edge8" class="edge">
<title>node0&#45;&gt;node4</title>
<path fill="none" stroke="black" d="M1056.84,-149.31C993.34,-138.39 905.61,-122.96 838.06,-110.87"/>
<polygon fill="black" stroke="black" points="838.29,-107.35 827.83,-109.03 837.05,-114.24 838.29,-107.35"/>
<text text-anchor="middle" x="847.16" y="-100.21" font-family="Times,serif" font-size="14.00">*0</text>
</g>
<!-- node5 -->
<g id="node6" class="node">
<title>node5</title>
<polygon fill="lightgrey" stroke="black" points="1033.5,-109 856.5,-109 856.5,-73 1033.5,-73 1033.5,-109"/>
<text text-anchor="middle" x="945" y="-87.3" font-family="Times,serif" font-size="14.00">#5 arg4 : int Order : 8</text>
</g>
<!-- node0&#45;&gt;node5 -->
<g id="edge10" class="edge">
<title>node0&#45;&gt;node5</title>
<path fill="none" stroke="black" d="M1087.43,-145.99C1058.96,-136.01 1024,-123.32 995.8,-112.76"/>
<polygon fill="black" stroke="black" points="996.72,-109.36 986.13,-109.11 994.26,-115.91 996.72,-109.36"/>
<text text-anchor="middle" x="1006.07" y="-103.89" font-family="Times,serif" font-size="14.00">*0</text>
</g>
<!-- node6 -->
<g id="node7" class="node">
<title>node6</title>
<polygon fill="lightgrey" stroke="black" points="1228.5,-109 1051.5,-109 1051.5,-73 1228.5,-73 1228.5,-109"/>
<text text-anchor="middle" x="1140" y="-87.3" font-family="Times,serif" font-size="14.00">#6 arg1 : int Order : 7</text>
</g>
<!-- node0&#45;&gt;node6 -->
<g id="edge12" class="edge">
<title>node0&#45;&gt;node6</title>
<path fill="none" stroke="black" d="M1134.12,-145.81C1133.28,-137.79 1133.05,-128.05 1133.42,-119.07"/>
<polygon fill="black" stroke="black" points="1136.92,-119.25 1134.14,-109.03 1129.94,-118.75 1136.92,-119.25"/>
<text text-anchor="middle" x="1141.28" y="-124.01" font-family="Times,serif" font-size="14.00">*0</text>
</g>
<!-- node7 -->
<g id="node8" class="node">
<title>node7</title>
<polygon fill="lightgrey" stroke="black" points="1423.5,-109 1246.5,-109 1246.5,-73 1423.5,-73 1423.5,-109"/>
<text text-anchor="middle" x="1335" y="-87.3" font-family="Times,serif" font-size="14.00">#7 arg3 : int Order : 6</text>
</g>
<!-- node0&#45;&gt;node7 -->
<g id="edge14" class="edge">
<title>node0&#45;&gt;node7</title>
<path fill="none" stroke="black" d="M1180.85,-145.99C1207.43,-135.92 1242.54,-123.1 1272.57,-112.48"/>
<polygon fill="black" stroke="black" points="1273.86,-115.74 1282.13,-109.11 1271.53,-109.13 1273.86,-115.74"/>
<text text-anchor="middle" x="1267.84" y="-119.41" font-family="Times,serif" font-size="14.00">*0</text>
</g>
<!-- node8 -->
<g id="node9" class="node">
<title>node8</title>
<polygon fill="lightgrey" stroke="black" points="1648,-109 1442,-109 1442,-73 1648,-73 1648,-109"/>
<text text-anchor="middle" x="1545" y="-87.3" font-family="Times,serif" font-size="14.00">#8 arg7 : double Order : 5</text>
</g>
<!-- node0&#45;&gt;node8 -->
<g id="edge16" class="edge">
<title>node0&#45;&gt;node8</title>
<path fill="none" stroke="black" d="M1220.41,-145.93C1290.56,-133.24 1369.56,-119.74 1432.1,-109.42"/>
<polygon fill="black" stroke="black" points="1432.69,-112.87 1441.99,-107.79 1431.55,-105.96 1432.69,-112.87"/>
<text text-anchor="middle" x="1425.48" y="-115.38" font-family="Times,serif" font-size="14.00">*0</text>
</g>
<!-- node9 -->
<g id="node10" class="node">
<title>node9</title>
<polygon fill="lightgrey" stroke="black" points="1843.5,-109 1666.5,-109 1666.5,-73 1843.5,-73 1843.5,-109"/>
<text text-anchor="middle" x="1755" y="-87.3" font-family="Times,serif" font-size="14.00">#9 arg0 : int Order : 3</text>
</g>
<!-- node0&#45;&gt;node9 -->
<g id="edge18" class="edge">
<title>node0&#45;&gt;node9</title>
<path fill="none" stroke="black" d="M1220.28,-145.96C1409.18,-119.85 1458.75,-133.55 1648,-109 1650.72,-108.65 1653.47,-108.27 1656.25,-107.88"/>
<polygon fill="black" stroke="black" points="1657.03,-111.31 1666.42,-106.4 1656.02,-104.38 1657.03,-111.31"/>
<text text-anchor="middle" x="1649.71" y="-113.68" font-family="Times,serif" font-size="14.00">*0</text>
</g>
<!-- node10 -->
<g id="node11" class="node">
<title>node10</title>
<polygon fill="lightgrey" stroke="black" points="2058.5,-109 1861.5,-109 1861.5,-73 2058.5,-73 2058.5,-109"/>
<text text-anchor="middle" x="1960" y="-87.3" font-family="Times,serif" font-size="14.00">#10 arg9 : int[] Order : 2</text>
</g>
<!-- node0&#45;&gt;node10 -->
<g id="edge20" class="edge">
<title>node0&#45;&gt;node10</title>
<path fill="none" stroke="black" d="M1220.4,-145.95C1358.52,-128.81 1706.04,-124.01 1844,-109 1846.41,-108.74 1848.84,-108.46 1851.3,-108.17"/>
<polygon fill="black" stroke="black" points="1852,-111.61 1861.49,-106.89 1851.13,-104.66 1852,-111.61"/>
<text text-anchor="middle" x="1844.55" y="-113.83" font-family="Times,serif" font-size="14.00">*0</text>
</g>
<!-- node11 -->
<g id="node12" class="node">
<title>node11</title>
<polygon fill="lightgrey" stroke="black" points="2273.5,-109 2076.5,-109 2076.5,-73 2273.5,-73 2273.5,-109"/>
<text text-anchor="middle" x="2175" y="-87.3" font-family="Times,serif" font-size="14.00">#11 LabelNode Order : 1</text>
</g>
<!-- node0&#45;&gt;node11 -->
<g id="edge22" class="edge">
<title>node0&#45;&gt;node11</title>
<path fill="none" stroke="red" d="M1220.27,-145.97C1405.82,-124.33 1873.41,-127.77 2059,-109 2061.41,-108.76 2063.84,-108.49 2066.3,-108.22"/>
<polygon fill="red" stroke="red" points="2066.99,-111.66 2076.5,-106.99 2066.15,-104.71 2066.99,-111.66"/>
</g>
<!-- node12 -->
<g id="node13" class="node">
<title>node12</title>
<polygon fill="lightgrey" stroke="black" points="2296,-36 2054,-36 2054,0 2296,0 2296,-36"/>
<text text-anchor="middle" x="2175" y="-14.3" font-family="Times,serif" font-size="14.00">#12 ReturnValue : int Order : 4</text>
</g>
<!-- node0&#45;&gt;node12 -->
<g id="edge26" class="edge">
<title>node0&#45;&gt;node12</title>
<path fill="none" stroke="green" d="M1220.35,-145.96C1281.95,-139.5 2233.38,-151.07 2274,-109 2285.11,-97.49 2282.41,-86.61 2274,-73 2265.33,-58.97 2251.79,-48.46 2237.45,-40.64"/>
<polygon fill="green" stroke="green" points="2238.96,-37.48 2228.46,-36.11 2235.81,-43.73 2238.96,-37.48"/>
</g>
<!-- node1&#45;&gt;node0 -->
<g id="edge1" class="edge">
<title>node1&#45;&gt;node0</title>
<path fill="none" stroke="fuchsia" stroke-width="2" d="M198.06,-106.86C204.13,-107.65 210.15,-108.37 216,-109 518.99,-141.54 879.59,-155.4 1046.63,-160.47"/>
<polygon fill="fuchsia" stroke="fuchsia" stroke-width="2" points="1046.76,-163.98 1056.86,-160.78 1046.97,-156.98 1046.76,-163.98"/>
</g>
<!-- node2&#45;&gt;node0 -->
<g id="edge3" class="edge">
<title>node2&#45;&gt;node0</title>
<path fill="none" stroke="fuchsia" stroke-width="2" d="M413.78,-106.7C419.95,-107.53 426.06,-108.31 432,-109 651.79,-134.53 910.97,-150.6 1046.62,-158.06"/>
<polygon fill="fuchsia" stroke="fuchsia" stroke-width="2" points="1046.79,-161.58 1056.97,-158.63 1047.17,-154.59 1046.79,-161.58"/>
</g>
<!-- node3&#45;&gt;node0 -->
<g id="edge5" class="edge">
<title>node3&#45;&gt;node0</title>
<path fill="none" stroke="fuchsia" stroke-width="2" d="M618.24,-106.58C623.92,-107.44 629.54,-108.25 635,-109 778.32,-128.57 944.97,-144.91 1046.48,-154.32"/>
<polygon fill="fuchsia" stroke="fuchsia" stroke-width="2" points="1046.43,-157.83 1056.71,-155.27 1047.07,-150.86 1046.43,-157.83"/>
</g>
<!-- node4&#45;&gt;node0 -->
<g id="edge7" class="edge">
<title>node4&#45;&gt;node0</title>
<path fill="none" stroke="fuchsia" stroke-width="2" d="M838.59,-108.87C902.48,-119.92 984.28,-134.32 1046.56,-145.5"/>
<polygon fill="fuchsia" stroke="fuchsia" stroke-width="2" points="1046.31,-149.01 1056.77,-147.33 1047.55,-142.12 1046.31,-149.01"/>
</g>
<!-- node5&#45;&gt;node0 -->
<g id="edge9" class="edge">
<title>node5&#45;&gt;node0</title>
<path fill="none" stroke="fuchsia" stroke-width="2" d="M997.87,-109.11C1026.39,-119.11 1061.35,-131.81 1089.5,-142.36"/>
<polygon fill="fuchsia" stroke="fuchsia" stroke-width="2" points="1088.56,-145.74 1099.15,-145.99 1091.03,-139.19 1088.56,-145.74"/>
</g>
<!-- node6&#45;&gt;node0 -->
<g id="edge11" class="edge">
<title>node6&#45;&gt;node0</title>
<path fill="none" stroke="fuchsia" stroke-width="2" d="M1145.86,-109.03C1146.71,-117.03 1146.95,-126.77 1146.59,-135.75"/>
<polygon fill="fuchsia" stroke="fuchsia" stroke-width="2" points="1143.09,-135.59 1145.88,-145.81 1150.07,-136.08 1143.09,-135.59"/>
</g>
<!-- node7&#45;&gt;node0 -->
<g id="edge13" class="edge">
<title>node7&#45;&gt;node0</title>
<path fill="none" stroke="fuchsia" stroke-width="2" d="M1293.87,-109.11C1267.22,-119.2 1232.1,-132.03 1202.11,-142.63"/>
<polygon fill="fuchsia" stroke="fuchsia" stroke-width="2" points="1200.84,-139.37 1192.57,-145.99 1203.16,-145.97 1200.84,-139.37"/>
</g>
<!-- node8&#45;&gt;node0 -->
<g id="edge15" class="edge">
<title>node8&#45;&gt;node0</title>
<path fill="none" stroke="fuchsia" stroke-width="2" d="M1450.27,-109.01C1389.57,-119.39 1309.2,-133.12 1238,-146 1236.5,-146.27 1234.99,-146.55 1233.46,-146.82"/>
<polygon fill="fuchsia" stroke="fuchsia" stroke-width="2" points="1232.47,-143.45 1223.26,-148.7 1233.73,-150.33 1232.47,-143.45"/>
</g>
<!-- node9&#45;&gt;node0 -->
<g id="edge17" class="edge">
<title>node9&#45;&gt;node0</title>
<path fill="none" stroke="fuchsia" stroke-width="2" d="M1666.26,-108.97C1666.17,-108.98 1666.09,-108.99 1666,-109 1476.65,-133.56 1427.13,-119.83 1238,-146 1236.49,-146.21 1234.97,-146.43 1233.43,-146.65"/>
<polygon fill="fuchsia" stroke="fuchsia" stroke-width="2" points="1232.54,-143.25 1223.19,-148.24 1233.61,-150.17 1232.54,-143.25"/>
</g>
<!-- node9&#45;&gt;node12 -->
<g id="edge24" class="edge">
<title>node9&#45;&gt;node12</title>
<path fill="none" stroke="black" d="M1843.67,-74.6C1846.82,-74.06 1849.94,-73.52 1853,-73 1922.47,-61.15 2000.41,-48.07 2062.21,-37.76"/>
<polygon fill="black" stroke="black" points="2063.09,-41.16 2072.38,-36.06 2061.94,-34.25 2063.09,-41.16"/>
<text text-anchor="middle" x="2055.89" y="-43.68" font-family="Times,serif" font-size="14.00">*0</text>
</g>
<!-- node10&#45;&gt;node0 -->
<g id="edge19" class="edge">
<title>node10&#45;&gt;node0</title>
<path fill="none" stroke="fuchsia" stroke-width="2" d="M1861.59,-109.04C1723.23,-124.04 1375.71,-128.84 1238,-146 1236.49,-146.19 1234.96,-146.39 1233.43,-146.59"/>
<polygon fill="fuchsia" stroke="fuchsia" stroke-width="2" points="1232.56,-143.18 1223.17,-148.09 1233.57,-150.11 1232.56,-143.18"/>
</g>
<!-- node11&#45;&gt;node0 -->
<g id="edge21" class="edge">
<title>node11&#45;&gt;node0</title>
<path fill="none" stroke="fuchsia" stroke-width="2" d="M2076.73,-109.03C1890.87,-127.78 1423.27,-124.34 1238,-146 1236.49,-146.18 1234.96,-146.36 1233.42,-146.56"/>
<polygon fill="fuchsia" stroke="fuchsia" stroke-width="2" points="1232.58,-143.15 1223.16,-148 1233.55,-150.08 1232.58,-143.15"/>
</g>
<!-- node11&#45;&gt;node12 -->
<g id="edge25" class="edge">
<title>node11&#45;&gt;node12</title>
<path fill="none" stroke="red" d="M2175,-72.81C2175,-64.79 2175,-55.05 2175,-46.07"/>
<polygon fill="red" stroke="red" points="2178.5,-46.03 2175,-36.03 2171.5,-46.03 2178.5,-46.03"/>
</g>
<!-- node12&#45;&gt;node0 -->
<g id="edge23" class="edge">
<title>node12&#45;&gt;node0</title>
<path fill="none" stroke="fuchsia" stroke-width="2" d="M2245.54,-36.11C2263.96,-44.26 2281.53,-56.06 2292,-73 2300.41,-86.61 2303.11,-97.49 2292,-109 2251.3,-151.15 1296.23,-139.46 1238,-146 1236.49,-146.17 1234.96,-146.35 1233.42,-146.54"/>
<polygon fill="fuchsia" stroke="fuchsia" stroke-width="2" points="1232.59,-143.13 1223.15,-147.95 1233.54,-150.06 1232.59,-143.13"/>
</g>
<!-- c0 -->
<!-- c1 -->
<!-- c0&#45;&gt;c1 -->
<g id="edge27" class="edge">
<title>c0&#45;&gt;c1</title>
<path fill="none" stroke="red" d="M2091.89,-164C2103.11,-164 2161.24,-164 2186.86,-164"/>
<polygon fill="red" stroke="red" points="2187.06,-167.5 2197.06,-164 2187.06,-160.5 2187.06,-167.5"/>
<text text-anchor="middle" x="2144.5" y="-170.8" font-family="Times,serif" font-size="14.00">Control flow</text>
</g>
<!-- c2 -->
<!-- c3 -->
<!-- c2&#45;&gt;c3 -->
<g id="edge28" class="edge">
<title>c2&#45;&gt;c3</title>
<path fill="none" stroke="red" stroke-dasharray="5,2" d="M1885.08,-164C1902.05,-164 2018.21,-164 2056.08,-164"/>
<polygon fill="red" stroke="red" points="2056.17,-167.5 2066.17,-164 2056.17,-160.5 2056.17,-167.5"/>
<text text-anchor="middle" x="1975.5" y="-170.8" font-family="Times,serif" font-size="14.00">Control flow back edge</text>
</g>
<!-- d0 -->
<!-- d1 -->
<!-- d0&#45;&gt;d1 -->
<g id="edge29" class="edge">
<title>d0&#45;&gt;d1</title>
<path fill="none" stroke="black" d="M1773.86,-164C1783.41,-164 1827.31,-164 1848.92,-164"/>
<polygon fill="black" stroke="black" points="1849.15,-167.5 1859.15,-164 1849.15,-160.5 1849.15,-167.5"/>
<text text-anchor="middle" x="1816.5" y="-170.8" font-family="Times,serif" font-size="14.00">Data flow</text>
</g>
<!-- d2 -->
<!-- d3 -->
<!-- d2&#45;&gt;d3 -->
<g id="edge30" class="edge">
<title>d2&#45;&gt;d3</title>
<path fill="none" stroke="black" stroke-dasharray="1,5" d="M1647.81,-164C1658.46,-164 1713.46,-164 1738.08,-164"/>
<polygon fill="black" stroke="black" points="1738.15,-167.5 1748.15,-164 1738.15,-160.5 1738.15,-167.5"/>
<text text-anchor="middle" x="1698" y="-170.8" font-family="Times,serif" font-size="14.00">Declaration</text>
</g>
<!-- d4 -->
<!-- d5 -->
<!-- d4&#45;&gt;d5 -->
<g id="edge31" class="edge">
<title>d4&#45;&gt;d5</title>
<path fill="none" stroke="blue" d="M1505.1,-164C1517.72,-164 1583.88,-164 1611.68,-164"/>
<polygon fill="blue" stroke="blue" points="1611.84,-167.5 1621.84,-164 1611.84,-160.5 1611.84,-167.5"/>
<text text-anchor="middle" x="1563.5" y="-170.8" font-family="Times,serif" font-size="14.00">PHI Data flow</text>
</g>
<!-- d6 -->
<!-- d7 -->
<!-- d6&#45;&gt;d7 -->
<g id="edge32" class="edge">
<title>d6&#45;&gt;d7</title>
<path fill="none" stroke="green" d="M1368,-164C1379.94,-164 1442.3,-164 1468.93,-164"/>
<polygon fill="green" stroke="green" points="1468.95,-167.5 1478.95,-164 1468.95,-160.5 1468.95,-167.5"/>
<text text-anchor="middle" x="1423.5" y="-170.8" font-family="Times,serif" font-size="14.00">Memory flow</text>
</g>
<!-- d8 -->
<!-- d9 -->
<!-- d8&#45;&gt;d9 -->
<g id="edge33" class="edge">
<title>d8&#45;&gt;d9</title>
<path fill="none" stroke="fuchsia" d="M1245.11,-164C1256.15,-164 1307.67,-164 1331.66,-164"/>
<polygon fill="fuchsia" stroke="fuchsia" points="1331.9,-167.5 1341.9,-164 1331.9,-160.5 1331.9,-167.5"/>
<text text-anchor="middle" x="1293.5" y="-170.8" font-family="Times,serif" font-size="14.00">Dominance</text>
</g>
</g>
</svg>
