<?xml version="1.0" encoding="UTF-8" standalone="no"?>
<!DOCTYPE svg PUBLIC "-//W3C//DTD SVG 1.1//EN"
 "http://www.w3.org/Graphics/SVG/1.1/DTD/svg11.dtd">
<!-- Generated by graphviz version 2.43.0 (0)
 -->
<!-- Title: debugoutput Pages: 1 -->
<svg width="2307pt" height="213pt"
 viewBox="0.00 0.00 2307.49 212.80" xmlns="http://www.w3.org/2000/svg" xmlns:xlink="http://www.w3.org/1999/xlink">
<g id="graph0" class="graph" transform="scale(1 1) rotate(0) translate(4 208.8)">
<title>debugoutput</title>
<polygon fill="white" stroke="transparent" points="-4,4 -4,-208.8 2303.49,-208.8 2303.49,4 -4,4"/>
<g id="clust1" class="cluster">
<title>cluster_000</title>
<polygon fill="none" stroke="black" points="1238,-154.2 1238,-196.8 2214,-196.8 2214,-154.2 1238,-154.2"/>
<text text-anchor="middle" x="1726" y="-181.6" font-family="Times,serif" font-size="14.00">Legend</text>
</g>
<!-- node0 -->
<g id="node1" class="node">
<title>node0</title>
<polygon fill="lightgrey" stroke="black" points="1228,-182 1062,-182 1062,-146 1228,-146 1228,-182"/>
<text text-anchor="middle" x="1145" y="-160.3" font-family="Times,serif" font-size="14.00">#0 Method Order : 0</text>
</g>
<!-- node1 -->
<g id="node2" class="node">
<title>node1</title>
<polygon fill="lightgrey" stroke="black" points="198,-109 0,-109 0,-73 198,-73 198,-109"/>
<text text-anchor="middle" x="99" y="-87.3" font-family="Times,serif" font-size="14.00">#1 arg6 : float Order : 12</text>
</g>
<!-- node0&#45;&gt;node1 -->
<g id="edge2" class="edge">
<title>node0&#45;&gt;node1</title>
<path fill="none" stroke="black" d="M1061.68,-161.1C898.22,-156.66 524.2,-143.37 208.72,-110.14"/>
<polygon fill="black" stroke="black" points="208.78,-106.63 198.47,-109.05 208.04,-113.59 208.78,-106.63"/>
<text text-anchor="middle" x="217.38" y="-98.86" font-family="Times,serif" font-size="14.00">*0</text>
</g>
<!-- node2 -->
<g id="node3" class="node">
<title>node2</title>
<polygon fill="lightgrey" stroke="black" points="431.5,-109 216.5,-109 216.5,-73 431.5,-73 431.5,-109"/>
<text text-anchor="middle" x="324" y="-87.3" font-family="Times,serif" font-size="14.00">#2 arg7 : double Order : 11</text>
</g>
<!-- node0&#45;&gt;node2 -->
<g id="edge4" class="edge">
<title>node0&#45;&gt;node2</title>
<path fill="none" stroke="black" d="M1061.96,-158.78C930.6,-151.42 666.94,-134.68 441.71,-110.07"/>
<polygon fill="black" stroke="black" points="442.02,-106.58 431.69,-108.97 441.25,-113.54 442.02,-106.58"/>
<text text-anchor="middle" x="450.64" y="-98.85" font-family="Times,serif" font-size="14.00">*0</text>
</g>
<!-- node3 -->
<g id="node4" class="node">
<title>node3</title>
<polygon fill="lightgrey" stroke="black" points="636,-109 450,-109 450,-73 636,-73 636,-109"/>
<text text-anchor="middle" x="543" y="-87.3" font-family="Times,serif" font-size="14.00">#3 arg4 : int Order : 10</text>
</g>
<!-- node0&#45;&gt;node3 -->
<g id="edge6" class="edge">
<title>node0&#45;&gt;node3</title>
<path fill="none" stroke="black" d="M1061.78,-156.13C962.88,-147.23 792.9,-130.46 645.56,-110.45"/>
<polygon fill="black" stroke="black" points="645.82,-106.95 635.44,-109.06 644.87,-113.88 645.82,-106.95"/>
<text text-anchor="middle" x="654.54" y="-99.44" font-family="Times,serif" font-size="14.00">*0</text>
</g>
<!-- node4 -->
<g id="node5" class="node">
<title>node4</title>
<polygon fill="lightgrey" stroke="black" points="830.5,-109 653.5,-109 653.5,-73 830.5,-73 830.5,-109"/>
<text text-anchor="middle" x="742" y="-87.3" font-family="Times,serif" font-size="14.00">#4 arg0 : int Order : 8</text>
</g>
<!-- node0&#45;&gt;node4 -->
<g id="edge8" class="edge">
<title>node0&#45;&gt;node4</title>
<path fill="none" stroke="black" d="M1061.84,-149.31C997.54,-138.25 908.39,-122.58 840.52,-110.41"/>
<polygon fill="black" stroke="black" points="841.13,-106.97 830.67,-108.65 839.89,-113.86 841.13,-106.97"/>
<text text-anchor="middle" x="850" y="-99.83" font-family="Times,serif" font-size="14.00">*0</text>
</g>
<!-- node5 -->
<g id="node6" class="node">
<title>node5</title>
<polygon fill="lightgrey" stroke="black" points="1025.5,-109 848.5,-109 848.5,-73 1025.5,-73 1025.5,-109"/>
<text text-anchor="middle" x="937" y="-87.3" font-family="Times,serif" font-size="14.00">#5 arg3 : int Order : 7</text>
</g>
<!-- node0&#45;&gt;node5 -->
<g id="edge10" class="edge">
<title>node0&#45;&gt;node5</title>
<path fill="none" stroke="black" d="M1089.32,-145.99C1058.75,-135.92 1021.08,-123.1 990.81,-112.48"/>
<polygon fill="black" stroke="black" points="991.86,-109.14 981.27,-109.11 989.53,-115.74 991.86,-109.14"/>
<text text-anchor="middle" x="1001.17" y="-103.47" font-family="Times,serif" font-size="14.00">*0</text>
</g>
<!-- node6 -->
<g id="node7" class="node">
<title>node6</title>
<polygon fill="lightgrey" stroke="black" points="1246.5,-109 1043.5,-109 1043.5,-73 1246.5,-73 1246.5,-109"/>
<text text-anchor="middle" x="1145" y="-87.3" font-family="Times,serif" font-size="14.00">#6 arg8 : String Order : 6</text>
</g>
<!-- node0&#45;&gt;node6 -->
<g id="edge12" class="edge">
<title>node0&#45;&gt;node6</title>
<path fill="none" stroke="black" d="M1139.12,-145.81C1138.28,-137.79 1138.05,-128.05 1138.42,-119.07"/>
<polygon fill="black" stroke="black" points="1141.92,-119.25 1139.14,-109.03 1134.94,-118.75 1141.92,-119.25"/>
<text text-anchor="middle" x="1146.28" y="-124.01" font-family="Times,serif" font-size="14.00">*0</text>
</g>
<!-- node7 -->
<g id="node8" class="node">
<title>node7</title>
<polygon fill="lightgrey" stroke="black" points="1441.5,-109 1264.5,-109 1264.5,-73 1441.5,-73 1441.5,-109"/>
<text text-anchor="middle" x="1353" y="-87.3" font-family="Times,serif" font-size="14.00">#7 arg2 : int Order : 5</text>
</g>
<!-- node0&#45;&gt;node7 -->
<g id="edge14" class="edge">
<title>node0&#45;&gt;node7</title>
<path fill="none" stroke="black" d="M1188.96,-145.99C1217.51,-135.88 1255.17,-122.99 1287.24,-112.34"/>
<polygon fill="black" stroke="black" points="1288.6,-115.58 1296.99,-109.11 1286.4,-108.93 1288.6,-115.58"/>
<text text-anchor="middle" x="1282.44" y="-119.13" font-family="Times,serif" font-size="14.00">*0</text>
</g>
<!-- node8 -->
<g id="node9" class="node">
<title>node8</title>
<polygon fill="lightgrey" stroke="black" points="1636.5,-109 1459.5,-109 1459.5,-73 1636.5,-73 1636.5,-109"/>
<text text-anchor="middle" x="1548" y="-87.3" font-family="Times,serif" font-size="14.00">#8 arg1 : int Order : 4</text>
</g>
<!-- node0&#45;&gt;node8 -->
<g id="edge16" class="edge">
<title>node0&#45;&gt;node8</title>
<path fill="none" stroke="black" d="M1225.28,-145.95C1321.32,-128.59 1345.69,-125.65 1442,-109 1444.47,-108.57 1446.97,-108.14 1449.5,-107.7"/>
<polygon fill="black" stroke="black" points="1450.1,-111.15 1459.36,-105.99 1448.91,-104.25 1450.1,-111.15"/>
<text text-anchor="middle" x="1442.94" y="-113.72" font-family="Times,serif" font-size="14.00">*0</text>
</g>
<!-- node9 -->
<g id="node10" class="node">
<title>node9</title>
<polygon fill="lightgrey" stroke="black" points="1843,-109 1655,-109 1655,-73 1843,-73 1843,-109"/>
<text text-anchor="middle" x="1749" y="-87.3" font-family="Times,serif" font-size="14.00">#9 arg5 : long Order : 3</text>
</g>
<!-- node0&#45;&gt;node9 -->
<g id="edge18" class="edge">
<title>node0&#45;&gt;node9</title>
<path fill="none" stroke="black" d="M1225.27,-145.96C1407.12,-120.51 1454.71,-132.2 1637,-109 1639.56,-108.67 1642.15,-108.33 1644.76,-107.98"/>
<polygon fill="black" stroke="black" points="1645.52,-111.41 1654.94,-106.55 1644.55,-104.47 1645.52,-111.41"/>
<text text-anchor="middle" x="1638.17" y="-113.74" font-family="Times,serif" font-size="14.00">*0</text>
</g>
<!-- node10 -->
<g id="node11" class="node">
<title>node10</title>
<polygon fill="lightgrey" stroke="black" points="2058.5,-109 1861.5,-109 1861.5,-73 2058.5,-73 2058.5,-109"/>
<text text-anchor="middle" x="1960" y="-87.3" font-family="Times,serif" font-size="14.00">#10 arg9 : int[] Order : 2</text>
</g>
<!-- node0&#45;&gt;node10 -->
<g id="edge20" class="edge">
<title>node0&#45;&gt;node10</title>
<path fill="none" stroke="black" d="M1225.4,-145.95C1498.11,-111.92 1569.58,-138.63 1843,-109 1845.69,-108.71 1848.42,-108.4 1851.18,-108.07"/>
<polygon fill="black" stroke="black" points="1851.75,-111.52 1861.23,-106.8 1850.88,-104.58 1851.75,-111.52"/>
<text text-anchor="middle" x="1844.3" y="-113.75" font-family="Times,serif" font-size="14.00">*0</text>
</g>
<!-- node11 -->
<g id="node12" class="node">
<title>node11</title>
<polygon fill="lightgrey" stroke="black" points="2273.5,-109 2076.5,-109 2076.5,-73 2273.5,-73 2273.5,-109"/>
<text text-anchor="middle" x="2175" y="-87.3" font-family="Times,serif" font-size="14.00">#11 LabelNode Order : 1</text>
</g>
<!-- node0&#45;&gt;node11 -->
<g id="edge22" class="edge">
<title>node0&#45;&gt;node11</title>
<path fill="none" stroke="red" d="M1225.27,-145.97C1409.71,-124.43 1874.52,-127.69 2059,-109 2061.41,-108.76 2063.84,-108.49 2066.3,-108.22"/>
<polygon fill="red" stroke="red" points="2066.99,-111.66 2076.5,-106.99 2066.15,-104.71 2066.99,-111.66"/>
</g>
<!-- node12 -->
<g id="node13" class="node">
<title>node12</title>
<polygon fill="lightgrey" stroke="black" points="2296,-36 2054,-36 2054,0 2296,0 2296,-36"/>
<text text-anchor="middle" x="2175" y="-14.3" font-family="Times,serif" font-size="14.00">#12 ReturnValue : int Order : 9</text>
</g>
<!-- node0&#45;&gt;node12 -->
<g id="edge26" class="edge">
<title>node0&#45;&gt;node12</title>
<path fill="none" stroke="green" d="M1225.35,-145.96C1286.66,-139.53 2233.58,-150.87 2274,-109 2285.11,-97.49 2282.41,-86.61 2274,-73 2265.33,-58.97 2251.79,-48.46 2237.45,-40.64"/>
<polygon fill="green" stroke="green" points="2238.96,-37.48 2228.46,-36.11 2235.81,-43.73 2238.96,-37.48"/>
</g>
<!-- node1&#45;&gt;node0 -->
<g id="edge1" class="edge">
<title>node1&#45;&gt;node0</title>
<path fill="none" stroke="fuchsia" stroke-width="2" d="M198.06,-106.86C204.13,-107.65 210.15,-108.37 216,-109 520.97,-141.7 883.98,-155.5 1051.68,-160.52"/>
<polygon fill="fuchsia" stroke="fuchsia" stroke-width="2" points="1051.61,-164.02 1061.71,-160.81 1051.82,-157.02 1051.61,-164.02"/>
</g>
<!-- node2&#45;&gt;node0 -->
<g id="edge3" class="edge">
<title>node2&#45;&gt;node0</title>
<path fill="none" stroke="fuchsia" stroke-width="2" d="M431.55,-106.81C437.8,-107.59 443.98,-108.33 450,-109 664.92,-132.83 917.93,-149.46 1051.54,-157.5"/>
<polygon fill="fuchsia" stroke="fuchsia" stroke-width="2" points="1051.54,-161 1061.73,-158.11 1051.96,-154.02 1051.54,-161"/>
</g>
<!-- node3&#45;&gt;node0 -->
<g id="edge5" class="edge">
<title>node3&#45;&gt;node0</title>
<path fill="none" stroke="fuchsia" stroke-width="2" d="M636.25,-106.57C641.92,-107.43 647.54,-108.25 653,-109 791.66,-128.13 952.71,-144.44 1051.79,-153.98"/>
<polygon fill="fuchsia" stroke="fuchsia" stroke-width="2" points="1051.49,-157.47 1061.78,-154.94 1052.16,-150.5 1051.49,-157.47"/>
</g>
<!-- node4&#45;&gt;node0 -->
<g id="edge7" class="edge">
<title>node4&#45;&gt;node0</title>
<path fill="none" stroke="fuchsia" stroke-width="2" d="M830.8,-106.66C896.3,-117.95 985.17,-133.59 1051.71,-145.52"/>
<polygon fill="fuchsia" stroke="fuchsia" stroke-width="2" points="1051.31,-149.01 1061.77,-147.33 1052.55,-142.12 1051.31,-149.01"/>
</g>
<!-- node4&#45;&gt;node12 -->
<g id="edge24" class="edge">
<title>node4&#45;&gt;node12</title>
<path fill="none" stroke="black" d="M830.74,-73.96C833.52,-73.61 836.28,-73.29 839,-73 1278.72,-25.79 1803.88,-18.94 2043.78,-18.53"/>
<polygon fill="black" stroke="black" points="2043.94,-22.03 2053.94,-18.51 2043.93,-15.03 2043.94,-22.03"/>
<text text-anchor="middle" x="2035.82" y="-23.29" font-family="Times,serif" font-size="14.00">*0</text>
</g>
<!-- node5&#45;&gt;node0 -->
<g id="edge9" class="edge">
<title>node5&#45;&gt;node0</title>
<path fill="none" stroke="fuchsia" stroke-width="2" d="M993.01,-109.11C1023.62,-119.2 1061.29,-132.03 1091.51,-142.63"/>
<polygon fill="fuchsia" stroke="fuchsia" stroke-width="2" points="1090.44,-145.97 1101.04,-145.99 1092.77,-139.37 1090.44,-145.97"/>
</g>
<!-- node6&#45;&gt;node0 -->
<g id="edge11" class="edge">
<title>node6&#45;&gt;node0</title>
<path fill="none" stroke="fuchsia" stroke-width="2" d="M1150.86,-109.03C1151.71,-117.03 1151.95,-126.77 1151.59,-135.75"/>
<polygon fill="fuchsia" stroke="fuchsia" stroke-width="2" points="1148.09,-135.59 1150.88,-145.81 1155.07,-136.08 1148.09,-135.59"/>
</g>
<!-- node7&#45;&gt;node0 -->
<g id="edge13" class="edge">
<title>node7&#45;&gt;node0</title>
<path fill="none" stroke="fuchsia" stroke-width="2" d="M1308.73,-109.11C1280.12,-119.25 1242.45,-132.14 1210.42,-142.77"/>
<polygon fill="fuchsia" stroke="fuchsia" stroke-width="2" points="1209.08,-139.53 1200.68,-145.99 1211.27,-146.18 1209.08,-139.53"/>
</g>
<!-- node8&#45;&gt;node0 -->
<g id="edge15" class="edge">
<title>node8&#45;&gt;node0</title>
<path fill="none" stroke="fuchsia" stroke-width="2" d="M1459.72,-109.05C1363.55,-125.67 1339.18,-128.62 1243,-146 1241.5,-146.27 1239.99,-146.55 1238.46,-146.82"/>
<polygon fill="fuchsia" stroke="fuchsia" stroke-width="2" points="1237.47,-143.45 1228.26,-148.7 1238.73,-150.33 1237.47,-143.45"/>
</g>
<!-- node9&#45;&gt;node0 -->
<g id="edge17" class="edge">
<title>node9&#45;&gt;node0</title>
<path fill="none" stroke="fuchsia" stroke-width="2" d="M1654.73,-109.03C1472.58,-132.2 1424.98,-120.51 1243,-146 1241.49,-146.21 1239.97,-146.43 1238.44,-146.66"/>
<polygon fill="fuchsia" stroke="fuchsia" stroke-width="2" points="1237.53,-143.26 1228.19,-148.25 1238.61,-150.17 1237.53,-143.26"/>
</g>
<!-- node10&#45;&gt;node0 -->
<g id="edge19" class="edge">
<title>node10&#45;&gt;node0</title>
<path fill="none" stroke="fuchsia" stroke-width="2" d="M1861.28,-108.97C1861.19,-108.98 1861.09,-108.99 1861,-109 1587.44,-138.65 1516.04,-111.89 1243,-146 1241.49,-146.19 1239.96,-146.39 1238.43,-146.6"/>
<polygon fill="fuchsia" stroke="fuchsia" stroke-width="2" points="1237.56,-143.18 1228.17,-148.09 1238.57,-150.11 1237.56,-143.18"/>
</g>
<!-- node11&#45;&gt;node0 -->
<g id="edge21" class="edge">
<title>node11&#45;&gt;node0</title>
<path fill="none" stroke="fuchsia" stroke-width="2" d="M2076.73,-109.03C1891.97,-127.69 1427.17,-124.44 1243,-146 1241.49,-146.18 1239.96,-146.37 1238.42,-146.56"/>
<polygon fill="fuchsia" stroke="fuchsia" stroke-width="2" points="1237.58,-143.15 1228.16,-148 1238.55,-150.08 1237.58,-143.15"/>
</g>
<!-- node11&#45;&gt;node12 -->
<g id="edge25" class="edge">
<title>node11&#45;&gt;node12</title>
<path fill="none" stroke="red" d="M2175,-72.81C2175,-64.79 2175,-55.05 2175,-46.07"/>
<polygon fill="red" stroke="red" points="2178.5,-46.03 2175,-36.03 2171.5,-46.03 2178.5,-46.03"/>
</g>
<!-- node12&#45;&gt;node0 -->
<g id="edge23" class="edge">
<title>node12&#45;&gt;node0</title>
<path fill="none" stroke="fuchsia" stroke-width="2" d="M2245.54,-36.11C2263.96,-44.26 2281.53,-56.06 2292,-73 2300.41,-86.61 2303.11,-97.49 2292,-109 2251.5,-150.95 1300.95,-139.48 1243,-146 1241.49,-146.17 1239.96,-146.35 1238.42,-146.54"/>
<polygon fill="fuchsia" stroke="fuchsia" stroke-width="2" points="1237.59,-143.13 1228.15,-147.95 1238.54,-150.06 1237.59,-143.13"/>
</g>
<!-- c0 -->
<!-- c1 -->
<!-- c0&#45;&gt;c1 -->
<g id="edge27" class="edge">
<title>c0&#45;&gt;c1</title>
<path fill="none" stroke="red" d="M2096.89,-164C2108.11,-164 2166.24,-164 2191.86,-164"/>
<polygon fill="red" stroke="red" points="2192.06,-167.5 2202.06,-164 2192.06,-160.5 2192.06,-167.5"/>
<text text-anchor="middle" x="2149.5" y="-170.8" font-family="Times,serif" font-size="14.00">Control flow</text>
</g>
<!-- c2 -->
<!-- c3 -->
<!-- c2&#45;&gt;c3 -->
<g id="edge28" class="edge">
<title>c2&#45;&gt;c3</title>
<path fill="none" stroke="red" stroke-dasharray="5,2" d="M1890.08,-164C1907.05,-164 2023.21,-164 2061.08,-164"/>
<polygon fill="red" stroke="red" points="2061.17,-167.5 2071.17,-164 2061.17,-160.5 2061.17,-167.5"/>
<text text-anchor="middle" x="1980.5" y="-170.8" font-family="Times,serif" font-size="14.00">Control flow back edge</text>
</g>
<!-- d0 -->
<!-- d1 -->
<!-- d0&#45;&gt;d1 -->
<g id="edge29" class="edge">
<title>d0&#45;&gt;d1</title>
<path fill="none" stroke="black" d="M1778.86,-164C1788.41,-164 1832.31,-164 1853.92,-164"/>
<polygon fill="black" stroke="black" points="1854.15,-167.5 1864.15,-164 1854.15,-160.5 1854.15,-167.5"/>
<text text-anchor="middle" x="1821.5" y="-170.8" font-family="Times,serif" font-size="14.00">Data flow</text>
</g>
<!-- d2 -->
<!-- d3 -->
<!-- d2&#45;&gt;d3 -->
<g id="edge30" class="edge">
<title>d2&#45;&gt;d3</title>
<path fill="none" stroke="black" stroke-dasharray="1,5" d="M1652.81,-164C1663.46,-164 1718.46,-164 1743.08,-164"/>
<polygon fill="black" stroke="black" points="1743.15,-167.5 1753.15,-164 1743.15,-160.5 1743.15,-167.5"/>
<text text-anchor="middle" x="1703" y="-170.8" font-family="Times,serif" font-size="14.00">Declaration</text>
</g>
<!-- d4 -->
<!-- d5 -->
<!-- d4&#45;&gt;d5 -->
<g id="edge31" class="edge">
<title>d4&#45;&gt;d5</title>
<path fill="none" stroke="blue" d="M1510.1,-164C1522.72,-164 1588.88,-164 1616.68,-164"/>
<polygon fill="blue" stroke="blue" points="1616.84,-167.5 1626.84,-164 1616.84,-160.5 1616.84,-167.5"/>
<text text-anchor="middle" x="1568.5" y="-170.8" font-family="Times,serif" font-size="14.00">PHI Data flow</text>
</g>
<!-- d6 -->
<!-- d7 -->
<!-- d6&#45;&gt;d7 -->
<g id="edge32" class="edge">
<title>d6&#45;&gt;d7</title>
<path fill="none" stroke="green" d="M1373,-164C1384.94,-164 1447.3,-164 1473.93,-164"/>
<polygon fill="green" stroke="green" points="1473.95,-167.5 1483.95,-164 1473.95,-160.5 1473.95,-167.5"/>
<text text-anchor="middle" x="1428.5" y="-170.8" font-family="Times,serif" font-size="14.00">Memory flow</text>
</g>
<!-- d8 -->
<!-- d9 -->
<!-- d8&#45;&gt;d9 -->
<g id="edge33" class="edge">
<title>d8&#45;&gt;d9</title>
<path fill="none" stroke="fuchsia" d="M1250.11,-164C1261.15,-164 1312.67,-164 1336.66,-164"/>
<polygon fill="fuchsia" stroke="fuchsia" points="1336.9,-167.5 1346.9,-164 1336.9,-160.5 1336.9,-167.5"/>
<text text-anchor="middle" x="1298.5" y="-170.8" font-family="Times,serif" font-size="14.00">Dominance</text>
</g>
</g>
</svg>
