<?xml version="1.0" encoding="UTF-8" standalone="no"?>
<!DOCTYPE svg PUBLIC "-//W3C//DTD SVG 1.1//EN"
 "http://www.w3.org/Graphics/SVG/1.1/DTD/svg11.dtd">
<!-- Generated by graphviz version 2.43.0 (0)
 -->
<!-- Title: debugoutput Pages: 1 -->
<svg width="2300pt" height="213pt"
 viewBox="0.00 0.00 2299.50 212.80" xmlns="http://www.w3.org/2000/svg" xmlns:xlink="http://www.w3.org/1999/xlink">
<g id="graph0" class="graph" transform="scale(1 1) rotate(0) translate(4 208.8)">
<title>debugoutput</title>
<polygon fill="white" stroke="transparent" points="-4,4 -4,-208.8 2295.5,-208.8 2295.5,4 -4,4"/>
<g id="clust1" class="cluster">
<title>cluster_000</title>
<polygon fill="none" stroke="black" points="1204,-154.2 1204,-196.8 2180,-196.8 2180,-154.2 1204,-154.2"/>
<text text-anchor="middle" x="1692" y="-181.6" font-family="Times,serif" font-size="14.00">Legend</text>
</g>
<!-- node0 -->
<g id="node1" class="node">
<title>node0</title>
<polygon fill="lightgrey" stroke="black" points="1194,-182 1028,-182 1028,-146 1194,-146 1194,-182"/>
<text text-anchor="middle" x="1111" y="-160.3" font-family="Times,serif" font-size="14.00">#0 Method Order : 0</text>
</g>
<!-- node1 -->
<g id="node2" class="node">
<title>node1</title>
<polygon fill="lightgrey" stroke="black" points="186,-109 0,-109 0,-73 186,-73 186,-109"/>
<text text-anchor="middle" x="93" y="-87.3" font-family="Times,serif" font-size="14.00">#1 arg0 : int Order : 11</text>
</g>
<!-- node0&#45;&gt;node1 -->
<g id="edge2" class="edge">
<title>node0&#45;&gt;node1</title>
<path fill="none" stroke="black" d="M1027.94,-161.19C867.28,-156.96 503.03,-144.05 195.72,-110.08"/>
<polygon fill="black" stroke="black" points="196.06,-106.6 185.73,-108.97 195.28,-113.56 196.06,-106.6"/>
<text text-anchor="middle" x="204.68" y="-98.88" font-family="Times,serif" font-size="14.00">*0</text>
</g>
<!-- node2 -->
<g id="node3" class="node">
<title>node2</title>
<polygon fill="lightgrey" stroke="black" points="402,-109 204,-109 204,-73 402,-73 402,-109"/>
<text text-anchor="middle" x="303" y="-87.3" font-family="Times,serif" font-size="14.00">#2 arg6 : float Order : 10</text>
</g>
<!-- node0&#45;&gt;node2 -->
<g id="edge4" class="edge">
<title>node0&#45;&gt;node2</title>
<path fill="none" stroke="black" d="M1027.84,-159.02C897.1,-152.06 635.66,-135.9 412.59,-110.23"/>
<polygon fill="black" stroke="black" points="412.67,-106.71 402.33,-109.04 411.86,-113.67 412.67,-106.71"/>
<text text-anchor="middle" x="421.31" y="-99.03" font-family="Times,serif" font-size="14.00">*0</text>
</g>
<!-- node3 -->
<g id="node4" class="node">
<title>node3</title>
<polygon fill="lightgrey" stroke="black" points="608,-109 420,-109 420,-73 608,-73 608,-109"/>
<text text-anchor="middle" x="514" y="-87.3" font-family="Times,serif" font-size="14.00">#3 arg5 : long Order : 9</text>
</g>
<!-- node0&#45;&gt;node3 -->
<g id="edge6" class="edge">
<title>node0&#45;&gt;node3</title>
<path fill="none" stroke="black" d="M1027.99,-155.92C930.32,-146.87 763.28,-130 618.38,-110.41"/>
<polygon fill="black" stroke="black" points="618.81,-106.94 608.43,-109.06 617.87,-113.88 618.81,-106.94"/>
<text text-anchor="middle" x="627.53" y="-99.43" font-family="Times,serif" font-size="14.00">*0</text>
</g>
<!-- node4 -->
<g id="node5" class="node">
<title>node4</title>
<polygon fill="lightgrey" stroke="black" points="803.5,-109 626.5,-109 626.5,-73 803.5,-73 803.5,-109"/>
<text text-anchor="middle" x="715" y="-87.3" font-family="Times,serif" font-size="14.00">#4 arg2 : int Order : 8</text>
</g>
<!-- node0&#45;&gt;node4 -->
<g id="edge8" class="edge">
<title>node0&#45;&gt;node4</title>
<path fill="none" stroke="black" d="M1027.74,-149.06C965.32,-138.13 879.72,-122.81 813.83,-110.8"/>
<polygon fill="black" stroke="black" points="814.31,-107.33 803.84,-108.98 813.05,-114.22 814.31,-107.33"/>
<text text-anchor="middle" x="823.19" y="-100.22" font-family="Times,serif" font-size="14.00">*0</text>
</g>
<!-- node5 -->
<g id="node6" class="node">
<title>node5</title>
<polygon fill="lightgrey" stroke="black" points="998.5,-109 821.5,-109 821.5,-73 998.5,-73 998.5,-109"/>
<text text-anchor="middle" x="910" y="-87.3" font-family="Times,serif" font-size="14.00">#5 arg3 : int Order : 7</text>
</g>
<!-- node0&#45;&gt;node5 -->
<g id="edge10" class="edge">
<title>node0&#45;&gt;node5</title>
<path fill="none" stroke="black" d="M1057,-145.99C1027.55,-135.97 991.33,-123.21 962.17,-112.62"/>
<polygon fill="black" stroke="black" points="963.17,-109.26 952.58,-109.11 960.77,-115.83 963.17,-109.26"/>
<text text-anchor="middle" x="972.5" y="-103.69" font-family="Times,serif" font-size="14.00">*0</text>
</g>
<!-- node6 -->
<g id="node7" class="node">
<title>node6</title>
<polygon fill="lightgrey" stroke="black" points="1205,-109 1017,-109 1017,-73 1205,-73 1205,-109"/>
<text text-anchor="middle" x="1111" y="-87.3" font-family="Times,serif" font-size="14.00">#6 arg9 : int[] Order : 6</text>
</g>
<!-- node0&#45;&gt;node6 -->
<g id="edge12" class="edge">
<title>node0&#45;&gt;node6</title>
<path fill="none" stroke="black" d="M1105.12,-145.81C1104.28,-137.79 1104.05,-128.05 1104.42,-119.07"/>
<polygon fill="black" stroke="black" points="1107.92,-119.25 1105.14,-109.03 1100.94,-118.75 1107.92,-119.25"/>
<text text-anchor="middle" x="1112.28" y="-124.01" font-family="Times,serif" font-size="14.00">*0</text>
</g>
<!-- node7 -->
<g id="node8" class="node">
<title>node7</title>
<polygon fill="lightgrey" stroke="black" points="1400.5,-109 1223.5,-109 1223.5,-73 1400.5,-73 1400.5,-109"/>
<text text-anchor="middle" x="1312" y="-87.3" font-family="Times,serif" font-size="14.00">#7 arg1 : int Order : 5</text>
</g>
<!-- node0&#45;&gt;node7 -->
<g id="edge14" class="edge">
<title>node0&#45;&gt;node7</title>
<path fill="none" stroke="black" d="M1153.29,-145.99C1180.72,-135.92 1216.92,-123.1 1247.84,-112.48"/>
<polygon fill="black" stroke="black" points="1249.35,-115.66 1257.68,-109.11 1247.09,-109.04 1249.35,-115.66"/>
<text text-anchor="middle" x="1243.27" y="-119.28" font-family="Times,serif" font-size="14.00">*0</text>
</g>
<!-- node8 -->
<g id="node9" class="node">
<title>node8</title>
<polygon fill="lightgrey" stroke="black" points="1621.5,-109 1418.5,-109 1418.5,-73 1621.5,-73 1621.5,-109"/>
<text text-anchor="middle" x="1520" y="-87.3" font-family="Times,serif" font-size="14.00">#8 arg8 : String Order : 4</text>
</g>
<!-- node0&#45;&gt;node8 -->
<g id="edge16" class="edge">
<title>node0&#45;&gt;node8</title>
<path fill="none" stroke="black" d="M1191.42,-145.93C1263.36,-132.99 1344.51,-119.31 1408.21,-108.96"/>
<polygon fill="black" stroke="black" points="1408.97,-112.38 1418.28,-107.33 1407.85,-105.47 1408.97,-112.38"/>
<text text-anchor="middle" x="1401.74" y="-114.87" font-family="Times,serif" font-size="14.00">*0</text>
</g>
<!-- node9 -->
<g id="node10" class="node">
<title>node9</title>
<polygon fill="lightgrey" stroke="black" points="1816.5,-109 1639.5,-109 1639.5,-73 1816.5,-73 1816.5,-109"/>
<text text-anchor="middle" x="1728" y="-87.3" font-family="Times,serif" font-size="14.00">#9 arg4 : int Order : 3</text>
</g>
<!-- node0&#45;&gt;node9 -->
<g id="edge18" class="edge">
<title>node0&#45;&gt;node9</title>
<path fill="none" stroke="black" d="M1191.28,-145.96C1381.5,-119.72 1431.44,-133.83 1622,-109 1624.48,-108.68 1627,-108.33 1629.54,-107.98"/>
<polygon fill="black" stroke="black" points="1630.05,-111.44 1639.44,-106.53 1629.04,-104.51 1630.05,-111.44"/>
<text text-anchor="middle" x="1622.73" y="-113.82" font-family="Times,serif" font-size="14.00">*0</text>
</g>
<!-- node10 -->
<g id="node11" class="node">
<title>node10</title>
<polygon fill="lightgrey" stroke="black" points="2049.5,-109 1834.5,-109 1834.5,-73 2049.5,-73 2049.5,-109"/>
<text text-anchor="middle" x="1942" y="-87.3" font-family="Times,serif" font-size="14.00">#10 arg7 : double Order : 2</text>
</g>
<!-- node0&#45;&gt;node10 -->
<g id="edge20" class="edge">
<title>node0&#45;&gt;node10</title>
<path fill="none" stroke="black" d="M1191.41,-145.95C1329.97,-128.77 1678.51,-123.21 1817,-109 1819.39,-108.75 1821.81,-108.5 1824.25,-108.22"/>
<polygon fill="black" stroke="black" points="1824.83,-111.68 1834.36,-107.05 1824.03,-104.73 1824.83,-111.68"/>
<text text-anchor="middle" x="1817.33" y="-113.84" font-family="Times,serif" font-size="14.00">*0</text>
</g>
<!-- node11 -->
<g id="node12" class="node">
<title>node11</title>
<polygon fill="lightgrey" stroke="black" points="2264.5,-109 2067.5,-109 2067.5,-73 2264.5,-73 2264.5,-109"/>
<text text-anchor="middle" x="2166" y="-87.3" font-family="Times,serif" font-size="14.00">#11 LabelNode Order : 1</text>
</g>
<!-- node0&#45;&gt;node11 -->
<g id="edge22" class="edge">
<title>node0&#45;&gt;node11</title>
<path fill="none" stroke="red" d="M1191.28,-145.97C1381.25,-123.91 1859.99,-128.12 2050,-109 2052.41,-108.76 2054.84,-108.5 2057.3,-108.22"/>
<polygon fill="red" stroke="red" points="2057.98,-111.66 2067.5,-107 2057.15,-104.71 2057.98,-111.66"/>
</g>
<!-- node12 -->
<g id="node13" class="node">
<title>node12</title>
<polygon fill="lightgrey" stroke="black" points="2291.5,-36 2040.5,-36 2040.5,0 2291.5,0 2291.5,-36"/>
<text text-anchor="middle" x="2166" y="-14.3" font-family="Times,serif" font-size="14.00">#12 ReturnValue : int Order : 12</text>
</g>
<!-- node0&#45;&gt;node12 -->
<g id="edge26" class="edge">
<title>node0&#45;&gt;node12</title>
<path fill="none" stroke="green" d="M1191.36,-145.96C1254.13,-139.4 2223.6,-151.85 2265,-109 2276.12,-97.49 2273.41,-86.61 2265,-73 2256.33,-58.97 2242.79,-48.46 2228.45,-40.64"/>
<polygon fill="green" stroke="green" points="2229.96,-37.48 2219.46,-36.11 2226.81,-43.73 2229.96,-37.48"/>
</g>
<!-- node1&#45;&gt;node0 -->
<g id="edge1" class="edge">
<title>node1&#45;&gt;node0</title>
<path fill="none" stroke="fuchsia" stroke-width="2" d="M186.21,-106.76C192.23,-107.59 198.2,-108.35 204,-109 500.36,-142.34 853.12,-155.79 1017.79,-160.62"/>
<polygon fill="fuchsia" stroke="fuchsia" stroke-width="2" points="1017.79,-164.12 1027.88,-160.91 1017.99,-157.12 1017.79,-164.12"/>
</g>
<!-- node1&#45;&gt;node12 -->
<g id="edge24" class="edge">
<title>node1&#45;&gt;node12</title>
<path fill="none" stroke="black" d="M186.04,-73.95C189.06,-73.6 192.05,-73.28 195,-73 552.05,-38.52 1645.49,-24.3 2030.3,-20.28"/>
<polygon fill="black" stroke="black" points="2030.4,-23.78 2040.37,-20.18 2030.33,-16.78 2030.4,-23.78"/>
<text text-anchor="middle" x="2022.33" y="-25.12" font-family="Times,serif" font-size="14.00">*0</text>
</g>
<!-- node2&#45;&gt;node0 -->
<g id="edge3" class="edge">
<title>node2&#45;&gt;node0</title>
<path fill="none" stroke="fuchsia" stroke-width="2" d="M402.07,-106.73C408.14,-107.55 414.16,-108.32 420,-109 633.41,-133.99 884.83,-150.17 1017.78,-157.82"/>
<polygon fill="fuchsia" stroke="fuchsia" stroke-width="2" points="1017.75,-161.32 1027.93,-158.4 1018.15,-154.34 1017.75,-161.32"/>
</g>
<!-- node3&#45;&gt;node0 -->
<g id="edge5" class="edge">
<title>node3&#45;&gt;node0</title>
<path fill="none" stroke="fuchsia" stroke-width="2" d="M608.08,-106.42C614.15,-107.33 620.16,-108.2 626,-109 762.01,-127.64 919.79,-143.97 1017.58,-153.66"/>
<polygon fill="fuchsia" stroke="fuchsia" stroke-width="2" points="1017.43,-157.17 1027.73,-154.67 1018.12,-150.2 1017.43,-157.17"/>
</g>
<!-- node4&#45;&gt;node0 -->
<g id="edge7" class="edge">
<title>node4&#45;&gt;node0</title>
<path fill="none" stroke="fuchsia" stroke-width="2" d="M803.78,-106.91C867.45,-118.08 953,-133.4 1017.68,-145.2"/>
<polygon fill="fuchsia" stroke="fuchsia" stroke-width="2" points="1017.4,-148.71 1027.87,-147.07 1018.66,-141.82 1017.4,-148.71"/>
</g>
<!-- node5&#45;&gt;node0 -->
<g id="edge9" class="edge">
<title>node5&#45;&gt;node0</title>
<path fill="none" stroke="fuchsia" stroke-width="2" d="M964.32,-109.11C993.81,-119.16 1030.03,-131.92 1059.14,-142.5"/>
<polygon fill="fuchsia" stroke="fuchsia" stroke-width="2" points="1058.12,-145.85 1068.71,-145.99 1060.52,-139.28 1058.12,-145.85"/>
</g>
<!-- node6&#45;&gt;node0 -->
<g id="edge11" class="edge">
<title>node6&#45;&gt;node0</title>
<path fill="none" stroke="fuchsia" stroke-width="2" d="M1116.86,-109.03C1117.71,-117.03 1117.95,-126.77 1117.59,-135.75"/>
<polygon fill="fuchsia" stroke="fuchsia" stroke-width="2" points="1114.09,-135.59 1116.88,-145.81 1121.07,-136.08 1114.09,-135.59"/>
</g>
<!-- node7&#45;&gt;node0 -->
<g id="edge13" class="edge">
<title>node7&#45;&gt;node0</title>
<path fill="none" stroke="fuchsia" stroke-width="2" d="M1269.42,-109.11C1241.92,-119.2 1205.72,-132.03 1174.83,-142.63"/>
<polygon fill="fuchsia" stroke="fuchsia" stroke-width="2" points="1173.33,-139.45 1165,-145.99 1175.6,-146.07 1173.33,-139.45"/>
</g>
<!-- node8&#45;&gt;node0 -->
<g id="edge15" class="edge">
<title>node8&#45;&gt;node0</title>
<path fill="none" stroke="fuchsia" stroke-width="2" d="M1423.6,-109C1362.17,-119.36 1280.95,-133.06 1209,-146 1207.5,-146.27 1205.99,-146.54 1204.46,-146.82"/>
<polygon fill="fuchsia" stroke="fuchsia" stroke-width="2" points="1203.47,-143.44 1194.26,-148.69 1204.73,-150.33 1203.47,-143.44"/>
</g>
<!-- node9&#45;&gt;node0 -->
<g id="edge17" class="edge">
<title>node9&#45;&gt;node0</title>
<path fill="none" stroke="fuchsia" stroke-width="2" d="M1639.72,-109.04C1449.3,-133.83 1399.36,-119.72 1209,-146 1207.49,-146.21 1205.97,-146.43 1204.43,-146.65"/>
<polygon fill="fuchsia" stroke="fuchsia" stroke-width="2" points="1203.54,-143.25 1194.19,-148.23 1204.61,-150.16 1203.54,-143.25"/>
</g>
<!-- node10&#45;&gt;node0 -->
<g id="edge19" class="edge">
<title>node10&#45;&gt;node0</title>
<path fill="none" stroke="fuchsia" stroke-width="2" d="M1834.59,-109.04C1695.69,-123.24 1347.15,-128.8 1209,-146 1207.49,-146.19 1205.96,-146.39 1204.43,-146.59"/>
<polygon fill="fuchsia" stroke="fuchsia" stroke-width="2" points="1203.56,-143.18 1194.17,-148.08 1204.57,-150.11 1203.56,-143.18"/>
</g>
<!-- node11&#45;&gt;node0 -->
<g id="edge21" class="edge">
<title>node11&#45;&gt;node0</title>
<path fill="none" stroke="fuchsia" stroke-width="2" d="M2067.72,-109.03C1877.43,-128.13 1398.69,-123.92 1209,-146 1207.49,-146.18 1205.96,-146.36 1204.42,-146.56"/>
<polygon fill="fuchsia" stroke="fuchsia" stroke-width="2" points="1203.58,-143.14 1194.16,-147.99 1204.55,-150.08 1203.58,-143.14"/>
</g>
<!-- node11&#45;&gt;node12 -->
<g id="edge25" class="edge">
<title>node11&#45;&gt;node12</title>
<path fill="none" stroke="red" d="M2166,-72.81C2166,-64.79 2166,-55.05 2166,-46.07"/>
<polygon fill="red" stroke="red" points="2169.5,-46.03 2166,-36.03 2162.5,-46.03 2169.5,-46.03"/>
</g>
<!-- node12&#45;&gt;node0 -->
<g id="edge23" class="edge">
<title>node12&#45;&gt;node0</title>
<path fill="none" stroke="fuchsia" stroke-width="2" d="M2236.54,-36.11C2254.96,-44.26 2272.53,-56.06 2283,-73 2291.41,-86.61 2294.12,-97.49 2283,-109 2241.52,-151.94 1268.33,-139.35 1209,-146 1207.49,-146.17 1205.96,-146.35 1204.42,-146.54"/>
<polygon fill="fuchsia" stroke="fuchsia" stroke-width="2" points="1203.59,-143.12 1194.15,-147.95 1204.54,-150.06 1203.59,-143.12"/>
</g>
<!-- c0 -->
<!-- c1 -->
<!-- c0&#45;&gt;c1 -->
<g id="edge27" class="edge">
<title>c0&#45;&gt;c1</title>
<path fill="none" stroke="red" d="M2062.89,-164C2074.11,-164 2132.24,-164 2157.86,-164"/>
<polygon fill="red" stroke="red" points="2158.06,-167.5 2168.06,-164 2158.06,-160.5 2158.06,-167.5"/>
<text text-anchor="middle" x="2115.5" y="-170.8" font-family="Times,serif" font-size="14.00">Control flow</text>
</g>
<!-- c2 -->
<!-- c3 -->
<!-- c2&#45;&gt;c3 -->
<g id="edge28" class="edge">
<title>c2&#45;&gt;c3</title>
<path fill="none" stroke="red" stroke-dasharray="5,2" d="M1856.08,-164C1873.05,-164 1989.21,-164 2027.08,-164"/>
<polygon fill="red" stroke="red" points="2027.17,-167.5 2037.17,-164 2027.17,-160.5 2027.17,-167.5"/>
<text text-anchor="middle" x="1946.5" y="-170.8" font-family="Times,serif" font-size="14.00">Control flow back edge</text>
</g>
<!-- d0 -->
<!-- d1 -->
<!-- d0&#45;&gt;d1 -->
<g id="edge29" class="edge">
<title>d0&#45;&gt;d1</title>
<path fill="none" stroke="black" d="M1744.86,-164C1754.41,-164 1798.31,-164 1819.92,-164"/>
<polygon fill="black" stroke="black" points="1820.15,-167.5 1830.15,-164 1820.15,-160.5 1820.15,-167.5"/>
<text text-anchor="middle" x="1787.5" y="-170.8" font-family="Times,serif" font-size="14.00">Data flow</text>
</g>
<!-- d2 -->
<!-- d3 -->
<!-- d2&#45;&gt;d3 -->
<g id="edge30" class="edge">
<title>d2&#45;&gt;d3</title>
<path fill="none" stroke="black" stroke-dasharray="1,5" d="M1618.81,-164C1629.46,-164 1684.46,-164 1709.08,-164"/>
<polygon fill="black" stroke="black" points="1709.15,-167.5 1719.15,-164 1709.15,-160.5 1709.15,-167.5"/>
<text text-anchor="middle" x="1669" y="-170.8" font-family="Times,serif" font-size="14.00">Declaration</text>
</g>
<!-- d4 -->
<!-- d5 -->
<!-- d4&#45;&gt;d5 -->
<g id="edge31" class="edge">
<title>d4&#45;&gt;d5</title>
<path fill="none" stroke="blue" d="M1476.1,-164C1488.72,-164 1554.88,-164 1582.68,-164"/>
<polygon fill="blue" stroke="blue" points="1582.84,-167.5 1592.84,-164 1582.84,-160.5 1582.84,-167.5"/>
<text text-anchor="middle" x="1534.5" y="-170.8" font-family="Times,serif" font-size="14.00">PHI Data flow</text>
</g>
<!-- d6 -->
<!-- d7 -->
<!-- d6&#45;&gt;d7 -->
<g id="edge32" class="edge">
<title>d6&#45;&gt;d7</title>
<path fill="none" stroke="green" d="M1339,-164C1350.94,-164 1413.3,-164 1439.93,-164"/>
<polygon fill="green" stroke="green" points="1439.95,-167.5 1449.95,-164 1439.95,-160.5 1439.95,-167.5"/>
<text text-anchor="middle" x="1394.5" y="-170.8" font-family="Times,serif" font-size="14.00">Memory flow</text>
</g>
<!-- d8 -->
<!-- d9 -->
<!-- d8&#45;&gt;d9 -->
<g id="edge33" class="edge">
<title>d8&#45;&gt;d9</title>
<path fill="none" stroke="fuchsia" d="M1216.11,-164C1227.15,-164 1278.67,-164 1302.66,-164"/>
<polygon fill="fuchsia" stroke="fuchsia" points="1302.9,-167.5 1312.9,-164 1302.9,-160.5 1302.9,-167.5"/>
<text text-anchor="middle" x="1264.5" y="-170.8" font-family="Times,serif" font-size="14.00">Dominance</text>
</g>
</g>
</svg>
