<?xml version="1.0" encoding="UTF-8" standalone="no"?>
<!DOCTYPE svg PUBLIC "-//W3C//DTD SVG 1.1//EN"
 "http://www.w3.org/Graphics/SVG/1.1/DTD/svg11.dtd">
<!-- Generated by graphviz version 2.43.0 (0)
 -->
<!-- Title: debugoutput Pages: 1 -->
<svg width="2309pt" height="213pt"
 viewBox="0.00 0.00 2308.99 212.80" xmlns="http://www.w3.org/2000/svg" xmlns:xlink="http://www.w3.org/1999/xlink">
<g id="graph0" class="graph" transform="scale(1 1) rotate(0) translate(4 208.8)">
<title>debugoutput</title>
<polygon fill="white" stroke="transparent" points="-4,4 -4,-208.8 2304.99,-208.8 2304.99,4 -4,4"/>
<g id="clust1" class="cluster">
<title>cluster_000</title>
<polygon fill="none" stroke="black" points="1237.5,-154.2 1237.5,-196.8 2213.5,-196.8 2213.5,-154.2 1237.5,-154.2"/>
<text text-anchor="middle" x="1725.5" y="-181.6" font-family="Times,serif" font-size="14.00">Legend</text>
</g>
<!-- node0 -->
<g id="node1" class="node">
<title>node0</title>
<polygon fill="lightgrey" stroke="black" points="1227.5,-182 1061.5,-182 1061.5,-146 1227.5,-146 1227.5,-182"/>
<text text-anchor="middle" x="1144.5" y="-160.3" font-family="Times,serif" font-size="14.00">#0 Method Order : 0</text>
</g>
<!-- node1 -->
<g id="node2" class="node">
<title>node1</title>
<polygon fill="lightgrey" stroke="black" points="197,-109 0,-109 0,-73 197,-73 197,-109"/>
<text text-anchor="middle" x="98.5" y="-87.3" font-family="Times,serif" font-size="14.00">#1 arg5 : long Order : 12</text>
</g>
<!-- node0&#45;&gt;node1 -->
<g id="edge2" class="edge">
<title>node0&#45;&gt;node1</title>
<path fill="none" stroke="black" d="M1061.18,-161.1C897.64,-156.66 523.34,-143.35 207.49,-110.06"/>
<polygon fill="black" stroke="black" points="207.53,-106.55 197.22,-108.97 206.79,-113.51 207.53,-106.55"/>
<text text-anchor="middle" x="216.13" y="-98.78" font-family="Times,serif" font-size="14.00">*0</text>
</g>
<!-- node2 -->
<g id="node3" class="node">
<title>node2</title>
<polygon fill="lightgrey" stroke="black" points="401.5,-109 215.5,-109 215.5,-73 401.5,-73 401.5,-109"/>
<text text-anchor="middle" x="308.5" y="-87.3" font-family="Times,serif" font-size="14.00">#2 arg4 : int Order : 11</text>
</g>
<!-- node0&#45;&gt;node2 -->
<g id="edge4" class="edge">
<title>node0&#45;&gt;node2</title>
<path fill="none" stroke="black" d="M1061.42,-159.63C925.63,-153.38 647.86,-138.01 411.4,-110.18"/>
<polygon fill="black" stroke="black" points="411.58,-106.67 401.23,-108.97 410.75,-113.62 411.58,-106.67"/>
<text text-anchor="middle" x="420.23" y="-99.01" font-family="Times,serif" font-size="14.00">*0</text>
</g>
<!-- node3 -->
<g id="node4" class="node">
<title>node3</title>
<polygon fill="lightgrey" stroke="black" points="605.5,-109 419.5,-109 419.5,-73 605.5,-73 605.5,-109"/>
<text text-anchor="middle" x="512.5" y="-87.3" font-family="Times,serif" font-size="14.00">#3 arg2 : int Order : 10</text>
</g>
<!-- node0&#45;&gt;node3 -->
<g id="edge6" class="edge">
<title>node0&#45;&gt;node3</title>
<path fill="none" stroke="black" d="M1061.41,-156.7C957.4,-148.08 773.87,-131.26 615.17,-110.29"/>
<polygon fill="black" stroke="black" points="615.61,-106.81 605.23,-108.96 614.68,-113.75 615.61,-106.81"/>
<text text-anchor="middle" x="624.32" y="-99.28" font-family="Times,serif" font-size="14.00">*0</text>
</g>
<!-- node4 -->
<g id="node5" class="node">
<title>node4</title>
<polygon fill="lightgrey" stroke="black" points="813,-109 624,-109 624,-73 813,-73 813,-109"/>
<text text-anchor="middle" x="718.5" y="-87.3" font-family="Times,serif" font-size="14.00">#4 arg6 : float Order : 9</text>
</g>
<!-- node0&#45;&gt;node4 -->
<g id="edge8" class="edge">
<title>node0&#45;&gt;node4</title>
<path fill="none" stroke="black" d="M1061.25,-150.02C993.27,-138.95 896.84,-122.92 823.55,-110.51"/>
<polygon fill="black" stroke="black" points="823.82,-107.01 813.37,-108.78 822.65,-113.91 823.82,-107.01"/>
<text text-anchor="middle" x="832.65" y="-99.78" font-family="Times,serif" font-size="14.00">*0</text>
</g>
<!-- node5 -->
<g id="node6" class="node">
<title>node5</title>
<polygon fill="lightgrey" stroke="black" points="1037.5,-109 831.5,-109 831.5,-73 1037.5,-73 1037.5,-109"/>
<text text-anchor="middle" x="934.5" y="-87.3" font-family="Times,serif" font-size="14.00">#5 arg7 : double Order : 8</text>
</g>
<!-- node0&#45;&gt;node5 -->
<g id="edge10" class="edge">
<title>node0&#45;&gt;node5</title>
<path fill="none" stroke="black" d="M1088.34,-145.99C1057.49,-135.92 1019.46,-123.1 988.89,-112.48"/>
<polygon fill="black" stroke="black" points="989.84,-109.1 979.25,-109.11 987.54,-115.71 989.84,-109.1"/>
<text text-anchor="middle" x="999.15" y="-103.41" font-family="Times,serif" font-size="14.00">*0</text>
</g>
<!-- node6 -->
<g id="node7" class="node">
<title>node6</title>
<polygon fill="lightgrey" stroke="black" points="1233,-109 1056,-109 1056,-73 1233,-73 1233,-109"/>
<text text-anchor="middle" x="1144.5" y="-87.3" font-family="Times,serif" font-size="14.00">#6 arg1 : int Order : 7</text>
</g>
<!-- node0&#45;&gt;node6 -->
<g id="edge12" class="edge">
<title>node0&#45;&gt;node6</title>
<path fill="none" stroke="black" d="M1138.62,-145.81C1137.78,-137.79 1137.55,-128.05 1137.92,-119.07"/>
<polygon fill="black" stroke="black" points="1141.42,-119.25 1138.64,-109.03 1134.44,-118.75 1141.42,-119.25"/>
<text text-anchor="middle" x="1145.78" y="-124.01" font-family="Times,serif" font-size="14.00">*0</text>
</g>
<!-- node7 -->
<g id="node8" class="node">
<title>node7</title>
<polygon fill="lightgrey" stroke="black" points="1454,-109 1251,-109 1251,-73 1454,-73 1454,-109"/>
<text text-anchor="middle" x="1352.5" y="-87.3" font-family="Times,serif" font-size="14.00">#7 arg8 : String Order : 6</text>
</g>
<!-- node0&#45;&gt;node7 -->
<g id="edge14" class="edge">
<title>node0&#45;&gt;node7</title>
<path fill="none" stroke="black" d="M1188.46,-145.99C1217.01,-135.88 1254.67,-122.99 1286.74,-112.34"/>
<polygon fill="black" stroke="black" points="1288.1,-115.58 1296.49,-109.11 1285.9,-108.93 1288.1,-115.58"/>
<text text-anchor="middle" x="1281.94" y="-119.13" font-family="Times,serif" font-size="14.00">*0</text>
</g>
<!-- node8 -->
<g id="node9" class="node">
<title>node8</title>
<polygon fill="lightgrey" stroke="black" points="1649,-109 1472,-109 1472,-73 1649,-73 1649,-109"/>
<text text-anchor="middle" x="1560.5" y="-87.3" font-family="Times,serif" font-size="14.00">#8 arg0 : int Order : 4</text>
</g>
<!-- node0&#45;&gt;node8 -->
<g id="edge16" class="edge">
<title>node0&#45;&gt;node8</title>
<path fill="none" stroke="black" d="M1224.8,-145.95C1326.52,-128.06 1352.5,-126.14 1454.5,-109 1456.97,-108.58 1459.48,-108.16 1462.01,-107.73"/>
<polygon fill="black" stroke="black" points="1462.6,-111.18 1471.87,-106.05 1461.42,-104.28 1462.6,-111.18"/>
<text text-anchor="middle" x="1455.42" y="-113.73" font-family="Times,serif" font-size="14.00">*0</text>
</g>
<!-- node9 -->
<g id="node10" class="node">
<title>node9</title>
<polygon fill="lightgrey" stroke="black" points="1855.5,-109 1667.5,-109 1667.5,-73 1855.5,-73 1855.5,-109"/>
<text text-anchor="middle" x="1761.5" y="-87.3" font-family="Times,serif" font-size="14.00">#9 arg9 : int[] Order : 3</text>
</g>
<!-- node0&#45;&gt;node9 -->
<g id="edge18" class="edge">
<title>node0&#45;&gt;node9</title>
<path fill="none" stroke="black" d="M1224.78,-145.96C1412.35,-119.97 1461.47,-132.67 1649.5,-109 1652.06,-108.68 1654.65,-108.34 1657.26,-107.99"/>
<polygon fill="black" stroke="black" points="1658.02,-111.42 1667.44,-106.57 1657.05,-104.48 1658.02,-111.42"/>
<text text-anchor="middle" x="1650.66" y="-113.74" font-family="Times,serif" font-size="14.00">*0</text>
</g>
<!-- node10 -->
<g id="node11" class="node">
<title>node10</title>
<polygon fill="lightgrey" stroke="black" points="2059.5,-109 1873.5,-109 1873.5,-73 2059.5,-73 2059.5,-109"/>
<text text-anchor="middle" x="1966.5" y="-87.3" font-family="Times,serif" font-size="14.00">#10 arg3 : int Order : 2</text>
</g>
<!-- node0&#45;&gt;node10 -->
<g id="edge20" class="edge">
<title>node0&#45;&gt;node10</title>
<path fill="none" stroke="black" d="M1224.91,-145.95C1503.35,-111.38 1576.47,-140.34 1855.5,-109 1858.04,-108.72 1860.61,-108.41 1863.2,-108.09"/>
<polygon fill="black" stroke="black" points="1863.83,-111.53 1873.29,-106.76 1862.92,-104.59 1863.83,-111.53"/>
<text text-anchor="middle" x="1856.42" y="-113.8" font-family="Times,serif" font-size="14.00">*0</text>
</g>
<!-- node11 -->
<g id="node12" class="node">
<title>node11</title>
<polygon fill="lightgrey" stroke="black" points="2275,-109 2078,-109 2078,-73 2275,-73 2275,-109"/>
<text text-anchor="middle" x="2176.5" y="-87.3" font-family="Times,serif" font-size="14.00">#11 LabelNode Order : 1</text>
</g>
<!-- node0&#45;&gt;node11 -->
<g id="edge22" class="edge">
<title>node0&#45;&gt;node11</title>
<path fill="none" stroke="red" d="M1224.77,-145.97C1409.43,-124.41 1874.78,-127.57 2059.5,-109 2062.2,-108.73 2064.93,-108.44 2067.68,-108.12"/>
<polygon fill="red" stroke="red" points="2068.23,-111.58 2077.75,-106.91 2067.4,-104.63 2068.23,-111.58"/>
</g>
<!-- node12 -->
<g id="node13" class="node">
<title>node12</title>
<polygon fill="lightgrey" stroke="black" points="2297.5,-36 2055.5,-36 2055.5,0 2297.5,0 2297.5,-36"/>
<text text-anchor="middle" x="2176.5" y="-14.3" font-family="Times,serif" font-size="14.00">#12 ReturnValue : int Order : 5</text>
</g>
<!-- node0&#45;&gt;node12 -->
<g id="edge26" class="edge">
<title>node0&#45;&gt;node12</title>
<path fill="none" stroke="green" d="M1224.85,-145.96C1286.28,-139.52 2235,-150.95 2275.5,-109 2286.61,-97.49 2283.91,-86.61 2275.5,-73 2266.83,-58.97 2253.29,-48.46 2238.95,-40.64"/>
<polygon fill="green" stroke="green" points="2240.46,-37.48 2229.96,-36.11 2237.31,-43.73 2240.46,-37.48"/>
</g>
<!-- node1&#45;&gt;node0 -->
<g id="edge1" class="edge">
<title>node1&#45;&gt;node0</title>
<path fill="none" stroke="fuchsia" stroke-width="2" d="M197.26,-106.82C203.44,-107.62 209.56,-108.36 215.5,-109 520.47,-141.7 883.48,-155.5 1051.18,-160.52"/>
<polygon fill="fuchsia" stroke="fuchsia" stroke-width="2" points="1051.11,-164.02 1061.21,-160.81 1051.32,-157.02 1051.11,-164.02"/>
</g>
<!-- node2&#45;&gt;node0 -->
<g id="edge3" class="edge">
<title>node2&#45;&gt;node0</title>
<path fill="none" stroke="fuchsia" stroke-width="2" d="M401.72,-106.66C407.74,-107.51 413.71,-108.31 419.5,-109 645.69,-136.11 912.83,-151.65 1051.14,-158.59"/>
<polygon fill="fuchsia" stroke="fuchsia" stroke-width="2" points="1051.12,-162.09 1061.28,-159.09 1051.47,-155.1 1051.12,-162.09"/>
</g>
<!-- node3&#45;&gt;node0 -->
<g id="edge5" class="edge">
<title>node3&#45;&gt;node0</title>
<path fill="none" stroke="fuchsia" stroke-width="2" d="M605.74,-106.47C611.76,-107.37 617.72,-108.22 623.5,-109 772.76,-129.02 946.56,-145.42 1050.99,-154.7"/>
<polygon fill="fuchsia" stroke="fuchsia" stroke-width="2" points="1050.91,-158.21 1061.18,-155.61 1051.53,-151.24 1050.91,-158.21"/>
</g>
<!-- node4&#45;&gt;node0 -->
<g id="edge7" class="edge">
<title>node4&#45;&gt;node0</title>
<path fill="none" stroke="fuchsia" stroke-width="2" d="M813.15,-106.84C884.04,-118.41 980.51,-134.48 1051.1,-146.46"/>
<polygon fill="fuchsia" stroke="fuchsia" stroke-width="2" points="1050.87,-149.98 1061.32,-148.2 1052.05,-143.08 1050.87,-149.98"/>
</g>
<!-- node5&#45;&gt;node0 -->
<g id="edge9" class="edge">
<title>node5&#45;&gt;node0</title>
<path fill="none" stroke="fuchsia" stroke-width="2" d="M990.99,-109.11C1021.89,-119.2 1059.92,-132.03 1090.44,-142.63"/>
<polygon fill="fuchsia" stroke="fuchsia" stroke-width="2" points="1089.46,-146 1100.06,-145.99 1091.77,-139.39 1089.46,-146"/>
</g>
<!-- node6&#45;&gt;node0 -->
<g id="edge11" class="edge">
<title>node6&#45;&gt;node0</title>
<path fill="none" stroke="fuchsia" stroke-width="2" d="M1150.36,-109.03C1151.21,-117.03 1151.45,-126.77 1151.09,-135.75"/>
<polygon fill="fuchsia" stroke="fuchsia" stroke-width="2" points="1147.59,-135.59 1150.38,-145.81 1154.57,-136.08 1147.59,-135.59"/>
</g>
<!-- node7&#45;&gt;node0 -->
<g id="edge13" class="edge">
<title>node7&#45;&gt;node0</title>
<path fill="none" stroke="fuchsia" stroke-width="2" d="M1308.23,-109.11C1279.62,-119.25 1241.95,-132.14 1209.92,-142.77"/>
<polygon fill="fuchsia" stroke="fuchsia" stroke-width="2" points="1208.58,-139.53 1200.18,-145.99 1210.77,-146.18 1208.58,-139.53"/>
</g>
<!-- node8&#45;&gt;node0 -->
<g id="edge15" class="edge">
<title>node8&#45;&gt;node0</title>
<path fill="none" stroke="fuchsia" stroke-width="2" d="M1472.2,-109.05C1370.34,-126.16 1344.37,-128.08 1242.5,-146 1241,-146.26 1239.48,-146.53 1237.96,-146.8"/>
<polygon fill="fuchsia" stroke="fuchsia" stroke-width="2" points="1236.97,-143.43 1227.75,-148.65 1238.22,-150.31 1236.97,-143.43"/>
</g>
<!-- node8&#45;&gt;node12 -->
<g id="edge24" class="edge">
<title>node8&#45;&gt;node12</title>
<path fill="none" stroke="black" d="M1649.13,-74.35C1652.29,-73.88 1655.42,-73.43 1658.5,-73 1789.73,-54.8 1940.43,-39.74 2045.32,-30.19"/>
<polygon fill="black" stroke="black" points="2045.69,-33.68 2055.33,-29.29 2045.06,-26.7 2045.69,-33.68"/>
<text text-anchor="middle" x="2038.04" y="-35.64" font-family="Times,serif" font-size="14.00">*0</text>
</g>
<!-- node9&#45;&gt;node0 -->
<g id="edge17" class="edge">
<title>node9&#45;&gt;node0</title>
<path fill="none" stroke="fuchsia" stroke-width="2" d="M1667.22,-109.03C1479.33,-132.67 1430.21,-119.97 1242.5,-146 1240.99,-146.21 1239.47,-146.43 1237.93,-146.65"/>
<polygon fill="fuchsia" stroke="fuchsia" stroke-width="2" points="1237.04,-143.25 1227.69,-148.24 1238.11,-150.17 1237.04,-143.25"/>
</g>
<!-- node10&#45;&gt;node0 -->
<g id="edge19" class="edge">
<title>node10&#45;&gt;node0</title>
<path fill="none" stroke="fuchsia" stroke-width="2" d="M1873.77,-108.97C1873.68,-108.98 1873.59,-108.99 1873.5,-109 1594.33,-140.36 1521.28,-111.35 1242.5,-146 1240.99,-146.19 1239.46,-146.39 1237.93,-146.59"/>
<polygon fill="fuchsia" stroke="fuchsia" stroke-width="2" points="1237.06,-143.18 1227.67,-148.08 1238.07,-150.11 1237.06,-143.18"/>
</g>
<!-- node11&#45;&gt;node0 -->
<g id="edge21" class="edge">
<title>node11&#45;&gt;node0</title>
<path fill="none" stroke="fuchsia" stroke-width="2" d="M2077.78,-108.97C2077.69,-108.98 2077.59,-108.99 2077.5,-109 1892.69,-127.58 1426.98,-124.41 1242.5,-146 1240.99,-146.18 1239.46,-146.37 1237.92,-146.56"/>
<polygon fill="fuchsia" stroke="fuchsia" stroke-width="2" points="1237.08,-143.15 1227.66,-148 1238.05,-150.08 1237.08,-143.15"/>
</g>
<!-- node11&#45;&gt;node12 -->
<g id="edge25" class="edge">
<title>node11&#45;&gt;node12</title>
<path fill="none" stroke="red" d="M2176.5,-72.81C2176.5,-64.79 2176.5,-55.05 2176.5,-46.07"/>
<polygon fill="red" stroke="red" points="2180,-46.03 2176.5,-36.03 2173,-46.03 2180,-46.03"/>
</g>
<!-- node12&#45;&gt;node0 -->
<g id="edge23" class="edge">
<title>node12&#45;&gt;node0</title>
<path fill="none" stroke="fuchsia" stroke-width="2" d="M2247.04,-36.11C2265.46,-44.26 2283.03,-56.06 2293.5,-73 2301.91,-86.61 2304.61,-97.49 2293.5,-109 2252.92,-151.03 1300.56,-139.47 1242.5,-146 1240.99,-146.17 1239.46,-146.35 1237.92,-146.54"/>
<polygon fill="fuchsia" stroke="fuchsia" stroke-width="2" points="1237.09,-143.13 1227.65,-147.95 1238.04,-150.06 1237.09,-143.13"/>
</g>
<!-- c0 -->
<!-- c1 -->
<!-- c0&#45;&gt;c1 -->
<g id="edge27" class="edge">
<title>c0&#45;&gt;c1</title>
<path fill="none" stroke="red" d="M2096.39,-164C2107.61,-164 2165.74,-164 2191.36,-164"/>
<polygon fill="red" stroke="red" points="2191.56,-167.5 2201.56,-164 2191.56,-160.5 2191.56,-167.5"/>
<text text-anchor="middle" x="2149" y="-170.8" font-family="Times,serif" font-size="14.00">Control flow</text>
</g>
<!-- c2 -->
<!-- c3 -->
<!-- c2&#45;&gt;c3 -->
<g id="edge28" class="edge">
<title>c2&#45;&gt;c3</title>
<path fill="none" stroke="red" stroke-dasharray="5,2" d="M1889.58,-164C1906.55,-164 2022.71,-164 2060.58,-164"/>
<polygon fill="red" stroke="red" points="2060.67,-167.5 2070.67,-164 2060.67,-160.5 2060.67,-167.5"/>
<text text-anchor="middle" x="1980" y="-170.8" font-family="Times,serif" font-size="14.00">Control flow back edge</text>
</g>
<!-- d0 -->
<!-- d1 -->
<!-- d0&#45;&gt;d1 -->
<g id="edge29" class="edge">
<title>d0&#45;&gt;d1</title>
<path fill="none" stroke="black" d="M1778.36,-164C1787.91,-164 1831.81,-164 1853.42,-164"/>
<polygon fill="black" stroke="black" points="1853.65,-167.5 1863.65,-164 1853.65,-160.5 1853.65,-167.5"/>
<text text-anchor="middle" x="1821" y="-170.8" font-family="Times,serif" font-size="14.00">Data flow</text>
</g>
<!-- d2 -->
<!-- d3 -->
<!-- d2&#45;&gt;d3 -->
<g id="edge30" class="edge">
<title>d2&#45;&gt;d3</title>
<path fill="none" stroke="black" stroke-dasharray="1,5" d="M1652.31,-164C1662.96,-164 1717.96,-164 1742.58,-164"/>
<polygon fill="black" stroke="black" points="1742.65,-167.5 1752.65,-164 1742.65,-160.5 1742.65,-167.5"/>
<text text-anchor="middle" x="1702.5" y="-170.8" font-family="Times,serif" font-size="14.00">Declaration</text>
</g>
<!-- d4 -->
<!-- d5 -->
<!-- d4&#45;&gt;d5 -->
<g id="edge31" class="edge">
<title>d4&#45;&gt;d5</title>
<path fill="none" stroke="blue" d="M1509.6,-164C1522.22,-164 1588.38,-164 1616.18,-164"/>
<polygon fill="blue" stroke="blue" points="1616.34,-167.5 1626.34,-164 1616.34,-160.5 1616.34,-167.5"/>
<text text-anchor="middle" x="1568" y="-170.8" font-family="Times,serif" font-size="14.00">PHI Data flow</text>
</g>
<!-- d6 -->
<!-- d7 -->
<!-- d6&#45;&gt;d7 -->
<g id="edge32" class="edge">
<title>d6&#45;&gt;d7</title>
<path fill="none" stroke="green" d="M1372.5,-164C1384.44,-164 1446.8,-164 1473.43,-164"/>
<polygon fill="green" stroke="green" points="1473.45,-167.5 1483.45,-164 1473.45,-160.5 1473.45,-167.5"/>
<text text-anchor="middle" x="1428" y="-170.8" font-family="Times,serif" font-size="14.00">Memory flow</text>
</g>
<!-- d8 -->
<!-- d9 -->
<!-- d8&#45;&gt;d9 -->
<g id="edge33" class="edge">
<title>d8&#45;&gt;d9</title>
<path fill="none" stroke="fuchsia" d="M1249.61,-164C1260.65,-164 1312.17,-164 1336.16,-164"/>
<polygon fill="fuchsia" stroke="fuchsia" points="1336.4,-167.5 1346.4,-164 1336.4,-160.5 1336.4,-167.5"/>
<text text-anchor="middle" x="1298" y="-170.8" font-family="Times,serif" font-size="14.00">Dominance</text>
</g>
</g>
</svg>
