<?xml version="1.0" encoding="UTF-8" standalone="no"?>
<!DOCTYPE svg PUBLIC "-//W3C//DTD SVG 1.1//EN"
 "http://www.w3.org/Graphics/SVG/1.1/DTD/svg11.dtd">
<!-- Generated by graphviz version 2.43.0 (0)
 -->
<!-- Title: debugoutput Pages: 1 -->
<svg width="2308pt" height="213pt"
 viewBox="0.00 0.00 2308.49 212.80" xmlns="http://www.w3.org/2000/svg" xmlns:xlink="http://www.w3.org/1999/xlink">
<g id="graph0" class="graph" transform="scale(1 1) rotate(0) translate(4 208.8)">
<title>debugoutput</title>
<polygon fill="white" stroke="transparent" points="-4,4 -4,-208.8 2304.49,-208.8 2304.49,4 -4,4"/>
<g id="clust1" class="cluster">
<title>cluster_000</title>
<polygon fill="none" stroke="black" points="1219,-154.2 1219,-196.8 2195,-196.8 2195,-154.2 1219,-154.2"/>
<text text-anchor="middle" x="1707" y="-181.6" font-family="Times,serif" font-size="14.00">Legend</text>
</g>
<!-- node0 -->
<g id="node1" class="node">
<title>node0</title>
<polygon fill="lightgrey" stroke="black" points="1209,-182 1043,-182 1043,-146 1209,-146 1209,-182"/>
<text text-anchor="middle" x="1126" y="-160.3" font-family="Times,serif" font-size="14.00">#0 Method Order : 0</text>
</g>
<!-- node1 -->
<g id="node2" class="node">
<title>node1</title>
<polygon fill="lightgrey" stroke="black" points="198,-109 0,-109 0,-73 198,-73 198,-109"/>
<text text-anchor="middle" x="99" y="-87.3" font-family="Times,serif" font-size="14.00">#1 arg6 : float Order : 12</text>
</g>
<!-- node0&#45;&gt;node1 -->
<g id="edge2" class="edge">
<title>node0&#45;&gt;node1</title>
<path fill="none" stroke="black" d="M1042.71,-160.97C881.67,-156.34 516.57,-142.76 208.47,-110.12"/>
<polygon fill="black" stroke="black" points="208.77,-106.63 198.45,-109.05 208.03,-113.59 208.77,-106.63"/>
<text text-anchor="middle" x="217.38" y="-98.87" font-family="Times,serif" font-size="14.00">*0</text>
</g>
<!-- node2 -->
<g id="node3" class="node">
<title>node2</title>
<polygon fill="lightgrey" stroke="black" points="402,-109 216,-109 216,-73 402,-73 402,-109"/>
<text text-anchor="middle" x="309" y="-87.3" font-family="Times,serif" font-size="14.00">#2 arg1 : int Order : 11</text>
</g>
<!-- node0&#45;&gt;node2 -->
<g id="edge4" class="edge">
<title>node0&#45;&gt;node2</title>
<path fill="none" stroke="black" d="M1042.78,-159.42C909.7,-152.94 640.97,-137.38 411.92,-110.19"/>
<polygon fill="black" stroke="black" points="412.08,-106.68 401.73,-108.97 411.25,-113.63 412.08,-106.68"/>
<text text-anchor="middle" x="420.74" y="-99.03" font-family="Times,serif" font-size="14.00">*0</text>
</g>
<!-- node3 -->
<g id="node4" class="node">
<title>node3</title>
<polygon fill="lightgrey" stroke="black" points="617.5,-109 420.5,-109 420.5,-73 617.5,-73 617.5,-109"/>
<text text-anchor="middle" x="519" y="-87.3" font-family="Times,serif" font-size="14.00">#3 arg9 : int[] Order : 10</text>
</g>
<!-- node0&#45;&gt;node3 -->
<g id="edge6" class="edge">
<title>node0&#45;&gt;node3</title>
<path fill="none" stroke="black" d="M1042.96,-155.91C944.28,-146.78 774.68,-129.76 627.54,-110.4"/>
<polygon fill="black" stroke="black" points="627.81,-106.9 617.44,-109.06 626.89,-113.84 627.81,-106.9"/>
<text text-anchor="middle" x="636.52" y="-99.36" font-family="Times,serif" font-size="14.00">*0</text>
</g>
<!-- node4 -->
<g id="node5" class="node">
<title>node4</title>
<polygon fill="lightgrey" stroke="black" points="812.5,-109 635.5,-109 635.5,-73 812.5,-73 812.5,-109"/>
<text text-anchor="middle" x="724" y="-87.3" font-family="Times,serif" font-size="14.00">#4 arg0 : int Order : 9</text>
</g>
<!-- node0&#45;&gt;node4 -->
<g id="edge8" class="edge">
<title>node0&#45;&gt;node4</title>
<path fill="none" stroke="black" d="M1042.54,-149.23C978.6,-138.2 890.25,-122.63 822.79,-110.51"/>
<polygon fill="black" stroke="black" points="823.03,-107 812.57,-108.67 821.79,-113.89 823.03,-107"/>
<text text-anchor="middle" x="831.91" y="-99.86" font-family="Times,serif" font-size="14.00">*0</text>
</g>
<!-- node5 -->
<g id="node6" class="node">
<title>node5</title>
<polygon fill="lightgrey" stroke="black" points="1019,-109 831,-109 831,-73 1019,-73 1019,-109"/>
<text text-anchor="middle" x="925" y="-87.3" font-family="Times,serif" font-size="14.00">#5 arg5 : long Order : 8</text>
</g>
<!-- node0&#45;&gt;node5 -->
<g id="edge10" class="edge">
<title>node0&#45;&gt;node5</title>
<path fill="none" stroke="black" d="M1072,-145.99C1042.55,-135.97 1006.33,-123.21 977.17,-112.62"/>
<polygon fill="black" stroke="black" points="978.17,-109.26 967.58,-109.11 975.77,-115.83 978.17,-109.26"/>
<text text-anchor="middle" x="987.5" y="-103.69" font-family="Times,serif" font-size="14.00">*0</text>
</g>
<!-- node6 -->
<g id="node7" class="node">
<title>node6</title>
<polygon fill="lightgrey" stroke="black" points="1214.5,-109 1037.5,-109 1037.5,-73 1214.5,-73 1214.5,-109"/>
<text text-anchor="middle" x="1126" y="-87.3" font-family="Times,serif" font-size="14.00">#6 arg4 : int Order : 7</text>
</g>
<!-- node0&#45;&gt;node6 -->
<g id="edge12" class="edge">
<title>node0&#45;&gt;node6</title>
<path fill="none" stroke="black" d="M1120.12,-145.81C1119.28,-137.79 1119.05,-128.05 1119.42,-119.07"/>
<polygon fill="black" stroke="black" points="1122.92,-119.25 1120.14,-109.03 1115.94,-118.75 1122.92,-119.25"/>
<text text-anchor="middle" x="1127.28" y="-124.01" font-family="Times,serif" font-size="14.00">*0</text>
</g>
<!-- node7 -->
<g id="node8" class="node">
<title>node7</title>
<polygon fill="lightgrey" stroke="black" points="1435.5,-109 1232.5,-109 1232.5,-73 1435.5,-73 1435.5,-109"/>
<text text-anchor="middle" x="1334" y="-87.3" font-family="Times,serif" font-size="14.00">#7 arg8 : String Order : 6</text>
</g>
<!-- node0&#45;&gt;node7 -->
<g id="edge14" class="edge">
<title>node0&#45;&gt;node7</title>
<path fill="none" stroke="black" d="M1169.96,-145.99C1198.51,-135.88 1236.17,-122.99 1268.24,-112.34"/>
<polygon fill="black" stroke="black" points="1269.6,-115.58 1277.99,-109.11 1267.4,-108.93 1269.6,-115.58"/>
<text text-anchor="middle" x="1263.44" y="-119.13" font-family="Times,serif" font-size="14.00">*0</text>
</g>
<!-- node8 -->
<g id="node9" class="node">
<title>node8</title>
<polygon fill="lightgrey" stroke="black" points="1630.5,-109 1453.5,-109 1453.5,-73 1630.5,-73 1630.5,-109"/>
<text text-anchor="middle" x="1542" y="-87.3" font-family="Times,serif" font-size="14.00">#8 arg3 : int Order : 5</text>
</g>
<!-- node0&#45;&gt;node8 -->
<g id="edge16" class="edge">
<title>node0&#45;&gt;node8</title>
<path fill="none" stroke="black" d="M1206.3,-145.95C1308.02,-128.06 1334,-126.14 1436,-109 1438.47,-108.58 1440.98,-108.16 1443.51,-107.73"/>
<polygon fill="black" stroke="black" points="1444.1,-111.18 1453.37,-106.05 1442.92,-104.28 1444.1,-111.18"/>
<text text-anchor="middle" x="1436.92" y="-113.73" font-family="Times,serif" font-size="14.00">*0</text>
</g>
<!-- node9 -->
<g id="node10" class="node">
<title>node9</title>
<polygon fill="lightgrey" stroke="black" points="1855,-109 1649,-109 1649,-73 1855,-73 1855,-109"/>
<text text-anchor="middle" x="1752" y="-87.3" font-family="Times,serif" font-size="14.00">#9 arg7 : double Order : 4</text>
</g>
<!-- node0&#45;&gt;node9 -->
<g id="edge18" class="edge">
<title>node0&#45;&gt;node9</title>
<path fill="none" stroke="black" d="M1206.28,-145.96C1393.85,-119.97 1442.82,-131.45 1631,-109 1633.56,-108.69 1636.16,-108.38 1638.78,-108.04"/>
<polygon fill="black" stroke="black" points="1639.5,-111.48 1648.97,-106.72 1638.6,-104.54 1639.5,-111.48"/>
<text text-anchor="middle" x="1632.08" y="-113.74" font-family="Times,serif" font-size="14.00">*0</text>
</g>
<!-- node10 -->
<g id="node11" class="node">
<title>node10</title>
<polygon fill="lightgrey" stroke="black" points="2059,-109 1873,-109 1873,-73 2059,-73 2059,-109"/>
<text text-anchor="middle" x="1966" y="-87.3" font-family="Times,serif" font-size="14.00">#10 arg2 : int Order : 2</text>
</g>
<!-- node0&#45;&gt;node10 -->
<g id="edge20" class="edge">
<title>node0&#45;&gt;node10</title>
<path fill="none" stroke="black" d="M1206.42,-145.95C1492.81,-110.63 1568.01,-141 1855,-109 1857.54,-108.72 1860.11,-108.41 1862.7,-108.09"/>
<polygon fill="black" stroke="black" points="1863.33,-111.54 1872.79,-106.77 1862.42,-104.6 1863.33,-111.54"/>
<text text-anchor="middle" x="1855.92" y="-113.8" font-family="Times,serif" font-size="14.00">*0</text>
</g>
<!-- node11 -->
<g id="node12" class="node">
<title>node11</title>
<polygon fill="lightgrey" stroke="black" points="2274.5,-109 2077.5,-109 2077.5,-73 2274.5,-73 2274.5,-109"/>
<text text-anchor="middle" x="2176" y="-87.3" font-family="Times,serif" font-size="14.00">#11 LabelNode Order : 1</text>
</g>
<!-- node0&#45;&gt;node11 -->
<g id="edge22" class="edge">
<title>node0&#45;&gt;node11</title>
<path fill="none" stroke="red" d="M1206.28,-145.97C1394.92,-124.04 1870.3,-127.88 2059,-109 2061.7,-108.73 2064.43,-108.44 2067.18,-108.13"/>
<polygon fill="red" stroke="red" points="2067.73,-111.58 2077.25,-106.92 2066.9,-104.63 2067.73,-111.58"/>
</g>
<!-- node12 -->
<g id="node13" class="node">
<title>node12</title>
<polygon fill="lightgrey" stroke="black" points="2297,-36 2055,-36 2055,0 2297,0 2297,-36"/>
<text text-anchor="middle" x="2176" y="-14.3" font-family="Times,serif" font-size="14.00">#12 ReturnValue : int Order : 3</text>
</g>
<!-- node0&#45;&gt;node12 -->
<g id="edge26" class="edge">
<title>node0&#45;&gt;node12</title>
<path fill="none" stroke="green" d="M1206.36,-145.96C1268.83,-139.43 2233.79,-151.66 2275,-109 2286.12,-97.49 2283.41,-86.61 2275,-73 2266.33,-58.97 2252.79,-48.46 2238.45,-40.64"/>
<polygon fill="green" stroke="green" points="2239.96,-37.48 2229.46,-36.11 2236.81,-43.73 2239.96,-37.48"/>
</g>
<!-- node1&#45;&gt;node0 -->
<g id="edge1" class="edge">
<title>node1&#45;&gt;node0</title>
<path fill="none" stroke="fuchsia" stroke-width="2" d="M198.06,-106.85C204.13,-107.64 210.15,-108.37 216,-109 513.67,-141.1 867.79,-155.13 1032.82,-160.36"/>
<polygon fill="fuchsia" stroke="fuchsia" stroke-width="2" points="1032.83,-163.86 1042.94,-160.67 1033.05,-156.86 1032.83,-163.86"/>
</g>
<!-- node2&#45;&gt;node0 -->
<g id="edge3" class="edge">
<title>node2&#45;&gt;node0</title>
<path fill="none" stroke="fuchsia" stroke-width="2" d="M402.22,-106.65C408.24,-107.5 414.21,-108.3 420,-109 638.91,-135.46 897.2,-151.15 1032.59,-158.32"/>
<polygon fill="fuchsia" stroke="fuchsia" stroke-width="2" points="1032.74,-161.83 1042.91,-158.86 1033.11,-154.84 1032.74,-161.83"/>
</g>
<!-- node3&#45;&gt;node0 -->
<g id="edge5" class="edge">
<title>node3&#45;&gt;node0</title>
<path fill="none" stroke="fuchsia" stroke-width="2" d="M617.55,-106.57C623.46,-107.42 629.31,-108.24 635,-109 773.47,-127.47 934.18,-143.94 1033.03,-153.71"/>
<polygon fill="fuchsia" stroke="fuchsia" stroke-width="2" points="1032.69,-157.19 1042.99,-154.69 1033.38,-150.22 1032.69,-157.19"/>
</g>
<!-- node4&#45;&gt;node0 -->
<g id="edge7" class="edge">
<title>node4&#45;&gt;node0</title>
<path fill="none" stroke="fuchsia" stroke-width="2" d="M812.59,-106.66C877.93,-117.95 966.58,-133.59 1032.95,-145.52"/>
<polygon fill="fuchsia" stroke="fuchsia" stroke-width="2" points="1032.53,-149 1042.99,-147.33 1033.77,-142.11 1032.53,-149"/>
</g>
<!-- node5&#45;&gt;node0 -->
<g id="edge9" class="edge">
<title>node5&#45;&gt;node0</title>
<path fill="none" stroke="fuchsia" stroke-width="2" d="M979.32,-109.11C1008.81,-119.16 1045.03,-131.92 1074.14,-142.5"/>
<polygon fill="fuchsia" stroke="fuchsia" stroke-width="2" points="1073.12,-145.85 1083.71,-145.99 1075.52,-139.28 1073.12,-145.85"/>
</g>
<!-- node6&#45;&gt;node0 -->
<g id="edge11" class="edge">
<title>node6&#45;&gt;node0</title>
<path fill="none" stroke="fuchsia" stroke-width="2" d="M1131.86,-109.03C1132.71,-117.03 1132.95,-126.77 1132.59,-135.75"/>
<polygon fill="fuchsia" stroke="fuchsia" stroke-width="2" points="1129.09,-135.59 1131.88,-145.81 1136.07,-136.08 1129.09,-135.59"/>
</g>
<!-- node7&#45;&gt;node0 -->
<g id="edge13" class="edge">
<title>node7&#45;&gt;node0</title>
<path fill="none" stroke="fuchsia" stroke-width="2" d="M1289.73,-109.11C1261.12,-119.25 1223.45,-132.14 1191.42,-142.77"/>
<polygon fill="fuchsia" stroke="fuchsia" stroke-width="2" points="1190.08,-139.53 1181.68,-145.99 1192.27,-146.18 1190.08,-139.53"/>
</g>
<!-- node8&#45;&gt;node0 -->
<g id="edge15" class="edge">
<title>node8&#45;&gt;node0</title>
<path fill="none" stroke="fuchsia" stroke-width="2" d="M1453.7,-109.05C1351.84,-126.16 1325.87,-128.08 1224,-146 1222.5,-146.26 1220.98,-146.53 1219.46,-146.8"/>
<polygon fill="fuchsia" stroke="fuchsia" stroke-width="2" points="1218.47,-143.43 1209.25,-148.65 1219.72,-150.31 1218.47,-143.43"/>
</g>
<!-- node9&#45;&gt;node0 -->
<g id="edge17" class="edge">
<title>node9&#45;&gt;node0</title>
<path fill="none" stroke="fuchsia" stroke-width="2" d="M1648.72,-109.03C1460.68,-131.45 1411.71,-119.97 1224,-146 1222.49,-146.21 1220.97,-146.43 1219.43,-146.65"/>
<polygon fill="fuchsia" stroke="fuchsia" stroke-width="2" points="1218.54,-143.25 1209.19,-148.24 1219.61,-150.17 1218.54,-143.25"/>
</g>
<!-- node10&#45;&gt;node0 -->
<g id="edge19" class="edge">
<title>node10&#45;&gt;node0</title>
<path fill="none" stroke="fuchsia" stroke-width="2" d="M1873.27,-108.97C1873.18,-108.98 1873.09,-108.99 1873,-109 1585.87,-141.02 1510.74,-110.6 1224,-146 1222.49,-146.19 1220.96,-146.38 1219.43,-146.59"/>
<polygon fill="fuchsia" stroke="fuchsia" stroke-width="2" points="1218.57,-143.18 1209.17,-148.07 1219.57,-150.11 1218.57,-143.18"/>
</g>
<!-- node10&#45;&gt;node12 -->
<g id="edge24" class="edge">
<title>node10&#45;&gt;node12</title>
<path fill="none" stroke="black" d="M2016.3,-72.99C2046.21,-62.88 2084.34,-49.99 2115.84,-39.34"/>
<polygon fill="black" stroke="black" points="2117.03,-42.63 2125.38,-36.11 2114.79,-36 2117.03,-42.63"/>
<text text-anchor="middle" x="2110.92" y="-46.23" font-family="Times,serif" font-size="14.00">*0</text>
</g>
<!-- node11&#45;&gt;node0 -->
<g id="edge21" class="edge">
<title>node11&#45;&gt;node0</title>
<path fill="none" stroke="fuchsia" stroke-width="2" d="M2077.28,-108.97C2077.19,-108.98 2077.09,-108.99 2077,-109 1888.21,-127.89 1412.46,-124.03 1224,-146 1222.49,-146.18 1220.96,-146.36 1219.42,-146.56"/>
<polygon fill="fuchsia" stroke="fuchsia" stroke-width="2" points="1218.58,-143.15 1209.16,-148 1219.55,-150.08 1218.58,-143.15"/>
</g>
<!-- node11&#45;&gt;node12 -->
<g id="edge25" class="edge">
<title>node11&#45;&gt;node12</title>
<path fill="none" stroke="red" d="M2176,-72.81C2176,-64.79 2176,-55.05 2176,-46.07"/>
<polygon fill="red" stroke="red" points="2179.5,-46.03 2176,-36.03 2172.5,-46.03 2179.5,-46.03"/>
</g>
<!-- node12&#45;&gt;node0 -->
<g id="edge23" class="edge">
<title>node12&#45;&gt;node0</title>
<path fill="none" stroke="fuchsia" stroke-width="2" d="M2246.54,-36.11C2264.96,-44.26 2282.53,-56.06 2293,-73 2301.41,-86.61 2304.12,-97.49 2293,-109 2251.71,-151.74 1283.05,-139.38 1224,-146 1222.49,-146.17 1220.96,-146.35 1219.42,-146.54"/>
<polygon fill="fuchsia" stroke="fuchsia" stroke-width="2" points="1218.59,-143.12 1209.15,-147.95 1219.54,-150.06 1218.59,-143.12"/>
</g>
<!-- c0 -->
<!-- c1 -->
<!-- c0&#45;&gt;c1 -->
<g id="edge27" class="edge">
<title>c0&#45;&gt;c1</title>
<path fill="none" stroke="red" d="M2077.89,-164C2089.11,-164 2147.24,-164 2172.86,-164"/>
<polygon fill="red" stroke="red" points="2173.06,-167.5 2183.06,-164 2173.06,-160.5 2173.06,-167.5"/>
<text text-anchor="middle" x="2130.5" y="-170.8" font-family="Times,serif" font-size="14.00">Control flow</text>
</g>
<!-- c2 -->
<!-- c3 -->
<!-- c2&#45;&gt;c3 -->
<g id="edge28" class="edge">
<title>c2&#45;&gt;c3</title>
<path fill="none" stroke="red" stroke-dasharray="5,2" d="M1871.08,-164C1888.05,-164 2004.21,-164 2042.08,-164"/>
<polygon fill="red" stroke="red" points="2042.17,-167.5 2052.17,-164 2042.17,-160.5 2042.17,-167.5"/>
<text text-anchor="middle" x="1961.5" y="-170.8" font-family="Times,serif" font-size="14.00">Control flow back edge</text>
</g>
<!-- d0 -->
<!-- d1 -->
<!-- d0&#45;&gt;d1 -->
<g id="edge29" class="edge">
<title>d0&#45;&gt;d1</title>
<path fill="none" stroke="black" d="M1759.86,-164C1769.41,-164 1813.31,-164 1834.92,-164"/>
<polygon fill="black" stroke="black" points="1835.15,-167.5 1845.15,-164 1835.15,-160.5 1835.15,-167.5"/>
<text text-anchor="middle" x="1802.5" y="-170.8" font-family="Times,serif" font-size="14.00">Data flow</text>
</g>
<!-- d2 -->
<!-- d3 -->
<!-- d2&#45;&gt;d3 -->
<g id="edge30" class="edge">
<title>d2&#45;&gt;d3</title>
<path fill="none" stroke="black" stroke-dasharray="1,5" d="M1633.81,-164C1644.46,-164 1699.46,-164 1724.08,-164"/>
<polygon fill="black" stroke="black" points="1724.15,-167.5 1734.15,-164 1724.15,-160.5 1724.15,-167.5"/>
<text text-anchor="middle" x="1684" y="-170.8" font-family="Times,serif" font-size="14.00">Declaration</text>
</g>
<!-- d4 -->
<!-- d5 -->
<!-- d4&#45;&gt;d5 -->
<g id="edge31" class="edge">
<title>d4&#45;&gt;d5</title>
<path fill="none" stroke="blue" d="M1491.1,-164C1503.72,-164 1569.88,-164 1597.68,-164"/>
<polygon fill="blue" stroke="blue" points="1597.84,-167.5 1607.84,-164 1597.84,-160.5 1597.84,-167.5"/>
<text text-anchor="middle" x="1549.5" y="-170.8" font-family="Times,serif" font-size="14.00">PHI Data flow</text>
</g>
<!-- d6 -->
<!-- d7 -->
<!-- d6&#45;&gt;d7 -->
<g id="edge32" class="edge">
<title>d6&#45;&gt;d7</title>
<path fill="none" stroke="green" d="M1354,-164C1365.94,-164 1428.3,-164 1454.93,-164"/>
<polygon fill="green" stroke="green" points="1454.95,-167.5 1464.95,-164 1454.95,-160.5 1454.95,-167.5"/>
<text text-anchor="middle" x="1409.5" y="-170.8" font-family="Times,serif" font-size="14.00">Memory flow</text>
</g>
<!-- d8 -->
<!-- d9 -->
<!-- d8&#45;&gt;d9 -->
<g id="edge33" class="edge">
<title>d8&#45;&gt;d9</title>
<path fill="none" stroke="fuchsia" d="M1231.11,-164C1242.15,-164 1293.67,-164 1317.66,-164"/>
<polygon fill="fuchsia" stroke="fuchsia" points="1317.9,-167.5 1327.9,-164 1317.9,-160.5 1317.9,-167.5"/>
<text text-anchor="middle" x="1279.5" y="-170.8" font-family="Times,serif" font-size="14.00">Dominance</text>
</g>
</g>
</svg>
