<?xml version="1.0" encoding="UTF-8" standalone="no"?>
<!DOCTYPE svg PUBLIC "-//W3C//DTD SVG 1.1//EN"
 "http://www.w3.org/Graphics/SVG/1.1/DTD/svg11.dtd">
<!-- Generated by graphviz version 2.43.0 (0)
 -->
<!-- Title: debugoutput Pages: 1 -->
<svg width="2298pt" height="213pt"
 viewBox="0.00 0.00 2298.00 212.80" xmlns="http://www.w3.org/2000/svg" xmlns:xlink="http://www.w3.org/1999/xlink">
<g id="graph0" class="graph" transform="scale(1 1) rotate(0) translate(4 208.8)">
<title>debugoutput</title>
<polygon fill="white" stroke="transparent" points="-4,4 -4,-208.8 2294,-208.8 2294,4 -4,4"/>
<g id="clust1" class="cluster">
<title>cluster_000</title>
<polygon fill="none" stroke="black" points="1221.5,-154.2 1221.5,-196.8 2197.5,-196.8 2197.5,-154.2 1221.5,-154.2"/>
<text text-anchor="middle" x="1709.5" y="-181.6" font-family="Times,serif" font-size="14.00">Legend</text>
</g>
<!-- node0 -->
<g id="node1" class="node">
<title>node0</title>
<polygon fill="lightgrey" stroke="black" points="1211.5,-182 1045.5,-182 1045.5,-146 1211.5,-146 1211.5,-182"/>
<text text-anchor="middle" x="1128.5" y="-160.3" font-family="Times,serif" font-size="14.00">#0 Method Order : 0</text>
</g>
<!-- node1 -->
<g id="node2" class="node">
<title>node1</title>
<polygon fill="lightgrey" stroke="black" points="197,-109 0,-109 0,-73 197,-73 197,-109"/>
<text text-anchor="middle" x="98.5" y="-87.3" font-family="Times,serif" font-size="14.00">#1 arg5 : long Order : 12</text>
</g>
<!-- node0&#45;&gt;node1 -->
<g id="edge2" class="edge">
<title>node0&#45;&gt;node1</title>
<path fill="none" stroke="black" d="M1045.5,-161.05C884.08,-156.53 516.85,-143.13 207.03,-110.13"/>
<polygon fill="black" stroke="black" points="207.27,-106.64 196.96,-109.05 206.53,-113.6 207.27,-106.64"/>
<text text-anchor="middle" x="215.88" y="-98.88" font-family="Times,serif" font-size="14.00">*0</text>
</g>
<!-- node2 -->
<g id="node3" class="node">
<title>node2</title>
<polygon fill="lightgrey" stroke="black" points="412,-109 215,-109 215,-73 412,-73 412,-109"/>
<text text-anchor="middle" x="313.5" y="-87.3" font-family="Times,serif" font-size="14.00">#2 arg9 : int[] Order : 11</text>
</g>
<!-- node0&#45;&gt;node2 -->
<g id="edge4" class="edge">
<title>node0&#45;&gt;node2</title>
<path fill="none" stroke="black" d="M1045.25,-159.15C913.27,-152.32 648.02,-136.3 421.89,-110.21"/>
<polygon fill="black" stroke="black" points="422.17,-106.72 411.83,-109.04 421.36,-113.67 422.17,-106.72"/>
<text text-anchor="middle" x="430.82" y="-99.04" font-family="Times,serif" font-size="14.00">*0</text>
</g>
<!-- node3 -->
<g id="node4" class="node">
<title>node3</title>
<polygon fill="lightgrey" stroke="black" points="607,-109 430,-109 430,-73 607,-73 607,-109"/>
<text text-anchor="middle" x="518.5" y="-87.3" font-family="Times,serif" font-size="14.00">#3 arg2 : int Order : 9</text>
</g>
<!-- node0&#45;&gt;node3 -->
<g id="edge6" class="edge">
<title>node0&#45;&gt;node3</title>
<path fill="none" stroke="black" d="M1045.2,-156.54C944.15,-147.94 768.69,-131.35 616.91,-110.45"/>
<polygon fill="black" stroke="black" points="617.34,-106.97 606.95,-109.06 616.38,-113.91 617.34,-106.97"/>
<text text-anchor="middle" x="626.07" y="-99.48" font-family="Times,serif" font-size="14.00">*0</text>
</g>
<!-- node4 -->
<g id="node5" class="node">
<title>node4</title>
<polygon fill="lightgrey" stroke="black" points="802,-109 625,-109 625,-73 802,-73 802,-109"/>
<text text-anchor="middle" x="713.5" y="-87.3" font-family="Times,serif" font-size="14.00">#4 arg1 : int Order : 8</text>
</g>
<!-- node0&#45;&gt;node4 -->
<g id="edge8" class="edge">
<title>node0&#45;&gt;node4</title>
<path fill="none" stroke="black" d="M1045.47,-150.24C982.07,-139.83 892.37,-124.65 812.21,-110.85"/>
<polygon fill="black" stroke="black" points="812.43,-107.33 801.99,-109.08 811.25,-114.23 812.43,-107.33"/>
<text text-anchor="middle" x="821.28" y="-100.13" font-family="Times,serif" font-size="14.00">*0</text>
</g>
<!-- node5 -->
<g id="node6" class="node">
<title>node5</title>
<polygon fill="lightgrey" stroke="black" points="1009,-109 820,-109 820,-73 1009,-73 1009,-109"/>
<text text-anchor="middle" x="914.5" y="-87.3" font-family="Times,serif" font-size="14.00">#5 arg6 : float Order : 7</text>
</g>
<!-- node0&#45;&gt;node5 -->
<g id="edge10" class="edge">
<title>node0&#45;&gt;node5</title>
<path fill="none" stroke="black" d="M1071.38,-145.99C1039.97,-135.92 1001.21,-123.1 970.04,-112.48"/>
<polygon fill="black" stroke="black" points="970.81,-109.04 960.21,-109.11 968.54,-115.66 970.81,-109.04"/>
<text text-anchor="middle" x="980.1" y="-103.29" font-family="Times,serif" font-size="14.00">*0</text>
</g>
<!-- node6 -->
<g id="node7" class="node">
<title>node6</title>
<polygon fill="lightgrey" stroke="black" points="1230,-109 1027,-109 1027,-73 1230,-73 1230,-109"/>
<text text-anchor="middle" x="1128.5" y="-87.3" font-family="Times,serif" font-size="14.00">#6 arg8 : String Order : 6</text>
</g>
<!-- node0&#45;&gt;node6 -->
<g id="edge12" class="edge">
<title>node0&#45;&gt;node6</title>
<path fill="none" stroke="black" d="M1122.62,-145.81C1121.78,-137.79 1121.55,-128.05 1121.92,-119.07"/>
<polygon fill="black" stroke="black" points="1125.42,-119.25 1122.64,-109.03 1118.44,-118.75 1125.42,-119.25"/>
<text text-anchor="middle" x="1129.78" y="-124.01" font-family="Times,serif" font-size="14.00">*0</text>
</g>
<!-- node7 -->
<g id="node8" class="node">
<title>node7</title>
<polygon fill="lightgrey" stroke="black" points="1425,-109 1248,-109 1248,-73 1425,-73 1425,-109"/>
<text text-anchor="middle" x="1336.5" y="-87.3" font-family="Times,serif" font-size="14.00">#7 arg0 : int Order : 5</text>
</g>
<!-- node0&#45;&gt;node7 -->
<g id="edge14" class="edge">
<title>node0&#45;&gt;node7</title>
<path fill="none" stroke="black" d="M1172.46,-145.99C1201.01,-135.88 1238.67,-122.99 1270.74,-112.34"/>
<polygon fill="black" stroke="black" points="1272.1,-115.58 1280.49,-109.11 1269.9,-108.93 1272.1,-115.58"/>
<text text-anchor="middle" x="1265.94" y="-119.13" font-family="Times,serif" font-size="14.00">*0</text>
</g>
<!-- node8 -->
<g id="node9" class="node">
<title>node8</title>
<polygon fill="lightgrey" stroke="black" points="1620,-109 1443,-109 1443,-73 1620,-73 1620,-109"/>
<text text-anchor="middle" x="1531.5" y="-87.3" font-family="Times,serif" font-size="14.00">#8 arg3 : int Order : 4</text>
</g>
<!-- node0&#45;&gt;node8 -->
<g id="edge16" class="edge">
<title>node0&#45;&gt;node8</title>
<path fill="none" stroke="black" d="M1208.78,-145.95C1304.82,-128.59 1329.19,-125.65 1425.5,-109 1427.97,-108.57 1430.47,-108.14 1433,-107.7"/>
<polygon fill="black" stroke="black" points="1433.6,-111.15 1442.86,-105.99 1432.41,-104.25 1433.6,-111.15"/>
<text text-anchor="middle" x="1426.44" y="-113.72" font-family="Times,serif" font-size="14.00">*0</text>
</g>
<!-- node9 -->
<g id="node10" class="node">
<title>node9</title>
<polygon fill="lightgrey" stroke="black" points="1815,-109 1638,-109 1638,-73 1815,-73 1815,-109"/>
<text text-anchor="middle" x="1726.5" y="-87.3" font-family="Times,serif" font-size="14.00">#9 arg4 : int Order : 3</text>
</g>
<!-- node0&#45;&gt;node9 -->
<g id="edge18" class="edge">
<title>node0&#45;&gt;node9</title>
<path fill="none" stroke="black" d="M1208.77,-145.96C1390.62,-120.51 1438.33,-133.1 1620.5,-109 1622.98,-108.67 1625.5,-108.32 1628.04,-107.96"/>
<polygon fill="black" stroke="black" points="1628.56,-111.43 1637.94,-106.5 1627.53,-104.5 1628.56,-111.43"/>
<text text-anchor="middle" x="1621.24" y="-113.81" font-family="Times,serif" font-size="14.00">*0</text>
</g>
<!-- node10 -->
<g id="node11" class="node">
<title>node10</title>
<polygon fill="lightgrey" stroke="black" points="2048,-109 1833,-109 1833,-73 2048,-73 2048,-109"/>
<text text-anchor="middle" x="1940.5" y="-87.3" font-family="Times,serif" font-size="14.00">#10 arg7 : double Order : 2</text>
</g>
<!-- node0&#45;&gt;node10 -->
<g id="edge20" class="edge">
<title>node0&#45;&gt;node10</title>
<path fill="none" stroke="black" d="M1208.89,-145.95C1343.25,-129.16 1681.21,-122.91 1815.5,-109 1817.89,-108.75 1820.31,-108.49 1822.75,-108.22"/>
<polygon fill="black" stroke="black" points="1823.33,-111.67 1832.86,-107.04 1822.52,-104.72 1823.33,-111.67"/>
<text text-anchor="middle" x="1815.84" y="-113.84" font-family="Times,serif" font-size="14.00">*0</text>
</g>
<!-- node11 -->
<g id="node12" class="node">
<title>node11</title>
<polygon fill="lightgrey" stroke="black" points="2263,-109 2066,-109 2066,-73 2263,-73 2263,-109"/>
<text text-anchor="middle" x="2164.5" y="-87.3" font-family="Times,serif" font-size="14.00">#11 LabelNode Order : 1</text>
</g>
<!-- node0&#45;&gt;node11 -->
<g id="edge22" class="edge">
<title>node0&#45;&gt;node11</title>
<path fill="none" stroke="red" d="M1208.77,-145.97C1394.54,-124.31 1862.69,-127.79 2048.5,-109 2050.91,-108.76 2053.34,-108.49 2055.8,-108.22"/>
<polygon fill="red" stroke="red" points="2056.49,-111.66 2066,-106.99 2055.65,-104.71 2056.49,-111.66"/>
</g>
<!-- node12 -->
<g id="node13" class="node">
<title>node12</title>
<polygon fill="lightgrey" stroke="black" points="2290,-36 2039,-36 2039,0 2290,0 2290,-36"/>
<text text-anchor="middle" x="2164.5" y="-14.3" font-family="Times,serif" font-size="14.00">#12 ReturnValue : int Order : 10</text>
</g>
<!-- node0&#45;&gt;node12 -->
<g id="edge26" class="edge">
<title>node0&#45;&gt;node12</title>
<path fill="none" stroke="green" d="M1208.85,-145.96C1270.51,-139.5 2222.84,-151.11 2263.5,-109 2274.61,-97.49 2271.91,-86.61 2263.5,-73 2254.83,-58.97 2241.29,-48.46 2226.95,-40.64"/>
<polygon fill="green" stroke="green" points="2228.46,-37.48 2217.96,-36.11 2225.31,-43.73 2228.46,-37.48"/>
</g>
<!-- node1&#45;&gt;node0 -->
<g id="edge1" class="edge">
<title>node1&#45;&gt;node0</title>
<path fill="none" stroke="fuchsia" stroke-width="2" d="M197.01,-106.89C202.93,-107.67 208.8,-108.38 214.5,-109 513.64,-141.43 869.57,-155.32 1035.21,-160.43"/>
<polygon fill="fuchsia" stroke="fuchsia" stroke-width="2" points="1035.26,-163.94 1045.36,-160.74 1035.48,-156.94 1035.26,-163.94"/>
</g>
<!-- node2&#45;&gt;node0 -->
<g id="edge3" class="edge">
<title>node2&#45;&gt;node0</title>
<path fill="none" stroke="fuchsia" stroke-width="2" d="M412.03,-106.78C417.94,-107.58 423.8,-108.33 429.5,-109 645.92,-134.4 901.04,-150.47 1035.26,-157.98"/>
<polygon fill="fuchsia" stroke="fuchsia" stroke-width="2" points="1035.32,-161.49 1045.5,-158.55 1035.71,-154.5 1035.32,-161.49"/>
</g>
<!-- node3&#45;&gt;node0 -->
<g id="edge5" class="edge">
<title>node3&#45;&gt;node0</title>
<path fill="none" stroke="fuchsia" stroke-width="2" d="M607.08,-106.4C612.98,-107.33 618.83,-108.21 624.5,-109 767.48,-129.03 933.82,-145.25 1035.15,-154.51"/>
<polygon fill="fuchsia" stroke="fuchsia" stroke-width="2" points="1035.08,-158.02 1045.36,-155.44 1035.72,-151.05 1035.08,-158.02"/>
</g>
<!-- node3&#45;&gt;node12 -->
<g id="edge24" class="edge">
<title>node3&#45;&gt;node12</title>
<path fill="none" stroke="black" d="M607.24,-73.94C610.02,-73.6 612.78,-73.28 615.5,-73 887.37,-44.58 1703.34,-27.26 2028.55,-21.32"/>
<polygon fill="black" stroke="black" points="2029.04,-24.81 2038.97,-21.13 2028.91,-17.81 2029.04,-24.81"/>
<text text-anchor="middle" x="2021" y="-26.21" font-family="Times,serif" font-size="14.00">*0</text>
</g>
<!-- node4&#45;&gt;node0 -->
<g id="edge7" class="edge">
<title>node4&#45;&gt;node0</title>
<path fill="none" stroke="fuchsia" stroke-width="2" d="M802.14,-106C808.03,-107.02 813.86,-108.03 819.5,-109 892.03,-121.51 973.91,-135.41 1035.2,-145.97"/>
<polygon fill="fuchsia" stroke="fuchsia" stroke-width="2" points="1034.79,-149.46 1045.23,-147.71 1035.98,-142.56 1034.79,-149.46"/>
</g>
<!-- node5&#45;&gt;node0 -->
<g id="edge9" class="edge">
<title>node5&#45;&gt;node0</title>
<path fill="none" stroke="fuchsia" stroke-width="2" d="M971.95,-109.11C1003.42,-119.2 1042.18,-132.03 1073.29,-142.63"/>
<polygon fill="fuchsia" stroke="fuchsia" stroke-width="2" points="1072.51,-146.07 1083.1,-145.99 1074.77,-139.44 1072.51,-146.07"/>
</g>
<!-- node6&#45;&gt;node0 -->
<g id="edge11" class="edge">
<title>node6&#45;&gt;node0</title>
<path fill="none" stroke="fuchsia" stroke-width="2" d="M1134.36,-109.03C1135.21,-117.03 1135.45,-126.77 1135.09,-135.75"/>
<polygon fill="fuchsia" stroke="fuchsia" stroke-width="2" points="1131.59,-135.59 1134.38,-145.81 1138.57,-136.08 1131.59,-135.59"/>
</g>
<!-- node7&#45;&gt;node0 -->
<g id="edge13" class="edge">
<title>node7&#45;&gt;node0</title>
<path fill="none" stroke="fuchsia" stroke-width="2" d="M1292.23,-109.11C1263.62,-119.25 1225.95,-132.14 1193.92,-142.77"/>
<polygon fill="fuchsia" stroke="fuchsia" stroke-width="2" points="1192.58,-139.53 1184.18,-145.99 1194.77,-146.18 1192.58,-139.53"/>
</g>
<!-- node8&#45;&gt;node0 -->
<g id="edge15" class="edge">
<title>node8&#45;&gt;node0</title>
<path fill="none" stroke="fuchsia" stroke-width="2" d="M1443.22,-109.05C1347.05,-125.67 1322.68,-128.62 1226.5,-146 1225,-146.27 1223.49,-146.55 1221.96,-146.82"/>
<polygon fill="fuchsia" stroke="fuchsia" stroke-width="2" points="1220.97,-143.45 1211.76,-148.7 1222.23,-150.33 1220.97,-143.45"/>
</g>
<!-- node9&#45;&gt;node0 -->
<g id="edge17" class="edge">
<title>node9&#45;&gt;node0</title>
<path fill="none" stroke="fuchsia" stroke-width="2" d="M1638.23,-109.04C1456.19,-133.1 1408.48,-120.51 1226.5,-146 1224.99,-146.21 1223.47,-146.43 1221.94,-146.66"/>
<polygon fill="fuchsia" stroke="fuchsia" stroke-width="2" points="1221.03,-143.26 1211.69,-148.25 1222.11,-150.17 1221.03,-143.26"/>
</g>
<!-- node10&#45;&gt;node0 -->
<g id="edge19" class="edge">
<title>node10&#45;&gt;node0</title>
<path fill="none" stroke="fuchsia" stroke-width="2" d="M1833.11,-109.04C1698.42,-122.93 1360.46,-129.19 1226.5,-146 1224.99,-146.19 1223.46,-146.39 1221.93,-146.6"/>
<polygon fill="fuchsia" stroke="fuchsia" stroke-width="2" points="1221.06,-143.19 1211.67,-148.09 1222.07,-150.11 1221.06,-143.19"/>
</g>
<!-- node11&#45;&gt;node0 -->
<g id="edge21" class="edge">
<title>node11&#45;&gt;node0</title>
<path fill="none" stroke="fuchsia" stroke-width="2" d="M2066.23,-109.03C1880.14,-127.8 1411.99,-124.31 1226.5,-146 1224.99,-146.18 1223.46,-146.36 1221.92,-146.56"/>
<polygon fill="fuchsia" stroke="fuchsia" stroke-width="2" points="1221.08,-143.15 1211.66,-148 1222.05,-150.08 1221.08,-143.15"/>
</g>
<!-- node11&#45;&gt;node12 -->
<g id="edge25" class="edge">
<title>node11&#45;&gt;node12</title>
<path fill="none" stroke="red" d="M2164.5,-72.81C2164.5,-64.79 2164.5,-55.05 2164.5,-46.07"/>
<polygon fill="red" stroke="red" points="2168,-46.03 2164.5,-36.03 2161,-46.03 2168,-46.03"/>
</g>
<!-- node12&#45;&gt;node0 -->
<g id="edge23" class="edge">
<title>node12&#45;&gt;node0</title>
<path fill="none" stroke="fuchsia" stroke-width="2" d="M2235.04,-36.11C2253.46,-44.26 2271.03,-56.06 2281.5,-73 2289.91,-86.61 2292.61,-97.49 2281.5,-109 2240.76,-151.19 1284.78,-139.45 1226.5,-146 1224.99,-146.17 1223.46,-146.35 1221.92,-146.54"/>
<polygon fill="fuchsia" stroke="fuchsia" stroke-width="2" points="1221.09,-143.13 1211.65,-147.95 1222.04,-150.06 1221.09,-143.13"/>
</g>
<!-- c0 -->
<!-- c1 -->
<!-- c0&#45;&gt;c1 -->
<g id="edge27" class="edge">
<title>c0&#45;&gt;c1</title>
<path fill="none" stroke="red" d="M2080.39,-164C2091.61,-164 2149.74,-164 2175.36,-164"/>
<polygon fill="red" stroke="red" points="2175.56,-167.5 2185.56,-164 2175.56,-160.5 2175.56,-167.5"/>
<text text-anchor="middle" x="2133" y="-170.8" font-family="Times,serif" font-size="14.00">Control flow</text>
</g>
<!-- c2 -->
<!-- c3 -->
<!-- c2&#45;&gt;c3 -->
<g id="edge28" class="edge">
<title>c2&#45;&gt;c3</title>
<path fill="none" stroke="red" stroke-dasharray="5,2" d="M1873.58,-164C1890.55,-164 2006.71,-164 2044.58,-164"/>
<polygon fill="red" stroke="red" points="2044.67,-167.5 2054.67,-164 2044.67,-160.5 2044.67,-167.5"/>
<text text-anchor="middle" x="1964" y="-170.8" font-family="Times,serif" font-size="14.00">Control flow back edge</text>
</g>
<!-- d0 -->
<!-- d1 -->
<!-- d0&#45;&gt;d1 -->
<g id="edge29" class="edge">
<title>d0&#45;&gt;d1</title>
<path fill="none" stroke="black" d="M1762.36,-164C1771.91,-164 1815.81,-164 1837.42,-164"/>
<polygon fill="black" stroke="black" points="1837.65,-167.5 1847.65,-164 1837.65,-160.5 1837.65,-167.5"/>
<text text-anchor="middle" x="1805" y="-170.8" font-family="Times,serif" font-size="14.00">Data flow</text>
</g>
<!-- d2 -->
<!-- d3 -->
<!-- d2&#45;&gt;d3 -->
<g id="edge30" class="edge">
<title>d2&#45;&gt;d3</title>
<path fill="none" stroke="black" stroke-dasharray="1,5" d="M1636.31,-164C1646.96,-164 1701.96,-164 1726.58,-164"/>
<polygon fill="black" stroke="black" points="1726.65,-167.5 1736.65,-164 1726.65,-160.5 1726.65,-167.5"/>
<text text-anchor="middle" x="1686.5" y="-170.8" font-family="Times,serif" font-size="14.00">Declaration</text>
</g>
<!-- d4 -->
<!-- d5 -->
<!-- d4&#45;&gt;d5 -->
<g id="edge31" class="edge">
<title>d4&#45;&gt;d5</title>
<path fill="none" stroke="blue" d="M1493.6,-164C1506.22,-164 1572.38,-164 1600.18,-164"/>
<polygon fill="blue" stroke="blue" points="1600.34,-167.5 1610.34,-164 1600.34,-160.5 1600.34,-167.5"/>
<text text-anchor="middle" x="1552" y="-170.8" font-family="Times,serif" font-size="14.00">PHI Data flow</text>
</g>
<!-- d6 -->
<!-- d7 -->
<!-- d6&#45;&gt;d7 -->
<g id="edge32" class="edge">
<title>d6&#45;&gt;d7</title>
<path fill="none" stroke="green" d="M1356.5,-164C1368.44,-164 1430.8,-164 1457.43,-164"/>
<polygon fill="green" stroke="green" points="1457.45,-167.5 1467.45,-164 1457.45,-160.5 1457.45,-167.5"/>
<text text-anchor="middle" x="1412" y="-170.8" font-family="Times,serif" font-size="14.00">Memory flow</text>
</g>
<!-- d8 -->
<!-- d9 -->
<!-- d8&#45;&gt;d9 -->
<g id="edge33" class="edge">
<title>d8&#45;&gt;d9</title>
<path fill="none" stroke="fuchsia" d="M1233.61,-164C1244.65,-164 1296.17,-164 1320.16,-164"/>
<polygon fill="fuchsia" stroke="fuchsia" points="1320.4,-167.5 1330.4,-164 1320.4,-160.5 1320.4,-167.5"/>
<text text-anchor="middle" x="1282" y="-170.8" font-family="Times,serif" font-size="14.00">Dominance</text>
</g>
</g>
</svg>
