<?xml version="1.0" encoding="UTF-8" standalone="no"?>
<!DOCTYPE svg PUBLIC "-//W3C//DTD SVG 1.1//EN"
 "http://www.w3.org/Graphics/SVG/1.1/DTD/svg11.dtd">
<!-- Generated by graphviz version 2.43.0 (0)
 -->
<!-- Title: debugoutput Pages: 1 -->
<svg width="2301pt" height="213pt"
 viewBox="0.00 0.00 2300.50 212.80" xmlns="http://www.w3.org/2000/svg" xmlns:xlink="http://www.w3.org/1999/xlink">
<g id="graph0" class="graph" transform="scale(1 1) rotate(0) translate(4 208.8)">
<title>debugoutput</title>
<polygon fill="white" stroke="transparent" points="-4,4 -4,-208.8 2296.5,-208.8 2296.5,4 -4,4"/>
<g id="clust1" class="cluster">
<title>cluster_000</title>
<polygon fill="none" stroke="black" points="1222,-154.2 1222,-196.8 2198,-196.8 2198,-154.2 1222,-154.2"/>
<text text-anchor="middle" x="1710" y="-181.6" font-family="Times,serif" font-size="14.00">Legend</text>
</g>
<!-- node0 -->
<g id="node1" class="node">
<title>node0</title>
<polygon fill="lightgrey" stroke="black" points="1212,-182 1046,-182 1046,-146 1212,-146 1212,-182"/>
<text text-anchor="middle" x="1129" y="-160.3" font-family="Times,serif" font-size="14.00">#0 Method Order : 0</text>
</g>
<!-- node1 -->
<g id="node2" class="node">
<title>node1</title>
<polygon fill="lightgrey" stroke="black" points="186,-109 0,-109 0,-73 186,-73 186,-109"/>
<text text-anchor="middle" x="93" y="-87.3" font-family="Times,serif" font-size="14.00">#1 arg2 : int Order : 11</text>
</g>
<!-- node0&#45;&gt;node1 -->
<g id="edge2" class="edge">
<title>node0&#45;&gt;node1</title>
<path fill="none" stroke="black" d="M1045.99,-161.32C883.08,-157.28 510.29,-144.66 195.95,-110.1"/>
<polygon fill="black" stroke="black" points="196.06,-106.59 185.73,-108.97 195.29,-113.55 196.06,-106.59"/>
<text text-anchor="middle" x="204.68" y="-98.87" font-family="Times,serif" font-size="14.00">*0</text>
</g>
<!-- node2 -->
<g id="node3" class="node">
<title>node2</title>
<polygon fill="lightgrey" stroke="black" points="419.5,-109 204.5,-109 204.5,-73 419.5,-73 419.5,-109"/>
<text text-anchor="middle" x="312" y="-87.3" font-family="Times,serif" font-size="14.00">#2 arg7 : double Order : 10</text>
</g>
<!-- node0&#45;&gt;node2 -->
<g id="edge4" class="edge">
<title>node0&#45;&gt;node2</title>
<path fill="none" stroke="black" d="M1045.76,-158.76C914.82,-151.42 652.86,-134.73 429.28,-110.14"/>
<polygon fill="black" stroke="black" points="429.66,-106.66 419.33,-109.04 428.88,-113.62 429.66,-106.66"/>
<text text-anchor="middle" x="438.28" y="-98.93" font-family="Times,serif" font-size="14.00">*0</text>
</g>
<!-- node3 -->
<g id="node4" class="node">
<title>node3</title>
<polygon fill="lightgrey" stroke="black" points="614.5,-109 437.5,-109 437.5,-73 614.5,-73 614.5,-109"/>
<text text-anchor="middle" x="526" y="-87.3" font-family="Times,serif" font-size="14.00">#3 arg0 : int Order : 9</text>
</g>
<!-- node0&#45;&gt;node3 -->
<g id="edge6" class="edge">
<title>node0&#45;&gt;node3</title>
<path fill="none" stroke="black" d="M1045.87,-156.41C946.12,-147.74 773.87,-131.14 624.69,-110.49"/>
<polygon fill="black" stroke="black" points="624.83,-106.98 614.44,-109.06 623.86,-113.91 624.83,-106.98"/>
<text text-anchor="middle" x="633.56" y="-99.5" font-family="Times,serif" font-size="14.00">*0</text>
</g>
<!-- node4 -->
<g id="node5" class="node">
<title>node4</title>
<polygon fill="lightgrey" stroke="black" points="821.5,-109 632.5,-109 632.5,-73 821.5,-73 821.5,-109"/>
<text text-anchor="middle" x="727" y="-87.3" font-family="Times,serif" font-size="14.00">#4 arg6 : float Order : 8</text>
</g>
<!-- node0&#45;&gt;node4 -->
<g id="edge8" class="edge">
<title>node0&#45;&gt;node4</title>
<path fill="none" stroke="black" d="M1045.54,-149.23C982.27,-138.31 895.09,-122.95 827.91,-110.89"/>
<polygon fill="black" stroke="black" points="828.19,-107.38 817.72,-109.06 826.95,-114.27 828.19,-107.38"/>
<text text-anchor="middle" x="837.06" y="-100.25" font-family="Times,serif" font-size="14.00">*0</text>
</g>
<!-- node5 -->
<g id="node6" class="node">
<title>node5</title>
<polygon fill="lightgrey" stroke="black" points="1016.5,-109 839.5,-109 839.5,-73 1016.5,-73 1016.5,-109"/>
<text text-anchor="middle" x="928" y="-87.3" font-family="Times,serif" font-size="14.00">#5 arg4 : int Order : 7</text>
</g>
<!-- node0&#45;&gt;node5 -->
<g id="edge10" class="edge">
<title>node0&#45;&gt;node5</title>
<path fill="none" stroke="black" d="M1075,-145.99C1045.55,-135.97 1009.33,-123.21 980.17,-112.62"/>
<polygon fill="black" stroke="black" points="981.17,-109.26 970.58,-109.11 978.77,-115.83 981.17,-109.26"/>
<text text-anchor="middle" x="990.5" y="-103.69" font-family="Times,serif" font-size="14.00">*0</text>
</g>
<!-- node6 -->
<g id="node7" class="node">
<title>node6</title>
<polygon fill="lightgrey" stroke="black" points="1223,-109 1035,-109 1035,-73 1223,-73 1223,-109"/>
<text text-anchor="middle" x="1129" y="-87.3" font-family="Times,serif" font-size="14.00">#6 arg5 : long Order : 6</text>
</g>
<!-- node0&#45;&gt;node6 -->
<g id="edge12" class="edge">
<title>node0&#45;&gt;node6</title>
<path fill="none" stroke="black" d="M1123.12,-145.81C1122.28,-137.79 1122.05,-128.05 1122.42,-119.07"/>
<polygon fill="black" stroke="black" points="1125.92,-119.25 1123.14,-109.03 1118.94,-118.75 1125.92,-119.25"/>
<text text-anchor="middle" x="1130.28" y="-124.01" font-family="Times,serif" font-size="14.00">*0</text>
</g>
<!-- node7 -->
<g id="node8" class="node">
<title>node7</title>
<polygon fill="lightgrey" stroke="black" points="1418.5,-109 1241.5,-109 1241.5,-73 1418.5,-73 1418.5,-109"/>
<text text-anchor="middle" x="1330" y="-87.3" font-family="Times,serif" font-size="14.00">#7 arg1 : int Order : 5</text>
</g>
<!-- node0&#45;&gt;node7 -->
<g id="edge14" class="edge">
<title>node0&#45;&gt;node7</title>
<path fill="none" stroke="black" d="M1171.29,-145.99C1198.72,-135.92 1234.92,-123.1 1265.84,-112.48"/>
<polygon fill="black" stroke="black" points="1267.35,-115.66 1275.68,-109.11 1265.09,-109.04 1267.35,-115.66"/>
<text text-anchor="middle" x="1261.27" y="-119.28" font-family="Times,serif" font-size="14.00">*0</text>
</g>
<!-- node8 -->
<g id="node9" class="node">
<title>node8</title>
<polygon fill="lightgrey" stroke="black" points="1625,-109 1437,-109 1437,-73 1625,-73 1625,-109"/>
<text text-anchor="middle" x="1531" y="-87.3" font-family="Times,serif" font-size="14.00">#8 arg9 : int[] Order : 4</text>
</g>
<!-- node0&#45;&gt;node8 -->
<g id="edge16" class="edge">
<title>node0&#45;&gt;node8</title>
<path fill="none" stroke="black" d="M1209.41,-145.93C1281.86,-132.76 1363.83,-118.65 1426.93,-108.17"/>
<polygon fill="black" stroke="black" points="1427.59,-111.6 1436.89,-106.51 1426.45,-104.7 1427.59,-111.6"/>
<text text-anchor="middle" x="1420.39" y="-114.12" font-family="Times,serif" font-size="14.00">*0</text>
</g>
<!-- node9 -->
<g id="node10" class="node">
<title>node9</title>
<polygon fill="lightgrey" stroke="black" points="1820.5,-109 1643.5,-109 1643.5,-73 1820.5,-73 1820.5,-109"/>
<text text-anchor="middle" x="1732" y="-87.3" font-family="Times,serif" font-size="14.00">#9 arg3 : int Order : 3</text>
</g>
<!-- node0&#45;&gt;node9 -->
<g id="edge18" class="edge">
<title>node0&#45;&gt;node9</title>
<path fill="none" stroke="black" d="M1209.27,-145.96C1392.88,-120.35 1441.04,-133.09 1625,-109 1627.72,-108.64 1630.47,-108.27 1633.25,-107.87"/>
<polygon fill="black" stroke="black" points="1634.03,-111.3 1643.42,-106.38 1633.01,-104.37 1634.03,-111.3"/>
<text text-anchor="middle" x="1626.71" y="-113.68" font-family="Times,serif" font-size="14.00">*0</text>
</g>
<!-- node10 -->
<g id="node11" class="node">
<title>node10</title>
<polygon fill="lightgrey" stroke="black" points="2050,-109 1838,-109 1838,-73 2050,-73 2050,-109"/>
<text text-anchor="middle" x="1944" y="-87.3" font-family="Times,serif" font-size="14.00">#10 arg8 : String Order : 2</text>
</g>
<!-- node0&#45;&gt;node10 -->
<g id="edge20" class="edge">
<title>node0&#45;&gt;node10</title>
<path fill="none" stroke="black" d="M1209.4,-145.95C1344.86,-129.06 1685.62,-123.16 1821,-109 1823.22,-108.77 1825.47,-108.52 1827.73,-108.27"/>
<polygon fill="black" stroke="black" points="1828.23,-111.73 1837.76,-107.09 1827.41,-104.78 1828.23,-111.73"/>
<text text-anchor="middle" x="1820.74" y="-113.9" font-family="Times,serif" font-size="14.00">*0</text>
</g>
<!-- node11 -->
<g id="node12" class="node">
<title>node11</title>
<polygon fill="lightgrey" stroke="black" points="2265.5,-109 2068.5,-109 2068.5,-73 2265.5,-73 2265.5,-109"/>
<text text-anchor="middle" x="2167" y="-87.3" font-family="Times,serif" font-size="14.00">#11 LabelNode Order : 1</text>
</g>
<!-- node0&#45;&gt;node11 -->
<g id="edge22" class="edge">
<title>node0&#45;&gt;node11</title>
<path fill="none" stroke="red" d="M1209.27,-145.97C1395.26,-124.29 1863.96,-127.68 2050,-109 2052.7,-108.73 2055.43,-108.44 2058.18,-108.12"/>
<polygon fill="red" stroke="red" points="2058.73,-111.58 2068.25,-106.91 2057.9,-104.63 2058.73,-111.58"/>
</g>
<!-- node12 -->
<g id="node13" class="node">
<title>node12</title>
<polygon fill="lightgrey" stroke="black" points="2292.5,-36 2041.5,-36 2041.5,0 2292.5,0 2292.5,-36"/>
<text text-anchor="middle" x="2167" y="-14.3" font-family="Times,serif" font-size="14.00">#12 ReturnValue : int Order : 12</text>
</g>
<!-- node0&#45;&gt;node12 -->
<g id="edge26" class="edge">
<title>node0&#45;&gt;node12</title>
<path fill="none" stroke="green" d="M1209.35,-145.96C1271.13,-139.49 2225.26,-151.19 2266,-109 2277.11,-97.49 2274.41,-86.61 2266,-73 2257.33,-58.97 2243.79,-48.46 2229.45,-40.64"/>
<polygon fill="green" stroke="green" points="2230.96,-37.48 2220.46,-36.11 2227.81,-43.73 2230.96,-37.48"/>
</g>
<!-- node1&#45;&gt;node0 -->
<g id="edge1" class="edge">
<title>node1&#45;&gt;node0</title>
<path fill="none" stroke="fuchsia" stroke-width="2" d="M186.21,-106.76C192.23,-107.59 198.2,-108.35 204,-109 507.32,-142.95 868.59,-156.15 1035.74,-160.78"/>
<polygon fill="fuchsia" stroke="fuchsia" stroke-width="2" points="1035.65,-164.27 1045.74,-161.05 1035.84,-157.28 1035.65,-164.27"/>
</g>
<!-- node1&#45;&gt;node12 -->
<g id="edge24" class="edge">
<title>node1&#45;&gt;node12</title>
<path fill="none" stroke="black" d="M186.04,-73.95C189.06,-73.6 192.05,-73.28 195,-73 552.23,-38.51 1646.23,-24.3 2031.23,-20.28"/>
<polygon fill="black" stroke="black" points="2031.34,-23.78 2041.3,-20.18 2031.27,-16.78 2031.34,-23.78"/>
<text text-anchor="middle" x="2023.27" y="-25.12" font-family="Times,serif" font-size="14.00">*0</text>
</g>
<!-- node2&#45;&gt;node0 -->
<g id="edge3" class="edge">
<title>node2&#45;&gt;node0</title>
<path fill="none" stroke="fuchsia" stroke-width="2" d="M419.65,-106.93C425.52,-107.67 431.34,-108.37 437,-109 650.84,-132.88 902.58,-149.48 1035.68,-157.5"/>
<polygon fill="fuchsia" stroke="fuchsia" stroke-width="2" points="1035.65,-161 1045.84,-158.11 1036.07,-154.02 1035.65,-161"/>
</g>
<!-- node3&#45;&gt;node0 -->
<g id="edge5" class="edge">
<title>node3&#45;&gt;node0</title>
<path fill="none" stroke="fuchsia" stroke-width="2" d="M614.58,-106.39C620.48,-107.32 626.33,-108.2 632,-109 772.4,-128.77 935.63,-144.98 1035.67,-154.32"/>
<polygon fill="fuchsia" stroke="fuchsia" stroke-width="2" points="1035.47,-157.81 1045.75,-155.25 1036.11,-150.84 1035.47,-157.81"/>
</g>
<!-- node4&#45;&gt;node0 -->
<g id="edge7" class="edge">
<title>node4&#45;&gt;node0</title>
<path fill="none" stroke="fuchsia" stroke-width="2" d="M821.55,-107.69C886.21,-118.88 971.49,-133.93 1035.85,-145.5"/>
<polygon fill="fuchsia" stroke="fuchsia" stroke-width="2" points="1035.53,-149 1045.99,-147.33 1036.77,-142.11 1035.53,-149"/>
</g>
<!-- node5&#45;&gt;node0 -->
<g id="edge9" class="edge">
<title>node5&#45;&gt;node0</title>
<path fill="none" stroke="fuchsia" stroke-width="2" d="M982.32,-109.11C1011.81,-119.16 1048.03,-131.92 1077.14,-142.5"/>
<polygon fill="fuchsia" stroke="fuchsia" stroke-width="2" points="1076.12,-145.85 1086.71,-145.99 1078.52,-139.28 1076.12,-145.85"/>
</g>
<!-- node6&#45;&gt;node0 -->
<g id="edge11" class="edge">
<title>node6&#45;&gt;node0</title>
<path fill="none" stroke="fuchsia" stroke-width="2" d="M1134.86,-109.03C1135.71,-117.03 1135.95,-126.77 1135.59,-135.75"/>
<polygon fill="fuchsia" stroke="fuchsia" stroke-width="2" points="1132.09,-135.59 1134.88,-145.81 1139.07,-136.08 1132.09,-135.59"/>
</g>
<!-- node7&#45;&gt;node0 -->
<g id="edge13" class="edge">
<title>node7&#45;&gt;node0</title>
<path fill="none" stroke="fuchsia" stroke-width="2" d="M1287.42,-109.11C1259.92,-119.2 1223.72,-132.03 1192.83,-142.63"/>
<polygon fill="fuchsia" stroke="fuchsia" stroke-width="2" points="1191.33,-139.45 1183,-145.99 1193.6,-146.07 1191.33,-139.45"/>
</g>
<!-- node8&#45;&gt;node0 -->
<g id="edge15" class="edge">
<title>node8&#45;&gt;node0</title>
<path fill="none" stroke="fuchsia" stroke-width="2" d="M1437.25,-109.05C1377.14,-119.46 1297.53,-133.18 1227,-146 1225.5,-146.27 1223.99,-146.55 1222.46,-146.83"/>
<polygon fill="fuchsia" stroke="fuchsia" stroke-width="2" points="1221.47,-143.45 1212.27,-148.71 1222.73,-150.34 1221.47,-143.45"/>
</g>
<!-- node9&#45;&gt;node0 -->
<g id="edge17" class="edge">
<title>node9&#45;&gt;node0</title>
<path fill="none" stroke="fuchsia" stroke-width="2" d="M1643.26,-108.97C1643.17,-108.98 1643.09,-108.99 1643,-109 1458.95,-133.11 1410.84,-120.33 1227,-146 1225.49,-146.21 1223.97,-146.43 1222.44,-146.66"/>
<polygon fill="fuchsia" stroke="fuchsia" stroke-width="2" points="1221.54,-143.25 1212.19,-148.25 1222.61,-150.17 1221.54,-143.25"/>
</g>
<!-- node10&#45;&gt;node0 -->
<g id="edge19" class="edge">
<title>node10&#45;&gt;node0</title>
<path fill="none" stroke="fuchsia" stroke-width="2" d="M1838.6,-109.04C1702.82,-123.18 1362.06,-129.09 1227,-146 1225.49,-146.19 1223.96,-146.39 1222.43,-146.6"/>
<polygon fill="fuchsia" stroke="fuchsia" stroke-width="2" points="1221.56,-143.19 1212.17,-148.09 1222.57,-150.11 1221.56,-143.19"/>
</g>
<!-- node11&#45;&gt;node0 -->
<g id="edge21" class="edge">
<title>node11&#45;&gt;node0</title>
<path fill="none" stroke="fuchsia" stroke-width="2" d="M2068.28,-108.97C2068.19,-108.98 2068.09,-108.99 2068,-109 1881.87,-127.68 1412.8,-124.28 1227,-146 1225.49,-146.18 1223.96,-146.36 1222.42,-146.56"/>
<polygon fill="fuchsia" stroke="fuchsia" stroke-width="2" points="1221.58,-143.15 1212.16,-148 1222.55,-150.08 1221.58,-143.15"/>
</g>
<!-- node11&#45;&gt;node12 -->
<g id="edge25" class="edge">
<title>node11&#45;&gt;node12</title>
<path fill="none" stroke="red" d="M2167,-72.81C2167,-64.79 2167,-55.05 2167,-46.07"/>
<polygon fill="red" stroke="red" points="2170.5,-46.03 2167,-36.03 2163.5,-46.03 2170.5,-46.03"/>
</g>
<!-- node12&#45;&gt;node0 -->
<g id="edge23" class="edge">
<title>node12&#45;&gt;node0</title>
<path fill="none" stroke="fuchsia" stroke-width="2" d="M2237.54,-36.11C2255.96,-44.26 2273.53,-56.06 2284,-73 2292.41,-86.61 2295.11,-97.49 2284,-109 2243.18,-151.27 1285.39,-139.44 1227,-146 1225.49,-146.17 1223.96,-146.35 1222.42,-146.54"/>
<polygon fill="fuchsia" stroke="fuchsia" stroke-width="2" points="1221.59,-143.13 1212.15,-147.95 1222.54,-150.06 1221.59,-143.13"/>
</g>
<!-- c0 -->
<!-- c1 -->
<!-- c0&#45;&gt;c1 -->
<g id="edge27" class="edge">
<title>c0&#45;&gt;c1</title>
<path fill="none" stroke="red" d="M2080.89,-164C2092.11,-164 2150.24,-164 2175.86,-164"/>
<polygon fill="red" stroke="red" points="2176.06,-167.5 2186.06,-164 2176.06,-160.5 2176.06,-167.5"/>
<text text-anchor="middle" x="2133.5" y="-170.8" font-family="Times,serif" font-size="14.00">Control flow</text>
</g>
<!-- c2 -->
<!-- c3 -->
<!-- c2&#45;&gt;c3 -->
<g id="edge28" class="edge">
<title>c2&#45;&gt;c3</title>
<path fill="none" stroke="red" stroke-dasharray="5,2" d="M1874.08,-164C1891.05,-164 2007.21,-164 2045.08,-164"/>
<polygon fill="red" stroke="red" points="2045.17,-167.5 2055.17,-164 2045.17,-160.5 2045.17,-167.5"/>
<text text-anchor="middle" x="1964.5" y="-170.8" font-family="Times,serif" font-size="14.00">Control flow back edge</text>
</g>
<!-- d0 -->
<!-- d1 -->
<!-- d0&#45;&gt;d1 -->
<g id="edge29" class="edge">
<title>d0&#45;&gt;d1</title>
<path fill="none" stroke="black" d="M1762.86,-164C1772.41,-164 1816.31,-164 1837.92,-164"/>
<polygon fill="black" stroke="black" points="1838.15,-167.5 1848.15,-164 1838.15,-160.5 1838.15,-167.5"/>
<text text-anchor="middle" x="1805.5" y="-170.8" font-family="Times,serif" font-size="14.00">Data flow</text>
</g>
<!-- d2 -->
<!-- d3 -->
<!-- d2&#45;&gt;d3 -->
<g id="edge30" class="edge">
<title>d2&#45;&gt;d3</title>
<path fill="none" stroke="black" stroke-dasharray="1,5" d="M1636.81,-164C1647.46,-164 1702.46,-164 1727.08,-164"/>
<polygon fill="black" stroke="black" points="1727.15,-167.5 1737.15,-164 1727.15,-160.5 1727.15,-167.5"/>
<text text-anchor="middle" x="1687" y="-170.8" font-family="Times,serif" font-size="14.00">Declaration</text>
</g>
<!-- d4 -->
<!-- d5 -->
<!-- d4&#45;&gt;d5 -->
<g id="edge31" class="edge">
<title>d4&#45;&gt;d5</title>
<path fill="none" stroke="blue" d="M1494.1,-164C1506.72,-164 1572.88,-164 1600.68,-164"/>
<polygon fill="blue" stroke="blue" points="1600.84,-167.5 1610.84,-164 1600.84,-160.5 1600.84,-167.5"/>
<text text-anchor="middle" x="1552.5" y="-170.8" font-family="Times,serif" font-size="14.00">PHI Data flow</text>
</g>
<!-- d6 -->
<!-- d7 -->
<!-- d6&#45;&gt;d7 -->
<g id="edge32" class="edge">
<title>d6&#45;&gt;d7</title>
<path fill="none" stroke="green" d="M1357,-164C1368.94,-164 1431.3,-164 1457.93,-164"/>
<polygon fill="green" stroke="green" points="1457.95,-167.5 1467.95,-164 1457.95,-160.5 1457.95,-167.5"/>
<text text-anchor="middle" x="1412.5" y="-170.8" font-family="Times,serif" font-size="14.00">Memory flow</text>
</g>
<!-- d8 -->
<!-- d9 -->
<!-- d8&#45;&gt;d9 -->
<g id="edge33" class="edge">
<title>d8&#45;&gt;d9</title>
<path fill="none" stroke="fuchsia" d="M1234.11,-164C1245.15,-164 1296.67,-164 1320.66,-164"/>
<polygon fill="fuchsia" stroke="fuchsia" points="1320.9,-167.5 1330.9,-164 1320.9,-160.5 1320.9,-167.5"/>
<text text-anchor="middle" x="1282.5" y="-170.8" font-family="Times,serif" font-size="14.00">Dominance</text>
</g>
</g>
</svg>
