<?xml version="1.0" encoding="UTF-8" standalone="no"?>
<!DOCTYPE svg PUBLIC "-//W3C//DTD SVG 1.1//EN"
 "http://www.w3.org/Graphics/SVG/1.1/DTD/svg11.dtd">
<!-- Generated by graphviz version 2.43.0 (0)
 -->
<!-- Title: debugoutput Pages: 1 -->
<svg width="2308pt" height="213pt"
 viewBox="0.00 0.00 2308.49 212.80" xmlns="http://www.w3.org/2000/svg" xmlns:xlink="http://www.w3.org/1999/xlink">
<g id="graph0" class="graph" transform="scale(1 1) rotate(0) translate(4 208.8)">
<title>debugoutput</title>
<polygon fill="white" stroke="transparent" points="-4,4 -4,-208.8 2304.49,-208.8 2304.49,4 -4,4"/>
<g id="clust1" class="cluster">
<title>cluster_000</title>
<polygon fill="none" stroke="black" points="1256,-154.2 1256,-196.8 2232,-196.8 2232,-154.2 1256,-154.2"/>
<text text-anchor="middle" x="1744" y="-181.6" font-family="Times,serif" font-size="14.00">Legend</text>
</g>
<!-- node0 -->
<g id="node1" class="node">
<title>node0</title>
<polygon fill="lightgrey" stroke="black" points="1246,-182 1080,-182 1080,-146 1246,-146 1246,-182"/>
<text text-anchor="middle" x="1163" y="-160.3" font-family="Times,serif" font-size="14.00">#0 Method Order : 0</text>
</g>
<!-- node1 -->
<g id="node2" class="node">
<title>node1</title>
<polygon fill="lightgrey" stroke="black" points="212,-109 0,-109 0,-73 212,-73 212,-109"/>
<text text-anchor="middle" x="106" y="-87.3" font-family="Times,serif" font-size="14.00">#1 arg8 : String Order : 12</text>
</g>
<!-- node0&#45;&gt;node1 -->
<g id="edge2" class="edge">
<title>node0&#45;&gt;node1</title>
<path fill="none" stroke="black" d="M1079.69,-160.88C915.68,-156.03 539.59,-142 222.02,-110.02"/>
<polygon fill="black" stroke="black" points="222,-106.5 211.7,-108.97 221.29,-113.46 222,-106.5"/>
<text text-anchor="middle" x="230.59" y="-98.69" font-family="Times,serif" font-size="14.00">*0</text>
</g>
<!-- node2 -->
<g id="node3" class="node">
<title>node2</title>
<polygon fill="lightgrey" stroke="black" points="416,-109 230,-109 230,-73 416,-73 416,-109"/>
<text text-anchor="middle" x="323" y="-87.3" font-family="Times,serif" font-size="14.00">#2 arg4 : int Order : 11</text>
</g>
<!-- node0&#45;&gt;node2 -->
<g id="edge4" class="edge">
<title>node0&#45;&gt;node2</title>
<path fill="none" stroke="black" d="M1079.77,-159.67C943.37,-153.46 663.87,-138.14 425.96,-110.18"/>
<polygon fill="black" stroke="black" points="426.08,-106.67 415.73,-108.97 425.25,-113.62 426.08,-106.67"/>
<text text-anchor="middle" x="434.73" y="-99.01" font-family="Times,serif" font-size="14.00">*0</text>
</g>
<!-- node3 -->
<g id="node4" class="node">
<title>node3</title>
<polygon fill="lightgrey" stroke="black" points="649.5,-109 434.5,-109 434.5,-73 649.5,-73 649.5,-109"/>
<text text-anchor="middle" x="542" y="-87.3" font-family="Times,serif" font-size="14.00">#3 arg7 : double Order : 10</text>
</g>
<!-- node0&#45;&gt;node3 -->
<g id="edge6" class="edge">
<title>node0&#45;&gt;node3</title>
<path fill="none" stroke="black" d="M1079.67,-155.7C980.14,-146.32 808.6,-129.01 659.67,-110.34"/>
<polygon fill="black" stroke="black" points="659.8,-106.83 649.44,-109.06 658.93,-113.78 659.8,-106.83"/>
<text text-anchor="middle" x="668.48" y="-99.24" font-family="Times,serif" font-size="14.00">*0</text>
</g>
<!-- node4 -->
<g id="node5" class="node">
<title>node4</title>
<polygon fill="lightgrey" stroke="black" points="844.5,-109 667.5,-109 667.5,-73 844.5,-73 844.5,-109"/>
<text text-anchor="middle" x="756" y="-87.3" font-family="Times,serif" font-size="14.00">#4 arg1 : int Order : 9</text>
</g>
<!-- node0&#45;&gt;node4 -->
<g id="edge8" class="edge">
<title>node0&#45;&gt;node4</title>
<path fill="none" stroke="black" d="M1079.56,-149.39C1014.34,-138.28 923.56,-122.48 854.73,-110.27"/>
<polygon fill="black" stroke="black" points="855.19,-106.8 844.74,-108.49 853.97,-113.69 855.19,-106.8"/>
<text text-anchor="middle" x="864.06" y="-99.64" font-family="Times,serif" font-size="14.00">*0</text>
</g>
<!-- node5 -->
<g id="node6" class="node">
<title>node5</title>
<polygon fill="lightgrey" stroke="black" points="1051,-109 863,-109 863,-73 1051,-73 1051,-109"/>
<text text-anchor="middle" x="957" y="-87.3" font-family="Times,serif" font-size="14.00">#5 arg5 : long Order : 8</text>
</g>
<!-- node0&#45;&gt;node5 -->
<g id="edge10" class="edge">
<title>node0&#45;&gt;node5</title>
<path fill="none" stroke="black" d="M1107.8,-145.99C1077.52,-135.92 1040.2,-123.1 1010.24,-112.48"/>
<polygon fill="black" stroke="black" points="1011.38,-109.17 1000.78,-109.11 1009.03,-115.76 1011.38,-109.17"/>
<text text-anchor="middle" x="1020.69" y="-103.53" font-family="Times,serif" font-size="14.00">*0</text>
</g>
<!-- node6 -->
<g id="node7" class="node">
<title>node6</title>
<polygon fill="lightgrey" stroke="black" points="1257,-109 1069,-109 1069,-73 1257,-73 1257,-109"/>
<text text-anchor="middle" x="1163" y="-87.3" font-family="Times,serif" font-size="14.00">#6 arg9 : int[] Order : 7</text>
</g>
<!-- node0&#45;&gt;node6 -->
<g id="edge12" class="edge">
<title>node0&#45;&gt;node6</title>
<path fill="none" stroke="black" d="M1157.12,-145.81C1156.28,-137.79 1156.05,-128.05 1156.42,-119.07"/>
<polygon fill="black" stroke="black" points="1159.92,-119.25 1157.14,-109.03 1152.94,-118.75 1159.92,-119.25"/>
<text text-anchor="middle" x="1164.28" y="-124.01" font-family="Times,serif" font-size="14.00">*0</text>
</g>
<!-- node7 -->
<g id="node8" class="node">
<title>node7</title>
<polygon fill="lightgrey" stroke="black" points="1452.5,-109 1275.5,-109 1275.5,-73 1452.5,-73 1452.5,-109"/>
<text text-anchor="middle" x="1364" y="-87.3" font-family="Times,serif" font-size="14.00">#7 arg0 : int Order : 6</text>
</g>
<!-- node0&#45;&gt;node7 -->
<g id="edge14" class="edge">
<title>node0&#45;&gt;node7</title>
<path fill="none" stroke="black" d="M1205.29,-145.99C1232.72,-135.92 1268.92,-123.1 1299.84,-112.48"/>
<polygon fill="black" stroke="black" points="1301.35,-115.66 1309.68,-109.11 1299.09,-109.04 1301.35,-115.66"/>
<text text-anchor="middle" x="1295.27" y="-119.28" font-family="Times,serif" font-size="14.00">*0</text>
</g>
<!-- node8 -->
<g id="node9" class="node">
<title>node8</title>
<polygon fill="lightgrey" stroke="black" points="1647.5,-109 1470.5,-109 1470.5,-73 1647.5,-73 1647.5,-109"/>
<text text-anchor="middle" x="1559" y="-87.3" font-family="Times,serif" font-size="14.00">#8 arg2 : int Order : 4</text>
</g>
<!-- node0&#45;&gt;node8 -->
<g id="edge16" class="edge">
<title>node0&#45;&gt;node8</title>
<path fill="none" stroke="black" d="M1243.21,-145.96C1255.14,-143.78 1372.13,-123.23 1460.31,-108.13"/>
<polygon fill="black" stroke="black" points="1461.1,-111.55 1470.37,-106.41 1459.92,-104.65 1461.1,-111.55"/>
<text text-anchor="middle" x="1453.92" y="-114.1" font-family="Times,serif" font-size="14.00">*0</text>
</g>
<!-- node9 -->
<g id="node10" class="node">
<title>node9</title>
<polygon fill="lightgrey" stroke="black" points="1842.5,-109 1665.5,-109 1665.5,-73 1842.5,-73 1842.5,-109"/>
<text text-anchor="middle" x="1754" y="-87.3" font-family="Times,serif" font-size="14.00">#9 arg3 : int Order : 3</text>
</g>
<!-- node0&#45;&gt;node9 -->
<g id="edge18" class="edge">
<title>node0&#45;&gt;node9</title>
<path fill="none" stroke="black" d="M1243.26,-145.96C1422.03,-120.8 1468.92,-132.83 1648,-109 1650.48,-108.67 1653,-108.32 1655.54,-107.96"/>
<polygon fill="black" stroke="black" points="1656.06,-111.42 1665.43,-106.49 1655.03,-104.5 1656.06,-111.42"/>
<text text-anchor="middle" x="1648.74" y="-113.81" font-family="Times,serif" font-size="14.00">*0</text>
</g>
<!-- node10 -->
<g id="node11" class="node">
<title>node10</title>
<polygon fill="lightgrey" stroke="black" points="2059,-109 1861,-109 1861,-73 2059,-73 2059,-109"/>
<text text-anchor="middle" x="1960" y="-87.3" font-family="Times,serif" font-size="14.00">#10 arg6 : float Order : 2</text>
</g>
<!-- node0&#45;&gt;node10 -->
<g id="edge20" class="edge">
<title>node0&#45;&gt;node10</title>
<path fill="none" stroke="black" d="M1243.39,-145.95C1508.15,-112.67 1577.54,-138.01 1843,-109 1845.56,-108.72 1848.15,-108.42 1850.76,-108.11"/>
<polygon fill="black" stroke="black" points="1851.45,-111.55 1860.94,-106.83 1850.58,-104.61 1851.45,-111.55"/>
<text text-anchor="middle" x="1844.01" y="-113.78" font-family="Times,serif" font-size="14.00">*0</text>
</g>
<!-- node11 -->
<g id="node12" class="node">
<title>node11</title>
<polygon fill="lightgrey" stroke="black" points="2274.5,-109 2077.5,-109 2077.5,-73 2274.5,-73 2274.5,-109"/>
<text text-anchor="middle" x="2176" y="-87.3" font-family="Times,serif" font-size="14.00">#11 LabelNode Order : 1</text>
</g>
<!-- node0&#45;&gt;node11 -->
<g id="edge22" class="edge">
<title>node0&#45;&gt;node11</title>
<path fill="none" stroke="red" d="M1243.26,-145.97C1423.72,-124.81 1878.49,-127.24 2059,-109 2061.7,-108.73 2064.43,-108.43 2067.18,-108.12"/>
<polygon fill="red" stroke="red" points="2067.74,-111.58 2077.24,-106.9 2066.9,-104.63 2067.74,-111.58"/>
</g>
<!-- node12 -->
<g id="node13" class="node">
<title>node12</title>
<polygon fill="lightgrey" stroke="black" points="2297,-36 2055,-36 2055,0 2297,0 2297,-36"/>
<text text-anchor="middle" x="2176" y="-14.3" font-family="Times,serif" font-size="14.00">#12 ReturnValue : int Order : 5</text>
</g>
<!-- node0&#45;&gt;node12 -->
<g id="edge26" class="edge">
<title>node0&#45;&gt;node12</title>
<path fill="none" stroke="green" d="M1243.34,-145.96C1303.66,-139.61 2235.24,-150.21 2275,-109 2286.11,-97.49 2283.41,-86.61 2275,-73 2266.33,-58.97 2252.79,-48.46 2238.45,-40.64"/>
<polygon fill="green" stroke="green" points="2239.96,-37.48 2229.46,-36.11 2236.81,-43.73 2239.96,-37.48"/>
</g>
<!-- node1&#45;&gt;node0 -->
<g id="edge1" class="edge">
<title>node1&#45;&gt;node0</title>
<path fill="none" stroke="fuchsia" stroke-width="2" d="M212.16,-106.99C218.2,-107.72 224.18,-108.4 230,-109 536.82,-140.41 901.86,-154.83 1069.95,-160.26"/>
<polygon fill="fuchsia" stroke="fuchsia" stroke-width="2" points="1069.89,-163.76 1080,-160.58 1070.12,-156.76 1069.89,-163.76"/>
</g>
<!-- node2&#45;&gt;node0 -->
<g id="edge3" class="edge">
<title>node2&#45;&gt;node0</title>
<path fill="none" stroke="fuchsia" stroke-width="2" d="M416.22,-106.66C422.24,-107.52 428.21,-108.31 434,-109 661.73,-136.25 930.76,-151.76 1069.67,-158.64"/>
<polygon fill="fuchsia" stroke="fuchsia" stroke-width="2" points="1069.69,-162.15 1079.85,-159.15 1070.04,-155.16 1069.69,-162.15"/>
</g>
<!-- node3&#45;&gt;node0 -->
<g id="edge5" class="edge">
<title>node3&#45;&gt;node0</title>
<path fill="none" stroke="fuchsia" stroke-width="2" d="M649.67,-106.73C655.54,-107.52 661.35,-108.28 667,-109 807.17,-126.76 969.73,-143.44 1069.52,-153.44"/>
<polygon fill="fuchsia" stroke="fuchsia" stroke-width="2" points="1069.28,-156.93 1079.58,-154.45 1069.98,-149.97 1069.28,-156.93"/>
</g>
<!-- node4&#45;&gt;node0 -->
<g id="edge7" class="edge">
<title>node4&#45;&gt;node0</title>
<path fill="none" stroke="fuchsia" stroke-width="2" d="M844.64,-106.49C911.17,-117.84 1002,-133.67 1069.65,-145.69"/>
<polygon fill="fuchsia" stroke="fuchsia" stroke-width="2" points="1069.42,-149.2 1079.87,-147.51 1070.64,-142.31 1069.42,-149.2"/>
</g>
<!-- node5&#45;&gt;node0 -->
<g id="edge9" class="edge">
<title>node5&#45;&gt;node0</title>
<path fill="none" stroke="fuchsia" stroke-width="2" d="M1012.52,-109.11C1042.86,-119.2 1080.17,-132.03 1110.08,-142.63"/>
<polygon fill="fuchsia" stroke="fuchsia" stroke-width="2" points="1108.92,-145.94 1119.52,-145.99 1111.27,-139.34 1108.92,-145.94"/>
</g>
<!-- node6&#45;&gt;node0 -->
<g id="edge11" class="edge">
<title>node6&#45;&gt;node0</title>
<path fill="none" stroke="fuchsia" stroke-width="2" d="M1168.86,-109.03C1169.71,-117.03 1169.95,-126.77 1169.59,-135.75"/>
<polygon fill="fuchsia" stroke="fuchsia" stroke-width="2" points="1166.09,-135.59 1168.88,-145.81 1173.07,-136.08 1166.09,-135.59"/>
</g>
<!-- node7&#45;&gt;node0 -->
<g id="edge13" class="edge">
<title>node7&#45;&gt;node0</title>
<path fill="none" stroke="fuchsia" stroke-width="2" d="M1321.42,-109.11C1293.92,-119.2 1257.72,-132.03 1226.83,-142.63"/>
<polygon fill="fuchsia" stroke="fuchsia" stroke-width="2" points="1225.33,-139.45 1217,-145.99 1227.6,-146.07 1225.33,-139.45"/>
</g>
<!-- node8&#45;&gt;node0 -->
<g id="edge15" class="edge">
<title>node8&#45;&gt;node0</title>
<path fill="none" stroke="fuchsia" stroke-width="2" d="M1470.38,-108.76C1386.35,-123.89 1271.53,-144.07 1261,-146 1259.5,-146.27 1257.99,-146.55 1256.46,-146.83"/>
<polygon fill="fuchsia" stroke="fuchsia" stroke-width="2" points="1255.46,-143.46 1246.27,-148.73 1256.74,-150.34 1255.46,-143.46"/>
</g>
<!-- node8&#45;&gt;node12 -->
<g id="edge24" class="edge">
<title>node8&#45;&gt;node12</title>
<path fill="none" stroke="black" d="M1647.63,-74.35C1650.79,-73.88 1653.92,-73.43 1657,-73 1788.59,-54.76 1939.72,-39.7 2044.83,-30.16"/>
<polygon fill="black" stroke="black" points="2045.21,-33.64 2054.86,-29.25 2044.58,-26.67 2045.21,-33.64"/>
<text text-anchor="middle" x="2037.57" y="-35.6" font-family="Times,serif" font-size="14.00">*0</text>
</g>
<!-- node9&#45;&gt;node0 -->
<g id="edge17" class="edge">
<title>node9&#45;&gt;node0</title>
<path fill="none" stroke="fuchsia" stroke-width="2" d="M1665.74,-109.03C1486.78,-132.83 1439.9,-120.8 1261,-146 1259.49,-146.21 1257.97,-146.43 1256.44,-146.66"/>
<polygon fill="fuchsia" stroke="fuchsia" stroke-width="2" points="1255.53,-143.26 1246.19,-148.26 1256.62,-150.18 1255.53,-143.26"/>
</g>
<!-- node10&#45;&gt;node0 -->
<g id="edge19" class="edge">
<title>node10&#45;&gt;node0</title>
<path fill="none" stroke="fuchsia" stroke-width="2" d="M1860.61,-109.04C1595.34,-138 1525.95,-112.66 1261,-146 1259.49,-146.19 1257.96,-146.39 1256.43,-146.6"/>
<polygon fill="fuchsia" stroke="fuchsia" stroke-width="2" points="1255.56,-143.19 1246.17,-148.1 1256.57,-150.12 1255.56,-143.19"/>
</g>
<!-- node11&#45;&gt;node0 -->
<g id="edge21" class="edge">
<title>node11&#45;&gt;node0</title>
<path fill="none" stroke="fuchsia" stroke-width="2" d="M2077.28,-108.97C2077.19,-108.98 2077.09,-108.99 2077,-109 1896.4,-127.25 1441.28,-124.81 1261,-146 1259.49,-146.18 1257.96,-146.37 1256.42,-146.57"/>
<polygon fill="fuchsia" stroke="fuchsia" stroke-width="2" points="1255.58,-143.15 1246.16,-148.01 1256.55,-150.08 1255.58,-143.15"/>
</g>
<!-- node11&#45;&gt;node12 -->
<g id="edge25" class="edge">
<title>node11&#45;&gt;node12</title>
<path fill="none" stroke="red" d="M2176,-72.81C2176,-64.79 2176,-55.05 2176,-46.07"/>
<polygon fill="red" stroke="red" points="2179.5,-46.03 2176,-36.03 2172.5,-46.03 2179.5,-46.03"/>
</g>
<!-- node12&#45;&gt;node0 -->
<g id="edge23" class="edge">
<title>node12&#45;&gt;node0</title>
<path fill="none" stroke="fuchsia" stroke-width="2" d="M2246.54,-36.11C2264.96,-44.26 2282.53,-56.06 2293,-73 2301.41,-86.61 2304.11,-97.49 2293,-109 2253.17,-150.29 1318.01,-139.57 1261,-146 1259.49,-146.17 1257.96,-146.35 1256.42,-146.55"/>
<polygon fill="fuchsia" stroke="fuchsia" stroke-width="2" points="1255.59,-143.13 1246.16,-147.95 1256.54,-150.06 1255.59,-143.13"/>
</g>
<!-- c0 -->
<!-- c1 -->
<!-- c0&#45;&gt;c1 -->
<g id="edge27" class="edge">
<title>c0&#45;&gt;c1</title>
<path fill="none" stroke="red" d="M2114.89,-164C2126.11,-164 2184.24,-164 2209.86,-164"/>
<polygon fill="red" stroke="red" points="2210.06,-167.5 2220.06,-164 2210.06,-160.5 2210.06,-167.5"/>
<text text-anchor="middle" x="2167.5" y="-170.8" font-family="Times,serif" font-size="14.00">Control flow</text>
</g>
<!-- c2 -->
<!-- c3 -->
<!-- c2&#45;&gt;c3 -->
<g id="edge28" class="edge">
<title>c2&#45;&gt;c3</title>
<path fill="none" stroke="red" stroke-dasharray="5,2" d="M1908.08,-164C1925.05,-164 2041.21,-164 2079.08,-164"/>
<polygon fill="red" stroke="red" points="2079.17,-167.5 2089.17,-164 2079.17,-160.5 2079.17,-167.5"/>
<text text-anchor="middle" x="1998.5" y="-170.8" font-family="Times,serif" font-size="14.00">Control flow back edge</text>
</g>
<!-- d0 -->
<!-- d1 -->
<!-- d0&#45;&gt;d1 -->
<g id="edge29" class="edge">
<title>d0&#45;&gt;d1</title>
<path fill="none" stroke="black" d="M1796.86,-164C1806.41,-164 1850.31,-164 1871.92,-164"/>
<polygon fill="black" stroke="black" points="1872.15,-167.5 1882.15,-164 1872.15,-160.5 1872.15,-167.5"/>
<text text-anchor="middle" x="1839.5" y="-170.8" font-family="Times,serif" font-size="14.00">Data flow</text>
</g>
<!-- d2 -->
<!-- d3 -->
<!-- d2&#45;&gt;d3 -->
<g id="edge30" class="edge">
<title>d2&#45;&gt;d3</title>
<path fill="none" stroke="black" stroke-dasharray="1,5" d="M1670.81,-164C1681.46,-164 1736.46,-164 1761.08,-164"/>
<polygon fill="black" stroke="black" points="1761.15,-167.5 1771.15,-164 1761.15,-160.5 1761.15,-167.5"/>
<text text-anchor="middle" x="1721" y="-170.8" font-family="Times,serif" font-size="14.00">Declaration</text>
</g>
<!-- d4 -->
<!-- d5 -->
<!-- d4&#45;&gt;d5 -->
<g id="edge31" class="edge">
<title>d4&#45;&gt;d5</title>
<path fill="none" stroke="blue" d="M1528.1,-164C1540.72,-164 1606.88,-164 1634.68,-164"/>
<polygon fill="blue" stroke="blue" points="1634.84,-167.5 1644.84,-164 1634.84,-160.5 1634.84,-167.5"/>
<text text-anchor="middle" x="1586.5" y="-170.8" font-family="Times,serif" font-size="14.00">PHI Data flow</text>
</g>
<!-- d6 -->
<!-- d7 -->
<!-- d6&#45;&gt;d7 -->
<g id="edge32" class="edge">
<title>d6&#45;&gt;d7</title>
<path fill="none" stroke="green" d="M1391,-164C1402.94,-164 1465.3,-164 1491.93,-164"/>
<polygon fill="green" stroke="green" points="1491.95,-167.5 1501.95,-164 1491.95,-160.5 1491.95,-167.5"/>
<text text-anchor="middle" x="1446.5" y="-170.8" font-family="Times,serif" font-size="14.00">Memory flow</text>
</g>
<!-- d8 -->
<!-- d9 -->
<!-- d8&#45;&gt;d9 -->
<g id="edge33" class="edge">
<title>d8&#45;&gt;d9</title>
<path fill="none" stroke="fuchsia" d="M1268.11,-164C1279.15,-164 1330.67,-164 1354.66,-164"/>
<polygon fill="fuchsia" stroke="fuchsia" points="1354.9,-167.5 1364.9,-164 1354.9,-160.5 1354.9,-167.5"/>
<text text-anchor="middle" x="1316.5" y="-170.8" font-family="Times,serif" font-size="14.00">Dominance</text>
</g>
</g>
</svg>
