<?xml version="1.0" encoding="UTF-8" standalone="no"?>
<!DOCTYPE svg PUBLIC "-//W3C//DTD SVG 1.1//EN"
 "http://www.w3.org/Graphics/SVG/1.1/DTD/svg11.dtd">
<!-- Generated by graphviz version 2.43.0 (0)
 -->
<!-- Title: debugoutput Pages: 1 -->
<svg width="2300pt" height="213pt"
 viewBox="0.00 0.00 2299.50 212.80" xmlns="http://www.w3.org/2000/svg" xmlns:xlink="http://www.w3.org/1999/xlink">
<g id="graph0" class="graph" transform="scale(1 1) rotate(0) translate(4 208.8)">
<title>debugoutput</title>
<polygon fill="white" stroke="transparent" points="-4,4 -4,-208.8 2295.5,-208.8 2295.5,4 -4,4"/>
<g id="clust1" class="cluster">
<title>cluster_000</title>
<polygon fill="none" stroke="black" points="1210,-154.2 1210,-196.8 2186,-196.8 2186,-154.2 1210,-154.2"/>
<text text-anchor="middle" x="1698" y="-181.6" font-family="Times,serif" font-size="14.00">Legend</text>
</g>
<!-- node0 -->
<g id="node1" class="node">
<title>node0</title>
<polygon fill="lightgrey" stroke="black" points="1200,-182 1034,-182 1034,-146 1200,-146 1200,-182"/>
<text text-anchor="middle" x="1117" y="-160.3" font-family="Times,serif" font-size="14.00">#0 Method Order : 0</text>
</g>
<!-- node1 -->
<g id="node2" class="node">
<title>node1</title>
<polygon fill="lightgrey" stroke="black" points="186,-109 0,-109 0,-73 186,-73 186,-109"/>
<text text-anchor="middle" x="93" y="-87.3" font-family="Times,serif" font-size="14.00">#1 arg2 : int Order : 11</text>
</g>
<!-- node0&#45;&gt;node1 -->
<g id="edge2" class="edge">
<title>node0&#45;&gt;node1</title>
<path fill="none" stroke="black" d="M1033.75,-161.23C872.22,-157.06 505.31,-144.24 195.79,-110.09"/>
<polygon fill="black" stroke="black" points="196.06,-106.6 185.73,-108.97 195.28,-113.55 196.06,-106.6"/>
<text text-anchor="middle" x="204.68" y="-98.87" font-family="Times,serif" font-size="14.00">*0</text>
</g>
<!-- node2 -->
<g id="node3" class="node">
<title>node2</title>
<polygon fill="lightgrey" stroke="black" points="401.5,-109 204.5,-109 204.5,-73 401.5,-73 401.5,-109"/>
<text text-anchor="middle" x="303" y="-87.3" font-family="Times,serif" font-size="14.00">#2 arg5 : long Order : 10</text>
</g>
<!-- node0&#45;&gt;node2 -->
<g id="edge4" class="edge">
<title>node0&#45;&gt;node2</title>
<path fill="none" stroke="black" d="M1033.86,-159.14C902.06,-152.3 637.19,-136.27 411.38,-110.21"/>
<polygon fill="black" stroke="black" points="411.67,-106.72 401.33,-109.04 410.86,-113.67 411.67,-106.72"/>
<text text-anchor="middle" x="420.32" y="-99.04" font-family="Times,serif" font-size="14.00">*0</text>
</g>
<!-- node3 -->
<g id="node4" class="node">
<title>node3</title>
<polygon fill="lightgrey" stroke="black" points="608.5,-109 419.5,-109 419.5,-73 608.5,-73 608.5,-109"/>
<text text-anchor="middle" x="514" y="-87.3" font-family="Times,serif" font-size="14.00">#3 arg6 : float Order : 9</text>
</g>
<!-- node0&#45;&gt;node3 -->
<g id="edge6" class="edge">
<title>node0&#45;&gt;node3</title>
<path fill="none" stroke="black" d="M1033.66,-155.97C935,-146.92 765.76,-130 618.82,-110.32"/>
<polygon fill="black" stroke="black" points="619.11,-106.83 608.73,-108.96 618.17,-113.77 619.11,-106.83"/>
<text text-anchor="middle" x="627.82" y="-99.31" font-family="Times,serif" font-size="14.00">*0</text>
</g>
<!-- node4 -->
<g id="node5" class="node">
<title>node4</title>
<polygon fill="lightgrey" stroke="black" points="815,-109 627,-109 627,-73 815,-73 815,-109"/>
<text text-anchor="middle" x="721" y="-87.3" font-family="Times,serif" font-size="14.00">#4 arg9 : int[] Order : 8</text>
</g>
<!-- node0&#45;&gt;node4 -->
<g id="edge8" class="edge">
<title>node0&#45;&gt;node4</title>
<path fill="none" stroke="black" d="M1033.74,-149.06C971.43,-138.15 886.02,-122.87 820.18,-110.87"/>
<polygon fill="black" stroke="black" points="820.66,-107.4 810.2,-109.04 819.41,-114.28 820.66,-107.4"/>
<text text-anchor="middle" x="829.55" y="-100.28" font-family="Times,serif" font-size="14.00">*0</text>
</g>
<!-- node5 -->
<g id="node6" class="node">
<title>node5</title>
<polygon fill="lightgrey" stroke="black" points="1010.5,-109 833.5,-109 833.5,-73 1010.5,-73 1010.5,-109"/>
<text text-anchor="middle" x="922" y="-87.3" font-family="Times,serif" font-size="14.00">#5 arg1 : int Order : 7</text>
</g>
<!-- node0&#45;&gt;node5 -->
<g id="edge10" class="edge">
<title>node0&#45;&gt;node5</title>
<path fill="none" stroke="black" d="M1064.43,-145.99C1035.96,-136.01 1001,-123.32 972.8,-112.76"/>
<polygon fill="black" stroke="black" points="973.72,-109.36 963.13,-109.11 971.26,-115.91 973.72,-109.36"/>
<text text-anchor="middle" x="983.07" y="-103.89" font-family="Times,serif" font-size="14.00">*0</text>
</g>
<!-- node6 -->
<g id="node7" class="node">
<title>node6</title>
<polygon fill="lightgrey" stroke="black" points="1205.5,-109 1028.5,-109 1028.5,-73 1205.5,-73 1205.5,-109"/>
<text text-anchor="middle" x="1117" y="-87.3" font-family="Times,serif" font-size="14.00">#6 arg4 : int Order : 6</text>
</g>
<!-- node0&#45;&gt;node6 -->
<g id="edge12" class="edge">
<title>node0&#45;&gt;node6</title>
<path fill="none" stroke="black" d="M1111.12,-145.81C1110.28,-137.79 1110.05,-128.05 1110.42,-119.07"/>
<polygon fill="black" stroke="black" points="1113.92,-119.25 1111.14,-109.03 1106.94,-118.75 1113.92,-119.25"/>
<text text-anchor="middle" x="1118.28" y="-124.01" font-family="Times,serif" font-size="14.00">*0</text>
</g>
<!-- node7 -->
<g id="node8" class="node">
<title>node7</title>
<polygon fill="lightgrey" stroke="black" points="1400.5,-109 1223.5,-109 1223.5,-73 1400.5,-73 1400.5,-109"/>
<text text-anchor="middle" x="1312" y="-87.3" font-family="Times,serif" font-size="14.00">#7 arg3 : int Order : 5</text>
</g>
<!-- node0&#45;&gt;node7 -->
<g id="edge14" class="edge">
<title>node0&#45;&gt;node7</title>
<path fill="none" stroke="black" d="M1157.85,-145.99C1184.43,-135.92 1219.54,-123.1 1249.57,-112.48"/>
<polygon fill="black" stroke="black" points="1250.86,-115.74 1259.13,-109.11 1248.53,-109.13 1250.86,-115.74"/>
<text text-anchor="middle" x="1244.84" y="-119.41" font-family="Times,serif" font-size="14.00">*0</text>
</g>
<!-- node8 -->
<g id="node9" class="node">
<title>node8</title>
<polygon fill="lightgrey" stroke="black" points="1621.5,-109 1418.5,-109 1418.5,-73 1621.5,-73 1621.5,-109"/>
<text text-anchor="middle" x="1520" y="-87.3" font-family="Times,serif" font-size="14.00">#8 arg8 : String Order : 4</text>
</g>
<!-- node0&#45;&gt;node8 -->
<g id="edge16" class="edge">
<title>node0&#45;&gt;node8</title>
<path fill="none" stroke="black" d="M1197.41,-145.93C1267.23,-133.26 1345.87,-119.74 1408.07,-109.4"/>
<polygon fill="black" stroke="black" points="1409.01,-112.79 1418.3,-107.71 1407.86,-105.89 1409.01,-112.79"/>
<text text-anchor="middle" x="1401.8" y="-115.31" font-family="Times,serif" font-size="14.00">*0</text>
</g>
<!-- node9 -->
<g id="node10" class="node">
<title>node9</title>
<polygon fill="lightgrey" stroke="black" points="1816.5,-109 1639.5,-109 1639.5,-73 1816.5,-73 1816.5,-109"/>
<text text-anchor="middle" x="1728" y="-87.3" font-family="Times,serif" font-size="14.00">#9 arg0 : int Order : 3</text>
</g>
<!-- node0&#45;&gt;node9 -->
<g id="edge18" class="edge">
<title>node0&#45;&gt;node9</title>
<path fill="none" stroke="black" d="M1197.28,-145.96C1384.85,-119.97 1434.09,-133.6 1622,-109 1624.48,-108.67 1627,-108.33 1629.54,-107.97"/>
<polygon fill="black" stroke="black" points="1630.05,-111.43 1639.44,-106.52 1629.04,-104.51 1630.05,-111.43"/>
<text text-anchor="middle" x="1622.73" y="-113.82" font-family="Times,serif" font-size="14.00">*0</text>
</g>
<!-- node10 -->
<g id="node11" class="node">
<title>node10</title>
<polygon fill="lightgrey" stroke="black" points="2049.5,-109 1834.5,-109 1834.5,-73 2049.5,-73 2049.5,-109"/>
<text text-anchor="middle" x="1942" y="-87.3" font-family="Times,serif" font-size="14.00">#10 arg7 : double Order : 2</text>
</g>
<!-- node0&#45;&gt;node10 -->
<g id="edge20" class="edge">
<title>node0&#45;&gt;node10</title>
<path fill="none" stroke="black" d="M1197.4,-145.95C1334.64,-128.89 1679.84,-123.12 1817,-109 1819.39,-108.75 1821.81,-108.49 1824.25,-108.22"/>
<polygon fill="black" stroke="black" points="1824.83,-111.68 1834.36,-107.05 1824.02,-104.73 1824.83,-111.68"/>
<text text-anchor="middle" x="1817.33" y="-113.84" font-family="Times,serif" font-size="14.00">*0</text>
</g>
<!-- node11 -->
<g id="node12" class="node">
<title>node11</title>
<polygon fill="lightgrey" stroke="black" points="2264.5,-109 2067.5,-109 2067.5,-73 2264.5,-73 2264.5,-109"/>
<text text-anchor="middle" x="2166" y="-87.3" font-family="Times,serif" font-size="14.00">#11 LabelNode Order : 1</text>
</g>
<!-- node0&#45;&gt;node11 -->
<g id="edge22" class="edge">
<title>node0&#45;&gt;node11</title>
<path fill="none" stroke="red" d="M1197.28,-145.97C1385.92,-124.04 1861.31,-128.02 2050,-109 2052.41,-108.76 2054.84,-108.5 2057.3,-108.22"/>
<polygon fill="red" stroke="red" points="2057.99,-111.66 2067.5,-106.99 2057.15,-104.71 2057.99,-111.66"/>
</g>
<!-- node12 -->
<g id="node13" class="node">
<title>node12</title>
<polygon fill="lightgrey" stroke="black" points="2291.5,-36 2040.5,-36 2040.5,0 2291.5,0 2291.5,-36"/>
<text text-anchor="middle" x="2166" y="-14.3" font-family="Times,serif" font-size="14.00">#12 ReturnValue : int Order : 12</text>
</g>
<!-- node0&#45;&gt;node12 -->
<g id="edge26" class="edge">
<title>node0&#45;&gt;node12</title>
<path fill="none" stroke="green" d="M1197.36,-145.96C1259.78,-139.43 2223.83,-151.62 2265,-109 2276.12,-97.49 2273.41,-86.61 2265,-73 2256.33,-58.97 2242.79,-48.46 2228.45,-40.64"/>
<polygon fill="green" stroke="green" points="2229.96,-37.48 2219.46,-36.11 2226.81,-43.73 2229.96,-37.48"/>
</g>
<!-- node1&#45;&gt;node0 -->
<g id="edge1" class="edge">
<title>node1&#45;&gt;node0</title>
<path fill="none" stroke="fuchsia" stroke-width="2" d="M186.21,-106.76C192.23,-107.59 198.2,-108.35 204,-109 502.69,-142.54 858.3,-155.92 1023.79,-160.67"/>
<polygon fill="fuchsia" stroke="fuchsia" stroke-width="2" points="1023.84,-164.18 1033.94,-160.96 1024.04,-157.18 1023.84,-164.18"/>
</g>
<!-- node1&#45;&gt;node12 -->
<g id="edge24" class="edge">
<title>node1&#45;&gt;node12</title>
<path fill="none" stroke="black" d="M186.04,-73.95C189.06,-73.6 192.05,-73.28 195,-73 552.05,-38.52 1645.49,-24.3 2030.3,-20.28"/>
<polygon fill="black" stroke="black" points="2030.4,-23.78 2040.37,-20.18 2030.33,-16.78 2030.4,-23.78"/>
<text text-anchor="middle" x="2022.33" y="-25.12" font-family="Times,serif" font-size="14.00">*0</text>
</g>
<!-- node2&#45;&gt;node0 -->
<g id="edge3" class="edge">
<title>node2&#45;&gt;node0</title>
<path fill="none" stroke="fuchsia" stroke-width="2" d="M401.53,-106.78C407.44,-107.58 413.3,-108.33 419,-109 634.97,-134.36 889.52,-150.43 1023.62,-157.96"/>
<polygon fill="fuchsia" stroke="fuchsia" stroke-width="2" points="1023.67,-161.47 1033.85,-158.53 1024.06,-154.48 1023.67,-161.47"/>
</g>
<!-- node3&#45;&gt;node0 -->
<g id="edge5" class="edge">
<title>node3&#45;&gt;node0</title>
<path fill="none" stroke="fuchsia" stroke-width="2" d="M608.62,-106.38C614.85,-107.3 621.02,-108.19 627,-109 764.81,-127.71 924.74,-144.08 1023.46,-153.75"/>
<polygon fill="fuchsia" stroke="fuchsia" stroke-width="2" points="1023.42,-157.27 1033.71,-154.75 1024.1,-150.3 1023.42,-157.27"/>
</g>
<!-- node4&#45;&gt;node0 -->
<g id="edge7" class="edge">
<title>node4&#45;&gt;node0</title>
<path fill="none" stroke="fuchsia" stroke-width="2" d="M815.31,-107.88C878.43,-118.97 961.1,-133.78 1023.96,-145.25"/>
<polygon fill="fuchsia" stroke="fuchsia" stroke-width="2" points="1023.4,-148.71 1033.87,-147.07 1024.66,-141.82 1023.4,-148.71"/>
</g>
<!-- node5&#45;&gt;node0 -->
<g id="edge9" class="edge">
<title>node5&#45;&gt;node0</title>
<path fill="none" stroke="fuchsia" stroke-width="2" d="M974.87,-109.11C1003.39,-119.11 1038.35,-131.81 1066.5,-142.36"/>
<polygon fill="fuchsia" stroke="fuchsia" stroke-width="2" points="1065.56,-145.74 1076.15,-145.99 1068.03,-139.19 1065.56,-145.74"/>
</g>
<!-- node6&#45;&gt;node0 -->
<g id="edge11" class="edge">
<title>node6&#45;&gt;node0</title>
<path fill="none" stroke="fuchsia" stroke-width="2" d="M1122.86,-109.03C1123.71,-117.03 1123.95,-126.77 1123.59,-135.75"/>
<polygon fill="fuchsia" stroke="fuchsia" stroke-width="2" points="1120.09,-135.59 1122.88,-145.81 1127.07,-136.08 1120.09,-135.59"/>
</g>
<!-- node7&#45;&gt;node0 -->
<g id="edge13" class="edge">
<title>node7&#45;&gt;node0</title>
<path fill="none" stroke="fuchsia" stroke-width="2" d="M1270.87,-109.11C1244.22,-119.2 1209.1,-132.03 1179.11,-142.63"/>
<polygon fill="fuchsia" stroke="fuchsia" stroke-width="2" points="1177.84,-139.37 1169.57,-145.99 1180.16,-145.97 1177.84,-139.37"/>
</g>
<!-- node8&#45;&gt;node0 -->
<g id="edge15" class="edge">
<title>node8&#45;&gt;node0</title>
<path fill="none" stroke="fuchsia" stroke-width="2" d="M1425.92,-109.04C1365.62,-119.44 1285.75,-133.16 1215,-146 1213.5,-146.27 1211.99,-146.55 1210.46,-146.83"/>
<polygon fill="fuchsia" stroke="fuchsia" stroke-width="2" points="1209.47,-143.45 1200.27,-148.71 1210.73,-150.34 1209.47,-143.45"/>
</g>
<!-- node9&#45;&gt;node0 -->
<g id="edge17" class="edge">
<title>node9&#45;&gt;node0</title>
<path fill="none" stroke="fuchsia" stroke-width="2" d="M1639.72,-109.04C1451.95,-133.6 1402.71,-119.97 1215,-146 1213.49,-146.21 1211.97,-146.43 1210.43,-146.65"/>
<polygon fill="fuchsia" stroke="fuchsia" stroke-width="2" points="1209.54,-143.25 1200.19,-148.24 1210.61,-150.17 1209.54,-143.25"/>
</g>
<!-- node10&#45;&gt;node0 -->
<g id="edge19" class="edge">
<title>node10&#45;&gt;node0</title>
<path fill="none" stroke="fuchsia" stroke-width="2" d="M1834.6,-109.04C1697.03,-123.14 1351.83,-128.92 1215,-146 1213.49,-146.19 1211.96,-146.39 1210.43,-146.6"/>
<polygon fill="fuchsia" stroke="fuchsia" stroke-width="2" points="1209.56,-143.18 1200.17,-148.09 1210.57,-150.11 1209.56,-143.18"/>
</g>
<!-- node11&#45;&gt;node0 -->
<g id="edge21" class="edge">
<title>node11&#45;&gt;node0</title>
<path fill="none" stroke="fuchsia" stroke-width="2" d="M2067.72,-109.03C1878.76,-128.02 1403.37,-124.04 1215,-146 1213.49,-146.18 1211.96,-146.36 1210.42,-146.56"/>
<polygon fill="fuchsia" stroke="fuchsia" stroke-width="2" points="1209.58,-143.15 1200.16,-148 1210.55,-150.08 1209.58,-143.15"/>
</g>
<!-- node11&#45;&gt;node12 -->
<g id="edge25" class="edge">
<title>node11&#45;&gt;node12</title>
<path fill="none" stroke="red" d="M2166,-72.81C2166,-64.79 2166,-55.05 2166,-46.07"/>
<polygon fill="red" stroke="red" points="2169.5,-46.03 2166,-36.03 2162.5,-46.03 2169.5,-46.03"/>
</g>
<!-- node12&#45;&gt;node0 -->
<g id="edge23" class="edge">
<title>node12&#45;&gt;node0</title>
<path fill="none" stroke="fuchsia" stroke-width="2" d="M2236.54,-36.11C2254.96,-44.26 2272.53,-56.06 2283,-73 2291.41,-86.61 2294.12,-97.49 2283,-109 2241.75,-151.7 1274,-139.38 1215,-146 1213.49,-146.17 1211.96,-146.35 1210.42,-146.54"/>
<polygon fill="fuchsia" stroke="fuchsia" stroke-width="2" points="1209.59,-143.12 1200.15,-147.95 1210.54,-150.06 1209.59,-143.12"/>
</g>
<!-- c0 -->
<!-- c1 -->
<!-- c0&#45;&gt;c1 -->
<g id="edge27" class="edge">
<title>c0&#45;&gt;c1</title>
<path fill="none" stroke="red" d="M2068.89,-164C2080.11,-164 2138.24,-164 2163.86,-164"/>
<polygon fill="red" stroke="red" points="2164.06,-167.5 2174.06,-164 2164.06,-160.5 2164.06,-167.5"/>
<text text-anchor="middle" x="2121.5" y="-170.8" font-family="Times,serif" font-size="14.00">Control flow</text>
</g>
<!-- c2 -->
<!-- c3 -->
<!-- c2&#45;&gt;c3 -->
<g id="edge28" class="edge">
<title>c2&#45;&gt;c3</title>
<path fill="none" stroke="red" stroke-dasharray="5,2" d="M1862.08,-164C1879.05,-164 1995.21,-164 2033.08,-164"/>
<polygon fill="red" stroke="red" points="2033.17,-167.5 2043.17,-164 2033.17,-160.5 2033.17,-167.5"/>
<text text-anchor="middle" x="1952.5" y="-170.8" font-family="Times,serif" font-size="14.00">Control flow back edge</text>
</g>
<!-- d0 -->
<!-- d1 -->
<!-- d0&#45;&gt;d1 -->
<g id="edge29" class="edge">
<title>d0&#45;&gt;d1</title>
<path fill="none" stroke="black" d="M1750.86,-164C1760.41,-164 1804.31,-164 1825.92,-164"/>
<polygon fill="black" stroke="black" points="1826.15,-167.5 1836.15,-164 1826.15,-160.5 1826.15,-167.5"/>
<text text-anchor="middle" x="1793.5" y="-170.8" font-family="Times,serif" font-size="14.00">Data flow</text>
</g>
<!-- d2 -->
<!-- d3 -->
<!-- d2&#45;&gt;d3 -->
<g id="edge30" class="edge">
<title>d2&#45;&gt;d3</title>
<path fill="none" stroke="black" stroke-dasharray="1,5" d="M1624.81,-164C1635.46,-164 1690.46,-164 1715.08,-164"/>
<polygon fill="black" stroke="black" points="1715.15,-167.5 1725.15,-164 1715.15,-160.5 1715.15,-167.5"/>
<text text-anchor="middle" x="1675" y="-170.8" font-family="Times,serif" font-size="14.00">Declaration</text>
</g>
<!-- d4 -->
<!-- d5 -->
<!-- d4&#45;&gt;d5 -->
<g id="edge31" class="edge">
<title>d4&#45;&gt;d5</title>
<path fill="none" stroke="blue" d="M1482.1,-164C1494.72,-164 1560.88,-164 1588.68,-164"/>
<polygon fill="blue" stroke="blue" points="1588.84,-167.5 1598.84,-164 1588.84,-160.5 1588.84,-167.5"/>
<text text-anchor="middle" x="1540.5" y="-170.8" font-family="Times,serif" font-size="14.00">PHI Data flow</text>
</g>
<!-- d6 -->
<!-- d7 -->
<!-- d6&#45;&gt;d7 -->
<g id="edge32" class="edge">
<title>d6&#45;&gt;d7</title>
<path fill="none" stroke="green" d="M1345,-164C1356.94,-164 1419.3,-164 1445.93,-164"/>
<polygon fill="green" stroke="green" points="1445.95,-167.5 1455.95,-164 1445.95,-160.5 1445.95,-167.5"/>
<text text-anchor="middle" x="1400.5" y="-170.8" font-family="Times,serif" font-size="14.00">Memory flow</text>
</g>
<!-- d8 -->
<!-- d9 -->
<!-- d8&#45;&gt;d9 -->
<g id="edge33" class="edge">
<title>d8&#45;&gt;d9</title>
<path fill="none" stroke="fuchsia" d="M1222.11,-164C1233.15,-164 1284.67,-164 1308.66,-164"/>
<polygon fill="fuchsia" stroke="fuchsia" points="1308.9,-167.5 1318.9,-164 1308.9,-160.5 1308.9,-167.5"/>
<text text-anchor="middle" x="1270.5" y="-170.8" font-family="Times,serif" font-size="14.00">Dominance</text>
</g>
</g>
</svg>
