<?xml version="1.0" encoding="UTF-8" standalone="no"?>
<!DOCTYPE svg PUBLIC "-//W3C//DTD SVG 1.1//EN"
 "http://www.w3.org/Graphics/SVG/1.1/DTD/svg11.dtd">
<!-- Generated by graphviz version 2.43.0 (0)
 -->
<!-- Title: %3 Pages: 1 -->
<svg width="809pt" height="359pt"
 viewBox="0.00 0.00 808.50 358.80" xmlns="http://www.w3.org/2000/svg" xmlns:xlink="http://www.w3.org/1999/xlink">
<g id="graph0" class="graph" transform="scale(1 1) rotate(0) translate(4 354.8)">
<title>%3</title>
<polygon fill="white" stroke="transparent" points="-4,4 -4,-354.8 804.5,-354.8 804.5,4 -4,4"/>
<g id="clust1" class="cluster">
<title>cluster_000</title>
<polygon fill="none" stroke="black" points="456.5,-300.2 456.5,-342.8 792.5,-342.8 792.5,-300.2 456.5,-300.2"/>
<text text-anchor="middle" x="624.5" y="-327.6" font-family="Times,serif" font-size="14.00">Legend</text>
</g>
<!-- node0 -->
<g id="node1" class="node">
<title>node0</title>
<polygon fill="lightgrey" stroke="black" points="428.5,-328 32.5,-328 32.5,-292 428.5,-292 428.5,-328"/>
<text text-anchor="middle" x="230.5" y="-306.3" font-family="Times,serif" font-size="14.00">#0 LocalVariable[name=st, slot=0, type=S] Order: 0</text>
</g>
<!-- node0&#45;&gt;node0 -->
<g id="edge1" class="edge">
<title>node0&#45;&gt;node0</title>
<path fill="none" stroke="fuchsia" d="M428.7,-314.55C439.85,-313.45 446.5,-311.93 446.5,-310 446.5,-308.76 443.77,-307.69 438.88,-306.8"/>
<polygon fill="fuchsia" stroke="fuchsia" points="439.08,-303.29 428.7,-305.45 438.15,-310.23 439.08,-303.29"/>
</g>
<!-- node1 -->
<g id="node2" class="node">
<title>node1</title>
<polygon fill="lightgrey" stroke="black" points="461,-255 0,-255 0,-219 461,-219 461,-255"/>
<text text-anchor="middle" x="230.5" y="-233.3" font-family="Times,serif" font-size="14.00">#1 Label[context=CodeModel[id=80499834], bci=0] Order: 1</text>
</g>
<!-- node0&#45;&gt;node1 -->
<g id="edge2" class="edge">
<title>node0&#45;&gt;node1</title>
<path fill="none" stroke="red" d="M224.62,-291.81C223.78,-283.79 223.55,-274.05 223.92,-265.07"/>
<polygon fill="red" stroke="red" points="227.42,-265.25 224.64,-255.03 220.44,-264.75 227.42,-265.25"/>
</g>
<!-- node1&#45;&gt;node0 -->
<g id="edge3" class="edge">
<title>node1&#45;&gt;node0</title>
<path fill="none" stroke="fuchsia" d="M236.36,-255.03C237.21,-263.03 237.45,-272.77 237.09,-281.75"/>
<polygon fill="fuchsia" stroke="fuchsia" points="233.59,-281.59 236.38,-291.81 240.57,-282.08 233.59,-281.59"/>
</g>
<!-- node2 -->
<g id="node3" class="node">
<title>node2</title>
<polygon fill="lightgrey" stroke="black" points="366.5,-182 94.5,-182 94.5,-146 366.5,-146 366.5,-182"/>
<text text-anchor="middle" x="230.5" y="-160.3" font-family="Times,serif" font-size="14.00">#2 LineNumber[line=127] Order: 2</text>
</g>
<!-- node1&#45;&gt;node2 -->
<g id="edge4" class="edge">
<title>node1&#45;&gt;node2</title>
<path fill="none" stroke="red" d="M224.62,-218.81C223.78,-210.79 223.55,-201.05 223.92,-192.07"/>
<polygon fill="red" stroke="red" points="227.42,-192.25 224.64,-182.03 220.44,-191.75 227.42,-192.25"/>
</g>
<!-- node2&#45;&gt;node1 -->
<g id="edge5" class="edge">
<title>node2&#45;&gt;node1</title>
<path fill="none" stroke="fuchsia" d="M236.36,-182.03C237.21,-190.03 237.45,-199.77 237.09,-208.75"/>
<polygon fill="fuchsia" stroke="fuchsia" points="233.59,-208.59 236.38,-218.81 240.57,-209.08 233.59,-208.59"/>
</g>
<!-- node3 -->
<g id="node4" class="node">
<title>node3</title>
<polygon fill="lightgrey" stroke="black" points="382,-109 79,-109 79,-73 382,-73 382,-109"/>
<text text-anchor="middle" x="230.5" y="-87.3" font-family="Times,serif" font-size="14.00">#3 Load[OP=ILOAD_0, slot=0] Order: 3</text>
</g>
<!-- node2&#45;&gt;node3 -->
<g id="edge6" class="edge">
<title>node2&#45;&gt;node3</title>
<path fill="none" stroke="red" d="M224.62,-145.81C223.78,-137.79 223.55,-128.05 223.92,-119.07"/>
<polygon fill="red" stroke="red" points="227.42,-119.25 224.64,-109.03 220.44,-118.75 227.42,-119.25"/>
</g>
<!-- node3&#45;&gt;node2 -->
<g id="edge7" class="edge">
<title>node3&#45;&gt;node2</title>
<path fill="none" stroke="fuchsia" d="M236.36,-109.03C237.21,-117.03 237.45,-126.77 237.09,-135.75"/>
<polygon fill="fuchsia" stroke="fuchsia" points="233.59,-135.59 236.38,-145.81 240.57,-136.08 233.59,-135.59"/>
</g>
<!-- node4 -->
<g id="node5" class="node">
<title>node4</title>
<polygon fill="lightgrey" stroke="black" points="365,-36 96,-36 96,0 365,0 365,-36"/>
<text text-anchor="middle" x="230.5" y="-14.3" font-family="Times,serif" font-size="14.00">#4 Return[OP=IRETURN] Order: 4</text>
</g>
<!-- node3&#45;&gt;node4 -->
<g id="edge8" class="edge">
<title>node3&#45;&gt;node4</title>
<path fill="none" stroke="red" d="M224.62,-72.81C223.78,-64.79 223.55,-55.05 223.92,-46.07"/>
<polygon fill="red" stroke="red" points="227.42,-46.25 224.64,-36.03 220.44,-45.75 227.42,-46.25"/>
</g>
<!-- node4&#45;&gt;node3 -->
<g id="edge9" class="edge">
<title>node4&#45;&gt;node3</title>
<path fill="none" stroke="fuchsia" d="M236.36,-36.03C237.21,-44.03 237.45,-53.77 237.09,-62.75"/>
<polygon fill="fuchsia" stroke="fuchsia" points="233.59,-62.59 236.38,-72.81 240.57,-63.08 233.59,-62.59"/>
</g>
<!-- c0 -->
<!-- c1 -->
<!-- c0&#45;&gt;c1 -->
<g id="edge10" class="edge">
<title>c0&#45;&gt;c1</title>
<path fill="none" stroke="red" d="M675.39,-310C686.61,-310 744.74,-310 770.36,-310"/>
<polygon fill="red" stroke="red" points="770.56,-313.5 780.56,-310 770.56,-306.5 770.56,-313.5"/>
<text text-anchor="middle" x="728" y="-316.8" font-family="Times,serif" font-size="14.00">Control flow</text>
</g>
<!-- c2 -->
<!-- c3 -->
<!-- c2&#45;&gt;c3 -->
<g id="edge11" class="edge">
<title>c2&#45;&gt;c3</title>
<path fill="none" stroke="red" stroke-dasharray="5,2" d="M468.58,-310C485.55,-310 601.71,-310 639.58,-310"/>
<polygon fill="red" stroke="red" points="639.67,-313.5 649.67,-310 639.67,-306.5 639.67,-313.5"/>
<text text-anchor="middle" x="559" y="-316.8" font-family="Times,serif" font-size="14.00">Control flow back edge</text>
</g>
</g>
</svg>
