<?xml version="1.0" encoding="UTF-8" standalone="no"?>
<!DOCTYPE svg PUBLIC "-//W3C//DTD SVG 1.1//EN"
 "http://www.w3.org/Graphics/SVG/1.1/DTD/svg11.dtd">
<!-- Generated by graphviz version 2.43.0 (0)
 -->
<!-- Title: %3 Pages: 1 -->
<svg width="813pt" height="359pt"
 viewBox="0.00 0.00 813.00 358.80" xmlns="http://www.w3.org/2000/svg" xmlns:xlink="http://www.w3.org/1999/xlink">
<g id="graph0" class="graph" transform="scale(1 1) rotate(0) translate(4 354.8)">
<title>%3</title>
<polygon fill="white" stroke="transparent" points="-4,4 -4,-354.8 809,-354.8 809,4 -4,4"/>
<g id="clust1" class="cluster">
<title>cluster_000</title>
<polygon fill="none" stroke="black" points="461,-300.2 461,-342.8 797,-342.8 797,-300.2 461,-300.2"/>
<text text-anchor="middle" x="629" y="-327.6" font-family="Times,serif" font-size="14.00">Legend</text>
</g>
<!-- node0 -->
<g id="node1" class="node">
<title>node0</title>
<polygon fill="lightgrey" stroke="black" points="433,-328 37,-328 37,-292 433,-292 433,-328"/>
<text text-anchor="middle" x="235" y="-306.3" font-family="Times,serif" font-size="14.00">#0 LocalVariable[name=st, slot=0, type=S] Order: 0</text>
</g>
<!-- node0&#45;&gt;node0 -->
<g id="edge1" class="edge">
<title>node0&#45;&gt;node0</title>
<path fill="none" stroke="fuchsia" d="M433.2,-314.55C444.35,-313.45 451,-311.93 451,-310 451,-308.76 448.27,-307.69 443.38,-306.8"/>
<polygon fill="fuchsia" stroke="fuchsia" points="443.58,-303.29 433.2,-305.45 442.65,-310.23 443.58,-303.29"/>
</g>
<!-- node1 -->
<g id="node2" class="node">
<title>node1</title>
<polygon fill="lightgrey" stroke="black" points="470,-255 0,-255 0,-219 470,-219 470,-255"/>
<text text-anchor="middle" x="235" y="-233.3" font-family="Times,serif" font-size="14.00">#1 Label[context=CodeModel[id=423711439], bci=0] Order: 1</text>
</g>
<!-- node0&#45;&gt;node1 -->
<g id="edge2" class="edge">
<title>node0&#45;&gt;node1</title>
<path fill="none" stroke="red" d="M229.12,-291.81C228.28,-283.79 228.05,-274.05 228.42,-265.07"/>
<polygon fill="red" stroke="red" points="231.92,-265.25 229.14,-255.03 224.94,-264.75 231.92,-265.25"/>
</g>
<!-- node1&#45;&gt;node0 -->
<g id="edge3" class="edge">
<title>node1&#45;&gt;node0</title>
<path fill="none" stroke="fuchsia" d="M240.86,-255.03C241.71,-263.03 241.95,-272.77 241.59,-281.75"/>
<polygon fill="fuchsia" stroke="fuchsia" points="238.09,-281.59 240.88,-291.81 245.07,-282.08 238.09,-281.59"/>
</g>
<!-- node2 -->
<g id="node3" class="node">
<title>node2</title>
<polygon fill="lightgrey" stroke="black" points="371,-182 99,-182 99,-146 371,-146 371,-182"/>
<text text-anchor="middle" x="235" y="-160.3" font-family="Times,serif" font-size="14.00">#2 LineNumber[line=127] Order: 2</text>
</g>
<!-- node1&#45;&gt;node2 -->
<g id="edge4" class="edge">
<title>node1&#45;&gt;node2</title>
<path fill="none" stroke="red" d="M229.12,-218.81C228.28,-210.79 228.05,-201.05 228.42,-192.07"/>
<polygon fill="red" stroke="red" points="231.92,-192.25 229.14,-182.03 224.94,-191.75 231.92,-192.25"/>
</g>
<!-- node2&#45;&gt;node1 -->
<g id="edge5" class="edge">
<title>node2&#45;&gt;node1</title>
<path fill="none" stroke="fuchsia" d="M240.86,-182.03C241.71,-190.03 241.95,-199.77 241.59,-208.75"/>
<polygon fill="fuchsia" stroke="fuchsia" points="238.09,-208.59 240.88,-218.81 245.07,-209.08 238.09,-208.59"/>
</g>
<!-- node3 -->
<g id="node4" class="node">
<title>node3</title>
<polygon fill="lightgrey" stroke="black" points="386.5,-109 83.5,-109 83.5,-73 386.5,-73 386.5,-109"/>
<text text-anchor="middle" x="235" y="-87.3" font-family="Times,serif" font-size="14.00">#3 Load[OP=ILOAD_0, slot=0] Order: 3</text>
</g>
<!-- node2&#45;&gt;node3 -->
<g id="edge6" class="edge">
<title>node2&#45;&gt;node3</title>
<path fill="none" stroke="red" d="M229.12,-145.81C228.28,-137.79 228.05,-128.05 228.42,-119.07"/>
<polygon fill="red" stroke="red" points="231.92,-119.25 229.14,-109.03 224.94,-118.75 231.92,-119.25"/>
</g>
<!-- node3&#45;&gt;node2 -->
<g id="edge7" class="edge">
<title>node3&#45;&gt;node2</title>
<path fill="none" stroke="fuchsia" d="M240.86,-109.03C241.71,-117.03 241.95,-126.77 241.59,-135.75"/>
<polygon fill="fuchsia" stroke="fuchsia" points="238.09,-135.59 240.88,-145.81 245.07,-136.08 238.09,-135.59"/>
</g>
<!-- node4 -->
<g id="node5" class="node">
<title>node4</title>
<polygon fill="lightgrey" stroke="black" points="369.5,-36 100.5,-36 100.5,0 369.5,0 369.5,-36"/>
<text text-anchor="middle" x="235" y="-14.3" font-family="Times,serif" font-size="14.00">#4 Return[OP=IRETURN] Order: 4</text>
</g>
<!-- node3&#45;&gt;node4 -->
<g id="edge8" class="edge">
<title>node3&#45;&gt;node4</title>
<path fill="none" stroke="red" d="M229.12,-72.81C228.28,-64.79 228.05,-55.05 228.42,-46.07"/>
<polygon fill="red" stroke="red" points="231.92,-46.25 229.14,-36.03 224.94,-45.75 231.92,-46.25"/>
</g>
<!-- node4&#45;&gt;node3 -->
<g id="edge9" class="edge">
<title>node4&#45;&gt;node3</title>
<path fill="none" stroke="fuchsia" d="M240.86,-36.03C241.71,-44.03 241.95,-53.77 241.59,-62.75"/>
<polygon fill="fuchsia" stroke="fuchsia" points="238.09,-62.59 240.88,-72.81 245.07,-63.08 238.09,-62.59"/>
</g>
<!-- c0 -->
<!-- c1 -->
<!-- c0&#45;&gt;c1 -->
<g id="edge10" class="edge">
<title>c0&#45;&gt;c1</title>
<path fill="none" stroke="red" d="M679.89,-310C691.11,-310 749.24,-310 774.86,-310"/>
<polygon fill="red" stroke="red" points="775.06,-313.5 785.06,-310 775.06,-306.5 775.06,-313.5"/>
<text text-anchor="middle" x="732.5" y="-316.8" font-family="Times,serif" font-size="14.00">Control flow</text>
</g>
<!-- c2 -->
<!-- c3 -->
<!-- c2&#45;&gt;c3 -->
<g id="edge11" class="edge">
<title>c2&#45;&gt;c3</title>
<path fill="none" stroke="red" stroke-dasharray="5,2" d="M473.08,-310C490.05,-310 606.21,-310 644.08,-310"/>
<polygon fill="red" stroke="red" points="644.17,-313.5 654.17,-310 644.17,-306.5 644.17,-313.5"/>
<text text-anchor="middle" x="563.5" y="-316.8" font-family="Times,serif" font-size="14.00">Control flow back edge</text>
</g>
</g>
</svg>
