<?xml version="1.0" encoding="UTF-8" standalone="no"?>
<!DOCTYPE svg PUBLIC "-//W3C//DTD SVG 1.1//EN"
 "http://www.w3.org/Graphics/SVG/1.1/DTD/svg11.dtd">
<!-- Generated by graphviz version 2.43.0 (0)
 -->
<!-- Title: debugoutput Pages: 1 -->
<svg width="1375pt" height="213pt"
 viewBox="0.00 0.00 1374.50 212.80" xmlns="http://www.w3.org/2000/svg" xmlns:xlink="http://www.w3.org/1999/xlink">
<g id="graph0" class="graph" transform="scale(1 1) rotate(0) translate(4 208.8)">
<title>debugoutput</title>
<polygon fill="white" stroke="transparent" points="-4,4 -4,-208.8 1370.5,-208.8 1370.5,4 -4,4"/>
<g id="clust1" class="cluster">
<title>cluster_000</title>
<polygon fill="none" stroke="black" points="382.5,-154.2 382.5,-196.8 1358.5,-196.8 1358.5,-154.2 382.5,-154.2"/>
<text text-anchor="middle" x="870.5" y="-181.6" font-family="Times,serif" font-size="14.00">Legend</text>
</g>
<!-- node0 -->
<g id="node1" class="node">
<title>node0</title>
<polygon fill="lightgrey" stroke="black" points="372.5,-182 206.5,-182 206.5,-146 372.5,-146 372.5,-182"/>
<text text-anchor="middle" x="289.5" y="-160.3" font-family="Times,serif" font-size="14.00">#0 Method Order : 0</text>
</g>
<!-- node1 -->
<g id="node2" class="node">
<title>node1</title>
<polygon fill="lightgrey" stroke="black" points="177,-109 0,-109 0,-73 177,-73 177,-109"/>
<text text-anchor="middle" x="88.5" y="-87.3" font-family="Times,serif" font-size="14.00">#1 arg0 : int Order : 2</text>
</g>
<!-- node0&#45;&gt;node1 -->
<g id="edge2" class="edge">
<title>node0&#45;&gt;node1</title>
<path fill="none" stroke="black" d="M235.5,-145.99C206.05,-135.97 169.83,-123.21 140.67,-112.62"/>
<polygon fill="black" stroke="black" points="141.67,-109.26 131.08,-109.11 139.27,-115.83 141.67,-109.26"/>
<text text-anchor="middle" x="151" y="-103.69" font-family="Times,serif" font-size="14.00">*0</text>
</g>
<!-- node2 -->
<g id="node3" class="node">
<title>node2</title>
<polygon fill="lightgrey" stroke="black" points="383.5,-109 195.5,-109 195.5,-73 383.5,-73 383.5,-109"/>
<text text-anchor="middle" x="289.5" y="-87.3" font-family="Times,serif" font-size="14.00">#2 LabelNode Order : 1</text>
</g>
<!-- node0&#45;&gt;node2 -->
<g id="edge4" class="edge">
<title>node0&#45;&gt;node2</title>
<path fill="none" stroke="red" d="M283.62,-145.81C282.78,-137.79 282.55,-128.05 282.92,-119.07"/>
<polygon fill="red" stroke="red" points="286.42,-119.25 283.64,-109.03 279.44,-118.75 286.42,-119.25"/>
</g>
<!-- node3 -->
<g id="node4" class="node">
<title>node3</title>
<polygon fill="lightgrey" stroke="black" points="406,-36 173,-36 173,0 406,0 406,-36"/>
<text text-anchor="middle" x="289.5" y="-14.3" font-family="Times,serif" font-size="14.00">#3 ReturnValue : int Order : 3</text>
</g>
<!-- node0&#45;&gt;node3 -->
<g id="edge8" class="edge">
<title>node0&#45;&gt;node3</title>
<path fill="none" stroke="green" d="M338.84,-145.9C355.94,-137.69 373.31,-125.84 383.5,-109 391.78,-95.31 391.78,-86.69 383.5,-73 375.14,-59.18 361.95,-48.73 348.04,-40.88"/>
<polygon fill="green" stroke="green" points="349.33,-37.61 338.84,-36.1 346.1,-43.82 349.33,-37.61"/>
</g>
<!-- node1&#45;&gt;node0 -->
<g id="edge1" class="edge">
<title>node1&#45;&gt;node0</title>
<path fill="none" stroke="fuchsia" stroke-width="2" d="M142.82,-109.11C172.31,-119.16 208.53,-131.92 237.64,-142.5"/>
<polygon fill="fuchsia" stroke="fuchsia" stroke-width="2" points="236.62,-145.85 247.21,-145.99 239.02,-139.28 236.62,-145.85"/>
</g>
<!-- node1&#45;&gt;node3 -->
<g id="edge6" class="edge">
<title>node1&#45;&gt;node3</title>
<path fill="none" stroke="black" d="M136.64,-72.99C165.15,-62.92 201.45,-50.1 231.52,-39.48"/>
<polygon fill="black" stroke="black" points="232.79,-42.74 241.05,-36.11 230.46,-36.14 232.79,-42.74"/>
<text text-anchor="middle" x="226.78" y="-46.42" font-family="Times,serif" font-size="14.00">*0</text>
</g>
<!-- node2&#45;&gt;node0 -->
<g id="edge3" class="edge">
<title>node2&#45;&gt;node0</title>
<path fill="none" stroke="fuchsia" stroke-width="2" d="M295.36,-109.03C296.21,-117.03 296.45,-126.77 296.09,-135.75"/>
<polygon fill="fuchsia" stroke="fuchsia" stroke-width="2" points="292.59,-135.59 295.38,-145.81 299.57,-136.08 292.59,-135.59"/>
</g>
<!-- node2&#45;&gt;node3 -->
<g id="edge7" class="edge">
<title>node2&#45;&gt;node3</title>
<path fill="none" stroke="red" d="M289.5,-72.81C289.5,-64.79 289.5,-55.05 289.5,-46.07"/>
<polygon fill="red" stroke="red" points="293,-46.03 289.5,-36.03 286,-46.03 293,-46.03"/>
</g>
<!-- node3&#45;&gt;node0 -->
<g id="edge5" class="edge">
<title>node3&#45;&gt;node0</title>
<path fill="none" stroke="fuchsia" stroke-width="2" d="M355.85,-36.1C373.94,-44.31 391.31,-56.16 401.5,-73 409.78,-86.69 409.78,-95.31 401.5,-109 393.06,-122.95 379.7,-133.47 365.08,-141.34"/>
<polygon fill="fuchsia" stroke="fuchsia" stroke-width="2" points="363.26,-138.34 355.85,-145.9 366.36,-144.61 363.26,-138.34"/>
</g>
<!-- c0 -->
<!-- c1 -->
<!-- c0&#45;&gt;c1 -->
<g id="edge9" class="edge">
<title>c0&#45;&gt;c1</title>
<path fill="none" stroke="red" d="M1241.39,-164C1252.61,-164 1310.74,-164 1336.36,-164"/>
<polygon fill="red" stroke="red" points="1336.56,-167.5 1346.56,-164 1336.56,-160.5 1336.56,-167.5"/>
<text text-anchor="middle" x="1294" y="-170.8" font-family="Times,serif" font-size="14.00">Control flow</text>
</g>
<!-- c2 -->
<!-- c3 -->
<!-- c2&#45;&gt;c3 -->
<g id="edge10" class="edge">
<title>c2&#45;&gt;c3</title>
<path fill="none" stroke="red" stroke-dasharray="5,2" d="M1034.58,-164C1051.55,-164 1167.71,-164 1205.58,-164"/>
<polygon fill="red" stroke="red" points="1205.67,-167.5 1215.67,-164 1205.67,-160.5 1205.67,-167.5"/>
<text text-anchor="middle" x="1125" y="-170.8" font-family="Times,serif" font-size="14.00">Control flow back edge</text>
</g>
<!-- d0 -->
<!-- d1 -->
<!-- d0&#45;&gt;d1 -->
<g id="edge11" class="edge">
<title>d0&#45;&gt;d1</title>
<path fill="none" stroke="black" d="M923.36,-164C932.91,-164 976.81,-164 998.42,-164"/>
<polygon fill="black" stroke="black" points="998.65,-167.5 1008.65,-164 998.65,-160.5 998.65,-167.5"/>
<text text-anchor="middle" x="966" y="-170.8" font-family="Times,serif" font-size="14.00">Data flow</text>
</g>
<!-- d2 -->
<!-- d3 -->
<!-- d2&#45;&gt;d3 -->
<g id="edge12" class="edge">
<title>d2&#45;&gt;d3</title>
<path fill="none" stroke="black" stroke-dasharray="1,5" d="M797.31,-164C807.96,-164 862.96,-164 887.58,-164"/>
<polygon fill="black" stroke="black" points="887.65,-167.5 897.65,-164 887.65,-160.5 887.65,-167.5"/>
<text text-anchor="middle" x="847.5" y="-170.8" font-family="Times,serif" font-size="14.00">Declaration</text>
</g>
<!-- d4 -->
<!-- d5 -->
<!-- d4&#45;&gt;d5 -->
<g id="edge13" class="edge">
<title>d4&#45;&gt;d5</title>
<path fill="none" stroke="blue" d="M654.6,-164C667.22,-164 733.38,-164 761.18,-164"/>
<polygon fill="blue" stroke="blue" points="761.34,-167.5 771.34,-164 761.34,-160.5 761.34,-167.5"/>
<text text-anchor="middle" x="713" y="-170.8" font-family="Times,serif" font-size="14.00">PHI Data flow</text>
</g>
<!-- d6 -->
<!-- d7 -->
<!-- d6&#45;&gt;d7 -->
<g id="edge14" class="edge">
<title>d6&#45;&gt;d7</title>
<path fill="none" stroke="green" d="M517.5,-164C529.44,-164 591.8,-164 618.43,-164"/>
<polygon fill="green" stroke="green" points="618.45,-167.5 628.45,-164 618.45,-160.5 618.45,-167.5"/>
<text text-anchor="middle" x="573" y="-170.8" font-family="Times,serif" font-size="14.00">Memory flow</text>
</g>
<!-- d8 -->
<!-- d9 -->
<!-- d8&#45;&gt;d9 -->
<g id="edge15" class="edge">
<title>d8&#45;&gt;d9</title>
<path fill="none" stroke="fuchsia" d="M394.61,-164C405.65,-164 457.17,-164 481.16,-164"/>
<polygon fill="fuchsia" stroke="fuchsia" points="481.4,-167.5 491.4,-164 481.4,-160.5 481.4,-167.5"/>
<text text-anchor="middle" x="443" y="-170.8" font-family="Times,serif" font-size="14.00">Dominance</text>
</g>
</g>
</svg>
