<?xml version="1.0" encoding="UTF-8" standalone="no"?>
<!DOCTYPE svg PUBLIC "-//W3C//DTD SVG 1.1//EN"
 "http://www.w3.org/Graphics/SVG/1.1/DTD/svg11.dtd">
<!-- Generated by graphviz version 2.43.0 (0)
 -->
<!-- Title: %3 Pages: 1 -->
<svg width="1237pt" height="432pt"
 viewBox="0.00 0.00 1237.00 431.80" xmlns="http://www.w3.org/2000/svg" xmlns:xlink="http://www.w3.org/1999/xlink">
<g id="graph0" class="graph" transform="scale(1 1) rotate(0) translate(4 427.8)">
<title>%3</title>
<polygon fill="white" stroke="transparent" points="-4,4 -4,-427.8 1233,-427.8 1233,4 -4,4"/>
<g id="clust1" class="cluster">
<title>cluster_000</title>
<polygon fill="none" stroke="black" points="885,-373.2 885,-415.8 1221,-415.8 1221,-373.2 885,-373.2"/>
<text text-anchor="middle" x="1053" y="-400.6" font-family="Times,serif" font-size="14.00">Legend</text>
</g>
<!-- node0 -->
<g id="node1" class="node">
<title>node0</title>
<polygon fill="lightgrey" stroke="black" points="875,-401 55,-401 55,-365 875,-365 875,-401"/>
<text text-anchor="middle" x="465" y="-379.3" font-family="Times,serif" font-size="14.00">#0 LocalVariable[name=this, slot=0, type=Lde/mirkosertic/metair/ir/examples/MethodInvocationTest;] Order: 0</text>
</g>
<!-- node1 -->
<g id="node2" class="node">
<title>node1</title>
<polygon fill="lightgrey" stroke="black" points="704.5,-328 225.5,-328 225.5,-292 704.5,-292 704.5,-328"/>
<text text-anchor="middle" x="465" y="-306.3" font-family="Times,serif" font-size="14.00">#1 Label[context=CodeModel[id=1184124073], bci=0] Order: 1</text>
</g>
<!-- node0&#45;&gt;node1 -->
<g id="edge1" class="edge">
<title>node0&#45;&gt;node1</title>
<path fill="none" stroke="red" d="M465,-364.81C465,-356.79 465,-347.05 465,-338.07"/>
<polygon fill="red" stroke="red" points="468.5,-338.03 465,-328.03 461.5,-338.03 468.5,-338.03"/>
</g>
<!-- node2 -->
<g id="node3" class="node">
<title>node2</title>
<polygon fill="lightgrey" stroke="black" points="601,-255 329,-255 329,-219 601,-219 601,-255"/>
<text text-anchor="middle" x="465" y="-233.3" font-family="Times,serif" font-size="14.00">#2 LineNumber[line=115] Order: 2</text>
</g>
<!-- node1&#45;&gt;node2 -->
<g id="edge2" class="edge">
<title>node1&#45;&gt;node2</title>
<path fill="none" stroke="red" d="M465,-291.81C465,-283.79 465,-274.05 465,-265.07"/>
<polygon fill="red" stroke="red" points="468.5,-265.03 465,-255.03 461.5,-265.03 468.5,-265.03"/>
</g>
<!-- node3 -->
<g id="node4" class="node">
<title>node3</title>
<polygon fill="lightgrey" stroke="black" points="709,-182 221,-182 221,-146 709,-146 709,-182"/>
<text text-anchor="middle" x="465" y="-160.3" font-family="Times,serif" font-size="14.00">#3 UnboundIntrinsicConstantInstruction[op=ICONST_1] Order: 3</text>
</g>
<!-- node2&#45;&gt;node3 -->
<g id="edge3" class="edge">
<title>node2&#45;&gt;node3</title>
<path fill="none" stroke="red" d="M465,-218.81C465,-210.79 465,-201.05 465,-192.07"/>
<polygon fill="red" stroke="red" points="468.5,-192.03 465,-182.03 461.5,-192.03 468.5,-192.03"/>
</g>
<!-- node4 -->
<g id="node5" class="node">
<title>node4</title>
<polygon fill="lightgrey" stroke="black" points="930,-109 0,-109 0,-73 930,-73 930,-109"/>
<text text-anchor="middle" x="465" y="-87.3" font-family="Times,serif" font-size="14.00">#4 Invoke[OP=INVOKESTATIC, m=de/mirkosertic/metair/ir/examples/MethodInvocationTest.staticReturnBoolean(Z)Z] Order: 4</text>
</g>
<!-- node3&#45;&gt;node4 -->
<g id="edge4" class="edge">
<title>node3&#45;&gt;node4</title>
<path fill="none" stroke="red" d="M465,-145.81C465,-137.79 465,-128.05 465,-119.07"/>
<polygon fill="red" stroke="red" points="468.5,-119.03 465,-109.03 461.5,-119.03 468.5,-119.03"/>
</g>
<!-- node5 -->
<g id="node6" class="node">
<title>node5</title>
<polygon fill="lightgrey" stroke="black" points="599.5,-36 330.5,-36 330.5,0 599.5,0 599.5,-36"/>
<text text-anchor="middle" x="465" y="-14.3" font-family="Times,serif" font-size="14.00">#5 Return[OP=IRETURN] Order: 5</text>
</g>
<!-- node4&#45;&gt;node5 -->
<g id="edge5" class="edge">
<title>node4&#45;&gt;node5</title>
<path fill="none" stroke="red" d="M465,-72.81C465,-64.79 465,-55.05 465,-46.07"/>
<polygon fill="red" stroke="red" points="468.5,-46.03 465,-36.03 461.5,-46.03 468.5,-46.03"/>
</g>
<!-- c0 -->
<!-- c1 -->
<!-- c0&#45;&gt;c1 -->
<g id="edge6" class="edge">
<title>c0&#45;&gt;c1</title>
<path fill="none" stroke="red" d="M1103.89,-383C1115.11,-383 1173.24,-383 1198.86,-383"/>
<polygon fill="red" stroke="red" points="1199.06,-386.5 1209.06,-383 1199.06,-379.5 1199.06,-386.5"/>
<text text-anchor="middle" x="1156.5" y="-389.8" font-family="Times,serif" font-size="14.00">Control flow</text>
</g>
<!-- c2 -->
<!-- c3 -->
<!-- c2&#45;&gt;c3 -->
<g id="edge7" class="edge">
<title>c2&#45;&gt;c3</title>
<path fill="none" stroke="red" stroke-dasharray="5,2" d="M897.08,-383C914.05,-383 1030.21,-383 1068.08,-383"/>
<polygon fill="red" stroke="red" points="1068.17,-386.5 1078.17,-383 1068.17,-379.5 1068.17,-386.5"/>
<text text-anchor="middle" x="987.5" y="-389.8" font-family="Times,serif" font-size="14.00">Control flow back edge</text>
</g>
</g>
</svg>
