<?xml version="1.0" encoding="UTF-8" standalone="no"?>
<!DOCTYPE svg PUBLIC "-//W3C//DTD SVG 1.1//EN"
 "http://www.w3.org/Graphics/SVG/1.1/DTD/svg11.dtd">
<!-- Generated by graphviz version 2.43.0 (0)
 -->
<!-- Title: %3 Pages: 1 -->
<svg width="1438pt" height="660pt"
 viewBox="0.00 0.00 1438.00 659.80" xmlns="http://www.w3.org/2000/svg" xmlns:xlink="http://www.w3.org/1999/xlink">
<g id="graph0" class="graph" transform="scale(1 1) rotate(0) translate(4 655.8)">
<title>%3</title>
<polygon fill="white" stroke="transparent" points="-4,4 -4,-655.8 1434,-655.8 1434,4 -4,4"/>
<g id="clust1" class="cluster">
<title>cluster_0</title>
<polygon fill="none" stroke="lightgray" points="142,-357 142,-482 400,-482 400,-357 142,-357"/>
</g>
<g id="clust2" class="cluster">
<title>cluster_1</title>
<polygon fill="none" stroke="lightgray" points="136,-138 136,-263 336,-263 336,-138 136,-138"/>
</g>
<g id="clust3" class="cluster">
<title>cluster_2</title>
<polygon fill="none" stroke="lightgray" points="430,-430 430,-555 566,-555 566,-430 430,-430"/>
</g>
<g id="clust4" class="cluster">
<title>cluster_000</title>
<polygon fill="none" stroke="black" points="569,-601.2 569,-643.8 1422,-643.8 1422,-601.2 569,-601.2"/>
<text text-anchor="middle" x="995.5" y="-628.6" font-family="Times,serif" font-size="14.00">Legend</text>
</g>
<!-- node0 -->
<g id="node1" class="node">
<title>node0</title>
<polygon fill="lightgrey" stroke="transparent" points="559.5,-638 436.5,-638 436.5,-584 559.5,-584 559.5,-638"/>
<polygon fill="none" stroke="black" points="437,-611 437,-638 560,-638 560,-611 437,-611"/>
<text text-anchor="start" x="458" y="-620.8" font-family="Times,serif" font-size="14.00">#0 Method</text>
<polygon fill="yellow" stroke="transparent" points="437,-584 437,-611 560,-611 560,-584 437,-584"/>
<polygon fill="none" stroke="black" points="437,-584 437,-611 560,-611 560,-584 437,-584"/>
<text text-anchor="start" x="443" y="-593.8" font-family="Times,serif" font-size="14.00">this : ArrayTest</text>
</g>
<!-- node2 -->
<g id="node2" class="node">
<title>node2</title>
<polygon fill="lightgrey" stroke="black" points="557.5,-547 438.5,-547 438.5,-511 557.5,-511 557.5,-547"/>
<text text-anchor="middle" x="498" y="-525.3" font-family="Times,serif" font-size="14.00">#2 LabelNode</text>
</g>
<!-- node0&#45;&gt;node2 -->
<g id="edge1" class="edge">
<title>node0&#45;&gt;node2</title>
<path fill="none" stroke="red" d="M498,-583.81C498,-575.35 498,-565.95 498,-557.4"/>
<polygon fill="red" stroke="red" points="501.5,-557.17 498,-547.17 494.5,-557.17 501.5,-557.17"/>
</g>
<!-- node5 -->
<g id="node4" class="node">
<title>node5</title>
<polygon fill="orange" stroke="black" points="673.69,-302.54 673.69,-317.46 603.58,-328 504.42,-328 434.31,-317.46 434.31,-302.54 504.42,-292 603.58,-292 673.69,-302.54"/>
<text text-anchor="middle" x="554" y="-306.3" font-family="Times,serif" font-size="14.00">#5 NewArray : char[]</text>
</g>
<!-- node0&#45;&gt;node5 -->
<g id="edge4" class="edge">
<title>node0&#45;&gt;node5</title>
<path fill="none" stroke="green" d="M545.39,-583.75C555.3,-575.88 564.42,-566.28 570,-555 605.51,-483.18 579.97,-384.64 564.09,-337.82"/>
<polygon fill="green" stroke="green" points="567.3,-336.39 560.69,-328.11 560.69,-338.71 567.3,-336.39"/>
</g>
<!-- node4 -->
<g id="node3" class="node">
<title>node4</title>
<polygon fill="lightgreen" stroke="black" points="557.19,-448.54 557.19,-463.46 522.52,-474 473.48,-474 438.81,-463.46 438.81,-448.54 473.48,-438 522.52,-438 557.19,-448.54"/>
<text text-anchor="middle" x="498" y="-452.3" font-family="Times,serif" font-size="14.00">#4 int 10</text>
</g>
<!-- node2&#45;&gt;node4 -->
<g id="edge2" class="edge">
<title>node2&#45;&gt;node4</title>
<path fill="none" stroke="black" stroke-dasharray="1,5" d="M498,-510.81C498,-502.79 498,-493.05 498,-484.07"/>
<polygon fill="black" stroke="black" points="501.5,-484.03 498,-474.03 494.5,-484.03 501.5,-484.03"/>
</g>
<!-- node3 -->
<g id="node9" class="node">
<title>node3</title>
<polygon fill="lightgrey" stroke="black" points="326.5,-474 207.5,-474 207.5,-438 326.5,-438 326.5,-474"/>
<text text-anchor="middle" x="267" y="-452.3" font-family="Times,serif" font-size="14.00">#3 LabelNode</text>
</g>
<!-- node2&#45;&gt;node3 -->
<g id="edge11" class="edge">
<title>node2&#45;&gt;node3</title>
<path fill="none" stroke="red" d="M442.67,-510.99C409.48,-500.79 367.1,-487.77 332.29,-477.07"/>
<polygon fill="red" stroke="red" points="333.27,-473.71 322.68,-474.11 331.21,-480.4 333.27,-473.71"/>
</g>
<!-- node4&#45;&gt;node5 -->
<g id="edge3" class="edge">
<title>node4&#45;&gt;node5</title>
<path fill="none" stroke="black" d="M500.1,-437.98C503.34,-415.84 510.81,-376.42 526,-346 527.66,-342.67 529.68,-339.37 531.86,-336.19"/>
<polygon fill="black" stroke="black" points="534.69,-338.26 537.9,-328.16 529.09,-334.05 534.69,-338.26"/>
<text text-anchor="middle" x="533.76" y="-344.03" font-family="Times,serif" font-size="14.00">*0</text>
</g>
<!-- node8 -->
<g id="node5" class="node">
<title>node8</title>
<polygon fill="orange" stroke="black" points="531.72,-229.54 531.72,-244.46 477.41,-255 400.59,-255 346.28,-244.46 346.28,-229.54 400.59,-219 477.41,-219 531.72,-229.54"/>
<text text-anchor="middle" x="439" y="-233.3" font-family="Times,serif" font-size="14.00">#8 ArrayLength</text>
</g>
<!-- node5&#45;&gt;node8 -->
<g id="edge5" class="edge">
<title>node5&#45;&gt;node8</title>
<path fill="none" stroke="black" d="M526.45,-291.99C511.2,-282.58 492.05,-270.76 475.56,-260.57"/>
<polygon fill="black" stroke="black" points="477.07,-257.39 466.72,-255.11 473.39,-263.35 477.07,-257.39"/>
<text text-anchor="middle" x="486.58" y="-253.74" font-family="Times,serif" font-size="14.00">*0</text>
</g>
<!-- node10 -->
<g id="node6" class="node">
<title>node10</title>
<polygon fill="lightgrey" stroke="black" points="328.5,-255 143.5,-255 143.5,-219 328.5,-219 328.5,-255"/>
<text text-anchor="middle" x="236" y="-233.3" font-family="Times,serif" font-size="14.00">#10 ArrayStore : char[]</text>
</g>
<!-- node5&#45;&gt;node10 -->
<g id="edge6" class="edge">
<title>node5&#45;&gt;node10</title>
<path fill="none" stroke="black" d="M480.18,-295.59C435.82,-286.7 378.48,-274.6 328,-263 320.39,-261.25 312.46,-259.38 304.6,-257.48"/>
<polygon fill="black" stroke="black" points="305.23,-254.03 294.69,-255.06 303.57,-260.83 305.23,-254.03"/>
<text text-anchor="middle" x="314.3" y="-247.45" font-family="Times,serif" font-size="14.00">*0</text>
</g>
<!-- node5&#45;&gt;node10 -->
<g id="edge9" class="edge">
<title>node5&#45;&gt;node10</title>
<path fill="none" stroke="green" d="M488.92,-294.17C447.87,-285.44 393.86,-273.99 346,-263 338.3,-261.23 330.29,-259.34 322.24,-257.41"/>
<polygon fill="green" stroke="green" points="322.98,-253.99 312.44,-255.06 321.34,-260.8 322.98,-253.99"/>
</g>
<!-- node13 -->
<g id="node14" class="node">
<title>node13</title>
<polygon fill="lightgrey" stroke="black" points="571,-109 401,-109 401,-73 571,-73 571,-109"/>
<text text-anchor="middle" x="486" y="-87.3" font-family="Times,serif" font-size="14.00">#13 ArrayLoad : char</text>
</g>
<!-- node5&#45;&gt;node13 -->
<g id="edge19" class="edge">
<title>node5&#45;&gt;node13</title>
<path fill="none" stroke="black" d="M552.88,-291.8C551.37,-273.48 548.01,-243.76 541,-219 530.77,-182.88 512.53,-143.54 499.88,-118.36"/>
<polygon fill="black" stroke="black" points="502.83,-116.44 495.17,-109.13 496.6,-119.63 502.83,-116.44"/>
<text text-anchor="middle" x="510.94" y="-117.73" font-family="Times,serif" font-size="14.00">*0</text>
</g>
<!-- node11 -->
<g id="node11" class="node">
<title>node11</title>
<polygon fill="lightgrey" stroke="black" points="128,-182 0,-182 0,-146 128,-146 128,-182"/>
<text text-anchor="middle" x="64" y="-160.3" font-family="Times,serif" font-size="14.00">#11 LabelNode</text>
</g>
<!-- node10&#45;&gt;node11 -->
<g id="edge15" class="edge">
<title>node10&#45;&gt;node11</title>
<path fill="none" stroke="red" d="M194.8,-218.99C170.83,-209.1 140.42,-196.54 114.95,-186.03"/>
<polygon fill="red" stroke="red" points="116.04,-182.69 105.46,-182.11 113.37,-189.16 116.04,-182.69"/>
</g>
<!-- node10&#45;&gt;node13 -->
<g id="edge21" class="edge">
<title>node10&#45;&gt;node13</title>
<path fill="none" stroke="green" d="M265.66,-218.92C310.96,-192.83 397.37,-143.05 447.47,-114.2"/>
<polygon fill="green" stroke="green" points="449.46,-117.09 456.38,-109.06 445.97,-111.02 449.46,-117.09"/>
</g>
<!-- node12 -->
<g id="node15" class="node">
<title>node12</title>
<polygon fill="lightgreen" stroke="black" points="319.19,-156.54 319.19,-171.46 284.52,-182 235.48,-182 200.81,-171.46 200.81,-156.54 235.48,-146 284.52,-146 319.19,-156.54"/>
<text text-anchor="middle" x="260" y="-160.3" font-family="Times,serif" font-size="14.00">#12 int 1</text>
</g>
<!-- node10&#45;&gt;node12 -->
<g id="edge22" class="edge">
<title>node10&#45;&gt;node12</title>
<path fill="none" stroke="black" stroke-dasharray="1,5" d="M241.81,-218.81C244.55,-210.7 247.89,-200.84 250.95,-191.78"/>
<polygon fill="black" stroke="black" points="254.36,-192.62 254.24,-182.03 247.73,-190.38 254.36,-192.62"/>
</g>
<!-- node6 -->
<g id="node7" class="node">
<title>node6</title>
<polygon fill="lightgreen" stroke="black" points="255.52,-375.54 255.52,-390.46 224.76,-401 181.24,-401 150.48,-390.46 150.48,-375.54 181.24,-365 224.76,-365 255.52,-375.54"/>
<text text-anchor="middle" x="203" y="-379.3" font-family="Times,serif" font-size="14.00">#6 int 0</text>
</g>
<!-- node6&#45;&gt;node10 -->
<g id="edge7" class="edge">
<title>node6&#45;&gt;node10</title>
<path fill="none" stroke="black" d="M197.46,-364.93C192.38,-346.46 186.79,-316.38 195,-292 198.53,-281.52 204.99,-271.45 211.76,-262.92"/>
<polygon fill="black" stroke="black" points="214.47,-265.13 218.25,-255.23 209.12,-260.61 214.47,-265.13"/>
<text text-anchor="middle" x="213.01" y="-270.83" font-family="Times,serif" font-size="14.00">*1</text>
</g>
<!-- node9 -->
<g id="node8" class="node">
<title>node9</title>
<polygon fill="orange" stroke="black" points="416.46,-302.54 416.46,-317.46 354.1,-328 265.9,-328 203.54,-317.46 203.54,-302.54 265.9,-292 354.1,-292 416.46,-302.54"/>
<text text-anchor="middle" x="310" y="-306.3" font-family="Times,serif" font-size="14.00">#9 Truncate : char</text>
</g>
<!-- node9&#45;&gt;node10 -->
<g id="edge8" class="edge">
<title>node9&#45;&gt;node10</title>
<path fill="none" stroke="black" d="M292.09,-291.81C282.82,-282.92 271.34,-271.91 261.19,-262.17"/>
<polygon fill="black" stroke="black" points="263.39,-259.43 253.75,-255.03 258.54,-264.48 263.39,-259.43"/>
<text text-anchor="middle" x="272.68" y="-257.78" font-family="Times,serif" font-size="14.00">*2</text>
</g>
<!-- node3&#45;&gt;node10 -->
<g id="edge10" class="edge">
<title>node3&#45;&gt;node10</title>
<path fill="none" stroke="red" d="M207.49,-444.49C182.56,-436.84 155.94,-423.65 141,-401 109.18,-352.75 166.36,-293.58 204.96,-261.46"/>
<polygon fill="red" stroke="red" points="207.33,-264.05 212.88,-255.03 202.91,-258.62 207.33,-264.05"/>
</g>
<!-- node3&#45;&gt;node6 -->
<g id="edge14" class="edge">
<title>node3&#45;&gt;node6</title>
<path fill="none" stroke="black" stroke-dasharray="1,5" d="M251.51,-437.81C243.57,-429 233.76,-418.13 225.05,-408.46"/>
<polygon fill="black" stroke="black" points="227.65,-406.11 218.35,-401.03 222.45,-410.8 227.65,-406.11"/>
</g>
<!-- node7 -->
<g id="node10" class="node">
<title>node7</title>
<polygon fill="lightgreen" stroke="black" points="392.19,-375.54 392.19,-390.46 357.52,-401 308.48,-401 273.81,-390.46 273.81,-375.54 308.48,-365 357.52,-365 392.19,-375.54"/>
<text text-anchor="middle" x="333" y="-379.3" font-family="Times,serif" font-size="14.00">#7 int 10</text>
</g>
<!-- node3&#45;&gt;node7 -->
<g id="edge12" class="edge">
<title>node3&#45;&gt;node7</title>
<path fill="none" stroke="black" stroke-dasharray="1,5" d="M282.98,-437.81C291.16,-429 301.28,-418.13 310.26,-408.46"/>
<polygon fill="black" stroke="black" points="312.93,-410.74 317.17,-401.03 307.8,-405.97 312.93,-410.74"/>
</g>
<!-- node7&#45;&gt;node9 -->
<g id="edge13" class="edge">
<title>node7&#45;&gt;node9</title>
<path fill="none" stroke="black" d="M327.43,-364.81C324.8,-356.7 321.61,-346.84 318.67,-337.78"/>
<polygon fill="black" stroke="black" points="321.93,-336.46 315.52,-328.03 315.27,-338.62 321.93,-336.46"/>
<text text-anchor="middle" x="329.14" y="-338.97" font-family="Times,serif" font-size="14.00">*0</text>
</g>
<!-- node14 -->
<g id="node12" class="node">
<title>node14</title>
<polygon fill="lightgrey" stroke="black" points="128,-109 0,-109 0,-73 128,-73 128,-109"/>
<text text-anchor="middle" x="64" y="-87.3" font-family="Times,serif" font-size="14.00">#14 LabelNode</text>
</g>
<!-- node11&#45;&gt;node14 -->
<g id="edge16" class="edge">
<title>node11&#45;&gt;node14</title>
<path fill="none" stroke="red" d="M64,-145.81C64,-137.79 64,-128.05 64,-119.07"/>
<polygon fill="red" stroke="red" points="67.5,-119.03 64,-109.03 60.5,-119.03 67.5,-119.03"/>
</g>
<!-- node16 -->
<g id="node13" class="node">
<title>node16</title>
<polygon fill="lightgrey" stroke="black" points="114.5,-36 13.5,-36 13.5,0 114.5,0 114.5,-36"/>
<text text-anchor="middle" x="64" y="-14.3" font-family="Times,serif" font-size="14.00">#16 Return</text>
</g>
<!-- node14&#45;&gt;node16 -->
<g id="edge17" class="edge">
<title>node14&#45;&gt;node16</title>
<path fill="none" stroke="red" d="M64,-72.81C64,-64.79 64,-55.05 64,-46.07"/>
<polygon fill="red" stroke="red" points="67.5,-46.03 64,-36.03 60.5,-46.03 67.5,-46.03"/>
</g>
<!-- node13&#45;&gt;node16 -->
<g id="edge18" class="edge">
<title>node13&#45;&gt;node16</title>
<path fill="none" stroke="green" d="M400.86,-75.67C318.88,-61.88 196.96,-41.37 124.48,-29.18"/>
<polygon fill="green" stroke="green" points="125.03,-25.72 114.59,-27.51 123.87,-32.62 125.03,-25.72"/>
</g>
<!-- node15 -->
<g id="node16" class="node">
<title>node15</title>
<polygon fill="orange" stroke="black" points="614.07,-10.54 614.07,-25.46 539.05,-36 432.95,-36 357.93,-25.46 357.93,-10.54 432.95,0 539.05,0 614.07,-10.54"/>
<text text-anchor="middle" x="486" y="-14.3" font-family="Times,serif" font-size="14.00">#15 Extend : ZERO int</text>
</g>
<!-- node13&#45;&gt;node15 -->
<g id="edge23" class="edge">
<title>node13&#45;&gt;node15</title>
<path fill="none" stroke="black" d="M486,-72.81C486,-64.79 486,-55.05 486,-46.07"/>
<polygon fill="black" stroke="black" points="489.5,-46.03 486,-36.03 482.5,-46.03 489.5,-46.03"/>
<text text-anchor="middle" x="494.45" y="-50.45" font-family="Times,serif" font-size="14.00">*0</text>
</g>
<!-- node12&#45;&gt;node13 -->
<g id="edge20" class="edge">
<title>node12&#45;&gt;node13</title>
<path fill="none" stroke="black" d="M299.62,-150.55C333.35,-139.96 382.44,-124.53 421.78,-112.18"/>
<polygon fill="black" stroke="black" points="423.06,-115.44 431.55,-109.11 420.96,-108.76 423.06,-115.44"/>
<text text-anchor="middle" x="416.79" y="-118.9" font-family="Times,serif" font-size="14.00">*1</text>
</g>
<!-- c0 -->
<!-- c1 -->
<!-- c0&#45;&gt;c1 -->
<g id="edge24" class="edge">
<title>c0&#45;&gt;c1</title>
<path fill="none" stroke="red" d="M1304.89,-611C1316.11,-611 1374.24,-611 1399.86,-611"/>
<polygon fill="red" stroke="red" points="1400.06,-614.5 1410.06,-611 1400.06,-607.5 1400.06,-614.5"/>
<text text-anchor="middle" x="1357.5" y="-617.8" font-family="Times,serif" font-size="14.00">Control flow</text>
</g>
<!-- c2 -->
<!-- c3 -->
<!-- c2&#45;&gt;c3 -->
<g id="edge25" class="edge">
<title>c2&#45;&gt;c3</title>
<path fill="none" stroke="red" stroke-dasharray="5,2" d="M1098.08,-611C1115.05,-611 1231.21,-611 1269.08,-611"/>
<polygon fill="red" stroke="red" points="1269.17,-614.5 1279.17,-611 1269.17,-607.5 1269.17,-614.5"/>
<text text-anchor="middle" x="1188.5" y="-617.8" font-family="Times,serif" font-size="14.00">Control flow back edge</text>
</g>
<!-- d0 -->
<!-- d1 -->
<!-- d0&#45;&gt;d1 -->
<g id="edge26" class="edge">
<title>d0&#45;&gt;d1</title>
<path fill="none" stroke="black" d="M986.86,-611C996.41,-611 1040.31,-611 1061.92,-611"/>
<polygon fill="black" stroke="black" points="1062.15,-614.5 1072.15,-611 1062.15,-607.5 1062.15,-614.5"/>
<text text-anchor="middle" x="1029.5" y="-617.8" font-family="Times,serif" font-size="14.00">Data flow</text>
</g>
<!-- d2 -->
<!-- d3 -->
<!-- d2&#45;&gt;d3 -->
<g id="edge27" class="edge">
<title>d2&#45;&gt;d3</title>
<path fill="none" stroke="black" stroke-dasharray="1,5" d="M860.81,-611C871.46,-611 926.46,-611 951.08,-611"/>
<polygon fill="black" stroke="black" points="951.15,-614.5 961.15,-611 951.15,-607.5 951.15,-614.5"/>
<text text-anchor="middle" x="911" y="-617.8" font-family="Times,serif" font-size="14.00">Declaration</text>
</g>
<!-- d4 -->
<!-- d5 -->
<!-- d4&#45;&gt;d5 -->
<g id="edge28" class="edge">
<title>d4&#45;&gt;d5</title>
<path fill="none" stroke="blue" d="M718.1,-611C730.72,-611 796.88,-611 824.68,-611"/>
<polygon fill="blue" stroke="blue" points="824.84,-614.5 834.84,-611 824.84,-607.5 824.84,-614.5"/>
<text text-anchor="middle" x="776.5" y="-617.8" font-family="Times,serif" font-size="14.00">PHI Data flow</text>
</g>
<!-- d6 -->
<!-- d7 -->
<!-- d6&#45;&gt;d7 -->
<g id="edge29" class="edge">
<title>d6&#45;&gt;d7</title>
<path fill="none" stroke="green" d="M581,-611C592.94,-611 655.3,-611 681.93,-611"/>
<polygon fill="green" stroke="green" points="681.95,-614.5 691.95,-611 681.95,-607.5 681.95,-614.5"/>
<text text-anchor="middle" x="636.5" y="-617.8" font-family="Times,serif" font-size="14.00">Memory flow</text>
</g>
</g>
</svg>
