<?xml version="1.0" encoding="UTF-8" standalone="no"?>
<!DOCTYPE svg PUBLIC "-//W3C//DTD SVG 1.1//EN"
 "http://www.w3.org/Graphics/SVG/1.1/DTD/svg11.dtd">
<!-- Generated by graphviz version 2.43.0 (0)
 -->
<!-- Title: %3 Pages: 1 -->
<svg width="1107pt" height="660pt"
 viewBox="0.00 0.00 1106.59 659.80" xmlns="http://www.w3.org/2000/svg" xmlns:xlink="http://www.w3.org/1999/xlink">
<g id="graph0" class="graph" transform="scale(1 1) rotate(0) translate(4 655.8)">
<title>%3</title>
<polygon fill="white" stroke="transparent" points="-4,4 -4,-655.8 1102.59,-655.8 1102.59,4 -4,4"/>
<g id="clust1" class="cluster">
<title>cluster_0</title>
<polygon fill="none" stroke="lightgray" points="98.59,-430 98.59,-555 234.59,-555 234.59,-430 98.59,-430"/>
</g>
<g id="clust2" class="cluster">
<title>cluster_1</title>
<polygon fill="none" stroke="lightgray" points="287.59,-357 287.59,-482 545.59,-482 545.59,-357 287.59,-357"/>
</g>
<g id="clust3" class="cluster">
<title>cluster_2</title>
<polygon fill="none" stroke="lightgray" points="224.59,-138 224.59,-263 424.59,-263 424.59,-138 224.59,-138"/>
</g>
<g id="clust4" class="cluster">
<title>cluster_000</title>
<polygon fill="none" stroke="black" points="237.59,-601.2 237.59,-643.8 1090.59,-643.8 1090.59,-601.2 237.59,-601.2"/>
<text text-anchor="middle" x="664.09" y="-628.6" font-family="Times,serif" font-size="14.00">Legend</text>
</g>
<!-- node0 -->
<g id="node1" class="node">
<title>node0</title>
<polygon fill="lightgrey" stroke="transparent" points="228.09,-638 105.09,-638 105.09,-584 228.09,-584 228.09,-638"/>
<polygon fill="none" stroke="black" points="105.59,-611 105.59,-638 228.59,-638 228.59,-611 105.59,-611"/>
<text text-anchor="start" x="126.59" y="-620.8" font-family="Times,serif" font-size="14.00">#0 Method</text>
<polygon fill="yellow" stroke="transparent" points="105.59,-584 105.59,-611 228.59,-611 228.59,-584 105.59,-584"/>
<polygon fill="none" stroke="black" points="105.59,-584 105.59,-611 228.59,-611 228.59,-584 105.59,-584"/>
<text text-anchor="start" x="111.59" y="-593.8" font-family="Times,serif" font-size="14.00">this : ArrayTest</text>
</g>
<!-- node2 -->
<g id="node2" class="node">
<title>node2</title>
<polygon fill="lightgrey" stroke="black" points="226.09,-547 107.09,-547 107.09,-511 226.09,-511 226.09,-547"/>
<text text-anchor="middle" x="166.59" y="-525.3" font-family="Times,serif" font-size="14.00">#2 LabelNode</text>
</g>
<!-- node0&#45;&gt;node2 -->
<g id="edge1" class="edge">
<title>node0&#45;&gt;node2</title>
<path fill="none" stroke="red" d="M166.59,-583.81C166.59,-575.35 166.59,-565.95 166.59,-557.4"/>
<polygon fill="red" stroke="red" points="170.09,-557.17 166.59,-547.17 163.09,-557.17 170.09,-557.17"/>
</g>
<!-- node5 -->
<g id="node6" class="node">
<title>node5</title>
<polygon fill="orange" stroke="black" points="239.28,-302.54 239.28,-317.46 169.17,-328 70.02,-328 -0.09,-317.46 -0.09,-302.54 70.02,-292 169.17,-292 239.28,-302.54"/>
<text text-anchor="middle" x="119.59" y="-306.3" font-family="Times,serif" font-size="14.00">#5 NewArray : char[]</text>
</g>
<!-- node0&#45;&gt;node5 -->
<g id="edge10" class="edge">
<title>node0&#45;&gt;node5</title>
<path fill="none" stroke="green" d="M228.24,-585.92C230.04,-585.27 231.83,-584.63 233.59,-584 372.67,-534.62 462.73,-601.31 549.59,-482 582.29,-437.09 586.73,-398.32 549.59,-357 539.22,-345.46 362.85,-329.64 239.25,-319.88"/>
<polygon fill="green" stroke="green" points="239.2,-316.36 228.96,-319.07 238.66,-323.34 239.2,-316.36"/>
</g>
<!-- node3 -->
<g id="node3" class="node">
<title>node3</title>
<polygon fill="lightgrey" stroke="black" points="415.09,-474 296.09,-474 296.09,-438 415.09,-438 415.09,-474"/>
<text text-anchor="middle" x="355.59" y="-452.3" font-family="Times,serif" font-size="14.00">#3 LabelNode</text>
</g>
<!-- node2&#45;&gt;node3 -->
<g id="edge2" class="edge">
<title>node2&#45;&gt;node3</title>
<path fill="none" stroke="red" d="M198.42,-510.88C211.03,-504.48 225.79,-497.44 239.59,-492 254.36,-486.18 270.5,-480.74 285.93,-475.98"/>
<polygon fill="red" stroke="red" points="287.38,-479.2 295.94,-472.95 285.35,-472.5 287.38,-479.2"/>
</g>
<!-- node4 -->
<g id="node8" class="node">
<title>node4</title>
<polygon fill="lightgreen" stroke="black" points="224.78,-448.54 224.78,-463.46 190.11,-474 141.08,-474 106.41,-463.46 106.41,-448.54 141.08,-438 190.11,-438 224.78,-448.54"/>
<text text-anchor="middle" x="165.59" y="-452.3" font-family="Times,serif" font-size="14.00">#4 int 10</text>
</g>
<!-- node2&#45;&gt;node4 -->
<g id="edge11" class="edge">
<title>node2&#45;&gt;node4</title>
<path fill="none" stroke="black" stroke-dasharray="1,5" d="M166.35,-510.81C166.24,-502.79 166.1,-493.05 165.97,-484.07"/>
<polygon fill="black" stroke="black" points="169.47,-483.98 165.83,-474.03 162.47,-484.08 169.47,-483.98"/>
</g>
<!-- node7 -->
<g id="node4" class="node">
<title>node7</title>
<polygon fill="lightgreen" stroke="black" points="401.12,-375.54 401.12,-390.46 370.35,-401 326.84,-401 296.07,-390.46 296.07,-375.54 326.84,-365 370.35,-365 401.12,-375.54"/>
<text text-anchor="middle" x="348.59" y="-379.3" font-family="Times,serif" font-size="14.00">#7 int 0</text>
</g>
<!-- node3&#45;&gt;node7 -->
<g id="edge3" class="edge">
<title>node3&#45;&gt;node7</title>
<path fill="none" stroke="black" stroke-dasharray="1,5" d="M353.9,-437.81C353.11,-429.79 352.15,-420.05 351.26,-411.07"/>
<polygon fill="black" stroke="black" points="354.74,-410.64 350.27,-401.03 347.77,-411.32 354.74,-410.64"/>
</g>
<!-- node10 -->
<g id="node5" class="node">
<title>node10</title>
<polygon fill="lightgrey" stroke="black" points="417.09,-255 232.09,-255 232.09,-219 417.09,-219 417.09,-255"/>
<text text-anchor="middle" x="324.59" y="-233.3" font-family="Times,serif" font-size="14.00">#10 ArrayStore : char[]</text>
</g>
<!-- node3&#45;&gt;node10 -->
<g id="edge8" class="edge">
<title>node3&#45;&gt;node10</title>
<path fill="none" stroke="red" d="M322.47,-437.98C308.7,-429 294.19,-416.59 286.59,-401 264.58,-355.83 289.65,-297.31 308.23,-264.08"/>
<polygon fill="red" stroke="red" points="311.5,-265.42 313.5,-255.02 305.45,-261.91 311.5,-265.42"/>
</g>
<!-- node6 -->
<g id="node16" class="node">
<title>node6</title>
<polygon fill="lightgreen" stroke="black" points="537.78,-375.54 537.78,-390.46 503.11,-401 454.08,-401 419.41,-390.46 419.41,-375.54 454.08,-365 503.11,-365 537.78,-375.54"/>
<text text-anchor="middle" x="478.59" y="-379.3" font-family="Times,serif" font-size="14.00">#6 int 10</text>
</g>
<!-- node3&#45;&gt;node6 -->
<g id="edge23" class="edge">
<title>node3&#45;&gt;node6</title>
<path fill="none" stroke="black" stroke-dasharray="1,5" d="M385.06,-437.99C402,-428.21 423.45,-415.83 441.53,-405.39"/>
<polygon fill="black" stroke="black" points="443.73,-408.17 450.64,-400.14 440.23,-402.1 443.73,-408.17"/>
</g>
<!-- node7&#45;&gt;node10 -->
<g id="edge5" class="edge">
<title>node7&#45;&gt;node10</title>
<path fill="none" stroke="black" d="M345.75,-364.92C341.63,-340.23 333.99,-294.35 329.1,-265.04"/>
<polygon fill="black" stroke="black" points="332.53,-264.35 327.44,-255.06 325.63,-265.5 332.53,-264.35"/>
<text text-anchor="middle" x="338.75" y="-267.85" font-family="Times,serif" font-size="14.00">*1</text>
</g>
<!-- node13 -->
<g id="node10" class="node">
<title>node13</title>
<polygon fill="lightgrey" stroke="black" points="244.59,-109 74.59,-109 74.59,-73 244.59,-73 244.59,-109"/>
<text text-anchor="middle" x="159.59" y="-87.3" font-family="Times,serif" font-size="14.00">#13 ArrayLoad : char</text>
</g>
<!-- node10&#45;&gt;node13 -->
<g id="edge15" class="edge">
<title>node10&#45;&gt;node13</title>
<path fill="none" stroke="green" d="M288.11,-218.85C270.06,-209.4 248.57,-196.62 231.59,-182 209.64,-163.09 189.48,-136.77 176.12,-117.48"/>
<polygon fill="green" stroke="green" points="178.98,-115.47 170.47,-109.16 173.19,-119.4 178.98,-115.47"/>
</g>
<!-- node12 -->
<g id="node11" class="node">
<title>node12</title>
<polygon fill="lightgreen" stroke="black" points="358.78,-156.54 358.78,-171.46 324.11,-182 275.08,-182 240.41,-171.46 240.41,-156.54 275.08,-146 324.11,-146 358.78,-156.54"/>
<text text-anchor="middle" x="299.59" y="-160.3" font-family="Times,serif" font-size="14.00">#12 int 1</text>
</g>
<!-- node10&#45;&gt;node12 -->
<g id="edge16" class="edge">
<title>node10&#45;&gt;node12</title>
<path fill="none" stroke="black" stroke-dasharray="1,5" d="M318.54,-218.81C315.66,-210.62 312.14,-200.62 308.92,-191.48"/>
<polygon fill="black" stroke="black" points="312.21,-190.3 305.59,-182.03 305.61,-192.62 312.21,-190.3"/>
</g>
<!-- node11 -->
<g id="node14" class="node">
<title>node11</title>
<polygon fill="lightgrey" stroke="black" points="560.59,-182 432.59,-182 432.59,-146 560.59,-146 560.59,-182"/>
<text text-anchor="middle" x="496.59" y="-160.3" font-family="Times,serif" font-size="14.00">#11 LabelNode</text>
</g>
<!-- node10&#45;&gt;node11 -->
<g id="edge20" class="edge">
<title>node10&#45;&gt;node11</title>
<path fill="none" stroke="red" d="M365.79,-218.99C389.76,-209.1 420.17,-196.54 445.64,-186.03"/>
<polygon fill="red" stroke="red" points="447.23,-189.16 455.14,-182.11 444.56,-182.69 447.23,-189.16"/>
</g>
<!-- node5&#45;&gt;node10 -->
<g id="edge4" class="edge">
<title>node5&#45;&gt;node10</title>
<path fill="none" stroke="black" d="M162.84,-291.99C190.96,-281.88 228.08,-268.99 259.69,-258.34"/>
<polygon fill="black" stroke="black" points="260.94,-261.61 269.31,-255.11 258.72,-254.98 260.94,-261.61"/>
<text text-anchor="middle" x="254.82" y="-265.19" font-family="Times,serif" font-size="14.00">*0</text>
</g>
<!-- node5&#45;&gt;node10 -->
<g id="edge7" class="edge">
<title>node5&#45;&gt;node10</title>
<path fill="none" stroke="green" d="M172.94,-292.53C203.31,-282.4 241.15,-269.34 271.47,-258.54"/>
<polygon fill="green" stroke="green" points="272.8,-261.78 281.04,-255.12 270.44,-255.19 272.8,-261.78"/>
</g>
<!-- node8 -->
<g id="node9" class="node">
<title>node8</title>
<polygon fill="orange" stroke="black" points="214.32,-229.54 214.32,-244.46 160,-255 83.19,-255 28.87,-244.46 28.87,-229.54 83.19,-219 160,-219 214.32,-229.54"/>
<text text-anchor="middle" x="121.59" y="-233.3" font-family="Times,serif" font-size="14.00">#8 ArrayLength</text>
</g>
<!-- node5&#45;&gt;node8 -->
<g id="edge12" class="edge">
<title>node5&#45;&gt;node8</title>
<path fill="none" stroke="black" d="M120.08,-291.81C120.3,-283.79 120.58,-274.05 120.83,-265.07"/>
<polygon fill="black" stroke="black" points="124.33,-265.12 121.11,-255.03 117.33,-264.93 124.33,-265.12"/>
<text text-anchor="middle" x="129.05" y="-269.69" font-family="Times,serif" font-size="14.00">*0</text>
</g>
<!-- node5&#45;&gt;node13 -->
<g id="edge13" class="edge">
<title>node5&#45;&gt;node13</title>
<path fill="none" stroke="black" d="M58.38,-293.75C43.15,-286.91 28.61,-277.08 19.59,-263 9.04,-246.53 11.67,-236.88 19.59,-219 40.03,-172.87 86.42,-136.34 120.22,-114.51"/>
<polygon fill="black" stroke="black" points="122.35,-117.31 128.95,-109.02 118.62,-111.38 122.35,-117.31"/>
<text text-anchor="middle" x="118.11" y="-122.13" font-family="Times,serif" font-size="14.00">*0</text>
</g>
<!-- node9 -->
<g id="node7" class="node">
<title>node9</title>
<polygon fill="orange" stroke="black" points="573.05,-302.54 573.05,-317.46 510.69,-328 422.5,-328 360.14,-317.46 360.14,-302.54 422.5,-292 510.69,-292 573.05,-302.54"/>
<text text-anchor="middle" x="466.59" y="-306.3" font-family="Times,serif" font-size="14.00">#9 Truncate : char</text>
</g>
<!-- node9&#45;&gt;node10 -->
<g id="edge6" class="edge">
<title>node9&#45;&gt;node10</title>
<path fill="none" stroke="black" d="M432.58,-291.99C413.14,-282.27 388.57,-269.99 367.77,-259.59"/>
<polygon fill="black" stroke="black" points="369.33,-256.46 358.82,-255.11 366.2,-262.72 369.33,-256.46"/>
<text text-anchor="middle" x="378.81" y="-251.96" font-family="Times,serif" font-size="14.00">*2</text>
</g>
<!-- node4&#45;&gt;node5 -->
<g id="edge9" class="edge">
<title>node4&#45;&gt;node5</title>
<path fill="none" stroke="black" d="M160.14,-437.92C152.22,-413.12 137.47,-366.95 128.11,-337.66"/>
<polygon fill="black" stroke="black" points="131.42,-336.52 125.04,-328.06 124.75,-338.65 131.42,-336.52"/>
<text text-anchor="middle" x="138.61" y="-339.06" font-family="Times,serif" font-size="14.00">*0</text>
</g>
<!-- node16 -->
<g id="node12" class="node">
<title>node16</title>
<polygon fill="lightgrey" stroke="black" points="547.09,-36 446.09,-36 446.09,0 547.09,0 547.09,-36"/>
<text text-anchor="middle" x="496.59" y="-14.3" font-family="Times,serif" font-size="14.00">#16 Return</text>
</g>
<!-- node13&#45;&gt;node16 -->
<g id="edge18" class="edge">
<title>node13&#45;&gt;node16</title>
<path fill="none" stroke="green" d="M240.31,-72.99C300.44,-60.33 381.26,-43.3 435.94,-31.78"/>
<polygon fill="green" stroke="green" points="436.77,-35.18 445.83,-29.69 435.33,-28.33 436.77,-35.18"/>
</g>
<!-- node15 -->
<g id="node15" class="node">
<title>node15</title>
<polygon fill="orange" stroke="black" points="287.67,-10.54 287.67,-25.46 212.64,-36 106.54,-36 31.52,-25.46 31.52,-10.54 106.54,0 212.64,0 287.67,-10.54"/>
<text text-anchor="middle" x="159.59" y="-14.3" font-family="Times,serif" font-size="14.00">#15 Extend : ZERO int</text>
</g>
<!-- node13&#45;&gt;node15 -->
<g id="edge21" class="edge">
<title>node13&#45;&gt;node15</title>
<path fill="none" stroke="black" d="M159.59,-72.81C159.59,-64.79 159.59,-55.05 159.59,-46.07"/>
<polygon fill="black" stroke="black" points="163.09,-46.03 159.59,-36.03 156.09,-46.03 163.09,-46.03"/>
<text text-anchor="middle" x="168.05" y="-50.45" font-family="Times,serif" font-size="14.00">*0</text>
</g>
<!-- node12&#45;&gt;node13 -->
<g id="edge14" class="edge">
<title>node12&#45;&gt;node13</title>
<path fill="none" stroke="black" d="M269.22,-147.59C249.65,-137.67 223.94,-124.63 202.33,-113.67"/>
<polygon fill="black" stroke="black" points="203.85,-110.52 193.35,-109.12 200.68,-116.76 203.85,-110.52"/>
<text text-anchor="middle" x="213.34" y="-106.08" font-family="Times,serif" font-size="14.00">*1</text>
</g>
<!-- node14 -->
<g id="node13" class="node">
<title>node14</title>
<polygon fill="lightgrey" stroke="black" points="560.59,-109 432.59,-109 432.59,-73 560.59,-73 560.59,-109"/>
<text text-anchor="middle" x="496.59" y="-87.3" font-family="Times,serif" font-size="14.00">#14 LabelNode</text>
</g>
<!-- node14&#45;&gt;node16 -->
<g id="edge17" class="edge">
<title>node14&#45;&gt;node16</title>
<path fill="none" stroke="red" d="M496.59,-72.81C496.59,-64.79 496.59,-55.05 496.59,-46.07"/>
<polygon fill="red" stroke="red" points="500.09,-46.03 496.59,-36.03 493.09,-46.03 500.09,-46.03"/>
</g>
<!-- node11&#45;&gt;node14 -->
<g id="edge19" class="edge">
<title>node11&#45;&gt;node14</title>
<path fill="none" stroke="red" d="M496.59,-145.81C496.59,-137.79 496.59,-128.05 496.59,-119.07"/>
<polygon fill="red" stroke="red" points="500.09,-119.03 496.59,-109.03 493.09,-119.03 500.09,-119.03"/>
</g>
<!-- node6&#45;&gt;node9 -->
<g id="edge22" class="edge">
<title>node6&#45;&gt;node9</title>
<path fill="none" stroke="black" d="M475.69,-364.81C474.33,-356.79 472.69,-347.05 471.17,-338.07"/>
<polygon fill="black" stroke="black" points="474.59,-337.31 469.47,-328.03 467.69,-338.47 474.59,-337.31"/>
<text text-anchor="middle" x="480.83" y="-340.79" font-family="Times,serif" font-size="14.00">*0</text>
</g>
<!-- c0 -->
<!-- c1 -->
<!-- c0&#45;&gt;c1 -->
<g id="edge24" class="edge">
<title>c0&#45;&gt;c1</title>
<path fill="none" stroke="red" d="M973.49,-611C984.7,-611 1042.84,-611 1068.45,-611"/>
<polygon fill="red" stroke="red" points="1068.65,-614.5 1078.65,-611 1068.65,-607.5 1068.65,-614.5"/>
<text text-anchor="middle" x="1026.09" y="-617.8" font-family="Times,serif" font-size="14.00">Control flow</text>
</g>
<!-- c2 -->
<!-- c3 -->
<!-- c2&#45;&gt;c3 -->
<g id="edge25" class="edge">
<title>c2&#45;&gt;c3</title>
<path fill="none" stroke="red" stroke-dasharray="5,2" d="M766.67,-611C783.64,-611 899.8,-611 937.68,-611"/>
<polygon fill="red" stroke="red" points="937.76,-614.5 947.76,-611 937.76,-607.5 937.76,-614.5"/>
<text text-anchor="middle" x="857.09" y="-617.8" font-family="Times,serif" font-size="14.00">Control flow back edge</text>
</g>
<!-- d0 -->
<!-- d1 -->
<!-- d0&#45;&gt;d1 -->
<g id="edge26" class="edge">
<title>d0&#45;&gt;d1</title>
<path fill="none" stroke="black" d="M655.45,-611C665,-611 708.9,-611 730.51,-611"/>
<polygon fill="black" stroke="black" points="730.75,-614.5 740.75,-611 730.75,-607.5 730.75,-614.5"/>
<text text-anchor="middle" x="698.09" y="-617.8" font-family="Times,serif" font-size="14.00">Data flow</text>
</g>
<!-- d2 -->
<!-- d3 -->
<!-- d2&#45;&gt;d3 -->
<g id="edge27" class="edge">
<title>d2&#45;&gt;d3</title>
<path fill="none" stroke="black" stroke-dasharray="1,5" d="M529.4,-611C540.05,-611 595.06,-611 619.67,-611"/>
<polygon fill="black" stroke="black" points="619.74,-614.5 629.74,-611 619.74,-607.5 619.74,-614.5"/>
<text text-anchor="middle" x="579.59" y="-617.8" font-family="Times,serif" font-size="14.00">Declaration</text>
</g>
<!-- d4 -->
<!-- d5 -->
<!-- d4&#45;&gt;d5 -->
<g id="edge28" class="edge">
<title>d4&#45;&gt;d5</title>
<path fill="none" stroke="blue" d="M386.69,-611C399.32,-611 465.47,-611 493.27,-611"/>
<polygon fill="blue" stroke="blue" points="493.44,-614.5 503.44,-611 493.44,-607.5 493.44,-614.5"/>
<text text-anchor="middle" x="445.09" y="-617.8" font-family="Times,serif" font-size="14.00">PHI Data flow</text>
</g>
<!-- d6 -->
<!-- d7 -->
<!-- d6&#45;&gt;d7 -->
<g id="edge29" class="edge">
<title>d6&#45;&gt;d7</title>
<path fill="none" stroke="green" d="M249.59,-611C261.53,-611 323.89,-611 350.52,-611"/>
<polygon fill="green" stroke="green" points="350.54,-614.5 360.54,-611 350.54,-607.5 350.54,-614.5"/>
<text text-anchor="middle" x="305.09" y="-617.8" font-family="Times,serif" font-size="14.00">Memory flow</text>
</g>
</g>
</svg>
