<?xml version="1.0" encoding="UTF-8" standalone="no"?>
<!DOCTYPE svg PUBLIC "-//W3C//DTD SVG 1.1//EN"
 "http://www.w3.org/Graphics/SVG/1.1/DTD/svg11.dtd">
<!-- Generated by graphviz version 2.43.0 (0)
 -->
<!-- Title: %3 Pages: 1 -->
<svg width="1116pt" height="660pt"
 viewBox="0.00 0.00 1115.59 659.80" xmlns="http://www.w3.org/2000/svg" xmlns:xlink="http://www.w3.org/1999/xlink">
<g id="graph0" class="graph" transform="scale(1 1) rotate(0) translate(4 655.8)">
<title>%3</title>
<polygon fill="white" stroke="transparent" points="-4,4 -4,-655.8 1111.59,-655.8 1111.59,4 -4,4"/>
<g id="clust1" class="cluster">
<title>cluster_0</title>
<polygon fill="none" stroke="lightgray" points="276.59,-357 276.59,-482 534.59,-482 534.59,-357 276.59,-357"/>
</g>
<g id="clust2" class="cluster">
<title>cluster_1</title>
<polygon fill="none" stroke="lightgray" points="303.59,-138 303.59,-263 503.59,-263 503.59,-138 303.59,-138"/>
</g>
<g id="clust3" class="cluster">
<title>cluster_2</title>
<polygon fill="none" stroke="lightgray" points="107.59,-430 107.59,-555 243.59,-555 243.59,-430 107.59,-430"/>
</g>
<g id="clust4" class="cluster">
<title>cluster_000</title>
<polygon fill="none" stroke="black" points="246.59,-601.2 246.59,-643.8 1099.59,-643.8 1099.59,-601.2 246.59,-601.2"/>
<text text-anchor="middle" x="673.09" y="-628.6" font-family="Times,serif" font-size="14.00">Legend</text>
</g>
<!-- node0 -->
<g id="node1" class="node">
<title>node0</title>
<polygon fill="lightgrey" stroke="transparent" points="237.09,-638 114.09,-638 114.09,-584 237.09,-584 237.09,-638"/>
<polygon fill="none" stroke="black" points="114.59,-611 114.59,-638 237.59,-638 237.59,-611 114.59,-611"/>
<text text-anchor="start" x="135.59" y="-620.8" font-family="Times,serif" font-size="14.00">#0 Method</text>
<polygon fill="yellow" stroke="transparent" points="114.59,-584 114.59,-611 237.59,-611 237.59,-584 114.59,-584"/>
<polygon fill="none" stroke="black" points="114.59,-584 114.59,-611 237.59,-611 237.59,-584 114.59,-584"/>
<text text-anchor="start" x="120.59" y="-593.8" font-family="Times,serif" font-size="14.00">this : ArrayTest</text>
</g>
<!-- node2 -->
<g id="node2" class="node">
<title>node2</title>
<polygon fill="lightgrey" stroke="black" points="235.09,-547 116.09,-547 116.09,-511 235.09,-511 235.09,-547"/>
<text text-anchor="middle" x="175.59" y="-525.3" font-family="Times,serif" font-size="14.00">#2 LabelNode</text>
</g>
<!-- node0&#45;&gt;node2 -->
<g id="edge1" class="edge">
<title>node0&#45;&gt;node2</title>
<path fill="none" stroke="red" d="M175.59,-583.81C175.59,-575.35 175.59,-565.95 175.59,-557.4"/>
<polygon fill="red" stroke="red" points="179.09,-557.17 175.59,-547.17 172.09,-557.17 179.09,-557.17"/>
</g>
<!-- node5 -->
<g id="node7" class="node">
<title>node5</title>
<polygon fill="orange" stroke="black" points="239.28,-302.54 239.28,-317.46 169.17,-328 70.02,-328 -0.09,-317.46 -0.09,-302.54 70.02,-292 169.17,-292 239.28,-302.54"/>
<text text-anchor="middle" x="119.59" y="-306.3" font-family="Times,serif" font-size="14.00">#5 NewArray : char[]</text>
</g>
<!-- node0&#45;&gt;node5 -->
<g id="edge11" class="edge">
<title>node0&#45;&gt;node5</title>
<path fill="none" stroke="green" d="M237.26,-585.97C239.05,-585.3 240.84,-584.64 242.59,-584 373.26,-536.15 457.8,-595.29 538.59,-482 570.85,-436.77 575.87,-398.19 538.59,-357 516.86,-332.99 280.76,-331.73 248.59,-328 237.86,-326.76 226.63,-325.38 215.46,-323.97"/>
<polygon fill="green" stroke="green" points="215.61,-320.46 205.24,-322.67 214.72,-327.41 215.61,-320.46"/>
</g>
<!-- node3 -->
<g id="node3" class="node">
<title>node3</title>
<polygon fill="lightgrey" stroke="black" points="483.09,-474 364.09,-474 364.09,-438 483.09,-438 483.09,-474"/>
<text text-anchor="middle" x="423.59" y="-452.3" font-family="Times,serif" font-size="14.00">#3 LabelNode</text>
</g>
<!-- node2&#45;&gt;node3 -->
<g id="edge2" class="edge">
<title>node2&#45;&gt;node3</title>
<path fill="none" stroke="red" d="M205.74,-510.93C218.61,-504.22 234.01,-496.96 248.59,-492 282.49,-480.47 321.44,-472.22 353.97,-466.64"/>
<polygon fill="red" stroke="red" points="354.56,-470.09 363.85,-464.99 353.41,-463.18 354.56,-470.09"/>
</g>
<!-- node4 -->
<g id="node9" class="node">
<title>node4</title>
<polygon fill="lightgreen" stroke="black" points="233.78,-448.54 233.78,-463.46 199.11,-474 150.08,-474 115.41,-463.46 115.41,-448.54 150.08,-438 199.11,-438 233.78,-448.54"/>
<text text-anchor="middle" x="174.59" y="-452.3" font-family="Times,serif" font-size="14.00">#4 int 10</text>
</g>
<!-- node2&#45;&gt;node4 -->
<g id="edge12" class="edge">
<title>node2&#45;&gt;node4</title>
<path fill="none" stroke="black" stroke-dasharray="1,5" d="M175.35,-510.81C175.24,-502.79 175.1,-493.05 174.97,-484.07"/>
<polygon fill="black" stroke="black" points="178.47,-483.98 174.83,-474.03 171.47,-484.08 178.47,-483.98"/>
</g>
<!-- node7 -->
<g id="node4" class="node">
<title>node7</title>
<polygon fill="lightgreen" stroke="black" points="402.78,-375.54 402.78,-390.46 368.11,-401 319.08,-401 284.41,-390.46 284.41,-375.54 319.08,-365 368.11,-365 402.78,-375.54"/>
<text text-anchor="middle" x="343.59" y="-379.3" font-family="Times,serif" font-size="14.00">#7 int 10</text>
</g>
<!-- node3&#45;&gt;node7 -->
<g id="edge3" class="edge">
<title>node3&#45;&gt;node7</title>
<path fill="none" stroke="black" stroke-dasharray="1,5" d="M404.23,-437.81C394.11,-428.83 381.56,-417.69 370.51,-407.89"/>
<polygon fill="black" stroke="black" points="372.58,-405.05 362.78,-401.03 367.94,-410.28 372.58,-405.05"/>
</g>
<!-- node10 -->
<g id="node6" class="node">
<title>node10</title>
<polygon fill="lightgrey" stroke="black" points="496.09,-255 311.09,-255 311.09,-219 496.09,-219 496.09,-255"/>
<text text-anchor="middle" x="403.59" y="-233.3" font-family="Times,serif" font-size="14.00">#10 ArrayStore : char[]</text>
</g>
<!-- node3&#45;&gt;node10 -->
<g id="edge9" class="edge">
<title>node3&#45;&gt;node10</title>
<path fill="none" stroke="red" d="M483.12,-440.37C503.33,-432.25 523.77,-419.83 535.59,-401 545.99,-384.44 540.92,-375.82 535.59,-357 523.31,-313.59 514.82,-299.9 478.59,-273 472.1,-268.18 464.85,-263.79 457.47,-259.87"/>
<polygon fill="red" stroke="red" points="458.62,-256.53 448.11,-255.16 455.47,-262.79 458.62,-256.53"/>
</g>
<!-- node6 -->
<g id="node8" class="node">
<title>node6</title>
<polygon fill="lightgreen" stroke="black" points="526.12,-375.54 526.12,-390.46 495.35,-401 451.84,-401 421.07,-390.46 421.07,-375.54 451.84,-365 495.35,-365 526.12,-375.54"/>
<text text-anchor="middle" x="473.59" y="-379.3" font-family="Times,serif" font-size="14.00">#6 int 0</text>
</g>
<!-- node3&#45;&gt;node6 -->
<g id="edge23" class="edge">
<title>node3&#45;&gt;node6</title>
<path fill="none" stroke="black" stroke-dasharray="1,5" d="M435.7,-437.81C441.72,-429.27 449.11,-418.77 455.76,-409.32"/>
<polygon fill="black" stroke="black" points="458.71,-411.22 461.6,-401.03 452.98,-407.19 458.71,-411.22"/>
</g>
<!-- node9 -->
<g id="node5" class="node">
<title>node9</title>
<polygon fill="orange" stroke="black" points="470.05,-302.54 470.05,-317.46 407.69,-328 319.5,-328 257.14,-317.46 257.14,-302.54 319.5,-292 407.69,-292 470.05,-302.54"/>
<text text-anchor="middle" x="363.59" y="-306.3" font-family="Times,serif" font-size="14.00">#9 Truncate : char</text>
</g>
<!-- node7&#45;&gt;node9 -->
<g id="edge4" class="edge">
<title>node7&#45;&gt;node9</title>
<path fill="none" stroke="black" d="M348.44,-364.81C350.72,-356.7 353.5,-346.84 356.05,-337.78"/>
<polygon fill="black" stroke="black" points="359.45,-338.6 358.8,-328.03 352.72,-336.71 359.45,-338.6"/>
<text text-anchor="middle" x="362.02" y="-344.07" font-family="Times,serif" font-size="14.00">*0</text>
</g>
<!-- node9&#45;&gt;node10 -->
<g id="edge7" class="edge">
<title>node9&#45;&gt;node10</title>
<path fill="none" stroke="black" d="M373.28,-291.81C377.99,-283.44 383.76,-273.2 389,-263.9"/>
<polygon fill="black" stroke="black" points="392.14,-265.46 394,-255.03 386.04,-262.02 392.14,-265.46"/>
<text text-anchor="middle" x="392.47" y="-271.27" font-family="Times,serif" font-size="14.00">*2</text>
</g>
<!-- node13 -->
<g id="node10" class="node">
<title>node13</title>
<polygon fill="lightgrey" stroke="black" points="323.59,-109 153.59,-109 153.59,-73 323.59,-73 323.59,-109"/>
<text text-anchor="middle" x="238.59" y="-87.3" font-family="Times,serif" font-size="14.00">#13 ArrayLoad : char</text>
</g>
<!-- node10&#45;&gt;node13 -->
<g id="edge15" class="edge">
<title>node10&#45;&gt;node13</title>
<path fill="none" stroke="green" d="M367.11,-218.85C349.06,-209.4 327.57,-196.62 310.59,-182 288.64,-163.09 268.48,-136.77 255.12,-117.48"/>
<polygon fill="green" stroke="green" points="257.98,-115.47 249.47,-109.16 252.19,-119.4 257.98,-115.47"/>
</g>
<!-- node12 -->
<g id="node11" class="node">
<title>node12</title>
<polygon fill="lightgreen" stroke="black" points="437.78,-156.54 437.78,-171.46 403.11,-182 354.08,-182 319.41,-171.46 319.41,-156.54 354.08,-146 403.11,-146 437.78,-156.54"/>
<text text-anchor="middle" x="378.59" y="-160.3" font-family="Times,serif" font-size="14.00">#12 int 1</text>
</g>
<!-- node10&#45;&gt;node12 -->
<g id="edge16" class="edge">
<title>node10&#45;&gt;node12</title>
<path fill="none" stroke="black" stroke-dasharray="1,5" d="M397.54,-218.81C394.66,-210.62 391.14,-200.62 387.92,-191.48"/>
<polygon fill="black" stroke="black" points="391.21,-190.3 384.59,-182.03 384.61,-192.62 391.21,-190.3"/>
</g>
<!-- node11 -->
<g id="node15" class="node">
<title>node11</title>
<polygon fill="lightgrey" stroke="black" points="639.59,-182 511.59,-182 511.59,-146 639.59,-146 639.59,-182"/>
<text text-anchor="middle" x="575.59" y="-160.3" font-family="Times,serif" font-size="14.00">#11 LabelNode</text>
</g>
<!-- node10&#45;&gt;node11 -->
<g id="edge21" class="edge">
<title>node10&#45;&gt;node11</title>
<path fill="none" stroke="red" d="M444.79,-218.99C468.76,-209.1 499.17,-196.54 524.64,-186.03"/>
<polygon fill="red" stroke="red" points="526.23,-189.16 534.14,-182.11 523.56,-182.69 526.23,-189.16"/>
</g>
<!-- node5&#45;&gt;node10 -->
<g id="edge5" class="edge">
<title>node5&#45;&gt;node10</title>
<path fill="none" stroke="black" d="M177.25,-293.15C218.21,-282.61 273.79,-268.68 319.66,-257.46"/>
<polygon fill="black" stroke="black" points="320.7,-260.81 329.58,-255.04 319.04,-254.01 320.7,-260.81"/>
<text text-anchor="middle" x="313.98" y="-263.85" font-family="Times,serif" font-size="14.00">*0</text>
</g>
<!-- node5&#45;&gt;node10 -->
<g id="edge8" class="edge">
<title>node5&#45;&gt;node10</title>
<path fill="none" stroke="green" d="M184.39,-294.2C228.28,-283.56 286.26,-269.11 331.59,-257.53"/>
<polygon fill="green" stroke="green" points="332.54,-260.9 341.36,-255.02 330.8,-254.12 332.54,-260.9"/>
</g>
<!-- node5&#45;&gt;node13 -->
<g id="edge13" class="edge">
<title>node5&#45;&gt;node13</title>
<path fill="none" stroke="black" d="M109.28,-291.81C99.55,-273.23 87.94,-243.06 98.59,-219 119.03,-172.87 165.42,-136.34 199.22,-114.51"/>
<polygon fill="black" stroke="black" points="201.35,-117.31 207.95,-109.02 197.62,-111.38 201.35,-117.31"/>
<text text-anchor="middle" x="197.11" y="-122.13" font-family="Times,serif" font-size="14.00">*0</text>
</g>
<!-- node8 -->
<g id="node16" class="node">
<title>node8</title>
<polygon fill="orange" stroke="black" points="293.32,-229.54 293.32,-244.46 239,-255 162.19,-255 107.87,-244.46 107.87,-229.54 162.19,-219 239,-219 293.32,-229.54"/>
<text text-anchor="middle" x="200.59" y="-233.3" font-family="Times,serif" font-size="14.00">#8 ArrayLength</text>
</g>
<!-- node5&#45;&gt;node8 -->
<g id="edge22" class="edge">
<title>node5&#45;&gt;node8</title>
<path fill="none" stroke="black" d="M139.2,-291.81C149.45,-282.83 162.15,-271.69 173.34,-261.89"/>
<polygon fill="black" stroke="black" points="175.95,-264.25 181.17,-255.03 171.34,-258.99 175.95,-264.25"/>
<text text-anchor="middle" x="173.11" y="-269.63" font-family="Times,serif" font-size="14.00">*0</text>
</g>
<!-- node6&#45;&gt;node10 -->
<g id="edge6" class="edge">
<title>node6&#45;&gt;node10</title>
<path fill="none" stroke="black" d="M479.5,-364.68C484.89,-345.73 490.37,-314.98 478.59,-292 472.06,-279.24 460.96,-268.82 449.27,-260.64"/>
<polygon fill="black" stroke="black" points="451,-257.6 440.71,-255.09 447.19,-263.47 451,-257.6"/>
<text text-anchor="middle" x="460.51" y="-254.17" font-family="Times,serif" font-size="14.00">*1</text>
</g>
<!-- node4&#45;&gt;node5 -->
<g id="edge10" class="edge">
<title>node4&#45;&gt;node5</title>
<path fill="none" stroke="black" d="M168.07,-437.92C158.6,-413.12 140.96,-366.95 129.77,-337.66"/>
<polygon fill="black" stroke="black" points="132.95,-336.15 126.11,-328.06 126.41,-338.65 132.95,-336.15"/>
<text text-anchor="middle" x="140.47" y="-338.28" font-family="Times,serif" font-size="14.00">*0</text>
</g>
<!-- node15 -->
<g id="node12" class="node">
<title>node15</title>
<polygon fill="orange" stroke="black" points="366.67,-10.54 366.67,-25.46 291.64,-36 185.54,-36 110.52,-25.46 110.52,-10.54 185.54,0 291.64,0 366.67,-10.54"/>
<text text-anchor="middle" x="238.59" y="-14.3" font-family="Times,serif" font-size="14.00">#15 Extend : ZERO int</text>
</g>
<!-- node13&#45;&gt;node15 -->
<g id="edge17" class="edge">
<title>node13&#45;&gt;node15</title>
<path fill="none" stroke="black" d="M238.59,-72.81C238.59,-64.79 238.59,-55.05 238.59,-46.07"/>
<polygon fill="black" stroke="black" points="242.09,-46.03 238.59,-36.03 235.09,-46.03 242.09,-46.03"/>
<text text-anchor="middle" x="247.05" y="-50.45" font-family="Times,serif" font-size="14.00">*0</text>
</g>
<!-- node16 -->
<g id="node13" class="node">
<title>node16</title>
<polygon fill="lightgrey" stroke="black" points="626.09,-36 525.09,-36 525.09,0 626.09,0 626.09,-36"/>
<text text-anchor="middle" x="575.59" y="-14.3" font-family="Times,serif" font-size="14.00">#16 Return</text>
</g>
<!-- node13&#45;&gt;node16 -->
<g id="edge19" class="edge">
<title>node13&#45;&gt;node16</title>
<path fill="none" stroke="green" d="M319.31,-72.99C379.44,-60.33 460.26,-43.3 514.94,-31.78"/>
<polygon fill="green" stroke="green" points="515.77,-35.18 524.83,-29.69 514.33,-28.33 515.77,-35.18"/>
</g>
<!-- node12&#45;&gt;node13 -->
<g id="edge14" class="edge">
<title>node12&#45;&gt;node13</title>
<path fill="none" stroke="black" d="M348.22,-147.59C328.65,-137.67 302.94,-124.63 281.33,-113.67"/>
<polygon fill="black" stroke="black" points="282.85,-110.52 272.35,-109.12 279.68,-116.76 282.85,-110.52"/>
<text text-anchor="middle" x="292.34" y="-106.08" font-family="Times,serif" font-size="14.00">*1</text>
</g>
<!-- node14 -->
<g id="node14" class="node">
<title>node14</title>
<polygon fill="lightgrey" stroke="black" points="639.59,-109 511.59,-109 511.59,-73 639.59,-73 639.59,-109"/>
<text text-anchor="middle" x="575.59" y="-87.3" font-family="Times,serif" font-size="14.00">#14 LabelNode</text>
</g>
<!-- node14&#45;&gt;node16 -->
<g id="edge18" class="edge">
<title>node14&#45;&gt;node16</title>
<path fill="none" stroke="red" d="M575.59,-72.81C575.59,-64.79 575.59,-55.05 575.59,-46.07"/>
<polygon fill="red" stroke="red" points="579.09,-46.03 575.59,-36.03 572.09,-46.03 579.09,-46.03"/>
</g>
<!-- node11&#45;&gt;node14 -->
<g id="edge20" class="edge">
<title>node11&#45;&gt;node14</title>
<path fill="none" stroke="red" d="M575.59,-145.81C575.59,-137.79 575.59,-128.05 575.59,-119.07"/>
<polygon fill="red" stroke="red" points="579.09,-119.03 575.59,-109.03 572.09,-119.03 579.09,-119.03"/>
</g>
<!-- c0 -->
<!-- c1 -->
<!-- c0&#45;&gt;c1 -->
<g id="edge24" class="edge">
<title>c0&#45;&gt;c1</title>
<path fill="none" stroke="red" d="M982.49,-611C993.7,-611 1051.84,-611 1077.45,-611"/>
<polygon fill="red" stroke="red" points="1077.65,-614.5 1087.65,-611 1077.65,-607.5 1077.65,-614.5"/>
<text text-anchor="middle" x="1035.09" y="-617.8" font-family="Times,serif" font-size="14.00">Control flow</text>
</g>
<!-- c2 -->
<!-- c3 -->
<!-- c2&#45;&gt;c3 -->
<g id="edge25" class="edge">
<title>c2&#45;&gt;c3</title>
<path fill="none" stroke="red" stroke-dasharray="5,2" d="M775.67,-611C792.64,-611 908.8,-611 946.68,-611"/>
<polygon fill="red" stroke="red" points="946.76,-614.5 956.76,-611 946.76,-607.5 946.76,-614.5"/>
<text text-anchor="middle" x="866.09" y="-617.8" font-family="Times,serif" font-size="14.00">Control flow back edge</text>
</g>
<!-- d0 -->
<!-- d1 -->
<!-- d0&#45;&gt;d1 -->
<g id="edge26" class="edge">
<title>d0&#45;&gt;d1</title>
<path fill="none" stroke="black" d="M664.45,-611C674,-611 717.9,-611 739.51,-611"/>
<polygon fill="black" stroke="black" points="739.75,-614.5 749.75,-611 739.75,-607.5 739.75,-614.5"/>
<text text-anchor="middle" x="707.09" y="-617.8" font-family="Times,serif" font-size="14.00">Data flow</text>
</g>
<!-- d2 -->
<!-- d3 -->
<!-- d2&#45;&gt;d3 -->
<g id="edge27" class="edge">
<title>d2&#45;&gt;d3</title>
<path fill="none" stroke="black" stroke-dasharray="1,5" d="M538.4,-611C549.05,-611 604.06,-611 628.67,-611"/>
<polygon fill="black" stroke="black" points="628.74,-614.5 638.74,-611 628.74,-607.5 628.74,-614.5"/>
<text text-anchor="middle" x="588.59" y="-617.8" font-family="Times,serif" font-size="14.00">Declaration</text>
</g>
<!-- d4 -->
<!-- d5 -->
<!-- d4&#45;&gt;d5 -->
<g id="edge28" class="edge">
<title>d4&#45;&gt;d5</title>
<path fill="none" stroke="blue" d="M395.69,-611C408.32,-611 474.47,-611 502.27,-611"/>
<polygon fill="blue" stroke="blue" points="502.44,-614.5 512.44,-611 502.44,-607.5 502.44,-614.5"/>
<text text-anchor="middle" x="454.09" y="-617.8" font-family="Times,serif" font-size="14.00">PHI Data flow</text>
</g>
<!-- d6 -->
<!-- d7 -->
<!-- d6&#45;&gt;d7 -->
<g id="edge29" class="edge">
<title>d6&#45;&gt;d7</title>
<path fill="none" stroke="green" d="M258.59,-611C270.53,-611 332.89,-611 359.52,-611"/>
<polygon fill="green" stroke="green" points="359.54,-614.5 369.54,-611 359.54,-607.5 359.54,-614.5"/>
<text text-anchor="middle" x="314.09" y="-617.8" font-family="Times,serif" font-size="14.00">Memory flow</text>
</g>
</g>
</svg>
