<?xml version="1.0" encoding="UTF-8" standalone="no"?>
<!DOCTYPE svg PUBLIC "-//W3C//DTD SVG 1.1//EN"
 "http://www.w3.org/Graphics/SVG/1.1/DTD/svg11.dtd">
<!-- Generated by graphviz version 2.43.0 (0)
 -->
<!-- Title: %3 Pages: 1 -->
<svg width="1388pt" height="806pt"
 viewBox="0.00 0.00 1388.31 805.80" xmlns="http://www.w3.org/2000/svg" xmlns:xlink="http://www.w3.org/1999/xlink">
<g id="graph0" class="graph" transform="scale(1 1) rotate(0) translate(4 801.8)">
<title>%3</title>
<polygon fill="white" stroke="transparent" points="-4,4 -4,-801.8 1384.31,-801.8 1384.31,4 -4,4"/>
<g id="clust1" class="cluster">
<title>cluster_0</title>
<polygon fill="none" stroke="lightgray" points="380.31,-576 380.31,-701 516.31,-701 516.31,-576 380.31,-576"/>
</g>
<g id="clust2" class="cluster">
<title>cluster_1</title>
<polygon fill="none" stroke="lightgray" points="103.31,-284 103.31,-409 303.31,-409 303.31,-284 103.31,-284"/>
</g>
<g id="clust3" class="cluster">
<title>cluster_2</title>
<polygon fill="none" stroke="lightgray" points="108.31,-503 108.31,-628 366.31,-628 366.31,-503 108.31,-503"/>
</g>
<g id="clust4" class="cluster">
<title>cluster_000</title>
<polygon fill="none" stroke="black" points="519.31,-747.2 519.31,-789.8 1372.31,-789.8 1372.31,-747.2 519.31,-747.2"/>
<text text-anchor="middle" x="945.81" y="-774.6" font-family="Times,serif" font-size="14.00">Legend</text>
</g>
<!-- node0 -->
<g id="node1" class="node">
<title>node0</title>
<polygon fill="lightgrey" stroke="transparent" points="509.81,-784 386.81,-784 386.81,-730 509.81,-730 509.81,-784"/>
<polygon fill="none" stroke="black" points="387.31,-757 387.31,-784 510.31,-784 510.31,-757 387.31,-757"/>
<text text-anchor="start" x="408.31" y="-766.8" font-family="Times,serif" font-size="14.00">#0 Method</text>
<polygon fill="yellow" stroke="transparent" points="387.31,-730 387.31,-757 510.31,-757 510.31,-730 387.31,-730"/>
<polygon fill="none" stroke="black" points="387.31,-730 387.31,-757 510.31,-757 510.31,-730 387.31,-730"/>
<text text-anchor="start" x="393.31" y="-739.8" font-family="Times,serif" font-size="14.00">this : ArrayTest</text>
</g>
<!-- node2 -->
<g id="node2" class="node">
<title>node2</title>
<polygon fill="lightgrey" stroke="black" points="507.81,-693 388.81,-693 388.81,-657 507.81,-657 507.81,-693"/>
<text text-anchor="middle" x="448.31" y="-671.3" font-family="Times,serif" font-size="14.00">#2 LabelNode</text>
</g>
<!-- node0&#45;&gt;node2 -->
<g id="edge1" class="edge">
<title>node0&#45;&gt;node2</title>
<path fill="none" stroke="red" d="M448.31,-729.81C448.31,-721.35 448.31,-711.95 448.31,-703.4"/>
<polygon fill="red" stroke="red" points="451.81,-703.17 448.31,-693.17 444.81,-703.17 451.81,-703.17"/>
</g>
<!-- node5 -->
<g id="node4" class="node">
<title>node5</title>
<polygon fill="orange" stroke="black" points="574,-448.54 574,-463.46 503.88,-474 404.73,-474 334.62,-463.46 334.62,-448.54 404.73,-438 503.88,-438 574,-448.54"/>
<text text-anchor="middle" x="454.31" y="-452.3" font-family="Times,serif" font-size="14.00">#5 NewArray : char[]</text>
</g>
<!-- node0&#45;&gt;node5 -->
<g id="edge4" class="edge">
<title>node0&#45;&gt;node5</title>
<path fill="none" stroke="green" d="M495.7,-729.75C505.61,-721.88 514.73,-712.28 520.31,-701 544.93,-651.2 534.22,-629.78 520.31,-576 511.28,-541.12 489.59,-505.56 473.52,-482.52"/>
<polygon fill="green" stroke="green" points="476.33,-480.43 467.68,-474.32 470.63,-484.5 476.33,-480.43"/>
</g>
<!-- node4 -->
<g id="node3" class="node">
<title>node4</title>
<polygon fill="lightgreen" stroke="black" points="507.5,-594.54 507.5,-609.46 472.82,-620 423.79,-620 389.12,-609.46 389.12,-594.54 423.79,-584 472.82,-584 507.5,-594.54"/>
<text text-anchor="middle" x="448.31" y="-598.3" font-family="Times,serif" font-size="14.00">#4 int 10</text>
</g>
<!-- node2&#45;&gt;node4 -->
<g id="edge2" class="edge">
<title>node2&#45;&gt;node4</title>
<path fill="none" stroke="black" stroke-dasharray="1,5" d="M448.31,-656.81C448.31,-648.79 448.31,-639.05 448.31,-630.07"/>
<polygon fill="black" stroke="black" points="451.81,-630.03 448.31,-620.03 444.81,-630.03 451.81,-630.03"/>
</g>
<!-- node3 -->
<g id="node9" class="node">
<title>node3</title>
<polygon fill="lightgrey" stroke="black" points="238.81,-620 119.81,-620 119.81,-584 238.81,-584 238.81,-620"/>
<text text-anchor="middle" x="179.31" y="-598.3" font-family="Times,serif" font-size="14.00">#3 LabelNode</text>
</g>
<!-- node2&#45;&gt;node3 -->
<g id="edge11" class="edge">
<title>node2&#45;&gt;node3</title>
<path fill="none" stroke="red" d="M388.61,-658.24C347.25,-647.33 292.06,-632.76 248.74,-621.33"/>
<polygon fill="red" stroke="red" points="249.4,-617.88 238.84,-618.71 247.62,-624.65 249.4,-617.88"/>
</g>
<!-- node4&#45;&gt;node5 -->
<g id="edge3" class="edge">
<title>node4&#45;&gt;node5</title>
<path fill="none" stroke="black" d="M449.02,-583.92C450.04,-559.34 451.94,-513.75 453.17,-484.43"/>
<polygon fill="black" stroke="black" points="456.68,-484.2 453.6,-474.06 449.68,-483.91 456.68,-484.2"/>
<text text-anchor="middle" x="461.29" y="-488.82" font-family="Times,serif" font-size="14.00">*0</text>
</g>
<!-- node8 -->
<g id="node5" class="node">
<title>node8</title>
<polygon fill="orange" stroke="black" points="499.03,-375.54 499.03,-390.46 444.72,-401 367.9,-401 313.59,-390.46 313.59,-375.54 367.9,-365 444.72,-365 499.03,-375.54"/>
<text text-anchor="middle" x="406.31" y="-379.3" font-family="Times,serif" font-size="14.00">#8 ArrayLength</text>
</g>
<!-- node5&#45;&gt;node8 -->
<g id="edge5" class="edge">
<title>node5&#45;&gt;node8</title>
<path fill="none" stroke="black" d="M442.69,-437.81C436.91,-429.27 429.81,-418.77 423.43,-409.32"/>
<polygon fill="black" stroke="black" points="426.32,-407.35 417.82,-401.03 420.52,-411.27 426.32,-407.35"/>
<text text-anchor="middle" x="434.98" y="-407.61" font-family="Times,serif" font-size="14.00">*0</text>
</g>
<!-- node10 -->
<g id="node6" class="node">
<title>node10</title>
<polygon fill="lightgrey" stroke="black" points="295.81,-401 110.81,-401 110.81,-365 295.81,-365 295.81,-401"/>
<text text-anchor="middle" x="203.31" y="-379.3" font-family="Times,serif" font-size="14.00">#10 ArrayStore : char[]</text>
</g>
<!-- node5&#45;&gt;node10 -->
<g id="edge6" class="edge">
<title>node5&#45;&gt;node10</title>
<path fill="none" stroke="black" d="M393.85,-439.51C355.63,-429.05 306.36,-415.15 267.46,-403.88"/>
<polygon fill="black" stroke="black" points="268.39,-400.51 257.81,-401.08 266.44,-407.23 268.39,-400.51"/>
<text text-anchor="middle" x="277.58" y="-394.32" font-family="Times,serif" font-size="14.00">*0</text>
</g>
<!-- node5&#45;&gt;node10 -->
<g id="edge9" class="edge">
<title>node5&#45;&gt;node10</title>
<path fill="none" stroke="green" d="M401.59,-438.44C366.13,-428.09 318.91,-414.7 279.41,-403.79"/>
<polygon fill="green" stroke="green" points="280.12,-400.36 269.55,-401.08 278.26,-407.11 280.12,-400.36"/>
</g>
<!-- node12 -->
<g id="node12" class="node">
<title>node12</title>
<polygon fill="lightgrey" stroke="black" points="288.31,-255 118.31,-255 118.31,-219 288.31,-219 288.31,-255"/>
<text text-anchor="middle" x="203.31" y="-233.3" font-family="Times,serif" font-size="14.00">#12 ArrayLoad : char</text>
</g>
<!-- node5&#45;&gt;node12 -->
<g id="edge16" class="edge">
<title>node5&#45;&gt;node12</title>
<path fill="none" stroke="black" d="M483.13,-437.91C493.02,-430.4 502.94,-420.63 508.31,-409 516.51,-391.25 519.16,-381.27 508.31,-365 461.88,-295.38 369.32,-263.87 298.28,-249.63"/>
<polygon fill="black" stroke="black" points="298.89,-246.19 288.41,-247.74 297.57,-253.06 298.89,-246.19"/>
<text text-anchor="middle" x="307.8" y="-239.16" font-family="Times,serif" font-size="14.00">*0</text>
</g>
<!-- node11 -->
<g id="node11" class="node">
<title>node11</title>
<polygon fill="lightgreen" stroke="black" points="295.5,-302.54 295.5,-317.46 260.82,-328 211.79,-328 177.12,-317.46 177.12,-302.54 211.79,-292 260.82,-292 295.5,-302.54"/>
<text text-anchor="middle" x="236.31" y="-306.3" font-family="Times,serif" font-size="14.00">#11 int 1</text>
</g>
<!-- node10&#45;&gt;node11 -->
<g id="edge15" class="edge">
<title>node10&#45;&gt;node11</title>
<path fill="none" stroke="black" stroke-dasharray="1,5" d="M211.3,-364.81C215.15,-356.53 219.85,-346.41 224.13,-337.19"/>
<polygon fill="black" stroke="black" points="227.35,-338.57 228.39,-328.03 221,-335.62 227.35,-338.57"/>
</g>
<!-- node10&#45;&gt;node12 -->
<g id="edge18" class="edge">
<title>node10&#45;&gt;node12</title>
<path fill="none" stroke="green" d="M180.56,-364.81C171.84,-354.79 163.3,-341.5 159.31,-328 153.76,-309.25 153.06,-302.53 159.31,-284 161.83,-276.51 166.12,-269.28 171.1,-262.85"/>
<polygon fill="green" stroke="green" points="173.83,-265.04 177.71,-255.18 168.53,-260.47 173.83,-265.04"/>
</g>
<!-- node10&#45;&gt;node12 -->
<g id="edge19" class="edge">
<title>node10&#45;&gt;node12</title>
<path fill="none" stroke="red" d="M196.41,-364.81C189.84,-354.79 181.3,-341.5 177.31,-328 171.76,-309.25 171.06,-302.53 177.31,-284 179.78,-276.68 183.93,-269.6 188.28,-263.28"/>
<polygon fill="red" stroke="red" points="191.12,-265.32 194.2,-255.18 185.47,-261.19 191.12,-265.32"/>
</g>
<!-- node6 -->
<g id="node7" class="node">
<title>node6</title>
<polygon fill="lightgreen" stroke="black" points="357.83,-521.54 357.83,-536.46 327.06,-547 283.55,-547 252.78,-536.46 252.78,-521.54 283.55,-511 327.06,-511 357.83,-521.54"/>
<text text-anchor="middle" x="305.31" y="-525.3" font-family="Times,serif" font-size="14.00">#6 int 0</text>
</g>
<!-- node6&#45;&gt;node10 -->
<g id="edge7" class="edge">
<title>node6&#45;&gt;node10</title>
<path fill="none" stroke="black" d="M305.73,-510.9C305.39,-491.59 302.3,-459.99 287.31,-438 278.42,-424.96 265.22,-414.36 251.91,-406.12"/>
<polygon fill="black" stroke="black" points="253.6,-403.05 243.19,-401.04 250.07,-409.1 253.6,-403.05"/>
<text text-anchor="middle" x="263.11" y="-399.16" font-family="Times,serif" font-size="14.00">*1</text>
</g>
<!-- node9 -->
<g id="node8" class="node">
<title>node9</title>
<polygon fill="orange" stroke="black" points="278.76,-448.54 278.76,-463.46 216.4,-474 128.21,-474 65.85,-463.46 65.85,-448.54 128.21,-438 216.4,-438 278.76,-448.54"/>
<text text-anchor="middle" x="172.31" y="-452.3" font-family="Times,serif" font-size="14.00">#9 Truncate : char</text>
</g>
<!-- node9&#45;&gt;node10 -->
<g id="edge8" class="edge">
<title>node9&#45;&gt;node10</title>
<path fill="none" stroke="black" d="M179.81,-437.81C183.39,-429.62 187.75,-419.62 191.74,-410.48"/>
<polygon fill="black" stroke="black" points="195.08,-411.59 195.87,-401.03 188.66,-408.79 195.08,-411.59"/>
<text text-anchor="middle" x="196.37" y="-417.32" font-family="Times,serif" font-size="14.00">*2</text>
</g>
<!-- node3&#45;&gt;node10 -->
<g id="edge10" class="edge">
<title>node3&#45;&gt;node10</title>
<path fill="none" stroke="red" d="M149.64,-583.92C102.49,-554.55 19.44,-492.39 57.31,-438 68.06,-422.56 83.76,-411.53 100.92,-403.64"/>
<polygon fill="red" stroke="red" points="102.72,-406.68 110.58,-399.58 100.01,-400.23 102.72,-406.68"/>
</g>
<!-- node3&#45;&gt;node6 -->
<g id="edge14" class="edge">
<title>node3&#45;&gt;node6</title>
<path fill="none" stroke="black" stroke-dasharray="1,5" d="M209.49,-583.99C227.38,-573.91 250.18,-561.07 269.04,-550.43"/>
<polygon fill="black" stroke="black" points="270.96,-553.37 277.95,-545.41 267.52,-547.27 270.96,-553.37"/>
</g>
<!-- node7 -->
<g id="node10" class="node">
<title>node7</title>
<polygon fill="lightgreen" stroke="black" points="234.5,-521.54 234.5,-536.46 199.82,-547 150.79,-547 116.12,-536.46 116.12,-521.54 150.79,-511 199.82,-511 234.5,-521.54"/>
<text text-anchor="middle" x="175.31" y="-525.3" font-family="Times,serif" font-size="14.00">#7 int 10</text>
</g>
<!-- node3&#45;&gt;node7 -->
<g id="edge12" class="edge">
<title>node3&#45;&gt;node7</title>
<path fill="none" stroke="black" stroke-dasharray="1,5" d="M178.34,-583.81C177.89,-575.79 177.34,-566.05 176.83,-557.07"/>
<polygon fill="black" stroke="black" points="180.32,-556.82 176.27,-547.03 173.34,-557.21 180.32,-556.82"/>
</g>
<!-- node7&#45;&gt;node9 -->
<g id="edge13" class="edge">
<title>node7&#45;&gt;node9</title>
<path fill="none" stroke="black" d="M174.58,-510.81C174.24,-502.79 173.83,-493.05 173.45,-484.07"/>
<polygon fill="black" stroke="black" points="176.95,-483.87 173.03,-474.03 169.95,-484.17 176.95,-483.87"/>
<text text-anchor="middle" x="182.24" y="-488.08" font-family="Times,serif" font-size="14.00">*0</text>
</g>
<!-- node11&#45;&gt;node12 -->
<g id="edge17" class="edge">
<title>node11&#45;&gt;node12</title>
<path fill="none" stroke="black" d="M228.32,-291.81C224.47,-283.53 219.77,-273.41 215.48,-264.19"/>
<polygon fill="black" stroke="black" points="218.61,-262.62 211.22,-255.03 212.26,-265.57 218.61,-262.62"/>
<text text-anchor="middle" x="226.53" y="-264.2" font-family="Times,serif" font-size="14.00">*1</text>
</g>
<!-- node16 -->
<g id="node13" class="node">
<title>node16</title>
<polygon fill="lightgrey" stroke="black" points="405.81,-36 304.81,-36 304.81,0 405.81,0 405.81,-36"/>
<text text-anchor="middle" x="355.31" y="-14.3" font-family="Times,serif" font-size="14.00">#16 Return</text>
</g>
<!-- node12&#45;&gt;node16 -->
<g id="edge21" class="edge">
<title>node12&#45;&gt;node16</title>
<path fill="none" stroke="green" d="M118.14,-226.72C51.66,-215.77 -24.37,-192.76 8.31,-146 73.24,-53.09 213.85,-27.93 294.73,-21.26"/>
<polygon fill="green" stroke="green" points="295.06,-24.75 304.77,-20.51 294.53,-17.77 295.06,-24.75"/>
</g>
<!-- node14 -->
<g id="node15" class="node">
<title>node14</title>
<polygon fill="lightgrey" stroke="black" points="419.31,-182 291.31,-182 291.31,-146 419.31,-146 419.31,-182"/>
<text text-anchor="middle" x="355.31" y="-160.3" font-family="Times,serif" font-size="14.00">#14 LabelNode</text>
</g>
<!-- node12&#45;&gt;node14 -->
<g id="edge23" class="edge">
<title>node12&#45;&gt;node14</title>
<path fill="none" stroke="red" d="M239.72,-218.99C260.62,-209.23 287.07,-196.88 309.39,-186.45"/>
<polygon fill="red" stroke="red" points="311.09,-189.52 318.67,-182.11 308.13,-183.17 311.09,-189.52"/>
</g>
<!-- node13 -->
<g id="node16" class="node">
<title>node13</title>
<polygon fill="orange" stroke="black" points="273.38,-156.54 273.38,-171.46 198.36,-182 92.26,-182 17.24,-171.46 17.24,-156.54 92.26,-146 198.36,-146 273.38,-156.54"/>
<text text-anchor="middle" x="145.31" y="-160.3" font-family="Times,serif" font-size="14.00">#13 Extend : ZERO int</text>
</g>
<!-- node12&#45;&gt;node13 -->
<g id="edge24" class="edge">
<title>node12&#45;&gt;node13</title>
<path fill="none" stroke="black" d="M189.27,-218.81C182.22,-210.18 173.54,-199.56 165.76,-190.03"/>
<polygon fill="black" stroke="black" points="168.26,-187.56 159.22,-182.03 162.84,-191.99 168.26,-187.56"/>
<text text-anchor="middle" x="177.23" y="-187.02" font-family="Times,serif" font-size="14.00">*0</text>
</g>
<!-- node15 -->
<g id="node14" class="node">
<title>node15</title>
<polygon fill="lightgrey" stroke="black" points="419.31,-109 291.31,-109 291.31,-73 419.31,-73 419.31,-109"/>
<text text-anchor="middle" x="355.31" y="-87.3" font-family="Times,serif" font-size="14.00">#15 LabelNode</text>
</g>
<!-- node15&#45;&gt;node16 -->
<g id="edge20" class="edge">
<title>node15&#45;&gt;node16</title>
<path fill="none" stroke="red" d="M355.31,-72.81C355.31,-64.79 355.31,-55.05 355.31,-46.07"/>
<polygon fill="red" stroke="red" points="358.81,-46.03 355.31,-36.03 351.81,-46.03 358.81,-46.03"/>
</g>
<!-- node14&#45;&gt;node15 -->
<g id="edge22" class="edge">
<title>node14&#45;&gt;node15</title>
<path fill="none" stroke="red" d="M355.31,-145.81C355.31,-137.79 355.31,-128.05 355.31,-119.07"/>
<polygon fill="red" stroke="red" points="358.81,-119.03 355.31,-109.03 351.81,-119.03 358.81,-119.03"/>
</g>
<!-- c0 -->
<!-- c1 -->
<!-- c0&#45;&gt;c1 -->
<g id="edge25" class="edge">
<title>c0&#45;&gt;c1</title>
<path fill="none" stroke="red" d="M1255.2,-757C1266.41,-757 1324.55,-757 1350.17,-757"/>
<polygon fill="red" stroke="red" points="1350.36,-760.5 1360.36,-757 1350.36,-753.5 1350.36,-760.5"/>
<text text-anchor="middle" x="1307.81" y="-763.8" font-family="Times,serif" font-size="14.00">Control flow</text>
</g>
<!-- c2 -->
<!-- c3 -->
<!-- c2&#45;&gt;c3 -->
<g id="edge26" class="edge">
<title>c2&#45;&gt;c3</title>
<path fill="none" stroke="red" stroke-dasharray="5,2" d="M1048.39,-757C1065.36,-757 1181.51,-757 1219.39,-757"/>
<polygon fill="red" stroke="red" points="1219.48,-760.5 1229.48,-757 1219.48,-753.5 1219.48,-760.5"/>
<text text-anchor="middle" x="1138.81" y="-763.8" font-family="Times,serif" font-size="14.00">Control flow back edge</text>
</g>
<!-- d0 -->
<!-- d1 -->
<!-- d0&#45;&gt;d1 -->
<g id="edge27" class="edge">
<title>d0&#45;&gt;d1</title>
<path fill="none" stroke="black" d="M937.17,-757C946.71,-757 990.62,-757 1012.23,-757"/>
<polygon fill="black" stroke="black" points="1012.46,-760.5 1022.46,-757 1012.46,-753.5 1012.46,-760.5"/>
<text text-anchor="middle" x="979.81" y="-763.8" font-family="Times,serif" font-size="14.00">Data flow</text>
</g>
<!-- d2 -->
<!-- d3 -->
<!-- d2&#45;&gt;d3 -->
<g id="edge28" class="edge">
<title>d2&#45;&gt;d3</title>
<path fill="none" stroke="black" stroke-dasharray="1,5" d="M811.11,-757C821.76,-757 876.77,-757 901.38,-757"/>
<polygon fill="black" stroke="black" points="901.45,-760.5 911.45,-757 901.45,-753.5 901.45,-760.5"/>
<text text-anchor="middle" x="861.31" y="-763.8" font-family="Times,serif" font-size="14.00">Declaration</text>
</g>
<!-- d4 -->
<!-- d5 -->
<!-- d4&#45;&gt;d5 -->
<g id="edge29" class="edge">
<title>d4&#45;&gt;d5</title>
<path fill="none" stroke="blue" d="M668.41,-757C681.03,-757 747.19,-757 774.99,-757"/>
<polygon fill="blue" stroke="blue" points="775.15,-760.5 785.15,-757 775.15,-753.5 775.15,-760.5"/>
<text text-anchor="middle" x="726.81" y="-763.8" font-family="Times,serif" font-size="14.00">PHI Data flow</text>
</g>
<!-- d6 -->
<!-- d7 -->
<!-- d6&#45;&gt;d7 -->
<g id="edge30" class="edge">
<title>d6&#45;&gt;d7</title>
<path fill="none" stroke="green" d="M531.3,-757C543.25,-757 605.61,-757 632.24,-757"/>
<polygon fill="green" stroke="green" points="632.26,-760.5 642.26,-757 632.26,-753.5 632.26,-760.5"/>
<text text-anchor="middle" x="586.81" y="-763.8" font-family="Times,serif" font-size="14.00">Memory flow</text>
</g>
</g>
</svg>
