<?xml version="1.0" encoding="UTF-8" standalone="no"?>
<!DOCTYPE svg PUBLIC "-//W3C//DTD SVG 1.1//EN"
 "http://www.w3.org/Graphics/SVG/1.1/DTD/svg11.dtd">
<!-- Generated by graphviz version 2.43.0 (0)
 -->
<!-- Title: %3 Pages: 1 -->
<svg width="1349pt" height="806pt"
 viewBox="0.00 0.00 1349.00 805.80" xmlns="http://www.w3.org/2000/svg" xmlns:xlink="http://www.w3.org/1999/xlink">
<g id="graph0" class="graph" transform="scale(1 1) rotate(0) translate(4 801.8)">
<title>%3</title>
<polygon fill="white" stroke="transparent" points="-4,4 -4,-801.8 1345,-801.8 1345,4 -4,4"/>
<g id="clust1" class="cluster">
<title>cluster_0</title>
<polygon fill="none" stroke="lightgray" points="79,-284 79,-409 279,-409 279,-284 79,-284"/>
</g>
<g id="clust2" class="cluster">
<title>cluster_1</title>
<polygon fill="none" stroke="lightgray" points="341,-576 341,-701 477,-701 477,-576 341,-576"/>
</g>
<g id="clust3" class="cluster">
<title>cluster_2</title>
<polygon fill="none" stroke="lightgray" points="8,-503 8,-628 266,-628 266,-503 8,-503"/>
</g>
<g id="clust4" class="cluster">
<title>cluster_000</title>
<polygon fill="none" stroke="black" points="480,-747.2 480,-789.8 1333,-789.8 1333,-747.2 480,-747.2"/>
<text text-anchor="middle" x="906.5" y="-774.6" font-family="Times,serif" font-size="14.00">Legend</text>
</g>
<!-- node0 -->
<g id="node1" class="node">
<title>node0</title>
<polygon fill="lightgrey" stroke="transparent" points="470.5,-784 347.5,-784 347.5,-730 470.5,-730 470.5,-784"/>
<polygon fill="none" stroke="black" points="348,-757 348,-784 471,-784 471,-757 348,-757"/>
<text text-anchor="start" x="369" y="-766.8" font-family="Times,serif" font-size="14.00">#0 Method</text>
<polygon fill="yellow" stroke="transparent" points="348,-730 348,-757 471,-757 471,-730 348,-730"/>
<polygon fill="none" stroke="black" points="348,-730 348,-757 471,-757 471,-730 348,-730"/>
<text text-anchor="start" x="354" y="-739.8" font-family="Times,serif" font-size="14.00">this : ArrayTest</text>
</g>
<!-- node5 -->
<g id="node2" class="node">
<title>node5</title>
<polygon fill="orange" stroke="black" points="542.69,-448.54 542.69,-463.46 472.58,-474 373.42,-474 303.31,-463.46 303.31,-448.54 373.42,-438 472.58,-438 542.69,-448.54"/>
<text text-anchor="middle" x="423" y="-452.3" font-family="Times,serif" font-size="14.00">#5 NewArray : char[]</text>
</g>
<!-- node0&#45;&gt;node5 -->
<g id="edge2" class="edge">
<title>node0&#45;&gt;node5</title>
<path fill="none" stroke="green" d="M361.61,-729.75C351.7,-721.88 342.58,-712.28 337,-701 312.37,-651.2 319.9,-628.86 337,-576 348.93,-539.12 377.03,-504.06 397.89,-481.68"/>
<polygon fill="green" stroke="green" points="400.55,-483.96 404.92,-474.31 395.48,-479.13 400.55,-483.96"/>
</g>
<!-- node2 -->
<g id="node4" class="node">
<title>node2</title>
<polygon fill="lightgrey" stroke="black" points="468.5,-693 349.5,-693 349.5,-657 468.5,-657 468.5,-693"/>
<text text-anchor="middle" x="409" y="-671.3" font-family="Times,serif" font-size="14.00">#2 LabelNode</text>
</g>
<!-- node0&#45;&gt;node2 -->
<g id="edge4" class="edge">
<title>node0&#45;&gt;node2</title>
<path fill="none" stroke="red" d="M409,-729.81C409,-721.35 409,-711.95 409,-703.4"/>
<polygon fill="red" stroke="red" points="412.5,-703.17 409,-693.17 405.5,-703.17 412.5,-703.17"/>
</g>
<!-- node10 -->
<g id="node8" class="node">
<title>node10</title>
<polygon fill="lightgrey" stroke="black" points="271.5,-401 86.5,-401 86.5,-365 271.5,-365 271.5,-401"/>
<text text-anchor="middle" x="179" y="-379.3" font-family="Times,serif" font-size="14.00">#10 ArrayStore : char[]</text>
</g>
<!-- node5&#45;&gt;node10 -->
<g id="edge8" class="edge">
<title>node5&#45;&gt;node10</title>
<path fill="none" stroke="black" d="M355.16,-440.65C330.63,-434.64 302.9,-427.35 278,-420 261.83,-415.23 244.45,-409.64 228.78,-404.31"/>
<polygon fill="black" stroke="black" points="229.88,-400.99 219.28,-401.04 227.59,-407.6 229.88,-400.99"/>
<text text-anchor="middle" x="239.17" y="-395.25" font-family="Times,serif" font-size="14.00">*0</text>
</g>
<!-- node5&#45;&gt;node10 -->
<g id="edge11" class="edge">
<title>node5&#45;&gt;node10</title>
<path fill="none" stroke="green" d="M365.88,-439.1C343.96,-433.4 318.8,-426.72 296,-420 279.68,-415.19 262.12,-409.54 245.66,-404.16"/>
<polygon fill="green" stroke="green" points="246.7,-400.82 236.11,-401.04 244.52,-407.47 246.7,-400.82"/>
</g>
<!-- node12 -->
<g id="node10" class="node">
<title>node12</title>
<polygon fill="lightgrey" stroke="black" points="264,-255 94,-255 94,-219 264,-219 264,-255"/>
<text text-anchor="middle" x="179" y="-233.3" font-family="Times,serif" font-size="14.00">#12 ArrayLoad : char</text>
</g>
<!-- node5&#45;&gt;node12 -->
<g id="edge14" class="edge">
<title>node5&#45;&gt;node12</title>
<path fill="none" stroke="black" d="M365.58,-439.08C349.29,-432.14 332.8,-422.42 321,-409 282.66,-365.39 321.49,-327.47 283,-284 273.94,-273.77 262.18,-265.71 249.84,-259.39"/>
<polygon fill="black" stroke="black" points="251.32,-256.22 240.78,-255.1 248.32,-262.55 251.32,-256.22"/>
<text text-anchor="middle" x="260.78" y="-251.53" font-family="Times,serif" font-size="14.00">*0</text>
</g>
<!-- node8 -->
<g id="node16" class="node">
<title>node8</title>
<polygon fill="orange" stroke="black" points="515.72,-375.54 515.72,-390.46 461.41,-401 384.59,-401 330.28,-390.46 330.28,-375.54 384.59,-365 461.41,-365 515.72,-375.54"/>
<text text-anchor="middle" x="423" y="-379.3" font-family="Times,serif" font-size="14.00">#8 ArrayLength</text>
</g>
<!-- node5&#45;&gt;node8 -->
<g id="edge24" class="edge">
<title>node5&#45;&gt;node8</title>
<path fill="none" stroke="black" d="M423,-437.81C423,-429.79 423,-420.05 423,-411.07"/>
<polygon fill="black" stroke="black" points="426.5,-411.03 423,-401.03 419.5,-411.03 426.5,-411.03"/>
<text text-anchor="middle" x="431.45" y="-415.45" font-family="Times,serif" font-size="14.00">*0</text>
</g>
<!-- node4 -->
<g id="node3" class="node">
<title>node4</title>
<polygon fill="lightgreen" stroke="black" points="469.19,-594.54 469.19,-609.46 434.52,-620 385.48,-620 350.81,-609.46 350.81,-594.54 385.48,-584 434.52,-584 469.19,-594.54"/>
<text text-anchor="middle" x="410" y="-598.3" font-family="Times,serif" font-size="14.00">#4 int 10</text>
</g>
<!-- node4&#45;&gt;node5 -->
<g id="edge1" class="edge">
<title>node4&#45;&gt;node5</title>
<path fill="none" stroke="black" d="M411.54,-583.92C413.77,-559.23 417.91,-513.35 420.56,-484.04"/>
<polygon fill="black" stroke="black" points="424.05,-484.34 421.46,-474.06 417.07,-483.71 424.05,-484.34"/>
<text text-anchor="middle" x="428.25" y="-489.17" font-family="Times,serif" font-size="14.00">*0</text>
</g>
<!-- node2&#45;&gt;node4 -->
<g id="edge3" class="edge">
<title>node2&#45;&gt;node4</title>
<path fill="none" stroke="black" stroke-dasharray="1,5" d="M409.24,-656.81C409.36,-648.79 409.49,-639.05 409.62,-630.07"/>
<polygon fill="black" stroke="black" points="413.12,-630.08 409.76,-620.03 406.12,-629.98 413.12,-630.08"/>
</g>
<!-- node3 -->
<g id="node5" class="node">
<title>node3</title>
<polygon fill="lightgrey" stroke="black" points="135.5,-620 16.5,-620 16.5,-584 135.5,-584 135.5,-620"/>
<text text-anchor="middle" x="76" y="-598.3" font-family="Times,serif" font-size="14.00">#3 LabelNode</text>
</g>
<!-- node2&#45;&gt;node3 -->
<g id="edge5" class="edge">
<title>node2&#45;&gt;node3</title>
<path fill="none" stroke="red" d="M349.47,-661.31C292.23,-649.1 205.74,-630.66 145.4,-617.8"/>
<polygon fill="red" stroke="red" points="146.09,-614.37 135.58,-615.7 144.63,-621.21 146.09,-614.37"/>
</g>
<!-- node7 -->
<g id="node6" class="node">
<title>node7</title>
<polygon fill="lightgreen" stroke="black" points="258.19,-521.54 258.19,-536.46 223.52,-547 174.48,-547 139.81,-536.46 139.81,-521.54 174.48,-511 223.52,-511 258.19,-521.54"/>
<text text-anchor="middle" x="199" y="-525.3" font-family="Times,serif" font-size="14.00">#7 int 10</text>
</g>
<!-- node3&#45;&gt;node7 -->
<g id="edge6" class="edge">
<title>node3&#45;&gt;node7</title>
<path fill="none" stroke="black" stroke-dasharray="1,5" d="M105.46,-583.99C122.41,-574.21 143.86,-561.83 161.94,-551.39"/>
<polygon fill="black" stroke="black" points="164.14,-554.17 171.05,-546.14 160.64,-548.1 164.14,-554.17"/>
</g>
<!-- node3&#45;&gt;node10 -->
<g id="edge12" class="edge">
<title>node3&#45;&gt;node10</title>
<path fill="none" stroke="red" d="M42.87,-583.98C29.11,-575 14.6,-562.59 7,-547 -1.57,-529.42 1.17,-521.67 7,-503 21.49,-456.61 34.13,-441.88 77,-419 87.09,-413.61 98.18,-408.81 109.21,-404.61"/>
<polygon fill="red" stroke="red" points="110.67,-407.8 118.86,-401.07 108.26,-401.22 110.67,-407.8"/>
</g>
<!-- node6 -->
<g id="node9" class="node">
<title>node6</title>
<polygon fill="lightgreen" stroke="black" points="121.52,-521.54 121.52,-536.46 90.76,-547 47.24,-547 16.48,-536.46 16.48,-521.54 47.24,-511 90.76,-511 121.52,-521.54"/>
<text text-anchor="middle" x="69" y="-525.3" font-family="Times,serif" font-size="14.00">#6 int 0</text>
</g>
<!-- node3&#45;&gt;node6 -->
<g id="edge13" class="edge">
<title>node3&#45;&gt;node6</title>
<path fill="none" stroke="black" stroke-dasharray="1,5" d="M74.31,-583.81C73.51,-575.79 72.55,-566.05 71.67,-557.07"/>
<polygon fill="black" stroke="black" points="75.14,-556.64 70.68,-547.03 68.18,-557.32 75.14,-556.64"/>
</g>
<!-- node9 -->
<g id="node7" class="node">
<title>node9</title>
<polygon fill="orange" stroke="black" points="285.46,-448.54 285.46,-463.46 223.1,-474 134.9,-474 72.54,-463.46 72.54,-448.54 134.9,-438 223.1,-438 285.46,-448.54"/>
<text text-anchor="middle" x="179" y="-452.3" font-family="Times,serif" font-size="14.00">#9 Truncate : char</text>
</g>
<!-- node7&#45;&gt;node9 -->
<g id="edge7" class="edge">
<title>node7&#45;&gt;node9</title>
<path fill="none" stroke="black" d="M194.16,-510.81C191.87,-502.7 189.09,-492.84 186.54,-483.78"/>
<polygon fill="black" stroke="black" points="189.88,-482.71 183.8,-474.03 183.14,-484.6 189.88,-482.71"/>
<text text-anchor="middle" x="196.85" y="-485.48" font-family="Times,serif" font-size="14.00">*0</text>
</g>
<!-- node9&#45;&gt;node10 -->
<g id="edge10" class="edge">
<title>node9&#45;&gt;node10</title>
<path fill="none" stroke="black" d="M179,-437.81C179,-429.79 179,-420.05 179,-411.07"/>
<polygon fill="black" stroke="black" points="182.5,-411.03 179,-401.03 175.5,-411.03 182.5,-411.03"/>
<text text-anchor="middle" x="187.45" y="-415.45" font-family="Times,serif" font-size="14.00">*2</text>
</g>
<!-- node10&#45;&gt;node12 -->
<g id="edge16" class="edge">
<title>node10&#45;&gt;node12</title>
<path fill="none" stroke="green" d="M156.25,-364.81C147.53,-354.79 138.99,-341.5 135,-328 129.45,-309.25 128.75,-302.53 135,-284 137.52,-276.51 141.81,-269.28 146.79,-262.85"/>
<polygon fill="green" stroke="green" points="149.52,-265.04 153.4,-255.18 144.22,-260.47 149.52,-265.04"/>
</g>
<!-- node10&#45;&gt;node12 -->
<g id="edge17" class="edge">
<title>node10&#45;&gt;node12</title>
<path fill="none" stroke="red" d="M172.11,-364.81C165.53,-354.79 156.99,-341.5 153,-328 147.45,-309.25 146.75,-302.53 153,-284 155.47,-276.68 159.62,-269.6 163.97,-263.28"/>
<polygon fill="red" stroke="red" points="166.81,-265.32 169.89,-255.18 161.16,-261.19 166.81,-265.32"/>
</g>
<!-- node11 -->
<g id="node11" class="node">
<title>node11</title>
<polygon fill="lightgreen" stroke="black" points="271.19,-302.54 271.19,-317.46 236.52,-328 187.48,-328 152.81,-317.46 152.81,-302.54 187.48,-292 236.52,-292 271.19,-302.54"/>
<text text-anchor="middle" x="212" y="-306.3" font-family="Times,serif" font-size="14.00">#11 int 1</text>
</g>
<!-- node10&#45;&gt;node11 -->
<g id="edge18" class="edge">
<title>node10&#45;&gt;node11</title>
<path fill="none" stroke="black" stroke-dasharray="1,5" d="M186.99,-364.81C190.84,-356.53 195.54,-346.41 199.83,-337.19"/>
<polygon fill="black" stroke="black" points="203.04,-338.57 204.09,-328.03 196.7,-335.62 203.04,-338.57"/>
</g>
<!-- node6&#45;&gt;node10 -->
<g id="edge9" class="edge">
<title>node6&#45;&gt;node10</title>
<path fill="none" stroke="black" d="M62.53,-510.93C56.38,-491.64 49.99,-460.06 64,-438 73.01,-423.82 86.84,-413.29 101.83,-405.5"/>
<polygon fill="black" stroke="black" points="103.76,-408.46 111.28,-401 100.74,-402.14 103.76,-408.46"/>
<text text-anchor="middle" x="98.55" y="-412.73" font-family="Times,serif" font-size="14.00">*1</text>
</g>
<!-- node13 -->
<g id="node12" class="node">
<title>node13</title>
<polygon fill="orange" stroke="black" points="493.07,-156.54 493.07,-171.46 418.05,-182 311.95,-182 236.93,-171.46 236.93,-156.54 311.95,-146 418.05,-146 493.07,-156.54"/>
<text text-anchor="middle" x="365" y="-160.3" font-family="Times,serif" font-size="14.00">#13 Extend : ZERO int</text>
</g>
<!-- node12&#45;&gt;node13 -->
<g id="edge19" class="edge">
<title>node12&#45;&gt;node13</title>
<path fill="none" stroke="black" d="M253.11,-219C270.44,-214.04 288.62,-208.03 305,-201 313.77,-197.23 322.81,-192.39 331.13,-187.48"/>
<polygon fill="black" stroke="black" points="333.11,-190.37 339.82,-182.18 329.46,-184.4 333.11,-190.37"/>
<text text-anchor="middle" x="328.75" y="-195.13" font-family="Times,serif" font-size="14.00">*0</text>
</g>
<!-- node16 -->
<g id="node13" class="node">
<title>node16</title>
<polygon fill="lightgrey" stroke="black" points="167.5,-36 66.5,-36 66.5,0 167.5,0 167.5,-36"/>
<text text-anchor="middle" x="117" y="-14.3" font-family="Times,serif" font-size="14.00">#16 Return</text>
</g>
<!-- node12&#45;&gt;node16 -->
<g id="edge21" class="edge">
<title>node12&#45;&gt;node16</title>
<path fill="none" stroke="green" d="M187.76,-218.81C196.43,-199.11 206.24,-166.87 190,-146 148.89,-93.17 85.11,-161.83 44,-109 34.17,-96.37 36.8,-87.29 44,-73 50.4,-60.31 61.34,-49.87 72.83,-41.66"/>
<polygon fill="green" stroke="green" points="74.84,-44.52 81.24,-36.07 70.97,-38.69 74.84,-44.52"/>
</g>
<!-- node14 -->
<g id="node15" class="node">
<title>node14</title>
<polygon fill="lightgrey" stroke="black" points="181,-182 53,-182 53,-146 181,-146 181,-182"/>
<text text-anchor="middle" x="117" y="-160.3" font-family="Times,serif" font-size="14.00">#14 LabelNode</text>
</g>
<!-- node12&#45;&gt;node14 -->
<g id="edge23" class="edge">
<title>node12&#45;&gt;node14</title>
<path fill="none" stroke="red" d="M163.99,-218.81C156.38,-210.09 146.99,-199.34 138.61,-189.75"/>
<polygon fill="red" stroke="red" points="141.08,-187.26 131.87,-182.03 135.81,-191.86 141.08,-187.26"/>
</g>
<!-- node11&#45;&gt;node12 -->
<g id="edge15" class="edge">
<title>node11&#45;&gt;node12</title>
<path fill="none" stroke="black" d="M204.01,-291.81C200.16,-283.53 195.46,-273.41 191.17,-264.19"/>
<polygon fill="black" stroke="black" points="194.3,-262.62 186.91,-255.03 187.96,-265.57 194.3,-262.62"/>
<text text-anchor="middle" x="202.22" y="-264.2" font-family="Times,serif" font-size="14.00">*1</text>
</g>
<!-- node15 -->
<g id="node14" class="node">
<title>node15</title>
<polygon fill="lightgrey" stroke="black" points="181,-109 53,-109 53,-73 181,-73 181,-109"/>
<text text-anchor="middle" x="117" y="-87.3" font-family="Times,serif" font-size="14.00">#15 LabelNode</text>
</g>
<!-- node15&#45;&gt;node16 -->
<g id="edge20" class="edge">
<title>node15&#45;&gt;node16</title>
<path fill="none" stroke="red" d="M117,-72.81C117,-64.79 117,-55.05 117,-46.07"/>
<polygon fill="red" stroke="red" points="120.5,-46.03 117,-36.03 113.5,-46.03 120.5,-46.03"/>
</g>
<!-- node14&#45;&gt;node15 -->
<g id="edge22" class="edge">
<title>node14&#45;&gt;node15</title>
<path fill="none" stroke="red" d="M117,-145.81C117,-137.79 117,-128.05 117,-119.07"/>
<polygon fill="red" stroke="red" points="120.5,-119.03 117,-109.03 113.5,-119.03 120.5,-119.03"/>
</g>
<!-- c0 -->
<!-- c1 -->
<!-- c0&#45;&gt;c1 -->
<g id="edge25" class="edge">
<title>c0&#45;&gt;c1</title>
<path fill="none" stroke="red" d="M1215.89,-757C1227.11,-757 1285.24,-757 1310.86,-757"/>
<polygon fill="red" stroke="red" points="1311.06,-760.5 1321.06,-757 1311.06,-753.5 1311.06,-760.5"/>
<text text-anchor="middle" x="1268.5" y="-763.8" font-family="Times,serif" font-size="14.00">Control flow</text>
</g>
<!-- c2 -->
<!-- c3 -->
<!-- c2&#45;&gt;c3 -->
<g id="edge26" class="edge">
<title>c2&#45;&gt;c3</title>
<path fill="none" stroke="red" stroke-dasharray="5,2" d="M1009.08,-757C1026.05,-757 1142.21,-757 1180.08,-757"/>
<polygon fill="red" stroke="red" points="1180.17,-760.5 1190.17,-757 1180.17,-753.5 1180.17,-760.5"/>
<text text-anchor="middle" x="1099.5" y="-763.8" font-family="Times,serif" font-size="14.00">Control flow back edge</text>
</g>
<!-- d0 -->
<!-- d1 -->
<!-- d0&#45;&gt;d1 -->
<g id="edge27" class="edge">
<title>d0&#45;&gt;d1</title>
<path fill="none" stroke="black" d="M897.86,-757C907.41,-757 951.31,-757 972.92,-757"/>
<polygon fill="black" stroke="black" points="973.15,-760.5 983.15,-757 973.15,-753.5 973.15,-760.5"/>
<text text-anchor="middle" x="940.5" y="-763.8" font-family="Times,serif" font-size="14.00">Data flow</text>
</g>
<!-- d2 -->
<!-- d3 -->
<!-- d2&#45;&gt;d3 -->
<g id="edge28" class="edge">
<title>d2&#45;&gt;d3</title>
<path fill="none" stroke="black" stroke-dasharray="1,5" d="M771.81,-757C782.46,-757 837.46,-757 862.08,-757"/>
<polygon fill="black" stroke="black" points="862.15,-760.5 872.15,-757 862.15,-753.5 862.15,-760.5"/>
<text text-anchor="middle" x="822" y="-763.8" font-family="Times,serif" font-size="14.00">Declaration</text>
</g>
<!-- d4 -->
<!-- d5 -->
<!-- d4&#45;&gt;d5 -->
<g id="edge29" class="edge">
<title>d4&#45;&gt;d5</title>
<path fill="none" stroke="blue" d="M629.1,-757C641.72,-757 707.88,-757 735.68,-757"/>
<polygon fill="blue" stroke="blue" points="735.84,-760.5 745.84,-757 735.84,-753.5 735.84,-760.5"/>
<text text-anchor="middle" x="687.5" y="-763.8" font-family="Times,serif" font-size="14.00">PHI Data flow</text>
</g>
<!-- d6 -->
<!-- d7 -->
<!-- d6&#45;&gt;d7 -->
<g id="edge30" class="edge">
<title>d6&#45;&gt;d7</title>
<path fill="none" stroke="green" d="M492,-757C503.94,-757 566.3,-757 592.93,-757"/>
<polygon fill="green" stroke="green" points="592.95,-760.5 602.95,-757 592.95,-753.5 592.95,-760.5"/>
<text text-anchor="middle" x="547.5" y="-763.8" font-family="Times,serif" font-size="14.00">Memory flow</text>
</g>
</g>
</svg>
