<?xml version="1.0" encoding="UTF-8" standalone="no"?>
<!DOCTYPE svg PUBLIC "-//W3C//DTD SVG 1.1//EN"
 "http://www.w3.org/Graphics/SVG/1.1/DTD/svg11.dtd">
<!-- Generated by graphviz version 2.43.0 (0)
 -->
<!-- Title: %3 Pages: 1 -->
<svg width="1684pt" height="589pt"
 viewBox="0.00 0.00 1683.59 589.00" xmlns="http://www.w3.org/2000/svg" xmlns:xlink="http://www.w3.org/1999/xlink">
<g id="graph0" class="graph" transform="scale(1 1) rotate(0) translate(4 585)">
<title>%3</title>
<polygon fill="white" stroke="transparent" points="-4,4 -4,-585 1679.59,-585 1679.59,4 -4,4"/>
<g id="clust1" class="cluster">
<title>cluster_0</title>
<polygon fill="none" stroke="lightgray" points="424.59,-430 424.59,-573 806.59,-573 806.59,-430 424.59,-430"/>
</g>
<g id="clust2" class="cluster">
<title>cluster_000</title>
<polygon fill="none" stroke="black" points="814.59,-528.2 814.59,-570.8 1667.59,-570.8 1667.59,-528.2 814.59,-528.2"/>
<text text-anchor="middle" x="1241.09" y="-555.6" font-family="Times,serif" font-size="14.00">Legend</text>
</g>
<!-- node0 -->
<g id="node1" class="node">
<title>node0</title>
<polygon fill="lightgrey" stroke="transparent" points="558.09,-565 435.09,-565 435.09,-511 558.09,-511 558.09,-565"/>
<polygon fill="none" stroke="black" points="435.59,-538 435.59,-565 558.59,-565 558.59,-538 435.59,-538"/>
<text text-anchor="start" x="456.59" y="-547.8" font-family="Times,serif" font-size="14.00">#0 Method</text>
<polygon fill="yellow" stroke="transparent" points="435.59,-511 435.59,-538 558.59,-538 558.59,-511 435.59,-511"/>
<polygon fill="none" stroke="black" points="435.59,-511 435.59,-538 558.59,-538 558.59,-511 435.59,-511"/>
<text text-anchor="start" x="441.59" y="-520.8" font-family="Times,serif" font-size="14.00">this : ArrayTest</text>
</g>
<!-- node5 -->
<g id="node2" class="node">
<title>node5</title>
<polygon fill="lightgreen" stroke="black" points="550.78,-448.54 550.78,-463.46 516.11,-474 467.08,-474 432.41,-463.46 432.41,-448.54 467.08,-438 516.11,-438 550.78,-448.54"/>
<text text-anchor="middle" x="491.59" y="-452.3" font-family="Times,serif" font-size="14.00">#5 int 10</text>
</g>
<!-- node0&#45;&gt;node5 -->
<g id="edge1" class="edge">
<title>node0&#45;&gt;node5</title>
<path fill="none" stroke="black" stroke-dasharray="1,5" d="M494.96,-510.81C494.43,-502.35 493.84,-492.95 493.31,-484.4"/>
<polygon fill="black" stroke="black" points="496.78,-483.94 492.67,-474.17 489.8,-484.37 496.78,-483.94"/>
</g>
<!-- node6 -->
<g id="node5" class="node">
<title>node6</title>
<polygon fill="orange" stroke="black" points="239.28,-375.54 239.28,-390.46 169.17,-401 70.02,-401 -0.09,-390.46 -0.09,-375.54 70.02,-365 169.17,-365 239.28,-375.54"/>
<text text-anchor="middle" x="119.59" y="-379.3" font-family="Times,serif" font-size="14.00">#6 NewArray : char[]</text>
</g>
<!-- node0&#45;&gt;node6 -->
<g id="edge11" class="edge">
<title>node0&#45;&gt;node6</title>
<path fill="none" stroke="green" d="M464.43,-510.99C451.37,-499.99 436.38,-486.78 423.59,-474 405.32,-455.73 408.08,-442.72 385.59,-430 370.58,-421.5 284.82,-407.56 214.68,-397.25"/>
<polygon fill="green" stroke="green" points="214.85,-393.74 204.45,-395.76 213.84,-400.66 214.85,-393.74"/>
</g>
<!-- node3 -->
<g id="node6" class="node">
<title>node3</title>
<polygon fill="lightgreen" stroke="black" points="674.12,-448.54 674.12,-463.46 643.35,-474 599.84,-474 569.07,-463.46 569.07,-448.54 599.84,-438 643.35,-438 674.12,-448.54"/>
<text text-anchor="middle" x="621.59" y="-452.3" font-family="Times,serif" font-size="14.00">#3 int 0</text>
</g>
<!-- node0&#45;&gt;node3 -->
<g id="edge23" class="edge">
<title>node0&#45;&gt;node3</title>
<path fill="none" stroke="black" stroke-dasharray="1,5" d="M537.52,-510.81C553.83,-500.37 572.37,-488.5 587.89,-478.57"/>
<polygon fill="black" stroke="black" points="590.1,-481.31 596.63,-472.98 586.32,-475.42 590.1,-481.31"/>
</g>
<!-- node2 -->
<g id="node8" class="node">
<title>node2</title>
<polygon fill="lightgrey" stroke="black" points="376.09,-474 257.09,-474 257.09,-438 376.09,-438 376.09,-474"/>
<text text-anchor="middle" x="316.59" y="-452.3" font-family="Times,serif" font-size="14.00">#2 LabelNode</text>
</g>
<!-- node0&#45;&gt;node2 -->
<g id="edge9" class="edge">
<title>node0&#45;&gt;node2</title>
<path fill="none" stroke="red" d="M435.06,-517.63C415.38,-510.69 393.75,-502.27 374.59,-493 366.46,-489.06 358.02,-484.27 350.18,-479.49"/>
<polygon fill="red" stroke="red" points="351.97,-476.48 341.64,-474.14 348.25,-482.41 351.97,-476.48"/>
</g>
<!-- node4 -->
<g id="node11" class="node">
<title>node4</title>
<polygon fill="lightgreen" stroke="black" points="798.12,-448.54 798.12,-463.46 767.35,-474 723.84,-474 693.07,-463.46 693.07,-448.54 723.84,-438 767.35,-438 798.12,-448.54"/>
<text text-anchor="middle" x="745.59" y="-452.3" font-family="Times,serif" font-size="14.00">#4 int 1</text>
</g>
<!-- node0&#45;&gt;node4 -->
<g id="edge17" class="edge">
<title>node0&#45;&gt;node4</title>
<path fill="none" stroke="black" stroke-dasharray="1,5" d="M558.14,-517.22C601.69,-503.23 659.18,-484.76 698.96,-471.98"/>
<polygon fill="black" stroke="black" points="700.22,-475.25 708.67,-468.86 698.08,-468.59 700.22,-475.25"/>
</g>
<!-- node8 -->
<g id="node3" class="node">
<title>node8</title>
<polygon fill="orange" stroke="black" points="607.05,-375.54 607.05,-390.46 544.69,-401 456.5,-401 394.14,-390.46 394.14,-375.54 456.5,-365 544.69,-365 607.05,-375.54"/>
<text text-anchor="middle" x="500.59" y="-379.3" font-family="Times,serif" font-size="14.00">#8 Truncate : char</text>
</g>
<!-- node5&#45;&gt;node8 -->
<g id="edge2" class="edge">
<title>node5&#45;&gt;node8</title>
<path fill="none" stroke="black" d="M493.77,-437.81C494.79,-429.79 496.02,-420.05 497.16,-411.07"/>
<polygon fill="black" stroke="black" points="500.65,-411.39 498.44,-401.03 493.71,-410.51 500.65,-411.39"/>
<text text-anchor="middle" x="504.54" y="-416.37" font-family="Times,serif" font-size="14.00">*0</text>
</g>
<!-- node5&#45;&gt;node6 -->
<g id="edge10" class="edge">
<title>node5&#45;&gt;node6</title>
<path fill="none" stroke="black" d="M447.37,-443.94C428.41,-439.36 405.97,-434.16 385.59,-430 327.16,-418.07 261.08,-406.63 209.41,-398.15"/>
<polygon fill="black" stroke="black" points="209.7,-394.65 199.27,-396.49 208.57,-401.56 209.7,-394.65"/>
<text text-anchor="middle" x="218.52" y="-387.37" font-family="Times,serif" font-size="14.00">*0</text>
</g>
<!-- node9 -->
<g id="node4" class="node">
<title>node9</title>
<polygon fill="lightgrey" stroke="black" points="563.59,-328 387.59,-328 387.59,-292 563.59,-292 563.59,-328"/>
<text text-anchor="middle" x="475.59" y="-306.3" font-family="Times,serif" font-size="14.00">#9 ArrayStore : char[]</text>
</g>
<!-- node8&#45;&gt;node9 -->
<g id="edge5" class="edge">
<title>node8&#45;&gt;node9</title>
<path fill="none" stroke="black" d="M494.54,-364.81C491.66,-356.62 488.14,-346.62 484.92,-337.48"/>
<polygon fill="black" stroke="black" points="488.21,-336.3 481.59,-328.03 481.61,-338.62 488.21,-336.3"/>
<text text-anchor="middle" x="495.58" y="-338.62" font-family="Times,serif" font-size="14.00">*2</text>
</g>
<!-- node10 -->
<g id="node10" class="node">
<title>node10</title>
<polygon fill="lightgrey" stroke="black" points="560.59,-255 390.59,-255 390.59,-219 560.59,-219 560.59,-255"/>
<text text-anchor="middle" x="475.59" y="-233.3" font-family="Times,serif" font-size="14.00">#10 ArrayLoad : char</text>
</g>
<!-- node9&#45;&gt;node10 -->
<g id="edge15" class="edge">
<title>node9&#45;&gt;node10</title>
<path fill="none" stroke="green" d="M469.72,-291.81C468.88,-283.79 468.64,-274.05 469.02,-265.07"/>
<polygon fill="green" stroke="green" points="472.51,-265.25 469.73,-255.03 465.53,-264.75 472.51,-265.25"/>
</g>
<!-- node9&#45;&gt;node10 -->
<g id="edge16" class="edge">
<title>node9&#45;&gt;node10</title>
<path fill="none" stroke="red" d="M481.47,-291.81C482.31,-283.79 482.54,-274.05 482.17,-265.07"/>
<polygon fill="red" stroke="red" points="485.66,-264.75 481.46,-255.03 478.68,-265.25 485.66,-264.75"/>
</g>
<!-- node6&#45;&gt;node9 -->
<g id="edge3" class="edge">
<title>node6&#45;&gt;node9</title>
<path fill="none" stroke="black" d="M186.5,-367.55C240.35,-356.52 316.72,-341.26 377.47,-329.37"/>
<polygon fill="black" stroke="black" points="378.32,-332.77 387.46,-327.42 376.98,-325.9 378.32,-332.77"/>
<text text-anchor="middle" x="371.29" y="-335.49" font-family="Times,serif" font-size="14.00">*0</text>
</g>
<!-- node6&#45;&gt;node9 -->
<g id="edge6" class="edge">
<title>node6&#45;&gt;node9</title>
<path fill="none" stroke="green" d="M192.83,-368.48C248.9,-357.6 326.44,-342.17 386.17,-330.04"/>
<polygon fill="green" stroke="green" points="386.87,-333.47 395.97,-328.05 385.47,-326.61 386.87,-333.47"/>
</g>
<!-- node11 -->
<g id="node9" class="node">
<title>node11</title>
<polygon fill="orange" stroke="black" points="345.98,-302.54 345.98,-317.46 287.76,-328 205.43,-328 147.21,-317.46 147.21,-302.54 205.43,-292 287.76,-292 345.98,-302.54"/>
<text text-anchor="middle" x="246.59" y="-306.3" font-family="Times,serif" font-size="14.00">#11 ArrayLength</text>
</g>
<!-- node6&#45;&gt;node11 -->
<g id="edge12" class="edge">
<title>node6&#45;&gt;node11</title>
<path fill="none" stroke="black" d="M150.01,-364.99C167.17,-355.4 188.79,-343.32 207.22,-333.01"/>
<polygon fill="black" stroke="black" points="208.96,-336.05 215.98,-328.11 205.55,-329.94 208.96,-336.05"/>
<text text-anchor="middle" x="204.29" y="-340.64" font-family="Times,serif" font-size="14.00">*0</text>
</g>
<!-- node6&#45;&gt;node10 -->
<g id="edge13" class="edge">
<title>node6&#45;&gt;node10</title>
<path fill="none" stroke="black" d="M117.93,-364.69C117,-344.26 118.93,-310.72 138.59,-292 172.5,-259.73 292.91,-246.72 380.14,-241.49"/>
<polygon fill="black" stroke="black" points="380.56,-244.97 390.34,-240.91 380.16,-237.99 380.56,-244.97"/>
<text text-anchor="middle" x="372.73" y="-246.68" font-family="Times,serif" font-size="14.00">*0</text>
</g>
<!-- node3&#45;&gt;node9 -->
<g id="edge4" class="edge">
<title>node3&#45;&gt;node9</title>
<path fill="none" stroke="black" d="M625.48,-437.92C628.9,-418.33 631.19,-386.19 615.59,-365 604.84,-350.4 589.59,-339.74 573.07,-331.97"/>
<polygon fill="black" stroke="black" points="574.35,-328.71 563.79,-327.94 571.57,-335.13 574.35,-328.71"/>
<text text-anchor="middle" x="583.78" y="-323.7" font-family="Times,serif" font-size="14.00">*1</text>
</g>
<!-- node7 -->
<g id="node7" class="node">
<title>node7</title>
<polygon fill="lightgrey" stroke="black" points="376.09,-401 257.09,-401 257.09,-365 376.09,-365 376.09,-401"/>
<text text-anchor="middle" x="316.59" y="-379.3" font-family="Times,serif" font-size="14.00">#7 LabelNode</text>
</g>
<!-- node7&#45;&gt;node9 -->
<g id="edge7" class="edge">
<title>node7&#45;&gt;node9</title>
<path fill="none" stroke="red" d="M354.68,-364.99C376.64,-355.19 404.46,-342.77 427.87,-332.31"/>
<polygon fill="red" stroke="red" points="429.57,-335.39 437.27,-328.11 426.71,-329 429.57,-335.39"/>
</g>
<!-- node2&#45;&gt;node7 -->
<g id="edge8" class="edge">
<title>node2&#45;&gt;node7</title>
<path fill="none" stroke="red" d="M316.59,-437.81C316.59,-429.79 316.59,-420.05 316.59,-411.07"/>
<polygon fill="red" stroke="red" points="320.09,-411.03 316.59,-401.03 313.09,-411.03 320.09,-411.03"/>
</g>
<!-- node15 -->
<g id="node12" class="node">
<title>node15</title>
<polygon fill="lightgrey" stroke="black" points="360.09,-36 259.09,-36 259.09,0 360.09,0 360.09,-36"/>
<text text-anchor="middle" x="309.59" y="-14.3" font-family="Times,serif" font-size="14.00">#15 Return</text>
</g>
<!-- node10&#45;&gt;node15 -->
<g id="edge19" class="edge">
<title>node10&#45;&gt;node15</title>
<path fill="none" stroke="green" d="M390.31,-227.89C329.71,-220.17 255.82,-206.05 236.59,-182 206.35,-144.16 214.79,-116.26 236.59,-73 242.99,-60.31 253.93,-49.87 265.42,-41.66"/>
<polygon fill="green" stroke="green" points="267.44,-44.52 273.83,-36.07 263.56,-38.69 267.44,-44.52"/>
</g>
<!-- node13 -->
<g id="node14" class="node">
<title>node13</title>
<polygon fill="lightgrey" stroke="black" points="373.59,-182 245.59,-182 245.59,-146 373.59,-146 373.59,-182"/>
<text text-anchor="middle" x="309.59" y="-160.3" font-family="Times,serif" font-size="14.00">#13 LabelNode</text>
</g>
<!-- node10&#45;&gt;node13 -->
<g id="edge21" class="edge">
<title>node10&#45;&gt;node13</title>
<path fill="none" stroke="red" d="M435.83,-218.99C412.8,-209.14 383.61,-196.66 359.09,-186.17"/>
<polygon fill="red" stroke="red" points="360.18,-182.83 349.61,-182.11 357.42,-189.26 360.18,-182.83"/>
</g>
<!-- node12 -->
<g id="node15" class="node">
<title>node12</title>
<polygon fill="orange" stroke="black" points="647.67,-156.54 647.67,-171.46 572.64,-182 466.54,-182 391.52,-171.46 391.52,-156.54 466.54,-146 572.64,-146 647.67,-156.54"/>
<text text-anchor="middle" x="519.59" y="-160.3" font-family="Times,serif" font-size="14.00">#12 Extend : ZERO int</text>
</g>
<!-- node10&#45;&gt;node12 -->
<g id="edge22" class="edge">
<title>node10&#45;&gt;node12</title>
<path fill="none" stroke="black" d="M486.24,-218.81C491.49,-210.35 497.91,-199.98 503.72,-190.61"/>
<polygon fill="black" stroke="black" points="506.75,-192.37 509.04,-182.03 500.8,-188.69 506.75,-192.37"/>
<text text-anchor="middle" x="506.68" y="-198.19" font-family="Times,serif" font-size="14.00">*0</text>
</g>
<!-- node4&#45;&gt;node10 -->
<g id="edge14" class="edge">
<title>node4&#45;&gt;node10</title>
<path fill="none" stroke="black" d="M730.1,-437.81C701.19,-406.37 636.2,-338.55 572.59,-292 556.32,-280.09 537.15,-268.9 520.16,-259.82"/>
<polygon fill="black" stroke="black" points="521.47,-256.55 510.98,-255.01 518.21,-262.75 521.47,-256.55"/>
<text text-anchor="middle" x="530.96" y="-252.24" font-family="Times,serif" font-size="14.00">*1</text>
</g>
<!-- node14 -->
<g id="node13" class="node">
<title>node14</title>
<polygon fill="lightgrey" stroke="black" points="373.59,-109 245.59,-109 245.59,-73 373.59,-73 373.59,-109"/>
<text text-anchor="middle" x="309.59" y="-87.3" font-family="Times,serif" font-size="14.00">#14 LabelNode</text>
</g>
<!-- node14&#45;&gt;node15 -->
<g id="edge18" class="edge">
<title>node14&#45;&gt;node15</title>
<path fill="none" stroke="red" d="M309.59,-72.81C309.59,-64.79 309.59,-55.05 309.59,-46.07"/>
<polygon fill="red" stroke="red" points="313.09,-46.03 309.59,-36.03 306.09,-46.03 313.09,-46.03"/>
</g>
<!-- node13&#45;&gt;node14 -->
<g id="edge20" class="edge">
<title>node13&#45;&gt;node14</title>
<path fill="none" stroke="red" d="M309.59,-145.81C309.59,-137.79 309.59,-128.05 309.59,-119.07"/>
<polygon fill="red" stroke="red" points="313.09,-119.03 309.59,-109.03 306.09,-119.03 313.09,-119.03"/>
</g>
<!-- c0 -->
<!-- c1 -->
<!-- c0&#45;&gt;c1 -->
<g id="edge24" class="edge">
<title>c0&#45;&gt;c1</title>
<path fill="none" stroke="red" d="M1550.49,-538C1561.7,-538 1619.84,-538 1645.45,-538"/>
<polygon fill="red" stroke="red" points="1645.65,-541.5 1655.65,-538 1645.65,-534.5 1645.65,-541.5"/>
<text text-anchor="middle" x="1603.09" y="-544.8" font-family="Times,serif" font-size="14.00">Control flow</text>
</g>
<!-- c2 -->
<!-- c3 -->
<!-- c2&#45;&gt;c3 -->
<g id="edge25" class="edge">
<title>c2&#45;&gt;c3</title>
<path fill="none" stroke="red" stroke-dasharray="5,2" d="M1343.67,-538C1360.64,-538 1476.8,-538 1514.68,-538"/>
<polygon fill="red" stroke="red" points="1514.76,-541.5 1524.76,-538 1514.76,-534.5 1514.76,-541.5"/>
<text text-anchor="middle" x="1434.09" y="-544.8" font-family="Times,serif" font-size="14.00">Control flow back edge</text>
</g>
<!-- d0 -->
<!-- d1 -->
<!-- d0&#45;&gt;d1 -->
<g id="edge26" class="edge">
<title>d0&#45;&gt;d1</title>
<path fill="none" stroke="black" d="M1232.45,-538C1242,-538 1285.9,-538 1307.51,-538"/>
<polygon fill="black" stroke="black" points="1307.75,-541.5 1317.75,-538 1307.75,-534.5 1307.75,-541.5"/>
<text text-anchor="middle" x="1275.09" y="-544.8" font-family="Times,serif" font-size="14.00">Data flow</text>
</g>
<!-- d2 -->
<!-- d3 -->
<!-- d2&#45;&gt;d3 -->
<g id="edge27" class="edge">
<title>d2&#45;&gt;d3</title>
<path fill="none" stroke="black" stroke-dasharray="1,5" d="M1106.4,-538C1117.05,-538 1172.06,-538 1196.67,-538"/>
<polygon fill="black" stroke="black" points="1196.74,-541.5 1206.74,-538 1196.74,-534.5 1196.74,-541.5"/>
<text text-anchor="middle" x="1156.59" y="-544.8" font-family="Times,serif" font-size="14.00">Declaration</text>
</g>
<!-- d4 -->
<!-- d5 -->
<!-- d4&#45;&gt;d5 -->
<g id="edge28" class="edge">
<title>d4&#45;&gt;d5</title>
<path fill="none" stroke="blue" d="M963.69,-538C976.32,-538 1042.47,-538 1070.27,-538"/>
<polygon fill="blue" stroke="blue" points="1070.44,-541.5 1080.44,-538 1070.44,-534.5 1070.44,-541.5"/>
<text text-anchor="middle" x="1022.09" y="-544.8" font-family="Times,serif" font-size="14.00">PHI Data flow</text>
</g>
<!-- d6 -->
<!-- d7 -->
<!-- d6&#45;&gt;d7 -->
<g id="edge29" class="edge">
<title>d6&#45;&gt;d7</title>
<path fill="none" stroke="green" d="M826.59,-538C838.53,-538 900.89,-538 927.52,-538"/>
<polygon fill="green" stroke="green" points="927.54,-541.5 937.54,-538 927.54,-534.5 927.54,-541.5"/>
<text text-anchor="middle" x="882.09" y="-544.8" font-family="Times,serif" font-size="14.00">Memory flow</text>
</g>
</g>
</svg>
