<?xml version="1.0" encoding="UTF-8" standalone="no"?>
<!DOCTYPE svg PUBLIC "-//W3C//DTD SVG 1.1//EN"
 "http://www.w3.org/Graphics/SVG/1.1/DTD/svg11.dtd">
<!-- Generated by graphviz version 2.43.0 (0)
 -->
<!-- Title: debugoutput Pages: 1 -->
<svg width="1587pt" height="651pt"
 viewBox="0.00 0.00 1587.00 650.80" xmlns="http://www.w3.org/2000/svg" xmlns:xlink="http://www.w3.org/1999/xlink">
<g id="graph0" class="graph" transform="scale(1 1) rotate(0) translate(4 646.8)">
<title>debugoutput</title>
<polygon fill="white" stroke="transparent" points="-4,4 -4,-646.8 1583,-646.8 1583,4 -4,4"/>
<g id="clust1" class="cluster">
<title>cluster_000</title>
<polygon fill="none" stroke="black" points="595,-592.2 595,-634.8 1571,-634.8 1571,-592.2 595,-592.2"/>
<text text-anchor="middle" x="1083" y="-619.6" font-family="Times,serif" font-size="14.00">Legend</text>
</g>
<!-- node0 -->
<g id="node1" class="node">
<title>node0</title>
<polygon fill="lightgrey" stroke="black" points="585,-620 419,-620 419,-584 585,-584 585,-620"/>
<text text-anchor="middle" x="502" y="-598.3" font-family="Times,serif" font-size="14.00">#0 Method Order : 0</text>
</g>
<!-- node1 -->
<g id="node2" class="node">
<title>node1</title>
<polygon fill="lightgrey" stroke="black" points="230,-547 0,-547 0,-511 230,-511 230,-547"/>
<text text-anchor="middle" x="115" y="-525.3" font-family="Times,serif" font-size="14.00">#1 this : ArrayTest Order : 16</text>
</g>
<!-- node0&#45;&gt;node1 -->
<g id="edge2" class="edge">
<title>node0&#45;&gt;node1</title>
<path fill="none" stroke="black" d="M418.86,-593.52C365.78,-587.73 295.87,-578.56 235,-566 213.77,-561.62 190.89,-555.65 170.81,-549.84"/>
<polygon fill="black" stroke="black" points="171.79,-546.48 161.2,-547 169.8,-553.19 171.79,-546.48"/>
<text text-anchor="middle" x="180.98" y="-540.33" font-family="Times,serif" font-size="14.00">*0</text>
</g>
<!-- node2 -->
<g id="node3" class="node">
<title>node2</title>
<polygon fill="lightgrey" stroke="black" points="664,-547 476,-547 476,-511 664,-511 664,-547"/>
<text text-anchor="middle" x="570" y="-525.3" font-family="Times,serif" font-size="14.00">#2 LabelNode Order : 1</text>
</g>
<!-- node0&#45;&gt;node2 -->
<g id="edge4" class="edge">
<title>node0&#45;&gt;node2</title>
<path fill="none" stroke="red" d="M512.58,-583.81C520.17,-574.92 530.53,-563.91 540.41,-554.17"/>
<polygon fill="red" stroke="red" points="543.06,-556.49 547.83,-547.03 538.2,-551.45 543.06,-556.49"/>
</g>
<!-- node5 -->
<g id="node6" class="node">
<title>node5</title>
<polygon fill="orange" stroke="black" points="622.27,-375.54 622.27,-390.46 523.7,-401 384.3,-401 285.73,-390.46 285.73,-375.54 384.3,-365 523.7,-365 622.27,-375.54"/>
<text text-anchor="middle" x="454" y="-379.3" font-family="Times,serif" font-size="14.00">#5 NewArray : char[] Order : 3</text>
</g>
<!-- node0&#45;&gt;node5 -->
<g id="edge11" class="edge">
<title>node0&#45;&gt;node5</title>
<path fill="none" stroke="green" d="M480.63,-583.95C472.08,-573.77 463.33,-560.27 458,-547 439.94,-502.08 440.17,-444.67 445,-411.35"/>
<polygon fill="green" stroke="green" points="448.46,-411.87 446.71,-401.42 441.57,-410.68 448.46,-411.87"/>
</g>
<!-- node1&#45;&gt;node0 -->
<g id="edge1" class="edge">
<title>node1&#45;&gt;node0</title>
<path fill="none" stroke="fuchsia" stroke-width="2" d="M177.83,-547C201.36,-553.66 228.29,-560.9 253,-566 304.14,-576.55 361.67,-584.71 408.57,-590.48"/>
<polygon fill="fuchsia" stroke="fuchsia" stroke-width="2" points="408.37,-593.98 418.72,-591.71 409.21,-587.03 408.37,-593.98"/>
</g>
<!-- node2&#45;&gt;node0 -->
<g id="edge3" class="edge">
<title>node2&#45;&gt;node0</title>
<path fill="none" stroke="fuchsia" stroke-width="2" d="M559.55,-547.03C552,-555.9 541.65,-566.9 531.76,-576.65"/>
<polygon fill="fuchsia" stroke="fuchsia" stroke-width="2" points="529.11,-574.35 524.34,-583.81 533.97,-579.39 529.11,-574.35"/>
</g>
<!-- node3 -->
<g id="node4" class="node">
<title>node3</title>
<polygon fill="lightgrey" stroke="black" points="884,-474 696,-474 696,-438 884,-438 884,-474"/>
<text text-anchor="middle" x="790" y="-452.3" font-family="Times,serif" font-size="14.00">#3 LabelNode Order : 5</text>
</g>
<!-- node2&#45;&gt;node3 -->
<g id="edge6" class="edge">
<title>node2&#45;&gt;node3</title>
<path fill="none" stroke="red" d="M616.84,-510.99C647.23,-500.84 687.28,-487.88 721.24,-477.2"/>
<polygon fill="red" stroke="red" points="722.61,-480.44 731.1,-474.11 720.51,-473.76 722.61,-480.44"/>
</g>
<!-- node4 -->
<g id="node5" class="node">
<title>node4</title>
<polygon fill="lightgreen" stroke="black" points="677.77,-448.54 677.77,-463.46 614.64,-474 525.36,-474 462.23,-463.46 462.23,-448.54 525.36,-438 614.64,-438 677.77,-448.54"/>
<text text-anchor="middle" x="570" y="-452.3" font-family="Times,serif" font-size="14.00">#4 int 10 Order : 2</text>
</g>
<!-- node2&#45;&gt;node4 -->
<g id="edge8" class="edge">
<title>node2&#45;&gt;node4</title>
<path fill="none" stroke="black" stroke-dasharray="1,5" d="M564.12,-510.81C563.28,-502.79 563.05,-493.05 563.42,-484.07"/>
<polygon fill="black" stroke="black" points="566.92,-484.25 564.14,-474.03 559.94,-483.75 566.92,-484.25"/>
</g>
<!-- node3&#45;&gt;node2 -->
<g id="edge5" class="edge">
<title>node3&#45;&gt;node2</title>
<path fill="none" stroke="fuchsia" stroke-width="2" d="M742.84,-474.11C712.38,-484.29 672.32,-497.25 638.4,-507.91"/>
<polygon fill="fuchsia" stroke="fuchsia" stroke-width="2" points="637.05,-504.66 628.55,-510.99 639.14,-511.34 637.05,-504.66"/>
</g>
<!-- node6 -->
<g id="node7" class="node">
<title>node6</title>
<polygon fill="lightgreen" stroke="black" points="842.11,-375.54 842.11,-390.46 782.88,-401 699.12,-401 639.89,-390.46 639.89,-375.54 699.12,-365 782.88,-365 842.11,-375.54"/>
<text text-anchor="middle" x="741" y="-379.3" font-family="Times,serif" font-size="14.00">#6 int 0 Order : 8</text>
</g>
<!-- node3&#45;&gt;node6 -->
<g id="edge13" class="edge">
<title>node3&#45;&gt;node6</title>
<path fill="none" stroke="black" stroke-dasharray="1,5" d="M772.26,-437.81C765.54,-429.35 758.17,-418.98 752.16,-409.61"/>
<polygon fill="black" stroke="black" points="755.11,-407.72 746.89,-401.03 749.14,-411.38 755.11,-407.72"/>
</g>
<!-- node7 -->
<g id="node8" class="node">
<title>node7</title>
<polygon fill="lightgreen" stroke="black" points="1075.77,-375.54 1075.77,-390.46 1012.64,-401 923.36,-401 860.23,-390.46 860.23,-375.54 923.36,-365 1012.64,-365 1075.77,-375.54"/>
<text text-anchor="middle" x="968" y="-379.3" font-family="Times,serif" font-size="14.00">#7 int 10 Order : 6</text>
</g>
<!-- node3&#45;&gt;node7 -->
<g id="edge15" class="edge">
<title>node3&#45;&gt;node7</title>
<path fill="none" stroke="black" stroke-dasharray="1,5" d="M826.78,-437.99C851.09,-427.87 883.37,-414.95 910.96,-404.29"/>
<polygon fill="black" stroke="black" points="912.43,-407.48 920.51,-400.62 909.92,-400.94 912.43,-407.48"/>
</g>
<!-- node10 -->
<g id="node11" class="node">
<title>node10</title>
<polygon fill="lightgrey" stroke="black" points="1048,-255 794,-255 794,-219 1048,-219 1048,-255"/>
<text text-anchor="middle" x="921" y="-233.3" font-family="Times,serif" font-size="14.00">#10 ArrayStore : char[] Order : 9</text>
</g>
<!-- node3&#45;&gt;node10 -->
<g id="edge25" class="edge">
<title>node3&#45;&gt;node10</title>
<path fill="none" stroke="red" d="M884.33,-450.53C960.74,-444.69 1059.71,-431.35 1085,-401 1116.02,-363.79 1113.4,-331.25 1085,-292 1074.64,-277.69 1060.37,-267.1 1044.52,-259.29"/>
<polygon fill="red" stroke="red" points="1045.58,-255.93 1035.02,-255 1042.7,-262.31 1045.58,-255.93"/>
</g>
<!-- node4&#45;&gt;node2 -->
<g id="edge7" class="edge">
<title>node4&#45;&gt;node2</title>
<path fill="none" stroke="fuchsia" stroke-width="2" d="M575.86,-474.03C576.71,-482.03 576.95,-491.77 576.59,-500.75"/>
<polygon fill="fuchsia" stroke="fuchsia" stroke-width="2" points="573.09,-500.59 575.88,-510.81 580.07,-501.08 573.09,-500.59"/>
</g>
<!-- node4&#45;&gt;node5 -->
<g id="edge10" class="edge">
<title>node4&#45;&gt;node5</title>
<path fill="none" stroke="black" d="M542.22,-437.99C526.83,-428.58 507.52,-416.76 490.88,-406.57"/>
<polygon fill="black" stroke="black" points="492.32,-403.35 481.96,-401.11 488.66,-409.32 492.32,-403.35"/>
<text text-anchor="middle" x="501.83" y="-399.67" font-family="Times,serif" font-size="14.00">*0</text>
</g>
<!-- node5&#45;&gt;node0 -->
<g id="edge9" class="edge">
<title>node5&#45;&gt;node0</title>
<path fill="none" stroke="fuchsia" stroke-width="2" d="M457.47,-401.42C458.44,-432.1 455.99,-497.22 476,-547 479.92,-556.74 485.68,-566.61 490.95,-575.2"/>
<polygon fill="fuchsia" stroke="fuchsia" stroke-width="2" points="488.13,-577.3 496.38,-583.95 494.08,-573.61 488.13,-577.3"/>
</g>
<!-- node8 -->
<g id="node9" class="node">
<title>node8</title>
<polygon fill="orange" stroke="black" points="644.3,-302.54 644.3,-317.46 561.53,-328 444.47,-328 361.7,-317.46 361.7,-302.54 444.47,-292 561.53,-292 644.3,-302.54"/>
<text text-anchor="middle" x="503" y="-306.3" font-family="Times,serif" font-size="14.00">#8 ArrayLength Order : 4</text>
</g>
<!-- node5&#45;&gt;node8 -->
<g id="edge17" class="edge">
<title>node5&#45;&gt;node8</title>
<path fill="none" stroke="black" d="M459.98,-364.81C465.04,-356.18 472.17,-345.56 479.24,-336.03"/>
<polygon fill="black" stroke="black" points="482.07,-338.09 485.39,-328.03 476.52,-333.83 482.07,-338.09"/>
<text text-anchor="middle" x="481.05" y="-343.85" font-family="Times,serif" font-size="14.00">*0</text>
</g>
<!-- node5&#45;&gt;node10 -->
<g id="edge21" class="edge">
<title>node5&#45;&gt;node10</title>
<path fill="none" stroke="black" d="M520.08,-364.97C556.97,-355.51 603.44,-342.68 644,-328 699.16,-308.03 708.52,-292.07 764,-273 780.96,-267.17 799.34,-261.97 817.36,-257.48"/>
<polygon fill="black" stroke="black" points="818.43,-260.82 827.32,-255.06 816.78,-254.02 818.43,-260.82"/>
<text text-anchor="middle" x="811.71" y="-263.85" font-family="Times,serif" font-size="14.00">*0</text>
</g>
<!-- node5&#45;&gt;node10 -->
<g id="edge24" class="edge">
<title>node5&#45;&gt;node10</title>
<path fill="none" stroke="green" d="M532.37,-365.9C571.88,-356.36 620.09,-343.17 662,-328 717.16,-308.03 726.52,-292.07 782,-273 798.96,-267.17 817.34,-261.97 835.02,-257.48"/>
<polygon fill="green" stroke="green" points="835.9,-260.87 844.76,-255.06 834.21,-254.07 835.9,-260.87"/>
</g>
<!-- node13 -->
<g id="node14" class="node">
<title>node13</title>
<polygon fill="lightgrey" stroke="black" points="458,-109 210,-109 210,-73 458,-73 458,-109"/>
<text text-anchor="middle" x="334" y="-87.3" font-family="Times,serif" font-size="14.00">#13 ArrayLoad : char Order : 13</text>
</g>
<!-- node5&#45;&gt;node13 -->
<g id="edge31" class="edge">
<title>node5&#45;&gt;node13</title>
<path fill="none" stroke="black" d="M381.77,-365.19C356.36,-354.63 334,-337.75 334,-311 334,-311 334,-311 334,-163 334,-148.65 334,-132.67 334,-119.51"/>
<polygon fill="black" stroke="black" points="337.5,-119.22 334,-109.22 330.5,-119.22 337.5,-119.22"/>
<text text-anchor="middle" x="342.45" y="-123.64" font-family="Times,serif" font-size="14.00">*0</text>
</g>
<!-- node6&#45;&gt;node3 -->
<g id="edge12" class="edge">
<title>node6&#45;&gt;node3</title>
<path fill="none" stroke="fuchsia" stroke-width="2" d="M758.61,-401.03C765.33,-409.46 772.7,-419.83 778.72,-429.21"/>
<polygon fill="fuchsia" stroke="fuchsia" stroke-width="2" points="775.79,-431.13 784.02,-437.81 781.76,-427.46 775.79,-431.13"/>
</g>
<!-- node6&#45;&gt;node10 -->
<g id="edge22" class="edge">
<title>node6&#45;&gt;node10</title>
<path fill="none" stroke="black" d="M739.2,-364.9C738.08,-345 739.43,-312.26 757,-292 769.71,-277.34 786.47,-266.64 804.43,-258.84"/>
<polygon fill="black" stroke="black" points="805.95,-262 813.92,-255.02 803.33,-255.51 805.95,-262"/>
<text text-anchor="middle" x="800.26" y="-265.93" font-family="Times,serif" font-size="14.00">*1</text>
</g>
<!-- node7&#45;&gt;node3 -->
<g id="edge14" class="edge">
<title>node7&#45;&gt;node3</title>
<path fill="none" stroke="fuchsia" stroke-width="2" d="M930.97,-401.11C906.95,-411.11 875.24,-423.81 847.94,-434.36"/>
<polygon fill="fuchsia" stroke="fuchsia" stroke-width="2" points="846.57,-431.14 838.49,-437.99 849.08,-437.67 846.57,-431.14"/>
</g>
<!-- node9 -->
<g id="node10" class="node">
<title>node9</title>
<polygon fill="orange" stroke="black" points="1075.54,-302.54 1075.54,-317.46 985.01,-328 856.99,-328 766.46,-317.46 766.46,-302.54 856.99,-292 985.01,-292 1075.54,-302.54"/>
<text text-anchor="middle" x="921" y="-306.3" font-family="Times,serif" font-size="14.00">#9 Truncate : char Order : 7</text>
</g>
<!-- node7&#45;&gt;node9 -->
<g id="edge19" class="edge">
<title>node7&#45;&gt;node9</title>
<path fill="none" stroke="black" d="M950.74,-364.81C944.33,-356.44 937.33,-346.2 931.62,-336.9"/>
<polygon fill="black" stroke="black" points="934.49,-334.88 926.41,-328.03 928.46,-338.42 934.49,-334.88"/>
<text text-anchor="middle" x="942.88" y="-335.68" font-family="Times,serif" font-size="14.00">*0</text>
</g>
<!-- node8&#45;&gt;node5 -->
<g id="edge16" class="edge">
<title>node8&#45;&gt;node5</title>
<path fill="none" stroke="fuchsia" stroke-width="2" d="M497.11,-328.03C492.08,-336.64 484.96,-347.26 477.89,-356.79"/>
<polygon fill="fuchsia" stroke="fuchsia" stroke-width="2" points="475.05,-354.75 471.74,-364.81 480.6,-359.01 475.05,-354.75"/>
</g>
<!-- node9&#45;&gt;node7 -->
<g id="edge18" class="edge">
<title>node9&#45;&gt;node7</title>
<path fill="none" stroke="fuchsia" stroke-width="2" d="M938.13,-328.03C944.54,-336.38 951.55,-346.61 957.27,-355.92"/>
<polygon fill="fuchsia" stroke="fuchsia" stroke-width="2" points="954.41,-357.97 962.5,-364.81 960.45,-354.42 954.41,-357.97"/>
</g>
<!-- node9&#45;&gt;node10 -->
<g id="edge23" class="edge">
<title>node9&#45;&gt;node10</title>
<path fill="none" stroke="black" d="M921,-291.81C921,-283.79 921,-274.05 921,-265.07"/>
<polygon fill="black" stroke="black" points="924.5,-265.03 921,-255.03 917.5,-265.03 924.5,-265.03"/>
<text text-anchor="middle" x="929.45" y="-269.45" font-family="Times,serif" font-size="14.00">*2</text>
</g>
<!-- node10&#45;&gt;node0 -->
<g id="edge20" class="edge">
<title>node10&#45;&gt;node0</title>
<path fill="none" stroke="fuchsia" stroke-width="2" d="M1035.71,-255.03C1089.52,-266.36 1142,-283.86 1142,-309 1142,-530 1142,-530 1142,-530 1142,-589.05 690.35,-576.4 595.31,-583.8"/>
<polygon fill="fuchsia" stroke="fuchsia" stroke-width="2" points="594.92,-580.33 585.34,-584.84 595.65,-587.29 594.92,-580.33"/>
</g>
<!-- node11 -->
<g id="node12" class="node">
<title>node11</title>
<polygon fill="lightgrey" stroke="black" points="1100,-182 894,-182 894,-146 1100,-146 1100,-182"/>
<text text-anchor="middle" x="997" y="-160.3" font-family="Times,serif" font-size="14.00">#11 LabelNode Order : 11</text>
</g>
<!-- node10&#45;&gt;node11 -->
<g id="edge27" class="edge">
<title>node10&#45;&gt;node11</title>
<path fill="none" stroke="red" d="M933.52,-218.81C942.28,-209.74 954.16,-198.48 965.34,-188.6"/>
<polygon fill="red" stroke="red" points="967.65,-191.23 972.91,-182.03 963.06,-185.94 967.65,-191.23"/>
</g>
<!-- node12 -->
<g id="node13" class="node">
<title>node12</title>
<polygon fill="lightgreen" stroke="black" points="875.93,-156.54 875.93,-171.46 809.19,-182 714.81,-182 648.07,-171.46 648.07,-156.54 714.81,-146 809.19,-146 875.93,-156.54"/>
<text text-anchor="middle" x="762" y="-160.3" font-family="Times,serif" font-size="14.00">#12 int 1 Order : 10</text>
</g>
<!-- node10&#45;&gt;node12 -->
<g id="edge29" class="edge">
<title>node10&#45;&gt;node12</title>
<path fill="none" stroke="black" stroke-dasharray="1,5" d="M877.06,-218.99C854.15,-209.23 826.36,-196.88 803.78,-186.45"/>
<polygon fill="black" stroke="black" points="805,-183.16 794.45,-182.11 802.05,-189.5 805,-183.16"/>
</g>
<!-- node10&#45;&gt;node13 -->
<g id="edge33" class="edge">
<title>node10&#45;&gt;node13</title>
<path fill="none" stroke="green" d="M819,-218.95C765.19,-209.33 698.22,-196.37 639,-182 553.87,-161.34 457.1,-131.72 395.83,-112.18"/>
<polygon fill="green" stroke="green" points="396.52,-108.73 385.93,-109.01 394.39,-115.39 396.52,-108.73"/>
</g>
<!-- node11&#45;&gt;node10 -->
<g id="edge26" class="edge">
<title>node11&#45;&gt;node10</title>
<path fill="none" stroke="fuchsia" stroke-width="2" d="M984.63,-182.03C975.91,-191.07 964.04,-202.33 952.86,-212.23"/>
<polygon fill="fuchsia" stroke="fuchsia" stroke-width="2" points="950.53,-209.61 945.28,-218.81 955.12,-214.9 950.53,-209.61"/>
</g>
<!-- node14 -->
<g id="node15" class="node">
<title>node14</title>
<polygon fill="lightgrey" stroke="black" points="1100,-109 894,-109 894,-73 1100,-73 1100,-109"/>
<text text-anchor="middle" x="997" y="-87.3" font-family="Times,serif" font-size="14.00">#14 LabelNode Order : 12</text>
</g>
<!-- node11&#45;&gt;node14 -->
<g id="edge35" class="edge">
<title>node11&#45;&gt;node14</title>
<path fill="none" stroke="red" d="M991.12,-145.81C990.28,-137.79 990.05,-128.05 990.42,-119.07"/>
<polygon fill="red" stroke="red" points="993.92,-119.25 991.14,-109.03 986.94,-118.75 993.92,-119.25"/>
</g>
<!-- node12&#45;&gt;node10 -->
<g id="edge28" class="edge">
<title>node12&#45;&gt;node10</title>
<path fill="none" stroke="fuchsia" stroke-width="2" d="M806.2,-182.11C829.13,-191.9 856.93,-204.25 879.47,-214.66"/>
<polygon fill="fuchsia" stroke="fuchsia" stroke-width="2" points="878.23,-217.95 888.77,-218.99 881.18,-211.6 878.23,-217.95"/>
</g>
<!-- node12&#45;&gt;node13 -->
<g id="edge32" class="edge">
<title>node12&#45;&gt;node13</title>
<path fill="none" stroke="black" d="M686.47,-150.47C620.09,-139.46 522.57,-123.28 446.93,-110.73"/>
<polygon fill="black" stroke="black" points="447.31,-107.25 436.88,-109.07 446.17,-114.16 447.31,-107.25"/>
<text text-anchor="middle" x="456.14" y="-99.99" font-family="Times,serif" font-size="14.00">*1</text>
</g>
<!-- node13&#45;&gt;node0 -->
<g id="edge30" class="edge">
<title>node13&#45;&gt;node0</title>
<path fill="none" stroke="fuchsia" stroke-width="2" d="M297.78,-109.06C278.21,-121.03 258,-139.17 258,-163 258,-530 258,-530 258,-530 258,-562.69 339.78,-581.33 408.66,-591.23"/>
<polygon fill="fuchsia" stroke="fuchsia" stroke-width="2" points="408.32,-594.71 418.71,-592.62 409.29,-587.78 408.32,-594.71"/>
</g>
<!-- node15 -->
<g id="node16" class="node">
<title>node15</title>
<polygon fill="orange" stroke="black" points="516.82,-10.54 516.82,-25.46 409.72,-36 258.28,-36 151.18,-25.46 151.18,-10.54 258.28,0 409.72,0 516.82,-10.54"/>
<text text-anchor="middle" x="334" y="-14.3" font-family="Times,serif" font-size="14.00">#15 Extend : ZERO int Order : 15</text>
</g>
<!-- node13&#45;&gt;node15 -->
<g id="edge37" class="edge">
<title>node13&#45;&gt;node15</title>
<path fill="none" stroke="black" d="M328.12,-72.81C327.28,-64.79 327.05,-55.05 327.42,-46.07"/>
<polygon fill="black" stroke="black" points="330.92,-46.25 328.14,-36.03 323.94,-45.75 330.92,-46.25"/>
<text text-anchor="middle" x="335.28" y="-51.01" font-family="Times,serif" font-size="14.00">*0</text>
</g>
<!-- node16 -->
<g id="node17" class="node">
<title>node16</title>
<polygon fill="lightgrey" stroke="black" points="1205.5,-36 1026.5,-36 1026.5,0 1205.5,0 1205.5,-36"/>
<text text-anchor="middle" x="1116" y="-14.3" font-family="Times,serif" font-size="14.00">#16 Return Order : 14</text>
</g>
<!-- node13&#45;&gt;node16 -->
<g id="edge40" class="edge">
<title>node13&#45;&gt;node16</title>
<path fill="none" stroke="green" d="M458.34,-78.71C613,-64.67 873.97,-40.97 1016.23,-28.06"/>
<polygon fill="green" stroke="green" points="1016.62,-31.54 1026.26,-27.15 1015.99,-24.57 1016.62,-31.54"/>
</g>
<!-- node14&#45;&gt;node11 -->
<g id="edge34" class="edge">
<title>node14&#45;&gt;node11</title>
<path fill="none" stroke="fuchsia" stroke-width="2" d="M1002.86,-109.03C1003.71,-117.03 1003.95,-126.77 1003.59,-135.75"/>
<polygon fill="fuchsia" stroke="fuchsia" stroke-width="2" points="1000.09,-135.59 1002.88,-145.81 1007.07,-136.08 1000.09,-135.59"/>
</g>
<!-- node14&#45;&gt;node16 -->
<g id="edge39" class="edge">
<title>node14&#45;&gt;node16</title>
<path fill="none" stroke="red" d="M1025.5,-72.99C1041.43,-63.49 1061.47,-51.54 1078.64,-41.29"/>
<polygon fill="red" stroke="red" points="1080.52,-44.24 1087.32,-36.11 1076.94,-38.23 1080.52,-44.24"/>
</g>
<!-- node15&#45;&gt;node13 -->
<g id="edge36" class="edge">
<title>node15&#45;&gt;node13</title>
<path fill="none" stroke="fuchsia" stroke-width="2" d="M339.86,-36.03C340.71,-44.03 340.95,-53.77 340.59,-62.75"/>
<polygon fill="fuchsia" stroke="fuchsia" stroke-width="2" points="337.09,-62.59 339.88,-72.81 344.07,-63.08 337.09,-62.59"/>
</g>
<!-- node16&#45;&gt;node0 -->
<g id="edge38" class="edge">
<title>node16&#45;&gt;node0</title>
<path fill="none" stroke="fuchsia" stroke-width="2" d="M1144.63,-36.02C1161.67,-48.53 1180,-67.26 1180,-90 1180,-530 1180,-530 1180,-530 1180,-585.68 1115.25,-559.09 1060,-566 856.35,-591.45 800.06,-561.37 595.49,-583.56"/>
<polygon fill="fuchsia" stroke="fuchsia" stroke-width="2" points="594.87,-580.11 585.32,-584.69 595.65,-587.06 594.87,-580.11"/>
</g>
<!-- c0 -->
<!-- c1 -->
<!-- c0&#45;&gt;c1 -->
<g id="edge41" class="edge">
<title>c0&#45;&gt;c1</title>
<path fill="none" stroke="red" d="M1453.89,-602C1465.11,-602 1523.24,-602 1548.86,-602"/>
<polygon fill="red" stroke="red" points="1549.06,-605.5 1559.06,-602 1549.06,-598.5 1549.06,-605.5"/>
<text text-anchor="middle" x="1506.5" y="-608.8" font-family="Times,serif" font-size="14.00">Control flow</text>
</g>
<!-- c2 -->
<!-- c3 -->
<!-- c2&#45;&gt;c3 -->
<g id="edge42" class="edge">
<title>c2&#45;&gt;c3</title>
<path fill="none" stroke="red" stroke-dasharray="5,2" d="M1247.08,-602C1264.05,-602 1380.21,-602 1418.08,-602"/>
<polygon fill="red" stroke="red" points="1418.17,-605.5 1428.17,-602 1418.17,-598.5 1418.17,-605.5"/>
<text text-anchor="middle" x="1337.5" y="-608.8" font-family="Times,serif" font-size="14.00">Control flow back edge</text>
</g>
<!-- d0 -->
<!-- d1 -->
<!-- d0&#45;&gt;d1 -->
<g id="edge43" class="edge">
<title>d0&#45;&gt;d1</title>
<path fill="none" stroke="black" d="M1135.86,-602C1145.41,-602 1189.31,-602 1210.92,-602"/>
<polygon fill="black" stroke="black" points="1211.15,-605.5 1221.15,-602 1211.15,-598.5 1211.15,-605.5"/>
<text text-anchor="middle" x="1178.5" y="-608.8" font-family="Times,serif" font-size="14.00">Data flow</text>
</g>
<!-- d2 -->
<!-- d3 -->
<!-- d2&#45;&gt;d3 -->
<g id="edge44" class="edge">
<title>d2&#45;&gt;d3</title>
<path fill="none" stroke="black" stroke-dasharray="1,5" d="M1009.81,-602C1020.46,-602 1075.46,-602 1100.08,-602"/>
<polygon fill="black" stroke="black" points="1100.15,-605.5 1110.15,-602 1100.15,-598.5 1100.15,-605.5"/>
<text text-anchor="middle" x="1060" y="-608.8" font-family="Times,serif" font-size="14.00">Declaration</text>
</g>
<!-- d4 -->
<!-- d5 -->
<!-- d4&#45;&gt;d5 -->
<g id="edge45" class="edge">
<title>d4&#45;&gt;d5</title>
<path fill="none" stroke="blue" d="M867.1,-602C879.72,-602 945.88,-602 973.68,-602"/>
<polygon fill="blue" stroke="blue" points="973.84,-605.5 983.84,-602 973.84,-598.5 973.84,-605.5"/>
<text text-anchor="middle" x="925.5" y="-608.8" font-family="Times,serif" font-size="14.00">PHI Data flow</text>
</g>
<!-- d6 -->
<!-- d7 -->
<!-- d6&#45;&gt;d7 -->
<g id="edge46" class="edge">
<title>d6&#45;&gt;d7</title>
<path fill="none" stroke="green" d="M730,-602C741.94,-602 804.3,-602 830.93,-602"/>
<polygon fill="green" stroke="green" points="830.95,-605.5 840.95,-602 830.95,-598.5 830.95,-605.5"/>
<text text-anchor="middle" x="785.5" y="-608.8" font-family="Times,serif" font-size="14.00">Memory flow</text>
</g>
<!-- d8 -->
<!-- d9 -->
<!-- d8&#45;&gt;d9 -->
<g id="edge47" class="edge">
<title>d8&#45;&gt;d9</title>
<path fill="none" stroke="fuchsia" d="M607.11,-602C618.15,-602 669.67,-602 693.66,-602"/>
<polygon fill="fuchsia" stroke="fuchsia" points="693.9,-605.5 703.9,-602 693.9,-598.5 693.9,-605.5"/>
<text text-anchor="middle" x="655.5" y="-608.8" font-family="Times,serif" font-size="14.00">Dominance</text>
</g>
</g>
</svg>
