<?xml version="1.0" encoding="UTF-8" standalone="no"?>
<!DOCTYPE svg PUBLIC "-//W3C//DTD SVG 1.1//EN"
 "http://www.w3.org/Graphics/SVG/1.1/DTD/svg11.dtd">
<!-- Generated by graphviz version 2.43.0 (0)
 -->
<!-- Title: debugoutput Pages: 1 -->
<svg width="1580pt" height="578pt"
 viewBox="0.00 0.00 1580.00 577.80" xmlns="http://www.w3.org/2000/svg" xmlns:xlink="http://www.w3.org/1999/xlink">
<g id="graph0" class="graph" transform="scale(1 1) rotate(0) translate(4 573.8)">
<title>debugoutput</title>
<polygon fill="white" stroke="transparent" points="-4,4 -4,-573.8 1576,-573.8 1576,4 -4,4"/>
<g id="clust1" class="cluster">
<title>cluster_000</title>
<polygon fill="none" stroke="black" points="725,-519.2 725,-561.8 1564,-561.8 1564,-519.2 725,-519.2"/>
<text text-anchor="middle" x="1144.5" y="-546.6" font-family="Times,serif" font-size="14.00">Legend</text>
</g>
<!-- node0 -->
<g id="node1" class="node">
<title>node0</title>
<polygon fill="lightgrey" stroke="black" points="715,-547 549,-547 549,-511 715,-511 715,-547"/>
<text text-anchor="middle" x="632" y="-525.3" font-family="Times,serif" font-size="14.00">#0 Method Order : 0</text>
</g>
<!-- node1 -->
<g id="node2" class="node">
<title>node1</title>
<polygon fill="lightgrey" stroke="black" points="230,-474 0,-474 0,-438 230,-438 230,-474"/>
<text text-anchor="middle" x="115" y="-452.3" font-family="Times,serif" font-size="14.00">#1 this : ArrayTest Order : 15</text>
</g>
<!-- node0&#45;&gt;node1 -->
<g id="edge2" class="edge">
<title>node0&#45;&gt;node1</title>
<path fill="none" stroke="red" d="M548.85,-525.22C467.96,-521.4 342.11,-512.61 235,-493 213.18,-489.01 189.71,-482.99 169.32,-477.01"/>
<polygon fill="red" stroke="red" points="170.16,-473.61 159.57,-474.09 168.15,-480.32 170.16,-473.61"/>
</g>
<!-- node2 -->
<g id="node3" class="node">
<title>node2</title>
<polygon fill="lightgrey" stroke="black" points="726,-474 538,-474 538,-438 726,-438 726,-474"/>
<text text-anchor="middle" x="632" y="-452.3" font-family="Times,serif" font-size="14.00">#2 LabelNode Order : 7</text>
</g>
<!-- node0&#45;&gt;node2 -->
<g id="edge4" class="edge">
<title>node0&#45;&gt;node2</title>
<path fill="none" stroke="red" d="M626.12,-510.81C625.28,-502.79 625.05,-493.05 625.42,-484.07"/>
<polygon fill="red" stroke="red" points="628.92,-484.25 626.14,-474.03 621.94,-483.75 628.92,-484.25"/>
</g>
<!-- node4 -->
<g id="node5" class="node">
<title>node4</title>
<polygon fill="orange" stroke="black" points="374.27,-375.54 374.27,-390.46 275.7,-401 136.3,-401 37.73,-390.46 37.73,-375.54 136.3,-365 275.7,-365 374.27,-375.54"/>
<text text-anchor="middle" x="206" y="-379.3" font-family="Times,serif" font-size="14.00">#4 NewArray : char[] Order : 5</text>
</g>
<!-- node0&#45;&gt;node4 -->
<g id="edge9" class="edge">
<title>node0&#45;&gt;node4</title>
<path fill="none" stroke="black" d="M548.76,-521.27C461.17,-512.86 330.2,-496.73 286,-474 256.59,-458.88 231,-430.43 216.73,-409.55"/>
<polygon fill="black" stroke="black" points="219.67,-407.66 211.33,-401.13 213.78,-411.44 219.67,-407.66"/>
</g>
<!-- node6 -->
<g id="node6" class="node">
<title>node6</title>
<polygon fill="lightgreen" stroke="black" points="519.77,-448.54 519.77,-463.46 456.64,-474 367.36,-474 304.23,-463.46 304.23,-448.54 367.36,-438 456.64,-438 519.77,-448.54"/>
<text text-anchor="middle" x="412" y="-452.3" font-family="Times,serif" font-size="14.00">#6 int 10 Order : 3</text>
</g>
<!-- node0&#45;&gt;node6 -->
<g id="edge13" class="edge">
<title>node0&#45;&gt;node6</title>
<path fill="none" stroke="black" stroke-dasharray="1,5" d="M573.45,-510.99C540.8,-500.81 500.4,-487.8 468.15,-477.11"/>
<polygon fill="black" stroke="black" points="469.01,-473.71 458.42,-473.87 466.8,-480.35 469.01,-473.71"/>
</g>
<!-- node8 -->
<g id="node9" class="node">
<title>node8</title>
<polygon fill="lightgreen" stroke="black" points="946.11,-448.54 946.11,-463.46 886.88,-474 803.12,-474 743.89,-463.46 743.89,-448.54 803.12,-438 886.88,-438 946.11,-448.54"/>
<text text-anchor="middle" x="845" y="-452.3" font-family="Times,serif" font-size="14.00">#8 int 0 Order : 2</text>
</g>
<!-- node0&#45;&gt;node8 -->
<g id="edge17" class="edge">
<title>node0&#45;&gt;node8</title>
<path fill="none" stroke="black" stroke-dasharray="1,5" d="M677.16,-510.99C708.17,-500.28 749.63,-486.44 783.62,-475.46"/>
<polygon fill="black" stroke="black" points="785,-478.69 793.45,-472.3 782.86,-472.03 785,-478.69"/>
</g>
<!-- node10 -->
<g id="node11" class="node">
<title>node10</title>
<polygon fill="lightgreen" stroke="black" points="1217.77,-448.54 1217.77,-463.46 1154.64,-474 1065.36,-474 1002.23,-463.46 1002.23,-448.54 1065.36,-438 1154.64,-438 1217.77,-448.54"/>
<text text-anchor="middle" x="1110" y="-452.3" font-family="Times,serif" font-size="14.00">#10 int 1 Order : 1</text>
</g>
<!-- node0&#45;&gt;node10 -->
<g id="edge25" class="edge">
<title>node0&#45;&gt;node10</title>
<path fill="none" stroke="black" stroke-dasharray="1,5" d="M712.35,-510.96C830.03,-495.85 862.04,-513.94 979,-493 1001.62,-488.95 1026.01,-482.24 1047.6,-475.71"/>
<polygon fill="black" stroke="black" points="1048.77,-479.01 1057.3,-472.73 1046.71,-472.32 1048.77,-479.01"/>
</g>
<!-- node1&#45;&gt;node0 -->
<g id="edge1" class="edge">
<title>node1&#45;&gt;node0</title>
<path fill="none" stroke="green" stroke-width="2" d="M176.11,-474.09C199.99,-480.97 227.61,-488.35 253,-493 349.62,-510.69 461.49,-519.57 538.56,-523.95"/>
<polygon fill="green" stroke="green" stroke-width="2" points="538.55,-527.45 548.73,-524.51 538.94,-520.46 538.55,-527.45"/>
</g>
<!-- node2&#45;&gt;node0 -->
<g id="edge3" class="edge">
<title>node2&#45;&gt;node0</title>
<path fill="none" stroke="green" stroke-width="2" d="M637.86,-474.03C638.71,-482.03 638.95,-491.77 638.59,-500.75"/>
<polygon fill="green" stroke="green" stroke-width="2" points="635.09,-500.59 637.88,-510.81 642.07,-501.08 635.09,-500.59"/>
</g>
<!-- node3 -->
<g id="node4" class="node">
<title>node3</title>
<polygon fill="lightgrey" stroke="black" points="908,-401 720,-401 720,-365 908,-365 908,-401"/>
<text text-anchor="middle" x="814" y="-379.3" font-family="Times,serif" font-size="14.00">#3 LabelNode Order : 8</text>
</g>
<!-- node2&#45;&gt;node3 -->
<g id="edge6" class="edge">
<title>node2&#45;&gt;node3</title>
<path fill="none" stroke="red" d="M669.73,-437.99C694.26,-428.01 726.67,-415.32 754.59,-404.76"/>
<polygon fill="red" stroke="red" points="756.14,-407.91 764.26,-401.11 753.67,-401.36 756.14,-407.91"/>
</g>
<!-- node3&#45;&gt;node2 -->
<g id="edge5" class="edge">
<title>node3&#45;&gt;node2</title>
<path fill="none" stroke="green" stroke-width="2" d="M776,-401.11C751.42,-411.11 719,-423.81 691.11,-434.36"/>
<polygon fill="green" stroke="green" stroke-width="2" points="689.58,-431.19 681.45,-437.99 692.04,-437.75 689.58,-431.19"/>
</g>
<!-- node9 -->
<g id="node10" class="node">
<title>node9</title>
<polygon fill="lightgrey" stroke="black" points="936.5,-328 691.5,-328 691.5,-292 936.5,-292 936.5,-328"/>
<text text-anchor="middle" x="814" y="-306.3" font-family="Times,serif" font-size="14.00">#9 ArrayStore : char[] Order : 9</text>
</g>
<!-- node3&#45;&gt;node9 -->
<g id="edge23" class="edge">
<title>node3&#45;&gt;node9</title>
<path fill="none" stroke="red" d="M814,-364.81C814,-356.79 814,-347.05 814,-338.07"/>
<polygon fill="red" stroke="red" points="817.5,-338.03 814,-328.03 810.5,-338.03 817.5,-338.03"/>
</g>
<!-- node4&#45;&gt;node0 -->
<g id="edge7" class="edge">
<title>node4&#45;&gt;node0</title>
<path fill="none" stroke="green" stroke-width="2" d="M223.87,-401.13C241.77,-422.03 270.39,-456.72 304,-474 344.28,-494.71 456.63,-509.94 538.69,-518.85"/>
<polygon fill="green" stroke="green" stroke-width="2" points="538.48,-522.35 548.79,-519.94 539.22,-515.39 538.48,-522.35"/>
</g>
<!-- node5 -->
<g id="node7" class="node">
<title>node5</title>
<polygon fill="orange" stroke="black" points="432.3,-302.54 432.3,-317.46 349.53,-328 232.47,-328 149.7,-317.46 149.7,-302.54 232.47,-292 349.53,-292 432.3,-302.54"/>
<text text-anchor="middle" x="291" y="-306.3" font-family="Times,serif" font-size="14.00">#5 ArrayLength Order : 6</text>
</g>
<!-- node4&#45;&gt;node5 -->
<g id="edge11" class="edge">
<title>node4&#45;&gt;node5</title>
<path fill="none" stroke="black" d="M220.7,-364.81C230.7,-355.66 244.18,-344.26 256.7,-334.32"/>
<polygon fill="black" stroke="black" points="259.03,-336.94 264.75,-328.03 254.72,-331.43 259.03,-336.94"/>
<text text-anchor="middle" x="255.67" y="-342.15" font-family="Times,serif" font-size="14.00">*0</text>
</g>
<!-- node4&#45;&gt;node9 -->
<g id="edge19" class="edge">
<title>node4&#45;&gt;node9</title>
<path fill="none" stroke="black" d="M312.5,-368.94C415.09,-356.75 570.54,-338.59 681.17,-325.86"/>
<polygon fill="black" stroke="black" points="681.86,-329.3 691.4,-324.68 681.06,-322.35 681.86,-329.3"/>
<text text-anchor="middle" x="674.35" y="-331.45" font-family="Times,serif" font-size="14.00">*0</text>
</g>
<!-- node4&#45;&gt;node9 -->
<g id="edge22" class="edge">
<title>node4&#45;&gt;node9</title>
<path fill="none" stroke="black" d="M318.24,-369.51C420.87,-357.73 572.75,-340.02 681.34,-327.16"/>
<polygon fill="black" stroke="black" points="681.87,-330.63 691.38,-325.98 681.04,-323.68 681.87,-330.63"/>
</g>
<!-- node11 -->
<g id="node12" class="node">
<title>node11</title>
<polygon fill="lightgrey" stroke="black" points="938,-255 690,-255 690,-219 938,-219 938,-255"/>
<text text-anchor="middle" x="814" y="-233.3" font-family="Times,serif" font-size="14.00">#11 ArrayLoad : char Order : 10</text>
</g>
<!-- node4&#45;&gt;node11 -->
<g id="edge27" class="edge">
<title>node4&#45;&gt;node11</title>
<path fill="none" stroke="black" d="M179.02,-364.83C152.67,-346 119.43,-315.37 141,-292 176.71,-253.31 493.88,-242.33 679.78,-239.22"/>
<polygon fill="black" stroke="black" points="679.97,-242.72 689.91,-239.06 679.85,-235.72 679.97,-242.72"/>
<text text-anchor="middle" x="671.92" y="-244.1" font-family="Times,serif" font-size="14.00">*0</text>
</g>
<!-- node6&#45;&gt;node0 -->
<g id="edge12" class="edge">
<title>node6&#45;&gt;node0</title>
<path fill="none" stroke="green" stroke-width="2" d="M465.83,-472.53C499.1,-482.88 541.68,-496.57 575.44,-507.76"/>
<polygon fill="green" stroke="green" stroke-width="2" points="574.57,-511.16 585.16,-510.99 576.78,-504.52 574.57,-511.16"/>
</g>
<!-- node6&#45;&gt;node4 -->
<g id="edge8" class="edge">
<title>node6&#45;&gt;node4</title>
<path fill="none" stroke="black" d="M363.96,-438.44C334.44,-428.27 296.4,-415.16 265.05,-404.35"/>
<polygon fill="black" stroke="black" points="266.14,-401.03 255.55,-401.08 263.86,-407.64 266.14,-401.03"/>
<text text-anchor="middle" x="275.44" y="-395.29" font-family="Times,serif" font-size="14.00">*0</text>
</g>
<!-- node7 -->
<g id="node8" class="node">
<title>node7</title>
<polygon fill="orange" stroke="black" points="701.54,-375.54 701.54,-390.46 611.01,-401 482.99,-401 392.46,-390.46 392.46,-375.54 482.99,-365 611.01,-365 701.54,-375.54"/>
<text text-anchor="middle" x="547" y="-379.3" font-family="Times,serif" font-size="14.00">#7 Truncate : char Order : 4</text>
</g>
<!-- node6&#45;&gt;node7 -->
<g id="edge15" class="edge">
<title>node6&#45;&gt;node7</title>
<path fill="none" stroke="black" d="M438.48,-437.99C455.85,-428.32 478.95,-416.1 499.41,-405.73"/>
<polygon fill="black" stroke="black" points="501.23,-408.73 508.59,-401.11 498.08,-402.48 501.23,-408.73"/>
<text text-anchor="middle" x="496.19" y="-413.11" font-family="Times,serif" font-size="14.00">*0</text>
</g>
<!-- node5&#45;&gt;node4 -->
<g id="edge10" class="edge">
<title>node5&#45;&gt;node4</title>
<path fill="none" stroke="green" stroke-width="2" d="M276.47,-328.03C266.51,-337.16 253.05,-348.55 240.51,-358.51"/>
<polygon fill="green" stroke="green" stroke-width="2" points="238.18,-355.9 232.45,-364.81 242.49,-361.41 238.18,-355.9"/>
</g>
<!-- node7&#45;&gt;node6 -->
<g id="edge14" class="edge">
<title>node7&#45;&gt;node6</title>
<path fill="none" stroke="green" stroke-width="2" d="M520.33,-401.11C502.92,-410.81 479.81,-423.03 459.37,-433.38"/>
<polygon fill="green" stroke="green" stroke-width="2" points="457.56,-430.38 450.2,-437.99 460.7,-436.63 457.56,-430.38"/>
</g>
<!-- node7&#45;&gt;node9 -->
<g id="edge21" class="edge">
<title>node7&#45;&gt;node9</title>
<path fill="none" stroke="black" d="M610.95,-364.99C649.72,-354.68 699.34,-341.49 739.83,-330.72"/>
<polygon fill="black" stroke="black" points="740.88,-334.07 749.64,-328.11 739.08,-327.3 740.88,-334.07"/>
<text text-anchor="middle" x="734.3" y="-337.24" font-family="Times,serif" font-size="14.00">*2</text>
</g>
<!-- node8&#45;&gt;node0 -->
<g id="edge16" class="edge">
<title>node8&#45;&gt;node0</title>
<path fill="none" stroke="green" stroke-width="2" d="M800.95,-473.62C771.37,-483.86 731.93,-497.04 698.57,-507.86"/>
<polygon fill="green" stroke="green" stroke-width="2" points="697.32,-504.59 688.88,-510.99 699.47,-511.25 697.32,-504.59"/>
</g>
<!-- node8&#45;&gt;node9 -->
<g id="edge20" class="edge">
<title>node8&#45;&gt;node9</title>
<path fill="none" stroke="black" d="M880.29,-437.82C894.41,-428.94 909.17,-416.65 917,-401 924.16,-386.69 925.28,-378.69 917,-365 908.56,-351.05 895.2,-340.53 880.86,-332.66"/>
<polygon fill="black" stroke="black" points="882.35,-329.49 871.84,-328.1 879.19,-335.73 882.35,-329.49"/>
<text text-anchor="middle" x="891.83" y="-325.04" font-family="Times,serif" font-size="14.00">*1</text>
</g>
<!-- node9&#45;&gt;node0 -->
<g id="edge18" class="edge">
<title>node9&#45;&gt;node0</title>
<path fill="none" stroke="green" stroke-width="2" d="M878.13,-328.02C890.87,-332.82 903.77,-338.76 915,-346 965.08,-378.31 993.71,-428.68 955,-474 922.67,-511.84 788.7,-503.11 725.58,-510.53"/>
<polygon fill="green" stroke="green" stroke-width="2" points="724.77,-507.11 715.36,-511.99 725.76,-514.04 724.77,-507.11"/>
</g>
<!-- node9&#45;&gt;node11 -->
<g id="edge29" class="edge">
<title>node9&#45;&gt;node11</title>
<path fill="none" stroke="black" d="M808.12,-291.81C807.28,-283.79 807.05,-274.05 807.42,-265.07"/>
<polygon fill="black" stroke="black" points="810.92,-265.25 808.14,-255.03 803.94,-264.75 810.92,-265.25"/>
</g>
<!-- node9&#45;&gt;node11 -->
<g id="edge30" class="edge">
<title>node9&#45;&gt;node11</title>
<path fill="none" stroke="red" d="M819.88,-291.81C820.72,-283.79 820.95,-274.05 820.58,-265.07"/>
<polygon fill="red" stroke="red" points="824.06,-264.75 819.86,-255.03 817.08,-265.25 824.06,-264.75"/>
</g>
<!-- node10&#45;&gt;node0 -->
<g id="edge24" class="edge">
<title>node10&#45;&gt;node0</title>
<path fill="none" stroke="green" stroke-width="2" d="M1069.55,-474.03C1048.21,-481.07 1021.56,-488.6 997,-493 879.92,-513.96 847.96,-495.81 730,-511 728.49,-511.19 726.96,-511.4 725.43,-511.61"/>
<polygon fill="green" stroke="green" stroke-width="2" points="724.56,-508.2 715.18,-513.13 725.58,-515.13 724.56,-508.2"/>
</g>
<!-- node10&#45;&gt;node11 -->
<g id="edge28" class="edge">
<title>node10&#45;&gt;node11</title>
<path fill="none" stroke="black" d="M1096.42,-437.52C1070.37,-404.98 1010.24,-334.58 946,-292 925.41,-278.35 900.83,-267.14 878.49,-258.54"/>
<polygon fill="black" stroke="black" points="879.66,-255.25 869.07,-255.02 877.21,-261.8 879.66,-255.25"/>
<text text-anchor="middle" x="889.01" y="-249.76" font-family="Times,serif" font-size="14.00">*1</text>
</g>
<!-- node11&#45;&gt;node0 -->
<g id="edge26" class="edge">
<title>node11&#45;&gt;node0</title>
<path fill="none" stroke="green" stroke-width="2" d="M938.08,-246.58C1065.72,-257.12 1246,-277.58 1246,-309 1246,-457 1246,-457 1246,-457 1246,-513.18 817.56,-504.55 725.44,-510.83"/>
<polygon fill="green" stroke="green" stroke-width="2" points="724.97,-507.36 715.33,-511.75 725.6,-514.33 724.97,-507.36"/>
</g>
<!-- node12 -->
<g id="node13" class="node">
<title>node12</title>
<polygon fill="orange" stroke="black" points="776.82,-156.54 776.82,-171.46 669.72,-182 518.28,-182 411.18,-171.46 411.18,-156.54 518.28,-146 669.72,-146 776.82,-156.54"/>
<text text-anchor="middle" x="594" y="-160.3" font-family="Times,serif" font-size="14.00">#12 Extend : ZERO int Order : 14</text>
</g>
<!-- node11&#45;&gt;node12 -->
<g id="edge32" class="edge">
<title>node11&#45;&gt;node12</title>
<path fill="none" stroke="black" d="M755.45,-218.99C723.04,-208.88 682.99,-195.99 650.86,-185.34"/>
<polygon fill="black" stroke="black" points="651.75,-181.95 641.16,-182.11 649.54,-188.59 651.75,-181.95"/>
<text text-anchor="middle" x="661.03" y="-176.12" font-family="Times,serif" font-size="14.00">*0</text>
</g>
<!-- node13 -->
<g id="node14" class="node">
<title>node13</title>
<polygon fill="lightgrey" stroke="black" points="1057,-182 851,-182 851,-146 1057,-146 1057,-182"/>
<text text-anchor="middle" x="954" y="-160.3" font-family="Times,serif" font-size="14.00">#13 LabelNode Order : 11</text>
</g>
<!-- node11&#45;&gt;node13 -->
<g id="edge34" class="edge">
<title>node11&#45;&gt;node13</title>
<path fill="none" stroke="red" d="M841.67,-218.99C859.81,-209.27 883.9,-196.99 905.16,-186.59"/>
<polygon fill="red" stroke="red" points="906.92,-189.63 914.38,-182.11 903.86,-183.33 906.92,-189.63"/>
</g>
<!-- node15 -->
<g id="node16" class="node">
<title>node15</title>
<polygon fill="lightgrey" stroke="black" points="903.5,-36 724.5,-36 724.5,0 903.5,0 903.5,-36"/>
<text text-anchor="middle" x="814" y="-14.3" font-family="Times,serif" font-size="14.00">#15 Return Order : 13</text>
</g>
<!-- node11&#45;&gt;node15 -->
<g id="edge39" class="edge">
<title>node11&#45;&gt;node15</title>
<path fill="none" stroke="black" d="M810.16,-218.97C806.58,-181.51 806.3,-91.68 809.34,-46.26"/>
<polygon fill="black" stroke="black" points="812.83,-46.49 810.14,-36.25 805.86,-45.94 812.83,-46.49"/>
</g>
<!-- node12&#45;&gt;node11 -->
<g id="edge31" class="edge">
<title>node12&#45;&gt;node11</title>
<path fill="none" stroke="green" stroke-width="2" d="M652.9,-182.11C685.36,-192.25 725.4,-205.14 757.48,-215.77"/>
<polygon fill="green" stroke="green" stroke-width="2" points="756.57,-219.16 767.16,-218.99 758.78,-212.52 756.57,-219.16"/>
</g>
<!-- node13&#45;&gt;node11 -->
<g id="edge33" class="edge">
<title>node13&#45;&gt;node11</title>
<path fill="none" stroke="green" stroke-width="2" d="M926.13,-182.11C907.95,-191.85 883.84,-204.14 862.6,-214.52"/>
<polygon fill="green" stroke="green" stroke-width="2" points="860.86,-211.48 853.39,-218.99 863.92,-217.78 860.86,-211.48"/>
</g>
<!-- node14 -->
<g id="node15" class="node">
<title>node14</title>
<polygon fill="lightgrey" stroke="black" points="1057,-109 851,-109 851,-73 1057,-73 1057,-109"/>
<text text-anchor="middle" x="954" y="-87.3" font-family="Times,serif" font-size="14.00">#14 LabelNode Order : 12</text>
</g>
<!-- node13&#45;&gt;node14 -->
<g id="edge36" class="edge">
<title>node13&#45;&gt;node14</title>
<path fill="none" stroke="red" d="M948.12,-145.81C947.28,-137.79 947.05,-128.05 947.42,-119.07"/>
<polygon fill="red" stroke="red" points="950.92,-119.25 948.14,-109.03 943.94,-118.75 950.92,-119.25"/>
</g>
<!-- node14&#45;&gt;node13 -->
<g id="edge35" class="edge">
<title>node14&#45;&gt;node13</title>
<path fill="none" stroke="green" stroke-width="2" d="M959.86,-109.03C960.71,-117.03 960.95,-126.77 960.59,-135.75"/>
<polygon fill="green" stroke="green" stroke-width="2" points="957.09,-135.59 959.88,-145.81 964.07,-136.08 957.09,-135.59"/>
</g>
<!-- node14&#45;&gt;node15 -->
<g id="edge38" class="edge">
<title>node14&#45;&gt;node15</title>
<path fill="none" stroke="red" d="M920.47,-72.99C901.39,-63.32 877.29,-51.1 856.85,-40.73"/>
<polygon fill="red" stroke="red" points="858.25,-37.52 847.75,-36.11 855.08,-43.76 858.25,-37.52"/>
</g>
<!-- node15&#45;&gt;node11 -->
<g id="edge37" class="edge">
<title>node15&#45;&gt;node11</title>
<path fill="none" stroke="green" stroke-width="2" d="M817.86,-36.25C821.43,-73.92 821.69,-163.77 818.64,-209"/>
<polygon fill="green" stroke="green" stroke-width="2" points="815.15,-208.73 817.84,-218.97 822.13,-209.28 815.15,-208.73"/>
</g>
<!-- c0 -->
<!-- c1 -->
<!-- c0&#45;&gt;c1 -->
<g id="edge40" class="edge">
<title>c0&#45;&gt;c1</title>
<path fill="none" stroke="red" d="M1446.89,-529C1458.11,-529 1516.24,-529 1541.86,-529"/>
<polygon fill="red" stroke="red" points="1542.06,-532.5 1552.06,-529 1542.06,-525.5 1542.06,-532.5"/>
<text text-anchor="middle" x="1499.5" y="-535.8" font-family="Times,serif" font-size="14.00">Control flow</text>
</g>
<!-- c2 -->
<!-- c3 -->
<!-- c2&#45;&gt;c3 -->
<g id="edge41" class="edge">
<title>c2&#45;&gt;c3</title>
<path fill="none" stroke="red" stroke-dasharray="5,2" d="M1240.08,-529C1257.05,-529 1373.21,-529 1411.08,-529"/>
<polygon fill="red" stroke="red" points="1411.17,-532.5 1421.17,-529 1411.17,-525.5 1411.17,-532.5"/>
<text text-anchor="middle" x="1330.5" y="-535.8" font-family="Times,serif" font-size="14.00">Control flow back edge</text>
</g>
<!-- d0 -->
<!-- d1 -->
<!-- d0&#45;&gt;d1 -->
<g id="edge42" class="edge">
<title>d0&#45;&gt;d1</title>
<path fill="none" stroke="black" d="M1128.86,-529C1138.41,-529 1182.31,-529 1203.92,-529"/>
<polygon fill="black" stroke="black" points="1204.15,-532.5 1214.15,-529 1204.15,-525.5 1204.15,-532.5"/>
<text text-anchor="middle" x="1171.5" y="-535.8" font-family="Times,serif" font-size="14.00">Data flow</text>
</g>
<!-- d2 -->
<!-- d3 -->
<!-- d2&#45;&gt;d3 -->
<g id="edge43" class="edge">
<title>d2&#45;&gt;d3</title>
<path fill="none" stroke="black" stroke-dasharray="1,5" d="M1002.81,-529C1013.46,-529 1068.46,-529 1093.08,-529"/>
<polygon fill="black" stroke="black" points="1093.15,-532.5 1103.15,-529 1093.15,-525.5 1093.15,-532.5"/>
<text text-anchor="middle" x="1053" y="-535.8" font-family="Times,serif" font-size="14.00">Declaration</text>
</g>
<!-- d4 -->
<!-- d5 -->
<!-- d4&#45;&gt;d5 -->
<g id="edge44" class="edge">
<title>d4&#45;&gt;d5</title>
<path fill="none" stroke="blue" d="M860.1,-529C872.72,-529 938.88,-529 966.68,-529"/>
<polygon fill="blue" stroke="blue" points="966.84,-532.5 976.84,-529 966.84,-525.5 966.84,-532.5"/>
<text text-anchor="middle" x="918.5" y="-535.8" font-family="Times,serif" font-size="14.00">PHI Data flow</text>
</g>
<!-- d6 -->
<!-- d7 -->
<!-- d6&#45;&gt;d7 -->
<g id="edge45" class="edge">
<title>d6&#45;&gt;d7</title>
<path fill="none" stroke="green" d="M737.11,-529C748.15,-529 799.67,-529 823.66,-529"/>
<polygon fill="green" stroke="green" points="823.9,-532.5 833.9,-529 823.9,-525.5 823.9,-532.5"/>
<text text-anchor="middle" x="785.5" y="-535.8" font-family="Times,serif" font-size="14.00">Dominance</text>
</g>
</g>
</svg>
