<?xml version="1.0" encoding="UTF-8" standalone="no"?>
<!DOCTYPE svg PUBLIC "-//W3C//DTD SVG 1.1//EN"
 "http://www.w3.org/Graphics/SVG/1.1/DTD/svg11.dtd">
<!-- Generated by graphviz version 2.43.0 (0)
 -->
<!-- Title: %3 Pages: 1 -->
<svg width="1651pt" height="879pt"
 viewBox="0.00 0.00 1651.43 878.80" xmlns="http://www.w3.org/2000/svg" xmlns:xlink="http://www.w3.org/1999/xlink">
<g id="graph0" class="graph" transform="scale(1 1) rotate(0) translate(4 874.8)">
<title>%3</title>
<polygon fill="white" stroke="transparent" points="-4,4 -4,-874.8 1647.43,-874.8 1647.43,4 -4,4"/>
<g id="clust1" class="cluster">
<title>cluster_0</title>
<polygon fill="none" stroke="lightgray" points="297.43,-357 297.43,-482 675.43,-482 675.43,-357 297.43,-357"/>
</g>
<g id="clust2" class="cluster">
<title>cluster_1</title>
<polygon fill="none" stroke="lightgray" points="549.43,-649 549.43,-774 973.43,-774 973.43,-649 549.43,-649"/>
</g>
<g id="clust3" class="cluster">
<title>cluster_000</title>
<polygon fill="none" stroke="black" points="782.43,-820.2 782.43,-862.8 1635.43,-862.8 1635.43,-820.2 782.43,-820.2"/>
<text text-anchor="middle" x="1208.93" y="-847.6" font-family="Times,serif" font-size="14.00">Legend</text>
</g>
<!-- node0 -->
<g id="node1" class="node">
<title>node0</title>
<polygon fill="lightgrey" stroke="transparent" points="772.93,-857 605.93,-857 605.93,-803 772.93,-803 772.93,-857"/>
<polygon fill="none" stroke="black" points="606.43,-830 606.43,-857 773.43,-857 773.43,-830 606.43,-830"/>
<text text-anchor="start" x="649.43" y="-839.8" font-family="Times,serif" font-size="14.00">#0 Method</text>
<polygon fill="yellow" stroke="transparent" points="606.43,-803 606.43,-830 773.43,-830 773.43,-803 606.43,-803"/>
<polygon fill="none" stroke="black" points="606.43,-803 606.43,-830 773.43,-830 773.43,-803 606.43,-803"/>
<text text-anchor="start" x="612.43" y="-812.8" font-family="Times,serif" font-size="14.00">this : FieldAccessTest</text>
</g>
<!-- node4 -->
<g id="node2" class="node">
<title>node4</title>
<polygon fill="lightgrey" stroke="black" points="555.93,-620 450.93,-620 450.93,-584 555.93,-584 555.93,-620"/>
<text text-anchor="middle" x="503.43" y="-598.3" font-family="Times,serif" font-size="14.00">#4 ClassInit</text>
</g>
<!-- node0&#45;&gt;node4 -->
<g id="edge3" class="edge">
<title>node0&#45;&gt;node4</title>
<path fill="none" stroke="green" d="M605.67,-812.11C583.4,-803.94 561.19,-791.85 545.43,-774 535.89,-763.21 517.65,-675.69 508.67,-630.22"/>
<polygon fill="green" stroke="green" points="512.06,-629.3 506.7,-620.15 505.19,-630.64 512.06,-629.3"/>
</g>
<!-- node2 -->
<g id="node4" class="node">
<title>node2</title>
<polygon fill="lightgrey" stroke="black" points="748.93,-766 629.93,-766 629.93,-730 748.93,-730 748.93,-766"/>
<text text-anchor="middle" x="689.43" y="-744.3" font-family="Times,serif" font-size="14.00">#2 LabelNode</text>
</g>
<!-- node0&#45;&gt;node2 -->
<g id="edge4" class="edge">
<title>node0&#45;&gt;node2</title>
<path fill="none" stroke="red" d="M689.43,-802.81C689.43,-794.35 689.43,-784.95 689.43,-776.4"/>
<polygon fill="red" stroke="red" points="692.93,-776.17 689.43,-766.17 685.93,-776.17 692.93,-776.17"/>
</g>
<!-- node6 -->
<g id="node5" class="node">
<title>node6</title>
<polygon fill="lightgrey" stroke="black" points="611.43,-474 361.43,-474 361.43,-438 611.43,-438 611.43,-474"/>
<text text-anchor="middle" x="486.43" y="-452.3" font-family="Times,serif" font-size="14.00">#6 Invoke special &lt;init&gt; : ()void</text>
</g>
<!-- node4&#45;&gt;node6 -->
<g id="edge7" class="edge">
<title>node4&#45;&gt;node6</title>
<path fill="none" stroke="red" d="M501.41,-583.92C498.49,-559.23 493.08,-513.35 489.62,-484.04"/>
<polygon fill="red" stroke="red" points="493.09,-483.58 488.44,-474.06 486.14,-484.4 493.09,-483.58"/>
</g>
<!-- node5 -->
<g id="node6" class="node">
<title>node5</title>
<polygon fill="orange" stroke="black" points="618.54,-521.54 618.54,-536.46 588.01,-547 544.84,-547 514.31,-536.46 514.31,-521.54 544.84,-511 588.01,-511 618.54,-521.54"/>
<text text-anchor="middle" x="566.43" y="-525.3" font-family="Times,serif" font-size="14.00">#5 New</text>
</g>
<!-- node4&#45;&gt;node5 -->
<g id="edge9" class="edge">
<title>node4&#45;&gt;node5</title>
<path fill="none" stroke="black" d="M512.8,-583.81C519.69,-575 529.15,-564.13 538.27,-554.46"/>
<polygon fill="black" stroke="black" points="541.02,-556.65 545.45,-547.03 535.99,-551.79 541.02,-556.65"/>
<text text-anchor="middle" x="538.93" y="-562.24" font-family="Times,serif" font-size="14.00">*0</text>
</g>
<!-- node4&#45;&gt;node5 -->
<g id="edge10" class="edge">
<title>node4&#45;&gt;node5</title>
<path fill="none" stroke="green" d="M524.55,-583.81C533.12,-575.18 542.75,-564.56 550.69,-555.03"/>
<polygon fill="green" stroke="green" points="553.6,-557 557.18,-547.03 548.16,-552.6 553.6,-557"/>
</g>
<!-- node3 -->
<g id="node3" class="node">
<title>node3</title>
<polygon fill="lightgreen" stroke="black" points="965.45,-667.54 965.45,-682.46 845.94,-693 676.92,-693 557.4,-682.46 557.4,-667.54 676.92,-657 845.94,-657 965.45,-667.54"/>
<text text-anchor="middle" x="761.43" y="-671.3" font-family="Times,serif" font-size="14.00">#3 Class FieldAccessTest$Destination</text>
</g>
<!-- node3&#45;&gt;node4 -->
<g id="edge1" class="edge">
<title>node3&#45;&gt;node4</title>
<path fill="none" stroke="black" d="M699.63,-656.99C659.14,-645.85 606.39,-631.34 565.79,-620.16"/>
<polygon fill="black" stroke="black" points="566.58,-616.75 556.01,-617.47 564.72,-623.5 566.58,-616.75"/>
<text text-anchor="middle" x="575.73" y="-610.43" font-family="Times,serif" font-size="14.00">*0</text>
</g>
<!-- node2&#45;&gt;node4 -->
<g id="edge2" class="edge">
<title>node2&#45;&gt;node4</title>
<path fill="none" stroke="red" d="M629.72,-732.38C603.06,-723.87 572.33,-711.15 548.43,-693 524.64,-674.94 519.72,-666.65 508.43,-639 507.31,-636.26 506.43,-633.32 505.74,-630.34"/>
<polygon fill="red" stroke="red" points="509.17,-629.59 504.07,-620.3 502.26,-630.74 509.17,-629.59"/>
</g>
<!-- node2&#45;&gt;node3 -->
<g id="edge5" class="edge">
<title>node2&#45;&gt;node3</title>
<path fill="none" stroke="black" stroke-dasharray="1,5" d="M706.85,-729.81C715.88,-720.92 727.04,-709.91 736.91,-700.17"/>
<polygon fill="black" stroke="black" points="739.49,-702.54 744.16,-693.03 734.58,-697.56 739.49,-702.54"/>
</g>
<!-- node8 -->
<g id="node11" class="node">
<title>node8</title>
<polygon fill="lightgrey" stroke="black" points="530.93,-328 425.93,-328 425.93,-292 530.93,-292 530.93,-328"/>
<text text-anchor="middle" x="478.43" y="-306.3" font-family="Times,serif" font-size="14.00">#8 ClassInit</text>
</g>
<!-- node6&#45;&gt;node8 -->
<g id="edge21" class="edge">
<title>node6&#45;&gt;node8</title>
<path fill="none" stroke="red" d="M378.57,-437.98C338.17,-429.01 299.21,-416.6 287.43,-401 275.64,-385.4 275.41,-372.43 287.43,-357 302.93,-337.09 366.25,-324.44 415.88,-317.55"/>
<polygon fill="red" stroke="red" points="416.47,-321 425.92,-316.2 415.54,-314.06 416.47,-321"/>
</g>
<!-- node6&#45;&gt;node8 -->
<g id="edge22" class="edge">
<title>node6&#45;&gt;node8</title>
<path fill="none" stroke="green" d="M394.98,-437.98C356.17,-429.01 317.21,-416.6 305.43,-401 293.64,-385.4 293.41,-372.43 305.43,-357 319.36,-339.11 371.92,-327.08 415.56,-319.82"/>
<polygon fill="green" stroke="green" points="416.25,-323.25 425.57,-318.21 415.14,-316.34 416.25,-323.25"/>
</g>
<!-- node7 -->
<g id="node12" class="node">
<title>node7</title>
<polygon fill="lightgreen" stroke="black" points="667.02,-375.54 667.02,-390.46 561.23,-401 411.62,-401 305.83,-390.46 305.83,-375.54 411.62,-365 561.23,-365 667.02,-375.54"/>
<text text-anchor="middle" x="486.43" y="-379.3" font-family="Times,serif" font-size="14.00">#7 Class FieldAccessTest$Source</text>
</g>
<!-- node6&#45;&gt;node7 -->
<g id="edge23" class="edge">
<title>node6&#45;&gt;node7</title>
<path fill="none" stroke="black" stroke-dasharray="1,5" d="M486.43,-437.81C486.43,-429.79 486.43,-420.05 486.43,-411.07"/>
<polygon fill="black" stroke="black" points="489.93,-411.03 486.43,-401.03 482.93,-411.03 489.93,-411.03"/>
</g>
<!-- node5&#45;&gt;node6 -->
<g id="edge6" class="edge">
<title>node5&#45;&gt;node6</title>
<path fill="none" stroke="black" d="M542.07,-511.53C530.89,-502.5 517.88,-491.13 507.17,-481.12"/>
<polygon fill="black" stroke="black" points="509.49,-478.5 499.84,-474.12 504.66,-483.56 509.49,-478.5"/>
<text text-anchor="middle" x="518.79" y="-476.83" font-family="Times,serif" font-size="14.00">*0</text>
</g>
<!-- node5&#45;&gt;node6 -->
<g id="edge8" class="edge">
<title>node5&#45;&gt;node6</title>
<path fill="none" stroke="green" d="M552.94,-510.81C543.67,-501.74 531.15,-490.48 519.42,-480.6"/>
<polygon fill="green" stroke="green" points="521.41,-477.71 511.47,-474.03 516.95,-483.1 521.41,-477.71"/>
</g>
<!-- node12 -->
<g id="node7" class="node">
<title>node12</title>
<polygon fill="lightgrey" stroke="black" points="669.43,-109 405.43,-109 405.43,-73 669.43,-73 669.43,-109"/>
<text text-anchor="middle" x="537.43" y="-87.3" font-family="Times,serif" font-size="14.00">#12 PutField : string_field : String</text>
</g>
<!-- node5&#45;&gt;node12 -->
<g id="edge11" class="edge">
<title>node5&#45;&gt;node12</title>
<path fill="none" stroke="black" d="M616.67,-520.78C652.89,-512.41 695.43,-494.58 695.43,-457 695.43,-457 695.43,-457 695.43,-163 695.43,-139.69 680.93,-123.98 660.73,-113.41"/>
<polygon fill="black" stroke="black" points="661.95,-110.12 651.41,-109.05 658.99,-116.46 661.95,-110.12"/>
<text text-anchor="middle" x="671.41" y="-105.38" font-family="Times,serif" font-size="14.00">*0</text>
</g>
<!-- node13 -->
<g id="node13" class="node">
<title>node13</title>
<polygon fill="lightgrey" stroke="black" points="587.93,-36 486.93,-36 486.93,0 587.93,0 587.93,-36"/>
<text text-anchor="middle" x="537.43" y="-14.3" font-family="Times,serif" font-size="14.00">#13 Return</text>
</g>
<!-- node12&#45;&gt;node13 -->
<g id="edge26" class="edge">
<title>node12&#45;&gt;node13</title>
<path fill="none" stroke="red" d="M531.55,-72.81C530.71,-64.79 530.47,-55.05 530.85,-46.07"/>
<polygon fill="red" stroke="red" points="534.34,-46.25 531.56,-36.03 527.36,-45.75 534.34,-46.25"/>
</g>
<!-- node12&#45;&gt;node13 -->
<g id="edge27" class="edge">
<title>node12&#45;&gt;node13</title>
<path fill="none" stroke="green" d="M543.3,-72.81C544.14,-64.79 544.38,-55.05 544,-46.07"/>
<polygon fill="green" stroke="green" points="547.49,-45.75 543.29,-36.03 540.51,-46.25 547.49,-45.75"/>
</g>
<!-- node11 -->
<g id="node8" class="node">
<title>node11</title>
<polygon fill="orange" stroke="black" points="372.78,-156.54 372.78,-171.46 263.61,-182 109.24,-182 0.07,-171.46 0.07,-156.54 109.24,-146 263.61,-146 372.78,-156.54"/>
<text text-anchor="middle" x="186.43" y="-160.3" font-family="Times,serif" font-size="14.00">#11 GetField : string_field : String</text>
</g>
<!-- node11&#45;&gt;node12 -->
<g id="edge12" class="edge">
<title>node11&#45;&gt;node12</title>
<path fill="none" stroke="black" d="M264.64,-145.99C315.55,-135.47 382.39,-121.94 437.18,-111.05"/>
<polygon fill="black" stroke="black" points="438.13,-114.43 447.26,-109.05 436.77,-107.56 438.13,-114.43"/>
<text text-anchor="middle" x="431.13" y="-117.17" font-family="Times,serif" font-size="14.00">*1</text>
</g>
<!-- node11&#45;&gt;node12 -->
<g id="edge13" class="edge">
<title>node11&#45;&gt;node12</title>
<path fill="none" stroke="green" d="M272.28,-146.8C325.96,-136.19 394.88,-122.26 449.03,-111.11"/>
<polygon fill="green" stroke="green" points="449.87,-114.51 458.96,-109.06 448.46,-107.65 449.87,-114.51"/>
</g>
<!-- node10 -->
<g id="node9" class="node">
<title>node10</title>
<polygon fill="lightgrey" stroke="black" points="666.93,-182 407.93,-182 407.93,-146 666.93,-146 666.93,-182"/>
<text text-anchor="middle" x="537.43" y="-160.3" font-family="Times,serif" font-size="14.00">#10 Invoke special &lt;init&gt; : ()void</text>
</g>
<!-- node10&#45;&gt;node12 -->
<g id="edge14" class="edge">
<title>node10&#45;&gt;node12</title>
<path fill="none" stroke="red" d="M537.43,-145.81C537.43,-137.79 537.43,-128.05 537.43,-119.07"/>
<polygon fill="red" stroke="red" points="540.93,-119.03 537.43,-109.03 533.93,-119.03 540.93,-119.03"/>
</g>
<!-- node10&#45;&gt;node11 -->
<g id="edge25" class="edge">
<title>node10&#45;&gt;node11</title>
<path fill="none" stroke="green" d="M407.92,-164C399.62,-164 391.32,-164 383.02,-164"/>
<polygon fill="green" stroke="green" points="382.89,-160.5 372.89,-164 382.89,-167.5 382.89,-160.5"/>
</g>
<!-- node9 -->
<g id="node10" class="node">
<title>node9</title>
<polygon fill="orange" stroke="black" points="509.54,-229.54 509.54,-244.46 479.01,-255 435.84,-255 405.31,-244.46 405.31,-229.54 435.84,-219 479.01,-219 509.54,-229.54"/>
<text text-anchor="middle" x="457.43" y="-233.3" font-family="Times,serif" font-size="14.00">#9 New</text>
</g>
<!-- node9&#45;&gt;node11 -->
<g id="edge24" class="edge">
<title>node9&#45;&gt;node11</title>
<path fill="none" stroke="black" d="M417.15,-225.45C376.16,-214.71 311.67,-197.81 261.28,-184.61"/>
<polygon fill="black" stroke="black" points="261.96,-181.17 251.4,-182.02 260.19,-187.94 261.96,-181.17"/>
<text text-anchor="middle" x="271.08" y="-174.74" font-family="Times,serif" font-size="14.00">*0</text>
</g>
<!-- node9&#45;&gt;node10 -->
<g id="edge15" class="edge">
<title>node9&#45;&gt;node10</title>
<path fill="none" stroke="black" d="M470.91,-218.81C480.18,-209.74 492.7,-198.48 504.43,-188.6"/>
<polygon fill="black" stroke="black" points="506.9,-191.1 512.38,-182.03 502.44,-185.71 506.9,-191.1"/>
<text text-anchor="middle" x="503.8" y="-196.4" font-family="Times,serif" font-size="14.00">*0</text>
</g>
<!-- node9&#45;&gt;node10 -->
<g id="edge17" class="edge">
<title>node9&#45;&gt;node10</title>
<path fill="none" stroke="green" d="M481.78,-219.53C492.96,-210.5 505.97,-199.13 516.68,-189.12"/>
<polygon fill="green" stroke="green" points="519.19,-191.56 524.01,-182.12 514.36,-186.5 519.19,-191.56"/>
</g>
<!-- node8&#45;&gt;node10 -->
<g id="edge16" class="edge">
<title>node8&#45;&gt;node10</title>
<path fill="none" stroke="red" d="M494.23,-291.74C502.61,-281.7 512.39,-268.41 518.43,-255 527.41,-235.03 532.22,-210.64 534.75,-192.29"/>
<polygon fill="red" stroke="red" points="538.24,-192.62 535.99,-182.26 531.29,-191.76 538.24,-192.62"/>
</g>
<!-- node8&#45;&gt;node9 -->
<g id="edge18" class="edge">
<title>node8&#45;&gt;node9</title>
<path fill="none" stroke="black" d="M467.46,-291.81C464.25,-283.79 461.14,-274.05 458.85,-265.07"/>
<polygon fill="black" stroke="black" points="462.21,-264.02 456.6,-255.03 455.38,-265.55 462.21,-264.02"/>
<text text-anchor="middle" x="468.82" y="-267.16" font-family="Times,serif" font-size="14.00">*0</text>
</g>
<!-- node8&#45;&gt;node9 -->
<g id="edge19" class="edge">
<title>node8&#45;&gt;node9</title>
<path fill="none" stroke="green" d="M479.22,-291.81C477.65,-283.62 474.92,-273.62 471.81,-264.48"/>
<polygon fill="green" stroke="green" points="475.07,-263.2 468.32,-255.03 468.5,-265.62 475.07,-263.2"/>
</g>
<!-- node7&#45;&gt;node8 -->
<g id="edge20" class="edge">
<title>node7&#45;&gt;node8</title>
<path fill="none" stroke="black" d="M484.49,-364.81C483.58,-356.79 482.49,-347.05 481.48,-338.07"/>
<polygon fill="black" stroke="black" points="484.94,-337.57 480.34,-328.03 477.99,-338.36 484.94,-337.57"/>
<text text-anchor="middle" x="490.77" y="-341.39" font-family="Times,serif" font-size="14.00">*0</text>
</g>
<!-- c0 -->
<!-- c1 -->
<!-- c0&#45;&gt;c1 -->
<g id="edge28" class="edge">
<title>c0&#45;&gt;c1</title>
<path fill="none" stroke="red" d="M1518.32,-830C1529.53,-830 1587.67,-830 1613.28,-830"/>
<polygon fill="red" stroke="red" points="1613.48,-833.5 1623.48,-830 1613.48,-826.5 1613.48,-833.5"/>
<text text-anchor="middle" x="1570.93" y="-836.8" font-family="Times,serif" font-size="14.00">Control flow</text>
</g>
<!-- c2 -->
<!-- c3 -->
<!-- c2&#45;&gt;c3 -->
<g id="edge29" class="edge">
<title>c2&#45;&gt;c3</title>
<path fill="none" stroke="red" stroke-dasharray="5,2" d="M1311.5,-830C1328.47,-830 1444.63,-830 1482.51,-830"/>
<polygon fill="red" stroke="red" points="1482.59,-833.5 1492.59,-830 1482.59,-826.5 1482.59,-833.5"/>
<text text-anchor="middle" x="1401.93" y="-836.8" font-family="Times,serif" font-size="14.00">Control flow back edge</text>
</g>
<!-- d0 -->
<!-- d1 -->
<!-- d0&#45;&gt;d1 -->
<g id="edge30" class="edge">
<title>d0&#45;&gt;d1</title>
<path fill="none" stroke="black" d="M1200.28,-830C1209.83,-830 1253.73,-830 1275.34,-830"/>
<polygon fill="black" stroke="black" points="1275.58,-833.5 1285.58,-830 1275.58,-826.5 1275.58,-833.5"/>
<text text-anchor="middle" x="1242.93" y="-836.8" font-family="Times,serif" font-size="14.00">Data flow</text>
</g>
<!-- d2 -->
<!-- d3 -->
<!-- d2&#45;&gt;d3 -->
<g id="edge31" class="edge">
<title>d2&#45;&gt;d3</title>
<path fill="none" stroke="black" stroke-dasharray="1,5" d="M1074.23,-830C1084.88,-830 1139.89,-830 1164.5,-830"/>
<polygon fill="black" stroke="black" points="1164.57,-833.5 1174.57,-830 1164.57,-826.5 1164.57,-833.5"/>
<text text-anchor="middle" x="1124.43" y="-836.8" font-family="Times,serif" font-size="14.00">Declaration</text>
</g>
<!-- d4 -->
<!-- d5 -->
<!-- d4&#45;&gt;d5 -->
<g id="edge32" class="edge">
<title>d4&#45;&gt;d5</title>
<path fill="none" stroke="blue" d="M931.53,-830C944.15,-830 1010.31,-830 1038.11,-830"/>
<polygon fill="blue" stroke="blue" points="1038.27,-833.5 1048.27,-830 1038.27,-826.5 1038.27,-833.5"/>
<text text-anchor="middle" x="989.93" y="-836.8" font-family="Times,serif" font-size="14.00">PHI Data flow</text>
</g>
<!-- d6 -->
<!-- d7 -->
<!-- d6&#45;&gt;d7 -->
<g id="edge33" class="edge">
<title>d6&#45;&gt;d7</title>
<path fill="none" stroke="green" d="M794.42,-830C806.36,-830 868.73,-830 895.35,-830"/>
<polygon fill="green" stroke="green" points="895.37,-833.5 905.37,-830 895.37,-826.5 895.37,-833.5"/>
<text text-anchor="middle" x="849.93" y="-836.8" font-family="Times,serif" font-size="14.00">Memory flow</text>
</g>
</g>
</svg>
