<?xml version="1.0" encoding="UTF-8" standalone="no"?>
<!DOCTYPE svg PUBLIC "-//W3C//DTD SVG 1.1//EN"
 "http://www.w3.org/Graphics/SVG/1.1/DTD/svg11.dtd">
<!-- Generated by graphviz version 2.43.0 (0)
 -->
<!-- Title: %3 Pages: 1 -->
<svg width="1508pt" height="1965pt"
 viewBox="0.00 0.00 1508.00 1964.80" xmlns="http://www.w3.org/2000/svg" xmlns:xlink="http://www.w3.org/1999/xlink">
<g id="graph0" class="graph" transform="scale(1 1) rotate(0) translate(4 1960.8)">
<title>%3</title>
<polygon fill="white" stroke="transparent" points="-4,4 -4,-1960.8 1504,-1960.8 1504,4 -4,4"/>
<g id="clust1" class="cluster">
<title>cluster_000</title>
<polygon fill="none" stroke="black" points="604,-1906.2 604,-1948.8 940,-1948.8 940,-1906.2 604,-1906.2"/>
<text text-anchor="middle" x="772" y="-1933.6" font-family="Times,serif" font-size="14.00">Legend</text>
</g>
<!-- node0 -->
<g id="node1" class="node">
<title>node0</title>
<polygon fill="lightgrey" stroke="black" points="576,-1934 212,-1934 212,-1898 576,-1898 576,-1934"/>
<text text-anchor="middle" x="394" y="-1912.3" font-family="Times,serif" font-size="14.00">#0 ExceptionCatch[catchType=&lt;any&gt;] Order: 0</text>
</g>
<!-- node0&#45;&gt;node0 -->
<g id="edge1" class="edge">
<title>node0&#45;&gt;node0</title>
<path fill="none" stroke="fuchsia" d="M576.09,-1920.7C587.27,-1919.59 594,-1918.02 594,-1916 594,-1914.7 591.24,-1913.6 586.31,-1912.67"/>
<polygon fill="fuchsia" stroke="fuchsia" points="586.46,-1909.16 576.09,-1911.3 585.53,-1916.1 586.46,-1909.16"/>
</g>
<!-- node1 -->
<g id="node2" class="node">
<title>node1</title>
<polygon fill="lightgrey" stroke="black" points="576,-1861 212,-1861 212,-1825 576,-1825 576,-1861"/>
<text text-anchor="middle" x="394" y="-1839.3" font-family="Times,serif" font-size="14.00">#1 ExceptionCatch[catchType=&lt;any&gt;] Order: 1</text>
</g>
<!-- node0&#45;&gt;node1 -->
<g id="edge2" class="edge">
<title>node0&#45;&gt;node1</title>
<path fill="none" stroke="red" d="M388.12,-1897.81C387.28,-1889.79 387.05,-1880.05 387.42,-1871.07"/>
<polygon fill="red" stroke="red" points="390.92,-1871.25 388.14,-1861.03 383.94,-1870.75 390.92,-1871.25"/>
</g>
<!-- node1&#45;&gt;node0 -->
<g id="edge3" class="edge">
<title>node1&#45;&gt;node0</title>
<path fill="none" stroke="fuchsia" d="M399.86,-1861.03C400.71,-1869.03 400.95,-1878.77 400.59,-1887.75"/>
<polygon fill="fuchsia" stroke="fuchsia" points="397.09,-1887.59 399.88,-1897.81 404.07,-1888.08 397.09,-1887.59"/>
</g>
<!-- node2 -->
<g id="node3" class="node">
<title>node2</title>
<polygon fill="lightgrey" stroke="black" points="788,-1788 0,-1788 0,-1752 788,-1752 788,-1788"/>
<text text-anchor="middle" x="394" y="-1766.3" font-family="Times,serif" font-size="14.00">#2 LocalVariable[name=this, slot=0, type=Lde/mirkosertic/metair/ir/examples/SynchronizedTest;] Order: 2</text>
</g>
<!-- node1&#45;&gt;node2 -->
<g id="edge4" class="edge">
<title>node1&#45;&gt;node2</title>
<path fill="none" stroke="red" d="M388.12,-1824.81C387.28,-1816.79 387.05,-1807.05 387.42,-1798.07"/>
<polygon fill="red" stroke="red" points="390.92,-1798.25 388.14,-1788.03 383.94,-1797.75 390.92,-1798.25"/>
</g>
<!-- node2&#45;&gt;node1 -->
<g id="edge5" class="edge">
<title>node2&#45;&gt;node1</title>
<path fill="none" stroke="fuchsia" d="M399.86,-1788.03C400.71,-1796.03 400.95,-1805.77 400.59,-1814.75"/>
<polygon fill="fuchsia" stroke="fuchsia" points="397.09,-1814.59 399.88,-1824.81 404.07,-1815.08 397.09,-1814.59"/>
</g>
<!-- node3 -->
<g id="node4" class="node">
<title>node3</title>
<polygon fill="lightgrey" stroke="black" points="620,-1715 168,-1715 168,-1679 620,-1679 620,-1715"/>
<text text-anchor="middle" x="394" y="-1693.3" font-family="Times,serif" font-size="14.00">#3 Label[context=CodeModel[id=1027200], bci=0] Order: 3</text>
</g>
<!-- node2&#45;&gt;node3 -->
<g id="edge6" class="edge">
<title>node2&#45;&gt;node3</title>
<path fill="none" stroke="red" d="M388.12,-1751.81C387.28,-1743.79 387.05,-1734.05 387.42,-1725.07"/>
<polygon fill="red" stroke="red" points="390.92,-1725.25 388.14,-1715.03 383.94,-1724.75 390.92,-1725.25"/>
</g>
<!-- node3&#45;&gt;node2 -->
<g id="edge7" class="edge">
<title>node3&#45;&gt;node2</title>
<path fill="none" stroke="fuchsia" d="M399.86,-1715.03C400.71,-1723.03 400.95,-1732.77 400.59,-1741.75"/>
<polygon fill="fuchsia" stroke="fuchsia" points="397.09,-1741.59 399.88,-1751.81 404.07,-1742.08 397.09,-1741.59"/>
</g>
<!-- node4 -->
<g id="node5" class="node">
<title>node4</title>
<polygon fill="lightgrey" stroke="black" points="525.5,-1642 262.5,-1642 262.5,-1606 525.5,-1606 525.5,-1642"/>
<text text-anchor="middle" x="394" y="-1620.3" font-family="Times,serif" font-size="14.00">#4 LineNumber[line=13] Order: 4</text>
</g>
<!-- node3&#45;&gt;node4 -->
<g id="edge8" class="edge">
<title>node3&#45;&gt;node4</title>
<path fill="none" stroke="red" d="M388.12,-1678.81C387.28,-1670.79 387.05,-1661.05 387.42,-1652.07"/>
<polygon fill="red" stroke="red" points="390.92,-1652.25 388.14,-1642.03 383.94,-1651.75 390.92,-1652.25"/>
</g>
<!-- node4&#45;&gt;node3 -->
<g id="edge9" class="edge">
<title>node4&#45;&gt;node3</title>
<path fill="none" stroke="fuchsia" d="M399.86,-1642.03C400.71,-1650.03 400.95,-1659.77 400.59,-1668.75"/>
<polygon fill="fuchsia" stroke="fuchsia" points="397.09,-1668.59 399.88,-1678.81 404.07,-1669.08 397.09,-1668.59"/>
</g>
<!-- node5 -->
<g id="node6" class="node">
<title>node5</title>
<polygon fill="lightgrey" stroke="black" points="548,-1569 240,-1569 240,-1533 548,-1533 548,-1569"/>
<text text-anchor="middle" x="394" y="-1547.3" font-family="Times,serif" font-size="14.00">#5 Load[OP=ALOAD_0, slot=0] Order: 5</text>
</g>
<!-- node4&#45;&gt;node5 -->
<g id="edge10" class="edge">
<title>node4&#45;&gt;node5</title>
<path fill="none" stroke="red" d="M388.12,-1605.81C387.28,-1597.79 387.05,-1588.05 387.42,-1579.07"/>
<polygon fill="red" stroke="red" points="390.92,-1579.25 388.14,-1569.03 383.94,-1578.75 390.92,-1579.25"/>
</g>
<!-- node5&#45;&gt;node4 -->
<g id="edge11" class="edge">
<title>node5&#45;&gt;node4</title>
<path fill="none" stroke="fuchsia" d="M399.86,-1569.03C400.71,-1577.03 400.95,-1586.77 400.59,-1595.75"/>
<polygon fill="fuchsia" stroke="fuchsia" points="397.09,-1595.59 399.88,-1605.81 404.07,-1596.08 397.09,-1595.59"/>
</g>
<!-- node6 -->
<g id="node7" class="node">
<title>node6</title>
<polygon fill="lightgrey" stroke="black" points="575.5,-1496 212.5,-1496 212.5,-1460 575.5,-1460 575.5,-1496"/>
<text text-anchor="middle" x="394" y="-1474.3" font-family="Times,serif" font-size="14.00">#6 UnboundStackInstruction[op=DUP] Order: 6</text>
</g>
<!-- node5&#45;&gt;node6 -->
<g id="edge12" class="edge">
<title>node5&#45;&gt;node6</title>
<path fill="none" stroke="red" d="M388.12,-1532.81C387.28,-1524.79 387.05,-1515.05 387.42,-1506.07"/>
<polygon fill="red" stroke="red" points="390.92,-1506.25 388.14,-1496.03 383.94,-1505.75 390.92,-1506.25"/>
</g>
<!-- node6&#45;&gt;node5 -->
<g id="edge13" class="edge">
<title>node6&#45;&gt;node5</title>
<path fill="none" stroke="fuchsia" d="M399.86,-1496.03C400.71,-1504.03 400.95,-1513.77 400.59,-1522.75"/>
<polygon fill="fuchsia" stroke="fuchsia" points="397.09,-1522.59 399.88,-1532.81 404.07,-1523.08 397.09,-1522.59"/>
</g>
<!-- node7 -->
<g id="node8" class="node">
<title>node7</title>
<polygon fill="lightgrey" stroke="black" points="555,-1423 233,-1423 233,-1387 555,-1387 555,-1423"/>
<text text-anchor="middle" x="394" y="-1401.3" font-family="Times,serif" font-size="14.00">#7 Store[OP=ASTORE_1, slot=1] Order: 7</text>
</g>
<!-- node6&#45;&gt;node7 -->
<g id="edge14" class="edge">
<title>node6&#45;&gt;node7</title>
<path fill="none" stroke="red" d="M388.12,-1459.81C387.28,-1451.79 387.05,-1442.05 387.42,-1433.07"/>
<polygon fill="red" stroke="red" points="390.92,-1433.25 388.14,-1423.03 383.94,-1432.75 390.92,-1433.25"/>
</g>
<!-- node7&#45;&gt;node6 -->
<g id="edge15" class="edge">
<title>node7&#45;&gt;node6</title>
<path fill="none" stroke="fuchsia" d="M399.86,-1423.03C400.71,-1431.03 400.95,-1440.77 400.59,-1449.75"/>
<polygon fill="fuchsia" stroke="fuchsia" points="397.09,-1449.59 399.88,-1459.81 404.07,-1450.08 397.09,-1449.59"/>
</g>
<!-- node8 -->
<g id="node9" class="node">
<title>node8</title>
<polygon fill="lightgrey" stroke="black" points="630.5,-1350 157.5,-1350 157.5,-1314 630.5,-1314 630.5,-1350"/>
<text text-anchor="middle" x="394" y="-1328.3" font-family="Times,serif" font-size="14.00">#8 UnboundMonitorInstruction[op=MONITORENTER] Order: 8</text>
</g>
<!-- node7&#45;&gt;node8 -->
<g id="edge16" class="edge">
<title>node7&#45;&gt;node8</title>
<path fill="none" stroke="red" d="M388.12,-1386.81C387.28,-1378.79 387.05,-1369.05 387.42,-1360.07"/>
<polygon fill="red" stroke="red" points="390.92,-1360.25 388.14,-1350.03 383.94,-1359.75 390.92,-1360.25"/>
</g>
<!-- node8&#45;&gt;node7 -->
<g id="edge17" class="edge">
<title>node8&#45;&gt;node7</title>
<path fill="none" stroke="fuchsia" d="M399.86,-1350.03C400.71,-1358.03 400.95,-1367.77 400.59,-1376.75"/>
<polygon fill="fuchsia" stroke="fuchsia" points="397.09,-1376.59 399.88,-1386.81 404.07,-1377.08 397.09,-1376.59"/>
</g>
<!-- node9 -->
<g id="node10" class="node">
<title>node9</title>
<polygon fill="lightgrey" stroke="black" points="620,-1277 168,-1277 168,-1241 620,-1241 620,-1277"/>
<text text-anchor="middle" x="394" y="-1255.3" font-family="Times,serif" font-size="14.00">#9 Label[context=CodeModel[id=1027200], bci=4] Order: 9</text>
</g>
<!-- node8&#45;&gt;node9 -->
<g id="edge18" class="edge">
<title>node8&#45;&gt;node9</title>
<path fill="none" stroke="red" d="M388.12,-1313.81C387.28,-1305.79 387.05,-1296.05 387.42,-1287.07"/>
<polygon fill="red" stroke="red" points="390.92,-1287.25 388.14,-1277.03 383.94,-1286.75 390.92,-1287.25"/>
</g>
<!-- node9&#45;&gt;node8 -->
<g id="edge19" class="edge">
<title>node9&#45;&gt;node8</title>
<path fill="none" stroke="fuchsia" d="M399.86,-1277.03C400.71,-1285.03 400.95,-1294.77 400.59,-1303.75"/>
<polygon fill="fuchsia" stroke="fuchsia" points="397.09,-1303.59 399.88,-1313.81 404.07,-1304.08 397.09,-1303.59"/>
</g>
<!-- node10 -->
<g id="node11" class="node">
<title>node10</title>
<polygon fill="lightgrey" stroke="black" points="534.5,-36 253.5,-36 253.5,0 534.5,0 534.5,-36"/>
<text text-anchor="middle" x="394" y="-14.3" font-family="Times,serif" font-size="14.00">#10 LineNumber[line=14] Order: 10</text>
</g>
<!-- node9&#45;&gt;node10 -->
<g id="edge20" class="edge">
<title>node9&#45;&gt;node10</title>
<path fill="none" stroke="red" d="M378.68,-1240.91C371.02,-1226.78 364,-1206.02 364,-1187 364,-1187 364,-1187 364,-90 364,-74.84 368.46,-58.58 374.14,-45.45"/>
<polygon fill="red" stroke="red" points="377.47,-46.62 378.68,-36.09 371.17,-43.56 377.47,-46.62"/>
</g>
<!-- node20 -->
<g id="node21" class="node">
<title>node20</title>
<polygon fill="lightgrey" stroke="black" points="959.5,-1204 480.5,-1204 480.5,-1168 959.5,-1168 959.5,-1204"/>
<text text-anchor="middle" x="720" y="-1182.3" font-family="Times,serif" font-size="14.00">#20 Label[context=CodeModel[id=1027200], bci=16] Order: 23</text>
</g>
<!-- node9&#45;&gt;node20 -->
<g id="edge40" class="edge">
<title>node9&#45;&gt;node20</title>
<path fill="none" stroke="red" d="M466.23,-1240.99C513.24,-1230.51 574.99,-1217.05 625.83,-1206.19"/>
<polygon fill="red" stroke="red" points="626.79,-1209.56 635.84,-1204.05 625.33,-1202.71 626.79,-1209.56"/>
</g>
<!-- node10&#45;&gt;node9 -->
<g id="edge21" class="edge">
<title>node10&#45;&gt;node9</title>
<path fill="none" stroke="fuchsia" d="M393.2,-36.09C389.02,-50.22 382,-70.98 382,-90 382,-1187 382,-1187 382,-1187 382,-1202.01 386.37,-1218.1 390.27,-1231.16"/>
<polygon fill="fuchsia" stroke="fuchsia" points="386.97,-1232.34 393.2,-1240.91 393.67,-1230.33 386.97,-1232.34"/>
</g>
<!-- node11 -->
<g id="node12" class="node">
<title>node11</title>
<polygon fill="lightgrey" stroke="black" points="760,-109 434,-109 434,-73 760,-73 760,-109"/>
<text text-anchor="middle" x="597" y="-87.3" font-family="Times,serif" font-size="14.00">#11 Load[OP=ALOAD_0, slot=0] Order: 11</text>
</g>
<!-- node10&#45;&gt;node11 -->
<g id="edge22" class="edge">
<title>node10&#45;&gt;node11</title>
<path fill="none" stroke="red" d="M448.8,-36.11C478.58,-46.16 515.16,-58.92 544.56,-69.5"/>
<polygon fill="red" stroke="red" points="543.64,-72.89 554.24,-72.99 546.02,-66.3 543.64,-72.89"/>
</g>
<!-- node11&#45;&gt;node10 -->
<g id="edge23" class="edge">
<title>node11&#45;&gt;node10</title>
<path fill="none" stroke="fuchsia" d="M542.52,-72.99C512.79,-62.97 476.21,-50.21 446.75,-39.62"/>
<polygon fill="fuchsia" stroke="fuchsia" points="447.65,-36.22 437.06,-36.11 445.28,-42.8 447.65,-36.22"/>
</g>
<!-- node12 -->
<g id="node13" class="node">
<title>node12</title>
<polygon fill="lightgrey" stroke="black" points="935,-182 513,-182 513,-146 935,-146 935,-182"/>
<text text-anchor="middle" x="724" y="-160.3" font-family="Times,serif" font-size="14.00">#12 ArgumentConstant[OP=BIPUSH, val=10] Order: 12</text>
</g>
<!-- node11&#45;&gt;node12 -->
<g id="edge24" class="edge">
<title>node11&#45;&gt;node12</title>
<path fill="none" stroke="red" d="M633.48,-109.11C651.51,-118.63 673.05,-130.59 690.64,-140.82"/>
<polygon fill="red" stroke="red" points="689.04,-143.95 699.44,-145.99 692.59,-137.91 689.04,-143.95"/>
</g>
<!-- node12&#45;&gt;node11 -->
<g id="edge25" class="edge">
<title>node12&#45;&gt;node11</title>
<path fill="none" stroke="fuchsia" d="M687.72,-145.99C669.72,-136.49 648.18,-124.54 630.56,-114.29"/>
<polygon fill="fuchsia" stroke="fuchsia" points="632.14,-111.16 621.74,-109.11 628.59,-117.2 632.14,-111.16"/>
</g>
<!-- node13 -->
<g id="node14" class="node">
<title>node13</title>
<polygon fill="lightgrey" stroke="black" points="1245.5,-255 410.5,-255 410.5,-219 1245.5,-219 1245.5,-255"/>
<text text-anchor="middle" x="828" y="-233.3" font-family="Times,serif" font-size="14.00">#13 Invoke[OP=INVOKEVIRTUAL, m=de/mirkosertic/metair/ir/examples/SynchronizedTest.compute(I)I] Order: 13</text>
</g>
<!-- node12&#45;&gt;node13 -->
<g id="edge26" class="edge">
<title>node12&#45;&gt;node13</title>
<path fill="none" stroke="red" d="M754.81,-182.03C769.28,-191.25 786.33,-202.77 800.39,-212.8"/>
<polygon fill="red" stroke="red" points="798.55,-215.79 808.7,-218.81 802.65,-210.12 798.55,-215.79"/>
</g>
<!-- node13&#45;&gt;node12 -->
<g id="edge27" class="edge">
<title>node13&#45;&gt;node12</title>
<path fill="none" stroke="fuchsia" d="M797.23,-218.99C782.71,-209.75 765.61,-198.19 751.53,-188.14"/>
<polygon fill="fuchsia" stroke="fuchsia" points="753.35,-185.14 743.2,-182.11 749.25,-190.81 753.35,-185.14"/>
</g>
<!-- node14 -->
<g id="node15" class="node">
<title>node14</title>
<polygon fill="lightgrey" stroke="black" points="940.5,-328 605.5,-328 605.5,-292 940.5,-292 940.5,-328"/>
<text text-anchor="middle" x="773" y="-306.3" font-family="Times,serif" font-size="14.00">#14 Store[OP=ISTORE_2, slot=2] Order: 14</text>
</g>
<!-- node13&#45;&gt;node14 -->
<g id="edge28" class="edge">
<title>node13&#45;&gt;node14</title>
<path fill="none" stroke="red" d="M820.67,-255.03C814.85,-263.73 806.74,-274.47 798.78,-284.08"/>
<polygon fill="red" stroke="red" points="796.01,-281.93 792.19,-291.81 801.34,-286.47 796.01,-281.93"/>
</g>
<!-- node14&#45;&gt;node13 -->
<g id="edge29" class="edge">
<title>node14&#45;&gt;node13</title>
<path fill="none" stroke="fuchsia" d="M780.44,-291.81C786.28,-283.09 794.41,-272.34 802.36,-262.75"/>
<polygon fill="fuchsia" stroke="fuchsia" points="805.12,-264.91 808.95,-255.03 799.79,-260.37 805.12,-264.91"/>
</g>
<!-- node15 -->
<g id="node16" class="node">
<title>node15</title>
<polygon fill="lightgrey" stroke="black" points="896.5,-401 615.5,-401 615.5,-365 896.5,-365 896.5,-401"/>
<text text-anchor="middle" x="756" y="-379.3" font-family="Times,serif" font-size="14.00">#15 LineNumber[line=15] Order: 15</text>
</g>
<!-- node14&#45;&gt;node15 -->
<g id="edge30" class="edge">
<title>node14&#45;&gt;node15</title>
<path fill="none" stroke="red" d="M774.78,-328.03C773.7,-336.12 771.58,-345.98 769.03,-355.05"/>
<polygon fill="red" stroke="red" points="765.62,-354.22 765.99,-364.81 772.3,-356.3 765.62,-354.22"/>
</g>
<!-- node15&#45;&gt;node14 -->
<g id="edge31" class="edge">
<title>node15&#45;&gt;node14</title>
<path fill="none" stroke="fuchsia" d="M754.24,-364.81C755.33,-356.7 757.46,-346.84 760.02,-337.78"/>
<polygon fill="fuchsia" stroke="fuchsia" points="763.43,-338.62 763.06,-328.03 756.74,-336.53 763.43,-338.62"/>
</g>
<!-- node16 -->
<g id="node17" class="node">
<title>node16</title>
<polygon fill="lightgrey" stroke="black" points="898,-474 572,-474 572,-438 898,-438 898,-474"/>
<text text-anchor="middle" x="735" y="-452.3" font-family="Times,serif" font-size="14.00">#16 Load[OP=ALOAD_1, slot=1] Order: 16</text>
</g>
<!-- node15&#45;&gt;node16 -->
<g id="edge32" class="edge">
<title>node15&#45;&gt;node16</title>
<path fill="none" stroke="red" d="M756.82,-401.03C755.27,-409.2 752.55,-419.19 749.45,-428.34"/>
<polygon fill="red" stroke="red" points="746.13,-427.22 745.96,-437.81 752.7,-429.64 746.13,-427.22"/>
</g>
<!-- node16&#45;&gt;node15 -->
<g id="edge33" class="edge">
<title>node16&#45;&gt;node15</title>
<path fill="none" stroke="fuchsia" d="M734.21,-437.81C735.77,-429.62 738.5,-419.62 741.61,-410.48"/>
<polygon fill="fuchsia" stroke="fuchsia" points="744.92,-411.62 745.1,-401.03 738.36,-409.2 744.92,-411.62"/>
</g>
<!-- node17 -->
<g id="node18" class="node">
<title>node17</title>
<polygon fill="lightgrey" stroke="black" points="965.5,-547 492.5,-547 492.5,-511 965.5,-511 965.5,-547"/>
<text text-anchor="middle" x="729" y="-525.3" font-family="Times,serif" font-size="14.00">#17 UnboundMonitorInstruction[op=MONITOREXIT] Order: 17</text>
</g>
<!-- node16&#45;&gt;node17 -->
<g id="edge34" class="edge">
<title>node16&#45;&gt;node17</title>
<path fill="none" stroke="red" d="M739.42,-474.03C739.59,-482.03 739.01,-491.77 737.89,-500.75"/>
<polygon fill="red" stroke="red" points="734.4,-500.4 736.33,-510.81 741.32,-501.47 734.4,-500.4"/>
</g>
<!-- node17&#45;&gt;node16 -->
<g id="edge35" class="edge">
<title>node17&#45;&gt;node16</title>
<path fill="none" stroke="fuchsia" d="M724.57,-510.81C724.41,-502.79 725,-493.05 726.13,-484.07"/>
<polygon fill="fuchsia" stroke="fuchsia" points="729.62,-484.45 727.7,-474.03 722.7,-483.37 729.62,-484.45"/>
</g>
<!-- node18 -->
<g id="node19" class="node">
<title>node18</title>
<polygon fill="lightgrey" stroke="black" points="965.5,-620 486.5,-620 486.5,-584 965.5,-584 965.5,-620"/>
<text text-anchor="middle" x="726" y="-598.3" font-family="Times,serif" font-size="14.00">#18 Label[context=CodeModel[id=1027200], bci=13] Order: 18</text>
</g>
<!-- node17&#45;&gt;node18 -->
<g id="edge36" class="edge">
<title>node17&#45;&gt;node18</title>
<path fill="none" stroke="red" d="M734.14,-547.03C734.65,-555.03 734.48,-564.77 733.74,-573.75"/>
<polygon fill="red" stroke="red" points="730.24,-573.48 732.6,-583.81 737.2,-574.27 730.24,-573.48"/>
</g>
<!-- node18&#45;&gt;node17 -->
<g id="edge37" class="edge">
<title>node18&#45;&gt;node17</title>
<path fill="none" stroke="fuchsia" d="M720.85,-583.81C720.35,-575.79 720.53,-566.05 721.28,-557.07"/>
<polygon fill="fuchsia" stroke="fuchsia" points="724.77,-557.36 722.42,-547.03 717.81,-556.57 724.77,-557.36"/>
</g>
<!-- node19 -->
<g id="node20" class="node">
<title>node19</title>
<polygon fill="lightgrey" stroke="black" points="846,-693 584,-693 584,-657 846,-657 846,-693"/>
<text text-anchor="middle" x="715" y="-671.3" font-family="Times,serif" font-size="14.00">#19 Branch[OP=GOTO] Order: 19</text>
</g>
<!-- node18&#45;&gt;node19 -->
<g id="edge38" class="edge">
<title>node18&#45;&gt;node19</title>
<path fill="none" stroke="red" d="M729.22,-620.03C728.83,-628.12 727.54,-637.98 725.75,-647.05"/>
<polygon fill="red" stroke="red" points="722.33,-646.29 723.54,-656.81 729.16,-647.83 722.33,-646.29"/>
</g>
<!-- node19&#45;&gt;node18 -->
<g id="edge39" class="edge">
<title>node19&#45;&gt;node18</title>
<path fill="none" stroke="fuchsia" d="M711.78,-656.81C712.19,-648.79 713.46,-639.05 715.23,-630.07"/>
<polygon fill="fuchsia" stroke="fuchsia" points="718.71,-630.55 717.5,-620.03 711.88,-629.01 718.71,-630.55"/>
</g>
<!-- node27 -->
<g id="node28" class="node">
<title>node27</title>
<polygon fill="lightgrey" stroke="black" points="908.5,-766 429.5,-766 429.5,-730 908.5,-730 908.5,-766"/>
<text text-anchor="middle" x="669" y="-744.3" font-family="Times,serif" font-size="14.00">#27 Label[context=CodeModel[id=1027200], bci=21] Order: 20</text>
</g>
<!-- node19&#45;&gt;node27 -->
<g id="edge54" class="edge">
<title>node19&#45;&gt;node27</title>
<path fill="none" stroke="red" d="M709.83,-693.03C705.21,-701.55 698.63,-712.04 692.03,-721.5"/>
<polygon fill="red" stroke="red" points="689.04,-719.66 686.01,-729.81 694.71,-723.76 689.04,-719.66"/>
</g>
<!-- node20&#45;&gt;node9 -->
<g id="edge41" class="edge">
<title>node20&#45;&gt;node9</title>
<path fill="none" stroke="fuchsia" d="M647.57,-1204.05C600.52,-1214.54 538.76,-1228.01 487.95,-1238.86"/>
<polygon fill="fuchsia" stroke="fuchsia" points="486.99,-1235.48 477.94,-1240.99 488.45,-1242.33 486.99,-1235.48"/>
</g>
<!-- node21 -->
<g id="node22" class="node">
<title>node21</title>
<polygon fill="lightgrey" stroke="black" points="1245,-1131 905,-1131 905,-1095 1245,-1095 1245,-1131"/>
<text text-anchor="middle" x="1075" y="-1109.3" font-family="Times,serif" font-size="14.00">#21 Store[OP=ASTORE_3, slot=3] Order: 24</text>
</g>
<!-- node20&#45;&gt;node21 -->
<g id="edge42" class="edge">
<title>node20&#45;&gt;node21</title>
<path fill="none" stroke="red" d="M805.03,-1167.99C857.65,-1157.47 925.32,-1143.94 979.74,-1133.05"/>
<polygon fill="red" stroke="red" points="980.62,-1136.45 989.74,-1131.05 979.25,-1129.58 980.62,-1136.45"/>
</g>
<!-- node22 -->
<g id="node23" class="node">
<title>node22</title>
<polygon fill="lightgrey" stroke="black" points="1375,-1058 1049,-1058 1049,-1022 1375,-1022 1375,-1058"/>
<text text-anchor="middle" x="1212" y="-1036.3" font-family="Times,serif" font-size="14.00">#22 Load[OP=ALOAD_1, slot=1] Order: 25</text>
</g>
<!-- node21&#45;&gt;node22 -->
<g id="edge44" class="edge">
<title>node21&#45;&gt;node22</title>
<path fill="none" stroke="red" d="M1107.81,-1094.99C1126.49,-1085.32 1150.07,-1073.1 1170.07,-1062.73"/>
<polygon fill="red" stroke="red" points="1171.71,-1065.82 1178.98,-1058.11 1168.49,-1059.61 1171.71,-1065.82"/>
</g>
<!-- node23 -->
<g id="node24" class="node">
<title>node23</title>
<polygon fill="lightgrey" stroke="black" points="1257.5,-985 784.5,-985 784.5,-949 1257.5,-949 1257.5,-985"/>
<text text-anchor="middle" x="1021" y="-963.3" font-family="Times,serif" font-size="14.00">#23 UnboundMonitorInstruction[op=MONITOREXIT] Order: 26</text>
</g>
<!-- node21&#45;&gt;node23 -->
<g id="edge43" class="edge">
<title>node21&#45;&gt;node23</title>
<path fill="none" stroke="fuchsia" d="M1061.59,-1094.91C1054.21,-1084.72 1045.46,-1071.22 1040,-1058 1031.64,-1037.76 1026.79,-1013.39 1024.08,-995.12"/>
<polygon fill="fuchsia" stroke="fuchsia" points="1027.54,-994.57 1022.73,-985.14 1020.6,-995.52 1027.54,-994.57"/>
</g>
<!-- node22&#45;&gt;node23 -->
<g id="edge46" class="edge">
<title>node22&#45;&gt;node23</title>
<path fill="none" stroke="red" d="M1166.25,-1021.99C1139.28,-1011.97 1104.97,-999.21 1076.46,-988.62"/>
<polygon fill="red" stroke="red" points="1077.63,-985.32 1067.04,-985.11 1075.19,-991.88 1077.63,-985.32"/>
</g>
<!-- node24 -->
<g id="node25" class="node">
<title>node24</title>
<polygon fill="lightgrey" stroke="black" points="1375.5,-912 896.5,-912 896.5,-876 1375.5,-876 1375.5,-912"/>
<text text-anchor="middle" x="1136" y="-890.3" font-family="Times,serif" font-size="14.00">#24 Label[context=CodeModel[id=1027200], bci=19] Order: 27</text>
</g>
<!-- node22&#45;&gt;node24 -->
<g id="edge45" class="edge">
<title>node22&#45;&gt;node24</title>
<path fill="none" stroke="fuchsia" d="M1237.1,-1021.77C1248.52,-1012.38 1260.84,-999.68 1267,-985 1273.19,-970.25 1275.9,-962.3 1267,-949 1257.39,-934.65 1243.2,-924.1 1227.66,-916.36"/>
<polygon fill="fuchsia" stroke="fuchsia" points="1228.93,-913.09 1218.38,-912.12 1226.02,-919.46 1228.93,-913.09"/>
</g>
<!-- node23&#45;&gt;node24 -->
<g id="edge48" class="edge">
<title>node23&#45;&gt;node24</title>
<path fill="none" stroke="red" d="M1048.55,-948.99C1063.8,-939.58 1082.95,-927.76 1099.44,-917.57"/>
<polygon fill="red" stroke="red" points="1101.61,-920.35 1108.28,-912.11 1097.93,-914.39 1101.61,-920.35"/>
</g>
<!-- node25 -->
<g id="node26" class="node">
<title>node25</title>
<polygon fill="lightgrey" stroke="black" points="1110,-839 784,-839 784,-803 1110,-803 1110,-839"/>
<text text-anchor="middle" x="947" y="-817.3" font-family="Times,serif" font-size="14.00">#25 Load[OP=ALOAD_3, slot=3] Order: 28</text>
</g>
<!-- node23&#45;&gt;node25 -->
<g id="edge47" class="edge">
<title>node23&#45;&gt;node25</title>
<path fill="none" stroke="fuchsia" d="M937.05,-949C917.81,-941.01 899.62,-929.26 888,-912 879.06,-898.73 881.55,-890.64 888,-876 893.16,-864.28 902.25,-854 911.78,-845.64"/>
<polygon fill="fuchsia" stroke="fuchsia" points="914.28,-848.12 919.81,-839.09 909.85,-842.7 914.28,-848.12"/>
</g>
<!-- node24&#45;&gt;node25 -->
<g id="edge50" class="edge">
<title>node24&#45;&gt;node25</title>
<path fill="none" stroke="red" d="M1090.73,-875.99C1064.16,-866.01 1030.38,-853.32 1002.25,-842.76"/>
<polygon fill="red" stroke="red" points="1003.15,-839.35 992.56,-839.11 1000.69,-845.91 1003.15,-839.35"/>
</g>
<!-- node26 -->
<g id="node27" class="node">
<title>node26</title>
<polygon fill="lightgrey" stroke="black" points="1244.5,-766 965.5,-766 965.5,-730 1244.5,-730 1244.5,-766"/>
<text text-anchor="middle" x="1105" y="-744.3" font-family="Times,serif" font-size="14.00">#26 Throw[OP=ATHROW] Order: 29</text>
</g>
<!-- node24&#45;&gt;node26 -->
<g id="edge49" class="edge">
<title>node24&#45;&gt;node26</title>
<path fill="none" stroke="fuchsia" d="M1133.08,-875.68C1129.94,-857.5 1124.63,-828.14 1119,-803 1117.05,-794.27 1114.68,-784.8 1112.45,-776.27"/>
<polygon fill="fuchsia" stroke="fuchsia" points="1115.79,-775.2 1109.84,-766.44 1109.02,-777 1115.79,-775.2"/>
</g>
<!-- node25&#45;&gt;node26 -->
<g id="edge52" class="edge">
<title>node25&#45;&gt;node26</title>
<path fill="none" stroke="red" d="M984.84,-802.99C1006.67,-793.19 1034.31,-780.77 1057.58,-770.31"/>
<polygon fill="red" stroke="red" points="1059.23,-773.4 1066.92,-766.11 1056.36,-767.02 1059.23,-773.4"/>
</g>
<!-- node25&#45;&gt;node27 -->
<g id="edge51" class="edge">
<title>node25&#45;&gt;node27</title>
<path fill="none" stroke="fuchsia" d="M880.41,-802.99C839.96,-792.66 788.16,-779.43 745.96,-768.66"/>
<polygon fill="fuchsia" stroke="fuchsia" points="746.56,-765.2 736.01,-766.11 744.83,-771.98 746.56,-765.2"/>
</g>
<!-- node28 -->
<g id="node29" class="node">
<title>node28</title>
<polygon fill="lightgrey" stroke="black" points="1218.5,-693 937.5,-693 937.5,-657 1218.5,-657 1218.5,-693"/>
<text text-anchor="middle" x="1078" y="-671.3" font-family="Times,serif" font-size="14.00">#28 LineNumber[line=16] Order: 21</text>
</g>
<!-- node26&#45;&gt;node28 -->
<g id="edge53" class="edge">
<title>node26&#45;&gt;node28</title>
<path fill="none" stroke="fuchsia" d="M1098.46,-729.81C1095.35,-721.62 1091.55,-711.62 1088.07,-702.48"/>
<polygon fill="fuchsia" stroke="fuchsia" points="1091.3,-701.13 1084.48,-693.03 1084.76,-703.62 1091.3,-701.13"/>
</g>
<!-- node27&#45;&gt;node19 -->
<g id="edge55" class="edge">
<title>node27&#45;&gt;node19</title>
<path fill="none" stroke="fuchsia" d="M674.26,-729.81C678.9,-721.27 685.49,-710.77 692.1,-701.32"/>
<polygon fill="fuchsia" stroke="fuchsia" points="695.07,-703.18 698.11,-693.03 689.4,-699.07 695.07,-703.18"/>
</g>
<!-- node27&#45;&gt;node28 -->
<g id="edge56" class="edge">
<title>node27&#45;&gt;node28</title>
<path fill="none" stroke="red" d="M766.97,-729.99C828.09,-719.38 906.84,-705.71 969.81,-694.78"/>
<polygon fill="red" stroke="red" points="970.52,-698.21 979.77,-693.05 969.32,-691.31 970.52,-698.21"/>
</g>
<!-- node28&#45;&gt;node20 -->
<g id="edge57" class="edge">
<title>node28&#45;&gt;node20</title>
<path fill="none" stroke="fuchsia" d="M1030.48,-693.02C1007.38,-702.32 979.76,-715 957,-730 937.3,-742.98 938.71,-754.71 918,-766 860.37,-797.43 823.35,-758.6 775,-803 756.26,-820.21 756,-831.56 756,-857 756,-1114 756,-1114 756,-1114 756,-1130.28 748.38,-1146.62 740.14,-1159.5"/>
<polygon fill="fuchsia" stroke="fuchsia" points="737.2,-1157.61 734.44,-1167.83 742.98,-1161.56 737.2,-1157.61"/>
</g>
<!-- node29 -->
<g id="node30" class="node">
<title>node29</title>
<polygon fill="lightgrey" stroke="black" points="1500,-620 1218,-620 1218,-584 1500,-584 1500,-620"/>
<text text-anchor="middle" x="1359" y="-598.3" font-family="Times,serif" font-size="14.00">#29 Return[OP=RETURN] Order: 22</text>
</g>
<!-- node28&#45;&gt;node29 -->
<g id="edge58" class="edge">
<title>node28&#45;&gt;node29</title>
<path fill="none" stroke="red" d="M1145.31,-656.99C1186.28,-646.64 1238.77,-633.38 1281.48,-622.59"/>
<polygon fill="red" stroke="red" points="1282.43,-625.96 1291.27,-620.11 1280.72,-619.17 1282.43,-625.96"/>
</g>
<!-- node29&#45;&gt;node21 -->
<g id="edge59" class="edge">
<title>node29&#45;&gt;node21</title>
<path fill="none" stroke="fuchsia" d="M1377.56,-620.09C1389.96,-633.42 1404,-653.13 1404,-674 1404,-1041 1404,-1041 1404,-1041 1404,-1075.95 1332.16,-1093.74 1255.61,-1102.78"/>
<polygon fill="fuchsia" stroke="fuchsia" points="1254.83,-1099.34 1245.28,-1103.94 1255.61,-1106.3 1254.83,-1099.34"/>
</g>
<!-- c0 -->
<!-- c1 -->
<!-- c0&#45;&gt;c1 -->
<g id="edge60" class="edge">
<title>c0&#45;&gt;c1</title>
<path fill="none" stroke="red" d="M822.89,-1916C834.11,-1916 892.24,-1916 917.86,-1916"/>
<polygon fill="red" stroke="red" points="918.06,-1919.5 928.06,-1916 918.06,-1912.5 918.06,-1919.5"/>
<text text-anchor="middle" x="875.5" y="-1922.8" font-family="Times,serif" font-size="14.00">Control flow</text>
</g>
<!-- c2 -->
<!-- c3 -->
<!-- c2&#45;&gt;c3 -->
<g id="edge61" class="edge">
<title>c2&#45;&gt;c3</title>
<path fill="none" stroke="red" stroke-dasharray="5,2" d="M616.08,-1916C633.05,-1916 749.21,-1916 787.08,-1916"/>
<polygon fill="red" stroke="red" points="787.17,-1919.5 797.17,-1916 787.17,-1912.5 787.17,-1919.5"/>
<text text-anchor="middle" x="706.5" y="-1922.8" font-family="Times,serif" font-size="14.00">Control flow back edge</text>
</g>
</g>
</svg>
