<?xml version="1.0" encoding="UTF-8" standalone="no"?>
<!DOCTYPE svg PUBLIC "-//W3C//DTD SVG 1.1//EN"
 "http://www.w3.org/Graphics/SVG/1.1/DTD/svg11.dtd">
<!-- Generated by graphviz version 2.43.0 (0)
 -->
<!-- Title: %3 Pages: 1 -->
<svg width="2674pt" height="1746pt"
 viewBox="0.00 0.00 2673.50 1745.80" xmlns="http://www.w3.org/2000/svg" xmlns:xlink="http://www.w3.org/1999/xlink">
<g id="graph0" class="graph" transform="scale(1 1) rotate(0) translate(4 1741.8)">
<title>%3</title>
<polygon fill="white" stroke="transparent" points="-4,4 -4,-1741.8 2669.5,-1741.8 2669.5,4 -4,4"/>
<g id="clust1" class="cluster">
<title>cluster_000</title>
<polygon fill="none" stroke="black" points="2321.5,-1687.2 2321.5,-1729.8 2657.5,-1729.8 2657.5,-1687.2 2321.5,-1687.2"/>
<text text-anchor="middle" x="2489.5" y="-1714.6" font-family="Times,serif" font-size="14.00">Legend</text>
</g>
<!-- node0 -->
<g id="node1" class="node">
<title>node0</title>
<polygon fill="lightgrey" stroke="black" points="599.5,-1715 235.5,-1715 235.5,-1679 599.5,-1679 599.5,-1715"/>
<text text-anchor="middle" x="417.5" y="-1693.3" font-family="Times,serif" font-size="14.00">#0 ExceptionCatch[catchType=&lt;any&gt;] Order: 0</text>
</g>
<!-- node0&#45;&gt;node0 -->
<g id="edge1" class="edge">
<title>node0&#45;&gt;node0</title>
<path fill="none" stroke="fuchsia" d="M599.59,-1701.7C610.77,-1700.59 617.5,-1699.02 617.5,-1697 617.5,-1695.7 614.74,-1694.6 609.81,-1693.67"/>
<polygon fill="fuchsia" stroke="fuchsia" points="609.96,-1690.16 599.59,-1692.3 609.03,-1697.1 609.96,-1690.16"/>
</g>
<!-- node1 -->
<g id="node2" class="node">
<title>node1</title>
<polygon fill="lightgrey" stroke="black" points="599.5,-1642 235.5,-1642 235.5,-1606 599.5,-1606 599.5,-1642"/>
<text text-anchor="middle" x="417.5" y="-1620.3" font-family="Times,serif" font-size="14.00">#1 ExceptionCatch[catchType=&lt;any&gt;] Order: 1</text>
</g>
<!-- node0&#45;&gt;node1 -->
<g id="edge2" class="edge">
<title>node0&#45;&gt;node1</title>
<path fill="none" stroke="red" d="M411.62,-1678.81C410.78,-1670.79 410.55,-1661.05 410.92,-1652.07"/>
<polygon fill="red" stroke="red" points="414.42,-1652.25 411.64,-1642.03 407.44,-1651.75 414.42,-1652.25"/>
</g>
<!-- node1&#45;&gt;node0 -->
<g id="edge3" class="edge">
<title>node1&#45;&gt;node0</title>
<path fill="none" stroke="fuchsia" d="M423.36,-1642.03C424.21,-1650.03 424.45,-1659.77 424.09,-1668.75"/>
<polygon fill="fuchsia" stroke="fuchsia" points="420.59,-1668.59 423.38,-1678.81 427.57,-1669.08 420.59,-1668.59"/>
</g>
<!-- node2 -->
<g id="node3" class="node">
<title>node2</title>
<polygon fill="lightgrey" stroke="black" points="811.5,-1569 23.5,-1569 23.5,-1533 811.5,-1533 811.5,-1569"/>
<text text-anchor="middle" x="417.5" y="-1547.3" font-family="Times,serif" font-size="14.00">#2 LocalVariable[name=this, slot=0, type=Lde/mirkosertic/metair/ir/examples/SynchronizedTest;] Order: 2</text>
</g>
<!-- node1&#45;&gt;node2 -->
<g id="edge4" class="edge">
<title>node1&#45;&gt;node2</title>
<path fill="none" stroke="red" d="M411.62,-1605.81C410.78,-1597.79 410.55,-1588.05 410.92,-1579.07"/>
<polygon fill="red" stroke="red" points="414.42,-1579.25 411.64,-1569.03 407.44,-1578.75 414.42,-1579.25"/>
</g>
<!-- node2&#45;&gt;node1 -->
<g id="edge5" class="edge">
<title>node2&#45;&gt;node1</title>
<path fill="none" stroke="fuchsia" d="M423.36,-1569.03C424.21,-1577.03 424.45,-1586.77 424.09,-1595.75"/>
<polygon fill="fuchsia" stroke="fuchsia" points="420.59,-1595.59 423.38,-1605.81 427.57,-1596.08 420.59,-1595.59"/>
</g>
<!-- node3 -->
<g id="node4" class="node">
<title>node3</title>
<polygon fill="lightgrey" stroke="black" points="652.5,-1496 182.5,-1496 182.5,-1460 652.5,-1460 652.5,-1496"/>
<text text-anchor="middle" x="417.5" y="-1474.3" font-family="Times,serif" font-size="14.00">#3 Label[context=CodeModel[id=400064818], bci=0] Order: 3</text>
</g>
<!-- node2&#45;&gt;node3 -->
<g id="edge6" class="edge">
<title>node2&#45;&gt;node3</title>
<path fill="none" stroke="red" d="M411.62,-1532.81C410.78,-1524.79 410.55,-1515.05 410.92,-1506.07"/>
<polygon fill="red" stroke="red" points="414.42,-1506.25 411.64,-1496.03 407.44,-1505.75 414.42,-1506.25"/>
</g>
<!-- node3&#45;&gt;node2 -->
<g id="edge7" class="edge">
<title>node3&#45;&gt;node2</title>
<path fill="none" stroke="fuchsia" d="M423.36,-1496.03C424.21,-1504.03 424.45,-1513.77 424.09,-1522.75"/>
<polygon fill="fuchsia" stroke="fuchsia" points="420.59,-1522.59 423.38,-1532.81 427.57,-1523.08 420.59,-1522.59"/>
</g>
<!-- node4 -->
<g id="node5" class="node">
<title>node4</title>
<polygon fill="lightgrey" stroke="black" points="549,-1423 286,-1423 286,-1387 549,-1387 549,-1423"/>
<text text-anchor="middle" x="417.5" y="-1401.3" font-family="Times,serif" font-size="14.00">#4 LineNumber[line=13] Order: 4</text>
</g>
<!-- node3&#45;&gt;node4 -->
<g id="edge8" class="edge">
<title>node3&#45;&gt;node4</title>
<path fill="none" stroke="red" d="M411.62,-1459.81C410.78,-1451.79 410.55,-1442.05 410.92,-1433.07"/>
<polygon fill="red" stroke="red" points="414.42,-1433.25 411.64,-1423.03 407.44,-1432.75 414.42,-1433.25"/>
</g>
<!-- node4&#45;&gt;node3 -->
<g id="edge9" class="edge">
<title>node4&#45;&gt;node3</title>
<path fill="none" stroke="fuchsia" d="M423.36,-1423.03C424.21,-1431.03 424.45,-1440.77 424.09,-1449.75"/>
<polygon fill="fuchsia" stroke="fuchsia" points="420.59,-1449.59 423.38,-1459.81 427.57,-1450.08 420.59,-1449.59"/>
</g>
<!-- node5 -->
<g id="node6" class="node">
<title>node5</title>
<polygon fill="lightgrey" stroke="black" points="571.5,-1350 263.5,-1350 263.5,-1314 571.5,-1314 571.5,-1350"/>
<text text-anchor="middle" x="417.5" y="-1328.3" font-family="Times,serif" font-size="14.00">#5 Load[OP=ALOAD_0, slot=0] Order: 5</text>
</g>
<!-- node4&#45;&gt;node5 -->
<g id="edge10" class="edge">
<title>node4&#45;&gt;node5</title>
<path fill="none" stroke="red" d="M411.62,-1386.81C410.78,-1378.79 410.55,-1369.05 410.92,-1360.07"/>
<polygon fill="red" stroke="red" points="414.42,-1360.25 411.64,-1350.03 407.44,-1359.75 414.42,-1360.25"/>
</g>
<!-- node5&#45;&gt;node4 -->
<g id="edge11" class="edge">
<title>node5&#45;&gt;node4</title>
<path fill="none" stroke="fuchsia" d="M423.36,-1350.03C424.21,-1358.03 424.45,-1367.77 424.09,-1376.75"/>
<polygon fill="fuchsia" stroke="fuchsia" points="420.59,-1376.59 423.38,-1386.81 427.57,-1377.08 420.59,-1376.59"/>
</g>
<!-- node6 -->
<g id="node7" class="node">
<title>node6</title>
<polygon fill="lightgrey" stroke="black" points="599,-1277 236,-1277 236,-1241 599,-1241 599,-1277"/>
<text text-anchor="middle" x="417.5" y="-1255.3" font-family="Times,serif" font-size="14.00">#6 UnboundStackInstruction[op=DUP] Order: 6</text>
</g>
<!-- node5&#45;&gt;node6 -->
<g id="edge12" class="edge">
<title>node5&#45;&gt;node6</title>
<path fill="none" stroke="red" d="M411.62,-1313.81C410.78,-1305.79 410.55,-1296.05 410.92,-1287.07"/>
<polygon fill="red" stroke="red" points="414.42,-1287.25 411.64,-1277.03 407.44,-1286.75 414.42,-1287.25"/>
</g>
<!-- node6&#45;&gt;node5 -->
<g id="edge13" class="edge">
<title>node6&#45;&gt;node5</title>
<path fill="none" stroke="fuchsia" d="M423.36,-1277.03C424.21,-1285.03 424.45,-1294.77 424.09,-1303.75"/>
<polygon fill="fuchsia" stroke="fuchsia" points="420.59,-1303.59 423.38,-1313.81 427.57,-1304.08 420.59,-1303.59"/>
</g>
<!-- node7 -->
<g id="node8" class="node">
<title>node7</title>
<polygon fill="lightgrey" stroke="black" points="578.5,-1204 256.5,-1204 256.5,-1168 578.5,-1168 578.5,-1204"/>
<text text-anchor="middle" x="417.5" y="-1182.3" font-family="Times,serif" font-size="14.00">#7 Store[OP=ASTORE_1, slot=1] Order: 7</text>
</g>
<!-- node6&#45;&gt;node7 -->
<g id="edge14" class="edge">
<title>node6&#45;&gt;node7</title>
<path fill="none" stroke="red" d="M411.62,-1240.81C410.78,-1232.79 410.55,-1223.05 410.92,-1214.07"/>
<polygon fill="red" stroke="red" points="414.42,-1214.25 411.64,-1204.03 407.44,-1213.75 414.42,-1214.25"/>
</g>
<!-- node7&#45;&gt;node6 -->
<g id="edge15" class="edge">
<title>node7&#45;&gt;node6</title>
<path fill="none" stroke="fuchsia" d="M423.36,-1204.03C424.21,-1212.03 424.45,-1221.77 424.09,-1230.75"/>
<polygon fill="fuchsia" stroke="fuchsia" points="420.59,-1230.59 423.38,-1240.81 427.57,-1231.08 420.59,-1230.59"/>
</g>
<!-- node8 -->
<g id="node9" class="node">
<title>node8</title>
<polygon fill="lightgrey" stroke="black" points="654,-1131 181,-1131 181,-1095 654,-1095 654,-1131"/>
<text text-anchor="middle" x="417.5" y="-1109.3" font-family="Times,serif" font-size="14.00">#8 UnboundMonitorInstruction[op=MONITORENTER] Order: 8</text>
</g>
<!-- node7&#45;&gt;node8 -->
<g id="edge16" class="edge">
<title>node7&#45;&gt;node8</title>
<path fill="none" stroke="red" d="M411.62,-1167.81C410.78,-1159.79 410.55,-1150.05 410.92,-1141.07"/>
<polygon fill="red" stroke="red" points="414.42,-1141.25 411.64,-1131.03 407.44,-1140.75 414.42,-1141.25"/>
</g>
<!-- node8&#45;&gt;node7 -->
<g id="edge17" class="edge">
<title>node8&#45;&gt;node7</title>
<path fill="none" stroke="fuchsia" d="M423.36,-1131.03C424.21,-1139.03 424.45,-1148.77 424.09,-1157.75"/>
<polygon fill="fuchsia" stroke="fuchsia" points="420.59,-1157.59 423.38,-1167.81 427.57,-1158.08 420.59,-1157.59"/>
</g>
<!-- node9 -->
<g id="node10" class="node">
<title>node9</title>
<polygon fill="lightgrey" stroke="black" points="652.5,-1058 182.5,-1058 182.5,-1022 652.5,-1022 652.5,-1058"/>
<text text-anchor="middle" x="417.5" y="-1036.3" font-family="Times,serif" font-size="14.00">#9 Label[context=CodeModel[id=400064818], bci=4] Order: 9</text>
</g>
<!-- node8&#45;&gt;node9 -->
<g id="edge18" class="edge">
<title>node8&#45;&gt;node9</title>
<path fill="none" stroke="red" d="M411.62,-1094.81C410.78,-1086.79 410.55,-1077.05 410.92,-1068.07"/>
<polygon fill="red" stroke="red" points="414.42,-1068.25 411.64,-1058.03 407.44,-1067.75 414.42,-1068.25"/>
</g>
<!-- node9&#45;&gt;node8 -->
<g id="edge19" class="edge">
<title>node9&#45;&gt;node8</title>
<path fill="none" stroke="fuchsia" d="M423.36,-1058.03C424.21,-1066.03 424.45,-1075.77 424.09,-1084.75"/>
<polygon fill="fuchsia" stroke="fuchsia" points="420.59,-1084.59 423.38,-1094.81 427.57,-1085.08 420.59,-1084.59"/>
</g>
<!-- node10 -->
<g id="node11" class="node">
<title>node10</title>
<polygon fill="lightgrey" stroke="black" points="558,-985 277,-985 277,-949 558,-949 558,-985"/>
<text text-anchor="middle" x="417.5" y="-963.3" font-family="Times,serif" font-size="14.00">#10 LineNumber[line=14] Order: 10</text>
</g>
<!-- node9&#45;&gt;node10 -->
<g id="edge20" class="edge">
<title>node9&#45;&gt;node10</title>
<path fill="none" stroke="red" d="M411.62,-1021.81C410.78,-1013.79 410.55,-1004.05 410.92,-995.07"/>
<polygon fill="red" stroke="red" points="414.42,-995.25 411.64,-985.03 407.44,-994.75 414.42,-995.25"/>
</g>
<!-- node10&#45;&gt;node9 -->
<g id="edge21" class="edge">
<title>node10&#45;&gt;node9</title>
<path fill="none" stroke="fuchsia" d="M423.36,-985.03C424.21,-993.03 424.45,-1002.77 424.09,-1011.75"/>
<polygon fill="fuchsia" stroke="fuchsia" points="420.59,-1011.59 423.38,-1021.81 427.57,-1012.08 420.59,-1011.59"/>
</g>
<!-- node11 -->
<g id="node12" class="node">
<title>node11</title>
<polygon fill="lightgrey" stroke="black" points="580.5,-912 254.5,-912 254.5,-876 580.5,-876 580.5,-912"/>
<text text-anchor="middle" x="417.5" y="-890.3" font-family="Times,serif" font-size="14.00">#11 Load[OP=ALOAD_0, slot=0] Order: 11</text>
</g>
<!-- node10&#45;&gt;node11 -->
<g id="edge22" class="edge">
<title>node10&#45;&gt;node11</title>
<path fill="none" stroke="red" d="M411.62,-948.81C410.78,-940.79 410.55,-931.05 410.92,-922.07"/>
<polygon fill="red" stroke="red" points="414.42,-922.25 411.64,-912.03 407.44,-921.75 414.42,-922.25"/>
</g>
<!-- node11&#45;&gt;node10 -->
<g id="edge23" class="edge">
<title>node11&#45;&gt;node10</title>
<path fill="none" stroke="fuchsia" d="M423.36,-912.03C424.21,-920.03 424.45,-929.77 424.09,-938.75"/>
<polygon fill="fuchsia" stroke="fuchsia" points="420.59,-938.59 423.38,-948.81 427.57,-939.08 420.59,-938.59"/>
</g>
<!-- node12 -->
<g id="node13" class="node">
<title>node12</title>
<polygon fill="lightgrey" stroke="black" points="628.5,-839 206.5,-839 206.5,-803 628.5,-803 628.5,-839"/>
<text text-anchor="middle" x="417.5" y="-817.3" font-family="Times,serif" font-size="14.00">#12 ArgumentConstant[OP=BIPUSH, val=10] Order: 12</text>
</g>
<!-- node11&#45;&gt;node12 -->
<g id="edge24" class="edge">
<title>node11&#45;&gt;node12</title>
<path fill="none" stroke="red" d="M411.62,-875.81C410.78,-867.79 410.55,-858.05 410.92,-849.07"/>
<polygon fill="red" stroke="red" points="414.42,-849.25 411.64,-839.03 407.44,-848.75 414.42,-849.25"/>
</g>
<!-- node12&#45;&gt;node11 -->
<g id="edge25" class="edge">
<title>node12&#45;&gt;node11</title>
<path fill="none" stroke="fuchsia" d="M423.36,-839.03C424.21,-847.03 424.45,-856.77 424.09,-865.75"/>
<polygon fill="fuchsia" stroke="fuchsia" points="420.59,-865.59 423.38,-875.81 427.57,-866.08 420.59,-865.59"/>
</g>
<!-- node13 -->
<g id="node14" class="node">
<title>node13</title>
<polygon fill="lightgrey" stroke="black" points="835,-766 0,-766 0,-730 835,-730 835,-766"/>
<text text-anchor="middle" x="417.5" y="-744.3" font-family="Times,serif" font-size="14.00">#13 Invoke[OP=INVOKEVIRTUAL, m=de/mirkosertic/metair/ir/examples/SynchronizedTest.compute(I)I] Order: 13</text>
</g>
<!-- node12&#45;&gt;node13 -->
<g id="edge26" class="edge">
<title>node12&#45;&gt;node13</title>
<path fill="none" stroke="red" d="M411.62,-802.81C410.78,-794.79 410.55,-785.05 410.92,-776.07"/>
<polygon fill="red" stroke="red" points="414.42,-776.25 411.64,-766.03 407.44,-775.75 414.42,-776.25"/>
</g>
<!-- node13&#45;&gt;node12 -->
<g id="edge27" class="edge">
<title>node13&#45;&gt;node12</title>
<path fill="none" stroke="fuchsia" d="M423.36,-766.03C424.21,-774.03 424.45,-783.77 424.09,-792.75"/>
<polygon fill="fuchsia" stroke="fuchsia" points="420.59,-792.59 423.38,-802.81 427.57,-793.08 420.59,-792.59"/>
</g>
<!-- node14 -->
<g id="node15" class="node">
<title>node14</title>
<polygon fill="lightgrey" stroke="black" points="585,-693 250,-693 250,-657 585,-657 585,-693"/>
<text text-anchor="middle" x="417.5" y="-671.3" font-family="Times,serif" font-size="14.00">#14 Store[OP=ISTORE_2, slot=2] Order: 14</text>
</g>
<!-- node13&#45;&gt;node14 -->
<g id="edge28" class="edge">
<title>node13&#45;&gt;node14</title>
<path fill="none" stroke="red" d="M411.62,-729.81C410.78,-721.79 410.55,-712.05 410.92,-703.07"/>
<polygon fill="red" stroke="red" points="414.42,-703.25 411.64,-693.03 407.44,-702.75 414.42,-703.25"/>
</g>
<!-- node14&#45;&gt;node13 -->
<g id="edge29" class="edge">
<title>node14&#45;&gt;node13</title>
<path fill="none" stroke="fuchsia" d="M423.36,-693.03C424.21,-701.03 424.45,-710.77 424.09,-719.75"/>
<polygon fill="fuchsia" stroke="fuchsia" points="420.59,-719.59 423.38,-729.81 427.57,-720.08 420.59,-719.59"/>
</g>
<!-- node15 -->
<g id="node16" class="node">
<title>node15</title>
<polygon fill="lightgrey" stroke="black" points="558,-620 277,-620 277,-584 558,-584 558,-620"/>
<text text-anchor="middle" x="417.5" y="-598.3" font-family="Times,serif" font-size="14.00">#15 LineNumber[line=15] Order: 15</text>
</g>
<!-- node14&#45;&gt;node15 -->
<g id="edge30" class="edge">
<title>node14&#45;&gt;node15</title>
<path fill="none" stroke="red" d="M411.62,-656.81C410.78,-648.79 410.55,-639.05 410.92,-630.07"/>
<polygon fill="red" stroke="red" points="414.42,-630.25 411.64,-620.03 407.44,-629.75 414.42,-630.25"/>
</g>
<!-- node15&#45;&gt;node14 -->
<g id="edge31" class="edge">
<title>node15&#45;&gt;node14</title>
<path fill="none" stroke="fuchsia" d="M423.36,-620.03C424.21,-628.03 424.45,-637.77 424.09,-646.75"/>
<polygon fill="fuchsia" stroke="fuchsia" points="420.59,-646.59 423.38,-656.81 427.57,-647.08 420.59,-646.59"/>
</g>
<!-- node16 -->
<g id="node17" class="node">
<title>node16</title>
<polygon fill="lightgrey" stroke="black" points="580.5,-547 254.5,-547 254.5,-511 580.5,-511 580.5,-547"/>
<text text-anchor="middle" x="417.5" y="-525.3" font-family="Times,serif" font-size="14.00">#16 Load[OP=ALOAD_1, slot=1] Order: 16</text>
</g>
<!-- node15&#45;&gt;node16 -->
<g id="edge32" class="edge">
<title>node15&#45;&gt;node16</title>
<path fill="none" stroke="red" d="M411.62,-583.81C410.78,-575.79 410.55,-566.05 410.92,-557.07"/>
<polygon fill="red" stroke="red" points="414.42,-557.25 411.64,-547.03 407.44,-556.75 414.42,-557.25"/>
</g>
<!-- node16&#45;&gt;node15 -->
<g id="edge33" class="edge">
<title>node16&#45;&gt;node15</title>
<path fill="none" stroke="fuchsia" d="M423.36,-547.03C424.21,-555.03 424.45,-564.77 424.09,-573.75"/>
<polygon fill="fuchsia" stroke="fuchsia" points="420.59,-573.59 423.38,-583.81 427.57,-574.08 420.59,-573.59"/>
</g>
<!-- node17 -->
<g id="node18" class="node">
<title>node17</title>
<polygon fill="lightgrey" stroke="black" points="654,-474 181,-474 181,-438 654,-438 654,-474"/>
<text text-anchor="middle" x="417.5" y="-452.3" font-family="Times,serif" font-size="14.00">#17 UnboundMonitorInstruction[op=MONITOREXIT] Order: 17</text>
</g>
<!-- node16&#45;&gt;node17 -->
<g id="edge34" class="edge">
<title>node16&#45;&gt;node17</title>
<path fill="none" stroke="red" d="M411.62,-510.81C410.78,-502.79 410.55,-493.05 410.92,-484.07"/>
<polygon fill="red" stroke="red" points="414.42,-484.25 411.64,-474.03 407.44,-483.75 414.42,-484.25"/>
</g>
<!-- node17&#45;&gt;node16 -->
<g id="edge35" class="edge">
<title>node17&#45;&gt;node16</title>
<path fill="none" stroke="fuchsia" d="M423.36,-474.03C424.21,-482.03 424.45,-491.77 424.09,-500.75"/>
<polygon fill="fuchsia" stroke="fuchsia" points="420.59,-500.59 423.38,-510.81 427.57,-501.08 420.59,-500.59"/>
</g>
<!-- node18 -->
<g id="node19" class="node">
<title>node18</title>
<polygon fill="lightgrey" stroke="black" points="666,-401 169,-401 169,-365 666,-365 666,-401"/>
<text text-anchor="middle" x="417.5" y="-379.3" font-family="Times,serif" font-size="14.00">#18 Label[context=CodeModel[id=400064818], bci=13] Order: 18</text>
</g>
<!-- node17&#45;&gt;node18 -->
<g id="edge36" class="edge">
<title>node17&#45;&gt;node18</title>
<path fill="none" stroke="red" d="M411.62,-437.81C410.78,-429.79 410.55,-420.05 410.92,-411.07"/>
<polygon fill="red" stroke="red" points="414.42,-411.25 411.64,-401.03 407.44,-410.75 414.42,-411.25"/>
</g>
<!-- node18&#45;&gt;node17 -->
<g id="edge37" class="edge">
<title>node18&#45;&gt;node17</title>
<path fill="none" stroke="fuchsia" d="M423.36,-401.03C424.21,-409.03 424.45,-418.77 424.09,-427.75"/>
<polygon fill="fuchsia" stroke="fuchsia" points="420.59,-427.59 423.38,-437.81 427.57,-428.08 420.59,-427.59"/>
</g>
<!-- node19 -->
<g id="node20" class="node">
<title>node19</title>
<polygon fill="lightgrey" stroke="black" points="548.5,-328 286.5,-328 286.5,-292 548.5,-292 548.5,-328"/>
<text text-anchor="middle" x="417.5" y="-306.3" font-family="Times,serif" font-size="14.00">#19 Branch[OP=GOTO] Order: 19</text>
</g>
<!-- node18&#45;&gt;node19 -->
<g id="edge38" class="edge">
<title>node18&#45;&gt;node19</title>
<path fill="none" stroke="red" d="M411.62,-364.81C410.78,-356.79 410.55,-347.05 410.92,-338.07"/>
<polygon fill="red" stroke="red" points="414.42,-338.25 411.64,-328.03 407.44,-337.75 414.42,-338.25"/>
</g>
<!-- node19&#45;&gt;node18 -->
<g id="edge39" class="edge">
<title>node19&#45;&gt;node18</title>
<path fill="none" stroke="fuchsia" d="M423.36,-328.03C424.21,-336.03 424.45,-345.77 424.09,-354.75"/>
<polygon fill="fuchsia" stroke="fuchsia" points="420.59,-354.59 423.38,-364.81 427.57,-355.08 420.59,-354.59"/>
</g>
<!-- node27 -->
<g id="node28" class="node">
<title>node27</title>
<polygon fill="lightgrey" stroke="black" points="629,-255 206,-255 206,-219 629,-219 629,-255"/>
<text text-anchor="middle" x="417.5" y="-233.3" font-family="Times,serif" font-size="14.00">#27 Label[context=CodeModel[id=400064818], bci=21]</text>
</g>
<!-- node19&#45;&gt;node27 -->
<g id="edge40" class="edge">
<title>node19&#45;&gt;node27</title>
<path fill="none" stroke="red" d="M411.62,-291.81C410.78,-283.79 410.55,-274.05 410.92,-265.07"/>
<polygon fill="red" stroke="red" points="414.42,-265.25 411.64,-255.03 407.44,-264.75 414.42,-265.25"/>
</g>
<!-- node20 -->
<g id="node21" class="node">
<title>node20</title>
<polygon fill="lightgrey" stroke="black" points="651.5,-109 159.5,-109 159.5,-73 651.5,-73 651.5,-109"/>
<text text-anchor="middle" x="405.5" y="-87.3" font-family="Times,serif" font-size="14.00">#20 Label[context=CodeModel[id=400064818], bci=16] Order: &#45;1</text>
</g>
<!-- node21 -->
<g id="node22" class="node">
<title>node21</title>
<polygon fill="lightgrey" stroke="black" points="942,-36 607,-36 607,0 942,0 942,-36"/>
<text text-anchor="middle" x="774.5" y="-14.3" font-family="Times,serif" font-size="14.00">#21 Store[OP=ASTORE_3, slot=3] Order: &#45;1</text>
</g>
<!-- node22 -->
<g id="node23" class="node">
<title>node22</title>
<polygon fill="lightgrey" stroke="black" points="957,-1715 636,-1715 636,-1679 957,-1679 957,-1715"/>
<text text-anchor="middle" x="796.5" y="-1693.3" font-family="Times,serif" font-size="14.00">#22 Load[OP=ALOAD_1, slot=1] Order: &#45;1</text>
</g>
<!-- node23 -->
<g id="node24" class="node">
<title>node23</title>
<polygon fill="lightgrey" stroke="black" points="1375.5,-1715 975.5,-1715 975.5,-1679 1375.5,-1679 1375.5,-1715"/>
<text text-anchor="middle" x="1175.5" y="-1693.3" font-family="Times,serif" font-size="14.00">#23 UnboundMonitorInstruction[op=MONITOREXIT]</text>
</g>
<!-- node24 -->
<g id="node25" class="node">
<title>node24</title>
<polygon fill="lightgrey" stroke="black" points="1817,-1715 1394,-1715 1394,-1679 1817,-1679 1817,-1715"/>
<text text-anchor="middle" x="1605.5" y="-1693.3" font-family="Times,serif" font-size="14.00">#24 Label[context=CodeModel[id=400064818], bci=19]</text>
</g>
<!-- node25 -->
<g id="node26" class="node">
<title>node25</title>
<polygon fill="lightgrey" stroke="black" points="2087.5,-1715 1835.5,-1715 1835.5,-1679 2087.5,-1679 2087.5,-1715"/>
<text text-anchor="middle" x="1961.5" y="-1693.3" font-family="Times,serif" font-size="14.00">#25 Load[OP=ALOAD_3, slot=3]</text>
</g>
<!-- node26 -->
<g id="node27" class="node">
<title>node26</title>
<polygon fill="lightgrey" stroke="black" points="2311.5,-1715 2105.5,-1715 2105.5,-1679 2311.5,-1679 2311.5,-1715"/>
<text text-anchor="middle" x="2208.5" y="-1693.3" font-family="Times,serif" font-size="14.00">#26 Throw[OP=ATHROW]</text>
</g>
<!-- node27&#45;&gt;node19 -->
<g id="edge41" class="edge">
<title>node27&#45;&gt;node19</title>
<path fill="none" stroke="fuchsia" d="M423.36,-255.03C424.21,-263.03 424.45,-272.77 424.09,-281.75"/>
<polygon fill="fuchsia" stroke="fuchsia" points="420.59,-281.59 423.38,-291.81 427.57,-282.08 420.59,-281.59"/>
</g>
<!-- node28 -->
<g id="node29" class="node">
<title>node28</title>
<polygon fill="lightgrey" stroke="black" points="521,-182 314,-182 314,-146 521,-146 521,-182"/>
<text text-anchor="middle" x="417.5" y="-160.3" font-family="Times,serif" font-size="14.00">#28 LineNumber[line=16]</text>
</g>
<!-- node27&#45;&gt;node28 -->
<g id="edge42" class="edge">
<title>node27&#45;&gt;node28</title>
<path fill="none" stroke="red" d="M417.5,-218.81C417.5,-210.79 417.5,-201.05 417.5,-192.07"/>
<polygon fill="red" stroke="red" points="421,-192.03 417.5,-182.03 414,-192.03 421,-192.03"/>
</g>
<!-- node28&#45;&gt;node20 -->
<g id="edge43" class="edge">
<title>node28&#45;&gt;node20</title>
<path fill="none" stroke="fuchsia" d="M414.6,-145.81C413.24,-137.79 411.59,-128.05 410.08,-119.07"/>
<polygon fill="fuchsia" stroke="fuchsia" points="413.5,-118.31 408.38,-109.03 406.59,-119.47 413.5,-118.31"/>
</g>
<!-- node29 -->
<g id="node30" class="node">
<title>node29</title>
<polygon fill="lightgrey" stroke="black" points="879,-109 670,-109 670,-73 879,-73 879,-109"/>
<text text-anchor="middle" x="774.5" y="-87.3" font-family="Times,serif" font-size="14.00">#29 Return[OP=RETURN]</text>
</g>
<!-- node28&#45;&gt;node29 -->
<g id="edge44" class="edge">
<title>node28&#45;&gt;node29</title>
<path fill="none" stroke="red" d="M503.01,-145.99C555.93,-135.47 623.97,-121.94 678.7,-111.05"/>
<polygon fill="red" stroke="red" points="679.63,-114.44 688.76,-109.05 678.27,-107.57 679.63,-114.44"/>
</g>
<!-- node29&#45;&gt;node21 -->
<g id="edge45" class="edge">
<title>node29&#45;&gt;node21</title>
<path fill="none" stroke="fuchsia" d="M774.5,-72.81C774.5,-64.79 774.5,-55.05 774.5,-46.07"/>
<polygon fill="fuchsia" stroke="fuchsia" points="778,-46.03 774.5,-36.03 771,-46.03 778,-46.03"/>
</g>
<!-- c0 -->
<!-- c1 -->
<!-- c0&#45;&gt;c1 -->
<g id="edge46" class="edge">
<title>c0&#45;&gt;c1</title>
<path fill="none" stroke="red" d="M2540.39,-1697C2551.61,-1697 2609.74,-1697 2635.36,-1697"/>
<polygon fill="red" stroke="red" points="2635.56,-1700.5 2645.56,-1697 2635.56,-1693.5 2635.56,-1700.5"/>
<text text-anchor="middle" x="2593" y="-1703.8" font-family="Times,serif" font-size="14.00">Control flow</text>
</g>
<!-- c2 -->
<!-- c3 -->
<!-- c2&#45;&gt;c3 -->
<g id="edge47" class="edge">
<title>c2&#45;&gt;c3</title>
<path fill="none" stroke="red" stroke-dasharray="5,2" d="M2333.58,-1697C2350.55,-1697 2466.71,-1697 2504.58,-1697"/>
<polygon fill="red" stroke="red" points="2504.67,-1700.5 2514.67,-1697 2504.67,-1693.5 2504.67,-1700.5"/>
<text text-anchor="middle" x="2424" y="-1703.8" font-family="Times,serif" font-size="14.00">Control flow back edge</text>
</g>
</g>
</svg>
