<?xml version="1.0" encoding="UTF-8" standalone="no"?>
<!DOCTYPE svg PUBLIC "-//W3C//DTD SVG 1.1//EN"
 "http://www.w3.org/Graphics/SVG/1.1/DTD/svg11.dtd">
<!-- Generated by graphviz version 2.43.0 (0)
 -->
<!-- Title: %3 Pages: 1 -->
<svg width="1425pt" height="1673pt"
 viewBox="0.00 0.00 1424.50 1672.80" xmlns="http://www.w3.org/2000/svg" xmlns:xlink="http://www.w3.org/1999/xlink">
<g id="graph0" class="graph" transform="scale(1 1) rotate(0) translate(4 1668.8)">
<title>%3</title>
<polygon fill="white" stroke="transparent" points="-4,4 -4,-1668.8 1420.5,-1668.8 1420.5,4 -4,4"/>
<g id="clust1" class="cluster">
<title>cluster_000</title>
<polygon fill="none" stroke="black" points="1072.5,-1614.2 1072.5,-1656.8 1408.5,-1656.8 1408.5,-1614.2 1072.5,-1614.2"/>
<text text-anchor="middle" x="1240.5" y="-1641.6" font-family="Times,serif" font-size="14.00">Legend</text>
</g>
<!-- node0 -->
<g id="node1" class="node">
<title>node0</title>
<polygon fill="lightgrey" stroke="black" points="1062.5,-1642 698.5,-1642 698.5,-1606 1062.5,-1606 1062.5,-1642"/>
<text text-anchor="middle" x="880.5" y="-1620.3" font-family="Times,serif" font-size="14.00">#0 ExceptionCatch[catchType=&lt;any&gt;] Order: 0</text>
</g>
<!-- node1 -->
<g id="node2" class="node">
<title>node1</title>
<polygon fill="lightgrey" stroke="black" points="1062.5,-1569 698.5,-1569 698.5,-1533 1062.5,-1533 1062.5,-1569"/>
<text text-anchor="middle" x="880.5" y="-1547.3" font-family="Times,serif" font-size="14.00">#1 ExceptionCatch[catchType=&lt;any&gt;] Order: 1</text>
</g>
<!-- node0&#45;&gt;node1 -->
<g id="edge1" class="edge">
<title>node0&#45;&gt;node1</title>
<path fill="none" stroke="red" d="M880.5,-1605.81C880.5,-1597.79 880.5,-1588.05 880.5,-1579.07"/>
<polygon fill="red" stroke="red" points="884,-1579.03 880.5,-1569.03 877,-1579.03 884,-1579.03"/>
</g>
<!-- node2 -->
<g id="node3" class="node">
<title>node2</title>
<polygon fill="lightgrey" stroke="black" points="1274.5,-1496 486.5,-1496 486.5,-1460 1274.5,-1460 1274.5,-1496"/>
<text text-anchor="middle" x="880.5" y="-1474.3" font-family="Times,serif" font-size="14.00">#2 LocalVariable[name=this, slot=0, type=Lde/mirkosertic/metair/ir/examples/SynchronizedTest;] Order: 2</text>
</g>
<!-- node1&#45;&gt;node2 -->
<g id="edge2" class="edge">
<title>node1&#45;&gt;node2</title>
<path fill="none" stroke="red" d="M880.5,-1532.81C880.5,-1524.79 880.5,-1515.05 880.5,-1506.07"/>
<polygon fill="red" stroke="red" points="884,-1506.03 880.5,-1496.03 877,-1506.03 884,-1506.03"/>
</g>
<!-- node3 -->
<g id="node4" class="node">
<title>node3</title>
<polygon fill="lightgrey" stroke="black" points="1115.5,-1423 645.5,-1423 645.5,-1387 1115.5,-1387 1115.5,-1423"/>
<text text-anchor="middle" x="880.5" y="-1401.3" font-family="Times,serif" font-size="14.00">#3 Label[context=CodeModel[id=636782475], bci=0] Order: 3</text>
</g>
<!-- node2&#45;&gt;node3 -->
<g id="edge3" class="edge">
<title>node2&#45;&gt;node3</title>
<path fill="none" stroke="red" d="M880.5,-1459.81C880.5,-1451.79 880.5,-1442.05 880.5,-1433.07"/>
<polygon fill="red" stroke="red" points="884,-1433.03 880.5,-1423.03 877,-1433.03 884,-1433.03"/>
</g>
<!-- node4 -->
<g id="node5" class="node">
<title>node4</title>
<polygon fill="lightgrey" stroke="black" points="1012,-1350 749,-1350 749,-1314 1012,-1314 1012,-1350"/>
<text text-anchor="middle" x="880.5" y="-1328.3" font-family="Times,serif" font-size="14.00">#4 LineNumber[line=13] Order: 4</text>
</g>
<!-- node3&#45;&gt;node4 -->
<g id="edge4" class="edge">
<title>node3&#45;&gt;node4</title>
<path fill="none" stroke="red" d="M880.5,-1386.81C880.5,-1378.79 880.5,-1369.05 880.5,-1360.07"/>
<polygon fill="red" stroke="red" points="884,-1360.03 880.5,-1350.03 877,-1360.03 884,-1360.03"/>
</g>
<!-- node5 -->
<g id="node6" class="node">
<title>node5</title>
<polygon fill="lightgrey" stroke="black" points="1034.5,-1277 726.5,-1277 726.5,-1241 1034.5,-1241 1034.5,-1277"/>
<text text-anchor="middle" x="880.5" y="-1255.3" font-family="Times,serif" font-size="14.00">#5 Load[OP=ALOAD_0, slot=0] Order: 5</text>
</g>
<!-- node4&#45;&gt;node5 -->
<g id="edge5" class="edge">
<title>node4&#45;&gt;node5</title>
<path fill="none" stroke="red" d="M880.5,-1313.81C880.5,-1305.79 880.5,-1296.05 880.5,-1287.07"/>
<polygon fill="red" stroke="red" points="884,-1287.03 880.5,-1277.03 877,-1287.03 884,-1287.03"/>
</g>
<!-- node6 -->
<g id="node7" class="node">
<title>node6</title>
<polygon fill="lightgrey" stroke="black" points="1062,-1204 699,-1204 699,-1168 1062,-1168 1062,-1204"/>
<text text-anchor="middle" x="880.5" y="-1182.3" font-family="Times,serif" font-size="14.00">#6 UnboundStackInstruction[op=DUP] Order: 6</text>
</g>
<!-- node5&#45;&gt;node6 -->
<g id="edge6" class="edge">
<title>node5&#45;&gt;node6</title>
<path fill="none" stroke="red" d="M880.5,-1240.81C880.5,-1232.79 880.5,-1223.05 880.5,-1214.07"/>
<polygon fill="red" stroke="red" points="884,-1214.03 880.5,-1204.03 877,-1214.03 884,-1214.03"/>
</g>
<!-- node7 -->
<g id="node8" class="node">
<title>node7</title>
<polygon fill="lightgrey" stroke="black" points="1041.5,-1131 719.5,-1131 719.5,-1095 1041.5,-1095 1041.5,-1131"/>
<text text-anchor="middle" x="880.5" y="-1109.3" font-family="Times,serif" font-size="14.00">#7 Store[OP=ASTORE_1, slot=1] Order: 7</text>
</g>
<!-- node6&#45;&gt;node7 -->
<g id="edge7" class="edge">
<title>node6&#45;&gt;node7</title>
<path fill="none" stroke="red" d="M880.5,-1167.81C880.5,-1159.79 880.5,-1150.05 880.5,-1141.07"/>
<polygon fill="red" stroke="red" points="884,-1141.03 880.5,-1131.03 877,-1141.03 884,-1141.03"/>
</g>
<!-- node8 -->
<g id="node9" class="node">
<title>node8</title>
<polygon fill="lightgrey" stroke="black" points="1117,-1058 644,-1058 644,-1022 1117,-1022 1117,-1058"/>
<text text-anchor="middle" x="880.5" y="-1036.3" font-family="Times,serif" font-size="14.00">#8 UnboundMonitorInstruction[op=MONITORENTER] Order: 8</text>
</g>
<!-- node7&#45;&gt;node8 -->
<g id="edge8" class="edge">
<title>node7&#45;&gt;node8</title>
<path fill="none" stroke="red" d="M880.5,-1094.81C880.5,-1086.79 880.5,-1077.05 880.5,-1068.07"/>
<polygon fill="red" stroke="red" points="884,-1068.03 880.5,-1058.03 877,-1068.03 884,-1068.03"/>
</g>
<!-- node9 -->
<g id="node10" class="node">
<title>node9</title>
<polygon fill="lightgrey" stroke="black" points="1115.5,-985 645.5,-985 645.5,-949 1115.5,-949 1115.5,-985"/>
<text text-anchor="middle" x="880.5" y="-963.3" font-family="Times,serif" font-size="14.00">#9 Label[context=CodeModel[id=636782475], bci=4] Order: 9</text>
</g>
<!-- node8&#45;&gt;node9 -->
<g id="edge9" class="edge">
<title>node8&#45;&gt;node9</title>
<path fill="none" stroke="red" d="M880.5,-1021.81C880.5,-1013.79 880.5,-1004.05 880.5,-995.07"/>
<polygon fill="red" stroke="red" points="884,-995.03 880.5,-985.03 877,-995.03 884,-995.03"/>
</g>
<!-- node10 -->
<g id="node11" class="node">
<title>node10</title>
<polygon fill="lightgrey" stroke="black" points="818,-912 537,-912 537,-876 818,-876 818,-912"/>
<text text-anchor="middle" x="677.5" y="-890.3" font-family="Times,serif" font-size="14.00">#10 LineNumber[line=14] Order: 10</text>
</g>
<!-- node9&#45;&gt;node10 -->
<g id="edge10" class="edge">
<title>node9&#45;&gt;node10</title>
<path fill="none" stroke="red" d="M831.88,-948.99C803.09,-938.92 766.42,-926.1 736.05,-915.48"/>
<polygon fill="red" stroke="red" points="737.03,-912.11 726.43,-912.11 734.71,-918.72 737.03,-912.11"/>
</g>
<!-- node20 -->
<g id="node21" class="node">
<title>node20</title>
<polygon fill="lightgrey" stroke="black" points="1334,-912 837,-912 837,-876 1334,-876 1334,-912"/>
<text text-anchor="middle" x="1085.5" y="-890.3" font-family="Times,serif" font-size="14.00">#20 Label[context=CodeModel[id=636782475], bci=16] Order: 23</text>
</g>
<!-- node9&#45;&gt;node20 -->
<g id="edge20" class="edge">
<title>node9&#45;&gt;node20</title>
<path fill="none" stroke="red" d="M929.6,-948.99C958.68,-938.92 995.7,-926.1 1026.37,-915.48"/>
<polygon fill="red" stroke="red" points="1027.78,-918.69 1036.09,-912.11 1025.49,-912.08 1027.78,-918.69"/>
</g>
<!-- node11 -->
<g id="node12" class="node">
<title>node11</title>
<polygon fill="lightgrey" stroke="black" points="642.5,-839 316.5,-839 316.5,-803 642.5,-803 642.5,-839"/>
<text text-anchor="middle" x="479.5" y="-817.3" font-family="Times,serif" font-size="14.00">#11 Load[OP=ALOAD_0, slot=0] Order: 11</text>
</g>
<!-- node10&#45;&gt;node11 -->
<g id="edge11" class="edge">
<title>node10&#45;&gt;node11</title>
<path fill="none" stroke="red" d="M630.07,-875.99C602.12,-865.97 566.54,-853.21 537,-842.62"/>
<polygon fill="red" stroke="red" points="537.82,-839.19 527.23,-839.11 535.46,-845.78 537.82,-839.19"/>
</g>
<!-- node12 -->
<g id="node13" class="node">
<title>node12</title>
<polygon fill="lightgrey" stroke="black" points="640.5,-766 218.5,-766 218.5,-730 640.5,-730 640.5,-766"/>
<text text-anchor="middle" x="429.5" y="-744.3" font-family="Times,serif" font-size="14.00">#12 ArgumentConstant[OP=BIPUSH, val=10] Order: 12</text>
</g>
<!-- node11&#45;&gt;node12 -->
<g id="edge12" class="edge">
<title>node11&#45;&gt;node12</title>
<path fill="none" stroke="red" d="M467.4,-802.81C461.38,-794.27 453.99,-783.77 447.33,-774.32"/>
<polygon fill="red" stroke="red" points="450.11,-772.19 441.49,-766.03 444.39,-776.22 450.11,-772.19"/>
</g>
<!-- node13 -->
<g id="node14" class="node">
<title>node13</title>
<polygon fill="lightgrey" stroke="black" points="835,-693 0,-693 0,-657 835,-657 835,-693"/>
<text text-anchor="middle" x="417.5" y="-671.3" font-family="Times,serif" font-size="14.00">#13 Invoke[OP=INVOKEVIRTUAL, m=de/mirkosertic/metair/ir/examples/SynchronizedTest.compute(I)I] Order: 13</text>
</g>
<!-- node12&#45;&gt;node13 -->
<g id="edge13" class="edge">
<title>node12&#45;&gt;node13</title>
<path fill="none" stroke="red" d="M426.6,-729.81C425.24,-721.79 423.59,-712.05 422.08,-703.07"/>
<polygon fill="red" stroke="red" points="425.5,-702.31 420.38,-693.03 418.59,-703.47 425.5,-702.31"/>
</g>
<!-- node14 -->
<g id="node15" class="node">
<title>node14</title>
<polygon fill="lightgrey" stroke="black" points="585,-620 250,-620 250,-584 585,-584 585,-620"/>
<text text-anchor="middle" x="417.5" y="-598.3" font-family="Times,serif" font-size="14.00">#14 Store[OP=ISTORE_2, slot=2] Order: 14</text>
</g>
<!-- node13&#45;&gt;node14 -->
<g id="edge14" class="edge">
<title>node13&#45;&gt;node14</title>
<path fill="none" stroke="red" d="M417.5,-656.81C417.5,-648.79 417.5,-639.05 417.5,-630.07"/>
<polygon fill="red" stroke="red" points="421,-630.03 417.5,-620.03 414,-630.03 421,-630.03"/>
</g>
<!-- node15 -->
<g id="node16" class="node">
<title>node15</title>
<polygon fill="lightgrey" stroke="black" points="558,-547 277,-547 277,-511 558,-511 558,-547"/>
<text text-anchor="middle" x="417.5" y="-525.3" font-family="Times,serif" font-size="14.00">#15 LineNumber[line=15] Order: 15</text>
</g>
<!-- node14&#45;&gt;node15 -->
<g id="edge15" class="edge">
<title>node14&#45;&gt;node15</title>
<path fill="none" stroke="red" d="M417.5,-583.81C417.5,-575.79 417.5,-566.05 417.5,-557.07"/>
<polygon fill="red" stroke="red" points="421,-557.03 417.5,-547.03 414,-557.03 421,-557.03"/>
</g>
<!-- node16 -->
<g id="node17" class="node">
<title>node16</title>
<polygon fill="lightgrey" stroke="black" points="580.5,-474 254.5,-474 254.5,-438 580.5,-438 580.5,-474"/>
<text text-anchor="middle" x="417.5" y="-452.3" font-family="Times,serif" font-size="14.00">#16 Load[OP=ALOAD_1, slot=1] Order: 16</text>
</g>
<!-- node15&#45;&gt;node16 -->
<g id="edge16" class="edge">
<title>node15&#45;&gt;node16</title>
<path fill="none" stroke="red" d="M417.5,-510.81C417.5,-502.79 417.5,-493.05 417.5,-484.07"/>
<polygon fill="red" stroke="red" points="421,-484.03 417.5,-474.03 414,-484.03 421,-484.03"/>
</g>
<!-- node17 -->
<g id="node18" class="node">
<title>node17</title>
<polygon fill="lightgrey" stroke="black" points="654,-401 181,-401 181,-365 654,-365 654,-401"/>
<text text-anchor="middle" x="417.5" y="-379.3" font-family="Times,serif" font-size="14.00">#17 UnboundMonitorInstruction[op=MONITOREXIT] Order: 17</text>
</g>
<!-- node16&#45;&gt;node17 -->
<g id="edge17" class="edge">
<title>node16&#45;&gt;node17</title>
<path fill="none" stroke="red" d="M417.5,-437.81C417.5,-429.79 417.5,-420.05 417.5,-411.07"/>
<polygon fill="red" stroke="red" points="421,-411.03 417.5,-401.03 414,-411.03 421,-411.03"/>
</g>
<!-- node18 -->
<g id="node19" class="node">
<title>node18</title>
<polygon fill="lightgrey" stroke="black" points="666,-328 169,-328 169,-292 666,-292 666,-328"/>
<text text-anchor="middle" x="417.5" y="-306.3" font-family="Times,serif" font-size="14.00">#18 Label[context=CodeModel[id=636782475], bci=13] Order: 18</text>
</g>
<!-- node17&#45;&gt;node18 -->
<g id="edge18" class="edge">
<title>node17&#45;&gt;node18</title>
<path fill="none" stroke="red" d="M417.5,-364.81C417.5,-356.79 417.5,-347.05 417.5,-338.07"/>
<polygon fill="red" stroke="red" points="421,-338.03 417.5,-328.03 414,-338.03 421,-338.03"/>
</g>
<!-- node19 -->
<g id="node20" class="node">
<title>node19</title>
<polygon fill="lightgrey" stroke="black" points="548.5,-255 286.5,-255 286.5,-219 548.5,-219 548.5,-255"/>
<text text-anchor="middle" x="417.5" y="-233.3" font-family="Times,serif" font-size="14.00">#19 Branch[OP=GOTO] Order: 19</text>
</g>
<!-- node18&#45;&gt;node19 -->
<g id="edge19" class="edge">
<title>node18&#45;&gt;node19</title>
<path fill="none" stroke="red" d="M417.5,-291.81C417.5,-283.79 417.5,-274.05 417.5,-265.07"/>
<polygon fill="red" stroke="red" points="421,-265.03 417.5,-255.03 414,-265.03 421,-265.03"/>
</g>
<!-- node27 -->
<g id="node28" class="node">
<title>node27</title>
<polygon fill="lightgrey" stroke="black" points="666,-182 169,-182 169,-146 666,-146 666,-182"/>
<text text-anchor="middle" x="417.5" y="-160.3" font-family="Times,serif" font-size="14.00">#27 Label[context=CodeModel[id=636782475], bci=21] Order: 20</text>
</g>
<!-- node19&#45;&gt;node27 -->
<g id="edge27" class="edge">
<title>node19&#45;&gt;node27</title>
<path fill="none" stroke="red" d="M417.5,-218.81C417.5,-210.79 417.5,-201.05 417.5,-192.07"/>
<polygon fill="red" stroke="red" points="421,-192.03 417.5,-182.03 414,-192.03 421,-192.03"/>
</g>
<!-- node21 -->
<g id="node22" class="node">
<title>node21</title>
<polygon fill="lightgrey" stroke="black" points="1256.5,-839 916.5,-839 916.5,-803 1256.5,-803 1256.5,-839"/>
<text text-anchor="middle" x="1086.5" y="-817.3" font-family="Times,serif" font-size="14.00">#21 Store[OP=ASTORE_3, slot=3] Order: 24</text>
</g>
<!-- node20&#45;&gt;node21 -->
<g id="edge21" class="edge">
<title>node20&#45;&gt;node21</title>
<path fill="none" stroke="red" d="M1085.74,-875.81C1085.86,-867.79 1085.99,-858.05 1086.12,-849.07"/>
<polygon fill="red" stroke="red" points="1089.62,-849.08 1086.26,-839.03 1082.62,-848.98 1089.62,-849.08"/>
</g>
<!-- node22 -->
<g id="node23" class="node">
<title>node22</title>
<polygon fill="lightgrey" stroke="black" points="1251.5,-766 925.5,-766 925.5,-730 1251.5,-730 1251.5,-766"/>
<text text-anchor="middle" x="1088.5" y="-744.3" font-family="Times,serif" font-size="14.00">#22 Load[OP=ALOAD_1, slot=1] Order: 25</text>
</g>
<!-- node21&#45;&gt;node22 -->
<g id="edge22" class="edge">
<title>node21&#45;&gt;node22</title>
<path fill="none" stroke="red" d="M1086.98,-802.81C1087.21,-794.79 1087.48,-785.05 1087.74,-776.07"/>
<polygon fill="red" stroke="red" points="1091.24,-776.12 1088.02,-766.03 1084.24,-775.93 1091.24,-776.12"/>
</g>
<!-- node23 -->
<g id="node24" class="node">
<title>node23</title>
<polygon fill="lightgrey" stroke="black" points="1326,-693 853,-693 853,-657 1326,-657 1326,-693"/>
<text text-anchor="middle" x="1089.5" y="-671.3" font-family="Times,serif" font-size="14.00">#23 UnboundMonitorInstruction[op=MONITOREXIT] Order: 26</text>
</g>
<!-- node22&#45;&gt;node23 -->
<g id="edge23" class="edge">
<title>node22&#45;&gt;node23</title>
<path fill="none" stroke="red" d="M1088.74,-729.81C1088.86,-721.79 1088.99,-712.05 1089.12,-703.07"/>
<polygon fill="red" stroke="red" points="1092.62,-703.08 1089.26,-693.03 1085.62,-702.98 1092.62,-703.08"/>
</g>
<!-- node24 -->
<g id="node25" class="node">
<title>node24</title>
<polygon fill="lightgrey" stroke="black" points="1338,-620 841,-620 841,-584 1338,-584 1338,-620"/>
<text text-anchor="middle" x="1089.5" y="-598.3" font-family="Times,serif" font-size="14.00">#24 Label[context=CodeModel[id=636782475], bci=19] Order: 27</text>
</g>
<!-- node23&#45;&gt;node24 -->
<g id="edge24" class="edge">
<title>node23&#45;&gt;node24</title>
<path fill="none" stroke="red" d="M1089.5,-656.81C1089.5,-648.79 1089.5,-639.05 1089.5,-630.07"/>
<polygon fill="red" stroke="red" points="1093,-630.03 1089.5,-620.03 1086,-630.03 1093,-630.03"/>
</g>
<!-- node25 -->
<g id="node26" class="node">
<title>node25</title>
<polygon fill="lightgrey" stroke="black" points="1252.5,-547 926.5,-547 926.5,-511 1252.5,-511 1252.5,-547"/>
<text text-anchor="middle" x="1089.5" y="-525.3" font-family="Times,serif" font-size="14.00">#25 Load[OP=ALOAD_3, slot=3] Order: 28</text>
</g>
<!-- node24&#45;&gt;node25 -->
<g id="edge25" class="edge">
<title>node24&#45;&gt;node25</title>
<path fill="none" stroke="red" d="M1089.5,-583.81C1089.5,-575.79 1089.5,-566.05 1089.5,-557.07"/>
<polygon fill="red" stroke="red" points="1093,-557.03 1089.5,-547.03 1086,-557.03 1093,-557.03"/>
</g>
<!-- node26 -->
<g id="node27" class="node">
<title>node26</title>
<polygon fill="lightgrey" stroke="black" points="1229,-474 950,-474 950,-438 1229,-438 1229,-474"/>
<text text-anchor="middle" x="1089.5" y="-452.3" font-family="Times,serif" font-size="14.00">#26 Throw[OP=ATHROW] Order: 29</text>
</g>
<!-- node25&#45;&gt;node26 -->
<g id="edge26" class="edge">
<title>node25&#45;&gt;node26</title>
<path fill="none" stroke="red" d="M1089.5,-510.81C1089.5,-502.79 1089.5,-493.05 1089.5,-484.07"/>
<polygon fill="red" stroke="red" points="1093,-484.03 1089.5,-474.03 1086,-484.03 1093,-484.03"/>
</g>
<!-- node28 -->
<g id="node29" class="node">
<title>node28</title>
<polygon fill="lightgrey" stroke="black" points="558,-109 277,-109 277,-73 558,-73 558,-109"/>
<text text-anchor="middle" x="417.5" y="-87.3" font-family="Times,serif" font-size="14.00">#28 LineNumber[line=16] Order: 21</text>
</g>
<!-- node27&#45;&gt;node28 -->
<g id="edge28" class="edge">
<title>node27&#45;&gt;node28</title>
<path fill="none" stroke="red" d="M417.5,-145.81C417.5,-137.79 417.5,-128.05 417.5,-119.07"/>
<polygon fill="red" stroke="red" points="421,-119.03 417.5,-109.03 414,-119.03 421,-119.03"/>
</g>
<!-- node29 -->
<g id="node30" class="node">
<title>node29</title>
<polygon fill="lightgrey" stroke="black" points="558.5,-36 276.5,-36 276.5,0 558.5,0 558.5,-36"/>
<text text-anchor="middle" x="417.5" y="-14.3" font-family="Times,serif" font-size="14.00">#29 Return[OP=RETURN] Order: 22</text>
</g>
<!-- node28&#45;&gt;node29 -->
<g id="edge29" class="edge">
<title>node28&#45;&gt;node29</title>
<path fill="none" stroke="red" d="M417.5,-72.81C417.5,-64.79 417.5,-55.05 417.5,-46.07"/>
<polygon fill="red" stroke="red" points="421,-46.03 417.5,-36.03 414,-46.03 421,-46.03"/>
</g>
<!-- c0 -->
<!-- c1 -->
<!-- c0&#45;&gt;c1 -->
<g id="edge30" class="edge">
<title>c0&#45;&gt;c1</title>
<path fill="none" stroke="red" d="M1291.39,-1624C1302.61,-1624 1360.74,-1624 1386.36,-1624"/>
<polygon fill="red" stroke="red" points="1386.56,-1627.5 1396.56,-1624 1386.56,-1620.5 1386.56,-1627.5"/>
<text text-anchor="middle" x="1344" y="-1630.8" font-family="Times,serif" font-size="14.00">Control flow</text>
</g>
<!-- c2 -->
<!-- c3 -->
<!-- c2&#45;&gt;c3 -->
<g id="edge31" class="edge">
<title>c2&#45;&gt;c3</title>
<path fill="none" stroke="red" stroke-dasharray="5,2" d="M1084.58,-1624C1101.55,-1624 1217.71,-1624 1255.58,-1624"/>
<polygon fill="red" stroke="red" points="1255.67,-1627.5 1265.67,-1624 1255.67,-1620.5 1255.67,-1627.5"/>
<text text-anchor="middle" x="1175" y="-1630.8" font-family="Times,serif" font-size="14.00">Control flow back edge</text>
</g>
</g>
</svg>
