<?xml version="1.0" encoding="UTF-8" standalone="no"?>
<!DOCTYPE svg PUBLIC "-//W3C//DTD SVG 1.1//EN"
 "http://www.w3.org/Graphics/SVG/1.1/DTD/svg11.dtd">
<!-- Generated by graphviz version 2.43.0 (0)
 -->
<!-- Title: %3 Pages: 1 -->
<svg width="3536pt" height="1673pt"
 viewBox="0.00 0.00 3535.50 1672.80" xmlns="http://www.w3.org/2000/svg" xmlns:xlink="http://www.w3.org/1999/xlink">
<g id="graph0" class="graph" transform="scale(1 1) rotate(0) translate(4 1668.8)">
<title>%3</title>
<polygon fill="white" stroke="transparent" points="-4,4 -4,-1668.8 3531.5,-1668.8 3531.5,4 -4,4"/>
<g id="clust1" class="cluster">
<title>cluster_000</title>
<polygon fill="none" stroke="black" points="3183.5,-1614.2 3183.5,-1656.8 3519.5,-1656.8 3519.5,-1614.2 3183.5,-1614.2"/>
<text text-anchor="middle" x="3351.5" y="-1641.6" font-family="Times,serif" font-size="14.00">Legend</text>
</g>
<!-- node0 -->
<g id="node1" class="node">
<title>node0</title>
<polygon fill="lightgrey" stroke="black" points="599.5,-1642 235.5,-1642 235.5,-1606 599.5,-1606 599.5,-1642"/>
<text text-anchor="middle" x="417.5" y="-1620.3" font-family="Times,serif" font-size="14.00">#0 ExceptionCatch[catchType=&lt;any&gt;] Order: 0</text>
</g>
<!-- node1 -->
<g id="node2" class="node">
<title>node1</title>
<polygon fill="lightgrey" stroke="black" points="599.5,-1569 235.5,-1569 235.5,-1533 599.5,-1533 599.5,-1569"/>
<text text-anchor="middle" x="417.5" y="-1547.3" font-family="Times,serif" font-size="14.00">#1 ExceptionCatch[catchType=&lt;any&gt;] Order: 1</text>
</g>
<!-- node0&#45;&gt;node1 -->
<g id="edge1" class="edge">
<title>node0&#45;&gt;node1</title>
<path fill="none" stroke="red" d="M417.5,-1605.81C417.5,-1597.79 417.5,-1588.05 417.5,-1579.07"/>
<polygon fill="red" stroke="red" points="421,-1579.03 417.5,-1569.03 414,-1579.03 421,-1579.03"/>
</g>
<!-- node2 -->
<g id="node3" class="node">
<title>node2</title>
<polygon fill="lightgrey" stroke="black" points="811.5,-1496 23.5,-1496 23.5,-1460 811.5,-1460 811.5,-1496"/>
<text text-anchor="middle" x="417.5" y="-1474.3" font-family="Times,serif" font-size="14.00">#2 LocalVariable[name=this, slot=0, type=Lde/mirkosertic/metair/ir/examples/SynchronizedTest;] Order: 2</text>
</g>
<!-- node1&#45;&gt;node2 -->
<g id="edge2" class="edge">
<title>node1&#45;&gt;node2</title>
<path fill="none" stroke="red" d="M417.5,-1532.81C417.5,-1524.79 417.5,-1515.05 417.5,-1506.07"/>
<polygon fill="red" stroke="red" points="421,-1506.03 417.5,-1496.03 414,-1506.03 421,-1506.03"/>
</g>
<!-- node3 -->
<g id="node4" class="node">
<title>node3</title>
<polygon fill="lightgrey" stroke="black" points="657,-1423 178,-1423 178,-1387 657,-1387 657,-1423"/>
<text text-anchor="middle" x="417.5" y="-1401.3" font-family="Times,serif" font-size="14.00">#3 Label[context=CodeModel[id=1574749319], bci=0] Order: 3</text>
</g>
<!-- node2&#45;&gt;node3 -->
<g id="edge3" class="edge">
<title>node2&#45;&gt;node3</title>
<path fill="none" stroke="red" d="M417.5,-1459.81C417.5,-1451.79 417.5,-1442.05 417.5,-1433.07"/>
<polygon fill="red" stroke="red" points="421,-1433.03 417.5,-1423.03 414,-1433.03 421,-1433.03"/>
</g>
<!-- node4 -->
<g id="node5" class="node">
<title>node4</title>
<polygon fill="lightgrey" stroke="black" points="549,-1350 286,-1350 286,-1314 549,-1314 549,-1350"/>
<text text-anchor="middle" x="417.5" y="-1328.3" font-family="Times,serif" font-size="14.00">#4 LineNumber[line=13] Order: 4</text>
</g>
<!-- node3&#45;&gt;node4 -->
<g id="edge4" class="edge">
<title>node3&#45;&gt;node4</title>
<path fill="none" stroke="red" d="M417.5,-1386.81C417.5,-1378.79 417.5,-1369.05 417.5,-1360.07"/>
<polygon fill="red" stroke="red" points="421,-1360.03 417.5,-1350.03 414,-1360.03 421,-1360.03"/>
</g>
<!-- node5 -->
<g id="node6" class="node">
<title>node5</title>
<polygon fill="lightgrey" stroke="black" points="571.5,-1277 263.5,-1277 263.5,-1241 571.5,-1241 571.5,-1277"/>
<text text-anchor="middle" x="417.5" y="-1255.3" font-family="Times,serif" font-size="14.00">#5 Load[OP=ALOAD_0, slot=0] Order: 5</text>
</g>
<!-- node4&#45;&gt;node5 -->
<g id="edge5" class="edge">
<title>node4&#45;&gt;node5</title>
<path fill="none" stroke="red" d="M417.5,-1313.81C417.5,-1305.79 417.5,-1296.05 417.5,-1287.07"/>
<polygon fill="red" stroke="red" points="421,-1287.03 417.5,-1277.03 414,-1287.03 421,-1287.03"/>
</g>
<!-- node6 -->
<g id="node7" class="node">
<title>node6</title>
<polygon fill="lightgrey" stroke="black" points="599,-1204 236,-1204 236,-1168 599,-1168 599,-1204"/>
<text text-anchor="middle" x="417.5" y="-1182.3" font-family="Times,serif" font-size="14.00">#6 UnboundStackInstruction[op=DUP] Order: 6</text>
</g>
<!-- node5&#45;&gt;node6 -->
<g id="edge6" class="edge">
<title>node5&#45;&gt;node6</title>
<path fill="none" stroke="red" d="M417.5,-1240.81C417.5,-1232.79 417.5,-1223.05 417.5,-1214.07"/>
<polygon fill="red" stroke="red" points="421,-1214.03 417.5,-1204.03 414,-1214.03 421,-1214.03"/>
</g>
<!-- node7 -->
<g id="node8" class="node">
<title>node7</title>
<polygon fill="lightgrey" stroke="black" points="578.5,-1131 256.5,-1131 256.5,-1095 578.5,-1095 578.5,-1131"/>
<text text-anchor="middle" x="417.5" y="-1109.3" font-family="Times,serif" font-size="14.00">#7 Store[OP=ASTORE_1, slot=1] Order: 7</text>
</g>
<!-- node6&#45;&gt;node7 -->
<g id="edge7" class="edge">
<title>node6&#45;&gt;node7</title>
<path fill="none" stroke="red" d="M417.5,-1167.81C417.5,-1159.79 417.5,-1150.05 417.5,-1141.07"/>
<polygon fill="red" stroke="red" points="421,-1141.03 417.5,-1131.03 414,-1141.03 421,-1141.03"/>
</g>
<!-- node8 -->
<g id="node9" class="node">
<title>node8</title>
<polygon fill="lightgrey" stroke="black" points="654,-1058 181,-1058 181,-1022 654,-1022 654,-1058"/>
<text text-anchor="middle" x="417.5" y="-1036.3" font-family="Times,serif" font-size="14.00">#8 UnboundMonitorInstruction[op=MONITORENTER] Order: 8</text>
</g>
<!-- node7&#45;&gt;node8 -->
<g id="edge8" class="edge">
<title>node7&#45;&gt;node8</title>
<path fill="none" stroke="red" d="M417.5,-1094.81C417.5,-1086.79 417.5,-1077.05 417.5,-1068.07"/>
<polygon fill="red" stroke="red" points="421,-1068.03 417.5,-1058.03 414,-1068.03 421,-1068.03"/>
</g>
<!-- node9 -->
<g id="node10" class="node">
<title>node9</title>
<polygon fill="lightgrey" stroke="black" points="657,-985 178,-985 178,-949 657,-949 657,-985"/>
<text text-anchor="middle" x="417.5" y="-963.3" font-family="Times,serif" font-size="14.00">#9 Label[context=CodeModel[id=1574749319], bci=4] Order: 9</text>
</g>
<!-- node8&#45;&gt;node9 -->
<g id="edge9" class="edge">
<title>node8&#45;&gt;node9</title>
<path fill="none" stroke="red" d="M417.5,-1021.81C417.5,-1013.79 417.5,-1004.05 417.5,-995.07"/>
<polygon fill="red" stroke="red" points="421,-995.03 417.5,-985.03 414,-995.03 421,-995.03"/>
</g>
<!-- node10 -->
<g id="node11" class="node">
<title>node10</title>
<polygon fill="lightgrey" stroke="black" points="558,-912 277,-912 277,-876 558,-876 558,-912"/>
<text text-anchor="middle" x="417.5" y="-890.3" font-family="Times,serif" font-size="14.00">#10 LineNumber[line=14] Order: 10</text>
</g>
<!-- node9&#45;&gt;node10 -->
<g id="edge10" class="edge">
<title>node9&#45;&gt;node10</title>
<path fill="none" stroke="red" d="M417.5,-948.81C417.5,-940.79 417.5,-931.05 417.5,-922.07"/>
<polygon fill="red" stroke="red" points="421,-922.03 417.5,-912.03 414,-922.03 421,-922.03"/>
</g>
<!-- node11 -->
<g id="node12" class="node">
<title>node11</title>
<polygon fill="lightgrey" stroke="black" points="580.5,-839 254.5,-839 254.5,-803 580.5,-803 580.5,-839"/>
<text text-anchor="middle" x="417.5" y="-817.3" font-family="Times,serif" font-size="14.00">#11 Load[OP=ALOAD_0, slot=0] Order: 11</text>
</g>
<!-- node10&#45;&gt;node11 -->
<g id="edge11" class="edge">
<title>node10&#45;&gt;node11</title>
<path fill="none" stroke="red" d="M417.5,-875.81C417.5,-867.79 417.5,-858.05 417.5,-849.07"/>
<polygon fill="red" stroke="red" points="421,-849.03 417.5,-839.03 414,-849.03 421,-849.03"/>
</g>
<!-- node12 -->
<g id="node13" class="node">
<title>node12</title>
<polygon fill="lightgrey" stroke="black" points="628.5,-766 206.5,-766 206.5,-730 628.5,-730 628.5,-766"/>
<text text-anchor="middle" x="417.5" y="-744.3" font-family="Times,serif" font-size="14.00">#12 ArgumentConstant[OP=BIPUSH, val=10] Order: 12</text>
</g>
<!-- node11&#45;&gt;node12 -->
<g id="edge12" class="edge">
<title>node11&#45;&gt;node12</title>
<path fill="none" stroke="red" d="M417.5,-802.81C417.5,-794.79 417.5,-785.05 417.5,-776.07"/>
<polygon fill="red" stroke="red" points="421,-776.03 417.5,-766.03 414,-776.03 421,-776.03"/>
</g>
<!-- node13 -->
<g id="node14" class="node">
<title>node13</title>
<polygon fill="lightgrey" stroke="black" points="835,-693 0,-693 0,-657 835,-657 835,-693"/>
<text text-anchor="middle" x="417.5" y="-671.3" font-family="Times,serif" font-size="14.00">#13 Invoke[OP=INVOKEVIRTUAL, m=de/mirkosertic/metair/ir/examples/SynchronizedTest.compute(I)I] Order: 13</text>
</g>
<!-- node12&#45;&gt;node13 -->
<g id="edge13" class="edge">
<title>node12&#45;&gt;node13</title>
<path fill="none" stroke="red" d="M417.5,-729.81C417.5,-721.79 417.5,-712.05 417.5,-703.07"/>
<polygon fill="red" stroke="red" points="421,-703.03 417.5,-693.03 414,-703.03 421,-703.03"/>
</g>
<!-- node14 -->
<g id="node15" class="node">
<title>node14</title>
<polygon fill="lightgrey" stroke="black" points="585,-620 250,-620 250,-584 585,-584 585,-620"/>
<text text-anchor="middle" x="417.5" y="-598.3" font-family="Times,serif" font-size="14.00">#14 Store[OP=ISTORE_2, slot=2] Order: 14</text>
</g>
<!-- node13&#45;&gt;node14 -->
<g id="edge14" class="edge">
<title>node13&#45;&gt;node14</title>
<path fill="none" stroke="red" d="M417.5,-656.81C417.5,-648.79 417.5,-639.05 417.5,-630.07"/>
<polygon fill="red" stroke="red" points="421,-630.03 417.5,-620.03 414,-630.03 421,-630.03"/>
</g>
<!-- node15 -->
<g id="node16" class="node">
<title>node15</title>
<polygon fill="lightgrey" stroke="black" points="558,-547 277,-547 277,-511 558,-511 558,-547"/>
<text text-anchor="middle" x="417.5" y="-525.3" font-family="Times,serif" font-size="14.00">#15 LineNumber[line=15] Order: 15</text>
</g>
<!-- node14&#45;&gt;node15 -->
<g id="edge15" class="edge">
<title>node14&#45;&gt;node15</title>
<path fill="none" stroke="red" d="M417.5,-583.81C417.5,-575.79 417.5,-566.05 417.5,-557.07"/>
<polygon fill="red" stroke="red" points="421,-557.03 417.5,-547.03 414,-557.03 421,-557.03"/>
</g>
<!-- node16 -->
<g id="node17" class="node">
<title>node16</title>
<polygon fill="lightgrey" stroke="black" points="580.5,-474 254.5,-474 254.5,-438 580.5,-438 580.5,-474"/>
<text text-anchor="middle" x="417.5" y="-452.3" font-family="Times,serif" font-size="14.00">#16 Load[OP=ALOAD_1, slot=1] Order: 16</text>
</g>
<!-- node15&#45;&gt;node16 -->
<g id="edge16" class="edge">
<title>node15&#45;&gt;node16</title>
<path fill="none" stroke="red" d="M417.5,-510.81C417.5,-502.79 417.5,-493.05 417.5,-484.07"/>
<polygon fill="red" stroke="red" points="421,-484.03 417.5,-474.03 414,-484.03 421,-484.03"/>
</g>
<!-- node17 -->
<g id="node18" class="node">
<title>node17</title>
<polygon fill="lightgrey" stroke="black" points="654,-401 181,-401 181,-365 654,-365 654,-401"/>
<text text-anchor="middle" x="417.5" y="-379.3" font-family="Times,serif" font-size="14.00">#17 UnboundMonitorInstruction[op=MONITOREXIT] Order: 17</text>
</g>
<!-- node16&#45;&gt;node17 -->
<g id="edge17" class="edge">
<title>node16&#45;&gt;node17</title>
<path fill="none" stroke="red" d="M417.5,-437.81C417.5,-429.79 417.5,-420.05 417.5,-411.07"/>
<polygon fill="red" stroke="red" points="421,-411.03 417.5,-401.03 414,-411.03 421,-411.03"/>
</g>
<!-- node18 -->
<g id="node19" class="node">
<title>node18</title>
<polygon fill="lightgrey" stroke="black" points="670.5,-328 164.5,-328 164.5,-292 670.5,-292 670.5,-328"/>
<text text-anchor="middle" x="417.5" y="-306.3" font-family="Times,serif" font-size="14.00">#18 Label[context=CodeModel[id=1574749319], bci=13] Order: 18</text>
</g>
<!-- node17&#45;&gt;node18 -->
<g id="edge18" class="edge">
<title>node17&#45;&gt;node18</title>
<path fill="none" stroke="red" d="M417.5,-364.81C417.5,-356.79 417.5,-347.05 417.5,-338.07"/>
<polygon fill="red" stroke="red" points="421,-338.03 417.5,-328.03 414,-338.03 421,-338.03"/>
</g>
<!-- node19 -->
<g id="node20" class="node">
<title>node19</title>
<polygon fill="lightgrey" stroke="black" points="548.5,-255 286.5,-255 286.5,-219 548.5,-219 548.5,-255"/>
<text text-anchor="middle" x="417.5" y="-233.3" font-family="Times,serif" font-size="14.00">#19 Branch[OP=GOTO] Order: 19</text>
</g>
<!-- node18&#45;&gt;node19 -->
<g id="edge19" class="edge">
<title>node18&#45;&gt;node19</title>
<path fill="none" stroke="red" d="M417.5,-291.81C417.5,-283.79 417.5,-274.05 417.5,-265.07"/>
<polygon fill="red" stroke="red" points="421,-265.03 417.5,-255.03 414,-265.03 421,-265.03"/>
</g>
<!-- node27 -->
<g id="node28" class="node">
<title>node27</title>
<polygon fill="lightgrey" stroke="black" points="633.5,-182 201.5,-182 201.5,-146 633.5,-146 633.5,-182"/>
<text text-anchor="middle" x="417.5" y="-160.3" font-family="Times,serif" font-size="14.00">#27 Label[context=CodeModel[id=1574749319], bci=21]</text>
</g>
<!-- node19&#45;&gt;node27 -->
<g id="edge20" class="edge">
<title>node19&#45;&gt;node27</title>
<path fill="none" stroke="red" d="M417.5,-218.81C417.5,-210.79 417.5,-201.05 417.5,-192.07"/>
<polygon fill="red" stroke="red" points="421,-192.03 417.5,-182.03 414,-192.03 421,-192.03"/>
</g>
<!-- node20 -->
<g id="node21" class="node">
<title>node20</title>
<polygon fill="lightgrey" stroke="black" points="1119,-1642 618,-1642 618,-1606 1119,-1606 1119,-1642"/>
<text text-anchor="middle" x="868.5" y="-1620.3" font-family="Times,serif" font-size="14.00">#20 Label[context=CodeModel[id=1574749319], bci=16] Order: &#45;1</text>
</g>
<!-- node21 -->
<g id="node22" class="node">
<title>node21</title>
<polygon fill="lightgrey" stroke="black" points="1472,-1642 1137,-1642 1137,-1606 1472,-1606 1472,-1642"/>
<text text-anchor="middle" x="1304.5" y="-1620.3" font-family="Times,serif" font-size="14.00">#21 Store[OP=ASTORE_3, slot=3] Order: &#45;1</text>
</g>
<!-- node22 -->
<g id="node23" class="node">
<title>node22</title>
<polygon fill="lightgrey" stroke="black" points="1811,-1642 1490,-1642 1490,-1606 1811,-1606 1811,-1642"/>
<text text-anchor="middle" x="1650.5" y="-1620.3" font-family="Times,serif" font-size="14.00">#22 Load[OP=ALOAD_1, slot=1] Order: &#45;1</text>
</g>
<!-- node23 -->
<g id="node24" class="node">
<title>node23</title>
<polygon fill="lightgrey" stroke="black" points="2229.5,-1642 1829.5,-1642 1829.5,-1606 2229.5,-1606 2229.5,-1642"/>
<text text-anchor="middle" x="2029.5" y="-1620.3" font-family="Times,serif" font-size="14.00">#23 UnboundMonitorInstruction[op=MONITOREXIT]</text>
</g>
<!-- node24 -->
<g id="node25" class="node">
<title>node24</title>
<polygon fill="lightgrey" stroke="black" points="2679.5,-1642 2247.5,-1642 2247.5,-1606 2679.5,-1606 2679.5,-1642"/>
<text text-anchor="middle" x="2463.5" y="-1620.3" font-family="Times,serif" font-size="14.00">#24 Label[context=CodeModel[id=1574749319], bci=19]</text>
</g>
<!-- node25 -->
<g id="node26" class="node">
<title>node25</title>
<polygon fill="lightgrey" stroke="black" points="2949.5,-1642 2697.5,-1642 2697.5,-1606 2949.5,-1606 2949.5,-1642"/>
<text text-anchor="middle" x="2823.5" y="-1620.3" font-family="Times,serif" font-size="14.00">#25 Load[OP=ALOAD_3, slot=3]</text>
</g>
<!-- node26 -->
<g id="node27" class="node">
<title>node26</title>
<polygon fill="lightgrey" stroke="black" points="3173.5,-1642 2967.5,-1642 2967.5,-1606 3173.5,-1606 3173.5,-1642"/>
<text text-anchor="middle" x="3070.5" y="-1620.3" font-family="Times,serif" font-size="14.00">#26 Throw[OP=ATHROW]</text>
</g>
<!-- node28 -->
<g id="node29" class="node">
<title>node28</title>
<polygon fill="lightgrey" stroke="black" points="521,-109 314,-109 314,-73 521,-73 521,-109"/>
<text text-anchor="middle" x="417.5" y="-87.3" font-family="Times,serif" font-size="14.00">#28 LineNumber[line=16]</text>
</g>
<!-- node27&#45;&gt;node28 -->
<g id="edge21" class="edge">
<title>node27&#45;&gt;node28</title>
<path fill="none" stroke="red" d="M417.5,-145.81C417.5,-137.79 417.5,-128.05 417.5,-119.07"/>
<polygon fill="red" stroke="red" points="421,-119.03 417.5,-109.03 414,-119.03 421,-119.03"/>
</g>
<!-- node29 -->
<g id="node30" class="node">
<title>node29</title>
<polygon fill="lightgrey" stroke="black" points="522,-36 313,-36 313,0 522,0 522,-36"/>
<text text-anchor="middle" x="417.5" y="-14.3" font-family="Times,serif" font-size="14.00">#29 Return[OP=RETURN]</text>
</g>
<!-- node28&#45;&gt;node29 -->
<g id="edge22" class="edge">
<title>node28&#45;&gt;node29</title>
<path fill="none" stroke="red" d="M417.5,-72.81C417.5,-64.79 417.5,-55.05 417.5,-46.07"/>
<polygon fill="red" stroke="red" points="421,-46.03 417.5,-36.03 414,-46.03 421,-46.03"/>
</g>
<!-- c0 -->
<!-- c1 -->
<!-- c0&#45;&gt;c1 -->
<g id="edge23" class="edge">
<title>c0&#45;&gt;c1</title>
<path fill="none" stroke="red" d="M3402.39,-1624C3413.61,-1624 3471.74,-1624 3497.36,-1624"/>
<polygon fill="red" stroke="red" points="3497.56,-1627.5 3507.56,-1624 3497.56,-1620.5 3497.56,-1627.5"/>
<text text-anchor="middle" x="3455" y="-1630.8" font-family="Times,serif" font-size="14.00">Control flow</text>
</g>
<!-- c2 -->
<!-- c3 -->
<!-- c2&#45;&gt;c3 -->
<g id="edge24" class="edge">
<title>c2&#45;&gt;c3</title>
<path fill="none" stroke="red" stroke-dasharray="5,2" d="M3195.58,-1624C3212.55,-1624 3328.71,-1624 3366.58,-1624"/>
<polygon fill="red" stroke="red" points="3366.67,-1627.5 3376.67,-1624 3366.67,-1620.5 3366.67,-1627.5"/>
<text text-anchor="middle" x="3286" y="-1630.8" font-family="Times,serif" font-size="14.00">Control flow back edge</text>
</g>
</g>
</svg>
