<?xml version="1.0" encoding="UTF-8" standalone="no"?>
<!DOCTYPE svg PUBLIC "-//W3C//DTD SVG 1.1//EN"
 "http://www.w3.org/Graphics/SVG/1.1/DTD/svg11.dtd">
<!-- Generated by graphviz version 2.43.0 (0)
 -->
<!-- Title: %3 Pages: 1 -->
<svg width="1721pt" height="878pt"
 viewBox="0.00 0.00 1720.73 877.80" xmlns="http://www.w3.org/2000/svg" xmlns:xlink="http://www.w3.org/1999/xlink">
<g id="graph0" class="graph" transform="scale(1 1) rotate(0) translate(4 873.8)">
<title>%3</title>
<polygon fill="white" stroke="transparent" points="-4,4 -4,-873.8 1716.73,-873.8 1716.73,4 -4,4"/>
<g id="clust1" class="cluster">
<title>cluster_0</title>
<polygon fill="none" stroke="lightgray" points="597.73,-475 597.73,-527 743.73,-527 743.73,-475 597.73,-475"/>
</g>
<g id="clust2" class="cluster">
<title>cluster_000</title>
<polygon fill="none" stroke="black" points="851.73,-819.2 851.73,-861.8 1704.73,-861.8 1704.73,-819.2 851.73,-819.2"/>
<text text-anchor="middle" x="1278.23" y="-846.6" font-family="Times,serif" font-size="14.00">Legend</text>
</g>
<!-- node0 -->
<g id="node1" class="node">
<title>node0</title>
<polygon fill="lightgrey" stroke="transparent" points="841.73,-856 661.73,-856 661.73,-802 841.73,-802 841.73,-856"/>
<polygon fill="none" stroke="black" points="661.73,-829 661.73,-856 841.73,-856 841.73,-829 661.73,-829"/>
<text text-anchor="start" x="711.23" y="-838.8" font-family="Times,serif" font-size="14.00">#0 Method</text>
<polygon fill="yellow" stroke="transparent" points="661.73,-802 661.73,-829 841.73,-829 841.73,-802 661.73,-802"/>
<polygon fill="none" stroke="black" points="661.73,-802 661.73,-829 841.73,-829 841.73,-802 661.73,-802"/>
<text text-anchor="start" x="667.73" y="-811.8" font-family="Times,serif" font-size="14.00">this : SynchronizedTest</text>
</g>
<!-- node2 -->
<g id="node2" class="node">
<title>node2</title>
<polygon fill="lightgrey" stroke="black" points="723.23,-765 604.23,-765 604.23,-729 723.23,-729 723.23,-765"/>
<text text-anchor="middle" x="663.73" y="-743.3" font-family="Times,serif" font-size="14.00">#2 LabelNode</text>
</g>
<!-- node0&#45;&gt;node2 -->
<g id="edge1" class="edge">
<title>node0&#45;&gt;node2</title>
<path fill="none" stroke="red" d="M722.91,-801.81C712.37,-792.22 700.5,-781.43 690.17,-772.04"/>
<polygon fill="red" stroke="red" points="692.37,-769.31 682.62,-765.17 687.67,-774.49 692.37,-769.31"/>
</g>
<!-- node3 -->
<g id="node3" class="node">
<title>node3</title>
<polygon fill="lightgrey" stroke="black" points="733.73,-692 593.73,-692 593.73,-656 733.73,-656 733.73,-692"/>
<text text-anchor="middle" x="663.73" y="-670.3" font-family="Times,serif" font-size="14.00">#3 MonitorEnter</text>
</g>
<!-- node0&#45;&gt;node3 -->
<g id="edge2" class="edge">
<title>node0:prj1&#45;&gt;node3</title>
<path fill="none" stroke="black" d="M751.73,-802C751.73,-768.36 750.26,-757.07 731.73,-729 723.92,-717.17 712.67,-706.75 701.57,-698.29"/>
<polygon fill="black" stroke="black" points="703.32,-695.24 693.16,-692.22 699.22,-700.91 703.32,-695.24"/>
<text text-anchor="middle" x="712.8" y="-692.28" font-family="Times,serif" font-size="14.00">*0</text>
</g>
<!-- node18 -->
<g id="node4" class="node">
<title>node18</title>
<polygon fill="lightgrey" stroke="black" points="348.23,-337 211.23,-337 211.23,-301 348.23,-301 348.23,-337"/>
<text text-anchor="middle" x="279.73" y="-315.3" font-family="Times,serif" font-size="14.00">#18 MonitorExit</text>
</g>
<!-- node0&#45;&gt;node18 -->
<g id="edge4" class="edge">
<title>node0:prj1&#45;&gt;node18</title>
<path fill="none" stroke="black" d="M660.73,-815C609.85,-815 207.73,-798.88 207.73,-748 207.73,-748 207.73,-748 207.73,-409 207.73,-382.57 227.16,-359.58 245.84,-343.59"/>
<polygon fill="black" stroke="black" points="248.18,-346.19 253.73,-337.17 243.77,-340.76 248.18,-346.19"/>
<text text-anchor="middle" x="244.99" y="-351.46" font-family="Times,serif" font-size="14.00">*0</text>
</g>
<!-- node13 -->
<g id="node9" class="node">
<title>node13</title>
<polygon fill="lightgrey" stroke="black" points="938.23,-337 801.23,-337 801.23,-301 938.23,-301 938.23,-337"/>
<text text-anchor="middle" x="869.73" y="-315.3" font-family="Times,serif" font-size="14.00">#13 MonitorExit</text>
</g>
<!-- node0&#45;&gt;node13 -->
<g id="edge12" class="edge">
<title>node0:prj1&#45;&gt;node13</title>
<path fill="none" stroke="black" d="M842.73,-815C842.98,-815 867.73,-748.25 867.73,-748 867.73,-748 867.73,-748 867.73,-409 867.73,-388.27 868.28,-364.82 868.8,-347.2"/>
<polygon fill="black" stroke="black" points="872.3,-347.16 869.12,-337.06 865.31,-346.95 872.3,-347.16"/>
<text text-anchor="middle" x="877" y="-351.74" font-family="Times,serif" font-size="14.00">*0</text>
</g>
<!-- node12 -->
<g id="node10" class="node">
<title>node12</title>
<polygon fill="lightgrey" stroke="black" points="744.23,-428 465.23,-428 465.23,-392 744.23,-392 744.23,-428"/>
<text text-anchor="middle" x="604.73" y="-406.3" font-family="Times,serif" font-size="14.00">#12 Invoke virtual compute : (int)int</text>
</g>
<!-- node0&#45;&gt;node12 -->
<g id="edge14" class="edge">
<title>node0:prj1&#45;&gt;node12</title>
<path fill="none" stroke="black" d="M842.73,-815C839.52,-815 834.06,-807.64 832.73,-802 826.77,-776.78 810.73,-773.92 810.73,-748 810.73,-748 810.73,-748 810.73,-500 810.73,-465.07 786.2,-443.58 754.06,-430.44"/>
<polygon fill="black" stroke="black" points="754.93,-427.03 744.34,-426.79 752.47,-433.58 754.93,-427.03"/>
<text text-anchor="middle" x="764.28" y="-421.55" font-family="Times,serif" font-size="14.00">*0</text>
</g>
<!-- node0&#45;&gt;node12 -->
<g id="edge17" class="edge">
<title>node0&#45;&gt;node12</title>
<path fill="none" stroke="green" d="M843.07,-815C857.44,-814.89 852.05,-807.6 850.73,-802 844.77,-776.78 828.73,-773.92 828.73,-748 828.73,-748 828.73,-748 828.73,-500 828.73,-459.15 795.18,-436.68 754.03,-424.45"/>
<polygon fill="green" stroke="green" points="754.86,-421.05 744.29,-421.78 753.01,-427.8 754.86,-421.05"/>
</g>
<!-- node23 -->
<g id="node15" class="node">
<title>node23</title>
<polygon fill="lightgrey" stroke="black" points="436.73,-182 340.73,-182 340.73,-146 436.73,-146 436.73,-182"/>
<text text-anchor="middle" x="388.73" y="-160.3" font-family="Times,serif" font-size="14.00">#23 Throw</text>
</g>
<!-- node0&#45;&gt;node23 -->
<g id="edge25" class="edge">
<title>node0&#45;&gt;node23</title>
<path fill="none" stroke="green" d="M661.53,-828.95C524.43,-828.55 272.27,-820.07 203.73,-765 43.32,-636.11 51.58,-546.83 6.73,-346 1.5,-322.58 -4.91,-312.99 6.73,-292 36.46,-238.4 66.8,-241.7 123.73,-219 191.74,-191.88 275.23,-177.76 330.1,-170.87"/>
<polygon fill="green" stroke="green" points="330.84,-174.31 340.34,-169.63 329.99,-167.36 330.84,-174.31"/>
</g>
<!-- node2&#45;&gt;node3 -->
<g id="edge3" class="edge">
<title>node2&#45;&gt;node3</title>
<path fill="none" stroke="red" d="M663.73,-728.81C663.73,-720.79 663.73,-711.05 663.73,-702.07"/>
<polygon fill="red" stroke="red" points="667.23,-702.03 663.73,-692.03 660.23,-702.03 667.23,-702.03"/>
</g>
<!-- node4 -->
<g id="node7" class="node">
<title>node4</title>
<polygon fill="lightgrey" stroke="transparent" points="678.73,-619 524.73,-619 524.73,-565 678.73,-565 678.73,-619"/>
<polygon fill="none" stroke="black" points="524.73,-592 524.73,-619 678.73,-619 678.73,-592 524.73,-592"/>
<text text-anchor="start" x="530.73" y="-601.8" font-family="Times,serif" font-size="14.00">#4 ExceptionGuard</text>
<polygon fill="yellow" stroke="transparent" points="524.73,-565 524.73,-592 568.73,-592 568.73,-565 524.73,-565"/>
<polygon fill="none" stroke="black" points="524.73,-565 524.73,-592 568.73,-592 568.73,-565 524.73,-565"/>
<text text-anchor="start" x="533.73" y="-574.8" font-family="Times,serif" font-size="14.00">any</text>
<polygon fill="yellow" stroke="transparent" points="568.73,-565 568.73,-592 634.73,-592 634.73,-565 568.73,-565"/>
<polygon fill="none" stroke="black" points="568.73,-565 568.73,-592 634.73,-592 634.73,-565 568.73,-565"/>
<text text-anchor="start" x="576.23" y="-574.8" font-family="Times,serif" font-size="14.00">default</text>
<polygon fill="yellow" stroke="transparent" points="634.73,-565 634.73,-592 678.73,-592 678.73,-565 634.73,-565"/>
<polygon fill="none" stroke="black" points="634.73,-565 634.73,-592 678.73,-592 678.73,-565 634.73,-565"/>
<text text-anchor="start" x="642.73" y="-574.8" font-family="Times,serif" font-size="14.00">exit</text>
</g>
<!-- node3&#45;&gt;node4 -->
<g id="edge9" class="edge">
<title>node3&#45;&gt;node4</title>
<path fill="none" stroke="red" d="M650.28,-655.64C643.82,-647.31 635.85,-637.03 628.25,-627.22"/>
<polygon fill="red" stroke="red" points="630.88,-624.91 621.99,-619.15 625.35,-629.19 630.88,-624.91"/>
</g>
<!-- node22 -->
<g id="node16" class="node">
<title>node22</title>
<polygon fill="lightgrey" stroke="black" points="408.23,-255 133.23,-255 133.23,-219 408.23,-219 408.23,-255"/>
<text text-anchor="middle" x="270.73" y="-233.3" font-family="Times,serif" font-size="14.00">#22 Merge : EndOfGuardedBlock24</text>
</g>
<!-- node18&#45;&gt;node22 -->
<g id="edge26" class="edge">
<title>node18&#45;&gt;node22</title>
<path fill="none" stroke="red" d="M277.78,-300.64C276.61,-290.3 275.11,-276.94 273.79,-265.22"/>
<polygon fill="red" stroke="red" points="277.24,-264.6 272.65,-255.05 270.29,-265.38 277.24,-264.6"/>
</g>
<!-- node10 -->
<g id="node5" class="node">
<title>node10</title>
<polygon fill="lightgrey" stroke="transparent" points="399.23,-437 236.23,-437 236.23,-383 399.23,-383 399.23,-437"/>
<polygon fill="none" stroke="black" points="236.73,-410 236.73,-437 399.73,-437 399.73,-410 236.73,-410"/>
<text text-anchor="start" x="242.73" y="-419.8" font-family="Times,serif" font-size="14.00">#10 ExceptionGuard</text>
<polygon fill="yellow" stroke="transparent" points="236.73,-383 236.73,-410 285.73,-410 285.73,-383 236.73,-383"/>
<polygon fill="none" stroke="black" points="236.73,-383 236.73,-410 285.73,-410 285.73,-383 236.73,-383"/>
<text text-anchor="start" x="248.23" y="-392.8" font-family="Times,serif" font-size="14.00">any</text>
<polygon fill="yellow" stroke="transparent" points="285.73,-383 285.73,-410 353.73,-410 353.73,-383 285.73,-383"/>
<polygon fill="none" stroke="black" points="285.73,-383 285.73,-410 353.73,-410 353.73,-383 285.73,-383"/>
<text text-anchor="start" x="294.23" y="-392.8" font-family="Times,serif" font-size="14.00">default</text>
<polygon fill="yellow" stroke="transparent" points="353.73,-383 353.73,-410 399.73,-410 399.73,-383 353.73,-383"/>
<polygon fill="none" stroke="black" points="353.73,-383 353.73,-410 399.73,-410 399.73,-383 353.73,-383"/>
<text text-anchor="start" x="362.73" y="-392.8" font-family="Times,serif" font-size="14.00">exit</text>
</g>
<!-- node10&#45;&gt;node18 -->
<g id="edge5" class="edge">
<title>node10:prj17&#45;&gt;node18</title>
<path fill="none" stroke="red" d="M319.73,-383C319.73,-369.06 312.66,-355.71 304.47,-344.92"/>
<polygon fill="red" stroke="red" points="307.16,-342.67 298.09,-337.2 301.76,-347.13 307.16,-342.67"/>
</g>
<!-- node10&#45;&gt;node22 -->
<g id="edge27" class="edge">
<title>node10:prj19&#45;&gt;node22</title>
<path fill="none" stroke="red" d="M376.73,-383C376.73,-341.59 380.56,-325.86 356.73,-292 347.57,-278.99 334.19,-268.44 320.69,-260.24"/>
<polygon fill="red" stroke="red" points="322.27,-257.11 311.85,-255.18 318.79,-263.18 322.27,-257.11"/>
</g>
<!-- node16 -->
<g id="node17" class="node">
<title>node16</title>
<polygon fill="lightgrey" stroke="transparent" points="193.23,-346 16.23,-346 16.23,-292 193.23,-292 193.23,-346"/>
<polygon fill="none" stroke="black" points="16.73,-319 16.73,-346 193.73,-346 193.73,-319 16.73,-319"/>
<text text-anchor="start" x="22.73" y="-328.8" font-family="Times,serif" font-size="14.00">#16 Catch : Throwable</text>
<polygon fill="yellow" stroke="transparent" points="16.73,-292 16.73,-319 193.73,-319 193.73,-292 16.73,-292"/>
<polygon fill="none" stroke="black" points="16.73,-292 16.73,-319 193.73,-319 193.73,-292 16.73,-292"/>
<text text-anchor="start" x="26.23" y="-301.8" font-family="Times,serif" font-size="14.00">exception : Throwable</text>
</g>
<!-- node10&#45;&gt;node16 -->
<g id="edge28" class="edge">
<title>node10&#45;&gt;node16</title>
<path fill="none" stroke="black" d="M289.07,-382.81C280.44,-375.93 270.61,-369.04 260.73,-364 257.56,-362.38 232.58,-355.19 203.5,-347.06"/>
<polygon fill="black" stroke="black" points="204.08,-343.59 193.5,-344.28 202.2,-350.34 204.08,-343.59"/>
<text text-anchor="middle" x="213.23" y="-337.3" font-family="Times,serif" font-size="14.00">*0</text>
</g>
<!-- node10&#45;&gt;node16 -->
<g id="edge29" class="edge">
<title>node10:prj15&#45;&gt;node16</title>
<path fill="none" stroke="red" d="M260.73,-383C260.73,-374.79 230.64,-361.64 196.89,-349.47"/>
<polygon fill="red" stroke="red" points="197.89,-346.11 187.3,-346.07 195.55,-352.71 197.89,-346.11"/>
</g>
<!-- node6 -->
<g id="node6" class="node">
<title>node6</title>
<polygon fill="lightgrey" stroke="transparent" points="531.73,-528 361.73,-528 361.73,-474 531.73,-474 531.73,-528"/>
<polygon fill="none" stroke="black" points="361.73,-501 361.73,-528 531.73,-528 531.73,-501 361.73,-501"/>
<text text-anchor="start" x="368.73" y="-510.8" font-family="Times,serif" font-size="14.00">#6 Catch : Throwable</text>
<polygon fill="yellow" stroke="transparent" points="361.73,-474 361.73,-501 531.73,-501 531.73,-474 361.73,-474"/>
<polygon fill="none" stroke="black" points="361.73,-474 361.73,-501 531.73,-501 531.73,-474 361.73,-474"/>
<text text-anchor="start" x="367.73" y="-483.8" font-family="Times,serif" font-size="14.00">exception : Throwable</text>
</g>
<!-- node6&#45;&gt;node10 -->
<g id="edge6" class="edge">
<title>node6&#45;&gt;node10</title>
<path fill="none" stroke="red" d="M408.72,-473.78C394.68,-464.09 378.61,-453.01 363.93,-442.87"/>
<polygon fill="red" stroke="red" points="365.68,-439.83 355.46,-437.03 361.71,-445.59 365.68,-439.83"/>
</g>
<!-- node6&#45;&gt;node23 -->
<g id="edge23" class="edge">
<title>node6:prj9&#45;&gt;node23</title>
<path fill="none" stroke="black" d="M446.73,-474C446.73,-445.65 436.73,-439.35 436.73,-411 436.73,-411 436.73,-411 436.73,-236 436.73,-218.5 426.6,-202.1 415.65,-189.48"/>
<polygon fill="black" stroke="black" points="418.18,-187.06 408.81,-182.13 413.06,-191.83 418.18,-187.06"/>
<text text-anchor="middle" x="427.35" y="-185.93" font-family="Times,serif" font-size="14.00">*0</text>
</g>
<!-- node4&#45;&gt;node6 -->
<g id="edge7" class="edge">
<title>node4&#45;&gt;node6</title>
<path fill="none" stroke="black" d="M556.06,-564.78C538.72,-554.82 518.8,-543.38 500.76,-533.02"/>
<polygon fill="black" stroke="black" points="502.48,-529.98 492.07,-528.03 499,-536.05 502.48,-529.98"/>
<text text-anchor="middle" x="512" y="-526.03" font-family="Times,serif" font-size="14.00">*0</text>
</g>
<!-- node4&#45;&gt;node6 -->
<g id="edge8" class="edge">
<title>node4:prj5&#45;&gt;node6</title>
<path fill="none" stroke="red" d="M523.73,-578C498.37,-578 478.34,-556.86 465.07,-536.88"/>
<polygon fill="red" stroke="red" points="467.89,-534.79 459.63,-528.15 461.96,-538.49 467.89,-534.79"/>
</g>
<!-- node14 -->
<g id="node8" class="node">
<title>node14</title>
<polygon fill="lightgrey" stroke="black" points="940.23,-255 665.23,-255 665.23,-219 940.23,-219 940.23,-255"/>
<text text-anchor="middle" x="802.73" y="-233.3" font-family="Times,serif" font-size="14.00">#14 Merge : EndOfGuardedBlock18</text>
</g>
<!-- node4&#45;&gt;node14 -->
<g id="edge11" class="edge">
<title>node4:prj8&#45;&gt;node14</title>
<path fill="none" stroke="red" d="M679.73,-578C733.11,-578 772.73,-555.38 772.73,-502 772.73,-502 772.73,-502 772.73,-318 772.73,-299.26 780.03,-279.54 787.43,-264.36"/>
<polygon fill="red" stroke="red" points="790.74,-265.59 792.24,-255.1 784.53,-262.37 790.74,-265.59"/>
</g>
<!-- node4&#45;&gt;node12 -->
<g id="edge16" class="edge">
<title>node4:prj7&#45;&gt;node12</title>
<path fill="none" stroke="red" d="M601.73,-565C601.73,-548.18 595.52,-544.73 593.73,-528 591.18,-504.14 591.66,-497.91 593.73,-474 594.76,-462.1 596.87,-449.07 598.96,-437.97"/>
<polygon fill="red" stroke="red" points="602.43,-438.5 600.94,-428.01 595.56,-437.14 602.43,-438.5"/>
</g>
<!-- node11 -->
<g id="node11" class="node">
<title>node11</title>
<polygon fill="lightgreen" stroke="black" points="736.08,-493.54 736.08,-508.46 697.8,-519 643.66,-519 605.38,-508.46 605.38,-493.54 643.66,-483 697.8,-483 736.08,-493.54"/>
<text text-anchor="middle" x="670.73" y="-497.3" font-family="Times,serif" font-size="14.00">#11 int 10</text>
</g>
<!-- node4&#45;&gt;node11 -->
<g id="edge18" class="edge">
<title>node4:prj7&#45;&gt;node11</title>
<path fill="none" stroke="black" stroke-dasharray="1,5" d="M601.73,-565C601.73,-547.37 614.16,-533.36 628.47,-523.07"/>
<polygon fill="black" stroke="black" points="630.6,-525.85 637.04,-517.44 626.76,-520 630.6,-525.85"/>
</g>
<!-- node20 -->
<g id="node14" class="node">
<title>node20</title>
<polygon fill="lightgrey" stroke="black" points="845.23,-182 760.23,-182 760.23,-146 845.23,-146 845.23,-182"/>
<text text-anchor="middle" x="802.73" y="-160.3" font-family="Times,serif" font-size="14.00">#20 Goto</text>
</g>
<!-- node14&#45;&gt;node20 -->
<g id="edge22" class="edge">
<title>node14&#45;&gt;node20</title>
<path fill="none" stroke="red" d="M802.73,-218.81C802.73,-210.79 802.73,-201.05 802.73,-192.07"/>
<polygon fill="red" stroke="red" points="806.23,-192.03 802.73,-182.03 799.23,-192.03 806.23,-192.03"/>
</g>
<!-- node13&#45;&gt;node14 -->
<g id="edge10" class="edge">
<title>node13&#45;&gt;node14</title>
<path fill="none" stroke="red" d="M855.19,-300.64C845.91,-289.56 833.73,-275.02 823.44,-262.74"/>
<polygon fill="red" stroke="red" points="826.11,-260.47 817.01,-255.05 820.75,-264.96 826.11,-260.47"/>
</g>
<!-- node12&#45;&gt;node13 -->
<g id="edge13" class="edge">
<title>node12&#45;&gt;node13</title>
<path fill="none" stroke="red" d="M655.51,-391.95C699.29,-377.24 762.59,-355.98 809.03,-340.39"/>
<polygon fill="red" stroke="red" points="810.3,-343.65 818.67,-337.15 808.07,-337.01 810.3,-343.65"/>
</g>
<!-- node25 -->
<g id="node12" class="node">
<title>node25</title>
<polygon fill="lightgrey" stroke="black" points="853.23,-36 752.23,-36 752.23,0 853.23,0 853.23,-36"/>
<text text-anchor="middle" x="802.73" y="-14.3" font-family="Times,serif" font-size="14.00">#25 Return</text>
</g>
<!-- node12&#45;&gt;node25 -->
<g id="edge20" class="edge">
<title>node12&#45;&gt;node25</title>
<path fill="none" stroke="green" d="M606.94,-391.94C614.59,-338.85 644.37,-174.03 729.73,-73 739.73,-61.16 752.82,-50.45 765.14,-41.75"/>
<polygon fill="green" stroke="green" points="767.21,-44.58 773.51,-36.06 763.27,-38.79 767.21,-44.58"/>
</g>
<!-- node11&#45;&gt;node12 -->
<g id="edge15" class="edge">
<title>node11&#45;&gt;node12</title>
<path fill="none" stroke="black" d="M658,-482.84C648.23,-469.67 634.59,-451.27 623.56,-436.39"/>
<polygon fill="black" stroke="black" points="626.18,-434.05 617.41,-428.11 620.56,-438.22 626.18,-434.05"/>
<text text-anchor="middle" x="635" y="-433.93" font-family="Times,serif" font-size="14.00">*1</text>
</g>
<!-- node24 -->
<g id="node13" class="node">
<title>node24</title>
<polygon fill="lightgrey" stroke="black" points="866.73,-109 738.73,-109 738.73,-73 866.73,-73 866.73,-109"/>
<text text-anchor="middle" x="802.73" y="-87.3" font-family="Times,serif" font-size="14.00">#24 LabelNode</text>
</g>
<!-- node24&#45;&gt;node25 -->
<g id="edge19" class="edge">
<title>node24&#45;&gt;node25</title>
<path fill="none" stroke="red" d="M802.73,-72.81C802.73,-64.79 802.73,-55.05 802.73,-46.07"/>
<polygon fill="red" stroke="red" points="806.23,-46.03 802.73,-36.03 799.23,-46.03 806.23,-46.03"/>
</g>
<!-- node20&#45;&gt;node24 -->
<g id="edge21" class="edge">
<title>node20&#45;&gt;node24</title>
<path fill="none" stroke="red" d="M802.73,-145.81C802.73,-137.79 802.73,-128.05 802.73,-119.07"/>
<polygon fill="red" stroke="red" points="806.23,-119.03 802.73,-109.03 799.23,-119.03 806.23,-119.03"/>
</g>
<!-- node22&#45;&gt;node23 -->
<g id="edge24" class="edge">
<title>node22&#45;&gt;node23</title>
<path fill="none" stroke="red" d="M298.99,-218.99C314.79,-209.49 334.65,-197.54 351.68,-187.29"/>
<polygon fill="red" stroke="red" points="353.52,-190.27 360.29,-182.11 349.91,-184.27 353.52,-190.27"/>
</g>
<!-- c0 -->
<!-- c1 -->
<!-- c0&#45;&gt;c1 -->
<g id="edge30" class="edge">
<title>c0&#45;&gt;c1</title>
<path fill="none" stroke="red" d="M1587.62,-829C1598.84,-829 1656.97,-829 1682.59,-829"/>
<polygon fill="red" stroke="red" points="1682.78,-832.5 1692.78,-829 1682.78,-825.5 1682.78,-832.5"/>
<text text-anchor="middle" x="1640.23" y="-835.8" font-family="Times,serif" font-size="14.00">Control flow</text>
</g>
<!-- c2 -->
<!-- c3 -->
<!-- c2&#45;&gt;c3 -->
<g id="edge31" class="edge">
<title>c2&#45;&gt;c3</title>
<path fill="none" stroke="red" stroke-dasharray="5,2" d="M1380.81,-829C1397.78,-829 1513.93,-829 1551.81,-829"/>
<polygon fill="red" stroke="red" points="1551.9,-832.5 1561.9,-829 1551.9,-825.5 1551.9,-832.5"/>
<text text-anchor="middle" x="1471.23" y="-835.8" font-family="Times,serif" font-size="14.00">Control flow back edge</text>
</g>
<!-- d0 -->
<!-- d1 -->
<!-- d0&#45;&gt;d1 -->
<g id="edge32" class="edge">
<title>d0&#45;&gt;d1</title>
<path fill="none" stroke="black" d="M1269.59,-829C1279.13,-829 1323.04,-829 1344.65,-829"/>
<polygon fill="black" stroke="black" points="1344.88,-832.5 1354.88,-829 1344.88,-825.5 1344.88,-832.5"/>
<text text-anchor="middle" x="1312.23" y="-835.8" font-family="Times,serif" font-size="14.00">Data flow</text>
</g>
<!-- d2 -->
<!-- d3 -->
<!-- d2&#45;&gt;d3 -->
<g id="edge33" class="edge">
<title>d2&#45;&gt;d3</title>
<path fill="none" stroke="black" stroke-dasharray="1,5" d="M1143.53,-829C1154.18,-829 1209.19,-829 1233.8,-829"/>
<polygon fill="black" stroke="black" points="1233.87,-832.5 1243.87,-829 1233.87,-825.5 1233.87,-832.5"/>
<text text-anchor="middle" x="1193.73" y="-835.8" font-family="Times,serif" font-size="14.00">Declaration</text>
</g>
<!-- d4 -->
<!-- d5 -->
<!-- d4&#45;&gt;d5 -->
<g id="edge34" class="edge">
<title>d4&#45;&gt;d5</title>
<path fill="none" stroke="blue" d="M1000.83,-829C1013.45,-829 1079.61,-829 1107.41,-829"/>
<polygon fill="blue" stroke="blue" points="1107.57,-832.5 1117.57,-829 1107.57,-825.5 1107.57,-832.5"/>
<text text-anchor="middle" x="1059.23" y="-835.8" font-family="Times,serif" font-size="14.00">PHI Data flow</text>
</g>
<!-- d6 -->
<!-- d7 -->
<!-- d6&#45;&gt;d7 -->
<g id="edge35" class="edge">
<title>d6&#45;&gt;d7</title>
<path fill="none" stroke="green" d="M863.72,-829C875.67,-829 938.03,-829 964.66,-829"/>
<polygon fill="green" stroke="green" points="964.68,-832.5 974.68,-829 964.68,-825.5 964.68,-832.5"/>
<text text-anchor="middle" x="919.23" y="-835.8" font-family="Times,serif" font-size="14.00">Memory flow</text>
</g>
</g>
</svg>
