<?xml version="1.0" encoding="UTF-8" standalone="no"?>
<!DOCTYPE svg PUBLIC "-//W3C//DTD SVG 1.1//EN"
 "http://www.w3.org/Graphics/SVG/1.1/DTD/svg11.dtd">
<!-- Generated by graphviz version 2.43.0 (0)
 -->
<!-- Title: %3 Pages: 1 -->
<svg width="1637pt" height="807pt"
 viewBox="0.00 0.00 1636.50 807.00" xmlns="http://www.w3.org/2000/svg" xmlns:xlink="http://www.w3.org/1999/xlink">
<g id="graph0" class="graph" transform="scale(1 1) rotate(0) translate(4 803)">
<title>%3</title>
<polygon fill="white" stroke="transparent" points="-4,4 -4,-803 1632.5,-803 1632.5,4 -4,4"/>
<g id="clust1" class="cluster">
<title>cluster_0</title>
<polygon fill="none" stroke="lightgray" points="563.5,-648 563.5,-791 759.5,-791 759.5,-648 563.5,-648"/>
</g>
<g id="clust2" class="cluster">
<title>cluster_000</title>
<polygon fill="none" stroke="black" points="767.5,-746.2 767.5,-788.8 1620.5,-788.8 1620.5,-746.2 767.5,-746.2"/>
<text text-anchor="middle" x="1194" y="-773.6" font-family="Times,serif" font-size="14.00">Legend</text>
</g>
<!-- node0 -->
<g id="node1" class="node">
<title>node0</title>
<polygon fill="lightgrey" stroke="transparent" points="751.5,-783 571.5,-783 571.5,-729 751.5,-729 751.5,-783"/>
<polygon fill="none" stroke="black" points="571.5,-756 571.5,-783 751.5,-783 751.5,-756 571.5,-756"/>
<text text-anchor="start" x="621" y="-765.8" font-family="Times,serif" font-size="14.00">#0 Method</text>
<polygon fill="yellow" stroke="transparent" points="571.5,-729 571.5,-756 751.5,-756 751.5,-729 571.5,-729"/>
<polygon fill="none" stroke="black" points="571.5,-729 571.5,-756 751.5,-756 751.5,-729 571.5,-729"/>
<text text-anchor="start" x="577.5" y="-738.8" font-family="Times,serif" font-size="14.00">this : SynchronizedTest</text>
</g>
<!-- node25 -->
<g id="node2" class="node">
<title>node25</title>
<polygon fill="lightgreen" stroke="black" points="751.85,-666.54 751.85,-681.46 713.57,-692 659.43,-692 621.15,-681.46 621.15,-666.54 659.43,-656 713.57,-656 751.85,-666.54"/>
<text text-anchor="middle" x="686.5" y="-670.3" font-family="Times,serif" font-size="14.00">#25 int 10</text>
</g>
<!-- node0&#45;&gt;node25 -->
<g id="edge1" class="edge">
<title>node0&#45;&gt;node25</title>
<path fill="none" stroke="black" stroke-dasharray="1,5" d="M669.69,-728.81C672.39,-720.16 675.4,-710.53 678.11,-701.84"/>
<polygon fill="black" stroke="black" points="681.49,-702.76 681.13,-692.17 674.81,-700.68 681.49,-702.76"/>
</g>
<!-- node19 -->
<g id="node3" class="node">
<title>node19</title>
<polygon fill="lightgrey" stroke="black" points="939,-446 660,-446 660,-410 939,-410 939,-446"/>
<text text-anchor="middle" x="799.5" y="-424.3" font-family="Times,serif" font-size="14.00">#19 Invoke virtual compute : (int)int</text>
</g>
<!-- node0&#45;&gt;node19 -->
<g id="edge2" class="edge">
<title>node0:prj1&#45;&gt;node19</title>
<path fill="none" stroke="black" d="M752.5,-742C760.07,-742 757.52,-733.64 763.5,-729 777.94,-717.78 787.64,-724.01 800.5,-711 812.94,-698.42 817.5,-692.69 817.5,-675 817.5,-675 817.5,-675 817.5,-518 817.5,-496.98 812.62,-473.72 807.94,-456.24"/>
<polygon fill="black" stroke="black" points="811.18,-454.86 805.1,-446.19 804.45,-456.76 811.18,-454.86"/>
<text text-anchor="middle" x="818.16" y="-457.63" font-family="Times,serif" font-size="14.00">*0</text>
</g>
<!-- node0&#45;&gt;node19 -->
<g id="edge5" class="edge">
<title>node0&#45;&gt;node19</title>
<path fill="none" stroke="green" d="M571.14,-741.91C539.53,-734.78 512.48,-724.41 515.5,-710 530.03,-640.66 532.96,-617.42 579.5,-564 625.69,-510.99 697.89,-472.25 746.88,-450.2"/>
<polygon fill="green" stroke="green" points="748.31,-453.39 756.04,-446.15 745.48,-446.99 748.31,-453.39"/>
</g>
<!-- node3 -->
<g id="node5" class="node">
<title>node3</title>
<polygon fill="lightgrey" stroke="black" points="473.5,-619 333.5,-619 333.5,-583 473.5,-583 473.5,-619"/>
<text text-anchor="middle" x="403.5" y="-597.3" font-family="Times,serif" font-size="14.00">#3 MonitorEnter</text>
</g>
<!-- node0&#45;&gt;node3 -->
<g id="edge7" class="edge">
<title>node0:prj1&#45;&gt;node3</title>
<path fill="none" stroke="black" d="M570.5,-742C516.89,-742 368.25,-733.65 334.5,-692 322.19,-676.81 325.27,-665.24 334.5,-648 339.44,-638.77 347.15,-631.06 355.65,-624.77"/>
<polygon fill="black" stroke="black" points="357.63,-627.65 363.97,-619.16 353.72,-621.85 357.63,-627.65"/>
<text text-anchor="middle" x="353.66" y="-632.6" font-family="Times,serif" font-size="14.00">*0</text>
</g>
<!-- node2 -->
<g id="node6" class="node">
<title>node2</title>
<polygon fill="lightgrey" stroke="black" points="463,-692 344,-692 344,-656 463,-656 463,-692"/>
<text text-anchor="middle" x="403.5" y="-670.3" font-family="Times,serif" font-size="14.00">#2 LabelNode</text>
</g>
<!-- node0&#45;&gt;node2 -->
<g id="edge9" class="edge">
<title>node0&#45;&gt;node2</title>
<path fill="none" stroke="red" d="M571.48,-735.84C543.32,-728.99 512.35,-720.57 484.5,-711 472.33,-706.82 459.46,-701.53 447.66,-696.29"/>
<polygon fill="red" stroke="red" points="449,-693.06 438.45,-692.14 446.12,-699.44 449,-693.06"/>
</g>
<!-- node14 -->
<g id="node7" class="node">
<title>node14</title>
<polygon fill="lightgrey" stroke="black" points="408,-264 271,-264 271,-228 408,-228 408,-264"/>
<text text-anchor="middle" x="339.5" y="-242.3" font-family="Times,serif" font-size="14.00">#14 MonitorExit</text>
</g>
<!-- node0&#45;&gt;node14 -->
<g id="edge10" class="edge">
<title>node0:prj1&#45;&gt;node14</title>
<path fill="none" stroke="black" d="M570.5,-742C488.38,-742 517.5,-647.12 517.5,-565 517.5,-565 517.5,-565 517.5,-336 517.5,-310.36 457.66,-284.53 407.37,-267.35"/>
<polygon fill="black" stroke="black" points="408.38,-264 397.78,-264.14 406.15,-270.64 408.38,-264"/>
<text text-anchor="middle" x="417.66" y="-258.19" font-family="Times,serif" font-size="14.00">*0</text>
</g>
<!-- node16 -->
<g id="node10" class="node">
<title>node16</title>
<polygon fill="lightgrey" stroke="black" points="369.5,-109 273.5,-109 273.5,-73 369.5,-73 369.5,-109"/>
<text text-anchor="middle" x="321.5" y="-87.3" font-family="Times,serif" font-size="14.00">#16 Throw</text>
</g>
<!-- node0&#45;&gt;node16 -->
<g id="edge17" class="edge">
<title>node0&#45;&gt;node16</title>
<path fill="none" stroke="green" d="M723.34,-728.87C738.13,-719.51 752.07,-707.36 760.5,-692 769.91,-674.86 761.66,-667.52 760.5,-648 758.27,-610.47 766.1,-598.21 750.5,-564 715.33,-486.88 617.07,-478.45 651.5,-401 661.47,-378.57 676.16,-382.32 692.5,-364 725.59,-326.91 742.33,-320.33 757.5,-273 764.82,-250.14 768.11,-240.53 757.5,-219 733.97,-171.24 711.42,-167.04 662.5,-146 569.14,-105.85 449.87,-95.2 379.96,-92.58"/>
<polygon fill="green" stroke="green" points="379.71,-89.07 369.6,-92.24 379.47,-96.07 379.71,-89.07"/>
</g>
<!-- node20 -->
<g id="node13" class="node">
<title>node20</title>
<polygon fill="lightgrey" stroke="black" points="683,-355 546,-355 546,-319 683,-319 683,-355"/>
<text text-anchor="middle" x="614.5" y="-333.3" font-family="Times,serif" font-size="14.00">#20 MonitorExit</text>
</g>
<!-- node0&#45;&gt;node20 -->
<g id="edge22" class="edge">
<title>node0:prj1&#45;&gt;node20</title>
<path fill="none" stroke="black" d="M570.5,-742C564.71,-742 570.17,-734.64 571.5,-729 577.45,-703.78 593.5,-700.92 593.5,-675 593.5,-675 593.5,-675 593.5,-427 593.5,-405.63 599.3,-382.13 604.81,-364.65"/>
<polygon fill="black" stroke="black" points="608.15,-365.71 607.97,-355.11 601.5,-363.5 608.15,-365.71"/>
<text text-anchor="middle" x="610.29" y="-371.28" font-family="Times,serif" font-size="14.00">*0</text>
</g>
<!-- node25&#45;&gt;node19 -->
<g id="edge3" class="edge">
<title>node25&#45;&gt;node19</title>
<path fill="none" stroke="black" d="M694.45,-655.84C713.9,-613.84 764.01,-505.64 787.28,-455.38"/>
<polygon fill="black" stroke="black" points="790.54,-456.68 791.56,-446.14 784.18,-453.74 790.54,-456.68"/>
<text text-anchor="middle" x="791.62" y="-462.44" font-family="Times,serif" font-size="14.00">*1</text>
</g>
<!-- node19&#45;&gt;node20 -->
<g id="edge23" class="edge">
<title>node19&#45;&gt;node20</title>
<path fill="none" stroke="red" d="M763.83,-409.84C734.01,-395.5 691.34,-374.96 659.23,-359.52"/>
<polygon fill="red" stroke="red" points="660.59,-356.29 650.06,-355.11 657.55,-362.6 660.59,-356.29"/>
</g>
<!-- node24 -->
<g id="node17" class="node">
<title>node24</title>
<polygon fill="lightgrey" stroke="black" points="661,-36 560,-36 560,0 661,0 661,-36"/>
<text text-anchor="middle" x="610.5" y="-14.3" font-family="Times,serif" font-size="14.00">#24 Return</text>
</g>
<!-- node19&#45;&gt;node24 -->
<g id="edge29" class="edge">
<title>node19&#45;&gt;node24</title>
<path fill="none" stroke="green" d="M679.24,-409.96C536.17,-386.88 310.43,-340.65 261.5,-273 247.44,-253.55 247.2,-238.28 261.5,-219 295.25,-173.49 332.69,-207.08 383.5,-182 394.05,-176.79 518.92,-85.91 578.83,-42.16"/>
<polygon fill="green" stroke="green" points="581.16,-44.79 587.17,-36.06 577.03,-39.14 581.16,-44.79"/>
</g>
<!-- node4 -->
<g id="node4" class="node">
<title>node4</title>
<polygon fill="lightgrey" stroke="transparent" points="489.5,-546 335.5,-546 335.5,-492 489.5,-492 489.5,-546"/>
<polygon fill="none" stroke="black" points="335.5,-519 335.5,-546 489.5,-546 489.5,-519 335.5,-519"/>
<text text-anchor="start" x="341.5" y="-528.8" font-family="Times,serif" font-size="14.00">#4 ExceptionGuard</text>
<polygon fill="yellow" stroke="transparent" points="335.5,-492 335.5,-519 379.5,-519 379.5,-492 335.5,-492"/>
<polygon fill="none" stroke="black" points="335.5,-492 335.5,-519 379.5,-519 379.5,-492 335.5,-492"/>
<text text-anchor="start" x="344.5" y="-501.8" font-family="Times,serif" font-size="14.00">any</text>
<polygon fill="yellow" stroke="transparent" points="379.5,-492 379.5,-519 445.5,-519 445.5,-492 379.5,-492"/>
<polygon fill="none" stroke="black" points="379.5,-492 379.5,-519 445.5,-519 445.5,-492 379.5,-492"/>
<text text-anchor="start" x="387" y="-501.8" font-family="Times,serif" font-size="14.00">default</text>
<polygon fill="yellow" stroke="transparent" points="445.5,-492 445.5,-519 489.5,-519 489.5,-492 445.5,-492"/>
<polygon fill="none" stroke="black" points="445.5,-492 445.5,-519 489.5,-519 489.5,-492 445.5,-492"/>
<text text-anchor="start" x="453.5" y="-501.8" font-family="Times,serif" font-size="14.00">exit</text>
</g>
<!-- node4&#45;&gt;node19 -->
<g id="edge4" class="edge">
<title>node4:prj18&#45;&gt;node19</title>
<path fill="none" stroke="red" d="M412.5,-492C412.5,-485.39 555.17,-463.58 667.26,-447.47"/>
<polygon fill="red" stroke="red" points="667.91,-450.91 677.32,-446.02 666.92,-443.98 667.91,-450.91"/>
</g>
<!-- node6 -->
<g id="node9" class="node">
<title>node6</title>
<polygon fill="lightgrey" stroke="transparent" points="448.5,-455 278.5,-455 278.5,-401 448.5,-401 448.5,-455"/>
<polygon fill="none" stroke="black" points="278.5,-428 278.5,-455 448.5,-455 448.5,-428 278.5,-428"/>
<text text-anchor="start" x="285.5" y="-437.8" font-family="Times,serif" font-size="14.00">#6 Catch : Throwable</text>
<polygon fill="yellow" stroke="transparent" points="278.5,-401 278.5,-428 448.5,-428 448.5,-401 278.5,-401"/>
<polygon fill="none" stroke="black" points="278.5,-401 278.5,-428 448.5,-428 448.5,-401 278.5,-401"/>
<text text-anchor="start" x="284.5" y="-410.8" font-family="Times,serif" font-size="14.00">exception : Throwable</text>
</g>
<!-- node4&#45;&gt;node6 -->
<g id="edge13" class="edge">
<title>node4&#45;&gt;node6</title>
<path fill="none" stroke="black" d="M398.06,-491.78C393.28,-483.09 387.87,-473.27 382.78,-464.03"/>
<polygon fill="black" stroke="black" points="385.72,-462.11 377.83,-455.03 379.59,-465.48 385.72,-462.11"/>
<text text-anchor="middle" x="393.98" y="-463.14" font-family="Times,serif" font-size="14.00">*0</text>
</g>
<!-- node4&#45;&gt;node6 -->
<g id="edge14" class="edge">
<title>node4:prj5&#45;&gt;node6</title>
<path fill="none" stroke="red" d="M357.5,-492C357.5,-483.23 358.08,-473.81 358.88,-465"/>
<polygon fill="red" stroke="red" points="362.37,-465.3 359.91,-455 355.41,-464.59 362.37,-465.3"/>
</g>
<!-- node21 -->
<g id="node14" class="node">
<title>node21</title>
<polygon fill="lightgrey" stroke="black" points="748,-264 473,-264 473,-228 748,-228 748,-264"/>
<text text-anchor="middle" x="610.5" y="-242.3" font-family="Times,serif" font-size="14.00">#21 Merge : EndOfGuardedBlock18</text>
</g>
<!-- node4&#45;&gt;node21 -->
<g id="edge25" class="edge">
<title>node4:prj17&#45;&gt;node21</title>
<path fill="none" stroke="red" d="M467.5,-492C467.5,-405.33 485.05,-378.99 537.5,-310 548.74,-295.21 563.95,-281.41 577.58,-270.51"/>
<polygon fill="red" stroke="red" points="580.06,-273.02 585.81,-264.12 575.77,-267.49 580.06,-273.02"/>
</g>
<!-- node3&#45;&gt;node4 -->
<g id="edge6" class="edge">
<title>node3&#45;&gt;node4</title>
<path fill="none" stroke="red" d="M405.45,-582.64C406.32,-574.9 407.39,-565.46 408.42,-556.29"/>
<polygon fill="red" stroke="red" points="411.92,-556.48 409.56,-546.15 404.96,-555.69 411.92,-556.48"/>
</g>
<!-- node2&#45;&gt;node3 -->
<g id="edge8" class="edge">
<title>node2&#45;&gt;node3</title>
<path fill="none" stroke="red" d="M403.5,-655.81C403.5,-647.79 403.5,-638.05 403.5,-629.07"/>
<polygon fill="red" stroke="red" points="407,-629.03 403.5,-619.03 400,-629.03 407,-629.03"/>
</g>
<!-- node15 -->
<g id="node11" class="node">
<title>node15</title>
<polygon fill="lightgrey" stroke="black" points="375,-182 100,-182 100,-146 375,-146 375,-182"/>
<text text-anchor="middle" x="237.5" y="-160.3" font-family="Times,serif" font-size="14.00">#15 Merge : EndOfGuardedBlock24</text>
</g>
<!-- node14&#45;&gt;node15 -->
<g id="edge18" class="edge">
<title>node14&#45;&gt;node15</title>
<path fill="none" stroke="red" d="M317.62,-227.84C302.96,-216.34 283.48,-201.07 267.4,-188.45"/>
<polygon fill="red" stroke="red" points="269.37,-185.55 259.35,-182.13 265.05,-191.06 269.37,-185.55"/>
</g>
<!-- node8 -->
<g id="node8" class="node">
<title>node8</title>
<polygon fill="lightgrey" stroke="transparent" points="264.5,-364 110.5,-364 110.5,-310 264.5,-310 264.5,-364"/>
<polygon fill="none" stroke="black" points="110.5,-337 110.5,-364 264.5,-364 264.5,-337 110.5,-337"/>
<text text-anchor="start" x="116.5" y="-346.8" font-family="Times,serif" font-size="14.00">#8 ExceptionGuard</text>
<polygon fill="yellow" stroke="transparent" points="110.5,-310 110.5,-337 154.5,-337 154.5,-310 110.5,-310"/>
<polygon fill="none" stroke="black" points="110.5,-310 110.5,-337 154.5,-337 154.5,-310 110.5,-310"/>
<text text-anchor="start" x="119.5" y="-319.8" font-family="Times,serif" font-size="14.00">any</text>
<polygon fill="yellow" stroke="transparent" points="154.5,-310 154.5,-337 220.5,-337 220.5,-310 154.5,-310"/>
<polygon fill="none" stroke="black" points="154.5,-310 154.5,-337 220.5,-337 220.5,-310 154.5,-310"/>
<text text-anchor="start" x="162" y="-319.8" font-family="Times,serif" font-size="14.00">default</text>
<polygon fill="yellow" stroke="transparent" points="220.5,-310 220.5,-337 264.5,-337 264.5,-310 220.5,-310"/>
<polygon fill="none" stroke="black" points="220.5,-310 220.5,-337 264.5,-337 264.5,-310 220.5,-310"/>
<text text-anchor="start" x="228.5" y="-319.8" font-family="Times,serif" font-size="14.00">exit</text>
</g>
<!-- node8&#45;&gt;node14 -->
<g id="edge11" class="edge">
<title>node8:prj13&#45;&gt;node14</title>
<path fill="none" stroke="red" d="M187.5,-310C187.5,-274.34 223.65,-258.48 260.69,-251.58"/>
<polygon fill="red" stroke="red" points="261.32,-255.03 270.62,-249.94 260.18,-248.12 261.32,-255.03"/>
</g>
<!-- node8&#45;&gt;node15 -->
<g id="edge19" class="edge">
<title>node8:prj12&#45;&gt;node15</title>
<path fill="none" stroke="red" d="M242.5,-310C242.5,-269.13 240.49,-221.81 239.02,-192.64"/>
<polygon fill="red" stroke="red" points="242.5,-192.21 238.49,-182.4 235.51,-192.57 242.5,-192.21"/>
</g>
<!-- node10 -->
<g id="node12" class="node">
<title>node10</title>
<polygon fill="lightgrey" stroke="transparent" points="177,-273 0,-273 0,-219 177,-219 177,-273"/>
<polygon fill="none" stroke="black" points="0.5,-246 0.5,-273 177.5,-273 177.5,-246 0.5,-246"/>
<text text-anchor="start" x="6.5" y="-255.8" font-family="Times,serif" font-size="14.00">#10 Catch : Throwable</text>
<polygon fill="yellow" stroke="transparent" points="0.5,-219 0.5,-246 177.5,-246 177.5,-219 0.5,-219"/>
<polygon fill="none" stroke="black" points="0.5,-219 0.5,-246 177.5,-246 177.5,-219 0.5,-219"/>
<text text-anchor="start" x="10" y="-228.8" font-family="Times,serif" font-size="14.00">exception : Throwable</text>
</g>
<!-- node8&#45;&gt;node10 -->
<g id="edge20" class="edge">
<title>node8&#45;&gt;node10</title>
<path fill="none" stroke="black" d="M158.33,-309.78C147.86,-300.36 135.92,-289.63 124.9,-279.73"/>
<polygon fill="black" stroke="black" points="127.24,-277.12 117.46,-273.03 122.56,-282.32 127.24,-277.12"/>
<text text-anchor="middle" x="136.59" y="-275.17" font-family="Times,serif" font-size="14.00">*0</text>
</g>
<!-- node8&#45;&gt;node10 -->
<g id="edge21" class="edge">
<title>node8:prj9&#45;&gt;node10</title>
<path fill="none" stroke="red" d="M132.5,-310C132.5,-299.79 128.57,-290.06 123.06,-281.43"/>
<polygon fill="red" stroke="red" points="125.8,-279.25 117.11,-273.19 120.13,-283.35 125.8,-279.25"/>
</g>
<!-- node6&#45;&gt;node8 -->
<g id="edge12" class="edge">
<title>node6&#45;&gt;node8</title>
<path fill="none" stroke="red" d="M311.65,-400.78C291.68,-390.68 268.72,-379.07 248.01,-368.6"/>
<polygon fill="red" stroke="red" points="249.49,-365.42 238.98,-364.03 246.33,-371.67 249.49,-365.42"/>
</g>
<!-- node6&#45;&gt;node16 -->
<g id="edge15" class="edge">
<title>node6:prj7&#45;&gt;node16</title>
<path fill="none" stroke="black" d="M449.5,-414C483.46,-414 441.5,-371.96 441.5,-338 441.5,-338 441.5,-338 441.5,-163 441.5,-131.33 410.15,-113.48 379.5,-103.61"/>
<polygon fill="black" stroke="black" points="380.2,-100.16 369.62,-100.67 378.21,-106.87 380.2,-100.16"/>
<text text-anchor="middle" x="389.4" y="-94.03" font-family="Times,serif" font-size="14.00">*0</text>
</g>
<!-- node15&#45;&gt;node16 -->
<g id="edge16" class="edge">
<title>node15&#45;&gt;node16</title>
<path fill="none" stroke="red" d="M257.83,-145.81C268.56,-136.74 281.89,-125.48 293.58,-115.6"/>
<polygon fill="red" stroke="red" points="295.98,-118.16 301.35,-109.03 291.46,-112.81 295.98,-118.16"/>
</g>
<!-- node20&#45;&gt;node21 -->
<g id="edge24" class="edge">
<title>node20&#45;&gt;node21</title>
<path fill="none" stroke="red" d="M613.73,-318.84C613.16,-306.28 612.39,-288.98 611.74,-274.5"/>
<polygon fill="red" stroke="red" points="615.21,-273.94 611.27,-264.11 608.22,-274.25 615.21,-273.94"/>
</g>
<!-- node22 -->
<g id="node15" class="node">
<title>node22</title>
<polygon fill="lightgrey" stroke="black" points="653,-182 568,-182 568,-146 653,-146 653,-182"/>
<text text-anchor="middle" x="610.5" y="-160.3" font-family="Times,serif" font-size="14.00">#22 Goto</text>
</g>
<!-- node21&#45;&gt;node22 -->
<g id="edge26" class="edge">
<title>node21&#45;&gt;node22</title>
<path fill="none" stroke="red" d="M610.5,-227.64C610.5,-217.3 610.5,-203.94 610.5,-192.22"/>
<polygon fill="red" stroke="red" points="614,-192.05 610.5,-182.05 607,-192.05 614,-192.05"/>
</g>
<!-- node23 -->
<g id="node16" class="node">
<title>node23</title>
<polygon fill="lightgrey" stroke="black" points="674.5,-109 546.5,-109 546.5,-73 674.5,-73 674.5,-109"/>
<text text-anchor="middle" x="610.5" y="-87.3" font-family="Times,serif" font-size="14.00">#23 LabelNode</text>
</g>
<!-- node22&#45;&gt;node23 -->
<g id="edge27" class="edge">
<title>node22&#45;&gt;node23</title>
<path fill="none" stroke="red" d="M610.5,-145.81C610.5,-137.79 610.5,-128.05 610.5,-119.07"/>
<polygon fill="red" stroke="red" points="614,-119.03 610.5,-109.03 607,-119.03 614,-119.03"/>
</g>
<!-- node23&#45;&gt;node24 -->
<g id="edge28" class="edge">
<title>node23&#45;&gt;node24</title>
<path fill="none" stroke="red" d="M610.5,-72.81C610.5,-64.79 610.5,-55.05 610.5,-46.07"/>
<polygon fill="red" stroke="red" points="614,-46.03 610.5,-36.03 607,-46.03 614,-46.03"/>
</g>
<!-- c0 -->
<!-- c1 -->
<!-- c0&#45;&gt;c1 -->
<g id="edge30" class="edge">
<title>c0&#45;&gt;c1</title>
<path fill="none" stroke="red" d="M1503.39,-756C1514.61,-756 1572.74,-756 1598.36,-756"/>
<polygon fill="red" stroke="red" points="1598.56,-759.5 1608.56,-756 1598.56,-752.5 1598.56,-759.5"/>
<text text-anchor="middle" x="1556" y="-762.8" font-family="Times,serif" font-size="14.00">Control flow</text>
</g>
<!-- c2 -->
<!-- c3 -->
<!-- c2&#45;&gt;c3 -->
<g id="edge31" class="edge">
<title>c2&#45;&gt;c3</title>
<path fill="none" stroke="red" stroke-dasharray="5,2" d="M1296.58,-756C1313.55,-756 1429.71,-756 1467.58,-756"/>
<polygon fill="red" stroke="red" points="1467.67,-759.5 1477.67,-756 1467.67,-752.5 1467.67,-759.5"/>
<text text-anchor="middle" x="1387" y="-762.8" font-family="Times,serif" font-size="14.00">Control flow back edge</text>
</g>
<!-- d0 -->
<!-- d1 -->
<!-- d0&#45;&gt;d1 -->
<g id="edge32" class="edge">
<title>d0&#45;&gt;d1</title>
<path fill="none" stroke="black" d="M1185.36,-756C1194.91,-756 1238.81,-756 1260.42,-756"/>
<polygon fill="black" stroke="black" points="1260.65,-759.5 1270.65,-756 1260.65,-752.5 1260.65,-759.5"/>
<text text-anchor="middle" x="1228" y="-762.8" font-family="Times,serif" font-size="14.00">Data flow</text>
</g>
<!-- d2 -->
<!-- d3 -->
<!-- d2&#45;&gt;d3 -->
<g id="edge33" class="edge">
<title>d2&#45;&gt;d3</title>
<path fill="none" stroke="black" stroke-dasharray="1,5" d="M1059.31,-756C1069.96,-756 1124.96,-756 1149.58,-756"/>
<polygon fill="black" stroke="black" points="1149.65,-759.5 1159.65,-756 1149.65,-752.5 1149.65,-759.5"/>
<text text-anchor="middle" x="1109.5" y="-762.8" font-family="Times,serif" font-size="14.00">Declaration</text>
</g>
<!-- d4 -->
<!-- d5 -->
<!-- d4&#45;&gt;d5 -->
<g id="edge34" class="edge">
<title>d4&#45;&gt;d5</title>
<path fill="none" stroke="blue" d="M916.6,-756C929.22,-756 995.38,-756 1023.18,-756"/>
<polygon fill="blue" stroke="blue" points="1023.34,-759.5 1033.34,-756 1023.34,-752.5 1023.34,-759.5"/>
<text text-anchor="middle" x="975" y="-762.8" font-family="Times,serif" font-size="14.00">PHI Data flow</text>
</g>
<!-- d6 -->
<!-- d7 -->
<!-- d6&#45;&gt;d7 -->
<g id="edge35" class="edge">
<title>d6&#45;&gt;d7</title>
<path fill="none" stroke="green" d="M779.5,-756C791.44,-756 853.8,-756 880.43,-756"/>
<polygon fill="green" stroke="green" points="880.45,-759.5 890.45,-756 880.45,-752.5 880.45,-759.5"/>
<text text-anchor="middle" x="835" y="-762.8" font-family="Times,serif" font-size="14.00">Memory flow</text>
</g>
</g>
</svg>
