<?xml version="1.0" encoding="UTF-8" standalone="no"?>
<!DOCTYPE svg PUBLIC "-//W3C//DTD SVG 1.1//EN"
 "http://www.w3.org/Graphics/SVG/1.1/DTD/svg11.dtd">
<!-- Generated by graphviz version 2.43.0 (0)
 -->
<!-- Title: %3 Pages: 1 -->
<svg width="1239pt" height="824pt"
 viewBox="0.00 0.00 1239.00 823.80" xmlns="http://www.w3.org/2000/svg" xmlns:xlink="http://www.w3.org/1999/xlink">
<g id="graph0" class="graph" transform="scale(1 1) rotate(0) translate(4 819.8)">
<title>%3</title>
<polygon fill="white" stroke="transparent" points="-4,4 -4,-819.8 1235,-819.8 1235,4 -4,4"/>
<g id="clust1" class="cluster">
<title>cluster_0</title>
<polygon fill="none" stroke="lightgray" points="168,-430 168,-482 302,-482 302,-430 168,-430"/>
</g>
<g id="clust2" class="cluster">
<title>cluster_000</title>
<polygon fill="none" stroke="black" points="370,-765.2 370,-807.8 1223,-807.8 1223,-765.2 370,-765.2"/>
<text text-anchor="middle" x="796.5" y="-792.6" font-family="Times,serif" font-size="14.00">Legend</text>
</g>
<!-- node0 -->
<g id="node1" class="node">
<title>node0</title>
<polygon fill="lightgrey" stroke="transparent" points="360,-802 180,-802 180,-748 360,-748 360,-802"/>
<polygon fill="none" stroke="black" points="180,-775 180,-802 360,-802 360,-775 180,-775"/>
<text text-anchor="start" x="229.5" y="-784.8" font-family="Times,serif" font-size="14.00">#0 Method</text>
<polygon fill="yellow" stroke="transparent" points="180,-748 180,-775 360,-775 360,-748 180,-748"/>
<polygon fill="none" stroke="black" points="180,-748 180,-775 360,-775 360,-748 180,-748"/>
<text text-anchor="start" x="186" y="-757.8" font-family="Times,serif" font-size="14.00">this : SynchronizedTest</text>
</g>
<!-- node2 -->
<g id="node2" class="node">
<title>node2</title>
<polygon fill="lightgrey" stroke="black" points="263.5,-711 144.5,-711 144.5,-675 263.5,-675 263.5,-711"/>
<text text-anchor="middle" x="204" y="-689.3" font-family="Times,serif" font-size="14.00">#2 LabelNode</text>
</g>
<!-- node0&#45;&gt;node2 -->
<g id="edge1" class="edge">
<title>node0&#45;&gt;node2</title>
<path fill="none" stroke="red" d="M248.39,-747.81C240.79,-738.59 232.27,-728.27 224.75,-719.15"/>
<polygon fill="red" stroke="red" points="227.23,-716.66 218.17,-711.17 221.83,-721.12 227.23,-716.66"/>
</g>
<!-- node3 -->
<g id="node3" class="node">
<title>node3</title>
<polygon fill="lightgrey" stroke="black" points="329,-638 189,-638 189,-602 329,-602 329,-638"/>
<text text-anchor="middle" x="259" y="-616.3" font-family="Times,serif" font-size="14.00">#3 MonitorEnter</text>
</g>
<!-- node0&#45;&gt;node3 -->
<g id="edge2" class="edge">
<title>node0:prj1&#45;&gt;node3</title>
<path fill="none" stroke="black" d="M270,-748C270,-715.54 275.82,-707.23 272,-675 270.95,-666.15 268.96,-656.65 266.85,-648.13"/>
<polygon fill="black" stroke="black" points="270.2,-647.1 264.27,-638.32 263.43,-648.88 270.2,-647.1"/>
<text text-anchor="middle" x="277.06" y="-650" font-family="Times,serif" font-size="14.00">*0</text>
</g>
<!-- node8 -->
<g id="node4" class="node">
<title>node8</title>
<polygon fill="lightgrey" stroke="black" points="298,-401 28,-401 28,-365 298,-365 298,-401"/>
<text text-anchor="middle" x="163" y="-379.3" font-family="Times,serif" font-size="14.00">#8 Invoke virtual compute : (int)int</text>
</g>
<!-- node0&#45;&gt;node8 -->
<g id="edge4" class="edge">
<title>node0:prj1&#45;&gt;node8</title>
<path fill="none" stroke="black" d="M361,-761C355.78,-761 364,-697.78 364,-694 364,-694 364,-694 364,-455 364,-431.96 318.05,-414.94 270.06,-403.35"/>
<polygon fill="black" stroke="black" points="270.66,-399.89 260.12,-401.03 269.07,-406.71 270.66,-399.89"/>
<text text-anchor="middle" x="279.7" y="-393.22" font-family="Times,serif" font-size="14.00">*0</text>
</g>
<!-- node0&#45;&gt;node8 -->
<g id="edge7" class="edge">
<title>node0&#45;&gt;node8</title>
<path fill="none" stroke="green" d="M361.3,-760.99C373.91,-760.02 382,-697.75 382,-694 382,-694 382,-694 382,-455 382,-431.91 335.86,-414.86 285.9,-403.27"/>
<polygon fill="green" stroke="green" points="286.4,-399.8 275.88,-401.03 284.87,-406.63 286.4,-399.8"/>
</g>
<!-- node9 -->
<g id="node8" class="node">
<title>node9</title>
<polygon fill="lightgrey" stroke="black" points="227,-328 99,-328 99,-292 227,-292 227,-328"/>
<text text-anchor="middle" x="163" y="-306.3" font-family="Times,serif" font-size="14.00">#9 MonitorExit</text>
</g>
<!-- node0&#45;&gt;node9 -->
<g id="edge11" class="edge">
<title>node0:prj1&#45;&gt;node9</title>
<path fill="none" stroke="black" d="M179,-761C136.53,-761 0,-736.47 0,-694 0,-694 0,-694 0,-382 0,-340.19 45.63,-322.75 88.61,-315.59"/>
<polygon fill="black" stroke="black" points="89.21,-319.04 98.58,-314.1 88.17,-312.12 89.21,-319.04"/>
<text text-anchor="middle" x="81.9" y="-321.44" font-family="Times,serif" font-size="14.00">*0</text>
</g>
<!-- node2&#45;&gt;node3 -->
<g id="edge3" class="edge">
<title>node2&#45;&gt;node3</title>
<path fill="none" stroke="red" d="M217.31,-674.81C224,-666.18 232.23,-655.56 239.61,-646.03"/>
<polygon fill="red" stroke="red" points="242.45,-648.08 245.81,-638.03 236.92,-643.79 242.45,-648.08"/>
</g>
<!-- node4 -->
<g id="node6" class="node">
<title>node4</title>
<polygon fill="lightgrey" stroke="transparent" points="336,-565 182,-565 182,-511 336,-511 336,-565"/>
<polygon fill="none" stroke="black" points="182,-538 182,-565 336,-565 336,-538 182,-538"/>
<text text-anchor="start" x="188" y="-547.8" font-family="Times,serif" font-size="14.00">#4 ExceptionGuard</text>
<polygon fill="yellow" stroke="transparent" points="182,-511 182,-538 270,-538 270,-511 182,-511"/>
<polygon fill="none" stroke="black" points="182,-511 182,-538 270,-538 270,-511 182,-511"/>
<text text-anchor="start" x="200.5" y="-520.8" font-family="Times,serif" font-size="14.00">default</text>
<polygon fill="yellow" stroke="transparent" points="270,-511 270,-538 336,-538 336,-511 270,-511"/>
<polygon fill="none" stroke="black" points="270,-511 270,-538 336,-538 336,-511 270,-511"/>
<text text-anchor="start" x="289" y="-520.8" font-family="Times,serif" font-size="14.00">exit</text>
</g>
<!-- node3&#45;&gt;node4 -->
<g id="edge8" class="edge">
<title>node3&#45;&gt;node4</title>
<path fill="none" stroke="red" d="M259,-601.64C259,-593.9 259,-584.46 259,-575.29"/>
<polygon fill="red" stroke="red" points="262.5,-575.15 259,-565.15 255.5,-575.15 262.5,-575.15"/>
</g>
<!-- node8&#45;&gt;node9 -->
<g id="edge12" class="edge">
<title>node8&#45;&gt;node9</title>
<path fill="none" stroke="red" d="M163,-364.81C163,-356.79 163,-347.05 163,-338.07"/>
<polygon fill="red" stroke="red" points="166.5,-338.03 163,-328.03 159.5,-338.03 166.5,-338.03"/>
</g>
<!-- node13 -->
<g id="node11" class="node">
<title>node13</title>
<polygon fill="lightgrey" stroke="black" points="299.5,-36 198.5,-36 198.5,0 299.5,0 299.5,-36"/>
<text text-anchor="middle" x="249" y="-14.3" font-family="Times,serif" font-size="14.00">#13 Return</text>
</g>
<!-- node8&#45;&gt;node13 -->
<g id="edge16" class="edge">
<title>node8&#45;&gt;node13</title>
<path fill="none" stroke="green" d="M232.72,-364.92C287.77,-347.36 360.95,-314.02 396,-255 431.7,-194.89 378.4,-139.76 322,-73 312,-61.16 298.91,-50.45 286.59,-41.75"/>
<polygon fill="green" stroke="green" points="288.46,-38.79 278.22,-36.06 284.52,-44.58 288.46,-38.79"/>
</g>
<!-- node7 -->
<g id="node5" class="node">
<title>node7</title>
<polygon fill="lightgreen" stroke="black" points="294.19,-448.54 294.19,-463.46 259.52,-474 210.48,-474 175.81,-463.46 175.81,-448.54 210.48,-438 259.52,-438 294.19,-448.54"/>
<text text-anchor="middle" x="235" y="-452.3" font-family="Times,serif" font-size="14.00">#7 int 10</text>
</g>
<!-- node7&#45;&gt;node8 -->
<g id="edge5" class="edge">
<title>node7&#45;&gt;node8</title>
<path fill="none" stroke="black" d="M217.57,-437.81C208.55,-428.92 197.39,-417.91 187.51,-408.17"/>
<polygon fill="black" stroke="black" points="189.85,-405.56 180.27,-401.03 184.93,-410.54 189.85,-405.56"/>
<text text-anchor="middle" x="199.11" y="-404.04" font-family="Times,serif" font-size="14.00">*1</text>
</g>
<!-- node4&#45;&gt;node8 -->
<g id="edge6" class="edge">
<title>node4:prj6&#45;&gt;node8</title>
<path fill="none" stroke="red" d="M181,-524C135.91,-524 146.34,-451.69 155.77,-411"/>
<polygon fill="red" stroke="red" points="159.2,-411.71 158.17,-401.17 152.4,-410.05 159.2,-411.71"/>
</g>
<!-- node4&#45;&gt;node7 -->
<g id="edge17" class="edge">
<title>node4:prj6&#45;&gt;node7</title>
<path fill="none" stroke="black" stroke-dasharray="1,5" d="M226,-511C226,-502.22 227.17,-492.74 228.67,-484.21"/>
<polygon fill="black" stroke="black" points="232.11,-484.88 230.61,-474.39 225.24,-483.52 232.11,-484.88"/>
</g>
<!-- node10 -->
<g id="node7" class="node">
<title>node10</title>
<polygon fill="lightgrey" stroke="black" points="386.5,-255 111.5,-255 111.5,-219 386.5,-219 386.5,-255"/>
<text text-anchor="middle" x="249" y="-233.3" font-family="Times,serif" font-size="14.00">#10 Merge : EndOfGuardedBlock18</text>
</g>
<!-- node4&#45;&gt;node10 -->
<g id="edge10" class="edge">
<title>node4:prj5&#45;&gt;node10</title>
<path fill="none" stroke="red" d="M303,-511C303,-484.91 326,-483.09 326,-457 326,-457 326,-457 326,-309 326,-288.72 311.38,-272.63 294.88,-260.93"/>
<polygon fill="red" stroke="red" points="296.43,-257.76 286.15,-255.21 292.6,-263.62 296.43,-257.76"/>
</g>
<!-- node11 -->
<g id="node9" class="node">
<title>node11</title>
<polygon fill="lightgrey" stroke="black" points="291.5,-182 206.5,-182 206.5,-146 291.5,-146 291.5,-182"/>
<text text-anchor="middle" x="249" y="-160.3" font-family="Times,serif" font-size="14.00">#11 Goto</text>
</g>
<!-- node10&#45;&gt;node11 -->
<g id="edge13" class="edge">
<title>node10&#45;&gt;node11</title>
<path fill="none" stroke="red" d="M249,-218.81C249,-210.79 249,-201.05 249,-192.07"/>
<polygon fill="red" stroke="red" points="252.5,-192.03 249,-182.03 245.5,-192.03 252.5,-192.03"/>
</g>
<!-- node9&#45;&gt;node10 -->
<g id="edge9" class="edge">
<title>node9&#45;&gt;node10</title>
<path fill="none" stroke="red" d="M183.82,-291.81C194.8,-282.74 208.45,-271.48 220.41,-261.6"/>
<polygon fill="red" stroke="red" points="222.89,-264.09 228.37,-255.03 218.43,-258.7 222.89,-264.09"/>
</g>
<!-- node12 -->
<g id="node10" class="node">
<title>node12</title>
<polygon fill="lightgrey" stroke="black" points="313,-109 185,-109 185,-73 313,-73 313,-109"/>
<text text-anchor="middle" x="249" y="-87.3" font-family="Times,serif" font-size="14.00">#12 LabelNode</text>
</g>
<!-- node11&#45;&gt;node12 -->
<g id="edge14" class="edge">
<title>node11&#45;&gt;node12</title>
<path fill="none" stroke="red" d="M249,-145.81C249,-137.79 249,-128.05 249,-119.07"/>
<polygon fill="red" stroke="red" points="252.5,-119.03 249,-109.03 245.5,-119.03 252.5,-119.03"/>
</g>
<!-- node12&#45;&gt;node13 -->
<g id="edge15" class="edge">
<title>node12&#45;&gt;node13</title>
<path fill="none" stroke="red" d="M249,-72.81C249,-64.79 249,-55.05 249,-46.07"/>
<polygon fill="red" stroke="red" points="252.5,-46.03 249,-36.03 245.5,-46.03 252.5,-46.03"/>
</g>
<!-- c0 -->
<!-- c1 -->
<!-- c0&#45;&gt;c1 -->
<g id="edge18" class="edge">
<title>c0&#45;&gt;c1</title>
<path fill="none" stroke="red" d="M1105.89,-775C1117.11,-775 1175.24,-775 1200.86,-775"/>
<polygon fill="red" stroke="red" points="1201.06,-778.5 1211.06,-775 1201.06,-771.5 1201.06,-778.5"/>
<text text-anchor="middle" x="1158.5" y="-781.8" font-family="Times,serif" font-size="14.00">Control flow</text>
</g>
<!-- c2 -->
<!-- c3 -->
<!-- c2&#45;&gt;c3 -->
<g id="edge19" class="edge">
<title>c2&#45;&gt;c3</title>
<path fill="none" stroke="red" stroke-dasharray="5,2" d="M899.08,-775C916.05,-775 1032.21,-775 1070.08,-775"/>
<polygon fill="red" stroke="red" points="1070.17,-778.5 1080.17,-775 1070.17,-771.5 1070.17,-778.5"/>
<text text-anchor="middle" x="989.5" y="-781.8" font-family="Times,serif" font-size="14.00">Control flow back edge</text>
</g>
<!-- d0 -->
<!-- d1 -->
<!-- d0&#45;&gt;d1 -->
<g id="edge20" class="edge">
<title>d0&#45;&gt;d1</title>
<path fill="none" stroke="black" d="M787.86,-775C797.41,-775 841.31,-775 862.92,-775"/>
<polygon fill="black" stroke="black" points="863.15,-778.5 873.15,-775 863.15,-771.5 863.15,-778.5"/>
<text text-anchor="middle" x="830.5" y="-781.8" font-family="Times,serif" font-size="14.00">Data flow</text>
</g>
<!-- d2 -->
<!-- d3 -->
<!-- d2&#45;&gt;d3 -->
<g id="edge21" class="edge">
<title>d2&#45;&gt;d3</title>
<path fill="none" stroke="black" stroke-dasharray="1,5" d="M661.81,-775C672.46,-775 727.46,-775 752.08,-775"/>
<polygon fill="black" stroke="black" points="752.15,-778.5 762.15,-775 752.15,-771.5 752.15,-778.5"/>
<text text-anchor="middle" x="712" y="-781.8" font-family="Times,serif" font-size="14.00">Declaration</text>
</g>
<!-- d4 -->
<!-- d5 -->
<!-- d4&#45;&gt;d5 -->
<g id="edge22" class="edge">
<title>d4&#45;&gt;d5</title>
<path fill="none" stroke="blue" d="M519.1,-775C531.72,-775 597.88,-775 625.68,-775"/>
<polygon fill="blue" stroke="blue" points="625.84,-778.5 635.84,-775 625.84,-771.5 625.84,-778.5"/>
<text text-anchor="middle" x="577.5" y="-781.8" font-family="Times,serif" font-size="14.00">PHI Data flow</text>
</g>
<!-- d6 -->
<!-- d7 -->
<!-- d6&#45;&gt;d7 -->
<g id="edge23" class="edge">
<title>d6&#45;&gt;d7</title>
<path fill="none" stroke="green" d="M382,-775C393.94,-775 456.3,-775 482.93,-775"/>
<polygon fill="green" stroke="green" points="482.95,-778.5 492.95,-775 482.95,-771.5 482.95,-778.5"/>
<text text-anchor="middle" x="437.5" y="-781.8" font-family="Times,serif" font-size="14.00">Memory flow</text>
</g>
</g>
</svg>
