<?xml version="1.0" encoding="UTF-8" standalone="no"?>
<!DOCTYPE svg PUBLIC "-//W3C//DTD SVG 1.1//EN"
 "http://www.w3.org/Graphics/SVG/1.1/DTD/svg11.dtd">
<!-- Generated by graphviz version 2.43.0 (0)
 -->
<!-- Title: %3 Pages: 1 -->
<svg width="1474pt" height="842pt"
 viewBox="0.00 0.00 1473.50 841.80" xmlns="http://www.w3.org/2000/svg" xmlns:xlink="http://www.w3.org/1999/xlink">
<g id="graph0" class="graph" transform="scale(1 1) rotate(0) translate(4 837.8)">
<title>%3</title>
<polygon fill="white" stroke="transparent" points="-4,4 -4,-837.8 1469.5,-837.8 1469.5,4 -4,4"/>
<g id="clust1" class="cluster">
<title>cluster_0</title>
<polygon fill="none" stroke="lightgray" points="358.5,-439 358.5,-491 504.5,-491 504.5,-439 358.5,-439"/>
</g>
<g id="clust2" class="cluster">
<title>cluster_000</title>
<polygon fill="none" stroke="black" points="604.5,-783.2 604.5,-825.8 1457.5,-825.8 1457.5,-783.2 604.5,-783.2"/>
<text text-anchor="middle" x="1031" y="-810.6" font-family="Times,serif" font-size="14.00">Legend</text>
</g>
<!-- node0 -->
<g id="node1" class="node">
<title>node0</title>
<polygon fill="lightgrey" stroke="transparent" points="594.5,-820 414.5,-820 414.5,-766 594.5,-766 594.5,-820"/>
<polygon fill="none" stroke="black" points="414.5,-793 414.5,-820 594.5,-820 594.5,-793 414.5,-793"/>
<text text-anchor="start" x="464" y="-802.8" font-family="Times,serif" font-size="14.00">#0 Method</text>
<polygon fill="yellow" stroke="transparent" points="414.5,-766 414.5,-793 594.5,-793 594.5,-766 414.5,-766"/>
<polygon fill="none" stroke="black" points="414.5,-766 414.5,-793 594.5,-793 594.5,-766 414.5,-766"/>
<text text-anchor="start" x="420.5" y="-775.8" font-family="Times,serif" font-size="14.00">this : SynchronizedTest</text>
</g>
<!-- node13 -->
<g id="node2" class="node">
<title>node13</title>
<polygon fill="lightgrey" stroke="black" points="511,-401 232,-401 232,-365 511,-365 511,-401"/>
<text text-anchor="middle" x="371.5" y="-379.3" font-family="Times,serif" font-size="14.00">#13 Invoke virtual compute : (int)int</text>
</g>
<!-- node0&#45;&gt;node13 -->
<g id="edge1" class="edge">
<title>node0:prj1&#45;&gt;node13</title>
<path fill="none" stroke="black" d="M595.5,-779C601.52,-779 577.5,-727.02 577.5,-712 577.5,-712 577.5,-712 577.5,-464 577.5,-437.56 519.66,-417.03 465.24,-403.38"/>
<polygon fill="black" stroke="black" points="466.03,-399.97 455.49,-401 464.37,-406.77 466.03,-399.97"/>
<text text-anchor="middle" x="475.1" y="-393.39" font-family="Times,serif" font-size="14.00">*0</text>
</g>
<!-- node0&#45;&gt;node13 -->
<g id="edge4" class="edge">
<title>node0&#45;&gt;node13</title>
<path fill="none" stroke="green" d="M595.78,-779C619.34,-778.59 595.5,-726.96 595.5,-712 595.5,-712 595.5,-712 595.5,-464 595.5,-437.5 537.42,-416.94 480.37,-403.3"/>
<polygon fill="green" stroke="green" points="481.03,-399.86 470.5,-401 479.44,-406.68 481.03,-399.86"/>
</g>
<!-- node3 -->
<g id="node5" class="node">
<title>node3</title>
<polygon fill="lightgrey" stroke="black" points="486.5,-656 346.5,-656 346.5,-620 486.5,-620 486.5,-656"/>
<text text-anchor="middle" x="416.5" y="-634.3" font-family="Times,serif" font-size="14.00">#3 MonitorEnter</text>
</g>
<!-- node0&#45;&gt;node3 -->
<g id="edge6" class="edge">
<title>node0:prj1&#45;&gt;node3</title>
<path fill="none" stroke="black" d="M504.5,-766C504.5,-732.36 503.03,-721.07 484.5,-693 476.69,-681.17 465.44,-670.75 454.34,-662.29"/>
<polygon fill="black" stroke="black" points="456.09,-659.24 445.93,-656.22 451.99,-664.91 456.09,-659.24"/>
<text text-anchor="middle" x="465.57" y="-656.28" font-family="Times,serif" font-size="14.00">*0</text>
</g>
<!-- node2 -->
<g id="node6" class="node">
<title>node2</title>
<polygon fill="lightgrey" stroke="black" points="476,-729 357,-729 357,-693 476,-693 476,-729"/>
<text text-anchor="middle" x="416.5" y="-707.3" font-family="Times,serif" font-size="14.00">#2 LabelNode</text>
</g>
<!-- node0&#45;&gt;node2 -->
<g id="edge8" class="edge">
<title>node0&#45;&gt;node2</title>
<path fill="none" stroke="red" d="M475.69,-765.81C465.14,-756.22 453.27,-745.43 442.94,-736.04"/>
<polygon fill="red" stroke="red" points="445.15,-733.31 435.39,-729.17 440.44,-738.49 445.15,-733.31"/>
</g>
<!-- node14 -->
<g id="node7" class="node">
<title>node14</title>
<polygon fill="lightgrey" stroke="black" points="705,-328 568,-328 568,-292 705,-292 705,-328"/>
<text text-anchor="middle" x="636.5" y="-306.3" font-family="Times,serif" font-size="14.00">#14 MonitorExit</text>
</g>
<!-- node0&#45;&gt;node14 -->
<g id="edge9" class="edge">
<title>node0:prj1&#45;&gt;node14</title>
<path fill="none" stroke="black" d="M595.5,-779C601.69,-779 597.13,-771.19 600.5,-766 606.66,-756.51 611.99,-757.25 618.5,-748 628.68,-733.53 635.5,-729.69 635.5,-712 635.5,-712 635.5,-712 635.5,-382 635.5,-367.65 635.71,-351.67 635.93,-338.51"/>
<polygon fill="black" stroke="black" points="639.44,-338.28 636.12,-328.22 632.44,-338.15 639.44,-338.28"/>
<text text-anchor="middle" x="644.24" y="-342.79" font-family="Times,serif" font-size="14.00">*0</text>
</g>
<!-- node11 -->
<g id="node12" class="node">
<title>node11</title>
<polygon fill="lightgrey" stroke="black" points="137,-328 0,-328 0,-292 137,-292 137,-328"/>
<text text-anchor="middle" x="68.5" y="-306.3" font-family="Times,serif" font-size="14.00">#11 MonitorExit</text>
</g>
<!-- node0&#45;&gt;node11 -->
<g id="edge17" class="edge">
<title>node0:prj1&#45;&gt;node11</title>
<path fill="none" stroke="black" d="M413.5,-779C369.09,-779 19.5,-756.41 19.5,-712 19.5,-712 19.5,-712 19.5,-382 19.5,-364.39 29.84,-347.98 41.02,-335.38"/>
<polygon fill="black" stroke="black" points="43.64,-337.7 48,-328.05 38.57,-332.87 43.64,-337.7"/>
<text text-anchor="middle" x="41.62" y="-343.3" font-family="Times,serif" font-size="14.00">*0</text>
</g>
<!-- node17 -->
<g id="node15" class="node">
<title>node17</title>
<polygon fill="lightgrey" stroke="black" points="220.5,-182 124.5,-182 124.5,-146 220.5,-146 220.5,-182"/>
<text text-anchor="middle" x="172.5" y="-160.3" font-family="Times,serif" font-size="14.00">#17 Throw</text>
</g>
<!-- node0&#45;&gt;node17 -->
<g id="edge24" class="edge">
<title>node0&#45;&gt;node17</title>
<path fill="none" stroke="green" d="M594.81,-768.32C608.08,-762.79 621.09,-756.09 632.5,-748 641.28,-741.78 643.14,-738.84 647.5,-729 740.12,-519.86 870.04,-388.54 716.5,-219 700.36,-201.17 368.66,-177.72 231.29,-168.73"/>
<polygon fill="green" stroke="green" points="231.16,-165.21 220.96,-168.05 230.71,-172.2 231.16,-165.21"/>
</g>
<!-- node13&#45;&gt;node14 -->
<g id="edge10" class="edge">
<title>node13&#45;&gt;node14</title>
<path fill="none" stroke="red" d="M434.97,-364.99C473.45,-354.68 522.7,-341.49 562.88,-330.72"/>
<polygon fill="red" stroke="red" points="563.87,-334.08 572.63,-328.11 562.06,-327.32 563.87,-334.08"/>
</g>
<!-- node20 -->
<g id="node11" class="node">
<title>node20</title>
<polygon fill="lightgrey" stroke="black" points="620,-36 519,-36 519,0 620,0 620,-36"/>
<text text-anchor="middle" x="569.5" y="-14.3" font-family="Times,serif" font-size="14.00">#20 Return</text>
</g>
<!-- node13&#45;&gt;node20 -->
<g id="edge16" class="edge">
<title>node13&#45;&gt;node20</title>
<path fill="none" stroke="green" d="M373.42,-364.79C377.65,-333.32 390.08,-265.44 422.5,-219 452.98,-175.34 470.06,-170.19 517.5,-146 569.12,-119.68 607.83,-155.42 642.5,-109 652.07,-96.18 649.7,-87.29 642.5,-73 636.1,-60.31 625.16,-49.87 613.67,-41.66"/>
<polygon fill="green" stroke="green" points="615.53,-38.69 605.26,-36.07 611.66,-44.52 615.53,-38.69"/>
</g>
<!-- node12 -->
<g id="node3" class="node">
<title>node12</title>
<polygon fill="lightgreen" stroke="black" points="496.85,-457.54 496.85,-472.46 458.57,-483 404.43,-483 366.15,-472.46 366.15,-457.54 404.43,-447 458.57,-447 496.85,-457.54"/>
<text text-anchor="middle" x="431.5" y="-461.3" font-family="Times,serif" font-size="14.00">#12 int 10</text>
</g>
<!-- node12&#45;&gt;node13 -->
<g id="edge2" class="edge">
<title>node12&#45;&gt;node13</title>
<path fill="none" stroke="black" d="M418.48,-446.64C410.25,-435.66 399.47,-421.29 390.32,-409.09"/>
<polygon fill="black" stroke="black" points="393.09,-406.95 384.29,-401.05 387.49,-411.15 393.09,-406.95"/>
<text text-anchor="middle" x="401.93" y="-406.78" font-family="Times,serif" font-size="14.00">*1</text>
</g>
<!-- node4 -->
<g id="node4" class="node">
<title>node4</title>
<polygon fill="lightgrey" stroke="transparent" points="421,-583 206,-583 206,-529 421,-529 421,-583"/>
<polygon fill="none" stroke="black" points="206.5,-556 206.5,-583 421.5,-583 421.5,-556 206.5,-556"/>
<text text-anchor="start" x="243" y="-565.8" font-family="Times,serif" font-size="14.00">#4 ExceptionGuard</text>
<polygon fill="yellow" stroke="transparent" points="206.5,-529 206.5,-556 318.5,-556 318.5,-529 206.5,-529"/>
<polygon fill="none" stroke="black" points="206.5,-529 206.5,-556 318.5,-556 318.5,-529 206.5,-529"/>
<text text-anchor="start" x="212.5" y="-538.8" font-family="Times,serif" font-size="14.00">catch : 0 : any</text>
<polygon fill="yellow" stroke="transparent" points="318.5,-529 318.5,-556 381.5,-556 381.5,-529 318.5,-529"/>
<polygon fill="none" stroke="black" points="318.5,-529 318.5,-556 381.5,-556 381.5,-529 318.5,-529"/>
<text text-anchor="start" x="324.5" y="-538.8" font-family="Times,serif" font-size="14.00">default</text>
<polygon fill="yellow" stroke="transparent" points="381.5,-529 381.5,-556 421.5,-556 421.5,-529 381.5,-529"/>
<polygon fill="none" stroke="black" points="381.5,-529 381.5,-556 421.5,-556 421.5,-529 381.5,-529"/>
<text text-anchor="start" x="387.5" y="-538.8" font-family="Times,serif" font-size="14.00">exit</text>
</g>
<!-- node4&#45;&gt;node13 -->
<g id="edge3" class="edge">
<title>node4:prj7&#45;&gt;node13</title>
<path fill="none" stroke="red" d="M350.5,-529C350.5,-488.52 347.47,-477.87 354.5,-438 356.09,-428.96 358.79,-419.32 361.57,-410.73"/>
<polygon fill="red" stroke="red" points="364.9,-411.82 364.81,-401.22 358.27,-409.56 364.9,-411.82"/>
</g>
<!-- node4&#45;&gt;node12 -->
<g id="edge26" class="edge">
<title>node4:prj7&#45;&gt;node12</title>
<path fill="none" stroke="black" stroke-dasharray="1,5" d="M350.5,-529C350.5,-509.13 365.88,-494.61 383.24,-484.56"/>
<polygon fill="black" stroke="black" points="385.22,-487.47 392.42,-479.7 381.95,-481.28 385.22,-487.47"/>
</g>
<!-- node15 -->
<g id="node8" class="node">
<title>node15</title>
<polygon fill="lightgrey" stroke="black" points="707,-255 432,-255 432,-219 707,-219 707,-255"/>
<text text-anchor="middle" x="569.5" y="-233.3" font-family="Times,serif" font-size="14.00">#15 Merge : EndOfGuardedBlock18</text>
</g>
<!-- node4&#45;&gt;node15 -->
<g id="edge12" class="edge">
<title>node4:prj8&#45;&gt;node15</title>
<path fill="none" stroke="red" d="M422.5,-542C484.51,-542 539.5,-528.01 539.5,-466 539.5,-466 539.5,-466 539.5,-309 539.5,-293.28 545.82,-277.03 552.66,-264.06"/>
<polygon fill="red" stroke="red" points="555.77,-265.67 557.64,-255.24 549.67,-262.22 555.77,-265.67"/>
</g>
<!-- node6 -->
<g id="node14" class="node">
<title>node6</title>
<polygon fill="lightgrey" stroke="transparent" points="303.5,-492 133.5,-492 133.5,-438 303.5,-438 303.5,-492"/>
<polygon fill="none" stroke="black" points="133.5,-465 133.5,-492 303.5,-492 303.5,-465 133.5,-465"/>
<text text-anchor="start" x="165.5" y="-474.8" font-family="Times,serif" font-size="14.00">#6 Catch : any</text>
<polygon fill="yellow" stroke="transparent" points="133.5,-438 133.5,-465 303.5,-465 303.5,-438 133.5,-438"/>
<polygon fill="none" stroke="black" points="133.5,-438 133.5,-465 303.5,-465 303.5,-438 133.5,-438"/>
<text text-anchor="start" x="139.5" y="-447.8" font-family="Times,serif" font-size="14.00">exception : Throwable</text>
</g>
<!-- node4&#45;&gt;node6 -->
<g id="edge20" class="edge">
<title>node4&#45;&gt;node6</title>
<path fill="none" stroke="black" d="M285.51,-528.78C275.56,-519.45 264.22,-508.83 253.74,-499.01"/>
<polygon fill="black" stroke="black" points="255.98,-496.32 246.29,-492.03 251.19,-501.43 255.98,-496.32"/>
<text text-anchor="middle" x="265.3" y="-494.56" font-family="Times,serif" font-size="14.00">*0</text>
</g>
<!-- node4&#45;&gt;node6 -->
<g id="edge21" class="edge">
<title>node4:prj5&#45;&gt;node6</title>
<path fill="none" stroke="red" d="M262.5,-529C262.5,-518.79 258.57,-509.06 253.06,-500.43"/>
<polygon fill="red" stroke="red" points="255.8,-498.25 247.11,-492.19 250.13,-502.35 255.8,-498.25"/>
</g>
<!-- node3&#45;&gt;node4 -->
<g id="edge5" class="edge">
<title>node3&#45;&gt;node4</title>
<path fill="none" stroke="red" d="M394.4,-619.84C383.05,-611.02 368.82,-599.97 355.48,-589.61"/>
<polygon fill="red" stroke="red" points="357.36,-586.64 347.32,-583.27 353.07,-592.17 357.36,-586.64"/>
</g>
<!-- node2&#45;&gt;node3 -->
<g id="edge7" class="edge">
<title>node2&#45;&gt;node3</title>
<path fill="none" stroke="red" d="M416.5,-692.81C416.5,-684.79 416.5,-675.05 416.5,-666.07"/>
<polygon fill="red" stroke="red" points="420,-666.03 416.5,-656.03 413,-666.03 420,-666.03"/>
</g>
<!-- node14&#45;&gt;node15 -->
<g id="edge11" class="edge">
<title>node14&#45;&gt;node15</title>
<path fill="none" stroke="red" d="M620.28,-291.81C611.97,-283 601.7,-272.13 592.58,-262.46"/>
<polygon fill="red" stroke="red" points="594.98,-259.9 585.57,-255.03 589.89,-264.7 594.98,-259.9"/>
</g>
<!-- node18 -->
<g id="node9" class="node">
<title>node18</title>
<polygon fill="lightgrey" stroke="black" points="612,-182 527,-182 527,-146 612,-146 612,-182"/>
<text text-anchor="middle" x="569.5" y="-160.3" font-family="Times,serif" font-size="14.00">#18 Goto</text>
</g>
<!-- node15&#45;&gt;node18 -->
<g id="edge13" class="edge">
<title>node15&#45;&gt;node18</title>
<path fill="none" stroke="red" d="M569.5,-218.81C569.5,-210.79 569.5,-201.05 569.5,-192.07"/>
<polygon fill="red" stroke="red" points="573,-192.03 569.5,-182.03 566,-192.03 573,-192.03"/>
</g>
<!-- node19 -->
<g id="node10" class="node">
<title>node19</title>
<polygon fill="lightgrey" stroke="black" points="633.5,-109 505.5,-109 505.5,-73 633.5,-73 633.5,-109"/>
<text text-anchor="middle" x="569.5" y="-87.3" font-family="Times,serif" font-size="14.00">#19 LabelNode</text>
</g>
<!-- node18&#45;&gt;node19 -->
<g id="edge14" class="edge">
<title>node18&#45;&gt;node19</title>
<path fill="none" stroke="red" d="M569.5,-145.81C569.5,-137.79 569.5,-128.05 569.5,-119.07"/>
<polygon fill="red" stroke="red" points="573,-119.03 569.5,-109.03 566,-119.03 573,-119.03"/>
</g>
<!-- node19&#45;&gt;node20 -->
<g id="edge15" class="edge">
<title>node19&#45;&gt;node20</title>
<path fill="none" stroke="red" d="M569.5,-72.81C569.5,-64.79 569.5,-55.05 569.5,-46.07"/>
<polygon fill="red" stroke="red" points="573,-46.03 569.5,-36.03 566,-46.03 573,-46.03"/>
</g>
<!-- node16 -->
<g id="node16" class="node">
<title>node16</title>
<polygon fill="lightgrey" stroke="black" points="135.5,-255 7.5,-255 7.5,-219 135.5,-219 135.5,-255"/>
<text text-anchor="middle" x="71.5" y="-233.3" font-family="Times,serif" font-size="14.00">#16 LabelNode</text>
</g>
<!-- node11&#45;&gt;node16 -->
<g id="edge25" class="edge">
<title>node11&#45;&gt;node16</title>
<path fill="none" stroke="red" d="M69.23,-291.81C69.57,-283.79 69.98,-274.05 70.36,-265.07"/>
<polygon fill="red" stroke="red" points="73.86,-265.17 70.78,-255.03 66.86,-264.87 73.86,-265.17"/>
</g>
<!-- node10 -->
<g id="node13" class="node">
<title>node10</title>
<polygon fill="lightgrey" stroke="black" points="175.5,-401 47.5,-401 47.5,-365 175.5,-365 175.5,-401"/>
<text text-anchor="middle" x="111.5" y="-379.3" font-family="Times,serif" font-size="14.00">#10 LabelNode</text>
</g>
<!-- node10&#45;&gt;node11 -->
<g id="edge18" class="edge">
<title>node10&#45;&gt;node11</title>
<path fill="none" stroke="red" d="M101.09,-364.81C95.97,-356.35 89.69,-345.98 84.01,-336.61"/>
<polygon fill="red" stroke="red" points="86.99,-334.77 78.81,-328.03 81,-338.4 86.99,-334.77"/>
</g>
<!-- node6&#45;&gt;node10 -->
<g id="edge19" class="edge">
<title>node6&#45;&gt;node10</title>
<path fill="none" stroke="red" d="M183.46,-437.81C170.27,-427.94 155.36,-416.79 142.55,-407.21"/>
<polygon fill="red" stroke="red" points="144.58,-404.36 134.47,-401.17 140.38,-409.97 144.58,-404.36"/>
</g>
<!-- node6&#45;&gt;node17 -->
<g id="edge22" class="edge">
<title>node6:prj9&#45;&gt;node17</title>
<path fill="none" stroke="black" d="M218.5,-438C218.5,-413.09 203.5,-408.91 203.5,-384 203.5,-384 203.5,-384 203.5,-236 203.5,-220.2 196.97,-203.95 189.91,-190.99"/>
<polygon fill="black" stroke="black" points="192.83,-189.05 184.75,-182.18 186.78,-192.58 192.83,-189.05"/>
<text text-anchor="middle" x="201.2" y="-189.86" font-family="Times,serif" font-size="14.00">*0</text>
</g>
<!-- node16&#45;&gt;node17 -->
<g id="edge23" class="edge">
<title>node16&#45;&gt;node17</title>
<path fill="none" stroke="red" d="M95.69,-218.99C108.84,-209.75 125.28,-198.19 139.58,-188.14"/>
<polygon fill="red" stroke="red" points="141.99,-190.73 148.16,-182.11 137.96,-185 141.99,-190.73"/>
</g>
<!-- c0 -->
<!-- c1 -->
<!-- c0&#45;&gt;c1 -->
<g id="edge27" class="edge">
<title>c0&#45;&gt;c1</title>
<path fill="none" stroke="red" d="M1340.39,-793C1351.61,-793 1409.74,-793 1435.36,-793"/>
<polygon fill="red" stroke="red" points="1435.56,-796.5 1445.56,-793 1435.56,-789.5 1435.56,-796.5"/>
<text text-anchor="middle" x="1393" y="-799.8" font-family="Times,serif" font-size="14.00">Control flow</text>
</g>
<!-- c2 -->
<!-- c3 -->
<!-- c2&#45;&gt;c3 -->
<g id="edge28" class="edge">
<title>c2&#45;&gt;c3</title>
<path fill="none" stroke="red" stroke-dasharray="5,2" d="M1133.58,-793C1150.55,-793 1266.71,-793 1304.58,-793"/>
<polygon fill="red" stroke="red" points="1304.67,-796.5 1314.67,-793 1304.67,-789.5 1304.67,-796.5"/>
<text text-anchor="middle" x="1224" y="-799.8" font-family="Times,serif" font-size="14.00">Control flow back edge</text>
</g>
<!-- d0 -->
<!-- d1 -->
<!-- d0&#45;&gt;d1 -->
<g id="edge29" class="edge">
<title>d0&#45;&gt;d1</title>
<path fill="none" stroke="black" d="M1022.36,-793C1031.91,-793 1075.81,-793 1097.42,-793"/>
<polygon fill="black" stroke="black" points="1097.65,-796.5 1107.65,-793 1097.65,-789.5 1097.65,-796.5"/>
<text text-anchor="middle" x="1065" y="-799.8" font-family="Times,serif" font-size="14.00">Data flow</text>
</g>
<!-- d2 -->
<!-- d3 -->
<!-- d2&#45;&gt;d3 -->
<g id="edge30" class="edge">
<title>d2&#45;&gt;d3</title>
<path fill="none" stroke="black" stroke-dasharray="1,5" d="M896.31,-793C906.96,-793 961.96,-793 986.58,-793"/>
<polygon fill="black" stroke="black" points="986.65,-796.5 996.65,-793 986.65,-789.5 986.65,-796.5"/>
<text text-anchor="middle" x="946.5" y="-799.8" font-family="Times,serif" font-size="14.00">Declaration</text>
</g>
<!-- d4 -->
<!-- d5 -->
<!-- d4&#45;&gt;d5 -->
<g id="edge31" class="edge">
<title>d4&#45;&gt;d5</title>
<path fill="none" stroke="blue" d="M753.6,-793C766.22,-793 832.38,-793 860.18,-793"/>
<polygon fill="blue" stroke="blue" points="860.34,-796.5 870.34,-793 860.34,-789.5 860.34,-796.5"/>
<text text-anchor="middle" x="812" y="-799.8" font-family="Times,serif" font-size="14.00">PHI Data flow</text>
</g>
<!-- d6 -->
<!-- d7 -->
<!-- d6&#45;&gt;d7 -->
<g id="edge32" class="edge">
<title>d6&#45;&gt;d7</title>
<path fill="none" stroke="green" d="M616.5,-793C628.44,-793 690.8,-793 717.43,-793"/>
<polygon fill="green" stroke="green" points="717.45,-796.5 727.45,-793 717.45,-789.5 717.45,-796.5"/>
<text text-anchor="middle" x="672" y="-799.8" font-family="Times,serif" font-size="14.00">Memory flow</text>
</g>
</g>
</svg>
