<?xml version="1.0" encoding="UTF-8" standalone="no"?>
<!DOCTYPE svg PUBLIC "-//W3C//DTD SVG 1.1//EN"
 "http://www.w3.org/Graphics/SVG/1.1/DTD/svg11.dtd">
<!-- Generated by graphviz version 2.43.0 (0)
 -->
<!-- Title: %3 Pages: 1 -->
<svg width="1346pt" height="842pt"
 viewBox="0.00 0.00 1346.00 841.80" xmlns="http://www.w3.org/2000/svg" xmlns:xlink="http://www.w3.org/1999/xlink">
<g id="graph0" class="graph" transform="scale(1 1) rotate(0) translate(4 837.8)">
<title>%3</title>
<polygon fill="white" stroke="transparent" points="-4,4 -4,-837.8 1342,-837.8 1342,4 -4,4"/>
<g id="clust1" class="cluster">
<title>cluster_0</title>
<polygon fill="none" stroke="lightgray" points="215,-439 215,-491 361,-491 361,-439 215,-439"/>
</g>
<g id="clust2" class="cluster">
<title>cluster_000</title>
<polygon fill="none" stroke="black" points="477,-783.2 477,-825.8 1330,-825.8 1330,-783.2 477,-783.2"/>
<text text-anchor="middle" x="903.5" y="-810.6" font-family="Times,serif" font-size="14.00">Legend</text>
</g>
<!-- node0 -->
<g id="node1" class="node">
<title>node0</title>
<polygon fill="lightgrey" stroke="transparent" points="467,-820 287,-820 287,-766 467,-766 467,-820"/>
<polygon fill="none" stroke="black" points="287,-793 287,-820 467,-820 467,-793 287,-793"/>
<text text-anchor="start" x="336.5" y="-802.8" font-family="Times,serif" font-size="14.00">#0 Method</text>
<polygon fill="yellow" stroke="transparent" points="287,-766 287,-793 467,-793 467,-766 287,-766"/>
<polygon fill="none" stroke="black" points="287,-766 287,-793 467,-793 467,-766 287,-766"/>
<text text-anchor="start" x="293" y="-775.8" font-family="Times,serif" font-size="14.00">this : SynchronizedTest</text>
</g>
<!-- node3 -->
<g id="node2" class="node">
<title>node3</title>
<polygon fill="lightgrey" stroke="black" points="359,-656 219,-656 219,-620 359,-620 359,-656"/>
<text text-anchor="middle" x="289" y="-634.3" font-family="Times,serif" font-size="14.00">#3 MonitorEnter</text>
</g>
<!-- node0&#45;&gt;node3 -->
<g id="edge1" class="edge">
<title>node0:prj1&#45;&gt;node3</title>
<path fill="none" stroke="black" d="M377,-766C377,-732.36 375.53,-721.07 357,-693 349.19,-681.17 337.94,-670.75 326.84,-662.29"/>
<polygon fill="black" stroke="black" points="328.59,-659.24 318.43,-656.22 324.49,-664.91 328.59,-659.24"/>
<text text-anchor="middle" x="338.07" y="-656.28" font-family="Times,serif" font-size="14.00">*0</text>
</g>
<!-- node2 -->
<g id="node3" class="node">
<title>node2</title>
<polygon fill="lightgrey" stroke="black" points="348.5,-729 229.5,-729 229.5,-693 348.5,-693 348.5,-729"/>
<text text-anchor="middle" x="289" y="-707.3" font-family="Times,serif" font-size="14.00">#2 LabelNode</text>
</g>
<!-- node0&#45;&gt;node2 -->
<g id="edge3" class="edge">
<title>node0&#45;&gt;node2</title>
<path fill="none" stroke="red" d="M348.19,-765.81C337.64,-756.22 325.77,-745.43 315.44,-736.04"/>
<polygon fill="red" stroke="red" points="317.65,-733.31 307.89,-729.17 312.94,-738.49 317.65,-733.31"/>
</g>
<!-- node13 -->
<g id="node5" class="node">
<title>node13</title>
<polygon fill="lightgrey" stroke="black" points="491.5,-401 212.5,-401 212.5,-365 491.5,-365 491.5,-401"/>
<text text-anchor="middle" x="352" y="-379.3" font-family="Times,serif" font-size="14.00">#13 Invoke virtual compute : (int)int</text>
</g>
<!-- node0&#45;&gt;node13 -->
<g id="edge5" class="edge">
<title>node0:prj1&#45;&gt;node13</title>
<path fill="none" stroke="black" d="M468,-779C464.79,-779 459.99,-771.44 458,-766 447.82,-738.2 419,-741.6 419,-712 419,-712 419,-712 419,-464 419,-440.62 401.73,-421.35 384.63,-407.59"/>
<polygon fill="black" stroke="black" points="386.41,-404.54 376.33,-401.28 382.17,-410.12 386.41,-404.54"/>
<text text-anchor="middle" x="395.87" y="-401.82" font-family="Times,serif" font-size="14.00">*0</text>
</g>
<!-- node0&#45;&gt;node13 -->
<g id="edge8" class="edge">
<title>node0&#45;&gt;node13</title>
<path fill="none" stroke="green" d="M468.34,-779C482.72,-778.88 477.98,-771.4 476,-766 465.82,-738.2 437,-741.6 437,-712 437,-712 437,-712 437,-464 437,-440.2 419.1,-420.65 399.64,-406.84"/>
<polygon fill="green" stroke="green" points="401.52,-403.89 391.25,-401.28 397.65,-409.73 401.52,-403.89"/>
</g>
<!-- node14 -->
<g id="node11" class="node">
<title>node14</title>
<polygon fill="lightgrey" stroke="black" points="567.5,-328 430.5,-328 430.5,-292 567.5,-292 567.5,-328"/>
<text text-anchor="middle" x="499" y="-306.3" font-family="Times,serif" font-size="14.00">#14 MonitorExit</text>
</g>
<!-- node0&#45;&gt;node14 -->
<g id="edge16" class="edge">
<title>node0:prj1&#45;&gt;node14</title>
<path fill="none" stroke="black" d="M468,-779C474.19,-779 469.27,-770.94 473,-766 481.04,-755.36 487.93,-757.77 497,-748 509.91,-734.08 520,-730.99 520,-712 520,-712 520,-712 520,-382 520,-366.84 515.54,-350.58 510.74,-337.45"/>
<polygon fill="black" stroke="black" points="513.97,-336.12 507.06,-328.09 507.46,-338.68 513.97,-336.12"/>
<text text-anchor="middle" x="521.55" y="-338.17" font-family="Times,serif" font-size="14.00">*0</text>
</g>
<!-- node17 -->
<g id="node13" class="node">
<title>node17</title>
<polygon fill="lightgrey" stroke="black" points="192,-182 96,-182 96,-146 192,-146 192,-182"/>
<text text-anchor="middle" x="144" y="-160.3" font-family="Times,serif" font-size="14.00">#17 Throw</text>
</g>
<!-- node0&#45;&gt;node17 -->
<g id="edge22" class="edge">
<title>node0&#45;&gt;node17</title>
<path fill="none" stroke="green" d="M448.27,-765.79C456,-760.78 463.16,-754.89 469,-748 507.29,-702.82 487.29,-676.18 506,-620 536.17,-529.39 537.69,-503.61 582,-419 623.06,-340.59 668.7,-339.52 695,-255 699.75,-239.72 705.75,-230.85 695,-219 678.58,-200.9 340.39,-177.47 202.13,-168.61"/>
<polygon fill="green" stroke="green" points="202.33,-165.11 192.13,-167.97 201.89,-172.1 202.33,-165.11"/>
</g>
<!-- node11 -->
<g id="node15" class="node">
<title>node11</title>
<polygon fill="lightgrey" stroke="black" points="155.5,-328 18.5,-328 18.5,-292 155.5,-292 155.5,-328"/>
<text text-anchor="middle" x="87" y="-306.3" font-family="Times,serif" font-size="14.00">#11 MonitorExit</text>
</g>
<!-- node0&#45;&gt;node11 -->
<g id="edge24" class="edge">
<title>node0:prj1&#45;&gt;node11</title>
<path fill="none" stroke="black" d="M286,-779C220.72,-779 0,-777.28 0,-712 0,-712 0,-712 0,-382 0,-360.72 15.81,-344.68 33.96,-333.28"/>
<polygon fill="black" stroke="black" points="36.09,-336.09 42.99,-328.06 32.58,-330.03 36.09,-336.09"/>
<text text-anchor="middle" x="31.53" y="-340.75" font-family="Times,serif" font-size="14.00">*0</text>
</g>
<!-- node4 -->
<g id="node4" class="node">
<title>node4</title>
<polygon fill="lightgrey" stroke="transparent" points="377.5,-583 162.5,-583 162.5,-529 377.5,-529 377.5,-583"/>
<polygon fill="none" stroke="black" points="163,-556 163,-583 378,-583 378,-556 163,-556"/>
<text text-anchor="start" x="199.5" y="-565.8" font-family="Times,serif" font-size="14.00">#4 ExceptionGuard</text>
<polygon fill="yellow" stroke="transparent" points="163,-529 163,-556 275,-556 275,-529 163,-529"/>
<polygon fill="none" stroke="black" points="163,-529 163,-556 275,-556 275,-529 163,-529"/>
<text text-anchor="start" x="169" y="-538.8" font-family="Times,serif" font-size="14.00">catch : 0 : any</text>
<polygon fill="yellow" stroke="transparent" points="275,-529 275,-556 338,-556 338,-529 275,-529"/>
<polygon fill="none" stroke="black" points="275,-529 275,-556 338,-556 338,-529 275,-529"/>
<text text-anchor="start" x="281" y="-538.8" font-family="Times,serif" font-size="14.00">default</text>
<polygon fill="yellow" stroke="transparent" points="338,-529 338,-556 378,-556 378,-529 338,-529"/>
<polygon fill="none" stroke="black" points="338,-529 338,-556 378,-556 378,-529 338,-529"/>
<text text-anchor="start" x="344" y="-538.8" font-family="Times,serif" font-size="14.00">exit</text>
</g>
<!-- node3&#45;&gt;node4 -->
<g id="edge4" class="edge">
<title>node3&#45;&gt;node4</title>
<path fill="none" stroke="red" d="M284.88,-619.64C283.02,-611.81 280.75,-602.26 278.55,-592.99"/>
<polygon fill="red" stroke="red" points="281.93,-592.07 276.21,-583.15 275.12,-593.68 281.93,-592.07"/>
</g>
<!-- node2&#45;&gt;node3 -->
<g id="edge2" class="edge">
<title>node2&#45;&gt;node3</title>
<path fill="none" stroke="red" d="M289,-692.81C289,-684.79 289,-675.05 289,-666.07"/>
<polygon fill="red" stroke="red" points="292.5,-666.03 289,-656.03 285.5,-666.03 292.5,-666.03"/>
</g>
<!-- node4&#45;&gt;node13 -->
<g id="edge7" class="edge">
<title>node4:prj8&#45;&gt;node13</title>
<path fill="none" stroke="red" d="M307,-529C307,-498.42 350.3,-518.81 365,-492 378.76,-466.9 371.67,-433.66 363.59,-410.72"/>
<polygon fill="red" stroke="red" points="366.83,-409.38 360.01,-401.27 360.28,-411.87 366.83,-409.38"/>
</g>
<!-- node12 -->
<g id="node6" class="node">
<title>node12</title>
<polygon fill="lightgreen" stroke="black" points="353.35,-457.54 353.35,-472.46 315.07,-483 260.93,-483 222.65,-472.46 222.65,-457.54 260.93,-447 315.07,-447 353.35,-457.54"/>
<text text-anchor="middle" x="288" y="-461.3" font-family="Times,serif" font-size="14.00">#12 int 10</text>
</g>
<!-- node4&#45;&gt;node12 -->
<g id="edge9" class="edge">
<title>node4:prj8&#45;&gt;node12</title>
<path fill="none" stroke="black" stroke-dasharray="1,5" d="M307,-529C307,-516.75 303.67,-503.72 299.8,-492.7"/>
<polygon fill="black" stroke="black" points="303.01,-491.32 296.17,-483.23 296.48,-493.82 303.01,-491.32"/>
</g>
<!-- node15 -->
<g id="node10" class="node">
<title>node15</title>
<polygon fill="lightgrey" stroke="black" points="685.5,-255 410.5,-255 410.5,-219 685.5,-219 685.5,-255"/>
<text text-anchor="middle" x="548" y="-233.3" font-family="Times,serif" font-size="14.00">#15 Merge : EndOfGuardedBlock18</text>
</g>
<!-- node4&#45;&gt;node15 -->
<g id="edge15" class="edge">
<title>node4:prj7&#45;&gt;node15</title>
<path fill="none" stroke="red" d="M379,-542C430.09,-542 596,-517.09 596,-466 596,-466 596,-466 596,-309 596,-291.5 585.87,-275.1 574.92,-262.48"/>
<polygon fill="red" stroke="red" points="577.45,-260.06 568.08,-255.13 572.33,-264.83 577.45,-260.06"/>
</g>
<!-- node6 -->
<g id="node12" class="node">
<title>node6</title>
<polygon fill="lightgrey" stroke="transparent" points="205,-492 35,-492 35,-438 205,-438 205,-492"/>
<polygon fill="none" stroke="black" points="35,-465 35,-492 205,-492 205,-465 35,-465"/>
<text text-anchor="start" x="67" y="-474.8" font-family="Times,serif" font-size="14.00">#6 Catch : any</text>
<polygon fill="yellow" stroke="transparent" points="35,-438 35,-465 205,-465 205,-438 35,-438"/>
<polygon fill="none" stroke="black" points="35,-438 35,-465 205,-465 205,-438 35,-438"/>
<text text-anchor="start" x="41" y="-447.8" font-family="Times,serif" font-size="14.00">exception : Throwable</text>
</g>
<!-- node4&#45;&gt;node6 -->
<g id="edge18" class="edge">
<title>node4&#45;&gt;node6</title>
<path fill="none" stroke="black" d="M225.81,-528.78C209.17,-518.91 190.1,-507.59 172.76,-497.31"/>
<polygon fill="black" stroke="black" points="174.26,-494.13 163.88,-492.03 170.69,-500.15 174.26,-494.13"/>
<text text-anchor="middle" x="183.78" y="-490.31" font-family="Times,serif" font-size="14.00">*0</text>
</g>
<!-- node4&#45;&gt;node6 -->
<g id="edge19" class="edge">
<title>node4:prj5&#45;&gt;node6</title>
<path fill="none" stroke="red" d="M162,-542C142.01,-542 131.46,-521.61 125.93,-501.95"/>
<polygon fill="red" stroke="red" points="129.31,-501.04 123.54,-492.15 122.51,-502.7 129.31,-501.04"/>
</g>
<!-- node20 -->
<g id="node7" class="node">
<title>node20</title>
<polygon fill="lightgrey" stroke="black" points="598.5,-36 497.5,-36 497.5,0 598.5,0 598.5,-36"/>
<text text-anchor="middle" x="548" y="-14.3" font-family="Times,serif" font-size="14.00">#20 Return</text>
</g>
<!-- node13&#45;&gt;node20 -->
<g id="edge11" class="edge">
<title>node13&#45;&gt;node20</title>
<path fill="none" stroke="green" d="M212.04,-368.56C123.28,-358.58 22.66,-343.98 9,-328 -2.52,-314.52 5.91,-242.76 17,-219 36.02,-178.27 48.39,-169.02 87,-146 216.9,-68.56 395.37,-37.02 487.5,-25.27"/>
<polygon fill="green" stroke="green" points="488,-28.74 497.49,-24.03 487.14,-21.79 488,-28.74"/>
</g>
<!-- node13&#45;&gt;node14 -->
<g id="edge17" class="edge">
<title>node13&#45;&gt;node14</title>
<path fill="none" stroke="red" d="M384.6,-364.82C396.33,-358.75 409.7,-351.95 422,-346 431.42,-341.44 441.55,-336.71 451.28,-332.26"/>
<polygon fill="red" stroke="red" points="452.8,-335.41 460.45,-328.08 449.9,-329.04 452.8,-335.41"/>
</g>
<!-- node12&#45;&gt;node13 -->
<g id="edge6" class="edge">
<title>node12&#45;&gt;node13</title>
<path fill="none" stroke="black" d="M301.89,-446.64C310.67,-435.66 322.16,-421.29 331.93,-409.09"/>
<polygon fill="black" stroke="black" points="334.85,-411.05 338.36,-401.05 329.38,-406.67 334.85,-411.05"/>
<text text-anchor="middle" x="333.64" y="-416.78" font-family="Times,serif" font-size="14.00">*1</text>
</g>
<!-- node19 -->
<g id="node8" class="node">
<title>node19</title>
<polygon fill="lightgrey" stroke="black" points="612,-109 484,-109 484,-73 612,-73 612,-109"/>
<text text-anchor="middle" x="548" y="-87.3" font-family="Times,serif" font-size="14.00">#19 LabelNode</text>
</g>
<!-- node19&#45;&gt;node20 -->
<g id="edge10" class="edge">
<title>node19&#45;&gt;node20</title>
<path fill="none" stroke="red" d="M548,-72.81C548,-64.79 548,-55.05 548,-46.07"/>
<polygon fill="red" stroke="red" points="551.5,-46.03 548,-36.03 544.5,-46.03 551.5,-46.03"/>
</g>
<!-- node18 -->
<g id="node9" class="node">
<title>node18</title>
<polygon fill="lightgrey" stroke="black" points="590.5,-182 505.5,-182 505.5,-146 590.5,-146 590.5,-182"/>
<text text-anchor="middle" x="548" y="-160.3" font-family="Times,serif" font-size="14.00">#18 Goto</text>
</g>
<!-- node18&#45;&gt;node19 -->
<g id="edge12" class="edge">
<title>node18&#45;&gt;node19</title>
<path fill="none" stroke="red" d="M548,-145.81C548,-137.79 548,-128.05 548,-119.07"/>
<polygon fill="red" stroke="red" points="551.5,-119.03 548,-109.03 544.5,-119.03 551.5,-119.03"/>
</g>
<!-- node15&#45;&gt;node18 -->
<g id="edge13" class="edge">
<title>node15&#45;&gt;node18</title>
<path fill="none" stroke="red" d="M548,-218.81C548,-210.79 548,-201.05 548,-192.07"/>
<polygon fill="red" stroke="red" points="551.5,-192.03 548,-182.03 544.5,-192.03 551.5,-192.03"/>
</g>
<!-- node14&#45;&gt;node15 -->
<g id="edge14" class="edge">
<title>node14&#45;&gt;node15</title>
<path fill="none" stroke="red" d="M510.86,-291.81C516.76,-283.27 524,-272.77 530.52,-263.32"/>
<polygon fill="red" stroke="red" points="533.45,-265.25 536.25,-255.03 527.69,-261.27 533.45,-265.25"/>
</g>
<!-- node6&#45;&gt;node17 -->
<g id="edge20" class="edge">
<title>node6:prj9&#45;&gt;node17</title>
<path fill="none" stroke="black" d="M206,-451C211.79,-451 206.29,-443.65 205,-438 199.28,-412.89 184,-409.75 184,-384 184,-384 184,-384 184,-236 184,-219.45 175.64,-203.19 166.57,-190.42"/>
<polygon fill="black" stroke="black" points="169.12,-188 160.27,-182.18 163.56,-192.25 169.12,-188"/>
<text text-anchor="middle" x="177.99" y="-187.75" font-family="Times,serif" font-size="14.00">*0</text>
</g>
<!-- node10 -->
<g id="node16" class="node">
<title>node10</title>
<polygon fill="lightgrey" stroke="black" points="156,-401 28,-401 28,-365 156,-365 156,-401"/>
<text text-anchor="middle" x="92" y="-379.3" font-family="Times,serif" font-size="14.00">#10 LabelNode</text>
</g>
<!-- node6&#45;&gt;node10 -->
<g id="edge26" class="edge">
<title>node6&#45;&gt;node10</title>
<path fill="none" stroke="red" d="M110.83,-437.81C107.81,-429.16 104.44,-419.53 101.39,-410.84"/>
<polygon fill="red" stroke="red" points="104.62,-409.46 98.01,-401.17 98.01,-411.77 104.62,-409.46"/>
</g>
<!-- node16 -->
<g id="node14" class="node">
<title>node16</title>
<polygon fill="lightgrey" stroke="black" points="154,-255 26,-255 26,-219 154,-219 154,-255"/>
<text text-anchor="middle" x="90" y="-233.3" font-family="Times,serif" font-size="14.00">#16 LabelNode</text>
</g>
<!-- node16&#45;&gt;node17 -->
<g id="edge21" class="edge">
<title>node16&#45;&gt;node17</title>
<path fill="none" stroke="red" d="M103.07,-218.81C109.64,-210.18 117.72,-199.56 124.96,-190.03"/>
<polygon fill="red" stroke="red" points="127.78,-192.11 131.05,-182.03 122.21,-187.87 127.78,-192.11"/>
</g>
<!-- node11&#45;&gt;node16 -->
<g id="edge23" class="edge">
<title>node11&#45;&gt;node16</title>
<path fill="none" stroke="red" d="M87.73,-291.81C88.07,-283.79 88.48,-274.05 88.86,-265.07"/>
<polygon fill="red" stroke="red" points="92.36,-265.17 89.28,-255.03 85.36,-264.87 92.36,-265.17"/>
</g>
<!-- node10&#45;&gt;node11 -->
<g id="edge25" class="edge">
<title>node10&#45;&gt;node11</title>
<path fill="none" stroke="red" d="M90.79,-364.81C90.22,-356.79 89.54,-347.05 88.91,-338.07"/>
<polygon fill="red" stroke="red" points="92.39,-337.76 88.2,-328.03 85.41,-338.25 92.39,-337.76"/>
</g>
<!-- c0 -->
<!-- c1 -->
<!-- c0&#45;&gt;c1 -->
<g id="edge27" class="edge">
<title>c0&#45;&gt;c1</title>
<path fill="none" stroke="red" d="M1212.89,-793C1224.11,-793 1282.24,-793 1307.86,-793"/>
<polygon fill="red" stroke="red" points="1308.06,-796.5 1318.06,-793 1308.06,-789.5 1308.06,-796.5"/>
<text text-anchor="middle" x="1265.5" y="-799.8" font-family="Times,serif" font-size="14.00">Control flow</text>
</g>
<!-- c2 -->
<!-- c3 -->
<!-- c2&#45;&gt;c3 -->
<g id="edge28" class="edge">
<title>c2&#45;&gt;c3</title>
<path fill="none" stroke="red" stroke-dasharray="5,2" d="M1006.08,-793C1023.05,-793 1139.21,-793 1177.08,-793"/>
<polygon fill="red" stroke="red" points="1177.17,-796.5 1187.17,-793 1177.17,-789.5 1177.17,-796.5"/>
<text text-anchor="middle" x="1096.5" y="-799.8" font-family="Times,serif" font-size="14.00">Control flow back edge</text>
</g>
<!-- d0 -->
<!-- d1 -->
<!-- d0&#45;&gt;d1 -->
<g id="edge29" class="edge">
<title>d0&#45;&gt;d1</title>
<path fill="none" stroke="black" d="M894.86,-793C904.41,-793 948.31,-793 969.92,-793"/>
<polygon fill="black" stroke="black" points="970.15,-796.5 980.15,-793 970.15,-789.5 970.15,-796.5"/>
<text text-anchor="middle" x="937.5" y="-799.8" font-family="Times,serif" font-size="14.00">Data flow</text>
</g>
<!-- d2 -->
<!-- d3 -->
<!-- d2&#45;&gt;d3 -->
<g id="edge30" class="edge">
<title>d2&#45;&gt;d3</title>
<path fill="none" stroke="black" stroke-dasharray="1,5" d="M768.81,-793C779.46,-793 834.46,-793 859.08,-793"/>
<polygon fill="black" stroke="black" points="859.15,-796.5 869.15,-793 859.15,-789.5 859.15,-796.5"/>
<text text-anchor="middle" x="819" y="-799.8" font-family="Times,serif" font-size="14.00">Declaration</text>
</g>
<!-- d4 -->
<!-- d5 -->
<!-- d4&#45;&gt;d5 -->
<g id="edge31" class="edge">
<title>d4&#45;&gt;d5</title>
<path fill="none" stroke="blue" d="M626.1,-793C638.72,-793 704.88,-793 732.68,-793"/>
<polygon fill="blue" stroke="blue" points="732.84,-796.5 742.84,-793 732.84,-789.5 732.84,-796.5"/>
<text text-anchor="middle" x="684.5" y="-799.8" font-family="Times,serif" font-size="14.00">PHI Data flow</text>
</g>
<!-- d6 -->
<!-- d7 -->
<!-- d6&#45;&gt;d7 -->
<g id="edge32" class="edge">
<title>d6&#45;&gt;d7</title>
<path fill="none" stroke="green" d="M489,-793C500.94,-793 563.3,-793 589.93,-793"/>
<polygon fill="green" stroke="green" points="589.95,-796.5 599.95,-793 589.95,-789.5 589.95,-796.5"/>
<text text-anchor="middle" x="544.5" y="-799.8" font-family="Times,serif" font-size="14.00">Memory flow</text>
</g>
</g>
</svg>
