<?xml version="1.0" encoding="UTF-8" standalone="no"?>
<!DOCTYPE svg PUBLIC "-//W3C//DTD SVG 1.1//EN"
 "http://www.w3.org/Graphics/SVG/1.1/DTD/svg11.dtd">
<!-- Generated by graphviz version 2.43.0 (0)
 -->
<!-- Title: %3 Pages: 1 -->
<svg width="1358pt" height="842pt"
 viewBox="0.00 0.00 1357.50 841.80" xmlns="http://www.w3.org/2000/svg" xmlns:xlink="http://www.w3.org/1999/xlink">
<g id="graph0" class="graph" transform="scale(1 1) rotate(0) translate(4 837.8)">
<title>%3</title>
<polygon fill="white" stroke="transparent" points="-4,4 -4,-837.8 1353.5,-837.8 1353.5,4 -4,4"/>
<g id="clust1" class="cluster">
<title>cluster_0</title>
<polygon fill="none" stroke="lightgray" points="226.5,-439 226.5,-491 372.5,-491 372.5,-439 226.5,-439"/>
</g>
<g id="clust2" class="cluster">
<title>cluster_000</title>
<polygon fill="none" stroke="black" points="488.5,-783.2 488.5,-825.8 1341.5,-825.8 1341.5,-783.2 488.5,-783.2"/>
<text text-anchor="middle" x="915" y="-810.6" font-family="Times,serif" font-size="14.00">Legend</text>
</g>
<!-- node0 -->
<g id="node1" class="node">
<title>node0</title>
<polygon fill="lightgrey" stroke="transparent" points="478.5,-820 298.5,-820 298.5,-766 478.5,-766 478.5,-820"/>
<polygon fill="none" stroke="black" points="298.5,-793 298.5,-820 478.5,-820 478.5,-793 298.5,-793"/>
<text text-anchor="start" x="348" y="-802.8" font-family="Times,serif" font-size="14.00">#0 Method</text>
<polygon fill="yellow" stroke="transparent" points="298.5,-766 298.5,-793 478.5,-793 478.5,-766 298.5,-766"/>
<polygon fill="none" stroke="black" points="298.5,-766 298.5,-793 478.5,-793 478.5,-766 298.5,-766"/>
<text text-anchor="start" x="304.5" y="-775.8" font-family="Times,serif" font-size="14.00">this : SynchronizedTest</text>
</g>
<!-- node3 -->
<g id="node2" class="node">
<title>node3</title>
<polygon fill="lightgrey" stroke="black" points="370.5,-656 230.5,-656 230.5,-620 370.5,-620 370.5,-656"/>
<text text-anchor="middle" x="300.5" y="-634.3" font-family="Times,serif" font-size="14.00">#3 MonitorEnter</text>
</g>
<!-- node0&#45;&gt;node3 -->
<g id="edge1" class="edge">
<title>node0:prj1&#45;&gt;node3</title>
<path fill="none" stroke="black" d="M388.5,-766C388.5,-732.36 387.03,-721.07 368.5,-693 360.69,-681.17 349.44,-670.75 338.34,-662.29"/>
<polygon fill="black" stroke="black" points="340.09,-659.24 329.93,-656.22 335.99,-664.91 340.09,-659.24"/>
<text text-anchor="middle" x="349.57" y="-656.28" font-family="Times,serif" font-size="14.00">*0</text>
</g>
<!-- node2 -->
<g id="node3" class="node">
<title>node2</title>
<polygon fill="lightgrey" stroke="black" points="360,-729 241,-729 241,-693 360,-693 360,-729"/>
<text text-anchor="middle" x="300.5" y="-707.3" font-family="Times,serif" font-size="14.00">#2 LabelNode</text>
</g>
<!-- node0&#45;&gt;node2 -->
<g id="edge3" class="edge">
<title>node0&#45;&gt;node2</title>
<path fill="none" stroke="red" d="M359.69,-765.81C349.14,-756.22 337.27,-745.43 326.94,-736.04"/>
<polygon fill="red" stroke="red" points="329.15,-733.31 319.39,-729.17 324.44,-738.49 329.15,-733.31"/>
</g>
<!-- node14 -->
<g id="node6" class="node">
<title>node14</title>
<polygon fill="lightgrey" stroke="black" points="582,-328 445,-328 445,-292 582,-292 582,-328"/>
<text text-anchor="middle" x="513.5" y="-306.3" font-family="Times,serif" font-size="14.00">#14 MonitorExit</text>
</g>
<!-- node0&#45;&gt;node14 -->
<g id="edge7" class="edge">
<title>node0:prj1&#45;&gt;node14</title>
<path fill="none" stroke="black" d="M479.5,-779C485.69,-779 480.72,-770.9 484.5,-766 492.86,-755.16 499.9,-757.76 509.5,-748 523.16,-734.11 534.5,-731.48 534.5,-712 534.5,-712 534.5,-712 534.5,-382 534.5,-366.84 530.04,-350.58 525.24,-337.45"/>
<polygon fill="black" stroke="black" points="528.47,-336.12 521.56,-328.09 521.96,-338.68 528.47,-336.12"/>
<text text-anchor="middle" x="536.05" y="-338.17" font-family="Times,serif" font-size="14.00">*0</text>
</g>
<!-- node13 -->
<g id="node7" class="node">
<title>node13</title>
<polygon fill="lightgrey" stroke="black" points="506,-401 227,-401 227,-365 506,-365 506,-401"/>
<text text-anchor="middle" x="366.5" y="-379.3" font-family="Times,serif" font-size="14.00">#13 Invoke virtual compute : (int)int</text>
</g>
<!-- node0&#45;&gt;node13 -->
<g id="edge9" class="edge">
<title>node0:prj1&#45;&gt;node13</title>
<path fill="none" stroke="black" d="M479.5,-779C476.29,-779 471.49,-771.44 469.5,-766 459.32,-738.2 430.5,-741.6 430.5,-712 430.5,-712 430.5,-712 430.5,-464 430.5,-440.89 413.68,-421.54 397.18,-407.65"/>
<polygon fill="black" stroke="black" points="399.19,-404.78 389.18,-401.28 394.82,-410.25 399.19,-404.78"/>
<text text-anchor="middle" x="408.63" y="-402.26" font-family="Times,serif" font-size="14.00">*0</text>
</g>
<!-- node0&#45;&gt;node13 -->
<g id="edge12" class="edge">
<title>node0&#45;&gt;node13</title>
<path fill="none" stroke="green" d="M479.84,-779C494.22,-778.88 489.48,-771.4 487.5,-766 477.32,-738.2 448.5,-741.6 448.5,-712 448.5,-712 448.5,-712 448.5,-464 448.5,-440.58 431.22,-421.01 412.43,-407.09"/>
<polygon fill="green" stroke="green" points="414.26,-404.1 404.04,-401.28 410.28,-409.85 414.26,-404.1"/>
</g>
<!-- node17 -->
<g id="node13" class="node">
<title>node17</title>
<polygon fill="lightgrey" stroke="black" points="198.5,-182 102.5,-182 102.5,-146 198.5,-146 198.5,-182"/>
<text text-anchor="middle" x="150.5" y="-160.3" font-family="Times,serif" font-size="14.00">#17 Throw</text>
</g>
<!-- node0&#45;&gt;node17 -->
<g id="edge22" class="edge">
<title>node0&#45;&gt;node17</title>
<path fill="none" stroke="green" d="M460.44,-765.81C468.27,-760.79 475.55,-754.89 481.5,-748 520.37,-702.99 501.31,-676.29 520.5,-620 551.32,-529.6 548.47,-501.55 596.5,-419 650.55,-326.09 804.91,-298.44 732.5,-219 715,-199.8 352.9,-176.75 208.86,-168.31"/>
<polygon fill="green" stroke="green" points="209.06,-164.81 198.87,-167.73 208.65,-171.8 209.06,-164.81"/>
</g>
<!-- node11 -->
<g id="node15" class="node">
<title>node11</title>
<polygon fill="lightgrey" stroke="black" points="137,-328 0,-328 0,-292 137,-292 137,-328"/>
<text text-anchor="middle" x="68.5" y="-306.3" font-family="Times,serif" font-size="14.00">#11 MonitorExit</text>
</g>
<!-- node0&#45;&gt;node11 -->
<g id="edge24" class="edge">
<title>node0:prj1&#45;&gt;node11</title>
<path fill="none" stroke="black" d="M297.5,-779C232.87,-779 14.5,-776.63 14.5,-712 14.5,-712 14.5,-712 14.5,-382 14.5,-364.05 25.58,-347.79 37.69,-335.38"/>
<polygon fill="black" stroke="black" points="40.45,-337.59 45.29,-328.17 35.63,-332.52 40.45,-337.59"/>
<text text-anchor="middle" x="37.97" y="-343.08" font-family="Times,serif" font-size="14.00">*0</text>
</g>
<!-- node4 -->
<g id="node4" class="node">
<title>node4</title>
<polygon fill="lightgrey" stroke="transparent" points="389,-583 174,-583 174,-529 389,-529 389,-583"/>
<polygon fill="none" stroke="black" points="174.5,-556 174.5,-583 389.5,-583 389.5,-556 174.5,-556"/>
<text text-anchor="start" x="211" y="-565.8" font-family="Times,serif" font-size="14.00">#4 ExceptionGuard</text>
<polygon fill="yellow" stroke="transparent" points="174.5,-529 174.5,-556 286.5,-556 286.5,-529 174.5,-529"/>
<polygon fill="none" stroke="black" points="174.5,-529 174.5,-556 286.5,-556 286.5,-529 174.5,-529"/>
<text text-anchor="start" x="180.5" y="-538.8" font-family="Times,serif" font-size="14.00">catch : 0 : any</text>
<polygon fill="yellow" stroke="transparent" points="286.5,-529 286.5,-556 349.5,-556 349.5,-529 286.5,-529"/>
<polygon fill="none" stroke="black" points="286.5,-529 286.5,-556 349.5,-556 349.5,-529 286.5,-529"/>
<text text-anchor="start" x="292.5" y="-538.8" font-family="Times,serif" font-size="14.00">default</text>
<polygon fill="yellow" stroke="transparent" points="349.5,-529 349.5,-556 389.5,-556 389.5,-529 349.5,-529"/>
<polygon fill="none" stroke="black" points="349.5,-529 349.5,-556 389.5,-556 389.5,-529 349.5,-529"/>
<text text-anchor="start" x="355.5" y="-538.8" font-family="Times,serif" font-size="14.00">exit</text>
</g>
<!-- node3&#45;&gt;node4 -->
<g id="edge4" class="edge">
<title>node3&#45;&gt;node4</title>
<path fill="none" stroke="red" d="M296.38,-619.64C294.52,-611.81 292.25,-602.26 290.05,-592.99"/>
<polygon fill="red" stroke="red" points="293.43,-592.07 287.71,-583.15 286.62,-593.68 293.43,-592.07"/>
</g>
<!-- node2&#45;&gt;node3 -->
<g id="edge2" class="edge">
<title>node2&#45;&gt;node3</title>
<path fill="none" stroke="red" d="M300.5,-692.81C300.5,-684.79 300.5,-675.05 300.5,-666.07"/>
<polygon fill="red" stroke="red" points="304,-666.03 300.5,-656.03 297,-666.03 304,-666.03"/>
</g>
<!-- node15 -->
<g id="node5" class="node">
<title>node15</title>
<polygon fill="lightgrey" stroke="black" points="723,-255 448,-255 448,-219 723,-219 723,-255"/>
<text text-anchor="middle" x="585.5" y="-233.3" font-family="Times,serif" font-size="14.00">#15 Merge : EndOfGuardedBlock18</text>
</g>
<!-- node4&#45;&gt;node15 -->
<g id="edge6" class="edge">
<title>node4:prj8&#45;&gt;node15</title>
<path fill="none" stroke="red" d="M390.5,-542C442.22,-542 610.5,-517.72 610.5,-466 610.5,-466 610.5,-466 610.5,-309 610.5,-293.69 605.27,-277.53 599.59,-264.49"/>
<polygon fill="red" stroke="red" points="602.65,-262.78 595.24,-255.21 596.31,-265.75 602.65,-262.78"/>
</g>
<!-- node4&#45;&gt;node13 -->
<g id="edge11" class="edge">
<title>node4:prj7&#45;&gt;node13</title>
<path fill="none" stroke="red" d="M318.5,-529C318.5,-498.42 361.8,-518.81 376.5,-492 390.16,-467.09 384.24,-434.02 377.08,-411.07"/>
<polygon fill="red" stroke="red" points="380.29,-409.65 373.77,-401.3 373.67,-411.89 380.29,-409.65"/>
</g>
<!-- node12 -->
<g id="node8" class="node">
<title>node12</title>
<polygon fill="lightgreen" stroke="black" points="364.85,-457.54 364.85,-472.46 326.57,-483 272.43,-483 234.15,-472.46 234.15,-457.54 272.43,-447 326.57,-447 364.85,-457.54"/>
<text text-anchor="middle" x="299.5" y="-461.3" font-family="Times,serif" font-size="14.00">#12 int 10</text>
</g>
<!-- node4&#45;&gt;node12 -->
<g id="edge13" class="edge">
<title>node4:prj7&#45;&gt;node12</title>
<path fill="none" stroke="black" stroke-dasharray="1,5" d="M318.5,-529C318.5,-516.75 315.17,-503.72 311.3,-492.7"/>
<polygon fill="black" stroke="black" points="314.51,-491.32 307.67,-483.23 307.98,-493.82 314.51,-491.32"/>
</g>
<!-- node6 -->
<g id="node12" class="node">
<title>node6</title>
<polygon fill="lightgrey" stroke="transparent" points="216.5,-492 46.5,-492 46.5,-438 216.5,-438 216.5,-492"/>
<polygon fill="none" stroke="black" points="46.5,-465 46.5,-492 216.5,-492 216.5,-465 46.5,-465"/>
<text text-anchor="start" x="78.5" y="-474.8" font-family="Times,serif" font-size="14.00">#6 Catch : any</text>
<polygon fill="yellow" stroke="transparent" points="46.5,-438 46.5,-465 216.5,-465 216.5,-438 46.5,-438"/>
<polygon fill="none" stroke="black" points="46.5,-438 46.5,-465 216.5,-465 216.5,-438 46.5,-438"/>
<text text-anchor="start" x="52.5" y="-447.8" font-family="Times,serif" font-size="14.00">exception : Throwable</text>
</g>
<!-- node4&#45;&gt;node6 -->
<g id="edge18" class="edge">
<title>node4&#45;&gt;node6</title>
<path fill="none" stroke="black" d="M237.31,-528.78C220.67,-518.91 201.6,-507.59 184.26,-497.31"/>
<polygon fill="black" stroke="black" points="185.76,-494.13 175.38,-492.03 182.19,-500.15 185.76,-494.13"/>
<text text-anchor="middle" x="195.28" y="-490.31" font-family="Times,serif" font-size="14.00">*0</text>
</g>
<!-- node4&#45;&gt;node6 -->
<g id="edge19" class="edge">
<title>node4:prj5&#45;&gt;node6</title>
<path fill="none" stroke="red" d="M173.5,-542C153.51,-542 142.96,-521.61 137.43,-501.95"/>
<polygon fill="red" stroke="red" points="140.81,-501.04 135.04,-492.15 134.01,-502.7 140.81,-501.04"/>
</g>
<!-- node18 -->
<g id="node11" class="node">
<title>node18</title>
<polygon fill="lightgrey" stroke="black" points="628,-182 543,-182 543,-146 628,-146 628,-182"/>
<text text-anchor="middle" x="585.5" y="-160.3" font-family="Times,serif" font-size="14.00">#18 Goto</text>
</g>
<!-- node15&#45;&gt;node18 -->
<g id="edge17" class="edge">
<title>node15&#45;&gt;node18</title>
<path fill="none" stroke="red" d="M585.5,-218.81C585.5,-210.79 585.5,-201.05 585.5,-192.07"/>
<polygon fill="red" stroke="red" points="589,-192.03 585.5,-182.03 582,-192.03 589,-192.03"/>
</g>
<!-- node14&#45;&gt;node15 -->
<g id="edge5" class="edge">
<title>node14&#45;&gt;node15</title>
<path fill="none" stroke="red" d="M530.93,-291.81C539.95,-282.92 551.11,-271.91 560.99,-262.17"/>
<polygon fill="red" stroke="red" points="563.57,-264.54 568.23,-255.03 558.65,-259.56 563.57,-264.54"/>
</g>
<!-- node13&#45;&gt;node14 -->
<g id="edge8" class="edge">
<title>node13&#45;&gt;node14</title>
<path fill="none" stroke="red" d="M399.1,-364.82C410.83,-358.75 424.2,-351.95 436.5,-346 445.92,-341.44 456.05,-336.71 465.78,-332.26"/>
<polygon fill="red" stroke="red" points="467.3,-335.41 474.95,-328.08 464.4,-329.04 467.3,-335.41"/>
</g>
<!-- node20 -->
<g id="node9" class="node">
<title>node20</title>
<polygon fill="lightgrey" stroke="black" points="636,-36 535,-36 535,0 636,0 636,-36"/>
<text text-anchor="middle" x="585.5" y="-14.3" font-family="Times,serif" font-size="14.00">#20 Return</text>
</g>
<!-- node13&#45;&gt;node20 -->
<g id="edge15" class="edge">
<title>node13&#45;&gt;node20</title>
<path fill="none" stroke="green" d="M370.99,-364.78C379.83,-333.29 401.89,-265.38 438.5,-219 471.71,-176.93 486.71,-170.28 534.5,-146 585.77,-119.95 624.14,-155.12 658.5,-109 668.06,-96.17 665.7,-87.29 658.5,-73 652.1,-60.31 641.16,-49.87 629.67,-41.66"/>
<polygon fill="green" stroke="green" points="631.53,-38.69 621.26,-36.07 627.66,-44.52 631.53,-38.69"/>
</g>
<!-- node12&#45;&gt;node13 -->
<g id="edge10" class="edge">
<title>node12&#45;&gt;node13</title>
<path fill="none" stroke="black" d="M314.04,-446.64C323.32,-435.56 335.5,-421.02 345.78,-408.74"/>
<polygon fill="black" stroke="black" points="348.48,-410.96 352.22,-401.05 343.12,-406.47 348.48,-410.96"/>
<text text-anchor="middle" x="347.06" y="-416.67" font-family="Times,serif" font-size="14.00">*1</text>
</g>
<!-- node19 -->
<g id="node10" class="node">
<title>node19</title>
<polygon fill="lightgrey" stroke="black" points="649.5,-109 521.5,-109 521.5,-73 649.5,-73 649.5,-109"/>
<text text-anchor="middle" x="585.5" y="-87.3" font-family="Times,serif" font-size="14.00">#19 LabelNode</text>
</g>
<!-- node19&#45;&gt;node20 -->
<g id="edge14" class="edge">
<title>node19&#45;&gt;node20</title>
<path fill="none" stroke="red" d="M585.5,-72.81C585.5,-64.79 585.5,-55.05 585.5,-46.07"/>
<polygon fill="red" stroke="red" points="589,-46.03 585.5,-36.03 582,-46.03 589,-46.03"/>
</g>
<!-- node18&#45;&gt;node19 -->
<g id="edge16" class="edge">
<title>node18&#45;&gt;node19</title>
<path fill="none" stroke="red" d="M585.5,-145.81C585.5,-137.79 585.5,-128.05 585.5,-119.07"/>
<polygon fill="red" stroke="red" points="589,-119.03 585.5,-109.03 582,-119.03 589,-119.03"/>
</g>
<!-- node6&#45;&gt;node17 -->
<g id="edge20" class="edge">
<title>node6:prj9&#45;&gt;node17</title>
<path fill="none" stroke="black" d="M217.5,-451C223.29,-451 217.65,-443.68 216.5,-438 211.49,-413.2 198.5,-409.3 198.5,-384 198.5,-384 198.5,-384 198.5,-236 198.5,-218.5 188.37,-202.1 177.42,-189.48"/>
<polygon fill="black" stroke="black" points="179.95,-187.06 170.58,-182.13 174.83,-191.83 179.95,-187.06"/>
<text text-anchor="middle" x="189.12" y="-185.93" font-family="Times,serif" font-size="14.00">*0</text>
</g>
<!-- node10 -->
<g id="node16" class="node">
<title>node10</title>
<polygon fill="lightgrey" stroke="black" points="170.5,-401 42.5,-401 42.5,-365 170.5,-365 170.5,-401"/>
<text text-anchor="middle" x="106.5" y="-379.3" font-family="Times,serif" font-size="14.00">#10 LabelNode</text>
</g>
<!-- node6&#45;&gt;node10 -->
<g id="edge26" class="edge">
<title>node6&#45;&gt;node10</title>
<path fill="none" stroke="red" d="M123.31,-437.81C120.61,-429.16 117.6,-419.53 114.89,-410.84"/>
<polygon fill="red" stroke="red" points="118.19,-409.68 111.87,-401.17 111.51,-411.76 118.19,-409.68"/>
</g>
<!-- node16 -->
<g id="node14" class="node">
<title>node16</title>
<polygon fill="lightgrey" stroke="black" points="132.5,-255 4.5,-255 4.5,-219 132.5,-219 132.5,-255"/>
<text text-anchor="middle" x="68.5" y="-233.3" font-family="Times,serif" font-size="14.00">#16 LabelNode</text>
</g>
<!-- node16&#45;&gt;node17 -->
<g id="edge21" class="edge">
<title>node16&#45;&gt;node17</title>
<path fill="none" stroke="red" d="M88.35,-218.81C98.83,-209.74 111.84,-198.48 123.24,-188.6"/>
<polygon fill="red" stroke="red" points="125.56,-191.22 130.83,-182.03 120.98,-185.93 125.56,-191.22"/>
</g>
<!-- node11&#45;&gt;node16 -->
<g id="edge23" class="edge">
<title>node11&#45;&gt;node16</title>
<path fill="none" stroke="red" d="M68.5,-291.81C68.5,-283.79 68.5,-274.05 68.5,-265.07"/>
<polygon fill="red" stroke="red" points="72,-265.03 68.5,-255.03 65,-265.03 72,-265.03"/>
</g>
<!-- node10&#45;&gt;node11 -->
<g id="edge25" class="edge">
<title>node10&#45;&gt;node11</title>
<path fill="none" stroke="red" d="M97.3,-364.81C92.82,-356.44 87.34,-346.2 82.36,-336.9"/>
<polygon fill="red" stroke="red" points="85.42,-335.19 77.61,-328.03 79.25,-338.5 85.42,-335.19"/>
</g>
<!-- c0 -->
<!-- c1 -->
<!-- c0&#45;&gt;c1 -->
<g id="edge27" class="edge">
<title>c0&#45;&gt;c1</title>
<path fill="none" stroke="red" d="M1224.39,-793C1235.61,-793 1293.74,-793 1319.36,-793"/>
<polygon fill="red" stroke="red" points="1319.56,-796.5 1329.56,-793 1319.56,-789.5 1319.56,-796.5"/>
<text text-anchor="middle" x="1277" y="-799.8" font-family="Times,serif" font-size="14.00">Control flow</text>
</g>
<!-- c2 -->
<!-- c3 -->
<!-- c2&#45;&gt;c3 -->
<g id="edge28" class="edge">
<title>c2&#45;&gt;c3</title>
<path fill="none" stroke="red" stroke-dasharray="5,2" d="M1017.58,-793C1034.55,-793 1150.71,-793 1188.58,-793"/>
<polygon fill="red" stroke="red" points="1188.67,-796.5 1198.67,-793 1188.67,-789.5 1188.67,-796.5"/>
<text text-anchor="middle" x="1108" y="-799.8" font-family="Times,serif" font-size="14.00">Control flow back edge</text>
</g>
<!-- d0 -->
<!-- d1 -->
<!-- d0&#45;&gt;d1 -->
<g id="edge29" class="edge">
<title>d0&#45;&gt;d1</title>
<path fill="none" stroke="black" d="M906.36,-793C915.91,-793 959.81,-793 981.42,-793"/>
<polygon fill="black" stroke="black" points="981.65,-796.5 991.65,-793 981.65,-789.5 981.65,-796.5"/>
<text text-anchor="middle" x="949" y="-799.8" font-family="Times,serif" font-size="14.00">Data flow</text>
</g>
<!-- d2 -->
<!-- d3 -->
<!-- d2&#45;&gt;d3 -->
<g id="edge30" class="edge">
<title>d2&#45;&gt;d3</title>
<path fill="none" stroke="black" stroke-dasharray="1,5" d="M780.31,-793C790.96,-793 845.96,-793 870.58,-793"/>
<polygon fill="black" stroke="black" points="870.65,-796.5 880.65,-793 870.65,-789.5 870.65,-796.5"/>
<text text-anchor="middle" x="830.5" y="-799.8" font-family="Times,serif" font-size="14.00">Declaration</text>
</g>
<!-- d4 -->
<!-- d5 -->
<!-- d4&#45;&gt;d5 -->
<g id="edge31" class="edge">
<title>d4&#45;&gt;d5</title>
<path fill="none" stroke="blue" d="M637.6,-793C650.22,-793 716.38,-793 744.18,-793"/>
<polygon fill="blue" stroke="blue" points="744.34,-796.5 754.34,-793 744.34,-789.5 744.34,-796.5"/>
<text text-anchor="middle" x="696" y="-799.8" font-family="Times,serif" font-size="14.00">PHI Data flow</text>
</g>
<!-- d6 -->
<!-- d7 -->
<!-- d6&#45;&gt;d7 -->
<g id="edge32" class="edge">
<title>d6&#45;&gt;d7</title>
<path fill="none" stroke="green" d="M500.5,-793C512.44,-793 574.8,-793 601.43,-793"/>
<polygon fill="green" stroke="green" points="601.45,-796.5 611.45,-793 601.45,-789.5 601.45,-796.5"/>
<text text-anchor="middle" x="556" y="-799.8" font-family="Times,serif" font-size="14.00">Memory flow</text>
</g>
</g>
</svg>
