<?xml version="1.0" encoding="UTF-8" standalone="no"?>
<!DOCTYPE svg PUBLIC "-//W3C//DTD SVG 1.1//EN"
 "http://www.w3.org/Graphics/SVG/1.1/DTD/svg11.dtd">
<!-- Generated by graphviz version 2.43.0 (0)
 -->
<!-- Title: %3 Pages: 1 -->
<svg width="1696pt" height="878pt"
 viewBox="0.00 0.00 1695.85 877.80" xmlns="http://www.w3.org/2000/svg" xmlns:xlink="http://www.w3.org/1999/xlink">
<g id="graph0" class="graph" transform="scale(1 1) rotate(0) translate(4 873.8)">
<title>%3</title>
<polygon fill="white" stroke="transparent" points="-4,4 -4,-873.8 1691.85,-873.8 1691.85,4 -4,4"/>
<g id="clust1" class="cluster">
<title>cluster_0</title>
<polygon fill="none" stroke="lightgray" points="456.85,-475 456.85,-527 698.85,-527 698.85,-475 456.85,-475"/>
</g>
<g id="clust2" class="cluster">
<title>cluster_000</title>
<polygon fill="none" stroke="black" points="826.85,-819.2 826.85,-861.8 1679.85,-861.8 1679.85,-819.2 826.85,-819.2"/>
<text text-anchor="middle" x="1253.35" y="-846.6" font-family="Times,serif" font-size="14.00">Legend</text>
</g>
<!-- node0 -->
<g id="node1" class="node">
<title>node0</title>
<polygon fill="lightgrey" stroke="transparent" points="816.85,-856 636.85,-856 636.85,-802 816.85,-802 816.85,-856"/>
<polygon fill="none" stroke="black" points="636.85,-829 636.85,-856 816.85,-856 816.85,-829 636.85,-829"/>
<text text-anchor="start" x="686.35" y="-838.8" font-family="Times,serif" font-size="14.00">#0 Method</text>
<polygon fill="yellow" stroke="transparent" points="636.85,-802 636.85,-829 816.85,-829 816.85,-802 636.85,-802"/>
<polygon fill="none" stroke="black" points="636.85,-802 636.85,-829 816.85,-829 816.85,-802 636.85,-802"/>
<text text-anchor="start" x="642.85" y="-811.8" font-family="Times,serif" font-size="14.00">this : SynchronizedTest</text>
</g>
<!-- node2 -->
<g id="node2" class="node">
<title>node2</title>
<polygon fill="lightgrey" stroke="black" points="698.35,-765 579.35,-765 579.35,-729 698.35,-729 698.35,-765"/>
<text text-anchor="middle" x="638.85" y="-743.3" font-family="Times,serif" font-size="14.00">#2 LabelNode</text>
</g>
<!-- node0&#45;&gt;node2 -->
<g id="edge1" class="edge">
<title>node0&#45;&gt;node2</title>
<path fill="none" stroke="red" d="M698.04,-801.81C687.49,-792.22 675.62,-781.43 665.29,-772.04"/>
<polygon fill="red" stroke="red" points="667.5,-769.31 657.74,-765.17 662.79,-774.49 667.5,-769.31"/>
</g>
<!-- node3 -->
<g id="node3" class="node">
<title>node3</title>
<polygon fill="lightgrey" stroke="black" points="708.85,-692 568.85,-692 568.85,-656 708.85,-656 708.85,-692"/>
<text text-anchor="middle" x="638.85" y="-670.3" font-family="Times,serif" font-size="14.00">#3 MonitorEnter</text>
</g>
<!-- node0&#45;&gt;node3 -->
<g id="edge2" class="edge">
<title>node0:prj1&#45;&gt;node3</title>
<path fill="none" stroke="black" d="M726.85,-802C726.85,-768.36 725.39,-757.07 706.85,-729 699.04,-717.17 687.79,-706.75 676.69,-698.29"/>
<polygon fill="black" stroke="black" points="678.44,-695.24 668.28,-692.22 674.34,-700.91 678.44,-695.24"/>
<text text-anchor="middle" x="687.92" y="-692.28" font-family="Times,serif" font-size="14.00">*0</text>
</g>
<!-- node12 -->
<g id="node4" class="node">
<title>node12</title>
<polygon fill="lightgrey" stroke="black" points="834.35,-428 555.35,-428 555.35,-392 834.35,-392 834.35,-428"/>
<text text-anchor="middle" x="694.85" y="-406.3" font-family="Times,serif" font-size="14.00">#12 Invoke virtual compute : (int)int</text>
</g>
<!-- node0&#45;&gt;node12 -->
<g id="edge4" class="edge">
<title>node0:prj1&#45;&gt;node12</title>
<path fill="none" stroke="black" d="M817.85,-815C814.65,-815 809.84,-807.44 807.85,-802 797.67,-774.2 768.85,-777.6 768.85,-748 768.85,-748 768.85,-748 768.85,-500 768.85,-472.33 747.13,-449.68 727.12,-434.15"/>
<polygon fill="black" stroke="black" points="729.12,-431.29 719,-428.15 724.96,-436.91 729.12,-431.29"/>
<text text-anchor="middle" x="738.6" y="-428.44" font-family="Times,serif" font-size="14.00">*0</text>
</g>
<!-- node0&#45;&gt;node12 -->
<g id="edge7" class="edge">
<title>node0&#45;&gt;node12</title>
<path fill="none" stroke="green" d="M818.19,-815C832.57,-814.88 827.83,-807.4 825.85,-802 815.67,-774.2 786.85,-777.6 786.85,-748 786.85,-748 786.85,-748 786.85,-500 786.85,-472.09 764.74,-449.28 742.11,-433.74"/>
<polygon fill="green" stroke="green" points="743.75,-430.64 733.45,-428.15 739.95,-436.52 743.75,-430.64"/>
</g>
<!-- node13 -->
<g id="node8" class="node">
<title>node13</title>
<polygon fill="lightgrey" stroke="black" points="834.35,-337 697.35,-337 697.35,-301 834.35,-301 834.35,-337"/>
<text text-anchor="middle" x="765.85" y="-315.3" font-family="Times,serif" font-size="14.00">#13 MonitorExit</text>
</g>
<!-- node0&#45;&gt;node13 -->
<g id="edge11" class="edge">
<title>node0:prj1&#45;&gt;node13</title>
<path fill="none" stroke="black" d="M817.85,-815C824.04,-815 818.54,-806.44 822.85,-802 837.28,-787.14 848.73,-795.66 865.85,-784 884.29,-771.44 900.85,-770.32 900.85,-748 900.85,-748 900.85,-748 900.85,-409 900.85,-376.05 872.48,-354.61 841.75,-341.05"/>
<polygon fill="black" stroke="black" points="842.74,-337.67 832.16,-337.09 840.07,-344.14 842.74,-337.67"/>
<text text-anchor="middle" x="852.14" y="-332.5" font-family="Times,serif" font-size="14.00">*0</text>
</g>
<!-- node23 -->
<g id="node13" class="node">
<title>node23</title>
<polygon fill="lightgrey" stroke="black" points="497.85,-182 401.85,-182 401.85,-146 497.85,-146 497.85,-182"/>
<text text-anchor="middle" x="449.85" y="-160.3" font-family="Times,serif" font-size="14.00">#23 Throw</text>
</g>
<!-- node0&#45;&gt;node23 -->
<g id="edge21" class="edge">
<title>node0&#45;&gt;node23</title>
<path fill="none" stroke="green" d="M810.44,-801.94C817.23,-796.96 823.24,-791.04 827.85,-784 859.71,-735.37 820.88,-710.58 800.85,-656 769.2,-569.75 775.76,-529.9 702.85,-474 645.96,-430.38 599.2,-484.89 545.85,-437 472.83,-371.46 455.35,-246.91 451.17,-192.07"/>
<polygon fill="green" stroke="green" points="454.66,-191.81 450.49,-182.07 447.67,-192.28 454.66,-191.81"/>
</g>
<!-- node19 -->
<g id="node15" class="node">
<title>node19</title>
<polygon fill="lightgrey" stroke="black" points="352.35,-337 215.35,-337 215.35,-301 352.35,-301 352.35,-337"/>
<text text-anchor="middle" x="283.85" y="-315.3" font-family="Times,serif" font-size="14.00">#19 MonitorExit</text>
</g>
<!-- node0&#45;&gt;node19 -->
<g id="edge25" class="edge">
<title>node0:prj1&#45;&gt;node19</title>
<path fill="none" stroke="black" d="M635.85,-815C592.21,-815 248.85,-791.64 248.85,-748 248.85,-748 248.85,-748 248.85,-409 248.85,-386.73 258.46,-363.36 267.61,-346.15"/>
<polygon fill="black" stroke="black" points="270.75,-347.71 272.58,-337.28 264.64,-344.29 270.75,-347.71"/>
<text text-anchor="middle" x="271.1" y="-353.52" font-family="Times,serif" font-size="14.00">*0</text>
</g>
<!-- node2&#45;&gt;node3 -->
<g id="edge3" class="edge">
<title>node2&#45;&gt;node3</title>
<path fill="none" stroke="red" d="M638.85,-728.81C638.85,-720.79 638.85,-711.05 638.85,-702.07"/>
<polygon fill="red" stroke="red" points="642.35,-702.03 638.85,-692.03 635.35,-702.03 642.35,-702.03"/>
</g>
<!-- node4 -->
<g id="node6" class="node">
<title>node4</title>
<polygon fill="lightgrey" stroke="transparent" points="705.85,-619 551.85,-619 551.85,-565 705.85,-565 705.85,-619"/>
<polygon fill="none" stroke="black" points="551.85,-592 551.85,-619 705.85,-619 705.85,-592 551.85,-592"/>
<text text-anchor="start" x="557.85" y="-601.8" font-family="Times,serif" font-size="14.00">#4 ExceptionGuard</text>
<polygon fill="yellow" stroke="transparent" points="551.85,-565 551.85,-592 595.85,-592 595.85,-565 551.85,-565"/>
<polygon fill="none" stroke="black" points="551.85,-565 551.85,-592 595.85,-592 595.85,-565 551.85,-565"/>
<text text-anchor="start" x="560.85" y="-574.8" font-family="Times,serif" font-size="14.00">any</text>
<polygon fill="yellow" stroke="transparent" points="595.85,-565 595.85,-592 661.85,-592 661.85,-565 595.85,-565"/>
<polygon fill="none" stroke="black" points="595.85,-565 595.85,-592 661.85,-592 661.85,-565 595.85,-565"/>
<text text-anchor="start" x="603.35" y="-574.8" font-family="Times,serif" font-size="14.00">default</text>
<polygon fill="yellow" stroke="transparent" points="661.85,-565 661.85,-592 705.85,-592 705.85,-565 661.85,-565"/>
<polygon fill="none" stroke="black" points="661.85,-565 661.85,-592 705.85,-592 705.85,-565 661.85,-565"/>
<text text-anchor="start" x="669.85" y="-574.8" font-family="Times,serif" font-size="14.00">exit</text>
</g>
<!-- node3&#45;&gt;node4 -->
<g id="edge8" class="edge">
<title>node3&#45;&gt;node4</title>
<path fill="none" stroke="red" d="M636.68,-655.64C635.71,-647.9 634.53,-638.46 633.39,-629.29"/>
<polygon fill="red" stroke="red" points="636.83,-628.64 632.12,-619.15 629.89,-629.5 636.83,-628.64"/>
</g>
<!-- node12&#45;&gt;node13 -->
<g id="edge12" class="edge">
<title>node12&#45;&gt;node13</title>
<path fill="none" stroke="red" d="M708.54,-391.84C719.15,-378.54 734,-359.93 745.92,-344.98"/>
<polygon fill="red" stroke="red" points="748.7,-347.11 752.2,-337.11 743.23,-342.74 748.7,-347.11"/>
</g>
<!-- node25 -->
<g id="node11" class="node">
<title>node25</title>
<polygon fill="lightgrey" stroke="black" points="888.35,-36 787.35,-36 787.35,0 888.35,0 888.35,-36"/>
<text text-anchor="middle" x="837.85" y="-14.3" font-family="Times,serif" font-size="14.00">#25 Return</text>
</g>
<!-- node12&#45;&gt;node25 -->
<g id="edge16" class="edge">
<title>node12&#45;&gt;node25</title>
<path fill="none" stroke="green" d="M555.05,-393.71C520.36,-390.06 483.27,-386.27 448.85,-383 400.23,-378.38 43.9,-381.96 10.85,-346 -5.39,-328.33 -1.13,-312.79 10.85,-292 90.47,-153.86 600.21,-58.04 777.32,-28.57"/>
<polygon fill="green" stroke="green" points="777.96,-32.01 787.25,-26.93 776.82,-25.11 777.96,-32.01"/>
</g>
<!-- node11 -->
<g id="node5" class="node">
<title>node11</title>
<polygon fill="lightgreen" stroke="black" points="691.2,-493.54 691.2,-508.46 652.92,-519 598.78,-519 560.5,-508.46 560.5,-493.54 598.78,-483 652.92,-483 691.2,-493.54"/>
<text text-anchor="middle" x="625.85" y="-497.3" font-family="Times,serif" font-size="14.00">#11 int 10</text>
</g>
<!-- node11&#45;&gt;node12 -->
<g id="edge5" class="edge">
<title>node11&#45;&gt;node12</title>
<path fill="none" stroke="black" d="M639.15,-482.84C649.37,-469.67 663.63,-451.27 675.16,-436.39"/>
<polygon fill="black" stroke="black" points="678.23,-438.16 681.59,-428.11 672.69,-433.87 678.23,-438.16"/>
<text text-anchor="middle" x="677.16" y="-443.91" font-family="Times,serif" font-size="14.00">*1</text>
</g>
<!-- node4&#45;&gt;node12 -->
<g id="edge6" class="edge">
<title>node4:prj7&#45;&gt;node12</title>
<path fill="none" stroke="red" d="M628.85,-565C628.85,-546.61 693.18,-543.64 702.85,-528 719.6,-500.9 712.89,-463.23 705.14,-438.03"/>
<polygon fill="red" stroke="red" points="708.41,-436.77 701.93,-428.38 701.76,-438.97 708.41,-436.77"/>
</g>
<!-- node4&#45;&gt;node11 -->
<g id="edge29" class="edge">
<title>node4:prj7&#45;&gt;node11</title>
<path fill="none" stroke="black" stroke-dasharray="1,5" d="M628.85,-565C628.85,-553.22 628.32,-540.21 627.71,-529.09"/>
<polygon fill="black" stroke="black" points="631.2,-528.87 627.11,-519.1 624.21,-529.29 631.2,-528.87"/>
</g>
<!-- node14 -->
<g id="node7" class="node">
<title>node14</title>
<polygon fill="lightgrey" stroke="black" points="975.35,-255 700.35,-255 700.35,-219 975.35,-219 975.35,-255"/>
<text text-anchor="middle" x="837.85" y="-233.3" font-family="Times,serif" font-size="14.00">#14 Merge : EndOfGuardedBlock18</text>
</g>
<!-- node4&#45;&gt;node14 -->
<g id="edge10" class="edge">
<title>node4:prj8&#45;&gt;node14</title>
<path fill="none" stroke="red" d="M706.85,-578C745.41,-578 862.85,-540.56 862.85,-502 862.85,-502 862.85,-502 862.85,-318 862.85,-299.62 856.76,-279.9 850.6,-264.63"/>
<polygon fill="red" stroke="red" points="853.75,-263.12 846.59,-255.31 847.32,-265.88 853.75,-263.12"/>
</g>
<!-- node6 -->
<g id="node12" class="node">
<title>node6</title>
<polygon fill="lightgrey" stroke="transparent" points="446.85,-528 276.85,-528 276.85,-474 446.85,-474 446.85,-528"/>
<polygon fill="none" stroke="black" points="276.85,-501 276.85,-528 446.85,-528 446.85,-501 276.85,-501"/>
<text text-anchor="start" x="283.85" y="-510.8" font-family="Times,serif" font-size="14.00">#6 Catch : Throwable</text>
<polygon fill="yellow" stroke="transparent" points="276.85,-474 276.85,-501 446.85,-501 446.85,-474 276.85,-474"/>
<polygon fill="none" stroke="black" points="276.85,-474 276.85,-501 446.85,-501 446.85,-474 276.85,-474"/>
<text text-anchor="start" x="282.85" y="-483.8" font-family="Times,serif" font-size="14.00">exception : Throwable</text>
</g>
<!-- node4&#45;&gt;node6 -->
<g id="edge17" class="edge">
<title>node4&#45;&gt;node6</title>
<path fill="none" stroke="black" d="M551.62,-565.26C519.8,-554.65 482.76,-542.3 449.89,-531.35"/>
<polygon fill="black" stroke="black" points="450.89,-527.99 440.29,-528.15 448.67,-534.63 450.89,-527.99"/>
<text text-anchor="middle" x="460.16" y="-522.16" font-family="Times,serif" font-size="14.00">*0</text>
</g>
<!-- node4&#45;&gt;node6 -->
<g id="edge18" class="edge">
<title>node4:prj5&#45;&gt;node6</title>
<path fill="none" stroke="red" d="M550.85,-578C500.32,-578 447.31,-554.32 410.34,-533.4"/>
<polygon fill="red" stroke="red" points="411.7,-530.14 401.3,-528.15 408.19,-536.2 411.7,-530.14"/>
</g>
<!-- node20 -->
<g id="node9" class="node">
<title>node20</title>
<polygon fill="lightgrey" stroke="black" points="880.35,-182 795.35,-182 795.35,-146 880.35,-146 880.35,-182"/>
<text text-anchor="middle" x="837.85" y="-160.3" font-family="Times,serif" font-size="14.00">#20 Goto</text>
</g>
<!-- node14&#45;&gt;node20 -->
<g id="edge13" class="edge">
<title>node14&#45;&gt;node20</title>
<path fill="none" stroke="red" d="M837.85,-218.81C837.85,-210.79 837.85,-201.05 837.85,-192.07"/>
<polygon fill="red" stroke="red" points="841.35,-192.03 837.85,-182.03 834.35,-192.03 841.35,-192.03"/>
</g>
<!-- node13&#45;&gt;node14 -->
<g id="edge9" class="edge">
<title>node13&#45;&gt;node14</title>
<path fill="none" stroke="red" d="M781.47,-300.64C791.45,-289.56 804.53,-275.02 815.59,-262.74"/>
<polygon fill="red" stroke="red" points="818.42,-264.82 822.51,-255.05 813.21,-260.14 818.42,-264.82"/>
</g>
<!-- node24 -->
<g id="node10" class="node">
<title>node24</title>
<polygon fill="lightgrey" stroke="black" points="901.85,-109 773.85,-109 773.85,-73 901.85,-73 901.85,-109"/>
<text text-anchor="middle" x="837.85" y="-87.3" font-family="Times,serif" font-size="14.00">#24 LabelNode</text>
</g>
<!-- node20&#45;&gt;node24 -->
<g id="edge14" class="edge">
<title>node20&#45;&gt;node24</title>
<path fill="none" stroke="red" d="M837.85,-145.81C837.85,-137.79 837.85,-128.05 837.85,-119.07"/>
<polygon fill="red" stroke="red" points="841.35,-119.03 837.85,-109.03 834.35,-119.03 841.35,-119.03"/>
</g>
<!-- node24&#45;&gt;node25 -->
<g id="edge15" class="edge">
<title>node24&#45;&gt;node25</title>
<path fill="none" stroke="red" d="M837.85,-72.81C837.85,-64.79 837.85,-55.05 837.85,-46.07"/>
<polygon fill="red" stroke="red" points="841.35,-46.03 837.85,-36.03 834.35,-46.03 841.35,-46.03"/>
</g>
<!-- node6&#45;&gt;node23 -->
<g id="edge19" class="edge">
<title>node6:prj9&#45;&gt;node23</title>
<path fill="none" stroke="black" d="M447.85,-487C454.04,-487 450.23,-479.61 452.85,-474 466.41,-444.98 487.85,-443.03 487.85,-411 487.85,-411 487.85,-411 487.85,-236 487.85,-219.53 479.8,-203.18 471.11,-190.33"/>
<polygon fill="black" stroke="black" points="473.8,-188.07 465.09,-182.04 468.13,-192.18 473.8,-188.07"/>
<text text-anchor="middle" x="482.58" y="-188.03" font-family="Times,serif" font-size="14.00">*0</text>
</g>
<!-- node10 -->
<g id="node16" class="node">
<title>node10</title>
<polygon fill="lightgrey" stroke="transparent" points="440.35,-437 277.35,-437 277.35,-383 440.35,-383 440.35,-437"/>
<polygon fill="none" stroke="black" points="277.85,-410 277.85,-437 440.85,-437 440.85,-410 277.85,-410"/>
<text text-anchor="start" x="283.85" y="-419.8" font-family="Times,serif" font-size="14.00">#10 ExceptionGuard</text>
<polygon fill="yellow" stroke="transparent" points="277.85,-383 277.85,-410 326.85,-410 326.85,-383 277.85,-383"/>
<polygon fill="none" stroke="black" points="277.85,-383 277.85,-410 326.85,-410 326.85,-383 277.85,-383"/>
<text text-anchor="start" x="289.35" y="-392.8" font-family="Times,serif" font-size="14.00">any</text>
<polygon fill="yellow" stroke="transparent" points="326.85,-383 326.85,-410 394.85,-410 394.85,-383 326.85,-383"/>
<polygon fill="none" stroke="black" points="326.85,-383 326.85,-410 394.85,-410 394.85,-383 326.85,-383"/>
<text text-anchor="start" x="335.35" y="-392.8" font-family="Times,serif" font-size="14.00">default</text>
<polygon fill="yellow" stroke="transparent" points="394.85,-383 394.85,-410 440.85,-410 440.85,-383 394.85,-383"/>
<polygon fill="none" stroke="black" points="394.85,-383 394.85,-410 440.85,-410 440.85,-383 394.85,-383"/>
<text text-anchor="start" x="403.85" y="-392.8" font-family="Times,serif" font-size="14.00">exit</text>
</g>
<!-- node6&#45;&gt;node10 -->
<g id="edge24" class="edge">
<title>node6&#45;&gt;node10</title>
<path fill="none" stroke="red" d="M360.97,-473.78C360.69,-465.45 360.37,-456.09 360.07,-447.18"/>
<polygon fill="red" stroke="red" points="363.56,-446.91 359.73,-437.03 356.57,-447.15 363.56,-446.91"/>
</g>
<!-- node22 -->
<g id="node14" class="node">
<title>node22</title>
<polygon fill="lightgrey" stroke="black" points="421.35,-255 146.35,-255 146.35,-219 421.35,-219 421.35,-255"/>
<text text-anchor="middle" x="283.85" y="-233.3" font-family="Times,serif" font-size="14.00">#22 Merge : EndOfGuardedBlock24</text>
</g>
<!-- node22&#45;&gt;node23 -->
<g id="edge20" class="edge">
<title>node22&#45;&gt;node23</title>
<path fill="none" stroke="red" d="M323.61,-218.99C346.64,-209.14 375.84,-196.66 400.35,-186.17"/>
<polygon fill="red" stroke="red" points="402.02,-189.26 409.84,-182.11 399.27,-182.83 402.02,-189.26"/>
</g>
<!-- node19&#45;&gt;node22 -->
<g id="edge22" class="edge">
<title>node19&#45;&gt;node22</title>
<path fill="none" stroke="red" d="M283.85,-300.64C283.85,-290.3 283.85,-276.94 283.85,-265.22"/>
<polygon fill="red" stroke="red" points="287.35,-265.05 283.85,-255.05 280.35,-265.05 287.35,-265.05"/>
</g>
<!-- node10&#45;&gt;node22 -->
<g id="edge23" class="edge">
<title>node10:prj17&#45;&gt;node22</title>
<path fill="none" stroke="red" d="M417.85,-383C417.85,-327.87 364.96,-284.78 325.63,-260.36"/>
<polygon fill="red" stroke="red" points="327.35,-257.3 316.97,-255.14 323.73,-263.3 327.35,-257.3"/>
</g>
<!-- node10&#45;&gt;node19 -->
<g id="edge26" class="edge">
<title>node10:prj18&#45;&gt;node19</title>
<path fill="none" stroke="red" d="M360.85,-383C360.85,-365.82 349.22,-352.48 335.01,-342.59"/>
<polygon fill="red" stroke="red" points="336.73,-339.53 326.4,-337.16 332.99,-345.45 336.73,-339.53"/>
</g>
<!-- node16 -->
<g id="node17" class="node">
<title>node16</title>
<polygon fill="lightgrey" stroke="transparent" points="197.35,-346 20.35,-346 20.35,-292 197.35,-292 197.35,-346"/>
<polygon fill="none" stroke="black" points="20.85,-319 20.85,-346 197.85,-346 197.85,-319 20.85,-319"/>
<text text-anchor="start" x="26.85" y="-328.8" font-family="Times,serif" font-size="14.00">#16 Catch : Throwable</text>
<polygon fill="yellow" stroke="transparent" points="20.85,-292 20.85,-319 197.85,-319 197.85,-292 20.85,-292"/>
<polygon fill="none" stroke="black" points="20.85,-292 20.85,-319 197.85,-319 197.85,-292 20.85,-292"/>
<text text-anchor="start" x="30.35" y="-301.8" font-family="Times,serif" font-size="14.00">exception : Throwable</text>
</g>
<!-- node10&#45;&gt;node16 -->
<g id="edge27" class="edge">
<title>node10&#45;&gt;node16</title>
<path fill="none" stroke="black" d="M285.53,-382.9C256.15,-372.44 222.14,-360.33 191.86,-349.55"/>
<polygon fill="black" stroke="black" points="192.76,-346.16 182.17,-346.1 190.42,-352.75 192.76,-346.16"/>
<text text-anchor="middle" x="202.08" y="-340.52" font-family="Times,serif" font-size="14.00">*0</text>
</g>
<!-- node10&#45;&gt;node16 -->
<g id="edge28" class="edge">
<title>node10:prj15&#45;&gt;node16</title>
<path fill="none" stroke="red" d="M276.85,-396C231.3,-396 184.49,-372.52 151.88,-351.67"/>
<polygon fill="red" stroke="red" points="153.78,-348.72 143.5,-346.15 149.93,-354.57 153.78,-348.72"/>
</g>
<!-- node7 -->
<g id="node18" class="node">
<title>node7</title>
<ellipse fill="none" stroke="black" cx="503.85" cy="-501" rx="38.99" ry="18"/>
<text text-anchor="middle" x="503.85" y="-497.3" font-family="Times,serif" font-size="14.00">node7</text>
</g>
<!-- c0 -->
<!-- c1 -->
<!-- c0&#45;&gt;c1 -->
<g id="edge30" class="edge">
<title>c0&#45;&gt;c1</title>
<path fill="none" stroke="red" d="M1562.74,-829C1573.96,-829 1632.09,-829 1657.71,-829"/>
<polygon fill="red" stroke="red" points="1657.91,-832.5 1667.91,-829 1657.91,-825.5 1657.91,-832.5"/>
<text text-anchor="middle" x="1615.35" y="-835.8" font-family="Times,serif" font-size="14.00">Control flow</text>
</g>
<!-- c2 -->
<!-- c3 -->
<!-- c2&#45;&gt;c3 -->
<g id="edge31" class="edge">
<title>c2&#45;&gt;c3</title>
<path fill="none" stroke="red" stroke-dasharray="5,2" d="M1355.93,-829C1372.9,-829 1489.06,-829 1526.93,-829"/>
<polygon fill="red" stroke="red" points="1527.02,-832.5 1537.02,-829 1527.02,-825.5 1527.02,-832.5"/>
<text text-anchor="middle" x="1446.35" y="-835.8" font-family="Times,serif" font-size="14.00">Control flow back edge</text>
</g>
<!-- d0 -->
<!-- d1 -->
<!-- d0&#45;&gt;d1 -->
<g id="edge32" class="edge">
<title>d0&#45;&gt;d1</title>
<path fill="none" stroke="black" d="M1244.71,-829C1254.26,-829 1298.16,-829 1319.77,-829"/>
<polygon fill="black" stroke="black" points="1320,-832.5 1330,-829 1320,-825.5 1320,-832.5"/>
<text text-anchor="middle" x="1287.35" y="-835.8" font-family="Times,serif" font-size="14.00">Data flow</text>
</g>
<!-- d2 -->
<!-- d3 -->
<!-- d2&#45;&gt;d3 -->
<g id="edge33" class="edge">
<title>d2&#45;&gt;d3</title>
<path fill="none" stroke="black" stroke-dasharray="1,5" d="M1118.66,-829C1129.31,-829 1184.32,-829 1208.93,-829"/>
<polygon fill="black" stroke="black" points="1209,-832.5 1219,-829 1209,-825.5 1209,-832.5"/>
<text text-anchor="middle" x="1168.85" y="-835.8" font-family="Times,serif" font-size="14.00">Declaration</text>
</g>
<!-- d4 -->
<!-- d5 -->
<!-- d4&#45;&gt;d5 -->
<g id="edge34" class="edge">
<title>d4&#45;&gt;d5</title>
<path fill="none" stroke="blue" d="M975.95,-829C988.57,-829 1054.73,-829 1082.53,-829"/>
<polygon fill="blue" stroke="blue" points="1082.69,-832.5 1092.69,-829 1082.69,-825.5 1082.69,-832.5"/>
<text text-anchor="middle" x="1034.35" y="-835.8" font-family="Times,serif" font-size="14.00">PHI Data flow</text>
</g>
<!-- d6 -->
<!-- d7 -->
<!-- d6&#45;&gt;d7 -->
<g id="edge35" class="edge">
<title>d6&#45;&gt;d7</title>
<path fill="none" stroke="green" d="M838.85,-829C850.79,-829 913.15,-829 939.78,-829"/>
<polygon fill="green" stroke="green" points="939.8,-832.5 949.8,-829 939.8,-825.5 939.8,-832.5"/>
<text text-anchor="middle" x="894.35" y="-835.8" font-family="Times,serif" font-size="14.00">Memory flow</text>
</g>
</g>
</svg>
