<?xml version="1.0" encoding="UTF-8" standalone="no"?>
<!DOCTYPE svg PUBLIC "-//W3C//DTD SVG 1.1//EN"
 "http://www.w3.org/Graphics/SVG/1.1/DTD/svg11.dtd">
<!-- Generated by graphviz version 2.43.0 (0)
 -->
<!-- Title: debugoutput Pages: 1 -->
<svg width="1775pt" height="870pt"
 viewBox="0.00 0.00 1775.00 869.80" xmlns="http://www.w3.org/2000/svg" xmlns:xlink="http://www.w3.org/1999/xlink">
<g id="graph0" class="graph" transform="scale(1 1) rotate(0) translate(4 865.8)">
<title>debugoutput</title>
<polygon fill="white" stroke="transparent" points="-4,4 -4,-865.8 1771,-865.8 1771,4 -4,4"/>
<g id="clust1" class="cluster">
<title>cluster_000</title>
<polygon fill="none" stroke="black" points="920,-811.2 920,-853.8 1759,-853.8 1759,-811.2 920,-811.2"/>
<text text-anchor="middle" x="1339.5" y="-838.6" font-family="Times,serif" font-size="14.00">Legend</text>
</g>
<!-- node0 -->
<g id="node1" class="node">
<title>node0</title>
<polygon fill="lightgrey" stroke="black" points="910,-839 744,-839 744,-803 910,-803 910,-839"/>
<text text-anchor="middle" x="827" y="-817.3" font-family="Times,serif" font-size="14.00">#0 Method Order : 0</text>
</g>
<!-- node1 -->
<g id="node2" class="node">
<title>node1</title>
<polygon fill="lightgrey" stroke="black" points="1166,-766 888,-766 888,-730 1166,-730 1166,-766"/>
<text text-anchor="middle" x="1027" y="-744.3" font-family="Times,serif" font-size="14.00">#1 this : SynchronizedTest Order : 2</text>
</g>
<!-- node0&#45;&gt;node1 -->
<g id="edge2" class="edge">
<title>node0&#45;&gt;node1</title>
<path fill="none" stroke="black" d="M869.05,-802.99C896.34,-792.92 932.35,-780.1 963.13,-769.48"/>
<polygon fill="black" stroke="black" points="964.6,-772.67 972.92,-766.11 962.33,-766.05 964.6,-772.67"/>
<text text-anchor="middle" x="958.53" y="-776.3" font-family="Times,serif" font-size="14.00">*0</text>
</g>
<!-- node2 -->
<g id="node3" class="node">
<title>node2</title>
<polygon fill="lightgrey" stroke="black" points="776,-766 588,-766 588,-730 776,-730 776,-766"/>
<text text-anchor="middle" x="682" y="-744.3" font-family="Times,serif" font-size="14.00">#2 LabelNode Order : 1</text>
</g>
<!-- node0&#45;&gt;node2 -->
<g id="edge4" class="edge">
<title>node0&#45;&gt;node2</title>
<path fill="none" stroke="red" d="M786.41,-802.99C765.62,-793.32 740.52,-781.1 720.1,-770.73"/>
<polygon fill="red" stroke="red" points="721.58,-767.55 711.08,-766.11 718.39,-773.78 721.58,-767.55"/>
</g>
<!-- node12 -->
<g id="node13" class="node">
<title>node12</title>
<polygon fill="lightgrey" stroke="black" points="1131.5,-401 774.5,-401 774.5,-365 1131.5,-365 1131.5,-401"/>
<text text-anchor="middle" x="953" y="-379.3" font-family="Times,serif" font-size="14.00">#12 Invoke virtual compute : (int)int Order : 20</text>
</g>
<!-- node0&#45;&gt;node12 -->
<g id="edge29" class="edge">
<title>node0&#45;&gt;node12</title>
<path fill="none" stroke="black" d="M829.11,-802.91C843.39,-736.17 913.5,-492.83 941.72,-411.03"/>
<polygon fill="black" stroke="black" points="945.07,-412.04 945.1,-401.45 938.47,-409.71 945.07,-412.04"/>
</g>
<!-- node23 -->
<g id="node24" class="node">
<title>node23</title>
<polygon fill="lightgrey" stroke="black" points="174,-109 0,-109 0,-73 174,-73 174,-109"/>
<text text-anchor="middle" x="87" y="-87.3" font-family="Times,serif" font-size="14.00">#23 Throw Order : 19</text>
</g>
<!-- node0&#45;&gt;node23 -->
<g id="edge58" class="edge">
<title>node0&#45;&gt;node23</title>
<path fill="none" stroke="black" d="M743.73,-818.66C582.87,-815.55 235.23,-806.42 118,-785 70.71,-776.36 16,-797.07 16,-749 16,-749 16,-749 16,-163 16,-144.08 28.64,-127.77 43.34,-115.57"/>
<polygon fill="black" stroke="black" points="45.82,-118.08 51.64,-109.23 41.57,-112.52 45.82,-118.08"/>
</g>
<!-- node1&#45;&gt;node0 -->
<g id="edge1" class="edge">
<title>node1&#45;&gt;node0</title>
<path fill="none" stroke="green" stroke-width="2" d="M984.66,-766.11C957.31,-776.2 921.28,-789.03 890.54,-799.63"/>
<polygon fill="green" stroke="green" stroke-width="2" points="889.08,-796.43 880.76,-802.99 891.36,-803.05 889.08,-796.43"/>
</g>
<!-- node3 -->
<g id="node4" class="node">
<title>node3</title>
<polygon fill="lightgrey" stroke="black" points="730.5,-693 521.5,-693 521.5,-657 730.5,-657 730.5,-693"/>
<text text-anchor="middle" x="626" y="-671.3" font-family="Times,serif" font-size="14.00">#3 MonitorEnter Order : 3</text>
</g>
<!-- node1&#45;&gt;node3 -->
<g id="edge6" class="edge">
<title>node1&#45;&gt;node3</title>
<path fill="none" stroke="black" d="M930.95,-729.99C871.14,-719.4 794.13,-705.77 732.46,-694.85"/>
<polygon fill="black" stroke="black" points="732.76,-691.35 722.31,-693.05 731.54,-698.24 732.76,-691.35"/>
<text text-anchor="middle" x="741.63" y="-684.19" font-family="Times,serif" font-size="14.00">*0</text>
</g>
<!-- node1&#45;&gt;node12 -->
<g id="edge26" class="edge">
<title>node1&#45;&gt;node12</title>
<path fill="none" stroke="black" d="M1021.33,-730C1017.08,-715.74 1012,-694.77 1012,-676 1012,-676 1012,-676 1012,-455 1012,-436.51 1000.02,-420.27 986.86,-408"/>
<polygon fill="black" stroke="black" points="988.9,-405.14 979.05,-401.25 984.32,-410.44 988.9,-405.14"/>
<text text-anchor="middle" x="998.29" y="-403.01" font-family="Times,serif" font-size="14.00">*0</text>
</g>
<!-- node13 -->
<g id="node14" class="node">
<title>node13</title>
<polygon fill="lightgrey" stroke="black" points="1179.5,-328 964.5,-328 964.5,-292 1179.5,-292 1179.5,-328"/>
<text text-anchor="middle" x="1072" y="-306.3" font-family="Times,serif" font-size="14.00">#13 MonitorExit Order : 21</text>
</g>
<!-- node1&#45;&gt;node13 -->
<g id="edge31" class="edge">
<title>node1&#45;&gt;node13</title>
<path fill="none" stroke="black" d="M1113.11,-729.97C1138.68,-719.56 1160,-702.83 1160,-676 1160,-676 1160,-676 1160,-382 1160,-360.66 1144.13,-344.64 1125.87,-333.27"/>
<polygon fill="black" stroke="black" points="1127.19,-329.99 1116.77,-328.06 1123.71,-336.07 1127.19,-329.99"/>
<text text-anchor="middle" x="1136.7" y="-326.04" font-family="Times,serif" font-size="14.00">*0</text>
</g>
<!-- node19 -->
<g id="node20" class="node">
<title>node19</title>
<polygon fill="lightgrey" stroke="black" points="330.5,-255 115.5,-255 115.5,-219 330.5,-219 330.5,-255"/>
<text text-anchor="middle" x="223" y="-233.3" font-family="Times,serif" font-size="14.00">#19 MonitorExit Order : 12</text>
</g>
<!-- node1&#45;&gt;node19 -->
<g id="edge46" class="edge">
<title>node1&#45;&gt;node19</title>
<path fill="none" stroke="black" d="M887.86,-736.41C747.29,-725.08 546.1,-706.85 512,-693 325.89,-617.4 239.88,-588.19 167,-401 149.42,-355.86 148.06,-336.59 167,-292 171.91,-280.44 180.64,-270.16 189.77,-261.75"/>
<polygon fill="black" stroke="black" points="192.15,-264.31 197.45,-255.13 187.59,-259 192.15,-264.31"/>
<text text-anchor="middle" x="189.23" y="-269.66" font-family="Times,serif" font-size="14.00">*0</text>
</g>
<!-- node2&#45;&gt;node0 -->
<g id="edge3" class="edge">
<title>node2&#45;&gt;node0</title>
<path fill="none" stroke="green" stroke-width="2" d="M722.82,-766.11C743.64,-775.81 768.74,-788.03 789.12,-798.38"/>
<polygon fill="green" stroke="green" stroke-width="2" points="787.63,-801.55 798.13,-802.99 790.82,-795.32 787.63,-801.55"/>
</g>
<!-- node2&#45;&gt;node3 -->
<g id="edge7" class="edge">
<title>node2&#45;&gt;node3</title>
<path fill="none" stroke="red" d="M668.44,-729.81C661.63,-721.18 653.25,-710.56 645.75,-701.03"/>
<polygon fill="red" stroke="red" points="648.37,-698.71 639.43,-693.03 642.88,-703.05 648.37,-698.71"/>
</g>
<!-- node3&#45;&gt;node0 -->
<g id="edge5" class="edge">
<title>node3&#45;&gt;node0</title>
<path fill="none" stroke="green" stroke-width="2" d="M716.87,-693.12C741.14,-701.15 765.9,-712.88 785,-730 803.59,-746.66 814.58,-773.26 820.63,-793.23"/>
<polygon fill="green" stroke="green" stroke-width="2" points="817.29,-794.29 823.35,-802.98 824.03,-792.4 817.29,-794.29"/>
</g>
<!-- node4 -->
<g id="node5" class="node">
<title>node4</title>
<polygon fill="lightgrey" stroke="black" points="739.5,-620 512.5,-620 512.5,-584 739.5,-584 739.5,-620"/>
<text text-anchor="middle" x="626" y="-598.3" font-family="Times,serif" font-size="14.00">#4 ExceptionGuard Order : 4</text>
</g>
<!-- node3&#45;&gt;node4 -->
<g id="edge9" class="edge">
<title>node3&#45;&gt;node4</title>
<path fill="none" stroke="red" d="M620.12,-656.81C619.28,-648.79 619.05,-639.05 619.42,-630.07"/>
<polygon fill="red" stroke="red" points="622.92,-630.25 620.14,-620.03 615.94,-629.75 622.92,-630.25"/>
</g>
<!-- node4&#45;&gt;node3 -->
<g id="edge8" class="edge">
<title>node4&#45;&gt;node3</title>
<path fill="none" stroke="green" stroke-width="2" d="M631.86,-620.03C632.71,-628.03 632.95,-637.77 632.59,-646.75"/>
<polygon fill="green" stroke="green" stroke-width="2" points="629.09,-646.59 631.88,-656.81 636.07,-647.08 629.09,-646.59"/>
</g>
<!-- node5 -->
<g id="node6" class="node">
<title>node5</title>
<polygon fill="lightgrey" stroke="black" points="538.5,-547 401.5,-547 401.5,-511 538.5,-511 538.5,-547"/>
<text text-anchor="middle" x="470" y="-525.3" font-family="Times,serif" font-size="14.00">#5 any Order : 8</text>
</g>
<!-- node4&#45;&gt;node5 -->
<g id="edge11" class="edge">
<title>node4&#45;&gt;node5</title>
<path fill="none" stroke="red" d="M582.77,-583.99C560.29,-574.23 533.01,-561.88 510.87,-551.45"/>
<polygon fill="red" stroke="red" points="512.27,-548.24 501.73,-547.11 509.27,-554.56 512.27,-548.24"/>
</g>
<!-- node6 -->
<g id="node7" class="node">
<title>node6</title>
<polygon fill="lightgrey" stroke="black" points="484.5,-474 243.5,-474 243.5,-438 484.5,-438 484.5,-474"/>
<text text-anchor="middle" x="364" y="-452.3" font-family="Times,serif" font-size="14.00">#6 Catch : Throwable Order : 9</text>
</g>
<!-- node4&#45;&gt;node6 -->
<g id="edge13" class="edge">
<title>node4&#45;&gt;node6</title>
<path fill="none" stroke="black" d="M512.26,-587.03C458.56,-578.07 402.14,-564.76 383,-547 365.71,-530.96 359.02,-504.46 358.07,-484.36"/>
<polygon fill="black" stroke="black" points="361.57,-484.25 358.09,-474.24 354.57,-484.23 361.57,-484.25"/>
<text text-anchor="middle" x="366.51" y="-488.68" font-family="Times,serif" font-size="14.00">*0</text>
</g>
<!-- node7 -->
<g id="node8" class="node">
<title>node7</title>
<polygon fill="lightgrey" stroke="black" points="874.5,-547 713.5,-547 713.5,-511 874.5,-511 874.5,-547"/>
<text text-anchor="middle" x="794" y="-525.3" font-family="Times,serif" font-size="14.00">#7 default Order : 6</text>
</g>
<!-- node4&#45;&gt;node7 -->
<g id="edge16" class="edge">
<title>node4&#45;&gt;node7</title>
<path fill="none" stroke="red" d="M660.38,-583.99C682.84,-574.06 712.59,-561.43 738.35,-550.89"/>
<polygon fill="red" stroke="red" points="739.69,-554.13 747.64,-547.11 737.05,-547.64 739.69,-554.13"/>
</g>
<!-- node8 -->
<g id="node9" class="node">
<title>node8</title>
<polygon fill="lightgrey" stroke="black" points="695,-547 557,-547 557,-511 695,-511 695,-547"/>
<text text-anchor="middle" x="626" y="-525.3" font-family="Times,serif" font-size="14.00">#8 exit Order : 5</text>
</g>
<!-- node4&#45;&gt;node8 -->
<g id="edge18" class="edge">
<title>node4&#45;&gt;node8</title>
<path fill="none" stroke="red" d="M620.12,-583.81C619.28,-575.79 619.05,-566.05 619.42,-557.07"/>
<polygon fill="red" stroke="red" points="622.92,-557.25 620.14,-547.03 615.94,-556.75 622.92,-557.25"/>
</g>
<!-- node5&#45;&gt;node4 -->
<g id="edge10" class="edge">
<title>node5&#45;&gt;node4</title>
<path fill="none" stroke="green" stroke-width="2" d="M513.47,-547.11C536,-556.9 563.27,-569.25 585.37,-579.66"/>
<polygon fill="green" stroke="green" stroke-width="2" points="583.96,-582.87 594.49,-583.99 586.96,-576.54 583.96,-582.87"/>
</g>
<!-- node5&#45;&gt;node6 -->
<g id="edge14" class="edge">
<title>node5&#45;&gt;node6</title>
<path fill="none" stroke="red" d="M444.61,-510.99C430.68,-501.67 413.23,-489.97 398.13,-479.86"/>
<polygon fill="red" stroke="red" points="399.81,-476.77 389.55,-474.11 395.91,-482.59 399.81,-476.77"/>
</g>
<!-- node6&#45;&gt;node4 -->
<g id="edge12" class="edge">
<title>node6&#45;&gt;node4</title>
<path fill="none" stroke="green" stroke-width="2" d="M370.82,-474.24C374.95,-494.6 380.61,-528.08 401,-547 416.98,-561.83 458.96,-573.56 502.42,-582.24"/>
<polygon fill="green" stroke="green" stroke-width="2" points="501.81,-585.69 512.29,-584.16 503.14,-578.81 501.81,-585.69"/>
</g>
<!-- node9 -->
<g id="node10" class="node">
<title>node9</title>
<polygon fill="lightgrey" stroke="black" points="718,-401 440,-401 440,-365 718,-365 718,-401"/>
<text text-anchor="middle" x="579" y="-379.3" font-family="Times,serif" font-size="14.00">#9 exception : Throwable Order : 18</text>
</g>
<!-- node6&#45;&gt;node9 -->
<g id="edge20" class="edge">
<title>node6&#45;&gt;node9</title>
<path fill="none" stroke="black" d="M409.64,-437.99C439.32,-427.84 478.46,-414.88 511.66,-404.2"/>
<polygon fill="black" stroke="black" points="512.85,-407.5 521.31,-401.11 510.72,-400.83 512.85,-407.5"/>
<text text-anchor="middle" x="506.62" y="-410.99" font-family="Times,serif" font-size="14.00">*0</text>
</g>
<!-- node10 -->
<g id="node11" class="node">
<title>node10</title>
<polygon fill="lightgrey" stroke="black" points="421.5,-401 176.5,-401 176.5,-365 421.5,-365 421.5,-401"/>
<text text-anchor="middle" x="299" y="-379.3" font-family="Times,serif" font-size="14.00">#10 ExceptionGuard Order : 10</text>
</g>
<!-- node6&#45;&gt;node10 -->
<g id="edge22" class="edge">
<title>node6&#45;&gt;node10</title>
<path fill="none" stroke="red" d="M342.39,-437.81C333.49,-429.09 323.45,-418.34 315.19,-408.75"/>
<polygon fill="red" stroke="red" points="317.83,-406.45 308.73,-401.03 312.46,-410.94 317.83,-406.45"/>
</g>
<!-- node7&#45;&gt;node4 -->
<g id="edge15" class="edge">
<title>node7&#45;&gt;node4</title>
<path fill="none" stroke="green" stroke-width="2" d="M759.38,-547.11C736.86,-557.07 707.11,-569.69 681.38,-580.22"/>
<polygon fill="green" stroke="green" stroke-width="2" points="680.04,-576.98 672.1,-583.99 682.68,-583.47 680.04,-576.98"/>
</g>
<!-- node11 -->
<g id="node12" class="node">
<title>node11</title>
<polygon fill="lightgreen" stroke="black" points="881.93,-448.54 881.93,-463.46 815.19,-474 720.81,-474 654.07,-463.46 654.07,-448.54 720.81,-438 815.19,-438 881.93,-448.54"/>
<text text-anchor="middle" x="768" y="-452.3" font-family="Times,serif" font-size="14.00">#11 int 10 Order : 7</text>
</g>
<!-- node7&#45;&gt;node11 -->
<g id="edge24" class="edge">
<title>node7&#45;&gt;node11</title>
<path fill="none" stroke="black" stroke-dasharray="1,5" d="M781.83,-510.81C778.01,-502.7 774.17,-492.84 771.24,-483.78"/>
<polygon fill="black" stroke="black" points="774.55,-482.64 768.37,-474.03 767.84,-484.61 774.55,-482.64"/>
</g>
<!-- node7&#45;&gt;node12 -->
<g id="edge28" class="edge">
<title>node7&#45;&gt;node12</title>
<path fill="none" stroke="red" d="M833.98,-510.94C852.62,-501.75 874.31,-489.17 891,-474 901.97,-464.03 922.65,-432.7 937.09,-409.8"/>
<polygon fill="red" stroke="red" points="940.14,-411.53 942.48,-401.2 934.21,-407.81 940.14,-411.53"/>
</g>
<!-- node8&#45;&gt;node4 -->
<g id="edge17" class="edge">
<title>node8&#45;&gt;node4</title>
<path fill="none" stroke="green" stroke-width="2" d="M631.86,-547.03C632.71,-555.03 632.95,-564.77 632.59,-573.75"/>
<polygon fill="green" stroke="green" stroke-width="2" points="629.09,-573.59 631.88,-583.81 636.07,-574.08 629.09,-573.59"/>
</g>
<!-- node14 -->
<g id="node15" class="node">
<title>node14</title>
<polygon fill="lightgrey" stroke="black" points="1245.5,-255 892.5,-255 892.5,-219 1245.5,-219 1245.5,-255"/>
<text text-anchor="middle" x="1069" y="-233.3" font-family="Times,serif" font-size="14.00">#14 Merge : EndOfGuardedBlock18 Order : 22</text>
</g>
<!-- node8&#45;&gt;node14 -->
<g id="edge35" class="edge">
<title>node8&#45;&gt;node14</title>
<path fill="none" stroke="red" d="M625.23,-510.82C625.26,-491.13 628.18,-458.9 645,-438 670.06,-406.85 693.8,-423.28 727,-401 746.32,-388.03 745.5,-377.69 765,-365 776.24,-357.69 934.13,-292.94 1017.79,-258.83"/>
<polygon fill="red" stroke="red" points="1019.19,-262.04 1027.12,-255.03 1016.54,-255.56 1019.19,-262.04"/>
</g>
<!-- node9&#45;&gt;node6 -->
<g id="edge19" class="edge">
<title>node9&#45;&gt;node6</title>
<path fill="none" stroke="green" stroke-width="2" d="M533.05,-401.11C503.3,-411.29 464.15,-424.25 430.99,-434.91"/>
<polygon fill="green" stroke="green" stroke-width="2" points="429.81,-431.61 421.36,-437.99 431.95,-438.28 429.81,-431.61"/>
</g>
<!-- node9&#45;&gt;node23 -->
<g id="edge56" class="edge">
<title>node9&#45;&gt;node23</title>
<path fill="none" stroke="black" d="M683.19,-364.96C735.55,-353.34 788,-335.57 788,-311 788,-311 788,-311 788,-163 788,-103.03 376.6,-93.27 184.13,-91.99"/>
<polygon fill="black" stroke="black" points="184.03,-88.49 174.01,-91.93 183.99,-95.49 184.03,-88.49"/>
<text text-anchor="middle" x="192.19" y="-79.89" font-family="Times,serif" font-size="14.00">*0</text>
</g>
<!-- node10&#45;&gt;node6 -->
<g id="edge21" class="edge">
<title>node10&#45;&gt;node6</title>
<path fill="none" stroke="green" stroke-width="2" d="M320.45,-401.03C329.33,-409.73 339.38,-420.47 347.66,-430.08"/>
<polygon fill="green" stroke="green" stroke-width="2" points="345.04,-432.4 354.14,-437.81 350.4,-427.9 345.04,-432.4"/>
</g>
<!-- node15 -->
<g id="node16" class="node">
<title>node15</title>
<polygon fill="lightgrey" stroke="black" points="703.5,-328 548.5,-328 548.5,-292 703.5,-292 703.5,-328"/>
<text text-anchor="middle" x="626" y="-306.3" font-family="Times,serif" font-size="14.00">#15 any Order : 15</text>
</g>
<!-- node10&#45;&gt;node15 -->
<g id="edge37" class="edge">
<title>node10&#45;&gt;node15</title>
<path fill="none" stroke="red" d="M371.47,-364.99C420.8,-354.03 486.32,-339.8 538.55,-328.7"/>
<polygon fill="red" stroke="red" points="539.42,-332.09 548.48,-326.59 537.97,-325.25 539.42,-332.09"/>
</g>
<!-- node16 -->
<g id="node17" class="node">
<title>node16</title>
<polygon fill="lightgrey" stroke="black" points="755.5,-255 496.5,-255 496.5,-219 755.5,-219 755.5,-255"/>
<text text-anchor="middle" x="626" y="-233.3" font-family="Times,serif" font-size="14.00">#16 Catch : Throwable Order : 16</text>
</g>
<!-- node10&#45;&gt;node16 -->
<g id="edge39" class="edge">
<title>node10&#45;&gt;node16</title>
<path fill="none" stroke="black" d="M421.51,-365.35C540.22,-349.73 702.4,-328.68 703,-328 713.55,-315.98 710.74,-306 703,-292 695.65,-278.71 683.52,-268.25 670.99,-260.22"/>
<polygon fill="black" stroke="black" points="672.68,-257.16 662.3,-255.05 669.1,-263.17 672.68,-257.16"/>
<text text-anchor="middle" x="682.2" y="-253.37" font-family="Times,serif" font-size="14.00">*0</text>
</g>
<!-- node17 -->
<g id="node18" class="node">
<title>node17</title>
<polygon fill="lightgrey" stroke="black" points="530,-328 374,-328 374,-292 530,-292 530,-328"/>
<text text-anchor="middle" x="452" y="-306.3" font-family="Times,serif" font-size="14.00">#17 exit Order : 13</text>
</g>
<!-- node10&#45;&gt;node17 -->
<g id="edge42" class="edge">
<title>node10&#45;&gt;node17</title>
<path fill="none" stroke="red" d="M329.79,-364.99C349.88,-355.19 376.52,-342.77 399.83,-332.31"/>
<polygon fill="red" stroke="red" points="401.54,-335.38 409.25,-328.11 398.69,-328.99 401.54,-335.38"/>
</g>
<!-- node18 -->
<g id="node19" class="node">
<title>node18</title>
<polygon fill="lightgrey" stroke="black" points="355.5,-328 176.5,-328 176.5,-292 355.5,-292 355.5,-328"/>
<text text-anchor="middle" x="266" y="-306.3" font-family="Times,serif" font-size="14.00">#18 default Order : 11</text>
</g>
<!-- node10&#45;&gt;node18 -->
<g id="edge44" class="edge">
<title>node10&#45;&gt;node18</title>
<path fill="none" stroke="red" d="M285.13,-364.81C280.47,-356.62 275.6,-346.62 271.76,-337.48"/>
<polygon fill="red" stroke="red" points="274.96,-336.06 268.05,-328.03 268.44,-338.62 274.96,-336.06"/>
</g>
<!-- node11&#45;&gt;node7 -->
<g id="edge23" class="edge">
<title>node11&#45;&gt;node7</title>
<path fill="none" stroke="green" stroke-width="2" d="M780.1,-474.03C783.92,-482.12 787.76,-491.98 790.7,-501.05"/>
<polygon fill="green" stroke="green" stroke-width="2" points="787.4,-502.21 793.58,-510.81 794.11,-500.23 787.4,-502.21"/>
</g>
<!-- node11&#45;&gt;node12 -->
<g id="edge27" class="edge">
<title>node11&#45;&gt;node12</title>
<path fill="none" stroke="black" d="M812.31,-437.99C838.32,-428.01 871.38,-415.32 898.92,-404.76"/>
<polygon fill="black" stroke="black" points="900.33,-407.96 908.41,-401.11 897.82,-401.43 900.33,-407.96"/>
<text text-anchor="middle" x="894.51" y="-411.8" font-family="Times,serif" font-size="14.00">*1</text>
</g>
<!-- node12&#45;&gt;node0 -->
<g id="edge25" class="edge">
<title>node12&#45;&gt;node0</title>
<path fill="none" stroke="green" stroke-width="2" d="M950.82,-401.45C936.33,-468.81 866.2,-712.18 838.14,-793.4"/>
<polygon fill="green" stroke="green" stroke-width="2" points="834.81,-792.31 834.77,-802.91 841.41,-794.65 834.81,-792.31"/>
</g>
<!-- node12&#45;&gt;node13 -->
<g id="edge32" class="edge">
<title>node12&#45;&gt;node13</title>
<path fill="none" stroke="red" d="M981.5,-364.99C997.43,-355.49 1017.47,-343.54 1034.64,-333.29"/>
<polygon fill="red" stroke="red" points="1036.52,-336.24 1043.32,-328.11 1032.94,-330.23 1036.52,-336.24"/>
</g>
<!-- node25 -->
<g id="node26" class="node">
<title>node25</title>
<polygon fill="lightgrey" stroke="black" points="1158.5,-36 979.5,-36 979.5,0 1158.5,0 1158.5,-36"/>
<text text-anchor="middle" x="1069" y="-14.3" font-family="Times,serif" font-size="14.00">#25 Return Order : 25</text>
</g>
<!-- node12&#45;&gt;node25 -->
<g id="edge63" class="edge">
<title>node12&#45;&gt;node25</title>
<path fill="none" stroke="black" d="M907.46,-364.93C885.56,-353.49 864,-335.9 864,-311 864,-311 864,-311 864,-90 864,-65.45 917.15,-47.5 969.32,-35.78"/>
<polygon fill="black" stroke="black" points="970.35,-39.14 979.38,-33.59 968.87,-32.3 970.35,-39.14"/>
</g>
<!-- node13&#45;&gt;node0 -->
<g id="edge30" class="edge">
<title>node13&#45;&gt;node0</title>
<path fill="none" stroke="green" stroke-width="2" d="M1142.5,-328.03C1186.95,-343.45 1236,-371.27 1236,-419 1236,-749 1236,-749 1236,-749 1236,-768.23 1228.67,-775.42 1212,-785 1185.33,-800.33 978.96,-799.15 920.45,-802.87"/>
<polygon fill="green" stroke="green" stroke-width="2" points="919.99,-799.4 910.33,-803.75 920.59,-806.37 919.99,-799.4"/>
</g>
<!-- node13&#45;&gt;node14 -->
<g id="edge34" class="edge">
<title>node13&#45;&gt;node14</title>
<path fill="none" stroke="red" d="M1071.27,-291.81C1070.93,-283.79 1070.52,-274.05 1070.14,-265.07"/>
<polygon fill="red" stroke="red" points="1073.64,-264.87 1069.72,-255.03 1066.64,-265.17 1073.64,-264.87"/>
</g>
<!-- node14&#45;&gt;node0 -->
<g id="edge33" class="edge">
<title>node14&#45;&gt;node0</title>
<path fill="none" stroke="green" stroke-width="2" d="M1139.15,-255C1158.29,-263.07 1177.04,-274.86 1189,-292 1221.39,-338.4 1198,-362.41 1198,-419 1198,-749 1198,-749 1198,-749 1198,-809.94 998.17,-794.15 920.48,-802.59"/>
<polygon fill="green" stroke="green" stroke-width="2" points="919.8,-799.15 910.36,-803.96 920.73,-806.09 919.8,-799.15"/>
</g>
<!-- node20 -->
<g id="node21" class="node">
<title>node20</title>
<polygon fill="lightgrey" stroke="black" points="1150.5,-182 987.5,-182 987.5,-146 1150.5,-146 1150.5,-182"/>
<text text-anchor="middle" x="1069" y="-160.3" font-family="Times,serif" font-size="14.00">#20 Goto Order : 23</text>
</g>
<!-- node14&#45;&gt;node20 -->
<g id="edge49" class="edge">
<title>node14&#45;&gt;node20</title>
<path fill="none" stroke="red" d="M1063.12,-218.81C1062.28,-210.79 1062.05,-201.05 1062.42,-192.07"/>
<polygon fill="red" stroke="red" points="1065.92,-192.25 1063.14,-182.03 1058.94,-191.75 1065.92,-192.25"/>
</g>
<!-- node15&#45;&gt;node10 -->
<g id="edge36" class="edge">
<title>node15&#45;&gt;node10</title>
<path fill="none" stroke="green" stroke-width="2" d="M553.33,-328.05C506.13,-338.54 444.18,-352.01 393.22,-362.86"/>
<polygon fill="green" stroke="green" stroke-width="2" points="392.24,-359.49 383.18,-364.99 393.69,-366.34 392.24,-359.49"/>
</g>
<!-- node15&#45;&gt;node16 -->
<g id="edge40" class="edge">
<title>node15&#45;&gt;node16</title>
<path fill="none" stroke="red" d="M626,-291.81C626,-283.79 626,-274.05 626,-265.07"/>
<polygon fill="red" stroke="red" points="629.5,-265.03 626,-255.03 622.5,-265.03 629.5,-265.03"/>
</g>
<!-- node16&#45;&gt;node10 -->
<g id="edge38" class="edge">
<title>node16&#45;&gt;node10</title>
<path fill="none" stroke="green" stroke-width="2" d="M679.02,-255.05C695.66,-263.58 711.96,-275.65 721,-292 728.74,-306 731.55,-315.98 721,-328 720.4,-328.69 555.19,-350.13 431.66,-365.78"/>
<polygon fill="green" stroke="green" stroke-width="2" points="431.2,-362.31 421.72,-367.04 432.08,-369.25 431.2,-362.31"/>
</g>
<!-- node21 -->
<g id="node22" class="node">
<title>node21</title>
<polygon fill="lightgrey" stroke="black" points="759.5,-182 472.5,-182 472.5,-146 759.5,-146 759.5,-182"/>
<text text-anchor="middle" x="616" y="-160.3" font-family="Times,serif" font-size="14.00">#21 exception : Throwable Order : 17</text>
</g>
<!-- node16&#45;&gt;node21 -->
<g id="edge51" class="edge">
<title>node16&#45;&gt;node21</title>
<path fill="none" stroke="black" d="M617.7,-218.81C615.73,-210.79 614.13,-201.05 613.23,-192.07"/>
<polygon fill="black" stroke="black" points="616.72,-191.76 612.54,-182.03 609.74,-192.25 616.72,-191.76"/>
<text text-anchor="middle" x="622.23" y="-195.83" font-family="Times,serif" font-size="14.00">*0</text>
</g>
<!-- node17&#45;&gt;node10 -->
<g id="edge41" class="edge">
<title>node17&#45;&gt;node10</title>
<path fill="none" stroke="green" stroke-width="2" d="M420.99,-328.11C400.85,-337.94 374.2,-350.36 350.92,-360.8"/>
<polygon fill="green" stroke="green" stroke-width="2" points="349.22,-357.73 341.51,-364.99 352.07,-364.12 349.22,-357.73"/>
</g>
<!-- node22 -->
<g id="node23" class="node">
<title>node22</title>
<polygon fill="lightgrey" stroke="black" points="415.5,-182 62.5,-182 62.5,-146 415.5,-146 415.5,-182"/>
<text text-anchor="middle" x="239" y="-160.3" font-family="Times,serif" font-size="14.00">#22 Merge : EndOfGuardedBlock24 Order : 14</text>
</g>
<!-- node17&#45;&gt;node22 -->
<g id="edge54" class="edge">
<title>node17&#45;&gt;node22</title>
<path fill="none" stroke="red" d="M432.8,-291.96C410.94,-272.98 373.74,-241.95 339,-219 321.34,-207.33 300.91,-195.96 283.15,-186.68"/>
<polygon fill="red" stroke="red" points="284.62,-183.5 274.13,-182.03 281.41,-189.72 284.62,-183.5"/>
</g>
<!-- node18&#45;&gt;node10 -->
<g id="edge43" class="edge">
<title>node18&#45;&gt;node10</title>
<path fill="none" stroke="green" stroke-width="2" d="M279.78,-328.03C284.44,-336.2 289.32,-346.19 293.17,-355.34"/>
<polygon fill="green" stroke="green" stroke-width="2" points="289.98,-356.78 296.89,-364.81 296.49,-354.23 289.98,-356.78"/>
</g>
<!-- node18&#45;&gt;node19 -->
<g id="edge47" class="edge">
<title>node18&#45;&gt;node19</title>
<path fill="none" stroke="red" d="M255.59,-291.81C250.47,-283.35 244.19,-272.98 238.51,-263.61"/>
<polygon fill="red" stroke="red" points="241.49,-261.77 233.31,-255.03 235.5,-265.4 241.49,-261.77"/>
</g>
<!-- node19&#45;&gt;node0 -->
<g id="edge45" class="edge">
<title>node19&#45;&gt;node0</title>
<path fill="none" stroke="green" stroke-width="2" d="M156.94,-255.06C132.21,-265.77 110,-282.7 110,-309 110,-749 110,-749 110,-749 110,-810.94 539.26,-819.54 733.5,-820.25"/>
<polygon fill="green" stroke="green" stroke-width="2" points="733.69,-823.75 743.7,-820.29 733.71,-816.75 733.69,-823.75"/>
</g>
<!-- node19&#45;&gt;node22 -->
<g id="edge53" class="edge">
<title>node19&#45;&gt;node22</title>
<path fill="none" stroke="red" d="M226.87,-218.81C228.68,-210.79 230.88,-201.05 232.9,-192.07"/>
<polygon fill="red" stroke="red" points="236.38,-192.55 235.16,-182.03 229.55,-191.01 236.38,-192.55"/>
</g>
<!-- node20&#45;&gt;node14 -->
<g id="edge48" class="edge">
<title>node20&#45;&gt;node14</title>
<path fill="none" stroke="green" stroke-width="2" d="M1074.86,-182.03C1075.71,-190.03 1075.95,-199.77 1075.59,-208.75"/>
<polygon fill="green" stroke="green" stroke-width="2" points="1072.09,-208.59 1074.88,-218.81 1079.07,-209.08 1072.09,-208.59"/>
</g>
<!-- node24 -->
<g id="node25" class="node">
<title>node24</title>
<polygon fill="lightgrey" stroke="black" points="1172,-109 966,-109 966,-73 1172,-73 1172,-109"/>
<text text-anchor="middle" x="1069" y="-87.3" font-family="Times,serif" font-size="14.00">#24 LabelNode Order : 24</text>
</g>
<!-- node20&#45;&gt;node24 -->
<g id="edge60" class="edge">
<title>node20&#45;&gt;node24</title>
<path fill="none" stroke="red" d="M1063.12,-145.81C1062.28,-137.79 1062.05,-128.05 1062.42,-119.07"/>
<polygon fill="red" stroke="red" points="1065.92,-119.25 1063.14,-109.03 1058.94,-118.75 1065.92,-119.25"/>
</g>
<!-- node21&#45;&gt;node16 -->
<g id="edge50" class="edge">
<title>node21&#45;&gt;node16</title>
<path fill="none" stroke="green" stroke-width="2" d="M624.26,-182.03C626.23,-190.03 627.85,-199.77 628.75,-208.75"/>
<polygon fill="green" stroke="green" stroke-width="2" points="625.26,-209.08 629.46,-218.81 632.24,-208.59 625.26,-209.08"/>
</g>
<!-- node22&#45;&gt;node0 -->
<g id="edge52" class="edge">
<title>node22&#45;&gt;node0</title>
<path fill="none" stroke="green" stroke-width="2" d="M114.57,-182.06C90.19,-192.6 72,-209.38 72,-236 72,-749 72,-749 72,-749 72,-814.75 531.68,-821.12 733.67,-820.75"/>
<polygon fill="green" stroke="green" stroke-width="2" points="733.69,-824.25 743.68,-820.72 733.67,-817.25 733.69,-824.25"/>
</g>
<!-- node22&#45;&gt;node23 -->
<g id="edge57" class="edge">
<title>node22&#45;&gt;node23</title>
<path fill="none" stroke="red" d="M202.59,-145.99C181.69,-136.23 155.24,-123.88 132.92,-113.45"/>
<polygon fill="red" stroke="red" points="134.18,-110.17 123.64,-109.11 131.22,-116.52 134.18,-110.17"/>
</g>
<!-- node23&#45;&gt;node0 -->
<g id="edge55" class="edge">
<title>node23&#45;&gt;node0</title>
<path fill="none" stroke="green" stroke-width="2" d="M66.88,-109.23C51.76,-121.82 34,-140.58 34,-163 34,-749 34,-749 34,-749 34,-797.07 88.71,-776.36 136,-785 248.29,-805.52 572.01,-814.76 733.37,-818.24"/>
<polygon fill="green" stroke="green" stroke-width="2" points="733.69,-821.74 743.76,-818.46 733.84,-814.74 733.69,-821.74"/>
</g>
<!-- node24&#45;&gt;node20 -->
<g id="edge59" class="edge">
<title>node24&#45;&gt;node20</title>
<path fill="none" stroke="green" stroke-width="2" d="M1074.86,-109.03C1075.71,-117.03 1075.95,-126.77 1075.59,-135.75"/>
<polygon fill="green" stroke="green" stroke-width="2" points="1072.09,-135.59 1074.88,-145.81 1079.07,-136.08 1072.09,-135.59"/>
</g>
<!-- node24&#45;&gt;node25 -->
<g id="edge62" class="edge">
<title>node24&#45;&gt;node25</title>
<path fill="none" stroke="red" d="M1069,-72.81C1069,-64.79 1069,-55.05 1069,-46.07"/>
<polygon fill="red" stroke="red" points="1072.5,-46.03 1069,-36.03 1065.5,-46.03 1072.5,-46.03"/>
</g>
<!-- node25&#45;&gt;node0 -->
<g id="edge61" class="edge">
<title>node25&#45;&gt;node0</title>
<path fill="none" stroke="green" stroke-width="2" d="M1158.62,-33.59C1213.78,-45.21 1274,-63.87 1274,-90 1274,-749 1274,-749 1274,-749 1274,-826.55 1015.58,-795.57 920.33,-802.76"/>
<polygon fill="green" stroke="green" stroke-width="2" points="919.94,-799.29 910.33,-803.74 920.62,-806.25 919.94,-799.29"/>
</g>
<!-- c0 -->
<!-- c1 -->
<!-- c0&#45;&gt;c1 -->
<g id="edge64" class="edge">
<title>c0&#45;&gt;c1</title>
<path fill="none" stroke="red" d="M1641.89,-821C1653.11,-821 1711.24,-821 1736.86,-821"/>
<polygon fill="red" stroke="red" points="1737.06,-824.5 1747.06,-821 1737.06,-817.5 1737.06,-824.5"/>
<text text-anchor="middle" x="1694.5" y="-827.8" font-family="Times,serif" font-size="14.00">Control flow</text>
</g>
<!-- c2 -->
<!-- c3 -->
<!-- c2&#45;&gt;c3 -->
<g id="edge65" class="edge">
<title>c2&#45;&gt;c3</title>
<path fill="none" stroke="red" stroke-dasharray="5,2" d="M1435.08,-821C1452.05,-821 1568.21,-821 1606.08,-821"/>
<polygon fill="red" stroke="red" points="1606.17,-824.5 1616.17,-821 1606.17,-817.5 1606.17,-824.5"/>
<text text-anchor="middle" x="1525.5" y="-827.8" font-family="Times,serif" font-size="14.00">Control flow back edge</text>
</g>
<!-- d0 -->
<!-- d1 -->
<!-- d0&#45;&gt;d1 -->
<g id="edge66" class="edge">
<title>d0&#45;&gt;d1</title>
<path fill="none" stroke="black" d="M1323.86,-821C1333.41,-821 1377.31,-821 1398.92,-821"/>
<polygon fill="black" stroke="black" points="1399.15,-824.5 1409.15,-821 1399.15,-817.5 1399.15,-824.5"/>
<text text-anchor="middle" x="1366.5" y="-827.8" font-family="Times,serif" font-size="14.00">Data flow</text>
</g>
<!-- d2 -->
<!-- d3 -->
<!-- d2&#45;&gt;d3 -->
<g id="edge67" class="edge">
<title>d2&#45;&gt;d3</title>
<path fill="none" stroke="black" stroke-dasharray="1,5" d="M1197.81,-821C1208.46,-821 1263.46,-821 1288.08,-821"/>
<polygon fill="black" stroke="black" points="1288.15,-824.5 1298.15,-821 1288.15,-817.5 1288.15,-824.5"/>
<text text-anchor="middle" x="1248" y="-827.8" font-family="Times,serif" font-size="14.00">Declaration</text>
</g>
<!-- d4 -->
<!-- d5 -->
<!-- d4&#45;&gt;d5 -->
<g id="edge68" class="edge">
<title>d4&#45;&gt;d5</title>
<path fill="none" stroke="blue" d="M1055.1,-821C1067.72,-821 1133.88,-821 1161.68,-821"/>
<polygon fill="blue" stroke="blue" points="1161.84,-824.5 1171.84,-821 1161.84,-817.5 1161.84,-824.5"/>
<text text-anchor="middle" x="1113.5" y="-827.8" font-family="Times,serif" font-size="14.00">PHI Data flow</text>
</g>
<!-- d6 -->
<!-- d7 -->
<!-- d6&#45;&gt;d7 -->
<g id="edge69" class="edge">
<title>d6&#45;&gt;d7</title>
<path fill="none" stroke="green" d="M932.11,-821C943.15,-821 994.67,-821 1018.66,-821"/>
<polygon fill="green" stroke="green" points="1018.9,-824.5 1028.9,-821 1018.9,-817.5 1018.9,-824.5"/>
<text text-anchor="middle" x="980.5" y="-827.8" font-family="Times,serif" font-size="14.00">Dominance</text>
</g>
</g>
</svg>
