<?xml version="1.0" encoding="UTF-8" standalone="no"?>
<!DOCTYPE svg PUBLIC "-//W3C//DTD SVG 1.1//EN"
 "http://www.w3.org/Graphics/SVG/1.1/DTD/svg11.dtd">
<!-- Generated by graphviz version 2.43.0 (0)
 -->
<!-- Title: debugoutput Pages: 1 -->
<svg width="1421pt" height="870pt"
 viewBox="0.00 0.00 1420.50 869.80" xmlns="http://www.w3.org/2000/svg" xmlns:xlink="http://www.w3.org/1999/xlink">
<g id="graph0" class="graph" transform="scale(1 1) rotate(0) translate(4 865.8)">
<title>debugoutput</title>
<polygon fill="white" stroke="transparent" points="-4,4 -4,-865.8 1416.5,-865.8 1416.5,4 -4,4"/>
<g id="clust1" class="cluster">
<title>cluster_000</title>
<polygon fill="none" stroke="black" points="565.5,-811.2 565.5,-853.8 1404.5,-853.8 1404.5,-811.2 565.5,-811.2"/>
<text text-anchor="middle" x="985" y="-838.6" font-family="Times,serif" font-size="14.00">Legend</text>
</g>
<!-- node0 -->
<g id="node1" class="node">
<title>node0</title>
<polygon fill="lightgrey" stroke="black" points="555.5,-839 389.5,-839 389.5,-803 555.5,-803 555.5,-839"/>
<text text-anchor="middle" x="472.5" y="-817.3" font-family="Times,serif" font-size="14.00">#0 Method Order : 0</text>
</g>
<!-- node1 -->
<g id="node2" class="node">
<title>node1</title>
<polygon fill="lightgrey" stroke="black" points="360.5,-766 82.5,-766 82.5,-730 360.5,-730 360.5,-766"/>
<text text-anchor="middle" x="221.5" y="-744.3" font-family="Times,serif" font-size="14.00">#1 this : SynchronizedTest Order : 2</text>
</g>
<!-- node0&#45;&gt;node1 -->
<g id="edge2" class="edge">
<title>node0&#45;&gt;node1</title>
<path fill="none" stroke="black" d="M406.52,-802.99C369.22,-792.75 322.84,-779.66 285.82,-768.93"/>
<polygon fill="black" stroke="black" points="286.71,-765.54 276.13,-766.11 284.76,-772.27 286.71,-765.54"/>
<text text-anchor="middle" x="295.89" y="-759.36" font-family="Times,serif" font-size="14.00">*0</text>
</g>
<!-- node2 -->
<g id="node3" class="node">
<title>node2</title>
<polygon fill="lightgrey" stroke="black" points="566.5,-766 378.5,-766 378.5,-730 566.5,-730 566.5,-766"/>
<text text-anchor="middle" x="472.5" y="-744.3" font-family="Times,serif" font-size="14.00">#2 LabelNode Order : 1</text>
</g>
<!-- node0&#45;&gt;node2 -->
<g id="edge4" class="edge">
<title>node0&#45;&gt;node2</title>
<path fill="none" stroke="red" d="M466.62,-802.81C465.78,-794.79 465.55,-785.05 465.92,-776.07"/>
<polygon fill="red" stroke="red" points="469.42,-776.25 466.64,-766.03 462.44,-775.75 469.42,-776.25"/>
</g>
<!-- node8 -->
<g id="node9" class="node">
<title>node8</title>
<polygon fill="lightgrey" stroke="black" points="544,-401 205,-401 205,-365 544,-365 544,-401"/>
<text text-anchor="middle" x="374.5" y="-379.3" font-family="Times,serif" font-size="14.00">#8 Invoke virtual compute : (int)int Order : 8</text>
</g>
<!-- node0&#45;&gt;node8 -->
<g id="edge20" class="edge">
<title>node0&#45;&gt;node8</title>
<path fill="none" stroke="black" d="M538.57,-802.92C582.68,-790.15 632.5,-771.12 632.5,-749 632.5,-749 632.5,-749 632.5,-455 632.5,-430.1 588.6,-413.72 536.99,-403.05"/>
<polygon fill="black" stroke="black" points="537.42,-399.56 526.93,-401.05 536.06,-406.43 537.42,-399.56"/>
</g>
<!-- node1&#45;&gt;node0 -->
<g id="edge1" class="edge">
<title>node1&#45;&gt;node0</title>
<path fill="none" stroke="green" stroke-width="2" d="M287.87,-766.11C325.23,-776.38 371.61,-789.47 408.57,-800.18"/>
<polygon fill="green" stroke="green" stroke-width="2" points="407.66,-803.56 418.24,-802.99 409.61,-796.84 407.66,-803.56"/>
</g>
<!-- node3 -->
<g id="node4" class="node">
<title>node3</title>
<polygon fill="lightgrey" stroke="black" points="577,-693 368,-693 368,-657 577,-657 577,-693"/>
<text text-anchor="middle" x="472.5" y="-671.3" font-family="Times,serif" font-size="14.00">#3 MonitorEnter Order : 3</text>
</g>
<!-- node1&#45;&gt;node3 -->
<g id="edge6" class="edge">
<title>node1&#45;&gt;node3</title>
<path fill="none" stroke="black" d="M281.62,-729.99C317.83,-719.75 364.12,-706.66 402.05,-695.93"/>
<polygon fill="black" stroke="black" points="403.33,-699.2 412,-693.11 401.42,-692.47 403.33,-699.2"/>
<text text-anchor="middle" x="396.86" y="-702.48" font-family="Times,serif" font-size="14.00">*0</text>
</g>
<!-- node1&#45;&gt;node8 -->
<g id="edge17" class="edge">
<title>node1&#45;&gt;node8</title>
<path fill="none" stroke="black" d="M223.39,-729.81C224.81,-715.44 226.5,-694.41 226.5,-676 226.5,-676 226.5,-676 226.5,-455 226.5,-431.56 241.78,-415.85 262.52,-405.33"/>
<polygon fill="black" stroke="black" points="264.07,-408.47 271.71,-401.13 261.16,-402.1 264.07,-408.47"/>
<text text-anchor="middle" x="258.73" y="-412.65" font-family="Times,serif" font-size="14.00">*0</text>
</g>
<!-- node9 -->
<g id="node10" class="node">
<title>node9</title>
<polygon fill="lightgrey" stroke="black" points="275,-328 78,-328 78,-292 275,-292 275,-328"/>
<text text-anchor="middle" x="176.5" y="-306.3" font-family="Times,serif" font-size="14.00">#9 MonitorExit Order : 9</text>
</g>
<!-- node1&#45;&gt;node9 -->
<g id="edge22" class="edge">
<title>node1&#45;&gt;node9</title>
<path fill="none" stroke="black" d="M202.94,-729.91C190.54,-716.58 176.5,-696.87 176.5,-676 176.5,-676 176.5,-676 176.5,-382 176.5,-367.65 176.5,-351.67 176.5,-338.51"/>
<polygon fill="black" stroke="black" points="180,-338.22 176.5,-328.22 173,-338.22 180,-338.22"/>
<text text-anchor="middle" x="184.95" y="-342.64" font-family="Times,serif" font-size="14.00">*0</text>
</g>
<!-- node2&#45;&gt;node0 -->
<g id="edge3" class="edge">
<title>node2&#45;&gt;node0</title>
<path fill="none" stroke="green" stroke-width="2" d="M478.36,-766.03C479.21,-774.03 479.45,-783.77 479.09,-792.75"/>
<polygon fill="green" stroke="green" stroke-width="2" points="475.59,-792.59 478.38,-802.81 482.57,-793.08 475.59,-792.59"/>
</g>
<!-- node2&#45;&gt;node3 -->
<g id="edge7" class="edge">
<title>node2&#45;&gt;node3</title>
<path fill="none" stroke="red" d="M472.5,-729.81C472.5,-721.79 472.5,-712.05 472.5,-703.07"/>
<polygon fill="red" stroke="red" points="476,-703.03 472.5,-693.03 469,-703.03 476,-703.03"/>
</g>
<!-- node3&#45;&gt;node0 -->
<g id="edge5" class="edge">
<title>node3&#45;&gt;node0</title>
<path fill="none" stroke="green" stroke-width="2" d="M530.34,-693.1C547.94,-701.31 565.31,-713.16 575.5,-730 583.78,-743.69 583.78,-752.31 575.5,-766 567.06,-779.95 553.7,-790.47 539.36,-798.34"/>
<polygon fill="green" stroke="green" stroke-width="2" points="537.69,-795.27 530.34,-802.9 540.85,-801.51 537.69,-795.27"/>
</g>
<!-- node4 -->
<g id="node5" class="node">
<title>node4</title>
<polygon fill="lightgrey" stroke="black" points="586,-620 359,-620 359,-584 586,-584 586,-620"/>
<text text-anchor="middle" x="472.5" y="-598.3" font-family="Times,serif" font-size="14.00">#4 ExceptionGuard Order : 4</text>
</g>
<!-- node3&#45;&gt;node4 -->
<g id="edge9" class="edge">
<title>node3&#45;&gt;node4</title>
<path fill="none" stroke="red" d="M466.62,-656.81C465.78,-648.79 465.55,-639.05 465.92,-630.07"/>
<polygon fill="red" stroke="red" points="469.42,-630.25 466.64,-620.03 462.44,-629.75 469.42,-630.25"/>
</g>
<!-- node4&#45;&gt;node3 -->
<g id="edge8" class="edge">
<title>node4&#45;&gt;node3</title>
<path fill="none" stroke="green" stroke-width="2" d="M478.36,-620.03C479.21,-628.03 479.45,-637.77 479.09,-646.75"/>
<polygon fill="green" stroke="green" stroke-width="2" points="475.59,-646.59 478.38,-656.81 482.57,-647.08 475.59,-646.59"/>
</g>
<!-- node5 -->
<g id="node6" class="node">
<title>node5</title>
<polygon fill="lightgrey" stroke="black" points="604.5,-547 466.5,-547 466.5,-511 604.5,-511 604.5,-547"/>
<text text-anchor="middle" x="535.5" y="-525.3" font-family="Times,serif" font-size="14.00">#5 exit Order : 7</text>
</g>
<!-- node4&#45;&gt;node5 -->
<g id="edge11" class="edge">
<title>node4&#45;&gt;node5</title>
<path fill="none" stroke="red" d="M481.87,-583.81C488.77,-575 498.23,-564.13 507.35,-554.46"/>
<polygon fill="red" stroke="red" points="510.09,-556.65 514.53,-547.03 505.06,-551.79 510.09,-556.65"/>
</g>
<!-- node6 -->
<g id="node7" class="node">
<title>node6</title>
<polygon fill="lightgrey" stroke="black" points="448,-547 287,-547 287,-511 448,-511 448,-547"/>
<text text-anchor="middle" x="367.5" y="-525.3" font-family="Times,serif" font-size="14.00">#6 default Order : 5</text>
</g>
<!-- node4&#45;&gt;node6 -->
<g id="edge13" class="edge">
<title>node4&#45;&gt;node6</title>
<path fill="none" stroke="red" d="M441.49,-583.99C426.84,-574.75 409.58,-563.19 395.35,-553.14"/>
<polygon fill="red" stroke="red" points="397.11,-550.09 386.94,-547.11 393.03,-555.78 397.11,-550.09"/>
</g>
<!-- node5&#45;&gt;node4 -->
<g id="edge10" class="edge">
<title>node5&#45;&gt;node4</title>
<path fill="none" stroke="green" stroke-width="2" d="M526.25,-547.03C519.39,-555.81 509.94,-566.69 500.82,-576.37"/>
<polygon fill="green" stroke="green" stroke-width="2" points="498.06,-574.19 493.63,-583.81 503.09,-579.05 498.06,-574.19"/>
</g>
<!-- node10 -->
<g id="node11" class="node">
<title>node10</title>
<polygon fill="lightgrey" stroke="black" points="353,-255 0,-255 0,-219 353,-219 353,-255"/>
<text text-anchor="middle" x="176.5" y="-233.3" font-family="Times,serif" font-size="14.00">#10 Merge : EndOfGuardedBlock18 Order : 10</text>
</g>
<!-- node5&#45;&gt;node10 -->
<g id="edge26" class="edge">
<title>node5&#45;&gt;node10</title>
<path fill="none" stroke="red" d="M550.34,-510.9C560.63,-497.26 572.5,-477.15 572.5,-457 572.5,-457 572.5,-457 572.5,-309 572.5,-285.81 465.89,-267.57 363.31,-255.38"/>
<polygon fill="red" stroke="red" points="363.41,-251.87 353.07,-254.19 362.6,-258.83 363.41,-251.87"/>
</g>
<!-- node6&#45;&gt;node4 -->
<g id="edge12" class="edge">
<title>node6&#45;&gt;node4</title>
<path fill="none" stroke="green" stroke-width="2" d="M398.55,-547.03C413.15,-556.25 430.36,-567.77 444.56,-577.8"/>
<polygon fill="green" stroke="green" stroke-width="2" points="442.79,-580.84 452.96,-583.81 446.87,-575.14 442.79,-580.84"/>
</g>
<!-- node7 -->
<g id="node8" class="node">
<title>node7</title>
<polygon fill="lightgreen" stroke="black" points="475.27,-448.54 475.27,-463.46 412.14,-474 322.86,-474 259.73,-463.46 259.73,-448.54 322.86,-438 412.14,-438 475.27,-448.54"/>
<text text-anchor="middle" x="367.5" y="-452.3" font-family="Times,serif" font-size="14.00">#7 int 10 Order : 6</text>
</g>
<!-- node6&#45;&gt;node7 -->
<g id="edge15" class="edge">
<title>node6&#45;&gt;node7</title>
<path fill="none" stroke="black" stroke-dasharray="1,5" d="M361.62,-510.81C360.78,-502.79 360.55,-493.05 360.92,-484.07"/>
<polygon fill="black" stroke="black" points="364.42,-484.25 361.64,-474.03 357.44,-483.75 364.42,-484.25"/>
</g>
<!-- node6&#45;&gt;node8 -->
<g id="edge19" class="edge">
<title>node6&#45;&gt;node8</title>
<path fill="none" stroke="red" d="M436.98,-510.99C455.57,-502.93 473.53,-491.15 484.5,-474 493.12,-460.52 492.96,-451.58 484.5,-438 475.74,-423.94 462.14,-413.44 447.45,-405.64"/>
<polygon fill="red" stroke="red" points="448.72,-402.36 438.19,-401.11 445.64,-408.65 448.72,-402.36"/>
</g>
<!-- node7&#45;&gt;node6 -->
<g id="edge14" class="edge">
<title>node7&#45;&gt;node6</title>
<path fill="none" stroke="green" stroke-width="2" d="M373.36,-474.03C374.21,-482.03 374.45,-491.77 374.09,-500.75"/>
<polygon fill="green" stroke="green" stroke-width="2" points="370.59,-500.59 373.38,-510.81 377.57,-501.08 370.59,-500.59"/>
</g>
<!-- node7&#45;&gt;node8 -->
<g id="edge18" class="edge">
<title>node7&#45;&gt;node8</title>
<path fill="none" stroke="black" d="M369.19,-437.81C369.99,-429.79 370.95,-420.05 371.83,-411.07"/>
<polygon fill="black" stroke="black" points="375.32,-411.32 372.82,-401.03 368.36,-410.64 375.32,-411.32"/>
<text text-anchor="middle" x="379.45" y="-416.2" font-family="Times,serif" font-size="14.00">*1</text>
</g>
<!-- node8&#45;&gt;node0 -->
<g id="edge16" class="edge">
<title>node8&#45;&gt;node0</title>
<path fill="none" stroke="green" stroke-width="2" d="M543.48,-401.05C600.75,-411.65 650.5,-428.5 650.5,-455 650.5,-749 650.5,-749 650.5,-749 650.5,-769.64 607.1,-787.6 563.11,-800.29"/>
<polygon fill="green" stroke="green" stroke-width="2" points="562.13,-796.93 553.44,-802.99 564.01,-803.67 562.13,-796.93"/>
</g>
<!-- node8&#45;&gt;node9 -->
<g id="edge23" class="edge">
<title>node8&#45;&gt;node9</title>
<path fill="none" stroke="red" d="M327.07,-364.99C299.12,-354.97 263.54,-342.21 234,-331.62"/>
<polygon fill="red" stroke="red" points="234.82,-328.19 224.23,-328.11 232.46,-334.78 234.82,-328.19"/>
</g>
<!-- node13 -->
<g id="node14" class="node">
<title>node13</title>
<polygon fill="lightgrey" stroke="black" points="471,-36 292,-36 292,0 471,0 471,-36"/>
<text text-anchor="middle" x="381.5" y="-14.3" font-family="Times,serif" font-size="14.00">#13 Return Order : 13</text>
</g>
<!-- node8&#45;&gt;node13 -->
<g id="edge33" class="edge">
<title>node8&#45;&gt;node13</title>
<path fill="none" stroke="black" d="M377.15,-364.83C379.13,-350.48 381.5,-329.46 381.5,-311 381.5,-311 381.5,-311 381.5,-90 381.5,-75.65 381.5,-59.67 381.5,-46.51"/>
<polygon fill="black" stroke="black" points="385,-46.22 381.5,-36.22 378,-46.22 385,-46.22"/>
</g>
<!-- node9&#45;&gt;node0 -->
<g id="edge21" class="edge">
<title>node9&#45;&gt;node0</title>
<path fill="none" stroke="green" stroke-width="2" d="M101.67,-328.07C76.41,-338.61 54.5,-355.41 54.5,-382 54.5,-749 54.5,-749 54.5,-749 54.5,-781.71 256.03,-803.23 379.22,-813.32"/>
<polygon fill="green" stroke="green" stroke-width="2" points="379.17,-816.83 389.42,-814.15 379.73,-809.85 379.17,-816.83"/>
</g>
<!-- node9&#45;&gt;node10 -->
<g id="edge25" class="edge">
<title>node9&#45;&gt;node10</title>
<path fill="none" stroke="red" d="M176.5,-291.81C176.5,-283.79 176.5,-274.05 176.5,-265.07"/>
<polygon fill="red" stroke="red" points="180,-265.03 176.5,-255.03 173,-265.03 180,-265.03"/>
</g>
<!-- node10&#45;&gt;node0 -->
<g id="edge24" class="edge">
<title>node10&#45;&gt;node0</title>
<path fill="none" stroke="green" stroke-width="2" d="M60.22,-255.05C35.41,-265.51 16.5,-282.26 16.5,-309 16.5,-749 16.5,-749 16.5,-749 16.5,-785.36 245.77,-805.85 379.17,-814.7"/>
<polygon fill="green" stroke="green" stroke-width="2" points="379.19,-818.21 389.39,-815.37 379.64,-811.22 379.19,-818.21"/>
</g>
<!-- node11 -->
<g id="node12" class="node">
<title>node11</title>
<polygon fill="lightgrey" stroke="black" points="258,-182 95,-182 95,-146 258,-146 258,-182"/>
<text text-anchor="middle" x="176.5" y="-160.3" font-family="Times,serif" font-size="14.00">#11 Goto Order : 11</text>
</g>
<!-- node10&#45;&gt;node11 -->
<g id="edge28" class="edge">
<title>node10&#45;&gt;node11</title>
<path fill="none" stroke="red" d="M170.62,-218.81C169.78,-210.79 169.55,-201.05 169.92,-192.07"/>
<polygon fill="red" stroke="red" points="173.42,-192.25 170.64,-182.03 166.44,-191.75 173.42,-192.25"/>
</g>
<!-- node11&#45;&gt;node10 -->
<g id="edge27" class="edge">
<title>node11&#45;&gt;node10</title>
<path fill="none" stroke="green" stroke-width="2" d="M182.36,-182.03C183.21,-190.03 183.45,-199.77 183.09,-208.75"/>
<polygon fill="green" stroke="green" stroke-width="2" points="179.59,-208.59 182.38,-218.81 186.57,-209.08 179.59,-208.59"/>
</g>
<!-- node12 -->
<g id="node13" class="node">
<title>node12</title>
<polygon fill="lightgrey" stroke="black" points="279.5,-109 73.5,-109 73.5,-73 279.5,-73 279.5,-109"/>
<text text-anchor="middle" x="176.5" y="-87.3" font-family="Times,serif" font-size="14.00">#12 LabelNode Order : 12</text>
</g>
<!-- node11&#45;&gt;node12 -->
<g id="edge30" class="edge">
<title>node11&#45;&gt;node12</title>
<path fill="none" stroke="red" d="M170.62,-145.81C169.78,-137.79 169.55,-128.05 169.92,-119.07"/>
<polygon fill="red" stroke="red" points="173.42,-119.25 170.64,-109.03 166.44,-118.75 173.42,-119.25"/>
</g>
<!-- node12&#45;&gt;node11 -->
<g id="edge29" class="edge">
<title>node12&#45;&gt;node11</title>
<path fill="none" stroke="green" stroke-width="2" d="M182.36,-109.03C183.21,-117.03 183.45,-126.77 183.09,-135.75"/>
<polygon fill="green" stroke="green" stroke-width="2" points="179.59,-135.59 182.38,-145.81 186.57,-136.08 179.59,-135.59"/>
</g>
<!-- node12&#45;&gt;node13 -->
<g id="edge32" class="edge">
<title>node12&#45;&gt;node13</title>
<path fill="none" stroke="red" d="M225.6,-72.99C254.68,-62.92 291.7,-50.1 322.37,-39.48"/>
<polygon fill="red" stroke="red" points="323.78,-42.69 332.09,-36.11 321.49,-36.08 323.78,-42.69"/>
</g>
<!-- node13&#45;&gt;node0 -->
<g id="edge31" class="edge">
<title>node13&#45;&gt;node0</title>
<path fill="none" stroke="green" stroke-width="2" d="M471.12,-22.48C561.74,-28.52 688.5,-45 688.5,-90 688.5,-749 688.5,-749 688.5,-749 688.5,-763.94 672.55,-758.73 659.5,-766 643.69,-774.8 640.45,-778.68 623.5,-785 611.81,-789.36 588.79,-795.15 564.18,-800.76"/>
<polygon fill="green" stroke="green" stroke-width="2" points="563.3,-797.37 554.31,-802.98 564.84,-804.2 563.3,-797.37"/>
</g>
<!-- c0 -->
<!-- c1 -->
<!-- c0&#45;&gt;c1 -->
<g id="edge34" class="edge">
<title>c0&#45;&gt;c1</title>
<path fill="none" stroke="red" d="M1287.39,-821C1298.61,-821 1356.74,-821 1382.36,-821"/>
<polygon fill="red" stroke="red" points="1382.56,-824.5 1392.56,-821 1382.56,-817.5 1382.56,-824.5"/>
<text text-anchor="middle" x="1340" y="-827.8" font-family="Times,serif" font-size="14.00">Control flow</text>
</g>
<!-- c2 -->
<!-- c3 -->
<!-- c2&#45;&gt;c3 -->
<g id="edge35" class="edge">
<title>c2&#45;&gt;c3</title>
<path fill="none" stroke="red" stroke-dasharray="5,2" d="M1080.58,-821C1097.55,-821 1213.71,-821 1251.58,-821"/>
<polygon fill="red" stroke="red" points="1251.67,-824.5 1261.67,-821 1251.67,-817.5 1251.67,-824.5"/>
<text text-anchor="middle" x="1171" y="-827.8" font-family="Times,serif" font-size="14.00">Control flow back edge</text>
</g>
<!-- d0 -->
<!-- d1 -->
<!-- d0&#45;&gt;d1 -->
<g id="edge36" class="edge">
<title>d0&#45;&gt;d1</title>
<path fill="none" stroke="black" d="M969.36,-821C978.91,-821 1022.81,-821 1044.42,-821"/>
<polygon fill="black" stroke="black" points="1044.65,-824.5 1054.65,-821 1044.65,-817.5 1044.65,-824.5"/>
<text text-anchor="middle" x="1012" y="-827.8" font-family="Times,serif" font-size="14.00">Data flow</text>
</g>
<!-- d2 -->
<!-- d3 -->
<!-- d2&#45;&gt;d3 -->
<g id="edge37" class="edge">
<title>d2&#45;&gt;d3</title>
<path fill="none" stroke="black" stroke-dasharray="1,5" d="M843.31,-821C853.96,-821 908.96,-821 933.58,-821"/>
<polygon fill="black" stroke="black" points="933.65,-824.5 943.65,-821 933.65,-817.5 933.65,-824.5"/>
<text text-anchor="middle" x="893.5" y="-827.8" font-family="Times,serif" font-size="14.00">Declaration</text>
</g>
<!-- d4 -->
<!-- d5 -->
<!-- d4&#45;&gt;d5 -->
<g id="edge38" class="edge">
<title>d4&#45;&gt;d5</title>
<path fill="none" stroke="blue" d="M700.6,-821C713.22,-821 779.38,-821 807.18,-821"/>
<polygon fill="blue" stroke="blue" points="807.34,-824.5 817.34,-821 807.34,-817.5 807.34,-824.5"/>
<text text-anchor="middle" x="759" y="-827.8" font-family="Times,serif" font-size="14.00">PHI Data flow</text>
</g>
<!-- d6 -->
<!-- d7 -->
<!-- d6&#45;&gt;d7 -->
<g id="edge39" class="edge">
<title>d6&#45;&gt;d7</title>
<path fill="none" stroke="green" d="M577.61,-821C588.65,-821 640.17,-821 664.16,-821"/>
<polygon fill="green" stroke="green" points="664.4,-824.5 674.4,-821 664.4,-817.5 664.4,-824.5"/>
<text text-anchor="middle" x="626" y="-827.8" font-family="Times,serif" font-size="14.00">Dominance</text>
</g>
</g>
</svg>
