<?xml version="1.0" encoding="UTF-8" standalone="no"?>
<!DOCTYPE svg PUBLIC "-//W3C//DTD SVG 1.1//EN"
 "http://www.w3.org/Graphics/SVG/1.1/DTD/svg11.dtd">
<!-- Generated by graphviz version 2.43.0 (0)
 -->
<!-- Title: %3 Pages: 1 -->
<svg width="1120pt" height="359pt"
 viewBox="0.00 0.00 1120.00 358.80" xmlns="http://www.w3.org/2000/svg" xmlns:xlink="http://www.w3.org/1999/xlink">
<g id="graph0" class="graph" transform="scale(1 1) rotate(0) translate(4 354.8)">
<title>%3</title>
<polygon fill="white" stroke="transparent" points="-4,4 -4,-354.8 1116,-354.8 1116,4 -4,4"/>
<g id="clust1" class="cluster">
<title>cluster_000</title>
<polygon fill="none" stroke="black" points="768,-300.2 768,-342.8 1104,-342.8 1104,-300.2 768,-300.2"/>
<text text-anchor="middle" x="936" y="-327.6" font-family="Times,serif" font-size="14.00">Legend</text>
</g>
<!-- node0 -->
<g id="node1" class="node">
<title>node0</title>
<polygon fill="lightgrey" stroke="black" points="740,-328 0,-328 0,-292 740,-292 740,-328"/>
<text text-anchor="middle" x="370" y="-306.3" font-family="Times,serif" font-size="14.00">#0 LocalVariable[name=this, slot=0, type=Lde/mirkosertic/metair/ir/examples/ReturnTest;] Order: 0</text>
</g>
<!-- node0&#45;&gt;node0 -->
<g id="edge1" class="edge">
<title>node0&#45;&gt;node0</title>
<path fill="none" stroke="fuchsia" d="M740.11,-313.6C751.53,-312.62 758,-311.42 758,-310 758,-309.07 755.21,-308.23 750.07,-307.49"/>
<polygon fill="fuchsia" stroke="fuchsia" points="750.43,-304.01 740.11,-306.4 749.68,-310.97 750.43,-304.01"/>
</g>
<!-- node1 -->
<g id="node2" class="node">
<title>node1</title>
<polygon fill="lightgrey" stroke="black" points="609.5,-255 130.5,-255 130.5,-219 609.5,-219 609.5,-255"/>
<text text-anchor="middle" x="370" y="-233.3" font-family="Times,serif" font-size="14.00">#1 Label[context=CodeModel[id=2103763750], bci=0] Order: 1</text>
</g>
<!-- node0&#45;&gt;node1 -->
<g id="edge2" class="edge">
<title>node0&#45;&gt;node1</title>
<path fill="none" stroke="red" d="M364.12,-291.81C363.28,-283.79 363.05,-274.05 363.42,-265.07"/>
<polygon fill="red" stroke="red" points="366.92,-265.25 364.14,-255.03 359.94,-264.75 366.92,-265.25"/>
</g>
<!-- node1&#45;&gt;node0 -->
<g id="edge3" class="edge">
<title>node1&#45;&gt;node0</title>
<path fill="none" stroke="fuchsia" d="M375.86,-255.03C376.71,-263.03 376.95,-272.77 376.59,-281.75"/>
<polygon fill="fuchsia" stroke="fuchsia" points="373.09,-281.59 375.88,-291.81 380.07,-282.08 373.09,-281.59"/>
</g>
<!-- node2 -->
<g id="node3" class="node">
<title>node2</title>
<polygon fill="lightgrey" stroke="black" points="497,-182 243,-182 243,-146 497,-146 497,-182"/>
<text text-anchor="middle" x="370" y="-160.3" font-family="Times,serif" font-size="14.00">#2 LineNumber[line=9] Order: 2</text>
</g>
<!-- node1&#45;&gt;node2 -->
<g id="edge4" class="edge">
<title>node1&#45;&gt;node2</title>
<path fill="none" stroke="red" d="M364.12,-218.81C363.28,-210.79 363.05,-201.05 363.42,-192.07"/>
<polygon fill="red" stroke="red" points="366.92,-192.25 364.14,-182.03 359.94,-191.75 366.92,-192.25"/>
</g>
<!-- node2&#45;&gt;node1 -->
<g id="edge5" class="edge">
<title>node2&#45;&gt;node1</title>
<path fill="none" stroke="fuchsia" d="M375.86,-182.03C376.71,-190.03 376.95,-199.77 376.59,-208.75"/>
<polygon fill="fuchsia" stroke="fuchsia" points="373.09,-208.59 375.88,-218.81 380.07,-209.08 373.09,-208.59"/>
</g>
<!-- node3 -->
<g id="node4" class="node">
<title>node3</title>
<polygon fill="lightgrey" stroke="black" points="572,-109 168,-109 168,-73 572,-73 572,-109"/>
<text text-anchor="middle" x="370" y="-87.3" font-family="Times,serif" font-size="14.00">#3 ArgumentConstant[OP=BIPUSH, val=10] Order: 3</text>
</g>
<!-- node2&#45;&gt;node3 -->
<g id="edge6" class="edge">
<title>node2&#45;&gt;node3</title>
<path fill="none" stroke="red" d="M364.12,-145.81C363.28,-137.79 363.05,-128.05 363.42,-119.07"/>
<polygon fill="red" stroke="red" points="366.92,-119.25 364.14,-109.03 359.94,-118.75 366.92,-119.25"/>
</g>
<!-- node3&#45;&gt;node2 -->
<g id="edge7" class="edge">
<title>node3&#45;&gt;node2</title>
<path fill="none" stroke="fuchsia" d="M375.86,-109.03C376.71,-117.03 376.95,-126.77 376.59,-135.75"/>
<polygon fill="fuchsia" stroke="fuchsia" points="373.09,-135.59 375.88,-145.81 380.07,-136.08 373.09,-135.59"/>
</g>
<!-- node4 -->
<g id="node5" class="node">
<title>node4</title>
<polygon fill="lightgrey" stroke="black" points="504.5,-36 235.5,-36 235.5,0 504.5,0 504.5,-36"/>
<text text-anchor="middle" x="370" y="-14.3" font-family="Times,serif" font-size="14.00">#4 Return[OP=IRETURN] Order: 4</text>
</g>
<!-- node3&#45;&gt;node4 -->
<g id="edge8" class="edge">
<title>node3&#45;&gt;node4</title>
<path fill="none" stroke="red" d="M364.12,-72.81C363.28,-64.79 363.05,-55.05 363.42,-46.07"/>
<polygon fill="red" stroke="red" points="366.92,-46.25 364.14,-36.03 359.94,-45.75 366.92,-46.25"/>
</g>
<!-- node4&#45;&gt;node3 -->
<g id="edge9" class="edge">
<title>node4&#45;&gt;node3</title>
<path fill="none" stroke="fuchsia" d="M375.86,-36.03C376.71,-44.03 376.95,-53.77 376.59,-62.75"/>
<polygon fill="fuchsia" stroke="fuchsia" points="373.09,-62.59 375.88,-72.81 380.07,-63.08 373.09,-62.59"/>
</g>
<!-- c0 -->
<!-- c1 -->
<!-- c0&#45;&gt;c1 -->
<g id="edge10" class="edge">
<title>c0&#45;&gt;c1</title>
<path fill="none" stroke="red" d="M986.89,-310C998.11,-310 1056.24,-310 1081.86,-310"/>
<polygon fill="red" stroke="red" points="1082.06,-313.5 1092.06,-310 1082.06,-306.5 1082.06,-313.5"/>
<text text-anchor="middle" x="1039.5" y="-316.8" font-family="Times,serif" font-size="14.00">Control flow</text>
</g>
<!-- c2 -->
<!-- c3 -->
<!-- c2&#45;&gt;c3 -->
<g id="edge11" class="edge">
<title>c2&#45;&gt;c3</title>
<path fill="none" stroke="red" stroke-dasharray="5,2" d="M780.08,-310C797.05,-310 913.21,-310 951.08,-310"/>
<polygon fill="red" stroke="red" points="951.17,-313.5 961.17,-310 951.17,-306.5 951.17,-313.5"/>
<text text-anchor="middle" x="870.5" y="-316.8" font-family="Times,serif" font-size="14.00">Control flow back edge</text>
</g>
</g>
</svg>
