<?xml version="1.0" encoding="UTF-8" standalone="no"?>
<!DOCTYPE svg PUBLIC "-//W3C//DTD SVG 1.1//EN"
 "http://www.w3.org/Graphics/SVG/1.1/DTD/svg11.dtd">
<!-- Generated by graphviz version 2.43.0 (0)
 -->
<!-- Title: %3 Pages: 1 -->
<svg width="1217pt" height="359pt"
 viewBox="0.00 0.00 1217.00 358.80" xmlns="http://www.w3.org/2000/svg" xmlns:xlink="http://www.w3.org/1999/xlink">
<g id="graph0" class="graph" transform="scale(1 1) rotate(0) translate(4 354.8)">
<title>%3</title>
<polygon fill="white" stroke="transparent" points="-4,4 -4,-354.8 1213,-354.8 1213,4 -4,4"/>
<g id="clust1" class="cluster">
<title>cluster_000</title>
<polygon fill="none" stroke="black" points="865,-300.2 865,-342.8 1201,-342.8 1201,-300.2 865,-300.2"/>
<text text-anchor="middle" x="1033" y="-327.6" font-family="Times,serif" font-size="14.00">Legend</text>
</g>
<!-- node0 -->
<g id="node1" class="node">
<title>node0</title>
<polygon fill="lightgrey" stroke="black" points="855.5,-328 38.5,-328 38.5,-292 855.5,-292 855.5,-328"/>
<text text-anchor="middle" x="447" y="-306.3" font-family="Times,serif" font-size="14.00">#0 LocalVariable[name=this, slot=0, type=Lde/mirkosertic/metair/ir/examples/StaticFieldAccessTest;] Order: 0</text>
</g>
<!-- node1 -->
<g id="node2" class="node">
<title>node1</title>
<polygon fill="lightgrey" stroke="black" points="686.5,-255 207.5,-255 207.5,-219 686.5,-219 686.5,-255"/>
<text text-anchor="middle" x="447" y="-233.3" font-family="Times,serif" font-size="14.00">#1 Label[context=CodeModel[id=1193841543], bci=0] Order: 1</text>
</g>
<!-- node0&#45;&gt;node1 -->
<g id="edge1" class="edge">
<title>node0&#45;&gt;node1</title>
<path fill="none" stroke="red" d="M447,-291.81C447,-283.79 447,-274.05 447,-265.07"/>
<polygon fill="red" stroke="red" points="450.5,-265.03 447,-255.03 443.5,-265.03 450.5,-265.03"/>
</g>
<!-- node2 -->
<g id="node3" class="node">
<title>node2</title>
<polygon fill="lightgrey" stroke="black" points="578.5,-182 315.5,-182 315.5,-146 578.5,-146 578.5,-182"/>
<text text-anchor="middle" x="447" y="-160.3" font-family="Times,serif" font-size="14.00">#2 LineNumber[line=75] Order: 2</text>
</g>
<!-- node1&#45;&gt;node2 -->
<g id="edge2" class="edge">
<title>node1&#45;&gt;node2</title>
<path fill="none" stroke="red" d="M447,-218.81C447,-210.79 447,-201.05 447,-192.07"/>
<polygon fill="red" stroke="red" points="450.5,-192.03 447,-182.03 443.5,-192.03 450.5,-192.03"/>
</g>
<!-- node3 -->
<g id="node4" class="node">
<title>node3</title>
<polygon fill="lightgrey" stroke="black" points="894,-109 0,-109 0,-73 894,-73 894,-109"/>
<text text-anchor="middle" x="447" y="-87.3" font-family="Times,serif" font-size="14.00">#3 Field[OP=GETSTATIC, field=de/mirkosertic/metair/ir/examples/StaticFieldAccessTest$Source.boolean_field:Z] Order: 3</text>
</g>
<!-- node2&#45;&gt;node3 -->
<g id="edge3" class="edge">
<title>node2&#45;&gt;node3</title>
<path fill="none" stroke="red" d="M447,-145.81C447,-137.79 447,-128.05 447,-119.07"/>
<polygon fill="red" stroke="red" points="450.5,-119.03 447,-109.03 443.5,-119.03 450.5,-119.03"/>
</g>
<!-- node4 -->
<g id="node5" class="node">
<title>node4</title>
<polygon fill="lightgrey" stroke="black" points="581.5,-36 312.5,-36 312.5,0 581.5,0 581.5,-36"/>
<text text-anchor="middle" x="447" y="-14.3" font-family="Times,serif" font-size="14.00">#4 Return[OP=IRETURN] Order: 4</text>
</g>
<!-- node3&#45;&gt;node4 -->
<g id="edge4" class="edge">
<title>node3&#45;&gt;node4</title>
<path fill="none" stroke="red" d="M447,-72.81C447,-64.79 447,-55.05 447,-46.07"/>
<polygon fill="red" stroke="red" points="450.5,-46.03 447,-36.03 443.5,-46.03 450.5,-46.03"/>
</g>
<!-- c0 -->
<!-- c1 -->
<!-- c0&#45;&gt;c1 -->
<g id="edge5" class="edge">
<title>c0&#45;&gt;c1</title>
<path fill="none" stroke="red" d="M1083.89,-310C1095.11,-310 1153.24,-310 1178.86,-310"/>
<polygon fill="red" stroke="red" points="1179.06,-313.5 1189.06,-310 1179.06,-306.5 1179.06,-313.5"/>
<text text-anchor="middle" x="1136.5" y="-316.8" font-family="Times,serif" font-size="14.00">Control flow</text>
</g>
<!-- c2 -->
<!-- c3 -->
<!-- c2&#45;&gt;c3 -->
<g id="edge6" class="edge">
<title>c2&#45;&gt;c3</title>
<path fill="none" stroke="red" stroke-dasharray="5,2" d="M877.08,-310C894.05,-310 1010.21,-310 1048.08,-310"/>
<polygon fill="red" stroke="red" points="1048.17,-313.5 1058.17,-310 1048.17,-306.5 1048.17,-313.5"/>
<text text-anchor="middle" x="967.5" y="-316.8" font-family="Times,serif" font-size="14.00">Control flow back edge</text>
</g>
</g>
</svg>
