<?xml version="1.0" encoding="UTF-8" standalone="no"?>
<!DOCTYPE svg PUBLIC "-//W3C//DTD SVG 1.1//EN"
 "http://www.w3.org/Graphics/SVG/1.1/DTD/svg11.dtd">
<!-- Generated by graphviz version 2.43.0 (0)
 -->
<!-- Title: %3 Pages: 1 -->
<svg width="1481pt" height="297pt"
 viewBox="0.00 0.00 1480.50 297.00" xmlns="http://www.w3.org/2000/svg" xmlns:xlink="http://www.w3.org/1999/xlink">
<g id="graph0" class="graph" transform="scale(1 1) rotate(0) translate(4 293)">
<title>%3</title>
<polygon fill="white" stroke="transparent" points="-4,4 -4,-293 1476.5,-293 1476.5,4 -4,4"/>
<g id="clust1" class="cluster">
<title>cluster_0</title>
<polygon fill="none" stroke="lightgray" points="167.5,-138 167.5,-281 603.5,-281 603.5,-138 167.5,-138"/>
</g>
<g id="clust2" class="cluster">
<title>cluster_000</title>
<polygon fill="none" stroke="black" points="611.5,-236.2 611.5,-278.8 1464.5,-278.8 1464.5,-236.2 611.5,-236.2"/>
<text text-anchor="middle" x="1038" y="-263.6" font-family="Times,serif" font-size="14.00">Legend</text>
</g>
<!-- node0 -->
<g id="node1" class="node">
<title>node0</title>
<polygon fill="lightgrey" stroke="transparent" points="437,-273 228,-273 228,-219 437,-219 437,-273"/>
<polygon fill="none" stroke="black" points="228.5,-246 228.5,-273 437.5,-273 437.5,-246 228.5,-246"/>
<text text-anchor="start" x="292.5" y="-255.8" font-family="Times,serif" font-size="14.00">#0 Method</text>
<polygon fill="yellow" stroke="transparent" points="228.5,-219 228.5,-246 437.5,-246 437.5,-219 228.5,-219"/>
<polygon fill="none" stroke="black" points="228.5,-219 228.5,-246 437.5,-246 437.5,-219 228.5,-219"/>
<text text-anchor="start" x="234.5" y="-228.8" font-family="Times,serif" font-size="14.00">this : StaticFieldAccessTest</text>
</g>
<!-- node3 -->
<g id="node2" class="node">
<title>node3</title>
<polygon fill="lightgreen" stroke="black" points="595.69,-156.54 595.69,-171.46 472.56,-182 298.44,-182 175.31,-171.46 175.31,-156.54 298.44,-146 472.56,-146 595.69,-156.54"/>
<text text-anchor="middle" x="385.5" y="-160.3" font-family="Times,serif" font-size="14.00">#3 Class StaticFieldAccessTest$Source</text>
</g>
<!-- node0&#45;&gt;node3 -->
<g id="edge1" class="edge">
<title>node0&#45;&gt;node3</title>
<path fill="none" stroke="black" stroke-dasharray="1,5" d="M349.85,-218.81C355.83,-209.78 362.52,-199.69 368.47,-190.71"/>
<polygon fill="black" stroke="black" points="371.52,-192.44 374.12,-182.17 365.68,-188.58 371.52,-192.44"/>
</g>
<!-- node4 -->
<g id="node3" class="node">
<title>node4</title>
<polygon fill="lightgrey" stroke="black" points="124,-109 19,-109 19,-73 124,-73 124,-109"/>
<text text-anchor="middle" x="71.5" y="-87.3" font-family="Times,serif" font-size="14.00">#4 ClassInit</text>
</g>
<!-- node0&#45;&gt;node4 -->
<g id="edge3" class="edge">
<title>node0&#45;&gt;node4</title>
<path fill="none" stroke="green" d="M239.71,-218.99C214.68,-209.58 188.47,-197.38 166.5,-182 145.33,-167.19 147.07,-155.96 128.5,-138 120.46,-130.23 111.23,-122.37 102.56,-115.4"/>
<polygon fill="green" stroke="green" points="104.5,-112.47 94.48,-109.02 100.16,-117.97 104.5,-112.47"/>
</g>
<!-- node2 -->
<g id="node4" class="node">
<title>node2</title>
<polygon fill="lightgrey" stroke="black" points="119,-182 0,-182 0,-146 119,-146 119,-182"/>
<text text-anchor="middle" x="59.5" y="-160.3" font-family="Times,serif" font-size="14.00">#2 LabelNode</text>
</g>
<!-- node0&#45;&gt;node2 -->
<g id="edge5" class="edge">
<title>node0&#45;&gt;node2</title>
<path fill="none" stroke="red" d="M227.82,-231.23C192.03,-224.54 152.28,-214.84 117.5,-201 108.6,-197.46 99.55,-192.57 91.32,-187.53"/>
<polygon fill="red" stroke="red" points="93.07,-184.5 82.76,-182.07 89.3,-190.4 93.07,-184.5"/>
</g>
<!-- node3&#45;&gt;node4 -->
<g id="edge2" class="edge">
<title>node3&#45;&gt;node4</title>
<path fill="none" stroke="black" d="M310.29,-145.99C256.54,-133.84 185.05,-117.67 134.34,-106.21"/>
<polygon fill="black" stroke="black" points="135.01,-102.77 124.48,-103.98 133.46,-109.6 135.01,-102.77"/>
<text text-anchor="middle" x="144.03" y="-96.03" font-family="Times,serif" font-size="14.00">*0</text>
</g>
<!-- node5 -->
<g id="node6" class="node">
<title>node5</title>
<polygon fill="orange" stroke="black" points="611.14,-83.54 611.14,-98.46 478.96,-109 292.04,-109 159.86,-98.46 159.86,-83.54 292.04,-73 478.96,-73 611.14,-83.54"/>
<text text-anchor="middle" x="385.5" y="-87.3" font-family="Times,serif" font-size="14.00">#5 GetStaticField : boolean_field : boolean</text>
</g>
<!-- node3&#45;&gt;node5 -->
<g id="edge9" class="edge">
<title>node3&#45;&gt;node5</title>
<path fill="none" stroke="black" d="M385.5,-145.81C385.5,-137.79 385.5,-128.05 385.5,-119.07"/>
<polygon fill="black" stroke="black" points="389,-119.03 385.5,-109.03 382,-119.03 389,-119.03"/>
<text text-anchor="middle" x="393.95" y="-123.45" font-family="Times,serif" font-size="14.00">*0</text>
</g>
<!-- node6 -->
<g id="node5" class="node">
<title>node6</title>
<polygon fill="lightgrey" stroke="black" points="328.5,-36 128.5,-36 128.5,0 328.5,0 328.5,-36"/>
<text text-anchor="middle" x="228.5" y="-14.3" font-family="Times,serif" font-size="14.00">#6 ReturnValue : boolean</text>
</g>
<!-- node4&#45;&gt;node6 -->
<g id="edge7" class="edge">
<title>node4&#45;&gt;node6</title>
<path fill="none" stroke="red" d="M109.11,-72.99C130.79,-63.19 158.26,-50.77 181.38,-40.31"/>
<polygon fill="red" stroke="red" points="182.99,-43.42 190.66,-36.11 180.1,-37.05 182.99,-43.42"/>
</g>
<!-- node4&#45;&gt;node5 -->
<g id="edge10" class="edge">
<title>node4&#45;&gt;node5</title>
<path fill="none" stroke="green" d="M124.24,-91C132.65,-91 141.05,-91 149.45,-91"/>
<polygon fill="green" stroke="green" points="149.71,-94.5 159.71,-91 149.71,-87.5 149.71,-94.5"/>
</g>
<!-- node2&#45;&gt;node4 -->
<g id="edge4" class="edge">
<title>node2&#45;&gt;node4</title>
<path fill="none" stroke="red" d="M62.4,-145.81C63.76,-137.79 65.41,-128.05 66.92,-119.07"/>
<polygon fill="red" stroke="red" points="70.41,-119.47 68.62,-109.03 63.5,-118.31 70.41,-119.47"/>
</g>
<!-- node5&#45;&gt;node6 -->
<g id="edge6" class="edge">
<title>node5&#45;&gt;node6</title>
<path fill="none" stroke="black" d="M342.04,-72.99C319.41,-63.23 291.96,-50.88 269.68,-40.45"/>
<polygon fill="black" stroke="black" points="271.01,-37.21 260.47,-36.11 268.03,-43.54 271.01,-37.21"/>
<text text-anchor="middle" x="280.47" y="-32.49" font-family="Times,serif" font-size="14.00">*0</text>
</g>
<!-- node5&#45;&gt;node6 -->
<g id="edge8" class="edge">
<title>node5&#45;&gt;node6</title>
<path fill="none" stroke="green" d="M353.75,-72.99C333.02,-63.14 305.53,-50.66 281.55,-40.17"/>
<polygon fill="green" stroke="green" points="282.78,-36.89 272.21,-36.11 279.99,-43.31 282.78,-36.89"/>
</g>
<!-- c0 -->
<!-- c1 -->
<!-- c0&#45;&gt;c1 -->
<g id="edge11" class="edge">
<title>c0&#45;&gt;c1</title>
<path fill="none" stroke="red" d="M1347.39,-246C1358.61,-246 1416.74,-246 1442.36,-246"/>
<polygon fill="red" stroke="red" points="1442.56,-249.5 1452.56,-246 1442.56,-242.5 1442.56,-249.5"/>
<text text-anchor="middle" x="1400" y="-252.8" font-family="Times,serif" font-size="14.00">Control flow</text>
</g>
<!-- c2 -->
<!-- c3 -->
<!-- c2&#45;&gt;c3 -->
<g id="edge12" class="edge">
<title>c2&#45;&gt;c3</title>
<path fill="none" stroke="red" stroke-dasharray="5,2" d="M1140.58,-246C1157.55,-246 1273.71,-246 1311.58,-246"/>
<polygon fill="red" stroke="red" points="1311.67,-249.5 1321.67,-246 1311.67,-242.5 1311.67,-249.5"/>
<text text-anchor="middle" x="1231" y="-252.8" font-family="Times,serif" font-size="14.00">Control flow back edge</text>
</g>
<!-- d0 -->
<!-- d1 -->
<!-- d0&#45;&gt;d1 -->
<g id="edge13" class="edge">
<title>d0&#45;&gt;d1</title>
<path fill="none" stroke="black" d="M1029.36,-246C1038.91,-246 1082.81,-246 1104.42,-246"/>
<polygon fill="black" stroke="black" points="1104.65,-249.5 1114.65,-246 1104.65,-242.5 1104.65,-249.5"/>
<text text-anchor="middle" x="1072" y="-252.8" font-family="Times,serif" font-size="14.00">Data flow</text>
</g>
<!-- d2 -->
<!-- d3 -->
<!-- d2&#45;&gt;d3 -->
<g id="edge14" class="edge">
<title>d2&#45;&gt;d3</title>
<path fill="none" stroke="black" stroke-dasharray="1,5" d="M903.31,-246C913.96,-246 968.96,-246 993.58,-246"/>
<polygon fill="black" stroke="black" points="993.65,-249.5 1003.65,-246 993.65,-242.5 993.65,-249.5"/>
<text text-anchor="middle" x="953.5" y="-252.8" font-family="Times,serif" font-size="14.00">Declaration</text>
</g>
<!-- d4 -->
<!-- d5 -->
<!-- d4&#45;&gt;d5 -->
<g id="edge15" class="edge">
<title>d4&#45;&gt;d5</title>
<path fill="none" stroke="blue" d="M760.6,-246C773.22,-246 839.38,-246 867.18,-246"/>
<polygon fill="blue" stroke="blue" points="867.34,-249.5 877.34,-246 867.34,-242.5 867.34,-249.5"/>
<text text-anchor="middle" x="819" y="-252.8" font-family="Times,serif" font-size="14.00">PHI Data flow</text>
</g>
<!-- d6 -->
<!-- d7 -->
<!-- d6&#45;&gt;d7 -->
<g id="edge16" class="edge">
<title>d6&#45;&gt;d7</title>
<path fill="none" stroke="green" d="M623.5,-246C635.44,-246 697.8,-246 724.43,-246"/>
<polygon fill="green" stroke="green" points="724.45,-249.5 734.45,-246 724.45,-242.5 724.45,-249.5"/>
<text text-anchor="middle" x="679" y="-252.8" font-family="Times,serif" font-size="14.00">Memory flow</text>
</g>
</g>
</svg>
