<?xml version="1.0" encoding="UTF-8" standalone="no"?>
<!DOCTYPE svg PUBLIC "-//W3C//DTD SVG 1.1//EN"
 "http://www.w3.org/Graphics/SVG/1.1/DTD/svg11.dtd">
<!-- Generated by graphviz version 2.43.0 (0)
 -->
<!-- Title: %3 Pages: 1 -->
<svg width="1967pt" height="443pt"
 viewBox="0.00 0.00 1966.50 443.00" xmlns="http://www.w3.org/2000/svg" xmlns:xlink="http://www.w3.org/1999/xlink">
<g id="graph0" class="graph" transform="scale(1 1) rotate(0) translate(4 439)">
<title>%3</title>
<polygon fill="white" stroke="transparent" points="-4,4 -4,-439 1962.5,-439 1962.5,4 -4,4"/>
<g id="clust1" class="cluster">
<title>cluster_0</title>
<polygon fill="none" stroke="lightgray" points="167.5,-284 167.5,-427 1089.5,-427 1089.5,-284 167.5,-284"/>
</g>
<g id="clust2" class="cluster">
<title>cluster_000</title>
<polygon fill="none" stroke="black" points="1097.5,-382.2 1097.5,-424.8 1950.5,-424.8 1950.5,-382.2 1097.5,-382.2"/>
<text text-anchor="middle" x="1524" y="-409.6" font-family="Times,serif" font-size="14.00">Legend</text>
</g>
<!-- node0 -->
<g id="node1" class="node">
<title>node0</title>
<polygon fill="lightgrey" stroke="transparent" points="490,-419 281,-419 281,-365 490,-365 490,-419"/>
<polygon fill="none" stroke="black" points="281.5,-392 281.5,-419 490.5,-419 490.5,-392 281.5,-392"/>
<text text-anchor="start" x="345.5" y="-401.8" font-family="Times,serif" font-size="14.00">#0 Method</text>
<polygon fill="yellow" stroke="transparent" points="281.5,-365 281.5,-392 490.5,-392 490.5,-365 281.5,-365"/>
<polygon fill="none" stroke="black" points="281.5,-365 281.5,-392 490.5,-392 490.5,-365 281.5,-365"/>
<text text-anchor="start" x="287.5" y="-374.8" font-family="Times,serif" font-size="14.00">this : StaticFieldAccessTest</text>
</g>
<!-- node1 -->
<g id="node2" class="node">
<title>node1</title>
<polygon fill="lightgrey" stroke="black" points="333,-255 228,-255 228,-219 333,-219 333,-255"/>
<text text-anchor="middle" x="280.5" y="-233.3" font-family="Times,serif" font-size="14.00">#1 ClassInit</text>
</g>
<!-- node0&#45;&gt;node1 -->
<g id="edge2" class="edge">
<title>node0&#45;&gt;node1</title>
<path fill="none" stroke="green" d="M280.84,-373.26C231.85,-362.62 181.08,-347.36 166.5,-328 154.74,-312.38 155.56,-300.21 166.5,-284 170.09,-278.68 195.45,-268.21 221.35,-258.6"/>
<polygon fill="green" stroke="green" points="222.69,-261.84 230.87,-255.11 220.28,-255.27 222.69,-261.84"/>
</g>
<!-- node4 -->
<g id="node3" class="node">
<title>node4</title>
<polygon fill="lightgreen" stroke="black" points="595.69,-302.54 595.69,-317.46 472.56,-328 298.44,-328 175.31,-317.46 175.31,-302.54 298.44,-292 472.56,-292 595.69,-302.54"/>
<text text-anchor="middle" x="385.5" y="-306.3" font-family="Times,serif" font-size="14.00">#4 Class StaticFieldAccessTest$Source</text>
</g>
<!-- node0&#45;&gt;node4 -->
<g id="edge5" class="edge">
<title>node0&#45;&gt;node4</title>
<path fill="none" stroke="black" stroke-dasharray="1,5" d="M385.5,-364.81C385.5,-356.35 385.5,-346.95 385.5,-338.4"/>
<polygon fill="black" stroke="black" points="389,-338.17 385.5,-328.17 382,-338.17 389,-338.17"/>
</g>
<!-- node3 -->
<g id="node4" class="node">
<title>node3</title>
<polygon fill="lightgrey" stroke="black" points="119,-328 0,-328 0,-292 119,-292 119,-328"/>
<text text-anchor="middle" x="59.5" y="-306.3" font-family="Times,serif" font-size="14.00">#3 LabelNode</text>
</g>
<!-- node0&#45;&gt;node3 -->
<g id="edge4" class="edge">
<title>node0&#45;&gt;node3</title>
<path fill="none" stroke="red" d="M280.92,-383.43C230.34,-377.38 169.48,-366.51 117.5,-347 108.46,-343.6 99.29,-338.72 91,-333.64"/>
<polygon fill="red" stroke="red" points="92.7,-330.57 82.39,-328.12 88.91,-336.46 92.7,-330.57"/>
</g>
<!-- node6 -->
<g id="node7" class="node">
<title>node6</title>
<polygon fill="lightgreen" stroke="black" points="1081.12,-302.54 1081.12,-317.46 944.27,-328 750.73,-328 613.88,-317.46 613.88,-302.54 750.73,-292 944.27,-292 1081.12,-302.54"/>
<text text-anchor="middle" x="847.5" y="-306.3" font-family="Times,serif" font-size="14.00">#6 Class StaticFieldAccessTest$Destination</text>
</g>
<!-- node0&#45;&gt;node6 -->
<g id="edge15" class="edge">
<title>node0&#45;&gt;node6</title>
<path fill="none" stroke="black" stroke-dasharray="1,5" d="M490.05,-372.9C564.56,-359.99 664.45,-342.7 739.69,-329.67"/>
<polygon fill="black" stroke="black" points="740.41,-333.1 749.67,-327.94 739.22,-326.2 740.41,-333.1"/>
</g>
<!-- node5 -->
<g id="node5" class="node">
<title>node5</title>
<polygon fill="orange" stroke="black" points="819.54,-229.54 819.54,-244.46 693.57,-255 515.43,-255 389.46,-244.46 389.46,-229.54 515.43,-219 693.57,-219 819.54,-229.54"/>
<text text-anchor="middle" x="604.5" y="-233.3" font-family="Times,serif" font-size="14.00">#5 GetStaticField : double_field : double</text>
</g>
<!-- node1&#45;&gt;node5 -->
<g id="edge7" class="edge">
<title>node1&#45;&gt;node5</title>
<path fill="none" stroke="green" d="M333.02,-237C348.39,-237 363.76,-237 379.13,-237"/>
<polygon fill="green" stroke="green" points="379.23,-240.5 389.23,-237 379.23,-233.5 379.23,-240.5"/>
</g>
<!-- node7 -->
<g id="node8" class="node">
<title>node7</title>
<polygon fill="lightgrey" stroke="black" points="414,-182 309,-182 309,-146 414,-146 414,-182"/>
<text text-anchor="middle" x="361.5" y="-160.3" font-family="Times,serif" font-size="14.00">#7 ClassInit</text>
</g>
<!-- node1&#45;&gt;node7 -->
<g id="edge14" class="edge">
<title>node1&#45;&gt;node7</title>
<path fill="none" stroke="red" d="M300.11,-218.81C310.36,-209.83 323.06,-198.69 334.25,-188.89"/>
<polygon fill="red" stroke="red" points="336.86,-191.25 342.07,-182.03 332.25,-185.99 336.86,-191.25"/>
</g>
<!-- node4&#45;&gt;node1 -->
<g id="edge1" class="edge">
<title>node4&#45;&gt;node1</title>
<path fill="none" stroke="black" d="M360.35,-291.99C346.55,-282.67 329.26,-270.97 314.3,-260.86"/>
<polygon fill="black" stroke="black" points="316.05,-257.82 305.81,-255.11 312.13,-263.61 316.05,-257.82"/>
<text text-anchor="middle" x="325.56" y="-254.57" font-family="Times,serif" font-size="14.00">*0</text>
</g>
<!-- node4&#45;&gt;node5 -->
<g id="edge6" class="edge">
<title>node4&#45;&gt;node5</title>
<path fill="none" stroke="black" d="M437.96,-291.99C469.28,-281.84 509.25,-268.88 542.18,-258.2"/>
<polygon fill="black" stroke="black" points="543.28,-261.53 551.71,-255.11 541.12,-254.87 543.28,-261.53"/>
<text text-anchor="middle" x="537.08" y="-265.04" font-family="Times,serif" font-size="14.00">*0</text>
</g>
<!-- node3&#45;&gt;node1 -->
<g id="edge3" class="edge">
<title>node3&#45;&gt;node1</title>
<path fill="none" stroke="red" d="M109.6,-291.9C117.59,-289.23 125.76,-286.52 133.5,-284 161.12,-275.01 191.77,-265.37 217.9,-257.25"/>
<polygon fill="red" stroke="red" points="219.17,-260.52 227.68,-254.21 217.09,-253.83 219.17,-260.52"/>
</g>
<!-- node8 -->
<g id="node6" class="node">
<title>node8</title>
<polygon fill="lightgrey" stroke="black" points="757,-109 452,-109 452,-73 757,-73 757,-109"/>
<text text-anchor="middle" x="604.5" y="-87.3" font-family="Times,serif" font-size="14.00">#8 PutStaticField : double_field : double</text>
</g>
<!-- node5&#45;&gt;node8 -->
<g id="edge9" class="edge">
<title>node5&#45;&gt;node8</title>
<path fill="none" stroke="black" d="M604.5,-218.92C604.5,-194.34 604.5,-148.75 604.5,-119.43"/>
<polygon fill="black" stroke="black" points="608,-119.06 604.5,-109.06 601,-119.06 608,-119.06"/>
<text text-anchor="middle" x="612.95" y="-123.49" font-family="Times,serif" font-size="14.00">*1</text>
</g>
<!-- node5&#45;&gt;node7 -->
<g id="edge13" class="edge">
<title>node5&#45;&gt;node7</title>
<path fill="none" stroke="green" d="M546.3,-218.99C509.43,-208.22 461.79,-194.3 424.11,-183.29"/>
<polygon fill="green" stroke="green" points="424.84,-179.86 414.26,-180.41 422.87,-186.58 424.84,-179.86"/>
</g>
<!-- node9 -->
<g id="node9" class="node">
<title>node9</title>
<polygon fill="lightgrey" stroke="black" points="650.5,-36 558.5,-36 558.5,0 650.5,0 650.5,-36"/>
<text text-anchor="middle" x="604.5" y="-14.3" font-family="Times,serif" font-size="14.00">#9 Return</text>
</g>
<!-- node8&#45;&gt;node9 -->
<g id="edge16" class="edge">
<title>node8&#45;&gt;node9</title>
<path fill="none" stroke="red" d="M598.62,-72.81C597.78,-64.79 597.55,-55.05 597.92,-46.07"/>
<polygon fill="red" stroke="red" points="601.42,-46.25 598.64,-36.03 594.44,-45.75 601.42,-46.25"/>
</g>
<!-- node8&#45;&gt;node9 -->
<g id="edge17" class="edge">
<title>node8&#45;&gt;node9</title>
<path fill="none" stroke="green" d="M610.38,-72.81C611.22,-64.79 611.45,-55.05 611.08,-46.07"/>
<polygon fill="green" stroke="green" points="614.56,-45.75 610.36,-36.03 607.58,-46.25 614.56,-45.75"/>
</g>
<!-- node6&#45;&gt;node8 -->
<g id="edge8" class="edge">
<title>node6&#45;&gt;node8</title>
<path fill="none" stroke="black" d="M847.92,-291.73C847.53,-272.27 844.24,-240.52 828.5,-219 789.7,-165.95 721.58,-131.95 670.62,-112.61"/>
<polygon fill="black" stroke="black" points="671.59,-109.23 660.99,-109.05 669.16,-115.8 671.59,-109.23"/>
<text text-anchor="middle" x="680.92" y="-103.71" font-family="Times,serif" font-size="14.00">*0</text>
</g>
<!-- node6&#45;&gt;node7 -->
<g id="edge12" class="edge">
<title>node6&#45;&gt;node7</title>
<path fill="none" stroke="black" d="M710.44,-295.08C574.87,-281.02 386.66,-260.61 380.5,-255 363.39,-239.41 359.56,-212.62 359.46,-192.31"/>
<polygon fill="black" stroke="black" points="362.97,-192.18 359.72,-182.09 355.97,-192.01 362.97,-192.18"/>
<text text-anchor="middle" x="367.72" y="-196.72" font-family="Times,serif" font-size="14.00">*0</text>
</g>
<!-- node7&#45;&gt;node8 -->
<g id="edge10" class="edge">
<title>node7&#45;&gt;node8</title>
<path fill="none" stroke="green" d="M413.85,-145.99C447.82,-135.75 492.54,-122.66 530.16,-111.93"/>
<polygon fill="green" stroke="green" points="531.4,-115.22 540.06,-109.11 529.48,-108.48 531.4,-115.22"/>
</g>
<!-- node7&#45;&gt;node8 -->
<g id="edge11" class="edge">
<title>node7&#45;&gt;node8</title>
<path fill="none" stroke="red" d="M414.11,-149.23C451.68,-138.67 502.3,-123.94 541.94,-112.08"/>
<polygon fill="red" stroke="red" points="543.19,-115.35 551.76,-109.12 541.18,-108.65 543.19,-115.35"/>
</g>
<!-- c0 -->
<!-- c1 -->
<!-- c0&#45;&gt;c1 -->
<g id="edge18" class="edge">
<title>c0&#45;&gt;c1</title>
<path fill="none" stroke="red" d="M1833.39,-392C1844.61,-392 1902.74,-392 1928.36,-392"/>
<polygon fill="red" stroke="red" points="1928.56,-395.5 1938.56,-392 1928.56,-388.5 1928.56,-395.5"/>
<text text-anchor="middle" x="1886" y="-398.8" font-family="Times,serif" font-size="14.00">Control flow</text>
</g>
<!-- c2 -->
<!-- c3 -->
<!-- c2&#45;&gt;c3 -->
<g id="edge19" class="edge">
<title>c2&#45;&gt;c3</title>
<path fill="none" stroke="red" stroke-dasharray="5,2" d="M1626.58,-392C1643.55,-392 1759.71,-392 1797.58,-392"/>
<polygon fill="red" stroke="red" points="1797.67,-395.5 1807.67,-392 1797.67,-388.5 1797.67,-395.5"/>
<text text-anchor="middle" x="1717" y="-398.8" font-family="Times,serif" font-size="14.00">Control flow back edge</text>
</g>
<!-- d0 -->
<!-- d1 -->
<!-- d0&#45;&gt;d1 -->
<g id="edge20" class="edge">
<title>d0&#45;&gt;d1</title>
<path fill="none" stroke="black" d="M1515.36,-392C1524.91,-392 1568.81,-392 1590.42,-392"/>
<polygon fill="black" stroke="black" points="1590.65,-395.5 1600.65,-392 1590.65,-388.5 1590.65,-395.5"/>
<text text-anchor="middle" x="1558" y="-398.8" font-family="Times,serif" font-size="14.00">Data flow</text>
</g>
<!-- d2 -->
<!-- d3 -->
<!-- d2&#45;&gt;d3 -->
<g id="edge21" class="edge">
<title>d2&#45;&gt;d3</title>
<path fill="none" stroke="black" stroke-dasharray="1,5" d="M1389.31,-392C1399.96,-392 1454.96,-392 1479.58,-392"/>
<polygon fill="black" stroke="black" points="1479.65,-395.5 1489.65,-392 1479.65,-388.5 1479.65,-395.5"/>
<text text-anchor="middle" x="1439.5" y="-398.8" font-family="Times,serif" font-size="14.00">Declaration</text>
</g>
<!-- d4 -->
<!-- d5 -->
<!-- d4&#45;&gt;d5 -->
<g id="edge22" class="edge">
<title>d4&#45;&gt;d5</title>
<path fill="none" stroke="blue" d="M1246.6,-392C1259.22,-392 1325.38,-392 1353.18,-392"/>
<polygon fill="blue" stroke="blue" points="1353.34,-395.5 1363.34,-392 1353.34,-388.5 1353.34,-395.5"/>
<text text-anchor="middle" x="1305" y="-398.8" font-family="Times,serif" font-size="14.00">PHI Data flow</text>
</g>
<!-- d6 -->
<!-- d7 -->
<!-- d6&#45;&gt;d7 -->
<g id="edge23" class="edge">
<title>d6&#45;&gt;d7</title>
<path fill="none" stroke="green" d="M1109.5,-392C1121.44,-392 1183.8,-392 1210.43,-392"/>
<polygon fill="green" stroke="green" points="1210.45,-395.5 1220.45,-392 1210.45,-388.5 1210.45,-395.5"/>
<text text-anchor="middle" x="1165" y="-398.8" font-family="Times,serif" font-size="14.00">Memory flow</text>
</g>
</g>
</svg>
