<?xml version="1.0" encoding="UTF-8" standalone="no"?>
<!DOCTYPE svg PUBLIC "-//W3C//DTD SVG 1.1//EN"
 "http://www.w3.org/Graphics/SVG/1.1/DTD/svg11.dtd">
<!-- Generated by graphviz version 2.43.0 (0)
 -->
<!-- Title: %3 Pages: 1 -->
<svg width="1359pt" height="879pt"
 viewBox="0.00 0.00 1359.00 878.80" xmlns="http://www.w3.org/2000/svg" xmlns:xlink="http://www.w3.org/1999/xlink">
<g id="graph0" class="graph" transform="scale(1 1) rotate(0) translate(4 874.8)">
<title>%3</title>
<polygon fill="white" stroke="transparent" points="-4,4 -4,-874.8 1355,-874.8 1355,4 -4,4"/>
<g id="clust1" class="cluster">
<title>cluster_0</title>
<polygon fill="none" stroke="lightgray" points="203,-357 203,-482 581,-482 581,-357 203,-357"/>
</g>
<g id="clust2" class="cluster">
<title>cluster_1</title>
<polygon fill="none" stroke="lightgray" points="257,-649 257,-774 681,-774 681,-649 257,-649"/>
</g>
<g id="clust3" class="cluster">
<title>cluster_000</title>
<polygon fill="none" stroke="black" points="490,-820.2 490,-862.8 1343,-862.8 1343,-820.2 490,-820.2"/>
<text text-anchor="middle" x="916.5" y="-847.6" font-family="Times,serif" font-size="14.00">Legend</text>
</g>
<!-- node0 -->
<g id="node1" class="node">
<title>node0</title>
<polygon fill="lightgrey" stroke="transparent" points="480.5,-857 313.5,-857 313.5,-803 480.5,-803 480.5,-857"/>
<polygon fill="none" stroke="black" points="314,-830 314,-857 481,-857 481,-830 314,-830"/>
<text text-anchor="start" x="357" y="-839.8" font-family="Times,serif" font-size="14.00">#0 Method</text>
<polygon fill="yellow" stroke="transparent" points="314,-803 314,-830 481,-830 481,-803 314,-803"/>
<polygon fill="none" stroke="black" points="314,-803 314,-830 481,-830 481,-803 314,-803"/>
<text text-anchor="start" x="320" y="-812.8" font-family="Times,serif" font-size="14.00">this : FieldAccessTest</text>
</g>
<!-- node4 -->
<g id="node2" class="node">
<title>node4</title>
<polygon fill="lightgrey" stroke="black" points="348.5,-620 243.5,-620 243.5,-584 348.5,-584 348.5,-620"/>
<text text-anchor="middle" x="296" y="-598.3" font-family="Times,serif" font-size="14.00">#4 ClassInit</text>
</g>
<!-- node0&#45;&gt;node4 -->
<g id="edge3" class="edge">
<title>node0&#45;&gt;node4</title>
<path fill="none" stroke="green" d="M313.37,-815.43C289.98,-807.36 267.11,-794.5 253,-774 221.49,-728.24 232.61,-700.68 253,-649 256.05,-641.28 261.07,-634.09 266.63,-627.8"/>
<polygon fill="green" stroke="green" points="269.41,-629.96 273.85,-620.33 264.38,-625.09 269.41,-629.96"/>
</g>
<!-- node2 -->
<g id="node4" class="node">
<title>node2</title>
<polygon fill="lightgrey" stroke="black" points="456.5,-766 337.5,-766 337.5,-730 456.5,-730 456.5,-766"/>
<text text-anchor="middle" x="397" y="-744.3" font-family="Times,serif" font-size="14.00">#2 LabelNode</text>
</g>
<!-- node0&#45;&gt;node2 -->
<g id="edge4" class="edge">
<title>node0&#45;&gt;node2</title>
<path fill="none" stroke="red" d="M397,-802.81C397,-794.35 397,-784.95 397,-776.4"/>
<polygon fill="red" stroke="red" points="400.5,-776.17 397,-766.17 393.5,-776.17 400.5,-776.17"/>
</g>
<!-- node5 -->
<g id="node5" class="node">
<title>node5</title>
<polygon fill="orange" stroke="black" points="308.12,-521.54 308.12,-536.46 277.59,-547 234.41,-547 203.88,-536.46 203.88,-521.54 234.41,-511 277.59,-511 308.12,-521.54"/>
<text text-anchor="middle" x="256" y="-525.3" font-family="Times,serif" font-size="14.00">#5 New</text>
</g>
<!-- node4&#45;&gt;node5 -->
<g id="edge6" class="edge">
<title>node4&#45;&gt;node5</title>
<path fill="none" stroke="black" d="M280.44,-583.81C274.9,-575.53 268.98,-565.41 264.22,-556.19"/>
<polygon fill="black" stroke="black" points="267.27,-554.47 259.73,-547.03 260.98,-557.55 267.27,-554.47"/>
<text text-anchor="middle" x="275.29" y="-555.89" font-family="Times,serif" font-size="14.00">*0</text>
</g>
<!-- node4&#45;&gt;node5 -->
<g id="edge7" class="edge">
<title>node4&#45;&gt;node5</title>
<path fill="none" stroke="green" d="M292.2,-583.81C288.31,-575.35 282.68,-564.98 276.94,-555.61"/>
<polygon fill="green" stroke="green" points="279.79,-553.57 271.46,-547.03 273.89,-557.34 279.79,-553.57"/>
</g>
<!-- node6 -->
<g id="node6" class="node">
<title>node6</title>
<polygon fill="lightgrey" stroke="black" points="461,-474 211,-474 211,-438 461,-438 461,-474"/>
<text text-anchor="middle" x="336" y="-452.3" font-family="Times,serif" font-size="14.00">#6 Invoke special &lt;init&gt; : ()void</text>
</g>
<!-- node4&#45;&gt;node6 -->
<g id="edge9" class="edge">
<title>node4&#45;&gt;node6</title>
<path fill="none" stroke="red" d="M303.54,-583.74C307.91,-573.26 313.27,-559.53 317,-547 323.18,-526.24 328.15,-502.22 331.45,-484.22"/>
<polygon fill="red" stroke="red" points="334.94,-484.58 333.24,-474.13 328.05,-483.36 334.94,-484.58"/>
</g>
<!-- node3 -->
<g id="node3" class="node">
<title>node3</title>
<polygon fill="lightgreen" stroke="black" points="673.03,-667.54 673.03,-682.46 553.51,-693 384.49,-693 264.97,-682.46 264.97,-667.54 384.49,-657 553.51,-657 673.03,-667.54"/>
<text text-anchor="middle" x="469" y="-671.3" font-family="Times,serif" font-size="14.00">#3 Class FieldAccessTest$Destination</text>
</g>
<!-- node3&#45;&gt;node4 -->
<g id="edge1" class="edge">
<title>node3&#45;&gt;node4</title>
<path fill="none" stroke="black" d="M427.56,-656.99C403.45,-647.1 372.86,-634.54 347.25,-624.03"/>
<polygon fill="black" stroke="black" points="348.28,-620.67 337.7,-620.11 345.62,-627.15 348.28,-620.67"/>
<text text-anchor="middle" x="357.68" y="-615.48" font-family="Times,serif" font-size="14.00">*0</text>
</g>
<!-- node2&#45;&gt;node4 -->
<g id="edge2" class="edge">
<title>node2&#45;&gt;node4</title>
<path fill="none" stroke="red" d="M337.3,-732.38C310.63,-723.87 279.9,-711.15 256,-693 232.21,-674.94 225.36,-667.36 216,-639 211.66,-625.84 220.51,-617.49 233.73,-612.18"/>
<polygon fill="red" stroke="red" points="235.06,-615.43 243.46,-608.98 232.87,-608.78 235.06,-615.43"/>
</g>
<!-- node2&#45;&gt;node3 -->
<g id="edge5" class="edge">
<title>node2&#45;&gt;node3</title>
<path fill="none" stroke="black" stroke-dasharray="1,5" d="M414.43,-729.81C423.45,-720.92 434.61,-709.91 444.49,-700.17"/>
<polygon fill="black" stroke="black" points="447.07,-702.54 451.73,-693.03 442.15,-697.56 447.07,-702.54"/>
</g>
<!-- node5&#45;&gt;node6 -->
<g id="edge8" class="edge">
<title>node5&#45;&gt;node6</title>
<path fill="none" stroke="black" d="M269.49,-510.81C278.76,-501.74 291.28,-490.48 303.01,-480.6"/>
<polygon fill="black" stroke="black" points="305.48,-483.1 310.95,-474.03 301.01,-477.71 305.48,-483.1"/>
<text text-anchor="middle" x="302.37" y="-488.4" font-family="Times,serif" font-size="14.00">*0</text>
</g>
<!-- node5&#45;&gt;node6 -->
<g id="edge10" class="edge">
<title>node5&#45;&gt;node6</title>
<path fill="none" stroke="green" d="M280.36,-511.53C291.53,-502.5 304.55,-491.13 315.25,-481.12"/>
<polygon fill="green" stroke="green" points="317.77,-483.56 322.58,-474.12 312.93,-478.5 317.77,-483.56"/>
</g>
<!-- node12 -->
<g id="node12" class="node">
<title>node12</title>
<polygon fill="lightgrey" stroke="black" points="374.5,-109 87.5,-109 87.5,-73 374.5,-73 374.5,-109"/>
<text text-anchor="middle" x="231" y="-87.3" font-family="Times,serif" font-size="14.00">#12 PutField : boolean_field : boolean</text>
</g>
<!-- node5&#45;&gt;node12 -->
<g id="edge22" class="edge">
<title>node5&#45;&gt;node12</title>
<path fill="none" stroke="black" d="M203.89,-524.12C129.04,-517.1 0,-498.91 0,-457 0,-457 0,-457 0,-163 0,-139.01 46.11,-122.28 97.13,-111.12"/>
<polygon fill="black" stroke="black" points="97.98,-114.51 107.05,-109.03 96.54,-107.66 97.98,-114.51"/>
<text text-anchor="middle" x="91.05" y="-117.34" font-family="Times,serif" font-size="14.00">*0</text>
</g>
<!-- node7 -->
<g id="node7" class="node">
<title>node7</title>
<polygon fill="lightgreen" stroke="black" points="572.6,-375.54 572.6,-390.46 466.81,-401 317.19,-401 211.4,-390.46 211.4,-375.54 317.19,-365 466.81,-365 572.6,-375.54"/>
<text text-anchor="middle" x="392" y="-379.3" font-family="Times,serif" font-size="14.00">#7 Class FieldAccessTest$Source</text>
</g>
<!-- node6&#45;&gt;node7 -->
<g id="edge11" class="edge">
<title>node6&#45;&gt;node7</title>
<path fill="none" stroke="black" stroke-dasharray="1,5" d="M349.56,-437.81C356.37,-429.18 364.75,-418.56 372.25,-409.03"/>
<polygon fill="black" stroke="black" points="375.12,-411.05 378.57,-401.03 369.63,-406.71 375.12,-411.05"/>
</g>
<!-- node8 -->
<g id="node8" class="node">
<title>node8</title>
<polygon fill="lightgrey" stroke="black" points="444.5,-328 339.5,-328 339.5,-292 444.5,-292 444.5,-328"/>
<text text-anchor="middle" x="392" y="-306.3" font-family="Times,serif" font-size="14.00">#8 ClassInit</text>
</g>
<!-- node6&#45;&gt;node8 -->
<g id="edge13" class="edge">
<title>node6&#45;&gt;node8</title>
<path fill="none" stroke="red" d="M242.39,-437.99C222.83,-430 204.65,-418.25 193,-401 182.06,-384.79 180.91,-372.37 193,-357 209.48,-336.06 277.23,-323.5 329.23,-316.92"/>
<polygon fill="red" stroke="red" points="329.9,-320.36 339.4,-315.68 329.05,-313.42 329.9,-320.36"/>
</g>
<!-- node6&#45;&gt;node8 -->
<g id="edge14" class="edge">
<title>node6&#45;&gt;node8</title>
<path fill="none" stroke="green" d="M259.78,-437.99C240.83,-430 222.65,-418.25 211,-401 200.06,-384.79 198.91,-372.37 211,-357 225.96,-337.99 283.16,-325.89 329.38,-318.9"/>
<polygon fill="green" stroke="green" points="329.96,-322.35 339.35,-317.44 328.95,-315.42 329.96,-322.35"/>
</g>
<!-- node7&#45;&gt;node8 -->
<g id="edge12" class="edge">
<title>node7&#45;&gt;node8</title>
<path fill="none" stroke="black" d="M392,-364.81C392,-356.79 392,-347.05 392,-338.07"/>
<polygon fill="black" stroke="black" points="395.5,-338.03 392,-328.03 388.5,-338.03 395.5,-338.03"/>
<text text-anchor="middle" x="400.45" y="-342.45" font-family="Times,serif" font-size="14.00">*0</text>
</g>
<!-- node10 -->
<g id="node9" class="node">
<title>node10</title>
<polygon fill="lightgrey" stroke="black" points="728.5,-182 469.5,-182 469.5,-146 728.5,-146 728.5,-182"/>
<text text-anchor="middle" x="599" y="-160.3" font-family="Times,serif" font-size="14.00">#10 Invoke special &lt;init&gt; : ()void</text>
</g>
<!-- node8&#45;&gt;node10 -->
<g id="edge16" class="edge">
<title>node8&#45;&gt;node10</title>
<path fill="none" stroke="red" d="M416.56,-291.92C453.75,-266.04 524.43,-216.87 566.05,-187.92"/>
<polygon fill="red" stroke="red" points="568.26,-190.65 574.47,-182.06 564.27,-184.9 568.26,-190.65"/>
</g>
<!-- node9 -->
<g id="node10" class="node">
<title>node9</title>
<polygon fill="orange" stroke="black" points="444.12,-229.54 444.12,-244.46 413.59,-255 370.41,-255 339.88,-244.46 339.88,-229.54 370.41,-219 413.59,-219 444.12,-229.54"/>
<text text-anchor="middle" x="392" y="-233.3" font-family="Times,serif" font-size="14.00">#9 New</text>
</g>
<!-- node8&#45;&gt;node9 -->
<g id="edge18" class="edge">
<title>node8&#45;&gt;node9</title>
<path fill="none" stroke="black" d="M386.12,-291.81C385.28,-283.79 385.05,-274.05 385.42,-265.07"/>
<polygon fill="black" stroke="black" points="388.92,-265.25 386.14,-255.03 381.94,-264.75 388.92,-265.25"/>
<text text-anchor="middle" x="393.28" y="-270.01" font-family="Times,serif" font-size="14.00">*0</text>
</g>
<!-- node8&#45;&gt;node9 -->
<g id="edge19" class="edge">
<title>node8&#45;&gt;node9</title>
<path fill="none" stroke="green" d="M397.88,-291.81C398.72,-283.79 398.95,-274.05 398.58,-265.07"/>
<polygon fill="green" stroke="green" points="402.06,-264.75 397.86,-255.03 395.08,-265.25 402.06,-264.75"/>
</g>
<!-- node11 -->
<g id="node11" class="node">
<title>node11</title>
<polygon fill="orange" stroke="black" points="433.71,-156.54 433.71,-171.46 314.97,-182 147.03,-182 28.29,-171.46 28.29,-156.54 147.03,-146 314.97,-146 433.71,-156.54"/>
<text text-anchor="middle" x="231" y="-160.3" font-family="Times,serif" font-size="14.00">#11 GetField : boolean_field : boolean</text>
</g>
<!-- node10&#45;&gt;node11 -->
<g id="edge21" class="edge">
<title>node10&#45;&gt;node11</title>
<path fill="none" stroke="green" d="M469.2,-164C460.79,-164 452.37,-164 443.95,-164"/>
<polygon fill="green" stroke="green" points="443.69,-160.5 433.69,-164 443.69,-167.5 443.69,-160.5"/>
</g>
<!-- node10&#45;&gt;node12 -->
<g id="edge25" class="edge">
<title>node10&#45;&gt;node12</title>
<path fill="none" stroke="red" d="M510.85,-145.99C456.19,-135.45 385.87,-121.88 329.4,-110.98"/>
<polygon fill="red" stroke="red" points="329.86,-107.51 319.38,-109.05 328.54,-114.38 329.86,-107.51"/>
</g>
<!-- node9&#45;&gt;node10 -->
<g id="edge15" class="edge">
<title>node9&#45;&gt;node10</title>
<path fill="none" stroke="black" d="M425.06,-222.81C454.36,-212.25 497.83,-197.25 534.03,-185.17"/>
<polygon fill="black" stroke="black" points="535.15,-188.49 543.54,-182.01 532.95,-181.85 535.15,-188.49"/>
<text text-anchor="middle" x="529" y="-192.05" font-family="Times,serif" font-size="14.00">*0</text>
</g>
<!-- node9&#45;&gt;node10 -->
<g id="edge17" class="edge">
<title>node9&#45;&gt;node10</title>
<path fill="none" stroke="green" d="M430.37,-224.59C462.71,-214.09 509.19,-198.27 545.22,-185.57"/>
<polygon fill="green" stroke="green" points="546.82,-188.72 555.08,-182.08 544.48,-182.12 546.82,-188.72"/>
</g>
<!-- node9&#45;&gt;node11 -->
<g id="edge20" class="edge">
<title>node9&#45;&gt;node11</title>
<path fill="none" stroke="black" d="M360.58,-222.14C337.43,-211.93 305.53,-197.87 279.17,-186.24"/>
<polygon fill="black" stroke="black" points="280.3,-182.92 269.74,-182.08 277.48,-189.32 280.3,-182.92"/>
<text text-anchor="middle" x="289.74" y="-177.96" font-family="Times,serif" font-size="14.00">*0</text>
</g>
<!-- node11&#45;&gt;node12 -->
<g id="edge23" class="edge">
<title>node11&#45;&gt;node12</title>
<path fill="none" stroke="black" d="M225.12,-145.81C224.28,-137.79 224.05,-128.05 224.42,-119.07"/>
<polygon fill="black" stroke="black" points="227.92,-119.25 225.14,-109.03 220.94,-118.75 227.92,-119.25"/>
<text text-anchor="middle" x="232.28" y="-124.01" font-family="Times,serif" font-size="14.00">*1</text>
</g>
<!-- node11&#45;&gt;node12 -->
<g id="edge24" class="edge">
<title>node11&#45;&gt;node12</title>
<path fill="none" stroke="green" d="M236.88,-145.81C237.72,-137.79 237.95,-128.05 237.58,-119.07"/>
<polygon fill="green" stroke="green" points="241.06,-118.75 236.86,-109.03 234.08,-119.25 241.06,-118.75"/>
</g>
<!-- node13 -->
<g id="node13" class="node">
<title>node13</title>
<polygon fill="lightgrey" stroke="black" points="281.5,-36 180.5,-36 180.5,0 281.5,0 281.5,-36"/>
<text text-anchor="middle" x="231" y="-14.3" font-family="Times,serif" font-size="14.00">#13 Return</text>
</g>
<!-- node12&#45;&gt;node13 -->
<g id="edge26" class="edge">
<title>node12&#45;&gt;node13</title>
<path fill="none" stroke="red" d="M225.12,-72.81C224.28,-64.79 224.05,-55.05 224.42,-46.07"/>
<polygon fill="red" stroke="red" points="227.92,-46.25 225.14,-36.03 220.94,-45.75 227.92,-46.25"/>
</g>
<!-- node12&#45;&gt;node13 -->
<g id="edge27" class="edge">
<title>node12&#45;&gt;node13</title>
<path fill="none" stroke="green" d="M236.88,-72.81C237.72,-64.79 237.95,-55.05 237.58,-46.07"/>
<polygon fill="green" stroke="green" points="241.06,-45.75 236.86,-36.03 234.08,-46.25 241.06,-45.75"/>
</g>
<!-- c0 -->
<!-- c1 -->
<!-- c0&#45;&gt;c1 -->
<g id="edge28" class="edge">
<title>c0&#45;&gt;c1</title>
<path fill="none" stroke="red" d="M1225.89,-830C1237.11,-830 1295.24,-830 1320.86,-830"/>
<polygon fill="red" stroke="red" points="1321.06,-833.5 1331.06,-830 1321.06,-826.5 1321.06,-833.5"/>
<text text-anchor="middle" x="1278.5" y="-836.8" font-family="Times,serif" font-size="14.00">Control flow</text>
</g>
<!-- c2 -->
<!-- c3 -->
<!-- c2&#45;&gt;c3 -->
<g id="edge29" class="edge">
<title>c2&#45;&gt;c3</title>
<path fill="none" stroke="red" stroke-dasharray="5,2" d="M1019.08,-830C1036.05,-830 1152.21,-830 1190.08,-830"/>
<polygon fill="red" stroke="red" points="1190.17,-833.5 1200.17,-830 1190.17,-826.5 1190.17,-833.5"/>
<text text-anchor="middle" x="1109.5" y="-836.8" font-family="Times,serif" font-size="14.00">Control flow back edge</text>
</g>
<!-- d0 -->
<!-- d1 -->
<!-- d0&#45;&gt;d1 -->
<g id="edge30" class="edge">
<title>d0&#45;&gt;d1</title>
<path fill="none" stroke="black" d="M907.86,-830C917.41,-830 961.31,-830 982.92,-830"/>
<polygon fill="black" stroke="black" points="983.15,-833.5 993.15,-830 983.15,-826.5 983.15,-833.5"/>
<text text-anchor="middle" x="950.5" y="-836.8" font-family="Times,serif" font-size="14.00">Data flow</text>
</g>
<!-- d2 -->
<!-- d3 -->
<!-- d2&#45;&gt;d3 -->
<g id="edge31" class="edge">
<title>d2&#45;&gt;d3</title>
<path fill="none" stroke="black" stroke-dasharray="1,5" d="M781.81,-830C792.46,-830 847.46,-830 872.08,-830"/>
<polygon fill="black" stroke="black" points="872.15,-833.5 882.15,-830 872.15,-826.5 872.15,-833.5"/>
<text text-anchor="middle" x="832" y="-836.8" font-family="Times,serif" font-size="14.00">Declaration</text>
</g>
<!-- d4 -->
<!-- d5 -->
<!-- d4&#45;&gt;d5 -->
<g id="edge32" class="edge">
<title>d4&#45;&gt;d5</title>
<path fill="none" stroke="blue" d="M639.1,-830C651.72,-830 717.88,-830 745.68,-830"/>
<polygon fill="blue" stroke="blue" points="745.84,-833.5 755.84,-830 745.84,-826.5 745.84,-833.5"/>
<text text-anchor="middle" x="697.5" y="-836.8" font-family="Times,serif" font-size="14.00">PHI Data flow</text>
</g>
<!-- d6 -->
<!-- d7 -->
<!-- d6&#45;&gt;d7 -->
<g id="edge33" class="edge">
<title>d6&#45;&gt;d7</title>
<path fill="none" stroke="green" d="M502,-830C513.94,-830 576.3,-830 602.93,-830"/>
<polygon fill="green" stroke="green" points="602.95,-833.5 612.95,-830 602.95,-826.5 602.95,-833.5"/>
<text text-anchor="middle" x="557.5" y="-836.8" font-family="Times,serif" font-size="14.00">Memory flow</text>
</g>
</g>
</svg>
