<?xml version="1.0" encoding="UTF-8" standalone="no"?>
<!DOCTYPE svg PUBLIC "-//W3C//DTD SVG 1.1//EN"
 "http://www.w3.org/Graphics/SVG/1.1/DTD/svg11.dtd">
<!-- Generated by graphviz version 2.43.0 (0)
 -->
<!-- Title: %3 Pages: 1 -->
<svg width="1811pt" height="735pt"
 viewBox="0.00 0.00 1810.50 735.00" xmlns="http://www.w3.org/2000/svg" xmlns:xlink="http://www.w3.org/1999/xlink">
<g id="graph0" class="graph" transform="scale(1 1) rotate(0) translate(4 731)">
<title>%3</title>
<polygon fill="white" stroke="transparent" points="-4,4 -4,-731 1806.5,-731 1806.5,4 -4,4"/>
<g id="clust1" class="cluster">
<title>cluster_0</title>
<polygon fill="none" stroke="lightgray" points="129.5,-576 129.5,-719 933.5,-719 933.5,-576 129.5,-576"/>
</g>
<g id="clust2" class="cluster">
<title>cluster_000</title>
<polygon fill="none" stroke="black" points="941.5,-674.2 941.5,-716.8 1794.5,-716.8 1794.5,-674.2 941.5,-674.2"/>
<text text-anchor="middle" x="1368" y="-701.6" font-family="Times,serif" font-size="14.00">Legend</text>
</g>
<!-- node0 -->
<g id="node1" class="node">
<title>node0</title>
<polygon fill="lightgrey" stroke="transparent" points="425,-711 258,-711 258,-657 425,-657 425,-711"/>
<polygon fill="none" stroke="black" points="258.5,-684 258.5,-711 425.5,-711 425.5,-684 258.5,-684"/>
<text text-anchor="start" x="301.5" y="-693.8" font-family="Times,serif" font-size="14.00">#0 Method</text>
<polygon fill="yellow" stroke="transparent" points="258.5,-657 258.5,-684 425.5,-684 425.5,-657 258.5,-657"/>
<polygon fill="none" stroke="black" points="258.5,-657 258.5,-684 425.5,-684 425.5,-657 258.5,-657"/>
<text text-anchor="start" x="264.5" y="-666.8" font-family="Times,serif" font-size="14.00">this : FieldAccessTest</text>
</g>
<!-- node2 -->
<g id="node2" class="node">
<title>node2</title>
<polygon fill="lightgrey" stroke="black" points="119,-620 0,-620 0,-584 119,-584 119,-620"/>
<text text-anchor="middle" x="59.5" y="-598.3" font-family="Times,serif" font-size="14.00">#2 LabelNode</text>
</g>
<!-- node0&#45;&gt;node2 -->
<g id="edge1" class="edge">
<title>node0&#45;&gt;node2</title>
<path fill="none" stroke="red" d="M257.65,-659.21C216.64,-647.58 167.87,-633.74 128.97,-622.71"/>
<polygon fill="red" stroke="red" points="129.88,-619.33 119.31,-619.97 127.97,-626.06 129.88,-619.33"/>
</g>
<!-- node4 -->
<g id="node3" class="node">
<title>node4</title>
<polygon fill="lightgrey" stroke="black" points="362,-547 257,-547 257,-511 362,-511 362,-547"/>
<text text-anchor="middle" x="309.5" y="-525.3" font-family="Times,serif" font-size="14.00">#4 ClassInit</text>
</g>
<!-- node0&#45;&gt;node4 -->
<g id="edge4" class="edge">
<title>node0&#45;&gt;node4</title>
<path fill="none" stroke="green" d="M425.19,-680.19C580.6,-674.11 901.07,-657.17 934.5,-620 947.58,-605.46 947.81,-590.33 934.5,-576 896.77,-535.39 522.95,-530.28 372.12,-529.89"/>
<polygon fill="green" stroke="green" points="372.09,-526.39 362.08,-529.87 372.07,-533.39 372.09,-526.39"/>
</g>
<!-- node3 -->
<g id="node4" class="node">
<title>node3</title>
<polygon fill="lightgreen" stroke="black" points="545.53,-594.54 545.53,-609.46 426.01,-620 256.99,-620 137.47,-609.46 137.47,-594.54 256.99,-584 426.01,-584 545.53,-594.54"/>
<text text-anchor="middle" x="341.5" y="-598.3" font-family="Times,serif" font-size="14.00">#3 Class FieldAccessTest$Destination</text>
</g>
<!-- node0&#45;&gt;node3 -->
<g id="edge5" class="edge">
<title>node0&#45;&gt;node3</title>
<path fill="none" stroke="black" stroke-dasharray="1,5" d="M341.5,-656.81C341.5,-648.35 341.5,-638.95 341.5,-630.4"/>
<polygon fill="black" stroke="black" points="345,-630.17 341.5,-620.17 338,-630.17 345,-630.17"/>
</g>
<!-- node5 -->
<g id="node12" class="node">
<title>node5</title>
<polygon fill="lightgreen" stroke="black" points="925.1,-594.54 925.1,-609.46 819.31,-620 669.69,-620 563.9,-609.46 563.9,-594.54 669.69,-584 819.31,-584 925.1,-594.54"/>
<text text-anchor="middle" x="744.5" y="-598.3" font-family="Times,serif" font-size="14.00">#5 Class FieldAccessTest$Source</text>
</g>
<!-- node0&#45;&gt;node5 -->
<g id="edge23" class="edge">
<title>node0&#45;&gt;node5</title>
<path fill="none" stroke="black" stroke-dasharray="1,5" d="M425,-666.42C491.25,-653.27 583.78,-634.9 652.22,-621.32"/>
<polygon fill="black" stroke="black" points="653.01,-624.73 662.14,-619.35 651.65,-617.86 653.01,-624.73"/>
</g>
<!-- node2&#45;&gt;node4 -->
<g id="edge3" class="edge">
<title>node2&#45;&gt;node4</title>
<path fill="none" stroke="red" d="M102.2,-583.99C109.9,-581.16 117.9,-578.38 125.5,-576 165.42,-563.5 211.04,-552.07 246.87,-543.74"/>
<polygon fill="red" stroke="red" points="247.74,-547.13 256.7,-541.47 246.17,-540.31 247.74,-547.13"/>
</g>
<!-- node7 -->
<g id="node5" class="node">
<title>node7</title>
<polygon fill="lightgrey" stroke="black" points="508.5,-401 258.5,-401 258.5,-365 508.5,-365 508.5,-401"/>
<text text-anchor="middle" x="383.5" y="-379.3" font-family="Times,serif" font-size="14.00">#7 Invoke special &lt;init&gt; : ()void</text>
</g>
<!-- node4&#45;&gt;node7 -->
<g id="edge7" class="edge">
<title>node4&#45;&gt;node7</title>
<path fill="none" stroke="red" d="M332.48,-510.87C343.8,-501.25 356.65,-488.32 364.5,-474 375.09,-454.68 379.78,-430.06 381.86,-411.45"/>
<polygon fill="red" stroke="red" points="385.36,-411.55 382.8,-401.27 378.39,-410.91 385.36,-411.55"/>
</g>
<!-- node6 -->
<g id="node6" class="node">
<title>node6</title>
<polygon fill="orange" stroke="black" points="355.62,-448.54 355.62,-463.46 325.09,-474 281.91,-474 251.38,-463.46 251.38,-448.54 281.91,-438 325.09,-438 355.62,-448.54"/>
<text text-anchor="middle" x="303.5" y="-452.3" font-family="Times,serif" font-size="14.00">#6 New</text>
</g>
<!-- node4&#45;&gt;node6 -->
<g id="edge9" class="edge">
<title>node4&#45;&gt;node6</title>
<path fill="none" stroke="black" d="M302.17,-510.81C300.65,-502.79 299.6,-493.05 299.21,-484.07"/>
<polygon fill="black" stroke="black" points="302.71,-483.98 299.08,-474.03 295.71,-484.07 302.71,-483.98"/>
<text text-anchor="middle" x="307.77" y="-488.34" font-family="Times,serif" font-size="14.00">*0</text>
</g>
<!-- node4&#45;&gt;node6 -->
<g id="edge10" class="edge">
<title>node4&#45;&gt;node6</title>
<path fill="none" stroke="green" d="M313.93,-510.81C314.09,-502.79 313.5,-493.05 312.37,-484.07"/>
<polygon fill="green" stroke="green" points="315.8,-483.37 310.8,-474.03 308.88,-484.45 315.8,-483.37"/>
</g>
<!-- node3&#45;&gt;node4 -->
<g id="edge2" class="edge">
<title>node3&#45;&gt;node4</title>
<path fill="none" stroke="black" d="M333.75,-583.81C330.02,-575.53 325.46,-565.41 321.31,-556.19"/>
<polygon fill="black" stroke="black" points="324.47,-554.71 317.17,-547.03 318.09,-557.58 324.47,-554.71"/>
<text text-anchor="middle" x="332.33" y="-556.38" font-family="Times,serif" font-size="14.00">*0</text>
</g>
<!-- node8 -->
<g id="node11" class="node">
<title>node8</title>
<polygon fill="lightgrey" stroke="black" points="797,-328 692,-328 692,-292 797,-292 797,-328"/>
<text text-anchor="middle" x="744.5" y="-306.3" font-family="Times,serif" font-size="14.00">#8 ClassInit</text>
</g>
<!-- node7&#45;&gt;node8 -->
<g id="edge21" class="edge">
<title>node7&#45;&gt;node8</title>
<path fill="none" stroke="red" d="M464.11,-364.99C529.85,-351.79 621.32,-333.85 681.72,-322.34"/>
<polygon fill="red" stroke="red" points="682.71,-325.72 691.88,-320.41 681.4,-318.84 682.71,-325.72"/>
</g>
<!-- node7&#45;&gt;node8 -->
<g id="edge22" class="edge">
<title>node7&#45;&gt;node8</title>
<path fill="none" stroke="green" d="M475.83,-364.99C540.51,-352.53 625.17,-335.85 682.06,-324.35"/>
<polygon fill="green" stroke="green" points="682.89,-327.75 691.99,-322.33 681.5,-320.89 682.89,-327.75"/>
</g>
<!-- node6&#45;&gt;node7 -->
<g id="edge6" class="edge">
<title>node6&#45;&gt;node7</title>
<path fill="none" stroke="black" d="M316.99,-437.81C326.26,-428.74 338.78,-417.48 350.51,-407.6"/>
<polygon fill="black" stroke="black" points="352.98,-410.1 358.45,-401.03 348.51,-404.71 352.98,-410.1"/>
<text text-anchor="middle" x="349.87" y="-415.4" font-family="Times,serif" font-size="14.00">*0</text>
</g>
<!-- node6&#45;&gt;node7 -->
<g id="edge8" class="edge">
<title>node6&#45;&gt;node7</title>
<path fill="none" stroke="green" d="M327.86,-438.53C339.03,-429.5 352.05,-418.13 362.75,-408.12"/>
<polygon fill="green" stroke="green" points="365.27,-410.56 370.08,-401.12 360.43,-405.5 365.27,-410.56"/>
</g>
<!-- node12 -->
<g id="node7" class="node">
<title>node12</title>
<polygon fill="lightgrey" stroke="black" points="604,-109 317,-109 317,-73 604,-73 604,-109"/>
<text text-anchor="middle" x="460.5" y="-87.3" font-family="Times,serif" font-size="14.00">#12 PutField : boolean_field : boolean</text>
</g>
<!-- node6&#45;&gt;node12 -->
<g id="edge11" class="edge">
<title>node6&#45;&gt;node12</title>
<path fill="none" stroke="black" d="M273.4,-440.84C252.91,-428.9 229.5,-409.64 229.5,-384 229.5,-384 229.5,-384 229.5,-163 229.5,-139.01 275.61,-122.28 326.63,-111.12"/>
<polygon fill="black" stroke="black" points="327.48,-114.51 336.55,-109.03 326.04,-107.66 327.48,-114.51"/>
<text text-anchor="middle" x="320.55" y="-117.34" font-family="Times,serif" font-size="14.00">*0</text>
</g>
<!-- node13 -->
<g id="node13" class="node">
<title>node13</title>
<polygon fill="lightgrey" stroke="black" points="511,-36 410,-36 410,0 511,0 511,-36"/>
<text text-anchor="middle" x="460.5" y="-14.3" font-family="Times,serif" font-size="14.00">#13 Return</text>
</g>
<!-- node12&#45;&gt;node13 -->
<g id="edge26" class="edge">
<title>node12&#45;&gt;node13</title>
<path fill="none" stroke="red" d="M454.62,-72.81C453.78,-64.79 453.55,-55.05 453.92,-46.07"/>
<polygon fill="red" stroke="red" points="457.42,-46.25 454.64,-36.03 450.44,-45.75 457.42,-46.25"/>
</g>
<!-- node12&#45;&gt;node13 -->
<g id="edge27" class="edge">
<title>node12&#45;&gt;node13</title>
<path fill="none" stroke="green" d="M466.38,-72.81C467.22,-64.79 467.45,-55.05 467.08,-46.07"/>
<polygon fill="green" stroke="green" points="470.56,-45.75 466.36,-36.03 463.58,-46.25 470.56,-45.75"/>
</g>
<!-- node11 -->
<g id="node8" class="node">
<title>node11</title>
<polygon fill="orange" stroke="black" points="663.21,-156.54 663.21,-171.46 544.47,-182 376.53,-182 257.79,-171.46 257.79,-156.54 376.53,-146 544.47,-146 663.21,-156.54"/>
<text text-anchor="middle" x="460.5" y="-160.3" font-family="Times,serif" font-size="14.00">#11 GetField : boolean_field : boolean</text>
</g>
<!-- node11&#45;&gt;node12 -->
<g id="edge12" class="edge">
<title>node11&#45;&gt;node12</title>
<path fill="none" stroke="black" d="M454.62,-145.81C453.78,-137.79 453.55,-128.05 453.92,-119.07"/>
<polygon fill="black" stroke="black" points="457.42,-119.25 454.64,-109.03 450.44,-118.75 457.42,-119.25"/>
<text text-anchor="middle" x="461.78" y="-124.01" font-family="Times,serif" font-size="14.00">*1</text>
</g>
<!-- node11&#45;&gt;node12 -->
<g id="edge13" class="edge">
<title>node11&#45;&gt;node12</title>
<path fill="none" stroke="green" d="M466.38,-145.81C467.22,-137.79 467.45,-128.05 467.08,-119.07"/>
<polygon fill="green" stroke="green" points="470.56,-118.75 466.36,-109.03 463.58,-119.25 470.56,-118.75"/>
</g>
<!-- node10 -->
<g id="node9" class="node">
<title>node10</title>
<polygon fill="lightgrey" stroke="black" points="958,-182 699,-182 699,-146 958,-146 958,-182"/>
<text text-anchor="middle" x="828.5" y="-160.3" font-family="Times,serif" font-size="14.00">#10 Invoke special &lt;init&gt; : ()void</text>
</g>
<!-- node10&#45;&gt;node12 -->
<g id="edge14" class="edge">
<title>node10&#45;&gt;node12</title>
<path fill="none" stroke="red" d="M740.35,-145.99C685.69,-135.45 615.37,-121.88 558.9,-110.98"/>
<polygon fill="red" stroke="red" points="559.36,-107.51 548.88,-109.05 558.04,-114.38 559.36,-107.51"/>
</g>
<!-- node10&#45;&gt;node11 -->
<g id="edge25" class="edge">
<title>node10&#45;&gt;node11</title>
<path fill="none" stroke="green" d="M698.7,-164C690.29,-164 681.87,-164 673.45,-164"/>
<polygon fill="green" stroke="green" points="673.19,-160.5 663.19,-164 673.19,-167.5 673.19,-160.5"/>
</g>
<!-- node9 -->
<g id="node10" class="node">
<title>node9</title>
<polygon fill="orange" stroke="black" points="796.62,-229.54 796.62,-244.46 766.09,-255 722.91,-255 692.38,-244.46 692.38,-229.54 722.91,-219 766.09,-219 796.62,-229.54"/>
<text text-anchor="middle" x="744.5" y="-233.3" font-family="Times,serif" font-size="14.00">#9 New</text>
</g>
<!-- node9&#45;&gt;node11 -->
<g id="edge24" class="edge">
<title>node9&#45;&gt;node11</title>
<path fill="none" stroke="black" d="M703.2,-225.68C660.12,-214.9 591.55,-197.76 538.26,-184.44"/>
<polygon fill="black" stroke="black" points="539.05,-181.03 528.5,-182 537.36,-187.82 539.05,-181.03"/>
<text text-anchor="middle" x="548.14" y="-174.5" font-family="Times,serif" font-size="14.00">*0</text>
</g>
<!-- node9&#45;&gt;node10 -->
<g id="edge15" class="edge">
<title>node9&#45;&gt;node10</title>
<path fill="none" stroke="black" d="M758.96,-218.81C768.83,-209.66 782.15,-198.26 794.53,-188.32"/>
<polygon fill="black" stroke="black" points="796.81,-190.97 802.49,-182.03 792.47,-185.48 796.81,-190.97"/>
<text text-anchor="middle" x="793.51" y="-196.2" font-family="Times,serif" font-size="14.00">*0</text>
</g>
<!-- node9&#45;&gt;node10 -->
<g id="edge17" class="edge">
<title>node9&#45;&gt;node10</title>
<path fill="none" stroke="green" d="M769.32,-219.89C781.22,-210.71 795.24,-199.05 806.72,-188.83"/>
<polygon fill="green" stroke="green" points="809.15,-191.35 814.21,-182.04 804.45,-186.17 809.15,-191.35"/>
</g>
<!-- node8&#45;&gt;node10 -->
<g id="edge16" class="edge">
<title>node8&#45;&gt;node10</title>
<path fill="none" stroke="red" d="M770.06,-291.97C782.47,-282.47 796.58,-269.61 805.5,-255 817.22,-235.81 822.99,-210.83 825.82,-192.06"/>
<polygon fill="red" stroke="red" points="829.3,-192.45 827.14,-182.08 822.36,-191.53 829.3,-192.45"/>
</g>
<!-- node8&#45;&gt;node9 -->
<g id="edge18" class="edge">
<title>node8&#45;&gt;node9</title>
<path fill="none" stroke="black" d="M738.62,-291.81C737.78,-283.79 737.55,-274.05 737.92,-265.07"/>
<polygon fill="black" stroke="black" points="741.42,-265.25 738.64,-255.03 734.44,-264.75 741.42,-265.25"/>
<text text-anchor="middle" x="745.78" y="-270.01" font-family="Times,serif" font-size="14.00">*0</text>
</g>
<!-- node8&#45;&gt;node9 -->
<g id="edge19" class="edge">
<title>node8&#45;&gt;node9</title>
<path fill="none" stroke="green" d="M750.38,-291.81C751.22,-283.79 751.45,-274.05 751.08,-265.07"/>
<polygon fill="green" stroke="green" points="754.56,-264.75 750.36,-255.03 747.58,-265.25 754.56,-264.75"/>
</g>
<!-- node5&#45;&gt;node8 -->
<g id="edge20" class="edge">
<title>node5&#45;&gt;node8</title>
<path fill="none" stroke="black" d="M744.5,-583.78C744.5,-569.41 744.5,-548.37 744.5,-530 744.5,-530 744.5,-530 744.5,-382 744.5,-367.65 744.5,-351.67 744.5,-338.51"/>
<polygon fill="black" stroke="black" points="748,-338.22 744.5,-328.22 741,-338.22 748,-338.22"/>
<text text-anchor="middle" x="752.95" y="-342.64" font-family="Times,serif" font-size="14.00">*0</text>
</g>
<!-- c0 -->
<!-- c1 -->
<!-- c0&#45;&gt;c1 -->
<g id="edge28" class="edge">
<title>c0&#45;&gt;c1</title>
<path fill="none" stroke="red" d="M1677.39,-684C1688.61,-684 1746.74,-684 1772.36,-684"/>
<polygon fill="red" stroke="red" points="1772.56,-687.5 1782.56,-684 1772.56,-680.5 1772.56,-687.5"/>
<text text-anchor="middle" x="1730" y="-690.8" font-family="Times,serif" font-size="14.00">Control flow</text>
</g>
<!-- c2 -->
<!-- c3 -->
<!-- c2&#45;&gt;c3 -->
<g id="edge29" class="edge">
<title>c2&#45;&gt;c3</title>
<path fill="none" stroke="red" stroke-dasharray="5,2" d="M1470.58,-684C1487.55,-684 1603.71,-684 1641.58,-684"/>
<polygon fill="red" stroke="red" points="1641.67,-687.5 1651.67,-684 1641.67,-680.5 1641.67,-687.5"/>
<text text-anchor="middle" x="1561" y="-690.8" font-family="Times,serif" font-size="14.00">Control flow back edge</text>
</g>
<!-- d0 -->
<!-- d1 -->
<!-- d0&#45;&gt;d1 -->
<g id="edge30" class="edge">
<title>d0&#45;&gt;d1</title>
<path fill="none" stroke="black" d="M1359.36,-684C1368.91,-684 1412.81,-684 1434.42,-684"/>
<polygon fill="black" stroke="black" points="1434.65,-687.5 1444.65,-684 1434.65,-680.5 1434.65,-687.5"/>
<text text-anchor="middle" x="1402" y="-690.8" font-family="Times,serif" font-size="14.00">Data flow</text>
</g>
<!-- d2 -->
<!-- d3 -->
<!-- d2&#45;&gt;d3 -->
<g id="edge31" class="edge">
<title>d2&#45;&gt;d3</title>
<path fill="none" stroke="black" stroke-dasharray="1,5" d="M1233.31,-684C1243.96,-684 1298.96,-684 1323.58,-684"/>
<polygon fill="black" stroke="black" points="1323.65,-687.5 1333.65,-684 1323.65,-680.5 1323.65,-687.5"/>
<text text-anchor="middle" x="1283.5" y="-690.8" font-family="Times,serif" font-size="14.00">Declaration</text>
</g>
<!-- d4 -->
<!-- d5 -->
<!-- d4&#45;&gt;d5 -->
<g id="edge32" class="edge">
<title>d4&#45;&gt;d5</title>
<path fill="none" stroke="blue" d="M1090.6,-684C1103.22,-684 1169.38,-684 1197.18,-684"/>
<polygon fill="blue" stroke="blue" points="1197.34,-687.5 1207.34,-684 1197.34,-680.5 1197.34,-687.5"/>
<text text-anchor="middle" x="1149" y="-690.8" font-family="Times,serif" font-size="14.00">PHI Data flow</text>
</g>
<!-- d6 -->
<!-- d7 -->
<!-- d6&#45;&gt;d7 -->
<g id="edge33" class="edge">
<title>d6&#45;&gt;d7</title>
<path fill="none" stroke="green" d="M953.5,-684C965.44,-684 1027.8,-684 1054.43,-684"/>
<polygon fill="green" stroke="green" points="1054.45,-687.5 1064.45,-684 1054.45,-680.5 1054.45,-687.5"/>
<text text-anchor="middle" x="1009" y="-690.8" font-family="Times,serif" font-size="14.00">Memory flow</text>
</g>
</g>
</svg>
