<?xml version="1.0" encoding="UTF-8" standalone="no"?>
<!DOCTYPE svg PUBLIC "-//W3C//DTD SVG 1.1//EN"
 "http://www.w3.org/Graphics/SVG/1.1/DTD/svg11.dtd">
<!-- Generated by graphviz version 2.43.0 (0)
 -->
<!-- Title: debugoutput Pages: 1 -->
<svg width="619pt" height="578pt"
 viewBox="0.00 0.00 618.50 577.80" xmlns="http://www.w3.org/2000/svg" xmlns:xlink="http://www.w3.org/1999/xlink">
<g id="graph0" class="graph" transform="scale(1 1) rotate(0) translate(4 573.8)">
<title>debugoutput</title>
<polygon fill="white" stroke="transparent" points="-4,4 -4,-573.8 614.5,-573.8 614.5,4 -4,4"/>
<g id="clust1" class="cluster">
<title>cluster_000</title>
<polygon fill="none" stroke="black" points="266.5,-519.2 266.5,-561.8 602.5,-561.8 602.5,-519.2 266.5,-519.2"/>
<text text-anchor="middle" x="434.5" y="-546.6" font-family="Times,serif" font-size="14.00">Legend</text>
</g>
<!-- node0 -->
<g id="node1" class="node">
<title>node0</title>
<polygon fill="lightgrey" stroke="black" points="256.5,-547 90.5,-547 90.5,-511 256.5,-511 256.5,-547"/>
<text text-anchor="middle" x="173.5" y="-525.3" font-family="Times,serif" font-size="14.00">#0 Method Order : 0</text>
</g>
<!-- node1 -->
<g id="node2" class="node">
<title>node1</title>
<polygon fill="lightgrey" stroke="black" points="267.5,-474 79.5,-474 79.5,-438 267.5,-438 267.5,-474"/>
<text text-anchor="middle" x="173.5" y="-452.3" font-family="Times,serif" font-size="14.00">#1 LabelNode Order : 1</text>
</g>
<!-- node0&#45;&gt;node1 -->
<g id="edge2" class="edge">
<title>node0&#45;&gt;node1</title>
<path fill="none" stroke="red" d="M167.62,-510.81C166.78,-502.79 166.55,-493.05 166.92,-484.07"/>
<polygon fill="red" stroke="red" points="170.42,-484.25 167.64,-474.03 163.44,-483.75 170.42,-484.25"/>
</g>
<!-- node1&#45;&gt;node0 -->
<g id="edge1" class="edge">
<title>node1&#45;&gt;node0</title>
<path fill="none" stroke="green" stroke-width="2" d="M179.36,-474.03C180.21,-482.03 180.45,-491.77 180.09,-500.75"/>
<polygon fill="green" stroke="green" stroke-width="2" points="176.59,-500.59 179.38,-510.81 183.57,-501.08 176.59,-500.59"/>
</g>
<!-- node2 -->
<g id="node3" class="node">
<title>node2</title>
<polygon fill="lightgrey" stroke="black" points="260.5,-401 86.5,-401 86.5,-365 260.5,-365 260.5,-401"/>
<text text-anchor="middle" x="173.5" y="-379.3" font-family="Times,serif" font-size="14.00">#2 ClassInit Order : 2</text>
</g>
<!-- node1&#45;&gt;node2 -->
<g id="edge4" class="edge">
<title>node1&#45;&gt;node2</title>
<path fill="none" stroke="red" d="M167.62,-437.81C166.78,-429.79 166.55,-420.05 166.92,-411.07"/>
<polygon fill="red" stroke="red" points="170.42,-411.25 167.64,-401.03 163.44,-410.75 170.42,-411.25"/>
</g>
<!-- node2&#45;&gt;node1 -->
<g id="edge3" class="edge">
<title>node2&#45;&gt;node1</title>
<path fill="none" stroke="green" stroke-width="2" d="M179.36,-401.03C180.21,-409.03 180.45,-418.77 180.09,-427.75"/>
<polygon fill="green" stroke="green" stroke-width="2" points="176.59,-427.59 179.38,-437.81 183.57,-428.08 176.59,-427.59"/>
</g>
<!-- node3 -->
<g id="node4" class="node">
<title>node3</title>
<polygon fill="lightgrey" stroke="black" points="333,-328 14,-328 14,-292 333,-292 333,-328"/>
<text text-anchor="middle" x="173.5" y="-306.3" font-family="Times,serif" font-size="14.00">#3 Invoke special &lt;init&gt; : ()void Order : 3</text>
</g>
<!-- node2&#45;&gt;node3 -->
<g id="edge6" class="edge">
<title>node2&#45;&gt;node3</title>
<path fill="none" stroke="red" d="M167.62,-364.81C166.78,-356.79 166.55,-347.05 166.92,-338.07"/>
<polygon fill="red" stroke="red" points="170.42,-338.25 167.64,-328.03 163.44,-337.75 170.42,-338.25"/>
</g>
<!-- node3&#45;&gt;node2 -->
<g id="edge5" class="edge">
<title>node3&#45;&gt;node2</title>
<path fill="none" stroke="green" stroke-width="2" d="M179.36,-328.03C180.21,-336.03 180.45,-345.77 180.09,-354.75"/>
<polygon fill="green" stroke="green" stroke-width="2" points="176.59,-354.59 179.38,-364.81 183.57,-355.08 176.59,-354.59"/>
</g>
<!-- node4 -->
<g id="node5" class="node">
<title>node4</title>
<polygon fill="lightgrey" stroke="black" points="260.5,-255 86.5,-255 86.5,-219 260.5,-219 260.5,-255"/>
<text text-anchor="middle" x="173.5" y="-233.3" font-family="Times,serif" font-size="14.00">#4 ClassInit Order : 4</text>
</g>
<!-- node3&#45;&gt;node4 -->
<g id="edge8" class="edge">
<title>node3&#45;&gt;node4</title>
<path fill="none" stroke="red" d="M167.62,-291.81C166.78,-283.79 166.55,-274.05 166.92,-265.07"/>
<polygon fill="red" stroke="red" points="170.42,-265.25 167.64,-255.03 163.44,-264.75 170.42,-265.25"/>
</g>
<!-- node4&#45;&gt;node3 -->
<g id="edge7" class="edge">
<title>node4&#45;&gt;node3</title>
<path fill="none" stroke="green" stroke-width="2" d="M179.36,-255.03C180.21,-263.03 180.45,-272.77 180.09,-281.75"/>
<polygon fill="green" stroke="green" stroke-width="2" points="176.59,-281.59 179.38,-291.81 183.57,-282.08 176.59,-281.59"/>
</g>
<!-- node5 -->
<g id="node6" class="node">
<title>node5</title>
<polygon fill="lightgrey" stroke="black" points="333,-182 14,-182 14,-146 333,-146 333,-182"/>
<text text-anchor="middle" x="173.5" y="-160.3" font-family="Times,serif" font-size="14.00">#5 Invoke special &lt;init&gt; : ()void Order : 5</text>
</g>
<!-- node4&#45;&gt;node5 -->
<g id="edge10" class="edge">
<title>node4&#45;&gt;node5</title>
<path fill="none" stroke="red" d="M167.62,-218.81C166.78,-210.79 166.55,-201.05 166.92,-192.07"/>
<polygon fill="red" stroke="red" points="170.42,-192.25 167.64,-182.03 163.44,-191.75 170.42,-192.25"/>
</g>
<!-- node5&#45;&gt;node4 -->
<g id="edge9" class="edge">
<title>node5&#45;&gt;node4</title>
<path fill="none" stroke="green" stroke-width="2" d="M179.36,-182.03C180.21,-190.03 180.45,-199.77 180.09,-208.75"/>
<polygon fill="green" stroke="green" stroke-width="2" points="176.59,-208.59 179.38,-218.81 183.57,-209.08 176.59,-208.59"/>
</g>
<!-- node6 -->
<g id="node7" class="node">
<title>node6</title>
<polygon fill="lightgrey" stroke="black" points="347,-109 0,-109 0,-73 347,-73 347,-109"/>
<text text-anchor="middle" x="173.5" y="-87.3" font-family="Times,serif" font-size="14.00">#6 PutField : boolean_field : boolean Order : 6</text>
</g>
<!-- node5&#45;&gt;node6 -->
<g id="edge12" class="edge">
<title>node5&#45;&gt;node6</title>
<path fill="none" stroke="red" d="M167.62,-145.81C166.78,-137.79 166.55,-128.05 166.92,-119.07"/>
<polygon fill="red" stroke="red" points="170.42,-119.25 167.64,-109.03 163.44,-118.75 170.42,-119.25"/>
</g>
<!-- node6&#45;&gt;node5 -->
<g id="edge11" class="edge">
<title>node6&#45;&gt;node5</title>
<path fill="none" stroke="green" stroke-width="2" d="M179.36,-109.03C180.21,-117.03 180.45,-126.77 180.09,-135.75"/>
<polygon fill="green" stroke="green" stroke-width="2" points="176.59,-135.59 179.38,-145.81 183.57,-136.08 176.59,-135.59"/>
</g>
<!-- node7 -->
<g id="node8" class="node">
<title>node7</title>
<polygon fill="lightgrey" stroke="black" points="254,-36 93,-36 93,0 254,0 254,-36"/>
<text text-anchor="middle" x="173.5" y="-14.3" font-family="Times,serif" font-size="14.00">#7 Return Order : 7</text>
</g>
<!-- node6&#45;&gt;node7 -->
<g id="edge14" class="edge">
<title>node6&#45;&gt;node7</title>
<path fill="none" stroke="red" d="M167.62,-72.81C166.78,-64.79 166.55,-55.05 166.92,-46.07"/>
<polygon fill="red" stroke="red" points="170.42,-46.25 167.64,-36.03 163.44,-45.75 170.42,-46.25"/>
</g>
<!-- node7&#45;&gt;node6 -->
<g id="edge13" class="edge">
<title>node7&#45;&gt;node6</title>
<path fill="none" stroke="green" stroke-width="2" d="M179.36,-36.03C180.21,-44.03 180.45,-53.77 180.09,-62.75"/>
<polygon fill="green" stroke="green" stroke-width="2" points="176.59,-62.59 179.38,-72.81 183.57,-63.08 176.59,-62.59"/>
</g>
<!-- c0 -->
<!-- c1 -->
<!-- c0&#45;&gt;c1 -->
<g id="edge15" class="edge">
<title>c0&#45;&gt;c1</title>
<path fill="none" stroke="red" d="M485.39,-529C496.61,-529 554.74,-529 580.36,-529"/>
<polygon fill="red" stroke="red" points="580.56,-532.5 590.56,-529 580.56,-525.5 580.56,-532.5"/>
<text text-anchor="middle" x="538" y="-535.8" font-family="Times,serif" font-size="14.00">Control flow</text>
</g>
<!-- c2 -->
<!-- c3 -->
<!-- c2&#45;&gt;c3 -->
<g id="edge16" class="edge">
<title>c2&#45;&gt;c3</title>
<path fill="none" stroke="red" stroke-dasharray="5,2" d="M278.58,-529C295.55,-529 411.71,-529 449.58,-529"/>
<polygon fill="red" stroke="red" points="449.67,-532.5 459.67,-529 449.67,-525.5 449.67,-532.5"/>
<text text-anchor="middle" x="369" y="-535.8" font-family="Times,serif" font-size="14.00">Control flow back edge</text>
</g>
</g>
</svg>
