<?xml version="1.0" encoding="UTF-8" standalone="no"?>
<!DOCTYPE svg PUBLIC "-//W3C//DTD SVG 1.1//EN"
 "http://www.w3.org/Graphics/SVG/1.1/DTD/svg11.dtd">
<!-- Generated by graphviz version 2.43.0 (0)
 -->
<!-- Title: debugoutput Pages: 1 -->
<svg width="1977pt" height="724pt"
 viewBox="0.00 0.00 1977.00 723.80" xmlns="http://www.w3.org/2000/svg" xmlns:xlink="http://www.w3.org/1999/xlink">
<g id="graph0" class="graph" transform="scale(1 1) rotate(0) translate(4 719.8)">
<title>debugoutput</title>
<polygon fill="white" stroke="transparent" points="-4,4 -4,-719.8 1973,-719.8 1973,4 -4,4"/>
<g id="clust1" class="cluster">
<title>cluster_000</title>
<polygon fill="none" stroke="black" points="985,-665.2 985,-707.8 1961,-707.8 1961,-665.2 985,-665.2"/>
<text text-anchor="middle" x="1473" y="-692.6" font-family="Times,serif" font-size="14.00">Legend</text>
</g>
<!-- node0 -->
<g id="node1" class="node">
<title>node0</title>
<polygon fill="lightgrey" stroke="black" points="975,-693 809,-693 809,-657 975,-657 975,-693"/>
<text text-anchor="middle" x="892" y="-671.3" font-family="Times,serif" font-size="14.00">#0 Method Order : 0</text>
</g>
<!-- node1 -->
<g id="node2" class="node">
<title>node1</title>
<polygon fill="lightgrey" stroke="black" points="266,-620 0,-620 0,-584 266,-584 266,-620"/>
<text text-anchor="middle" x="133" y="-598.3" font-family="Times,serif" font-size="14.00">#1 this : FieldAccessTest Order : 4</text>
</g>
<!-- node0&#45;&gt;node1 -->
<g id="edge2" class="edge">
<title>node0&#45;&gt;node1</title>
<path fill="none" stroke="black" d="M808.68,-668.01C690.61,-658.96 467.86,-640.74 276.25,-621.06"/>
<polygon fill="black" stroke="black" points="276.59,-617.57 266.28,-620.03 275.87,-624.54 276.59,-617.57"/>
<text text-anchor="middle" x="285.18" y="-609.78" font-family="Times,serif" font-size="14.00">*0</text>
</g>
<!-- node2 -->
<g id="node3" class="node">
<title>node2</title>
<polygon fill="lightgrey" stroke="black" points="986,-620 798,-620 798,-584 986,-584 986,-620"/>
<text text-anchor="middle" x="892" y="-598.3" font-family="Times,serif" font-size="14.00">#2 LabelNode Order : 3</text>
</g>
<!-- node0&#45;&gt;node2 -->
<g id="edge4" class="edge">
<title>node0&#45;&gt;node2</title>
<path fill="none" stroke="red" d="M886.12,-656.81C885.28,-648.79 885.05,-639.05 885.42,-630.07"/>
<polygon fill="red" stroke="red" points="888.92,-630.25 886.14,-620.03 881.94,-629.75 888.92,-630.25"/>
</g>
<!-- node3 -->
<g id="node4" class="node">
<title>node3</title>
<polygon fill="lightgreen" stroke="black" points="742.18,-594.54 742.18,-609.46 607.93,-620 418.07,-620 283.82,-609.46 283.82,-594.54 418.07,-584 607.93,-584 742.18,-594.54"/>
<text text-anchor="middle" x="513" y="-598.3" font-family="Times,serif" font-size="14.00">#3 Class FieldAccessTest$Source Order : 2</text>
</g>
<!-- node0&#45;&gt;node3 -->
<g id="edge6" class="edge">
<title>node0&#45;&gt;node3</title>
<path fill="none" stroke="black" stroke-dasharray="1,5" d="M808.82,-659.46C749.58,-648.62 669.89,-633.73 608.13,-621.95"/>
<polygon fill="black" stroke="black" points="608.46,-618.46 597.98,-620.02 607.15,-625.33 608.46,-618.46"/>
</g>
<!-- node4 -->
<g id="node5" class="node">
<title>node4</title>
<polygon fill="lightgreen" stroke="black" points="1509.61,-594.54 1509.61,-609.46 1361.63,-620 1152.37,-620 1004.39,-609.46 1004.39,-594.54 1152.37,-584 1361.63,-584 1509.61,-594.54"/>
<text text-anchor="middle" x="1257" y="-598.3" font-family="Times,serif" font-size="14.00">#4 Class FieldAccessTest$Destination Order : 1</text>
</g>
<!-- node0&#45;&gt;node4 -->
<g id="edge8" class="edge">
<title>node0&#45;&gt;node4</title>
<path fill="none" stroke="black" stroke-dasharray="1,5" d="M973.57,-656.99C1026.66,-646.45 1096.35,-632.88 1153.35,-621.98"/>
<polygon fill="black" stroke="black" points="1154.31,-625.36 1163.47,-620.05 1153,-618.49 1154.31,-625.36"/>
</g>
<!-- node5 -->
<g id="node6" class="node">
<title>node5</title>
<polygon fill="lightgrey" stroke="black" points="1223,-547 1049,-547 1049,-511 1223,-511 1223,-547"/>
<text text-anchor="middle" x="1136" y="-525.3" font-family="Times,serif" font-size="14.00">#5 ClassInit Order : 5</text>
</g>
<!-- node0&#45;&gt;node5 -->
<g id="edge12" class="edge">
<title>node0&#45;&gt;node5</title>
<path fill="none" stroke="green" d="M972.35,-656.96C1033.13,-649.37 1469.19,-663.71 1510,-620 1520.92,-608.3 1520.49,-596.08 1510,-584 1474.53,-543.18 1332.11,-532.35 1233.58,-529.93"/>
<polygon fill="green" stroke="green" points="1233.37,-526.42 1223.29,-529.7 1233.21,-533.42 1233.37,-526.42"/>
</g>
<!-- node1&#45;&gt;node0 -->
<g id="edge1" class="edge">
<title>node1&#45;&gt;node0</title>
<path fill="none" stroke="fuchsia" stroke-width="2" d="M266.26,-618.11C272.26,-618.76 278.2,-619.4 284,-620 466.26,-638.88 679.27,-656.55 798.67,-666.26"/>
<polygon fill="fuchsia" stroke="fuchsia" stroke-width="2" points="798.62,-669.77 808.87,-667.09 799.19,-662.79 798.62,-669.77"/>
</g>
<!-- node2&#45;&gt;node0 -->
<g id="edge3" class="edge">
<title>node2&#45;&gt;node0</title>
<path fill="none" stroke="fuchsia" stroke-width="2" d="M897.86,-620.03C898.71,-628.03 898.95,-637.77 898.59,-646.75"/>
<polygon fill="fuchsia" stroke="fuchsia" stroke-width="2" points="895.09,-646.59 897.88,-656.81 902.07,-647.08 895.09,-646.59"/>
</g>
<!-- node2&#45;&gt;node5 -->
<g id="edge11" class="edge">
<title>node2&#45;&gt;node5</title>
<path fill="none" stroke="red" d="M950.44,-583.99C985.65,-573.75 1030.64,-560.66 1067.51,-549.93"/>
<polygon fill="red" stroke="red" points="1068.56,-553.27 1077.19,-547.11 1066.61,-546.55 1068.56,-553.27"/>
</g>
<!-- node3&#45;&gt;node0 -->
<g id="edge5" class="edge">
<title>node3&#45;&gt;node0</title>
<path fill="none" stroke="fuchsia" stroke-width="2" d="M609.12,-619.91C667.42,-630.62 741.41,-644.47 799.12,-655.47"/>
<polygon fill="fuchsia" stroke="fuchsia" stroke-width="2" points="798.48,-658.92 808.96,-657.35 799.8,-652.04 798.48,-658.92"/>
</g>
<!-- node8 -->
<g id="node9" class="node">
<title>node8</title>
<polygon fill="lightgrey" stroke="black" points="861,-328 687,-328 687,-292 861,-292 861,-328"/>
<text text-anchor="middle" x="774" y="-306.3" font-family="Times,serif" font-size="14.00">#8 ClassInit Order : 8</text>
</g>
<!-- node3&#45;&gt;node8 -->
<g id="edge21" class="edge">
<title>node3&#45;&gt;node8</title>
<path fill="none" stroke="black" d="M575.46,-583.89C599.81,-573.08 622,-556.08 622,-530 622,-530 622,-530 622,-382 622,-351.64 647.19,-334.24 677.07,-324.27"/>
<polygon fill="black" stroke="black" points="678.35,-327.54 686.9,-321.29 676.32,-320.84 678.35,-327.54"/>
<text text-anchor="middle" x="672.01" y="-330.93" font-family="Times,serif" font-size="14.00">*0</text>
</g>
<!-- node4&#45;&gt;node0 -->
<g id="edge7" class="edge">
<title>node4&#45;&gt;node0</title>
<path fill="none" stroke="fuchsia" stroke-width="2" d="M1175.32,-620.03C1118.9,-631.23 1043.79,-645.84 985.06,-657.04"/>
<polygon fill="fuchsia" stroke="fuchsia" stroke-width="2" points="984.21,-653.64 975.04,-658.94 985.52,-660.51 984.21,-653.64"/>
</g>
<!-- node4&#45;&gt;node5 -->
<g id="edge10" class="edge">
<title>node4&#45;&gt;node5</title>
<path fill="none" stroke="black" d="M1228.02,-583.99C1211.82,-574.49 1191.45,-562.54 1173.99,-552.29"/>
<polygon fill="black" stroke="black" points="1175.56,-549.16 1165.17,-547.11 1172.02,-555.19 1175.56,-549.16"/>
<text text-anchor="middle" x="1185.08" y="-545.3" font-family="Times,serif" font-size="14.00">*0</text>
</g>
<!-- node5&#45;&gt;node0 -->
<g id="edge9" class="edge">
<title>node5&#45;&gt;node0</title>
<path fill="none" stroke="fuchsia" stroke-width="2" d="M1223.09,-529.5C1326.52,-530.8 1489.68,-539.9 1528,-584 1538.49,-596.08 1538.92,-608.3 1528,-620 1487.11,-663.8 1049.42,-649.31 990,-657 988.49,-657.2 986.96,-657.4 985.43,-657.61"/>
<polygon fill="fuchsia" stroke="fuchsia" stroke-width="2" points="984.55,-654.21 975.18,-659.14 985.58,-661.13 984.55,-654.21"/>
</g>
<!-- node6 -->
<g id="node7" class="node">
<title>node6</title>
<polygon fill="orange" stroke="black" points="1236.7,-448.54 1236.7,-463.46 1177.71,-474 1094.29,-474 1035.3,-463.46 1035.3,-448.54 1094.29,-438 1177.71,-438 1236.7,-448.54"/>
<text text-anchor="middle" x="1136" y="-452.3" font-family="Times,serif" font-size="14.00">#6 New Order : 6</text>
</g>
<!-- node5&#45;&gt;node6 -->
<g id="edge14" class="edge">
<title>node5&#45;&gt;node6</title>
<path fill="none" stroke="black" d="M1124.24,-510.81C1122.56,-502.79 1122.1,-493.05 1122.84,-484.07"/>
<polygon fill="black" stroke="black" points="1126.33,-484.42 1124.28,-474.03 1119.4,-483.43 1126.33,-484.42"/>
<text text-anchor="middle" x="1130.08" y="-489.47" font-family="Times,serif" font-size="14.00">*0</text>
</g>
<!-- node5&#45;&gt;node6 -->
<g id="edge15" class="edge">
<title>node5&#45;&gt;node6</title>
<path fill="none" stroke="green" d="M1147.76,-510.81C1149.44,-502.79 1149.9,-493.05 1149.16,-484.07"/>
<polygon fill="green" stroke="green" points="1152.6,-483.43 1147.72,-474.03 1145.67,-484.42 1152.6,-483.43"/>
</g>
<!-- node7 -->
<g id="node8" class="node">
<title>node7</title>
<polygon fill="lightgrey" stroke="black" points="1157.5,-401 838.5,-401 838.5,-365 1157.5,-365 1157.5,-401"/>
<text text-anchor="middle" x="998" y="-379.3" font-family="Times,serif" font-size="14.00">#7 Invoke special &lt;init&gt; : ()void Order : 7</text>
</g>
<!-- node5&#45;&gt;node7 -->
<g id="edge18" class="edge">
<title>node5&#45;&gt;node7</title>
<path fill="none" stroke="red" d="M1071.66,-510.91C1051.64,-502.52 1031.18,-490.56 1017,-474 1001.91,-456.38 994.95,-430.68 993.27,-411.25"/>
<polygon fill="red" stroke="red" points="996.76,-411.04 992.86,-401.19 989.77,-411.32 996.76,-411.04"/>
</g>
<!-- node6&#45;&gt;node5 -->
<g id="edge13" class="edge">
<title>node6&#45;&gt;node5</title>
<path fill="none" stroke="fuchsia" stroke-width="2" d="M1136,-474.03C1136,-482.03 1136,-491.77 1136,-500.75"/>
<polygon fill="fuchsia" stroke="fuchsia" stroke-width="2" points="1132.5,-500.81 1136,-510.81 1139.5,-500.81 1132.5,-500.81"/>
</g>
<!-- node6&#45;&gt;node7 -->
<g id="edge17" class="edge">
<title>node6&#45;&gt;node7</title>
<path fill="none" stroke="black" d="M1097.09,-437.99C1077.34,-428.36 1053.58,-416.21 1034.22,-405.87"/>
<polygon fill="black" stroke="black" points="1035.86,-402.78 1025.39,-401.11 1032.54,-408.94 1035.86,-402.78"/>
<text text-anchor="middle" x="1045.36" y="-398.57" font-family="Times,serif" font-size="14.00">*0</text>
</g>
<!-- node6&#45;&gt;node7 -->
<g id="edge19" class="edge">
<title>node6&#45;&gt;node7</title>
<path fill="none" stroke="green" d="M1108.8,-437.99C1090.94,-428.27 1067.2,-415.99 1046.23,-405.59"/>
<polygon fill="green" stroke="green" points="1047.65,-402.39 1037.13,-401.11 1044.56,-408.67 1047.65,-402.39"/>
</g>
<!-- node12 -->
<g id="node13" class="node">
<title>node12</title>
<polygon fill="lightgrey" stroke="black" points="1269.5,-109 904.5,-109 904.5,-73 1269.5,-73 1269.5,-109"/>
<text text-anchor="middle" x="1087" y="-87.3" font-family="Times,serif" font-size="14.00">#12 PutField : boolean_field : boolean Order : 12</text>
</g>
<!-- node6&#45;&gt;node12 -->
<g id="edge35" class="edge">
<title>node6&#45;&gt;node12</title>
<path fill="none" stroke="black" d="M1157.2,-437.76C1170.83,-424.64 1186,-405.26 1186,-384 1186,-384 1186,-384 1186,-163 1186,-140.71 1169.22,-124.74 1149.47,-113.66"/>
<polygon fill="black" stroke="black" points="1151.05,-110.53 1140.56,-109.06 1147.84,-116.75 1151.05,-110.53"/>
<text text-anchor="middle" x="1160.54" y="-106.16" font-family="Times,serif" font-size="14.00">*0</text>
</g>
<!-- node7&#45;&gt;node5 -->
<g id="edge16" class="edge">
<title>node7&#45;&gt;node5</title>
<path fill="none" stroke="fuchsia" stroke-width="2" d="M1005.77,-401.19C1010.65,-420.88 1017.12,-453.12 1035,-474 1046.85,-487.85 1063.1,-498.47 1079.12,-506.49"/>
<polygon fill="fuchsia" stroke="fuchsia" stroke-width="2" points="1077.96,-509.81 1088.5,-510.91 1080.95,-503.48 1077.96,-509.81"/>
</g>
<!-- node7&#45;&gt;node8 -->
<g id="edge22" class="edge">
<title>node7&#45;&gt;node8</title>
<path fill="none" stroke="red" d="M938.49,-364.99C905.51,-354.88 864.74,-341.99 832,-331.34"/>
<polygon fill="red" stroke="red" points="832.71,-327.89 822.12,-328.11 830.54,-334.55 832.71,-327.89"/>
</g>
<!-- node7&#45;&gt;node8 -->
<g id="edge23" class="edge">
<title>node7&#45;&gt;node8</title>
<path fill="none" stroke="green" d="M950.21,-364.99C919.11,-354.79 878.11,-341.77 843.46,-331.07"/>
<polygon fill="green" stroke="green" points="844.45,-327.71 833.86,-328.11 842.39,-334.4 844.45,-327.71"/>
</g>
<!-- node8&#45;&gt;node0 -->
<g id="edge20" class="edge">
<title>node8&#45;&gt;node0</title>
<path fill="none" stroke="fuchsia" stroke-width="2" d="M772.49,-328.2C771.36,-342.57 770,-363.6 770,-382 770,-603 770,-603 770,-603 770,-626.27 786.78,-642.04 807.89,-652.68"/>
<polygon fill="fuchsia" stroke="fuchsia" stroke-width="2" points="806.62,-655.95 817.17,-656.93 809.54,-649.58 806.62,-655.95"/>
</g>
<!-- node9 -->
<g id="node10" class="node">
<title>node9</title>
<polygon fill="orange" stroke="black" points="874.7,-229.54 874.7,-244.46 815.71,-255 732.29,-255 673.3,-244.46 673.3,-229.54 732.29,-219 815.71,-219 874.7,-229.54"/>
<text text-anchor="middle" x="774" y="-233.3" font-family="Times,serif" font-size="14.00">#9 New Order : 9</text>
</g>
<!-- node8&#45;&gt;node9 -->
<g id="edge25" class="edge">
<title>node8&#45;&gt;node9</title>
<path fill="none" stroke="black" d="M762.24,-291.81C760.56,-283.79 760.1,-274.05 760.84,-265.07"/>
<polygon fill="black" stroke="black" points="764.33,-265.42 762.28,-255.03 757.4,-264.43 764.33,-265.42"/>
<text text-anchor="middle" x="768.08" y="-270.47" font-family="Times,serif" font-size="14.00">*0</text>
</g>
<!-- node8&#45;&gt;node9 -->
<g id="edge26" class="edge">
<title>node8&#45;&gt;node9</title>
<path fill="none" stroke="green" d="M785.76,-291.81C787.44,-283.79 787.9,-274.05 787.16,-265.07"/>
<polygon fill="green" stroke="green" points="790.6,-264.43 785.72,-255.03 783.67,-265.42 790.6,-264.43"/>
</g>
<!-- node10 -->
<g id="node11" class="node">
<title>node10</title>
<polygon fill="lightgrey" stroke="black" points="1157.5,-182 820.5,-182 820.5,-146 1157.5,-146 1157.5,-182"/>
<text text-anchor="middle" x="989" y="-160.3" font-family="Times,serif" font-size="14.00">#10 Invoke special &lt;init&gt; : ()void Order : 10</text>
</g>
<!-- node8&#45;&gt;node10 -->
<g id="edge29" class="edge">
<title>node8&#45;&gt;node10</title>
<path fill="none" stroke="red" d="M807.02,-291.84C827.33,-282.21 853.33,-269.28 875,-255 904.82,-235.36 935.43,-208.16 957.62,-188.81"/>
<polygon fill="red" stroke="red" points="960.13,-191.27 965.39,-182.07 955.54,-185.98 960.13,-191.27"/>
</g>
<!-- node9&#45;&gt;node8 -->
<g id="edge24" class="edge">
<title>node9&#45;&gt;node8</title>
<path fill="none" stroke="fuchsia" stroke-width="2" d="M774,-255.03C774,-263.03 774,-272.77 774,-281.75"/>
<polygon fill="fuchsia" stroke="fuchsia" stroke-width="2" points="770.5,-281.81 774,-291.81 777.5,-281.81 770.5,-281.81"/>
</g>
<!-- node9&#45;&gt;node10 -->
<g id="edge28" class="edge">
<title>node9&#45;&gt;node10</title>
<path fill="none" stroke="black" d="M818.33,-219.44C848.15,-209.22 887.94,-196.04 921.64,-185.21"/>
<polygon fill="black" stroke="black" points="922.97,-188.46 931.42,-182.08 920.83,-181.79 922.97,-188.46"/>
<text text-anchor="middle" x="916.74" y="-191.96" font-family="Times,serif" font-size="14.00">*0</text>
</g>
<!-- node9&#45;&gt;node10 -->
<g id="edge30" class="edge">
<title>node9&#45;&gt;node10</title>
<path fill="none" stroke="green" d="M825.78,-220.77C858.37,-210.42 900.34,-196.62 933.59,-185.34"/>
<polygon fill="green" stroke="green" points="934.83,-188.61 943.16,-182.07 932.57,-181.99 934.83,-188.61"/>
</g>
<!-- node11 -->
<g id="node12" class="node">
<title>node11</title>
<polygon fill="orange" stroke="black" points="785.46,-156.54 785.46,-171.46 634.64,-182 421.36,-182 270.54,-171.46 270.54,-156.54 421.36,-146 634.64,-146 785.46,-156.54"/>
<text text-anchor="middle" x="528" y="-160.3" font-family="Times,serif" font-size="14.00">#11 GetField : boolean_field : boolean Order : 11</text>
</g>
<!-- node9&#45;&gt;node11 -->
<g id="edge32" class="edge">
<title>node9&#45;&gt;node11</title>
<path fill="none" stroke="black" d="M721.53,-220.86C685.24,-210.38 636.57,-196.33 597.12,-184.95"/>
<polygon fill="black" stroke="black" points="597.88,-181.53 587.3,-182.11 595.94,-188.25 597.88,-181.53"/>
<text text-anchor="middle" x="607.06" y="-175.32" font-family="Times,serif" font-size="14.00">*0</text>
</g>
<!-- node10&#45;&gt;node8 -->
<g id="edge27" class="edge">
<title>node10&#45;&gt;node8</title>
<path fill="none" stroke="fuchsia" stroke-width="2" d="M978.39,-182.07C960.96,-201.36 926.48,-232.94 893,-255 874.21,-267.38 852.18,-278.74 832.15,-287.82"/>
<polygon fill="fuchsia" stroke="fuchsia" stroke-width="2" points="830.53,-284.71 822.8,-291.96 833.36,-291.11 830.53,-284.71"/>
</g>
<!-- node10&#45;&gt;node11 -->
<g id="edge33" class="edge">
<title>node10&#45;&gt;node11</title>
<path fill="none" stroke="green" d="M820.49,-164C812.2,-164 803.91,-164 795.62,-164"/>
<polygon fill="green" stroke="green" points="795.51,-160.5 785.51,-164 795.51,-167.5 795.51,-160.5"/>
</g>
<!-- node10&#45;&gt;node12 -->
<g id="edge38" class="edge">
<title>node10&#45;&gt;node12</title>
<path fill="none" stroke="red" d="M1012.72,-145.81C1025.48,-136.57 1041.39,-125.04 1055.21,-115.03"/>
<polygon fill="red" stroke="red" points="1057.45,-117.73 1063.5,-109.03 1053.34,-112.06 1057.45,-117.73"/>
</g>
<!-- node11&#45;&gt;node8 -->
<g id="edge31" class="edge">
<title>node11&#45;&gt;node8</title>
<path fill="none" stroke="fuchsia" stroke-width="2" d="M551.97,-182.23C578.69,-201.1 623.47,-231.77 664,-255 684.24,-266.6 707.31,-278.17 727.09,-287.6"/>
<polygon fill="fuchsia" stroke="fuchsia" stroke-width="2" points="725.68,-290.81 736.21,-291.92 728.67,-284.48 725.68,-290.81"/>
</g>
<!-- node11&#45;&gt;node12 -->
<g id="edge36" class="edge">
<title>node11&#45;&gt;node12</title>
<path fill="none" stroke="black" d="M648.74,-146.93C733.18,-136.05 846.51,-121.65 936.78,-110.32"/>
<polygon fill="black" stroke="black" points="937.35,-113.78 946.83,-109.06 936.47,-106.83 937.35,-113.78"/>
<text text-anchor="middle" x="929.9" y="-116" font-family="Times,serif" font-size="14.00">*1</text>
</g>
<!-- node11&#45;&gt;node12 -->
<g id="edge37" class="edge">
<title>node11&#45;&gt;node12</title>
<path fill="none" stroke="green" d="M656.02,-147.46C743.42,-136.53 859.1,-121.85 948.63,-110.34"/>
<polygon fill="green" stroke="green" points="949.11,-113.8 958.58,-109.06 948.21,-106.86 949.11,-113.8"/>
</g>
<!-- node12&#45;&gt;node0 -->
<g id="edge34" class="edge">
<title>node12&#45;&gt;node0</title>
<path fill="none" stroke="fuchsia" stroke-width="2" d="M1269.68,-100.89C1414.97,-110.5 1594,-129.2 1594,-163 1594,-603 1594,-603 1594,-603 1594,-668.84 1088.65,-650.86 985.41,-656.88"/>
<polygon fill="fuchsia" stroke="fuchsia" stroke-width="2" points="985.01,-653.4 975.32,-657.68 985.57,-660.37 985.01,-653.4"/>
</g>
<!-- node13 -->
<g id="node14" class="node">
<title>node13</title>
<polygon fill="lightgrey" stroke="black" points="1176.5,-36 997.5,-36 997.5,0 1176.5,0 1176.5,-36"/>
<text text-anchor="middle" x="1087" y="-14.3" font-family="Times,serif" font-size="14.00">#13 Return Order : 13</text>
</g>
<!-- node12&#45;&gt;node13 -->
<g id="edge40" class="edge">
<title>node12&#45;&gt;node13</title>
<path fill="none" stroke="red" d="M1075.24,-72.81C1073.56,-64.79 1073.1,-55.05 1073.84,-46.07"/>
<polygon fill="red" stroke="red" points="1077.33,-46.42 1075.28,-36.03 1070.4,-45.43 1077.33,-46.42"/>
</g>
<!-- node12&#45;&gt;node13 -->
<g id="edge41" class="edge">
<title>node12&#45;&gt;node13</title>
<path fill="none" stroke="green" d="M1098.76,-72.81C1100.44,-64.79 1100.9,-55.05 1100.16,-46.07"/>
<polygon fill="green" stroke="green" points="1103.6,-45.43 1098.72,-36.03 1096.67,-46.42 1103.6,-45.43"/>
</g>
<!-- node13&#45;&gt;node12 -->
<g id="edge39" class="edge">
<title>node13&#45;&gt;node12</title>
<path fill="none" stroke="fuchsia" stroke-width="2" d="M1087,-36.03C1087,-44.03 1087,-53.77 1087,-62.75"/>
<polygon fill="fuchsia" stroke="fuchsia" stroke-width="2" points="1083.5,-62.81 1087,-72.81 1090.5,-62.81 1083.5,-62.81"/>
</g>
<!-- c0 -->
<!-- c1 -->
<!-- c0&#45;&gt;c1 -->
<g id="edge42" class="edge">
<title>c0&#45;&gt;c1</title>
<path fill="none" stroke="red" d="M1843.89,-675C1855.11,-675 1913.24,-675 1938.86,-675"/>
<polygon fill="red" stroke="red" points="1939.06,-678.5 1949.06,-675 1939.06,-671.5 1939.06,-678.5"/>
<text text-anchor="middle" x="1896.5" y="-681.8" font-family="Times,serif" font-size="14.00">Control flow</text>
</g>
<!-- c2 -->
<!-- c3 -->
<!-- c2&#45;&gt;c3 -->
<g id="edge43" class="edge">
<title>c2&#45;&gt;c3</title>
<path fill="none" stroke="red" stroke-dasharray="5,2" d="M1637.08,-675C1654.05,-675 1770.21,-675 1808.08,-675"/>
<polygon fill="red" stroke="red" points="1808.17,-678.5 1818.17,-675 1808.17,-671.5 1808.17,-678.5"/>
<text text-anchor="middle" x="1727.5" y="-681.8" font-family="Times,serif" font-size="14.00">Control flow back edge</text>
</g>
<!-- d0 -->
<!-- d1 -->
<!-- d0&#45;&gt;d1 -->
<g id="edge44" class="edge">
<title>d0&#45;&gt;d1</title>
<path fill="none" stroke="black" d="M1525.86,-675C1535.41,-675 1579.31,-675 1600.92,-675"/>
<polygon fill="black" stroke="black" points="1601.15,-678.5 1611.15,-675 1601.15,-671.5 1601.15,-678.5"/>
<text text-anchor="middle" x="1568.5" y="-681.8" font-family="Times,serif" font-size="14.00">Data flow</text>
</g>
<!-- d2 -->
<!-- d3 -->
<!-- d2&#45;&gt;d3 -->
<g id="edge45" class="edge">
<title>d2&#45;&gt;d3</title>
<path fill="none" stroke="black" stroke-dasharray="1,5" d="M1399.81,-675C1410.46,-675 1465.46,-675 1490.08,-675"/>
<polygon fill="black" stroke="black" points="1490.15,-678.5 1500.15,-675 1490.15,-671.5 1490.15,-678.5"/>
<text text-anchor="middle" x="1450" y="-681.8" font-family="Times,serif" font-size="14.00">Declaration</text>
</g>
<!-- d4 -->
<!-- d5 -->
<!-- d4&#45;&gt;d5 -->
<g id="edge46" class="edge">
<title>d4&#45;&gt;d5</title>
<path fill="none" stroke="blue" d="M1257.1,-675C1269.72,-675 1335.88,-675 1363.68,-675"/>
<polygon fill="blue" stroke="blue" points="1363.84,-678.5 1373.84,-675 1363.84,-671.5 1363.84,-678.5"/>
<text text-anchor="middle" x="1315.5" y="-681.8" font-family="Times,serif" font-size="14.00">PHI Data flow</text>
</g>
<!-- d6 -->
<!-- d7 -->
<!-- d6&#45;&gt;d7 -->
<g id="edge47" class="edge">
<title>d6&#45;&gt;d7</title>
<path fill="none" stroke="green" d="M1120,-675C1131.94,-675 1194.3,-675 1220.93,-675"/>
<polygon fill="green" stroke="green" points="1220.95,-678.5 1230.95,-675 1220.95,-671.5 1220.95,-678.5"/>
<text text-anchor="middle" x="1175.5" y="-681.8" font-family="Times,serif" font-size="14.00">Memory flow</text>
</g>
<!-- d8 -->
<!-- d9 -->
<!-- d8&#45;&gt;d9 -->
<g id="edge48" class="edge">
<title>d8&#45;&gt;d9</title>
<path fill="none" stroke="fuchsia" d="M997.11,-675C1008.15,-675 1059.67,-675 1083.66,-675"/>
<polygon fill="fuchsia" stroke="fuchsia" points="1083.9,-678.5 1093.9,-675 1083.9,-671.5 1083.9,-678.5"/>
<text text-anchor="middle" x="1045.5" y="-681.8" font-family="Times,serif" font-size="14.00">Dominance</text>
</g>
</g>
</svg>
