<?xml version="1.0" encoding="UTF-8" standalone="no"?>
<!DOCTYPE svg PUBLIC "-//W3C//DTD SVG 1.1//EN"
 "http://www.w3.org/Graphics/SVG/1.1/DTD/svg11.dtd">
<!-- Generated by graphviz version 2.43.0 (0)
 -->
<!-- Title: %3 Pages: 1 -->
<svg width="1346pt" height="2330pt"
 viewBox="0.00 0.00 1345.50 2329.80" xmlns="http://www.w3.org/2000/svg" xmlns:xlink="http://www.w3.org/1999/xlink">
<g id="graph0" class="graph" transform="scale(1 1) rotate(0) translate(4 2325.8)">
<title>%3</title>
<polygon fill="white" stroke="transparent" points="-4,4 -4,-2325.8 1341.5,-2325.8 1341.5,4 -4,4"/>
<g id="clust1" class="cluster">
<title>cluster_000</title>
<polygon fill="none" stroke="black" points="993.5,-2271.2 993.5,-2313.8 1329.5,-2313.8 1329.5,-2271.2 993.5,-2271.2"/>
<text text-anchor="middle" x="1161.5" y="-2298.6" font-family="Times,serif" font-size="14.00">Legend</text>
</g>
<!-- node0 -->
<g id="node1" class="node">
<title>node0</title>
<polygon fill="lightgrey" stroke="black" points="984,-2299 191,-2299 191,-2263 984,-2263 984,-2299"/>
<text text-anchor="middle" x="587.5" y="-2277.3" font-family="Times,serif" font-size="14.00">#0 LocalVariable[name=this, slot=0, type=Lde/mirkosertic/metair/ir/examples/MethodInvokeTest;] Order: 0</text>
</g>
<!-- node1 -->
<g id="node2" class="node">
<title>node1</title>
<polygon fill="lightgrey" stroke="black" points="1023.5,-2226 151.5,-2226 151.5,-2190 1023.5,-2190 1023.5,-2226"/>
<text text-anchor="middle" x="587.5" y="-2204.3" font-family="Times,serif" font-size="14.00">#1 LocalVariable[name=source, slot=1, type=Lde/mirkosertic/metair/ir/examples/MethodInvokeTest$Source;] Order: 1</text>
</g>
<!-- node0&#45;&gt;node1 -->
<g id="edge1" class="edge">
<title>node0&#45;&gt;node1</title>
<path fill="none" stroke="red" d="M587.5,-2262.81C587.5,-2254.79 587.5,-2245.05 587.5,-2236.07"/>
<polygon fill="red" stroke="red" points="591,-2236.03 587.5,-2226.03 584,-2236.03 591,-2236.03"/>
</g>
<!-- node2 -->
<g id="node3" class="node">
<title>node2</title>
<polygon fill="lightgrey" stroke="black" points="827,-2153 348,-2153 348,-2117 827,-2117 827,-2153"/>
<text text-anchor="middle" x="587.5" y="-2131.3" font-family="Times,serif" font-size="14.00">#2 Label[context=CodeModel[id=1970779713], bci=0] Order: 2</text>
</g>
<!-- node1&#45;&gt;node2 -->
<g id="edge2" class="edge">
<title>node1&#45;&gt;node2</title>
<path fill="none" stroke="red" d="M587.5,-2189.81C587.5,-2181.79 587.5,-2172.05 587.5,-2163.07"/>
<polygon fill="red" stroke="red" points="591,-2163.03 587.5,-2153.03 584,-2163.03 591,-2163.03"/>
</g>
<!-- node3 -->
<g id="node4" class="node">
<title>node3</title>
<polygon fill="lightgrey" stroke="black" points="719,-2080 456,-2080 456,-2044 719,-2044 719,-2080"/>
<text text-anchor="middle" x="587.5" y="-2058.3" font-family="Times,serif" font-size="14.00">#3 LineNumber[line=91] Order: 3</text>
</g>
<!-- node2&#45;&gt;node3 -->
<g id="edge3" class="edge">
<title>node2&#45;&gt;node3</title>
<path fill="none" stroke="red" d="M587.5,-2116.81C587.5,-2108.79 587.5,-2099.05 587.5,-2090.07"/>
<polygon fill="red" stroke="red" points="591,-2090.03 587.5,-2080.03 584,-2090.03 591,-2090.03"/>
</g>
<!-- node4 -->
<g id="node5" class="node">
<title>node4</title>
<polygon fill="lightgrey" stroke="black" points="953.5,-2007 221.5,-2007 221.5,-1971 953.5,-1971 953.5,-2007"/>
<text text-anchor="middle" x="587.5" y="-1985.3" font-family="Times,serif" font-size="14.00">#4 NewObj[OP=NEW, type=de/mirkosertic/metair/ir/examples/MethodInvokeTest$Source] Order: 4</text>
</g>
<!-- node3&#45;&gt;node4 -->
<g id="edge4" class="edge">
<title>node3&#45;&gt;node4</title>
<path fill="none" stroke="red" d="M587.5,-2043.81C587.5,-2035.79 587.5,-2026.05 587.5,-2017.07"/>
<polygon fill="red" stroke="red" points="591,-2017.03 587.5,-2007.03 584,-2017.03 591,-2017.03"/>
</g>
<!-- node5 -->
<g id="node6" class="node">
<title>node5</title>
<polygon fill="lightgrey" stroke="black" points="769,-1934 406,-1934 406,-1898 769,-1898 769,-1934"/>
<text text-anchor="middle" x="587.5" y="-1912.3" font-family="Times,serif" font-size="14.00">#5 UnboundStackInstruction[op=DUP] Order: 5</text>
</g>
<!-- node4&#45;&gt;node5 -->
<g id="edge5" class="edge">
<title>node4&#45;&gt;node5</title>
<path fill="none" stroke="red" d="M587.5,-1970.81C587.5,-1962.79 587.5,-1953.05 587.5,-1944.07"/>
<polygon fill="red" stroke="red" points="591,-1944.03 587.5,-1934.03 584,-1944.03 591,-1944.03"/>
</g>
<!-- node6 -->
<g id="node7" class="node">
<title>node6</title>
<polygon fill="lightgrey" stroke="black" points="1020.5,-1861 154.5,-1861 154.5,-1825 1020.5,-1825 1020.5,-1861"/>
<text text-anchor="middle" x="587.5" y="-1839.3" font-family="Times,serif" font-size="14.00">#6 Invoke[OP=INVOKESPECIAL, m=de/mirkosertic/metair/ir/examples/MethodInvokeTest$Source.&lt;init&gt;()V] Order: 6</text>
</g>
<!-- node5&#45;&gt;node6 -->
<g id="edge6" class="edge">
<title>node5&#45;&gt;node6</title>
<path fill="none" stroke="red" d="M587.5,-1897.81C587.5,-1889.79 587.5,-1880.05 587.5,-1871.07"/>
<polygon fill="red" stroke="red" points="591,-1871.03 587.5,-1861.03 584,-1871.03 591,-1871.03"/>
</g>
<!-- node7 -->
<g id="node8" class="node">
<title>node7</title>
<polygon fill="lightgrey" stroke="black" points="748.5,-1788 426.5,-1788 426.5,-1752 748.5,-1752 748.5,-1788"/>
<text text-anchor="middle" x="587.5" y="-1766.3" font-family="Times,serif" font-size="14.00">#7 Store[OP=ASTORE_1, slot=1] Order: 7</text>
</g>
<!-- node6&#45;&gt;node7 -->
<g id="edge7" class="edge">
<title>node6&#45;&gt;node7</title>
<path fill="none" stroke="red" d="M587.5,-1824.81C587.5,-1816.79 587.5,-1807.05 587.5,-1798.07"/>
<polygon fill="red" stroke="red" points="591,-1798.03 587.5,-1788.03 584,-1798.03 591,-1798.03"/>
</g>
<!-- node8 -->
<g id="node9" class="node">
<title>node8</title>
<polygon fill="lightgrey" stroke="black" points="827,-1715 348,-1715 348,-1679 827,-1679 827,-1715"/>
<text text-anchor="middle" x="587.5" y="-1693.3" font-family="Times,serif" font-size="14.00">#8 Label[context=CodeModel[id=1970779713], bci=8] Order: 8</text>
</g>
<!-- node7&#45;&gt;node8 -->
<g id="edge8" class="edge">
<title>node7&#45;&gt;node8</title>
<path fill="none" stroke="red" d="M587.5,-1751.81C587.5,-1743.79 587.5,-1734.05 587.5,-1725.07"/>
<polygon fill="red" stroke="red" points="591,-1725.03 587.5,-1715.03 584,-1725.03 591,-1725.03"/>
</g>
<!-- node9 -->
<g id="node10" class="node">
<title>node9</title>
<polygon fill="lightgrey" stroke="black" points="719,-1642 456,-1642 456,-1606 719,-1606 719,-1642"/>
<text text-anchor="middle" x="587.5" y="-1620.3" font-family="Times,serif" font-size="14.00">#9 LineNumber[line=92] Order: 9</text>
</g>
<!-- node8&#45;&gt;node9 -->
<g id="edge9" class="edge">
<title>node8&#45;&gt;node9</title>
<path fill="none" stroke="red" d="M587.5,-1678.81C587.5,-1670.79 587.5,-1661.05 587.5,-1652.07"/>
<polygon fill="red" stroke="red" points="591,-1652.03 587.5,-1642.03 584,-1652.03 591,-1652.03"/>
</g>
<!-- node10 -->
<g id="node11" class="node">
<title>node10</title>
<polygon fill="lightgrey" stroke="black" points="750.5,-1569 424.5,-1569 424.5,-1533 750.5,-1533 750.5,-1569"/>
<text text-anchor="middle" x="587.5" y="-1547.3" font-family="Times,serif" font-size="14.00">#10 Load[OP=ALOAD_1, slot=1] Order: 10</text>
</g>
<!-- node9&#45;&gt;node10 -->
<g id="edge10" class="edge">
<title>node9&#45;&gt;node10</title>
<path fill="none" stroke="red" d="M587.5,-1605.81C587.5,-1597.79 587.5,-1588.05 587.5,-1579.07"/>
<polygon fill="red" stroke="red" points="591,-1579.03 587.5,-1569.03 584,-1579.03 591,-1579.03"/>
</g>
<!-- node11 -->
<g id="node12" class="node">
<title>node11</title>
<polygon fill="lightgrey" stroke="black" points="1016.5,-1496 158.5,-1496 158.5,-1460 1016.5,-1460 1016.5,-1496"/>
<text text-anchor="middle" x="587.5" y="-1474.3" font-family="Times,serif" font-size="14.00">#11 Field[OP=GETFIELD, field=de/mirkosertic/metair/ir/examples/MethodInvokeTest$Source.byte_field:B] Order: 11</text>
</g>
<!-- node10&#45;&gt;node11 -->
<g id="edge11" class="edge">
<title>node10&#45;&gt;node11</title>
<path fill="none" stroke="red" d="M587.5,-1532.81C587.5,-1524.79 587.5,-1515.05 587.5,-1506.07"/>
<polygon fill="red" stroke="red" points="591,-1506.03 587.5,-1496.03 584,-1506.03 591,-1506.03"/>
</g>
<!-- node12 -->
<g id="node13" class="node">
<title>node12</title>
<polygon fill="lightgrey" stroke="black" points="750.5,-1423 424.5,-1423 424.5,-1387 750.5,-1387 750.5,-1423"/>
<text text-anchor="middle" x="587.5" y="-1401.3" font-family="Times,serif" font-size="14.00">#12 Load[OP=ALOAD_1, slot=1] Order: 12</text>
</g>
<!-- node11&#45;&gt;node12 -->
<g id="edge12" class="edge">
<title>node11&#45;&gt;node12</title>
<path fill="none" stroke="red" d="M587.5,-1459.81C587.5,-1451.79 587.5,-1442.05 587.5,-1433.07"/>
<polygon fill="red" stroke="red" points="591,-1433.03 587.5,-1423.03 584,-1433.03 591,-1433.03"/>
</g>
<!-- node13 -->
<g id="node14" class="node">
<title>node13</title>
<polygon fill="lightgrey" stroke="black" points="1028,-1350 147,-1350 147,-1314 1028,-1314 1028,-1350"/>
<text text-anchor="middle" x="587.5" y="-1328.3" font-family="Times,serif" font-size="14.00">#13 Field[OP=GETFIELD, field=de/mirkosertic/metair/ir/examples/MethodInvokeTest$Source.boolean_field:Z] Order: 13</text>
</g>
<!-- node12&#45;&gt;node13 -->
<g id="edge13" class="edge">
<title>node12&#45;&gt;node13</title>
<path fill="none" stroke="red" d="M587.5,-1386.81C587.5,-1378.79 587.5,-1369.05 587.5,-1360.07"/>
<polygon fill="red" stroke="red" points="591,-1360.03 587.5,-1350.03 584,-1360.03 591,-1360.03"/>
</g>
<!-- node14 -->
<g id="node15" class="node">
<title>node14</title>
<polygon fill="lightgrey" stroke="black" points="750.5,-1277 424.5,-1277 424.5,-1241 750.5,-1241 750.5,-1277"/>
<text text-anchor="middle" x="587.5" y="-1255.3" font-family="Times,serif" font-size="14.00">#14 Load[OP=ALOAD_1, slot=1] Order: 14</text>
</g>
<!-- node13&#45;&gt;node14 -->
<g id="edge14" class="edge">
<title>node13&#45;&gt;node14</title>
<path fill="none" stroke="red" d="M587.5,-1313.81C587.5,-1305.79 587.5,-1296.05 587.5,-1287.07"/>
<polygon fill="red" stroke="red" points="591,-1287.03 587.5,-1277.03 584,-1287.03 591,-1287.03"/>
</g>
<!-- node15 -->
<g id="node16" class="node">
<title>node15</title>
<polygon fill="lightgrey" stroke="black" points="1019,-1204 156,-1204 156,-1168 1019,-1168 1019,-1204"/>
<text text-anchor="middle" x="587.5" y="-1182.3" font-family="Times,serif" font-size="14.00">#15 Field[OP=GETFIELD, field=de/mirkosertic/metair/ir/examples/MethodInvokeTest$Source.short_field:S] Order: 15</text>
</g>
<!-- node14&#45;&gt;node15 -->
<g id="edge15" class="edge">
<title>node14&#45;&gt;node15</title>
<path fill="none" stroke="red" d="M587.5,-1240.81C587.5,-1232.79 587.5,-1223.05 587.5,-1214.07"/>
<polygon fill="red" stroke="red" points="591,-1214.03 587.5,-1204.03 584,-1214.03 591,-1214.03"/>
</g>
<!-- node16 -->
<g id="node17" class="node">
<title>node16</title>
<polygon fill="lightgrey" stroke="black" points="750.5,-1131 424.5,-1131 424.5,-1095 750.5,-1095 750.5,-1131"/>
<text text-anchor="middle" x="587.5" y="-1109.3" font-family="Times,serif" font-size="14.00">#16 Load[OP=ALOAD_1, slot=1] Order: 16</text>
</g>
<!-- node15&#45;&gt;node16 -->
<g id="edge16" class="edge">
<title>node15&#45;&gt;node16</title>
<path fill="none" stroke="red" d="M587.5,-1167.81C587.5,-1159.79 587.5,-1150.05 587.5,-1141.07"/>
<polygon fill="red" stroke="red" points="591,-1141.03 587.5,-1131.03 584,-1141.03 591,-1141.03"/>
</g>
<!-- node17 -->
<g id="node18" class="node">
<title>node17</title>
<polygon fill="lightgrey" stroke="black" points="1016.5,-1058 158.5,-1058 158.5,-1022 1016.5,-1022 1016.5,-1058"/>
<text text-anchor="middle" x="587.5" y="-1036.3" font-family="Times,serif" font-size="14.00">#17 Field[OP=GETFIELD, field=de/mirkosertic/metair/ir/examples/MethodInvokeTest$Source.char_field:C] Order: 17</text>
</g>
<!-- node16&#45;&gt;node17 -->
<g id="edge17" class="edge">
<title>node16&#45;&gt;node17</title>
<path fill="none" stroke="red" d="M587.5,-1094.81C587.5,-1086.79 587.5,-1077.05 587.5,-1068.07"/>
<polygon fill="red" stroke="red" points="591,-1068.03 587.5,-1058.03 584,-1068.03 591,-1068.03"/>
</g>
<!-- node18 -->
<g id="node19" class="node">
<title>node18</title>
<polygon fill="lightgrey" stroke="black" points="750.5,-985 424.5,-985 424.5,-949 750.5,-949 750.5,-985"/>
<text text-anchor="middle" x="587.5" y="-963.3" font-family="Times,serif" font-size="14.00">#18 Load[OP=ALOAD_1, slot=1] Order: 18</text>
</g>
<!-- node17&#45;&gt;node18 -->
<g id="edge18" class="edge">
<title>node17&#45;&gt;node18</title>
<path fill="none" stroke="red" d="M587.5,-1021.81C587.5,-1013.79 587.5,-1004.05 587.5,-995.07"/>
<polygon fill="red" stroke="red" points="591,-995.03 587.5,-985.03 584,-995.03 591,-995.03"/>
</g>
<!-- node19 -->
<g id="node20" class="node">
<title>node19</title>
<polygon fill="lightgrey" stroke="black" points="1008,-912 167,-912 167,-876 1008,-876 1008,-912"/>
<text text-anchor="middle" x="587.5" y="-890.3" font-family="Times,serif" font-size="14.00">#19 Field[OP=GETFIELD, field=de/mirkosertic/metair/ir/examples/MethodInvokeTest$Source.int_field:I] Order: 19</text>
</g>
<!-- node18&#45;&gt;node19 -->
<g id="edge19" class="edge">
<title>node18&#45;&gt;node19</title>
<path fill="none" stroke="red" d="M587.5,-948.81C587.5,-940.79 587.5,-931.05 587.5,-922.07"/>
<polygon fill="red" stroke="red" points="591,-922.03 587.5,-912.03 584,-922.03 591,-922.03"/>
</g>
<!-- node20 -->
<g id="node21" class="node">
<title>node20</title>
<polygon fill="lightgrey" stroke="black" points="750.5,-839 424.5,-839 424.5,-803 750.5,-803 750.5,-839"/>
<text text-anchor="middle" x="587.5" y="-817.3" font-family="Times,serif" font-size="14.00">#20 Load[OP=ALOAD_1, slot=1] Order: 20</text>
</g>
<!-- node19&#45;&gt;node20 -->
<g id="edge20" class="edge">
<title>node19&#45;&gt;node20</title>
<path fill="none" stroke="red" d="M587.5,-875.81C587.5,-867.79 587.5,-858.05 587.5,-849.07"/>
<polygon fill="red" stroke="red" points="591,-849.03 587.5,-839.03 584,-849.03 591,-849.03"/>
</g>
<!-- node21 -->
<g id="node22" class="node">
<title>node21</title>
<polygon fill="lightgrey" stroke="black" points="1013.5,-766 161.5,-766 161.5,-730 1013.5,-730 1013.5,-766"/>
<text text-anchor="middle" x="587.5" y="-744.3" font-family="Times,serif" font-size="14.00">#21 Field[OP=GETFIELD, field=de/mirkosertic/metair/ir/examples/MethodInvokeTest$Source.long_field:J] Order: 21</text>
</g>
<!-- node20&#45;&gt;node21 -->
<g id="edge21" class="edge">
<title>node20&#45;&gt;node21</title>
<path fill="none" stroke="red" d="M587.5,-802.81C587.5,-794.79 587.5,-785.05 587.5,-776.07"/>
<polygon fill="red" stroke="red" points="591,-776.03 587.5,-766.03 584,-776.03 591,-776.03"/>
</g>
<!-- node22 -->
<g id="node23" class="node">
<title>node22</title>
<polygon fill="lightgrey" stroke="black" points="750.5,-693 424.5,-693 424.5,-657 750.5,-657 750.5,-693"/>
<text text-anchor="middle" x="587.5" y="-671.3" font-family="Times,serif" font-size="14.00">#22 Load[OP=ALOAD_1, slot=1] Order: 22</text>
</g>
<!-- node21&#45;&gt;node22 -->
<g id="edge22" class="edge">
<title>node21&#45;&gt;node22</title>
<path fill="none" stroke="red" d="M587.5,-729.81C587.5,-721.79 587.5,-712.05 587.5,-703.07"/>
<polygon fill="red" stroke="red" points="591,-703.03 587.5,-693.03 584,-703.03 591,-703.03"/>
</g>
<!-- node23 -->
<g id="node24" class="node">
<title>node23</title>
<polygon fill="lightgrey" stroke="black" points="1016,-620 159,-620 159,-584 1016,-584 1016,-620"/>
<text text-anchor="middle" x="587.5" y="-598.3" font-family="Times,serif" font-size="14.00">#23 Field[OP=GETFIELD, field=de/mirkosertic/metair/ir/examples/MethodInvokeTest$Source.float_field:F] Order: 23</text>
</g>
<!-- node22&#45;&gt;node23 -->
<g id="edge23" class="edge">
<title>node22&#45;&gt;node23</title>
<path fill="none" stroke="red" d="M587.5,-656.81C587.5,-648.79 587.5,-639.05 587.5,-630.07"/>
<polygon fill="red" stroke="red" points="591,-630.03 587.5,-620.03 584,-630.03 591,-630.03"/>
</g>
<!-- node24 -->
<g id="node25" class="node">
<title>node24</title>
<polygon fill="lightgrey" stroke="black" points="750.5,-547 424.5,-547 424.5,-511 750.5,-511 750.5,-547"/>
<text text-anchor="middle" x="587.5" y="-525.3" font-family="Times,serif" font-size="14.00">#24 Load[OP=ALOAD_1, slot=1] Order: 24</text>
</g>
<!-- node23&#45;&gt;node24 -->
<g id="edge24" class="edge">
<title>node23&#45;&gt;node24</title>
<path fill="none" stroke="red" d="M587.5,-583.81C587.5,-575.79 587.5,-566.05 587.5,-557.07"/>
<polygon fill="red" stroke="red" points="591,-557.03 587.5,-547.03 584,-557.03 591,-557.03"/>
</g>
<!-- node25 -->
<g id="node26" class="node">
<title>node25</title>
<polygon fill="lightgrey" stroke="black" points="1025,-474 150,-474 150,-438 1025,-438 1025,-474"/>
<text text-anchor="middle" x="587.5" y="-452.3" font-family="Times,serif" font-size="14.00">#25 Field[OP=GETFIELD, field=de/mirkosertic/metair/ir/examples/MethodInvokeTest$Source.double_field:D] Order: 25</text>
</g>
<!-- node24&#45;&gt;node25 -->
<g id="edge25" class="edge">
<title>node24&#45;&gt;node25</title>
<path fill="none" stroke="red" d="M587.5,-510.81C587.5,-502.79 587.5,-493.05 587.5,-484.07"/>
<polygon fill="red" stroke="red" points="591,-484.03 587.5,-474.03 584,-484.03 591,-484.03"/>
</g>
<!-- node26 -->
<g id="node27" class="node">
<title>node26</title>
<polygon fill="lightgrey" stroke="black" points="750.5,-401 424.5,-401 424.5,-365 750.5,-365 750.5,-401"/>
<text text-anchor="middle" x="587.5" y="-379.3" font-family="Times,serif" font-size="14.00">#26 Load[OP=ALOAD_1, slot=1] Order: 26</text>
</g>
<!-- node25&#45;&gt;node26 -->
<g id="edge26" class="edge">
<title>node25&#45;&gt;node26</title>
<path fill="none" stroke="red" d="M587.5,-437.81C587.5,-429.79 587.5,-420.05 587.5,-411.07"/>
<polygon fill="red" stroke="red" points="591,-411.03 587.5,-401.03 584,-411.03 591,-411.03"/>
</g>
<!-- node27 -->
<g id="node28" class="node">
<title>node27</title>
<polygon fill="lightgrey" stroke="black" points="1080.5,-328 94.5,-328 94.5,-292 1080.5,-292 1080.5,-328"/>
<text text-anchor="middle" x="587.5" y="-306.3" font-family="Times,serif" font-size="14.00">#27 Field[OP=GETFIELD, field=de/mirkosertic/metair/ir/examples/MethodInvokeTest$Source.string_field:Ljava/lang/String;] Order: 27</text>
</g>
<!-- node26&#45;&gt;node27 -->
<g id="edge27" class="edge">
<title>node26&#45;&gt;node27</title>
<path fill="none" stroke="red" d="M587.5,-364.81C587.5,-356.79 587.5,-347.05 587.5,-338.07"/>
<polygon fill="red" stroke="red" points="591,-338.03 587.5,-328.03 584,-338.03 591,-338.03"/>
</g>
<!-- node28 -->
<g id="node29" class="node">
<title>node28</title>
<polygon fill="lightgrey" stroke="black" points="750.5,-255 424.5,-255 424.5,-219 750.5,-219 750.5,-255"/>
<text text-anchor="middle" x="587.5" y="-233.3" font-family="Times,serif" font-size="14.00">#28 Load[OP=ALOAD_1, slot=1] Order: 28</text>
</g>
<!-- node27&#45;&gt;node28 -->
<g id="edge28" class="edge">
<title>node27&#45;&gt;node28</title>
<path fill="none" stroke="red" d="M587.5,-291.81C587.5,-283.79 587.5,-274.05 587.5,-265.07"/>
<polygon fill="red" stroke="red" points="591,-265.03 587.5,-255.03 584,-265.03 591,-265.03"/>
</g>
<!-- node29 -->
<g id="node30" class="node">
<title>node29</title>
<polygon fill="lightgrey" stroke="black" points="1020,-182 155,-182 155,-146 1020,-146 1020,-182"/>
<text text-anchor="middle" x="587.5" y="-160.3" font-family="Times,serif" font-size="14.00">#29 Field[OP=GETFIELD, field=de/mirkosertic/metair/ir/examples/MethodInvokeTest$Source.array_field:[I] Order: 29</text>
</g>
<!-- node28&#45;&gt;node29 -->
<g id="edge29" class="edge">
<title>node28&#45;&gt;node29</title>
<path fill="none" stroke="red" d="M587.5,-218.81C587.5,-210.79 587.5,-201.05 587.5,-192.07"/>
<polygon fill="red" stroke="red" points="591,-192.03 587.5,-182.03 584,-192.03 591,-192.03"/>
</g>
<!-- node30 -->
<g id="node31" class="node">
<title>node30</title>
<polygon fill="lightgrey" stroke="black" points="1175,-109 0,-109 0,-73 1175,-73 1175,-109"/>
<text text-anchor="middle" x="587.5" y="-87.3" font-family="Times,serif" font-size="14.00">#30 Invoke[OP=INVOKESTATIC, m=de/mirkosertic/metair/ir/examples/MethodInvokeTest.simple_method_return_byte(BZSCIJFDLjava/lang/String;[I)B] Order: 30</text>
</g>
<!-- node29&#45;&gt;node30 -->
<g id="edge30" class="edge">
<title>node29&#45;&gt;node30</title>
<path fill="none" stroke="red" d="M587.5,-145.81C587.5,-137.79 587.5,-128.05 587.5,-119.07"/>
<polygon fill="red" stroke="red" points="591,-119.03 587.5,-109.03 584,-119.03 591,-119.03"/>
</g>
<!-- node31 -->
<g id="node32" class="node">
<title>node31</title>
<polygon fill="lightgrey" stroke="black" points="731,-36 444,-36 444,0 731,0 731,-36"/>
<text text-anchor="middle" x="587.5" y="-14.3" font-family="Times,serif" font-size="14.00">#31 Return[OP=IRETURN] Order: 31</text>
</g>
<!-- node30&#45;&gt;node31 -->
<g id="edge31" class="edge">
<title>node30&#45;&gt;node31</title>
<path fill="none" stroke="red" d="M587.5,-72.81C587.5,-64.79 587.5,-55.05 587.5,-46.07"/>
<polygon fill="red" stroke="red" points="591,-46.03 587.5,-36.03 584,-46.03 591,-46.03"/>
</g>
<!-- c0 -->
<!-- c1 -->
<!-- c0&#45;&gt;c1 -->
<g id="edge32" class="edge">
<title>c0&#45;&gt;c1</title>
<path fill="none" stroke="red" d="M1212.39,-2281C1223.61,-2281 1281.74,-2281 1307.36,-2281"/>
<polygon fill="red" stroke="red" points="1307.56,-2284.5 1317.56,-2281 1307.56,-2277.5 1307.56,-2284.5"/>
<text text-anchor="middle" x="1265" y="-2287.8" font-family="Times,serif" font-size="14.00">Control flow</text>
</g>
<!-- c2 -->
<!-- c3 -->
<!-- c2&#45;&gt;c3 -->
<g id="edge33" class="edge">
<title>c2&#45;&gt;c3</title>
<path fill="none" stroke="red" stroke-dasharray="5,2" d="M1005.58,-2281C1022.55,-2281 1138.71,-2281 1176.58,-2281"/>
<polygon fill="red" stroke="red" points="1176.67,-2284.5 1186.67,-2281 1176.67,-2277.5 1176.67,-2284.5"/>
<text text-anchor="middle" x="1096" y="-2287.8" font-family="Times,serif" font-size="14.00">Control flow back edge</text>
</g>
</g>
</svg>
