<?xml version="1.0" encoding="UTF-8" standalone="no"?>
<!DOCTYPE svg PUBLIC "-//W3C//DTD SVG 1.1//EN"
 "http://www.w3.org/Graphics/SVG/1.1/DTD/svg11.dtd">
<!-- Generated by graphviz version 2.43.0 (0)
 -->
<!-- Title: %3 Pages: 1 -->
<svg width="5124pt" height="662pt"
 viewBox="0.00 0.00 5124.43 662.00" xmlns="http://www.w3.org/2000/svg" xmlns:xlink="http://www.w3.org/1999/xlink">
<g id="graph0" class="graph" transform="scale(1 1) rotate(0) translate(4 658)">
<title>%3</title>
<polygon fill="white" stroke="transparent" points="-4,4 -4,-658 5120.43,-658 5120.43,4 -4,4"/>
<g id="clust1" class="cluster">
<title>cluster_0</title>
<polygon fill="none" stroke="lightgray" points="3521.43,-503 3521.43,-646 4247.43,-646 4247.43,-503 3521.43,-503"/>
</g>
<g id="clust2" class="cluster">
<title>cluster_000</title>
<polygon fill="none" stroke="black" points="4255.43,-601.2 4255.43,-643.8 5108.43,-643.8 5108.43,-601.2 4255.43,-601.2"/>
<text text-anchor="middle" x="4681.93" y="-628.6" font-family="Times,serif" font-size="14.00">Legend</text>
</g>
<!-- node0 -->
<g id="node1" class="node">
<title>node0</title>
<polygon fill="lightgrey" stroke="transparent" points="3814.93,-638 3629.93,-638 3629.93,-584 3814.93,-584 3814.93,-638"/>
<polygon fill="none" stroke="black" points="3630.43,-611 3630.43,-638 3815.43,-638 3815.43,-611 3630.43,-611"/>
<text text-anchor="start" x="3682.43" y="-620.8" font-family="Times,serif" font-size="14.00">#0 Method</text>
<polygon fill="yellow" stroke="transparent" points="3630.43,-584 3630.43,-611 3815.43,-611 3815.43,-584 3630.43,-584"/>
<polygon fill="none" stroke="black" points="3630.43,-584 3630.43,-611 3815.43,-611 3815.43,-584 3630.43,-584"/>
<text text-anchor="start" x="3636.43" y="-593.8" font-family="Times,serif" font-size="14.00">this : MethodInvokeTest</text>
</g>
<!-- node2 -->
<g id="node2" class="node">
<title>node2</title>
<polygon fill="lightgrey" stroke="black" points="3510.93,-547 3391.93,-547 3391.93,-511 3510.93,-511 3510.93,-547"/>
<text text-anchor="middle" x="3451.43" y="-525.3" font-family="Times,serif" font-size="14.00">#2 LabelNode</text>
</g>
<!-- node0&#45;&gt;node2 -->
<g id="edge1" class="edge">
<title>node0&#45;&gt;node2</title>
<path fill="none" stroke="red" d="M3634.06,-583.92C3596.65,-572.87 3553.76,-560.21 3518.95,-549.93"/>
<polygon fill="red" stroke="red" points="3519.94,-546.57 3509.35,-547.1 3517.95,-553.29 3519.94,-546.57"/>
</g>
<!-- node4 -->
<g id="node3" class="node">
<title>node4</title>
<polygon fill="lightgrey" stroke="black" points="3747.93,-474 3642.93,-474 3642.93,-438 3747.93,-438 3747.93,-474"/>
<text text-anchor="middle" x="3695.43" y="-452.3" font-family="Times,serif" font-size="14.00">#4 ClassInit</text>
</g>
<!-- node0&#45;&gt;node4 -->
<g id="edge4" class="edge">
<title>node0&#45;&gt;node4</title>
<path fill="none" stroke="green" d="M3815.14,-605.48C3958.42,-597.52 4220.21,-578.8 4248.43,-547 4261.41,-532.37 4261.67,-517.39 4248.43,-503 4215.8,-467.55 3896.51,-459.41 3758.47,-457.55"/>
<polygon fill="green" stroke="green" points="3758.1,-454.05 3748.06,-457.42 3758.02,-461.05 3758.1,-454.05"/>
</g>
<!-- node3 -->
<g id="node4" class="node">
<title>node3</title>
<polygon fill="lightgreen" stroke="black" points="3915.85,-521.54 3915.85,-536.46 3802.54,-547 3642.31,-547 3529,-536.46 3529,-521.54 3642.31,-511 3802.54,-511 3915.85,-521.54"/>
<text text-anchor="middle" x="3722.43" y="-525.3" font-family="Times,serif" font-size="14.00">#3 Class MethodInvokeTest$Source</text>
</g>
<!-- node0&#45;&gt;node3 -->
<g id="edge5" class="edge">
<title>node0&#45;&gt;node3</title>
<path fill="none" stroke="black" stroke-dasharray="1,5" d="M3722.43,-583.81C3722.43,-575.35 3722.43,-565.95 3722.43,-557.4"/>
<polygon fill="black" stroke="black" points="3725.93,-557.17 3722.43,-547.17 3718.93,-557.17 3725.93,-557.17"/>
</g>
<!-- node5 -->
<g id="node19" class="node">
<title>node5</title>
<polygon fill="lightgreen" stroke="black" points="4239.24,-521.54 4239.24,-536.46 4149.72,-547 4023.13,-547 3933.61,-536.46 3933.61,-521.54 4023.13,-511 4149.72,-511 4239.24,-521.54"/>
<text text-anchor="middle" x="4086.43" y="-525.3" font-family="Times,serif" font-size="14.00">#5 Class MethodInvokeTest</text>
</g>
<!-- node0&#45;&gt;node5 -->
<g id="edge48" class="edge">
<title>node0&#45;&gt;node5</title>
<path fill="none" stroke="black" stroke-dasharray="1,5" d="M3815.22,-589.61C3873.44,-576.81 3947.84,-560.46 4003.98,-548.12"/>
<polygon fill="black" stroke="black" points="4004.87,-551.51 4013.89,-545.94 4003.37,-544.67 4004.87,-551.51"/>
</g>
<!-- node2&#45;&gt;node4 -->
<g id="edge3" class="edge">
<title>node2&#45;&gt;node4</title>
<path fill="none" stroke="red" d="M3494.5,-510.91C3502.09,-508.12 3509.95,-505.37 3517.43,-503 3555.36,-490.95 3598.57,-479.73 3632.91,-471.38"/>
<polygon fill="red" stroke="red" points="3633.91,-474.74 3642.81,-469 3632.27,-467.94 3633.91,-474.74"/>
</g>
<!-- node7 -->
<g id="node5" class="node">
<title>node7</title>
<polygon fill="lightgrey" stroke="black" points="4058.43,-328 3808.43,-328 3808.43,-292 4058.43,-292 4058.43,-328"/>
<text text-anchor="middle" x="3933.43" y="-306.3" font-family="Times,serif" font-size="14.00">#7 Invoke special &lt;init&gt; : ()void</text>
</g>
<!-- node4&#45;&gt;node7 -->
<g id="edge7" class="edge">
<title>node4&#45;&gt;node7</title>
<path fill="none" stroke="red" d="M3723.66,-437.92C3766.69,-411.88 3848.71,-362.26 3896.44,-333.38"/>
<polygon fill="red" stroke="red" points="3898.48,-336.23 3905.23,-328.06 3894.86,-330.24 3898.48,-336.23"/>
</g>
<!-- node6 -->
<g id="node6" class="node">
<title>node6</title>
<polygon fill="orange" stroke="black" points="2330.54,-375.54 2330.54,-390.46 2300.01,-401 2256.84,-401 2226.31,-390.46 2226.31,-375.54 2256.84,-365 2300.01,-365 2330.54,-375.54"/>
<text text-anchor="middle" x="2278.43" y="-379.3" font-family="Times,serif" font-size="14.00">#6 New</text>
</g>
<!-- node4&#45;&gt;node6 -->
<g id="edge9" class="edge">
<title>node4&#45;&gt;node6</title>
<path fill="none" stroke="black" d="M3642.71,-452.49C3422.67,-441.73 2578.55,-399.44 2340.95,-387.29"/>
<polygon fill="black" stroke="black" points="2340.92,-383.78 2330.76,-386.76 2340.56,-390.77 2340.92,-383.78"/>
<text text-anchor="middle" x="2349.29" y="-375.55" font-family="Times,serif" font-size="14.00">*0</text>
</g>
<!-- node4&#45;&gt;node6 -->
<g id="edge10" class="edge">
<title>node4&#45;&gt;node6</title>
<path fill="none" stroke="green" d="M3642.71,-452.22C3422.66,-440.93 2578.36,-398.62 2340.86,-386.98"/>
<polygon fill="green" stroke="green" points="2340.84,-383.48 2330.68,-386.48 2340.49,-390.47 2340.84,-383.48"/>
</g>
<!-- node3&#45;&gt;node4 -->
<g id="edge2" class="edge">
<title>node3&#45;&gt;node4</title>
<path fill="none" stroke="black" d="M3715.89,-510.81C3712.77,-502.62 3708.97,-492.62 3705.5,-483.48"/>
<polygon fill="black" stroke="black" points="3708.73,-482.13 3701.9,-474.03 3702.18,-484.62 3708.73,-482.13"/>
<text text-anchor="middle" x="3716.24" y="-484.27" font-family="Times,serif" font-size="14.00">*0</text>
</g>
<!-- node8 -->
<g id="node15" class="node">
<title>node8</title>
<polygon fill="orange" stroke="black" points="3427.94,-302.54 3427.94,-317.46 3332.74,-328 3198.11,-328 3102.91,-317.46 3102.91,-302.54 3198.11,-292 3332.74,-292 3427.94,-302.54"/>
<text text-anchor="middle" x="3265.43" y="-306.3" font-family="Times,serif" font-size="14.00">#8 GetField : byte_field : byte</text>
</g>
<!-- node7&#45;&gt;node8 -->
<g id="edge28" class="edge">
<title>node7&#45;&gt;node8</title>
<path fill="none" stroke="green" d="M3876.31,-328.07C3850.38,-335.36 3819.15,-342.89 3790.43,-346.5 3638.73,-365.55 3598.56,-361.69 3446.43,-346.5 3413.33,-343.2 3377.32,-336.57 3346.2,-329.87"/>
<polygon fill="green" stroke="green" points="3346.8,-326.41 3336.28,-327.69 3345.3,-333.25 3346.8,-326.41"/>
</g>
<!-- node18 -->
<g id="node20" class="node">
<title>node18</title>
<polygon fill="lightgrey" stroke="black" points="3763.43,-255 3635.43,-255 3635.43,-219 3763.43,-219 3763.43,-255"/>
<text text-anchor="middle" x="3699.43" y="-233.3" font-family="Times,serif" font-size="14.00">#18 LabelNode</text>
</g>
<!-- node7&#45;&gt;node18 -->
<g id="edge45" class="edge">
<title>node7&#45;&gt;node18</title>
<path fill="none" stroke="red" d="M3877.38,-291.99C3843.76,-281.79 3800.83,-268.77 3765.56,-258.07"/>
<polygon fill="red" stroke="red" points="3766.41,-254.67 3755.83,-255.11 3764.38,-261.37 3766.41,-254.67"/>
</g>
<!-- node6&#45;&gt;node7 -->
<g id="edge6" class="edge">
<title>node6&#45;&gt;node7</title>
<path fill="none" stroke="black" d="M2330.6,-381.84C2524.23,-380.9 3219.25,-374.27 3790.43,-328 3792.98,-327.79 3795.56,-327.57 3798.17,-327.34"/>
<polygon fill="black" stroke="black" points="3798.66,-330.81 3808.29,-326.39 3798.01,-323.84 3798.66,-330.81"/>
<text text-anchor="middle" x="3791.04" y="-332.8" font-family="Times,serif" font-size="14.00">*0</text>
</g>
<!-- node6&#45;&gt;node7 -->
<g id="edge8" class="edge">
<title>node6&#45;&gt;node7</title>
<path fill="none" stroke="green" d="M2330.77,-381.87C2525.04,-381.05 3222.43,-374.88 3798.6,-328.79"/>
<polygon fill="green" stroke="green" points="3799.09,-332.26 3808.78,-327.97 3798.53,-325.29 3799.09,-332.26"/>
</g>
<!-- node16 -->
<g id="node7" class="node">
<title>node16</title>
<polygon fill="orange" stroke="black" points="372.78,-302.54 372.78,-317.46 263.61,-328 109.24,-328 0.07,-317.46 0.07,-302.54 109.24,-292 263.61,-292 372.78,-302.54"/>
<text text-anchor="middle" x="186.43" y="-306.3" font-family="Times,serif" font-size="14.00">#16 GetField : string_field : String</text>
</g>
<!-- node6&#45;&gt;node16 -->
<g id="edge11" class="edge">
<title>node6&#45;&gt;node16</title>
<path fill="none" stroke="black" d="M2226.08,-381.47C2004.62,-379.03 1122.86,-367.24 399.43,-328 376.74,-326.77 352.71,-325.15 329.29,-323.41"/>
<polygon fill="black" stroke="black" points="329.53,-319.92 319.29,-322.65 329,-326.9 329.53,-319.92"/>
<text text-anchor="middle" x="338.01" y="-311.89" font-family="Times,serif" font-size="14.00">*0</text>
</g>
<!-- node15 -->
<g id="node8" class="node">
<title>node15</title>
<polygon fill="orange" stroke="black" points="792.53,-302.54 792.53,-317.46 680,-328 520.85,-328 408.32,-317.46 408.32,-302.54 520.85,-292 680,-292 792.53,-302.54"/>
<text text-anchor="middle" x="600.43" y="-306.3" font-family="Times,serif" font-size="14.00">#15 GetField : double_field : double</text>
</g>
<!-- node6&#45;&gt;node15 -->
<g id="edge13" class="edge">
<title>node6&#45;&gt;node15</title>
<path fill="none" stroke="black" d="M2226.34,-380.84C2037.2,-376.48 1368.88,-359.63 818.43,-328 795.63,-326.69 771.5,-325.06 747.94,-323.32"/>
<polygon fill="black" stroke="black" points="748.11,-319.83 737.88,-322.58 747.59,-326.81 748.11,-319.83"/>
<text text-anchor="middle" x="756.58" y="-311.79" font-family="Times,serif" font-size="14.00">*0</text>
</g>
<!-- node14 -->
<g id="node9" class="node">
<title>node14</title>
<polygon fill="orange" stroke="black" points="1165.1,-302.54 1165.1,-317.46 1066.29,-328 926.56,-328 827.75,-317.46 827.75,-302.54 926.56,-292 1066.29,-292 1165.1,-302.54"/>
<text text-anchor="middle" x="996.43" y="-306.3" font-family="Times,serif" font-size="14.00">#14 GetField : float_field : float</text>
</g>
<!-- node6&#45;&gt;node14 -->
<g id="edge15" class="edge">
<title>node6&#45;&gt;node14</title>
<path fill="none" stroke="black" d="M2226.34,-380.1C2069.7,-374.25 1589.18,-355.21 1191.43,-328 1171.32,-326.62 1150.07,-324.97 1129.28,-323.25"/>
<polygon fill="black" stroke="black" points="1129.37,-319.75 1119.12,-322.4 1128.79,-326.72 1129.37,-319.75"/>
<text text-anchor="middle" x="1137.89" y="-311.79" font-family="Times,serif" font-size="14.00">*0</text>
</g>
<!-- node13 -->
<g id="node10" class="node">
<title>node13</title>
<polygon fill="orange" stroke="black" points="1536.7,-302.54 1536.7,-317.46 1438.13,-328 1298.73,-328 1200.16,-317.46 1200.16,-302.54 1298.73,-292 1438.13,-292 1536.7,-302.54"/>
<text text-anchor="middle" x="1368.43" y="-306.3" font-family="Times,serif" font-size="14.00">#13 GetField : long_field : long</text>
</g>
<!-- node6&#45;&gt;node13 -->
<g id="edge17" class="edge">
<title>node6&#45;&gt;node13</title>
<path fill="none" stroke="black" d="M2225.93,-378.24C2107.65,-369.74 1811.27,-348.16 1563.43,-328 1544.08,-326.43 1523.67,-324.71 1503.62,-322.99"/>
<polygon fill="black" stroke="black" points="1503.76,-319.49 1493.5,-322.12 1503.16,-326.46 1503.76,-319.49"/>
<text text-anchor="middle" x="1512.28" y="-311.55" font-family="Times,serif" font-size="14.00">*0</text>
</g>
<!-- node12 -->
<g id="node11" class="node">
<title>node12</title>
<polygon fill="orange" stroke="black" points="1876.33,-302.54 1876.33,-317.46 1787.35,-328 1661.5,-328 1572.52,-317.46 1572.52,-302.54 1661.5,-292 1787.35,-292 1876.33,-302.54"/>
<text text-anchor="middle" x="1724.43" y="-306.3" font-family="Times,serif" font-size="14.00">#12 GetField : int_field : int</text>
</g>
<!-- node6&#45;&gt;node12 -->
<g id="edge19" class="edge">
<title>node6&#45;&gt;node12</title>
<path fill="none" stroke="black" d="M2226.31,-375.32C2136.93,-363.87 1952.59,-340.24 1833.93,-325.03"/>
<polygon fill="black" stroke="black" points="1834.09,-321.53 1823.72,-323.73 1833.2,-328.47 1834.09,-321.53"/>
<text text-anchor="middle" x="1842.78" y="-313.95" font-family="Times,serif" font-size="14.00">*0</text>
</g>
<!-- node11 -->
<g id="node12" class="node">
<title>node11</title>
<polygon fill="orange" stroke="black" points="2249.1,-302.54 2249.1,-317.46 2150.29,-328 2010.56,-328 1911.75,-317.46 1911.75,-302.54 2010.56,-292 2150.29,-292 2249.1,-302.54"/>
<text text-anchor="middle" x="2080.43" y="-306.3" font-family="Times,serif" font-size="14.00">#11 GetField : char_field : char</text>
</g>
<!-- node6&#45;&gt;node11 -->
<g id="edge21" class="edge">
<title>node6&#45;&gt;node11</title>
<path fill="none" stroke="black" d="M2243.48,-369.47C2214.16,-358.95 2171.69,-343.72 2137.44,-331.44"/>
<polygon fill="black" stroke="black" points="2138.61,-328.15 2128.02,-328.07 2136.25,-334.74 2138.61,-328.15"/>
<text text-anchor="middle" x="2147.93" y="-322.53" font-family="Times,serif" font-size="14.00">*0</text>
</g>
<!-- node10 -->
<g id="node13" class="node">
<title>node10</title>
<polygon fill="orange" stroke="black" points="2639.49,-302.54 2639.49,-317.46 2535.77,-328 2389.08,-328 2285.37,-317.46 2285.37,-302.54 2389.08,-292 2535.77,-292 2639.49,-302.54"/>
<text text-anchor="middle" x="2462.43" y="-306.3" font-family="Times,serif" font-size="14.00">#10 GetField : short_field : short</text>
</g>
<!-- node6&#45;&gt;node10 -->
<g id="edge23" class="edge">
<title>node6&#45;&gt;node10</title>
<path fill="none" stroke="black" d="M2312.17,-368.98C2339.16,-358.57 2377.5,-343.77 2408.7,-331.73"/>
<polygon fill="black" stroke="black" points="2410.06,-334.96 2418.13,-328.09 2407.54,-328.43 2410.06,-334.96"/>
<text text-anchor="middle" x="2404.26" y="-338.8" font-family="Times,serif" font-size="14.00">*0</text>
</g>
<!-- node9 -->
<g id="node14" class="node">
<title>node9</title>
<polygon fill="orange" stroke="black" points="3067.47,-302.54 3067.47,-317.46 2952.63,-328 2790.22,-328 2675.38,-317.46 2675.38,-302.54 2790.22,-292 2952.63,-292 3067.47,-302.54"/>
<text text-anchor="middle" x="2871.43" y="-306.3" font-family="Times,serif" font-size="14.00">#9 GetField : boolean_field : boolean</text>
</g>
<!-- node6&#45;&gt;node9 -->
<g id="edge25" class="edge">
<title>node6&#45;&gt;node9</title>
<path fill="none" stroke="black" d="M2330.53,-375.76C2422.67,-364.73 2616.77,-341.49 2745.63,-326.06"/>
<polygon fill="black" stroke="black" points="2746.05,-329.54 2755.56,-324.87 2745.22,-322.59 2746.05,-329.54"/>
<text text-anchor="middle" x="2738.57" y="-331.72" font-family="Times,serif" font-size="14.00">*0</text>
</g>
<!-- node6&#45;&gt;node8 -->
<g id="edge27" class="edge">
<title>node6&#45;&gt;node8</title>
<path fill="none" stroke="black" d="M2330.74,-378.86C2458.29,-371.12 2795.41,-350.14 3076.43,-328 3095.53,-326.49 3115.71,-324.8 3135.5,-323.07"/>
<polygon fill="black" stroke="black" points="3135.82,-326.55 3145.48,-322.19 3135.21,-319.58 3135.82,-326.55"/>
<text text-anchor="middle" x="3128.16" y="-328.5" font-family="Times,serif" font-size="14.00">*0</text>
</g>
<!-- node17 -->
<g id="node18" class="node">
<title>node17</title>
<polygon fill="orange" stroke="black" points="3790.64,-302.54 3790.64,-317.46 3689.76,-328 3547.09,-328 3446.21,-317.46 3446.21,-302.54 3547.09,-292 3689.76,-292 3790.64,-302.54"/>
<text text-anchor="middle" x="3618.43" y="-306.3" font-family="Times,serif" font-size="14.00">#17 GetField : array_field : int[]</text>
</g>
<!-- node6&#45;&gt;node17 -->
<g id="edge46" class="edge">
<title>node6&#45;&gt;node17</title>
<path fill="none" stroke="black" d="M2330.75,-380.44C2494.34,-375.38 3010.68,-357.97 3437.43,-328 3454.14,-326.83 3471.7,-325.41 3489.05,-323.9"/>
<polygon fill="black" stroke="black" points="3489.57,-327.37 3499.22,-323 3488.95,-320.39 3489.57,-327.37"/>
<text text-anchor="middle" x="3481.91" y="-329.31" font-family="Times,serif" font-size="14.00">*0</text>
</g>
<!-- node20 -->
<g id="node16" class="node">
<title>node20</title>
<polygon fill="lightgrey" stroke="black" points="2765.93,-109 1964.93,-109 1964.93,-73 2765.93,-73 2765.93,-109"/>
<text text-anchor="middle" x="2365.43" y="-87.3" font-family="Times,serif" font-size="14.00">#20 Invoke static simple_method_return_byte : (byte,boolean,short,char,int,long,float,double,String,int[])byte</text>
</g>
<!-- node16&#45;&gt;node20 -->
<g id="edge38" class="edge">
<title>node16&#45;&gt;node20</title>
<path fill="none" stroke="black" d="M283.73,-293.88C493.58,-261.81 1004.62,-186.57 1435.43,-146 1605.07,-130.03 1792.6,-118.05 1954.55,-109.5"/>
<polygon fill="black" stroke="black" points="1954.89,-112.98 1964.69,-108.96 1954.52,-105.99 1954.89,-112.98"/>
<text text-anchor="middle" x="1947.03" y="-114.66" font-family="Times,serif" font-size="14.00">*9</text>
</g>
<!-- node16&#45;&gt;node17 -->
<g id="edge47" class="edge">
<title>node16&#45;&gt;node17</title>
<path fill="none" stroke="green" d="M271.41,-327.31C312.59,-334.84 362.88,-342.78 408.43,-346.5 575.65,-360.16 3261.4,-362.4 3428.43,-346.5 3463.27,-343.18 3501.24,-336.52 3534.01,-329.78"/>
<polygon fill="green" stroke="green" points="3534.93,-333.16 3544,-327.69 3533.49,-326.31 3534.93,-333.16"/>
</g>
<!-- node15&#45;&gt;node16 -->
<g id="edge12" class="edge">
<title>node15&#45;&gt;node16</title>
<path fill="none" stroke="green" d="M408.37,-310C399.85,-310 391.33,-310 382.81,-310"/>
<polygon fill="green" stroke="green" points="382.81,-306.5 372.81,-310 382.81,-313.5 382.81,-306.5"/>
</g>
<!-- node15&#45;&gt;node20 -->
<g id="edge37" class="edge">
<title>node15&#45;&gt;node20</title>
<path fill="none" stroke="black" d="M694.91,-293.34C887.9,-261.79 1341.44,-189.86 1724.43,-146 1851.91,-131.4 1994.09,-119.03 2112.09,-109.82"/>
<polygon fill="black" stroke="black" points="2112.64,-113.29 2122.34,-109.03 2112.1,-106.31 2112.64,-113.29"/>
<text text-anchor="middle" x="2104.92" y="-115.16" font-family="Times,serif" font-size="14.00">*8</text>
</g>
<!-- node14&#45;&gt;node15 -->
<g id="edge14" class="edge">
<title>node14&#45;&gt;node15</title>
<path fill="none" stroke="green" d="M827.65,-310C819.35,-310 811.05,-310 802.75,-310"/>
<polygon fill="green" stroke="green" points="802.62,-306.5 792.62,-310 802.62,-313.5 802.62,-306.5"/>
</g>
<!-- node14&#45;&gt;node20 -->
<g id="edge36" class="edge">
<title>node14&#45;&gt;node20</title>
<path fill="none" stroke="black" d="M1080.38,-293.47C1246.16,-263.06 1627.41,-194.42 1949.43,-146 2036.62,-132.89 2134.39,-120.1 2213.22,-110.26"/>
<polygon fill="black" stroke="black" points="2213.74,-113.73 2223.23,-109.02 2212.87,-106.78 2213.74,-113.73"/>
<text text-anchor="middle" x="2206.29" y="-115.94" font-family="Times,serif" font-size="14.00">*7</text>
</g>
<!-- node13&#45;&gt;node14 -->
<g id="edge16" class="edge">
<title>node13&#45;&gt;node14</title>
<path fill="none" stroke="green" d="M1200.25,-310C1191.98,-310 1183.71,-310 1175.44,-310"/>
<polygon fill="green" stroke="green" points="1175.35,-306.5 1165.35,-310 1175.35,-313.5 1175.35,-306.5"/>
</g>
<!-- node13&#45;&gt;node20 -->
<g id="edge35" class="edge">
<title>node13&#45;&gt;node20</title>
<path fill="none" stroke="black" d="M1443.77,-292.6C1624.91,-253.17 2084.1,-153.23 2277.46,-111.15"/>
<polygon fill="black" stroke="black" points="2278.27,-114.55 2287.3,-109 2276.78,-107.71 2278.27,-114.55"/>
<text text-anchor="middle" x="2271.39" y="-117.42" font-family="Times,serif" font-size="14.00">*6</text>
</g>
<!-- node12&#45;&gt;node13 -->
<g id="edge18" class="edge">
<title>node12&#45;&gt;node13</title>
<path fill="none" stroke="green" d="M1572.26,-310C1563.74,-310 1555.22,-310 1546.69,-310"/>
<polygon fill="green" stroke="green" points="1546.69,-306.5 1536.69,-310 1546.69,-313.5 1546.69,-306.5"/>
</g>
<!-- node12&#45;&gt;node20 -->
<g id="edge34" class="edge">
<title>node12&#45;&gt;node20</title>
<path fill="none" stroke="black" d="M1846.58,-298.99C1886.88,-293.76 1931.58,-285.87 1971.43,-274 2099.85,-235.73 2122.57,-201.75 2244.43,-146 2268.4,-135.03 2295.17,-123.06 2317.42,-113.18"/>
<polygon fill="black" stroke="black" points="2318.93,-116.34 2326.65,-109.08 2316.09,-109.94 2318.93,-116.34"/>
<text text-anchor="middle" x="2313.51" y="-120.46" font-family="Times,serif" font-size="14.00">*5</text>
</g>
<!-- node11&#45;&gt;node12 -->
<g id="edge20" class="edge">
<title>node11&#45;&gt;node12</title>
<path fill="none" stroke="green" d="M1911.43,-310C1903.11,-310 1894.8,-310 1886.49,-310"/>
<polygon fill="green" stroke="green" points="1886.35,-306.5 1876.35,-310 1886.35,-313.5 1886.35,-306.5"/>
</g>
<!-- node11&#45;&gt;node20 -->
<g id="edge33" class="edge">
<title>node11&#45;&gt;node20</title>
<path fill="none" stroke="black" d="M2102.79,-291.97C2153.44,-253.4 2277.01,-159.32 2334.75,-115.36"/>
<polygon fill="black" stroke="black" points="2336.94,-118.09 2342.77,-109.25 2332.7,-112.52 2336.94,-118.09"/>
<text text-anchor="middle" x="2333.47" y="-123.25" font-family="Times,serif" font-size="14.00">*4</text>
</g>
<!-- node10&#45;&gt;node11 -->
<g id="edge22" class="edge">
<title>node10&#45;&gt;node11</title>
<path fill="none" stroke="green" d="M2285.19,-310C2276.62,-310 2268.05,-310 2259.48,-310"/>
<polygon fill="green" stroke="green" points="2259.42,-306.5 2249.42,-310 2259.42,-313.5 2259.42,-306.5"/>
</g>
<!-- node10&#45;&gt;node20 -->
<g id="edge32" class="edge">
<title>node10&#45;&gt;node20</title>
<path fill="none" stroke="black" d="M2454.81,-291.97C2437.96,-254.27 2397.4,-163.54 2377.23,-118.41"/>
<polygon fill="black" stroke="black" points="2380.41,-116.95 2373.14,-109.25 2374.02,-119.81 2380.41,-116.95"/>
<text text-anchor="middle" x="2388.25" y="-118.65" font-family="Times,serif" font-size="14.00">*3</text>
</g>
<!-- node9&#45;&gt;node10 -->
<g id="edge24" class="edge">
<title>node9&#45;&gt;node10</title>
<path fill="none" stroke="green" d="M2675.06,-310C2666.69,-310 2658.33,-310 2649.97,-310"/>
<polygon fill="green" stroke="green" points="2649.77,-306.5 2639.77,-310 2649.77,-313.5 2649.77,-306.5"/>
</g>
<!-- node9&#45;&gt;node20 -->
<g id="edge31" class="edge">
<title>node9&#45;&gt;node20</title>
<path fill="none" stroke="black" d="M2831.72,-291.97C2740.2,-252.72 2514.63,-155.99 2414.58,-113.08"/>
<polygon fill="black" stroke="black" points="2415.87,-109.82 2405.3,-109.1 2413.11,-116.26 2415.87,-109.82"/>
<text text-anchor="middle" x="2425.29" y="-104.77" font-family="Times,serif" font-size="14.00">*2</text>
</g>
<!-- node8&#45;&gt;node9 -->
<g id="edge26" class="edge">
<title>node8&#45;&gt;node9</title>
<path fill="none" stroke="green" d="M3102.81,-310C3094.48,-310 3086.15,-310 3077.82,-310"/>
<polygon fill="green" stroke="green" points="3077.66,-306.5 3067.66,-310 3077.66,-313.5 3077.66,-306.5"/>
</g>
<!-- node8&#45;&gt;node20 -->
<g id="edge30" class="edge">
<title>node8&#45;&gt;node20</title>
<path fill="none" stroke="black" d="M3195.55,-292.15C3031.17,-252.52 2620.69,-153.55 2446.08,-111.45"/>
<polygon fill="black" stroke="black" points="2446.73,-108 2436.19,-109.06 2445.09,-114.81 2446.73,-108"/>
<text text-anchor="middle" x="2455.79" y="-101.39" font-family="Times,serif" font-size="14.00">*1</text>
</g>
<!-- node21 -->
<g id="node21" class="node">
<title>node21</title>
<polygon fill="lightgrey" stroke="black" points="2451.93,-36 2278.93,-36 2278.93,0 2451.93,0 2451.93,-36"/>
<text text-anchor="middle" x="2365.43" y="-14.3" font-family="Times,serif" font-size="14.00">#21 ReturnValue : int</text>
</g>
<!-- node20&#45;&gt;node21 -->
<g id="edge49" class="edge">
<title>node20&#45;&gt;node21</title>
<path fill="none" stroke="black" d="M2353.67,-72.81C2351.99,-64.79 2351.52,-55.05 2352.27,-46.07"/>
<polygon fill="black" stroke="black" points="2355.75,-46.42 2353.7,-36.03 2348.82,-45.43 2355.75,-46.42"/>
<text text-anchor="middle" x="2359.51" y="-51.47" font-family="Times,serif" font-size="14.00">*0</text>
</g>
<!-- node20&#45;&gt;node21 -->
<g id="edge50" class="edge">
<title>node20&#45;&gt;node21</title>
<path fill="none" stroke="red" d="M2365.43,-72.81C2365.43,-64.79 2365.43,-55.05 2365.43,-46.07"/>
<polygon fill="red" stroke="red" points="2368.93,-46.03 2365.43,-36.03 2361.93,-46.03 2368.93,-46.03"/>
</g>
<!-- node20&#45;&gt;node21 -->
<g id="edge51" class="edge">
<title>node20&#45;&gt;node21</title>
<path fill="none" stroke="green" d="M2377.18,-72.81C2378.86,-64.79 2379.33,-55.05 2378.58,-46.07"/>
<polygon fill="green" stroke="green" points="2382.03,-45.43 2377.15,-36.03 2375.1,-46.42 2382.03,-45.43"/>
</g>
<!-- node19 -->
<g id="node17" class="node">
<title>node19</title>
<polygon fill="lightgrey" stroke="black" points="3669.43,-182 3555.43,-182 3555.43,-146 3669.43,-146 3669.43,-182"/>
<text text-anchor="middle" x="3612.43" y="-160.3" font-family="Times,serif" font-size="14.00">#19 ClassInit</text>
</g>
<!-- node19&#45;&gt;node20 -->
<g id="edge29" class="edge">
<title>node19&#45;&gt;node20</title>
<path fill="none" stroke="black" d="M3555.23,-156.84C3487.66,-148.65 3373.38,-134.36 3275.43,-127 3112.31,-114.74 2932.72,-106.7 2776.46,-101.46"/>
<polygon fill="black" stroke="black" points="2776.31,-97.95 2766.2,-101.12 2776.08,-104.95 2776.31,-97.95"/>
<text text-anchor="middle" x="2784.6" y="-89.57" font-family="Times,serif" font-size="14.00">*0</text>
</g>
<!-- node19&#45;&gt;node20 -->
<g id="edge40" class="edge">
<title>node19&#45;&gt;node20</title>
<path fill="none" stroke="green" d="M3555.21,-155.24C3491.46,-146.9 3385.27,-133.9 3293.43,-127 3124.34,-114.29 2937.55,-106.11 2776.15,-100.89"/>
<polygon fill="green" stroke="green" points="2776.15,-97.39 2766.05,-100.57 2775.93,-104.39 2776.15,-97.39"/>
</g>
<!-- node19&#45;&gt;node20 -->
<g id="edge41" class="edge">
<title>node19&#45;&gt;node20</title>
<path fill="none" stroke="red" d="M3555.4,-153.43C3494.75,-145.12 3396.87,-133.42 3311.43,-127 3136.63,-113.86 2942.92,-105.57 2776.51,-100.38"/>
<polygon fill="red" stroke="red" points="2776.2,-96.86 2766.1,-100.05 2775.98,-103.86 2776.2,-96.86"/>
</g>
<!-- node17&#45;&gt;node20 -->
<g id="edge39" class="edge">
<title>node17&#45;&gt;node20</title>
<path fill="none" stroke="black" d="M3530.4,-293.67C3364.13,-264.73 2992.47,-200.09 2679.43,-146 2611.4,-134.25 2535.07,-121.12 2474.71,-110.75"/>
<polygon fill="black" stroke="black" points="2475.23,-107.29 2464.78,-109.05 2474.04,-114.19 2475.23,-107.29"/>
<text text-anchor="middle" x="2484.07" y="-100.08" font-family="Times,serif" font-size="14.00">*10</text>
</g>
<!-- node17&#45;&gt;node19 -->
<g id="edge43" class="edge">
<title>node17&#45;&gt;node19</title>
<path fill="none" stroke="green" d="M3697.57,-292.75C3747.53,-278.67 3798.16,-254.85 3772.43,-219 3751.35,-189.65 3713.48,-176.04 3679.88,-169.82"/>
<polygon fill="green" stroke="green" points="3680.05,-166.3 3669.61,-168.12 3678.9,-173.21 3680.05,-166.3"/>
</g>
<!-- node5&#45;&gt;node19 -->
<g id="edge42" class="edge">
<title>node5&#45;&gt;node19</title>
<path fill="none" stroke="black" d="M4086.43,-510.78C4086.43,-496.41 4086.43,-475.37 4086.43,-457 4086.43,-457 4086.43,-457 4086.43,-236 4086.43,-195.39 3810.8,-175.43 3679.91,-168.24"/>
<polygon fill="black" stroke="black" points="3679.78,-164.73 3669.6,-167.68 3679.4,-171.72 3679.78,-164.73"/>
<text text-anchor="middle" x="3688.16" y="-156.52" font-family="Times,serif" font-size="14.00">*0</text>
</g>
<!-- node18&#45;&gt;node19 -->
<g id="edge44" class="edge">
<title>node18&#45;&gt;node19</title>
<path fill="none" stroke="red" d="M3678.37,-218.81C3667.25,-209.74 3653.45,-198.48 3641.34,-188.6"/>
<polygon fill="red" stroke="red" points="3643.25,-185.64 3633.29,-182.03 3638.83,-191.06 3643.25,-185.64"/>
</g>
<!-- c0 -->
<!-- c1 -->
<!-- c0&#45;&gt;c1 -->
<g id="edge52" class="edge">
<title>c0&#45;&gt;c1</title>
<path fill="none" stroke="red" d="M4991.32,-611C5002.53,-611 5060.67,-611 5086.28,-611"/>
<polygon fill="red" stroke="red" points="5086.48,-614.5 5096.48,-611 5086.48,-607.5 5086.48,-614.5"/>
<text text-anchor="middle" x="5043.93" y="-617.8" font-family="Times,serif" font-size="14.00">Control flow</text>
</g>
<!-- c2 -->
<!-- c3 -->
<!-- c2&#45;&gt;c3 -->
<g id="edge53" class="edge">
<title>c2&#45;&gt;c3</title>
<path fill="none" stroke="red" stroke-dasharray="5,2" d="M4784.5,-611C4801.47,-611 4917.63,-611 4955.51,-611"/>
<polygon fill="red" stroke="red" points="4955.59,-614.5 4965.59,-611 4955.59,-607.5 4955.59,-614.5"/>
<text text-anchor="middle" x="4874.93" y="-617.8" font-family="Times,serif" font-size="14.00">Control flow back edge</text>
</g>
<!-- d0 -->
<!-- d1 -->
<!-- d0&#45;&gt;d1 -->
<g id="edge54" class="edge">
<title>d0&#45;&gt;d1</title>
<path fill="none" stroke="black" d="M4673.28,-611C4682.83,-611 4726.73,-611 4748.34,-611"/>
<polygon fill="black" stroke="black" points="4748.58,-614.5 4758.58,-611 4748.58,-607.5 4748.58,-614.5"/>
<text text-anchor="middle" x="4715.93" y="-617.8" font-family="Times,serif" font-size="14.00">Data flow</text>
</g>
<!-- d2 -->
<!-- d3 -->
<!-- d2&#45;&gt;d3 -->
<g id="edge55" class="edge">
<title>d2&#45;&gt;d3</title>
<path fill="none" stroke="black" stroke-dasharray="1,5" d="M4547.23,-611C4557.88,-611 4612.89,-611 4637.5,-611"/>
<polygon fill="black" stroke="black" points="4637.57,-614.5 4647.57,-611 4637.57,-607.5 4637.57,-614.5"/>
<text text-anchor="middle" x="4597.43" y="-617.8" font-family="Times,serif" font-size="14.00">Declaration</text>
</g>
<!-- d4 -->
<!-- d5 -->
<!-- d4&#45;&gt;d5 -->
<g id="edge56" class="edge">
<title>d4&#45;&gt;d5</title>
<path fill="none" stroke="blue" d="M4404.53,-611C4417.15,-611 4483.31,-611 4511.11,-611"/>
<polygon fill="blue" stroke="blue" points="4511.27,-614.5 4521.27,-611 4511.27,-607.5 4511.27,-614.5"/>
<text text-anchor="middle" x="4462.93" y="-617.8" font-family="Times,serif" font-size="14.00">PHI Data flow</text>
</g>
<!-- d6 -->
<!-- d7 -->
<!-- d6&#45;&gt;d7 -->
<g id="edge57" class="edge">
<title>d6&#45;&gt;d7</title>
<path fill="none" stroke="green" d="M4267.42,-611C4279.36,-611 4341.73,-611 4368.35,-611"/>
<polygon fill="green" stroke="green" points="4368.37,-614.5 4378.37,-611 4368.37,-607.5 4368.37,-614.5"/>
<text text-anchor="middle" x="4322.93" y="-617.8" font-family="Times,serif" font-size="14.00">Memory flow</text>
</g>
</g>
</svg>
