<?xml version="1.0" encoding="UTF-8" standalone="no"?>
<!DOCTYPE svg PUBLIC "-//W3C//DTD SVG 1.1//EN"
 "http://www.w3.org/Graphics/SVG/1.1/DTD/svg11.dtd">
<!-- Generated by graphviz version 2.43.0 (0)
 -->
<!-- Title: %3 Pages: 1 -->
<svg width="5124pt" height="662pt"
 viewBox="0.00 0.00 5124.05 662.00" xmlns="http://www.w3.org/2000/svg" xmlns:xlink="http://www.w3.org/1999/xlink">
<g id="graph0" class="graph" transform="scale(1 1) rotate(0) translate(4 658)">
<title>%3</title>
<polygon fill="white" stroke="transparent" points="-4,4 -4,-658 5120.05,-658 5120.05,4 -4,4"/>
<g id="clust1" class="cluster">
<title>cluster_0</title>
<polygon fill="none" stroke="lightgray" points="3521.05,-503 3521.05,-646 4247.05,-646 4247.05,-503 3521.05,-503"/>
</g>
<g id="clust2" class="cluster">
<title>cluster_000</title>
<polygon fill="none" stroke="black" points="4255.05,-601.2 4255.05,-643.8 5108.05,-643.8 5108.05,-601.2 4255.05,-601.2"/>
<text text-anchor="middle" x="4681.55" y="-628.6" font-family="Times,serif" font-size="14.00">Legend</text>
</g>
<!-- node0 -->
<g id="node1" class="node">
<title>node0</title>
<polygon fill="lightgrey" stroke="transparent" points="3814.55,-638 3629.55,-638 3629.55,-584 3814.55,-584 3814.55,-638"/>
<polygon fill="none" stroke="black" points="3630.05,-611 3630.05,-638 3815.05,-638 3815.05,-611 3630.05,-611"/>
<text text-anchor="start" x="3682.05" y="-620.8" font-family="Times,serif" font-size="14.00">#0 Method</text>
<polygon fill="yellow" stroke="transparent" points="3630.05,-584 3630.05,-611 3815.05,-611 3815.05,-584 3630.05,-584"/>
<polygon fill="none" stroke="black" points="3630.05,-584 3630.05,-611 3815.05,-611 3815.05,-584 3630.05,-584"/>
<text text-anchor="start" x="3636.05" y="-593.8" font-family="Times,serif" font-size="14.00">this : MethodInvokeTest</text>
</g>
<!-- node2 -->
<g id="node2" class="node">
<title>node2</title>
<polygon fill="lightgrey" stroke="black" points="3510.55,-547 3391.55,-547 3391.55,-511 3510.55,-511 3510.55,-547"/>
<text text-anchor="middle" x="3451.05" y="-525.3" font-family="Times,serif" font-size="14.00">#2 LabelNode</text>
</g>
<!-- node0&#45;&gt;node2 -->
<g id="edge1" class="edge">
<title>node0&#45;&gt;node2</title>
<path fill="none" stroke="red" d="M3633.69,-583.92C3596.28,-572.87 3553.39,-560.21 3518.57,-549.93"/>
<polygon fill="red" stroke="red" points="3519.56,-546.57 3508.98,-547.1 3517.58,-553.29 3519.56,-546.57"/>
</g>
<!-- node4 -->
<g id="node3" class="node">
<title>node4</title>
<polygon fill="lightgrey" stroke="black" points="3747.55,-474 3642.55,-474 3642.55,-438 3747.55,-438 3747.55,-474"/>
<text text-anchor="middle" x="3695.05" y="-452.3" font-family="Times,serif" font-size="14.00">#4 ClassInit</text>
</g>
<!-- node0&#45;&gt;node4 -->
<g id="edge4" class="edge">
<title>node0&#45;&gt;node4</title>
<path fill="none" stroke="green" d="M3814.77,-605.48C3958.05,-597.52 4219.84,-578.8 4248.05,-547 4261.03,-532.37 4261.3,-517.39 4248.05,-503 4215.43,-467.55 3896.14,-459.41 3758.1,-457.55"/>
<polygon fill="green" stroke="green" points="3757.73,-454.05 3747.69,-457.42 3757.64,-461.05 3757.73,-454.05"/>
</g>
<!-- node3 -->
<g id="node4" class="node">
<title>node3</title>
<polygon fill="lightgreen" stroke="black" points="3915.47,-521.54 3915.47,-536.46 3802.17,-547 3641.94,-547 3528.63,-536.46 3528.63,-521.54 3641.94,-511 3802.17,-511 3915.47,-521.54"/>
<text text-anchor="middle" x="3722.05" y="-525.3" font-family="Times,serif" font-size="14.00">#3 Class MethodInvokeTest$Source</text>
</g>
<!-- node0&#45;&gt;node3 -->
<g id="edge5" class="edge">
<title>node0&#45;&gt;node3</title>
<path fill="none" stroke="black" stroke-dasharray="1,5" d="M3722.05,-583.81C3722.05,-575.35 3722.05,-565.95 3722.05,-557.4"/>
<polygon fill="black" stroke="black" points="3725.55,-557.17 3722.05,-547.17 3718.55,-557.17 3725.55,-557.17"/>
</g>
<!-- node5 -->
<g id="node19" class="node">
<title>node5</title>
<polygon fill="lightgreen" stroke="black" points="4238.87,-521.54 4238.87,-536.46 4149.35,-547 4022.76,-547 3933.24,-536.46 3933.24,-521.54 4022.76,-511 4149.35,-511 4238.87,-521.54"/>
<text text-anchor="middle" x="4086.05" y="-525.3" font-family="Times,serif" font-size="14.00">#5 Class MethodInvokeTest</text>
</g>
<!-- node0&#45;&gt;node5 -->
<g id="edge48" class="edge">
<title>node0&#45;&gt;node5</title>
<path fill="none" stroke="black" stroke-dasharray="1,5" d="M3814.85,-589.61C3873.07,-576.81 3947.47,-560.46 4003.61,-548.12"/>
<polygon fill="black" stroke="black" points="4004.5,-551.51 4013.52,-545.94 4003,-544.67 4004.5,-551.51"/>
</g>
<!-- node2&#45;&gt;node4 -->
<g id="edge3" class="edge">
<title>node2&#45;&gt;node4</title>
<path fill="none" stroke="red" d="M3494.13,-510.91C3501.72,-508.12 3509.58,-505.37 3517.05,-503 3554.99,-490.95 3598.2,-479.73 3632.54,-471.38"/>
<polygon fill="red" stroke="red" points="3633.54,-474.74 3642.44,-469 3631.9,-467.94 3633.54,-474.74"/>
</g>
<!-- node7 -->
<g id="node5" class="node">
<title>node7</title>
<polygon fill="lightgrey" stroke="black" points="4058.05,-328 3808.05,-328 3808.05,-292 4058.05,-292 4058.05,-328"/>
<text text-anchor="middle" x="3933.05" y="-306.3" font-family="Times,serif" font-size="14.00">#7 Invoke special &lt;init&gt; : ()void</text>
</g>
<!-- node4&#45;&gt;node7 -->
<g id="edge7" class="edge">
<title>node4&#45;&gt;node7</title>
<path fill="none" stroke="red" d="M3723.29,-437.92C3766.32,-411.88 3848.34,-362.26 3896.07,-333.38"/>
<polygon fill="red" stroke="red" points="3898.11,-336.23 3904.85,-328.06 3894.49,-330.24 3898.11,-336.23"/>
</g>
<!-- node6 -->
<g id="node6" class="node">
<title>node6</title>
<polygon fill="orange" stroke="black" points="2317.17,-375.54 2317.17,-390.46 2286.64,-401 2243.47,-401 2212.94,-390.46 2212.94,-375.54 2243.47,-365 2286.64,-365 2317.17,-375.54"/>
<text text-anchor="middle" x="2265.05" y="-379.3" font-family="Times,serif" font-size="14.00">#6 New</text>
</g>
<!-- node4&#45;&gt;node6 -->
<g id="edge9" class="edge">
<title>node4&#45;&gt;node6</title>
<path fill="none" stroke="black" d="M3642.31,-452.51C3420.74,-441.78 2566.4,-399.36 2327.43,-387.25"/>
<polygon fill="black" stroke="black" points="2327.35,-383.74 2317.19,-386.73 2327,-390.73 2327.35,-383.74"/>
<text text-anchor="middle" x="2335.72" y="-375.51" font-family="Times,serif" font-size="14.00">*0</text>
</g>
<!-- node4&#45;&gt;node6 -->
<g id="edge10" class="edge">
<title>node4&#45;&gt;node6</title>
<path fill="none" stroke="green" d="M3642.26,-452.24C3420.7,-440.98 2567.02,-398.59 2327.7,-386.97"/>
<polygon fill="green" stroke="green" points="2327.6,-383.46 2317.44,-386.47 2327.26,-390.45 2327.6,-383.46"/>
</g>
<!-- node3&#45;&gt;node4 -->
<g id="edge2" class="edge">
<title>node3&#45;&gt;node4</title>
<path fill="none" stroke="black" d="M3715.52,-510.81C3712.4,-502.62 3708.6,-492.62 3705.13,-483.48"/>
<polygon fill="black" stroke="black" points="3708.36,-482.13 3701.53,-474.03 3701.81,-484.62 3708.36,-482.13"/>
<text text-anchor="middle" x="3715.87" y="-484.27" font-family="Times,serif" font-size="14.00">*0</text>
</g>
<!-- node8 -->
<g id="node14" class="node">
<title>node8</title>
<polygon fill="orange" stroke="black" points="3019.57,-302.54 3019.57,-317.46 2924.37,-328 2789.74,-328 2694.54,-317.46 2694.54,-302.54 2789.74,-292 2924.37,-292 3019.57,-302.54"/>
<text text-anchor="middle" x="2857.05" y="-306.3" font-family="Times,serif" font-size="14.00">#8 GetField : byte_field : byte</text>
</g>
<!-- node7&#45;&gt;node8 -->
<g id="edge26" class="edge">
<title>node7&#45;&gt;node8</title>
<path fill="none" stroke="green" d="M3875.93,-328.07C3850.01,-335.36 3818.78,-342.89 3790.05,-346.5 3624.25,-367.33 3204.34,-363.1 3038.05,-346.5 3004.95,-343.2 2968.95,-336.57 2937.83,-329.87"/>
<polygon fill="green" stroke="green" points="2938.43,-326.41 2927.91,-327.69 2936.93,-333.25 2938.43,-326.41"/>
</g>
<!-- node18 -->
<g id="node20" class="node">
<title>node18</title>
<polygon fill="lightgrey" stroke="black" points="3758.05,-255 3630.05,-255 3630.05,-219 3758.05,-219 3758.05,-255"/>
<text text-anchor="middle" x="3694.05" y="-233.3" font-family="Times,serif" font-size="14.00">#18 LabelNode</text>
</g>
<!-- node7&#45;&gt;node18 -->
<g id="edge43" class="edge">
<title>node7&#45;&gt;node18</title>
<path fill="none" stroke="red" d="M3875.81,-291.99C3841.47,-281.79 3797.63,-268.77 3761.6,-258.07"/>
<polygon fill="red" stroke="red" points="3762.24,-254.61 3751.66,-255.11 3760.25,-261.32 3762.24,-254.61"/>
</g>
<!-- node6&#45;&gt;node7 -->
<g id="edge6" class="edge">
<title>node6&#45;&gt;node7</title>
<path fill="none" stroke="black" d="M2317.36,-381.87C2512.22,-381 3213.66,-374.61 3790.05,-328 3792.61,-327.79 3795.19,-327.57 3797.8,-327.34"/>
<polygon fill="black" stroke="black" points="3798.29,-330.81 3807.92,-326.39 3797.64,-323.84 3798.29,-330.81"/>
<text text-anchor="middle" x="3790.66" y="-332.8" font-family="Times,serif" font-size="14.00">*0</text>
</g>
<!-- node6&#45;&gt;node7 -->
<g id="edge8" class="edge">
<title>node6&#45;&gt;node7</title>
<path fill="none" stroke="green" d="M2317.15,-381.9C2512.09,-381.15 3216.37,-375.24 3798.13,-328.8"/>
<polygon fill="green" stroke="green" points="3798.72,-332.26 3808.4,-327.97 3798.16,-325.28 3798.72,-332.26"/>
</g>
<!-- node15 -->
<g id="node7" class="node">
<title>node15</title>
<polygon fill="orange" stroke="black" points="384.16,-302.54 384.16,-317.46 271.63,-328 112.48,-328 -0.05,-317.46 -0.05,-302.54 112.48,-292 271.63,-292 384.16,-302.54"/>
<text text-anchor="middle" x="192.05" y="-306.3" font-family="Times,serif" font-size="14.00">#15 GetField : double_field : double</text>
</g>
<!-- node6&#45;&gt;node15 -->
<g id="edge11" class="edge">
<title>node6&#45;&gt;node15</title>
<path fill="none" stroke="black" d="M2212.64,-381.41C1992.8,-378.73 1123.48,-366.18 410.05,-328 387,-326.77 362.6,-325.16 338.79,-323.43"/>
<polygon fill="black" stroke="black" points="338.86,-319.92 328.63,-322.68 338.34,-326.9 338.86,-319.92"/>
<text text-anchor="middle" x="347.33" y="-311.88" font-family="Times,serif" font-size="14.00">*0</text>
</g>
<!-- node14 -->
<g id="node8" class="node">
<title>node14</title>
<polygon fill="orange" stroke="black" points="756.73,-302.54 756.73,-317.46 657.92,-328 518.19,-328 419.38,-317.46 419.38,-302.54 518.19,-292 657.92,-292 756.73,-302.54"/>
<text text-anchor="middle" x="588.05" y="-306.3" font-family="Times,serif" font-size="14.00">#14 GetField : float_field : float</text>
</g>
<!-- node6&#45;&gt;node14 -->
<g id="edge13" class="edge">
<title>node6&#45;&gt;node14</title>
<path fill="none" stroke="black" d="M2212.83,-381.05C2021.71,-377.38 1342.29,-362.54 783.05,-328 762.48,-326.73 740.72,-325.11 719.47,-323.37"/>
<polygon fill="black" stroke="black" points="719.68,-319.88 709.43,-322.54 719.1,-326.85 719.68,-319.88"/>
<text text-anchor="middle" x="728.19" y="-311.91" font-family="Times,serif" font-size="14.00">*0</text>
</g>
<!-- node13 -->
<g id="node9" class="node">
<title>node13</title>
<polygon fill="orange" stroke="black" points="1128.32,-302.54 1128.32,-317.46 1029.75,-328 890.35,-328 791.78,-317.46 791.78,-302.54 890.35,-292 1029.75,-292 1128.32,-302.54"/>
<text text-anchor="middle" x="960.05" y="-306.3" font-family="Times,serif" font-size="14.00">#13 GetField : long_field : long</text>
</g>
<!-- node6&#45;&gt;node13 -->
<g id="edge15" class="edge">
<title>node6&#45;&gt;node13</title>
<path fill="none" stroke="black" d="M2212.72,-380.17C2053.65,-374.44 1561.94,-355.62 1155.05,-328 1134.88,-326.63 1113.54,-324.98 1092.68,-323.25"/>
<polygon fill="black" stroke="black" points="1092.74,-319.74 1082.48,-322.4 1092.16,-326.72 1092.74,-319.74"/>
<text text-anchor="middle" x="1101.25" y="-311.79" font-family="Times,serif" font-size="14.00">*0</text>
</g>
<!-- node12 -->
<g id="node10" class="node">
<title>node12</title>
<polygon fill="orange" stroke="black" points="1467.96,-302.54 1467.96,-317.46 1378.98,-328 1253.13,-328 1164.14,-317.46 1164.14,-302.54 1253.13,-292 1378.98,-292 1467.96,-302.54"/>
<text text-anchor="middle" x="1316.05" y="-306.3" font-family="Times,serif" font-size="14.00">#12 GetField : int_field : int</text>
</g>
<!-- node6&#45;&gt;node12 -->
<g id="edge17" class="edge">
<title>node6&#45;&gt;node12</title>
<path fill="none" stroke="black" d="M2212.67,-378.79C2088.05,-371.05 1764.18,-350.36 1494.05,-328 1476.09,-326.51 1457.12,-324.83 1438.52,-323.11"/>
<polygon fill="black" stroke="black" points="1438.82,-319.62 1428.54,-322.18 1438.17,-326.59 1438.82,-319.62"/>
<text text-anchor="middle" x="1447.37" y="-311.74" font-family="Times,serif" font-size="14.00">*0</text>
</g>
<!-- node11 -->
<g id="node11" class="node">
<title>node11</title>
<polygon fill="orange" stroke="black" points="1840.73,-302.54 1840.73,-317.46 1741.92,-328 1602.19,-328 1503.38,-317.46 1503.38,-302.54 1602.19,-292 1741.92,-292 1840.73,-302.54"/>
<text text-anchor="middle" x="1672.05" y="-306.3" font-family="Times,serif" font-size="14.00">#11 GetField : char_field : char</text>
</g>
<!-- node6&#45;&gt;node11 -->
<g id="edge19" class="edge">
<title>node6&#45;&gt;node11</title>
<path fill="none" stroke="black" d="M2212.95,-375.76C2119.05,-364.52 1919.24,-340.6 1790.52,-325.18"/>
<polygon fill="black" stroke="black" points="1790.57,-321.66 1780.22,-323.95 1789.74,-328.62 1790.57,-321.66"/>
<text text-anchor="middle" x="1799.23" y="-314.01" font-family="Times,serif" font-size="14.00">*0</text>
</g>
<!-- node10 -->
<g id="node12" class="node">
<title>node10</title>
<polygon fill="orange" stroke="black" points="2231.11,-302.54 2231.11,-317.46 2127.39,-328 1980.71,-328 1876.99,-317.46 1876.99,-302.54 1980.71,-292 2127.39,-292 2231.11,-302.54"/>
<text text-anchor="middle" x="2054.05" y="-306.3" font-family="Times,serif" font-size="14.00">#10 GetField : short_field : short</text>
</g>
<!-- node6&#45;&gt;node10 -->
<g id="edge21" class="edge">
<title>node6&#45;&gt;node10</title>
<path fill="none" stroke="black" d="M2228.78,-369.79C2197.41,-359.24 2151.43,-343.77 2114.51,-331.34"/>
<polygon fill="black" stroke="black" points="2115.44,-327.96 2104.84,-328.09 2113.2,-334.6 2115.44,-327.96"/>
<text text-anchor="middle" x="2124.72" y="-322.16" font-family="Times,serif" font-size="14.00">*0</text>
</g>
<!-- node9 -->
<g id="node13" class="node">
<title>node9</title>
<polygon fill="orange" stroke="black" points="2659.1,-302.54 2659.1,-317.46 2544.26,-328 2381.85,-328 2267,-317.46 2267,-302.54 2381.85,-292 2544.26,-292 2659.1,-302.54"/>
<text text-anchor="middle" x="2463.05" y="-306.3" font-family="Times,serif" font-size="14.00">#9 GetField : boolean_field : boolean</text>
</g>
<!-- node6&#45;&gt;node9 -->
<g id="edge23" class="edge">
<title>node6&#45;&gt;node9</title>
<path fill="none" stroke="black" d="M2300,-369.47C2329.32,-358.95 2371.79,-343.72 2406.04,-331.44"/>
<polygon fill="black" stroke="black" points="2407.23,-334.74 2415.46,-328.07 2404.87,-328.15 2407.23,-334.74"/>
<text text-anchor="middle" x="2401.25" y="-338.44" font-family="Times,serif" font-size="14.00">*0</text>
</g>
<!-- node6&#45;&gt;node8 -->
<g id="edge25" class="edge">
<title>node6&#45;&gt;node8</title>
<path fill="none" stroke="black" d="M2317.33,-375.73C2411.62,-364.42 2612.29,-340.36 2740.6,-324.97"/>
<polygon fill="black" stroke="black" points="2741.35,-328.4 2750.86,-323.74 2740.52,-321.45 2741.35,-328.4"/>
<text text-anchor="middle" x="2733.87" y="-330.59" font-family="Times,serif" font-size="14.00">*0</text>
</g>
<!-- node16 -->
<g id="node17" class="node">
<title>node16</title>
<polygon fill="orange" stroke="black" points="3410.4,-302.54 3410.4,-317.46 3301.24,-328 3146.86,-328 3037.7,-317.46 3037.7,-302.54 3146.86,-292 3301.24,-292 3410.4,-302.54"/>
<text text-anchor="middle" x="3224.05" y="-306.3" font-family="Times,serif" font-size="14.00">#16 GetField : string_field : String</text>
</g>
<!-- node6&#45;&gt;node16 -->
<g id="edge46" class="edge">
<title>node6&#45;&gt;node16</title>
<path fill="none" stroke="black" d="M2317.41,-378.6C2441.2,-370.48 2761.62,-349.11 3029.05,-328 3046.19,-326.65 3064.16,-325.17 3081.97,-323.66"/>
<polygon fill="black" stroke="black" points="3082.77,-327.1 3092.44,-322.77 3082.18,-320.13 3082.77,-327.1"/>
<text text-anchor="middle" x="3075.09" y="-329.03" font-family="Times,serif" font-size="14.00">*0</text>
</g>
<!-- node17 -->
<g id="node18" class="node">
<title>node17</title>
<polygon fill="orange" stroke="black" points="3790.26,-302.54 3790.26,-317.46 3689.39,-328 3546.72,-328 3445.84,-317.46 3445.84,-302.54 3546.72,-292 3689.39,-292 3790.26,-302.54"/>
<text text-anchor="middle" x="3618.05" y="-306.3" font-family="Times,serif" font-size="14.00">#17 GetField : array_field : int[]</text>
</g>
<!-- node6&#45;&gt;node17 -->
<g id="edge44" class="edge">
<title>node6&#45;&gt;node17</title>
<path fill="none" stroke="black" d="M2317.14,-380.28C2479.99,-374.74 2994.03,-356.09 3419.05,-328 3439.74,-326.63 3461.61,-324.98 3483,-323.24"/>
<polygon fill="black" stroke="black" points="3483.43,-326.72 3493.11,-322.41 3482.86,-319.74 3483.43,-326.72"/>
<text text-anchor="middle" x="3475.74" y="-328.62" font-family="Times,serif" font-size="14.00">*0</text>
</g>
<!-- node20 -->
<g id="node15" class="node">
<title>node20</title>
<polygon fill="lightgrey" stroke="black" points="2765.55,-109 1964.55,-109 1964.55,-73 2765.55,-73 2765.55,-109"/>
<text text-anchor="middle" x="2365.05" y="-87.3" font-family="Times,serif" font-size="14.00">#20 Invoke static simple_method_return_byte : (byte,boolean,short,char,int,long,float,double,String,int[])byte</text>
</g>
<!-- node15&#45;&gt;node20 -->
<g id="edge35" class="edge">
<title>node15&#45;&gt;node20</title>
<path fill="none" stroke="black" d="M289.6,-293.67C498.15,-261.43 1003.14,-186.29 1429.05,-146 1600.67,-129.76 1790.49,-117.72 1954.07,-109.18"/>
<polygon fill="black" stroke="black" points="1954.51,-112.66 1964.31,-108.65 1954.15,-105.67 1954.51,-112.66"/>
<text text-anchor="middle" x="1946.65" y="-114.33" font-family="Times,serif" font-size="14.00">*8</text>
</g>
<!-- node15&#45;&gt;node16 -->
<g id="edge47" class="edge">
<title>node15&#45;&gt;node16</title>
<path fill="none" stroke="green" d="M279.24,-327.36C321.3,-334.87 372.6,-342.79 419.05,-346.5 707.14,-369.51 2732.19,-372.05 3020.05,-346.5 3057.4,-343.19 3098.15,-336.52 3133.34,-329.78"/>
<polygon fill="green" stroke="green" points="3134.44,-333.13 3143.59,-327.79 3133.1,-326.26 3134.44,-333.13"/>
</g>
<!-- node14&#45;&gt;node15 -->
<g id="edge12" class="edge">
<title>node14&#45;&gt;node15</title>
<path fill="none" stroke="green" d="M419.28,-310C410.98,-310 402.68,-310 394.38,-310"/>
<polygon fill="green" stroke="green" points="394.25,-306.5 384.25,-310 394.25,-313.5 394.25,-306.5"/>
</g>
<!-- node14&#45;&gt;node20 -->
<g id="edge34" class="edge">
<title>node14&#45;&gt;node20</title>
<path fill="none" stroke="black" d="M678.43,-294.12C869.98,-263 1331.16,-190.24 1720.05,-146 1848.48,-131.39 1991.71,-119.01 2110.51,-109.8"/>
<polygon fill="black" stroke="black" points="2111.14,-113.26 2120.84,-109 2110.6,-106.28 2111.14,-113.26"/>
<text text-anchor="middle" x="2103.42" y="-115.13" font-family="Times,serif" font-size="14.00">*7</text>
</g>
<!-- node13&#45;&gt;node14 -->
<g id="edge14" class="edge">
<title>node13&#45;&gt;node14</title>
<path fill="none" stroke="green" d="M791.88,-310C783.61,-310 775.34,-310 767.07,-310"/>
<polygon fill="green" stroke="green" points="766.98,-306.5 756.98,-310 766.98,-313.5 766.98,-306.5"/>
</g>
<!-- node13&#45;&gt;node20 -->
<g id="edge33" class="edge">
<title>node13&#45;&gt;node20</title>
<path fill="none" stroke="black" d="M1047.09,-293.8C1219.9,-263.82 1618.68,-195.69 1955.05,-146 2041.72,-133.2 2138.92,-120.33 2216.91,-110.37"/>
<polygon fill="black" stroke="black" points="2217.82,-113.78 2227.3,-109.05 2216.94,-106.84 2217.82,-113.78"/>
<text text-anchor="middle" x="2210.39" y="-116.02" font-family="Times,serif" font-size="14.00">*6</text>
</g>
<!-- node12&#45;&gt;node13 -->
<g id="edge16" class="edge">
<title>node12&#45;&gt;node13</title>
<path fill="none" stroke="green" d="M1163.89,-310C1155.36,-310 1146.84,-310 1138.32,-310"/>
<polygon fill="green" stroke="green" points="1138.32,-306.5 1128.32,-310 1138.32,-313.5 1138.32,-306.5"/>
</g>
<!-- node12&#45;&gt;node20 -->
<g id="edge32" class="edge">
<title>node12&#45;&gt;node20</title>
<path fill="none" stroke="black" d="M1399.76,-294.39C1433.72,-288.31 1473.3,-281.04 1509.05,-274 1791.49,-218.38 2124.73,-145.4 2278.88,-111.22"/>
<polygon fill="black" stroke="black" points="2279.77,-114.61 2288.77,-109.03 2278.25,-107.77 2279.77,-114.61"/>
<text text-anchor="middle" x="2272.9" y="-117.5" font-family="Times,serif" font-size="14.00">*5</text>
</g>
<!-- node11&#45;&gt;node12 -->
<g id="edge18" class="edge">
<title>node11&#45;&gt;node12</title>
<path fill="none" stroke="green" d="M1503.05,-310C1494.74,-310 1486.43,-310 1478.12,-310"/>
<polygon fill="green" stroke="green" points="1477.98,-306.5 1467.98,-310 1477.98,-313.5 1477.98,-306.5"/>
</g>
<!-- node11&#45;&gt;node20 -->
<g id="edge31" class="edge">
<title>node11&#45;&gt;node20</title>
<path fill="none" stroke="black" d="M1798.88,-298.05C1864.22,-291.6 1936.64,-282.97 1968.05,-274 2096.91,-237.22 2118.94,-201.2 2241.05,-146 2265.48,-134.96 2292.79,-123.02 2315.55,-113.19"/>
<polygon fill="black" stroke="black" points="2317.2,-116.28 2325,-109.11 2314.43,-109.86 2317.2,-116.28"/>
<text text-anchor="middle" x="2311.7" y="-120.35" font-family="Times,serif" font-size="14.00">*4</text>
</g>
<!-- node10&#45;&gt;node11 -->
<g id="edge20" class="edge">
<title>node10&#45;&gt;node11</title>
<path fill="none" stroke="green" d="M1876.82,-310C1868.25,-310 1859.68,-310 1851.11,-310"/>
<polygon fill="green" stroke="green" points="1851.04,-306.5 1841.04,-310 1851.04,-313.5 1851.04,-306.5"/>
</g>
<!-- node10&#45;&gt;node20 -->
<g id="edge30" class="edge">
<title>node10&#45;&gt;node20</title>
<path fill="none" stroke="black" d="M2082.72,-291.95C2091.86,-286.36 2101.96,-280.04 2111.05,-274 2193.16,-219.47 2286.67,-150.67 2334.03,-115.32"/>
<polygon fill="black" stroke="black" points="2336.41,-117.91 2342.32,-109.12 2332.22,-112.3 2336.41,-117.91"/>
<text text-anchor="middle" x="2332.87" y="-123.04" font-family="Times,serif" font-size="14.00">*3</text>
</g>
<!-- node9&#45;&gt;node10 -->
<g id="edge22" class="edge">
<title>node9&#45;&gt;node10</title>
<path fill="none" stroke="green" d="M2266.69,-310C2258.32,-310 2249.96,-310 2241.59,-310"/>
<polygon fill="green" stroke="green" points="2241.39,-306.5 2231.39,-310 2241.39,-313.5 2241.39,-306.5"/>
</g>
<!-- node9&#45;&gt;node20 -->
<g id="edge29" class="edge">
<title>node9&#45;&gt;node20</title>
<path fill="none" stroke="black" d="M2455.36,-291.97C2438.34,-254.27 2397.36,-163.54 2376.98,-118.41"/>
<polygon fill="black" stroke="black" points="2380.15,-116.92 2372.84,-109.25 2373.77,-119.8 2380.15,-116.92"/>
<text text-anchor="middle" x="2388.01" y="-118.59" font-family="Times,serif" font-size="14.00">*2</text>
</g>
<!-- node8&#45;&gt;node9 -->
<g id="edge24" class="edge">
<title>node8&#45;&gt;node9</title>
<path fill="none" stroke="green" d="M2694.43,-310C2686.1,-310 2677.77,-310 2669.44,-310"/>
<polygon fill="green" stroke="green" points="2669.28,-306.5 2659.28,-310 2669.28,-313.5 2669.28,-306.5"/>
</g>
<!-- node8&#45;&gt;node20 -->
<g id="edge28" class="edge">
<title>node8&#45;&gt;node20</title>
<path fill="none" stroke="black" d="M2818.45,-291.97C2729.55,-252.76 2510.57,-156.18 2413.14,-113.21"/>
<polygon fill="black" stroke="black" points="2414.38,-109.93 2403.82,-109.1 2411.56,-116.34 2414.38,-109.93"/>
<text text-anchor="middle" x="2423.82" y="-104.98" font-family="Times,serif" font-size="14.00">*1</text>
</g>
<!-- node21 -->
<g id="node21" class="node">
<title>node21</title>
<polygon fill="lightgrey" stroke="black" points="2451.55,-36 2278.55,-36 2278.55,0 2451.55,0 2451.55,-36"/>
<text text-anchor="middle" x="2365.05" y="-14.3" font-family="Times,serif" font-size="14.00">#21 ReturnValue : int</text>
</g>
<!-- node20&#45;&gt;node21 -->
<g id="edge49" class="edge">
<title>node20&#45;&gt;node21</title>
<path fill="none" stroke="black" d="M2353.3,-72.81C2351.62,-64.79 2351.15,-55.05 2351.9,-46.07"/>
<polygon fill="black" stroke="black" points="2355.38,-46.42 2353.33,-36.03 2348.45,-45.43 2355.38,-46.42"/>
<text text-anchor="middle" x="2359.14" y="-51.47" font-family="Times,serif" font-size="14.00">*0</text>
</g>
<!-- node20&#45;&gt;node21 -->
<g id="edge50" class="edge">
<title>node20&#45;&gt;node21</title>
<path fill="none" stroke="red" d="M2365.05,-72.81C2365.05,-64.79 2365.05,-55.05 2365.05,-46.07"/>
<polygon fill="red" stroke="red" points="2368.55,-46.03 2365.05,-36.03 2361.55,-46.03 2368.55,-46.03"/>
</g>
<!-- node20&#45;&gt;node21 -->
<g id="edge51" class="edge">
<title>node20&#45;&gt;node21</title>
<path fill="none" stroke="green" d="M2376.81,-72.81C2378.49,-64.79 2378.96,-55.05 2378.21,-46.07"/>
<polygon fill="green" stroke="green" points="2381.65,-45.43 2376.78,-36.03 2374.72,-46.42 2381.65,-45.43"/>
</g>
<!-- node19 -->
<g id="node16" class="node">
<title>node19</title>
<polygon fill="lightgrey" stroke="black" points="3664.05,-182 3550.05,-182 3550.05,-146 3664.05,-146 3664.05,-182"/>
<text text-anchor="middle" x="3607.05" y="-160.3" font-family="Times,serif" font-size="14.00">#19 ClassInit</text>
</g>
<!-- node19&#45;&gt;node20 -->
<g id="edge27" class="edge">
<title>node19&#45;&gt;node20</title>
<path fill="none" stroke="black" d="M3550.02,-156.96C3481.6,-148.8 3364.95,-134.44 3265.05,-127 3105.14,-115.08 2929.24,-107.13 2775.66,-101.86"/>
<polygon fill="black" stroke="black" points="2775.69,-98.36 2765.58,-101.52 2775.45,-105.36 2775.69,-98.36"/>
<text text-anchor="middle" x="2783.98" y="-89.99" font-family="Times,serif" font-size="14.00">*0</text>
</g>
<!-- node19&#45;&gt;node20 -->
<g id="edge38" class="edge">
<title>node19&#45;&gt;node20</title>
<path fill="none" stroke="green" d="M3549.81,-155.37C3485.16,-147.05 3376.74,-133.98 3283.05,-127 3117.4,-114.66 2934.59,-106.56 2776,-101.3"/>
<polygon fill="green" stroke="green" points="2775.7,-97.79 2765.59,-100.96 2775.47,-104.79 2775.7,-97.79"/>
</g>
<!-- node19&#45;&gt;node20 -->
<g id="edge39" class="edge">
<title>node19&#45;&gt;node20</title>
<path fill="none" stroke="red" d="M3549.81,-153.57C3488.21,-145.27 3388.25,-133.5 3301.05,-127 3129.59,-114.22 2939.74,-106 2776.06,-100.76"/>
<polygon fill="red" stroke="red" points="2775.92,-97.26 2765.81,-100.44 2775.69,-104.25 2775.92,-97.26"/>
</g>
<!-- node16&#45;&gt;node20 -->
<g id="edge36" class="edge">
<title>node16&#45;&gt;node20</title>
<path fill="none" stroke="black" d="M3156.65,-291.97C2999.46,-252.26 2609.34,-153.71 2442.62,-111.59"/>
<polygon fill="black" stroke="black" points="2442.99,-108.08 2432.44,-109.02 2441.28,-114.87 2442.99,-108.08"/>
<text text-anchor="middle" x="2452.09" y="-101.57" font-family="Times,serif" font-size="14.00">*9</text>
</g>
<!-- node16&#45;&gt;node17 -->
<g id="edge45" class="edge">
<title>node16&#45;&gt;node17</title>
<path fill="none" stroke="green" d="M3410.66,-310C3418.92,-310 3427.18,-310 3435.43,-310"/>
<polygon fill="green" stroke="green" points="3435.5,-313.5 3445.5,-310 3435.5,-306.5 3435.5,-313.5"/>
</g>
<!-- node17&#45;&gt;node20 -->
<g id="edge37" class="edge">
<title>node17&#45;&gt;node20</title>
<path fill="none" stroke="black" d="M3529.94,-293.74C3306.33,-255.01 2717.26,-153 2473.27,-110.74"/>
<polygon fill="black" stroke="black" points="2473.78,-107.28 2463.33,-109.02 2472.59,-114.18 2473.78,-107.28"/>
<text text-anchor="middle" x="2482.63" y="-100.08" font-family="Times,serif" font-size="14.00">*10</text>
</g>
<!-- node17&#45;&gt;node19 -->
<g id="edge41" class="edge">
<title>node17&#45;&gt;node19</title>
<path fill="none" stroke="green" d="M3711.48,-294.25C3733.18,-286.24 3753.78,-273.92 3767.05,-255 3776.24,-241.9 3776.38,-232 3767.05,-219 3745.98,-189.65 3708.11,-176.04 3674.51,-169.82"/>
<polygon fill="green" stroke="green" points="3674.67,-166.3 3664.24,-168.12 3673.53,-173.21 3674.67,-166.3"/>
</g>
<!-- node5&#45;&gt;node19 -->
<g id="edge40" class="edge">
<title>node5&#45;&gt;node19</title>
<path fill="none" stroke="black" d="M4086.05,-510.78C4086.05,-496.41 4086.05,-475.37 4086.05,-457 4086.05,-457 4086.05,-457 4086.05,-236 4086.05,-194.88 3806.27,-175.14 3674.36,-168.12"/>
<polygon fill="black" stroke="black" points="3674.53,-164.63 3664.36,-167.6 3674.16,-171.62 3674.53,-164.63"/>
<text text-anchor="middle" x="3682.9" y="-156.4" font-family="Times,serif" font-size="14.00">*0</text>
</g>
<!-- node18&#45;&gt;node19 -->
<g id="edge42" class="edge">
<title>node18&#45;&gt;node19</title>
<path fill="none" stroke="red" d="M3672.99,-218.81C3661.88,-209.74 3648.07,-198.48 3635.97,-188.6"/>
<polygon fill="red" stroke="red" points="3637.88,-185.64 3627.92,-182.03 3633.45,-191.06 3637.88,-185.64"/>
</g>
<!-- c0 -->
<!-- c1 -->
<!-- c0&#45;&gt;c1 -->
<g id="edge52" class="edge">
<title>c0&#45;&gt;c1</title>
<path fill="none" stroke="red" d="M4990.95,-611C5002.16,-611 5060.3,-611 5085.91,-611"/>
<polygon fill="red" stroke="red" points="5086.11,-614.5 5096.11,-611 5086.11,-607.5 5086.11,-614.5"/>
<text text-anchor="middle" x="5043.55" y="-617.8" font-family="Times,serif" font-size="14.00">Control flow</text>
</g>
<!-- c2 -->
<!-- c3 -->
<!-- c2&#45;&gt;c3 -->
<g id="edge53" class="edge">
<title>c2&#45;&gt;c3</title>
<path fill="none" stroke="red" stroke-dasharray="5,2" d="M4784.13,-611C4801.1,-611 4917.26,-611 4955.14,-611"/>
<polygon fill="red" stroke="red" points="4955.22,-614.5 4965.22,-611 4955.22,-607.5 4955.22,-614.5"/>
<text text-anchor="middle" x="4874.55" y="-617.8" font-family="Times,serif" font-size="14.00">Control flow back edge</text>
</g>
<!-- d0 -->
<!-- d1 -->
<!-- d0&#45;&gt;d1 -->
<g id="edge54" class="edge">
<title>d0&#45;&gt;d1</title>
<path fill="none" stroke="black" d="M4672.91,-611C4682.46,-611 4726.36,-611 4747.97,-611"/>
<polygon fill="black" stroke="black" points="4748.2,-614.5 4758.2,-611 4748.2,-607.5 4748.2,-614.5"/>
<text text-anchor="middle" x="4715.55" y="-617.8" font-family="Times,serif" font-size="14.00">Data flow</text>
</g>
<!-- d2 -->
<!-- d3 -->
<!-- d2&#45;&gt;d3 -->
<g id="edge55" class="edge">
<title>d2&#45;&gt;d3</title>
<path fill="none" stroke="black" stroke-dasharray="1,5" d="M4546.86,-611C4557.51,-611 4612.52,-611 4637.13,-611"/>
<polygon fill="black" stroke="black" points="4637.2,-614.5 4647.2,-611 4637.2,-607.5 4637.2,-614.5"/>
<text text-anchor="middle" x="4597.05" y="-617.8" font-family="Times,serif" font-size="14.00">Declaration</text>
</g>
<!-- d4 -->
<!-- d5 -->
<!-- d4&#45;&gt;d5 -->
<g id="edge56" class="edge">
<title>d4&#45;&gt;d5</title>
<path fill="none" stroke="blue" d="M4404.15,-611C4416.78,-611 4482.93,-611 4510.73,-611"/>
<polygon fill="blue" stroke="blue" points="4510.9,-614.5 4520.9,-611 4510.9,-607.5 4510.9,-614.5"/>
<text text-anchor="middle" x="4462.55" y="-617.8" font-family="Times,serif" font-size="14.00">PHI Data flow</text>
</g>
<!-- d6 -->
<!-- d7 -->
<!-- d6&#45;&gt;d7 -->
<g id="edge57" class="edge">
<title>d6&#45;&gt;d7</title>
<path fill="none" stroke="green" d="M4267.05,-611C4278.99,-611 4341.35,-611 4367.98,-611"/>
<polygon fill="green" stroke="green" points="4368,-614.5 4378,-611 4368,-607.5 4368,-614.5"/>
<text text-anchor="middle" x="4322.55" y="-617.8" font-family="Times,serif" font-size="14.00">Memory flow</text>
</g>
</g>
</svg>
