<?xml version="1.0" encoding="UTF-8" standalone="no"?>
<!DOCTYPE svg PUBLIC "-//W3C//DTD SVG 1.1//EN"
 "http://www.w3.org/Graphics/SVG/1.1/DTD/svg11.dtd">
<!-- Generated by graphviz version 2.43.0 (0)
 -->
<!-- Title: debugoutput Pages: 1 -->
<svg width="2747pt" height="1308pt"
 viewBox="0.00 0.00 2747.00 1307.80" xmlns="http://www.w3.org/2000/svg" xmlns:xlink="http://www.w3.org/1999/xlink">
<g id="graph0" class="graph" transform="scale(1 1) rotate(0) translate(4 1303.8)">
<title>debugoutput</title>
<polygon fill="white" stroke="transparent" points="-4,4 -4,-1303.8 2743,-1303.8 2743,4 -4,4"/>
<g id="clust1" class="cluster">
<title>cluster_000</title>
<polygon fill="none" stroke="black" points="1892,-1249.2 1892,-1291.8 2731,-1291.8 2731,-1249.2 1892,-1249.2"/>
<text text-anchor="middle" x="2311.5" y="-1276.6" font-family="Times,serif" font-size="14.00">Legend</text>
</g>
<!-- node0 -->
<g id="node1" class="node">
<title>node0</title>
<polygon fill="lightgrey" stroke="black" points="1882,-1277 1716,-1277 1716,-1241 1882,-1241 1882,-1277"/>
<text text-anchor="middle" x="1799" y="-1255.3" font-family="Times,serif" font-size="14.00">#0 Method Order : 0</text>
</g>
<!-- node1 -->
<g id="node2" class="node">
<title>node1</title>
<polygon fill="lightgrey" stroke="black" points="1233,-1131 1059,-1131 1059,-1095 1233,-1095 1233,-1131"/>
<text text-anchor="middle" x="1146" y="-1109.3" font-family="Times,serif" font-size="14.00">#1 ClassInit Order : 5</text>
</g>
<!-- node0&#45;&gt;node1 -->
<g id="edge4" class="edge">
<title>node0&#45;&gt;node1</title>
<path fill="none" stroke="black" d="M1715.87,-1258.13C1530.83,-1257.62 1098.05,-1251.39 1054,-1204 1043.11,-1192.28 1046.37,-1182.06 1054,-1168 1061.19,-1154.74 1073.21,-1144.22 1086.26,-1136.13"/>
<polygon fill="black" stroke="black" points="1088.01,-1139.16 1094.95,-1131.15 1084.53,-1133.08 1088.01,-1139.16"/>
</g>
<!-- node21 -->
<g id="node3" class="node">
<title>node21</title>
<polygon fill="lightgreen" stroke="black" points="1568.17,-1178.54 1568.17,-1193.46 1422.79,-1204 1217.21,-1204 1071.83,-1193.46 1071.83,-1178.54 1217.21,-1168 1422.79,-1168 1568.17,-1178.54"/>
<text text-anchor="middle" x="1320" y="-1182.3" font-family="Times,serif" font-size="14.00">#21 Class MethodInvokeTest$Source Order : 1</text>
</g>
<!-- node0&#45;&gt;node21 -->
<g id="edge73" class="edge">
<title>node0&#45;&gt;node21</title>
<path fill="none" stroke="black" stroke-dasharray="1,5" d="M1715.83,-1246.43C1638.8,-1235.28 1523.51,-1218.24 1437.17,-1205.25"/>
<polygon fill="black" stroke="black" points="1437.46,-1201.76 1427.05,-1203.73 1436.42,-1208.68 1437.46,-1201.76"/>
</g>
<!-- node16 -->
<g id="node4" class="node">
<title>node16</title>
<polygon fill="lightgrey" stroke="black" points="1783.5,-1204 1586.5,-1204 1586.5,-1168 1783.5,-1168 1783.5,-1204"/>
<text text-anchor="middle" x="1685" y="-1182.3" font-family="Times,serif" font-size="14.00">#16 LabelNode Order : 3</text>
</g>
<!-- node0&#45;&gt;node16 -->
<g id="edge47" class="edge">
<title>node0&#45;&gt;node16</title>
<path fill="none" stroke="red" d="M1765.83,-1240.99C1749.87,-1231.67 1730.93,-1219.97 1715.35,-1209.86"/>
<polygon fill="red" stroke="red" points="1716.89,-1206.68 1706.61,-1204.11 1713.04,-1212.53 1716.89,-1206.68"/>
</g>
<!-- node15 -->
<g id="node18" class="node">
<title>node15</title>
<polygon fill="lightgrey" stroke="black" points="2094.5,-1204 1801.5,-1204 1801.5,-1168 2094.5,-1168 2094.5,-1204"/>
<text text-anchor="middle" x="1948" y="-1182.3" font-family="Times,serif" font-size="14.00">#15 this : MethodInvokeTest Order : 4</text>
</g>
<!-- node0&#45;&gt;node15 -->
<g id="edge45" class="edge">
<title>node0&#45;&gt;node15</title>
<path fill="none" stroke="black" d="M1828.83,-1240.99C1848.37,-1231.19 1874.31,-1218.77 1897.03,-1208.31"/>
<polygon fill="black" stroke="black" points="1898.57,-1211.45 1906.22,-1204.11 1895.67,-1205.09 1898.57,-1211.45"/>
<text text-anchor="middle" x="1893.24" y="-1215.64" font-family="Times,serif" font-size="14.00">*0</text>
</g>
<!-- node17 -->
<g id="node19" class="node">
<title>node17</title>
<polygon fill="lightgreen" stroke="black" points="2566.56,-1178.54 2566.56,-1193.46 2444.97,-1204 2273.03,-1204 2151.44,-1193.46 2151.44,-1178.54 2273.03,-1168 2444.97,-1168 2566.56,-1178.54"/>
<text text-anchor="middle" x="2359" y="-1182.3" font-family="Times,serif" font-size="14.00">#17 Class MethodInvokeTest Order : 2</text>
</g>
<!-- node0&#45;&gt;node17 -->
<g id="edge49" class="edge">
<title>node0&#45;&gt;node17</title>
<path fill="none" stroke="black" stroke-dasharray="1,5" d="M1879.32,-1240.96C1989.07,-1226.58 2017.9,-1235.88 2128,-1223 2168.67,-1218.24 2213.28,-1211.34 2252.39,-1204.85"/>
<polygon fill="black" stroke="black" points="2253.45,-1208.22 2262.74,-1203.12 2252.3,-1201.32 2253.45,-1208.22"/>
</g>
<!-- node1&#45;&gt;node0 -->
<g id="edge1" class="edge">
<title>node1&#45;&gt;node0</title>
<path fill="none" stroke="green" stroke-width="2" d="M1111.63,-1131.15C1096.71,-1139.74 1080.77,-1151.83 1072,-1168 1064.37,-1182.06 1061.11,-1192.28 1072,-1204 1114.53,-1249.76 1519.45,-1257.14 1705.92,-1258.06"/>
<polygon fill="green" stroke="green" stroke-width="2" points="1705.97,-1261.56 1715.99,-1258.1 1706,-1254.56 1705.97,-1261.56"/>
</g>
<!-- node2 -->
<g id="node5" class="node">
<title>node2</title>
<polygon fill="lightgrey" stroke="black" points="1964.5,-985 1645.5,-985 1645.5,-949 1964.5,-949 1964.5,-985"/>
<text text-anchor="middle" x="1805" y="-963.3" font-family="Times,serif" font-size="14.00">#2 Invoke special &lt;init&gt; : ()void Order : 7</text>
</g>
<!-- node1&#45;&gt;node2 -->
<g id="edge7" class="edge">
<title>node1&#45;&gt;node2</title>
<path fill="none" stroke="red" d="M1233.22,-1110.61C1350.35,-1107.9 1551.69,-1099.98 1622,-1077 1678.85,-1058.42 1735.92,-1017.38 1771.04,-991.29"/>
<polygon fill="red" stroke="red" points="1773.55,-993.79 1779.48,-985.01 1769.37,-988.17 1773.55,-993.79"/>
</g>
<!-- node4 -->
<g id="node6" class="node">
<title>node4</title>
<polygon fill="orange" stroke="black" points="1246.7,-1032.54 1246.7,-1047.46 1187.71,-1058 1104.29,-1058 1045.3,-1047.46 1045.3,-1032.54 1104.29,-1022 1187.71,-1022 1246.7,-1032.54"/>
<text text-anchor="middle" x="1146" y="-1036.3" font-family="Times,serif" font-size="14.00">#4 New Order : 6</text>
</g>
<!-- node1&#45;&gt;node4 -->
<g id="edge12" class="edge">
<title>node1&#45;&gt;node4</title>
<path fill="none" stroke="black" d="M1134.24,-1094.81C1132.56,-1086.79 1132.1,-1077.05 1132.84,-1068.07"/>
<polygon fill="black" stroke="black" points="1136.33,-1068.42 1134.28,-1058.03 1129.4,-1067.43 1136.33,-1068.42"/>
<text text-anchor="middle" x="1140.08" y="-1073.47" font-family="Times,serif" font-size="14.00">*0</text>
</g>
<!-- node1&#45;&gt;node4 -->
<g id="edge13" class="edge">
<title>node1&#45;&gt;node4</title>
<path fill="none" stroke="black" d="M1157.76,-1094.81C1159.44,-1086.79 1159.9,-1077.05 1159.16,-1068.07"/>
<polygon fill="black" stroke="black" points="1162.6,-1067.43 1157.72,-1058.03 1155.67,-1068.42 1162.6,-1067.43"/>
</g>
<!-- node21&#45;&gt;node0 -->
<g id="edge72" class="edge">
<title>node21&#45;&gt;node0</title>
<path fill="none" stroke="green" stroke-width="2" d="M1434.67,-1203.14C1517.6,-1215.23 1628.19,-1231.63 1705.72,-1243.35"/>
<polygon fill="green" stroke="green" stroke-width="2" points="1705.55,-1246.86 1715.96,-1244.89 1706.6,-1239.94 1705.55,-1246.86"/>
</g>
<!-- node21&#45;&gt;node1 -->
<g id="edge2" class="edge">
<title>node21&#45;&gt;node1</title>
<path fill="none" stroke="black" d="M1278.32,-1167.99C1253.97,-1158.06 1223.04,-1145.43 1197.2,-1134.89"/>
<polygon fill="black" stroke="black" points="1198.52,-1131.65 1187.94,-1131.11 1195.88,-1138.13 1198.52,-1131.65"/>
<text text-anchor="middle" x="1207.92" y="-1126.44" font-family="Times,serif" font-size="14.00">*0</text>
</g>
<!-- node16&#45;&gt;node0 -->
<g id="edge46" class="edge">
<title>node16&#45;&gt;node0</title>
<path fill="none" stroke="green" stroke-width="2" d="M1718.35,-1204.11C1734.34,-1213.46 1753.27,-1225.15 1768.83,-1235.26"/>
<polygon fill="green" stroke="green" stroke-width="2" points="1767.27,-1238.42 1777.55,-1240.99 1771.12,-1232.57 1767.27,-1238.42"/>
</g>
<!-- node16&#45;&gt;node1 -->
<g id="edge3" class="edge">
<title>node16&#45;&gt;node1</title>
<path fill="none" stroke="red" d="M1586.43,-1169.35C1583.25,-1168.89 1580.1,-1168.44 1577,-1168 1462.62,-1151.84 1330.8,-1135.68 1243.37,-1125.31"/>
<polygon fill="red" stroke="red" points="1243.54,-1121.81 1233.2,-1124.11 1242.72,-1128.76 1243.54,-1121.81"/>
</g>
<!-- node2&#45;&gt;node1 -->
<g id="edge5" class="edge">
<title>node2&#45;&gt;node1</title>
<path fill="none" stroke="green" stroke-width="2" d="M1791.01,-985.01C1763.6,-1010.26 1701.67,-1056.85 1640,-1077 1569.27,-1100.11 1365.95,-1107.99 1243.26,-1110.66"/>
<polygon fill="green" stroke="green" stroke-width="2" points="1243.03,-1107.16 1233.11,-1110.87 1243.18,-1114.16 1243.03,-1107.16"/>
</g>
<!-- node3 -->
<g id="node7" class="node">
<title>node3</title>
<polygon fill="lightgrey" stroke="black" points="2057,-912 1869,-912 1869,-876 2057,-876 2057,-912"/>
<text text-anchor="middle" x="1963" y="-890.3" font-family="Times,serif" font-size="14.00">#3 LabelNode Order : 8</text>
</g>
<!-- node2&#45;&gt;node3 -->
<g id="edge10" class="edge">
<title>node2&#45;&gt;node3</title>
<path fill="none" stroke="red" d="M1836.99,-948.99C1857.86,-939.14 1885.53,-926.66 1909.65,-916.17"/>
<polygon fill="red" stroke="red" points="1911.25,-919.29 1919.05,-912.11 1908.48,-912.87 1911.25,-919.29"/>
</g>
<!-- node12 -->
<g id="node11" class="node">
<title>node12</title>
<polygon fill="orange" stroke="black" points="1813.26,-886.54 1813.26,-901.46 1685.99,-912 1506.01,-912 1378.74,-901.46 1378.74,-886.54 1506.01,-876 1685.99,-876 1813.26,-886.54"/>
<text text-anchor="middle" x="1596" y="-890.3" font-family="Times,serif" font-size="14.00">#12 GetField : byte_field : byte Order : 9</text>
</g>
<!-- node2&#45;&gt;node12 -->
<g id="edge37" class="edge">
<title>node2&#45;&gt;node12</title>
<path fill="none" stroke="black" d="M1754.94,-948.99C1725.17,-938.88 1687.23,-925.99 1655.88,-915.34"/>
<polygon fill="black" stroke="black" points="1656.97,-912.02 1646.38,-912.11 1654.72,-918.64 1656.97,-912.02"/>
</g>
<!-- node4&#45;&gt;node1 -->
<g id="edge11" class="edge">
<title>node4&#45;&gt;node1</title>
<path fill="none" stroke="green" stroke-width="2" d="M1146,-1058.03C1146,-1066.03 1146,-1075.77 1146,-1084.75"/>
<polygon fill="green" stroke="green" stroke-width="2" points="1142.5,-1084.81 1146,-1094.81 1149.5,-1084.81 1142.5,-1084.81"/>
</g>
<!-- node4&#45;&gt;node2 -->
<g id="edge6" class="edge">
<title>node4&#45;&gt;node2</title>
<path fill="none" stroke="black" d="M1229.75,-1029.46C1331.42,-1018.27 1505.3,-999.5 1635.36,-985.64"/>
<polygon fill="black" stroke="black" points="1635.86,-989.11 1645.43,-984.57 1635.12,-982.14 1635.86,-989.11"/>
<text text-anchor="middle" x="1628.3" y="-991.19" font-family="Times,serif" font-size="14.00">*0</text>
</g>
<!-- node4&#45;&gt;node2 -->
<g id="edge8" class="edge">
<title>node4&#45;&gt;node2</title>
<path fill="none" stroke="black" d="M1233.11,-1030.12C1337.27,-1019.14 1513.64,-1000.18 1643.05,-986.09"/>
<polygon fill="black" stroke="black" points="1643.51,-989.56 1653.07,-985 1642.75,-982.6 1643.51,-989.56"/>
</g>
<!-- node5 -->
<g id="node8" class="node">
<title>node5</title>
<polygon fill="orange" stroke="black" points="1671.93,-302.54 1671.93,-317.46 1534.31,-328 1339.69,-328 1202.07,-317.46 1202.07,-302.54 1339.69,-292 1534.31,-292 1671.93,-302.54"/>
<text text-anchor="middle" x="1437" y="-306.3" font-family="Times,serif" font-size="14.00">#5 GetField : string_field : String Order : 17</text>
</g>
<!-- node4&#45;&gt;node5 -->
<g id="edge15" class="edge">
<title>node4&#45;&gt;node5</title>
<path fill="none" stroke="black" d="M1167,-1021.84C1177.85,-1012.03 1190.55,-998.92 1199,-985 1249.58,-901.68 1254.34,-876.11 1289,-785 1337.58,-657.3 1326.39,-616.8 1382,-492 1400.61,-450.23 1417.3,-444.93 1430,-401 1435.9,-380.58 1437.52,-356.54 1437.73,-338.44"/>
<polygon fill="black" stroke="black" points="1441.23,-338.28 1437.71,-328.29 1434.23,-338.29 1441.23,-338.28"/>
<text text-anchor="middle" x="1446.2" y="-342.7" font-family="Times,serif" font-size="14.00">*0</text>
</g>
<!-- node14 -->
<g id="node9" class="node">
<title>node14</title>
<polygon fill="orange" stroke="black" points="1420.85,-375.54 1420.85,-390.46 1276.25,-401 1071.75,-401 927.15,-390.46 927.15,-375.54 1071.75,-365 1276.25,-365 1420.85,-375.54"/>
<text text-anchor="middle" x="1174" y="-379.3" font-family="Times,serif" font-size="14.00">#14 GetField : double_field : double Order : 16</text>
</g>
<!-- node4&#45;&gt;node14 -->
<g id="edge42" class="edge">
<title>node4&#45;&gt;node14</title>
<path fill="none" stroke="black" d="M1158.11,-1021.94C1161.83,-1016.35 1165.78,-1010.03 1169,-1004 1173.31,-995.92 1173.9,-993.62 1177,-985 1208.38,-897.67 1237,-877.8 1237,-785 1237,-785 1237,-785 1237,-638 1237,-539.59 1389.24,-518.05 1332,-438 1321.54,-423.38 1306.88,-412.67 1290.66,-404.84"/>
<polygon fill="black" stroke="black" points="1292.07,-401.63 1281.51,-400.78 1289.23,-408.03 1292.07,-401.63"/>
<text text-anchor="middle" x="1301.51" y="-396.7" font-family="Times,serif" font-size="14.00">*0</text>
</g>
<!-- node6 -->
<g id="node10" class="node">
<title>node6</title>
<polygon fill="orange" stroke="black" points="1171.29,-813.54 1171.29,-828.46 1024.09,-839 815.91,-839 668.71,-828.46 668.71,-813.54 815.91,-803 1024.09,-803 1171.29,-813.54"/>
<text text-anchor="middle" x="920" y="-817.3" font-family="Times,serif" font-size="14.00">#6 GetField : boolean_field : boolean Order : 10</text>
</g>
<!-- node4&#45;&gt;node6 -->
<g id="edge18" class="edge">
<title>node4&#45;&gt;node6</title>
<path fill="none" stroke="black" d="M1128.27,-1021.97C1088.35,-983.64 991.32,-890.48 945.18,-846.18"/>
<polygon fill="black" stroke="black" points="947.6,-843.65 937.96,-839.25 942.75,-848.7 947.6,-843.65"/>
<text text-anchor="middle" x="956.89" y="-842.01" font-family="Times,serif" font-size="14.00">*0</text>
</g>
<!-- node4&#45;&gt;node12 -->
<g id="edge36" class="edge">
<title>node4&#45;&gt;node12</title>
<path fill="none" stroke="black" d="M1223.71,-1028.39C1256.12,-1022.83 1293.85,-1014.87 1327,-1004 1399.92,-980.08 1411.5,-957.87 1483,-930 1496.6,-924.7 1511.37,-919.64 1525.6,-915.1"/>
<polygon fill="black" stroke="black" points="1526.85,-918.38 1535.34,-912.05 1524.75,-911.7 1526.85,-918.38"/>
<text text-anchor="middle" x="1520.57" y="-921.84" font-family="Times,serif" font-size="14.00">*0</text>
</g>
<!-- node7 -->
<g id="node12" class="node">
<title>node7</title>
<polygon fill="orange" stroke="black" points="905.64,-740.54 905.64,-755.46 773.46,-766 586.54,-766 454.36,-755.46 454.36,-740.54 586.54,-730 773.46,-730 905.64,-740.54"/>
<text text-anchor="middle" x="680" y="-744.3" font-family="Times,serif" font-size="14.00">#7 GetField : short_field : short Order : 11</text>
</g>
<!-- node4&#45;&gt;node7 -->
<g id="edge21" class="edge">
<title>node4&#45;&gt;node7</title>
<path fill="none" stroke="black" d="M1045.23,-1036.96C904.46,-1033.4 662.16,-1024.37 627,-1004 610.36,-994.36 603,-987.23 603,-968 603,-968 603,-968 603,-820 603,-799.72 617.62,-783.63 634.12,-771.93"/>
<polygon fill="black" stroke="black" points="636.4,-774.62 642.85,-766.21 632.57,-768.76 636.4,-774.62"/>
<text text-anchor="middle" x="632.32" y="-779.51" font-family="Times,serif" font-size="14.00">*0</text>
</g>
<!-- node8 -->
<g id="node13" class="node">
<title>node8</title>
<polygon fill="orange" stroke="black" points="1323.26,-448.54 1323.26,-463.46 1195.99,-474 1016.01,-474 888.74,-463.46 888.74,-448.54 1016.01,-438 1195.99,-438 1323.26,-448.54"/>
<text text-anchor="middle" x="1106" y="-452.3" font-family="Times,serif" font-size="14.00">#8 GetField : float_field : float Order : 15</text>
</g>
<!-- node4&#45;&gt;node8 -->
<g id="edge24" class="edge">
<title>node4&#45;&gt;node8</title>
<path fill="none" stroke="black" d="M1149.98,-1021.94C1162.31,-968.9 1199,-808.99 1199,-785 1199,-785 1199,-785 1199,-528 1199,-506.16 1182.59,-490.14 1163.56,-478.9"/>
<polygon fill="black" stroke="black" points="1165.14,-475.78 1154.68,-474.07 1161.79,-481.93 1165.14,-475.78"/>
<text text-anchor="middle" x="1174.64" y="-471.61" font-family="Times,serif" font-size="14.00">*0</text>
</g>
<!-- node10 -->
<g id="node14" class="node">
<title>node10</title>
<polygon fill="orange" stroke="black" points="795.01,-521.54 795.01,-536.46 664.38,-547 479.62,-547 348.99,-536.46 348.99,-521.54 479.62,-511 664.38,-511 795.01,-521.54"/>
<text text-anchor="middle" x="572" y="-525.3" font-family="Times,serif" font-size="14.00">#10 GetField : long_field : long Order : 14</text>
</g>
<!-- node4&#45;&gt;node10 -->
<g id="edge30" class="edge">
<title>node4&#45;&gt;node10</title>
<path fill="none" stroke="black" d="M1045.32,-1034.81C898,-1027.3 641,-1008.42 641,-968 641,-968 641,-968 641,-857 641,-831.56 640.35,-819.16 660,-803 751.05,-728.12 973.72,-832.22 915,-730 882.23,-672.96 707.7,-589.82 620.98,-551.19"/>
<polygon fill="black" stroke="black" points="622.17,-547.89 611.61,-547.03 619.33,-554.29 622.17,-547.89"/>
<text text-anchor="middle" x="631.6" y="-542.95" font-family="Times,serif" font-size="14.00">*0</text>
</g>
<!-- node9 -->
<g id="node15" class="node">
<title>node9</title>
<polygon fill="orange" stroke="black" points="1774.79,-229.54 1774.79,-244.46 1645.46,-255 1462.54,-255 1333.21,-244.46 1333.21,-229.54 1462.54,-219 1645.46,-219 1774.79,-229.54"/>
<text text-anchor="middle" x="1554" y="-233.3" font-family="Times,serif" font-size="14.00">#9 GetField : array_field : int[] Order : 18</text>
</g>
<!-- node4&#45;&gt;node9 -->
<g id="edge27" class="edge">
<title>node4&#45;&gt;node9</title>
<path fill="none" stroke="black" d="M1180.14,-1021.91C1212.91,-1003.76 1261.39,-972.04 1289,-931 1384.26,-789.42 1310.9,-707.35 1405,-565 1494.16,-430.12 1613.5,-474.92 1681,-328 1687.68,-313.46 1689.83,-305.34 1681,-292 1671.5,-277.63 1657.32,-267.08 1641.83,-259.33"/>
<polygon fill="black" stroke="black" points="1643.14,-256.07 1632.59,-255.08 1640.22,-262.43 1643.14,-256.07"/>
<text text-anchor="middle" x="1652.59" y="-251.27" font-family="Times,serif" font-size="14.00">*0</text>
</g>
<!-- node11 -->
<g id="node16" class="node">
<title>node11</title>
<polygon fill="orange" stroke="black" points="500.65,-594.54 500.65,-609.46 379.6,-620 208.4,-620 87.35,-609.46 87.35,-594.54 208.4,-584 379.6,-584 500.65,-594.54"/>
<text text-anchor="middle" x="294" y="-598.3" font-family="Times,serif" font-size="14.00">#11 GetField : int_field : int Order : 13</text>
</g>
<!-- node4&#45;&gt;node11 -->
<g id="edge33" class="edge">
<title>node4&#45;&gt;node11</title>
<path fill="none" stroke="black" d="M1045.2,-1039.32C915.34,-1038.52 697.45,-1032.72 623,-1004 531.3,-968.62 525.67,-1020.97 445,-766 440.17,-750.75 435.2,-742.64 445,-730 464.68,-704.61 495.32,-737.39 515,-712 530.04,-692.6 525.98,-675.63 510,-657 496.25,-640.98 454.91,-628.79 412.02,-620.09"/>
<polygon fill="black" stroke="black" points="412.47,-616.62 401.98,-618.12 411.12,-623.48 412.47,-616.62"/>
<text text-anchor="middle" x="421.39" y="-609.62" font-family="Times,serif" font-size="14.00">*0</text>
</g>
<!-- node13 -->
<g id="node17" class="node">
<title>node13</title>
<polygon fill="orange" stroke="black" points="500.92,-667.54 500.92,-682.46 369.75,-693 184.25,-693 53.08,-682.46 53.08,-667.54 184.25,-657 369.75,-657 500.92,-667.54"/>
<text text-anchor="middle" x="277" y="-671.3" font-family="Times,serif" font-size="14.00">#13 GetField : char_field : char Order : 12</text>
</g>
<!-- node4&#45;&gt;node13 -->
<g id="edge39" class="edge">
<title>node4&#45;&gt;node13</title>
<path fill="none" stroke="black" d="M1045.22,-1037.43C886.99,-1034.31 593.81,-1025.67 551,-1004 400.06,-927.59 418.1,-839.45 308,-711 305.21,-707.74 302.25,-704.34 299.3,-700.98"/>
<polygon fill="black" stroke="black" points="301.81,-698.53 292.57,-693.35 296.56,-703.16 301.81,-698.53"/>
<text text-anchor="middle" x="310.9" y="-697.64" font-family="Times,serif" font-size="14.00">*0</text>
</g>
<!-- node3&#45;&gt;node2 -->
<g id="edge9" class="edge">
<title>node3&#45;&gt;node2</title>
<path fill="none" stroke="green" stroke-width="2" d="M1930.79,-912.11C1909.86,-921.98 1882.19,-934.47 1858.09,-944.94"/>
<polygon fill="green" stroke="green" stroke-width="2" points="1856.5,-941.82 1848.7,-948.99 1859.27,-948.24 1856.5,-941.82"/>
</g>
<!-- node18 -->
<g id="node20" class="node">
<title>node18</title>
<polygon fill="lightgrey" stroke="black" points="2023,-182 1831,-182 1831,-146 2023,-146 2023,-182"/>
<text text-anchor="middle" x="1927" y="-160.3" font-family="Times,serif" font-size="14.00">#18 ClassInit Order : 19</text>
</g>
<!-- node3&#45;&gt;node18 -->
<g id="edge53" class="edge">
<title>node3&#45;&gt;node18</title>
<path fill="none" stroke="red" d="M1953.65,-875.75C1946.91,-861.7 1939,-841.13 1939,-822 1939,-822 1939,-822 1939,-236 1939,-221.3 1936.47,-205.13 1933.73,-191.94"/>
<polygon fill="red" stroke="red" points="1937.13,-191.08 1931.54,-182.08 1930.29,-192.6 1937.13,-191.08"/>
</g>
<!-- node5&#45;&gt;node1 -->
<g id="edge14" class="edge">
<title>node5&#45;&gt;node1</title>
<path fill="none" stroke="green" stroke-width="2" d="M1534.54,-328.06C1654.09,-355.21 1841,-420.74 1841,-565 1841,-858 1841,-858 1841,-858 1841,-883.44 1841.22,-895.33 1822,-912 1758.32,-967.22 1713.77,-916.51 1636,-949 1556.27,-982.31 1552.49,-1019.76 1475,-1058 1451.05,-1069.82 1444.03,-1071.05 1418,-1077 1360.78,-1090.09 1295.59,-1098.69 1243.38,-1104.09"/>
<polygon fill="green" stroke="green" stroke-width="2" points="1242.71,-1100.63 1233.12,-1105.12 1243.42,-1107.6 1242.71,-1100.63"/>
</g>
<!-- node5&#45;&gt;node9 -->
<g id="edge28" class="edge">
<title>node5&#45;&gt;node9</title>
<path fill="none" stroke="black" d="M1465.02,-291.99C1480.54,-282.58 1500.02,-270.76 1516.8,-260.57"/>
<polygon fill="black" stroke="black" points="1519.07,-263.29 1525.8,-255.11 1515.43,-257.31 1519.07,-263.29"/>
</g>
<!-- node19 -->
<g id="node21" class="node">
<title>node19</title>
<polygon fill="lightgrey" stroke="black" points="1678.5,-109 799.5,-109 799.5,-73 1678.5,-73 1678.5,-109"/>
<text text-anchor="middle" x="1239" y="-87.3" font-family="Times,serif" font-size="14.00">#19 Invoke static simple_method_return_byte : (byte,boolean,short,char,int,long,float,double,String,int[])byte Order : 20</text>
</g>
<!-- node5&#45;&gt;node19 -->
<g id="edge64" class="edge">
<title>node5&#45;&gt;node19</title>
<path fill="none" stroke="black" d="M1384.02,-291.96C1363.43,-283.36 1340.81,-271.24 1324,-255 1283.88,-216.26 1258.93,-154.45 1247.13,-119.13"/>
<polygon fill="black" stroke="black" points="1250.42,-117.93 1244.02,-109.49 1243.76,-120.08 1250.42,-117.93"/>
<text text-anchor="middle" x="1257.63" y="-120.44" font-family="Times,serif" font-size="14.00">*9</text>
</g>
<!-- node14&#45;&gt;node1 -->
<g id="edge41" class="edge">
<title>node14&#45;&gt;node1</title>
<path fill="none" stroke="green" stroke-width="2" d="M1299.19,-399.37C1320.23,-407.62 1339.56,-419.88 1353,-438 1421.7,-530.63 1415.07,-578.54 1401,-693 1392.34,-763.51 1356.72,-939.48 1327,-1004 1314.61,-1030.89 1305.45,-1034.08 1288,-1058 1281.82,-1066.47 1282.65,-1071.07 1274,-1077 1264.43,-1083.57 1253.66,-1088.91 1242.55,-1093.24"/>
<polygon fill="green" stroke="green" stroke-width="2" points="1241.35,-1089.95 1233.15,-1096.66 1243.74,-1096.53 1241.35,-1089.95"/>
</g>
<!-- node14&#45;&gt;node5 -->
<g id="edge16" class="edge">
<title>node14&#45;&gt;node5</title>
<path fill="none" stroke="black" d="M1237,-364.99C1275.18,-354.68 1324.06,-341.49 1363.94,-330.72"/>
<polygon fill="black" stroke="black" points="1364.87,-334.1 1373.61,-328.11 1363.04,-327.34 1364.87,-334.1"/>
</g>
<!-- node14&#45;&gt;node19 -->
<g id="edge63" class="edge">
<title>node14&#45;&gt;node19</title>
<path fill="none" stroke="black" d="M1174,-364.78C1174,-350.41 1174,-329.37 1174,-311 1174,-311 1174,-311 1174,-163 1174,-143.82 1187.06,-127.57 1201.47,-115.48"/>
<polygon fill="black" stroke="black" points="1203.8,-118.1 1209.54,-109.19 1199.5,-112.58 1203.8,-118.1"/>
<text text-anchor="middle" x="1200.43" y="-123.3" font-family="Times,serif" font-size="14.00">*8</text>
</g>
<!-- node6&#45;&gt;node1 -->
<g id="edge17" class="edge">
<title>node6&#45;&gt;node1</title>
<path fill="none" stroke="green" stroke-width="2" d="M779.72,-836.41C631.23,-857.15 429.01,-904.47 513,-1004 580.36,-1083.83 888.26,-1104.66 1048.47,-1110.09"/>
<polygon fill="green" stroke="green" stroke-width="2" points="1048.7,-1113.6 1058.81,-1110.42 1048.93,-1106.6 1048.7,-1113.6"/>
</g>
<!-- node6&#45;&gt;node7 -->
<g id="edge22" class="edge">
<title>node6&#45;&gt;node7</title>
<path fill="none" stroke="black" d="M862.51,-802.99C828.04,-792.79 784.01,-779.77 747.83,-769.07"/>
<polygon fill="black" stroke="black" points="748.43,-765.59 737.85,-766.11 746.45,-772.31 748.43,-765.59"/>
</g>
<!-- node6&#45;&gt;node19 -->
<g id="edge57" class="edge">
<title>node6&#45;&gt;node19</title>
<path fill="none" stroke="black" d="M925.68,-802.71C928.82,-792.22 932.41,-778.49 934,-766 936.02,-750.13 935.85,-745.89 934,-730 917.67,-589.4 861,-561.55 861,-420 861,-420 861,-420 861,-163 861,-138.43 892.24,-122.12 936.77,-111.35"/>
<polygon fill="black" stroke="black" points="937.8,-114.7 946.77,-109.06 936.25,-107.87 937.8,-114.7"/>
<text text-anchor="middle" x="930.98" y="-117.63" font-family="Times,serif" font-size="14.00">*2</text>
</g>
<!-- node12&#45;&gt;node1 -->
<g id="edge35" class="edge">
<title>node12&#45;&gt;node1</title>
<path fill="none" stroke="green" stroke-width="2" d="M1583.86,-912.17C1556.45,-949.43 1485.7,-1037.49 1403,-1077 1375.19,-1090.29 1303.65,-1099.37 1243.09,-1104.95"/>
<polygon fill="green" stroke="green" stroke-width="2" points="1242.73,-1101.47 1233.08,-1105.85 1243.36,-1108.44 1242.73,-1101.47"/>
</g>
<!-- node12&#45;&gt;node6 -->
<g id="edge19" class="edge">
<title>node12&#45;&gt;node6</title>
<path fill="none" stroke="black" d="M1465.66,-879.31C1352.14,-867.39 1187.6,-850.11 1068.92,-837.64"/>
<polygon fill="black" stroke="black" points="1068.97,-834.13 1058.66,-836.56 1068.24,-841.09 1068.97,-834.13"/>
</g>
<!-- node12&#45;&gt;node19 -->
<g id="edge56" class="edge">
<title>node12&#45;&gt;node19</title>
<path fill="none" stroke="black" d="M1695.26,-876.68C1748.38,-865.03 1803,-846.98 1803,-822 1803,-822 1803,-822 1803,-163 1803,-137.13 1708.42,-120.55 1596.71,-109.98"/>
<polygon fill="black" stroke="black" points="1596.84,-106.47 1586.56,-109.03 1596.19,-113.44 1596.84,-106.47"/>
<text text-anchor="middle" x="1605.38" y="-98.59" font-family="Times,serif" font-size="14.00">*1</text>
</g>
<!-- node7&#45;&gt;node1 -->
<g id="edge20" class="edge">
<title>node7&#45;&gt;node1</title>
<path fill="none" stroke="green" stroke-width="2" d="M566.17,-764.39C508.7,-775.47 451,-793.26 451,-820 451,-1041 451,-1041 451,-1041 451,-1100.35 857.35,-1110.45 1048.62,-1111.92"/>
<polygon fill="green" stroke="green" stroke-width="2" points="1048.66,-1115.42 1058.68,-1111.99 1048.71,-1108.42 1048.66,-1115.42"/>
</g>
<!-- node7&#45;&gt;node13 -->
<g id="edge40" class="edge">
<title>node7&#45;&gt;node13</title>
<path fill="none" stroke="black" d="M584.24,-730.13C523.47,-719.42 444.81,-705.56 382.29,-694.55"/>
<polygon fill="black" stroke="black" points="382.85,-691.1 372.4,-692.81 381.64,-697.99 382.85,-691.1"/>
</g>
<!-- node7&#45;&gt;node19 -->
<g id="edge58" class="edge">
<title>node7&#45;&gt;node19</title>
<path fill="none" stroke="black" d="M776.57,-730.13C802.26,-719.76 823,-703.03 823,-676 823,-676 823,-676 823,-163 823,-143.77 830.47,-136.82 847,-127 857.57,-120.72 872.91,-115.52 891.47,-111.21"/>
<polygon fill="black" stroke="black" points="892.44,-114.58 901.46,-109.04 890.95,-107.74 892.44,-114.58"/>
<text text-anchor="middle" x="885.55" y="-117.45" font-family="Times,serif" font-size="14.00">*3</text>
</g>
<!-- node8&#45;&gt;node1 -->
<g id="edge23" class="edge">
<title>node8&#45;&gt;node1</title>
<path fill="none" stroke="green" stroke-width="2" d="M1226.57,-471.54C1253.88,-481.89 1275,-499.2 1275,-528 1275,-1041 1275,-1041 1275,-1041 1275,-1064.37 1258.54,-1080.11 1237.38,-1090.68"/>
<polygon fill="green" stroke="green" stroke-width="2" points="1235.73,-1087.59 1228.06,-1094.9 1238.62,-1093.96 1235.73,-1087.59"/>
</g>
<!-- node8&#45;&gt;node14 -->
<g id="edge43" class="edge">
<title>node8&#45;&gt;node14</title>
<path fill="none" stroke="black" d="M1122.46,-437.81C1130.9,-429 1141.32,-418.13 1150.58,-408.46"/>
<polygon fill="black" stroke="black" points="1153.3,-410.67 1157.69,-401.03 1148.25,-405.83 1153.3,-410.67"/>
</g>
<!-- node8&#45;&gt;node19 -->
<g id="edge62" class="edge">
<title>node8&#45;&gt;node19</title>
<path fill="none" stroke="black" d="M1006.74,-438.68C953.62,-427.03 899,-408.98 899,-384 899,-384 899,-384 899,-163 899,-137.91 934.92,-121.63 983.4,-111.09"/>
<polygon fill="black" stroke="black" points="984.17,-114.5 993.26,-109.05 982.76,-107.65 984.17,-114.5"/>
<text text-anchor="middle" x="977.21" y="-117.29" font-family="Times,serif" font-size="14.00">*7</text>
</g>
<!-- node10&#45;&gt;node1 -->
<g id="edge29" class="edge">
<title>node10&#45;&gt;node1</title>
<path fill="none" stroke="green" stroke-width="2" d="M569.62,-547.39C564.37,-579.76 549,-649.89 510,-693 455.12,-753.67 350,-702.19 350,-784 350,-1041 350,-1041 350,-1041 350,-1115.19 439.5,-1066.92 513,-1077 701.39,-1102.84 923.81,-1109.74 1048.52,-1111.5"/>
<polygon fill="green" stroke="green" stroke-width="2" points="1048.75,-1115 1058.8,-1111.64 1048.85,-1108 1048.75,-1115"/>
</g>
<!-- node10&#45;&gt;node8 -->
<g id="edge25" class="edge">
<title>node10&#45;&gt;node8</title>
<path fill="none" stroke="black" d="M686.56,-512.77C773.61,-501.19 893.17,-485.3 982.38,-473.44"/>
<polygon fill="black" stroke="black" points="983.1,-476.87 992.55,-472.08 982.18,-469.93 983.1,-476.87"/>
</g>
<!-- node10&#45;&gt;node19 -->
<g id="edge61" class="edge">
<title>node10&#45;&gt;node19</title>
<path fill="none" stroke="black" d="M631.51,-510.99C655.67,-500.12 678,-483.03 678,-457 678,-457 678,-457 678,-163 678,-137.15 772.95,-120.55 884.73,-109.97"/>
<polygon fill="black" stroke="black" points="885.26,-113.44 894.9,-109.03 884.62,-106.47 885.26,-113.44"/>
<text text-anchor="middle" x="877.63" y="-115.42" font-family="Times,serif" font-size="14.00">*6</text>
</g>
<!-- node9&#45;&gt;node1 -->
<g id="edge26" class="edge">
<title>node9&#45;&gt;node1</title>
<path fill="none" stroke="green" stroke-width="2" d="M1635.07,-255.04C1650.14,-259.77 1665.41,-265.68 1679,-273 1821.01,-349.5 1864.55,-376.11 1953,-511 2060.06,-674.27 2085,-734.76 2085,-930 2085,-1041 2085,-1041 2085,-1041 2085,-1082.88 1483.27,-1103.21 1243.19,-1109.65"/>
<polygon fill="green" stroke="green" stroke-width="2" points="1242.98,-1106.16 1233.08,-1109.92 1243.16,-1113.15 1242.98,-1106.16"/>
</g>
<!-- node9&#45;&gt;node18 -->
<g id="edge52" class="edge">
<title>node9&#45;&gt;node18</title>
<path fill="none" stroke="black" d="M1643.34,-218.99C1698.75,-208.45 1770.02,-194.88 1827.26,-183.98"/>
<polygon fill="black" stroke="black" points="1828.25,-187.36 1837.42,-182.05 1826.94,-180.48 1828.25,-187.36"/>
</g>
<!-- node9&#45;&gt;node19 -->
<g id="edge65" class="edge">
<title>node9&#45;&gt;node19</title>
<path fill="none" stroke="black" d="M1516.63,-218.92C1458.96,-192.55 1348.41,-142.01 1285.6,-113.3"/>
<polygon fill="black" stroke="black" points="1286.87,-110.04 1276.32,-109.06 1283.96,-116.4 1286.87,-110.04"/>
<text text-anchor="middle" x="1296.32" y="-105.21" font-family="Times,serif" font-size="14.00">*10</text>
</g>
<!-- node11&#45;&gt;node1 -->
<g id="edge32" class="edge">
<title>node11&#45;&gt;node1</title>
<path fill="none" stroke="green" stroke-width="2" d="M157.53,-615.61C90.94,-625.69 25,-643.39 25,-674 25,-1041 25,-1041 25,-1041 25,-1092.08 776.14,-1107.11 1048.7,-1110.88"/>
<polygon fill="green" stroke="green" stroke-width="2" points="1048.92,-1114.38 1058.97,-1111.02 1049.02,-1107.39 1048.92,-1114.38"/>
</g>
<!-- node11&#45;&gt;node10 -->
<g id="edge31" class="edge">
<title>node11&#45;&gt;node10</title>
<path fill="none" stroke="black" d="M360.59,-583.99C401.04,-573.66 452.84,-560.43 495.04,-549.66"/>
<polygon fill="black" stroke="black" points="496.17,-552.98 504.99,-547.11 494.44,-546.2 496.17,-552.98"/>
</g>
<!-- node11&#45;&gt;node19 -->
<g id="edge60" class="edge">
<title>node11&#45;&gt;node19</title>
<path fill="none" stroke="black" d="M297.4,-583.86C299.95,-569.53 303,-548.51 303,-530 303,-530 303,-530 303,-163 303,-136.25 549.23,-118.27 789.1,-107.09"/>
<polygon fill="black" stroke="black" points="789.61,-110.57 799.43,-106.61 789.28,-103.58 789.61,-110.57"/>
<text text-anchor="middle" x="781.72" y="-112.19" font-family="Times,serif" font-size="14.00">*5</text>
</g>
<!-- node13&#45;&gt;node1 -->
<g id="edge38" class="edge">
<title>node13&#45;&gt;node1</title>
<path fill="none" stroke="green" stroke-width="2" d="M283.52,-693.23C288.32,-707.44 294,-728.24 294,-747 294,-1041 294,-1041 294,-1041 294,-1065.59 313.13,-1067.97 336,-1077 400.63,-1102.51 847.39,-1109.49 1048.39,-1111.35"/>
<polygon fill="green" stroke="green" stroke-width="2" points="1048.62,-1114.85 1058.65,-1111.44 1048.68,-1107.85 1048.62,-1114.85"/>
</g>
<!-- node13&#45;&gt;node11 -->
<g id="edge34" class="edge">
<title>node13&#45;&gt;node11</title>
<path fill="none" stroke="black" d="M281.12,-656.81C283.06,-648.7 285.42,-638.84 287.59,-629.78"/>
<polygon fill="black" stroke="black" points="291,-630.57 289.92,-620.03 284.19,-628.94 291,-630.57"/>
</g>
<!-- node13&#45;&gt;node19 -->
<g id="edge59" class="edge">
<title>node13&#45;&gt;node19</title>
<path fill="none" stroke="black" d="M130.79,-661.2C64.21,-651.19 0,-633.59 0,-603 0,-603 0,-603 0,-163 0,-122.17 434.53,-104.8 788.92,-97.42"/>
<polygon fill="black" stroke="black" points="789.2,-100.92 799.12,-97.21 789.05,-93.92 789.2,-100.92"/>
<text text-anchor="middle" x="781.17" y="-102.34" font-family="Times,serif" font-size="14.00">*4</text>
</g>
<!-- node15&#45;&gt;node0 -->
<g id="edge44" class="edge">
<title>node15&#45;&gt;node0</title>
<path fill="none" stroke="green" stroke-width="2" d="M1917.96,-1204.11C1898.37,-1213.94 1872.42,-1226.36 1849.72,-1236.8"/>
<polygon fill="green" stroke="green" stroke-width="2" points="1848.19,-1233.65 1840.55,-1240.99 1851.1,-1240.02 1848.19,-1233.65"/>
</g>
<!-- node17&#45;&gt;node0 -->
<g id="edge48" class="edge">
<title>node17&#45;&gt;node0</title>
<path fill="none" stroke="green" stroke-width="2" d="M2273.85,-1204.04C2235.01,-1210.76 2188.37,-1218.04 2146,-1223 2035.8,-1235.89 2007.01,-1226.57 1897,-1241 1895.49,-1241.2 1893.96,-1241.41 1892.43,-1241.62"/>
<polygon fill="green" stroke="green" stroke-width="2" points="1891.55,-1238.21 1882.18,-1243.16 1892.59,-1245.14 1891.55,-1238.21"/>
</g>
<!-- node17&#45;&gt;node18 -->
<g id="edge51" class="edge">
<title>node17&#45;&gt;node18</title>
<path fill="none" stroke="black" d="M2305.44,-1167.94C2282.12,-1156.85 2260,-1139.59 2260,-1114 2260,-1114 2260,-1114 2260,-236 2260,-188.9 2130.96,-172.93 2033.53,-167.58"/>
<polygon fill="black" stroke="black" points="2033.48,-164.07 2023.32,-167.05 2033.12,-171.06 2033.48,-164.07"/>
<text text-anchor="middle" x="2041.86" y="-155.85" font-family="Times,serif" font-size="14.00">*0</text>
</g>
<!-- node18&#45;&gt;node0 -->
<g id="edge50" class="edge">
<title>node18&#45;&gt;node0</title>
<path fill="none" stroke="green" stroke-width="2" d="M2020.41,-182.02C2070.89,-193.98 2123,-212.11 2123,-236 2123,-1187 2123,-1187 2123,-1187 2123,-1237.76 1959.44,-1232.24 1892.59,-1240.5"/>
<polygon fill="green" stroke="green" stroke-width="2" points="1891.75,-1237.09 1882.37,-1242.03 1892.78,-1244.02 1891.75,-1237.09"/>
</g>
<!-- node18&#45;&gt;node19 -->
<g id="edge55" class="edge">
<title>node18&#45;&gt;node19</title>
<path fill="none" stroke="black" d="M1867.09,-145.92C1845.56,-138.83 1821.4,-131.27 1799,-127 1763.35,-120.2 1701.84,-114.46 1632.28,-109.71"/>
<polygon fill="black" stroke="black" points="1632.18,-106.19 1621.97,-109.02 1631.71,-113.18 1632.18,-106.19"/>
<text text-anchor="middle" x="1640.62" y="-98.1" font-family="Times,serif" font-size="14.00">*0</text>
</g>
<!-- node18&#45;&gt;node19 -->
<g id="edge66" class="edge">
<title>node18&#45;&gt;node19</title>
<path fill="none" stroke="black" d="M1883.52,-145.92C1863.56,-138.83 1839.4,-131.27 1817,-127 1781.35,-120.2 1719.84,-114.46 1649.88,-109.71"/>
<polygon fill="black" stroke="black" points="1649.71,-106.19 1639.5,-109.02 1649.24,-113.17 1649.71,-106.19"/>
</g>
<!-- node18&#45;&gt;node19 -->
<g id="edge67" class="edge">
<title>node18&#45;&gt;node19</title>
<path fill="none" stroke="red" d="M1899.71,-145.83C1881.35,-138.76 1857.3,-131.25 1835,-127 1799.28,-120.19 1737.58,-114.43 1667.04,-109.68"/>
<polygon fill="red" stroke="red" points="1667.24,-106.18 1657.03,-109.02 1666.78,-113.17 1667.24,-106.18"/>
</g>
<!-- node19&#45;&gt;node0 -->
<g id="edge54" class="edge">
<title>node19&#45;&gt;node0</title>
<path fill="none" stroke="green" stroke-width="2" d="M1678.79,-94.72C2074.79,-100.19 2595,-116.28 2595,-163 2595,-1187 2595,-1187 2595,-1187 2595,-1263.17 2007.27,-1233.63 1892.44,-1240.85"/>
<polygon fill="green" stroke="green" stroke-width="2" points="1891.98,-1237.38 1882.32,-1241.73 1892.59,-1244.35 1891.98,-1237.38"/>
</g>
<!-- node20 -->
<g id="node22" class="node">
<title>node20</title>
<polygon fill="lightgrey" stroke="black" points="1364.5,-36 1113.5,-36 1113.5,0 1364.5,0 1364.5,-36"/>
<text text-anchor="middle" x="1239" y="-14.3" font-family="Times,serif" font-size="14.00">#20 ReturnValue : int Order : 21</text>
</g>
<!-- node19&#45;&gt;node20 -->
<g id="edge69" class="edge">
<title>node19&#45;&gt;node20</title>
<path fill="none" stroke="black" d="M1221.37,-72.81C1218.85,-64.79 1218.15,-55.05 1219.27,-46.07"/>
<polygon fill="black" stroke="black" points="1222.74,-46.54 1221.42,-36.03 1215.9,-45.07 1222.74,-46.54"/>
<text text-anchor="middle" x="1225.89" y="-51.82" font-family="Times,serif" font-size="14.00">*0</text>
</g>
<!-- node19&#45;&gt;node20 -->
<g id="edge70" class="edge">
<title>node19&#45;&gt;node20</title>
<path fill="none" stroke="red" d="M1244.88,-72.81C1245.72,-64.79 1245.95,-55.05 1245.58,-46.07"/>
<polygon fill="red" stroke="red" points="1249.06,-45.75 1244.86,-36.03 1242.08,-46.25 1249.06,-45.75"/>
</g>
<!-- node19&#45;&gt;node20 -->
<g id="edge71" class="edge">
<title>node19&#45;&gt;node20</title>
<path fill="none" stroke="black" d="M1256.63,-72.81C1259.15,-64.79 1259.85,-55.05 1258.73,-46.07"/>
<polygon fill="black" stroke="black" points="1262.1,-45.07 1256.58,-36.03 1255.26,-46.54 1262.1,-45.07"/>
</g>
<!-- node20&#45;&gt;node19 -->
<g id="edge68" class="edge">
<title>node20&#45;&gt;node19</title>
<path fill="none" stroke="green" stroke-width="2" d="M1233.14,-36.03C1232.29,-44.03 1232.05,-53.77 1232.41,-62.75"/>
<polygon fill="green" stroke="green" stroke-width="2" points="1228.93,-63.08 1233.12,-72.81 1235.91,-62.59 1228.93,-63.08"/>
</g>
<!-- c0 -->
<!-- c1 -->
<!-- c0&#45;&gt;c1 -->
<g id="edge74" class="edge">
<title>c0&#45;&gt;c1</title>
<path fill="none" stroke="red" d="M2613.89,-1259C2625.11,-1259 2683.24,-1259 2708.86,-1259"/>
<polygon fill="red" stroke="red" points="2709.06,-1262.5 2719.06,-1259 2709.06,-1255.5 2709.06,-1262.5"/>
<text text-anchor="middle" x="2666.5" y="-1265.8" font-family="Times,serif" font-size="14.00">Control flow</text>
</g>
<!-- c2 -->
<!-- c3 -->
<!-- c2&#45;&gt;c3 -->
<g id="edge75" class="edge">
<title>c2&#45;&gt;c3</title>
<path fill="none" stroke="red" stroke-dasharray="5,2" d="M2407.08,-1259C2424.05,-1259 2540.21,-1259 2578.08,-1259"/>
<polygon fill="red" stroke="red" points="2578.17,-1262.5 2588.17,-1259 2578.17,-1255.5 2578.17,-1262.5"/>
<text text-anchor="middle" x="2497.5" y="-1265.8" font-family="Times,serif" font-size="14.00">Control flow back edge</text>
</g>
<!-- d0 -->
<!-- d1 -->
<!-- d0&#45;&gt;d1 -->
<g id="edge76" class="edge">
<title>d0&#45;&gt;d1</title>
<path fill="none" stroke="black" d="M2295.86,-1259C2305.41,-1259 2349.31,-1259 2370.92,-1259"/>
<polygon fill="black" stroke="black" points="2371.15,-1262.5 2381.15,-1259 2371.15,-1255.5 2371.15,-1262.5"/>
<text text-anchor="middle" x="2338.5" y="-1265.8" font-family="Times,serif" font-size="14.00">Data flow</text>
</g>
<!-- d2 -->
<!-- d3 -->
<!-- d2&#45;&gt;d3 -->
<g id="edge77" class="edge">
<title>d2&#45;&gt;d3</title>
<path fill="none" stroke="black" stroke-dasharray="1,5" d="M2169.81,-1259C2180.46,-1259 2235.46,-1259 2260.08,-1259"/>
<polygon fill="black" stroke="black" points="2260.15,-1262.5 2270.15,-1259 2260.15,-1255.5 2260.15,-1262.5"/>
<text text-anchor="middle" x="2220" y="-1265.8" font-family="Times,serif" font-size="14.00">Declaration</text>
</g>
<!-- d4 -->
<!-- d5 -->
<!-- d4&#45;&gt;d5 -->
<g id="edge78" class="edge">
<title>d4&#45;&gt;d5</title>
<path fill="none" stroke="blue" d="M2027.1,-1259C2039.72,-1259 2105.88,-1259 2133.68,-1259"/>
<polygon fill="blue" stroke="blue" points="2133.84,-1262.5 2143.84,-1259 2133.84,-1255.5 2133.84,-1262.5"/>
<text text-anchor="middle" x="2085.5" y="-1265.8" font-family="Times,serif" font-size="14.00">PHI Data flow</text>
</g>
<!-- d6 -->
<!-- d7 -->
<!-- d6&#45;&gt;d7 -->
<g id="edge79" class="edge">
<title>d6&#45;&gt;d7</title>
<path fill="none" stroke="green" d="M1904.11,-1259C1915.15,-1259 1966.67,-1259 1990.66,-1259"/>
<polygon fill="green" stroke="green" points="1990.9,-1262.5 2000.9,-1259 1990.9,-1255.5 1990.9,-1262.5"/>
<text text-anchor="middle" x="1952.5" y="-1265.8" font-family="Times,serif" font-size="14.00">Dominance</text>
</g>
</g>
</svg>
