<?xml version="1.0" encoding="UTF-8" standalone="no"?>
<!DOCTYPE svg PUBLIC "-//W3C//DTD SVG 1.1//EN"
 "http://www.w3.org/Graphics/SVG/1.1/DTD/svg11.dtd">
<!-- Generated by graphviz version 2.43.0 (0)
 -->
<!-- Title: %3 Pages: 1 -->
<svg width="1060pt" height="651pt"
 viewBox="0.00 0.00 1060.00 650.80" xmlns="http://www.w3.org/2000/svg" xmlns:xlink="http://www.w3.org/1999/xlink">
<g id="graph0" class="graph" transform="scale(1 1) rotate(0) translate(4 646.8)">
<title>%3</title>
<polygon fill="white" stroke="transparent" points="-4,4 -4,-646.8 1056,-646.8 1056,4 -4,4"/>
<g id="clust1" class="cluster">
<title>cluster_000</title>
<polygon fill="none" stroke="black" points="708,-592.2 708,-634.8 1044,-634.8 1044,-592.2 708,-592.2"/>
<text text-anchor="middle" x="876" y="-619.6" font-family="Times,serif" font-size="14.00">Legend</text>
</g>
<!-- node0 -->
<g id="node1" class="node">
<title>node0</title>
<polygon fill="lightgrey" stroke="black" points="698.5,-620 285.5,-620 285.5,-584 698.5,-584 698.5,-620"/>
<text text-anchor="middle" x="492" y="-598.3" font-family="Times,serif" font-size="14.00">#0 LocalVariable[name=bool, slot=0, type=Z] Order: 0</text>
</g>
<!-- node1 -->
<g id="node2" class="node">
<title>node1</title>
<polygon fill="lightgrey" stroke="black" points="727,-547 257,-547 257,-511 727,-511 727,-547"/>
<text text-anchor="middle" x="492" y="-525.3" font-family="Times,serif" font-size="14.00">#1 Label[context=CodeModel[id=319426406], bci=0] Order: 1</text>
</g>
<!-- node0&#45;&gt;node1 -->
<g id="edge1" class="edge">
<title>node0&#45;&gt;node1</title>
<path fill="none" stroke="red" d="M492,-583.81C492,-575.79 492,-566.05 492,-557.07"/>
<polygon fill="red" stroke="red" points="495.5,-557.03 492,-547.03 488.5,-557.03 495.5,-557.03"/>
</g>
<!-- node2 -->
<g id="node3" class="node">
<title>node2</title>
<polygon fill="lightgrey" stroke="black" points="628,-474 356,-474 356,-438 628,-438 628,-474"/>
<text text-anchor="middle" x="492" y="-452.3" font-family="Times,serif" font-size="14.00">#2 LineNumber[line=111] Order: 2</text>
</g>
<!-- node1&#45;&gt;node2 -->
<g id="edge2" class="edge">
<title>node1&#45;&gt;node2</title>
<path fill="none" stroke="red" d="M492,-510.81C492,-502.79 492,-493.05 492,-484.07"/>
<polygon fill="red" stroke="red" points="495.5,-484.03 492,-474.03 488.5,-484.03 495.5,-484.03"/>
</g>
<!-- node3 -->
<g id="node4" class="node">
<title>node3</title>
<polygon fill="lightgrey" stroke="black" points="643.5,-401 340.5,-401 340.5,-365 643.5,-365 643.5,-401"/>
<text text-anchor="middle" x="492" y="-379.3" font-family="Times,serif" font-size="14.00">#3 Load[OP=ILOAD_0, slot=0] Order: 3</text>
</g>
<!-- node2&#45;&gt;node3 -->
<g id="edge3" class="edge">
<title>node2&#45;&gt;node3</title>
<path fill="none" stroke="red" d="M492,-437.81C492,-429.79 492,-420.05 492,-411.07"/>
<polygon fill="red" stroke="red" points="495.5,-411.03 492,-401.03 488.5,-411.03 495.5,-411.03"/>
</g>
<!-- node4 -->
<g id="node5" class="node">
<title>node4</title>
<polygon fill="lightgrey" stroke="black" points="611.5,-328 372.5,-328 372.5,-292 611.5,-292 611.5,-328"/>
<text text-anchor="middle" x="492" y="-306.3" font-family="Times,serif" font-size="14.00">#4 Branch[OP=IFNE] Order: 4</text>
</g>
<!-- node3&#45;&gt;node4 -->
<g id="edge4" class="edge">
<title>node3&#45;&gt;node4</title>
<path fill="none" stroke="red" d="M492,-364.81C492,-356.79 492,-347.05 492,-338.07"/>
<polygon fill="red" stroke="red" points="495.5,-338.03 492,-328.03 488.5,-338.03 495.5,-338.03"/>
</g>
<!-- node5 -->
<g id="node6" class="node">
<title>node5</title>
<polygon fill="lightgrey" stroke="black" points="488,-255 0,-255 0,-219 488,-219 488,-255"/>
<text text-anchor="middle" x="244" y="-233.3" font-family="Times,serif" font-size="14.00">#5 UnboundIntrinsicConstantInstruction[op=ICONST_1] Order: 5</text>
</g>
<!-- node4&#45;&gt;node5 -->
<g id="edge5" class="edge">
<title>node4&#45;&gt;node5</title>
<path fill="none" stroke="red" d="M432.6,-291.99C396.82,-281.75 351.08,-268.66 313.61,-257.93"/>
<polygon fill="red" stroke="red" points="314.35,-254.5 303.78,-255.11 312.43,-261.23 314.35,-254.5"/>
</g>
<!-- node7 -->
<g id="node8" class="node">
<title>node7</title>
<polygon fill="lightgrey" stroke="black" points="976,-255 506,-255 506,-219 976,-219 976,-255"/>
<text text-anchor="middle" x="741" y="-233.3" font-family="Times,serif" font-size="14.00">#7 Label[context=CodeModel[id=319426406], bci=8] Order: 7</text>
</g>
<!-- node4&#45;&gt;node7 -->
<g id="edge7" class="edge">
<title>node4&#45;&gt;node7</title>
<path fill="none" stroke="red" d="M551.64,-291.99C587.57,-281.75 633.49,-268.66 671.11,-257.93"/>
<polygon fill="red" stroke="red" points="672.33,-261.22 680.98,-255.11 670.41,-254.49 672.33,-261.22"/>
</g>
<!-- node6 -->
<g id="node7" class="node">
<title>node6</title>
<polygon fill="lightgrey" stroke="black" points="450,-182 206,-182 206,-146 450,-146 450,-182"/>
<text text-anchor="middle" x="328" y="-160.3" font-family="Times,serif" font-size="14.00">#6 Branch[OP=GOTO] Order: 6</text>
</g>
<!-- node5&#45;&gt;node6 -->
<g id="edge6" class="edge">
<title>node5&#45;&gt;node6</title>
<path fill="none" stroke="red" d="M264.33,-218.81C275.06,-209.74 288.39,-198.48 300.08,-188.6"/>
<polygon fill="red" stroke="red" points="302.48,-191.16 307.85,-182.03 297.96,-185.81 302.48,-191.16"/>
</g>
<!-- node9 -->
<g id="node10" class="node">
<title>node9</title>
<polygon fill="lightgrey" stroke="black" points="754,-109 284,-109 284,-73 754,-73 754,-109"/>
<text text-anchor="middle" x="519" y="-87.3" font-family="Times,serif" font-size="14.00">#9 Label[context=CodeModel[id=319426406], bci=9] Order: 9</text>
</g>
<!-- node6&#45;&gt;node9 -->
<g id="edge9" class="edge">
<title>node6&#45;&gt;node9</title>
<path fill="none" stroke="red" d="M373.75,-145.99C400.72,-135.97 435.03,-123.21 463.54,-112.62"/>
<polygon fill="red" stroke="red" points="464.81,-115.88 472.96,-109.11 462.37,-109.32 464.81,-115.88"/>
</g>
<!-- node8 -->
<g id="node9" class="node">
<title>node8</title>
<polygon fill="lightgrey" stroke="black" points="970,-182 482,-182 482,-146 970,-146 970,-182"/>
<text text-anchor="middle" x="726" y="-160.3" font-family="Times,serif" font-size="14.00">#8 UnboundIntrinsicConstantInstruction[op=ICONST_0] Order: 8</text>
</g>
<!-- node7&#45;&gt;node8 -->
<g id="edge8" class="edge">
<title>node7&#45;&gt;node8</title>
<path fill="none" stroke="red" d="M737.37,-218.81C735.67,-210.79 733.62,-201.05 731.72,-192.07"/>
<polygon fill="red" stroke="red" points="735.09,-191.09 729.6,-182.03 728.24,-192.54 735.09,-191.09"/>
</g>
<!-- node8&#45;&gt;node9 -->
<g id="edge10" class="edge">
<title>node8&#45;&gt;node9</title>
<path fill="none" stroke="red" d="M676.42,-145.99C647.06,-135.92 609.68,-123.1 578.71,-112.48"/>
<polygon fill="red" stroke="red" points="579.49,-109.05 568.89,-109.11 577.22,-115.67 579.49,-109.05"/>
</g>
<!-- node10 -->
<g id="node11" class="node">
<title>node10</title>
<polygon fill="lightgrey" stroke="black" points="662.5,-36 375.5,-36 375.5,0 662.5,0 662.5,-36"/>
<text text-anchor="middle" x="519" y="-14.3" font-family="Times,serif" font-size="14.00">#10 Return[OP=IRETURN] Order: 10</text>
</g>
<!-- node9&#45;&gt;node10 -->
<g id="edge11" class="edge">
<title>node9&#45;&gt;node10</title>
<path fill="none" stroke="red" d="M519,-72.81C519,-64.79 519,-55.05 519,-46.07"/>
<polygon fill="red" stroke="red" points="522.5,-46.03 519,-36.03 515.5,-46.03 522.5,-46.03"/>
</g>
<!-- c0 -->
<!-- c1 -->
<!-- c0&#45;&gt;c1 -->
<g id="edge12" class="edge">
<title>c0&#45;&gt;c1</title>
<path fill="none" stroke="red" d="M926.89,-602C938.11,-602 996.24,-602 1021.86,-602"/>
<polygon fill="red" stroke="red" points="1022.06,-605.5 1032.06,-602 1022.06,-598.5 1022.06,-605.5"/>
<text text-anchor="middle" x="979.5" y="-608.8" font-family="Times,serif" font-size="14.00">Control flow</text>
</g>
<!-- c2 -->
<!-- c3 -->
<!-- c2&#45;&gt;c3 -->
<g id="edge13" class="edge">
<title>c2&#45;&gt;c3</title>
<path fill="none" stroke="red" stroke-dasharray="5,2" d="M720.08,-602C737.05,-602 853.21,-602 891.08,-602"/>
<polygon fill="red" stroke="red" points="891.17,-605.5 901.17,-602 891.17,-598.5 891.17,-605.5"/>
<text text-anchor="middle" x="810.5" y="-608.8" font-family="Times,serif" font-size="14.00">Control flow back edge</text>
</g>
</g>
</svg>
