<?xml version="1.0" encoding="UTF-8" standalone="no"?>
<!DOCTYPE svg PUBLIC "-//W3C//DTD SVG 1.1//EN"
 "http://www.w3.org/Graphics/SVG/1.1/DTD/svg11.dtd">
<!-- Generated by graphviz version 2.43.0 (0)
 -->
<!-- Title: %3 Pages: 1 -->
<svg width="1179pt" height="678pt"
 viewBox="0.00 0.00 1179.00 677.80" xmlns="http://www.w3.org/2000/svg" xmlns:xlink="http://www.w3.org/1999/xlink">
<g id="graph0" class="graph" transform="scale(1 1) rotate(0) translate(4 673.8)">
<title>%3</title>
<polygon fill="white" stroke="transparent" points="-4,4 -4,-673.8 1175,-673.8 1175,4 -4,4"/>
<g id="clust1" class="cluster">
<title>cluster_0</title>
<polygon fill="none" stroke="lightgray" points="142,-448 142,-573 278,-573 278,-448 142,-448"/>
</g>
<g id="clust2" class="cluster">
<title>cluster_1</title>
<polygon fill="none" stroke="lightgray" points="73,-65 73,-190 255,-190 255,-65 73,-65"/>
</g>
<g id="clust3" class="cluster">
<title>cluster_2</title>
<polygon fill="none" stroke="lightgray" points="8,-211 8,-263 142,-263 142,-211 8,-211"/>
</g>
<g id="clust4" class="cluster">
<title>cluster_3</title>
<polygon fill="none" stroke="lightgray" points="263,-138 263,-263 399,-263 399,-138 263,-138"/>
</g>
<g id="clust5" class="cluster">
<title>cluster_000</title>
<polygon fill="none" stroke="black" points="310,-619.2 310,-661.8 1163,-661.8 1163,-619.2 310,-619.2"/>
<text text-anchor="middle" x="736.5" y="-646.6" font-family="Times,serif" font-size="14.00">Legend</text>
</g>
<!-- node0 -->
<g id="node1" class="node">
<title>node0</title>
<polygon fill="lightgrey" stroke="transparent" points="300.5,-656 207.5,-656 207.5,-602 300.5,-602 300.5,-656"/>
<polygon fill="none" stroke="black" points="208,-629 208,-656 301,-656 301,-629 208,-629"/>
<text text-anchor="start" x="214" y="-638.8" font-family="Times,serif" font-size="14.00">#0 Method</text>
<polygon fill="yellow" stroke="transparent" points="208,-602 208,-629 301,-629 301,-602 208,-602"/>
<polygon fill="none" stroke="black" points="208,-602 208,-629 301,-629 301,-602 208,-602"/>
<text text-anchor="start" x="221" y="-611.8" font-family="Times,serif" font-size="14.00">arg0 : int</text>
</g>
<!-- node4 -->
<g id="node2" class="node">
<title>node4</title>
<polygon fill="orange" stroke="black" points="445.06,-393.54 445.06,-408.46 358.91,-419 237.09,-419 150.94,-408.46 150.94,-393.54 237.09,-383 358.91,-383 445.06,-393.54"/>
<text text-anchor="middle" x="298" y="-397.3" font-family="Times,serif" font-size="14.00">#4 NumericCondition : NE</text>
</g>
<!-- node0&#45;&gt;node4 -->
<g id="edge1" class="edge">
<title>node0:prj1&#45;&gt;node4</title>
<path fill="none" stroke="black" d="M302,-615C311.19,-615 303.7,-486.69 299.89,-429.24"/>
<polygon fill="black" stroke="black" points="303.37,-428.81 299.21,-419.07 296.39,-429.28 303.37,-428.81"/>
<text text-anchor="middle" x="308.86" y="-432.89" font-family="Times,serif" font-size="14.00">*0</text>
</g>
<!-- node2 -->
<g id="node4" class="node">
<title>node2</title>
<polygon fill="lightgrey" stroke="black" points="269.5,-565 150.5,-565 150.5,-529 269.5,-529 269.5,-565"/>
<text text-anchor="middle" x="210" y="-543.3" font-family="Times,serif" font-size="14.00">#2 LabelNode</text>
</g>
<!-- node0&#45;&gt;node2 -->
<g id="edge4" class="edge">
<title>node0&#45;&gt;node2</title>
<path fill="none" stroke="red" d="M239.59,-601.81C234.68,-592.88 229.2,-582.9 224.29,-573.99"/>
<polygon fill="red" stroke="red" points="227.33,-572.25 219.45,-565.17 221.2,-575.62 227.33,-572.25"/>
</g>
<!-- node14 -->
<g id="node12" class="node">
<title>node14</title>
<polygon fill="lightgrey" stroke="black" points="183.5,-36 10.5,-36 10.5,0 183.5,0 183.5,-36"/>
<text text-anchor="middle" x="97" y="-14.3" font-family="Times,serif" font-size="14.00">#14 ReturnValue : int</text>
</g>
<!-- node0&#45;&gt;node14 -->
<g id="edge18" class="edge">
<title>node0&#45;&gt;node14</title>
<path fill="none" stroke="green" d="M294.47,-601.77C343.81,-566.98 424.29,-500.38 454,-419 482.47,-341 574.99,-342.59 423,-138 369.79,-66.37 269.04,-37.79 193.56,-26.43"/>
<polygon fill="green" stroke="green" points="193.95,-22.95 183.55,-25 192.96,-29.88 193.95,-22.95"/>
</g>
<!-- node5 -->
<g id="node5" class="node">
<title>node5</title>
<polygon fill="lightgrey" stroke="transparent" points="255.5,-346 166.5,-346 166.5,-292 255.5,-292 255.5,-346"/>
<polygon fill="none" stroke="black" points="167,-319 167,-346 256,-346 256,-319 167,-319"/>
<text text-anchor="start" x="193" y="-328.8" font-family="Times,serif" font-size="14.00">#5 If</text>
<polygon fill="yellow" stroke="transparent" points="167,-292 167,-319 213,-319 213,-292 167,-292"/>
<polygon fill="none" stroke="black" points="167,-292 167,-319 213,-319 213,-292 167,-292"/>
<text text-anchor="start" x="173" y="-301.8" font-family="Times,serif" font-size="14.00">false</text>
<polygon fill="yellow" stroke="transparent" points="213,-292 213,-319 256,-319 256,-292 213,-292"/>
<polygon fill="none" stroke="black" points="213,-292 213,-319 256,-319 256,-292 213,-292"/>
<text text-anchor="start" x="219" y="-301.8" font-family="Times,serif" font-size="14.00">true</text>
</g>
<!-- node4&#45;&gt;node5 -->
<g id="edge5" class="edge">
<title>node4&#45;&gt;node5</title>
<path fill="none" stroke="black" d="M277.91,-382.73C271.49,-377.13 264.4,-370.86 258,-365 253.94,-361.28 249.72,-357.35 245.55,-353.41"/>
<polygon fill="black" stroke="black" points="247.8,-350.73 238.14,-346.38 242.99,-355.81 247.8,-350.73"/>
<text text-anchor="middle" x="257.11" y="-349.03" font-family="Times,serif" font-size="14.00">*0</text>
</g>
<!-- node3 -->
<g id="node3" class="node">
<title>node3</title>
<polygon fill="lightgreen" stroke="black" points="266.52,-466.54 266.52,-481.46 235.76,-492 192.24,-492 161.48,-481.46 161.48,-466.54 192.24,-456 235.76,-456 266.52,-466.54"/>
<text text-anchor="middle" x="214" y="-470.3" font-family="Times,serif" font-size="14.00">#3 int 0</text>
</g>
<!-- node3&#45;&gt;node4 -->
<g id="edge2" class="edge">
<title>node3&#45;&gt;node4</title>
<path fill="none" stroke="black" d="M234.33,-455.81C245.06,-446.74 258.39,-435.48 270.08,-425.6"/>
<polygon fill="black" stroke="black" points="272.48,-428.16 277.85,-419.03 267.96,-422.81 272.48,-428.16"/>
<text text-anchor="middle" x="269.47" y="-433.49" font-family="Times,serif" font-size="14.00">*1</text>
</g>
<!-- node2&#45;&gt;node3 -->
<g id="edge3" class="edge">
<title>node2&#45;&gt;node3</title>
<path fill="none" stroke="black" stroke-dasharray="1,5" d="M210.97,-528.81C211.42,-520.79 211.97,-511.05 212.47,-502.07"/>
<polygon fill="black" stroke="black" points="215.97,-502.21 213.04,-492.03 208.98,-501.82 215.97,-502.21"/>
</g>
<!-- node2&#45;&gt;node5 -->
<g id="edge6" class="edge">
<title>node2&#45;&gt;node5</title>
<path fill="none" stroke="red" d="M184.72,-528.88C172.82,-519.44 159.6,-506.65 152,-492 129.6,-448.82 122.37,-427.51 142,-383 146.96,-371.75 155.03,-361.64 163.94,-352.98"/>
<polygon fill="red" stroke="red" points="166.51,-355.37 171.56,-346.06 161.8,-350.19 166.51,-355.37"/>
</g>
<!-- node9 -->
<g id="node6" class="node">
<title>node9</title>
<polygon fill="lightgrey" stroke="black" points="228,-255 152,-255 152,-219 228,-219 228,-255"/>
<text text-anchor="middle" x="190" y="-233.3" font-family="Times,serif" font-size="14.00">#9 Goto</text>
</g>
<!-- node5&#45;&gt;node9 -->
<g id="edge7" class="edge">
<title>node5:prj7&#45;&gt;node9</title>
<path fill="none" stroke="red" d="M190,-292C190,-283.3 190,-273.81 190,-265.25"/>
<polygon fill="red" stroke="red" points="193.5,-265.02 190,-255.02 186.5,-265.02 193.5,-265.02"/>
</g>
<!-- node8 -->
<g id="node8" class="node">
<title>node8</title>
<polygon fill="lightgrey" stroke="black" points="390.5,-255 271.5,-255 271.5,-219 390.5,-219 390.5,-255"/>
<text text-anchor="middle" x="331" y="-233.3" font-family="Times,serif" font-size="14.00">#8 LabelNode</text>
</g>
<!-- node5&#45;&gt;node8 -->
<g id="edge10" class="edge">
<title>node5:prj6&#45;&gt;node8</title>
<path fill="none" stroke="red" d="M235,-292C235,-274.9 246.72,-263.15 261.97,-255.11"/>
<polygon fill="red" stroke="red" points="263.69,-258.17 271.29,-250.79 260.75,-251.82 263.69,-258.17"/>
</g>
<!-- node10 -->
<g id="node11" class="node">
<title>node10</title>
<polygon fill="lightgreen" stroke="black" points="134.19,-229.54 134.19,-244.46 99.52,-255 50.48,-255 15.81,-244.46 15.81,-229.54 50.48,-219 99.52,-219 134.19,-229.54"/>
<text text-anchor="middle" x="75" y="-233.3" font-family="Times,serif" font-size="14.00">#10 int 1</text>
</g>
<!-- node5&#45;&gt;node10 -->
<g id="edge15" class="edge">
<title>node5:prj7&#45;&gt;node10</title>
<path fill="none" stroke="black" stroke-dasharray="1,5" d="M166,-305C136.65,-305 110.52,-282.11 93.87,-263.09"/>
<polygon fill="black" stroke="black" points="96.43,-260.69 87.34,-255.25 91.06,-265.18 96.43,-260.69"/>
</g>
<!-- node11 -->
<g id="node7" class="node">
<title>node11</title>
<polygon fill="lightgrey" stroke="black" points="247.5,-182 80.5,-182 80.5,-146 247.5,-146 247.5,-182"/>
<text text-anchor="middle" x="164" y="-160.3" font-family="Times,serif" font-size="14.00">#11 Merge : Merge9</text>
</g>
<!-- node9&#45;&gt;node11 -->
<g id="edge8" class="edge">
<title>node9&#45;&gt;node11</title>
<path fill="none" stroke="red" d="M183.71,-218.81C180.7,-210.62 177.05,-200.62 173.7,-191.48"/>
<polygon fill="red" stroke="red" points="176.96,-190.22 170.24,-182.03 170.39,-192.62 176.96,-190.22"/>
</g>
<!-- node13 -->
<g id="node10" class="node">
<title>node13</title>
<polygon fill="lightgreen" stroke="black" points="234.5,-83.54 234.5,-98.46 199.06,-109 148.94,-109 113.5,-98.46 113.5,-83.54 148.94,-73 199.06,-73 234.5,-83.54"/>
<text text-anchor="middle" x="174" y="-87.3" font-family="Times,serif" font-size="14.00">#13 Φ int</text>
</g>
<!-- node11&#45;&gt;node13 -->
<g id="edge12" class="edge">
<title>node11&#45;&gt;node13</title>
<path fill="none" stroke="black" stroke-dasharray="1,5" d="M166.42,-145.81C167.55,-137.79 168.92,-128.05 170.19,-119.07"/>
<polygon fill="black" stroke="black" points="173.67,-119.42 171.6,-109.03 166.74,-118.44 173.67,-119.42"/>
</g>
<!-- node11&#45;&gt;node14 -->
<g id="edge17" class="edge">
<title>node11&#45;&gt;node14</title>
<path fill="none" stroke="red" d="M136.86,-145.77C124.63,-136.47 111.31,-123.83 104,-109 94.45,-89.61 93.16,-64.99 94,-46.4"/>
<polygon fill="red" stroke="red" points="97.5,-46.45 94.69,-36.24 90.52,-45.98 97.5,-46.45"/>
</g>
<!-- node8&#45;&gt;node11 -->
<g id="edge9" class="edge">
<title>node8&#45;&gt;node11</title>
<path fill="none" stroke="red" d="M291,-218.99C267.73,-209.1 238.2,-196.54 213.47,-186.03"/>
<polygon fill="red" stroke="red" points="214.83,-182.81 204.25,-182.11 212.09,-189.25 214.83,-182.81"/>
</g>
<!-- node12 -->
<g id="node9" class="node">
<title>node12</title>
<polygon fill="lightgreen" stroke="black" points="390.19,-156.54 390.19,-171.46 355.52,-182 306.48,-182 271.81,-171.46 271.81,-156.54 306.48,-146 355.52,-146 390.19,-156.54"/>
<text text-anchor="middle" x="331" y="-160.3" font-family="Times,serif" font-size="14.00">#12 int 0</text>
</g>
<!-- node8&#45;&gt;node12 -->
<g id="edge11" class="edge">
<title>node8&#45;&gt;node12</title>
<path fill="none" stroke="black" stroke-dasharray="1,5" d="M331,-218.81C331,-210.79 331,-201.05 331,-192.07"/>
<polygon fill="black" stroke="black" points="334.5,-192.03 331,-182.03 327.5,-192.03 334.5,-192.03"/>
</g>
<!-- node12&#45;&gt;node13 -->
<g id="edge14" class="edge">
<title>node12&#45;&gt;node13</title>
<path fill="none" stroke="blue" d="M295.93,-149.06C284.34,-144.93 271.26,-140.77 259,-138 239.37,-133.56 182.42,-142.99 169,-128 166.73,-125.46 165.64,-122.39 165.33,-119.13"/>
<polygon fill="blue" stroke="blue" points="168.82,-119.4 166.36,-109.09 161.86,-118.68 168.82,-119.4"/>
<text text-anchor="middle" x="172.91" y="-124.29" font-family="Times,serif" font-size="14.00">if #8</text>
</g>
<!-- node13&#45;&gt;node14 -->
<g id="edge16" class="edge">
<title>node13&#45;&gt;node14</title>
<path fill="none" stroke="black" d="M155.36,-72.81C145.62,-63.83 133.54,-52.69 122.9,-42.89"/>
<polygon fill="black" stroke="black" points="125.19,-40.23 115.47,-36.03 120.45,-45.38 125.19,-40.23"/>
<text text-anchor="middle" x="134.52" y="-38.4" font-family="Times,serif" font-size="14.00">*0</text>
</g>
<!-- node10&#45;&gt;node13 -->
<g id="edge13" class="edge">
<title>node10&#45;&gt;node13</title>
<path fill="none" stroke="blue" d="M108.36,-221.69C119.22,-217.58 131.45,-213.54 143,-211 171.31,-204.78 383.35,-211.3 403,-190 418.67,-173.01 418.77,-154.9 403,-138 392.06,-126.27 274.6,-131.73 259,-128 243.68,-124.33 227.59,-118.17 213.58,-111.97"/>
<polygon fill="blue" stroke="blue" points="214.8,-108.68 204.25,-107.71 211.89,-115.05 214.8,-108.68"/>
<text text-anchor="middle" x="224.25" y="-103.86" font-family="Times,serif" font-size="14.00">if #9</text>
</g>
<!-- c0 -->
<!-- c1 -->
<!-- c0&#45;&gt;c1 -->
<g id="edge19" class="edge">
<title>c0&#45;&gt;c1</title>
<path fill="none" stroke="red" d="M1045.89,-629C1057.11,-629 1115.24,-629 1140.86,-629"/>
<polygon fill="red" stroke="red" points="1141.06,-632.5 1151.06,-629 1141.06,-625.5 1141.06,-632.5"/>
<text text-anchor="middle" x="1098.5" y="-635.8" font-family="Times,serif" font-size="14.00">Control flow</text>
</g>
<!-- c2 -->
<!-- c3 -->
<!-- c2&#45;&gt;c3 -->
<g id="edge20" class="edge">
<title>c2&#45;&gt;c3</title>
<path fill="none" stroke="red" stroke-dasharray="5,2" d="M839.08,-629C856.05,-629 972.21,-629 1010.08,-629"/>
<polygon fill="red" stroke="red" points="1010.17,-632.5 1020.17,-629 1010.17,-625.5 1010.17,-632.5"/>
<text text-anchor="middle" x="929.5" y="-635.8" font-family="Times,serif" font-size="14.00">Control flow back edge</text>
</g>
<!-- d0 -->
<!-- d1 -->
<!-- d0&#45;&gt;d1 -->
<g id="edge21" class="edge">
<title>d0&#45;&gt;d1</title>
<path fill="none" stroke="black" d="M727.86,-629C737.41,-629 781.31,-629 802.92,-629"/>
<polygon fill="black" stroke="black" points="803.15,-632.5 813.15,-629 803.15,-625.5 803.15,-632.5"/>
<text text-anchor="middle" x="770.5" y="-635.8" font-family="Times,serif" font-size="14.00">Data flow</text>
</g>
<!-- d2 -->
<!-- d3 -->
<!-- d2&#45;&gt;d3 -->
<g id="edge22" class="edge">
<title>d2&#45;&gt;d3</title>
<path fill="none" stroke="black" stroke-dasharray="1,5" d="M601.81,-629C612.46,-629 667.46,-629 692.08,-629"/>
<polygon fill="black" stroke="black" points="692.15,-632.5 702.15,-629 692.15,-625.5 692.15,-632.5"/>
<text text-anchor="middle" x="652" y="-635.8" font-family="Times,serif" font-size="14.00">Declaration</text>
</g>
<!-- d4 -->
<!-- d5 -->
<!-- d4&#45;&gt;d5 -->
<g id="edge23" class="edge">
<title>d4&#45;&gt;d5</title>
<path fill="none" stroke="blue" d="M459.1,-629C471.72,-629 537.88,-629 565.68,-629"/>
<polygon fill="blue" stroke="blue" points="565.84,-632.5 575.84,-629 565.84,-625.5 565.84,-632.5"/>
<text text-anchor="middle" x="517.5" y="-635.8" font-family="Times,serif" font-size="14.00">PHI Data flow</text>
</g>
<!-- d6 -->
<!-- d7 -->
<!-- d6&#45;&gt;d7 -->
<g id="edge24" class="edge">
<title>d6&#45;&gt;d7</title>
<path fill="none" stroke="green" d="M322,-629C333.94,-629 396.3,-629 422.93,-629"/>
<polygon fill="green" stroke="green" points="422.95,-632.5 432.95,-629 422.95,-625.5 422.95,-632.5"/>
<text text-anchor="middle" x="377.5" y="-635.8" font-family="Times,serif" font-size="14.00">Memory flow</text>
</g>
</g>
</svg>
