<?xml version="1.0" encoding="UTF-8" standalone="no"?>
<!DOCTYPE svg PUBLIC "-//W3C//DTD SVG 1.1//EN"
 "http://www.w3.org/Graphics/SVG/1.1/DTD/svg11.dtd">
<!-- Generated by graphviz version 2.43.0 (0)
 -->
<!-- Title: %3 Pages: 1 -->
<svg width="1143pt" height="607pt"
 viewBox="0.00 0.00 1143.44 607.00" xmlns="http://www.w3.org/2000/svg" xmlns:xlink="http://www.w3.org/1999/xlink">
<g id="graph0" class="graph" transform="scale(1 1) rotate(0) translate(4 603)">
<title>%3</title>
<polygon fill="white" stroke="transparent" points="-4,4 -4,-603 1139.44,-603 1139.44,4 -4,4"/>
<g id="clust1" class="cluster">
<title>cluster_0</title>
<polygon fill="none" stroke="lightgray" points="315.44,-65 315.44,-190 497.44,-190 497.44,-65 315.44,-65"/>
</g>
<g id="clust2" class="cluster">
<title>cluster_1</title>
<polygon fill="none" stroke="lightgray" points="20.44,-448 20.44,-591 266.44,-591 266.44,-448 20.44,-448"/>
</g>
<g id="clust3" class="cluster">
<title>cluster_000</title>
<polygon fill="none" stroke="black" points="274.44,-546.2 274.44,-588.8 1127.44,-588.8 1127.44,-546.2 274.44,-546.2"/>
<text text-anchor="middle" x="700.94" y="-573.6" font-family="Times,serif" font-size="14.00">Legend</text>
</g>
<!-- node0 -->
<g id="node1" class="node">
<title>node0</title>
<polygon fill="lightgrey" stroke="transparent" points="255.94,-583 162.94,-583 162.94,-529 255.94,-529 255.94,-583"/>
<polygon fill="none" stroke="black" points="163.44,-556 163.44,-583 256.44,-583 256.44,-556 163.44,-556"/>
<text text-anchor="start" x="169.44" y="-565.8" font-family="Times,serif" font-size="14.00">#0 Method</text>
<polygon fill="yellow" stroke="transparent" points="163.44,-529 163.44,-556 256.44,-556 256.44,-529 163.44,-529"/>
<polygon fill="none" stroke="black" points="163.44,-529 163.44,-556 256.44,-556 256.44,-529 163.44,-529"/>
<text text-anchor="start" x="176.44" y="-538.8" font-family="Times,serif" font-size="14.00">arg0 : int</text>
</g>
<!-- node13 -->
<g id="node2" class="node">
<title>node13</title>
<polygon fill="lightgrey" stroke="black" points="518.94,-36 345.94,-36 345.94,0 518.94,0 518.94,-36"/>
<text text-anchor="middle" x="432.44" y="-14.3" font-family="Times,serif" font-size="14.00">#13 ReturnValue : int</text>
</g>
<!-- node0&#45;&gt;node13 -->
<g id="edge3" class="edge">
<title>node0&#45;&gt;node13</title>
<path fill="none" stroke="green" d="M241.66,-528.96C268.86,-507.1 308.94,-475.18 344.44,-448 442.02,-373.3 507.13,-372.71 542.44,-255 567.26,-172.26 552.32,-134.82 501.44,-65 494.82,-55.91 485.81,-48.09 476.5,-41.6"/>
<polygon fill="green" stroke="green" points="478.21,-38.54 467.92,-36.03 474.39,-44.41 478.21,-38.54"/>
</g>
<!-- node5 -->
<g id="node8" class="node">
<title>node5</title>
<polygon fill="orange" stroke="black" points="308.5,-393.54 308.5,-408.46 222.35,-419 100.52,-419 14.38,-408.46 14.38,-393.54 100.52,-383 222.35,-383 308.5,-393.54"/>
<text text-anchor="middle" x="161.44" y="-397.3" font-family="Times,serif" font-size="14.00">#5 NumericCondition : NE</text>
</g>
<!-- node0&#45;&gt;node5 -->
<g id="edge10" class="edge">
<title>node0:prj1&#45;&gt;node5</title>
<path fill="none" stroke="black" d="M257.44,-542C278.45,-542 278.96,-465.56 267.44,-448 260.45,-437.35 250.4,-429.15 239.24,-422.84"/>
<polygon fill="black" stroke="black" points="240.59,-419.6 230.1,-418.18 237.42,-425.84 240.59,-419.6"/>
<text text-anchor="middle" x="250.08" y="-415.18" font-family="Times,serif" font-size="14.00">*0</text>
</g>
<!-- node2 -->
<g id="node9" class="node">
<title>node2</title>
<polygon fill="lightgrey" stroke="black" points="471.94,-492 352.94,-492 352.94,-456 471.94,-456 471.94,-492"/>
<text text-anchor="middle" x="412.44" y="-470.3" font-family="Times,serif" font-size="14.00">#2 LabelNode</text>
</g>
<!-- node0&#45;&gt;node2 -->
<g id="edge9" class="edge">
<title>node0&#45;&gt;node2</title>
<path fill="none" stroke="red" d="M255.99,-534.94C260.86,-532.9 265.74,-530.89 270.44,-529 298.76,-517.58 330.51,-505.45 356.8,-495.58"/>
<polygon fill="red" stroke="red" points="358.08,-498.84 366.21,-492.05 355.62,-492.28 358.08,-498.84"/>
</g>
<!-- node4 -->
<g id="node10" class="node">
<title>node4</title>
<polygon fill="lightgreen" stroke="black" points="133.96,-466.54 133.96,-481.46 103.2,-492 59.68,-492 28.91,-481.46 28.91,-466.54 59.68,-456 103.2,-456 133.96,-466.54"/>
<text text-anchor="middle" x="81.44" y="-470.3" font-family="Times,serif" font-size="14.00">#4 int 0</text>
</g>
<!-- node0&#45;&gt;node4 -->
<g id="edge12" class="edge">
<title>node0&#45;&gt;node4</title>
<path fill="none" stroke="black" stroke-dasharray="1,5" d="M167.53,-528.81C150.67,-518.27 131.49,-506.28 115.51,-496.29"/>
<polygon fill="black" stroke="black" points="117.34,-493.31 107,-490.98 113.63,-499.24 117.34,-493.31"/>
</g>
<!-- node3 -->
<g id="node11" class="node">
<title>node3</title>
<polygon fill="lightgreen" stroke="black" points="257.96,-466.54 257.96,-481.46 227.2,-492 183.68,-492 152.91,-481.46 152.91,-466.54 183.68,-456 227.2,-456 257.96,-466.54"/>
<text text-anchor="middle" x="205.44" y="-470.3" font-family="Times,serif" font-size="14.00">#3 int 1</text>
</g>
<!-- node0&#45;&gt;node3 -->
<g id="edge16" class="edge">
<title>node0&#45;&gt;node3</title>
<path fill="none" stroke="black" stroke-dasharray="1,5" d="M208.13,-528.81C207.71,-520.35 207.24,-510.95 206.81,-502.4"/>
<polygon fill="black" stroke="black" points="210.29,-501.99 206.3,-492.17 203.3,-502.34 210.29,-501.99"/>
</g>
<!-- node12 -->
<g id="node3" class="node">
<title>node12</title>
<polygon fill="lightgreen" stroke="black" points="448.94,-83.54 448.94,-98.46 413.5,-109 363.38,-109 327.94,-98.46 327.94,-83.54 363.38,-73 413.5,-73 448.94,-83.54"/>
<text text-anchor="middle" x="388.44" y="-87.3" font-family="Times,serif" font-size="14.00">#12 Φ int</text>
</g>
<!-- node12&#45;&gt;node13 -->
<g id="edge1" class="edge">
<title>node12&#45;&gt;node13</title>
<path fill="none" stroke="black" d="M399.09,-72.81C404.33,-64.35 410.76,-53.98 416.57,-44.61"/>
<polygon fill="black" stroke="black" points="419.59,-46.37 421.89,-36.03 413.64,-42.69 419.59,-46.37"/>
<text text-anchor="middle" x="419.52" y="-52.19" font-family="Times,serif" font-size="14.00">*0</text>
</g>
<!-- node11 -->
<g id="node4" class="node">
<title>node11</title>
<polygon fill="lightgrey" stroke="black" points="489.94,-182 322.94,-182 322.94,-146 489.94,-146 489.94,-182"/>
<text text-anchor="middle" x="406.44" y="-160.3" font-family="Times,serif" font-size="14.00">#11 Merge : Merge9</text>
</g>
<!-- node11&#45;&gt;node13 -->
<g id="edge2" class="edge">
<title>node11&#45;&gt;node13</title>
<path fill="none" stroke="red" d="M430.34,-145.89C441.32,-136.45 453.08,-123.67 458.44,-109 465.14,-90.63 463.41,-83.91 458.44,-65 456.65,-58.2 453.61,-51.36 450.22,-45.1"/>
<polygon fill="red" stroke="red" points="453.2,-43.26 445.11,-36.42 447.17,-46.82 453.2,-43.26"/>
</g>
<!-- node11&#45;&gt;node12 -->
<g id="edge13" class="edge">
<title>node11&#45;&gt;node12</title>
<path fill="none" stroke="black" stroke-dasharray="1,5" d="M402.08,-145.81C400.03,-137.7 397.52,-127.84 395.23,-118.78"/>
<polygon fill="black" stroke="black" points="398.61,-117.86 392.76,-109.03 391.82,-119.58 398.61,-117.86"/>
</g>
<!-- node10 -->
<g id="node5" class="node">
<title>node10</title>
<polygon fill="lightgrey" stroke="black" points="380.94,-255 295.94,-255 295.94,-219 380.94,-219 380.94,-255"/>
<text text-anchor="middle" x="338.44" y="-233.3" font-family="Times,serif" font-size="14.00">#10 Goto</text>
</g>
<!-- node10&#45;&gt;node11 -->
<g id="edge4" class="edge">
<title>node10&#45;&gt;node11</title>
<path fill="none" stroke="red" d="M354.9,-218.81C363.34,-210 373.76,-199.13 383.01,-189.46"/>
<polygon fill="red" stroke="red" points="385.74,-191.67 390.13,-182.03 380.69,-186.83 385.74,-191.67"/>
</g>
<!-- node9 -->
<g id="node6" class="node">
<title>node9</title>
<polygon fill="lightgrey" stroke="black" points="517.94,-255 398.94,-255 398.94,-219 517.94,-219 517.94,-255"/>
<text text-anchor="middle" x="458.44" y="-233.3" font-family="Times,serif" font-size="14.00">#9 LabelNode</text>
</g>
<!-- node9&#45;&gt;node11 -->
<g id="edge5" class="edge">
<title>node9&#45;&gt;node11</title>
<path fill="none" stroke="red" d="M445.85,-218.81C439.59,-210.27 431.9,-199.77 424.99,-190.32"/>
<polygon fill="red" stroke="red" points="427.64,-188.03 418.91,-182.03 422,-192.16 427.64,-188.03"/>
</g>
<!-- node6 -->
<g id="node7" class="node">
<title>node6</title>
<polygon fill="lightgrey" stroke="transparent" points="447.94,-346 358.94,-346 358.94,-292 447.94,-292 447.94,-346"/>
<polygon fill="none" stroke="black" points="359.44,-319 359.44,-346 448.44,-346 448.44,-319 359.44,-319"/>
<text text-anchor="start" x="385.44" y="-328.8" font-family="Times,serif" font-size="14.00">#6 If</text>
<polygon fill="yellow" stroke="transparent" points="359.44,-292 359.44,-319 405.44,-319 405.44,-292 359.44,-292"/>
<polygon fill="none" stroke="black" points="359.44,-292 359.44,-319 405.44,-319 405.44,-292 359.44,-292"/>
<text text-anchor="start" x="365.44" y="-301.8" font-family="Times,serif" font-size="14.00">false</text>
<polygon fill="yellow" stroke="transparent" points="405.44,-292 405.44,-319 448.44,-319 448.44,-292 405.44,-292"/>
<polygon fill="none" stroke="black" points="405.44,-292 405.44,-319 448.44,-319 448.44,-292 405.44,-292"/>
<text text-anchor="start" x="411.44" y="-301.8" font-family="Times,serif" font-size="14.00">true</text>
</g>
<!-- node6&#45;&gt;node10 -->
<g id="edge17" class="edge">
<title>node6:prj8&#45;&gt;node10</title>
<path fill="none" stroke="red" d="M382.44,-292C382.44,-280.8 376.68,-270.63 369.32,-262.22"/>
<polygon fill="red" stroke="red" points="371.75,-259.69 362.24,-255 366.75,-264.59 371.75,-259.69"/>
</g>
<!-- node6&#45;&gt;node9 -->
<g id="edge6" class="edge">
<title>node6:prj7&#45;&gt;node9</title>
<path fill="none" stroke="red" d="M427.44,-292C427.44,-281.89 431.58,-271.96 436.83,-263.43"/>
<polygon fill="red" stroke="red" points="439.78,-265.31 442.58,-255.1 434.02,-261.34 439.78,-265.31"/>
</g>
<!-- node5&#45;&gt;node6 -->
<g id="edge7" class="edge">
<title>node5&#45;&gt;node6</title>
<path fill="none" stroke="black" d="M213.06,-382.94C253.07,-369.71 308.37,-351.43 349.06,-337.98"/>
<polygon fill="black" stroke="black" points="350.41,-341.22 358.81,-334.75 348.22,-334.57 350.41,-341.22"/>
<text text-anchor="middle" x="344.25" y="-344.77" font-family="Times,serif" font-size="14.00">*0</text>
</g>
<!-- node2&#45;&gt;node6 -->
<g id="edge8" class="edge">
<title>node2&#45;&gt;node6</title>
<path fill="none" stroke="red" d="M411.42,-455.75C410.01,-431.73 407.42,-387.65 405.57,-356.24"/>
<polygon fill="red" stroke="red" points="409.06,-355.9 404.98,-346.12 402.07,-356.31 409.06,-355.9"/>
</g>
<!-- node4&#45;&gt;node12 -->
<g id="edge15" class="edge">
<title>node4&#45;&gt;node12</title>
<path fill="none" stroke="blue" d="M49.79,-459.39C33.35,-450.49 14.79,-437.12 5.44,-419 -1.9,-404.78 -1.64,-397.35 5.44,-383 76.76,-238.41 258.33,-146.4 343.3,-109.9"/>
<polygon fill="blue" stroke="blue" points="344.84,-113.05 352.68,-105.93 342.11,-106.6 344.84,-113.05"/>
<text text-anchor="middle" x="339.29" y="-117.08" font-family="Times,serif" font-size="14.00">if #9</text>
</g>
<!-- node4&#45;&gt;node5 -->
<g id="edge11" class="edge">
<title>node4&#45;&gt;node5</title>
<path fill="none" stroke="black" d="M100.8,-455.81C110.93,-446.83 123.47,-435.69 134.53,-425.89"/>
<polygon fill="black" stroke="black" points="137.1,-428.28 142.25,-419.03 132.45,-423.05 137.1,-428.28"/>
<text text-anchor="middle" x="134.31" y="-433.68" font-family="Times,serif" font-size="14.00">*1</text>
</g>
<!-- node3&#45;&gt;node12 -->
<g id="edge14" class="edge">
<title>node3&#45;&gt;node12</title>
<path fill="none" stroke="blue" d="M231.57,-457.43C243.26,-450.75 257.34,-443.1 270.44,-437 290.72,-427.56 298.16,-430.33 317.44,-419 338.93,-406.37 338.94,-395.62 360.44,-383 400.23,-359.65 423.32,-377.06 457.44,-346 484.19,-321.65 468.23,-298.94 493.44,-273 505.35,-260.74 518.62,-269.65 527.44,-255 540.34,-233.57 516.34,-164.43 499.44,-146 483.49,-128.6 460.72,-116.18 439.95,-107.67"/>
<polygon fill="blue" stroke="blue" points="441.17,-104.39 430.58,-104.04 438.63,-110.92 441.17,-104.39"/>
<text text-anchor="middle" x="450.53" y="-99.02" font-family="Times,serif" font-size="14.00">if #10</text>
</g>
<!-- c0 -->
<!-- c1 -->
<!-- c0&#45;&gt;c1 -->
<g id="edge18" class="edge">
<title>c0&#45;&gt;c1</title>
<path fill="none" stroke="red" d="M1010.33,-556C1021.55,-556 1079.68,-556 1105.3,-556"/>
<polygon fill="red" stroke="red" points="1105.5,-559.5 1115.5,-556 1105.5,-552.5 1105.5,-559.5"/>
<text text-anchor="middle" x="1062.94" y="-562.8" font-family="Times,serif" font-size="14.00">Control flow</text>
</g>
<!-- c2 -->
<!-- c3 -->
<!-- c2&#45;&gt;c3 -->
<g id="edge19" class="edge">
<title>c2&#45;&gt;c3</title>
<path fill="none" stroke="red" stroke-dasharray="5,2" d="M803.52,-556C820.49,-556 936.64,-556 974.52,-556"/>
<polygon fill="red" stroke="red" points="974.61,-559.5 984.61,-556 974.61,-552.5 974.61,-559.5"/>
<text text-anchor="middle" x="893.94" y="-562.8" font-family="Times,serif" font-size="14.00">Control flow back edge</text>
</g>
<!-- d0 -->
<!-- d1 -->
<!-- d0&#45;&gt;d1 -->
<g id="edge20" class="edge">
<title>d0&#45;&gt;d1</title>
<path fill="none" stroke="black" d="M692.3,-556C701.84,-556 745.75,-556 767.36,-556"/>
<polygon fill="black" stroke="black" points="767.59,-559.5 777.59,-556 767.59,-552.5 767.59,-559.5"/>
<text text-anchor="middle" x="734.94" y="-562.8" font-family="Times,serif" font-size="14.00">Data flow</text>
</g>
<!-- d2 -->
<!-- d3 -->
<!-- d2&#45;&gt;d3 -->
<g id="edge21" class="edge">
<title>d2&#45;&gt;d3</title>
<path fill="none" stroke="black" stroke-dasharray="1,5" d="M566.24,-556C576.9,-556 631.9,-556 656.51,-556"/>
<polygon fill="black" stroke="black" points="656.58,-559.5 666.58,-556 656.58,-552.5 656.58,-559.5"/>
<text text-anchor="middle" x="616.44" y="-562.8" font-family="Times,serif" font-size="14.00">Declaration</text>
</g>
<!-- d4 -->
<!-- d5 -->
<!-- d4&#45;&gt;d5 -->
<g id="edge22" class="edge">
<title>d4&#45;&gt;d5</title>
<path fill="none" stroke="blue" d="M423.54,-556C436.16,-556 502.32,-556 530.12,-556"/>
<polygon fill="blue" stroke="blue" points="530.28,-559.5 540.28,-556 530.28,-552.5 530.28,-559.5"/>
<text text-anchor="middle" x="481.94" y="-562.8" font-family="Times,serif" font-size="14.00">PHI Data flow</text>
</g>
<!-- d6 -->
<!-- d7 -->
<!-- d6&#45;&gt;d7 -->
<g id="edge23" class="edge">
<title>d6&#45;&gt;d7</title>
<path fill="none" stroke="green" d="M286.44,-556C298.38,-556 360.74,-556 387.37,-556"/>
<polygon fill="green" stroke="green" points="387.39,-559.5 397.39,-556 387.39,-552.5 387.39,-559.5"/>
<text text-anchor="middle" x="341.94" y="-562.8" font-family="Times,serif" font-size="14.00">Memory flow</text>
</g>
</g>
</svg>
