<?xml version="1.0" encoding="UTF-8" standalone="no"?>
<!DOCTYPE svg PUBLIC "-//W3C//DTD SVG 1.1//EN"
 "http://www.w3.org/Graphics/SVG/1.1/DTD/svg11.dtd">
<!-- Generated by graphviz version 2.43.0 (0)
 -->
<!-- Title: %3 Pages: 1 -->
<svg width="1143pt" height="607pt"
 viewBox="0.00 0.00 1143.00 607.00" xmlns="http://www.w3.org/2000/svg" xmlns:xlink="http://www.w3.org/1999/xlink">
<g id="graph0" class="graph" transform="scale(1 1) rotate(0) translate(4 603)">
<title>%3</title>
<polygon fill="white" stroke="transparent" points="-4,4 -4,-603 1139,-603 1139,4 -4,4"/>
<g id="clust1" class="cluster">
<title>cluster_0</title>
<polygon fill="none" stroke="lightgray" points="132,-65 132,-190 314,-190 314,-65 132,-65"/>
</g>
<g id="clust2" class="cluster">
<title>cluster_1</title>
<polygon fill="none" stroke="lightgray" points="8,-448 8,-591 266,-591 266,-448 8,-448"/>
</g>
<g id="clust3" class="cluster">
<title>cluster_000</title>
<polygon fill="none" stroke="black" points="274,-546.2 274,-588.8 1127,-588.8 1127,-546.2 274,-546.2"/>
<text text-anchor="middle" x="700.5" y="-573.6" font-family="Times,serif" font-size="14.00">Legend</text>
</g>
<!-- node0 -->
<g id="node1" class="node">
<title>node0</title>
<polygon fill="lightgrey" stroke="transparent" points="255.5,-583 162.5,-583 162.5,-529 255.5,-529 255.5,-583"/>
<polygon fill="none" stroke="black" points="163,-556 163,-583 256,-583 256,-556 163,-556"/>
<text text-anchor="start" x="169" y="-565.8" font-family="Times,serif" font-size="14.00">#0 Method</text>
<polygon fill="yellow" stroke="transparent" points="163,-529 163,-556 256,-556 256,-529 163,-529"/>
<polygon fill="none" stroke="black" points="163,-529 163,-556 256,-556 256,-529 163,-529"/>
<text text-anchor="start" x="176" y="-538.8" font-family="Times,serif" font-size="14.00">arg0 : int</text>
</g>
<!-- node11 -->
<g id="node2" class="node">
<title>node11</title>
<polygon fill="lightgreen" stroke="black" points="134.19,-466.54 134.19,-481.46 99.52,-492 50.48,-492 15.81,-481.46 15.81,-466.54 50.48,-456 99.52,-456 134.19,-466.54"/>
<text text-anchor="middle" x="75" y="-470.3" font-family="Times,serif" font-size="14.00">#11 int 1</text>
</g>
<!-- node0&#45;&gt;node11 -->
<g id="edge1" class="edge">
<title>node0&#45;&gt;node11</title>
<path fill="none" stroke="black" stroke-dasharray="1,5" d="M165.12,-528.81C147.61,-518.35 127.69,-506.45 111.03,-496.51"/>
<polygon fill="black" stroke="black" points="112.54,-493.33 102.16,-491.21 108.95,-499.34 112.54,-493.33"/>
</g>
<!-- node3 -->
<g id="node5" class="node">
<title>node3</title>
<polygon fill="lightgreen" stroke="black" points="257.52,-466.54 257.52,-481.46 226.76,-492 183.24,-492 152.48,-481.46 152.48,-466.54 183.24,-456 226.76,-456 257.52,-466.54"/>
<text text-anchor="middle" x="205" y="-470.3" font-family="Times,serif" font-size="14.00">#3 int 0</text>
</g>
<!-- node0&#45;&gt;node3 -->
<g id="edge5" class="edge">
<title>node0&#45;&gt;node3</title>
<path fill="none" stroke="black" stroke-dasharray="1,5" d="M207.69,-528.81C207.27,-520.35 206.8,-510.95 206.37,-502.4"/>
<polygon fill="black" stroke="black" points="209.85,-501.99 205.86,-492.17 202.86,-502.34 209.85,-501.99"/>
</g>
<!-- node4 -->
<g id="node6" class="node">
<title>node4</title>
<polygon fill="orange" stroke="black" points="352.06,-393.54 352.06,-408.46 265.91,-419 144.09,-419 57.94,-408.46 57.94,-393.54 144.09,-383 265.91,-383 352.06,-393.54"/>
<text text-anchor="middle" x="205" y="-397.3" font-family="Times,serif" font-size="14.00">#4 NumericCondition : NE</text>
</g>
<!-- node0&#45;&gt;node4 -->
<g id="edge6" class="edge">
<title>node0:prj1&#45;&gt;node4</title>
<path fill="none" stroke="black" d="M257,-542C265.17,-542 262.94,-533.11 270,-529 323.39,-497.9 366.57,-541.16 404,-492 415.85,-476.44 416.17,-463.31 404,-448 392.33,-433.32 356.31,-422.92 318.07,-415.76"/>
<polygon fill="black" stroke="black" points="318.24,-412.24 307.78,-413.92 317.01,-419.13 318.24,-412.24"/>
<text text-anchor="middle" x="327.12" y="-405.09" font-family="Times,serif" font-size="14.00">*0</text>
</g>
<!-- node2 -->
<g id="node8" class="node">
<title>node2</title>
<polygon fill="lightgrey" stroke="black" points="394.5,-492 275.5,-492 275.5,-456 394.5,-456 394.5,-492"/>
<text text-anchor="middle" x="335" y="-470.3" font-family="Times,serif" font-size="14.00">#2 LabelNode</text>
</g>
<!-- node0&#45;&gt;node2 -->
<g id="edge10" class="edge">
<title>node0&#45;&gt;node2</title>
<path fill="none" stroke="red" d="M250.26,-528.81C266.1,-518.75 284.03,-507.37 299.3,-497.67"/>
<polygon fill="red" stroke="red" points="301.38,-500.49 307.95,-492.17 297.63,-494.58 301.38,-500.49"/>
</g>
<!-- node13 -->
<g id="node11" class="node">
<title>node13</title>
<polygon fill="lightgrey" stroke="black" points="333.5,-36 160.5,-36 160.5,0 333.5,0 333.5,-36"/>
<text text-anchor="middle" x="247" y="-14.3" font-family="Times,serif" font-size="14.00">#13 ReturnValue : int</text>
</g>
<!-- node0&#45;&gt;node13 -->
<g id="edge17" class="edge">
<title>node0&#45;&gt;node13</title>
<path fill="none" stroke="green" d="M255.51,-533.71C260.34,-531.95 265.23,-530.33 270,-529 336.97,-510.33 391.1,-554.29 422,-492 443.73,-448.2 489.51,-505.18 403,-219 380.38,-144.17 371.3,-122.2 318,-65 309.71,-56.1 299.35,-48.15 289.13,-41.46"/>
<polygon fill="green" stroke="green" points="290.97,-38.47 280.63,-36.14 287.25,-44.41 290.97,-38.47"/>
</g>
<!-- node12 -->
<g id="node3" class="node">
<title>node12</title>
<polygon fill="lightgreen" stroke="black" points="263.5,-83.54 263.5,-98.46 228.06,-109 177.94,-109 142.5,-98.46 142.5,-83.54 177.94,-73 228.06,-73 263.5,-83.54"/>
<text text-anchor="middle" x="203" y="-87.3" font-family="Times,serif" font-size="14.00">#12 Φ int</text>
</g>
<!-- node11&#45;&gt;node12 -->
<g id="edge3" class="edge">
<title>node11&#45;&gt;node12</title>
<path fill="none" stroke="blue" d="M58.53,-455.54C50.34,-445.64 41.29,-432.55 37,-419 32.17,-403.75 34.56,-398.81 37,-383 53.86,-273.81 43.32,-232.54 112,-146 124.04,-130.82 141.61,-118.99 158.1,-110.31"/>
<polygon fill="blue" stroke="blue" points="159.73,-113.41 167.12,-105.82 156.6,-107.15 159.73,-113.41"/>
<text text-anchor="middle" x="154.67" y="-117.77" font-family="Times,serif" font-size="14.00">if #9</text>
</g>
<!-- node12&#45;&gt;node13 -->
<g id="edge15" class="edge">
<title>node12&#45;&gt;node13</title>
<path fill="none" stroke="black" d="M213.65,-72.81C218.89,-64.35 225.32,-53.98 231.13,-44.61"/>
<polygon fill="black" stroke="black" points="234.15,-46.37 236.45,-36.03 228.2,-42.69 234.15,-46.37"/>
<text text-anchor="middle" x="234.08" y="-52.19" font-family="Times,serif" font-size="14.00">*0</text>
</g>
<!-- node10 -->
<g id="node4" class="node">
<title>node10</title>
<polygon fill="lightgrey" stroke="black" points="306.5,-182 139.5,-182 139.5,-146 306.5,-146 306.5,-182"/>
<text text-anchor="middle" x="223" y="-160.3" font-family="Times,serif" font-size="14.00">#10 Merge : Merge9</text>
</g>
<!-- node10&#45;&gt;node12 -->
<g id="edge2" class="edge">
<title>node10&#45;&gt;node12</title>
<path fill="none" stroke="black" stroke-dasharray="1,5" d="M218.16,-145.81C215.87,-137.7 213.09,-127.84 210.54,-118.78"/>
<polygon fill="black" stroke="black" points="213.88,-117.71 207.8,-109.03 207.14,-119.6 213.88,-117.71"/>
</g>
<!-- node10&#45;&gt;node13 -->
<g id="edge16" class="edge">
<title>node10&#45;&gt;node13</title>
<path fill="none" stroke="red" d="M261.32,-145.82C268.01,-141.04 274.08,-135.14 278,-128 292.54,-101.51 278.47,-67.56 264.89,-44.65"/>
<polygon fill="red" stroke="red" points="267.84,-42.77 259.57,-36.15 261.91,-46.48 267.84,-42.77"/>
</g>
<!-- node3&#45;&gt;node12 -->
<g id="edge4" class="edge">
<title>node3&#45;&gt;node12</title>
<path fill="none" stroke="blue" d="M172.67,-459.46C163.16,-455.62 152.71,-451.52 143,-448 128.07,-442.58 124.16,-441.73 109,-437 82.42,-428.71 65.62,-441.34 49,-419 39.45,-406.16 39.63,-395.97 49,-383 79.71,-340.51 130.29,-388.49 161,-346 213.65,-273.15 72.26,-214.04 131,-146 166.82,-104.51 217.18,-169.49 253,-128 258.48,-121.66 255.92,-115.82 249.73,-110.78"/>
<polygon fill="blue" stroke="blue" points="251.37,-107.68 241.06,-105.25 247.61,-113.58 251.37,-107.68"/>
<text text-anchor="middle" x="260.89" y="-104.18" font-family="Times,serif" font-size="14.00">if #7</text>
</g>
<!-- node3&#45;&gt;node4 -->
<g id="edge7" class="edge">
<title>node3&#45;&gt;node4</title>
<path fill="none" stroke="black" d="M205,-455.81C205,-447.79 205,-438.05 205,-429.07"/>
<polygon fill="black" stroke="black" points="208.5,-429.03 205,-419.03 201.5,-429.03 208.5,-429.03"/>
<text text-anchor="middle" x="213.45" y="-433.45" font-family="Times,serif" font-size="14.00">*1</text>
</g>
<!-- node5 -->
<g id="node7" class="node">
<title>node5</title>
<polygon fill="lightgrey" stroke="transparent" points="319.5,-346 230.5,-346 230.5,-292 319.5,-292 319.5,-346"/>
<polygon fill="none" stroke="black" points="231,-319 231,-346 320,-346 320,-319 231,-319"/>
<text text-anchor="start" x="257" y="-328.8" font-family="Times,serif" font-size="14.00">#5 If</text>
<polygon fill="yellow" stroke="transparent" points="231,-292 231,-319 277,-319 277,-292 231,-292"/>
<polygon fill="none" stroke="black" points="231,-292 231,-319 277,-319 277,-292 231,-292"/>
<text text-anchor="start" x="237" y="-301.8" font-family="Times,serif" font-size="14.00">false</text>
<polygon fill="yellow" stroke="transparent" points="277,-292 277,-319 320,-319 320,-292 277,-292"/>
<polygon fill="none" stroke="black" points="277,-292 277,-319 320,-319 320,-292 277,-292"/>
<text text-anchor="start" x="283" y="-301.8" font-family="Times,serif" font-size="14.00">true</text>
</g>
<!-- node4&#45;&gt;node5 -->
<g id="edge8" class="edge">
<title>node4&#45;&gt;node5</title>
<path fill="none" stroke="black" d="M220.19,-382.64C227.55,-374.23 236.65,-363.82 245.31,-353.93"/>
<polygon fill="black" stroke="black" points="248.17,-355.98 252.12,-346.15 242.9,-351.37 248.17,-355.98"/>
<text text-anchor="middle" x="246.55" y="-361.65" font-family="Times,serif" font-size="14.00">*0</text>
</g>
<!-- node9 -->
<g id="node9" class="node">
<title>node9</title>
<polygon fill="lightgrey" stroke="black" points="256,-255 180,-255 180,-219 256,-219 256,-255"/>
<text text-anchor="middle" x="218" y="-233.3" font-family="Times,serif" font-size="14.00">#9 Goto</text>
</g>
<!-- node5&#45;&gt;node9 -->
<g id="edge11" class="edge">
<title>node5:prj8&#45;&gt;node9</title>
<path fill="none" stroke="red" d="M254,-292C254,-281.52 249.25,-271.53 243.2,-263.05"/>
<polygon fill="red" stroke="red" points="245.83,-260.74 236.84,-255.12 240.36,-265.11 245.83,-260.74"/>
</g>
<!-- node7 -->
<g id="node10" class="node">
<title>node7</title>
<polygon fill="lightgrey" stroke="black" points="393.5,-255 274.5,-255 274.5,-219 393.5,-219 393.5,-255"/>
<text text-anchor="middle" x="334" y="-233.3" font-family="Times,serif" font-size="14.00">#7 LabelNode</text>
</g>
<!-- node5&#45;&gt;node7 -->
<g id="edge14" class="edge">
<title>node5:prj6&#45;&gt;node7</title>
<path fill="none" stroke="red" d="M299,-292C299,-281.61 303.62,-271.64 309.5,-263.16"/>
<polygon fill="red" stroke="red" points="312.3,-265.26 315.68,-255.22 306.78,-260.96 312.3,-265.26"/>
</g>
<!-- node2&#45;&gt;node5 -->
<g id="edge9" class="edge">
<title>node2&#45;&gt;node5</title>
<path fill="none" stroke="red" d="M347.33,-455.7C359,-437.03 373.06,-406.79 361,-383 353.72,-368.65 341.47,-356.78 328.45,-347.36"/>
<polygon fill="red" stroke="red" points="330.08,-344.23 319.84,-341.52 326.15,-350.03 330.08,-344.23"/>
</g>
<!-- node9&#45;&gt;node10 -->
<g id="edge12" class="edge">
<title>node9&#45;&gt;node10</title>
<path fill="none" stroke="red" d="M219.21,-218.81C219.78,-210.79 220.46,-201.05 221.09,-192.07"/>
<polygon fill="red" stroke="red" points="224.59,-192.25 221.8,-182.03 217.61,-191.76 224.59,-192.25"/>
</g>
<!-- node7&#45;&gt;node10 -->
<g id="edge13" class="edge">
<title>node7&#45;&gt;node10</title>
<path fill="none" stroke="red" d="M307.41,-218.99C292.69,-209.58 274.21,-197.76 258.29,-187.57"/>
<polygon fill="red" stroke="red" points="260.07,-184.55 249.76,-182.11 256.29,-190.45 260.07,-184.55"/>
</g>
<!-- c0 -->
<!-- c1 -->
<!-- c0&#45;&gt;c1 -->
<g id="edge18" class="edge">
<title>c0&#45;&gt;c1</title>
<path fill="none" stroke="red" d="M1009.89,-556C1021.11,-556 1079.24,-556 1104.86,-556"/>
<polygon fill="red" stroke="red" points="1105.06,-559.5 1115.06,-556 1105.06,-552.5 1105.06,-559.5"/>
<text text-anchor="middle" x="1062.5" y="-562.8" font-family="Times,serif" font-size="14.00">Control flow</text>
</g>
<!-- c2 -->
<!-- c3 -->
<!-- c2&#45;&gt;c3 -->
<g id="edge19" class="edge">
<title>c2&#45;&gt;c3</title>
<path fill="none" stroke="red" stroke-dasharray="5,2" d="M803.08,-556C820.05,-556 936.21,-556 974.08,-556"/>
<polygon fill="red" stroke="red" points="974.17,-559.5 984.17,-556 974.17,-552.5 974.17,-559.5"/>
<text text-anchor="middle" x="893.5" y="-562.8" font-family="Times,serif" font-size="14.00">Control flow back edge</text>
</g>
<!-- d0 -->
<!-- d1 -->
<!-- d0&#45;&gt;d1 -->
<g id="edge20" class="edge">
<title>d0&#45;&gt;d1</title>
<path fill="none" stroke="black" d="M691.86,-556C701.41,-556 745.31,-556 766.92,-556"/>
<polygon fill="black" stroke="black" points="767.15,-559.5 777.15,-556 767.15,-552.5 767.15,-559.5"/>
<text text-anchor="middle" x="734.5" y="-562.8" font-family="Times,serif" font-size="14.00">Data flow</text>
</g>
<!-- d2 -->
<!-- d3 -->
<!-- d2&#45;&gt;d3 -->
<g id="edge21" class="edge">
<title>d2&#45;&gt;d3</title>
<path fill="none" stroke="black" stroke-dasharray="1,5" d="M565.81,-556C576.46,-556 631.46,-556 656.08,-556"/>
<polygon fill="black" stroke="black" points="656.15,-559.5 666.15,-556 656.15,-552.5 656.15,-559.5"/>
<text text-anchor="middle" x="616" y="-562.8" font-family="Times,serif" font-size="14.00">Declaration</text>
</g>
<!-- d4 -->
<!-- d5 -->
<!-- d4&#45;&gt;d5 -->
<g id="edge22" class="edge">
<title>d4&#45;&gt;d5</title>
<path fill="none" stroke="blue" d="M423.1,-556C435.72,-556 501.88,-556 529.68,-556"/>
<polygon fill="blue" stroke="blue" points="529.84,-559.5 539.84,-556 529.84,-552.5 529.84,-559.5"/>
<text text-anchor="middle" x="481.5" y="-562.8" font-family="Times,serif" font-size="14.00">PHI Data flow</text>
</g>
<!-- d6 -->
<!-- d7 -->
<!-- d6&#45;&gt;d7 -->
<g id="edge23" class="edge">
<title>d6&#45;&gt;d7</title>
<path fill="none" stroke="green" d="M286,-556C297.94,-556 360.3,-556 386.93,-556"/>
<polygon fill="green" stroke="green" points="386.95,-559.5 396.95,-556 386.95,-552.5 386.95,-559.5"/>
<text text-anchor="middle" x="341.5" y="-562.8" font-family="Times,serif" font-size="14.00">Memory flow</text>
</g>
</g>
</svg>
