<?xml version="1.0" encoding="UTF-8" standalone="no"?>
<!DOCTYPE svg PUBLIC "-//W3C//DTD SVG 1.1//EN"
 "http://www.w3.org/Graphics/SVG/1.1/DTD/svg11.dtd">
<!-- Generated by graphviz version 2.43.0 (0)
 -->
<!-- Title: %3 Pages: 1 -->
<svg width="1209pt" height="678pt"
 viewBox="0.00 0.00 1208.50 677.80" xmlns="http://www.w3.org/2000/svg" xmlns:xlink="http://www.w3.org/1999/xlink">
<g id="graph0" class="graph" transform="scale(1 1) rotate(0) translate(4 673.8)">
<title>%3</title>
<polygon fill="white" stroke="transparent" points="-4,4 -4,-673.8 1204.5,-673.8 1204.5,4 -4,4"/>
<g id="clust1" class="cluster">
<title>cluster_0</title>
<polygon fill="none" stroke="lightgray" points="117.5,-65 117.5,-190 299.5,-190 299.5,-65 117.5,-65"/>
</g>
<g id="clust2" class="cluster">
<title>cluster_1</title>
<polygon fill="none" stroke="lightgray" points="337.5,-138 337.5,-263 481.5,-263 481.5,-138 337.5,-138"/>
</g>
<g id="clust3" class="cluster">
<title>cluster_2</title>
<polygon fill="none" stroke="lightgray" points="49.5,-211 49.5,-263 171.5,-263 171.5,-211 49.5,-211"/>
</g>
<g id="clust4" class="cluster">
<title>cluster_3</title>
<polygon fill="none" stroke="lightgray" points="171.5,-448 171.5,-573 307.5,-573 307.5,-448 171.5,-448"/>
</g>
<g id="clust5" class="cluster">
<title>cluster_000</title>
<polygon fill="none" stroke="black" points="339.5,-619.2 339.5,-661.8 1192.5,-661.8 1192.5,-619.2 339.5,-619.2"/>
<text text-anchor="middle" x="766" y="-646.6" font-family="Times,serif" font-size="14.00">Legend</text>
</g>
<!-- node0 -->
<g id="node1" class="node">
<title>node0</title>
<polygon fill="lightgrey" stroke="transparent" points="330,-656 237,-656 237,-602 330,-602 330,-656"/>
<polygon fill="none" stroke="black" points="237.5,-629 237.5,-656 330.5,-656 330.5,-629 237.5,-629"/>
<text text-anchor="start" x="243.5" y="-638.8" font-family="Times,serif" font-size="14.00">#0 Method</text>
<polygon fill="yellow" stroke="transparent" points="237.5,-602 237.5,-629 330.5,-629 330.5,-602 237.5,-602"/>
<polygon fill="none" stroke="black" points="237.5,-602 237.5,-629 330.5,-629 330.5,-602 237.5,-602"/>
<text text-anchor="start" x="250.5" y="-611.8" font-family="Times,serif" font-size="14.00">arg0 : int</text>
</g>
<!-- node2 -->
<g id="node2" class="node">
<title>node2</title>
<polygon fill="lightgrey" stroke="black" points="299,-565 180,-565 180,-529 299,-529 299,-565"/>
<text text-anchor="middle" x="239.5" y="-543.3" font-family="Times,serif" font-size="14.00">#2 LabelNode</text>
</g>
<!-- node0&#45;&gt;node2 -->
<g id="edge1" class="edge">
<title>node0&#45;&gt;node2</title>
<path fill="none" stroke="red" d="M269.09,-601.81C264.18,-592.88 258.7,-582.9 253.79,-573.99"/>
<polygon fill="red" stroke="red" points="256.83,-572.25 248.95,-565.17 250.7,-575.62 256.83,-572.25"/>
</g>
<!-- node4 -->
<g id="node4" class="node">
<title>node4</title>
<polygon fill="orange" stroke="black" points="474.56,-393.54 474.56,-408.46 388.41,-419 266.59,-419 180.44,-408.46 180.44,-393.54 266.59,-383 388.41,-383 474.56,-393.54"/>
<text text-anchor="middle" x="327.5" y="-397.3" font-family="Times,serif" font-size="14.00">#4 NumericCondition : NE</text>
</g>
<!-- node0&#45;&gt;node4 -->
<g id="edge3" class="edge">
<title>node0:prj1&#45;&gt;node4</title>
<path fill="none" stroke="black" d="M331.5,-615C340.69,-615 333.2,-486.69 329.39,-429.24"/>
<polygon fill="black" stroke="black" points="332.87,-428.81 328.71,-419.07 325.89,-429.28 332.87,-428.81"/>
<text text-anchor="middle" x="338.36" y="-432.89" font-family="Times,serif" font-size="14.00">*0</text>
</g>
<!-- node14 -->
<g id="node12" class="node">
<title>node14</title>
<polygon fill="lightgrey" stroke="black" points="173,-36 0,-36 0,0 173,0 173,-36"/>
<text text-anchor="middle" x="86.5" y="-14.3" font-family="Times,serif" font-size="14.00">#14 ReturnValue : int</text>
</g>
<!-- node0&#45;&gt;node14 -->
<g id="edge18" class="edge">
<title>node0&#45;&gt;node14</title>
<path fill="none" stroke="green" d="M330.11,-603.71C402.12,-562.67 527.74,-475.05 483.5,-383 446.52,-306.05 379.27,-335.07 333.5,-263 302.87,-214.77 345.56,-176.67 303.5,-138 240.61,-80.19 177.98,-165.03 113.5,-109 95.65,-93.49 89.36,-66.69 87.26,-46.36"/>
<polygon fill="green" stroke="green" points="90.73,-45.84 86.49,-36.13 83.75,-46.36 90.73,-45.84"/>
</g>
<!-- node3 -->
<g id="node3" class="node">
<title>node3</title>
<polygon fill="lightgreen" stroke="black" points="296.02,-466.54 296.02,-481.46 265.26,-492 221.74,-492 190.98,-481.46 190.98,-466.54 221.74,-456 265.26,-456 296.02,-466.54"/>
<text text-anchor="middle" x="243.5" y="-470.3" font-family="Times,serif" font-size="14.00">#3 int 0</text>
</g>
<!-- node2&#45;&gt;node3 -->
<g id="edge2" class="edge">
<title>node2&#45;&gt;node3</title>
<path fill="none" stroke="black" stroke-dasharray="1,5" d="M240.47,-528.81C240.92,-520.79 241.47,-511.05 241.97,-502.07"/>
<polygon fill="black" stroke="black" points="245.47,-502.21 242.54,-492.03 238.48,-501.82 245.47,-502.21"/>
</g>
<!-- node5 -->
<g id="node5" class="node">
<title>node5</title>
<polygon fill="lightgrey" stroke="transparent" points="285,-346 196,-346 196,-292 285,-292 285,-346"/>
<polygon fill="none" stroke="black" points="196.5,-319 196.5,-346 285.5,-346 285.5,-319 196.5,-319"/>
<text text-anchor="start" x="222.5" y="-328.8" font-family="Times,serif" font-size="14.00">#5 If</text>
<polygon fill="yellow" stroke="transparent" points="196.5,-292 196.5,-319 242.5,-319 242.5,-292 196.5,-292"/>
<polygon fill="none" stroke="black" points="196.5,-292 196.5,-319 242.5,-319 242.5,-292 196.5,-292"/>
<text text-anchor="start" x="202.5" y="-301.8" font-family="Times,serif" font-size="14.00">false</text>
<polygon fill="yellow" stroke="transparent" points="242.5,-292 242.5,-319 285.5,-319 285.5,-292 242.5,-292"/>
<polygon fill="none" stroke="black" points="242.5,-292 242.5,-319 285.5,-319 285.5,-292 242.5,-292"/>
<text text-anchor="start" x="248.5" y="-301.8" font-family="Times,serif" font-size="14.00">true</text>
</g>
<!-- node2&#45;&gt;node5 -->
<g id="edge6" class="edge">
<title>node2&#45;&gt;node5</title>
<path fill="none" stroke="red" d="M214.22,-528.88C202.32,-519.44 189.1,-506.65 181.5,-492 159.1,-448.82 151.87,-427.51 171.5,-383 176.46,-371.75 184.53,-361.64 193.44,-352.98"/>
<polygon fill="red" stroke="red" points="196.01,-355.37 201.06,-346.06 191.3,-350.19 196.01,-355.37"/>
</g>
<!-- node3&#45;&gt;node4 -->
<g id="edge4" class="edge">
<title>node3&#45;&gt;node4</title>
<path fill="none" stroke="black" d="M263.83,-455.81C274.56,-446.74 287.89,-435.48 299.58,-425.6"/>
<polygon fill="black" stroke="black" points="301.98,-428.16 307.35,-419.03 297.46,-422.81 301.98,-428.16"/>
<text text-anchor="middle" x="298.97" y="-433.49" font-family="Times,serif" font-size="14.00">*1</text>
</g>
<!-- node4&#45;&gt;node5 -->
<g id="edge5" class="edge">
<title>node4&#45;&gt;node5</title>
<path fill="none" stroke="black" d="M307.41,-382.73C300.99,-377.13 293.9,-370.86 287.5,-365 283.44,-361.28 279.22,-357.35 275.05,-353.41"/>
<polygon fill="black" stroke="black" points="277.3,-350.73 267.64,-346.38 272.49,-355.81 277.3,-350.73"/>
<text text-anchor="middle" x="286.61" y="-349.03" font-family="Times,serif" font-size="14.00">*0</text>
</g>
<!-- node10 -->
<g id="node6" class="node">
<title>node10</title>
<polygon fill="lightgrey" stroke="black" points="473.5,-255 345.5,-255 345.5,-219 473.5,-219 473.5,-255"/>
<text text-anchor="middle" x="409.5" y="-233.3" font-family="Times,serif" font-size="14.00">#10 LabelNode</text>
</g>
<!-- node5&#45;&gt;node10 -->
<g id="edge7" class="edge">
<title>node5:prj7&#45;&gt;node10</title>
<path fill="none" stroke="red" d="M286.5,-305C323.7,-305 360.36,-281.08 383.84,-261.82"/>
<polygon fill="red" stroke="red" points="386.22,-264.39 391.58,-255.25 381.69,-259.06 386.22,-264.39"/>
</g>
<!-- node8 -->
<g id="node8" class="node">
<title>node8</title>
<polygon fill="lightgrey" stroke="black" points="257.5,-255 181.5,-255 181.5,-219 257.5,-219 257.5,-255"/>
<text text-anchor="middle" x="219.5" y="-233.3" font-family="Times,serif" font-size="14.00">#8 Goto</text>
</g>
<!-- node5&#45;&gt;node8 -->
<g id="edge10" class="edge">
<title>node5:prj6&#45;&gt;node8</title>
<path fill="none" stroke="red" d="M219.5,-292C219.5,-283.3 219.5,-273.81 219.5,-265.25"/>
<polygon fill="red" stroke="red" points="223,-265.02 219.5,-255.02 216,-265.02 223,-265.02"/>
</g>
<!-- node9 -->
<g id="node9" class="node">
<title>node9</title>
<polygon fill="lightgreen" stroke="black" points="163.02,-229.54 163.02,-244.46 132.26,-255 88.74,-255 57.98,-244.46 57.98,-229.54 88.74,-219 132.26,-219 163.02,-229.54"/>
<text text-anchor="middle" x="110.5" y="-233.3" font-family="Times,serif" font-size="14.00">#9 int 1</text>
</g>
<!-- node5&#45;&gt;node9 -->
<g id="edge11" class="edge">
<title>node5:prj6&#45;&gt;node9</title>
<path fill="none" stroke="black" stroke-dasharray="1,5" d="M195.5,-305C167.51,-305 143.32,-282.32 127.97,-263.35"/>
<polygon fill="black" stroke="black" points="130.63,-261.06 121.76,-255.25 125.08,-265.32 130.63,-261.06"/>
</g>
<!-- node11 -->
<g id="node7" class="node">
<title>node11</title>
<polygon fill="lightgrey" stroke="black" points="292,-182 125,-182 125,-146 292,-146 292,-182"/>
<text text-anchor="middle" x="208.5" y="-160.3" font-family="Times,serif" font-size="14.00">#11 Merge : Merge9</text>
</g>
<!-- node10&#45;&gt;node11 -->
<g id="edge9" class="edge">
<title>node10&#45;&gt;node11</title>
<path fill="none" stroke="red" d="M361.36,-218.99C332.85,-208.92 296.55,-196.1 266.48,-185.48"/>
<polygon fill="red" stroke="red" points="267.54,-182.14 256.95,-182.11 265.21,-188.74 267.54,-182.14"/>
</g>
<!-- node12 -->
<g id="node11" class="node">
<title>node12</title>
<polygon fill="lightgreen" stroke="black" points="468.69,-156.54 468.69,-171.46 434.02,-182 384.98,-182 350.31,-171.46 350.31,-156.54 384.98,-146 434.02,-146 468.69,-156.54"/>
<text text-anchor="middle" x="409.5" y="-160.3" font-family="Times,serif" font-size="14.00">#12 int 0</text>
</g>
<!-- node10&#45;&gt;node12 -->
<g id="edge15" class="edge">
<title>node10&#45;&gt;node12</title>
<path fill="none" stroke="black" stroke-dasharray="1,5" d="M409.5,-218.81C409.5,-210.79 409.5,-201.05 409.5,-192.07"/>
<polygon fill="black" stroke="black" points="413,-192.03 409.5,-182.03 406,-192.03 413,-192.03"/>
</g>
<!-- node13 -->
<g id="node10" class="node">
<title>node13</title>
<polygon fill="lightgreen" stroke="black" points="252,-83.54 252,-98.46 216.56,-109 166.44,-109 131,-98.46 131,-83.54 166.44,-73 216.56,-73 252,-83.54"/>
<text text-anchor="middle" x="191.5" y="-87.3" font-family="Times,serif" font-size="14.00">#13 Φ int</text>
</g>
<!-- node11&#45;&gt;node13 -->
<g id="edge12" class="edge">
<title>node11&#45;&gt;node13</title>
<path fill="none" stroke="black" stroke-dasharray="1,5" d="M204.38,-145.81C202.44,-137.7 200.08,-127.84 197.91,-118.78"/>
<polygon fill="black" stroke="black" points="201.31,-117.94 195.58,-109.03 194.5,-119.57 201.31,-117.94"/>
</g>
<!-- node11&#45;&gt;node14 -->
<g id="edge17" class="edge">
<title>node11&#45;&gt;node14</title>
<path fill="none" stroke="red" d="M169.84,-145.98C153.12,-137 134.45,-124.59 121.5,-109 106.41,-90.83 97.33,-65.39 92.21,-46.2"/>
<polygon fill="red" stroke="red" points="95.55,-45.13 89.76,-36.26 88.76,-46.81 95.55,-45.13"/>
</g>
<!-- node8&#45;&gt;node11 -->
<g id="edge8" class="edge">
<title>node8&#45;&gt;node11</title>
<path fill="none" stroke="red" d="M216.84,-218.81C215.59,-210.79 214.08,-201.05 212.69,-192.07"/>
<polygon fill="red" stroke="red" points="216.13,-191.38 211.14,-182.03 209.21,-192.45 216.13,-191.38"/>
</g>
<!-- node9&#45;&gt;node13 -->
<g id="edge13" class="edge">
<title>node9&#45;&gt;node13</title>
<path fill="none" stroke="blue" d="M140.47,-221.69C150.44,-217.54 161.75,-213.46 172.5,-211 206.48,-203.22 461.69,-215.46 485.5,-190 553.5,-117.29 369.61,-98.49 262.43,-93.65"/>
<polygon fill="blue" stroke="blue" points="262.45,-90.15 252.31,-93.23 262.16,-97.15 262.45,-90.15"/>
<text text-anchor="middle" x="270.78" y="-81.85" font-family="Times,serif" font-size="14.00">if #8</text>
</g>
<!-- node13&#45;&gt;node14 -->
<g id="edge16" class="edge">
<title>node13&#45;&gt;node14</title>
<path fill="none" stroke="black" d="M166.35,-72.99C152.55,-63.67 135.26,-51.97 120.3,-41.86"/>
<polygon fill="black" stroke="black" points="122.05,-38.82 111.81,-36.11 118.13,-44.61 122.05,-38.82"/>
<text text-anchor="middle" x="131.56" y="-35.57" font-family="Times,serif" font-size="14.00">*0</text>
</g>
<!-- node12&#45;&gt;node13 -->
<g id="edge14" class="edge">
<title>node12&#45;&gt;node13</title>
<path fill="none" stroke="blue" d="M370.85,-150.25C358.88,-146.31 345.65,-141.97 333.5,-138 302.67,-127.94 268.06,-116.72 240.72,-107.88"/>
<polygon fill="blue" stroke="blue" points="241.59,-104.49 231,-104.74 239.44,-111.15 241.59,-104.49"/>
<text text-anchor="middle" x="250.84" y="-98.57" font-family="Times,serif" font-size="14.00">if #10</text>
</g>
<!-- c0 -->
<!-- c1 -->
<!-- c0&#45;&gt;c1 -->
<g id="edge19" class="edge">
<title>c0&#45;&gt;c1</title>
<path fill="none" stroke="red" d="M1075.39,-629C1086.61,-629 1144.74,-629 1170.36,-629"/>
<polygon fill="red" stroke="red" points="1170.56,-632.5 1180.56,-629 1170.56,-625.5 1170.56,-632.5"/>
<text text-anchor="middle" x="1128" y="-635.8" font-family="Times,serif" font-size="14.00">Control flow</text>
</g>
<!-- c2 -->
<!-- c3 -->
<!-- c2&#45;&gt;c3 -->
<g id="edge20" class="edge">
<title>c2&#45;&gt;c3</title>
<path fill="none" stroke="red" stroke-dasharray="5,2" d="M868.58,-629C885.55,-629 1001.71,-629 1039.58,-629"/>
<polygon fill="red" stroke="red" points="1039.67,-632.5 1049.67,-629 1039.67,-625.5 1039.67,-632.5"/>
<text text-anchor="middle" x="959" y="-635.8" font-family="Times,serif" font-size="14.00">Control flow back edge</text>
</g>
<!-- d0 -->
<!-- d1 -->
<!-- d0&#45;&gt;d1 -->
<g id="edge21" class="edge">
<title>d0&#45;&gt;d1</title>
<path fill="none" stroke="black" d="M757.36,-629C766.91,-629 810.81,-629 832.42,-629"/>
<polygon fill="black" stroke="black" points="832.65,-632.5 842.65,-629 832.65,-625.5 832.65,-632.5"/>
<text text-anchor="middle" x="800" y="-635.8" font-family="Times,serif" font-size="14.00">Data flow</text>
</g>
<!-- d2 -->
<!-- d3 -->
<!-- d2&#45;&gt;d3 -->
<g id="edge22" class="edge">
<title>d2&#45;&gt;d3</title>
<path fill="none" stroke="black" stroke-dasharray="1,5" d="M631.31,-629C641.96,-629 696.96,-629 721.58,-629"/>
<polygon fill="black" stroke="black" points="721.65,-632.5 731.65,-629 721.65,-625.5 721.65,-632.5"/>
<text text-anchor="middle" x="681.5" y="-635.8" font-family="Times,serif" font-size="14.00">Declaration</text>
</g>
<!-- d4 -->
<!-- d5 -->
<!-- d4&#45;&gt;d5 -->
<g id="edge23" class="edge">
<title>d4&#45;&gt;d5</title>
<path fill="none" stroke="blue" d="M488.6,-629C501.22,-629 567.38,-629 595.18,-629"/>
<polygon fill="blue" stroke="blue" points="595.34,-632.5 605.34,-629 595.34,-625.5 595.34,-632.5"/>
<text text-anchor="middle" x="547" y="-635.8" font-family="Times,serif" font-size="14.00">PHI Data flow</text>
</g>
<!-- d6 -->
<!-- d7 -->
<!-- d6&#45;&gt;d7 -->
<g id="edge24" class="edge">
<title>d6&#45;&gt;d7</title>
<path fill="none" stroke="green" d="M351.5,-629C363.44,-629 425.8,-629 452.43,-629"/>
<polygon fill="green" stroke="green" points="452.45,-632.5 462.45,-629 452.45,-625.5 452.45,-632.5"/>
<text text-anchor="middle" x="407" y="-635.8" font-family="Times,serif" font-size="14.00">Memory flow</text>
</g>
</g>
</svg>
