<?xml version="1.0" encoding="UTF-8" standalone="no"?>
<!DOCTYPE svg PUBLIC "-//W3C//DTD SVG 1.1//EN"
 "http://www.w3.org/Graphics/SVG/1.1/DTD/svg11.dtd">
<!-- Generated by graphviz version 2.43.0 (0)
 -->
<!-- Title: %3 Pages: 1 -->
<svg width="1263pt" height="678pt"
 viewBox="0.00 0.00 1263.00 677.80" xmlns="http://www.w3.org/2000/svg" xmlns:xlink="http://www.w3.org/1999/xlink">
<g id="graph0" class="graph" transform="scale(1 1) rotate(0) translate(4 673.8)">
<title>%3</title>
<polygon fill="white" stroke="transparent" points="-4,4 -4,-673.8 1259,-673.8 1259,4 -4,4"/>
<g id="clust1" class="cluster">
<title>cluster_0</title>
<polygon fill="none" stroke="lightgray" points="226,-448 226,-573 362,-573 362,-448 226,-448"/>
</g>
<g id="clust2" class="cluster">
<title>cluster_1</title>
<polygon fill="none" stroke="lightgray" points="157,-65 157,-190 339,-190 339,-65 157,-65"/>
</g>
<g id="clust3" class="cluster">
<title>cluster_2</title>
<polygon fill="none" stroke="lightgray" points="8,-211 8,-263 226,-263 226,-211 8,-211"/>
</g>
<g id="clust4" class="cluster">
<title>cluster_3</title>
<polygon fill="none" stroke="lightgray" points="347,-138 347,-263 491,-263 491,-138 347,-138"/>
</g>
<g id="clust5" class="cluster">
<title>cluster_000</title>
<polygon fill="none" stroke="black" points="394,-619.2 394,-661.8 1247,-661.8 1247,-619.2 394,-619.2"/>
<text text-anchor="middle" x="820.5" y="-646.6" font-family="Times,serif" font-size="14.00">Legend</text>
</g>
<!-- node0 -->
<g id="node1" class="node">
<title>node0</title>
<polygon fill="lightgrey" stroke="transparent" points="384.5,-656 291.5,-656 291.5,-602 384.5,-602 384.5,-656"/>
<polygon fill="none" stroke="black" points="292,-629 292,-656 385,-656 385,-629 292,-629"/>
<text text-anchor="start" x="298" y="-638.8" font-family="Times,serif" font-size="14.00">#0 Method</text>
<polygon fill="yellow" stroke="transparent" points="292,-602 292,-629 385,-629 385,-602 292,-602"/>
<polygon fill="none" stroke="black" points="292,-602 292,-629 385,-629 385,-602 292,-602"/>
<text text-anchor="start" x="305" y="-611.8" font-family="Times,serif" font-size="14.00">arg0 : int</text>
</g>
<!-- node4 -->
<g id="node2" class="node">
<title>node4</title>
<polygon fill="orange" stroke="black" points="529.06,-393.54 529.06,-408.46 442.91,-419 321.09,-419 234.94,-408.46 234.94,-393.54 321.09,-383 442.91,-383 529.06,-393.54"/>
<text text-anchor="middle" x="382" y="-397.3" font-family="Times,serif" font-size="14.00">#4 NumericCondition : NE</text>
</g>
<!-- node0&#45;&gt;node4 -->
<g id="edge1" class="edge">
<title>node0:prj1&#45;&gt;node4</title>
<path fill="none" stroke="black" d="M386,-615C395.19,-615 387.7,-486.69 383.89,-429.24"/>
<polygon fill="black" stroke="black" points="387.37,-428.81 383.21,-419.07 380.39,-429.28 387.37,-428.81"/>
<text text-anchor="middle" x="392.86" y="-432.89" font-family="Times,serif" font-size="14.00">*0</text>
</g>
<!-- node2 -->
<g id="node4" class="node">
<title>node2</title>
<polygon fill="lightgrey" stroke="black" points="353.5,-565 234.5,-565 234.5,-529 353.5,-529 353.5,-565"/>
<text text-anchor="middle" x="294" y="-543.3" font-family="Times,serif" font-size="14.00">#2 LabelNode</text>
</g>
<!-- node0&#45;&gt;node2 -->
<g id="edge4" class="edge">
<title>node0&#45;&gt;node2</title>
<path fill="none" stroke="red" d="M323.59,-601.81C318.68,-592.88 313.2,-582.9 308.29,-573.99"/>
<polygon fill="red" stroke="red" points="311.33,-572.25 303.45,-565.17 305.2,-575.62 311.33,-572.25"/>
</g>
<!-- node14 -->
<g id="node12" class="node">
<title>node14</title>
<polygon fill="lightgrey" stroke="black" points="279.5,-36 106.5,-36 106.5,0 279.5,0 279.5,-36"/>
<text text-anchor="middle" x="193" y="-14.3" font-family="Times,serif" font-size="14.00">#14 ReturnValue : int</text>
</g>
<!-- node0&#45;&gt;node14 -->
<g id="edge18" class="edge">
<title>node0&#45;&gt;node14</title>
<path fill="none" stroke="green" d="M378.47,-601.77C427.81,-566.98 508.29,-500.38 538,-419 565.68,-343.17 672.07,-352.74 515,-138 463.25,-67.25 364.67,-38.51 290.16,-26.87"/>
<polygon fill="green" stroke="green" points="290.22,-23.34 279.81,-25.34 289.19,-30.27 290.22,-23.34"/>
</g>
<!-- node5 -->
<g id="node5" class="node">
<title>node5</title>
<polygon fill="lightgrey" stroke="transparent" points="339.5,-346 250.5,-346 250.5,-292 339.5,-292 339.5,-346"/>
<polygon fill="none" stroke="black" points="251,-319 251,-346 340,-346 340,-319 251,-319"/>
<text text-anchor="start" x="277" y="-328.8" font-family="Times,serif" font-size="14.00">#5 If</text>
<polygon fill="yellow" stroke="transparent" points="251,-292 251,-319 297,-319 297,-292 251,-292"/>
<polygon fill="none" stroke="black" points="251,-292 251,-319 297,-319 297,-292 251,-292"/>
<text text-anchor="start" x="257" y="-301.8" font-family="Times,serif" font-size="14.00">false</text>
<polygon fill="yellow" stroke="transparent" points="297,-292 297,-319 340,-319 340,-292 297,-292"/>
<polygon fill="none" stroke="black" points="297,-292 297,-319 340,-319 340,-292 297,-292"/>
<text text-anchor="start" x="303" y="-301.8" font-family="Times,serif" font-size="14.00">true</text>
</g>
<!-- node4&#45;&gt;node5 -->
<g id="edge5" class="edge">
<title>node4&#45;&gt;node5</title>
<path fill="none" stroke="black" d="M361.91,-382.73C355.49,-377.13 348.4,-370.86 342,-365 337.94,-361.28 333.72,-357.35 329.55,-353.41"/>
<polygon fill="black" stroke="black" points="331.8,-350.73 322.14,-346.38 326.99,-355.81 331.8,-350.73"/>
<text text-anchor="middle" x="341.11" y="-349.03" font-family="Times,serif" font-size="14.00">*0</text>
</g>
<!-- node3 -->
<g id="node3" class="node">
<title>node3</title>
<polygon fill="lightgreen" stroke="black" points="350.52,-466.54 350.52,-481.46 319.76,-492 276.24,-492 245.48,-481.46 245.48,-466.54 276.24,-456 319.76,-456 350.52,-466.54"/>
<text text-anchor="middle" x="298" y="-470.3" font-family="Times,serif" font-size="14.00">#3 int 0</text>
</g>
<!-- node3&#45;&gt;node4 -->
<g id="edge2" class="edge">
<title>node3&#45;&gt;node4</title>
<path fill="none" stroke="black" d="M318.33,-455.81C329.06,-446.74 342.39,-435.48 354.08,-425.6"/>
<polygon fill="black" stroke="black" points="356.48,-428.16 361.85,-419.03 351.96,-422.81 356.48,-428.16"/>
<text text-anchor="middle" x="353.47" y="-433.49" font-family="Times,serif" font-size="14.00">*1</text>
</g>
<!-- node2&#45;&gt;node3 -->
<g id="edge3" class="edge">
<title>node2&#45;&gt;node3</title>
<path fill="none" stroke="black" stroke-dasharray="1,5" d="M294.97,-528.81C295.42,-520.79 295.97,-511.05 296.47,-502.07"/>
<polygon fill="black" stroke="black" points="299.97,-502.21 297.04,-492.03 292.98,-501.82 299.97,-502.21"/>
</g>
<!-- node2&#45;&gt;node5 -->
<g id="edge6" class="edge">
<title>node2&#45;&gt;node5</title>
<path fill="none" stroke="red" d="M268.72,-528.88C256.82,-519.44 243.6,-506.65 236,-492 213.6,-448.82 206.37,-427.51 226,-383 230.96,-371.75 239.03,-361.64 247.94,-352.98"/>
<polygon fill="red" stroke="red" points="250.51,-355.37 255.56,-346.06 245.8,-350.19 250.51,-355.37"/>
</g>
<!-- node10 -->
<g id="node6" class="node">
<title>node10</title>
<polygon fill="lightgrey" stroke="black" points="483,-255 355,-255 355,-219 483,-219 483,-255"/>
<text text-anchor="middle" x="419" y="-233.3" font-family="Times,serif" font-size="14.00">#10 LabelNode</text>
</g>
<!-- node5&#45;&gt;node10 -->
<g id="edge7" class="edge">
<title>node5:prj7&#45;&gt;node10</title>
<path fill="none" stroke="red" d="M319,-292C319,-274.93 330.42,-263.23 345.55,-255.22"/>
<polygon fill="red" stroke="red" points="347.22,-258.3 354.82,-250.92 344.28,-251.95 347.22,-258.3"/>
</g>
<!-- node8 -->
<g id="node8" class="node">
<title>node8</title>
<polygon fill="lightgrey" stroke="black" points="312,-255 236,-255 236,-219 312,-219 312,-255"/>
<text text-anchor="middle" x="274" y="-233.3" font-family="Times,serif" font-size="14.00">#8 Goto</text>
</g>
<!-- node5&#45;&gt;node8 -->
<g id="edge10" class="edge">
<title>node5:prj6&#45;&gt;node8</title>
<path fill="none" stroke="red" d="M274,-292C274,-283.3 274,-273.81 274,-265.25"/>
<polygon fill="red" stroke="red" points="277.5,-265.02 274,-255.02 270.5,-265.02 277.5,-265.02"/>
</g>
<!-- node9 -->
<g id="node9" class="node">
<title>node9</title>
<polygon fill="lightgreen" stroke="black" points="217.52,-229.54 217.52,-244.46 186.76,-255 143.24,-255 112.48,-244.46 112.48,-229.54 143.24,-219 186.76,-219 217.52,-229.54"/>
<text text-anchor="middle" x="165" y="-233.3" font-family="Times,serif" font-size="14.00">#9 int 1</text>
</g>
<!-- node5&#45;&gt;node9 -->
<g id="edge11" class="edge">
<title>node5:prj6&#45;&gt;node9</title>
<path fill="none" stroke="black" stroke-dasharray="1,5" d="M250,-305C222.01,-305 197.82,-282.32 182.47,-263.35"/>
<polygon fill="black" stroke="black" points="185.13,-261.06 176.26,-255.25 179.58,-265.32 185.13,-261.06"/>
</g>
<!-- node11 -->
<g id="node7" class="node">
<title>node11</title>
<polygon fill="lightgrey" stroke="black" points="331.5,-182 164.5,-182 164.5,-146 331.5,-146 331.5,-182"/>
<text text-anchor="middle" x="248" y="-160.3" font-family="Times,serif" font-size="14.00">#11 Merge : Merge9</text>
</g>
<!-- node10&#45;&gt;node11 -->
<g id="edge9" class="edge">
<title>node10&#45;&gt;node11</title>
<path fill="none" stroke="red" d="M378.04,-218.99C354.21,-209.1 323.97,-196.54 298.66,-186.03"/>
<polygon fill="red" stroke="red" points="299.79,-182.72 289.22,-182.11 297.11,-189.18 299.79,-182.72"/>
</g>
<!-- node12 -->
<g id="node11" class="node">
<title>node12</title>
<polygon fill="lightgreen" stroke="black" points="478.19,-156.54 478.19,-171.46 443.52,-182 394.48,-182 359.81,-171.46 359.81,-156.54 394.48,-146 443.52,-146 478.19,-156.54"/>
<text text-anchor="middle" x="419" y="-160.3" font-family="Times,serif" font-size="14.00">#12 int 0</text>
</g>
<!-- node10&#45;&gt;node12 -->
<g id="edge15" class="edge">
<title>node10&#45;&gt;node12</title>
<path fill="none" stroke="black" stroke-dasharray="1,5" d="M419,-218.81C419,-210.79 419,-201.05 419,-192.07"/>
<polygon fill="black" stroke="black" points="422.5,-192.03 419,-182.03 415.5,-192.03 422.5,-192.03"/>
</g>
<!-- node13 -->
<g id="node10" class="node">
<title>node13</title>
<polygon fill="lightgreen" stroke="black" points="330.5,-83.54 330.5,-98.46 295.06,-109 244.94,-109 209.5,-98.46 209.5,-83.54 244.94,-73 295.06,-73 330.5,-83.54"/>
<text text-anchor="middle" x="270" y="-87.3" font-family="Times,serif" font-size="14.00">#13 Φ int</text>
</g>
<!-- node11&#45;&gt;node13 -->
<g id="edge12" class="edge">
<title>node11&#45;&gt;node13</title>
<path fill="none" stroke="black" stroke-dasharray="1,5" d="M249.9,-145.94C250.82,-139.88 252.15,-133.06 254,-127 254.86,-124.18 255.9,-121.3 257.03,-118.46"/>
<polygon fill="black" stroke="black" points="260.32,-119.66 261.1,-109.09 253.9,-116.87 260.32,-119.66"/>
</g>
<!-- node11&#45;&gt;node14 -->
<g id="edge17" class="edge">
<title>node11&#45;&gt;node14</title>
<path fill="none" stroke="red" d="M227.24,-145.68C217.17,-136.01 205.99,-123.08 200,-109 191.54,-89.11 190.16,-64.52 190.69,-46.08"/>
<polygon fill="red" stroke="red" points="194.19,-46.17 191.19,-36.01 187.2,-45.83 194.19,-46.17"/>
</g>
<!-- node8&#45;&gt;node11 -->
<g id="edge8" class="edge">
<title>node8&#45;&gt;node11</title>
<path fill="none" stroke="red" d="M267.71,-218.81C264.7,-210.62 261.05,-200.62 257.7,-191.48"/>
<polygon fill="red" stroke="red" points="260.96,-190.22 254.24,-182.03 254.39,-192.62 260.96,-190.22"/>
</g>
<!-- node9&#45;&gt;node13 -->
<g id="edge13" class="edge">
<title>node9&#45;&gt;node13</title>
<path fill="none" stroke="blue" d="M194.99,-221.77C204.96,-217.61 216.27,-213.52 227,-211 256.08,-204.17 474.72,-211.93 495,-190 510.69,-173.03 510.79,-154.87 495,-138 483.51,-125.72 360.25,-132.31 344,-128 331.25,-124.62 318.07,-118.99 306.44,-113.18"/>
<polygon fill="blue" stroke="blue" points="307.96,-110.03 297.47,-108.52 304.73,-116.24 307.96,-110.03"/>
<text text-anchor="middle" x="317.45" y="-105.68" font-family="Times,serif" font-size="14.00">if #8</text>
</g>
<!-- node13&#45;&gt;node14 -->
<g id="edge16" class="edge">
<title>node13&#45;&gt;node14</title>
<path fill="none" stroke="black" d="M251.36,-72.81C241.62,-63.83 229.54,-52.69 218.9,-42.89"/>
<polygon fill="black" stroke="black" points="221.19,-40.23 211.47,-36.03 216.45,-45.38 221.19,-40.23"/>
<text text-anchor="middle" x="230.52" y="-38.4" font-family="Times,serif" font-size="14.00">*0</text>
</g>
<!-- node12&#45;&gt;node13 -->
<g id="edge14" class="edge">
<title>node12&#45;&gt;node13</title>
<path fill="none" stroke="blue" d="M382.7,-149.37C370.26,-145.16 356.16,-140.87 343,-138 323.56,-133.76 267.26,-142.84 254,-128 251.51,-125.21 250.81,-121.98 251.25,-118.61"/>
<polygon fill="blue" stroke="blue" points="254.62,-119.62 254.98,-109.03 248.09,-117.08 254.62,-119.62"/>
<text text-anchor="middle" x="256.28" y="-125.29" font-family="Times,serif" font-size="14.00">if #10</text>
</g>
<!-- node6 -->
<g id="node13" class="node">
<title>node6</title>
<ellipse fill="none" stroke="black" cx="55" cy="-237" rx="38.99" ry="18"/>
<text text-anchor="middle" x="55" y="-233.3" font-family="Times,serif" font-size="14.00">node6</text>
</g>
<!-- c0 -->
<!-- c1 -->
<!-- c0&#45;&gt;c1 -->
<g id="edge19" class="edge">
<title>c0&#45;&gt;c1</title>
<path fill="none" stroke="red" d="M1129.89,-629C1141.11,-629 1199.24,-629 1224.86,-629"/>
<polygon fill="red" stroke="red" points="1225.06,-632.5 1235.06,-629 1225.06,-625.5 1225.06,-632.5"/>
<text text-anchor="middle" x="1182.5" y="-635.8" font-family="Times,serif" font-size="14.00">Control flow</text>
</g>
<!-- c2 -->
<!-- c3 -->
<!-- c2&#45;&gt;c3 -->
<g id="edge20" class="edge">
<title>c2&#45;&gt;c3</title>
<path fill="none" stroke="red" stroke-dasharray="5,2" d="M923.08,-629C940.05,-629 1056.21,-629 1094.08,-629"/>
<polygon fill="red" stroke="red" points="1094.17,-632.5 1104.17,-629 1094.17,-625.5 1094.17,-632.5"/>
<text text-anchor="middle" x="1013.5" y="-635.8" font-family="Times,serif" font-size="14.00">Control flow back edge</text>
</g>
<!-- d0 -->
<!-- d1 -->
<!-- d0&#45;&gt;d1 -->
<g id="edge21" class="edge">
<title>d0&#45;&gt;d1</title>
<path fill="none" stroke="black" d="M811.86,-629C821.41,-629 865.31,-629 886.92,-629"/>
<polygon fill="black" stroke="black" points="887.15,-632.5 897.15,-629 887.15,-625.5 887.15,-632.5"/>
<text text-anchor="middle" x="854.5" y="-635.8" font-family="Times,serif" font-size="14.00">Data flow</text>
</g>
<!-- d2 -->
<!-- d3 -->
<!-- d2&#45;&gt;d3 -->
<g id="edge22" class="edge">
<title>d2&#45;&gt;d3</title>
<path fill="none" stroke="black" stroke-dasharray="1,5" d="M685.81,-629C696.46,-629 751.46,-629 776.08,-629"/>
<polygon fill="black" stroke="black" points="776.15,-632.5 786.15,-629 776.15,-625.5 776.15,-632.5"/>
<text text-anchor="middle" x="736" y="-635.8" font-family="Times,serif" font-size="14.00">Declaration</text>
</g>
<!-- d4 -->
<!-- d5 -->
<!-- d4&#45;&gt;d5 -->
<g id="edge23" class="edge">
<title>d4&#45;&gt;d5</title>
<path fill="none" stroke="blue" d="M543.1,-629C555.72,-629 621.88,-629 649.68,-629"/>
<polygon fill="blue" stroke="blue" points="649.84,-632.5 659.84,-629 649.84,-625.5 649.84,-632.5"/>
<text text-anchor="middle" x="601.5" y="-635.8" font-family="Times,serif" font-size="14.00">PHI Data flow</text>
</g>
<!-- d6 -->
<!-- d7 -->
<!-- d6&#45;&gt;d7 -->
<g id="edge24" class="edge">
<title>d6&#45;&gt;d7</title>
<path fill="none" stroke="green" d="M406,-629C417.94,-629 480.3,-629 506.93,-629"/>
<polygon fill="green" stroke="green" points="506.95,-632.5 516.95,-629 506.95,-625.5 506.95,-632.5"/>
<text text-anchor="middle" x="461.5" y="-635.8" font-family="Times,serif" font-size="14.00">Memory flow</text>
</g>
</g>
</svg>
