<?xml version="1.0" encoding="UTF-8" standalone="no"?>
<!DOCTYPE svg PUBLIC "-//W3C//DTD SVG 1.1//EN"
 "http://www.w3.org/Graphics/SVG/1.1/DTD/svg11.dtd">
<!-- Generated by graphviz version 2.43.0 (0)
 -->
<!-- Title: %3 Pages: 1 -->
<svg width="1275pt" height="678pt"
 viewBox="0.00 0.00 1275.00 677.80" xmlns="http://www.w3.org/2000/svg" xmlns:xlink="http://www.w3.org/1999/xlink">
<g id="graph0" class="graph" transform="scale(1 1) rotate(0) translate(4 673.8)">
<title>%3</title>
<polygon fill="white" stroke="transparent" points="-4,4 -4,-673.8 1271,-673.8 1271,4 -4,4"/>
<g id="clust1" class="cluster">
<title>cluster_0</title>
<polygon fill="none" stroke="lightgray" points="404,-138 404,-263 540,-263 540,-138 404,-138"/>
</g>
<g id="clust2" class="cluster">
<title>cluster_1</title>
<polygon fill="none" stroke="lightgray" points="238,-448 238,-573 374,-573 374,-448 238,-448"/>
</g>
<g id="clust3" class="cluster">
<title>cluster_2</title>
<polygon fill="none" stroke="lightgray" points="184,-65 184,-190 366,-190 366,-65 184,-65"/>
</g>
<g id="clust4" class="cluster">
<title>cluster_3</title>
<polygon fill="none" stroke="lightgray" points="8,-211 8,-263 238,-263 238,-211 8,-211"/>
</g>
<g id="clust5" class="cluster">
<title>cluster_000</title>
<polygon fill="none" stroke="black" points="406,-619.2 406,-661.8 1259,-661.8 1259,-619.2 406,-619.2"/>
<text text-anchor="middle" x="832.5" y="-646.6" font-family="Times,serif" font-size="14.00">Legend</text>
</g>
<!-- node0 -->
<g id="node1" class="node">
<title>node0</title>
<polygon fill="lightgrey" stroke="transparent" points="396.5,-656 303.5,-656 303.5,-602 396.5,-602 396.5,-656"/>
<polygon fill="none" stroke="black" points="304,-629 304,-656 397,-656 397,-629 304,-629"/>
<text text-anchor="start" x="310" y="-638.8" font-family="Times,serif" font-size="14.00">#0 Method</text>
<polygon fill="yellow" stroke="transparent" points="304,-602 304,-629 397,-629 397,-602 304,-602"/>
<polygon fill="none" stroke="black" points="304,-602 304,-629 397,-629 397,-602 304,-602"/>
<text text-anchor="start" x="317" y="-611.8" font-family="Times,serif" font-size="14.00">arg0 : int</text>
</g>
<!-- node2 -->
<g id="node2" class="node">
<title>node2</title>
<polygon fill="lightgrey" stroke="black" points="365.5,-565 246.5,-565 246.5,-529 365.5,-529 365.5,-565"/>
<text text-anchor="middle" x="306" y="-543.3" font-family="Times,serif" font-size="14.00">#2 LabelNode</text>
</g>
<!-- node0&#45;&gt;node2 -->
<g id="edge1" class="edge">
<title>node0&#45;&gt;node2</title>
<path fill="none" stroke="red" d="M335.59,-601.81C330.68,-592.88 325.2,-582.9 320.29,-573.99"/>
<polygon fill="red" stroke="red" points="323.33,-572.25 315.45,-565.17 317.2,-575.62 323.33,-572.25"/>
</g>
<!-- node4 -->
<g id="node4" class="node">
<title>node4</title>
<polygon fill="orange" stroke="black" points="541.06,-393.54 541.06,-408.46 454.91,-419 333.09,-419 246.94,-408.46 246.94,-393.54 333.09,-383 454.91,-383 541.06,-393.54"/>
<text text-anchor="middle" x="394" y="-397.3" font-family="Times,serif" font-size="14.00">#4 NumericCondition : NE</text>
</g>
<!-- node0&#45;&gt;node4 -->
<g id="edge4" class="edge">
<title>node0:prj1&#45;&gt;node4</title>
<path fill="none" stroke="black" d="M398,-615C407.19,-615 399.7,-486.69 395.89,-429.24"/>
<polygon fill="black" stroke="black" points="399.37,-428.81 395.21,-419.07 392.39,-429.28 399.37,-428.81"/>
<text text-anchor="middle" x="404.86" y="-432.89" font-family="Times,serif" font-size="14.00">*0</text>
</g>
<!-- node14 -->
<g id="node12" class="node">
<title>node14</title>
<polygon fill="lightgrey" stroke="black" points="239.5,-36 66.5,-36 66.5,0 239.5,0 239.5,-36"/>
<text text-anchor="middle" x="153" y="-14.3" font-family="Times,serif" font-size="14.00">#14 ReturnValue : int</text>
</g>
<!-- node0&#45;&gt;node14 -->
<g id="edge18" class="edge">
<title>node0&#45;&gt;node14</title>
<path fill="none" stroke="green" d="M396.61,-603.71C468.62,-562.67 594.24,-475.05 550,-383 513.02,-306.05 445.77,-335.07 400,-263 369.37,-214.77 412.06,-176.67 370,-138 307.11,-80.19 244.48,-165.03 180,-109 162.15,-93.49 155.86,-66.69 153.76,-46.36"/>
<polygon fill="green" stroke="green" points="157.23,-45.84 152.99,-36.13 150.25,-46.36 157.23,-45.84"/>
</g>
<!-- node5 -->
<g id="node3" class="node">
<title>node5</title>
<polygon fill="lightgrey" stroke="transparent" points="351.5,-346 262.5,-346 262.5,-292 351.5,-292 351.5,-346"/>
<polygon fill="none" stroke="black" points="263,-319 263,-346 352,-346 352,-319 263,-319"/>
<text text-anchor="start" x="289" y="-328.8" font-family="Times,serif" font-size="14.00">#5 If</text>
<polygon fill="yellow" stroke="transparent" points="263,-292 263,-319 309,-319 309,-292 263,-292"/>
<polygon fill="none" stroke="black" points="263,-292 263,-319 309,-319 309,-292 263,-292"/>
<text text-anchor="start" x="269" y="-301.8" font-family="Times,serif" font-size="14.00">false</text>
<polygon fill="yellow" stroke="transparent" points="309,-292 309,-319 352,-319 352,-292 309,-292"/>
<polygon fill="none" stroke="black" points="309,-292 309,-319 352,-319 352,-292 309,-292"/>
<text text-anchor="start" x="315" y="-301.8" font-family="Times,serif" font-size="14.00">true</text>
</g>
<!-- node2&#45;&gt;node5 -->
<g id="edge3" class="edge">
<title>node2&#45;&gt;node5</title>
<path fill="none" stroke="red" d="M280.72,-528.88C268.82,-519.44 255.6,-506.65 248,-492 225.6,-448.82 218.37,-427.51 238,-383 242.96,-371.75 251.03,-361.64 259.94,-352.98"/>
<polygon fill="red" stroke="red" points="262.51,-355.37 267.56,-346.06 257.8,-350.19 262.51,-355.37"/>
</g>
<!-- node3 -->
<g id="node5" class="node">
<title>node3</title>
<polygon fill="lightgreen" stroke="black" points="362.52,-466.54 362.52,-481.46 331.76,-492 288.24,-492 257.48,-481.46 257.48,-466.54 288.24,-456 331.76,-456 362.52,-466.54"/>
<text text-anchor="middle" x="310" y="-470.3" font-family="Times,serif" font-size="14.00">#3 int 0</text>
</g>
<!-- node2&#45;&gt;node3 -->
<g id="edge6" class="edge">
<title>node2&#45;&gt;node3</title>
<path fill="none" stroke="black" stroke-dasharray="1,5" d="M306.97,-528.81C307.42,-520.79 307.97,-511.05 308.47,-502.07"/>
<polygon fill="black" stroke="black" points="311.97,-502.21 309.04,-492.03 304.98,-501.82 311.97,-502.21"/>
</g>
<!-- node10 -->
<g id="node6" class="node">
<title>node10</title>
<polygon fill="lightgreen" stroke="black" points="230.19,-229.54 230.19,-244.46 195.52,-255 146.48,-255 111.81,-244.46 111.81,-229.54 146.48,-219 195.52,-219 230.19,-229.54"/>
<text text-anchor="middle" x="171" y="-233.3" font-family="Times,serif" font-size="14.00">#10 int 1</text>
</g>
<!-- node5&#45;&gt;node10 -->
<g id="edge7" class="edge">
<title>node5:prj7&#45;&gt;node10</title>
<path fill="none" stroke="black" stroke-dasharray="1,5" d="M262,-305C232.65,-305 206.52,-282.11 189.87,-263.09"/>
<polygon fill="black" stroke="black" points="192.43,-260.69 183.34,-255.25 187.06,-265.18 192.43,-260.69"/>
</g>
<!-- node8 -->
<g id="node10" class="node">
<title>node8</title>
<polygon fill="lightgrey" stroke="black" points="531.5,-255 412.5,-255 412.5,-219 531.5,-219 531.5,-255"/>
<text text-anchor="middle" x="472" y="-233.3" font-family="Times,serif" font-size="14.00">#8 LabelNode</text>
</g>
<!-- node5&#45;&gt;node8 -->
<g id="edge12" class="edge">
<title>node5:prj6&#45;&gt;node8</title>
<path fill="none" stroke="red" d="M353,-305C389.11,-305 424.37,-281.29 447.01,-262.08"/>
<polygon fill="red" stroke="red" points="449.57,-264.49 454.76,-255.25 444.94,-259.23 449.57,-264.49"/>
</g>
<!-- node9 -->
<g id="node11" class="node">
<title>node9</title>
<polygon fill="lightgrey" stroke="black" points="324,-255 248,-255 248,-219 324,-219 324,-255"/>
<text text-anchor="middle" x="286" y="-233.3" font-family="Times,serif" font-size="14.00">#9 Goto</text>
</g>
<!-- node5&#45;&gt;node9 -->
<g id="edge15" class="edge">
<title>node5:prj7&#45;&gt;node9</title>
<path fill="none" stroke="red" d="M286,-292C286,-283.3 286,-273.81 286,-265.25"/>
<polygon fill="red" stroke="red" points="289.5,-265.02 286,-255.02 282.5,-265.02 289.5,-265.02"/>
</g>
<!-- node4&#45;&gt;node5 -->
<g id="edge2" class="edge">
<title>node4&#45;&gt;node5</title>
<path fill="none" stroke="black" d="M373.91,-382.73C367.49,-377.13 360.4,-370.86 354,-365 349.94,-361.28 345.72,-357.35 341.55,-353.41"/>
<polygon fill="black" stroke="black" points="343.8,-350.73 334.14,-346.38 338.99,-355.81 343.8,-350.73"/>
<text text-anchor="middle" x="353.11" y="-349.03" font-family="Times,serif" font-size="14.00">*0</text>
</g>
<!-- node3&#45;&gt;node4 -->
<g id="edge5" class="edge">
<title>node3&#45;&gt;node4</title>
<path fill="none" stroke="black" d="M330.33,-455.81C341.06,-446.74 354.39,-435.48 366.08,-425.6"/>
<polygon fill="black" stroke="black" points="368.48,-428.16 373.85,-419.03 363.96,-422.81 368.48,-428.16"/>
<text text-anchor="middle" x="365.47" y="-433.49" font-family="Times,serif" font-size="14.00">*1</text>
</g>
<!-- node13 -->
<g id="node7" class="node">
<title>node13</title>
<polygon fill="lightgreen" stroke="black" points="324.5,-83.54 324.5,-98.46 289.06,-109 238.94,-109 203.5,-98.46 203.5,-83.54 238.94,-73 289.06,-73 324.5,-83.54"/>
<text text-anchor="middle" x="264" y="-87.3" font-family="Times,serif" font-size="14.00">#13 Φ int</text>
</g>
<!-- node10&#45;&gt;node13 -->
<g id="edge9" class="edge">
<title>node10&#45;&gt;node13</title>
<path fill="none" stroke="blue" d="M204.34,-221.6C215.2,-217.5 227.44,-213.47 239,-211 272.22,-203.9 520.82,-214.83 544,-190 608.37,-121.05 437.32,-100.6 334.75,-94.54"/>
<polygon fill="blue" stroke="blue" points="334.93,-91.04 324.75,-93.98 334.54,-98.03 334.93,-91.04"/>
<text text-anchor="middle" x="343.32" y="-82.85" font-family="Times,serif" font-size="14.00">if #9</text>
</g>
<!-- node13&#45;&gt;node14 -->
<g id="edge16" class="edge">
<title>node13&#45;&gt;node14</title>
<path fill="none" stroke="black" d="M237.69,-73.17C222.98,-63.76 204.44,-51.9 188.46,-41.68"/>
<polygon fill="black" stroke="black" points="190.2,-38.64 179.89,-36.2 186.43,-44.54 190.2,-38.64"/>
<text text-anchor="middle" x="199.71" y="-35.15" font-family="Times,serif" font-size="14.00">*0</text>
</g>
<!-- node11 -->
<g id="node8" class="node">
<title>node11</title>
<polygon fill="lightgrey" stroke="black" points="358.5,-182 191.5,-182 191.5,-146 358.5,-146 358.5,-182"/>
<text text-anchor="middle" x="275" y="-160.3" font-family="Times,serif" font-size="14.00">#11 Merge : Merge9</text>
</g>
<!-- node11&#45;&gt;node13 -->
<g id="edge8" class="edge">
<title>node11&#45;&gt;node13</title>
<path fill="none" stroke="black" stroke-dasharray="1,5" d="M272.34,-145.81C271.09,-137.79 269.58,-128.05 268.19,-119.07"/>
<polygon fill="black" stroke="black" points="271.63,-118.38 266.64,-109.03 264.71,-119.45 271.63,-118.38"/>
</g>
<!-- node11&#45;&gt;node14 -->
<g id="edge17" class="edge">
<title>node11&#45;&gt;node14</title>
<path fill="none" stroke="red" d="M240.63,-145.85C224.84,-136.63 206.82,-124.06 194,-109 178.25,-90.49 167.38,-64.93 160.81,-45.78"/>
<polygon fill="red" stroke="red" points="164.1,-44.58 157.68,-36.15 157.44,-46.74 164.1,-44.58"/>
</g>
<!-- node12 -->
<g id="node9" class="node">
<title>node12</title>
<polygon fill="lightgreen" stroke="black" points="532.19,-156.54 532.19,-171.46 497.52,-182 448.48,-182 413.81,-171.46 413.81,-156.54 448.48,-146 497.52,-146 532.19,-156.54"/>
<text text-anchor="middle" x="473" y="-160.3" font-family="Times,serif" font-size="14.00">#12 int 0</text>
</g>
<!-- node12&#45;&gt;node13 -->
<g id="edge10" class="edge">
<title>node12&#45;&gt;node13</title>
<path fill="none" stroke="blue" d="M435.12,-150C423.82,-146.13 411.41,-141.88 400,-138 370.92,-128.1 338.31,-117.07 312.32,-108.29"/>
<polygon fill="blue" stroke="blue" points="313.3,-104.93 302.7,-105.05 311.06,-111.56 313.3,-104.93"/>
<text text-anchor="middle" x="322.58" y="-99.14" font-family="Times,serif" font-size="14.00">if #8</text>
</g>
<!-- node8&#45;&gt;node11 -->
<g id="edge14" class="edge">
<title>node8&#45;&gt;node11</title>
<path fill="none" stroke="red" d="M424.81,-218.99C397,-208.97 361.6,-196.21 332.2,-185.62"/>
<polygon fill="red" stroke="red" points="333.08,-182.21 322.48,-182.11 330.71,-188.8 333.08,-182.21"/>
</g>
<!-- node8&#45;&gt;node12 -->
<g id="edge11" class="edge">
<title>node8&#45;&gt;node12</title>
<path fill="none" stroke="black" stroke-dasharray="1,5" d="M472.24,-218.81C472.36,-210.79 472.49,-201.05 472.62,-192.07"/>
<polygon fill="black" stroke="black" points="476.12,-192.08 472.76,-182.03 469.12,-191.98 476.12,-192.08"/>
</g>
<!-- node9&#45;&gt;node11 -->
<g id="edge13" class="edge">
<title>node9&#45;&gt;node11</title>
<path fill="none" stroke="red" d="M283.34,-218.81C282.09,-210.79 280.58,-201.05 279.19,-192.07"/>
<polygon fill="red" stroke="red" points="282.63,-191.38 277.64,-182.03 275.71,-192.45 282.63,-191.38"/>
</g>
<!-- node7 -->
<g id="node13" class="node">
<title>node7</title>
<ellipse fill="none" stroke="black" cx="55" cy="-237" rx="38.99" ry="18"/>
<text text-anchor="middle" x="55" y="-233.3" font-family="Times,serif" font-size="14.00">node7</text>
</g>
<!-- c0 -->
<!-- c1 -->
<!-- c0&#45;&gt;c1 -->
<g id="edge19" class="edge">
<title>c0&#45;&gt;c1</title>
<path fill="none" stroke="red" d="M1141.89,-629C1153.11,-629 1211.24,-629 1236.86,-629"/>
<polygon fill="red" stroke="red" points="1237.06,-632.5 1247.06,-629 1237.06,-625.5 1237.06,-632.5"/>
<text text-anchor="middle" x="1194.5" y="-635.8" font-family="Times,serif" font-size="14.00">Control flow</text>
</g>
<!-- c2 -->
<!-- c3 -->
<!-- c2&#45;&gt;c3 -->
<g id="edge20" class="edge">
<title>c2&#45;&gt;c3</title>
<path fill="none" stroke="red" stroke-dasharray="5,2" d="M935.08,-629C952.05,-629 1068.21,-629 1106.08,-629"/>
<polygon fill="red" stroke="red" points="1106.17,-632.5 1116.17,-629 1106.17,-625.5 1106.17,-632.5"/>
<text text-anchor="middle" x="1025.5" y="-635.8" font-family="Times,serif" font-size="14.00">Control flow back edge</text>
</g>
<!-- d0 -->
<!-- d1 -->
<!-- d0&#45;&gt;d1 -->
<g id="edge21" class="edge">
<title>d0&#45;&gt;d1</title>
<path fill="none" stroke="black" d="M823.86,-629C833.41,-629 877.31,-629 898.92,-629"/>
<polygon fill="black" stroke="black" points="899.15,-632.5 909.15,-629 899.15,-625.5 899.15,-632.5"/>
<text text-anchor="middle" x="866.5" y="-635.8" font-family="Times,serif" font-size="14.00">Data flow</text>
</g>
<!-- d2 -->
<!-- d3 -->
<!-- d2&#45;&gt;d3 -->
<g id="edge22" class="edge">
<title>d2&#45;&gt;d3</title>
<path fill="none" stroke="black" stroke-dasharray="1,5" d="M697.81,-629C708.46,-629 763.46,-629 788.08,-629"/>
<polygon fill="black" stroke="black" points="788.15,-632.5 798.15,-629 788.15,-625.5 788.15,-632.5"/>
<text text-anchor="middle" x="748" y="-635.8" font-family="Times,serif" font-size="14.00">Declaration</text>
</g>
<!-- d4 -->
<!-- d5 -->
<!-- d4&#45;&gt;d5 -->
<g id="edge23" class="edge">
<title>d4&#45;&gt;d5</title>
<path fill="none" stroke="blue" d="M555.1,-629C567.72,-629 633.88,-629 661.68,-629"/>
<polygon fill="blue" stroke="blue" points="661.84,-632.5 671.84,-629 661.84,-625.5 661.84,-632.5"/>
<text text-anchor="middle" x="613.5" y="-635.8" font-family="Times,serif" font-size="14.00">PHI Data flow</text>
</g>
<!-- d6 -->
<!-- d7 -->
<!-- d6&#45;&gt;d7 -->
<g id="edge24" class="edge">
<title>d6&#45;&gt;d7</title>
<path fill="none" stroke="green" d="M418,-629C429.94,-629 492.3,-629 518.93,-629"/>
<polygon fill="green" stroke="green" points="518.95,-632.5 528.95,-629 518.95,-625.5 518.95,-632.5"/>
<text text-anchor="middle" x="473.5" y="-635.8" font-family="Times,serif" font-size="14.00">Memory flow</text>
</g>
</g>
</svg>
