<?xml version="1.0" encoding="UTF-8" standalone="no"?>
<!DOCTYPE svg PUBLIC "-//W3C//DTD SVG 1.1//EN"
 "http://www.w3.org/Graphics/SVG/1.1/DTD/svg11.dtd">
<!-- Generated by graphviz version 2.43.0 (0)
 -->
<!-- Title: debugoutput Pages: 1 -->
<svg width="1266pt" height="724pt"
 viewBox="0.00 0.00 1266.00 723.80" xmlns="http://www.w3.org/2000/svg" xmlns:xlink="http://www.w3.org/1999/xlink">
<g id="graph0" class="graph" transform="scale(1 1) rotate(0) translate(4 719.8)">
<title>debugoutput</title>
<polygon fill="white" stroke="transparent" points="-4,4 -4,-719.8 1262,-719.8 1262,4 -4,4"/>
<g id="clust1" class="cluster">
<title>cluster_000</title>
<polygon fill="none" stroke="black" points="274,-665.2 274,-707.8 1250,-707.8 1250,-665.2 274,-665.2"/>
<text text-anchor="middle" x="762" y="-692.6" font-family="Times,serif" font-size="14.00">Legend</text>
</g>
<!-- node0 -->
<g id="node1" class="node">
<title>node0</title>
<polygon fill="lightgrey" stroke="black" points="264,-693 98,-693 98,-657 264,-657 264,-693"/>
<text text-anchor="middle" x="181" y="-671.3" font-family="Times,serif" font-size="14.00">#0 Method Order : 0</text>
</g>
<!-- node1 -->
<g id="node2" class="node">
<title>node1</title>
<polygon fill="lightgrey" stroke="black" points="269.5,-620 92.5,-620 92.5,-584 269.5,-584 269.5,-620"/>
<text text-anchor="middle" x="181" y="-598.3" font-family="Times,serif" font-size="14.00">#1 arg0 : int Order : 3</text>
</g>
<!-- node0&#45;&gt;node1 -->
<g id="edge2" class="edge">
<title>node0&#45;&gt;node1</title>
<path fill="none" stroke="black" d="M175.12,-656.81C174.28,-648.79 174.05,-639.05 174.42,-630.07"/>
<polygon fill="black" stroke="black" points="177.92,-630.25 175.14,-620.03 170.94,-629.75 177.92,-630.25"/>
<text text-anchor="middle" x="182.28" y="-635.01" font-family="Times,serif" font-size="14.00">*0</text>
</g>
<!-- node2 -->
<g id="node3" class="node">
<title>node2</title>
<polygon fill="lightgrey" stroke="black" points="476,-620 288,-620 288,-584 476,-584 476,-620"/>
<text text-anchor="middle" x="382" y="-598.3" font-family="Times,serif" font-size="14.00">#2 LabelNode Order : 1</text>
</g>
<!-- node0&#45;&gt;node2 -->
<g id="edge4" class="edge">
<title>node0&#45;&gt;node2</title>
<path fill="none" stroke="red" d="M223.29,-656.99C250.72,-646.92 286.92,-634.1 317.84,-623.48"/>
<polygon fill="red" stroke="red" points="319.35,-626.66 327.68,-620.11 317.09,-620.04 319.35,-626.66"/>
</g>
<!-- node14 -->
<g id="node15" class="node">
<title>node14</title>
<polygon fill="lightgrey" stroke="black" points="286.5,-36 35.5,-36 35.5,0 286.5,0 286.5,-36"/>
<text text-anchor="middle" x="161" y="-14.3" font-family="Times,serif" font-size="14.00">#14 ReturnValue : int Order : 14</text>
</g>
<!-- node0&#45;&gt;node14 -->
<g id="edge35" class="edge">
<title>node0&#45;&gt;node14</title>
<path fill="none" stroke="green" d="M112.63,-656.99C93.99,-648.8 75.97,-636.94 65,-620 14.19,-541.55 0,-513.47 0,-420 0,-420 0,-420 0,-127 0,-83.75 41.39,-56.23 82.26,-39.8"/>
<polygon fill="green" stroke="green" points="83.69,-43 91.78,-36.16 81.19,-36.46 83.69,-43"/>
</g>
<!-- node1&#45;&gt;node0 -->
<g id="edge1" class="edge">
<title>node1&#45;&gt;node0</title>
<path fill="none" stroke="fuchsia" stroke-width="2" d="M186.86,-620.03C187.71,-628.03 187.95,-637.77 187.59,-646.75"/>
<polygon fill="fuchsia" stroke="fuchsia" stroke-width="2" points="184.09,-646.59 186.88,-656.81 191.07,-647.08 184.09,-646.59"/>
</g>
<!-- node4 -->
<g id="node5" class="node">
<title>node4</title>
<polygon fill="orange" stroke="black" points="437.64,-448.54 437.64,-463.46 323.04,-474 160.96,-474 46.36,-463.46 46.36,-448.54 160.96,-438 323.04,-438 437.64,-448.54"/>
<text text-anchor="middle" x="242" y="-452.3" font-family="Times,serif" font-size="14.00">#4 NumericCondition : NE Order : 4</text>
</g>
<!-- node1&#45;&gt;node4 -->
<g id="edge8" class="edge">
<title>node1&#45;&gt;node4</title>
<path fill="none" stroke="black" d="M188.24,-583.92C198.78,-559.02 218.47,-512.54 230.87,-483.27"/>
<polygon fill="black" stroke="black" points="234.09,-484.64 234.77,-474.06 227.65,-481.9 234.09,-484.64"/>
<text text-anchor="middle" x="235.48" y="-490.35" font-family="Times,serif" font-size="14.00">*0</text>
</g>
<!-- node2&#45;&gt;node0 -->
<g id="edge3" class="edge">
<title>node2&#45;&gt;node0</title>
<path fill="none" stroke="fuchsia" stroke-width="2" d="M339.42,-620.11C311.92,-630.2 275.72,-643.03 244.83,-653.63"/>
<polygon fill="fuchsia" stroke="fuchsia" stroke-width="2" points="243.33,-650.45 235,-656.99 245.6,-657.07 243.33,-650.45"/>
</g>
<!-- node3 -->
<g id="node4" class="node">
<title>node3</title>
<polygon fill="lightgreen" stroke="black" points="438.11,-521.54 438.11,-536.46 378.88,-547 295.12,-547 235.89,-536.46 235.89,-521.54 295.12,-511 378.88,-511 438.11,-521.54"/>
<text text-anchor="middle" x="337" y="-525.3" font-family="Times,serif" font-size="14.00">#3 int 0 Order : 2</text>
</g>
<!-- node2&#45;&gt;node3 -->
<g id="edge6" class="edge">
<title>node2&#45;&gt;node3</title>
<path fill="none" stroke="black" stroke-dasharray="1,5" d="M365.23,-583.81C359.05,-575.44 352.34,-565.2 346.89,-555.9"/>
<polygon fill="black" stroke="black" points="349.87,-554.05 341.93,-547.03 343.76,-557.47 349.87,-554.05"/>
</g>
<!-- node5 -->
<g id="node6" class="node">
<title>node5</title>
<polygon fill="lightgrey" stroke="black" points="527,-401 405,-401 405,-365 527,-365 527,-401"/>
<text text-anchor="middle" x="466" y="-379.3" font-family="Times,serif" font-size="14.00">#5 If Order : 5</text>
</g>
<!-- node2&#45;&gt;node5 -->
<g id="edge12" class="edge">
<title>node2&#45;&gt;node5</title>
<path fill="none" stroke="red" d="M411.44,-583.87C424.54,-574.67 438.82,-562.09 447,-547 470.28,-504.06 470.9,-445.53 468.77,-411.55"/>
<polygon fill="red" stroke="red" points="472.25,-411.14 468.01,-401.43 465.27,-411.66 472.25,-411.14"/>
</g>
<!-- node3&#45;&gt;node2 -->
<g id="edge5" class="edge">
<title>node3&#45;&gt;node2</title>
<path fill="none" stroke="fuchsia" stroke-width="2" d="M353.65,-547.03C359.83,-555.38 366.54,-565.61 372.01,-574.92"/>
<polygon fill="fuchsia" stroke="fuchsia" stroke-width="2" points="369.04,-576.8 376.98,-583.81 375.15,-573.38 369.04,-576.8"/>
</g>
<!-- node3&#45;&gt;node4 -->
<g id="edge9" class="edge">
<title>node3&#45;&gt;node4</title>
<path fill="none" stroke="black" d="M314,-510.81C301.63,-501.57 286.21,-490.04 272.82,-480.03"/>
<polygon fill="black" stroke="black" points="274.89,-477.21 264.79,-474.03 270.7,-482.82 274.89,-477.21"/>
<text text-anchor="middle" x="284.36" y="-474.41" font-family="Times,serif" font-size="14.00">*1</text>
</g>
<!-- node4&#45;&gt;node0 -->
<g id="edge7" class="edge">
<title>node4&#45;&gt;node0</title>
<path fill="none" stroke="fuchsia" stroke-width="2" d="M205.24,-474C166.66,-494.12 108.2,-531.63 83,-584 76.06,-598.42 74.86,-606.22 83,-620 91.11,-633.72 104.08,-644.19 117.97,-652.09"/>
<polygon fill="fuchsia" stroke="fuchsia" stroke-width="2" points="116.7,-655.38 127.19,-656.91 119.95,-649.18 116.7,-655.38"/>
</g>
<!-- node4&#45;&gt;node5 -->
<g id="edge11" class="edge">
<title>node4&#45;&gt;node5</title>
<path fill="none" stroke="black" d="M295.65,-437.99C327.7,-427.84 368.58,-414.88 402.26,-404.2"/>
<polygon fill="black" stroke="black" points="403.53,-407.47 412.01,-401.11 401.42,-400.8 403.53,-407.47"/>
<text text-anchor="middle" x="397.28" y="-410.95" font-family="Times,serif" font-size="14.00">*0</text>
</g>
<!-- node5&#45;&gt;node0 -->
<g id="edge10" class="edge">
<title>node5&#45;&gt;node0</title>
<path fill="none" stroke="fuchsia" stroke-width="2" d="M481.24,-401.04C491.81,-414.64 504,-434.73 504,-455 504,-603 504,-603 504,-603 504,-653.55 341.15,-648.23 274.55,-656.51"/>
<polygon fill="fuchsia" stroke="fuchsia" stroke-width="2" points="273.74,-653.09 264.37,-658.03 274.78,-660.01 273.74,-653.09"/>
</g>
<!-- node6 -->
<g id="node7" class="node">
<title>node6</title>
<polygon fill="lightgrey" stroke="black" points="711.5,-328 570.5,-328 570.5,-292 711.5,-292 711.5,-328"/>
<text text-anchor="middle" x="641" y="-306.3" font-family="Times,serif" font-size="14.00">#6 true Order : 9</text>
</g>
<!-- node5&#45;&gt;node6 -->
<g id="edge14" class="edge">
<title>node5&#45;&gt;node6</title>
<path fill="none" stroke="red" d="M502.06,-364.99C525.5,-355.06 556.49,-342.43 583.29,-331.89"/>
<polygon fill="red" stroke="red" points="584.91,-335.02 592.95,-328.11 582.36,-328.5 584.91,-335.02"/>
</g>
<!-- node7 -->
<g id="node8" class="node">
<title>node7</title>
<polygon fill="lightgrey" stroke="black" points="538.5,-328 393.5,-328 393.5,-292 538.5,-292 538.5,-328"/>
<text text-anchor="middle" x="466" y="-306.3" font-family="Times,serif" font-size="14.00">#7 false Order : 6</text>
</g>
<!-- node5&#45;&gt;node7 -->
<g id="edge16" class="edge">
<title>node5&#45;&gt;node7</title>
<path fill="none" stroke="red" d="M460.12,-364.81C459.28,-356.79 459.05,-347.05 459.42,-338.07"/>
<polygon fill="red" stroke="red" points="462.92,-338.25 460.14,-328.03 455.94,-337.75 462.92,-338.25"/>
</g>
<!-- node6&#45;&gt;node5 -->
<g id="edge13" class="edge">
<title>node6&#45;&gt;node5</title>
<path fill="none" stroke="fuchsia" stroke-width="2" d="M604.69,-328.11C581.19,-338.07 550.19,-350.69 523.42,-361.22"/>
<polygon fill="fuchsia" stroke="fuchsia" stroke-width="2" points="521.81,-358.09 513.78,-364.99 524.36,-364.61 521.81,-358.09"/>
</g>
<!-- node8 -->
<g id="node9" class="node">
<title>node8</title>
<polygon fill="lightgrey" stroke="black" points="761.5,-255 564.5,-255 564.5,-219 761.5,-219 761.5,-255"/>
<text text-anchor="middle" x="663" y="-233.3" font-family="Times,serif" font-size="14.00">#8 LabelNode Order : 10</text>
</g>
<!-- node6&#45;&gt;node8 -->
<g id="edge18" class="edge">
<title>node6&#45;&gt;node8</title>
<path fill="none" stroke="red" d="M640.45,-291.81C642.13,-283.62 645,-273.62 648.24,-264.48"/>
<polygon fill="red" stroke="red" points="651.55,-265.62 651.86,-255.03 645.02,-263.12 651.55,-265.62"/>
</g>
<!-- node7&#45;&gt;node5 -->
<g id="edge15" class="edge">
<title>node7&#45;&gt;node5</title>
<path fill="none" stroke="fuchsia" stroke-width="2" d="M471.86,-328.03C472.71,-336.03 472.95,-345.77 472.59,-354.75"/>
<polygon fill="fuchsia" stroke="fuchsia" stroke-width="2" points="469.09,-354.59 471.88,-364.81 476.07,-355.08 469.09,-354.59"/>
</g>
<!-- node9 -->
<g id="node10" class="node">
<title>node9</title>
<polygon fill="lightgrey" stroke="black" points="546.5,-255 401.5,-255 401.5,-219 546.5,-219 546.5,-255"/>
<text text-anchor="middle" x="474" y="-233.3" font-family="Times,serif" font-size="14.00">#9 Goto Order : 8</text>
</g>
<!-- node7&#45;&gt;node9 -->
<g id="edge20" class="edge">
<title>node7&#45;&gt;node9</title>
<path fill="none" stroke="red" d="M462.06,-291.81C462.12,-283.79 462.99,-274.05 464.37,-265.07"/>
<polygon fill="red" stroke="red" points="467.85,-265.5 466.22,-255.03 460.97,-264.23 467.85,-265.5"/>
</g>
<!-- node10 -->
<g id="node11" class="node">
<title>node10</title>
<polygon fill="lightgreen" stroke="black" points="383.77,-229.54 383.77,-244.46 320.64,-255 231.36,-255 168.23,-244.46 168.23,-229.54 231.36,-219 320.64,-219 383.77,-229.54"/>
<text text-anchor="middle" x="276" y="-233.3" font-family="Times,serif" font-size="14.00">#10 int 1 Order : 7</text>
</g>
<!-- node7&#45;&gt;node10 -->
<g id="edge22" class="edge">
<title>node7&#45;&gt;node10</title>
<path fill="none" stroke="black" stroke-dasharray="1,5" d="M414.63,-291.99C386.86,-282.01 352.79,-269.32 325.34,-258.76"/>
<polygon fill="black" stroke="black" points="326.52,-255.46 315.93,-255.11 323.99,-261.99 326.52,-255.46"/>
</g>
<!-- node8&#45;&gt;node6 -->
<g id="edge17" class="edge">
<title>node8&#45;&gt;node6</title>
<path fill="none" stroke="fuchsia" stroke-width="2" d="M663.59,-255.03C661.92,-263.2 659.06,-273.19 655.82,-282.34"/>
<polygon fill="fuchsia" stroke="fuchsia" stroke-width="2" points="652.5,-281.22 652.2,-291.81 659.04,-283.72 652.5,-281.22"/>
</g>
<!-- node11 -->
<g id="node12" class="node">
<title>node11</title>
<polygon fill="lightgrey" stroke="black" points="426.5,-182 181.5,-182 181.5,-146 426.5,-146 426.5,-182"/>
<text text-anchor="middle" x="304" y="-160.3" font-family="Times,serif" font-size="14.00">#11 Merge : Merge9 Order : 12</text>
</g>
<!-- node8&#45;&gt;node11 -->
<g id="edge25" class="edge">
<title>node8&#45;&gt;node11</title>
<path fill="none" stroke="red" d="M610.74,-218.98C589.03,-212.36 563.47,-205.15 540,-200 506.77,-192.71 470.56,-186.49 436.72,-181.41"/>
<polygon fill="red" stroke="red" points="437.17,-177.94 426.77,-179.94 436.15,-184.87 437.17,-177.94"/>
</g>
<!-- node12 -->
<g id="node13" class="node">
<title>node12</title>
<polygon fill="lightgreen" stroke="black" points="776.93,-156.54 776.93,-171.46 710.19,-182 615.81,-182 549.07,-171.46 549.07,-156.54 615.81,-146 710.19,-146 776.93,-156.54"/>
<text text-anchor="middle" x="663" y="-160.3" font-family="Times,serif" font-size="14.00">#12 int 0 Order : 11</text>
</g>
<!-- node8&#45;&gt;node12 -->
<g id="edge27" class="edge">
<title>node8&#45;&gt;node12</title>
<path fill="none" stroke="black" stroke-dasharray="1,5" d="M657.12,-218.81C656.28,-210.79 656.05,-201.05 656.42,-192.07"/>
<polygon fill="black" stroke="black" points="659.92,-192.25 657.14,-182.03 652.94,-191.75 659.92,-192.25"/>
</g>
<!-- node9&#45;&gt;node7 -->
<g id="edge19" class="edge">
<title>node9&#45;&gt;node7</title>
<path fill="none" stroke="fuchsia" stroke-width="2" d="M477.94,-255.03C477.89,-263.03 477.03,-272.77 475.66,-281.75"/>
<polygon fill="fuchsia" stroke="fuchsia" stroke-width="2" points="472.17,-281.35 473.81,-291.81 479.06,-282.61 472.17,-281.35"/>
</g>
<!-- node9&#45;&gt;node11 -->
<g id="edge24" class="edge">
<title>node9&#45;&gt;node11</title>
<path fill="none" stroke="red" d="M433.28,-218.99C409.59,-209.1 379.53,-196.54 354.36,-186.03"/>
<polygon fill="red" stroke="red" points="355.55,-182.74 344.98,-182.11 352.85,-189.2 355.55,-182.74"/>
</g>
<!-- node10&#45;&gt;node7 -->
<g id="edge21" class="edge">
<title>node10&#45;&gt;node7</title>
<path fill="none" stroke="fuchsia" stroke-width="2" d="M325.28,-254.26C353.43,-264.35 388.56,-277.42 416.71,-288.26"/>
<polygon fill="fuchsia" stroke="fuchsia" stroke-width="2" points="415.76,-291.65 426.35,-291.99 418.29,-285.12 415.76,-291.65"/>
</g>
<!-- node13 -->
<g id="node14" class="node">
<title>node13</title>
<polygon fill="lightgreen" stroke="black" points="276.25,-83.54 276.25,-98.46 208.74,-109 113.26,-109 45.75,-98.46 45.75,-83.54 113.26,-73 208.74,-73 276.25,-83.54"/>
<text text-anchor="middle" x="161" y="-87.3" font-family="Times,serif" font-size="14.00">#13 Φ int Order : 13</text>
</g>
<!-- node10&#45;&gt;node13 -->
<g id="edge30" class="edge">
<title>node10&#45;&gt;node13</title>
<path fill="none" stroke="blue" d="M223.12,-220.24C204.05,-211.9 184.24,-199.63 172,-182 159.41,-163.86 157.31,-138.59 157.99,-119.43"/>
<polygon fill="blue" stroke="blue" points="161.5,-119.44 158.63,-109.24 154.51,-119 161.5,-119.44"/>
<text text-anchor="middle" x="165.94" y="-124.16" font-family="Times,serif" font-size="14.00">if #9</text>
</g>
<!-- node11&#45;&gt;node5 -->
<g id="edge23" class="edge">
<title>node11&#45;&gt;node5</title>
<path fill="none" stroke="fuchsia" stroke-width="2" d="M208.52,-182.06C189.08,-190.06 170.95,-201.79 159,-219 149.87,-232.14 150.11,-241.7 159,-255 211.28,-333.2 321.53,-363.3 394.68,-374.86"/>
<polygon fill="fuchsia" stroke="fuchsia" stroke-width="2" points="394.34,-378.35 404.75,-376.37 395.38,-371.42 394.34,-378.35"/>
</g>
<!-- node11&#45;&gt;node13 -->
<g id="edge29" class="edge">
<title>node11&#45;&gt;node13</title>
<path fill="none" stroke="black" stroke-dasharray="1,5" d="M269.75,-145.99C250.17,-136.27 225.42,-123.99 204.48,-113.59"/>
<polygon fill="black" stroke="black" points="205.98,-110.43 195.47,-109.11 202.87,-116.7 205.98,-110.43"/>
</g>
<!-- node11&#45;&gt;node14 -->
<g id="edge34" class="edge">
<title>node11&#45;&gt;node14</title>
<path fill="none" stroke="red" d="M304.82,-145.78C304.84,-126.05 301.95,-93.79 285,-73 273.29,-58.64 257.03,-48.01 240.12,-40.16"/>
<polygon fill="red" stroke="red" points="241.26,-36.84 230.69,-36.08 238.48,-43.27 241.26,-36.84"/>
</g>
<!-- node12&#45;&gt;node8 -->
<g id="edge26" class="edge">
<title>node12&#45;&gt;node8</title>
<path fill="none" stroke="fuchsia" stroke-width="2" d="M668.86,-182.03C669.71,-190.03 669.95,-199.77 669.59,-208.75"/>
<polygon fill="fuchsia" stroke="fuchsia" stroke-width="2" points="666.09,-208.59 668.88,-218.81 673.07,-209.08 666.09,-208.59"/>
</g>
<!-- node12&#45;&gt;node13 -->
<g id="edge31" class="edge">
<title>node12&#45;&gt;node13</title>
<path fill="none" stroke="blue" d="M601.11,-148.28C569.01,-141.06 529.06,-132.7 493,-127 421,-115.61 339.61,-106.97 275.44,-101.12"/>
<polygon fill="blue" stroke="blue" points="275.56,-97.61 265.29,-100.2 274.94,-104.59 275.56,-97.61"/>
<text text-anchor="middle" x="284.1" y="-89.71" font-family="Times,serif" font-size="14.00">if #8</text>
</g>
<!-- node13&#45;&gt;node5 -->
<g id="edge28" class="edge">
<title>node13&#45;&gt;node5</title>
<path fill="none" stroke="fuchsia" stroke-width="2" d="M134.95,-109.25C119.14,-121.98 102,-140.88 102,-163 102,-311 102,-311 102,-311 102,-369.96 288.31,-380.9 394.35,-382.35"/>
<polygon fill="fuchsia" stroke="fuchsia" stroke-width="2" points="394.63,-385.85 404.66,-382.46 394.7,-378.85 394.63,-385.85"/>
</g>
<!-- node13&#45;&gt;node14 -->
<g id="edge33" class="edge">
<title>node13&#45;&gt;node14</title>
<path fill="none" stroke="black" d="M161,-72.81C161,-64.79 161,-55.05 161,-46.07"/>
<polygon fill="black" stroke="black" points="164.5,-46.03 161,-36.03 157.5,-46.03 164.5,-46.03"/>
<text text-anchor="middle" x="169.45" y="-50.45" font-family="Times,serif" font-size="14.00">*0</text>
</g>
<!-- node14&#45;&gt;node0 -->
<g id="edge32" class="edge">
<title>node14&#45;&gt;node0</title>
<path fill="none" stroke="fuchsia" stroke-width="2" d="M106.57,-36.16C66.09,-52.04 18,-80.38 18,-127 18,-420 18,-420 18,-420 18,-513.47 32.19,-541.55 83,-620 92.09,-634.03 106.01,-644.57 120.55,-652.43"/>
<polygon fill="fuchsia" stroke="fuchsia" stroke-width="2" points="119.14,-655.64 129.65,-656.99 122.28,-649.38 119.14,-655.64"/>
</g>
<!-- c0 -->
<!-- c1 -->
<!-- c0&#45;&gt;c1 -->
<g id="edge36" class="edge">
<title>c0&#45;&gt;c1</title>
<path fill="none" stroke="red" d="M1132.89,-675C1144.11,-675 1202.24,-675 1227.86,-675"/>
<polygon fill="red" stroke="red" points="1228.06,-678.5 1238.06,-675 1228.06,-671.5 1228.06,-678.5"/>
<text text-anchor="middle" x="1185.5" y="-681.8" font-family="Times,serif" font-size="14.00">Control flow</text>
</g>
<!-- c2 -->
<!-- c3 -->
<!-- c2&#45;&gt;c3 -->
<g id="edge37" class="edge">
<title>c2&#45;&gt;c3</title>
<path fill="none" stroke="red" stroke-dasharray="5,2" d="M926.08,-675C943.05,-675 1059.21,-675 1097.08,-675"/>
<polygon fill="red" stroke="red" points="1097.17,-678.5 1107.17,-675 1097.17,-671.5 1097.17,-678.5"/>
<text text-anchor="middle" x="1016.5" y="-681.8" font-family="Times,serif" font-size="14.00">Control flow back edge</text>
</g>
<!-- d0 -->
<!-- d1 -->
<!-- d0&#45;&gt;d1 -->
<g id="edge38" class="edge">
<title>d0&#45;&gt;d1</title>
<path fill="none" stroke="black" d="M814.86,-675C824.41,-675 868.31,-675 889.92,-675"/>
<polygon fill="black" stroke="black" points="890.15,-678.5 900.15,-675 890.15,-671.5 890.15,-678.5"/>
<text text-anchor="middle" x="857.5" y="-681.8" font-family="Times,serif" font-size="14.00">Data flow</text>
</g>
<!-- d2 -->
<!-- d3 -->
<!-- d2&#45;&gt;d3 -->
<g id="edge39" class="edge">
<title>d2&#45;&gt;d3</title>
<path fill="none" stroke="black" stroke-dasharray="1,5" d="M688.81,-675C699.46,-675 754.46,-675 779.08,-675"/>
<polygon fill="black" stroke="black" points="779.15,-678.5 789.15,-675 779.15,-671.5 779.15,-678.5"/>
<text text-anchor="middle" x="739" y="-681.8" font-family="Times,serif" font-size="14.00">Declaration</text>
</g>
<!-- d4 -->
<!-- d5 -->
<!-- d4&#45;&gt;d5 -->
<g id="edge40" class="edge">
<title>d4&#45;&gt;d5</title>
<path fill="none" stroke="blue" d="M546.1,-675C558.72,-675 624.88,-675 652.68,-675"/>
<polygon fill="blue" stroke="blue" points="652.84,-678.5 662.84,-675 652.84,-671.5 652.84,-678.5"/>
<text text-anchor="middle" x="604.5" y="-681.8" font-family="Times,serif" font-size="14.00">PHI Data flow</text>
</g>
<!-- d6 -->
<!-- d7 -->
<!-- d6&#45;&gt;d7 -->
<g id="edge41" class="edge">
<title>d6&#45;&gt;d7</title>
<path fill="none" stroke="green" d="M409,-675C420.94,-675 483.3,-675 509.93,-675"/>
<polygon fill="green" stroke="green" points="509.95,-678.5 519.95,-675 509.95,-671.5 509.95,-678.5"/>
<text text-anchor="middle" x="464.5" y="-681.8" font-family="Times,serif" font-size="14.00">Memory flow</text>
</g>
<!-- d8 -->
<!-- d9 -->
<!-- d8&#45;&gt;d9 -->
<g id="edge42" class="edge">
<title>d8&#45;&gt;d9</title>
<path fill="none" stroke="fuchsia" d="M286.11,-675C297.15,-675 348.67,-675 372.66,-675"/>
<polygon fill="fuchsia" stroke="fuchsia" points="372.9,-678.5 382.9,-675 372.9,-671.5 372.9,-678.5"/>
<text text-anchor="middle" x="334.5" y="-681.8" font-family="Times,serif" font-size="14.00">Dominance</text>
</g>
</g>
</svg>
