<?xml version="1.0" encoding="UTF-8" standalone="no"?>
<!DOCTYPE svg PUBLIC "-//W3C//DTD SVG 1.1//EN"
 "http://www.w3.org/Graphics/SVG/1.1/DTD/svg11.dtd">
<!-- Generated by graphviz version 2.43.0 (0)
 -->
<!-- Title: debugoutput Pages: 1 -->
<svg width="1366pt" height="724pt"
 viewBox="0.00 0.00 1366.15 723.80" xmlns="http://www.w3.org/2000/svg" xmlns:xlink="http://www.w3.org/1999/xlink">
<g id="graph0" class="graph" transform="scale(1 1) rotate(0) translate(4 719.8)">
<title>debugoutput</title>
<polygon fill="white" stroke="transparent" points="-4,4 -4,-719.8 1362.15,-719.8 1362.15,4 -4,4"/>
<g id="clust1" class="cluster">
<title>cluster_000</title>
<polygon fill="none" stroke="black" points="374.15,-665.2 374.15,-707.8 1350.15,-707.8 1350.15,-665.2 374.15,-665.2"/>
<text text-anchor="middle" x="862.15" y="-692.6" font-family="Times,serif" font-size="14.00">Legend</text>
</g>
<!-- node0 -->
<g id="node1" class="node">
<title>node0</title>
<polygon fill="lightgrey" stroke="black" points="364.15,-693 198.15,-693 198.15,-657 364.15,-657 364.15,-693"/>
<text text-anchor="middle" x="281.15" y="-671.3" font-family="Times,serif" font-size="14.00">#0 Method Order : 0</text>
</g>
<!-- node1 -->
<g id="node2" class="node">
<title>node1</title>
<polygon fill="lightgrey" stroke="black" points="570.65,-620 393.65,-620 393.65,-584 570.65,-584 570.65,-620"/>
<text text-anchor="middle" x="482.15" y="-598.3" font-family="Times,serif" font-size="14.00">#1 arg0 : int Order : 3</text>
</g>
<!-- node0&#45;&gt;node1 -->
<g id="edge2" class="edge">
<title>node0&#45;&gt;node1</title>
<path fill="none" stroke="black" d="M323.44,-656.99C350.88,-646.92 387.07,-634.1 418,-623.48"/>
<polygon fill="black" stroke="black" points="419.51,-626.66 427.84,-620.11 417.24,-620.04 419.51,-626.66"/>
<text text-anchor="middle" x="413.42" y="-630.28" font-family="Times,serif" font-size="14.00">*0</text>
</g>
<!-- node2 -->
<g id="node3" class="node">
<title>node2</title>
<polygon fill="lightgrey" stroke="black" points="375.15,-620 187.15,-620 187.15,-584 375.15,-584 375.15,-620"/>
<text text-anchor="middle" x="281.15" y="-598.3" font-family="Times,serif" font-size="14.00">#2 LabelNode Order : 1</text>
</g>
<!-- node0&#45;&gt;node2 -->
<g id="edge4" class="edge">
<title>node0&#45;&gt;node2</title>
<path fill="none" stroke="red" d="M275.28,-656.81C274.44,-648.79 274.2,-639.05 274.58,-630.07"/>
<polygon fill="red" stroke="red" points="278.07,-630.25 275.29,-620.03 271.09,-629.75 278.07,-630.25"/>
</g>
<!-- node5 -->
<g id="node6" class="node">
<title>node5</title>
<polygon fill="lightgrey" stroke="black" points="281.15,-401 159.15,-401 159.15,-365 281.15,-365 281.15,-401"/>
<text text-anchor="middle" x="220.15" y="-379.3" font-family="Times,serif" font-size="14.00">#5 If Order : 5</text>
</g>
<!-- node0&#45;&gt;node5 -->
<g id="edge13" class="edge">
<title>node0&#45;&gt;node5</title>
<path fill="none" stroke="green" d="M225.9,-656.9C211.72,-651.51 196.7,-645.31 183.15,-639 85.67,-593.58 46.62,-573.64 6.15,-474 0.13,-459.18 -3.61,-450.67 6.15,-438 23.37,-415.67 93.4,-400.72 148.8,-392.33"/>
<polygon fill="green" stroke="green" points="149.57,-395.75 158.96,-390.83 148.56,-388.82 149.57,-395.75"/>
</g>
<!-- node1&#45;&gt;node0 -->
<g id="edge1" class="edge">
<title>node1&#45;&gt;node0</title>
<path fill="none" stroke="fuchsia" stroke-width="2" d="M439.58,-620.11C412.08,-630.2 375.87,-643.03 344.98,-653.63"/>
<polygon fill="fuchsia" stroke="fuchsia" stroke-width="2" points="343.49,-650.45 335.16,-656.99 345.75,-657.07 343.49,-650.45"/>
</g>
<!-- node4 -->
<g id="node5" class="node">
<title>node4</title>
<polygon fill="orange" stroke="black" points="415.8,-448.54 415.8,-463.46 301.19,-474 139.12,-474 24.51,-463.46 24.51,-448.54 139.12,-438 301.19,-438 415.8,-448.54"/>
<text text-anchor="middle" x="220.15" y="-452.3" font-family="Times,serif" font-size="14.00">#4 NumericCondition : NE Order : 4</text>
</g>
<!-- node1&#45;&gt;node4 -->
<g id="edge8" class="edge">
<title>node1&#45;&gt;node4</title>
<path fill="none" stroke="black" d="M472.16,-583.73C468.18,-577.52 463.32,-570.66 458.15,-565 432.36,-536.76 424.86,-529.07 391.15,-511 364.4,-496.66 333.22,-485.41 304.87,-476.97"/>
<polygon fill="black" stroke="black" points="305.55,-473.53 294.97,-474.11 303.6,-480.25 305.55,-473.53"/>
<text text-anchor="middle" x="314.73" y="-467.33" font-family="Times,serif" font-size="14.00">*0</text>
</g>
<!-- node2&#45;&gt;node0 -->
<g id="edge3" class="edge">
<title>node2&#45;&gt;node0</title>
<path fill="none" stroke="fuchsia" stroke-width="2" d="M287.02,-620.03C287.86,-628.03 288.1,-637.77 287.74,-646.75"/>
<polygon fill="fuchsia" stroke="fuchsia" stroke-width="2" points="284.24,-646.59 287.03,-656.81 291.23,-647.08 284.24,-646.59"/>
</g>
<!-- node3 -->
<g id="node4" class="node">
<title>node3</title>
<polygon fill="lightgreen" stroke="black" points="382.26,-521.54 382.26,-536.46 323.03,-547 239.27,-547 180.05,-536.46 180.05,-521.54 239.27,-511 323.03,-511 382.26,-521.54"/>
<text text-anchor="middle" x="281.15" y="-525.3" font-family="Times,serif" font-size="14.00">#3 int 0 Order : 2</text>
</g>
<!-- node2&#45;&gt;node3 -->
<g id="edge6" class="edge">
<title>node2&#45;&gt;node3</title>
<path fill="none" stroke="black" stroke-dasharray="1,5" d="M275.28,-583.81C274.44,-575.79 274.2,-566.05 274.58,-557.07"/>
<polygon fill="black" stroke="black" points="278.07,-557.25 275.29,-547.03 271.09,-556.75 278.07,-557.25"/>
</g>
<!-- node2&#45;&gt;node5 -->
<g id="edge12" class="edge">
<title>node2&#45;&gt;node5</title>
<path fill="none" stroke="red" d="M333.38,-583.94C353.39,-575.36 375.22,-563.26 391.15,-547 426.67,-510.75 456.13,-478.19 425.15,-438 408.66,-416.6 343.68,-401.99 291.24,-393.42"/>
<polygon fill="red" stroke="red" points="291.7,-389.95 281.28,-391.83 290.6,-396.86 291.7,-389.95"/>
</g>
<!-- node3&#45;&gt;node2 -->
<g id="edge5" class="edge">
<title>node3&#45;&gt;node2</title>
<path fill="none" stroke="fuchsia" stroke-width="2" d="M287.02,-547.03C287.86,-555.03 288.1,-564.77 287.74,-573.75"/>
<polygon fill="fuchsia" stroke="fuchsia" stroke-width="2" points="284.24,-573.59 287.03,-583.81 291.23,-574.08 284.24,-573.59"/>
</g>
<!-- node3&#45;&gt;node4 -->
<g id="edge9" class="edge">
<title>node3&#45;&gt;node4</title>
<path fill="none" stroke="black" d="M266.39,-510.81C258.9,-502.09 249.66,-491.34 241.41,-481.75"/>
<polygon fill="black" stroke="black" points="243.96,-479.33 234.78,-474.03 238.65,-483.89 243.96,-479.33"/>
<text text-anchor="middle" x="253.01" y="-478.57" font-family="Times,serif" font-size="14.00">*1</text>
</g>
<!-- node4&#45;&gt;node0 -->
<g id="edge7" class="edge">
<title>node4&#45;&gt;node0</title>
<path fill="none" stroke="fuchsia" stroke-width="2" d="M198.51,-474.05C188.11,-483.65 176.72,-496.59 171.15,-511 153.67,-556.29 151.08,-579.71 178.15,-620 187.48,-633.88 201.55,-644.43 216.32,-652.35"/>
<polygon fill="fuchsia" stroke="fuchsia" stroke-width="2" points="215.06,-655.63 225.57,-656.95 218.18,-649.36 215.06,-655.63"/>
</g>
<!-- node4&#45;&gt;node5 -->
<g id="edge11" class="edge">
<title>node4&#45;&gt;node5</title>
<path fill="none" stroke="black" d="M220.15,-437.81C220.15,-429.79 220.15,-420.05 220.15,-411.07"/>
<polygon fill="black" stroke="black" points="223.65,-411.03 220.15,-401.03 216.65,-411.03 223.65,-411.03"/>
<text text-anchor="middle" x="228.61" y="-415.45" font-family="Times,serif" font-size="14.00">*0</text>
</g>
<!-- node5&#45;&gt;node0 -->
<g id="edge10" class="edge">
<title>node5&#45;&gt;node0</title>
<path fill="none" stroke="fuchsia" stroke-width="2" d="M158.91,-392.99C107.82,-401.5 40.92,-416.25 24.15,-438 14.39,-450.67 18.13,-459.18 24.15,-474 64.62,-573.64 103.67,-593.58 201.15,-639 211.63,-643.88 222.99,-648.7 233.8,-653.12"/>
<polygon fill="fuchsia" stroke="fuchsia" stroke-width="2" points="232.53,-656.38 243.11,-656.9 235.16,-649.9 232.53,-656.38"/>
</g>
<!-- node6 -->
<g id="node7" class="node">
<title>node6</title>
<polygon fill="lightgrey" stroke="black" points="516.65,-328 371.65,-328 371.65,-292 516.65,-292 516.65,-328"/>
<text text-anchor="middle" x="444.15" y="-306.3" font-family="Times,serif" font-size="14.00">#6 false Order : 9</text>
</g>
<!-- node5&#45;&gt;node6 -->
<g id="edge15" class="edge">
<title>node5&#45;&gt;node6</title>
<path fill="none" stroke="red" d="M267.95,-364.99C299.05,-354.79 340.05,-341.77 374.7,-331.07"/>
<polygon fill="red" stroke="red" points="375.76,-334.4 384.29,-328.11 373.7,-327.71 375.76,-334.4"/>
</g>
<!-- node7 -->
<g id="node8" class="node">
<title>node7</title>
<polygon fill="lightgrey" stroke="black" points="290.65,-328 149.65,-328 149.65,-292 290.65,-292 290.65,-328"/>
<text text-anchor="middle" x="220.15" y="-306.3" font-family="Times,serif" font-size="14.00">#7 true Order : 6</text>
</g>
<!-- node5&#45;&gt;node7 -->
<g id="edge17" class="edge">
<title>node5&#45;&gt;node7</title>
<path fill="none" stroke="red" d="M214.28,-364.81C213.44,-356.79 213.2,-347.05 213.58,-338.07"/>
<polygon fill="red" stroke="red" points="217.07,-338.25 214.29,-328.03 210.09,-337.75 217.07,-338.25"/>
</g>
<!-- node14 -->
<g id="node15" class="node">
<title>node14</title>
<polygon fill="lightgrey" stroke="black" points="455.65,-36 204.65,-36 204.65,0 455.65,0 455.65,-36"/>
<text text-anchor="middle" x="330.15" y="-14.3" font-family="Times,serif" font-size="14.00">#14 ReturnValue : int Order : 14</text>
</g>
<!-- node5&#45;&gt;node14 -->
<g id="edge36" class="edge">
<title>node5&#45;&gt;node14</title>
<path fill="none" stroke="green" d="M158.91,-376.35C128.21,-369.98 94.66,-356.5 80.15,-328 43.41,-255.8 29.58,-216.12 70.15,-146 103.29,-88.74 171.63,-56.52 229.98,-38.87"/>
<polygon fill="green" stroke="green" points="231.01,-42.22 239.63,-36.06 229.05,-35.5 231.01,-42.22"/>
</g>
<!-- node6&#45;&gt;node5 -->
<g id="edge14" class="edge">
<title>node6&#45;&gt;node5</title>
<path fill="none" stroke="fuchsia" stroke-width="2" d="M396.03,-328.11C364.87,-338.33 323.85,-351.36 289.25,-362.05"/>
<polygon fill="fuchsia" stroke="fuchsia" stroke-width="2" points="288.2,-358.71 279.67,-364.99 290.25,-365.4 288.2,-358.71"/>
</g>
<!-- node8 -->
<g id="node9" class="node">
<title>node8</title>
<polygon fill="lightgrey" stroke="black" points="724.15,-255 570.15,-255 570.15,-219 724.15,-219 724.15,-255"/>
<text text-anchor="middle" x="647.15" y="-233.3" font-family="Times,serif" font-size="14.00">#8 Goto Order : 11</text>
</g>
<!-- node6&#45;&gt;node8 -->
<g id="edge19" class="edge">
<title>node6&#45;&gt;node8</title>
<path fill="none" stroke="red" d="M486.92,-291.99C514.76,-281.88 551.51,-268.99 582.83,-258.34"/>
<polygon fill="red" stroke="red" points="584.01,-261.64 592.35,-255.11 581.76,-255.01 584.01,-261.64"/>
</g>
<!-- node9 -->
<g id="node10" class="node">
<title>node9</title>
<polygon fill="lightgreen" stroke="black" points="551.92,-229.54 551.92,-244.46 488.79,-255 399.52,-255 336.39,-244.46 336.39,-229.54 399.52,-219 488.79,-219 551.92,-229.54"/>
<text text-anchor="middle" x="444.15" y="-233.3" font-family="Times,serif" font-size="14.00">#9 int 1 Order : 10</text>
</g>
<!-- node6&#45;&gt;node9 -->
<g id="edge21" class="edge">
<title>node6&#45;&gt;node9</title>
<path fill="none" stroke="black" stroke-dasharray="1,5" d="M438.28,-291.81C437.44,-283.79 437.2,-274.05 437.58,-265.07"/>
<polygon fill="black" stroke="black" points="441.07,-265.25 438.29,-255.03 434.09,-264.75 441.07,-265.25"/>
</g>
<!-- node7&#45;&gt;node5 -->
<g id="edge16" class="edge">
<title>node7&#45;&gt;node5</title>
<path fill="none" stroke="fuchsia" stroke-width="2" d="M226.02,-328.03C226.86,-336.03 227.1,-345.77 226.74,-354.75"/>
<polygon fill="fuchsia" stroke="fuchsia" stroke-width="2" points="223.24,-354.59 226.03,-364.81 230.23,-355.08 223.24,-354.59"/>
</g>
<!-- node10 -->
<g id="node11" class="node">
<title>node10</title>
<polygon fill="lightgrey" stroke="black" points="318.65,-255 121.65,-255 121.65,-219 318.65,-219 318.65,-255"/>
<text text-anchor="middle" x="220.15" y="-233.3" font-family="Times,serif" font-size="14.00">#10 LabelNode Order : 7</text>
</g>
<!-- node7&#45;&gt;node10 -->
<g id="edge23" class="edge">
<title>node7&#45;&gt;node10</title>
<path fill="none" stroke="red" d="M214.28,-291.81C213.44,-283.79 213.2,-274.05 213.58,-265.07"/>
<polygon fill="red" stroke="red" points="217.07,-265.25 214.29,-255.03 210.09,-264.75 217.07,-265.25"/>
</g>
<!-- node8&#45;&gt;node6 -->
<g id="edge18" class="edge">
<title>node8&#45;&gt;node6</title>
<path fill="none" stroke="fuchsia" stroke-width="2" d="M604.09,-255.11C576.19,-265.25 539.43,-278.14 508.15,-288.77"/>
<polygon fill="fuchsia" stroke="fuchsia" stroke-width="2" points="506.99,-285.47 498.64,-291.99 509.23,-292.1 506.99,-285.47"/>
</g>
<!-- node11 -->
<g id="node12" class="node">
<title>node11</title>
<polygon fill="lightgrey" stroke="black" points="637.65,-182 392.65,-182 392.65,-146 637.65,-146 637.65,-182"/>
<text text-anchor="middle" x="515.15" y="-160.3" font-family="Times,serif" font-size="14.00">#11 Merge : Merge9 Order : 12</text>
</g>
<!-- node8&#45;&gt;node11 -->
<g id="edge25" class="edge">
<title>node8&#45;&gt;node11</title>
<path fill="none" stroke="red" d="M615.54,-218.99C597.63,-209.36 575.03,-197.21 555.82,-186.87"/>
<polygon fill="red" stroke="red" points="557.44,-183.77 546.97,-182.11 554.12,-189.93 557.44,-183.77"/>
</g>
<!-- node9&#45;&gt;node6 -->
<g id="edge20" class="edge">
<title>node9&#45;&gt;node6</title>
<path fill="none" stroke="fuchsia" stroke-width="2" d="M450.02,-255.03C450.86,-263.03 451.1,-272.77 450.74,-281.75"/>
<polygon fill="fuchsia" stroke="fuchsia" stroke-width="2" points="447.24,-281.59 450.03,-291.81 454.23,-282.08 447.24,-281.59"/>
</g>
<!-- node13 -->
<g id="node14" class="node">
<title>node13</title>
<polygon fill="lightgreen" stroke="black" points="445.4,-83.54 445.4,-98.46 377.89,-109 282.42,-109 214.91,-98.46 214.91,-83.54 282.42,-73 377.89,-73 445.4,-83.54"/>
<text text-anchor="middle" x="330.15" y="-87.3" font-family="Times,serif" font-size="14.00">#13 Φ int Order : 13</text>
</g>
<!-- node9&#45;&gt;node13 -->
<g id="edge31" class="edge">
<title>node9&#45;&gt;node13</title>
<path fill="none" stroke="blue" d="M367.05,-224.33C282.31,-211.14 157.15,-190.4 150.15,-182 117.69,-143.03 179.93,-119.32 239.9,-106.09"/>
<polygon fill="blue" stroke="blue" points="240.82,-109.47 249.88,-103.98 239.37,-102.62 240.82,-109.47"/>
<text text-anchor="middle" x="233.89" y="-112.3" font-family="Times,serif" font-size="14.00">if #8</text>
</g>
<!-- node10&#45;&gt;node7 -->
<g id="edge22" class="edge">
<title>node10&#45;&gt;node7</title>
<path fill="none" stroke="fuchsia" stroke-width="2" d="M226.02,-255.03C226.86,-263.03 227.1,-272.77 226.74,-281.75"/>
<polygon fill="fuchsia" stroke="fuchsia" stroke-width="2" points="223.24,-281.59 226.03,-291.81 230.23,-282.08 223.24,-281.59"/>
</g>
<!-- node10&#45;&gt;node11 -->
<g id="edge26" class="edge">
<title>node10&#45;&gt;node11</title>
<path fill="none" stroke="red" d="M290.81,-218.99C334,-208.6 389.37,-195.27 434.3,-184.46"/>
<polygon fill="red" stroke="red" points="435.4,-187.79 444.3,-182.05 433.76,-180.99 435.4,-187.79"/>
</g>
<!-- node12 -->
<g id="node13" class="node">
<title>node12</title>
<polygon fill="lightgreen" stroke="black" points="374.92,-156.54 374.92,-171.46 311.79,-182 222.52,-182 159.39,-171.46 159.39,-156.54 222.52,-146 311.79,-146 374.92,-156.54"/>
<text text-anchor="middle" x="267.15" y="-160.3" font-family="Times,serif" font-size="14.00">#12 int 0 Order : 8</text>
</g>
<!-- node10&#45;&gt;node12 -->
<g id="edge28" class="edge">
<title>node10&#45;&gt;node12</title>
<path fill="none" stroke="black" stroke-dasharray="1,5" d="M225.65,-218.81C230.42,-210.27 237.16,-199.77 243.89,-190.32"/>
<polygon fill="black" stroke="black" points="246.89,-192.15 250.02,-182.03 241.26,-187.99 246.89,-192.15"/>
</g>
<!-- node11&#45;&gt;node5 -->
<g id="edge24" class="edge">
<title>node11&#45;&gt;node5</title>
<path fill="none" stroke="fuchsia" stroke-width="2" d="M637.72,-176.26C703.41,-187.57 764.91,-210.13 733.15,-255 682.39,-326.73 420.35,-362.22 291.65,-375.55"/>
<polygon fill="fuchsia" stroke="fuchsia" stroke-width="2" points="291.09,-372.09 281.49,-376.58 291.8,-379.05 291.09,-372.09"/>
</g>
<!-- node11&#45;&gt;node13 -->
<g id="edge30" class="edge">
<title>node11&#45;&gt;node13</title>
<path fill="none" stroke="black" stroke-dasharray="1,5" d="M470.84,-145.99C444.83,-136.01 411.77,-123.32 384.24,-112.76"/>
<polygon fill="black" stroke="black" points="385.34,-109.43 374.75,-109.11 382.83,-115.96 385.34,-109.43"/>
</g>
<!-- node11&#45;&gt;node14 -->
<g id="edge35" class="edge">
<title>node11&#45;&gt;node14</title>
<path fill="none" stroke="red" d="M507.31,-145.94C497.42,-126.07 478.7,-93.38 454.15,-73 437.31,-59.02 416.29,-48.05 396.37,-39.77"/>
<polygon fill="red" stroke="red" points="397.59,-36.49 387,-36.03 394.99,-42.99 397.59,-36.49"/>
</g>
<!-- node12&#45;&gt;node10 -->
<g id="edge27" class="edge">
<title>node12&#45;&gt;node10</title>
<path fill="none" stroke="fuchsia" stroke-width="2" d="M261.74,-182.03C257,-190.55 250.27,-201.04 243.54,-210.5"/>
<polygon fill="fuchsia" stroke="fuchsia" stroke-width="2" points="240.53,-208.69 237.41,-218.81 246.16,-212.84 240.53,-208.69"/>
</g>
<!-- node12&#45;&gt;node13 -->
<g id="edge32" class="edge">
<title>node12&#45;&gt;node13</title>
<path fill="none" stroke="blue" d="M344.85,-151.47C357.96,-149.59 371.44,-147.71 384.15,-146 416.55,-141.65 508.5,-152.49 530.15,-128 543.79,-112.58 503.43,-103.73 455.46,-98.68"/>
<polygon fill="blue" stroke="blue" points="455.75,-95.19 445.46,-97.69 455.06,-102.16 455.75,-95.19"/>
<text text-anchor="middle" x="464.33" y="-87.36" font-family="Times,serif" font-size="14.00">if #10</text>
</g>
<!-- node13&#45;&gt;node5 -->
<g id="edge29" class="edge">
<title>node13&#45;&gt;node5</title>
<path fill="none" stroke="fuchsia" stroke-width="2" d="M239.2,-102.28C172.37,-112.45 93.15,-131.22 93.15,-163 93.15,-311 93.15,-311 93.15,-311 93.15,-340.73 120,-358.13 149,-368.25"/>
<polygon fill="fuchsia" stroke="fuchsia" stroke-width="2" points="148.3,-371.7 158.89,-371.42 150.43,-365.04 148.3,-371.7"/>
</g>
<!-- node13&#45;&gt;node14 -->
<g id="edge34" class="edge">
<title>node13&#45;&gt;node14</title>
<path fill="none" stroke="black" d="M330.15,-72.81C330.15,-64.79 330.15,-55.05 330.15,-46.07"/>
<polygon fill="black" stroke="black" points="333.65,-46.03 330.15,-36.03 326.65,-46.03 333.65,-46.03"/>
<text text-anchor="middle" x="338.61" y="-50.45" font-family="Times,serif" font-size="14.00">*0</text>
</g>
<!-- node14&#45;&gt;node5 -->
<g id="edge33" class="edge">
<title>node14&#45;&gt;node5</title>
<path fill="none" stroke="fuchsia" stroke-width="2" d="M254.49,-36.06C197.35,-53.01 123.13,-85.55 88.15,-146 47.58,-216.12 61.41,-255.8 98.15,-328 108.46,-348.25 128.38,-360.91 149.21,-368.83"/>
<polygon fill="fuchsia" stroke="fuchsia" stroke-width="2" points="148.22,-372.2 158.82,-372.15 150.5,-365.58 148.22,-372.2"/>
</g>
<!-- c0 -->
<!-- c1 -->
<!-- c0&#45;&gt;c1 -->
<g id="edge37" class="edge">
<title>c0&#45;&gt;c1</title>
<path fill="none" stroke="red" d="M1233.05,-675C1244.26,-675 1302.4,-675 1328.01,-675"/>
<polygon fill="red" stroke="red" points="1328.21,-678.5 1338.21,-675 1328.21,-671.5 1328.21,-678.5"/>
<text text-anchor="middle" x="1285.65" y="-681.8" font-family="Times,serif" font-size="14.00">Control flow</text>
</g>
<!-- c2 -->
<!-- c3 -->
<!-- c2&#45;&gt;c3 -->
<g id="edge38" class="edge">
<title>c2&#45;&gt;c3</title>
<path fill="none" stroke="red" stroke-dasharray="5,2" d="M1026.23,-675C1043.2,-675 1159.36,-675 1197.24,-675"/>
<polygon fill="red" stroke="red" points="1197.32,-678.5 1207.32,-675 1197.32,-671.5 1197.32,-678.5"/>
<text text-anchor="middle" x="1116.65" y="-681.8" font-family="Times,serif" font-size="14.00">Control flow back edge</text>
</g>
<!-- d0 -->
<!-- d1 -->
<!-- d0&#45;&gt;d1 -->
<g id="edge39" class="edge">
<title>d0&#45;&gt;d1</title>
<path fill="none" stroke="black" d="M915.01,-675C924.56,-675 968.46,-675 990.07,-675"/>
<polygon fill="black" stroke="black" points="990.31,-678.5 1000.31,-675 990.31,-671.5 990.31,-678.5"/>
<text text-anchor="middle" x="957.65" y="-681.8" font-family="Times,serif" font-size="14.00">Data flow</text>
</g>
<!-- d2 -->
<!-- d3 -->
<!-- d2&#45;&gt;d3 -->
<g id="edge40" class="edge">
<title>d2&#45;&gt;d3</title>
<path fill="none" stroke="black" stroke-dasharray="1,5" d="M788.96,-675C799.61,-675 854.62,-675 879.23,-675"/>
<polygon fill="black" stroke="black" points="879.3,-678.5 889.3,-675 879.3,-671.5 879.3,-678.5"/>
<text text-anchor="middle" x="839.15" y="-681.8" font-family="Times,serif" font-size="14.00">Declaration</text>
</g>
<!-- d4 -->
<!-- d5 -->
<!-- d4&#45;&gt;d5 -->
<g id="edge41" class="edge">
<title>d4&#45;&gt;d5</title>
<path fill="none" stroke="blue" d="M646.25,-675C658.88,-675 725.04,-675 752.83,-675"/>
<polygon fill="blue" stroke="blue" points="753,-678.5 763,-675 753,-671.5 753,-678.5"/>
<text text-anchor="middle" x="704.65" y="-681.8" font-family="Times,serif" font-size="14.00">PHI Data flow</text>
</g>
<!-- d6 -->
<!-- d7 -->
<!-- d6&#45;&gt;d7 -->
<g id="edge42" class="edge">
<title>d6&#45;&gt;d7</title>
<path fill="none" stroke="green" d="M509.15,-675C521.09,-675 583.45,-675 610.08,-675"/>
<polygon fill="green" stroke="green" points="610.1,-678.5 620.1,-675 610.1,-671.5 610.1,-678.5"/>
<text text-anchor="middle" x="564.65" y="-681.8" font-family="Times,serif" font-size="14.00">Memory flow</text>
</g>
<!-- d8 -->
<!-- d9 -->
<!-- d8&#45;&gt;d9 -->
<g id="edge43" class="edge">
<title>d8&#45;&gt;d9</title>
<path fill="none" stroke="fuchsia" d="M386.26,-675C397.3,-675 448.82,-675 472.81,-675"/>
<polygon fill="fuchsia" stroke="fuchsia" points="473.06,-678.5 483.06,-675 473.06,-671.5 473.06,-678.5"/>
<text text-anchor="middle" x="434.65" y="-681.8" font-family="Times,serif" font-size="14.00">Dominance</text>
</g>
</g>
</svg>
