<?xml version="1.0" encoding="UTF-8" standalone="no"?>
<!DOCTYPE svg PUBLIC "-//W3C//DTD SVG 1.1//EN"
 "http://www.w3.org/Graphics/SVG/1.1/DTD/svg11.dtd">
<!-- Generated by graphviz version 2.43.0 (0)
 -->
<!-- Title: debugoutput Pages: 1 -->
<svg width="1435pt" height="651pt"
 viewBox="0.00 0.00 1434.50 650.80" xmlns="http://www.w3.org/2000/svg" xmlns:xlink="http://www.w3.org/1999/xlink">
<g id="graph0" class="graph" transform="scale(1 1) rotate(0) translate(4 646.8)">
<title>debugoutput</title>
<polygon fill="white" stroke="transparent" points="-4,4 -4,-646.8 1430.5,-646.8 1430.5,4 -4,4"/>
<g id="clust1" class="cluster">
<title>cluster_000</title>
<polygon fill="none" stroke="black" points="579.5,-592.2 579.5,-634.8 1418.5,-634.8 1418.5,-592.2 579.5,-592.2"/>
<text text-anchor="middle" x="999" y="-619.6" font-family="Times,serif" font-size="14.00">Legend</text>
</g>
<!-- node0 -->
<g id="node1" class="node">
<title>node0</title>
<polygon fill="lightgrey" stroke="black" points="569.5,-620 403.5,-620 403.5,-584 569.5,-584 569.5,-620"/>
<text text-anchor="middle" x="486.5" y="-598.3" font-family="Times,serif" font-size="14.00">#0 Method Order : 0</text>
</g>
<!-- node1 -->
<g id="node2" class="node">
<title>node1</title>
<polygon fill="lightgrey" stroke="black" points="575,-547 398,-547 398,-511 575,-511 575,-547"/>
<text text-anchor="middle" x="486.5" y="-525.3" font-family="Times,serif" font-size="14.00">#1 arg0 : int Order : 4</text>
</g>
<!-- node0&#45;&gt;node1 -->
<g id="edge2" class="edge">
<title>node0&#45;&gt;node1</title>
<path fill="none" stroke="black" d="M480.62,-583.81C479.78,-575.79 479.55,-566.05 479.92,-557.07"/>
<polygon fill="black" stroke="black" points="483.42,-557.25 480.64,-547.03 476.44,-556.75 483.42,-557.25"/>
<text text-anchor="middle" x="487.78" y="-562.01" font-family="Times,serif" font-size="14.00">*0</text>
</g>
<!-- node2 -->
<g id="node3" class="node">
<title>node2</title>
<polygon fill="lightgrey" stroke="black" points="1039.5,-547 851.5,-547 851.5,-511 1039.5,-511 1039.5,-547"/>
<text text-anchor="middle" x="945.5" y="-525.3" font-family="Times,serif" font-size="14.00">#2 LabelNode Order : 3</text>
</g>
<!-- node0&#45;&gt;node2 -->
<g id="edge4" class="edge">
<title>node0&#45;&gt;node2</title>
<path fill="none" stroke="red" d="M566.84,-583.96C682.32,-569.06 714.11,-588.61 828.5,-566 847.07,-562.33 866.86,-556.37 884.83,-550.34"/>
<polygon fill="red" stroke="red" points="886.27,-553.55 894.6,-547 884.01,-546.92 886.27,-553.55"/>
</g>
<!-- node3 -->
<g id="node4" class="node">
<title>node3</title>
<polygon fill="lightgreen" stroke="black" points="379.61,-521.54 379.61,-536.46 320.38,-547 236.62,-547 177.39,-536.46 177.39,-521.54 236.62,-511 320.38,-511 379.61,-521.54"/>
<text text-anchor="middle" x="278.5" y="-525.3" font-family="Times,serif" font-size="14.00">#3 int 1 Order : 2</text>
</g>
<!-- node0&#45;&gt;node3 -->
<g id="edge6" class="edge">
<title>node0&#45;&gt;node3</title>
<path fill="none" stroke="black" stroke-dasharray="1,5" d="M430.82,-583.99C400.03,-573.85 362.03,-560.91 331.65,-550.24"/>
<polygon fill="black" stroke="black" points="332.67,-546.89 322.07,-546.87 330.34,-553.49 332.67,-546.89"/>
</g>
<!-- node4 -->
<g id="node5" class="node">
<title>node4</title>
<polygon fill="lightgreen" stroke="black" points="795.61,-521.54 795.61,-536.46 736.38,-547 652.62,-547 593.39,-536.46 593.39,-521.54 652.62,-511 736.38,-511 795.61,-521.54"/>
<text text-anchor="middle" x="694.5" y="-525.3" font-family="Times,serif" font-size="14.00">#4 int 0 Order : 1</text>
</g>
<!-- node0&#45;&gt;node4 -->
<g id="edge8" class="edge">
<title>node0&#45;&gt;node4</title>
<path fill="none" stroke="black" stroke-dasharray="1,5" d="M530.46,-583.99C560.61,-573.31 600.92,-559.54 634.07,-548.57"/>
<polygon fill="black" stroke="black" points="635.26,-551.87 643.66,-545.41 633.07,-545.22 635.26,-551.87"/>
</g>
<!-- node13 -->
<g id="node14" class="node">
<title>node13</title>
<polygon fill="lightgrey" stroke="black" points="251,-36 0,-36 0,0 251,0 251,-36"/>
<text text-anchor="middle" x="125.5" y="-14.3" font-family="Times,serif" font-size="14.00">#13 ReturnValue : int Order : 13</text>
</g>
<!-- node0&#45;&gt;node13 -->
<g id="edge33" class="edge">
<title>node0&#45;&gt;node13</title>
<path fill="none" stroke="black" d="M403.25,-597.43C341.62,-593.31 256.22,-584.53 183.5,-566 141.75,-555.36 93.5,-573.08 93.5,-530 93.5,-530 93.5,-530 93.5,-90 93.5,-74.57 98.48,-58.13 104.71,-44.96"/>
<polygon fill="black" stroke="black" points="107.86,-46.49 109.41,-36.01 101.66,-43.23 107.86,-46.49"/>
</g>
<!-- node1&#45;&gt;node0 -->
<g id="edge1" class="edge">
<title>node1&#45;&gt;node0</title>
<path fill="none" stroke="green" stroke-width="2" d="M492.36,-547.03C493.21,-555.03 493.45,-564.77 493.09,-573.75"/>
<polygon fill="green" stroke="green" stroke-width="2" points="489.59,-573.59 492.38,-583.81 496.57,-574.08 489.59,-573.59"/>
</g>
<!-- node5 -->
<g id="node6" class="node">
<title>node5</title>
<polygon fill="orange" stroke="black" points="689.14,-448.54 689.14,-463.46 574.54,-474 412.46,-474 297.86,-463.46 297.86,-448.54 412.46,-438 574.54,-438 689.14,-448.54"/>
<text text-anchor="middle" x="493.5" y="-452.3" font-family="Times,serif" font-size="14.00">#5 NumericCondition : NE Order : 5</text>
</g>
<!-- node1&#45;&gt;node5 -->
<g id="edge10" class="edge">
<title>node1&#45;&gt;node5</title>
<path fill="none" stroke="black" d="M488.19,-510.81C488.99,-502.79 489.95,-493.05 490.83,-484.07"/>
<polygon fill="black" stroke="black" points="494.32,-484.32 491.82,-474.03 487.36,-483.64 494.32,-484.32"/>
<text text-anchor="middle" x="498.45" y="-489.2" font-family="Times,serif" font-size="14.00">*0</text>
</g>
<!-- node2&#45;&gt;node0 -->
<g id="edge3" class="edge">
<title>node2&#45;&gt;node0</title>
<path fill="none" stroke="green" stroke-width="2" d="M910.79,-547.1C892.02,-554.15 868.41,-561.67 846.5,-566 732,-588.64 700.25,-569.02 584.5,-584 582.99,-584.2 581.46,-584.4 579.93,-584.61"/>
<polygon fill="green" stroke="green" stroke-width="2" points="579.05,-581.21 569.68,-586.14 580.08,-588.13 579.05,-581.21"/>
</g>
<!-- node6 -->
<g id="node7" class="node">
<title>node6</title>
<polygon fill="lightgrey" stroke="black" points="819.5,-401 697.5,-401 697.5,-365 819.5,-365 819.5,-401"/>
<text text-anchor="middle" x="758.5" y="-379.3" font-family="Times,serif" font-size="14.00">#6 If Order : 6</text>
</g>
<!-- node2&#45;&gt;node6 -->
<g id="edge14" class="edge">
<title>node2&#45;&gt;node6</title>
<path fill="none" stroke="red" d="M932.08,-510.91C913.09,-487.62 876.32,-445.76 837.5,-419 830.23,-413.99 822.13,-409.43 813.96,-405.39"/>
<polygon fill="red" stroke="red" points="815.29,-402.14 804.75,-401.04 812.3,-408.47 815.29,-402.14"/>
</g>
<!-- node3&#45;&gt;node0 -->
<g id="edge5" class="edge">
<title>node3&#45;&gt;node0</title>
<path fill="none" stroke="green" stroke-width="2" d="M329.34,-545.41C360.77,-555.72 400.99,-569.4 432.92,-580.6"/>
<polygon fill="green" stroke="green" stroke-width="2" points="431.94,-583.97 442.54,-583.99 434.27,-577.37 431.94,-583.97"/>
</g>
<!-- node12 -->
<g id="node13" class="node">
<title>node12</title>
<polygon fill="lightgreen" stroke="black" points="623.75,-83.54 623.75,-98.46 556.24,-109 460.76,-109 393.25,-98.46 393.25,-83.54 460.76,-73 556.24,-73 623.75,-83.54"/>
<text text-anchor="middle" x="508.5" y="-87.3" font-family="Times,serif" font-size="14.00">#12 Φ int Order : 12</text>
</g>
<!-- node3&#45;&gt;node12 -->
<g id="edge28" class="edge">
<title>node3&#45;&gt;node12</title>
<path fill="none" stroke="blue" d="M351.23,-516.4C363.65,-514.52 376.44,-512.65 388.5,-511 457.24,-501.59 652.44,-525.88 698.5,-474 720.76,-448.93 687.38,-433.59 679.5,-401 660.33,-321.7 757.97,-279.74 703.5,-219 652.91,-162.58 415.09,-238.42 364.5,-182 335.71,-149.9 386.82,-125.1 435.92,-109.74"/>
<polygon fill="blue" stroke="blue" points="437.13,-113.03 445.69,-106.8 435.11,-106.33 437.13,-113.03"/>
<text text-anchor="middle" x="430.78" y="-116.42" font-family="Times,serif" font-size="14.00">if #10</text>
</g>
<!-- node4&#45;&gt;node0 -->
<g id="edge7" class="edge">
<title>node4&#45;&gt;node0</title>
<path fill="none" stroke="green" stroke-width="2" d="M650.93,-546.87C622.25,-557.03 584.26,-570.03 551.99,-580.75"/>
<polygon fill="green" stroke="green" stroke-width="2" points="550.58,-577.53 542.18,-583.99 552.77,-584.18 550.58,-577.53"/>
</g>
<!-- node4&#45;&gt;node5 -->
<g id="edge11" class="edge">
<title>node4&#45;&gt;node5</title>
<path fill="none" stroke="black" d="M648.39,-511.71C619.63,-501.55 582.36,-488.39 551.59,-477.52"/>
<polygon fill="black" stroke="black" points="552.44,-474.11 541.85,-474.08 550.11,-480.71 552.44,-474.11"/>
<text text-anchor="middle" x="561.76" y="-468.45" font-family="Times,serif" font-size="14.00">*1</text>
</g>
<!-- node4&#45;&gt;node12 -->
<g id="edge29" class="edge">
<title>node4&#45;&gt;node12</title>
<path fill="none" stroke="blue" d="M711.27,-510.95C727.03,-492.75 746.54,-463.14 734.5,-438 723.17,-414.34 699.83,-424.66 688.5,-401 681.59,-386.57 682.8,-379.95 688.5,-365 696.35,-344.41 711.54,-347.66 721.5,-328 747.77,-276.13 788.61,-242.09 748.5,-200 719.95,-170.04 405.05,-211.96 376.5,-182 365.46,-170.42 365.33,-157.45 376.5,-146 404.71,-117.08 1131.22,-156.4 1103.5,-127 1087.63,-110.17 803.64,-99.78 633.83,-95.04"/>
<polygon fill="blue" stroke="blue" points="633.91,-91.54 623.82,-94.76 633.72,-98.54 633.91,-91.54"/>
<text text-anchor="middle" x="642.17" y="-83.11" font-family="Times,serif" font-size="14.00">if #9</text>
</g>
<!-- node5&#45;&gt;node0 -->
<g id="edge9" class="edge">
<title>node5&#45;&gt;node0</title>
<path fill="none" stroke="green" stroke-width="2" d="M321.68,-465.7C254.88,-473 189.35,-486.4 168.5,-511 158.15,-523.21 158.18,-534.78 168.5,-547 196.84,-580.56 309.86,-593.27 393.13,-598.08"/>
<polygon fill="green" stroke="green" stroke-width="2" points="392.96,-601.57 403.13,-598.62 393.34,-594.58 392.96,-601.57"/>
</g>
<!-- node5&#45;&gt;node6 -->
<g id="edge13" class="edge">
<title>node5&#45;&gt;node6</title>
<path fill="none" stroke="black" d="M556.97,-437.99C596.3,-427.46 646.88,-413.91 687.53,-403.02"/>
<polygon fill="black" stroke="black" points="688.61,-406.35 697.37,-400.38 686.8,-399.59 688.61,-406.35"/>
<text text-anchor="middle" x="682.05" y="-409.53" font-family="Times,serif" font-size="14.00">*0</text>
</g>
<!-- node6&#45;&gt;node0 -->
<g id="edge12" class="edge">
<title>node6&#45;&gt;node0</title>
<path fill="none" stroke="green" stroke-width="2" d="M772.55,-401.41C796.92,-433.82 841.1,-504.01 804.5,-547 772.91,-584.1 641.77,-576.13 579.88,-583.55"/>
<polygon fill="green" stroke="green" stroke-width="2" points="579.26,-580.1 569.87,-585 580.26,-587.03 579.26,-580.1"/>
</g>
<!-- node7 -->
<g id="node8" class="node">
<title>node7</title>
<polygon fill="lightgrey" stroke="black" points="672,-328 531,-328 531,-292 672,-292 672,-328"/>
<text text-anchor="middle" x="601.5" y="-306.3" font-family="Times,serif" font-size="14.00">#7 true Order : 9</text>
</g>
<!-- node6&#45;&gt;node7 -->
<g id="edge16" class="edge">
<title>node6&#45;&gt;node7</title>
<path fill="none" stroke="red" d="M715.04,-364.99C692.41,-355.23 664.96,-342.88 642.68,-332.45"/>
<polygon fill="red" stroke="red" points="644.01,-329.21 633.47,-328.11 641.03,-335.54 644.01,-329.21"/>
</g>
<!-- node8 -->
<g id="node9" class="node">
<title>node8</title>
<polygon fill="lightgrey" stroke="black" points="933,-328 788,-328 788,-292 933,-292 933,-328"/>
<text text-anchor="middle" x="860.5" y="-306.3" font-family="Times,serif" font-size="14.00">#8 false Order : 7</text>
</g>
<!-- node6&#45;&gt;node8 -->
<g id="edge18" class="edge">
<title>node6&#45;&gt;node8</title>
<path fill="none" stroke="red" d="M777.31,-364.81C789.74,-355.48 806.33,-343.83 821.47,-333.75"/>
<polygon fill="red" stroke="red" points="823.74,-336.45 830.17,-328.03 819.9,-330.6 823.74,-336.45"/>
</g>
<!-- node7&#45;&gt;node6 -->
<g id="edge15" class="edge">
<title>node7&#45;&gt;node6</title>
<path fill="none" stroke="green" stroke-width="2" d="M645.21,-328.11C667.87,-337.9 695.32,-350.25 717.57,-360.66"/>
<polygon fill="green" stroke="green" stroke-width="2" points="716.22,-363.9 726.75,-364.99 719.2,-357.56 716.22,-363.9"/>
</g>
<!-- node9 -->
<g id="node10" class="node">
<title>node9</title>
<polygon fill="lightgrey" stroke="black" points="694,-255 497,-255 497,-219 694,-219 694,-255"/>
<text text-anchor="middle" x="595.5" y="-233.3" font-family="Times,serif" font-size="14.00">#9 LabelNode Order : 10</text>
</g>
<!-- node7&#45;&gt;node9 -->
<g id="edge20" class="edge">
<title>node7&#45;&gt;node9</title>
<path fill="none" stroke="red" d="M594.17,-291.81C592.65,-283.79 591.6,-274.05 591.21,-265.07"/>
<polygon fill="red" stroke="red" points="594.71,-264.98 591.08,-255.03 587.71,-265.07 594.71,-264.98"/>
</g>
<!-- node8&#45;&gt;node6 -->
<g id="edge17" class="edge">
<title>node8&#45;&gt;node6</title>
<path fill="none" stroke="green" stroke-width="2" d="M841.78,-328.11C829.34,-337.46 812.7,-349.15 797.52,-359.26"/>
<polygon fill="green" stroke="green" stroke-width="2" points="795.23,-356.58 788.79,-364.99 799.07,-362.43 795.23,-356.58"/>
</g>
<!-- node10 -->
<g id="node11" class="node">
<title>node10</title>
<polygon fill="lightgrey" stroke="black" points="942.5,-255 788.5,-255 788.5,-219 942.5,-219 942.5,-255"/>
<text text-anchor="middle" x="865.5" y="-233.3" font-family="Times,serif" font-size="14.00">#10 Goto Order : 8</text>
</g>
<!-- node8&#45;&gt;node10 -->
<g id="edge22" class="edge">
<title>node8&#45;&gt;node10</title>
<path fill="none" stroke="red" d="M855.83,-291.81C855.56,-283.79 856.01,-274.05 857.02,-265.07"/>
<polygon fill="red" stroke="red" points="860.5,-265.42 858.44,-255.03 853.57,-264.44 860.5,-265.42"/>
</g>
<!-- node9&#45;&gt;node7 -->
<g id="edge19" class="edge">
<title>node9&#45;&gt;node7</title>
<path fill="none" stroke="green" stroke-width="2" d="M602.8,-255.03C604.32,-263.03 605.39,-272.77 605.78,-281.75"/>
<polygon fill="green" stroke="green" stroke-width="2" points="602.28,-281.86 605.93,-291.81 609.28,-281.76 602.28,-281.86"/>
</g>
<!-- node11 -->
<g id="node12" class="node">
<title>node11</title>
<polygon fill="lightgrey" stroke="black" points="631,-182 386,-182 386,-146 631,-146 631,-182"/>
<text text-anchor="middle" x="508.5" y="-160.3" font-family="Times,serif" font-size="14.00">#11 Merge : Merge9 Order : 11</text>
</g>
<!-- node9&#45;&gt;node11 -->
<g id="edge25" class="edge">
<title>node9&#45;&gt;node11</title>
<path fill="none" stroke="red" d="M574.44,-218.81C563.33,-209.74 549.52,-198.48 537.42,-188.6"/>
<polygon fill="red" stroke="red" points="539.33,-185.64 529.37,-182.03 534.9,-191.06 539.33,-185.64"/>
</g>
<!-- node10&#45;&gt;node8 -->
<g id="edge21" class="edge">
<title>node10&#45;&gt;node8</title>
<path fill="none" stroke="green" stroke-width="2" d="M870.16,-255.03C870.45,-263.03 870,-272.77 869,-281.75"/>
<polygon fill="green" stroke="green" stroke-width="2" points="865.52,-281.42 867.59,-291.81 872.45,-282.4 865.52,-281.42"/>
</g>
<!-- node10&#45;&gt;node11 -->
<g id="edge24" class="edge">
<title>node10&#45;&gt;node11</title>
<path fill="none" stroke="red" d="M848.19,-218.72C840.13,-211.73 830.01,-204.3 819.5,-200 787.56,-186.94 710.77,-178.23 641.49,-172.76"/>
<polygon fill="red" stroke="red" points="641.57,-169.26 631.33,-171.98 641.03,-176.23 641.57,-169.26"/>
</g>
<!-- node11&#45;&gt;node6 -->
<g id="edge23" class="edge">
<title>node11&#45;&gt;node6</title>
<path fill="none" stroke="green" stroke-width="2" d="M500,-182.03C495.29,-192.42 489.91,-206.15 487.5,-219 478.14,-268.88 482.02,-296.11 521.5,-328 546.71,-348.37 627,-363.74 687.19,-372.77"/>
<polygon fill="green" stroke="green" stroke-width="2" points="687.02,-376.28 697.42,-374.27 688.04,-369.36 687.02,-376.28"/>
</g>
<!-- node11&#45;&gt;node12 -->
<g id="edge27" class="edge">
<title>node11&#45;&gt;node12</title>
<path fill="none" stroke="black" stroke-dasharray="1,5" d="M508.5,-145.81C508.5,-137.79 508.5,-128.05 508.5,-119.07"/>
<polygon fill="black" stroke="black" points="512,-119.03 508.5,-109.03 505,-119.03 512,-119.03"/>
</g>
<!-- node11&#45;&gt;node13 -->
<g id="edge32" class="edge">
<title>node11&#45;&gt;node13</title>
<path fill="none" stroke="red" d="M463.06,-145.92C392.37,-119.34 256.31,-68.18 180.29,-39.6"/>
<polygon fill="red" stroke="red" points="181.47,-36.31 170.88,-36.06 179.01,-42.86 181.47,-36.31"/>
</g>
<!-- node12&#45;&gt;node0 -->
<g id="edge26" class="edge">
<title>node12&#45;&gt;node0</title>
<path fill="none" stroke="green" stroke-width="2" d="M623.99,-95.3C787.67,-101.55 1067.5,-118.7 1067.5,-163 1067.5,-530 1067.5,-530 1067.5,-530 1067.5,-582.58 667.66,-577.67 579.88,-583.83"/>
<polygon fill="green" stroke="green" stroke-width="2" points="579.46,-580.35 569.83,-584.75 580.11,-587.32 579.46,-580.35"/>
</g>
<!-- node12&#45;&gt;node13 -->
<g id="edge31" class="edge">
<title>node12&#45;&gt;node13</title>
<path fill="none" stroke="black" d="M436.46,-76.65C377.51,-65.72 293.42,-50.13 227.55,-37.92"/>
<polygon fill="black" stroke="black" points="228.02,-34.45 217.55,-36.06 226.74,-41.33 228.02,-34.45"/>
<text text-anchor="middle" x="236.91" y="-27.36" font-family="Times,serif" font-size="14.00">*0</text>
</g>
<!-- node13&#45;&gt;node0 -->
<g id="edge30" class="edge">
<title>node13&#45;&gt;node0</title>
<path fill="none" stroke="green" stroke-width="2" d="M123.93,-36.01C119.19,-50.09 111.5,-70.82 111.5,-90 111.5,-530 111.5,-530 111.5,-530 111.5,-573.08 159.75,-555.36 201.5,-566 264.45,-582.04 336.9,-590.77 393.05,-595.5"/>
<polygon fill="green" stroke="green" stroke-width="2" points="393.08,-599.02 403.33,-596.34 393.65,-592.04 393.08,-599.02"/>
</g>
<!-- c0 -->
<!-- c1 -->
<!-- c0&#45;&gt;c1 -->
<g id="edge34" class="edge">
<title>c0&#45;&gt;c1</title>
<path fill="none" stroke="red" d="M1301.39,-602C1312.61,-602 1370.74,-602 1396.36,-602"/>
<polygon fill="red" stroke="red" points="1396.56,-605.5 1406.56,-602 1396.56,-598.5 1396.56,-605.5"/>
<text text-anchor="middle" x="1354" y="-608.8" font-family="Times,serif" font-size="14.00">Control flow</text>
</g>
<!-- c2 -->
<!-- c3 -->
<!-- c2&#45;&gt;c3 -->
<g id="edge35" class="edge">
<title>c2&#45;&gt;c3</title>
<path fill="none" stroke="red" stroke-dasharray="5,2" d="M1094.58,-602C1111.55,-602 1227.71,-602 1265.58,-602"/>
<polygon fill="red" stroke="red" points="1265.67,-605.5 1275.67,-602 1265.67,-598.5 1265.67,-605.5"/>
<text text-anchor="middle" x="1185" y="-608.8" font-family="Times,serif" font-size="14.00">Control flow back edge</text>
</g>
<!-- d0 -->
<!-- d1 -->
<!-- d0&#45;&gt;d1 -->
<g id="edge36" class="edge">
<title>d0&#45;&gt;d1</title>
<path fill="none" stroke="black" d="M983.36,-602C992.91,-602 1036.81,-602 1058.42,-602"/>
<polygon fill="black" stroke="black" points="1058.65,-605.5 1068.65,-602 1058.65,-598.5 1058.65,-605.5"/>
<text text-anchor="middle" x="1026" y="-608.8" font-family="Times,serif" font-size="14.00">Data flow</text>
</g>
<!-- d2 -->
<!-- d3 -->
<!-- d2&#45;&gt;d3 -->
<g id="edge37" class="edge">
<title>d2&#45;&gt;d3</title>
<path fill="none" stroke="black" stroke-dasharray="1,5" d="M857.31,-602C867.96,-602 922.96,-602 947.58,-602"/>
<polygon fill="black" stroke="black" points="947.65,-605.5 957.65,-602 947.65,-598.5 947.65,-605.5"/>
<text text-anchor="middle" x="907.5" y="-608.8" font-family="Times,serif" font-size="14.00">Declaration</text>
</g>
<!-- d4 -->
<!-- d5 -->
<!-- d4&#45;&gt;d5 -->
<g id="edge38" class="edge">
<title>d4&#45;&gt;d5</title>
<path fill="none" stroke="blue" d="M714.6,-602C727.22,-602 793.38,-602 821.18,-602"/>
<polygon fill="blue" stroke="blue" points="821.34,-605.5 831.34,-602 821.34,-598.5 821.34,-605.5"/>
<text text-anchor="middle" x="773" y="-608.8" font-family="Times,serif" font-size="14.00">PHI Data flow</text>
</g>
<!-- d6 -->
<!-- d7 -->
<!-- d6&#45;&gt;d7 -->
<g id="edge39" class="edge">
<title>d6&#45;&gt;d7</title>
<path fill="none" stroke="green" d="M591.61,-602C602.65,-602 654.17,-602 678.16,-602"/>
<polygon fill="green" stroke="green" points="678.4,-605.5 688.4,-602 678.4,-598.5 678.4,-605.5"/>
<text text-anchor="middle" x="640" y="-608.8" font-family="Times,serif" font-size="14.00">Dominance</text>
</g>
</g>
</svg>
