<?xml version="1.0" encoding="UTF-8" standalone="no"?>
<!DOCTYPE svg PUBLIC "-//W3C//DTD SVG 1.1//EN"
 "http://www.w3.org/Graphics/SVG/1.1/DTD/svg11.dtd">
<!-- Generated by graphviz version 2.43.0 (0)
 -->
<!-- Title: debugoutput Pages: 1 -->
<svg width="2308pt" height="213pt"
 viewBox="0.00 0.00 2307.99 212.80" xmlns="http://www.w3.org/2000/svg" xmlns:xlink="http://www.w3.org/1999/xlink">
<g id="graph0" class="graph" transform="scale(1 1) rotate(0) translate(4 208.8)">
<title>debugoutput</title>
<polygon fill="white" stroke="transparent" points="-4,4 -4,-208.8 2303.99,-208.8 2303.99,4 -4,4"/>
<g id="clust1" class="cluster">
<title>cluster_000</title>
<polygon fill="none" stroke="black" points="1230.5,-154.2 1230.5,-196.8 2206.5,-196.8 2206.5,-154.2 1230.5,-154.2"/>
<text text-anchor="middle" x="1718.5" y="-181.6" font-family="Times,serif" font-size="14.00">Legend</text>
</g>
<!-- node0 -->
<g id="node1" class="node">
<title>node0</title>
<polygon fill="lightgrey" stroke="black" points="1220.5,-182 1054.5,-182 1054.5,-146 1220.5,-146 1220.5,-182"/>
<text text-anchor="middle" x="1137.5" y="-160.3" font-family="Times,serif" font-size="14.00">#0 Method Order : 0</text>
</g>
<!-- node1 -->
<g id="node2" class="node">
<title>node1</title>
<polygon fill="lightgrey" stroke="black" points="197,-109 0,-109 0,-73 197,-73 197,-109"/>
<text text-anchor="middle" x="98.5" y="-87.3" font-family="Times,serif" font-size="14.00">#1 arg9 : int[] Order : 12</text>
</g>
<!-- node0&#45;&gt;node1 -->
<g id="edge2" class="edge">
<title>node0&#45;&gt;node1</title>
<path fill="none" stroke="black" d="M1054.45,-161.06C891.93,-156.56 520.7,-143.15 207.4,-110.05"/>
<polygon fill="black" stroke="black" points="207.53,-106.55 197.22,-108.97 206.79,-113.51 207.53,-106.55"/>
<text text-anchor="middle" x="216.14" y="-98.78" font-family="Times,serif" font-size="14.00">*0</text>
</g>
<!-- node2 -->
<g id="node3" class="node">
<title>node2</title>
<polygon fill="lightgrey" stroke="black" points="401.5,-109 215.5,-109 215.5,-73 401.5,-73 401.5,-109"/>
<text text-anchor="middle" x="308.5" y="-87.3" font-family="Times,serif" font-size="14.00">#2 arg2 : int Order : 11</text>
</g>
<!-- node0&#45;&gt;node2 -->
<g id="edge4" class="edge">
<title>node0&#45;&gt;node2</title>
<path fill="none" stroke="black" d="M1054.34,-159.55C919.52,-153.22 645.02,-137.77 411.28,-110.16"/>
<polygon fill="black" stroke="black" points="411.58,-106.68 401.23,-108.97 410.75,-113.63 411.58,-106.68"/>
<text text-anchor="middle" x="420.23" y="-99.02" font-family="Times,serif" font-size="14.00">*0</text>
</g>
<!-- node3 -->
<g id="node4" class="node">
<title>node3</title>
<polygon fill="lightgrey" stroke="black" points="635,-109 420,-109 420,-73 635,-73 635,-109"/>
<text text-anchor="middle" x="527.5" y="-87.3" font-family="Times,serif" font-size="14.00">#3 arg7 : double Order : 10</text>
</g>
<!-- node0&#45;&gt;node3 -->
<g id="edge6" class="edge">
<title>node0&#45;&gt;node3</title>
<path fill="none" stroke="black" d="M1054.12,-155.45C956.44,-145.96 789.73,-128.66 644.88,-110.32"/>
<polygon fill="black" stroke="black" points="645.29,-106.85 634.93,-109.06 644.41,-113.79 645.29,-106.85"/>
<text text-anchor="middle" x="653.98" y="-99.26" font-family="Times,serif" font-size="14.00">*0</text>
</g>
<!-- node4 -->
<g id="node5" class="node">
<title>node4</title>
<polygon fill="lightgrey" stroke="black" points="830,-109 653,-109 653,-73 830,-73 830,-109"/>
<text text-anchor="middle" x="741.5" y="-87.3" font-family="Times,serif" font-size="14.00">#4 arg1 : int Order : 8</text>
</g>
<!-- node0&#45;&gt;node4 -->
<g id="edge8" class="edge">
<title>node0&#45;&gt;node4</title>
<path fill="none" stroke="black" d="M1054.24,-149.06C991.82,-138.13 906.22,-122.81 840.33,-110.8"/>
<polygon fill="black" stroke="black" points="840.81,-107.33 830.34,-108.98 839.55,-114.22 840.81,-107.33"/>
<text text-anchor="middle" x="849.69" y="-100.22" font-family="Times,serif" font-size="14.00">*0</text>
</g>
<!-- node5 -->
<g id="node6" class="node">
<title>node5</title>
<polygon fill="lightgrey" stroke="black" points="1025,-109 848,-109 848,-73 1025,-73 1025,-109"/>
<text text-anchor="middle" x="936.5" y="-87.3" font-family="Times,serif" font-size="14.00">#5 arg4 : int Order : 7</text>
</g>
<!-- node0&#45;&gt;node5 -->
<g id="edge10" class="edge">
<title>node0&#45;&gt;node5</title>
<path fill="none" stroke="black" d="M1083.5,-145.99C1054.05,-135.97 1017.83,-123.21 988.67,-112.62"/>
<polygon fill="black" stroke="black" points="989.67,-109.26 979.08,-109.11 987.27,-115.83 989.67,-109.26"/>
<text text-anchor="middle" x="999" y="-103.69" font-family="Times,serif" font-size="14.00">*0</text>
</g>
<!-- node6 -->
<g id="node7" class="node">
<title>node6</title>
<polygon fill="lightgrey" stroke="black" points="1232,-109 1043,-109 1043,-73 1232,-73 1232,-109"/>
<text text-anchor="middle" x="1137.5" y="-87.3" font-family="Times,serif" font-size="14.00">#6 arg6 : float Order : 6</text>
</g>
<!-- node0&#45;&gt;node6 -->
<g id="edge12" class="edge">
<title>node0&#45;&gt;node6</title>
<path fill="none" stroke="black" d="M1131.62,-145.81C1130.78,-137.79 1130.55,-128.05 1130.92,-119.07"/>
<polygon fill="black" stroke="black" points="1134.42,-119.25 1131.64,-109.03 1127.44,-118.75 1134.42,-119.25"/>
<text text-anchor="middle" x="1138.78" y="-124.01" font-family="Times,serif" font-size="14.00">*0</text>
</g>
<!-- node7 -->
<g id="node8" class="node">
<title>node7</title>
<polygon fill="lightgrey" stroke="black" points="1427,-109 1250,-109 1250,-73 1427,-73 1427,-109"/>
<text text-anchor="middle" x="1338.5" y="-87.3" font-family="Times,serif" font-size="14.00">#7 arg3 : int Order : 5</text>
</g>
<!-- node0&#45;&gt;node7 -->
<g id="edge14" class="edge">
<title>node0&#45;&gt;node7</title>
<path fill="none" stroke="black" d="M1179.79,-145.99C1207.22,-135.92 1243.42,-123.1 1274.34,-112.48"/>
<polygon fill="black" stroke="black" points="1275.85,-115.66 1284.18,-109.11 1273.59,-109.04 1275.85,-115.66"/>
<text text-anchor="middle" x="1269.77" y="-119.28" font-family="Times,serif" font-size="14.00">*0</text>
</g>
<!-- node8 -->
<g id="node9" class="node">
<title>node8</title>
<polygon fill="lightgrey" stroke="black" points="1648,-109 1445,-109 1445,-73 1648,-73 1648,-109"/>
<text text-anchor="middle" x="1546.5" y="-87.3" font-family="Times,serif" font-size="14.00">#8 arg8 : String Order : 4</text>
</g>
<!-- node0&#45;&gt;node8 -->
<g id="edge16" class="edge">
<title>node0&#45;&gt;node8</title>
<path fill="none" stroke="black" d="M1217.92,-145.93C1289.86,-132.99 1371.01,-119.31 1434.71,-108.96"/>
<polygon fill="black" stroke="black" points="1435.47,-112.38 1444.78,-107.33 1434.35,-105.47 1435.47,-112.38"/>
<text text-anchor="middle" x="1428.24" y="-114.87" font-family="Times,serif" font-size="14.00">*0</text>
</g>
<!-- node9 -->
<g id="node10" class="node">
<title>node9</title>
<polygon fill="lightgrey" stroke="black" points="1854.5,-109 1666.5,-109 1666.5,-73 1854.5,-73 1854.5,-109"/>
<text text-anchor="middle" x="1760.5" y="-87.3" font-family="Times,serif" font-size="14.00">#9 arg5 : long Order : 3</text>
</g>
<!-- node0&#45;&gt;node9 -->
<g id="edge18" class="edge">
<title>node0&#45;&gt;node9</title>
<path fill="none" stroke="black" d="M1217.78,-145.96C1408,-119.72 1457.82,-132.88 1648.5,-109 1651.06,-108.68 1653.65,-108.34 1656.26,-107.99"/>
<polygon fill="black" stroke="black" points="1657.02,-111.42 1666.44,-106.57 1656.05,-104.49 1657.02,-111.42"/>
<text text-anchor="middle" x="1649.65" y="-113.75" font-family="Times,serif" font-size="14.00">*0</text>
</g>
<!-- node10 -->
<g id="node11" class="node">
<title>node10</title>
<polygon fill="lightgrey" stroke="black" points="2058.5,-109 1872.5,-109 1872.5,-73 2058.5,-73 2058.5,-109"/>
<text text-anchor="middle" x="1965.5" y="-87.3" font-family="Times,serif" font-size="14.00">#10 arg0 : int Order : 2</text>
</g>
<!-- node0&#45;&gt;node10 -->
<g id="edge20" class="edge">
<title>node0&#45;&gt;node10</title>
<path fill="none" stroke="black" d="M1217.91,-145.95C1499,-111.13 1572.81,-140.56 1854.5,-109 1857.04,-108.72 1859.61,-108.41 1862.2,-108.09"/>
<polygon fill="black" stroke="black" points="1862.83,-111.53 1872.29,-106.76 1861.92,-104.59 1862.83,-111.53"/>
<text text-anchor="middle" x="1855.42" y="-113.8" font-family="Times,serif" font-size="14.00">*0</text>
</g>
<!-- node11 -->
<g id="node12" class="node">
<title>node11</title>
<polygon fill="lightgrey" stroke="black" points="2274,-109 2077,-109 2077,-73 2274,-73 2274,-109"/>
<text text-anchor="middle" x="2175.5" y="-87.3" font-family="Times,serif" font-size="14.00">#11 LabelNode Order : 1</text>
</g>
<!-- node0&#45;&gt;node11 -->
<g id="edge22" class="edge">
<title>node0&#45;&gt;node11</title>
<path fill="none" stroke="red" d="M1217.77,-145.97C1403.76,-124.29 1872.46,-127.68 2058.5,-109 2061.2,-108.73 2063.93,-108.44 2066.68,-108.12"/>
<polygon fill="red" stroke="red" points="2067.23,-111.58 2076.75,-106.91 2066.4,-104.63 2067.23,-111.58"/>
</g>
<!-- node12 -->
<g id="node13" class="node">
<title>node12</title>
<polygon fill="lightgrey" stroke="black" points="2296.5,-36 2054.5,-36 2054.5,0 2296.5,0 2296.5,-36"/>
<text text-anchor="middle" x="2175.5" y="-14.3" font-family="Times,serif" font-size="14.00">#12 ReturnValue : int Order : 9</text>
</g>
<!-- node0&#45;&gt;node12 -->
<g id="edge26" class="edge">
<title>node0&#45;&gt;node12</title>
<path fill="none" stroke="green" d="M1217.85,-145.96C1279.63,-139.49 2233.76,-151.19 2274.5,-109 2285.61,-97.49 2282.91,-86.61 2274.5,-73 2265.83,-58.97 2252.29,-48.46 2237.95,-40.64"/>
<polygon fill="green" stroke="green" points="2239.46,-37.48 2228.96,-36.11 2236.31,-43.73 2239.46,-37.48"/>
</g>
<!-- node1&#45;&gt;node0 -->
<g id="edge1" class="edge">
<title>node1&#45;&gt;node0</title>
<path fill="none" stroke="fuchsia" stroke-width="2" d="M197.26,-106.82C203.44,-107.62 209.56,-108.36 215.5,-109 517.65,-141.46 877.2,-155.35 1044.02,-160.45"/>
<polygon fill="fuchsia" stroke="fuchsia" stroke-width="2" points="1044.14,-163.96 1054.24,-160.76 1044.35,-156.96 1044.14,-163.96"/>
</g>
<!-- node2&#45;&gt;node0 -->
<g id="edge3" class="edge">
<title>node2&#45;&gt;node0</title>
<path fill="none" stroke="fuchsia" stroke-width="2" d="M401.72,-106.66C407.74,-107.51 413.71,-108.3 419.5,-109 643.07,-135.88 907.04,-151.48 1044.24,-158.5"/>
<polygon fill="fuchsia" stroke="fuchsia" stroke-width="2" points="1044.14,-161.99 1054.3,-159.01 1044.49,-155 1044.14,-161.99"/>
</g>
<!-- node3&#45;&gt;node0 -->
<g id="edge5" class="edge">
<title>node3&#45;&gt;node0</title>
<path fill="none" stroke="fuchsia" stroke-width="2" d="M635.18,-106.71C641.04,-107.51 646.85,-108.28 652.5,-109 788.67,-126.41 946.41,-143.04 1044.15,-153.13"/>
<polygon fill="fuchsia" stroke="fuchsia" stroke-width="2" points="1043.99,-156.64 1054.29,-154.18 1044.7,-149.67 1043.99,-156.64"/>
</g>
<!-- node4&#45;&gt;node0 -->
<g id="edge7" class="edge">
<title>node4&#45;&gt;node0</title>
<path fill="none" stroke="fuchsia" stroke-width="2" d="M830.28,-106.91C893.95,-118.08 979.5,-133.4 1044.18,-145.2"/>
<polygon fill="fuchsia" stroke="fuchsia" stroke-width="2" points="1043.9,-148.71 1054.37,-147.07 1045.16,-141.82 1043.9,-148.71"/>
</g>
<!-- node4&#45;&gt;node12 -->
<g id="edge24" class="edge">
<title>node4&#45;&gt;node12</title>
<path fill="none" stroke="black" d="M830.24,-73.96C833.02,-73.61 835.78,-73.29 838.5,-73 1278.55,-25.76 1804.1,-18.93 2044.18,-18.52"/>
<polygon fill="black" stroke="black" points="2044.35,-22.02 2054.35,-18.51 2044.34,-15.02 2044.35,-22.02"/>
<text text-anchor="middle" x="2036.23" y="-23.28" font-family="Times,serif" font-size="14.00">*0</text>
</g>
<!-- node5&#45;&gt;node0 -->
<g id="edge9" class="edge">
<title>node5&#45;&gt;node0</title>
<path fill="none" stroke="fuchsia" stroke-width="2" d="M990.82,-109.11C1020.31,-119.16 1056.53,-131.92 1085.64,-142.5"/>
<polygon fill="fuchsia" stroke="fuchsia" stroke-width="2" points="1084.62,-145.85 1095.21,-145.99 1087.02,-139.28 1084.62,-145.85"/>
</g>
<!-- node6&#45;&gt;node0 -->
<g id="edge11" class="edge">
<title>node6&#45;&gt;node0</title>
<path fill="none" stroke="fuchsia" stroke-width="2" d="M1143.36,-109.03C1144.21,-117.03 1144.45,-126.77 1144.09,-135.75"/>
<polygon fill="fuchsia" stroke="fuchsia" stroke-width="2" points="1140.59,-135.59 1143.38,-145.81 1147.57,-136.08 1140.59,-135.59"/>
</g>
<!-- node7&#45;&gt;node0 -->
<g id="edge13" class="edge">
<title>node7&#45;&gt;node0</title>
<path fill="none" stroke="fuchsia" stroke-width="2" d="M1295.92,-109.11C1268.42,-119.2 1232.22,-132.03 1201.33,-142.63"/>
<polygon fill="fuchsia" stroke="fuchsia" stroke-width="2" points="1199.83,-139.45 1191.5,-145.99 1202.1,-146.07 1199.83,-139.45"/>
</g>
<!-- node8&#45;&gt;node0 -->
<g id="edge15" class="edge">
<title>node8&#45;&gt;node0</title>
<path fill="none" stroke="fuchsia" stroke-width="2" d="M1450.1,-109C1388.67,-119.36 1307.45,-133.06 1235.5,-146 1234,-146.27 1232.49,-146.54 1230.96,-146.82"/>
<polygon fill="fuchsia" stroke="fuchsia" stroke-width="2" points="1229.97,-143.44 1220.76,-148.69 1231.23,-150.33 1229.97,-143.44"/>
</g>
<!-- node9&#45;&gt;node0 -->
<g id="edge17" class="edge">
<title>node9&#45;&gt;node0</title>
<path fill="none" stroke="fuchsia" stroke-width="2" d="M1666.22,-109.03C1475.68,-132.88 1425.86,-119.72 1235.5,-146 1233.99,-146.21 1232.47,-146.43 1230.93,-146.65"/>
<polygon fill="fuchsia" stroke="fuchsia" stroke-width="2" points="1230.04,-143.25 1220.69,-148.23 1231.11,-150.16 1230.04,-143.25"/>
</g>
<!-- node10&#45;&gt;node0 -->
<g id="edge19" class="edge">
<title>node10&#45;&gt;node0</title>
<path fill="none" stroke="fuchsia" stroke-width="2" d="M1872.77,-108.97C1872.68,-108.98 1872.59,-108.99 1872.5,-109 1590.68,-140.58 1516.93,-111.1 1235.5,-146 1233.99,-146.19 1232.46,-146.39 1230.93,-146.59"/>
<polygon fill="fuchsia" stroke="fuchsia" stroke-width="2" points="1230.06,-143.18 1220.67,-148.08 1231.07,-150.11 1230.06,-143.18"/>
</g>
<!-- node11&#45;&gt;node0 -->
<g id="edge21" class="edge">
<title>node11&#45;&gt;node0</title>
<path fill="none" stroke="fuchsia" stroke-width="2" d="M2076.78,-108.97C2076.69,-108.98 2076.59,-108.99 2076.5,-109 1890.37,-127.68 1421.3,-124.28 1235.5,-146 1233.99,-146.18 1232.46,-146.36 1230.92,-146.56"/>
<polygon fill="fuchsia" stroke="fuchsia" stroke-width="2" points="1230.08,-143.15 1220.66,-148 1231.05,-150.08 1230.08,-143.15"/>
</g>
<!-- node11&#45;&gt;node12 -->
<g id="edge25" class="edge">
<title>node11&#45;&gt;node12</title>
<path fill="none" stroke="red" d="M2175.5,-72.81C2175.5,-64.79 2175.5,-55.05 2175.5,-46.07"/>
<polygon fill="red" stroke="red" points="2179,-46.03 2175.5,-36.03 2172,-46.03 2179,-46.03"/>
</g>
<!-- node12&#45;&gt;node0 -->
<g id="edge23" class="edge">
<title>node12&#45;&gt;node0</title>
<path fill="none" stroke="fuchsia" stroke-width="2" d="M2246.04,-36.11C2264.46,-44.26 2282.03,-56.06 2292.5,-73 2300.91,-86.61 2303.61,-97.49 2292.5,-109 2251.68,-151.27 1293.89,-139.44 1235.5,-146 1233.99,-146.17 1232.46,-146.35 1230.92,-146.54"/>
<polygon fill="fuchsia" stroke="fuchsia" stroke-width="2" points="1230.09,-143.13 1220.65,-147.95 1231.04,-150.06 1230.09,-143.13"/>
</g>
<!-- c0 -->
<!-- c1 -->
<!-- c0&#45;&gt;c1 -->
<g id="edge27" class="edge">
<title>c0&#45;&gt;c1</title>
<path fill="none" stroke="red" d="M2089.39,-164C2100.61,-164 2158.74,-164 2184.36,-164"/>
<polygon fill="red" stroke="red" points="2184.56,-167.5 2194.56,-164 2184.56,-160.5 2184.56,-167.5"/>
<text text-anchor="middle" x="2142" y="-170.8" font-family="Times,serif" font-size="14.00">Control flow</text>
</g>
<!-- c2 -->
<!-- c3 -->
<!-- c2&#45;&gt;c3 -->
<g id="edge28" class="edge">
<title>c2&#45;&gt;c3</title>
<path fill="none" stroke="red" stroke-dasharray="5,2" d="M1882.58,-164C1899.55,-164 2015.71,-164 2053.58,-164"/>
<polygon fill="red" stroke="red" points="2053.67,-167.5 2063.67,-164 2053.67,-160.5 2053.67,-167.5"/>
<text text-anchor="middle" x="1973" y="-170.8" font-family="Times,serif" font-size="14.00">Control flow back edge</text>
</g>
<!-- d0 -->
<!-- d1 -->
<!-- d0&#45;&gt;d1 -->
<g id="edge29" class="edge">
<title>d0&#45;&gt;d1</title>
<path fill="none" stroke="black" d="M1771.36,-164C1780.91,-164 1824.81,-164 1846.42,-164"/>
<polygon fill="black" stroke="black" points="1846.65,-167.5 1856.65,-164 1846.65,-160.5 1846.65,-167.5"/>
<text text-anchor="middle" x="1814" y="-170.8" font-family="Times,serif" font-size="14.00">Data flow</text>
</g>
<!-- d2 -->
<!-- d3 -->
<!-- d2&#45;&gt;d3 -->
<g id="edge30" class="edge">
<title>d2&#45;&gt;d3</title>
<path fill="none" stroke="black" stroke-dasharray="1,5" d="M1645.31,-164C1655.96,-164 1710.96,-164 1735.58,-164"/>
<polygon fill="black" stroke="black" points="1735.65,-167.5 1745.65,-164 1735.65,-160.5 1735.65,-167.5"/>
<text text-anchor="middle" x="1695.5" y="-170.8" font-family="Times,serif" font-size="14.00">Declaration</text>
</g>
<!-- d4 -->
<!-- d5 -->
<!-- d4&#45;&gt;d5 -->
<g id="edge31" class="edge">
<title>d4&#45;&gt;d5</title>
<path fill="none" stroke="blue" d="M1502.6,-164C1515.22,-164 1581.38,-164 1609.18,-164"/>
<polygon fill="blue" stroke="blue" points="1609.34,-167.5 1619.34,-164 1609.34,-160.5 1609.34,-167.5"/>
<text text-anchor="middle" x="1561" y="-170.8" font-family="Times,serif" font-size="14.00">PHI Data flow</text>
</g>
<!-- d6 -->
<!-- d7 -->
<!-- d6&#45;&gt;d7 -->
<g id="edge32" class="edge">
<title>d6&#45;&gt;d7</title>
<path fill="none" stroke="green" d="M1365.5,-164C1377.44,-164 1439.8,-164 1466.43,-164"/>
<polygon fill="green" stroke="green" points="1466.45,-167.5 1476.45,-164 1466.45,-160.5 1466.45,-167.5"/>
<text text-anchor="middle" x="1421" y="-170.8" font-family="Times,serif" font-size="14.00">Memory flow</text>
</g>
<!-- d8 -->
<!-- d9 -->
<!-- d8&#45;&gt;d9 -->
<g id="edge33" class="edge">
<title>d8&#45;&gt;d9</title>
<path fill="none" stroke="fuchsia" d="M1242.61,-164C1253.65,-164 1305.17,-164 1329.16,-164"/>
<polygon fill="fuchsia" stroke="fuchsia" points="1329.4,-167.5 1339.4,-164 1329.4,-160.5 1329.4,-167.5"/>
<text text-anchor="middle" x="1291" y="-170.8" font-family="Times,serif" font-size="14.00">Dominance</text>
</g>
</g>
</svg>
