<?xml version="1.0" encoding="UTF-8" standalone="no"?>
<!DOCTYPE svg PUBLIC "-//W3C//DTD SVG 1.1//EN"
 "http://www.w3.org/Graphics/SVG/1.1/DTD/svg11.dtd">
<!-- Generated by graphviz version 2.43.0 (0)
 -->
<!-- Title: debugoutput Pages: 1 -->
<svg width="2307pt" height="213pt"
 viewBox="0.00 0.00 2306.99 212.80" xmlns="http://www.w3.org/2000/svg" xmlns:xlink="http://www.w3.org/1999/xlink">
<g id="graph0" class="graph" transform="scale(1 1) rotate(0) translate(4 208.8)">
<title>debugoutput</title>
<polygon fill="white" stroke="transparent" points="-4,4 -4,-208.8 2302.99,-208.8 2302.99,4 -4,4"/>
<g id="clust1" class="cluster">
<title>cluster_000</title>
<polygon fill="none" stroke="black" points="1232.5,-154.2 1232.5,-196.8 2208.5,-196.8 2208.5,-154.2 1232.5,-154.2"/>
<text text-anchor="middle" x="1720.5" y="-181.6" font-family="Times,serif" font-size="14.00">Legend</text>
</g>
<!-- node0 -->
<g id="node1" class="node">
<title>node0</title>
<polygon fill="lightgrey" stroke="black" points="1222.5,-182 1056.5,-182 1056.5,-146 1222.5,-146 1222.5,-182"/>
<text text-anchor="middle" x="1139.5" y="-160.3" font-family="Times,serif" font-size="14.00">#0 Method Order : 0</text>
</g>
<!-- node1 -->
<g id="node2" class="node">
<title>node1</title>
<polygon fill="lightgrey" stroke="black" points="197,-109 0,-109 0,-73 197,-73 197,-109"/>
<text text-anchor="middle" x="98.5" y="-87.3" font-family="Times,serif" font-size="14.00">#1 arg9 : int[] Order : 12</text>
</g>
<!-- node0&#45;&gt;node1 -->
<g id="edge2" class="edge">
<title>node0&#45;&gt;node1</title>
<path fill="none" stroke="black" d="M1056.29,-161.07C893.42,-156.58 521.39,-143.2 207.42,-110.06"/>
<polygon fill="black" stroke="black" points="207.53,-106.55 197.22,-108.97 206.79,-113.51 207.53,-106.55"/>
<text text-anchor="middle" x="216.14" y="-98.78" font-family="Times,serif" font-size="14.00">*0</text>
</g>
<!-- node2 -->
<g id="node3" class="node">
<title>node2</title>
<polygon fill="lightgrey" stroke="black" points="401.5,-109 215.5,-109 215.5,-73 401.5,-73 401.5,-109"/>
<text text-anchor="middle" x="308.5" y="-87.3" font-family="Times,serif" font-size="14.00">#2 arg2 : int Order : 11</text>
</g>
<!-- node0&#45;&gt;node2 -->
<g id="edge4" class="edge">
<title>node0&#45;&gt;node2</title>
<path fill="none" stroke="black" d="M1056.4,-159.58C921.32,-153.27 645.86,-137.84 411.31,-110.17"/>
<polygon fill="black" stroke="black" points="411.58,-106.67 401.23,-108.97 410.75,-113.63 411.58,-106.67"/>
<text text-anchor="middle" x="420.23" y="-99.02" font-family="Times,serif" font-size="14.00">*0</text>
</g>
<!-- node3 -->
<g id="node4" class="node">
<title>node3</title>
<polygon fill="lightgrey" stroke="black" points="617,-109 420,-109 420,-73 617,-73 617,-109"/>
<text text-anchor="middle" x="518.5" y="-87.3" font-family="Times,serif" font-size="14.00">#3 arg5 : long Order : 10</text>
</g>
<!-- node0&#45;&gt;node3 -->
<g id="edge6" class="edge">
<title>node0&#45;&gt;node3</title>
<path fill="none" stroke="black" d="M1056.1,-156.17C954.91,-147.18 779.17,-130.17 626.94,-110.37"/>
<polygon fill="black" stroke="black" points="627.32,-106.89 616.95,-109.06 626.41,-113.83 627.32,-106.89"/>
<text text-anchor="middle" x="636.02" y="-99.33" font-family="Times,serif" font-size="14.00">*0</text>
</g>
<!-- node4 -->
<g id="node5" class="node">
<title>node4</title>
<polygon fill="lightgrey" stroke="black" points="838,-109 635,-109 635,-73 838,-73 838,-109"/>
<text text-anchor="middle" x="736.5" y="-87.3" font-family="Times,serif" font-size="14.00">#4 arg8 : String Order : 9</text>
</g>
<!-- node0&#45;&gt;node4 -->
<g id="edge8" class="edge">
<title>node0&#45;&gt;node4</title>
<path fill="none" stroke="black" d="M1056.34,-149.31C992.84,-138.39 905.11,-122.96 837.56,-110.87"/>
<polygon fill="black" stroke="black" points="837.79,-107.35 827.33,-109.03 836.55,-114.24 837.79,-107.35"/>
<text text-anchor="middle" x="846.66" y="-100.21" font-family="Times,serif" font-size="14.00">*0</text>
</g>
<!-- node5 -->
<g id="node6" class="node">
<title>node5</title>
<polygon fill="lightgrey" stroke="black" points="1033,-109 856,-109 856,-73 1033,-73 1033,-109"/>
<text text-anchor="middle" x="944.5" y="-87.3" font-family="Times,serif" font-size="14.00">#5 arg1 : int Order : 7</text>
</g>
<!-- node0&#45;&gt;node5 -->
<g id="edge10" class="edge">
<title>node0&#45;&gt;node5</title>
<path fill="none" stroke="black" d="M1086.93,-145.99C1058.46,-136.01 1023.5,-123.32 995.3,-112.76"/>
<polygon fill="black" stroke="black" points="996.22,-109.36 985.63,-109.11 993.76,-115.91 996.22,-109.36"/>
<text text-anchor="middle" x="1005.57" y="-103.89" font-family="Times,serif" font-size="14.00">*0</text>
</g>
<!-- node6 -->
<g id="node7" class="node">
<title>node6</title>
<polygon fill="lightgrey" stroke="black" points="1228,-109 1051,-109 1051,-73 1228,-73 1228,-109"/>
<text text-anchor="middle" x="1139.5" y="-87.3" font-family="Times,serif" font-size="14.00">#6 arg3 : int Order : 6</text>
</g>
<!-- node0&#45;&gt;node6 -->
<g id="edge12" class="edge">
<title>node0&#45;&gt;node6</title>
<path fill="none" stroke="black" d="M1133.62,-145.81C1132.78,-137.79 1132.55,-128.05 1132.92,-119.07"/>
<polygon fill="black" stroke="black" points="1136.42,-119.25 1133.64,-109.03 1129.44,-118.75 1136.42,-119.25"/>
<text text-anchor="middle" x="1140.78" y="-124.01" font-family="Times,serif" font-size="14.00">*0</text>
</g>
<!-- node7 -->
<g id="node8" class="node">
<title>node7</title>
<polygon fill="lightgrey" stroke="black" points="1423,-109 1246,-109 1246,-73 1423,-73 1423,-109"/>
<text text-anchor="middle" x="1334.5" y="-87.3" font-family="Times,serif" font-size="14.00">#7 arg0 : int Order : 5</text>
</g>
<!-- node0&#45;&gt;node7 -->
<g id="edge14" class="edge">
<title>node0&#45;&gt;node7</title>
<path fill="none" stroke="black" d="M1180.35,-145.99C1206.93,-135.92 1242.04,-123.1 1272.07,-112.48"/>
<polygon fill="black" stroke="black" points="1273.36,-115.74 1281.63,-109.11 1271.03,-109.13 1273.36,-115.74"/>
<text text-anchor="middle" x="1267.34" y="-119.41" font-family="Times,serif" font-size="14.00">*0</text>
</g>
<!-- node8 -->
<g id="node9" class="node">
<title>node8</title>
<polygon fill="lightgrey" stroke="black" points="1618,-109 1441,-109 1441,-73 1618,-73 1618,-109"/>
<text text-anchor="middle" x="1529.5" y="-87.3" font-family="Times,serif" font-size="14.00">#8 arg4 : int Order : 4</text>
</g>
<!-- node0&#45;&gt;node8 -->
<g id="edge16" class="edge">
<title>node0&#45;&gt;node8</title>
<path fill="none" stroke="black" d="M1219.89,-145.93C1290.2,-132.91 1369.78,-118.65 1430.71,-108.07"/>
<polygon fill="black" stroke="black" points="1431.45,-111.49 1440.7,-106.34 1430.25,-104.6 1431.45,-111.49"/>
<text text-anchor="middle" x="1424.29" y="-114.06" font-family="Times,serif" font-size="14.00">*0</text>
</g>
<!-- node9 -->
<g id="node10" class="node">
<title>node9</title>
<polygon fill="lightgrey" stroke="black" points="1825,-109 1636,-109 1636,-73 1825,-73 1825,-109"/>
<text text-anchor="middle" x="1730.5" y="-87.3" font-family="Times,serif" font-size="14.00">#9 arg6 : float Order : 3</text>
</g>
<!-- node0&#45;&gt;node9 -->
<g id="edge18" class="edge">
<title>node0&#45;&gt;node9</title>
<path fill="none" stroke="black" d="M1219.76,-145.96C1395.88,-121.05 1441.95,-131.73 1618.5,-109 1620.89,-108.69 1623.31,-108.37 1625.75,-108.04"/>
<polygon fill="black" stroke="black" points="1626.46,-111.47 1635.88,-106.61 1625.48,-104.54 1626.46,-111.47"/>
<text text-anchor="middle" x="1619.11" y="-113.81" font-family="Times,serif" font-size="14.00">*0</text>
</g>
<!-- node10 -->
<g id="node11" class="node">
<title>node10</title>
<polygon fill="lightgrey" stroke="black" points="2058,-109 1843,-109 1843,-73 2058,-73 2058,-109"/>
<text text-anchor="middle" x="1950.5" y="-87.3" font-family="Times,serif" font-size="14.00">#10 arg7 : double Order : 2</text>
</g>
<!-- node0&#45;&gt;node10 -->
<g id="edge20" class="edge">
<title>node0&#45;&gt;node10</title>
<path fill="none" stroke="black" d="M1219.89,-145.95C1354.03,-129.19 1691.43,-122.89 1825.5,-109 1827.89,-108.75 1830.31,-108.49 1832.75,-108.22"/>
<polygon fill="black" stroke="black" points="1833.33,-111.67 1842.86,-107.04 1832.52,-104.72 1833.33,-111.67"/>
<text text-anchor="middle" x="1825.84" y="-113.84" font-family="Times,serif" font-size="14.00">*0</text>
</g>
<!-- node11 -->
<g id="node12" class="node">
<title>node11</title>
<polygon fill="lightgrey" stroke="black" points="2273,-109 2076,-109 2076,-73 2273,-73 2273,-109"/>
<text text-anchor="middle" x="2174.5" y="-87.3" font-family="Times,serif" font-size="14.00">#11 LabelNode Order : 1</text>
</g>
<!-- node0&#45;&gt;node11 -->
<g id="edge22" class="edge">
<title>node0&#45;&gt;node11</title>
<path fill="none" stroke="red" d="M1219.77,-145.97C1405.32,-124.33 1872.91,-127.77 2058.5,-109 2060.91,-108.76 2063.34,-108.49 2065.8,-108.22"/>
<polygon fill="red" stroke="red" points="2066.49,-111.66 2076,-106.99 2065.65,-104.71 2066.49,-111.66"/>
</g>
<!-- node12 -->
<g id="node13" class="node">
<title>node12</title>
<polygon fill="lightgrey" stroke="black" points="2295.5,-36 2053.5,-36 2053.5,0 2295.5,0 2295.5,-36"/>
<text text-anchor="middle" x="2174.5" y="-14.3" font-family="Times,serif" font-size="14.00">#12 ReturnValue : int Order : 8</text>
</g>
<!-- node0&#45;&gt;node12 -->
<g id="edge26" class="edge">
<title>node0&#45;&gt;node12</title>
<path fill="none" stroke="green" d="M1219.85,-145.96C1281.45,-139.5 2232.88,-151.07 2273.5,-109 2284.61,-97.49 2281.91,-86.61 2273.5,-73 2264.83,-58.97 2251.29,-48.46 2236.95,-40.64"/>
<polygon fill="green" stroke="green" points="2238.46,-37.48 2227.96,-36.11 2235.31,-43.73 2238.46,-37.48"/>
</g>
<!-- node1&#45;&gt;node0 -->
<g id="edge1" class="edge">
<title>node1&#45;&gt;node0</title>
<path fill="none" stroke="fuchsia" stroke-width="2" d="M197.26,-106.82C203.44,-107.62 209.56,-108.36 215.5,-109 518.49,-141.54 879.09,-155.4 1046.13,-160.47"/>
<polygon fill="fuchsia" stroke="fuchsia" stroke-width="2" points="1046.26,-163.98 1056.36,-160.78 1046.47,-156.98 1046.26,-163.98"/>
</g>
<!-- node2&#45;&gt;node0 -->
<g id="edge3" class="edge">
<title>node2&#45;&gt;node0</title>
<path fill="none" stroke="fuchsia" stroke-width="2" d="M401.72,-106.66C407.74,-107.51 413.71,-108.3 419.5,-109 643.84,-135.95 908.75,-151.53 1046.25,-158.52"/>
<polygon fill="fuchsia" stroke="fuchsia" stroke-width="2" points="1046.17,-162.02 1056.33,-159.03 1046.52,-155.03 1046.17,-162.02"/>
</g>
<!-- node3&#45;&gt;node0 -->
<g id="edge5" class="edge">
<title>node3&#45;&gt;node0</title>
<path fill="none" stroke="fuchsia" stroke-width="2" d="M617.05,-106.59C622.96,-107.44 628.81,-108.25 634.5,-109 777.91,-127.91 944.54,-144.42 1046.02,-154.05"/>
<polygon fill="fuchsia" stroke="fuchsia" stroke-width="2" points="1045.95,-157.56 1056.24,-155.02 1046.61,-150.59 1045.95,-157.56"/>
</g>
<!-- node4&#45;&gt;node0 -->
<g id="edge7" class="edge">
<title>node4&#45;&gt;node0</title>
<path fill="none" stroke="fuchsia" stroke-width="2" d="M838.09,-108.87C901.98,-119.92 983.78,-134.32 1046.06,-145.5"/>
<polygon fill="fuchsia" stroke="fuchsia" stroke-width="2" points="1045.81,-149.01 1056.27,-147.33 1047.05,-142.12 1045.81,-149.01"/>
</g>
<!-- node5&#45;&gt;node0 -->
<g id="edge9" class="edge">
<title>node5&#45;&gt;node0</title>
<path fill="none" stroke="fuchsia" stroke-width="2" d="M997.37,-109.11C1025.89,-119.11 1060.85,-131.81 1089,-142.36"/>
<polygon fill="fuchsia" stroke="fuchsia" stroke-width="2" points="1088.06,-145.74 1098.65,-145.99 1090.53,-139.19 1088.06,-145.74"/>
</g>
<!-- node5&#45;&gt;node12 -->
<g id="edge24" class="edge">
<title>node5&#45;&gt;node12</title>
<path fill="none" stroke="black" d="M1033.24,-73.99C1036.02,-73.63 1038.78,-73.3 1041.5,-73 1402.57,-32.92 1831.61,-22.56 2043.16,-19.9"/>
<polygon fill="black" stroke="black" points="2043.42,-23.4 2053.38,-19.78 2043.33,-16.4 2043.42,-23.4"/>
<text text-anchor="middle" x="2035.35" y="-24.75" font-family="Times,serif" font-size="14.00">*0</text>
</g>
<!-- node6&#45;&gt;node0 -->
<g id="edge11" class="edge">
<title>node6&#45;&gt;node0</title>
<path fill="none" stroke="fuchsia" stroke-width="2" d="M1145.36,-109.03C1146.21,-117.03 1146.45,-126.77 1146.09,-135.75"/>
<polygon fill="fuchsia" stroke="fuchsia" stroke-width="2" points="1142.59,-135.59 1145.38,-145.81 1149.57,-136.08 1142.59,-135.59"/>
</g>
<!-- node7&#45;&gt;node0 -->
<g id="edge13" class="edge">
<title>node7&#45;&gt;node0</title>
<path fill="none" stroke="fuchsia" stroke-width="2" d="M1293.37,-109.11C1266.72,-119.2 1231.6,-132.03 1201.61,-142.63"/>
<polygon fill="fuchsia" stroke="fuchsia" stroke-width="2" points="1200.34,-139.37 1192.07,-145.99 1202.66,-145.97 1200.34,-139.37"/>
</g>
<!-- node8&#45;&gt;node0 -->
<g id="edge15" class="edge">
<title>node8&#45;&gt;node0</title>
<path fill="none" stroke="fuchsia" stroke-width="2" d="M1441,-108.99C1383.1,-119.49 1305.89,-133.33 1237.5,-146 1236,-146.28 1234.49,-146.56 1232.97,-146.84"/>
<polygon fill="fuchsia" stroke="fuchsia" stroke-width="2" points="1231.96,-143.47 1222.77,-148.75 1233.25,-150.35 1231.96,-143.47"/>
</g>
<!-- node9&#45;&gt;node0 -->
<g id="edge17" class="edge">
<title>node9&#45;&gt;node0</title>
<path fill="none" stroke="fuchsia" stroke-width="2" d="M1636.24,-109.03C1459.82,-131.73 1413.75,-121.05 1237.5,-146 1235.99,-146.21 1234.47,-146.44 1232.94,-146.66"/>
<polygon fill="fuchsia" stroke="fuchsia" stroke-width="2" points="1232.03,-143.26 1222.7,-148.27 1233.12,-150.18 1232.03,-143.26"/>
</g>
<!-- node10&#45;&gt;node0 -->
<g id="edge19" class="edge">
<title>node10&#45;&gt;node0</title>
<path fill="none" stroke="fuchsia" stroke-width="2" d="M1843.11,-109.04C1708.64,-122.92 1371.24,-129.21 1237.5,-146 1235.99,-146.19 1234.46,-146.39 1232.93,-146.6"/>
<polygon fill="fuchsia" stroke="fuchsia" stroke-width="2" points="1232.06,-143.19 1222.67,-148.09 1233.07,-150.11 1232.06,-143.19"/>
</g>
<!-- node11&#45;&gt;node0 -->
<g id="edge21" class="edge">
<title>node11&#45;&gt;node0</title>
<path fill="none" stroke="fuchsia" stroke-width="2" d="M2076.23,-109.03C1890.37,-127.78 1422.77,-124.34 1237.5,-146 1235.99,-146.18 1234.46,-146.36 1232.92,-146.56"/>
<polygon fill="fuchsia" stroke="fuchsia" stroke-width="2" points="1232.08,-143.15 1222.66,-148 1233.05,-150.08 1232.08,-143.15"/>
</g>
<!-- node11&#45;&gt;node12 -->
<g id="edge25" class="edge">
<title>node11&#45;&gt;node12</title>
<path fill="none" stroke="red" d="M2174.5,-72.81C2174.5,-64.79 2174.5,-55.05 2174.5,-46.07"/>
<polygon fill="red" stroke="red" points="2178,-46.03 2174.5,-36.03 2171,-46.03 2178,-46.03"/>
</g>
<!-- node12&#45;&gt;node0 -->
<g id="edge23" class="edge">
<title>node12&#45;&gt;node0</title>
<path fill="none" stroke="fuchsia" stroke-width="2" d="M2245.04,-36.11C2263.46,-44.26 2281.03,-56.06 2291.5,-73 2299.91,-86.61 2302.61,-97.49 2291.5,-109 2250.8,-151.15 1295.73,-139.46 1237.5,-146 1235.99,-146.17 1234.46,-146.35 1232.92,-146.54"/>
<polygon fill="fuchsia" stroke="fuchsia" stroke-width="2" points="1232.09,-143.13 1222.65,-147.95 1233.04,-150.06 1232.09,-143.13"/>
</g>
<!-- c0 -->
<!-- c1 -->
<!-- c0&#45;&gt;c1 -->
<g id="edge27" class="edge">
<title>c0&#45;&gt;c1</title>
<path fill="none" stroke="red" d="M2091.39,-164C2102.61,-164 2160.74,-164 2186.36,-164"/>
<polygon fill="red" stroke="red" points="2186.56,-167.5 2196.56,-164 2186.56,-160.5 2186.56,-167.5"/>
<text text-anchor="middle" x="2144" y="-170.8" font-family="Times,serif" font-size="14.00">Control flow</text>
</g>
<!-- c2 -->
<!-- c3 -->
<!-- c2&#45;&gt;c3 -->
<g id="edge28" class="edge">
<title>c2&#45;&gt;c3</title>
<path fill="none" stroke="red" stroke-dasharray="5,2" d="M1884.58,-164C1901.55,-164 2017.71,-164 2055.58,-164"/>
<polygon fill="red" stroke="red" points="2055.67,-167.5 2065.67,-164 2055.67,-160.5 2055.67,-167.5"/>
<text text-anchor="middle" x="1975" y="-170.8" font-family="Times,serif" font-size="14.00">Control flow back edge</text>
</g>
<!-- d0 -->
<!-- d1 -->
<!-- d0&#45;&gt;d1 -->
<g id="edge29" class="edge">
<title>d0&#45;&gt;d1</title>
<path fill="none" stroke="black" d="M1773.36,-164C1782.91,-164 1826.81,-164 1848.42,-164"/>
<polygon fill="black" stroke="black" points="1848.65,-167.5 1858.65,-164 1848.65,-160.5 1848.65,-167.5"/>
<text text-anchor="middle" x="1816" y="-170.8" font-family="Times,serif" font-size="14.00">Data flow</text>
</g>
<!-- d2 -->
<!-- d3 -->
<!-- d2&#45;&gt;d3 -->
<g id="edge30" class="edge">
<title>d2&#45;&gt;d3</title>
<path fill="none" stroke="black" stroke-dasharray="1,5" d="M1647.31,-164C1657.96,-164 1712.96,-164 1737.58,-164"/>
<polygon fill="black" stroke="black" points="1737.65,-167.5 1747.65,-164 1737.65,-160.5 1737.65,-167.5"/>
<text text-anchor="middle" x="1697.5" y="-170.8" font-family="Times,serif" font-size="14.00">Declaration</text>
</g>
<!-- d4 -->
<!-- d5 -->
<!-- d4&#45;&gt;d5 -->
<g id="edge31" class="edge">
<title>d4&#45;&gt;d5</title>
<path fill="none" stroke="blue" d="M1504.6,-164C1517.22,-164 1583.38,-164 1611.18,-164"/>
<polygon fill="blue" stroke="blue" points="1611.34,-167.5 1621.34,-164 1611.34,-160.5 1611.34,-167.5"/>
<text text-anchor="middle" x="1563" y="-170.8" font-family="Times,serif" font-size="14.00">PHI Data flow</text>
</g>
<!-- d6 -->
<!-- d7 -->
<!-- d6&#45;&gt;d7 -->
<g id="edge32" class="edge">
<title>d6&#45;&gt;d7</title>
<path fill="none" stroke="green" d="M1367.5,-164C1379.44,-164 1441.8,-164 1468.43,-164"/>
<polygon fill="green" stroke="green" points="1468.45,-167.5 1478.45,-164 1468.45,-160.5 1468.45,-167.5"/>
<text text-anchor="middle" x="1423" y="-170.8" font-family="Times,serif" font-size="14.00">Memory flow</text>
</g>
<!-- d8 -->
<!-- d9 -->
<!-- d8&#45;&gt;d9 -->
<g id="edge33" class="edge">
<title>d8&#45;&gt;d9</title>
<path fill="none" stroke="fuchsia" d="M1244.61,-164C1255.65,-164 1307.17,-164 1331.16,-164"/>
<polygon fill="fuchsia" stroke="fuchsia" points="1331.4,-167.5 1341.4,-164 1331.4,-160.5 1331.4,-167.5"/>
<text text-anchor="middle" x="1293" y="-170.8" font-family="Times,serif" font-size="14.00">Dominance</text>
</g>
</g>
</svg>
