<?xml version="1.0" encoding="UTF-8" standalone="no"?>
<!DOCTYPE svg PUBLIC "-//W3C//DTD SVG 1.1//EN"
 "http://www.w3.org/Graphics/SVG/1.1/DTD/svg11.dtd">
<!-- Generated by graphviz version 2.43.0 (0)
 -->
<!-- Title: debugoutput Pages: 1 -->
<svg width="2308pt" height="213pt"
 viewBox="0.00 0.00 2308.49 212.80" xmlns="http://www.w3.org/2000/svg" xmlns:xlink="http://www.w3.org/1999/xlink">
<g id="graph0" class="graph" transform="scale(1 1) rotate(0) translate(4 208.8)">
<title>debugoutput</title>
<polygon fill="white" stroke="transparent" points="-4,4 -4,-208.8 2304.49,-208.8 2304.49,4 -4,4"/>
<g id="clust1" class="cluster">
<title>cluster_000</title>
<polygon fill="none" stroke="black" points="1224,-154.2 1224,-196.8 2200,-196.8 2200,-154.2 1224,-154.2"/>
<text text-anchor="middle" x="1712" y="-181.6" font-family="Times,serif" font-size="14.00">Legend</text>
</g>
<!-- node0 -->
<g id="node1" class="node">
<title>node0</title>
<polygon fill="lightgrey" stroke="black" points="1214,-182 1048,-182 1048,-146 1214,-146 1214,-182"/>
<text text-anchor="middle" x="1131" y="-160.3" font-family="Times,serif" font-size="14.00">#0 Method Order : 0</text>
</g>
<!-- node1 -->
<g id="node2" class="node">
<title>node1</title>
<polygon fill="lightgrey" stroke="black" points="186,-109 0,-109 0,-73 186,-73 186,-109"/>
<text text-anchor="middle" x="93" y="-87.3" font-family="Times,serif" font-size="14.00">#1 arg2 : int Order : 12</text>
</g>
<!-- node0&#45;&gt;node1 -->
<g id="edge2" class="edge">
<title>node0&#45;&gt;node1</title>
<path fill="none" stroke="black" d="M1047.83,-161.33C884.57,-157.3 510.99,-144.71 195.97,-110.11"/>
<polygon fill="black" stroke="black" points="196.06,-106.59 185.73,-108.97 195.29,-113.55 196.06,-106.59"/>
<text text-anchor="middle" x="204.68" y="-98.87" font-family="Times,serif" font-size="14.00">*0</text>
</g>
<!-- node2 -->
<g id="node3" class="node">
<title>node2</title>
<polygon fill="lightgrey" stroke="black" points="401.5,-109 204.5,-109 204.5,-73 401.5,-73 401.5,-109"/>
<text text-anchor="middle" x="303" y="-87.3" font-family="Times,serif" font-size="14.00">#2 arg5 : long Order : 11</text>
</g>
<!-- node0&#45;&gt;node2 -->
<g id="edge4" class="edge">
<title>node0&#45;&gt;node2</title>
<path fill="none" stroke="black" d="M1047.97,-159.3C914.13,-152.62 642.56,-136.72 411.28,-110.19"/>
<polygon fill="black" stroke="black" points="411.68,-106.71 401.34,-109.04 410.87,-113.67 411.68,-106.71"/>
<text text-anchor="middle" x="420.32" y="-99.03" font-family="Times,serif" font-size="14.00">*0</text>
</g>
<!-- node3 -->
<g id="node4" class="node">
<title>node3</title>
<polygon fill="lightgrey" stroke="black" points="634.5,-109 419.5,-109 419.5,-73 634.5,-73 634.5,-109"/>
<text text-anchor="middle" x="527" y="-87.3" font-family="Times,serif" font-size="14.00">#3 arg7 : double Order : 10</text>
</g>
<!-- node0&#45;&gt;node3 -->
<g id="edge6" class="edge">
<title>node0&#45;&gt;node3</title>
<path fill="none" stroke="black" d="M1047.69,-155.33C951.14,-145.78 787.23,-128.51 644.65,-110.36"/>
<polygon fill="black" stroke="black" points="644.79,-106.85 634.42,-109.05 643.9,-113.79 644.79,-106.85"/>
<text text-anchor="middle" x="653.48" y="-99.27" font-family="Times,serif" font-size="14.00">*0</text>
</g>
<!-- node4 -->
<g id="node5" class="node">
<title>node4</title>
<polygon fill="lightgrey" stroke="black" points="829.5,-109 652.5,-109 652.5,-73 829.5,-73 829.5,-109"/>
<text text-anchor="middle" x="741" y="-87.3" font-family="Times,serif" font-size="14.00">#4 arg1 : int Order : 8</text>
</g>
<!-- node0&#45;&gt;node4 -->
<g id="edge8" class="edge">
<title>node0&#45;&gt;node4</title>
<path fill="none" stroke="black" d="M1047.97,-148.89C986.74,-138.01 903.3,-122.85 838.85,-110.91"/>
<polygon fill="black" stroke="black" points="839.14,-107.41 828.67,-109.03 837.87,-114.29 839.14,-107.41"/>
<text text-anchor="middle" x="848.03" y="-100.32" font-family="Times,serif" font-size="14.00">*0</text>
</g>
<!-- node5 -->
<g id="node6" class="node">
<title>node5</title>
<polygon fill="lightgrey" stroke="black" points="1024.5,-109 847.5,-109 847.5,-73 1024.5,-73 1024.5,-109"/>
<text text-anchor="middle" x="936" y="-87.3" font-family="Times,serif" font-size="14.00">#5 arg3 : int Order : 7</text>
</g>
<!-- node0&#45;&gt;node5 -->
<g id="edge10" class="edge">
<title>node0&#45;&gt;node5</title>
<path fill="none" stroke="black" d="M1078.43,-145.99C1049.96,-136.01 1015,-123.32 986.8,-112.76"/>
<polygon fill="black" stroke="black" points="987.72,-109.36 977.13,-109.11 985.26,-115.91 987.72,-109.36"/>
<text text-anchor="middle" x="997.07" y="-103.89" font-family="Times,serif" font-size="14.00">*0</text>
</g>
<!-- node6 -->
<g id="node7" class="node">
<title>node6</title>
<polygon fill="lightgrey" stroke="black" points="1219.5,-109 1042.5,-109 1042.5,-73 1219.5,-73 1219.5,-109"/>
<text text-anchor="middle" x="1131" y="-87.3" font-family="Times,serif" font-size="14.00">#6 arg4 : int Order : 6</text>
</g>
<!-- node0&#45;&gt;node6 -->
<g id="edge12" class="edge">
<title>node0&#45;&gt;node6</title>
<path fill="none" stroke="black" d="M1125.12,-145.81C1124.28,-137.79 1124.05,-128.05 1124.42,-119.07"/>
<polygon fill="black" stroke="black" points="1127.92,-119.25 1125.14,-109.03 1120.94,-118.75 1127.92,-119.25"/>
<text text-anchor="middle" x="1132.28" y="-124.01" font-family="Times,serif" font-size="14.00">*0</text>
</g>
<!-- node7 -->
<g id="node8" class="node">
<title>node7</title>
<polygon fill="lightgrey" stroke="black" points="1426,-109 1238,-109 1238,-73 1426,-73 1426,-109"/>
<text text-anchor="middle" x="1332" y="-87.3" font-family="Times,serif" font-size="14.00">#7 arg9 : int[] Order : 5</text>
</g>
<!-- node0&#45;&gt;node7 -->
<g id="edge14" class="edge">
<title>node0&#45;&gt;node7</title>
<path fill="none" stroke="black" d="M1173.29,-145.99C1200.72,-135.92 1236.92,-123.1 1267.84,-112.48"/>
<polygon fill="black" stroke="black" points="1269.35,-115.66 1277.68,-109.11 1267.09,-109.04 1269.35,-115.66"/>
<text text-anchor="middle" x="1263.27" y="-119.28" font-family="Times,serif" font-size="14.00">*0</text>
</g>
<!-- node8 -->
<g id="node9" class="node">
<title>node8</title>
<polygon fill="lightgrey" stroke="black" points="1621.5,-109 1444.5,-109 1444.5,-73 1621.5,-73 1621.5,-109"/>
<text text-anchor="middle" x="1533" y="-87.3" font-family="Times,serif" font-size="14.00">#8 arg0 : int Order : 4</text>
</g>
<!-- node0&#45;&gt;node8 -->
<g id="edge16" class="edge">
<title>node0&#45;&gt;node8</title>
<path fill="none" stroke="black" d="M1211.28,-145.95C1306.45,-128.68 1330.55,-125.49 1426,-109 1428.7,-108.53 1431.44,-108.06 1434.21,-107.58"/>
<polygon fill="black" stroke="black" points="1435.07,-110.98 1444.33,-105.83 1433.88,-104.09 1435.07,-110.98"/>
<text text-anchor="middle" x="1427.91" y="-113.55" font-family="Times,serif" font-size="14.00">*0</text>
</g>
<!-- node9 -->
<g id="node10" class="node">
<title>node9</title>
<polygon fill="lightgrey" stroke="black" points="1828.5,-109 1639.5,-109 1639.5,-73 1828.5,-73 1828.5,-109"/>
<text text-anchor="middle" x="1734" y="-87.3" font-family="Times,serif" font-size="14.00">#9 arg6 : float Order : 3</text>
</g>
<!-- node0&#45;&gt;node9 -->
<g id="edge18" class="edge">
<title>node0&#45;&gt;node9</title>
<path fill="none" stroke="black" d="M1211.27,-145.96C1392.68,-120.55 1440.15,-132.16 1622,-109 1624.39,-108.7 1626.81,-108.38 1629.25,-108.05"/>
<polygon fill="black" stroke="black" points="1629.96,-111.48 1639.38,-106.63 1628.99,-104.55 1629.96,-111.48"/>
<text text-anchor="middle" x="1622.6" y="-113.81" font-family="Times,serif" font-size="14.00">*0</text>
</g>
<!-- node10 -->
<g id="node11" class="node">
<title>node10</title>
<polygon fill="lightgrey" stroke="black" points="2059,-109 1847,-109 1847,-73 2059,-73 2059,-109"/>
<text text-anchor="middle" x="1953" y="-87.3" font-family="Times,serif" font-size="14.00">#10 arg8 : String Order : 2</text>
</g>
<!-- node0&#45;&gt;node10 -->
<g id="edge20" class="edge">
<title>node0&#45;&gt;node10</title>
<path fill="none" stroke="black" d="M1211.4,-145.95C1348.19,-128.94 1692.29,-123.17 1829,-109 1831.55,-108.74 1834.12,-108.46 1836.72,-108.16"/>
<polygon fill="black" stroke="black" points="1837.32,-111.62 1846.84,-106.97 1836.5,-104.67 1837.32,-111.62"/>
<text text-anchor="middle" x="1829.83" y="-113.79" font-family="Times,serif" font-size="14.00">*0</text>
</g>
<!-- node11 -->
<g id="node12" class="node">
<title>node11</title>
<polygon fill="lightgrey" stroke="black" points="2274.5,-109 2077.5,-109 2077.5,-73 2274.5,-73 2274.5,-109"/>
<text text-anchor="middle" x="2176" y="-87.3" font-family="Times,serif" font-size="14.00">#11 LabelNode Order : 1</text>
</g>
<!-- node0&#45;&gt;node11 -->
<g id="edge22" class="edge">
<title>node0&#45;&gt;node11</title>
<path fill="none" stroke="red" d="M1211.27,-145.97C1398.81,-124.14 1871.41,-127.8 2059,-109 2061.7,-108.73 2064.43,-108.44 2067.18,-108.12"/>
<polygon fill="red" stroke="red" points="2067.73,-111.58 2077.25,-106.92 2066.9,-104.63 2067.73,-111.58"/>
</g>
<!-- node12 -->
<g id="node13" class="node">
<title>node12</title>
<polygon fill="lightgrey" stroke="black" points="2297,-36 2055,-36 2055,0 2297,0 2297,-36"/>
<text text-anchor="middle" x="2176" y="-14.3" font-family="Times,serif" font-size="14.00">#12 ReturnValue : int Order : 9</text>
</g>
<!-- node0&#45;&gt;node12 -->
<g id="edge26" class="edge">
<title>node0&#45;&gt;node12</title>
<path fill="none" stroke="green" d="M1211.35,-145.96C1273.54,-139.45 2233.99,-151.46 2275,-109 2286.12,-97.49 2283.41,-86.61 2275,-73 2266.33,-58.97 2252.79,-48.46 2238.45,-40.64"/>
<polygon fill="green" stroke="green" points="2239.96,-37.48 2229.46,-36.11 2236.81,-43.73 2239.96,-37.48"/>
</g>
<!-- node1&#45;&gt;node0 -->
<g id="edge1" class="edge">
<title>node1&#45;&gt;node0</title>
<path fill="none" stroke="fuchsia" stroke-width="2" d="M186.21,-106.76C192.23,-107.59 198.2,-108.35 204,-109 508.17,-143.02 870.48,-156.2 1037.86,-160.8"/>
<polygon fill="fuchsia" stroke="fuchsia" stroke-width="2" points="1037.78,-164.3 1047.87,-161.07 1037.97,-157.3 1037.78,-164.3"/>
</g>
<!-- node2&#45;&gt;node0 -->
<g id="edge3" class="edge">
<title>node2&#45;&gt;node0</title>
<path fill="none" stroke="fuchsia" stroke-width="2" d="M401.53,-106.79C407.44,-107.59 413.3,-108.34 419,-109 640.37,-134.83 901.51,-150.81 1037.75,-158.17"/>
<polygon fill="fuchsia" stroke="fuchsia" stroke-width="2" points="1037.57,-161.67 1047.74,-158.71 1037.94,-154.68 1037.57,-161.67"/>
</g>
<!-- node3&#45;&gt;node0 -->
<g id="edge5" class="edge">
<title>node3&#45;&gt;node0</title>
<path fill="none" stroke="fuchsia" stroke-width="2" d="M634.68,-106.71C640.54,-107.5 646.35,-108.27 652,-109 785.91,-126.22 940.93,-142.8 1037.54,-152.94"/>
<polygon fill="fuchsia" stroke="fuchsia" stroke-width="2" points="1037.27,-156.43 1047.58,-154 1038,-149.47 1037.27,-156.43"/>
</g>
<!-- node4&#45;&gt;node0 -->
<g id="edge7" class="edge">
<title>node4&#45;&gt;node0</title>
<path fill="none" stroke="fuchsia" stroke-width="2" d="M829.58,-107.1C891.75,-118.17 974.67,-133.25 1037.83,-144.95"/>
<polygon fill="fuchsia" stroke="fuchsia" stroke-width="2" points="1037.32,-148.42 1047.79,-146.8 1038.59,-141.53 1037.32,-148.42"/>
</g>
<!-- node4&#45;&gt;node12 -->
<g id="edge24" class="edge">
<title>node4&#45;&gt;node12</title>
<path fill="none" stroke="black" d="M829.74,-73.96C832.52,-73.61 835.28,-73.29 838,-73 1278.38,-25.74 1804.32,-18.91 2044.58,-18.51"/>
<polygon fill="black" stroke="black" points="2044.76,-22.01 2054.76,-18.5 2044.75,-15.01 2044.76,-22.01"/>
<text text-anchor="middle" x="2036.64" y="-23.28" font-family="Times,serif" font-size="14.00">*0</text>
</g>
<!-- node5&#45;&gt;node0 -->
<g id="edge9" class="edge">
<title>node5&#45;&gt;node0</title>
<path fill="none" stroke="fuchsia" stroke-width="2" d="M988.87,-109.11C1017.39,-119.11 1052.35,-131.81 1080.5,-142.36"/>
<polygon fill="fuchsia" stroke="fuchsia" stroke-width="2" points="1079.56,-145.74 1090.15,-145.99 1082.03,-139.19 1079.56,-145.74"/>
</g>
<!-- node6&#45;&gt;node0 -->
<g id="edge11" class="edge">
<title>node6&#45;&gt;node0</title>
<path fill="none" stroke="fuchsia" stroke-width="2" d="M1136.86,-109.03C1137.71,-117.03 1137.95,-126.77 1137.59,-135.75"/>
<polygon fill="fuchsia" stroke="fuchsia" stroke-width="2" points="1134.09,-135.59 1136.88,-145.81 1141.07,-136.08 1134.09,-135.59"/>
</g>
<!-- node7&#45;&gt;node0 -->
<g id="edge13" class="edge">
<title>node7&#45;&gt;node0</title>
<path fill="none" stroke="fuchsia" stroke-width="2" d="M1289.42,-109.11C1261.92,-119.2 1225.72,-132.03 1194.83,-142.63"/>
<polygon fill="fuchsia" stroke="fuchsia" stroke-width="2" points="1193.33,-139.45 1185,-145.99 1195.6,-146.07 1193.33,-139.45"/>
</g>
<!-- node8&#45;&gt;node0 -->
<g id="edge15" class="edge">
<title>node8&#45;&gt;node0</title>
<path fill="none" stroke="fuchsia" stroke-width="2" d="M1444.26,-108.96C1444.17,-108.97 1444.09,-108.99 1444,-109 1348.46,-125.51 1324.4,-128.68 1229,-146 1227.5,-146.27 1225.99,-146.55 1224.46,-146.83"/>
<polygon fill="fuchsia" stroke="fuchsia" stroke-width="2" points="1223.47,-143.45 1214.27,-148.71 1224.73,-150.34 1223.47,-143.45"/>
</g>
<!-- node9&#45;&gt;node0 -->
<g id="edge17" class="edge">
<title>node9&#45;&gt;node0</title>
<path fill="none" stroke="fuchsia" stroke-width="2" d="M1639.73,-109.03C1458.02,-132.16 1410.54,-120.55 1229,-146 1227.49,-146.21 1225.97,-146.43 1224.44,-146.66"/>
<polygon fill="fuchsia" stroke="fuchsia" stroke-width="2" points="1223.53,-143.26 1214.19,-148.26 1224.61,-150.17 1223.53,-143.26"/>
</g>
<!-- node10&#45;&gt;node0 -->
<g id="edge19" class="edge">
<title>node10&#45;&gt;node0</title>
<path fill="none" stroke="fuchsia" stroke-width="2" d="M1847.3,-108.97C1847.2,-108.98 1847.1,-108.99 1847,-109 1710.15,-123.18 1365.52,-128.95 1229,-146 1227.49,-146.19 1225.96,-146.39 1224.43,-146.6"/>
<polygon fill="fuchsia" stroke="fuchsia" stroke-width="2" points="1223.56,-143.18 1214.17,-148.09 1224.57,-150.11 1223.56,-143.18"/>
</g>
<!-- node11&#45;&gt;node0 -->
<g id="edge21" class="edge">
<title>node11&#45;&gt;node0</title>
<path fill="none" stroke="fuchsia" stroke-width="2" d="M2077.28,-108.97C2077.19,-108.98 2077.09,-108.99 2077,-109 1889.32,-127.81 1416.35,-124.14 1229,-146 1227.49,-146.18 1225.96,-146.36 1224.42,-146.56"/>
<polygon fill="fuchsia" stroke="fuchsia" stroke-width="2" points="1223.58,-143.15 1214.16,-148 1224.55,-150.08 1223.58,-143.15"/>
</g>
<!-- node11&#45;&gt;node12 -->
<g id="edge25" class="edge">
<title>node11&#45;&gt;node12</title>
<path fill="none" stroke="red" d="M2176,-72.81C2176,-64.79 2176,-55.05 2176,-46.07"/>
<polygon fill="red" stroke="red" points="2179.5,-46.03 2176,-36.03 2172.5,-46.03 2179.5,-46.03"/>
</g>
<!-- node12&#45;&gt;node0 -->
<g id="edge23" class="edge">
<title>node12&#45;&gt;node0</title>
<path fill="none" stroke="fuchsia" stroke-width="2" d="M2246.54,-36.11C2264.96,-44.26 2282.53,-56.06 2293,-73 2301.41,-86.61 2304.12,-97.49 2293,-109 2251.91,-151.54 1287.78,-139.4 1229,-146 1227.49,-146.17 1225.96,-146.35 1224.42,-146.54"/>
<polygon fill="fuchsia" stroke="fuchsia" stroke-width="2" points="1223.59,-143.12 1214.15,-147.95 1224.54,-150.06 1223.59,-143.12"/>
</g>
<!-- c0 -->
<!-- c1 -->
<!-- c0&#45;&gt;c1 -->
<g id="edge27" class="edge">
<title>c0&#45;&gt;c1</title>
<path fill="none" stroke="red" d="M2082.89,-164C2094.11,-164 2152.24,-164 2177.86,-164"/>
<polygon fill="red" stroke="red" points="2178.06,-167.5 2188.06,-164 2178.06,-160.5 2178.06,-167.5"/>
<text text-anchor="middle" x="2135.5" y="-170.8" font-family="Times,serif" font-size="14.00">Control flow</text>
</g>
<!-- c2 -->
<!-- c3 -->
<!-- c2&#45;&gt;c3 -->
<g id="edge28" class="edge">
<title>c2&#45;&gt;c3</title>
<path fill="none" stroke="red" stroke-dasharray="5,2" d="M1876.08,-164C1893.05,-164 2009.21,-164 2047.08,-164"/>
<polygon fill="red" stroke="red" points="2047.17,-167.5 2057.17,-164 2047.17,-160.5 2047.17,-167.5"/>
<text text-anchor="middle" x="1966.5" y="-170.8" font-family="Times,serif" font-size="14.00">Control flow back edge</text>
</g>
<!-- d0 -->
<!-- d1 -->
<!-- d0&#45;&gt;d1 -->
<g id="edge29" class="edge">
<title>d0&#45;&gt;d1</title>
<path fill="none" stroke="black" d="M1764.86,-164C1774.41,-164 1818.31,-164 1839.92,-164"/>
<polygon fill="black" stroke="black" points="1840.15,-167.5 1850.15,-164 1840.15,-160.5 1840.15,-167.5"/>
<text text-anchor="middle" x="1807.5" y="-170.8" font-family="Times,serif" font-size="14.00">Data flow</text>
</g>
<!-- d2 -->
<!-- d3 -->
<!-- d2&#45;&gt;d3 -->
<g id="edge30" class="edge">
<title>d2&#45;&gt;d3</title>
<path fill="none" stroke="black" stroke-dasharray="1,5" d="M1638.81,-164C1649.46,-164 1704.46,-164 1729.08,-164"/>
<polygon fill="black" stroke="black" points="1729.15,-167.5 1739.15,-164 1729.15,-160.5 1729.15,-167.5"/>
<text text-anchor="middle" x="1689" y="-170.8" font-family="Times,serif" font-size="14.00">Declaration</text>
</g>
<!-- d4 -->
<!-- d5 -->
<!-- d4&#45;&gt;d5 -->
<g id="edge31" class="edge">
<title>d4&#45;&gt;d5</title>
<path fill="none" stroke="blue" d="M1496.1,-164C1508.72,-164 1574.88,-164 1602.68,-164"/>
<polygon fill="blue" stroke="blue" points="1602.84,-167.5 1612.84,-164 1602.84,-160.5 1602.84,-167.5"/>
<text text-anchor="middle" x="1554.5" y="-170.8" font-family="Times,serif" font-size="14.00">PHI Data flow</text>
</g>
<!-- d6 -->
<!-- d7 -->
<!-- d6&#45;&gt;d7 -->
<g id="edge32" class="edge">
<title>d6&#45;&gt;d7</title>
<path fill="none" stroke="green" d="M1359,-164C1370.94,-164 1433.3,-164 1459.93,-164"/>
<polygon fill="green" stroke="green" points="1459.95,-167.5 1469.95,-164 1459.95,-160.5 1459.95,-167.5"/>
<text text-anchor="middle" x="1414.5" y="-170.8" font-family="Times,serif" font-size="14.00">Memory flow</text>
</g>
<!-- d8 -->
<!-- d9 -->
<!-- d8&#45;&gt;d9 -->
<g id="edge33" class="edge">
<title>d8&#45;&gt;d9</title>
<path fill="none" stroke="fuchsia" d="M1236.11,-164C1247.15,-164 1298.67,-164 1322.66,-164"/>
<polygon fill="fuchsia" stroke="fuchsia" points="1322.9,-167.5 1332.9,-164 1322.9,-160.5 1322.9,-167.5"/>
<text text-anchor="middle" x="1284.5" y="-170.8" font-family="Times,serif" font-size="14.00">Dominance</text>
</g>
</g>
</svg>
