<?xml version="1.0" encoding="UTF-8" standalone="no"?>
<!DOCTYPE svg PUBLIC "-//W3C//DTD SVG 1.1//EN"
 "http://www.w3.org/Graphics/SVG/1.1/DTD/svg11.dtd">
<!-- Generated by graphviz version 2.43.0 (0)
 -->
<!-- Title: debugoutput Pages: 1 -->
<svg width="2307pt" height="213pt"
 viewBox="0.00 0.00 2307.49 212.80" xmlns="http://www.w3.org/2000/svg" xmlns:xlink="http://www.w3.org/1999/xlink">
<g id="graph0" class="graph" transform="scale(1 1) rotate(0) translate(4 208.8)">
<title>debugoutput</title>
<polygon fill="white" stroke="transparent" points="-4,4 -4,-208.8 2303.49,-208.8 2303.49,4 -4,4"/>
<g id="clust1" class="cluster">
<title>cluster_000</title>
<polygon fill="none" stroke="black" points="1201,-154.2 1201,-196.8 2177,-196.8 2177,-154.2 1201,-154.2"/>
<text text-anchor="middle" x="1689" y="-181.6" font-family="Times,serif" font-size="14.00">Legend</text>
</g>
<!-- node0 -->
<g id="node1" class="node">
<title>node0</title>
<polygon fill="lightgrey" stroke="black" points="1191,-182 1025,-182 1025,-146 1191,-146 1191,-182"/>
<text text-anchor="middle" x="1108" y="-160.3" font-family="Times,serif" font-size="14.00">#0 Method Order : 0</text>
</g>
<!-- node1 -->
<g id="node2" class="node">
<title>node1</title>
<polygon fill="lightgrey" stroke="black" points="186,-109 0,-109 0,-73 186,-73 186,-109"/>
<text text-anchor="middle" x="93" y="-87.3" font-family="Times,serif" font-size="14.00">#1 arg2 : int Order : 12</text>
</g>
<!-- node0&#45;&gt;node1 -->
<g id="edge2" class="edge">
<title>node0&#45;&gt;node1</title>
<path fill="none" stroke="black" d="M1024.89,-161.17C864.58,-156.9 501.79,-143.95 195.68,-110.08"/>
<polygon fill="black" stroke="black" points="196.06,-106.6 185.73,-108.97 195.28,-113.56 196.06,-106.6"/>
<text text-anchor="middle" x="204.68" y="-98.88" font-family="Times,serif" font-size="14.00">*0</text>
</g>
<!-- node2 -->
<g id="node3" class="node">
<title>node2</title>
<polygon fill="lightgrey" stroke="black" points="401.5,-109 204.5,-109 204.5,-73 401.5,-73 401.5,-109"/>
<text text-anchor="middle" x="303" y="-87.3" font-family="Times,serif" font-size="14.00">#2 arg9 : int[] Order : 11</text>
</g>
<!-- node0&#45;&gt;node2 -->
<g id="edge4" class="edge">
<title>node0&#45;&gt;node2</title>
<path fill="none" stroke="black" d="M1024.9,-158.99C894.56,-151.99 634.24,-135.79 411.94,-110.16"/>
<polygon fill="black" stroke="black" points="412.05,-106.65 401.72,-108.97 411.25,-113.6 412.05,-106.65"/>
<text text-anchor="middle" x="420.7" y="-98.96" font-family="Times,serif" font-size="14.00">*0</text>
</g>
<!-- node3 -->
<g id="node4" class="node">
<title>node3</title>
<polygon fill="lightgrey" stroke="black" points="606,-109 420,-109 420,-73 606,-73 606,-109"/>
<text text-anchor="middle" x="513" y="-87.3" font-family="Times,serif" font-size="14.00">#3 arg0 : int Order : 10</text>
</g>
<!-- node0&#45;&gt;node3 -->
<g id="edge6" class="edge">
<title>node0&#45;&gt;node3</title>
<path fill="none" stroke="black" d="M1024.98,-156C927.3,-147.02 760.25,-130.23 615.38,-110.43"/>
<polygon fill="black" stroke="black" points="615.82,-106.96 605.43,-109.06 614.86,-113.89 615.82,-106.96"/>
<text text-anchor="middle" x="624.54" y="-99.46" font-family="Times,serif" font-size="14.00">*0</text>
</g>
<!-- node4 -->
<g id="node5" class="node">
<title>node4</title>
<polygon fill="lightgrey" stroke="black" points="800.5,-109 623.5,-109 623.5,-73 800.5,-73 800.5,-109"/>
<text text-anchor="middle" x="712" y="-87.3" font-family="Times,serif" font-size="14.00">#4 arg3 : int Order : 9</text>
</g>
<!-- node0&#45;&gt;node4 -->
<g id="edge8" class="edge">
<title>node0&#45;&gt;node4</title>
<path fill="none" stroke="black" d="M1024.74,-149.06C962.32,-138.13 876.72,-122.81 810.83,-110.8"/>
<polygon fill="black" stroke="black" points="811.31,-107.33 800.84,-108.98 810.05,-114.22 811.31,-107.33"/>
<text text-anchor="middle" x="820.19" y="-100.22" font-family="Times,serif" font-size="14.00">*0</text>
</g>
<!-- node5 -->
<g id="node6" class="node">
<title>node5</title>
<polygon fill="lightgrey" stroke="black" points="995.5,-109 818.5,-109 818.5,-73 995.5,-73 995.5,-109"/>
<text text-anchor="middle" x="907" y="-87.3" font-family="Times,serif" font-size="14.00">#5 arg4 : int Order : 8</text>
</g>
<!-- node0&#45;&gt;node5 -->
<g id="edge10" class="edge">
<title>node0&#45;&gt;node5</title>
<path fill="none" stroke="black" d="M1054,-145.99C1024.55,-135.97 988.33,-123.21 959.17,-112.62"/>
<polygon fill="black" stroke="black" points="960.17,-109.26 949.58,-109.11 957.77,-115.83 960.17,-109.26"/>
<text text-anchor="middle" x="969.5" y="-103.69" font-family="Times,serif" font-size="14.00">*0</text>
</g>
<!-- node6 -->
<g id="node7" class="node">
<title>node6</title>
<polygon fill="lightgrey" stroke="black" points="1202.5,-109 1013.5,-109 1013.5,-73 1202.5,-73 1202.5,-109"/>
<text text-anchor="middle" x="1108" y="-87.3" font-family="Times,serif" font-size="14.00">#6 arg6 : float Order : 7</text>
</g>
<!-- node0&#45;&gt;node6 -->
<g id="edge12" class="edge">
<title>node0&#45;&gt;node6</title>
<path fill="none" stroke="black" d="M1102.12,-145.81C1101.28,-137.79 1101.05,-128.05 1101.42,-119.07"/>
<polygon fill="black" stroke="black" points="1104.92,-119.25 1102.14,-109.03 1097.94,-118.75 1104.92,-119.25"/>
<text text-anchor="middle" x="1109.28" y="-124.01" font-family="Times,serif" font-size="14.00">*0</text>
</g>
<!-- node7 -->
<g id="node8" class="node">
<title>node7</title>
<polygon fill="lightgrey" stroke="black" points="1427,-109 1221,-109 1221,-73 1427,-73 1427,-109"/>
<text text-anchor="middle" x="1324" y="-87.3" font-family="Times,serif" font-size="14.00">#7 arg7 : double Order : 6</text>
</g>
<!-- node0&#45;&gt;node7 -->
<g id="edge14" class="edge">
<title>node0&#45;&gt;node7</title>
<path fill="none" stroke="black" d="M1153.88,-145.99C1183.7,-135.84 1223.02,-122.88 1256.38,-112.2"/>
<polygon fill="black" stroke="black" points="1257.6,-115.49 1266.07,-109.11 1255.47,-108.82 1257.6,-115.49"/>
<text text-anchor="middle" x="1251.36" y="-118.97" font-family="Times,serif" font-size="14.00">*0</text>
</g>
<!-- node8 -->
<g id="node9" class="node">
<title>node8</title>
<polygon fill="lightgrey" stroke="black" points="1633,-109 1445,-109 1445,-73 1633,-73 1633,-109"/>
<text text-anchor="middle" x="1539" y="-87.3" font-family="Times,serif" font-size="14.00">#8 arg5 : long Order : 5</text>
</g>
<!-- node0&#45;&gt;node8 -->
<g id="edge16" class="edge">
<title>node0&#45;&gt;node8</title>
<path fill="none" stroke="black" d="M1188.31,-145.95C1293.97,-127.69 1320.96,-125.96 1427,-109 1429.54,-108.59 1432.12,-108.18 1434.73,-107.76"/>
<polygon fill="black" stroke="black" points="1435.56,-111.17 1444.88,-106.12 1434.45,-104.26 1435.56,-111.17"/>
<text text-anchor="middle" x="1428.33" y="-113.65" font-family="Times,serif" font-size="14.00">*0</text>
</g>
<!-- node9 -->
<g id="node10" class="node">
<title>node9</title>
<polygon fill="lightgrey" stroke="black" points="1828.5,-109 1651.5,-109 1651.5,-73 1828.5,-73 1828.5,-109"/>
<text text-anchor="middle" x="1740" y="-87.3" font-family="Times,serif" font-size="14.00">#9 arg1 : int Order : 3</text>
</g>
<!-- node0&#45;&gt;node9 -->
<g id="edge18" class="edge">
<title>node0&#45;&gt;node9</title>
<path fill="none" stroke="black" d="M1188.29,-145.96C1384.68,-119.14 1436.24,-134.19 1633,-109 1635.72,-108.65 1638.47,-108.28 1641.25,-107.89"/>
<polygon fill="black" stroke="black" points="1642.03,-111.32 1651.42,-106.42 1641.02,-104.39 1642.03,-111.32"/>
<text text-anchor="middle" x="1634.7" y="-113.69" font-family="Times,serif" font-size="14.00">*0</text>
</g>
<!-- node10 -->
<g id="node11" class="node">
<title>node10</title>
<polygon fill="lightgrey" stroke="black" points="2058,-109 1846,-109 1846,-73 2058,-73 2058,-109"/>
<text text-anchor="middle" x="1952" y="-87.3" font-family="Times,serif" font-size="14.00">#10 arg8 : String Order : 2</text>
</g>
<!-- node0&#45;&gt;node10 -->
<g id="edge20" class="edge">
<title>node0&#45;&gt;node10</title>
<path fill="none" stroke="black" d="M1188.42,-145.95C1330.3,-128.46 1687.21,-123.63 1829,-109 1831.22,-108.77 1833.47,-108.53 1835.73,-108.28"/>
<polygon fill="black" stroke="black" points="1836.23,-111.74 1845.76,-107.1 1835.42,-104.79 1836.23,-111.74"/>
<text text-anchor="middle" x="1828.74" y="-113.9" font-family="Times,serif" font-size="14.00">*0</text>
</g>
<!-- node11 -->
<g id="node12" class="node">
<title>node11</title>
<polygon fill="lightgrey" stroke="black" points="2273.5,-109 2076.5,-109 2076.5,-73 2273.5,-73 2273.5,-109"/>
<text text-anchor="middle" x="2175" y="-87.3" font-family="Times,serif" font-size="14.00">#11 LabelNode Order : 1</text>
</g>
<!-- node0&#45;&gt;node11 -->
<g id="edge22" class="edge">
<title>node0&#45;&gt;node11</title>
<path fill="none" stroke="red" d="M1188.28,-145.97C1380.69,-123.68 1865.54,-128.18 2058,-109 2060.7,-108.73 2063.43,-108.44 2066.18,-108.13"/>
<polygon fill="red" stroke="red" points="2066.73,-111.59 2076.25,-106.92 2065.9,-104.64 2066.73,-111.59"/>
</g>
<!-- node12 -->
<g id="node13" class="node">
<title>node12</title>
<polygon fill="lightgrey" stroke="black" points="2296,-36 2054,-36 2054,0 2296,0 2296,-36"/>
<text text-anchor="middle" x="2175" y="-14.3" font-family="Times,serif" font-size="14.00">#12 ReturnValue : int Order : 4</text>
</g>
<!-- node0&#45;&gt;node12 -->
<g id="edge26" class="edge">
<title>node0&#45;&gt;node12</title>
<path fill="none" stroke="green" d="M1188.36,-145.96C1251.83,-139.34 2232.13,-152.32 2274,-109 2285.12,-97.5 2282.41,-86.61 2274,-73 2265.33,-58.97 2251.79,-48.46 2237.45,-40.64"/>
<polygon fill="green" stroke="green" points="2238.96,-37.48 2228.46,-36.11 2235.81,-43.73 2238.96,-37.48"/>
</g>
<!-- node1&#45;&gt;node0 -->
<g id="edge1" class="edge">
<title>node1&#45;&gt;node0</title>
<path fill="none" stroke="fuchsia" stroke-width="2" d="M186.21,-106.75C192.23,-107.59 198.2,-108.35 204,-109 499.19,-142.23 850.53,-155.73 1014.79,-160.59"/>
<polygon fill="fuchsia" stroke="fuchsia" stroke-width="2" points="1014.76,-164.09 1024.86,-160.89 1014.97,-157.1 1014.76,-164.09"/>
</g>
<!-- node2&#45;&gt;node0 -->
<g id="edge3" class="edge">
<title>node2&#45;&gt;node0</title>
<path fill="none" stroke="fuchsia" stroke-width="2" d="M401.78,-106.68C407.95,-107.52 414.06,-108.3 420,-109 632.2,-133.88 882.15,-150.08 1014.66,-157.77"/>
<polygon fill="fuchsia" stroke="fuchsia" stroke-width="2" points="1014.59,-161.27 1024.78,-158.35 1014.99,-154.28 1014.59,-161.27"/>
</g>
<!-- node3&#45;&gt;node0 -->
<g id="edge5" class="edge">
<title>node3&#45;&gt;node0</title>
<path fill="none" stroke="fuchsia" stroke-width="2" d="M606.25,-106.56C611.92,-107.42 617.54,-108.24 623,-109 758.98,-127.86 916.77,-144.14 1014.56,-153.76"/>
<polygon fill="fuchsia" stroke="fuchsia" stroke-width="2" points="1014.42,-157.26 1024.72,-154.75 1015.11,-150.29 1014.42,-157.26"/>
</g>
<!-- node4&#45;&gt;node0 -->
<g id="edge7" class="edge">
<title>node4&#45;&gt;node0</title>
<path fill="none" stroke="fuchsia" stroke-width="2" d="M800.78,-106.91C864.45,-118.08 950,-133.4 1014.68,-145.2"/>
<polygon fill="fuchsia" stroke="fuchsia" stroke-width="2" points="1014.4,-148.71 1024.87,-147.07 1015.66,-141.82 1014.4,-148.71"/>
</g>
<!-- node5&#45;&gt;node0 -->
<g id="edge9" class="edge">
<title>node5&#45;&gt;node0</title>
<path fill="none" stroke="fuchsia" stroke-width="2" d="M961.32,-109.11C990.81,-119.16 1027.03,-131.92 1056.14,-142.5"/>
<polygon fill="fuchsia" stroke="fuchsia" stroke-width="2" points="1055.12,-145.85 1065.71,-145.99 1057.52,-139.28 1055.12,-145.85"/>
</g>
<!-- node6&#45;&gt;node0 -->
<g id="edge11" class="edge">
<title>node6&#45;&gt;node0</title>
<path fill="none" stroke="fuchsia" stroke-width="2" d="M1113.86,-109.03C1114.71,-117.03 1114.95,-126.77 1114.59,-135.75"/>
<polygon fill="fuchsia" stroke="fuchsia" stroke-width="2" points="1111.09,-135.59 1113.88,-145.81 1118.07,-136.08 1111.09,-135.59"/>
</g>
<!-- node7&#45;&gt;node0 -->
<g id="edge13" class="edge">
<title>node7&#45;&gt;node0</title>
<path fill="none" stroke="fuchsia" stroke-width="2" d="M1277.81,-109.11C1247.92,-119.29 1208.59,-132.25 1175.27,-142.91"/>
<polygon fill="fuchsia" stroke="fuchsia" stroke-width="2" points="1174.06,-139.62 1165.6,-145.99 1176.19,-146.29 1174.06,-139.62"/>
</g>
<!-- node8&#45;&gt;node0 -->
<g id="edge15" class="edge">
<title>node8&#45;&gt;node0</title>
<path fill="none" stroke="fuchsia" stroke-width="2" d="M1444.69,-109.05C1338.81,-125.98 1311.81,-127.71 1206,-146 1204.5,-146.26 1202.98,-146.52 1201.46,-146.79"/>
<polygon fill="fuchsia" stroke="fuchsia" stroke-width="2" points="1200.48,-143.41 1191.25,-148.61 1201.71,-150.3 1200.48,-143.41"/>
</g>
<!-- node9&#45;&gt;node0 -->
<g id="edge17" class="edge">
<title>node9&#45;&gt;node0</title>
<path fill="none" stroke="fuchsia" stroke-width="2" d="M1651.26,-108.97C1651.17,-108.98 1651.09,-108.99 1651,-109 1454.15,-134.21 1402.63,-119.12 1206,-146 1204.49,-146.21 1202.97,-146.42 1201.43,-146.64"/>
<polygon fill="fuchsia" stroke="fuchsia" stroke-width="2" points="1200.54,-143.24 1191.19,-148.22 1201.6,-150.16 1200.54,-143.24"/>
</g>
<!-- node9&#45;&gt;node12 -->
<g id="edge24" class="edge">
<title>node9&#45;&gt;node12</title>
<path fill="none" stroke="black" d="M1828.54,-74.43C1831.39,-73.94 1834.22,-73.47 1837,-73 1909.46,-60.86 1990.77,-47.85 2055.47,-37.65"/>
<polygon fill="black" stroke="black" points="2056.38,-41.05 2065.71,-36.03 2055.29,-34.13 2056.38,-41.05"/>
<text text-anchor="middle" x="2049.12" y="-43.5" font-family="Times,serif" font-size="14.00">*0</text>
</g>
<!-- node10&#45;&gt;node0 -->
<g id="edge19" class="edge">
<title>node10&#45;&gt;node0</title>
<path fill="none" stroke="fuchsia" stroke-width="2" d="M1846.58,-109.04C1704.37,-123.66 1347.46,-128.48 1206,-146 1204.49,-146.19 1202.96,-146.38 1201.43,-146.59"/>
<polygon fill="fuchsia" stroke="fuchsia" stroke-width="2" points="1200.56,-143.18 1191.17,-148.08 1201.57,-150.11 1200.56,-143.18"/>
</g>
<!-- node11&#45;&gt;node0 -->
<g id="edge21" class="edge">
<title>node11&#45;&gt;node0</title>
<path fill="none" stroke="fuchsia" stroke-width="2" d="M2076.28,-108.97C2076.19,-108.98 2076.09,-108.99 2076,-109 1883.45,-128.19 1398.22,-123.68 1206,-146 1204.49,-146.18 1202.96,-146.36 1201.42,-146.56"/>
<polygon fill="fuchsia" stroke="fuchsia" stroke-width="2" points="1200.58,-143.14 1191.16,-147.99 1201.55,-150.08 1200.58,-143.14"/>
</g>
<!-- node11&#45;&gt;node12 -->
<g id="edge25" class="edge">
<title>node11&#45;&gt;node12</title>
<path fill="none" stroke="red" d="M2175,-72.81C2175,-64.79 2175,-55.05 2175,-46.07"/>
<polygon fill="red" stroke="red" points="2178.5,-46.03 2175,-36.03 2171.5,-46.03 2178.5,-46.03"/>
</g>
<!-- node12&#45;&gt;node0 -->
<g id="edge23" class="edge">
<title>node12&#45;&gt;node0</title>
<path fill="none" stroke="fuchsia" stroke-width="2" d="M2245.54,-36.11C2263.96,-44.26 2281.53,-56.06 2292,-73 2300.41,-86.61 2303.12,-97.5 2292,-109 2250.05,-152.41 1265.99,-139.29 1206,-146 1204.49,-146.17 1202.96,-146.35 1201.42,-146.54"/>
<polygon fill="fuchsia" stroke="fuchsia" stroke-width="2" points="1200.59,-143.12 1191.15,-147.94 1201.54,-150.06 1200.59,-143.12"/>
</g>
<!-- c0 -->
<!-- c1 -->
<!-- c0&#45;&gt;c1 -->
<g id="edge27" class="edge">
<title>c0&#45;&gt;c1</title>
<path fill="none" stroke="red" d="M2059.89,-164C2071.11,-164 2129.24,-164 2154.86,-164"/>
<polygon fill="red" stroke="red" points="2155.06,-167.5 2165.06,-164 2155.06,-160.5 2155.06,-167.5"/>
<text text-anchor="middle" x="2112.5" y="-170.8" font-family="Times,serif" font-size="14.00">Control flow</text>
</g>
<!-- c2 -->
<!-- c3 -->
<!-- c2&#45;&gt;c3 -->
<g id="edge28" class="edge">
<title>c2&#45;&gt;c3</title>
<path fill="none" stroke="red" stroke-dasharray="5,2" d="M1853.08,-164C1870.05,-164 1986.21,-164 2024.08,-164"/>
<polygon fill="red" stroke="red" points="2024.17,-167.5 2034.17,-164 2024.17,-160.5 2024.17,-167.5"/>
<text text-anchor="middle" x="1943.5" y="-170.8" font-family="Times,serif" font-size="14.00">Control flow back edge</text>
</g>
<!-- d0 -->
<!-- d1 -->
<!-- d0&#45;&gt;d1 -->
<g id="edge29" class="edge">
<title>d0&#45;&gt;d1</title>
<path fill="none" stroke="black" d="M1741.86,-164C1751.41,-164 1795.31,-164 1816.92,-164"/>
<polygon fill="black" stroke="black" points="1817.15,-167.5 1827.15,-164 1817.15,-160.5 1817.15,-167.5"/>
<text text-anchor="middle" x="1784.5" y="-170.8" font-family="Times,serif" font-size="14.00">Data flow</text>
</g>
<!-- d2 -->
<!-- d3 -->
<!-- d2&#45;&gt;d3 -->
<g id="edge30" class="edge">
<title>d2&#45;&gt;d3</title>
<path fill="none" stroke="black" stroke-dasharray="1,5" d="M1615.81,-164C1626.46,-164 1681.46,-164 1706.08,-164"/>
<polygon fill="black" stroke="black" points="1706.15,-167.5 1716.15,-164 1706.15,-160.5 1706.15,-167.5"/>
<text text-anchor="middle" x="1666" y="-170.8" font-family="Times,serif" font-size="14.00">Declaration</text>
</g>
<!-- d4 -->
<!-- d5 -->
<!-- d4&#45;&gt;d5 -->
<g id="edge31" class="edge">
<title>d4&#45;&gt;d5</title>
<path fill="none" stroke="blue" d="M1473.1,-164C1485.72,-164 1551.88,-164 1579.68,-164"/>
<polygon fill="blue" stroke="blue" points="1579.84,-167.5 1589.84,-164 1579.84,-160.5 1579.84,-167.5"/>
<text text-anchor="middle" x="1531.5" y="-170.8" font-family="Times,serif" font-size="14.00">PHI Data flow</text>
</g>
<!-- d6 -->
<!-- d7 -->
<!-- d6&#45;&gt;d7 -->
<g id="edge32" class="edge">
<title>d6&#45;&gt;d7</title>
<path fill="none" stroke="green" d="M1336,-164C1347.94,-164 1410.3,-164 1436.93,-164"/>
<polygon fill="green" stroke="green" points="1436.95,-167.5 1446.95,-164 1436.95,-160.5 1436.95,-167.5"/>
<text text-anchor="middle" x="1391.5" y="-170.8" font-family="Times,serif" font-size="14.00">Memory flow</text>
</g>
<!-- d8 -->
<!-- d9 -->
<!-- d8&#45;&gt;d9 -->
<g id="edge33" class="edge">
<title>d8&#45;&gt;d9</title>
<path fill="none" stroke="fuchsia" d="M1213.11,-164C1224.15,-164 1275.67,-164 1299.66,-164"/>
<polygon fill="fuchsia" stroke="fuchsia" points="1299.9,-167.5 1309.9,-164 1299.9,-160.5 1299.9,-167.5"/>
<text text-anchor="middle" x="1261.5" y="-170.8" font-family="Times,serif" font-size="14.00">Dominance</text>
</g>
</g>
</svg>
