<?xml version="1.0" encoding="UTF-8" standalone="no"?>
<!DOCTYPE svg PUBLIC "-//W3C//DTD SVG 1.1//EN"
 "http://www.w3.org/Graphics/SVG/1.1/DTD/svg11.dtd">
<!-- Generated by graphviz version 2.43.0 (0)
 -->
<!-- Title: debugoutput Pages: 1 -->
<svg width="2405pt" height="213pt"
 viewBox="0.00 0.00 2405.00 212.80" xmlns="http://www.w3.org/2000/svg" xmlns:xlink="http://www.w3.org/1999/xlink">
<g id="graph0" class="graph" transform="scale(1 1) rotate(0) translate(4 208.8)">
<title>debugoutput</title>
<polygon fill="white" stroke="transparent" points="-4,4 -4,-208.8 2401,-208.8 2401,4 -4,4"/>
<g id="clust1" class="cluster">
<title>cluster_000</title>
<polygon fill="none" stroke="black" points="1333,-154.2 1333,-196.8 2172,-196.8 2172,-154.2 1333,-154.2"/>
<text text-anchor="middle" x="1752.5" y="-181.6" font-family="Times,serif" font-size="14.00">Legend</text>
</g>
<!-- node0 -->
<g id="node1" class="node">
<title>node0</title>
<polygon fill="lightgrey" stroke="black" points="1323,-182 1157,-182 1157,-146 1323,-146 1323,-182"/>
<text text-anchor="middle" x="1240" y="-160.3" font-family="Times,serif" font-size="14.00">#0 Method Order : 0</text>
</g>
<!-- node1 -->
<g id="node2" class="node">
<title>node1</title>
<polygon fill="lightgrey" stroke="black" points="186,-109 0,-109 0,-73 186,-73 186,-109"/>
<text text-anchor="middle" x="93" y="-87.3" font-family="Times,serif" font-size="14.00">#1 arg3 : int Order : 12</text>
</g>
<!-- node0&#45;&gt;node1 -->
<g id="edge2" class="edge">
<title>node0&#45;&gt;node1</title>
<path fill="none" stroke="black" d="M1156.67,-161.98C979.7,-159.09 553.62,-148.33 195.77,-110.05"/>
<polygon fill="black" stroke="black" points="196.05,-106.56 185.73,-108.97 195.3,-113.52 196.05,-106.56"/>
<text text-anchor="middle" x="204.66" y="-98.81" font-family="Times,serif" font-size="14.00">*0</text>
</g>
<!-- node2 -->
<g id="node3" class="node">
<title>node2</title>
<polygon fill="lightgrey" stroke="black" points="390,-109 204,-109 204,-73 390,-73 390,-109"/>
<text text-anchor="middle" x="297" y="-87.3" font-family="Times,serif" font-size="14.00">#2 arg0 : int Order : 11</text>
</g>
<!-- node0&#45;&gt;node2 -->
<g id="edge4" class="edge">
<title>node0&#45;&gt;node2</title>
<path fill="none" stroke="black" d="M1156.91,-160.63C1006.2,-155.58 677.93,-141.56 400.01,-110.14"/>
<polygon fill="black" stroke="black" points="400.06,-106.63 389.73,-108.97 399.27,-113.58 400.06,-106.63"/>
<text text-anchor="middle" x="408.7" y="-98.93" font-family="Times,serif" font-size="14.00">*0</text>
</g>
<!-- node3 -->
<g id="node4" class="node">
<title>node3</title>
<polygon fill="lightgrey" stroke="black" points="594,-109 408,-109 408,-73 594,-73 594,-109"/>
<text text-anchor="middle" x="501" y="-87.3" font-family="Times,serif" font-size="14.00">#3 arg4 : int Order : 10</text>
</g>
<!-- node0&#45;&gt;node3 -->
<g id="edge6" class="edge">
<title>node0&#45;&gt;node3</title>
<path fill="none" stroke="black" d="M1156.84,-158.46C1035.51,-151.08 802.99,-134.79 603.79,-110.22"/>
<polygon fill="black" stroke="black" points="604.09,-106.73 593.73,-108.97 603.22,-113.67 604.09,-106.73"/>
<text text-anchor="middle" x="612.76" y="-99.12" font-family="Times,serif" font-size="14.00">*0</text>
</g>
<!-- node4 -->
<g id="node5" class="node">
<title>node4</title>
<polygon fill="lightgrey" stroke="black" points="800,-109 612,-109 612,-73 800,-73 800,-109"/>
<text text-anchor="middle" x="706" y="-87.3" font-family="Times,serif" font-size="14.00">#4 arg5 : long Order : 9</text>
</g>
<!-- node0&#45;&gt;node4 -->
<g id="edge8" class="edge">
<title>node0&#45;&gt;node4</title>
<path fill="none" stroke="black" d="M1156.63,-154.29C1070.41,-144.58 931.81,-127.93 810.55,-110.52"/>
<polygon fill="black" stroke="black" points="810.76,-107.02 800.36,-109.05 809.76,-113.94 810.76,-107.02"/>
<text text-anchor="middle" x="819.51" y="-99.58" font-family="Times,serif" font-size="14.00">*0</text>
</g>
<!-- node5 -->
<g id="node6" class="node">
<title>node5</title>
<polygon fill="lightgrey" stroke="black" points="1024,-109 818,-109 818,-73 1024,-73 1024,-109"/>
<text text-anchor="middle" x="921" y="-87.3" font-family="Times,serif" font-size="14.00">#5 arg7 : double Order : 8</text>
</g>
<!-- node0&#45;&gt;node5 -->
<g id="edge10" class="edge">
<title>node0&#45;&gt;node5</title>
<path fill="none" stroke="black" d="M1157.73,-145.99C1109.73,-135.56 1049.47,-122.16 1001.74,-111.32"/>
<polygon fill="black" stroke="black" points="1002.28,-107.86 991.75,-109.05 1000.72,-114.68 1002.28,-107.86"/>
<text text-anchor="middle" x="1011.3" y="-101.13" font-family="Times,serif" font-size="14.00">*0</text>
</g>
<!-- node6 -->
<g id="node7" class="node">
<title>node6</title>
<polygon fill="lightgrey" stroke="black" points="1245.5,-109 1042.5,-109 1042.5,-73 1245.5,-73 1245.5,-109"/>
<text text-anchor="middle" x="1144" y="-87.3" font-family="Times,serif" font-size="14.00">#6 arg8 : String Order : 7</text>
</g>
<!-- node0&#45;&gt;node6 -->
<g id="edge12" class="edge">
<title>node0&#45;&gt;node6</title>
<path fill="none" stroke="black" d="M1211.15,-145.99C1197.8,-136.84 1182.17,-125.41 1169.29,-115.43"/>
<polygon fill="black" stroke="black" points="1171.29,-112.55 1161.27,-109.11 1166.96,-118.05 1171.29,-112.55"/>
<text text-anchor="middle" x="1180.74" y="-109.99" font-family="Times,serif" font-size="14.00">*0</text>
</g>
<!-- node7 -->
<g id="node8" class="node">
<title>node7</title>
<polygon fill="lightgrey" stroke="black" points="1452.5,-109 1263.5,-109 1263.5,-73 1452.5,-73 1452.5,-109"/>
<text text-anchor="middle" x="1358" y="-87.3" font-family="Times,serif" font-size="14.00">#7 arg6 : float Order : 6</text>
</g>
<!-- node0&#45;&gt;node7 -->
<g id="edge14" class="edge">
<title>node0&#45;&gt;node7</title>
<path fill="none" stroke="black" d="M1262.4,-145.99C1277.19,-136.49 1296.91,-124.54 1314.63,-114.29"/>
<polygon fill="black" stroke="black" points="1316.75,-117.12 1323.69,-109.11 1313.27,-111.04 1316.75,-117.12"/>
<text text-anchor="middle" x="1312.15" y="-121.75" font-family="Times,serif" font-size="14.00">*0</text>
</g>
<!-- node8 -->
<g id="node9" class="node">
<title>node8</title>
<polygon fill="lightgrey" stroke="black" points="1647.5,-109 1470.5,-109 1470.5,-73 1647.5,-73 1647.5,-109"/>
<text text-anchor="middle" x="1559" y="-87.3" font-family="Times,serif" font-size="14.00">#8 arg1 : int Order : 4</text>
</g>
<!-- node0&#45;&gt;node8 -->
<g id="edge16" class="edge">
<title>node0&#45;&gt;node8</title>
<path fill="none" stroke="black" d="M1310.55,-145.99C1356.53,-135.51 1416.95,-122.05 1466.72,-111.19"/>
<polygon fill="black" stroke="black" points="1467.5,-114.6 1476.52,-109.05 1466.01,-107.76 1467.5,-114.6"/>
<text text-anchor="middle" x="1460.61" y="-117.47" font-family="Times,serif" font-size="14.00">*0</text>
</g>
<!-- node9 -->
<g id="node10" class="node">
<title>node9</title>
<polygon fill="lightgrey" stroke="black" points="1842.5,-109 1665.5,-109 1665.5,-73 1842.5,-73 1842.5,-109"/>
<text text-anchor="middle" x="1754" y="-87.3" font-family="Times,serif" font-size="14.00">#9 arg2 : int Order : 3</text>
</g>
<!-- node0&#45;&gt;node9 -->
<g id="edge18" class="edge">
<title>node0&#45;&gt;node9</title>
<path fill="none" stroke="black" d="M1320.42,-145.94C1465.12,-124.01 1502.94,-129.87 1648,-109 1650.48,-108.64 1652.99,-108.27 1655.53,-107.89"/>
<polygon fill="black" stroke="black" points="1656.07,-111.35 1665.42,-106.35 1655,-104.43 1656.07,-111.35"/>
<text text-anchor="middle" x="1648.8" y="-113.79" font-family="Times,serif" font-size="14.00">*0</text>
</g>
<!-- node10 -->
<g id="node11" class="node">
<title>node10</title>
<polygon fill="lightgrey" stroke="black" points="2057.5,-109 1860.5,-109 1860.5,-73 2057.5,-73 2057.5,-109"/>
<text text-anchor="middle" x="1959" y="-87.3" font-family="Times,serif" font-size="14.00">#10 arg9 : int[] Order : 2</text>
</g>
<!-- node0&#45;&gt;node10 -->
<g id="edge20" class="edge">
<title>node0&#45;&gt;node10</title>
<path fill="none" stroke="black" d="M1320.34,-145.96C1551.13,-115.88 1611.6,-135.52 1843,-109 1845.4,-108.72 1847.84,-108.43 1850.29,-108.13"/>
<polygon fill="black" stroke="black" points="1851.01,-111.57 1860.48,-106.81 1850.11,-104.62 1851.01,-111.57"/>
<text text-anchor="middle" x="1843.58" y="-113.82" font-family="Times,serif" font-size="14.00">*0</text>
</g>
<!-- node11 -->
<g id="node12" class="node">
<title>node11</title>
<polygon fill="lightgrey" stroke="black" points="2272.5,-109 2075.5,-109 2075.5,-73 2272.5,-73 2272.5,-109"/>
<text text-anchor="middle" x="2174" y="-87.3" font-family="Times,serif" font-size="14.00">#11 LabelNode Order : 1</text>
</g>
<!-- node0&#45;&gt;node11 -->
<g id="edge22" class="edge">
<title>node0&#45;&gt;node11</title>
<path fill="none" stroke="red" d="M1320.48,-145.94C1483.84,-126.44 1894.84,-126 2058,-109 2060.41,-108.75 2062.84,-108.48 2065.3,-108.2"/>
<polygon fill="red" stroke="red" points="2065.99,-111.64 2075.49,-106.95 2065.14,-104.69 2065.99,-111.64"/>
</g>
<!-- node12 -->
<g id="node13" class="node">
<title>node12</title>
<polygon fill="lightgrey" stroke="black" points="2397,-36 2155,-36 2155,0 2397,0 2397,-36"/>
<text text-anchor="middle" x="2276" y="-14.3" font-family="Times,serif" font-size="14.00">#12 ReturnValue : int Order : 5</text>
</g>
<!-- node0&#45;&gt;node12 -->
<g id="edge26" class="edge">
<title>node0&#45;&gt;node12</title>
<path fill="none" stroke="black" d="M1320.32,-145.96C1376.01,-140.01 2236.34,-147.11 2273,-109 2288.72,-92.66 2284.74,-66.02 2279.94,-45.96"/>
<polygon fill="black" stroke="black" points="2283.31,-44.99 2277.46,-36.15 2276.52,-46.7 2283.31,-44.99"/>
</g>
<!-- node1&#45;&gt;node0 -->
<g id="edge1" class="edge">
<title>node1&#45;&gt;node0</title>
<path fill="none" stroke="green" stroke-width="2" d="M186.2,-106.8C192.23,-107.62 198.2,-108.37 204,-109 550.74,-146.73 965.17,-158.24 1146.92,-161.64"/>
<polygon fill="green" stroke="green" stroke-width="2" points="1146.92,-165.14 1156.98,-161.82 1147.05,-158.14 1146.92,-165.14"/>
</g>
<!-- node2&#45;&gt;node0 -->
<g id="edge3" class="edge">
<title>node2&#45;&gt;node0</title>
<path fill="none" stroke="green" stroke-width="2" d="M390.21,-106.72C396.24,-107.56 402.2,-108.33 408,-109 675.12,-139.76 992.13,-154.18 1146.41,-159.87"/>
<polygon fill="green" stroke="green" stroke-width="2" points="1146.66,-163.39 1156.78,-160.25 1146.92,-156.39 1146.66,-163.39"/>
</g>
<!-- node3&#45;&gt;node0 -->
<g id="edge5" class="edge">
<title>node3&#45;&gt;node0</title>
<path fill="none" stroke="green" stroke-width="2" d="M594.23,-106.59C600.25,-107.46 606.21,-108.27 612,-109 801.45,-132.78 1023.95,-148.99 1146.79,-157.06"/>
<polygon fill="green" stroke="green" stroke-width="2" points="1146.7,-160.56 1156.91,-157.72 1147.16,-153.57 1146.7,-160.56"/>
</g>
<!-- node4&#45;&gt;node0 -->
<g id="edge7" class="edge">
<title>node4&#45;&gt;node0</title>
<path fill="none" stroke="green" stroke-width="2" d="M800.09,-106.31C806.16,-107.25 812.17,-108.15 818,-109 931.07,-125.41 1061.26,-141.31 1146.84,-151.55"/>
<polygon fill="green" stroke="green" stroke-width="2" points="1146.44,-155.03 1156.79,-152.74 1147.27,-148.08 1146.44,-155.03"/>
</g>
<!-- node5&#45;&gt;node0 -->
<g id="edge9" class="edge">
<title>node5&#45;&gt;node0</title>
<path fill="none" stroke="green" stroke-width="2" d="M1003.48,-109.05C1051.51,-119.5 1111.77,-132.89 1159.47,-143.72"/>
<polygon fill="green" stroke="green" stroke-width="2" points="1158.92,-147.19 1169.45,-145.99 1160.48,-140.36 1158.92,-147.19"/>
</g>
<!-- node6&#45;&gt;node0 -->
<g id="edge11" class="edge">
<title>node6&#45;&gt;node0</title>
<path fill="none" stroke="green" stroke-width="2" d="M1172.89,-109.03C1186.2,-118.16 1201.78,-129.55 1214.64,-139.51"/>
<polygon fill="green" stroke="green" stroke-width="2" points="1212.62,-142.38 1222.64,-145.81 1216.95,-136.88 1212.62,-142.38"/>
</g>
<!-- node7&#45;&gt;node0 -->
<g id="edge13" class="edge">
<title>node7&#45;&gt;node0</title>
<path fill="none" stroke="green" stroke-width="2" d="M1335.43,-109.11C1320.61,-118.63 1300.88,-130.59 1283.17,-140.82"/>
<polygon fill="green" stroke="green" stroke-width="2" points="1281.07,-137.99 1274.12,-145.99 1284.54,-144.07 1281.07,-137.99"/>
</g>
<!-- node8&#45;&gt;node0 -->
<g id="edge15" class="edge">
<title>node8&#45;&gt;node0</title>
<path fill="none" stroke="green" stroke-width="2" d="M1488.25,-109.05C1442.23,-119.54 1381.8,-133.01 1332.07,-143.86"/>
<polygon fill="green" stroke="green" stroke-width="2" points="1331.29,-140.45 1322.27,-145.99 1332.78,-147.29 1331.29,-140.45"/>
</g>
<!-- node8&#45;&gt;node12 -->
<g id="edge24" class="edge">
<title>node8&#45;&gt;node12</title>
<path fill="none" stroke="black" d="M1647.62,-74.28C1650.78,-73.83 1653.92,-73.4 1657,-73 1824.81,-51.16 2019.4,-35.81 2144.94,-27.2"/>
<polygon fill="black" stroke="black" points="2145.24,-30.68 2154.98,-26.51 2144.77,-23.7 2145.24,-30.68"/>
<text text-anchor="middle" x="2137.47" y="-32.48" font-family="Times,serif" font-size="14.00">*0</text>
</g>
<!-- node9&#45;&gt;node0 -->
<g id="edge17" class="edge">
<title>node9&#45;&gt;node0</title>
<path fill="none" stroke="green" stroke-width="2" d="M1665.57,-109.06C1520.72,-129.88 1482.9,-124.02 1338,-146 1336.49,-146.23 1334.97,-146.46 1333.44,-146.71"/>
<polygon fill="green" stroke="green" stroke-width="2" points="1332.51,-143.31 1323.21,-148.38 1333.65,-150.22 1332.51,-143.31"/>
</g>
<!-- node10&#45;&gt;node0 -->
<g id="edge19" class="edge">
<title>node10&#45;&gt;node0</title>
<path fill="none" stroke="green" stroke-width="2" d="M1860.66,-109.04C1629.43,-135.51 1568.96,-115.88 1338,-146 1336.49,-146.2 1334.96,-146.4 1333.43,-146.62"/>
<polygon fill="green" stroke="green" stroke-width="2" points="1332.55,-143.21 1323.18,-148.15 1333.59,-150.13 1332.55,-143.21"/>
</g>
<!-- node11&#45;&gt;node0 -->
<g id="edge21" class="edge">
<title>node11&#45;&gt;node0</title>
<path fill="none" stroke="green" stroke-width="2" d="M2075.52,-109.05C1911.87,-126.02 1500.88,-126.46 1338,-146 1336.49,-146.18 1334.96,-146.37 1333.42,-146.58"/>
<polygon fill="green" stroke="green" stroke-width="2" points="1332.57,-143.16 1323.16,-148.03 1333.56,-150.09 1332.57,-143.16"/>
</g>
<!-- node11&#45;&gt;node12 -->
<g id="edge25" class="edge">
<title>node11&#45;&gt;node12</title>
<path fill="none" stroke="red" d="M2198.43,-72.99C2211.83,-63.67 2228.63,-51.97 2243.16,-41.86"/>
<polygon fill="red" stroke="red" points="2245.21,-44.7 2251.41,-36.11 2241.21,-38.95 2245.21,-44.7"/>
</g>
<!-- node12&#45;&gt;node0 -->
<g id="edge23" class="edge">
<title>node12&#45;&gt;node0</title>
<path fill="none" stroke="green" stroke-width="2" d="M2290.19,-36.15C2300.75,-56.42 2309.46,-89.81 2291,-109 2254.27,-147.19 1390.64,-139.98 1338,-146 1336.49,-146.17 1334.96,-146.36 1333.42,-146.55"/>
<polygon fill="green" stroke="green" stroke-width="2" points="1332.58,-143.13 1323.16,-147.97 1333.54,-150.07 1332.58,-143.13"/>
</g>
<!-- c0 -->
<!-- c1 -->
<!-- c0&#45;&gt;c1 -->
<g id="edge27" class="edge">
<title>c0&#45;&gt;c1</title>
<path fill="none" stroke="red" d="M2054.89,-164C2066.11,-164 2124.24,-164 2149.86,-164"/>
<polygon fill="red" stroke="red" points="2150.06,-167.5 2160.06,-164 2150.06,-160.5 2150.06,-167.5"/>
<text text-anchor="middle" x="2107.5" y="-170.8" font-family="Times,serif" font-size="14.00">Control flow</text>
</g>
<!-- c2 -->
<!-- c3 -->
<!-- c2&#45;&gt;c3 -->
<g id="edge28" class="edge">
<title>c2&#45;&gt;c3</title>
<path fill="none" stroke="red" stroke-dasharray="5,2" d="M1848.08,-164C1865.05,-164 1981.21,-164 2019.08,-164"/>
<polygon fill="red" stroke="red" points="2019.17,-167.5 2029.17,-164 2019.17,-160.5 2019.17,-167.5"/>
<text text-anchor="middle" x="1938.5" y="-170.8" font-family="Times,serif" font-size="14.00">Control flow back edge</text>
</g>
<!-- d0 -->
<!-- d1 -->
<!-- d0&#45;&gt;d1 -->
<g id="edge29" class="edge">
<title>d0&#45;&gt;d1</title>
<path fill="none" stroke="black" d="M1736.86,-164C1746.41,-164 1790.31,-164 1811.92,-164"/>
<polygon fill="black" stroke="black" points="1812.15,-167.5 1822.15,-164 1812.15,-160.5 1812.15,-167.5"/>
<text text-anchor="middle" x="1779.5" y="-170.8" font-family="Times,serif" font-size="14.00">Data flow</text>
</g>
<!-- d2 -->
<!-- d3 -->
<!-- d2&#45;&gt;d3 -->
<g id="edge30" class="edge">
<title>d2&#45;&gt;d3</title>
<path fill="none" stroke="black" stroke-dasharray="1,5" d="M1610.81,-164C1621.46,-164 1676.46,-164 1701.08,-164"/>
<polygon fill="black" stroke="black" points="1701.15,-167.5 1711.15,-164 1701.15,-160.5 1701.15,-167.5"/>
<text text-anchor="middle" x="1661" y="-170.8" font-family="Times,serif" font-size="14.00">Declaration</text>
</g>
<!-- d4 -->
<!-- d5 -->
<!-- d4&#45;&gt;d5 -->
<g id="edge31" class="edge">
<title>d4&#45;&gt;d5</title>
<path fill="none" stroke="blue" d="M1468.1,-164C1480.72,-164 1546.88,-164 1574.68,-164"/>
<polygon fill="blue" stroke="blue" points="1574.84,-167.5 1584.84,-164 1574.84,-160.5 1574.84,-167.5"/>
<text text-anchor="middle" x="1526.5" y="-170.8" font-family="Times,serif" font-size="14.00">PHI Data flow</text>
</g>
<!-- d6 -->
<!-- d7 -->
<!-- d6&#45;&gt;d7 -->
<g id="edge32" class="edge">
<title>d6&#45;&gt;d7</title>
<path fill="none" stroke="green" d="M1345.11,-164C1356.15,-164 1407.67,-164 1431.66,-164"/>
<polygon fill="green" stroke="green" points="1431.9,-167.5 1441.9,-164 1431.9,-160.5 1431.9,-167.5"/>
<text text-anchor="middle" x="1393.5" y="-170.8" font-family="Times,serif" font-size="14.00">Dominance</text>
</g>
</g>
</svg>
