<?xml version="1.0" encoding="UTF-8" standalone="no"?>
<!DOCTYPE svg PUBLIC "-//W3C//DTD SVG 1.1//EN"
 "http://www.w3.org/Graphics/SVG/1.1/DTD/svg11.dtd">
<!-- Generated by graphviz version 2.43.0 (0)
 -->
<!-- Title: debugoutput Pages: 1 -->
<svg width="2407pt" height="213pt"
 viewBox="0.00 0.00 2407.00 212.80" xmlns="http://www.w3.org/2000/svg" xmlns:xlink="http://www.w3.org/1999/xlink">
<g id="graph0" class="graph" transform="scale(1 1) rotate(0) translate(4 208.8)">
<title>debugoutput</title>
<polygon fill="white" stroke="transparent" points="-4,4 -4,-208.8 2403,-208.8 2403,4 -4,4"/>
<g id="clust1" class="cluster">
<title>cluster_000</title>
<polygon fill="none" stroke="black" points="1336,-154.2 1336,-196.8 2175,-196.8 2175,-154.2 1336,-154.2"/>
<text text-anchor="middle" x="1755.5" y="-181.6" font-family="Times,serif" font-size="14.00">Legend</text>
</g>
<!-- node0 -->
<g id="node1" class="node">
<title>node0</title>
<polygon fill="lightgrey" stroke="black" points="1326,-182 1160,-182 1160,-146 1326,-146 1326,-182"/>
<text text-anchor="middle" x="1243" y="-160.3" font-family="Times,serif" font-size="14.00">#0 Method Order : 0</text>
</g>
<!-- node1 -->
<g id="node2" class="node">
<title>node1</title>
<polygon fill="lightgrey" stroke="black" points="212,-109 0,-109 0,-73 212,-73 212,-109"/>
<text text-anchor="middle" x="106" y="-87.3" font-family="Times,serif" font-size="14.00">#1 arg8 : String Order : 12</text>
</g>
<!-- node0&#45;&gt;node1 -->
<g id="edge2" class="edge">
<title>node0&#45;&gt;node1</title>
<path fill="none" stroke="black" d="M1159.79,-161.37C985.78,-157.29 570.93,-144.38 221.75,-109.97"/>
<polygon fill="black" stroke="black" points="222,-106.48 211.7,-108.97 221.3,-113.44 222,-106.48"/>
<text text-anchor="middle" x="230.57" y="-98.65" font-family="Times,serif" font-size="14.00">*0</text>
</g>
<!-- node2 -->
<g id="node3" class="node">
<title>node2</title>
<polygon fill="lightgrey" stroke="black" points="416,-109 230,-109 230,-73 416,-73 416,-109"/>
<text text-anchor="middle" x="323" y="-87.3" font-family="Times,serif" font-size="14.00">#2 arg2 : int Order : 11</text>
</g>
<!-- node0&#45;&gt;node2 -->
<g id="edge4" class="edge">
<title>node0&#45;&gt;node2</title>
<path fill="none" stroke="black" d="M1159.71,-160.43C1011.98,-155.11 694.6,-140.77 425.68,-110.11"/>
<polygon fill="black" stroke="black" points="426.07,-106.63 415.73,-108.97 425.27,-113.59 426.07,-106.63"/>
<text text-anchor="middle" x="434.71" y="-98.94" font-family="Times,serif" font-size="14.00">*0</text>
</g>
<!-- node3 -->
<g id="node4" class="node">
<title>node3</title>
<polygon fill="lightgrey" stroke="black" points="620,-109 434,-109 434,-73 620,-73 620,-109"/>
<text text-anchor="middle" x="527" y="-87.3" font-family="Times,serif" font-size="14.00">#3 arg3 : int Order : 10</text>
</g>
<!-- node0&#45;&gt;node3 -->
<g id="edge6" class="edge">
<title>node0&#45;&gt;node3</title>
<path fill="none" stroke="black" d="M1159.93,-158.13C1042.25,-150.49 820.38,-134.05 629.92,-110.25"/>
<polygon fill="black" stroke="black" points="630.09,-106.74 619.73,-108.97 629.22,-113.69 630.09,-106.74"/>
<text text-anchor="middle" x="638.77" y="-99.15" font-family="Times,serif" font-size="14.00">*0</text>
</g>
<!-- node4 -->
<g id="node5" class="node">
<title>node4</title>
<polygon fill="lightgrey" stroke="black" points="844,-109 638,-109 638,-73 844,-73 844,-109"/>
<text text-anchor="middle" x="741" y="-87.3" font-family="Times,serif" font-size="14.00">#4 arg7 : double Order : 9</text>
</g>
<!-- node0&#45;&gt;node4 -->
<g id="edge8" class="edge">
<title>node0&#45;&gt;node4</title>
<path fill="none" stroke="black" d="M1159.97,-152.74C1081.61,-142.42 960.74,-125.88 854.25,-110.48"/>
<polygon fill="black" stroke="black" points="854.72,-107.02 844.32,-109.05 853.71,-113.94 854.72,-107.02"/>
<text text-anchor="middle" x="863.47" y="-99.58" font-family="Times,serif" font-size="14.00">*0</text>
</g>
<!-- node5 -->
<g id="node6" class="node">
<title>node5</title>
<polygon fill="lightgrey" stroke="black" points="1039.5,-109 862.5,-109 862.5,-73 1039.5,-73 1039.5,-109"/>
<text text-anchor="middle" x="951" y="-87.3" font-family="Times,serif" font-size="14.00">#5 arg1 : int Order : 7</text>
</g>
<!-- node0&#45;&gt;node5 -->
<g id="edge10" class="edge">
<title>node0&#45;&gt;node5</title>
<path fill="none" stroke="black" d="M1167.2,-145.99C1123.53,-135.64 1068.89,-122.38 1025.45,-111.59"/>
<polygon fill="black" stroke="black" points="1026.06,-108.13 1015.51,-109.11 1024.37,-114.93 1026.06,-108.13"/>
<text text-anchor="middle" x="1035.14" y="-101.59" font-family="Times,serif" font-size="14.00">*0</text>
</g>
<!-- node6 -->
<g id="node7" class="node">
<title>node6</title>
<polygon fill="lightgrey" stroke="black" points="1246,-109 1058,-109 1058,-73 1246,-73 1246,-109"/>
<text text-anchor="middle" x="1152" y="-87.3" font-family="Times,serif" font-size="14.00">#6 arg9 : int[] Order : 6</text>
</g>
<!-- node0&#45;&gt;node6 -->
<g id="edge12" class="edge">
<title>node0&#45;&gt;node6</title>
<path fill="none" stroke="black" d="M1215.34,-145.99C1202.76,-136.93 1188.1,-125.63 1175.98,-115.71"/>
<polygon fill="black" stroke="black" points="1177.99,-112.83 1168.06,-109.11 1173.51,-118.2 1177.99,-112.83"/>
<text text-anchor="middle" x="1187.4" y="-110.52" font-family="Times,serif" font-size="14.00">*0</text>
</g>
<!-- node7 -->
<g id="node8" class="node">
<title>node7</title>
<polygon fill="lightgrey" stroke="black" points="1441.5,-109 1264.5,-109 1264.5,-73 1441.5,-73 1441.5,-109"/>
<text text-anchor="middle" x="1353" y="-87.3" font-family="Times,serif" font-size="14.00">#7 arg4 : int Order : 5</text>
</g>
<!-- node0&#45;&gt;node7 -->
<g id="edge14" class="edge">
<title>node0&#45;&gt;node7</title>
<path fill="none" stroke="black" d="M1263.49,-145.99C1277.08,-136.58 1295.24,-124.76 1311.69,-114.57"/>
<polygon fill="black" stroke="black" points="1313.91,-117.32 1320.62,-109.11 1310.26,-111.35 1313.91,-117.32"/>
<text text-anchor="middle" x="1309.56" y="-122.08" font-family="Times,serif" font-size="14.00">*0</text>
</g>
<!-- node8 -->
<g id="node9" class="node">
<title>node8</title>
<polygon fill="lightgrey" stroke="black" points="1648.5,-109 1459.5,-109 1459.5,-73 1648.5,-73 1648.5,-109"/>
<text text-anchor="middle" x="1554" y="-87.3" font-family="Times,serif" font-size="14.00">#8 arg6 : float Order : 4</text>
</g>
<!-- node0&#45;&gt;node8 -->
<g id="edge16" class="edge">
<title>node0&#45;&gt;node8</title>
<path fill="none" stroke="black" d="M1311.63,-145.99C1356.34,-135.53 1415.09,-122.11 1463.58,-111.26"/>
<polygon fill="black" stroke="black" points="1464.45,-114.65 1473.44,-109.05 1462.92,-107.82 1464.45,-114.65"/>
<text text-anchor="middle" x="1457.6" y="-117.55" font-family="Times,serif" font-size="14.00">*0</text>
</g>
<!-- node9 -->
<g id="node10" class="node">
<title>node9</title>
<polygon fill="lightgrey" stroke="black" points="1855,-109 1667,-109 1667,-73 1855,-73 1855,-109"/>
<text text-anchor="middle" x="1761" y="-87.3" font-family="Times,serif" font-size="14.00">#9 arg5 : long Order : 3</text>
</g>
<!-- node0&#45;&gt;node9 -->
<g id="edge18" class="edge">
<title>node0&#45;&gt;node9</title>
<path fill="none" stroke="black" d="M1323.42,-145.94C1467.24,-124.09 1504.71,-129.08 1649,-109 1651.55,-108.64 1654.14,-108.28 1656.75,-107.9"/>
<polygon fill="black" stroke="black" points="1657.54,-111.32 1666.92,-106.39 1656.51,-104.39 1657.54,-111.32"/>
<text text-anchor="middle" x="1650.23" y="-113.71" font-family="Times,serif" font-size="14.00">*0</text>
</g>
<!-- node10 -->
<g id="node11" class="node">
<title>node10</title>
<polygon fill="lightgrey" stroke="black" points="2059,-109 1873,-109 1873,-73 2059,-73 2059,-109"/>
<text text-anchor="middle" x="1966" y="-87.3" font-family="Times,serif" font-size="14.00">#10 arg0 : int Order : 2</text>
</g>
<!-- node0&#45;&gt;node10 -->
<g id="edge20" class="edge">
<title>node0&#45;&gt;node10</title>
<path fill="none" stroke="black" d="M1323.34,-145.96C1558.1,-115.51 1619.73,-136.72 1855,-109 1857.54,-108.7 1860.1,-108.38 1862.69,-108.05"/>
<polygon fill="black" stroke="black" points="1863.34,-111.49 1872.78,-106.69 1862.4,-104.56 1863.34,-111.49"/>
<text text-anchor="middle" x="1855.95" y="-113.79" font-family="Times,serif" font-size="14.00">*0</text>
</g>
<!-- node11 -->
<g id="node12" class="node">
<title>node11</title>
<polygon fill="lightgrey" stroke="black" points="2274.5,-109 2077.5,-109 2077.5,-73 2274.5,-73 2274.5,-109"/>
<text text-anchor="middle" x="2176" y="-87.3" font-family="Times,serif" font-size="14.00">#11 LabelNode Order : 1</text>
</g>
<!-- node0&#45;&gt;node11 -->
<g id="edge22" class="edge">
<title>node0&#45;&gt;node11</title>
<path fill="none" stroke="red" d="M1323.48,-145.94C1486.4,-126.48 1896.27,-125.85 2059,-109 2061.69,-108.72 2064.42,-108.42 2067.18,-108.1"/>
<polygon fill="red" stroke="red" points="2067.74,-111.56 2077.24,-106.87 2066.89,-104.61 2067.74,-111.56"/>
</g>
<!-- node12 -->
<g id="node13" class="node">
<title>node12</title>
<polygon fill="lightgrey" stroke="black" points="2399,-36 2157,-36 2157,0 2399,0 2399,-36"/>
<text text-anchor="middle" x="2278" y="-14.3" font-family="Times,serif" font-size="14.00">#12 ReturnValue : int Order : 8</text>
</g>
<!-- node0&#45;&gt;node12 -->
<g id="edge26" class="edge">
<title>node0&#45;&gt;node12</title>
<path fill="none" stroke="black" d="M1323.32,-145.96C1378.95,-140.02 2238.38,-147.07 2275,-109 2290.72,-92.66 2286.74,-66.02 2281.94,-45.96"/>
<polygon fill="black" stroke="black" points="2285.31,-44.99 2279.46,-36.15 2278.52,-46.7 2285.31,-44.99"/>
</g>
<!-- node1&#45;&gt;node0 -->
<g id="edge1" class="edge">
<title>node1&#45;&gt;node0</title>
<path fill="none" stroke="green" stroke-width="2" d="M212.16,-107.02C218.2,-107.75 224.18,-108.42 230,-109 567.97,-142.83 971.07,-156.25 1149.83,-160.87"/>
<polygon fill="green" stroke="green" stroke-width="2" points="1149.9,-164.38 1159.98,-161.13 1150.08,-157.38 1149.9,-164.38"/>
</g>
<!-- node2&#45;&gt;node0 -->
<g id="edge3" class="edge">
<title>node2&#45;&gt;node0</title>
<path fill="none" stroke="green" stroke-width="2" d="M416.21,-106.71C422.24,-107.55 428.2,-108.33 434,-109 692.43,-138.99 998.88,-153.68 1149.72,-159.64"/>
<polygon fill="green" stroke="green" stroke-width="2" points="1149.74,-163.14 1159.87,-160.03 1150.01,-156.14 1149.74,-163.14"/>
</g>
<!-- node3&#45;&gt;node0 -->
<g id="edge5" class="edge">
<title>node3&#45;&gt;node0</title>
<path fill="none" stroke="green" stroke-width="2" d="M620.23,-106.57C626.25,-107.44 632.21,-108.26 638,-109 818.77,-131.98 1030.72,-148.28 1149.74,-156.62"/>
<polygon fill="green" stroke="green" stroke-width="2" points="1149.69,-160.13 1159.91,-157.33 1150.18,-153.14 1149.69,-160.13"/>
</g>
<!-- node4&#45;&gt;node0 -->
<g id="edge7" class="edge">
<title>node4&#45;&gt;node0</title>
<path fill="none" stroke="green" stroke-width="2" d="M844.08,-106.37C850.15,-107.27 856.16,-108.15 862,-109 960.24,-123.26 1072.53,-138.72 1149.67,-149.43"/>
<polygon fill="green" stroke="green" stroke-width="2" points="1149.46,-152.93 1159.84,-150.84 1150.42,-146 1149.46,-152.93"/>
</g>
<!-- node5&#45;&gt;node0 -->
<g id="edge9" class="edge">
<title>node5&#45;&gt;node0</title>
<path fill="none" stroke="green" stroke-width="2" d="M1026.99,-109.05C1070.78,-119.43 1125.53,-132.73 1168.98,-143.52"/>
<polygon fill="green" stroke="green" stroke-width="2" points="1168.37,-146.97 1178.92,-145.99 1170.06,-140.18 1168.37,-146.97"/>
</g>
<!-- node5&#45;&gt;node12 -->
<g id="edge24" class="edge">
<title>node5&#45;&gt;node12</title>
<path fill="none" stroke="black" d="M1039.6,-74.11C1042.77,-73.71 1045.91,-73.33 1049,-73 1447.11,-29.9 1921.31,-20.97 2146.6,-19.27"/>
<polygon fill="black" stroke="black" points="2146.83,-22.77 2156.81,-19.2 2146.78,-15.77 2146.83,-22.77"/>
<text text-anchor="middle" x="2138.74" y="-24.08" font-family="Times,serif" font-size="14.00">*0</text>
</g>
<!-- node6&#45;&gt;node0 -->
<g id="edge11" class="edge">
<title>node6&#45;&gt;node0</title>
<path fill="none" stroke="green" stroke-width="2" d="M1179.69,-109.03C1192.24,-118.07 1206.85,-129.33 1218.94,-139.23"/>
<polygon fill="green" stroke="green" stroke-width="2" points="1216.93,-142.1 1226.85,-145.81 1221.41,-136.72 1216.93,-142.1"/>
</g>
<!-- node7&#45;&gt;node0 -->
<g id="edge13" class="edge">
<title>node7&#45;&gt;node0</title>
<path fill="none" stroke="green" stroke-width="2" d="M1332.36,-109.11C1318.73,-118.55 1300.56,-130.37 1284.12,-140.54"/>
<polygon fill="green" stroke="green" stroke-width="2" points="1281.91,-137.79 1275.21,-145.99 1285.56,-143.76 1281.91,-137.79"/>
</g>
<!-- node8&#45;&gt;node0 -->
<g id="edge15" class="edge">
<title>node8&#45;&gt;node0</title>
<path fill="none" stroke="green" stroke-width="2" d="M1485.17,-109.05C1440.43,-119.52 1381.67,-132.95 1333.21,-143.79"/>
<polygon fill="green" stroke="green" stroke-width="2" points="1332.35,-140.4 1323.35,-145.99 1333.87,-147.23 1332.35,-140.4"/>
</g>
<!-- node9&#45;&gt;node0 -->
<g id="edge17" class="edge">
<title>node9&#45;&gt;node0</title>
<path fill="none" stroke="green" stroke-width="2" d="M1666.58,-109.06C1522.5,-129.09 1485.02,-124.1 1341,-146 1339.49,-146.23 1337.97,-146.47 1336.44,-146.71"/>
<polygon fill="green" stroke="green" stroke-width="2" points="1335.51,-143.31 1326.21,-148.39 1336.65,-150.22 1335.51,-143.31"/>
</g>
<!-- node10&#45;&gt;node0 -->
<g id="edge19" class="edge">
<title>node10&#45;&gt;node0</title>
<path fill="none" stroke="green" stroke-width="2" d="M1873.27,-108.97C1873.18,-108.98 1873.09,-108.99 1873,-109 1637.61,-136.74 1576.04,-115.49 1341,-146 1339.49,-146.2 1337.96,-146.4 1336.43,-146.62"/>
<polygon fill="green" stroke="green" stroke-width="2" points="1335.55,-143.21 1326.18,-148.14 1336.58,-150.13 1335.55,-143.21"/>
</g>
<!-- node11&#45;&gt;node0 -->
<g id="edge21" class="edge">
<title>node11&#45;&gt;node0</title>
<path fill="none" stroke="green" stroke-width="2" d="M2077.28,-108.97C2077.19,-108.98 2077.09,-108.99 2077,-109 1914.11,-125.87 1503.59,-126.48 1341,-146 1339.49,-146.18 1337.96,-146.37 1336.42,-146.58"/>
<polygon fill="green" stroke="green" stroke-width="2" points="1335.57,-143.16 1326.16,-148.03 1336.56,-150.09 1335.57,-143.16"/>
</g>
<!-- node11&#45;&gt;node12 -->
<g id="edge25" class="edge">
<title>node11&#45;&gt;node12</title>
<path fill="none" stroke="red" d="M2200.43,-72.99C2213.83,-63.67 2230.63,-51.97 2245.16,-41.86"/>
<polygon fill="red" stroke="red" points="2247.21,-44.7 2253.41,-36.11 2243.21,-38.95 2247.21,-44.7"/>
</g>
<!-- node12&#45;&gt;node0 -->
<g id="edge23" class="edge">
<title>node12&#45;&gt;node0</title>
<path fill="none" stroke="green" stroke-width="2" d="M2292.19,-36.15C2302.75,-56.42 2311.46,-89.81 2293,-109 2256.31,-147.15 1393.59,-139.99 1341,-146 1339.49,-146.17 1337.96,-146.36 1336.42,-146.55"/>
<polygon fill="green" stroke="green" stroke-width="2" points="1335.58,-143.13 1326.16,-147.97 1336.54,-150.07 1335.58,-143.13"/>
</g>
<!-- c0 -->
<!-- c1 -->
<!-- c0&#45;&gt;c1 -->
<g id="edge27" class="edge">
<title>c0&#45;&gt;c1</title>
<path fill="none" stroke="red" d="M2057.89,-164C2069.11,-164 2127.24,-164 2152.86,-164"/>
<polygon fill="red" stroke="red" points="2153.06,-167.5 2163.06,-164 2153.06,-160.5 2153.06,-167.5"/>
<text text-anchor="middle" x="2110.5" y="-170.8" font-family="Times,serif" font-size="14.00">Control flow</text>
</g>
<!-- c2 -->
<!-- c3 -->
<!-- c2&#45;&gt;c3 -->
<g id="edge28" class="edge">
<title>c2&#45;&gt;c3</title>
<path fill="none" stroke="red" stroke-dasharray="5,2" d="M1851.08,-164C1868.05,-164 1984.21,-164 2022.08,-164"/>
<polygon fill="red" stroke="red" points="2022.17,-167.5 2032.17,-164 2022.17,-160.5 2022.17,-167.5"/>
<text text-anchor="middle" x="1941.5" y="-170.8" font-family="Times,serif" font-size="14.00">Control flow back edge</text>
</g>
<!-- d0 -->
<!-- d1 -->
<!-- d0&#45;&gt;d1 -->
<g id="edge29" class="edge">
<title>d0&#45;&gt;d1</title>
<path fill="none" stroke="black" d="M1739.86,-164C1749.41,-164 1793.31,-164 1814.92,-164"/>
<polygon fill="black" stroke="black" points="1815.15,-167.5 1825.15,-164 1815.15,-160.5 1815.15,-167.5"/>
<text text-anchor="middle" x="1782.5" y="-170.8" font-family="Times,serif" font-size="14.00">Data flow</text>
</g>
<!-- d2 -->
<!-- d3 -->
<!-- d2&#45;&gt;d3 -->
<g id="edge30" class="edge">
<title>d2&#45;&gt;d3</title>
<path fill="none" stroke="black" stroke-dasharray="1,5" d="M1613.81,-164C1624.46,-164 1679.46,-164 1704.08,-164"/>
<polygon fill="black" stroke="black" points="1704.15,-167.5 1714.15,-164 1704.15,-160.5 1704.15,-167.5"/>
<text text-anchor="middle" x="1664" y="-170.8" font-family="Times,serif" font-size="14.00">Declaration</text>
</g>
<!-- d4 -->
<!-- d5 -->
<!-- d4&#45;&gt;d5 -->
<g id="edge31" class="edge">
<title>d4&#45;&gt;d5</title>
<path fill="none" stroke="blue" d="M1471.1,-164C1483.72,-164 1549.88,-164 1577.68,-164"/>
<polygon fill="blue" stroke="blue" points="1577.84,-167.5 1587.84,-164 1577.84,-160.5 1577.84,-167.5"/>
<text text-anchor="middle" x="1529.5" y="-170.8" font-family="Times,serif" font-size="14.00">PHI Data flow</text>
</g>
<!-- d6 -->
<!-- d7 -->
<!-- d6&#45;&gt;d7 -->
<g id="edge32" class="edge">
<title>d6&#45;&gt;d7</title>
<path fill="none" stroke="green" d="M1348.11,-164C1359.15,-164 1410.67,-164 1434.66,-164"/>
<polygon fill="green" stroke="green" points="1434.9,-167.5 1444.9,-164 1434.9,-160.5 1434.9,-167.5"/>
<text text-anchor="middle" x="1396.5" y="-170.8" font-family="Times,serif" font-size="14.00">Dominance</text>
</g>
</g>
</svg>
