<?xml version="1.0" encoding="UTF-8" standalone="no"?>
<!DOCTYPE svg PUBLIC "-//W3C//DTD SVG 1.1//EN"
 "http://www.w3.org/Graphics/SVG/1.1/DTD/svg11.dtd">
<!-- Generated by graphviz version 2.43.0 (0)
 -->
<!-- Title: debugoutput Pages: 1 -->
<svg width="2301pt" height="213pt"
 viewBox="0.00 0.00 2300.50 212.80" xmlns="http://www.w3.org/2000/svg" xmlns:xlink="http://www.w3.org/1999/xlink">
<g id="graph0" class="graph" transform="scale(1 1) rotate(0) translate(4 208.8)">
<title>debugoutput</title>
<polygon fill="white" stroke="transparent" points="-4,4 -4,-208.8 2296.5,-208.8 2296.5,4 -4,4"/>
<g id="clust1" class="cluster">
<title>cluster_000</title>
<polygon fill="none" stroke="black" points="1211,-154.2 1211,-196.8 2187,-196.8 2187,-154.2 1211,-154.2"/>
<text text-anchor="middle" x="1699" y="-181.6" font-family="Times,serif" font-size="14.00">Legend</text>
</g>
<!-- node0 -->
<g id="node1" class="node">
<title>node0</title>
<polygon fill="lightgrey" stroke="black" points="1201,-182 1035,-182 1035,-146 1201,-146 1201,-182"/>
<text text-anchor="middle" x="1118" y="-160.3" font-family="Times,serif" font-size="14.00">#0 Method Order : 0</text>
</g>
<!-- node1 -->
<g id="node2" class="node">
<title>node1</title>
<polygon fill="lightgrey" stroke="black" points="198,-109 0,-109 0,-73 198,-73 198,-109"/>
<text text-anchor="middle" x="99" y="-87.3" font-family="Times,serif" font-size="14.00">#1 arg6 : float Order : 12</text>
</g>
<!-- node0&#45;&gt;node1 -->
<g id="edge2" class="edge">
<title>node0&#45;&gt;node1</title>
<path fill="none" stroke="black" d="M1034.77,-160.92C874.85,-156.21 513.75,-142.53 208.82,-110.16"/>
<polygon fill="black" stroke="black" points="208.77,-106.63 198.45,-109.05 208.02,-113.59 208.77,-106.63"/>
<text text-anchor="middle" x="217.37" y="-98.87" font-family="Times,serif" font-size="14.00">*0</text>
</g>
<!-- node2 -->
<g id="node3" class="node">
<title>node2</title>
<polygon fill="lightgrey" stroke="black" points="402,-109 216,-109 216,-73 402,-73 402,-109"/>
<text text-anchor="middle" x="309" y="-87.3" font-family="Times,serif" font-size="14.00">#2 arg0 : int Order : 11</text>
</g>
<!-- node0&#45;&gt;node2 -->
<g id="edge4" class="edge">
<title>node0&#45;&gt;node2</title>
<path fill="none" stroke="black" d="M1035,-159.39C903.06,-152.9 637.55,-137.35 411.39,-110.26"/>
<polygon fill="black" stroke="black" points="411.68,-106.77 401.33,-109.04 410.84,-113.72 411.68,-106.77"/>
<text text-anchor="middle" x="420.34" y="-99.12" font-family="Times,serif" font-size="14.00">*0</text>
</g>
<!-- node3 -->
<g id="node4" class="node">
<title>node3</title>
<polygon fill="lightgrey" stroke="black" points="596.5,-109 419.5,-109 419.5,-73 596.5,-73 596.5,-109"/>
<text text-anchor="middle" x="508" y="-87.3" font-family="Times,serif" font-size="14.00">#3 arg1 : int Order : 9</text>
</g>
<!-- node0&#45;&gt;node3 -->
<g id="edge6" class="edge">
<title>node0&#45;&gt;node3</title>
<path fill="none" stroke="black" d="M1034.7,-156.54C933.65,-147.94 758.19,-131.35 606.41,-110.45"/>
<polygon fill="black" stroke="black" points="606.84,-106.97 596.45,-109.06 605.88,-113.91 606.84,-106.97"/>
<text text-anchor="middle" x="615.57" y="-99.48" font-family="Times,serif" font-size="14.00">*0</text>
</g>
<!-- node4 -->
<g id="node5" class="node">
<title>node4</title>
<polygon fill="lightgrey" stroke="black" points="791.5,-109 614.5,-109 614.5,-73 791.5,-73 791.5,-109"/>
<text text-anchor="middle" x="703" y="-87.3" font-family="Times,serif" font-size="14.00">#4 arg2 : int Order : 8</text>
</g>
<!-- node0&#45;&gt;node4 -->
<g id="edge8" class="edge">
<title>node0&#45;&gt;node4</title>
<path fill="none" stroke="black" d="M1034.89,-150.14C971.57,-139.68 882.09,-124.47 801.97,-110.71"/>
<polygon fill="black" stroke="black" points="802.19,-107.2 791.74,-108.96 801.01,-114.1 802.19,-107.2"/>
<text text-anchor="middle" x="811.04" y="-100" font-family="Times,serif" font-size="14.00">*0</text>
</g>
<!-- node5 -->
<g id="node6" class="node">
<title>node5</title>
<polygon fill="lightgrey" stroke="black" points="998,-109 810,-109 810,-73 998,-73 998,-109"/>
<text text-anchor="middle" x="904" y="-87.3" font-family="Times,serif" font-size="14.00">#5 arg5 : long Order : 7</text>
</g>
<!-- node0&#45;&gt;node5 -->
<g id="edge10" class="edge">
<title>node0&#45;&gt;node5</title>
<path fill="none" stroke="black" d="M1060.88,-145.99C1029.47,-135.92 990.71,-123.1 959.54,-112.48"/>
<polygon fill="black" stroke="black" points="960.31,-109.04 949.71,-109.11 958.04,-115.66 960.31,-109.04"/>
<text text-anchor="middle" x="969.6" y="-103.29" font-family="Times,serif" font-size="14.00">*0</text>
</g>
<!-- node6 -->
<g id="node7" class="node">
<title>node6</title>
<polygon fill="lightgrey" stroke="black" points="1219.5,-109 1016.5,-109 1016.5,-73 1219.5,-73 1219.5,-109"/>
<text text-anchor="middle" x="1118" y="-87.3" font-family="Times,serif" font-size="14.00">#6 arg8 : String Order : 6</text>
</g>
<!-- node0&#45;&gt;node6 -->
<g id="edge12" class="edge">
<title>node0&#45;&gt;node6</title>
<path fill="none" stroke="black" d="M1112.12,-145.81C1111.28,-137.79 1111.05,-128.05 1111.42,-119.07"/>
<polygon fill="black" stroke="black" points="1114.92,-119.25 1112.14,-109.03 1107.94,-118.75 1114.92,-119.25"/>
<text text-anchor="middle" x="1119.28" y="-124.01" font-family="Times,serif" font-size="14.00">*0</text>
</g>
<!-- node7 -->
<g id="node8" class="node">
<title>node7</title>
<polygon fill="lightgrey" stroke="black" points="1426,-109 1238,-109 1238,-73 1426,-73 1426,-109"/>
<text text-anchor="middle" x="1332" y="-87.3" font-family="Times,serif" font-size="14.00">#7 arg9 : int[] Order : 5</text>
</g>
<!-- node0&#45;&gt;node7 -->
<g id="edge14" class="edge">
<title>node0&#45;&gt;node7</title>
<path fill="none" stroke="black" d="M1163.4,-145.99C1192.93,-135.84 1231.89,-122.88 1264.95,-112.2"/>
<polygon fill="black" stroke="black" points="1266.1,-115.51 1274.55,-109.11 1263.96,-108.85 1266.1,-115.51"/>
<text text-anchor="middle" x="1259.88" y="-119.01" font-family="Times,serif" font-size="14.00">*0</text>
</g>
<!-- node8 -->
<g id="node9" class="node">
<title>node8</title>
<polygon fill="lightgrey" stroke="black" points="1621.5,-109 1444.5,-109 1444.5,-73 1621.5,-73 1621.5,-109"/>
<text text-anchor="middle" x="1533" y="-87.3" font-family="Times,serif" font-size="14.00">#8 arg3 : int Order : 4</text>
</g>
<!-- node0&#45;&gt;node8 -->
<g id="edge16" class="edge">
<title>node0&#45;&gt;node8</title>
<path fill="none" stroke="black" d="M1198.3,-145.95C1299.14,-128.14 1324.86,-125.98 1426,-109 1428.7,-108.55 1431.44,-108.08 1434.21,-107.62"/>
<polygon fill="black" stroke="black" points="1435.07,-111.02 1444.34,-105.9 1433.9,-104.12 1435.07,-111.02"/>
<text text-anchor="middle" x="1427.89" y="-113.56" font-family="Times,serif" font-size="14.00">*0</text>
</g>
<!-- node9 -->
<g id="node10" class="node">
<title>node9</title>
<polygon fill="lightgrey" stroke="black" points="1846,-109 1640,-109 1640,-73 1846,-73 1846,-109"/>
<text text-anchor="middle" x="1743" y="-87.3" font-family="Times,serif" font-size="14.00">#9 arg7 : double Order : 3</text>
</g>
<!-- node0&#45;&gt;node9 -->
<g id="edge18" class="edge">
<title>node0&#45;&gt;node9</title>
<path fill="none" stroke="black" d="M1198.27,-145.96C1385.41,-120.01 1434.27,-131.42 1622,-109 1624.56,-108.69 1627.16,-108.37 1629.78,-108.04"/>
<polygon fill="black" stroke="black" points="1630.5,-111.48 1639.97,-106.72 1629.6,-104.54 1630.5,-111.48"/>
<text text-anchor="middle" x="1623.08" y="-113.74" font-family="Times,serif" font-size="14.00">*0</text>
</g>
<!-- node10 -->
<g id="node11" class="node">
<title>node10</title>
<polygon fill="lightgrey" stroke="black" points="2050,-109 1864,-109 1864,-73 2050,-73 2050,-109"/>
<text text-anchor="middle" x="1957" y="-87.3" font-family="Times,serif" font-size="14.00">#10 arg4 : int Order : 2</text>
</g>
<!-- node0&#45;&gt;node10 -->
<g id="edge20" class="edge">
<title>node0&#45;&gt;node10</title>
<path fill="none" stroke="black" d="M1198.42,-145.95C1484.37,-110.67 1559.45,-140.97 1846,-109 1848.54,-108.72 1851.11,-108.41 1853.7,-108.09"/>
<polygon fill="black" stroke="black" points="1854.33,-111.54 1863.79,-106.77 1853.42,-104.6 1854.33,-111.54"/>
<text text-anchor="middle" x="1846.92" y="-113.8" font-family="Times,serif" font-size="14.00">*0</text>
</g>
<!-- node11 -->
<g id="node12" class="node">
<title>node11</title>
<polygon fill="lightgrey" stroke="black" points="2265.5,-109 2068.5,-109 2068.5,-73 2265.5,-73 2265.5,-109"/>
<text text-anchor="middle" x="2167" y="-87.3" font-family="Times,serif" font-size="14.00">#11 LabelNode Order : 1</text>
</g>
<!-- node0&#45;&gt;node11 -->
<g id="edge22" class="edge">
<title>node0&#45;&gt;node11</title>
<path fill="none" stroke="red" d="M1198.28,-145.97C1386.7,-124.06 1861.52,-127.87 2050,-109 2052.7,-108.73 2055.43,-108.44 2058.18,-108.13"/>
<polygon fill="red" stroke="red" points="2058.73,-111.58 2068.25,-106.92 2057.9,-104.63 2058.73,-111.58"/>
</g>
<!-- node12 -->
<g id="node13" class="node">
<title>node12</title>
<polygon fill="lightgrey" stroke="black" points="2292.5,-36 2041.5,-36 2041.5,0 2292.5,0 2292.5,-36"/>
<text text-anchor="middle" x="2167" y="-14.3" font-family="Times,serif" font-size="14.00">#12 ReturnValue : int Order : 10</text>
</g>
<!-- node0&#45;&gt;node12 -->
<g id="edge26" class="edge">
<title>node0&#45;&gt;node12</title>
<path fill="none" stroke="green" d="M1198.36,-145.96C1260.78,-139.43 2224.83,-151.62 2266,-109 2277.12,-97.49 2274.41,-86.61 2266,-73 2257.33,-58.97 2243.79,-48.46 2229.45,-40.64"/>
<polygon fill="green" stroke="green" points="2230.96,-37.48 2220.46,-36.11 2227.81,-43.73 2230.96,-37.48"/>
</g>
<!-- node1&#45;&gt;node0 -->
<g id="edge1" class="edge">
<title>node1&#45;&gt;node0</title>
<path fill="none" stroke="fuchsia" stroke-width="2" d="M198.06,-106.85C204.13,-107.64 210.15,-108.37 216,-109 510.5,-140.83 860.74,-154.97 1024.72,-160.28"/>
<polygon fill="fuchsia" stroke="fuchsia" stroke-width="2" points="1024.66,-163.78 1034.77,-160.6 1024.89,-156.78 1024.66,-163.78"/>
</g>
<!-- node2&#45;&gt;node0 -->
<g id="edge3" class="edge">
<title>node2&#45;&gt;node0</title>
<path fill="none" stroke="fuchsia" stroke-width="2" d="M402.22,-106.77C407.9,-107.58 413.53,-108.33 419,-109 635.31,-135.4 890.46,-151.09 1024.72,-158.27"/>
<polygon fill="fuchsia" stroke="fuchsia" stroke-width="2" points="1024.79,-161.78 1034.97,-158.81 1025.17,-154.79 1024.79,-161.78"/>
</g>
<!-- node3&#45;&gt;node0 -->
<g id="edge5" class="edge">
<title>node3&#45;&gt;node0</title>
<path fill="none" stroke="fuchsia" stroke-width="2" d="M596.58,-106.4C602.48,-107.33 608.33,-108.21 614,-109 756.98,-129.03 923.32,-145.25 1024.65,-154.51"/>
<polygon fill="fuchsia" stroke="fuchsia" stroke-width="2" points="1024.58,-158.02 1034.86,-155.44 1025.22,-151.05 1024.58,-158.02"/>
</g>
<!-- node3&#45;&gt;node12 -->
<g id="edge24" class="edge">
<title>node3&#45;&gt;node12</title>
<path fill="none" stroke="black" d="M596.74,-73.94C599.52,-73.6 602.28,-73.28 605,-73 879.54,-44.34 1704.29,-27.13 2031.29,-21.27"/>
<polygon fill="black" stroke="black" points="2031.36,-24.77 2041.3,-21.09 2031.23,-17.77 2031.36,-24.77"/>
<text text-anchor="middle" x="2023.32" y="-26.16" font-family="Times,serif" font-size="14.00">*0</text>
</g>
<!-- node4&#45;&gt;node0 -->
<g id="edge7" class="edge">
<title>node4&#45;&gt;node0</title>
<path fill="none" stroke="fuchsia" stroke-width="2" d="M791.67,-105.84C797.88,-106.91 804.04,-107.98 810,-109 882.18,-121.41 963.64,-135.28 1024.69,-145.86"/>
<polygon fill="fuchsia" stroke="fuchsia" stroke-width="2" points="1024.24,-149.33 1034.69,-147.59 1025.44,-142.44 1024.24,-149.33"/>
</g>
<!-- node5&#45;&gt;node0 -->
<g id="edge9" class="edge">
<title>node5&#45;&gt;node0</title>
<path fill="none" stroke="fuchsia" stroke-width="2" d="M961.45,-109.11C992.92,-119.2 1031.68,-132.03 1062.79,-142.63"/>
<polygon fill="fuchsia" stroke="fuchsia" stroke-width="2" points="1062.01,-146.07 1072.6,-145.99 1064.27,-139.44 1062.01,-146.07"/>
</g>
<!-- node6&#45;&gt;node0 -->
<g id="edge11" class="edge">
<title>node6&#45;&gt;node0</title>
<path fill="none" stroke="fuchsia" stroke-width="2" d="M1123.86,-109.03C1124.71,-117.03 1124.95,-126.77 1124.59,-135.75"/>
<polygon fill="fuchsia" stroke="fuchsia" stroke-width="2" points="1121.09,-135.59 1123.88,-145.81 1128.07,-136.08 1121.09,-135.59"/>
</g>
<!-- node7&#45;&gt;node0 -->
<g id="edge13" class="edge">
<title>node7&#45;&gt;node0</title>
<path fill="none" stroke="fuchsia" stroke-width="2" d="M1286.29,-109.11C1256.69,-119.29 1217.72,-132.25 1184.71,-142.91"/>
<polygon fill="fuchsia" stroke="fuchsia" stroke-width="2" points="1183.57,-139.6 1175.12,-145.99 1185.71,-146.26 1183.57,-139.6"/>
</g>
<!-- node8&#45;&gt;node0 -->
<g id="edge15" class="edge">
<title>node8&#45;&gt;node0</title>
<path fill="none" stroke="fuchsia" stroke-width="2" d="M1444.26,-108.96C1444.17,-108.97 1444.09,-108.99 1444,-109 1342.76,-126 1317.09,-128.15 1216,-146 1214.5,-146.27 1212.98,-146.53 1211.46,-146.81"/>
<polygon fill="fuchsia" stroke="fuchsia" stroke-width="2" points="1210.47,-143.43 1201.26,-148.65 1211.72,-150.32 1210.47,-143.43"/>
</g>
<!-- node9&#45;&gt;node0 -->
<g id="edge17" class="edge">
<title>node9&#45;&gt;node0</title>
<path fill="none" stroke="fuchsia" stroke-width="2" d="M1639.72,-109.03C1452.13,-131.42 1403.27,-120.01 1216,-146 1214.49,-146.21 1212.97,-146.43 1211.43,-146.65"/>
<polygon fill="fuchsia" stroke="fuchsia" stroke-width="2" points="1210.54,-143.25 1201.19,-148.24 1211.61,-150.17 1210.54,-143.25"/>
</g>
<!-- node10&#45;&gt;node0 -->
<g id="edge19" class="edge">
<title>node10&#45;&gt;node0</title>
<path fill="none" stroke="fuchsia" stroke-width="2" d="M1864.27,-108.97C1864.18,-108.98 1864.09,-108.99 1864,-109 1577.31,-140.98 1502.29,-110.64 1216,-146 1214.49,-146.19 1212.96,-146.38 1211.43,-146.59"/>
<polygon fill="fuchsia" stroke="fuchsia" stroke-width="2" points="1210.57,-143.18 1201.17,-148.07 1211.57,-150.11 1210.57,-143.18"/>
</g>
<!-- node11&#45;&gt;node0 -->
<g id="edge21" class="edge">
<title>node11&#45;&gt;node0</title>
<path fill="none" stroke="fuchsia" stroke-width="2" d="M2068.28,-108.97C2068.19,-108.98 2068.09,-108.99 2068,-109 1879.43,-127.87 1404.24,-124.05 1216,-146 1214.49,-146.18 1212.96,-146.36 1211.42,-146.56"/>
<polygon fill="fuchsia" stroke="fuchsia" stroke-width="2" points="1210.58,-143.15 1201.16,-148 1211.55,-150.08 1210.58,-143.15"/>
</g>
<!-- node11&#45;&gt;node12 -->
<g id="edge25" class="edge">
<title>node11&#45;&gt;node12</title>
<path fill="none" stroke="red" d="M2167,-72.81C2167,-64.79 2167,-55.05 2167,-46.07"/>
<polygon fill="red" stroke="red" points="2170.5,-46.03 2167,-36.03 2163.5,-46.03 2170.5,-46.03"/>
</g>
<!-- node12&#45;&gt;node0 -->
<g id="edge23" class="edge">
<title>node12&#45;&gt;node0</title>
<path fill="none" stroke="fuchsia" stroke-width="2" d="M2237.54,-36.11C2255.96,-44.26 2273.53,-56.06 2284,-73 2292.41,-86.61 2295.12,-97.49 2284,-109 2242.75,-151.7 1275,-139.38 1216,-146 1214.49,-146.17 1212.96,-146.35 1211.42,-146.54"/>
<polygon fill="fuchsia" stroke="fuchsia" stroke-width="2" points="1210.59,-143.12 1201.15,-147.95 1211.54,-150.06 1210.59,-143.12"/>
</g>
<!-- c0 -->
<!-- c1 -->
<!-- c0&#45;&gt;c1 -->
<g id="edge27" class="edge">
<title>c0&#45;&gt;c1</title>
<path fill="none" stroke="red" d="M2069.89,-164C2081.11,-164 2139.24,-164 2164.86,-164"/>
<polygon fill="red" stroke="red" points="2165.06,-167.5 2175.06,-164 2165.06,-160.5 2165.06,-167.5"/>
<text text-anchor="middle" x="2122.5" y="-170.8" font-family="Times,serif" font-size="14.00">Control flow</text>
</g>
<!-- c2 -->
<!-- c3 -->
<!-- c2&#45;&gt;c3 -->
<g id="edge28" class="edge">
<title>c2&#45;&gt;c3</title>
<path fill="none" stroke="red" stroke-dasharray="5,2" d="M1863.08,-164C1880.05,-164 1996.21,-164 2034.08,-164"/>
<polygon fill="red" stroke="red" points="2034.17,-167.5 2044.17,-164 2034.17,-160.5 2034.17,-167.5"/>
<text text-anchor="middle" x="1953.5" y="-170.8" font-family="Times,serif" font-size="14.00">Control flow back edge</text>
</g>
<!-- d0 -->
<!-- d1 -->
<!-- d0&#45;&gt;d1 -->
<g id="edge29" class="edge">
<title>d0&#45;&gt;d1</title>
<path fill="none" stroke="black" d="M1751.86,-164C1761.41,-164 1805.31,-164 1826.92,-164"/>
<polygon fill="black" stroke="black" points="1827.15,-167.5 1837.15,-164 1827.15,-160.5 1827.15,-167.5"/>
<text text-anchor="middle" x="1794.5" y="-170.8" font-family="Times,serif" font-size="14.00">Data flow</text>
</g>
<!-- d2 -->
<!-- d3 -->
<!-- d2&#45;&gt;d3 -->
<g id="edge30" class="edge">
<title>d2&#45;&gt;d3</title>
<path fill="none" stroke="black" stroke-dasharray="1,5" d="M1625.81,-164C1636.46,-164 1691.46,-164 1716.08,-164"/>
<polygon fill="black" stroke="black" points="1716.15,-167.5 1726.15,-164 1716.15,-160.5 1716.15,-167.5"/>
<text text-anchor="middle" x="1676" y="-170.8" font-family="Times,serif" font-size="14.00">Declaration</text>
</g>
<!-- d4 -->
<!-- d5 -->
<!-- d4&#45;&gt;d5 -->
<g id="edge31" class="edge">
<title>d4&#45;&gt;d5</title>
<path fill="none" stroke="blue" d="M1483.1,-164C1495.72,-164 1561.88,-164 1589.68,-164"/>
<polygon fill="blue" stroke="blue" points="1589.84,-167.5 1599.84,-164 1589.84,-160.5 1589.84,-167.5"/>
<text text-anchor="middle" x="1541.5" y="-170.8" font-family="Times,serif" font-size="14.00">PHI Data flow</text>
</g>
<!-- d6 -->
<!-- d7 -->
<!-- d6&#45;&gt;d7 -->
<g id="edge32" class="edge">
<title>d6&#45;&gt;d7</title>
<path fill="none" stroke="green" d="M1346,-164C1357.94,-164 1420.3,-164 1446.93,-164"/>
<polygon fill="green" stroke="green" points="1446.95,-167.5 1456.95,-164 1446.95,-160.5 1446.95,-167.5"/>
<text text-anchor="middle" x="1401.5" y="-170.8" font-family="Times,serif" font-size="14.00">Memory flow</text>
</g>
<!-- d8 -->
<!-- d9 -->
<!-- d8&#45;&gt;d9 -->
<g id="edge33" class="edge">
<title>d8&#45;&gt;d9</title>
<path fill="none" stroke="fuchsia" d="M1223.11,-164C1234.15,-164 1285.67,-164 1309.66,-164"/>
<polygon fill="fuchsia" stroke="fuchsia" points="1309.9,-167.5 1319.9,-164 1309.9,-160.5 1309.9,-167.5"/>
<text text-anchor="middle" x="1271.5" y="-170.8" font-family="Times,serif" font-size="14.00">Dominance</text>
</g>
</g>
</svg>
