<?xml version="1.0" encoding="UTF-8" standalone="no"?>
<!DOCTYPE svg PUBLIC "-//W3C//DTD SVG 1.1//EN"
 "http://www.w3.org/Graphics/SVG/1.1/DTD/svg11.dtd">
<!-- Generated by graphviz version 2.43.0 (0)
 -->
<!-- Title: debugoutput Pages: 1 -->
<svg width="2307pt" height="213pt"
 viewBox="0.00 0.00 2307.49 212.80" xmlns="http://www.w3.org/2000/svg" xmlns:xlink="http://www.w3.org/1999/xlink">
<g id="graph0" class="graph" transform="scale(1 1) rotate(0) translate(4 208.8)">
<title>debugoutput</title>
<polygon fill="white" stroke="transparent" points="-4,4 -4,-208.8 2303.49,-208.8 2303.49,4 -4,4"/>
<g id="clust1" class="cluster">
<title>cluster_000</title>
<polygon fill="none" stroke="black" points="1233,-154.2 1233,-196.8 2209,-196.8 2209,-154.2 1233,-154.2"/>
<text text-anchor="middle" x="1721" y="-181.6" font-family="Times,serif" font-size="14.00">Legend</text>
</g>
<!-- node0 -->
<g id="node1" class="node">
<title>node0</title>
<polygon fill="lightgrey" stroke="black" points="1223,-182 1057,-182 1057,-146 1223,-146 1223,-182"/>
<text text-anchor="middle" x="1140" y="-160.3" font-family="Times,serif" font-size="14.00">#0 Method Order : 0</text>
</g>
<!-- node1 -->
<g id="node2" class="node">
<title>node1</title>
<polygon fill="lightgrey" stroke="black" points="212,-109 0,-109 0,-73 212,-73 212,-109"/>
<text text-anchor="middle" x="106" y="-87.3" font-family="Times,serif" font-size="14.00">#1 arg8 : String Order : 12</text>
</g>
<!-- node0&#45;&gt;node1 -->
<g id="edge2" class="edge">
<title>node0&#45;&gt;node1</title>
<path fill="none" stroke="black" d="M1056.74,-160.73C895.66,-155.65 530.37,-141.31 221.73,-110"/>
<polygon fill="black" stroke="black" points="222,-106.5 211.7,-108.97 221.29,-113.47 222,-106.5"/>
<text text-anchor="middle" x="230.59" y="-98.7" font-family="Times,serif" font-size="14.00">*0</text>
</g>
<!-- node2 -->
<g id="node3" class="node">
<title>node2</title>
<polygon fill="lightgrey" stroke="black" points="416,-109 230,-109 230,-73 416,-73 416,-109"/>
<text text-anchor="middle" x="323" y="-87.3" font-family="Times,serif" font-size="14.00">#2 arg0 : int Order : 11</text>
</g>
<!-- node0&#45;&gt;node2 -->
<g id="edge4" class="edge">
<title>node0&#45;&gt;node2</title>
<path fill="none" stroke="black" d="M1056.78,-159.42C923.7,-152.94 654.97,-137.38 425.92,-110.19"/>
<polygon fill="black" stroke="black" points="426.08,-106.68 415.73,-108.97 425.25,-113.63 426.08,-106.68"/>
<text text-anchor="middle" x="434.74" y="-99.03" font-family="Times,serif" font-size="14.00">*0</text>
</g>
<!-- node3 -->
<g id="node4" class="node">
<title>node3</title>
<polygon fill="lightgrey" stroke="black" points="631.5,-109 434.5,-109 434.5,-73 631.5,-73 631.5,-109"/>
<text text-anchor="middle" x="533" y="-87.3" font-family="Times,serif" font-size="14.00">#3 arg9 : int[] Order : 10</text>
</g>
<!-- node0&#45;&gt;node3 -->
<g id="edge6" class="edge">
<title>node0&#45;&gt;node3</title>
<path fill="none" stroke="black" d="M1056.96,-155.91C958.28,-146.78 788.68,-129.76 641.54,-110.4"/>
<polygon fill="black" stroke="black" points="641.81,-106.9 631.44,-109.06 640.89,-113.84 641.81,-106.9"/>
<text text-anchor="middle" x="650.52" y="-99.36" font-family="Times,serif" font-size="14.00">*0</text>
</g>
<!-- node4 -->
<g id="node5" class="node">
<title>node4</title>
<polygon fill="lightgrey" stroke="black" points="826.5,-109 649.5,-109 649.5,-73 826.5,-73 826.5,-109"/>
<text text-anchor="middle" x="738" y="-87.3" font-family="Times,serif" font-size="14.00">#4 arg3 : int Order : 9</text>
</g>
<!-- node0&#45;&gt;node4 -->
<g id="edge8" class="edge">
<title>node0&#45;&gt;node4</title>
<path fill="none" stroke="black" d="M1056.54,-149.23C992.6,-138.2 904.25,-122.63 836.79,-110.51"/>
<polygon fill="black" stroke="black" points="837.03,-107 826.57,-108.67 835.79,-113.89 837.03,-107"/>
<text text-anchor="middle" x="845.91" y="-99.86" font-family="Times,serif" font-size="14.00">*0</text>
</g>
<!-- node5 -->
<g id="node6" class="node">
<title>node5</title>
<polygon fill="lightgrey" stroke="black" points="1033.5,-109 844.5,-109 844.5,-73 1033.5,-73 1033.5,-109"/>
<text text-anchor="middle" x="939" y="-87.3" font-family="Times,serif" font-size="14.00">#5 arg6 : float Order : 8</text>
</g>
<!-- node0&#45;&gt;node5 -->
<g id="edge10" class="edge">
<title>node0&#45;&gt;node5</title>
<path fill="none" stroke="black" d="M1086,-145.99C1056.55,-135.97 1020.33,-123.21 991.17,-112.62"/>
<polygon fill="black" stroke="black" points="992.17,-109.26 981.58,-109.11 989.77,-115.83 992.17,-109.26"/>
<text text-anchor="middle" x="1001.5" y="-103.69" font-family="Times,serif" font-size="14.00">*0</text>
</g>
<!-- node6 -->
<g id="node7" class="node">
<title>node6</title>
<polygon fill="lightgrey" stroke="black" points="1228.5,-109 1051.5,-109 1051.5,-73 1228.5,-73 1228.5,-109"/>
<text text-anchor="middle" x="1140" y="-87.3" font-family="Times,serif" font-size="14.00">#6 arg1 : int Order : 6</text>
</g>
<!-- node0&#45;&gt;node6 -->
<g id="edge12" class="edge">
<title>node0&#45;&gt;node6</title>
<path fill="none" stroke="black" d="M1134.12,-145.81C1133.28,-137.79 1133.05,-128.05 1133.42,-119.07"/>
<polygon fill="black" stroke="black" points="1136.92,-119.25 1134.14,-109.03 1129.94,-118.75 1136.92,-119.25"/>
<text text-anchor="middle" x="1141.28" y="-124.01" font-family="Times,serif" font-size="14.00">*0</text>
</g>
<!-- node7 -->
<g id="node8" class="node">
<title>node7</title>
<polygon fill="lightgrey" stroke="black" points="1435,-109 1247,-109 1247,-73 1435,-73 1435,-109"/>
<text text-anchor="middle" x="1341" y="-87.3" font-family="Times,serif" font-size="14.00">#7 arg5 : long Order : 5</text>
</g>
<!-- node0&#45;&gt;node7 -->
<g id="edge14" class="edge">
<title>node0&#45;&gt;node7</title>
<path fill="none" stroke="black" d="M1182.29,-145.99C1209.72,-135.92 1245.92,-123.1 1276.84,-112.48"/>
<polygon fill="black" stroke="black" points="1278.35,-115.66 1286.68,-109.11 1276.09,-109.04 1278.35,-115.66"/>
<text text-anchor="middle" x="1272.27" y="-119.28" font-family="Times,serif" font-size="14.00">*0</text>
</g>
<!-- node8 -->
<g id="node9" class="node">
<title>node8</title>
<polygon fill="lightgrey" stroke="black" points="1630.5,-109 1453.5,-109 1453.5,-73 1630.5,-73 1630.5,-109"/>
<text text-anchor="middle" x="1542" y="-87.3" font-family="Times,serif" font-size="14.00">#8 arg2 : int Order : 4</text>
</g>
<!-- node0&#45;&gt;node8 -->
<g id="edge16" class="edge">
<title>node0&#45;&gt;node8</title>
<path fill="none" stroke="black" d="M1220.28,-145.95C1315.45,-128.68 1339.55,-125.49 1435,-109 1437.7,-108.53 1440.44,-108.06 1443.21,-107.58"/>
<polygon fill="black" stroke="black" points="1444.07,-110.98 1453.33,-105.83 1442.88,-104.09 1444.07,-110.98"/>
<text text-anchor="middle" x="1436.91" y="-113.55" font-family="Times,serif" font-size="14.00">*0</text>
</g>
<!-- node9 -->
<g id="node10" class="node">
<title>node9</title>
<polygon fill="lightgrey" stroke="black" points="1825.5,-109 1648.5,-109 1648.5,-73 1825.5,-73 1825.5,-109"/>
<text text-anchor="middle" x="1737" y="-87.3" font-family="Times,serif" font-size="14.00">#9 arg4 : int Order : 3</text>
</g>
<!-- node0&#45;&gt;node9 -->
<g id="edge18" class="edge">
<title>node0&#45;&gt;node9</title>
<path fill="none" stroke="black" d="M1220.27,-145.96C1401.68,-120.55 1449.27,-133.06 1631,-109 1633.48,-108.67 1636,-108.32 1638.54,-107.96"/>
<polygon fill="black" stroke="black" points="1639.06,-111.42 1648.44,-106.5 1638.03,-104.5 1639.06,-111.42"/>
<text text-anchor="middle" x="1631.74" y="-113.81" font-family="Times,serif" font-size="14.00">*0</text>
</g>
<!-- node10 -->
<g id="node11" class="node">
<title>node10</title>
<polygon fill="lightgrey" stroke="black" points="2058.5,-109 1843.5,-109 1843.5,-73 2058.5,-73 2058.5,-109"/>
<text text-anchor="middle" x="1951" y="-87.3" font-family="Times,serif" font-size="14.00">#10 arg7 : double Order : 2</text>
</g>
<!-- node0&#45;&gt;node10 -->
<g id="edge20" class="edge">
<title>node0&#45;&gt;node10</title>
<path fill="none" stroke="black" d="M1220.39,-145.95C1354.53,-129.19 1691.93,-122.89 1826,-109 1828.39,-108.75 1830.81,-108.49 1833.25,-108.22"/>
<polygon fill="black" stroke="black" points="1833.83,-111.67 1843.36,-107.04 1833.02,-104.72 1833.83,-111.67"/>
<text text-anchor="middle" x="1826.34" y="-113.84" font-family="Times,serif" font-size="14.00">*0</text>
</g>
<!-- node11 -->
<g id="node12" class="node">
<title>node11</title>
<polygon fill="lightgrey" stroke="black" points="2273.5,-109 2076.5,-109 2076.5,-73 2273.5,-73 2273.5,-109"/>
<text text-anchor="middle" x="2175" y="-87.3" font-family="Times,serif" font-size="14.00">#11 LabelNode Order : 1</text>
</g>
<!-- node0&#45;&gt;node11 -->
<g id="edge22" class="edge">
<title>node0&#45;&gt;node11</title>
<path fill="none" stroke="red" d="M1220.27,-145.97C1405.82,-124.33 1873.41,-127.77 2059,-109 2061.41,-108.76 2063.84,-108.49 2066.3,-108.22"/>
<polygon fill="red" stroke="red" points="2066.99,-111.66 2076.5,-106.99 2066.15,-104.71 2066.99,-111.66"/>
</g>
<!-- node12 -->
<g id="node13" class="node">
<title>node12</title>
<polygon fill="lightgrey" stroke="black" points="2296,-36 2054,-36 2054,0 2296,0 2296,-36"/>
<text text-anchor="middle" x="2175" y="-14.3" font-family="Times,serif" font-size="14.00">#12 ReturnValue : int Order : 7</text>
</g>
<!-- node0&#45;&gt;node12 -->
<g id="edge26" class="edge">
<title>node0&#45;&gt;node12</title>
<path fill="none" stroke="green" d="M1220.35,-145.96C1281.95,-139.5 2233.38,-151.07 2274,-109 2285.11,-97.49 2282.41,-86.61 2274,-73 2265.33,-58.97 2251.79,-48.46 2237.45,-40.64"/>
<polygon fill="green" stroke="green" points="2238.96,-37.48 2228.46,-36.11 2235.81,-43.73 2238.96,-37.48"/>
</g>
<!-- node1&#45;&gt;node0 -->
<g id="edge1" class="edge">
<title>node1&#45;&gt;node0</title>
<path fill="none" stroke="fuchsia" stroke-width="2" d="M212.16,-106.98C218.2,-107.72 224.18,-108.4 230,-109 527.82,-139.7 881.86,-154.39 1046.85,-160.06"/>
<polygon fill="fuchsia" stroke="fuchsia" stroke-width="2" points="1046.85,-163.56 1056.97,-160.4 1047.09,-156.56 1046.85,-163.56"/>
</g>
<!-- node2&#45;&gt;node0 -->
<g id="edge3" class="edge">
<title>node2&#45;&gt;node0</title>
<path fill="none" stroke="fuchsia" stroke-width="2" d="M416.22,-106.65C422.24,-107.5 428.21,-108.3 434,-109 652.91,-135.46 911.2,-151.15 1046.59,-158.32"/>
<polygon fill="fuchsia" stroke="fuchsia" stroke-width="2" points="1046.74,-161.83 1056.91,-158.86 1047.11,-154.84 1046.74,-161.83"/>
</g>
<!-- node3&#45;&gt;node0 -->
<g id="edge5" class="edge">
<title>node3&#45;&gt;node0</title>
<path fill="none" stroke="fuchsia" stroke-width="2" d="M631.55,-106.57C637.46,-107.42 643.31,-108.24 649,-109 787.47,-127.47 948.18,-143.94 1047.03,-153.71"/>
<polygon fill="fuchsia" stroke="fuchsia" stroke-width="2" points="1046.69,-157.19 1056.99,-154.69 1047.38,-150.22 1046.69,-157.19"/>
</g>
<!-- node4&#45;&gt;node0 -->
<g id="edge7" class="edge">
<title>node4&#45;&gt;node0</title>
<path fill="none" stroke="fuchsia" stroke-width="2" d="M826.59,-106.66C891.93,-117.95 980.58,-133.59 1046.95,-145.52"/>
<polygon fill="fuchsia" stroke="fuchsia" stroke-width="2" points="1046.53,-149 1056.99,-147.33 1047.77,-142.11 1046.53,-149"/>
</g>
<!-- node5&#45;&gt;node0 -->
<g id="edge9" class="edge">
<title>node5&#45;&gt;node0</title>
<path fill="none" stroke="fuchsia" stroke-width="2" d="M993.32,-109.11C1022.81,-119.16 1059.03,-131.92 1088.14,-142.5"/>
<polygon fill="fuchsia" stroke="fuchsia" stroke-width="2" points="1087.12,-145.85 1097.71,-145.99 1089.52,-139.28 1087.12,-145.85"/>
</g>
<!-- node6&#45;&gt;node0 -->
<g id="edge11" class="edge">
<title>node6&#45;&gt;node0</title>
<path fill="none" stroke="fuchsia" stroke-width="2" d="M1145.86,-109.03C1146.71,-117.03 1146.95,-126.77 1146.59,-135.75"/>
<polygon fill="fuchsia" stroke="fuchsia" stroke-width="2" points="1143.09,-135.59 1145.88,-145.81 1150.07,-136.08 1143.09,-135.59"/>
</g>
<!-- node6&#45;&gt;node12 -->
<g id="edge24" class="edge">
<title>node6&#45;&gt;node12</title>
<path fill="none" stroke="black" d="M1228.61,-74.16C1231.77,-73.75 1234.91,-73.36 1238,-73 1524.16,-40.04 1861.93,-26.85 2043.57,-21.84"/>
<polygon fill="black" stroke="black" points="2043.8,-25.34 2053.7,-21.57 2043.61,-18.34 2043.8,-25.34"/>
<text text-anchor="middle" x="2035.81" y="-26.81" font-family="Times,serif" font-size="14.00">*0</text>
</g>
<!-- node7&#45;&gt;node0 -->
<g id="edge13" class="edge">
<title>node7&#45;&gt;node0</title>
<path fill="none" stroke="fuchsia" stroke-width="2" d="M1298.42,-109.11C1270.92,-119.2 1234.72,-132.03 1203.83,-142.63"/>
<polygon fill="fuchsia" stroke="fuchsia" stroke-width="2" points="1202.33,-139.45 1194,-145.99 1204.6,-146.07 1202.33,-139.45"/>
</g>
<!-- node8&#45;&gt;node0 -->
<g id="edge15" class="edge">
<title>node8&#45;&gt;node0</title>
<path fill="none" stroke="fuchsia" stroke-width="2" d="M1453.26,-108.96C1453.17,-108.97 1453.09,-108.99 1453,-109 1357.46,-125.51 1333.4,-128.68 1238,-146 1236.5,-146.27 1234.99,-146.55 1233.46,-146.83"/>
<polygon fill="fuchsia" stroke="fuchsia" stroke-width="2" points="1232.47,-143.45 1223.27,-148.71 1233.73,-150.34 1232.47,-143.45"/>
</g>
<!-- node9&#45;&gt;node0 -->
<g id="edge17" class="edge">
<title>node9&#45;&gt;node0</title>
<path fill="none" stroke="fuchsia" stroke-width="2" d="M1648.73,-109.04C1467.13,-133.06 1419.54,-120.55 1238,-146 1236.49,-146.21 1234.97,-146.43 1233.44,-146.66"/>
<polygon fill="fuchsia" stroke="fuchsia" stroke-width="2" points="1232.53,-143.26 1223.19,-148.26 1233.61,-150.17 1232.53,-143.26"/>
</g>
<!-- node10&#45;&gt;node0 -->
<g id="edge19" class="edge">
<title>node10&#45;&gt;node0</title>
<path fill="none" stroke="fuchsia" stroke-width="2" d="M1843.61,-109.04C1709.14,-122.92 1371.74,-129.21 1238,-146 1236.49,-146.19 1234.96,-146.39 1233.43,-146.6"/>
<polygon fill="fuchsia" stroke="fuchsia" stroke-width="2" points="1232.56,-143.19 1223.17,-148.09 1233.57,-150.11 1232.56,-143.19"/>
</g>
<!-- node11&#45;&gt;node0 -->
<g id="edge21" class="edge">
<title>node11&#45;&gt;node0</title>
<path fill="none" stroke="fuchsia" stroke-width="2" d="M2076.73,-109.03C1890.87,-127.78 1423.27,-124.34 1238,-146 1236.49,-146.18 1234.96,-146.36 1233.42,-146.56"/>
<polygon fill="fuchsia" stroke="fuchsia" stroke-width="2" points="1232.58,-143.15 1223.16,-148 1233.55,-150.08 1232.58,-143.15"/>
</g>
<!-- node11&#45;&gt;node12 -->
<g id="edge25" class="edge">
<title>node11&#45;&gt;node12</title>
<path fill="none" stroke="red" d="M2175,-72.81C2175,-64.79 2175,-55.05 2175,-46.07"/>
<polygon fill="red" stroke="red" points="2178.5,-46.03 2175,-36.03 2171.5,-46.03 2178.5,-46.03"/>
</g>
<!-- node12&#45;&gt;node0 -->
<g id="edge23" class="edge">
<title>node12&#45;&gt;node0</title>
<path fill="none" stroke="fuchsia" stroke-width="2" d="M2245.54,-36.11C2263.96,-44.26 2281.53,-56.06 2292,-73 2300.41,-86.61 2303.11,-97.49 2292,-109 2251.3,-151.15 1296.23,-139.46 1238,-146 1236.49,-146.17 1234.96,-146.35 1233.42,-146.54"/>
<polygon fill="fuchsia" stroke="fuchsia" stroke-width="2" points="1232.59,-143.13 1223.15,-147.95 1233.54,-150.06 1232.59,-143.13"/>
</g>
<!-- c0 -->
<!-- c1 -->
<!-- c0&#45;&gt;c1 -->
<g id="edge27" class="edge">
<title>c0&#45;&gt;c1</title>
<path fill="none" stroke="red" d="M2091.89,-164C2103.11,-164 2161.24,-164 2186.86,-164"/>
<polygon fill="red" stroke="red" points="2187.06,-167.5 2197.06,-164 2187.06,-160.5 2187.06,-167.5"/>
<text text-anchor="middle" x="2144.5" y="-170.8" font-family="Times,serif" font-size="14.00">Control flow</text>
</g>
<!-- c2 -->
<!-- c3 -->
<!-- c2&#45;&gt;c3 -->
<g id="edge28" class="edge">
<title>c2&#45;&gt;c3</title>
<path fill="none" stroke="red" stroke-dasharray="5,2" d="M1885.08,-164C1902.05,-164 2018.21,-164 2056.08,-164"/>
<polygon fill="red" stroke="red" points="2056.17,-167.5 2066.17,-164 2056.17,-160.5 2056.17,-167.5"/>
<text text-anchor="middle" x="1975.5" y="-170.8" font-family="Times,serif" font-size="14.00">Control flow back edge</text>
</g>
<!-- d0 -->
<!-- d1 -->
<!-- d0&#45;&gt;d1 -->
<g id="edge29" class="edge">
<title>d0&#45;&gt;d1</title>
<path fill="none" stroke="black" d="M1773.86,-164C1783.41,-164 1827.31,-164 1848.92,-164"/>
<polygon fill="black" stroke="black" points="1849.15,-167.5 1859.15,-164 1849.15,-160.5 1849.15,-167.5"/>
<text text-anchor="middle" x="1816.5" y="-170.8" font-family="Times,serif" font-size="14.00">Data flow</text>
</g>
<!-- d2 -->
<!-- d3 -->
<!-- d2&#45;&gt;d3 -->
<g id="edge30" class="edge">
<title>d2&#45;&gt;d3</title>
<path fill="none" stroke="black" stroke-dasharray="1,5" d="M1647.81,-164C1658.46,-164 1713.46,-164 1738.08,-164"/>
<polygon fill="black" stroke="black" points="1738.15,-167.5 1748.15,-164 1738.15,-160.5 1738.15,-167.5"/>
<text text-anchor="middle" x="1698" y="-170.8" font-family="Times,serif" font-size="14.00">Declaration</text>
</g>
<!-- d4 -->
<!-- d5 -->
<!-- d4&#45;&gt;d5 -->
<g id="edge31" class="edge">
<title>d4&#45;&gt;d5</title>
<path fill="none" stroke="blue" d="M1505.1,-164C1517.72,-164 1583.88,-164 1611.68,-164"/>
<polygon fill="blue" stroke="blue" points="1611.84,-167.5 1621.84,-164 1611.84,-160.5 1611.84,-167.5"/>
<text text-anchor="middle" x="1563.5" y="-170.8" font-family="Times,serif" font-size="14.00">PHI Data flow</text>
</g>
<!-- d6 -->
<!-- d7 -->
<!-- d6&#45;&gt;d7 -->
<g id="edge32" class="edge">
<title>d6&#45;&gt;d7</title>
<path fill="none" stroke="green" d="M1368,-164C1379.94,-164 1442.3,-164 1468.93,-164"/>
<polygon fill="green" stroke="green" points="1468.95,-167.5 1478.95,-164 1468.95,-160.5 1468.95,-167.5"/>
<text text-anchor="middle" x="1423.5" y="-170.8" font-family="Times,serif" font-size="14.00">Memory flow</text>
</g>
<!-- d8 -->
<!-- d9 -->
<!-- d8&#45;&gt;d9 -->
<g id="edge33" class="edge">
<title>d8&#45;&gt;d9</title>
<path fill="none" stroke="fuchsia" d="M1245.11,-164C1256.15,-164 1307.67,-164 1331.66,-164"/>
<polygon fill="fuchsia" stroke="fuchsia" points="1331.9,-167.5 1341.9,-164 1331.9,-160.5 1331.9,-167.5"/>
<text text-anchor="middle" x="1293.5" y="-170.8" font-family="Times,serif" font-size="14.00">Dominance</text>
</g>
</g>
</svg>
