<?xml version="1.0" encoding="UTF-8" standalone="no"?>
<!DOCTYPE svg PUBLIC "-//W3C//DTD SVG 1.1//EN"
 "http://www.w3.org/Graphics/SVG/1.1/DTD/svg11.dtd">
<!-- Generated by graphviz version 2.43.0 (0)
 -->
<!-- Title: debugoutput Pages: 1 -->
<svg width="1866pt" height="505pt"
 viewBox="0.00 0.00 1865.57 504.80" xmlns="http://www.w3.org/2000/svg" xmlns:xlink="http://www.w3.org/1999/xlink">
<g id="graph0" class="graph" transform="scale(1 1) rotate(0) translate(4 500.8)">
<title>debugoutput</title>
<polygon fill="white" stroke="transparent" points="-4,4 -4,-500.8 1861.57,-500.8 1861.57,4 -4,4"/>
<g id="clust1" class="cluster">
<title>cluster_000</title>
<polygon fill="none" stroke="black" points="1010.57,-446.2 1010.57,-488.8 1849.57,-488.8 1849.57,-446.2 1010.57,-446.2"/>
<text text-anchor="middle" x="1430.07" y="-473.6" font-family="Times,serif" font-size="14.00">Legend</text>
</g>
<!-- node0 -->
<g id="node1" class="node">
<title>node0</title>
<polygon fill="lightgrey" stroke="black" points="1000.57,-474 834.57,-474 834.57,-438 1000.57,-438 1000.57,-474"/>
<text text-anchor="middle" x="917.57" y="-452.3" font-family="Times,serif" font-size="14.00">#0 Method Order : 0</text>
</g>
<!-- node1 -->
<g id="node2" class="node">
<title>node1</title>
<polygon fill="lightgrey" stroke="black" points="1031.57,-328 857.57,-328 857.57,-292 1031.57,-292 1031.57,-328"/>
<text text-anchor="middle" x="944.57" y="-306.3" font-family="Times,serif" font-size="14.00">#1 ClassInit Order : 5</text>
</g>
<!-- node0&#45;&gt;node1 -->
<g id="edge3" class="edge">
<title>node0&#45;&gt;node1</title>
<path fill="none" stroke="black" d="M988.89,-437.99C1024.02,-428.49 1061.02,-415.62 1071.57,-401 1080.94,-388.03 1080.56,-378.24 1071.57,-365 1061.79,-350.59 1047.5,-340.03 1031.98,-332.28"/>
<polygon fill="black" stroke="black" points="1033.28,-329.03 1022.73,-328.04 1030.36,-335.39 1033.28,-329.03"/>
</g>
<!-- node5 -->
<g id="node3" class="node">
<title>node5</title>
<polygon fill="lightgreen" stroke="black" points="745.34,-375.54 745.34,-390.46 593.76,-401 379.39,-401 227.8,-390.46 227.8,-375.54 379.39,-365 593.76,-365 745.34,-375.54"/>
<text text-anchor="middle" x="486.57" y="-379.3" font-family="Times,serif" font-size="14.00">#5 Class StaticFieldAccessTest$Source Order : 1</text>
</g>
<!-- node0&#45;&gt;node5 -->
<g id="edge12" class="edge">
<title>node0&#45;&gt;node5</title>
<path fill="none" stroke="black" stroke-dasharray="1,5" d="M834.44,-442.18C765.99,-431.17 668.53,-415.16 594.14,-402.71"/>
<polygon fill="black" stroke="black" points="594.71,-399.26 584.27,-401.06 593.55,-406.16 594.71,-399.26"/>
</g>
<!-- node3 -->
<g id="node4" class="node">
<title>node3</title>
<polygon fill="lightgrey" stroke="black" points="209.57,-401 21.57,-401 21.57,-365 209.57,-365 209.57,-401"/>
<text text-anchor="middle" x="115.57" y="-379.3" font-family="Times,serif" font-size="14.00">#3 LabelNode Order : 3</text>
</g>
<!-- node0&#45;&gt;node3 -->
<g id="edge8" class="edge">
<title>node0&#45;&gt;node3</title>
<path fill="none" stroke="red" d="M834.5,-451.21C703.91,-444.5 442.8,-428.7 220.14,-402.27"/>
<polygon fill="red" stroke="red" points="220.25,-398.75 209.9,-401.04 219.42,-405.7 220.25,-398.75"/>
</g>
<!-- node2 -->
<g id="node5" class="node">
<title>node2</title>
<polygon fill="lightgrey" stroke="black" points="1071.57,-401 763.57,-401 763.57,-365 1071.57,-365 1071.57,-401"/>
<text text-anchor="middle" x="917.57" y="-379.3" font-family="Times,serif" font-size="14.00">#2 this : StaticFieldAccessTest Order : 4</text>
</g>
<!-- node0&#45;&gt;node2 -->
<g id="edge6" class="edge">
<title>node0&#45;&gt;node2</title>
<path fill="none" stroke="black" d="M911.7,-437.81C910.86,-429.79 910.62,-420.05 911,-411.07"/>
<polygon fill="black" stroke="black" points="914.49,-411.25 911.71,-401.03 907.51,-410.75 914.49,-411.25"/>
<text text-anchor="middle" x="918.85" y="-416.01" font-family="Times,serif" font-size="14.00">*0</text>
</g>
<!-- node4 -->
<g id="node6" class="node">
<title>node4</title>
<polygon fill="lightgreen" stroke="black" points="1747.78,-375.54 1747.78,-390.46 1582.47,-401 1348.68,-401 1183.37,-390.46 1183.37,-375.54 1348.68,-365 1582.47,-365 1747.78,-375.54"/>
<text text-anchor="middle" x="1465.57" y="-379.3" font-family="Times,serif" font-size="14.00">#4 Class StaticFieldAccessTest$Destination Order : 2</text>
</g>
<!-- node0&#45;&gt;node4 -->
<g id="edge10" class="edge">
<title>node0&#45;&gt;node4</title>
<path fill="none" stroke="black" stroke-dasharray="1,5" d="M998,-437.94C1069.72,-427.16 1088.32,-428.38 1160.57,-420 1212.4,-413.99 1269.29,-407.13 1319.78,-401.02"/>
<polygon fill="black" stroke="black" points="1320.29,-404.49 1329.79,-399.81 1319.45,-397.54 1320.29,-404.49"/>
</g>
<!-- node1&#45;&gt;node0 -->
<g id="edge1" class="edge">
<title>node1&#45;&gt;node0</title>
<path fill="none" stroke="green" stroke-width="2" d="M1031.84,-324.9C1054.5,-332.85 1076.23,-345.35 1089.57,-365 1098.56,-378.24 1098.94,-388.03 1089.57,-401 1079.56,-414.86 1045.79,-427.14 1010.76,-436.48"/>
<polygon fill="green" stroke="green" stroke-width="2" points="1009.67,-433.14 1000.86,-439.03 1011.42,-439.92 1009.67,-433.14"/>
</g>
<!-- node6 -->
<g id="node7" class="node">
<title>node6</title>
<polygon fill="orange" stroke="black" points="1089.26,-229.54 1089.26,-244.46 948.27,-255 748.88,-255 607.89,-244.46 607.89,-229.54 748.88,-219 948.27,-219 1089.26,-229.54"/>
<text text-anchor="middle" x="848.57" y="-233.3" font-family="Times,serif" font-size="14.00">#6 GetStaticField : char_field : char Order : 6</text>
</g>
<!-- node1&#45;&gt;node6 -->
<g id="edge15" class="edge">
<title>node1&#45;&gt;node6</title>
<path fill="none" stroke="black" d="M921.34,-291.81C908.84,-282.57 893.25,-271.04 879.72,-261.03"/>
<polygon fill="black" stroke="black" points="881.72,-258.16 871.6,-255.03 877.56,-263.79 881.72,-258.16"/>
</g>
<!-- node7 -->
<g id="node8" class="node">
<title>node7</title>
<polygon fill="lightgrey" stroke="black" points="1242.57,-182 1068.57,-182 1068.57,-146 1242.57,-146 1242.57,-182"/>
<text text-anchor="middle" x="1155.57" y="-160.3" font-family="Times,serif" font-size="14.00">#7 ClassInit Order : 7</text>
</g>
<!-- node1&#45;&gt;node7 -->
<g id="edge19" class="edge">
<title>node1&#45;&gt;node7</title>
<path fill="none" stroke="red" d="M1024.9,-291.92C1050.31,-283.75 1077.28,-271.93 1098.57,-255 1119.72,-238.18 1135.3,-211.25 1144.77,-191.22"/>
<polygon fill="red" stroke="red" points="1148,-192.58 1148.93,-182.02 1141.62,-189.69 1148,-192.58"/>
</g>
<!-- node5&#45;&gt;node0 -->
<g id="edge11" class="edge">
<title>node5&#45;&gt;node0</title>
<path fill="none" stroke="green" stroke-width="2" d="M595.1,-400.91C665.71,-412.34 756.82,-427.36 824.19,-438.66"/>
<polygon fill="green" stroke="green" stroke-width="2" points="823.93,-442.17 834.38,-440.37 825.09,-435.27 823.93,-442.17"/>
</g>
<!-- node5&#45;&gt;node1 -->
<g id="edge2" class="edge">
<title>node5&#45;&gt;node1</title>
<path fill="none" stroke="black" d="M629.78,-367.45C676.98,-361.94 729.65,-355.03 777.57,-347 805.45,-342.33 835.71,-336.15 862.72,-330.23"/>
<polygon fill="black" stroke="black" points="863.51,-333.64 872.52,-328.06 862,-326.8 863.51,-333.64"/>
<text text-anchor="middle" x="856.65" y="-336.53" font-family="Times,serif" font-size="14.00">*0</text>
</g>
<!-- node5&#45;&gt;node6 -->
<g id="edge14" class="edge">
<title>node5&#45;&gt;node6</title>
<path fill="none" stroke="black" d="M529.52,-364.92C596.2,-338.39 724.41,-287.39 796.34,-258.78"/>
<polygon fill="black" stroke="black" points="797.68,-262.01 805.68,-255.06 795.1,-255.51 797.68,-262.01"/>
<text text-anchor="middle" x="791.96" y="-265.92" font-family="Times,serif" font-size="14.00">*0</text>
</g>
<!-- node3&#45;&gt;node0 -->
<g id="edge7" class="edge">
<title>node3&#45;&gt;node0</title>
<path fill="none" stroke="green" stroke-width="2" d="M209.63,-398.63C215.7,-399.49 221.73,-400.29 227.57,-401 440.44,-426.74 691.34,-442.63 824.2,-450.03"/>
<polygon fill="green" stroke="green" stroke-width="2" points="824.16,-453.53 834.34,-450.59 824.55,-446.54 824.16,-453.53"/>
</g>
<!-- node3&#45;&gt;node1 -->
<g id="edge4" class="edge">
<title>node3&#45;&gt;node1</title>
<path fill="none" stroke="red" d="M209.83,-366.1C212.77,-365.71 215.7,-365.34 218.57,-365 442.78,-338.21 707.63,-322.51 847.2,-315.47"/>
<polygon fill="red" stroke="red" points="847.63,-318.96 857.44,-314.96 847.28,-311.97 847.63,-318.96"/>
</g>
<!-- node2&#45;&gt;node0 -->
<g id="edge5" class="edge">
<title>node2&#45;&gt;node0</title>
<path fill="none" stroke="green" stroke-width="2" d="M923.44,-401.03C924.28,-409.03 924.52,-418.77 924.16,-427.75"/>
<polygon fill="green" stroke="green" stroke-width="2" points="920.66,-427.59 923.45,-437.81 927.65,-428.08 920.66,-427.59"/>
</g>
<!-- node4&#45;&gt;node0 -->
<g id="edge9" class="edge">
<title>node4&#45;&gt;node0</title>
<path fill="none" stroke="green" stroke-width="2" d="M1340.67,-400.53C1290.37,-406.76 1231.8,-413.83 1178.57,-420 1106.18,-428.4 1087.65,-427.15 1015.57,-438 1014.07,-438.23 1012.55,-438.46 1011.02,-438.7"/>
<polygon fill="green" stroke="green" stroke-width="2" points="1010.09,-435.31 1000.78,-440.37 1011.22,-442.21 1010.09,-435.31"/>
</g>
<!-- node4&#45;&gt;node7 -->
<g id="edge17" class="edge">
<title>node4&#45;&gt;node7</title>
<path fill="none" stroke="black" d="M1395.22,-364.91C1381.27,-360.13 1367.09,-354.22 1354.57,-347 1279.98,-303.98 1209.86,-228.84 1176.28,-189.93"/>
<polygon fill="black" stroke="black" points="1178.84,-187.53 1169.68,-182.2 1173.51,-192.08 1178.84,-187.53"/>
<text text-anchor="middle" x="1187.88" y="-186.8" font-family="Times,serif" font-size="14.00">*0</text>
</g>
<!-- node8 -->
<g id="node9" class="node">
<title>node8</title>
<polygon fill="lightgrey" stroke="black" points="1326.07,-109 985.07,-109 985.07,-73 1326.07,-73 1326.07,-109"/>
<text text-anchor="middle" x="1155.57" y="-87.3" font-family="Times,serif" font-size="14.00">#8 PutStaticField : char_field : char Order : 8</text>
</g>
<!-- node4&#45;&gt;node8 -->
<g id="edge21" class="edge">
<title>node4&#45;&gt;node8</title>
<path fill="none" stroke="black" d="M1413.67,-364.93C1390.6,-353.78 1368.57,-336.46 1368.57,-311 1368.57,-311 1368.57,-311 1368.57,-163 1368.57,-139.8 1322.5,-122.82 1273.21,-111.29"/>
<polygon fill="black" stroke="black" points="1273.85,-107.85 1263.32,-109.06 1272.31,-114.68 1273.85,-107.85"/>
<text text-anchor="middle" x="1282.86" y="-101.11" font-family="Times,serif" font-size="14.00">*0</text>
</g>
<!-- node6&#45;&gt;node0 -->
<g id="edge13" class="edge">
<title>node6&#45;&gt;node0</title>
<path fill="none" stroke="green" stroke-width="2" d="M643.7,-247.16C367.95,-263.24 -78.3,-304.54 12.57,-401 40.1,-430.21 598.38,-447.16 824.1,-452.84"/>
<polygon fill="green" stroke="green" stroke-width="2" points="824.18,-456.34 834.26,-453.09 824.36,-449.34 824.18,-456.34"/>
</g>
<!-- node6&#45;&gt;node7 -->
<g id="edge18" class="edge">
<title>node6&#45;&gt;node7</title>
<path fill="none" stroke="black" d="M922.11,-218.99C967.24,-208.56 1025.16,-195.16 1072.02,-184.32"/>
<polygon fill="black" stroke="black" points="1072.89,-187.72 1081.84,-182.05 1071.31,-180.9 1072.89,-187.72"/>
</g>
<!-- node6&#45;&gt;node8 -->
<g id="edge22" class="edge">
<title>node6&#45;&gt;node8</title>
<path fill="none" stroke="black" d="M885,-218.92C941.08,-192.61 1048.5,-142.22 1109.78,-113.48"/>
<polygon fill="black" stroke="black" points="1111.63,-116.48 1119.2,-109.06 1108.66,-110.14 1111.63,-116.48"/>
<text text-anchor="middle" x="1106.38" y="-120.71" font-family="Times,serif" font-size="14.00">*1</text>
</g>
<!-- node7&#45;&gt;node0 -->
<g id="edge16" class="edge">
<title>node7&#45;&gt;node0</title>
<path fill="none" stroke="green" stroke-width="2" d="M1155.57,-182.22C1155.57,-196.59 1155.57,-217.63 1155.57,-236 1155.57,-384 1155.57,-384 1155.57,-384 1155.57,-422.99 1112.58,-407.72 1075.57,-420 1062.81,-424.24 1037.49,-430.2 1010.8,-436.01"/>
<polygon fill="green" stroke="green" stroke-width="2" points="1009.96,-432.61 1000.92,-438.13 1011.44,-439.45 1009.96,-432.61"/>
</g>
<!-- node7&#45;&gt;node8 -->
<g id="edge23" class="edge">
<title>node7&#45;&gt;node8</title>
<path fill="none" stroke="black" d="M1149.7,-145.81C1148.86,-137.79 1148.62,-128.05 1149,-119.07"/>
<polygon fill="black" stroke="black" points="1152.49,-119.25 1149.71,-109.03 1145.51,-118.75 1152.49,-119.25"/>
</g>
<!-- node7&#45;&gt;node8 -->
<g id="edge24" class="edge">
<title>node7&#45;&gt;node8</title>
<path fill="none" stroke="red" d="M1161.45,-145.81C1162.29,-137.79 1162.53,-128.05 1162.15,-119.07"/>
<polygon fill="red" stroke="red" points="1165.64,-118.75 1161.44,-109.03 1158.66,-119.25 1165.64,-118.75"/>
</g>
<!-- node8&#45;&gt;node0 -->
<g id="edge20" class="edge">
<title>node8&#45;&gt;node0</title>
<path fill="none" stroke="green" stroke-width="2" d="M1326.22,-95.31C1509.75,-101.21 1775.57,-117.6 1775.57,-163 1775.57,-384 1775.57,-384 1775.57,-384 1775.57,-395.33 1767.06,-396.7 1756.57,-401 1605.15,-463.17 1188.54,-419.91 1010.97,-437.62"/>
<polygon fill="green" stroke="green" stroke-width="2" points="1010.46,-434.15 1000.9,-438.72 1011.22,-441.11 1010.46,-434.15"/>
</g>
<!-- node9 -->
<g id="node10" class="node">
<title>node9</title>
<polygon fill="lightgrey" stroke="black" points="1236.07,-36 1075.07,-36 1075.07,0 1236.07,0 1236.07,-36"/>
<text text-anchor="middle" x="1155.57" y="-14.3" font-family="Times,serif" font-size="14.00">#9 Return Order : 9</text>
</g>
<!-- node8&#45;&gt;node9 -->
<g id="edge26" class="edge">
<title>node8&#45;&gt;node9</title>
<path fill="none" stroke="red" d="M1143.82,-72.81C1142.14,-64.79 1141.67,-55.05 1142.42,-46.07"/>
<polygon fill="red" stroke="red" points="1145.9,-46.42 1143.85,-36.03 1138.97,-45.43 1145.9,-46.42"/>
</g>
<!-- node8&#45;&gt;node9 -->
<g id="edge27" class="edge">
<title>node8&#45;&gt;node9</title>
<path fill="none" stroke="black" d="M1167.33,-72.81C1169.01,-64.79 1169.48,-55.05 1168.73,-46.07"/>
<polygon fill="black" stroke="black" points="1172.18,-45.43 1167.3,-36.03 1165.25,-46.42 1172.18,-45.43"/>
</g>
<!-- node9&#45;&gt;node8 -->
<g id="edge25" class="edge">
<title>node9&#45;&gt;node8</title>
<path fill="none" stroke="green" stroke-width="2" d="M1155.57,-36.03C1155.57,-44.03 1155.57,-53.77 1155.57,-62.75"/>
<polygon fill="green" stroke="green" stroke-width="2" points="1152.07,-62.81 1155.57,-72.81 1159.07,-62.81 1152.07,-62.81"/>
</g>
<!-- c0 -->
<!-- c1 -->
<!-- c0&#45;&gt;c1 -->
<g id="edge28" class="edge">
<title>c0&#45;&gt;c1</title>
<path fill="none" stroke="red" d="M1732.47,-456C1743.68,-456 1801.82,-456 1827.43,-456"/>
<polygon fill="red" stroke="red" points="1827.63,-459.5 1837.63,-456 1827.63,-452.5 1827.63,-459.5"/>
<text text-anchor="middle" x="1785.07" y="-462.8" font-family="Times,serif" font-size="14.00">Control flow</text>
</g>
<!-- c2 -->
<!-- c3 -->
<!-- c2&#45;&gt;c3 -->
<g id="edge29" class="edge">
<title>c2&#45;&gt;c3</title>
<path fill="none" stroke="red" stroke-dasharray="5,2" d="M1525.65,-456C1542.62,-456 1658.78,-456 1696.66,-456"/>
<polygon fill="red" stroke="red" points="1696.74,-459.5 1706.74,-456 1696.74,-452.5 1696.74,-459.5"/>
<text text-anchor="middle" x="1616.07" y="-462.8" font-family="Times,serif" font-size="14.00">Control flow back edge</text>
</g>
<!-- d0 -->
<!-- d1 -->
<!-- d0&#45;&gt;d1 -->
<g id="edge30" class="edge">
<title>d0&#45;&gt;d1</title>
<path fill="none" stroke="black" d="M1414.43,-456C1423.98,-456 1467.88,-456 1489.49,-456"/>
<polygon fill="black" stroke="black" points="1489.73,-459.5 1499.73,-456 1489.73,-452.5 1489.73,-459.5"/>
<text text-anchor="middle" x="1457.07" y="-462.8" font-family="Times,serif" font-size="14.00">Data flow</text>
</g>
<!-- d2 -->
<!-- d3 -->
<!-- d2&#45;&gt;d3 -->
<g id="edge31" class="edge">
<title>d2&#45;&gt;d3</title>
<path fill="none" stroke="black" stroke-dasharray="1,5" d="M1288.38,-456C1299.03,-456 1354.04,-456 1378.65,-456"/>
<polygon fill="black" stroke="black" points="1378.72,-459.5 1388.72,-456 1378.72,-452.5 1378.72,-459.5"/>
<text text-anchor="middle" x="1338.57" y="-462.8" font-family="Times,serif" font-size="14.00">Declaration</text>
</g>
<!-- d4 -->
<!-- d5 -->
<!-- d4&#45;&gt;d5 -->
<g id="edge32" class="edge">
<title>d4&#45;&gt;d5</title>
<path fill="none" stroke="blue" d="M1145.67,-456C1158.3,-456 1224.46,-456 1252.25,-456"/>
<polygon fill="blue" stroke="blue" points="1252.42,-459.5 1262.42,-456 1252.42,-452.5 1252.42,-459.5"/>
<text text-anchor="middle" x="1204.07" y="-462.8" font-family="Times,serif" font-size="14.00">PHI Data flow</text>
</g>
<!-- d6 -->
<!-- d7 -->
<!-- d6&#45;&gt;d7 -->
<g id="edge33" class="edge">
<title>d6&#45;&gt;d7</title>
<path fill="none" stroke="green" d="M1022.68,-456C1033.72,-456 1085.24,-456 1109.23,-456"/>
<polygon fill="green" stroke="green" points="1109.48,-459.5 1119.48,-456 1109.48,-452.5 1109.48,-459.5"/>
<text text-anchor="middle" x="1071.07" y="-462.8" font-family="Times,serif" font-size="14.00">Dominance</text>
</g>
</g>
</svg>
