<?xml version="1.0" encoding="UTF-8" standalone="no"?>
<!DOCTYPE svg PUBLIC "-//W3C//DTD SVG 1.1//EN"
 "http://www.w3.org/Graphics/SVG/1.1/DTD/svg11.dtd">
<!-- Generated by graphviz version 2.43.0 (0)
 -->
<!-- Title: %3 Pages: 1 -->
<svg width="1546pt" height="943pt"
 viewBox="0.00 0.00 1545.50 942.80" xmlns="http://www.w3.org/2000/svg" xmlns:xlink="http://www.w3.org/1999/xlink">
<g id="graph0" class="graph" transform="scale(1 1) rotate(0) translate(4 938.8)">
<title>%3</title>
<polygon fill="white" stroke="transparent" points="-4,4 -4,-938.8 1541.5,-938.8 1541.5,4 -4,4"/>
<g id="clust1" class="cluster">
<title>cluster_000</title>
<polygon fill="none" stroke="black" points="1160.5,-884.2 1160.5,-926.8 1496.5,-926.8 1496.5,-884.2 1160.5,-884.2"/>
<text text-anchor="middle" x="1328.5" y="-911.6" font-family="Times,serif" font-size="14.00">Legend</text>
</g>
<!-- node0 -->
<g id="node1" class="node">
<title>node0</title>
<polygon fill="lightgrey" stroke="black" points="1132.5,-912 358.5,-912 358.5,-876 1132.5,-876 1132.5,-912"/>
<text text-anchor="middle" x="745.5" y="-890.3" font-family="Times,serif" font-size="14.00">#0 LocalVariable[name=this, slot=0, type=Lde/mirkosertic/metair/ir/examples/SwitchCaseTest;] Order: 0</text>
</g>
<!-- node0&#45;&gt;node0 -->
<g id="edge1" class="edge">
<title>node0&#45;&gt;node0</title>
<path fill="none" stroke="fuchsia" d="M1132.7,-897.52C1144.07,-896.56 1150.5,-895.39 1150.5,-894 1150.5,-893.11 1147.86,-892.31 1142.98,-891.59"/>
<polygon fill="fuchsia" stroke="fuchsia" points="1143.02,-888.08 1132.7,-890.48 1142.27,-895.04 1143.02,-888.08"/>
</g>
<!-- node1 -->
<g id="node2" class="node">
<title>node1</title>
<polygon fill="lightgrey" stroke="black" points="953.5,-839 537.5,-839 537.5,-803 953.5,-803 953.5,-839"/>
<text text-anchor="middle" x="745.5" y="-817.3" font-family="Times,serif" font-size="14.00">#1 LocalVariable[name=value, slot=1, type=I] Order: 1</text>
</g>
<!-- node0&#45;&gt;node1 -->
<g id="edge2" class="edge">
<title>node0&#45;&gt;node1</title>
<path fill="none" stroke="red" d="M739.62,-875.81C738.78,-867.79 738.55,-858.05 738.92,-849.07"/>
<polygon fill="red" stroke="red" points="742.42,-849.25 739.64,-839.03 735.44,-848.75 742.42,-849.25"/>
</g>
<!-- node1&#45;&gt;node0 -->
<g id="edge3" class="edge">
<title>node1&#45;&gt;node0</title>
<path fill="none" stroke="fuchsia" d="M751.36,-839.03C752.21,-847.03 752.45,-856.77 752.09,-865.75"/>
<polygon fill="fuchsia" stroke="fuchsia" points="748.59,-865.59 751.38,-875.81 755.57,-866.08 748.59,-865.59"/>
</g>
<!-- node2 -->
<g id="node3" class="node">
<title>node2</title>
<polygon fill="lightgrey" stroke="black" points="980.5,-766 510.5,-766 510.5,-730 980.5,-730 980.5,-766"/>
<text text-anchor="middle" x="745.5" y="-744.3" font-family="Times,serif" font-size="14.00">#2 Label[context=CodeModel[id=814753967], bci=0] Order: 2</text>
</g>
<!-- node1&#45;&gt;node2 -->
<g id="edge4" class="edge">
<title>node1&#45;&gt;node2</title>
<path fill="none" stroke="red" d="M739.62,-802.81C738.78,-794.79 738.55,-785.05 738.92,-776.07"/>
<polygon fill="red" stroke="red" points="742.42,-776.25 739.64,-766.03 735.44,-775.75 742.42,-776.25"/>
</g>
<!-- node2&#45;&gt;node1 -->
<g id="edge5" class="edge">
<title>node2&#45;&gt;node1</title>
<path fill="none" stroke="fuchsia" d="M751.36,-766.03C752.21,-774.03 752.45,-783.77 752.09,-792.75"/>
<polygon fill="fuchsia" stroke="fuchsia" points="748.59,-792.59 751.38,-802.81 755.57,-793.08 748.59,-792.59"/>
</g>
<!-- node3 -->
<g id="node4" class="node">
<title>node3</title>
<polygon fill="lightgrey" stroke="black" points="872.5,-693 618.5,-693 618.5,-657 872.5,-657 872.5,-693"/>
<text text-anchor="middle" x="745.5" y="-671.3" font-family="Times,serif" font-size="14.00">#3 LineNumber[line=9] Order: 3</text>
</g>
<!-- node2&#45;&gt;node3 -->
<g id="edge6" class="edge">
<title>node2&#45;&gt;node3</title>
<path fill="none" stroke="red" d="M739.62,-729.81C738.78,-721.79 738.55,-712.05 738.92,-703.07"/>
<polygon fill="red" stroke="red" points="742.42,-703.25 739.64,-693.03 735.44,-702.75 742.42,-703.25"/>
</g>
<!-- node3&#45;&gt;node2 -->
<g id="edge7" class="edge">
<title>node3&#45;&gt;node2</title>
<path fill="none" stroke="fuchsia" d="M751.36,-693.03C752.21,-701.03 752.45,-710.77 752.09,-719.75"/>
<polygon fill="fuchsia" stroke="fuchsia" points="748.59,-719.59 751.38,-729.81 755.57,-720.08 748.59,-719.59"/>
</g>
<!-- node4 -->
<g id="node5" class="node">
<title>node4</title>
<polygon fill="lightgrey" stroke="black" points="897,-620 594,-620 594,-584 897,-584 897,-620"/>
<text text-anchor="middle" x="745.5" y="-598.3" font-family="Times,serif" font-size="14.00">#4 Load[OP=ILOAD_1, slot=1] Order: 4</text>
</g>
<!-- node3&#45;&gt;node4 -->
<g id="edge8" class="edge">
<title>node3&#45;&gt;node4</title>
<path fill="none" stroke="red" d="M739.62,-656.81C738.78,-648.79 738.55,-639.05 738.92,-630.07"/>
<polygon fill="red" stroke="red" points="742.42,-630.25 739.64,-620.03 735.44,-629.75 742.42,-630.25"/>
</g>
<!-- node4&#45;&gt;node3 -->
<g id="edge9" class="edge">
<title>node4&#45;&gt;node3</title>
<path fill="none" stroke="fuchsia" d="M751.36,-620.03C752.21,-628.03 752.45,-637.77 752.09,-646.75"/>
<polygon fill="fuchsia" stroke="fuchsia" points="748.59,-646.59 751.38,-656.81 755.57,-647.08 748.59,-646.59"/>
</g>
<!-- node5 -->
<g id="node6" class="node">
<title>node5</title>
<polygon fill="lightgrey" stroke="black" points="932.5,-547 558.5,-547 558.5,-511 932.5,-511 932.5,-547"/>
<text text-anchor="middle" x="745.5" y="-525.3" font-family="Times,serif" font-size="14.00">#5 LookupSwitch[OP=LOOKUPSWITCH] Order: 5</text>
</g>
<!-- node4&#45;&gt;node5 -->
<g id="edge10" class="edge">
<title>node4&#45;&gt;node5</title>
<path fill="none" stroke="red" d="M739.62,-583.81C738.78,-575.79 738.55,-566.05 738.92,-557.07"/>
<polygon fill="red" stroke="red" points="742.42,-557.25 739.64,-547.03 735.44,-556.75 742.42,-557.25"/>
</g>
<!-- node5&#45;&gt;node4 -->
<g id="edge11" class="edge">
<title>node5&#45;&gt;node4</title>
<path fill="none" stroke="fuchsia" d="M751.36,-547.03C752.21,-555.03 752.45,-564.77 752.09,-573.75"/>
<polygon fill="fuchsia" stroke="fuchsia" points="748.59,-573.59 751.38,-583.81 755.57,-574.08 748.59,-573.59"/>
</g>
<!-- node6 -->
<g id="node7" class="node">
<title>node6</title>
<polygon fill="lightgrey" stroke="black" points="479,-474 0,-474 0,-438 479,-438 479,-474"/>
<text text-anchor="middle" x="239.5" y="-452.3" font-family="Times,serif" font-size="14.00">#6 Label[context=CodeModel[id=814753967], bci=28] Order: 6</text>
</g>
<!-- node5&#45;&gt;node6 -->
<g id="edge12" class="edge">
<title>node5&#45;&gt;node6</title>
<path fill="none" stroke="red" d="M618.44,-510.99C541.06,-500.29 442.6,-486.49 365.42,-475.51"/>
<polygon fill="red" stroke="red" points="365.55,-472 355.16,-474.05 364.57,-478.93 365.55,-472"/>
</g>
<!-- node10 -->
<g id="node11" class="node">
<title>node10</title>
<polygon fill="lightgrey" stroke="black" points="994,-474 497,-474 497,-438 994,-438 994,-474"/>
<text text-anchor="middle" x="745.5" y="-452.3" font-family="Times,serif" font-size="14.00">#10 Label[context=CodeModel[id=814753967], bci=33] Order: 10</text>
</g>
<!-- node5&#45;&gt;node10 -->
<g id="edge20" class="edge">
<title>node5&#45;&gt;node10</title>
<path fill="none" stroke="red" d="M739.62,-510.81C738.78,-502.79 738.55,-493.05 738.92,-484.07"/>
<polygon fill="red" stroke="red" points="742.42,-484.25 739.64,-474.03 735.44,-483.75 742.42,-484.25"/>
</g>
<!-- node14 -->
<g id="node15" class="node">
<title>node14</title>
<polygon fill="lightgrey" stroke="black" points="1509,-474 1012,-474 1012,-438 1509,-438 1509,-474"/>
<text text-anchor="middle" x="1260.5" y="-452.3" font-family="Times,serif" font-size="14.00">#14 Label[context=CodeModel[id=814753967], bci=39] Order: 14</text>
</g>
<!-- node5&#45;&gt;node14 -->
<g id="edge28" class="edge">
<title>node5&#45;&gt;node14</title>
<path fill="none" stroke="red" d="M863,-510.99C939.62,-500.27 1039.98,-486.43 1120.7,-475.45"/>
<polygon fill="red" stroke="red" points="1121.51,-478.87 1130.95,-474.05 1120.57,-471.93 1121.51,-478.87"/>
</g>
<!-- node6&#45;&gt;node5 -->
<g id="edge13" class="edge">
<title>node6&#45;&gt;node5</title>
<path fill="none" stroke="fuchsia" d="M366.89,-474.05C444.33,-484.76 542.79,-498.57 619.91,-509.53"/>
<polygon fill="fuchsia" stroke="fuchsia" points="619.77,-513.05 630.16,-510.99 620.75,-506.12 619.77,-513.05"/>
</g>
<!-- node7 -->
<g id="node8" class="node">
<title>node7</title>
<polygon fill="lightgrey" stroke="black" points="371,-401 108,-401 108,-365 371,-365 371,-401"/>
<text text-anchor="middle" x="239.5" y="-379.3" font-family="Times,serif" font-size="14.00">#7 LineNumber[line=10] Order: 7</text>
</g>
<!-- node6&#45;&gt;node7 -->
<g id="edge14" class="edge">
<title>node6&#45;&gt;node7</title>
<path fill="none" stroke="red" d="M233.62,-437.81C232.78,-429.79 232.55,-420.05 232.92,-411.07"/>
<polygon fill="red" stroke="red" points="236.42,-411.25 233.64,-401.03 229.44,-410.75 236.42,-411.25"/>
</g>
<!-- node7&#45;&gt;node6 -->
<g id="edge15" class="edge">
<title>node7&#45;&gt;node6</title>
<path fill="none" stroke="fuchsia" d="M245.36,-401.03C246.21,-409.03 246.45,-418.77 246.09,-427.75"/>
<polygon fill="fuchsia" stroke="fuchsia" points="242.59,-427.59 245.38,-437.81 249.57,-428.08 242.59,-427.59"/>
</g>
<!-- node8 -->
<g id="node9" class="node">
<title>node8</title>
<polygon fill="lightgrey" stroke="black" points="446,-328 33,-328 33,-292 446,-292 446,-328"/>
<text text-anchor="middle" x="239.5" y="-306.3" font-family="Times,serif" font-size="14.00">#8 ArgumentConstant[OP=BIPUSH, val=100] Order: 8</text>
</g>
<!-- node7&#45;&gt;node8 -->
<g id="edge16" class="edge">
<title>node7&#45;&gt;node8</title>
<path fill="none" stroke="red" d="M233.62,-364.81C232.78,-356.79 232.55,-347.05 232.92,-338.07"/>
<polygon fill="red" stroke="red" points="236.42,-338.25 233.64,-328.03 229.44,-337.75 236.42,-338.25"/>
</g>
<!-- node8&#45;&gt;node7 -->
<g id="edge17" class="edge">
<title>node8&#45;&gt;node7</title>
<path fill="none" stroke="fuchsia" d="M245.36,-328.03C246.21,-336.03 246.45,-345.77 246.09,-354.75"/>
<polygon fill="fuchsia" stroke="fuchsia" points="242.59,-354.59 245.38,-364.81 249.57,-355.08 242.59,-354.59"/>
</g>
<!-- node9 -->
<g id="node10" class="node">
<title>node9</title>
<polygon fill="lightgrey" stroke="black" points="361.5,-255 117.5,-255 117.5,-219 361.5,-219 361.5,-255"/>
<text text-anchor="middle" x="239.5" y="-233.3" font-family="Times,serif" font-size="14.00">#9 Branch[OP=GOTO] Order: 9</text>
</g>
<!-- node8&#45;&gt;node9 -->
<g id="edge18" class="edge">
<title>node8&#45;&gt;node9</title>
<path fill="none" stroke="red" d="M233.62,-291.81C232.78,-283.79 232.55,-274.05 232.92,-265.07"/>
<polygon fill="red" stroke="red" points="236.42,-265.25 233.64,-255.03 229.44,-264.75 236.42,-265.25"/>
</g>
<!-- node9&#45;&gt;node8 -->
<g id="edge19" class="edge">
<title>node9&#45;&gt;node8</title>
<path fill="none" stroke="fuchsia" d="M245.36,-255.03C246.21,-263.03 246.45,-272.77 246.09,-281.75"/>
<polygon fill="fuchsia" stroke="fuchsia" points="242.59,-281.59 245.38,-291.81 249.57,-282.08 242.59,-281.59"/>
</g>
<!-- node17 -->
<g id="node18" class="node">
<title>node17</title>
<polygon fill="lightgrey" stroke="black" points="1315,-182 818,-182 818,-146 1315,-146 1315,-182"/>
<text text-anchor="middle" x="1066.5" y="-160.3" font-family="Times,serif" font-size="14.00">#17 Label[context=CodeModel[id=814753967], bci=42] Order: 17</text>
</g>
<!-- node9&#45;&gt;node17 -->
<g id="edge34" class="edge">
<title>node9&#45;&gt;node17</title>
<path fill="none" stroke="red" d="M361.53,-225.52C491.99,-214.32 701.23,-196.36 857.92,-182.91"/>
<polygon fill="red" stroke="red" points="858.5,-186.37 868.16,-182.03 857.9,-179.4 858.5,-186.37"/>
</g>
<!-- node10&#45;&gt;node5 -->
<g id="edge21" class="edge">
<title>node10&#45;&gt;node5</title>
<path fill="none" stroke="fuchsia" d="M751.36,-474.03C752.21,-482.03 752.45,-491.77 752.09,-500.75"/>
<polygon fill="fuchsia" stroke="fuchsia" points="748.59,-500.59 751.38,-510.81 755.57,-501.08 748.59,-500.59"/>
</g>
<!-- node11 -->
<g id="node12" class="node">
<title>node11</title>
<polygon fill="lightgrey" stroke="black" points="886,-401 605,-401 605,-365 886,-365 886,-401"/>
<text text-anchor="middle" x="745.5" y="-379.3" font-family="Times,serif" font-size="14.00">#11 LineNumber[line=11] Order: 11</text>
</g>
<!-- node10&#45;&gt;node11 -->
<g id="edge22" class="edge">
<title>node10&#45;&gt;node11</title>
<path fill="none" stroke="red" d="M739.62,-437.81C738.78,-429.79 738.55,-420.05 738.92,-411.07"/>
<polygon fill="red" stroke="red" points="742.42,-411.25 739.64,-401.03 735.44,-410.75 742.42,-411.25"/>
</g>
<!-- node11&#45;&gt;node10 -->
<g id="edge23" class="edge">
<title>node11&#45;&gt;node10</title>
<path fill="none" stroke="fuchsia" d="M751.36,-401.03C752.21,-409.03 752.45,-418.77 752.09,-427.75"/>
<polygon fill="fuchsia" stroke="fuchsia" points="748.59,-427.59 751.38,-437.81 755.57,-428.08 748.59,-427.59"/>
</g>
<!-- node12 -->
<g id="node13" class="node">
<title>node12</title>
<polygon fill="lightgrey" stroke="black" points="961,-328 530,-328 530,-292 961,-292 961,-328"/>
<text text-anchor="middle" x="745.5" y="-306.3" font-family="Times,serif" font-size="14.00">#12 ArgumentConstant[OP=SIPUSH, val=200] Order: 12</text>
</g>
<!-- node11&#45;&gt;node12 -->
<g id="edge24" class="edge">
<title>node11&#45;&gt;node12</title>
<path fill="none" stroke="red" d="M739.62,-364.81C738.78,-356.79 738.55,-347.05 738.92,-338.07"/>
<polygon fill="red" stroke="red" points="742.42,-338.25 739.64,-328.03 735.44,-337.75 742.42,-338.25"/>
</g>
<!-- node12&#45;&gt;node11 -->
<g id="edge25" class="edge">
<title>node12&#45;&gt;node11</title>
<path fill="none" stroke="fuchsia" d="M751.36,-328.03C752.21,-336.03 752.45,-345.77 752.09,-354.75"/>
<polygon fill="fuchsia" stroke="fuchsia" points="748.59,-354.59 751.38,-364.81 755.57,-355.08 748.59,-354.59"/>
</g>
<!-- node13 -->
<g id="node14" class="node">
<title>node13</title>
<polygon fill="lightgrey" stroke="black" points="876.5,-255 614.5,-255 614.5,-219 876.5,-219 876.5,-255"/>
<text text-anchor="middle" x="745.5" y="-233.3" font-family="Times,serif" font-size="14.00">#13 Branch[OP=GOTO] Order: 13</text>
</g>
<!-- node12&#45;&gt;node13 -->
<g id="edge26" class="edge">
<title>node12&#45;&gt;node13</title>
<path fill="none" stroke="red" d="M739.62,-291.81C738.78,-283.79 738.55,-274.05 738.92,-265.07"/>
<polygon fill="red" stroke="red" points="742.42,-265.25 739.64,-255.03 735.44,-264.75 742.42,-265.25"/>
</g>
<!-- node13&#45;&gt;node12 -->
<g id="edge27" class="edge">
<title>node13&#45;&gt;node12</title>
<path fill="none" stroke="fuchsia" d="M751.36,-255.03C752.21,-263.03 752.45,-272.77 752.09,-281.75"/>
<polygon fill="fuchsia" stroke="fuchsia" points="748.59,-281.59 751.38,-291.81 755.57,-282.08 748.59,-281.59"/>
</g>
<!-- node13&#45;&gt;node17 -->
<g id="edge35" class="edge">
<title>node13&#45;&gt;node17</title>
<path fill="none" stroke="red" d="M822.39,-218.99C869.67,-208.53 930.39,-195.11 979.44,-184.26"/>
<polygon fill="red" stroke="red" points="980.4,-187.63 989.41,-182.05 978.89,-180.79 980.4,-187.63"/>
</g>
<!-- node14&#45;&gt;node5 -->
<g id="edge29" class="edge">
<title>node14&#45;&gt;node5</title>
<path fill="none" stroke="fuchsia" d="M1142.68,-474.05C1065.98,-484.78 965.62,-498.62 884.95,-509.6"/>
<polygon fill="fuchsia" stroke="fuchsia" points="884.15,-506.18 874.71,-510.99 885.09,-513.11 884.15,-506.18"/>
</g>
<!-- node15 -->
<g id="node16" class="node">
<title>node15</title>
<polygon fill="lightgrey" stroke="black" points="1401,-401 1120,-401 1120,-365 1401,-365 1401,-401"/>
<text text-anchor="middle" x="1260.5" y="-379.3" font-family="Times,serif" font-size="14.00">#15 LineNumber[line=12] Order: 15</text>
</g>
<!-- node14&#45;&gt;node15 -->
<g id="edge30" class="edge">
<title>node14&#45;&gt;node15</title>
<path fill="none" stroke="red" d="M1254.62,-437.81C1253.78,-429.79 1253.55,-420.05 1253.92,-411.07"/>
<polygon fill="red" stroke="red" points="1257.42,-411.25 1254.64,-401.03 1250.44,-410.75 1257.42,-411.25"/>
</g>
<!-- node15&#45;&gt;node14 -->
<g id="edge31" class="edge">
<title>node15&#45;&gt;node14</title>
<path fill="none" stroke="fuchsia" d="M1266.36,-401.03C1267.21,-409.03 1267.45,-418.77 1267.09,-427.75"/>
<polygon fill="fuchsia" stroke="fuchsia" points="1263.59,-427.59 1266.38,-437.81 1270.57,-428.08 1263.59,-427.59"/>
</g>
<!-- node16 -->
<g id="node17" class="node">
<title>node16</title>
<polygon fill="lightgrey" stroke="black" points="1476,-328 1045,-328 1045,-292 1476,-292 1476,-328"/>
<text text-anchor="middle" x="1260.5" y="-306.3" font-family="Times,serif" font-size="14.00">#16 ArgumentConstant[OP=SIPUSH, val=300] Order: 16</text>
</g>
<!-- node15&#45;&gt;node16 -->
<g id="edge32" class="edge">
<title>node15&#45;&gt;node16</title>
<path fill="none" stroke="red" d="M1254.62,-364.81C1253.78,-356.79 1253.55,-347.05 1253.92,-338.07"/>
<polygon fill="red" stroke="red" points="1257.42,-338.25 1254.64,-328.03 1250.44,-337.75 1257.42,-338.25"/>
</g>
<!-- node16&#45;&gt;node15 -->
<g id="edge33" class="edge">
<title>node16&#45;&gt;node15</title>
<path fill="none" stroke="fuchsia" d="M1266.36,-328.03C1267.21,-336.03 1267.45,-345.77 1267.09,-354.75"/>
<polygon fill="fuchsia" stroke="fuchsia" points="1263.59,-354.59 1266.38,-364.81 1270.57,-355.08 1263.59,-354.59"/>
</g>
<!-- node16&#45;&gt;node17 -->
<g id="edge36" class="edge">
<title>node16&#45;&gt;node17</title>
<path fill="none" stroke="red" d="M1237.48,-291.92C1202.77,-266.15 1136.94,-217.29 1097.87,-188.28"/>
<polygon fill="red" stroke="red" points="1099.6,-185.21 1089.49,-182.06 1095.43,-190.83 1099.6,-185.21"/>
</g>
<!-- node17&#45;&gt;node5 -->
<g id="edge37" class="edge">
<title>node17&#45;&gt;node5</title>
<path fill="none" stroke="fuchsia" d="M1315.1,-181.92C1428.33,-193.12 1537.5,-210.52 1537.5,-236 1537.5,-457 1537.5,-457 1537.5,-457 1537.5,-468.33 1528.94,-469.59 1518.5,-474 1466.81,-495.84 1154.13,-512.15 942.63,-520.86"/>
<polygon fill="fuchsia" stroke="fuchsia" points="942.48,-517.36 932.64,-521.27 942.77,-524.36 942.48,-517.36"/>
</g>
<!-- node18 -->
<g id="node19" class="node">
<title>node18</title>
<polygon fill="lightgrey" stroke="black" points="1202.5,-109 930.5,-109 930.5,-73 1202.5,-73 1202.5,-109"/>
<text text-anchor="middle" x="1066.5" y="-87.3" font-family="Times,serif" font-size="14.00">#18 LineNumber[line=9] Order: 18</text>
</g>
<!-- node17&#45;&gt;node18 -->
<g id="edge38" class="edge">
<title>node17&#45;&gt;node18</title>
<path fill="none" stroke="red" d="M1060.62,-145.81C1059.78,-137.79 1059.55,-128.05 1059.92,-119.07"/>
<polygon fill="red" stroke="red" points="1063.42,-119.25 1060.64,-109.03 1056.44,-118.75 1063.42,-119.25"/>
</g>
<!-- node18&#45;&gt;node17 -->
<g id="edge39" class="edge">
<title>node18&#45;&gt;node17</title>
<path fill="none" stroke="fuchsia" d="M1072.36,-109.03C1073.21,-117.03 1073.45,-126.77 1073.09,-135.75"/>
<polygon fill="fuchsia" stroke="fuchsia" points="1069.59,-135.59 1072.38,-145.81 1076.57,-136.08 1069.59,-135.59"/>
</g>
<!-- node19 -->
<g id="node20" class="node">
<title>node19</title>
<polygon fill="lightgrey" stroke="black" points="1210,-36 923,-36 923,0 1210,0 1210,-36"/>
<text text-anchor="middle" x="1066.5" y="-14.3" font-family="Times,serif" font-size="14.00">#19 Return[OP=IRETURN] Order: 19</text>
</g>
<!-- node18&#45;&gt;node19 -->
<g id="edge40" class="edge">
<title>node18&#45;&gt;node19</title>
<path fill="none" stroke="red" d="M1060.62,-72.81C1059.78,-64.79 1059.55,-55.05 1059.92,-46.07"/>
<polygon fill="red" stroke="red" points="1063.42,-46.25 1060.64,-36.03 1056.44,-45.75 1063.42,-46.25"/>
</g>
<!-- node19&#45;&gt;node18 -->
<g id="edge41" class="edge">
<title>node19&#45;&gt;node18</title>
<path fill="none" stroke="fuchsia" d="M1072.36,-36.03C1073.21,-44.03 1073.45,-53.77 1073.09,-62.75"/>
<polygon fill="fuchsia" stroke="fuchsia" points="1069.59,-62.59 1072.38,-72.81 1076.57,-63.08 1069.59,-62.59"/>
</g>
<!-- c0 -->
<!-- c1 -->
<!-- c0&#45;&gt;c1 -->
<g id="edge42" class="edge">
<title>c0&#45;&gt;c1</title>
<path fill="none" stroke="red" d="M1379.39,-894C1390.61,-894 1448.74,-894 1474.36,-894"/>
<polygon fill="red" stroke="red" points="1474.56,-897.5 1484.56,-894 1474.56,-890.5 1474.56,-897.5"/>
<text text-anchor="middle" x="1432" y="-900.8" font-family="Times,serif" font-size="14.00">Control flow</text>
</g>
<!-- c2 -->
<!-- c3 -->
<!-- c2&#45;&gt;c3 -->
<g id="edge43" class="edge">
<title>c2&#45;&gt;c3</title>
<path fill="none" stroke="red" stroke-dasharray="5,2" d="M1172.58,-894C1189.55,-894 1305.71,-894 1343.58,-894"/>
<polygon fill="red" stroke="red" points="1343.67,-897.5 1353.67,-894 1343.67,-890.5 1343.67,-897.5"/>
<text text-anchor="middle" x="1263" y="-900.8" font-family="Times,serif" font-size="14.00">Control flow back edge</text>
</g>
</g>
</svg>
