<?xml version="1.0" encoding="UTF-8" standalone="no"?>
<!DOCTYPE svg PUBLIC "-//W3C//DTD SVG 1.1//EN"
 "http://www.w3.org/Graphics/SVG/1.1/DTD/svg11.dtd">
<!-- Generated by graphviz version 2.43.0 (0)
 -->
<!-- Title: %3 Pages: 1 -->
<svg width="1536pt" height="388pt"
 viewBox="0.00 0.00 1535.89 388.00" xmlns="http://www.w3.org/2000/svg" xmlns:xlink="http://www.w3.org/1999/xlink">
<g id="graph0" class="graph" transform="scale(1 1) rotate(0) translate(4 384)">
<title>%3</title>
<polygon fill="white" stroke="transparent" points="-4,4 -4,-384 1531.89,-384 1531.89,4 -4,4"/>
<g id="clust1" class="cluster">
<title>cluster_0</title>
<polygon fill="none" stroke="lightgray" points="174.89,-229 174.89,-372 658.89,-372 658.89,-229 174.89,-229"/>
</g>
<g id="clust2" class="cluster">
<title>cluster_000</title>
<polygon fill="none" stroke="black" points="666.89,-327.2 666.89,-369.8 1519.89,-369.8 1519.89,-327.2 666.89,-327.2"/>
<text text-anchor="middle" x="1093.39" y="-354.6" font-family="Times,serif" font-size="14.00">Legend</text>
</g>
<!-- node0 -->
<g id="node1" class="node">
<title>node0</title>
<polygon fill="lightgrey" stroke="transparent" points="428.39,-364 183.39,-364 183.39,-310 428.39,-310 428.39,-364"/>
<polygon fill="none" stroke="black" points="183.89,-337 183.89,-364 428.89,-364 428.89,-337 183.89,-337"/>
<text text-anchor="start" x="265.89" y="-346.8" font-family="Times,serif" font-size="14.00">#0 Method</text>
<polygon fill="yellow" stroke="transparent" points="183.89,-310 183.89,-337 262.89,-337 262.89,-310 183.89,-310"/>
<polygon fill="none" stroke="black" points="183.89,-310 183.89,-337 262.89,-337 262.89,-310 183.89,-310"/>
<text text-anchor="start" x="189.89" y="-319.8" font-family="Times,serif" font-size="14.00">arg0 : int</text>
<polygon fill="yellow" stroke="transparent" points="262.89,-310 262.89,-337 428.89,-337 428.89,-310 262.89,-310"/>
<polygon fill="none" stroke="black" points="262.89,-310 262.89,-337 428.89,-337 428.89,-310 262.89,-310"/>
<text text-anchor="start" x="268.89" y="-319.8" font-family="Times,serif" font-size="14.00">this : SwitchCaseTest</text>
</g>
<!-- node3 -->
<g id="node2" class="node">
<title>node3</title>
<polygon fill="lightgrey" stroke="black" points="165.39,-273 46.39,-273 46.39,-237 165.39,-237 165.39,-273"/>
<text text-anchor="middle" x="105.89" y="-251.3" font-family="Times,serif" font-size="14.00">#3 LabelNode</text>
</g>
<!-- node0&#45;&gt;node3 -->
<g id="edge1" class="edge">
<title>node0&#45;&gt;node3</title>
<path fill="none" stroke="red" d="M240.68,-309.92C213.89,-299.2 183.3,-286.97 158.04,-276.86"/>
<polygon fill="red" stroke="red" points="159.23,-273.56 148.64,-273.1 156.63,-280.06 159.23,-273.56"/>
</g>
<!-- node4 -->
<g id="node3" class="node">
<title>node4</title>
<polygon fill="lightgrey" stroke="transparent" points="187.39,-200 18.39,-200 18.39,-146 187.39,-146 187.39,-200"/>
<polygon fill="none" stroke="black" points="18.89,-173 18.89,-200 187.89,-200 187.89,-173 18.89,-173"/>
<text text-anchor="start" x="39.89" y="-182.8" font-family="Times,serif" font-size="14.00">#4 LookupSwitch</text>
<polygon fill="yellow" stroke="transparent" points="18.89,-146 18.89,-173 71.89,-173 71.89,-146 18.89,-146"/>
<polygon fill="none" stroke="black" points="18.89,-146 18.89,-173 71.89,-173 71.89,-146 18.89,-146"/>
<text text-anchor="start" x="24.89" y="-155.8" font-family="Times,serif" font-size="14.00">case0</text>
<polygon fill="yellow" stroke="transparent" points="71.89,-146 71.89,-173 124.89,-173 124.89,-146 71.89,-146"/>
<polygon fill="none" stroke="black" points="71.89,-146 71.89,-173 124.89,-173 124.89,-146 71.89,-146"/>
<text text-anchor="start" x="77.89" y="-155.8" font-family="Times,serif" font-size="14.00">case1</text>
<polygon fill="yellow" stroke="transparent" points="124.89,-146 124.89,-173 187.89,-173 187.89,-146 124.89,-146"/>
<polygon fill="none" stroke="black" points="124.89,-146 124.89,-173 187.89,-173 187.89,-146 124.89,-146"/>
<text text-anchor="start" x="130.89" y="-155.8" font-family="Times,serif" font-size="14.00">default</text>
</g>
<!-- node0&#45;&gt;node4 -->
<g id="edge2" class="edge">
<title>node0:prj1&#45;&gt;node4</title>
<path fill="none" stroke="black" d="M182.89,-323C148.6,-323 56.83,-300.9 36.89,-273 25.52,-257.09 28.6,-246.71 36.89,-229 40.66,-220.94 46.26,-213.65 52.63,-207.21"/>
<polygon fill="black" stroke="black" points="55.42,-209.4 60.4,-200.04 50.68,-204.25 55.42,-209.4"/>
<text text-anchor="middle" x="52.81" y="-214.85" font-family="Times,serif" font-size="14.00">*0</text>
</g>
<!-- node15 -->
<g id="node5" class="node">
<title>node15</title>
<polygon fill="lightgrey" stroke="black" points="265.39,-36 92.39,-36 92.39,0 265.39,0 265.39,-36"/>
<text text-anchor="middle" x="178.89" y="-14.3" font-family="Times,serif" font-size="14.00">#15 ReturnValue : int</text>
</g>
<!-- node0&#45;&gt;node15 -->
<g id="edge7" class="edge">
<title>node0&#45;&gt;node15</title>
<path fill="none" stroke="green" d="M183.32,-318.68C123.37,-308 59.35,-292.59 36.89,-273 10.7,-250.16 15.22,-234.17 8.89,-200 -1.53,-143.75 -9.17,-114.8 29.89,-73 44.24,-57.64 63.3,-46.64 82.98,-38.77"/>
<polygon fill="green" stroke="green" points="84.22,-42.04 92.35,-35.25 81.76,-35.48 84.22,-42.04"/>
</g>
<!-- node11 -->
<g id="node6" class="node">
<title>node11</title>
<polygon fill="lightgreen" stroke="black" points="326.4,-247.54 326.4,-262.46 284.51,-273 225.27,-273 183.38,-262.46 183.38,-247.54 225.27,-237 284.51,-237 326.4,-247.54"/>
<text text-anchor="middle" x="254.89" y="-251.3" font-family="Times,serif" font-size="14.00">#11 int 100</text>
</g>
<!-- node0&#45;&gt;node11 -->
<g id="edge8" class="edge">
<title>node0&#45;&gt;node11</title>
<path fill="none" stroke="black" stroke-dasharray="1,5" d="M289.19,-309.81C283.44,-300.78 277.01,-290.69 271.28,-281.71"/>
<polygon fill="black" stroke="black" points="274.17,-279.73 265.84,-273.17 268.26,-283.49 274.17,-279.73"/>
</g>
<!-- node14 -->
<g id="node8" class="node">
<title>node14</title>
<polygon fill="lightgrey" stroke="black" points="689.39,-36 516.39,-36 516.39,0 689.39,0 689.39,-36"/>
<text text-anchor="middle" x="602.89" y="-14.3" font-family="Times,serif" font-size="14.00">#14 ReturnValue : int</text>
</g>
<!-- node0&#45;&gt;node14 -->
<g id="edge12" class="edge">
<title>node0&#45;&gt;node14</title>
<path fill="none" stroke="green" d="M428.67,-330.52C518.84,-323.62 630.53,-308.05 659.89,-273 672.45,-258.01 672.16,-244.23 659.89,-229 621.94,-181.88 585.16,-216.26 526.89,-200 406.54,-166.41 333.55,-210.65 260.89,-109 251.59,-95.98 250.5,-85.16 260.89,-73 264.93,-68.28 406.38,-47.13 506.08,-32.75"/>
<polygon fill="green" stroke="green" points="506.8,-36.18 516.2,-31.29 505.8,-29.25 506.8,-36.18"/>
</g>
<!-- node13 -->
<g id="node9" class="node">
<title>node13</title>
<polygon fill="lightgreen" stroke="black" points="650.4,-247.54 650.4,-262.46 608.51,-273 549.27,-273 507.38,-262.46 507.38,-247.54 549.27,-237 608.51,-237 650.4,-247.54"/>
<text text-anchor="middle" x="578.89" y="-251.3" font-family="Times,serif" font-size="14.00">#13 int 300</text>
</g>
<!-- node0&#45;&gt;node13 -->
<g id="edge13" class="edge">
<title>node0&#45;&gt;node13</title>
<path fill="none" stroke="black" stroke-dasharray="1,5" d="M394.9,-309.92C437.29,-297.5 486.65,-283.03 523.57,-272.21"/>
<polygon fill="black" stroke="black" points="525.02,-275.43 533.63,-269.26 523.05,-268.72 525.02,-275.43"/>
</g>
<!-- node16 -->
<g id="node11" class="node">
<title>node16</title>
<polygon fill="lightgrey" stroke="black" points="469.39,-36 296.39,-36 296.39,0 469.39,0 469.39,-36"/>
<text text-anchor="middle" x="382.89" y="-14.3" font-family="Times,serif" font-size="14.00">#16 ReturnValue : int</text>
</g>
<!-- node0&#45;&gt;node16 -->
<g id="edge17" class="edge">
<title>node0&#45;&gt;node16</title>
<path fill="none" stroke="green" d="M428.76,-333.42C529.58,-328.32 660.76,-313.77 692.89,-273 782.23,-159.63 672.36,-255.66 474.89,-109 448.56,-89.45 422.18,-62.73 404.46,-43.49"/>
<polygon fill="green" stroke="green" points="406.97,-41.05 397.66,-36 401.79,-45.76 406.97,-41.05"/>
</g>
<!-- node12 -->
<g id="node12" class="node">
<title>node12</title>
<polygon fill="lightgreen" stroke="black" points="488.4,-247.54 488.4,-262.46 446.51,-273 387.27,-273 345.38,-262.46 345.38,-247.54 387.27,-237 446.51,-237 488.4,-247.54"/>
<text text-anchor="middle" x="416.89" y="-251.3" font-family="Times,serif" font-size="14.00">#12 int 200</text>
</g>
<!-- node0&#45;&gt;node12 -->
<g id="edge18" class="edge">
<title>node0&#45;&gt;node12</title>
<path fill="none" stroke="black" stroke-dasharray="1,5" d="M342.24,-309.81C355.93,-299.94 371.39,-288.79 384.68,-279.21"/>
<polygon fill="black" stroke="black" points="387,-281.86 393.06,-273.17 382.9,-276.18 387,-281.86"/>
</g>
<!-- node3&#45;&gt;node4 -->
<g id="edge3" class="edge">
<title>node3&#45;&gt;node4</title>
<path fill="none" stroke="red" d="M105.24,-236.64C104.95,-228.9 104.6,-219.46 104.25,-210.29"/>
<polygon fill="red" stroke="red" points="107.74,-210.01 103.87,-200.15 100.75,-210.27 107.74,-210.01"/>
</g>
<!-- node10 -->
<g id="node4" class="node">
<title>node10</title>
<polygon fill="lightgrey" stroke="black" points="166.89,-109 38.89,-109 38.89,-73 166.89,-73 166.89,-109"/>
<text text-anchor="middle" x="102.89" y="-87.3" font-family="Times,serif" font-size="14.00">#10 LabelNode</text>
</g>
<!-- node4&#45;&gt;node10 -->
<g id="edge4" class="edge">
<title>node4:prj9&#45;&gt;node10</title>
<path fill="none" stroke="red" d="M44.89,-146C44.89,-133.85 51.79,-123.66 60.83,-115.52"/>
<polygon fill="red" stroke="red" points="63.17,-118.13 68.82,-109.17 58.81,-112.65 63.17,-118.13"/>
</g>
<!-- node8 -->
<g id="node7" class="node">
<title>node8</title>
<polygon fill="lightgrey" stroke="black" points="602.39,-109 483.39,-109 483.39,-73 602.39,-73 602.39,-109"/>
<text text-anchor="middle" x="542.89" y="-87.3" font-family="Times,serif" font-size="14.00">#8 LabelNode</text>
</g>
<!-- node4&#45;&gt;node8 -->
<g id="edge9" class="edge">
<title>node4:prj7&#45;&gt;node8</title>
<path fill="none" stroke="red" d="M188.89,-159C291.34,-159 407.61,-131.57 478.08,-111.81"/>
<polygon fill="red" stroke="red" points="479.04,-115.18 487.71,-109.08 477.13,-108.44 479.04,-115.18"/>
</g>
<!-- node6 -->
<g id="node10" class="node">
<title>node6</title>
<polygon fill="lightgrey" stroke="black" points="388.39,-109 269.39,-109 269.39,-73 388.39,-73 388.39,-109"/>
<text text-anchor="middle" x="328.89" y="-87.3" font-family="Times,serif" font-size="14.00">#6 LabelNode</text>
</g>
<!-- node4&#45;&gt;node6 -->
<g id="edge14" class="edge">
<title>node4:prj5&#45;&gt;node6</title>
<path fill="none" stroke="red" d="M97.89,-146C97.89,-129.28 190.87,-112.04 258.85,-101.67"/>
<polygon fill="red" stroke="red" points="259.73,-105.08 269.1,-100.13 258.69,-98.15 259.73,-105.08"/>
</g>
<!-- node10&#45;&gt;node15 -->
<g id="edge6" class="edge">
<title>node10&#45;&gt;node15</title>
<path fill="none" stroke="red" d="M121.29,-72.81C130.9,-63.83 142.82,-52.69 153.32,-42.89"/>
<polygon fill="red" stroke="red" points="155.74,-45.41 160.66,-36.03 150.97,-40.3 155.74,-45.41"/>
</g>
<!-- node11&#45;&gt;node15 -->
<g id="edge5" class="edge">
<title>node11&#45;&gt;node15</title>
<path fill="none" stroke="black" d="M249.3,-236.72C236.18,-196.15 203.32,-94.55 187.58,-45.85"/>
<polygon fill="black" stroke="black" points="190.89,-44.74 184.49,-36.31 184.23,-46.9 190.89,-44.74"/>
<text text-anchor="middle" x="198.11" y="-47.25" font-family="Times,serif" font-size="14.00">*0</text>
</g>
<!-- node8&#45;&gt;node14 -->
<g id="edge11" class="edge">
<title>node8&#45;&gt;node14</title>
<path fill="none" stroke="red" d="M557.41,-72.81C564.78,-64.09 573.87,-53.34 581.98,-43.75"/>
<polygon fill="red" stroke="red" points="584.72,-45.93 588.5,-36.03 579.37,-41.41 584.72,-45.93"/>
</g>
<!-- node13&#45;&gt;node14 -->
<g id="edge10" class="edge">
<title>node13&#45;&gt;node14</title>
<path fill="none" stroke="black" d="M585.08,-236.93C595.97,-205 616.94,-133.96 611.89,-73 611.17,-64.34 609.82,-54.98 608.38,-46.53"/>
<polygon fill="black" stroke="black" points="611.77,-45.63 606.54,-36.42 604.89,-46.88 611.77,-45.63"/>
<text text-anchor="middle" x="618.1" y="-49.04" font-family="Times,serif" font-size="14.00">*0</text>
</g>
<!-- node6&#45;&gt;node16 -->
<g id="edge16" class="edge">
<title>node6&#45;&gt;node16</title>
<path fill="none" stroke="red" d="M341.96,-72.81C348.53,-64.18 356.61,-53.56 363.85,-44.03"/>
<polygon fill="red" stroke="red" points="366.67,-46.11 369.94,-36.03 361.1,-41.87 366.67,-46.11"/>
</g>
<!-- node12&#45;&gt;node16 -->
<g id="edge15" class="edge">
<title>node12&#45;&gt;node16</title>
<path fill="none" stroke="black" d="M416.05,-236.89C414.24,-204.61 409.21,-132.6 397.89,-73 396.21,-64.17 393.79,-54.67 391.38,-46.15"/>
<polygon fill="black" stroke="black" points="394.68,-44.94 388.5,-36.34 387.96,-46.92 394.68,-44.94"/>
<text text-anchor="middle" x="401.72" y="-47.64" font-family="Times,serif" font-size="14.00">*0</text>
</g>
<!-- c0 -->
<!-- c1 -->
<!-- c0&#45;&gt;c1 -->
<g id="edge19" class="edge">
<title>c0&#45;&gt;c1</title>
<path fill="none" stroke="red" d="M1402.78,-337C1414,-337 1472.13,-337 1497.75,-337"/>
<polygon fill="red" stroke="red" points="1497.95,-340.5 1507.95,-337 1497.95,-333.5 1497.95,-340.5"/>
<text text-anchor="middle" x="1455.39" y="-343.8" font-family="Times,serif" font-size="14.00">Control flow</text>
</g>
<!-- c2 -->
<!-- c3 -->
<!-- c2&#45;&gt;c3 -->
<g id="edge20" class="edge">
<title>c2&#45;&gt;c3</title>
<path fill="none" stroke="red" stroke-dasharray="5,2" d="M1195.97,-337C1212.94,-337 1329.1,-337 1366.97,-337"/>
<polygon fill="red" stroke="red" points="1367.06,-340.5 1377.06,-337 1367.06,-333.5 1367.06,-340.5"/>
<text text-anchor="middle" x="1286.39" y="-343.8" font-family="Times,serif" font-size="14.00">Control flow back edge</text>
</g>
<!-- d0 -->
<!-- d1 -->
<!-- d0&#45;&gt;d1 -->
<g id="edge21" class="edge">
<title>d0&#45;&gt;d1</title>
<path fill="none" stroke="black" d="M1084.75,-337C1094.3,-337 1138.2,-337 1159.81,-337"/>
<polygon fill="black" stroke="black" points="1160.04,-340.5 1170.04,-337 1160.04,-333.5 1160.04,-340.5"/>
<text text-anchor="middle" x="1127.39" y="-343.8" font-family="Times,serif" font-size="14.00">Data flow</text>
</g>
<!-- d2 -->
<!-- d3 -->
<!-- d2&#45;&gt;d3 -->
<g id="edge22" class="edge">
<title>d2&#45;&gt;d3</title>
<path fill="none" stroke="black" stroke-dasharray="1,5" d="M958.7,-337C969.35,-337 1024.36,-337 1048.97,-337"/>
<polygon fill="black" stroke="black" points="1049.04,-340.5 1059.04,-337 1049.04,-333.5 1049.04,-340.5"/>
<text text-anchor="middle" x="1008.89" y="-343.8" font-family="Times,serif" font-size="14.00">Declaration</text>
</g>
<!-- d4 -->
<!-- d5 -->
<!-- d4&#45;&gt;d5 -->
<g id="edge23" class="edge">
<title>d4&#45;&gt;d5</title>
<path fill="none" stroke="blue" d="M815.99,-337C828.61,-337 894.77,-337 922.57,-337"/>
<polygon fill="blue" stroke="blue" points="922.73,-340.5 932.73,-337 922.73,-333.5 922.73,-340.5"/>
<text text-anchor="middle" x="874.39" y="-343.8" font-family="Times,serif" font-size="14.00">PHI Data flow</text>
</g>
<!-- d6 -->
<!-- d7 -->
<!-- d6&#45;&gt;d7 -->
<g id="edge24" class="edge">
<title>d6&#45;&gt;d7</title>
<path fill="none" stroke="green" d="M678.89,-337C690.83,-337 753.19,-337 779.82,-337"/>
<polygon fill="green" stroke="green" points="779.84,-340.5 789.84,-337 779.84,-333.5 779.84,-340.5"/>
<text text-anchor="middle" x="734.39" y="-343.8" font-family="Times,serif" font-size="14.00">Memory flow</text>
</g>
</g>
</svg>
