<?xml version="1.0" encoding="UTF-8" standalone="no"?>
<!DOCTYPE svg PUBLIC "-//W3C//DTD SVG 1.1//EN"
 "http://www.w3.org/Graphics/SVG/1.1/DTD/svg11.dtd">
<!-- Generated by graphviz version 2.43.0 (0)
 -->
<!-- Title: %3 Pages: 1 -->
<svg width="1568pt" height="605pt"
 viewBox="0.00 0.00 1568.16 604.80" xmlns="http://www.w3.org/2000/svg" xmlns:xlink="http://www.w3.org/1999/xlink">
<g id="graph0" class="graph" transform="scale(1 1) rotate(0) translate(4 600.8)">
<title>%3</title>
<polygon fill="white" stroke="transparent" points="-4,4 -4,-600.8 1564.16,-600.8 1564.16,4 -4,4"/>
<g id="clust1" class="cluster">
<title>cluster_0</title>
<polygon fill="none" stroke="lightgray" points="587.16,-138 587.16,-263 747.16,-263 747.16,-138 587.16,-138"/>
</g>
<g id="clust2" class="cluster">
<title>cluster_1</title>
<polygon fill="none" stroke="lightgray" points="13.16,-211 13.16,-336 173.16,-336 173.16,-211 13.16,-211"/>
</g>
<g id="clust3" class="cluster">
<title>cluster_2</title>
<polygon fill="none" stroke="lightgray" points="271.16,-65 271.16,-190 463.16,-190 463.16,-65 271.16,-65"/>
</g>
<g id="clust4" class="cluster">
<title>cluster_3</title>
<polygon fill="none" stroke="lightgray" points="419.16,-211 419.16,-336 579.16,-336 579.16,-211 419.16,-211"/>
</g>
<g id="clust5" class="cluster">
<title>cluster_000</title>
<polygon fill="none" stroke="black" points="699.16,-546.2 699.16,-588.8 1552.16,-588.8 1552.16,-546.2 699.16,-546.2"/>
<text text-anchor="middle" x="1125.66" y="-573.6" font-family="Times,serif" font-size="14.00">Legend</text>
</g>
<!-- node0 -->
<g id="node1" class="node">
<title>node0</title>
<polygon fill="lightgrey" stroke="transparent" points="689.66,-583 444.66,-583 444.66,-529 689.66,-529 689.66,-583"/>
<polygon fill="none" stroke="black" points="445.16,-556 445.16,-583 690.16,-583 690.16,-556 445.16,-556"/>
<text text-anchor="start" x="527.16" y="-565.8" font-family="Times,serif" font-size="14.00">#0 Method</text>
<polygon fill="yellow" stroke="transparent" points="445.16,-529 445.16,-556 524.16,-556 524.16,-529 445.16,-529"/>
<polygon fill="none" stroke="black" points="445.16,-529 445.16,-556 524.16,-556 524.16,-529 445.16,-529"/>
<text text-anchor="start" x="451.16" y="-538.8" font-family="Times,serif" font-size="14.00">arg0 : int</text>
<polygon fill="yellow" stroke="transparent" points="524.16,-529 524.16,-556 690.16,-556 690.16,-529 524.16,-529"/>
<polygon fill="none" stroke="black" points="524.16,-529 524.16,-556 690.16,-556 690.16,-529 524.16,-529"/>
<text text-anchor="start" x="530.16" y="-538.8" font-family="Times,serif" font-size="14.00">this : SwitchCaseTest</text>
</g>
<!-- node18 -->
<g id="node2" class="node">
<title>node18</title>
<polygon fill="lightgrey" stroke="black" points="316.66,-36 143.66,-36 143.66,0 316.66,0 316.66,-36"/>
<text text-anchor="middle" x="230.16" y="-14.3" font-family="Times,serif" font-size="14.00">#18 ReturnValue : int</text>
</g>
<!-- node0&#45;&gt;node18 -->
<g id="edge3" class="edge">
<title>node0&#45;&gt;node18</title>
<path fill="none" stroke="green" d="M444.53,-545.72C311.89,-528.37 106.4,-478.63 9.16,-336 -1.86,-319.84 -3.9,-306.56 9.16,-292 49.01,-247.58 224.3,-292.54 276.16,-263 301.26,-248.7 290.26,-225.66 315.16,-211 373.92,-176.39 422.35,-241.42 467.16,-190 482.34,-172.58 482.28,-155.48 467.16,-138 408.38,-70.08 337.98,-164.24 267.16,-109 247.76,-93.87 238.46,-66.83 234.04,-46.33"/>
<polygon fill="green" stroke="green" points="237.44,-45.48 232.15,-36.3 230.56,-46.78 237.44,-45.48"/>
</g>
<!-- node4 -->
<g id="node8" class="node">
<title>node4</title>
<polygon fill="lightgrey" stroke="transparent" points="582.66,-419 413.66,-419 413.66,-365 582.66,-365 582.66,-419"/>
<polygon fill="none" stroke="black" points="414.16,-392 414.16,-419 583.16,-419 583.16,-392 414.16,-392"/>
<text text-anchor="start" x="435.16" y="-401.8" font-family="Times,serif" font-size="14.00">#4 LookupSwitch</text>
<polygon fill="yellow" stroke="transparent" points="414.16,-365 414.16,-392 467.16,-392 467.16,-365 414.16,-365"/>
<polygon fill="none" stroke="black" points="414.16,-365 414.16,-392 467.16,-392 467.16,-365 414.16,-365"/>
<text text-anchor="start" x="420.16" y="-374.8" font-family="Times,serif" font-size="14.00">case0</text>
<polygon fill="yellow" stroke="transparent" points="467.16,-365 467.16,-392 520.16,-392 520.16,-365 467.16,-365"/>
<polygon fill="none" stroke="black" points="467.16,-365 467.16,-392 520.16,-392 520.16,-365 467.16,-365"/>
<text text-anchor="start" x="473.16" y="-374.8" font-family="Times,serif" font-size="14.00">case1</text>
<polygon fill="yellow" stroke="transparent" points="520.16,-365 520.16,-392 583.16,-392 583.16,-365 520.16,-365"/>
<polygon fill="none" stroke="black" points="520.16,-365 520.16,-392 583.16,-392 583.16,-365 520.16,-365"/>
<text text-anchor="start" x="526.16" y="-374.8" font-family="Times,serif" font-size="14.00">default</text>
</g>
<!-- node0&#45;&gt;node4 -->
<g id="edge8" class="edge">
<title>node0:prj1&#45;&gt;node4</title>
<path fill="none" stroke="black" d="M484.16,-529C484.16,-495.01 488.54,-456.49 492.4,-429.14"/>
<polygon fill="black" stroke="black" points="495.86,-429.64 493.84,-419.24 488.93,-428.63 495.86,-429.64"/>
<text text-anchor="middle" x="499.59" y="-434.7" font-family="Times,serif" font-size="14.00">*0</text>
</g>
<!-- node3 -->
<g id="node9" class="node">
<title>node3</title>
<polygon fill="lightgrey" stroke="black" points="629.66,-492 510.66,-492 510.66,-456 629.66,-456 629.66,-492"/>
<text text-anchor="middle" x="570.16" y="-470.3" font-family="Times,serif" font-size="14.00">#3 LabelNode</text>
</g>
<!-- node0&#45;&gt;node3 -->
<g id="edge10" class="edge">
<title>node0&#45;&gt;node3</title>
<path fill="none" stroke="red" d="M568.14,-528.81C568.46,-520.35 568.81,-510.95 569.13,-502.4"/>
<polygon fill="red" stroke="red" points="572.63,-502.3 569.51,-492.17 565.64,-502.04 572.63,-502.3"/>
</g>
<!-- node17 -->
<g id="node3" class="node">
<title>node17</title>
<polygon fill="orange" stroke="black" points="408.66,-83.54 408.66,-98.46 373.22,-109 323.1,-109 287.66,-98.46 287.66,-83.54 323.1,-73 373.22,-73 408.66,-83.54"/>
<text text-anchor="middle" x="348.16" y="-87.3" font-family="Times,serif" font-size="14.00">#17 Φ int</text>
</g>
<!-- node17&#45;&gt;node18 -->
<g id="edge1" class="edge">
<title>node17&#45;&gt;node18</title>
<path fill="none" stroke="black" d="M320.79,-73.53C304.9,-63.97 284.67,-51.8 267.36,-41.38"/>
<polygon fill="black" stroke="black" points="268.98,-38.28 258.61,-36.12 265.37,-44.27 268.98,-38.28"/>
<text text-anchor="middle" x="278.5" y="-34.52" font-family="Times,serif" font-size="14.00">*0</text>
</g>
<!-- node15 -->
<g id="node4" class="node">
<title>node15</title>
<polygon fill="lightgrey" stroke="black" points="455.16,-182 279.16,-182 279.16,-146 455.16,-146 455.16,-182"/>
<text text-anchor="middle" x="367.16" y="-160.3" font-family="Times,serif" font-size="14.00">#15 Merge : Merge17</text>
</g>
<!-- node15&#45;&gt;node18 -->
<g id="edge2" class="edge">
<title>node15&#45;&gt;node18</title>
<path fill="none" stroke="red" d="M278.98,-148.44C258.04,-143.16 239.81,-136.38 233.16,-128 215,-105.15 217.62,-70.28 222.59,-46.17"/>
<polygon fill="red" stroke="red" points="226.04,-46.77 224.88,-36.24 219.22,-45.19 226.04,-46.77"/>
</g>
<!-- node15&#45;&gt;node17 -->
<g id="edge13" class="edge">
<title>node15&#45;&gt;node17</title>
<path fill="none" stroke="black" stroke-dasharray="1,5" d="M362.56,-145.81C360.39,-137.7 357.75,-127.84 355.32,-118.78"/>
<polygon fill="black" stroke="black" points="358.68,-117.78 352.71,-109.03 351.92,-119.59 358.68,-117.78"/>
</g>
<!-- node11 -->
<g id="node5" class="node">
<title>node11</title>
<polygon fill="lightgrey" stroke="black" points="267.66,-255 182.66,-255 182.66,-219 267.66,-219 267.66,-255"/>
<text text-anchor="middle" x="225.16" y="-233.3" font-family="Times,serif" font-size="14.00">#11 Goto</text>
</g>
<!-- node11&#45;&gt;node15 -->
<g id="edge4" class="edge">
<title>node11&#45;&gt;node15</title>
<path fill="none" stroke="red" d="M256.83,-218.85C268.22,-212.78 281.21,-205.98 293.16,-200 302.11,-195.51 311.75,-190.84 321.01,-186.43"/>
<polygon fill="red" stroke="red" points="322.57,-189.57 330.11,-182.12 319.57,-183.24 322.57,-189.57"/>
</g>
<!-- node13 -->
<g id="node6" class="node">
<title>node13</title>
<polygon fill="lightgrey" stroke="black" points="409.66,-255 324.66,-255 324.66,-219 409.66,-219 409.66,-255"/>
<text text-anchor="middle" x="367.16" y="-233.3" font-family="Times,serif" font-size="14.00">#13 Goto</text>
</g>
<!-- node13&#45;&gt;node15 -->
<g id="edge5" class="edge">
<title>node13&#45;&gt;node15</title>
<path fill="none" stroke="red" d="M367.16,-218.81C367.16,-210.79 367.16,-201.05 367.16,-192.07"/>
<polygon fill="red" stroke="red" points="370.66,-192.03 367.16,-182.03 363.66,-192.03 370.66,-192.03"/>
</g>
<!-- node10 -->
<g id="node7" class="node">
<title>node10</title>
<polygon fill="lightgrey" stroke="black" points="723.16,-255 595.16,-255 595.16,-219 723.16,-219 723.16,-255"/>
<text text-anchor="middle" x="659.16" y="-233.3" font-family="Times,serif" font-size="14.00">#10 LabelNode</text>
</g>
<!-- node10&#45;&gt;node15 -->
<g id="edge6" class="edge">
<title>node10&#45;&gt;node15</title>
<path fill="none" stroke="red" d="M609.92,-218.95C601.06,-216.12 591.87,-213.35 583.16,-211 544.85,-200.65 502.21,-191.15 465,-183.51"/>
<polygon fill="red" stroke="red" points="465.66,-180.07 455.16,-181.5 464.26,-186.93 465.66,-180.07"/>
</g>
<!-- node16 -->
<g id="node13" class="node">
<title>node16</title>
<polygon fill="lightgreen" stroke="black" points="738.67,-156.54 738.67,-171.46 696.78,-182 637.53,-182 595.64,-171.46 595.64,-156.54 637.53,-146 696.78,-146 738.67,-156.54"/>
<text text-anchor="middle" x="667.16" y="-160.3" font-family="Times,serif" font-size="14.00">#16 int 300</text>
</g>
<!-- node10&#45;&gt;node16 -->
<g id="edge17" class="edge">
<title>node10&#45;&gt;node16</title>
<path fill="none" stroke="black" stroke-dasharray="1,5" d="M661.09,-218.81C662,-210.79 663.09,-201.05 664.11,-192.07"/>
<polygon fill="black" stroke="black" points="667.6,-192.36 665.24,-182.03 660.64,-191.57 667.6,-192.36"/>
</g>
<!-- node4&#45;&gt;node10 -->
<g id="edge7" class="edge">
<title>node4:prj7&#45;&gt;node10</title>
<path fill="none" stroke="red" d="M584.16,-378C634.78,-378 651.37,-305.99 656.7,-265.26"/>
<polygon fill="red" stroke="red" points="660.2,-265.5 657.88,-255.17 653.24,-264.69 660.2,-265.5"/>
</g>
<!-- node9 -->
<g id="node10" class="node">
<title>node9</title>
<polygon fill="lightgrey" stroke="black" points="552.66,-328 433.66,-328 433.66,-292 552.66,-292 552.66,-328"/>
<text text-anchor="middle" x="493.16" y="-306.3" font-family="Times,serif" font-size="14.00">#9 LabelNode</text>
</g>
<!-- node4&#45;&gt;node9 -->
<g id="edge11" class="edge">
<title>node4:prj6&#45;&gt;node9</title>
<path fill="none" stroke="red" d="M493.16,-365C493.16,-356.3 493.16,-346.81 493.16,-338.25"/>
<polygon fill="red" stroke="red" points="496.66,-338.02 493.16,-328.02 489.66,-338.02 496.66,-338.02"/>
</g>
<!-- node8 -->
<g id="node14" class="node">
<title>node8</title>
<polygon fill="lightgrey" stroke="black" points="164.66,-328 45.66,-328 45.66,-292 164.66,-292 164.66,-328"/>
<text text-anchor="middle" x="105.16" y="-306.3" font-family="Times,serif" font-size="14.00">#8 LabelNode</text>
</g>
<!-- node4&#45;&gt;node8 -->
<g id="edge19" class="edge">
<title>node4:prj5&#45;&gt;node8</title>
<path fill="none" stroke="red" d="M413.16,-378C324.26,-378 224.15,-351.02 162.87,-331.3"/>
<polygon fill="red" stroke="red" points="163.59,-327.86 153,-328.08 161.42,-334.51 163.59,-327.86"/>
</g>
<!-- node3&#45;&gt;node4 -->
<g id="edge9" class="edge">
<title>node3&#45;&gt;node4</title>
<path fill="none" stroke="red" d="M554.53,-455.64C546.89,-447.15 537.41,-436.62 528.43,-426.63"/>
<polygon fill="red" stroke="red" points="530.98,-424.24 521.69,-419.15 525.78,-428.92 530.98,-424.24"/>
</g>
<!-- node9&#45;&gt;node13 -->
<g id="edge21" class="edge">
<title>node9&#45;&gt;node13</title>
<path fill="none" stroke="red" d="M462.98,-291.99C446.11,-282.49 424.9,-270.54 406.72,-260.29"/>
<polygon fill="red" stroke="red" points="407.96,-256.97 397.53,-255.11 404.52,-263.07 407.96,-256.97"/>
</g>
<!-- node14 -->
<g id="node11" class="node">
<title>node14</title>
<polygon fill="lightgreen" stroke="black" points="570.67,-229.54 570.67,-244.46 528.78,-255 469.53,-255 427.64,-244.46 427.64,-229.54 469.53,-219 528.78,-219 570.67,-229.54"/>
<text text-anchor="middle" x="499.16" y="-233.3" font-family="Times,serif" font-size="14.00">#14 int 200</text>
</g>
<!-- node9&#45;&gt;node14 -->
<g id="edge12" class="edge">
<title>node9&#45;&gt;node14</title>
<path fill="none" stroke="black" stroke-dasharray="1,5" d="M494.61,-291.81C495.29,-283.79 496.11,-274.05 496.87,-265.07"/>
<polygon fill="black" stroke="black" points="500.36,-265.29 497.72,-255.03 493.39,-264.7 500.36,-265.29"/>
</g>
<!-- node14&#45;&gt;node17 -->
<g id="edge15" class="edge">
<title>node14&#45;&gt;node17</title>
<path fill="none" stroke="blue" d="M498.56,-218.77C496.74,-196.05 489.82,-156.77 464.16,-138 438.58,-119.3 201.17,-150.79 179.16,-128 163.5,-111.78 224.49,-102.2 277.52,-97.05"/>
<polygon fill="blue" stroke="blue" points="278.02,-100.52 287.65,-96.11 277.37,-93.55 278.02,-100.52"/>
<text text-anchor="middle" x="270.38" y="-102.5" font-family="Times,serif" font-size="14.00">if #13</text>
</g>
<!-- node12 -->
<g id="node12" class="node">
<title>node12</title>
<polygon fill="lightgreen" stroke="black" points="164.67,-229.54 164.67,-244.46 122.78,-255 63.53,-255 21.64,-244.46 21.64,-229.54 63.53,-219 122.78,-219 164.67,-229.54"/>
<text text-anchor="middle" x="93.16" y="-233.3" font-family="Times,serif" font-size="14.00">#12 int 100</text>
</g>
<!-- node12&#45;&gt;node17 -->
<g id="edge14" class="edge">
<title>node12&#45;&gt;node17</title>
<path fill="none" stroke="blue" d="M133.42,-221.59C146,-217.59 160.03,-213.62 173.16,-211 225.68,-200.51 239.75,-204.01 293.16,-200 312.14,-198.58 451.1,-203.85 464.16,-190 480.01,-173.19 477.14,-157.12 464.16,-138 452.34,-120.6 432.79,-109.78 413.08,-103.05"/>
<polygon fill="blue" stroke="blue" points="414.02,-99.68 403.43,-100.07 411.95,-106.36 414.02,-99.68"/>
<text text-anchor="middle" x="423.24" y="-93.64" font-family="Times,serif" font-size="14.00">if #11</text>
</g>
<!-- node16&#45;&gt;node17 -->
<g id="edge16" class="edge">
<title>node16&#45;&gt;node17</title>
<path fill="none" stroke="blue" d="M615.55,-151.51C557.96,-138.7 465.03,-118.01 405.29,-104.72"/>
<polygon fill="blue" stroke="blue" points="405.79,-101.24 395.27,-102.49 404.27,-108.07 405.79,-101.24"/>
<text text-anchor="middle" x="414.8" y="-94.47" font-family="Times,serif" font-size="14.00">if #10</text>
</g>
<!-- node8&#45;&gt;node11 -->
<g id="edge20" class="edge">
<title>node8&#45;&gt;node11</title>
<path fill="none" stroke="red" d="M133.9,-291.99C149.96,-282.49 170.17,-270.54 187.48,-260.29"/>
<polygon fill="red" stroke="red" points="189.41,-263.22 196.23,-255.11 185.84,-257.19 189.41,-263.22"/>
</g>
<!-- node8&#45;&gt;node12 -->
<g id="edge18" class="edge">
<title>node8&#45;&gt;node12</title>
<path fill="none" stroke="black" stroke-dasharray="1,5" d="M102.25,-291.81C100.9,-283.79 99.25,-274.05 97.73,-265.07"/>
<polygon fill="black" stroke="black" points="101.15,-264.31 96.03,-255.03 94.25,-265.47 101.15,-264.31"/>
</g>
<!-- c0 -->
<!-- c1 -->
<!-- c0&#45;&gt;c1 -->
<g id="edge22" class="edge">
<title>c0&#45;&gt;c1</title>
<path fill="none" stroke="red" d="M1435.05,-556C1446.26,-556 1504.4,-556 1530.01,-556"/>
<polygon fill="red" stroke="red" points="1530.21,-559.5 1540.21,-556 1530.21,-552.5 1530.21,-559.5"/>
<text text-anchor="middle" x="1487.66" y="-562.8" font-family="Times,serif" font-size="14.00">Control flow</text>
</g>
<!-- c2 -->
<!-- c3 -->
<!-- c2&#45;&gt;c3 -->
<g id="edge23" class="edge">
<title>c2&#45;&gt;c3</title>
<path fill="none" stroke="red" stroke-dasharray="5,2" d="M1228.23,-556C1245.2,-556 1361.36,-556 1399.24,-556"/>
<polygon fill="red" stroke="red" points="1399.33,-559.5 1409.33,-556 1399.33,-552.5 1399.33,-559.5"/>
<text text-anchor="middle" x="1318.66" y="-562.8" font-family="Times,serif" font-size="14.00">Control flow back edge</text>
</g>
<!-- d0 -->
<!-- d1 -->
<!-- d0&#45;&gt;d1 -->
<g id="edge24" class="edge">
<title>d0&#45;&gt;d1</title>
<path fill="none" stroke="black" d="M1117.02,-556C1126.56,-556 1170.47,-556 1192.07,-556"/>
<polygon fill="black" stroke="black" points="1192.31,-559.5 1202.31,-556 1192.31,-552.5 1192.31,-559.5"/>
<text text-anchor="middle" x="1159.66" y="-562.8" font-family="Times,serif" font-size="14.00">Data flow</text>
</g>
<!-- d2 -->
<!-- d3 -->
<!-- d2&#45;&gt;d3 -->
<g id="edge25" class="edge">
<title>d2&#45;&gt;d3</title>
<path fill="none" stroke="black" stroke-dasharray="1,5" d="M990.96,-556C1001.61,-556 1056.62,-556 1081.23,-556"/>
<polygon fill="black" stroke="black" points="1081.3,-559.5 1091.3,-556 1081.3,-552.5 1081.3,-559.5"/>
<text text-anchor="middle" x="1041.16" y="-562.8" font-family="Times,serif" font-size="14.00">Declaration</text>
</g>
<!-- d4 -->
<!-- d5 -->
<!-- d4&#45;&gt;d5 -->
<g id="edge26" class="edge">
<title>d4&#45;&gt;d5</title>
<path fill="none" stroke="blue" d="M848.26,-556C860.88,-556 927.04,-556 954.84,-556"/>
<polygon fill="blue" stroke="blue" points="955,-559.5 965,-556 955,-552.5 955,-559.5"/>
<text text-anchor="middle" x="906.66" y="-562.8" font-family="Times,serif" font-size="14.00">PHI Data flow</text>
</g>
<!-- d6 -->
<!-- d7 -->
<!-- d6&#45;&gt;d7 -->
<g id="edge27" class="edge">
<title>d6&#45;&gt;d7</title>
<path fill="none" stroke="green" d="M711.15,-556C723.09,-556 785.46,-556 812.08,-556"/>
<polygon fill="green" stroke="green" points="812.11,-559.5 822.11,-556 812.11,-552.5 812.11,-559.5"/>
<text text-anchor="middle" x="766.66" y="-562.8" font-family="Times,serif" font-size="14.00">Memory flow</text>
</g>
</g>
</svg>
