<?xml version="1.0" encoding="UTF-8" standalone="no"?>
<!DOCTYPE svg PUBLIC "-//W3C//DTD SVG 1.1//EN"
 "http://www.w3.org/Graphics/SVG/1.1/DTD/svg11.dtd">
<!-- Generated by graphviz version 2.43.0 (0)
 -->
<!-- Title: %3 Pages: 1 -->
<svg width="1347pt" height="459pt"
 viewBox="0.00 0.00 1346.50 458.80" xmlns="http://www.w3.org/2000/svg" xmlns:xlink="http://www.w3.org/1999/xlink">
<g id="graph0" class="graph" transform="scale(1 1) rotate(0) translate(4 454.8)">
<title>%3</title>
<polygon fill="white" stroke="transparent" points="-4,4 -4,-454.8 1342.5,-454.8 1342.5,4 -4,4"/>
<g id="clust1" class="cluster">
<title>cluster_0</title>
<polygon fill="none" stroke="lightgray" points="212.5,-65 212.5,-190 372.5,-190 372.5,-65 212.5,-65"/>
</g>
<g id="clust2" class="cluster">
<title>cluster_1</title>
<polygon fill="none" stroke="lightgray" points="44.5,-65 44.5,-190 204.5,-190 204.5,-65 44.5,-65"/>
</g>
<g id="clust3" class="cluster">
<title>cluster_2</title>
<polygon fill="none" stroke="lightgray" points="412.5,-65 412.5,-190 572.5,-190 572.5,-65 412.5,-65"/>
</g>
<g id="clust4" class="cluster">
<title>cluster_000</title>
<polygon fill="none" stroke="black" points="477.5,-400.2 477.5,-442.8 1330.5,-442.8 1330.5,-400.2 477.5,-400.2"/>
<text text-anchor="middle" x="904" y="-427.6" font-family="Times,serif" font-size="14.00">Legend</text>
</g>
<!-- node0 -->
<g id="node1" class="node">
<title>node0</title>
<polygon fill="lightgrey" stroke="transparent" points="468,-437 223,-437 223,-383 468,-383 468,-437"/>
<polygon fill="none" stroke="black" points="223.5,-410 223.5,-437 468.5,-437 468.5,-410 223.5,-410"/>
<text text-anchor="start" x="305.5" y="-419.8" font-family="Times,serif" font-size="14.00">#0 Method</text>
<polygon fill="yellow" stroke="transparent" points="223.5,-383 223.5,-410 302.5,-410 302.5,-383 223.5,-383"/>
<polygon fill="none" stroke="black" points="223.5,-383 223.5,-410 302.5,-410 302.5,-383 223.5,-383"/>
<text text-anchor="start" x="229.5" y="-392.8" font-family="Times,serif" font-size="14.00">arg0 : int</text>
<polygon fill="yellow" stroke="transparent" points="302.5,-383 302.5,-410 468.5,-410 468.5,-383 302.5,-383"/>
<polygon fill="none" stroke="black" points="302.5,-383 302.5,-410 468.5,-410 468.5,-383 302.5,-383"/>
<text text-anchor="start" x="308.5" y="-392.8" font-family="Times,serif" font-size="14.00">this : SwitchCaseTest</text>
</g>
<!-- node3 -->
<g id="node2" class="node">
<title>node3</title>
<polygon fill="lightgrey" stroke="black" points="408,-346 289,-346 289,-310 408,-310 408,-346"/>
<text text-anchor="middle" x="348.5" y="-324.3" font-family="Times,serif" font-size="14.00">#3 LabelNode</text>
</g>
<!-- node0&#45;&gt;node3 -->
<g id="edge1" class="edge">
<title>node0&#45;&gt;node3</title>
<path fill="none" stroke="red" d="M346.48,-382.81C346.8,-374.35 347.15,-364.95 347.47,-356.4"/>
<polygon fill="red" stroke="red" points="350.98,-356.3 347.86,-346.17 343.98,-356.04 350.98,-356.3"/>
</g>
<!-- node4 -->
<g id="node3" class="node">
<title>node4</title>
<polygon fill="lightgrey" stroke="transparent" points="391,-273 222,-273 222,-219 391,-219 391,-273"/>
<polygon fill="none" stroke="black" points="222.5,-246 222.5,-273 391.5,-273 391.5,-246 222.5,-246"/>
<text text-anchor="start" x="243.5" y="-255.8" font-family="Times,serif" font-size="14.00">#4 LookupSwitch</text>
<polygon fill="yellow" stroke="transparent" points="222.5,-219 222.5,-246 275.5,-246 275.5,-219 222.5,-219"/>
<polygon fill="none" stroke="black" points="222.5,-219 222.5,-246 275.5,-246 275.5,-219 222.5,-219"/>
<text text-anchor="start" x="228.5" y="-228.8" font-family="Times,serif" font-size="14.00">case0</text>
<polygon fill="yellow" stroke="transparent" points="275.5,-219 275.5,-246 328.5,-246 328.5,-219 275.5,-219"/>
<polygon fill="none" stroke="black" points="275.5,-219 275.5,-246 328.5,-246 328.5,-219 275.5,-219"/>
<text text-anchor="start" x="281.5" y="-228.8" font-family="Times,serif" font-size="14.00">case1</text>
<polygon fill="yellow" stroke="transparent" points="328.5,-219 328.5,-246 391.5,-246 391.5,-219 328.5,-219"/>
<polygon fill="none" stroke="black" points="328.5,-219 328.5,-246 391.5,-246 391.5,-219 328.5,-219"/>
<text text-anchor="start" x="334.5" y="-228.8" font-family="Times,serif" font-size="14.00">default</text>
</g>
<!-- node0&#45;&gt;node4 -->
<g id="edge2" class="edge">
<title>node0:prj1&#45;&gt;node4</title>
<path fill="none" stroke="black" d="M262.5,-383C262.5,-347.64 276.13,-309.5 288.22,-282.64"/>
<polygon fill="black" stroke="black" points="291.53,-283.82 292.58,-273.28 285.19,-280.87 291.53,-283.82"/>
<text text-anchor="middle" x="292.59" y="-289.58" font-family="Times,serif" font-size="14.00">*0</text>
</g>
<!-- node16 -->
<g id="node6" class="node">
<title>node16</title>
<polygon fill="lightgrey" stroke="black" points="648,-36 475,-36 475,0 648,0 648,-36"/>
<text text-anchor="middle" x="561.5" y="-14.3" font-family="Times,serif" font-size="14.00">#16 ReturnValue : int</text>
</g>
<!-- node0&#45;&gt;node16 -->
<g id="edge8" class="edge">
<title>node0&#45;&gt;node16</title>
<path fill="none" stroke="green" d="M385.82,-382.87C398.03,-372.85 410.15,-360.34 417.5,-346 432.37,-317 408.15,-222.74 431.5,-200 454.64,-177.47 552.52,-211.64 576.5,-190 621.57,-149.32 612.17,-110.33 589.5,-54 588.18,-50.72 586.45,-47.51 584.5,-44.44"/>
<polygon fill="green" stroke="green" points="587.25,-42.27 578.55,-36.23 581.58,-46.38 587.25,-42.27"/>
</g>
<!-- node14 -->
<g id="node9" class="node">
<title>node14</title>
<polygon fill="lightgrey" stroke="black" points="173,-36 0,-36 0,0 173,0 173,-36"/>
<text text-anchor="middle" x="86.5" y="-14.3" font-family="Times,serif" font-size="14.00">#14 ReturnValue : int</text>
</g>
<!-- node0&#45;&gt;node14 -->
<g id="edge13" class="edge">
<title>node0&#45;&gt;node14</title>
<path fill="none" stroke="green" d="M392.04,-382.98C401.05,-377.38 410.25,-371.26 418.5,-365 508.95,-296.43 545.97,-287.25 604.5,-190 619.45,-165.15 630.46,-154.58 621.5,-127 610.99,-94.62 606.18,-81.68 576.5,-65 507.31,-26.11 299.45,-44.22 220.5,-36 208.45,-34.74 195.8,-33.3 183.28,-31.8"/>
<polygon fill="green" stroke="green" points="183.64,-28.32 173.29,-30.59 182.8,-35.27 183.64,-28.32"/>
</g>
<!-- node12 -->
<g id="node12" class="node">
<title>node12</title>
<polygon fill="lightgrey" stroke="black" points="402,-36 229,-36 229,0 402,0 402,-36"/>
<text text-anchor="middle" x="315.5" y="-14.3" font-family="Times,serif" font-size="14.00">#12 ReturnValue : int</text>
</g>
<!-- node0&#45;&gt;node12 -->
<g id="edge18" class="edge">
<title>node0&#45;&gt;node12</title>
<path fill="none" stroke="green" d="M429.3,-382.99C442.11,-377.76 454.91,-371.75 466.5,-365 608.45,-282.27 741.75,-218.24 682.5,-65 667.34,-25.78 637.65,-53.11 466.5,-36 448.89,-34.24 430.14,-32.23 412.06,-30.23"/>
<polygon fill="green" stroke="green" points="412.42,-26.75 402.1,-29.12 411.65,-33.71 412.42,-26.75"/>
</g>
<!-- node3&#45;&gt;node4 -->
<g id="edge3" class="edge">
<title>node3&#45;&gt;node4</title>
<path fill="none" stroke="red" d="M339.39,-309.64C335.14,-301.56 329.94,-291.64 324.93,-282.11"/>
<polygon fill="red" stroke="red" points="327.97,-280.37 320.23,-273.15 321.78,-283.63 327.97,-280.37"/>
</g>
<!-- node10 -->
<g id="node4" class="node">
<title>node10</title>
<polygon fill="lightgrey" stroke="black" points="556.5,-182 428.5,-182 428.5,-146 556.5,-146 556.5,-182"/>
<text text-anchor="middle" x="492.5" y="-160.3" font-family="Times,serif" font-size="14.00">#10 LabelNode</text>
</g>
<!-- node4&#45;&gt;node10 -->
<g id="edge4" class="edge">
<title>node4:prj7&#45;&gt;node10</title>
<path fill="none" stroke="red" d="M360.5,-219C360.5,-204.42 388.43,-191.83 418.59,-182.48"/>
<polygon fill="red" stroke="red" points="419.84,-185.76 428.43,-179.56 417.85,-179.05 419.84,-185.76"/>
</g>
<!-- node9 -->
<g id="node7" class="node">
<title>node9</title>
<polygon fill="lightgrey" stroke="black" points="184,-182 65,-182 65,-146 184,-146 184,-182"/>
<text text-anchor="middle" x="124.5" y="-160.3" font-family="Times,serif" font-size="14.00">#9 LabelNode</text>
</g>
<!-- node4&#45;&gt;node9 -->
<g id="edge9" class="edge">
<title>node4:prj6&#45;&gt;node9</title>
<path fill="none" stroke="red" d="M221.5,-232C190.74,-232 162.66,-208.91 144.72,-189.84"/>
<polygon fill="red" stroke="red" points="147.19,-187.35 137.9,-182.25 141.99,-192.03 147.19,-187.35"/>
</g>
<!-- node8 -->
<g id="node10" class="node">
<title>node8</title>
<polygon fill="lightgrey" stroke="black" points="361,-182 242,-182 242,-146 361,-146 361,-182"/>
<text text-anchor="middle" x="301.5" y="-160.3" font-family="Times,serif" font-size="14.00">#8 LabelNode</text>
</g>
<!-- node4&#45;&gt;node8 -->
<g id="edge14" class="edge">
<title>node4:prj5&#45;&gt;node8</title>
<path fill="none" stroke="red" d="M301.5,-219C301.5,-210.3 301.5,-200.81 301.5,-192.25"/>
<polygon fill="red" stroke="red" points="305,-192.02 301.5,-182.02 298,-192.02 305,-192.02"/>
</g>
<!-- node15 -->
<g id="node5" class="node">
<title>node15</title>
<polygon fill="lightgreen" stroke="black" points="564.01,-83.54 564.01,-98.46 522.12,-109 462.88,-109 420.99,-98.46 420.99,-83.54 462.88,-73 522.12,-73 564.01,-83.54"/>
<text text-anchor="middle" x="492.5" y="-87.3" font-family="Times,serif" font-size="14.00">#15 int 300</text>
</g>
<!-- node10&#45;&gt;node15 -->
<g id="edge5" class="edge">
<title>node10&#45;&gt;node15</title>
<path fill="none" stroke="black" stroke-dasharray="1,5" d="M492.5,-145.81C492.5,-137.79 492.5,-128.05 492.5,-119.07"/>
<polygon fill="black" stroke="black" points="496,-119.03 492.5,-109.03 489,-119.03 496,-119.03"/>
</g>
<!-- node10&#45;&gt;node16 -->
<g id="edge7" class="edge">
<title>node10&#45;&gt;node16</title>
<path fill="none" stroke="red" d="M533.78,-145.86C549.13,-137.22 564.89,-125.09 573.5,-109 583.9,-89.56 579.36,-64.5 573.09,-45.76"/>
<polygon fill="red" stroke="red" points="576.36,-44.51 569.62,-36.34 569.79,-46.93 576.36,-44.51"/>
</g>
<!-- node15&#45;&gt;node16 -->
<g id="edge6" class="edge">
<title>node15&#45;&gt;node16</title>
<path fill="none" stroke="black" d="M509.2,-72.81C517.76,-64 528.34,-53.13 537.73,-43.46"/>
<polygon fill="black" stroke="black" points="540.49,-45.64 544.95,-36.03 535.47,-40.76 540.49,-45.64"/>
<text text-anchor="middle" x="538.38" y="-51.22" font-family="Times,serif" font-size="14.00">*0</text>
</g>
<!-- node13 -->
<g id="node8" class="node">
<title>node13</title>
<polygon fill="lightgreen" stroke="black" points="196.01,-83.54 196.01,-98.46 154.12,-109 94.88,-109 52.99,-98.46 52.99,-83.54 94.88,-73 154.12,-73 196.01,-83.54"/>
<text text-anchor="middle" x="124.5" y="-87.3" font-family="Times,serif" font-size="14.00">#13 int 100</text>
</g>
<!-- node9&#45;&gt;node13 -->
<g id="edge10" class="edge">
<title>node9&#45;&gt;node13</title>
<path fill="none" stroke="black" stroke-dasharray="1,5" d="M124.5,-145.81C124.5,-137.79 124.5,-128.05 124.5,-119.07"/>
<polygon fill="black" stroke="black" points="128,-119.03 124.5,-109.03 121,-119.03 128,-119.03"/>
</g>
<!-- node9&#45;&gt;node14 -->
<g id="edge12" class="edge">
<title>node9&#45;&gt;node14</title>
<path fill="none" stroke="red" d="M83.22,-145.86C67.87,-137.22 52.11,-125.09 43.5,-109 34.27,-91.76 36.32,-83.19 43.5,-65 46.55,-57.28 51.57,-50.09 57.13,-43.8"/>
<polygon fill="red" stroke="red" points="59.91,-45.96 64.35,-36.33 54.88,-41.09 59.91,-45.96"/>
</g>
<!-- node13&#45;&gt;node14 -->
<g id="edge11" class="edge">
<title>node13&#45;&gt;node14</title>
<path fill="none" stroke="black" d="M115.3,-72.81C110.82,-64.44 105.34,-54.2 100.36,-44.9"/>
<polygon fill="black" stroke="black" points="103.42,-43.19 95.61,-36.03 97.25,-46.5 103.42,-43.19"/>
<text text-anchor="middle" x="111.62" y="-44.32" font-family="Times,serif" font-size="14.00">*0</text>
</g>
<!-- node11 -->
<g id="node11" class="node">
<title>node11</title>
<polygon fill="lightgreen" stroke="black" points="364.01,-83.54 364.01,-98.46 322.12,-109 262.88,-109 220.99,-98.46 220.99,-83.54 262.88,-73 322.12,-73 364.01,-83.54"/>
<text text-anchor="middle" x="292.5" y="-87.3" font-family="Times,serif" font-size="14.00">#11 int 200</text>
</g>
<!-- node8&#45;&gt;node11 -->
<g id="edge15" class="edge">
<title>node8&#45;&gt;node11</title>
<path fill="none" stroke="black" stroke-dasharray="1,5" d="M299.32,-145.81C298.3,-137.79 297.07,-128.05 295.93,-119.07"/>
<polygon fill="black" stroke="black" points="299.39,-118.51 294.66,-109.03 292.44,-119.39 299.39,-118.51"/>
</g>
<!-- node8&#45;&gt;node12 -->
<g id="edge17" class="edge">
<title>node8&#45;&gt;node12</title>
<path fill="none" stroke="red" d="M336.79,-145.82C350.91,-136.94 365.67,-124.65 373.5,-109 382.25,-91.51 382.01,-82.61 373.5,-65 369.31,-56.33 362.61,-48.8 355.22,-42.48"/>
<polygon fill="red" stroke="red" points="357.06,-39.48 347.02,-36.1 352.77,-45 357.06,-39.48"/>
</g>
<!-- node11&#45;&gt;node12 -->
<g id="edge16" class="edge">
<title>node11&#45;&gt;node12</title>
<path fill="none" stroke="black" d="M298.07,-72.81C300.7,-64.7 303.89,-54.84 306.83,-45.78"/>
<polygon fill="black" stroke="black" points="310.23,-46.62 309.98,-36.03 303.57,-44.46 310.23,-46.62"/>
<text text-anchor="middle" x="312.44" y="-52.18" font-family="Times,serif" font-size="14.00">*0</text>
</g>
<!-- c0 -->
<!-- c1 -->
<!-- c0&#45;&gt;c1 -->
<g id="edge19" class="edge">
<title>c0&#45;&gt;c1</title>
<path fill="none" stroke="red" d="M1213.39,-410C1224.61,-410 1282.74,-410 1308.36,-410"/>
<polygon fill="red" stroke="red" points="1308.56,-413.5 1318.56,-410 1308.56,-406.5 1308.56,-413.5"/>
<text text-anchor="middle" x="1266" y="-416.8" font-family="Times,serif" font-size="14.00">Control flow</text>
</g>
<!-- c2 -->
<!-- c3 -->
<!-- c2&#45;&gt;c3 -->
<g id="edge20" class="edge">
<title>c2&#45;&gt;c3</title>
<path fill="none" stroke="red" stroke-dasharray="5,2" d="M1006.58,-410C1023.55,-410 1139.71,-410 1177.58,-410"/>
<polygon fill="red" stroke="red" points="1177.67,-413.5 1187.67,-410 1177.67,-406.5 1177.67,-413.5"/>
<text text-anchor="middle" x="1097" y="-416.8" font-family="Times,serif" font-size="14.00">Control flow back edge</text>
</g>
<!-- d0 -->
<!-- d1 -->
<!-- d0&#45;&gt;d1 -->
<g id="edge21" class="edge">
<title>d0&#45;&gt;d1</title>
<path fill="none" stroke="black" d="M895.36,-410C904.91,-410 948.81,-410 970.42,-410"/>
<polygon fill="black" stroke="black" points="970.65,-413.5 980.65,-410 970.65,-406.5 970.65,-413.5"/>
<text text-anchor="middle" x="938" y="-416.8" font-family="Times,serif" font-size="14.00">Data flow</text>
</g>
<!-- d2 -->
<!-- d3 -->
<!-- d2&#45;&gt;d3 -->
<g id="edge22" class="edge">
<title>d2&#45;&gt;d3</title>
<path fill="none" stroke="black" stroke-dasharray="1,5" d="M769.31,-410C779.96,-410 834.96,-410 859.58,-410"/>
<polygon fill="black" stroke="black" points="859.65,-413.5 869.65,-410 859.65,-406.5 859.65,-413.5"/>
<text text-anchor="middle" x="819.5" y="-416.8" font-family="Times,serif" font-size="14.00">Declaration</text>
</g>
<!-- d4 -->
<!-- d5 -->
<!-- d4&#45;&gt;d5 -->
<g id="edge23" class="edge">
<title>d4&#45;&gt;d5</title>
<path fill="none" stroke="blue" d="M626.6,-410C639.22,-410 705.38,-410 733.18,-410"/>
<polygon fill="blue" stroke="blue" points="733.34,-413.5 743.34,-410 733.34,-406.5 733.34,-413.5"/>
<text text-anchor="middle" x="685" y="-416.8" font-family="Times,serif" font-size="14.00">PHI Data flow</text>
</g>
<!-- d6 -->
<!-- d7 -->
<!-- d6&#45;&gt;d7 -->
<g id="edge24" class="edge">
<title>d6&#45;&gt;d7</title>
<path fill="none" stroke="green" d="M489.5,-410C501.44,-410 563.8,-410 590.43,-410"/>
<polygon fill="green" stroke="green" points="590.45,-413.5 600.45,-410 590.45,-406.5 590.45,-413.5"/>
<text text-anchor="middle" x="545" y="-416.8" font-family="Times,serif" font-size="14.00">Memory flow</text>
</g>
</g>
</svg>
