<?xml version="1.0" encoding="UTF-8" standalone="no"?>
<!DOCTYPE svg PUBLIC "-//W3C//DTD SVG 1.1//EN"
 "http://www.w3.org/Graphics/SVG/1.1/DTD/svg11.dtd">
<!-- Generated by graphviz version 2.43.0 (0)
 -->
<!-- Title: %3 Pages: 1 -->
<svg width="1588pt" height="388pt"
 viewBox="0.00 0.00 1587.50 388.00" xmlns="http://www.w3.org/2000/svg" xmlns:xlink="http://www.w3.org/1999/xlink">
<g id="graph0" class="graph" transform="scale(1 1) rotate(0) translate(4 384)">
<title>%3</title>
<polygon fill="white" stroke="transparent" points="-4,4 -4,-384 1583.5,-384 1583.5,4 -4,4"/>
<g id="clust1" class="cluster">
<title>cluster_0</title>
<polygon fill="none" stroke="lightgray" points="226.5,-229 226.5,-372 710.5,-372 710.5,-229 226.5,-229"/>
</g>
<g id="clust2" class="cluster">
<title>cluster_000</title>
<polygon fill="none" stroke="black" points="718.5,-327.2 718.5,-369.8 1571.5,-369.8 1571.5,-327.2 718.5,-327.2"/>
<text text-anchor="middle" x="1145" y="-354.6" font-family="Times,serif" font-size="14.00">Legend</text>
</g>
<!-- node0 -->
<g id="node1" class="node">
<title>node0</title>
<polygon fill="lightgrey" stroke="transparent" points="480,-364 235,-364 235,-310 480,-310 480,-364"/>
<polygon fill="none" stroke="black" points="235.5,-337 235.5,-364 480.5,-364 480.5,-337 235.5,-337"/>
<text text-anchor="start" x="317.5" y="-346.8" font-family="Times,serif" font-size="14.00">#0 Method</text>
<polygon fill="yellow" stroke="transparent" points="235.5,-310 235.5,-337 314.5,-337 314.5,-310 235.5,-310"/>
<polygon fill="none" stroke="black" points="235.5,-310 235.5,-337 314.5,-337 314.5,-310 235.5,-310"/>
<text text-anchor="start" x="241.5" y="-319.8" font-family="Times,serif" font-size="14.00">arg0 : int</text>
<polygon fill="yellow" stroke="transparent" points="314.5,-310 314.5,-337 480.5,-337 480.5,-310 314.5,-310"/>
<polygon fill="none" stroke="black" points="314.5,-310 314.5,-337 480.5,-337 480.5,-310 314.5,-310"/>
<text text-anchor="start" x="320.5" y="-319.8" font-family="Times,serif" font-size="14.00">this : SwitchCaseTest</text>
</g>
<!-- node3 -->
<g id="node2" class="node">
<title>node3</title>
<polygon fill="lightgrey" stroke="black" points="178,-273 59,-273 59,-237 178,-237 178,-273"/>
<text text-anchor="middle" x="118.5" y="-251.3" font-family="Times,serif" font-size="14.00">#3 LabelNode</text>
</g>
<!-- node0&#45;&gt;node3 -->
<g id="edge1" class="edge">
<title>node0&#45;&gt;node3</title>
<path fill="none" stroke="red" d="M247.84,-309.93C229.18,-304.59 210.14,-298.57 192.5,-292 181.52,-287.91 169.99,-282.75 159.38,-277.62"/>
<polygon fill="red" stroke="red" points="160.84,-274.44 150.33,-273.15 157.74,-280.72 160.84,-274.44"/>
</g>
<!-- node4 -->
<g id="node3" class="node">
<title>node4</title>
<polygon fill="lightgrey" stroke="transparent" points="286,-200 117,-200 117,-146 286,-146 286,-200"/>
<polygon fill="none" stroke="black" points="117.5,-173 117.5,-200 286.5,-200 286.5,-173 117.5,-173"/>
<text text-anchor="start" x="138.5" y="-182.8" font-family="Times,serif" font-size="14.00">#4 LookupSwitch</text>
<polygon fill="yellow" stroke="transparent" points="117.5,-146 117.5,-173 170.5,-173 170.5,-146 117.5,-146"/>
<polygon fill="none" stroke="black" points="117.5,-146 117.5,-173 170.5,-173 170.5,-146 117.5,-146"/>
<text text-anchor="start" x="123.5" y="-155.8" font-family="Times,serif" font-size="14.00">case0</text>
<polygon fill="yellow" stroke="transparent" points="170.5,-146 170.5,-173 223.5,-173 223.5,-146 170.5,-146"/>
<polygon fill="none" stroke="black" points="170.5,-146 170.5,-173 223.5,-173 223.5,-146 170.5,-146"/>
<text text-anchor="start" x="176.5" y="-155.8" font-family="Times,serif" font-size="14.00">case1</text>
<polygon fill="yellow" stroke="transparent" points="223.5,-146 223.5,-173 286.5,-173 286.5,-146 223.5,-146"/>
<polygon fill="none" stroke="black" points="223.5,-146 223.5,-173 286.5,-173 286.5,-146 223.5,-146"/>
<text text-anchor="start" x="229.5" y="-155.8" font-family="Times,serif" font-size="14.00">default</text>
</g>
<!-- node0&#45;&gt;node4 -->
<g id="edge2" class="edge">
<title>node0:prj1&#45;&gt;node4</title>
<path fill="none" stroke="black" d="M234.5,-323C188.51,-323 189.72,-254.49 195.26,-210.39"/>
<polygon fill="black" stroke="black" points="198.75,-210.68 196.65,-200.3 191.82,-209.72 198.75,-210.68"/>
<text text-anchor="middle" x="202.54" y="-215.71" font-family="Times,serif" font-size="14.00">*0</text>
</g>
<!-- node14 -->
<g id="node5" class="node">
<title>node14</title>
<polygon fill="lightgrey" stroke="black" points="196,-36 23,-36 23,0 196,0 196,-36"/>
<text text-anchor="middle" x="109.5" y="-14.3" font-family="Times,serif" font-size="14.00">#14 ReturnValue : int</text>
</g>
<!-- node0&#45;&gt;node14 -->
<g id="edge7" class="edge">
<title>node0&#45;&gt;node14</title>
<path fill="none" stroke="green" d="M480.28,-330.52C570.45,-323.62 682.14,-308.05 711.5,-273 724.06,-258.01 721.32,-245.91 711.5,-229 620.6,-72.36 521.91,-85.16 343.5,-54 317.46,-49.45 258.46,-40.63 206.22,-32.98"/>
<polygon fill="green" stroke="green" points="206.61,-29.5 196.21,-31.52 205.6,-36.43 206.61,-29.5"/>
</g>
<!-- node12 -->
<g id="node6" class="node">
<title>node12</title>
<polygon fill="lightgreen" stroke="black" points="540.01,-247.54 540.01,-262.46 498.12,-273 438.88,-273 396.99,-262.46 396.99,-247.54 438.88,-237 498.12,-237 540.01,-247.54"/>
<text text-anchor="middle" x="468.5" y="-251.3" font-family="Times,serif" font-size="14.00">#12 int 100</text>
</g>
<!-- node0&#45;&gt;node12 -->
<g id="edge8" class="edge">
<title>node0&#45;&gt;node12</title>
<path fill="none" stroke="black" stroke-dasharray="1,5" d="M393.85,-309.81C407.54,-299.94 423,-288.79 436.29,-279.21"/>
<polygon fill="black" stroke="black" points="438.6,-281.86 444.67,-273.17 434.51,-276.18 438.6,-281.86"/>
</g>
<!-- node15 -->
<g id="node8" class="node">
<title>node15</title>
<polygon fill="lightgrey" stroke="black" points="611,-36 438,-36 438,0 611,0 611,-36"/>
<text text-anchor="middle" x="524.5" y="-14.3" font-family="Times,serif" font-size="14.00">#15 ReturnValue : int</text>
</g>
<!-- node0&#45;&gt;node15 -->
<g id="edge12" class="edge">
<title>node0&#45;&gt;node15</title>
<path fill="none" stroke="green" d="M480.07,-333.18C580.7,-327.93 711.76,-313.28 744.5,-273 816.05,-184.97 651.96,-84.11 568.93,-40.72"/>
<polygon fill="green" stroke="green" points="570.44,-37.56 559.95,-36.08 567.23,-43.78 570.44,-37.56"/>
</g>
<!-- node13 -->
<g id="node9" class="node">
<title>node13</title>
<polygon fill="lightgreen" stroke="black" points="702.01,-247.54 702.01,-262.46 660.12,-273 600.88,-273 558.99,-262.46 558.99,-247.54 600.88,-237 660.12,-237 702.01,-247.54"/>
<text text-anchor="middle" x="630.5" y="-251.3" font-family="Times,serif" font-size="14.00">#13 int 300</text>
</g>
<!-- node0&#45;&gt;node13 -->
<g id="edge13" class="edge">
<title>node0&#45;&gt;node13</title>
<path fill="none" stroke="black" stroke-dasharray="1,5" d="M446.51,-309.92C488.9,-297.5 538.26,-283.03 575.18,-272.21"/>
<polygon fill="black" stroke="black" points="576.63,-275.43 585.24,-269.26 574.66,-268.72 576.63,-275.43"/>
</g>
<!-- node16 -->
<g id="node11" class="node">
<title>node16</title>
<polygon fill="lightgrey" stroke="black" points="409,-36 236,-36 236,0 409,0 409,-36"/>
<text text-anchor="middle" x="322.5" y="-14.3" font-family="Times,serif" font-size="14.00">#16 ReturnValue : int</text>
</g>
<!-- node0&#45;&gt;node16 -->
<g id="edge17" class="edge">
<title>node0&#45;&gt;node16</title>
<path fill="none" stroke="green" d="M480.1,-327.04C599.69,-316.87 765.99,-298.35 782.5,-273 863.82,-148.17 784.57,-145.67 574.5,-54 514.98,-28.03 493.8,-45.1 429.5,-36 426.09,-35.52 422.62,-35.02 419.12,-34.5"/>
<polygon fill="green" stroke="green" points="419.59,-31.04 409.18,-33.03 418.56,-37.96 419.59,-31.04"/>
</g>
<!-- node11 -->
<g id="node12" class="node">
<title>node11</title>
<polygon fill="lightgreen" stroke="black" points="378.01,-247.54 378.01,-262.46 336.12,-273 276.88,-273 234.99,-262.46 234.99,-247.54 276.88,-237 336.12,-237 378.01,-247.54"/>
<text text-anchor="middle" x="306.5" y="-251.3" font-family="Times,serif" font-size="14.00">#11 int 200</text>
</g>
<!-- node0&#45;&gt;node11 -->
<g id="edge18" class="edge">
<title>node0&#45;&gt;node11</title>
<path fill="none" stroke="black" stroke-dasharray="1,5" d="M340.8,-309.81C335.05,-300.78 328.62,-290.69 322.89,-281.71"/>
<polygon fill="black" stroke="black" points="325.78,-279.73 317.45,-273.17 319.87,-283.49 325.78,-279.73"/>
</g>
<!-- node3&#45;&gt;node4 -->
<g id="edge3" class="edge">
<title>node3&#45;&gt;node4</title>
<path fill="none" stroke="red" d="M136.51,-236.64C145.41,-228.06 156.46,-217.41 166.91,-207.34"/>
<polygon fill="red" stroke="red" points="169.6,-209.61 174.37,-200.15 164.74,-204.57 169.6,-209.61"/>
</g>
<!-- node9 -->
<g id="node4" class="node">
<title>node9</title>
<polygon fill="lightgrey" stroke="black" points="119,-109 0,-109 0,-73 119,-73 119,-109"/>
<text text-anchor="middle" x="59.5" y="-87.3" font-family="Times,serif" font-size="14.00">#9 LabelNode</text>
</g>
<!-- node4&#45;&gt;node9 -->
<g id="edge4" class="edge">
<title>node4:prj8&#45;&gt;node9</title>
<path fill="none" stroke="red" d="M116.5,-159C94.26,-159 78.88,-137.32 69.75,-118.63"/>
<polygon fill="red" stroke="red" points="72.83,-116.94 65.54,-109.25 66.44,-119.81 72.83,-116.94"/>
</g>
<!-- node10 -->
<g id="node7" class="node">
<title>node10</title>
<polygon fill="lightgrey" stroke="black" points="402.5,-109 274.5,-109 274.5,-73 402.5,-73 402.5,-109"/>
<text text-anchor="middle" x="338.5" y="-87.3" font-family="Times,serif" font-size="14.00">#10 LabelNode</text>
</g>
<!-- node4&#45;&gt;node10 -->
<g id="edge9" class="edge">
<title>node4&#45;&gt;node10</title>
<path fill="none" stroke="red" d="M246.36,-145.81C263.74,-135.65 283.44,-124.15 300.15,-114.4"/>
<polygon fill="red" stroke="red" points="302.22,-117.24 309.09,-109.17 298.69,-111.19 302.22,-117.24"/>
</g>
<!-- node7 -->
<g id="node10" class="node">
<title>node7</title>
<polygon fill="lightgrey" stroke="black" points="256,-109 137,-109 137,-73 256,-73 256,-109"/>
<text text-anchor="middle" x="196.5" y="-87.3" font-family="Times,serif" font-size="14.00">#7 LabelNode</text>
</g>
<!-- node4&#45;&gt;node7 -->
<g id="edge14" class="edge">
<title>node4:prj6&#45;&gt;node7</title>
<path fill="none" stroke="red" d="M196.5,-146C196.5,-137.3 196.5,-127.81 196.5,-119.25"/>
<polygon fill="red" stroke="red" points="200,-119.02 196.5,-109.02 193,-119.02 200,-119.02"/>
</g>
<!-- node9&#45;&gt;node14 -->
<g id="edge6" class="edge">
<title>node9&#45;&gt;node14</title>
<path fill="none" stroke="red" d="M71.6,-72.81C77.62,-64.27 85.01,-53.77 91.67,-44.32"/>
<polygon fill="red" stroke="red" points="94.61,-46.22 97.51,-36.03 88.89,-42.19 94.61,-46.22"/>
</g>
<!-- node12&#45;&gt;node14 -->
<g id="edge5" class="edge">
<title>node12&#45;&gt;node14</title>
<path fill="none" stroke="black" d="M468.59,-236.97C467.79,-200.79 460.48,-116.08 411.5,-73 403.64,-66.09 291.45,-47.29 206.1,-33.81"/>
<polygon fill="black" stroke="black" points="206.51,-30.34 196.09,-32.24 205.43,-37.25 206.51,-30.34"/>
<text text-anchor="middle" x="215.31" y="-23.01" font-family="Times,serif" font-size="14.00">*0</text>
</g>
<!-- node10&#45;&gt;node15 -->
<g id="edge11" class="edge">
<title>node10&#45;&gt;node15</title>
<path fill="none" stroke="red" d="M383.05,-72.99C409.2,-63.01 442.44,-50.32 470.13,-39.76"/>
<polygon fill="red" stroke="red" points="471.57,-42.95 479.67,-36.11 469.08,-36.41 471.57,-42.95"/>
</g>
<!-- node13&#45;&gt;node15 -->
<g id="edge10" class="edge">
<title>node13&#45;&gt;node15</title>
<path fill="none" stroke="black" d="M578.91,-242.4C566.51,-237.22 554.55,-229.75 546.5,-219 508.17,-167.81 513.41,-87.56 519.51,-45.99"/>
<polygon fill="black" stroke="black" points="522.97,-46.48 521.09,-36.05 516.06,-45.38 522.97,-46.48"/>
<text text-anchor="middle" x="526.58" y="-51.59" font-family="Times,serif" font-size="14.00">*0</text>
</g>
<!-- node7&#45;&gt;node16 -->
<g id="edge16" class="edge">
<title>node7&#45;&gt;node16</title>
<path fill="none" stroke="red" d="M226.68,-72.99C243.54,-63.49 264.76,-51.54 282.94,-41.29"/>
<polygon fill="red" stroke="red" points="285.14,-44.07 292.13,-36.11 281.7,-37.97 285.14,-44.07"/>
</g>
<!-- node11&#45;&gt;node16 -->
<g id="edge15" class="edge">
<title>node11&#45;&gt;node16</title>
<path fill="none" stroke="black" d="M324.63,-236.9C349.85,-211.73 394.35,-161.93 411.5,-109 416.43,-93.78 419.35,-86.94 411.5,-73 403.94,-59.56 391.53,-49.09 378.35,-41.09"/>
<polygon fill="black" stroke="black" points="380.05,-38.03 369.62,-36.18 376.62,-44.13 380.05,-38.03"/>
<text text-anchor="middle" x="389.56" y="-33.99" font-family="Times,serif" font-size="14.00">*0</text>
</g>
<!-- c0 -->
<!-- c1 -->
<!-- c0&#45;&gt;c1 -->
<g id="edge19" class="edge">
<title>c0&#45;&gt;c1</title>
<path fill="none" stroke="red" d="M1454.39,-337C1465.61,-337 1523.74,-337 1549.36,-337"/>
<polygon fill="red" stroke="red" points="1549.56,-340.5 1559.56,-337 1549.56,-333.5 1549.56,-340.5"/>
<text text-anchor="middle" x="1507" y="-343.8" font-family="Times,serif" font-size="14.00">Control flow</text>
</g>
<!-- c2 -->
<!-- c3 -->
<!-- c2&#45;&gt;c3 -->
<g id="edge20" class="edge">
<title>c2&#45;&gt;c3</title>
<path fill="none" stroke="red" stroke-dasharray="5,2" d="M1247.58,-337C1264.55,-337 1380.71,-337 1418.58,-337"/>
<polygon fill="red" stroke="red" points="1418.67,-340.5 1428.67,-337 1418.67,-333.5 1418.67,-340.5"/>
<text text-anchor="middle" x="1338" y="-343.8" font-family="Times,serif" font-size="14.00">Control flow back edge</text>
</g>
<!-- d0 -->
<!-- d1 -->
<!-- d0&#45;&gt;d1 -->
<g id="edge21" class="edge">
<title>d0&#45;&gt;d1</title>
<path fill="none" stroke="black" d="M1136.36,-337C1145.91,-337 1189.81,-337 1211.42,-337"/>
<polygon fill="black" stroke="black" points="1211.65,-340.5 1221.65,-337 1211.65,-333.5 1211.65,-340.5"/>
<text text-anchor="middle" x="1179" y="-343.8" font-family="Times,serif" font-size="14.00">Data flow</text>
</g>
<!-- d2 -->
<!-- d3 -->
<!-- d2&#45;&gt;d3 -->
<g id="edge22" class="edge">
<title>d2&#45;&gt;d3</title>
<path fill="none" stroke="black" stroke-dasharray="1,5" d="M1010.31,-337C1020.96,-337 1075.96,-337 1100.58,-337"/>
<polygon fill="black" stroke="black" points="1100.65,-340.5 1110.65,-337 1100.65,-333.5 1100.65,-340.5"/>
<text text-anchor="middle" x="1060.5" y="-343.8" font-family="Times,serif" font-size="14.00">Declaration</text>
</g>
<!-- d4 -->
<!-- d5 -->
<!-- d4&#45;&gt;d5 -->
<g id="edge23" class="edge">
<title>d4&#45;&gt;d5</title>
<path fill="none" stroke="blue" d="M867.6,-337C880.22,-337 946.38,-337 974.18,-337"/>
<polygon fill="blue" stroke="blue" points="974.34,-340.5 984.34,-337 974.34,-333.5 974.34,-340.5"/>
<text text-anchor="middle" x="926" y="-343.8" font-family="Times,serif" font-size="14.00">PHI Data flow</text>
</g>
<!-- d6 -->
<!-- d7 -->
<!-- d6&#45;&gt;d7 -->
<g id="edge24" class="edge">
<title>d6&#45;&gt;d7</title>
<path fill="none" stroke="green" d="M730.5,-337C742.44,-337 804.8,-337 831.43,-337"/>
<polygon fill="green" stroke="green" points="831.45,-340.5 841.45,-337 831.45,-333.5 831.45,-340.5"/>
<text text-anchor="middle" x="786" y="-343.8" font-family="Times,serif" font-size="14.00">Memory flow</text>
</g>
</g>
</svg>
