<?xml version="1.0" encoding="UTF-8" standalone="no"?>
<!DOCTYPE svg PUBLIC "-//W3C//DTD SVG 1.1//EN"
 "http://www.w3.org/Graphics/SVG/1.1/DTD/svg11.dtd">
<!-- Generated by graphviz version 2.43.0 (0)
 -->
<!-- Title: debugoutput Pages: 1 -->
<svg width="878pt" height="578pt"
 viewBox="0.00 0.00 877.50 577.80" xmlns="http://www.w3.org/2000/svg" xmlns:xlink="http://www.w3.org/1999/xlink">
<g id="graph0" class="graph" transform="scale(1 1) rotate(0) translate(4 573.8)">
<title>debugoutput</title>
<polygon fill="white" stroke="transparent" points="-4,4 -4,-573.8 873.5,-573.8 873.5,4 -4,4"/>
<g id="clust1" class="cluster">
<title>cluster_000</title>
<polygon fill="none" stroke="black" points="402.5,-519.2 402.5,-561.8 861.5,-561.8 861.5,-519.2 402.5,-519.2"/>
<text text-anchor="middle" x="632" y="-546.6" font-family="Times,serif" font-size="14.00">Legend</text>
</g>
<!-- node0 -->
<g id="node1" class="node">
<title>node0</title>
<polygon fill="lightgrey" stroke="black" points="392.5,-547 226.5,-547 226.5,-511 392.5,-511 392.5,-547"/>
<text text-anchor="middle" x="309.5" y="-525.3" font-family="Times,serif" font-size="14.00">#0 Method Order : 0</text>
</g>
<!-- node1 -->
<g id="node2" class="node">
<title>node1</title>
<polygon fill="lightgrey" stroke="black" points="403.5,-474 215.5,-474 215.5,-438 403.5,-438 403.5,-474"/>
<text text-anchor="middle" x="309.5" y="-452.3" font-family="Times,serif" font-size="14.00">#1 LabelNode Order : 1</text>
</g>
<!-- node0&#45;&gt;node1 -->
<g id="edge2" class="edge">
<title>node0&#45;&gt;node1</title>
<path fill="none" stroke="red" d="M303.62,-510.81C302.78,-502.79 302.55,-493.05 302.92,-484.07"/>
<polygon fill="red" stroke="red" points="306.42,-484.25 303.64,-474.03 299.44,-483.75 306.42,-484.25"/>
</g>
<!-- node1&#45;&gt;node0 -->
<g id="edge1" class="edge">
<title>node1&#45;&gt;node0</title>
<path fill="none" stroke="fuchsia" stroke-width="2" d="M315.36,-474.03C316.21,-482.03 316.45,-491.77 316.09,-500.75"/>
<polygon fill="fuchsia" stroke="fuchsia" stroke-width="2" points="312.59,-500.59 315.38,-510.81 319.57,-501.08 312.59,-500.59"/>
</g>
<!-- node2 -->
<g id="node3" class="node">
<title>node2</title>
<polygon fill="lightgrey" stroke="black" points="415.5,-401 203.5,-401 203.5,-365 415.5,-365 415.5,-401"/>
<text text-anchor="middle" x="309.5" y="-379.3" font-family="Times,serif" font-size="14.00">#2 LookupSwitch Order : 2</text>
</g>
<!-- node1&#45;&gt;node2 -->
<g id="edge4" class="edge">
<title>node1&#45;&gt;node2</title>
<path fill="none" stroke="red" d="M303.62,-437.81C302.78,-429.79 302.55,-420.05 302.92,-411.07"/>
<polygon fill="red" stroke="red" points="306.42,-411.25 303.64,-401.03 299.44,-410.75 306.42,-411.25"/>
</g>
<!-- node2&#45;&gt;node1 -->
<g id="edge3" class="edge">
<title>node2&#45;&gt;node1</title>
<path fill="none" stroke="fuchsia" stroke-width="2" d="M315.36,-401.03C316.21,-409.03 316.45,-418.77 316.09,-427.75"/>
<polygon fill="fuchsia" stroke="fuchsia" stroke-width="2" points="312.59,-427.59 315.38,-437.81 319.57,-428.08 312.59,-427.59"/>
</g>
<!-- node3 -->
<g id="node4" class="node">
<title>node3</title>
<polygon fill="lightgrey" stroke="black" points="206,-328 45,-328 45,-292 206,-292 206,-328"/>
<text text-anchor="middle" x="125.5" y="-306.3" font-family="Times,serif" font-size="14.00">#3 default Order : 9</text>
</g>
<!-- node2&#45;&gt;node3 -->
<g id="edge6" class="edge">
<title>node2&#45;&gt;node3</title>
<path fill="none" stroke="red" d="M259.57,-364.99C232.76,-355.06 199.93,-342.43 173.43,-331.89"/>
<polygon fill="red" stroke="red" points="174.56,-328.58 163.98,-328.11 171.97,-335.08 174.56,-328.58"/>
</g>
<!-- node4 -->
<g id="node5" class="node">
<title>node4</title>
<polygon fill="lightgrey" stroke="black" points="385.5,-328 233.5,-328 233.5,-292 385.5,-292 385.5,-328"/>
<text text-anchor="middle" x="309.5" y="-306.3" font-family="Times,serif" font-size="14.00">#4 case0 Order : 6</text>
</g>
<!-- node2&#45;&gt;node4 -->
<g id="edge8" class="edge">
<title>node2&#45;&gt;node4</title>
<path fill="none" stroke="red" d="M303.62,-364.81C302.78,-356.79 302.55,-347.05 302.92,-338.07"/>
<polygon fill="red" stroke="red" points="306.42,-338.25 303.64,-328.03 299.44,-337.75 306.42,-338.25"/>
</g>
<!-- node5 -->
<g id="node6" class="node">
<title>node5</title>
<polygon fill="lightgrey" stroke="black" points="564.5,-328 412.5,-328 412.5,-292 564.5,-292 564.5,-328"/>
<text text-anchor="middle" x="488.5" y="-306.3" font-family="Times,serif" font-size="14.00">#5 case1 Order : 3</text>
</g>
<!-- node2&#45;&gt;node5 -->
<g id="edge10" class="edge">
<title>node2&#45;&gt;node5</title>
<path fill="none" stroke="red" d="M346.52,-364.99C370.62,-355.01 402.5,-342.32 429.97,-331.76"/>
<polygon fill="red" stroke="red" points="431.4,-334.96 439.48,-328.11 428.89,-328.42 431.4,-334.96"/>
</g>
<!-- node3&#45;&gt;node2 -->
<g id="edge5" class="edge">
<title>node3&#45;&gt;node2</title>
<path fill="none" stroke="fuchsia" stroke-width="2" d="M175.72,-328.11C202.57,-338.07 235.4,-350.69 261.85,-361.22"/>
<polygon fill="fuchsia" stroke="fuchsia" stroke-width="2" points="260.7,-364.53 271.29,-364.99 263.3,-358.03 260.7,-364.53"/>
</g>
<!-- node6 -->
<g id="node7" class="node">
<title>node6</title>
<polygon fill="lightgrey" stroke="black" points="197,-255 0,-255 0,-219 197,-219 197,-255"/>
<text text-anchor="middle" x="98.5" y="-233.3" font-family="Times,serif" font-size="14.00">#6 LabelNode Order : 10</text>
</g>
<!-- node3&#45;&gt;node6 -->
<g id="edge12" class="edge">
<title>node3&#45;&gt;node6</title>
<path fill="none" stroke="red" d="M113.09,-291.81C109.15,-283.7 105.17,-273.84 102.12,-264.78"/>
<polygon fill="red" stroke="red" points="105.4,-263.56 99.11,-255.03 98.71,-265.62 105.4,-263.56"/>
</g>
<!-- node4&#45;&gt;node2 -->
<g id="edge7" class="edge">
<title>node4&#45;&gt;node2</title>
<path fill="none" stroke="fuchsia" stroke-width="2" d="M315.36,-328.03C316.21,-336.03 316.45,-345.77 316.09,-354.75"/>
<polygon fill="fuchsia" stroke="fuchsia" stroke-width="2" points="312.59,-354.59 315.38,-364.81 319.57,-355.08 312.59,-354.59"/>
</g>
<!-- node7 -->
<g id="node8" class="node">
<title>node7</title>
<polygon fill="lightgrey" stroke="black" points="403.5,-255 215.5,-255 215.5,-219 403.5,-219 403.5,-255"/>
<text text-anchor="middle" x="309.5" y="-233.3" font-family="Times,serif" font-size="14.00">#7 LabelNode Order : 7</text>
</g>
<!-- node4&#45;&gt;node7 -->
<g id="edge14" class="edge">
<title>node4&#45;&gt;node7</title>
<path fill="none" stroke="red" d="M303.62,-291.81C302.78,-283.79 302.55,-274.05 302.92,-265.07"/>
<polygon fill="red" stroke="red" points="306.42,-265.25 303.64,-255.03 299.44,-264.75 306.42,-265.25"/>
</g>
<!-- node5&#45;&gt;node2 -->
<g id="edge9" class="edge">
<title>node5&#45;&gt;node2</title>
<path fill="none" stroke="fuchsia" stroke-width="2" d="M451.23,-328.11C427.06,-338.11 395.18,-350.81 367.74,-361.36"/>
<polygon fill="fuchsia" stroke="fuchsia" stroke-width="2" points="366.32,-358.15 358.23,-364.99 368.82,-364.69 366.32,-358.15"/>
</g>
<!-- node8 -->
<g id="node9" class="node">
<title>node8</title>
<polygon fill="lightgrey" stroke="black" points="609.5,-255 421.5,-255 421.5,-219 609.5,-219 609.5,-255"/>
<text text-anchor="middle" x="515.5" y="-233.3" font-family="Times,serif" font-size="14.00">#8 LabelNode Order : 4</text>
</g>
<!-- node5&#45;&gt;node8 -->
<g id="edge16" class="edge">
<title>node5&#45;&gt;node8</title>
<path fill="none" stroke="red" d="M489.16,-291.81C491.44,-283.53 495.07,-273.41 499,-264.19"/>
<polygon fill="red" stroke="red" points="502.21,-265.58 503.16,-255.03 495.84,-262.69 502.21,-265.58"/>
</g>
<!-- node6&#45;&gt;node3 -->
<g id="edge11" class="edge">
<title>node6&#45;&gt;node3</title>
<path fill="none" stroke="fuchsia" stroke-width="2" d="M110.84,-255.03C114.77,-263.12 118.76,-272.98 121.82,-282.05"/>
<polygon fill="fuchsia" stroke="fuchsia" stroke-width="2" points="118.54,-283.29 124.84,-291.81 125.23,-281.23 118.54,-283.29"/>
</g>
<!-- node11 -->
<g id="node12" class="node">
<title>node11</title>
<polygon fill="lightgrey" stroke="black" points="565.5,-109 311.5,-109 311.5,-73 565.5,-73 565.5,-109"/>
<text text-anchor="middle" x="438.5" y="-87.3" font-family="Times,serif" font-size="14.00">#11 Merge : Merge17 Order : 11</text>
</g>
<!-- node6&#45;&gt;node11 -->
<g id="edge24" class="edge">
<title>node6&#45;&gt;node11</title>
<path fill="none" stroke="red" d="M118.11,-218.9C142.26,-198.69 185.3,-165.35 227.5,-146 260.19,-131.01 297.72,-119.71 331.97,-111.42"/>
<polygon fill="red" stroke="red" points="333.08,-114.75 342.01,-109.05 331.48,-107.94 333.08,-114.75"/>
</g>
<!-- node7&#45;&gt;node4 -->
<g id="edge13" class="edge">
<title>node7&#45;&gt;node4</title>
<path fill="none" stroke="fuchsia" stroke-width="2" d="M315.36,-255.03C316.21,-263.03 316.45,-272.77 316.09,-281.75"/>
<polygon fill="fuchsia" stroke="fuchsia" stroke-width="2" points="312.59,-281.59 315.38,-291.81 319.57,-282.08 312.59,-281.59"/>
</g>
<!-- node9 -->
<g id="node10" class="node">
<title>node9</title>
<polygon fill="lightgrey" stroke="black" points="382,-182 237,-182 237,-146 382,-146 382,-182"/>
<text text-anchor="middle" x="309.5" y="-160.3" font-family="Times,serif" font-size="14.00">#9 Goto Order : 8</text>
</g>
<!-- node7&#45;&gt;node9 -->
<g id="edge18" class="edge">
<title>node7&#45;&gt;node9</title>
<path fill="none" stroke="red" d="M303.62,-218.81C302.78,-210.79 302.55,-201.05 302.92,-192.07"/>
<polygon fill="red" stroke="red" points="306.42,-192.25 303.64,-182.03 299.44,-191.75 306.42,-192.25"/>
</g>
<!-- node8&#45;&gt;node5 -->
<g id="edge15" class="edge">
<title>node8&#45;&gt;node5</title>
<path fill="none" stroke="fuchsia" stroke-width="2" d="M514.89,-255.03C512.62,-263.29 509,-273.4 505.08,-282.63"/>
<polygon fill="fuchsia" stroke="fuchsia" stroke-width="2" points="501.85,-281.26 500.91,-291.81 508.23,-284.15 501.85,-281.26"/>
</g>
<!-- node10 -->
<g id="node11" class="node">
<title>node10</title>
<polygon fill="lightgrey" stroke="black" points="592.5,-182 438.5,-182 438.5,-146 592.5,-146 592.5,-182"/>
<text text-anchor="middle" x="515.5" y="-160.3" font-family="Times,serif" font-size="14.00">#10 Goto Order : 5</text>
</g>
<!-- node8&#45;&gt;node10 -->
<g id="edge20" class="edge">
<title>node8&#45;&gt;node10</title>
<path fill="none" stroke="red" d="M509.62,-218.81C508.78,-210.79 508.55,-201.05 508.92,-192.07"/>
<polygon fill="red" stroke="red" points="512.42,-192.25 509.64,-182.03 505.44,-191.75 512.42,-192.25"/>
</g>
<!-- node9&#45;&gt;node7 -->
<g id="edge17" class="edge">
<title>node9&#45;&gt;node7</title>
<path fill="none" stroke="fuchsia" stroke-width="2" d="M315.36,-182.03C316.21,-190.03 316.45,-199.77 316.09,-208.75"/>
<polygon fill="fuchsia" stroke="fuchsia" stroke-width="2" points="312.59,-208.59 315.38,-218.81 319.57,-209.08 312.59,-208.59"/>
</g>
<!-- node9&#45;&gt;node11 -->
<g id="edge22" class="edge">
<title>node9&#45;&gt;node11</title>
<path fill="none" stroke="red" d="M340.4,-145.99C357.82,-136.4 379.78,-124.32 398.51,-114.01"/>
<polygon fill="red" stroke="red" points="400.33,-117 407.41,-109.11 396.96,-110.87 400.33,-117"/>
</g>
<!-- node10&#45;&gt;node8 -->
<g id="edge19" class="edge">
<title>node10&#45;&gt;node8</title>
<path fill="none" stroke="fuchsia" stroke-width="2" d="M521.36,-182.03C522.21,-190.03 522.45,-199.77 522.09,-208.75"/>
<polygon fill="fuchsia" stroke="fuchsia" stroke-width="2" points="518.59,-208.59 521.38,-218.81 525.57,-209.08 518.59,-208.59"/>
</g>
<!-- node10&#45;&gt;node11 -->
<g id="edge23" class="edge">
<title>node10&#45;&gt;node11</title>
<path fill="none" stroke="red" d="M496.86,-145.81C487.12,-136.83 475.04,-125.69 464.4,-115.89"/>
<polygon fill="red" stroke="red" points="466.69,-113.23 456.97,-109.03 461.95,-118.38 466.69,-113.23"/>
</g>
<!-- node11&#45;&gt;node2 -->
<g id="edge21" class="edge">
<title>node11&#45;&gt;node2</title>
<path fill="none" stroke="fuchsia" stroke-width="2" d="M534.5,-109.07C585.39,-120.94 637.5,-138.97 637.5,-163 637.5,-311 637.5,-311 637.5,-311 637.5,-355.62 520.08,-372.26 425.75,-378.43"/>
<polygon fill="fuchsia" stroke="fuchsia" stroke-width="2" points="425.3,-374.96 415.54,-379.07 425.74,-381.94 425.3,-374.96"/>
</g>
<!-- node12 -->
<g id="node13" class="node">
<title>node12</title>
<polygon fill="lightgrey" stroke="black" points="564,-36 313,-36 313,0 564,0 564,-36"/>
<text text-anchor="middle" x="438.5" y="-14.3" font-family="Times,serif" font-size="14.00">#12 ReturnValue : int Order : 12</text>
</g>
<!-- node11&#45;&gt;node12 -->
<g id="edge26" class="edge">
<title>node11&#45;&gt;node12</title>
<path fill="none" stroke="red" d="M432.62,-72.81C431.78,-64.79 431.55,-55.05 431.92,-46.07"/>
<polygon fill="red" stroke="red" points="435.42,-46.25 432.64,-36.03 428.44,-45.75 435.42,-46.25"/>
</g>
<!-- node12&#45;&gt;node11 -->
<g id="edge25" class="edge">
<title>node12&#45;&gt;node11</title>
<path fill="none" stroke="fuchsia" stroke-width="2" d="M444.36,-36.03C445.21,-44.03 445.45,-53.77 445.09,-62.75"/>
<polygon fill="fuchsia" stroke="fuchsia" stroke-width="2" points="441.59,-62.59 444.38,-72.81 448.57,-63.08 441.59,-62.59"/>
</g>
<!-- c0 -->
<!-- c1 -->
<!-- c0&#45;&gt;c1 -->
<g id="edge27" class="edge">
<title>c0&#45;&gt;c1</title>
<path fill="none" stroke="red" d="M744.39,-529C755.61,-529 813.74,-529 839.36,-529"/>
<polygon fill="red" stroke="red" points="839.56,-532.5 849.56,-529 839.56,-525.5 839.56,-532.5"/>
<text text-anchor="middle" x="797" y="-535.8" font-family="Times,serif" font-size="14.00">Control flow</text>
</g>
<!-- c2 -->
<!-- c3 -->
<!-- c2&#45;&gt;c3 -->
<g id="edge28" class="edge">
<title>c2&#45;&gt;c3</title>
<path fill="none" stroke="red" stroke-dasharray="5,2" d="M537.58,-529C554.55,-529 670.71,-529 708.58,-529"/>
<polygon fill="red" stroke="red" points="708.67,-532.5 718.67,-529 708.67,-525.5 708.67,-532.5"/>
<text text-anchor="middle" x="628" y="-535.8" font-family="Times,serif" font-size="14.00">Control flow back edge</text>
</g>
<!-- d8 -->
<!-- d9 -->
<!-- d8&#45;&gt;d9 -->
<g id="edge29" class="edge">
<title>d8&#45;&gt;d9</title>
<path fill="none" stroke="fuchsia" d="M414.61,-529C425.65,-529 477.17,-529 501.16,-529"/>
<polygon fill="fuchsia" stroke="fuchsia" points="501.4,-532.5 511.4,-529 501.4,-525.5 501.4,-532.5"/>
<text text-anchor="middle" x="463" y="-535.8" font-family="Times,serif" font-size="14.00">Dominance</text>
</g>
</g>
</svg>
