<?xml version="1.0" encoding="UTF-8" standalone="no"?>
<!DOCTYPE svg PUBLIC "-//W3C//DTD SVG 1.1//EN"
 "http://www.w3.org/Graphics/SVG/1.1/DTD/svg11.dtd">
<!-- Generated by graphviz version 2.43.0 (0)
 -->
<!-- Title: debugoutput Pages: 1 -->
<svg width="1715pt" height="651pt"
 viewBox="0.00 0.00 1714.50 650.80" xmlns="http://www.w3.org/2000/svg" xmlns:xlink="http://www.w3.org/1999/xlink">
<g id="graph0" class="graph" transform="scale(1 1) rotate(0) translate(4 646.8)">
<title>debugoutput</title>
<polygon fill="white" stroke="transparent" points="-4,4 -4,-646.8 1710.5,-646.8 1710.5,4 -4,4"/>
<g id="clust1" class="cluster">
<title>cluster_000</title>
<polygon fill="none" stroke="black" points="722.5,-592.2 722.5,-634.8 1698.5,-634.8 1698.5,-592.2 722.5,-592.2"/>
<text text-anchor="middle" x="1210.5" y="-619.6" font-family="Times,serif" font-size="14.00">Legend</text>
</g>
<!-- node0 -->
<g id="node1" class="node">
<title>node0</title>
<polygon fill="lightgrey" stroke="black" points="712.5,-620 546.5,-620 546.5,-584 712.5,-584 712.5,-620"/>
<text text-anchor="middle" x="629.5" y="-598.3" font-family="Times,serif" font-size="14.00">#0 Method Order : 0</text>
</g>
<!-- node1 -->
<g id="node2" class="node">
<title>node1</title>
<polygon fill="lightgrey" stroke="black" points="808,-547 631,-547 631,-511 808,-511 808,-547"/>
<text text-anchor="middle" x="719.5" y="-525.3" font-family="Times,serif" font-size="14.00">#1 arg0 : int Order : 3</text>
</g>
<!-- node0&#45;&gt;node1 -->
<g id="edge2" class="edge">
<title>node0&#45;&gt;node1</title>
<path fill="none" stroke="black" d="M645.41,-583.81C656.16,-574.57 670.61,-563.04 683.94,-553.03"/>
<polygon fill="black" stroke="black" points="686.1,-555.79 692.05,-547.03 681.93,-550.16 686.1,-555.79"/>
<text text-anchor="middle" x="682.51" y="-560.9" font-family="Times,serif" font-size="14.00">*0</text>
</g>
<!-- node2 -->
<g id="node3" class="node">
<title>node2</title>
<polygon fill="lightgrey" stroke="black" points="613,-547 348,-547 348,-511 613,-511 613,-547"/>
<text text-anchor="middle" x="480.5" y="-525.3" font-family="Times,serif" font-size="14.00">#2 this : SwitchCaseTest Order : 2</text>
</g>
<!-- node0&#45;&gt;node2 -->
<g id="edge4" class="edge">
<title>node0&#45;&gt;node2</title>
<path fill="none" stroke="black" d="M587.95,-583.99C566.52,-574.27 540.6,-561.99 519.54,-551.59"/>
<polygon fill="black" stroke="black" points="521.06,-548.43 510.54,-547.11 517.94,-554.7 521.06,-548.43"/>
<text text-anchor="middle" x="530.54" y="-543.92" font-family="Times,serif" font-size="14.00">*0</text>
</g>
<!-- node3 -->
<g id="node4" class="node">
<title>node3</title>
<polygon fill="lightgrey" stroke="black" points="329.5,-547 141.5,-547 141.5,-511 329.5,-511 329.5,-547"/>
<text text-anchor="middle" x="235.5" y="-525.3" font-family="Times,serif" font-size="14.00">#3 LabelNode Order : 1</text>
</g>
<!-- node0&#45;&gt;node3 -->
<g id="edge6" class="edge">
<title>node0&#45;&gt;node3</title>
<path fill="none" stroke="red" d="M546.15,-586.97C484.11,-576.06 399.27,-560.8 333.91,-548.82"/>
<polygon fill="red" stroke="red" points="334.47,-545.37 324,-547 333.2,-552.25 334.47,-545.37"/>
</g>
<!-- node18 -->
<g id="node19" class="node">
<title>node18</title>
<polygon fill="lightgrey" stroke="black" points="1027,-36 776,-36 776,0 1027,0 1027,-36"/>
<text text-anchor="middle" x="901.5" y="-14.3" font-family="Times,serif" font-size="14.00">#18 ReturnValue : int Order : 18</text>
</g>
<!-- node0&#45;&gt;node18 -->
<g id="edge44" class="edge">
<title>node0&#45;&gt;node18</title>
<path fill="none" stroke="green" d="M709.08,-584C731.38,-578.92 755.5,-572.85 777.5,-566 986.42,-500.97 1216.72,-264.44 1221.5,-255 1278.79,-141.75 1091.62,-70.85 979.47,-38.9"/>
<polygon fill="green" stroke="green" points="980.11,-35.45 969.53,-36.12 978.22,-42.19 980.11,-35.45"/>
</g>
<!-- node1&#45;&gt;node0 -->
<g id="edge1" class="edge">
<title>node1&#45;&gt;node0</title>
<path fill="none" stroke="fuchsia" stroke-width="2" d="M703.78,-547.03C693.07,-556.25 678.63,-567.77 665.29,-577.8"/>
<polygon fill="fuchsia" stroke="fuchsia" stroke-width="2" points="663.12,-575.05 657.16,-583.81 667.28,-580.67 663.12,-575.05"/>
</g>
<!-- node4 -->
<g id="node5" class="node">
<title>node4</title>
<polygon fill="lightgrey" stroke="black" points="805.5,-474 593.5,-474 593.5,-438 805.5,-438 805.5,-474"/>
<text text-anchor="middle" x="699.5" y="-452.3" font-family="Times,serif" font-size="14.00">#4 LookupSwitch Order : 4</text>
</g>
<!-- node1&#45;&gt;node4 -->
<g id="edge8" class="edge">
<title>node1&#45;&gt;node4</title>
<path fill="none" stroke="black" d="M714.66,-510.81C712.37,-502.7 709.59,-492.84 707.04,-483.78"/>
<polygon fill="black" stroke="black" points="710.38,-482.71 704.3,-474.03 703.64,-484.6 710.38,-482.71"/>
<text text-anchor="middle" x="717.35" y="-485.48" font-family="Times,serif" font-size="14.00">*0</text>
</g>
<!-- node2&#45;&gt;node0 -->
<g id="edge3" class="edge">
<title>node2&#45;&gt;node0</title>
<path fill="none" stroke="fuchsia" stroke-width="2" d="M522.28,-547.11C543.75,-556.85 569.67,-569.14 590.69,-579.52"/>
<polygon fill="fuchsia" stroke="fuchsia" stroke-width="2" points="589.16,-582.67 599.67,-583.99 592.28,-576.4 589.16,-582.67"/>
</g>
<!-- node3&#45;&gt;node0 -->
<g id="edge5" class="edge">
<title>node3&#45;&gt;node0</title>
<path fill="none" stroke="fuchsia" stroke-width="2" d="M329.83,-545.96C392.3,-556.99 473.85,-571.68 536.12,-583.1"/>
<polygon fill="fuchsia" stroke="fuchsia" stroke-width="2" points="535.87,-586.61 546.34,-584.98 537.14,-579.73 535.87,-586.61"/>
</g>
<!-- node3&#45;&gt;node4 -->
<g id="edge9" class="edge">
<title>node3&#45;&gt;node4</title>
<path fill="none" stroke="red" d="M329.51,-512.42C332.54,-511.94 335.55,-511.46 338.5,-511 420.09,-498.16 512.18,-484.4 582.93,-473.98"/>
<polygon fill="red" stroke="red" points="583.82,-477.39 593.21,-472.47 582.8,-470.46 583.82,-477.39"/>
</g>
<!-- node4&#45;&gt;node0 -->
<g id="edge7" class="edge">
<title>node4&#45;&gt;node0</title>
<path fill="none" stroke="fuchsia" stroke-width="2" d="M768.98,-474.01C787.57,-482.07 805.53,-493.85 816.5,-511 825.12,-524.48 826.12,-534.21 816.5,-547 809.79,-555.92 760.21,-570.01 713.79,-581.57"/>
<polygon fill="fuchsia" stroke="fuchsia" stroke-width="2" points="712.82,-578.2 703.95,-583.99 714.5,-585 712.82,-578.2"/>
</g>
<!-- node5 -->
<g id="node6" class="node">
<title>node5</title>
<polygon fill="lightgrey" stroke="black" points="957,-401 796,-401 796,-365 957,-365 957,-401"/>
<text text-anchor="middle" x="876.5" y="-379.3" font-family="Times,serif" font-size="14.00">#5 case0 Order : 12</text>
</g>
<!-- node4&#45;&gt;node5 -->
<g id="edge11" class="edge">
<title>node4&#45;&gt;node5</title>
<path fill="none" stroke="red" d="M736.04,-437.99C759.86,-428.01 791.38,-415.32 818.55,-404.76"/>
<polygon fill="red" stroke="red" points="819.9,-407.99 827.97,-401.11 817.38,-401.46 819.9,-407.99"/>
</g>
<!-- node6 -->
<g id="node7" class="node">
<title>node6</title>
<polygon fill="lightgrey" stroke="black" points="479.5,-401 327.5,-401 327.5,-365 479.5,-365 479.5,-401"/>
<text text-anchor="middle" x="403.5" y="-379.3" font-family="Times,serif" font-size="14.00">#6 case1 Order : 8</text>
</g>
<!-- node4&#45;&gt;node6 -->
<g id="edge13" class="edge">
<title>node4&#45;&gt;node6</title>
<path fill="none" stroke="red" d="M622.74,-437.99C578.39,-427.62 522.87,-414.32 478.78,-403.52"/>
<polygon fill="red" stroke="red" points="479.52,-400.1 468.98,-401.11 477.85,-406.9 479.52,-400.1"/>
</g>
<!-- node7 -->
<g id="node8" class="node">
<title>node7</title>
<polygon fill="lightgrey" stroke="black" points="711,-401 550,-401 550,-365 711,-365 711,-401"/>
<text text-anchor="middle" x="630.5" y="-379.3" font-family="Times,serif" font-size="14.00">#7 default Order : 5</text>
</g>
<!-- node4&#45;&gt;node7 -->
<g id="edge15" class="edge">
<title>node4&#45;&gt;node7</title>
<path fill="none" stroke="red" d="M676.92,-437.81C667.53,-429.09 656.89,-418.34 648.08,-408.75"/>
<polygon fill="red" stroke="red" points="650.46,-406.15 641.19,-401.03 645.24,-410.82 650.46,-406.15"/>
</g>
<!-- node5&#45;&gt;node4 -->
<g id="edge10" class="edge">
<title>node5&#45;&gt;node4</title>
<path fill="none" stroke="fuchsia" stroke-width="2" d="M839.71,-401.11C815.83,-411.11 784.3,-423.81 757.15,-434.36"/>
<polygon fill="fuchsia" stroke="fuchsia" stroke-width="2" points="755.82,-431.12 747.76,-437.99 758.34,-437.65 755.82,-431.12"/>
</g>
<!-- node8 -->
<g id="node9" class="node">
<title>node8</title>
<polygon fill="lightgrey" stroke="black" points="984,-328 787,-328 787,-292 984,-292 984,-328"/>
<text text-anchor="middle" x="885.5" y="-306.3" font-family="Times,serif" font-size="14.00">#8 LabelNode Order : 13</text>
</g>
<!-- node5&#45;&gt;node8 -->
<g id="edge17" class="edge">
<title>node5&#45;&gt;node8</title>
<path fill="none" stroke="red" d="M872.8,-364.81C872.98,-356.79 873.98,-347.05 875.49,-338.07"/>
<polygon fill="red" stroke="red" points="878.97,-338.52 877.48,-328.03 872.1,-337.16 878.97,-338.52"/>
</g>
<!-- node6&#45;&gt;node4 -->
<g id="edge12" class="edge">
<title>node6&#45;&gt;node4</title>
<path fill="none" stroke="fuchsia" stroke-width="2" d="M479.67,-400.87C524.24,-411.29 580.25,-424.71 624.61,-435.57"/>
<polygon fill="fuchsia" stroke="fuchsia" stroke-width="2" points="623.91,-439.01 634.46,-437.99 625.58,-432.21 623.91,-439.01"/>
</g>
<!-- node9 -->
<g id="node10" class="node">
<title>node9</title>
<polygon fill="lightgrey" stroke="black" points="401.5,-328 213.5,-328 213.5,-292 401.5,-292 401.5,-328"/>
<text text-anchor="middle" x="307.5" y="-306.3" font-family="Times,serif" font-size="14.00">#9 LabelNode Order : 9</text>
</g>
<!-- node6&#45;&gt;node9 -->
<g id="edge19" class="edge">
<title>node6&#45;&gt;node9</title>
<path fill="none" stroke="red" d="M374.65,-364.99C361.3,-355.84 345.67,-344.41 332.79,-334.43"/>
<polygon fill="red" stroke="red" points="334.79,-331.55 324.77,-328.11 330.46,-337.05 334.79,-331.55"/>
</g>
<!-- node7&#45;&gt;node4 -->
<g id="edge14" class="edge">
<title>node7&#45;&gt;node4</title>
<path fill="none" stroke="fuchsia" stroke-width="2" d="M652.91,-401.03C662.28,-409.73 672.93,-420.47 681.76,-430.08"/>
<polygon fill="fuchsia" stroke="fuchsia" stroke-width="2" points="679.4,-432.69 688.68,-437.81 684.62,-428.03 679.4,-432.69"/>
</g>
<!-- node10 -->
<g id="node11" class="node">
<title>node10</title>
<polygon fill="lightgrey" stroke="black" points="709,-328 512,-328 512,-292 709,-292 709,-328"/>
<text text-anchor="middle" x="610.5" y="-306.3" font-family="Times,serif" font-size="14.00">#10 LabelNode Order : 6</text>
</g>
<!-- node7&#45;&gt;node10 -->
<g id="edge21" class="edge">
<title>node7&#45;&gt;node10</title>
<path fill="none" stroke="red" d="M619.78,-364.81C616.68,-356.79 613.7,-347.05 611.55,-338.07"/>
<polygon fill="red" stroke="red" points="614.92,-337.09 609.44,-328.03 608.07,-338.54 614.92,-337.09"/>
</g>
<!-- node8&#45;&gt;node5 -->
<g id="edge16" class="edge">
<title>node8&#45;&gt;node5</title>
<path fill="none" stroke="fuchsia" stroke-width="2" d="M889.2,-328.03C889.04,-336.03 888.04,-345.77 886.54,-354.75"/>
<polygon fill="fuchsia" stroke="fuchsia" stroke-width="2" points="883.06,-354.32 884.56,-364.81 889.92,-355.68 883.06,-354.32"/>
</g>
<!-- node11 -->
<g id="node12" class="node">
<title>node11</title>
<polygon fill="lightgrey" stroke="black" points="950,-255 787,-255 787,-219 950,-219 950,-255"/>
<text text-anchor="middle" x="868.5" y="-233.3" font-family="Times,serif" font-size="14.00">#11 Goto Order : 15</text>
</g>
<!-- node8&#45;&gt;node11 -->
<g id="edge23" class="edge">
<title>node8&#45;&gt;node11</title>
<path fill="none" stroke="red" d="M875.51,-291.81C872.75,-283.79 870.18,-274.05 868.4,-265.07"/>
<polygon fill="red" stroke="red" points="871.83,-264.31 866.72,-255.03 864.92,-265.47 871.83,-264.31"/>
</g>
<!-- node12 -->
<g id="node13" class="node">
<title>node12</title>
<polygon fill="lightgreen" stroke="black" points="1221.26,-229.54 1221.26,-244.46 1147,-255 1042,-255 967.74,-244.46 967.74,-229.54 1042,-219 1147,-219 1221.26,-229.54"/>
<text text-anchor="middle" x="1094.5" y="-233.3" font-family="Times,serif" font-size="14.00">#12 int 100 Order : 14</text>
</g>
<!-- node8&#45;&gt;node12 -->
<g id="edge25" class="edge">
<title>node8&#45;&gt;node12</title>
<path fill="none" stroke="black" stroke-dasharray="1,5" d="M929.7,-291.99C958.71,-281.77 997.07,-268.71 1029.52,-257.99"/>
<polygon fill="black" stroke="black" points="1030.97,-261.2 1039.38,-254.74 1028.78,-254.55 1030.97,-261.2"/>
</g>
<!-- node9&#45;&gt;node6 -->
<g id="edge18" class="edge">
<title>node9&#45;&gt;node6</title>
<path fill="none" stroke="fuchsia" stroke-width="2" d="M336.39,-328.03C349.7,-337.16 365.28,-348.55 378.14,-358.51"/>
<polygon fill="fuchsia" stroke="fuchsia" stroke-width="2" points="376.12,-361.38 386.14,-364.81 380.45,-355.88 376.12,-361.38"/>
</g>
<!-- node13 -->
<g id="node14" class="node">
<title>node13</title>
<polygon fill="lightgrey" stroke="black" points="163,-255 0,-255 0,-219 163,-219 163,-255"/>
<text text-anchor="middle" x="81.5" y="-233.3" font-family="Times,serif" font-size="14.00">#13 Goto Order : 11</text>
</g>
<!-- node9&#45;&gt;node13 -->
<g id="edge27" class="edge">
<title>node9&#45;&gt;node13</title>
<path fill="none" stroke="red" d="M247.51,-291.99C214.1,-281.84 172.76,-268.88 139.65,-258.2"/>
<polygon fill="red" stroke="red" points="140.7,-254.86 130.1,-255.11 138.54,-261.52 140.7,-254.86"/>
</g>
<!-- node14 -->
<g id="node15" class="node">
<title>node14</title>
<polygon fill="lightgreen" stroke="black" points="434.26,-229.54 434.26,-244.46 360,-255 255,-255 180.74,-244.46 180.74,-229.54 255,-219 360,-219 434.26,-229.54"/>
<text text-anchor="middle" x="307.5" y="-233.3" font-family="Times,serif" font-size="14.00">#14 int 200 Order : 10</text>
</g>
<!-- node9&#45;&gt;node14 -->
<g id="edge29" class="edge">
<title>node9&#45;&gt;node14</title>
<path fill="none" stroke="black" stroke-dasharray="1,5" d="M301.62,-291.81C300.78,-283.79 300.55,-274.05 300.92,-265.07"/>
<polygon fill="black" stroke="black" points="304.42,-265.25 301.64,-255.03 297.44,-264.75 304.42,-265.25"/>
</g>
<!-- node10&#45;&gt;node7 -->
<g id="edge20" class="edge">
<title>node10&#45;&gt;node7</title>
<path fill="none" stroke="fuchsia" stroke-width="2" d="M621.16,-328.03C624.26,-336.03 627.24,-345.77 629.41,-354.75"/>
<polygon fill="fuchsia" stroke="fuchsia" stroke-width="2" points="626.04,-355.75 631.54,-364.81 632.89,-354.31 626.04,-355.75"/>
</g>
<!-- node15 -->
<g id="node16" class="node">
<title>node15</title>
<polygon fill="lightgrey" stroke="black" points="885.5,-182 631.5,-182 631.5,-146 885.5,-146 885.5,-182"/>
<text text-anchor="middle" x="758.5" y="-160.3" font-family="Times,serif" font-size="14.00">#15 Merge : Merge17 Order : 16</text>
</g>
<!-- node10&#45;&gt;node15 -->
<g id="edge33" class="edge">
<title>node10&#45;&gt;node15</title>
<path fill="none" stroke="red" d="M530.02,-291.9C511,-283.91 492.93,-272.18 481.5,-255 472.64,-241.68 471.33,-231.35 481.5,-219 500.02,-196.52 561.07,-183.28 621.16,-175.53"/>
<polygon fill="red" stroke="red" points="621.69,-179 631.18,-174.29 620.83,-172.05 621.69,-179"/>
</g>
<!-- node16 -->
<g id="node17" class="node">
<title>node16</title>
<polygon fill="lightgreen" stroke="black" points="730.59,-229.54 730.59,-244.46 660.24,-255 560.76,-255 490.41,-244.46 490.41,-229.54 560.76,-219 660.24,-219 730.59,-229.54"/>
<text text-anchor="middle" x="610.5" y="-233.3" font-family="Times,serif" font-size="14.00">#16 int 300 Order : 7</text>
</g>
<!-- node10&#45;&gt;node16 -->
<g id="edge35" class="edge">
<title>node10&#45;&gt;node16</title>
<path fill="none" stroke="black" stroke-dasharray="1,5" d="M604.62,-291.81C603.78,-283.79 603.55,-274.05 603.92,-265.07"/>
<polygon fill="black" stroke="black" points="607.42,-265.25 604.64,-255.03 600.44,-264.75 607.42,-265.25"/>
</g>
<!-- node11&#45;&gt;node8 -->
<g id="edge22" class="edge">
<title>node11&#45;&gt;node8</title>
<path fill="none" stroke="fuchsia" stroke-width="2" d="M878.44,-255.03C881.2,-263.03 883.77,-272.77 885.56,-281.75"/>
<polygon fill="fuchsia" stroke="fuchsia" stroke-width="2" points="882.14,-282.54 887.26,-291.81 889.05,-281.37 882.14,-282.54"/>
</g>
<!-- node11&#45;&gt;node15 -->
<g id="edge31" class="edge">
<title>node11&#45;&gt;node15</title>
<path fill="none" stroke="red" d="M842.15,-218.99C827.57,-209.58 809.25,-197.76 793.48,-187.57"/>
<polygon fill="red" stroke="red" points="795.31,-184.6 785.01,-182.11 791.52,-190.48 795.31,-184.6"/>
</g>
<!-- node12&#45;&gt;node8 -->
<g id="edge24" class="edge">
<title>node12&#45;&gt;node8</title>
<path fill="none" stroke="fuchsia" stroke-width="2" d="M1049.99,-255.11C1021.23,-265.25 983.38,-278.14 951.21,-288.77"/>
<polygon fill="fuchsia" stroke="fuchsia" stroke-width="2" points="949.82,-285.54 941.42,-291.99 952.01,-292.19 949.82,-285.54"/>
</g>
<!-- node17 -->
<g id="node18" class="node">
<title>node17</title>
<polygon fill="orange" stroke="black" points="873.75,-83.54 873.75,-98.46 806.24,-109 710.76,-109 643.25,-98.46 643.25,-83.54 710.76,-73 806.24,-73 873.75,-83.54"/>
<text text-anchor="middle" x="758.5" y="-87.3" font-family="Times,serif" font-size="14.00">#17 Φ int Order : 17</text>
</g>
<!-- node12&#45;&gt;node17 -->
<g id="edge38" class="edge">
<title>node12&#45;&gt;node17</title>
<path fill="none" stroke="blue" d="M1060.84,-218.89C1021.63,-199.42 954.53,-167.54 894.5,-146 865.88,-135.73 856.84,-139.01 828.5,-128 818.06,-123.95 807.14,-118.8 797.11,-113.67"/>
<polygon fill="blue" stroke="blue" points="798.67,-110.54 788.18,-109.01 795.42,-116.74 798.67,-110.54"/>
<text text-anchor="middle" x="808.16" y="-106.22" font-family="Times,serif" font-size="14.00">if #11</text>
</g>
<!-- node13&#45;&gt;node9 -->
<g id="edge26" class="edge">
<title>node13&#45;&gt;node9</title>
<path fill="none" stroke="fuchsia" stroke-width="2" d="M141.84,-255.11C175.31,-265.29 216.65,-278.25 249.7,-288.91"/>
<polygon fill="fuchsia" stroke="fuchsia" stroke-width="2" points="248.63,-292.24 259.23,-291.99 250.79,-285.58 248.63,-292.24"/>
</g>
<!-- node13&#45;&gt;node15 -->
<g id="edge32" class="edge">
<title>node13&#45;&gt;node15</title>
<path fill="none" stroke="red" d="M163.36,-220.2C166.1,-219.78 168.82,-219.38 171.5,-219 324.76,-197.53 501.78,-182.58 621.01,-173.94"/>
<polygon fill="red" stroke="red" points="621.56,-177.41 631.28,-173.2 621.06,-170.43 621.56,-177.41"/>
</g>
<!-- node14&#45;&gt;node9 -->
<g id="edge28" class="edge">
<title>node14&#45;&gt;node9</title>
<path fill="none" stroke="fuchsia" stroke-width="2" d="M313.36,-255.03C314.21,-263.03 314.45,-272.77 314.09,-281.75"/>
<polygon fill="fuchsia" stroke="fuchsia" stroke-width="2" points="310.59,-281.59 313.38,-291.81 317.57,-282.08 310.59,-281.59"/>
</g>
<!-- node14&#45;&gt;node17 -->
<g id="edge39" class="edge">
<title>node14&#45;&gt;node17</title>
<path fill="none" stroke="blue" d="M409.16,-225.93C432.89,-223.62 458.08,-221.19 481.5,-219 527.37,-214.7 863.41,-216 894.5,-182 922.47,-151.41 873.96,-126.37 827.31,-110.54"/>
<polygon fill="blue" stroke="blue" points="828.31,-107.18 817.72,-107.4 826.13,-113.84 828.31,-107.18"/>
<text text-anchor="middle" x="837.57" y="-101.31" font-family="Times,serif" font-size="14.00">if #13</text>
</g>
<!-- node15&#45;&gt;node4 -->
<g id="edge30" class="edge">
<title>node15&#45;&gt;node4</title>
<path fill="none" stroke="fuchsia" stroke-width="2" d="M758.5,-182.22C758.5,-196.59 758.5,-217.63 758.5,-236 758.5,-384 758.5,-384 758.5,-384 758.5,-402.49 746.52,-418.73 733.36,-431"/>
<polygon fill="fuchsia" stroke="fuchsia" stroke-width="2" points="730.82,-428.56 725.55,-437.75 735.4,-433.86 730.82,-428.56"/>
</g>
<!-- node15&#45;&gt;node17 -->
<g id="edge37" class="edge">
<title>node15&#45;&gt;node17</title>
<path fill="none" stroke="black" stroke-dasharray="1,5" d="M752.62,-145.81C751.78,-137.79 751.55,-128.05 751.92,-119.07"/>
<polygon fill="black" stroke="black" points="755.42,-119.25 752.64,-109.03 748.44,-118.75 755.42,-119.25"/>
</g>
<!-- node15&#45;&gt;node18 -->
<g id="edge43" class="edge">
<title>node15&#45;&gt;node18</title>
<path fill="none" stroke="red" d="M828.19,-145.92C848.35,-137.8 868.63,-126.01 882.5,-109 896.81,-91.46 901.09,-65.75 902.07,-46.29"/>
<polygon fill="red" stroke="red" points="905.57,-46.3 902.32,-36.22 898.58,-46.13 905.57,-46.3"/>
</g>
<!-- node16&#45;&gt;node10 -->
<g id="edge34" class="edge">
<title>node16&#45;&gt;node10</title>
<path fill="none" stroke="fuchsia" stroke-width="2" d="M616.36,-255.03C617.21,-263.03 617.45,-272.77 617.09,-281.75"/>
<polygon fill="fuchsia" stroke="fuchsia" stroke-width="2" points="613.59,-281.59 616.38,-291.81 620.57,-282.08 613.59,-281.59"/>
</g>
<!-- node16&#45;&gt;node17 -->
<g id="edge40" class="edge">
<title>node16&#45;&gt;node17</title>
<path fill="none" stroke="blue" d="M707.99,-226.1C858.56,-210.78 1130.62,-182.98 1131.5,-182 1142.21,-170.12 1141.97,-158.1 1131.5,-146 1114.59,-126.46 976.48,-110.47 873.22,-101.09"/>
<polygon fill="blue" stroke="blue" points="873.3,-97.59 863.02,-100.18 872.67,-104.56 873.3,-97.59"/>
<text text-anchor="middle" x="881.83" y="-89.68" font-family="Times,serif" font-size="14.00">if #10</text>
</g>
<!-- node17&#45;&gt;node15 -->
<g id="edge36" class="edge">
<title>node17&#45;&gt;node15</title>
<path fill="none" stroke="fuchsia" stroke-width="2" d="M764.36,-109.03C765.21,-117.03 765.45,-126.77 765.09,-135.75"/>
<polygon fill="fuchsia" stroke="fuchsia" stroke-width="2" points="761.59,-135.59 764.38,-145.81 768.57,-136.08 761.59,-135.59"/>
</g>
<!-- node17&#45;&gt;node18 -->
<g id="edge42" class="edge">
<title>node17&#45;&gt;node18</title>
<path fill="none" stroke="black" d="M792.75,-72.99C812.33,-63.27 837.08,-50.99 858.02,-40.59"/>
<polygon fill="black" stroke="black" points="859.63,-43.7 867.03,-36.11 856.52,-37.43 859.63,-43.7"/>
<text text-anchor="middle" x="854.56" y="-48.04" font-family="Times,serif" font-size="14.00">*0</text>
</g>
<!-- node18&#45;&gt;node0 -->
<g id="edge41" class="edge">
<title>node18&#45;&gt;node0</title>
<path fill="none" stroke="fuchsia" stroke-width="2" d="M980.63,-36.12C1098.1,-66.61 1298.52,-138.33 1239.5,-255 1234.72,-264.44 1004.42,-500.97 795.5,-566 772.18,-573.26 746.47,-579.64 722.37,-584.9"/>
<polygon fill="fuchsia" stroke="fuchsia" stroke-width="2" points="721.56,-581.5 712.51,-587.01 723.02,-588.34 721.56,-581.5"/>
</g>
<!-- c0 -->
<!-- c1 -->
<!-- c0&#45;&gt;c1 -->
<g id="edge45" class="edge">
<title>c0&#45;&gt;c1</title>
<path fill="none" stroke="red" d="M1581.39,-602C1592.61,-602 1650.74,-602 1676.36,-602"/>
<polygon fill="red" stroke="red" points="1676.56,-605.5 1686.56,-602 1676.56,-598.5 1676.56,-605.5"/>
<text text-anchor="middle" x="1634" y="-608.8" font-family="Times,serif" font-size="14.00">Control flow</text>
</g>
<!-- c2 -->
<!-- c3 -->
<!-- c2&#45;&gt;c3 -->
<g id="edge46" class="edge">
<title>c2&#45;&gt;c3</title>
<path fill="none" stroke="red" stroke-dasharray="5,2" d="M1374.58,-602C1391.55,-602 1507.71,-602 1545.58,-602"/>
<polygon fill="red" stroke="red" points="1545.67,-605.5 1555.67,-602 1545.67,-598.5 1545.67,-605.5"/>
<text text-anchor="middle" x="1465" y="-608.8" font-family="Times,serif" font-size="14.00">Control flow back edge</text>
</g>
<!-- d0 -->
<!-- d1 -->
<!-- d0&#45;&gt;d1 -->
<g id="edge47" class="edge">
<title>d0&#45;&gt;d1</title>
<path fill="none" stroke="black" d="M1263.36,-602C1272.91,-602 1316.81,-602 1338.42,-602"/>
<polygon fill="black" stroke="black" points="1338.65,-605.5 1348.65,-602 1338.65,-598.5 1338.65,-605.5"/>
<text text-anchor="middle" x="1306" y="-608.8" font-family="Times,serif" font-size="14.00">Data flow</text>
</g>
<!-- d2 -->
<!-- d3 -->
<!-- d2&#45;&gt;d3 -->
<g id="edge48" class="edge">
<title>d2&#45;&gt;d3</title>
<path fill="none" stroke="black" stroke-dasharray="1,5" d="M1137.31,-602C1147.96,-602 1202.96,-602 1227.58,-602"/>
<polygon fill="black" stroke="black" points="1227.65,-605.5 1237.65,-602 1227.65,-598.5 1227.65,-605.5"/>
<text text-anchor="middle" x="1187.5" y="-608.8" font-family="Times,serif" font-size="14.00">Declaration</text>
</g>
<!-- d4 -->
<!-- d5 -->
<!-- d4&#45;&gt;d5 -->
<g id="edge49" class="edge">
<title>d4&#45;&gt;d5</title>
<path fill="none" stroke="blue" d="M994.6,-602C1007.22,-602 1073.38,-602 1101.18,-602"/>
<polygon fill="blue" stroke="blue" points="1101.34,-605.5 1111.34,-602 1101.34,-598.5 1101.34,-605.5"/>
<text text-anchor="middle" x="1053" y="-608.8" font-family="Times,serif" font-size="14.00">PHI Data flow</text>
</g>
<!-- d6 -->
<!-- d7 -->
<!-- d6&#45;&gt;d7 -->
<g id="edge50" class="edge">
<title>d6&#45;&gt;d7</title>
<path fill="none" stroke="green" d="M857.5,-602C869.44,-602 931.8,-602 958.43,-602"/>
<polygon fill="green" stroke="green" points="958.45,-605.5 968.45,-602 958.45,-598.5 958.45,-605.5"/>
<text text-anchor="middle" x="913" y="-608.8" font-family="Times,serif" font-size="14.00">Memory flow</text>
</g>
<!-- d8 -->
<!-- d9 -->
<!-- d8&#45;&gt;d9 -->
<g id="edge51" class="edge">
<title>d8&#45;&gt;d9</title>
<path fill="none" stroke="fuchsia" d="M734.61,-602C745.65,-602 797.17,-602 821.16,-602"/>
<polygon fill="fuchsia" stroke="fuchsia" points="821.4,-605.5 831.4,-602 821.4,-598.5 821.4,-605.5"/>
<text text-anchor="middle" x="783" y="-608.8" font-family="Times,serif" font-size="14.00">Dominance</text>
</g>
</g>
</svg>
