<?xml version="1.0" encoding="UTF-8" standalone="no"?>
<!DOCTYPE svg PUBLIC "-//W3C//DTD SVG 1.1//EN"
 "http://www.w3.org/Graphics/SVG/1.1/DTD/svg11.dtd">
<!-- Generated by graphviz version 2.43.0 (0)
 -->
<!-- Title: debugoutput Pages: 1 -->
<svg width="1830pt" height="432pt"
 viewBox="0.00 0.00 1829.97 431.80" xmlns="http://www.w3.org/2000/svg" xmlns:xlink="http://www.w3.org/1999/xlink">
<g id="graph0" class="graph" transform="scale(1 1) rotate(0) translate(4 427.8)">
<title>debugoutput</title>
<polygon fill="white" stroke="transparent" points="-4,4 -4,-427.8 1825.97,-427.8 1825.97,4 -4,4"/>
<g id="clust1" class="cluster">
<title>cluster_000</title>
<polygon fill="none" stroke="black" points="974.97,-373.2 974.97,-415.8 1813.97,-415.8 1813.97,-373.2 974.97,-373.2"/>
<text text-anchor="middle" x="1394.47" y="-400.6" font-family="Times,serif" font-size="14.00">Legend</text>
</g>
<!-- node0 -->
<g id="node1" class="node">
<title>node0</title>
<polygon fill="lightgrey" stroke="black" points="964.97,-401 798.97,-401 798.97,-365 964.97,-365 964.97,-401"/>
<text text-anchor="middle" x="881.97" y="-379.3" font-family="Times,serif" font-size="14.00">#0 Method Order : 0</text>
</g>
<!-- node1 -->
<g id="node2" class="node">
<title>node1</title>
<polygon fill="lightgrey" stroke="black" points="970.47,-328 793.47,-328 793.47,-292 970.47,-292 970.47,-328"/>
<text text-anchor="middle" x="881.97" y="-306.3" font-family="Times,serif" font-size="14.00">#1 arg0 : int Order : 6</text>
</g>
<!-- node0&#45;&gt;node1 -->
<g id="edge2" class="edge">
<title>node0&#45;&gt;node1</title>
<path fill="none" stroke="black" d="M876.09,-364.81C875.25,-356.79 875.01,-347.05 875.39,-338.07"/>
<polygon fill="black" stroke="black" points="878.88,-338.25 876.1,-328.03 871.9,-337.75 878.88,-338.25"/>
<text text-anchor="middle" x="883.25" y="-343.01" font-family="Times,serif" font-size="14.00">*0</text>
</g>
<!-- node2 -->
<g id="node3" class="node">
<title>node2</title>
<polygon fill="lightgrey" stroke="black" points="1610.47,-328 1345.47,-328 1345.47,-292 1610.47,-292 1610.47,-328"/>
<text text-anchor="middle" x="1477.97" y="-306.3" font-family="Times,serif" font-size="14.00">#2 this : SwitchCaseTest Order : 5</text>
</g>
<!-- node0&#45;&gt;node2 -->
<g id="edge4" class="edge">
<title>node0&#45;&gt;node2</title>
<path fill="none" stroke="black" d="M962.44,-364.93C1123.83,-341.43 1165.62,-345.99 1327.97,-328 1330.34,-327.74 1332.74,-327.47 1335.16,-327.2"/>
<polygon fill="black" stroke="black" points="1335.65,-330.66 1345.19,-326.06 1334.86,-323.71 1335.65,-330.66"/>
<text text-anchor="middle" x="1328.13" y="-332.8" font-family="Times,serif" font-size="14.00">*0</text>
</g>
<!-- node3 -->
<g id="node4" class="node">
<title>node3</title>
<polygon fill="lightgrey" stroke="black" points="737.97,-328 549.97,-328 549.97,-292 737.97,-292 737.97,-328"/>
<text text-anchor="middle" x="643.97" y="-306.3" font-family="Times,serif" font-size="14.00">#3 LabelNode Order : 4</text>
</g>
<!-- node0&#45;&gt;node3 -->
<g id="edge6" class="edge">
<title>node0&#45;&gt;node3</title>
<path fill="none" stroke="red" d="M807.04,-364.94C786.14,-359.46 763.56,-353.2 742.97,-347 726.9,-342.16 709.62,-336.58 694.01,-331.27"/>
<polygon fill="red" stroke="red" points="695.14,-327.96 684.54,-328.01 692.86,-334.57 695.14,-327.96"/>
</g>
<!-- node4 -->
<g id="node5" class="node">
<title>node4</title>
<polygon fill="lightgreen" stroke="black" points="1327.9,-302.54 1327.9,-317.46 1261.16,-328 1166.77,-328 1100.03,-317.46 1100.03,-302.54 1166.77,-292 1261.16,-292 1327.9,-302.54"/>
<text text-anchor="middle" x="1213.97" y="-306.3" font-family="Times,serif" font-size="14.00">#4 int 100 Order : 3</text>
</g>
<!-- node0&#45;&gt;node4 -->
<g id="edge8" class="edge">
<title>node0&#45;&gt;node4</title>
<path fill="none" stroke="black" stroke-dasharray="1,5" d="M962.26,-364.95C1012.99,-356.15 1026.52,-358 1076.97,-347 1099.76,-342.03 1124.5,-335.37 1146.65,-329.14"/>
<polygon fill="black" stroke="black" points="1147.64,-332.5 1156.3,-326.4 1145.73,-325.76 1147.64,-332.5"/>
</g>
<!-- node5 -->
<g id="node6" class="node">
<title>node5</title>
<polygon fill="lightgreen" stroke="black" points="531.9,-302.54 531.9,-317.46 465.16,-328 370.77,-328 304.03,-317.46 304.03,-302.54 370.77,-292 465.16,-292 531.9,-302.54"/>
<text text-anchor="middle" x="417.97" y="-306.3" font-family="Times,serif" font-size="14.00">#5 int 200 Order : 2</text>
</g>
<!-- node0&#45;&gt;node5 -->
<g id="edge10" class="edge">
<title>node0&#45;&gt;node5</title>
<path fill="none" stroke="black" stroke-dasharray="1,5" d="M798.84,-370.08C715.65,-357.65 588.31,-338.18 504.08,-325.02"/>
<polygon fill="black" stroke="black" points="504.44,-321.53 494.02,-323.45 503.36,-328.45 504.44,-321.53"/>
</g>
<!-- node6 -->
<g id="node7" class="node">
<title>node6</title>
<polygon fill="lightgreen" stroke="black" points="227.9,-302.54 227.9,-317.46 161.16,-328 66.77,-328 0.03,-317.46 0.03,-302.54 66.77,-292 161.16,-292 227.9,-302.54"/>
<text text-anchor="middle" x="113.97" y="-306.3" font-family="Times,serif" font-size="14.00">#6 int 300 Order : 1</text>
</g>
<!-- node0&#45;&gt;node6 -->
<g id="edge12" class="edge">
<title>node0&#45;&gt;node6</title>
<path fill="none" stroke="black" stroke-dasharray="1,5" d="M798.87,-379.88C648.87,-375.54 338.9,-364.57 232.97,-347 210.75,-343.31 186.89,-337.21 166.35,-331.07"/>
<polygon fill="black" stroke="black" points="167.14,-327.65 156.55,-328.06 165.08,-334.34 167.14,-327.65"/>
</g>
<!-- node12 -->
<g id="node13" class="node">
<title>node12</title>
<polygon fill="lightgrey" stroke="black" points="374.47,-36 123.47,-36 123.47,0 374.47,0 374.47,-36"/>
<text text-anchor="middle" x="248.97" y="-14.3" font-family="Times,serif" font-size="14.00">#12 ReturnValue : int Order : 16</text>
</g>
<!-- node0&#45;&gt;node12 -->
<g id="edge27" class="edge">
<title>node0&#45;&gt;node12</title>
<path fill="none" stroke="black" d="M798.68,-379.42C644.14,-373.8 325.38,-358.43 285.97,-328 238.45,-291.31 239.97,-261.03 239.97,-201 239.97,-201 239.97,-201 239.97,-90 239.97,-75.65 239.97,-59.67 240.81,-46.51"/>
<polygon fill="black" stroke="black" points="244.33,-46.49 241.74,-36.22 237.36,-45.86 244.33,-46.49"/>
</g>
<!-- node14 -->
<g id="node15" class="node">
<title>node14</title>
<polygon fill="lightgrey" stroke="black" points="848.47,-36 597.47,-36 597.47,0 848.47,0 848.47,-36"/>
<text text-anchor="middle" x="722.97" y="-14.3" font-family="Times,serif" font-size="14.00">#14 ReturnValue : int Order : 13</text>
</g>
<!-- node0&#45;&gt;node14 -->
<g id="edge33" class="edge">
<title>node0&#45;&gt;node14</title>
<path fill="none" stroke="black" d="M951.37,-364.98C976.13,-354.49 997.97,-337.7 997.97,-311 997.97,-311 997.97,-311 997.97,-127 997.97,-99.97 991.48,-89.36 969.97,-73 950.73,-58.37 903.25,-46.57 854.97,-37.78"/>
<polygon fill="black" stroke="black" points="855.45,-34.31 844.99,-36.01 854.23,-41.2 855.45,-34.31"/>
</g>
<!-- node16 -->
<g id="node17" class="node">
<title>node16</title>
<polygon fill="lightgrey" stroke="black" points="1188.47,-36 937.47,-36 937.47,0 1188.47,0 1188.47,-36"/>
<text text-anchor="middle" x="1062.97" y="-14.3" font-family="Times,serif" font-size="14.00">#16 ReturnValue : int Order : 10</text>
</g>
<!-- node0&#45;&gt;node16 -->
<g id="edge39" class="edge">
<title>node0&#45;&gt;node16</title>
<path fill="none" stroke="black" d="M956.34,-364.95C1002.88,-352.56 1053.97,-333.95 1053.97,-311 1053.97,-311 1053.97,-311 1053.97,-90 1053.97,-75.65 1053.97,-59.67 1054.81,-46.51"/>
<polygon fill="black" stroke="black" points="1058.33,-46.49 1055.74,-36.22 1051.36,-45.86 1058.33,-46.49"/>
</g>
<!-- node1&#45;&gt;node0 -->
<g id="edge1" class="edge">
<title>node1&#45;&gt;node0</title>
<path fill="none" stroke="green" stroke-width="2" d="M887.83,-328.03C888.67,-336.03 888.92,-345.77 888.55,-354.75"/>
<polygon fill="green" stroke="green" stroke-width="2" points="885.05,-354.59 887.84,-364.81 892.04,-355.08 885.05,-354.59"/>
</g>
<!-- node7 -->
<g id="node8" class="node">
<title>node7</title>
<polygon fill="lightgrey" stroke="black" points="756.97,-255 544.97,-255 544.97,-219 756.97,-219 756.97,-255"/>
<text text-anchor="middle" x="650.97" y="-233.3" font-family="Times,serif" font-size="14.00">#7 LookupSwitch Order : 7</text>
</g>
<!-- node1&#45;&gt;node7 -->
<g id="edge14" class="edge">
<title>node1&#45;&gt;node7</title>
<path fill="none" stroke="black" d="M836,-291.96C818.55,-285.71 798.43,-278.76 779.97,-273 763.11,-267.75 744.89,-262.53 727.59,-257.78"/>
<polygon fill="black" stroke="black" points="728.1,-254.29 717.53,-255.05 726.26,-261.05 728.1,-254.29"/>
<text text-anchor="middle" x="737.24" y="-247.95" font-family="Times,serif" font-size="14.00">*0</text>
</g>
<!-- node2&#45;&gt;node0 -->
<g id="edge3" class="edge">
<title>node2&#45;&gt;node0</title>
<path fill="none" stroke="green" stroke-width="2" d="M1345.49,-328.05C1183.38,-346 1141.59,-341.44 979.97,-365 978.46,-365.22 976.94,-365.45 975.4,-365.68"/>
<polygon fill="green" stroke="green" stroke-width="2" points="974.49,-362.28 965.17,-367.32 975.59,-369.2 974.49,-362.28"/>
</g>
<!-- node3&#45;&gt;node0 -->
<g id="edge5" class="edge">
<title>node3&#45;&gt;node0</title>
<path fill="none" stroke="green" stroke-width="2" d="M701.39,-328.01C720.39,-334.23 741.57,-341.16 760.97,-347 778.18,-352.18 796.78,-357.41 814.14,-362.19"/>
<polygon fill="green" stroke="green" stroke-width="2" points="813.63,-365.67 824.2,-364.94 815.48,-358.92 813.63,-365.67"/>
</g>
<!-- node3&#45;&gt;node7 -->
<g id="edge15" class="edge">
<title>node3&#45;&gt;node7</title>
<path fill="none" stroke="red" d="M645.66,-291.81C646.45,-283.79 647.41,-274.05 648.3,-265.07"/>
<polygon fill="red" stroke="red" points="651.79,-265.32 649.29,-255.03 644.82,-264.64 651.79,-265.32"/>
</g>
<!-- node4&#45;&gt;node0 -->
<g id="edge7" class="edge">
<title>node4&#45;&gt;node0</title>
<path fill="none" stroke="green" stroke-width="2" d="M1167.23,-328.04C1145.42,-334.58 1119.1,-341.74 1094.97,-347 1044.42,-358.02 1030.94,-356.15 979.97,-365 978.46,-365.26 976.95,-365.53 975.42,-365.8"/>
<polygon fill="green" stroke="green" stroke-width="2" points="974.44,-362.42 965.22,-367.62 975.68,-369.31 974.44,-362.42"/>
</g>
<!-- node4&#45;&gt;node16 -->
<g id="edge37" class="edge">
<title>node4&#45;&gt;node16</title>
<path fill="none" stroke="black" d="M1191.91,-291.93C1177.74,-278.89 1161.97,-259.54 1161.97,-238 1161.97,-238 1161.97,-238 1161.97,-90 1161.97,-67.71 1145.18,-51.74 1125.44,-40.66"/>
<polygon fill="black" stroke="black" points="1127.01,-37.53 1116.52,-36.06 1123.8,-43.75 1127.01,-37.53"/>
<text text-anchor="middle" x="1136.51" y="-33.16" font-family="Times,serif" font-size="14.00">*0</text>
</g>
<!-- node5&#45;&gt;node0 -->
<g id="edge9" class="edge">
<title>node5&#45;&gt;node0</title>
<path fill="none" stroke="green" stroke-width="2" d="M499.16,-322.64C580.06,-334.72 704.04,-353.66 788.88,-366.89"/>
<polygon fill="green" stroke="green" stroke-width="2" points="788.35,-370.35 798.77,-368.44 789.43,-363.44 788.35,-370.35"/>
</g>
<!-- node5&#45;&gt;node14 -->
<g id="edge31" class="edge">
<title>node5&#45;&gt;node14</title>
<path fill="none" stroke="black" d="M351.25,-295.07C322.77,-284.85 295.97,-267.41 295.97,-238 295.97,-238 295.97,-238 295.97,-127 295.97,-101.56 295.22,-89.04 314.97,-73 355.86,-39.79 485.02,-26.92 587.19,-21.98"/>
<polygon fill="black" stroke="black" points="587.48,-25.47 597.31,-21.51 587.15,-18.48 587.48,-25.47"/>
<text text-anchor="middle" x="579.59" y="-27.09" font-family="Times,serif" font-size="14.00">*0</text>
</g>
<!-- node6&#45;&gt;node0 -->
<g id="edge11" class="edge">
<title>node6&#45;&gt;node0</title>
<path fill="none" stroke="green" stroke-width="2" d="M168.89,-326.85C193.81,-334.27 223.64,-342.47 250.97,-347 352.11,-363.78 639.23,-374.54 788.84,-379.25"/>
<polygon fill="green" stroke="green" stroke-width="2" points="788.83,-382.75 798.93,-379.56 789.05,-375.75 788.83,-382.75"/>
</g>
<!-- node6&#45;&gt;node12 -->
<g id="edge25" class="edge">
<title>node6&#45;&gt;node12</title>
<path fill="none" stroke="black" d="M132.53,-291.91C144.92,-278.58 158.97,-258.87 158.97,-238 158.97,-238 158.97,-238 158.97,-90 158.97,-68.44 175.09,-52.41 193.68,-41.09"/>
<polygon fill="black" stroke="black" points="195.64,-44.01 202.65,-36.07 192.21,-37.9 195.64,-44.01"/>
<text text-anchor="middle" x="190.97" y="-48.6" font-family="Times,serif" font-size="14.00">*0</text>
</g>
<!-- node7&#45;&gt;node0 -->
<g id="edge13" class="edge">
<title>node7&#45;&gt;node0</title>
<path fill="none" stroke="green" stroke-width="2" d="M686.52,-255.18C705.23,-264.9 728.13,-277.92 746.97,-292 765.34,-305.74 765.53,-314.34 783.97,-328 800.16,-340 819.34,-351.15 836.41,-360.16"/>
<polygon fill="green" stroke="green" stroke-width="2" points="835.15,-363.45 845.64,-364.94 838.37,-357.23 835.15,-363.45"/>
</g>
<!-- node8 -->
<g id="node9" class="node">
<title>node8</title>
<polygon fill="lightgrey" stroke="black" points="531.97,-182 361.97,-182 361.97,-146 531.97,-146 531.97,-182"/>
<text text-anchor="middle" x="446.97" y="-160.3" font-family="Times,serif" font-size="14.00">#8 default Order : 14</text>
</g>
<!-- node7&#45;&gt;node8 -->
<g id="edge17" class="edge">
<title>node7&#45;&gt;node8</title>
<path fill="none" stroke="red" d="M596.24,-218.99C566.37,-208.97 529.61,-196.21 500.01,-185.62"/>
<polygon fill="red" stroke="red" points="500.86,-182.2 490.27,-182.11 498.49,-188.79 500.86,-182.2"/>
</g>
<!-- node9 -->
<g id="node10" class="node">
<title>node9</title>
<polygon fill="lightgrey" stroke="black" points="731.47,-182 570.47,-182 570.47,-146 731.47,-146 731.47,-182"/>
<text text-anchor="middle" x="650.97" y="-160.3" font-family="Times,serif" font-size="14.00">#9 case1 Order : 11</text>
</g>
<!-- node7&#45;&gt;node9 -->
<g id="edge19" class="edge">
<title>node7&#45;&gt;node9</title>
<path fill="none" stroke="red" d="M645.09,-218.81C644.25,-210.79 644.01,-201.05 644.39,-192.07"/>
<polygon fill="red" stroke="red" points="647.88,-192.25 645.1,-182.03 640.9,-191.75 647.88,-192.25"/>
</g>
<!-- node10 -->
<g id="node11" class="node">
<title>node10</title>
<polygon fill="lightgrey" stroke="black" points="921.47,-182 760.47,-182 760.47,-146 921.47,-146 921.47,-182"/>
<text text-anchor="middle" x="840.97" y="-160.3" font-family="Times,serif" font-size="14.00">#10 case0 Order : 8</text>
</g>
<!-- node7&#45;&gt;node10 -->
<g id="edge21" class="edge">
<title>node7&#45;&gt;node10</title>
<path fill="none" stroke="red" d="M690.62,-218.99C716.38,-208.97 750.4,-196.21 779.6,-185.62"/>
<polygon fill="red" stroke="red" points="781.08,-188.8 789.3,-182.11 778.7,-182.22 781.08,-188.8"/>
</g>
<!-- node8&#45;&gt;node7 -->
<g id="edge16" class="edge">
<title>node8&#45;&gt;node7</title>
<path fill="none" stroke="green" stroke-width="2" d="M502.01,-182.11C531.93,-192.16 568.69,-204.92 598.24,-215.5"/>
<polygon fill="green" stroke="green" stroke-width="2" points="597.37,-218.9 607.96,-218.99 599.74,-212.32 597.37,-218.9"/>
</g>
<!-- node11 -->
<g id="node12" class="node">
<title>node11</title>
<polygon fill="lightgrey" stroke="black" points="529.97,-109 323.97,-109 323.97,-73 529.97,-73 529.97,-109"/>
<text text-anchor="middle" x="426.97" y="-87.3" font-family="Times,serif" font-size="14.00">#11 LabelNode Order : 15</text>
</g>
<!-- node8&#45;&gt;node11 -->
<g id="edge23" class="edge">
<title>node8&#45;&gt;node11</title>
<path fill="none" stroke="red" d="M436.25,-145.81C433.15,-137.79 430.17,-128.05 428.01,-119.07"/>
<polygon fill="red" stroke="red" points="431.38,-118.09 425.9,-109.03 424.53,-119.54 431.38,-118.09"/>
</g>
<!-- node9&#45;&gt;node7 -->
<g id="edge18" class="edge">
<title>node9&#45;&gt;node7</title>
<path fill="none" stroke="green" stroke-width="2" d="M656.83,-182.03C657.67,-190.03 657.92,-199.77 657.55,-208.75"/>
<polygon fill="green" stroke="green" stroke-width="2" points="654.05,-208.59 656.84,-218.81 661.04,-209.08 654.05,-208.59"/>
</g>
<!-- node13 -->
<g id="node14" class="node">
<title>node13</title>
<polygon fill="lightgrey" stroke="black" points="753.97,-109 547.97,-109 547.97,-73 753.97,-73 753.97,-109"/>
<text text-anchor="middle" x="650.97" y="-87.3" font-family="Times,serif" font-size="14.00">#13 LabelNode Order : 12</text>
</g>
<!-- node9&#45;&gt;node13 -->
<g id="edge29" class="edge">
<title>node9&#45;&gt;node13</title>
<path fill="none" stroke="red" d="M645.09,-145.81C644.25,-137.79 644.01,-128.05 644.39,-119.07"/>
<polygon fill="red" stroke="red" points="647.88,-119.25 645.1,-109.03 640.9,-118.75 647.88,-119.25"/>
</g>
<!-- node10&#45;&gt;node7 -->
<g id="edge20" class="edge">
<title>node10&#45;&gt;node7</title>
<path fill="none" stroke="green" stroke-width="2" d="M801.04,-182.11C775.22,-192.16 741.18,-204.92 712.02,-215.5"/>
<polygon fill="green" stroke="green" stroke-width="2" points="710.55,-212.3 702.33,-218.99 712.93,-218.89 710.55,-212.3"/>
</g>
<!-- node15 -->
<g id="node16" class="node">
<title>node15</title>
<polygon fill="lightgrey" stroke="black" points="969.47,-109 772.47,-109 772.47,-73 969.47,-73 969.47,-109"/>
<text text-anchor="middle" x="870.97" y="-87.3" font-family="Times,serif" font-size="14.00">#15 LabelNode Order : 9</text>
</g>
<!-- node10&#45;&gt;node15 -->
<g id="edge35" class="edge">
<title>node10&#45;&gt;node15</title>
<path fill="none" stroke="red" d="M842.35,-145.81C844.98,-137.53 849.04,-127.41 853.36,-118.19"/>
<polygon fill="red" stroke="red" points="856.6,-119.54 857.91,-109.03 850.33,-116.43 856.6,-119.54"/>
</g>
<!-- node11&#45;&gt;node8 -->
<g id="edge22" class="edge">
<title>node11&#45;&gt;node8</title>
<path fill="none" stroke="green" stroke-width="2" d="M437.62,-109.03C440.73,-117.03 443.71,-126.77 445.88,-135.75"/>
<polygon fill="green" stroke="green" stroke-width="2" points="442.51,-136.75 448,-145.81 449.36,-135.31 442.51,-136.75"/>
</g>
<!-- node11&#45;&gt;node12 -->
<g id="edge26" class="edge">
<title>node11&#45;&gt;node12</title>
<path fill="none" stroke="red" d="M384.33,-72.99C359.41,-63.06 327.77,-50.43 301.35,-39.89"/>
<polygon fill="red" stroke="red" points="302.46,-36.57 291.87,-36.11 299.86,-43.07 302.46,-36.57"/>
</g>
<!-- node12&#45;&gt;node0 -->
<g id="edge24" class="edge">
<title>node12&#45;&gt;node0</title>
<path fill="none" stroke="green" stroke-width="2" d="M256.19,-36.22C257.97,-50.59 257.97,-71.63 257.97,-90 257.97,-201 257.97,-201 257.97,-201 257.97,-261.03 256.45,-291.31 303.97,-328 341.65,-357.1 634.75,-372.43 788.54,-378.63"/>
<polygon fill="green" stroke="green" stroke-width="2" points="788.79,-382.14 798.92,-379.04 789.07,-375.15 788.79,-382.14"/>
</g>
<!-- node13&#45;&gt;node9 -->
<g id="edge28" class="edge">
<title>node13&#45;&gt;node9</title>
<path fill="none" stroke="green" stroke-width="2" d="M656.83,-109.03C657.67,-117.03 657.92,-126.77 657.55,-135.75"/>
<polygon fill="green" stroke="green" stroke-width="2" points="654.05,-135.59 656.84,-145.81 661.04,-136.08 654.05,-135.59"/>
</g>
<!-- node13&#45;&gt;node14 -->
<g id="edge32" class="edge">
<title>node13&#45;&gt;node14</title>
<path fill="none" stroke="red" d="M668.39,-72.81C677.42,-63.92 688.58,-52.91 698.45,-43.17"/>
<polygon fill="red" stroke="red" points="701.03,-45.54 705.7,-36.03 696.12,-40.56 701.03,-45.54"/>
</g>
<!-- node14&#45;&gt;node0 -->
<g id="edge30" class="edge">
<title>node14&#45;&gt;node0</title>
<path fill="none" stroke="green" stroke-width="2" d="M848.81,-33.94C906.01,-43.02 965.78,-56.12 987.97,-73 1009.48,-89.36 1015.97,-99.97 1015.97,-127 1015.97,-311 1015.97,-311 1015.97,-311 1015.97,-335.46 997.65,-351.59 974.54,-362.2"/>
<polygon fill="green" stroke="green" stroke-width="2" points="972.99,-359.05 965.11,-366.13 975.69,-365.51 972.99,-359.05"/>
</g>
<!-- node15&#45;&gt;node10 -->
<g id="edge34" class="edge">
<title>node15&#45;&gt;node10</title>
<path fill="none" stroke="green" stroke-width="2" d="M869.63,-109.03C867.02,-117.29 862.97,-127.4 858.66,-136.63"/>
<polygon fill="green" stroke="green" stroke-width="2" points="855.41,-135.3 854.11,-145.81 861.68,-138.41 855.41,-135.3"/>
</g>
<!-- node15&#45;&gt;node16 -->
<g id="edge38" class="edge">
<title>node15&#45;&gt;node16</title>
<path fill="none" stroke="red" d="M916.95,-72.99C944.07,-62.97 978.56,-50.21 1007.21,-39.62"/>
<polygon fill="red" stroke="red" points="1008.52,-42.86 1016.69,-36.11 1006.09,-36.3 1008.52,-42.86"/>
</g>
<!-- node16&#45;&gt;node0 -->
<g id="edge36" class="edge">
<title>node16&#45;&gt;node0</title>
<path fill="none" stroke="green" stroke-width="2" d="M1070.19,-36.22C1071.97,-50.59 1071.97,-71.63 1071.97,-90 1071.97,-311 1071.97,-311 1071.97,-311 1071.97,-333.42 1023.22,-351.69 975.07,-364.08"/>
<polygon fill="green" stroke="green" stroke-width="2" points="974,-360.74 965.14,-366.56 975.69,-367.53 974,-360.74"/>
</g>
<!-- c0 -->
<!-- c1 -->
<!-- c0&#45;&gt;c1 -->
<g id="edge40" class="edge">
<title>c0&#45;&gt;c1</title>
<path fill="none" stroke="red" d="M1696.86,-383C1708.07,-383 1766.21,-383 1791.82,-383"/>
<polygon fill="red" stroke="red" points="1792.02,-386.5 1802.02,-383 1792.02,-379.5 1792.02,-386.5"/>
<text text-anchor="middle" x="1749.47" y="-389.8" font-family="Times,serif" font-size="14.00">Control flow</text>
</g>
<!-- c2 -->
<!-- c3 -->
<!-- c2&#45;&gt;c3 -->
<g id="edge41" class="edge">
<title>c2&#45;&gt;c3</title>
<path fill="none" stroke="red" stroke-dasharray="5,2" d="M1490.04,-383C1507.01,-383 1623.17,-383 1661.05,-383"/>
<polygon fill="red" stroke="red" points="1661.13,-386.5 1671.13,-383 1661.13,-379.5 1661.13,-386.5"/>
<text text-anchor="middle" x="1580.47" y="-389.8" font-family="Times,serif" font-size="14.00">Control flow back edge</text>
</g>
<!-- d0 -->
<!-- d1 -->
<!-- d0&#45;&gt;d1 -->
<g id="edge42" class="edge">
<title>d0&#45;&gt;d1</title>
<path fill="none" stroke="black" d="M1378.82,-383C1388.37,-383 1432.27,-383 1453.88,-383"/>
<polygon fill="black" stroke="black" points="1454.12,-386.5 1464.12,-383 1454.12,-379.5 1454.12,-386.5"/>
<text text-anchor="middle" x="1421.47" y="-389.8" font-family="Times,serif" font-size="14.00">Data flow</text>
</g>
<!-- d2 -->
<!-- d3 -->
<!-- d2&#45;&gt;d3 -->
<g id="edge43" class="edge">
<title>d2&#45;&gt;d3</title>
<path fill="none" stroke="black" stroke-dasharray="1,5" d="M1252.77,-383C1263.42,-383 1318.43,-383 1343.04,-383"/>
<polygon fill="black" stroke="black" points="1343.11,-386.5 1353.11,-383 1343.11,-379.5 1343.11,-386.5"/>
<text text-anchor="middle" x="1302.97" y="-389.8" font-family="Times,serif" font-size="14.00">Declaration</text>
</g>
<!-- d4 -->
<!-- d5 -->
<!-- d4&#45;&gt;d5 -->
<g id="edge44" class="edge">
<title>d4&#45;&gt;d5</title>
<path fill="none" stroke="blue" d="M1110.07,-383C1122.69,-383 1188.85,-383 1216.65,-383"/>
<polygon fill="blue" stroke="blue" points="1216.81,-386.5 1226.81,-383 1216.81,-379.5 1216.81,-386.5"/>
<text text-anchor="middle" x="1168.47" y="-389.8" font-family="Times,serif" font-size="14.00">PHI Data flow</text>
</g>
<!-- d6 -->
<!-- d7 -->
<!-- d6&#45;&gt;d7 -->
<g id="edge45" class="edge">
<title>d6&#45;&gt;d7</title>
<path fill="none" stroke="green" d="M987.08,-383C998.11,-383 1049.64,-383 1073.62,-383"/>
<polygon fill="green" stroke="green" points="1073.87,-386.5 1083.87,-383 1073.87,-379.5 1073.87,-386.5"/>
<text text-anchor="middle" x="1035.47" y="-389.8" font-family="Times,serif" font-size="14.00">Dominance</text>
</g>
</g>
</svg>
