<?xml version="1.0" encoding="UTF-8" standalone="no"?>
<!DOCTYPE svg PUBLIC "-//W3C//DTD SVG 1.1//EN"
 "http://www.w3.org/Graphics/SVG/1.1/DTD/svg11.dtd">
<!-- Generated by graphviz version 2.43.0 (0)
 -->
<!-- Title: debugoutput Pages: 1 -->
<svg width="1775pt" height="651pt"
 viewBox="0.00 0.00 1774.50 650.80" xmlns="http://www.w3.org/2000/svg" xmlns:xlink="http://www.w3.org/1999/xlink">
<g id="graph0" class="graph" transform="scale(1 1) rotate(0) translate(4 646.8)">
<title>debugoutput</title>
<polygon fill="white" stroke="transparent" points="-4,4 -4,-646.8 1770.5,-646.8 1770.5,4 -4,4"/>
<g id="clust1" class="cluster">
<title>cluster_000</title>
<polygon fill="none" stroke="black" points="782.5,-592.2 782.5,-634.8 1758.5,-634.8 1758.5,-592.2 782.5,-592.2"/>
<text text-anchor="middle" x="1270.5" y="-619.6" font-family="Times,serif" font-size="14.00">Legend</text>
</g>
<!-- node0 -->
<g id="node1" class="node">
<title>node0</title>
<polygon fill="lightgrey" stroke="black" points="772.5,-620 606.5,-620 606.5,-584 772.5,-584 772.5,-620"/>
<text text-anchor="middle" x="689.5" y="-598.3" font-family="Times,serif" font-size="14.00">#0 Method Order : 0</text>
</g>
<!-- node1 -->
<g id="node2" class="node">
<title>node1</title>
<polygon fill="lightgrey" stroke="black" points="947,-547 770,-547 770,-511 947,-511 947,-547"/>
<text text-anchor="middle" x="858.5" y="-525.3" font-family="Times,serif" font-size="14.00">#1 arg0 : int Order : 3</text>
</g>
<!-- node0&#45;&gt;node1 -->
<g id="edge2" class="edge">
<title>node0&#45;&gt;node1</title>
<path fill="none" stroke="black" d="M724.12,-583.99C746.72,-574.06 776.65,-561.43 802.55,-550.89"/>
<polygon fill="black" stroke="black" points="803.94,-554.11 811.89,-547.11 801.31,-547.62 803.94,-554.11"/>
<text text-anchor="middle" x="798.26" y="-558.05" font-family="Times,serif" font-size="14.00">*0</text>
</g>
<!-- node2 -->
<g id="node3" class="node">
<title>node2</title>
<polygon fill="lightgrey" stroke="black" points="752,-547 487,-547 487,-511 752,-511 752,-547"/>
<text text-anchor="middle" x="619.5" y="-525.3" font-family="Times,serif" font-size="14.00">#2 this : SwitchCaseTest Order : 2</text>
</g>
<!-- node0&#45;&gt;node2 -->
<g id="edge4" class="edge">
<title>node0&#45;&gt;node2</title>
<path fill="none" stroke="black" d="M666.68,-583.81C657.07,-575 646.15,-564.13 637.16,-554.46"/>
<polygon fill="black" stroke="black" points="639.74,-552.09 630.43,-547.03 634.55,-556.79 639.74,-552.09"/>
<text text-anchor="middle" x="648.86" y="-551.08" font-family="Times,serif" font-size="14.00">*0</text>
</g>
<!-- node3 -->
<g id="node4" class="node">
<title>node3</title>
<polygon fill="lightgrey" stroke="black" points="468.5,-547 280.5,-547 280.5,-511 468.5,-511 468.5,-547"/>
<text text-anchor="middle" x="374.5" y="-525.3" font-family="Times,serif" font-size="14.00">#3 LabelNode Order : 1</text>
</g>
<!-- node0&#45;&gt;node3 -->
<g id="edge6" class="edge">
<title>node0&#45;&gt;node3</title>
<path fill="none" stroke="red" d="M608.19,-583.99C560.78,-573.56 501.27,-560.16 454.15,-549.32"/>
<polygon fill="red" stroke="red" points="454.82,-545.89 444.29,-547.05 453.25,-552.71 454.82,-545.89"/>
</g>
<!-- node18 -->
<g id="node19" class="node">
<title>node18</title>
<polygon fill="lightgrey" stroke="black" points="1161,-36 910,-36 910,0 1161,0 1161,-36"/>
<text text-anchor="middle" x="1035.5" y="-14.3" font-family="Times,serif" font-size="14.00">#18 ReturnValue : int Order : 18</text>
</g>
<!-- node0&#45;&gt;node18 -->
<g id="edge44" class="edge">
<title>node0&#45;&gt;node18</title>
<path fill="none" stroke="green" d="M769.75,-583.95C856.36,-568.31 886.95,-588.86 964.5,-547 1045.53,-503.26 1056.14,-474.58 1111.5,-401 1164.62,-330.39 1221.37,-302.15 1191.5,-219 1164.69,-144.37 1096.63,-77.74 1059.74,-43.44"/>
<polygon fill="green" stroke="green" points="1061.65,-40.44 1051.93,-36.22 1056.9,-45.58 1061.65,-40.44"/>
</g>
<!-- node1&#45;&gt;node0 -->
<g id="edge1" class="edge">
<title>node1&#45;&gt;node0</title>
<path fill="none" stroke="fuchsia" stroke-width="2" d="M823.64,-547.11C800.98,-557.07 771.05,-569.69 745.17,-580.22"/>
<polygon fill="fuchsia" stroke="fuchsia" stroke-width="2" points="743.8,-577 735.84,-583.99 746.42,-583.49 743.8,-577"/>
</g>
<!-- node4 -->
<g id="node5" class="node">
<title>node4</title>
<polygon fill="lightgrey" stroke="black" points="951.5,-474 739.5,-474 739.5,-438 951.5,-438 951.5,-474"/>
<text text-anchor="middle" x="845.5" y="-452.3" font-family="Times,serif" font-size="14.00">#4 LookupSwitch Order : 4</text>
</g>
<!-- node1&#45;&gt;node4 -->
<g id="edge8" class="edge">
<title>node1&#45;&gt;node4</title>
<path fill="none" stroke="black" d="M855.35,-510.81C853.88,-502.79 852.1,-493.05 850.46,-484.07"/>
<polygon fill="black" stroke="black" points="853.86,-483.23 848.62,-474.03 846.98,-484.5 853.86,-483.23"/>
<text text-anchor="middle" x="860.2" y="-486.64" font-family="Times,serif" font-size="14.00">*0</text>
</g>
<!-- node2&#45;&gt;node0 -->
<g id="edge3" class="edge">
<title>node2&#45;&gt;node0</title>
<path fill="none" stroke="fuchsia" stroke-width="2" d="M642.15,-547.03C651.74,-555.81 662.66,-566.69 671.68,-576.37"/>
<polygon fill="fuchsia" stroke="fuchsia" stroke-width="2" points="669.12,-578.76 678.43,-583.81 674.3,-574.06 669.12,-578.76"/>
</g>
<!-- node3&#45;&gt;node0 -->
<g id="edge5" class="edge">
<title>node3&#45;&gt;node0</title>
<path fill="none" stroke="fuchsia" stroke-width="2" d="M456.02,-547.05C503.46,-557.5 562.97,-570.89 610.06,-581.72"/>
<polygon fill="fuchsia" stroke="fuchsia" stroke-width="2" points="609.38,-585.16 619.91,-583.99 610.95,-578.34 609.38,-585.16"/>
</g>
<!-- node3&#45;&gt;node4 -->
<g id="edge9" class="edge">
<title>node3&#45;&gt;node4</title>
<path fill="none" stroke="red" d="M468.51,-512.41C471.54,-511.93 474.55,-511.46 477.5,-511 561.59,-497.89 656.64,-483.97 729.07,-473.54"/>
<polygon fill="red" stroke="red" points="729.74,-476.98 739.14,-472.09 728.74,-470.05 729.74,-476.98"/>
</g>
<!-- node4&#45;&gt;node0 -->
<g id="edge7" class="edge">
<title>node4&#45;&gt;node0</title>
<path fill="none" stroke="fuchsia" stroke-width="2" d="M910.05,-474.12C928.2,-482.23 945.87,-494.01 956.5,-511 964.99,-524.56 966.63,-534.62 956.5,-547 955.06,-548.76 859.23,-567.85 782.79,-582.84"/>
<polygon fill="fuchsia" stroke="fuchsia" stroke-width="2" points="781.76,-579.47 772.62,-584.83 783.11,-586.34 781.76,-579.47"/>
</g>
<!-- node5 -->
<g id="node6" class="node">
<title>node5</title>
<polygon fill="lightgrey" stroke="black" points="1111.5,-401 941.5,-401 941.5,-365 1111.5,-365 1111.5,-401"/>
<text text-anchor="middle" x="1026.5" y="-379.3" font-family="Times,serif" font-size="14.00">#5 default Order : 13</text>
</g>
<!-- node4&#45;&gt;node5 -->
<g id="edge11" class="edge">
<title>node4&#45;&gt;node5</title>
<path fill="none" stroke="red" d="M882.99,-437.99C907.38,-428.01 939.61,-415.32 967.39,-404.76"/>
<polygon fill="red" stroke="red" points="968.89,-407.93 977,-401.11 966.41,-401.38 968.89,-407.93"/>
</g>
<!-- node6 -->
<g id="node7" class="node">
<title>node6</title>
<polygon fill="lightgrey" stroke="black" points="605.5,-401 453.5,-401 453.5,-365 605.5,-365 605.5,-401"/>
<text text-anchor="middle" x="529.5" y="-379.3" font-family="Times,serif" font-size="14.00">#6 case0 Order : 9</text>
</g>
<!-- node4&#45;&gt;node6 -->
<g id="edge13" class="edge">
<title>node4&#45;&gt;node6</title>
<path fill="none" stroke="red" d="M763.95,-437.99C716.39,-427.56 656.7,-414.16 609.42,-403.32"/>
<polygon fill="red" stroke="red" points="610.06,-399.88 599.53,-401.05 608.49,-406.7 610.06,-399.88"/>
</g>
<!-- node7 -->
<g id="node8" class="node">
<title>node7</title>
<polygon fill="lightgrey" stroke="black" points="853.5,-401 701.5,-401 701.5,-365 853.5,-365 853.5,-401"/>
<text text-anchor="middle" x="777.5" y="-379.3" font-family="Times,serif" font-size="14.00">#7 case1 Order : 5</text>
</g>
<!-- node4&#45;&gt;node7 -->
<g id="edge15" class="edge">
<title>node4&#45;&gt;node7</title>
<path fill="none" stroke="red" d="M823.16,-437.81C813.9,-429.09 803.4,-418.34 794.73,-408.75"/>
<polygon fill="red" stroke="red" points="797.18,-406.23 787.95,-401.03 791.92,-410.85 797.18,-406.23"/>
</g>
<!-- node5&#45;&gt;node4 -->
<g id="edge10" class="edge">
<title>node5&#45;&gt;node4</title>
<path fill="none" stroke="fuchsia" stroke-width="2" d="M988.74,-401.11C964.3,-411.11 932.06,-423.81 904.32,-434.36"/>
<polygon fill="fuchsia" stroke="fuchsia" stroke-width="2" points="902.83,-431.18 894.71,-437.99 905.3,-437.73 902.83,-431.18"/>
</g>
<!-- node8 -->
<g id="node9" class="node">
<title>node8</title>
<polygon fill="lightgrey" stroke="black" points="1146,-328 949,-328 949,-292 1146,-292 1146,-328"/>
<text text-anchor="middle" x="1047.5" y="-306.3" font-family="Times,serif" font-size="14.00">#8 LabelNode Order : 14</text>
</g>
<!-- node5&#45;&gt;node8 -->
<g id="edge17" class="edge">
<title>node5&#45;&gt;node8</title>
<path fill="none" stroke="red" d="M1025.71,-364.81C1027.27,-356.62 1030,-346.62 1033.11,-337.48"/>
<polygon fill="red" stroke="red" points="1036.42,-338.62 1036.6,-328.03 1029.86,-336.2 1036.42,-338.62"/>
</g>
<!-- node6&#45;&gt;node4 -->
<g id="edge12" class="edge">
<title>node6&#45;&gt;node4</title>
<path fill="none" stroke="fuchsia" stroke-width="2" d="M605.7,-399.83C654.12,-410.44 716.64,-424.46 765.72,-435.71"/>
<polygon fill="fuchsia" stroke="fuchsia" stroke-width="2" points="765.14,-439.17 775.67,-437.99 766.71,-432.34 765.14,-439.17"/>
</g>
<!-- node9 -->
<g id="node10" class="node">
<title>node9</title>
<polygon fill="lightgrey" stroke="black" points="406,-328 209,-328 209,-292 406,-292 406,-328"/>
<text text-anchor="middle" x="307.5" y="-306.3" font-family="Times,serif" font-size="14.00">#9 LabelNode Order : 10</text>
</g>
<!-- node6&#45;&gt;node9 -->
<g id="edge19" class="edge">
<title>node6&#45;&gt;node9</title>
<path fill="none" stroke="red" d="M470.47,-364.99C437.77,-354.88 397.36,-341.99 364.93,-331.34"/>
<polygon fill="red" stroke="red" points="365.73,-327.92 355.14,-328.11 363.54,-334.57 365.73,-327.92"/>
</g>
<!-- node7&#45;&gt;node4 -->
<g id="edge14" class="edge">
<title>node7&#45;&gt;node4</title>
<path fill="none" stroke="fuchsia" stroke-width="2" d="M799.67,-401.03C808.92,-409.73 819.42,-420.47 828.11,-430.08"/>
<polygon fill="fuchsia" stroke="fuchsia" stroke-width="2" points="825.68,-432.62 834.92,-437.81 830.94,-427.99 825.68,-432.62"/>
</g>
<!-- node10 -->
<g id="node11" class="node">
<title>node10</title>
<polygon fill="lightgrey" stroke="black" points="843,-328 646,-328 646,-292 843,-292 843,-328"/>
<text text-anchor="middle" x="744.5" y="-306.3" font-family="Times,serif" font-size="14.00">#10 LabelNode Order : 6</text>
</g>
<!-- node7&#45;&gt;node10 -->
<g id="edge21" class="edge">
<title>node7&#45;&gt;node10</title>
<path fill="none" stroke="red" d="M763.63,-364.81C758.97,-356.62 754.1,-346.62 750.26,-337.48"/>
<polygon fill="red" stroke="red" points="753.46,-336.06 746.55,-328.03 746.94,-338.62 753.46,-336.06"/>
</g>
<!-- node8&#45;&gt;node5 -->
<g id="edge16" class="edge">
<title>node8&#45;&gt;node5</title>
<path fill="none" stroke="fuchsia" stroke-width="2" d="M1048.32,-328.03C1046.77,-336.2 1044.05,-346.19 1040.95,-355.34"/>
<polygon fill="fuchsia" stroke="fuchsia" stroke-width="2" points="1037.63,-354.22 1037.46,-364.81 1044.2,-356.64 1037.63,-354.22"/>
</g>
<!-- node11 -->
<g id="node12" class="node">
<title>node11</title>
<polygon fill="lightgreen" stroke="black" points="1174.26,-229.54 1174.26,-244.46 1100,-255 995,-255 920.74,-244.46 920.74,-229.54 995,-219 1100,-219 1174.26,-229.54"/>
<text text-anchor="middle" x="1047.5" y="-233.3" font-family="Times,serif" font-size="14.00">#11 int 300 Order : 15</text>
</g>
<!-- node8&#45;&gt;node11 -->
<g id="edge23" class="edge">
<title>node8&#45;&gt;node11</title>
<path fill="none" stroke="black" stroke-dasharray="1,5" d="M1041.62,-291.81C1040.78,-283.79 1040.55,-274.05 1040.92,-265.07"/>
<polygon fill="black" stroke="black" points="1044.42,-265.25 1041.64,-255.03 1037.44,-264.75 1044.42,-265.25"/>
</g>
<!-- node15 -->
<g id="node16" class="node">
<title>node15</title>
<polygon fill="lightgrey" stroke="black" points="1019.5,-182 765.5,-182 765.5,-146 1019.5,-146 1019.5,-182"/>
<text text-anchor="middle" x="892.5" y="-160.3" font-family="Times,serif" font-size="14.00">#15 Merge : Merge17 Order : 16</text>
</g>
<!-- node8&#45;&gt;node15 -->
<g id="edge33" class="edge">
<title>node8&#45;&gt;node15</title>
<path fill="none" stroke="red" d="M1134.36,-291.96C1153.64,-283.97 1171.8,-272.24 1183.5,-255 1192.49,-241.76 1193.73,-231.3 1183.5,-219 1163.27,-194.67 1095.13,-181.25 1029.88,-173.87"/>
<polygon fill="red" stroke="red" points="1030.18,-170.39 1019.86,-172.79 1029.42,-177.35 1030.18,-170.39"/>
</g>
<!-- node9&#45;&gt;node6 -->
<g id="edge18" class="edge">
<title>node9&#45;&gt;node6</title>
<path fill="none" stroke="fuchsia" stroke-width="2" d="M366.88,-328.11C399.63,-338.25 440.04,-351.14 472.41,-361.77"/>
<polygon fill="fuchsia" stroke="fuchsia" stroke-width="2" points="471.59,-365.19 482.18,-364.99 473.78,-358.54 471.59,-365.19"/>
</g>
<!-- node12 -->
<g id="node13" class="node">
<title>node12</title>
<polygon fill="lightgrey" stroke="black" points="163,-255 0,-255 0,-219 163,-219 163,-255"/>
<text text-anchor="middle" x="81.5" y="-233.3" font-family="Times,serif" font-size="14.00">#12 Goto Order : 12</text>
</g>
<!-- node9&#45;&gt;node12 -->
<g id="edge25" class="edge">
<title>node9&#45;&gt;node12</title>
<path fill="none" stroke="red" d="M247.51,-291.99C214.1,-281.84 172.76,-268.88 139.65,-258.2"/>
<polygon fill="red" stroke="red" points="140.7,-254.86 130.1,-255.11 138.54,-261.52 140.7,-254.86"/>
</g>
<!-- node13 -->
<g id="node14" class="node">
<title>node13</title>
<polygon fill="lightgreen" stroke="black" points="434.26,-229.54 434.26,-244.46 360,-255 255,-255 180.74,-244.46 180.74,-229.54 255,-219 360,-219 434.26,-229.54"/>
<text text-anchor="middle" x="307.5" y="-233.3" font-family="Times,serif" font-size="14.00">#13 int 100 Order : 11</text>
</g>
<!-- node9&#45;&gt;node13 -->
<g id="edge27" class="edge">
<title>node9&#45;&gt;node13</title>
<path fill="none" stroke="black" stroke-dasharray="1,5" d="M301.62,-291.81C300.78,-283.79 300.55,-274.05 300.92,-265.07"/>
<polygon fill="black" stroke="black" points="304.42,-265.25 301.64,-255.03 297.44,-264.75 304.42,-265.25"/>
</g>
<!-- node10&#45;&gt;node7 -->
<g id="edge20" class="edge">
<title>node10&#45;&gt;node7</title>
<path fill="none" stroke="fuchsia" stroke-width="2" d="M758.28,-328.03C762.94,-336.2 767.82,-346.19 771.67,-355.34"/>
<polygon fill="fuchsia" stroke="fuchsia" stroke-width="2" points="768.48,-356.78 775.39,-364.81 774.99,-354.23 768.48,-356.78"/>
</g>
<!-- node14 -->
<g id="node15" class="node">
<title>node14</title>
<polygon fill="lightgrey" stroke="black" points="606.5,-255 452.5,-255 452.5,-219 606.5,-219 606.5,-255"/>
<text text-anchor="middle" x="529.5" y="-233.3" font-family="Times,serif" font-size="14.00">#14 Goto Order : 8</text>
</g>
<!-- node10&#45;&gt;node14 -->
<g id="edge29" class="edge">
<title>node10&#45;&gt;node14</title>
<path fill="none" stroke="red" d="M687.14,-291.99C655.45,-281.88 616.31,-268.99 584.93,-258.34"/>
<polygon fill="red" stroke="red" points="586.05,-255.03 575.45,-255.11 583.79,-261.65 586.05,-255.03"/>
</g>
<!-- node16 -->
<g id="node17" class="node">
<title>node16</title>
<polygon fill="lightgreen" stroke="black" points="864.59,-229.54 864.59,-244.46 794.24,-255 694.76,-255 624.41,-244.46 624.41,-229.54 694.76,-219 794.24,-219 864.59,-229.54"/>
<text text-anchor="middle" x="744.5" y="-233.3" font-family="Times,serif" font-size="14.00">#16 int 200 Order : 7</text>
</g>
<!-- node10&#45;&gt;node16 -->
<g id="edge35" class="edge">
<title>node10&#45;&gt;node16</title>
<path fill="none" stroke="black" stroke-dasharray="1,5" d="M738.62,-291.81C737.78,-283.79 737.55,-274.05 737.92,-265.07"/>
<polygon fill="black" stroke="black" points="741.42,-265.25 738.64,-255.03 734.44,-264.75 741.42,-265.25"/>
</g>
<!-- node11&#45;&gt;node8 -->
<g id="edge22" class="edge">
<title>node11&#45;&gt;node8</title>
<path fill="none" stroke="fuchsia" stroke-width="2" d="M1053.36,-255.03C1054.21,-263.03 1054.45,-272.77 1054.09,-281.75"/>
<polygon fill="fuchsia" stroke="fuchsia" stroke-width="2" points="1050.59,-281.59 1053.38,-291.81 1057.57,-282.08 1050.59,-281.59"/>
</g>
<!-- node17 -->
<g id="node18" class="node">
<title>node17</title>
<polygon fill="orange" stroke="black" points="1007.75,-83.54 1007.75,-98.46 940.24,-109 844.76,-109 777.25,-98.46 777.25,-83.54 844.76,-73 940.24,-73 1007.75,-83.54"/>
<text text-anchor="middle" x="892.5" y="-87.3" font-family="Times,serif" font-size="14.00">#17 Φ int Order : 17</text>
</g>
<!-- node11&#45;&gt;node17 -->
<g id="edge40" class="edge">
<title>node11&#45;&gt;node17</title>
<path fill="none" stroke="blue" d="M954.46,-224.72C874.23,-214.04 769.29,-197.38 756.5,-182 746.27,-169.7 747.51,-159.24 756.5,-146 768.57,-128.22 787.52,-116.29 807.48,-108.29"/>
<polygon fill="blue" stroke="blue" points="808.84,-111.52 817.01,-104.78 806.42,-104.95 808.84,-111.52"/>
<text text-anchor="middle" x="802.92" y="-115.28" font-family="Times,serif" font-size="14.00">if #8</text>
</g>
<!-- node12&#45;&gt;node9 -->
<g id="edge24" class="edge">
<title>node12&#45;&gt;node9</title>
<path fill="none" stroke="fuchsia" stroke-width="2" d="M141.84,-255.11C175.31,-265.29 216.65,-278.25 249.7,-288.91"/>
<polygon fill="fuchsia" stroke="fuchsia" stroke-width="2" points="248.63,-292.24 259.23,-291.99 250.79,-285.58 248.63,-292.24"/>
</g>
<!-- node12&#45;&gt;node15 -->
<g id="edge31" class="edge">
<title>node12&#45;&gt;node15</title>
<path fill="none" stroke="red" d="M163.35,-220.14C166.1,-219.73 168.82,-219.35 171.5,-219 373.71,-192.42 609.67,-177.82 755.09,-170.71"/>
<polygon fill="red" stroke="red" points="755.58,-174.19 765.4,-170.21 755.24,-167.2 755.58,-174.19"/>
</g>
<!-- node13&#45;&gt;node9 -->
<g id="edge26" class="edge">
<title>node13&#45;&gt;node9</title>
<path fill="none" stroke="fuchsia" stroke-width="2" d="M313.36,-255.03C314.21,-263.03 314.45,-272.77 314.09,-281.75"/>
<polygon fill="fuchsia" stroke="fuchsia" stroke-width="2" points="310.59,-281.59 313.38,-291.81 317.57,-282.08 310.59,-281.59"/>
</g>
<!-- node13&#45;&gt;node17 -->
<g id="edge38" class="edge">
<title>node13&#45;&gt;node17</title>
<path fill="none" stroke="blue" d="M396.3,-224.11C412.01,-222.23 428.22,-220.44 443.5,-219 508.34,-212.9 983.92,-229.49 1028.5,-182 1056.96,-151.68 1007.99,-126.53 961.08,-110.59"/>
<polygon fill="blue" stroke="blue" points="962.03,-107.22 951.44,-107.43 959.85,-113.87 962.03,-107.22"/>
<text text-anchor="middle" x="971.29" y="-101.34" font-family="Times,serif" font-size="14.00">if #12</text>
</g>
<!-- node14&#45;&gt;node10 -->
<g id="edge28" class="edge">
<title>node14&#45;&gt;node10</title>
<path fill="none" stroke="fuchsia" stroke-width="2" d="M587.19,-255.11C618.8,-265.2 657.74,-278.03 689,-288.63"/>
<polygon fill="fuchsia" stroke="fuchsia" stroke-width="2" points="688.27,-292.08 698.86,-291.99 690.52,-285.46 688.27,-292.08"/>
</g>
<!-- node14&#45;&gt;node15 -->
<g id="edge32" class="edge">
<title>node14&#45;&gt;node15</title>
<path fill="none" stroke="red" d="M606.85,-220.7C609.77,-220.13 612.66,-219.56 615.5,-219 675.01,-207.32 741.72,-194.31 794.77,-183.99"/>
<polygon fill="red" stroke="red" points="795.7,-187.37 804.85,-182.03 794.36,-180.5 795.7,-187.37"/>
</g>
<!-- node15&#45;&gt;node4 -->
<g id="edge30" class="edge">
<title>node15&#45;&gt;node4</title>
<path fill="none" stroke="fuchsia" stroke-width="2" d="M892.5,-182.22C892.5,-196.59 892.5,-217.63 892.5,-236 892.5,-384 892.5,-384 892.5,-384 892.5,-401.22 882.77,-417.47 872.16,-430.06"/>
<polygon fill="fuchsia" stroke="fuchsia" stroke-width="2" points="869.28,-428.03 865.16,-437.79 874.47,-432.73 869.28,-428.03"/>
</g>
<!-- node15&#45;&gt;node17 -->
<g id="edge37" class="edge">
<title>node15&#45;&gt;node17</title>
<path fill="none" stroke="black" stroke-dasharray="1,5" d="M886.62,-145.81C885.78,-137.79 885.55,-128.05 885.92,-119.07"/>
<polygon fill="black" stroke="black" points="889.42,-119.25 886.64,-109.03 882.44,-118.75 889.42,-119.25"/>
</g>
<!-- node15&#45;&gt;node18 -->
<g id="edge43" class="edge">
<title>node15&#45;&gt;node18</title>
<path fill="none" stroke="red" d="M997.61,-145.93C1006.2,-141.24 1014.04,-135.36 1020.5,-128 1040.04,-105.74 1041.41,-70.46 1039.46,-46.09"/>
<polygon fill="red" stroke="red" points="1042.93,-45.66 1038.42,-36.07 1035.97,-46.38 1042.93,-45.66"/>
</g>
<!-- node16&#45;&gt;node10 -->
<g id="edge34" class="edge">
<title>node16&#45;&gt;node10</title>
<path fill="none" stroke="fuchsia" stroke-width="2" d="M750.36,-255.03C751.21,-263.03 751.45,-272.77 751.09,-281.75"/>
<polygon fill="fuchsia" stroke="fuchsia" stroke-width="2" points="747.59,-281.59 750.38,-291.81 754.57,-282.08 747.59,-281.59"/>
</g>
<!-- node16&#45;&gt;node17 -->
<g id="edge39" class="edge">
<title>node16&#45;&gt;node17</title>
<path fill="none" stroke="blue" d="M843.73,-226.31C935.67,-216.3 1060.46,-199.69 1075.5,-182 1108.91,-142.7 1045.01,-118.98 983.74,-105.84"/>
<polygon fill="blue" stroke="blue" points="984.45,-102.41 973.95,-103.82 983.04,-109.26 984.45,-102.41"/>
<text text-anchor="middle" x="993.41" y="-95.5" font-family="Times,serif" font-size="14.00">if #14</text>
</g>
<!-- node17&#45;&gt;node15 -->
<g id="edge36" class="edge">
<title>node17&#45;&gt;node15</title>
<path fill="none" stroke="fuchsia" stroke-width="2" d="M898.36,-109.03C899.21,-117.03 899.45,-126.77 899.09,-135.75"/>
<polygon fill="fuchsia" stroke="fuchsia" stroke-width="2" points="895.59,-135.59 898.38,-145.81 902.57,-136.08 895.59,-135.59"/>
</g>
<!-- node17&#45;&gt;node18 -->
<g id="edge42" class="edge">
<title>node17&#45;&gt;node18</title>
<path fill="none" stroke="black" d="M926.75,-72.99C946.33,-63.27 971.08,-50.99 992.02,-40.59"/>
<polygon fill="black" stroke="black" points="993.63,-43.7 1001.03,-36.11 990.52,-37.43 993.63,-43.7"/>
<text text-anchor="middle" x="988.56" y="-48.04" font-family="Times,serif" font-size="14.00">*0</text>
</g>
<!-- node18&#45;&gt;node0 -->
<g id="edge41" class="edge">
<title>node18&#45;&gt;node0</title>
<path fill="none" stroke="fuchsia" stroke-width="2" d="M1062.63,-36.22C1104.11,-67.7 1180.66,-138.72 1209.5,-219 1239.37,-302.15 1182.62,-330.39 1129.5,-401 1074.14,-474.58 1063.53,-503.26 982.5,-547 904.88,-588.91 874.3,-568.27 787.5,-584 786,-584.27 784.49,-584.55 782.96,-584.83"/>
<polygon fill="fuchsia" stroke="fuchsia" stroke-width="2" points="781.97,-581.45 772.76,-586.7 783.23,-588.33 781.97,-581.45"/>
</g>
<!-- c0 -->
<!-- c1 -->
<!-- c0&#45;&gt;c1 -->
<g id="edge45" class="edge">
<title>c0&#45;&gt;c1</title>
<path fill="none" stroke="red" d="M1641.39,-602C1652.61,-602 1710.74,-602 1736.36,-602"/>
<polygon fill="red" stroke="red" points="1736.56,-605.5 1746.56,-602 1736.56,-598.5 1736.56,-605.5"/>
<text text-anchor="middle" x="1694" y="-608.8" font-family="Times,serif" font-size="14.00">Control flow</text>
</g>
<!-- c2 -->
<!-- c3 -->
<!-- c2&#45;&gt;c3 -->
<g id="edge46" class="edge">
<title>c2&#45;&gt;c3</title>
<path fill="none" stroke="red" stroke-dasharray="5,2" d="M1434.58,-602C1451.55,-602 1567.71,-602 1605.58,-602"/>
<polygon fill="red" stroke="red" points="1605.67,-605.5 1615.67,-602 1605.67,-598.5 1605.67,-605.5"/>
<text text-anchor="middle" x="1525" y="-608.8" font-family="Times,serif" font-size="14.00">Control flow back edge</text>
</g>
<!-- d0 -->
<!-- d1 -->
<!-- d0&#45;&gt;d1 -->
<g id="edge47" class="edge">
<title>d0&#45;&gt;d1</title>
<path fill="none" stroke="black" d="M1323.36,-602C1332.91,-602 1376.81,-602 1398.42,-602"/>
<polygon fill="black" stroke="black" points="1398.65,-605.5 1408.65,-602 1398.65,-598.5 1398.65,-605.5"/>
<text text-anchor="middle" x="1366" y="-608.8" font-family="Times,serif" font-size="14.00">Data flow</text>
</g>
<!-- d2 -->
<!-- d3 -->
<!-- d2&#45;&gt;d3 -->
<g id="edge48" class="edge">
<title>d2&#45;&gt;d3</title>
<path fill="none" stroke="black" stroke-dasharray="1,5" d="M1197.31,-602C1207.96,-602 1262.96,-602 1287.58,-602"/>
<polygon fill="black" stroke="black" points="1287.65,-605.5 1297.65,-602 1287.65,-598.5 1287.65,-605.5"/>
<text text-anchor="middle" x="1247.5" y="-608.8" font-family="Times,serif" font-size="14.00">Declaration</text>
</g>
<!-- d4 -->
<!-- d5 -->
<!-- d4&#45;&gt;d5 -->
<g id="edge49" class="edge">
<title>d4&#45;&gt;d5</title>
<path fill="none" stroke="blue" d="M1054.6,-602C1067.22,-602 1133.38,-602 1161.18,-602"/>
<polygon fill="blue" stroke="blue" points="1161.34,-605.5 1171.34,-602 1161.34,-598.5 1161.34,-605.5"/>
<text text-anchor="middle" x="1113" y="-608.8" font-family="Times,serif" font-size="14.00">PHI Data flow</text>
</g>
<!-- d6 -->
<!-- d7 -->
<!-- d6&#45;&gt;d7 -->
<g id="edge50" class="edge">
<title>d6&#45;&gt;d7</title>
<path fill="none" stroke="green" d="M917.5,-602C929.44,-602 991.8,-602 1018.43,-602"/>
<polygon fill="green" stroke="green" points="1018.45,-605.5 1028.45,-602 1018.45,-598.5 1018.45,-605.5"/>
<text text-anchor="middle" x="973" y="-608.8" font-family="Times,serif" font-size="14.00">Memory flow</text>
</g>
<!-- d8 -->
<!-- d9 -->
<!-- d8&#45;&gt;d9 -->
<g id="edge51" class="edge">
<title>d8&#45;&gt;d9</title>
<path fill="none" stroke="fuchsia" d="M794.61,-602C805.65,-602 857.17,-602 881.16,-602"/>
<polygon fill="fuchsia" stroke="fuchsia" points="881.4,-605.5 891.4,-602 881.4,-598.5 881.4,-605.5"/>
<text text-anchor="middle" x="843" y="-608.8" font-family="Times,serif" font-size="14.00">Dominance</text>
</g>
</g>
</svg>
