<?xml version="1.0" encoding="UTF-8" standalone="no"?>
<!DOCTYPE svg PUBLIC "-//W3C//DTD SVG 1.1//EN"
 "http://www.w3.org/Graphics/SVG/1.1/DTD/svg11.dtd">
<!-- Generated by graphviz version 2.43.0 (0)
 -->
<!-- Title: debugoutput Pages: 1 -->
<svg width="1703pt" height="505pt"
 viewBox="0.00 0.00 1702.50 504.80" xmlns="http://www.w3.org/2000/svg" xmlns:xlink="http://www.w3.org/1999/xlink">
<g id="graph0" class="graph" transform="scale(1 1) rotate(0) translate(4 500.8)">
<title>debugoutput</title>
<polygon fill="white" stroke="transparent" points="-4,4 -4,-500.8 1698.5,-500.8 1698.5,4 -4,4"/>
<g id="clust1" class="cluster">
<title>cluster_000</title>
<polygon fill="none" stroke="black" points="710.5,-446.2 710.5,-488.8 1686.5,-488.8 1686.5,-446.2 710.5,-446.2"/>
<text text-anchor="middle" x="1198.5" y="-473.6" font-family="Times,serif" font-size="14.00">Legend</text>
</g>
<!-- node0 -->
<g id="node1" class="node">
<title>node0</title>
<polygon fill="lightgrey" stroke="black" points="700.5,-474 534.5,-474 534.5,-438 700.5,-438 700.5,-474"/>
<text text-anchor="middle" x="617.5" y="-452.3" font-family="Times,serif" font-size="14.00">#0 Method Order : 0</text>
</g>
<!-- node1 -->
<g id="node2" class="node">
<title>node1</title>
<polygon fill="lightgrey" stroke="black" points="505,-401 328,-401 328,-365 505,-365 505,-401"/>
<text text-anchor="middle" x="416.5" y="-379.3" font-family="Times,serif" font-size="14.00">#1 arg0 : int Order : 3</text>
</g>
<!-- node0&#45;&gt;node1 -->
<g id="edge2" class="edge">
<title>node0&#45;&gt;node1</title>
<path fill="none" stroke="black" d="M563.5,-437.99C534.05,-427.97 497.83,-415.21 468.67,-404.62"/>
<polygon fill="black" stroke="black" points="469.67,-401.26 459.08,-401.11 467.27,-407.83 469.67,-401.26"/>
<text text-anchor="middle" x="479" y="-395.69" font-family="Times,serif" font-size="14.00">*0</text>
</g>
<!-- node2 -->
<g id="node3" class="node">
<title>node2</title>
<polygon fill="lightgrey" stroke="black" points="1089,-401 824,-401 824,-365 1089,-365 1089,-401"/>
<text text-anchor="middle" x="956.5" y="-379.3" font-family="Times,serif" font-size="14.00">#2 this : SwitchCaseTest Order : 2</text>
</g>
<!-- node0&#45;&gt;node2 -->
<g id="edge4" class="edge">
<title>node0&#45;&gt;node2</title>
<path fill="none" stroke="black" d="M698,-437.91C740.24,-429.92 751.19,-428.91 793.5,-420 817.7,-414.9 843.94,-408.94 868.18,-403.34"/>
<polygon fill="black" stroke="black" points="869.12,-406.72 878.08,-401.05 867.54,-399.9 869.12,-406.72"/>
<text text-anchor="middle" x="862.32" y="-409.67" font-family="Times,serif" font-size="14.00">*0</text>
</g>
<!-- node3 -->
<g id="node4" class="node">
<title>node3</title>
<polygon fill="lightgrey" stroke="black" points="711.5,-401 523.5,-401 523.5,-365 711.5,-365 711.5,-401"/>
<text text-anchor="middle" x="617.5" y="-379.3" font-family="Times,serif" font-size="14.00">#3 LabelNode Order : 1</text>
</g>
<!-- node0&#45;&gt;node3 -->
<g id="edge6" class="edge">
<title>node0&#45;&gt;node3</title>
<path fill="none" stroke="red" d="M611.62,-437.81C610.78,-429.79 610.55,-420.05 610.92,-411.07"/>
<polygon fill="red" stroke="red" points="614.42,-411.25 611.64,-401.03 607.44,-410.75 614.42,-411.25"/>
</g>
<!-- node12 -->
<g id="node13" class="node">
<title>node12</title>
<polygon fill="lightgrey" stroke="black" points="251,-36 0,-36 0,0 251,0 251,-36"/>
<text text-anchor="middle" x="125.5" y="-14.3" font-family="Times,serif" font-size="14.00">#12 ReturnValue : int Order : 16</text>
</g>
<!-- node0&#45;&gt;node12 -->
<g id="edge27" class="edge">
<title>node0&#45;&gt;node12</title>
<path fill="none" stroke="green" d="M534.42,-451.24C447.84,-445.6 319.95,-432.08 283.5,-401 169.56,-303.87 158.14,-252.52 115.5,-109 109.44,-88.59 110.11,-64.41 113.43,-46.26"/>
<polygon fill="green" stroke="green" points="116.88,-46.86 115.65,-36.34 110.05,-45.33 116.88,-46.86"/>
</g>
<!-- node14 -->
<g id="node15" class="node">
<title>node14</title>
<polygon fill="lightgrey" stroke="black" points="1185,-36 934,-36 934,0 1185,0 1185,-36"/>
<text text-anchor="middle" x="1059.5" y="-14.3" font-family="Times,serif" font-size="14.00">#14 ReturnValue : int Order : 12</text>
</g>
<!-- node0&#45;&gt;node14 -->
<g id="edge33" class="edge">
<title>node0&#45;&gt;node14</title>
<path fill="none" stroke="green" d="M667.43,-437.95C681.36,-432.94 696.26,-426.91 709.5,-420 820.07,-362.29 843.42,-338.02 936.5,-255 969.36,-225.69 976.1,-216.48 1003.5,-182 1027.97,-151.21 1038.16,-145.21 1053.5,-109 1063.05,-86.45 1062.04,-79.37 1064.5,-55 1064.8,-52 1064.57,-48.94 1064.02,-45.93"/>
<polygon fill="green" stroke="green" points="1067.34,-44.81 1061.3,-36.1 1060.59,-46.67 1067.34,-44.81"/>
</g>
<!-- node16 -->
<g id="node17" class="node">
<title>node16</title>
<polygon fill="lightgrey" stroke="black" points="722.5,-36 480.5,-36 480.5,0 722.5,0 722.5,-36"/>
<text text-anchor="middle" x="601.5" y="-14.3" font-family="Times,serif" font-size="14.00">#16 ReturnValue : int Order : 8</text>
</g>
<!-- node0&#45;&gt;node16 -->
<g id="edge39" class="edge">
<title>node0&#45;&gt;node16</title>
<path fill="none" stroke="green" d="M534.26,-452C452.85,-447.1 337.32,-434.29 309.5,-401 282.99,-369.27 261.46,-346.4 334.5,-219 347.21,-196.83 360.77,-200.4 378.5,-182 421.13,-137.77 414.69,-110.3 463.5,-73 481.82,-59 504.29,-47.96 525.78,-39.61"/>
<polygon fill="green" stroke="green" points="527.1,-42.85 535.24,-36.07 524.65,-36.29 527.1,-42.85"/>
</g>
<!-- node1&#45;&gt;node0 -->
<g id="edge1" class="edge">
<title>node1&#45;&gt;node0</title>
<path fill="none" stroke="fuchsia" stroke-width="2" d="M470.82,-401.11C500.31,-411.16 536.53,-423.92 565.64,-434.5"/>
<polygon fill="fuchsia" stroke="fuchsia" stroke-width="2" points="564.62,-437.85 575.21,-437.99 567.02,-431.28 564.62,-437.85"/>
</g>
<!-- node4 -->
<g id="node5" class="node">
<title>node4</title>
<polygon fill="lightgrey" stroke="black" points="722.5,-328 510.5,-328 510.5,-292 722.5,-292 722.5,-328"/>
<text text-anchor="middle" x="616.5" y="-306.3" font-family="Times,serif" font-size="14.00">#4 LookupSwitch Order : 4</text>
</g>
<!-- node1&#45;&gt;node4 -->
<g id="edge8" class="edge">
<title>node1&#45;&gt;node4</title>
<path fill="none" stroke="black" d="M464.4,-364.99C492.77,-354.92 528.89,-342.1 558.81,-331.48"/>
<polygon fill="black" stroke="black" points="560.04,-334.76 568.29,-328.11 557.7,-328.16 560.04,-334.76"/>
<text text-anchor="middle" x="554.04" y="-338.44" font-family="Times,serif" font-size="14.00">*0</text>
</g>
<!-- node2&#45;&gt;node0 -->
<g id="edge3" class="edge">
<title>node2&#45;&gt;node0</title>
<path fill="none" stroke="fuchsia" stroke-width="2" d="M894.92,-401.05C869.21,-407.28 839.04,-414.2 811.5,-420 769.02,-428.94 758.15,-429.93 715.5,-438 714,-438.28 712.49,-438.57 710.97,-438.86"/>
<polygon fill="fuchsia" stroke="fuchsia" stroke-width="2" points="709.95,-435.49 700.78,-440.79 711.26,-442.37 709.95,-435.49"/>
</g>
<!-- node3&#45;&gt;node0 -->
<g id="edge5" class="edge">
<title>node3&#45;&gt;node0</title>
<path fill="none" stroke="fuchsia" stroke-width="2" d="M623.36,-401.03C624.21,-409.03 624.45,-418.77 624.09,-427.75"/>
<polygon fill="fuchsia" stroke="fuchsia" stroke-width="2" points="620.59,-427.59 623.38,-437.81 627.57,-428.08 620.59,-427.59"/>
</g>
<!-- node3&#45;&gt;node4 -->
<g id="edge9" class="edge">
<title>node3&#45;&gt;node4</title>
<path fill="none" stroke="red" d="M617.26,-364.81C617.14,-356.79 617.01,-347.05 616.88,-338.07"/>
<polygon fill="red" stroke="red" points="620.38,-337.98 616.74,-328.03 613.38,-338.08 620.38,-337.98"/>
</g>
<!-- node4&#45;&gt;node0 -->
<g id="edge7" class="edge">
<title>node4&#45;&gt;node0</title>
<path fill="none" stroke="fuchsia" stroke-width="2" d="M675.16,-328.1C692.84,-336.3 710.25,-348.13 720.5,-365 728.81,-378.67 728.78,-387.31 720.5,-401 712.06,-414.95 698.7,-425.47 684.36,-433.34"/>
<polygon fill="fuchsia" stroke="fuchsia" stroke-width="2" points="682.69,-430.27 675.34,-437.9 685.85,-436.51 682.69,-430.27"/>
</g>
<!-- node5 -->
<g id="node6" class="node">
<title>node5</title>
<polygon fill="lightgrey" stroke="black" points="514,-255 353,-255 353,-219 514,-219 514,-255"/>
<text text-anchor="middle" x="433.5" y="-233.3" font-family="Times,serif" font-size="14.00">#5 case1 Order : 13</text>
</g>
<!-- node4&#45;&gt;node5 -->
<g id="edge11" class="edge">
<title>node4&#45;&gt;node5</title>
<path fill="none" stroke="red" d="M566.81,-291.99C540.14,-282.06 507.49,-269.43 481.14,-258.89"/>
<polygon fill="red" stroke="red" points="482.32,-255.6 471.74,-255.11 479.71,-262.09 482.32,-255.6"/>
</g>
<!-- node6 -->
<g id="node7" class="node">
<title>node6</title>
<polygon fill="lightgrey" stroke="black" points="936,-255 775,-255 775,-219 936,-219 936,-255"/>
<text text-anchor="middle" x="855.5" y="-233.3" font-family="Times,serif" font-size="14.00">#6 default Order : 9</text>
</g>
<!-- node4&#45;&gt;node6 -->
<g id="edge13" class="edge">
<title>node4&#45;&gt;node6</title>
<path fill="none" stroke="red" d="M667.89,-291.99C701.28,-281.75 745.26,-268.66 782.28,-257.93"/>
<polygon fill="red" stroke="red" points="783.39,-261.25 792.02,-255.11 781.44,-254.53 783.39,-261.25"/>
</g>
<!-- node7 -->
<g id="node8" class="node">
<title>node7</title>
<polygon fill="lightgrey" stroke="black" points="692.5,-255 540.5,-255 540.5,-219 692.5,-219 692.5,-255"/>
<text text-anchor="middle" x="616.5" y="-233.3" font-family="Times,serif" font-size="14.00">#7 case0 Order : 5</text>
</g>
<!-- node4&#45;&gt;node7 -->
<g id="edge15" class="edge">
<title>node4&#45;&gt;node7</title>
<path fill="none" stroke="red" d="M610.62,-291.81C609.78,-283.79 609.55,-274.05 609.92,-265.07"/>
<polygon fill="red" stroke="red" points="613.42,-265.25 610.64,-255.03 606.44,-264.75 613.42,-265.25"/>
</g>
<!-- node5&#45;&gt;node4 -->
<g id="edge10" class="edge">
<title>node5&#45;&gt;node4</title>
<path fill="none" stroke="fuchsia" stroke-width="2" d="M483.48,-255.11C510.19,-265.07 542.84,-277.69 569.14,-288.22"/>
<polygon fill="fuchsia" stroke="fuchsia" stroke-width="2" points="567.94,-291.51 578.53,-291.99 570.56,-285.01 567.94,-291.51"/>
</g>
<!-- node8 -->
<g id="node9" class="node">
<title>node8</title>
<polygon fill="lightgrey" stroke="black" points="379,-182 182,-182 182,-146 379,-146 379,-182"/>
<text text-anchor="middle" x="280.5" y="-160.3" font-family="Times,serif" font-size="14.00">#8 LabelNode Order : 14</text>
</g>
<!-- node5&#45;&gt;node8 -->
<g id="edge17" class="edge">
<title>node5&#45;&gt;node8</title>
<path fill="none" stroke="red" d="M390.99,-218.99C369.02,-209.27 342.4,-196.99 320.76,-186.59"/>
<polygon fill="red" stroke="red" points="322.03,-183.32 311.51,-182.11 318.98,-189.62 322.03,-183.32"/>
</g>
<!-- node6&#45;&gt;node4 -->
<g id="edge12" class="edge">
<title>node6&#45;&gt;node4</title>
<path fill="none" stroke="fuchsia" stroke-width="2" d="M803.76,-255.11C770.29,-265.38 726.3,-278.47 689.33,-289.18"/>
<polygon fill="fuchsia" stroke="fuchsia" stroke-width="2" points="688.24,-285.86 679.61,-291.99 690.18,-292.58 688.24,-285.86"/>
</g>
<!-- node9 -->
<g id="node10" class="node">
<title>node9</title>
<polygon fill="lightgrey" stroke="black" points="1003,-182 806,-182 806,-146 1003,-146 1003,-182"/>
<text text-anchor="middle" x="904.5" y="-160.3" font-family="Times,serif" font-size="14.00">#9 LabelNode Order : 10</text>
</g>
<!-- node6&#45;&gt;node9 -->
<g id="edge19" class="edge">
<title>node6&#45;&gt;node9</title>
<path fill="none" stroke="red" d="M861.48,-218.81C866.54,-210.18 873.67,-199.56 880.74,-190.03"/>
<polygon fill="red" stroke="red" points="883.57,-192.09 886.89,-182.03 878.02,-187.83 883.57,-192.09"/>
</g>
<!-- node7&#45;&gt;node4 -->
<g id="edge14" class="edge">
<title>node7&#45;&gt;node4</title>
<path fill="none" stroke="fuchsia" stroke-width="2" d="M622.36,-255.03C623.21,-263.03 623.45,-272.77 623.09,-281.75"/>
<polygon fill="fuchsia" stroke="fuchsia" stroke-width="2" points="619.59,-281.59 622.38,-291.81 626.57,-282.08 619.59,-281.59"/>
</g>
<!-- node10 -->
<g id="node11" class="node">
<title>node10</title>
<polygon fill="lightgrey" stroke="black" points="715,-182 518,-182 518,-146 715,-146 715,-182"/>
<text text-anchor="middle" x="616.5" y="-160.3" font-family="Times,serif" font-size="14.00">#10 LabelNode Order : 6</text>
</g>
<!-- node7&#45;&gt;node10 -->
<g id="edge21" class="edge">
<title>node7&#45;&gt;node10</title>
<path fill="none" stroke="red" d="M610.62,-218.81C609.78,-210.79 609.55,-201.05 609.92,-192.07"/>
<polygon fill="red" stroke="red" points="613.42,-192.25 610.64,-182.03 606.44,-191.75 613.42,-192.25"/>
</g>
<!-- node8&#45;&gt;node5 -->
<g id="edge16" class="edge">
<title>node8&#45;&gt;node5</title>
<path fill="none" stroke="fuchsia" stroke-width="2" d="M323.25,-182.11C345.26,-191.85 371.87,-204.14 393.48,-214.52"/>
<polygon fill="fuchsia" stroke="fuchsia" stroke-width="2" points="392.19,-217.79 402.71,-218.99 395.24,-211.49 392.19,-217.79"/>
</g>
<!-- node11 -->
<g id="node12" class="node">
<title>node11</title>
<polygon fill="lightgreen" stroke="black" points="407.26,-83.54 407.26,-98.46 333,-109 228,-109 153.74,-98.46 153.74,-83.54 228,-73 333,-73 407.26,-83.54"/>
<text text-anchor="middle" x="280.5" y="-87.3" font-family="Times,serif" font-size="14.00">#11 int 200 Order : 15</text>
</g>
<!-- node8&#45;&gt;node11 -->
<g id="edge23" class="edge">
<title>node8&#45;&gt;node11</title>
<path fill="none" stroke="black" stroke-dasharray="1,5" d="M274.62,-145.81C273.78,-137.79 273.55,-128.05 273.92,-119.07"/>
<polygon fill="black" stroke="black" points="277.42,-119.25 274.64,-109.03 270.44,-118.75 277.42,-119.25"/>
</g>
<!-- node8&#45;&gt;node12 -->
<g id="edge26" class="edge">
<title>node8&#45;&gt;node12</title>
<path fill="none" stroke="red" d="M200.63,-145.98C179.72,-137.95 158.99,-126.19 144.5,-109 129.91,-91.69 125.65,-65.96 124.76,-46.44"/>
<polygon fill="red" stroke="red" points="128.25,-46.25 124.56,-36.32 121.26,-46.39 128.25,-46.25"/>
</g>
<!-- node9&#45;&gt;node6 -->
<g id="edge18" class="edge">
<title>node9&#45;&gt;node6</title>
<path fill="none" stroke="fuchsia" stroke-width="2" d="M898.61,-182.03C893.58,-190.64 886.46,-201.26 879.39,-210.79"/>
<polygon fill="fuchsia" stroke="fuchsia" stroke-width="2" points="876.55,-208.75 873.24,-218.81 882.1,-213.01 876.55,-208.75"/>
</g>
<!-- node13 -->
<g id="node14" class="node">
<title>node13</title>
<polygon fill="lightgreen" stroke="black" points="1031.26,-83.54 1031.26,-98.46 957,-109 852,-109 777.74,-98.46 777.74,-83.54 852,-73 957,-73 1031.26,-83.54"/>
<text text-anchor="middle" x="904.5" y="-87.3" font-family="Times,serif" font-size="14.00">#13 int 300 Order : 11</text>
</g>
<!-- node9&#45;&gt;node13 -->
<g id="edge29" class="edge">
<title>node9&#45;&gt;node13</title>
<path fill="none" stroke="black" stroke-dasharray="1,5" d="M898.62,-145.81C897.78,-137.79 897.55,-128.05 897.92,-119.07"/>
<polygon fill="black" stroke="black" points="901.42,-119.25 898.64,-109.03 894.44,-118.75 901.42,-119.25"/>
</g>
<!-- node9&#45;&gt;node14 -->
<g id="edge32" class="edge">
<title>node9&#45;&gt;node14</title>
<path fill="none" stroke="red" d="M984.37,-145.98C1005.28,-137.95 1026.01,-126.19 1040.5,-109 1055.09,-91.69 1059.35,-65.96 1060.24,-46.44"/>
<polygon fill="red" stroke="red" points="1063.74,-46.39 1060.44,-36.32 1056.75,-46.25 1063.74,-46.39"/>
</g>
<!-- node10&#45;&gt;node7 -->
<g id="edge20" class="edge">
<title>node10&#45;&gt;node7</title>
<path fill="none" stroke="fuchsia" stroke-width="2" d="M622.36,-182.03C623.21,-190.03 623.45,-199.77 623.09,-208.75"/>
<polygon fill="fuchsia" stroke="fuchsia" stroke-width="2" points="619.59,-208.59 622.38,-218.81 626.57,-209.08 619.59,-208.59"/>
</g>
<!-- node15 -->
<g id="node16" class="node">
<title>node15</title>
<polygon fill="lightgreen" stroke="black" points="721.59,-83.54 721.59,-98.46 651.24,-109 551.76,-109 481.41,-98.46 481.41,-83.54 551.76,-73 651.24,-73 721.59,-83.54"/>
<text text-anchor="middle" x="601.5" y="-87.3" font-family="Times,serif" font-size="14.00">#15 int 100 Order : 7</text>
</g>
<!-- node10&#45;&gt;node15 -->
<g id="edge35" class="edge">
<title>node10&#45;&gt;node15</title>
<path fill="none" stroke="black" stroke-dasharray="1,5" d="M606.99,-145.81C604.46,-137.79 602.16,-128.05 600.64,-119.07"/>
<polygon fill="black" stroke="black" points="604.09,-118.45 599.24,-109.03 597.16,-119.42 604.09,-118.45"/>
</g>
<!-- node10&#45;&gt;node16 -->
<g id="edge38" class="edge">
<title>node10&#45;&gt;node16</title>
<path fill="none" stroke="red" d="M683.65,-145.87C701.97,-137.79 719.73,-126.03 730.5,-109 739.06,-95.48 739.36,-86.32 730.5,-73 720.94,-58.64 706.75,-48.09 691.24,-40.34"/>
<polygon fill="red" stroke="red" points="692.52,-37.08 681.98,-36.1 689.61,-43.44 692.52,-37.08"/>
</g>
<!-- node11&#45;&gt;node8 -->
<g id="edge22" class="edge">
<title>node11&#45;&gt;node8</title>
<path fill="none" stroke="fuchsia" stroke-width="2" d="M286.36,-109.03C287.21,-117.03 287.45,-126.77 287.09,-135.75"/>
<polygon fill="fuchsia" stroke="fuchsia" stroke-width="2" points="283.59,-135.59 286.38,-145.81 290.57,-136.08 283.59,-135.59"/>
</g>
<!-- node11&#45;&gt;node12 -->
<g id="edge25" class="edge">
<title>node11&#45;&gt;node12</title>
<path fill="none" stroke="black" d="M243.37,-72.99C221.96,-63.19 194.85,-50.77 172.02,-40.31"/>
<polygon fill="black" stroke="black" points="173.41,-37.1 162.86,-36.11 170.49,-43.46 173.41,-37.1"/>
<text text-anchor="middle" x="182.86" y="-32.28" font-family="Times,serif" font-size="14.00">*0</text>
</g>
<!-- node12&#45;&gt;node0 -->
<g id="edge24" class="edge">
<title>node12&#45;&gt;node0</title>
<path fill="none" stroke="fuchsia" stroke-width="2" d="M129,-36.34C128.64,-54.77 126.25,-84.58 133.5,-109 176.14,-252.52 187.56,-303.87 301.5,-401 334.63,-429.24 443.29,-442.99 524.04,-449.5"/>
<polygon fill="fuchsia" stroke="fuchsia" stroke-width="2" points="524,-453.01 534.24,-450.29 524.54,-446.03 524,-453.01"/>
</g>
<!-- node13&#45;&gt;node9 -->
<g id="edge28" class="edge">
<title>node13&#45;&gt;node9</title>
<path fill="none" stroke="fuchsia" stroke-width="2" d="M910.36,-109.03C911.21,-117.03 911.45,-126.77 911.09,-135.75"/>
<polygon fill="fuchsia" stroke="fuchsia" stroke-width="2" points="907.59,-135.59 910.38,-145.81 914.57,-136.08 907.59,-135.59"/>
</g>
<!-- node13&#45;&gt;node14 -->
<g id="edge31" class="edge">
<title>node13&#45;&gt;node14</title>
<path fill="none" stroke="black" d="M941.63,-72.99C963.04,-63.19 990.15,-50.77 1012.98,-40.31"/>
<polygon fill="black" stroke="black" points="1014.51,-43.46 1022.14,-36.11 1011.59,-37.1 1014.51,-43.46"/>
<text text-anchor="middle" x="1009.18" y="-47.65" font-family="Times,serif" font-size="14.00">*0</text>
</g>
<!-- node14&#45;&gt;node0 -->
<g id="edge30" class="edge">
<title>node14&#45;&gt;node0</title>
<path fill="none" stroke="fuchsia" stroke-width="2" d="M1078.35,-36.1C1081.34,-41.93 1083.15,-48.59 1082.5,-55 1080.04,-79.37 1081.05,-86.45 1071.5,-109 1056.16,-145.21 1045.97,-151.21 1021.5,-182 994.1,-216.48 987.36,-225.69 954.5,-255 861.42,-338.02 838.07,-362.29 727.5,-420 717.15,-425.4 705.8,-430.26 694.41,-434.52"/>
<polygon fill="fuchsia" stroke="fuchsia" stroke-width="2" points="693.09,-431.27 684.87,-437.95 695.46,-437.86 693.09,-431.27"/>
</g>
<!-- node15&#45;&gt;node10 -->
<g id="edge34" class="edge">
<title>node15&#45;&gt;node10</title>
<path fill="none" stroke="fuchsia" stroke-width="2" d="M610.96,-109.03C613.5,-117.03 615.79,-126.77 617.33,-135.75"/>
<polygon fill="fuchsia" stroke="fuchsia" stroke-width="2" points="613.89,-136.4 618.75,-145.81 620.82,-135.42 613.89,-136.4"/>
</g>
<!-- node15&#45;&gt;node16 -->
<g id="edge37" class="edge">
<title>node15&#45;&gt;node16</title>
<path fill="none" stroke="black" d="M601.5,-72.81C601.5,-64.79 601.5,-55.05 601.5,-46.07"/>
<polygon fill="black" stroke="black" points="605,-46.03 601.5,-36.03 598,-46.03 605,-46.03"/>
<text text-anchor="middle" x="609.95" y="-50.45" font-family="Times,serif" font-size="14.00">*0</text>
</g>
<!-- node16&#45;&gt;node0 -->
<g id="edge36" class="edge">
<title>node16&#45;&gt;node0</title>
<path fill="none" stroke="fuchsia" stroke-width="2" d="M551.85,-36.07C529.04,-44.76 502.53,-56.93 481.5,-73 432.69,-110.3 439.13,-137.77 396.5,-182 378.77,-200.4 365.21,-196.83 352.5,-219 279.46,-346.4 300.99,-369.27 327.5,-401 352.58,-431.01 448.91,-444.37 523.8,-450.3"/>
<polygon fill="fuchsia" stroke="fuchsia" stroke-width="2" points="523.98,-453.83 534.21,-451.09 524.5,-446.85 523.98,-453.83"/>
</g>
<!-- c0 -->
<!-- c1 -->
<!-- c0&#45;&gt;c1 -->
<g id="edge40" class="edge">
<title>c0&#45;&gt;c1</title>
<path fill="none" stroke="red" d="M1569.39,-456C1580.61,-456 1638.74,-456 1664.36,-456"/>
<polygon fill="red" stroke="red" points="1664.56,-459.5 1674.56,-456 1664.56,-452.5 1664.56,-459.5"/>
<text text-anchor="middle" x="1622" y="-462.8" font-family="Times,serif" font-size="14.00">Control flow</text>
</g>
<!-- c2 -->
<!-- c3 -->
<!-- c2&#45;&gt;c3 -->
<g id="edge41" class="edge">
<title>c2&#45;&gt;c3</title>
<path fill="none" stroke="red" stroke-dasharray="5,2" d="M1362.58,-456C1379.55,-456 1495.71,-456 1533.58,-456"/>
<polygon fill="red" stroke="red" points="1533.67,-459.5 1543.67,-456 1533.67,-452.5 1533.67,-459.5"/>
<text text-anchor="middle" x="1453" y="-462.8" font-family="Times,serif" font-size="14.00">Control flow back edge</text>
</g>
<!-- d0 -->
<!-- d1 -->
<!-- d0&#45;&gt;d1 -->
<g id="edge42" class="edge">
<title>d0&#45;&gt;d1</title>
<path fill="none" stroke="black" d="M1251.36,-456C1260.91,-456 1304.81,-456 1326.42,-456"/>
<polygon fill="black" stroke="black" points="1326.65,-459.5 1336.65,-456 1326.65,-452.5 1326.65,-459.5"/>
<text text-anchor="middle" x="1294" y="-462.8" font-family="Times,serif" font-size="14.00">Data flow</text>
</g>
<!-- d2 -->
<!-- d3 -->
<!-- d2&#45;&gt;d3 -->
<g id="edge43" class="edge">
<title>d2&#45;&gt;d3</title>
<path fill="none" stroke="black" stroke-dasharray="1,5" d="M1125.31,-456C1135.96,-456 1190.96,-456 1215.58,-456"/>
<polygon fill="black" stroke="black" points="1215.65,-459.5 1225.65,-456 1215.65,-452.5 1215.65,-459.5"/>
<text text-anchor="middle" x="1175.5" y="-462.8" font-family="Times,serif" font-size="14.00">Declaration</text>
</g>
<!-- d4 -->
<!-- d5 -->
<!-- d4&#45;&gt;d5 -->
<g id="edge44" class="edge">
<title>d4&#45;&gt;d5</title>
<path fill="none" stroke="blue" d="M982.6,-456C995.22,-456 1061.38,-456 1089.18,-456"/>
<polygon fill="blue" stroke="blue" points="1089.34,-459.5 1099.34,-456 1089.34,-452.5 1089.34,-459.5"/>
<text text-anchor="middle" x="1041" y="-462.8" font-family="Times,serif" font-size="14.00">PHI Data flow</text>
</g>
<!-- d6 -->
<!-- d7 -->
<!-- d6&#45;&gt;d7 -->
<g id="edge45" class="edge">
<title>d6&#45;&gt;d7</title>
<path fill="none" stroke="green" d="M845.5,-456C857.44,-456 919.8,-456 946.43,-456"/>
<polygon fill="green" stroke="green" points="946.45,-459.5 956.45,-456 946.45,-452.5 946.45,-459.5"/>
<text text-anchor="middle" x="901" y="-462.8" font-family="Times,serif" font-size="14.00">Memory flow</text>
</g>
<!-- d8 -->
<!-- d9 -->
<!-- d8&#45;&gt;d9 -->
<g id="edge46" class="edge">
<title>d8&#45;&gt;d9</title>
<path fill="none" stroke="fuchsia" d="M722.61,-456C733.65,-456 785.17,-456 809.16,-456"/>
<polygon fill="fuchsia" stroke="fuchsia" points="809.4,-459.5 819.4,-456 809.4,-452.5 809.4,-459.5"/>
<text text-anchor="middle" x="771" y="-462.8" font-family="Times,serif" font-size="14.00">Dominance</text>
</g>
</g>
</svg>
