<?xml version="1.0" encoding="UTF-8" standalone="no"?>
<!DOCTYPE svg PUBLIC "-//W3C//DTD SVG 1.1//EN"
 "http://www.w3.org/Graphics/SVG/1.1/DTD/svg11.dtd">
<!-- Generated by graphviz version 2.43.0 (0)
 -->
<!-- Title: %3 Pages: 1 -->
<svg width="799pt" height="505pt"
 viewBox="0.00 0.00 799.00 504.80" xmlns="http://www.w3.org/2000/svg" xmlns:xlink="http://www.w3.org/1999/xlink">
<g id="graph0" class="graph" transform="scale(1 1) rotate(0) translate(4 500.8)">
<title>%3</title>
<polygon fill="white" stroke="transparent" points="-4,4 -4,-500.8 795,-500.8 795,4 -4,4"/>
<g id="clust1" class="cluster">
<title>cluster_000</title>
<polygon fill="none" stroke="black" points="447,-446.2 447,-488.8 783,-488.8 783,-446.2 447,-446.2"/>
<text text-anchor="middle" x="615" y="-473.6" font-family="Times,serif" font-size="14.00">Legend</text>
</g>
<!-- node0 -->
<g id="node1" class="node">
<title>node0</title>
<polygon fill="lightgrey" stroke="black" points="437,-474 51,-474 51,-438 437,-438 437,-474"/>
<text text-anchor="middle" x="244" y="-452.3" font-family="Times,serif" font-size="14.00">#0 LocalVariable[name=a, slot=0, type=I] Order: 0</text>
</g>
<!-- node1 -->
<g id="node2" class="node">
<title>node1</title>
<polygon fill="lightgrey" stroke="black" points="483.5,-401 4.5,-401 4.5,-365 483.5,-365 483.5,-401"/>
<text text-anchor="middle" x="244" y="-379.3" font-family="Times,serif" font-size="14.00">#1 Label[context=CodeModel[id=1232373427], bci=0] Order: 1</text>
</g>
<!-- node0&#45;&gt;node1 -->
<g id="edge1" class="edge">
<title>node0&#45;&gt;node1</title>
<path fill="none" stroke="red" d="M244,-437.81C244,-429.79 244,-420.05 244,-411.07"/>
<polygon fill="red" stroke="red" points="247.5,-411.03 244,-401.03 240.5,-411.03 247.5,-411.03"/>
</g>
<!-- node2 -->
<g id="node3" class="node">
<title>node2</title>
<polygon fill="lightgrey" stroke="black" points="375.5,-328 112.5,-328 112.5,-292 375.5,-292 375.5,-328"/>
<text text-anchor="middle" x="244" y="-306.3" font-family="Times,serif" font-size="14.00">#2 LineNumber[line=16] Order: 2</text>
</g>
<!-- node1&#45;&gt;node2 -->
<g id="edge2" class="edge">
<title>node1&#45;&gt;node2</title>
<path fill="none" stroke="red" d="M244,-364.81C244,-356.79 244,-347.05 244,-338.07"/>
<polygon fill="red" stroke="red" points="247.5,-338.03 244,-328.03 240.5,-338.03 247.5,-338.03"/>
</g>
<!-- node3 -->
<g id="node4" class="node">
<title>node3</title>
<polygon fill="lightgrey" stroke="black" points="395.5,-255 92.5,-255 92.5,-219 395.5,-219 395.5,-255"/>
<text text-anchor="middle" x="244" y="-233.3" font-family="Times,serif" font-size="14.00">#3 Load[OP=ILOAD_0, slot=0] Order: 3</text>
</g>
<!-- node2&#45;&gt;node3 -->
<g id="edge3" class="edge">
<title>node2&#45;&gt;node3</title>
<path fill="none" stroke="red" d="M244,-291.81C244,-283.79 244,-274.05 244,-265.07"/>
<polygon fill="red" stroke="red" points="247.5,-265.03 244,-255.03 240.5,-265.03 247.5,-265.03"/>
</g>
<!-- node4 -->
<g id="node5" class="node">
<title>node4</title>
<polygon fill="lightgrey" stroke="black" points="488,-182 0,-182 0,-146 488,-146 488,-182"/>
<text text-anchor="middle" x="244" y="-160.3" font-family="Times,serif" font-size="14.00">#4 UnboundIntrinsicConstantInstruction[op=ICONST_1] Order: 4</text>
</g>
<!-- node3&#45;&gt;node4 -->
<g id="edge4" class="edge">
<title>node3&#45;&gt;node4</title>
<path fill="none" stroke="red" d="M244,-218.81C244,-210.79 244,-201.05 244,-192.07"/>
<polygon fill="red" stroke="red" points="247.5,-192.03 244,-182.03 240.5,-192.03 247.5,-192.03"/>
</g>
<!-- node5 -->
<g id="node6" class="node">
<title>node5</title>
<polygon fill="lightgrey" stroke="black" points="440,-109 48,-109 48,-73 440,-73 440,-109"/>
<text text-anchor="middle" x="244" y="-87.3" font-family="Times,serif" font-size="14.00">#5 UnboundOperatorInstruction[op=IADD] Order: 5</text>
</g>
<!-- node4&#45;&gt;node5 -->
<g id="edge5" class="edge">
<title>node4&#45;&gt;node5</title>
<path fill="none" stroke="red" d="M244,-145.81C244,-137.79 244,-128.05 244,-119.07"/>
<polygon fill="red" stroke="red" points="247.5,-119.03 244,-109.03 240.5,-119.03 247.5,-119.03"/>
</g>
<!-- node6 -->
<g id="node7" class="node">
<title>node6</title>
<polygon fill="lightgrey" stroke="black" points="378.5,-36 109.5,-36 109.5,0 378.5,0 378.5,-36"/>
<text text-anchor="middle" x="244" y="-14.3" font-family="Times,serif" font-size="14.00">#6 Return[OP=IRETURN] Order: 6</text>
</g>
<!-- node5&#45;&gt;node6 -->
<g id="edge6" class="edge">
<title>node5&#45;&gt;node6</title>
<path fill="none" stroke="red" d="M244,-72.81C244,-64.79 244,-55.05 244,-46.07"/>
<polygon fill="red" stroke="red" points="247.5,-46.03 244,-36.03 240.5,-46.03 247.5,-46.03"/>
</g>
<!-- c0 -->
<!-- c1 -->
<!-- c0&#45;&gt;c1 -->
<g id="edge7" class="edge">
<title>c0&#45;&gt;c1</title>
<path fill="none" stroke="red" d="M665.89,-456C677.11,-456 735.24,-456 760.86,-456"/>
<polygon fill="red" stroke="red" points="761.06,-459.5 771.06,-456 761.06,-452.5 761.06,-459.5"/>
<text text-anchor="middle" x="718.5" y="-462.8" font-family="Times,serif" font-size="14.00">Control flow</text>
</g>
<!-- c2 -->
<!-- c3 -->
<!-- c2&#45;&gt;c3 -->
<g id="edge8" class="edge">
<title>c2&#45;&gt;c3</title>
<path fill="none" stroke="red" stroke-dasharray="5,2" d="M459.08,-456C476.05,-456 592.21,-456 630.08,-456"/>
<polygon fill="red" stroke="red" points="630.17,-459.5 640.17,-456 630.17,-452.5 630.17,-459.5"/>
<text text-anchor="middle" x="549.5" y="-462.8" font-family="Times,serif" font-size="14.00">Control flow back edge</text>
</g>
</g>
</svg>
