<?xml version="1.0" encoding="UTF-8" standalone="no"?>
<!DOCTYPE svg PUBLIC "-//W3C//DTD SVG 1.1//EN"
 "http://www.w3.org/Graphics/SVG/1.1/DTD/svg11.dtd">
<!-- Generated by graphviz version 2.43.0 (0)
 -->
<!-- Title: %3 Pages: 1 -->
<svg width="1007pt" height="297pt"
 viewBox="0.00 0.00 1007.00 297.00" xmlns="http://www.w3.org/2000/svg" xmlns:xlink="http://www.w3.org/1999/xlink">
<g id="graph0" class="graph" transform="scale(1 1) rotate(0) translate(4 293)">
<title>%3</title>
<polygon fill="white" stroke="transparent" points="-4,4 -4,-293 1003,-293 1003,4 -4,4"/>
<g id="clust1" class="cluster">
<title>cluster_0</title>
<polygon fill="none" stroke="lightgray" points="8,-138 8,-281 130,-281 130,-138 8,-138"/>
</g>
<g id="clust2" class="cluster">
<title>cluster_000</title>
<polygon fill="none" stroke="black" points="138,-236.2 138,-278.8 991,-278.8 991,-236.2 138,-236.2"/>
<text text-anchor="middle" x="564.5" y="-263.6" font-family="Times,serif" font-size="14.00">Legend</text>
</g>
<!-- node0 -->
<g id="node1" class="node">
<title>node0</title>
<polygon fill="lightgrey" stroke="transparent" points="122.5,-273 29.5,-273 29.5,-219 122.5,-219 122.5,-273"/>
<polygon fill="none" stroke="black" points="30,-246 30,-273 123,-273 123,-246 30,-246"/>
<text text-anchor="start" x="36" y="-255.8" font-family="Times,serif" font-size="14.00">#0 Method</text>
<polygon fill="yellow" stroke="transparent" points="30,-219 30,-246 123,-246 123,-219 30,-219"/>
<polygon fill="none" stroke="black" points="30,-219 30,-246 123,-246 123,-219 30,-219"/>
<text text-anchor="start" x="43" y="-228.8" font-family="Times,serif" font-size="14.00">arg0 : int</text>
</g>
<!-- node4 -->
<g id="node2" class="node">
<title>node4</title>
<polygon fill="orange" stroke="black" points="210.42,-83.54 210.42,-98.46 168,-109 108,-109 65.58,-98.46 65.58,-83.54 108,-73 168,-73 210.42,-83.54"/>
<text text-anchor="middle" x="138" y="-87.3" font-family="Times,serif" font-size="14.00">#4 Add : int</text>
</g>
<!-- node0&#45;&gt;node4 -->
<g id="edge1" class="edge">
<title>node0:prj1&#45;&gt;node4</title>
<path fill="none" stroke="black" d="M124,-232C135.21,-232 137.54,-159.99 137.96,-119.26"/>
<polygon fill="black" stroke="black" points="141.46,-119.19 138.04,-109.17 134.47,-119.14 141.46,-119.19"/>
<text text-anchor="middle" x="146.36" y="-123.65" font-family="Times,serif" font-size="14.00">*0</text>
</g>
<!-- node3 -->
<g id="node3" class="node">
<title>node3</title>
<polygon fill="lightgreen" stroke="black" points="121.52,-156.54 121.52,-171.46 90.76,-182 47.24,-182 16.48,-171.46 16.48,-156.54 47.24,-146 90.76,-146 121.52,-156.54"/>
<text text-anchor="middle" x="69" y="-160.3" font-family="Times,serif" font-size="14.00">#3 int 1</text>
</g>
<!-- node0&#45;&gt;node3 -->
<g id="edge3" class="edge">
<title>node0&#45;&gt;node3</title>
<path fill="none" stroke="black" stroke-dasharray="1,5" d="M73.71,-218.81C72.97,-210.35 72.15,-200.95 71.4,-192.4"/>
<polygon fill="black" stroke="black" points="74.86,-191.83 70.5,-182.17 67.89,-192.44 74.86,-191.83"/>
</g>
<!-- node5 -->
<g id="node4" class="node">
<title>node5</title>
<polygon fill="lightgrey" stroke="black" points="289,-36 125,-36 125,0 289,0 289,-36"/>
<text text-anchor="middle" x="207" y="-14.3" font-family="Times,serif" font-size="14.00">#5 ReturnValue : int</text>
</g>
<!-- node0&#45;&gt;node5 -->
<g id="edge6" class="edge">
<title>node0&#45;&gt;node5</title>
<path fill="none" stroke="green" d="M122.7,-219.91C131.52,-214.24 140.37,-207.85 148,-201 186.45,-166.52 202.33,-157.89 219,-109 226.01,-88.45 222,-63.96 216.8,-45.72"/>
<polygon fill="green" stroke="green" points="220.1,-44.53 213.77,-36.04 213.42,-46.63 220.1,-44.53"/>
</g>
<!-- node2 -->
<g id="node5" class="node">
<title>node2</title>
<polygon fill="lightgrey" stroke="black" points="335.5,-182 216.5,-182 216.5,-146 335.5,-146 335.5,-182"/>
<text text-anchor="middle" x="276" y="-160.3" font-family="Times,serif" font-size="14.00">#2 LabelNode</text>
</g>
<!-- node0&#45;&gt;node2 -->
<g id="edge7" class="edge">
<title>node0&#45;&gt;node2</title>
<path fill="none" stroke="red" d="M122.63,-223.45C126.45,-221.88 130.27,-220.38 134,-219 160.51,-209.2 168.47,-210.76 195,-201 206.73,-196.68 219.18,-191.48 230.7,-186.39"/>
<polygon fill="red" stroke="red" points="232.44,-189.44 240.13,-182.16 229.57,-183.06 232.44,-189.44"/>
</g>
<!-- node4&#45;&gt;node5 -->
<g id="edge4" class="edge">
<title>node4&#45;&gt;node5</title>
<path fill="none" stroke="black" d="M154.7,-72.81C163.26,-64 173.84,-53.13 183.23,-43.46"/>
<polygon fill="black" stroke="black" points="185.99,-45.64 190.45,-36.03 180.97,-40.76 185.99,-45.64"/>
<text text-anchor="middle" x="183.88" y="-51.22" font-family="Times,serif" font-size="14.00">*0</text>
</g>
<!-- node3&#45;&gt;node4 -->
<g id="edge2" class="edge">
<title>node3&#45;&gt;node4</title>
<path fill="none" stroke="black" d="M85.7,-145.81C94.26,-137 104.84,-126.13 114.23,-116.46"/>
<polygon fill="black" stroke="black" points="116.99,-118.64 121.45,-109.03 111.97,-113.76 116.99,-118.64"/>
<text text-anchor="middle" x="114.88" y="-124.22" font-family="Times,serif" font-size="14.00">*1</text>
</g>
<!-- node2&#45;&gt;node5 -->
<g id="edge5" class="edge">
<title>node2&#45;&gt;node5</title>
<path fill="none" stroke="red" d="M267.81,-145.92C255.88,-121.02 233.61,-74.54 219.59,-45.27"/>
<polygon fill="red" stroke="red" points="222.65,-43.57 215.18,-36.06 216.34,-46.59 222.65,-43.57"/>
</g>
<!-- c0 -->
<!-- c1 -->
<!-- c0&#45;&gt;c1 -->
<g id="edge8" class="edge">
<title>c0&#45;&gt;c1</title>
<path fill="none" stroke="red" d="M873.89,-246C885.11,-246 943.24,-246 968.86,-246"/>
<polygon fill="red" stroke="red" points="969.06,-249.5 979.06,-246 969.06,-242.5 969.06,-249.5"/>
<text text-anchor="middle" x="926.5" y="-252.8" font-family="Times,serif" font-size="14.00">Control flow</text>
</g>
<!-- c2 -->
<!-- c3 -->
<!-- c2&#45;&gt;c3 -->
<g id="edge9" class="edge">
<title>c2&#45;&gt;c3</title>
<path fill="none" stroke="red" stroke-dasharray="5,2" d="M667.08,-246C684.05,-246 800.21,-246 838.08,-246"/>
<polygon fill="red" stroke="red" points="838.17,-249.5 848.17,-246 838.17,-242.5 838.17,-249.5"/>
<text text-anchor="middle" x="757.5" y="-252.8" font-family="Times,serif" font-size="14.00">Control flow back edge</text>
</g>
<!-- d0 -->
<!-- d1 -->
<!-- d0&#45;&gt;d1 -->
<g id="edge10" class="edge">
<title>d0&#45;&gt;d1</title>
<path fill="none" stroke="black" d="M555.86,-246C565.41,-246 609.31,-246 630.92,-246"/>
<polygon fill="black" stroke="black" points="631.15,-249.5 641.15,-246 631.15,-242.5 631.15,-249.5"/>
<text text-anchor="middle" x="598.5" y="-252.8" font-family="Times,serif" font-size="14.00">Data flow</text>
</g>
<!-- d2 -->
<!-- d3 -->
<!-- d2&#45;&gt;d3 -->
<g id="edge11" class="edge">
<title>d2&#45;&gt;d3</title>
<path fill="none" stroke="black" stroke-dasharray="1,5" d="M429.81,-246C440.46,-246 495.46,-246 520.08,-246"/>
<polygon fill="black" stroke="black" points="520.15,-249.5 530.15,-246 520.15,-242.5 520.15,-249.5"/>
<text text-anchor="middle" x="480" y="-252.8" font-family="Times,serif" font-size="14.00">Declaration</text>
</g>
<!-- d4 -->
<!-- d5 -->
<!-- d4&#45;&gt;d5 -->
<g id="edge12" class="edge">
<title>d4&#45;&gt;d5</title>
<path fill="none" stroke="blue" d="M287.1,-246C299.72,-246 365.88,-246 393.68,-246"/>
<polygon fill="blue" stroke="blue" points="393.84,-249.5 403.84,-246 393.84,-242.5 393.84,-249.5"/>
<text text-anchor="middle" x="345.5" y="-252.8" font-family="Times,serif" font-size="14.00">PHI Data flow</text>
</g>
<!-- d6 -->
<!-- d7 -->
<!-- d6&#45;&gt;d7 -->
<g id="edge13" class="edge">
<title>d6&#45;&gt;d7</title>
<path fill="none" stroke="green" d="M150,-246C161.94,-246 224.3,-246 250.93,-246"/>
<polygon fill="green" stroke="green" points="250.95,-249.5 260.95,-246 250.95,-242.5 250.95,-249.5"/>
<text text-anchor="middle" x="205.5" y="-252.8" font-family="Times,serif" font-size="14.00">Memory flow</text>
</g>
</g>
</svg>
