<?xml version="1.0" encoding="UTF-8" standalone="no"?>
<!DOCTYPE svg PUBLIC "-//W3C//DTD SVG 1.1//EN"
 "http://www.w3.org/Graphics/SVG/1.1/DTD/svg11.dtd">
<!-- Generated by graphviz version 2.43.0 (0)
 -->
<!-- Title: debugoutput Pages: 1 -->
<svg width="1359pt" height="286pt"
 viewBox="0.00 0.00 1359.00 285.80" xmlns="http://www.w3.org/2000/svg" xmlns:xlink="http://www.w3.org/1999/xlink">
<g id="graph0" class="graph" transform="scale(1 1) rotate(0) translate(4 281.8)">
<title>debugoutput</title>
<polygon fill="white" stroke="transparent" points="-4,4 -4,-281.8 1355,-281.8 1355,4 -4,4"/>
<g id="clust1" class="cluster">
<title>cluster_000</title>
<polygon fill="none" stroke="black" points="504,-227.2 504,-269.8 1343,-269.8 1343,-227.2 504,-227.2"/>
<text text-anchor="middle" x="923.5" y="-254.6" font-family="Times,serif" font-size="14.00">Legend</text>
</g>
<!-- node0 -->
<g id="node1" class="node">
<title>node0</title>
<polygon fill="lightgrey" stroke="black" points="494,-255 328,-255 328,-219 494,-219 494,-255"/>
<text text-anchor="middle" x="411" y="-233.3" font-family="Times,serif" font-size="14.00">#0 Method Order : 0</text>
</g>
<!-- node1 -->
<g id="node2" class="node">
<title>node1</title>
<polygon fill="lightgrey" stroke="black" points="383.5,-182 206.5,-182 206.5,-146 383.5,-146 383.5,-182"/>
<text text-anchor="middle" x="295" y="-160.3" font-family="Times,serif" font-size="14.00">#1 arg0 : int Order : 3</text>
</g>
<!-- node0&#45;&gt;node1 -->
<g id="edge2" class="edge">
<title>node0&#45;&gt;node1</title>
<path fill="none" stroke="black" d="M377.36,-218.99C360.97,-209.58 341.5,-197.76 325.55,-187.57"/>
<polygon fill="black" stroke="black" points="327.39,-184.6 317.09,-182.11 323.59,-190.48 327.39,-184.6"/>
<text text-anchor="middle" x="336.9" y="-181.15" font-family="Times,serif" font-size="14.00">*0</text>
</g>
<!-- node2 -->
<g id="node3" class="node">
<title>node2</title>
<polygon fill="lightgrey" stroke="black" points="188,-182 0,-182 0,-146 188,-146 188,-182"/>
<text text-anchor="middle" x="94" y="-160.3" font-family="Times,serif" font-size="14.00">#2 LabelNode Order : 2</text>
</g>
<!-- node0&#45;&gt;node2 -->
<g id="edge4" class="edge">
<title>node0&#45;&gt;node2</title>
<path fill="none" stroke="red" d="M329.21,-218.99C281.51,-208.56 221.62,-195.16 174.19,-184.32"/>
<polygon fill="red" stroke="red" points="174.8,-180.87 164.27,-182.05 173.24,-187.7 174.8,-180.87"/>
</g>
<!-- node3 -->
<g id="node4" class="node">
<title>node3</title>
<polygon fill="lightgreen" stroke="black" points="641.11,-156.54 641.11,-171.46 581.88,-182 498.12,-182 438.89,-171.46 438.89,-156.54 498.12,-146 581.88,-146 641.11,-156.54"/>
<text text-anchor="middle" x="540" y="-160.3" font-family="Times,serif" font-size="14.00">#3 int 1 Order : 1</text>
</g>
<!-- node0&#45;&gt;node3 -->
<g id="edge6" class="edge">
<title>node0&#45;&gt;node3</title>
<path fill="none" stroke="black" stroke-dasharray="1,5" d="M436.04,-218.99C452.52,-209.36 474.46,-197.21 493.98,-186.87"/>
<polygon fill="black" stroke="black" points="495.81,-189.86 503.04,-182.11 492.55,-183.66 495.81,-189.86"/>
</g>
<!-- node5 -->
<g id="node6" class="node">
<title>node5</title>
<polygon fill="lightgrey" stroke="black" points="760.5,-36 527.5,-36 527.5,0 760.5,0 760.5,-36"/>
<text text-anchor="middle" x="644" y="-14.3" font-family="Times,serif" font-size="14.00">#5 ReturnValue : int Order : 5</text>
</g>
<!-- node0&#45;&gt;node5 -->
<g id="edge13" class="edge">
<title>node0&#45;&gt;node5</title>
<path fill="none" stroke="black" d="M490.89,-218.96C555.36,-205.58 636.04,-188.21 641,-182 671.76,-143.51 657.94,-82.04 648.75,-46.61"/>
<polygon fill="black" stroke="black" points="652.02,-45.29 646.1,-36.51 645.25,-47.07 652.02,-45.29"/>
</g>
<!-- node1&#45;&gt;node0 -->
<g id="edge1" class="edge">
<title>node1&#45;&gt;node0</title>
<path fill="none" stroke="green" stroke-width="2" d="M328.83,-182.11C345.24,-191.55 364.71,-203.37 380.63,-213.54"/>
<polygon fill="green" stroke="green" stroke-width="2" points="378.78,-216.51 389.07,-218.99 382.57,-210.63 378.78,-216.51"/>
</g>
<!-- node4 -->
<g id="node5" class="node">
<title>node4</title>
<polygon fill="orange" stroke="black" points="565,-83.54 565,-98.46 494.12,-109 393.88,-109 323,-98.46 323,-83.54 393.88,-73 494.12,-73 565,-83.54"/>
<text text-anchor="middle" x="444" y="-87.3" font-family="Times,serif" font-size="14.00">#4 Add : int Order : 4</text>
</g>
<!-- node1&#45;&gt;node4 -->
<g id="edge8" class="edge">
<title>node1&#45;&gt;node4</title>
<path fill="none" stroke="black" d="M330.69,-145.99C351.18,-136.23 377.1,-123.88 398.98,-113.45"/>
<polygon fill="black" stroke="black" points="400.56,-116.57 408.09,-109.11 397.55,-110.26 400.56,-116.57"/>
<text text-anchor="middle" x="395.36" y="-120.84" font-family="Times,serif" font-size="14.00">*0</text>
</g>
<!-- node2&#45;&gt;node0 -->
<g id="edge3" class="edge">
<title>node2&#45;&gt;node0</title>
<path fill="none" stroke="green" stroke-width="2" d="M176,-182.05C223.74,-192.5 283.62,-205.89 331.02,-216.72"/>
<polygon fill="green" stroke="green" stroke-width="2" points="330.4,-220.17 340.93,-218.99 331.96,-213.35 330.4,-220.17"/>
</g>
<!-- node2&#45;&gt;node5 -->
<g id="edge12" class="edge">
<title>node2&#45;&gt;node5</title>
<path fill="none" stroke="red" d="M128.57,-145.99C171.18,-125.7 246.29,-92.12 314,-73 379.89,-54.39 455.1,-41.47 517.07,-32.94"/>
<polygon fill="red" stroke="red" points="517.85,-36.37 527.29,-31.56 516.91,-29.43 517.85,-36.37"/>
</g>
<!-- node3&#45;&gt;node0 -->
<g id="edge5" class="edge">
<title>node3&#45;&gt;node0</title>
<path fill="none" stroke="green" stroke-width="2" d="M514.78,-182.11C498.26,-191.77 476.31,-203.92 456.81,-214.24"/>
<polygon fill="green" stroke="green" stroke-width="2" points="454.99,-211.25 447.76,-218.99 458.24,-217.45 454.99,-211.25"/>
</g>
<!-- node3&#45;&gt;node4 -->
<g id="edge9" class="edge">
<title>node3&#45;&gt;node4</title>
<path fill="none" stroke="black" d="M516.76,-145.81C504.26,-136.57 488.68,-125.04 475.14,-115.03"/>
<polygon fill="black" stroke="black" points="477.15,-112.16 467.02,-109.03 472.98,-117.79 477.15,-112.16"/>
<text text-anchor="middle" x="486.62" y="-109.31" font-family="Times,serif" font-size="14.00">*1</text>
</g>
<!-- node4&#45;&gt;node0 -->
<g id="edge7" class="edge">
<title>node4&#45;&gt;node0</title>
<path fill="none" stroke="green" stroke-width="2" d="M439.26,-109.46C436.45,-120.01 432.88,-133.74 430,-146 425.07,-166.95 420.07,-190.79 416.43,-208.67"/>
<polygon fill="green" stroke="green" stroke-width="2" points="412.96,-208.2 414.41,-218.69 419.82,-209.58 412.96,-208.2"/>
</g>
<!-- node4&#45;&gt;node5 -->
<g id="edge11" class="edge">
<title>node4&#45;&gt;node5</title>
<path fill="none" stroke="black" d="M491.9,-72.99C520.27,-62.92 556.39,-50.1 586.31,-39.48"/>
<polygon fill="black" stroke="black" points="587.54,-42.76 595.79,-36.11 585.2,-36.16 587.54,-42.76"/>
<text text-anchor="middle" x="581.54" y="-46.44" font-family="Times,serif" font-size="14.00">*0</text>
</g>
<!-- node5&#45;&gt;node0 -->
<g id="edge10" class="edge">
<title>node5&#45;&gt;node0</title>
<path fill="none" stroke="green" stroke-width="2" d="M656.51,-36.51C672.6,-69.08 692.95,-139.53 659,-182 654.01,-188.25 572.44,-205.78 504.14,-219.19"/>
<polygon fill="green" stroke="green" stroke-width="2" points="503.31,-215.79 494.17,-221.14 504.65,-222.66 503.31,-215.79"/>
</g>
<!-- c0 -->
<!-- c1 -->
<!-- c0&#45;&gt;c1 -->
<g id="edge14" class="edge">
<title>c0&#45;&gt;c1</title>
<path fill="none" stroke="red" d="M1225.89,-237C1237.11,-237 1295.24,-237 1320.86,-237"/>
<polygon fill="red" stroke="red" points="1321.06,-240.5 1331.06,-237 1321.06,-233.5 1321.06,-240.5"/>
<text text-anchor="middle" x="1278.5" y="-243.8" font-family="Times,serif" font-size="14.00">Control flow</text>
</g>
<!-- c2 -->
<!-- c3 -->
<!-- c2&#45;&gt;c3 -->
<g id="edge15" class="edge">
<title>c2&#45;&gt;c3</title>
<path fill="none" stroke="red" stroke-dasharray="5,2" d="M1019.08,-237C1036.05,-237 1152.21,-237 1190.08,-237"/>
<polygon fill="red" stroke="red" points="1190.17,-240.5 1200.17,-237 1190.17,-233.5 1190.17,-240.5"/>
<text text-anchor="middle" x="1109.5" y="-243.8" font-family="Times,serif" font-size="14.00">Control flow back edge</text>
</g>
<!-- d0 -->
<!-- d1 -->
<!-- d0&#45;&gt;d1 -->
<g id="edge16" class="edge">
<title>d0&#45;&gt;d1</title>
<path fill="none" stroke="black" d="M907.86,-237C917.41,-237 961.31,-237 982.92,-237"/>
<polygon fill="black" stroke="black" points="983.15,-240.5 993.15,-237 983.15,-233.5 983.15,-240.5"/>
<text text-anchor="middle" x="950.5" y="-243.8" font-family="Times,serif" font-size="14.00">Data flow</text>
</g>
<!-- d2 -->
<!-- d3 -->
<!-- d2&#45;&gt;d3 -->
<g id="edge17" class="edge">
<title>d2&#45;&gt;d3</title>
<path fill="none" stroke="black" stroke-dasharray="1,5" d="M781.81,-237C792.46,-237 847.46,-237 872.08,-237"/>
<polygon fill="black" stroke="black" points="872.15,-240.5 882.15,-237 872.15,-233.5 872.15,-240.5"/>
<text text-anchor="middle" x="832" y="-243.8" font-family="Times,serif" font-size="14.00">Declaration</text>
</g>
<!-- d4 -->
<!-- d5 -->
<!-- d4&#45;&gt;d5 -->
<g id="edge18" class="edge">
<title>d4&#45;&gt;d5</title>
<path fill="none" stroke="blue" d="M639.1,-237C651.72,-237 717.88,-237 745.68,-237"/>
<polygon fill="blue" stroke="blue" points="745.84,-240.5 755.84,-237 745.84,-233.5 745.84,-240.5"/>
<text text-anchor="middle" x="697.5" y="-243.8" font-family="Times,serif" font-size="14.00">PHI Data flow</text>
</g>
<!-- d6 -->
<!-- d7 -->
<!-- d6&#45;&gt;d7 -->
<g id="edge19" class="edge">
<title>d6&#45;&gt;d7</title>
<path fill="none" stroke="green" d="M516.11,-237C527.15,-237 578.67,-237 602.66,-237"/>
<polygon fill="green" stroke="green" points="602.9,-240.5 612.9,-237 602.9,-233.5 602.9,-240.5"/>
<text text-anchor="middle" x="564.5" y="-243.8" font-family="Times,serif" font-size="14.00">Dominance</text>
</g>
</g>
</svg>
