<?xml version="1.0" encoding="UTF-8" standalone="no"?>
<!DOCTYPE svg PUBLIC "-//W3C//DTD SVG 1.1//EN"
 "http://www.w3.org/Graphics/SVG/1.1/DTD/svg11.dtd">
<!-- Generated by graphviz version 2.43.0 (0)
 -->
<!-- Title: %3 Pages: 1 -->
<svg width="1145pt" height="441pt"
 viewBox="0.00 0.00 1144.50 440.80" xmlns="http://www.w3.org/2000/svg" xmlns:xlink="http://www.w3.org/1999/xlink">
<g id="graph0" class="graph" transform="scale(1 1) rotate(0) translate(4 436.8)">
<title>%3</title>
<polygon fill="white" stroke="transparent" points="-4,4 -4,-436.8 1140.5,-436.8 1140.5,4 -4,4"/>
<g id="clust1" class="cluster">
<title>cluster_0</title>
<polygon fill="none" stroke="lightgray" points="12.5,-211 12.5,-336 470.5,-336 470.5,-211 12.5,-211"/>
</g>
<g id="clust2" class="cluster">
<title>cluster_000</title>
<polygon fill="none" stroke="black" points="275.5,-382.2 275.5,-424.8 1128.5,-424.8 1128.5,-382.2 275.5,-382.2"/>
<text text-anchor="middle" x="702" y="-409.6" font-family="Times,serif" font-size="14.00">Legend</text>
</g>
<!-- node0 -->
<g id="node1" class="node">
<title>node0</title>
<polygon fill="lightgrey" stroke="transparent" points="266,-419 81,-419 81,-365 266,-365 266,-419"/>
<polygon fill="none" stroke="black" points="81.5,-392 81.5,-419 266.5,-419 266.5,-392 81.5,-392"/>
<text text-anchor="start" x="133.5" y="-401.8" font-family="Times,serif" font-size="14.00">#0 Method</text>
<polygon fill="yellow" stroke="transparent" points="81.5,-365 81.5,-392 266.5,-392 266.5,-365 81.5,-365"/>
<polygon fill="none" stroke="black" points="81.5,-365 81.5,-392 266.5,-392 266.5,-365 81.5,-365"/>
<text text-anchor="start" x="87.5" y="-374.8" font-family="Times,serif" font-size="14.00">this : MethodInvokeTest</text>
</g>
<!-- node2 -->
<g id="node2" class="node">
<title>node2</title>
<polygon fill="lightgrey" stroke="black" points="233,-328 114,-328 114,-292 233,-292 233,-328"/>
<text text-anchor="middle" x="173.5" y="-306.3" font-family="Times,serif" font-size="14.00">#2 LabelNode</text>
</g>
<!-- node0&#45;&gt;node2 -->
<g id="edge1" class="edge">
<title>node0&#45;&gt;node2</title>
<path fill="none" stroke="red" d="M173.5,-364.81C173.5,-356.35 173.5,-346.95 173.5,-338.4"/>
<polygon fill="red" stroke="red" points="177,-338.17 173.5,-328.17 170,-338.17 177,-338.17"/>
</g>
<!-- node5 -->
<g id="node3" class="node">
<title>node5</title>
<polygon fill="lightgrey" stroke="black" points="226,-182 121,-182 121,-146 226,-146 226,-182"/>
<text text-anchor="middle" x="173.5" y="-160.3" font-family="Times,serif" font-size="14.00">#5 ClassInit</text>
</g>
<!-- node0&#45;&gt;node5 -->
<g id="edge3" class="edge">
<title>node0&#45;&gt;node5</title>
<path fill="none" stroke="green" d="M266.02,-366.14C267.86,-365.75 269.69,-365.37 271.5,-365 316.16,-355.92 444.64,-370.43 474.5,-336 510.9,-294.03 510.69,-253.15 474.5,-211 444.46,-176.03 315.63,-167.36 236.57,-165.38"/>
<polygon fill="green" stroke="green" points="236.31,-161.88 226.24,-165.15 236.16,-168.87 236.31,-161.88"/>
</g>
<!-- node2&#45;&gt;node5 -->
<g id="edge4" class="edge">
<title>node2&#45;&gt;node5</title>
<path fill="none" stroke="red" d="M113.61,-305.79C77.7,-300.41 34.64,-287.11 11.5,-255 0.07,-239.14 -0.29,-226.6 11.5,-211 23.77,-194.76 70.59,-182.58 110.77,-174.85"/>
<polygon fill="red" stroke="red" points="111.62,-178.25 120.81,-172.98 110.34,-171.37 111.62,-178.25"/>
</g>
<!-- node4 -->
<g id="node4" class="node">
<title>node4</title>
<polygon fill="lightgreen" stroke="black" points="326.32,-229.54 326.32,-244.46 236.8,-255 110.2,-255 20.68,-244.46 20.68,-229.54 110.2,-219 236.8,-219 326.32,-229.54"/>
<text text-anchor="middle" x="173.5" y="-233.3" font-family="Times,serif" font-size="14.00">#4 Class MethodInvokeTest</text>
</g>
<!-- node2&#45;&gt;node4 -->
<g id="edge5" class="edge">
<title>node2&#45;&gt;node4</title>
<path fill="none" stroke="black" stroke-dasharray="1,5" d="M173.5,-291.81C173.5,-283.79 173.5,-274.05 173.5,-265.07"/>
<polygon fill="black" stroke="black" points="177,-265.03 173.5,-255.03 170,-265.03 177,-265.03"/>
</g>
<!-- node3 -->
<g id="node6" class="node">
<title>node3</title>
<polygon fill="lightgreen" stroke="black" points="462.69,-229.54 462.69,-244.46 428.02,-255 378.98,-255 344.31,-244.46 344.31,-229.54 378.98,-219 428.02,-219 462.69,-229.54"/>
<text text-anchor="middle" x="403.5" y="-233.3" font-family="Times,serif" font-size="14.00">#3 int 10</text>
</g>
<!-- node2&#45;&gt;node3 -->
<g id="edge10" class="edge">
<title>node2&#45;&gt;node3</title>
<path fill="none" stroke="black" stroke-dasharray="1,5" d="M228.59,-291.99C266.49,-280.29 316.44,-264.88 353.25,-253.51"/>
<polygon fill="black" stroke="black" points="354.74,-256.71 363.26,-250.42 352.68,-250.03 354.74,-256.71"/>
</g>
<!-- node6 -->
<g id="node5" class="node">
<title>node6</title>
<polygon fill="lightgrey" stroke="black" points="347,-109 0,-109 0,-73 347,-73 347,-109"/>
<text text-anchor="middle" x="173.5" y="-87.3" font-family="Times,serif" font-size="14.00">#6 Invoke static staticReturnByte : (byte)byte</text>
</g>
<!-- node5&#45;&gt;node6 -->
<g id="edge6" class="edge">
<title>node5&#45;&gt;node6</title>
<path fill="none" stroke="black" d="M161.74,-145.81C160.06,-137.79 159.6,-128.05 160.34,-119.07"/>
<polygon fill="black" stroke="black" points="163.83,-119.42 161.78,-109.03 156.9,-118.43 163.83,-119.42"/>
<text text-anchor="middle" x="167.58" y="-124.47" font-family="Times,serif" font-size="14.00">*0</text>
</g>
<!-- node5&#45;&gt;node6 -->
<g id="edge8" class="edge">
<title>node5&#45;&gt;node6</title>
<path fill="none" stroke="green" d="M173.5,-145.81C173.5,-137.79 173.5,-128.05 173.5,-119.07"/>
<polygon fill="green" stroke="green" points="177,-119.03 173.5,-109.03 170,-119.03 177,-119.03"/>
</g>
<!-- node5&#45;&gt;node6 -->
<g id="edge9" class="edge">
<title>node5&#45;&gt;node6</title>
<path fill="none" stroke="red" d="M185.26,-145.81C186.94,-137.79 187.4,-128.05 186.66,-119.07"/>
<polygon fill="red" stroke="red" points="190.1,-118.43 185.22,-109.03 183.17,-119.42 190.1,-118.43"/>
</g>
<!-- node4&#45;&gt;node5 -->
<g id="edge2" class="edge">
<title>node4&#45;&gt;node5</title>
<path fill="none" stroke="black" d="M173.5,-218.81C173.5,-210.79 173.5,-201.05 173.5,-192.07"/>
<polygon fill="black" stroke="black" points="177,-192.03 173.5,-182.03 170,-192.03 177,-192.03"/>
<text text-anchor="middle" x="181.95" y="-196.45" font-family="Times,serif" font-size="14.00">*0</text>
</g>
<!-- node7 -->
<g id="node7" class="node">
<title>node7</title>
<polygon fill="lightgrey" stroke="black" points="255.5,-36 91.5,-36 91.5,0 255.5,0 255.5,-36"/>
<text text-anchor="middle" x="173.5" y="-14.3" font-family="Times,serif" font-size="14.00">#7 ReturnValue : int</text>
</g>
<!-- node6&#45;&gt;node7 -->
<g id="edge11" class="edge">
<title>node6&#45;&gt;node7</title>
<path fill="none" stroke="black" d="M161.74,-72.81C160.06,-64.79 159.6,-55.05 160.34,-46.07"/>
<polygon fill="black" stroke="black" points="163.83,-46.42 161.78,-36.03 156.9,-45.43 163.83,-46.42"/>
<text text-anchor="middle" x="167.58" y="-51.47" font-family="Times,serif" font-size="14.00">*0</text>
</g>
<!-- node6&#45;&gt;node7 -->
<g id="edge12" class="edge">
<title>node6&#45;&gt;node7</title>
<path fill="none" stroke="red" d="M173.5,-72.81C173.5,-64.79 173.5,-55.05 173.5,-46.07"/>
<polygon fill="red" stroke="red" points="177,-46.03 173.5,-36.03 170,-46.03 177,-46.03"/>
</g>
<!-- node6&#45;&gt;node7 -->
<g id="edge13" class="edge">
<title>node6&#45;&gt;node7</title>
<path fill="none" stroke="green" d="M185.26,-72.81C186.94,-64.79 187.4,-55.05 186.66,-46.07"/>
<polygon fill="green" stroke="green" points="190.1,-45.43 185.22,-36.03 183.17,-46.42 190.1,-45.43"/>
</g>
<!-- node3&#45;&gt;node6 -->
<g id="edge7" class="edge">
<title>node3&#45;&gt;node6</title>
<path fill="none" stroke="black" d="M377.12,-219.48C335.88,-193.66 256.07,-143.7 209.56,-114.58"/>
<polygon fill="black" stroke="black" points="211.33,-111.56 201,-109.22 207.62,-117.49 211.33,-111.56"/>
<text text-anchor="middle" x="220.85" y="-107.97" font-family="Times,serif" font-size="14.00">*1</text>
</g>
<!-- c0 -->
<!-- c1 -->
<!-- c0&#45;&gt;c1 -->
<g id="edge14" class="edge">
<title>c0&#45;&gt;c1</title>
<path fill="none" stroke="red" d="M1011.39,-392C1022.61,-392 1080.74,-392 1106.36,-392"/>
<polygon fill="red" stroke="red" points="1106.56,-395.5 1116.56,-392 1106.56,-388.5 1106.56,-395.5"/>
<text text-anchor="middle" x="1064" y="-398.8" font-family="Times,serif" font-size="14.00">Control flow</text>
</g>
<!-- c2 -->
<!-- c3 -->
<!-- c2&#45;&gt;c3 -->
<g id="edge15" class="edge">
<title>c2&#45;&gt;c3</title>
<path fill="none" stroke="red" stroke-dasharray="5,2" d="M804.58,-392C821.55,-392 937.71,-392 975.58,-392"/>
<polygon fill="red" stroke="red" points="975.67,-395.5 985.67,-392 975.67,-388.5 975.67,-395.5"/>
<text text-anchor="middle" x="895" y="-398.8" font-family="Times,serif" font-size="14.00">Control flow back edge</text>
</g>
<!-- d0 -->
<!-- d1 -->
<!-- d0&#45;&gt;d1 -->
<g id="edge16" class="edge">
<title>d0&#45;&gt;d1</title>
<path fill="none" stroke="black" d="M693.36,-392C702.91,-392 746.81,-392 768.42,-392"/>
<polygon fill="black" stroke="black" points="768.65,-395.5 778.65,-392 768.65,-388.5 768.65,-395.5"/>
<text text-anchor="middle" x="736" y="-398.8" font-family="Times,serif" font-size="14.00">Data flow</text>
</g>
<!-- d2 -->
<!-- d3 -->
<!-- d2&#45;&gt;d3 -->
<g id="edge17" class="edge">
<title>d2&#45;&gt;d3</title>
<path fill="none" stroke="black" stroke-dasharray="1,5" d="M567.31,-392C577.96,-392 632.96,-392 657.58,-392"/>
<polygon fill="black" stroke="black" points="657.65,-395.5 667.65,-392 657.65,-388.5 657.65,-395.5"/>
<text text-anchor="middle" x="617.5" y="-398.8" font-family="Times,serif" font-size="14.00">Declaration</text>
</g>
<!-- d4 -->
<!-- d5 -->
<!-- d4&#45;&gt;d5 -->
<g id="edge18" class="edge">
<title>d4&#45;&gt;d5</title>
<path fill="none" stroke="blue" d="M424.6,-392C437.22,-392 503.38,-392 531.18,-392"/>
<polygon fill="blue" stroke="blue" points="531.34,-395.5 541.34,-392 531.34,-388.5 531.34,-395.5"/>
<text text-anchor="middle" x="483" y="-398.8" font-family="Times,serif" font-size="14.00">PHI Data flow</text>
</g>
<!-- d6 -->
<!-- d7 -->
<!-- d6&#45;&gt;d7 -->
<g id="edge19" class="edge">
<title>d6&#45;&gt;d7</title>
<path fill="none" stroke="green" d="M287.5,-392C299.44,-392 361.8,-392 388.43,-392"/>
<polygon fill="green" stroke="green" points="388.45,-395.5 398.45,-392 388.45,-388.5 388.45,-395.5"/>
<text text-anchor="middle" x="343" y="-398.8" font-family="Times,serif" font-size="14.00">Memory flow</text>
</g>
</g>
</svg>
