<?xml version="1.0" encoding="UTF-8" standalone="no"?>
<!DOCTYPE svg PUBLIC "-//W3C//DTD SVG 1.1//EN"
 "http://www.w3.org/Graphics/SVG/1.1/DTD/svg11.dtd">
<!-- Generated by graphviz version 2.43.0 (0)
 -->
<!-- Title: %3 Pages: 1 -->
<svg width="1443pt" height="297pt"
 viewBox="0.00 0.00 1442.50 297.00" xmlns="http://www.w3.org/2000/svg" xmlns:xlink="http://www.w3.org/1999/xlink">
<g id="graph0" class="graph" transform="scale(1 1) rotate(0) translate(4 293)">
<title>%3</title>
<polygon fill="white" stroke="transparent" points="-4,4 -4,-293 1438.5,-293 1438.5,4 -4,4"/>
<g id="clust1" class="cluster">
<title>cluster_0</title>
<polygon fill="none" stroke="lightgray" points="129.5,-138 129.5,-281 565.5,-281 565.5,-138 129.5,-138"/>
</g>
<g id="clust2" class="cluster">
<title>cluster_000</title>
<polygon fill="none" stroke="black" points="573.5,-236.2 573.5,-278.8 1426.5,-278.8 1426.5,-236.2 573.5,-236.2"/>
<text text-anchor="middle" x="1000" y="-263.6" font-family="Times,serif" font-size="14.00">Legend</text>
</g>
<!-- node0 -->
<g id="node1" class="node">
<title>node0</title>
<polygon fill="lightgrey" stroke="transparent" points="399,-273 190,-273 190,-219 399,-219 399,-273"/>
<polygon fill="none" stroke="black" points="190.5,-246 190.5,-273 399.5,-273 399.5,-246 190.5,-246"/>
<text text-anchor="start" x="254.5" y="-255.8" font-family="Times,serif" font-size="14.00">#0 Method</text>
<polygon fill="yellow" stroke="transparent" points="190.5,-219 190.5,-246 399.5,-246 399.5,-219 190.5,-219"/>
<polygon fill="none" stroke="black" points="190.5,-219 190.5,-246 399.5,-246 399.5,-219 190.5,-219"/>
<text text-anchor="start" x="196.5" y="-228.8" font-family="Times,serif" font-size="14.00">this : StaticFieldAccessTest</text>
</g>
<!-- node3 -->
<g id="node2" class="node">
<title>node3</title>
<polygon fill="lightgrey" stroke="black" points="119,-182 0,-182 0,-146 119,-146 119,-182"/>
<text text-anchor="middle" x="59.5" y="-160.3" font-family="Times,serif" font-size="14.00">#3 LabelNode</text>
</g>
<!-- node0&#45;&gt;node3 -->
<g id="edge1" class="edge">
<title>node0&#45;&gt;node3</title>
<path fill="none" stroke="red" d="M217.88,-218.92C185.85,-208.01 149.19,-195.53 119.22,-185.33"/>
<polygon fill="red" stroke="red" points="120.33,-182.01 109.73,-182.1 118.07,-188.64 120.33,-182.01"/>
</g>
<!-- node1 -->
<g id="node3" class="node">
<title>node1</title>
<polygon fill="lightgrey" stroke="black" points="116,-109 11,-109 11,-73 116,-73 116,-109"/>
<text text-anchor="middle" x="63.5" y="-87.3" font-family="Times,serif" font-size="14.00">#1 ClassInit</text>
</g>
<!-- node0&#45;&gt;node1 -->
<g id="edge3" class="edge">
<title>node0&#45;&gt;node1</title>
<path fill="none" stroke="green" d="M399.37,-236.72C498.02,-225.13 622.78,-198.26 566.5,-138 534.27,-103.49 189.26,-115.6 142.5,-109 137.12,-108.24 131.55,-107.32 125.99,-106.31"/>
<polygon fill="green" stroke="green" points="126.48,-102.84 116,-104.4 125.17,-109.72 126.48,-102.84"/>
</g>
<!-- node4 -->
<g id="node4" class="node">
<title>node4</title>
<polygon fill="lightgreen" stroke="black" points="557.69,-156.54 557.69,-171.46 434.56,-182 260.44,-182 137.31,-171.46 137.31,-156.54 260.44,-146 434.56,-146 557.69,-156.54"/>
<text text-anchor="middle" x="347.5" y="-160.3" font-family="Times,serif" font-size="14.00">#4 Class StaticFieldAccessTest$Source</text>
</g>
<!-- node0&#45;&gt;node4 -->
<g id="edge5" class="edge">
<title>node0&#45;&gt;node4</title>
<path fill="none" stroke="black" stroke-dasharray="1,5" d="M311.85,-218.81C317.83,-209.78 324.52,-199.69 330.47,-190.71"/>
<polygon fill="black" stroke="black" points="333.52,-192.44 336.12,-182.17 327.68,-188.58 333.52,-192.44"/>
</g>
<!-- node3&#45;&gt;node1 -->
<g id="edge4" class="edge">
<title>node3&#45;&gt;node1</title>
<path fill="none" stroke="red" d="M60.47,-145.81C60.92,-137.79 61.47,-128.05 61.97,-119.07"/>
<polygon fill="red" stroke="red" points="65.47,-119.21 62.54,-109.03 58.48,-118.82 65.47,-119.21"/>
</g>
<!-- node5 -->
<g id="node5" class="node">
<title>node5</title>
<polygon fill="orange" stroke="black" points="543.14,-83.54 543.14,-98.46 428.54,-109 266.46,-109 151.86,-98.46 151.86,-83.54 266.46,-73 428.54,-73 543.14,-83.54"/>
<text text-anchor="middle" x="347.5" y="-87.3" font-family="Times,serif" font-size="14.00">#5 GetStaticField : array_field : int[]</text>
</g>
<!-- node1&#45;&gt;node5 -->
<g id="edge7" class="edge">
<title>node1&#45;&gt;node5</title>
<path fill="none" stroke="green" d="M116.2,-91C124.75,-91 133.3,-91 141.85,-91"/>
<polygon fill="green" stroke="green" points="141.88,-94.5 151.88,-91 141.88,-87.5 141.88,-94.5"/>
</g>
<!-- node6 -->
<g id="node6" class="node">
<title>node6</title>
<polygon fill="lightgrey" stroke="black" points="292.5,-36 118.5,-36 118.5,0 292.5,0 292.5,-36"/>
<text text-anchor="middle" x="205.5" y="-14.3" font-family="Times,serif" font-size="14.00">#6 ReturnValue : int[]</text>
</g>
<!-- node1&#45;&gt;node6 -->
<g id="edge9" class="edge">
<title>node1&#45;&gt;node6</title>
<path fill="none" stroke="red" d="M97.51,-72.99C116.95,-63.27 141.53,-50.99 162.32,-40.59"/>
<polygon fill="red" stroke="red" points="163.89,-43.72 171.27,-36.11 160.76,-37.46 163.89,-43.72"/>
</g>
<!-- node4&#45;&gt;node1 -->
<g id="edge2" class="edge">
<title>node4&#45;&gt;node1</title>
<path fill="none" stroke="black" d="M279.47,-145.99C232.85,-134.34 171.45,-118.99 126.04,-107.64"/>
<polygon fill="black" stroke="black" points="126.87,-104.23 116.32,-105.2 125.17,-111.03 126.87,-104.23"/>
<text text-anchor="middle" x="135.95" y="-97.7" font-family="Times,serif" font-size="14.00">*0</text>
</g>
<!-- node4&#45;&gt;node5 -->
<g id="edge6" class="edge">
<title>node4&#45;&gt;node5</title>
<path fill="none" stroke="black" d="M347.5,-145.81C347.5,-137.79 347.5,-128.05 347.5,-119.07"/>
<polygon fill="black" stroke="black" points="351,-119.03 347.5,-109.03 344,-119.03 351,-119.03"/>
<text text-anchor="middle" x="355.95" y="-123.45" font-family="Times,serif" font-size="14.00">*0</text>
</g>
<!-- node5&#45;&gt;node6 -->
<g id="edge8" class="edge">
<title>node5&#45;&gt;node6</title>
<path fill="none" stroke="black" d="M307.63,-72.99C287.34,-63.36 262.89,-51.21 242.95,-40.87"/>
<polygon fill="black" stroke="black" points="244.34,-37.65 233.86,-36.11 241.1,-43.85 244.34,-37.65"/>
<text text-anchor="middle" x="253.84" y="-33.32" font-family="Times,serif" font-size="14.00">*0</text>
</g>
<!-- node5&#45;&gt;node6 -->
<g id="edge10" class="edge">
<title>node5&#45;&gt;node6</title>
<path fill="none" stroke="green" d="M319.35,-72.99C300.85,-63.23 276.28,-50.88 254.66,-40.45"/>
<polygon fill="green" stroke="green" points="256.13,-37.27 245.6,-36.11 253.11,-43.59 256.13,-37.27"/>
</g>
<!-- c0 -->
<!-- c1 -->
<!-- c0&#45;&gt;c1 -->
<g id="edge11" class="edge">
<title>c0&#45;&gt;c1</title>
<path fill="none" stroke="red" d="M1309.39,-246C1320.61,-246 1378.74,-246 1404.36,-246"/>
<polygon fill="red" stroke="red" points="1404.56,-249.5 1414.56,-246 1404.56,-242.5 1404.56,-249.5"/>
<text text-anchor="middle" x="1362" y="-252.8" font-family="Times,serif" font-size="14.00">Control flow</text>
</g>
<!-- c2 -->
<!-- c3 -->
<!-- c2&#45;&gt;c3 -->
<g id="edge12" class="edge">
<title>c2&#45;&gt;c3</title>
<path fill="none" stroke="red" stroke-dasharray="5,2" d="M1102.58,-246C1119.55,-246 1235.71,-246 1273.58,-246"/>
<polygon fill="red" stroke="red" points="1273.67,-249.5 1283.67,-246 1273.67,-242.5 1273.67,-249.5"/>
<text text-anchor="middle" x="1193" y="-252.8" font-family="Times,serif" font-size="14.00">Control flow back edge</text>
</g>
<!-- d0 -->
<!-- d1 -->
<!-- d0&#45;&gt;d1 -->
<g id="edge13" class="edge">
<title>d0&#45;&gt;d1</title>
<path fill="none" stroke="black" d="M991.36,-246C1000.91,-246 1044.81,-246 1066.42,-246"/>
<polygon fill="black" stroke="black" points="1066.65,-249.5 1076.65,-246 1066.65,-242.5 1066.65,-249.5"/>
<text text-anchor="middle" x="1034" y="-252.8" font-family="Times,serif" font-size="14.00">Data flow</text>
</g>
<!-- d2 -->
<!-- d3 -->
<!-- d2&#45;&gt;d3 -->
<g id="edge14" class="edge">
<title>d2&#45;&gt;d3</title>
<path fill="none" stroke="black" stroke-dasharray="1,5" d="M865.31,-246C875.96,-246 930.96,-246 955.58,-246"/>
<polygon fill="black" stroke="black" points="955.65,-249.5 965.65,-246 955.65,-242.5 955.65,-249.5"/>
<text text-anchor="middle" x="915.5" y="-252.8" font-family="Times,serif" font-size="14.00">Declaration</text>
</g>
<!-- d4 -->
<!-- d5 -->
<!-- d4&#45;&gt;d5 -->
<g id="edge15" class="edge">
<title>d4&#45;&gt;d5</title>
<path fill="none" stroke="blue" d="M722.6,-246C735.22,-246 801.38,-246 829.18,-246"/>
<polygon fill="blue" stroke="blue" points="829.34,-249.5 839.34,-246 829.34,-242.5 829.34,-249.5"/>
<text text-anchor="middle" x="781" y="-252.8" font-family="Times,serif" font-size="14.00">PHI Data flow</text>
</g>
<!-- d6 -->
<!-- d7 -->
<!-- d6&#45;&gt;d7 -->
<g id="edge16" class="edge">
<title>d6&#45;&gt;d7</title>
<path fill="none" stroke="green" d="M585.5,-246C597.44,-246 659.8,-246 686.43,-246"/>
<polygon fill="green" stroke="green" points="686.45,-249.5 696.45,-246 686.45,-242.5 686.45,-249.5"/>
<text text-anchor="middle" x="641" y="-252.8" font-family="Times,serif" font-size="14.00">Memory flow</text>
</g>
</g>
</svg>
