<?xml version="1.0" encoding="UTF-8" standalone="no"?>
<!DOCTYPE svg PUBLIC "-//W3C//DTD SVG 1.1//EN"
 "http://www.w3.org/Graphics/SVG/1.1/DTD/svg11.dtd">
<!-- Generated by graphviz version 2.43.0 (0)
 -->
<!-- Title: debugoutput Pages: 1 -->
<svg width="1424pt" height="359pt"
 viewBox="0.00 0.00 1424.00 358.80" xmlns="http://www.w3.org/2000/svg" xmlns:xlink="http://www.w3.org/1999/xlink">
<g id="graph0" class="graph" transform="scale(1 1) rotate(0) translate(4 354.8)">
<title>debugoutput</title>
<polygon fill="white" stroke="transparent" points="-4,4 -4,-354.8 1420,-354.8 1420,4 -4,4"/>
<g id="clust1" class="cluster">
<title>cluster_000</title>
<polygon fill="none" stroke="black" points="569,-300.2 569,-342.8 1408,-342.8 1408,-300.2 569,-300.2"/>
<text text-anchor="middle" x="988.5" y="-327.6" font-family="Times,serif" font-size="14.00">Legend</text>
</g>
<!-- node0 -->
<g id="node1" class="node">
<title>node0</title>
<polygon fill="lightgrey" stroke="black" points="559,-328 393,-328 393,-292 559,-292 559,-328"/>
<text text-anchor="middle" x="476" y="-306.3" font-family="Times,serif" font-size="14.00">#0 Method Order : 0</text>
</g>
<!-- node1 -->
<g id="node2" class="node">
<title>node1</title>
<polygon fill="lightgrey" stroke="black" points="308,-255 0,-255 0,-219 308,-219 308,-255"/>
<text text-anchor="middle" x="154" y="-233.3" font-family="Times,serif" font-size="14.00">#1 this : StaticFieldAccessTest Order : 3</text>
</g>
<!-- node0&#45;&gt;node1 -->
<g id="edge2" class="edge">
<title>node0&#45;&gt;node1</title>
<path fill="none" stroke="black" d="M393.01,-291.99C344.47,-281.53 283.49,-268.11 235.25,-257.26"/>
<polygon fill="black" stroke="black" points="235.99,-253.84 225.47,-255.05 234.46,-260.66 235.99,-253.84"/>
<text text-anchor="middle" x="245.01" y="-247.09" font-family="Times,serif" font-size="14.00">*0</text>
</g>
<!-- node2 -->
<g id="node3" class="node">
<title>node2</title>
<polygon fill="lightgrey" stroke="black" points="570,-255 382,-255 382,-219 570,-219 570,-255"/>
<text text-anchor="middle" x="476" y="-233.3" font-family="Times,serif" font-size="14.00">#2 LabelNode Order : 2</text>
</g>
<!-- node0&#45;&gt;node2 -->
<g id="edge4" class="edge">
<title>node0&#45;&gt;node2</title>
<path fill="none" stroke="red" d="M470.12,-291.81C469.28,-283.79 469.05,-274.05 469.42,-265.07"/>
<polygon fill="red" stroke="red" points="472.92,-265.25 470.14,-255.03 465.94,-264.75 472.92,-265.25"/>
</g>
<!-- node3 -->
<g id="node4" class="node">
<title>node3</title>
<polygon fill="lightgreen" stroke="black" points="1105.77,-229.54 1105.77,-244.46 954.19,-255 739.81,-255 588.23,-244.46 588.23,-229.54 739.81,-219 954.19,-219 1105.77,-229.54"/>
<text text-anchor="middle" x="847" y="-233.3" font-family="Times,serif" font-size="14.00">#3 Class StaticFieldAccessTest$Source Order : 1</text>
</g>
<!-- node0&#45;&gt;node3 -->
<g id="edge6" class="edge">
<title>node0&#45;&gt;node3</title>
<path fill="none" stroke="black" stroke-dasharray="1,5" d="M559,-291.99C613.1,-281.43 684.11,-267.82 742.11,-256.92"/>
<polygon fill="black" stroke="black" points="742.85,-260.34 752.03,-255.05 741.56,-253.46 742.85,-260.34"/>
</g>
<!-- node4 -->
<g id="node5" class="node">
<title>node4</title>
<polygon fill="lightgrey" stroke="black" points="588,-182 414,-182 414,-146 588,-146 588,-182"/>
<text text-anchor="middle" x="501" y="-160.3" font-family="Times,serif" font-size="14.00">#4 ClassInit Order : 4</text>
</g>
<!-- node0&#45;&gt;node4 -->
<g id="edge9" class="edge">
<title>node0&#45;&gt;node4</title>
<path fill="none" stroke="black" d="M409.65,-291.9C391.56,-283.69 374.19,-271.84 364,-255 355.72,-241.31 355.15,-232.33 364,-219 373.7,-204.38 388.22,-193.71 404.24,-185.93"/>
<polygon fill="black" stroke="black" points="406.11,-188.93 413.82,-181.67 403.26,-182.53 406.11,-188.93"/>
</g>
<!-- node1&#45;&gt;node0 -->
<g id="edge1" class="edge">
<title>node1&#45;&gt;node0</title>
<path fill="none" stroke="green" stroke-width="2" d="M237.2,-255.05C285.78,-265.52 346.76,-278.95 394.96,-289.79"/>
<polygon fill="green" stroke="green" stroke-width="2" points="394.21,-293.21 404.73,-291.99 395.75,-286.38 394.21,-293.21"/>
</g>
<!-- node2&#45;&gt;node0 -->
<g id="edge3" class="edge">
<title>node2&#45;&gt;node0</title>
<path fill="none" stroke="green" stroke-width="2" d="M481.86,-255.03C482.71,-263.03 482.95,-272.77 482.59,-281.75"/>
<polygon fill="green" stroke="green" stroke-width="2" points="479.09,-281.59 481.88,-291.81 486.07,-282.08 479.09,-281.59"/>
</g>
<!-- node2&#45;&gt;node4 -->
<g id="edge10" class="edge">
<title>node2&#45;&gt;node4</title>
<path fill="none" stroke="red" d="M482.05,-218.81C484.94,-210.62 488.46,-200.62 491.67,-191.48"/>
<polygon fill="red" stroke="red" points="494.98,-192.62 495,-182.03 488.38,-190.3 494.98,-192.62"/>
</g>
<!-- node3&#45;&gt;node0 -->
<g id="edge5" class="edge">
<title>node3&#45;&gt;node0</title>
<path fill="none" stroke="green" stroke-width="2" d="M763.79,-255.05C706.14,-266.31 629.36,-281 569.58,-292.21"/>
<polygon fill="green" stroke="green" stroke-width="2" points="568.57,-288.84 559.39,-294.12 569.86,-295.72 568.57,-288.84"/>
</g>
<!-- node3&#45;&gt;node4 -->
<g id="edge8" class="edge">
<title>node3&#45;&gt;node4</title>
<path fill="none" stroke="black" d="M764.12,-218.99C712.94,-208.49 647.16,-194.99 594.18,-184.12"/>
<polygon fill="black" stroke="black" points="594.6,-180.63 584.1,-182.05 593.19,-187.49 594.6,-180.63"/>
<text text-anchor="middle" x="603.55" y="-173.72" font-family="Times,serif" font-size="14.00">*0</text>
</g>
<!-- node5 -->
<g id="node6" class="node">
<title>node5</title>
<polygon fill="orange" stroke="black" points="1091.22,-83.54 1091.22,-98.46 948.16,-109 745.84,-109 602.78,-98.46 602.78,-83.54 745.84,-73 948.16,-73 1091.22,-83.54"/>
<text text-anchor="middle" x="847" y="-87.3" font-family="Times,serif" font-size="14.00">#5 GetStaticField : array_field : int[] Order : 5</text>
</g>
<!-- node3&#45;&gt;node5 -->
<g id="edge12" class="edge">
<title>node3&#45;&gt;node5</title>
<path fill="none" stroke="black" d="M847,-218.92C847,-194.34 847,-148.75 847,-119.43"/>
<polygon fill="black" stroke="black" points="850.5,-119.06 847,-109.06 843.5,-119.06 850.5,-119.06"/>
<text text-anchor="middle" x="855.45" y="-123.49" font-family="Times,serif" font-size="14.00">*0</text>
</g>
<!-- node4&#45;&gt;node0 -->
<g id="edge7" class="edge">
<title>node4&#45;&gt;node0</title>
<path fill="none" stroke="green" stroke-width="2" d="M430.13,-182.09C411.46,-190.09 393.4,-201.82 382,-219 373.15,-232.33 373.72,-241.31 382,-255 390.36,-268.82 403.55,-279.27 417.46,-287.12"/>
<polygon fill="green" stroke="green" stroke-width="2" points="416.17,-290.39 426.66,-291.9 419.4,-284.18 416.17,-290.39"/>
</g>
<!-- node4&#45;&gt;node5 -->
<g id="edge13" class="edge">
<title>node4&#45;&gt;node5</title>
<path fill="none" stroke="black" d="M583.88,-145.99C635.06,-135.49 700.84,-121.99 753.82,-111.12"/>
<polygon fill="black" stroke="black" points="754.81,-114.49 763.9,-109.05 753.4,-107.63 754.81,-114.49"/>
</g>
<!-- node6 -->
<g id="node7" class="node">
<title>node6</title>
<polygon fill="lightgrey" stroke="black" points="968.5,-36 725.5,-36 725.5,0 968.5,0 968.5,-36"/>
<text text-anchor="middle" x="847" y="-14.3" font-family="Times,serif" font-size="14.00">#6 ReturnValue : int[] Order : 6</text>
</g>
<!-- node4&#45;&gt;node6 -->
<g id="edge16" class="edge">
<title>node4&#45;&gt;node6</title>
<path fill="none" stroke="red" d="M513.74,-145.8C529.99,-125.16 560.09,-91.07 594,-73 631.07,-53.24 674.83,-40.71 715.44,-32.77"/>
<polygon fill="red" stroke="red" points="716.23,-36.18 725.42,-30.9 714.94,-29.3 716.23,-36.18"/>
</g>
<!-- node5&#45;&gt;node0 -->
<g id="edge11" class="edge">
<title>node5&#45;&gt;node0</title>
<path fill="none" stroke="green" stroke-width="2" d="M927.48,-109.08C1028.38,-133.91 1180.65,-184.79 1115,-255 1074.88,-297.9 661.77,-285.36 569.37,-291.83"/>
<polygon fill="green" stroke="green" stroke-width="2" points="568.96,-288.35 559.33,-292.77 569.61,-295.32 568.96,-288.35"/>
</g>
<!-- node5&#45;&gt;node6 -->
<g id="edge15" class="edge">
<title>node5&#45;&gt;node6</title>
<path fill="none" stroke="black" d="M841.12,-72.81C840.28,-64.79 840.05,-55.05 840.42,-46.07"/>
<polygon fill="black" stroke="black" points="843.92,-46.25 841.14,-36.03 836.94,-45.75 843.92,-46.25"/>
<text text-anchor="middle" x="848.28" y="-51.01" font-family="Times,serif" font-size="14.00">*0</text>
</g>
<!-- node5&#45;&gt;node6 -->
<g id="edge17" class="edge">
<title>node5&#45;&gt;node6</title>
<path fill="none" stroke="black" d="M852.88,-72.81C853.72,-64.79 853.95,-55.05 853.58,-46.07"/>
<polygon fill="black" stroke="black" points="857.06,-45.75 852.86,-36.03 850.08,-46.25 857.06,-45.75"/>
</g>
<!-- node6&#45;&gt;node0 -->
<g id="edge14" class="edge">
<title>node6&#45;&gt;node0</title>
<path fill="none" stroke="green" stroke-width="2" d="M968.94,-23.22C1061.16,-29.87 1172,-46.83 1172,-90 1172,-238 1172,-238 1172,-238 1172,-303.2 671.6,-285.88 569.32,-291.88"/>
<polygon fill="green" stroke="green" stroke-width="2" points="569.01,-288.39 559.32,-292.68 569.57,-295.37 569.01,-288.39"/>
</g>
<!-- c0 -->
<!-- c1 -->
<!-- c0&#45;&gt;c1 -->
<g id="edge18" class="edge">
<title>c0&#45;&gt;c1</title>
<path fill="none" stroke="red" d="M1290.89,-310C1302.11,-310 1360.24,-310 1385.86,-310"/>
<polygon fill="red" stroke="red" points="1386.06,-313.5 1396.06,-310 1386.06,-306.5 1386.06,-313.5"/>
<text text-anchor="middle" x="1343.5" y="-316.8" font-family="Times,serif" font-size="14.00">Control flow</text>
</g>
<!-- c2 -->
<!-- c3 -->
<!-- c2&#45;&gt;c3 -->
<g id="edge19" class="edge">
<title>c2&#45;&gt;c3</title>
<path fill="none" stroke="red" stroke-dasharray="5,2" d="M1084.08,-310C1101.05,-310 1217.21,-310 1255.08,-310"/>
<polygon fill="red" stroke="red" points="1255.17,-313.5 1265.17,-310 1255.17,-306.5 1255.17,-313.5"/>
<text text-anchor="middle" x="1174.5" y="-316.8" font-family="Times,serif" font-size="14.00">Control flow back edge</text>
</g>
<!-- d0 -->
<!-- d1 -->
<!-- d0&#45;&gt;d1 -->
<g id="edge20" class="edge">
<title>d0&#45;&gt;d1</title>
<path fill="none" stroke="black" d="M972.86,-310C982.41,-310 1026.31,-310 1047.92,-310"/>
<polygon fill="black" stroke="black" points="1048.15,-313.5 1058.15,-310 1048.15,-306.5 1048.15,-313.5"/>
<text text-anchor="middle" x="1015.5" y="-316.8" font-family="Times,serif" font-size="14.00">Data flow</text>
</g>
<!-- d2 -->
<!-- d3 -->
<!-- d2&#45;&gt;d3 -->
<g id="edge21" class="edge">
<title>d2&#45;&gt;d3</title>
<path fill="none" stroke="black" stroke-dasharray="1,5" d="M846.81,-310C857.46,-310 912.46,-310 937.08,-310"/>
<polygon fill="black" stroke="black" points="937.15,-313.5 947.15,-310 937.15,-306.5 937.15,-313.5"/>
<text text-anchor="middle" x="897" y="-316.8" font-family="Times,serif" font-size="14.00">Declaration</text>
</g>
<!-- d4 -->
<!-- d5 -->
<!-- d4&#45;&gt;d5 -->
<g id="edge22" class="edge">
<title>d4&#45;&gt;d5</title>
<path fill="none" stroke="blue" d="M704.1,-310C716.72,-310 782.88,-310 810.68,-310"/>
<polygon fill="blue" stroke="blue" points="810.84,-313.5 820.84,-310 810.84,-306.5 810.84,-313.5"/>
<text text-anchor="middle" x="762.5" y="-316.8" font-family="Times,serif" font-size="14.00">PHI Data flow</text>
</g>
<!-- d6 -->
<!-- d7 -->
<!-- d6&#45;&gt;d7 -->
<g id="edge23" class="edge">
<title>d6&#45;&gt;d7</title>
<path fill="none" stroke="green" d="M581.11,-310C592.15,-310 643.67,-310 667.66,-310"/>
<polygon fill="green" stroke="green" points="667.9,-313.5 677.9,-310 667.9,-306.5 667.9,-313.5"/>
<text text-anchor="middle" x="629.5" y="-316.8" font-family="Times,serif" font-size="14.00">Dominance</text>
</g>
</g>
</svg>
