<?xml version="1.0" encoding="UTF-8" standalone="no"?>
<!DOCTYPE svg PUBLIC "-//W3C//DTD SVG 1.1//EN"
 "http://www.w3.org/Graphics/SVG/1.1/DTD/svg11.dtd">
<!-- Generated by graphviz version 2.43.0 (0)
 -->
<!-- Title: debugoutput Pages: 1 -->
<svg width="1561pt" height="286pt"
 viewBox="0.00 0.00 1561.00 285.80" xmlns="http://www.w3.org/2000/svg" xmlns:xlink="http://www.w3.org/1999/xlink">
<g id="graph0" class="graph" transform="scale(1 1) rotate(0) translate(4 281.8)">
<title>debugoutput</title>
<polygon fill="white" stroke="transparent" points="-4,4 -4,-281.8 1557,-281.8 1557,4 -4,4"/>
<g id="clust1" class="cluster">
<title>cluster_000</title>
<polygon fill="none" stroke="black" points="569,-227.2 569,-269.8 1545,-269.8 1545,-227.2 569,-227.2"/>
<text text-anchor="middle" x="1057" y="-254.6" font-family="Times,serif" font-size="14.00">Legend</text>
</g>
<!-- node0 -->
<g id="node1" class="node">
<title>node0</title>
<polygon fill="lightgrey" stroke="black" points="559,-255 393,-255 393,-219 559,-219 559,-255"/>
<text text-anchor="middle" x="476" y="-233.3" font-family="Times,serif" font-size="14.00">#0 Method Order : 0</text>
</g>
<!-- node1 -->
<g id="node2" class="node">
<title>node1</title>
<polygon fill="lightgrey" stroke="black" points="308,-182 0,-182 0,-146 308,-146 308,-182"/>
<text text-anchor="middle" x="154" y="-160.3" font-family="Times,serif" font-size="14.00">#1 this : StaticFieldAccessTest Order : 3</text>
</g>
<!-- node0&#45;&gt;node1 -->
<g id="edge2" class="edge">
<title>node0&#45;&gt;node1</title>
<path fill="none" stroke="black" d="M393.01,-218.99C344.47,-208.53 283.49,-195.11 235.25,-184.26"/>
<polygon fill="black" stroke="black" points="235.99,-180.84 225.47,-182.05 234.46,-187.66 235.99,-180.84"/>
<text text-anchor="middle" x="245.01" y="-174.09" font-family="Times,serif" font-size="14.00">*0</text>
</g>
<!-- node2 -->
<g id="node3" class="node">
<title>node2</title>
<polygon fill="lightgrey" stroke="black" points="570,-182 382,-182 382,-146 570,-146 570,-182"/>
<text text-anchor="middle" x="476" y="-160.3" font-family="Times,serif" font-size="14.00">#2 LabelNode Order : 2</text>
</g>
<!-- node0&#45;&gt;node2 -->
<g id="edge4" class="edge">
<title>node0&#45;&gt;node2</title>
<path fill="none" stroke="red" d="M470.12,-218.81C469.28,-210.79 469.05,-201.05 469.42,-192.07"/>
<polygon fill="red" stroke="red" points="472.92,-192.25 470.14,-182.03 465.94,-191.75 472.92,-192.25"/>
</g>
<!-- node3 -->
<g id="node4" class="node">
<title>node3</title>
<polygon fill="lightgreen" stroke="black" points="1105.77,-156.54 1105.77,-171.46 954.19,-182 739.81,-182 588.23,-171.46 588.23,-156.54 739.81,-146 954.19,-146 1105.77,-156.54"/>
<text text-anchor="middle" x="847" y="-160.3" font-family="Times,serif" font-size="14.00">#3 Class StaticFieldAccessTest$Source Order : 1</text>
</g>
<!-- node0&#45;&gt;node3 -->
<g id="edge6" class="edge">
<title>node0&#45;&gt;node3</title>
<path fill="none" stroke="black" stroke-dasharray="1,5" d="M559,-218.99C613.1,-208.43 684.11,-194.82 742.11,-183.92"/>
<polygon fill="black" stroke="black" points="742.85,-187.34 752.03,-182.05 741.56,-180.46 742.85,-187.34"/>
</g>
<!-- node4 -->
<g id="node5" class="node">
<title>node4</title>
<polygon fill="lightgrey" stroke="black" points="578,-109 404,-109 404,-73 578,-73 578,-109"/>
<text text-anchor="middle" x="491" y="-87.3" font-family="Times,serif" font-size="14.00">#4 ClassInit Order : 4</text>
</g>
<!-- node0&#45;&gt;node4 -->
<g id="edge9" class="edge">
<title>node0&#45;&gt;node4</title>
<path fill="none" stroke="green" d="M409.65,-218.9C391.56,-210.69 374.19,-198.84 364,-182 355.72,-168.31 355.35,-159.46 364,-146 373.21,-131.66 387.28,-121.08 402.77,-113.29"/>
<polygon fill="green" stroke="green" points="404.41,-116.38 412.02,-109.01 401.48,-110.03 404.41,-116.38"/>
</g>
<!-- node1&#45;&gt;node0 -->
<g id="edge1" class="edge">
<title>node1&#45;&gt;node0</title>
<path fill="none" stroke="fuchsia" stroke-width="2" d="M237.2,-182.05C285.78,-192.52 346.76,-205.95 394.96,-216.79"/>
<polygon fill="fuchsia" stroke="fuchsia" stroke-width="2" points="394.21,-220.21 404.73,-218.99 395.75,-213.38 394.21,-220.21"/>
</g>
<!-- node2&#45;&gt;node0 -->
<g id="edge3" class="edge">
<title>node2&#45;&gt;node0</title>
<path fill="none" stroke="fuchsia" stroke-width="2" d="M481.86,-182.03C482.71,-190.03 482.95,-199.77 482.59,-208.75"/>
<polygon fill="fuchsia" stroke="fuchsia" stroke-width="2" points="479.09,-208.59 481.88,-218.81 486.07,-209.08 479.09,-208.59"/>
</g>
<!-- node2&#45;&gt;node4 -->
<g id="edge10" class="edge">
<title>node2&#45;&gt;node4</title>
<path fill="none" stroke="red" d="M479.63,-145.81C481.33,-137.79 483.38,-128.05 485.28,-119.07"/>
<polygon fill="red" stroke="red" points="488.76,-119.54 487.4,-109.03 481.91,-118.09 488.76,-119.54"/>
</g>
<!-- node3&#45;&gt;node0 -->
<g id="edge5" class="edge">
<title>node3&#45;&gt;node0</title>
<path fill="none" stroke="fuchsia" stroke-width="2" d="M763.79,-182.05C706.14,-193.31 629.36,-208 569.58,-219.21"/>
<polygon fill="fuchsia" stroke="fuchsia" stroke-width="2" points="568.57,-215.84 559.39,-221.12 569.86,-222.72 568.57,-215.84"/>
</g>
<!-- node3&#45;&gt;node4 -->
<g id="edge8" class="edge">
<title>node3&#45;&gt;node4</title>
<path fill="none" stroke="black" d="M761.73,-145.99C708.96,-135.47 641.11,-121.94 586.53,-111.05"/>
<polygon fill="black" stroke="black" points="586.99,-107.58 576.5,-109.05 585.62,-114.44 586.99,-107.58"/>
<text text-anchor="middle" x="595.93" y="-100.61" font-family="Times,serif" font-size="14.00">*0</text>
</g>
<!-- node5 -->
<g id="node6" class="node">
<title>node5</title>
<polygon fill="orange" stroke="black" points="1130.22,-83.54 1130.22,-98.46 987.16,-109 784.84,-109 641.78,-98.46 641.78,-83.54 784.84,-73 987.16,-73 1130.22,-83.54"/>
<text text-anchor="middle" x="886" y="-87.3" font-family="Times,serif" font-size="14.00">#5 GetStaticField : array_field : int[] Order : 5</text>
</g>
<!-- node3&#45;&gt;node5 -->
<g id="edge12" class="edge">
<title>node3&#45;&gt;node5</title>
<path fill="none" stroke="black" d="M856.44,-145.81C861.04,-137.44 866.67,-127.2 871.77,-117.9"/>
<polygon fill="black" stroke="black" points="874.9,-119.48 876.65,-109.03 868.76,-116.11 874.9,-119.48"/>
<text text-anchor="middle" x="875.33" y="-125.29" font-family="Times,serif" font-size="14.00">*0</text>
</g>
<!-- node4&#45;&gt;node0 -->
<g id="edge7" class="edge">
<title>node4&#45;&gt;node0</title>
<path fill="none" stroke="fuchsia" stroke-width="2" d="M429.23,-109.01C410.99,-117.07 393.02,-128.84 382,-146 373.35,-159.46 373.72,-168.31 382,-182 390.36,-195.82 403.55,-206.27 417.46,-214.12"/>
<polygon fill="fuchsia" stroke="fuchsia" stroke-width="2" points="416.17,-217.39 426.66,-218.9 419.4,-211.18 416.17,-217.39"/>
</g>
<!-- node4&#45;&gt;node5 -->
<g id="edge13" class="edge">
<title>node4&#45;&gt;node5</title>
<path fill="none" stroke="green" d="M578.18,-91C595.85,-91 613.53,-91 631.2,-91"/>
<polygon fill="green" stroke="green" points="631.61,-94.5 641.61,-91 631.61,-87.5 631.61,-94.5"/>
</g>
<!-- node6 -->
<g id="node7" class="node">
<title>node6</title>
<polygon fill="lightgrey" stroke="black" points="1007.5,-36 764.5,-36 764.5,0 1007.5,0 1007.5,-36"/>
<text text-anchor="middle" x="886" y="-14.3" font-family="Times,serif" font-size="14.00">#6 ReturnValue : int[] Order : 6</text>
</g>
<!-- node4&#45;&gt;node6 -->
<g id="edge16" class="edge">
<title>node4&#45;&gt;node6</title>
<path fill="none" stroke="red" d="M578.17,-74.33C638.02,-63.57 717.76,-49.24 781.09,-37.86"/>
<polygon fill="red" stroke="red" points="781.88,-41.27 791.11,-36.06 780.64,-34.38 781.88,-41.27"/>
</g>
<!-- node5&#45;&gt;node0 -->
<g id="edge11" class="edge">
<title>node5&#45;&gt;node0</title>
<path fill="none" stroke="fuchsia" stroke-width="2" d="M1024.6,-106.32C1092.82,-118.69 1153.07,-141.28 1115,-182 1074.88,-224.9 661.77,-212.36 569.37,-218.83"/>
<polygon fill="fuchsia" stroke="fuchsia" stroke-width="2" points="568.96,-215.35 559.33,-219.77 569.61,-222.32 568.96,-215.35"/>
</g>
<!-- node5&#45;&gt;node6 -->
<g id="edge15" class="edge">
<title>node5&#45;&gt;node6</title>
<path fill="none" stroke="black" d="M880.12,-72.81C879.28,-64.79 879.05,-55.05 879.42,-46.07"/>
<polygon fill="black" stroke="black" points="882.92,-46.25 880.14,-36.03 875.94,-45.75 882.92,-46.25"/>
<text text-anchor="middle" x="887.28" y="-51.01" font-family="Times,serif" font-size="14.00">*0</text>
</g>
<!-- node5&#45;&gt;node6 -->
<g id="edge17" class="edge">
<title>node5&#45;&gt;node6</title>
<path fill="none" stroke="green" d="M891.88,-72.81C892.72,-64.79 892.95,-55.05 892.58,-46.07"/>
<polygon fill="green" stroke="green" points="896.06,-45.75 891.86,-36.03 889.08,-46.25 896.06,-45.75"/>
</g>
<!-- node6&#45;&gt;node0 -->
<g id="edge14" class="edge">
<title>node6&#45;&gt;node0</title>
<path fill="none" stroke="fuchsia" stroke-width="2" d="M1007.57,-30.44C1063.74,-38.49 1121.8,-51.74 1139,-73 1169.5,-110.7 1164.15,-144.02 1134,-182 1096.19,-229.64 664.64,-213.38 569.43,-218.88"/>
<polygon fill="fuchsia" stroke="fuchsia" stroke-width="2" points="569.01,-215.4 559.32,-219.68 569.57,-222.38 569.01,-215.4"/>
</g>
<!-- c0 -->
<!-- c1 -->
<!-- c0&#45;&gt;c1 -->
<g id="edge18" class="edge">
<title>c0&#45;&gt;c1</title>
<path fill="none" stroke="red" d="M1427.89,-237C1439.11,-237 1497.24,-237 1522.86,-237"/>
<polygon fill="red" stroke="red" points="1523.06,-240.5 1533.06,-237 1523.06,-233.5 1523.06,-240.5"/>
<text text-anchor="middle" x="1480.5" y="-243.8" font-family="Times,serif" font-size="14.00">Control flow</text>
</g>
<!-- c2 -->
<!-- c3 -->
<!-- c2&#45;&gt;c3 -->
<g id="edge19" class="edge">
<title>c2&#45;&gt;c3</title>
<path fill="none" stroke="red" stroke-dasharray="5,2" d="M1221.08,-237C1238.05,-237 1354.21,-237 1392.08,-237"/>
<polygon fill="red" stroke="red" points="1392.17,-240.5 1402.17,-237 1392.17,-233.5 1392.17,-240.5"/>
<text text-anchor="middle" x="1311.5" y="-243.8" font-family="Times,serif" font-size="14.00">Control flow back edge</text>
</g>
<!-- d0 -->
<!-- d1 -->
<!-- d0&#45;&gt;d1 -->
<g id="edge20" class="edge">
<title>d0&#45;&gt;d1</title>
<path fill="none" stroke="black" d="M1109.86,-237C1119.41,-237 1163.31,-237 1184.92,-237"/>
<polygon fill="black" stroke="black" points="1185.15,-240.5 1195.15,-237 1185.15,-233.5 1185.15,-240.5"/>
<text text-anchor="middle" x="1152.5" y="-243.8" font-family="Times,serif" font-size="14.00">Data flow</text>
</g>
<!-- d2 -->
<!-- d3 -->
<!-- d2&#45;&gt;d3 -->
<g id="edge21" class="edge">
<title>d2&#45;&gt;d3</title>
<path fill="none" stroke="black" stroke-dasharray="1,5" d="M983.81,-237C994.46,-237 1049.46,-237 1074.08,-237"/>
<polygon fill="black" stroke="black" points="1074.15,-240.5 1084.15,-237 1074.15,-233.5 1074.15,-240.5"/>
<text text-anchor="middle" x="1034" y="-243.8" font-family="Times,serif" font-size="14.00">Declaration</text>
</g>
<!-- d4 -->
<!-- d5 -->
<!-- d4&#45;&gt;d5 -->
<g id="edge22" class="edge">
<title>d4&#45;&gt;d5</title>
<path fill="none" stroke="blue" d="M841.1,-237C853.72,-237 919.88,-237 947.68,-237"/>
<polygon fill="blue" stroke="blue" points="947.84,-240.5 957.84,-237 947.84,-233.5 947.84,-240.5"/>
<text text-anchor="middle" x="899.5" y="-243.8" font-family="Times,serif" font-size="14.00">PHI Data flow</text>
</g>
<!-- d6 -->
<!-- d7 -->
<!-- d6&#45;&gt;d7 -->
<g id="edge23" class="edge">
<title>d6&#45;&gt;d7</title>
<path fill="none" stroke="green" d="M704,-237C715.94,-237 778.3,-237 804.93,-237"/>
<polygon fill="green" stroke="green" points="804.95,-240.5 814.95,-237 804.95,-233.5 804.95,-240.5"/>
<text text-anchor="middle" x="759.5" y="-243.8" font-family="Times,serif" font-size="14.00">Memory flow</text>
</g>
<!-- d8 -->
<!-- d9 -->
<!-- d8&#45;&gt;d9 -->
<g id="edge24" class="edge">
<title>d8&#45;&gt;d9</title>
<path fill="none" stroke="fuchsia" d="M581.11,-237C592.15,-237 643.67,-237 667.66,-237"/>
<polygon fill="fuchsia" stroke="fuchsia" points="667.9,-240.5 677.9,-237 667.9,-233.5 667.9,-240.5"/>
<text text-anchor="middle" x="629.5" y="-243.8" font-family="Times,serif" font-size="14.00">Dominance</text>
</g>
</g>
</svg>
