<?xml version="1.0" encoding="UTF-8" standalone="no"?>
<!DOCTYPE svg PUBLIC "-//W3C//DTD SVG 1.1//EN"
 "http://www.w3.org/Graphics/SVG/1.1/DTD/svg11.dtd">
<!-- Generated by graphviz version 2.43.0 (0)
 -->
<!-- Title: %3 Pages: 1 -->
<svg width="1645pt" height="844pt"
 viewBox="0.00 0.00 1645.25 844.00" xmlns="http://www.w3.org/2000/svg" xmlns:xlink="http://www.w3.org/1999/xlink">
<g id="graph0" class="graph" transform="scale(1 1) rotate(0) translate(4 840)">
<title>%3</title>
<polygon fill="white" stroke="transparent" points="-4,4 -4,-840 1641.25,-840 1641.25,4 -4,4"/>
<g id="clust1" class="cluster">
<title>cluster_0</title>
<polygon fill="none" stroke="lightgray" points="762.79,-530 762.79,-582 908.79,-582 908.79,-530 762.79,-530"/>
</g>
<g id="clust2" class="cluster">
<title>cluster_1</title>
<polygon fill="none" stroke="lightgray" points="789.79,-366 789.79,-500 979.79,-500 979.79,-366 789.79,-366"/>
</g>
<g id="clust3" class="cluster">
<title>cluster_2</title>
<polygon fill="none" stroke="lightgray" points="588.79,-530 588.79,-664 724.79,-664 724.79,-530 588.79,-530"/>
</g>
<g id="clust4" class="cluster">
<title>cluster_3</title>
<polygon fill="none" stroke="lightgray" points="241.79,-448 241.79,-582 461.79,-582 461.79,-448 241.79,-448"/>
</g>
<g id="clust5" class="cluster">
<title>cluster_4</title>
<polygon fill="none" stroke="lightgray" points="500.79,-685 500.79,-828 754.79,-828 754.79,-685 500.79,-685"/>
</g>
<g id="clust6" class="cluster">
<title>cluster_5</title>
<polygon fill="none" stroke="lightgray" points="188.79,-65 188.79,-190 380.79,-190 380.79,-65 188.79,-65"/>
</g>
<g id="clust7" class="cluster">
<title>cluster_6</title>
<polygon fill="none" stroke="lightgray" points="762.79,-612 762.79,-737 898.79,-737 898.79,-612 762.79,-612"/>
</g>
<g id="clust8" class="cluster">
<title>cluster_000</title>
<polygon fill="none" stroke="black" points="762.79,-783.2 762.79,-825.8 1615.79,-825.8 1615.79,-783.2 762.79,-783.2"/>
<text text-anchor="middle" x="1189.29" y="-810.6" font-family="Times,serif" font-size="14.00">Legend</text>
</g>
<!-- node0 -->
<g id="node1" class="node">
<title>node0</title>
<polygon fill="lightgrey" stroke="transparent" points="746.29,-820 509.29,-820 509.29,-766 746.29,-766 746.29,-820"/>
<polygon fill="none" stroke="black" points="509.79,-793 509.79,-820 746.79,-820 746.79,-793 509.79,-793"/>
<text text-anchor="start" x="587.79" y="-802.8" font-family="Times,serif" font-size="14.00">#0 Method</text>
<polygon fill="yellow" stroke="transparent" points="509.79,-766 509.79,-793 588.79,-793 588.79,-766 509.79,-766"/>
<polygon fill="none" stroke="black" points="509.79,-766 509.79,-793 588.79,-793 588.79,-766 509.79,-766"/>
<text text-anchor="start" x="515.79" y="-775.8" font-family="Times,serif" font-size="14.00">arg0 : int</text>
<polygon fill="yellow" stroke="transparent" points="588.79,-766 588.79,-793 667.79,-793 667.79,-766 588.79,-766"/>
<polygon fill="none" stroke="black" points="588.79,-766 588.79,-793 667.79,-793 667.79,-766 588.79,-766"/>
<text text-anchor="start" x="594.79" y="-775.8" font-family="Times,serif" font-size="14.00">arg1 : int</text>
<polygon fill="yellow" stroke="transparent" points="667.79,-766 667.79,-793 746.79,-793 746.79,-766 667.79,-766"/>
<polygon fill="none" stroke="black" points="667.79,-766 667.79,-793 746.79,-793 746.79,-766 667.79,-766"/>
<text text-anchor="start" x="673.79" y="-775.8" font-family="Times,serif" font-size="14.00">arg2 : int</text>
</g>
<!-- node4 -->
<g id="node2" class="node">
<title>node4</title>
<polygon fill="lightgrey" stroke="black" points="890.29,-729 771.29,-729 771.29,-693 890.29,-693 890.29,-729"/>
<text text-anchor="middle" x="830.79" y="-707.3" font-family="Times,serif" font-size="14.00">#4 LabelNode</text>
</g>
<!-- node0&#45;&gt;node4 -->
<g id="edge1" class="edge">
<title>node0&#45;&gt;node4</title>
<path fill="none" stroke="red" d="M693.98,-765.92C721.17,-755.2 752.22,-742.97 777.86,-732.86"/>
<polygon fill="red" stroke="red" points="779.38,-736.02 787.4,-729.1 776.81,-729.51 779.38,-736.02"/>
</g>
<!-- node13 -->
<g id="node5" class="node">
<title>node13</title>
<polygon fill="orange" stroke="black" points="631.29,-703.54 631.29,-718.46 595.85,-729 545.73,-729 510.29,-718.46 510.29,-703.54 545.73,-693 595.85,-693 631.29,-703.54"/>
<text text-anchor="middle" x="570.79" y="-707.3" font-family="Times,serif" font-size="14.00">#13 Φ int</text>
</g>
<!-- node0&#45;&gt;node13 -->
<g id="edge4" class="edge">
<title>node0&#45;&gt;node13</title>
<path fill="none" stroke="black" stroke-dasharray="1,5" d="M609.13,-765.81C602.63,-756.69 595.36,-746.48 588.91,-737.43"/>
<polygon fill="black" stroke="black" points="591.68,-735.29 583.03,-729.17 585.98,-739.35 591.68,-735.29"/>
</g>
<!-- node30 -->
<g id="node10" class="node">
<title>node30</title>
<polygon fill="lightgrey" stroke="black" points="1086.29,-255 913.29,-255 913.29,-219 1086.29,-219 1086.29,-255"/>
<text text-anchor="middle" x="999.79" y="-233.3" font-family="Times,serif" font-size="14.00">#30 ArrayStore : int[]</text>
</g>
<!-- node0&#45;&gt;node30 -->
<g id="edge15" class="edge">
<title>node0:prj3&#45;&gt;node30</title>
<path fill="none" stroke="black" d="M747.79,-779C755.36,-779 752.01,-769.35 758.79,-766 795.19,-748.01 1083.32,-751.34 1123.79,-748 1166.15,-744.51 1176.75,-743.26 1218.79,-737 1280.01,-727.88 1355.79,-773.89 1355.79,-712 1355.79,-712 1355.79,-712 1355.79,-555 1355.79,-507.09 1364.68,-490.61 1342.79,-448 1295.93,-356.79 1261.65,-343.18 1172.79,-292 1147.3,-277.32 1117.36,-266.16 1089.62,-257.91"/>
<polygon fill="black" stroke="black" points="1090.49,-254.52 1079.91,-255.11 1088.55,-261.24 1090.49,-254.52"/>
<text text-anchor="middle" x="1099.67" y="-248.31" font-family="Times,serif" font-size="14.00">*1</text>
</g>
<!-- node28 -->
<g id="node11" class="node">
<title>node28</title>
<polygon fill="lightgrey" stroke="black" points="1557.29,-328 1384.29,-328 1384.29,-292 1557.29,-292 1557.29,-328"/>
<text text-anchor="middle" x="1470.79" y="-306.3" font-family="Times,serif" font-size="14.00">#28 ArrayStore : int[]</text>
</g>
<!-- node0&#45;&gt;node28 -->
<g id="edge46" class="edge">
<title>node0:prj3&#45;&gt;node28</title>
<path fill="none" stroke="black" d="M747.79,-779C755.36,-779 751.97,-769.29 758.79,-766 819.98,-736.52 1317.26,-791.05 1369.79,-748 1496.34,-644.29 1483.19,-416.43 1474.42,-338.09"/>
<polygon fill="black" stroke="black" points="1477.88,-337.57 1473.22,-328.05 1470.93,-338.4 1477.88,-337.57"/>
<text text-anchor="middle" x="1483.76" y="-341.35" font-family="Times,serif" font-size="14.00">*1</text>
</g>
<!-- node9 -->
<g id="node12" class="node">
<title>node9</title>
<polygon fill="orange" stroke="black" points="1142.1,-548.54 1142.1,-563.46 1076.89,-574 984.69,-574 919.49,-563.46 919.49,-548.54 984.69,-538 1076.89,-538 1142.1,-548.54"/>
<text text-anchor="middle" x="1030.79" y="-552.3" font-family="Times,serif" font-size="14.00">#9 NewArray : int[]</text>
</g>
<!-- node0&#45;&gt;node9 -->
<g id="edge43" class="edge">
<title>node0&#45;&gt;node9</title>
<path fill="none" stroke="green" d="M746.31,-768.4C820.69,-753.58 902.62,-737.21 902.79,-737 991.84,-628.38 793.13,-703.71 758.79,-664 743.67,-646.52 744.04,-629.79 758.79,-612 781.02,-585.19 878.67,-589.97 912.79,-583 927.24,-580.05 942.64,-576.76 957.4,-573.54"/>
<polygon fill="green" stroke="green" points="958.47,-576.89 967.48,-571.32 956.97,-570.05 958.47,-576.89"/>
</g>
<!-- node6 -->
<g id="node13" class="node">
<title>node6</title>
<polygon fill="orange" stroke="black" points="492.21,-703.54 492.21,-718.46 449.79,-729 389.79,-729 347.37,-718.46 347.37,-703.54 389.79,-693 449.79,-693 492.21,-703.54"/>
<text text-anchor="middle" x="419.79" y="-707.3" font-family="Times,serif" font-size="14.00">#6 Sub : int</text>
</g>
<!-- node0&#45;&gt;node6 -->
<g id="edge52" class="edge">
<title>node0:prj2&#45;&gt;node6</title>
<path fill="none" stroke="black" d="M628.79,-766C628.79,-734.85 519.53,-757.26 489.79,-748 478.49,-744.48 466.82,-739.22 456.33,-733.8"/>
<polygon fill="black" stroke="black" points="457.91,-730.68 447.45,-729.04 454.61,-736.85 457.91,-730.68"/>
<text text-anchor="middle" x="467.42" y="-726.46" font-family="Times,serif" font-size="14.00">*0</text>
</g>
<!-- node0&#45;&gt;node6 -->
<g id="edge53" class="edge">
<title>node0:prj3&#45;&gt;node6</title>
<path fill="none" stroke="black" d="M707.79,-766C707.79,-760.08 502.56,-738.32 496.79,-737 488.03,-734.99 478.84,-732.43 469.99,-729.71"/>
<polygon fill="black" stroke="black" points="470.76,-726.29 460.17,-726.6 468.65,-732.96 470.76,-726.29"/>
<text text-anchor="middle" x="480.01" y="-720.32" font-family="Times,serif" font-size="14.00">*1</text>
</g>
<!-- node20 -->
<g id="node14" class="node">
<title>node20</title>
<polygon fill="lightgrey" stroke="black" points="971.29,-492 798.29,-492 798.29,-456 971.29,-456 971.29,-492"/>
<text text-anchor="middle" x="884.79" y="-470.3" font-family="Times,serif" font-size="14.00">#20 ArrayStore : int[]</text>
</g>
<!-- node0&#45;&gt;node20 -->
<g id="edge23" class="edge">
<title>node0:prj2&#45;&gt;node20</title>
<path fill="none" stroke="black" d="M628.79,-766C628.79,-749.19 914.08,-749.75 930.79,-748 984.21,-742.4 1169.79,-765.71 1169.79,-712 1169.79,-712 1169.79,-712 1169.79,-601 1169.79,-567.9 1174.86,-551.72 1150.79,-529 1147.57,-525.96 1056.21,-507.83 981.45,-493.41"/>
<polygon fill="black" stroke="black" points="981.97,-489.94 971.49,-491.49 980.65,-496.82 981.97,-489.94"/>
<text text-anchor="middle" x="990.89" y="-482.92" font-family="Times,serif" font-size="14.00">*1</text>
</g>
<!-- node24 -->
<g id="node17" class="node">
<title>node24</title>
<polygon fill="orange" stroke="black" points="1333.61,-466.54 1333.61,-481.46 1244.09,-492 1117.49,-492 1027.98,-481.46 1027.98,-466.54 1117.49,-456 1244.09,-456 1333.61,-466.54"/>
<text text-anchor="middle" x="1180.79" y="-470.3" font-family="Times,serif" font-size="14.00">#24 NumericCondition : EQ</text>
</g>
<!-- node0&#45;&gt;node24 -->
<g id="edge57" class="edge">
<title>node0:prj1&#45;&gt;node24</title>
<path fill="none" stroke="black" d="M548.79,-766C548.79,-752.8 1010.61,-748.73 1023.79,-748 1106.99,-743.37 1207.79,-795.33 1207.79,-712 1207.79,-712 1207.79,-712 1207.79,-555 1207.79,-536.48 1201.22,-516.76 1194.56,-501.53"/>
<polygon fill="black" stroke="black" points="1197.62,-499.82 1190.23,-492.23 1191.27,-502.77 1197.62,-499.82"/>
<text text-anchor="middle" x="1205.54" y="-501.41" font-family="Times,serif" font-size="14.00">*0</text>
</g>
<!-- node10 -->
<g id="node26" class="node">
<title>node10</title>
<polygon fill="lightgrey" stroke="black" points="779.79,-492 621.79,-492 621.79,-456 779.79,-456 779.79,-492"/>
<text text-anchor="middle" x="700.79" y="-470.3" font-family="Times,serif" font-size="14.00">#10 ArrayLoad : int</text>
</g>
<!-- node0&#45;&gt;node10 -->
<g id="edge40" class="edge">
<title>node0:prj3&#45;&gt;node10</title>
<path fill="none" stroke="black" d="M747.79,-779C755.36,-779 752.22,-769.76 758.79,-766 824.96,-728.18 878.67,-795.27 927.79,-737 942.69,-719.33 931.59,-707.8 927.79,-685 922.16,-651.17 928.58,-634.61 902.79,-612 853.7,-568.96 811.22,-621.9 758.79,-583 756.94,-581.63 731.08,-532.74 714.52,-501.21"/>
<polygon fill="black" stroke="black" points="717.46,-499.29 709.72,-492.06 711.26,-502.54 717.46,-499.29"/>
<text text-anchor="middle" x="725.62" y="-500.48" font-family="Times,serif" font-size="14.00">*1</text>
</g>
<!-- node5 -->
<g id="node28" class="node">
<title>node5</title>
<polygon fill="orange" stroke="black" points="1637.21,-703.54 1637.21,-718.46 1594.79,-729 1534.79,-729 1492.37,-718.46 1492.37,-703.54 1534.79,-693 1594.79,-693 1637.21,-703.54"/>
<text text-anchor="middle" x="1564.79" y="-707.3" font-family="Times,serif" font-size="14.00">#5 Add : int</text>
</g>
<!-- node0&#45;&gt;node5 -->
<g id="edge50" class="edge">
<title>node0:prj2&#45;&gt;node5</title>
<path fill="none" stroke="black" d="M628.79,-766C628.79,-742.38 1455.69,-752.9 1478.79,-748 1493.97,-744.78 1509.84,-738.93 1523.76,-732.86"/>
<polygon fill="black" stroke="black" points="1525.38,-735.97 1533.05,-728.65 1522.5,-729.59 1525.38,-735.97"/>
<text text-anchor="middle" x="1520.02" y="-740.13" font-family="Times,serif" font-size="14.00">*0</text>
</g>
<!-- node0&#45;&gt;node5 -->
<g id="edge51" class="edge">
<title>node0:prj3&#45;&gt;node5</title>
<path fill="none" stroke="black" d="M747.79,-779C755.36,-779 751.96,-769.27 758.79,-766 832.47,-730.72 1414.58,-767.96 1493.79,-748 1505.94,-744.94 1518.38,-739.53 1529.39,-733.83"/>
<polygon fill="black" stroke="black" points="1531.14,-736.86 1538.26,-729.01 1527.8,-730.71 1531.14,-736.86"/>
<text text-anchor="middle" x="1526.37" y="-741.39" font-family="Times,serif" font-size="14.00">*1</text>
</g>
<!-- node7 -->
<g id="node3" class="node">
<title>node7</title>
<polygon fill="lightgrey" stroke="black" points="716.29,-656 597.29,-656 597.29,-620 716.29,-620 716.29,-656"/>
<text text-anchor="middle" x="656.79" y="-634.3" font-family="Times,serif" font-size="14.00">#7 LabelNode</text>
</g>
<!-- node4&#45;&gt;node7 -->
<g id="edge2" class="edge">
<title>node4&#45;&gt;node7</title>
<path fill="none" stroke="red" d="M784.17,-692.97C775.77,-690.14 767.06,-687.37 758.79,-685 739.51,-679.48 733.34,-682.61 714.79,-675 706.01,-671.4 697.06,-666.53 688.89,-661.54"/>
<polygon fill="red" stroke="red" points="690.7,-658.54 680.38,-656.13 686.94,-664.45 690.7,-658.54"/>
</g>
<!-- node8 -->
<g id="node27" class="node">
<title>node8</title>
<polygon fill="lightgreen" stroke="black" points="890.98,-630.54 890.98,-645.46 856.31,-656 807.28,-656 772.6,-645.46 772.6,-630.54 807.28,-620 856.31,-620 890.98,-630.54"/>
<text text-anchor="middle" x="831.79" y="-634.3" font-family="Times,serif" font-size="14.00">#8 int 10</text>
</g>
<!-- node4&#45;&gt;node8 -->
<g id="edge44" class="edge">
<title>node4&#45;&gt;node8</title>
<path fill="none" stroke="black" stroke-dasharray="1,5" d="M831.03,-692.81C831.15,-684.79 831.28,-675.05 831.41,-666.07"/>
<polygon fill="black" stroke="black" points="834.91,-666.08 831.55,-656.03 827.91,-665.98 834.91,-666.08"/>
</g>
<!-- node12 -->
<g id="node4" class="node">
<title>node12</title>
<polygon fill="lightgreen" stroke="black" points="714.98,-548.54 714.98,-563.46 680.31,-574 631.28,-574 596.6,-563.46 596.6,-548.54 631.28,-538 680.31,-538 714.98,-548.54"/>
<text text-anchor="middle" x="655.79" y="-552.3" font-family="Times,serif" font-size="14.00">#12 int 0</text>
</g>
<!-- node7&#45;&gt;node12 -->
<g id="edge3" class="edge">
<title>node7&#45;&gt;node12</title>
<path fill="none" stroke="black" stroke-dasharray="1,5" d="M656.57,-619.64C656.44,-609.3 656.28,-595.94 656.13,-584.22"/>
<polygon fill="black" stroke="black" points="659.63,-584.01 656,-574.05 652.63,-584.09 659.63,-584.01"/>
</g>
<!-- node11 -->
<g id="node21" class="node">
<title>node11</title>
<polygon fill="lightgrey" stroke="black" points="453.79,-574 249.79,-574 249.79,-538 453.79,-538 453.79,-574"/>
<text text-anchor="middle" x="351.79" y="-552.3" font-family="Times,serif" font-size="14.00">#11 LoopHeader : Loop14</text>
</g>
<!-- node7&#45;&gt;node11 -->
<g id="edge29" class="edge">
<title>node7&#45;&gt;node11</title>
<path fill="none" stroke="red" d="M612.8,-619.92C604.86,-617.1 596.63,-614.34 588.79,-612 542.51,-598.18 490.29,-585.73 446.67,-576.19"/>
<polygon fill="red" stroke="red" points="447.16,-572.71 436.64,-574.01 445.67,-579.56 447.16,-572.71"/>
</g>
<!-- node12&#45;&gt;node13 -->
<g id="edge5" class="edge">
<title>node12&#45;&gt;node13</title>
<path fill="none" stroke="blue" d="M623.19,-571.72C612.17,-576.08 599.64,-580.39 587.79,-583 541.46,-593.2 194.18,-577.33 161.79,-612 56.58,-724.62 349.82,-654.01 500.79,-685 509.42,-686.77 518.43,-689.38 527,-692.25"/>
<polygon fill="blue" stroke="blue" points="525.85,-695.55 536.45,-695.57 528.18,-688.95 525.85,-695.55"/>
<text text-anchor="middle" x="516.55" y="-693.83" font-family="Times,serif" font-size="14.00">if #7</text>
</g>
<!-- node35 -->
<g id="node6" class="node">
<title>node35</title>
<polygon fill="orange" stroke="black" points="157.37,-10.54 157.37,-25.46 111.34,-36 46.24,-36 0.21,-25.46 0.21,-10.54 46.24,0 111.34,0 157.37,-10.54"/>
<text text-anchor="middle" x="78.79" y="-14.3" font-family="Times,serif" font-size="14.00">#35 Add : int</text>
</g>
<!-- node13&#45;&gt;node35 -->
<g id="edge7" class="edge">
<title>node13&#45;&gt;node35</title>
<path fill="none" stroke="black" d="M536.85,-695.47C525.58,-691.3 512.84,-687.27 500.79,-685 354.42,-657.39 312.05,-703.23 165.79,-675 112.11,-664.64 66.79,-656.67 66.79,-602 66.79,-602 66.79,-602 66.79,-90 66.79,-75.3 69.32,-59.13 72.06,-45.94"/>
<polygon fill="black" stroke="black" points="75.5,-46.6 74.25,-36.08 68.66,-45.08 75.5,-46.6"/>
<text text-anchor="middle" x="78.56" y="-51.91" font-family="Times,serif" font-size="14.00">*0</text>
</g>
<!-- node15 -->
<g id="node20" class="node">
<title>node15</title>
<polygon fill="orange" stroke="black" points="579.61,-630.54 579.61,-645.46 490.09,-656 363.49,-656 273.98,-645.46 273.98,-630.54 363.49,-620 490.09,-620 579.61,-630.54"/>
<text text-anchor="middle" x="426.79" y="-634.3" font-family="Times,serif" font-size="14.00">#15 NumericCondition : GE</text>
</g>
<!-- node13&#45;&gt;node15 -->
<g id="edge33" class="edge">
<title>node13&#45;&gt;node15</title>
<path fill="none" stroke="black" d="M539.55,-694.59C519.42,-684.67 492.97,-671.63 470.75,-660.67"/>
<polygon fill="black" stroke="black" points="472.03,-657.4 461.51,-656.12 468.93,-663.68 472.03,-657.4"/>
<text text-anchor="middle" x="481.5" y="-652.85" font-family="Times,serif" font-size="14.00">*0</text>
</g>
<!-- node35&#45;&gt;node13 -->
<g id="edge6" class="edge">
<title>node35&#45;&gt;node13</title>
<path fill="none" stroke="blue" stroke-dasharray="5,2" d="M92.85,-36.15C111.42,-57.41 146.29,-92.82 184.79,-109 307.92,-160.74 1251.86,-188.07 1381.79,-219 1467.78,-239.47 1517.07,-218.92 1566.79,-292 1612.71,-359.48 1439.76,-559.97 1369.79,-602 1367.82,-603.18 829.58,-675.35 637.73,-701.04"/>
<polygon fill="blue" stroke="blue" points="637.22,-697.58 627.77,-702.37 638.15,-704.51 637.22,-697.58"/>
<text text-anchor="middle" x="644.62" y="-687.89" font-family="Times,serif" font-size="14.00">if #33</text>
</g>
<!-- node34 -->
<g id="node7" class="node">
<title>node34</title>
<polygon fill="lightgreen" stroke="black" points="322.98,-83.54 322.98,-98.46 288.31,-109 239.28,-109 204.6,-98.46 204.6,-83.54 239.28,-73 288.31,-73 322.98,-83.54"/>
<text text-anchor="middle" x="263.79" y="-87.3" font-family="Times,serif" font-size="14.00">#34 int 1</text>
</g>
<!-- node34&#45;&gt;node35 -->
<g id="edge8" class="edge">
<title>node34&#45;&gt;node35</title>
<path fill="none" stroke="black" d="M228.12,-76.31C199.77,-65.43 159.78,-50.08 128.32,-38.01"/>
<polygon fill="black" stroke="black" points="129.44,-34.69 118.85,-34.37 126.93,-41.22 129.44,-34.69"/>
<text text-anchor="middle" x="138.8" y="-29.28" font-family="Times,serif" font-size="14.00">*1</text>
</g>
<!-- node32 -->
<g id="node8" class="node">
<title>node32</title>
<polygon fill="lightgrey" stroke="black" points="372.79,-182 196.79,-182 196.79,-146 372.79,-146 372.79,-182"/>
<text text-anchor="middle" x="284.79" y="-160.3" font-family="Times,serif" font-size="14.00">#32 Merge : Merge42</text>
</g>
<!-- node32&#45;&gt;node34 -->
<g id="edge9" class="edge">
<title>node32&#45;&gt;node34</title>
<path fill="none" stroke="black" stroke-dasharray="1,5" d="M279.71,-145.81C277.31,-137.7 274.39,-127.84 271.71,-118.78"/>
<polygon fill="black" stroke="black" points="275.02,-117.63 268.83,-109.03 268.31,-119.61 275.02,-117.63"/>
</g>
<!-- node33 -->
<g id="node22" class="node">
<title>node33</title>
<polygon fill="lightgrey" stroke="black" points="256.29,-656 171.29,-656 171.29,-620 256.29,-620 256.29,-656"/>
<text text-anchor="middle" x="213.79" y="-634.3" font-family="Times,serif" font-size="14.00">#33 Goto</text>
</g>
<!-- node32&#45;&gt;node33 -->
<g id="edge31" class="edge">
<title>node32&#45;&gt;node33</title>
<path fill="none" stroke="red" d="M201.72,-182.08C176.25,-192.52 154.79,-209.26 154.79,-236 154.79,-557 154.79,-557 154.79,-557 154.79,-578.75 169.09,-598.47 183.61,-612.9"/>
<polygon fill="red" stroke="red" points="181.45,-615.67 191.15,-619.94 186.23,-610.55 181.45,-615.67"/>
</g>
<!-- node31 -->
<g id="node9" class="node">
<title>node31</title>
<polygon fill="lightgrey" stroke="black" points="1372.29,-255 1287.29,-255 1287.29,-219 1372.29,-219 1372.29,-255"/>
<text text-anchor="middle" x="1329.79" y="-233.3" font-family="Times,serif" font-size="14.00">#31 Goto</text>
</g>
<!-- node31&#45;&gt;node32 -->
<g id="edge10" class="edge">
<title>node31&#45;&gt;node32</title>
<path fill="none" stroke="red" d="M1287.05,-227.7C1268.06,-224.37 1245.39,-220.88 1224.79,-219 1038.85,-202.04 568.37,-235.07 384.79,-201 367.2,-197.74 348.59,-191.78 332.25,-185.64"/>
<polygon fill="red" stroke="red" points="333.51,-182.37 322.92,-182.02 330.98,-188.9 333.51,-182.37"/>
</g>
<!-- node30&#45;&gt;node32 -->
<g id="edge11" class="edge">
<title>node30&#45;&gt;node32</title>
<path fill="none" stroke="red" d="M913.06,-234.93C740.67,-232.29 367.17,-223.88 313.79,-201 307.54,-198.32 301.7,-194.13 296.79,-189.55"/>
<polygon fill="red" stroke="red" points="299.28,-187.09 289.9,-182.17 294.17,-191.87 299.28,-187.09"/>
</g>
<!-- node30&#45;&gt;node32 -->
<g id="edge13" class="edge">
<title>node30&#45;&gt;node32</title>
<path fill="none" stroke="green" d="M913.23,-234.78C744.59,-231.96 384.15,-223.45 331.79,-201 325.39,-198.26 319.42,-193.93 313.95,-189.22"/>
<polygon fill="green" stroke="green" points="316.04,-186.38 306.31,-182.17 311.29,-191.53 316.04,-186.38"/>
</g>
<!-- node28&#45;&gt;node32 -->
<g id="edge12" class="edge">
<title>node28&#45;&gt;node32</title>
<path fill="none" stroke="green" d="M1449.1,-291.87C1439.18,-284.9 1426.94,-277.46 1414.79,-273 1357.55,-252.01 1338.96,-264.89 1278.79,-255 1197,-241.56 1178.19,-228.07 1095.79,-219 937.37,-201.56 535.14,-231.95 378.79,-201 362.62,-197.8 345.6,-192.07 330.56,-186.11"/>
<polygon fill="green" stroke="green" points="331.57,-182.74 320.99,-182.18 328.91,-189.21 331.57,-182.74"/>
</g>
<!-- node28&#45;&gt;node31 -->
<g id="edge54" class="edge">
<title>node28&#45;&gt;node31</title>
<path fill="none" stroke="red" d="M1464.02,-291.64C1460.65,-284.97 1455.95,-277.81 1449.79,-273 1438.94,-264.52 1409.35,-255.85 1382.28,-249.26"/>
<polygon fill="red" stroke="red" points="1382.99,-245.83 1372.45,-246.93 1381.38,-252.64 1382.99,-245.83"/>
</g>
<!-- node9&#45;&gt;node30 -->
<g id="edge14" class="edge">
<title>node9&#45;&gt;node30</title>
<path fill="none" stroke="black" d="M1023.29,-537.93C1014.11,-515.47 999.79,-474.56 999.79,-438 999.79,-438 999.79,-438 999.79,-309 999.79,-294.65 999.79,-278.67 999.79,-265.51"/>
<polygon fill="black" stroke="black" points="1003.29,-265.22 999.79,-255.22 996.29,-265.22 1003.29,-265.22"/>
<text text-anchor="middle" x="1008.24" y="-269.64" font-family="Times,serif" font-size="14.00">*0</text>
</g>
<!-- node9&#45;&gt;node28 -->
<g id="edge45" class="edge">
<title>node9&#45;&gt;node28</title>
<path fill="none" stroke="black" d="M1128,-546.19C1205.99,-537.61 1308,-522.55 1342.79,-500 1404.08,-460.28 1443.47,-379.79 1460.72,-337.82"/>
<polygon fill="black" stroke="black" points="1464.07,-338.86 1464.53,-328.27 1457.57,-336.26 1464.07,-338.86"/>
<text text-anchor="middle" x="1465.66" y="-344.54" font-family="Times,serif" font-size="14.00">*0</text>
</g>
<!-- node9&#45;&gt;node20 -->
<g id="edge22" class="edge">
<title>node9&#45;&gt;node20</title>
<path fill="none" stroke="black" d="M993.81,-537.84C970.88,-525.97 941.72,-510.08 919.27,-497.25"/>
<polygon fill="black" stroke="black" points="920.82,-494.1 910.41,-492.13 917.32,-500.16 920.82,-494.1"/>
<text text-anchor="middle" x="930.33" y="-490.17" font-family="Times,serif" font-size="14.00">*0</text>
</g>
<!-- node9&#45;&gt;node20 -->
<g id="edge25" class="edge">
<title>node9&#45;&gt;node20</title>
<path fill="none" stroke="green" d="M1005.13,-537.84C984.58,-525.87 955.39,-509.8 930.86,-496.9"/>
<polygon fill="green" stroke="green" points="932.2,-493.66 921.71,-492.13 928.96,-499.86 932.2,-493.66"/>
</g>
<!-- node9&#45;&gt;node10 -->
<g id="edge39" class="edge">
<title>node9&#45;&gt;node10</title>
<path fill="none" stroke="black" d="M963.05,-541.47C893.89,-526.71 794.46,-504.58 776.79,-500 770.63,-498.41 764.25,-496.67 757.91,-494.89"/>
<polygon fill="black" stroke="black" points="758.6,-491.45 748.02,-492.06 756.67,-498.18 758.6,-491.45"/>
<text text-anchor="middle" x="767.77" y="-485.22" font-family="Times,serif" font-size="14.00">*0</text>
</g>
<!-- node9&#45;&gt;node10 -->
<g id="edge41" class="edge">
<title>node9&#45;&gt;node10</title>
<path fill="none" stroke="green" d="M970.47,-540.19C906.32,-525.47 811.96,-504.45 794.79,-500 788.63,-498.41 782.25,-496.67 775.83,-494.89"/>
<polygon fill="green" stroke="green" points="776.33,-491.39 765.75,-492.06 774.43,-498.13 776.33,-491.39"/>
</g>
<!-- node6&#45;&gt;node30 -->
<g id="edge16" class="edge">
<title>node6&#45;&gt;node30</title>
<path fill="none" stroke="black" d="M347.34,-704.78C281.27,-698.67 189.82,-686.41 161.79,-664 121.5,-631.78 116.79,-608.59 116.79,-557 116.79,-557 116.79,-557 116.79,-346 116.79,-267.49 673.95,-245.56 903.11,-239.86"/>
<polygon fill="black" stroke="black" points="903.2,-243.36 913.11,-239.62 903.03,-236.36 903.2,-243.36"/>
<text text-anchor="middle" x="895.2" y="-244.81" font-family="Times,serif" font-size="14.00">*2</text>
</g>
<!-- node20&#45;&gt;node30 -->
<g id="edge17" class="edge">
<title>node20&#45;&gt;node30</title>
<path fill="none" stroke="green" d="M971.61,-456.55C987.3,-453.65 1003.53,-450.7 1018.79,-448 1057.39,-441.18 1167.45,-448.91 1192.79,-419 1229.73,-375.4 1212.48,-333.11 1172.79,-292 1160.41,-279.17 1125.08,-267.12 1089.55,-257.67"/>
<polygon fill="green" stroke="green" points="1090.1,-254.19 1079.54,-255.07 1088.34,-260.97 1090.1,-254.19"/>
</g>
<!-- node20&#45;&gt;node28 -->
<g id="edge48" class="edge">
<title>node20&#45;&gt;node28</title>
<path fill="none" stroke="green" d="M862.01,-455.88C851.26,-446.36 839.56,-433.5 833.79,-419 824.92,-396.7 817.55,-382.67 833.79,-365 842.82,-355.17 1198.05,-329.62 1374.02,-317.52"/>
<polygon fill="green" stroke="green" points="1374.33,-321.01 1384.06,-316.84 1373.85,-314.03 1374.33,-321.01"/>
</g>
<!-- node25 -->
<g id="node16" class="node">
<title>node25</title>
<polygon fill="lightgrey" stroke="transparent" points="1183.29,-419 1094.29,-419 1094.29,-365 1183.29,-365 1183.29,-419"/>
<polygon fill="none" stroke="black" points="1094.79,-392 1094.79,-419 1183.79,-419 1183.79,-392 1094.79,-392"/>
<text text-anchor="start" x="1116.29" y="-401.8" font-family="Times,serif" font-size="14.00">#25 If</text>
<polygon fill="yellow" stroke="transparent" points="1094.79,-365 1094.79,-392 1140.79,-392 1140.79,-365 1094.79,-365"/>
<polygon fill="none" stroke="black" points="1094.79,-365 1094.79,-392 1140.79,-392 1140.79,-365 1094.79,-365"/>
<text text-anchor="start" x="1100.79" y="-374.8" font-family="Times,serif" font-size="14.00">false</text>
<polygon fill="yellow" stroke="transparent" points="1140.79,-365 1140.79,-392 1183.79,-392 1183.79,-365 1140.79,-365"/>
<polygon fill="none" stroke="black" points="1140.79,-365 1140.79,-392 1183.79,-392 1183.79,-365 1140.79,-365"/>
<text text-anchor="start" x="1146.79" y="-374.8" font-family="Times,serif" font-size="14.00">true</text>
</g>
<!-- node20&#45;&gt;node25 -->
<g id="edge21" class="edge">
<title>node20&#45;&gt;node25</title>
<path fill="none" stroke="red" d="M938.97,-455.94C981.82,-442.44 1041.37,-423.68 1084.3,-410.16"/>
<polygon fill="red" stroke="red" points="1085.53,-413.45 1094.01,-407.1 1083.42,-406.77 1085.53,-413.45"/>
</g>
<!-- node23 -->
<g id="node29" class="node">
<title>node23</title>
<polygon fill="lightgreen" stroke="black" points="960.98,-384.54 960.98,-399.46 926.31,-410 877.28,-410 842.6,-399.46 842.6,-384.54 877.28,-374 926.31,-374 960.98,-384.54"/>
<text text-anchor="middle" x="901.79" y="-388.3" font-family="Times,serif" font-size="14.00">#23 int 0</text>
</g>
<!-- node20&#45;&gt;node23 -->
<g id="edge56" class="edge">
<title>node20&#45;&gt;node23</title>
<path fill="none" stroke="black" stroke-dasharray="1,5" d="M888.48,-455.64C890.7,-445.19 893.57,-431.67 896.08,-419.86"/>
<polygon fill="black" stroke="black" points="899.51,-420.56 898.17,-410.05 892.67,-419.1 899.51,-420.56"/>
</g>
<!-- node29 -->
<g id="node15" class="node">
<title>node29</title>
<polygon fill="lightgrey" stroke="black" points="1163.79,-328 1035.79,-328 1035.79,-292 1163.79,-292 1163.79,-328"/>
<text text-anchor="middle" x="1099.79" y="-306.3" font-family="Times,serif" font-size="14.00">#29 LabelNode</text>
</g>
<!-- node29&#45;&gt;node30 -->
<g id="edge18" class="edge">
<title>node29&#45;&gt;node30</title>
<path fill="none" stroke="red" d="M1075.84,-291.99C1062.82,-282.75 1046.54,-271.19 1032.39,-261.14"/>
<polygon fill="red" stroke="red" points="1034.07,-258.05 1023.89,-255.11 1030.02,-263.76 1034.07,-258.05"/>
</g>
<!-- node25&#45;&gt;node28 -->
<g id="edge49" class="edge">
<title>node25:prj27&#45;&gt;node28</title>
<path fill="none" stroke="red" d="M1117.79,-365C1117.79,-361.75 1269.52,-339.55 1374.03,-324.65"/>
<polygon fill="red" stroke="red" points="1374.58,-328.1 1383.99,-323.23 1373.59,-321.17 1374.58,-328.1"/>
</g>
<!-- node25&#45;&gt;node29 -->
<g id="edge19" class="edge">
<title>node25:prj26&#45;&gt;node29</title>
<path fill="none" stroke="red" d="M1162.79,-365C1162.79,-352.5 1155.55,-342.26 1145.98,-334.2"/>
<polygon fill="red" stroke="red" points="1148.01,-331.35 1137.89,-328.2 1143.83,-336.97 1148.01,-331.35"/>
</g>
<!-- node24&#45;&gt;node25 -->
<g id="edge20" class="edge">
<title>node24&#45;&gt;node25</title>
<path fill="none" stroke="black" d="M1171.68,-455.64C1167.44,-447.56 1162.23,-437.64 1157.22,-428.11"/>
<polygon fill="black" stroke="black" points="1160.27,-426.37 1152.52,-419.15 1154.07,-429.63 1160.27,-426.37"/>
<text text-anchor="middle" x="1168.43" y="-427.57" font-family="Times,serif" font-size="14.00">*0</text>
</g>
<!-- node19 -->
<g id="node18" class="node">
<title>node19</title>
<polygon fill="lightgreen" stroke="black" points="901.14,-548.54 901.14,-563.46 862.86,-574 808.72,-574 770.44,-563.46 770.44,-548.54 808.72,-538 862.86,-538 901.14,-548.54"/>
<text text-anchor="middle" x="835.79" y="-552.3" font-family="Times,serif" font-size="14.00">#19 int 10</text>
</g>
<!-- node19&#45;&gt;node20 -->
<g id="edge24" class="edge">
<title>node19&#45;&gt;node20</title>
<path fill="none" stroke="black" d="M846.42,-537.64C853.02,-526.87 861.61,-512.85 868.99,-500.79"/>
<polygon fill="black" stroke="black" points="872.11,-502.41 874.35,-492.05 866.14,-498.75 872.11,-502.41"/>
<text text-anchor="middle" x="872.09" y="-508.22" font-family="Times,serif" font-size="14.00">*2</text>
</g>
<!-- node16 -->
<g id="node19" class="node">
<title>node16</title>
<polygon fill="lightgrey" stroke="transparent" points="578.29,-583 489.29,-583 489.29,-529 578.29,-529 578.29,-583"/>
<polygon fill="none" stroke="black" points="489.79,-556 489.79,-583 578.79,-583 578.79,-556 489.79,-556"/>
<text text-anchor="start" x="511.29" y="-565.8" font-family="Times,serif" font-size="14.00">#16 If</text>
<polygon fill="yellow" stroke="transparent" points="489.79,-529 489.79,-556 535.79,-556 535.79,-529 489.79,-529"/>
<polygon fill="none" stroke="black" points="489.79,-529 489.79,-556 535.79,-556 535.79,-529 489.79,-529"/>
<text text-anchor="start" x="495.79" y="-538.8" font-family="Times,serif" font-size="14.00">false</text>
<polygon fill="yellow" stroke="transparent" points="535.79,-529 535.79,-556 578.79,-556 578.79,-529 535.79,-529"/>
<polygon fill="none" stroke="black" points="535.79,-529 535.79,-556 578.79,-556 578.79,-529 535.79,-529"/>
<text text-anchor="start" x="541.79" y="-538.8" font-family="Times,serif" font-size="14.00">true</text>
</g>
<!-- node16&#45;&gt;node20 -->
<g id="edge26" class="edge">
<title>node16:prj17&#45;&gt;node20</title>
<path fill="none" stroke="red" d="M512.79,-529C512.79,-513.58 773.62,-502.76 788.79,-500 797.41,-498.43 806.39,-496.5 815.25,-494.42"/>
<polygon fill="red" stroke="red" points="816.29,-497.76 825.18,-492 814.64,-490.96 816.29,-497.76"/>
</g>
<!-- node16&#45;&gt;node19 -->
<g id="edge55" class="edge">
<title>node16:prj17&#45;&gt;node19</title>
<path fill="none" stroke="black" stroke-dasharray="1,5" d="M512.79,-528C512.79,-520.72 572.84,-524.18 578.29,-529 587.37,-537.03 581.67,-571.61 585.79,-583 588.37,-590.13 588.16,-593.81 594.79,-597.5 624.5,-614.03 714.61,-604.93 747.79,-597.5 764.99,-593.65 782.79,-586.04 797.84,-578.38"/>
<polygon fill="black" stroke="black" points="799.62,-581.4 806.83,-573.64 796.35,-575.21 799.62,-581.4"/>
</g>
<!-- node21 -->
<g id="node24" class="node">
<title>node21</title>
<polygon fill="lightgrey" stroke="black" points="603.79,-492 475.79,-492 475.79,-456 603.79,-456 603.79,-492"/>
<text text-anchor="middle" x="539.79" y="-470.3" font-family="Times,serif" font-size="14.00">#21 LabelNode</text>
</g>
<!-- node16&#45;&gt;node21 -->
<g id="edge35" class="edge">
<title>node16:prj18&#45;&gt;node21</title>
<path fill="none" stroke="red" d="M557.79,-529C557.79,-519.77 555.39,-510.08 552.35,-501.5"/>
<polygon fill="red" stroke="red" points="555.53,-500.03 548.58,-492.03 549.03,-502.62 555.53,-500.03"/>
</g>
<!-- node15&#45;&gt;node16 -->
<g id="edge27" class="edge">
<title>node15&#45;&gt;node16</title>
<path fill="none" stroke="black" d="M449.75,-619.84C461.65,-610.93 476.6,-599.76 490.57,-589.31"/>
<polygon fill="black" stroke="black" points="492.74,-592.06 498.66,-583.27 488.55,-586.45 492.74,-592.06"/>
<text text-anchor="middle" x="489.2" y="-597.19" font-family="Times,serif" font-size="14.00">*0</text>
</g>
<!-- node11&#45;&gt;node16 -->
<g id="edge28" class="edge">
<title>node11&#45;&gt;node16</title>
<path fill="none" stroke="red" d="M453.81,-556C462.18,-556 470.54,-556 478.91,-556"/>
<polygon fill="red" stroke="red" points="479.11,-559.5 489.11,-556 479.11,-552.5 479.11,-559.5"/>
</g>
<!-- node14 -->
<g id="node23" class="node">
<title>node14</title>
<polygon fill="lightgreen" stroke="black" points="398.14,-466.54 398.14,-481.46 359.86,-492 305.72,-492 267.44,-481.46 267.44,-466.54 305.72,-456 359.86,-456 398.14,-466.54"/>
<text text-anchor="middle" x="332.79" y="-470.3" font-family="Times,serif" font-size="14.00">#14 int 10</text>
</g>
<!-- node11&#45;&gt;node14 -->
<g id="edge32" class="edge">
<title>node11&#45;&gt;node14</title>
<path fill="none" stroke="black" stroke-dasharray="1,5" d="M347.67,-537.64C345.19,-527.19 341.97,-513.67 339.17,-501.86"/>
<polygon fill="black" stroke="black" points="342.56,-500.97 336.84,-492.05 335.75,-502.59 342.56,-500.97"/>
</g>
<!-- node33&#45;&gt;node11 -->
<g id="edge30" class="edge">
<title>node33&#45;&gt;node11</title>
<path fill="none" stroke="red" stroke-dasharray="5,2" d="M243.4,-619.84C263.86,-607.97 291.28,-592.08 313.42,-579.25"/>
<polygon fill="red" stroke="red" points="315.34,-582.18 322.24,-574.13 311.83,-576.12 315.34,-582.18"/>
</g>
<!-- node14&#45;&gt;node15 -->
<g id="edge34" class="edge">
<title>node14&#45;&gt;node15</title>
<path fill="none" stroke="black" d="M291.83,-488.2C272.74,-496.64 251.83,-509.71 240.79,-529 228.87,-549.83 226.38,-563.81 240.79,-583 252.57,-598.68 292.22,-611.28 331.91,-620.35"/>
<polygon fill="black" stroke="black" points="331.19,-623.78 341.71,-622.53 332.7,-616.95 331.19,-623.78"/>
<text text-anchor="middle" x="322.18" y="-623.16" font-family="Times,serif" font-size="14.00">*1</text>
</g>
<!-- node22 -->
<g id="node25" class="node">
<title>node22</title>
<polygon fill="lightgrey" stroke="black" points="692.29,-410 519.29,-410 519.29,-374 692.29,-374 692.29,-410"/>
<text text-anchor="middle" x="605.79" y="-388.3" font-family="Times,serif" font-size="14.00">#22 ReturnValue : int</text>
</g>
<!-- node21&#45;&gt;node22 -->
<g id="edge37" class="edge">
<title>node21&#45;&gt;node22</title>
<path fill="none" stroke="red" d="M554.11,-455.64C563.17,-444.66 575.02,-430.29 585.09,-418.09"/>
<polygon fill="red" stroke="red" points="588.06,-419.99 591.72,-410.05 582.66,-415.54 588.06,-419.99"/>
</g>
<!-- node10&#45;&gt;node22 -->
<g id="edge36" class="edge">
<title>node10&#45;&gt;node22</title>
<path fill="none" stroke="black" d="M674.75,-455.84C660.14,-444.55 642.21,-429.62 628.21,-417.15"/>
<polygon fill="black" stroke="black" points="630.24,-414.26 620.48,-410.13 625.54,-419.45 630.24,-414.26"/>
<text text-anchor="middle" x="639.59" y="-412.36" font-family="Times,serif" font-size="14.00">*0</text>
</g>
<!-- node10&#45;&gt;node22 -->
<g id="edge38" class="edge">
<title>node10&#45;&gt;node22</title>
<path fill="none" stroke="green" d="M685.86,-455.64C673.42,-444.14 655.51,-428.9 639.71,-416.34"/>
<polygon fill="green" stroke="green" points="641.71,-413.46 631.68,-410.05 637.39,-418.97 641.71,-413.46"/>
</g>
<!-- node8&#45;&gt;node9 -->
<g id="edge42" class="edge">
<title>node8&#45;&gt;node9</title>
<path fill="none" stroke="black" d="M866.45,-623.07C897.4,-610.63 943.16,-592.23 978.54,-578.01"/>
<polygon fill="black" stroke="black" points="980.25,-581.09 988.22,-574.11 977.64,-574.6 980.25,-581.09"/>
<text text-anchor="middle" x="974.56" y="-585.02" font-family="Times,serif" font-size="14.00">*0</text>
</g>
<!-- node5&#45;&gt;node28 -->
<g id="edge47" class="edge">
<title>node5&#45;&gt;node28</title>
<path fill="none" stroke="black" d="M1562.9,-692.81C1561.48,-678.44 1559.79,-657.41 1559.79,-639 1559.79,-639 1559.79,-639 1559.79,-391 1559.79,-365.8 1539.81,-346.52 1518.79,-333.21"/>
<polygon fill="black" stroke="black" points="1520.47,-330.14 1510.09,-328.05 1516.9,-336.16 1520.47,-330.14"/>
<text text-anchor="middle" x="1529.99" y="-326.33" font-family="Times,serif" font-size="14.00">*2</text>
</g>
<!-- node23&#45;&gt;node24 -->
<g id="edge58" class="edge">
<title>node23&#45;&gt;node24</title>
<path fill="none" stroke="black" d="M943.55,-404.97C987.95,-417.7 1058.89,-438.05 1111.65,-453.18"/>
<polygon fill="black" stroke="black" points="1110.7,-456.54 1121.28,-455.94 1112.63,-449.82 1110.7,-456.54"/>
<text text-anchor="middle" x="1101.53" y="-455.36" font-family="Times,serif" font-size="14.00">*1</text>
</g>
<!-- c0 -->
<!-- c1 -->
<!-- c0&#45;&gt;c1 -->
<g id="edge59" class="edge">
<title>c0&#45;&gt;c1</title>
<path fill="none" stroke="red" d="M1498.68,-793C1509.9,-793 1568.03,-793 1593.65,-793"/>
<polygon fill="red" stroke="red" points="1593.85,-796.5 1603.85,-793 1593.85,-789.5 1593.85,-796.5"/>
<text text-anchor="middle" x="1551.29" y="-799.8" font-family="Times,serif" font-size="14.00">Control flow</text>
</g>
<!-- c2 -->
<!-- c3 -->
<!-- c2&#45;&gt;c3 -->
<g id="edge60" class="edge">
<title>c2&#45;&gt;c3</title>
<path fill="none" stroke="red" stroke-dasharray="5,2" d="M1291.87,-793C1308.84,-793 1425,-793 1462.88,-793"/>
<polygon fill="red" stroke="red" points="1462.96,-796.5 1472.96,-793 1462.96,-789.5 1462.96,-796.5"/>
<text text-anchor="middle" x="1382.29" y="-799.8" font-family="Times,serif" font-size="14.00">Control flow back edge</text>
</g>
<!-- d0 -->
<!-- d1 -->
<!-- d0&#45;&gt;d1 -->
<g id="edge61" class="edge">
<title>d0&#45;&gt;d1</title>
<path fill="none" stroke="black" d="M1180.65,-793C1190.2,-793 1234.1,-793 1255.71,-793"/>
<polygon fill="black" stroke="black" points="1255.94,-796.5 1265.94,-793 1255.94,-789.5 1255.94,-796.5"/>
<text text-anchor="middle" x="1223.29" y="-799.8" font-family="Times,serif" font-size="14.00">Data flow</text>
</g>
<!-- d2 -->
<!-- d3 -->
<!-- d2&#45;&gt;d3 -->
<g id="edge62" class="edge">
<title>d2&#45;&gt;d3</title>
<path fill="none" stroke="black" stroke-dasharray="1,5" d="M1054.6,-793C1065.25,-793 1120.26,-793 1144.87,-793"/>
<polygon fill="black" stroke="black" points="1144.94,-796.5 1154.94,-793 1144.94,-789.5 1144.94,-796.5"/>
<text text-anchor="middle" x="1104.79" y="-799.8" font-family="Times,serif" font-size="14.00">Declaration</text>
</g>
<!-- d4 -->
<!-- d5 -->
<!-- d4&#45;&gt;d5 -->
<g id="edge63" class="edge">
<title>d4&#45;&gt;d5</title>
<path fill="none" stroke="blue" d="M911.89,-793C924.51,-793 990.67,-793 1018.47,-793"/>
<polygon fill="blue" stroke="blue" points="1018.63,-796.5 1028.63,-793 1018.63,-789.5 1018.63,-796.5"/>
<text text-anchor="middle" x="970.29" y="-799.8" font-family="Times,serif" font-size="14.00">PHI Data flow</text>
</g>
<!-- d6 -->
<!-- d7 -->
<!-- d6&#45;&gt;d7 -->
<g id="edge64" class="edge">
<title>d6&#45;&gt;d7</title>
<path fill="none" stroke="green" d="M774.79,-793C786.73,-793 849.09,-793 875.72,-793"/>
<polygon fill="green" stroke="green" points="875.74,-796.5 885.74,-793 875.74,-789.5 875.74,-796.5"/>
<text text-anchor="middle" x="830.29" y="-799.8" font-family="Times,serif" font-size="14.00">Memory flow</text>
</g>
</g>
</svg>
