<?xml version="1.0" encoding="UTF-8" standalone="no"?>
<!DOCTYPE svg PUBLIC "-//W3C//DTD SVG 1.1//EN"
 "http://www.w3.org/Graphics/SVG/1.1/DTD/svg11.dtd">
<!-- Generated by graphviz version 2.43.0 (0)
 -->
<!-- Title: %3 Pages: 1 -->
<svg width="2390pt" height="915pt"
 viewBox="0.00 0.00 2390.00 914.80" xmlns="http://www.w3.org/2000/svg" xmlns:xlink="http://www.w3.org/1999/xlink">
<g id="graph0" class="graph" transform="scale(1 1) rotate(0) translate(4 910.8)">
<title>%3</title>
<polygon fill="white" stroke="transparent" points="-4,4 -4,-910.8 2386,-910.8 2386,4 -4,4"/>
<g id="clust1" class="cluster">
<title>cluster_0</title>
<polygon fill="none" stroke="lightgray" points="644,-612 644,-737 935,-737 935,-612 644,-612"/>
</g>
<g id="clust2" class="cluster">
<title>cluster_1</title>
<polygon fill="none" stroke="lightgray" points="1170,-530 1170,-582 1316,-582 1316,-530 1170,-530"/>
</g>
<g id="clust3" class="cluster">
<title>cluster_2</title>
<polygon fill="none" stroke="lightgray" points="890,-65 890,-190 1082,-190 1082,-65 890,-65"/>
</g>
<g id="clust4" class="cluster">
<title>cluster_3</title>
<polygon fill="none" stroke="lightgray" points="43,-530 43,-664 263,-664 263,-530 43,-530"/>
</g>
<g id="clust5" class="cluster">
<title>cluster_4</title>
<polygon fill="none" stroke="lightgray" points="971,-685 971,-810 1107,-810 1107,-685 971,-685"/>
</g>
<g id="clust6" class="cluster">
<title>cluster_5</title>
<polygon fill="none" stroke="lightgray" points="1101,-366 1101,-500 1291,-500 1291,-366 1101,-366"/>
</g>
<g id="clust7" class="cluster">
<title>cluster_000</title>
<polygon fill="none" stroke="black" points="1521,-856.2 1521,-898.8 2374,-898.8 2374,-856.2 1521,-856.2"/>
<text text-anchor="middle" x="1947.5" y="-883.6" font-family="Times,serif" font-size="14.00">Legend</text>
</g>
<!-- node0 -->
<g id="node1" class="node">
<title>node0</title>
<polygon fill="lightgrey" stroke="transparent" points="1511.5,-893 1274.5,-893 1274.5,-839 1511.5,-839 1511.5,-893"/>
<polygon fill="none" stroke="black" points="1275,-866 1275,-893 1512,-893 1512,-866 1275,-866"/>
<text text-anchor="start" x="1353" y="-875.8" font-family="Times,serif" font-size="14.00">#0 Method</text>
<polygon fill="yellow" stroke="transparent" points="1275,-839 1275,-866 1354,-866 1354,-839 1275,-839"/>
<polygon fill="none" stroke="black" points="1275,-839 1275,-866 1354,-866 1354,-839 1275,-839"/>
<text text-anchor="start" x="1281" y="-848.8" font-family="Times,serif" font-size="14.00">arg0 : int</text>
<polygon fill="yellow" stroke="transparent" points="1354,-839 1354,-866 1433,-866 1433,-839 1354,-839"/>
<polygon fill="none" stroke="black" points="1354,-839 1354,-866 1433,-866 1433,-839 1354,-839"/>
<text text-anchor="start" x="1360" y="-848.8" font-family="Times,serif" font-size="14.00">arg1 : int</text>
<polygon fill="yellow" stroke="transparent" points="1433,-839 1433,-866 1512,-866 1512,-839 1433,-839"/>
<polygon fill="none" stroke="black" points="1433,-839 1433,-866 1512,-866 1512,-839 1433,-839"/>
<text text-anchor="start" x="1439" y="-848.8" font-family="Times,serif" font-size="14.00">arg2 : int</text>
</g>
<!-- node4 -->
<g id="node2" class="node">
<title>node4</title>
<polygon fill="lightgrey" stroke="black" points="1098.5,-802 979.5,-802 979.5,-766 1098.5,-766 1098.5,-802"/>
<text text-anchor="middle" x="1039" y="-780.3" font-family="Times,serif" font-size="14.00">#4 LabelNode</text>
</g>
<!-- node0&#45;&gt;node4 -->
<g id="edge1" class="edge">
<title>node0&#45;&gt;node4</title>
<path fill="none" stroke="red" d="M1274.3,-849.4C1230.45,-842.4 1180.59,-832.98 1136,-821 1120.63,-816.87 1104.28,-811.29 1089.47,-805.75"/>
<polygon fill="red" stroke="red" points="1090.58,-802.43 1079.99,-802.14 1088.09,-808.97 1090.58,-802.43"/>
</g>
<!-- node9 -->
<g id="node4" class="node">
<title>node9</title>
<polygon fill="orange" stroke="black" points="1122.3,-548.54 1122.3,-563.46 1057.1,-574 964.9,-574 899.7,-563.46 899.7,-548.54 964.9,-538 1057.1,-538 1122.3,-548.54"/>
<text text-anchor="middle" x="1011" y="-552.3" font-family="Times,serif" font-size="14.00">#9 NewArray : int[]</text>
</g>
<!-- node0&#45;&gt;node9 -->
<g id="edge4" class="edge">
<title>node0&#45;&gt;node9</title>
<path fill="none" stroke="green" d="M1327.16,-838.96C1270.53,-817.27 1186.3,-786.69 1111,-766 1048.05,-748.7 1019.45,-775.87 967,-737 945.91,-721.37 961.31,-698.83 939,-685 878.81,-647.69 351.24,-714.89 302,-664 285.93,-647.39 286.12,-628.8 302,-612 341.37,-570.35 759.94,-588.42 817,-583 851.64,-579.71 889.61,-574.89 922.71,-570.29"/>
<polygon fill="green" stroke="green" points="923.39,-573.73 932.81,-568.87 922.42,-566.8 923.39,-573.73"/>
</g>
<!-- node20 -->
<g id="node5" class="node">
<title>node20</title>
<polygon fill="lightgrey" stroke="black" points="1282.5,-492 1109.5,-492 1109.5,-456 1282.5,-456 1282.5,-492"/>
<text text-anchor="middle" x="1196" y="-470.3" font-family="Times,serif" font-size="14.00">#20 ArrayStore : int[]</text>
</g>
<!-- node0&#45;&gt;node20 -->
<g id="edge6" class="edge">
<title>node0:prj1&#45;&gt;node20</title>
<path fill="none" stroke="black" d="M1394,-839C1394,-817.4 1370.35,-825.19 1355,-810 1345.08,-800.18 1336,-798.96 1336,-785 1336,-785 1336,-785 1336,-555 1336,-526.33 1313.59,-507.79 1286.7,-495.87"/>
<polygon fill="black" stroke="black" points="1288.02,-492.63 1277.44,-492.08 1285.37,-499.11 1288.02,-492.63"/>
<text text-anchor="middle" x="1297.42" y="-487.43" font-family="Times,serif" font-size="14.00">*1</text>
</g>
<!-- node31 -->
<g id="node14" class="node">
<title>node31</title>
<polygon fill="lightgrey" stroke="black" points="1847.5,-255 1674.5,-255 1674.5,-219 1847.5,-219 1847.5,-255"/>
<text text-anchor="middle" x="1761" y="-233.3" font-family="Times,serif" font-size="14.00">#31 ArrayStore : int[]</text>
</g>
<!-- node0&#45;&gt;node31 -->
<g id="edge20" class="edge">
<title>node0:prj3&#45;&gt;node31</title>
<path fill="none" stroke="black" d="M1513,-852C1519.05,-852 1512.28,-842.78 1517,-839 1548.83,-813.49 1847.2,-829.56 1883,-810 1895.25,-803.31 1902,-798.96 1902,-785 1902,-785 1902,-785 1902,-309 1902,-282.64 1882.09,-266.06 1857.24,-255.64"/>
<polygon fill="black" stroke="black" points="1858.48,-252.37 1847.89,-252.07 1855.98,-258.91 1858.48,-252.37"/>
<text text-anchor="middle" x="1867.84" y="-246.94" font-family="Times,serif" font-size="14.00">*1</text>
</g>
<!-- node27 -->
<g id="node15" class="node">
<title>node27</title>
<polygon fill="lightgrey" stroke="black" points="1347.5,-328 1174.5,-328 1174.5,-292 1347.5,-292 1347.5,-328"/>
<text text-anchor="middle" x="1261" y="-306.3" font-family="Times,serif" font-size="14.00">#27 ArrayStore : int[]</text>
</g>
<!-- node0&#45;&gt;node27 -->
<g id="edge31" class="edge">
<title>node0:prj3&#45;&gt;node27</title>
<path fill="none" stroke="black" d="M1513,-852C1519.05,-852 1514.28,-844.4 1517,-839 1575.98,-722.1 1651.06,-726.37 1692,-602 1712.97,-538.31 1694.09,-509.75 1654,-456 1584.95,-363.43 1450.35,-329.91 1358.09,-317.8"/>
<polygon fill="black" stroke="black" points="1358.25,-314.3 1347.89,-316.53 1357.38,-321.24 1358.25,-314.3"/>
<text text-anchor="middle" x="1366.93" y="-306.69" font-family="Times,serif" font-size="14.00">*1</text>
</g>
<!-- node6 -->
<g id="node16" class="node">
<title>node6</title>
<polygon fill="orange" stroke="black" points="1874.42,-776.54 1874.42,-791.46 1832,-802 1772,-802 1729.58,-791.46 1729.58,-776.54 1772,-766 1832,-766 1874.42,-776.54"/>
<text text-anchor="middle" x="1802" y="-780.3" font-family="Times,serif" font-size="14.00">#6 Sub : int</text>
</g>
<!-- node0&#45;&gt;node6 -->
<g id="edge37" class="edge">
<title>node0:prj1&#45;&gt;node6</title>
<path fill="none" stroke="black" d="M1394,-839C1394,-830.79 1604.52,-806.51 1723.12,-793.49"/>
<polygon fill="black" stroke="black" points="1723.69,-796.94 1733.25,-792.38 1722.93,-789.99 1723.69,-796.94"/>
<text text-anchor="middle" x="1716.15" y="-799.05" font-family="Times,serif" font-size="14.00">*0</text>
</g>
<!-- node0&#45;&gt;node6 -->
<g id="edge38" class="edge">
<title>node0:prj3&#45;&gt;node6</title>
<path fill="none" stroke="black" d="M1513,-852C1519.05,-852 1512.3,-842.81 1517,-839 1551.49,-811.04 1672.91,-831.7 1716,-821 1730.81,-817.32 1746.37,-811.48 1760.12,-805.55"/>
<polygon fill="black" stroke="black" points="1761.6,-808.72 1769.32,-801.47 1758.76,-802.33 1761.6,-808.72"/>
<text text-anchor="middle" x="1756.19" y="-812.85" font-family="Times,serif" font-size="14.00">*1</text>
</g>
<!-- node24 -->
<g id="node19" class="node">
<title>node24</title>
<polygon fill="orange" stroke="black" points="1644.82,-466.54 1644.82,-481.46 1555.3,-492 1428.7,-492 1339.18,-481.46 1339.18,-466.54 1428.7,-456 1555.3,-456 1644.82,-466.54"/>
<text text-anchor="middle" x="1492" y="-470.3" font-family="Times,serif" font-size="14.00">#24 NumericCondition : EQ</text>
</g>
<!-- node0&#45;&gt;node24 -->
<g id="edge27" class="edge">
<title>node0:prj2&#45;&gt;node24</title>
<path fill="none" stroke="black" d="M1314,-839C1314,-806.36 1311.77,-796.99 1322,-766 1357.31,-659.08 1435.6,-548.46 1472.3,-500.13"/>
<polygon fill="black" stroke="black" points="1475.14,-502.18 1478.44,-492.11 1469.58,-497.92 1475.14,-502.18"/>
<text text-anchor="middle" x="1474.13" y="-507.94" font-family="Times,serif" font-size="14.00">*0</text>
</g>
<!-- node5 -->
<g id="node21" class="node">
<title>node5</title>
<polygon fill="orange" stroke="black" points="1508.42,-776.54 1508.42,-791.46 1466,-802 1406,-802 1363.58,-791.46 1363.58,-776.54 1406,-766 1466,-766 1508.42,-776.54"/>
<text text-anchor="middle" x="1436" y="-780.3" font-family="Times,serif" font-size="14.00">#5 Add : int</text>
</g>
<!-- node0&#45;&gt;node5 -->
<g id="edge35" class="edge">
<title>node0:prj1&#45;&gt;node5</title>
<path fill="none" stroke="black" d="M1394,-839C1394,-828.2 1399.3,-818.26 1406.13,-809.93"/>
<polygon fill="black" stroke="black" points="1408.82,-812.18 1413.03,-802.46 1403.68,-807.43 1408.82,-812.18"/>
<text text-anchor="middle" x="1406.94" y="-817.81" font-family="Times,serif" font-size="14.00">*0</text>
</g>
<!-- node0&#45;&gt;node5 -->
<g id="edge36" class="edge">
<title>node0:prj3&#45;&gt;node5</title>
<path fill="none" stroke="black" d="M1473,-839C1473,-828.43 1468.12,-818.41 1461.9,-809.94"/>
<polygon fill="black" stroke="black" points="1464.43,-807.51 1455.37,-802.03 1459.03,-811.97 1464.43,-807.51"/>
<text text-anchor="middle" x="1473.42" y="-806.93" font-family="Times,serif" font-size="14.00">*1</text>
</g>
<!-- node10 -->
<g id="node22" class="node">
<title>node10</title>
<polygon fill="lightgrey" stroke="black" points="1090,-492 932,-492 932,-456 1090,-456 1090,-492"/>
<text text-anchor="middle" x="1011" y="-470.3" font-family="Times,serif" font-size="14.00">#10 ArrayLoad : int</text>
</g>
<!-- node0&#45;&gt;node10 -->
<g id="edge40" class="edge">
<title>node0:prj3&#45;&gt;node10</title>
<path fill="none" stroke="black" d="M1473,-839C1473,-820.67 1327.08,-824.03 1309,-821 1237.54,-809.03 1150,-857.46 1150,-785 1150,-785 1150,-785 1150,-555 1150,-540.69 1142.12,-538.01 1131,-529 1114.15,-515.34 1093.29,-504.38 1073.71,-496"/>
<polygon fill="black" stroke="black" points="1074.8,-492.67 1064.23,-492.1 1072.14,-499.14 1074.8,-492.67"/>
<text text-anchor="middle" x="1084.2" y="-487.48" font-family="Times,serif" font-size="14.00">*1</text>
</g>
<!-- node8 -->
<g id="node3" class="node">
<title>node8</title>
<polygon fill="lightgreen" stroke="black" points="1099.19,-703.54 1099.19,-718.46 1064.52,-729 1015.48,-729 980.81,-718.46 980.81,-703.54 1015.48,-693 1064.52,-693 1099.19,-703.54"/>
<text text-anchor="middle" x="1040" y="-707.3" font-family="Times,serif" font-size="14.00">#8 int 10</text>
</g>
<!-- node4&#45;&gt;node8 -->
<g id="edge2" class="edge">
<title>node4&#45;&gt;node8</title>
<path fill="none" stroke="black" stroke-dasharray="1,5" d="M1039.24,-765.81C1039.36,-757.79 1039.49,-748.05 1039.62,-739.07"/>
<polygon fill="black" stroke="black" points="1043.12,-739.08 1039.76,-729.03 1036.12,-738.98 1043.12,-739.08"/>
</g>
<!-- node7 -->
<g id="node10" class="node">
<title>node7</title>
<polygon fill="lightgrey" stroke="black" points="849.5,-729 730.5,-729 730.5,-693 849.5,-693 849.5,-729"/>
<text text-anchor="middle" x="790" y="-707.3" font-family="Times,serif" font-size="14.00">#7 LabelNode</text>
</g>
<!-- node4&#45;&gt;node7 -->
<g id="edge54" class="edge">
<title>node4&#45;&gt;node7</title>
<path fill="none" stroke="red" d="M979.36,-765.99C943.3,-755.71 897.18,-742.56 859.48,-731.81"/>
<polygon fill="red" stroke="red" points="860.16,-728.37 849.59,-728.99 858.24,-735.1 860.16,-728.37"/>
</g>
<!-- node8&#45;&gt;node9 -->
<g id="edge3" class="edge">
<title>node8&#45;&gt;node9</title>
<path fill="none" stroke="black" d="M1036.73,-692.75C1031.73,-666.35 1022.12,-615.69 1016.17,-584.28"/>
<polygon fill="black" stroke="black" points="1019.6,-583.6 1014.3,-574.43 1012.73,-584.9 1019.6,-583.6"/>
<text text-anchor="middle" x="1025.98" y="-586.96" font-family="Times,serif" font-size="14.00">*0</text>
</g>
<!-- node9&#45;&gt;node20 -->
<g id="edge5" class="edge">
<title>node9&#45;&gt;node20</title>
<path fill="none" stroke="black" d="M1045.03,-537.84C1072,-525.61 1110.07,-509.09 1141.28,-496.06"/>
<polygon fill="black" stroke="black" points="1142.83,-499.2 1150.72,-492.13 1140.15,-492.74 1142.83,-499.2"/>
<text text-anchor="middle" x="1137.23" y="-503.19" font-family="Times,serif" font-size="14.00">*0</text>
</g>
<!-- node9&#45;&gt;node20 -->
<g id="edge8" class="edge">
<title>node9&#45;&gt;node20</title>
<path fill="none" stroke="green" d="M1056.34,-537.84C1085.7,-525.71 1123.61,-509.37 1152.58,-496.39"/>
<polygon fill="green" stroke="green" points="1154.35,-499.43 1162.03,-492.13 1151.48,-493.05 1154.35,-499.43"/>
</g>
<!-- node9&#45;&gt;node31 -->
<g id="edge19" class="edge">
<title>node9&#45;&gt;node31</title>
<path fill="none" stroke="black" d="M1080.61,-541.7C1107.23,-537.04 1137.94,-532.18 1166,-529 1231.96,-521.53 1761,-541.38 1761,-475 1761,-475 1761,-475 1761,-309 1761,-294.65 1761,-278.67 1761,-265.51"/>
<polygon fill="black" stroke="black" points="1764.5,-265.22 1761,-255.22 1757.5,-265.22 1764.5,-265.22"/>
<text text-anchor="middle" x="1769.45" y="-269.64" font-family="Times,serif" font-size="14.00">*0</text>
</g>
<!-- node9&#45;&gt;node27 -->
<g id="edge30" class="edge">
<title>node9&#45;&gt;node27</title>
<path fill="none" stroke="black" d="M971.62,-537.84C954.64,-528.73 935.79,-516.07 923,-500 884.83,-452.07 854.96,-411.38 895,-365 929.15,-325.44 1067.79,-314.35 1164.27,-311.53"/>
<polygon fill="black" stroke="black" points="1164.45,-315.02 1174.35,-311.26 1164.26,-308.03 1164.45,-315.02"/>
<text text-anchor="middle" x="1156.46" y="-316.49" font-family="Times,serif" font-size="14.00">*0</text>
</g>
<!-- node9&#45;&gt;node10 -->
<g id="edge39" class="edge">
<title>node9&#45;&gt;node10</title>
<path fill="none" stroke="black" d="M1005.32,-537.64C1004.22,-527.3 1003.97,-513.94 1004.57,-502.22"/>
<polygon fill="black" stroke="black" points="1008.07,-502.29 1005.35,-492.05 1001.09,-501.75 1008.07,-502.29"/>
<text text-anchor="middle" x="1012.38" y="-507.08" font-family="Times,serif" font-size="14.00">*0</text>
</g>
<!-- node9&#45;&gt;node10 -->
<g id="edge41" class="edge">
<title>node9&#45;&gt;node10</title>
<path fill="none" stroke="green" d="M1016.68,-537.64C1017.78,-527.3 1018.03,-513.94 1017.43,-502.22"/>
<polygon fill="green" stroke="green" points="1020.91,-501.75 1016.65,-492.05 1013.93,-502.29 1020.91,-501.75"/>
</g>
<!-- node20&#45;&gt;node31 -->
<g id="edge22" class="edge">
<title>node20&#45;&gt;node31</title>
<path fill="none" stroke="green" d="M1282.54,-461.22C1366.97,-449.18 1485.36,-430.66 1504,-419 1563.1,-382.05 1539.69,-333.07 1596,-292 1616.53,-277.03 1641.44,-266.06 1665.61,-258.08"/>
<polygon fill="green" stroke="green" points="1666.7,-261.41 1675.18,-255.06 1664.59,-254.73 1666.7,-261.41"/>
</g>
<!-- node20&#45;&gt;node27 -->
<g id="edge33" class="edge">
<title>node20&#45;&gt;node27</title>
<path fill="none" stroke="green" d="M1109.3,-457.3C1025.73,-442.07 911.63,-420.97 910,-419 894.68,-400.52 894.37,-383.22 910,-365 942.16,-327.51 1071.59,-315.79 1163.91,-312.28"/>
<polygon fill="green" stroke="green" points="1164.26,-315.77 1174.13,-311.92 1164.01,-308.77 1164.26,-315.77"/>
</g>
<!-- node25 -->
<g id="node18" class="node">
<title>node25</title>
<polygon fill="lightgrey" stroke="transparent" points="1494.5,-419 1405.5,-419 1405.5,-365 1494.5,-365 1494.5,-419"/>
<polygon fill="none" stroke="black" points="1406,-392 1406,-419 1495,-419 1495,-392 1406,-392"/>
<text text-anchor="start" x="1427.5" y="-401.8" font-family="Times,serif" font-size="14.00">#25 If</text>
<polygon fill="yellow" stroke="transparent" points="1406,-365 1406,-392 1452,-392 1452,-365 1406,-365"/>
<polygon fill="none" stroke="black" points="1406,-365 1406,-392 1452,-392 1452,-365 1406,-365"/>
<text text-anchor="start" x="1412" y="-374.8" font-family="Times,serif" font-size="14.00">false</text>
<polygon fill="yellow" stroke="transparent" points="1452,-365 1452,-392 1495,-392 1495,-365 1452,-365"/>
<polygon fill="none" stroke="black" points="1452,-365 1452,-392 1495,-392 1495,-365 1452,-365"/>
<text text-anchor="start" x="1458" y="-374.8" font-family="Times,serif" font-size="14.00">true</text>
</g>
<!-- node20&#45;&gt;node25 -->
<g id="edge26" class="edge">
<title>node20&#45;&gt;node25</title>
<path fill="none" stroke="red" d="M1250.18,-455.94C1293.03,-442.44 1352.58,-423.68 1395.51,-410.16"/>
<polygon fill="red" stroke="red" points="1396.74,-413.45 1405.22,-407.1 1394.63,-406.77 1396.74,-413.45"/>
</g>
<!-- node23 -->
<g id="node20" class="node">
<title>node23</title>
<polygon fill="lightgreen" stroke="black" points="1276.19,-384.54 1276.19,-399.46 1241.52,-410 1192.48,-410 1157.81,-399.46 1157.81,-384.54 1192.48,-374 1241.52,-374 1276.19,-384.54"/>
<text text-anchor="middle" x="1217" y="-388.3" font-family="Times,serif" font-size="14.00">#23 int 0</text>
</g>
<!-- node20&#45;&gt;node23 -->
<g id="edge29" class="edge">
<title>node20&#45;&gt;node23</title>
<path fill="none" stroke="black" stroke-dasharray="1,5" d="M1200.56,-455.64C1203.3,-445.19 1206.85,-431.67 1209.95,-419.86"/>
<polygon fill="black" stroke="black" points="1213.37,-420.61 1212.52,-410.05 1206.6,-418.83 1213.37,-420.61"/>
</g>
<!-- node19 -->
<g id="node6" class="node">
<title>node19</title>
<polygon fill="lightgreen" stroke="black" points="1308.35,-548.54 1308.35,-563.46 1270.07,-574 1215.93,-574 1177.65,-563.46 1177.65,-548.54 1215.93,-538 1270.07,-538 1308.35,-548.54"/>
<text text-anchor="middle" x="1243" y="-552.3" font-family="Times,serif" font-size="14.00">#19 int 10</text>
</g>
<!-- node19&#45;&gt;node20 -->
<g id="edge7" class="edge">
<title>node19&#45;&gt;node20</title>
<path fill="none" stroke="black" d="M1232.8,-537.64C1226.48,-526.87 1218.23,-512.85 1211.15,-500.79"/>
<polygon fill="black" stroke="black" points="1214.1,-498.9 1206.02,-492.05 1208.06,-502.45 1214.1,-498.9"/>
<text text-anchor="middle" x="1222.49" y="-499.7" font-family="Times,serif" font-size="14.00">*2</text>
</g>
<!-- node16 -->
<g id="node7" class="node">
<title>node16</title>
<polygon fill="lightgrey" stroke="transparent" points="808.5,-583 719.5,-583 719.5,-529 808.5,-529 808.5,-583"/>
<polygon fill="none" stroke="black" points="720,-556 720,-583 809,-583 809,-556 720,-556"/>
<text text-anchor="start" x="741.5" y="-565.8" font-family="Times,serif" font-size="14.00">#16 If</text>
<polygon fill="yellow" stroke="transparent" points="720,-529 720,-556 766,-556 766,-529 720,-529"/>
<polygon fill="none" stroke="black" points="720,-529 720,-556 766,-556 766,-529 720,-529"/>
<text text-anchor="start" x="726" y="-538.8" font-family="Times,serif" font-size="14.00">false</text>
<polygon fill="yellow" stroke="transparent" points="766,-529 766,-556 809,-556 809,-529 766,-529"/>
<polygon fill="none" stroke="black" points="766,-529 766,-556 809,-556 809,-529 766,-529"/>
<text text-anchor="start" x="772" y="-538.8" font-family="Times,serif" font-size="14.00">true</text>
</g>
<!-- node16&#45;&gt;node20 -->
<g id="edge9" class="edge">
<title>node16:prj17&#45;&gt;node20</title>
<path fill="none" stroke="red" d="M743,-529C743,-509.16 1079.43,-503.29 1099,-500 1108,-498.48 1117.4,-496.54 1126.64,-494.4"/>
<polygon fill="red" stroke="red" points="1127.67,-497.75 1136.58,-492.02 1126.04,-490.95 1127.67,-497.75"/>
</g>
<!-- node16&#45;&gt;node19 -->
<g id="edge58" class="edge">
<title>node16:prj17&#45;&gt;node19</title>
<path fill="none" stroke="black" stroke-dasharray="1,5" d="M743,-528C743,-513.44 794.71,-524.33 808.5,-529 856.96,-545.4 852.42,-581.47 901,-597.5 947.64,-612.89 1073.56,-605.58 1122,-597.5 1147.76,-593.21 1175.39,-584.1 1197.73,-575.51"/>
<polygon fill="black" stroke="black" points="1199.26,-578.67 1207.28,-571.75 1196.69,-572.16 1199.26,-578.67"/>
</g>
<!-- node21 -->
<g id="node24" class="node">
<title>node21</title>
<polygon fill="lightgrey" stroke="black" points="847,-492 719,-492 719,-456 847,-456 847,-492"/>
<text text-anchor="middle" x="783" y="-470.3" font-family="Times,serif" font-size="14.00">#21 LabelNode</text>
</g>
<!-- node16&#45;&gt;node21 -->
<g id="edge45" class="edge">
<title>node16:prj18&#45;&gt;node21</title>
<path fill="none" stroke="red" d="M788,-529C788,-520.39 787.36,-511.05 786.54,-502.59"/>
<polygon fill="red" stroke="red" points="790,-502.03 785.44,-492.47 783.04,-502.79 790,-502.03"/>
</g>
<!-- node15 -->
<g id="node8" class="node">
<title>node15</title>
<polygon fill="orange" stroke="black" points="616.82,-630.54 616.82,-645.46 527.3,-656 400.7,-656 311.18,-645.46 311.18,-630.54 400.7,-620 527.3,-620 616.82,-630.54"/>
<text text-anchor="middle" x="464" y="-634.3" font-family="Times,serif" font-size="14.00">#15 NumericCondition : GE</text>
</g>
<!-- node15&#45;&gt;node16 -->
<g id="edge10" class="edge">
<title>node15&#45;&gt;node16</title>
<path fill="none" stroke="black" d="M527.62,-620.03C581.64,-605.63 658.33,-585.18 709.55,-571.52"/>
<polygon fill="black" stroke="black" points="710.68,-574.84 719.44,-568.88 708.88,-568.08 710.68,-574.84"/>
<text text-anchor="middle" x="704.1" y="-578.02" font-family="Times,serif" font-size="14.00">*0</text>
</g>
<!-- node11 -->
<g id="node9" class="node">
<title>node11</title>
<polygon fill="lightgrey" stroke="black" points="255,-656 51,-656 51,-620 255,-620 255,-656"/>
<text text-anchor="middle" x="153" y="-634.3" font-family="Times,serif" font-size="14.00">#11 LoopHeader : Loop14</text>
</g>
<!-- node11&#45;&gt;node16 -->
<g id="edge11" class="edge">
<title>node11&#45;&gt;node16</title>
<path fill="none" stroke="red" d="M250.28,-619.99C267.49,-617.18 285.25,-614.4 302,-612 448.75,-590.97 622.55,-571.82 709.18,-562.67"/>
<polygon fill="red" stroke="red" points="709.73,-566.13 719.31,-561.6 709,-559.17 709.73,-566.13"/>
</g>
<!-- node14 -->
<g id="node29" class="node">
<title>node14</title>
<polygon fill="lightgreen" stroke="black" points="245.35,-548.54 245.35,-563.46 207.07,-574 152.93,-574 114.65,-563.46 114.65,-548.54 152.93,-538 207.07,-538 245.35,-548.54"/>
<text text-anchor="middle" x="180" y="-552.3" font-family="Times,serif" font-size="14.00">#14 int 10</text>
</g>
<!-- node11&#45;&gt;node14 -->
<g id="edge57" class="edge">
<title>node11&#45;&gt;node14</title>
<path fill="none" stroke="black" stroke-dasharray="1,5" d="M158.86,-619.64C162.39,-609.19 166.95,-595.67 170.93,-583.86"/>
<polygon fill="black" stroke="black" points="174.36,-584.64 174.25,-574.05 167.73,-582.41 174.36,-584.64"/>
</g>
<!-- node7&#45;&gt;node11 -->
<g id="edge12" class="edge">
<title>node7&#45;&gt;node11</title>
<path fill="none" stroke="red" d="M730.22,-708.59C608.02,-705.32 333.44,-695.84 242,-675 226.95,-671.57 211.14,-665.91 197.09,-660.08"/>
<polygon fill="red" stroke="red" points="198.24,-656.77 187.67,-656.04 195.48,-663.2 198.24,-656.77"/>
</g>
<!-- node13 -->
<g id="node27" class="node">
<title>node13</title>
<polygon fill="orange" stroke="black" points="773.5,-630.54 773.5,-645.46 738.06,-656 687.94,-656 652.5,-645.46 652.5,-630.54 687.94,-620 738.06,-620 773.5,-630.54"/>
<text text-anchor="middle" x="713" y="-634.3" font-family="Times,serif" font-size="14.00">#13 Φ int</text>
</g>
<!-- node7&#45;&gt;node13 -->
<g id="edge50" class="edge">
<title>node7&#45;&gt;node13</title>
<path fill="none" stroke="black" stroke-dasharray="1,5" d="M771.36,-692.81C761.62,-683.83 749.54,-672.69 738.9,-662.89"/>
<polygon fill="black" stroke="black" points="741.19,-660.23 731.47,-656.03 736.45,-665.38 741.19,-660.23"/>
</g>
<!-- node12 -->
<g id="node28" class="node">
<title>node12</title>
<polygon fill="lightgreen" stroke="black" points="927.19,-630.54 927.19,-645.46 892.52,-656 843.48,-656 808.81,-645.46 808.81,-630.54 843.48,-620 892.52,-620 927.19,-630.54"/>
<text text-anchor="middle" x="868" y="-634.3" font-family="Times,serif" font-size="14.00">#12 int 0</text>
</g>
<!-- node7&#45;&gt;node12 -->
<g id="edge53" class="edge">
<title>node7&#45;&gt;node12</title>
<path fill="none" stroke="black" stroke-dasharray="1,5" d="M808.88,-692.81C818.75,-683.83 830.98,-672.69 841.76,-662.89"/>
<polygon fill="black" stroke="black" points="844.25,-665.35 849.29,-656.03 839.54,-660.17 844.25,-665.35"/>
</g>
<!-- node33 -->
<g id="node11" class="node">
<title>node33</title>
<polygon fill="lightgrey" stroke="black" points="322.5,-109 237.5,-109 237.5,-73 322.5,-73 322.5,-109"/>
<text text-anchor="middle" x="280" y="-87.3" font-family="Times,serif" font-size="14.00">#33 Goto</text>
</g>
<!-- node33&#45;&gt;node11 -->
<g id="edge13" class="edge">
<title>node33&#45;&gt;node11</title>
<path fill="none" stroke="red" stroke-dasharray="5,2" d="M237.47,-93.99C159.14,-98.83 0,-114.61 0,-163 0,-557 0,-557 0,-557 0,-585.82 21.58,-604.27 48.52,-616.08"/>
<polygon fill="red" stroke="red" points="47.26,-619.35 57.84,-619.84 49.88,-612.85 47.26,-619.35"/>
</g>
<!-- node32 -->
<g id="node12" class="node">
<title>node32</title>
<polygon fill="lightgrey" stroke="black" points="1074,-182 898,-182 898,-146 1074,-146 1074,-182"/>
<text text-anchor="middle" x="986" y="-160.3" font-family="Times,serif" font-size="14.00">#32 Merge : Merge42</text>
</g>
<!-- node32&#45;&gt;node33 -->
<g id="edge14" class="edge">
<title>node32&#45;&gt;node33</title>
<path fill="none" stroke="red" d="M897.66,-154.12C749,-139.17 453.29,-109.43 332.87,-97.32"/>
<polygon fill="red" stroke="red" points="333.1,-93.82 322.8,-96.3 332.4,-100.79 333.1,-93.82"/>
</g>
<!-- node34 -->
<g id="node25" class="node">
<title>node34</title>
<polygon fill="lightgreen" stroke="black" points="1023.19,-83.54 1023.19,-98.46 988.52,-109 939.48,-109 904.81,-98.46 904.81,-83.54 939.48,-73 988.52,-73 1023.19,-83.54"/>
<text text-anchor="middle" x="964" y="-87.3" font-family="Times,serif" font-size="14.00">#34 int 1</text>
</g>
<!-- node32&#45;&gt;node34 -->
<g id="edge47" class="edge">
<title>node32&#45;&gt;node34</title>
<path fill="none" stroke="black" stroke-dasharray="1,5" d="M980.67,-145.81C978.16,-137.7 975.1,-127.84 972.3,-118.78"/>
<polygon fill="black" stroke="black" points="975.58,-117.54 969.28,-109.03 968.89,-119.62 975.58,-117.54"/>
</g>
<!-- node29 -->
<g id="node13" class="node">
<title>node29</title>
<polygon fill="lightgrey" stroke="black" points="1232.5,-255 1147.5,-255 1147.5,-219 1232.5,-219 1232.5,-255"/>
<text text-anchor="middle" x="1190" y="-233.3" font-family="Times,serif" font-size="14.00">#29 Goto</text>
</g>
<!-- node29&#45;&gt;node32 -->
<g id="edge15" class="edge">
<title>node29&#45;&gt;node32</title>
<path fill="none" stroke="red" d="M1147.23,-221.12C1117.46,-210.75 1077.38,-196.8 1044.63,-185.41"/>
<polygon fill="red" stroke="red" points="1045.76,-182.09 1035.16,-182.11 1043.46,-188.7 1045.76,-182.09"/>
</g>
<!-- node31&#45;&gt;node32 -->
<g id="edge16" class="edge">
<title>node31&#45;&gt;node32</title>
<path fill="none" stroke="red" d="M1674.44,-228.47C1529.16,-215.44 1237.34,-188.72 1084.46,-174.46"/>
<polygon fill="red" stroke="red" points="1084.43,-170.94 1074.15,-173.49 1083.78,-177.91 1084.43,-170.94"/>
</g>
<!-- node31&#45;&gt;node32 -->
<g id="edge18" class="edge">
<title>node31&#45;&gt;node32</title>
<path fill="none" stroke="green" d="M1674.36,-227.65C1529.05,-214.07 1237.31,-187.34 1084.46,-173.6"/>
<polygon fill="green" stroke="green" points="1084.42,-170.08 1074.14,-172.67 1083.79,-177.05 1084.42,-170.08"/>
</g>
<!-- node27&#45;&gt;node32 -->
<g id="edge17" class="edge">
<title>node27&#45;&gt;node32</title>
<path fill="none" stroke="green" d="M1218.85,-291.98C1194.83,-281.92 1164.35,-268.52 1138,-255 1096.9,-233.91 1051.54,-206.48 1021.17,-187.47"/>
<polygon fill="green" stroke="green" points="1022.96,-184.46 1012.63,-182.1 1019.23,-190.39 1022.96,-184.46"/>
</g>
<!-- node27&#45;&gt;node29 -->
<g id="edge46" class="edge">
<title>node27&#45;&gt;node29</title>
<path fill="none" stroke="red" d="M1243.81,-291.81C1234.92,-282.92 1223.91,-271.91 1214.17,-262.17"/>
<polygon fill="red" stroke="red" points="1216.57,-259.63 1207.03,-255.03 1211.63,-264.57 1216.57,-259.63"/>
</g>
<!-- node6&#45;&gt;node31 -->
<g id="edge21" class="edge">
<title>node6&#45;&gt;node31</title>
<path fill="none" stroke="black" d="M1828.05,-765.75C1843.86,-753.02 1861,-734.12 1861,-712 1861,-712 1861,-712 1861,-309 1861,-291.83 1859.04,-285.23 1847,-273 1842.14,-268.06 1836.48,-263.79 1830.44,-260.11"/>
<polygon fill="black" stroke="black" points="1831.8,-256.87 1821.35,-255.13 1828.43,-263 1831.8,-256.87"/>
<text text-anchor="middle" x="1841.31" y="-252.73" font-family="Times,serif" font-size="14.00">*2</text>
</g>
<!-- node30 -->
<g id="node17" class="node">
<title>node30</title>
<polygon fill="lightgrey" stroke="black" points="1733,-328 1605,-328 1605,-292 1733,-292 1733,-328"/>
<text text-anchor="middle" x="1669" y="-306.3" font-family="Times,serif" font-size="14.00">#30 LabelNode</text>
</g>
<!-- node30&#45;&gt;node31 -->
<g id="edge23" class="edge">
<title>node30&#45;&gt;node31</title>
<path fill="none" stroke="red" d="M1691.27,-291.81C1703.14,-282.66 1717.9,-271.26 1730.79,-261.32"/>
<polygon fill="red" stroke="red" points="1733.16,-263.91 1738.93,-255.03 1728.88,-258.37 1733.16,-263.91"/>
</g>
<!-- node25&#45;&gt;node27 -->
<g id="edge34" class="edge">
<title>node25:prj26&#45;&gt;node27</title>
<path fill="none" stroke="red" d="M1405,-378C1362.45,-378 1318.88,-353.66 1290.98,-334.32"/>
<polygon fill="red" stroke="red" points="1292.66,-331.22 1282.49,-328.25 1288.59,-336.92 1292.66,-331.22"/>
</g>
<!-- node25&#45;&gt;node30 -->
<g id="edge24" class="edge">
<title>node25:prj28&#45;&gt;node30</title>
<path fill="none" stroke="red" d="M1496,-378C1546.49,-378 1600.02,-352.88 1633.93,-333.4"/>
<polygon fill="red" stroke="red" points="1636.11,-336.17 1642.95,-328.08 1632.56,-330.14 1636.11,-336.17"/>
</g>
<!-- node24&#45;&gt;node25 -->
<g id="edge25" class="edge">
<title>node24&#45;&gt;node25</title>
<path fill="none" stroke="black" d="M1482.89,-455.64C1478.64,-447.56 1473.44,-437.64 1468.43,-428.11"/>
<polygon fill="black" stroke="black" points="1471.47,-426.37 1463.73,-419.15 1465.28,-429.63 1471.47,-426.37"/>
<text text-anchor="middle" x="1479.64" y="-427.57" font-family="Times,serif" font-size="14.00">*0</text>
</g>
<!-- node23&#45;&gt;node24 -->
<g id="edge28" class="edge">
<title>node23&#45;&gt;node24</title>
<path fill="none" stroke="black" d="M1258.16,-404.97C1301.83,-417.68 1371.56,-437.96 1423.53,-453.08"/>
<polygon fill="black" stroke="black" points="1422.76,-456.5 1433.34,-455.94 1424.72,-449.78 1422.76,-456.5"/>
<text text-anchor="middle" x="1413.58" y="-455.29" font-family="Times,serif" font-size="14.00">*1</text>
</g>
<!-- node5&#45;&gt;node27 -->
<g id="edge32" class="edge">
<title>node5&#45;&gt;node27</title>
<path fill="none" stroke="black" d="M1408.26,-765.77C1391.76,-753.18 1374,-734.42 1374,-712 1374,-712 1374,-712 1374,-601 1374,-567.27 1365.06,-559.18 1350,-529 1343.01,-514.99 1336.51,-514.24 1330,-500 1304.23,-443.63 1319.58,-421.9 1295,-365 1290.83,-355.34 1285.07,-345.41 1279.48,-336.75"/>
<polygon fill="black" stroke="black" points="1282.25,-334.6 1273.78,-328.24 1276.43,-338.49 1282.25,-334.6"/>
<text text-anchor="middle" x="1290.89" y="-334.9" font-family="Times,serif" font-size="14.00">*2</text>
</g>
<!-- node22 -->
<g id="node23" class="node">
<title>node22</title>
<polygon fill="lightgrey" stroke="black" points="1092.5,-410 919.5,-410 919.5,-374 1092.5,-374 1092.5,-410"/>
<text text-anchor="middle" x="1006" y="-388.3" font-family="Times,serif" font-size="14.00">#22 ReturnValue : int</text>
</g>
<!-- node10&#45;&gt;node22 -->
<g id="edge42" class="edge">
<title>node10&#45;&gt;node22</title>
<path fill="none" stroke="black" d="M1004.24,-455.64C1002.49,-445.3 1001.4,-431.94 1001.27,-420.22"/>
<polygon fill="black" stroke="black" points="1004.77,-420.1 1001.42,-410.05 997.77,-420 1004.77,-420.1"/>
<text text-anchor="middle" x="1009.6" y="-424.6" font-family="Times,serif" font-size="14.00">*0</text>
</g>
<!-- node10&#45;&gt;node22 -->
<g id="edge44" class="edge">
<title>node10&#45;&gt;node22</title>
<path fill="none" stroke="green" d="M1015.59,-455.64C1016.05,-445.3 1015.47,-431.94 1014.14,-420.22"/>
<polygon fill="green" stroke="green" points="1017.56,-419.47 1012.71,-410.05 1010.63,-420.44 1017.56,-419.47"/>
</g>
<!-- node21&#45;&gt;node22 -->
<g id="edge43" class="edge">
<title>node21&#45;&gt;node22</title>
<path fill="none" stroke="red" d="M830.57,-455.94C865.21,-443.51 912.28,-426.62 948.94,-413.47"/>
<polygon fill="red" stroke="red" points="950.28,-416.71 958.51,-410.04 947.91,-410.12 950.28,-416.71"/>
</g>
<!-- node35 -->
<g id="node26" class="node">
<title>node35</title>
<polygon fill="orange" stroke="black" points="837.58,-10.54 837.58,-25.46 791.55,-36 726.45,-36 680.42,-25.46 680.42,-10.54 726.45,0 791.55,0 837.58,-10.54"/>
<text text-anchor="middle" x="759" y="-14.3" font-family="Times,serif" font-size="14.00">#35 Add : int</text>
</g>
<!-- node34&#45;&gt;node35 -->
<g id="edge49" class="edge">
<title>node34&#45;&gt;node35</title>
<path fill="none" stroke="black" d="M926.4,-76.98C894.17,-65.82 847.41,-49.62 811.5,-37.18"/>
<polygon fill="black" stroke="black" points="812.27,-33.75 801.67,-33.78 809.98,-40.36 812.27,-33.75"/>
<text text-anchor="middle" x="821.57" y="-28.03" font-family="Times,serif" font-size="14.00">*1</text>
</g>
<!-- node35&#45;&gt;node13 -->
<g id="edge52" class="edge">
<title>node35&#45;&gt;node13</title>
<path fill="none" stroke="blue" stroke-dasharray="5,2" d="M766.75,-36.11C783.37,-70.8 825.86,-149.54 886,-190 981.97,-254.56 1023.75,-236.94 1138,-255 1204.41,-265.5 1695.93,-243.02 1742,-292 1752.96,-303.65 1745.75,-312.45 1742,-328 1721.88,-411.48 1721.27,-446.63 1654,-500 1504.06,-618.97 988.72,-580.04 800,-612 787.28,-614.15 773.78,-617.5 761.3,-621.04"/>
<polygon fill="blue" stroke="blue" points="760.15,-617.73 751.55,-623.91 762.13,-624.45 760.15,-617.73"/>
<text text-anchor="middle" x="766.55" y="-606.99" font-family="Times,serif" font-size="14.00">if #33</text>
</g>
<!-- node13&#45;&gt;node15 -->
<g id="edge55" class="edge">
<title>node13&#45;&gt;node15</title>
<path fill="none" stroke="black" d="M652.44,-638C643.88,-638 635.32,-638 626.76,-638"/>
<polygon fill="black" stroke="black" points="626.71,-634.5 616.71,-638 626.71,-641.5 626.71,-634.5"/>
<text text-anchor="middle" x="634.83" y="-625.85" font-family="Times,serif" font-size="14.00">*0</text>
</g>
<!-- node13&#45;&gt;node35 -->
<g id="edge48" class="edge">
<title>node13&#45;&gt;node35</title>
<path fill="none" stroke="black" d="M705.43,-619.89C699.07,-603.94 691,-579.33 691,-557 691,-557 691,-557 691,-90 691,-70.56 704.46,-54.36 719.41,-42.37"/>
<polygon fill="black" stroke="black" points="721.84,-44.92 727.79,-36.15 717.67,-39.3 721.84,-44.92"/>
<text text-anchor="middle" x="718.27" y="-50.04" font-family="Times,serif" font-size="14.00">*0</text>
</g>
<!-- node12&#45;&gt;node13 -->
<g id="edge51" class="edge">
<title>node12&#45;&gt;node13</title>
<path fill="none" stroke="blue" d="M808.6,-638C800.29,-638 791.99,-638 783.68,-638"/>
<polygon fill="blue" stroke="blue" points="783.55,-634.5 773.55,-638 783.55,-641.5 783.55,-634.5"/>
<text text-anchor="middle" x="791.67" y="-625.85" font-family="Times,serif" font-size="14.00">if #7</text>
</g>
<!-- node14&#45;&gt;node15 -->
<g id="edge56" class="edge">
<title>node14&#45;&gt;node15</title>
<path fill="none" stroke="black" d="M224.24,-569.46C269.57,-582.23 340.71,-602.27 393.74,-617.21"/>
<polygon fill="black" stroke="black" points="392.85,-620.59 403.42,-619.94 394.75,-613.86 392.85,-620.59"/>
<text text-anchor="middle" x="383.68" y="-619.46" font-family="Times,serif" font-size="14.00">*1</text>
</g>
<!-- c0 -->
<!-- c1 -->
<!-- c0&#45;&gt;c1 -->
<g id="edge59" class="edge">
<title>c0&#45;&gt;c1</title>
<path fill="none" stroke="red" d="M2256.89,-866C2268.11,-866 2326.24,-866 2351.86,-866"/>
<polygon fill="red" stroke="red" points="2352.06,-869.5 2362.06,-866 2352.06,-862.5 2352.06,-869.5"/>
<text text-anchor="middle" x="2309.5" y="-872.8" font-family="Times,serif" font-size="14.00">Control flow</text>
</g>
<!-- c2 -->
<!-- c3 -->
<!-- c2&#45;&gt;c3 -->
<g id="edge60" class="edge">
<title>c2&#45;&gt;c3</title>
<path fill="none" stroke="red" stroke-dasharray="5,2" d="M2050.08,-866C2067.05,-866 2183.21,-866 2221.08,-866"/>
<polygon fill="red" stroke="red" points="2221.17,-869.5 2231.17,-866 2221.17,-862.5 2221.17,-869.5"/>
<text text-anchor="middle" x="2140.5" y="-872.8" font-family="Times,serif" font-size="14.00">Control flow back edge</text>
</g>
<!-- d0 -->
<!-- d1 -->
<!-- d0&#45;&gt;d1 -->
<g id="edge61" class="edge">
<title>d0&#45;&gt;d1</title>
<path fill="none" stroke="black" d="M1938.86,-866C1948.41,-866 1992.31,-866 2013.92,-866"/>
<polygon fill="black" stroke="black" points="2014.15,-869.5 2024.15,-866 2014.15,-862.5 2014.15,-869.5"/>
<text text-anchor="middle" x="1981.5" y="-872.8" font-family="Times,serif" font-size="14.00">Data flow</text>
</g>
<!-- d2 -->
<!-- d3 -->
<!-- d2&#45;&gt;d3 -->
<g id="edge62" class="edge">
<title>d2&#45;&gt;d3</title>
<path fill="none" stroke="black" stroke-dasharray="1,5" d="M1812.81,-866C1823.46,-866 1878.46,-866 1903.08,-866"/>
<polygon fill="black" stroke="black" points="1903.15,-869.5 1913.15,-866 1903.15,-862.5 1903.15,-869.5"/>
<text text-anchor="middle" x="1863" y="-872.8" font-family="Times,serif" font-size="14.00">Declaration</text>
</g>
<!-- d4 -->
<!-- d5 -->
<!-- d4&#45;&gt;d5 -->
<g id="edge63" class="edge">
<title>d4&#45;&gt;d5</title>
<path fill="none" stroke="blue" d="M1670.1,-866C1682.72,-866 1748.88,-866 1776.68,-866"/>
<polygon fill="blue" stroke="blue" points="1776.84,-869.5 1786.84,-866 1776.84,-862.5 1776.84,-869.5"/>
<text text-anchor="middle" x="1728.5" y="-872.8" font-family="Times,serif" font-size="14.00">PHI Data flow</text>
</g>
<!-- d6 -->
<!-- d7 -->
<!-- d6&#45;&gt;d7 -->
<g id="edge64" class="edge">
<title>d6&#45;&gt;d7</title>
<path fill="none" stroke="green" d="M1533,-866C1544.94,-866 1607.3,-866 1633.93,-866"/>
<polygon fill="green" stroke="green" points="1633.95,-869.5 1643.95,-866 1633.95,-862.5 1633.95,-869.5"/>
<text text-anchor="middle" x="1588.5" y="-872.8" font-family="Times,serif" font-size="14.00">Memory flow</text>
</g>
</g>
</svg>
