<?xml version="1.0" encoding="UTF-8" standalone="no"?>
<!DOCTYPE svg PUBLIC "-//W3C//DTD SVG 1.1//EN"
 "http://www.w3.org/Graphics/SVG/1.1/DTD/svg11.dtd">
<!-- Generated by graphviz version 2.43.0 (0)
 -->
<!-- Title: %3 Pages: 1 -->
<svg width="1681pt" height="844pt"
 viewBox="0.00 0.00 1681.46 844.00" xmlns="http://www.w3.org/2000/svg" xmlns:xlink="http://www.w3.org/1999/xlink">
<g id="graph0" class="graph" transform="scale(1 1) rotate(0) translate(4 840)">
<title>%3</title>
<polygon fill="white" stroke="transparent" points="-4,4 -4,-840 1677.46,-840 1677.46,4 -4,4"/>
<g id="clust1" class="cluster">
<title>cluster_0</title>
<polygon fill="none" stroke="lightgray" points="1019.46,-65 1019.46,-190 1211.46,-190 1211.46,-65 1019.46,-65"/>
</g>
<g id="clust2" class="cluster">
<title>cluster_1</title>
<polygon fill="none" stroke="lightgray" points="1117.46,-530 1117.46,-582 1263.46,-582 1263.46,-530 1117.46,-530"/>
</g>
<g id="clust3" class="cluster">
<title>cluster_2</title>
<polygon fill="none" stroke="lightgray" points="728.46,-530 728.46,-664 864.46,-664 864.46,-530 728.46,-530"/>
</g>
<g id="clust4" class="cluster">
<title>cluster_3</title>
<polygon fill="none" stroke="lightgray" points="1306.46,-366 1306.46,-500 1496.46,-500 1496.46,-366 1306.46,-366"/>
</g>
<g id="clust5" class="cluster">
<title>cluster_4</title>
<polygon fill="none" stroke="lightgray" points="872.46,-612 872.46,-737 1008.46,-737 1008.46,-612 872.46,-612"/>
</g>
<g id="clust6" class="cluster">
<title>cluster_5</title>
<polygon fill="none" stroke="lightgray" points="872.46,-448 872.46,-582 1092.46,-582 1092.46,-448 872.46,-448"/>
</g>
<g id="clust7" class="cluster">
<title>cluster_6</title>
<polygon fill="none" stroke="lightgray" points="436.46,-685 436.46,-828 690.46,-828 690.46,-685 436.46,-685"/>
</g>
<g id="clust8" class="cluster">
<title>cluster_000</title>
<polygon fill="none" stroke="black" points="698.46,-783.2 698.46,-825.8 1551.46,-825.8 1551.46,-783.2 698.46,-783.2"/>
<text text-anchor="middle" x="1124.96" y="-810.6" font-family="Times,serif" font-size="14.00">Legend</text>
</g>
<!-- node0 -->
<g id="node1" class="node">
<title>node0</title>
<polygon fill="lightgrey" stroke="transparent" points="681.96,-820 444.96,-820 444.96,-766 681.96,-766 681.96,-820"/>
<polygon fill="none" stroke="black" points="445.46,-793 445.46,-820 682.46,-820 682.46,-793 445.46,-793"/>
<text text-anchor="start" x="523.46" y="-802.8" font-family="Times,serif" font-size="14.00">#0 Method</text>
<polygon fill="yellow" stroke="transparent" points="445.46,-766 445.46,-793 524.46,-793 524.46,-766 445.46,-766"/>
<polygon fill="none" stroke="black" points="445.46,-766 445.46,-793 524.46,-793 524.46,-766 445.46,-766"/>
<text text-anchor="start" x="451.46" y="-775.8" font-family="Times,serif" font-size="14.00">arg0 : int</text>
<polygon fill="yellow" stroke="transparent" points="524.46,-766 524.46,-793 603.46,-793 603.46,-766 524.46,-766"/>
<polygon fill="none" stroke="black" points="524.46,-766 524.46,-793 603.46,-793 603.46,-766 524.46,-766"/>
<text text-anchor="start" x="530.46" y="-775.8" font-family="Times,serif" font-size="14.00">arg1 : int</text>
<polygon fill="yellow" stroke="transparent" points="603.46,-766 603.46,-793 682.46,-793 682.46,-766 603.46,-766"/>
<polygon fill="none" stroke="black" points="603.46,-766 603.46,-793 682.46,-793 682.46,-766 603.46,-766"/>
<text text-anchor="start" x="609.46" y="-775.8" font-family="Times,serif" font-size="14.00">arg2 : int</text>
</g>
<!-- node13 -->
<g id="node2" class="node">
<title>node13</title>
<polygon fill="orange" stroke="black" points="565.96,-703.54 565.96,-718.46 530.52,-729 480.4,-729 444.96,-718.46 444.96,-703.54 480.4,-693 530.52,-693 565.96,-703.54"/>
<text text-anchor="middle" x="505.46" y="-707.3" font-family="Times,serif" font-size="14.00">#13 Φ int</text>
</g>
<!-- node0&#45;&gt;node13 -->
<g id="edge1" class="edge">
<title>node0&#45;&gt;node13</title>
<path fill="none" stroke="black" stroke-dasharray="1,5" d="M544.47,-765.81C537.86,-756.69 530.46,-746.48 523.89,-737.43"/>
<polygon fill="black" stroke="black" points="526.61,-735.22 517.91,-729.17 520.95,-739.32 526.61,-735.22"/>
</g>
<!-- node30 -->
<g id="node8" class="node">
<title>node30</title>
<polygon fill="lightgrey" stroke="black" points="1640.96,-255 1467.96,-255 1467.96,-219 1640.96,-219 1640.96,-255"/>
<text text-anchor="middle" x="1554.46" y="-233.3" font-family="Times,serif" font-size="14.00">#30 ArrayStore : int[]</text>
</g>
<!-- node0&#45;&gt;node30 -->
<g id="edge12" class="edge">
<title>node0:prj2&#45;&gt;node30</title>
<path fill="none" stroke="black" d="M683.46,-779C691.03,-779 687.63,-769.26 694.46,-766 735.73,-746.31 1471.79,-750.33 1517.46,-748 1588.52,-744.37 1673.46,-783.16 1673.46,-712 1673.46,-712 1673.46,-712 1673.46,-309 1673.46,-285.84 1656.64,-270.06 1635.64,-259.39"/>
<polygon fill="black" stroke="black" points="1636.97,-256.15 1626.43,-255.12 1634.03,-262.5 1636.97,-256.15"/>
<text text-anchor="middle" x="1646.43" y="-251.37" font-family="Times,serif" font-size="14.00">*1</text>
</g>
<!-- node28 -->
<g id="node9" class="node">
<title>node28</title>
<polygon fill="lightgrey" stroke="black" points="884.96,-328 711.96,-328 711.96,-292 884.96,-292 884.96,-328"/>
<text text-anchor="middle" x="798.46" y="-306.3" font-family="Times,serif" font-size="14.00">#28 ArrayStore : int[]</text>
</g>
<!-- node0&#45;&gt;node28 -->
<g id="edge35" class="edge">
<title>node0:prj2&#45;&gt;node28</title>
<path fill="none" stroke="black" d="M643.46,-766C643.46,-754.33 446.91,-739.25 435.46,-737 306.49,-711.7 156.46,-770.43 156.46,-639 156.46,-639 156.46,-639 156.46,-391 156.46,-336.74 522.3,-318.81 701.65,-313.28"/>
<polygon fill="black" stroke="black" points="701.99,-316.77 711.88,-312.97 701.78,-309.78 701.99,-316.77"/>
<text text-anchor="middle" x="694.01" y="-318.27" font-family="Times,serif" font-size="14.00">*1</text>
</g>
<!-- node9 -->
<g id="node10" class="node">
<title>node9</title>
<polygon fill="orange" stroke="black" points="1512.76,-548.54 1512.76,-563.46 1447.56,-574 1355.36,-574 1290.16,-563.46 1290.16,-548.54 1355.36,-538 1447.56,-538 1512.76,-548.54"/>
<text text-anchor="middle" x="1401.46" y="-552.3" font-family="Times,serif" font-size="14.00">#9 NewArray : int[]</text>
</g>
<!-- node0&#45;&gt;node9 -->
<g id="edge33" class="edge">
<title>node0&#45;&gt;node9</title>
<path fill="none" stroke="green" d="M577.6,-765.88C601.59,-724.61 654.52,-645.54 724.46,-612 833.41,-559.74 1147.53,-597.77 1267.46,-583 1287.09,-580.58 1308.16,-576.98 1327.65,-573.22"/>
<polygon fill="green" stroke="green" points="1328.54,-576.61 1337.68,-571.24 1327.19,-569.74 1328.54,-576.61"/>
</g>
<!-- node6 -->
<g id="node11" class="node">
<title>node6</title>
<polygon fill="orange" stroke="black" points="1645.88,-703.54 1645.88,-718.46 1603.46,-729 1543.46,-729 1501.04,-718.46 1501.04,-703.54 1543.46,-693 1603.46,-693 1645.88,-703.54"/>
<text text-anchor="middle" x="1573.46" y="-707.3" font-family="Times,serif" font-size="14.00">#6 Sub : int</text>
</g>
<!-- node0&#45;&gt;node6 -->
<g id="edge48" class="edge">
<title>node0:prj1&#45;&gt;node6</title>
<path fill="none" stroke="black" d="M564.46,-766C564.46,-740.36 1462.37,-753.29 1487.46,-748 1502.64,-744.8 1518.52,-738.94 1532.43,-732.87"/>
<polygon fill="black" stroke="black" points="1534.06,-735.98 1541.72,-728.67 1531.17,-729.6 1534.06,-735.98"/>
<text text-anchor="middle" x="1528.7" y="-740.14" font-family="Times,serif" font-size="14.00">*0</text>
</g>
<!-- node0&#45;&gt;node6 -->
<g id="edge49" class="edge">
<title>node0:prj2&#45;&gt;node6</title>
<path fill="none" stroke="black" d="M683.46,-779C691.03,-779 687.63,-769.26 694.46,-766 775.5,-727.31 1415.36,-769.85 1502.46,-748 1514.61,-744.95 1527.05,-739.55 1538.06,-733.84"/>
<polygon fill="black" stroke="black" points="1539.82,-736.87 1546.93,-729.02 1536.48,-730.72 1539.82,-736.87"/>
<text text-anchor="middle" x="1535.04" y="-741.4" font-family="Times,serif" font-size="14.00">*1</text>
</g>
<!-- node20 -->
<g id="node12" class="node">
<title>node20</title>
<polygon fill="lightgrey" stroke="black" points="1487.96,-492 1314.96,-492 1314.96,-456 1487.96,-456 1487.96,-492"/>
<text text-anchor="middle" x="1401.46" y="-470.3" font-family="Times,serif" font-size="14.00">#20 ArrayStore : int[]</text>
</g>
<!-- node0&#45;&gt;node20 -->
<g id="edge20" class="edge">
<title>node0:prj1&#45;&gt;node20</title>
<path fill="none" stroke="black" d="M564.46,-766C564.46,-759.76 1006.32,-738.11 1012.46,-737 1245.02,-694.87 1380.6,-772.79 1521.46,-583 1535.76,-563.73 1534.49,-549.15 1521.46,-529 1512.18,-514.65 1498.07,-504.07 1482.76,-496.29"/>
<polygon fill="black" stroke="black" points="1484.17,-493.09 1473.62,-492.02 1481.2,-499.43 1484.17,-493.09"/>
<text text-anchor="middle" x="1493.62" y="-488.34" font-family="Times,serif" font-size="14.00">*1</text>
</g>
<!-- node24 -->
<g id="node15" class="node">
<title>node24</title>
<polygon fill="orange" stroke="black" points="862.28,-466.54 862.28,-481.46 772.76,-492 646.16,-492 556.64,-481.46 556.64,-466.54 646.16,-456 772.76,-456 862.28,-466.54"/>
<text text-anchor="middle" x="709.46" y="-470.3" font-family="Times,serif" font-size="14.00">#24 NumericCondition : EQ</text>
</g>
<!-- node0&#45;&gt;node24 -->
<g id="edge57" class="edge">
<title>node0:prj3&#45;&gt;node24</title>
<path fill="none" stroke="black" d="M484.46,-766C484.46,-755.39 567.34,-743.83 575.46,-737 603.44,-713.45 598.54,-697.4 613.46,-664 643.29,-597.22 630.57,-570.64 671.46,-510 673.89,-506.4 676.75,-502.92 679.8,-499.62"/>
<polygon fill="black" stroke="black" points="682.51,-501.87 687.15,-492.34 677.58,-496.9 682.51,-501.87"/>
<text text-anchor="middle" x="680.23" y="-507.41" font-family="Times,serif" font-size="14.00">*0</text>
</g>
<!-- node4 -->
<g id="node22" class="node">
<title>node4</title>
<polygon fill="lightgrey" stroke="black" points="999.96,-729 880.96,-729 880.96,-693 999.96,-693 999.96,-729"/>
<text text-anchor="middle" x="940.46" y="-707.3" font-family="Times,serif" font-size="14.00">#4 LabelNode</text>
</g>
<!-- node0&#45;&gt;node4 -->
<g id="edge30" class="edge">
<title>node0&#45;&gt;node4</title>
<path fill="none" stroke="red" d="M681.97,-766.85C744.13,-753.66 818.13,-737.96 870.99,-726.74"/>
<polygon fill="red" stroke="red" points="871.88,-730.13 880.94,-724.63 870.43,-723.28 871.88,-730.13"/>
</g>
<!-- node5 -->
<g id="node24" class="node">
<title>node5</title>
<polygon fill="orange" stroke="black" points="144.88,-703.54 144.88,-718.46 102.46,-729 42.46,-729 0.04,-718.46 0.04,-703.54 42.46,-693 102.46,-693 144.88,-703.54"/>
<text text-anchor="middle" x="72.46" y="-707.3" font-family="Times,serif" font-size="14.00">#5 Add : int</text>
</g>
<!-- node0&#45;&gt;node5 -->
<g id="edge39" class="edge">
<title>node0:prj1&#45;&gt;node5</title>
<path fill="none" stroke="black" d="M564.46,-766C564.46,-740.65 131.69,-758.16 108.46,-748 102.4,-745.35 96.81,-741.17 91.93,-736.59"/>
<polygon fill="black" stroke="black" points="94.32,-734.03 84.88,-729.21 89.26,-738.86 94.32,-734.03"/>
<text text-anchor="middle" x="103.51" y="-732.78" font-family="Times,serif" font-size="14.00">*0</text>
</g>
<!-- node0&#45;&gt;node5 -->
<g id="edge40" class="edge">
<title>node0:prj2&#45;&gt;node5</title>
<path fill="none" stroke="black" d="M643.46,-766C643.46,-739.04 184.79,-753.8 158.46,-748 143.43,-744.69 127.71,-738.88 113.87,-732.87"/>
<polygon fill="black" stroke="black" points="115.19,-729.62 104.63,-728.71 112.32,-736.01 115.19,-729.62"/>
<text text-anchor="middle" x="124.63" y="-724.74" font-family="Times,serif" font-size="14.00">*1</text>
</g>
<!-- node10 -->
<g id="node25" class="node">
<title>node10</title>
<polygon fill="lightgrey" stroke="black" points="1296.46,-492 1138.46,-492 1138.46,-456 1296.46,-456 1296.46,-492"/>
<text text-anchor="middle" x="1217.46" y="-470.3" font-family="Times,serif" font-size="14.00">#10 ArrayLoad : int</text>
</g>
<!-- node0&#45;&gt;node10 -->
<g id="edge42" class="edge">
<title>node0:prj2&#45;&gt;node10</title>
<path fill="none" stroke="black" d="M683.46,-779C711.61,-779 703.73,-548.04 724.46,-529 754.99,-500.95 1055.41,-505.82 1096.46,-500 1108.16,-498.34 1120.42,-496.24 1132.47,-493.96"/>
<polygon fill="black" stroke="black" points="1133.37,-497.35 1142.52,-492.01 1132.04,-490.48 1133.37,-497.35"/>
<text text-anchor="middle" x="1126.33" y="-500.06" font-family="Times,serif" font-size="14.00">*1</text>
</g>
<!-- node35 -->
<g id="node4" class="node">
<title>node35</title>
<polygon fill="orange" stroke="black" points="285.04,-10.54 285.04,-25.46 239.01,-36 173.91,-36 127.88,-25.46 127.88,-10.54 173.91,0 239.01,0 285.04,-10.54"/>
<text text-anchor="middle" x="206.46" y="-14.3" font-family="Times,serif" font-size="14.00">#35 Add : int</text>
</g>
<!-- node13&#45;&gt;node35 -->
<g id="edge4" class="edge">
<title>node13&#45;&gt;node35</title>
<path fill="none" stroke="black" d="M449.14,-702.23C359.52,-688.26 194.46,-655.3 194.46,-602 194.46,-602 194.46,-602 194.46,-90 194.46,-75.3 196.99,-59.13 199.73,-45.94"/>
<polygon fill="black" stroke="black" points="203.17,-46.6 201.92,-36.08 196.33,-45.08 203.17,-46.6"/>
<text text-anchor="middle" x="206.23" y="-51.91" font-family="Times,serif" font-size="14.00">*0</text>
</g>
<!-- node15 -->
<g id="node18" class="node">
<title>node15</title>
<polygon fill="orange" stroke="black" points="604.28,-630.54 604.28,-645.46 514.76,-656 388.16,-656 298.64,-645.46 298.64,-630.54 388.16,-620 514.76,-620 604.28,-630.54"/>
<text text-anchor="middle" x="451.46" y="-634.3" font-family="Times,serif" font-size="14.00">#15 NumericCondition : GE</text>
</g>
<!-- node13&#45;&gt;node15 -->
<g id="edge53" class="edge">
<title>node13&#45;&gt;node15</title>
<path fill="none" stroke="black" d="M492.39,-692.81C485.82,-684.18 477.74,-673.56 470.5,-664.03"/>
<polygon fill="black" stroke="black" points="473.25,-661.87 464.41,-656.03 467.68,-666.11 473.25,-661.87"/>
<text text-anchor="middle" x="482.11" y="-661.64" font-family="Times,serif" font-size="14.00">*0</text>
</g>
<!-- node12 -->
<g id="node3" class="node">
<title>node12</title>
<polygon fill="lightgreen" stroke="black" points="855.65,-548.54 855.65,-563.46 820.98,-574 771.94,-574 737.27,-563.46 737.27,-548.54 771.94,-538 820.98,-538 855.65,-548.54"/>
<text text-anchor="middle" x="796.46" y="-552.3" font-family="Times,serif" font-size="14.00">#12 int 0</text>
</g>
<!-- node12&#45;&gt;node13 -->
<g id="edge2" class="edge">
<title>node12&#45;&gt;node13</title>
<path fill="none" stroke="blue" d="M739.12,-564.14C695.17,-569.53 633.02,-577.01 578.46,-583 450.14,-597.09 411.09,-568.76 289.46,-612 242.3,-628.76 219.18,-629.93 195.46,-674 183.98,-695.32 339.65,-704.42 434.66,-707.97"/>
<polygon fill="blue" stroke="blue" points="434.67,-711.47 444.79,-708.33 434.92,-704.47 434.67,-711.47"/>
<text text-anchor="middle" x="426.37" y="-712.43" font-family="Times,serif" font-size="14.00">if #7</text>
</g>
<!-- node35&#45;&gt;node13 -->
<g id="edge3" class="edge">
<title>node35&#45;&gt;node13</title>
<path fill="none" stroke="blue" stroke-dasharray="5,2" d="M285.24,-19.66C517.2,-21.97 1183.47,-31.52 1215.46,-65 1228.97,-79.14 1227.97,-93.97 1215.46,-109 1157.64,-178.49 1073.27,-76.51 1015.46,-146 1002.95,-161.03 1003.48,-174.54 1015.46,-190 1126.49,-333.34 1299.43,-148.66 1410.46,-292 1420.26,-304.65 1419.76,-314.98 1410.46,-328 1380.96,-369.28 1342.04,-333.25 1302.46,-365 1280.52,-382.6 1292.46,-402.81 1269.46,-419 1217.5,-455.57 1181.73,-411.87 1129.46,-448 1106.94,-463.56 1119.92,-485.89 1096.46,-500 1025.41,-542.74 805.45,-511.23 724.46,-529 656.88,-543.83 645.87,-567.42 578.46,-583 515.57,-597.53 332.76,-564.14 289.46,-612 273.95,-629.14 274.92,-646.04 289.46,-664 307.57,-686.37 378.75,-698.33 434.51,-704.39"/>
<polygon fill="blue" stroke="blue" points="434.41,-707.9 444.72,-705.45 435.14,-700.93 434.41,-707.9"/>
<text text-anchor="middle" x="425.82" y="-708.28" font-family="Times,serif" font-size="14.00">if #33</text>
</g>
<!-- node34 -->
<g id="node5" class="node">
<title>node34</title>
<polygon fill="lightgreen" stroke="black" points="1159.65,-83.54 1159.65,-98.46 1124.98,-109 1075.94,-109 1041.27,-98.46 1041.27,-83.54 1075.94,-73 1124.98,-73 1159.65,-83.54"/>
<text text-anchor="middle" x="1100.46" y="-87.3" font-family="Times,serif" font-size="14.00">#34 int 1</text>
</g>
<!-- node34&#45;&gt;node35 -->
<g id="edge5" class="edge">
<title>node34&#45;&gt;node35</title>
<path fill="none" stroke="black" d="M1061.88,-77.2C1046.38,-72.57 1028.24,-67.8 1011.46,-65 876.02,-42.38 475.37,-27.41 295.57,-21.66"/>
<polygon fill="black" stroke="black" points="295.45,-18.15 285.35,-21.33 295.23,-25.15 295.45,-18.15"/>
<text text-anchor="middle" x="303.73" y="-9.76" font-family="Times,serif" font-size="14.00">*1</text>
</g>
<!-- node32 -->
<g id="node6" class="node">
<title>node32</title>
<polygon fill="lightgrey" stroke="black" points="1203.46,-182 1027.46,-182 1027.46,-146 1203.46,-146 1203.46,-182"/>
<text text-anchor="middle" x="1115.46" y="-160.3" font-family="Times,serif" font-size="14.00">#32 Merge : Merge42</text>
</g>
<!-- node32&#45;&gt;node34 -->
<g id="edge6" class="edge">
<title>node32&#45;&gt;node34</title>
<path fill="none" stroke="black" stroke-dasharray="1,5" d="M1111.83,-145.81C1110.13,-137.79 1108.08,-128.05 1106.18,-119.07"/>
<polygon fill="black" stroke="black" points="1109.55,-118.09 1104.06,-109.03 1102.7,-119.54 1109.55,-118.09"/>
</g>
<!-- node33 -->
<g id="node21" class="node">
<title>node33</title>
<polygon fill="lightgrey" stroke="black" points="1001.96,-109 916.96,-109 916.96,-73 1001.96,-73 1001.96,-109"/>
<text text-anchor="middle" x="959.46" y="-87.3" font-family="Times,serif" font-size="14.00">#33 Goto</text>
</g>
<!-- node32&#45;&gt;node33 -->
<g id="edge28" class="edge">
<title>node32&#45;&gt;node33</title>
<path fill="none" stroke="red" d="M1078.09,-145.99C1056.54,-136.19 1029.26,-123.77 1006.28,-113.31"/>
<polygon fill="red" stroke="red" points="1007.61,-110.07 997.06,-109.11 1004.71,-116.44 1007.61,-110.07"/>
</g>
<!-- node31 -->
<g id="node7" class="node">
<title>node31</title>
<polygon fill="lightgrey" stroke="black" points="881.96,-255 796.96,-255 796.96,-219 881.96,-219 881.96,-255"/>
<text text-anchor="middle" x="839.46" y="-233.3" font-family="Times,serif" font-size="14.00">#31 Goto</text>
</g>
<!-- node31&#45;&gt;node32 -->
<g id="edge7" class="edge">
<title>node31&#45;&gt;node32</title>
<path fill="none" stroke="red" d="M881.98,-225.06C923.8,-214.3 988.56,-197.64 1039.28,-184.6"/>
<polygon fill="red" stroke="red" points="1040.42,-187.92 1049.23,-182.04 1038.67,-181.14 1040.42,-187.92"/>
</g>
<!-- node30&#45;&gt;node32 -->
<g id="edge8" class="edge">
<title>node30&#45;&gt;node32</title>
<path fill="none" stroke="red" d="M1467.79,-222.85C1394.62,-211.29 1289.95,-194.38 1213.69,-181.83"/>
<polygon fill="red" stroke="red" points="1214.03,-178.34 1203.59,-180.17 1212.89,-185.25 1214.03,-178.34"/>
</g>
<!-- node30&#45;&gt;node32 -->
<g id="edge10" class="edge">
<title>node30&#45;&gt;node32</title>
<path fill="none" stroke="green" d="M1467.78,-221.07C1394.67,-209.01 1290.12,-192.1 1213.88,-180.01"/>
<polygon fill="green" stroke="green" points="1214.21,-176.52 1203.79,-178.41 1213.12,-183.43 1214.21,-176.52"/>
</g>
<!-- node28&#45;&gt;node32 -->
<g id="edge9" class="edge">
<title>node28&#45;&gt;node32</title>
<path fill="none" stroke="green" d="M789.82,-291.9C781.14,-271.99 771.27,-239.26 788.46,-219 817.42,-184.87 931.97,-172.28 1017.37,-167.65"/>
<polygon fill="green" stroke="green" points="1017.56,-171.15 1027.37,-167.14 1017.2,-164.16 1017.56,-171.15"/>
</g>
<!-- node28&#45;&gt;node31 -->
<g id="edge50" class="edge">
<title>node28&#45;&gt;node31</title>
<path fill="none" stroke="red" d="M808.38,-291.81C813.22,-283.44 819.13,-273.2 824.5,-263.9"/>
<polygon fill="red" stroke="red" points="827.66,-265.44 829.63,-255.03 821.59,-261.94 827.66,-265.44"/>
</g>
<!-- node9&#45;&gt;node30 -->
<g id="edge11" class="edge">
<title>node9&#45;&gt;node30</title>
<path fill="none" stroke="black" d="M1460.33,-540.03C1483.29,-531.59 1508.2,-518.84 1525.46,-500 1546.01,-477.57 1554.46,-468.42 1554.46,-438 1554.46,-438 1554.46,-438 1554.46,-309 1554.46,-294.65 1554.46,-278.67 1554.46,-265.51"/>
<polygon fill="black" stroke="black" points="1557.96,-265.22 1554.46,-255.22 1550.96,-265.22 1557.96,-265.22"/>
<text text-anchor="middle" x="1562.91" y="-269.64" font-family="Times,serif" font-size="14.00">*0</text>
</g>
<!-- node9&#45;&gt;node28 -->
<g id="edge34" class="edge">
<title>node9&#45;&gt;node28</title>
<path fill="none" stroke="black" d="M1452.97,-538.86C1471.28,-530.36 1489.94,-517.88 1500.46,-500 1530.89,-448.29 1541.23,-409.02 1500.46,-365 1480.2,-343.12 1082.85,-323.22 895.13,-314.99"/>
<polygon fill="black" stroke="black" points="895.13,-311.49 884.99,-314.55 894.82,-318.48 895.13,-311.49"/>
<text text-anchor="middle" x="903.46" y="-303.2" font-family="Times,serif" font-size="14.00">*0</text>
</g>
<!-- node9&#45;&gt;node20 -->
<g id="edge19" class="edge">
<title>node9&#45;&gt;node20</title>
<path fill="none" stroke="black" d="M1395.78,-537.64C1394.68,-527.3 1394.43,-513.94 1395.03,-502.22"/>
<polygon fill="black" stroke="black" points="1398.53,-502.29 1395.81,-492.05 1391.55,-501.75 1398.53,-502.29"/>
<text text-anchor="middle" x="1402.84" y="-507.08" font-family="Times,serif" font-size="14.00">*0</text>
</g>
<!-- node9&#45;&gt;node20 -->
<g id="edge22" class="edge">
<title>node9&#45;&gt;node20</title>
<path fill="none" stroke="green" d="M1407.14,-537.64C1408.24,-527.3 1408.49,-513.94 1407.89,-502.22"/>
<polygon fill="green" stroke="green" points="1411.37,-501.75 1407.1,-492.05 1404.39,-502.29 1411.37,-501.75"/>
</g>
<!-- node9&#45;&gt;node10 -->
<g id="edge41" class="edge">
<title>node9&#45;&gt;node10</title>
<path fill="none" stroke="black" d="M1356.33,-537.84C1327.13,-525.71 1289.42,-509.37 1260.61,-496.39"/>
<polygon fill="black" stroke="black" points="1261.77,-493.07 1251.21,-492.13 1258.88,-499.45 1261.77,-493.07"/>
<text text-anchor="middle" x="1271.21" y="-488.22" font-family="Times,serif" font-size="14.00">*0</text>
</g>
<!-- node9&#45;&gt;node10 -->
<g id="edge43" class="edge">
<title>node9&#45;&gt;node10</title>
<path fill="none" stroke="green" d="M1367.64,-537.84C1340.83,-525.61 1302.96,-509.09 1271.92,-496.06"/>
<polygon fill="green" stroke="green" points="1273.1,-492.76 1262.52,-492.13 1270.4,-499.22 1273.1,-492.76"/>
</g>
<!-- node6&#45;&gt;node30 -->
<g id="edge13" class="edge">
<title>node6&#45;&gt;node30</title>
<path fill="none" stroke="black" d="M1585.71,-692.82C1594.38,-678.97 1604.46,-658.64 1604.46,-639 1604.46,-639 1604.46,-639 1604.46,-309 1604.46,-291.4 1594.06,-275.08 1582.74,-262.54"/>
<polygon fill="black" stroke="black" points="1585.14,-259.98 1575.66,-255.24 1580.11,-264.86 1585.14,-259.98"/>
<text text-anchor="middle" x="1594.35" y="-258.67" font-family="Times,serif" font-size="14.00">*2</text>
</g>
<!-- node20&#45;&gt;node30 -->
<g id="edge14" class="edge">
<title>node20&#45;&gt;node30</title>
<path fill="none" stroke="green" d="M1344.26,-455.94C1331.59,-452.77 1318.15,-449.87 1305.46,-448 1154.13,-425.73 877.28,-485.53 971.46,-365 1030.38,-289.6 1307.91,-256.88 1457.82,-244.51"/>
<polygon fill="green" stroke="green" points="1458.26,-247.99 1467.95,-243.69 1457.7,-241.01 1458.26,-247.99"/>
</g>
<!-- node20&#45;&gt;node28 -->
<g id="edge37" class="edge">
<title>node20&#45;&gt;node28</title>
<path fill="none" stroke="green" d="M1342.4,-455.96C1330.26,-452.92 1317.51,-450.08 1305.46,-448 1158.62,-422.69 1112.79,-466.2 971.46,-419 915.66,-400.36 859.42,-360.42 826.81,-334.68"/>
<polygon fill="green" stroke="green" points="828.65,-331.67 818.65,-328.15 824.27,-337.13 828.65,-331.67"/>
</g>
<!-- node25 -->
<g id="node14" class="node">
<title>node25</title>
<polygon fill="lightgrey" stroke="transparent" points="1259.96,-419 1170.96,-419 1170.96,-365 1259.96,-365 1259.96,-419"/>
<polygon fill="none" stroke="black" points="1171.46,-392 1171.46,-419 1260.46,-419 1260.46,-392 1171.46,-392"/>
<text text-anchor="start" x="1192.96" y="-401.8" font-family="Times,serif" font-size="14.00">#25 If</text>
<polygon fill="yellow" stroke="transparent" points="1171.46,-365 1171.46,-392 1217.46,-392 1217.46,-365 1171.46,-365"/>
<polygon fill="none" stroke="black" points="1171.46,-365 1171.46,-392 1217.46,-392 1217.46,-365 1171.46,-365"/>
<text text-anchor="start" x="1177.46" y="-374.8" font-family="Times,serif" font-size="14.00">false</text>
<polygon fill="yellow" stroke="transparent" points="1217.46,-365 1217.46,-392 1260.46,-392 1260.46,-365 1217.46,-365"/>
<polygon fill="none" stroke="black" points="1217.46,-365 1217.46,-392 1260.46,-392 1260.46,-365 1217.46,-365"/>
<text text-anchor="start" x="1223.46" y="-374.8" font-family="Times,serif" font-size="14.00">true</text>
</g>
<!-- node20&#45;&gt;node25 -->
<g id="edge18" class="edge">
<title>node20&#45;&gt;node25</title>
<path fill="none" stroke="red" d="M1361.56,-455.84C1334.68,-444.28 1298.92,-428.9 1269.5,-416.24"/>
<polygon fill="red" stroke="red" points="1270.76,-412.97 1260.19,-412.24 1267.99,-419.4 1270.76,-412.97"/>
</g>
<!-- node23 -->
<g id="node29" class="node">
<title>node23</title>
<polygon fill="lightgreen" stroke="black" points="1440.65,-384.54 1440.65,-399.46 1405.98,-410 1356.94,-410 1322.27,-399.46 1322.27,-384.54 1356.94,-374 1405.98,-374 1440.65,-384.54"/>
<text text-anchor="middle" x="1381.46" y="-388.3" font-family="Times,serif" font-size="14.00">#23 int 0</text>
</g>
<!-- node20&#45;&gt;node23 -->
<g id="edge56" class="edge">
<title>node20&#45;&gt;node23</title>
<path fill="none" stroke="black" stroke-dasharray="1,5" d="M1397.12,-455.64C1394.51,-445.19 1391.13,-431.67 1388.18,-419.86"/>
<polygon fill="black" stroke="black" points="1391.54,-418.9 1385.72,-410.05 1384.75,-420.6 1391.54,-418.9"/>
</g>
<!-- node29 -->
<g id="node13" class="node">
<title>node29</title>
<polygon fill="lightgrey" stroke="black" points="1401.46,-328 1273.46,-328 1273.46,-292 1401.46,-292 1401.46,-328"/>
<text text-anchor="middle" x="1337.46" y="-306.3" font-family="Times,serif" font-size="14.00">#29 LabelNode</text>
</g>
<!-- node29&#45;&gt;node30 -->
<g id="edge15" class="edge">
<title>node29&#45;&gt;node30</title>
<path fill="none" stroke="red" d="M1389.44,-291.99C1420.34,-281.88 1459.74,-268.99 1492.29,-258.34"/>
<polygon fill="red" stroke="red" points="1493.74,-261.55 1502.15,-255.11 1491.56,-254.9 1493.74,-261.55"/>
</g>
<!-- node25&#45;&gt;node28 -->
<g id="edge38" class="edge">
<title>node25:prj27&#45;&gt;node28</title>
<path fill="none" stroke="red" d="M1194.46,-365C1194.46,-334.91 1012.68,-320.81 895.44,-314.84"/>
<polygon fill="red" stroke="red" points="895.53,-311.34 885.36,-314.34 895.18,-318.33 895.53,-311.34"/>
</g>
<!-- node25&#45;&gt;node29 -->
<g id="edge16" class="edge">
<title>node25:prj26&#45;&gt;node29</title>
<path fill="none" stroke="red" d="M1239.46,-365C1239.46,-348.75 1249.92,-337.36 1264.01,-329.38"/>
<polygon fill="red" stroke="red" points="1265.77,-332.41 1273.19,-324.84 1262.67,-326.13 1265.77,-332.41"/>
</g>
<!-- node24&#45;&gt;node25 -->
<g id="edge17" class="edge">
<title>node24&#45;&gt;node25</title>
<path fill="none" stroke="black" d="M795.15,-458.6C818.86,-454.87 844.62,-451.05 868.46,-448 995.52,-431.76 1034.29,-453.8 1161.1,-418.99"/>
<polygon fill="black" stroke="black" points="1162.11,-422.34 1170.79,-416.27 1160.22,-415.6 1162.11,-422.34"/>
<text text-anchor="middle" x="1155.63" y="-425.61" font-family="Times,serif" font-size="14.00">*0</text>
</g>
<!-- node19 -->
<g id="node16" class="node">
<title>node19</title>
<polygon fill="lightgreen" stroke="black" points="1255.81,-548.54 1255.81,-563.46 1217.53,-574 1163.39,-574 1125.11,-563.46 1125.11,-548.54 1163.39,-538 1217.53,-538 1255.81,-548.54"/>
<text text-anchor="middle" x="1190.46" y="-552.3" font-family="Times,serif" font-size="14.00">#19 int 10</text>
</g>
<!-- node19&#45;&gt;node20 -->
<g id="edge21" class="edge">
<title>node19&#45;&gt;node20</title>
<path fill="none" stroke="black" d="M1228.18,-540.7C1261.15,-528.2 1309.44,-509.89 1346.67,-495.77"/>
<polygon fill="black" stroke="black" points="1348.26,-498.91 1356.37,-492.1 1345.78,-492.37 1348.26,-498.91"/>
<text text-anchor="middle" x="1342.41" y="-502.73" font-family="Times,serif" font-size="14.00">*2</text>
</g>
<!-- node16 -->
<g id="node17" class="node">
<title>node16</title>
<polygon fill="lightgrey" stroke="transparent" points="568.96,-583 479.96,-583 479.96,-529 568.96,-529 568.96,-583"/>
<polygon fill="none" stroke="black" points="480.46,-556 480.46,-583 569.46,-583 569.46,-556 480.46,-556"/>
<text text-anchor="start" x="501.96" y="-565.8" font-family="Times,serif" font-size="14.00">#16 If</text>
<polygon fill="yellow" stroke="transparent" points="480.46,-529 480.46,-556 526.46,-556 526.46,-529 480.46,-529"/>
<polygon fill="none" stroke="black" points="480.46,-529 480.46,-556 526.46,-556 526.46,-529 480.46,-529"/>
<text text-anchor="start" x="486.46" y="-538.8" font-family="Times,serif" font-size="14.00">false</text>
<polygon fill="yellow" stroke="transparent" points="526.46,-529 526.46,-556 569.46,-556 569.46,-529 526.46,-529"/>
<polygon fill="none" stroke="black" points="526.46,-529 526.46,-556 569.46,-556 569.46,-529 526.46,-529"/>
<text text-anchor="start" x="532.46" y="-538.8" font-family="Times,serif" font-size="14.00">true</text>
</g>
<!-- node16&#45;&gt;node20 -->
<g id="edge23" class="edge">
<title>node16:prj17&#45;&gt;node20</title>
<path fill="none" stroke="red" d="M503.46,-529C503.46,-484.42 1261.35,-506.46 1305.46,-500 1314.95,-498.61 1324.84,-496.64 1334.53,-494.42"/>
<polygon fill="red" stroke="red" points="1335.61,-497.75 1344.52,-492.01 1333.98,-490.95 1335.61,-497.75"/>
</g>
<!-- node16&#45;&gt;node19 -->
<g id="edge55" class="edge">
<title>node16:prj17&#45;&gt;node19</title>
<path fill="none" stroke="black" stroke-dasharray="1,5" d="M503.46,-528C503.46,-513.44 554.7,-526.05 568.96,-529 646.92,-545.12 656.38,-581.98 734.46,-597.5 811.4,-612.79 1010.45,-612.43 1087.46,-597.5 1108.41,-593.44 1130.5,-585.13 1148.83,-577"/>
<polygon fill="black" stroke="black" points="1150.4,-580.13 1158.05,-572.8 1147.5,-573.77 1150.4,-580.13"/>
</g>
<!-- node21 -->
<g id="node27" class="node">
<title>node21</title>
<polygon fill="lightgrey" stroke="black" points="538.46,-492 410.46,-492 410.46,-456 538.46,-456 538.46,-492"/>
<text text-anchor="middle" x="474.46" y="-470.3" font-family="Times,serif" font-size="14.00">#21 LabelNode</text>
</g>
<!-- node16&#45;&gt;node21 -->
<g id="edge47" class="edge">
<title>node16:prj18&#45;&gt;node21</title>
<path fill="none" stroke="red" d="M548.46,-529C548.46,-515.82 540.7,-505.51 530.22,-497.6"/>
<polygon fill="red" stroke="red" points="532.02,-494.6 521.74,-492.01 528.16,-500.44 532.02,-494.6"/>
</g>
<!-- node15&#45;&gt;node16 -->
<g id="edge24" class="edge">
<title>node15&#45;&gt;node16</title>
<path fill="none" stroke="black" d="M467.3,-619.64C475.05,-611.15 484.66,-600.62 493.77,-590.63"/>
<polygon fill="black" stroke="black" points="496.45,-592.89 500.6,-583.15 491.28,-588.17 496.45,-592.89"/>
<text text-anchor="middle" x="494.63" y="-598.53" font-family="Times,serif" font-size="14.00">*0</text>
</g>
<!-- node11 -->
<g id="node19" class="node">
<title>node11</title>
<polygon fill="lightgrey" stroke="black" points="1084.46,-574 880.46,-574 880.46,-538 1084.46,-538 1084.46,-574"/>
<text text-anchor="middle" x="982.46" y="-552.3" font-family="Times,serif" font-size="14.00">#11 LoopHeader : Loop14</text>
</g>
<!-- node11&#45;&gt;node16 -->
<g id="edge25" class="edge">
<title>node11&#45;&gt;node16</title>
<path fill="none" stroke="red" d="M940.35,-574C917,-583.02 887.15,-592.95 859.46,-597.5 761,-613.66 645.33,-589.97 578.89,-572.29"/>
<polygon fill="red" stroke="red" points="579.62,-568.86 569.05,-569.62 577.79,-575.61 579.62,-568.86"/>
</g>
<!-- node14 -->
<g id="node28" class="node">
<title>node14</title>
<polygon fill="lightgreen" stroke="black" points="1010.81,-466.54 1010.81,-481.46 972.53,-492 918.39,-492 880.11,-481.46 880.11,-466.54 918.39,-456 972.53,-456 1010.81,-466.54"/>
<text text-anchor="middle" x="945.46" y="-470.3" font-family="Times,serif" font-size="14.00">#14 int 10</text>
</g>
<!-- node11&#45;&gt;node14 -->
<g id="edge52" class="edge">
<title>node11&#45;&gt;node14</title>
<path fill="none" stroke="black" stroke-dasharray="1,5" d="M974.43,-537.64C969.5,-526.98 963.09,-513.12 957.55,-501.15"/>
<polygon fill="black" stroke="black" points="960.72,-499.66 953.35,-492.05 954.37,-502.6 960.72,-499.66"/>
</g>
<!-- node7 -->
<g id="node20" class="node">
<title>node7</title>
<polygon fill="lightgrey" stroke="black" points="855.96,-656 736.96,-656 736.96,-620 855.96,-620 855.96,-656"/>
<text text-anchor="middle" x="796.46" y="-634.3" font-family="Times,serif" font-size="14.00">#7 LabelNode</text>
</g>
<!-- node7&#45;&gt;node12 -->
<g id="edge51" class="edge">
<title>node7&#45;&gt;node12</title>
<path fill="none" stroke="black" stroke-dasharray="1,5" d="M796.46,-619.64C796.46,-609.3 796.46,-595.94 796.46,-584.22"/>
<polygon fill="black" stroke="black" points="799.96,-584.05 796.46,-574.05 792.96,-584.05 799.96,-584.05"/>
</g>
<!-- node7&#45;&gt;node11 -->
<g id="edge26" class="edge">
<title>node7&#45;&gt;node11</title>
<path fill="none" stroke="red" d="M836.36,-619.84C864.68,-607.66 902.88,-591.23 933.11,-578.23"/>
<polygon fill="red" stroke="red" points="934.82,-581.3 942.62,-574.13 932.05,-574.87 934.82,-581.3"/>
</g>
<!-- node33&#45;&gt;node11 -->
<g id="edge27" class="edge">
<title>node33&#45;&gt;node11</title>
<path fill="none" stroke="red" stroke-dasharray="5,2" d="M956.44,-109.16C954.17,-123.5 951.46,-144.52 951.46,-163 951.46,-347 951.46,-347 951.46,-347 951.46,-380.21 951.38,-392.54 971.46,-419 986.53,-438.86 1007.21,-426.29 1019.46,-448 1030.82,-468.13 1026.2,-477.89 1019.46,-500 1016.29,-510.4 1010.41,-520.62 1004.27,-529.37"/>
<polygon fill="red" stroke="red" points="1001.31,-527.48 998.12,-537.59 1006.91,-531.68 1001.31,-527.48"/>
</g>
<!-- node4&#45;&gt;node7 -->
<g id="edge29" class="edge">
<title>node4&#45;&gt;node7</title>
<path fill="none" stroke="red" d="M905.97,-692.99C886.25,-683.27 861.33,-670.99 840.25,-660.59"/>
<polygon fill="red" stroke="red" points="841.69,-657.4 831.17,-656.11 838.59,-663.68 841.69,-657.4"/>
</g>
<!-- node8 -->
<g id="node23" class="node">
<title>node8</title>
<polygon fill="lightgreen" stroke="black" points="1000.65,-630.54 1000.65,-645.46 965.98,-656 916.94,-656 882.27,-645.46 882.27,-630.54 916.94,-620 965.98,-620 1000.65,-630.54"/>
<text text-anchor="middle" x="941.46" y="-634.3" font-family="Times,serif" font-size="14.00">#8 int 10</text>
</g>
<!-- node4&#45;&gt;node8 -->
<g id="edge31" class="edge">
<title>node4&#45;&gt;node8</title>
<path fill="none" stroke="black" stroke-dasharray="1,5" d="M940.7,-692.81C940.81,-684.79 940.95,-675.05 941.08,-666.07"/>
<polygon fill="black" stroke="black" points="944.58,-666.08 941.22,-656.03 937.58,-665.98 944.58,-666.08"/>
</g>
<!-- node8&#45;&gt;node9 -->
<g id="edge32" class="edge">
<title>node8&#45;&gt;node9</title>
<path fill="none" stroke="black" d="M994.61,-628.66C1059.21,-618.41 1171.47,-600.26 1267.46,-583 1285.75,-579.71 1305.4,-576 1323.87,-572.43"/>
<polygon fill="black" stroke="black" points="1324.55,-575.86 1333.7,-570.52 1323.22,-568.99 1324.55,-575.86"/>
<text text-anchor="middle" x="1317.52" y="-578.57" font-family="Times,serif" font-size="14.00">*0</text>
</g>
<!-- node5&#45;&gt;node28 -->
<g id="edge36" class="edge">
<title>node5&#45;&gt;node28</title>
<path fill="none" stroke="black" d="M78.13,-693C82.38,-678.74 87.46,-657.77 87.46,-639 87.46,-639 87.46,-639 87.46,-391 87.46,-359.42 113.01,-357.41 142.46,-346 193.11,-326.38 531.58,-316.58 701.51,-312.85"/>
<polygon fill="black" stroke="black" points="701.78,-316.34 711.7,-312.63 701.63,-309.35 701.78,-316.34"/>
<text text-anchor="middle" x="693.77" y="-317.77" font-family="Times,serif" font-size="14.00">*2</text>
</g>
<!-- node22 -->
<g id="node26" class="node">
<title>node22</title>
<polygon fill="lightgrey" stroke="black" points="1152.96,-410 979.96,-410 979.96,-374 1152.96,-374 1152.96,-410"/>
<text text-anchor="middle" x="1066.46" y="-388.3" font-family="Times,serif" font-size="14.00">#22 ReturnValue : int</text>
</g>
<!-- node10&#45;&gt;node22 -->
<g id="edge44" class="edge">
<title>node10&#45;&gt;node22</title>
<path fill="none" stroke="black" d="M1179.41,-455.84C1155.63,-443.92 1125.31,-427.94 1102.02,-415.07"/>
<polygon fill="black" stroke="black" points="1103.58,-411.94 1093.15,-410.13 1100.18,-418.06 1103.58,-411.94"/>
<text text-anchor="middle" x="1113.09" y="-407.87" font-family="Times,serif" font-size="14.00">*0</text>
</g>
<!-- node10&#45;&gt;node22 -->
<g id="edge46" class="edge">
<title>node10&#45;&gt;node22</title>
<path fill="none" stroke="green" d="M1190.72,-455.84C1169.33,-443.82 1138.97,-427.66 1113.56,-414.73"/>
<polygon fill="green" stroke="green" points="1114.96,-411.52 1104.45,-410.13 1111.8,-417.77 1114.96,-411.52"/>
</g>
<!-- node21&#45;&gt;node22 -->
<g id="edge45" class="edge">
<title>node21&#45;&gt;node22</title>
<path fill="none" stroke="red" d="M519.18,-455.92C528.42,-452.89 538.17,-450.05 547.46,-448 692.37,-415.94 864.31,-402.39 969.37,-396.79"/>
<polygon fill="red" stroke="red" points="969.84,-400.27 979.64,-396.25 969.47,-393.28 969.84,-400.27"/>
</g>
<!-- node14&#45;&gt;node15 -->
<g id="edge54" class="edge">
<title>node14&#45;&gt;node15</title>
<path fill="none" stroke="black" d="M909.13,-489.63C897.31,-493.75 884,-497.73 871.46,-500 737.13,-524.33 700.04,-494.06 564.46,-510 522.56,-514.93 501.01,-498.9 471.46,-529 450.75,-550.1 447.79,-585.26 448.67,-609.71"/>
<polygon fill="black" stroke="black" points="445.19,-610 449.28,-619.78 452.17,-609.59 445.19,-610"/>
<text text-anchor="middle" x="439.76" y="-598.49" font-family="Times,serif" font-size="14.00">*1</text>
</g>
<!-- node23&#45;&gt;node24 -->
<g id="edge58" class="edge">
<title>node23&#45;&gt;node24</title>
<path fill="none" stroke="black" d="M1338.1,-404.41C1317.44,-409.5 1292.3,-415.19 1269.46,-419 1187.93,-432.59 1166.89,-431.86 1084.46,-438 988.62,-445.13 964.07,-438.3 868.46,-448 846.98,-450.18 823.98,-453.32 802.34,-456.64"/>
<polygon fill="black" stroke="black" points="801.51,-453.23 792.17,-458.23 802.59,-460.15 801.51,-453.23"/>
<text text-anchor="middle" x="808.77" y="-443.38" font-family="Times,serif" font-size="14.00">*1</text>
</g>
<!-- c0 -->
<!-- c1 -->
<!-- c0&#45;&gt;c1 -->
<g id="edge59" class="edge">
<title>c0&#45;&gt;c1</title>
<path fill="none" stroke="red" d="M1434.35,-793C1445.57,-793 1503.7,-793 1529.32,-793"/>
<polygon fill="red" stroke="red" points="1529.52,-796.5 1539.52,-793 1529.52,-789.5 1529.52,-796.5"/>
<text text-anchor="middle" x="1486.96" y="-799.8" font-family="Times,serif" font-size="14.00">Control flow</text>
</g>
<!-- c2 -->
<!-- c3 -->
<!-- c2&#45;&gt;c3 -->
<g id="edge60" class="edge">
<title>c2&#45;&gt;c3</title>
<path fill="none" stroke="red" stroke-dasharray="5,2" d="M1227.54,-793C1244.51,-793 1360.67,-793 1398.54,-793"/>
<polygon fill="red" stroke="red" points="1398.63,-796.5 1408.63,-793 1398.63,-789.5 1398.63,-796.5"/>
<text text-anchor="middle" x="1317.96" y="-799.8" font-family="Times,serif" font-size="14.00">Control flow back edge</text>
</g>
<!-- d0 -->
<!-- d1 -->
<!-- d0&#45;&gt;d1 -->
<g id="edge61" class="edge">
<title>d0&#45;&gt;d1</title>
<path fill="none" stroke="black" d="M1116.32,-793C1125.87,-793 1169.77,-793 1191.38,-793"/>
<polygon fill="black" stroke="black" points="1191.61,-796.5 1201.61,-793 1191.61,-789.5 1191.61,-796.5"/>
<text text-anchor="middle" x="1158.96" y="-799.8" font-family="Times,serif" font-size="14.00">Data flow</text>
</g>
<!-- d2 -->
<!-- d3 -->
<!-- d2&#45;&gt;d3 -->
<g id="edge62" class="edge">
<title>d2&#45;&gt;d3</title>
<path fill="none" stroke="black" stroke-dasharray="1,5" d="M990.26,-793C1000.92,-793 1055.92,-793 1080.53,-793"/>
<polygon fill="black" stroke="black" points="1080.6,-796.5 1090.6,-793 1080.6,-789.5 1080.6,-796.5"/>
<text text-anchor="middle" x="1040.46" y="-799.8" font-family="Times,serif" font-size="14.00">Declaration</text>
</g>
<!-- d4 -->
<!-- d5 -->
<!-- d4&#45;&gt;d5 -->
<g id="edge63" class="edge">
<title>d4&#45;&gt;d5</title>
<path fill="none" stroke="blue" d="M847.56,-793C860.18,-793 926.34,-793 954.14,-793"/>
<polygon fill="blue" stroke="blue" points="954.3,-796.5 964.3,-793 954.3,-789.5 954.3,-796.5"/>
<text text-anchor="middle" x="905.96" y="-799.8" font-family="Times,serif" font-size="14.00">PHI Data flow</text>
</g>
<!-- d6 -->
<!-- d7 -->
<!-- d6&#45;&gt;d7 -->
<g id="edge64" class="edge">
<title>d6&#45;&gt;d7</title>
<path fill="none" stroke="green" d="M710.46,-793C722.4,-793 784.76,-793 811.39,-793"/>
<polygon fill="green" stroke="green" points="811.41,-796.5 821.41,-793 811.41,-789.5 811.41,-796.5"/>
<text text-anchor="middle" x="765.96" y="-799.8" font-family="Times,serif" font-size="14.00">Memory flow</text>
</g>
</g>
</svg>
