<?xml version="1.0" encoding="UTF-8" standalone="no"?>
<!DOCTYPE svg PUBLIC "-//W3C//DTD SVG 1.1//EN"
 "http://www.w3.org/Graphics/SVG/1.1/DTD/svg11.dtd">
<!-- Generated by graphviz version 2.43.0 (0)
 -->
<!-- Title: %3 Pages: 1 -->
<svg width="2030pt" height="844pt"
 viewBox="0.00 0.00 2030.00 844.00" xmlns="http://www.w3.org/2000/svg" xmlns:xlink="http://www.w3.org/1999/xlink">
<g id="graph0" class="graph" transform="scale(1 1) rotate(0) translate(4 840)">
<title>%3</title>
<polygon fill="white" stroke="transparent" points="-4,4 -4,-840 2026,-840 2026,4 -4,4"/>
<g id="clust1" class="cluster">
<title>cluster_0</title>
<polygon fill="none" stroke="lightgray" points="277,-530 277,-582 423,-582 423,-530 277,-530"/>
</g>
<g id="clust2" class="cluster">
<title>cluster_1</title>
<polygon fill="none" stroke="lightgray" points="739,-530 739,-664 875,-664 875,-530 739,-530"/>
</g>
<g id="clust3" class="cluster">
<title>cluster_2</title>
<polygon fill="none" stroke="lightgray" points="899,-685 899,-828 1153,-828 1153,-685 899,-685"/>
</g>
<g id="clust4" class="cluster">
<title>cluster_3</title>
<polygon fill="none" stroke="lightgray" points="514,-612 514,-737 650,-737 650,-612 514,-612"/>
</g>
<g id="clust5" class="cluster">
<title>cluster_4</title>
<polygon fill="none" stroke="lightgray" points="1099,-448 1099,-582 1319,-582 1319,-448 1099,-448"/>
</g>
<g id="clust6" class="cluster">
<title>cluster_5</title>
<polygon fill="none" stroke="lightgray" points="343,-366 343,-500 533,-500 533,-366 343,-366"/>
</g>
<g id="clust7" class="cluster">
<title>cluster_6</title>
<polygon fill="none" stroke="lightgray" points="1062,-65 1062,-190 1254,-190 1254,-65 1062,-65"/>
</g>
<g id="clust8" class="cluster">
<title>cluster_000</title>
<polygon fill="none" stroke="black" points="1161,-783.2 1161,-825.8 2014,-825.8 2014,-783.2 1161,-783.2"/>
<text text-anchor="middle" x="1587.5" y="-810.6" font-family="Times,serif" font-size="14.00">Legend</text>
</g>
<!-- node0 -->
<g id="node1" class="node">
<title>node0</title>
<polygon fill="lightgrey" stroke="transparent" points="1144.5,-820 907.5,-820 907.5,-766 1144.5,-766 1144.5,-820"/>
<polygon fill="none" stroke="black" points="908,-793 908,-820 1145,-820 1145,-793 908,-793"/>
<text text-anchor="start" x="986" y="-802.8" font-family="Times,serif" font-size="14.00">#0 Method</text>
<polygon fill="yellow" stroke="transparent" points="908,-766 908,-793 987,-793 987,-766 908,-766"/>
<polygon fill="none" stroke="black" points="908,-766 908,-793 987,-793 987,-766 908,-766"/>
<text text-anchor="start" x="914" y="-775.8" font-family="Times,serif" font-size="14.00">arg0 : int</text>
<polygon fill="yellow" stroke="transparent" points="987,-766 987,-793 1066,-793 1066,-766 987,-766"/>
<polygon fill="none" stroke="black" points="987,-766 987,-793 1066,-793 1066,-766 987,-766"/>
<text text-anchor="start" x="993" y="-775.8" font-family="Times,serif" font-size="14.00">arg1 : int</text>
<polygon fill="yellow" stroke="transparent" points="1066,-766 1066,-793 1145,-793 1145,-766 1066,-766"/>
<polygon fill="none" stroke="black" points="1066,-766 1066,-793 1145,-793 1145,-766 1066,-766"/>
<text text-anchor="start" x="1072" y="-775.8" font-family="Times,serif" font-size="14.00">arg2 : int</text>
</g>
<!-- node9 -->
<g id="node2" class="node">
<title>node9</title>
<polygon fill="orange" stroke="black" points="693.3,-548.54 693.3,-563.46 628.1,-574 535.9,-574 470.7,-563.46 470.7,-548.54 535.9,-538 628.1,-538 693.3,-548.54"/>
<text text-anchor="middle" x="582" y="-552.3" font-family="Times,serif" font-size="14.00">#9 NewArray : int[]</text>
</g>
<!-- node0&#45;&gt;node9 -->
<g id="edge2" class="edge">
<title>node0&#45;&gt;node9</title>
<path fill="none" stroke="green" d="M907.18,-788.27C753.86,-782.24 503.23,-767.76 474,-737 434.17,-695.09 471.02,-654.69 510,-612 520.77,-600.2 534.33,-589.11 546.77,-580.02"/>
<polygon fill="green" stroke="green" points="549.03,-582.71 555.15,-574.06 544.97,-577 549.03,-582.71"/>
</g>
<!-- node4 -->
<g id="node4" class="node">
<title>node4</title>
<polygon fill="lightgrey" stroke="black" points="641.5,-729 522.5,-729 522.5,-693 641.5,-693 641.5,-729"/>
<text text-anchor="middle" x="582" y="-707.3" font-family="Times,serif" font-size="14.00">#4 LabelNode</text>
</g>
<!-- node0&#45;&gt;node4 -->
<g id="edge4" class="edge">
<title>node0&#45;&gt;node4</title>
<path fill="none" stroke="red" d="M907.32,-772.56C846.7,-762.41 771.83,-749.51 705,-737 687.72,-733.76 669.12,-730.09 651.74,-726.56"/>
<polygon fill="red" stroke="red" points="652.17,-723.08 641.67,-724.51 650.77,-729.94 652.17,-723.08"/>
</g>
<!-- node30 -->
<g id="node10" class="node">
<title>node30</title>
<polygon fill="lightgrey" stroke="black" points="1167.5,-255 994.5,-255 994.5,-219 1167.5,-219 1167.5,-255"/>
<text text-anchor="middle" x="1081" y="-233.3" font-family="Times,serif" font-size="14.00">#30 ArrayStore : int[]</text>
</g>
<!-- node0&#45;&gt;node30 -->
<g id="edge14" class="edge">
<title>node0:prj2&#45;&gt;node30</title>
<path fill="none" stroke="black" d="M1146,-779C1153.57,-779 1150.86,-770.43 1157,-766 1256.02,-694.63 1343.57,-765.08 1412,-664 1424.96,-644.86 1417.69,-634.4 1412,-612 1369.58,-444.89 1193.37,-311.75 1116.8,-260.62"/>
<polygon fill="black" stroke="black" points="1118.67,-257.66 1108.4,-255.08 1114.82,-263.51 1118.67,-257.66"/>
<text text-anchor="middle" x="1128.18" y="-254.31" font-family="Times,serif" font-size="14.00">*1</text>
</g>
<!-- node28 -->
<g id="node11" class="node">
<title>node28</title>
<polygon fill="lightgrey" stroke="black" points="674.5,-328 501.5,-328 501.5,-292 674.5,-292 674.5,-328"/>
<text text-anchor="middle" x="588" y="-306.3" font-family="Times,serif" font-size="14.00">#28 ArrayStore : int[]</text>
</g>
<!-- node0&#45;&gt;node28 -->
<g id="edge46" class="edge">
<title>node0:prj2&#45;&gt;node28</title>
<path fill="none" stroke="black" d="M1106,-766C1106,-745.49 753.08,-750.9 738,-737 676.43,-680.24 724.94,-434.34 678,-365 669.03,-351.76 655.64,-341.25 641.9,-333.15"/>
<polygon fill="black" stroke="black" points="643.31,-329.94 632.87,-328.18 639.94,-336.07 643.31,-329.94"/>
<text text-anchor="middle" x="652.82" y="-325.82" font-family="Times,serif" font-size="14.00">*1</text>
</g>
<!-- node6 -->
<g id="node12" class="node">
<title>node6</title>
<polygon fill="orange" stroke="black" points="891.42,-703.54 891.42,-718.46 849,-729 789,-729 746.58,-718.46 746.58,-703.54 789,-693 849,-693 891.42,-703.54"/>
<text text-anchor="middle" x="819" y="-707.3" font-family="Times,serif" font-size="14.00">#6 Sub : int</text>
</g>
<!-- node0&#45;&gt;node6 -->
<g id="edge52" class="edge">
<title>node0:prj1&#45;&gt;node6</title>
<path fill="none" stroke="black" d="M1027,-766C1027,-746.12 866.55,-757.33 849,-748 843.97,-745.33 839.45,-741.43 835.53,-737.17"/>
<polygon fill="black" stroke="black" points="838.17,-734.87 829.16,-729.3 832.74,-739.27 838.17,-734.87"/>
<text text-anchor="middle" x="847.14" y="-734.36" font-family="Times,serif" font-size="14.00">*0</text>
</g>
<!-- node0&#45;&gt;node6 -->
<g id="edge53" class="edge">
<title>node0:prj2&#45;&gt;node6</title>
<path fill="none" stroke="black" d="M1106,-766C1106,-745.13 939.37,-752.57 919,-748 900.94,-743.95 881.68,-737.54 864.93,-731.25"/>
<polygon fill="black" stroke="black" points="865.98,-727.91 855.39,-727.58 863.46,-734.44 865.98,-727.91"/>
<text text-anchor="middle" x="875.34" y="-722.5" font-family="Times,serif" font-size="14.00">*1</text>
</g>
<!-- node20 -->
<g id="node13" class="node">
<title>node20</title>
<polygon fill="lightgrey" stroke="black" points="524.5,-492 351.5,-492 351.5,-456 524.5,-456 524.5,-492"/>
<text text-anchor="middle" x="438" y="-470.3" font-family="Times,serif" font-size="14.00">#20 ArrayStore : int[]</text>
</g>
<!-- node0&#45;&gt;node20 -->
<g id="edge22" class="edge">
<title>node0:prj1&#45;&gt;node20</title>
<path fill="none" stroke="black" d="M1027,-766C1027,-737.23 532.68,-754.69 510,-737 472.63,-707.85 449.57,-563.05 441.37,-502.11"/>
<polygon fill="black" stroke="black" points="444.83,-501.54 440.06,-492.08 437.89,-502.45 444.83,-501.54"/>
<text text-anchor="middle" x="450.8" y="-505.25" font-family="Times,serif" font-size="14.00">*1</text>
</g>
<!-- node24 -->
<g id="node16" class="node">
<title>node24</title>
<polygon fill="orange" stroke="black" points="333.82,-466.54 333.82,-481.46 244.3,-492 117.7,-492 28.18,-481.46 28.18,-466.54 117.7,-456 244.3,-456 333.82,-466.54"/>
<text text-anchor="middle" x="181" y="-470.3" font-family="Times,serif" font-size="14.00">#24 NumericCondition : EQ</text>
</g>
<!-- node0&#45;&gt;node24 -->
<g id="edge57" class="edge">
<title>node0:prj3&#45;&gt;node24</title>
<path fill="none" stroke="black" d="M907,-779C667.94,-779 608.24,-767.84 370,-748 310.68,-743.06 241,-771.52 241,-712 241,-712 241,-712 241,-555 241,-533.27 226.65,-513.66 211.99,-499.3"/>
<polygon fill="black" stroke="black" points="214.1,-496.48 204.37,-492.28 209.36,-501.63 214.1,-496.48"/>
<text text-anchor="middle" x="223.43" y="-494.64" font-family="Times,serif" font-size="14.00">*0</text>
</g>
<!-- node13 -->
<g id="node20" class="node">
<title>node13</title>
<polygon fill="orange" stroke="black" points="1144.5,-703.54 1144.5,-718.46 1109.06,-729 1058.94,-729 1023.5,-718.46 1023.5,-703.54 1058.94,-693 1109.06,-693 1144.5,-703.54"/>
<text text-anchor="middle" x="1084" y="-707.3" font-family="Times,serif" font-size="14.00">#13 Φ int</text>
</g>
<!-- node0&#45;&gt;node13 -->
<g id="edge31" class="edge">
<title>node0&#45;&gt;node13</title>
<path fill="none" stroke="black" stroke-dasharray="1,5" d="M1044.99,-765.81C1051.6,-756.69 1059,-746.48 1065.56,-737.43"/>
<polygon fill="black" stroke="black" points="1068.51,-739.32 1071.55,-729.17 1062.85,-735.22 1068.51,-739.32"/>
</g>
<!-- node10 -->
<g id="node27" class="node">
<title>node10</title>
<polygon fill="lightgrey" stroke="black" points="907,-492 749,-492 749,-456 907,-456 907,-492"/>
<text text-anchor="middle" x="828" y="-470.3" font-family="Times,serif" font-size="14.00">#10 ArrayLoad : int</text>
</g>
<!-- node0&#45;&gt;node10 -->
<g id="edge43" class="edge">
<title>node0:prj2&#45;&gt;node10</title>
<path fill="none" stroke="black" d="M1106,-766C1106,-760.64 1018.46,-739.96 1014,-737 922.18,-676.05 943.6,-618.29 879,-529 871.63,-518.82 862.49,-508.56 853.98,-499.77"/>
<polygon fill="black" stroke="black" points="856.25,-497.09 846.73,-492.45 851.28,-502.02 856.25,-497.09"/>
<text text-anchor="middle" x="865.49" y="-495.68" font-family="Times,serif" font-size="14.00">*1</text>
</g>
<!-- node5 -->
<g id="node28" class="node">
<title>node5</title>
<polygon fill="orange" stroke="black" points="422.42,-703.54 422.42,-718.46 380,-729 320,-729 277.58,-718.46 277.58,-703.54 320,-693 380,-693 422.42,-703.54"/>
<text text-anchor="middle" x="350" y="-707.3" font-family="Times,serif" font-size="14.00">#5 Add : int</text>
</g>
<!-- node0&#45;&gt;node5 -->
<g id="edge50" class="edge">
<title>node0:prj1&#45;&gt;node5</title>
<path fill="none" stroke="black" d="M1027,-766C1027,-729.76 406.87,-765.24 375,-748 370.35,-745.49 366.38,-741.69 363.07,-737.48"/>
<polygon fill="black" stroke="black" points="365.96,-735.51 357.5,-729.13 360.14,-739.39 365.96,-735.51"/>
<text text-anchor="middle" x="374.59" y="-735.82" font-family="Times,serif" font-size="14.00">*0</text>
</g>
<!-- node0&#45;&gt;node5 -->
<g id="edge51" class="edge">
<title>node0:prj2&#45;&gt;node5</title>
<path fill="none" stroke="black" d="M1106,-766C1106,-746.52 423.59,-753.81 405,-748 395.8,-745.13 386.68,-740.23 378.6,-734.96"/>
<polygon fill="black" stroke="black" points="380.48,-732.01 370.27,-729.17 376.49,-737.76 380.48,-732.01"/>
<text text-anchor="middle" x="389.98" y="-728.88" font-family="Times,serif" font-size="14.00">*1</text>
</g>
<!-- node9&#45;&gt;node30 -->
<g id="edge13" class="edge">
<title>node9&#45;&gt;node30</title>
<path fill="none" stroke="black" d="M604.66,-537.91C650.52,-503.6 758.06,-424.5 853,-365 916.22,-325.38 992.43,-284.19 1038.78,-259.84"/>
<polygon fill="black" stroke="black" points="1040.68,-262.79 1047.92,-255.05 1037.43,-256.59 1040.68,-262.79"/>
<text text-anchor="middle" x="1035.78" y="-267.25" font-family="Times,serif" font-size="14.00">*0</text>
</g>
<!-- node9&#45;&gt;node28 -->
<g id="edge45" class="edge">
<title>node9&#45;&gt;node28</title>
<path fill="none" stroke="black" d="M578.62,-537.85C572.54,-504.41 561.29,-428.19 571,-365 572.4,-355.92 575.04,-346.28 577.83,-337.69"/>
<polygon fill="black" stroke="black" points="581.15,-338.78 581.11,-328.19 574.54,-336.5 581.15,-338.78"/>
<text text-anchor="middle" x="583.18" y="-344.38" font-family="Times,serif" font-size="14.00">*0</text>
</g>
<!-- node9&#45;&gt;node20 -->
<g id="edge21" class="edge">
<title>node9&#45;&gt;node20</title>
<path fill="none" stroke="black" d="M545.45,-537.84C522.82,-525.97 494.05,-510.08 471.92,-497.25"/>
<polygon fill="black" stroke="black" points="473.58,-494.16 463.19,-492.13 470.05,-500.21 473.58,-494.16"/>
<text text-anchor="middle" x="483.1" y="-490.29" font-family="Times,serif" font-size="14.00">*0</text>
</g>
<!-- node9&#45;&gt;node20 -->
<g id="edge24" class="edge">
<title>node9&#45;&gt;node20</title>
<path fill="none" stroke="green" d="M556.77,-537.84C536.51,-525.87 507.73,-509.8 483.52,-496.9"/>
<polygon fill="green" stroke="green" points="484.97,-493.71 474.49,-492.13 481.7,-499.9 484.97,-493.71"/>
</g>
<!-- node9&#45;&gt;node10 -->
<g id="edge42" class="edge">
<title>node9&#45;&gt;node10</title>
<path fill="none" stroke="black" d="M628.53,-538.03C665.76,-525.48 718.37,-508.34 760.25,-495.1"/>
<polygon fill="black" stroke="black" points="761.35,-498.42 769.83,-492.08 759.24,-491.75 761.35,-498.42"/>
<text text-anchor="middle" x="755.09" y="-501.89" font-family="Times,serif" font-size="14.00">*0</text>
</g>
<!-- node9&#45;&gt;node10 -->
<g id="edge44" class="edge">
<title>node9&#45;&gt;node10</title>
<path fill="none" stroke="green" d="M636.11,-539.19C676.36,-526.59 731.06,-508.85 771.8,-495.21"/>
<polygon fill="green" stroke="green" points="772.95,-498.52 781.31,-492.02 770.72,-491.88 772.95,-498.52"/>
</g>
<!-- node8 -->
<g id="node3" class="node">
<title>node8</title>
<polygon fill="lightgreen" stroke="black" points="641.19,-630.54 641.19,-645.46 606.52,-656 557.48,-656 522.81,-645.46 522.81,-630.54 557.48,-620 606.52,-620 641.19,-630.54"/>
<text text-anchor="middle" x="582" y="-634.3" font-family="Times,serif" font-size="14.00">#8 int 10</text>
</g>
<!-- node8&#45;&gt;node9 -->
<g id="edge1" class="edge">
<title>node8&#45;&gt;node9</title>
<path fill="none" stroke="black" d="M582,-619.64C582,-609.3 582,-595.94 582,-584.22"/>
<polygon fill="black" stroke="black" points="585.5,-584.05 582,-574.05 578.5,-584.05 585.5,-584.05"/>
<text text-anchor="middle" x="590.45" y="-588.48" font-family="Times,serif" font-size="14.00">*0</text>
</g>
<!-- node4&#45;&gt;node8 -->
<g id="edge3" class="edge">
<title>node4&#45;&gt;node8</title>
<path fill="none" stroke="black" stroke-dasharray="1,5" d="M582,-692.81C582,-684.79 582,-675.05 582,-666.07"/>
<polygon fill="black" stroke="black" points="585.5,-666.03 582,-656.03 578.5,-666.03 585.5,-666.03"/>
</g>
<!-- node7 -->
<g id="node5" class="node">
<title>node7</title>
<polygon fill="lightgrey" stroke="black" points="866.5,-656 747.5,-656 747.5,-620 866.5,-620 866.5,-656"/>
<text text-anchor="middle" x="807" y="-634.3" font-family="Times,serif" font-size="14.00">#7 LabelNode</text>
</g>
<!-- node4&#45;&gt;node7 -->
<g id="edge5" class="edge">
<title>node4&#45;&gt;node7</title>
<path fill="none" stroke="red" d="M635.89,-692.99C668.08,-682.84 709.14,-669.88 742.97,-659.2"/>
<polygon fill="red" stroke="red" points="744.28,-662.46 752.77,-656.11 742.18,-655.79 744.28,-662.46"/>
</g>
<!-- node11 -->
<g id="node6" class="node">
<title>node11</title>
<polygon fill="lightgrey" stroke="black" points="1311,-574 1107,-574 1107,-538 1311,-538 1311,-574"/>
<text text-anchor="middle" x="1209" y="-552.3" font-family="Times,serif" font-size="14.00">#11 LoopHeader : Loop14</text>
</g>
<!-- node7&#45;&gt;node11 -->
<g id="edge6" class="edge">
<title>node7&#45;&gt;node11</title>
<path fill="none" stroke="red" d="M866.75,-625.11C931.74,-612.18 1036.58,-591.31 1113.12,-576.08"/>
<polygon fill="red" stroke="red" points="1114.13,-579.45 1123.25,-574.06 1112.76,-572.58 1114.13,-579.45"/>
</g>
<!-- node12 -->
<g id="node22" class="node">
<title>node12</title>
<polygon fill="lightgreen" stroke="black" points="867.19,-548.54 867.19,-563.46 832.52,-574 783.48,-574 748.81,-563.46 748.81,-548.54 783.48,-538 832.52,-538 867.19,-548.54"/>
<text text-anchor="middle" x="808" y="-552.3" font-family="Times,serif" font-size="14.00">#12 int 0</text>
</g>
<!-- node7&#45;&gt;node12 -->
<g id="edge37" class="edge">
<title>node7&#45;&gt;node12</title>
<path fill="none" stroke="black" stroke-dasharray="1,5" d="M807.22,-619.64C807.35,-609.3 807.51,-595.94 807.66,-584.22"/>
<polygon fill="black" stroke="black" points="811.16,-584.09 807.79,-574.05 804.16,-584.01 811.16,-584.09"/>
</g>
<!-- node16 -->
<g id="node18" class="node">
<title>node16</title>
<polygon fill="lightgrey" stroke="transparent" points="1027.5,-583 938.5,-583 938.5,-529 1027.5,-529 1027.5,-583"/>
<polygon fill="none" stroke="black" points="939,-556 939,-583 1028,-583 1028,-556 939,-556"/>
<text text-anchor="start" x="960.5" y="-565.8" font-family="Times,serif" font-size="14.00">#16 If</text>
<polygon fill="yellow" stroke="transparent" points="939,-529 939,-556 985,-556 985,-529 939,-529"/>
<polygon fill="none" stroke="black" points="939,-529 939,-556 985,-556 985,-529 939,-529"/>
<text text-anchor="start" x="945" y="-538.8" font-family="Times,serif" font-size="14.00">false</text>
<polygon fill="yellow" stroke="transparent" points="985,-529 985,-556 1028,-556 1028,-529 985,-529"/>
<polygon fill="none" stroke="black" points="985,-529 985,-556 1028,-556 1028,-529 985,-529"/>
<text text-anchor="start" x="991" y="-538.8" font-family="Times,serif" font-size="14.00">true</text>
</g>
<!-- node11&#45;&gt;node16 -->
<g id="edge27" class="edge">
<title>node11&#45;&gt;node16</title>
<path fill="none" stroke="red" d="M1106.95,-556C1083.91,-556 1060.86,-556 1037.81,-556"/>
<polygon fill="red" stroke="red" points="1037.58,-552.5 1027.58,-556 1037.58,-559.5 1037.58,-552.5"/>
</g>
<!-- node14 -->
<g id="node21" class="node">
<title>node14</title>
<polygon fill="lightgreen" stroke="black" points="1293.35,-466.54 1293.35,-481.46 1255.07,-492 1200.93,-492 1162.65,-481.46 1162.65,-466.54 1200.93,-456 1255.07,-456 1293.35,-466.54"/>
<text text-anchor="middle" x="1228" y="-470.3" font-family="Times,serif" font-size="14.00">#14 int 10</text>
</g>
<!-- node11&#45;&gt;node14 -->
<g id="edge30" class="edge">
<title>node11&#45;&gt;node14</title>
<path fill="none" stroke="black" stroke-dasharray="1,5" d="M1213.12,-537.64C1215.6,-527.19 1218.82,-513.67 1221.62,-501.86"/>
<polygon fill="black" stroke="black" points="1225.05,-502.59 1223.95,-492.05 1218.23,-500.97 1225.05,-502.59"/>
</g>
<!-- node33 -->
<g id="node7" class="node">
<title>node33</title>
<polygon fill="lightgrey" stroke="black" points="1369.5,-656 1284.5,-656 1284.5,-620 1369.5,-620 1369.5,-656"/>
<text text-anchor="middle" x="1327" y="-634.3" font-family="Times,serif" font-size="14.00">#33 Goto</text>
</g>
<!-- node33&#45;&gt;node11 -->
<g id="edge7" class="edge">
<title>node33&#45;&gt;node11</title>
<path fill="none" stroke="red" stroke-dasharray="5,2" d="M1301.69,-619.84C1284.42,-608.13 1261.37,-592.5 1242.57,-579.76"/>
<polygon fill="red" stroke="red" points="1244.51,-576.85 1234.27,-574.13 1240.59,-582.64 1244.51,-576.85"/>
</g>
<!-- node32 -->
<g id="node8" class="node">
<title>node32</title>
<polygon fill="lightgrey" stroke="black" points="1246,-182 1070,-182 1070,-146 1246,-146 1246,-182"/>
<text text-anchor="middle" x="1158" y="-160.3" font-family="Times,serif" font-size="14.00">#32 Merge : Merge42</text>
</g>
<!-- node32&#45;&gt;node33 -->
<g id="edge8" class="edge">
<title>node32&#45;&gt;node33</title>
<path fill="none" stroke="red" d="M1246.39,-168.4C1337.08,-174.37 1465,-190.8 1465,-236 1465,-557 1465,-557 1465,-557 1465,-598.06 1418.72,-618.39 1379.76,-628.23"/>
<polygon fill="red" stroke="red" points="1378.47,-624.94 1369.53,-630.63 1380.07,-631.76 1378.47,-624.94"/>
</g>
<!-- node34 -->
<g id="node24" class="node">
<title>node34</title>
<polygon fill="lightgreen" stroke="black" points="1238.19,-83.54 1238.19,-98.46 1203.52,-109 1154.48,-109 1119.81,-98.46 1119.81,-83.54 1154.48,-73 1203.52,-73 1238.19,-83.54"/>
<text text-anchor="middle" x="1179" y="-87.3" font-family="Times,serif" font-size="14.00">#34 int 1</text>
</g>
<!-- node32&#45;&gt;node34 -->
<g id="edge36" class="edge">
<title>node32&#45;&gt;node34</title>
<path fill="none" stroke="black" stroke-dasharray="1,5" d="M1163.08,-145.81C1165.48,-137.7 1168.4,-127.84 1171.08,-118.78"/>
<polygon fill="black" stroke="black" points="1174.48,-119.61 1173.96,-109.03 1167.77,-117.63 1174.48,-119.61"/>
</g>
<!-- node31 -->
<g id="node9" class="node">
<title>node31</title>
<polygon fill="lightgrey" stroke="black" points="913.5,-255 828.5,-255 828.5,-219 913.5,-219 913.5,-255"/>
<text text-anchor="middle" x="871" y="-233.3" font-family="Times,serif" font-size="14.00">#31 Goto</text>
</g>
<!-- node31&#45;&gt;node32 -->
<g id="edge9" class="edge">
<title>node31&#45;&gt;node32</title>
<path fill="none" stroke="red" d="M913.66,-225.45C957.24,-214.66 1025.93,-197.67 1079.39,-184.45"/>
<polygon fill="red" stroke="red" points="1080.32,-187.82 1089.18,-182.02 1078.64,-181.03 1080.32,-187.82"/>
</g>
<!-- node30&#45;&gt;node32 -->
<g id="edge10" class="edge">
<title>node30&#45;&gt;node32</title>
<path fill="none" stroke="red" d="M1093.76,-218.81C1102.65,-209.74 1114.69,-198.48 1126,-188.6"/>
<polygon fill="red" stroke="red" points="1128.36,-191.19 1133.67,-182.03 1123.8,-185.88 1128.36,-191.19"/>
</g>
<!-- node30&#45;&gt;node32 -->
<g id="edge12" class="edge">
<title>node30&#45;&gt;node32</title>
<path fill="none" stroke="green" d="M1105.52,-218.81C1116.1,-209.92 1128.22,-198.91 1138.22,-189.17"/>
<polygon fill="green" stroke="green" points="1140.78,-191.57 1145.39,-182.03 1135.84,-186.6 1140.78,-191.57"/>
</g>
<!-- node28&#45;&gt;node32 -->
<g id="edge11" class="edge">
<title>node28&#45;&gt;node32</title>
<path fill="none" stroke="green" d="M674.55,-293.26C677.73,-292.81 680.89,-292.39 684,-292 860.43,-269.81 1364.86,-337.36 1479,-201 1493.86,-183.25 1356.07,-173.42 1256.33,-168.68"/>
<polygon fill="green" stroke="green" points="1256.35,-165.18 1246.19,-168.21 1256.02,-172.17 1256.35,-165.18"/>
</g>
<!-- node28&#45;&gt;node31 -->
<g id="edge54" class="edge">
<title>node28&#45;&gt;node31</title>
<path fill="none" stroke="red" d="M655.79,-291.99C705.75,-279.46 772.74,-262.65 818.63,-251.14"/>
<polygon fill="red" stroke="red" points="819.53,-254.52 828.37,-248.69 817.82,-247.73 819.53,-254.52"/>
</g>
<!-- node6&#45;&gt;node30 -->
<g id="edge15" class="edge">
<title>node6&#45;&gt;node30</title>
<path fill="none" stroke="black" d="M841.3,-692.99C876.02,-666.59 940.25,-618.15 952,-612 987.37,-593.5 1009.26,-611.7 1037,-583 1060.4,-558.79 1081,-471.67 1081,-438 1081,-438 1081,-438 1081,-309 1081,-294.65 1081,-278.67 1081,-265.51"/>
<polygon fill="black" stroke="black" points="1084.5,-265.22 1081,-255.22 1077.5,-265.22 1084.5,-265.22"/>
<text text-anchor="middle" x="1089.45" y="-269.64" font-family="Times,serif" font-size="14.00">*2</text>
</g>
<!-- node20&#45;&gt;node30 -->
<g id="edge16" class="edge">
<title>node20&#45;&gt;node30</title>
<path fill="none" stroke="green" d="M524.53,-465.66C685.91,-451.91 1018.83,-423.28 1044,-419 1206.27,-391.39 1301.91,-457.91 1403,-328 1418.01,-308.71 1419.32,-291.19 1403,-273 1388.06,-256.35 1267.3,-246.88 1178.03,-242.09"/>
<polygon fill="green" stroke="green" points="1178.02,-238.59 1167.86,-241.56 1177.66,-245.58 1178.02,-238.59"/>
</g>
<!-- node20&#45;&gt;node28 -->
<g id="edge48" class="edge">
<title>node20&#45;&gt;node28</title>
<path fill="none" stroke="green" d="M524.59,-464.82C585.25,-457.1 658.79,-443.01 678,-419 692.99,-400.26 689.82,-385.88 678,-365 670.34,-351.47 657.79,-340.96 644.46,-332.96"/>
<polygon fill="green" stroke="green" points="646.08,-329.86 635.63,-328.06 642.68,-335.98 646.08,-329.86"/>
</g>
<!-- node25 -->
<g id="node15" class="node">
<title>node25</title>
<polygon fill="lightgrey" stroke="transparent" points="668.5,-419 579.5,-419 579.5,-365 668.5,-365 668.5,-419"/>
<polygon fill="none" stroke="black" points="580,-392 580,-419 669,-419 669,-392 580,-392"/>
<text text-anchor="start" x="601.5" y="-401.8" font-family="Times,serif" font-size="14.00">#25 If</text>
<polygon fill="yellow" stroke="transparent" points="580,-365 580,-392 626,-392 626,-365 580,-365"/>
<polygon fill="none" stroke="black" points="580,-365 580,-392 626,-392 626,-365 580,-365"/>
<text text-anchor="start" x="586" y="-374.8" font-family="Times,serif" font-size="14.00">false</text>
<polygon fill="yellow" stroke="transparent" points="626,-365 626,-392 669,-392 669,-365 626,-365"/>
<polygon fill="none" stroke="black" points="626,-365 626,-392 669,-392 669,-365 626,-365"/>
<text text-anchor="start" x="632" y="-374.8" font-family="Times,serif" font-size="14.00">true</text>
</g>
<!-- node20&#45;&gt;node25 -->
<g id="edge20" class="edge">
<title>node20&#45;&gt;node25</title>
<path fill="none" stroke="red" d="M524.61,-463.86C547.16,-458.68 570.57,-450.59 590,-438 594.62,-435 598.85,-431.15 602.65,-426.97"/>
<polygon fill="red" stroke="red" points="605.38,-429.15 608.98,-419.18 599.95,-424.73 605.38,-429.15"/>
</g>
<!-- node23 -->
<g id="node29" class="node">
<title>node23</title>
<polygon fill="lightgreen" stroke="black" points="483.19,-384.54 483.19,-399.46 448.52,-410 399.48,-410 364.81,-399.46 364.81,-384.54 399.48,-374 448.52,-374 483.19,-384.54"/>
<text text-anchor="middle" x="424" y="-388.3" font-family="Times,serif" font-size="14.00">#23 int 0</text>
</g>
<!-- node20&#45;&gt;node23 -->
<g id="edge56" class="edge">
<title>node20&#45;&gt;node23</title>
<path fill="none" stroke="black" stroke-dasharray="1,5" d="M434.96,-455.64C433.15,-445.3 430.81,-431.94 428.76,-420.22"/>
<polygon fill="black" stroke="black" points="432.16,-419.3 426.98,-410.05 425.26,-420.5 432.16,-419.3"/>
</g>
<!-- node29 -->
<g id="node14" class="node">
<title>node29</title>
<polygon fill="lightgrey" stroke="black" points="821,-328 693,-328 693,-292 821,-292 821,-328"/>
<text text-anchor="middle" x="757" y="-306.3" font-family="Times,serif" font-size="14.00">#29 LabelNode</text>
</g>
<!-- node29&#45;&gt;node30 -->
<g id="edge17" class="edge">
<title>node29&#45;&gt;node30</title>
<path fill="none" stroke="red" d="M788.44,-291.94C802.35,-285.07 819.12,-277.68 835,-273 862.52,-264.88 927.85,-255.75 984.28,-248.85"/>
<polygon fill="red" stroke="red" points="984.83,-252.31 994.33,-247.63 983.98,-245.36 984.83,-252.31"/>
</g>
<!-- node25&#45;&gt;node28 -->
<g id="edge49" class="edge">
<title>node25:prj27&#45;&gt;node28</title>
<path fill="none" stroke="red" d="M603,-365C603,-355.91 601,-346.26 598.46,-337.67"/>
<polygon fill="red" stroke="red" points="601.79,-336.57 595.32,-328.17 595.14,-338.77 601.79,-336.57"/>
</g>
<!-- node25&#45;&gt;node29 -->
<g id="edge18" class="edge">
<title>node25:prj26&#45;&gt;node29</title>
<path fill="none" stroke="red" d="M670,-378C698.4,-378 723.2,-355.32 738.98,-336.35"/>
<polygon fill="red" stroke="red" points="741.92,-338.27 745.38,-328.25 736.43,-333.93 741.92,-338.27"/>
</g>
<!-- node24&#45;&gt;node25 -->
<g id="edge19" class="edge">
<title>node24&#45;&gt;node25</title>
<path fill="none" stroke="black" d="M269.14,-458.87C291.89,-455.27 316.35,-451.45 339,-448 426.92,-434.61 450.16,-438.23 537,-419 547.61,-416.65 558.81,-413.68 569.51,-410.6"/>
<polygon fill="black" stroke="black" points="570.57,-413.94 579.17,-407.75 568.59,-407.22 570.57,-413.94"/>
<text text-anchor="middle" x="564.18" y="-417.29" font-family="Times,serif" font-size="14.00">*0</text>
</g>
<!-- node19 -->
<g id="node17" class="node">
<title>node19</title>
<polygon fill="lightgreen" stroke="black" points="415.35,-548.54 415.35,-563.46 377.07,-574 322.93,-574 284.65,-563.46 284.65,-548.54 322.93,-538 377.07,-538 415.35,-548.54"/>
<text text-anchor="middle" x="350" y="-552.3" font-family="Times,serif" font-size="14.00">#19 int 10</text>
</g>
<!-- node19&#45;&gt;node20 -->
<g id="edge23" class="edge">
<title>node19&#45;&gt;node20</title>
<path fill="none" stroke="black" d="M369.09,-537.64C381.52,-526.35 397.89,-511.46 411.56,-499.04"/>
<polygon fill="black" stroke="black" points="414.2,-501.37 419.24,-492.05 409.49,-496.19 414.2,-501.37"/>
<text text-anchor="middle" x="411.52" y="-506.8" font-family="Times,serif" font-size="14.00">*2</text>
</g>
<!-- node16&#45;&gt;node20 -->
<g id="edge25" class="edge">
<title>node16:prj17&#45;&gt;node20</title>
<path fill="none" stroke="red" d="M938,-542C911.15,-542 905.47,-533.53 879,-529 761.13,-508.85 624.3,-493.3 534.69,-484.17"/>
<polygon fill="red" stroke="red" points="534.85,-480.67 524.55,-483.14 534.14,-487.63 534.85,-480.67"/>
</g>
<!-- node16&#45;&gt;node19 -->
<g id="edge55" class="edge">
<title>node16:prj17&#45;&gt;node19</title>
<path fill="none" stroke="black" stroke-dasharray="1,5" d="M938,-542C898.99,-542 906.75,-584.41 870,-597.5 828.24,-612.38 514.73,-604.79 471,-597.5 445.24,-593.21 417.61,-584.1 395.27,-575.51"/>
<polygon fill="black" stroke="black" points="396.31,-572.16 385.72,-571.75 393.74,-578.67 396.31,-572.16"/>
</g>
<!-- node21 -->
<g id="node25" class="node">
<title>node21</title>
<polygon fill="lightgrey" stroke="black" points="1053,-492 925,-492 925,-456 1053,-456 1053,-492"/>
<text text-anchor="middle" x="989" y="-470.3" font-family="Times,serif" font-size="14.00">#21 LabelNode</text>
</g>
<!-- node16&#45;&gt;node21 -->
<g id="edge38" class="edge">
<title>node16:prj18&#45;&gt;node21</title>
<path fill="none" stroke="red" d="M1007,-529C1007,-519.77 1004.6,-510.08 1001.56,-501.5"/>
<polygon fill="red" stroke="red" points="1004.74,-500.03 997.79,-492.03 998.23,-502.62 1004.74,-500.03"/>
</g>
<!-- node15 -->
<g id="node19" class="node">
<title>node15</title>
<polygon fill="orange" stroke="black" points="1266.82,-630.54 1266.82,-645.46 1177.3,-656 1050.7,-656 961.18,-645.46 961.18,-630.54 1050.7,-620 1177.3,-620 1266.82,-630.54"/>
<text text-anchor="middle" x="1114" y="-634.3" font-family="Times,serif" font-size="14.00">#15 NumericCondition : GE</text>
</g>
<!-- node15&#45;&gt;node16 -->
<g id="edge26" class="edge">
<title>node15&#45;&gt;node16</title>
<path fill="none" stroke="black" d="M1085.9,-619.84C1070.98,-610.73 1052.17,-599.24 1034.73,-588.59"/>
<polygon fill="black" stroke="black" points="1036.12,-585.34 1025.76,-583.11 1032.47,-591.31 1036.12,-585.34"/>
<text text-anchor="middle" x="1045.63" y="-581.65" font-family="Times,serif" font-size="14.00">*0</text>
</g>
<!-- node13&#45;&gt;node15 -->
<g id="edge28" class="edge">
<title>node13&#45;&gt;node15</title>
<path fill="none" stroke="black" d="M1091.26,-692.81C1094.73,-684.62 1098.95,-674.62 1102.81,-665.48"/>
<polygon fill="black" stroke="black" points="1106.14,-666.6 1106.8,-656.03 1099.69,-663.88 1106.14,-666.6"/>
<text text-anchor="middle" x="1107.54" y="-672.32" font-family="Times,serif" font-size="14.00">*0</text>
</g>
<!-- node35 -->
<g id="node23" class="node">
<title>node35</title>
<polygon fill="orange" stroke="black" points="1383.58,-10.54 1383.58,-25.46 1337.55,-36 1272.45,-36 1226.42,-25.46 1226.42,-10.54 1272.45,0 1337.55,0 1383.58,-10.54"/>
<text text-anchor="middle" x="1305" y="-14.3" font-family="Times,serif" font-size="14.00">#35 Add : int</text>
</g>
<!-- node13&#45;&gt;node35 -->
<g id="edge34" class="edge">
<title>node13&#45;&gt;node35</title>
<path fill="none" stroke="black" d="M1144.69,-706.78C1269,-699.38 1541,-678.64 1541,-639 1541,-639 1541,-639 1541,-90 1541,-57.19 1456.29,-38.21 1388.37,-28.26"/>
<polygon fill="black" stroke="black" points="1388.45,-24.74 1378.06,-26.8 1387.47,-31.67 1388.45,-24.74"/>
<text text-anchor="middle" x="1397.19" y="-17.28" font-family="Times,serif" font-size="14.00">*0</text>
</g>
<!-- node14&#45;&gt;node15 -->
<g id="edge29" class="edge">
<title>node14&#45;&gt;node15</title>
<path fill="none" stroke="black" d="M1268.96,-488.2C1288.05,-496.64 1308.96,-509.71 1320,-529 1331.93,-549.83 1334.66,-564 1320,-583 1306.77,-600.14 1262.52,-612.91 1218.4,-621.7"/>
<polygon fill="black" stroke="black" points="1217.56,-618.3 1208.41,-623.63 1218.89,-625.17 1217.56,-618.3"/>
<text text-anchor="middle" x="1224.6" y="-608.2" font-family="Times,serif" font-size="14.00">*1</text>
</g>
<!-- node12&#45;&gt;node13 -->
<g id="edge32" class="edge">
<title>node12&#45;&gt;node13</title>
<path fill="none" stroke="blue" d="M852.34,-568.07C875.37,-573.41 904.04,-579.42 930,-583 979.52,-589.84 1344.81,-575.53 1379,-612 1447.39,-684.94 1262.27,-703.64 1154.77,-708.4"/>
<polygon fill="blue" stroke="blue" points="1154.46,-704.91 1144.62,-708.81 1154.75,-711.9 1154.46,-704.91"/>
<text text-anchor="middle" x="1162.38" y="-695.92" font-family="Times,serif" font-size="14.00">if #7</text>
</g>
<!-- node35&#45;&gt;node13 -->
<g id="edge33" class="edge">
<title>node35&#45;&gt;node13</title>
<path fill="none" stroke="blue" stroke-dasharray="5,2" d="M1345.44,-34.26C1404.19,-58.91 1510.9,-113.62 1555,-200 1569.96,-229.29 1564.95,-242.65 1555,-274 1513.03,-406.22 1416.97,-396.78 1375,-529 1363.83,-564.2 1376.47,-575.15 1379,-612 1380.58,-635.06 1394.28,-646.66 1379,-664 1354.41,-691.89 1249.72,-679.13 1213,-685 1189.75,-688.72 1164.29,-693.5 1142.17,-697.89"/>
<polygon fill="blue" stroke="blue" points="1141.38,-694.48 1132.26,-699.87 1142.75,-701.34 1141.38,-694.48"/>
<text text-anchor="middle" x="1148.38" y="-684.33" font-family="Times,serif" font-size="14.00">if #33</text>
</g>
<!-- node34&#45;&gt;node35 -->
<g id="edge35" class="edge">
<title>node34&#45;&gt;node35</title>
<path fill="none" stroke="black" d="M1207.28,-74.07C1224.56,-64.32 1246.93,-51.72 1265.89,-41.04"/>
<polygon fill="black" stroke="black" points="1267.62,-44.08 1274.62,-36.12 1264.19,-37.98 1267.62,-44.08"/>
<text text-anchor="middle" x="1262.97" y="-48.68" font-family="Times,serif" font-size="14.00">*1</text>
</g>
<!-- node22 -->
<g id="node26" class="node">
<title>node22</title>
<polygon fill="lightgrey" stroke="black" points="1034.5,-410 861.5,-410 861.5,-374 1034.5,-374 1034.5,-410"/>
<text text-anchor="middle" x="948" y="-388.3" font-family="Times,serif" font-size="14.00">#22 ReturnValue : int</text>
</g>
<!-- node21&#45;&gt;node22 -->
<g id="edge40" class="edge">
<title>node21&#45;&gt;node22</title>
<path fill="none" stroke="red" d="M980.1,-455.64C974.64,-444.98 967.54,-431.12 961.4,-419.15"/>
<polygon fill="red" stroke="red" points="964.41,-417.35 956.74,-410.05 958.18,-420.55 964.41,-417.35"/>
</g>
<!-- node10&#45;&gt;node22 -->
<g id="edge39" class="edge">
<title>node10&#45;&gt;node22</title>
<path fill="none" stroke="black" d="M848.09,-455.84C864.45,-444.08 887.87,-428.36 907.97,-415.59"/>
<polygon fill="black" stroke="black" points="910.04,-418.42 916.65,-410.13 906.32,-412.49 910.04,-418.42"/>
<text text-anchor="middle" x="905.8" y="-423.24" font-family="Times,serif" font-size="14.00">*0</text>
</g>
<!-- node10&#45;&gt;node22 -->
<g id="edge41" class="edge">
<title>node10&#45;&gt;node22</title>
<path fill="none" stroke="green" d="M859.4,-455.84C878.05,-444.24 901.41,-428.78 919.52,-416.11"/>
<polygon fill="green" stroke="green" points="921.82,-418.77 927.95,-410.13 917.77,-413.06 921.82,-418.77"/>
</g>
<!-- node5&#45;&gt;node28 -->
<g id="edge47" class="edge">
<title>node5&#45;&gt;node28</title>
<path fill="none" stroke="black" d="M277.48,-709.74C174.96,-707.37 0,-695.11 0,-639 0,-639 0,-639 0,-391 0,-342.06 323.97,-321.7 490.96,-314.45"/>
<polygon fill="black" stroke="black" points="491.4,-317.93 501.24,-314.01 491.1,-310.94 491.4,-317.93"/>
<text text-anchor="middle" x="483.49" y="-319.53" font-family="Times,serif" font-size="14.00">*2</text>
</g>
<!-- node23&#45;&gt;node24 -->
<g id="edge58" class="edge">
<title>node23&#45;&gt;node24</title>
<path fill="none" stroke="black" d="M385.01,-405.84C346.57,-418.49 287.23,-438.03 242.44,-452.77"/>
<polygon fill="black" stroke="black" points="241.24,-449.48 232.83,-455.94 243.42,-456.13 241.24,-449.48"/>
<text text-anchor="middle" x="247.41" y="-438.54" font-family="Times,serif" font-size="14.00">*1</text>
</g>
<!-- c0 -->
<!-- c1 -->
<!-- c0&#45;&gt;c1 -->
<g id="edge59" class="edge">
<title>c0&#45;&gt;c1</title>
<path fill="none" stroke="red" d="M1896.89,-793C1908.11,-793 1966.24,-793 1991.86,-793"/>
<polygon fill="red" stroke="red" points="1992.06,-796.5 2002.06,-793 1992.06,-789.5 1992.06,-796.5"/>
<text text-anchor="middle" x="1949.5" y="-799.8" font-family="Times,serif" font-size="14.00">Control flow</text>
</g>
<!-- c2 -->
<!-- c3 -->
<!-- c2&#45;&gt;c3 -->
<g id="edge60" class="edge">
<title>c2&#45;&gt;c3</title>
<path fill="none" stroke="red" stroke-dasharray="5,2" d="M1690.08,-793C1707.05,-793 1823.21,-793 1861.08,-793"/>
<polygon fill="red" stroke="red" points="1861.17,-796.5 1871.17,-793 1861.17,-789.5 1861.17,-796.5"/>
<text text-anchor="middle" x="1780.5" y="-799.8" font-family="Times,serif" font-size="14.00">Control flow back edge</text>
</g>
<!-- d0 -->
<!-- d1 -->
<!-- d0&#45;&gt;d1 -->
<g id="edge61" class="edge">
<title>d0&#45;&gt;d1</title>
<path fill="none" stroke="black" d="M1578.86,-793C1588.41,-793 1632.31,-793 1653.92,-793"/>
<polygon fill="black" stroke="black" points="1654.15,-796.5 1664.15,-793 1654.15,-789.5 1654.15,-796.5"/>
<text text-anchor="middle" x="1621.5" y="-799.8" font-family="Times,serif" font-size="14.00">Data flow</text>
</g>
<!-- d2 -->
<!-- d3 -->
<!-- d2&#45;&gt;d3 -->
<g id="edge62" class="edge">
<title>d2&#45;&gt;d3</title>
<path fill="none" stroke="black" stroke-dasharray="1,5" d="M1452.81,-793C1463.46,-793 1518.46,-793 1543.08,-793"/>
<polygon fill="black" stroke="black" points="1543.15,-796.5 1553.15,-793 1543.15,-789.5 1543.15,-796.5"/>
<text text-anchor="middle" x="1503" y="-799.8" font-family="Times,serif" font-size="14.00">Declaration</text>
</g>
<!-- d4 -->
<!-- d5 -->
<!-- d4&#45;&gt;d5 -->
<g id="edge63" class="edge">
<title>d4&#45;&gt;d5</title>
<path fill="none" stroke="blue" d="M1310.1,-793C1322.72,-793 1388.88,-793 1416.68,-793"/>
<polygon fill="blue" stroke="blue" points="1416.84,-796.5 1426.84,-793 1416.84,-789.5 1416.84,-796.5"/>
<text text-anchor="middle" x="1368.5" y="-799.8" font-family="Times,serif" font-size="14.00">PHI Data flow</text>
</g>
<!-- d6 -->
<!-- d7 -->
<!-- d6&#45;&gt;d7 -->
<g id="edge64" class="edge">
<title>d6&#45;&gt;d7</title>
<path fill="none" stroke="green" d="M1173,-793C1184.94,-793 1247.3,-793 1273.93,-793"/>
<polygon fill="green" stroke="green" points="1273.95,-796.5 1283.95,-793 1273.95,-789.5 1273.95,-796.5"/>
<text text-anchor="middle" x="1228.5" y="-799.8" font-family="Times,serif" font-size="14.00">Memory flow</text>
</g>
</g>
</svg>
