<?xml version="1.0" encoding="UTF-8" standalone="no"?>
<!DOCTYPE svg PUBLIC "-//W3C//DTD SVG 1.1//EN"
 "http://www.w3.org/Graphics/SVG/1.1/DTD/svg11.dtd">
<!-- Generated by graphviz version 2.43.0 (0)
 -->
<!-- Title: debugoutput Pages: 1 -->
<svg width="2491pt" height="1454pt"
 viewBox="0.00 0.00 2490.69 1453.80" xmlns="http://www.w3.org/2000/svg" xmlns:xlink="http://www.w3.org/1999/xlink">
<g id="graph0" class="graph" transform="scale(1 1) rotate(0) translate(4 1449.8)">
<title>debugoutput</title>
<polygon fill="white" stroke="transparent" points="-4,4 -4,-1449.8 2486.69,-1449.8 2486.69,4 -4,4"/>
<g id="clust1" class="cluster">
<title>cluster_000</title>
<polygon fill="none" stroke="black" points="1498.69,-1395.2 1498.69,-1437.8 2474.69,-1437.8 2474.69,-1395.2 1498.69,-1395.2"/>
<text text-anchor="middle" x="1986.69" y="-1422.6" font-family="Times,serif" font-size="14.00">Legend</text>
</g>
<!-- node0 -->
<g id="node1" class="node">
<title>node0</title>
<polygon fill="lightgrey" stroke="black" points="1488.69,-1423 1322.69,-1423 1322.69,-1387 1488.69,-1387 1488.69,-1423"/>
<text text-anchor="middle" x="1405.69" y="-1401.3" font-family="Times,serif" font-size="14.00">#0 Method Order : 0</text>
</g>
<!-- node1 -->
<g id="node2" class="node">
<title>node1</title>
<polygon fill="lightgrey" stroke="black" points="1218.69,-1350 1032.69,-1350 1032.69,-1314 1218.69,-1314 1218.69,-1350"/>
<text text-anchor="middle" x="1125.69" y="-1328.3" font-family="Times,serif" font-size="14.00">#1 arg1 : int Order : 11</text>
</g>
<!-- node0&#45;&gt;node1 -->
<g id="edge2" class="edge">
<title>node0&#45;&gt;node1</title>
<path fill="none" stroke="black" d="M1322.37,-1390.95C1291.11,-1385.07 1255.51,-1377.53 1223.69,-1369 1207.08,-1364.54 1189.27,-1358.91 1173.42,-1353.43"/>
<polygon fill="black" stroke="black" points="1174.42,-1350.07 1163.82,-1350.05 1172.09,-1356.67 1174.42,-1350.07"/>
<text text-anchor="middle" x="1183.73" y="-1344.4" font-family="Times,serif" font-size="14.00">*0</text>
</g>
<!-- node2 -->
<g id="node3" class="node">
<title>node2</title>
<polygon fill="lightgrey" stroke="black" points="1498.69,-1350 1312.69,-1350 1312.69,-1314 1498.69,-1314 1498.69,-1350"/>
<text text-anchor="middle" x="1405.69" y="-1328.3" font-family="Times,serif" font-size="14.00">#2 arg0 : int Order : 10</text>
</g>
<!-- node0&#45;&gt;node2 -->
<g id="edge4" class="edge">
<title>node0&#45;&gt;node2</title>
<path fill="none" stroke="black" d="M1399.81,-1386.81C1398.98,-1378.79 1398.74,-1369.05 1399.11,-1360.07"/>
<polygon fill="black" stroke="black" points="1402.61,-1360.25 1399.83,-1350.03 1395.63,-1359.75 1402.61,-1360.25"/>
<text text-anchor="middle" x="1406.97" y="-1365.01" font-family="Times,serif" font-size="14.00">*0</text>
</g>
<!-- node3 -->
<g id="node4" class="node">
<title>node3</title>
<polygon fill="lightgrey" stroke="black" points="1015.19,-1350 838.19,-1350 838.19,-1314 1015.19,-1314 1015.19,-1350"/>
<text text-anchor="middle" x="926.69" y="-1328.3" font-family="Times,serif" font-size="14.00">#3 arg2 : int Order : 8</text>
</g>
<!-- node0&#45;&gt;node3 -->
<g id="edge6" class="edge">
<title>node0&#45;&gt;node3</title>
<path fill="none" stroke="black" d="M1322.68,-1393.98C1245.85,-1383.99 1128.4,-1367.83 1024.97,-1351.62"/>
<polygon fill="black" stroke="black" points="1025.43,-1348.15 1015,-1350.05 1024.34,-1355.06 1025.43,-1348.15"/>
<text text-anchor="middle" x="1034.22" y="-1340.82" font-family="Times,serif" font-size="14.00">*0</text>
</g>
<!-- node4 -->
<g id="node5" class="node">
<title>node4</title>
<polygon fill="lightgrey" stroke="black" points="584.69,-1350 396.69,-1350 396.69,-1314 584.69,-1314 584.69,-1350"/>
<text text-anchor="middle" x="490.69" y="-1328.3" font-family="Times,serif" font-size="14.00">#4 LabelNode Order : 1</text>
</g>
<!-- node0&#45;&gt;node4 -->
<g id="edge8" class="edge">
<title>node0&#45;&gt;node4</title>
<path fill="none" stroke="red" d="M1322.55,-1403.15C1144.88,-1400.87 733.63,-1393.01 596.69,-1369 576.69,-1365.49 555.33,-1359.47 537,-1353.35"/>
<polygon fill="red" stroke="red" points="538.03,-1350 527.44,-1350.05 535.75,-1356.62 538.03,-1350"/>
</g>
<!-- node9 -->
<g id="node10" class="node">
<title>node9</title>
<polygon fill="orange" stroke="black" points="319.58,-1178.54 319.58,-1193.46 225.92,-1204 93.47,-1204 -0.19,-1193.46 -0.19,-1178.54 93.47,-1168 225.92,-1168 319.58,-1178.54"/>
<text text-anchor="middle" x="159.69" y="-1182.3" font-family="Times,serif" font-size="14.00">#9 NewArray : int[] Order : 3</text>
</g>
<!-- node0&#45;&gt;node9 -->
<g id="edge21" class="edge">
<title>node0&#45;&gt;node9</title>
<path fill="none" stroke="green" d="M1322.44,-1402.72C1111.06,-1398.92 558.04,-1385.63 378.69,-1350 271.84,-1328.77 209.25,-1364.76 144.69,-1277 131.36,-1258.87 134.89,-1232.73 142.14,-1213.29"/>
<polygon fill="green" stroke="green" points="145.36,-1214.65 146.07,-1204.08 138.93,-1211.9 145.36,-1214.65"/>
</g>
<!-- node13 -->
<g id="node15" class="node">
<title>node13</title>
<polygon fill="orange" stroke="black" points="1974.94,-1324.54 1974.94,-1339.46 1907.43,-1350 1811.96,-1350 1744.45,-1339.46 1744.45,-1324.54 1811.96,-1314 1907.43,-1314 1974.94,-1324.54"/>
<text text-anchor="middle" x="1859.69" y="-1328.3" font-family="Times,serif" font-size="14.00">#13 Φ int Order : 19</text>
</g>
<!-- node0&#45;&gt;node13 -->
<g id="edge32" class="edge">
<title>node0&#45;&gt;node13</title>
<path fill="none" stroke="black" stroke-dasharray="1,5" d="M1486,-1386.96C1590.02,-1373.14 1618.19,-1387.21 1721.69,-1369 1745.43,-1364.82 1771.1,-1358.13 1793.83,-1351.64"/>
<polygon fill="black" stroke="black" points="1795.08,-1354.92 1803.72,-1348.78 1793.14,-1348.19 1795.08,-1354.92"/>
</g>
<!-- node1&#45;&gt;node0 -->
<g id="edge1" class="edge">
<title>node1&#45;&gt;node0</title>
<path fill="none" stroke="fuchsia" stroke-width="2" d="M1180.54,-1350.05C1199.83,-1356.52 1221.63,-1363.62 1241.69,-1369 1264.61,-1375.15 1289.49,-1380.78 1312.81,-1385.64"/>
<polygon fill="fuchsia" stroke="fuchsia" stroke-width="2" points="1312.19,-1389.09 1322.69,-1387.68 1313.6,-1382.23 1312.19,-1389.09"/>
</g>
<!-- node5 -->
<g id="node6" class="node">
<title>node5</title>
<polygon fill="orange" stroke="black" points="1053.86,-1251.54 1053.86,-1266.46 979.37,-1277 874.02,-1277 799.53,-1266.46 799.53,-1251.54 874.02,-1241 979.37,-1241 1053.86,-1251.54"/>
<text text-anchor="middle" x="926.69" y="-1255.3" font-family="Times,serif" font-size="14.00">#5 Add : int Order : 13</text>
</g>
<!-- node1&#45;&gt;node5 -->
<g id="edge10" class="edge">
<title>node1&#45;&gt;node5</title>
<path fill="none" stroke="black" d="M1078.03,-1313.99C1049.81,-1303.92 1013.87,-1291.1 984.09,-1280.48"/>
<polygon fill="black" stroke="black" points="985.25,-1277.18 974.66,-1277.11 982.9,-1283.77 985.25,-1277.18"/>
<text text-anchor="middle" x="994.57" y="-1271.54" font-family="Times,serif" font-size="14.00">*0</text>
</g>
<!-- node6 -->
<g id="node7" class="node">
<title>node6</title>
<polygon fill="orange" stroke="black" points="1363.86,-1251.54 1363.86,-1266.46 1289.37,-1277 1184.02,-1277 1109.53,-1266.46 1109.53,-1251.54 1184.02,-1241 1289.37,-1241 1363.86,-1251.54"/>
<text text-anchor="middle" x="1236.69" y="-1255.3" font-family="Times,serif" font-size="14.00">#6 Sub : int Order : 12</text>
</g>
<!-- node1&#45;&gt;node6 -->
<g id="edge13" class="edge">
<title>node1&#45;&gt;node6</title>
<path fill="none" stroke="black" d="M1152.28,-1313.99C1167,-1304.58 1185.48,-1292.76 1201.4,-1282.57"/>
<polygon fill="black" stroke="black" points="1203.4,-1285.45 1209.94,-1277.11 1199.63,-1279.55 1203.4,-1285.45"/>
<text text-anchor="middle" x="1199.22" y="-1290.3" font-family="Times,serif" font-size="14.00">*0</text>
</g>
<!-- node22 -->
<g id="node25" class="node">
<title>node22</title>
<polygon fill="lightgrey" stroke="black" points="1207.19,-1131 956.19,-1131 956.19,-1095 1207.19,-1095 1207.19,-1131"/>
<text text-anchor="middle" x="1081.69" y="-1109.3" font-family="Times,serif" font-size="14.00">#22 ArrayStore : int[] Order : 24</text>
</g>
<!-- node1&#45;&gt;node22 -->
<g id="edge57" class="edge">
<title>node1&#45;&gt;node22</title>
<path fill="none" stroke="black" d="M1115.88,-1313.55C1110.53,-1303.23 1104.28,-1289.73 1100.69,-1277 1087.56,-1230.44 1083.49,-1173.93 1082.24,-1141.16"/>
<polygon fill="black" stroke="black" points="1085.73,-1140.88 1081.91,-1131 1078.74,-1141.11 1085.73,-1140.88"/>
<text text-anchor="middle" x="1090.94" y="-1145.15" font-family="Times,serif" font-size="14.00">*1</text>
</g>
<!-- node2&#45;&gt;node0 -->
<g id="edge3" class="edge">
<title>node2&#45;&gt;node0</title>
<path fill="none" stroke="fuchsia" stroke-width="2" d="M1411.55,-1350.03C1412.4,-1358.03 1412.64,-1367.77 1412.28,-1376.75"/>
<polygon fill="fuchsia" stroke="fuchsia" stroke-width="2" points="1408.78,-1376.59 1411.57,-1386.81 1415.76,-1377.08 1408.78,-1376.59"/>
</g>
<!-- node24 -->
<g id="node27" class="node">
<title>node24</title>
<polygon fill="orange" stroke="black" points="1536.25,-959.54 1536.25,-974.46 1414.67,-985 1242.72,-985 1121.13,-974.46 1121.13,-959.54 1242.72,-949 1414.67,-949 1536.25,-959.54"/>
<text text-anchor="middle" x="1328.69" y="-963.3" font-family="Times,serif" font-size="14.00">#24 NumericCondition : EQ Order : 26</text>
</g>
<!-- node2&#45;&gt;node24 -->
<g id="edge64" class="edge">
<title>node2&#45;&gt;node24</title>
<path fill="none" stroke="black" d="M1415.04,-1313.75C1421.78,-1299.7 1429.69,-1279.13 1429.69,-1260 1429.69,-1260 1429.69,-1260 1429.69,-1039 1429.69,-1016.6 1412.85,-1000.65 1392.93,-989.62"/>
<polygon fill="black" stroke="black" points="1394.42,-986.46 1383.92,-985.05 1391.25,-992.7 1394.42,-986.46"/>
<text text-anchor="middle" x="1403.91" y="-982.02" font-family="Times,serif" font-size="14.00">*0</text>
</g>
<!-- node3&#45;&gt;node0 -->
<g id="edge5" class="edge">
<title>node3&#45;&gt;node0</title>
<path fill="none" stroke="fuchsia" stroke-width="2" d="M1015.3,-1347.17C1021.2,-1348.15 1027.04,-1349.1 1032.69,-1350 1127.98,-1365.08 1236.97,-1380.29 1312.47,-1390.7"/>
<polygon fill="fuchsia" stroke="fuchsia" stroke-width="2" points="1312.05,-1394.18 1322.43,-1392.07 1313.01,-1387.24 1312.05,-1394.18"/>
</g>
<!-- node3&#45;&gt;node5 -->
<g id="edge11" class="edge">
<title>node3&#45;&gt;node5</title>
<path fill="none" stroke="black" d="M926.69,-1313.81C926.69,-1305.79 926.69,-1296.05 926.69,-1287.07"/>
<polygon fill="black" stroke="black" points="930.19,-1287.03 926.69,-1277.03 923.19,-1287.03 930.19,-1287.03"/>
<text text-anchor="middle" x="935.15" y="-1291.45" font-family="Times,serif" font-size="14.00">*1</text>
</g>
<!-- node3&#45;&gt;node6 -->
<g id="edge14" class="edge">
<title>node3&#45;&gt;node6</title>
<path fill="none" stroke="black" d="M1000.95,-1313.99C1049.29,-1302.92 1112.18,-1288.52 1160.84,-1277.37"/>
<polygon fill="black" stroke="black" points="1161.72,-1280.76 1170.69,-1275.12 1160.16,-1273.94 1161.72,-1280.76"/>
<text text-anchor="middle" x="1154.91" y="-1283.7" font-family="Times,serif" font-size="14.00">*1</text>
</g>
<!-- node10 -->
<g id="node11" class="node">
<title>node10</title>
<polygon fill="lightgrey" stroke="black" points="629.19,-1131 402.19,-1131 402.19,-1095 629.19,-1095 629.19,-1131"/>
<text text-anchor="middle" x="515.69" y="-1109.3" font-family="Times,serif" font-size="14.00">#10 ArrayLoad : int Order : 9</text>
</g>
<!-- node3&#45;&gt;node10 -->
<g id="edge24" class="edge">
<title>node3&#45;&gt;node10</title>
<path fill="none" stroke="black" d="M838.12,-1325.95C810.52,-1321.03 781.19,-1312.07 757.69,-1296 725.33,-1273.87 734.66,-1252.22 709.69,-1222 679.86,-1185.89 674.18,-1172.55 633.69,-1149 623.98,-1143.35 613.27,-1138.54 602.4,-1134.47"/>
<polygon fill="black" stroke="black" points="603.41,-1131.12 592.82,-1131.08 601.08,-1137.72 603.41,-1131.12"/>
<text text-anchor="middle" x="612.72" y="-1125.46" font-family="Times,serif" font-size="14.00">*1</text>
</g>
<!-- node28 -->
<g id="node31" class="node">
<title>node28</title>
<polygon fill="lightgrey" stroke="black" points="967.19,-766 716.19,-766 716.19,-730 967.19,-730 967.19,-766"/>
<text text-anchor="middle" x="841.69" y="-744.3" font-family="Times,serif" font-size="14.00">#28 ArrayStore : int[] Order : 14</text>
</g>
<!-- node3&#45;&gt;node28 -->
<g id="edge75" class="edge">
<title>node3&#45;&gt;node28</title>
<path fill="none" stroke="black" d="M837.88,-1321.21C803.24,-1311.98 771.69,-1294.19 771.69,-1260 771.69,-1260 771.69,-1260 771.69,-820 771.69,-800.25 785.6,-784 801.02,-772.05"/>
<polygon fill="black" stroke="black" points="803.08,-774.88 809.15,-766.2 798.99,-769.2 803.08,-774.88"/>
<text text-anchor="middle" x="799.37" y="-779.95" font-family="Times,serif" font-size="14.00">*1</text>
</g>
<!-- node30 -->
<g id="node33" class="node">
<title>node30</title>
<polygon fill="lightgrey" stroke="black" points="1351.19,-693 1100.19,-693 1100.19,-657 1351.19,-657 1351.19,-693"/>
<text text-anchor="middle" x="1225.69" y="-671.3" font-family="Times,serif" font-size="14.00">#30 ArrayStore : int[] Order : 31</text>
</g>
<!-- node3&#45;&gt;node30 -->
<g id="edge83" class="edge">
<title>node3&#45;&gt;node30</title>
<path fill="none" stroke="black" d="M838.04,-1320.33C772.9,-1309.93 695.69,-1291.05 695.69,-1260 695.69,-1260 695.69,-1260 695.69,-930 695.69,-840.98 645.3,-794.46 706.69,-730 719.85,-716.18 940.54,-697.16 1089.86,-685.77"/>
<polygon fill="black" stroke="black" points="1090.33,-689.24 1100.04,-685 1089.8,-682.26 1090.33,-689.24"/>
<text text-anchor="middle" x="1082.61" y="-691.1" font-family="Times,serif" font-size="14.00">*1</text>
</g>
<!-- node4&#45;&gt;node0 -->
<g id="edge7" class="edge">
<title>node4&#45;&gt;node0</title>
<path fill="none" stroke="fuchsia" stroke-width="2" d="M543.83,-1350.05C565.6,-1357.23 591.1,-1364.86 614.69,-1369 746.58,-1392.12 1132.97,-1400.26 1312.33,-1402.88"/>
<polygon fill="fuchsia" stroke="fuchsia" stroke-width="2" points="1312.48,-1406.38 1322.53,-1403.02 1312.58,-1399.38 1312.48,-1406.38"/>
</g>
<!-- node7 -->
<g id="node8" class="node">
<title>node7</title>
<polygon fill="lightgrey" stroke="black" points="584.69,-1277 396.69,-1277 396.69,-1241 584.69,-1241 584.69,-1277"/>
<text text-anchor="middle" x="490.69" y="-1255.3" font-family="Times,serif" font-size="14.00">#7 LabelNode Order : 4</text>
</g>
<!-- node4&#45;&gt;node7 -->
<g id="edge16" class="edge">
<title>node4&#45;&gt;node7</title>
<path fill="none" stroke="red" d="M484.81,-1313.81C483.98,-1305.79 483.74,-1296.05 484.11,-1287.07"/>
<polygon fill="red" stroke="red" points="487.61,-1287.25 484.83,-1277.03 480.63,-1286.75 487.61,-1287.25"/>
</g>
<!-- node8 -->
<g id="node9" class="node">
<title>node8</title>
<polygon fill="lightgreen" stroke="black" points="378.46,-1251.54 378.46,-1266.46 315.33,-1277 226.05,-1277 162.92,-1266.46 162.92,-1251.54 226.05,-1241 315.33,-1241 378.46,-1251.54"/>
<text text-anchor="middle" x="270.69" y="-1255.3" font-family="Times,serif" font-size="14.00">#8 int 10 Order : 2</text>
</g>
<!-- node4&#45;&gt;node8 -->
<g id="edge18" class="edge">
<title>node4&#45;&gt;node8</title>
<path fill="none" stroke="black" stroke-dasharray="1,5" d="M432.14,-1313.99C399.49,-1303.81 359.09,-1290.8 326.84,-1280.11"/>
<polygon fill="black" stroke="black" points="327.71,-1276.71 317.11,-1276.87 325.5,-1283.35 327.71,-1276.71"/>
</g>
<!-- node5&#45;&gt;node0 -->
<g id="edge9" class="edge">
<title>node5&#45;&gt;node0</title>
<path fill="none" stroke="fuchsia" stroke-width="2" d="M1027.27,-1270.26C1101.26,-1279.24 1194.5,-1293.99 1227.69,-1314 1254.27,-1330.02 1244.75,-1351.98 1270.69,-1369 1283.4,-1377.33 1297.99,-1383.68 1312.77,-1388.52"/>
<polygon fill="fuchsia" stroke="fuchsia" stroke-width="2" points="1311.91,-1391.92 1322.5,-1391.49 1313.96,-1385.22 1311.91,-1391.92"/>
</g>
<!-- node5&#45;&gt;node28 -->
<g id="edge76" class="edge">
<title>node5&#45;&gt;node28</title>
<path fill="none" stroke="black" d="M909.61,-1240.96C897.98,-1227.51 884.69,-1207.62 884.69,-1187 884.69,-1187 884.69,-1187 884.69,-820 884.69,-803.1 875.66,-786.78 865.88,-774.05"/>
<polygon fill="black" stroke="black" points="868.5,-771.72 859.43,-766.24 863.1,-776.18 868.5,-771.72"/>
<text text-anchor="middle" x="877.49" y="-771.14" font-family="Times,serif" font-size="14.00">*2</text>
</g>
<!-- node6&#45;&gt;node0 -->
<g id="edge12" class="edge">
<title>node6&#45;&gt;node0</title>
<path fill="none" stroke="fuchsia" stroke-width="2" d="M1327.03,-1271.74C1429.39,-1287.28 1586.04,-1318.61 1616.69,-1368 1629.92,-1389.31 1539.64,-1383.71 1499.05,-1386.83"/>
<polygon fill="fuchsia" stroke="fuchsia" stroke-width="2" points="1498.59,-1383.36 1489.05,-1387.97 1499.38,-1390.31 1498.59,-1383.36"/>
</g>
<!-- node6&#45;&gt;node30 -->
<g id="edge84" class="edge">
<title>node6&#45;&gt;node30</title>
<path fill="none" stroke="black" d="M1292.17,-1241.23C1316.09,-1230.25 1338.69,-1213 1338.69,-1187 1338.69,-1187 1338.69,-1187 1338.69,-1076 1338.69,-1050.56 1339.08,-1038.47 1319.69,-1022 1248.14,-961.21 1171.99,-1056.97 1111.69,-985 1093.3,-963.05 1028.43,-886.37 1128.69,-730 1137.52,-716.23 1151.16,-705.65 1165.45,-697.67"/>
<polygon fill="black" stroke="black" points="1167.13,-700.74 1174.39,-693.02 1163.9,-694.52 1167.13,-700.74"/>
<text text-anchor="middle" x="1162.2" y="-705.18" font-family="Times,serif" font-size="14.00">*2</text>
</g>
<!-- node7&#45;&gt;node4 -->
<g id="edge15" class="edge">
<title>node7&#45;&gt;node4</title>
<path fill="none" stroke="fuchsia" stroke-width="2" d="M496.55,-1277.03C497.4,-1285.03 497.64,-1294.77 497.28,-1303.75"/>
<polygon fill="fuchsia" stroke="fuchsia" stroke-width="2" points="493.78,-1303.59 496.57,-1313.81 500.76,-1304.08 493.78,-1303.59"/>
</g>
<!-- node11 -->
<g id="node12" class="node">
<title>node11</title>
<polygon fill="lightgrey" stroke="black" points="952.19,-474 679.19,-474 679.19,-438 952.19,-438 952.19,-474"/>
<text text-anchor="middle" x="815.69" y="-452.3" font-family="Times,serif" font-size="14.00">#11 LoopHeader : Loop14 Order : 6</text>
</g>
<!-- node7&#45;&gt;node11 -->
<g id="edge27" class="edge">
<title>node7&#45;&gt;node11</title>
<path fill="none" stroke="red" d="M396.51,-1242.07C369.73,-1231.78 347.69,-1214.86 347.69,-1187 347.69,-1187 347.69,-1187 347.69,-528 347.69,-495.03 531.61,-475.49 668.86,-465.51"/>
<polygon fill="red" stroke="red" points="669.35,-468.98 679.07,-464.77 668.85,-462 669.35,-468.98"/>
</g>
<!-- node12 -->
<g id="node14" class="node">
<title>node12</title>
<polygon fill="lightgreen" stroke="black" points="591.46,-1178.54 591.46,-1193.46 528.33,-1204 439.05,-1204 375.92,-1193.46 375.92,-1178.54 439.05,-1168 528.33,-1168 591.46,-1178.54"/>
<text text-anchor="middle" x="483.69" y="-1182.3" font-family="Times,serif" font-size="14.00">#12 int 0 Order : 5</text>
</g>
<!-- node7&#45;&gt;node12 -->
<g id="edge30" class="edge">
<title>node7&#45;&gt;node12</title>
<path fill="none" stroke="black" stroke-dasharray="1,5" d="M483.12,-1240.81C481.49,-1232.79 480.3,-1223.05 479.78,-1214.07"/>
<polygon fill="black" stroke="black" points="483.28,-1213.93 479.51,-1204.03 476.28,-1214.12 483.28,-1213.93"/>
</g>
<!-- node8&#45;&gt;node4 -->
<g id="edge17" class="edge">
<title>node8&#45;&gt;node4</title>
<path fill="none" stroke="fuchsia" stroke-width="2" d="M324.52,-1275.53C357.79,-1285.88 400.37,-1299.57 434.13,-1310.76"/>
<polygon fill="fuchsia" stroke="fuchsia" stroke-width="2" points="433.26,-1314.16 443.86,-1313.99 435.47,-1307.52 433.26,-1314.16"/>
</g>
<!-- node8&#45;&gt;node9 -->
<g id="edge20" class="edge">
<title>node8&#45;&gt;node9</title>
<path fill="none" stroke="black" d="M244.11,-1240.99C229.39,-1231.58 210.9,-1219.76 194.99,-1209.57"/>
<polygon fill="black" stroke="black" points="196.76,-1206.55 186.45,-1204.11 192.99,-1212.45 196.76,-1206.55"/>
<text text-anchor="middle" x="206.27" y="-1203.06" font-family="Times,serif" font-size="14.00">*0</text>
</g>
<!-- node9&#45;&gt;node0 -->
<g id="edge19" class="edge">
<title>node9&#45;&gt;node0</title>
<path fill="none" stroke="fuchsia" stroke-width="2" d="M158.98,-1204.08C154.56,-1223.67 147.1,-1255.81 162.69,-1277 227.25,-1364.76 289.84,-1328.77 396.69,-1350 570.78,-1384.58 1096.95,-1398.12 1312.33,-1402.37"/>
<polygon fill="fuchsia" stroke="fuchsia" stroke-width="2" points="1312.28,-1405.86 1322.35,-1402.56 1312.42,-1398.87 1312.28,-1405.86"/>
</g>
<!-- node9&#45;&gt;node10 -->
<g id="edge23" class="edge">
<title>node9&#45;&gt;node10</title>
<path fill="none" stroke="black" d="M206.87,-1167.94C228.85,-1161.4 255.37,-1154.25 279.69,-1149 315.77,-1141.21 355.43,-1134.48 391.79,-1129.06"/>
<polygon fill="black" stroke="black" points="392.57,-1132.49 401.95,-1127.57 391.55,-1125.56 392.57,-1132.49"/>
<text text-anchor="middle" x="385.25" y="-1134.87" font-family="Times,serif" font-size="14.00">*0</text>
</g>
<!-- node9&#45;&gt;node10 -->
<g id="edge25" class="edge">
<title>node9&#45;&gt;node10</title>
<path fill="none" stroke="green" d="M223.55,-1167.94C246.85,-1161.4 273.37,-1154.25 297.69,-1149 328.12,-1142.43 361.09,-1136.62 391.98,-1131.71"/>
<polygon fill="green" stroke="green" points="392.59,-1135.15 401.92,-1130.14 391.5,-1128.24 392.59,-1135.15"/>
</g>
<!-- node9&#45;&gt;node22 -->
<g id="edge56" class="edge">
<title>node9&#45;&gt;node22</title>
<path fill="none" stroke="black" d="M281.16,-1174.17C306.42,-1172.09 332.89,-1169.96 357.69,-1168 562.36,-1151.87 800.05,-1134.11 945.7,-1123.52"/>
<polygon fill="black" stroke="black" points="946.3,-1126.98 956.02,-1122.77 945.79,-1120 946.3,-1126.98"/>
<text text-anchor="middle" x="938.56" y="-1128.81" font-family="Times,serif" font-size="14.00">*0</text>
</g>
<!-- node9&#45;&gt;node22 -->
<g id="edge59" class="edge">
<title>node9&#45;&gt;node22</title>
<path fill="none" stroke="green" d="M288.56,-1175C317.29,-1172.67 347.56,-1170.22 375.69,-1168 574.14,-1152.36 803.66,-1135.19 945.8,-1124.5"/>
<polygon fill="green" stroke="green" points="946.17,-1127.98 955.88,-1123.74 945.65,-1121 946.17,-1127.98"/>
</g>
<!-- node9&#45;&gt;node28 -->
<g id="edge74" class="edge">
<title>node9&#45;&gt;node28</title>
<path fill="none" stroke="black" d="M181.32,-1167.84C195.22,-1154.76 210.69,-1135.4 210.69,-1114 210.69,-1114 210.69,-1114 210.69,-820 210.69,-770.58 520.32,-755.56 705.79,-750.99"/>
<polygon fill="black" stroke="black" points="705.98,-754.49 715.9,-750.75 705.81,-747.49 705.98,-754.49"/>
<text text-anchor="middle" x="697.98" y="-755.93" font-family="Times,serif" font-size="14.00">*0</text>
</g>
<!-- node9&#45;&gt;node30 -->
<g id="edge82" class="edge">
<title>node9&#45;&gt;node30</title>
<path fill="none" stroke="black" d="M160.83,-1167.79C161.68,-1153.42 162.69,-1132.38 162.69,-1114 162.69,-1114 162.69,-1114 162.69,-747 162.69,-741.26 803.53,-701.63 1090.06,-684.2"/>
<polygon fill="black" stroke="black" points="1090.33,-687.69 1100.1,-683.59 1089.91,-680.7 1090.33,-687.69"/>
<text text-anchor="middle" x="1082.52" y="-689.42" font-family="Times,serif" font-size="14.00">*0</text>
</g>
<!-- node10&#45;&gt;node0 -->
<g id="edge22" class="edge">
<title>node10&#45;&gt;node0</title>
<path fill="none" stroke="fuchsia" stroke-width="2" d="M573.47,-1131.02C597.41,-1141.96 619.69,-1159.09 619.69,-1185 619.69,-1333 619.69,-1333 619.69,-1333 619.69,-1352.23 626.95,-1359.54 643.69,-1369 700.54,-1401.12 1122.05,-1404.52 1312.62,-1404.39"/>
<polygon fill="fuchsia" stroke="fuchsia" stroke-width="2" points="1312.62,-1407.89 1322.62,-1404.38 1312.62,-1400.89 1312.62,-1407.89"/>
</g>
<!-- node20 -->
<g id="node23" class="node">
<title>node20</title>
<polygon fill="lightgrey" stroke="black" points="1328.19,-36 1077.19,-36 1077.19,0 1328.19,0 1328.19,-36"/>
<text text-anchor="middle" x="1202.69" y="-14.3" font-family="Times,serif" font-size="14.00">#20 ReturnValue : int Order : 34</text>
</g>
<!-- node10&#45;&gt;node20 -->
<g id="edge50" class="edge">
<title>node10&#45;&gt;node20</title>
<path fill="none" stroke="black" d="M514.96,-1094.77C518.01,-1080.56 523.69,-1059.76 523.69,-1041 523.69,-1041 523.69,-1041 523.69,-90 523.69,-36.29 868.62,-23.1 1066.82,-19.94"/>
<polygon fill="black" stroke="black" points="1067.08,-23.43 1077.02,-19.78 1066.97,-16.43 1067.08,-23.43"/>
<text text-anchor="middle" x="1059.03" y="-24.81" font-family="Times,serif" font-size="14.00">*0</text>
</g>
<!-- node10&#45;&gt;node20 -->
<g id="edge52" class="edge">
<title>node10&#45;&gt;node20</title>
<path fill="none" stroke="green" d="M529.48,-1094.77C536.01,-1080.56 541.69,-1059.76 541.69,-1041 541.69,-1041 541.69,-1041 541.69,-90 541.69,-37.35 873.04,-23.64 1066.57,-20.14"/>
<polygon fill="green" stroke="green" points="1066.88,-23.63 1076.82,-19.96 1066.76,-16.63 1066.88,-23.63"/>
</g>
<!-- node11&#45;&gt;node0 -->
<g id="edge26" class="edge">
<title>node11&#45;&gt;node0</title>
<path fill="none" stroke="fuchsia" stroke-width="2" d="M692.44,-474.05C667.99,-484.58 649.69,-501.36 649.69,-528 649.69,-822 649.69,-822 649.69,-822 649.69,-967.38 657.69,-1003.62 657.69,-1149 657.69,-1333 657.69,-1333 657.69,-1333 657.69,-1398.03 1111.54,-1404.83 1312.19,-1404.66"/>
<polygon fill="fuchsia" stroke="fuchsia" stroke-width="2" points="1312.43,-1408.16 1322.43,-1404.64 1312.42,-1401.16 1312.43,-1408.16"/>
</g>
<!-- node14 -->
<g id="node17" class="node">
<title>node14</title>
<polygon fill="lightgreen" stroke="black" points="929.62,-375.54 929.62,-390.46 862.88,-401 768.5,-401 701.76,-390.46 701.76,-375.54 768.5,-365 862.88,-365 929.62,-375.54"/>
<text text-anchor="middle" x="815.69" y="-379.3" font-family="Times,serif" font-size="14.00">#14 int 10 Order : 7</text>
</g>
<!-- node11&#45;&gt;node14 -->
<g id="edge36" class="edge">
<title>node11&#45;&gt;node14</title>
<path fill="none" stroke="black" stroke-dasharray="1,5" d="M809.81,-437.81C808.98,-429.79 808.74,-420.05 809.11,-411.07"/>
<polygon fill="black" stroke="black" points="812.61,-411.25 809.83,-401.03 805.63,-410.75 812.61,-411.25"/>
</g>
<!-- node16 -->
<g id="node19" class="node">
<title>node16</title>
<polygon fill="lightgrey" stroke="black" points="1272.69,-255 1132.69,-255 1132.69,-219 1272.69,-219 1272.69,-255"/>
<text text-anchor="middle" x="1202.69" y="-233.3" font-family="Times,serif" font-size="14.00">#16 If Order : 21</text>
</g>
<!-- node11&#45;&gt;node16 -->
<g id="edge42" class="edge">
<title>node11&#45;&gt;node16</title>
<path fill="none" stroke="red" d="M869.7,-437.94C892.41,-429.14 918.25,-416.88 938.69,-401 963.2,-381.96 957.58,-365.53 981.69,-346 1030.43,-306.52 1095.99,-276.79 1143.03,-258.62"/>
<polygon fill="red" stroke="red" points="1144.37,-261.85 1152.48,-255.03 1141.88,-255.31 1144.37,-261.85"/>
</g>
<!-- node33 -->
<g id="node13" class="node">
<title>node33</title>
<polygon fill="lightgrey" stroke="black" points="1264.19,-547 1101.19,-547 1101.19,-511 1264.19,-511 1264.19,-547"/>
<text text-anchor="middle" x="1182.69" y="-525.3" font-family="Times,serif" font-size="14.00">#33 Goto Order : 35</text>
</g>
<!-- node33&#45;&gt;node11 -->
<g id="edge28" class="edge">
<title>node33&#45;&gt;node11</title>
<path fill="none" stroke="red" stroke-dasharray="5,2" d="M1100.79,-512.15C1045.47,-501.45 972.17,-487.27 913.74,-475.97"/>
<polygon fill="red" stroke="red" points="914.24,-472.5 903.76,-474.04 912.91,-479.37 914.24,-472.5"/>
</g>
<!-- node32 -->
<g id="node35" class="node">
<title>node32</title>
<polygon fill="lightgrey" stroke="black" points="1353.69,-620 1099.69,-620 1099.69,-584 1353.69,-584 1353.69,-620"/>
<text text-anchor="middle" x="1226.69" y="-598.3" font-family="Times,serif" font-size="14.00">#32 Merge : Merge42 Order : 16</text>
</g>
<!-- node33&#45;&gt;node32 -->
<g id="edge94" class="edge">
<title>node33&#45;&gt;node32</title>
<path fill="none" stroke="fuchsia" stroke-width="2" d="M1199.11,-547.03C1205.17,-555.38 1211.73,-565.61 1217.07,-574.92"/>
<polygon fill="fuchsia" stroke="fuchsia" stroke-width="2" points="1214.06,-576.71 1221.92,-583.81 1220.2,-573.36 1214.06,-576.71"/>
</g>
<!-- node12&#45;&gt;node7 -->
<g id="edge29" class="edge">
<title>node12&#45;&gt;node7</title>
<path fill="none" stroke="fuchsia" stroke-width="2" d="M491.23,-1204.03C492.87,-1212.03 494.07,-1221.77 494.59,-1230.75"/>
<polygon fill="fuchsia" stroke="fuchsia" stroke-width="2" points="491.09,-1230.92 494.88,-1240.81 498.09,-1230.72 491.09,-1230.92"/>
</g>
<!-- node12&#45;&gt;node13 -->
<g id="edge33" class="edge">
<title>node12&#45;&gt;node13</title>
<path fill="none" stroke="blue" d="M591.58,-1191.93C758.97,-1199.93 1091.31,-1217.3 1372.69,-1241 1595.86,-1259.79 1724.06,-1128.37 1873.69,-1295 1876.14,-1297.73 1876.91,-1300.93 1876.6,-1304.28"/>
<polygon fill="blue" stroke="blue" points="1873.25,-1303.26 1873.37,-1313.85 1879.88,-1305.49 1873.25,-1303.26"/>
<text text-anchor="middle" x="1871.15" y="-1290.28" font-family="Times,serif" font-size="14.00">if #7</text>
</g>
<!-- node13&#45;&gt;node0 -->
<g id="edge31" class="edge">
<title>node13&#45;&gt;node0</title>
<path fill="none" stroke="fuchsia" stroke-width="2" d="M1815.75,-1350.07C1793.24,-1357.03 1765.34,-1364.49 1739.69,-1369 1636.09,-1387.23 1607.97,-1373.11 1503.69,-1387 1502.18,-1387.2 1500.66,-1387.41 1499.12,-1387.63"/>
<polygon fill="fuchsia" stroke="fuchsia" stroke-width="2" points="1498.24,-1384.22 1488.88,-1389.18 1499.29,-1391.15 1498.24,-1384.22"/>
</g>
<!-- node35 -->
<g id="node16" class="node">
<title>node35</title>
<polygon fill="orange" stroke="black" points="1831.52,-448.54 1831.52,-463.46 1753.13,-474 1642.26,-474 1563.87,-463.46 1563.87,-448.54 1642.26,-438 1753.13,-438 1831.52,-448.54"/>
<text text-anchor="middle" x="1697.69" y="-452.3" font-family="Times,serif" font-size="14.00">#35 Add : int Order : 18</text>
</g>
<!-- node13&#45;&gt;node35 -->
<g id="edge99" class="edge">
<title>node13&#45;&gt;node35</title>
<path fill="none" stroke="black" d="M1818.06,-1313.75C1798.13,-1301.6 1778.69,-1283.35 1778.69,-1260 1778.69,-1260 1778.69,-1260 1778.69,-528 1778.69,-506.54 1762.72,-490.56 1744.9,-479.25"/>
<polygon fill="black" stroke="black" points="1746.47,-476.11 1736.07,-474.07 1742.93,-482.15 1746.47,-476.11"/>
<text text-anchor="middle" x="1755.98" y="-472.25" font-family="Times,serif" font-size="14.00">*0</text>
</g>
<!-- node15 -->
<g id="node18" class="node">
<title>node15</title>
<polygon fill="orange" stroke="black" points="1763.25,-302.54 1763.25,-317.46 1641.67,-328 1469.72,-328 1348.13,-317.46 1348.13,-302.54 1469.72,-292 1641.67,-292 1763.25,-302.54"/>
<text text-anchor="middle" x="1555.69" y="-306.3" font-family="Times,serif" font-size="14.00">#15 NumericCondition : GE Order : 20</text>
</g>
<!-- node13&#45;&gt;node15 -->
<g id="edge38" class="edge">
<title>node13&#45;&gt;node15</title>
<path fill="none" stroke="black" d="M1859.69,-1313.78C1859.69,-1299.41 1859.69,-1278.37 1859.69,-1260 1859.69,-1260 1859.69,-1260 1859.69,-382 1859.69,-350.23 1795.94,-332.67 1726.82,-322.96"/>
<polygon fill="black" stroke="black" points="1726.97,-319.45 1716.59,-321.59 1726.04,-326.39 1726.97,-319.45"/>
<text text-anchor="middle" x="1735.69" y="-311.93" font-family="Times,serif" font-size="14.00">*0</text>
</g>
<!-- node35&#45;&gt;node0 -->
<g id="edge98" class="edge">
<title>node35&#45;&gt;node0</title>
<path fill="none" stroke="fuchsia" stroke-width="2" d="M1823.78,-464.53C1959.05,-474.36 2154.69,-494.38 2154.69,-528 2154.69,-1333 2154.69,-1333 2154.69,-1333 2154.69,-1352.23 2147.52,-1359.69 2130.69,-1369 2101.34,-1385.25 1586.33,-1383.42 1499.18,-1387.04"/>
<polygon fill="fuchsia" stroke="fuchsia" stroke-width="2" points="1498.77,-1383.55 1489.01,-1387.67 1499.21,-1390.54 1498.77,-1383.55"/>
</g>
<!-- node35&#45;&gt;node13 -->
<g id="edge34" class="edge">
<title>node35&#45;&gt;node13</title>
<path fill="none" stroke="blue" stroke-dasharray="5,2" d="M1751.95,-474.07C1775.06,-485.47 1796.69,-503.02 1796.69,-528 1796.69,-1260 1796.69,-1260 1796.69,-1260 1796.69,-1279.7 1810.53,-1295.77 1825.31,-1307.61"/>
<polygon fill="blue" stroke="blue" points="1823.43,-1310.58 1833.54,-1313.75 1827.62,-1304.96 1823.43,-1310.58"/>
<text text-anchor="middle" x="1813.96" y="-1305.99" font-family="Times,serif" font-size="14.00">if #33</text>
</g>
<!-- node14&#45;&gt;node11 -->
<g id="edge35" class="edge">
<title>node14&#45;&gt;node11</title>
<path fill="none" stroke="fuchsia" stroke-width="2" d="M821.55,-401.03C822.4,-409.03 822.64,-418.77 822.28,-427.75"/>
<polygon fill="fuchsia" stroke="fuchsia" stroke-width="2" points="818.78,-427.59 821.57,-437.81 825.76,-428.08 818.78,-427.59"/>
</g>
<!-- node14&#45;&gt;node15 -->
<g id="edge39" class="edge">
<title>node14&#45;&gt;node15</title>
<path fill="none" stroke="black" d="M912.06,-372.75C1039.18,-360.56 1264.02,-338.98 1411.45,-324.84"/>
<polygon fill="black" stroke="black" points="1411.87,-328.32 1421.49,-323.88 1411.2,-321.35 1411.87,-328.32"/>
<text text-anchor="middle" x="1404.25" y="-330.32" font-family="Times,serif" font-size="14.00">*1</text>
</g>
<!-- node15&#45;&gt;node0 -->
<g id="edge37" class="edge">
<title>node15&#45;&gt;node0</title>
<path fill="none" stroke="fuchsia" stroke-width="2" d="M1714.86,-321.66C1843.29,-332.49 2002.69,-351.97 2002.69,-382 2002.69,-1333 2002.69,-1333 2002.69,-1333 2002.69,-1387.32 1588.97,-1380.44 1499.1,-1386.82"/>
<polygon fill="fuchsia" stroke="fuchsia" stroke-width="2" points="1498.65,-1383.35 1489.02,-1387.77 1499.31,-1390.32 1498.65,-1383.35"/>
</g>
<!-- node15&#45;&gt;node16 -->
<g id="edge41" class="edge">
<title>node15&#45;&gt;node16</title>
<path fill="none" stroke="black" d="M1471.14,-291.99C1413.99,-280.5 1339,-265.42 1282.81,-254.11"/>
<polygon fill="black" stroke="black" points="1283.39,-250.66 1272.9,-252.12 1282.01,-257.52 1283.39,-250.66"/>
<text text-anchor="middle" x="1292.34" y="-243.71" font-family="Times,serif" font-size="14.00">*0</text>
</g>
<!-- node16&#45;&gt;node0 -->
<g id="edge40" class="edge">
<title>node16&#45;&gt;node0</title>
<path fill="none" stroke="fuchsia" stroke-width="2" d="M1272.7,-240.29C1474.1,-247.34 2040.69,-270.58 2040.69,-309 2040.69,-1333 2040.69,-1333 2040.69,-1333 2040.69,-1391.46 1594.25,-1380.99 1499.22,-1386.85"/>
<polygon fill="fuchsia" stroke="fuchsia" stroke-width="2" points="1498.69,-1383.38 1489.01,-1387.7 1499.27,-1390.36 1498.69,-1383.38"/>
</g>
<!-- node17 -->
<g id="node20" class="node">
<title>node17</title>
<polygon fill="lightgrey" stroke="black" points="1282.19,-182 1123.19,-182 1123.19,-146 1282.19,-146 1282.19,-182"/>
<text text-anchor="middle" x="1202.69" y="-160.3" font-family="Times,serif" font-size="14.00">#17 true Order : 32</text>
</g>
<!-- node16&#45;&gt;node17 -->
<g id="edge44" class="edge">
<title>node16&#45;&gt;node17</title>
<path fill="none" stroke="red" d="M1196.81,-218.81C1195.98,-210.79 1195.74,-201.05 1196.11,-192.07"/>
<polygon fill="red" stroke="red" points="1199.61,-192.25 1196.83,-182.03 1192.63,-191.75 1199.61,-192.25"/>
</g>
<!-- node18 -->
<g id="node21" class="node">
<title>node18</title>
<polygon fill="lightgrey" stroke="black" points="1043.19,-182 880.19,-182 880.19,-146 1043.19,-146 1043.19,-182"/>
<text text-anchor="middle" x="961.69" y="-160.3" font-family="Times,serif" font-size="14.00">#18 false Order : 22</text>
</g>
<!-- node16&#45;&gt;node18 -->
<g id="edge46" class="edge">
<title>node16&#45;&gt;node18</title>
<path fill="none" stroke="red" d="M1139.11,-218.99C1103.4,-208.79 1059.09,-195.77 1023.66,-185.07"/>
<polygon fill="red" stroke="red" points="1024.5,-181.66 1013.91,-182.11 1022.47,-188.36 1024.5,-181.66"/>
</g>
<!-- node17&#45;&gt;node16 -->
<g id="edge43" class="edge">
<title>node17&#45;&gt;node16</title>
<path fill="none" stroke="fuchsia" stroke-width="2" d="M1208.55,-182.03C1209.4,-190.03 1209.64,-199.77 1209.28,-208.75"/>
<polygon fill="fuchsia" stroke="fuchsia" stroke-width="2" points="1205.78,-208.59 1208.57,-218.81 1212.76,-209.08 1205.78,-208.59"/>
</g>
<!-- node19 -->
<g id="node22" class="node">
<title>node19</title>
<polygon fill="lightgrey" stroke="black" points="1305.69,-109 1099.69,-109 1099.69,-73 1305.69,-73 1305.69,-109"/>
<text text-anchor="middle" x="1202.69" y="-87.3" font-family="Times,serif" font-size="14.00">#19 LabelNode Order : 33</text>
</g>
<!-- node17&#45;&gt;node19 -->
<g id="edge48" class="edge">
<title>node17&#45;&gt;node19</title>
<path fill="none" stroke="red" d="M1196.81,-145.81C1195.98,-137.79 1195.74,-128.05 1196.11,-119.07"/>
<polygon fill="red" stroke="red" points="1199.61,-119.25 1196.83,-109.03 1192.63,-118.75 1199.61,-119.25"/>
</g>
<!-- node18&#45;&gt;node16 -->
<g id="edge45" class="edge">
<title>node18&#45;&gt;node16</title>
<path fill="none" stroke="fuchsia" stroke-width="2" d="M1025.65,-182.11C1061.42,-192.33 1105.73,-205.36 1141.1,-216.05"/>
<polygon fill="fuchsia" stroke="fuchsia" stroke-width="2" points="1140.24,-219.44 1150.83,-218.99 1142.27,-212.74 1140.24,-219.44"/>
</g>
<!-- node21 -->
<g id="node24" class="node">
<title>node21</title>
<polygon fill="lightgreen" stroke="black" points="1081.79,-83.54 1081.79,-98.46 1011.44,-109 911.95,-109 841.6,-98.46 841.6,-83.54 911.95,-73 1011.44,-73 1081.79,-83.54"/>
<text text-anchor="middle" x="961.69" y="-87.3" font-family="Times,serif" font-size="14.00">#21 int 10 Order : 23</text>
</g>
<!-- node18&#45;&gt;node21 -->
<g id="edge54" class="edge">
<title>node18&#45;&gt;node21</title>
<path fill="none" stroke="black" stroke-dasharray="1,5" d="M955.81,-145.81C954.98,-137.79 954.74,-128.05 955.11,-119.07"/>
<polygon fill="black" stroke="black" points="958.61,-119.25 955.83,-109.03 951.63,-118.75 958.61,-119.25"/>
</g>
<!-- node18&#45;&gt;node22 -->
<g id="edge60" class="edge">
<title>node18&#45;&gt;node22</title>
<path fill="none" stroke="red" d="M975.13,-182.01C984.63,-195.76 995.69,-216.05 995.69,-236 995.69,-712 995.69,-712 995.69,-712 995.69,-874.25 912.9,-941.86 1002.69,-1077 1005.68,-1081.49 1009.38,-1085.41 1013.55,-1088.83"/>
<polygon fill="red" stroke="red" points="1011.86,-1091.92 1022.05,-1094.82 1015.88,-1086.2 1011.86,-1091.92"/>
</g>
<!-- node19&#45;&gt;node17 -->
<g id="edge47" class="edge">
<title>node19&#45;&gt;node17</title>
<path fill="none" stroke="fuchsia" stroke-width="2" d="M1208.55,-109.03C1209.4,-117.03 1209.64,-126.77 1209.28,-135.75"/>
<polygon fill="fuchsia" stroke="fuchsia" stroke-width="2" points="1205.78,-135.59 1208.57,-145.81 1212.76,-136.08 1205.78,-135.59"/>
</g>
<!-- node19&#45;&gt;node20 -->
<g id="edge51" class="edge">
<title>node19&#45;&gt;node20</title>
<path fill="none" stroke="red" d="M1202.69,-72.81C1202.69,-64.79 1202.69,-55.05 1202.69,-46.07"/>
<polygon fill="red" stroke="red" points="1206.19,-46.03 1202.69,-36.03 1199.19,-46.03 1206.19,-46.03"/>
</g>
<!-- node20&#45;&gt;node0 -->
<g id="edge49" class="edge">
<title>node20&#45;&gt;node0</title>
<path fill="none" stroke="fuchsia" stroke-width="2" d="M1328.34,-22.4C1578.87,-30.02 2116.69,-50.93 2116.69,-90 2116.69,-1333 2116.69,-1333 2116.69,-1333 2116.69,-1404.59 2030.72,-1360.03 1959.69,-1369 1757.81,-1394.5 1701.97,-1364.53 1499.1,-1386.57"/>
<polygon fill="fuchsia" stroke="fuchsia" stroke-width="2" points="1498.56,-1383.11 1489.01,-1387.69 1499.34,-1390.06 1498.56,-1383.11"/>
</g>
<!-- node21&#45;&gt;node18 -->
<g id="edge53" class="edge">
<title>node21&#45;&gt;node18</title>
<path fill="none" stroke="fuchsia" stroke-width="2" d="M967.55,-109.03C968.4,-117.03 968.64,-126.77 968.28,-135.75"/>
<polygon fill="fuchsia" stroke="fuchsia" stroke-width="2" points="964.78,-135.59 967.57,-145.81 971.76,-136.08 964.78,-135.59"/>
</g>
<!-- node21&#45;&gt;node22 -->
<g id="edge58" class="edge">
<title>node21&#45;&gt;node22</title>
<path fill="none" stroke="black" d="M1021.52,-107.6C1047.32,-118.27 1071.69,-135.61 1071.69,-163 1071.69,-712 1071.69,-712 1071.69,-712 1071.69,-849.78 1069.36,-884.22 1068.69,-1022 1068.57,-1046.48 1066.41,-1053.1 1071.69,-1077 1072.25,-1079.54 1072.89,-1082.16 1073.57,-1084.78"/>
<polygon fill="black" stroke="black" points="1070.26,-1085.95 1076.29,-1094.66 1077.01,-1084.09 1070.26,-1085.95"/>
<text text-anchor="middle" x="1063.33" y="-1075.73" font-family="Times,serif" font-size="14.00">*2</text>
</g>
<!-- node22&#45;&gt;node0 -->
<g id="edge55" class="edge">
<title>node22&#45;&gt;node0</title>
<path fill="none" stroke="fuchsia" stroke-width="2" d="M1142.98,-1131.06C1200.08,-1148.61 1286.15,-1179.4 1352.69,-1222 1374.6,-1236.03 1386.05,-1254.68 1372.69,-1277 1354.82,-1306.86 1321.56,-1284.14 1303.69,-1314 1295.48,-1327.73 1295.44,-1336.29 1303.69,-1350 1312.08,-1363.93 1325.4,-1374.46 1339.68,-1382.34"/>
<polygon fill="fuchsia" stroke="fuchsia" stroke-width="2" points="1338.17,-1385.49 1348.67,-1386.91 1341.34,-1379.25 1338.17,-1385.49"/>
</g>
<!-- node23 -->
<g id="node26" class="node">
<title>node23</title>
<polygon fill="lightgreen" stroke="black" points="1310.62,-1032.54 1310.62,-1047.46 1243.88,-1058 1149.5,-1058 1082.76,-1047.46 1082.76,-1032.54 1149.5,-1022 1243.88,-1022 1310.62,-1032.54"/>
<text text-anchor="middle" x="1196.69" y="-1036.3" font-family="Times,serif" font-size="14.00">#23 int 0 Order : 25</text>
</g>
<!-- node22&#45;&gt;node23 -->
<g id="edge62" class="edge">
<title>node22&#45;&gt;node23</title>
<path fill="none" stroke="black" stroke-dasharray="1,5" d="M1103.38,-1094.99C1117.76,-1085.49 1136.97,-1073.54 1154.27,-1063.29"/>
<polygon fill="black" stroke="black" points="1156.25,-1066.19 1163.1,-1058.11 1152.71,-1060.15 1156.25,-1066.19"/>
</g>
<!-- node25 -->
<g id="node28" class="node">
<title>node25</title>
<polygon fill="lightgrey" stroke="black" points="1398.69,-912 1258.69,-912 1258.69,-876 1398.69,-876 1398.69,-912"/>
<text text-anchor="middle" x="1328.69" y="-890.3" font-family="Times,serif" font-size="14.00">#25 If Order : 27</text>
</g>
<!-- node22&#45;&gt;node25 -->
<g id="edge68" class="edge">
<title>node22&#45;&gt;node25</title>
<path fill="none" stroke="red" d="M1078.44,-1094.56C1076.65,-1084.02 1074.6,-1070.29 1073.69,-1058 1069.92,-1006.83 1071.4,-980.75 1111.69,-949 1150.38,-918.52 1204.02,-904.98 1248.28,-899.09"/>
<polygon fill="red" stroke="red" points="1248.94,-902.53 1258.45,-897.85 1248.09,-895.59 1248.94,-902.53"/>
</g>
<!-- node22&#45;&gt;node28 -->
<g id="edge77" class="edge">
<title>node22&#45;&gt;node28</title>
<path fill="none" stroke="green" d="M955.85,-1104.99C885.08,-1093.79 802.22,-1066.92 757.69,-1004 705.51,-930.27 780.47,-822.04 819.98,-773.8"/>
<polygon fill="green" stroke="green" points="822.73,-775.96 826.45,-766.04 817.35,-771.48 822.73,-775.96"/>
</g>
<!-- node22&#45;&gt;node30 -->
<g id="edge85" class="edge">
<title>node22&#45;&gt;node30</title>
<path fill="none" stroke="green" d="M1207.27,-1096.02C1331.29,-1077.21 1507.78,-1041.22 1545.69,-985 1554.64,-971.73 1556.28,-960.99 1545.69,-949 1501.82,-899.3 1311.2,-936.73 1249.69,-912 1199.3,-891.74 1183.16,-883.27 1151.69,-839 1123.01,-798.64 1103.6,-772.68 1128.69,-730 1136.74,-716.3 1149.67,-705.83 1163.5,-697.92"/>
<polygon fill="green" stroke="green" points="1165.45,-700.84 1172.67,-693.08 1162.19,-694.65 1165.45,-700.84"/>
</g>
<!-- node23&#45;&gt;node22 -->
<g id="edge61" class="edge">
<title>node23&#45;&gt;node22</title>
<path fill="none" stroke="fuchsia" stroke-width="2" d="M1174.84,-1058.11C1160.42,-1067.63 1141.2,-1079.59 1123.92,-1089.82"/>
<polygon fill="fuchsia" stroke="fuchsia" stroke-width="2" points="1121.96,-1086.92 1115.1,-1094.99 1125.49,-1092.96 1121.96,-1086.92"/>
</g>
<!-- node23&#45;&gt;node24 -->
<g id="edge65" class="edge">
<title>node23&#45;&gt;node24</title>
<path fill="none" stroke="black" d="M1228.31,-1021.99C1246.22,-1012.36 1268.82,-1000.21 1288.03,-989.87"/>
<polygon fill="black" stroke="black" points="1289.73,-992.93 1296.88,-985.11 1286.41,-986.77 1289.73,-992.93"/>
<text text-anchor="middle" x="1284.92" y="-997.44" font-family="Times,serif" font-size="14.00">*1</text>
</g>
<!-- node24&#45;&gt;node0 -->
<g id="edge63" class="edge">
<title>node24&#45;&gt;node0</title>
<path fill="none" stroke="fuchsia" stroke-width="2" d="M1421.32,-984.47C1472.85,-996.36 1526.69,-1014.62 1526.69,-1039 1526.69,-1333 1526.69,-1333 1526.69,-1333 1526.69,-1356.23 1509.9,-1372.01 1488.82,-1382.66"/>
<polygon fill="fuchsia" stroke="fuchsia" stroke-width="2" points="1487.19,-1379.56 1479.56,-1386.91 1490.11,-1385.92 1487.19,-1379.56"/>
</g>
<!-- node24&#45;&gt;node25 -->
<g id="edge67" class="edge">
<title>node24&#45;&gt;node25</title>
<path fill="none" stroke="black" d="M1328.69,-948.81C1328.69,-940.79 1328.69,-931.05 1328.69,-922.07"/>
<polygon fill="black" stroke="black" points="1332.19,-922.03 1328.69,-912.03 1325.19,-922.03 1332.19,-922.03"/>
<text text-anchor="middle" x="1337.15" y="-926.45" font-family="Times,serif" font-size="14.00">*0</text>
</g>
<!-- node25&#45;&gt;node0 -->
<g id="edge66" class="edge">
<title>node25&#45;&gt;node0</title>
<path fill="none" stroke="fuchsia" stroke-width="2" d="M1398.96,-900.45C1461.49,-907.09 1545.64,-921.07 1562.69,-949 1655.74,-1101.38 1602.75,-1183.35 1538.69,-1350 1534.83,-1360.04 1532.6,-1362.97 1523.69,-1369 1515.47,-1374.57 1506.34,-1379.28 1496.9,-1383.24"/>
<polygon fill="fuchsia" stroke="fuchsia" stroke-width="2" points="1495.42,-1380.06 1487.38,-1386.97 1497.97,-1386.58 1495.42,-1380.06"/>
</g>
<!-- node26 -->
<g id="node29" class="node">
<title>node26</title>
<polygon fill="lightgrey" stroke="black" points="1320.19,-839 1161.19,-839 1161.19,-803 1320.19,-803 1320.19,-839"/>
<text text-anchor="middle" x="1240.69" y="-817.3" font-family="Times,serif" font-size="14.00">#26 true Order : 29</text>
</g>
<!-- node25&#45;&gt;node26 -->
<g id="edge70" class="edge">
<title>node25&#45;&gt;node26</title>
<path fill="none" stroke="red" d="M1301.51,-875.81C1289.32,-866.74 1275.18,-855.48 1263.54,-845.6"/>
<polygon fill="red" stroke="red" points="1265.79,-842.92 1255.94,-839.03 1261.22,-848.22 1265.79,-842.92"/>
</g>
<!-- node27 -->
<g id="node30" class="node">
<title>node27</title>
<polygon fill="lightgrey" stroke="black" points="1501.19,-839 1338.19,-839 1338.19,-803 1501.19,-803 1501.19,-839"/>
<text text-anchor="middle" x="1419.69" y="-817.3" font-family="Times,serif" font-size="14.00">#27 false Order : 28</text>
</g>
<!-- node25&#45;&gt;node27 -->
<g id="edge72" class="edge">
<title>node25&#45;&gt;node27</title>
<path fill="none" stroke="red" d="M1344.84,-875.81C1355.72,-866.57 1370.33,-855.04 1383.81,-845.03"/>
<polygon fill="red" stroke="red" points="1386.01,-847.76 1392.01,-839.03 1381.87,-842.11 1386.01,-847.76"/>
</g>
<!-- node26&#45;&gt;node25 -->
<g id="edge69" class="edge">
<title>node26&#45;&gt;node25</title>
<path fill="none" stroke="fuchsia" stroke-width="2" d="M1267.66,-839.03C1279.83,-848.07 1293.97,-859.33 1305.64,-869.23"/>
<polygon fill="fuchsia" stroke="fuchsia" stroke-width="2" points="1303.41,-871.93 1313.27,-875.81 1307.99,-866.63 1303.41,-871.93"/>
</g>
<!-- node29 -->
<g id="node32" class="node">
<title>node29</title>
<polygon fill="lightgrey" stroke="black" points="1343.69,-766 1137.69,-766 1137.69,-730 1343.69,-730 1343.69,-766"/>
<text text-anchor="middle" x="1240.69" y="-744.3" font-family="Times,serif" font-size="14.00">#29 LabelNode Order : 30</text>
</g>
<!-- node26&#45;&gt;node29 -->
<g id="edge80" class="edge">
<title>node26&#45;&gt;node29</title>
<path fill="none" stroke="red" d="M1234.81,-802.81C1233.98,-794.79 1233.74,-785.05 1234.11,-776.07"/>
<polygon fill="red" stroke="red" points="1237.61,-776.25 1234.83,-766.03 1230.63,-775.75 1237.61,-776.25"/>
</g>
<!-- node27&#45;&gt;node25 -->
<g id="edge71" class="edge">
<title>node27&#45;&gt;node25</title>
<path fill="none" stroke="fuchsia" stroke-width="2" d="M1403.63,-839.11C1392.74,-848.37 1378.08,-859.94 1364.57,-869.97"/>
<polygon fill="fuchsia" stroke="fuchsia" stroke-width="2" points="1362.35,-867.26 1356.35,-875.99 1366.48,-872.91 1362.35,-867.26"/>
</g>
<!-- node27&#45;&gt;node28 -->
<g id="edge78" class="edge">
<title>node27&#45;&gt;node28</title>
<path fill="none" stroke="red" d="M1337.89,-804.42C1334.79,-803.92 1331.71,-803.45 1328.69,-803 1210.55,-785.44 1075.51,-770.9 977.64,-761.35"/>
<polygon fill="red" stroke="red" points="977.68,-757.83 967.39,-760.35 977.01,-764.8 977.68,-757.83"/>
</g>
<!-- node28&#45;&gt;node0 -->
<g id="edge73" class="edge">
<title>node28&#45;&gt;node0</title>
<path fill="none" stroke="fuchsia" stroke-width="2" d="M967.42,-757.02C1192.42,-771.79 1640.69,-803.31 1640.69,-820 1640.69,-1041 1640.69,-1041 1640.69,-1041 1640.69,-1182.97 1641.3,-1233.82 1559.69,-1350 1552.27,-1360.57 1549.12,-1362.97 1537.69,-1369 1525.55,-1375.41 1512.14,-1380.72 1498.66,-1385.08"/>
<polygon fill="fuchsia" stroke="fuchsia" stroke-width="2" points="1497.38,-1381.82 1488.85,-1388.1 1499.43,-1388.51 1497.38,-1381.82"/>
</g>
<!-- node31 -->
<g id="node34" class="node">
<title>node31</title>
<polygon fill="lightgrey" stroke="black" points="923.19,-693 760.19,-693 760.19,-657 923.19,-657 923.19,-693"/>
<text text-anchor="middle" x="841.69" y="-671.3" font-family="Times,serif" font-size="14.00">#31 Goto Order : 15</text>
</g>
<!-- node28&#45;&gt;node31 -->
<g id="edge88" class="edge">
<title>node28&#45;&gt;node31</title>
<path fill="none" stroke="red" d="M835.81,-729.81C834.98,-721.79 834.74,-712.05 835.11,-703.07"/>
<polygon fill="red" stroke="red" points="838.61,-703.25 835.83,-693.03 831.63,-702.75 838.61,-703.25"/>
</g>
<!-- node28&#45;&gt;node32 -->
<g id="edge92" class="edge">
<title>node28&#45;&gt;node32</title>
<path fill="none" stroke="green" d="M793.07,-729.81C776.62,-721.4 760.06,-709.44 750.69,-693 742.78,-679.1 740.04,-668.93 750.69,-657 773.06,-631.95 956.74,-617.01 1089.24,-609.4"/>
<polygon fill="green" stroke="green" points="1089.7,-612.88 1099.49,-608.82 1089.3,-605.89 1089.7,-612.88"/>
</g>
<!-- node29&#45;&gt;node26 -->
<g id="edge79" class="edge">
<title>node29&#45;&gt;node26</title>
<path fill="none" stroke="fuchsia" stroke-width="2" d="M1246.55,-766.03C1247.4,-774.03 1247.64,-783.77 1247.28,-792.75"/>
<polygon fill="fuchsia" stroke="fuchsia" stroke-width="2" points="1243.78,-792.59 1246.57,-802.81 1250.76,-793.08 1243.78,-792.59"/>
</g>
<!-- node29&#45;&gt;node30 -->
<g id="edge86" class="edge">
<title>node29&#45;&gt;node30</title>
<path fill="none" stroke="red" d="M1237.06,-729.81C1235.37,-721.79 1233.31,-712.05 1231.41,-703.07"/>
<polygon fill="red" stroke="red" points="1234.78,-702.09 1229.29,-693.03 1227.93,-703.54 1234.78,-702.09"/>
</g>
<!-- node30&#45;&gt;node0 -->
<g id="edge81" class="edge">
<title>node30&#45;&gt;node0</title>
<path fill="none" stroke="fuchsia" stroke-width="2" d="M1351.28,-683.68C1485.34,-693.62 1678.69,-713.71 1678.69,-747 1678.69,-1333 1678.69,-1333 1678.69,-1333 1678.69,-1415.06 1586.1,-1376.56 1499.08,-1386.55"/>
<polygon fill="fuchsia" stroke="fuchsia" stroke-width="2" points="1498.47,-1383.1 1489.05,-1387.93 1499.43,-1390.03 1498.47,-1383.1"/>
</g>
<!-- node30&#45;&gt;node32 -->
<g id="edge91" class="edge">
<title>node30&#45;&gt;node32</title>
<path fill="none" stroke="red" d="M1220.06,-656.81C1219.33,-648.79 1219.23,-639.05 1219.73,-630.07"/>
<polygon fill="red" stroke="red" points="1223.23,-630.29 1220.59,-620.03 1216.25,-629.69 1223.23,-630.29"/>
</g>
<!-- node30&#45;&gt;node32 -->
<g id="edge93" class="edge">
<title>node30&#45;&gt;node32</title>
<path fill="none" stroke="green" d="M1231.81,-656.81C1232.77,-648.79 1233.14,-639.05 1232.89,-630.07"/>
<polygon fill="green" stroke="green" points="1236.38,-629.81 1232.31,-620.03 1229.39,-630.21 1236.38,-629.81"/>
</g>
<!-- node31&#45;&gt;node28 -->
<g id="edge87" class="edge">
<title>node31&#45;&gt;node28</title>
<path fill="none" stroke="fuchsia" stroke-width="2" d="M847.55,-693.03C848.4,-701.03 848.64,-710.77 848.28,-719.75"/>
<polygon fill="fuchsia" stroke="fuchsia" stroke-width="2" points="844.78,-719.59 847.57,-729.81 851.76,-720.08 844.78,-719.59"/>
</g>
<!-- node31&#45;&gt;node32 -->
<g id="edge90" class="edge">
<title>node31&#45;&gt;node32</title>
<path fill="none" stroke="red" d="M923.34,-658.94C982.01,-648.12 1061.51,-633.46 1124.41,-621.86"/>
<polygon fill="red" stroke="red" points="1125.15,-625.28 1134.35,-620.03 1123.88,-618.4 1125.15,-625.28"/>
</g>
<!-- node32&#45;&gt;node0 -->
<g id="edge89" class="edge">
<title>node32&#45;&gt;node0</title>
<path fill="none" stroke="fuchsia" stroke-width="2" d="M1353.84,-609.19C1499.02,-618 1716.69,-637.33 1716.69,-674 1716.69,-1333 1716.69,-1333 1716.69,-1333 1716.69,-1355.32 1701.81,-1359.34 1681.69,-1369 1646.56,-1385.87 1550.06,-1381.77 1499.16,-1386.65"/>
<polygon fill="fuchsia" stroke="fuchsia" stroke-width="2" points="1498.56,-1383.2 1489.03,-1387.84 1499.37,-1390.15 1498.56,-1383.2"/>
</g>
<!-- node32&#45;&gt;node33 -->
<g id="edge95" class="edge">
<title>node32&#45;&gt;node33</title>
<path fill="none" stroke="red" d="M1210.16,-583.81C1204.1,-575.44 1197.54,-565.2 1192.22,-555.9"/>
<polygon fill="red" stroke="red" points="1195.24,-554.14 1187.38,-547.03 1189.1,-557.48 1195.24,-554.14"/>
</g>
<!-- node34 -->
<g id="node36" class="node">
<title>node34</title>
<polygon fill="lightgreen" stroke="black" points="1509.62,-521.54 1509.62,-536.46 1442.88,-547 1348.5,-547 1281.76,-536.46 1281.76,-521.54 1348.5,-511 1442.88,-511 1509.62,-521.54"/>
<text text-anchor="middle" x="1395.69" y="-525.3" font-family="Times,serif" font-size="14.00">#34 int 1 Order : 17</text>
</g>
<!-- node32&#45;&gt;node34 -->
<g id="edge97" class="edge">
<title>node32&#45;&gt;node34</title>
<path fill="none" stroke="black" stroke-dasharray="1,5" d="M1261.31,-583.99C1283.91,-574.06 1313.84,-561.43 1339.75,-550.89"/>
<polygon fill="black" stroke="black" points="1341.13,-554.11 1349.09,-547.11 1338.5,-547.62 1341.13,-554.11"/>
</g>
<!-- node34&#45;&gt;node35 -->
<g id="edge100" class="edge">
<title>node34&#45;&gt;node35</title>
<path fill="none" stroke="black" d="M1458.27,-513.29C1505.64,-502.15 1570.95,-486.8 1621.39,-474.94"/>
<polygon fill="black" stroke="black" points="1622.34,-478.31 1631.27,-472.62 1620.74,-471.5 1622.34,-478.31"/>
<text text-anchor="middle" x="1615.56" y="-481.29" font-family="Times,serif" font-size="14.00">*1</text>
</g>
<!-- node34&#45;&gt;node32 -->
<g id="edge96" class="edge">
<title>node34&#45;&gt;node32</title>
<path fill="none" stroke="fuchsia" stroke-width="2" d="M1360.83,-547.11C1338.17,-557.07 1308.24,-569.69 1282.36,-580.22"/>
<polygon fill="fuchsia" stroke="fuchsia" stroke-width="2" points="1280.99,-577 1273.03,-583.99 1283.61,-583.49 1280.99,-577"/>
</g>
<!-- c0 -->
<!-- c1 -->
<!-- c0&#45;&gt;c1 -->
<g id="edge101" class="edge">
<title>c0&#45;&gt;c1</title>
<path fill="none" stroke="red" d="M2357.58,-1405C2368.8,-1405 2426.94,-1405 2452.55,-1405"/>
<polygon fill="red" stroke="red" points="2452.75,-1408.5 2462.75,-1405 2452.75,-1401.5 2452.75,-1408.5"/>
<text text-anchor="middle" x="2410.19" y="-1411.8" font-family="Times,serif" font-size="14.00">Control flow</text>
</g>
<!-- c2 -->
<!-- c3 -->
<!-- c2&#45;&gt;c3 -->
<g id="edge102" class="edge">
<title>c2&#45;&gt;c3</title>
<path fill="none" stroke="red" stroke-dasharray="5,2" d="M2150.77,-1405C2167.74,-1405 2283.9,-1405 2321.78,-1405"/>
<polygon fill="red" stroke="red" points="2321.86,-1408.5 2331.86,-1405 2321.86,-1401.5 2321.86,-1408.5"/>
<text text-anchor="middle" x="2241.19" y="-1411.8" font-family="Times,serif" font-size="14.00">Control flow back edge</text>
</g>
<!-- d0 -->
<!-- d1 -->
<!-- d0&#45;&gt;d1 -->
<g id="edge103" class="edge">
<title>d0&#45;&gt;d1</title>
<path fill="none" stroke="black" d="M2039.55,-1405C2049.1,-1405 2093,-1405 2114.61,-1405"/>
<polygon fill="black" stroke="black" points="2114.84,-1408.5 2124.84,-1405 2114.84,-1401.5 2114.84,-1408.5"/>
<text text-anchor="middle" x="2082.19" y="-1411.8" font-family="Times,serif" font-size="14.00">Data flow</text>
</g>
<!-- d2 -->
<!-- d3 -->
<!-- d2&#45;&gt;d3 -->
<g id="edge104" class="edge">
<title>d2&#45;&gt;d3</title>
<path fill="none" stroke="black" stroke-dasharray="1,5" d="M1913.5,-1405C1924.15,-1405 1979.16,-1405 2003.77,-1405"/>
<polygon fill="black" stroke="black" points="2003.84,-1408.5 2013.84,-1405 2003.84,-1401.5 2003.84,-1408.5"/>
<text text-anchor="middle" x="1963.69" y="-1411.8" font-family="Times,serif" font-size="14.00">Declaration</text>
</g>
<!-- d4 -->
<!-- d5 -->
<!-- d4&#45;&gt;d5 -->
<g id="edge105" class="edge">
<title>d4&#45;&gt;d5</title>
<path fill="none" stroke="blue" d="M1770.79,-1405C1783.41,-1405 1849.57,-1405 1877.37,-1405"/>
<polygon fill="blue" stroke="blue" points="1877.53,-1408.5 1887.53,-1405 1877.53,-1401.5 1877.53,-1408.5"/>
<text text-anchor="middle" x="1829.19" y="-1411.8" font-family="Times,serif" font-size="14.00">PHI Data flow</text>
</g>
<!-- d6 -->
<!-- d7 -->
<!-- d6&#45;&gt;d7 -->
<g id="edge106" class="edge">
<title>d6&#45;&gt;d7</title>
<path fill="none" stroke="green" d="M1633.69,-1405C1645.63,-1405 1707.99,-1405 1734.62,-1405"/>
<polygon fill="green" stroke="green" points="1734.64,-1408.5 1744.64,-1405 1734.64,-1401.5 1734.64,-1408.5"/>
<text text-anchor="middle" x="1689.19" y="-1411.8" font-family="Times,serif" font-size="14.00">Memory flow</text>
</g>
<!-- d8 -->
<!-- d9 -->
<!-- d8&#45;&gt;d9 -->
<g id="edge107" class="edge">
<title>d8&#45;&gt;d9</title>
<path fill="none" stroke="fuchsia" d="M1510.8,-1405C1521.84,-1405 1573.36,-1405 1597.35,-1405"/>
<polygon fill="fuchsia" stroke="fuchsia" points="1597.59,-1408.5 1607.59,-1405 1597.59,-1401.5 1597.59,-1408.5"/>
<text text-anchor="middle" x="1559.19" y="-1411.8" font-family="Times,serif" font-size="14.00">Dominance</text>
</g>
</g>
</svg>
