<?xml version="1.0" encoding="UTF-8" standalone="no"?>
<!DOCTYPE svg PUBLIC "-//W3C//DTD SVG 1.1//EN"
 "http://www.w3.org/Graphics/SVG/1.1/DTD/svg11.dtd">
<!-- Generated by graphviz version 2.43.0 (0)
 -->
<!-- Title: debugoutput Pages: 1 -->
<svg width="2073pt" height="1454pt"
 viewBox="0.00 0.00 2073.00 1453.80" xmlns="http://www.w3.org/2000/svg" xmlns:xlink="http://www.w3.org/1999/xlink">
<g id="graph0" class="graph" transform="scale(1 1) rotate(0) translate(4 1449.8)">
<title>debugoutput</title>
<polygon fill="white" stroke="transparent" points="-4,4 -4,-1449.8 2069,-1449.8 2069,4 -4,4"/>
<g id="clust1" class="cluster">
<title>cluster_000</title>
<polygon fill="none" stroke="black" points="1081,-1395.2 1081,-1437.8 2057,-1437.8 2057,-1395.2 1081,-1395.2"/>
<text text-anchor="middle" x="1569" y="-1422.6" font-family="Times,serif" font-size="14.00">Legend</text>
</g>
<!-- node0 -->
<g id="node1" class="node">
<title>node0</title>
<polygon fill="lightgrey" stroke="black" points="1071,-1423 905,-1423 905,-1387 1071,-1387 1071,-1423"/>
<text text-anchor="middle" x="988" y="-1401.3" font-family="Times,serif" font-size="14.00">#0 Method Order : 0</text>
</g>
<!-- node1 -->
<g id="node2" class="node">
<title>node1</title>
<polygon fill="lightgrey" stroke="black" points="1671,-1350 1485,-1350 1485,-1314 1671,-1314 1671,-1350"/>
<text text-anchor="middle" x="1578" y="-1328.3" font-family="Times,serif" font-size="14.00">#1 arg2 : int Order : 10</text>
</g>
<!-- node0&#45;&gt;node1 -->
<g id="edge2" class="edge">
<title>node0&#45;&gt;node1</title>
<path fill="none" stroke="black" d="M1068.25,-1386.97C1242.14,-1366.54 1289.78,-1401.25 1462,-1369 1480.61,-1365.52 1500.41,-1359.53 1518.34,-1353.44"/>
<polygon fill="black" stroke="black" points="1519.79,-1356.64 1528.09,-1350.05 1517.5,-1350.03 1519.79,-1356.64"/>
<text text-anchor="middle" x="1513.74" y="-1360.28" font-family="Times,serif" font-size="14.00">*0</text>
</g>
<!-- node2 -->
<g id="node3" class="node">
<title>node2</title>
<polygon fill="lightgrey" stroke="black" points="1429.5,-1350 1252.5,-1350 1252.5,-1314 1429.5,-1314 1429.5,-1350"/>
<text text-anchor="middle" x="1341" y="-1328.3" font-family="Times,serif" font-size="14.00">#2 arg1 : int Order : 9</text>
</g>
<!-- node0&#45;&gt;node2 -->
<g id="edge4" class="edge">
<title>node0&#45;&gt;node2</title>
<path fill="none" stroke="black" d="M1068.42,-1386.94C1139.71,-1376.23 1159.52,-1385.13 1230,-1369 1246.99,-1365.11 1265.06,-1359.31 1281.63,-1353.5"/>
<polygon fill="black" stroke="black" points="1282.95,-1356.75 1291.19,-1350.09 1280.59,-1350.15 1282.95,-1356.75"/>
<text text-anchor="middle" x="1276.96" y="-1360.44" font-family="Times,serif" font-size="14.00">*0</text>
</g>
<!-- node3 -->
<g id="node4" class="node">
<title>node3</title>
<polygon fill="lightgrey" stroke="black" points="242.5,-1350 65.5,-1350 65.5,-1314 242.5,-1314 242.5,-1350"/>
<text text-anchor="middle" x="154" y="-1328.3" font-family="Times,serif" font-size="14.00">#3 arg0 : int Order : 8</text>
</g>
<!-- node0&#45;&gt;node3 -->
<g id="edge6" class="edge">
<title>node0&#45;&gt;node3</title>
<path fill="none" stroke="black" d="M904.93,-1403.13C738.56,-1400.87 370.21,-1393.15 247,-1369 229.6,-1365.59 211.17,-1359.8 195.27,-1353.85"/>
<polygon fill="black" stroke="black" points="196.33,-1350.5 185.74,-1350.14 193.79,-1357.03 196.33,-1350.5"/>
<text text-anchor="middle" x="205.69" y="-1345.13" font-family="Times,serif" font-size="14.00">*0</text>
</g>
<!-- node4 -->
<g id="node5" class="node">
<title>node4</title>
<polygon fill="lightgrey" stroke="black" points="817,-1350 629,-1350 629,-1314 817,-1314 817,-1350"/>
<text text-anchor="middle" x="723" y="-1328.3" font-family="Times,serif" font-size="14.00">#4 LabelNode Order : 1</text>
</g>
<!-- node0&#45;&gt;node4 -->
<g id="edge8" class="edge">
<title>node0&#45;&gt;node4</title>
<path fill="none" stroke="red" d="M904.86,-1388.99C878.16,-1383.3 848.64,-1376.39 822,-1369 805.44,-1364.41 787.67,-1358.78 771.77,-1353.35"/>
<polygon fill="red" stroke="red" points="772.74,-1349.98 762.15,-1350.01 770.45,-1356.6 772.74,-1349.98"/>
</g>
<!-- node9 -->
<g id="node10" class="node">
<title>node9</title>
<polygon fill="orange" stroke="black" points="1120.89,-1178.54 1120.89,-1193.46 1027.23,-1204 894.77,-1204 801.11,-1193.46 801.11,-1178.54 894.77,-1168 1027.23,-1168 1120.89,-1178.54"/>
<text text-anchor="middle" x="961" y="-1182.3" font-family="Times,serif" font-size="14.00">#9 NewArray : int[] Order : 3</text>
</g>
<!-- node0&#45;&gt;node9 -->
<g id="edge21" class="edge">
<title>node0&#45;&gt;node9</title>
<path fill="none" stroke="green" d="M1055.17,-1386.95C1073.69,-1378.93 1091.74,-1367.19 1103,-1350 1111.77,-1336.62 1109.75,-1328.5 1103,-1314 1081.03,-1266.82 1031.96,-1230.91 997.57,-1209.51"/>
<polygon fill="green" stroke="green" points="999.09,-1206.34 988.73,-1204.12 995.45,-1212.32 999.09,-1206.34"/>
</g>
<!-- node13 -->
<g id="node15" class="node">
<title>node13</title>
<polygon fill="orange" stroke="black" points="1103.25,-1324.54 1103.25,-1339.46 1035.74,-1350 940.26,-1350 872.75,-1339.46 872.75,-1324.54 940.26,-1314 1035.74,-1314 1103.25,-1324.54"/>
<text text-anchor="middle" x="988" y="-1328.3" font-family="Times,serif" font-size="14.00">#13 Φ int Order : 19</text>
</g>
<!-- node0&#45;&gt;node13 -->
<g id="edge32" class="edge">
<title>node0&#45;&gt;node13</title>
<path fill="none" stroke="black" stroke-dasharray="1,5" d="M982.12,-1386.81C981.28,-1378.79 981.05,-1369.05 981.42,-1360.07"/>
<polygon fill="black" stroke="black" points="984.92,-1360.25 982.14,-1350.03 977.94,-1359.75 984.92,-1360.25"/>
</g>
<!-- node1&#45;&gt;node0 -->
<g id="edge1" class="edge">
<title>node1&#45;&gt;node0</title>
<path fill="none" stroke="fuchsia" stroke-width="2" d="M1544.23,-1350.15C1525.58,-1357.3 1501.96,-1364.89 1480,-1369 1307.7,-1401.26 1260.09,-1366.5 1086,-1387 1084.49,-1387.18 1082.96,-1387.37 1081.42,-1387.57"/>
<polygon fill="fuchsia" stroke="fuchsia" stroke-width="2" points="1080.58,-1384.15 1071.16,-1389.01 1081.55,-1391.08 1080.58,-1384.15"/>
</g>
<!-- node5 -->
<g id="node6" class="node">
<title>node5</title>
<polygon fill="orange" stroke="black" points="1931.16,-1251.54 1931.16,-1266.46 1856.67,-1277 1751.33,-1277 1676.84,-1266.46 1676.84,-1251.54 1751.33,-1241 1856.67,-1241 1931.16,-1251.54"/>
<text text-anchor="middle" x="1804" y="-1255.3" font-family="Times,serif" font-size="14.00">#5 Add : int Order : 13</text>
</g>
<!-- node1&#45;&gt;node5 -->
<g id="edge11" class="edge">
<title>node1&#45;&gt;node5</title>
<path fill="none" stroke="black" d="M1671.06,-1315.88C1693.99,-1310.81 1718.21,-1304.27 1740,-1296 1749.74,-1292.3 1759.79,-1287.3 1768.95,-1282.19"/>
<polygon fill="black" stroke="black" points="1770.87,-1285.13 1777.78,-1277.1 1767.37,-1279.07 1770.87,-1285.13"/>
<text text-anchor="middle" x="1766.3" y="-1289.78" font-family="Times,serif" font-size="14.00">*1</text>
</g>
<!-- node6 -->
<g id="node7" class="node">
<title>node6</title>
<polygon fill="orange" stroke="black" points="1545.16,-1251.54 1545.16,-1266.46 1470.67,-1277 1365.33,-1277 1290.84,-1266.46 1290.84,-1251.54 1365.33,-1241 1470.67,-1241 1545.16,-1251.54"/>
<text text-anchor="middle" x="1418" y="-1255.3" font-family="Times,serif" font-size="14.00">#6 Sub : int Order : 11</text>
</g>
<!-- node1&#45;&gt;node6 -->
<g id="edge14" class="edge">
<title>node1&#45;&gt;node6</title>
<path fill="none" stroke="black" d="M1539.68,-1313.99C1517.48,-1304.14 1489.34,-1291.66 1465.71,-1281.17"/>
<polygon fill="black" stroke="black" points="1467.13,-1277.97 1456.57,-1277.11 1464.29,-1284.37 1467.13,-1277.97"/>
<text text-anchor="middle" x="1476.56" y="-1273.04" font-family="Times,serif" font-size="14.00">*1</text>
</g>
<!-- node10 -->
<g id="node11" class="node">
<title>node10</title>
<polygon fill="lightgrey" stroke="black" points="1860,-1131 1624,-1131 1624,-1095 1860,-1095 1860,-1131"/>
<text text-anchor="middle" x="1742" y="-1109.3" font-family="Times,serif" font-size="14.00">#10 ArrayLoad : int Order : 12</text>
</g>
<!-- node1&#45;&gt;node10 -->
<g id="edge24" class="edge">
<title>node1&#45;&gt;node10</title>
<path fill="none" stroke="black" d="M1590.87,-1313.97C1619.6,-1275.96 1689.09,-1184.01 1722.89,-1139.28"/>
<polygon fill="black" stroke="black" points="1725.73,-1141.34 1728.96,-1131.25 1720.14,-1137.12 1725.73,-1141.34"/>
<text text-anchor="middle" x="1724.78" y="-1147.11" font-family="Times,serif" font-size="14.00">*1</text>
</g>
<!-- node27 -->
<g id="node30" class="node">
<title>node27</title>
<polygon fill="lightgrey" stroke="black" points="1048.5,-109 797.5,-109 797.5,-73 1048.5,-73 1048.5,-109"/>
<text text-anchor="middle" x="923" y="-87.3" font-family="Times,serif" font-size="14.00">#27 ArrayStore : int[] Order : 14</text>
</g>
<!-- node1&#45;&gt;node27 -->
<g id="edge73" class="edge">
<title>node1&#45;&gt;node27</title>
<path fill="none" stroke="black" d="M1576.11,-1313.81C1574.69,-1299.44 1573,-1278.41 1573,-1260 1573,-1260 1573,-1260 1573,-163 1573,-107.82 1151.94,-114.88 1058.83,-108.78"/>
<polygon fill="black" stroke="black" points="1059.01,-105.28 1048.74,-107.92 1058.41,-112.26 1059.01,-105.28"/>
<text text-anchor="middle" x="1067.52" y="-97.34" font-family="Times,serif" font-size="14.00">*1</text>
</g>
<!-- node31 -->
<g id="node34" class="node">
<title>node31</title>
<polygon fill="lightgrey" stroke="black" points="1543.5,-1131 1292.5,-1131 1292.5,-1095 1543.5,-1095 1543.5,-1131"/>
<text text-anchor="middle" x="1418" y="-1109.3" font-family="Times,serif" font-size="14.00">#31 ArrayStore : int[] Order : 31</text>
</g>
<!-- node1&#45;&gt;node31 -->
<g id="edge85" class="edge">
<title>node1&#45;&gt;node31</title>
<path fill="none" stroke="black" d="M1584.93,-1313.92C1592.9,-1291.38 1602.96,-1251.14 1587,-1222 1564.1,-1180.19 1517.37,-1152.21 1478.83,-1135.23"/>
<polygon fill="black" stroke="black" points="1479.81,-1131.84 1469.23,-1131.15 1477.07,-1138.28 1479.81,-1131.84"/>
<text text-anchor="middle" x="1489.22" y="-1126.76" font-family="Times,serif" font-size="14.00">*1</text>
</g>
<!-- node2&#45;&gt;node0 -->
<g id="edge3" class="edge">
<title>node2&#45;&gt;node0</title>
<path fill="none" stroke="fuchsia" stroke-width="2" d="M1307.72,-1350.09C1290.19,-1356.96 1268.32,-1364.35 1248,-1369 1177.38,-1385.16 1157.63,-1376.2 1086,-1387 1084.49,-1387.23 1082.97,-1387.46 1081.44,-1387.7"/>
<polygon fill="fuchsia" stroke="fuchsia" stroke-width="2" points="1080.52,-1384.31 1071.21,-1389.37 1081.64,-1391.22 1080.52,-1384.31"/>
</g>
<!-- node2&#45;&gt;node5 -->
<g id="edge10" class="edge">
<title>node2&#45;&gt;node5</title>
<path fill="none" stroke="black" d="M1429.72,-1317.39C1510.38,-1305.03 1628.98,-1286.84 1710.96,-1274.27"/>
<polygon fill="black" stroke="black" points="1711.67,-1277.7 1721.02,-1272.72 1710.61,-1270.78 1711.67,-1277.7"/>
<text text-anchor="middle" x="1704.39" y="-1280.13" font-family="Times,serif" font-size="14.00">*0</text>
</g>
<!-- node2&#45;&gt;node6 -->
<g id="edge13" class="edge">
<title>node2&#45;&gt;node6</title>
<path fill="none" stroke="black" d="M1359.64,-1313.81C1369.38,-1304.83 1381.46,-1293.69 1392.1,-1283.89"/>
<polygon fill="black" stroke="black" points="1394.55,-1286.38 1399.53,-1277.03 1389.81,-1281.23 1394.55,-1286.38"/>
<text text-anchor="middle" x="1391.94" y="-1291.83" font-family="Times,serif" font-size="14.00">*0</text>
</g>
<!-- node22 -->
<g id="node25" class="node">
<title>node22</title>
<polygon fill="lightgrey" stroke="black" points="786.5,-474 535.5,-474 535.5,-438 786.5,-438 786.5,-474"/>
<text text-anchor="middle" x="661" y="-452.3" font-family="Times,serif" font-size="14.00">#22 ArrayStore : int[] Order : 24</text>
</g>
<!-- node2&#45;&gt;node22 -->
<g id="edge57" class="edge">
<title>node2&#45;&gt;node22</title>
<path fill="none" stroke="black" d="M1303.37,-1313.91C1283.42,-1302.02 1263,-1283.99 1263,-1260 1263,-1260 1263,-1260 1263,-1149 1263,-1123.25 1266.2,-1113.6 1284,-1095 1312.2,-1065.53 1333.93,-1080.43 1368,-1058 1397.42,-1038.63 1411.94,-1036.29 1426,-1004 1502.88,-827.38 1471.23,-702.04 1319,-584 1239.2,-522.13 965.11,-485.77 796.88,-468.78"/>
<polygon fill="black" stroke="black" points="797.01,-465.27 786.71,-467.76 796.31,-472.24 797.01,-465.27"/>
<text text-anchor="middle" x="805.59" y="-457.45" font-family="Times,serif" font-size="14.00">*1</text>
</g>
<!-- node3&#45;&gt;node0 -->
<g id="edge5" class="edge">
<title>node3&#45;&gt;node0</title>
<path fill="none" stroke="fuchsia" stroke-width="2" d="M201.89,-1350.05C221.27,-1357.23 243.9,-1364.86 265,-1369 383.3,-1392.19 727.57,-1400.22 894.79,-1402.84"/>
<polygon fill="fuchsia" stroke="fuchsia" stroke-width="2" points="894.76,-1406.34 904.81,-1402.99 894.86,-1399.34 894.76,-1406.34"/>
</g>
<!-- node24 -->
<g id="node27" class="node">
<title>node24</title>
<polygon fill="orange" stroke="black" points="881.56,-302.54 881.56,-317.46 759.97,-328 588.03,-328 466.44,-317.46 466.44,-302.54 588.03,-292 759.97,-292 881.56,-302.54"/>
<text text-anchor="middle" x="674" y="-306.3" font-family="Times,serif" font-size="14.00">#24 NumericCondition : EQ Order : 26</text>
</g>
<!-- node3&#45;&gt;node24 -->
<g id="edge64" class="edge">
<title>node3&#45;&gt;node24</title>
<path fill="none" stroke="black" d="M169.86,-1313.75C180.66,-1300.18 193,-1280.25 193,-1260 193,-1260 193,-1260 193,-382 193,-350.55 355.99,-331.66 492.21,-321.36"/>
<polygon fill="black" stroke="black" points="492.67,-324.83 502.39,-320.6 492.15,-317.85 492.67,-324.83"/>
<text text-anchor="middle" x="484.94" y="-326.68" font-family="Times,serif" font-size="14.00">*0</text>
</g>
<!-- node4&#45;&gt;node0 -->
<g id="edge7" class="edge">
<title>node4&#45;&gt;node0</title>
<path fill="none" stroke="fuchsia" stroke-width="2" d="M778.9,-1350.01C798.24,-1356.4 820,-1363.45 840,-1369 860.24,-1374.61 882.13,-1379.95 902.73,-1384.68"/>
<polygon fill="fuchsia" stroke="fuchsia" stroke-width="2" points="902.2,-1388.15 912.73,-1386.96 903.76,-1381.33 902.2,-1388.15"/>
</g>
<!-- node7 -->
<g id="node8" class="node">
<title>node7</title>
<polygon fill="lightgrey" stroke="black" points="600,-1277 412,-1277 412,-1241 600,-1241 600,-1277"/>
<text text-anchor="middle" x="506" y="-1255.3" font-family="Times,serif" font-size="14.00">#7 LabelNode Order : 4</text>
</g>
<!-- node4&#45;&gt;node7 -->
<g id="edge16" class="edge">
<title>node4&#45;&gt;node7</title>
<path fill="none" stroke="red" d="M665.16,-1313.99C633.18,-1303.88 593.68,-1290.99 562,-1280.34"/>
<polygon fill="red" stroke="red" points="563.03,-1276.99 552.43,-1277.11 560.79,-1283.63 563.03,-1276.99"/>
</g>
<!-- node8 -->
<g id="node9" class="node">
<title>node8</title>
<polygon fill="lightgreen" stroke="black" points="833.77,-1251.54 833.77,-1266.46 770.64,-1277 681.36,-1277 618.23,-1266.46 618.23,-1251.54 681.36,-1241 770.64,-1241 833.77,-1251.54"/>
<text text-anchor="middle" x="726" y="-1255.3" font-family="Times,serif" font-size="14.00">#8 int 10 Order : 2</text>
</g>
<!-- node4&#45;&gt;node8 -->
<g id="edge18" class="edge">
<title>node4&#45;&gt;node8</title>
<path fill="none" stroke="black" stroke-dasharray="1,5" d="M717.85,-1313.81C717.35,-1305.79 717.53,-1296.05 718.28,-1287.07"/>
<polygon fill="black" stroke="black" points="721.77,-1287.36 719.42,-1277.03 714.81,-1286.57 721.77,-1287.36"/>
</g>
<!-- node5&#45;&gt;node0 -->
<g id="edge9" class="edge">
<title>node5&#45;&gt;node0</title>
<path fill="none" stroke="fuchsia" stroke-width="2" d="M1882.37,-1273.4C1959.38,-1289.67 2059.03,-1321.05 2012,-1369 1994.68,-1386.66 1186.11,-1384.56 1081.55,-1387.21"/>
<polygon fill="fuchsia" stroke="fuchsia" stroke-width="2" points="1081.16,-1383.72 1071.31,-1387.64 1081.46,-1390.71 1081.16,-1383.72"/>
</g>
<!-- node5&#45;&gt;node27 -->
<g id="edge74" class="edge">
<title>node5&#45;&gt;node27</title>
<path fill="none" stroke="black" d="M1857.03,-1241C1910.13,-1220.27 1984,-1179.63 1984,-1114 1984,-1114 1984,-1114 1984,-382 1984,-171.17 1785.36,-189.48 1584,-127 1530.44,-110.38 1149.48,-113.37 1058.72,-108.84"/>
<polygon fill="black" stroke="black" points="1058.92,-105.34 1048.72,-108.21 1058.48,-112.33 1058.92,-105.34"/>
<text text-anchor="middle" x="1067.33" y="-97.21" font-family="Times,serif" font-size="14.00">*2</text>
</g>
<!-- node6&#45;&gt;node0 -->
<g id="edge12" class="edge">
<title>node6&#45;&gt;node0</title>
<path fill="none" stroke="fuchsia" stroke-width="2" d="M1429.9,-1277.13C1442.16,-1297.06 1457.12,-1329.82 1439,-1350 1386.98,-1407.94 1173.72,-1377.95 1081.45,-1386.65"/>
<polygon fill="fuchsia" stroke="fuchsia" stroke-width="2" points="1080.86,-1383.2 1071.34,-1387.84 1081.68,-1390.15 1080.86,-1383.2"/>
</g>
<!-- node6&#45;&gt;node31 -->
<g id="edge86" class="edge">
<title>node6&#45;&gt;node31</title>
<path fill="none" stroke="black" d="M1418,-1240.92C1418,-1216.34 1418,-1170.75 1418,-1141.43"/>
<polygon fill="black" stroke="black" points="1421.5,-1141.06 1418,-1131.06 1414.5,-1141.06 1421.5,-1141.06"/>
<text text-anchor="middle" x="1426.45" y="-1145.49" font-family="Times,serif" font-size="14.00">*2</text>
</g>
<!-- node7&#45;&gt;node4 -->
<g id="edge15" class="edge">
<title>node7&#45;&gt;node4</title>
<path fill="none" stroke="fuchsia" stroke-width="2" d="M564.18,-1277.11C596.21,-1287.25 635.71,-1300.14 667.34,-1310.77"/>
<polygon fill="fuchsia" stroke="fuchsia" stroke-width="2" points="666.29,-1314.11 676.88,-1313.99 668.53,-1307.48 666.29,-1314.11"/>
</g>
<!-- node11 -->
<g id="node12" class="node">
<title>node11</title>
<polygon fill="lightgrey" stroke="black" points="609.5,-912 336.5,-912 336.5,-876 609.5,-876 609.5,-912"/>
<text text-anchor="middle" x="473" y="-890.3" font-family="Times,serif" font-size="14.00">#11 LoopHeader : Loop14 Order : 6</text>
</g>
<!-- node7&#45;&gt;node11 -->
<g id="edge27" class="edge">
<title>node7&#45;&gt;node11</title>
<path fill="none" stroke="red" d="M464,-1240.83C443,-1229.19 422,-1211.44 422,-1187 422,-1187 422,-1187 422,-966 422,-948.28 432.61,-931.95 444.15,-919.44"/>
<polygon fill="red" stroke="red" points="446.81,-921.72 451.37,-912.16 441.84,-916.79 446.81,-921.72"/>
</g>
<!-- node12 -->
<g id="node14" class="node">
<title>node12</title>
<polygon fill="lightgreen" stroke="black" points="665.77,-1178.54 665.77,-1193.46 602.64,-1204 513.36,-1204 450.23,-1193.46 450.23,-1178.54 513.36,-1168 602.64,-1168 665.77,-1178.54"/>
<text text-anchor="middle" x="558" y="-1182.3" font-family="Times,serif" font-size="14.00">#12 int 0 Order : 5</text>
</g>
<!-- node7&#45;&gt;node12 -->
<g id="edge30" class="edge">
<title>node7&#45;&gt;node12</title>
<path fill="none" stroke="black" stroke-dasharray="1,5" d="M512.71,-1240.81C518.13,-1232.18 525.71,-1221.56 533.18,-1212.03"/>
<polygon fill="black" stroke="black" points="536.09,-1214 539.67,-1204.03 530.65,-1209.6 536.09,-1214"/>
</g>
<!-- node8&#45;&gt;node4 -->
<g id="edge17" class="edge">
<title>node8&#45;&gt;node4</title>
<path fill="none" stroke="fuchsia" stroke-width="2" d="M731.14,-1277.03C731.65,-1285.03 731.48,-1294.77 730.74,-1303.75"/>
<polygon fill="fuchsia" stroke="fuchsia" stroke-width="2" points="727.24,-1303.48 729.6,-1313.81 734.2,-1304.27 727.24,-1303.48"/>
</g>
<!-- node8&#45;&gt;node9 -->
<g id="edge20" class="edge">
<title>node8&#45;&gt;node9</title>
<path fill="none" stroke="black" d="M778.15,-1242.24C812.54,-1231.85 857.87,-1218.16 894.79,-1207"/>
<polygon fill="black" stroke="black" points="895.91,-1210.32 904.47,-1204.08 893.89,-1203.62 895.91,-1210.32"/>
<text text-anchor="middle" x="889.57" y="-1213.71" font-family="Times,serif" font-size="14.00">*0</text>
</g>
<!-- node9&#45;&gt;node0 -->
<g id="edge19" class="edge">
<title>node9&#45;&gt;node0</title>
<path fill="none" stroke="fuchsia" stroke-width="2" d="M1001.87,-1204.12C1040.97,-1224.58 1097.07,-1262.61 1121,-1314 1127.75,-1328.5 1129.77,-1336.62 1121,-1350 1111.28,-1364.83 1096.51,-1375.61 1080.27,-1383.44"/>
<polygon fill="fuchsia" stroke="fuchsia" stroke-width="2" points="1078.85,-1380.24 1071.13,-1387.49 1081.69,-1386.64 1078.85,-1380.24"/>
</g>
<!-- node9&#45;&gt;node10 -->
<g id="edge23" class="edge">
<title>node9&#45;&gt;node10</title>
<path fill="none" stroke="black" d="M1079.24,-1173.79C1223.24,-1160.5 1465.49,-1138.47 1613.84,-1125.19"/>
<polygon fill="black" stroke="black" points="1614.27,-1128.67 1623.92,-1124.29 1613.64,-1121.69 1614.27,-1128.67"/>
<text text-anchor="middle" x="1606.61" y="-1130.62" font-family="Times,serif" font-size="14.00">*0</text>
</g>
<!-- node9&#45;&gt;node10 -->
<g id="edge25" class="edge">
<title>node9&#45;&gt;node10</title>
<path fill="none" stroke="green" d="M1083.77,-1174.29C1228.28,-1161.36 1467.06,-1139.66 1613.86,-1126.12"/>
<polygon fill="green" stroke="green" points="1614.2,-1129.61 1623.83,-1125.2 1613.55,-1122.64 1614.2,-1129.61"/>
</g>
<!-- node9&#45;&gt;node22 -->
<g id="edge56" class="edge">
<title>node9&#45;&gt;node22</title>
<path fill="none" stroke="black" d="M931.78,-1167.72C873.56,-1127.74 754.31,-1026.39 811,-949 843.23,-905 892.82,-953.67 928,-912 1028.44,-793.04 1023.9,-713.14 976,-565 966.89,-536.83 961.56,-527.52 937,-511 913.2,-494.99 854.15,-482.54 796.73,-473.65"/>
<polygon fill="black" stroke="black" points="797.2,-470.18 786.79,-472.14 796.15,-477.1 797.2,-470.18"/>
<text text-anchor="middle" x="805.98" y="-462.8" font-family="Times,serif" font-size="14.00">*0</text>
</g>
<!-- node9&#45;&gt;node22 -->
<g id="edge59" class="edge">
<title>node9&#45;&gt;node22</title>
<path fill="none" stroke="green" d="M941.07,-1167.72C891.56,-1127.74 772.31,-1026.39 829,-949 861.23,-905 910.82,-953.67 946,-912 1046.44,-793.04 1041.9,-713.14 994,-565 984.89,-536.83 979.56,-527.52 955,-511 929.02,-493.52 861.04,-480.29 796.95,-471.29"/>
<polygon fill="green" stroke="green" points="797.09,-467.78 786.71,-469.88 796.14,-474.71 797.09,-467.78"/>
</g>
<!-- node9&#45;&gt;node27 -->
<g id="edge72" class="edge">
<title>node9&#45;&gt;node27</title>
<path fill="none" stroke="black" d="M912.73,-1167.89C892.41,-1159.05 869.48,-1146.78 852,-1131 823.53,-1105.31 817.99,-1094.42 806,-1058 790.84,-1011.96 776.1,-989.98 802,-949 827.77,-908.24 868.96,-945.14 904,-912 922.48,-894.52 923,-883.44 923,-858 923,-858 923,-858 923,-163 923,-148.65 923,-132.67 923,-119.51"/>
<polygon fill="black" stroke="black" points="926.5,-119.22 923,-109.22 919.5,-119.22 926.5,-119.22"/>
<text text-anchor="middle" x="931.45" y="-123.64" font-family="Times,serif" font-size="14.00">*0</text>
</g>
<!-- node9&#45;&gt;node31 -->
<g id="edge84" class="edge">
<title>node9&#45;&gt;node31</title>
<path fill="none" stroke="black" d="M1052.38,-1170.8C1122.93,-1159.84 1221.15,-1144.58 1298.02,-1132.64"/>
<polygon fill="black" stroke="black" points="1298.9,-1136.05 1308.24,-1131.05 1297.83,-1129.13 1298.9,-1136.05"/>
<text text-anchor="middle" x="1291.63" y="-1138.49" font-family="Times,serif" font-size="14.00">*0</text>
</g>
<!-- node10&#45;&gt;node0 -->
<g id="edge22" class="edge">
<title>node10&#45;&gt;node0</title>
<path fill="none" stroke="fuchsia" stroke-width="2" d="M1853.04,-1131.01C1906.43,-1142.44 1959,-1160.03 1959,-1185 1959,-1333 1959,-1333 1959,-1333 1959,-1380.13 1191.15,-1381.31 1081.5,-1386.97"/>
<polygon fill="fuchsia" stroke="fuchsia" stroke-width="2" points="1081.04,-1383.49 1071.32,-1387.7 1081.55,-1390.47 1081.04,-1383.49"/>
</g>
<!-- node20 -->
<g id="node23" class="node">
<title>node20</title>
<polygon fill="lightgrey" stroke="black" points="1890.5,-474 1639.5,-474 1639.5,-438 1890.5,-438 1890.5,-474"/>
<text text-anchor="middle" x="1765" y="-452.3" font-family="Times,serif" font-size="14.00">#20 ReturnValue : int Order : 34</text>
</g>
<!-- node10&#45;&gt;node20 -->
<g id="edge50" class="edge">
<title>node10&#45;&gt;node20</title>
<path fill="none" stroke="black" d="M1738.93,-1094.9C1740.27,-1080.59 1744,-1059.59 1744,-1041 1744,-1041 1744,-1041 1744,-528 1744,-513.3 1746.53,-497.13 1750.14,-483.94"/>
<polygon fill="black" stroke="black" points="1753.58,-484.67 1753.24,-474.08 1746.9,-482.57 1753.58,-484.67"/>
<text text-anchor="middle" x="1755.87" y="-490.21" font-family="Times,serif" font-size="14.00">*0</text>
</g>
<!-- node10&#45;&gt;node20 -->
<g id="edge52" class="edge">
<title>node10&#45;&gt;node20</title>
<path fill="none" stroke="green" d="M1753.38,-1094.9C1758.27,-1080.59 1762,-1059.59 1762,-1041 1762,-1041 1762,-1041 1762,-528 1762,-513.45 1764.48,-497.45 1766.34,-484.33"/>
<polygon fill="green" stroke="green" points="1769.85,-484.45 1767.69,-474.08 1762.91,-483.54 1769.85,-484.45"/>
</g>
<!-- node11&#45;&gt;node0 -->
<g id="edge26" class="edge">
<title>node11&#45;&gt;node0</title>
<path fill="none" stroke="fuchsia" stroke-width="2" d="M401.59,-912.07C357,-927.46 308,-955.24 308,-1003 308,-1333 308,-1333 308,-1333 308,-1352.23 315.29,-1359.48 332,-1369 379.58,-1396.12 725.05,-1402.25 894.62,-1403.62"/>
<polygon fill="fuchsia" stroke="fuchsia" stroke-width="2" points="894.76,-1407.12 904.79,-1403.69 894.81,-1400.12 894.76,-1407.12"/>
</g>
<!-- node14 -->
<g id="node17" class="node">
<title>node14</title>
<polygon fill="lightgreen" stroke="black" points="601.93,-813.54 601.93,-828.46 535.19,-839 440.81,-839 374.07,-828.46 374.07,-813.54 440.81,-803 535.19,-803 601.93,-813.54"/>
<text text-anchor="middle" x="488" y="-817.3" font-family="Times,serif" font-size="14.00">#14 int 10 Order : 7</text>
</g>
<!-- node11&#45;&gt;node14 -->
<g id="edge36" class="edge">
<title>node11&#45;&gt;node14</title>
<path fill="none" stroke="black" stroke-dasharray="1,5" d="M470.75,-875.81C471.62,-867.7 473.47,-857.84 475.78,-848.78"/>
<polygon fill="black" stroke="black" points="479.18,-849.6 478.54,-839.03 472.45,-847.7 479.18,-849.6"/>
</g>
<!-- node16 -->
<g id="node19" class="node">
<title>node16</title>
<polygon fill="lightgrey" stroke="black" points="659,-693 519,-693 519,-657 659,-657 659,-693"/>
<text text-anchor="middle" x="589" y="-671.3" font-family="Times,serif" font-size="14.00">#16 If Order : 21</text>
</g>
<!-- node11&#45;&gt;node16 -->
<g id="edge42" class="edge">
<title>node11&#45;&gt;node16</title>
<path fill="none" stroke="red" d="M411,-875.89C393.04,-867.74 375.47,-855.94 365,-839 356.11,-824.62 349.53,-750.65 366,-730 383.93,-707.53 452.53,-693.23 508.96,-685.03"/>
<polygon fill="red" stroke="red" points="509.57,-688.48 518.98,-683.62 508.59,-681.55 509.57,-688.48"/>
</g>
<!-- node33 -->
<g id="node13" class="node">
<title>node33</title>
<polygon fill="lightgrey" stroke="black" points="992.5,-985 829.5,-985 829.5,-949 992.5,-949 992.5,-985"/>
<text text-anchor="middle" x="911" y="-963.3" font-family="Times,serif" font-size="14.00">#33 Goto Order : 35</text>
</g>
<!-- node33&#45;&gt;node11 -->
<g id="edge28" class="edge">
<title>node33&#45;&gt;node11</title>
<path fill="none" stroke="red" stroke-dasharray="5,2" d="M829.39,-952.77C761.52,-941.77 664.14,-925.98 588.31,-913.69"/>
<polygon fill="red" stroke="red" points="588.67,-910.2 578.23,-912.06 587.55,-917.11 588.67,-910.2"/>
</g>
<!-- node32 -->
<g id="node35" class="node">
<title>node32</title>
<polygon fill="lightgrey" stroke="black" points="1277,-1058 1023,-1058 1023,-1022 1277,-1022 1277,-1058"/>
<text text-anchor="middle" x="1150" y="-1036.3" font-family="Times,serif" font-size="14.00">#32 Merge : Merge42 Order : 16</text>
</g>
<!-- node33&#45;&gt;node32 -->
<g id="edge94" class="edge">
<title>node33&#45;&gt;node32</title>
<path fill="none" stroke="fuchsia" stroke-width="2" d="M965.53,-985.06C983.81,-991.35 1004.24,-998.32 1023,-1004 1040.72,-1009.37 1059.89,-1014.63 1077.86,-1019.38"/>
<polygon fill="fuchsia" stroke="fuchsia" stroke-width="2" points="1077.15,-1022.81 1087.71,-1021.96 1078.92,-1016.04 1077.15,-1022.81"/>
</g>
<!-- node12&#45;&gt;node7 -->
<g id="edge29" class="edge">
<title>node12&#45;&gt;node7</title>
<path fill="none" stroke="fuchsia" stroke-width="2" d="M551.39,-1204.03C546,-1212.64 538.43,-1223.26 530.95,-1232.79"/>
<polygon fill="fuchsia" stroke="fuchsia" stroke-width="2" points="528.03,-1230.84 524.47,-1240.81 533.48,-1235.24 528.03,-1230.84"/>
</g>
<!-- node12&#45;&gt;node13 -->
<g id="edge33" class="edge">
<title>node12&#45;&gt;node13</title>
<path fill="none" stroke="blue" d="M656.43,-1195.04C698.21,-1198.22 747.46,-1201.67 792,-1204 855.72,-1207.34 1895.61,-1195.16 1940,-1241 1951.13,-1252.49 1951.01,-1265.39 1940,-1277 1913.36,-1305.1 1282.65,-1311.69 1244,-1314 1199.14,-1316.68 1149.88,-1319.89 1106.65,-1322.79"/>
<polygon fill="blue" stroke="blue" points="1106.41,-1319.3 1096.66,-1323.47 1106.88,-1326.29 1106.41,-1319.3"/>
<text text-anchor="middle" x="1114.18" y="-1310.11" font-family="Times,serif" font-size="14.00">if #7</text>
</g>
<!-- node13&#45;&gt;node0 -->
<g id="edge31" class="edge">
<title>node13&#45;&gt;node0</title>
<path fill="none" stroke="fuchsia" stroke-width="2" d="M993.86,-1350.03C994.71,-1358.03 994.95,-1367.77 994.59,-1376.75"/>
<polygon fill="fuchsia" stroke="fuchsia" stroke-width="2" points="991.09,-1376.59 993.88,-1386.81 998.07,-1377.08 991.09,-1376.59"/>
</g>
<!-- node35 -->
<g id="node16" class="node">
<title>node35</title>
<polygon fill="orange" stroke="black" points="894.83,-886.54 894.83,-901.46 816.43,-912 705.57,-912 627.17,-901.46 627.17,-886.54 705.57,-876 816.43,-876 894.83,-886.54"/>
<text text-anchor="middle" x="761" y="-890.3" font-family="Times,serif" font-size="14.00">#35 Add : int Order : 18</text>
</g>
<!-- node13&#45;&gt;node35 -->
<g id="edge99" class="edge">
<title>node13&#45;&gt;node35</title>
<path fill="none" stroke="black" d="M959.72,-1313.68C933.09,-1294.73 892.39,-1263.99 855,-1241 824.35,-1222.16 807.59,-1230.27 783,-1204 703.36,-1118.93 692.77,-1061.81 722,-949 724.56,-939.14 729.35,-929.16 734.82,-920.51"/>
<polygon fill="black" stroke="black" points="737.88,-922.24 740.71,-912.03 732.13,-918.25 737.88,-922.24"/>
<text text-anchor="middle" x="737.31" y="-928.04" font-family="Times,serif" font-size="14.00">*0</text>
</g>
<!-- node15 -->
<g id="node18" class="node">
<title>node15</title>
<polygon fill="orange" stroke="black" points="790.56,-740.54 790.56,-755.46 668.97,-766 497.03,-766 375.44,-755.46 375.44,-740.54 497.03,-730 668.97,-730 790.56,-740.54"/>
<text text-anchor="middle" x="583" y="-744.3" font-family="Times,serif" font-size="14.00">#15 NumericCondition : GE Order : 20</text>
</g>
<!-- node13&#45;&gt;node15 -->
<g id="edge38" class="edge">
<title>node13&#45;&gt;node15</title>
<path fill="none" stroke="black" d="M1012.02,-1313.85C1042.36,-1291.28 1094.85,-1249.15 1130,-1204 1163.58,-1160.86 1146.02,-1131.18 1187,-1095 1222.21,-1063.91 1249.77,-1087.9 1286,-1058 1307.69,-1040.1 1311.38,-1031.08 1319,-1004 1335.07,-946.88 1328.76,-911.22 1281,-876 1197.21,-814.21 919.7,-778.64 740.86,-761.61"/>
<polygon fill="black" stroke="black" points="741.11,-758.12 730.82,-760.67 740.45,-765.09 741.11,-758.12"/>
<text text-anchor="middle" x="749.66" y="-750.25" font-family="Times,serif" font-size="14.00">*0</text>
</g>
<!-- node35&#45;&gt;node0 -->
<g id="edge98" class="edge">
<title>node35&#45;&gt;node0</title>
<path fill="none" stroke="fuchsia" stroke-width="2" d="M684.25,-909.18C574.02,-930.62 384,-972.06 384,-1003 384,-1333 384,-1333 384,-1333 384,-1383.8 725.32,-1398.34 894.8,-1402.44"/>
<polygon fill="fuchsia" stroke="fuchsia" stroke-width="2" points="894.89,-1405.94 904.97,-1402.68 895.05,-1398.94 894.89,-1405.94"/>
</g>
<!-- node35&#45;&gt;node13 -->
<g id="edge34" class="edge">
<title>node35&#45;&gt;node13</title>
<path fill="none" stroke="blue" stroke-dasharray="5,2" d="M756.46,-912.03C750.94,-922.21 743.44,-935.71 740,-949 710.77,-1061.81 721.36,-1118.93 801,-1204 825.59,-1230.27 842.35,-1222.16 873,-1241 906.3,-1261.47 942.23,-1288.1 965.09,-1307.07"/>
<polygon fill="blue" stroke="blue" points="963.01,-1309.89 972.9,-1313.68 967.53,-1304.55 963.01,-1309.89"/>
<text text-anchor="middle" x="953.61" y="-1304.71" font-family="Times,serif" font-size="14.00">if #33</text>
</g>
<!-- node14&#45;&gt;node11 -->
<g id="edge35" class="edge">
<title>node14&#45;&gt;node11</title>
<path fill="none" stroke="fuchsia" stroke-width="2" d="M490.26,-839.03C489.41,-847.12 487.57,-856.98 485.27,-866.05"/>
<polygon fill="fuchsia" stroke="fuchsia" stroke-width="2" points="481.86,-865.24 482.51,-875.81 488.6,-867.14 481.86,-865.24"/>
</g>
<!-- node14&#45;&gt;node15 -->
<g id="edge39" class="edge">
<title>node14&#45;&gt;node15</title>
<path fill="none" stroke="black" d="M511,-802.81C523.37,-793.57 538.79,-782.04 552.18,-772.03"/>
<polygon fill="black" stroke="black" points="554.3,-774.82 560.21,-766.03 550.11,-769.21 554.3,-774.82"/>
<text text-anchor="middle" x="550.76" y="-779.95" font-family="Times,serif" font-size="14.00">*1</text>
</g>
<!-- node15&#45;&gt;node0 -->
<g id="edge37" class="edge">
<title>node15&#45;&gt;node0</title>
<path fill="none" stroke="fuchsia" stroke-width="2" d="M453.44,-762.3C422.09,-770.35 390.35,-783.04 365,-803 336.26,-825.62 335.69,-840.47 327,-876 313.44,-931.44 346,-945.93 346,-1003 346,-1333 346,-1333 346,-1333 346,-1387.52 716.49,-1400.18 894.58,-1403.12"/>
<polygon fill="fuchsia" stroke="fuchsia" stroke-width="2" points="894.67,-1406.62 904.73,-1403.28 894.78,-1399.62 894.67,-1406.62"/>
</g>
<!-- node15&#45;&gt;node16 -->
<g id="edge41" class="edge">
<title>node15&#45;&gt;node16</title>
<path fill="none" stroke="black" d="M584.45,-729.81C585.13,-721.79 585.95,-712.05 586.71,-703.07"/>
<polygon fill="black" stroke="black" points="590.21,-703.29 587.56,-693.03 583.23,-702.7 590.21,-703.29"/>
<text text-anchor="middle" x="594.46" y="-708.1" font-family="Times,serif" font-size="14.00">*0</text>
</g>
<!-- node16&#45;&gt;node0 -->
<g id="edge40" class="edge">
<title>node16&#45;&gt;node0</title>
<path fill="none" stroke="fuchsia" stroke-width="2" d="M659.28,-678.65C853.12,-686.43 1381,-710.93 1381,-747 1381,-1004 1381,-1004 1381,-1004 1381,-1075.26 1298.26,-1043.51 1249,-1095 1246.54,-1097.57 1187,-1205.04 1187,-1222 1187,-1333 1187,-1333 1187,-1333 1187,-1367.59 1150.22,-1356.43 1118,-1369 1103.53,-1374.64 1087.82,-1379.72 1072.48,-1384.13"/>
<polygon fill="fuchsia" stroke="fuchsia" stroke-width="2" points="1071.15,-1380.87 1062.47,-1386.94 1073.04,-1387.61 1071.15,-1380.87"/>
</g>
<!-- node17 -->
<g id="node20" class="node">
<title>node17</title>
<polygon fill="lightgrey" stroke="black" points="855.5,-620 696.5,-620 696.5,-584 855.5,-584 855.5,-620"/>
<text text-anchor="middle" x="776" y="-598.3" font-family="Times,serif" font-size="14.00">#17 true Order : 32</text>
</g>
<!-- node16&#45;&gt;node17 -->
<g id="edge44" class="edge">
<title>node16&#45;&gt;node17</title>
<path fill="none" stroke="red" d="M627.93,-656.99C653.27,-646.97 686.76,-634.21 715.51,-623.62"/>
<polygon fill="red" stroke="red" points="716.87,-626.84 725.06,-620.11 714.46,-620.27 716.87,-626.84"/>
</g>
<!-- node18 -->
<g id="node21" class="node">
<title>node18</title>
<polygon fill="lightgrey" stroke="black" points="670.5,-620 507.5,-620 507.5,-584 670.5,-584 670.5,-620"/>
<text text-anchor="middle" x="589" y="-598.3" font-family="Times,serif" font-size="14.00">#18 false Order : 22</text>
</g>
<!-- node16&#45;&gt;node18 -->
<g id="edge46" class="edge">
<title>node16&#45;&gt;node18</title>
<path fill="none" stroke="red" d="M583.12,-656.81C582.28,-648.79 582.05,-639.05 582.42,-630.07"/>
<polygon fill="red" stroke="red" points="585.92,-630.25 583.14,-620.03 578.94,-629.75 585.92,-630.25"/>
</g>
<!-- node17&#45;&gt;node16 -->
<g id="edge43" class="edge">
<title>node17&#45;&gt;node16</title>
<path fill="none" stroke="fuchsia" stroke-width="2" d="M736.8,-620.11C711.4,-630.16 677.9,-642.92 649.19,-653.5"/>
<polygon fill="fuchsia" stroke="fuchsia" stroke-width="2" points="647.83,-650.26 639.65,-656.99 650.24,-656.84 647.83,-650.26"/>
</g>
<!-- node19 -->
<g id="node22" class="node">
<title>node19</title>
<polygon fill="lightgrey" stroke="black" points="895,-547 689,-547 689,-511 895,-511 895,-547"/>
<text text-anchor="middle" x="792" y="-525.3" font-family="Times,serif" font-size="14.00">#19 LabelNode Order : 33</text>
</g>
<!-- node17&#45;&gt;node19 -->
<g id="edge48" class="edge">
<title>node17&#45;&gt;node19</title>
<path fill="none" stroke="red" d="M773.99,-583.81C774.97,-575.7 776.97,-565.84 779.4,-556.78"/>
<polygon fill="red" stroke="red" points="782.8,-557.61 782.3,-547.03 776.09,-555.62 782.8,-557.61"/>
</g>
<!-- node18&#45;&gt;node16 -->
<g id="edge45" class="edge">
<title>node18&#45;&gt;node16</title>
<path fill="none" stroke="fuchsia" stroke-width="2" d="M594.86,-620.03C595.71,-628.03 595.95,-637.77 595.59,-646.75"/>
<polygon fill="fuchsia" stroke="fuchsia" stroke-width="2" points="592.09,-646.59 594.88,-656.81 599.07,-647.08 592.09,-646.59"/>
</g>
<!-- node21 -->
<g id="node24" class="node">
<title>node21</title>
<polygon fill="lightgreen" stroke="black" points="633.09,-521.54 633.09,-536.46 562.74,-547 463.26,-547 392.91,-536.46 392.91,-521.54 463.26,-511 562.74,-511 633.09,-521.54"/>
<text text-anchor="middle" x="513" y="-525.3" font-family="Times,serif" font-size="14.00">#21 int 10 Order : 23</text>
</g>
<!-- node18&#45;&gt;node21 -->
<g id="edge54" class="edge">
<title>node18&#45;&gt;node21</title>
<path fill="none" stroke="black" stroke-dasharray="1,5" d="M564.72,-583.81C554.27,-574.92 542.3,-563.91 532.44,-554.17"/>
<polygon fill="black" stroke="black" points="534.89,-551.67 525.37,-547.03 529.92,-556.6 534.89,-551.67"/>
</g>
<!-- node18&#45;&gt;node22 -->
<g id="edge60" class="edge">
<title>node18&#45;&gt;node22</title>
<path fill="none" stroke="red" d="M610.87,-583.95C621.83,-574.26 634.37,-561.24 642,-547 652.41,-527.59 657.11,-502.97 659.24,-484.39"/>
<polygon fill="red" stroke="red" points="662.75,-484.52 660.22,-474.23 655.78,-483.85 662.75,-484.52"/>
</g>
<!-- node19&#45;&gt;node17 -->
<g id="edge47" class="edge">
<title>node19&#45;&gt;node17</title>
<path fill="none" stroke="fuchsia" stroke-width="2" d="M794.02,-547.03C793.06,-555.12 791.07,-564.98 788.65,-574.05"/>
<polygon fill="fuchsia" stroke="fuchsia" stroke-width="2" points="785.24,-573.23 785.75,-583.81 791.95,-575.22 785.24,-573.23"/>
</g>
<!-- node19&#45;&gt;node20 -->
<g id="edge51" class="edge">
<title>node19&#45;&gt;node20</title>
<path fill="none" stroke="red" d="M895.21,-520.47C1071.88,-507.58 1432.19,-481.29 1629.09,-466.92"/>
<polygon fill="red" stroke="red" points="1629.49,-470.4 1639.21,-466.18 1628.99,-463.42 1629.49,-470.4"/>
</g>
<!-- node20&#45;&gt;node0 -->
<g id="edge49" class="edge">
<title>node20&#45;&gt;node0</title>
<path fill="none" stroke="fuchsia" stroke-width="2" d="M1890.86,-464.07C1955.98,-475.32 2022,-502.2 2022,-565 2022,-712 2022,-712 2022,-712 2022,-776.45 2024,-792.55 2024,-857 2024,-1150 2024,-1150 2024,-1150 2024,-1252.41 1975.08,-1333.16 1953,-1350 1877.74,-1407.42 1213.1,-1378.27 1081.44,-1386.82"/>
<polygon fill="fuchsia" stroke="fuchsia" stroke-width="2" points="1080.99,-1383.34 1071.32,-1387.66 1081.57,-1390.32 1080.99,-1383.34"/>
</g>
<!-- node21&#45;&gt;node18 -->
<g id="edge53" class="edge">
<title>node21&#45;&gt;node18</title>
<path fill="none" stroke="fuchsia" stroke-width="2" d="M537.09,-547.03C547.52,-555.9 559.5,-566.9 569.38,-576.65"/>
<polygon fill="fuchsia" stroke="fuchsia" stroke-width="2" points="566.95,-579.17 576.48,-583.81 571.93,-574.25 566.95,-579.17"/>
</g>
<!-- node21&#45;&gt;node22 -->
<g id="edge58" class="edge">
<title>node21&#45;&gt;node22</title>
<path fill="none" stroke="black" d="M548.45,-510.99C568.8,-501.23 594.55,-488.88 616.29,-478.45"/>
<polygon fill="black" stroke="black" points="617.82,-481.59 625.33,-474.11 614.8,-475.28 617.82,-481.59"/>
<text text-anchor="middle" x="612.64" y="-485.87" font-family="Times,serif" font-size="14.00">*2</text>
</g>
<!-- node22&#45;&gt;node0 -->
<g id="edge55" class="edge">
<title>node22&#45;&gt;node0</title>
<path fill="none" stroke="fuchsia" stroke-width="2" d="M535.4,-468.02C421.07,-479.8 270,-500.55 270,-528 270,-1333 270,-1333 270,-1333 270,-1363.34 299.05,-1359.91 328,-1369 430.9,-1401.31 738.6,-1405.04 894.81,-1404.74"/>
<polygon fill="fuchsia" stroke="fuchsia" stroke-width="2" points="894.89,-1408.24 904.88,-1404.72 894.87,-1401.24 894.89,-1408.24"/>
</g>
<!-- node23 -->
<g id="node26" class="node">
<title>node23</title>
<polygon fill="lightgreen" stroke="black" points="774.93,-375.54 774.93,-390.46 708.19,-401 613.81,-401 547.07,-390.46 547.07,-375.54 613.81,-365 708.19,-365 774.93,-375.54"/>
<text text-anchor="middle" x="661" y="-379.3" font-family="Times,serif" font-size="14.00">#23 int 0 Order : 25</text>
</g>
<!-- node22&#45;&gt;node23 -->
<g id="edge62" class="edge">
<title>node22&#45;&gt;node23</title>
<path fill="none" stroke="black" stroke-dasharray="1,5" d="M655.12,-437.81C654.28,-429.79 654.05,-420.05 654.42,-411.07"/>
<polygon fill="black" stroke="black" points="657.92,-411.25 655.14,-401.03 650.94,-410.75 657.92,-411.25"/>
</g>
<!-- node25 -->
<g id="node28" class="node">
<title>node25</title>
<polygon fill="lightgrey" stroke="black" points="669,-255 529,-255 529,-219 669,-219 669,-255"/>
<text text-anchor="middle" x="599" y="-233.3" font-family="Times,serif" font-size="14.00">#25 If Order : 27</text>
</g>
<!-- node22&#45;&gt;node25 -->
<g id="edge68" class="edge">
<title>node22&#45;&gt;node25</title>
<path fill="none" stroke="red" d="M600.11,-437.84C549.86,-419.85 482.78,-385.94 457,-328 450.5,-313.38 447.92,-305.17 457,-292 471.41,-271.1 495.05,-258.29 518.95,-250.43"/>
<polygon fill="red" stroke="red" points="520.26,-253.69 528.82,-247.45 518.24,-246.99 520.26,-253.69"/>
</g>
<!-- node22&#45;&gt;node27 -->
<g id="edge75" class="edge">
<title>node22&#45;&gt;node27</title>
<path fill="none" stroke="green" d="M592.42,-437.93C578.86,-433.15 565.1,-427.23 553,-420 491.96,-383.51 411.06,-346.28 457,-292 489.17,-253.99 629.98,-268.19 678,-255 764.43,-231.25 796.77,-238.94 866,-182 886.75,-164.94 902.3,-138.27 911.87,-118.38"/>
<polygon fill="green" stroke="green" points="915.08,-119.79 916.09,-109.24 908.72,-116.85 915.08,-119.79"/>
</g>
<!-- node22&#45;&gt;node31 -->
<g id="edge87" class="edge">
<title>node22&#45;&gt;node31</title>
<path fill="none" stroke="green" d="M779.38,-474.01C819.94,-482.24 864.92,-494.13 904,-511 943.95,-528.25 948.78,-541.88 985,-566 1132.55,-664.24 1234.6,-628.12 1319,-784 1391.77,-918.39 940.29,-869.18 1040,-985 1076.07,-1026.9 1234.54,-1001.81 1286,-1022 1326.07,-1037.72 1366.07,-1067.46 1391.36,-1088.44"/>
<polygon fill="green" stroke="green" points="1389.14,-1091.14 1399.04,-1094.92 1393.65,-1085.79 1389.14,-1091.14"/>
</g>
<!-- node23&#45;&gt;node22 -->
<g id="edge61" class="edge">
<title>node23&#45;&gt;node22</title>
<path fill="none" stroke="fuchsia" stroke-width="2" d="M666.86,-401.03C667.71,-409.03 667.95,-418.77 667.59,-427.75"/>
<polygon fill="fuchsia" stroke="fuchsia" stroke-width="2" points="664.09,-427.59 666.88,-437.81 671.07,-428.08 664.09,-427.59"/>
</g>
<!-- node23&#45;&gt;node24 -->
<g id="edge65" class="edge">
<title>node23&#45;&gt;node24</title>
<path fill="none" stroke="black" d="M664.15,-364.81C665.62,-356.79 667.4,-347.05 669.04,-338.07"/>
<polygon fill="black" stroke="black" points="672.52,-338.5 670.88,-328.03 665.64,-337.23 672.52,-338.5"/>
<text text-anchor="middle" x="675.93" y="-343.68" font-family="Times,serif" font-size="14.00">*1</text>
</g>
<!-- node24&#45;&gt;node0 -->
<g id="edge63" class="edge">
<title>node24&#45;&gt;node0</title>
<path fill="none" stroke="fuchsia" stroke-width="2" d="M863.79,-319C1207.7,-334.99 1906.91,-374.86 1998,-438 2049.62,-473.78 2060,-502.19 2060,-565 2060,-712 2060,-712 2060,-712 2060,-776.45 2062,-792.55 2062,-857 2062,-1187 2062,-1187 2062,-1187 2062,-1268.09 2043.43,-1299.48 1980,-1350 1954.78,-1370.08 1941.91,-1364.4 1910,-1369 1729.88,-1394.99 1276.96,-1368.5 1081.29,-1386.66"/>
<polygon fill="fuchsia" stroke="fuchsia" stroke-width="2" points="1080.92,-1383.18 1071.32,-1387.65 1081.61,-1390.15 1080.92,-1383.18"/>
</g>
<!-- node24&#45;&gt;node25 -->
<g id="edge67" class="edge">
<title>node24&#45;&gt;node25</title>
<path fill="none" stroke="black" d="M655.84,-291.81C646.45,-282.92 634.82,-271.91 624.53,-262.17"/>
<polygon fill="black" stroke="black" points="626.66,-259.36 616.99,-255.03 621.84,-264.45 626.66,-259.36"/>
<text text-anchor="middle" x="635.96" y="-257.65" font-family="Times,serif" font-size="14.00">*0</text>
</g>
<!-- node25&#45;&gt;node0 -->
<g id="edge66" class="edge">
<title>node25&#45;&gt;node0</title>
<path fill="none" stroke="fuchsia" stroke-width="2" d="M528.8,-239.7C378.27,-244.29 38,-260.07 38,-309 38,-1333 38,-1333 38,-1333 38,-1428.57 154.68,-1362.08 250,-1369 481.52,-1385.82 754.51,-1396.35 894.64,-1401.08"/>
<polygon fill="fuchsia" stroke="fuchsia" stroke-width="2" points="894.8,-1404.58 904.91,-1401.42 895.03,-1397.59 894.8,-1404.58"/>
</g>
<!-- node26 -->
<g id="node29" class="node">
<title>node26</title>
<polygon fill="lightgrey" stroke="black" points="680.5,-182 517.5,-182 517.5,-146 680.5,-146 680.5,-182"/>
<text text-anchor="middle" x="599" y="-160.3" font-family="Times,serif" font-size="14.00">#26 false Order : 30</text>
</g>
<!-- node25&#45;&gt;node26 -->
<g id="edge70" class="edge">
<title>node25&#45;&gt;node26</title>
<path fill="none" stroke="red" d="M593.12,-218.81C592.28,-210.79 592.05,-201.05 592.42,-192.07"/>
<polygon fill="red" stroke="red" points="595.92,-192.25 593.14,-182.03 588.94,-191.75 595.92,-192.25"/>
</g>
<!-- node28 -->
<g id="node31" class="node">
<title>node28</title>
<polygon fill="lightgrey" stroke="black" points="857.5,-182 698.5,-182 698.5,-146 857.5,-146 857.5,-182"/>
<text text-anchor="middle" x="778" y="-160.3" font-family="Times,serif" font-size="14.00">#28 true Order : 28</text>
</g>
<!-- node25&#45;&gt;node28 -->
<g id="edge78" class="edge">
<title>node25&#45;&gt;node28</title>
<path fill="none" stroke="red" d="M636.02,-218.99C660.12,-209.01 692,-196.32 719.47,-185.76"/>
<polygon fill="red" stroke="red" points="720.9,-188.96 728.98,-182.11 718.39,-182.42 720.9,-188.96"/>
</g>
<!-- node26&#45;&gt;node25 -->
<g id="edge69" class="edge">
<title>node26&#45;&gt;node25</title>
<path fill="none" stroke="fuchsia" stroke-width="2" d="M604.86,-182.03C605.71,-190.03 605.95,-199.77 605.59,-208.75"/>
<polygon fill="fuchsia" stroke="fuchsia" stroke-width="2" points="602.09,-208.59 604.88,-218.81 609.07,-209.08 602.09,-208.59"/>
</g>
<!-- node26&#45;&gt;node27 -->
<g id="edge76" class="edge">
<title>node26&#45;&gt;node27</title>
<path fill="none" stroke="red" d="M676.61,-145.99C724.33,-135.53 785.62,-122.11 835.13,-111.26"/>
<polygon fill="red" stroke="red" points="836.17,-114.61 845.19,-109.05 834.67,-107.77 836.17,-114.61"/>
</g>
<!-- node27&#45;&gt;node0 -->
<g id="edge71" class="edge">
<title>node27&#45;&gt;node0</title>
<path fill="none" stroke="fuchsia" stroke-width="2" d="M797.08,-95.31C544.5,-102.79 0,-123.5 0,-163 0,-1333 0,-1333 0,-1333 0,-1430.76 119.51,-1361.73 217,-1369 461.18,-1387.2 749.62,-1397.25 894.71,-1401.51"/>
<polygon fill="fuchsia" stroke="fuchsia" stroke-width="2" points="894.8,-1405.02 904.9,-1401.81 895.01,-1398.02 894.8,-1405.02"/>
</g>
<!-- node29 -->
<g id="node32" class="node">
<title>node29</title>
<polygon fill="lightgrey" stroke="black" points="1004.5,-36 841.5,-36 841.5,0 1004.5,0 1004.5,-36"/>
<text text-anchor="middle" x="923" y="-14.3" font-family="Times,serif" font-size="14.00">#29 Goto Order : 15</text>
</g>
<!-- node27&#45;&gt;node29 -->
<g id="edge80" class="edge">
<title>node27&#45;&gt;node29</title>
<path fill="none" stroke="red" d="M917.12,-72.81C916.28,-64.79 916.05,-55.05 916.42,-46.07"/>
<polygon fill="red" stroke="red" points="919.92,-46.25 917.14,-36.03 912.94,-45.75 919.92,-46.25"/>
</g>
<!-- node27&#45;&gt;node32 -->
<g id="edge92" class="edge">
<title>node27&#45;&gt;node32</title>
<path fill="none" stroke="green" d="M1009.23,-109.05C1157.16,-140.18 1449.38,-210.59 1511,-292 1511.93,-293.23 1586.87,-728.46 1587,-730 1589.1,-754.35 1597.47,-762.91 1587,-785 1521.09,-923.98 1457.86,-937.83 1319,-1004 1306.25,-1010.07 1292.47,-1015.1 1278.47,-1019.25"/>
<polygon fill="green" stroke="green" points="1277.43,-1015.91 1268.75,-1021.99 1279.33,-1022.65 1277.43,-1015.91"/>
</g>
<!-- node28&#45;&gt;node25 -->
<g id="edge77" class="edge">
<title>node28&#45;&gt;node25</title>
<path fill="none" stroke="fuchsia" stroke-width="2" d="M740.73,-182.11C716.56,-192.11 684.68,-204.81 657.24,-215.36"/>
<polygon fill="fuchsia" stroke="fuchsia" stroke-width="2" points="655.82,-212.15 647.73,-218.99 658.32,-218.69 655.82,-212.15"/>
</g>
<!-- node30 -->
<g id="node33" class="node">
<title>node30</title>
<polygon fill="lightgrey" stroke="black" points="1273,-109 1067,-109 1067,-73 1273,-73 1273,-109"/>
<text text-anchor="middle" x="1170" y="-87.3" font-family="Times,serif" font-size="14.00">#30 LabelNode Order : 29</text>
</g>
<!-- node28&#45;&gt;node30 -->
<g id="edge82" class="edge">
<title>node28&#45;&gt;node30</title>
<path fill="none" stroke="red" d="M857.85,-147.51C916.12,-136.72 995.76,-122.27 1060.03,-110.82"/>
<polygon fill="red" stroke="red" points="1060.97,-114.21 1070.21,-109.01 1059.75,-107.32 1060.97,-114.21"/>
</g>
<!-- node29&#45;&gt;node27 -->
<g id="edge79" class="edge">
<title>node29&#45;&gt;node27</title>
<path fill="none" stroke="fuchsia" stroke-width="2" d="M928.86,-36.03C929.71,-44.03 929.95,-53.77 929.59,-62.75"/>
<polygon fill="fuchsia" stroke="fuchsia" stroke-width="2" points="926.09,-62.59 928.88,-72.81 933.07,-63.08 926.09,-62.59"/>
</g>
<!-- node29&#45;&gt;node32 -->
<g id="edge90" class="edge">
<title>node29&#45;&gt;node32</title>
<path fill="none" stroke="red" d="M1004.95,-26.12C1117.19,-37 1305,-59.73 1305,-90 1305,-749 1305,-749 1305,-749 1305,-806.44 1286.36,-818.81 1281,-876 1279.51,-891.93 1279.93,-896.04 1281,-912 1283.18,-944.45 1304.27,-958.09 1286,-985 1276.22,-999.41 1261.93,-1009.97 1246.24,-1017.72"/>
<polygon fill="red" stroke="red" points="1244.53,-1014.65 1236.86,-1021.96 1247.42,-1021.02 1244.53,-1014.65"/>
</g>
<!-- node30&#45;&gt;node28 -->
<g id="edge81" class="edge">
<title>node30&#45;&gt;node28</title>
<path fill="none" stroke="fuchsia" stroke-width="2" d="M1081.87,-109.02C1017.99,-120.82 931.97,-136.39 867.73,-147.77"/>
<polygon fill="fuchsia" stroke="fuchsia" stroke-width="2" points="866.85,-144.37 857.62,-149.56 868.07,-151.27 866.85,-144.37"/>
</g>
<!-- node30&#45;&gt;node31 -->
<g id="edge88" class="edge">
<title>node30&#45;&gt;node31</title>
<path fill="none" stroke="red" d="M1273.02,-105.38C1368.87,-124.29 1497,-169.02 1497,-273 1497,-1041 1497,-1041 1497,-1041 1497,-1061.41 1482.23,-1077.45 1465.46,-1089.08"/>
<polygon fill="red" stroke="red" points="1463.12,-1086.42 1456.57,-1094.75 1466.89,-1092.32 1463.12,-1086.42"/>
</g>
<!-- node31&#45;&gt;node0 -->
<g id="edge83" class="edge">
<title>node31&#45;&gt;node0</title>
<path fill="none" stroke="fuchsia" stroke-width="2" d="M1326.87,-1131.05C1276.9,-1143.09 1225,-1161.3 1225,-1185 1225,-1333 1225,-1333 1225,-1333 1225,-1399.87 1152.99,-1377.68 1081.44,-1386.5"/>
<polygon fill="fuchsia" stroke="fuchsia" stroke-width="2" points="1080.75,-1383.06 1071.36,-1387.96 1081.76,-1389.99 1080.75,-1383.06"/>
</g>
<!-- node31&#45;&gt;node32 -->
<g id="edge91" class="edge">
<title>node31&#45;&gt;node32</title>
<path fill="none" stroke="red" d="M1347.95,-1094.99C1308.03,-1084.71 1258.26,-1071.55 1218.58,-1060.79"/>
<polygon fill="red" stroke="red" points="1219.3,-1057.36 1208.73,-1058.11 1217.46,-1064.11 1219.3,-1057.36"/>
</g>
<!-- node31&#45;&gt;node32 -->
<g id="edge93" class="edge">
<title>node31&#45;&gt;node32</title>
<path fill="none" stroke="green" d="M1359.67,-1094.99C1321.77,-1084.66 1271.92,-1071.43 1230.31,-1060.66"/>
<polygon fill="green" stroke="green" points="1231.03,-1057.23 1220.47,-1058.11 1229.27,-1064 1231.03,-1057.23"/>
</g>
<!-- node32&#45;&gt;node0 -->
<g id="edge89" class="edge">
<title>node32&#45;&gt;node0</title>
<path fill="none" stroke="fuchsia" stroke-width="2" d="M1050.4,-1058.06C941.63,-1078.97 777.93,-1117.86 741,-1168 731.51,-1180.88 732.39,-1190.52 741,-1204 766.96,-1244.64 810.59,-1205.29 843,-1241 876.16,-1277.53 833.16,-1311.49 864,-1350 875.52,-1364.38 891.62,-1375.02 908.42,-1382.86"/>
<polygon fill="fuchsia" stroke="fuchsia" stroke-width="2" points="907.24,-1386.16 917.8,-1386.93 910.03,-1379.74 907.24,-1386.16"/>
</g>
<!-- node32&#45;&gt;node33 -->
<g id="edge95" class="edge">
<title>node32&#45;&gt;node33</title>
<path fill="none" stroke="red" d="M1070.49,-1021.96C1049.04,-1016.57 1026,-1010.36 1005,-1004 989.68,-999.36 973.26,-993.86 958.44,-988.58"/>
<polygon fill="red" stroke="red" points="959.57,-985.26 948.97,-985.15 957.18,-991.84 959.57,-985.26"/>
</g>
<!-- node34 -->
<g id="node36" class="node">
<title>node34</title>
<polygon fill="lightgreen" stroke="black" points="1276.93,-959.54 1276.93,-974.46 1210.19,-985 1115.81,-985 1049.07,-974.46 1049.07,-959.54 1115.81,-949 1210.19,-949 1276.93,-959.54"/>
<text text-anchor="middle" x="1163" y="-963.3" font-family="Times,serif" font-size="14.00">#34 int 1 Order : 17</text>
</g>
<!-- node32&#45;&gt;node34 -->
<g id="edge97" class="edge">
<title>node32&#45;&gt;node34</title>
<path fill="none" stroke="black" stroke-dasharray="1,5" d="M1147.27,-1021.81C1147.91,-1013.7 1149.48,-1003.84 1151.53,-994.78"/>
<polygon fill="black" stroke="black" points="1154.94,-995.58 1154.02,-985.03 1148.16,-993.85 1154.94,-995.58"/>
</g>
<!-- node34&#45;&gt;node35 -->
<g id="edge100" class="edge">
<title>node34&#45;&gt;node35</title>
<path fill="none" stroke="black" d="M1089.73,-953.06C1022.25,-941.14 921.97,-923.43 849.92,-910.71"/>
<polygon fill="black" stroke="black" points="850.41,-907.24 839.95,-908.94 849.19,-914.13 850.41,-907.24"/>
<text text-anchor="middle" x="859.27" y="-900.07" font-family="Times,serif" font-size="14.00">*1</text>
</g>
<!-- node34&#45;&gt;node32 -->
<g id="edge96" class="edge">
<title>node34&#45;&gt;node32</title>
<path fill="none" stroke="fuchsia" stroke-width="2" d="M1165.74,-985.03C1165.12,-993.12 1163.55,-1002.98 1161.51,-1012.05"/>
<polygon fill="fuchsia" stroke="fuchsia" stroke-width="2" points="1158.1,-1011.26 1159.03,-1021.81 1164.88,-1012.98 1158.1,-1011.26"/>
</g>
<!-- c0 -->
<!-- c1 -->
<!-- c0&#45;&gt;c1 -->
<g id="edge101" class="edge">
<title>c0&#45;&gt;c1</title>
<path fill="none" stroke="red" d="M1939.89,-1405C1951.11,-1405 2009.24,-1405 2034.86,-1405"/>
<polygon fill="red" stroke="red" points="2035.06,-1408.5 2045.06,-1405 2035.06,-1401.5 2035.06,-1408.5"/>
<text text-anchor="middle" x="1992.5" y="-1411.8" font-family="Times,serif" font-size="14.00">Control flow</text>
</g>
<!-- c2 -->
<!-- c3 -->
<!-- c2&#45;&gt;c3 -->
<g id="edge102" class="edge">
<title>c2&#45;&gt;c3</title>
<path fill="none" stroke="red" stroke-dasharray="5,2" d="M1733.08,-1405C1750.05,-1405 1866.21,-1405 1904.08,-1405"/>
<polygon fill="red" stroke="red" points="1904.17,-1408.5 1914.17,-1405 1904.17,-1401.5 1904.17,-1408.5"/>
<text text-anchor="middle" x="1823.5" y="-1411.8" font-family="Times,serif" font-size="14.00">Control flow back edge</text>
</g>
<!-- d0 -->
<!-- d1 -->
<!-- d0&#45;&gt;d1 -->
<g id="edge103" class="edge">
<title>d0&#45;&gt;d1</title>
<path fill="none" stroke="black" d="M1621.86,-1405C1631.41,-1405 1675.31,-1405 1696.92,-1405"/>
<polygon fill="black" stroke="black" points="1697.15,-1408.5 1707.15,-1405 1697.15,-1401.5 1697.15,-1408.5"/>
<text text-anchor="middle" x="1664.5" y="-1411.8" font-family="Times,serif" font-size="14.00">Data flow</text>
</g>
<!-- d2 -->
<!-- d3 -->
<!-- d2&#45;&gt;d3 -->
<g id="edge104" class="edge">
<title>d2&#45;&gt;d3</title>
<path fill="none" stroke="black" stroke-dasharray="1,5" d="M1495.81,-1405C1506.46,-1405 1561.46,-1405 1586.08,-1405"/>
<polygon fill="black" stroke="black" points="1586.15,-1408.5 1596.15,-1405 1586.15,-1401.5 1586.15,-1408.5"/>
<text text-anchor="middle" x="1546" y="-1411.8" font-family="Times,serif" font-size="14.00">Declaration</text>
</g>
<!-- d4 -->
<!-- d5 -->
<!-- d4&#45;&gt;d5 -->
<g id="edge105" class="edge">
<title>d4&#45;&gt;d5</title>
<path fill="none" stroke="blue" d="M1353.1,-1405C1365.72,-1405 1431.88,-1405 1459.68,-1405"/>
<polygon fill="blue" stroke="blue" points="1459.84,-1408.5 1469.84,-1405 1459.84,-1401.5 1459.84,-1408.5"/>
<text text-anchor="middle" x="1411.5" y="-1411.8" font-family="Times,serif" font-size="14.00">PHI Data flow</text>
</g>
<!-- d6 -->
<!-- d7 -->
<!-- d6&#45;&gt;d7 -->
<g id="edge106" class="edge">
<title>d6&#45;&gt;d7</title>
<path fill="none" stroke="green" d="M1216,-1405C1227.94,-1405 1290.3,-1405 1316.93,-1405"/>
<polygon fill="green" stroke="green" points="1316.95,-1408.5 1326.95,-1405 1316.95,-1401.5 1316.95,-1408.5"/>
<text text-anchor="middle" x="1271.5" y="-1411.8" font-family="Times,serif" font-size="14.00">Memory flow</text>
</g>
<!-- d8 -->
<!-- d9 -->
<!-- d8&#45;&gt;d9 -->
<g id="edge107" class="edge">
<title>d8&#45;&gt;d9</title>
<path fill="none" stroke="fuchsia" d="M1093.11,-1405C1104.15,-1405 1155.67,-1405 1179.66,-1405"/>
<polygon fill="fuchsia" stroke="fuchsia" points="1179.9,-1408.5 1189.9,-1405 1179.9,-1401.5 1179.9,-1408.5"/>
<text text-anchor="middle" x="1141.5" y="-1411.8" font-family="Times,serif" font-size="14.00">Dominance</text>
</g>
</g>
</svg>
