<?xml version="1.0" encoding="UTF-8" standalone="no"?>
<!DOCTYPE svg PUBLIC "-//W3C//DTD SVG 1.1//EN"
 "http://www.w3.org/Graphics/SVG/1.1/DTD/svg11.dtd">
<!-- Generated by graphviz version 2.43.0 (0)
 -->
<!-- Title: %3 Pages: 1 -->
<svg width="1426pt" height="386pt"
 viewBox="0.00 0.00 1426.37 385.80" xmlns="http://www.w3.org/2000/svg" xmlns:xlink="http://www.w3.org/1999/xlink">
<g id="graph0" class="graph" transform="scale(1 1) rotate(0) translate(4 381.8)">
<title>%3</title>
<polygon fill="white" stroke="transparent" points="-4,4 -4,-381.8 1422.37,-381.8 1422.37,4 -4,4"/>
<g id="clust1" class="cluster">
<title>cluster_000</title>
<polygon fill="none" stroke="black" points="557.37,-327.2 557.37,-369.8 1410.37,-369.8 1410.37,-327.2 557.37,-327.2"/>
<text text-anchor="middle" x="983.87" y="-354.6" font-family="Times,serif" font-size="14.00">Legend</text>
</g>
<!-- node0 -->
<g id="node1" class="node">
<title>node0</title>
<polygon fill="lightgrey" stroke="transparent" points="547.37,-364 231.37,-364 231.37,-310 547.37,-310 547.37,-364"/>
<polygon fill="none" stroke="black" points="231.37,-337 231.37,-364 547.37,-364 547.37,-337 231.37,-337"/>
<text text-anchor="start" x="348.87" y="-346.8" font-family="Times,serif" font-size="14.00">#0 Method</text>
<polygon fill="yellow" stroke="transparent" points="231.37,-310 231.37,-337 310.37,-337 310.37,-310 231.37,-310"/>
<polygon fill="none" stroke="black" points="231.37,-310 231.37,-337 310.37,-337 310.37,-310 231.37,-310"/>
<text text-anchor="start" x="237.37" y="-319.8" font-family="Times,serif" font-size="14.00">arg0 : int</text>
<polygon fill="yellow" stroke="transparent" points="310.37,-310 310.37,-337 389.37,-337 389.37,-310 310.37,-310"/>
<polygon fill="none" stroke="black" points="310.37,-310 310.37,-337 389.37,-337 389.37,-310 310.37,-310"/>
<text text-anchor="start" x="316.37" y="-319.8" font-family="Times,serif" font-size="14.00">arg1 : int</text>
<polygon fill="yellow" stroke="transparent" points="389.37,-310 389.37,-337 468.37,-337 468.37,-310 389.37,-310"/>
<polygon fill="none" stroke="black" points="389.37,-310 389.37,-337 468.37,-337 468.37,-310 389.37,-310"/>
<text text-anchor="start" x="395.37" y="-319.8" font-family="Times,serif" font-size="14.00">arg2 : int</text>
<polygon fill="yellow" stroke="transparent" points="468.37,-310 468.37,-337 547.37,-337 547.37,-310 468.37,-310"/>
<polygon fill="none" stroke="black" points="468.37,-310 468.37,-337 547.37,-337 547.37,-310 468.37,-310"/>
<text text-anchor="start" x="474.37" y="-319.8" font-family="Times,serif" font-size="14.00">arg3 : int</text>
</g>
<!-- node7 -->
<g id="node2" class="node">
<title>node7</title>
<polygon fill="lightgrey" stroke="transparent" points="343.87,-200 254.87,-200 254.87,-146 343.87,-146 343.87,-200"/>
<polygon fill="none" stroke="black" points="255.37,-173 255.37,-200 344.37,-200 344.37,-173 255.37,-173"/>
<text text-anchor="start" x="281.37" y="-182.8" font-family="Times,serif" font-size="14.00">#7 If</text>
<polygon fill="yellow" stroke="transparent" points="255.37,-146 255.37,-173 301.37,-173 301.37,-146 255.37,-146"/>
<polygon fill="none" stroke="black" points="255.37,-146 255.37,-173 301.37,-173 301.37,-146 255.37,-146"/>
<text text-anchor="start" x="261.37" y="-155.8" font-family="Times,serif" font-size="14.00">false</text>
<polygon fill="yellow" stroke="transparent" points="301.37,-146 301.37,-173 344.37,-173 344.37,-146 301.37,-146"/>
<polygon fill="none" stroke="black" points="301.37,-146 301.37,-173 344.37,-173 344.37,-146 301.37,-146"/>
<text text-anchor="start" x="307.37" y="-155.8" font-family="Times,serif" font-size="14.00">true</text>
</g>
<!-- node0&#45;&gt;node7 -->
<g id="edge3" class="edge">
<title>node0&#45;&gt;node7</title>
<path fill="none" stroke="green" d="M231.32,-329.55C141.62,-322.2 41.73,-306.5 13.37,-273 -52.2,-195.53 144.02,-178.6 244.29,-174.96"/>
<polygon fill="green" stroke="green" points="244.68,-178.45 254.56,-174.62 244.45,-171.46 244.68,-178.45"/>
</g>
<!-- node6 -->
<g id="node3" class="node">
<title>node6</title>
<polygon fill="orange" stroke="black" points="312.21,-247.54 312.21,-262.46 227.37,-273 107.38,-273 22.53,-262.46 22.53,-247.54 107.38,-237 227.37,-237 312.21,-247.54"/>
<text text-anchor="middle" x="167.37" y="-251.3" font-family="Times,serif" font-size="14.00">#6 NumericCondition : LE</text>
</g>
<!-- node0&#45;&gt;node6 -->
<g id="edge5" class="edge">
<title>node0:prj4&#45;&gt;node6</title>
<path fill="none" stroke="black" d="M230.37,-323C207.02,-323 189.78,-301.12 179.3,-282.37"/>
<polygon fill="black" stroke="black" points="182.28,-280.52 174.57,-273.25 176.07,-283.74 182.28,-280.52"/>
<text text-anchor="middle" x="190.42" y="-281.75" font-family="Times,serif" font-size="14.00">*0</text>
</g>
<!-- node0&#45;&gt;node6 -->
<g id="edge6" class="edge">
<title>node0:prj3&#45;&gt;node6</title>
<path fill="none" stroke="black" d="M349.37,-310C349.37,-291.43 314.1,-278.74 274.6,-270.36"/>
<polygon fill="black" stroke="black" points="275.26,-266.92 264.77,-268.37 273.88,-273.78 275.26,-266.92"/>
<text text-anchor="middle" x="284.21" y="-259.97" font-family="Times,serif" font-size="14.00">*1</text>
</g>
<!-- node5 -->
<g id="node4" class="node">
<title>node5</title>
<polygon fill="lightgrey" stroke="black" points="448.87,-273 329.87,-273 329.87,-237 448.87,-237 448.87,-273"/>
<text text-anchor="middle" x="389.37" y="-251.3" font-family="Times,serif" font-size="14.00">#5 LabelNode</text>
</g>
<!-- node0&#45;&gt;node5 -->
<g id="edge4" class="edge">
<title>node0&#45;&gt;node5</title>
<path fill="none" stroke="red" d="M389.37,-309.81C389.37,-301.35 389.37,-291.95 389.37,-283.4"/>
<polygon fill="red" stroke="red" points="392.87,-283.17 389.37,-273.17 385.87,-283.17 392.87,-283.17"/>
</g>
<!-- node10 -->
<g id="node5" class="node">
<title>node10</title>
<polygon fill="lightgrey" stroke="black" points="537.87,-109 364.87,-109 364.87,-73 537.87,-73 537.87,-109"/>
<text text-anchor="middle" x="451.37" y="-87.3" font-family="Times,serif" font-size="14.00">#10 ReturnValue : int</text>
</g>
<!-- node0&#45;&gt;node10 -->
<g id="edge7" class="edge">
<title>node0:prj2&#45;&gt;node10</title>
<path fill="none" stroke="black" d="M429.37,-310C429.37,-289.38 450.81,-292.55 457.37,-273 474.95,-220.64 465.58,-154.92 457.97,-118.82"/>
<polygon fill="black" stroke="black" points="461.38,-118.04 455.79,-109.04 454.55,-119.56 461.38,-118.04"/>
<text text-anchor="middle" x="467.98" y="-121.2" font-family="Times,serif" font-size="14.00">*0</text>
</g>
<!-- node12 -->
<g id="node7" class="node">
<title>node12</title>
<polygon fill="lightgrey" stroke="black" points="529.87,-36 356.87,-36 356.87,0 529.87,0 529.87,-36"/>
<text text-anchor="middle" x="443.37" y="-14.3" font-family="Times,serif" font-size="14.00">#12 ReturnValue : int</text>
</g>
<!-- node0&#45;&gt;node12 -->
<g id="edge11" class="edge">
<title>node0:prj1&#45;&gt;node12</title>
<path fill="none" stroke="black" d="M548.37,-323C554.56,-323 550.07,-315.24 553.37,-310 570.97,-282.07 604.37,-289.01 604.37,-256 604.37,-256 604.37,-256 604.37,-90 604.37,-56.07 574.07,-38.22 539.76,-28.88"/>
<polygon fill="black" stroke="black" points="540.55,-25.47 530,-26.47 538.87,-32.26 540.55,-25.47"/>
<text text-anchor="middle" x="549.63" y="-18.91" font-family="Times,serif" font-size="14.00">*0</text>
</g>
<!-- node7&#45;&gt;node10 -->
<g id="edge8" class="edge">
<title>node7:prj9&#45;&gt;node10</title>
<path fill="none" stroke="red" d="M278.37,-146C273.18,-144.55 328.54,-126.81 378.05,-112.05"/>
<polygon fill="red" stroke="red" points="379.26,-115.34 387.86,-109.14 377.27,-108.63 379.26,-115.34"/>
</g>
<!-- node7&#45;&gt;node10 -->
<g id="edge9" class="edge">
<title>node7&#45;&gt;node10</title>
<path fill="none" stroke="green" d="M278.61,-145.93C285.18,-144.07 344.03,-126.59 391.31,-112.03"/>
<polygon fill="green" stroke="green" points="392.37,-115.36 400.89,-109.06 390.31,-108.67 392.37,-115.36"/>
</g>
<!-- node11 -->
<g id="node6" class="node">
<title>node11</title>
<polygon fill="lightgrey" stroke="black" points="346.37,-109 218.37,-109 218.37,-73 346.37,-73 346.37,-109"/>
<text text-anchor="middle" x="282.37" y="-87.3" font-family="Times,serif" font-size="14.00">#11 LabelNode</text>
</g>
<!-- node7&#45;&gt;node11 -->
<g id="edge10" class="edge">
<title>node7:prj8&#45;&gt;node11</title>
<path fill="none" stroke="red" d="M323.37,-146C323.37,-135.12 318.03,-125.05 311.19,-116.63"/>
<polygon fill="red" stroke="red" points="313.64,-114.12 304.31,-109.09 308.47,-118.84 313.64,-114.12"/>
</g>
<!-- node7&#45;&gt;node12 -->
<g id="edge13" class="edge">
<title>node7&#45;&gt;node12</title>
<path fill="none" stroke="green" d="M343.96,-167.12C408.19,-159.08 521.77,-140.67 546.37,-109 556.19,-96.37 554.65,-86.69 546.37,-73 537.94,-59.05 524.58,-48.53 510.24,-40.66"/>
<polygon fill="green" stroke="green" points="511.72,-37.49 501.22,-36.1 508.56,-43.73 511.72,-37.49"/>
</g>
<!-- node6&#45;&gt;node7 -->
<g id="edge1" class="edge">
<title>node6&#45;&gt;node7</title>
<path fill="none" stroke="black" d="M195.69,-236.84C210.86,-227.64 230.02,-216.03 247.73,-205.3"/>
<polygon fill="black" stroke="black" points="249.55,-208.29 256.29,-200.11 245.92,-202.3 249.55,-208.29"/>
<text text-anchor="middle" x="245.17" y="-213.04" font-family="Times,serif" font-size="14.00">*0</text>
</g>
<!-- node5&#45;&gt;node7 -->
<g id="edge2" class="edge">
<title>node5&#45;&gt;node7</title>
<path fill="none" stroke="red" d="M369.84,-236.64C360.1,-227.98 347.98,-217.2 336.55,-207.05"/>
<polygon fill="red" stroke="red" points="338.59,-204.17 328.79,-200.15 333.94,-209.41 338.59,-204.17"/>
</g>
<!-- node11&#45;&gt;node12 -->
<g id="edge12" class="edge">
<title>node11&#45;&gt;node12</title>
<path fill="none" stroke="red" d="M320.94,-72.99C343.28,-63.14 371.59,-50.66 395.36,-40.17"/>
<polygon fill="red" stroke="red" points="396.83,-43.35 404.57,-36.11 394,-36.95 396.83,-43.35"/>
</g>
<!-- c0 -->
<!-- c1 -->
<!-- c0&#45;&gt;c1 -->
<g id="edge14" class="edge">
<title>c0&#45;&gt;c1</title>
<path fill="none" stroke="red" d="M1293.27,-337C1304.48,-337 1362.62,-337 1388.23,-337"/>
<polygon fill="red" stroke="red" points="1388.43,-340.5 1398.43,-337 1388.43,-333.5 1388.43,-340.5"/>
<text text-anchor="middle" x="1345.87" y="-343.8" font-family="Times,serif" font-size="14.00">Control flow</text>
</g>
<!-- c2 -->
<!-- c3 -->
<!-- c2&#45;&gt;c3 -->
<g id="edge15" class="edge">
<title>c2&#45;&gt;c3</title>
<path fill="none" stroke="red" stroke-dasharray="5,2" d="M1086.45,-337C1103.42,-337 1219.58,-337 1257.46,-337"/>
<polygon fill="red" stroke="red" points="1257.54,-340.5 1267.54,-337 1257.54,-333.5 1257.54,-340.5"/>
<text text-anchor="middle" x="1176.87" y="-343.8" font-family="Times,serif" font-size="14.00">Control flow back edge</text>
</g>
<!-- d0 -->
<!-- d1 -->
<!-- d0&#45;&gt;d1 -->
<g id="edge16" class="edge">
<title>d0&#45;&gt;d1</title>
<path fill="none" stroke="black" d="M975.23,-337C984.78,-337 1028.68,-337 1050.29,-337"/>
<polygon fill="black" stroke="black" points="1050.52,-340.5 1060.52,-337 1050.52,-333.5 1050.52,-340.5"/>
<text text-anchor="middle" x="1017.87" y="-343.8" font-family="Times,serif" font-size="14.00">Data flow</text>
</g>
<!-- d2 -->
<!-- d3 -->
<!-- d2&#45;&gt;d3 -->
<g id="edge17" class="edge">
<title>d2&#45;&gt;d3</title>
<path fill="none" stroke="black" stroke-dasharray="1,5" d="M849.18,-337C859.83,-337 914.84,-337 939.45,-337"/>
<polygon fill="black" stroke="black" points="939.52,-340.5 949.52,-337 939.52,-333.5 939.52,-340.5"/>
<text text-anchor="middle" x="899.37" y="-343.8" font-family="Times,serif" font-size="14.00">Declaration</text>
</g>
<!-- d4 -->
<!-- d5 -->
<!-- d4&#45;&gt;d5 -->
<g id="edge18" class="edge">
<title>d4&#45;&gt;d5</title>
<path fill="none" stroke="blue" d="M706.47,-337C719.1,-337 785.25,-337 813.05,-337"/>
<polygon fill="blue" stroke="blue" points="813.22,-340.5 823.22,-337 813.22,-333.5 813.22,-340.5"/>
<text text-anchor="middle" x="764.87" y="-343.8" font-family="Times,serif" font-size="14.00">PHI Data flow</text>
</g>
<!-- d6 -->
<!-- d7 -->
<!-- d6&#45;&gt;d7 -->
<g id="edge19" class="edge">
<title>d6&#45;&gt;d7</title>
<path fill="none" stroke="green" d="M569.37,-337C581.31,-337 643.67,-337 670.3,-337"/>
<polygon fill="green" stroke="green" points="670.32,-340.5 680.32,-337 670.32,-333.5 670.32,-340.5"/>
<text text-anchor="middle" x="624.87" y="-343.8" font-family="Times,serif" font-size="14.00">Memory flow</text>
</g>
</g>
</svg>
