<?xml version="1.0" encoding="UTF-8" standalone="no"?>
<!DOCTYPE svg PUBLIC "-//W3C//DTD SVG 1.1//EN"
 "http://www.w3.org/Graphics/SVG/1.1/DTD/svg11.dtd">
<!-- Generated by graphviz version 2.43.0 (0)
 -->
<!-- Title: %3 Pages: 1 -->
<svg width="1426pt" height="386pt"
 viewBox="0.00 0.00 1426.30 385.80" xmlns="http://www.w3.org/2000/svg" xmlns:xlink="http://www.w3.org/1999/xlink">
<g id="graph0" class="graph" transform="scale(1 1) rotate(0) translate(4 381.8)">
<title>%3</title>
<polygon fill="white" stroke="transparent" points="-4,4 -4,-381.8 1422.3,-381.8 1422.3,4 -4,4"/>
<g id="clust1" class="cluster">
<title>cluster_000</title>
<polygon fill="none" stroke="black" points="557.3,-327.2 557.3,-369.8 1410.3,-369.8 1410.3,-327.2 557.3,-327.2"/>
<text text-anchor="middle" x="983.8" y="-354.6" font-family="Times,serif" font-size="14.00">Legend</text>
</g>
<!-- node0 -->
<g id="node1" class="node">
<title>node0</title>
<polygon fill="lightgrey" stroke="transparent" points="547.3,-364 231.3,-364 231.3,-310 547.3,-310 547.3,-364"/>
<polygon fill="none" stroke="black" points="231.3,-337 231.3,-364 547.3,-364 547.3,-337 231.3,-337"/>
<text text-anchor="start" x="348.8" y="-346.8" font-family="Times,serif" font-size="14.00">#0 Method</text>
<polygon fill="yellow" stroke="transparent" points="231.3,-310 231.3,-337 310.3,-337 310.3,-310 231.3,-310"/>
<polygon fill="none" stroke="black" points="231.3,-310 231.3,-337 310.3,-337 310.3,-310 231.3,-310"/>
<text text-anchor="start" x="237.3" y="-319.8" font-family="Times,serif" font-size="14.00">arg0 : int</text>
<polygon fill="yellow" stroke="transparent" points="310.3,-310 310.3,-337 389.3,-337 389.3,-310 310.3,-310"/>
<polygon fill="none" stroke="black" points="310.3,-310 310.3,-337 389.3,-337 389.3,-310 310.3,-310"/>
<text text-anchor="start" x="316.3" y="-319.8" font-family="Times,serif" font-size="14.00">arg1 : int</text>
<polygon fill="yellow" stroke="transparent" points="389.3,-310 389.3,-337 468.3,-337 468.3,-310 389.3,-310"/>
<polygon fill="none" stroke="black" points="389.3,-310 389.3,-337 468.3,-337 468.3,-310 389.3,-310"/>
<text text-anchor="start" x="395.3" y="-319.8" font-family="Times,serif" font-size="14.00">arg2 : int</text>
<polygon fill="yellow" stroke="transparent" points="468.3,-310 468.3,-337 547.3,-337 547.3,-310 468.3,-310"/>
<polygon fill="none" stroke="black" points="468.3,-310 468.3,-337 547.3,-337 547.3,-310 468.3,-310"/>
<text text-anchor="start" x="474.3" y="-319.8" font-family="Times,serif" font-size="14.00">arg3 : int</text>
</g>
<!-- node7 -->
<g id="node2" class="node">
<title>node7</title>
<polygon fill="lightgrey" stroke="transparent" points="341.8,-200 252.8,-200 252.8,-146 341.8,-146 341.8,-200"/>
<polygon fill="none" stroke="black" points="253.3,-173 253.3,-200 342.3,-200 342.3,-173 253.3,-173"/>
<text text-anchor="start" x="279.3" y="-182.8" font-family="Times,serif" font-size="14.00">#7 If</text>
<polygon fill="yellow" stroke="transparent" points="253.3,-146 253.3,-173 299.3,-173 299.3,-146 253.3,-146"/>
<polygon fill="none" stroke="black" points="253.3,-146 253.3,-173 299.3,-173 299.3,-146 253.3,-146"/>
<text text-anchor="start" x="259.3" y="-155.8" font-family="Times,serif" font-size="14.00">false</text>
<polygon fill="yellow" stroke="transparent" points="299.3,-146 299.3,-173 342.3,-173 342.3,-146 299.3,-146"/>
<polygon fill="none" stroke="black" points="299.3,-146 299.3,-173 342.3,-173 342.3,-146 299.3,-146"/>
<text text-anchor="start" x="305.3" y="-155.8" font-family="Times,serif" font-size="14.00">true</text>
</g>
<!-- node0&#45;&gt;node7 -->
<g id="edge3" class="edge">
<title>node0&#45;&gt;node7</title>
<path fill="none" stroke="green" d="M231.24,-329.55C141.54,-322.2 41.65,-306.5 13.3,-273 -51.86,-196.01 143,-178.84 242.59,-175.05"/>
<polygon fill="green" stroke="green" points="242.92,-178.54 252.79,-174.7 242.67,-171.55 242.92,-178.54"/>
</g>
<!-- node6 -->
<g id="node3" class="node">
<title>node6</title>
<polygon fill="orange" stroke="black" points="312.14,-247.54 312.14,-262.46 227.29,-273 107.3,-273 22.46,-262.46 22.46,-247.54 107.3,-237 227.29,-237 312.14,-247.54"/>
<text text-anchor="middle" x="167.3" y="-251.3" font-family="Times,serif" font-size="14.00">#6 NumericCondition : LE</text>
</g>
<!-- node0&#45;&gt;node6 -->
<g id="edge5" class="edge">
<title>node0:prj3&#45;&gt;node6</title>
<path fill="none" stroke="black" d="M230.3,-323C206.94,-323 189.71,-301.12 179.22,-282.37"/>
<polygon fill="black" stroke="black" points="182.2,-280.52 174.49,-273.25 175.99,-283.74 182.2,-280.52"/>
<text text-anchor="middle" x="190.34" y="-281.75" font-family="Times,serif" font-size="14.00">*0</text>
</g>
<!-- node0&#45;&gt;node6 -->
<g id="edge6" class="edge">
<title>node0:prj2&#45;&gt;node6</title>
<path fill="none" stroke="black" d="M349.3,-310C349.3,-291.43 314.02,-278.74 274.53,-270.36"/>
<polygon fill="black" stroke="black" points="275.19,-266.92 264.69,-268.37 273.8,-273.78 275.19,-266.92"/>
<text text-anchor="middle" x="284.13" y="-259.97" font-family="Times,serif" font-size="14.00">*1</text>
</g>
<!-- node5 -->
<g id="node4" class="node">
<title>node5</title>
<polygon fill="lightgrey" stroke="black" points="448.8,-273 329.8,-273 329.8,-237 448.8,-237 448.8,-273"/>
<text text-anchor="middle" x="389.3" y="-251.3" font-family="Times,serif" font-size="14.00">#5 LabelNode</text>
</g>
<!-- node0&#45;&gt;node5 -->
<g id="edge4" class="edge">
<title>node0&#45;&gt;node5</title>
<path fill="none" stroke="red" d="M389.3,-309.81C389.3,-301.35 389.3,-291.95 389.3,-283.4"/>
<polygon fill="red" stroke="red" points="392.8,-283.17 389.3,-273.17 385.8,-283.17 392.8,-283.17"/>
</g>
<!-- node10 -->
<g id="node5" class="node">
<title>node10</title>
<polygon fill="lightgrey" stroke="black" points="316.8,-109 143.8,-109 143.8,-73 316.8,-73 316.8,-109"/>
<text text-anchor="middle" x="230.3" y="-87.3" font-family="Times,serif" font-size="14.00">#10 ReturnValue : int</text>
</g>
<!-- node0&#45;&gt;node10 -->
<g id="edge7" class="edge">
<title>node0:prj1&#45;&gt;node10</title>
<path fill="none" stroke="black" d="M429.3,-310C429.3,-289.38 450.73,-292.55 457.3,-273 462.39,-257.83 464.01,-251.52 457.3,-237 427.53,-172.6 353.31,-133.6 297.79,-112.52"/>
<polygon fill="black" stroke="black" points="298.94,-109.22 288.35,-109.04 296.52,-115.78 298.94,-109.22"/>
<text text-anchor="middle" x="308.28" y="-103.68" font-family="Times,serif" font-size="14.00">*0</text>
</g>
<!-- node12 -->
<g id="node6" class="node">
<title>node12</title>
<polygon fill="lightgrey" stroke="black" points="569.8,-36 396.8,-36 396.8,0 569.8,0 569.8,-36"/>
<text text-anchor="middle" x="483.3" y="-14.3" font-family="Times,serif" font-size="14.00">#12 ReturnValue : int</text>
</g>
<!-- node0&#45;&gt;node12 -->
<g id="edge10" class="edge">
<title>node0:prj4&#45;&gt;node12</title>
<path fill="none" stroke="black" d="M508.3,-310C508.3,-284.25 529.3,-281.75 529.3,-256 529.3,-256 529.3,-256 529.3,-90 529.3,-72.77 519.64,-56.42 509.17,-43.77"/>
<polygon fill="black" stroke="black" points="511.53,-41.16 502.27,-36.01 506.3,-45.81 511.53,-41.16"/>
<text text-anchor="middle" x="520.64" y="-40.24" font-family="Times,serif" font-size="14.00">*0</text>
</g>
<!-- node7&#45;&gt;node10 -->
<g id="edge8" class="edge">
<title>node7:prj9&#45;&gt;node10</title>
<path fill="none" stroke="red" d="M252.3,-159C229.67,-159 222.67,-137.91 222.48,-119.4"/>
<polygon fill="red" stroke="red" points="225.98,-119.44 223.05,-109.25 218.99,-119.04 225.98,-119.44"/>
</g>
<!-- node7&#45;&gt;node10 -->
<g id="edge9" class="edge">
<title>node7&#45;&gt;node10</title>
<path fill="none" stroke="green" d="M252.04,-159C239.69,-158.71 237.18,-137.66 235.77,-119.23"/>
<polygon fill="green" stroke="green" points="239.25,-118.85 235.02,-109.14 232.27,-119.37 239.25,-118.85"/>
</g>
<!-- node7&#45;&gt;node12 -->
<g id="edge12" class="edge">
<title>node7&#45;&gt;node12</title>
<path fill="none" stroke="green" d="M309.78,-145.9C321.34,-124.02 340.35,-93.21 364.3,-73 380.61,-59.23 401.01,-48.29 420.29,-39.95"/>
<polygon fill="green" stroke="green" points="421.75,-43.14 429.64,-36.07 419.06,-36.67 421.75,-43.14"/>
</g>
<!-- node11 -->
<g id="node7" class="node">
<title>node11</title>
<polygon fill="lightgrey" stroke="black" points="501.3,-109 373.3,-109 373.3,-73 501.3,-73 501.3,-109"/>
<text text-anchor="middle" x="437.3" y="-87.3" font-family="Times,serif" font-size="14.00">#11 LabelNode</text>
</g>
<!-- node7&#45;&gt;node11 -->
<g id="edge13" class="edge">
<title>node7:prj8&#45;&gt;node11</title>
<path fill="none" stroke="red" d="M343.3,-159C373.42,-159 400.57,-135.91 417.86,-116.84"/>
<polygon fill="red" stroke="red" points="420.52,-119.1 424.42,-109.25 415.23,-114.52 420.52,-119.1"/>
</g>
<!-- node6&#45;&gt;node7 -->
<g id="edge1" class="edge">
<title>node6&#45;&gt;node7</title>
<path fill="none" stroke="black" d="M195.19,-236.84C209.99,-227.73 228.65,-216.24 245.96,-205.59"/>
<polygon fill="black" stroke="black" points="248.18,-208.33 254.86,-200.11 244.51,-202.37 248.18,-208.33"/>
<text text-anchor="middle" x="243.86" y="-213.11" font-family="Times,serif" font-size="14.00">*0</text>
</g>
<!-- node5&#45;&gt;node7 -->
<g id="edge2" class="edge">
<title>node5&#45;&gt;node7</title>
<path fill="none" stroke="red" d="M369.33,-236.64C359.28,-227.9 346.74,-217 334.96,-206.75"/>
<polygon fill="red" stroke="red" points="337.21,-204.07 327.37,-200.15 332.62,-209.35 337.21,-204.07"/>
</g>
<!-- node11&#45;&gt;node12 -->
<g id="edge11" class="edge">
<title>node11&#45;&gt;node12</title>
<path fill="none" stroke="red" d="M448.43,-72.81C453.91,-64.35 460.63,-53.98 466.7,-44.61"/>
<polygon fill="red" stroke="red" points="469.76,-46.32 472.26,-36.03 463.89,-42.52 469.76,-46.32"/>
</g>
<!-- c0 -->
<!-- c1 -->
<!-- c0&#45;&gt;c1 -->
<g id="edge14" class="edge">
<title>c0&#45;&gt;c1</title>
<path fill="none" stroke="red" d="M1293.19,-337C1304.4,-337 1362.54,-337 1388.16,-337"/>
<polygon fill="red" stroke="red" points="1388.35,-340.5 1398.35,-337 1388.35,-333.5 1388.35,-340.5"/>
<text text-anchor="middle" x="1345.8" y="-343.8" font-family="Times,serif" font-size="14.00">Control flow</text>
</g>
<!-- c2 -->
<!-- c3 -->
<!-- c2&#45;&gt;c3 -->
<g id="edge15" class="edge">
<title>c2&#45;&gt;c3</title>
<path fill="none" stroke="red" stroke-dasharray="5,2" d="M1086.37,-337C1103.35,-337 1219.5,-337 1257.38,-337"/>
<polygon fill="red" stroke="red" points="1257.47,-340.5 1267.47,-337 1257.47,-333.5 1257.47,-340.5"/>
<text text-anchor="middle" x="1176.8" y="-343.8" font-family="Times,serif" font-size="14.00">Control flow back edge</text>
</g>
<!-- d0 -->
<!-- d1 -->
<!-- d0&#45;&gt;d1 -->
<g id="edge16" class="edge">
<title>d0&#45;&gt;d1</title>
<path fill="none" stroke="black" d="M975.16,-337C984.7,-337 1028.61,-337 1050.21,-337"/>
<polygon fill="black" stroke="black" points="1050.45,-340.5 1060.45,-337 1050.45,-333.5 1050.45,-340.5"/>
<text text-anchor="middle" x="1017.8" y="-343.8" font-family="Times,serif" font-size="14.00">Data flow</text>
</g>
<!-- d2 -->
<!-- d3 -->
<!-- d2&#45;&gt;d3 -->
<g id="edge17" class="edge">
<title>d2&#45;&gt;d3</title>
<path fill="none" stroke="black" stroke-dasharray="1,5" d="M849.1,-337C859.75,-337 914.76,-337 939.37,-337"/>
<polygon fill="black" stroke="black" points="939.44,-340.5 949.44,-337 939.44,-333.5 939.44,-340.5"/>
<text text-anchor="middle" x="899.3" y="-343.8" font-family="Times,serif" font-size="14.00">Declaration</text>
</g>
<!-- d4 -->
<!-- d5 -->
<!-- d4&#45;&gt;d5 -->
<g id="edge18" class="edge">
<title>d4&#45;&gt;d5</title>
<path fill="none" stroke="blue" d="M706.4,-337C719.02,-337 785.18,-337 812.98,-337"/>
<polygon fill="blue" stroke="blue" points="813.14,-340.5 823.14,-337 813.14,-333.5 813.14,-340.5"/>
<text text-anchor="middle" x="764.8" y="-343.8" font-family="Times,serif" font-size="14.00">PHI Data flow</text>
</g>
<!-- d6 -->
<!-- d7 -->
<!-- d6&#45;&gt;d7 -->
<g id="edge19" class="edge">
<title>d6&#45;&gt;d7</title>
<path fill="none" stroke="green" d="M569.29,-337C581.23,-337 643.6,-337 670.23,-337"/>
<polygon fill="green" stroke="green" points="670.25,-340.5 680.25,-337 670.25,-333.5 670.25,-340.5"/>
<text text-anchor="middle" x="624.8" y="-343.8" font-family="Times,serif" font-size="14.00">Memory flow</text>
</g>
</g>
</svg>
