<?xml version="1.0" encoding="UTF-8" standalone="no"?>
<!DOCTYPE svg PUBLIC "-//W3C//DTD SVG 1.1//EN"
 "http://www.w3.org/Graphics/SVG/1.1/DTD/svg11.dtd">
<!-- Generated by graphviz version 2.43.0 (0)
 -->
<!-- Title: %3 Pages: 1 -->
<svg width="1404pt" height="386pt"
 viewBox="0.00 0.00 1403.92 385.80" xmlns="http://www.w3.org/2000/svg" xmlns:xlink="http://www.w3.org/1999/xlink">
<g id="graph0" class="graph" transform="scale(1 1) rotate(0) translate(4 381.8)">
<title>%3</title>
<polygon fill="white" stroke="transparent" points="-4,4 -4,-381.8 1399.92,-381.8 1399.92,4 -4,4"/>
<g id="clust1" class="cluster">
<title>cluster_000</title>
<polygon fill="none" stroke="black" points="534.92,-327.2 534.92,-369.8 1387.92,-369.8 1387.92,-327.2 534.92,-327.2"/>
<text text-anchor="middle" x="961.42" y="-354.6" font-family="Times,serif" font-size="14.00">Legend</text>
</g>
<!-- node0 -->
<g id="node1" class="node">
<title>node0</title>
<polygon fill="lightgrey" stroke="transparent" points="524.92,-364 208.92,-364 208.92,-310 524.92,-310 524.92,-364"/>
<polygon fill="none" stroke="black" points="208.92,-337 208.92,-364 524.92,-364 524.92,-337 208.92,-337"/>
<text text-anchor="start" x="326.42" y="-346.8" font-family="Times,serif" font-size="14.00">#0 Method</text>
<polygon fill="yellow" stroke="transparent" points="208.92,-310 208.92,-337 287.92,-337 287.92,-310 208.92,-310"/>
<polygon fill="none" stroke="black" points="208.92,-310 208.92,-337 287.92,-337 287.92,-310 208.92,-310"/>
<text text-anchor="start" x="214.92" y="-319.8" font-family="Times,serif" font-size="14.00">arg0 : int</text>
<polygon fill="yellow" stroke="transparent" points="287.92,-310 287.92,-337 366.92,-337 366.92,-310 287.92,-310"/>
<polygon fill="none" stroke="black" points="287.92,-310 287.92,-337 366.92,-337 366.92,-310 287.92,-310"/>
<text text-anchor="start" x="293.92" y="-319.8" font-family="Times,serif" font-size="14.00">arg1 : int</text>
<polygon fill="yellow" stroke="transparent" points="366.92,-310 366.92,-337 445.92,-337 445.92,-310 366.92,-310"/>
<polygon fill="none" stroke="black" points="366.92,-310 366.92,-337 445.92,-337 445.92,-310 366.92,-310"/>
<text text-anchor="start" x="372.92" y="-319.8" font-family="Times,serif" font-size="14.00">arg2 : int</text>
<polygon fill="yellow" stroke="transparent" points="445.92,-310 445.92,-337 524.92,-337 524.92,-310 445.92,-310"/>
<polygon fill="none" stroke="black" points="445.92,-310 445.92,-337 524.92,-337 524.92,-310 445.92,-310"/>
<text text-anchor="start" x="451.92" y="-319.8" font-family="Times,serif" font-size="14.00">arg3 : int</text>
</g>
<!-- node6 -->
<g id="node2" class="node">
<title>node6</title>
<polygon fill="lightgrey" stroke="black" points="426.42,-273 307.42,-273 307.42,-237 426.42,-237 426.42,-273"/>
<text text-anchor="middle" x="366.92" y="-251.3" font-family="Times,serif" font-size="14.00">#6 LabelNode</text>
</g>
<!-- node0&#45;&gt;node6 -->
<g id="edge1" class="edge">
<title>node0&#45;&gt;node6</title>
<path fill="none" stroke="red" d="M366.92,-309.81C366.92,-301.35 366.92,-291.95 366.92,-283.4"/>
<polygon fill="red" stroke="red" points="370.42,-283.17 366.92,-273.17 363.42,-283.17 370.42,-283.17"/>
</g>
<!-- node3 -->
<g id="node4" class="node">
<title>node3</title>
<polygon fill="orange" stroke="black" points="289.76,-247.54 289.76,-262.46 204.91,-273 84.93,-273 0.08,-262.46 0.08,-247.54 84.93,-237 204.91,-237 289.76,-247.54"/>
<text text-anchor="middle" x="144.92" y="-251.3" font-family="Times,serif" font-size="14.00">#3 NumericCondition : LE</text>
</g>
<!-- node0&#45;&gt;node3 -->
<g id="edge4" class="edge">
<title>node0:prj2&#45;&gt;node3</title>
<path fill="none" stroke="black" d="M326.92,-310C326.92,-291.43 291.64,-278.74 252.15,-270.36"/>
<polygon fill="black" stroke="black" points="252.81,-266.92 242.31,-268.37 251.42,-273.78 252.81,-266.92"/>
<text text-anchor="middle" x="261.75" y="-259.97" font-family="Times,serif" font-size="14.00">*0</text>
</g>
<!-- node0&#45;&gt;node3 -->
<g id="edge5" class="edge">
<title>node0:prj1&#45;&gt;node3</title>
<path fill="none" stroke="black" d="M207.92,-323C184.56,-323 167.33,-301.12 156.85,-282.37"/>
<polygon fill="black" stroke="black" points="159.83,-280.52 152.11,-273.25 153.61,-283.74 159.83,-280.52"/>
<text text-anchor="middle" x="167.97" y="-281.75" font-family="Times,serif" font-size="14.00">*1</text>
</g>
<!-- node11 -->
<g id="node5" class="node">
<title>node11</title>
<polygon fill="lightgrey" stroke="black" points="388.42,-109 215.42,-109 215.42,-73 388.42,-73 388.42,-109"/>
<text text-anchor="middle" x="301.92" y="-87.3" font-family="Times,serif" font-size="14.00">#11 ReturnValue : int</text>
</g>
<!-- node0&#45;&gt;node11 -->
<g id="edge6" class="edge">
<title>node0:prj5&#45;&gt;node11</title>
<path fill="none" stroke="black" d="M406.92,-310C397.92,-289.38 419.36,-292.55 425.92,-273 444.26,-218.38 436.63,-190.4 399.92,-146 388.5,-132.19 372.66,-121.56 357.01,-113.54"/>
<polygon fill="black" stroke="black" points="358.37,-110.31 347.85,-109.11 355.33,-116.61 358.37,-110.31"/>
<text text-anchor="middle" x="367.84" y="-105.69" font-family="Times,serif" font-size="14.00">*0</text>
</g>
<!-- node0&#45;&gt;node11 -->
<g id="edge8" class="edge">
<title>node0&#45;&gt;node11</title>
<path fill="none" stroke="green" d="M407.13,-309.52C416.25,-289.43 437.41,-292.4 443.92,-273 462.26,-218.38 454.63,-190.4 417.92,-146 406.4,-132.06 390.37,-121.37 373.86,-113.31"/>
<polygon fill="green" stroke="green" points="375.22,-110.09 364.67,-109.11 372.31,-116.45 375.22,-110.09"/>
</g>
<!-- node12 -->
<g id="node7" class="node">
<title>node12</title>
<polygon fill="lightgrey" stroke="black" points="601.42,-36 428.42,-36 428.42,0 601.42,0 601.42,-36"/>
<text text-anchor="middle" x="514.92" y="-14.3" font-family="Times,serif" font-size="14.00">#12 ReturnValue : int</text>
</g>
<!-- node0&#45;&gt;node12 -->
<g id="edge10" class="edge">
<title>node0:prj4&#45;&gt;node12</title>
<path fill="none" stroke="black" d="M525.92,-323C523.11,-323 519.22,-315.57 521.92,-310 534.08,-284.89 553.92,-283.9 553.92,-256 553.92,-256 553.92,-256 553.92,-90 553.92,-72.67 543.98,-56.41 534,-43.83"/>
<polygon fill="black" stroke="black" points="536.64,-41.54 527.53,-36.13 531.28,-46.04 536.64,-41.54"/>
<text text-anchor="middle" x="545.66" y="-40.88" font-family="Times,serif" font-size="14.00">*0</text>
</g>
<!-- node0&#45;&gt;node12 -->
<g id="edge12" class="edge">
<title>node0&#45;&gt;node12</title>
<path fill="none" stroke="green" d="M526.27,-323C541.05,-322.88 537.24,-315.53 539.92,-310 552.08,-284.89 571.92,-283.9 571.92,-256 571.92,-256 571.92,-256 571.92,-90 571.92,-72.34 561.6,-55.79 549.63,-43.12"/>
<polygon fill="green" stroke="green" points="552.07,-40.6 542.46,-36.13 547.18,-45.62 552.07,-40.6"/>
</g>
<!-- node7 -->
<g id="node3" class="node">
<title>node7</title>
<polygon fill="lightgrey" stroke="transparent" points="400.42,-200 311.42,-200 311.42,-146 400.42,-146 400.42,-200"/>
<polygon fill="none" stroke="black" points="311.92,-173 311.92,-200 400.92,-200 400.92,-173 311.92,-173"/>
<text text-anchor="start" x="337.92" y="-182.8" font-family="Times,serif" font-size="14.00">#7 If</text>
<polygon fill="yellow" stroke="transparent" points="311.92,-146 311.92,-173 357.92,-173 357.92,-146 311.92,-146"/>
<polygon fill="none" stroke="black" points="311.92,-146 311.92,-173 357.92,-173 357.92,-146 311.92,-146"/>
<text text-anchor="start" x="317.92" y="-155.8" font-family="Times,serif" font-size="14.00">false</text>
<polygon fill="yellow" stroke="transparent" points="357.92,-146 357.92,-173 400.92,-173 400.92,-146 357.92,-146"/>
<polygon fill="none" stroke="black" points="357.92,-146 357.92,-173 400.92,-173 400.92,-146 357.92,-146"/>
<text text-anchor="start" x="363.92" y="-155.8" font-family="Times,serif" font-size="14.00">true</text>
</g>
<!-- node6&#45;&gt;node7 -->
<g id="edge3" class="edge">
<title>node6&#45;&gt;node7</title>
<path fill="none" stroke="red" d="M364.53,-236.64C363.47,-228.9 362.17,-219.46 360.91,-210.29"/>
<polygon fill="red" stroke="red" points="364.34,-209.58 359.51,-200.15 357.41,-210.53 364.34,-209.58"/>
</g>
<!-- node7&#45;&gt;node11 -->
<g id="edge7" class="edge">
<title>node7:prj10&#45;&gt;node11</title>
<path fill="none" stroke="red" d="M334.92,-146C334.92,-135.89 330.65,-126.07 325.19,-117.64"/>
<polygon fill="red" stroke="red" points="327.91,-115.42 319.19,-109.4 322.25,-119.54 327.91,-115.42"/>
</g>
<!-- node9 -->
<g id="node6" class="node">
<title>node9</title>
<polygon fill="lightgrey" stroke="black" points="525.42,-109 406.42,-109 406.42,-73 525.42,-73 525.42,-109"/>
<text text-anchor="middle" x="465.92" y="-87.3" font-family="Times,serif" font-size="14.00">#9 LabelNode</text>
</g>
<!-- node7&#45;&gt;node9 -->
<g id="edge9" class="edge">
<title>node7:prj8&#45;&gt;node9</title>
<path fill="none" stroke="red" d="M379.92,-146C379.92,-132.51 387.6,-122.26 398.37,-114.52"/>
<polygon fill="red" stroke="red" points="400.48,-117.33 407.13,-109.08 396.79,-111.38 400.48,-117.33"/>
</g>
<!-- node3&#45;&gt;node7 -->
<g id="edge2" class="edge">
<title>node3&#45;&gt;node7</title>
<path fill="none" stroke="black" d="M189.93,-236.94C222.67,-224.52 267.16,-207.65 301.84,-194.5"/>
<polygon fill="black" stroke="black" points="303.24,-197.72 311.35,-190.9 300.75,-191.17 303.24,-197.72"/>
<text text-anchor="middle" x="297.39" y="-201.53" font-family="Times,serif" font-size="14.00">*0</text>
</g>
<!-- node9&#45;&gt;node12 -->
<g id="edge11" class="edge">
<title>node9&#45;&gt;node12</title>
<path fill="none" stroke="red" d="M477.78,-72.81C483.68,-64.27 490.92,-53.77 497.44,-44.32"/>
<polygon fill="red" stroke="red" points="500.37,-46.25 503.17,-36.03 494.61,-42.27 500.37,-46.25"/>
</g>
<!-- c0 -->
<!-- c1 -->
<!-- c0&#45;&gt;c1 -->
<g id="edge13" class="edge">
<title>c0&#45;&gt;c1</title>
<path fill="none" stroke="red" d="M1270.81,-337C1282.03,-337 1340.16,-337 1365.78,-337"/>
<polygon fill="red" stroke="red" points="1365.98,-340.5 1375.98,-337 1365.98,-333.5 1365.98,-340.5"/>
<text text-anchor="middle" x="1323.42" y="-343.8" font-family="Times,serif" font-size="14.00">Control flow</text>
</g>
<!-- c2 -->
<!-- c3 -->
<!-- c2&#45;&gt;c3 -->
<g id="edge14" class="edge">
<title>c2&#45;&gt;c3</title>
<path fill="none" stroke="red" stroke-dasharray="5,2" d="M1064,-337C1080.97,-337 1197.12,-337 1235,-337"/>
<polygon fill="red" stroke="red" points="1235.09,-340.5 1245.09,-337 1235.09,-333.5 1235.09,-340.5"/>
<text text-anchor="middle" x="1154.42" y="-343.8" font-family="Times,serif" font-size="14.00">Control flow back edge</text>
</g>
<!-- d0 -->
<!-- d1 -->
<!-- d0&#45;&gt;d1 -->
<g id="edge15" class="edge">
<title>d0&#45;&gt;d1</title>
<path fill="none" stroke="black" d="M952.78,-337C962.32,-337 1006.23,-337 1027.84,-337"/>
<polygon fill="black" stroke="black" points="1028.07,-340.5 1038.07,-337 1028.07,-333.5 1028.07,-340.5"/>
<text text-anchor="middle" x="995.42" y="-343.8" font-family="Times,serif" font-size="14.00">Data flow</text>
</g>
<!-- d2 -->
<!-- d3 -->
<!-- d2&#45;&gt;d3 -->
<g id="edge16" class="edge">
<title>d2&#45;&gt;d3</title>
<path fill="none" stroke="black" stroke-dasharray="1,5" d="M826.72,-337C837.38,-337 892.38,-337 916.99,-337"/>
<polygon fill="black" stroke="black" points="917.06,-340.5 927.06,-337 917.06,-333.5 917.06,-340.5"/>
<text text-anchor="middle" x="876.92" y="-343.8" font-family="Times,serif" font-size="14.00">Declaration</text>
</g>
<!-- d4 -->
<!-- d5 -->
<!-- d4&#45;&gt;d5 -->
<g id="edge17" class="edge">
<title>d4&#45;&gt;d5</title>
<path fill="none" stroke="blue" d="M684.02,-337C696.64,-337 762.8,-337 790.6,-337"/>
<polygon fill="blue" stroke="blue" points="790.76,-340.5 800.76,-337 790.76,-333.5 790.76,-340.5"/>
<text text-anchor="middle" x="742.42" y="-343.8" font-family="Times,serif" font-size="14.00">PHI Data flow</text>
</g>
<!-- d6 -->
<!-- d7 -->
<!-- d6&#45;&gt;d7 -->
<g id="edge18" class="edge">
<title>d6&#45;&gt;d7</title>
<path fill="none" stroke="green" d="M546.92,-337C558.86,-337 621.22,-337 647.85,-337"/>
<polygon fill="green" stroke="green" points="647.87,-340.5 657.87,-337 647.87,-333.5 647.87,-340.5"/>
<text text-anchor="middle" x="602.42" y="-343.8" font-family="Times,serif" font-size="14.00">Memory flow</text>
</g>
</g>
</svg>
