<?xml version="1.0" encoding="UTF-8" standalone="no"?>
<!DOCTYPE svg PUBLIC "-//W3C//DTD SVG 1.1//EN"
 "http://www.w3.org/Graphics/SVG/1.1/DTD/svg11.dtd">
<!-- Generated by graphviz version 2.43.0 (0)
 -->
<!-- Title: debugoutput Pages: 1 -->
<svg width="1734pt" height="505pt"
 viewBox="0.00 0.00 1733.50 504.80" xmlns="http://www.w3.org/2000/svg" xmlns:xlink="http://www.w3.org/1999/xlink">
<g id="graph0" class="graph" transform="scale(1 1) rotate(0) translate(4 500.8)">
<title>debugoutput</title>
<polygon fill="white" stroke="transparent" points="-4,4 -4,-500.8 1729.5,-500.8 1729.5,4 -4,4"/>
<g id="clust1" class="cluster">
<title>cluster_000</title>
<polygon fill="none" stroke="black" points="741.5,-446.2 741.5,-488.8 1717.5,-488.8 1717.5,-446.2 741.5,-446.2"/>
<text text-anchor="middle" x="1229.5" y="-473.6" font-family="Times,serif" font-size="14.00">Legend</text>
</g>
<!-- node0 -->
<g id="node1" class="node">
<title>node0</title>
<polygon fill="lightgrey" stroke="black" points="731.5,-474 565.5,-474 565.5,-438 731.5,-438 731.5,-474"/>
<text text-anchor="middle" x="648.5" y="-452.3" font-family="Times,serif" font-size="14.00">#0 Method Order : 0</text>
</g>
<!-- node1 -->
<g id="node2" class="node">
<title>node1</title>
<polygon fill="lightgrey" stroke="black" points="616,-401 439,-401 439,-365 616,-365 616,-401"/>
<text text-anchor="middle" x="527.5" y="-379.3" font-family="Times,serif" font-size="14.00">#1 arg1 : int Order : 5</text>
</g>
<!-- node0&#45;&gt;node1 -->
<g id="edge2" class="edge">
<title>node0&#45;&gt;node1</title>
<path fill="none" stroke="black" d="M613.66,-437.99C596.61,-428.58 576.31,-416.76 559.64,-406.57"/>
<polygon fill="black" stroke="black" points="561.14,-403.39 550.79,-401.11 557.46,-409.35 561.14,-403.39"/>
<text text-anchor="middle" x="570.66" y="-399.75" font-family="Times,serif" font-size="14.00">*0</text>
</g>
<!-- node2 -->
<g id="node3" class="node">
<title>node2</title>
<polygon fill="lightgrey" stroke="black" points="177,-401 0,-401 0,-365 177,-365 177,-401"/>
<text text-anchor="middle" x="88.5" y="-379.3" font-family="Times,serif" font-size="14.00">#2 arg3 : int Order : 4</text>
</g>
<!-- node0&#45;&gt;node2 -->
<g id="edge4" class="edge">
<title>node0&#45;&gt;node2</title>
<path fill="none" stroke="black" d="M565.5,-447.36C473.41,-438.13 320.45,-421.46 187.21,-402.4"/>
<polygon fill="black" stroke="black" points="187.64,-398.92 177.24,-400.96 186.64,-405.85 187.64,-398.92"/>
<text text-anchor="middle" x="196.39" y="-391.48" font-family="Times,serif" font-size="14.00">*0</text>
</g>
<!-- node3 -->
<g id="node4" class="node">
<title>node3</title>
<polygon fill="lightgrey" stroke="black" points="1043,-401 866,-401 866,-365 1043,-365 1043,-401"/>
<text text-anchor="middle" x="954.5" y="-379.3" font-family="Times,serif" font-size="14.00">#3 arg2 : int Order : 3</text>
</g>
<!-- node0&#45;&gt;node3 -->
<g id="edge6" class="edge">
<title>node0&#45;&gt;node3</title>
<path fill="none" stroke="black" d="M728.8,-437.95C779.52,-429.16 793.44,-432.64 843.5,-420 860.09,-415.81 877.79,-410.04 894.12,-404.35"/>
<polygon fill="black" stroke="black" points="895.29,-407.65 903.55,-401.02 892.96,-401.05 895.29,-407.65"/>
<text text-anchor="middle" x="889.27" y="-411.33" font-family="Times,serif" font-size="14.00">*0</text>
</g>
<!-- node4 -->
<g id="node5" class="node">
<title>node4</title>
<polygon fill="lightgrey" stroke="black" points="811,-401 634,-401 634,-365 811,-365 811,-401"/>
<text text-anchor="middle" x="722.5" y="-379.3" font-family="Times,serif" font-size="14.00">#4 arg0 : int Order : 2</text>
</g>
<!-- node0&#45;&gt;node4 -->
<g id="edge8" class="edge">
<title>node0&#45;&gt;node4</title>
<path fill="none" stroke="black" d="M660.54,-437.81C668.96,-428.83 680.39,-417.69 691.19,-407.89"/>
<polygon fill="black" stroke="black" points="693.75,-410.29 698.89,-401.03 689.09,-405.06 693.75,-410.29"/>
<text text-anchor="middle" x="690.97" y="-415.69" font-family="Times,serif" font-size="14.00">*0</text>
</g>
<!-- node5 -->
<g id="node6" class="node">
<title>node5</title>
<polygon fill="lightgrey" stroke="black" points="383.5,-401 195.5,-401 195.5,-365 383.5,-365 383.5,-401"/>
<text text-anchor="middle" x="289.5" y="-379.3" font-family="Times,serif" font-size="14.00">#5 LabelNode Order : 1</text>
</g>
<!-- node0&#45;&gt;node5 -->
<g id="edge10" class="edge">
<title>node0&#45;&gt;node5</title>
<path fill="none" stroke="red" d="M565.22,-448.11C513.71,-442.64 446.65,-433.63 388.5,-420 370.89,-415.87 352.06,-410.09 335.55,-404.37"/>
<polygon fill="red" stroke="red" points="336.72,-401.08 326.13,-401.02 334.38,-407.67 336.72,-401.08"/>
</g>
<!-- node10 -->
<g id="node11" class="node">
<title>node10</title>
<polygon fill="lightgrey" stroke="black" points="1075.5,-109 833.5,-109 833.5,-73 1075.5,-73 1075.5,-109"/>
<text text-anchor="middle" x="954.5" y="-87.3" font-family="Times,serif" font-size="14.00">#10 ReturnValue : int Order : 9</text>
</g>
<!-- node0&#45;&gt;node10 -->
<g id="edge24" class="edge">
<title>node0&#45;&gt;node10</title>
<path fill="none" stroke="green" d="M728.91,-437.94C798.93,-427.37 996.75,-453.56 1043.5,-401 1118.57,-316.6 1015.7,-174.62 972.09,-117.21"/>
<polygon fill="green" stroke="green" points="974.72,-114.89 965.87,-109.06 969.15,-119.14 974.72,-114.89"/>
</g>
<!-- node12 -->
<g id="node13" class="node">
<title>node12</title>
<polygon fill="lightgrey" stroke="black" points="591,-36 340,-36 340,0 591,0 591,-36"/>
<text text-anchor="middle" x="465.5" y="-14.3" font-family="Times,serif" font-size="14.00">#12 ReturnValue : int Order : 12</text>
</g>
<!-- node0&#45;&gt;node12 -->
<g id="edge30" class="edge">
<title>node0&#45;&gt;node12</title>
<path fill="none" stroke="green" d="M728.9,-437.95C864.65,-421.16 903.8,-454.01 1036.5,-420 1055.57,-415.11 1063.83,-416.06 1076.5,-401 1141.71,-323.44 1102.87,-100.89 1075.5,-73 1042.76,-39.65 770.69,-26.7 601.11,-21.82"/>
<polygon fill="green" stroke="green" points="601.19,-18.32 591.1,-21.54 601,-25.32 601.19,-18.32"/>
</g>
<!-- node1&#45;&gt;node0 -->
<g id="edge1" class="edge">
<title>node1&#45;&gt;node0</title>
<path fill="none" stroke="fuchsia" stroke-width="2" d="M562.54,-401.11C579.61,-410.55 599.91,-422.37 616.55,-432.54"/>
<polygon fill="fuchsia" stroke="fuchsia" stroke-width="2" points="615.03,-435.71 625.38,-437.99 618.71,-429.76 615.03,-435.71"/>
</g>
<!-- node6 -->
<g id="node7" class="node">
<title>node6</title>
<polygon fill="orange" stroke="black" points="849.92,-302.54 849.92,-317.46 736.62,-328 576.38,-328 463.08,-317.46 463.08,-302.54 576.38,-292 736.62,-292 849.92,-302.54"/>
<text text-anchor="middle" x="656.5" y="-306.3" font-family="Times,serif" font-size="14.00">#6 NumericCondition : LE Order : 6</text>
</g>
<!-- node1&#45;&gt;node6 -->
<g id="edge13" class="edge">
<title>node1&#45;&gt;node6</title>
<path fill="none" stroke="black" d="M558.4,-364.99C575.82,-355.4 597.78,-343.32 616.51,-333.01"/>
<polygon fill="black" stroke="black" points="618.33,-336 625.41,-328.11 614.96,-329.87 618.33,-336"/>
<text text-anchor="middle" x="613.6" y="-340.56" font-family="Times,serif" font-size="14.00">*1</text>
</g>
<!-- node2&#45;&gt;node0 -->
<g id="edge3" class="edge">
<title>node2&#45;&gt;node0</title>
<path fill="none" stroke="fuchsia" stroke-width="2" d="M177.11,-398.19C183.34,-399.18 189.52,-400.13 195.5,-401 319.71,-419.02 463.39,-435.06 555.1,-444.89"/>
<polygon fill="fuchsia" stroke="fuchsia" stroke-width="2" points="554.88,-448.38 565.19,-445.97 555.62,-441.42 554.88,-448.38"/>
</g>
<!-- node2&#45;&gt;node12 -->
<g id="edge28" class="edge">
<title>node2&#45;&gt;node12</title>
<path fill="none" stroke="black" d="M149.94,-364.89C191.37,-351.48 238.5,-331.67 238.5,-311 238.5,-311 238.5,-311 238.5,-90 238.5,-66.14 284.75,-49.36 335.5,-38.12"/>
<polygon fill="black" stroke="black" points="336.3,-41.53 345.35,-36.02 334.84,-34.68 336.3,-41.53"/>
<text text-anchor="middle" x="329.39" y="-44.37" font-family="Times,serif" font-size="14.00">*0</text>
</g>
<!-- node3&#45;&gt;node0 -->
<g id="edge5" class="edge">
<title>node3&#45;&gt;node0</title>
<path fill="none" stroke="fuchsia" stroke-width="2" d="M920.16,-401.02C902.78,-407.72 881.35,-414.99 861.5,-420 811.34,-432.66 797.47,-429.15 746.5,-438 745,-438.26 743.48,-438.53 741.96,-438.8"/>
<polygon fill="fuchsia" stroke="fuchsia" stroke-width="2" points="740.98,-435.42 731.75,-440.62 742.21,-442.31 740.98,-435.42"/>
</g>
<!-- node3&#45;&gt;node10 -->
<g id="edge22" class="edge">
<title>node3&#45;&gt;node10</title>
<path fill="none" stroke="black" d="M954.5,-364.78C954.5,-350.41 954.5,-329.37 954.5,-311 954.5,-311 954.5,-311 954.5,-163 954.5,-148.65 954.5,-132.67 954.5,-119.51"/>
<polygon fill="black" stroke="black" points="958,-119.22 954.5,-109.22 951,-119.22 958,-119.22"/>
<text text-anchor="middle" x="962.95" y="-123.64" font-family="Times,serif" font-size="14.00">*0</text>
</g>
<!-- node4&#45;&gt;node0 -->
<g id="edge7" class="edge">
<title>node4&#45;&gt;node0</title>
<path fill="none" stroke="fuchsia" stroke-width="2" d="M710.61,-401.03C702.23,-409.99 690.81,-421.12 680,-430.94"/>
<polygon fill="fuchsia" stroke="fuchsia" stroke-width="2" points="677.43,-428.55 672.29,-437.81 682.09,-433.77 677.43,-428.55"/>
</g>
<!-- node4&#45;&gt;node6 -->
<g id="edge12" class="edge">
<title>node4&#45;&gt;node6</title>
<path fill="none" stroke="black" d="M706.52,-364.81C698.34,-356 688.22,-345.13 679.24,-335.46"/>
<polygon fill="black" stroke="black" points="681.7,-332.97 672.33,-328.03 676.57,-337.74 681.7,-332.97"/>
<text text-anchor="middle" x="690.86" y="-331.85" font-family="Times,serif" font-size="14.00">*0</text>
</g>
<!-- node5&#45;&gt;node0 -->
<g id="edge9" class="edge">
<title>node5&#45;&gt;node0</title>
<path fill="none" stroke="fuchsia" stroke-width="2" d="M342.72,-401.02C362.62,-407.76 385.43,-415.06 406.5,-420 455.19,-431.41 510.12,-439.58 555.36,-445.15"/>
<polygon fill="fuchsia" stroke="fuchsia" stroke-width="2" points="555.11,-448.65 565.45,-446.37 555.95,-441.7 555.11,-448.65"/>
</g>
<!-- node7 -->
<g id="node8" class="node">
<title>node7</title>
<polygon fill="lightgrey" stroke="black" points="526.5,-255 404.5,-255 404.5,-219 526.5,-219 526.5,-255"/>
<text text-anchor="middle" x="465.5" y="-233.3" font-family="Times,serif" font-size="14.00">#7 If Order : 7</text>
</g>
<!-- node5&#45;&gt;node7 -->
<g id="edge16" class="edge">
<title>node5&#45;&gt;node7</title>
<path fill="none" stroke="red" d="M303.47,-364.84C322.82,-341.85 359.69,-300.72 397.5,-273 403.9,-268.31 411.02,-263.9 418.17,-259.9"/>
<polygon fill="red" stroke="red" points="420.04,-262.87 427.19,-255.05 416.73,-256.7 420.04,-262.87"/>
</g>
<!-- node6&#45;&gt;node0 -->
<g id="edge11" class="edge">
<title>node6&#45;&gt;node0</title>
<path fill="none" stroke="fuchsia" stroke-width="2" d="M743.61,-327.35C795.36,-341.17 846.16,-364.63 819.5,-401 809.32,-414.89 776.02,-426.85 741.48,-435.97"/>
<polygon fill="fuchsia" stroke="fuchsia" stroke-width="2" points="740.54,-432.59 731.72,-438.46 742.27,-439.38 740.54,-432.59"/>
</g>
<!-- node6&#45;&gt;node7 -->
<g id="edge15" class="edge">
<title>node6&#45;&gt;node7</title>
<path fill="none" stroke="black" d="M610.75,-291.99C583.78,-281.97 549.47,-269.21 520.96,-258.62"/>
<polygon fill="black" stroke="black" points="522.13,-255.32 511.54,-255.11 519.69,-261.88 522.13,-255.32"/>
<text text-anchor="middle" x="531.47" y="-249.81" font-family="Times,serif" font-size="14.00">*0</text>
</g>
<!-- node7&#45;&gt;node0 -->
<g id="edge14" class="edge">
<title>node7&#45;&gt;node0</title>
<path fill="none" stroke="fuchsia" stroke-width="2" d="M453.44,-255.26C432.59,-287.41 395.19,-357.2 429.5,-401 445.44,-421.34 503.16,-435.07 555.34,-443.58"/>
<polygon fill="fuchsia" stroke="fuchsia" stroke-width="2" points="554.92,-447.06 565.35,-445.17 556.02,-440.15 554.92,-447.06"/>
</g>
<!-- node8 -->
<g id="node9" class="node">
<title>node8</title>
<polygon fill="lightgrey" stroke="black" points="540.5,-182 390.5,-182 390.5,-146 540.5,-146 540.5,-182"/>
<text text-anchor="middle" x="465.5" y="-160.3" font-family="Times,serif" font-size="14.00">#8 true Order : 10</text>
</g>
<!-- node7&#45;&gt;node8 -->
<g id="edge18" class="edge">
<title>node7&#45;&gt;node8</title>
<path fill="none" stroke="red" d="M459.62,-218.81C458.78,-210.79 458.55,-201.05 458.92,-192.07"/>
<polygon fill="red" stroke="red" points="462.42,-192.25 459.64,-182.03 455.44,-191.75 462.42,-192.25"/>
</g>
<!-- node9 -->
<g id="node10" class="node">
<title>node9</title>
<polygon fill="lightgrey" stroke="black" points="704,-182 559,-182 559,-146 704,-146 704,-182"/>
<text text-anchor="middle" x="631.5" y="-160.3" font-family="Times,serif" font-size="14.00">#9 false Order : 8</text>
</g>
<!-- node7&#45;&gt;node9 -->
<g id="edge20" class="edge">
<title>node7&#45;&gt;node9</title>
<path fill="none" stroke="red" d="M499.4,-218.99C521.49,-209.1 550.72,-196.54 576.1,-186.03"/>
<polygon fill="red" stroke="red" points="577.7,-189.16 585.62,-182.11 575.04,-182.68 577.7,-189.16"/>
</g>
<!-- node8&#45;&gt;node7 -->
<g id="edge17" class="edge">
<title>node8&#45;&gt;node7</title>
<path fill="none" stroke="fuchsia" stroke-width="2" d="M471.36,-182.03C472.21,-190.03 472.45,-199.77 472.09,-208.75"/>
<polygon fill="fuchsia" stroke="fuchsia" stroke-width="2" points="468.59,-208.59 471.38,-218.81 475.57,-209.08 468.59,-208.59"/>
</g>
<!-- node11 -->
<g id="node12" class="node">
<title>node11</title>
<polygon fill="lightgrey" stroke="black" points="568.5,-109 362.5,-109 362.5,-73 568.5,-73 568.5,-109"/>
<text text-anchor="middle" x="465.5" y="-87.3" font-family="Times,serif" font-size="14.00">#11 LabelNode Order : 11</text>
</g>
<!-- node8&#45;&gt;node11 -->
<g id="edge26" class="edge">
<title>node8&#45;&gt;node11</title>
<path fill="none" stroke="red" d="M459.62,-145.81C458.78,-137.79 458.55,-128.05 458.92,-119.07"/>
<polygon fill="red" stroke="red" points="462.42,-119.25 459.64,-109.03 455.44,-118.75 462.42,-119.25"/>
</g>
<!-- node9&#45;&gt;node7 -->
<g id="edge19" class="edge">
<title>node9&#45;&gt;node7</title>
<path fill="none" stroke="fuchsia" stroke-width="2" d="M597.36,-182.11C575.22,-192.03 545.98,-204.58 520.63,-215.08"/>
<polygon fill="fuchsia" stroke="fuchsia" stroke-width="2" points="519.04,-211.95 511.12,-218.99 521.7,-218.42 519.04,-211.95"/>
</g>
<!-- node9&#45;&gt;node10 -->
<g id="edge23" class="edge">
<title>node9&#45;&gt;node10</title>
<path fill="none" stroke="red" d="M704.39,-146.98C752.62,-136.38 816.13,-122.42 867.07,-111.22"/>
<polygon fill="red" stroke="red" points="868.07,-114.58 877.09,-109.02 866.57,-107.74 868.07,-114.58"/>
</g>
<!-- node10&#45;&gt;node0 -->
<g id="edge21" class="edge">
<title>node10&#45;&gt;node0</title>
<path fill="none" stroke="fuchsia" stroke-width="2" d="M973.8,-109.06C1022.67,-159.89 1140.42,-312.27 1061.5,-401 1014.66,-453.66 816.16,-427.27 746.5,-438 744.99,-438.23 743.47,-438.47 741.94,-438.72"/>
<polygon fill="fuchsia" stroke="fuchsia" stroke-width="2" points="741.01,-435.32 731.72,-440.41 742.15,-442.23 741.01,-435.32"/>
</g>
<!-- node11&#45;&gt;node8 -->
<g id="edge25" class="edge">
<title>node11&#45;&gt;node8</title>
<path fill="none" stroke="fuchsia" stroke-width="2" d="M471.36,-109.03C472.21,-117.03 472.45,-126.77 472.09,-135.75"/>
<polygon fill="fuchsia" stroke="fuchsia" stroke-width="2" points="468.59,-135.59 471.38,-145.81 475.57,-136.08 468.59,-135.59"/>
</g>
<!-- node11&#45;&gt;node12 -->
<g id="edge29" class="edge">
<title>node11&#45;&gt;node12</title>
<path fill="none" stroke="red" d="M465.5,-72.81C465.5,-64.79 465.5,-55.05 465.5,-46.07"/>
<polygon fill="red" stroke="red" points="469,-46.03 465.5,-36.03 462,-46.03 469,-46.03"/>
</g>
<!-- node12&#45;&gt;node0 -->
<g id="edge27" class="edge">
<title>node12&#45;&gt;node0</title>
<path fill="none" stroke="fuchsia" stroke-width="2" d="M591.13,-21.23C764.44,-25.61 1059.33,-38.19 1093.5,-73 1120.87,-100.89 1159.71,-323.44 1094.5,-401 1081.83,-416.06 1073.57,-415.11 1054.5,-420 921.67,-454.05 882.58,-421.1 746.5,-438 744.99,-438.19 743.46,-438.39 741.93,-438.59"/>
<polygon fill="fuchsia" stroke="fuchsia" stroke-width="2" points="741.06,-435.18 731.67,-440.08 742.07,-442.11 741.06,-435.18"/>
</g>
<!-- c0 -->
<!-- c1 -->
<!-- c0&#45;&gt;c1 -->
<g id="edge31" class="edge">
<title>c0&#45;&gt;c1</title>
<path fill="none" stroke="red" d="M1600.39,-456C1611.61,-456 1669.74,-456 1695.36,-456"/>
<polygon fill="red" stroke="red" points="1695.56,-459.5 1705.56,-456 1695.56,-452.5 1695.56,-459.5"/>
<text text-anchor="middle" x="1653" y="-462.8" font-family="Times,serif" font-size="14.00">Control flow</text>
</g>
<!-- c2 -->
<!-- c3 -->
<!-- c2&#45;&gt;c3 -->
<g id="edge32" class="edge">
<title>c2&#45;&gt;c3</title>
<path fill="none" stroke="red" stroke-dasharray="5,2" d="M1393.58,-456C1410.55,-456 1526.71,-456 1564.58,-456"/>
<polygon fill="red" stroke="red" points="1564.67,-459.5 1574.67,-456 1564.67,-452.5 1564.67,-459.5"/>
<text text-anchor="middle" x="1484" y="-462.8" font-family="Times,serif" font-size="14.00">Control flow back edge</text>
</g>
<!-- d0 -->
<!-- d1 -->
<!-- d0&#45;&gt;d1 -->
<g id="edge33" class="edge">
<title>d0&#45;&gt;d1</title>
<path fill="none" stroke="black" d="M1282.36,-456C1291.91,-456 1335.81,-456 1357.42,-456"/>
<polygon fill="black" stroke="black" points="1357.65,-459.5 1367.65,-456 1357.65,-452.5 1357.65,-459.5"/>
<text text-anchor="middle" x="1325" y="-462.8" font-family="Times,serif" font-size="14.00">Data flow</text>
</g>
<!-- d2 -->
<!-- d3 -->
<!-- d2&#45;&gt;d3 -->
<g id="edge34" class="edge">
<title>d2&#45;&gt;d3</title>
<path fill="none" stroke="black" stroke-dasharray="1,5" d="M1156.31,-456C1166.96,-456 1221.96,-456 1246.58,-456"/>
<polygon fill="black" stroke="black" points="1246.65,-459.5 1256.65,-456 1246.65,-452.5 1246.65,-459.5"/>
<text text-anchor="middle" x="1206.5" y="-462.8" font-family="Times,serif" font-size="14.00">Declaration</text>
</g>
<!-- d4 -->
<!-- d5 -->
<!-- d4&#45;&gt;d5 -->
<g id="edge35" class="edge">
<title>d4&#45;&gt;d5</title>
<path fill="none" stroke="blue" d="M1013.6,-456C1026.22,-456 1092.38,-456 1120.18,-456"/>
<polygon fill="blue" stroke="blue" points="1120.34,-459.5 1130.34,-456 1120.34,-452.5 1120.34,-459.5"/>
<text text-anchor="middle" x="1072" y="-462.8" font-family="Times,serif" font-size="14.00">PHI Data flow</text>
</g>
<!-- d6 -->
<!-- d7 -->
<!-- d6&#45;&gt;d7 -->
<g id="edge36" class="edge">
<title>d6&#45;&gt;d7</title>
<path fill="none" stroke="green" d="M876.5,-456C888.44,-456 950.8,-456 977.43,-456"/>
<polygon fill="green" stroke="green" points="977.45,-459.5 987.45,-456 977.45,-452.5 977.45,-459.5"/>
<text text-anchor="middle" x="932" y="-462.8" font-family="Times,serif" font-size="14.00">Memory flow</text>
</g>
<!-- d8 -->
<!-- d9 -->
<!-- d8&#45;&gt;d9 -->
<g id="edge37" class="edge">
<title>d8&#45;&gt;d9</title>
<path fill="none" stroke="fuchsia" d="M753.61,-456C764.65,-456 816.17,-456 840.16,-456"/>
<polygon fill="fuchsia" stroke="fuchsia" points="840.4,-459.5 850.4,-456 840.4,-452.5 840.4,-459.5"/>
<text text-anchor="middle" x="802" y="-462.8" font-family="Times,serif" font-size="14.00">Dominance</text>
</g>
</g>
</svg>
