<?xml version="1.0" encoding="UTF-8" standalone="no"?>
<!DOCTYPE svg PUBLIC "-//W3C//DTD SVG 1.1//EN"
 "http://www.w3.org/Graphics/SVG/1.1/DTD/svg11.dtd">
<!-- Generated by graphviz version 2.43.0 (0)
 -->
<!-- Title: debugoutput Pages: 1 -->
<svg width="1702pt" height="505pt"
 viewBox="0.00 0.00 1701.50 504.80" xmlns="http://www.w3.org/2000/svg" xmlns:xlink="http://www.w3.org/1999/xlink">
<g id="graph0" class="graph" transform="scale(1 1) rotate(0) translate(4 500.8)">
<title>debugoutput</title>
<polygon fill="white" stroke="transparent" points="-4,4 -4,-500.8 1697.5,-500.8 1697.5,4 -4,4"/>
<g id="clust1" class="cluster">
<title>cluster_000</title>
<polygon fill="none" stroke="black" points="709.5,-446.2 709.5,-488.8 1685.5,-488.8 1685.5,-446.2 709.5,-446.2"/>
<text text-anchor="middle" x="1197.5" y="-473.6" font-family="Times,serif" font-size="14.00">Legend</text>
</g>
<!-- node0 -->
<g id="node1" class="node">
<title>node0</title>
<polygon fill="lightgrey" stroke="black" points="699.5,-474 533.5,-474 533.5,-438 699.5,-438 699.5,-474"/>
<text text-anchor="middle" x="616.5" y="-452.3" font-family="Times,serif" font-size="14.00">#0 Method Order : 0</text>
</g>
<!-- node1 -->
<g id="node2" class="node">
<title>node1</title>
<polygon fill="lightgrey" stroke="black" points="1052.5,-401 866.5,-401 866.5,-365 1052.5,-365 1052.5,-401"/>
<text text-anchor="middle" x="959.5" y="-379.3" font-family="Times,serif" font-size="14.00">#1 arg2 : int Order : 11</text>
</g>
<!-- node0&#45;&gt;node1 -->
<g id="edge2" class="edge">
<title>node0&#45;&gt;node1</title>
<path fill="none" stroke="black" d="M696.88,-437.94C761.6,-427.85 779.44,-434.54 843.5,-420 861.32,-415.96 880.35,-410.08 897.79,-404.25"/>
<polygon fill="black" stroke="black" points="898.94,-407.55 907.29,-401.02 896.69,-400.92 898.94,-407.55"/>
<text text-anchor="middle" x="892.84" y="-411.15" font-family="Times,serif" font-size="14.00">*0</text>
</g>
<!-- node2 -->
<g id="node3" class="node">
<title>node2</title>
<polygon fill="lightgrey" stroke="black" points="177,-401 0,-401 0,-365 177,-365 177,-401"/>
<text text-anchor="middle" x="88.5" y="-379.3" font-family="Times,serif" font-size="14.00">#2 arg3 : int Order : 9</text>
</g>
<!-- node0&#45;&gt;node2 -->
<g id="edge4" class="edge">
<title>node0&#45;&gt;node2</title>
<path fill="none" stroke="black" d="M533.28,-446.47C447.14,-436.9 308.67,-420.37 187.43,-402.47"/>
<polygon fill="black" stroke="black" points="187.65,-398.97 177.24,-400.96 186.62,-405.89 187.65,-398.97"/>
<text text-anchor="middle" x="196.41" y="-391.56" font-family="Times,serif" font-size="14.00">*0</text>
</g>
<!-- node3 -->
<g id="node4" class="node">
<title>node3</title>
<polygon fill="lightgrey" stroke="black" points="616,-401 439,-401 439,-365 616,-365 616,-401"/>
<text text-anchor="middle" x="527.5" y="-379.3" font-family="Times,serif" font-size="14.00">#3 arg0 : int Order : 3</text>
</g>
<!-- node0&#45;&gt;node3 -->
<g id="edge6" class="edge">
<title>node0&#45;&gt;node3</title>
<path fill="none" stroke="black" d="M589.08,-437.81C576.76,-428.74 562.46,-417.48 550.68,-407.6"/>
<polygon fill="black" stroke="black" points="552.86,-404.86 542.98,-401.03 548.32,-410.18 552.86,-404.86"/>
<text text-anchor="middle" x="562.26" y="-402.67" font-family="Times,serif" font-size="14.00">*0</text>
</g>
<!-- node4 -->
<g id="node5" class="node">
<title>node4</title>
<polygon fill="lightgrey" stroke="black" points="811,-401 634,-401 634,-365 811,-365 811,-401"/>
<text text-anchor="middle" x="722.5" y="-379.3" font-family="Times,serif" font-size="14.00">#4 arg1 : int Order : 2</text>
</g>
<!-- node0&#45;&gt;node4 -->
<g id="edge8" class="edge">
<title>node0&#45;&gt;node4</title>
<path fill="none" stroke="black" d="M636.03,-437.99C649.09,-428.58 666.58,-416.76 682.46,-406.57"/>
<polygon fill="black" stroke="black" points="684.51,-409.42 691.08,-401.11 680.76,-403.51 684.51,-409.42"/>
<text text-anchor="middle" x="680.29" y="-414.26" font-family="Times,serif" font-size="14.00">*0</text>
</g>
<!-- node5 -->
<g id="node6" class="node">
<title>node5</title>
<polygon fill="lightgrey" stroke="black" points="383.5,-401 195.5,-401 195.5,-365 383.5,-365 383.5,-401"/>
<text text-anchor="middle" x="289.5" y="-379.3" font-family="Times,serif" font-size="14.00">#5 LabelNode Order : 1</text>
</g>
<!-- node0&#45;&gt;node5 -->
<g id="edge10" class="edge">
<title>node0&#45;&gt;node5</title>
<path fill="none" stroke="red" d="M533.48,-446.08C489.84,-440.26 435.81,-431.58 388.5,-420 371.25,-415.78 352.81,-410.08 336.52,-404.47"/>
<polygon fill="red" stroke="red" points="337.28,-401.03 326.69,-401 334.95,-407.63 337.28,-401.03"/>
</g>
<!-- node10 -->
<g id="node11" class="node">
<title>node10</title>
<polygon fill="lightgrey" stroke="black" points="1085,-109 834,-109 834,-73 1085,-73 1085,-109"/>
<text text-anchor="middle" x="959.5" y="-87.3" font-family="Times,serif" font-size="14.00">#10 ReturnValue : int Order : 12</text>
</g>
<!-- node0&#45;&gt;node10 -->
<g id="edge24" class="edge">
<title>node0&#45;&gt;node10</title>
<path fill="none" stroke="green" d="M696.96,-437.93C776.06,-426.55 999.35,-459.96 1052.5,-401 1128.41,-316.79 1022.61,-174.7 977.69,-117.24"/>
<polygon fill="green" stroke="green" points="980.21,-114.79 971.28,-109.08 974.7,-119.11 980.21,-114.79"/>
</g>
<!-- node12 -->
<g id="node13" class="node">
<title>node12</title>
<polygon fill="lightgrey" stroke="black" points="590,-36 339,-36 339,0 590,0 590,-36"/>
<text text-anchor="middle" x="464.5" y="-14.3" font-family="Times,serif" font-size="14.00">#12 ReturnValue : int Order : 10</text>
</g>
<!-- node0&#45;&gt;node12 -->
<g id="edge30" class="edge">
<title>node0&#45;&gt;node12</title>
<path fill="none" stroke="green" d="M696.95,-437.95C851.23,-419.42 895.82,-458.85 1046.5,-420 1065.17,-415.19 1073.16,-415.82 1085.5,-401 1150.1,-323.4 1112.66,-100.76 1085.5,-73 1052.1,-38.86 772.95,-26.18 600.45,-21.56"/>
<polygon fill="green" stroke="green" points="600.36,-18.06 590.27,-21.3 600.18,-25.06 600.36,-18.06"/>
</g>
<!-- node1&#45;&gt;node0 -->
<g id="edge1" class="edge">
<title>node1&#45;&gt;node0</title>
<path fill="none" stroke="fuchsia" stroke-width="2" d="M923.59,-401.12C905.24,-407.91 882.52,-415.23 861.5,-420 797.31,-434.57 779.53,-427.82 714.5,-438 712.99,-438.24 711.48,-438.48 709.95,-438.73"/>
<polygon fill="fuchsia" stroke="fuchsia" stroke-width="2" points="709.01,-435.33 699.72,-440.44 710.16,-442.24 709.01,-435.33"/>
</g>
<!-- node1&#45;&gt;node10 -->
<g id="edge22" class="edge">
<title>node1&#45;&gt;node10</title>
<path fill="none" stroke="black" d="M959.5,-364.78C959.5,-350.41 959.5,-329.37 959.5,-311 959.5,-311 959.5,-311 959.5,-163 959.5,-148.65 959.5,-132.67 959.5,-119.51"/>
<polygon fill="black" stroke="black" points="963,-119.22 959.5,-109.22 956,-119.22 963,-119.22"/>
<text text-anchor="middle" x="967.95" y="-123.64" font-family="Times,serif" font-size="14.00">*0</text>
</g>
<!-- node2&#45;&gt;node0 -->
<g id="edge3" class="edge">
<title>node2&#45;&gt;node0</title>
<path fill="none" stroke="fuchsia" stroke-width="2" d="M177.12,-398.14C183.35,-399.14 189.52,-400.11 195.5,-401 308.12,-417.83 437.87,-433.63 523.28,-443.74"/>
<polygon fill="fuchsia" stroke="fuchsia" stroke-width="2" points="523.13,-447.25 533.47,-444.95 523.95,-440.3 523.13,-447.25"/>
</g>
<!-- node2&#45;&gt;node12 -->
<g id="edge28" class="edge">
<title>node2&#45;&gt;node12</title>
<path fill="none" stroke="black" d="M150.35,-364.96C192.05,-351.58 239.5,-331.78 239.5,-311 239.5,-311 239.5,-311 239.5,-90 239.5,-66.24 285.72,-49.43 336.26,-38.16"/>
<polygon fill="black" stroke="black" points="337.03,-41.57 346.07,-36.04 335.56,-34.73 337.03,-41.57"/>
<text text-anchor="middle" x="330.13" y="-44.42" font-family="Times,serif" font-size="14.00">*0</text>
</g>
<!-- node3&#45;&gt;node0 -->
<g id="edge5" class="edge">
<title>node3&#45;&gt;node0</title>
<path fill="none" stroke="fuchsia" stroke-width="2" d="M554.71,-401.03C567,-410.07 581.3,-421.33 593.11,-431.23"/>
<polygon fill="fuchsia" stroke="fuchsia" stroke-width="2" points="590.95,-433.99 600.83,-437.81 595.5,-428.66 590.95,-433.99"/>
</g>
<!-- node6 -->
<g id="node7" class="node">
<title>node6</title>
<polygon fill="orange" stroke="black" points="849.92,-302.54 849.92,-317.46 736.62,-328 576.38,-328 463.08,-317.46 463.08,-302.54 576.38,-292 736.62,-292 849.92,-302.54"/>
<text text-anchor="middle" x="656.5" y="-306.3" font-family="Times,serif" font-size="14.00">#6 NumericCondition : LE Order : 4</text>
</g>
<!-- node3&#45;&gt;node6 -->
<g id="edge12" class="edge">
<title>node3&#45;&gt;node6</title>
<path fill="none" stroke="black" d="M558.4,-364.99C575.82,-355.4 597.78,-343.32 616.51,-333.01"/>
<polygon fill="black" stroke="black" points="618.33,-336 625.41,-328.11 614.96,-329.87 618.33,-336"/>
<text text-anchor="middle" x="613.6" y="-340.56" font-family="Times,serif" font-size="14.00">*0</text>
</g>
<!-- node4&#45;&gt;node0 -->
<g id="edge7" class="edge">
<title>node4&#45;&gt;node0</title>
<path fill="none" stroke="fuchsia" stroke-width="2" d="M702.82,-401.11C689.73,-410.55 672.23,-422.37 656.36,-432.54"/>
<polygon fill="fuchsia" stroke="fuchsia" stroke-width="2" points="654.32,-429.69 647.75,-437.99 658.07,-435.6 654.32,-429.69"/>
</g>
<!-- node4&#45;&gt;node6 -->
<g id="edge13" class="edge">
<title>node4&#45;&gt;node6</title>
<path fill="none" stroke="black" d="M706.52,-364.81C698.34,-356 688.22,-345.13 679.24,-335.46"/>
<polygon fill="black" stroke="black" points="681.7,-332.97 672.33,-328.03 676.57,-337.74 681.7,-332.97"/>
<text text-anchor="middle" x="690.86" y="-331.85" font-family="Times,serif" font-size="14.00">*1</text>
</g>
<!-- node5&#45;&gt;node0 -->
<g id="edge9" class="edge">
<title>node5&#45;&gt;node0</title>
<path fill="none" stroke="fuchsia" stroke-width="2" d="M343.32,-401C363.1,-407.66 385.67,-414.9 406.5,-420 444.36,-429.27 486.52,-436.68 523.11,-442.25"/>
<polygon fill="fuchsia" stroke="fuchsia" stroke-width="2" points="522.86,-445.76 533.27,-443.78 523.9,-438.83 522.86,-445.76"/>
</g>
<!-- node7 -->
<g id="node8" class="node">
<title>node7</title>
<polygon fill="lightgrey" stroke="black" points="525.5,-255 403.5,-255 403.5,-219 525.5,-219 525.5,-255"/>
<text text-anchor="middle" x="464.5" y="-233.3" font-family="Times,serif" font-size="14.00">#7 If Order : 5</text>
</g>
<!-- node5&#45;&gt;node7 -->
<g id="edge16" class="edge">
<title>node5&#45;&gt;node7</title>
<path fill="none" stroke="red" d="M303.5,-364.87C322.87,-341.92 359.77,-300.84 397.5,-273 403.81,-268.34 410.83,-263.95 417.88,-259.96"/>
<polygon fill="red" stroke="red" points="419.66,-262.97 426.77,-255.12 416.31,-256.82 419.66,-262.97"/>
</g>
<!-- node6&#45;&gt;node0 -->
<g id="edge11" class="edge">
<title>node6&#45;&gt;node0</title>
<path fill="none" stroke="fuchsia" stroke-width="2" d="M743,-327.44C795.38,-341.4 847.18,-364.99 819.5,-401 812.22,-410.47 759.22,-424.39 709.21,-435.73"/>
<polygon fill="fuchsia" stroke="fuchsia" stroke-width="2" points="708.25,-432.35 699.26,-437.96 709.78,-439.18 708.25,-432.35"/>
</g>
<!-- node6&#45;&gt;node7 -->
<g id="edge15" class="edge">
<title>node6&#45;&gt;node7</title>
<path fill="none" stroke="black" d="M610.51,-291.99C583.4,-281.97 548.91,-269.21 520.25,-258.62"/>
<polygon fill="black" stroke="black" points="521.37,-255.3 510.78,-255.11 518.94,-261.86 521.37,-255.3"/>
<text text-anchor="middle" x="530.71" y="-249.77" font-family="Times,serif" font-size="14.00">*0</text>
</g>
<!-- node7&#45;&gt;node0 -->
<g id="edge14" class="edge">
<title>node7&#45;&gt;node0</title>
<path fill="none" stroke="fuchsia" stroke-width="2" d="M452.77,-255.14C432.49,-287.11 396.1,-356.59 429.5,-401 441.56,-417.03 482.64,-429.8 523.24,-438.9"/>
<polygon fill="fuchsia" stroke="fuchsia" stroke-width="2" points="522.74,-442.37 533.26,-441.07 524.23,-435.53 522.74,-442.37"/>
</g>
<!-- node8 -->
<g id="node9" class="node">
<title>node8</title>
<polygon fill="lightgrey" stroke="black" points="535,-182 394,-182 394,-146 535,-146 535,-182"/>
<text text-anchor="middle" x="464.5" y="-160.3" font-family="Times,serif" font-size="14.00">#8 true Order : 7</text>
</g>
<!-- node7&#45;&gt;node8 -->
<g id="edge18" class="edge">
<title>node7&#45;&gt;node8</title>
<path fill="none" stroke="red" d="M458.62,-218.81C457.78,-210.79 457.55,-201.05 457.92,-192.07"/>
<polygon fill="red" stroke="red" points="461.42,-192.25 458.64,-182.03 454.44,-191.75 461.42,-192.25"/>
</g>
<!-- node9 -->
<g id="node10" class="node">
<title>node9</title>
<polygon fill="lightgrey" stroke="black" points="698,-182 553,-182 553,-146 698,-146 698,-182"/>
<text text-anchor="middle" x="625.5" y="-160.3" font-family="Times,serif" font-size="14.00">#9 false Order : 6</text>
</g>
<!-- node7&#45;&gt;node9 -->
<g id="edge20" class="edge">
<title>node7&#45;&gt;node9</title>
<path fill="none" stroke="red" d="M497.2,-218.99C518.59,-209.1 546.94,-196.54 571.58,-186.03"/>
<polygon fill="red" stroke="red" points="572.98,-189.24 580.82,-182.11 570.25,-182.8 572.98,-189.24"/>
</g>
<!-- node8&#45;&gt;node7 -->
<g id="edge17" class="edge">
<title>node8&#45;&gt;node7</title>
<path fill="none" stroke="fuchsia" stroke-width="2" d="M470.36,-182.03C471.21,-190.03 471.45,-199.77 471.09,-208.75"/>
<polygon fill="fuchsia" stroke="fuchsia" stroke-width="2" points="467.59,-208.59 470.38,-218.81 474.57,-209.08 467.59,-208.59"/>
</g>
<!-- node11 -->
<g id="node12" class="node">
<title>node11</title>
<polygon fill="lightgrey" stroke="black" points="563,-109 366,-109 366,-73 563,-73 563,-109"/>
<text text-anchor="middle" x="464.5" y="-87.3" font-family="Times,serif" font-size="14.00">#11 LabelNode Order : 8</text>
</g>
<!-- node8&#45;&gt;node11 -->
<g id="edge26" class="edge">
<title>node8&#45;&gt;node11</title>
<path fill="none" stroke="red" d="M458.62,-145.81C457.78,-137.79 457.55,-128.05 457.92,-119.07"/>
<polygon fill="red" stroke="red" points="461.42,-119.25 458.64,-109.03 454.44,-118.75 461.42,-119.25"/>
</g>
<!-- node9&#45;&gt;node7 -->
<g id="edge19" class="edge">
<title>node9&#45;&gt;node7</title>
<path fill="none" stroke="fuchsia" stroke-width="2" d="M592.56,-182.11C571.13,-192.03 542.77,-204.58 518.15,-215.08"/>
<polygon fill="fuchsia" stroke="fuchsia" stroke-width="2" points="516.76,-211.87 508.92,-218.99 519.5,-218.31 516.76,-211.87"/>
</g>
<!-- node9&#45;&gt;node10 -->
<g id="edge23" class="edge">
<title>node9&#45;&gt;node10</title>
<path fill="none" stroke="red" d="M698.38,-147.51C748.71,-136.81 815.96,-122.51 869.61,-111.11"/>
<polygon fill="red" stroke="red" points="870.41,-114.52 879.47,-109.01 868.96,-107.67 870.41,-114.52"/>
</g>
<!-- node10&#45;&gt;node0 -->
<g id="edge21" class="edge">
<title>node10&#45;&gt;node0</title>
<path fill="none" stroke="fuchsia" stroke-width="2" d="M979.21,-109.08C1029.27,-159.96 1150.31,-312.46 1070.5,-401 1017.24,-460.08 793.19,-426.42 714.5,-438 712.99,-438.22 711.47,-438.45 709.94,-438.69"/>
<polygon fill="fuchsia" stroke="fuchsia" stroke-width="2" points="709.02,-435.29 699.7,-440.33 710.13,-442.2 709.02,-435.29"/>
</g>
<!-- node11&#45;&gt;node8 -->
<g id="edge25" class="edge">
<title>node11&#45;&gt;node8</title>
<path fill="none" stroke="fuchsia" stroke-width="2" d="M470.36,-109.03C471.21,-117.03 471.45,-126.77 471.09,-135.75"/>
<polygon fill="fuchsia" stroke="fuchsia" stroke-width="2" points="467.59,-135.59 470.38,-145.81 474.57,-136.08 467.59,-135.59"/>
</g>
<!-- node11&#45;&gt;node12 -->
<g id="edge29" class="edge">
<title>node11&#45;&gt;node12</title>
<path fill="none" stroke="red" d="M464.5,-72.81C464.5,-64.79 464.5,-55.05 464.5,-46.07"/>
<polygon fill="red" stroke="red" points="468,-46.03 464.5,-36.03 461,-46.03 468,-46.03"/>
</g>
<!-- node12&#45;&gt;node0 -->
<g id="edge27" class="edge">
<title>node12&#45;&gt;node0</title>
<path fill="none" stroke="fuchsia" stroke-width="2" d="M590.09,-21C766.13,-25.12 1068.64,-37.37 1103.5,-73 1130.66,-100.76 1168.1,-323.4 1103.5,-401 1091.16,-415.82 1083.17,-415.19 1064.5,-420 913.67,-458.89 869.14,-419.34 714.5,-438 712.99,-438.18 711.46,-438.38 709.92,-438.58"/>
<polygon fill="fuchsia" stroke="fuchsia" stroke-width="2" points="709.07,-435.16 699.67,-440.04 710.06,-442.09 709.07,-435.16"/>
</g>
<!-- c0 -->
<!-- c1 -->
<!-- c0&#45;&gt;c1 -->
<g id="edge31" class="edge">
<title>c0&#45;&gt;c1</title>
<path fill="none" stroke="red" d="M1568.39,-456C1579.61,-456 1637.74,-456 1663.36,-456"/>
<polygon fill="red" stroke="red" points="1663.56,-459.5 1673.56,-456 1663.56,-452.5 1663.56,-459.5"/>
<text text-anchor="middle" x="1621" y="-462.8" font-family="Times,serif" font-size="14.00">Control flow</text>
</g>
<!-- c2 -->
<!-- c3 -->
<!-- c2&#45;&gt;c3 -->
<g id="edge32" class="edge">
<title>c2&#45;&gt;c3</title>
<path fill="none" stroke="red" stroke-dasharray="5,2" d="M1361.58,-456C1378.55,-456 1494.71,-456 1532.58,-456"/>
<polygon fill="red" stroke="red" points="1532.67,-459.5 1542.67,-456 1532.67,-452.5 1532.67,-459.5"/>
<text text-anchor="middle" x="1452" y="-462.8" font-family="Times,serif" font-size="14.00">Control flow back edge</text>
</g>
<!-- d0 -->
<!-- d1 -->
<!-- d0&#45;&gt;d1 -->
<g id="edge33" class="edge">
<title>d0&#45;&gt;d1</title>
<path fill="none" stroke="black" d="M1250.36,-456C1259.91,-456 1303.81,-456 1325.42,-456"/>
<polygon fill="black" stroke="black" points="1325.65,-459.5 1335.65,-456 1325.65,-452.5 1325.65,-459.5"/>
<text text-anchor="middle" x="1293" y="-462.8" font-family="Times,serif" font-size="14.00">Data flow</text>
</g>
<!-- d2 -->
<!-- d3 -->
<!-- d2&#45;&gt;d3 -->
<g id="edge34" class="edge">
<title>d2&#45;&gt;d3</title>
<path fill="none" stroke="black" stroke-dasharray="1,5" d="M1124.31,-456C1134.96,-456 1189.96,-456 1214.58,-456"/>
<polygon fill="black" stroke="black" points="1214.65,-459.5 1224.65,-456 1214.65,-452.5 1214.65,-459.5"/>
<text text-anchor="middle" x="1174.5" y="-462.8" font-family="Times,serif" font-size="14.00">Declaration</text>
</g>
<!-- d4 -->
<!-- d5 -->
<!-- d4&#45;&gt;d5 -->
<g id="edge35" class="edge">
<title>d4&#45;&gt;d5</title>
<path fill="none" stroke="blue" d="M981.6,-456C994.22,-456 1060.38,-456 1088.18,-456"/>
<polygon fill="blue" stroke="blue" points="1088.34,-459.5 1098.34,-456 1088.34,-452.5 1088.34,-459.5"/>
<text text-anchor="middle" x="1040" y="-462.8" font-family="Times,serif" font-size="14.00">PHI Data flow</text>
</g>
<!-- d6 -->
<!-- d7 -->
<!-- d6&#45;&gt;d7 -->
<g id="edge36" class="edge">
<title>d6&#45;&gt;d7</title>
<path fill="none" stroke="green" d="M844.5,-456C856.44,-456 918.8,-456 945.43,-456"/>
<polygon fill="green" stroke="green" points="945.45,-459.5 955.45,-456 945.45,-452.5 945.45,-459.5"/>
<text text-anchor="middle" x="900" y="-462.8" font-family="Times,serif" font-size="14.00">Memory flow</text>
</g>
<!-- d8 -->
<!-- d9 -->
<!-- d8&#45;&gt;d9 -->
<g id="edge37" class="edge">
<title>d8&#45;&gt;d9</title>
<path fill="none" stroke="fuchsia" d="M721.61,-456C732.65,-456 784.17,-456 808.16,-456"/>
<polygon fill="fuchsia" stroke="fuchsia" points="808.4,-459.5 818.4,-456 808.4,-452.5 808.4,-459.5"/>
<text text-anchor="middle" x="770" y="-462.8" font-family="Times,serif" font-size="14.00">Dominance</text>
</g>
</g>
</svg>
