<?xml version="1.0" encoding="UTF-8" standalone="no"?>
<!DOCTYPE svg PUBLIC "-//W3C//DTD SVG 1.1//EN"
 "http://www.w3.org/Graphics/SVG/1.1/DTD/svg11.dtd">
<!-- Generated by graphviz version 2.43.0 (0)
 -->
<!-- Title: debugoutput Pages: 1 -->
<svg width="1709pt" height="505pt"
 viewBox="0.00 0.00 1709.00 504.80" xmlns="http://www.w3.org/2000/svg" xmlns:xlink="http://www.w3.org/1999/xlink">
<g id="graph0" class="graph" transform="scale(1 1) rotate(0) translate(4 500.8)">
<title>debugoutput</title>
<polygon fill="white" stroke="transparent" points="-4,4 -4,-500.8 1705,-500.8 1705,4 -4,4"/>
<g id="clust1" class="cluster">
<title>cluster_000</title>
<polygon fill="none" stroke="black" points="717,-446.2 717,-488.8 1693,-488.8 1693,-446.2 717,-446.2"/>
<text text-anchor="middle" x="1205" y="-473.6" font-family="Times,serif" font-size="14.00">Legend</text>
</g>
<!-- node0 -->
<g id="node1" class="node">
<title>node0</title>
<polygon fill="lightgrey" stroke="black" points="707,-474 541,-474 541,-438 707,-438 707,-474"/>
<text text-anchor="middle" x="624" y="-452.3" font-family="Times,serif" font-size="14.00">#0 Method Order : 0</text>
</g>
<!-- node1 -->
<g id="node2" class="node">
<title>node1</title>
<polygon fill="lightgrey" stroke="black" points="186,-401 0,-401 0,-365 186,-365 186,-401"/>
<text text-anchor="middle" x="93" y="-379.3" font-family="Times,serif" font-size="14.00">#1 arg2 : int Order : 11</text>
</g>
<!-- node0&#45;&gt;node1 -->
<g id="edge2" class="edge">
<title>node0&#45;&gt;node1</title>
<path fill="none" stroke="black" d="M540.82,-454.23C452.85,-452.09 310.72,-444.7 191,-420 173.03,-416.29 153.89,-410.48 137.28,-404.6"/>
<polygon fill="black" stroke="black" points="138.42,-401.29 127.83,-401.15 136.02,-407.87 138.42,-401.29"/>
<text text-anchor="middle" x="147.75" y="-395.73" font-family="Times,serif" font-size="14.00">*0</text>
</g>
<!-- node2 -->
<g id="node3" class="node">
<title>node2</title>
<polygon fill="lightgrey" stroke="black" points="857.5,-401 680.5,-401 680.5,-365 857.5,-365 857.5,-401"/>
<text text-anchor="middle" x="769" y="-379.3" font-family="Times,serif" font-size="14.00">#2 arg1 : int Order : 4</text>
</g>
<!-- node0&#45;&gt;node2 -->
<g id="edge4" class="edge">
<title>node0&#45;&gt;node2</title>
<path fill="none" stroke="black" d="M652.87,-437.99C671.78,-428.23 696.87,-415.88 718.94,-405.45"/>
<polygon fill="black" stroke="black" points="720.61,-408.53 728.18,-401.11 717.64,-402.19 720.61,-408.53"/>
<text text-anchor="middle" x="715.36" y="-412.77" font-family="Times,serif" font-size="14.00">*0</text>
</g>
<!-- node3 -->
<g id="node4" class="node">
<title>node3</title>
<polygon fill="lightgrey" stroke="black" points="625.5,-401 448.5,-401 448.5,-365 625.5,-365 625.5,-401"/>
<text text-anchor="middle" x="537" y="-379.3" font-family="Times,serif" font-size="14.00">#3 arg0 : int Order : 3</text>
</g>
<!-- node0&#45;&gt;node3 -->
<g id="edge6" class="edge">
<title>node0&#45;&gt;node3</title>
<path fill="none" stroke="black" d="M597.06,-437.81C585.11,-428.83 571.29,-417.69 559.85,-407.89"/>
<polygon fill="black" stroke="black" points="561.84,-404.97 552,-401.03 557.23,-410.24 561.84,-404.97"/>
<text text-anchor="middle" x="571.22" y="-402.89" font-family="Times,serif" font-size="14.00">*0</text>
</g>
<!-- node4 -->
<g id="node5" class="node">
<title>node4</title>
<polygon fill="lightgrey" stroke="black" points="1145.5,-401 968.5,-401 968.5,-365 1145.5,-365 1145.5,-401"/>
<text text-anchor="middle" x="1057" y="-379.3" font-family="Times,serif" font-size="14.00">#4 arg3 : int Order : 2</text>
</g>
<!-- node0&#45;&gt;node4 -->
<g id="edge8" class="edge">
<title>node0&#45;&gt;node4</title>
<path fill="none" stroke="black" d="M704.31,-437.96C810.98,-423.89 840.55,-442.12 946,-420 963.36,-416.36 981.8,-410.5 998.6,-404.56"/>
<polygon fill="black" stroke="black" points="1000.07,-407.75 1008.29,-401.07 997.7,-401.17 1000.07,-407.75"/>
<text text-anchor="middle" x="994.1" y="-411.47" font-family="Times,serif" font-size="14.00">*0</text>
</g>
<!-- node5 -->
<g id="node6" class="node">
<title>node5</title>
<polygon fill="lightgrey" stroke="black" points="430,-401 242,-401 242,-365 430,-365 430,-401"/>
<text text-anchor="middle" x="336" y="-379.3" font-family="Times,serif" font-size="14.00">#5 LabelNode Order : 1</text>
</g>
<!-- node0&#45;&gt;node5 -->
<g id="edge10" class="edge">
<title>node0&#45;&gt;node5</title>
<path fill="none" stroke="red" d="M549.16,-437.99C506.07,-427.64 452.18,-414.38 409.35,-403.59"/>
<polygon fill="red" stroke="red" points="410.1,-400.17 399.55,-401.11 408.39,-406.96 410.1,-400.17"/>
</g>
<!-- node7 -->
<g id="node8" class="node">
<title>node7</title>
<polygon fill="lightgrey" stroke="black" points="714,-255 592,-255 592,-219 714,-219 714,-255"/>
<text text-anchor="middle" x="653" y="-233.3" font-family="Times,serif" font-size="14.00">#7 If Order : 6</text>
</g>
<!-- node0&#45;&gt;node7 -->
<g id="edge17" class="edge">
<title>node0&#45;&gt;node7</title>
<path fill="none" stroke="green" d="M705.67,-437.94C771.2,-424.6 852.96,-407.29 858,-401 873.24,-382 858.73,-306.04 846,-292 829.22,-273.48 772.04,-259.26 724.18,-250.07"/>
<polygon fill="green" stroke="green" points="724.61,-246.59 714.13,-248.19 723.32,-253.47 724.61,-246.59"/>
</g>
<!-- node1&#45;&gt;node0 -->
<g id="edge1" class="edge">
<title>node1&#45;&gt;node0</title>
<path fill="none" stroke="fuchsia" stroke-width="2" d="M144.05,-401.05C164.13,-408.05 187.41,-415.54 209,-420 318.13,-442.52 445.89,-450.65 530.58,-453.53"/>
<polygon fill="fuchsia" stroke="fuchsia" stroke-width="2" points="530.58,-457.03 540.69,-453.86 530.81,-450.04 530.58,-457.03"/>
</g>
<!-- node10 -->
<g id="node11" class="node">
<title>node10</title>
<polygon fill="lightgrey" stroke="black" points="339.5,-109 88.5,-109 88.5,-73 339.5,-73 339.5,-109"/>
<text text-anchor="middle" x="214" y="-87.3" font-family="Times,serif" font-size="14.00">#10 ReturnValue : int Order : 12</text>
</g>
<!-- node1&#45;&gt;node10 -->
<g id="edge23" class="edge">
<title>node1&#45;&gt;node10</title>
<path fill="none" stroke="black" d="M97.54,-364.92C100.93,-350.62 105,-329.63 105,-311 105,-311 105,-311 105,-163 105,-140.28 121.84,-124.45 142.27,-113.61"/>
<polygon fill="black" stroke="black" points="144.07,-116.62 151.54,-109.11 141.02,-110.33 144.07,-116.62"/>
<text text-anchor="middle" x="138.92" y="-120.93" font-family="Times,serif" font-size="14.00">*0</text>
</g>
<!-- node2&#45;&gt;node0 -->
<g id="edge3" class="edge">
<title>node2&#45;&gt;node0</title>
<path fill="none" stroke="fuchsia" stroke-width="2" d="M739.92,-401.11C720.97,-410.9 695.86,-423.25 673.82,-433.66"/>
<polygon fill="fuchsia" stroke="fuchsia" stroke-width="2" points="672.16,-430.58 664.59,-437.99 675.13,-436.92 672.16,-430.58"/>
</g>
<!-- node6 -->
<g id="node7" class="node">
<title>node6</title>
<polygon fill="orange" stroke="black" points="846.42,-302.54 846.42,-317.46 733.12,-328 572.88,-328 459.58,-317.46 459.58,-302.54 572.88,-292 733.12,-292 846.42,-302.54"/>
<text text-anchor="middle" x="653" y="-306.3" font-family="Times,serif" font-size="14.00">#6 NumericCondition : LE Order : 5</text>
</g>
<!-- node2&#45;&gt;node6 -->
<g id="edge13" class="edge">
<title>node2&#45;&gt;node6</title>
<path fill="none" stroke="black" d="M741.22,-364.99C725.83,-355.58 706.52,-343.76 689.88,-333.57"/>
<polygon fill="black" stroke="black" points="691.32,-330.35 680.96,-328.11 687.66,-336.32 691.32,-330.35"/>
<text text-anchor="middle" x="700.83" y="-326.67" font-family="Times,serif" font-size="14.00">*1</text>
</g>
<!-- node3&#45;&gt;node0 -->
<g id="edge5" class="edge">
<title>node3&#45;&gt;node0</title>
<path fill="none" stroke="fuchsia" stroke-width="2" d="M563.73,-401.03C575.77,-410.07 589.75,-421.33 601.28,-431.23"/>
<polygon fill="fuchsia" stroke="fuchsia" stroke-width="2" points="598.98,-433.87 608.82,-437.81 603.59,-428.6 598.98,-433.87"/>
</g>
<!-- node3&#45;&gt;node6 -->
<g id="edge12" class="edge">
<title>node3&#45;&gt;node6</title>
<path fill="none" stroke="black" d="M564.78,-364.99C580.17,-355.58 599.48,-343.76 616.12,-333.57"/>
<polygon fill="black" stroke="black" points="618.34,-336.32 625.04,-328.11 614.68,-330.35 618.34,-336.32"/>
<text text-anchor="middle" x="613.99" y="-341.09" font-family="Times,serif" font-size="14.00">*0</text>
</g>
<!-- node4&#45;&gt;node0 -->
<g id="edge7" class="edge">
<title>node4&#45;&gt;node0</title>
<path fill="none" stroke="fuchsia" stroke-width="2" d="M1024.74,-401.07C1007.08,-408.12 984.77,-415.64 964,-420 858.44,-442.14 828.92,-423.86 722,-438 720.49,-438.2 718.97,-438.41 717.43,-438.63"/>
<polygon fill="fuchsia" stroke="fuchsia" stroke-width="2" points="716.55,-435.22 707.18,-440.17 717.59,-442.14 716.55,-435.22"/>
</g>
<!-- node12 -->
<g id="node13" class="node">
<title>node12</title>
<polygon fill="lightgrey" stroke="black" points="1066.5,-36 815.5,-36 815.5,0 1066.5,0 1066.5,-36"/>
<text text-anchor="middle" x="941" y="-14.3" font-family="Times,serif" font-size="14.00">#12 ReturnValue : int Order : 10</text>
</g>
<!-- node4&#45;&gt;node12 -->
<g id="edge29" class="edge">
<title>node4&#45;&gt;node12</title>
<path fill="none" stroke="black" d="M1041.14,-364.75C1030.34,-351.18 1018,-331.25 1018,-311 1018,-311 1018,-311 1018,-90 1018,-69.72 1003.38,-53.63 986.88,-41.93"/>
<polygon fill="black" stroke="black" points="988.43,-38.76 978.15,-36.21 984.6,-44.62 988.43,-38.76"/>
<text text-anchor="middle" x="997.94" y="-35.37" font-family="Times,serif" font-size="14.00">*0</text>
</g>
<!-- node5&#45;&gt;node0 -->
<g id="edge9" class="edge">
<title>node5&#45;&gt;node0</title>
<path fill="none" stroke="fuchsia" stroke-width="2" d="M411.03,-401.05C454.23,-411.43 508.24,-424.73 551.08,-435.52"/>
<polygon fill="fuchsia" stroke="fuchsia" stroke-width="2" points="550.32,-438.94 560.88,-437.99 552.04,-432.15 550.32,-438.94"/>
</g>
<!-- node5&#45;&gt;node7 -->
<g id="edge16" class="edge">
<title>node5&#45;&gt;node7</title>
<path fill="none" stroke="red" d="M353.16,-364.87C374.37,-344.61 412.43,-311.24 451,-292 492.18,-271.46 542.1,-258.03 582.02,-249.69"/>
<polygon fill="red" stroke="red" points="582.83,-253.1 591.94,-247.68 581.44,-246.24 582.83,-253.1"/>
</g>
<!-- node6&#45;&gt;node0 -->
<g id="edge11" class="edge">
<title>node6&#45;&gt;node0</title>
<path fill="none" stroke="fuchsia" stroke-width="2" d="M649.56,-328.06C644.6,-352.73 635.36,-398.61 629.45,-427.93"/>
<polygon fill="fuchsia" stroke="fuchsia" stroke-width="2" points="625.98,-427.42 627.44,-437.92 632.85,-428.8 625.98,-427.42"/>
</g>
<!-- node6&#45;&gt;node7 -->
<g id="edge15" class="edge">
<title>node6&#45;&gt;node7</title>
<path fill="none" stroke="black" d="M653,-291.81C653,-283.79 653,-274.05 653,-265.07"/>
<polygon fill="black" stroke="black" points="656.5,-265.03 653,-255.03 649.5,-265.03 656.5,-265.03"/>
<text text-anchor="middle" x="661.45" y="-269.45" font-family="Times,serif" font-size="14.00">*0</text>
</g>
<!-- node7&#45;&gt;node0 -->
<g id="edge14" class="edge">
<title>node7&#45;&gt;node0</title>
<path fill="none" stroke="fuchsia" stroke-width="2" d="M714.2,-245.8C769.31,-254.52 844.35,-270.31 864,-292 876.73,-306.04 891.24,-382 876,-401 870.89,-407.38 786.93,-425.08 717.26,-438.49"/>
<polygon fill="fuchsia" stroke="fuchsia" stroke-width="2" points="716.25,-435.12 707.09,-440.44 717.57,-442 716.25,-435.12"/>
</g>
<!-- node8 -->
<g id="node9" class="node">
<title>node8</title>
<polygon fill="lightgrey" stroke="black" points="784.5,-182 643.5,-182 643.5,-146 784.5,-146 784.5,-182"/>
<text text-anchor="middle" x="714" y="-160.3" font-family="Times,serif" font-size="14.00">#8 true Order : 8</text>
</g>
<!-- node7&#45;&gt;node8 -->
<g id="edge19" class="edge">
<title>node7&#45;&gt;node8</title>
<path fill="none" stroke="red" d="M661.89,-218.81C668.53,-210 677.69,-199.13 686.54,-189.46"/>
<polygon fill="red" stroke="red" points="689.22,-191.72 693.51,-182.03 684.11,-186.93 689.22,-191.72"/>
</g>
<!-- node9 -->
<g id="node10" class="node">
<title>node9</title>
<polygon fill="lightgrey" stroke="black" points="625.5,-182 480.5,-182 480.5,-146 625.5,-146 625.5,-182"/>
<text text-anchor="middle" x="553" y="-160.3" font-family="Times,serif" font-size="14.00">#9 false Order : 7</text>
</g>
<!-- node7&#45;&gt;node9 -->
<g id="edge21" class="edge">
<title>node7&#45;&gt;node9</title>
<path fill="none" stroke="red" d="M623.19,-218.99C609.19,-209.75 592.74,-198.19 579.22,-188.14"/>
<polygon fill="red" stroke="red" points="581.32,-185.34 571.23,-182.11 577.11,-190.93 581.32,-185.34"/>
</g>
<!-- node7&#45;&gt;node10 -->
<g id="edge25" class="edge">
<title>node7&#45;&gt;node10</title>
<path fill="none" stroke="green" d="M592.94,-218.97C557.35,-208.69 511.46,-195.08 471,-182 401.48,-159.53 322.24,-131.39 270.35,-112.62"/>
<polygon fill="green" stroke="green" points="271.26,-109.22 260.67,-109.11 268.88,-115.8 271.26,-109.22"/>
</g>
<!-- node7&#45;&gt;node12 -->
<g id="edge31" class="edge">
<title>node7&#45;&gt;node12</title>
<path fill="none" stroke="green" d="M714.02,-219.61C740.05,-210.91 769.9,-198.54 794,-182 849.91,-143.64 899.11,-79.87 923.92,-44.53"/>
<polygon fill="green" stroke="green" points="926.88,-46.41 929.69,-36.2 921.12,-42.43 926.88,-46.41"/>
</g>
<!-- node8&#45;&gt;node7 -->
<g id="edge18" class="edge">
<title>node8&#45;&gt;node7</title>
<path fill="none" stroke="fuchsia" stroke-width="2" d="M705.23,-182.03C698.62,-190.81 689.47,-201.69 680.62,-211.37"/>
<polygon fill="fuchsia" stroke="fuchsia" stroke-width="2" points="677.93,-209.12 673.64,-218.81 683.04,-213.91 677.93,-209.12"/>
</g>
<!-- node11 -->
<g id="node12" class="node">
<title>node11</title>
<polygon fill="lightgrey" stroke="black" points="812.5,-109 615.5,-109 615.5,-73 812.5,-73 812.5,-109"/>
<text text-anchor="middle" x="714" y="-87.3" font-family="Times,serif" font-size="14.00">#11 LabelNode Order : 9</text>
</g>
<!-- node8&#45;&gt;node11 -->
<g id="edge27" class="edge">
<title>node8&#45;&gt;node11</title>
<path fill="none" stroke="red" d="M708.12,-145.81C707.28,-137.79 707.05,-128.05 707.42,-119.07"/>
<polygon fill="red" stroke="red" points="710.92,-119.25 708.14,-109.03 703.94,-118.75 710.92,-119.25"/>
</g>
<!-- node9&#45;&gt;node7 -->
<g id="edge20" class="edge">
<title>node9&#45;&gt;node7</title>
<path fill="none" stroke="fuchsia" stroke-width="2" d="M582.85,-182.03C596.67,-191.16 612.9,-202.55 626.31,-212.51"/>
<polygon fill="fuchsia" stroke="fuchsia" stroke-width="2" points="624.58,-215.59 634.67,-218.81 628.79,-210 624.58,-215.59"/>
</g>
<!-- node9&#45;&gt;node10 -->
<g id="edge24" class="edge">
<title>node9&#45;&gt;node10</title>
<path fill="none" stroke="red" d="M480.28,-147.77C429.09,-137.05 360.18,-122.62 305.3,-111.12"/>
<polygon fill="red" stroke="red" points="305.72,-107.63 295.22,-109.01 304.29,-114.49 305.72,-107.63"/>
</g>
<!-- node10&#45;&gt;node0 -->
<g id="edge22" class="edge">
<title>node10&#45;&gt;node0</title>
<path fill="none" stroke="fuchsia" stroke-width="2" d="M214,-109.22C214,-123.59 214,-144.63 214,-163 214,-384 214,-384 214,-384 214,-395.33 222.72,-396.24 233,-401 284.35,-424.77 432.18,-440.35 530.63,-448.41"/>
<polygon fill="fuchsia" stroke="fuchsia" stroke-width="2" points="530.64,-451.92 540.89,-449.23 531.21,-444.94 530.64,-451.92"/>
</g>
<!-- node11&#45;&gt;node8 -->
<g id="edge26" class="edge">
<title>node11&#45;&gt;node8</title>
<path fill="none" stroke="fuchsia" stroke-width="2" d="M719.86,-109.03C720.71,-117.03 720.95,-126.77 720.59,-135.75"/>
<polygon fill="fuchsia" stroke="fuchsia" stroke-width="2" points="717.09,-135.59 719.88,-145.81 724.07,-136.08 717.09,-135.59"/>
</g>
<!-- node11&#45;&gt;node12 -->
<g id="edge30" class="edge">
<title>node11&#45;&gt;node12</title>
<path fill="none" stroke="red" d="M768.37,-72.99C800.84,-62.84 842.27,-49.88 876.41,-39.2"/>
<polygon fill="red" stroke="red" points="877.79,-42.44 886.28,-36.11 875.7,-35.76 877.79,-42.44"/>
</g>
<!-- node12&#45;&gt;node0 -->
<g id="edge28" class="edge">
<title>node12&#45;&gt;node0</title>
<path fill="none" stroke="fuchsia" stroke-width="2" d="M941,-36.22C941,-50.59 941,-71.63 941,-90 941,-384 941,-384 941,-384 941,-433.32 782.43,-429.57 717.33,-437.55"/>
<polygon fill="fuchsia" stroke="fuchsia" stroke-width="2" points="716.75,-434.09 707.36,-439 717.77,-441.02 716.75,-434.09"/>
</g>
<!-- c0 -->
<!-- c1 -->
<!-- c0&#45;&gt;c1 -->
<g id="edge32" class="edge">
<title>c0&#45;&gt;c1</title>
<path fill="none" stroke="red" d="M1575.89,-456C1587.11,-456 1645.24,-456 1670.86,-456"/>
<polygon fill="red" stroke="red" points="1671.06,-459.5 1681.06,-456 1671.06,-452.5 1671.06,-459.5"/>
<text text-anchor="middle" x="1628.5" y="-462.8" font-family="Times,serif" font-size="14.00">Control flow</text>
</g>
<!-- c2 -->
<!-- c3 -->
<!-- c2&#45;&gt;c3 -->
<g id="edge33" class="edge">
<title>c2&#45;&gt;c3</title>
<path fill="none" stroke="red" stroke-dasharray="5,2" d="M1369.08,-456C1386.05,-456 1502.21,-456 1540.08,-456"/>
<polygon fill="red" stroke="red" points="1540.17,-459.5 1550.17,-456 1540.17,-452.5 1540.17,-459.5"/>
<text text-anchor="middle" x="1459.5" y="-462.8" font-family="Times,serif" font-size="14.00">Control flow back edge</text>
</g>
<!-- d0 -->
<!-- d1 -->
<!-- d0&#45;&gt;d1 -->
<g id="edge34" class="edge">
<title>d0&#45;&gt;d1</title>
<path fill="none" stroke="black" d="M1257.86,-456C1267.41,-456 1311.31,-456 1332.92,-456"/>
<polygon fill="black" stroke="black" points="1333.15,-459.5 1343.15,-456 1333.15,-452.5 1333.15,-459.5"/>
<text text-anchor="middle" x="1300.5" y="-462.8" font-family="Times,serif" font-size="14.00">Data flow</text>
</g>
<!-- d2 -->
<!-- d3 -->
<!-- d2&#45;&gt;d3 -->
<g id="edge35" class="edge">
<title>d2&#45;&gt;d3</title>
<path fill="none" stroke="black" stroke-dasharray="1,5" d="M1131.81,-456C1142.46,-456 1197.46,-456 1222.08,-456"/>
<polygon fill="black" stroke="black" points="1222.15,-459.5 1232.15,-456 1222.15,-452.5 1222.15,-459.5"/>
<text text-anchor="middle" x="1182" y="-462.8" font-family="Times,serif" font-size="14.00">Declaration</text>
</g>
<!-- d4 -->
<!-- d5 -->
<!-- d4&#45;&gt;d5 -->
<g id="edge36" class="edge">
<title>d4&#45;&gt;d5</title>
<path fill="none" stroke="blue" d="M989.1,-456C1001.72,-456 1067.88,-456 1095.68,-456"/>
<polygon fill="blue" stroke="blue" points="1095.84,-459.5 1105.84,-456 1095.84,-452.5 1095.84,-459.5"/>
<text text-anchor="middle" x="1047.5" y="-462.8" font-family="Times,serif" font-size="14.00">PHI Data flow</text>
</g>
<!-- d6 -->
<!-- d7 -->
<!-- d6&#45;&gt;d7 -->
<g id="edge37" class="edge">
<title>d6&#45;&gt;d7</title>
<path fill="none" stroke="green" d="M852,-456C863.94,-456 926.3,-456 952.93,-456"/>
<polygon fill="green" stroke="green" points="952.95,-459.5 962.95,-456 952.95,-452.5 952.95,-459.5"/>
<text text-anchor="middle" x="907.5" y="-462.8" font-family="Times,serif" font-size="14.00">Memory flow</text>
</g>
<!-- d8 -->
<!-- d9 -->
<!-- d8&#45;&gt;d9 -->
<g id="edge38" class="edge">
<title>d8&#45;&gt;d9</title>
<path fill="none" stroke="fuchsia" d="M729.11,-456C740.15,-456 791.67,-456 815.66,-456"/>
<polygon fill="fuchsia" stroke="fuchsia" points="815.9,-459.5 825.9,-456 815.9,-452.5 815.9,-459.5"/>
<text text-anchor="middle" x="777.5" y="-462.8" font-family="Times,serif" font-size="14.00">Dominance</text>
</g>
</g>
</svg>
