<?xml version="1.0" encoding="UTF-8" standalone="no"?>
<!DOCTYPE svg PUBLIC "-//W3C//DTD SVG 1.1//EN"
 "http://www.w3.org/Graphics/SVG/1.1/DTD/svg11.dtd">
<!-- Generated by graphviz version 2.43.0 (0)
 -->
<!-- Title: debugoutput Pages: 1 -->
<svg width="1671pt" height="505pt"
 viewBox="0.00 0.00 1670.50 504.80" xmlns="http://www.w3.org/2000/svg" xmlns:xlink="http://www.w3.org/1999/xlink">
<g id="graph0" class="graph" transform="scale(1 1) rotate(0) translate(4 500.8)">
<title>debugoutput</title>
<polygon fill="white" stroke="transparent" points="-4,4 -4,-500.8 1666.5,-500.8 1666.5,4 -4,4"/>
<g id="clust1" class="cluster">
<title>cluster_000</title>
<polygon fill="none" stroke="black" points="815.5,-446.2 815.5,-488.8 1654.5,-488.8 1654.5,-446.2 815.5,-446.2"/>
<text text-anchor="middle" x="1235" y="-473.6" font-family="Times,serif" font-size="14.00">Legend</text>
</g>
<!-- node0 -->
<g id="node1" class="node">
<title>node0</title>
<polygon fill="lightgrey" stroke="black" points="805.5,-474 639.5,-474 639.5,-438 805.5,-438 805.5,-474"/>
<text text-anchor="middle" x="722.5" y="-452.3" font-family="Times,serif" font-size="14.00">#0 Method Order : 0</text>
</g>
<!-- node1 -->
<g id="node2" class="node">
<title>node1</title>
<polygon fill="lightgrey" stroke="black" points="616,-401 439,-401 439,-365 616,-365 616,-401"/>
<text text-anchor="middle" x="527.5" y="-379.3" font-family="Times,serif" font-size="14.00">#1 arg1 : int Order : 5</text>
</g>
<!-- node0&#45;&gt;node1 -->
<g id="edge2" class="edge">
<title>node0&#45;&gt;node1</title>
<path fill="none" stroke="black" d="M669.93,-437.99C641.46,-428.01 606.5,-415.32 578.3,-404.76"/>
<polygon fill="black" stroke="black" points="579.22,-401.36 568.63,-401.11 576.76,-407.91 579.22,-401.36"/>
<text text-anchor="middle" x="588.57" y="-395.89" font-family="Times,serif" font-size="14.00">*0</text>
</g>
<!-- node2 -->
<g id="node3" class="node">
<title>node2</title>
<polygon fill="lightgrey" stroke="black" points="1043,-401 866,-401 866,-365 1043,-365 1043,-401"/>
<text text-anchor="middle" x="954.5" y="-379.3" font-family="Times,serif" font-size="14.00">#2 arg2 : int Order : 4</text>
</g>
<!-- node0&#45;&gt;node2 -->
<g id="edge4" class="edge">
<title>node0&#45;&gt;node2</title>
<path fill="none" stroke="black" d="M780.99,-437.99C800.89,-432.55 823.19,-426.31 843.5,-420 858.8,-415.25 875.22,-409.67 890.66,-404.34"/>
<polygon fill="black" stroke="black" points="891.82,-407.64 900.13,-401.06 889.53,-401.02 891.82,-407.64"/>
<text text-anchor="middle" x="885.77" y="-411.28" font-family="Times,serif" font-size="14.00">*0</text>
</g>
<!-- node3 -->
<g id="node4" class="node">
<title>node3</title>
<polygon fill="lightgrey" stroke="black" points="811,-401 634,-401 634,-365 811,-365 811,-401"/>
<text text-anchor="middle" x="722.5" y="-379.3" font-family="Times,serif" font-size="14.00">#3 arg0 : int Order : 3</text>
</g>
<!-- node0&#45;&gt;node3 -->
<g id="edge6" class="edge">
<title>node0&#45;&gt;node3</title>
<path fill="none" stroke="black" d="M716.62,-437.81C715.78,-429.79 715.55,-420.05 715.92,-411.07"/>
<polygon fill="black" stroke="black" points="719.42,-411.25 716.64,-401.03 712.44,-410.75 719.42,-411.25"/>
<text text-anchor="middle" x="723.78" y="-416.01" font-family="Times,serif" font-size="14.00">*0</text>
</g>
<!-- node5 -->
<g id="node6" class="node">
<title>node5</title>
<polygon fill="lightgrey" stroke="black" points="177,-401 0,-401 0,-365 177,-365 177,-401"/>
<text text-anchor="middle" x="88.5" y="-379.3" font-family="Times,serif" font-size="14.00">#5 arg3 : int Order : 2</text>
</g>
<!-- node0&#45;&gt;node5 -->
<g id="edge11" class="edge">
<title>node0&#45;&gt;node5</title>
<path fill="none" stroke="black" d="M639.43,-448.98C534.42,-440.61 348.19,-424 187.31,-402.33"/>
<polygon fill="black" stroke="black" points="187.62,-398.84 177.24,-400.96 186.68,-405.78 187.62,-398.84"/>
<text text-anchor="middle" x="196.34" y="-391.33" font-family="Times,serif" font-size="14.00">*0</text>
</g>
<!-- node6 -->
<g id="node7" class="node">
<title>node6</title>
<polygon fill="lightgrey" stroke="black" points="383.5,-401 195.5,-401 195.5,-365 383.5,-365 383.5,-401"/>
<text text-anchor="middle" x="289.5" y="-379.3" font-family="Times,serif" font-size="14.00">#6 LabelNode Order : 1</text>
</g>
<!-- node0&#45;&gt;node6 -->
<g id="edge13" class="edge">
<title>node0&#45;&gt;node6</title>
<path fill="none" stroke="red" d="M639.44,-451.43C571.23,-447.23 472.64,-438.33 388.5,-420 370.58,-416.1 351.46,-410.29 334.8,-404.48"/>
<polygon fill="red" stroke="red" points="335.89,-401.15 325.3,-401.07 333.53,-407.74 335.89,-401.15"/>
</g>
<!-- node11 -->
<g id="node12" class="node">
<title>node11</title>
<polygon fill="lightgrey" stroke="black" points="1098.5,-109 856.5,-109 856.5,-73 1098.5,-73 1098.5,-109"/>
<text text-anchor="middle" x="977.5" y="-87.3" font-family="Times,serif" font-size="14.00">#11 ReturnValue : int Order : 9</text>
</g>
<!-- node0&#45;&gt;node11 -->
<g id="edge26" class="edge">
<title>node0&#45;&gt;node11</title>
<path fill="none" stroke="black" d="M802.85,-437.94C863.18,-427.76 1070.5,-444.63 1070.5,-384 1070.5,-384 1070.5,-384 1070.5,-163 1070.5,-140.64 1053.79,-124.75 1034.49,-113.75"/>
<polygon fill="black" stroke="black" points="1035.97,-110.58 1025.49,-109.04 1032.72,-116.78 1035.97,-110.58"/>
</g>
<!-- node12 -->
<g id="node13" class="node">
<title>node12</title>
<polygon fill="lightgrey" stroke="black" points="1152,-36 901,-36 901,0 1152,0 1152,-36"/>
<text text-anchor="middle" x="1026.5" y="-14.3" font-family="Times,serif" font-size="14.00">#12 ReturnValue : int Order : 12</text>
</g>
<!-- node0&#45;&gt;node12 -->
<g id="edge30" class="edge">
<title>node0&#45;&gt;node12</title>
<path fill="none" stroke="black" d="M802.93,-437.94C875.85,-428.62 1126.5,-456.85 1126.5,-384 1126.5,-384 1126.5,-384 1126.5,-90 1126.5,-67.28 1109.66,-51.45 1089.77,-40.61"/>
<polygon fill="black" stroke="black" points="1091.29,-37.45 1080.78,-36.11 1088.16,-43.71 1091.29,-37.45"/>
</g>
<!-- node1&#45;&gt;node0 -->
<g id="edge1" class="edge">
<title>node1&#45;&gt;node0</title>
<path fill="none" stroke="green" stroke-width="2" d="M580.37,-401.11C608.89,-411.11 643.85,-423.81 672,-434.36"/>
<polygon fill="green" stroke="green" stroke-width="2" points="671.06,-437.74 681.65,-437.99 673.53,-431.19 671.06,-437.74"/>
</g>
<!-- node4 -->
<g id="node5" class="node">
<title>node4</title>
<polygon fill="orange" stroke="black" points="903.92,-302.54 903.92,-317.46 790.62,-328 630.38,-328 517.08,-317.46 517.08,-302.54 630.38,-292 790.62,-292 903.92,-302.54"/>
<text text-anchor="middle" x="710.5" y="-306.3" font-family="Times,serif" font-size="14.00">#4 NumericCondition : LE Order : 6</text>
</g>
<!-- node1&#45;&gt;node4 -->
<g id="edge8" class="edge">
<title>node1&#45;&gt;node4</title>
<path fill="none" stroke="black" d="M571.33,-364.99C597.06,-355.01 629.76,-342.32 657,-331.76"/>
<polygon fill="black" stroke="black" points="658.33,-334.99 666.39,-328.11 655.8,-328.47 658.33,-334.99"/>
<text text-anchor="middle" x="652.55" y="-338.85" font-family="Times,serif" font-size="14.00">*0</text>
</g>
<!-- node2&#45;&gt;node0 -->
<g id="edge3" class="edge">
<title>node2&#45;&gt;node0</title>
<path fill="none" stroke="green" stroke-width="2" d="M916.96,-401.06C900.09,-407.31 879.97,-414.26 861.5,-420 844.36,-425.32 825.81,-430.6 807.99,-435.38"/>
<polygon fill="green" stroke="green" stroke-width="2" points="806.95,-432.04 798.18,-437.99 808.74,-438.8 806.95,-432.04"/>
</g>
<!-- node2&#45;&gt;node11 -->
<g id="edge24" class="edge">
<title>node2&#45;&gt;node11</title>
<path fill="none" stroke="black" d="M963.33,-364.99C969.81,-350.91 977.5,-330.18 977.5,-311 977.5,-311 977.5,-311 977.5,-163 977.5,-148.65 977.5,-132.67 977.5,-119.51"/>
<polygon fill="black" stroke="black" points="981,-119.22 977.5,-109.22 974,-119.22 981,-119.22"/>
<text text-anchor="middle" x="985.95" y="-123.64" font-family="Times,serif" font-size="14.00">*0</text>
</g>
<!-- node3&#45;&gt;node0 -->
<g id="edge5" class="edge">
<title>node3&#45;&gt;node0</title>
<path fill="none" stroke="green" stroke-width="2" d="M728.36,-401.03C729.21,-409.03 729.45,-418.77 729.09,-427.75"/>
<polygon fill="green" stroke="green" stroke-width="2" points="725.59,-427.59 728.38,-437.81 732.57,-428.08 725.59,-427.59"/>
</g>
<!-- node3&#45;&gt;node4 -->
<g id="edge9" class="edge">
<title>node3&#45;&gt;node4</title>
<path fill="none" stroke="black" d="M719.6,-364.81C718.24,-356.79 716.59,-347.05 715.08,-338.07"/>
<polygon fill="black" stroke="black" points="718.5,-337.31 713.38,-328.03 711.59,-338.47 718.5,-337.31"/>
<text text-anchor="middle" x="724.73" y="-340.79" font-family="Times,serif" font-size="14.00">*1</text>
</g>
<!-- node4&#45;&gt;node0 -->
<g id="edge7" class="edge">
<title>node4&#45;&gt;node0</title>
<path fill="none" stroke="green" stroke-width="2" d="M773.34,-328.11C791.37,-336.25 808.98,-348.04 819.5,-365 827.94,-378.59 827.61,-387.21 819.5,-401 811.45,-414.7 798.52,-425.17 784.7,-433.08"/>
<polygon fill="green" stroke="green" stroke-width="2" points="782.74,-430.16 775.52,-437.92 786,-436.35 782.74,-430.16"/>
</g>
<!-- node7 -->
<g id="node8" class="node">
<title>node7</title>
<polygon fill="lightgrey" stroke="black" points="763.5,-255 641.5,-255 641.5,-219 763.5,-219 763.5,-255"/>
<text text-anchor="middle" x="702.5" y="-233.3" font-family="Times,serif" font-size="14.00">#7 If Order : 7</text>
</g>
<!-- node4&#45;&gt;node7 -->
<g id="edge15" class="edge">
<title>node4&#45;&gt;node7</title>
<path fill="none" stroke="black" d="M708.56,-291.81C707.66,-283.79 706.56,-274.05 705.55,-265.07"/>
<polygon fill="black" stroke="black" points="709.02,-264.57 704.42,-255.03 702.06,-265.36 709.02,-264.57"/>
<text text-anchor="middle" x="714.85" y="-268.39" font-family="Times,serif" font-size="14.00">*0</text>
</g>
<!-- node5&#45;&gt;node0 -->
<g id="edge10" class="edge">
<title>node5&#45;&gt;node0</title>
<path fill="none" stroke="green" stroke-width="2" d="M177.09,-398.3C183.33,-399.27 189.51,-400.18 195.5,-401 346.98,-421.74 523.57,-438.01 629.08,-447.07"/>
<polygon fill="green" stroke="green" stroke-width="2" points="628.81,-450.55 639.07,-447.92 629.4,-443.58 628.81,-450.55"/>
</g>
<!-- node5&#45;&gt;node12 -->
<g id="edge28" class="edge">
<title>node5&#45;&gt;node12</title>
<path fill="none" stroke="black" d="M145.42,-364.97C169.24,-354 191.5,-336.85 191.5,-311 191.5,-311 191.5,-311 191.5,-90 191.5,-55.35 653.94,-32.95 890.53,-23.76"/>
<polygon fill="black" stroke="black" points="890.73,-27.25 900.59,-23.37 890.46,-20.26 890.73,-27.25"/>
<text text-anchor="middle" x="882.8" y="-28.82" font-family="Times,serif" font-size="14.00">*0</text>
</g>
<!-- node6&#45;&gt;node0 -->
<g id="edge12" class="edge">
<title>node6&#45;&gt;node0</title>
<path fill="none" stroke="green" stroke-width="2" d="M341.83,-401.07C361.91,-407.94 385.06,-415.33 406.5,-420 480.71,-436.17 566.16,-445 629.52,-449.74"/>
<polygon fill="green" stroke="green" stroke-width="2" points="629.27,-453.23 639.5,-450.47 629.78,-446.25 629.27,-453.23"/>
</g>
<!-- node6&#45;&gt;node7 -->
<g id="edge16" class="edge">
<title>node6&#45;&gt;node7</title>
<path fill="none" stroke="red" d="M300.71,-364.84C318.1,-339.83 354.13,-294.07 397.5,-273 437.36,-253.64 554.12,-244.66 631.06,-240.75"/>
<polygon fill="red" stroke="red" points="631.36,-244.24 641.18,-240.25 631.02,-237.25 631.36,-244.24"/>
</g>
<!-- node7&#45;&gt;node0 -->
<g id="edge14" class="edge">
<title>node7&#45;&gt;node0</title>
<path fill="none" stroke="green" stroke-width="2" d="M641.29,-249.43C541.93,-270.59 363.01,-321.14 429.5,-401 454.64,-431.2 553.14,-444.57 629.07,-450.45"/>
<polygon fill="green" stroke="green" stroke-width="2" points="628.92,-453.95 639.15,-451.2 629.44,-446.97 628.92,-453.95"/>
</g>
<!-- node8 -->
<g id="node9" class="node">
<title>node8</title>
<polygon fill="lightgrey" stroke="black" points="777.5,-182 627.5,-182 627.5,-146 777.5,-146 777.5,-182"/>
<text text-anchor="middle" x="702.5" y="-160.3" font-family="Times,serif" font-size="14.00">#8 true Order : 10</text>
</g>
<!-- node7&#45;&gt;node8 -->
<g id="edge18" class="edge">
<title>node7&#45;&gt;node8</title>
<path fill="none" stroke="red" d="M696.62,-218.81C695.78,-210.79 695.55,-201.05 695.92,-192.07"/>
<polygon fill="red" stroke="red" points="699.42,-192.25 696.64,-182.03 692.44,-191.75 699.42,-192.25"/>
</g>
<!-- node10 -->
<g id="node11" class="node">
<title>node10</title>
<polygon fill="lightgrey" stroke="black" points="949.5,-182 795.5,-182 795.5,-146 949.5,-146 949.5,-182"/>
<text text-anchor="middle" x="872.5" y="-160.3" font-family="Times,serif" font-size="14.00">#10 false Order : 8</text>
</g>
<!-- node7&#45;&gt;node10 -->
<g id="edge22" class="edge">
<title>node7&#45;&gt;node10</title>
<path fill="none" stroke="red" d="M737.36,-218.99C760.1,-209.06 790.2,-196.43 816.26,-185.89"/>
<polygon fill="red" stroke="red" points="817.68,-189.09 825.65,-182.11 815.07,-182.6 817.68,-189.09"/>
</g>
<!-- node8&#45;&gt;node7 -->
<g id="edge17" class="edge">
<title>node8&#45;&gt;node7</title>
<path fill="none" stroke="green" stroke-width="2" d="M708.36,-182.03C709.21,-190.03 709.45,-199.77 709.09,-208.75"/>
<polygon fill="green" stroke="green" stroke-width="2" points="705.59,-208.59 708.38,-218.81 712.57,-209.08 705.59,-208.59"/>
</g>
<!-- node9 -->
<g id="node10" class="node">
<title>node9</title>
<polygon fill="lightgrey" stroke="black" points="801,-109 604,-109 604,-73 801,-73 801,-109"/>
<text text-anchor="middle" x="702.5" y="-87.3" font-family="Times,serif" font-size="14.00">#9 LabelNode Order : 11</text>
</g>
<!-- node8&#45;&gt;node9 -->
<g id="edge20" class="edge">
<title>node8&#45;&gt;node9</title>
<path fill="none" stroke="red" d="M696.62,-145.81C695.78,-137.79 695.55,-128.05 695.92,-119.07"/>
<polygon fill="red" stroke="red" points="699.42,-119.25 696.64,-109.03 692.44,-118.75 699.42,-119.25"/>
</g>
<!-- node9&#45;&gt;node8 -->
<g id="edge19" class="edge">
<title>node9&#45;&gt;node8</title>
<path fill="none" stroke="green" stroke-width="2" d="M708.36,-109.03C709.21,-117.03 709.45,-126.77 709.09,-135.75"/>
<polygon fill="green" stroke="green" stroke-width="2" points="705.59,-135.59 708.38,-145.81 712.57,-136.08 705.59,-135.59"/>
</g>
<!-- node9&#45;&gt;node12 -->
<g id="edge29" class="edge">
<title>node9&#45;&gt;node12</title>
<path fill="none" stroke="red" d="M780.11,-72.99C827.83,-62.53 889.12,-49.11 938.63,-38.26"/>
<polygon fill="red" stroke="red" points="939.67,-41.61 948.69,-36.05 938.17,-34.77 939.67,-41.61"/>
</g>
<!-- node10&#45;&gt;node7 -->
<g id="edge21" class="edge">
<title>node10&#45;&gt;node7</title>
<path fill="none" stroke="green" stroke-width="2" d="M837.39,-182.11C814.6,-192.07 784.49,-204.69 758.46,-215.22"/>
<polygon fill="green" stroke="green" stroke-width="2" points="757.05,-212.01 749.08,-218.99 759.66,-218.51 757.05,-212.01"/>
</g>
<!-- node10&#45;&gt;node11 -->
<g id="edge25" class="edge">
<title>node10&#45;&gt;node11</title>
<path fill="none" stroke="red" d="M897.65,-145.99C911.45,-136.67 928.74,-124.97 943.7,-114.86"/>
<polygon fill="red" stroke="red" points="945.87,-117.61 952.19,-109.11 941.95,-111.82 945.87,-117.61"/>
</g>
<!-- node11&#45;&gt;node0 -->
<g id="edge23" class="edge">
<title>node11&#45;&gt;node0</title>
<path fill="none" stroke="green" stroke-width="2" d="M1041.66,-109.04C1066.27,-120.03 1088.5,-137.22 1088.5,-163 1088.5,-384 1088.5,-384 1088.5,-384 1088.5,-444.75 880.37,-427.69 820.5,-438 819,-438.26 817.48,-438.52 815.96,-438.79"/>
<polygon fill="green" stroke="green" stroke-width="2" points="814.98,-435.41 805.75,-440.61 816.21,-442.3 814.98,-435.41"/>
</g>
<!-- node12&#45;&gt;node0 -->
<g id="edge27" class="edge">
<title>node12&#45;&gt;node0</title>
<path fill="none" stroke="green" stroke-width="2" d="M1097.13,-36.11C1122.31,-46.92 1144.5,-63.92 1144.5,-90 1144.5,-384 1144.5,-384 1144.5,-384 1144.5,-456.99 892.87,-428.5 820.5,-438 818.99,-438.2 817.46,-438.41 815.93,-438.62"/>
<polygon fill="green" stroke="green" stroke-width="2" points="815.05,-435.21 805.68,-440.16 816.09,-442.14 815.05,-435.21"/>
</g>
<!-- c0 -->
<!-- c1 -->
<!-- c0&#45;&gt;c1 -->
<g id="edge31" class="edge">
<title>c0&#45;&gt;c1</title>
<path fill="none" stroke="red" d="M1537.39,-456C1548.61,-456 1606.74,-456 1632.36,-456"/>
<polygon fill="red" stroke="red" points="1632.56,-459.5 1642.56,-456 1632.56,-452.5 1632.56,-459.5"/>
<text text-anchor="middle" x="1590" y="-462.8" font-family="Times,serif" font-size="14.00">Control flow</text>
</g>
<!-- c2 -->
<!-- c3 -->
<!-- c2&#45;&gt;c3 -->
<g id="edge32" class="edge">
<title>c2&#45;&gt;c3</title>
<path fill="none" stroke="red" stroke-dasharray="5,2" d="M1330.58,-456C1347.55,-456 1463.71,-456 1501.58,-456"/>
<polygon fill="red" stroke="red" points="1501.67,-459.5 1511.67,-456 1501.67,-452.5 1501.67,-459.5"/>
<text text-anchor="middle" x="1421" y="-462.8" font-family="Times,serif" font-size="14.00">Control flow back edge</text>
</g>
<!-- d0 -->
<!-- d1 -->
<!-- d0&#45;&gt;d1 -->
<g id="edge33" class="edge">
<title>d0&#45;&gt;d1</title>
<path fill="none" stroke="black" d="M1219.36,-456C1228.91,-456 1272.81,-456 1294.42,-456"/>
<polygon fill="black" stroke="black" points="1294.65,-459.5 1304.65,-456 1294.65,-452.5 1294.65,-459.5"/>
<text text-anchor="middle" x="1262" y="-462.8" font-family="Times,serif" font-size="14.00">Data flow</text>
</g>
<!-- d2 -->
<!-- d3 -->
<!-- d2&#45;&gt;d3 -->
<g id="edge34" class="edge">
<title>d2&#45;&gt;d3</title>
<path fill="none" stroke="black" stroke-dasharray="1,5" d="M1093.31,-456C1103.96,-456 1158.96,-456 1183.58,-456"/>
<polygon fill="black" stroke="black" points="1183.65,-459.5 1193.65,-456 1183.65,-452.5 1183.65,-459.5"/>
<text text-anchor="middle" x="1143.5" y="-462.8" font-family="Times,serif" font-size="14.00">Declaration</text>
</g>
<!-- d4 -->
<!-- d5 -->
<!-- d4&#45;&gt;d5 -->
<g id="edge35" class="edge">
<title>d4&#45;&gt;d5</title>
<path fill="none" stroke="blue" d="M950.6,-456C963.22,-456 1029.38,-456 1057.18,-456"/>
<polygon fill="blue" stroke="blue" points="1057.34,-459.5 1067.34,-456 1057.34,-452.5 1057.34,-459.5"/>
<text text-anchor="middle" x="1009" y="-462.8" font-family="Times,serif" font-size="14.00">PHI Data flow</text>
</g>
<!-- d6 -->
<!-- d7 -->
<!-- d6&#45;&gt;d7 -->
<g id="edge36" class="edge">
<title>d6&#45;&gt;d7</title>
<path fill="none" stroke="green" d="M827.61,-456C838.65,-456 890.17,-456 914.16,-456"/>
<polygon fill="green" stroke="green" points="914.4,-459.5 924.4,-456 914.4,-452.5 914.4,-459.5"/>
<text text-anchor="middle" x="876" y="-462.8" font-family="Times,serif" font-size="14.00">Dominance</text>
</g>
</g>
</svg>
