<?xml version="1.0" encoding="UTF-8" standalone="no"?>
<!DOCTYPE svg PUBLIC "-//W3C//DTD SVG 1.1//EN"
 "http://www.w3.org/Graphics/SVG/1.1/DTD/svg11.dtd">
<!-- Generated by graphviz version 2.43.0 (0)
 -->
<!-- Title: debugoutput Pages: 1 -->
<svg width="1644pt" height="505pt"
 viewBox="0.00 0.00 1643.50 504.80" xmlns="http://www.w3.org/2000/svg" xmlns:xlink="http://www.w3.org/1999/xlink">
<g id="graph0" class="graph" transform="scale(1 1) rotate(0) translate(4 500.8)">
<title>debugoutput</title>
<polygon fill="white" stroke="transparent" points="-4,4 -4,-500.8 1639.5,-500.8 1639.5,4 -4,4"/>
<g id="clust1" class="cluster">
<title>cluster_000</title>
<polygon fill="none" stroke="black" points="788.5,-446.2 788.5,-488.8 1627.5,-488.8 1627.5,-446.2 788.5,-446.2"/>
<text text-anchor="middle" x="1208" y="-473.6" font-family="Times,serif" font-size="14.00">Legend</text>
</g>
<!-- node0 -->
<g id="node1" class="node">
<title>node0</title>
<polygon fill="lightgrey" stroke="black" points="778.5,-474 612.5,-474 612.5,-438 778.5,-438 778.5,-474"/>
<text text-anchor="middle" x="695.5" y="-452.3" font-family="Times,serif" font-size="14.00">#0 Method Order : 0</text>
</g>
<!-- node1 -->
<g id="node2" class="node">
<title>node1</title>
<polygon fill="lightgrey" stroke="black" points="502,-401 325,-401 325,-365 502,-365 502,-401"/>
<text text-anchor="middle" x="413.5" y="-379.3" font-family="Times,serif" font-size="14.00">#1 arg0 : int Order : 5</text>
</g>
<!-- node0&#45;&gt;node1 -->
<g id="edge2" class="edge">
<title>node0&#45;&gt;node1</title>
<path fill="none" stroke="red" d="M622.09,-437.99C579.97,-427.66 527.34,-414.43 485.46,-403.66"/>
<polygon fill="red" stroke="red" points="486.16,-400.22 475.6,-401.11 484.41,-407 486.16,-400.22"/>
</g>
<!-- node2 -->
<g id="node3" class="node">
<title>node2</title>
<polygon fill="lightgrey" stroke="black" points="307,-401 130,-401 130,-365 307,-365 307,-401"/>
<text text-anchor="middle" x="218.5" y="-379.3" font-family="Times,serif" font-size="14.00">#2 arg2 : int Order : 4</text>
</g>
<!-- node0&#45;&gt;node2 -->
<g id="edge4" class="edge">
<title>node0&#45;&gt;node2</title>
<path fill="none" stroke="red" d="M612.14,-444.86C535.69,-434.85 419.26,-418.73 316.69,-402.61"/>
<polygon fill="red" stroke="red" points="317.23,-399.15 306.81,-401.05 316.14,-406.07 317.23,-399.15"/>
</g>
<!-- node3 -->
<g id="node4" class="node">
<title>node3</title>
<polygon fill="lightgrey" stroke="black" points="1229,-401 1052,-401 1052,-365 1229,-365 1229,-401"/>
<text text-anchor="middle" x="1140.5" y="-379.3" font-family="Times,serif" font-size="14.00">#3 arg3 : int Order : 3</text>
</g>
<!-- node0&#45;&gt;node3 -->
<g id="edge6" class="edge">
<title>node0&#45;&gt;node3</title>
<path fill="none" stroke="red" d="M775.83,-437.96C887.78,-423.4 918.81,-443.02 1029.5,-420 1046.94,-416.37 1065.47,-410.49 1082.33,-404.52"/>
<polygon fill="red" stroke="red" points="1083.84,-407.7 1092.05,-401.01 1081.46,-401.12 1083.84,-407.7"/>
</g>
<!-- node4 -->
<g id="node5" class="node">
<title>node4</title>
<polygon fill="lightgrey" stroke="black" points="697,-401 520,-401 520,-365 697,-365 697,-401"/>
<text text-anchor="middle" x="608.5" y="-379.3" font-family="Times,serif" font-size="14.00">#4 arg1 : int Order : 2</text>
</g>
<!-- node0&#45;&gt;node4 -->
<g id="edge8" class="edge">
<title>node0&#45;&gt;node4</title>
<path fill="none" stroke="red" d="M668.56,-437.81C656.61,-428.83 642.79,-417.69 631.35,-407.89"/>
<polygon fill="red" stroke="red" points="633.34,-404.97 623.5,-401.03 628.73,-410.24 633.34,-404.97"/>
</g>
<!-- node6 -->
<g id="node7" class="node">
<title>node6</title>
<polygon fill="lightgrey" stroke="black" points="940.5,-401 752.5,-401 752.5,-365 940.5,-365 940.5,-401"/>
<text text-anchor="middle" x="846.5" y="-379.3" font-family="Times,serif" font-size="14.00">#6 LabelNode Order : 1</text>
</g>
<!-- node0&#45;&gt;node6 -->
<g id="edge13" class="edge">
<title>node0&#45;&gt;node6</title>
<path fill="none" stroke="red" d="M725.81,-437.99C745.63,-428.19 771.91,-415.77 794.93,-405.31"/>
<polygon fill="red" stroke="red" points="796.56,-408.42 804.23,-401.11 793.68,-402.04 796.56,-408.42"/>
</g>
<!-- node11 -->
<g id="node12" class="node">
<title>node11</title>
<polygon fill="lightgrey" stroke="black" points="1141,-36 890,-36 890,0 1141,0 1141,-36"/>
<text text-anchor="middle" x="1015.5" y="-14.3" font-family="Times,serif" font-size="14.00">#11 ReturnValue : int Order : 10</text>
</g>
<!-- node0&#45;&gt;node11 -->
<g id="edge26" class="edge">
<title>node0&#45;&gt;node11</title>
<path fill="none" stroke="black" d="M775.81,-437.94C828.04,-428.46 1006.5,-436.61 1006.5,-384 1006.5,-384 1006.5,-384 1006.5,-90 1006.5,-75.65 1006.5,-59.67 1007.35,-46.51"/>
<polygon fill="black" stroke="black" points="1010.86,-46.49 1008.27,-36.22 1003.89,-45.86 1010.86,-46.49"/>
</g>
<!-- node12 -->
<g id="node13" class="node">
<title>node12</title>
<polygon fill="lightgrey" stroke="black" points="251,-109 0,-109 0,-73 251,-73 251,-109"/>
<text text-anchor="middle" x="125.5" y="-87.3" font-family="Times,serif" font-size="14.00">#12 ReturnValue : int Order : 12</text>
</g>
<!-- node0&#45;&gt;node12 -->
<g id="edge30" class="edge">
<title>node0&#45;&gt;node12</title>
<path fill="none" stroke="black" d="M612.28,-453.75C445.07,-450.09 84.5,-436.13 84.5,-384 84.5,-384 84.5,-384 84.5,-163 84.5,-146.96 91.37,-130.54 99.64,-117.54"/>
<polygon fill="black" stroke="black" points="102.66,-119.33 105.52,-109.13 96.92,-115.32 102.66,-119.33"/>
</g>
<!-- node1&#45;&gt;node0 -->
<g id="edge1" class="edge">
<title>node1&#45;&gt;node0</title>
<path fill="none" stroke="green" stroke-width="2" d="M487.09,-401.05C529.33,-411.41 582.07,-424.67 623.96,-435.45"/>
<polygon fill="green" stroke="green" stroke-width="2" points="623.26,-438.88 633.81,-437.99 625,-432.11 623.26,-438.88"/>
</g>
<!-- node5 -->
<g id="node6" class="node">
<title>node5</title>
<polygon fill="orange" stroke="black" points="813.92,-302.54 813.92,-317.46 700.62,-328 540.38,-328 427.08,-317.46 427.08,-302.54 540.38,-292 700.62,-292 813.92,-302.54"/>
<text text-anchor="middle" x="620.5" y="-306.3" font-family="Times,serif" font-size="14.00">#5 NumericCondition : LE Order : 6</text>
</g>
<!-- node1&#45;&gt;node5 -->
<g id="edge11" class="edge">
<title>node1&#45;&gt;node5</title>
<path fill="none" stroke="black" d="M463.08,-364.99C492.44,-354.92 529.82,-342.1 560.79,-331.48"/>
<polygon fill="black" stroke="black" points="562.28,-334.67 570.61,-328.11 560.01,-328.05 562.28,-334.67"/>
<text text-anchor="middle" x="556.2" y="-338.29" font-family="Times,serif" font-size="14.00">*1</text>
</g>
<!-- node2&#45;&gt;node0 -->
<g id="edge3" class="edge">
<title>node2&#45;&gt;node0</title>
<path fill="none" stroke="green" stroke-width="2" d="M307.11,-398.17C313.01,-399.15 318.84,-400.1 324.5,-401 419.13,-416.01 527.35,-431.2 602.43,-441.62"/>
<polygon fill="green" stroke="green" stroke-width="2" points="601.96,-445.09 612.34,-443 602.92,-438.16 601.96,-445.09"/>
</g>
<!-- node2&#45;&gt;node12 -->
<g id="edge28" class="edge">
<title>node2&#45;&gt;node12</title>
<path fill="none" stroke="black" d="M206.25,-364.82C197.58,-350.97 187.5,-330.64 187.5,-311 187.5,-311 187.5,-311 187.5,-163 187.5,-144.08 174.86,-127.77 160.99,-115.57"/>
<polygon fill="black" stroke="black" points="163.19,-112.85 153.24,-109.23 158.76,-118.27 163.19,-112.85"/>
<text text-anchor="middle" x="172.62" y="-110.46" font-family="Times,serif" font-size="14.00">*0</text>
</g>
<!-- node3&#45;&gt;node0 -->
<g id="edge5" class="edge">
<title>node3&#45;&gt;node0</title>
<path fill="none" stroke="green" stroke-width="2" d="M1108.25,-401.11C1090.58,-408.16 1068.28,-415.68 1047.5,-420 936.7,-443.04 905.72,-423.36 793.5,-438 791.99,-438.2 790.46,-438.4 788.93,-438.62"/>
<polygon fill="green" stroke="green" stroke-width="2" points="788.05,-435.21 778.68,-440.15 789.09,-442.13 788.05,-435.21"/>
</g>
<!-- node3&#45;&gt;node11 -->
<g id="edge24" class="edge">
<title>node3&#45;&gt;node11</title>
<path fill="none" stroke="black" d="M1124.64,-364.75C1113.84,-351.18 1101.5,-331.25 1101.5,-311 1101.5,-311 1101.5,-311 1101.5,-90 1101.5,-68.79 1085.75,-52.72 1067.72,-41.29"/>
<polygon fill="black" stroke="black" points="1069.15,-38.07 1058.75,-36.05 1065.62,-44.12 1069.15,-38.07"/>
<text text-anchor="middle" x="1078.67" y="-34.2" font-family="Times,serif" font-size="14.00">*0</text>
</g>
<!-- node4&#45;&gt;node0 -->
<g id="edge7" class="edge">
<title>node4&#45;&gt;node0</title>
<path fill="none" stroke="green" stroke-width="2" d="M635.23,-401.03C647.27,-410.07 661.25,-421.33 672.78,-431.23"/>
<polygon fill="green" stroke="green" stroke-width="2" points="670.48,-433.87 680.32,-437.81 675.09,-428.6 670.48,-433.87"/>
</g>
<!-- node4&#45;&gt;node5 -->
<g id="edge10" class="edge">
<title>node4&#45;&gt;node5</title>
<path fill="none" stroke="black" d="M611.4,-364.81C612.76,-356.79 614.41,-347.05 615.92,-338.07"/>
<polygon fill="black" stroke="black" points="619.41,-338.47 617.62,-328.03 612.5,-337.31 619.41,-338.47"/>
<text text-anchor="middle" x="622.94" y="-343.61" font-family="Times,serif" font-size="14.00">*0</text>
</g>
<!-- node5&#45;&gt;node0 -->
<g id="edge9" class="edge">
<title>node5&#45;&gt;node0</title>
<path fill="none" stroke="green" stroke-width="2" d="M664.66,-328.16C680.47,-336.71 696.58,-348.76 705.5,-365 716.1,-384.3 712.11,-409.42 706.32,-428.22"/>
<polygon fill="green" stroke="green" stroke-width="2" points="702.92,-427.34 703,-437.93 709.55,-429.6 702.92,-427.34"/>
</g>
<!-- node7 -->
<g id="node8" class="node">
<title>node7</title>
<polygon fill="lightgrey" stroke="black" points="907.5,-255 785.5,-255 785.5,-219 907.5,-219 907.5,-255"/>
<text text-anchor="middle" x="846.5" y="-233.3" font-family="Times,serif" font-size="14.00">#7 If Order : 7</text>
</g>
<!-- node5&#45;&gt;node7 -->
<g id="edge15" class="edge">
<title>node5&#45;&gt;node7</title>
<path fill="none" stroke="black" d="M674.63,-291.99C706.96,-281.84 748.21,-268.88 782.19,-258.2"/>
<polygon fill="black" stroke="black" points="783.53,-261.45 792.03,-255.11 781.44,-254.77 783.53,-261.45"/>
<text text-anchor="middle" x="777.27" y="-264.91" font-family="Times,serif" font-size="14.00">*0</text>
</g>
<!-- node6&#45;&gt;node0 -->
<g id="edge12" class="edge">
<title>node6&#45;&gt;node0</title>
<path fill="none" stroke="green" stroke-width="2" d="M815.97,-401.11C796.11,-410.94 769.81,-423.36 746.82,-433.8"/>
<polygon fill="green" stroke="green" stroke-width="2" points="745.2,-430.69 737.53,-437.99 748.08,-437.07 745.2,-430.69"/>
</g>
<!-- node6&#45;&gt;node7 -->
<g id="edge16" class="edge">
<title>node6&#45;&gt;node7</title>
<path fill="none" stroke="red" d="M846.5,-364.92C846.5,-340.34 846.5,-294.75 846.5,-265.43"/>
<polygon fill="red" stroke="red" points="850,-265.06 846.5,-255.06 843,-265.06 850,-265.06"/>
</g>
<!-- node7&#45;&gt;node0 -->
<g id="edge14" class="edge">
<title>node7&#45;&gt;node0</title>
<path fill="none" stroke="green" stroke-width="2" d="M871.49,-255.06C913.4,-285.73 989.53,-351.57 949.5,-401 946.84,-404.28 860.15,-422.25 788.79,-436.57"/>
<polygon fill="green" stroke="green" stroke-width="2" points="787.95,-433.17 778.83,-438.56 789.32,-440.03 787.95,-433.17"/>
</g>
<!-- node8 -->
<g id="node9" class="node">
<title>node8</title>
<polygon fill="lightgrey" stroke="black" points="781.5,-182 627.5,-182 627.5,-146 781.5,-146 781.5,-182"/>
<text text-anchor="middle" x="704.5" y="-160.3" font-family="Times,serif" font-size="14.00">#8 false Order : 11</text>
</g>
<!-- node7&#45;&gt;node8 -->
<g id="edge18" class="edge">
<title>node7&#45;&gt;node8</title>
<path fill="none" stroke="red" d="M806.63,-218.99C786.34,-209.36 761.89,-197.21 741.95,-186.87"/>
<polygon fill="red" stroke="red" points="743.34,-183.65 732.86,-182.11 740.1,-189.85 743.34,-183.65"/>
</g>
<!-- node9 -->
<g id="node10" class="node">
<title>node9</title>
<polygon fill="lightgrey" stroke="black" points="941,-182 800,-182 800,-146 941,-146 941,-182"/>
<text text-anchor="middle" x="870.5" y="-160.3" font-family="Times,serif" font-size="14.00">#9 true Order : 8</text>
</g>
<!-- node7&#45;&gt;node9 -->
<g id="edge20" class="edge">
<title>node7&#45;&gt;node9</title>
<path fill="none" stroke="red" d="M846.43,-218.81C848.34,-210.62 851.5,-200.62 854.99,-191.48"/>
<polygon fill="red" stroke="red" points="858.32,-192.61 858.88,-182.03 851.84,-189.95 858.32,-192.61"/>
</g>
<!-- node8&#45;&gt;node7 -->
<g id="edge17" class="edge">
<title>node8&#45;&gt;node7</title>
<path fill="none" stroke="green" stroke-width="2" d="M744.6,-182.11C764.92,-191.77 789.37,-203.92 809.27,-214.24"/>
<polygon fill="green" stroke="green" stroke-width="2" points="807.86,-217.46 818.35,-218.99 811.11,-211.26 807.86,-217.46"/>
</g>
<!-- node8&#45;&gt;node12 -->
<g id="edge29" class="edge">
<title>node8&#45;&gt;node12</title>
<path fill="none" stroke="red" d="M627.31,-153.54C533.99,-142.09 375.3,-122.63 261.34,-108.66"/>
<polygon fill="red" stroke="red" points="261.5,-105.15 251.14,-107.41 260.64,-112.1 261.5,-105.15"/>
</g>
<!-- node9&#45;&gt;node7 -->
<g id="edge19" class="edge">
<title>node9&#45;&gt;node7</title>
<path fill="none" stroke="green" stroke-width="2" d="M870.61,-182.03C868.71,-190.2 865.57,-200.19 862.07,-209.34"/>
<polygon fill="green" stroke="green" stroke-width="2" points="858.74,-208.23 858.19,-218.81 865.22,-210.89 858.74,-208.23"/>
</g>
<!-- node10 -->
<g id="node11" class="node">
<title>node10</title>
<polygon fill="lightgrey" stroke="black" points="969,-109 772,-109 772,-73 969,-73 969,-109"/>
<text text-anchor="middle" x="870.5" y="-87.3" font-family="Times,serif" font-size="14.00">#10 LabelNode Order : 9</text>
</g>
<!-- node9&#45;&gt;node10 -->
<g id="edge22" class="edge">
<title>node9&#45;&gt;node10</title>
<path fill="none" stroke="red" d="M864.62,-145.81C863.78,-137.79 863.55,-128.05 863.92,-119.07"/>
<polygon fill="red" stroke="red" points="867.42,-119.25 864.64,-109.03 860.44,-118.75 867.42,-119.25"/>
</g>
<!-- node10&#45;&gt;node9 -->
<g id="edge21" class="edge">
<title>node10&#45;&gt;node9</title>
<path fill="none" stroke="green" stroke-width="2" d="M876.36,-109.03C877.21,-117.03 877.45,-126.77 877.09,-135.75"/>
<polygon fill="green" stroke="green" stroke-width="2" points="873.59,-135.59 876.38,-145.81 880.57,-136.08 873.59,-135.59"/>
</g>
<!-- node10&#45;&gt;node11 -->
<g id="edge25" class="edge">
<title>node10&#45;&gt;node11</title>
<path fill="none" stroke="red" d="M905.23,-72.99C925.08,-63.27 950.18,-50.99 971.41,-40.59"/>
<polygon fill="red" stroke="red" points="973.11,-43.65 980.55,-36.11 970.03,-37.37 973.11,-43.65"/>
</g>
<!-- node11&#45;&gt;node0 -->
<g id="edge23" class="edge">
<title>node11&#45;&gt;node0</title>
<path fill="none" stroke="green" stroke-width="2" d="M1022.73,-36.22C1024.5,-50.59 1024.5,-71.63 1024.5,-90 1024.5,-384 1024.5,-384 1024.5,-384 1024.5,-436.72 845.34,-428.43 793.5,-438 792,-438.28 790.49,-438.56 788.96,-438.84"/>
<polygon fill="green" stroke="green" stroke-width="2" points="787.96,-435.47 778.77,-440.74 789.24,-442.35 787.96,-435.47"/>
</g>
<!-- node12&#45;&gt;node0 -->
<g id="edge27" class="edge">
<title>node12&#45;&gt;node0</title>
<path fill="none" stroke="green" stroke-width="2" d="M120.18,-109.13C112.91,-122.94 102.5,-143.26 102.5,-163 102.5,-384 102.5,-384 102.5,-384 102.5,-434.08 435.37,-448.94 602.36,-453.27"/>
<polygon fill="green" stroke="green" stroke-width="2" points="602.3,-456.77 612.39,-453.52 602.48,-449.77 602.3,-456.77"/>
</g>
<!-- c0 -->
<!-- c1 -->
<!-- c0&#45;&gt;c1 -->
<g id="edge31" class="edge">
<title>c0&#45;&gt;c1</title>
<path fill="none" stroke="red" d="M1510.39,-456C1521.61,-456 1579.74,-456 1605.36,-456"/>
<polygon fill="red" stroke="red" points="1605.56,-459.5 1615.56,-456 1605.56,-452.5 1605.56,-459.5"/>
<text text-anchor="middle" x="1563" y="-462.8" font-family="Times,serif" font-size="14.00">Control flow</text>
</g>
<!-- c2 -->
<!-- c3 -->
<!-- c2&#45;&gt;c3 -->
<g id="edge32" class="edge">
<title>c2&#45;&gt;c3</title>
<path fill="none" stroke="red" stroke-dasharray="5,2" d="M1303.58,-456C1320.55,-456 1436.71,-456 1474.58,-456"/>
<polygon fill="red" stroke="red" points="1474.67,-459.5 1484.67,-456 1474.67,-452.5 1474.67,-459.5"/>
<text text-anchor="middle" x="1394" y="-462.8" font-family="Times,serif" font-size="14.00">Control flow back edge</text>
</g>
<!-- d0 -->
<!-- d1 -->
<!-- d0&#45;&gt;d1 -->
<g id="edge33" class="edge">
<title>d0&#45;&gt;d1</title>
<path fill="none" stroke="black" d="M1192.36,-456C1201.91,-456 1245.81,-456 1267.42,-456"/>
<polygon fill="black" stroke="black" points="1267.65,-459.5 1277.65,-456 1267.65,-452.5 1267.65,-459.5"/>
<text text-anchor="middle" x="1235" y="-462.8" font-family="Times,serif" font-size="14.00">Data flow</text>
</g>
<!-- d2 -->
<!-- d3 -->
<!-- d2&#45;&gt;d3 -->
<g id="edge34" class="edge">
<title>d2&#45;&gt;d3</title>
<path fill="none" stroke="black" stroke-dasharray="1,5" d="M1066.31,-456C1076.96,-456 1131.96,-456 1156.58,-456"/>
<polygon fill="black" stroke="black" points="1156.65,-459.5 1166.65,-456 1156.65,-452.5 1156.65,-459.5"/>
<text text-anchor="middle" x="1116.5" y="-462.8" font-family="Times,serif" font-size="14.00">Declaration</text>
</g>
<!-- d4 -->
<!-- d5 -->
<!-- d4&#45;&gt;d5 -->
<g id="edge35" class="edge">
<title>d4&#45;&gt;d5</title>
<path fill="none" stroke="blue" d="M923.6,-456C936.22,-456 1002.38,-456 1030.18,-456"/>
<polygon fill="blue" stroke="blue" points="1030.34,-459.5 1040.34,-456 1030.34,-452.5 1030.34,-459.5"/>
<text text-anchor="middle" x="982" y="-462.8" font-family="Times,serif" font-size="14.00">PHI Data flow</text>
</g>
<!-- d6 -->
<!-- d7 -->
<!-- d6&#45;&gt;d7 -->
<g id="edge36" class="edge">
<title>d6&#45;&gt;d7</title>
<path fill="none" stroke="green" d="M800.61,-456C811.65,-456 863.17,-456 887.16,-456"/>
<polygon fill="green" stroke="green" points="887.4,-459.5 897.4,-456 887.4,-452.5 887.4,-459.5"/>
<text text-anchor="middle" x="849" y="-462.8" font-family="Times,serif" font-size="14.00">Dominance</text>
</g>
</g>
</svg>
