<?xml version="1.0" encoding="UTF-8" standalone="no"?>
<!DOCTYPE svg PUBLIC "-//W3C//DTD SVG 1.1//EN"
 "http://www.w3.org/Graphics/SVG/1.1/DTD/svg11.dtd">
<!-- Generated by graphviz version 2.43.0 (0)
 -->
<!-- Title: debugoutput Pages: 1 -->
<svg width="1710pt" height="505pt"
 viewBox="0.00 0.00 1710.00 504.80" xmlns="http://www.w3.org/2000/svg" xmlns:xlink="http://www.w3.org/1999/xlink">
<g id="graph0" class="graph" transform="scale(1 1) rotate(0) translate(4 500.8)">
<title>debugoutput</title>
<polygon fill="white" stroke="transparent" points="-4,4 -4,-500.8 1706,-500.8 1706,4 -4,4"/>
<g id="clust1" class="cluster">
<title>cluster_000</title>
<polygon fill="none" stroke="black" points="718,-446.2 718,-488.8 1694,-488.8 1694,-446.2 718,-446.2"/>
<text text-anchor="middle" x="1206" y="-473.6" font-family="Times,serif" font-size="14.00">Legend</text>
</g>
<!-- node0 -->
<g id="node1" class="node">
<title>node0</title>
<polygon fill="lightgrey" stroke="black" points="708,-474 542,-474 542,-438 708,-438 708,-474"/>
<text text-anchor="middle" x="625" y="-452.3" font-family="Times,serif" font-size="14.00">#0 Method Order : 0</text>
</g>
<!-- node1 -->
<g id="node2" class="node">
<title>node1</title>
<polygon fill="lightgrey" stroke="black" points="186,-401 0,-401 0,-365 186,-365 186,-401"/>
<text text-anchor="middle" x="93" y="-379.3" font-family="Times,serif" font-size="14.00">#1 arg3 : int Order : 11</text>
</g>
<!-- node0&#45;&gt;node1 -->
<g id="edge2" class="edge">
<title>node0&#45;&gt;node1</title>
<path fill="none" stroke="black" d="M541.81,-446.32C455.69,-436.62 317.23,-419.97 195.92,-402.44"/>
<polygon fill="black" stroke="black" points="196.13,-398.93 185.73,-400.96 195.13,-405.86 196.13,-398.93"/>
<text text-anchor="middle" x="204.89" y="-391.5" font-family="Times,serif" font-size="14.00">*0</text>
</g>
<!-- node2 -->
<g id="node3" class="node">
<title>node2</title>
<polygon fill="lightgrey" stroke="black" points="1051.5,-401 874.5,-401 874.5,-365 1051.5,-365 1051.5,-401"/>
<text text-anchor="middle" x="963" y="-379.3" font-family="Times,serif" font-size="14.00">#2 arg2 : int Order : 9</text>
</g>
<!-- node0&#45;&gt;node2 -->
<g id="edge4" class="edge">
<title>node0&#45;&gt;node2</title>
<path fill="none" stroke="black" d="M705.38,-437.94C770.1,-427.85 788.05,-435.01 852,-420 868.89,-416.04 886.87,-410.25 903.38,-404.46"/>
<polygon fill="black" stroke="black" points="904.66,-407.72 912.91,-401.07 902.31,-401.13 904.66,-407.72"/>
<text text-anchor="middle" x="898.66" y="-411.41" font-family="Times,serif" font-size="14.00">*0</text>
</g>
<!-- node3 -->
<g id="node4" class="node">
<title>node3</title>
<polygon fill="lightgrey" stroke="black" points="624.5,-401 447.5,-401 447.5,-365 624.5,-365 624.5,-401"/>
<text text-anchor="middle" x="536" y="-379.3" font-family="Times,serif" font-size="14.00">#3 arg0 : int Order : 3</text>
</g>
<!-- node0&#45;&gt;node3 -->
<g id="edge6" class="edge">
<title>node0&#45;&gt;node3</title>
<path fill="none" stroke="black" d="M597.58,-437.81C585.26,-428.74 570.96,-417.48 559.18,-407.6"/>
<polygon fill="black" stroke="black" points="561.36,-404.86 551.48,-401.03 556.82,-410.18 561.36,-404.86"/>
<text text-anchor="middle" x="570.76" y="-402.67" font-family="Times,serif" font-size="14.00">*0</text>
</g>
<!-- node4 -->
<g id="node5" class="node">
<title>node4</title>
<polygon fill="lightgrey" stroke="black" points="819.5,-401 642.5,-401 642.5,-365 819.5,-365 819.5,-401"/>
<text text-anchor="middle" x="731" y="-379.3" font-family="Times,serif" font-size="14.00">#4 arg1 : int Order : 2</text>
</g>
<!-- node0&#45;&gt;node4 -->
<g id="edge8" class="edge">
<title>node0&#45;&gt;node4</title>
<path fill="none" stroke="black" d="M644.53,-437.99C657.59,-428.58 675.08,-416.76 690.96,-406.57"/>
<polygon fill="black" stroke="black" points="693.01,-409.42 699.58,-401.11 689.26,-403.51 693.01,-409.42"/>
<text text-anchor="middle" x="688.79" y="-414.26" font-family="Times,serif" font-size="14.00">*0</text>
</g>
<!-- node5 -->
<g id="node6" class="node">
<title>node5</title>
<polygon fill="lightgrey" stroke="black" points="392,-401 204,-401 204,-365 392,-365 392,-401"/>
<text text-anchor="middle" x="298" y="-379.3" font-family="Times,serif" font-size="14.00">#5 LabelNode Order : 1</text>
</g>
<!-- node0&#45;&gt;node5 -->
<g id="edge10" class="edge">
<title>node0&#45;&gt;node5</title>
<path fill="none" stroke="red" d="M541.98,-446.08C498.34,-440.26 444.31,-431.58 397,-420 379.75,-415.78 361.31,-410.08 345.02,-404.47"/>
<polygon fill="red" stroke="red" points="345.78,-401.03 335.19,-401 343.45,-407.63 345.78,-401.03"/>
</g>
<!-- node10 -->
<g id="node11" class="node">
<title>node10</title>
<polygon fill="lightgrey" stroke="black" points="1088.5,-109 837.5,-109 837.5,-73 1088.5,-73 1088.5,-109"/>
<text text-anchor="middle" x="963" y="-87.3" font-family="Times,serif" font-size="14.00">#10 ReturnValue : int Order : 10</text>
</g>
<!-- node0&#45;&gt;node10 -->
<g id="edge24" class="edge">
<title>node0&#45;&gt;node10</title>
<path fill="none" stroke="green" d="M705.45,-437.93C782.57,-426.78 1000.29,-458.59 1052,-401 1127.46,-316.95 1024.37,-174.77 980.65,-117.26"/>
<polygon fill="green" stroke="green" points="983.26,-114.92 974.41,-109.1 977.7,-119.17 983.26,-114.92"/>
</g>
<!-- node12 -->
<g id="node13" class="node">
<title>node12</title>
<polygon fill="lightgrey" stroke="black" points="599.5,-36 348.5,-36 348.5,0 599.5,0 599.5,-36"/>
<text text-anchor="middle" x="474" y="-14.3" font-family="Times,serif" font-size="14.00">#12 ReturnValue : int Order : 12</text>
</g>
<!-- node0&#45;&gt;node12 -->
<g id="edge30" class="edge">
<title>node0&#45;&gt;node12</title>
<path fill="none" stroke="green" d="M705.44,-437.95C855.75,-419.8 899.21,-457.96 1046,-420 1064.67,-415.17 1072.66,-415.82 1085,-401 1148.47,-324.75 1118.71,-103.94 1089,-73 1056.3,-38.95 780.8,-26.24 609.78,-21.6"/>
<polygon fill="green" stroke="green" points="609.78,-18.1 599.69,-21.33 609.59,-25.09 609.78,-18.1"/>
</g>
<!-- node1&#45;&gt;node0 -->
<g id="edge1" class="edge">
<title>node1&#45;&gt;node0</title>
<path fill="none" stroke="fuchsia" stroke-width="2" d="M186.27,-398.32C192.28,-399.25 198.23,-400.16 204,-401 316.68,-417.46 446.42,-433.33 531.8,-443.56"/>
<polygon fill="fuchsia" stroke="fuchsia" stroke-width="2" points="531.65,-447.06 541.99,-444.78 532.48,-440.11 531.65,-447.06"/>
</g>
<!-- node1&#45;&gt;node12 -->
<g id="edge28" class="edge">
<title>node1&#45;&gt;node12</title>
<path fill="none" stroke="black" d="M156.97,-364.88C199.28,-351.6 247,-331.98 247,-311 247,-311 247,-311 247,-90 247,-66.14 293.25,-49.36 344,-38.12"/>
<polygon fill="black" stroke="black" points="344.8,-41.53 353.85,-36.02 343.34,-34.68 344.8,-41.53"/>
<text text-anchor="middle" x="337.89" y="-44.37" font-family="Times,serif" font-size="14.00">*0</text>
</g>
<!-- node2&#45;&gt;node0 -->
<g id="edge3" class="edge">
<title>node2&#45;&gt;node0</title>
<path fill="none" stroke="fuchsia" stroke-width="2" d="M929.22,-401.17C911.77,-407.97 890.11,-415.28 870,-420 805.92,-435.04 788.03,-427.82 723,-438 721.49,-438.24 719.98,-438.48 718.45,-438.73"/>
<polygon fill="fuchsia" stroke="fuchsia" stroke-width="2" points="717.51,-435.33 708.22,-440.44 718.66,-442.24 717.51,-435.33"/>
</g>
<!-- node2&#45;&gt;node10 -->
<g id="edge22" class="edge">
<title>node2&#45;&gt;node10</title>
<path fill="none" stroke="black" d="M963,-364.78C963,-350.41 963,-329.37 963,-311 963,-311 963,-311 963,-163 963,-148.65 963,-132.67 963,-119.51"/>
<polygon fill="black" stroke="black" points="966.5,-119.22 963,-109.22 959.5,-119.22 966.5,-119.22"/>
<text text-anchor="middle" x="971.45" y="-123.64" font-family="Times,serif" font-size="14.00">*0</text>
</g>
<!-- node3&#45;&gt;node0 -->
<g id="edge5" class="edge">
<title>node3&#45;&gt;node0</title>
<path fill="none" stroke="fuchsia" stroke-width="2" d="M563.21,-401.03C575.5,-410.07 589.8,-421.33 601.61,-431.23"/>
<polygon fill="fuchsia" stroke="fuchsia" stroke-width="2" points="599.45,-433.99 609.33,-437.81 604,-428.66 599.45,-433.99"/>
</g>
<!-- node6 -->
<g id="node7" class="node">
<title>node6</title>
<polygon fill="orange" stroke="black" points="858.42,-302.54 858.42,-317.46 745.12,-328 584.88,-328 471.58,-317.46 471.58,-302.54 584.88,-292 745.12,-292 858.42,-302.54"/>
<text text-anchor="middle" x="665" y="-306.3" font-family="Times,serif" font-size="14.00">#6 NumericCondition : LE Order : 4</text>
</g>
<!-- node3&#45;&gt;node6 -->
<g id="edge12" class="edge">
<title>node3&#45;&gt;node6</title>
<path fill="none" stroke="black" d="M566.9,-364.99C584.32,-355.4 606.28,-343.32 625.01,-333.01"/>
<polygon fill="black" stroke="black" points="626.83,-336 633.91,-328.11 623.46,-329.87 626.83,-336"/>
<text text-anchor="middle" x="622.1" y="-340.56" font-family="Times,serif" font-size="14.00">*0</text>
</g>
<!-- node4&#45;&gt;node0 -->
<g id="edge7" class="edge">
<title>node4&#45;&gt;node0</title>
<path fill="none" stroke="fuchsia" stroke-width="2" d="M711.32,-401.11C698.23,-410.55 680.73,-422.37 664.86,-432.54"/>
<polygon fill="fuchsia" stroke="fuchsia" stroke-width="2" points="662.82,-429.69 656.25,-437.99 666.57,-435.6 662.82,-429.69"/>
</g>
<!-- node4&#45;&gt;node6 -->
<g id="edge13" class="edge">
<title>node4&#45;&gt;node6</title>
<path fill="none" stroke="black" d="M715.02,-364.81C706.84,-356 696.72,-345.13 687.74,-335.46"/>
<polygon fill="black" stroke="black" points="690.2,-332.97 680.83,-328.03 685.07,-337.74 690.2,-332.97"/>
<text text-anchor="middle" x="699.36" y="-331.85" font-family="Times,serif" font-size="14.00">*1</text>
</g>
<!-- node5&#45;&gt;node0 -->
<g id="edge9" class="edge">
<title>node5&#45;&gt;node0</title>
<path fill="none" stroke="fuchsia" stroke-width="2" d="M351.82,-401C371.6,-407.66 394.17,-414.9 415,-420 452.86,-429.27 495.02,-436.68 531.61,-442.25"/>
<polygon fill="fuchsia" stroke="fuchsia" stroke-width="2" points="531.36,-445.76 541.77,-443.78 532.4,-438.83 531.36,-445.76"/>
</g>
<!-- node7 -->
<g id="node8" class="node">
<title>node7</title>
<polygon fill="lightgrey" stroke="black" points="535,-255 413,-255 413,-219 535,-219 535,-255"/>
<text text-anchor="middle" x="474" y="-233.3" font-family="Times,serif" font-size="14.00">#7 If Order : 5</text>
</g>
<!-- node5&#45;&gt;node7 -->
<g id="edge16" class="edge">
<title>node5&#45;&gt;node7</title>
<path fill="none" stroke="red" d="M311.97,-364.84C331.32,-341.85 368.19,-300.72 406,-273 412.4,-268.31 419.52,-263.9 426.67,-259.9"/>
<polygon fill="red" stroke="red" points="428.54,-262.87 435.69,-255.05 425.23,-256.7 428.54,-262.87"/>
</g>
<!-- node6&#45;&gt;node0 -->
<g id="edge11" class="edge">
<title>node6&#45;&gt;node0</title>
<path fill="none" stroke="fuchsia" stroke-width="2" d="M751.5,-327.44C803.88,-341.4 855.68,-364.99 828,-401 820.72,-410.47 767.72,-424.39 717.71,-435.73"/>
<polygon fill="fuchsia" stroke="fuchsia" stroke-width="2" points="716.75,-432.35 707.76,-437.96 718.28,-439.18 716.75,-432.35"/>
</g>
<!-- node6&#45;&gt;node7 -->
<g id="edge15" class="edge">
<title>node6&#45;&gt;node7</title>
<path fill="none" stroke="black" d="M619.25,-291.99C592.28,-281.97 557.97,-269.21 529.46,-258.62"/>
<polygon fill="black" stroke="black" points="530.63,-255.32 520.04,-255.11 528.19,-261.88 530.63,-255.32"/>
<text text-anchor="middle" x="539.97" y="-249.81" font-family="Times,serif" font-size="14.00">*0</text>
</g>
<!-- node7&#45;&gt;node0 -->
<g id="edge14" class="edge">
<title>node7&#45;&gt;node0</title>
<path fill="none" stroke="fuchsia" stroke-width="2" d="M462.1,-255.13C441.53,-287.08 404.55,-356.53 438,-401 450.06,-417.03 491.14,-429.8 531.74,-438.9"/>
<polygon fill="fuchsia" stroke="fuchsia" stroke-width="2" points="531.24,-442.37 541.76,-441.07 532.73,-435.53 531.24,-442.37"/>
</g>
<!-- node8 -->
<g id="node9" class="node">
<title>node8</title>
<polygon fill="lightgrey" stroke="black" points="544.5,-182 403.5,-182 403.5,-146 544.5,-146 544.5,-182"/>
<text text-anchor="middle" x="474" y="-160.3" font-family="Times,serif" font-size="14.00">#8 true Order : 7</text>
</g>
<!-- node7&#45;&gt;node8 -->
<g id="edge18" class="edge">
<title>node7&#45;&gt;node8</title>
<path fill="none" stroke="red" d="M468.12,-218.81C467.28,-210.79 467.05,-201.05 467.42,-192.07"/>
<polygon fill="red" stroke="red" points="470.92,-192.25 468.14,-182.03 463.94,-191.75 470.92,-192.25"/>
</g>
<!-- node9 -->
<g id="node10" class="node">
<title>node9</title>
<polygon fill="lightgrey" stroke="black" points="707.5,-182 562.5,-182 562.5,-146 707.5,-146 707.5,-182"/>
<text text-anchor="middle" x="635" y="-160.3" font-family="Times,serif" font-size="14.00">#9 false Order : 6</text>
</g>
<!-- node7&#45;&gt;node9 -->
<g id="edge20" class="edge">
<title>node7&#45;&gt;node9</title>
<path fill="none" stroke="red" d="M506.7,-218.99C528.09,-209.1 556.44,-196.54 581.08,-186.03"/>
<polygon fill="red" stroke="red" points="582.48,-189.24 590.32,-182.11 579.75,-182.8 582.48,-189.24"/>
</g>
<!-- node8&#45;&gt;node7 -->
<g id="edge17" class="edge">
<title>node8&#45;&gt;node7</title>
<path fill="none" stroke="fuchsia" stroke-width="2" d="M479.86,-182.03C480.71,-190.03 480.95,-199.77 480.59,-208.75"/>
<polygon fill="fuchsia" stroke="fuchsia" stroke-width="2" points="477.09,-208.59 479.88,-218.81 484.07,-209.08 477.09,-208.59"/>
</g>
<!-- node11 -->
<g id="node12" class="node">
<title>node11</title>
<polygon fill="lightgrey" stroke="black" points="572.5,-109 375.5,-109 375.5,-73 572.5,-73 572.5,-109"/>
<text text-anchor="middle" x="474" y="-87.3" font-family="Times,serif" font-size="14.00">#11 LabelNode Order : 8</text>
</g>
<!-- node8&#45;&gt;node11 -->
<g id="edge26" class="edge">
<title>node8&#45;&gt;node11</title>
<path fill="none" stroke="red" d="M468.12,-145.81C467.28,-137.79 467.05,-128.05 467.42,-119.07"/>
<polygon fill="red" stroke="red" points="470.92,-119.25 468.14,-109.03 463.94,-118.75 470.92,-119.25"/>
</g>
<!-- node9&#45;&gt;node7 -->
<g id="edge19" class="edge">
<title>node9&#45;&gt;node7</title>
<path fill="none" stroke="fuchsia" stroke-width="2" d="M602.06,-182.11C580.63,-192.03 552.27,-204.58 527.65,-215.08"/>
<polygon fill="fuchsia" stroke="fuchsia" stroke-width="2" points="526.26,-211.87 518.42,-218.99 529,-218.31 526.26,-211.87"/>
</g>
<!-- node9&#45;&gt;node10 -->
<g id="edge23" class="edge">
<title>node9&#45;&gt;node10</title>
<path fill="none" stroke="red" d="M707.79,-147.24C757,-136.59 822.26,-122.47 874.47,-111.16"/>
<polygon fill="red" stroke="red" points="875.36,-114.55 884.39,-109.02 873.88,-107.71 875.36,-114.55"/>
</g>
<!-- node10&#45;&gt;node0 -->
<g id="edge21" class="edge">
<title>node10&#45;&gt;node0</title>
<path fill="none" stroke="fuchsia" stroke-width="2" d="M982.33,-109.1C1031.32,-160.02 1149.33,-312.64 1070,-401 1018.19,-458.7 799.71,-426.66 723,-438 721.49,-438.22 719.97,-438.45 718.44,-438.69"/>
<polygon fill="fuchsia" stroke="fuchsia" stroke-width="2" points="717.52,-435.29 708.21,-440.34 718.64,-442.2 717.52,-435.29"/>
</g>
<!-- node11&#45;&gt;node8 -->
<g id="edge25" class="edge">
<title>node11&#45;&gt;node8</title>
<path fill="none" stroke="fuchsia" stroke-width="2" d="M479.86,-109.03C480.71,-117.03 480.95,-126.77 480.59,-135.75"/>
<polygon fill="fuchsia" stroke="fuchsia" stroke-width="2" points="477.09,-135.59 479.88,-145.81 484.07,-136.08 477.09,-135.59"/>
</g>
<!-- node11&#45;&gt;node12 -->
<g id="edge29" class="edge">
<title>node11&#45;&gt;node12</title>
<path fill="none" stroke="red" d="M474,-72.81C474,-64.79 474,-55.05 474,-46.07"/>
<polygon fill="red" stroke="red" points="477.5,-46.03 474,-36.03 470.5,-46.03 477.5,-46.03"/>
</g>
<!-- node12&#45;&gt;node0 -->
<g id="edge27" class="edge">
<title>node12&#45;&gt;node0</title>
<path fill="none" stroke="fuchsia" stroke-width="2" d="M599.61,-21.03C774.28,-25.18 1072.88,-37.46 1107,-73 1136.71,-103.94 1166.47,-324.75 1103,-401 1090.66,-415.82 1082.67,-415.17 1064,-420 917.07,-457.99 873.66,-419.72 723,-438 721.49,-438.18 719.96,-438.38 718.43,-438.58"/>
<polygon fill="fuchsia" stroke="fuchsia" stroke-width="2" points="717.57,-435.17 708.17,-440.05 718.56,-442.1 717.57,-435.17"/>
</g>
<!-- c0 -->
<!-- c1 -->
<!-- c0&#45;&gt;c1 -->
<g id="edge31" class="edge">
<title>c0&#45;&gt;c1</title>
<path fill="none" stroke="red" d="M1576.89,-456C1588.11,-456 1646.24,-456 1671.86,-456"/>
<polygon fill="red" stroke="red" points="1672.06,-459.5 1682.06,-456 1672.06,-452.5 1672.06,-459.5"/>
<text text-anchor="middle" x="1629.5" y="-462.8" font-family="Times,serif" font-size="14.00">Control flow</text>
</g>
<!-- c2 -->
<!-- c3 -->
<!-- c2&#45;&gt;c3 -->
<g id="edge32" class="edge">
<title>c2&#45;&gt;c3</title>
<path fill="none" stroke="red" stroke-dasharray="5,2" d="M1370.08,-456C1387.05,-456 1503.21,-456 1541.08,-456"/>
<polygon fill="red" stroke="red" points="1541.17,-459.5 1551.17,-456 1541.17,-452.5 1541.17,-459.5"/>
<text text-anchor="middle" x="1460.5" y="-462.8" font-family="Times,serif" font-size="14.00">Control flow back edge</text>
</g>
<!-- d0 -->
<!-- d1 -->
<!-- d0&#45;&gt;d1 -->
<g id="edge33" class="edge">
<title>d0&#45;&gt;d1</title>
<path fill="none" stroke="black" d="M1258.86,-456C1268.41,-456 1312.31,-456 1333.92,-456"/>
<polygon fill="black" stroke="black" points="1334.15,-459.5 1344.15,-456 1334.15,-452.5 1334.15,-459.5"/>
<text text-anchor="middle" x="1301.5" y="-462.8" font-family="Times,serif" font-size="14.00">Data flow</text>
</g>
<!-- d2 -->
<!-- d3 -->
<!-- d2&#45;&gt;d3 -->
<g id="edge34" class="edge">
<title>d2&#45;&gt;d3</title>
<path fill="none" stroke="black" stroke-dasharray="1,5" d="M1132.81,-456C1143.46,-456 1198.46,-456 1223.08,-456"/>
<polygon fill="black" stroke="black" points="1223.15,-459.5 1233.15,-456 1223.15,-452.5 1223.15,-459.5"/>
<text text-anchor="middle" x="1183" y="-462.8" font-family="Times,serif" font-size="14.00">Declaration</text>
</g>
<!-- d4 -->
<!-- d5 -->
<!-- d4&#45;&gt;d5 -->
<g id="edge35" class="edge">
<title>d4&#45;&gt;d5</title>
<path fill="none" stroke="blue" d="M990.1,-456C1002.72,-456 1068.88,-456 1096.68,-456"/>
<polygon fill="blue" stroke="blue" points="1096.84,-459.5 1106.84,-456 1096.84,-452.5 1096.84,-459.5"/>
<text text-anchor="middle" x="1048.5" y="-462.8" font-family="Times,serif" font-size="14.00">PHI Data flow</text>
</g>
<!-- d6 -->
<!-- d7 -->
<!-- d6&#45;&gt;d7 -->
<g id="edge36" class="edge">
<title>d6&#45;&gt;d7</title>
<path fill="none" stroke="green" d="M853,-456C864.94,-456 927.3,-456 953.93,-456"/>
<polygon fill="green" stroke="green" points="953.95,-459.5 963.95,-456 953.95,-452.5 953.95,-459.5"/>
<text text-anchor="middle" x="908.5" y="-462.8" font-family="Times,serif" font-size="14.00">Memory flow</text>
</g>
<!-- d8 -->
<!-- d9 -->
<!-- d8&#45;&gt;d9 -->
<g id="edge37" class="edge">
<title>d8&#45;&gt;d9</title>
<path fill="none" stroke="fuchsia" d="M730.11,-456C741.15,-456 792.67,-456 816.66,-456"/>
<polygon fill="fuchsia" stroke="fuchsia" points="816.9,-459.5 826.9,-456 816.9,-452.5 816.9,-459.5"/>
<text text-anchor="middle" x="778.5" y="-462.8" font-family="Times,serif" font-size="14.00">Dominance</text>
</g>
</g>
</svg>
