<?xml version="1.0" encoding="UTF-8" standalone="no"?>
<!DOCTYPE svg PUBLIC "-//W3C//DTD SVG 1.1//EN"
 "http://www.w3.org/Graphics/SVG/1.1/DTD/svg11.dtd">
<!-- Generated by graphviz version 2.43.0 (0)
 -->
<!-- Title: debugoutput Pages: 1 -->
<svg width="1710pt" height="505pt"
 viewBox="0.00 0.00 1709.50 504.80" xmlns="http://www.w3.org/2000/svg" xmlns:xlink="http://www.w3.org/1999/xlink">
<g id="graph0" class="graph" transform="scale(1 1) rotate(0) translate(4 500.8)">
<title>debugoutput</title>
<polygon fill="white" stroke="transparent" points="-4,4 -4,-500.8 1705.5,-500.8 1705.5,4 -4,4"/>
<g id="clust1" class="cluster">
<title>cluster_000</title>
<polygon fill="none" stroke="black" points="717.5,-446.2 717.5,-488.8 1693.5,-488.8 1693.5,-446.2 717.5,-446.2"/>
<text text-anchor="middle" x="1205.5" y="-473.6" font-family="Times,serif" font-size="14.00">Legend</text>
</g>
<!-- node0 -->
<g id="node1" class="node">
<title>node0</title>
<polygon fill="lightgrey" stroke="black" points="707.5,-474 541.5,-474 541.5,-438 707.5,-438 707.5,-474"/>
<text text-anchor="middle" x="624.5" y="-452.3" font-family="Times,serif" font-size="14.00">#0 Method Order : 0</text>
</g>
<!-- node1 -->
<g id="node2" class="node">
<title>node1</title>
<polygon fill="lightgrey" stroke="black" points="811,-401 634,-401 634,-365 811,-365 811,-401"/>
<text text-anchor="middle" x="722.5" y="-379.3" font-family="Times,serif" font-size="14.00">#1 arg0 : int Order : 5</text>
</g>
<!-- node0&#45;&gt;node1 -->
<g id="edge2" class="edge">
<title>node0&#45;&gt;node1</title>
<path fill="none" stroke="black" d="M642.34,-437.81C654.25,-428.48 670.18,-416.83 684.75,-406.75"/>
<polygon fill="black" stroke="black" points="686.85,-409.56 693.13,-401.03 682.9,-403.78 686.85,-409.56"/>
<text text-anchor="middle" x="682.93" y="-414.53" font-family="Times,serif" font-size="14.00">*0</text>
</g>
<!-- node2 -->
<g id="node3" class="node">
<title>node2</title>
<polygon fill="lightgrey" stroke="black" points="177,-401 0,-401 0,-365 177,-365 177,-401"/>
<text text-anchor="middle" x="88.5" y="-379.3" font-family="Times,serif" font-size="14.00">#2 arg3 : int Order : 4</text>
</g>
<!-- node0&#45;&gt;node2 -->
<g id="edge4" class="edge">
<title>node0&#45;&gt;node2</title>
<path fill="none" stroke="black" d="M541.48,-446.72C453.83,-437.23 311.62,-420.64 187.3,-402.44"/>
<polygon fill="black" stroke="black" points="187.65,-398.96 177.24,-400.96 186.63,-405.88 187.65,-398.96"/>
<text text-anchor="middle" x="196.41" y="-391.54" font-family="Times,serif" font-size="14.00">*0</text>
</g>
<!-- node3 -->
<g id="node4" class="node">
<title>node3</title>
<polygon fill="lightgrey" stroke="black" points="616,-401 439,-401 439,-365 616,-365 616,-401"/>
<text text-anchor="middle" x="527.5" y="-379.3" font-family="Times,serif" font-size="14.00">#3 arg1 : int Order : 3</text>
</g>
<!-- node0&#45;&gt;node3 -->
<g id="edge6" class="edge">
<title>node0&#45;&gt;node3</title>
<path fill="none" stroke="black" d="M595.41,-437.99C581.93,-428.84 566.14,-417.41 553.12,-407.43"/>
<polygon fill="black" stroke="black" points="555.05,-404.5 545.01,-401.11 550.75,-410.02 555.05,-404.5"/>
<text text-anchor="middle" x="564.5" y="-401.88" font-family="Times,serif" font-size="14.00">*0</text>
</g>
<!-- node4 -->
<g id="node5" class="node">
<title>node4</title>
<polygon fill="lightgrey" stroke="black" points="1043,-401 866,-401 866,-365 1043,-365 1043,-401"/>
<text text-anchor="middle" x="954.5" y="-379.3" font-family="Times,serif" font-size="14.00">#4 arg2 : int Order : 2</text>
</g>
<!-- node0&#45;&gt;node4 -->
<g id="edge8" class="edge">
<title>node0&#45;&gt;node4</title>
<path fill="none" stroke="black" d="M704.86,-437.94C766.08,-428.18 783.02,-434.42 843.5,-420 860.37,-415.98 878.35,-410.17 894.86,-404.39"/>
<polygon fill="black" stroke="black" points="896.14,-407.65 904.39,-401 893.8,-401.05 896.14,-407.65"/>
<text text-anchor="middle" x="890.14" y="-411.34" font-family="Times,serif" font-size="14.00">*0</text>
</g>
<!-- node5 -->
<g id="node6" class="node">
<title>node5</title>
<polygon fill="lightgrey" stroke="black" points="383.5,-401 195.5,-401 195.5,-365 383.5,-365 383.5,-401"/>
<text text-anchor="middle" x="289.5" y="-379.3" font-family="Times,serif" font-size="14.00">#5 LabelNode Order : 1</text>
</g>
<!-- node0&#45;&gt;node5 -->
<g id="edge10" class="edge">
<title>node0&#45;&gt;node5</title>
<path fill="none" stroke="red" d="M541.4,-446.64C495.75,-440.89 438.5,-432.1 388.5,-420 371.24,-415.82 352.79,-410.14 336.5,-404.53"/>
<polygon fill="red" stroke="red" points="337.27,-401.09 326.67,-401.06 334.94,-407.69 337.27,-401.09"/>
</g>
<!-- node10 -->
<g id="node11" class="node">
<title>node10</title>
<polygon fill="lightgrey" stroke="black" points="1075.5,-109 833.5,-109 833.5,-73 1075.5,-73 1075.5,-109"/>
<text text-anchor="middle" x="954.5" y="-87.3" font-family="Times,serif" font-size="14.00">#10 ReturnValue : int Order : 9</text>
</g>
<!-- node0&#45;&gt;node10 -->
<g id="edge24" class="edge">
<title>node0&#45;&gt;node10</title>
<path fill="none" stroke="green" d="M704.94,-437.93C780.28,-426.89 993,-457.31 1043.5,-401 1118.91,-316.91 1015.85,-174.75 972.14,-117.26"/>
<polygon fill="green" stroke="green" points="974.76,-114.92 965.91,-109.09 969.19,-119.17 974.76,-114.92"/>
</g>
<!-- node12 -->
<g id="node13" class="node">
<title>node12</title>
<polygon fill="lightgrey" stroke="black" points="591,-36 340,-36 340,0 591,0 591,-36"/>
<text text-anchor="middle" x="465.5" y="-14.3" font-family="Times,serif" font-size="14.00">#12 ReturnValue : int Order : 12</text>
</g>
<!-- node0&#45;&gt;node12 -->
<g id="edge30" class="edge">
<title>node0&#45;&gt;node12</title>
<path fill="none" stroke="green" d="M704.93,-437.95C851.27,-420.17 893.42,-456.35 1036.5,-420 1055.58,-415.15 1063.83,-416.06 1076.5,-401 1141.71,-323.44 1102.87,-100.89 1075.5,-73 1042.76,-39.65 770.69,-26.7 601.11,-21.82"/>
<polygon fill="green" stroke="green" points="601.19,-18.32 591.1,-21.54 601,-25.32 601.19,-18.32"/>
</g>
<!-- node1&#45;&gt;node0 -->
<g id="edge1" class="edge">
<title>node1&#45;&gt;node0</title>
<path fill="none" stroke="fuchsia" stroke-width="2" d="M704.75,-401.11C692.83,-410.46 676.85,-422.15 662.24,-432.26"/>
<polygon fill="fuchsia" stroke="fuchsia" stroke-width="2" points="660.12,-429.47 653.83,-437.99 664.07,-435.25 660.12,-429.47"/>
</g>
<!-- node6 -->
<g id="node7" class="node">
<title>node6</title>
<polygon fill="orange" stroke="black" points="862.92,-302.54 862.92,-317.46 749.62,-328 589.38,-328 476.08,-317.46 476.08,-302.54 589.38,-292 749.62,-292 862.92,-302.54"/>
<text text-anchor="middle" x="669.5" y="-306.3" font-family="Times,serif" font-size="14.00">#6 NumericCondition : LE Order : 6</text>
</g>
<!-- node1&#45;&gt;node6 -->
<g id="edge12" class="edge">
<title>node1&#45;&gt;node6</title>
<path fill="none" stroke="black" d="M709.67,-364.81C703.29,-356.27 695.45,-345.77 688.4,-336.32"/>
<polygon fill="black" stroke="black" points="691,-333.95 682.21,-328.03 685.39,-338.14 691,-333.95"/>
<text text-anchor="middle" x="699.83" y="-333.8" font-family="Times,serif" font-size="14.00">*0</text>
</g>
<!-- node2&#45;&gt;node0 -->
<g id="edge3" class="edge">
<title>node2&#45;&gt;node0</title>
<path fill="none" stroke="fuchsia" stroke-width="2" d="M177.12,-398.15C183.35,-399.15 189.52,-400.11 195.5,-401 311.05,-418.13 444.32,-434.01 531.32,-444.05"/>
<polygon fill="fuchsia" stroke="fuchsia" stroke-width="2" points="531.1,-447.55 541.43,-445.22 531.9,-440.6 531.1,-447.55"/>
</g>
<!-- node2&#45;&gt;node12 -->
<g id="edge28" class="edge">
<title>node2&#45;&gt;node12</title>
<path fill="none" stroke="black" d="M149.94,-364.89C191.37,-351.48 238.5,-331.67 238.5,-311 238.5,-311 238.5,-311 238.5,-90 238.5,-66.14 284.75,-49.36 335.5,-38.12"/>
<polygon fill="black" stroke="black" points="336.3,-41.53 345.35,-36.02 334.84,-34.68 336.3,-41.53"/>
<text text-anchor="middle" x="329.39" y="-44.37" font-family="Times,serif" font-size="14.00">*0</text>
</g>
<!-- node3&#45;&gt;node0 -->
<g id="edge5" class="edge">
<title>node3&#45;&gt;node0</title>
<path fill="none" stroke="fuchsia" stroke-width="2" d="M556.63,-401.03C570.07,-410.16 585.81,-421.55 598.8,-431.51"/>
<polygon fill="fuchsia" stroke="fuchsia" stroke-width="2" points="596.86,-434.43 606.9,-437.81 601.16,-428.91 596.86,-434.43"/>
</g>
<!-- node3&#45;&gt;node6 -->
<g id="edge13" class="edge">
<title>node3&#45;&gt;node6</title>
<path fill="none" stroke="black" d="M561.51,-364.99C580.95,-355.27 605.53,-342.99 626.32,-332.59"/>
<polygon fill="black" stroke="black" points="627.89,-335.72 635.27,-328.11 624.76,-329.46 627.89,-335.72"/>
<text text-anchor="middle" x="622.84" y="-340.08" font-family="Times,serif" font-size="14.00">*1</text>
</g>
<!-- node4&#45;&gt;node0 -->
<g id="edge7" class="edge">
<title>node4&#45;&gt;node0</title>
<path fill="none" stroke="fuchsia" stroke-width="2" d="M920.71,-401.1C903.25,-407.89 881.59,-415.21 861.5,-420 800.9,-434.45 784.01,-428.15 722.5,-438 721,-438.24 719.48,-438.49 717.95,-438.74"/>
<polygon fill="fuchsia" stroke="fuchsia" stroke-width="2" points="717,-435.35 707.73,-440.47 718.17,-442.25 717,-435.35"/>
</g>
<!-- node4&#45;&gt;node10 -->
<g id="edge22" class="edge">
<title>node4&#45;&gt;node10</title>
<path fill="none" stroke="black" d="M954.5,-364.78C954.5,-350.41 954.5,-329.37 954.5,-311 954.5,-311 954.5,-311 954.5,-163 954.5,-148.65 954.5,-132.67 954.5,-119.51"/>
<polygon fill="black" stroke="black" points="958,-119.22 954.5,-109.22 951,-119.22 958,-119.22"/>
<text text-anchor="middle" x="962.95" y="-123.64" font-family="Times,serif" font-size="14.00">*0</text>
</g>
<!-- node5&#45;&gt;node0 -->
<g id="edge9" class="edge">
<title>node5&#45;&gt;node0</title>
<path fill="none" stroke="fuchsia" stroke-width="2" d="M343.3,-401.06C363.08,-407.72 385.66,-414.96 406.5,-420 447.06,-429.81 492.39,-437.45 531.2,-443.05"/>
<polygon fill="fuchsia" stroke="fuchsia" stroke-width="2" points="531.05,-446.57 541.44,-444.51 532.03,-439.64 531.05,-446.57"/>
</g>
<!-- node7 -->
<g id="node8" class="node">
<title>node7</title>
<polygon fill="lightgrey" stroke="black" points="526.5,-255 404.5,-255 404.5,-219 526.5,-219 526.5,-255"/>
<text text-anchor="middle" x="465.5" y="-233.3" font-family="Times,serif" font-size="14.00">#7 If Order : 7</text>
</g>
<!-- node5&#45;&gt;node7 -->
<g id="edge16" class="edge">
<title>node5&#45;&gt;node7</title>
<path fill="none" stroke="red" d="M303.47,-364.84C322.82,-341.85 359.69,-300.72 397.5,-273 403.9,-268.31 411.02,-263.9 418.17,-259.9"/>
<polygon fill="red" stroke="red" points="420.04,-262.87 427.19,-255.05 416.73,-256.7 420.04,-262.87"/>
</g>
<!-- node6&#45;&gt;node0 -->
<g id="edge11" class="edge">
<title>node6&#45;&gt;node0</title>
<path fill="none" stroke="fuchsia" stroke-width="2" d="M747.26,-328.07C796.26,-342.57 845.7,-366.56 819.5,-401 812.51,-410.19 761.29,-424.18 713.1,-435.61"/>
<polygon fill="fuchsia" stroke="fuchsia" stroke-width="2" points="712.14,-432.25 703.2,-437.94 713.74,-439.06 712.14,-432.25"/>
</g>
<!-- node6&#45;&gt;node7 -->
<g id="edge15" class="edge">
<title>node6&#45;&gt;node7</title>
<path fill="none" stroke="black" d="M620.64,-291.99C591.71,-281.92 554.86,-269.1 524.34,-258.48"/>
<polygon fill="black" stroke="black" points="525.27,-255.1 514.67,-255.11 522.97,-261.71 525.27,-255.1"/>
<text text-anchor="middle" x="534.57" y="-249.39" font-family="Times,serif" font-size="14.00">*0</text>
</g>
<!-- node7&#45;&gt;node0 -->
<g id="edge14" class="edge">
<title>node7&#45;&gt;node0</title>
<path fill="none" stroke="fuchsia" stroke-width="2" d="M453.56,-255.17C432.91,-287.17 395.81,-356.71 429.5,-401 442.55,-418.15 487.9,-431.27 531.58,-440.28"/>
<polygon fill="fuchsia" stroke="fuchsia" stroke-width="2" points="530.96,-443.72 541.45,-442.25 532.33,-436.86 530.96,-443.72"/>
</g>
<!-- node8 -->
<g id="node9" class="node">
<title>node8</title>
<polygon fill="lightgrey" stroke="black" points="540.5,-182 390.5,-182 390.5,-146 540.5,-146 540.5,-182"/>
<text text-anchor="middle" x="465.5" y="-160.3" font-family="Times,serif" font-size="14.00">#8 true Order : 10</text>
</g>
<!-- node7&#45;&gt;node8 -->
<g id="edge18" class="edge">
<title>node7&#45;&gt;node8</title>
<path fill="none" stroke="red" d="M459.62,-218.81C458.78,-210.79 458.55,-201.05 458.92,-192.07"/>
<polygon fill="red" stroke="red" points="462.42,-192.25 459.64,-182.03 455.44,-191.75 462.42,-192.25"/>
</g>
<!-- node9 -->
<g id="node10" class="node">
<title>node9</title>
<polygon fill="lightgrey" stroke="black" points="704,-182 559,-182 559,-146 704,-146 704,-182"/>
<text text-anchor="middle" x="631.5" y="-160.3" font-family="Times,serif" font-size="14.00">#9 false Order : 8</text>
</g>
<!-- node7&#45;&gt;node9 -->
<g id="edge20" class="edge">
<title>node7&#45;&gt;node9</title>
<path fill="none" stroke="red" d="M499.4,-218.99C521.49,-209.1 550.72,-196.54 576.1,-186.03"/>
<polygon fill="red" stroke="red" points="577.7,-189.16 585.62,-182.11 575.04,-182.68 577.7,-189.16"/>
</g>
<!-- node8&#45;&gt;node7 -->
<g id="edge17" class="edge">
<title>node8&#45;&gt;node7</title>
<path fill="none" stroke="fuchsia" stroke-width="2" d="M471.36,-182.03C472.21,-190.03 472.45,-199.77 472.09,-208.75"/>
<polygon fill="fuchsia" stroke="fuchsia" stroke-width="2" points="468.59,-208.59 471.38,-218.81 475.57,-209.08 468.59,-208.59"/>
</g>
<!-- node11 -->
<g id="node12" class="node">
<title>node11</title>
<polygon fill="lightgrey" stroke="black" points="568.5,-109 362.5,-109 362.5,-73 568.5,-73 568.5,-109"/>
<text text-anchor="middle" x="465.5" y="-87.3" font-family="Times,serif" font-size="14.00">#11 LabelNode Order : 11</text>
</g>
<!-- node8&#45;&gt;node11 -->
<g id="edge26" class="edge">
<title>node8&#45;&gt;node11</title>
<path fill="none" stroke="red" d="M459.62,-145.81C458.78,-137.79 458.55,-128.05 458.92,-119.07"/>
<polygon fill="red" stroke="red" points="462.42,-119.25 459.64,-109.03 455.44,-118.75 462.42,-119.25"/>
</g>
<!-- node9&#45;&gt;node7 -->
<g id="edge19" class="edge">
<title>node9&#45;&gt;node7</title>
<path fill="none" stroke="fuchsia" stroke-width="2" d="M597.36,-182.11C575.22,-192.03 545.98,-204.58 520.63,-215.08"/>
<polygon fill="fuchsia" stroke="fuchsia" stroke-width="2" points="519.04,-211.95 511.12,-218.99 521.7,-218.42 519.04,-211.95"/>
</g>
<!-- node9&#45;&gt;node10 -->
<g id="edge23" class="edge">
<title>node9&#45;&gt;node10</title>
<path fill="none" stroke="red" d="M704.39,-146.98C752.62,-136.38 816.13,-122.42 867.07,-111.22"/>
<polygon fill="red" stroke="red" points="868.07,-114.58 877.09,-109.02 866.57,-107.74 868.07,-114.58"/>
</g>
<!-- node10&#45;&gt;node0 -->
<g id="edge21" class="edge">
<title>node10&#45;&gt;node0</title>
<path fill="none" stroke="fuchsia" stroke-width="2" d="M973.83,-109.09C1022.8,-160 1140.78,-312.59 1061.5,-401 1010.91,-457.42 797.44,-426.77 722.5,-438 720.99,-438.23 719.47,-438.46 717.94,-438.7"/>
<polygon fill="fuchsia" stroke="fuchsia" stroke-width="2" points="717.02,-435.3 707.71,-440.36 718.14,-442.21 717.02,-435.3"/>
</g>
<!-- node11&#45;&gt;node8 -->
<g id="edge25" class="edge">
<title>node11&#45;&gt;node8</title>
<path fill="none" stroke="fuchsia" stroke-width="2" d="M471.36,-109.03C472.21,-117.03 472.45,-126.77 472.09,-135.75"/>
<polygon fill="fuchsia" stroke="fuchsia" stroke-width="2" points="468.59,-135.59 471.38,-145.81 475.57,-136.08 468.59,-135.59"/>
</g>
<!-- node11&#45;&gt;node12 -->
<g id="edge29" class="edge">
<title>node11&#45;&gt;node12</title>
<path fill="none" stroke="red" d="M465.5,-72.81C465.5,-64.79 465.5,-55.05 465.5,-46.07"/>
<polygon fill="red" stroke="red" points="469,-46.03 465.5,-36.03 462,-46.03 469,-46.03"/>
</g>
<!-- node12&#45;&gt;node0 -->
<g id="edge27" class="edge">
<title>node12&#45;&gt;node0</title>
<path fill="none" stroke="fuchsia" stroke-width="2" d="M591.13,-21.23C764.44,-25.61 1059.33,-38.19 1093.5,-73 1120.87,-100.89 1159.71,-323.44 1094.5,-401 1081.83,-416.06 1073.58,-415.15 1054.5,-420 911.28,-456.39 869.18,-420.1 722.5,-438 720.99,-438.18 719.46,-438.38 717.93,-438.58"/>
<polygon fill="fuchsia" stroke="fuchsia" stroke-width="2" points="717.07,-435.17 707.67,-440.06 718.06,-442.1 717.07,-435.17"/>
</g>
<!-- c0 -->
<!-- c1 -->
<!-- c0&#45;&gt;c1 -->
<g id="edge31" class="edge">
<title>c0&#45;&gt;c1</title>
<path fill="none" stroke="red" d="M1576.39,-456C1587.61,-456 1645.74,-456 1671.36,-456"/>
<polygon fill="red" stroke="red" points="1671.56,-459.5 1681.56,-456 1671.56,-452.5 1671.56,-459.5"/>
<text text-anchor="middle" x="1629" y="-462.8" font-family="Times,serif" font-size="14.00">Control flow</text>
</g>
<!-- c2 -->
<!-- c3 -->
<!-- c2&#45;&gt;c3 -->
<g id="edge32" class="edge">
<title>c2&#45;&gt;c3</title>
<path fill="none" stroke="red" stroke-dasharray="5,2" d="M1369.58,-456C1386.55,-456 1502.71,-456 1540.58,-456"/>
<polygon fill="red" stroke="red" points="1540.67,-459.5 1550.67,-456 1540.67,-452.5 1540.67,-459.5"/>
<text text-anchor="middle" x="1460" y="-462.8" font-family="Times,serif" font-size="14.00">Control flow back edge</text>
</g>
<!-- d0 -->
<!-- d1 -->
<!-- d0&#45;&gt;d1 -->
<g id="edge33" class="edge">
<title>d0&#45;&gt;d1</title>
<path fill="none" stroke="black" d="M1258.36,-456C1267.91,-456 1311.81,-456 1333.42,-456"/>
<polygon fill="black" stroke="black" points="1333.65,-459.5 1343.65,-456 1333.65,-452.5 1333.65,-459.5"/>
<text text-anchor="middle" x="1301" y="-462.8" font-family="Times,serif" font-size="14.00">Data flow</text>
</g>
<!-- d2 -->
<!-- d3 -->
<!-- d2&#45;&gt;d3 -->
<g id="edge34" class="edge">
<title>d2&#45;&gt;d3</title>
<path fill="none" stroke="black" stroke-dasharray="1,5" d="M1132.31,-456C1142.96,-456 1197.96,-456 1222.58,-456"/>
<polygon fill="black" stroke="black" points="1222.65,-459.5 1232.65,-456 1222.65,-452.5 1222.65,-459.5"/>
<text text-anchor="middle" x="1182.5" y="-462.8" font-family="Times,serif" font-size="14.00">Declaration</text>
</g>
<!-- d4 -->
<!-- d5 -->
<!-- d4&#45;&gt;d5 -->
<g id="edge35" class="edge">
<title>d4&#45;&gt;d5</title>
<path fill="none" stroke="blue" d="M989.6,-456C1002.22,-456 1068.38,-456 1096.18,-456"/>
<polygon fill="blue" stroke="blue" points="1096.34,-459.5 1106.34,-456 1096.34,-452.5 1096.34,-459.5"/>
<text text-anchor="middle" x="1048" y="-462.8" font-family="Times,serif" font-size="14.00">PHI Data flow</text>
</g>
<!-- d6 -->
<!-- d7 -->
<!-- d6&#45;&gt;d7 -->
<g id="edge36" class="edge">
<title>d6&#45;&gt;d7</title>
<path fill="none" stroke="green" d="M852.5,-456C864.44,-456 926.8,-456 953.43,-456"/>
<polygon fill="green" stroke="green" points="953.45,-459.5 963.45,-456 953.45,-452.5 953.45,-459.5"/>
<text text-anchor="middle" x="908" y="-462.8" font-family="Times,serif" font-size="14.00">Memory flow</text>
</g>
<!-- d8 -->
<!-- d9 -->
<!-- d8&#45;&gt;d9 -->
<g id="edge37" class="edge">
<title>d8&#45;&gt;d9</title>
<path fill="none" stroke="fuchsia" d="M729.61,-456C740.65,-456 792.17,-456 816.16,-456"/>
<polygon fill="fuchsia" stroke="fuchsia" points="816.4,-459.5 826.4,-456 816.4,-452.5 816.4,-459.5"/>
<text text-anchor="middle" x="778" y="-462.8" font-family="Times,serif" font-size="14.00">Dominance</text>
</g>
</g>
</svg>
