<?xml version="1.0" encoding="UTF-8" standalone="no"?>
<!DOCTYPE svg PUBLIC "-//W3C//DTD SVG 1.1//EN"
 "http://www.w3.org/Graphics/SVG/1.1/DTD/svg11.dtd">
<!-- Generated by graphviz version 2.43.0 (0)
 -->
<!-- Title: %3 Pages: 1 -->
<svg width="3309pt" height="443pt"
 viewBox="0.00 0.00 3308.50 443.00" xmlns="http://www.w3.org/2000/svg" xmlns:xlink="http://www.w3.org/1999/xlink">
<g id="graph0" class="graph" transform="scale(1 1) rotate(0) translate(4 439)">
<title>%3</title>
<polygon fill="white" stroke="transparent" points="-4,4 -4,-439 3304.5,-439 3304.5,4 -4,4"/>
<g id="clust1" class="cluster">
<title>cluster_0</title>
<polygon fill="none" stroke="lightgray" points="1392.5,-284 1392.5,-427 2431.5,-427 2431.5,-284 1392.5,-284"/>
</g>
<g id="clust2" class="cluster">
<title>cluster_1</title>
<polygon fill="none" stroke="lightgray" points="275.5,-211 275.5,-336 1354.5,-336 1354.5,-211 275.5,-211"/>
</g>
<g id="clust3" class="cluster">
<title>cluster_000</title>
<polygon fill="none" stroke="black" points="2439.5,-382.2 2439.5,-424.8 3292.5,-424.8 3292.5,-382.2 2439.5,-382.2"/>
<text text-anchor="middle" x="2866" y="-409.6" font-family="Times,serif" font-size="14.00">Legend</text>
</g>
<!-- node0 -->
<g id="node1" class="node">
<title>node0</title>
<polygon fill="lightgrey" stroke="transparent" points="1752,-419 1401,-419 1401,-365 1752,-365 1752,-419"/>
<polygon fill="none" stroke="black" points="1401.5,-392 1401.5,-419 1752.5,-419 1752.5,-392 1401.5,-392"/>
<text text-anchor="start" x="1536.5" y="-401.8" font-family="Times,serif" font-size="14.00">#0 Method</text>
<polygon fill="yellow" stroke="transparent" points="1401.5,-365 1401.5,-392 1480.5,-392 1480.5,-365 1401.5,-365"/>
<polygon fill="none" stroke="black" points="1401.5,-365 1401.5,-392 1480.5,-392 1480.5,-365 1401.5,-365"/>
<text text-anchor="start" x="1407.5" y="-374.8" font-family="Times,serif" font-size="14.00">arg0 : int</text>
<polygon fill="yellow" stroke="transparent" points="1480.5,-365 1480.5,-392 1559.5,-392 1559.5,-365 1480.5,-365"/>
<polygon fill="none" stroke="black" points="1480.5,-365 1480.5,-392 1559.5,-392 1559.5,-365 1480.5,-365"/>
<text text-anchor="start" x="1486.5" y="-374.8" font-family="Times,serif" font-size="14.00">arg1 : int</text>
<polygon fill="yellow" stroke="transparent" points="1559.5,-365 1559.5,-392 1752.5,-392 1752.5,-365 1559.5,-365"/>
<polygon fill="none" stroke="black" points="1559.5,-365 1559.5,-392 1752.5,-392 1752.5,-365 1559.5,-365"/>
<text text-anchor="start" x="1565.5" y="-374.8" font-family="Times,serif" font-size="14.00">this : InvokeDynamicTest</text>
</g>
<!-- node13 -->
<g id="node2" class="node">
<title>node13</title>
<polygon fill="lightgrey" stroke="black" points="473,-109 0,-109 0,-73 473,-73 473,-109"/>
<text text-anchor="middle" x="236.5" y="-87.3" font-family="Times,serif" font-size="14.00">#13 Invoke dynamic makeConcatWithConstants : (int,int)String</text>
</g>
<!-- node0&#45;&gt;node13 -->
<g id="edge2" class="edge">
<title>node0:prj1&#45;&gt;node13</title>
<path fill="none" stroke="black" d="M1400.5,-378C1367.24,-378 232.62,-363.07 203.5,-347 186.66,-337.71 179.5,-330.23 179.5,-311 179.5,-311 179.5,-311 179.5,-163 179.5,-144.63 191.24,-128.31 204.07,-115.96"/>
<polygon fill="black" stroke="black" points="206.55,-118.44 211.66,-109.17 201.88,-113.23 206.55,-118.44"/>
<text text-anchor="middle" x="203.79" y="-123.85" font-family="Times,serif" font-size="14.00">*1</text>
</g>
<!-- node0&#45;&gt;node13 -->
<g id="edge3" class="edge">
<title>node0:prj2&#45;&gt;node13</title>
<path fill="none" stroke="black" d="M1519.5,-365C1519.5,-347.66 288.39,-339.93 271.5,-336 245.74,-330.01 217.5,-337.45 217.5,-311 217.5,-311 217.5,-311 217.5,-163 217.5,-148.1 221.45,-132.02 225.75,-118.93"/>
<polygon fill="black" stroke="black" points="229.17,-119.76 229.21,-109.16 222.58,-117.43 229.17,-119.76"/>
<text text-anchor="middle" x="231.14" y="-125.37" font-family="Times,serif" font-size="14.00">*2</text>
</g>
<!-- node0&#45;&gt;node13 -->
<g id="edge4" class="edge">
<title>node0&#45;&gt;node13</title>
<path fill="none" stroke="green" d="M1448.62,-364.87C1422.18,-356.85 1399.81,-347.15 1391.5,-336 1377.68,-317.48 1375.79,-300.95 1391.5,-284 1448.9,-222.04 1713.1,-316.96 1770.5,-255 1783.79,-240.65 1784.14,-225.01 1770.5,-211 1729.26,-168.62 765.29,-188.39 706.5,-182 568.04,-166.96 409.37,-133.02 316.34,-111.39"/>
<polygon fill="green" stroke="green" points="316.97,-107.94 306.43,-109.07 315.37,-114.76 316.97,-107.94"/>
</g>
<!-- node4 -->
<g id="node4" class="node">
<title>node4</title>
<polygon fill="lightgrey" stroke="black" points="821,-328 702,-328 702,-292 821,-292 821,-328"/>
<text text-anchor="middle" x="761.5" y="-306.3" font-family="Times,serif" font-size="14.00">#4 LabelNode</text>
</g>
<!-- node0&#45;&gt;node4 -->
<g id="edge6" class="edge">
<title>node0&#45;&gt;node4</title>
<path fill="none" stroke="red" d="M1400.91,-373.76C1222.97,-356.3 956.59,-330.15 831.33,-317.85"/>
<polygon fill="red" stroke="red" points="831.4,-314.34 821.1,-316.85 830.71,-321.31 831.4,-314.34"/>
</g>
<!-- node6 -->
<g id="node6" class="node">
<title>node6</title>
<polygon fill="lightgreen" stroke="black" points="2061.33,-302.54 2061.33,-317.46 1965.36,-328 1829.64,-328 1733.67,-317.46 1733.67,-302.54 1829.64,-292 1965.36,-292 2061.33,-302.54"/>
<text text-anchor="middle" x="1897.5" y="-306.3" font-family="Times,serif" font-size="14.00">#6 Class StringConcatFactory</text>
</g>
<!-- node0&#45;&gt;node6 -->
<g id="edge20" class="edge">
<title>node0&#45;&gt;node6</title>
<path fill="none" stroke="black" stroke-dasharray="1,5" d="M1681.16,-364.92C1726.22,-353.69 1777.98,-340.79 1819.57,-330.42"/>
<polygon fill="black" stroke="black" points="1820.51,-333.79 1829.37,-327.98 1818.82,-327 1820.51,-333.79"/>
</g>
<!-- node5 -->
<g id="node8" class="node">
<title>node5</title>
<polygon fill="lightgreen" stroke="black" points="2423.3,-302.54 2423.3,-317.46 2322.66,-328 2180.34,-328 2079.7,-317.46 2079.7,-302.54 2180.34,-292 2322.66,-292 2423.3,-302.54"/>
<text text-anchor="middle" x="2251.5" y="-306.3" font-family="Times,serif" font-size="14.00">#5 MethodType : (int,int)String</text>
</g>
<!-- node0&#45;&gt;node5 -->
<g id="edge16" class="edge">
<title>node0&#45;&gt;node5</title>
<path fill="none" stroke="black" stroke-dasharray="1,5" d="M1752.1,-372.59C1846.54,-362.4 1964.96,-349.16 2070.5,-336 2093.77,-333.1 2118.7,-329.79 2142.39,-326.54"/>
<polygon fill="black" stroke="black" points="2143.02,-329.99 2152.45,-325.16 2142.07,-323.06 2143.02,-329.99"/>
</g>
<!-- node7 -->
<g id="node11" class="node">
<title>node7</title>
<polygon fill="lightgreen" stroke="black" points="1716.16,-302.54 1716.16,-317.46 1623.81,-328 1493.19,-328 1400.84,-317.46 1400.84,-302.54 1493.19,-292 1623.81,-292 1716.16,-302.54"/>
<text text-anchor="middle" x="1558.5" y="-306.3" font-family="Times,serif" font-size="14.00">#7 Class InvokeDynamicTest</text>
</g>
<!-- node0&#45;&gt;node7 -->
<g id="edge19" class="edge">
<title>node0&#45;&gt;node7</title>
<path fill="none" stroke="black" stroke-dasharray="1,5" d="M1570.61,-364.81C1568.68,-356.25 1566.54,-346.74 1564.6,-338.12"/>
<polygon fill="black" stroke="black" points="1567.97,-337.16 1562.36,-328.17 1561.14,-338.7 1567.97,-337.16"/>
</g>
<!-- node14 -->
<g id="node12" class="node">
<title>node14</title>
<polygon fill="lightgrey" stroke="black" points="335.5,-36 137.5,-36 137.5,0 335.5,0 335.5,-36"/>
<text text-anchor="middle" x="236.5" y="-14.3" font-family="Times,serif" font-size="14.00">#14 ReturnValue : String</text>
</g>
<!-- node13&#45;&gt;node14 -->
<g id="edge21" class="edge">
<title>node13&#45;&gt;node14</title>
<path fill="none" stroke="black" d="M224.74,-72.81C223.06,-64.79 222.6,-55.05 223.34,-46.07"/>
<polygon fill="black" stroke="black" points="226.83,-46.42 224.78,-36.03 219.9,-45.43 226.83,-46.42"/>
<text text-anchor="middle" x="230.58" y="-51.47" font-family="Times,serif" font-size="14.00">*0</text>
</g>
<!-- node13&#45;&gt;node14 -->
<g id="edge22" class="edge">
<title>node13&#45;&gt;node14</title>
<path fill="none" stroke="red" d="M236.5,-72.81C236.5,-64.79 236.5,-55.05 236.5,-46.07"/>
<polygon fill="red" stroke="red" points="240,-46.03 236.5,-36.03 233,-46.03 240,-46.03"/>
</g>
<!-- node13&#45;&gt;node14 -->
<g id="edge23" class="edge">
<title>node13&#45;&gt;node14</title>
<path fill="none" stroke="green" d="M248.26,-72.81C249.94,-64.79 250.4,-55.05 249.66,-46.07"/>
<polygon fill="green" stroke="green" points="253.1,-45.43 248.22,-36.03 246.17,-46.42 253.1,-45.43"/>
</g>
<!-- node12 -->
<g id="node3" class="node">
<title>node12</title>
<polygon fill="lightgrey" stroke="black" points="1564,-182 715,-182 715,-146 1564,-146 1564,-182"/>
<text text-anchor="middle" x="1139.5" y="-160.3" font-family="Times,serif" font-size="14.00">#12 Invoke static makeConcatWithConstants : (MethodHandles$Lookup,String,MethodType,String,Object[])CallSite</text>
</g>
<!-- node12&#45;&gt;node13 -->
<g id="edge1" class="edge">
<title>node12&#45;&gt;node13</title>
<path fill="none" stroke="black" d="M923.21,-145.99C784.23,-135.07 604.01,-120.9 463.06,-109.81"/>
<polygon fill="black" stroke="black" points="463.22,-106.32 452.98,-109.02 462.68,-113.29 463.22,-106.32"/>
<text text-anchor="middle" x="471.71" y="-98.32" font-family="Times,serif" font-size="14.00">*0</text>
</g>
<!-- node4&#45;&gt;node13 -->
<g id="edge5" class="edge">
<title>node4&#45;&gt;node13</title>
<path fill="none" stroke="red" d="M701.75,-306.2C578.71,-299.89 305.91,-282.89 274.5,-255 236.04,-220.85 232.6,-155.98 234.14,-119.22"/>
<polygon fill="red" stroke="red" points="237.63,-119.39 234.71,-109.2 230.64,-118.99 237.63,-119.39"/>
</g>
<!-- node9 -->
<g id="node5" class="node">
<title>node9</title>
<polygon fill="lightgreen" stroke="black" points="1346.15,-229.54 1346.15,-244.46 1225.1,-255 1053.9,-255 932.85,-244.46 932.85,-229.54 1053.9,-219 1225.1,-219 1346.15,-229.54"/>
<text text-anchor="middle" x="1139.5" y="-233.3" font-family="Times,serif" font-size="14.00">#9 String : makeConcatWithConstants</text>
</g>
<!-- node4&#45;&gt;node9 -->
<g id="edge7" class="edge">
<title>node4&#45;&gt;node9</title>
<path fill="none" stroke="black" stroke-dasharray="1,5" d="M821.4,-297.75C880.13,-286.72 970.72,-269.7 1040.23,-256.65"/>
<polygon fill="black" stroke="black" points="1041.14,-260.04 1050.32,-254.75 1039.85,-253.16 1041.14,-260.04"/>
</g>
<!-- node8 -->
<g id="node9" class="node">
<title>node8</title>
<polygon fill="lightgreen" stroke="black" points="589.72,-229.54 589.72,-244.46 499.97,-255 373.03,-255 283.28,-244.46 283.28,-229.54 373.03,-219 499.97,-219 589.72,-229.54"/>
<text text-anchor="middle" x="436.5" y="-233.3" font-family="Times,serif" font-size="14.00">#8 String : hello  world </text>
</g>
<!-- node4&#45;&gt;node8 -->
<g id="edge15" class="edge">
<title>node4&#45;&gt;node8</title>
<path fill="none" stroke="black" stroke-dasharray="1,5" d="M701.89,-295.98C650.72,-284.8 576.43,-268.57 519.45,-256.12"/>
<polygon fill="black" stroke="black" points="519.9,-252.64 509.39,-253.92 518.41,-259.48 519.9,-252.64"/>
</g>
<!-- node10 -->
<g id="node10" class="node">
<title>node10</title>
<polygon fill="orange" stroke="black" points="914.72,-229.54 914.72,-244.46 824.97,-255 698.03,-255 608.28,-244.46 608.28,-229.54 698.03,-219 824.97,-219 914.72,-229.54"/>
<text text-anchor="middle" x="761.5" y="-233.3" font-family="Times,serif" font-size="14.00">#10 VarArgsArray : Object[]</text>
</g>
<!-- node4&#45;&gt;node10 -->
<g id="edge14" class="edge">
<title>node4&#45;&gt;node10</title>
<path fill="none" stroke="black" stroke-dasharray="1,5" d="M761.5,-291.81C761.5,-283.79 761.5,-274.05 761.5,-265.07"/>
<polygon fill="black" stroke="black" points="765,-265.03 761.5,-255.03 758,-265.03 765,-265.03"/>
</g>
<!-- node9&#45;&gt;node12 -->
<g id="edge10" class="edge">
<title>node9&#45;&gt;node12</title>
<path fill="none" stroke="black" d="M1139.5,-218.81C1139.5,-210.79 1139.5,-201.05 1139.5,-192.07"/>
<polygon fill="black" stroke="black" points="1143,-192.03 1139.5,-182.03 1136,-192.03 1143,-192.03"/>
<text text-anchor="middle" x="1147.95" y="-196.45" font-family="Times,serif" font-size="14.00">*2</text>
</g>
<!-- node6&#45;&gt;node12 -->
<g id="edge8" class="edge">
<title>node6&#45;&gt;node12</title>
<path fill="none" stroke="black" d="M1881.84,-291.79C1859.63,-268.71 1816.55,-228.6 1770.5,-211 1730.82,-195.84 1657.5,-185.64 1574.5,-178.78"/>
<polygon fill="black" stroke="black" points="1574.58,-175.28 1564.33,-177.97 1574.02,-182.26 1574.58,-175.28"/>
<text text-anchor="middle" x="1583.08" y="-167.3" font-family="Times,serif" font-size="14.00">*0</text>
</g>
<!-- node11 -->
<g id="node7" class="node">
<title>node11</title>
<polygon fill="lightgrey" stroke="black" points="1761,-255 1364,-255 1364,-219 1761,-219 1761,-255"/>
<text text-anchor="middle" x="1562.5" y="-233.3" font-family="Times,serif" font-size="14.00">#11 Invoke static in : (Class)MethodHandles$Lookup</text>
</g>
<!-- node11&#45;&gt;node12 -->
<g id="edge9" class="edge">
<title>node11&#45;&gt;node12</title>
<path fill="none" stroke="black" d="M1461.18,-218.99C1397.83,-208.36 1316.18,-194.66 1251,-183.71"/>
<polygon fill="black" stroke="black" points="1251.53,-180.26 1241.09,-182.05 1250.37,-187.16 1251.53,-180.26"/>
<text text-anchor="middle" x="1260.37" y="-173.02" font-family="Times,serif" font-size="14.00">*1</text>
</g>
<!-- node5&#45;&gt;node12 -->
<g id="edge11" class="edge">
<title>node5&#45;&gt;node12</title>
<path fill="none" stroke="black" d="M2235.57,-291.74C2210.68,-266.15 2159.8,-219.13 2105.5,-200 2054.11,-181.89 1806.21,-173.15 1574.43,-168.93"/>
<polygon fill="black" stroke="black" points="1574.16,-165.42 1564.1,-168.74 1574.04,-172.42 1574.16,-165.42"/>
<text text-anchor="middle" x="1582.38" y="-156.92" font-family="Times,serif" font-size="14.00">*3</text>
</g>
<!-- node8&#45;&gt;node12 -->
<g id="edge12" class="edge">
<title>node8&#45;&gt;node12</title>
<path fill="none" stroke="black" d="M523.06,-221.62C547.71,-217.82 574.63,-213.96 599.5,-211 693.72,-199.77 797.5,-190.25 888.69,-182.84"/>
<polygon fill="black" stroke="black" points="889.21,-186.31 898.9,-182.01 888.65,-179.33 889.21,-186.31"/>
<text text-anchor="middle" x="881.51" y="-188.2" font-family="Times,serif" font-size="14.00">*4</text>
</g>
<!-- node10&#45;&gt;node12 -->
<g id="edge13" class="edge">
<title>node10&#45;&gt;node12</title>
<path fill="none" stroke="black" d="M841.66,-220.94C899.14,-210.15 977,-195.52 1038.69,-183.93"/>
<polygon fill="black" stroke="black" points="1039.66,-187.31 1048.84,-182.03 1038.37,-180.44 1039.66,-187.31"/>
<text text-anchor="middle" x="1032.59" y="-189.98" font-family="Times,serif" font-size="14.00">*5</text>
</g>
<!-- node7&#45;&gt;node11 -->
<g id="edge17" class="edge">
<title>node7&#45;&gt;node11</title>
<path fill="none" stroke="black" d="M1553.59,-291.81C1553.2,-283.79 1553.52,-274.05 1554.4,-265.07"/>
<polygon fill="black" stroke="black" points="1557.88,-265.39 1555.68,-255.03 1550.94,-264.5 1557.88,-265.39"/>
<text text-anchor="middle" x="1561.77" y="-270.38" font-family="Times,serif" font-size="14.00">*0</text>
</g>
<!-- node7&#45;&gt;node11 -->
<g id="edge18" class="edge">
<title>node7&#45;&gt;node11</title>
<path fill="none" stroke="black" d="M1565.35,-291.81C1566.64,-283.79 1567.42,-274.05 1567.55,-265.07"/>
<polygon fill="black" stroke="black" points="1571.05,-264.98 1567.4,-255.03 1564.05,-265.08 1571.05,-264.98"/>
<text text-anchor="middle" x="1576.13" y="-269.33" font-family="Times,serif" font-size="14.00">*1</text>
</g>
<!-- c0 -->
<!-- c1 -->
<!-- c0&#45;&gt;c1 -->
<g id="edge24" class="edge">
<title>c0&#45;&gt;c1</title>
<path fill="none" stroke="red" d="M3175.39,-392C3186.61,-392 3244.74,-392 3270.36,-392"/>
<polygon fill="red" stroke="red" points="3270.56,-395.5 3280.56,-392 3270.56,-388.5 3270.56,-395.5"/>
<text text-anchor="middle" x="3228" y="-398.8" font-family="Times,serif" font-size="14.00">Control flow</text>
</g>
<!-- c2 -->
<!-- c3 -->
<!-- c2&#45;&gt;c3 -->
<g id="edge25" class="edge">
<title>c2&#45;&gt;c3</title>
<path fill="none" stroke="red" stroke-dasharray="5,2" d="M2968.58,-392C2985.55,-392 3101.71,-392 3139.58,-392"/>
<polygon fill="red" stroke="red" points="3139.67,-395.5 3149.67,-392 3139.67,-388.5 3139.67,-395.5"/>
<text text-anchor="middle" x="3059" y="-398.8" font-family="Times,serif" font-size="14.00">Control flow back edge</text>
</g>
<!-- d0 -->
<!-- d1 -->
<!-- d0&#45;&gt;d1 -->
<g id="edge26" class="edge">
<title>d0&#45;&gt;d1</title>
<path fill="none" stroke="black" d="M2857.36,-392C2866.91,-392 2910.81,-392 2932.42,-392"/>
<polygon fill="black" stroke="black" points="2932.65,-395.5 2942.65,-392 2932.65,-388.5 2932.65,-395.5"/>
<text text-anchor="middle" x="2900" y="-398.8" font-family="Times,serif" font-size="14.00">Data flow</text>
</g>
<!-- d2 -->
<!-- d3 -->
<!-- d2&#45;&gt;d3 -->
<g id="edge27" class="edge">
<title>d2&#45;&gt;d3</title>
<path fill="none" stroke="black" stroke-dasharray="1,5" d="M2731.31,-392C2741.96,-392 2796.96,-392 2821.58,-392"/>
<polygon fill="black" stroke="black" points="2821.65,-395.5 2831.65,-392 2821.65,-388.5 2821.65,-395.5"/>
<text text-anchor="middle" x="2781.5" y="-398.8" font-family="Times,serif" font-size="14.00">Declaration</text>
</g>
<!-- d4 -->
<!-- d5 -->
<!-- d4&#45;&gt;d5 -->
<g id="edge28" class="edge">
<title>d4&#45;&gt;d5</title>
<path fill="none" stroke="blue" d="M2588.6,-392C2601.22,-392 2667.38,-392 2695.18,-392"/>
<polygon fill="blue" stroke="blue" points="2695.34,-395.5 2705.34,-392 2695.34,-388.5 2695.34,-395.5"/>
<text text-anchor="middle" x="2647" y="-398.8" font-family="Times,serif" font-size="14.00">PHI Data flow</text>
</g>
<!-- d6 -->
<!-- d7 -->
<!-- d6&#45;&gt;d7 -->
<g id="edge29" class="edge">
<title>d6&#45;&gt;d7</title>
<path fill="none" stroke="green" d="M2451.5,-392C2463.44,-392 2525.8,-392 2552.43,-392"/>
<polygon fill="green" stroke="green" points="2552.45,-395.5 2562.45,-392 2552.45,-388.5 2552.45,-395.5"/>
<text text-anchor="middle" x="2507" y="-398.8" font-family="Times,serif" font-size="14.00">Memory flow</text>
</g>
</g>
</svg>
