<?xml version="1.0" encoding="UTF-8" standalone="no"?>
<!DOCTYPE svg PUBLIC "-//W3C//DTD SVG 1.1//EN"
 "http://www.w3.org/Graphics/SVG/1.1/DTD/svg11.dtd">
<!-- Generated by graphviz version 2.43.0 (0)
 -->
<!-- Title: %3 Pages: 1 -->
<svg width="3309pt" height="516pt"
 viewBox="0.00 0.00 3308.50 516.00" xmlns="http://www.w3.org/2000/svg" xmlns:xlink="http://www.w3.org/1999/xlink">
<g id="graph0" class="graph" transform="scale(1 1) rotate(0) translate(4 512)">
<title>%3</title>
<polygon fill="white" stroke="transparent" points="-4,4 -4,-512 3304.5,-512 3304.5,4 -4,4"/>
<g id="clust1" class="cluster">
<title>cluster_0</title>
<polygon fill="none" stroke="lightgray" points="275.5,-284 275.5,-409 2033.5,-409 2033.5,-284 275.5,-284"/>
</g>
<g id="clust2" class="cluster">
<title>cluster_1</title>
<polygon fill="none" stroke="lightgray" points="2063.5,-357 2063.5,-500 2431.5,-500 2431.5,-357 2063.5,-357"/>
</g>
<g id="clust3" class="cluster">
<title>cluster_000</title>
<polygon fill="none" stroke="black" points="2439.5,-455.2 2439.5,-497.8 3292.5,-497.8 3292.5,-455.2 2439.5,-455.2"/>
<text text-anchor="middle" x="2866" y="-482.6" font-family="Times,serif" font-size="14.00">Legend</text>
</g>
<!-- node0 -->
<g id="node1" class="node">
<title>node0</title>
<polygon fill="lightgrey" stroke="transparent" points="2423,-492 2072,-492 2072,-438 2423,-438 2423,-492"/>
<polygon fill="none" stroke="black" points="2072.5,-465 2072.5,-492 2423.5,-492 2423.5,-465 2072.5,-465"/>
<text text-anchor="start" x="2207.5" y="-474.8" font-family="Times,serif" font-size="14.00">#0 Method</text>
<polygon fill="yellow" stroke="transparent" points="2072.5,-438 2072.5,-465 2151.5,-465 2151.5,-438 2072.5,-438"/>
<polygon fill="none" stroke="black" points="2072.5,-438 2072.5,-465 2151.5,-465 2151.5,-438 2072.5,-438"/>
<text text-anchor="start" x="2078.5" y="-447.8" font-family="Times,serif" font-size="14.00">arg0 : int</text>
<polygon fill="yellow" stroke="transparent" points="2151.5,-438 2151.5,-465 2230.5,-465 2230.5,-438 2151.5,-438"/>
<polygon fill="none" stroke="black" points="2151.5,-438 2151.5,-465 2230.5,-465 2230.5,-438 2151.5,-438"/>
<text text-anchor="start" x="2157.5" y="-447.8" font-family="Times,serif" font-size="14.00">arg1 : int</text>
<polygon fill="yellow" stroke="transparent" points="2230.5,-438 2230.5,-465 2423.5,-465 2423.5,-438 2230.5,-438"/>
<polygon fill="none" stroke="black" points="2230.5,-438 2230.5,-465 2423.5,-465 2423.5,-438 2230.5,-438"/>
<text text-anchor="start" x="2236.5" y="-447.8" font-family="Times,serif" font-size="14.00">this : InvokeDynamicTest</text>
</g>
<!-- node13 -->
<g id="node2" class="node">
<title>node13</title>
<polygon fill="lightgrey" stroke="black" points="473,-109 0,-109 0,-73 473,-73 473,-109"/>
<text text-anchor="middle" x="236.5" y="-87.3" font-family="Times,serif" font-size="14.00">#13 Invoke dynamic makeConcatWithConstants : (int,int)String</text>
</g>
<!-- node0&#45;&gt;node13 -->
<g id="edge2" class="edge">
<title>node0:prj1&#45;&gt;node13</title>
<path fill="none" stroke="black" d="M2071.5,-451C2019.6,-451 249.05,-444.87 203.5,-420 186.62,-410.79 179.5,-403.23 179.5,-384 179.5,-384 179.5,-384 179.5,-163 179.5,-144.63 191.24,-128.31 204.07,-115.96"/>
<polygon fill="black" stroke="black" points="206.55,-118.44 211.66,-109.17 201.88,-113.23 206.55,-118.44"/>
<text text-anchor="middle" x="203.79" y="-123.85" font-family="Times,serif" font-size="14.00">*1</text>
</g>
<!-- node0&#45;&gt;node13 -->
<g id="edge3" class="edge">
<title>node0:prj2&#45;&gt;node13</title>
<path fill="none" stroke="black" d="M2190.5,-438C2190.5,-424.67 284.49,-411.97 271.5,-409 245.72,-403.12 217.5,-410.45 217.5,-384 217.5,-384 217.5,-384 217.5,-163 217.5,-148.1 221.45,-132.02 225.75,-118.93"/>
<polygon fill="black" stroke="black" points="229.17,-119.76 229.21,-109.16 222.58,-117.43 229.17,-119.76"/>
<text text-anchor="middle" x="231.14" y="-125.37" font-family="Times,serif" font-size="14.00">*2</text>
</g>
<!-- node0&#45;&gt;node13 -->
<g id="edge4" class="edge">
<title>node0&#45;&gt;node13</title>
<path fill="none" stroke="green" d="M2111.49,-437.91C2096.25,-430.53 2082.07,-421.08 2070.5,-409 2030.76,-367.5 2081.61,-320.82 2037.5,-284 1926.18,-191.09 880.31,-200.53 736.5,-182 592.52,-163.44 426.99,-131.54 327.14,-111.13"/>
<polygon fill="green" stroke="green" points="327.59,-107.65 317.09,-109.07 326.18,-114.51 327.59,-107.65"/>
</g>
<!-- node4 -->
<g id="node4" class="node">
<title>node4</title>
<polygon fill="lightgrey" stroke="black" points="1229,-401 1110,-401 1110,-365 1229,-365 1229,-401"/>
<text text-anchor="middle" x="1169.5" y="-379.3" font-family="Times,serif" font-size="14.00">#4 LabelNode</text>
</g>
<!-- node0&#45;&gt;node4 -->
<g id="edge6" class="edge">
<title>node0&#45;&gt;node4</title>
<path fill="none" stroke="red" d="M2071.9,-450.97C1830.12,-433.03 1405.72,-401.53 1239.28,-389.18"/>
<polygon fill="red" stroke="red" points="1239.4,-385.68 1229.17,-388.43 1238.88,-392.66 1239.4,-385.68"/>
</g>
<!-- node5 -->
<g id="node9" class="node">
<title>node5</title>
<polygon fill="lightgreen" stroke="black" points="2423.3,-375.54 2423.3,-390.46 2322.66,-401 2180.34,-401 2079.7,-390.46 2079.7,-375.54 2180.34,-365 2322.66,-365 2423.3,-375.54"/>
<text text-anchor="middle" x="2251.5" y="-379.3" font-family="Times,serif" font-size="14.00">#5 MethodType : (int,int)String</text>
</g>
<!-- node0&#45;&gt;node5 -->
<g id="edge18" class="edge">
<title>node0&#45;&gt;node5</title>
<path fill="none" stroke="black" stroke-dasharray="1,5" d="M2248.81,-437.81C2249.23,-429.35 2249.7,-419.95 2250.13,-411.4"/>
<polygon fill="black" stroke="black" points="2253.64,-411.34 2250.64,-401.17 2246.65,-410.99 2253.64,-411.34"/>
</g>
<!-- node14 -->
<g id="node12" class="node">
<title>node14</title>
<polygon fill="lightgrey" stroke="black" points="335.5,-36 137.5,-36 137.5,0 335.5,0 335.5,-36"/>
<text text-anchor="middle" x="236.5" y="-14.3" font-family="Times,serif" font-size="14.00">#14 ReturnValue : String</text>
</g>
<!-- node13&#45;&gt;node14 -->
<g id="edge21" class="edge">
<title>node13&#45;&gt;node14</title>
<path fill="none" stroke="black" d="M224.74,-72.81C223.06,-64.79 222.6,-55.05 223.34,-46.07"/>
<polygon fill="black" stroke="black" points="226.83,-46.42 224.78,-36.03 219.9,-45.43 226.83,-46.42"/>
<text text-anchor="middle" x="230.58" y="-51.47" font-family="Times,serif" font-size="14.00">*0</text>
</g>
<!-- node13&#45;&gt;node14 -->
<g id="edge22" class="edge">
<title>node13&#45;&gt;node14</title>
<path fill="none" stroke="red" d="M236.5,-72.81C236.5,-64.79 236.5,-55.05 236.5,-46.07"/>
<polygon fill="red" stroke="red" points="240,-46.03 236.5,-36.03 233,-46.03 240,-46.03"/>
</g>
<!-- node13&#45;&gt;node14 -->
<g id="edge23" class="edge">
<title>node13&#45;&gt;node14</title>
<path fill="none" stroke="green" d="M248.26,-72.81C249.94,-64.79 250.4,-55.05 249.66,-46.07"/>
<polygon fill="green" stroke="green" points="253.1,-45.43 248.22,-36.03 246.17,-46.42 253.1,-45.43"/>
</g>
<!-- node12 -->
<g id="node3" class="node">
<title>node12</title>
<polygon fill="lightgrey" stroke="black" points="1594,-182 745,-182 745,-146 1594,-146 1594,-182"/>
<text text-anchor="middle" x="1169.5" y="-160.3" font-family="Times,serif" font-size="14.00">#12 Invoke static makeConcatWithConstants : (MethodHandles$Lookup,String,MethodType,String,Object[])CallSite</text>
</g>
<!-- node12&#45;&gt;node13 -->
<g id="edge1" class="edge">
<title>node12&#45;&gt;node13</title>
<path fill="none" stroke="black" d="M946.02,-145.99C802.29,-135.06 615.84,-120.87 470.15,-109.78"/>
<polygon fill="black" stroke="black" points="470.41,-106.29 460.17,-109.02 469.88,-113.27 470.41,-106.29"/>
<text text-anchor="middle" x="478.89" y="-98.27" font-family="Times,serif" font-size="14.00">*0</text>
</g>
<!-- node4&#45;&gt;node13 -->
<g id="edge5" class="edge">
<title>node4&#45;&gt;node13</title>
<path fill="none" stroke="red" d="M1109.7,-380.67C921.79,-376.16 351.14,-359.96 274.5,-328 264.04,-323.64 255.5,-322.33 255.5,-311 255.5,-311 255.5,-311 255.5,-163 255.5,-148.1 251.55,-132.02 247.25,-118.93"/>
<polygon fill="red" stroke="red" points="250.42,-117.43 243.79,-109.16 243.83,-119.76 250.42,-117.43"/>
</g>
<!-- node7 -->
<g id="node5" class="node">
<title>node7</title>
<polygon fill="lightgreen" stroke="black" points="599.16,-302.54 599.16,-317.46 506.81,-328 376.19,-328 283.84,-317.46 283.84,-302.54 376.19,-292 506.81,-292 599.16,-302.54"/>
<text text-anchor="middle" x="441.5" y="-306.3" font-family="Times,serif" font-size="14.00">#7 Class InvokeDynamicTest</text>
</g>
<!-- node4&#45;&gt;node7 -->
<g id="edge7" class="edge">
<title>node4&#45;&gt;node7</title>
<path fill="none" stroke="black" stroke-dasharray="1,5" d="M1109.6,-376.37C1006.85,-366.68 790.39,-346.15 607.5,-328 593.45,-326.61 578.72,-325.13 564.1,-323.64"/>
<polygon fill="black" stroke="black" points="564.3,-320.15 554,-322.62 563.6,-327.11 564.3,-320.15"/>
</g>
<!-- node6 -->
<g id="node7" class="node">
<title>node6</title>
<polygon fill="lightgreen" stroke="black" points="944.33,-302.54 944.33,-317.46 848.36,-328 712.64,-328 616.67,-317.46 616.67,-302.54 712.64,-292 848.36,-292 944.33,-302.54"/>
<text text-anchor="middle" x="780.5" y="-306.3" font-family="Times,serif" font-size="14.00">#6 Class StringConcatFactory</text>
</g>
<!-- node4&#45;&gt;node6 -->
<g id="edge20" class="edge">
<title>node4&#45;&gt;node6</title>
<path fill="none" stroke="black" stroke-dasharray="1,5" d="M1110,-371.14C1047.29,-359.69 947.63,-341.51 874.32,-328.12"/>
<polygon fill="black" stroke="black" points="874.63,-324.62 864.16,-326.27 873.37,-331.51 874.63,-324.62"/>
</g>
<!-- node9 -->
<g id="node8" class="node">
<title>node9</title>
<polygon fill="lightgreen" stroke="black" points="1376.15,-302.54 1376.15,-317.46 1255.1,-328 1083.9,-328 962.85,-317.46 962.85,-302.54 1083.9,-292 1255.1,-292 1376.15,-302.54"/>
<text text-anchor="middle" x="1169.5" y="-306.3" font-family="Times,serif" font-size="14.00">#9 String : makeConcatWithConstants</text>
</g>
<!-- node4&#45;&gt;node9 -->
<g id="edge19" class="edge">
<title>node4&#45;&gt;node9</title>
<path fill="none" stroke="black" stroke-dasharray="1,5" d="M1169.5,-364.81C1169.5,-356.79 1169.5,-347.05 1169.5,-338.07"/>
<polygon fill="black" stroke="black" points="1173,-338.03 1169.5,-328.03 1166,-338.03 1173,-338.03"/>
</g>
<!-- node8 -->
<g id="node10" class="node">
<title>node8</title>
<polygon fill="lightgreen" stroke="black" points="1700.72,-302.54 1700.72,-317.46 1610.97,-328 1484.03,-328 1394.28,-317.46 1394.28,-302.54 1484.03,-292 1610.97,-292 1700.72,-302.54"/>
<text text-anchor="middle" x="1547.5" y="-306.3" font-family="Times,serif" font-size="14.00">#8 String : hello  world </text>
</g>
<!-- node4&#45;&gt;node8 -->
<g id="edge17" class="edge">
<title>node4&#45;&gt;node8</title>
<path fill="none" stroke="black" stroke-dasharray="1,5" d="M1229.4,-370.75C1290.61,-359.25 1386.43,-341.25 1456.92,-328.01"/>
<polygon fill="black" stroke="black" points="1457.94,-331.38 1467.13,-326.1 1456.65,-324.5 1457.94,-331.38"/>
</g>
<!-- node10 -->
<g id="node11" class="node">
<title>node10</title>
<polygon fill="orange" stroke="black" points="2025.72,-302.54 2025.72,-317.46 1935.97,-328 1809.03,-328 1719.28,-317.46 1719.28,-302.54 1809.03,-292 1935.97,-292 2025.72,-302.54"/>
<text text-anchor="middle" x="1872.5" y="-306.3" font-family="Times,serif" font-size="14.00">#10 VarArgsArray : Object[]</text>
</g>
<!-- node4&#45;&gt;node10 -->
<g id="edge16" class="edge">
<title>node4&#45;&gt;node10</title>
<path fill="none" stroke="black" stroke-dasharray="1,5" d="M1229.04,-376.13C1328.54,-366.3 1534.93,-345.83 1709.5,-328 1723.41,-326.58 1737.99,-325.08 1752.47,-323.58"/>
<polygon fill="black" stroke="black" points="1752.88,-327.05 1762.47,-322.54 1752.16,-320.09 1752.88,-327.05"/>
</g>
<!-- node11 -->
<g id="node6" class="node">
<title>node11</title>
<polygon fill="lightgrey" stroke="black" points="680,-255 283,-255 283,-219 680,-219 680,-255"/>
<text text-anchor="middle" x="481.5" y="-233.3" font-family="Times,serif" font-size="14.00">#11 Invoke static in : (Class)MethodHandles$Lookup</text>
</g>
<!-- node7&#45;&gt;node11 -->
<g id="edge8" class="edge">
<title>node7&#45;&gt;node11</title>
<path fill="none" stroke="black" d="M445.3,-291.81C449.19,-283.35 454.82,-272.98 460.56,-263.61"/>
<polygon fill="black" stroke="black" points="463.61,-265.34 466.04,-255.03 457.71,-261.57 463.61,-265.34"/>
<text text-anchor="middle" x="463.41" y="-271.15" font-family="Times,serif" font-size="14.00">*0</text>
</g>
<!-- node7&#45;&gt;node11 -->
<g id="edge9" class="edge">
<title>node7&#45;&gt;node11</title>
<path fill="none" stroke="black" d="M457.06,-291.81C462.6,-283.53 468.52,-273.41 473.28,-264.19"/>
<polygon fill="black" stroke="black" points="476.52,-265.55 477.77,-255.03 470.23,-262.47 476.52,-265.55"/>
<text text-anchor="middle" x="477.39" y="-271.33" font-family="Times,serif" font-size="14.00">*1</text>
</g>
<!-- node11&#45;&gt;node12 -->
<g id="edge11" class="edge">
<title>node11&#45;&gt;node12</title>
<path fill="none" stroke="black" d="M646.29,-218.99C751.33,-208.15 887.3,-194.12 994.3,-183.08"/>
<polygon fill="black" stroke="black" points="994.97,-186.53 1004.56,-182.02 994.26,-179.57 994.97,-186.53"/>
<text text-anchor="middle" x="987.4" y="-188.59" font-family="Times,serif" font-size="14.00">*1</text>
</g>
<!-- node6&#45;&gt;node12 -->
<g id="edge10" class="edge">
<title>node6&#45;&gt;node12</title>
<path fill="none" stroke="black" d="M826.65,-291.92C898.45,-265.34 1036.64,-214.18 1113.85,-185.6"/>
<polygon fill="black" stroke="black" points="1115.25,-188.82 1123.41,-182.06 1112.82,-182.25 1115.25,-188.82"/>
<text text-anchor="middle" x="1109.34" y="-192.58" font-family="Times,serif" font-size="14.00">*0</text>
</g>
<!-- node9&#45;&gt;node12 -->
<g id="edge12" class="edge">
<title>node9&#45;&gt;node12</title>
<path fill="none" stroke="black" d="M1169.5,-291.92C1169.5,-267.34 1169.5,-221.75 1169.5,-192.43"/>
<polygon fill="black" stroke="black" points="1173,-192.06 1169.5,-182.06 1166,-192.06 1173,-192.06"/>
<text text-anchor="middle" x="1177.95" y="-196.49" font-family="Times,serif" font-size="14.00">*2</text>
</g>
<!-- node5&#45;&gt;node12 -->
<g id="edge13" class="edge">
<title>node5&#45;&gt;node12</title>
<path fill="none" stroke="black" d="M2241.69,-364.84C2218.85,-326.8 2157.95,-235.92 2078.5,-200 2033.5,-179.66 1815.48,-170.84 1604.26,-167.14"/>
<polygon fill="black" stroke="black" points="1604.26,-163.64 1594.2,-166.96 1604.14,-170.63 1604.26,-163.64"/>
<text text-anchor="middle" x="1612.47" y="-155.12" font-family="Times,serif" font-size="14.00">*3</text>
</g>
<!-- node8&#45;&gt;node12 -->
<g id="edge14" class="edge">
<title>node8&#45;&gt;node12</title>
<path fill="none" stroke="black" d="M1502.65,-291.92C1433.03,-265.39 1299.15,-214.39 1224.04,-185.78"/>
<polygon fill="black" stroke="black" points="1224.88,-182.35 1214.29,-182.06 1222.39,-188.89 1224.88,-182.35"/>
<text text-anchor="middle" x="1234.24" y="-176.92" font-family="Times,serif" font-size="14.00">*4</text>
</g>
<!-- node10&#45;&gt;node12 -->
<g id="edge15" class="edge">
<title>node10&#45;&gt;node12</title>
<path fill="none" stroke="black" d="M1796.6,-293.45C1666.93,-266.89 1403.15,-212.86 1262.58,-184.07"/>
<polygon fill="black" stroke="black" points="1263.17,-180.61 1252.67,-182.04 1261.77,-187.47 1263.17,-180.61"/>
<text text-anchor="middle" x="1272.13" y="-173.69" font-family="Times,serif" font-size="14.00">*5</text>
</g>
<!-- c0 -->
<!-- c1 -->
<!-- c0&#45;&gt;c1 -->
<g id="edge24" class="edge">
<title>c0&#45;&gt;c1</title>
<path fill="none" stroke="red" d="M3175.39,-465C3186.61,-465 3244.74,-465 3270.36,-465"/>
<polygon fill="red" stroke="red" points="3270.56,-468.5 3280.56,-465 3270.56,-461.5 3270.56,-468.5"/>
<text text-anchor="middle" x="3228" y="-471.8" font-family="Times,serif" font-size="14.00">Control flow</text>
</g>
<!-- c2 -->
<!-- c3 -->
<!-- c2&#45;&gt;c3 -->
<g id="edge25" class="edge">
<title>c2&#45;&gt;c3</title>
<path fill="none" stroke="red" stroke-dasharray="5,2" d="M2968.58,-465C2985.55,-465 3101.71,-465 3139.58,-465"/>
<polygon fill="red" stroke="red" points="3139.67,-468.5 3149.67,-465 3139.67,-461.5 3139.67,-468.5"/>
<text text-anchor="middle" x="3059" y="-471.8" font-family="Times,serif" font-size="14.00">Control flow back edge</text>
</g>
<!-- d0 -->
<!-- d1 -->
<!-- d0&#45;&gt;d1 -->
<g id="edge26" class="edge">
<title>d0&#45;&gt;d1</title>
<path fill="none" stroke="black" d="M2857.36,-465C2866.91,-465 2910.81,-465 2932.42,-465"/>
<polygon fill="black" stroke="black" points="2932.65,-468.5 2942.65,-465 2932.65,-461.5 2932.65,-468.5"/>
<text text-anchor="middle" x="2900" y="-471.8" font-family="Times,serif" font-size="14.00">Data flow</text>
</g>
<!-- d2 -->
<!-- d3 -->
<!-- d2&#45;&gt;d3 -->
<g id="edge27" class="edge">
<title>d2&#45;&gt;d3</title>
<path fill="none" stroke="black" stroke-dasharray="1,5" d="M2731.31,-465C2741.96,-465 2796.96,-465 2821.58,-465"/>
<polygon fill="black" stroke="black" points="2821.65,-468.5 2831.65,-465 2821.65,-461.5 2821.65,-468.5"/>
<text text-anchor="middle" x="2781.5" y="-471.8" font-family="Times,serif" font-size="14.00">Declaration</text>
</g>
<!-- d4 -->
<!-- d5 -->
<!-- d4&#45;&gt;d5 -->
<g id="edge28" class="edge">
<title>d4&#45;&gt;d5</title>
<path fill="none" stroke="blue" d="M2588.6,-465C2601.22,-465 2667.38,-465 2695.18,-465"/>
<polygon fill="blue" stroke="blue" points="2695.34,-468.5 2705.34,-465 2695.34,-461.5 2695.34,-468.5"/>
<text text-anchor="middle" x="2647" y="-471.8" font-family="Times,serif" font-size="14.00">PHI Data flow</text>
</g>
<!-- d6 -->
<!-- d7 -->
<!-- d6&#45;&gt;d7 -->
<g id="edge29" class="edge">
<title>d6&#45;&gt;d7</title>
<path fill="none" stroke="green" d="M2451.5,-465C2463.44,-465 2525.8,-465 2552.43,-465"/>
<polygon fill="green" stroke="green" points="2552.45,-468.5 2562.45,-465 2552.45,-461.5 2552.45,-468.5"/>
<text text-anchor="middle" x="2507" y="-471.8" font-family="Times,serif" font-size="14.00">Memory flow</text>
</g>
</g>
</svg>
