<?xml version="1.0" encoding="UTF-8" standalone="no"?>
<!DOCTYPE svg PUBLIC "-//W3C//DTD SVG 1.1//EN"
 "http://www.w3.org/Graphics/SVG/1.1/DTD/svg11.dtd">
<!-- Generated by graphviz version 2.43.0 (0)
 -->
<!-- Title: %3 Pages: 1 -->
<svg width="2426pt" height="516pt"
 viewBox="0.00 0.00 2425.50 516.00" xmlns="http://www.w3.org/2000/svg" xmlns:xlink="http://www.w3.org/1999/xlink">
<g id="graph0" class="graph" transform="scale(1 1) rotate(0) translate(4 512)">
<title>%3</title>
<polygon fill="white" stroke="transparent" points="-4,4 -4,-512 2421.5,-512 2421.5,4 -4,4"/>
<g id="clust1" class="cluster">
<title>cluster_0</title>
<polygon fill="none" stroke="lightgray" points="384,-284 384,-409 2142,-409 2142,-284 384,-284"/>
</g>
<g id="clust2" class="cluster">
<title>cluster_1</title>
<polygon fill="none" stroke="lightgray" points="8,-357 8,-500 376,-500 376,-357 8,-357"/>
</g>
<g id="clust3" class="cluster">
<title>cluster_000</title>
<polygon fill="none" stroke="black" points="836,-455.2 836,-497.8 1689,-497.8 1689,-455.2 836,-455.2"/>
<text text-anchor="middle" x="1262.5" y="-482.6" font-family="Times,serif" font-size="14.00">Legend</text>
</g>
<!-- node0 -->
<g id="node1" class="node">
<title>node0</title>
<polygon fill="lightgrey" stroke="transparent" points="367.5,-492 16.5,-492 16.5,-438 367.5,-438 367.5,-492"/>
<polygon fill="none" stroke="black" points="17,-465 17,-492 368,-492 368,-465 17,-465"/>
<text text-anchor="start" x="152" y="-474.8" font-family="Times,serif" font-size="14.00">#0 Method</text>
<polygon fill="yellow" stroke="transparent" points="17,-438 17,-465 96,-465 96,-438 17,-438"/>
<polygon fill="none" stroke="black" points="17,-438 17,-465 96,-465 96,-438 17,-438"/>
<text text-anchor="start" x="23" y="-447.8" font-family="Times,serif" font-size="14.00">arg0 : int</text>
<polygon fill="yellow" stroke="transparent" points="96,-438 96,-465 175,-465 175,-438 96,-438"/>
<polygon fill="none" stroke="black" points="96,-438 96,-465 175,-465 175,-438 96,-438"/>
<text text-anchor="start" x="102" y="-447.8" font-family="Times,serif" font-size="14.00">arg1 : int</text>
<polygon fill="yellow" stroke="transparent" points="175,-438 175,-465 368,-465 368,-438 175,-438"/>
<polygon fill="none" stroke="black" points="175,-438 175,-465 368,-465 368,-438 175,-438"/>
<text text-anchor="start" x="181" y="-447.8" font-family="Times,serif" font-size="14.00">this : InvokeDynamicTest</text>
</g>
<!-- node4 -->
<g id="node2" class="node">
<title>node4</title>
<polygon fill="lightgrey" stroke="black" points="1662.5,-401 1543.5,-401 1543.5,-365 1662.5,-365 1662.5,-401"/>
<text text-anchor="middle" x="1603" y="-379.3" font-family="Times,serif" font-size="14.00">#4 LabelNode</text>
</g>
<!-- node0&#45;&gt;node4 -->
<g id="edge1" class="edge">
<title>node0&#45;&gt;node4</title>
<path fill="none" stroke="red" d="M367.85,-454.03C680.76,-436.29 1321.26,-399.97 1533.19,-387.96"/>
<polygon fill="red" stroke="red" points="1533.46,-391.45 1543.25,-387.39 1533.07,-384.46 1533.46,-391.45"/>
</g>
<!-- node5 -->
<g id="node8" class="node">
<title>node5</title>
<polygon fill="lightgreen" stroke="black" points="365.8,-375.54 365.8,-390.46 265.16,-401 122.84,-401 22.2,-390.46 22.2,-375.54 122.84,-365 265.16,-365 365.8,-375.54"/>
<text text-anchor="middle" x="194" y="-379.3" font-family="Times,serif" font-size="14.00">#5 MethodType : (int,int)String</text>
</g>
<!-- node0&#45;&gt;node5 -->
<g id="edge10" class="edge">
<title>node0&#45;&gt;node5</title>
<path fill="none" stroke="black" stroke-dasharray="1,5" d="M192.65,-437.81C192.87,-429.35 193.1,-419.95 193.31,-411.4"/>
<polygon fill="black" stroke="black" points="196.82,-411.26 193.57,-401.17 189.82,-411.08 196.82,-411.26"/>
</g>
<!-- node13 -->
<g id="node11" class="node">
<title>node13</title>
<polygon fill="lightgrey" stroke="black" points="2417.5,-109 1944.5,-109 1944.5,-73 2417.5,-73 2417.5,-109"/>
<text text-anchor="middle" x="2181" y="-87.3" font-family="Times,serif" font-size="14.00">#13 Invoke dynamic makeConcatWithConstants : (int,int)String</text>
</g>
<!-- node0&#45;&gt;node13 -->
<g id="edge17" class="edge">
<title>node0:prj2&#45;&gt;node13</title>
<path fill="none" stroke="black" d="M56,-438C56,-408.97 2117.69,-415.44 2146,-409 2171.79,-403.13 2200,-410.45 2200,-384 2200,-384 2200,-384 2200,-163 2200,-148.1 2196.05,-132.02 2191.75,-118.93"/>
<polygon fill="black" stroke="black" points="2194.92,-117.43 2188.29,-109.16 2188.33,-119.76 2194.92,-117.43"/>
<text text-anchor="middle" x="2202.3" y="-119.74" font-family="Times,serif" font-size="14.00">*1</text>
</g>
<!-- node0&#45;&gt;node13 -->
<g id="edge18" class="edge">
<title>node0:prj1&#45;&gt;node13</title>
<path fill="none" stroke="black" d="M135,-438C135,-409.5 2159.28,-415.64 2187,-409 2211.55,-403.12 2238,-409.24 2238,-384 2238,-384 2238,-384 2238,-163 2238,-144.63 2226.26,-128.31 2213.43,-115.96"/>
<polygon fill="black" stroke="black" points="2215.62,-113.23 2205.84,-109.17 2210.95,-118.44 2215.62,-113.23"/>
<text text-anchor="middle" x="2224.98" y="-111.25" font-family="Times,serif" font-size="14.00">*2</text>
</g>
<!-- node0&#45;&gt;node13 -->
<g id="edge19" class="edge">
<title>node0&#45;&gt;node13</title>
<path fill="none" stroke="green" d="M367.52,-455.93C496.1,-450.25 674.86,-442.83 832,-438 870.71,-436.81 2193.97,-430.78 2226,-409 2300.14,-358.58 2266.73,-190.81 2252,-146 2247.8,-133.22 2238.28,-122.9 2227.53,-114.83"/>
<polygon fill="green" stroke="green" points="2229.37,-111.85 2219.13,-109.1 2225.42,-117.63 2229.37,-111.85"/>
</g>
<!-- node9 -->
<g id="node3" class="node">
<title>node9</title>
<polygon fill="lightgreen" stroke="black" points="1032.22,-302.54 1032.22,-317.46 942.47,-328 815.53,-328 725.78,-317.46 725.78,-302.54 815.53,-292 942.47,-292 1032.22,-302.54"/>
<text text-anchor="middle" x="879" y="-306.3" font-family="Times,serif" font-size="14.00">#9 String : hello  world </text>
</g>
<!-- node4&#45;&gt;node9 -->
<g id="edge2" class="edge">
<title>node4&#45;&gt;node9</title>
<path fill="none" stroke="black" stroke-dasharray="1,5" d="M1543.1,-376.42C1440.34,-366.8 1223.86,-346.38 1041,-328 1027.41,-326.63 1013.19,-325.18 999.05,-323.72"/>
<polygon fill="black" stroke="black" points="999.09,-320.2 988.79,-322.65 998.37,-327.17 999.09,-320.2"/>
</g>
<!-- node6 -->
<g id="node5" class="node">
<title>node6</title>
<polygon fill="lightgreen" stroke="black" points="1377.83,-302.54 1377.83,-317.46 1281.86,-328 1146.14,-328 1050.17,-317.46 1050.17,-302.54 1146.14,-292 1281.86,-292 1377.83,-302.54"/>
<text text-anchor="middle" x="1214" y="-306.3" font-family="Times,serif" font-size="14.00">#6 Class StringConcatFactory</text>
</g>
<!-- node4&#45;&gt;node6 -->
<g id="edge15" class="edge">
<title>node4&#45;&gt;node6</title>
<path fill="none" stroke="black" stroke-dasharray="1,5" d="M1543.5,-371.14C1480.79,-359.69 1381.13,-341.51 1307.82,-328.12"/>
<polygon fill="black" stroke="black" points="1308.13,-324.62 1297.66,-326.27 1306.87,-331.51 1308.13,-324.62"/>
</g>
<!-- node8 -->
<g id="node7" class="node">
<title>node8</title>
<polygon fill="lightgreen" stroke="black" points="1809.65,-302.54 1809.65,-317.46 1688.6,-328 1517.4,-328 1396.35,-317.46 1396.35,-302.54 1517.4,-292 1688.6,-292 1809.65,-302.54"/>
<text text-anchor="middle" x="1603" y="-306.3" font-family="Times,serif" font-size="14.00">#8 String : makeConcatWithConstants</text>
</g>
<!-- node4&#45;&gt;node8 -->
<g id="edge11" class="edge">
<title>node4&#45;&gt;node8</title>
<path fill="none" stroke="black" stroke-dasharray="1,5" d="M1603,-364.81C1603,-356.79 1603,-347.05 1603,-338.07"/>
<polygon fill="black" stroke="black" points="1606.5,-338.03 1603,-328.03 1599.5,-338.03 1606.5,-338.03"/>
</g>
<!-- node10 -->
<g id="node9" class="node">
<title>node10</title>
<polygon fill="orange" stroke="black" points="2134.22,-302.54 2134.22,-317.46 2044.47,-328 1917.53,-328 1827.78,-317.46 1827.78,-302.54 1917.53,-292 2044.47,-292 2134.22,-302.54"/>
<text text-anchor="middle" x="1981" y="-306.3" font-family="Times,serif" font-size="14.00">#10 VarArgsArray : Object[]</text>
</g>
<!-- node4&#45;&gt;node10 -->
<g id="edge9" class="edge">
<title>node4&#45;&gt;node10</title>
<path fill="none" stroke="black" stroke-dasharray="1,5" d="M1662.9,-370.75C1724.11,-359.25 1819.93,-341.25 1890.42,-328.01"/>
<polygon fill="black" stroke="black" points="1891.44,-331.38 1900.63,-326.1 1890.15,-324.5 1891.44,-331.38"/>
</g>
<!-- node7 -->
<g id="node10" class="node">
<title>node7</title>
<polygon fill="lightgreen" stroke="black" points="707.66,-302.54 707.66,-317.46 615.31,-328 484.69,-328 392.34,-317.46 392.34,-302.54 484.69,-292 615.31,-292 707.66,-302.54"/>
<text text-anchor="middle" x="550" y="-306.3" font-family="Times,serif" font-size="14.00">#7 Class InvokeDynamicTest</text>
</g>
<!-- node4&#45;&gt;node7 -->
<g id="edge14" class="edge">
<title>node4&#45;&gt;node7</title>
<path fill="none" stroke="black" stroke-dasharray="1,5" d="M1543.31,-379.2C1400.46,-372.32 1027.65,-353.27 717,-328 701.99,-326.78 686.23,-325.36 670.64,-323.87"/>
<polygon fill="black" stroke="black" points="670.72,-320.36 660.43,-322.88 670.05,-327.33 670.72,-320.36"/>
</g>
<!-- node4&#45;&gt;node13 -->
<g id="edge20" class="edge">
<title>node4&#45;&gt;node13</title>
<path fill="none" stroke="red" d="M1662.56,-380.59C1806.59,-376.37 2162,-360.92 2162,-311 2162,-311 2162,-311 2162,-163 2162,-148.1 2165.95,-132.02 2170.25,-118.93"/>
<polygon fill="red" stroke="red" points="2173.67,-119.76 2173.71,-109.16 2167.08,-117.43 2173.67,-119.76"/>
</g>
<!-- node12 -->
<g id="node4" class="node">
<title>node12</title>
<polygon fill="lightgrey" stroke="black" points="1638.5,-182 789.5,-182 789.5,-146 1638.5,-146 1638.5,-182"/>
<text text-anchor="middle" x="1214" y="-160.3" font-family="Times,serif" font-size="14.00">#12 Invoke static makeConcatWithConstants : (MethodHandles$Lookup,String,MethodType,String,Object[])CallSite</text>
</g>
<!-- node9&#45;&gt;node12 -->
<g id="edge7" class="edge">
<title>node9&#45;&gt;node12</title>
<path fill="none" stroke="black" d="M918.74,-291.92C980.2,-265.5 1098.13,-214.81 1164.85,-186.13"/>
<polygon fill="black" stroke="black" points="1166.5,-189.23 1174.31,-182.06 1163.74,-182.8 1166.5,-189.23"/>
<text text-anchor="middle" x="1160.99" y="-193.29" font-family="Times,serif" font-size="14.00">*4</text>
</g>
<!-- node12&#45;&gt;node13 -->
<g id="edge16" class="edge">
<title>node12&#45;&gt;node13</title>
<path fill="none" stroke="black" d="M1445.62,-145.99C1594.6,-135.06 1787.83,-120.87 1938.84,-109.78"/>
<polygon fill="black" stroke="black" points="1939.46,-113.24 1949.18,-109.02 1938.95,-106.26 1939.46,-113.24"/>
<text text-anchor="middle" x="1931.72" y="-115.08" font-family="Times,serif" font-size="14.00">*0</text>
</g>
<!-- node6&#45;&gt;node12 -->
<g id="edge3" class="edge">
<title>node6&#45;&gt;node12</title>
<path fill="none" stroke="black" d="M1214,-291.92C1214,-267.34 1214,-221.75 1214,-192.43"/>
<polygon fill="black" stroke="black" points="1217.5,-192.06 1214,-182.06 1210.5,-192.06 1217.5,-192.06"/>
<text text-anchor="middle" x="1222.45" y="-196.49" font-family="Times,serif" font-size="14.00">*0</text>
</g>
<!-- node11 -->
<g id="node6" class="node">
<title>node11</title>
<polygon fill="lightgrey" stroke="black" points="748.5,-255 351.5,-255 351.5,-219 748.5,-219 748.5,-255"/>
<text text-anchor="middle" x="550" y="-233.3" font-family="Times,serif" font-size="14.00">#11 Invoke static in : (Class)MethodHandles$Lookup</text>
</g>
<!-- node11&#45;&gt;node12 -->
<g id="edge4" class="edge">
<title>node11&#45;&gt;node12</title>
<path fill="none" stroke="black" d="M709.04,-218.99C810.32,-208.16 941.38,-194.15 1044.6,-183.11"/>
<polygon fill="black" stroke="black" points="1045.24,-186.56 1054.82,-182.02 1044.5,-179.6 1045.24,-186.56"/>
<text text-anchor="middle" x="1037.69" y="-188.65" font-family="Times,serif" font-size="14.00">*1</text>
</g>
<!-- node8&#45;&gt;node12 -->
<g id="edge5" class="edge">
<title>node8&#45;&gt;node12</title>
<path fill="none" stroke="black" d="M1556.85,-291.92C1485.05,-265.34 1346.86,-214.18 1269.65,-185.6"/>
<polygon fill="black" stroke="black" points="1270.68,-182.25 1260.09,-182.06 1268.25,-188.82 1270.68,-182.25"/>
<text text-anchor="middle" x="1280.02" y="-176.73" font-family="Times,serif" font-size="14.00">*2</text>
</g>
<!-- node5&#45;&gt;node12 -->
<g id="edge6" class="edge">
<title>node5&#45;&gt;node12</title>
<path fill="none" stroke="black" d="M203.39,-364.94C223.62,-330.14 275.03,-251.5 343,-219 384.48,-199.16 582.46,-186 779.2,-177.64"/>
<polygon fill="black" stroke="black" points="779.61,-181.12 789.46,-177.2 779.32,-174.13 779.61,-181.12"/>
<text text-anchor="middle" x="771.7" y="-182.71" font-family="Times,serif" font-size="14.00">*3</text>
</g>
<!-- node10&#45;&gt;node12 -->
<g id="edge8" class="edge">
<title>node10&#45;&gt;node12</title>
<path fill="none" stroke="black" d="M1900.73,-293.93C1759.86,-267.48 1468.51,-212.78 1314.5,-183.87"/>
<polygon fill="black" stroke="black" points="1315.03,-180.41 1304.55,-182 1313.73,-187.29 1315.03,-180.41"/>
<text text-anchor="middle" x="1323.93" y="-173.34" font-family="Times,serif" font-size="14.00">*5</text>
</g>
<!-- node7&#45;&gt;node11 -->
<g id="edge12" class="edge">
<title>node7&#45;&gt;node11</title>
<path fill="none" stroke="black" d="M544.12,-291.81C543.28,-283.79 543.05,-274.05 543.42,-265.07"/>
<polygon fill="black" stroke="black" points="546.92,-265.25 544.14,-255.03 539.94,-264.75 546.92,-265.25"/>
<text text-anchor="middle" x="551.28" y="-270.01" font-family="Times,serif" font-size="14.00">*0</text>
</g>
<!-- node7&#45;&gt;node11 -->
<g id="edge13" class="edge">
<title>node7&#45;&gt;node11</title>
<path fill="none" stroke="black" d="M555.88,-291.81C556.72,-283.79 556.95,-274.05 556.58,-265.07"/>
<polygon fill="black" stroke="black" points="560.06,-264.75 555.86,-255.03 553.08,-265.25 560.06,-264.75"/>
<text text-anchor="middle" x="565.58" y="-268.81" font-family="Times,serif" font-size="14.00">*1</text>
</g>
<!-- node14 -->
<g id="node12" class="node">
<title>node14</title>
<polygon fill="lightgrey" stroke="black" points="2280,-36 2082,-36 2082,0 2280,0 2280,-36"/>
<text text-anchor="middle" x="2181" y="-14.3" font-family="Times,serif" font-size="14.00">#14 ReturnValue : String</text>
</g>
<!-- node13&#45;&gt;node14 -->
<g id="edge21" class="edge">
<title>node13&#45;&gt;node14</title>
<path fill="none" stroke="black" d="M2169.24,-72.81C2167.56,-64.79 2167.1,-55.05 2167.84,-46.07"/>
<polygon fill="black" stroke="black" points="2171.33,-46.42 2169.28,-36.03 2164.4,-45.43 2171.33,-46.42"/>
<text text-anchor="middle" x="2175.08" y="-51.47" font-family="Times,serif" font-size="14.00">*0</text>
</g>
<!-- node13&#45;&gt;node14 -->
<g id="edge22" class="edge">
<title>node13&#45;&gt;node14</title>
<path fill="none" stroke="red" d="M2181,-72.81C2181,-64.79 2181,-55.05 2181,-46.07"/>
<polygon fill="red" stroke="red" points="2184.5,-46.03 2181,-36.03 2177.5,-46.03 2184.5,-46.03"/>
</g>
<!-- node13&#45;&gt;node14 -->
<g id="edge23" class="edge">
<title>node13&#45;&gt;node14</title>
<path fill="none" stroke="green" d="M2192.76,-72.81C2194.44,-64.79 2194.9,-55.05 2194.16,-46.07"/>
<polygon fill="green" stroke="green" points="2197.6,-45.43 2192.72,-36.03 2190.67,-46.42 2197.6,-45.43"/>
</g>
<!-- c0 -->
<!-- c1 -->
<!-- c0&#45;&gt;c1 -->
<g id="edge24" class="edge">
<title>c0&#45;&gt;c1</title>
<path fill="none" stroke="red" d="M1571.89,-465C1583.11,-465 1641.24,-465 1666.86,-465"/>
<polygon fill="red" stroke="red" points="1667.06,-468.5 1677.06,-465 1667.06,-461.5 1667.06,-468.5"/>
<text text-anchor="middle" x="1624.5" y="-471.8" font-family="Times,serif" font-size="14.00">Control flow</text>
</g>
<!-- c2 -->
<!-- c3 -->
<!-- c2&#45;&gt;c3 -->
<g id="edge25" class="edge">
<title>c2&#45;&gt;c3</title>
<path fill="none" stroke="red" stroke-dasharray="5,2" d="M1365.08,-465C1382.05,-465 1498.21,-465 1536.08,-465"/>
<polygon fill="red" stroke="red" points="1536.17,-468.5 1546.17,-465 1536.17,-461.5 1536.17,-468.5"/>
<text text-anchor="middle" x="1455.5" y="-471.8" font-family="Times,serif" font-size="14.00">Control flow back edge</text>
</g>
<!-- d0 -->
<!-- d1 -->
<!-- d0&#45;&gt;d1 -->
<g id="edge26" class="edge">
<title>d0&#45;&gt;d1</title>
<path fill="none" stroke="black" d="M1253.86,-465C1263.41,-465 1307.31,-465 1328.92,-465"/>
<polygon fill="black" stroke="black" points="1329.15,-468.5 1339.15,-465 1329.15,-461.5 1329.15,-468.5"/>
<text text-anchor="middle" x="1296.5" y="-471.8" font-family="Times,serif" font-size="14.00">Data flow</text>
</g>
<!-- d2 -->
<!-- d3 -->
<!-- d2&#45;&gt;d3 -->
<g id="edge27" class="edge">
<title>d2&#45;&gt;d3</title>
<path fill="none" stroke="black" stroke-dasharray="1,5" d="M1127.81,-465C1138.46,-465 1193.46,-465 1218.08,-465"/>
<polygon fill="black" stroke="black" points="1218.15,-468.5 1228.15,-465 1218.15,-461.5 1218.15,-468.5"/>
<text text-anchor="middle" x="1178" y="-471.8" font-family="Times,serif" font-size="14.00">Declaration</text>
</g>
<!-- d4 -->
<!-- d5 -->
<!-- d4&#45;&gt;d5 -->
<g id="edge28" class="edge">
<title>d4&#45;&gt;d5</title>
<path fill="none" stroke="blue" d="M985.1,-465C997.72,-465 1063.88,-465 1091.68,-465"/>
<polygon fill="blue" stroke="blue" points="1091.84,-468.5 1101.84,-465 1091.84,-461.5 1091.84,-468.5"/>
<text text-anchor="middle" x="1043.5" y="-471.8" font-family="Times,serif" font-size="14.00">PHI Data flow</text>
</g>
<!-- d6 -->
<!-- d7 -->
<!-- d6&#45;&gt;d7 -->
<g id="edge29" class="edge">
<title>d6&#45;&gt;d7</title>
<path fill="none" stroke="green" d="M848,-465C859.94,-465 922.3,-465 948.93,-465"/>
<polygon fill="green" stroke="green" points="948.95,-468.5 958.95,-465 948.95,-461.5 948.95,-468.5"/>
<text text-anchor="middle" x="903.5" y="-471.8" font-family="Times,serif" font-size="14.00">Memory flow</text>
</g>
</g>
</svg>
