<?xml version="1.0" encoding="UTF-8" standalone="no"?>
<!DOCTYPE svg PUBLIC "-//W3C//DTD SVG 1.1//EN"
 "http://www.w3.org/Graphics/SVG/1.1/DTD/svg11.dtd">
<!-- Generated by graphviz version 2.43.0 (0)
 -->
<!-- Title: debugoutput Pages: 1 -->
<svg width="2420pt" height="432pt"
 viewBox="0.00 0.00 2419.50 431.80" xmlns="http://www.w3.org/2000/svg" xmlns:xlink="http://www.w3.org/1999/xlink">
<g id="graph0" class="graph" transform="scale(1 1) rotate(0) translate(4 427.8)">
<title>debugoutput</title>
<polygon fill="white" stroke="transparent" points="-4,4 -4,-427.8 2415.5,-427.8 2415.5,4 -4,4"/>
<g id="clust1" class="cluster">
<title>cluster_000</title>
<polygon fill="none" stroke="black" points="1069.5,-373.2 1069.5,-415.8 1908.5,-415.8 1908.5,-373.2 1069.5,-373.2"/>
<text text-anchor="middle" x="1489" y="-400.6" font-family="Times,serif" font-size="14.00">Legend</text>
</g>
<!-- node0 -->
<g id="node1" class="node">
<title>node0</title>
<polygon fill="lightgrey" stroke="black" points="1059.5,-401 893.5,-401 893.5,-365 1059.5,-365 1059.5,-401"/>
<text text-anchor="middle" x="976.5" y="-379.3" font-family="Times,serif" font-size="14.00">#0 Method Order : 0</text>
</g>
<!-- node1 -->
<g id="node2" class="node">
<title>node1</title>
<polygon fill="lightgrey" stroke="black" points="314.5,-328 128.5,-328 128.5,-292 314.5,-292 314.5,-328"/>
<text text-anchor="middle" x="221.5" y="-306.3" font-family="Times,serif" font-size="14.00">#1 arg0 : int Order : 12</text>
</g>
<!-- node0&#45;&gt;node1 -->
<g id="edge2" class="edge">
<title>node0&#45;&gt;node1</title>
<path fill="none" stroke="black" d="M893.46,-377.68C769.7,-370.49 529.68,-354.33 324.29,-329.21"/>
<polygon fill="black" stroke="black" points="324.59,-325.72 314.23,-327.97 323.73,-332.67 324.59,-325.72"/>
<text text-anchor="middle" x="333.26" y="-318.1" font-family="Times,serif" font-size="14.00">*0</text>
</g>
<!-- node2 -->
<g id="node3" class="node">
<title>node2</title>
<polygon fill="lightgrey" stroke="black" points="518.5,-328 332.5,-328 332.5,-292 518.5,-292 518.5,-328"/>
<text text-anchor="middle" x="425.5" y="-306.3" font-family="Times,serif" font-size="14.00">#2 arg1 : int Order : 11</text>
</g>
<!-- node0&#45;&gt;node2 -->
<g id="edge4" class="edge">
<title>node0&#45;&gt;node2</title>
<path fill="none" stroke="black" d="M893.23,-373.84C803.52,-364.32 656.57,-347.57 528.22,-329.39"/>
<polygon fill="black" stroke="black" points="528.63,-325.91 518.23,-327.96 527.64,-332.84 528.63,-325.91"/>
<text text-anchor="middle" x="537.37" y="-318.45" font-family="Times,serif" font-size="14.00">*0</text>
</g>
<!-- node3 -->
<g id="node4" class="node">
<title>node3</title>
<polygon fill="lightgrey" stroke="black" points="2411.5,-328 2111.5,-328 2111.5,-292 2411.5,-292 2411.5,-328"/>
<text text-anchor="middle" x="2261.5" y="-306.3" font-family="Times,serif" font-size="14.00">#3 this : InvokeDynamicTest Order : 10</text>
</g>
<!-- node0&#45;&gt;node3 -->
<g id="edge6" class="edge">
<title>node0&#45;&gt;node3</title>
<path fill="none" stroke="black" d="M1056.84,-364.96C1286.21,-339.19 1863.6,-344.37 2093.5,-328 2096.04,-327.82 2098.61,-327.63 2101.19,-327.43"/>
<polygon fill="black" stroke="black" points="2101.55,-330.91 2111.24,-326.63 2100.99,-323.94 2101.55,-330.91"/>
<text text-anchor="middle" x="2093.84" y="-332.8" font-family="Times,serif" font-size="14.00">*0</text>
</g>
<!-- node4 -->
<g id="node5" class="node">
<title>node4</title>
<polygon fill="lightgrey" stroke="black" points="1192.5,-328 1004.5,-328 1004.5,-292 1192.5,-292 1192.5,-328"/>
<text text-anchor="middle" x="1098.5" y="-306.3" font-family="Times,serif" font-size="14.00">#4 LabelNode Order : 5</text>
</g>
<!-- node0&#45;&gt;node4 -->
<g id="edge8" class="edge">
<title>node0&#45;&gt;node4</title>
<path fill="none" stroke="red" d="M999.86,-364.99C1015.32,-355.4 1035.95,-343.32 1054.38,-333.01"/>
<polygon fill="red" stroke="red" points="1056.17,-336.02 1063.22,-328.11 1052.78,-329.9 1056.17,-336.02"/>
</g>
<!-- node5 -->
<g id="node6" class="node">
<title>node5</title>
<polygon fill="lightgreen" stroke="black" points="1650.89,-302.54 1650.89,-317.46 1521.79,-328 1339.21,-328 1210.11,-317.46 1210.11,-302.54 1339.21,-292 1521.79,-292 1650.89,-302.54"/>
<text text-anchor="middle" x="1430.5" y="-306.3" font-family="Times,serif" font-size="14.00">#5 MethodType : (int,int)String Order : 4</text>
</g>
<!-- node0&#45;&gt;node5 -->
<g id="edge10" class="edge">
<title>node0&#45;&gt;node5</title>
<path fill="none" stroke="black" stroke-dasharray="1,5" d="M1056.97,-364.92C1138.67,-351.09 1230.92,-337.46 1303.35,-327.37"/>
<polygon fill="black" stroke="black" points="1304.01,-330.81 1313.43,-325.97 1303.05,-323.88 1304.01,-330.81"/>
</g>
<!-- node6 -->
<g id="node7" class="node">
<title>node6</title>
<polygon fill="lightgreen" stroke="black" points="2093.91,-302.54 2093.91,-317.46 1969.48,-328 1793.52,-328 1669.09,-317.46 1669.09,-302.54 1793.52,-292 1969.48,-292 2093.91,-302.54"/>
<text text-anchor="middle" x="1881.5" y="-306.3" font-family="Times,serif" font-size="14.00">#6 Class StringConcatFactory Order : 3</text>
</g>
<!-- node0&#45;&gt;node6 -->
<g id="edge12" class="edge">
<title>node0&#45;&gt;node6</title>
<path fill="none" stroke="black" stroke-dasharray="1,5" d="M1056.88,-364.95C1319,-331.91 1386.75,-346.31 1650.5,-328 1671.99,-326.51 1694.63,-324.86 1717.02,-323.2"/>
<polygon fill="black" stroke="black" points="1717.56,-326.66 1727.27,-322.43 1717.04,-319.68 1717.56,-326.66"/>
</g>
<!-- node7 -->
<g id="node8" class="node">
<title>node7</title>
<polygon fill="lightgreen" stroke="black" points="948.75,-302.54 948.75,-317.46 827.93,-328 657.07,-328 536.25,-317.46 536.25,-302.54 657.07,-292 827.93,-292 948.75,-302.54"/>
<text text-anchor="middle" x="742.5" y="-306.3" font-family="Times,serif" font-size="14.00">#7 Class InvokeDynamicTest Order : 1</text>
</g>
<!-- node0&#45;&gt;node7 -->
<g id="edge14" class="edge">
<title>node0&#45;&gt;node7</title>
<path fill="none" stroke="black" stroke-dasharray="1,5" d="M914.59,-364.99C880.04,-354.84 837.24,-341.88 802.93,-331.2"/>
<polygon fill="black" stroke="black" points="803.62,-327.75 793.03,-328.11 801.53,-334.44 803.62,-327.75"/>
</g>
<!-- node13 -->
<g id="node14" class="node">
<title>node13</title>
<polygon fill="lightgrey" stroke="black" points="551,-109 0,-109 0,-73 551,-73 551,-109"/>
<text text-anchor="middle" x="275.5" y="-87.3" font-family="Times,serif" font-size="14.00">#13 Invoke dynamic makeConcatWithConstants : (int,int)String Order : 13</text>
</g>
<!-- node0&#45;&gt;node13 -->
<g id="edge35" class="edge">
<title>node0&#45;&gt;node13</title>
<path fill="none" stroke="black" d="M893.49,-381.83C705.8,-380.67 254.33,-373.17 110.5,-328 96.61,-323.64 82.5,-325.56 82.5,-311 82.5,-311 82.5,-311 82.5,-163 82.5,-141.38 127.26,-123.82 173.71,-111.57"/>
<polygon fill="black" stroke="black" points="174.81,-114.9 183.64,-109.03 173.08,-108.12 174.81,-114.9"/>
</g>
<!-- node1&#45;&gt;node0 -->
<g id="edge1" class="edge">
<title>node1&#45;&gt;node0</title>
<path fill="none" stroke="green" stroke-width="2" d="M314.73,-325.6C320.75,-326.47 326.71,-327.28 332.5,-328 527.8,-352.31 757.37,-368.42 882.92,-376.32"/>
<polygon fill="green" stroke="green" stroke-width="2" points="883.06,-379.83 893.25,-376.96 883.49,-372.85 883.06,-379.83"/>
</g>
<!-- node1&#45;&gt;node13 -->
<g id="edge33" class="edge">
<title>node1&#45;&gt;node13</title>
<path fill="none" stroke="black" d="M225.74,-291.97C235.08,-254.43 257.51,-164.3 268.79,-118.98"/>
<polygon fill="black" stroke="black" points="272.19,-119.8 271.21,-109.25 265.4,-118.11 272.19,-119.8"/>
<text text-anchor="middle" x="275.03" y="-125.18" font-family="Times,serif" font-size="14.00">*1</text>
</g>
<!-- node2&#45;&gt;node0 -->
<g id="edge3" class="edge">
<title>node2&#45;&gt;node0</title>
<path fill="none" stroke="green" stroke-width="2" d="M518.76,-325.35C524.77,-326.28 530.72,-327.17 536.5,-328 656.05,-345.14 794.04,-361.18 883.19,-371.25"/>
<polygon fill="green" stroke="green" stroke-width="2" points="882.95,-374.75 893.28,-372.39 883.74,-367.79 882.95,-374.75"/>
</g>
<!-- node2&#45;&gt;node13 -->
<g id="edge34" class="edge">
<title>node2&#45;&gt;node13</title>
<path fill="none" stroke="black" d="M378.47,-291.97C360.35,-283.35 340.82,-271.21 327.5,-255 294.68,-215.07 282.45,-154.12 277.99,-119.17"/>
<polygon fill="black" stroke="black" points="281.46,-118.74 276.83,-109.21 274.51,-119.54 281.46,-118.74"/>
<text text-anchor="middle" x="287.31" y="-122.54" font-family="Times,serif" font-size="14.00">*2</text>
</g>
<!-- node3&#45;&gt;node0 -->
<g id="edge5" class="edge">
<title>node3&#45;&gt;node0</title>
<path fill="none" stroke="green" stroke-width="2" d="M2111.92,-327.97C2111.78,-327.98 2111.64,-327.99 2111.5,-328 1881.49,-344.38 1303.64,-339.18 1074.5,-365 1072.99,-365.17 1071.46,-365.35 1069.92,-365.55"/>
<polygon fill="green" stroke="green" stroke-width="2" points="1069.09,-362.13 1059.65,-366.95 1070.04,-369.06 1069.09,-362.13"/>
</g>
<!-- node4&#45;&gt;node0 -->
<g id="edge7" class="edge">
<title>node4&#45;&gt;node0</title>
<path fill="none" stroke="green" stroke-width="2" d="M1074.96,-328.11C1059.47,-337.72 1038.83,-349.81 1020.41,-360.1"/>
<polygon fill="green" stroke="green" stroke-width="2" points="1018.63,-357.09 1011.58,-364.99 1022.03,-363.21 1018.63,-357.09"/>
</g>
<!-- node8 -->
<g id="node9" class="node">
<title>node8</title>
<polygon fill="lightgreen" stroke="black" points="1300.3,-229.54 1300.3,-244.46 1182.09,-255 1014.91,-255 896.7,-244.46 896.7,-229.54 1014.91,-219 1182.09,-219 1300.3,-229.54"/>
<text text-anchor="middle" x="1098.5" y="-233.3" font-family="Times,serif" font-size="14.00">#8 String : hello  world  Order : 8</text>
</g>
<!-- node4&#45;&gt;node8 -->
<g id="edge16" class="edge">
<title>node4&#45;&gt;node8</title>
<path fill="none" stroke="black" stroke-dasharray="1,5" d="M1092.62,-291.81C1091.78,-283.79 1091.55,-274.05 1091.92,-265.07"/>
<polygon fill="black" stroke="black" points="1095.42,-265.25 1092.64,-255.03 1088.44,-264.75 1095.42,-265.25"/>
</g>
<!-- node9 -->
<g id="node10" class="node">
<title>node9</title>
<polygon fill="lightgreen" stroke="black" points="1828.74,-229.54 1828.74,-244.46 1679.22,-255 1467.78,-255 1318.26,-244.46 1318.26,-229.54 1467.78,-219 1679.22,-219 1828.74,-229.54"/>
<text text-anchor="middle" x="1573.5" y="-233.3" font-family="Times,serif" font-size="14.00">#9 String : makeConcatWithConstants Order : 7</text>
</g>
<!-- node4&#45;&gt;node9 -->
<g id="edge18" class="edge">
<title>node4&#45;&gt;node9</title>
<path fill="none" stroke="black" stroke-dasharray="1,5" d="M1192.98,-291.92C1275.48,-279.13 1368.34,-265.66 1441.72,-255.37"/>
<polygon fill="black" stroke="black" points="1442.52,-258.79 1451.94,-253.94 1441.55,-251.86 1442.52,-258.79"/>
</g>
<!-- node10 -->
<g id="node11" class="node">
<title>node10</title>
<polygon fill="orange" stroke="black" points="2250.3,-229.54 2250.3,-244.46 2132.09,-255 1964.91,-255 1846.7,-244.46 1846.7,-229.54 1964.91,-219 2132.09,-219 2250.3,-229.54"/>
<text text-anchor="middle" x="2048.5" y="-233.3" font-family="Times,serif" font-size="14.00">#10 VarArgsArray : Object[] Order : 6</text>
</g>
<!-- node4&#45;&gt;node10 -->
<g id="edge20" class="edge">
<title>node4&#45;&gt;node10</title>
<path fill="none" stroke="black" stroke-dasharray="1,5" d="M1192.91,-291.95C1473.98,-260.69 1546.17,-274.58 1828.5,-255 1849.15,-253.57 1870.93,-251.94 1892.44,-250.28"/>
<polygon fill="black" stroke="black" points="1892.93,-253.75 1902.63,-249.49 1892.39,-246.77 1892.93,-253.75"/>
</g>
<!-- node4&#45;&gt;node13 -->
<g id="edge36" class="edge">
<title>node4&#45;&gt;node13</title>
<path fill="none" stroke="red" d="M1017,-291.99C977.37,-282.75 929.38,-270.12 887.5,-255 852.35,-242.31 846.77,-231.38 811.5,-219 667.34,-168.41 494.36,-131.5 384.67,-110.9"/>
<polygon fill="red" stroke="red" points="385.06,-107.41 374.59,-109.02 383.78,-114.29 385.06,-107.41"/>
</g>
<!-- node5&#45;&gt;node0 -->
<g id="edge9" class="edge">
<title>node5&#45;&gt;node0</title>
<path fill="none" stroke="green" stroke-width="2" d="M1323.4,-326.74C1252.66,-336.91 1158.03,-350.85 1074.5,-365 1073,-365.25 1071.48,-365.51 1069.95,-365.78"/>
<polygon fill="green" stroke="green" stroke-width="2" points="1068.98,-362.39 1059.74,-367.57 1070.2,-369.29 1068.98,-362.39"/>
</g>
<!-- node12 -->
<g id="node13" class="node">
<title>node12</title>
<polygon fill="lightgrey" stroke="black" points="1822.5,-182 904.5,-182 904.5,-146 1822.5,-146 1822.5,-182"/>
<text text-anchor="middle" x="1363.5" y="-160.3" font-family="Times,serif" font-size="14.00">#12 Invoke static makeConcatWithConstants : (MethodHandles$Lookup,String,MethodType,String,Object[])CallSite Order : 9</text>
</g>
<!-- node5&#45;&gt;node12 -->
<g id="edge28" class="edge">
<title>node5&#45;&gt;node12</title>
<path fill="none" stroke="black" d="M1586.06,-297.25C1610.95,-295.44 1636.43,-293.63 1660.5,-292 1794.29,-282.92 2351.42,-316.63 2259.5,-219 2243.29,-201.78 2041,-188.75 1832.74,-179.81"/>
<polygon fill="black" stroke="black" points="1832.65,-176.3 1822.51,-179.37 1832.35,-183.3 1832.65,-176.3"/>
<text text-anchor="middle" x="1840.97" y="-168" font-family="Times,serif" font-size="14.00">*3</text>
</g>
<!-- node6&#45;&gt;node0 -->
<g id="edge11" class="edge">
<title>node6&#45;&gt;node0</title>
<path fill="none" stroke="green" stroke-width="2" d="M1735.77,-323.13C1713.27,-324.81 1690.29,-326.49 1668.5,-328 1404.62,-346.32 1336.93,-331.9 1074.5,-365 1072.99,-365.19 1071.46,-365.39 1069.93,-365.6"/>
<polygon fill="green" stroke="green" stroke-width="2" points="1069.06,-362.19 1059.67,-367.1 1070.07,-369.12 1069.06,-362.19"/>
</g>
<!-- node6&#45;&gt;node12 -->
<g id="edge25" class="edge">
<title>node6&#45;&gt;node12</title>
<path fill="none" stroke="black" d="M2029.89,-297.07C2104.33,-290.42 2186.23,-281.91 2222.5,-274 2248.18,-268.4 2263.19,-276.36 2278.5,-255 2287.82,-242 2288.73,-231.31 2278.5,-219 2262.8,-200.11 2049.38,-186.88 1832.62,-178.24"/>
<polygon fill="black" stroke="black" points="1832.75,-174.75 1822.62,-177.85 1832.48,-181.74 1832.75,-174.75"/>
<text text-anchor="middle" x="1841.07" y="-166.42" font-family="Times,serif" font-size="14.00">*0</text>
</g>
<!-- node7&#45;&gt;node0 -->
<g id="edge13" class="edge">
<title>node7&#45;&gt;node0</title>
<path fill="none" stroke="green" stroke-width="2" d="M804.77,-328.11C839.38,-338.29 882.19,-351.25 916.43,-361.91"/>
<polygon fill="green" stroke="green" stroke-width="2" points="915.72,-365.35 926.31,-364.99 917.81,-358.67 915.72,-365.35"/>
</g>
<!-- node11 -->
<g id="node12" class="node">
<title>node11</title>
<polygon fill="lightgrey" stroke="black" points="802.5,-255 336.5,-255 336.5,-219 802.5,-219 802.5,-255"/>
<text text-anchor="middle" x="569.5" y="-233.3" font-family="Times,serif" font-size="14.00">#11 Invoke static in : (Class)MethodHandles$Lookup Order : 2</text>
</g>
<!-- node7&#45;&gt;node11 -->
<g id="edge22" class="edge">
<title>node7&#45;&gt;node11</title>
<path fill="none" stroke="black" d="M689.34,-291.99C663.25,-282.14 632.57,-269.66 608.62,-259.17"/>
<polygon fill="black" stroke="black" points="610.02,-255.96 599.46,-255.11 607.18,-262.36 610.02,-255.96"/>
<text text-anchor="middle" x="619.45" y="-251.03" font-family="Times,serif" font-size="14.00">*0</text>
</g>
<!-- node7&#45;&gt;node11 -->
<g id="edge23" class="edge">
<title>node7&#45;&gt;node11</title>
<path fill="none" stroke="black" d="M712.78,-291.99C690.58,-282.01 659.89,-269.32 632.48,-258.76"/>
<polygon fill="black" stroke="black" points="633.53,-255.41 622.94,-255.11 631.03,-261.95 633.53,-255.41"/>
<text text-anchor="middle" x="642.89" y="-249.98" font-family="Times,serif" font-size="14.00">*1</text>
</g>
<!-- node8&#45;&gt;node4 -->
<g id="edge15" class="edge">
<title>node8&#45;&gt;node4</title>
<path fill="none" stroke="green" stroke-width="2" d="M1104.36,-255.03C1105.21,-263.03 1105.45,-272.77 1105.09,-281.75"/>
<polygon fill="green" stroke="green" stroke-width="2" points="1101.59,-281.59 1104.38,-291.81 1108.57,-282.08 1101.59,-281.59"/>
</g>
<!-- node8&#45;&gt;node12 -->
<g id="edge29" class="edge">
<title>node8&#45;&gt;node12</title>
<path fill="none" stroke="black" d="M1161.97,-218.99C1200.45,-208.68 1249.7,-195.49 1289.88,-184.72"/>
<polygon fill="black" stroke="black" points="1290.87,-188.08 1299.63,-182.11 1289.06,-181.32 1290.87,-188.08"/>
<text text-anchor="middle" x="1284.3" y="-191.27" font-family="Times,serif" font-size="14.00">*4</text>
</g>
<!-- node9&#45;&gt;node4 -->
<g id="edge17" class="edge">
<title>node9&#45;&gt;node4</title>
<path fill="none" stroke="green" stroke-width="2" d="M1462.26,-254.68C1390.41,-265.06 1294.98,-278.9 1210.5,-292 1207.95,-292.39 1205.37,-292.8 1202.77,-293.21"/>
<polygon fill="green" stroke="green" stroke-width="2" points="1201.94,-289.8 1192.61,-294.82 1203.04,-296.71 1201.94,-289.8"/>
</g>
<!-- node9&#45;&gt;node12 -->
<g id="edge27" class="edge">
<title>node9&#45;&gt;node12</title>
<path fill="none" stroke="black" d="M1523.2,-218.99C1493.29,-208.88 1455.16,-195.99 1423.66,-185.34"/>
<polygon fill="black" stroke="black" points="1424.71,-182 1414.12,-182.11 1422.47,-188.63 1424.71,-182"/>
<text text-anchor="middle" x="1434" y="-176.21" font-family="Times,serif" font-size="14.00">*2</text>
</g>
<!-- node10&#45;&gt;node4 -->
<g id="edge19" class="edge">
<title>node10&#45;&gt;node4</title>
<path fill="none" stroke="green" stroke-width="2" d="M1911.01,-250.22C1889.45,-251.9 1867.4,-253.55 1846.5,-255 1564.03,-274.59 1491.91,-260.68 1210.5,-292 1207.94,-292.29 1205.34,-292.59 1202.73,-292.91"/>
<polygon fill="green" stroke="green" stroke-width="2" points="1202,-289.48 1192.54,-294.24 1202.91,-296.42 1202,-289.48"/>
</g>
<!-- node10&#45;&gt;node12 -->
<g id="edge30" class="edge">
<title>node10&#45;&gt;node12</title>
<path fill="none" stroke="black" d="M1921.66,-222.85C1813.61,-211.65 1657.27,-195.45 1537.53,-183.04"/>
<polygon fill="black" stroke="black" points="1537.82,-179.55 1527.51,-182 1537.1,-186.51 1537.82,-179.55"/>
<text text-anchor="middle" x="1546.42" y="-171.76" font-family="Times,serif" font-size="14.00">*5</text>
</g>
<!-- node11&#45;&gt;node7 -->
<g id="edge21" class="edge">
<title>node11&#45;&gt;node7</title>
<path fill="none" stroke="green" stroke-width="2" d="M611.2,-255.11C635.36,-265.03 665.95,-277.58 691.53,-288.08"/>
<polygon fill="green" stroke="green" stroke-width="2" points="690.48,-291.43 701.06,-291.99 693.14,-284.96 690.48,-291.43"/>
</g>
<!-- node11&#45;&gt;node12 -->
<g id="edge26" class="edge">
<title>node11&#45;&gt;node12</title>
<path fill="none" stroke="black" d="M688.37,-218.99C737.54,-212.37 795.19,-205.16 847.5,-200 915.1,-193.34 987.81,-187.55 1056.71,-182.72"/>
<polygon fill="black" stroke="black" points="1057.11,-186.2 1066.84,-182.01 1056.62,-179.21 1057.11,-186.2"/>
<text text-anchor="middle" x="1049.35" y="-188" font-family="Times,serif" font-size="14.00">*1</text>
</g>
<!-- node12&#45;&gt;node0 -->
<g id="edge24" class="edge">
<title>node12&#45;&gt;node0</title>
<path fill="none" stroke="green" stroke-width="2" d="M1079.2,-182.02C985.92,-190.53 902.15,-202.6 887.5,-219 876.84,-230.93 879.24,-241.3 887.5,-255 905.66,-285.14 936.31,-263.91 957.5,-292 971.07,-309.99 975.45,-335.49 976.65,-354.75"/>
<polygon fill="green" stroke="green" stroke-width="2" points="973.17,-355.14 977.04,-365 980.16,-354.88 973.17,-355.14"/>
</g>
<!-- node12&#45;&gt;node13 -->
<g id="edge32" class="edge">
<title>node12&#45;&gt;node13</title>
<path fill="none" stroke="black" d="M1127.61,-145.99C1040.54,-139.83 941.04,-132.93 850.5,-127 756.38,-120.83 653.56,-114.46 561.24,-108.87"/>
<polygon fill="black" stroke="black" points="561.38,-105.37 551.19,-108.26 560.96,-112.36 561.38,-105.37"/>
<text text-anchor="middle" x="569.79" y="-97.22" font-family="Times,serif" font-size="14.00">*0</text>
</g>
<!-- node13&#45;&gt;node0 -->
<g id="edge31" class="edge">
<title>node13&#45;&gt;node0</title>
<path fill="none" stroke="green" stroke-width="2" d="M198.98,-109.03C151.86,-121.34 100.5,-139.85 100.5,-163 100.5,-311 100.5,-311 100.5,-311 100.5,-325.56 114.61,-323.64 128.5,-328 267.38,-371.61 693.06,-380.11 883.18,-381.69"/>
<polygon fill="green" stroke="green" stroke-width="2" points="883.41,-385.19 893.43,-381.77 883.46,-378.19 883.41,-385.19"/>
</g>
<!-- node14 -->
<g id="node15" class="node">
<title>node14</title>
<polygon fill="lightgrey" stroke="black" points="413.5,-36 137.5,-36 137.5,0 413.5,0 413.5,-36"/>
<text text-anchor="middle" x="275.5" y="-14.3" font-family="Times,serif" font-size="14.00">#14 ReturnValue : String Order : 14</text>
</g>
<!-- node13&#45;&gt;node14 -->
<g id="edge38" class="edge">
<title>node13&#45;&gt;node14</title>
<path fill="none" stroke="black" d="M257.87,-72.81C255.35,-64.79 254.65,-55.05 255.77,-46.07"/>
<polygon fill="black" stroke="black" points="259.24,-46.54 257.92,-36.03 252.4,-45.07 259.24,-46.54"/>
<text text-anchor="middle" x="262.39" y="-51.82" font-family="Times,serif" font-size="14.00">*0</text>
</g>
<!-- node13&#45;&gt;node14 -->
<g id="edge39" class="edge">
<title>node13&#45;&gt;node14</title>
<path fill="none" stroke="red" d="M281.38,-72.81C282.22,-64.79 282.45,-55.05 282.08,-46.07"/>
<polygon fill="red" stroke="red" points="285.56,-45.75 281.36,-36.03 278.58,-46.25 285.56,-45.75"/>
</g>
<!-- node13&#45;&gt;node14 -->
<g id="edge40" class="edge">
<title>node13&#45;&gt;node14</title>
<path fill="none" stroke="black" d="M293.13,-72.81C295.65,-64.79 296.35,-55.05 295.23,-46.07"/>
<polygon fill="black" stroke="black" points="298.6,-45.07 293.08,-36.03 291.76,-46.54 298.6,-45.07"/>
</g>
<!-- node14&#45;&gt;node13 -->
<g id="edge37" class="edge">
<title>node14&#45;&gt;node13</title>
<path fill="none" stroke="green" stroke-width="2" d="M269.64,-36.03C268.79,-44.03 268.55,-53.77 268.91,-62.75"/>
<polygon fill="green" stroke="green" stroke-width="2" points="265.43,-63.08 269.62,-72.81 272.41,-62.59 265.43,-63.08"/>
</g>
<!-- c0 -->
<!-- c1 -->
<!-- c0&#45;&gt;c1 -->
<g id="edge41" class="edge">
<title>c0&#45;&gt;c1</title>
<path fill="none" stroke="red" d="M1791.39,-383C1802.61,-383 1860.74,-383 1886.36,-383"/>
<polygon fill="red" stroke="red" points="1886.56,-386.5 1896.56,-383 1886.56,-379.5 1886.56,-386.5"/>
<text text-anchor="middle" x="1844" y="-389.8" font-family="Times,serif" font-size="14.00">Control flow</text>
</g>
<!-- c2 -->
<!-- c3 -->
<!-- c2&#45;&gt;c3 -->
<g id="edge42" class="edge">
<title>c2&#45;&gt;c3</title>
<path fill="none" stroke="red" stroke-dasharray="5,2" d="M1584.58,-383C1601.55,-383 1717.71,-383 1755.58,-383"/>
<polygon fill="red" stroke="red" points="1755.67,-386.5 1765.67,-383 1755.67,-379.5 1755.67,-386.5"/>
<text text-anchor="middle" x="1675" y="-389.8" font-family="Times,serif" font-size="14.00">Control flow back edge</text>
</g>
<!-- d0 -->
<!-- d1 -->
<!-- d0&#45;&gt;d1 -->
<g id="edge43" class="edge">
<title>d0&#45;&gt;d1</title>
<path fill="none" stroke="black" d="M1473.36,-383C1482.91,-383 1526.81,-383 1548.42,-383"/>
<polygon fill="black" stroke="black" points="1548.65,-386.5 1558.65,-383 1548.65,-379.5 1548.65,-386.5"/>
<text text-anchor="middle" x="1516" y="-389.8" font-family="Times,serif" font-size="14.00">Data flow</text>
</g>
<!-- d2 -->
<!-- d3 -->
<!-- d2&#45;&gt;d3 -->
<g id="edge44" class="edge">
<title>d2&#45;&gt;d3</title>
<path fill="none" stroke="black" stroke-dasharray="1,5" d="M1347.31,-383C1357.96,-383 1412.96,-383 1437.58,-383"/>
<polygon fill="black" stroke="black" points="1437.65,-386.5 1447.65,-383 1437.65,-379.5 1437.65,-386.5"/>
<text text-anchor="middle" x="1397.5" y="-389.8" font-family="Times,serif" font-size="14.00">Declaration</text>
</g>
<!-- d4 -->
<!-- d5 -->
<!-- d4&#45;&gt;d5 -->
<g id="edge45" class="edge">
<title>d4&#45;&gt;d5</title>
<path fill="none" stroke="blue" d="M1204.6,-383C1217.22,-383 1283.38,-383 1311.18,-383"/>
<polygon fill="blue" stroke="blue" points="1311.34,-386.5 1321.34,-383 1311.34,-379.5 1311.34,-386.5"/>
<text text-anchor="middle" x="1263" y="-389.8" font-family="Times,serif" font-size="14.00">PHI Data flow</text>
</g>
<!-- d6 -->
<!-- d7 -->
<!-- d6&#45;&gt;d7 -->
<g id="edge46" class="edge">
<title>d6&#45;&gt;d7</title>
<path fill="none" stroke="green" d="M1081.61,-383C1092.65,-383 1144.17,-383 1168.16,-383"/>
<polygon fill="green" stroke="green" points="1168.4,-386.5 1178.4,-383 1168.4,-379.5 1168.4,-386.5"/>
<text text-anchor="middle" x="1130" y="-389.8" font-family="Times,serif" font-size="14.00">Dominance</text>
</g>
</g>
</svg>
