<?xml version="1.0" encoding="UTF-8" standalone="no"?>
<!DOCTYPE svg PUBLIC "-//W3C//DTD SVG 1.1//EN"
 "http://www.w3.org/Graphics/SVG/1.1/DTD/svg11.dtd">
<!-- Generated by graphviz version 2.43.0 (0)
 -->
<!-- Title: debugoutput Pages: 1 -->
<svg width="2878pt" height="432pt"
 viewBox="0.00 0.00 2878.31 431.80" xmlns="http://www.w3.org/2000/svg" xmlns:xlink="http://www.w3.org/1999/xlink">
<g id="graph0" class="graph" transform="scale(1 1) rotate(0) translate(4 427.8)">
<title>debugoutput</title>
<polygon fill="white" stroke="transparent" points="-4,4 -4,-427.8 2874.31,-427.8 2874.31,4 -4,4"/>
<g id="clust1" class="cluster">
<title>cluster_000</title>
<polygon fill="none" stroke="black" points="1216,-373.2 1216,-415.8 2192,-415.8 2192,-373.2 1216,-373.2"/>
<text text-anchor="middle" x="1704" y="-400.6" font-family="Times,serif" font-size="14.00">Legend</text>
</g>
<!-- node0 -->
<g id="node1" class="node">
<title>node0</title>
<polygon fill="lightgrey" stroke="black" points="1206,-401 1040,-401 1040,-365 1206,-365 1206,-401"/>
<text text-anchor="middle" x="1123" y="-379.3" font-family="Times,serif" font-size="14.00">#0 Method Order : 0</text>
</g>
<!-- node1 -->
<g id="node2" class="node">
<title>node1</title>
<polygon fill="lightgrey" stroke="black" points="186,-328 0,-328 0,-292 186,-292 186,-328"/>
<text text-anchor="middle" x="93" y="-306.3" font-family="Times,serif" font-size="14.00">#1 arg0 : int Order : 12</text>
</g>
<!-- node0&#45;&gt;node1 -->
<g id="edge2" class="edge">
<title>node0&#45;&gt;node1</title>
<path fill="none" stroke="black" d="M1039.87,-380.27C877.64,-376.17 507.8,-363.45 195.87,-329.1"/>
<polygon fill="black" stroke="black" points="196.06,-325.6 185.73,-327.97 195.28,-332.55 196.06,-325.6"/>
<text text-anchor="middle" x="204.68" y="-317.87" font-family="Times,serif" font-size="14.00">*0</text>
</g>
<!-- node2 -->
<g id="node3" class="node">
<title>node2</title>
<polygon fill="lightgrey" stroke="black" points="390,-328 204,-328 204,-292 390,-292 390,-328"/>
<text text-anchor="middle" x="297" y="-306.3" font-family="Times,serif" font-size="14.00">#2 arg1 : int Order : 11</text>
</g>
<!-- node0&#45;&gt;node2 -->
<g id="edge4" class="edge">
<title>node0&#45;&gt;node2</title>
<path fill="none" stroke="black" d="M1039.89,-378.52C905.51,-372.15 632.36,-356.67 399.73,-329.16"/>
<polygon fill="black" stroke="black" points="400.08,-325.68 389.73,-327.97 399.25,-332.63 400.08,-325.68"/>
<text text-anchor="middle" x="408.73" y="-318.02" font-family="Times,serif" font-size="14.00">*0</text>
</g>
<!-- node3 -->
<g id="node4" class="node">
<title>node3</title>
<polygon fill="lightgrey" stroke="black" points="708,-328 408,-328 408,-292 708,-292 708,-328"/>
<text text-anchor="middle" x="558" y="-306.3" font-family="Times,serif" font-size="14.00">#3 this : InvokeDynamicTest Order : 10</text>
</g>
<!-- node0&#45;&gt;node3 -->
<g id="edge6" class="edge">
<title>node0&#45;&gt;node3</title>
<path fill="none" stroke="black" d="M1039.9,-372.17C949.9,-361.12 804.9,-342.94 697.41,-329.27"/>
<polygon fill="black" stroke="black" points="697.82,-325.8 687.46,-328 696.94,-332.74 697.82,-325.8"/>
<text text-anchor="middle" x="706.51" y="-318.21" font-family="Times,serif" font-size="14.00">*0</text>
</g>
<!-- node4 -->
<g id="node5" class="node">
<title>node4</title>
<polygon fill="lightgrey" stroke="black" points="2245,-328 2057,-328 2057,-292 2245,-292 2245,-328"/>
<text text-anchor="middle" x="2151" y="-306.3" font-family="Times,serif" font-size="14.00">#4 LabelNode Order : 5</text>
</g>
<!-- node0&#45;&gt;node4 -->
<g id="edge8" class="edge">
<title>node0&#45;&gt;node4</title>
<path fill="none" stroke="red" d="M1203.27,-364.97C1388.15,-343.39 1854.13,-347.28 2039,-328 2041.56,-327.73 2044.16,-327.44 2046.78,-327.13"/>
<polygon fill="red" stroke="red" points="2047.49,-330.57 2056.97,-325.85 2046.61,-323.63 2047.49,-330.57"/>
</g>
<!-- node5 -->
<g id="node6" class="node">
<title>node5</title>
<polygon fill="lightgreen" stroke="black" points="1609.39,-302.54 1609.39,-317.46 1480.29,-328 1297.71,-328 1168.61,-317.46 1168.61,-302.54 1297.71,-292 1480.29,-292 1609.39,-302.54"/>
<text text-anchor="middle" x="1389" y="-306.3" font-family="Times,serif" font-size="14.00">#5 MethodType : (int,int)String Order : 4</text>
</g>
<!-- node0&#45;&gt;node5 -->
<g id="edge10" class="edge">
<title>node0&#45;&gt;node5</title>
<path fill="none" stroke="black" stroke-dasharray="1,5" d="M1180.85,-364.99C1218.46,-354.66 1267.94,-341.43 1309.25,-330.66"/>
<polygon fill="black" stroke="black" points="1310.22,-334.02 1319.01,-328.11 1308.45,-327.25 1310.22,-334.02"/>
</g>
<!-- node6 -->
<g id="node7" class="node">
<title>node6</title>
<polygon fill="lightgreen" stroke="black" points="1150.41,-302.54 1150.41,-317.46 1025.98,-328 850.02,-328 725.59,-317.46 725.59,-302.54 850.02,-292 1025.98,-292 1150.41,-302.54"/>
<text text-anchor="middle" x="938" y="-306.3" font-family="Times,serif" font-size="14.00">#6 Class StringConcatFactory Order : 3</text>
</g>
<!-- node0&#45;&gt;node6 -->
<g id="edge12" class="edge">
<title>node0&#45;&gt;node6</title>
<path fill="none" stroke="black" stroke-dasharray="1,5" d="M1072.83,-364.99C1045.88,-355.06 1012.87,-342.43 986.23,-331.89"/>
<polygon fill="black" stroke="black" points="987.31,-328.56 976.72,-328.11 984.72,-335.06 987.31,-328.56"/>
</g>
<!-- node7 -->
<g id="node8" class="node">
<title>node7</title>
<polygon fill="lightgreen" stroke="black" points="2039.25,-302.54 2039.25,-317.46 1918.43,-328 1747.57,-328 1626.75,-317.46 1626.75,-302.54 1747.57,-292 1918.43,-292 2039.25,-302.54"/>
<text text-anchor="middle" x="1833" y="-306.3" font-family="Times,serif" font-size="14.00">#7 Class InvokeDynamicTest Order : 1</text>
</g>
<!-- node0&#45;&gt;node7 -->
<g id="edge14" class="edge">
<title>node0&#45;&gt;node7</title>
<path fill="none" stroke="black" stroke-dasharray="1,5" d="M1203.41,-364.94C1249.72,-358.61 1503.98,-337.24 1674.92,-323.37"/>
<polygon fill="black" stroke="black" points="1675.35,-326.85 1685.03,-322.55 1674.78,-319.87 1675.35,-326.85"/>
</g>
<!-- node13 -->
<g id="node14" class="node">
<title>node13</title>
<polygon fill="lightgrey" stroke="black" points="1951.5,-109 1400.5,-109 1400.5,-73 1951.5,-73 1951.5,-109"/>
<text text-anchor="middle" x="1676" y="-87.3" font-family="Times,serif" font-size="14.00">#13 Invoke dynamic makeConcatWithConstants : (int,int)String Order : 13</text>
</g>
<!-- node0&#45;&gt;node13 -->
<g id="edge35" class="edge">
<title>node0&#45;&gt;node13</title>
<path fill="none" stroke="green" d="M1203.43,-364.95C1496.78,-333.16 2235.94,-358.46 2529,-328 2672.37,-313.1 2791.64,-388.9 2845,-255 2895.65,-127.88 2657.79,-149.65 2640,-146 2514.75,-120.33 2198.24,-106.15 1961.81,-98.84"/>
<polygon fill="green" stroke="green" points="1961.78,-95.33 1951.68,-98.53 1961.57,-102.33 1961.78,-95.33"/>
</g>
<!-- node1&#45;&gt;node0 -->
<g id="edge1" class="edge">
<title>node1&#45;&gt;node0</title>
<path fill="none" stroke="fuchsia" stroke-width="2" d="M186.21,-325.76C192.23,-326.59 198.2,-327.35 204,-328 505.02,-361.75 863.49,-375.04 1029.8,-379.73"/>
<polygon fill="fuchsia" stroke="fuchsia" stroke-width="2" points="1029.9,-383.23 1039.99,-380.01 1030.1,-376.23 1029.9,-383.23"/>
</g>
<!-- node1&#45;&gt;node13 -->
<g id="edge33" class="edge">
<title>node1&#45;&gt;node13</title>
<path fill="none" stroke="black" d="M182.57,-291.95C278.77,-273.7 436.14,-243.98 572,-219 752.32,-185.85 796.15,-169.32 978,-146 1112.98,-128.69 1263.41,-116.19 1389.96,-107.61"/>
<polygon fill="black" stroke="black" points="1390.44,-111.08 1400.19,-106.92 1389.97,-104.1 1390.44,-111.08"/>
<text text-anchor="middle" x="1382.67" y="-112.87" font-family="Times,serif" font-size="14.00">*1</text>
</g>
<!-- node2&#45;&gt;node0 -->
<g id="edge3" class="edge">
<title>node2&#45;&gt;node0</title>
<path fill="none" stroke="fuchsia" stroke-width="2" d="M390.22,-325.65C396.24,-326.51 402.21,-327.3 408,-328 630.5,-354.78 893.17,-370.41 1029.87,-377.46"/>
<polygon fill="fuchsia" stroke="fuchsia" stroke-width="2" points="1029.73,-380.96 1039.9,-377.97 1030.09,-373.97 1029.73,-380.96"/>
</g>
<!-- node2&#45;&gt;node13 -->
<g id="edge34" class="edge">
<title>node2&#45;&gt;node13</title>
<path fill="none" stroke="black" d="M382.12,-291.94C542.96,-260.12 902.79,-190.87 1208,-146 1302.86,-132.05 1408.99,-119.56 1496.16,-110.11"/>
<polygon fill="black" stroke="black" points="1496.59,-113.58 1506.16,-109.03 1495.84,-106.62 1496.59,-113.58"/>
<text text-anchor="middle" x="1489.04" y="-115.68" font-family="Times,serif" font-size="14.00">*2</text>
</g>
<!-- node3&#45;&gt;node0 -->
<g id="edge5" class="edge">
<title>node3&#45;&gt;node0</title>
<path fill="none" stroke="fuchsia" stroke-width="2" d="M699.37,-328.03C802.63,-340.83 939.7,-358.08 1029.6,-369.6"/>
<polygon fill="fuchsia" stroke="fuchsia" stroke-width="2" points="1029.42,-373.11 1039.78,-370.91 1030.31,-366.16 1029.42,-373.11"/>
</g>
<!-- node4&#45;&gt;node0 -->
<g id="edge7" class="edge">
<title>node4&#45;&gt;node0</title>
<path fill="none" stroke="fuchsia" stroke-width="2" d="M2056.73,-328.03C1871.59,-347.28 1405.61,-343.4 1221,-365 1219.49,-365.18 1217.96,-365.37 1216.42,-365.56"/>
<polygon fill="fuchsia" stroke="fuchsia" stroke-width="2" points="1215.58,-362.15 1206.16,-367 1216.55,-369.08 1215.58,-362.15"/>
</g>
<!-- node8 -->
<g id="node9" class="node">
<title>node8</title>
<polygon fill="lightgreen" stroke="black" points="2406.24,-229.54 2406.24,-244.46 2256.72,-255 2045.28,-255 1895.76,-244.46 1895.76,-229.54 2045.28,-219 2256.72,-219 2406.24,-229.54"/>
<text text-anchor="middle" x="2151" y="-233.3" font-family="Times,serif" font-size="14.00">#8 String : makeConcatWithConstants Order : 8</text>
</g>
<!-- node4&#45;&gt;node8 -->
<g id="edge16" class="edge">
<title>node4&#45;&gt;node8</title>
<path fill="none" stroke="black" stroke-dasharray="1,5" d="M2145.12,-291.81C2144.28,-283.79 2144.05,-274.05 2144.42,-265.07"/>
<polygon fill="black" stroke="black" points="2147.92,-265.25 2145.14,-255.03 2140.94,-264.75 2147.92,-265.25"/>
</g>
<!-- node9 -->
<g id="node10" class="node">
<title>node9</title>
<polygon fill="lightgreen" stroke="black" points="2827.8,-229.54 2827.8,-244.46 2709.59,-255 2542.41,-255 2424.2,-244.46 2424.2,-229.54 2542.41,-219 2709.59,-219 2827.8,-229.54"/>
<text text-anchor="middle" x="2626" y="-233.3" font-family="Times,serif" font-size="14.00">#9 String : hello  world  Order : 7</text>
</g>
<!-- node4&#45;&gt;node9 -->
<g id="edge18" class="edge">
<title>node4&#45;&gt;node9</title>
<path fill="none" stroke="black" stroke-dasharray="1,5" d="M2245.25,-294.07C2321.18,-282.51 2428.25,-266.49 2509.53,-254.54"/>
<polygon fill="black" stroke="black" points="2510.43,-257.95 2519.82,-253.03 2509.42,-251.02 2510.43,-257.95"/>
</g>
<!-- node10 -->
<g id="node11" class="node">
<title>node10</title>
<polygon fill="orange" stroke="black" points="1877.8,-229.54 1877.8,-244.46 1759.59,-255 1592.41,-255 1474.2,-244.46 1474.2,-229.54 1592.41,-219 1759.59,-219 1877.8,-229.54"/>
<text text-anchor="middle" x="1676" y="-233.3" font-family="Times,serif" font-size="14.00">#10 VarArgsArray : Object[] Order : 6</text>
</g>
<!-- node4&#45;&gt;node10 -->
<g id="edge20" class="edge">
<title>node4&#45;&gt;node10</title>
<path fill="none" stroke="black" stroke-dasharray="1,5" d="M2056.89,-294.82C2050.82,-293.85 2044.82,-292.9 2039,-292 1954.93,-278.96 1860.01,-265.2 1788.28,-254.83"/>
<polygon fill="black" stroke="black" points="1788.72,-251.36 1778.32,-253.39 1787.72,-258.28 1788.72,-251.36"/>
</g>
<!-- node4&#45;&gt;node13 -->
<g id="edge36" class="edge">
<title>node4&#45;&gt;node13</title>
<path fill="none" stroke="red" d="M2245.3,-308.52C2423.99,-306.62 2797.67,-297.55 2837,-255 2847.86,-243.25 2847.68,-230.91 2837,-219 2779.48,-154.84 2286.44,-119.89 1961.63,-103.65"/>
<polygon fill="red" stroke="red" points="1961.75,-100.15 1951.59,-103.15 1961.4,-107.14 1961.75,-100.15"/>
</g>
<!-- node5&#45;&gt;node0 -->
<g id="edge9" class="edge">
<title>node5&#45;&gt;node0</title>
<path fill="none" stroke="fuchsia" stroke-width="2" d="M1330.75,-328.11C1293.07,-338.46 1243.57,-351.7 1202.32,-362.46"/>
<polygon fill="fuchsia" stroke="fuchsia" stroke-width="2" points="1201.37,-359.09 1192.57,-364.99 1203.13,-365.86 1201.37,-359.09"/>
</g>
<!-- node12 -->
<g id="node13" class="node">
<title>node12</title>
<polygon fill="lightgrey" stroke="black" points="2135,-182 1217,-182 1217,-146 2135,-146 2135,-182"/>
<text text-anchor="middle" x="1676" y="-160.3" font-family="Times,serif" font-size="14.00">#12 Invoke static makeConcatWithConstants : (MethodHandles$Lookup,String,MethodType,String,Object[])CallSite Order : 9</text>
</g>
<!-- node5&#45;&gt;node12 -->
<g id="edge28" class="edge">
<title>node5&#45;&gt;node12</title>
<path fill="none" stroke="black" d="M1227.72,-297.71C1120.99,-288.55 997.69,-274.04 981,-255 970.45,-242.97 970.13,-230.74 981,-219 999.77,-198.71 1093.68,-186.02 1206.69,-178.1"/>
<polygon fill="black" stroke="black" points="1207.24,-181.57 1216.97,-177.4 1206.76,-174.59 1207.24,-181.57"/>
<text text-anchor="middle" x="1199.47" y="-183.37" font-family="Times,serif" font-size="14.00">*3</text>
</g>
<!-- node6&#45;&gt;node0 -->
<g id="edge11" class="edge">
<title>node6&#45;&gt;node0</title>
<path fill="none" stroke="fuchsia" stroke-width="2" d="M988.46,-328.11C1015.46,-338.07 1048.46,-350.69 1075.06,-361.22"/>
<polygon fill="fuchsia" stroke="fuchsia" stroke-width="2" points="1073.96,-364.55 1084.55,-364.99 1076.55,-358.05 1073.96,-364.55"/>
</g>
<!-- node6&#45;&gt;node12 -->
<g id="edge25" class="edge">
<title>node6&#45;&gt;node12</title>
<path fill="none" stroke="black" d="M939.53,-291.79C942.19,-271.77 949.44,-238.93 969,-219 986.24,-201.44 996.89,-204.93 1021,-200 1060.72,-191.87 1129.02,-185.56 1206.92,-180.68"/>
<polygon fill="black" stroke="black" points="1207.2,-184.17 1216.97,-180.06 1206.77,-177.18 1207.2,-184.17"/>
<text text-anchor="middle" x="1199.4" y="-185.91" font-family="Times,serif" font-size="14.00">*0</text>
</g>
<!-- node7&#45;&gt;node0 -->
<g id="edge13" class="edge">
<title>node7&#45;&gt;node0</title>
<path fill="none" stroke="fuchsia" stroke-width="2" d="M1690.89,-323.11C1524.7,-337.01 1266.49,-358.69 1221,-365 1219.49,-365.21 1217.97,-365.43 1216.43,-365.65"/>
<polygon fill="fuchsia" stroke="fuchsia" stroke-width="2" points="1215.54,-362.25 1206.19,-367.24 1216.61,-369.17 1215.54,-362.25"/>
</g>
<!-- node11 -->
<g id="node12" class="node">
<title>node11</title>
<polygon fill="lightgrey" stroke="black" points="1456,-255 990,-255 990,-219 1456,-219 1456,-255"/>
<text text-anchor="middle" x="1223" y="-233.3" font-family="Times,serif" font-size="14.00">#11 Invoke static in : (Class)MethodHandles$Lookup Order : 2</text>
</g>
<!-- node7&#45;&gt;node11 -->
<g id="edge22" class="edge">
<title>node7&#45;&gt;node11</title>
<path fill="none" stroke="black" d="M1706.7,-295.56C1607.99,-284.43 1470.85,-268.52 1367.73,-256.24"/>
<polygon fill="black" stroke="black" points="1367.89,-252.73 1357.54,-255.02 1367.06,-259.68 1367.89,-252.73"/>
<text text-anchor="middle" x="1376.54" y="-245.08" font-family="Times,serif" font-size="14.00">*0</text>
</g>
<!-- node7&#45;&gt;node11 -->
<g id="edge23" class="edge">
<title>node7&#45;&gt;node11</title>
<path fill="none" stroke="black" d="M1719.23,-294.46C1626.85,-283.38 1495.41,-268.05 1390.96,-256.16"/>
<polygon fill="black" stroke="black" points="1391.27,-252.67 1380.93,-255.02 1390.47,-259.63 1391.27,-252.67"/>
<text text-anchor="middle" x="1399.9" y="-244.97" font-family="Times,serif" font-size="14.00">*1</text>
</g>
<!-- node8&#45;&gt;node4 -->
<g id="edge15" class="edge">
<title>node8&#45;&gt;node4</title>
<path fill="none" stroke="fuchsia" stroke-width="2" d="M2156.86,-255.03C2157.71,-263.03 2157.95,-272.77 2157.59,-281.75"/>
<polygon fill="fuchsia" stroke="fuchsia" stroke-width="2" points="2154.09,-281.59 2156.88,-291.81 2161.07,-282.08 2154.09,-281.59"/>
</g>
<!-- node8&#45;&gt;node12 -->
<g id="edge27" class="edge">
<title>node8&#45;&gt;node12</title>
<path fill="none" stroke="black" d="M2039.63,-219.35C1967.88,-208.63 1874.47,-194.67 1800.3,-183.58"/>
<polygon fill="black" stroke="black" points="1800.38,-180.05 1789.97,-182.04 1799.34,-186.98 1800.38,-180.05"/>
<text text-anchor="middle" x="1809.14" y="-172.66" font-family="Times,serif" font-size="14.00">*2</text>
</g>
<!-- node9&#45;&gt;node4 -->
<g id="edge17" class="edge">
<title>node9&#45;&gt;node4</title>
<path fill="none" stroke="fuchsia" stroke-width="2" d="M2526.79,-253.68C2447.31,-265.77 2336.19,-282.38 2255.38,-294.23"/>
<polygon fill="fuchsia" stroke="fuchsia" stroke-width="2" points="2254.57,-290.82 2245.19,-295.73 2255.59,-297.74 2254.57,-290.82"/>
</g>
<!-- node9&#45;&gt;node12 -->
<g id="edge29" class="edge">
<title>node9&#45;&gt;node12</title>
<path fill="none" stroke="black" d="M2482.72,-224.31C2460.06,-222.5 2436.89,-220.68 2415,-219 2252.01,-206.48 2068.74,-193.08 1925.49,-182.77"/>
<polygon fill="black" stroke="black" points="1925.47,-179.26 1915.24,-182.03 1924.97,-186.24 1925.47,-179.26"/>
<text text-anchor="middle" x="1933.93" y="-171.2" font-family="Times,serif" font-size="14.00">*4</text>
</g>
<!-- node10&#45;&gt;node4 -->
<g id="edge19" class="edge">
<title>node10&#45;&gt;node4</title>
<path fill="none" stroke="fuchsia" stroke-width="2" d="M1787.65,-252.56C1860.8,-262.73 1958.69,-276.84 2046.42,-290.36"/>
<polygon fill="fuchsia" stroke="fuchsia" stroke-width="2" points="2046.1,-293.86 2056.52,-291.92 2047.17,-286.94 2046.1,-293.86"/>
</g>
<!-- node10&#45;&gt;node12 -->
<g id="edge30" class="edge">
<title>node10&#45;&gt;node12</title>
<path fill="none" stroke="black" d="M1676,-218.81C1676,-210.79 1676,-201.05 1676,-192.07"/>
<polygon fill="black" stroke="black" points="1679.5,-192.03 1676,-182.03 1672.5,-192.03 1679.5,-192.03"/>
<text text-anchor="middle" x="1684.45" y="-196.45" font-family="Times,serif" font-size="14.00">*5</text>
</g>
<!-- node11&#45;&gt;node7 -->
<g id="edge21" class="edge">
<title>node11&#45;&gt;node7</title>
<path fill="none" stroke="fuchsia" stroke-width="2" d="M1369.26,-255.02C1470.85,-266.85 1605.02,-282.46 1702.89,-293.86"/>
<polygon fill="fuchsia" stroke="fuchsia" stroke-width="2" points="1702.51,-297.34 1712.85,-295.02 1703.32,-290.38 1702.51,-297.34"/>
</g>
<!-- node11&#45;&gt;node12 -->
<g id="edge26" class="edge">
<title>node11&#45;&gt;node12</title>
<path fill="none" stroke="black" d="M1331.5,-218.99C1399.49,-208.34 1487.15,-194.6 1557.03,-183.65"/>
<polygon fill="black" stroke="black" points="1557.87,-187.06 1567.2,-182.05 1556.78,-180.14 1557.87,-187.06"/>
<text text-anchor="middle" x="1550.6" y="-189.51" font-family="Times,serif" font-size="14.00">*1</text>
</g>
<!-- node12&#45;&gt;node0 -->
<g id="edge24" class="edge">
<title>node12&#45;&gt;node0</title>
<path fill="none" stroke="fuchsia" stroke-width="2" d="M2135.05,-171.91C2448.66,-178.96 2811.95,-192.76 2837,-219 2848.05,-230.57 2844.82,-241.04 2837,-255 2773.21,-368.92 2384.28,-319.32 2254,-328 2141.23,-335.51 1366.32,-351.25 1216.38,-364.68"/>
<polygon fill="fuchsia" stroke="fuchsia" stroke-width="2" points="1215.92,-361.21 1206.32,-365.68 1216.62,-368.17 1215.92,-361.21"/>
</g>
<!-- node12&#45;&gt;node13 -->
<g id="edge32" class="edge">
<title>node12&#45;&gt;node13</title>
<path fill="none" stroke="black" d="M1676,-145.81C1676,-137.79 1676,-128.05 1676,-119.07"/>
<polygon fill="black" stroke="black" points="1679.5,-119.03 1676,-109.03 1672.5,-119.03 1679.5,-119.03"/>
<text text-anchor="middle" x="1684.45" y="-123.45" font-family="Times,serif" font-size="14.00">*0</text>
</g>
<!-- node13&#45;&gt;node0 -->
<g id="edge31" class="edge">
<title>node13&#45;&gt;node0</title>
<path fill="none" stroke="fuchsia" stroke-width="2" d="M1951.74,-98.11C2194.36,-105.19 2528.47,-119.45 2658,-146 2675.79,-149.65 2913.65,-127.88 2863,-255 2809.64,-388.9 2690.37,-313.1 2547,-328 2253.8,-358.48 1514.05,-333.13 1221,-365 1219.49,-365.16 1217.96,-365.34 1216.42,-365.53"/>
<polygon fill="fuchsia" stroke="fuchsia" stroke-width="2" points="1215.59,-362.11 1206.15,-366.91 1216.53,-369.05 1215.59,-362.11"/>
</g>
<!-- node14 -->
<g id="node15" class="node">
<title>node14</title>
<polygon fill="lightgrey" stroke="black" points="1814,-36 1538,-36 1538,0 1814,0 1814,-36"/>
<text text-anchor="middle" x="1676" y="-14.3" font-family="Times,serif" font-size="14.00">#14 ReturnValue : String Order : 14</text>
</g>
<!-- node13&#45;&gt;node14 -->
<g id="edge38" class="edge">
<title>node13&#45;&gt;node14</title>
<path fill="none" stroke="black" d="M1658.37,-72.81C1655.85,-64.79 1655.15,-55.05 1656.27,-46.07"/>
<polygon fill="black" stroke="black" points="1659.74,-46.54 1658.42,-36.03 1652.9,-45.07 1659.74,-46.54"/>
<text text-anchor="middle" x="1662.89" y="-51.82" font-family="Times,serif" font-size="14.00">*0</text>
</g>
<!-- node13&#45;&gt;node14 -->
<g id="edge39" class="edge">
<title>node13&#45;&gt;node14</title>
<path fill="none" stroke="red" d="M1681.88,-72.81C1682.72,-64.79 1682.95,-55.05 1682.58,-46.07"/>
<polygon fill="red" stroke="red" points="1686.06,-45.75 1681.86,-36.03 1679.08,-46.25 1686.06,-45.75"/>
</g>
<!-- node13&#45;&gt;node14 -->
<g id="edge40" class="edge">
<title>node13&#45;&gt;node14</title>
<path fill="none" stroke="green" d="M1693.63,-72.81C1696.15,-64.79 1696.85,-55.05 1695.73,-46.07"/>
<polygon fill="green" stroke="green" points="1699.1,-45.07 1693.58,-36.03 1692.26,-46.54 1699.1,-45.07"/>
</g>
<!-- node14&#45;&gt;node13 -->
<g id="edge37" class="edge">
<title>node14&#45;&gt;node13</title>
<path fill="none" stroke="fuchsia" stroke-width="2" d="M1670.14,-36.03C1669.29,-44.03 1669.05,-53.77 1669.41,-62.75"/>
<polygon fill="fuchsia" stroke="fuchsia" stroke-width="2" points="1665.93,-63.08 1670.12,-72.81 1672.91,-62.59 1665.93,-63.08"/>
</g>
<!-- c0 -->
<!-- c1 -->
<!-- c0&#45;&gt;c1 -->
<g id="edge41" class="edge">
<title>c0&#45;&gt;c1</title>
<path fill="none" stroke="red" d="M2074.89,-383C2086.11,-383 2144.24,-383 2169.86,-383"/>
<polygon fill="red" stroke="red" points="2170.06,-386.5 2180.06,-383 2170.06,-379.5 2170.06,-386.5"/>
<text text-anchor="middle" x="2127.5" y="-389.8" font-family="Times,serif" font-size="14.00">Control flow</text>
</g>
<!-- c2 -->
<!-- c3 -->
<!-- c2&#45;&gt;c3 -->
<g id="edge42" class="edge">
<title>c2&#45;&gt;c3</title>
<path fill="none" stroke="red" stroke-dasharray="5,2" d="M1868.08,-383C1885.05,-383 2001.21,-383 2039.08,-383"/>
<polygon fill="red" stroke="red" points="2039.17,-386.5 2049.17,-383 2039.17,-379.5 2039.17,-386.5"/>
<text text-anchor="middle" x="1958.5" y="-389.8" font-family="Times,serif" font-size="14.00">Control flow back edge</text>
</g>
<!-- d0 -->
<!-- d1 -->
<!-- d0&#45;&gt;d1 -->
<g id="edge43" class="edge">
<title>d0&#45;&gt;d1</title>
<path fill="none" stroke="black" d="M1756.86,-383C1766.41,-383 1810.31,-383 1831.92,-383"/>
<polygon fill="black" stroke="black" points="1832.15,-386.5 1842.15,-383 1832.15,-379.5 1832.15,-386.5"/>
<text text-anchor="middle" x="1799.5" y="-389.8" font-family="Times,serif" font-size="14.00">Data flow</text>
</g>
<!-- d2 -->
<!-- d3 -->
<!-- d2&#45;&gt;d3 -->
<g id="edge44" class="edge">
<title>d2&#45;&gt;d3</title>
<path fill="none" stroke="black" stroke-dasharray="1,5" d="M1630.81,-383C1641.46,-383 1696.46,-383 1721.08,-383"/>
<polygon fill="black" stroke="black" points="1721.15,-386.5 1731.15,-383 1721.15,-379.5 1721.15,-386.5"/>
<text text-anchor="middle" x="1681" y="-389.8" font-family="Times,serif" font-size="14.00">Declaration</text>
</g>
<!-- d4 -->
<!-- d5 -->
<!-- d4&#45;&gt;d5 -->
<g id="edge45" class="edge">
<title>d4&#45;&gt;d5</title>
<path fill="none" stroke="blue" d="M1488.1,-383C1500.72,-383 1566.88,-383 1594.68,-383"/>
<polygon fill="blue" stroke="blue" points="1594.84,-386.5 1604.84,-383 1594.84,-379.5 1594.84,-386.5"/>
<text text-anchor="middle" x="1546.5" y="-389.8" font-family="Times,serif" font-size="14.00">PHI Data flow</text>
</g>
<!-- d6 -->
<!-- d7 -->
<!-- d6&#45;&gt;d7 -->
<g id="edge46" class="edge">
<title>d6&#45;&gt;d7</title>
<path fill="none" stroke="green" d="M1351,-383C1362.94,-383 1425.3,-383 1451.93,-383"/>
<polygon fill="green" stroke="green" points="1451.95,-386.5 1461.95,-383 1451.95,-379.5 1451.95,-386.5"/>
<text text-anchor="middle" x="1406.5" y="-389.8" font-family="Times,serif" font-size="14.00">Memory flow</text>
</g>
<!-- d8 -->
<!-- d9 -->
<!-- d8&#45;&gt;d9 -->
<g id="edge47" class="edge">
<title>d8&#45;&gt;d9</title>
<path fill="none" stroke="fuchsia" d="M1228.11,-383C1239.15,-383 1290.67,-383 1314.66,-383"/>
<polygon fill="fuchsia" stroke="fuchsia" points="1314.9,-386.5 1324.9,-383 1314.9,-379.5 1314.9,-386.5"/>
<text text-anchor="middle" x="1276.5" y="-389.8" font-family="Times,serif" font-size="14.00">Dominance</text>
</g>
</g>
</svg>
