<?xml version="1.0" encoding="UTF-8" standalone="no"?>
<!DOCTYPE svg PUBLIC "-//W3C//DTD SVG 1.1//EN"
 "http://www.w3.org/Graphics/SVG/1.1/DTD/svg11.dtd">
<!-- Generated by graphviz version 2.43.0 (0)
 -->
<!-- Title: %3 Pages: 1 -->
<svg width="1229pt" height="432pt"
 viewBox="0.00 0.00 1228.50 431.80" xmlns="http://www.w3.org/2000/svg" xmlns:xlink="http://www.w3.org/1999/xlink">
<g id="graph0" class="graph" transform="scale(1 1) rotate(0) translate(4 427.8)">
<title>%3</title>
<polygon fill="white" stroke="transparent" points="-4,4 -4,-427.8 1224.5,-427.8 1224.5,4 -4,4"/>
<g id="clust1" class="cluster">
<title>cluster_000</title>
<polygon fill="none" stroke="black" points="876.5,-373.2 876.5,-415.8 1212.5,-415.8 1212.5,-373.2 876.5,-373.2"/>
<text text-anchor="middle" x="1044.5" y="-400.6" font-family="Times,serif" font-size="14.00">Legend</text>
</g>
<!-- node0 -->
<g id="node1" class="node">
<title>node0</title>
<polygon fill="lightgrey" stroke="black" points="866.5,-401 46.5,-401 46.5,-365 866.5,-365 866.5,-401"/>
<text text-anchor="middle" x="456.5" y="-379.3" font-family="Times,serif" font-size="14.00">#0 LocalVariable[name=this, slot=0, type=Lde/mirkosertic/metair/ir/examples/MethodInvocationTest;] Order: 0</text>
</g>
<!-- node1 -->
<g id="node2" class="node">
<title>node1</title>
<polygon fill="lightgrey" stroke="black" points="696,-328 217,-328 217,-292 696,-292 696,-328"/>
<text text-anchor="middle" x="456.5" y="-306.3" font-family="Times,serif" font-size="14.00">#1 Label[context=CodeModel[id=1789110533], bci=0] Order: 1</text>
</g>
<!-- node0&#45;&gt;node1 -->
<g id="edge1" class="edge">
<title>node0&#45;&gt;node1</title>
<path fill="none" stroke="red" d="M456.5,-364.81C456.5,-356.79 456.5,-347.05 456.5,-338.07"/>
<polygon fill="red" stroke="red" points="460,-338.03 456.5,-328.03 453,-338.03 460,-338.03"/>
</g>
<!-- node2 -->
<g id="node3" class="node">
<title>node2</title>
<polygon fill="lightgrey" stroke="black" points="592.5,-255 320.5,-255 320.5,-219 592.5,-219 592.5,-255"/>
<text text-anchor="middle" x="456.5" y="-233.3" font-family="Times,serif" font-size="14.00">#2 LineNumber[line=131] Order: 2</text>
</g>
<!-- node1&#45;&gt;node2 -->
<g id="edge2" class="edge">
<title>node1&#45;&gt;node2</title>
<path fill="none" stroke="red" d="M456.5,-291.81C456.5,-283.79 456.5,-274.05 456.5,-265.07"/>
<polygon fill="red" stroke="red" points="460,-265.03 456.5,-255.03 453,-265.03 460,-265.03"/>
</g>
<!-- node3 -->
<g id="node4" class="node">
<title>node3</title>
<polygon fill="lightgrey" stroke="black" points="658.5,-182 254.5,-182 254.5,-146 658.5,-146 658.5,-182"/>
<text text-anchor="middle" x="456.5" y="-160.3" font-family="Times,serif" font-size="14.00">#3 ArgumentConstant[OP=BIPUSH, val=10] Order: 3</text>
</g>
<!-- node2&#45;&gt;node3 -->
<g id="edge3" class="edge">
<title>node2&#45;&gt;node3</title>
<path fill="none" stroke="red" d="M456.5,-218.81C456.5,-210.79 456.5,-201.05 456.5,-192.07"/>
<polygon fill="red" stroke="red" points="460,-192.03 456.5,-182.03 453,-192.03 460,-192.03"/>
</g>
<!-- node4 -->
<g id="node5" class="node">
<title>node4</title>
<polygon fill="lightgrey" stroke="black" points="913,-109 0,-109 0,-73 913,-73 913,-109"/>
<text text-anchor="middle" x="456.5" y="-87.3" font-family="Times,serif" font-size="14.00">#4 Invoke[OP=INVOKESTATIC, m=de/mirkosertic/metair/ir/examples/MethodInvocationTest.staticReturnShort(S)S] Order: 4</text>
</g>
<!-- node3&#45;&gt;node4 -->
<g id="edge4" class="edge">
<title>node3&#45;&gt;node4</title>
<path fill="none" stroke="red" d="M456.5,-145.81C456.5,-137.79 456.5,-128.05 456.5,-119.07"/>
<polygon fill="red" stroke="red" points="460,-119.03 456.5,-109.03 453,-119.03 460,-119.03"/>
</g>
<!-- node5 -->
<g id="node6" class="node">
<title>node5</title>
<polygon fill="lightgrey" stroke="black" points="591,-36 322,-36 322,0 591,0 591,-36"/>
<text text-anchor="middle" x="456.5" y="-14.3" font-family="Times,serif" font-size="14.00">#5 Return[OP=IRETURN] Order: 5</text>
</g>
<!-- node4&#45;&gt;node5 -->
<g id="edge5" class="edge">
<title>node4&#45;&gt;node5</title>
<path fill="none" stroke="red" d="M456.5,-72.81C456.5,-64.79 456.5,-55.05 456.5,-46.07"/>
<polygon fill="red" stroke="red" points="460,-46.03 456.5,-36.03 453,-46.03 460,-46.03"/>
</g>
<!-- c0 -->
<!-- c1 -->
<!-- c0&#45;&gt;c1 -->
<g id="edge6" class="edge">
<title>c0&#45;&gt;c1</title>
<path fill="none" stroke="red" d="M1095.39,-383C1106.61,-383 1164.74,-383 1190.36,-383"/>
<polygon fill="red" stroke="red" points="1190.56,-386.5 1200.56,-383 1190.56,-379.5 1190.56,-386.5"/>
<text text-anchor="middle" x="1148" y="-389.8" font-family="Times,serif" font-size="14.00">Control flow</text>
</g>
<!-- c2 -->
<!-- c3 -->
<!-- c2&#45;&gt;c3 -->
<g id="edge7" class="edge">
<title>c2&#45;&gt;c3</title>
<path fill="none" stroke="red" stroke-dasharray="5,2" d="M888.58,-383C905.55,-383 1021.71,-383 1059.58,-383"/>
<polygon fill="red" stroke="red" points="1059.67,-386.5 1069.67,-383 1059.67,-379.5 1059.67,-386.5"/>
<text text-anchor="middle" x="979" y="-389.8" font-family="Times,serif" font-size="14.00">Control flow back edge</text>
</g>
</g>
</svg>
