<?xml version="1.0" encoding="UTF-8" standalone="no"?>
<!DOCTYPE svg PUBLIC "-//W3C//DTD SVG 1.1//EN"
 "http://www.w3.org/Graphics/SVG/1.1/DTD/svg11.dtd">
<!-- Generated by graphviz version 2.43.0 (0)
 -->
<!-- Title: %3 Pages: 1 -->
<svg width="1351pt" height="879pt"
 viewBox="0.00 0.00 1351.28 878.80" xmlns="http://www.w3.org/2000/svg" xmlns:xlink="http://www.w3.org/1999/xlink">
<g id="graph0" class="graph" transform="scale(1 1) rotate(0) translate(4 874.8)">
<title>%3</title>
<polygon fill="white" stroke="transparent" points="-4,4 -4,-874.8 1347.28,-874.8 1347.28,4 -4,4"/>
<g id="clust1" class="cluster">
<title>cluster_0</title>
<polygon fill="none" stroke="lightgray" points="320.28,-649 320.28,-774 744.28,-774 744.28,-649 320.28,-649"/>
</g>
<g id="clust2" class="cluster">
<title>cluster_1</title>
<polygon fill="none" stroke="lightgray" points="279.28,-357 279.28,-482 657.28,-482 657.28,-357 279.28,-357"/>
</g>
<g id="clust3" class="cluster">
<title>cluster_000</title>
<polygon fill="none" stroke="black" points="482.28,-820.2 482.28,-862.8 1335.28,-862.8 1335.28,-820.2 482.28,-820.2"/>
<text text-anchor="middle" x="908.78" y="-847.6" font-family="Times,serif" font-size="14.00">Legend</text>
</g>
<!-- node0 -->
<g id="node1" class="node">
<title>node0</title>
<polygon fill="lightgrey" stroke="transparent" points="472.78,-857 305.78,-857 305.78,-803 472.78,-803 472.78,-857"/>
<polygon fill="none" stroke="black" points="306.28,-830 306.28,-857 473.28,-857 473.28,-830 306.28,-830"/>
<text text-anchor="start" x="349.28" y="-839.8" font-family="Times,serif" font-size="14.00">#0 Method</text>
<polygon fill="yellow" stroke="transparent" points="306.28,-803 306.28,-830 473.28,-830 473.28,-803 306.28,-803"/>
<polygon fill="none" stroke="black" points="306.28,-803 306.28,-830 473.28,-830 473.28,-803 306.28,-803"/>
<text text-anchor="start" x="312.28" y="-812.8" font-family="Times,serif" font-size="14.00">this : FieldAccessTest</text>
</g>
<!-- node4 -->
<g id="node2" class="node">
<title>node4</title>
<polygon fill="lightgrey" stroke="black" points="523.78,-620 418.78,-620 418.78,-584 523.78,-584 523.78,-620"/>
<text text-anchor="middle" x="471.28" y="-598.3" font-family="Times,serif" font-size="14.00">#4 ClassInit</text>
</g>
<!-- node0&#45;&gt;node4 -->
<g id="edge3" class="edge">
<title>node0&#45;&gt;node4</title>
<path fill="none" stroke="green" d="M341.24,-802.87C331.2,-794.99 321.94,-785.36 316.28,-774 291.49,-724.28 283.05,-693.52 316.28,-649 317.79,-646.98 366.51,-632.71 408.93,-620.6"/>
<polygon fill="green" stroke="green" points="410.04,-623.92 418.7,-617.81 408.12,-617.19 410.04,-623.92"/>
</g>
<!-- node2 -->
<g id="node4" class="node">
<title>node2</title>
<polygon fill="lightgrey" stroke="black" points="448.78,-766 329.78,-766 329.78,-730 448.78,-730 448.78,-766"/>
<text text-anchor="middle" x="389.28" y="-744.3" font-family="Times,serif" font-size="14.00">#2 LabelNode</text>
</g>
<!-- node0&#45;&gt;node2 -->
<g id="edge4" class="edge">
<title>node0&#45;&gt;node2</title>
<path fill="none" stroke="red" d="M389.28,-802.81C389.28,-794.35 389.28,-784.95 389.28,-776.4"/>
<polygon fill="red" stroke="red" points="392.78,-776.17 389.28,-766.17 385.78,-776.17 392.78,-776.17"/>
</g>
<!-- node6 -->
<g id="node5" class="node">
<title>node6</title>
<polygon fill="lightgrey" stroke="black" points="593.28,-474 343.28,-474 343.28,-438 593.28,-438 593.28,-474"/>
<text text-anchor="middle" x="468.28" y="-452.3" font-family="Times,serif" font-size="14.00">#6 Invoke special &lt;init&gt; : ()void</text>
</g>
<!-- node4&#45;&gt;node6 -->
<g id="edge7" class="edge">
<title>node4&#45;&gt;node6</title>
<path fill="none" stroke="red" d="M470.92,-583.92C470.41,-559.34 469.46,-513.75 468.85,-484.43"/>
<polygon fill="red" stroke="red" points="472.34,-483.99 468.64,-474.06 465.34,-484.13 472.34,-483.99"/>
</g>
<!-- node5 -->
<g id="node6" class="node">
<title>node5</title>
<polygon fill="orange" stroke="black" points="600.4,-521.54 600.4,-536.46 569.87,-547 526.69,-547 496.16,-536.46 496.16,-521.54 526.69,-511 569.87,-511 600.4,-521.54"/>
<text text-anchor="middle" x="548.28" y="-525.3" font-family="Times,serif" font-size="14.00">#5 New</text>
</g>
<!-- node4&#45;&gt;node5 -->
<g id="edge9" class="edge">
<title>node4&#45;&gt;node5</title>
<path fill="none" stroke="black" d="M484.04,-583.81C493.06,-574.61 505.33,-563.15 516.78,-553.17"/>
<polygon fill="black" stroke="black" points="519.21,-555.7 524.53,-546.54 514.66,-550.38 519.21,-555.7"/>
<text text-anchor="middle" x="516.25" y="-561.04" font-family="Times,serif" font-size="14.00">*0</text>
</g>
<!-- node4&#45;&gt;node5 -->
<g id="edge10" class="edge">
<title>node4&#45;&gt;node5</title>
<path fill="none" stroke="green" d="M495.8,-583.81C506.38,-574.92 518.5,-563.91 528.5,-554.17"/>
<polygon fill="green" stroke="green" points="531.06,-556.57 535.67,-547.03 526.12,-551.6 531.06,-556.57"/>
</g>
<!-- node3 -->
<g id="node3" class="node">
<title>node3</title>
<polygon fill="lightgreen" stroke="black" points="736.31,-667.54 736.31,-682.46 616.79,-693 447.77,-693 328.25,-682.46 328.25,-667.54 447.77,-657 616.79,-657 736.31,-667.54"/>
<text text-anchor="middle" x="532.28" y="-671.3" font-family="Times,serif" font-size="14.00">#3 Class FieldAccessTest$Destination</text>
</g>
<!-- node3&#45;&gt;node4 -->
<g id="edge1" class="edge">
<title>node3&#45;&gt;node4</title>
<path fill="none" stroke="black" d="M517.51,-656.81C510.02,-648.09 500.78,-637.34 492.54,-627.75"/>
<polygon fill="black" stroke="black" points="495.08,-625.33 485.91,-620.03 489.77,-629.89 495.08,-625.33"/>
<text text-anchor="middle" x="504.13" y="-624.57" font-family="Times,serif" font-size="14.00">*0</text>
</g>
<!-- node2&#45;&gt;node4 -->
<g id="edge2" class="edge">
<title>node2&#45;&gt;node4</title>
<path fill="none" stroke="red" d="M355.32,-729.85C341.47,-720.91 326.93,-708.57 319.28,-693 310.65,-675.45 307.63,-664.7 319.28,-649 339.74,-621.43 376.26,-609.8 408.37,-605.12"/>
<polygon fill="red" stroke="red" points="409.13,-608.55 418.62,-603.84 408.26,-601.61 409.13,-608.55"/>
</g>
<!-- node2&#45;&gt;node3 -->
<g id="edge5" class="edge">
<title>node2&#45;&gt;node3</title>
<path fill="none" stroke="black" stroke-dasharray="1,5" d="M423.53,-729.99C443.11,-720.27 467.86,-707.99 488.8,-697.59"/>
<polygon fill="black" stroke="black" points="490.41,-700.7 497.81,-693.11 487.3,-694.43 490.41,-700.7"/>
</g>
<!-- node8 -->
<g id="node11" class="node">
<title>node8</title>
<polygon fill="lightgrey" stroke="black" points="512.78,-328 407.78,-328 407.78,-292 512.78,-292 512.78,-328"/>
<text text-anchor="middle" x="460.28" y="-306.3" font-family="Times,serif" font-size="14.00">#8 ClassInit</text>
</g>
<!-- node6&#45;&gt;node8 -->
<g id="edge21" class="edge">
<title>node6&#45;&gt;node8</title>
<path fill="none" stroke="red" d="M360.43,-437.98C320.03,-429.01 281.06,-416.6 269.28,-401 257.49,-385.4 257.27,-372.43 269.28,-357 284.78,-337.09 348.11,-324.44 397.73,-317.55"/>
<polygon fill="red" stroke="red" points="398.32,-321 407.77,-316.2 397.39,-314.06 398.32,-321"/>
</g>
<!-- node6&#45;&gt;node8 -->
<g id="edge22" class="edge">
<title>node6&#45;&gt;node8</title>
<path fill="none" stroke="green" d="M376.84,-437.98C338.03,-429.01 299.06,-416.6 287.28,-401 275.49,-385.4 275.27,-372.43 287.28,-357 301.21,-339.11 353.78,-327.08 397.41,-319.82"/>
<polygon fill="green" stroke="green" points="398.11,-323.25 407.42,-318.21 397,-316.34 398.11,-323.25"/>
</g>
<!-- node7 -->
<g id="node12" class="node">
<title>node7</title>
<polygon fill="lightgreen" stroke="black" points="648.88,-375.54 648.88,-390.46 543.09,-401 393.48,-401 287.68,-390.46 287.68,-375.54 393.48,-365 543.09,-365 648.88,-375.54"/>
<text text-anchor="middle" x="468.28" y="-379.3" font-family="Times,serif" font-size="14.00">#7 Class FieldAccessTest$Source</text>
</g>
<!-- node6&#45;&gt;node7 -->
<g id="edge23" class="edge">
<title>node6&#45;&gt;node7</title>
<path fill="none" stroke="black" stroke-dasharray="1,5" d="M468.28,-437.81C468.28,-429.79 468.28,-420.05 468.28,-411.07"/>
<polygon fill="black" stroke="black" points="471.78,-411.03 468.28,-401.03 464.78,-411.03 471.78,-411.03"/>
</g>
<!-- node5&#45;&gt;node6 -->
<g id="edge6" class="edge">
<title>node5&#45;&gt;node6</title>
<path fill="none" stroke="black" d="M523.92,-511.53C512.75,-502.5 499.73,-491.13 489.03,-481.12"/>
<polygon fill="black" stroke="black" points="491.35,-478.5 481.7,-474.12 486.51,-483.56 491.35,-478.5"/>
<text text-anchor="middle" x="500.64" y="-476.83" font-family="Times,serif" font-size="14.00">*0</text>
</g>
<!-- node5&#45;&gt;node6 -->
<g id="edge8" class="edge">
<title>node5&#45;&gt;node6</title>
<path fill="none" stroke="green" d="M534.79,-510.81C525.52,-501.74 513,-490.48 501.27,-480.6"/>
<polygon fill="green" stroke="green" points="503.27,-477.71 493.33,-474.03 498.8,-483.1 503.27,-477.71"/>
</g>
<!-- node12 -->
<g id="node7" class="node">
<title>node12</title>
<polygon fill="lightgrey" stroke="black" points="644.78,-109 393.78,-109 393.78,-73 644.78,-73 644.78,-109"/>
<text text-anchor="middle" x="519.28" y="-87.3" font-family="Times,serif" font-size="14.00">#12 PutField : short_field : short</text>
</g>
<!-- node5&#45;&gt;node12 -->
<g id="edge11" class="edge">
<title>node5&#45;&gt;node12</title>
<path fill="none" stroke="black" d="M598.52,-520.78C634.75,-512.41 677.28,-494.58 677.28,-457 677.28,-457 677.28,-457 677.28,-163 677.28,-139.69 662.79,-123.98 642.58,-113.41"/>
<polygon fill="black" stroke="black" points="643.81,-110.12 633.27,-109.05 640.84,-116.46 643.81,-110.12"/>
<text text-anchor="middle" x="653.27" y="-105.38" font-family="Times,serif" font-size="14.00">*0</text>
</g>
<!-- node13 -->
<g id="node13" class="node">
<title>node13</title>
<polygon fill="lightgrey" stroke="black" points="569.78,-36 468.78,-36 468.78,0 569.78,0 569.78,-36"/>
<text text-anchor="middle" x="519.28" y="-14.3" font-family="Times,serif" font-size="14.00">#13 Return</text>
</g>
<!-- node12&#45;&gt;node13 -->
<g id="edge26" class="edge">
<title>node12&#45;&gt;node13</title>
<path fill="none" stroke="red" d="M513.4,-72.81C512.56,-64.79 512.33,-55.05 512.7,-46.07"/>
<polygon fill="red" stroke="red" points="516.2,-46.25 513.42,-36.03 509.22,-45.75 516.2,-46.25"/>
</g>
<!-- node12&#45;&gt;node13 -->
<g id="edge27" class="edge">
<title>node12&#45;&gt;node13</title>
<path fill="none" stroke="green" d="M525.16,-72.81C526,-64.79 526.23,-55.05 525.86,-46.07"/>
<polygon fill="green" stroke="green" points="529.34,-45.75 525.14,-36.03 522.36,-46.25 529.34,-45.75"/>
</g>
<!-- node11 -->
<g id="node8" class="node">
<title>node11</title>
<polygon fill="orange" stroke="black" points="354.34,-156.54 354.34,-171.46 250.62,-182 103.94,-182 0.22,-171.46 0.22,-156.54 103.94,-146 250.62,-146 354.34,-156.54"/>
<text text-anchor="middle" x="177.28" y="-160.3" font-family="Times,serif" font-size="14.00">#11 GetField : short_field : short</text>
</g>
<!-- node11&#45;&gt;node12 -->
<g id="edge12" class="edge">
<title>node11&#45;&gt;node12</title>
<path fill="none" stroke="black" d="M252.49,-146.17C302.21,-135.62 367.84,-121.98 421.58,-111.03"/>
<polygon fill="black" stroke="black" points="422.37,-114.44 431.47,-109.01 420.97,-107.58 422.37,-114.44"/>
<text text-anchor="middle" x="415.39" y="-117.21" font-family="Times,serif" font-size="14.00">*1</text>
</g>
<!-- node11&#45;&gt;node12 -->
<g id="edge13" class="edge">
<title>node11&#45;&gt;node12</title>
<path fill="none" stroke="green" d="M260.65,-146.89C312.95,-136.28 380.21,-122.34 433.05,-111.16"/>
<polygon fill="green" stroke="green" points="434.02,-114.53 443.08,-109.04 432.57,-107.69 434.02,-114.53"/>
</g>
<!-- node10 -->
<g id="node9" class="node">
<title>node10</title>
<polygon fill="lightgrey" stroke="black" points="648.78,-182 389.78,-182 389.78,-146 648.78,-146 648.78,-182"/>
<text text-anchor="middle" x="519.28" y="-160.3" font-family="Times,serif" font-size="14.00">#10 Invoke special &lt;init&gt; : ()void</text>
</g>
<!-- node10&#45;&gt;node12 -->
<g id="edge14" class="edge">
<title>node10&#45;&gt;node12</title>
<path fill="none" stroke="red" d="M519.28,-145.81C519.28,-137.79 519.28,-128.05 519.28,-119.07"/>
<polygon fill="red" stroke="red" points="522.78,-119.03 519.28,-109.03 515.78,-119.03 522.78,-119.03"/>
</g>
<!-- node10&#45;&gt;node11 -->
<g id="edge25" class="edge">
<title>node10&#45;&gt;node11</title>
<path fill="none" stroke="green" d="M389.68,-164C381.37,-164 373.07,-164 364.76,-164"/>
<polygon fill="green" stroke="green" points="364.63,-160.5 354.63,-164 364.63,-167.5 364.63,-160.5"/>
</g>
<!-- node9 -->
<g id="node10" class="node">
<title>node9</title>
<polygon fill="orange" stroke="black" points="491.4,-229.54 491.4,-244.46 460.87,-255 417.69,-255 387.16,-244.46 387.16,-229.54 417.69,-219 460.87,-219 491.4,-229.54"/>
<text text-anchor="middle" x="439.28" y="-233.3" font-family="Times,serif" font-size="14.00">#9 New</text>
</g>
<!-- node9&#45;&gt;node11 -->
<g id="edge24" class="edge">
<title>node9&#45;&gt;node11</title>
<path fill="none" stroke="black" d="M399.49,-225.22C359.91,-214.49 298.29,-197.79 249.97,-184.7"/>
<polygon fill="black" stroke="black" points="250.75,-181.28 240.18,-182.05 248.92,-188.04 250.75,-181.28"/>
<text text-anchor="middle" x="259.89" y="-174.93" font-family="Times,serif" font-size="14.00">*0</text>
</g>
<!-- node9&#45;&gt;node10 -->
<g id="edge15" class="edge">
<title>node9&#45;&gt;node10</title>
<path fill="none" stroke="black" d="M452.77,-218.81C462.04,-209.74 474.56,-198.48 486.29,-188.6"/>
<polygon fill="black" stroke="black" points="488.76,-191.1 494.23,-182.03 484.29,-185.71 488.76,-191.1"/>
<text text-anchor="middle" x="485.65" y="-196.4" font-family="Times,serif" font-size="14.00">*0</text>
</g>
<!-- node9&#45;&gt;node10 -->
<g id="edge17" class="edge">
<title>node9&#45;&gt;node10</title>
<path fill="none" stroke="green" d="M463.64,-219.53C474.81,-210.5 487.83,-199.13 498.53,-189.12"/>
<polygon fill="green" stroke="green" points="501.05,-191.56 505.86,-182.12 496.21,-186.5 501.05,-191.56"/>
</g>
<!-- node8&#45;&gt;node10 -->
<g id="edge16" class="edge">
<title>node8&#45;&gt;node10</title>
<path fill="none" stroke="red" d="M476.08,-291.74C484.46,-281.7 494.25,-268.41 500.28,-255 509.26,-235.03 514.07,-210.64 516.6,-192.29"/>
<polygon fill="red" stroke="red" points="520.09,-192.62 517.85,-182.26 513.14,-191.76 520.09,-192.62"/>
</g>
<!-- node8&#45;&gt;node9 -->
<g id="edge18" class="edge">
<title>node8&#45;&gt;node9</title>
<path fill="none" stroke="black" d="M449.32,-291.81C446.11,-283.79 442.99,-274.05 440.71,-265.07"/>
<polygon fill="black" stroke="black" points="444.06,-264.02 438.46,-255.03 437.23,-265.55 444.06,-264.02"/>
<text text-anchor="middle" x="450.67" y="-267.16" font-family="Times,serif" font-size="14.00">*0</text>
</g>
<!-- node8&#45;&gt;node9 -->
<g id="edge19" class="edge">
<title>node8&#45;&gt;node9</title>
<path fill="none" stroke="green" d="M461.07,-291.81C459.51,-283.62 456.78,-273.62 453.67,-264.48"/>
<polygon fill="green" stroke="green" points="456.92,-263.2 450.18,-255.03 450.36,-265.62 456.92,-263.2"/>
</g>
<!-- node7&#45;&gt;node8 -->
<g id="edge20" class="edge">
<title>node7&#45;&gt;node8</title>
<path fill="none" stroke="black" d="M466.34,-364.81C465.44,-356.79 464.34,-347.05 463.33,-338.07"/>
<polygon fill="black" stroke="black" points="466.8,-337.57 462.2,-328.03 459.84,-338.36 466.8,-337.57"/>
<text text-anchor="middle" x="472.63" y="-341.39" font-family="Times,serif" font-size="14.00">*0</text>
</g>
<!-- c0 -->
<!-- c1 -->
<!-- c0&#45;&gt;c1 -->
<g id="edge28" class="edge">
<title>c0&#45;&gt;c1</title>
<path fill="none" stroke="red" d="M1218.17,-830C1229.39,-830 1287.52,-830 1313.14,-830"/>
<polygon fill="red" stroke="red" points="1313.34,-833.5 1323.34,-830 1313.34,-826.5 1313.34,-833.5"/>
<text text-anchor="middle" x="1270.78" y="-836.8" font-family="Times,serif" font-size="14.00">Control flow</text>
</g>
<!-- c2 -->
<!-- c3 -->
<!-- c2&#45;&gt;c3 -->
<g id="edge29" class="edge">
<title>c2&#45;&gt;c3</title>
<path fill="none" stroke="red" stroke-dasharray="5,2" d="M1011.36,-830C1028.33,-830 1144.49,-830 1182.36,-830"/>
<polygon fill="red" stroke="red" points="1182.45,-833.5 1192.45,-830 1182.45,-826.5 1182.45,-833.5"/>
<text text-anchor="middle" x="1101.78" y="-836.8" font-family="Times,serif" font-size="14.00">Control flow back edge</text>
</g>
<!-- d0 -->
<!-- d1 -->
<!-- d0&#45;&gt;d1 -->
<g id="edge30" class="edge">
<title>d0&#45;&gt;d1</title>
<path fill="none" stroke="black" d="M900.14,-830C909.69,-830 953.59,-830 975.2,-830"/>
<polygon fill="black" stroke="black" points="975.43,-833.5 985.43,-830 975.43,-826.5 975.43,-833.5"/>
<text text-anchor="middle" x="942.78" y="-836.8" font-family="Times,serif" font-size="14.00">Data flow</text>
</g>
<!-- d2 -->
<!-- d3 -->
<!-- d2&#45;&gt;d3 -->
<g id="edge31" class="edge">
<title>d2&#45;&gt;d3</title>
<path fill="none" stroke="black" stroke-dasharray="1,5" d="M774.09,-830C784.74,-830 839.74,-830 864.36,-830"/>
<polygon fill="black" stroke="black" points="864.43,-833.5 874.43,-830 864.43,-826.5 864.43,-833.5"/>
<text text-anchor="middle" x="824.28" y="-836.8" font-family="Times,serif" font-size="14.00">Declaration</text>
</g>
<!-- d4 -->
<!-- d5 -->
<!-- d4&#45;&gt;d5 -->
<g id="edge32" class="edge">
<title>d4&#45;&gt;d5</title>
<path fill="none" stroke="blue" d="M631.38,-830C644,-830 710.16,-830 737.96,-830"/>
<polygon fill="blue" stroke="blue" points="738.12,-833.5 748.12,-830 738.12,-826.5 738.12,-833.5"/>
<text text-anchor="middle" x="689.78" y="-836.8" font-family="Times,serif" font-size="14.00">PHI Data flow</text>
</g>
<!-- d6 -->
<!-- d7 -->
<!-- d6&#45;&gt;d7 -->
<g id="edge33" class="edge">
<title>d6&#45;&gt;d7</title>
<path fill="none" stroke="green" d="M494.28,-830C506.22,-830 568.58,-830 595.21,-830"/>
<polygon fill="green" stroke="green" points="595.23,-833.5 605.23,-830 595.23,-826.5 595.23,-833.5"/>
<text text-anchor="middle" x="549.78" y="-836.8" font-family="Times,serif" font-size="14.00">Memory flow</text>
</g>
</g>
</svg>
