<?xml version="1.0" encoding="UTF-8" standalone="no"?>
<!DOCTYPE svg PUBLIC "-//W3C//DTD SVG 1.1//EN"
 "http://www.w3.org/Graphics/SVG/1.1/DTD/svg11.dtd">
<!-- Generated by graphviz version 2.43.0 (0)
 -->
<!-- Title: %3 Pages: 1 -->
<svg width="1837pt" height="662pt"
 viewBox="0.00 0.00 1836.66 662.00" xmlns="http://www.w3.org/2000/svg" xmlns:xlink="http://www.w3.org/1999/xlink">
<g id="graph0" class="graph" transform="scale(1 1) rotate(0) translate(4 658)">
<title>%3</title>
<polygon fill="white" stroke="transparent" points="-4,4 -4,-658 1832.66,-658 1832.66,4 -4,4"/>
<g id="clust1" class="cluster">
<title>cluster_0</title>
<polygon fill="none" stroke="lightgray" points="155.66,-503 155.66,-646 959.66,-646 959.66,-503 155.66,-503"/>
</g>
<g id="clust2" class="cluster">
<title>cluster_000</title>
<polygon fill="none" stroke="black" points="967.66,-601.2 967.66,-643.8 1820.66,-643.8 1820.66,-601.2 967.66,-601.2"/>
<text text-anchor="middle" x="1394.16" y="-628.6" font-family="Times,serif" font-size="14.00">Legend</text>
</g>
<!-- node0 -->
<g id="node1" class="node">
<title>node0</title>
<polygon fill="lightgrey" stroke="transparent" points="451.16,-638 284.16,-638 284.16,-584 451.16,-584 451.16,-638"/>
<polygon fill="none" stroke="black" points="284.66,-611 284.66,-638 451.66,-638 451.66,-611 284.66,-611"/>
<text text-anchor="start" x="327.66" y="-620.8" font-family="Times,serif" font-size="14.00">#0 Method</text>
<polygon fill="yellow" stroke="transparent" points="284.66,-584 284.66,-611 451.66,-611 451.66,-584 284.66,-584"/>
<polygon fill="none" stroke="black" points="284.66,-584 284.66,-611 451.66,-611 451.66,-584 284.66,-584"/>
<text text-anchor="start" x="290.66" y="-593.8" font-family="Times,serif" font-size="14.00">this : FieldAccessTest</text>
</g>
<!-- node5 -->
<g id="node2" class="node">
<title>node5</title>
<polygon fill="lightgrey" stroke="black" points="420.16,-474 315.16,-474 315.16,-438 420.16,-438 420.16,-474"/>
<text text-anchor="middle" x="367.66" y="-452.3" font-family="Times,serif" font-size="14.00">#5 ClassInit</text>
</g>
<!-- node0&#45;&gt;node5 -->
<g id="edge3" class="edge">
<title>node0&#45;&gt;node5</title>
<path fill="none" stroke="green" d="M283.96,-610.32C157.14,-608.04 -61.12,-591.65 16.66,-503 35.34,-481.72 209.02,-467.24 304.86,-460.8"/>
<polygon fill="green" stroke="green" points="305.27,-464.28 315.01,-460.12 304.8,-457.29 305.27,-464.28"/>
</g>
<!-- node4 -->
<g id="node3" class="node">
<title>node4</title>
<polygon fill="lightgreen" stroke="black" points="571.69,-521.54 571.69,-536.46 452.17,-547 283.15,-547 163.64,-536.46 163.64,-521.54 283.15,-511 452.17,-511 571.69,-521.54"/>
<text text-anchor="middle" x="367.66" y="-525.3" font-family="Times,serif" font-size="14.00">#4 Class FieldAccessTest$Destination</text>
</g>
<!-- node0&#45;&gt;node4 -->
<g id="edge5" class="edge">
<title>node0&#45;&gt;node4</title>
<path fill="none" stroke="black" stroke-dasharray="1,5" d="M367.66,-583.81C367.66,-575.35 367.66,-565.95 367.66,-557.4"/>
<polygon fill="black" stroke="black" points="371.16,-557.17 367.66,-547.17 364.16,-557.17 371.16,-557.17"/>
</g>
<!-- node2 -->
<g id="node4" class="node">
<title>node2</title>
<polygon fill="lightgrey" stroke="black" points="145.16,-547 26.16,-547 26.16,-511 145.16,-511 145.16,-547"/>
<text text-anchor="middle" x="85.66" y="-525.3" font-family="Times,serif" font-size="14.00">#2 LabelNode</text>
</g>
<!-- node0&#45;&gt;node2 -->
<g id="edge4" class="edge">
<title>node0&#45;&gt;node2</title>
<path fill="none" stroke="red" d="M283.82,-586.21C242.81,-574.58 194.03,-560.74 155.14,-549.71"/>
<polygon fill="red" stroke="red" points="156.05,-546.33 145.47,-546.97 154.14,-553.06 156.05,-546.33"/>
</g>
<!-- node3 -->
<g id="node11" class="node">
<title>node3</title>
<polygon fill="lightgreen" stroke="black" points="951.26,-521.54 951.26,-536.46 845.47,-547 695.86,-547 590.07,-536.46 590.07,-521.54 695.86,-511 845.47,-511 951.26,-521.54"/>
<text text-anchor="middle" x="770.66" y="-525.3" font-family="Times,serif" font-size="14.00">#3 Class FieldAccessTest$Source</text>
</g>
<!-- node0&#45;&gt;node3 -->
<g id="edge24" class="edge">
<title>node0&#45;&gt;node3</title>
<path fill="none" stroke="black" stroke-dasharray="1,5" d="M451.17,-593.42C517.42,-580.27 609.95,-561.9 678.39,-548.32"/>
<polygon fill="black" stroke="black" points="679.18,-551.73 688.3,-546.35 677.81,-544.86 679.18,-551.73"/>
</g>
<!-- node6 -->
<g id="node5" class="node">
<title>node6</title>
<polygon fill="orange" stroke="black" points="419.78,-375.54 419.78,-390.46 389.25,-401 346.08,-401 315.55,-390.46 315.55,-375.54 346.08,-365 389.25,-365 419.78,-375.54"/>
<text text-anchor="middle" x="367.66" y="-379.3" font-family="Times,serif" font-size="14.00">#6 New</text>
</g>
<!-- node5&#45;&gt;node6 -->
<g id="edge6" class="edge">
<title>node5&#45;&gt;node6</title>
<path fill="none" stroke="black" d="M361.79,-437.81C360.95,-429.79 360.71,-420.05 361.09,-411.07"/>
<polygon fill="black" stroke="black" points="364.58,-411.25 361.8,-401.03 357.6,-410.75 364.58,-411.25"/>
<text text-anchor="middle" x="368.94" y="-416.01" font-family="Times,serif" font-size="14.00">*0</text>
</g>
<!-- node5&#45;&gt;node6 -->
<g id="edge7" class="edge">
<title>node5&#45;&gt;node6</title>
<path fill="none" stroke="green" d="M373.54,-437.81C374.38,-429.79 374.61,-420.05 374.24,-411.07"/>
<polygon fill="green" stroke="green" points="377.73,-410.75 373.53,-401.03 370.75,-411.25 377.73,-410.75"/>
</g>
<!-- node7 -->
<g id="node12" class="node">
<title>node7</title>
<polygon fill="lightgrey" stroke="black" points="578.66,-328 328.66,-328 328.66,-292 578.66,-292 578.66,-328"/>
<text text-anchor="middle" x="453.66" y="-306.3" font-family="Times,serif" font-size="14.00">#7 Invoke special &lt;init&gt; : ()void</text>
</g>
<!-- node5&#45;&gt;node7 -->
<g id="edge22" class="edge">
<title>node5&#45;&gt;node7</title>
<path fill="none" stroke="red" d="M393.1,-437.9C405.47,-428.37 419.59,-415.51 428.66,-401 440.65,-381.83 446.99,-356.85 450.29,-338.07"/>
<polygon fill="red" stroke="red" points="453.76,-338.51 451.86,-328.09 446.85,-337.42 453.76,-338.51"/>
</g>
<!-- node4&#45;&gt;node5 -->
<g id="edge1" class="edge">
<title>node4&#45;&gt;node5</title>
<path fill="none" stroke="black" d="M367.66,-510.81C367.66,-502.79 367.66,-493.05 367.66,-484.07"/>
<polygon fill="black" stroke="black" points="371.16,-484.03 367.66,-474.03 364.16,-484.03 371.16,-484.03"/>
<text text-anchor="middle" x="376.12" y="-488.45" font-family="Times,serif" font-size="14.00">*0</text>
</g>
<!-- node2&#45;&gt;node5 -->
<g id="edge2" class="edge">
<title>node2&#45;&gt;node5</title>
<path fill="none" stroke="red" d="M127.94,-510.9C135.76,-508.05 143.91,-505.28 151.66,-503 202.51,-488.05 261.42,-475.83 304.87,-467.76"/>
<polygon fill="red" stroke="red" points="305.52,-471.19 314.73,-465.95 304.26,-464.31 305.52,-471.19"/>
</g>
<!-- node12 -->
<g id="node6" class="node">
<title>node12</title>
<polygon fill="lightgrey" stroke="black" points="486.16,-36 235.16,-36 235.16,0 486.16,0 486.16,-36"/>
<text text-anchor="middle" x="360.66" y="-14.3" font-family="Times,serif" font-size="14.00">#12 PutField : short_field : short</text>
</g>
<!-- node6&#45;&gt;node12 -->
<g id="edge8" class="edge">
<title>node6&#45;&gt;node12</title>
<path fill="none" stroke="black" d="M340.03,-366.88C321.57,-354.55 300.66,-335.24 300.66,-311 300.66,-311 300.66,-311 300.66,-90 300.66,-71.38 312.85,-55.13 326.23,-42.88"/>
<polygon fill="black" stroke="black" points="328.81,-45.29 334.17,-36.15 324.28,-39.95 328.81,-45.29"/>
<text text-anchor="middle" x="325.81" y="-50.62" font-family="Times,serif" font-size="14.00">*0</text>
</g>
<!-- node6&#45;&gt;node7 -->
<g id="edge21" class="edge">
<title>node6&#45;&gt;node7</title>
<path fill="none" stroke="black" d="M382.6,-364.81C392.74,-355.66 406.37,-344.26 419.04,-334.32"/>
<polygon fill="black" stroke="black" points="421.4,-336.91 427.18,-328.03 417.12,-331.37 421.4,-336.91"/>
<text text-anchor="middle" x="418" y="-342.1" font-family="Times,serif" font-size="14.00">*0</text>
</g>
<!-- node6&#45;&gt;node7 -->
<g id="edge23" class="edge">
<title>node6&#45;&gt;node7</title>
<path fill="none" stroke="green" d="M392.94,-365.89C405.1,-356.71 419.45,-345.05 431.21,-334.83"/>
<polygon fill="green" stroke="green" points="433.72,-337.29 438.89,-328.04 429.08,-332.04 433.72,-337.29"/>
</g>
<!-- node13 -->
<g id="node13" class="node">
<title>node13</title>
<polygon fill="lightgrey" stroke="black" points="898.16,-36 797.16,-36 797.16,0 898.16,0 898.16,-36"/>
<text text-anchor="middle" x="847.66" y="-14.3" font-family="Times,serif" font-size="14.00">#13 Return</text>
</g>
<!-- node12&#45;&gt;node13 -->
<g id="edge26" class="edge">
<title>node12&#45;&gt;node13</title>
<path fill="none" stroke="green" d="M486.22,-18C586.42,-18 686.62,-18 786.83,-18"/>
<polygon fill="green" stroke="green" points="786.84,-21.5 796.84,-18 786.84,-14.5 786.84,-21.5"/>
</g>
<!-- node11 -->
<g id="node7" class="node">
<title>node11</title>
<polygon fill="orange" stroke="black" points="682.72,-83.54 682.72,-98.46 579,-109 432.32,-109 328.6,-98.46 328.6,-83.54 432.32,-73 579,-73 682.72,-83.54"/>
<text text-anchor="middle" x="505.66" y="-87.3" font-family="Times,serif" font-size="14.00">#11 GetField : short_field : short</text>
</g>
<!-- node11&#45;&gt;node12 -->
<g id="edge9" class="edge">
<title>node11&#45;&gt;node12</title>
<path fill="none" stroke="black" d="M465.07,-72.99C444.28,-63.32 419.19,-51.1 398.77,-40.73"/>
<polygon fill="black" stroke="black" points="400.24,-37.55 389.74,-36.11 397.05,-43.78 400.24,-37.55"/>
<text text-anchor="middle" x="409.73" y="-33.15" font-family="Times,serif" font-size="14.00">*1</text>
</g>
<!-- node11&#45;&gt;node12 -->
<g id="edge10" class="edge">
<title>node11&#45;&gt;node12</title>
<path fill="none" stroke="green" d="M476.79,-72.99C457.89,-63.23 432.79,-50.88 410.73,-40.45"/>
<polygon fill="green" stroke="green" points="412.02,-37.19 401.48,-36.11 409.05,-43.53 412.02,-37.19"/>
</g>
<!-- node9 -->
<g id="node8" class="node">
<title>node9</title>
<polygon fill="orange" stroke="black" points="819.78,-156.54 819.78,-171.46 789.25,-182 746.08,-182 715.55,-171.46 715.55,-156.54 746.08,-146 789.25,-146 819.78,-156.54"/>
<text text-anchor="middle" x="767.66" y="-160.3" font-family="Times,serif" font-size="14.00">#9 New</text>
</g>
<!-- node9&#45;&gt;node11 -->
<g id="edge11" class="edge">
<title>node9&#45;&gt;node11</title>
<path fill="none" stroke="black" d="M727.87,-152.22C688.3,-141.49 626.67,-124.79 578.35,-111.7"/>
<polygon fill="black" stroke="black" points="579.13,-108.28 568.57,-109.05 577.3,-115.04 579.13,-108.28"/>
<text text-anchor="middle" x="588.27" y="-101.93" font-family="Times,serif" font-size="14.00">*0</text>
</g>
<!-- node10 -->
<g id="node9" class="node">
<title>node10</title>
<polygon fill="lightgrey" stroke="black" points="977.16,-109 718.16,-109 718.16,-73 977.16,-73 977.16,-109"/>
<text text-anchor="middle" x="847.66" y="-87.3" font-family="Times,serif" font-size="14.00">#10 Invoke special &lt;init&gt; : ()void</text>
</g>
<!-- node9&#45;&gt;node10 -->
<g id="edge13" class="edge">
<title>node9&#45;&gt;node10</title>
<path fill="none" stroke="black" d="M781.15,-145.81C790.42,-136.74 802.94,-125.48 814.67,-115.6"/>
<polygon fill="black" stroke="black" points="817.14,-118.1 822.61,-109.03 812.68,-112.71 817.14,-118.1"/>
<text text-anchor="middle" x="814.04" y="-123.4" font-family="Times,serif" font-size="14.00">*0</text>
</g>
<!-- node9&#45;&gt;node10 -->
<g id="edge15" class="edge">
<title>node9&#45;&gt;node10</title>
<path fill="none" stroke="green" d="M792.02,-146.53C803.2,-137.5 816.21,-126.13 826.92,-116.12"/>
<polygon fill="green" stroke="green" points="829.43,-118.56 834.25,-109.12 824.6,-113.5 829.43,-118.56"/>
</g>
<!-- node10&#45;&gt;node11 -->
<g id="edge12" class="edge">
<title>node10&#45;&gt;node11</title>
<path fill="none" stroke="green" d="M718.06,-91C709.76,-91 701.45,-91 693.14,-91"/>
<polygon fill="green" stroke="green" points="693.01,-87.5 683.01,-91 693.01,-94.5 693.01,-87.5"/>
</g>
<!-- node10&#45;&gt;node13 -->
<g id="edge25" class="edge">
<title>node10&#45;&gt;node13</title>
<path fill="none" stroke="red" d="M847.66,-72.81C847.66,-64.79 847.66,-55.05 847.66,-46.07"/>
<polygon fill="red" stroke="red" points="851.16,-46.03 847.66,-36.03 844.16,-46.03 851.16,-46.03"/>
</g>
<!-- node8 -->
<g id="node10" class="node">
<title>node8</title>
<polygon fill="lightgrey" stroke="black" points="822.16,-255 717.16,-255 717.16,-219 822.16,-219 822.16,-255"/>
<text text-anchor="middle" x="769.66" y="-233.3" font-family="Times,serif" font-size="14.00">#8 ClassInit</text>
</g>
<!-- node8&#45;&gt;node9 -->
<g id="edge16" class="edge">
<title>node8&#45;&gt;node9</title>
<path fill="none" stroke="black" d="M763.3,-218.81C762.24,-210.79 761.73,-201.05 761.85,-192.07"/>
<polygon fill="black" stroke="black" points="765.35,-192.17 762.28,-182.03 758.35,-191.87 765.35,-192.17"/>
<text text-anchor="middle" x="769.94" y="-196.8" font-family="Times,serif" font-size="14.00">*0</text>
</g>
<!-- node8&#45;&gt;node9 -->
<g id="edge17" class="edge">
<title>node8&#45;&gt;node9</title>
<path fill="none" stroke="green" d="M775.06,-218.81C775.67,-210.79 775.63,-201.05 775,-192.07"/>
<polygon fill="green" stroke="green" points="778.48,-191.63 774,-182.03 771.51,-192.33 778.48,-191.63"/>
</g>
<!-- node8&#45;&gt;node10 -->
<g id="edge14" class="edge">
<title>node8&#45;&gt;node10</title>
<path fill="none" stroke="red" d="M794.63,-218.96C806.7,-209.45 820.33,-196.59 828.66,-182 839.65,-162.76 844.31,-137.93 846.27,-119.23"/>
<polygon fill="red" stroke="red" points="849.78,-119.28 847.14,-109.01 842.81,-118.68 849.78,-119.28"/>
</g>
<!-- node3&#45;&gt;node8 -->
<g id="edge18" class="edge">
<title>node3&#45;&gt;node8</title>
<path fill="none" stroke="black" d="M770.29,-510.78C770,-496.41 769.66,-475.37 769.66,-457 769.66,-457 769.66,-457 769.66,-309 769.66,-294.65 769.66,-278.67 769.66,-265.51"/>
<polygon fill="black" stroke="black" points="773.16,-265.22 769.66,-255.22 766.16,-265.22 773.16,-265.22"/>
<text text-anchor="middle" x="778.12" y="-269.64" font-family="Times,serif" font-size="14.00">*0</text>
</g>
<!-- node7&#45;&gt;node8 -->
<g id="edge19" class="edge">
<title>node7&#45;&gt;node8</title>
<path fill="none" stroke="red" d="M523.49,-291.99C578.42,-279.35 654.17,-262.37 707.13,-250.85"/>
<polygon fill="red" stroke="red" points="708.04,-254.23 717.07,-248.69 706.56,-247.39 708.04,-254.23"/>
</g>
<!-- node7&#45;&gt;node8 -->
<g id="edge20" class="edge">
<title>node7&#45;&gt;node8</title>
<path fill="none" stroke="green" d="M535.21,-291.99C588.73,-280.25 657.62,-264.76 706.88,-253.38"/>
<polygon fill="green" stroke="green" points="707.82,-256.76 716.77,-251.09 706.24,-249.94 707.82,-256.76"/>
</g>
<!-- c0 -->
<!-- c1 -->
<!-- c0&#45;&gt;c1 -->
<g id="edge27" class="edge">
<title>c0&#45;&gt;c1</title>
<path fill="none" stroke="red" d="M1703.56,-611C1714.77,-611 1772.91,-611 1798.52,-611"/>
<polygon fill="red" stroke="red" points="1798.72,-614.5 1808.72,-611 1798.72,-607.5 1798.72,-614.5"/>
<text text-anchor="middle" x="1756.16" y="-617.8" font-family="Times,serif" font-size="14.00">Control flow</text>
</g>
<!-- c2 -->
<!-- c3 -->
<!-- c2&#45;&gt;c3 -->
<g id="edge28" class="edge">
<title>c2&#45;&gt;c3</title>
<path fill="none" stroke="red" stroke-dasharray="5,2" d="M1496.74,-611C1513.71,-611 1629.87,-611 1667.75,-611"/>
<polygon fill="red" stroke="red" points="1667.83,-614.5 1677.83,-611 1667.83,-607.5 1667.83,-614.5"/>
<text text-anchor="middle" x="1587.16" y="-617.8" font-family="Times,serif" font-size="14.00">Control flow back edge</text>
</g>
<!-- d0 -->
<!-- d1 -->
<!-- d0&#45;&gt;d1 -->
<g id="edge29" class="edge">
<title>d0&#45;&gt;d1</title>
<path fill="none" stroke="black" d="M1385.52,-611C1395.07,-611 1438.97,-611 1460.58,-611"/>
<polygon fill="black" stroke="black" points="1460.81,-614.5 1470.81,-611 1460.81,-607.5 1460.81,-614.5"/>
<text text-anchor="middle" x="1428.16" y="-617.8" font-family="Times,serif" font-size="14.00">Data flow</text>
</g>
<!-- d2 -->
<!-- d3 -->
<!-- d2&#45;&gt;d3 -->
<g id="edge30" class="edge">
<title>d2&#45;&gt;d3</title>
<path fill="none" stroke="black" stroke-dasharray="1,5" d="M1259.47,-611C1270.12,-611 1325.13,-611 1349.74,-611"/>
<polygon fill="black" stroke="black" points="1349.81,-614.5 1359.81,-611 1349.81,-607.5 1349.81,-614.5"/>
<text text-anchor="middle" x="1309.66" y="-617.8" font-family="Times,serif" font-size="14.00">Declaration</text>
</g>
<!-- d4 -->
<!-- d5 -->
<!-- d4&#45;&gt;d5 -->
<g id="edge31" class="edge">
<title>d4&#45;&gt;d5</title>
<path fill="none" stroke="blue" d="M1116.76,-611C1129.39,-611 1195.54,-611 1223.34,-611"/>
<polygon fill="blue" stroke="blue" points="1223.51,-614.5 1233.51,-611 1223.51,-607.5 1223.51,-614.5"/>
<text text-anchor="middle" x="1175.16" y="-617.8" font-family="Times,serif" font-size="14.00">PHI Data flow</text>
</g>
<!-- d6 -->
<!-- d7 -->
<!-- d6&#45;&gt;d7 -->
<g id="edge32" class="edge">
<title>d6&#45;&gt;d7</title>
<path fill="none" stroke="green" d="M979.66,-611C991.6,-611 1053.96,-611 1080.59,-611"/>
<polygon fill="green" stroke="green" points="1080.61,-614.5 1090.61,-611 1080.61,-607.5 1080.61,-614.5"/>
<text text-anchor="middle" x="1035.16" y="-617.8" font-family="Times,serif" font-size="14.00">Memory flow</text>
</g>
</g>
</svg>
