<?xml version="1.0" encoding="UTF-8" standalone="no"?>
<!DOCTYPE svg PUBLIC "-//W3C//DTD SVG 1.1//EN"
 "http://www.w3.org/Graphics/SVG/1.1/DTD/svg11.dtd">
<!-- Generated by graphviz version 2.43.0 (0)
 -->
<!-- Title: %3 Pages: 1 -->
<svg width="1929pt" height="443pt"
 viewBox="0.00 0.00 1928.50 443.00" xmlns="http://www.w3.org/2000/svg" xmlns:xlink="http://www.w3.org/1999/xlink">
<g id="graph0" class="graph" transform="scale(1 1) rotate(0) translate(4 439)">
<title>%3</title>
<polygon fill="white" stroke="transparent" points="-4,4 -4,-439 1924.5,-439 1924.5,4 -4,4"/>
<g id="clust1" class="cluster">
<title>cluster_0</title>
<polygon fill="none" stroke="lightgray" points="129.5,-284 129.5,-427 1051.5,-427 1051.5,-284 129.5,-284"/>
</g>
<g id="clust2" class="cluster">
<title>cluster_000</title>
<polygon fill="none" stroke="black" points="1059.5,-382.2 1059.5,-424.8 1912.5,-424.8 1912.5,-382.2 1059.5,-382.2"/>
<text text-anchor="middle" x="1486" y="-409.6" font-family="Times,serif" font-size="14.00">Legend</text>
</g>
<!-- node0 -->
<g id="node1" class="node">
<title>node0</title>
<polygon fill="lightgrey" stroke="transparent" points="452,-419 243,-419 243,-365 452,-365 452,-419"/>
<polygon fill="none" stroke="black" points="243.5,-392 243.5,-419 452.5,-419 452.5,-392 243.5,-392"/>
<text text-anchor="start" x="307.5" y="-401.8" font-family="Times,serif" font-size="14.00">#0 Method</text>
<polygon fill="yellow" stroke="transparent" points="243.5,-365 243.5,-392 452.5,-392 452.5,-365 243.5,-365"/>
<polygon fill="none" stroke="black" points="243.5,-365 243.5,-392 452.5,-392 452.5,-365 243.5,-365"/>
<text text-anchor="start" x="249.5" y="-374.8" font-family="Times,serif" font-size="14.00">this : StaticFieldAccessTest</text>
</g>
<!-- node3 -->
<g id="node2" class="node">
<title>node3</title>
<polygon fill="lightgrey" stroke="black" points="119,-328 0,-328 0,-292 119,-292 119,-328"/>
<text text-anchor="middle" x="59.5" y="-306.3" font-family="Times,serif" font-size="14.00">#3 LabelNode</text>
</g>
<!-- node0&#45;&gt;node3 -->
<g id="edge1" class="edge">
<title>node0&#45;&gt;node3</title>
<path fill="none" stroke="red" d="M253.6,-364.92C213.06,-353.66 166.48,-340.72 129.11,-330.34"/>
<polygon fill="red" stroke="red" points="129.9,-326.92 119.32,-327.62 128.02,-333.67 129.9,-326.92"/>
</g>
<!-- node1 -->
<g id="node3" class="node">
<title>node1</title>
<polygon fill="lightgrey" stroke="black" points="308,-255 203,-255 203,-219 308,-219 308,-255"/>
<text text-anchor="middle" x="255.5" y="-233.3" font-family="Times,serif" font-size="14.00">#1 ClassInit</text>
</g>
<!-- node0&#45;&gt;node1 -->
<g id="edge3" class="edge">
<title>node0&#45;&gt;node1</title>
<path fill="none" stroke="green" d="M452.01,-389.28C638.48,-385.11 1012.82,-371.38 1052.5,-328 1065.7,-313.57 1066.05,-298.1 1052.5,-284 1024.85,-255.21 374.1,-260.02 334.5,-255 329.19,-254.33 323.72,-253.48 318.24,-252.52"/>
<polygon fill="green" stroke="green" points="318.87,-249.08 308.4,-250.69 317.59,-255.96 318.87,-249.08"/>
</g>
<!-- node4 -->
<g id="node4" class="node">
<title>node4</title>
<polygon fill="lightgreen" stroke="black" points="557.69,-302.54 557.69,-317.46 434.56,-328 260.44,-328 137.31,-317.46 137.31,-302.54 260.44,-292 434.56,-292 557.69,-302.54"/>
<text text-anchor="middle" x="347.5" y="-306.3" font-family="Times,serif" font-size="14.00">#4 Class StaticFieldAccessTest$Source</text>
</g>
<!-- node0&#45;&gt;node4 -->
<g id="edge5" class="edge">
<title>node0&#45;&gt;node4</title>
<path fill="none" stroke="black" stroke-dasharray="1,5" d="M347.5,-364.81C347.5,-356.35 347.5,-346.95 347.5,-338.4"/>
<polygon fill="black" stroke="black" points="351,-338.17 347.5,-328.17 344,-338.17 351,-338.17"/>
</g>
<!-- node6 -->
<g id="node7" class="node">
<title>node6</title>
<polygon fill="lightgreen" stroke="black" points="1043.12,-302.54 1043.12,-317.46 906.27,-328 712.73,-328 575.88,-317.46 575.88,-302.54 712.73,-292 906.27,-292 1043.12,-302.54"/>
<text text-anchor="middle" x="809.5" y="-306.3" font-family="Times,serif" font-size="14.00">#6 Class StaticFieldAccessTest$Destination</text>
</g>
<!-- node0&#45;&gt;node6 -->
<g id="edge11" class="edge">
<title>node0&#45;&gt;node6</title>
<path fill="none" stroke="black" stroke-dasharray="1,5" d="M452.05,-372.9C526.56,-359.99 626.45,-342.7 701.69,-329.67"/>
<polygon fill="black" stroke="black" points="702.41,-333.1 711.67,-327.94 701.22,-326.2 702.41,-333.1"/>
</g>
<!-- node3&#45;&gt;node1 -->
<g id="edge4" class="edge">
<title>node3&#45;&gt;node1</title>
<path fill="none" stroke="red" d="M104.18,-291.92C111.3,-289.24 118.6,-286.53 125.5,-284 148.8,-275.46 174.55,-266.3 196.94,-258.41"/>
<polygon fill="red" stroke="red" points="198.37,-261.62 206.64,-255 196.05,-255.02 198.37,-261.62"/>
</g>
<!-- node5 -->
<g id="node5" class="node">
<title>node5</title>
<polygon fill="orange" stroke="black" points="743.99,-229.54 743.99,-244.46 626.55,-255 460.45,-255 343.01,-244.46 343.01,-229.54 460.45,-219 626.55,-219 743.99,-229.54"/>
<text text-anchor="middle" x="543.5" y="-233.3" font-family="Times,serif" font-size="14.00">#5 GetStaticField : short_field : short</text>
</g>
<!-- node1&#45;&gt;node5 -->
<g id="edge7" class="edge">
<title>node1&#45;&gt;node5</title>
<path fill="none" stroke="green" d="M308.09,-237C316.18,-237 324.26,-237 332.34,-237"/>
<polygon fill="green" stroke="green" points="332.58,-240.5 342.58,-237 332.58,-233.5 332.58,-240.5"/>
</g>
<!-- node7 -->
<g id="node6" class="node">
<title>node7</title>
<polygon fill="lightgrey" stroke="black" points="657,-182 552,-182 552,-146 657,-146 657,-182"/>
<text text-anchor="middle" x="604.5" y="-160.3" font-family="Times,serif" font-size="14.00">#7 ClassInit</text>
</g>
<!-- node1&#45;&gt;node7 -->
<g id="edge10" class="edge">
<title>node1&#45;&gt;node7</title>
<path fill="none" stroke="red" d="M308.17,-224.55C316.96,-222.68 325.98,-220.77 334.5,-219 405.55,-204.25 487.28,-188.01 542.03,-177.23"/>
<polygon fill="red" stroke="red" points="542.8,-180.64 551.94,-175.28 541.45,-173.77 542.8,-180.64"/>
</g>
<!-- node4&#45;&gt;node1 -->
<g id="edge2" class="edge">
<title>node4&#45;&gt;node1</title>
<path fill="none" stroke="black" d="M325.23,-291.81C313.36,-282.66 298.6,-271.26 285.71,-261.32"/>
<polygon fill="black" stroke="black" points="287.62,-258.37 277.57,-255.03 283.34,-263.91 287.62,-258.37"/>
<text text-anchor="middle" x="297.08" y="-255.71" font-family="Times,serif" font-size="14.00">*0</text>
</g>
<!-- node4&#45;&gt;node5 -->
<g id="edge6" class="edge">
<title>node4&#45;&gt;node5</title>
<path fill="none" stroke="black" d="M394.45,-291.99C422.12,-281.97 457.34,-269.21 486.59,-258.62"/>
<polygon fill="black" stroke="black" points="488.05,-261.81 496.26,-255.11 485.66,-255.23 488.05,-261.81"/>
<text text-anchor="middle" x="482.09" y="-265.53" font-family="Times,serif" font-size="14.00">*0</text>
</g>
<!-- node5&#45;&gt;node7 -->
<g id="edge9" class="edge">
<title>node5&#45;&gt;node7</title>
<path fill="none" stroke="green" d="M558.27,-218.81C565.76,-210.09 575,-199.34 583.24,-189.75"/>
<polygon fill="green" stroke="green" points="586.01,-191.89 589.87,-182.03 580.7,-187.33 586.01,-191.89"/>
</g>
<!-- node8 -->
<g id="node8" class="node">
<title>node8</title>
<polygon fill="lightgrey" stroke="black" points="827.5,-109 543.5,-109 543.5,-73 827.5,-73 827.5,-109"/>
<text text-anchor="middle" x="685.5" y="-87.3" font-family="Times,serif" font-size="14.00">#8 PutStaticField : short_field : short</text>
</g>
<!-- node5&#45;&gt;node8 -->
<g id="edge13" class="edge">
<title>node5&#45;&gt;node8</title>
<path fill="none" stroke="black" d="M612.31,-218.93C632.41,-210.81 652.67,-199.01 666.5,-182 680.78,-164.44 685.07,-138.73 686.06,-119.28"/>
<polygon fill="black" stroke="black" points="689.56,-119.3 686.31,-109.21 682.56,-119.12 689.56,-119.3"/>
<text text-anchor="middle" x="694.31" y="-123.84" font-family="Times,serif" font-size="14.00">*1</text>
</g>
<!-- node7&#45;&gt;node8 -->
<g id="edge14" class="edge">
<title>node7&#45;&gt;node8</title>
<path fill="none" stroke="green" d="M618.23,-145.81C627.63,-136.74 640.31,-125.48 652.17,-115.6"/>
<polygon fill="green" stroke="green" points="654.69,-118.07 660.21,-109.03 650.25,-112.65 654.69,-118.07"/>
</g>
<!-- node7&#45;&gt;node8 -->
<g id="edge15" class="edge">
<title>node7&#45;&gt;node8</title>
<path fill="none" stroke="red" d="M629.99,-145.81C641.07,-136.92 653.81,-125.91 664.36,-116.17"/>
<polygon fill="red" stroke="red" points="667.06,-118.44 671.93,-109.03 662.26,-113.34 667.06,-118.44"/>
</g>
<!-- node6&#45;&gt;node7 -->
<g id="edge8" class="edge">
<title>node6&#45;&gt;node7</title>
<path fill="none" stroke="black" d="M802.66,-291.67C793.89,-271.55 776.84,-238.61 752.5,-219 727.92,-199.2 695.43,-186.28 667.15,-178.06"/>
<polygon fill="black" stroke="black" points="667.92,-174.64 657.34,-175.34 666.05,-181.38 667.92,-174.64"/>
<text text-anchor="middle" x="677.07" y="-168.33" font-family="Times,serif" font-size="14.00">*0</text>
</g>
<!-- node6&#45;&gt;node8 -->
<g id="edge12" class="edge">
<title>node6&#45;&gt;node8</title>
<path fill="none" stroke="black" d="M806,-291.73C801.8,-273.09 793.76,-242.87 781.5,-219 761.65,-180.34 729.97,-141.27 708.48,-116.87"/>
<polygon fill="black" stroke="black" points="710.88,-114.3 701.61,-109.17 705.66,-118.97 710.88,-114.3"/>
<text text-anchor="middle" x="719.99" y="-113.37" font-family="Times,serif" font-size="14.00">*0</text>
</g>
<!-- node9 -->
<g id="node9" class="node">
<title>node9</title>
<polygon fill="lightgrey" stroke="black" points="731.5,-36 639.5,-36 639.5,0 731.5,0 731.5,-36"/>
<text text-anchor="middle" x="685.5" y="-14.3" font-family="Times,serif" font-size="14.00">#9 Return</text>
</g>
<!-- node8&#45;&gt;node9 -->
<g id="edge16" class="edge">
<title>node8&#45;&gt;node9</title>
<path fill="none" stroke="red" d="M679.62,-72.81C678.78,-64.79 678.55,-55.05 678.92,-46.07"/>
<polygon fill="red" stroke="red" points="682.42,-46.25 679.64,-36.03 675.44,-45.75 682.42,-46.25"/>
</g>
<!-- node8&#45;&gt;node9 -->
<g id="edge17" class="edge">
<title>node8&#45;&gt;node9</title>
<path fill="none" stroke="green" d="M691.38,-72.81C692.22,-64.79 692.45,-55.05 692.08,-46.07"/>
<polygon fill="green" stroke="green" points="695.56,-45.75 691.36,-36.03 688.58,-46.25 695.56,-45.75"/>
</g>
<!-- c0 -->
<!-- c1 -->
<!-- c0&#45;&gt;c1 -->
<g id="edge18" class="edge">
<title>c0&#45;&gt;c1</title>
<path fill="none" stroke="red" d="M1795.39,-392C1806.61,-392 1864.74,-392 1890.36,-392"/>
<polygon fill="red" stroke="red" points="1890.56,-395.5 1900.56,-392 1890.56,-388.5 1890.56,-395.5"/>
<text text-anchor="middle" x="1848" y="-398.8" font-family="Times,serif" font-size="14.00">Control flow</text>
</g>
<!-- c2 -->
<!-- c3 -->
<!-- c2&#45;&gt;c3 -->
<g id="edge19" class="edge">
<title>c2&#45;&gt;c3</title>
<path fill="none" stroke="red" stroke-dasharray="5,2" d="M1588.58,-392C1605.55,-392 1721.71,-392 1759.58,-392"/>
<polygon fill="red" stroke="red" points="1759.67,-395.5 1769.67,-392 1759.67,-388.5 1759.67,-395.5"/>
<text text-anchor="middle" x="1679" y="-398.8" font-family="Times,serif" font-size="14.00">Control flow back edge</text>
</g>
<!-- d0 -->
<!-- d1 -->
<!-- d0&#45;&gt;d1 -->
<g id="edge20" class="edge">
<title>d0&#45;&gt;d1</title>
<path fill="none" stroke="black" d="M1477.36,-392C1486.91,-392 1530.81,-392 1552.42,-392"/>
<polygon fill="black" stroke="black" points="1552.65,-395.5 1562.65,-392 1552.65,-388.5 1552.65,-395.5"/>
<text text-anchor="middle" x="1520" y="-398.8" font-family="Times,serif" font-size="14.00">Data flow</text>
</g>
<!-- d2 -->
<!-- d3 -->
<!-- d2&#45;&gt;d3 -->
<g id="edge21" class="edge">
<title>d2&#45;&gt;d3</title>
<path fill="none" stroke="black" stroke-dasharray="1,5" d="M1351.31,-392C1361.96,-392 1416.96,-392 1441.58,-392"/>
<polygon fill="black" stroke="black" points="1441.65,-395.5 1451.65,-392 1441.65,-388.5 1441.65,-395.5"/>
<text text-anchor="middle" x="1401.5" y="-398.8" font-family="Times,serif" font-size="14.00">Declaration</text>
</g>
<!-- d4 -->
<!-- d5 -->
<!-- d4&#45;&gt;d5 -->
<g id="edge22" class="edge">
<title>d4&#45;&gt;d5</title>
<path fill="none" stroke="blue" d="M1208.6,-392C1221.22,-392 1287.38,-392 1315.18,-392"/>
<polygon fill="blue" stroke="blue" points="1315.34,-395.5 1325.34,-392 1315.34,-388.5 1315.34,-395.5"/>
<text text-anchor="middle" x="1267" y="-398.8" font-family="Times,serif" font-size="14.00">PHI Data flow</text>
</g>
<!-- d6 -->
<!-- d7 -->
<!-- d6&#45;&gt;d7 -->
<g id="edge23" class="edge">
<title>d6&#45;&gt;d7</title>
<path fill="none" stroke="green" d="M1071.5,-392C1083.44,-392 1145.8,-392 1172.43,-392"/>
<polygon fill="green" stroke="green" points="1172.45,-395.5 1182.45,-392 1172.45,-388.5 1172.45,-395.5"/>
<text text-anchor="middle" x="1127" y="-398.8" font-family="Times,serif" font-size="14.00">Memory flow</text>
</g>
</g>
</svg>
