<?xml version="1.0" encoding="UTF-8" standalone="no"?>
<!DOCTYPE svg PUBLIC "-//W3C//DTD SVG 1.1//EN"
 "http://www.w3.org/Graphics/SVG/1.1/DTD/svg11.dtd">
<!-- Generated by graphviz version 2.43.0 (0)
 -->
<!-- Title: %3 Pages: 1 -->
<svg width="1967pt" height="443pt"
 viewBox="0.00 0.00 1966.50 443.00" xmlns="http://www.w3.org/2000/svg" xmlns:xlink="http://www.w3.org/1999/xlink">
<g id="graph0" class="graph" transform="scale(1 1) rotate(0) translate(4 439)">
<title>%3</title>
<polygon fill="white" stroke="transparent" points="-4,4 -4,-439 1962.5,-439 1962.5,4 -4,4"/>
<g id="clust1" class="cluster">
<title>cluster_0</title>
<polygon fill="none" stroke="lightgray" points="167.5,-284 167.5,-427 1089.5,-427 1089.5,-284 167.5,-284"/>
</g>
<g id="clust2" class="cluster">
<title>cluster_000</title>
<polygon fill="none" stroke="black" points="1097.5,-382.2 1097.5,-424.8 1950.5,-424.8 1950.5,-382.2 1097.5,-382.2"/>
<text text-anchor="middle" x="1524" y="-409.6" font-family="Times,serif" font-size="14.00">Legend</text>
</g>
<!-- node0 -->
<g id="node1" class="node">
<title>node0</title>
<polygon fill="lightgrey" stroke="transparent" points="490,-419 281,-419 281,-365 490,-365 490,-419"/>
<polygon fill="none" stroke="black" points="281.5,-392 281.5,-419 490.5,-419 490.5,-392 281.5,-392"/>
<text text-anchor="start" x="345.5" y="-401.8" font-family="Times,serif" font-size="14.00">#0 Method</text>
<polygon fill="yellow" stroke="transparent" points="281.5,-365 281.5,-392 490.5,-392 490.5,-365 281.5,-365"/>
<polygon fill="none" stroke="black" points="281.5,-365 281.5,-392 490.5,-392 490.5,-365 281.5,-365"/>
<text text-anchor="start" x="287.5" y="-374.8" font-family="Times,serif" font-size="14.00">this : StaticFieldAccessTest</text>
</g>
<!-- node4 -->
<g id="node2" class="node">
<title>node4</title>
<polygon fill="lightgreen" stroke="black" points="595.69,-302.54 595.69,-317.46 472.56,-328 298.44,-328 175.31,-317.46 175.31,-302.54 298.44,-292 472.56,-292 595.69,-302.54"/>
<text text-anchor="middle" x="385.5" y="-306.3" font-family="Times,serif" font-size="14.00">#4 Class StaticFieldAccessTest$Source</text>
</g>
<!-- node0&#45;&gt;node4 -->
<g id="edge1" class="edge">
<title>node0&#45;&gt;node4</title>
<path fill="none" stroke="black" stroke-dasharray="1,5" d="M385.5,-364.81C385.5,-356.35 385.5,-346.95 385.5,-338.4"/>
<polygon fill="black" stroke="black" points="389,-338.17 385.5,-328.17 382,-338.17 389,-338.17"/>
</g>
<!-- node5 -->
<g id="node4" class="node">
<title>node5</title>
<polygon fill="lightgrey" stroke="black" points="346,-255 241,-255 241,-219 346,-219 346,-255"/>
<text text-anchor="middle" x="293.5" y="-233.3" font-family="Times,serif" font-size="14.00">#5 ClassInit</text>
</g>
<!-- node0&#45;&gt;node5 -->
<g id="edge5" class="edge">
<title>node0&#45;&gt;node5</title>
<path fill="none" stroke="green" d="M280.84,-373.26C231.85,-362.62 181.08,-347.36 166.5,-328 154.74,-312.38 155.27,-300.01 166.5,-284 170.71,-278 201.07,-266.9 231.06,-257.1"/>
<polygon fill="green" stroke="green" points="232.3,-260.38 240.74,-253.97 230.15,-253.72 232.3,-260.38"/>
</g>
<!-- node2 -->
<g id="node5" class="node">
<title>node2</title>
<polygon fill="lightgrey" stroke="black" points="119,-328 0,-328 0,-292 119,-292 119,-328"/>
<text text-anchor="middle" x="59.5" y="-306.3" font-family="Times,serif" font-size="14.00">#2 LabelNode</text>
</g>
<!-- node0&#45;&gt;node2 -->
<g id="edge7" class="edge">
<title>node0&#45;&gt;node2</title>
<path fill="none" stroke="red" d="M280.92,-383.43C230.34,-377.38 169.48,-366.51 117.5,-347 108.46,-343.6 99.29,-338.72 91,-333.64"/>
<polygon fill="red" stroke="red" points="92.7,-330.57 82.39,-328.12 88.91,-336.46 92.7,-330.57"/>
</g>
<!-- node3 -->
<g id="node7" class="node">
<title>node3</title>
<polygon fill="lightgreen" stroke="black" points="1081.12,-302.54 1081.12,-317.46 944.27,-328 750.73,-328 613.88,-317.46 613.88,-302.54 750.73,-292 944.27,-292 1081.12,-302.54"/>
<text text-anchor="middle" x="847.5" y="-306.3" font-family="Times,serif" font-size="14.00">#3 Class StaticFieldAccessTest$Destination</text>
</g>
<!-- node0&#45;&gt;node3 -->
<g id="edge11" class="edge">
<title>node0&#45;&gt;node3</title>
<path fill="none" stroke="black" stroke-dasharray="1,5" d="M490.05,-372.9C564.56,-359.99 664.45,-342.7 739.69,-329.67"/>
<polygon fill="black" stroke="black" points="740.41,-333.1 749.67,-327.94 739.22,-326.2 740.41,-333.1"/>
</g>
<!-- node6 -->
<g id="node3" class="node">
<title>node6</title>
<polygon fill="orange" stroke="black" points="781.99,-229.54 781.99,-244.46 664.55,-255 498.45,-255 381.01,-244.46 381.01,-229.54 498.45,-219 664.55,-219 781.99,-229.54"/>
<text text-anchor="middle" x="581.5" y="-233.3" font-family="Times,serif" font-size="14.00">#6 GetStaticField : short_field : short</text>
</g>
<!-- node4&#45;&gt;node6 -->
<g id="edge2" class="edge">
<title>node4&#45;&gt;node6</title>
<path fill="none" stroke="black" d="M432.45,-291.99C460.12,-281.97 495.34,-269.21 524.59,-258.62"/>
<polygon fill="black" stroke="black" points="526.05,-261.81 534.26,-255.11 523.66,-255.23 526.05,-261.81"/>
<text text-anchor="middle" x="520.09" y="-265.53" font-family="Times,serif" font-size="14.00">*0</text>
</g>
<!-- node4&#45;&gt;node5 -->
<g id="edge4" class="edge">
<title>node4&#45;&gt;node5</title>
<path fill="none" stroke="black" d="M363.23,-291.81C351.36,-282.66 336.6,-271.26 323.71,-261.32"/>
<polygon fill="black" stroke="black" points="325.62,-258.37 315.57,-255.03 321.34,-263.91 325.62,-258.37"/>
<text text-anchor="middle" x="335.08" y="-255.71" font-family="Times,serif" font-size="14.00">*0</text>
</g>
<!-- node7 -->
<g id="node6" class="node">
<title>node7</title>
<polygon fill="lightgrey" stroke="black" points="695,-182 590,-182 590,-146 695,-146 695,-182"/>
<text text-anchor="middle" x="642.5" y="-160.3" font-family="Times,serif" font-size="14.00">#7 ClassInit</text>
</g>
<!-- node6&#45;&gt;node7 -->
<g id="edge9" class="edge">
<title>node6&#45;&gt;node7</title>
<path fill="none" stroke="green" d="M596.27,-218.81C603.76,-210.09 613,-199.34 621.24,-189.75"/>
<polygon fill="green" stroke="green" points="624.01,-191.89 627.87,-182.03 618.7,-187.33 624.01,-191.89"/>
</g>
<!-- node8 -->
<g id="node8" class="node">
<title>node8</title>
<polygon fill="lightgrey" stroke="black" points="865.5,-109 581.5,-109 581.5,-73 865.5,-73 865.5,-109"/>
<text text-anchor="middle" x="723.5" y="-87.3" font-family="Times,serif" font-size="14.00">#8 PutStaticField : short_field : short</text>
</g>
<!-- node6&#45;&gt;node8 -->
<g id="edge13" class="edge">
<title>node6&#45;&gt;node8</title>
<path fill="none" stroke="black" d="M650.31,-218.93C670.41,-210.81 690.67,-199.01 704.5,-182 718.78,-164.44 723.07,-138.73 724.06,-119.28"/>
<polygon fill="black" stroke="black" points="727.56,-119.3 724.31,-109.21 720.56,-119.12 727.56,-119.3"/>
<text text-anchor="middle" x="732.31" y="-123.84" font-family="Times,serif" font-size="14.00">*1</text>
</g>
<!-- node5&#45;&gt;node6 -->
<g id="edge3" class="edge">
<title>node5&#45;&gt;node6</title>
<path fill="none" stroke="green" d="M346.09,-237C354.18,-237 362.26,-237 370.34,-237"/>
<polygon fill="green" stroke="green" points="370.58,-240.5 380.58,-237 370.58,-233.5 370.58,-240.5"/>
</g>
<!-- node5&#45;&gt;node7 -->
<g id="edge10" class="edge">
<title>node5&#45;&gt;node7</title>
<path fill="none" stroke="red" d="M346.17,-224.55C354.96,-222.68 363.98,-220.77 372.5,-219 443.55,-204.25 525.28,-188.01 580.03,-177.23"/>
<polygon fill="red" stroke="red" points="580.8,-180.64 589.94,-175.28 579.45,-173.77 580.8,-180.64"/>
</g>
<!-- node2&#45;&gt;node5 -->
<g id="edge6" class="edge">
<title>node2&#45;&gt;node5</title>
<path fill="none" stroke="red" d="M109.15,-291.88C117.27,-289.18 125.6,-286.47 133.5,-284 165.47,-274.01 201.29,-263.64 230.92,-255.27"/>
<polygon fill="red" stroke="red" points="232.03,-258.6 240.71,-252.52 230.14,-251.86 232.03,-258.6"/>
</g>
<!-- node7&#45;&gt;node8 -->
<g id="edge14" class="edge">
<title>node7&#45;&gt;node8</title>
<path fill="none" stroke="green" d="M656.23,-145.81C665.63,-136.74 678.31,-125.48 690.17,-115.6"/>
<polygon fill="green" stroke="green" points="692.69,-118.07 698.21,-109.03 688.25,-112.65 692.69,-118.07"/>
</g>
<!-- node7&#45;&gt;node8 -->
<g id="edge15" class="edge">
<title>node7&#45;&gt;node8</title>
<path fill="none" stroke="red" d="M667.99,-145.81C679.07,-136.92 691.81,-125.91 702.36,-116.17"/>
<polygon fill="red" stroke="red" points="705.06,-118.44 709.93,-109.03 700.26,-113.34 705.06,-118.44"/>
</g>
<!-- node3&#45;&gt;node7 -->
<g id="edge8" class="edge">
<title>node3&#45;&gt;node7</title>
<path fill="none" stroke="black" d="M840.66,-291.67C831.89,-271.55 814.84,-238.61 790.5,-219 765.92,-199.2 733.43,-186.28 705.15,-178.06"/>
<polygon fill="black" stroke="black" points="705.92,-174.64 695.34,-175.34 704.05,-181.38 705.92,-174.64"/>
<text text-anchor="middle" x="715.07" y="-168.33" font-family="Times,serif" font-size="14.00">*0</text>
</g>
<!-- node3&#45;&gt;node8 -->
<g id="edge12" class="edge">
<title>node3&#45;&gt;node8</title>
<path fill="none" stroke="black" d="M844,-291.73C839.8,-273.09 831.76,-242.87 819.5,-219 799.65,-180.34 767.97,-141.27 746.48,-116.87"/>
<polygon fill="black" stroke="black" points="748.88,-114.3 739.61,-109.17 743.66,-118.97 748.88,-114.3"/>
<text text-anchor="middle" x="757.99" y="-113.37" font-family="Times,serif" font-size="14.00">*0</text>
</g>
<!-- node9 -->
<g id="node9" class="node">
<title>node9</title>
<polygon fill="lightgrey" stroke="black" points="769.5,-36 677.5,-36 677.5,0 769.5,0 769.5,-36"/>
<text text-anchor="middle" x="723.5" y="-14.3" font-family="Times,serif" font-size="14.00">#9 Return</text>
</g>
<!-- node8&#45;&gt;node9 -->
<g id="edge16" class="edge">
<title>node8&#45;&gt;node9</title>
<path fill="none" stroke="red" d="M717.62,-72.81C716.78,-64.79 716.55,-55.05 716.92,-46.07"/>
<polygon fill="red" stroke="red" points="720.42,-46.25 717.64,-36.03 713.44,-45.75 720.42,-46.25"/>
</g>
<!-- node8&#45;&gt;node9 -->
<g id="edge17" class="edge">
<title>node8&#45;&gt;node9</title>
<path fill="none" stroke="green" d="M729.38,-72.81C730.22,-64.79 730.45,-55.05 730.08,-46.07"/>
<polygon fill="green" stroke="green" points="733.56,-45.75 729.36,-36.03 726.58,-46.25 733.56,-45.75"/>
</g>
<!-- c0 -->
<!-- c1 -->
<!-- c0&#45;&gt;c1 -->
<g id="edge18" class="edge">
<title>c0&#45;&gt;c1</title>
<path fill="none" stroke="red" d="M1833.39,-392C1844.61,-392 1902.74,-392 1928.36,-392"/>
<polygon fill="red" stroke="red" points="1928.56,-395.5 1938.56,-392 1928.56,-388.5 1928.56,-395.5"/>
<text text-anchor="middle" x="1886" y="-398.8" font-family="Times,serif" font-size="14.00">Control flow</text>
</g>
<!-- c2 -->
<!-- c3 -->
<!-- c2&#45;&gt;c3 -->
<g id="edge19" class="edge">
<title>c2&#45;&gt;c3</title>
<path fill="none" stroke="red" stroke-dasharray="5,2" d="M1626.58,-392C1643.55,-392 1759.71,-392 1797.58,-392"/>
<polygon fill="red" stroke="red" points="1797.67,-395.5 1807.67,-392 1797.67,-388.5 1797.67,-395.5"/>
<text text-anchor="middle" x="1717" y="-398.8" font-family="Times,serif" font-size="14.00">Control flow back edge</text>
</g>
<!-- d0 -->
<!-- d1 -->
<!-- d0&#45;&gt;d1 -->
<g id="edge20" class="edge">
<title>d0&#45;&gt;d1</title>
<path fill="none" stroke="black" d="M1515.36,-392C1524.91,-392 1568.81,-392 1590.42,-392"/>
<polygon fill="black" stroke="black" points="1590.65,-395.5 1600.65,-392 1590.65,-388.5 1590.65,-395.5"/>
<text text-anchor="middle" x="1558" y="-398.8" font-family="Times,serif" font-size="14.00">Data flow</text>
</g>
<!-- d2 -->
<!-- d3 -->
<!-- d2&#45;&gt;d3 -->
<g id="edge21" class="edge">
<title>d2&#45;&gt;d3</title>
<path fill="none" stroke="black" stroke-dasharray="1,5" d="M1389.31,-392C1399.96,-392 1454.96,-392 1479.58,-392"/>
<polygon fill="black" stroke="black" points="1479.65,-395.5 1489.65,-392 1479.65,-388.5 1479.65,-395.5"/>
<text text-anchor="middle" x="1439.5" y="-398.8" font-family="Times,serif" font-size="14.00">Declaration</text>
</g>
<!-- d4 -->
<!-- d5 -->
<!-- d4&#45;&gt;d5 -->
<g id="edge22" class="edge">
<title>d4&#45;&gt;d5</title>
<path fill="none" stroke="blue" d="M1246.6,-392C1259.22,-392 1325.38,-392 1353.18,-392"/>
<polygon fill="blue" stroke="blue" points="1353.34,-395.5 1363.34,-392 1353.34,-388.5 1353.34,-395.5"/>
<text text-anchor="middle" x="1305" y="-398.8" font-family="Times,serif" font-size="14.00">PHI Data flow</text>
</g>
<!-- d6 -->
<!-- d7 -->
<!-- d6&#45;&gt;d7 -->
<g id="edge23" class="edge">
<title>d6&#45;&gt;d7</title>
<path fill="none" stroke="green" d="M1109.5,-392C1121.44,-392 1183.8,-392 1210.43,-392"/>
<polygon fill="green" stroke="green" points="1210.45,-395.5 1220.45,-392 1210.45,-388.5 1210.45,-395.5"/>
<text text-anchor="middle" x="1165" y="-398.8" font-family="Times,serif" font-size="14.00">Memory flow</text>
</g>
</g>
</svg>
