<?xml version="1.0" encoding="UTF-8" standalone="no"?>
<!DOCTYPE svg PUBLIC "-//W3C//DTD SVG 1.1//EN"
 "http://www.w3.org/Graphics/SVG/1.1/DTD/svg11.dtd">
<!-- Generated by graphviz version 2.43.0 (0)
 -->
<!-- Title: %3 Pages: 1 -->
<svg width="1807pt" height="443pt"
 viewBox="0.00 0.00 1807.00 443.00" xmlns="http://www.w3.org/2000/svg" xmlns:xlink="http://www.w3.org/1999/xlink">
<g id="graph0" class="graph" transform="scale(1 1) rotate(0) translate(4 439)">
<title>%3</title>
<polygon fill="white" stroke="transparent" points="-4,4 -4,-439 1803,-439 1803,4 -4,4"/>
<g id="clust1" class="cluster">
<title>cluster_0</title>
<polygon fill="none" stroke="lightgray" points="8,-284 8,-427 930,-427 930,-284 8,-284"/>
</g>
<g id="clust2" class="cluster">
<title>cluster_000</title>
<polygon fill="none" stroke="black" points="938,-382.2 938,-424.8 1791,-424.8 1791,-382.2 938,-382.2"/>
<text text-anchor="middle" x="1364.5" y="-409.6" font-family="Times,serif" font-size="14.00">Legend</text>
</g>
<!-- node0 -->
<g id="node1" class="node">
<title>node0</title>
<polygon fill="lightgrey" stroke="transparent" points="816.5,-419 607.5,-419 607.5,-365 816.5,-365 816.5,-419"/>
<polygon fill="none" stroke="black" points="608,-392 608,-419 817,-419 817,-392 608,-392"/>
<text text-anchor="start" x="672" y="-401.8" font-family="Times,serif" font-size="14.00">#0 Method</text>
<polygon fill="yellow" stroke="transparent" points="608,-365 608,-392 817,-392 817,-365 608,-365"/>
<polygon fill="none" stroke="black" points="608,-365 608,-392 817,-392 817,-365 608,-365"/>
<text text-anchor="start" x="614" y="-374.8" font-family="Times,serif" font-size="14.00">this : StaticFieldAccessTest</text>
</g>
<!-- node5 -->
<g id="node2" class="node">
<title>node5</title>
<polygon fill="lightgreen" stroke="black" points="483.62,-302.54 483.62,-317.46 346.77,-328 153.23,-328 16.38,-317.46 16.38,-302.54 153.23,-292 346.77,-292 483.62,-302.54"/>
<text text-anchor="middle" x="250" y="-306.3" font-family="Times,serif" font-size="14.00">#5 Class StaticFieldAccessTest$Destination</text>
</g>
<!-- node0&#45;&gt;node5 -->
<g id="edge1" class="edge">
<title>node0&#45;&gt;node5</title>
<path fill="none" stroke="black" stroke-dasharray="1,5" d="M607.45,-372.9C532.94,-359.99 433.05,-342.7 357.81,-329.67"/>
<polygon fill="black" stroke="black" points="358.28,-326.2 347.83,-327.94 357.09,-333.1 358.28,-326.2"/>
</g>
<!-- node4 -->
<g id="node6" class="node">
<title>node4</title>
<polygon fill="lightgrey" stroke="black" points="839.5,-255 734.5,-255 734.5,-219 839.5,-219 839.5,-255"/>
<text text-anchor="middle" x="787" y="-233.3" font-family="Times,serif" font-size="14.00">#4 ClassInit</text>
</g>
<!-- node0&#45;&gt;node4 -->
<g id="edge10" class="edge">
<title>node0&#45;&gt;node4</title>
<path fill="none" stroke="green" d="M812.35,-364.98C868.09,-350.05 927.04,-333.25 931,-328 942.76,-312.38 942.53,-299.79 931,-284 912.36,-258.48 879.41,-246.79 849.73,-241.57"/>
<polygon fill="green" stroke="green" points="850.23,-238.1 839.81,-240.03 849.16,-245.02 850.23,-238.1"/>
</g>
<!-- node3 -->
<g id="node7" class="node">
<title>node3</title>
<polygon fill="lightgreen" stroke="black" points="922.19,-302.54 922.19,-317.46 799.06,-328 624.94,-328 501.81,-317.46 501.81,-302.54 624.94,-292 799.06,-292 922.19,-302.54"/>
<text text-anchor="middle" x="712" y="-306.3" font-family="Times,serif" font-size="14.00">#3 Class StaticFieldAccessTest$Source</text>
</g>
<!-- node0&#45;&gt;node3 -->
<g id="edge13" class="edge">
<title>node0&#45;&gt;node3</title>
<path fill="none" stroke="black" stroke-dasharray="1,5" d="M712,-364.81C712,-356.35 712,-346.95 712,-338.4"/>
<polygon fill="black" stroke="black" points="715.5,-338.17 712,-328.17 708.5,-338.17 715.5,-338.17"/>
</g>
<!-- node2 -->
<g id="node8" class="node">
<title>node2</title>
<polygon fill="lightgrey" stroke="black" points="1097.5,-328 978.5,-328 978.5,-292 1097.5,-292 1097.5,-328"/>
<text text-anchor="middle" x="1038" y="-306.3" font-family="Times,serif" font-size="14.00">#2 LabelNode</text>
</g>
<!-- node0&#45;&gt;node2 -->
<g id="edge12" class="edge">
<title>node0&#45;&gt;node2</title>
<path fill="none" stroke="red" d="M816.94,-365.25C866.61,-353.06 924.54,-338.84 968.64,-328.02"/>
<polygon fill="red" stroke="red" points="969.52,-331.41 978.4,-325.63 967.85,-324.61 969.52,-331.41"/>
</g>
<!-- node8 -->
<g id="node3" class="node">
<title>node8</title>
<polygon fill="lightgrey" stroke="black" points="620,-109 336,-109 336,-73 620,-73 620,-109"/>
<text text-anchor="middle" x="478" y="-87.3" font-family="Times,serif" font-size="14.00">#8 PutStaticField : short_field : short</text>
</g>
<!-- node5&#45;&gt;node8 -->
<g id="edge2" class="edge">
<title>node5&#45;&gt;node8</title>
<path fill="none" stroke="black" d="M249.7,-291.82C250.19,-272.43 253.58,-240.76 269,-219 305.59,-167.36 370.43,-132.8 418.21,-112.93"/>
<polygon fill="black" stroke="black" points="419.58,-116.16 427.53,-109.16 416.95,-109.67 419.58,-116.16"/>
<text text-anchor="middle" x="413.91" y="-120.1" font-family="Times,serif" font-size="14.00">*0</text>
</g>
<!-- node7 -->
<g id="node5" class="node">
<title>node7</title>
<polygon fill="lightgrey" stroke="black" points="758.5,-182 653.5,-182 653.5,-146 758.5,-146 758.5,-182"/>
<text text-anchor="middle" x="706" y="-160.3" font-family="Times,serif" font-size="14.00">#7 ClassInit</text>
</g>
<!-- node5&#45;&gt;node7 -->
<g id="edge6" class="edge">
<title>node5&#45;&gt;node7</title>
<path fill="none" stroke="black" d="M381.18,-294.62C507.82,-280.47 681.3,-260.24 687,-255 704.05,-239.34 707.88,-212.56 708,-192.28"/>
<polygon fill="black" stroke="black" points="711.49,-191.98 707.76,-182.07 704.5,-192.15 711.49,-191.98"/>
<text text-anchor="middle" x="716.64" y="-196.29" font-family="Times,serif" font-size="14.00">*0</text>
</g>
<!-- node9 -->
<g id="node9" class="node">
<title>node9</title>
<polygon fill="lightgrey" stroke="black" points="524,-36 432,-36 432,0 524,0 524,-36"/>
<text text-anchor="middle" x="478" y="-14.3" font-family="Times,serif" font-size="14.00">#9 Return</text>
</g>
<!-- node8&#45;&gt;node9 -->
<g id="edge16" class="edge">
<title>node8&#45;&gt;node9</title>
<path fill="none" stroke="red" d="M472.12,-72.81C471.28,-64.79 471.05,-55.05 471.42,-46.07"/>
<polygon fill="red" stroke="red" points="474.92,-46.25 472.14,-36.03 467.94,-45.75 474.92,-46.25"/>
</g>
<!-- node8&#45;&gt;node9 -->
<g id="edge17" class="edge">
<title>node8&#45;&gt;node9</title>
<path fill="none" stroke="green" d="M483.88,-72.81C484.72,-64.79 484.95,-55.05 484.58,-46.07"/>
<polygon fill="green" stroke="green" points="488.06,-45.75 483.86,-36.03 481.08,-46.25 488.06,-45.75"/>
</g>
<!-- node6 -->
<g id="node4" class="node">
<title>node6</title>
<polygon fill="orange" stroke="black" points="678.49,-229.54 678.49,-244.46 561.05,-255 394.95,-255 277.51,-244.46 277.51,-229.54 394.95,-219 561.05,-219 678.49,-229.54"/>
<text text-anchor="middle" x="478" y="-233.3" font-family="Times,serif" font-size="14.00">#6 GetStaticField : short_field : short</text>
</g>
<!-- node6&#45;&gt;node8 -->
<g id="edge3" class="edge">
<title>node6&#45;&gt;node8</title>
<path fill="none" stroke="black" d="M478,-218.92C478,-194.34 478,-148.75 478,-119.43"/>
<polygon fill="black" stroke="black" points="481.5,-119.06 478,-109.06 474.5,-119.06 481.5,-119.06"/>
<text text-anchor="middle" x="486.45" y="-123.49" font-family="Times,serif" font-size="14.00">*1</text>
</g>
<!-- node6&#45;&gt;node7 -->
<g id="edge7" class="edge">
<title>node6&#45;&gt;node7</title>
<path fill="none" stroke="green" d="M532.61,-218.99C566.09,-208.57 609.04,-195.19 643.83,-184.36"/>
<polygon fill="green" stroke="green" points="644.9,-187.69 653.4,-181.38 642.82,-181.01 644.9,-187.69"/>
</g>
<!-- node7&#45;&gt;node8 -->
<g id="edge4" class="edge">
<title>node7&#45;&gt;node8</title>
<path fill="none" stroke="green" d="M653.45,-148.37C618.64,-137.95 573,-123.8 536.96,-112.28"/>
<polygon fill="green" stroke="green" points="537.65,-108.83 527.06,-109.11 535.51,-115.49 537.65,-108.83"/>
</g>
<!-- node7&#45;&gt;node8 -->
<g id="edge5" class="edge">
<title>node7&#45;&gt;node8</title>
<path fill="none" stroke="red" d="M657.25,-145.99C625.58,-135.79 583.84,-122.77 548.59,-112.07"/>
<polygon fill="red" stroke="red" points="549.41,-108.66 538.83,-109.11 547.38,-115.36 549.41,-108.66"/>
</g>
<!-- node4&#45;&gt;node6 -->
<g id="edge15" class="edge">
<title>node4&#45;&gt;node6</title>
<path fill="none" stroke="green" d="M734.1,-237C719.09,-237 704.08,-237 689.06,-237"/>
<polygon fill="green" stroke="green" points="688.67,-233.5 678.67,-237 688.67,-240.5 688.67,-233.5"/>
</g>
<!-- node4&#45;&gt;node7 -->
<g id="edge8" class="edge">
<title>node4&#45;&gt;node7</title>
<path fill="none" stroke="red" d="M776.03,-218.86C771.51,-212.53 765.94,-205.55 760,-200 755.39,-195.7 750.19,-191.59 744.88,-187.8"/>
<polygon fill="red" stroke="red" points="746.76,-184.85 736.52,-182.13 742.83,-190.64 746.76,-184.85"/>
</g>
<!-- node3&#45;&gt;node6 -->
<g id="edge14" class="edge">
<title>node3&#45;&gt;node6</title>
<path fill="none" stroke="black" d="M655.95,-291.99C622.33,-281.79 579.41,-268.77 544.13,-258.07"/>
<polygon fill="black" stroke="black" points="544.99,-254.67 534.4,-255.11 542.96,-261.37 544.99,-254.67"/>
<text text-anchor="middle" x="554.2" y="-248.59" font-family="Times,serif" font-size="14.00">*0</text>
</g>
<!-- node3&#45;&gt;node4 -->
<g id="edge9" class="edge">
<title>node3&#45;&gt;node4</title>
<path fill="none" stroke="black" d="M730.16,-291.81C739.55,-282.92 751.18,-271.91 761.47,-262.17"/>
<polygon fill="black" stroke="black" points="764.16,-264.45 769.01,-255.03 759.34,-259.36 764.16,-264.45"/>
<text text-anchor="middle" x="761.66" y="-269.93" font-family="Times,serif" font-size="14.00">*0</text>
</g>
<!-- node2&#45;&gt;node4 -->
<g id="edge11" class="edge">
<title>node2&#45;&gt;node4</title>
<path fill="none" stroke="red" d="M989.2,-291.96C980.83,-289.2 972.19,-286.44 964,-284 926.2,-272.72 883.41,-261.55 849.36,-253.05"/>
<polygon fill="red" stroke="red" points="850.1,-249.63 839.55,-250.61 848.41,-256.42 850.1,-249.63"/>
</g>
<!-- c0 -->
<!-- c1 -->
<!-- c0&#45;&gt;c1 -->
<g id="edge18" class="edge">
<title>c0&#45;&gt;c1</title>
<path fill="none" stroke="red" d="M1673.89,-392C1685.11,-392 1743.24,-392 1768.86,-392"/>
<polygon fill="red" stroke="red" points="1769.06,-395.5 1779.06,-392 1769.06,-388.5 1769.06,-395.5"/>
<text text-anchor="middle" x="1726.5" y="-398.8" font-family="Times,serif" font-size="14.00">Control flow</text>
</g>
<!-- c2 -->
<!-- c3 -->
<!-- c2&#45;&gt;c3 -->
<g id="edge19" class="edge">
<title>c2&#45;&gt;c3</title>
<path fill="none" stroke="red" stroke-dasharray="5,2" d="M1467.08,-392C1484.05,-392 1600.21,-392 1638.08,-392"/>
<polygon fill="red" stroke="red" points="1638.17,-395.5 1648.17,-392 1638.17,-388.5 1638.17,-395.5"/>
<text text-anchor="middle" x="1557.5" y="-398.8" font-family="Times,serif" font-size="14.00">Control flow back edge</text>
</g>
<!-- d0 -->
<!-- d1 -->
<!-- d0&#45;&gt;d1 -->
<g id="edge20" class="edge">
<title>d0&#45;&gt;d1</title>
<path fill="none" stroke="black" d="M1355.86,-392C1365.41,-392 1409.31,-392 1430.92,-392"/>
<polygon fill="black" stroke="black" points="1431.15,-395.5 1441.15,-392 1431.15,-388.5 1431.15,-395.5"/>
<text text-anchor="middle" x="1398.5" y="-398.8" font-family="Times,serif" font-size="14.00">Data flow</text>
</g>
<!-- d2 -->
<!-- d3 -->
<!-- d2&#45;&gt;d3 -->
<g id="edge21" class="edge">
<title>d2&#45;&gt;d3</title>
<path fill="none" stroke="black" stroke-dasharray="1,5" d="M1229.81,-392C1240.46,-392 1295.46,-392 1320.08,-392"/>
<polygon fill="black" stroke="black" points="1320.15,-395.5 1330.15,-392 1320.15,-388.5 1320.15,-395.5"/>
<text text-anchor="middle" x="1280" y="-398.8" font-family="Times,serif" font-size="14.00">Declaration</text>
</g>
<!-- d4 -->
<!-- d5 -->
<!-- d4&#45;&gt;d5 -->
<g id="edge22" class="edge">
<title>d4&#45;&gt;d5</title>
<path fill="none" stroke="blue" d="M1087.1,-392C1099.72,-392 1165.88,-392 1193.68,-392"/>
<polygon fill="blue" stroke="blue" points="1193.84,-395.5 1203.84,-392 1193.84,-388.5 1193.84,-395.5"/>
<text text-anchor="middle" x="1145.5" y="-398.8" font-family="Times,serif" font-size="14.00">PHI Data flow</text>
</g>
<!-- d6 -->
<!-- d7 -->
<!-- d6&#45;&gt;d7 -->
<g id="edge23" class="edge">
<title>d6&#45;&gt;d7</title>
<path fill="none" stroke="green" d="M950,-392C961.94,-392 1024.3,-392 1050.93,-392"/>
<polygon fill="green" stroke="green" points="1050.95,-395.5 1060.95,-392 1050.95,-388.5 1050.95,-395.5"/>
<text text-anchor="middle" x="1005.5" y="-398.8" font-family="Times,serif" font-size="14.00">Memory flow</text>
</g>
</g>
</svg>
