<?xml version="1.0" encoding="UTF-8" standalone="no"?>
<!DOCTYPE svg PUBLIC "-//W3C//DTD SVG 1.1//EN"
 "http://www.w3.org/Graphics/SVG/1.1/DTD/svg11.dtd">
<!-- Generated by graphviz version 2.43.0 (0)
 -->
<!-- Title: debugoutput Pages: 1 -->
<svg width="1810pt" height="505pt"
 viewBox="0.00 0.00 1810.10 504.80" xmlns="http://www.w3.org/2000/svg" xmlns:xlink="http://www.w3.org/1999/xlink">
<g id="graph0" class="graph" transform="scale(1 1) rotate(0) translate(4 500.8)">
<title>debugoutput</title>
<polygon fill="white" stroke="transparent" points="-4,4 -4,-500.8 1806.1,-500.8 1806.1,4 -4,4"/>
<g id="clust1" class="cluster">
<title>cluster_000</title>
<polygon fill="none" stroke="black" points="938.1,-446.2 938.1,-488.8 1777.1,-488.8 1777.1,-446.2 938.1,-446.2"/>
<text text-anchor="middle" x="1357.6" y="-473.6" font-family="Times,serif" font-size="14.00">Legend</text>
</g>
<!-- node0 -->
<g id="node1" class="node">
<title>node0</title>
<polygon fill="lightgrey" stroke="black" points="928.1,-474 762.1,-474 762.1,-438 928.1,-438 928.1,-474"/>
<text text-anchor="middle" x="845.1" y="-452.3" font-family="Times,serif" font-size="14.00">#0 Method Order : 0</text>
</g>
<!-- node1 -->
<g id="node2" class="node">
<title>node1</title>
<polygon fill="lightgrey" stroke="black" points="932.1,-328 758.1,-328 758.1,-292 932.1,-292 932.1,-328"/>
<text text-anchor="middle" x="845.1" y="-306.3" font-family="Times,serif" font-size="14.00">#1 ClassInit Order : 5</text>
</g>
<!-- node0&#45;&gt;node1 -->
<g id="edge3" class="edge">
<title>node0&#45;&gt;node1</title>
<path fill="none" stroke="black" d="M840.55,-437.92C837.94,-413.23 837.65,-367.35 839.69,-338.04"/>
<polygon fill="black" stroke="black" points="843.18,-338.32 840.55,-328.06 836.21,-337.73 843.18,-338.32"/>
</g>
<!-- node5 -->
<g id="node3" class="node">
<title>node5</title>
<polygon fill="lightgreen" stroke="black" points="1399.87,-375.54 1399.87,-390.46 1248.29,-401 1033.91,-401 882.33,-390.46 882.33,-375.54 1033.91,-365 1248.29,-365 1399.87,-375.54"/>
<text text-anchor="middle" x="1141.1" y="-379.3" font-family="Times,serif" font-size="14.00">#5 Class StaticFieldAccessTest$Source Order : 1</text>
</g>
<!-- node0&#45;&gt;node5 -->
<g id="edge12" class="edge">
<title>node0&#45;&gt;node5</title>
<path fill="none" stroke="black" stroke-dasharray="1,5" d="M910.14,-437.99C952.46,-427.58 1008.08,-414.22 1054.17,-403.39"/>
<polygon fill="black" stroke="black" points="1055.21,-406.74 1064.15,-401.05 1053.61,-399.93 1055.21,-406.74"/>
</g>
<!-- node3 -->
<g id="node4" class="node">
<title>node3</title>
<polygon fill="lightgrey" stroke="black" points="808.1,-401 620.1,-401 620.1,-365 808.1,-365 808.1,-401"/>
<text text-anchor="middle" x="714.1" y="-379.3" font-family="Times,serif" font-size="14.00">#3 LabelNode Order : 3</text>
</g>
<!-- node0&#45;&gt;node3 -->
<g id="edge8" class="edge">
<title>node0&#45;&gt;node3</title>
<path fill="none" stroke="red" d="M807.86,-437.99C789.32,-428.49 767.11,-416.54 748.92,-406.29"/>
<polygon fill="red" stroke="red" points="750.23,-403.01 739.81,-401.11 746.77,-409.1 750.23,-403.01"/>
</g>
<!-- node2 -->
<g id="node5" class="node">
<title>node2</title>
<polygon fill="lightgrey" stroke="black" points="1802.1,-401 1494.1,-401 1494.1,-365 1802.1,-365 1802.1,-401"/>
<text text-anchor="middle" x="1648.1" y="-379.3" font-family="Times,serif" font-size="14.00">#2 this : StaticFieldAccessTest Order : 4</text>
</g>
<!-- node0&#45;&gt;node2 -->
<g id="edge6" class="edge">
<title>node0&#45;&gt;node2</title>
<path fill="none" stroke="red" d="M925.45,-437.96C1166.47,-411.18 1230.23,-449.54 1471.1,-420 1501.56,-416.26 1534.66,-409.72 1563.96,-403.22"/>
<polygon fill="red" stroke="red" points="1564.75,-406.63 1573.74,-401.03 1563.21,-399.8 1564.75,-406.63"/>
</g>
<!-- node4 -->
<g id="node6" class="node">
<title>node4</title>
<polygon fill="lightgreen" stroke="black" points="564.3,-375.54 564.3,-390.46 398.99,-401 165.21,-401 -0.1,-390.46 -0.1,-375.54 165.21,-365 398.99,-365 564.3,-375.54"/>
<text text-anchor="middle" x="282.1" y="-379.3" font-family="Times,serif" font-size="14.00">#4 Class StaticFieldAccessTest$Destination Order : 2</text>
</g>
<!-- node0&#45;&gt;node4 -->
<g id="edge10" class="edge">
<title>node0&#45;&gt;node4</title>
<path fill="none" stroke="black" stroke-dasharray="1,5" d="M761.97,-445.13C671.17,-433.94 524.45,-415.48 417.1,-401.77"/>
<polygon fill="black" stroke="black" points="417.53,-398.3 407.17,-400.5 416.64,-405.24 417.53,-398.3"/>
</g>
<!-- node1&#45;&gt;node0 -->
<g id="edge1" class="edge">
<title>node1&#45;&gt;node0</title>
<path fill="none" stroke="green" stroke-width="2" d="M849.65,-328.06C852.26,-352.73 852.55,-398.61 850.51,-427.93"/>
<polygon fill="green" stroke="green" stroke-width="2" points="847.02,-427.65 849.66,-437.92 854,-428.25 847.02,-427.65"/>
</g>
<!-- node6 -->
<g id="node7" class="node">
<title>node6</title>
<polygon fill="orange" stroke="black" points="1302.17,-229.54 1302.17,-244.46 1156.27,-255 949.93,-255 804.03,-244.46 804.03,-229.54 949.93,-219 1156.27,-219 1302.17,-229.54"/>
<text text-anchor="middle" x="1053.1" y="-233.3" font-family="Times,serif" font-size="14.00">#6 GetStaticField : short_field : short Order : 6</text>
</g>
<!-- node1&#45;&gt;node6 -->
<g id="edge15" class="edge">
<title>node1&#45;&gt;node6</title>
<path fill="none" stroke="black" d="M894.92,-291.99C924.42,-281.92 961.99,-269.1 993.11,-258.48"/>
<polygon fill="black" stroke="black" points="994.63,-261.66 1002.96,-255.11 992.37,-255.03 994.63,-261.66"/>
</g>
<!-- node7 -->
<g id="node8" class="node">
<title>node7</title>
<polygon fill="lightgrey" stroke="black" points="863.1,-182 689.1,-182 689.1,-146 863.1,-146 863.1,-182"/>
<text text-anchor="middle" x="776.1" y="-160.3" font-family="Times,serif" font-size="14.00">#7 ClassInit Order : 7</text>
</g>
<!-- node1&#45;&gt;node7 -->
<g id="edge19" class="edge">
<title>node1&#45;&gt;node7</title>
<path fill="none" stroke="red" d="M824.74,-291.96C814.34,-282.18 802.38,-269.07 795.1,-255 784.98,-235.44 780.25,-210.83 778.04,-192.29"/>
<polygon fill="red" stroke="red" points="781.5,-191.75 777.01,-182.16 774.54,-192.46 781.5,-191.75"/>
</g>
<!-- node5&#45;&gt;node0 -->
<g id="edge11" class="edge">
<title>node5&#45;&gt;node0</title>
<path fill="none" stroke="green" stroke-width="2" d="M1075.62,-401.11C1033.3,-411.53 977.78,-424.86 931.81,-435.66"/>
<polygon fill="green" stroke="green" stroke-width="2" points="930.8,-432.3 921.86,-437.99 932.39,-439.12 930.8,-432.3"/>
</g>
<!-- node5&#45;&gt;node1 -->
<g id="edge2" class="edge">
<title>node5&#45;&gt;node1</title>
<path fill="none" stroke="black" d="M1070.2,-364.99C1026.78,-354.58 971.08,-341.22 925.95,-330.39"/>
<polygon fill="black" stroke="black" points="926.73,-326.98 916.19,-328.05 925.1,-333.79 926.73,-326.98"/>
<text text-anchor="middle" x="935.79" y="-320.36" font-family="Times,serif" font-size="14.00">*0</text>
</g>
<!-- node5&#45;&gt;node6 -->
<g id="edge14" class="edge">
<title>node5&#45;&gt;node6</title>
<path fill="none" stroke="black" d="M1130.66,-364.92C1115.38,-339.91 1086.8,-293.14 1068.92,-263.89"/>
<polygon fill="black" stroke="black" points="1071.73,-261.77 1063.53,-255.06 1065.76,-265.42 1071.73,-261.77"/>
<text text-anchor="middle" x="1080.19" y="-262.42" font-family="Times,serif" font-size="14.00">*0</text>
</g>
<!-- node3&#45;&gt;node0 -->
<g id="edge7" class="edge">
<title>node3&#45;&gt;node0</title>
<path fill="none" stroke="green" stroke-width="2" d="M751.55,-401.11C770.12,-410.63 792.32,-422.59 810.49,-432.82"/>
<polygon fill="green" stroke="green" stroke-width="2" points="809.16,-436.09 819.58,-437.99 812.62,-430.01 809.16,-436.09"/>
</g>
<!-- node3&#45;&gt;node1 -->
<g id="edge4" class="edge">
<title>node3&#45;&gt;node1</title>
<path fill="none" stroke="red" d="M745.48,-364.99C763.17,-355.4 785.47,-343.32 804.49,-333.01"/>
<polygon fill="red" stroke="red" points="806.4,-335.96 813.52,-328.11 803.07,-329.8 806.4,-335.96"/>
</g>
<!-- node2&#45;&gt;node0 -->
<g id="edge5" class="edge">
<title>node2&#45;&gt;node0</title>
<path fill="none" stroke="green" stroke-width="2" d="M1590.13,-401.03C1560.18,-408.2 1523,-415.84 1489.1,-420 1248.11,-449.55 1184.41,-411.14 943.1,-438 941.59,-438.17 940.06,-438.35 938.52,-438.54"/>
<polygon fill="green" stroke="green" stroke-width="2" points="937.69,-435.12 928.25,-439.94 938.63,-442.06 937.69,-435.12"/>
</g>
<!-- node4&#45;&gt;node0 -->
<g id="edge9" class="edge">
<title>node4&#45;&gt;node0</title>
<path fill="none" stroke="green" stroke-width="2" d="M414.76,-400C518.39,-412.89 659.77,-430.74 751.76,-442.56"/>
<polygon fill="green" stroke="green" stroke-width="2" points="751.53,-446.06 761.89,-443.87 752.42,-439.12 751.53,-446.06"/>
</g>
<!-- node4&#45;&gt;node7 -->
<g id="edge17" class="edge">
<title>node4&#45;&gt;node7</title>
<path fill="none" stroke="black" d="M320.11,-364.97C331.53,-359.54 343.97,-353.3 355.1,-347 458.41,-288.54 467.81,-243.91 578.1,-200 609.7,-187.42 645.92,-179.35 678.67,-174.17"/>
<polygon fill="black" stroke="black" points="679.35,-177.61 688.72,-172.66 678.31,-170.69 679.35,-177.61"/>
<text text-anchor="middle" x="672.05" y="-180.02" font-family="Times,serif" font-size="14.00">*0</text>
</g>
<!-- node8 -->
<g id="node9" class="node">
<title>node8</title>
<polygon fill="lightgrey" stroke="black" points="952.6,-109 599.6,-109 599.6,-73 952.6,-73 952.6,-109"/>
<text text-anchor="middle" x="776.1" y="-87.3" font-family="Times,serif" font-size="14.00">#8 PutStaticField : short_field : short Order : 8</text>
</g>
<!-- node4&#45;&gt;node8 -->
<g id="edge21" class="edge">
<title>node4&#45;&gt;node8</title>
<path fill="none" stroke="black" d="M308.15,-364.75C323.96,-352.02 341.1,-333.12 341.1,-311 341.1,-311 341.1,-311 341.1,-163 341.1,-136.21 471.28,-117.48 589.21,-106.01"/>
<polygon fill="black" stroke="black" points="589.86,-109.47 599.48,-105.03 589.19,-102.5 589.86,-109.47"/>
<text text-anchor="middle" x="582.25" y="-111.47" font-family="Times,serif" font-size="14.00">*0</text>
</g>
<!-- node6&#45;&gt;node0 -->
<g id="edge13" class="edge">
<title>node6&#45;&gt;node0</title>
<path fill="none" stroke="green" stroke-width="2" d="M1180.81,-253.28C1311.73,-273.83 1486.08,-317.8 1409.1,-401 1374.8,-438.08 1021.32,-431.68 938.45,-437.81"/>
<polygon fill="green" stroke="green" stroke-width="2" points="938.05,-434.34 928.43,-438.79 938.73,-441.3 938.05,-434.34"/>
</g>
<!-- node6&#45;&gt;node7 -->
<g id="edge18" class="edge">
<title>node6&#45;&gt;node7</title>
<path fill="none" stroke="black" d="M986.75,-218.99C946.45,-208.66 894.83,-195.43 852.79,-184.66"/>
<polygon fill="black" stroke="black" points="853.42,-181.21 842.87,-182.11 851.69,-187.99 853.42,-181.21"/>
</g>
<!-- node6&#45;&gt;node8 -->
<g id="edge22" class="edge">
<title>node6&#45;&gt;node8</title>
<path fill="none" stroke="black" d="M1020.24,-218.92C969.84,-192.72 873.5,-142.64 818.11,-113.84"/>
<polygon fill="black" stroke="black" points="819.41,-110.57 808.92,-109.06 816.18,-116.78 819.41,-110.57"/>
<text text-anchor="middle" x="828.9" y="-106.22" font-family="Times,serif" font-size="14.00">*1</text>
</g>
<!-- node7&#45;&gt;node0 -->
<g id="edge16" class="edge">
<title>node7&#45;&gt;node0</title>
<path fill="none" stroke="green" stroke-width="2" d="M691.91,-182.03C643.46,-194.34 592.1,-212.85 592.1,-236 592.1,-384 592.1,-384 592.1,-384 592.1,-418.37 679.73,-436.87 751.85,-446.29"/>
<polygon fill="green" stroke="green" stroke-width="2" points="751.55,-449.78 761.91,-447.55 752.42,-442.83 751.55,-449.78"/>
</g>
<!-- node7&#45;&gt;node8 -->
<g id="edge23" class="edge">
<title>node7&#45;&gt;node8</title>
<path fill="none" stroke="black" d="M770.22,-145.81C769.38,-137.79 769.15,-128.05 769.52,-119.07"/>
<polygon fill="black" stroke="black" points="773.02,-119.25 770.24,-109.03 766.04,-118.75 773.02,-119.25"/>
</g>
<!-- node7&#45;&gt;node8 -->
<g id="edge24" class="edge">
<title>node7&#45;&gt;node8</title>
<path fill="none" stroke="red" d="M781.98,-145.81C782.82,-137.79 783.05,-128.05 782.68,-119.07"/>
<polygon fill="red" stroke="red" points="786.16,-118.75 781.96,-109.03 779.18,-119.25 786.16,-118.75"/>
</g>
<!-- node8&#45;&gt;node0 -->
<g id="edge20" class="edge">
<title>node8&#45;&gt;node0</title>
<path fill="none" stroke="green" stroke-width="2" d="M952.9,-93.24C1157.33,-97.09 1466.1,-111.44 1466.1,-163 1466.1,-384 1466.1,-384 1466.1,-384 1466.1,-440.92 1032.01,-432.07 938.67,-437.85"/>
<polygon fill="green" stroke="green" stroke-width="2" points="938.1,-434.38 928.42,-438.7 938.68,-441.36 938.1,-434.38"/>
</g>
<!-- node9 -->
<g id="node10" class="node">
<title>node9</title>
<polygon fill="lightgrey" stroke="black" points="856.6,-36 695.6,-36 695.6,0 856.6,0 856.6,-36"/>
<text text-anchor="middle" x="776.1" y="-14.3" font-family="Times,serif" font-size="14.00">#9 Return Order : 9</text>
</g>
<!-- node8&#45;&gt;node9 -->
<g id="edge26" class="edge">
<title>node8&#45;&gt;node9</title>
<path fill="none" stroke="red" d="M764.34,-72.81C762.67,-64.79 762.2,-55.05 762.94,-46.07"/>
<polygon fill="red" stroke="red" points="766.43,-46.42 764.38,-36.03 759.5,-45.43 766.43,-46.42"/>
</g>
<!-- node8&#45;&gt;node9 -->
<g id="edge27" class="edge">
<title>node8&#45;&gt;node9</title>
<path fill="none" stroke="black" d="M787.86,-72.81C789.54,-64.79 790,-55.05 789.26,-46.07"/>
<polygon fill="black" stroke="black" points="792.7,-45.43 787.82,-36.03 785.77,-46.42 792.7,-45.43"/>
</g>
<!-- node9&#45;&gt;node8 -->
<g id="edge25" class="edge">
<title>node9&#45;&gt;node8</title>
<path fill="none" stroke="green" stroke-width="2" d="M776.1,-36.03C776.1,-44.03 776.1,-53.77 776.1,-62.75"/>
<polygon fill="green" stroke="green" stroke-width="2" points="772.6,-62.81 776.1,-72.81 779.6,-62.81 772.6,-62.81"/>
</g>
<!-- c0 -->
<!-- c1 -->
<!-- c0&#45;&gt;c1 -->
<g id="edge28" class="edge">
<title>c0&#45;&gt;c1</title>
<path fill="none" stroke="red" d="M1659.99,-456C1671.21,-456 1729.34,-456 1754.96,-456"/>
<polygon fill="red" stroke="red" points="1755.16,-459.5 1765.16,-456 1755.16,-452.5 1755.16,-459.5"/>
<text text-anchor="middle" x="1712.6" y="-462.8" font-family="Times,serif" font-size="14.00">Control flow</text>
</g>
<!-- c2 -->
<!-- c3 -->
<!-- c2&#45;&gt;c3 -->
<g id="edge29" class="edge">
<title>c2&#45;&gt;c3</title>
<path fill="none" stroke="red" stroke-dasharray="5,2" d="M1453.18,-456C1470.15,-456 1586.31,-456 1624.18,-456"/>
<polygon fill="red" stroke="red" points="1624.27,-459.5 1634.27,-456 1624.27,-452.5 1624.27,-459.5"/>
<text text-anchor="middle" x="1543.6" y="-462.8" font-family="Times,serif" font-size="14.00">Control flow back edge</text>
</g>
<!-- d0 -->
<!-- d1 -->
<!-- d0&#45;&gt;d1 -->
<g id="edge30" class="edge">
<title>d0&#45;&gt;d1</title>
<path fill="none" stroke="black" d="M1341.96,-456C1351.51,-456 1395.41,-456 1417.02,-456"/>
<polygon fill="black" stroke="black" points="1417.25,-459.5 1427.25,-456 1417.25,-452.5 1417.25,-459.5"/>
<text text-anchor="middle" x="1384.6" y="-462.8" font-family="Times,serif" font-size="14.00">Data flow</text>
</g>
<!-- d2 -->
<!-- d3 -->
<!-- d2&#45;&gt;d3 -->
<g id="edge31" class="edge">
<title>d2&#45;&gt;d3</title>
<path fill="none" stroke="black" stroke-dasharray="1,5" d="M1215.91,-456C1226.56,-456 1281.57,-456 1306.18,-456"/>
<polygon fill="black" stroke="black" points="1306.25,-459.5 1316.25,-456 1306.25,-452.5 1306.25,-459.5"/>
<text text-anchor="middle" x="1266.1" y="-462.8" font-family="Times,serif" font-size="14.00">Declaration</text>
</g>
<!-- d4 -->
<!-- d5 -->
<!-- d4&#45;&gt;d5 -->
<g id="edge32" class="edge">
<title>d4&#45;&gt;d5</title>
<path fill="none" stroke="blue" d="M1073.2,-456C1085.82,-456 1151.98,-456 1179.78,-456"/>
<polygon fill="blue" stroke="blue" points="1179.94,-459.5 1189.94,-456 1179.94,-452.5 1179.94,-459.5"/>
<text text-anchor="middle" x="1131.6" y="-462.8" font-family="Times,serif" font-size="14.00">PHI Data flow</text>
</g>
<!-- d6 -->
<!-- d7 -->
<!-- d6&#45;&gt;d7 -->
<g id="edge33" class="edge">
<title>d6&#45;&gt;d7</title>
<path fill="none" stroke="green" d="M950.21,-456C961.25,-456 1012.77,-456 1036.76,-456"/>
<polygon fill="green" stroke="green" points="1037,-459.5 1047,-456 1037,-452.5 1037,-459.5"/>
<text text-anchor="middle" x="998.6" y="-462.8" font-family="Times,serif" font-size="14.00">Dominance</text>
</g>
</g>
</svg>
