<?xml version="1.0" encoding="UTF-8" standalone="no"?>
<!DOCTYPE svg PUBLIC "-//W3C//DTD SVG 1.1//EN"
 "http://www.w3.org/Graphics/SVG/1.1/DTD/svg11.dtd">
<!-- Generated by graphviz version 2.43.0 (0)
 -->
<!-- Title: %3 Pages: 1 -->
<svg width="1184pt" height="295pt"
 viewBox="0.00 0.00 1183.50 294.80" xmlns="http://www.w3.org/2000/svg" xmlns:xlink="http://www.w3.org/1999/xlink">
<g id="graph0" class="graph" transform="scale(1 1) rotate(0) translate(4 290.8)">
<title>%3</title>
<polygon fill="white" stroke="transparent" points="-4,4 -4,-290.8 1179.5,-290.8 1179.5,4 -4,4"/>
<g id="clust1" class="cluster">
<title>cluster_000</title>
<polygon fill="none" stroke="black" points="314.5,-236.2 314.5,-278.8 1167.5,-278.8 1167.5,-236.2 314.5,-236.2"/>
<text text-anchor="middle" x="741" y="-263.6" font-family="Times,serif" font-size="14.00">Legend</text>
</g>
<!-- node0 -->
<g id="node1" class="node">
<title>node0</title>
<polygon fill="lightgrey" stroke="transparent" points="305,-273 4,-273 4,-219 305,-219 305,-273"/>
<polygon fill="none" stroke="black" points="4.5,-246 4.5,-273 305.5,-273 305.5,-246 4.5,-246"/>
<text text-anchor="start" x="114.5" y="-255.8" font-family="Times,serif" font-size="14.00">#0 Method</text>
<polygon fill="yellow" stroke="transparent" points="4.5,-219 4.5,-246 94.5,-246 94.5,-219 4.5,-219"/>
<polygon fill="none" stroke="black" points="4.5,-219 4.5,-246 94.5,-246 94.5,-219 4.5,-219"/>
<text text-anchor="start" x="10.5" y="-228.8" font-family="Times,serif" font-size="14.00">arg0 : long</text>
<polygon fill="yellow" stroke="transparent" points="94.5,-219 94.5,-246 184.5,-246 184.5,-219 94.5,-219"/>
<polygon fill="none" stroke="black" points="94.5,-219 94.5,-246 184.5,-246 184.5,-219 94.5,-219"/>
<text text-anchor="start" x="100.5" y="-228.8" font-family="Times,serif" font-size="14.00">arg1 : long</text>
<polygon fill="yellow" stroke="transparent" points="184.5,-219 184.5,-246 305.5,-246 305.5,-219 184.5,-219"/>
<polygon fill="none" stroke="black" points="184.5,-219 184.5,-246 305.5,-246 305.5,-219 184.5,-219"/>
<text text-anchor="start" x="190.5" y="-228.8" font-family="Times,serif" font-size="14.00">this : MathTest</text>
</g>
<!-- node5 -->
<g id="node2" class="node">
<title>node5</title>
<polygon fill="orange" stroke="black" points="171.43,-83.54 171.43,-98.46 122.27,-109 52.73,-109 3.57,-98.46 3.57,-83.54 52.73,-73 122.27,-73 171.43,-83.54"/>
<text text-anchor="middle" x="87.5" y="-87.3" font-family="Times,serif" font-size="14.00">#5 Rem : long</text>
</g>
<!-- node0&#45;&gt;node5 -->
<g id="edge1" class="edge">
<title>node0:prj1&#45;&gt;node5</title>
<path fill="none" stroke="black" d="M49.5,-219C49.5,-183.04 63.66,-143.66 74.69,-118.44"/>
<polygon fill="black" stroke="black" points="77.94,-119.73 78.88,-109.18 71.57,-116.85 77.94,-119.73"/>
<text text-anchor="middle" x="79.11" y="-125.48" font-family="Times,serif" font-size="14.00">*0</text>
</g>
<!-- node0&#45;&gt;node5 -->
<g id="edge2" class="edge">
<title>node0:prj2&#45;&gt;node5</title>
<path fill="none" stroke="black" d="M139.5,-219C139.5,-196.97 116.44,-201.66 106.5,-182 96.56,-162.34 91.82,-137.74 89.55,-119.23"/>
<polygon fill="black" stroke="black" points="93.02,-118.7 88.49,-109.12 86.06,-119.43 93.02,-118.7"/>
<text text-anchor="middle" x="98.79" y="-122.56" font-family="Times,serif" font-size="14.00">*1</text>
</g>
<!-- node4 -->
<g id="node3" class="node">
<title>node4</title>
<polygon fill="lightgrey" stroke="black" points="235,-182 116,-182 116,-146 235,-146 235,-182"/>
<text text-anchor="middle" x="175.5" y="-160.3" font-family="Times,serif" font-size="14.00">#4 LabelNode</text>
</g>
<!-- node0&#45;&gt;node4 -->
<g id="edge4" class="edge">
<title>node0&#45;&gt;node4</title>
<path fill="none" stroke="red" d="M161.38,-218.81C163.62,-210.25 166.12,-200.74 168.38,-192.12"/>
<polygon fill="red" stroke="red" points="171.84,-192.74 170.99,-182.17 165.07,-190.96 171.84,-192.74"/>
</g>
<!-- node6 -->
<g id="node4" class="node">
<title>node6</title>
<polygon fill="lightgrey" stroke="black" points="175,-36 0,-36 0,0 175,0 175,-36"/>
<text text-anchor="middle" x="87.5" y="-14.3" font-family="Times,serif" font-size="14.00">#6 ReturnValue : long</text>
</g>
<!-- node0&#45;&gt;node6 -->
<g id="edge7" class="edge">
<title>node0&#45;&gt;node6</title>
<path fill="none" stroke="green" d="M208.36,-218.97C222.35,-209.41 235.67,-197.13 243.5,-182 250.85,-167.79 249.08,-161 243.5,-146 225.19,-96.76 174.53,-61.53 135.86,-40.85"/>
<polygon fill="green" stroke="green" points="137.3,-37.66 126.81,-36.16 134.08,-43.87 137.3,-37.66"/>
</g>
<!-- node5&#45;&gt;node6 -->
<g id="edge5" class="edge">
<title>node5&#45;&gt;node6</title>
<path fill="none" stroke="black" d="M81.62,-72.81C80.78,-64.79 80.55,-55.05 80.92,-46.07"/>
<polygon fill="black" stroke="black" points="84.42,-46.25 81.64,-36.03 77.44,-45.75 84.42,-46.25"/>
<text text-anchor="middle" x="88.78" y="-51.01" font-family="Times,serif" font-size="14.00">*0</text>
</g>
<!-- node5&#45;&gt;node6 -->
<g id="edge6" class="edge">
<title>node5&#45;&gt;node6</title>
<path fill="none" stroke="red" d="M93.38,-72.81C94.22,-64.79 94.45,-55.05 94.08,-46.07"/>
<polygon fill="red" stroke="red" points="97.56,-45.75 93.36,-36.03 90.58,-46.25 97.56,-45.75"/>
</g>
<!-- node4&#45;&gt;node5 -->
<g id="edge3" class="edge">
<title>node4&#45;&gt;node5</title>
<path fill="none" stroke="red" d="M154.2,-145.81C142.85,-136.66 128.72,-125.26 116.4,-115.32"/>
<polygon fill="red" stroke="red" points="118.59,-112.58 108.61,-109.03 114.19,-118.03 118.59,-112.58"/>
</g>
<!-- c0 -->
<!-- c1 -->
<!-- c0&#45;&gt;c1 -->
<g id="edge8" class="edge">
<title>c0&#45;&gt;c1</title>
<path fill="none" stroke="red" d="M1050.39,-246C1061.61,-246 1119.74,-246 1145.36,-246"/>
<polygon fill="red" stroke="red" points="1145.56,-249.5 1155.56,-246 1145.56,-242.5 1145.56,-249.5"/>
<text text-anchor="middle" x="1103" y="-252.8" font-family="Times,serif" font-size="14.00">Control flow</text>
</g>
<!-- c2 -->
<!-- c3 -->
<!-- c2&#45;&gt;c3 -->
<g id="edge9" class="edge">
<title>c2&#45;&gt;c3</title>
<path fill="none" stroke="red" stroke-dasharray="5,2" d="M843.58,-246C860.55,-246 976.71,-246 1014.58,-246"/>
<polygon fill="red" stroke="red" points="1014.67,-249.5 1024.67,-246 1014.67,-242.5 1014.67,-249.5"/>
<text text-anchor="middle" x="934" y="-252.8" font-family="Times,serif" font-size="14.00">Control flow back edge</text>
</g>
<!-- d0 -->
<!-- d1 -->
<!-- d0&#45;&gt;d1 -->
<g id="edge10" class="edge">
<title>d0&#45;&gt;d1</title>
<path fill="none" stroke="black" d="M732.36,-246C741.91,-246 785.81,-246 807.42,-246"/>
<polygon fill="black" stroke="black" points="807.65,-249.5 817.65,-246 807.65,-242.5 807.65,-249.5"/>
<text text-anchor="middle" x="775" y="-252.8" font-family="Times,serif" font-size="14.00">Data flow</text>
</g>
<!-- d2 -->
<!-- d3 -->
<!-- d2&#45;&gt;d3 -->
<g id="edge11" class="edge">
<title>d2&#45;&gt;d3</title>
<path fill="none" stroke="black" stroke-dasharray="1,5" d="M606.31,-246C616.96,-246 671.96,-246 696.58,-246"/>
<polygon fill="black" stroke="black" points="696.65,-249.5 706.65,-246 696.65,-242.5 696.65,-249.5"/>
<text text-anchor="middle" x="656.5" y="-252.8" font-family="Times,serif" font-size="14.00">Declaration</text>
</g>
<!-- d4 -->
<!-- d5 -->
<!-- d4&#45;&gt;d5 -->
<g id="edge12" class="edge">
<title>d4&#45;&gt;d5</title>
<path fill="none" stroke="blue" d="M463.6,-246C476.22,-246 542.38,-246 570.18,-246"/>
<polygon fill="blue" stroke="blue" points="570.34,-249.5 580.34,-246 570.34,-242.5 570.34,-249.5"/>
<text text-anchor="middle" x="522" y="-252.8" font-family="Times,serif" font-size="14.00">PHI Data flow</text>
</g>
<!-- d6 -->
<!-- d7 -->
<!-- d6&#45;&gt;d7 -->
<g id="edge13" class="edge">
<title>d6&#45;&gt;d7</title>
<path fill="none" stroke="green" d="M326.5,-246C338.44,-246 400.8,-246 427.43,-246"/>
<polygon fill="green" stroke="green" points="427.45,-249.5 437.45,-246 427.45,-242.5 427.45,-249.5"/>
<text text-anchor="middle" x="382" y="-252.8" font-family="Times,serif" font-size="14.00">Memory flow</text>
</g>
</g>
</svg>
