<?xml version="1.0" encoding="UTF-8" standalone="no"?>
<!DOCTYPE svg PUBLIC "-//W3C//DTD SVG 1.1//EN"
 "http://www.w3.org/Graphics/SVG/1.1/DTD/svg11.dtd">
<!-- Generated by graphviz version 2.43.0 (0)
 -->
<!-- Title: debugoutput Pages: 1 -->
<svg width="700pt" height="286pt"
 viewBox="0.00 0.00 700.26 285.80" xmlns="http://www.w3.org/2000/svg" xmlns:xlink="http://www.w3.org/1999/xlink">
<g id="graph0" class="graph" transform="scale(1 1) rotate(0) translate(4 281.8)">
<title>debugoutput</title>
<polygon fill="white" stroke="transparent" points="-4,4 -4,-281.8 696.26,-281.8 696.26,4 -4,4"/>
<g id="clust1" class="cluster">
<title>cluster_000</title>
<polygon fill="none" stroke="black" points="225.26,-227.2 225.26,-269.8 684.26,-269.8 684.26,-227.2 225.26,-227.2"/>
<text text-anchor="middle" x="454.76" y="-254.6" font-family="Times,serif" font-size="14.00">Legend</text>
</g>
<!-- node0 -->
<g id="node1" class="node">
<title>node0</title>
<polygon fill="lightgrey" stroke="black" points="215.26,-255 49.26,-255 49.26,-219 215.26,-219 215.26,-255"/>
<text text-anchor="middle" x="132.26" y="-233.3" font-family="Times,serif" font-size="14.00">#0 Method Order : 0</text>
</g>
<!-- node1 -->
<g id="node2" class="node">
<title>node1</title>
<polygon fill="lightgrey" stroke="black" points="226.26,-182 38.26,-182 38.26,-146 226.26,-146 226.26,-182"/>
<text text-anchor="middle" x="132.26" y="-160.3" font-family="Times,serif" font-size="14.00">#1 LabelNode Order : 1</text>
</g>
<!-- node0&#45;&gt;node1 -->
<g id="edge2" class="edge">
<title>node0&#45;&gt;node1</title>
<path fill="none" stroke="red" d="M126.38,-218.81C125.54,-210.79 125.31,-201.05 125.68,-192.07"/>
<polygon fill="red" stroke="red" points="129.17,-192.25 126.4,-182.03 122.19,-191.75 129.17,-192.25"/>
</g>
<!-- node1&#45;&gt;node0 -->
<g id="edge1" class="edge">
<title>node1&#45;&gt;node0</title>
<path fill="none" stroke="fuchsia" stroke-width="2" d="M138.12,-182.03C138.97,-190.03 139.21,-199.77 138.84,-208.75"/>
<polygon fill="fuchsia" stroke="fuchsia" stroke-width="2" points="135.34,-208.59 138.13,-218.81 142.33,-209.08 135.34,-208.59"/>
</g>
<!-- node2 -->
<g id="node3" class="node">
<title>node2</title>
<polygon fill="orange" stroke="black" points="264.27,-83.54 264.27,-98.46 186.94,-109 77.57,-109 0.24,-98.46 0.24,-83.54 77.57,-73 186.94,-73 264.27,-83.54"/>
<text text-anchor="middle" x="132.26" y="-87.3" font-family="Times,serif" font-size="14.00">#2 Rem : long Order : 2</text>
</g>
<!-- node1&#45;&gt;node2 -->
<g id="edge4" class="edge">
<title>node1&#45;&gt;node2</title>
<path fill="none" stroke="red" d="M126.38,-145.81C125.54,-137.79 125.31,-128.05 125.68,-119.07"/>
<polygon fill="red" stroke="red" points="129.17,-119.25 126.4,-109.03 122.19,-118.75 129.17,-119.25"/>
</g>
<!-- node2&#45;&gt;node1 -->
<g id="edge3" class="edge">
<title>node2&#45;&gt;node1</title>
<path fill="none" stroke="fuchsia" stroke-width="2" d="M138.12,-109.03C138.97,-117.03 139.21,-126.77 138.84,-135.75"/>
<polygon fill="fuchsia" stroke="fuchsia" stroke-width="2" points="135.34,-135.59 138.13,-145.81 142.33,-136.08 135.34,-135.59"/>
</g>
<!-- node3 -->
<g id="node4" class="node">
<title>node3</title>
<polygon fill="lightgrey" stroke="black" points="254.26,-36 10.26,-36 10.26,0 254.26,0 254.26,-36"/>
<text text-anchor="middle" x="132.26" y="-14.3" font-family="Times,serif" font-size="14.00">#3 ReturnValue : long Order : 3</text>
</g>
<!-- node2&#45;&gt;node3 -->
<g id="edge6" class="edge">
<title>node2&#45;&gt;node3</title>
<path fill="none" stroke="red" d="M126.38,-72.81C125.54,-64.79 125.31,-55.05 125.68,-46.07"/>
<polygon fill="red" stroke="red" points="129.17,-46.25 126.4,-36.03 122.19,-45.75 129.17,-46.25"/>
</g>
<!-- node3&#45;&gt;node2 -->
<g id="edge5" class="edge">
<title>node3&#45;&gt;node2</title>
<path fill="none" stroke="fuchsia" stroke-width="2" d="M138.12,-36.03C138.97,-44.03 139.21,-53.77 138.84,-62.75"/>
<polygon fill="fuchsia" stroke="fuchsia" stroke-width="2" points="135.34,-62.59 138.13,-72.81 142.33,-63.08 135.34,-62.59"/>
</g>
<!-- c0 -->
<!-- c1 -->
<!-- c0&#45;&gt;c1 -->
<g id="edge7" class="edge">
<title>c0&#45;&gt;c1</title>
<path fill="none" stroke="red" d="M567.15,-237C578.36,-237 636.5,-237 662.11,-237"/>
<polygon fill="red" stroke="red" points="662.31,-240.5 672.31,-237 662.31,-233.5 662.31,-240.5"/>
<text text-anchor="middle" x="619.76" y="-243.8" font-family="Times,serif" font-size="14.00">Control flow</text>
</g>
<!-- c2 -->
<!-- c3 -->
<!-- c2&#45;&gt;c3 -->
<g id="edge8" class="edge">
<title>c2&#45;&gt;c3</title>
<path fill="none" stroke="red" stroke-dasharray="5,2" d="M360.33,-237C377.3,-237 493.46,-237 531.34,-237"/>
<polygon fill="red" stroke="red" points="531.43,-240.5 541.43,-237 531.43,-233.5 531.43,-240.5"/>
<text text-anchor="middle" x="450.76" y="-243.8" font-family="Times,serif" font-size="14.00">Control flow back edge</text>
</g>
<!-- d8 -->
<!-- d9 -->
<!-- d8&#45;&gt;d9 -->
<g id="edge9" class="edge">
<title>d8&#45;&gt;d9</title>
<path fill="none" stroke="fuchsia" d="M237.37,-237C248.41,-237 299.93,-237 323.91,-237"/>
<polygon fill="fuchsia" stroke="fuchsia" points="324.16,-240.5 334.16,-237 324.16,-233.5 324.16,-240.5"/>
<text text-anchor="middle" x="285.76" y="-243.8" font-family="Times,serif" font-size="14.00">Dominance</text>
</g>
</g>
</svg>
