<?xml version="1.0" encoding="UTF-8" standalone="no"?>
<!DOCTYPE svg PUBLIC "-//W3C//DTD SVG 1.1//EN"
 "http://www.w3.org/Graphics/SVG/1.1/DTD/svg11.dtd">
<!-- Generated by graphviz version 2.43.0 (0)
 -->
<!-- Title: %3 Pages: 1 -->
<svg width="1222pt" height="1454pt"
 viewBox="0.00 0.00 1222.00 1453.80" xmlns="http://www.w3.org/2000/svg" xmlns:xlink="http://www.w3.org/1999/xlink">
<g id="graph0" class="graph" transform="scale(1 1) rotate(0) translate(4 1449.8)">
<title>%3</title>
<polygon fill="white" stroke="transparent" points="-4,4 -4,-1449.8 1218,-1449.8 1218,4 -4,4"/>
<g id="clust1" class="cluster">
<title>cluster_000</title>
<polygon fill="none" stroke="black" points="870,-1395.2 870,-1437.8 1206,-1437.8 1206,-1395.2 870,-1395.2"/>
<text text-anchor="middle" x="1038" y="-1422.6" font-family="Times,serif" font-size="14.00">Legend</text>
</g>
<!-- node0 -->
<g id="node1" class="node">
<title>node0</title>
<polygon fill="lightgrey" stroke="black" points="842.5,-1423 459.5,-1423 459.5,-1387 842.5,-1387 842.5,-1423"/>
<text text-anchor="middle" x="651" y="-1401.3" font-family="Times,serif" font-size="14.00">#0 LocalVariable[name=r, slot=4, type=I] Order: 0</text>
</g>
<!-- node0&#45;&gt;node0 -->
<g id="edge1" class="edge">
<title>node0&#45;&gt;node0</title>
<path fill="none" stroke="fuchsia" d="M842.64,-1409.61C853.82,-1408.51 860.5,-1406.97 860.5,-1405 860.5,-1403.74 857.76,-1402.65 852.85,-1401.75"/>
<polygon fill="fuchsia" stroke="fuchsia" points="853.02,-1398.24 842.64,-1400.39 852.09,-1405.18 853.02,-1398.24"/>
</g>
<!-- node1 -->
<g id="node2" class="node">
<title>node1</title>
<polygon fill="lightgrey" stroke="black" points="844,-1350 458,-1350 458,-1314 844,-1314 844,-1350"/>
<text text-anchor="middle" x="651" y="-1328.3" font-family="Times,serif" font-size="14.00">#1 LocalVariable[name=a, slot=0, type=I] Order: 1</text>
</g>
<!-- node0&#45;&gt;node1 -->
<g id="edge2" class="edge">
<title>node0&#45;&gt;node1</title>
<path fill="none" stroke="red" d="M645.12,-1386.81C644.28,-1378.79 644.05,-1369.05 644.42,-1360.07"/>
<polygon fill="red" stroke="red" points="647.92,-1360.25 645.14,-1350.03 640.94,-1359.75 647.92,-1360.25"/>
</g>
<!-- node1&#45;&gt;node0 -->
<g id="edge3" class="edge">
<title>node1&#45;&gt;node0</title>
<path fill="none" stroke="fuchsia" d="M656.86,-1350.03C657.71,-1358.03 657.95,-1367.77 657.59,-1376.75"/>
<polygon fill="fuchsia" stroke="fuchsia" points="654.09,-1376.59 656.88,-1386.81 661.07,-1377.08 654.09,-1376.59"/>
</g>
<!-- node2 -->
<g id="node3" class="node">
<title>node2</title>
<polygon fill="lightgrey" stroke="black" points="844.5,-1277 457.5,-1277 457.5,-1241 844.5,-1241 844.5,-1277"/>
<text text-anchor="middle" x="651" y="-1255.3" font-family="Times,serif" font-size="14.00">#2 LocalVariable[name=b, slot=1, type=I] Order: 2</text>
</g>
<!-- node1&#45;&gt;node2 -->
<g id="edge4" class="edge">
<title>node1&#45;&gt;node2</title>
<path fill="none" stroke="red" d="M645.12,-1313.81C644.28,-1305.79 644.05,-1296.05 644.42,-1287.07"/>
<polygon fill="red" stroke="red" points="647.92,-1287.25 645.14,-1277.03 640.94,-1286.75 647.92,-1287.25"/>
</g>
<!-- node2&#45;&gt;node1 -->
<g id="edge5" class="edge">
<title>node2&#45;&gt;node1</title>
<path fill="none" stroke="fuchsia" d="M656.86,-1277.03C657.71,-1285.03 657.95,-1294.77 657.59,-1303.75"/>
<polygon fill="fuchsia" stroke="fuchsia" points="654.09,-1303.59 656.88,-1313.81 661.07,-1304.08 654.09,-1303.59"/>
</g>
<!-- node3 -->
<g id="node4" class="node">
<title>node3</title>
<polygon fill="lightgrey" stroke="black" points="844,-1204 458,-1204 458,-1168 844,-1168 844,-1204"/>
<text text-anchor="middle" x="651" y="-1182.3" font-family="Times,serif" font-size="14.00">#3 LocalVariable[name=c, slot=2, type=I] Order: 3</text>
</g>
<!-- node2&#45;&gt;node3 -->
<g id="edge6" class="edge">
<title>node2&#45;&gt;node3</title>
<path fill="none" stroke="red" d="M645.12,-1240.81C644.28,-1232.79 644.05,-1223.05 644.42,-1214.07"/>
<polygon fill="red" stroke="red" points="647.92,-1214.25 645.14,-1204.03 640.94,-1213.75 647.92,-1214.25"/>
</g>
<!-- node3&#45;&gt;node2 -->
<g id="edge7" class="edge">
<title>node3&#45;&gt;node2</title>
<path fill="none" stroke="fuchsia" d="M656.86,-1204.03C657.71,-1212.03 657.95,-1221.77 657.59,-1230.75"/>
<polygon fill="fuchsia" stroke="fuchsia" points="654.09,-1230.59 656.88,-1240.81 661.07,-1231.08 654.09,-1230.59"/>
</g>
<!-- node4 -->
<g id="node5" class="node">
<title>node4</title>
<polygon fill="lightgrey" stroke="black" points="844.5,-1131 457.5,-1131 457.5,-1095 844.5,-1095 844.5,-1131"/>
<text text-anchor="middle" x="651" y="-1109.3" font-family="Times,serif" font-size="14.00">#4 LocalVariable[name=d, slot=3, type=I] Order: 4</text>
</g>
<!-- node3&#45;&gt;node4 -->
<g id="edge8" class="edge">
<title>node3&#45;&gt;node4</title>
<path fill="none" stroke="red" d="M645.12,-1167.81C644.28,-1159.79 644.05,-1150.05 644.42,-1141.07"/>
<polygon fill="red" stroke="red" points="647.92,-1141.25 645.14,-1131.03 640.94,-1140.75 647.92,-1141.25"/>
</g>
<!-- node4&#45;&gt;node3 -->
<g id="edge9" class="edge">
<title>node4&#45;&gt;node3</title>
<path fill="none" stroke="fuchsia" d="M656.86,-1131.03C657.71,-1139.03 657.95,-1148.77 657.59,-1157.75"/>
<polygon fill="fuchsia" stroke="fuchsia" points="654.09,-1157.59 656.88,-1167.81 661.07,-1158.08 654.09,-1157.59"/>
</g>
<!-- node5 -->
<g id="node6" class="node">
<title>node5</title>
<polygon fill="lightgrey" stroke="black" points="842.5,-1058 459.5,-1058 459.5,-1022 842.5,-1022 842.5,-1058"/>
<text text-anchor="middle" x="651" y="-1036.3" font-family="Times,serif" font-size="14.00">#5 LocalVariable[name=r, slot=4, type=I] Order: 5</text>
</g>
<!-- node4&#45;&gt;node5 -->
<g id="edge10" class="edge">
<title>node4&#45;&gt;node5</title>
<path fill="none" stroke="red" d="M645.12,-1094.81C644.28,-1086.79 644.05,-1077.05 644.42,-1068.07"/>
<polygon fill="red" stroke="red" points="647.92,-1068.25 645.14,-1058.03 640.94,-1067.75 647.92,-1068.25"/>
</g>
<!-- node5&#45;&gt;node4 -->
<g id="edge11" class="edge">
<title>node5&#45;&gt;node4</title>
<path fill="none" stroke="fuchsia" d="M656.86,-1058.03C657.71,-1066.03 657.95,-1075.77 657.59,-1084.75"/>
<polygon fill="fuchsia" stroke="fuchsia" points="654.09,-1084.59 656.88,-1094.81 661.07,-1085.08 654.09,-1084.59"/>
</g>
<!-- node6 -->
<g id="node7" class="node">
<title>node6</title>
<polygon fill="lightgrey" stroke="black" points="886,-985 416,-985 416,-949 886,-949 886,-985"/>
<text text-anchor="middle" x="651" y="-963.3" font-family="Times,serif" font-size="14.00">#6 Label[context=CodeModel[id=259077766], bci=0] Order: 6</text>
</g>
<!-- node5&#45;&gt;node6 -->
<g id="edge12" class="edge">
<title>node5&#45;&gt;node6</title>
<path fill="none" stroke="red" d="M645.12,-1021.81C644.28,-1013.79 644.05,-1004.05 644.42,-995.07"/>
<polygon fill="red" stroke="red" points="647.92,-995.25 645.14,-985.03 640.94,-994.75 647.92,-995.25"/>
</g>
<!-- node6&#45;&gt;node5 -->
<g id="edge13" class="edge">
<title>node6&#45;&gt;node5</title>
<path fill="none" stroke="fuchsia" d="M656.86,-985.03C657.71,-993.03 657.95,-1002.77 657.59,-1011.75"/>
<polygon fill="fuchsia" stroke="fuchsia" points="654.09,-1011.59 656.88,-1021.81 661.07,-1012.08 654.09,-1011.59"/>
</g>
<!-- node7 -->
<g id="node8" class="node">
<title>node7</title>
<polygon fill="lightgrey" stroke="black" points="782.5,-912 519.5,-912 519.5,-876 782.5,-876 782.5,-912"/>
<text text-anchor="middle" x="651" y="-890.3" font-family="Times,serif" font-size="14.00">#7 LineNumber[line=18] Order: 7</text>
</g>
<!-- node6&#45;&gt;node7 -->
<g id="edge14" class="edge">
<title>node6&#45;&gt;node7</title>
<path fill="none" stroke="red" d="M645.12,-948.81C644.28,-940.79 644.05,-931.05 644.42,-922.07"/>
<polygon fill="red" stroke="red" points="647.92,-922.25 645.14,-912.03 640.94,-921.75 647.92,-922.25"/>
</g>
<!-- node7&#45;&gt;node6 -->
<g id="edge15" class="edge">
<title>node7&#45;&gt;node6</title>
<path fill="none" stroke="fuchsia" d="M656.86,-912.03C657.71,-920.03 657.95,-929.77 657.59,-938.75"/>
<polygon fill="fuchsia" stroke="fuchsia" points="654.09,-938.59 656.88,-948.81 661.07,-939.08 654.09,-938.59"/>
</g>
<!-- node8 -->
<g id="node9" class="node">
<title>node8</title>
<polygon fill="lightgrey" stroke="black" points="802.5,-839 499.5,-839 499.5,-803 802.5,-803 802.5,-839"/>
<text text-anchor="middle" x="651" y="-817.3" font-family="Times,serif" font-size="14.00">#8 Load[OP=ILOAD_0, slot=0] Order: 8</text>
</g>
<!-- node7&#45;&gt;node8 -->
<g id="edge16" class="edge">
<title>node7&#45;&gt;node8</title>
<path fill="none" stroke="red" d="M645.12,-875.81C644.28,-867.79 644.05,-858.05 644.42,-849.07"/>
<polygon fill="red" stroke="red" points="647.92,-849.25 645.14,-839.03 640.94,-848.75 647.92,-849.25"/>
</g>
<!-- node8&#45;&gt;node7 -->
<g id="edge17" class="edge">
<title>node8&#45;&gt;node7</title>
<path fill="none" stroke="fuchsia" d="M656.86,-839.03C657.71,-847.03 657.95,-856.77 657.59,-865.75"/>
<polygon fill="fuchsia" stroke="fuchsia" points="654.09,-865.59 656.88,-875.81 661.07,-866.08 654.09,-865.59"/>
</g>
<!-- node9 -->
<g id="node10" class="node">
<title>node9</title>
<polygon fill="lightgrey" stroke="black" points="802.5,-766 499.5,-766 499.5,-730 802.5,-730 802.5,-766"/>
<text text-anchor="middle" x="651" y="-744.3" font-family="Times,serif" font-size="14.00">#9 Load[OP=ILOAD_1, slot=1] Order: 9</text>
</g>
<!-- node8&#45;&gt;node9 -->
<g id="edge18" class="edge">
<title>node8&#45;&gt;node9</title>
<path fill="none" stroke="red" d="M645.12,-802.81C644.28,-794.79 644.05,-785.05 644.42,-776.07"/>
<polygon fill="red" stroke="red" points="647.92,-776.25 645.14,-766.03 640.94,-775.75 647.92,-776.25"/>
</g>
<!-- node9&#45;&gt;node8 -->
<g id="edge19" class="edge">
<title>node9&#45;&gt;node8</title>
<path fill="none" stroke="fuchsia" d="M656.86,-766.03C657.71,-774.03 657.95,-783.77 657.59,-792.75"/>
<polygon fill="fuchsia" stroke="fuchsia" points="654.09,-792.59 656.88,-802.81 661.07,-793.08 654.09,-792.59"/>
</g>
<!-- node10 -->
<g id="node11" class="node">
<title>node10</title>
<polygon fill="lightgrey" stroke="black" points="801,-693 501,-693 501,-657 801,-657 801,-693"/>
<text text-anchor="middle" x="651" y="-671.3" font-family="Times,serif" font-size="14.00">#10 Branch[OP=IF_ICMPLE] Order: 10</text>
</g>
<!-- node9&#45;&gt;node10 -->
<g id="edge20" class="edge">
<title>node9&#45;&gt;node10</title>
<path fill="none" stroke="red" d="M645.12,-729.81C644.28,-721.79 644.05,-712.05 644.42,-703.07"/>
<polygon fill="red" stroke="red" points="647.92,-703.25 645.14,-693.03 640.94,-702.75 647.92,-703.25"/>
</g>
<!-- node10&#45;&gt;node9 -->
<g id="edge21" class="edge">
<title>node10&#45;&gt;node9</title>
<path fill="none" stroke="fuchsia" d="M656.86,-693.03C657.71,-701.03 657.95,-710.77 657.59,-719.75"/>
<polygon fill="fuchsia" stroke="fuchsia" points="654.09,-719.59 656.88,-729.81 661.07,-720.08 654.09,-719.59"/>
</g>
<!-- node11 -->
<g id="node12" class="node">
<title>node11</title>
<polygon fill="lightgrey" stroke="black" points="384.5,-620 103.5,-620 103.5,-584 384.5,-584 384.5,-620"/>
<text text-anchor="middle" x="244" y="-598.3" font-family="Times,serif" font-size="14.00">#11 LineNumber[line=19] Order: 11</text>
</g>
<!-- node10&#45;&gt;node11 -->
<g id="edge22" class="edge">
<title>node10&#45;&gt;node11</title>
<path fill="none" stroke="red" d="M547.65,-656.99C485.83,-646.4 407.6,-632.77 346.01,-621.85"/>
<polygon fill="red" stroke="red" points="346.34,-618.35 335.88,-620.05 345.12,-625.25 346.34,-618.35"/>
</g>
<!-- node16 -->
<g id="node17" class="node">
<title>node16</title>
<polygon fill="lightgrey" stroke="black" points="899.5,-620 402.5,-620 402.5,-584 899.5,-584 899.5,-620"/>
<text text-anchor="middle" x="651" y="-598.3" font-family="Times,serif" font-size="14.00">#16 Label[context=CodeModel[id=259077766], bci=11] Order: 16</text>
</g>
<!-- node10&#45;&gt;node16 -->
<g id="edge32" class="edge">
<title>node10&#45;&gt;node16</title>
<path fill="none" stroke="red" d="M645.12,-656.81C644.28,-648.79 644.05,-639.05 644.42,-630.07"/>
<polygon fill="red" stroke="red" points="647.92,-630.25 645.14,-620.03 640.94,-629.75 647.92,-630.25"/>
</g>
<!-- node11&#45;&gt;node10 -->
<g id="edge23" class="edge">
<title>node11&#45;&gt;node10</title>
<path fill="none" stroke="fuchsia" d="M347.61,-620.05C409.49,-630.65 487.71,-644.29 549.26,-655.2"/>
<polygon fill="fuchsia" stroke="fuchsia" points="548.91,-658.69 559.37,-656.99 550.14,-651.8 548.91,-658.69"/>
</g>
<!-- node12 -->
<g id="node13" class="node">
<title>node12</title>
<polygon fill="lightgrey" stroke="black" points="404.5,-547 83.5,-547 83.5,-511 404.5,-511 404.5,-547"/>
<text text-anchor="middle" x="244" y="-525.3" font-family="Times,serif" font-size="14.00">#12 Load[OP=ILOAD_2, slot=2] Order: 12</text>
</g>
<!-- node11&#45;&gt;node12 -->
<g id="edge24" class="edge">
<title>node11&#45;&gt;node12</title>
<path fill="none" stroke="red" d="M238.12,-583.81C237.28,-575.79 237.05,-566.05 237.42,-557.07"/>
<polygon fill="red" stroke="red" points="240.92,-557.25 238.14,-547.03 233.94,-556.75 240.92,-557.25"/>
</g>
<!-- node12&#45;&gt;node11 -->
<g id="edge25" class="edge">
<title>node12&#45;&gt;node11</title>
<path fill="none" stroke="fuchsia" d="M249.86,-547.03C250.71,-555.03 250.95,-564.77 250.59,-573.75"/>
<polygon fill="fuchsia" stroke="fuchsia" points="247.09,-573.59 249.88,-583.81 254.07,-574.08 247.09,-573.59"/>
</g>
<!-- node13 -->
<g id="node14" class="node">
<title>node13</title>
<polygon fill="lightgrey" stroke="black" points="404,-474 84,-474 84,-438 404,-438 404,-474"/>
<text text-anchor="middle" x="244" y="-452.3" font-family="Times,serif" font-size="14.00">#13 Store[OP=ISTORE, slot=4] Order: 13</text>
</g>
<!-- node12&#45;&gt;node13 -->
<g id="edge26" class="edge">
<title>node12&#45;&gt;node13</title>
<path fill="none" stroke="red" d="M238.12,-510.81C237.28,-502.79 237.05,-493.05 237.42,-484.07"/>
<polygon fill="red" stroke="red" points="240.92,-484.25 238.14,-474.03 233.94,-483.75 240.92,-484.25"/>
</g>
<!-- node13&#45;&gt;node12 -->
<g id="edge27" class="edge">
<title>node13&#45;&gt;node12</title>
<path fill="none" stroke="fuchsia" d="M249.86,-474.03C250.71,-482.03 250.95,-491.77 250.59,-500.75"/>
<polygon fill="fuchsia" stroke="fuchsia" points="247.09,-500.59 249.88,-510.81 254.07,-501.08 247.09,-500.59"/>
</g>
<!-- node14 -->
<g id="node15" class="node">
<title>node14</title>
<polygon fill="lightgrey" stroke="black" points="488,-401 0,-401 0,-365 488,-365 488,-401"/>
<text text-anchor="middle" x="244" y="-379.3" font-family="Times,serif" font-size="14.00">#14 Label[context=CodeModel[id=259077766], bci=8] Order: 14</text>
</g>
<!-- node13&#45;&gt;node14 -->
<g id="edge28" class="edge">
<title>node13&#45;&gt;node14</title>
<path fill="none" stroke="red" d="M238.12,-437.81C237.28,-429.79 237.05,-420.05 237.42,-411.07"/>
<polygon fill="red" stroke="red" points="240.92,-411.25 238.14,-401.03 233.94,-410.75 240.92,-411.25"/>
</g>
<!-- node14&#45;&gt;node13 -->
<g id="edge29" class="edge">
<title>node14&#45;&gt;node13</title>
<path fill="none" stroke="fuchsia" d="M249.86,-401.03C250.71,-409.03 250.95,-418.77 250.59,-427.75"/>
<polygon fill="fuchsia" stroke="fuchsia" points="247.09,-427.59 249.88,-437.81 254.07,-428.08 247.09,-427.59"/>
</g>
<!-- node15 -->
<g id="node16" class="node">
<title>node15</title>
<polygon fill="lightgrey" stroke="black" points="375,-328 113,-328 113,-292 375,-292 375,-328"/>
<text text-anchor="middle" x="244" y="-306.3" font-family="Times,serif" font-size="14.00">#15 Branch[OP=GOTO] Order: 15</text>
</g>
<!-- node14&#45;&gt;node15 -->
<g id="edge30" class="edge">
<title>node14&#45;&gt;node15</title>
<path fill="none" stroke="red" d="M238.12,-364.81C237.28,-356.79 237.05,-347.05 237.42,-338.07"/>
<polygon fill="red" stroke="red" points="240.92,-338.25 238.14,-328.03 233.94,-337.75 240.92,-338.25"/>
</g>
<!-- node15&#45;&gt;node14 -->
<g id="edge31" class="edge">
<title>node15&#45;&gt;node14</title>
<path fill="none" stroke="fuchsia" d="M249.86,-328.03C250.71,-336.03 250.95,-345.77 250.59,-354.75"/>
<polygon fill="fuchsia" stroke="fuchsia" points="247.09,-354.59 249.88,-364.81 254.07,-355.08 247.09,-354.59"/>
</g>
<!-- node20 -->
<g id="node21" class="node">
<title>node20</title>
<polygon fill="lightgrey" stroke="black" points="914.5,-255 417.5,-255 417.5,-219 914.5,-219 914.5,-255"/>
<text text-anchor="middle" x="666" y="-233.3" font-family="Times,serif" font-size="14.00">#20 Label[context=CodeModel[id=259077766], bci=14] Order: 20</text>
</g>
<!-- node15&#45;&gt;node20 -->
<g id="edge40" class="edge">
<title>node15&#45;&gt;node20</title>
<path fill="none" stroke="red" d="M345.08,-291.99C408.28,-281.36 489.74,-267.66 554.77,-256.71"/>
<polygon fill="red" stroke="red" points="555.37,-260.16 564.65,-255.05 554.21,-253.26 555.37,-260.16"/>
</g>
<!-- node16&#45;&gt;node10 -->
<g id="edge33" class="edge">
<title>node16&#45;&gt;node10</title>
<path fill="none" stroke="fuchsia" d="M656.86,-620.03C657.71,-628.03 657.95,-637.77 657.59,-646.75"/>
<polygon fill="fuchsia" stroke="fuchsia" points="654.09,-646.59 656.88,-656.81 661.07,-647.08 654.09,-646.59"/>
</g>
<!-- node17 -->
<g id="node18" class="node">
<title>node17</title>
<polygon fill="lightgrey" stroke="black" points="795.5,-547 514.5,-547 514.5,-511 795.5,-511 795.5,-547"/>
<text text-anchor="middle" x="655" y="-525.3" font-family="Times,serif" font-size="14.00">#17 LineNumber[line=21] Order: 17</text>
</g>
<!-- node16&#45;&gt;node17 -->
<g id="edge34" class="edge">
<title>node16&#45;&gt;node17</title>
<path fill="none" stroke="red" d="M646.09,-583.81C645.7,-575.79 646.02,-566.05 646.9,-557.07"/>
<polygon fill="red" stroke="red" points="650.38,-557.39 648.18,-547.03 643.44,-556.5 650.38,-557.39"/>
</g>
<!-- node17&#45;&gt;node16 -->
<g id="edge35" class="edge">
<title>node17&#45;&gt;node16</title>
<path fill="none" stroke="fuchsia" d="M659.9,-547.03C660.3,-555.03 659.99,-564.77 659.12,-573.75"/>
<polygon fill="fuchsia" stroke="fuchsia" points="655.63,-573.45 657.85,-583.81 662.57,-574.33 655.63,-573.45"/>
</g>
<!-- node18 -->
<g id="node19" class="node">
<title>node18</title>
<polygon fill="lightgrey" stroke="black" points="823.5,-474 502.5,-474 502.5,-438 823.5,-438 823.5,-474"/>
<text text-anchor="middle" x="663" y="-452.3" font-family="Times,serif" font-size="14.00">#18 Load[OP=ILOAD_3, slot=3] Order: 18</text>
</g>
<!-- node17&#45;&gt;node18 -->
<g id="edge36" class="edge">
<title>node17&#45;&gt;node18</title>
<path fill="none" stroke="red" d="M651.06,-510.81C651.12,-502.79 651.99,-493.05 653.37,-484.07"/>
<polygon fill="red" stroke="red" points="656.85,-484.5 655.22,-474.03 649.97,-483.23 656.85,-484.5"/>
</g>
<!-- node18&#45;&gt;node17 -->
<g id="edge37" class="edge">
<title>node18&#45;&gt;node17</title>
<path fill="none" stroke="fuchsia" d="M666.94,-474.03C666.89,-482.03 666.03,-491.77 664.66,-500.75"/>
<polygon fill="fuchsia" stroke="fuchsia" points="661.17,-500.35 662.81,-510.81 668.06,-501.61 661.17,-500.35"/>
</g>
<!-- node19 -->
<g id="node20" class="node">
<title>node19</title>
<polygon fill="lightgrey" stroke="black" points="826,-401 506,-401 506,-365 826,-365 826,-401"/>
<text text-anchor="middle" x="666" y="-379.3" font-family="Times,serif" font-size="14.00">#19 Store[OP=ISTORE, slot=4] Order: 19</text>
</g>
<!-- node18&#45;&gt;node19 -->
<g id="edge38" class="edge">
<title>node18&#45;&gt;node19</title>
<path fill="none" stroke="red" d="M657.85,-437.81C657.35,-429.79 657.53,-420.05 658.28,-411.07"/>
<polygon fill="red" stroke="red" points="661.77,-411.36 659.42,-401.03 654.81,-410.57 661.77,-411.36"/>
</g>
<!-- node19&#45;&gt;node18 -->
<g id="edge39" class="edge">
<title>node19&#45;&gt;node18</title>
<path fill="none" stroke="fuchsia" d="M671.14,-401.03C671.65,-409.03 671.48,-418.77 670.74,-427.75"/>
<polygon fill="fuchsia" stroke="fuchsia" points="667.24,-427.48 669.6,-437.81 674.2,-428.27 667.24,-427.48"/>
</g>
<!-- node19&#45;&gt;node20 -->
<g id="edge41" class="edge">
<title>node19&#45;&gt;node20</title>
<path fill="none" stroke="red" d="M666,-364.92C666,-340.34 666,-294.75 666,-265.43"/>
<polygon fill="red" stroke="red" points="669.5,-265.06 666,-255.06 662.5,-265.06 669.5,-265.06"/>
</g>
<!-- node20&#45;&gt;node10 -->
<g id="edge42" class="edge">
<title>node20&#45;&gt;node10</title>
<path fill="none" stroke="fuchsia" d="M821.43,-255.07C877.85,-265.72 928,-282.61 928,-309 928,-603 928,-603 928,-603 928,-631.45 872.47,-648.66 811.14,-658.99"/>
<polygon fill="fuchsia" stroke="fuchsia" points="810.57,-655.53 801.25,-660.59 811.69,-662.44 810.57,-655.53"/>
</g>
<!-- node21 -->
<g id="node22" class="node">
<title>node21</title>
<polygon fill="lightgrey" stroke="black" points="806.5,-182 525.5,-182 525.5,-146 806.5,-146 806.5,-182"/>
<text text-anchor="middle" x="666" y="-160.3" font-family="Times,serif" font-size="14.00">#21 LineNumber[line=23] Order: 21</text>
</g>
<!-- node20&#45;&gt;node21 -->
<g id="edge43" class="edge">
<title>node20&#45;&gt;node21</title>
<path fill="none" stroke="red" d="M660.12,-218.81C659.28,-210.79 659.05,-201.05 659.42,-192.07"/>
<polygon fill="red" stroke="red" points="662.92,-192.25 660.14,-182.03 655.94,-191.75 662.92,-192.25"/>
</g>
<!-- node21&#45;&gt;node20 -->
<g id="edge44" class="edge">
<title>node21&#45;&gt;node20</title>
<path fill="none" stroke="fuchsia" d="M671.86,-182.03C672.71,-190.03 672.95,-199.77 672.59,-208.75"/>
<polygon fill="fuchsia" stroke="fuchsia" points="669.09,-208.59 671.88,-218.81 676.07,-209.08 669.09,-208.59"/>
</g>
<!-- node22 -->
<g id="node23" class="node">
<title>node22</title>
<polygon fill="lightgrey" stroke="black" points="818.5,-109 513.5,-109 513.5,-73 818.5,-73 818.5,-109"/>
<text text-anchor="middle" x="666" y="-87.3" font-family="Times,serif" font-size="14.00">#22 Load[OP=ILOAD, slot=4] Order: 22</text>
</g>
<!-- node21&#45;&gt;node22 -->
<g id="edge45" class="edge">
<title>node21&#45;&gt;node22</title>
<path fill="none" stroke="red" d="M660.12,-145.81C659.28,-137.79 659.05,-128.05 659.42,-119.07"/>
<polygon fill="red" stroke="red" points="662.92,-119.25 660.14,-109.03 655.94,-118.75 662.92,-119.25"/>
</g>
<!-- node22&#45;&gt;node21 -->
<g id="edge46" class="edge">
<title>node22&#45;&gt;node21</title>
<path fill="none" stroke="fuchsia" d="M671.86,-109.03C672.71,-117.03 672.95,-126.77 672.59,-135.75"/>
<polygon fill="fuchsia" stroke="fuchsia" points="669.09,-135.59 671.88,-145.81 676.07,-136.08 669.09,-135.59"/>
</g>
<!-- node23 -->
<g id="node24" class="node">
<title>node23</title>
<polygon fill="lightgrey" stroke="black" points="809.5,-36 522.5,-36 522.5,0 809.5,0 809.5,-36"/>
<text text-anchor="middle" x="666" y="-14.3" font-family="Times,serif" font-size="14.00">#23 Return[OP=IRETURN] Order: 23</text>
</g>
<!-- node22&#45;&gt;node23 -->
<g id="edge47" class="edge">
<title>node22&#45;&gt;node23</title>
<path fill="none" stroke="red" d="M660.12,-72.81C659.28,-64.79 659.05,-55.05 659.42,-46.07"/>
<polygon fill="red" stroke="red" points="662.92,-46.25 660.14,-36.03 655.94,-45.75 662.92,-46.25"/>
</g>
<!-- node23&#45;&gt;node22 -->
<g id="edge48" class="edge">
<title>node23&#45;&gt;node22</title>
<path fill="none" stroke="fuchsia" d="M671.86,-36.03C672.71,-44.03 672.95,-53.77 672.59,-62.75"/>
<polygon fill="fuchsia" stroke="fuchsia" points="669.09,-62.59 671.88,-72.81 676.07,-63.08 669.09,-62.59"/>
</g>
<!-- c0 -->
<!-- c1 -->
<!-- c0&#45;&gt;c1 -->
<g id="edge49" class="edge">
<title>c0&#45;&gt;c1</title>
<path fill="none" stroke="red" d="M1088.89,-1405C1100.11,-1405 1158.24,-1405 1183.86,-1405"/>
<polygon fill="red" stroke="red" points="1184.06,-1408.5 1194.06,-1405 1184.06,-1401.5 1184.06,-1408.5"/>
<text text-anchor="middle" x="1141.5" y="-1411.8" font-family="Times,serif" font-size="14.00">Control flow</text>
</g>
<!-- c2 -->
<!-- c3 -->
<!-- c2&#45;&gt;c3 -->
<g id="edge50" class="edge">
<title>c2&#45;&gt;c3</title>
<path fill="none" stroke="red" stroke-dasharray="5,2" d="M882.08,-1405C899.05,-1405 1015.21,-1405 1053.08,-1405"/>
<polygon fill="red" stroke="red" points="1053.17,-1408.5 1063.17,-1405 1053.17,-1401.5 1053.17,-1408.5"/>
<text text-anchor="middle" x="972.5" y="-1411.8" font-family="Times,serif" font-size="14.00">Control flow back edge</text>
</g>
</g>
</svg>
