<?xml version="1.0" encoding="UTF-8" standalone="no"?>
<!DOCTYPE svg PUBLIC "-//W3C//DTD SVG 1.1//EN"
 "http://www.w3.org/Graphics/SVG/1.1/DTD/svg11.dtd">
<!-- Generated by graphviz version 2.43.0 (0)
 -->
<!-- Title: %3 Pages: 1 -->
<svg width="1214pt" height="1454pt"
 viewBox="0.00 0.00 1213.50 1453.80" xmlns="http://www.w3.org/2000/svg" xmlns:xlink="http://www.w3.org/1999/xlink">
<g id="graph0" class="graph" transform="scale(1 1) rotate(0) translate(4 1449.8)">
<title>%3</title>
<polygon fill="white" stroke="transparent" points="-4,4 -4,-1449.8 1209.5,-1449.8 1209.5,4 -4,4"/>
<g id="clust1" class="cluster">
<title>cluster_000</title>
<polygon fill="none" stroke="black" points="861.5,-1395.2 861.5,-1437.8 1197.5,-1437.8 1197.5,-1395.2 861.5,-1395.2"/>
<text text-anchor="middle" x="1029.5" y="-1422.6" font-family="Times,serif" font-size="14.00">Legend</text>
</g>
<!-- node0 -->
<g id="node1" class="node">
<title>node0</title>
<polygon fill="lightgrey" stroke="black" points="834,-1423 451,-1423 451,-1387 834,-1387 834,-1423"/>
<text text-anchor="middle" x="642.5" y="-1401.3" font-family="Times,serif" font-size="14.00">#0 LocalVariable[name=r, slot=4, type=I] Order: 0</text>
</g>
<!-- node0&#45;&gt;node0 -->
<g id="edge1" class="edge">
<title>node0&#45;&gt;node0</title>
<path fill="none" stroke="fuchsia" d="M834.14,-1409.61C845.32,-1408.51 852,-1406.97 852,-1405 852,-1403.74 849.26,-1402.65 844.35,-1401.75"/>
<polygon fill="fuchsia" stroke="fuchsia" points="844.52,-1398.24 834.14,-1400.39 843.59,-1405.18 844.52,-1398.24"/>
</g>
<!-- node1 -->
<g id="node2" class="node">
<title>node1</title>
<polygon fill="lightgrey" stroke="black" points="835.5,-1350 449.5,-1350 449.5,-1314 835.5,-1314 835.5,-1350"/>
<text text-anchor="middle" x="642.5" y="-1328.3" font-family="Times,serif" font-size="14.00">#1 LocalVariable[name=a, slot=0, type=I] Order: 1</text>
</g>
<!-- node0&#45;&gt;node1 -->
<g id="edge2" class="edge">
<title>node0&#45;&gt;node1</title>
<path fill="none" stroke="red" d="M636.62,-1386.81C635.78,-1378.79 635.55,-1369.05 635.92,-1360.07"/>
<polygon fill="red" stroke="red" points="639.42,-1360.25 636.64,-1350.03 632.44,-1359.75 639.42,-1360.25"/>
</g>
<!-- node1&#45;&gt;node0 -->
<g id="edge3" class="edge">
<title>node1&#45;&gt;node0</title>
<path fill="none" stroke="fuchsia" d="M648.36,-1350.03C649.21,-1358.03 649.45,-1367.77 649.09,-1376.75"/>
<polygon fill="fuchsia" stroke="fuchsia" points="645.59,-1376.59 648.38,-1386.81 652.57,-1377.08 645.59,-1376.59"/>
</g>
<!-- node2 -->
<g id="node3" class="node">
<title>node2</title>
<polygon fill="lightgrey" stroke="black" points="836,-1277 449,-1277 449,-1241 836,-1241 836,-1277"/>
<text text-anchor="middle" x="642.5" y="-1255.3" font-family="Times,serif" font-size="14.00">#2 LocalVariable[name=b, slot=1, type=I] Order: 2</text>
</g>
<!-- node1&#45;&gt;node2 -->
<g id="edge4" class="edge">
<title>node1&#45;&gt;node2</title>
<path fill="none" stroke="red" d="M636.62,-1313.81C635.78,-1305.79 635.55,-1296.05 635.92,-1287.07"/>
<polygon fill="red" stroke="red" points="639.42,-1287.25 636.64,-1277.03 632.44,-1286.75 639.42,-1287.25"/>
</g>
<!-- node2&#45;&gt;node1 -->
<g id="edge5" class="edge">
<title>node2&#45;&gt;node1</title>
<path fill="none" stroke="fuchsia" d="M648.36,-1277.03C649.21,-1285.03 649.45,-1294.77 649.09,-1303.75"/>
<polygon fill="fuchsia" stroke="fuchsia" points="645.59,-1303.59 648.38,-1313.81 652.57,-1304.08 645.59,-1303.59"/>
</g>
<!-- node3 -->
<g id="node4" class="node">
<title>node3</title>
<polygon fill="lightgrey" stroke="black" points="835.5,-1204 449.5,-1204 449.5,-1168 835.5,-1168 835.5,-1204"/>
<text text-anchor="middle" x="642.5" y="-1182.3" font-family="Times,serif" font-size="14.00">#3 LocalVariable[name=c, slot=2, type=I] Order: 3</text>
</g>
<!-- node2&#45;&gt;node3 -->
<g id="edge6" class="edge">
<title>node2&#45;&gt;node3</title>
<path fill="none" stroke="red" d="M636.62,-1240.81C635.78,-1232.79 635.55,-1223.05 635.92,-1214.07"/>
<polygon fill="red" stroke="red" points="639.42,-1214.25 636.64,-1204.03 632.44,-1213.75 639.42,-1214.25"/>
</g>
<!-- node3&#45;&gt;node2 -->
<g id="edge7" class="edge">
<title>node3&#45;&gt;node2</title>
<path fill="none" stroke="fuchsia" d="M648.36,-1204.03C649.21,-1212.03 649.45,-1221.77 649.09,-1230.75"/>
<polygon fill="fuchsia" stroke="fuchsia" points="645.59,-1230.59 648.38,-1240.81 652.57,-1231.08 645.59,-1230.59"/>
</g>
<!-- node4 -->
<g id="node5" class="node">
<title>node4</title>
<polygon fill="lightgrey" stroke="black" points="836,-1131 449,-1131 449,-1095 836,-1095 836,-1131"/>
<text text-anchor="middle" x="642.5" y="-1109.3" font-family="Times,serif" font-size="14.00">#4 LocalVariable[name=d, slot=3, type=I] Order: 4</text>
</g>
<!-- node3&#45;&gt;node4 -->
<g id="edge8" class="edge">
<title>node3&#45;&gt;node4</title>
<path fill="none" stroke="red" d="M636.62,-1167.81C635.78,-1159.79 635.55,-1150.05 635.92,-1141.07"/>
<polygon fill="red" stroke="red" points="639.42,-1141.25 636.64,-1131.03 632.44,-1140.75 639.42,-1141.25"/>
</g>
<!-- node4&#45;&gt;node3 -->
<g id="edge9" class="edge">
<title>node4&#45;&gt;node3</title>
<path fill="none" stroke="fuchsia" d="M648.36,-1131.03C649.21,-1139.03 649.45,-1148.77 649.09,-1157.75"/>
<polygon fill="fuchsia" stroke="fuchsia" points="645.59,-1157.59 648.38,-1167.81 652.57,-1158.08 645.59,-1157.59"/>
</g>
<!-- node5 -->
<g id="node6" class="node">
<title>node5</title>
<polygon fill="lightgrey" stroke="black" points="834,-1058 451,-1058 451,-1022 834,-1022 834,-1058"/>
<text text-anchor="middle" x="642.5" y="-1036.3" font-family="Times,serif" font-size="14.00">#5 LocalVariable[name=r, slot=4, type=I] Order: 5</text>
</g>
<!-- node4&#45;&gt;node5 -->
<g id="edge10" class="edge">
<title>node4&#45;&gt;node5</title>
<path fill="none" stroke="red" d="M636.62,-1094.81C635.78,-1086.79 635.55,-1077.05 635.92,-1068.07"/>
<polygon fill="red" stroke="red" points="639.42,-1068.25 636.64,-1058.03 632.44,-1067.75 639.42,-1068.25"/>
</g>
<!-- node5&#45;&gt;node4 -->
<g id="edge11" class="edge">
<title>node5&#45;&gt;node4</title>
<path fill="none" stroke="fuchsia" d="M648.36,-1058.03C649.21,-1066.03 649.45,-1075.77 649.09,-1084.75"/>
<polygon fill="fuchsia" stroke="fuchsia" points="645.59,-1084.59 648.38,-1094.81 652.57,-1085.08 645.59,-1084.59"/>
</g>
<!-- node6 -->
<g id="node7" class="node">
<title>node6</title>
<polygon fill="lightgrey" stroke="black" points="873,-985 412,-985 412,-949 873,-949 873,-985"/>
<text text-anchor="middle" x="642.5" y="-963.3" font-family="Times,serif" font-size="14.00">#6 Label[context=CodeModel[id=38603201], bci=0] Order: 6</text>
</g>
<!-- node5&#45;&gt;node6 -->
<g id="edge12" class="edge">
<title>node5&#45;&gt;node6</title>
<path fill="none" stroke="red" d="M636.62,-1021.81C635.78,-1013.79 635.55,-1004.05 635.92,-995.07"/>
<polygon fill="red" stroke="red" points="639.42,-995.25 636.64,-985.03 632.44,-994.75 639.42,-995.25"/>
</g>
<!-- node6&#45;&gt;node5 -->
<g id="edge13" class="edge">
<title>node6&#45;&gt;node5</title>
<path fill="none" stroke="fuchsia" d="M648.36,-985.03C649.21,-993.03 649.45,-1002.77 649.09,-1011.75"/>
<polygon fill="fuchsia" stroke="fuchsia" points="645.59,-1011.59 648.38,-1021.81 652.57,-1012.08 645.59,-1011.59"/>
</g>
<!-- node7 -->
<g id="node8" class="node">
<title>node7</title>
<polygon fill="lightgrey" stroke="black" points="774,-912 511,-912 511,-876 774,-876 774,-912"/>
<text text-anchor="middle" x="642.5" y="-890.3" font-family="Times,serif" font-size="14.00">#7 LineNumber[line=18] Order: 7</text>
</g>
<!-- node6&#45;&gt;node7 -->
<g id="edge14" class="edge">
<title>node6&#45;&gt;node7</title>
<path fill="none" stroke="red" d="M636.62,-948.81C635.78,-940.79 635.55,-931.05 635.92,-922.07"/>
<polygon fill="red" stroke="red" points="639.42,-922.25 636.64,-912.03 632.44,-921.75 639.42,-922.25"/>
</g>
<!-- node7&#45;&gt;node6 -->
<g id="edge15" class="edge">
<title>node7&#45;&gt;node6</title>
<path fill="none" stroke="fuchsia" d="M648.36,-912.03C649.21,-920.03 649.45,-929.77 649.09,-938.75"/>
<polygon fill="fuchsia" stroke="fuchsia" points="645.59,-938.59 648.38,-948.81 652.57,-939.08 645.59,-938.59"/>
</g>
<!-- node8 -->
<g id="node9" class="node">
<title>node8</title>
<polygon fill="lightgrey" stroke="black" points="794,-839 491,-839 491,-803 794,-803 794,-839"/>
<text text-anchor="middle" x="642.5" y="-817.3" font-family="Times,serif" font-size="14.00">#8 Load[OP=ILOAD_0, slot=0] Order: 8</text>
</g>
<!-- node7&#45;&gt;node8 -->
<g id="edge16" class="edge">
<title>node7&#45;&gt;node8</title>
<path fill="none" stroke="red" d="M636.62,-875.81C635.78,-867.79 635.55,-858.05 635.92,-849.07"/>
<polygon fill="red" stroke="red" points="639.42,-849.25 636.64,-839.03 632.44,-848.75 639.42,-849.25"/>
</g>
<!-- node8&#45;&gt;node7 -->
<g id="edge17" class="edge">
<title>node8&#45;&gt;node7</title>
<path fill="none" stroke="fuchsia" d="M648.36,-839.03C649.21,-847.03 649.45,-856.77 649.09,-865.75"/>
<polygon fill="fuchsia" stroke="fuchsia" points="645.59,-865.59 648.38,-875.81 652.57,-866.08 645.59,-865.59"/>
</g>
<!-- node9 -->
<g id="node10" class="node">
<title>node9</title>
<polygon fill="lightgrey" stroke="black" points="794,-766 491,-766 491,-730 794,-730 794,-766"/>
<text text-anchor="middle" x="642.5" y="-744.3" font-family="Times,serif" font-size="14.00">#9 Load[OP=ILOAD_1, slot=1] Order: 9</text>
</g>
<!-- node8&#45;&gt;node9 -->
<g id="edge18" class="edge">
<title>node8&#45;&gt;node9</title>
<path fill="none" stroke="red" d="M636.62,-802.81C635.78,-794.79 635.55,-785.05 635.92,-776.07"/>
<polygon fill="red" stroke="red" points="639.42,-776.25 636.64,-766.03 632.44,-775.75 639.42,-776.25"/>
</g>
<!-- node9&#45;&gt;node8 -->
<g id="edge19" class="edge">
<title>node9&#45;&gt;node8</title>
<path fill="none" stroke="fuchsia" d="M648.36,-766.03C649.21,-774.03 649.45,-783.77 649.09,-792.75"/>
<polygon fill="fuchsia" stroke="fuchsia" points="645.59,-792.59 648.38,-802.81 652.57,-793.08 645.59,-792.59"/>
</g>
<!-- node10 -->
<g id="node11" class="node">
<title>node10</title>
<polygon fill="lightgrey" stroke="black" points="792.5,-693 492.5,-693 492.5,-657 792.5,-657 792.5,-693"/>
<text text-anchor="middle" x="642.5" y="-671.3" font-family="Times,serif" font-size="14.00">#10 Branch[OP=IF_ICMPLE] Order: 10</text>
</g>
<!-- node9&#45;&gt;node10 -->
<g id="edge20" class="edge">
<title>node9&#45;&gt;node10</title>
<path fill="none" stroke="red" d="M636.62,-729.81C635.78,-721.79 635.55,-712.05 635.92,-703.07"/>
<polygon fill="red" stroke="red" points="639.42,-703.25 636.64,-693.03 632.44,-702.75 639.42,-703.25"/>
</g>
<!-- node10&#45;&gt;node9 -->
<g id="edge21" class="edge">
<title>node10&#45;&gt;node9</title>
<path fill="none" stroke="fuchsia" d="M648.36,-693.03C649.21,-701.03 649.45,-710.77 649.09,-719.75"/>
<polygon fill="fuchsia" stroke="fuchsia" points="645.59,-719.59 648.38,-729.81 652.57,-720.08 645.59,-719.59"/>
</g>
<!-- node11 -->
<g id="node12" class="node">
<title>node11</title>
<polygon fill="lightgrey" stroke="black" points="380,-620 99,-620 99,-584 380,-584 380,-620"/>
<text text-anchor="middle" x="239.5" y="-598.3" font-family="Times,serif" font-size="14.00">#11 LineNumber[line=19] Order: 11</text>
</g>
<!-- node10&#45;&gt;node11 -->
<g id="edge22" class="edge">
<title>node10&#45;&gt;node11</title>
<path fill="none" stroke="red" d="M540.11,-656.99C478.88,-646.4 401.42,-632.77 340.45,-621.85"/>
<polygon fill="red" stroke="red" points="340.88,-618.37 330.42,-620.05 339.65,-625.26 340.88,-618.37"/>
</g>
<!-- node16 -->
<g id="node17" class="node">
<title>node16</title>
<polygon fill="lightgrey" stroke="black" points="886.5,-620 398.5,-620 398.5,-584 886.5,-584 886.5,-620"/>
<text text-anchor="middle" x="642.5" y="-598.3" font-family="Times,serif" font-size="14.00">#16 Label[context=CodeModel[id=38603201], bci=11] Order: 16</text>
</g>
<!-- node10&#45;&gt;node16 -->
<g id="edge32" class="edge">
<title>node10&#45;&gt;node16</title>
<path fill="none" stroke="red" d="M636.62,-656.81C635.78,-648.79 635.55,-639.05 635.92,-630.07"/>
<polygon fill="red" stroke="red" points="639.42,-630.25 636.64,-620.03 632.44,-629.75 639.42,-630.25"/>
</g>
<!-- node11&#45;&gt;node10 -->
<g id="edge23" class="edge">
<title>node11&#45;&gt;node10</title>
<path fill="none" stroke="fuchsia" d="M342.15,-620.05C403.43,-630.65 480.89,-644.29 541.81,-655.2"/>
<polygon fill="fuchsia" stroke="fuchsia" points="541.37,-658.67 551.83,-656.99 542.61,-651.78 541.37,-658.67"/>
</g>
<!-- node12 -->
<g id="node13" class="node">
<title>node12</title>
<polygon fill="lightgrey" stroke="black" points="400,-547 79,-547 79,-511 400,-511 400,-547"/>
<text text-anchor="middle" x="239.5" y="-525.3" font-family="Times,serif" font-size="14.00">#12 Load[OP=ILOAD_2, slot=2] Order: 12</text>
</g>
<!-- node11&#45;&gt;node12 -->
<g id="edge24" class="edge">
<title>node11&#45;&gt;node12</title>
<path fill="none" stroke="red" d="M233.62,-583.81C232.78,-575.79 232.55,-566.05 232.92,-557.07"/>
<polygon fill="red" stroke="red" points="236.42,-557.25 233.64,-547.03 229.44,-556.75 236.42,-557.25"/>
</g>
<!-- node12&#45;&gt;node11 -->
<g id="edge25" class="edge">
<title>node12&#45;&gt;node11</title>
<path fill="none" stroke="fuchsia" d="M245.36,-547.03C246.21,-555.03 246.45,-564.77 246.09,-573.75"/>
<polygon fill="fuchsia" stroke="fuchsia" points="242.59,-573.59 245.38,-583.81 249.57,-574.08 242.59,-573.59"/>
</g>
<!-- node13 -->
<g id="node14" class="node">
<title>node13</title>
<polygon fill="lightgrey" stroke="black" points="399.5,-474 79.5,-474 79.5,-438 399.5,-438 399.5,-474"/>
<text text-anchor="middle" x="239.5" y="-452.3" font-family="Times,serif" font-size="14.00">#13 Store[OP=ISTORE, slot=4] Order: 13</text>
</g>
<!-- node12&#45;&gt;node13 -->
<g id="edge26" class="edge">
<title>node12&#45;&gt;node13</title>
<path fill="none" stroke="red" d="M233.62,-510.81C232.78,-502.79 232.55,-493.05 232.92,-484.07"/>
<polygon fill="red" stroke="red" points="236.42,-484.25 233.64,-474.03 229.44,-483.75 236.42,-484.25"/>
</g>
<!-- node13&#45;&gt;node12 -->
<g id="edge27" class="edge">
<title>node13&#45;&gt;node12</title>
<path fill="none" stroke="fuchsia" d="M245.36,-474.03C246.21,-482.03 246.45,-491.77 246.09,-500.75"/>
<polygon fill="fuchsia" stroke="fuchsia" points="242.59,-500.59 245.38,-510.81 249.57,-501.08 242.59,-500.59"/>
</g>
<!-- node14 -->
<g id="node15" class="node">
<title>node14</title>
<polygon fill="lightgrey" stroke="black" points="479,-401 0,-401 0,-365 479,-365 479,-401"/>
<text text-anchor="middle" x="239.5" y="-379.3" font-family="Times,serif" font-size="14.00">#14 Label[context=CodeModel[id=38603201], bci=8] Order: 14</text>
</g>
<!-- node13&#45;&gt;node14 -->
<g id="edge28" class="edge">
<title>node13&#45;&gt;node14</title>
<path fill="none" stroke="red" d="M233.62,-437.81C232.78,-429.79 232.55,-420.05 232.92,-411.07"/>
<polygon fill="red" stroke="red" points="236.42,-411.25 233.64,-401.03 229.44,-410.75 236.42,-411.25"/>
</g>
<!-- node14&#45;&gt;node13 -->
<g id="edge29" class="edge">
<title>node14&#45;&gt;node13</title>
<path fill="none" stroke="fuchsia" d="M245.36,-401.03C246.21,-409.03 246.45,-418.77 246.09,-427.75"/>
<polygon fill="fuchsia" stroke="fuchsia" points="242.59,-427.59 245.38,-437.81 249.57,-428.08 242.59,-427.59"/>
</g>
<!-- node15 -->
<g id="node16" class="node">
<title>node15</title>
<polygon fill="lightgrey" stroke="black" points="370.5,-328 108.5,-328 108.5,-292 370.5,-292 370.5,-328"/>
<text text-anchor="middle" x="239.5" y="-306.3" font-family="Times,serif" font-size="14.00">#15 Branch[OP=GOTO] Order: 15</text>
</g>
<!-- node14&#45;&gt;node15 -->
<g id="edge30" class="edge">
<title>node14&#45;&gt;node15</title>
<path fill="none" stroke="red" d="M233.62,-364.81C232.78,-356.79 232.55,-347.05 232.92,-338.07"/>
<polygon fill="red" stroke="red" points="236.42,-338.25 233.64,-328.03 229.44,-337.75 236.42,-338.25"/>
</g>
<!-- node15&#45;&gt;node14 -->
<g id="edge31" class="edge">
<title>node15&#45;&gt;node14</title>
<path fill="none" stroke="fuchsia" d="M245.36,-328.03C246.21,-336.03 246.45,-345.77 246.09,-354.75"/>
<polygon fill="fuchsia" stroke="fuchsia" points="242.59,-354.59 245.38,-364.81 249.57,-355.08 242.59,-354.59"/>
</g>
<!-- node20 -->
<g id="node21" class="node">
<title>node20</title>
<polygon fill="lightgrey" stroke="black" points="901.5,-255 413.5,-255 413.5,-219 901.5,-219 901.5,-255"/>
<text text-anchor="middle" x="657.5" y="-233.3" font-family="Times,serif" font-size="14.00">#20 Label[context=CodeModel[id=38603201], bci=14] Order: 20</text>
</g>
<!-- node15&#45;&gt;node20 -->
<g id="edge40" class="edge">
<title>node15&#45;&gt;node20</title>
<path fill="none" stroke="red" d="M339.62,-291.99C402.1,-281.38 482.58,-267.71 546.93,-256.78"/>
<polygon fill="red" stroke="red" points="547.84,-260.18 557.11,-255.05 546.66,-253.28 547.84,-260.18"/>
</g>
<!-- node16&#45;&gt;node10 -->
<g id="edge33" class="edge">
<title>node16&#45;&gt;node10</title>
<path fill="none" stroke="fuchsia" d="M648.36,-620.03C649.21,-628.03 649.45,-637.77 649.09,-646.75"/>
<polygon fill="fuchsia" stroke="fuchsia" points="645.59,-646.59 648.38,-656.81 652.57,-647.08 645.59,-646.59"/>
</g>
<!-- node17 -->
<g id="node18" class="node">
<title>node17</title>
<polygon fill="lightgrey" stroke="black" points="787,-547 506,-547 506,-511 787,-511 787,-547"/>
<text text-anchor="middle" x="646.5" y="-525.3" font-family="Times,serif" font-size="14.00">#17 LineNumber[line=21] Order: 17</text>
</g>
<!-- node16&#45;&gt;node17 -->
<g id="edge34" class="edge">
<title>node16&#45;&gt;node17</title>
<path fill="none" stroke="red" d="M637.59,-583.81C637.2,-575.79 637.52,-566.05 638.4,-557.07"/>
<polygon fill="red" stroke="red" points="641.88,-557.39 639.68,-547.03 634.94,-556.5 641.88,-557.39"/>
</g>
<!-- node17&#45;&gt;node16 -->
<g id="edge35" class="edge">
<title>node17&#45;&gt;node16</title>
<path fill="none" stroke="fuchsia" d="M651.4,-547.03C651.8,-555.03 651.49,-564.77 650.62,-573.75"/>
<polygon fill="fuchsia" stroke="fuchsia" points="647.13,-573.45 649.35,-583.81 654.07,-574.33 647.13,-573.45"/>
</g>
<!-- node18 -->
<g id="node19" class="node">
<title>node18</title>
<polygon fill="lightgrey" stroke="black" points="815,-474 494,-474 494,-438 815,-438 815,-474"/>
<text text-anchor="middle" x="654.5" y="-452.3" font-family="Times,serif" font-size="14.00">#18 Load[OP=ILOAD_3, slot=3] Order: 18</text>
</g>
<!-- node17&#45;&gt;node18 -->
<g id="edge36" class="edge">
<title>node17&#45;&gt;node18</title>
<path fill="none" stroke="red" d="M642.56,-510.81C642.62,-502.79 643.49,-493.05 644.87,-484.07"/>
<polygon fill="red" stroke="red" points="648.35,-484.5 646.72,-474.03 641.47,-483.23 648.35,-484.5"/>
</g>
<!-- node18&#45;&gt;node17 -->
<g id="edge37" class="edge">
<title>node18&#45;&gt;node17</title>
<path fill="none" stroke="fuchsia" d="M658.44,-474.03C658.39,-482.03 657.53,-491.77 656.16,-500.75"/>
<polygon fill="fuchsia" stroke="fuchsia" points="652.67,-500.35 654.31,-510.81 659.56,-501.61 652.67,-500.35"/>
</g>
<!-- node19 -->
<g id="node20" class="node">
<title>node19</title>
<polygon fill="lightgrey" stroke="black" points="817.5,-401 497.5,-401 497.5,-365 817.5,-365 817.5,-401"/>
<text text-anchor="middle" x="657.5" y="-379.3" font-family="Times,serif" font-size="14.00">#19 Store[OP=ISTORE, slot=4] Order: 19</text>
</g>
<!-- node18&#45;&gt;node19 -->
<g id="edge38" class="edge">
<title>node18&#45;&gt;node19</title>
<path fill="none" stroke="red" d="M649.35,-437.81C648.85,-429.79 649.03,-420.05 649.78,-411.07"/>
<polygon fill="red" stroke="red" points="653.27,-411.36 650.92,-401.03 646.31,-410.57 653.27,-411.36"/>
</g>
<!-- node19&#45;&gt;node18 -->
<g id="edge39" class="edge">
<title>node19&#45;&gt;node18</title>
<path fill="none" stroke="fuchsia" d="M662.64,-401.03C663.15,-409.03 662.98,-418.77 662.24,-427.75"/>
<polygon fill="fuchsia" stroke="fuchsia" points="658.74,-427.48 661.1,-437.81 665.7,-428.27 658.74,-427.48"/>
</g>
<!-- node19&#45;&gt;node20 -->
<g id="edge41" class="edge">
<title>node19&#45;&gt;node20</title>
<path fill="none" stroke="red" d="M657.5,-364.92C657.5,-340.34 657.5,-294.75 657.5,-265.43"/>
<polygon fill="red" stroke="red" points="661,-265.06 657.5,-255.06 654,-265.06 661,-265.06"/>
</g>
<!-- node20&#45;&gt;node10 -->
<g id="edge42" class="edge">
<title>node20&#45;&gt;node10</title>
<path fill="none" stroke="fuchsia" d="M807.37,-255.02C863.76,-265.72 914.5,-282.67 914.5,-309 914.5,-603 914.5,-603 914.5,-603 914.5,-630.51 861.76,-647.56 802.73,-658.02"/>
<polygon fill="fuchsia" stroke="fuchsia" points="802.09,-654.58 792.82,-659.71 803.27,-661.48 802.09,-654.58"/>
</g>
<!-- node21 -->
<g id="node22" class="node">
<title>node21</title>
<polygon fill="lightgrey" stroke="black" points="798,-182 517,-182 517,-146 798,-146 798,-182"/>
<text text-anchor="middle" x="657.5" y="-160.3" font-family="Times,serif" font-size="14.00">#21 LineNumber[line=23] Order: 21</text>
</g>
<!-- node20&#45;&gt;node21 -->
<g id="edge43" class="edge">
<title>node20&#45;&gt;node21</title>
<path fill="none" stroke="red" d="M651.62,-218.81C650.78,-210.79 650.55,-201.05 650.92,-192.07"/>
<polygon fill="red" stroke="red" points="654.42,-192.25 651.64,-182.03 647.44,-191.75 654.42,-192.25"/>
</g>
<!-- node21&#45;&gt;node20 -->
<g id="edge44" class="edge">
<title>node21&#45;&gt;node20</title>
<path fill="none" stroke="fuchsia" d="M663.36,-182.03C664.21,-190.03 664.45,-199.77 664.09,-208.75"/>
<polygon fill="fuchsia" stroke="fuchsia" points="660.59,-208.59 663.38,-218.81 667.57,-209.08 660.59,-208.59"/>
</g>
<!-- node22 -->
<g id="node23" class="node">
<title>node22</title>
<polygon fill="lightgrey" stroke="black" points="810,-109 505,-109 505,-73 810,-73 810,-109"/>
<text text-anchor="middle" x="657.5" y="-87.3" font-family="Times,serif" font-size="14.00">#22 Load[OP=ILOAD, slot=4] Order: 22</text>
</g>
<!-- node21&#45;&gt;node22 -->
<g id="edge45" class="edge">
<title>node21&#45;&gt;node22</title>
<path fill="none" stroke="red" d="M651.62,-145.81C650.78,-137.79 650.55,-128.05 650.92,-119.07"/>
<polygon fill="red" stroke="red" points="654.42,-119.25 651.64,-109.03 647.44,-118.75 654.42,-119.25"/>
</g>
<!-- node22&#45;&gt;node21 -->
<g id="edge46" class="edge">
<title>node22&#45;&gt;node21</title>
<path fill="none" stroke="fuchsia" d="M663.36,-109.03C664.21,-117.03 664.45,-126.77 664.09,-135.75"/>
<polygon fill="fuchsia" stroke="fuchsia" points="660.59,-135.59 663.38,-145.81 667.57,-136.08 660.59,-135.59"/>
</g>
<!-- node23 -->
<g id="node24" class="node">
<title>node23</title>
<polygon fill="lightgrey" stroke="black" points="801,-36 514,-36 514,0 801,0 801,-36"/>
<text text-anchor="middle" x="657.5" y="-14.3" font-family="Times,serif" font-size="14.00">#23 Return[OP=IRETURN] Order: 23</text>
</g>
<!-- node22&#45;&gt;node23 -->
<g id="edge47" class="edge">
<title>node22&#45;&gt;node23</title>
<path fill="none" stroke="red" d="M651.62,-72.81C650.78,-64.79 650.55,-55.05 650.92,-46.07"/>
<polygon fill="red" stroke="red" points="654.42,-46.25 651.64,-36.03 647.44,-45.75 654.42,-46.25"/>
</g>
<!-- node23&#45;&gt;node22 -->
<g id="edge48" class="edge">
<title>node23&#45;&gt;node22</title>
<path fill="none" stroke="fuchsia" d="M663.36,-36.03C664.21,-44.03 664.45,-53.77 664.09,-62.75"/>
<polygon fill="fuchsia" stroke="fuchsia" points="660.59,-62.59 663.38,-72.81 667.57,-63.08 660.59,-62.59"/>
</g>
<!-- c0 -->
<!-- c1 -->
<!-- c0&#45;&gt;c1 -->
<g id="edge49" class="edge">
<title>c0&#45;&gt;c1</title>
<path fill="none" stroke="red" d="M1080.39,-1405C1091.61,-1405 1149.74,-1405 1175.36,-1405"/>
<polygon fill="red" stroke="red" points="1175.56,-1408.5 1185.56,-1405 1175.56,-1401.5 1175.56,-1408.5"/>
<text text-anchor="middle" x="1133" y="-1411.8" font-family="Times,serif" font-size="14.00">Control flow</text>
</g>
<!-- c2 -->
<!-- c3 -->
<!-- c2&#45;&gt;c3 -->
<g id="edge50" class="edge">
<title>c2&#45;&gt;c3</title>
<path fill="none" stroke="red" stroke-dasharray="5,2" d="M873.58,-1405C890.55,-1405 1006.71,-1405 1044.58,-1405"/>
<polygon fill="red" stroke="red" points="1044.67,-1408.5 1054.67,-1405 1044.67,-1401.5 1044.67,-1408.5"/>
<text text-anchor="middle" x="964" y="-1411.8" font-family="Times,serif" font-size="14.00">Control flow back edge</text>
</g>
</g>
</svg>
