<?xml version="1.0" encoding="UTF-8" standalone="no"?>
<!DOCTYPE svg PUBLIC "-//W3C//DTD SVG 1.1//EN"
 "http://www.w3.org/Graphics/SVG/1.1/DTD/svg11.dtd">
<!-- Generated by graphviz version 2.43.0 (0)
 -->
<!-- Title: %3 Pages: 1 -->
<svg width="1379pt" height="532pt"
 viewBox="0.00 0.00 1379.12 531.80" xmlns="http://www.w3.org/2000/svg" xmlns:xlink="http://www.w3.org/1999/xlink">
<g id="graph0" class="graph" transform="scale(1 1) rotate(0) translate(4 527.8)">
<title>%3</title>
<polygon fill="white" stroke="transparent" points="-4,4 -4,-527.8 1375.12,-527.8 1375.12,4 -4,4"/>
<g id="clust1" class="cluster">
<title>cluster_0</title>
<polygon fill="none" stroke="lightgray" points="278.12,-211 278.12,-354 402.12,-354 402.12,-211 278.12,-211"/>
</g>
<g id="clust2" class="cluster">
<title>cluster_000</title>
<polygon fill="none" stroke="black" points="510.12,-473.2 510.12,-515.8 1363.12,-515.8 1363.12,-473.2 510.12,-473.2"/>
<text text-anchor="middle" x="936.62" y="-500.6" font-family="Times,serif" font-size="14.00">Legend</text>
</g>
<!-- node0 -->
<g id="node1" class="node">
<title>node0</title>
<polygon fill="lightgrey" stroke="transparent" points="500.12,-510 184.12,-510 184.12,-456 500.12,-456 500.12,-510"/>
<polygon fill="none" stroke="black" points="184.12,-483 184.12,-510 500.12,-510 500.12,-483 184.12,-483"/>
<text text-anchor="start" x="301.62" y="-492.8" font-family="Times,serif" font-size="14.00">#0 Method</text>
<polygon fill="yellow" stroke="transparent" points="184.12,-456 184.12,-483 263.12,-483 263.12,-456 184.12,-456"/>
<polygon fill="none" stroke="black" points="184.12,-456 184.12,-483 263.12,-483 263.12,-456 184.12,-456"/>
<text text-anchor="start" x="190.12" y="-465.8" font-family="Times,serif" font-size="14.00">arg0 : int</text>
<polygon fill="yellow" stroke="transparent" points="263.12,-456 263.12,-483 342.12,-483 342.12,-456 263.12,-456"/>
<polygon fill="none" stroke="black" points="263.12,-456 263.12,-483 342.12,-483 342.12,-456 263.12,-456"/>
<text text-anchor="start" x="269.12" y="-465.8" font-family="Times,serif" font-size="14.00">arg1 : int</text>
<polygon fill="yellow" stroke="transparent" points="342.12,-456 342.12,-483 421.12,-483 421.12,-456 342.12,-456"/>
<polygon fill="none" stroke="black" points="342.12,-456 342.12,-483 421.12,-483 421.12,-456 342.12,-456"/>
<text text-anchor="start" x="348.12" y="-465.8" font-family="Times,serif" font-size="14.00">arg2 : int</text>
<polygon fill="yellow" stroke="transparent" points="421.12,-456 421.12,-483 500.12,-483 500.12,-456 421.12,-456"/>
<polygon fill="none" stroke="black" points="421.12,-456 421.12,-483 500.12,-483 500.12,-456 421.12,-456"/>
<text text-anchor="start" x="427.12" y="-465.8" font-family="Times,serif" font-size="14.00">arg3 : int</text>
</g>
<!-- node8 -->
<g id="node2" class="node">
<title>node8</title>
<polygon fill="lightgreen" stroke="black" points="394.46,-229.54 394.46,-244.46 362.63,-255 317.61,-255 285.78,-244.46 285.78,-229.54 317.61,-219 362.63,-219 394.46,-229.54"/>
<text text-anchor="middle" x="340.12" y="-233.3" font-family="Times,serif" font-size="14.00">#8 Φ int</text>
</g>
<!-- node0&#45;&gt;node8 -->
<g id="edge2" class="edge">
<title>node0:prj3&#45;&gt;node8</title>
<path fill="none" stroke="blue" d="M382.12,-456C382.12,-417.06 58.94,-466.23 32.12,-438 -12.57,-390.95 -8.77,-341.56 33.12,-292 63.57,-255.98 194.86,-243.98 275.57,-239.98"/>
<polygon fill="blue" stroke="blue" points="275.81,-243.48 285.63,-239.51 275.48,-236.48 275.81,-243.48"/>
<text text-anchor="middle" x="267.92" y="-245.1" font-family="Times,serif" font-size="14.00">if #13</text>
</g>
<!-- node0&#45;&gt;node8 -->
<g id="edge3" class="edge">
<title>node0:prj4&#45;&gt;node8</title>
<path fill="none" stroke="blue" d="M461.12,-456C461.12,-442.52 232.53,-439.35 219.12,-438 152.26,-431.28 113.55,-469.41 69.12,-419 -3.21,-336.93 188.32,-275.58 286.39,-250.47"/>
<polygon fill="blue" stroke="blue" points="287.31,-253.84 296.15,-248.01 285.6,-247.06 287.31,-253.84"/>
<text text-anchor="middle" x="280.64" y="-256.93" font-family="Times,serif" font-size="14.00">if #11</text>
</g>
<!-- node6 -->
<g id="node4" class="node">
<title>node6</title>
<polygon fill="orange" stroke="black" points="367.96,-393.54 367.96,-408.46 283.11,-419 163.12,-419 78.28,-408.46 78.28,-393.54 163.12,-383 283.11,-383 367.96,-393.54"/>
<text text-anchor="middle" x="223.12" y="-397.3" font-family="Times,serif" font-size="14.00">#6 NumericCondition : LE</text>
</g>
<!-- node0&#45;&gt;node6 -->
<g id="edge7" class="edge">
<title>node0:prj1&#45;&gt;node6</title>
<path fill="none" stroke="black" d="M223.12,-456C223.12,-447.3 223.12,-437.81 223.12,-429.25"/>
<polygon fill="black" stroke="black" points="226.62,-429.02 223.12,-419.02 219.62,-429.02 226.62,-429.02"/>
<text text-anchor="middle" x="231.57" y="-433.45" font-family="Times,serif" font-size="14.00">*0</text>
</g>
<!-- node0&#45;&gt;node6 -->
<g id="edge8" class="edge">
<title>node0:prj2&#45;&gt;node6</title>
<path fill="none" stroke="black" d="M302.12,-456C302.12,-442.76 294.46,-432.53 283.92,-424.72"/>
<polygon fill="black" stroke="black" points="285.67,-421.69 275.37,-419.21 281.88,-427.57 285.67,-421.69"/>
<text text-anchor="middle" x="295.19" y="-418.23" font-family="Times,serif" font-size="14.00">*1</text>
</g>
<!-- node5 -->
<g id="node5" class="node">
<title>node5</title>
<polygon fill="lightgrey" stroke="black" points="504.62,-419 385.62,-419 385.62,-383 504.62,-383 504.62,-419"/>
<text text-anchor="middle" x="445.12" y="-397.3" font-family="Times,serif" font-size="14.00">#5 LabelNode</text>
</g>
<!-- node0&#45;&gt;node5 -->
<g id="edge6" class="edge">
<title>node0&#45;&gt;node5</title>
<path fill="none" stroke="red" d="M375.84,-455.81C388.43,-446.03 402.63,-435 414.88,-425.49"/>
<polygon fill="red" stroke="red" points="417.26,-428.07 423.01,-419.17 412.96,-422.54 417.26,-428.07"/>
</g>
<!-- node15 -->
<g id="node10" class="node">
<title>node15</title>
<polygon fill="lightgrey" stroke="black" points="438.62,-36 265.62,-36 265.62,0 438.62,0 438.62,-36"/>
<text text-anchor="middle" x="352.12" y="-14.3" font-family="Times,serif" font-size="14.00">#15 ReturnValue : int</text>
</g>
<!-- node0&#45;&gt;node15 -->
<g id="edge16" class="edge">
<title>node0&#45;&gt;node15</title>
<path fill="none" stroke="green" d="M448.89,-456C472.08,-446.93 495.28,-434.89 514.12,-419 617.76,-331.62 710.64,-267.29 650.12,-146 613.31,-72.23 520.93,-41.3 448.7,-28.34"/>
<polygon fill="green" stroke="green" points="449.09,-24.85 438.65,-26.63 447.92,-31.76 449.09,-24.85"/>
</g>
<!-- node8&#45;&gt;node15 -->
<g id="edge14" class="edge">
<title>node8&#45;&gt;node15</title>
<path fill="none" stroke="black" d="M341.06,-218.97C343.13,-181.51 348.1,-91.68 350.61,-46.26"/>
<polygon fill="black" stroke="black" points="354.11,-46.43 351.16,-36.25 347.12,-46.04 354.11,-46.43"/>
<text text-anchor="middle" x="358.6" y="-51.11" font-family="Times,serif" font-size="14.00">*0</text>
</g>
<!-- node7 -->
<g id="node3" class="node">
<title>node7</title>
<polygon fill="lightgrey" stroke="transparent" points="394.62,-346 305.62,-346 305.62,-292 394.62,-292 394.62,-346"/>
<polygon fill="none" stroke="black" points="306.12,-319 306.12,-346 395.12,-346 395.12,-319 306.12,-319"/>
<text text-anchor="start" x="332.12" y="-328.8" font-family="Times,serif" font-size="14.00">#7 If</text>
<polygon fill="yellow" stroke="transparent" points="306.12,-292 306.12,-319 352.12,-319 352.12,-292 306.12,-292"/>
<polygon fill="none" stroke="black" points="306.12,-292 306.12,-319 352.12,-319 352.12,-292 306.12,-292"/>
<text text-anchor="start" x="312.12" y="-301.8" font-family="Times,serif" font-size="14.00">false</text>
<polygon fill="yellow" stroke="transparent" points="352.12,-292 352.12,-319 395.12,-319 395.12,-292 352.12,-292"/>
<polygon fill="none" stroke="black" points="352.12,-292 352.12,-319 395.12,-319 395.12,-292 352.12,-292"/>
<text text-anchor="start" x="358.12" y="-301.8" font-family="Times,serif" font-size="14.00">true</text>
</g>
<!-- node7&#45;&gt;node8 -->
<g id="edge1" class="edge">
<title>node7&#45;&gt;node8</title>
<path fill="none" stroke="black" stroke-dasharray="1,5" d="M346.84,-291.81C345.78,-283.25 344.59,-273.74 343.51,-265.12"/>
<polygon fill="black" stroke="black" points="346.98,-264.66 342.27,-255.17 340.03,-265.53 346.98,-264.66"/>
</g>
<!-- node12 -->
<g id="node6" class="node">
<title>node12</title>
<polygon fill="lightgrey" stroke="black" points="540.12,-255 412.12,-255 412.12,-219 540.12,-219 540.12,-255"/>
<text text-anchor="middle" x="476.12" y="-233.3" font-family="Times,serif" font-size="14.00">#12 LabelNode</text>
</g>
<!-- node7&#45;&gt;node12 -->
<g id="edge9" class="edge">
<title>node7:prj10&#45;&gt;node12</title>
<path fill="none" stroke="red" d="M329.12,-292C329.12,-271.17 401.82,-281.85 421.12,-274 429.48,-270.6 437.92,-265.87 445.59,-260.95"/>
<polygon fill="red" stroke="red" points="447.86,-263.64 454.2,-255.16 443.95,-257.83 447.86,-263.64"/>
</g>
<!-- node11 -->
<g id="node9" class="node">
<title>node11</title>
<polygon fill="lightgrey" stroke="black" points="641.12,-182 513.12,-182 513.12,-146 641.12,-146 641.12,-182"/>
<text text-anchor="middle" x="577.12" y="-160.3" font-family="Times,serif" font-size="14.00">#11 LabelNode</text>
</g>
<!-- node7&#45;&gt;node11 -->
<g id="edge13" class="edge">
<title>node7:prj9&#45;&gt;node11</title>
<path fill="none" stroke="red" d="M396.12,-305C431.89,-305 524.01,-280.47 549.12,-255 565.58,-238.31 572.38,-212.11 575.19,-192.28"/>
<polygon fill="red" stroke="red" points="578.67,-192.63 576.34,-182.29 571.71,-191.83 578.67,-192.63"/>
</g>
<!-- node6&#45;&gt;node7 -->
<g id="edge4" class="edge">
<title>node6&#45;&gt;node7</title>
<path fill="none" stroke="black" d="M250.36,-382.84C264.76,-373.77 282.9,-362.34 299.75,-351.73"/>
<polygon fill="black" stroke="black" points="301.82,-354.56 308.42,-346.27 298.09,-348.64 301.82,-354.56"/>
<text text-anchor="middle" x="297.59" y="-359.38" font-family="Times,serif" font-size="14.00">*0</text>
</g>
<!-- node5&#45;&gt;node7 -->
<g id="edge5" class="edge">
<title>node5&#45;&gt;node7</title>
<path fill="none" stroke="red" d="M424.5,-382.64C414.12,-373.9 401.18,-363 389.01,-352.75"/>
<polygon fill="red" stroke="red" points="391.07,-349.91 381.17,-346.15 386.56,-355.27 391.07,-349.91"/>
</g>
<!-- node13 -->
<g id="node7" class="node">
<title>node13</title>
<polygon fill="lightgrey" stroke="black" points="494.62,-182 409.62,-182 409.62,-146 494.62,-146 494.62,-182"/>
<text text-anchor="middle" x="452.12" y="-160.3" font-family="Times,serif" font-size="14.00">#13 Goto</text>
</g>
<!-- node12&#45;&gt;node13 -->
<g id="edge10" class="edge">
<title>node12&#45;&gt;node13</title>
<path fill="none" stroke="red" d="M470.31,-218.81C467.57,-210.7 464.23,-200.84 461.17,-191.78"/>
<polygon fill="red" stroke="red" points="464.39,-190.38 457.87,-182.03 457.76,-192.62 464.39,-190.38"/>
</g>
<!-- node14 -->
<g id="node8" class="node">
<title>node14</title>
<polygon fill="lightgrey" stroke="black" points="544.12,-109 368.12,-109 368.12,-73 544.12,-73 544.12,-109"/>
<text text-anchor="middle" x="456.12" y="-87.3" font-family="Times,serif" font-size="14.00">#14 Merge : Merge20</text>
</g>
<!-- node13&#45;&gt;node14 -->
<g id="edge11" class="edge">
<title>node13&#45;&gt;node14</title>
<path fill="none" stroke="red" d="M453.09,-145.81C453.54,-137.79 454.09,-128.05 454.59,-119.07"/>
<polygon fill="red" stroke="red" points="458.09,-119.21 455.16,-109.03 451.1,-118.82 458.09,-119.21"/>
</g>
<!-- node14&#45;&gt;node15 -->
<g id="edge15" class="edge">
<title>node14&#45;&gt;node15</title>
<path fill="none" stroke="red" d="M431.21,-72.99C417.54,-63.67 400.42,-51.97 385.6,-41.86"/>
<polygon fill="red" stroke="red" points="387.42,-38.86 377.19,-36.11 383.47,-44.64 387.42,-38.86"/>
</g>
<!-- node11&#45;&gt;node14 -->
<g id="edge12" class="edge">
<title>node11&#45;&gt;node14</title>
<path fill="none" stroke="red" d="M548.14,-145.99C531.94,-136.49 511.57,-124.54 494.11,-114.29"/>
<polygon fill="red" stroke="red" points="495.68,-111.16 485.28,-109.11 492.14,-117.19 495.68,-111.16"/>
</g>
<!-- c0 -->
<!-- c1 -->
<!-- c0&#45;&gt;c1 -->
<g id="edge17" class="edge">
<title>c0&#45;&gt;c1</title>
<path fill="none" stroke="red" d="M1246.01,-483C1257.23,-483 1315.36,-483 1340.98,-483"/>
<polygon fill="red" stroke="red" points="1341.17,-486.5 1351.17,-483 1341.17,-479.5 1341.17,-486.5"/>
<text text-anchor="middle" x="1298.62" y="-489.8" font-family="Times,serif" font-size="14.00">Control flow</text>
</g>
<!-- c2 -->
<!-- c3 -->
<!-- c2&#45;&gt;c3 -->
<g id="edge18" class="edge">
<title>c2&#45;&gt;c3</title>
<path fill="none" stroke="red" stroke-dasharray="5,2" d="M1039.2,-483C1056.17,-483 1172.32,-483 1210.2,-483"/>
<polygon fill="red" stroke="red" points="1210.29,-486.5 1220.29,-483 1210.29,-479.5 1210.29,-486.5"/>
<text text-anchor="middle" x="1129.62" y="-489.8" font-family="Times,serif" font-size="14.00">Control flow back edge</text>
</g>
<!-- d0 -->
<!-- d1 -->
<!-- d0&#45;&gt;d1 -->
<g id="edge19" class="edge">
<title>d0&#45;&gt;d1</title>
<path fill="none" stroke="black" d="M927.98,-483C937.52,-483 981.43,-483 1003.04,-483"/>
<polygon fill="black" stroke="black" points="1003.27,-486.5 1013.27,-483 1003.27,-479.5 1003.27,-486.5"/>
<text text-anchor="middle" x="970.62" y="-489.8" font-family="Times,serif" font-size="14.00">Data flow</text>
</g>
<!-- d2 -->
<!-- d3 -->
<!-- d2&#45;&gt;d3 -->
<g id="edge20" class="edge">
<title>d2&#45;&gt;d3</title>
<path fill="none" stroke="black" stroke-dasharray="1,5" d="M801.92,-483C812.57,-483 867.58,-483 892.19,-483"/>
<polygon fill="black" stroke="black" points="892.26,-486.5 902.26,-483 892.26,-479.5 892.26,-486.5"/>
<text text-anchor="middle" x="852.12" y="-489.8" font-family="Times,serif" font-size="14.00">Declaration</text>
</g>
<!-- d4 -->
<!-- d5 -->
<!-- d4&#45;&gt;d5 -->
<g id="edge21" class="edge">
<title>d4&#45;&gt;d5</title>
<path fill="none" stroke="blue" d="M659.22,-483C671.84,-483 738,-483 765.8,-483"/>
<polygon fill="blue" stroke="blue" points="765.96,-486.5 775.96,-483 765.96,-479.5 765.96,-486.5"/>
<text text-anchor="middle" x="717.62" y="-489.8" font-family="Times,serif" font-size="14.00">PHI Data flow</text>
</g>
<!-- d6 -->
<!-- d7 -->
<!-- d6&#45;&gt;d7 -->
<g id="edge22" class="edge">
<title>d6&#45;&gt;d7</title>
<path fill="none" stroke="green" d="M522.11,-483C534.06,-483 596.42,-483 623.05,-483"/>
<polygon fill="green" stroke="green" points="623.07,-486.5 633.07,-483 623.07,-479.5 623.07,-486.5"/>
<text text-anchor="middle" x="577.62" y="-489.8" font-family="Times,serif" font-size="14.00">Memory flow</text>
</g>
</g>
</svg>
