<?xml version="1.0" encoding="UTF-8" standalone="no"?>
<!DOCTYPE svg PUBLIC "-//W3C//DTD SVG 1.1//EN"
 "http://www.w3.org/Graphics/SVG/1.1/DTD/svg11.dtd">
<!-- Generated by graphviz version 2.43.0 (0)
 -->
<!-- Title: %3 Pages: 1 -->
<svg width="1301pt" height="532pt"
 viewBox="0.00 0.00 1300.92 531.80" xmlns="http://www.w3.org/2000/svg" xmlns:xlink="http://www.w3.org/1999/xlink">
<g id="graph0" class="graph" transform="scale(1 1) rotate(0) translate(4 527.8)">
<title>%3</title>
<polygon fill="white" stroke="transparent" points="-4,4 -4,-527.8 1296.92,-527.8 1296.92,4 -4,4"/>
<g id="clust1" class="cluster">
<title>cluster_0</title>
<polygon fill="none" stroke="lightgray" points="207.92,-211 207.92,-354 331.92,-354 331.92,-211 207.92,-211"/>
</g>
<g id="clust2" class="cluster">
<title>cluster_000</title>
<polygon fill="none" stroke="black" points="431.92,-473.2 431.92,-515.8 1284.92,-515.8 1284.92,-473.2 431.92,-473.2"/>
<text text-anchor="middle" x="858.42" y="-500.6" font-family="Times,serif" font-size="14.00">Legend</text>
</g>
<!-- node0 -->
<g id="node1" class="node">
<title>node0</title>
<polygon fill="lightgrey" stroke="transparent" points="421.92,-510 105.92,-510 105.92,-456 421.92,-456 421.92,-510"/>
<polygon fill="none" stroke="black" points="105.92,-483 105.92,-510 421.92,-510 421.92,-483 105.92,-483"/>
<text text-anchor="start" x="223.42" y="-492.8" font-family="Times,serif" font-size="14.00">#0 Method</text>
<polygon fill="yellow" stroke="transparent" points="105.92,-456 105.92,-483 184.92,-483 184.92,-456 105.92,-456"/>
<polygon fill="none" stroke="black" points="105.92,-456 105.92,-483 184.92,-483 184.92,-456 105.92,-456"/>
<text text-anchor="start" x="111.92" y="-465.8" font-family="Times,serif" font-size="14.00">arg0 : int</text>
<polygon fill="yellow" stroke="transparent" points="184.92,-456 184.92,-483 263.92,-483 263.92,-456 184.92,-456"/>
<polygon fill="none" stroke="black" points="184.92,-456 184.92,-483 263.92,-483 263.92,-456 184.92,-456"/>
<text text-anchor="start" x="190.92" y="-465.8" font-family="Times,serif" font-size="14.00">arg1 : int</text>
<polygon fill="yellow" stroke="transparent" points="263.92,-456 263.92,-483 342.92,-483 342.92,-456 263.92,-456"/>
<polygon fill="none" stroke="black" points="263.92,-456 263.92,-483 342.92,-483 342.92,-456 263.92,-456"/>
<text text-anchor="start" x="269.92" y="-465.8" font-family="Times,serif" font-size="14.00">arg2 : int</text>
<polygon fill="yellow" stroke="transparent" points="342.92,-456 342.92,-483 421.92,-483 421.92,-456 342.92,-456"/>
<polygon fill="none" stroke="black" points="342.92,-456 342.92,-483 421.92,-483 421.92,-456 342.92,-456"/>
<text text-anchor="start" x="348.92" y="-465.8" font-family="Times,serif" font-size="14.00">arg3 : int</text>
</g>
<!-- node6 -->
<g id="node2" class="node">
<title>node6</title>
<polygon fill="orange" stroke="black" points="289.76,-393.54 289.76,-408.46 204.91,-419 84.93,-419 0.08,-408.46 0.08,-393.54 84.93,-383 204.91,-383 289.76,-393.54"/>
<text text-anchor="middle" x="144.92" y="-397.3" font-family="Times,serif" font-size="14.00">#6 NumericCondition : LE</text>
</g>
<!-- node0&#45;&gt;node6 -->
<g id="edge1" class="edge">
<title>node0:prj3&#45;&gt;node6</title>
<path fill="none" stroke="black" d="M144.92,-456C144.92,-447.3 144.92,-437.81 144.92,-429.25"/>
<polygon fill="black" stroke="black" points="148.42,-429.02 144.92,-419.02 141.42,-429.02 148.42,-429.02"/>
<text text-anchor="middle" x="153.37" y="-433.45" font-family="Times,serif" font-size="14.00">*0</text>
</g>
<!-- node0&#45;&gt;node6 -->
<g id="edge2" class="edge">
<title>node0:prj4&#45;&gt;node6</title>
<path fill="none" stroke="black" d="M223.92,-456C223.92,-442.76 216.26,-432.53 205.72,-424.72"/>
<polygon fill="black" stroke="black" points="207.47,-421.69 197.17,-419.21 203.68,-427.57 207.47,-421.69"/>
<text text-anchor="middle" x="216.99" y="-418.23" font-family="Times,serif" font-size="14.00">*1</text>
</g>
<!-- node5 -->
<g id="node4" class="node">
<title>node5</title>
<polygon fill="lightgrey" stroke="black" points="426.42,-419 307.42,-419 307.42,-383 426.42,-383 426.42,-419"/>
<text text-anchor="middle" x="366.92" y="-397.3" font-family="Times,serif" font-size="14.00">#5 LabelNode</text>
</g>
<!-- node0&#45;&gt;node5 -->
<g id="edge5" class="edge">
<title>node0&#45;&gt;node5</title>
<path fill="none" stroke="red" d="M282.05,-455.59C287.32,-449.02 293.43,-442.34 299.92,-437 305.63,-432.3 312.08,-427.97 318.66,-424.08"/>
<polygon fill="red" stroke="red" points="320.63,-426.98 327.65,-419.05 317.22,-420.87 320.63,-426.98"/>
</g>
<!-- node15 -->
<g id="node9" class="node">
<title>node15</title>
<polygon fill="lightgrey" stroke="black" points="368.42,-36 195.42,-36 195.42,0 368.42,0 368.42,-36"/>
<text text-anchor="middle" x="281.92" y="-14.3" font-family="Times,serif" font-size="14.00">#15 ReturnValue : int</text>
</g>
<!-- node0&#45;&gt;node15 -->
<g id="edge13" class="edge">
<title>node0&#45;&gt;node15</title>
<path fill="none" stroke="green" d="M295.15,-455.86C305.09,-448.73 316.48,-441.69 327.92,-437 372.95,-418.54 399.01,-450.71 435.92,-419 455.43,-402.24 442.48,-387.04 453.92,-364 497.68,-275.88 550.59,-275.91 579.92,-182 608.99,-88.94 476.23,-48.1 378.54,-30.84"/>
<polygon fill="green" stroke="green" points="379.05,-27.38 368.61,-29.14 377.87,-34.28 379.05,-27.38"/>
</g>
<!-- node8 -->
<g id="node10" class="node">
<title>node8</title>
<polygon fill="lightgreen" stroke="black" points="324.26,-229.54 324.26,-244.46 292.43,-255 247.41,-255 215.58,-244.46 215.58,-229.54 247.41,-219 292.43,-219 324.26,-229.54"/>
<text text-anchor="middle" x="269.92" y="-233.3" font-family="Times,serif" font-size="14.00">#8 Φ int</text>
</g>
<!-- node0&#45;&gt;node8 -->
<g id="edge15" class="edge">
<title>node0:prj1&#45;&gt;node8</title>
<path fill="none" stroke="blue" d="M303.92,-456C303.92,-418.42 444.74,-447.77 468.92,-419 479.21,-406.75 476.17,-397.26 468.92,-383 436.58,-319.42 361.84,-277.12 313.72,-255.37"/>
<polygon fill="blue" stroke="blue" points="315.04,-252.12 304.48,-251.29 312.22,-258.53 315.04,-252.12"/>
<text text-anchor="middle" x="324.47" y="-247.17" font-family="Times,serif" font-size="14.00">if #13</text>
</g>
<!-- node0&#45;&gt;node8 -->
<g id="edge16" class="edge">
<title>node0:prj2&#45;&gt;node8</title>
<path fill="none" stroke="blue" d="M382.92,-456C382.92,-407.36 457.94,-458.79 485.92,-419 495.12,-405.91 490.34,-398.38 485.92,-383 472.74,-337.13 466.35,-321.61 428.92,-292 419.91,-284.87 361.75,-266.06 318.36,-252.65"/>
<polygon fill="blue" stroke="blue" points="319.38,-249.3 308.79,-249.7 317.32,-255.99 319.38,-249.3"/>
<text text-anchor="middle" x="328.6" y="-243.26" font-family="Times,serif" font-size="14.00">if #11</text>
</g>
<!-- node7 -->
<g id="node3" class="node">
<title>node7</title>
<polygon fill="lightgrey" stroke="transparent" points="324.42,-346 235.42,-346 235.42,-292 324.42,-292 324.42,-346"/>
<polygon fill="none" stroke="black" points="235.92,-319 235.92,-346 324.92,-346 324.92,-319 235.92,-319"/>
<text text-anchor="start" x="261.92" y="-328.8" font-family="Times,serif" font-size="14.00">#7 If</text>
<polygon fill="yellow" stroke="transparent" points="235.92,-292 235.92,-319 281.92,-319 281.92,-292 235.92,-292"/>
<polygon fill="none" stroke="black" points="235.92,-292 235.92,-319 281.92,-319 281.92,-292 235.92,-292"/>
<text text-anchor="start" x="241.92" y="-301.8" font-family="Times,serif" font-size="14.00">false</text>
<polygon fill="yellow" stroke="transparent" points="281.92,-292 281.92,-319 324.92,-319 324.92,-292 281.92,-292"/>
<polygon fill="none" stroke="black" points="281.92,-292 281.92,-319 324.92,-319 324.92,-292 281.92,-292"/>
<text text-anchor="start" x="287.92" y="-301.8" font-family="Times,serif" font-size="14.00">true</text>
</g>
<!-- node6&#45;&gt;node7 -->
<g id="edge3" class="edge">
<title>node6&#45;&gt;node7</title>
<path fill="none" stroke="black" d="M173.88,-382.84C189.39,-373.64 208.99,-362.03 227.11,-351.3"/>
<polygon fill="black" stroke="black" points="229.04,-354.22 235.85,-346.11 225.47,-348.2 229.04,-354.22"/>
<text text-anchor="middle" x="224.57" y="-358.92" font-family="Times,serif" font-size="14.00">*0</text>
</g>
<!-- node12 -->
<g id="node5" class="node">
<title>node12</title>
<polygon fill="lightgrey" stroke="black" points="469.92,-255 341.92,-255 341.92,-219 469.92,-219 469.92,-255"/>
<text text-anchor="middle" x="405.92" y="-233.3" font-family="Times,serif" font-size="14.00">#12 LabelNode</text>
</g>
<!-- node7&#45;&gt;node12 -->
<g id="edge6" class="edge">
<title>node7:prj10&#45;&gt;node12</title>
<path fill="none" stroke="red" d="M258.92,-292C258.92,-283.2 296.5,-269.5 333.65,-258.1"/>
<polygon fill="red" stroke="red" points="335.02,-261.34 343.58,-255.1 332.99,-254.64 335.02,-261.34"/>
</g>
<!-- node11 -->
<g id="node8" class="node">
<title>node11</title>
<polygon fill="lightgrey" stroke="black" points="570.92,-182 442.92,-182 442.92,-146 570.92,-146 570.92,-182"/>
<text text-anchor="middle" x="506.92" y="-160.3" font-family="Times,serif" font-size="14.00">#11 LabelNode</text>
</g>
<!-- node7&#45;&gt;node11 -->
<g id="edge10" class="edge">
<title>node7:prj9&#45;&gt;node11</title>
<path fill="none" stroke="red" d="M325.92,-305C361.69,-305 453.81,-280.47 478.92,-255 495.38,-238.31 502.18,-212.11 504.99,-192.28"/>
<polygon fill="red" stroke="red" points="508.47,-192.63 506.14,-182.29 501.52,-191.83 508.47,-192.63"/>
</g>
<!-- node7&#45;&gt;node8 -->
<g id="edge14" class="edge">
<title>node7&#45;&gt;node8</title>
<path fill="none" stroke="black" stroke-dasharray="1,5" d="M276.65,-291.81C275.58,-283.25 274.39,-273.74 273.31,-265.12"/>
<polygon fill="black" stroke="black" points="276.78,-264.66 272.07,-255.17 269.83,-265.53 276.78,-264.66"/>
</g>
<!-- node5&#45;&gt;node7 -->
<g id="edge4" class="edge">
<title>node5&#45;&gt;node7</title>
<path fill="none" stroke="red" d="M348.04,-382.64C338.62,-373.98 326.9,-363.2 315.86,-353.05"/>
<polygon fill="red" stroke="red" points="318.08,-350.34 308.35,-346.15 313.35,-355.49 318.08,-350.34"/>
</g>
<!-- node13 -->
<g id="node6" class="node">
<title>node13</title>
<polygon fill="lightgrey" stroke="black" points="424.42,-182 339.42,-182 339.42,-146 424.42,-146 424.42,-182"/>
<text text-anchor="middle" x="381.92" y="-160.3" font-family="Times,serif" font-size="14.00">#13 Goto</text>
</g>
<!-- node12&#45;&gt;node13 -->
<g id="edge7" class="edge">
<title>node12&#45;&gt;node13</title>
<path fill="none" stroke="red" d="M400.11,-218.81C397.37,-210.7 394.03,-200.84 390.97,-191.78"/>
<polygon fill="red" stroke="red" points="394.19,-190.38 387.68,-182.03 387.56,-192.62 394.19,-190.38"/>
</g>
<!-- node14 -->
<g id="node7" class="node">
<title>node14</title>
<polygon fill="lightgrey" stroke="black" points="473.92,-109 297.92,-109 297.92,-73 473.92,-73 473.92,-109"/>
<text text-anchor="middle" x="385.92" y="-87.3" font-family="Times,serif" font-size="14.00">#14 Merge : Merge20</text>
</g>
<!-- node13&#45;&gt;node14 -->
<g id="edge8" class="edge">
<title>node13&#45;&gt;node14</title>
<path fill="none" stroke="red" d="M382.89,-145.81C383.34,-137.79 383.89,-128.05 384.39,-119.07"/>
<polygon fill="red" stroke="red" points="387.89,-119.21 384.96,-109.03 380.9,-118.82 387.89,-119.21"/>
</g>
<!-- node14&#45;&gt;node15 -->
<g id="edge12" class="edge">
<title>node14&#45;&gt;node15</title>
<path fill="none" stroke="red" d="M361.01,-72.99C347.35,-63.67 330.22,-51.97 315.4,-41.86"/>
<polygon fill="red" stroke="red" points="317.22,-38.86 306.99,-36.11 313.27,-44.64 317.22,-38.86"/>
</g>
<!-- node11&#45;&gt;node14 -->
<g id="edge9" class="edge">
<title>node11&#45;&gt;node14</title>
<path fill="none" stroke="red" d="M477.94,-145.99C461.74,-136.49 441.37,-124.54 423.91,-114.29"/>
<polygon fill="red" stroke="red" points="425.48,-111.16 415.08,-109.11 421.94,-117.19 425.48,-111.16"/>
</g>
<!-- node8&#45;&gt;node15 -->
<g id="edge11" class="edge">
<title>node8&#45;&gt;node15</title>
<path fill="none" stroke="black" d="M270.86,-218.97C272.93,-181.51 277.9,-91.68 280.41,-46.26"/>
<polygon fill="black" stroke="black" points="283.91,-46.43 280.97,-36.25 276.92,-46.04 283.91,-46.43"/>
<text text-anchor="middle" x="288.4" y="-51.11" font-family="Times,serif" font-size="14.00">*0</text>
</g>
<!-- c0 -->
<!-- c1 -->
<!-- c0&#45;&gt;c1 -->
<g id="edge17" class="edge">
<title>c0&#45;&gt;c1</title>
<path fill="none" stroke="red" d="M1167.81,-483C1179.03,-483 1237.16,-483 1262.78,-483"/>
<polygon fill="red" stroke="red" points="1262.98,-486.5 1272.98,-483 1262.98,-479.5 1262.98,-486.5"/>
<text text-anchor="middle" x="1220.42" y="-489.8" font-family="Times,serif" font-size="14.00">Control flow</text>
</g>
<!-- c2 -->
<!-- c3 -->
<!-- c2&#45;&gt;c3 -->
<g id="edge18" class="edge">
<title>c2&#45;&gt;c3</title>
<path fill="none" stroke="red" stroke-dasharray="5,2" d="M961,-483C977.97,-483 1094.12,-483 1132,-483"/>
<polygon fill="red" stroke="red" points="1132.09,-486.5 1142.09,-483 1132.09,-479.5 1132.09,-486.5"/>
<text text-anchor="middle" x="1051.42" y="-489.8" font-family="Times,serif" font-size="14.00">Control flow back edge</text>
</g>
<!-- d0 -->
<!-- d1 -->
<!-- d0&#45;&gt;d1 -->
<g id="edge19" class="edge">
<title>d0&#45;&gt;d1</title>
<path fill="none" stroke="black" d="M849.78,-483C859.32,-483 903.23,-483 924.84,-483"/>
<polygon fill="black" stroke="black" points="925.07,-486.5 935.07,-483 925.07,-479.5 925.07,-486.5"/>
<text text-anchor="middle" x="892.42" y="-489.8" font-family="Times,serif" font-size="14.00">Data flow</text>
</g>
<!-- d2 -->
<!-- d3 -->
<!-- d2&#45;&gt;d3 -->
<g id="edge20" class="edge">
<title>d2&#45;&gt;d3</title>
<path fill="none" stroke="black" stroke-dasharray="1,5" d="M723.72,-483C734.38,-483 789.38,-483 813.99,-483"/>
<polygon fill="black" stroke="black" points="814.06,-486.5 824.06,-483 814.06,-479.5 814.06,-486.5"/>
<text text-anchor="middle" x="773.92" y="-489.8" font-family="Times,serif" font-size="14.00">Declaration</text>
</g>
<!-- d4 -->
<!-- d5 -->
<!-- d4&#45;&gt;d5 -->
<g id="edge21" class="edge">
<title>d4&#45;&gt;d5</title>
<path fill="none" stroke="blue" d="M581.02,-483C593.64,-483 659.8,-483 687.6,-483"/>
<polygon fill="blue" stroke="blue" points="687.76,-486.5 697.76,-483 687.76,-479.5 687.76,-486.5"/>
<text text-anchor="middle" x="639.42" y="-489.8" font-family="Times,serif" font-size="14.00">PHI Data flow</text>
</g>
<!-- d6 -->
<!-- d7 -->
<!-- d6&#45;&gt;d7 -->
<g id="edge22" class="edge">
<title>d6&#45;&gt;d7</title>
<path fill="none" stroke="green" d="M443.92,-483C455.86,-483 518.22,-483 544.85,-483"/>
<polygon fill="green" stroke="green" points="544.87,-486.5 554.87,-483 544.87,-479.5 544.87,-486.5"/>
<text text-anchor="middle" x="499.42" y="-489.8" font-family="Times,serif" font-size="14.00">Memory flow</text>
</g>
</g>
</svg>
