<?xml version="1.0" encoding="UTF-8" standalone="no"?>
<!DOCTYPE svg PUBLIC "-//W3C//DTD SVG 1.1//EN"
 "http://www.w3.org/Graphics/SVG/1.1/DTD/svg11.dtd">
<!-- Generated by graphviz version 2.43.0 (0)
 -->
<!-- Title: %3 Pages: 1 -->
<svg width="1301pt" height="605pt"
 viewBox="0.00 0.00 1300.92 604.80" xmlns="http://www.w3.org/2000/svg" xmlns:xlink="http://www.w3.org/1999/xlink">
<g id="graph0" class="graph" transform="scale(1 1) rotate(0) translate(4 600.8)">
<title>%3</title>
<polygon fill="white" stroke="transparent" points="-4,4 -4,-600.8 1296.92,-600.8 1296.92,4 -4,4"/>
<g id="clust1" class="cluster">
<title>cluster_0</title>
<polygon fill="none" stroke="lightgray" points="166.92,-65 166.92,-190 358.92,-190 358.92,-65 166.92,-65"/>
</g>
<g id="clust2" class="cluster">
<title>cluster_000</title>
<polygon fill="none" stroke="black" points="431.92,-546.2 431.92,-588.8 1284.92,-588.8 1284.92,-546.2 431.92,-546.2"/>
<text text-anchor="middle" x="858.42" y="-573.6" font-family="Times,serif" font-size="14.00">Legend</text>
</g>
<!-- node0 -->
<g id="node1" class="node">
<title>node0</title>
<polygon fill="lightgrey" stroke="transparent" points="421.92,-583 105.92,-583 105.92,-529 421.92,-529 421.92,-583"/>
<polygon fill="none" stroke="black" points="105.92,-556 105.92,-583 421.92,-583 421.92,-556 105.92,-556"/>
<text text-anchor="start" x="223.42" y="-565.8" font-family="Times,serif" font-size="14.00">#0 Method</text>
<polygon fill="yellow" stroke="transparent" points="105.92,-529 105.92,-556 184.92,-556 184.92,-529 105.92,-529"/>
<polygon fill="none" stroke="black" points="105.92,-529 105.92,-556 184.92,-556 184.92,-529 105.92,-529"/>
<text text-anchor="start" x="111.92" y="-538.8" font-family="Times,serif" font-size="14.00">arg0 : int</text>
<polygon fill="yellow" stroke="transparent" points="184.92,-529 184.92,-556 263.92,-556 263.92,-529 184.92,-529"/>
<polygon fill="none" stroke="black" points="184.92,-529 184.92,-556 263.92,-556 263.92,-529 184.92,-529"/>
<text text-anchor="start" x="190.92" y="-538.8" font-family="Times,serif" font-size="14.00">arg1 : int</text>
<polygon fill="yellow" stroke="transparent" points="263.92,-529 263.92,-556 342.92,-556 342.92,-529 263.92,-529"/>
<polygon fill="none" stroke="black" points="263.92,-529 263.92,-556 342.92,-556 342.92,-529 263.92,-529"/>
<text text-anchor="start" x="269.92" y="-538.8" font-family="Times,serif" font-size="14.00">arg2 : int</text>
<polygon fill="yellow" stroke="transparent" points="342.92,-529 342.92,-556 421.92,-556 421.92,-529 342.92,-529"/>
<polygon fill="none" stroke="black" points="342.92,-529 342.92,-556 421.92,-556 421.92,-529 342.92,-529"/>
<text text-anchor="start" x="348.92" y="-538.8" font-family="Times,serif" font-size="14.00">arg3 : int</text>
</g>
<!-- node6 -->
<g id="node2" class="node">
<title>node6</title>
<polygon fill="orange" stroke="black" points="289.76,-466.54 289.76,-481.46 204.91,-492 84.93,-492 0.08,-481.46 0.08,-466.54 84.93,-456 204.91,-456 289.76,-466.54"/>
<text text-anchor="middle" x="144.92" y="-470.3" font-family="Times,serif" font-size="14.00">#6 NumericCondition : LE</text>
</g>
<!-- node0&#45;&gt;node6 -->
<g id="edge1" class="edge">
<title>node0:prj4&#45;&gt;node6</title>
<path fill="none" stroke="black" d="M223.92,-529C223.92,-515.76 216.26,-505.53 205.72,-497.72"/>
<polygon fill="black" stroke="black" points="207.47,-494.69 197.17,-492.21 203.68,-500.57 207.47,-494.69"/>
<text text-anchor="middle" x="216.99" y="-491.23" font-family="Times,serif" font-size="14.00">*0</text>
</g>
<!-- node0&#45;&gt;node6 -->
<g id="edge2" class="edge">
<title>node0:prj3&#45;&gt;node6</title>
<path fill="none" stroke="black" d="M144.92,-529C144.92,-520.3 144.92,-510.81 144.92,-502.25"/>
<polygon fill="black" stroke="black" points="148.42,-502.02 144.92,-492.02 141.42,-502.02 148.42,-502.02"/>
<text text-anchor="middle" x="153.37" y="-506.45" font-family="Times,serif" font-size="14.00">*1</text>
</g>
<!-- node5 -->
<g id="node4" class="node">
<title>node5</title>
<polygon fill="lightgrey" stroke="black" points="426.42,-492 307.42,-492 307.42,-456 426.42,-456 426.42,-492"/>
<text text-anchor="middle" x="366.92" y="-470.3" font-family="Times,serif" font-size="14.00">#5 LabelNode</text>
</g>
<!-- node0&#45;&gt;node5 -->
<g id="edge5" class="edge">
<title>node0&#45;&gt;node5</title>
<path fill="none" stroke="red" d="M282.05,-528.59C287.32,-522.02 293.43,-515.34 299.92,-510 305.63,-505.3 312.08,-500.97 318.66,-497.08"/>
<polygon fill="red" stroke="red" points="320.63,-499.98 327.65,-492.05 317.22,-493.87 320.63,-499.98"/>
</g>
<!-- node15 -->
<g id="node9" class="node">
<title>node15</title>
<polygon fill="lightgrey" stroke="black" points="373.42,-36 200.42,-36 200.42,0 373.42,0 373.42,-36"/>
<text text-anchor="middle" x="286.92" y="-14.3" font-family="Times,serif" font-size="14.00">#15 ReturnValue : int</text>
</g>
<!-- node0&#45;&gt;node15 -->
<g id="edge13" class="edge">
<title>node0&#45;&gt;node15</title>
<path fill="none" stroke="green" d="M295.15,-528.86C305.09,-521.73 316.48,-514.69 327.92,-510 372.95,-491.54 404.47,-529.13 435.92,-492 446.26,-479.79 445.83,-468.56 435.92,-456 414.7,-429.08 387.98,-459.04 360.92,-438 353.39,-432.14 353.21,-428.26 350.92,-419 345.16,-395.7 349.61,-388.96 350.92,-365 352.7,-332.41 351.68,-323.83 358.92,-292 362.78,-275 368.99,-272.18 371.92,-255 381.22,-200.5 389.82,-109.63 362.92,-65 357.19,-55.49 348.67,-47.7 339.39,-41.4"/>
<polygon fill="green" stroke="green" points="341.06,-38.31 330.71,-36.03 337.38,-44.27 341.06,-38.31"/>
</g>
<!-- node14 -->
<g id="node10" class="node">
<title>node14</title>
<polygon fill="orange" stroke="black" points="303.42,-83.54 303.42,-98.46 267.98,-109 217.86,-109 182.42,-98.46 182.42,-83.54 217.86,-73 267.98,-73 303.42,-83.54"/>
<text text-anchor="middle" x="242.92" y="-87.3" font-family="Times,serif" font-size="14.00">#14 Φ int</text>
</g>
<!-- node0&#45;&gt;node14 -->
<g id="edge15" class="edge">
<title>node0:prj2&#45;&gt;node14</title>
<path fill="none" stroke="blue" d="M303.92,-529C303.92,-491.42 444.74,-520.77 468.92,-492 479.21,-479.75 479.21,-468.25 468.92,-456 439.02,-420.42 395.82,-473.58 365.92,-438 342.22,-409.8 364.19,-305.29 381.92,-273 388.17,-261.62 399.23,-266.67 404.92,-255 411.93,-240.62 409.28,-234.39 404.92,-219 394.53,-182.33 388.44,-171.29 359.92,-146 340.96,-129.19 315.88,-116.69 293.81,-107.97"/>
<polygon fill="blue" stroke="blue" points="294.83,-104.61 284.23,-104.35 292.35,-111.16 294.83,-104.61"/>
<text text-anchor="middle" x="304.18" y="-99.16" font-family="Times,serif" font-size="14.00">if #12</text>
</g>
<!-- node0&#45;&gt;node14 -->
<g id="edge16" class="edge">
<title>node0:prj1&#45;&gt;node14</title>
<path fill="none" stroke="blue" d="M382.92,-529C382.92,-480.36 457.94,-531.79 485.92,-492 519.85,-443.76 561.66,-631.5 420.92,-219 409.59,-185.8 415.4,-171.13 390.92,-146 368.98,-123.48 336.91,-110.3 308.22,-102.61"/>
<polygon fill="blue" stroke="blue" points="308.79,-99.14 298.24,-100.11 307.09,-105.93 308.79,-99.14"/>
<text text-anchor="middle" x="317.87" y="-92.61" font-family="Times,serif" font-size="14.00">if #11</text>
</g>
<!-- node7 -->
<g id="node3" class="node">
<title>node7</title>
<polygon fill="lightgrey" stroke="transparent" points="305.42,-419 216.42,-419 216.42,-365 305.42,-365 305.42,-419"/>
<polygon fill="none" stroke="black" points="216.92,-392 216.92,-419 305.92,-419 305.92,-392 216.92,-392"/>
<text text-anchor="start" x="242.92" y="-401.8" font-family="Times,serif" font-size="14.00">#7 If</text>
<polygon fill="yellow" stroke="transparent" points="216.92,-365 216.92,-392 262.92,-392 262.92,-365 216.92,-365"/>
<polygon fill="none" stroke="black" points="216.92,-365 216.92,-392 262.92,-392 262.92,-365 216.92,-365"/>
<text text-anchor="start" x="222.92" y="-374.8" font-family="Times,serif" font-size="14.00">false</text>
<polygon fill="yellow" stroke="transparent" points="262.92,-365 262.92,-392 305.92,-392 305.92,-365 262.92,-365"/>
<polygon fill="none" stroke="black" points="262.92,-365 262.92,-392 305.92,-392 305.92,-365 262.92,-365"/>
<text text-anchor="start" x="268.92" y="-374.8" font-family="Times,serif" font-size="14.00">true</text>
</g>
<!-- node6&#45;&gt;node7 -->
<g id="edge3" class="edge">
<title>node6&#45;&gt;node7</title>
<path fill="none" stroke="black" d="M169.8,-455.84C182.84,-446.85 199.22,-435.55 214.49,-425.02"/>
<polygon fill="black" stroke="black" points="216.59,-427.83 222.83,-419.27 212.61,-422.06 216.59,-427.83"/>
<text text-anchor="middle" x="212.71" y="-432.82" font-family="Times,serif" font-size="14.00">*0</text>
</g>
<!-- node11 -->
<g id="node5" class="node">
<title>node11</title>
<polygon fill="lightgrey" stroke="black" points="362.92,-255 234.92,-255 234.92,-219 362.92,-219 362.92,-255"/>
<text text-anchor="middle" x="298.92" y="-233.3" font-family="Times,serif" font-size="14.00">#11 LabelNode</text>
</g>
<!-- node7&#45;&gt;node11 -->
<g id="edge6" class="edge">
<title>node7:prj9&#45;&gt;node11</title>
<path fill="none" stroke="red" d="M284.92,-365C284.92,-330.45 290.1,-290.93 294.16,-265.28"/>
<polygon fill="red" stroke="red" points="297.65,-265.62 295.81,-255.19 290.74,-264.49 297.65,-265.62"/>
</g>
<!-- node10 -->
<g id="node8" class="node">
<title>node10</title>
<polygon fill="lightgrey" stroke="black" points="261.92,-328 133.92,-328 133.92,-292 261.92,-292 261.92,-328"/>
<text text-anchor="middle" x="197.92" y="-306.3" font-family="Times,serif" font-size="14.00">#10 LabelNode</text>
</g>
<!-- node7&#45;&gt;node10 -->
<g id="edge10" class="edge">
<title>node7:prj8&#45;&gt;node10</title>
<path fill="none" stroke="red" d="M239.92,-365C239.92,-354.2 234.62,-344.26 227.79,-335.93"/>
<polygon fill="red" stroke="red" points="230.24,-333.43 220.89,-328.46 225.1,-338.18 230.24,-333.43"/>
</g>
<!-- node5&#45;&gt;node7 -->
<g id="edge4" class="edge">
<title>node5&#45;&gt;node7</title>
<path fill="none" stroke="red" d="M324.47,-455.97C314.57,-450.97 304.44,-444.95 295.92,-438 291.9,-434.72 288.06,-430.9 284.49,-426.9"/>
<polygon fill="red" stroke="red" points="287.07,-424.53 278,-419.06 281.68,-428.99 287.07,-424.53"/>
</g>
<!-- node13 -->
<g id="node6" class="node">
<title>node13</title>
<polygon fill="lightgrey" stroke="black" points="350.92,-182 174.92,-182 174.92,-146 350.92,-146 350.92,-182"/>
<text text-anchor="middle" x="262.92" y="-160.3" font-family="Times,serif" font-size="14.00">#13 Merge : Merge20</text>
</g>
<!-- node11&#45;&gt;node13 -->
<g id="edge8" class="edge">
<title>node11&#45;&gt;node13</title>
<path fill="none" stroke="red" d="M290.2,-218.81C286,-210.53 280.87,-200.41 276.2,-191.19"/>
<polygon fill="red" stroke="red" points="279.2,-189.37 271.55,-182.03 272.95,-192.53 279.2,-189.37"/>
</g>
<!-- node13&#45;&gt;node15 -->
<g id="edge12" class="edge">
<title>node13&#45;&gt;node15</title>
<path fill="none" stroke="red" d="M285.26,-145.8C295.8,-136.24 307.28,-123.39 312.92,-109 320.05,-90.79 317.89,-83.91 312.92,-65 311.13,-58.2 308.09,-51.36 304.7,-45.1"/>
<polygon fill="red" stroke="red" points="307.68,-43.26 299.59,-36.42 301.65,-46.82 307.68,-43.26"/>
</g>
<!-- node13&#45;&gt;node14 -->
<g id="edge14" class="edge">
<title>node13&#45;&gt;node14</title>
<path fill="none" stroke="black" stroke-dasharray="1,5" d="M258.08,-145.81C255.79,-137.7 253.01,-127.84 250.46,-118.78"/>
<polygon fill="black" stroke="black" points="253.8,-117.71 247.72,-109.03 247.06,-119.6 253.8,-117.71"/>
</g>
<!-- node12 -->
<g id="node7" class="node">
<title>node12</title>
<polygon fill="lightgrey" stroke="black" points="216.42,-255 131.42,-255 131.42,-219 216.42,-219 216.42,-255"/>
<text text-anchor="middle" x="173.92" y="-233.3" font-family="Times,serif" font-size="14.00">#12 Goto</text>
</g>
<!-- node12&#45;&gt;node13 -->
<g id="edge7" class="edge">
<title>node12&#45;&gt;node13</title>
<path fill="none" stroke="red" d="M195.46,-218.81C206.94,-209.66 221.23,-198.26 233.69,-188.32"/>
<polygon fill="red" stroke="red" points="235.94,-191 241.57,-182.03 231.57,-185.53 235.94,-191"/>
</g>
<!-- node10&#45;&gt;node12 -->
<g id="edge9" class="edge">
<title>node10&#45;&gt;node12</title>
<path fill="none" stroke="red" d="M192.11,-291.81C189.37,-283.7 186.03,-273.84 182.97,-264.78"/>
<polygon fill="red" stroke="red" points="186.19,-263.38 179.68,-255.03 179.56,-265.62 186.19,-263.38"/>
</g>
<!-- node14&#45;&gt;node15 -->
<g id="edge11" class="edge">
<title>node14&#45;&gt;node15</title>
<path fill="none" stroke="black" d="M253.57,-72.81C258.81,-64.35 265.24,-53.98 271.05,-44.61"/>
<polygon fill="black" stroke="black" points="274.07,-46.37 276.37,-36.03 268.12,-42.69 274.07,-46.37"/>
<text text-anchor="middle" x="274" y="-52.19" font-family="Times,serif" font-size="14.00">*0</text>
</g>
<!-- c0 -->
<!-- c1 -->
<!-- c0&#45;&gt;c1 -->
<g id="edge17" class="edge">
<title>c0&#45;&gt;c1</title>
<path fill="none" stroke="red" d="M1167.81,-556C1179.03,-556 1237.16,-556 1262.78,-556"/>
<polygon fill="red" stroke="red" points="1262.98,-559.5 1272.98,-556 1262.98,-552.5 1262.98,-559.5"/>
<text text-anchor="middle" x="1220.42" y="-562.8" font-family="Times,serif" font-size="14.00">Control flow</text>
</g>
<!-- c2 -->
<!-- c3 -->
<!-- c2&#45;&gt;c3 -->
<g id="edge18" class="edge">
<title>c2&#45;&gt;c3</title>
<path fill="none" stroke="red" stroke-dasharray="5,2" d="M961,-556C977.97,-556 1094.12,-556 1132,-556"/>
<polygon fill="red" stroke="red" points="1132.09,-559.5 1142.09,-556 1132.09,-552.5 1132.09,-559.5"/>
<text text-anchor="middle" x="1051.42" y="-562.8" font-family="Times,serif" font-size="14.00">Control flow back edge</text>
</g>
<!-- d0 -->
<!-- d1 -->
<!-- d0&#45;&gt;d1 -->
<g id="edge19" class="edge">
<title>d0&#45;&gt;d1</title>
<path fill="none" stroke="black" d="M849.78,-556C859.32,-556 903.23,-556 924.84,-556"/>
<polygon fill="black" stroke="black" points="925.07,-559.5 935.07,-556 925.07,-552.5 925.07,-559.5"/>
<text text-anchor="middle" x="892.42" y="-562.8" font-family="Times,serif" font-size="14.00">Data flow</text>
</g>
<!-- d2 -->
<!-- d3 -->
<!-- d2&#45;&gt;d3 -->
<g id="edge20" class="edge">
<title>d2&#45;&gt;d3</title>
<path fill="none" stroke="black" stroke-dasharray="1,5" d="M723.72,-556C734.38,-556 789.38,-556 813.99,-556"/>
<polygon fill="black" stroke="black" points="814.06,-559.5 824.06,-556 814.06,-552.5 814.06,-559.5"/>
<text text-anchor="middle" x="773.92" y="-562.8" font-family="Times,serif" font-size="14.00">Declaration</text>
</g>
<!-- d4 -->
<!-- d5 -->
<!-- d4&#45;&gt;d5 -->
<g id="edge21" class="edge">
<title>d4&#45;&gt;d5</title>
<path fill="none" stroke="blue" d="M581.02,-556C593.64,-556 659.8,-556 687.6,-556"/>
<polygon fill="blue" stroke="blue" points="687.76,-559.5 697.76,-556 687.76,-552.5 687.76,-559.5"/>
<text text-anchor="middle" x="639.42" y="-562.8" font-family="Times,serif" font-size="14.00">PHI Data flow</text>
</g>
<!-- d6 -->
<!-- d7 -->
<!-- d6&#45;&gt;d7 -->
<g id="edge22" class="edge">
<title>d6&#45;&gt;d7</title>
<path fill="none" stroke="green" d="M443.92,-556C455.86,-556 518.22,-556 544.85,-556"/>
<polygon fill="green" stroke="green" points="544.87,-559.5 554.87,-556 544.87,-552.5 544.87,-559.5"/>
<text text-anchor="middle" x="499.42" y="-562.8" font-family="Times,serif" font-size="14.00">Memory flow</text>
</g>
</g>
</svg>
