<?xml version="1.0" encoding="UTF-8" standalone="no"?>
<!DOCTYPE svg PUBLIC "-//W3C//DTD SVG 1.1//EN"
 "http://www.w3.org/Graphics/SVG/1.1/DTD/svg11.dtd">
<!-- Generated by graphviz version 2.43.0 (0)
 -->
<!-- Title: debugoutput Pages: 1 -->
<svg width="1572pt" height="724pt"
 viewBox="0.00 0.00 1571.50 723.80" xmlns="http://www.w3.org/2000/svg" xmlns:xlink="http://www.w3.org/1999/xlink">
<g id="graph0" class="graph" transform="scale(1 1) rotate(0) translate(4 719.8)">
<title>debugoutput</title>
<polygon fill="white" stroke="transparent" points="-4,4 -4,-719.8 1567.5,-719.8 1567.5,4 -4,4"/>
<g id="clust1" class="cluster">
<title>cluster_000</title>
<polygon fill="none" stroke="black" points="716.5,-665.2 716.5,-707.8 1555.5,-707.8 1555.5,-665.2 716.5,-665.2"/>
<text text-anchor="middle" x="1136" y="-692.6" font-family="Times,serif" font-size="14.00">Legend</text>
</g>
<!-- node0 -->
<g id="node1" class="node">
<title>node0</title>
<polygon fill="lightgrey" stroke="black" points="706.5,-693 540.5,-693 540.5,-657 706.5,-657 706.5,-693"/>
<text text-anchor="middle" x="623.5" y="-671.3" font-family="Times,serif" font-size="14.00">#0 Method Order : 0</text>
</g>
<!-- node1 -->
<g id="node2" class="node">
<title>node1</title>
<polygon fill="lightgrey" stroke="black" points="950,-620 773,-620 773,-584 950,-584 950,-620"/>
<text text-anchor="middle" x="861.5" y="-598.3" font-family="Times,serif" font-size="14.00">#1 arg1 : int Order : 5</text>
</g>
<!-- node0&#45;&gt;node1 -->
<g id="edge2" class="edge">
<title>node0&#45;&gt;node1</title>
<path fill="none" stroke="black" d="M685.8,-657C706.47,-651.62 729.51,-645.39 750.5,-639 765.9,-634.31 782.42,-628.73 797.92,-623.37"/>
<polygon fill="black" stroke="black" points="799.12,-626.66 807.43,-620.08 796.83,-620.05 799.12,-626.66"/>
<text text-anchor="middle" x="793.07" y="-630.3" font-family="Times,serif" font-size="14.00">*0</text>
</g>
<!-- node2 -->
<g id="node3" class="node">
<title>node2</title>
<polygon fill="lightgrey" stroke="black" points="316,-620 139,-620 139,-584 316,-584 316,-620"/>
<text text-anchor="middle" x="227.5" y="-598.3" font-family="Times,serif" font-size="14.00">#2 arg2 : int Order : 4</text>
</g>
<!-- node0&#45;&gt;node2 -->
<g id="edge4" class="edge">
<title>node0&#45;&gt;node2</title>
<path fill="none" stroke="black" d="M540.24,-660.06C477.82,-649.13 392.22,-633.81 326.33,-621.8"/>
<polygon fill="black" stroke="black" points="326.81,-618.33 316.34,-619.98 325.55,-625.22 326.81,-618.33"/>
<text text-anchor="middle" x="335.69" y="-611.22" font-family="Times,serif" font-size="14.00">*0</text>
</g>
<!-- node3 -->
<g id="node4" class="node">
<title>node3</title>
<polygon fill="lightgrey" stroke="black" points="511,-620 334,-620 334,-584 511,-584 511,-620"/>
<text text-anchor="middle" x="422.5" y="-598.3" font-family="Times,serif" font-size="14.00">#3 arg3 : int Order : 3</text>
</g>
<!-- node0&#45;&gt;node3 -->
<g id="edge6" class="edge">
<title>node0&#45;&gt;node3</title>
<path fill="none" stroke="black" d="M569.5,-656.99C540.05,-646.97 503.83,-634.21 474.67,-623.62"/>
<polygon fill="black" stroke="black" points="475.67,-620.26 465.08,-620.11 473.27,-626.83 475.67,-620.26"/>
<text text-anchor="middle" x="485" y="-614.69" font-family="Times,serif" font-size="14.00">*0</text>
</g>
<!-- node4 -->
<g id="node5" class="node">
<title>node4</title>
<polygon fill="lightgrey" stroke="black" points="1145,-620 968,-620 968,-584 1145,-584 1145,-620"/>
<text text-anchor="middle" x="1056.5" y="-598.3" font-family="Times,serif" font-size="14.00">#4 arg0 : int Order : 2</text>
</g>
<!-- node0&#45;&gt;node4 -->
<g id="edge8" class="edge">
<title>node0&#45;&gt;node4</title>
<path fill="none" stroke="black" d="M703.82,-656.95C812.98,-638.36 841.04,-637.79 950.5,-620 952.97,-619.6 955.48,-619.19 958.01,-618.77"/>
<polygon fill="black" stroke="black" points="958.59,-622.22 967.88,-617.12 957.44,-615.31 958.59,-622.22"/>
<text text-anchor="middle" x="951.39" y="-624.74" font-family="Times,serif" font-size="14.00">*0</text>
</g>
<!-- node6 -->
<g id="node7" class="node">
<title>node6</title>
<polygon fill="lightgrey" stroke="black" points="717.5,-620 529.5,-620 529.5,-584 717.5,-584 717.5,-620"/>
<text text-anchor="middle" x="623.5" y="-598.3" font-family="Times,serif" font-size="14.00">#6 LabelNode Order : 1</text>
</g>
<!-- node0&#45;&gt;node6 -->
<g id="edge13" class="edge">
<title>node0&#45;&gt;node6</title>
<path fill="none" stroke="red" d="M617.62,-656.81C616.78,-648.79 616.55,-639.05 616.92,-630.07"/>
<polygon fill="red" stroke="red" points="620.42,-630.25 617.64,-620.03 613.44,-629.75 620.42,-630.25"/>
</g>
<!-- node15 -->
<g id="node16" class="node">
<title>node15</title>
<polygon fill="lightgrey" stroke="black" points="251,-36 0,-36 0,0 251,0 251,-36"/>
<text text-anchor="middle" x="125.5" y="-14.3" font-family="Times,serif" font-size="14.00">#15 ReturnValue : int Order : 15</text>
</g>
<!-- node0&#45;&gt;node15 -->
<g id="edge37" class="edge">
<title>node0&#45;&gt;node15</title>
<path fill="none" stroke="black" d="M540.39,-671.27C391.16,-665.13 93.5,-647.16 93.5,-603 93.5,-603 93.5,-603 93.5,-90 93.5,-74.57 98.48,-58.13 104.71,-44.96"/>
<polygon fill="black" stroke="black" points="107.86,-46.49 109.41,-36.01 101.66,-43.23 107.86,-46.49"/>
</g>
<!-- node1&#45;&gt;node0 -->
<g id="edge1" class="edge">
<title>node1&#45;&gt;node0</title>
<path fill="none" stroke="green" stroke-width="2" d="M823.99,-620.17C807.13,-626.44 787,-633.37 768.5,-639 750.71,-644.42 731.44,-649.72 712.92,-654.48"/>
<polygon fill="green" stroke="green" stroke-width="2" points="711.85,-651.14 703.02,-657 713.58,-657.93 711.85,-651.14"/>
</g>
<!-- node5 -->
<g id="node6" class="node">
<title>node5</title>
<polygon fill="orange" stroke="black" points="1171.92,-521.54 1171.92,-536.46 1058.62,-547 898.38,-547 785.08,-536.46 785.08,-521.54 898.38,-511 1058.62,-511 1171.92,-521.54"/>
<text text-anchor="middle" x="978.5" y="-525.3" font-family="Times,serif" font-size="14.00">#5 NumericCondition : LE Order : 6</text>
</g>
<!-- node1&#45;&gt;node5 -->
<g id="edge10" class="edge">
<title>node1&#45;&gt;node5</title>
<path fill="none" stroke="black" d="M889.52,-583.99C905.04,-574.58 924.52,-562.76 941.3,-552.57"/>
<polygon fill="black" stroke="black" points="943.57,-555.29 950.3,-547.11 939.93,-549.31 943.57,-555.29"/>
<text text-anchor="middle" x="939.19" y="-560.04" font-family="Times,serif" font-size="14.00">*0</text>
</g>
<!-- node2&#45;&gt;node0 -->
<g id="edge3" class="edge">
<title>node2&#45;&gt;node0</title>
<path fill="none" stroke="green" stroke-width="2" d="M316.28,-617.91C379.95,-629.08 465.5,-644.4 530.18,-656.2"/>
<polygon fill="green" stroke="green" stroke-width="2" points="529.9,-659.71 540.37,-658.07 531.16,-652.82 529.9,-659.71"/>
</g>
<!-- node14 -->
<g id="node15" class="node">
<title>node14</title>
<polygon fill="orange" stroke="black" points="561.75,-83.54 561.75,-98.46 494.24,-109 398.76,-109 331.25,-98.46 331.25,-83.54 398.76,-73 494.24,-73 561.75,-83.54"/>
<text text-anchor="middle" x="446.5" y="-87.3" font-family="Times,serif" font-size="14.00">#14 Φ int Order : 14</text>
</g>
<!-- node2&#45;&gt;node14 -->
<g id="edge32" class="edge">
<title>node2&#45;&gt;node14</title>
<path fill="none" stroke="blue" d="M285.8,-583.98C363.09,-558.11 497.31,-501.02 562.5,-401 589.04,-360.28 598.7,-332.29 571.5,-292 498.3,-183.59 371.7,-290.41 298.5,-182 289.55,-168.74 289.33,-159.11 298.5,-146 311.68,-127.16 332.16,-114.87 353.73,-106.86"/>
<polygon fill="blue" stroke="blue" points="355.02,-110.12 363.36,-103.58 352.76,-103.49 355.02,-110.12"/>
<text text-anchor="middle" x="348.93" y="-113.73" font-family="Times,serif" font-size="14.00">if #12</text>
</g>
<!-- node3&#45;&gt;node0 -->
<g id="edge5" class="edge">
<title>node3&#45;&gt;node0</title>
<path fill="none" stroke="green" stroke-width="2" d="M476.82,-620.11C506.31,-630.16 542.53,-642.92 571.64,-653.5"/>
<polygon fill="green" stroke="green" stroke-width="2" points="570.62,-656.85 581.21,-656.99 573.02,-650.28 570.62,-656.85"/>
</g>
<!-- node3&#45;&gt;node14 -->
<g id="edge33" class="edge">
<title>node3&#45;&gt;node14</title>
<path fill="none" stroke="blue" d="M454.62,-583.99C502.2,-556.72 589.55,-498.25 624.5,-420 642.76,-379.12 638.59,-253.87 610.5,-219 591.62,-195.56 575.11,-205.4 545.5,-200 519.74,-195.3 328.3,-201.21 310.5,-182 299.63,-170.26 299.3,-157.42 310.5,-146 346.92,-108.87 1282.46,-164.57 1246.5,-127 1223.61,-103.09 791.9,-95.38 572.4,-93.01"/>
<polygon fill="blue" stroke="blue" points="572.15,-89.5 562.11,-92.9 572.07,-96.5 572.15,-89.5"/>
<text text-anchor="middle" x="580.33" y="-80.94" font-family="Times,serif" font-size="14.00">if #9</text>
</g>
<!-- node4&#45;&gt;node0 -->
<g id="edge7" class="edge">
<title>node4&#45;&gt;node0</title>
<path fill="none" stroke="green" stroke-width="2" d="M968.18,-620.05C858.88,-637.81 830.82,-638.38 721.5,-657 720,-657.26 718.48,-657.52 716.95,-657.78"/>
<polygon fill="green" stroke="green" stroke-width="2" points="715.98,-654.4 706.74,-659.59 717.2,-661.29 715.98,-654.4"/>
</g>
<!-- node4&#45;&gt;node5 -->
<g id="edge11" class="edge">
<title>node4&#45;&gt;node5</title>
<path fill="none" stroke="black" d="M1037.62,-583.81C1027.75,-574.83 1015.52,-563.69 1004.74,-553.89"/>
<polygon fill="black" stroke="black" points="1006.96,-551.17 997.21,-547.03 1002.25,-556.35 1006.96,-551.17"/>
<text text-anchor="middle" x="1016.3" y="-549.28" font-family="Times,serif" font-size="14.00">*1</text>
</g>
<!-- node5&#45;&gt;node0 -->
<g id="edge9" class="edge">
<title>node5&#45;&gt;node0</title>
<path fill="none" stroke="green" stroke-width="2" d="M1070.22,-545.94C1128.71,-559.95 1187.78,-583.82 1154.5,-620 1122.77,-654.5 795.69,-650.79 716.93,-656.8"/>
<polygon fill="green" stroke="green" stroke-width="2" points="716.44,-653.33 706.83,-657.81 717.13,-660.3 716.44,-653.33"/>
</g>
<!-- node7 -->
<g id="node8" class="node">
<title>node7</title>
<polygon fill="lightgrey" stroke="black" points="793.5,-474 671.5,-474 671.5,-438 793.5,-438 793.5,-474"/>
<text text-anchor="middle" x="732.5" y="-452.3" font-family="Times,serif" font-size="14.00">#7 If Order : 7</text>
</g>
<!-- node5&#45;&gt;node7 -->
<g id="edge15" class="edge">
<title>node5&#45;&gt;node7</title>
<path fill="none" stroke="black" d="M919.58,-510.99C884.09,-500.75 838.72,-487.66 801.55,-476.93"/>
<polygon fill="black" stroke="black" points="802.37,-473.52 791.79,-474.11 800.43,-480.25 802.37,-473.52"/>
<text text-anchor="middle" x="811.55" y="-467.32" font-family="Times,serif" font-size="14.00">*0</text>
</g>
<!-- node6&#45;&gt;node0 -->
<g id="edge12" class="edge">
<title>node6&#45;&gt;node0</title>
<path fill="none" stroke="green" stroke-width="2" d="M629.36,-620.03C630.21,-628.03 630.45,-637.77 630.09,-646.75"/>
<polygon fill="green" stroke="green" stroke-width="2" points="626.59,-646.59 629.38,-656.81 633.57,-647.08 626.59,-646.59"/>
</g>
<!-- node6&#45;&gt;node7 -->
<g id="edge16" class="edge">
<title>node6&#45;&gt;node7</title>
<path fill="none" stroke="red" d="M636.43,-583.92C655.53,-558.69 691.38,-511.33 713.47,-482.14"/>
<polygon fill="red" stroke="red" points="716.34,-484.15 719.59,-474.06 710.76,-479.92 716.34,-484.15"/>
</g>
<!-- node7&#45;&gt;node0 -->
<g id="edge14" class="edge">
<title>node7&#45;&gt;node0</title>
<path fill="none" stroke="green" stroke-width="2" d="M737.06,-474.09C744.43,-505.67 755.41,-574.12 726.5,-620 717.72,-633.93 704.08,-644.47 689.56,-652.36"/>
<polygon fill="green" stroke="green" stroke-width="2" points="687.81,-649.32 680.45,-656.94 690.95,-655.58 687.81,-649.32"/>
</g>
<!-- node8 -->
<g id="node9" class="node">
<title>node8</title>
<polygon fill="lightgrey" stroke="black" points="553.5,-401 403.5,-401 403.5,-365 553.5,-365 553.5,-401"/>
<text text-anchor="middle" x="478.5" y="-379.3" font-family="Times,serif" font-size="14.00">#8 true Order : 11</text>
</g>
<!-- node7&#45;&gt;node8 -->
<g id="edge18" class="edge">
<title>node7&#45;&gt;node8</title>
<path fill="none" stroke="red" d="M671.38,-439.51C632.73,-429.05 582.87,-415.15 543.49,-403.88"/>
<polygon fill="red" stroke="red" points="544.3,-400.47 533.72,-401.08 542.37,-407.2 544.3,-400.47"/>
</g>
<!-- node10 -->
<g id="node11" class="node">
<title>node10</title>
<polygon fill="lightgrey" stroke="black" points="828.5,-401 674.5,-401 674.5,-365 828.5,-365 828.5,-401"/>
<text text-anchor="middle" x="751.5" y="-379.3" font-family="Times,serif" font-size="14.00">#10 false Order : 8</text>
</g>
<!-- node7&#45;&gt;node10 -->
<g id="edge22" class="edge">
<title>node7&#45;&gt;node10</title>
<path fill="none" stroke="red" d="M731.22,-437.81C732.54,-429.7 734.95,-419.84 737.77,-410.78"/>
<polygon fill="red" stroke="red" points="741.18,-411.62 741.08,-401.03 734.55,-409.37 741.18,-411.62"/>
</g>
<!-- node8&#45;&gt;node7 -->
<g id="edge17" class="edge">
<title>node8&#45;&gt;node7</title>
<path fill="none" stroke="green" stroke-width="2" d="M545.59,-401.11C583.39,-411.38 630.32,-424.47 667.73,-435.18"/>
<polygon fill="green" stroke="green" stroke-width="2" points="666.94,-438.6 677.52,-437.99 668.87,-431.87 666.94,-438.6"/>
</g>
<!-- node9 -->
<g id="node10" class="node">
<title>node9</title>
<polygon fill="lightgrey" stroke="black" points="563,-328 366,-328 366,-292 563,-292 563,-328"/>
<text text-anchor="middle" x="464.5" y="-306.3" font-family="Times,serif" font-size="14.00">#9 LabelNode Order : 12</text>
</g>
<!-- node8&#45;&gt;node9 -->
<g id="edge20" class="edge">
<title>node8&#45;&gt;node9</title>
<path fill="none" stroke="red" d="M469.23,-364.81C466.81,-356.79 464.66,-347.05 463.26,-338.07"/>
<polygon fill="red" stroke="red" points="466.72,-337.51 462,-328.03 459.77,-338.39 466.72,-337.51"/>
</g>
<!-- node9&#45;&gt;node8 -->
<g id="edge19" class="edge">
<title>node9&#45;&gt;node8</title>
<path fill="none" stroke="green" stroke-width="2" d="M473.72,-328.03C476.14,-336.03 478.31,-345.77 479.71,-354.75"/>
<polygon fill="green" stroke="green" stroke-width="2" points="476.26,-355.33 480.99,-364.81 483.2,-354.45 476.26,-355.33"/>
</g>
<!-- node13 -->
<g id="node14" class="node">
<title>node13</title>
<polygon fill="lightgrey" stroke="black" points="573.5,-182 319.5,-182 319.5,-146 573.5,-146 573.5,-182"/>
<text text-anchor="middle" x="446.5" y="-160.3" font-family="Times,serif" font-size="14.00">#13 Merge : Merge20 Order : 13</text>
</g>
<!-- node9&#45;&gt;node13 -->
<g id="edge29" class="edge">
<title>node9&#45;&gt;node13</title>
<path fill="none" stroke="red" d="M462.36,-291.92C459.28,-267.23 453.54,-221.35 449.88,-192.04"/>
<polygon fill="red" stroke="red" points="453.35,-191.55 448.63,-182.06 446.4,-192.42 453.35,-191.55"/>
</g>
<!-- node10&#45;&gt;node7 -->
<g id="edge21" class="edge">
<title>node10&#45;&gt;node7</title>
<path fill="none" stroke="green" stroke-width="2" d="M752.8,-401.03C751.48,-409.2 749.04,-419.19 746.2,-428.34"/>
<polygon fill="green" stroke="green" stroke-width="2" points="742.88,-427.22 742.98,-437.81 749.51,-429.47 742.88,-427.22"/>
</g>
<!-- node11 -->
<g id="node12" class="node">
<title>node11</title>
<polygon fill="lightgrey" stroke="black" points="855,-328 658,-328 658,-292 855,-292 855,-328"/>
<text text-anchor="middle" x="756.5" y="-306.3" font-family="Times,serif" font-size="14.00">#11 LabelNode Order : 9</text>
</g>
<!-- node10&#45;&gt;node11 -->
<g id="edge24" class="edge">
<title>node10&#45;&gt;node11</title>
<path fill="none" stroke="red" d="M746.83,-364.81C746.56,-356.79 747.01,-347.05 748.02,-338.07"/>
<polygon fill="red" stroke="red" points="751.5,-338.42 749.44,-328.03 744.57,-337.44 751.5,-338.42"/>
</g>
<!-- node11&#45;&gt;node10 -->
<g id="edge23" class="edge">
<title>node11&#45;&gt;node10</title>
<path fill="none" stroke="green" stroke-width="2" d="M761.16,-328.03C761.45,-336.03 761,-345.77 760,-354.75"/>
<polygon fill="green" stroke="green" stroke-width="2" points="756.52,-354.42 758.59,-364.81 763.45,-355.4 756.52,-354.42"/>
</g>
<!-- node12 -->
<g id="node13" class="node">
<title>node12</title>
<polygon fill="lightgrey" stroke="black" points="838,-255 675,-255 675,-219 838,-219 838,-255"/>
<text text-anchor="middle" x="756.5" y="-233.3" font-family="Times,serif" font-size="14.00">#12 Goto Order : 10</text>
</g>
<!-- node11&#45;&gt;node12 -->
<g id="edge26" class="edge">
<title>node11&#45;&gt;node12</title>
<path fill="none" stroke="red" d="M750.62,-291.81C749.78,-283.79 749.55,-274.05 749.92,-265.07"/>
<polygon fill="red" stroke="red" points="753.42,-265.25 750.64,-255.03 746.44,-264.75 753.42,-265.25"/>
</g>
<!-- node12&#45;&gt;node11 -->
<g id="edge25" class="edge">
<title>node12&#45;&gt;node11</title>
<path fill="none" stroke="green" stroke-width="2" d="M762.36,-255.03C763.21,-263.03 763.45,-272.77 763.09,-281.75"/>
<polygon fill="green" stroke="green" stroke-width="2" points="759.59,-281.59 762.38,-291.81 766.57,-282.08 759.59,-281.59"/>
</g>
<!-- node12&#45;&gt;node13 -->
<g id="edge28" class="edge">
<title>node12&#45;&gt;node13</title>
<path fill="none" stroke="red" d="M711.58,-219C692.89,-212.38 670.84,-205.17 650.5,-200 626.21,-193.83 600.01,-188.43 574.75,-183.83"/>
<polygon fill="red" stroke="red" points="575.21,-180.35 564.75,-182.04 573.98,-187.24 575.21,-180.35"/>
</g>
<!-- node13&#45;&gt;node7 -->
<g id="edge27" class="edge">
<title>node13&#45;&gt;node7</title>
<path fill="none" stroke="green" stroke-width="2" d="M384.04,-182.11C359.69,-192.92 337.5,-209.92 337.5,-236 337.5,-384 337.5,-384 337.5,-384 337.5,-416.51 547.4,-439.35 661.18,-449.34"/>
<polygon fill="green" stroke="green" stroke-width="2" points="660.95,-452.84 671.21,-450.21 661.55,-445.86 660.95,-452.84"/>
</g>
<!-- node13&#45;&gt;node14 -->
<g id="edge31" class="edge">
<title>node13&#45;&gt;node14</title>
<path fill="none" stroke="black" stroke-dasharray="1,5" d="M446.5,-145.81C446.5,-137.79 446.5,-128.05 446.5,-119.07"/>
<polygon fill="black" stroke="black" points="450,-119.03 446.5,-109.03 443,-119.03 450,-119.03"/>
</g>
<!-- node13&#45;&gt;node15 -->
<g id="edge36" class="edge">
<title>node13&#45;&gt;node15</title>
<path fill="none" stroke="red" d="M406.77,-145.91C382.4,-135.38 350.59,-121.53 322.5,-109 270.68,-85.88 211.5,-58.75 171.65,-40.36"/>
<polygon fill="red" stroke="red" points="172.99,-37.13 162.45,-36.12 170.06,-43.49 172.99,-37.13"/>
</g>
<!-- node14&#45;&gt;node0 -->
<g id="edge30" class="edge">
<title>node14&#45;&gt;node0</title>
<path fill="none" stroke="green" stroke-width="2" d="M562.12,-91.11C775.7,-91 1210.5,-98.68 1210.5,-163 1210.5,-603 1210.5,-603 1210.5,-603 1210.5,-656.21 805.83,-651.08 717,-656.84"/>
<polygon fill="green" stroke="green" stroke-width="2" points="716.49,-653.37 706.82,-657.71 717.08,-660.35 716.49,-653.37"/>
</g>
<!-- node14&#45;&gt;node15 -->
<g id="edge35" class="edge">
<title>node14&#45;&gt;node15</title>
<path fill="none" stroke="black" d="M381.54,-75.63C332.82,-64.86 265.63,-49.99 212.31,-38.2"/>
<polygon fill="black" stroke="black" points="213.04,-34.78 202.52,-36.04 211.53,-41.61 213.04,-34.78"/>
<text text-anchor="middle" x="222.04" y="-28" font-family="Times,serif" font-size="14.00">*0</text>
</g>
<!-- node15&#45;&gt;node0 -->
<g id="edge34" class="edge">
<title>node15&#45;&gt;node0</title>
<path fill="none" stroke="green" stroke-width="2" d="M123.93,-36.01C119.19,-50.09 111.5,-70.82 111.5,-90 111.5,-603 111.5,-603 111.5,-603 111.5,-645.12 382.32,-663.41 530.08,-670.34"/>
<polygon fill="green" stroke="green" stroke-width="2" points="530.35,-673.86 540.5,-670.82 530.67,-666.86 530.35,-673.86"/>
</g>
<!-- c0 -->
<!-- c1 -->
<!-- c0&#45;&gt;c1 -->
<g id="edge38" class="edge">
<title>c0&#45;&gt;c1</title>
<path fill="none" stroke="red" d="M1438.39,-675C1449.61,-675 1507.74,-675 1533.36,-675"/>
<polygon fill="red" stroke="red" points="1533.56,-678.5 1543.56,-675 1533.56,-671.5 1533.56,-678.5"/>
<text text-anchor="middle" x="1491" y="-681.8" font-family="Times,serif" font-size="14.00">Control flow</text>
</g>
<!-- c2 -->
<!-- c3 -->
<!-- c2&#45;&gt;c3 -->
<g id="edge39" class="edge">
<title>c2&#45;&gt;c3</title>
<path fill="none" stroke="red" stroke-dasharray="5,2" d="M1231.58,-675C1248.55,-675 1364.71,-675 1402.58,-675"/>
<polygon fill="red" stroke="red" points="1402.67,-678.5 1412.67,-675 1402.67,-671.5 1402.67,-678.5"/>
<text text-anchor="middle" x="1322" y="-681.8" font-family="Times,serif" font-size="14.00">Control flow back edge</text>
</g>
<!-- d0 -->
<!-- d1 -->
<!-- d0&#45;&gt;d1 -->
<g id="edge40" class="edge">
<title>d0&#45;&gt;d1</title>
<path fill="none" stroke="black" d="M1120.36,-675C1129.91,-675 1173.81,-675 1195.42,-675"/>
<polygon fill="black" stroke="black" points="1195.65,-678.5 1205.65,-675 1195.65,-671.5 1195.65,-678.5"/>
<text text-anchor="middle" x="1163" y="-681.8" font-family="Times,serif" font-size="14.00">Data flow</text>
</g>
<!-- d2 -->
<!-- d3 -->
<!-- d2&#45;&gt;d3 -->
<g id="edge41" class="edge">
<title>d2&#45;&gt;d3</title>
<path fill="none" stroke="black" stroke-dasharray="1,5" d="M994.31,-675C1004.96,-675 1059.96,-675 1084.58,-675"/>
<polygon fill="black" stroke="black" points="1084.65,-678.5 1094.65,-675 1084.65,-671.5 1084.65,-678.5"/>
<text text-anchor="middle" x="1044.5" y="-681.8" font-family="Times,serif" font-size="14.00">Declaration</text>
</g>
<!-- d4 -->
<!-- d5 -->
<!-- d4&#45;&gt;d5 -->
<g id="edge42" class="edge">
<title>d4&#45;&gt;d5</title>
<path fill="none" stroke="blue" d="M851.6,-675C864.22,-675 930.38,-675 958.18,-675"/>
<polygon fill="blue" stroke="blue" points="958.34,-678.5 968.34,-675 958.34,-671.5 958.34,-678.5"/>
<text text-anchor="middle" x="910" y="-681.8" font-family="Times,serif" font-size="14.00">PHI Data flow</text>
</g>
<!-- d6 -->
<!-- d7 -->
<!-- d6&#45;&gt;d7 -->
<g id="edge43" class="edge">
<title>d6&#45;&gt;d7</title>
<path fill="none" stroke="green" d="M728.61,-675C739.65,-675 791.17,-675 815.16,-675"/>
<polygon fill="green" stroke="green" points="815.4,-678.5 825.4,-675 815.4,-671.5 815.4,-678.5"/>
<text text-anchor="middle" x="777" y="-681.8" font-family="Times,serif" font-size="14.00">Dominance</text>
</g>
</g>
</svg>
