<?xml version="1.0" encoding="UTF-8" standalone="no"?>
<!DOCTYPE svg PUBLIC "-//W3C//DTD SVG 1.1//EN"
 "http://www.w3.org/Graphics/SVG/1.1/DTD/svg11.dtd">
<!-- Generated by graphviz version 2.43.0 (0)
 -->
<!-- Title: debugoutput Pages: 1 -->
<svg width="1506pt" height="724pt"
 viewBox="0.00 0.00 1506.00 723.80" xmlns="http://www.w3.org/2000/svg" xmlns:xlink="http://www.w3.org/1999/xlink">
<g id="graph0" class="graph" transform="scale(1 1) rotate(0) translate(4 719.8)">
<title>debugoutput</title>
<polygon fill="white" stroke="transparent" points="-4,4 -4,-719.8 1502,-719.8 1502,4 -4,4"/>
<g id="clust1" class="cluster">
<title>cluster_000</title>
<polygon fill="none" stroke="black" points="651,-665.2 651,-707.8 1490,-707.8 1490,-665.2 651,-665.2"/>
<text text-anchor="middle" x="1070.5" y="-692.6" font-family="Times,serif" font-size="14.00">Legend</text>
</g>
<!-- node0 -->
<g id="node1" class="node">
<title>node0</title>
<polygon fill="lightgrey" stroke="black" points="641,-693 475,-693 475,-657 641,-657 641,-693"/>
<text text-anchor="middle" x="558" y="-671.3" font-family="Times,serif" font-size="14.00">#0 Method Order : 0</text>
</g>
<!-- node1 -->
<g id="node2" class="node">
<title>node1</title>
<polygon fill="lightgrey" stroke="black" points="186,-620 0,-620 0,-584 186,-584 186,-620"/>
<text text-anchor="middle" x="93" y="-598.3" font-family="Times,serif" font-size="14.00">#1 arg3 : int Order : 13</text>
</g>
<!-- node0&#45;&gt;node1 -->
<g id="edge2" class="edge">
<title>node0&#45;&gt;node1</title>
<path fill="none" stroke="black" d="M474.89,-663.06C401.83,-652.77 292.52,-636.72 195.67,-621.52"/>
<polygon fill="black" stroke="black" points="196.16,-618.05 185.73,-619.96 195.07,-624.97 196.16,-618.05"/>
<text text-anchor="middle" x="204.95" y="-610.72" font-family="Times,serif" font-size="14.00">*0</text>
</g>
<!-- node2 -->
<g id="node3" class="node">
<title>node2</title>
<polygon fill="lightgrey" stroke="black" points="390,-620 204,-620 204,-584 390,-584 390,-620"/>
<text text-anchor="middle" x="297" y="-598.3" font-family="Times,serif" font-size="14.00">#2 arg2 : int Order : 12</text>
</g>
<!-- node0&#45;&gt;node2 -->
<g id="edge4" class="edge">
<title>node0&#45;&gt;node2</title>
<path fill="none" stroke="black" d="M474.69,-658.6C448.91,-652.96 420.6,-646.2 395,-639 378.67,-634.41 361.16,-628.81 345.47,-623.41"/>
<polygon fill="black" stroke="black" points="346.56,-620.08 335.96,-620.08 344.24,-626.69 346.56,-620.08"/>
<text text-anchor="middle" x="355.86" y="-614.39" font-family="Times,serif" font-size="14.00">*0</text>
</g>
<!-- node3 -->
<g id="node4" class="node">
<title>node3</title>
<polygon fill="lightgrey" stroke="black" points="884.5,-620 707.5,-620 707.5,-584 884.5,-584 884.5,-620"/>
<text text-anchor="middle" x="796" y="-598.3" font-family="Times,serif" font-size="14.00">#3 arg1 : int Order : 3</text>
</g>
<!-- node0&#45;&gt;node3 -->
<g id="edge6" class="edge">
<title>node0&#45;&gt;node3</title>
<path fill="none" stroke="black" d="M620.3,-657C640.97,-651.62 664.01,-645.39 685,-639 700.4,-634.31 716.92,-628.73 732.42,-623.37"/>
<polygon fill="black" stroke="black" points="733.62,-626.66 741.93,-620.08 731.33,-620.05 733.62,-626.66"/>
<text text-anchor="middle" x="727.57" y="-630.3" font-family="Times,serif" font-size="14.00">*0</text>
</g>
<!-- node4 -->
<g id="node5" class="node">
<title>node4</title>
<polygon fill="lightgrey" stroke="black" points="1079.5,-620 902.5,-620 902.5,-584 1079.5,-584 1079.5,-620"/>
<text text-anchor="middle" x="991" y="-598.3" font-family="Times,serif" font-size="14.00">#4 arg0 : int Order : 2</text>
</g>
<!-- node0&#45;&gt;node4 -->
<g id="edge8" class="edge">
<title>node0&#45;&gt;node4</title>
<path fill="none" stroke="black" d="M638.32,-656.95C747.48,-638.36 775.54,-637.79 885,-620 887.47,-619.6 889.98,-619.19 892.51,-618.77"/>
<polygon fill="black" stroke="black" points="893.09,-622.22 902.38,-617.12 891.94,-615.31 893.09,-622.22"/>
<text text-anchor="middle" x="885.89" y="-624.74" font-family="Times,serif" font-size="14.00">*0</text>
</g>
<!-- node5 -->
<g id="node6" class="node">
<title>node5</title>
<polygon fill="lightgrey" stroke="black" points="652,-620 464,-620 464,-584 652,-584 652,-620"/>
<text text-anchor="middle" x="558" y="-598.3" font-family="Times,serif" font-size="14.00">#5 LabelNode Order : 1</text>
</g>
<!-- node0&#45;&gt;node5 -->
<g id="edge10" class="edge">
<title>node0&#45;&gt;node5</title>
<path fill="none" stroke="red" d="M552.12,-656.81C551.28,-648.79 551.05,-639.05 551.42,-630.07"/>
<polygon fill="red" stroke="red" points="554.92,-630.25 552.14,-620.03 547.94,-629.75 554.92,-630.25"/>
</g>
<!-- node15 -->
<g id="node16" class="node">
<title>node15</title>
<polygon fill="lightgrey" stroke="black" points="575.5,-36 324.5,-36 324.5,0 575.5,0 575.5,-36"/>
<text text-anchor="middle" x="450" y="-14.3" font-family="Times,serif" font-size="14.00">#15 ReturnValue : int Order : 15</text>
</g>
<!-- node0&#45;&gt;node15 -->
<g id="edge37" class="edge">
<title>node0&#45;&gt;node15</title>
<path fill="none" stroke="black" d="M474.76,-660.32C444.67,-650.25 418,-632.88 418,-603 418,-603 418,-603 418,-90 418,-74.57 422.98,-58.13 429.21,-44.96"/>
<polygon fill="black" stroke="black" points="432.36,-46.49 433.91,-36.01 426.16,-43.23 432.36,-46.49"/>
</g>
<!-- node1&#45;&gt;node0 -->
<g id="edge1" class="edge">
<title>node1&#45;&gt;node0</title>
<path fill="none" stroke="green" stroke-width="2" d="M186.01,-617.12C192.11,-618.11 198.15,-619.08 204,-620 292.48,-633.95 393.25,-648.87 464.64,-659.48"/>
<polygon fill="green" stroke="green" stroke-width="2" points="464.55,-663 474.96,-661.01 465.58,-656.08 464.55,-663"/>
</g>
<!-- node14 -->
<g id="node15" class="node">
<title>node14</title>
<polygon fill="lightgreen" stroke="black" points="741.25,-83.54 741.25,-98.46 673.74,-109 578.26,-109 510.75,-98.46 510.75,-83.54 578.26,-73 673.74,-73 741.25,-83.54"/>
<text text-anchor="middle" x="626" y="-87.3" font-family="Times,serif" font-size="14.00">#14 Φ int Order : 14</text>
</g>
<!-- node1&#45;&gt;node14 -->
<g id="edge33" class="edge">
<title>node1&#45;&gt;node14</title>
<path fill="none" stroke="blue" d="M103.4,-583.92C138.33,-527.41 256.58,-343.06 386,-219 426.77,-179.92 440.31,-172.83 490,-146 514.18,-132.95 542.2,-121.29 566.5,-112.17"/>
<polygon fill="blue" stroke="blue" points="567.79,-115.43 575.96,-108.68 565.37,-108.86 567.79,-115.43"/>
<text text-anchor="middle" x="561.88" y="-119.19" font-family="Times,serif" font-size="14.00">if #11</text>
</g>
<!-- node2&#45;&gt;node0 -->
<g id="edge3" class="edge">
<title>node2&#45;&gt;node0</title>
<path fill="none" stroke="green" stroke-width="2" d="M352.74,-620.08C371.83,-626.44 393.28,-633.46 413,-639 432.96,-644.61 454.57,-649.96 474.87,-654.71"/>
<polygon fill="green" stroke="green" stroke-width="2" points="474.19,-658.15 484.73,-657 475.77,-651.33 474.19,-658.15"/>
</g>
<!-- node2&#45;&gt;node14 -->
<g id="edge32" class="edge">
<title>node2&#45;&gt;node14</title>
<path fill="none" stroke="blue" d="M301.18,-583.81C318.35,-513.63 383.42,-251.11 404,-219 439.46,-163.69 508.09,-129.89 559.7,-111.21"/>
<polygon fill="blue" stroke="blue" points="561.18,-114.4 569.46,-107.79 558.86,-107.8 561.18,-114.4"/>
<text text-anchor="middle" x="555.15" y="-118.07" font-family="Times,serif" font-size="14.00">if #12</text>
</g>
<!-- node3&#45;&gt;node0 -->
<g id="edge5" class="edge">
<title>node3&#45;&gt;node0</title>
<path fill="none" stroke="green" stroke-width="2" d="M758.49,-620.17C741.63,-626.44 721.5,-633.37 703,-639 685.21,-644.42 665.94,-649.72 647.42,-654.48"/>
<polygon fill="green" stroke="green" stroke-width="2" points="646.35,-651.14 637.52,-657 648.08,-657.93 646.35,-651.14"/>
</g>
<!-- node6 -->
<g id="node7" class="node">
<title>node6</title>
<polygon fill="orange" stroke="black" points="1106.42,-521.54 1106.42,-536.46 993.12,-547 832.88,-547 719.58,-536.46 719.58,-521.54 832.88,-511 993.12,-511 1106.42,-521.54"/>
<text text-anchor="middle" x="913" y="-525.3" font-family="Times,serif" font-size="14.00">#6 NumericCondition : LE Order : 4</text>
</g>
<!-- node3&#45;&gt;node6 -->
<g id="edge12" class="edge">
<title>node3&#45;&gt;node6</title>
<path fill="none" stroke="black" d="M824.02,-583.99C839.54,-574.58 859.02,-562.76 875.8,-552.57"/>
<polygon fill="black" stroke="black" points="878.07,-555.29 884.8,-547.11 874.43,-549.31 878.07,-555.29"/>
<text text-anchor="middle" x="873.69" y="-560.04" font-family="Times,serif" font-size="14.00">*0</text>
</g>
<!-- node4&#45;&gt;node0 -->
<g id="edge7" class="edge">
<title>node4&#45;&gt;node0</title>
<path fill="none" stroke="green" stroke-width="2" d="M902.68,-620.05C793.38,-637.81 765.32,-638.38 656,-657 654.5,-657.26 652.98,-657.52 651.45,-657.78"/>
<polygon fill="green" stroke="green" stroke-width="2" points="650.48,-654.4 641.24,-659.59 651.7,-661.29 650.48,-654.4"/>
</g>
<!-- node4&#45;&gt;node6 -->
<g id="edge13" class="edge">
<title>node4&#45;&gt;node6</title>
<path fill="none" stroke="black" d="M972.12,-583.81C962.25,-574.83 950.02,-563.69 939.24,-553.89"/>
<polygon fill="black" stroke="black" points="941.46,-551.17 931.71,-547.03 936.75,-556.35 941.46,-551.17"/>
<text text-anchor="middle" x="950.8" y="-549.28" font-family="Times,serif" font-size="14.00">*1</text>
</g>
<!-- node5&#45;&gt;node0 -->
<g id="edge9" class="edge">
<title>node5&#45;&gt;node0</title>
<path fill="none" stroke="green" stroke-width="2" d="M563.86,-620.03C564.71,-628.03 564.95,-637.77 564.59,-646.75"/>
<polygon fill="green" stroke="green" stroke-width="2" points="561.09,-646.59 563.88,-656.81 568.07,-647.08 561.09,-646.59"/>
</g>
<!-- node7 -->
<g id="node8" class="node">
<title>node7</title>
<polygon fill="lightgrey" stroke="black" points="741,-474 619,-474 619,-438 741,-438 741,-474"/>
<text text-anchor="middle" x="680" y="-452.3" font-family="Times,serif" font-size="14.00">#7 If Order : 5</text>
</g>
<!-- node5&#45;&gt;node7 -->
<g id="edge16" class="edge">
<title>node5&#45;&gt;node7</title>
<path fill="none" stroke="red" d="M572.47,-583.92C593.94,-558.58 634.32,-510.92 659.02,-481.76"/>
<polygon fill="red" stroke="red" points="661.75,-483.95 665.54,-474.06 656.41,-479.43 661.75,-483.95"/>
</g>
<!-- node6&#45;&gt;node0 -->
<g id="edge11" class="edge">
<title>node6&#45;&gt;node0</title>
<path fill="none" stroke="green" stroke-width="2" d="M1004.72,-545.94C1063.21,-559.95 1122.28,-583.82 1089,-620 1057.27,-654.5 730.19,-650.79 651.43,-656.8"/>
<polygon fill="green" stroke="green" stroke-width="2" points="650.94,-653.33 641.33,-657.81 651.63,-660.3 650.94,-653.33"/>
</g>
<!-- node6&#45;&gt;node7 -->
<g id="edge15" class="edge">
<title>node6&#45;&gt;node7</title>
<path fill="none" stroke="black" d="M857.19,-510.99C823.72,-500.79 780.97,-487.77 745.85,-477.07"/>
<polygon fill="black" stroke="black" points="746.75,-473.68 736.16,-474.11 744.71,-480.38 746.75,-473.68"/>
<text text-anchor="middle" x="755.96" y="-467.61" font-family="Times,serif" font-size="14.00">*0</text>
</g>
<!-- node7&#45;&gt;node0 -->
<g id="edge14" class="edge">
<title>node7&#45;&gt;node0</title>
<path fill="none" stroke="green" stroke-width="2" d="M682.84,-474.02C687.18,-505.77 691.98,-574.91 661,-620 651.48,-633.85 637.27,-644.4 622.42,-652.34"/>
<polygon fill="green" stroke="green" stroke-width="2" points="620.53,-649.37 613.12,-656.94 623.64,-655.64 620.53,-649.37"/>
</g>
<!-- node8 -->
<g id="node9" class="node">
<title>node8</title>
<polygon fill="lightgrey" stroke="black" points="747.5,-401 602.5,-401 602.5,-365 747.5,-365 747.5,-401"/>
<text text-anchor="middle" x="675" y="-379.3" font-family="Times,serif" font-size="14.00">#8 false Order : 8</text>
</g>
<!-- node7&#45;&gt;node8 -->
<g id="edge18" class="edge">
<title>node7&#45;&gt;node8</title>
<path fill="none" stroke="red" d="M672.91,-437.81C671.51,-429.79 670.59,-420.05 670.33,-411.07"/>
<polygon fill="red" stroke="red" points="673.83,-411.03 670.34,-401.03 666.83,-411.03 673.83,-411.03"/>
</g>
<!-- node9 -->
<g id="node10" class="node">
<title>node9</title>
<polygon fill="lightgrey" stroke="black" points="925.5,-401 784.5,-401 784.5,-365 925.5,-365 925.5,-401"/>
<text text-anchor="middle" x="855" y="-379.3" font-family="Times,serif" font-size="14.00">#9 true Order : 6</text>
</g>
<!-- node7&#45;&gt;node9 -->
<g id="edge20" class="edge">
<title>node7&#45;&gt;node9</title>
<path fill="none" stroke="red" d="M716.06,-437.99C739.5,-428.06 770.49,-415.43 797.29,-404.89"/>
<polygon fill="red" stroke="red" points="798.91,-408.02 806.95,-401.11 796.36,-401.5 798.91,-408.02"/>
</g>
<!-- node8&#45;&gt;node7 -->
<g id="edge17" class="edge">
<title>node8&#45;&gt;node7</title>
<path fill="none" stroke="green" stroke-width="2" d="M682.06,-401.03C683.47,-409.03 684.4,-418.77 684.67,-427.75"/>
<polygon fill="green" stroke="green" stroke-width="2" points="681.17,-427.81 684.67,-437.81 688.17,-427.81 681.17,-427.81"/>
</g>
<!-- node10 -->
<g id="node11" class="node">
<title>node10</title>
<polygon fill="lightgrey" stroke="black" points="755.5,-328 558.5,-328 558.5,-292 755.5,-292 755.5,-328"/>
<text text-anchor="middle" x="657" y="-306.3" font-family="Times,serif" font-size="14.00">#10 LabelNode Order : 9</text>
</g>
<!-- node8&#45;&gt;node10 -->
<g id="edge22" class="edge">
<title>node8&#45;&gt;node10</title>
<path fill="none" stroke="red" d="M664.76,-364.81C661.89,-356.79 659.19,-347.05 657.28,-338.07"/>
<polygon fill="red" stroke="red" points="660.69,-337.24 655.46,-328.03 653.8,-338.49 660.69,-337.24"/>
</g>
<!-- node9&#45;&gt;node7 -->
<g id="edge19" class="edge">
<title>node9&#45;&gt;node7</title>
<path fill="none" stroke="green" stroke-width="2" d="M818.69,-401.11C795.19,-411.07 764.19,-423.69 737.42,-434.22"/>
<polygon fill="green" stroke="green" stroke-width="2" points="735.81,-431.09 727.78,-437.99 738.36,-437.61 735.81,-431.09"/>
</g>
<!-- node11 -->
<g id="node12" class="node">
<title>node11</title>
<polygon fill="lightgrey" stroke="black" points="970.5,-328 773.5,-328 773.5,-292 970.5,-292 970.5,-328"/>
<text text-anchor="middle" x="872" y="-306.3" font-family="Times,serif" font-size="14.00">#11 LabelNode Order : 7</text>
</g>
<!-- node9&#45;&gt;node11 -->
<g id="edge24" class="edge">
<title>node9&#45;&gt;node11</title>
<path fill="none" stroke="red" d="M853.24,-364.81C854.33,-356.7 856.46,-346.84 859.02,-337.78"/>
<polygon fill="red" stroke="red" points="862.43,-338.62 862.06,-328.03 855.74,-336.53 862.43,-338.62"/>
</g>
<!-- node10&#45;&gt;node8 -->
<g id="edge21" class="edge">
<title>node10&#45;&gt;node8</title>
<path fill="none" stroke="green" stroke-width="2" d="M667.18,-328.03C670.05,-336.03 672.76,-345.77 674.68,-354.75"/>
<polygon fill="green" stroke="green" stroke-width="2" points="671.28,-355.61 676.52,-364.81 678.16,-354.35 671.28,-355.61"/>
</g>
<!-- node12 -->
<g id="node13" class="node">
<title>node12</title>
<polygon fill="lightgrey" stroke="black" points="738.5,-255 575.5,-255 575.5,-219 738.5,-219 738.5,-255"/>
<text text-anchor="middle" x="657" y="-233.3" font-family="Times,serif" font-size="14.00">#12 Goto Order : 10</text>
</g>
<!-- node10&#45;&gt;node12 -->
<g id="edge26" class="edge">
<title>node10&#45;&gt;node12</title>
<path fill="none" stroke="red" d="M651.12,-291.81C650.28,-283.79 650.05,-274.05 650.42,-265.07"/>
<polygon fill="red" stroke="red" points="653.92,-265.25 651.14,-255.03 646.94,-264.75 653.92,-265.25"/>
</g>
<!-- node11&#45;&gt;node9 -->
<g id="edge23" class="edge">
<title>node11&#45;&gt;node9</title>
<path fill="none" stroke="green" stroke-width="2" d="M873.78,-328.03C872.7,-336.12 870.58,-345.98 868.03,-355.05"/>
<polygon fill="green" stroke="green" stroke-width="2" points="864.62,-354.22 864.99,-364.81 871.3,-356.3 864.62,-354.22"/>
</g>
<!-- node13 -->
<g id="node14" class="node">
<title>node13</title>
<polygon fill="lightgrey" stroke="black" points="753,-182 499,-182 499,-146 753,-146 753,-182"/>
<text text-anchor="middle" x="626" y="-160.3" font-family="Times,serif" font-size="14.00">#13 Merge : Merge20 Order : 11</text>
</g>
<!-- node11&#45;&gt;node13 -->
<g id="edge29" class="edge">
<title>node11&#45;&gt;node13</title>
<path fill="none" stroke="red" d="M851.42,-291.97C827.54,-272.71 786.5,-241.16 748,-219 726.49,-206.62 701.62,-195.14 679.96,-185.98"/>
<polygon fill="red" stroke="red" points="681.16,-182.69 670.58,-182.07 678.46,-189.15 681.16,-182.69"/>
</g>
<!-- node12&#45;&gt;node10 -->
<g id="edge25" class="edge">
<title>node12&#45;&gt;node10</title>
<path fill="none" stroke="green" stroke-width="2" d="M662.86,-255.03C663.71,-263.03 663.95,-272.77 663.59,-281.75"/>
<polygon fill="green" stroke="green" stroke-width="2" points="660.09,-281.59 662.88,-291.81 667.07,-282.08 660.09,-281.59"/>
</g>
<!-- node12&#45;&gt;node13 -->
<g id="edge28" class="edge">
<title>node12&#45;&gt;node13</title>
<path fill="none" stroke="red" d="M649.5,-218.81C645.92,-210.62 641.55,-200.62 637.56,-191.48"/>
<polygon fill="red" stroke="red" points="640.64,-189.79 633.44,-182.03 634.23,-192.59 640.64,-189.79"/>
</g>
<!-- node13&#45;&gt;node7 -->
<g id="edge27" class="edge">
<title>node13&#45;&gt;node7</title>
<path fill="none" stroke="green" stroke-width="2" d="M574.91,-182.07C551.98,-193.26 530,-210.61 530,-236 530,-384 530,-384 530,-384 530,-422.09 569.99,-439.77 608.68,-447.97"/>
<polygon fill="green" stroke="green" stroke-width="2" points="608.51,-451.5 618.99,-449.95 609.83,-444.62 608.51,-451.5"/>
</g>
<!-- node13&#45;&gt;node14 -->
<g id="edge31" class="edge">
<title>node13&#45;&gt;node14</title>
<path fill="none" stroke="black" stroke-dasharray="1,5" d="M626,-145.81C626,-137.79 626,-128.05 626,-119.07"/>
<polygon fill="black" stroke="black" points="629.5,-119.03 626,-109.03 622.5,-119.03 629.5,-119.03"/>
</g>
<!-- node13&#45;&gt;node15 -->
<g id="edge36" class="edge">
<title>node13&#45;&gt;node15</title>
<path fill="none" stroke="red" d="M566.67,-145.94C544.56,-137.45 520.39,-125.42 502,-109 482.54,-91.63 468.47,-65.17 459.92,-45.43"/>
<polygon fill="red" stroke="red" points="463.11,-43.99 456.05,-36.08 456.64,-46.66 463.11,-43.99"/>
</g>
<!-- node14&#45;&gt;node0 -->
<g id="edge30" class="edge">
<title>node14&#45;&gt;node0</title>
<path fill="none" stroke="green" stroke-width="2" d="M741.51,-96.5C894.44,-104.04 1145,-122.56 1145,-163 1145,-603 1145,-603 1145,-603 1145,-656.21 740.33,-651.08 651.5,-656.84"/>
<polygon fill="green" stroke="green" stroke-width="2" points="650.99,-653.37 641.32,-657.71 651.58,-660.35 650.99,-653.37"/>
</g>
<!-- node14&#45;&gt;node15 -->
<g id="edge35" class="edge">
<title>node14&#45;&gt;node15</title>
<path fill="none" stroke="black" d="M583.84,-72.99C559.21,-63.06 527.92,-50.43 501.79,-39.89"/>
<polygon fill="black" stroke="black" points="503.01,-36.61 492.42,-36.11 500.39,-43.1 503.01,-36.61"/>
<text text-anchor="middle" x="512.39" y="-31.36" font-family="Times,serif" font-size="14.00">*0</text>
</g>
<!-- node15&#45;&gt;node0 -->
<g id="edge34" class="edge">
<title>node15&#45;&gt;node0</title>
<path fill="none" stroke="green" stroke-width="2" d="M448.43,-36.01C443.69,-50.09 436,-70.82 436,-90 436,-603 436,-603 436,-603 436,-626.43 452.39,-642.16 473.18,-652.72"/>
<polygon fill="green" stroke="green" stroke-width="2" points="471.78,-655.93 482.33,-656.94 474.71,-649.57 471.78,-655.93"/>
</g>
<!-- c0 -->
<!-- c1 -->
<!-- c0&#45;&gt;c1 -->
<g id="edge38" class="edge">
<title>c0&#45;&gt;c1</title>
<path fill="none" stroke="red" d="M1372.89,-675C1384.11,-675 1442.24,-675 1467.86,-675"/>
<polygon fill="red" stroke="red" points="1468.06,-678.5 1478.06,-675 1468.06,-671.5 1468.06,-678.5"/>
<text text-anchor="middle" x="1425.5" y="-681.8" font-family="Times,serif" font-size="14.00">Control flow</text>
</g>
<!-- c2 -->
<!-- c3 -->
<!-- c2&#45;&gt;c3 -->
<g id="edge39" class="edge">
<title>c2&#45;&gt;c3</title>
<path fill="none" stroke="red" stroke-dasharray="5,2" d="M1166.08,-675C1183.05,-675 1299.21,-675 1337.08,-675"/>
<polygon fill="red" stroke="red" points="1337.17,-678.5 1347.17,-675 1337.17,-671.5 1337.17,-678.5"/>
<text text-anchor="middle" x="1256.5" y="-681.8" font-family="Times,serif" font-size="14.00">Control flow back edge</text>
</g>
<!-- d0 -->
<!-- d1 -->
<!-- d0&#45;&gt;d1 -->
<g id="edge40" class="edge">
<title>d0&#45;&gt;d1</title>
<path fill="none" stroke="black" d="M1054.86,-675C1064.41,-675 1108.31,-675 1129.92,-675"/>
<polygon fill="black" stroke="black" points="1130.15,-678.5 1140.15,-675 1130.15,-671.5 1130.15,-678.5"/>
<text text-anchor="middle" x="1097.5" y="-681.8" font-family="Times,serif" font-size="14.00">Data flow</text>
</g>
<!-- d2 -->
<!-- d3 -->
<!-- d2&#45;&gt;d3 -->
<g id="edge41" class="edge">
<title>d2&#45;&gt;d3</title>
<path fill="none" stroke="black" stroke-dasharray="1,5" d="M928.81,-675C939.46,-675 994.46,-675 1019.08,-675"/>
<polygon fill="black" stroke="black" points="1019.15,-678.5 1029.15,-675 1019.15,-671.5 1019.15,-678.5"/>
<text text-anchor="middle" x="979" y="-681.8" font-family="Times,serif" font-size="14.00">Declaration</text>
</g>
<!-- d4 -->
<!-- d5 -->
<!-- d4&#45;&gt;d5 -->
<g id="edge42" class="edge">
<title>d4&#45;&gt;d5</title>
<path fill="none" stroke="blue" d="M786.1,-675C798.72,-675 864.88,-675 892.68,-675"/>
<polygon fill="blue" stroke="blue" points="892.84,-678.5 902.84,-675 892.84,-671.5 892.84,-678.5"/>
<text text-anchor="middle" x="844.5" y="-681.8" font-family="Times,serif" font-size="14.00">PHI Data flow</text>
</g>
<!-- d6 -->
<!-- d7 -->
<!-- d6&#45;&gt;d7 -->
<g id="edge43" class="edge">
<title>d6&#45;&gt;d7</title>
<path fill="none" stroke="green" d="M663.11,-675C674.15,-675 725.67,-675 749.66,-675"/>
<polygon fill="green" stroke="green" points="749.9,-678.5 759.9,-675 749.9,-671.5 749.9,-678.5"/>
<text text-anchor="middle" x="711.5" y="-681.8" font-family="Times,serif" font-size="14.00">Dominance</text>
</g>
</g>
</svg>
