<?xml version="1.0" encoding="UTF-8" standalone="no"?>
<!DOCTYPE svg PUBLIC "-//W3C//DTD SVG 1.1//EN"
 "http://www.w3.org/Graphics/SVG/1.1/DTD/svg11.dtd">
<!-- Generated by graphviz version 2.43.0 (0)
 -->
<!-- Title: debugoutput Pages: 1 -->
<svg width="1734pt" height="724pt"
 viewBox="0.00 0.00 1734.00 723.80" xmlns="http://www.w3.org/2000/svg" xmlns:xlink="http://www.w3.org/1999/xlink">
<g id="graph0" class="graph" transform="scale(1 1) rotate(0) translate(4 719.8)">
<title>debugoutput</title>
<polygon fill="white" stroke="transparent" points="-4,4 -4,-719.8 1730,-719.8 1730,4 -4,4"/>
<g id="clust1" class="cluster">
<title>cluster_000</title>
<polygon fill="none" stroke="black" points="742,-665.2 742,-707.8 1718,-707.8 1718,-665.2 742,-665.2"/>
<text text-anchor="middle" x="1230" y="-692.6" font-family="Times,serif" font-size="14.00">Legend</text>
</g>
<!-- node0 -->
<g id="node1" class="node">
<title>node0</title>
<polygon fill="lightgrey" stroke="black" points="732,-693 566,-693 566,-657 732,-657 732,-693"/>
<text text-anchor="middle" x="649" y="-671.3" font-family="Times,serif" font-size="14.00">#0 Method Order : 0</text>
</g>
<!-- node1 -->
<g id="node2" class="node">
<title>node1</title>
<polygon fill="lightgrey" stroke="black" points="186,-620 0,-620 0,-584 186,-584 186,-620"/>
<text text-anchor="middle" x="93" y="-598.3" font-family="Times,serif" font-size="14.00">#1 arg3 : int Order : 13</text>
</g>
<!-- node0&#45;&gt;node1 -->
<g id="edge2" class="edge">
<title>node0&#45;&gt;node1</title>
<path fill="none" stroke="black" d="M565.7,-665.97C475.1,-656.51 326.02,-639.75 195.87,-621.4"/>
<polygon fill="black" stroke="black" points="196.13,-617.9 185.73,-619.96 195.14,-624.83 196.13,-617.9"/>
<text text-anchor="middle" x="204.87" y="-610.44" font-family="Times,serif" font-size="14.00">*0</text>
</g>
<!-- node2 -->
<g id="node3" class="node">
<title>node2</title>
<polygon fill="lightgrey" stroke="black" points="390,-620 204,-620 204,-584 390,-584 390,-620"/>
<text text-anchor="middle" x="297" y="-598.3" font-family="Times,serif" font-size="14.00">#2 arg2 : int Order : 12</text>
</g>
<!-- node0&#45;&gt;node2 -->
<g id="edge4" class="edge">
<title>node0&#45;&gt;node2</title>
<path fill="none" stroke="black" d="M565.61,-658.33C511.46,-647.66 441.01,-633.48 385.82,-622.14"/>
<polygon fill="black" stroke="black" points="386.2,-618.64 375.7,-620.06 384.79,-625.5 386.2,-618.64"/>
<text text-anchor="middle" x="395.16" y="-611.73" font-family="Times,serif" font-size="14.00">*0</text>
</g>
<!-- node3 -->
<g id="node4" class="node">
<title>node3</title>
<polygon fill="lightgrey" stroke="black" points="884.5,-620 707.5,-620 707.5,-584 884.5,-584 884.5,-620"/>
<text text-anchor="middle" x="796" y="-598.3" font-family="Times,serif" font-size="14.00">#3 arg1 : int Order : 3</text>
</g>
<!-- node0&#45;&gt;node3 -->
<g id="edge6" class="edge">
<title>node0&#45;&gt;node3</title>
<path fill="none" stroke="black" d="M678.35,-656.99C697.53,-647.23 722.97,-634.88 745.33,-624.45"/>
<polygon fill="black" stroke="black" points="747.09,-627.49 754.7,-620.11 744.15,-621.14 747.09,-627.49"/>
<text text-anchor="middle" x="741.8" y="-631.7" font-family="Times,serif" font-size="14.00">*0</text>
</g>
<!-- node4 -->
<g id="node5" class="node">
<title>node4</title>
<polygon fill="lightgrey" stroke="black" points="1079.5,-620 902.5,-620 902.5,-584 1079.5,-584 1079.5,-620"/>
<text text-anchor="middle" x="991" y="-598.3" font-family="Times,serif" font-size="14.00">#4 arg0 : int Order : 2</text>
</g>
<!-- node0&#45;&gt;node4 -->
<g id="edge8" class="edge">
<title>node0&#45;&gt;node4</title>
<path fill="none" stroke="black" d="M725.06,-656.99C774.64,-646.47 839.76,-632.94 893.17,-622.05"/>
<polygon fill="black" stroke="black" points="893.9,-625.48 903,-620.05 892.5,-618.62 893.9,-625.48"/>
<text text-anchor="middle" x="886.92" y="-628.25" font-family="Times,serif" font-size="14.00">*0</text>
</g>
<!-- node5 -->
<g id="node6" class="node">
<title>node5</title>
<polygon fill="lightgrey" stroke="black" points="652,-620 464,-620 464,-584 652,-584 652,-620"/>
<text text-anchor="middle" x="558" y="-598.3" font-family="Times,serif" font-size="14.00">#5 LabelNode Order : 1</text>
</g>
<!-- node0&#45;&gt;node5 -->
<g id="edge10" class="edge">
<title>node0&#45;&gt;node5</title>
<path fill="none" stroke="red" d="M621.34,-656.99C608.76,-647.93 594.1,-636.63 581.98,-626.71"/>
<polygon fill="red" stroke="red" points="583.99,-623.83 574.06,-620.11 579.51,-629.2 583.99,-623.83"/>
</g>
<!-- node15 -->
<g id="node16" class="node">
<title>node15</title>
<polygon fill="lightgrey" stroke="black" points="791.5,-36 540.5,-36 540.5,0 791.5,0 791.5,-36"/>
<text text-anchor="middle" x="666" y="-14.3" font-family="Times,serif" font-size="14.00">#15 ReturnValue : int Order : 15</text>
</g>
<!-- node0&#45;&gt;node15 -->
<g id="edge37" class="edge">
<title>node0&#45;&gt;node15</title>
<path fill="none" stroke="green" d="M565.86,-662.55C516.43,-653.55 460.67,-639.31 446,-620 429.17,-597.84 356.47,-486.51 535,-146 557.32,-103.43 598.24,-65.25 628.58,-42.12"/>
<polygon fill="green" stroke="green" points="630.88,-44.77 636.83,-36 626.71,-39.15 630.88,-44.77"/>
</g>
<!-- node1&#45;&gt;node0 -->
<g id="edge1" class="edge">
<title>node1&#45;&gt;node0</title>
<path fill="none" stroke="fuchsia" stroke-width="2" d="M186.26,-617.36C192.27,-618.29 198.22,-619.18 204,-620 325.25,-637.31 465.27,-653.37 555.42,-663.4"/>
<polygon fill="fuchsia" stroke="fuchsia" stroke-width="2" points="555.29,-666.91 565.61,-664.53 556.06,-659.95 555.29,-666.91"/>
</g>
<!-- node14 -->
<g id="node15" class="node">
<title>node14</title>
<polygon fill="lightgreen" stroke="black" points="924.25,-83.54 924.25,-98.46 856.74,-109 761.26,-109 693.75,-98.46 693.75,-83.54 761.26,-73 856.74,-73 924.25,-83.54"/>
<text text-anchor="middle" x="809" y="-87.3" font-family="Times,serif" font-size="14.00">#14 Φ int Order : 14</text>
</g>
<!-- node1&#45;&gt;node14 -->
<g id="edge33" class="edge">
<title>node1&#45;&gt;node14</title>
<path fill="none" stroke="blue" d="M103.64,-583.95C147.7,-515 323.88,-255.39 544,-146 590.91,-122.69 647.26,-109.44 695.92,-101.91"/>
<polygon fill="blue" stroke="blue" points="696.48,-105.36 705.86,-100.43 695.45,-98.44 696.48,-105.36"/>
<text text-anchor="middle" x="689.17" y="-107.76" font-family="Times,serif" font-size="14.00">if #11</text>
</g>
<!-- node2&#45;&gt;node0 -->
<g id="edge3" class="edge">
<title>node2&#45;&gt;node0</title>
<path fill="none" stroke="fuchsia" stroke-width="2" d="M387.4,-620.05C440.63,-630.56 507.62,-644.06 560.5,-654.93"/>
<polygon fill="fuchsia" stroke="fuchsia" stroke-width="2" points="560.05,-658.41 570.55,-656.99 561.46,-651.55 560.05,-658.41"/>
</g>
<!-- node2&#45;&gt;node14 -->
<g id="edge32" class="edge">
<title>node2&#45;&gt;node14</title>
<path fill="none" stroke="blue" d="M307.76,-583.84C322.96,-559.53 351.48,-513.6 375,-474 389.13,-450.21 393.18,-444.52 406,-420 450.32,-335.22 434.9,-301.69 483,-219 504.26,-182.45 507.69,-167.66 544,-146 585.89,-121.01 637.41,-107.41 683.86,-100.07"/>
<polygon fill="blue" stroke="blue" points="684.62,-103.5 694,-98.56 683.59,-96.57 684.62,-103.5"/>
<text text-anchor="middle" x="677.32" y="-105.9" font-family="Times,serif" font-size="14.00">if #12</text>
</g>
<!-- node3&#45;&gt;node0 -->
<g id="edge5" class="edge">
<title>node3&#45;&gt;node0</title>
<path fill="none" stroke="fuchsia" stroke-width="2" d="M766.44,-620.11C747.21,-629.9 721.76,-642.25 699.42,-652.66"/>
<polygon fill="fuchsia" stroke="fuchsia" stroke-width="2" points="697.67,-649.62 690.07,-656.99 700.61,-655.97 697.67,-649.62"/>
</g>
<!-- node6 -->
<g id="node7" class="node">
<title>node6</title>
<polygon fill="orange" stroke="black" points="1106.42,-521.54 1106.42,-536.46 993.12,-547 832.88,-547 719.58,-536.46 719.58,-521.54 832.88,-511 993.12,-511 1106.42,-521.54"/>
<text text-anchor="middle" x="913" y="-525.3" font-family="Times,serif" font-size="14.00">#6 NumericCondition : LE Order : 4</text>
</g>
<!-- node3&#45;&gt;node6 -->
<g id="edge12" class="edge">
<title>node3&#45;&gt;node6</title>
<path fill="none" stroke="black" d="M824.02,-583.99C839.54,-574.58 859.02,-562.76 875.8,-552.57"/>
<polygon fill="black" stroke="black" points="878.07,-555.29 884.8,-547.11 874.43,-549.31 878.07,-555.29"/>
<text text-anchor="middle" x="873.69" y="-560.04" font-family="Times,serif" font-size="14.00">*0</text>
</g>
<!-- node4&#45;&gt;node0 -->
<g id="edge7" class="edge">
<title>node4&#45;&gt;node0</title>
<path fill="none" stroke="fuchsia" stroke-width="2" d="M914.8,-620.04C863.83,-630.86 796.49,-644.84 742.32,-655.87"/>
<polygon fill="fuchsia" stroke="fuchsia" stroke-width="2" points="741.47,-652.47 732.37,-657.89 742.86,-659.33 741.47,-652.47"/>
</g>
<!-- node4&#45;&gt;node6 -->
<g id="edge13" class="edge">
<title>node4&#45;&gt;node6</title>
<path fill="none" stroke="black" d="M972.12,-583.81C962.25,-574.83 950.02,-563.69 939.24,-553.89"/>
<polygon fill="black" stroke="black" points="941.46,-551.17 931.71,-547.03 936.75,-556.35 941.46,-551.17"/>
<text text-anchor="middle" x="950.8" y="-549.28" font-family="Times,serif" font-size="14.00">*1</text>
</g>
<!-- node5&#45;&gt;node0 -->
<g id="edge9" class="edge">
<title>node5&#45;&gt;node0</title>
<path fill="none" stroke="fuchsia" stroke-width="2" d="M585.69,-620.03C598.24,-629.07 612.85,-640.33 624.94,-650.23"/>
<polygon fill="fuchsia" stroke="fuchsia" stroke-width="2" points="622.93,-653.1 632.85,-656.81 627.41,-647.72 622.93,-653.1"/>
</g>
<!-- node7 -->
<g id="node8" class="node">
<title>node7</title>
<polygon fill="lightgrey" stroke="black" points="741,-474 619,-474 619,-438 741,-438 741,-474"/>
<text text-anchor="middle" x="680" y="-452.3" font-family="Times,serif" font-size="14.00">#7 If Order : 5</text>
</g>
<!-- node5&#45;&gt;node7 -->
<g id="edge16" class="edge">
<title>node5&#45;&gt;node7</title>
<path fill="none" stroke="red" d="M572.47,-583.92C593.94,-558.58 634.32,-510.92 659.02,-481.76"/>
<polygon fill="red" stroke="red" points="661.75,-483.95 665.54,-474.06 656.41,-479.43 661.75,-483.95"/>
</g>
<!-- node6&#45;&gt;node0 -->
<g id="edge11" class="edge">
<title>node6&#45;&gt;node0</title>
<path fill="none" stroke="fuchsia" stroke-width="2" d="M1005.4,-545.95C1063.48,-559.88 1121.72,-583.65 1089,-620 1038.53,-676.07 832.17,-647.89 742.44,-656.64"/>
<polygon fill="fuchsia" stroke="fuchsia" stroke-width="2" points="741.85,-653.19 732.34,-657.86 742.69,-660.13 741.85,-653.19"/>
</g>
<!-- node6&#45;&gt;node7 -->
<g id="edge15" class="edge">
<title>node6&#45;&gt;node7</title>
<path fill="none" stroke="black" d="M857.19,-510.99C823.72,-500.79 780.97,-487.77 745.85,-477.07"/>
<polygon fill="black" stroke="black" points="746.75,-473.68 736.16,-474.11 744.71,-480.38 746.75,-473.68"/>
<text text-anchor="middle" x="755.96" y="-467.61" font-family="Times,serif" font-size="14.00">*0</text>
</g>
<!-- node7&#45;&gt;node0 -->
<g id="edge14" class="edge">
<title>node7&#45;&gt;node0</title>
<path fill="none" stroke="fuchsia" stroke-width="2" d="M678.58,-474.21C675.99,-504.04 669.92,-567.19 661,-620 659.52,-628.75 657.55,-638.22 655.63,-646.75"/>
<polygon fill="fuchsia" stroke="fuchsia" stroke-width="2" points="652.2,-646.05 653.35,-656.58 659.02,-647.63 652.2,-646.05"/>
</g>
<!-- node8 -->
<g id="node9" class="node">
<title>node8</title>
<polygon fill="lightgrey" stroke="black" points="752.5,-401 607.5,-401 607.5,-365 752.5,-365 752.5,-401"/>
<text text-anchor="middle" x="680" y="-379.3" font-family="Times,serif" font-size="14.00">#8 false Order : 8</text>
</g>
<!-- node7&#45;&gt;node8 -->
<g id="edge18" class="edge">
<title>node7&#45;&gt;node8</title>
<path fill="none" stroke="red" d="M674.12,-437.81C673.28,-429.79 673.05,-420.05 673.42,-411.07"/>
<polygon fill="red" stroke="red" points="676.92,-411.25 674.14,-401.03 669.94,-410.75 676.92,-411.25"/>
</g>
<!-- node9 -->
<g id="node10" class="node">
<title>node9</title>
<polygon fill="lightgrey" stroke="black" points="924.5,-401 783.5,-401 783.5,-365 924.5,-365 924.5,-401"/>
<text text-anchor="middle" x="854" y="-379.3" font-family="Times,serif" font-size="14.00">#9 true Order : 6</text>
</g>
<!-- node7&#45;&gt;node9 -->
<g id="edge20" class="edge">
<title>node7&#45;&gt;node9</title>
<path fill="none" stroke="red" d="M715.82,-437.99C739.12,-428.06 769.93,-415.43 796.58,-404.89"/>
<polygon fill="red" stroke="red" points="798.17,-408.03 806.19,-401.11 795.6,-401.52 798.17,-408.03"/>
</g>
<!-- node8&#45;&gt;node7 -->
<g id="edge17" class="edge">
<title>node8&#45;&gt;node7</title>
<path fill="none" stroke="fuchsia" stroke-width="2" d="M685.86,-401.03C686.71,-409.03 686.95,-418.77 686.59,-427.75"/>
<polygon fill="fuchsia" stroke="fuchsia" stroke-width="2" points="683.09,-427.59 685.88,-437.81 690.07,-428.08 683.09,-427.59"/>
</g>
<!-- node10 -->
<g id="node11" class="node">
<title>node10</title>
<polygon fill="lightgrey" stroke="black" points="778.5,-328 581.5,-328 581.5,-292 778.5,-292 778.5,-328"/>
<text text-anchor="middle" x="680" y="-306.3" font-family="Times,serif" font-size="14.00">#10 LabelNode Order : 9</text>
</g>
<!-- node8&#45;&gt;node10 -->
<g id="edge22" class="edge">
<title>node8&#45;&gt;node10</title>
<path fill="none" stroke="red" d="M674.12,-364.81C673.28,-356.79 673.05,-347.05 673.42,-338.07"/>
<polygon fill="red" stroke="red" points="676.92,-338.25 674.14,-328.03 669.94,-337.75 676.92,-338.25"/>
</g>
<!-- node9&#45;&gt;node7 -->
<g id="edge19" class="edge">
<title>node9&#45;&gt;node7</title>
<path fill="none" stroke="fuchsia" stroke-width="2" d="M817.93,-401.11C794.58,-411.07 763.75,-423.69 737.13,-434.22"/>
<polygon fill="fuchsia" stroke="fuchsia" stroke-width="2" points="735.56,-431.08 727.54,-437.99 738.12,-437.59 735.56,-431.08"/>
</g>
<!-- node11 -->
<g id="node12" class="node">
<title>node11</title>
<polygon fill="lightgrey" stroke="black" points="993.5,-328 796.5,-328 796.5,-292 993.5,-292 993.5,-328"/>
<text text-anchor="middle" x="895" y="-306.3" font-family="Times,serif" font-size="14.00">#11 LabelNode Order : 7</text>
</g>
<!-- node9&#45;&gt;node11 -->
<g id="edge24" class="edge">
<title>node9&#45;&gt;node11</title>
<path fill="none" stroke="red" d="M858.05,-364.81C862.05,-356.35 867.82,-345.98 873.7,-336.61"/>
<polygon fill="red" stroke="red" points="876.77,-338.32 879.3,-328.03 870.91,-334.49 876.77,-338.32"/>
</g>
<!-- node10&#45;&gt;node8 -->
<g id="edge21" class="edge">
<title>node10&#45;&gt;node8</title>
<path fill="none" stroke="fuchsia" stroke-width="2" d="M685.86,-328.03C686.71,-336.03 686.95,-345.77 686.59,-354.75"/>
<polygon fill="fuchsia" stroke="fuchsia" stroke-width="2" points="683.09,-354.59 685.88,-364.81 690.07,-355.08 683.09,-354.59"/>
</g>
<!-- node12 -->
<g id="node13" class="node">
<title>node12</title>
<polygon fill="lightgrey" stroke="black" points="761.5,-255 598.5,-255 598.5,-219 761.5,-219 761.5,-255"/>
<text text-anchor="middle" x="680" y="-233.3" font-family="Times,serif" font-size="14.00">#12 Goto Order : 10</text>
</g>
<!-- node10&#45;&gt;node12 -->
<g id="edge26" class="edge">
<title>node10&#45;&gt;node12</title>
<path fill="none" stroke="red" d="M674.12,-291.81C673.28,-283.79 673.05,-274.05 673.42,-265.07"/>
<polygon fill="red" stroke="red" points="676.92,-265.25 674.14,-255.03 669.94,-264.75 676.92,-265.25"/>
</g>
<!-- node11&#45;&gt;node9 -->
<g id="edge23" class="edge">
<title>node11&#45;&gt;node9</title>
<path fill="none" stroke="fuchsia" stroke-width="2" d="M891.03,-328.03C887.05,-336.46 881.28,-346.83 875.41,-356.21"/>
<polygon fill="fuchsia" stroke="fuchsia" stroke-width="2" points="872.33,-354.52 869.8,-364.81 878.2,-358.35 872.33,-354.52"/>
</g>
<!-- node13 -->
<g id="node14" class="node">
<title>node13</title>
<polygon fill="lightgrey" stroke="black" points="807,-182 553,-182 553,-146 807,-146 807,-182"/>
<text text-anchor="middle" x="680" y="-160.3" font-family="Times,serif" font-size="14.00">#13 Merge : Merge20 Order : 11</text>
</g>
<!-- node11&#45;&gt;node13 -->
<g id="edge29" class="edge">
<title>node11&#45;&gt;node13</title>
<path fill="none" stroke="red" d="M872.59,-291.77C848.09,-273.16 807.45,-242.97 771,-219 754.29,-208.01 735.34,-196.61 719.08,-187.13"/>
<polygon fill="red" stroke="red" points="720.76,-184.05 710.35,-182.07 717.25,-190.11 720.76,-184.05"/>
</g>
<!-- node12&#45;&gt;node10 -->
<g id="edge25" class="edge">
<title>node12&#45;&gt;node10</title>
<path fill="none" stroke="fuchsia" stroke-width="2" d="M685.86,-255.03C686.71,-263.03 686.95,-272.77 686.59,-281.75"/>
<polygon fill="fuchsia" stroke="fuchsia" stroke-width="2" points="683.09,-281.59 685.88,-291.81 690.07,-282.08 683.09,-281.59"/>
</g>
<!-- node12&#45;&gt;node13 -->
<g id="edge28" class="edge">
<title>node12&#45;&gt;node13</title>
<path fill="none" stroke="red" d="M680,-218.81C680,-210.79 680,-201.05 680,-192.07"/>
<polygon fill="red" stroke="red" points="683.5,-192.03 680,-182.03 676.5,-192.03 683.5,-192.03"/>
</g>
<!-- node13&#45;&gt;node7 -->
<g id="edge27" class="edge">
<title>node13&#45;&gt;node7</title>
<path fill="none" stroke="fuchsia" stroke-width="2" d="M599.93,-182.13C574.57,-192.61 553,-209.35 553,-236 553,-384 553,-384 553,-384 553,-413.73 579.84,-431.13 608.85,-441.25"/>
<polygon fill="fuchsia" stroke="fuchsia" stroke-width="2" points="608.14,-444.7 618.73,-444.42 610.27,-438.04 608.14,-444.7"/>
</g>
<!-- node13&#45;&gt;node14 -->
<g id="edge31" class="edge">
<title>node13&#45;&gt;node14</title>
<path fill="none" stroke="black" stroke-dasharray="1,5" d="M710.9,-145.99C728.32,-136.4 750.28,-124.32 769.01,-114.01"/>
<polygon fill="black" stroke="black" points="770.83,-117 777.91,-109.11 767.46,-110.87 770.83,-117"/>
</g>
<!-- node13&#45;&gt;node15 -->
<g id="edge36" class="edge">
<title>node13&#45;&gt;node15</title>
<path fill="none" stroke="red" d="M678.34,-145.92C675.94,-121.23 671.48,-75.35 668.63,-46.04"/>
<polygon fill="red" stroke="red" points="672.11,-45.68 667.66,-36.06 665.14,-46.35 672.11,-45.68"/>
</g>
<!-- node14&#45;&gt;node0 -->
<g id="edge30" class="edge">
<title>node14&#45;&gt;node0</title>
<path fill="none" stroke="fuchsia" stroke-width="2" d="M924.63,-94.86C1021.82,-100.51 1145,-116.79 1145,-163 1145,-603 1145,-603 1145,-603 1145,-638.78 1107.59,-629.85 1073,-639 932.09,-676.28 887.99,-640.65 742.52,-656.55"/>
<polygon fill="fuchsia" stroke="fuchsia" stroke-width="2" points="741.86,-653.1 732.32,-657.73 742.66,-660.06 741.86,-653.1"/>
</g>
<!-- node14&#45;&gt;node15 -->
<g id="edge35" class="edge">
<title>node14&#45;&gt;node15</title>
<path fill="none" stroke="black" d="M774.75,-72.99C755.17,-63.27 730.42,-50.99 709.48,-40.59"/>
<polygon fill="black" stroke="black" points="710.98,-37.43 700.47,-36.11 707.87,-43.7 710.98,-37.43"/>
<text text-anchor="middle" x="720.46" y="-32.9" font-family="Times,serif" font-size="14.00">*0</text>
</g>
<!-- node15&#45;&gt;node0 -->
<g id="edge34" class="edge">
<title>node15&#45;&gt;node0</title>
<path fill="none" stroke="fuchsia" stroke-width="2" d="M649.37,-36C624.1,-58.11 577.42,-99.43 553,-146 374.47,-486.51 447.17,-597.84 464,-620 476.11,-635.95 516.23,-648.43 556.06,-657.36"/>
<polygon fill="fuchsia" stroke="fuchsia" stroke-width="2" points="555.37,-660.8 565.89,-659.5 556.86,-653.96 555.37,-660.8"/>
</g>
<!-- c0 -->
<!-- c1 -->
<!-- c0&#45;&gt;c1 -->
<g id="edge38" class="edge">
<title>c0&#45;&gt;c1</title>
<path fill="none" stroke="red" d="M1600.89,-675C1612.11,-675 1670.24,-675 1695.86,-675"/>
<polygon fill="red" stroke="red" points="1696.06,-678.5 1706.06,-675 1696.06,-671.5 1696.06,-678.5"/>
<text text-anchor="middle" x="1653.5" y="-681.8" font-family="Times,serif" font-size="14.00">Control flow</text>
</g>
<!-- c2 -->
<!-- c3 -->
<!-- c2&#45;&gt;c3 -->
<g id="edge39" class="edge">
<title>c2&#45;&gt;c3</title>
<path fill="none" stroke="red" stroke-dasharray="5,2" d="M1394.08,-675C1411.05,-675 1527.21,-675 1565.08,-675"/>
<polygon fill="red" stroke="red" points="1565.17,-678.5 1575.17,-675 1565.17,-671.5 1565.17,-678.5"/>
<text text-anchor="middle" x="1484.5" y="-681.8" font-family="Times,serif" font-size="14.00">Control flow back edge</text>
</g>
<!-- d0 -->
<!-- d1 -->
<!-- d0&#45;&gt;d1 -->
<g id="edge40" class="edge">
<title>d0&#45;&gt;d1</title>
<path fill="none" stroke="black" d="M1282.86,-675C1292.41,-675 1336.31,-675 1357.92,-675"/>
<polygon fill="black" stroke="black" points="1358.15,-678.5 1368.15,-675 1358.15,-671.5 1358.15,-678.5"/>
<text text-anchor="middle" x="1325.5" y="-681.8" font-family="Times,serif" font-size="14.00">Data flow</text>
</g>
<!-- d2 -->
<!-- d3 -->
<!-- d2&#45;&gt;d3 -->
<g id="edge41" class="edge">
<title>d2&#45;&gt;d3</title>
<path fill="none" stroke="black" stroke-dasharray="1,5" d="M1156.81,-675C1167.46,-675 1222.46,-675 1247.08,-675"/>
<polygon fill="black" stroke="black" points="1247.15,-678.5 1257.15,-675 1247.15,-671.5 1247.15,-678.5"/>
<text text-anchor="middle" x="1207" y="-681.8" font-family="Times,serif" font-size="14.00">Declaration</text>
</g>
<!-- d4 -->
<!-- d5 -->
<!-- d4&#45;&gt;d5 -->
<g id="edge42" class="edge">
<title>d4&#45;&gt;d5</title>
<path fill="none" stroke="blue" d="M1014.1,-675C1026.72,-675 1092.88,-675 1120.68,-675"/>
<polygon fill="blue" stroke="blue" points="1120.84,-678.5 1130.84,-675 1120.84,-671.5 1120.84,-678.5"/>
<text text-anchor="middle" x="1072.5" y="-681.8" font-family="Times,serif" font-size="14.00">PHI Data flow</text>
</g>
<!-- d6 -->
<!-- d7 -->
<!-- d6&#45;&gt;d7 -->
<g id="edge43" class="edge">
<title>d6&#45;&gt;d7</title>
<path fill="none" stroke="green" d="M877,-675C888.94,-675 951.3,-675 977.93,-675"/>
<polygon fill="green" stroke="green" points="977.95,-678.5 987.95,-675 977.95,-671.5 977.95,-678.5"/>
<text text-anchor="middle" x="932.5" y="-681.8" font-family="Times,serif" font-size="14.00">Memory flow</text>
</g>
<!-- d8 -->
<!-- d9 -->
<!-- d8&#45;&gt;d9 -->
<g id="edge44" class="edge">
<title>d8&#45;&gt;d9</title>
<path fill="none" stroke="fuchsia" d="M754.11,-675C765.15,-675 816.67,-675 840.66,-675"/>
<polygon fill="fuchsia" stroke="fuchsia" points="840.9,-678.5 850.9,-675 840.9,-671.5 840.9,-678.5"/>
<text text-anchor="middle" x="802.5" y="-681.8" font-family="Times,serif" font-size="14.00">Dominance</text>
</g>
</g>
</svg>
