<?xml version="1.0" encoding="UTF-8" standalone="no"?>
<!DOCTYPE svg PUBLIC "-//W3C//DTD SVG 1.1//EN"
 "http://www.w3.org/Graphics/SVG/1.1/DTD/svg11.dtd">
<!-- Generated by graphviz version 2.43.0 (0)
 -->
<!-- Title: debugoutput Pages: 1 -->
<svg width="1609pt" height="724pt"
 viewBox="0.00 0.00 1608.50 723.80" xmlns="http://www.w3.org/2000/svg" xmlns:xlink="http://www.w3.org/1999/xlink">
<g id="graph0" class="graph" transform="scale(1 1) rotate(0) translate(4 719.8)">
<title>debugoutput</title>
<polygon fill="white" stroke="transparent" points="-4,4 -4,-719.8 1604.5,-719.8 1604.5,4 -4,4"/>
<g id="clust1" class="cluster">
<title>cluster_000</title>
<polygon fill="none" stroke="black" points="753.5,-665.2 753.5,-707.8 1592.5,-707.8 1592.5,-665.2 753.5,-665.2"/>
<text text-anchor="middle" x="1173" y="-692.6" font-family="Times,serif" font-size="14.00">Legend</text>
</g>
<!-- node0 -->
<g id="node1" class="node">
<title>node0</title>
<polygon fill="lightgrey" stroke="black" points="743.5,-693 577.5,-693 577.5,-657 743.5,-657 743.5,-693"/>
<text text-anchor="middle" x="660.5" y="-671.3" font-family="Times,serif" font-size="14.00">#0 Method Order : 0</text>
</g>
<!-- node1 -->
<g id="node2" class="node">
<title>node1</title>
<polygon fill="lightgrey" stroke="black" points="316,-620 139,-620 139,-584 316,-584 316,-620"/>
<text text-anchor="middle" x="227.5" y="-598.3" font-family="Times,serif" font-size="14.00">#1 arg1 : int Order : 5</text>
</g>
<!-- node0&#45;&gt;node1 -->
<g id="edge2" class="edge">
<title>node0&#45;&gt;node1</title>
<path fill="none" stroke="black" d="M577.31,-662.08C509.92,-651.75 412.41,-636.21 325.73,-621.71"/>
<polygon fill="black" stroke="black" points="326.2,-618.25 315.76,-620.04 325.05,-625.15 326.2,-618.25"/>
<text text-anchor="middle" x="335.04" y="-611" font-family="Times,serif" font-size="14.00">*0</text>
</g>
<!-- node2 -->
<g id="node3" class="node">
<title>node2</title>
<polygon fill="lightgrey" stroke="black" points="987,-620 810,-620 810,-584 987,-584 987,-620"/>
<text text-anchor="middle" x="898.5" y="-598.3" font-family="Times,serif" font-size="14.00">#2 arg2 : int Order : 4</text>
</g>
<!-- node0&#45;&gt;node2 -->
<g id="edge4" class="edge">
<title>node0&#45;&gt;node2</title>
<path fill="none" stroke="black" d="M722.8,-657C743.47,-651.62 766.51,-645.39 787.5,-639 802.9,-634.31 819.42,-628.73 834.92,-623.37"/>
<polygon fill="black" stroke="black" points="836.12,-626.66 844.43,-620.08 833.83,-620.05 836.12,-626.66"/>
<text text-anchor="middle" x="830.07" y="-630.3" font-family="Times,serif" font-size="14.00">*0</text>
</g>
<!-- node3 -->
<g id="node4" class="node">
<title>node3</title>
<polygon fill="lightgrey" stroke="black" points="1182,-620 1005,-620 1005,-584 1182,-584 1182,-620"/>
<text text-anchor="middle" x="1093.5" y="-598.3" font-family="Times,serif" font-size="14.00">#3 arg3 : int Order : 3</text>
</g>
<!-- node0&#45;&gt;node3 -->
<g id="edge6" class="edge">
<title>node0&#45;&gt;node3</title>
<path fill="none" stroke="black" d="M740.82,-656.95C849.98,-638.36 878.04,-637.79 987.5,-620 989.97,-619.6 992.48,-619.19 995.01,-618.77"/>
<polygon fill="black" stroke="black" points="995.59,-622.22 1004.88,-617.12 994.44,-615.31 995.59,-622.22"/>
<text text-anchor="middle" x="988.39" y="-624.74" font-family="Times,serif" font-size="14.00">*0</text>
</g>
<!-- node4 -->
<g id="node5" class="node">
<title>node4</title>
<polygon fill="lightgrey" stroke="black" points="511,-620 334,-620 334,-584 511,-584 511,-620"/>
<text text-anchor="middle" x="422.5" y="-598.3" font-family="Times,serif" font-size="14.00">#4 arg0 : int Order : 2</text>
</g>
<!-- node0&#45;&gt;node4 -->
<g id="edge8" class="edge">
<title>node0&#45;&gt;node4</title>
<path fill="none" stroke="black" d="M580.98,-657C559.53,-651.62 536.49,-645.39 515.5,-639 500.47,-634.42 484.36,-628.99 469.81,-623.75"/>
<polygon fill="black" stroke="black" points="470.6,-620.32 460.01,-620.17 468.2,-626.89 470.6,-620.32"/>
<text text-anchor="middle" x="479.94" y="-614.76" font-family="Times,serif" font-size="14.00">*0</text>
</g>
<!-- node6 -->
<g id="node7" class="node">
<title>node6</title>
<polygon fill="lightgrey" stroke="black" points="754.5,-620 566.5,-620 566.5,-584 754.5,-584 754.5,-620"/>
<text text-anchor="middle" x="660.5" y="-598.3" font-family="Times,serif" font-size="14.00">#6 LabelNode Order : 1</text>
</g>
<!-- node0&#45;&gt;node6 -->
<g id="edge13" class="edge">
<title>node0&#45;&gt;node6</title>
<path fill="none" stroke="red" d="M654.62,-656.81C653.78,-648.79 653.55,-639.05 653.92,-630.07"/>
<polygon fill="red" stroke="red" points="657.42,-630.25 654.64,-620.03 650.44,-629.75 657.42,-630.25"/>
</g>
<!-- node15 -->
<g id="node16" class="node">
<title>node15</title>
<polygon fill="lightgrey" stroke="black" points="251,-36 0,-36 0,0 251,0 251,-36"/>
<text text-anchor="middle" x="125.5" y="-14.3" font-family="Times,serif" font-size="14.00">#15 ReturnValue : int Order : 15</text>
</g>
<!-- node0&#45;&gt;node15 -->
<g id="edge37" class="edge">
<title>node0&#45;&gt;node15</title>
<path fill="none" stroke="black" d="M577.35,-671.99C419.76,-667.01 93.5,-650.79 93.5,-603 93.5,-603 93.5,-603 93.5,-90 93.5,-74.57 98.48,-58.13 104.71,-44.96"/>
<polygon fill="black" stroke="black" points="107.86,-46.49 109.41,-36.01 101.66,-43.23 107.86,-46.49"/>
</g>
<!-- node1&#45;&gt;node0 -->
<g id="edge1" class="edge">
<title>node1&#45;&gt;node0</title>
<path fill="none" stroke="green" stroke-width="2" d="M316.13,-617.05C322.02,-618.06 327.85,-619.05 333.5,-620 412.47,-633.27 502.01,-647.62 567.45,-658.2"/>
<polygon fill="green" stroke="green" stroke-width="2" points="566.9,-661.65 577.33,-659.79 568.02,-654.74 566.9,-661.65"/>
</g>
<!-- node5 -->
<g id="node6" class="node">
<title>node5</title>
<polygon fill="orange" stroke="black" points="620.92,-521.54 620.92,-536.46 507.62,-547 347.38,-547 234.08,-536.46 234.08,-521.54 347.38,-511 507.62,-511 620.92,-521.54"/>
<text text-anchor="middle" x="427.5" y="-525.3" font-family="Times,serif" font-size="14.00">#5 NumericCondition : LE Order : 6</text>
</g>
<!-- node1&#45;&gt;node5 -->
<g id="edge10" class="edge">
<title>node1&#45;&gt;node5</title>
<path fill="none" stroke="black" d="M275.4,-583.99C303.77,-573.92 339.89,-561.1 369.81,-550.48"/>
<polygon fill="black" stroke="black" points="371.04,-553.76 379.29,-547.11 368.7,-547.16 371.04,-553.76"/>
<text text-anchor="middle" x="365.04" y="-557.44" font-family="Times,serif" font-size="14.00">*0</text>
</g>
<!-- node2&#45;&gt;node0 -->
<g id="edge3" class="edge">
<title>node2&#45;&gt;node0</title>
<path fill="none" stroke="green" stroke-width="2" d="M860.99,-620.17C844.13,-626.44 824,-633.37 805.5,-639 787.71,-644.42 768.44,-649.72 749.92,-654.48"/>
<polygon fill="green" stroke="green" stroke-width="2" points="748.85,-651.14 740.02,-657 750.58,-657.93 748.85,-651.14"/>
</g>
<!-- node14 -->
<g id="node15" class="node">
<title>node14</title>
<polygon fill="orange" stroke="black" points="544.75,-83.54 544.75,-98.46 477.24,-109 381.76,-109 314.25,-98.46 314.25,-83.54 381.76,-73 477.24,-73 544.75,-83.54"/>
<text text-anchor="middle" x="429.5" y="-87.3" font-family="Times,serif" font-size="14.00">#14 Φ int Order : 14</text>
</g>
<!-- node2&#45;&gt;node14 -->
<g id="edge32" class="edge">
<title>node2&#45;&gt;node14</title>
<path fill="none" stroke="blue" d="M878.51,-583.77C841.16,-550.9 759.56,-475.79 704.5,-401 627.97,-297.05 673.62,-216.5 565.5,-146 525.52,-119.93 383.8,-163.13 351.5,-128 345.33,-121.28 346.55,-115.72 352,-111.15"/>
<polygon fill="blue" stroke="blue" points="354.1,-113.97 360.92,-105.86 350.53,-107.95 354.1,-113.97"/>
<text text-anchor="middle" x="349.63" y="-118.67" font-family="Times,serif" font-size="14.00">if #12</text>
</g>
<!-- node3&#45;&gt;node0 -->
<g id="edge5" class="edge">
<title>node3&#45;&gt;node0</title>
<path fill="none" stroke="green" stroke-width="2" d="M1005.18,-620.05C895.88,-637.81 867.82,-638.38 758.5,-657 757,-657.26 755.48,-657.52 753.95,-657.78"/>
<polygon fill="green" stroke="green" stroke-width="2" points="752.98,-654.4 743.74,-659.59 754.2,-661.29 752.98,-654.4"/>
</g>
<!-- node3&#45;&gt;node14 -->
<g id="edge33" class="edge">
<title>node3&#45;&gt;node14</title>
<path fill="none" stroke="blue" d="M1079.82,-583.7C1026.21,-517.02 822.45,-274.06 601.5,-146 572.55,-129.22 537.77,-117.03 507.09,-108.54"/>
<polygon fill="blue" stroke="blue" points="507.85,-105.12 497.29,-105.9 506.04,-111.88 507.85,-105.12"/>
<text text-anchor="middle" x="516.98" y="-98.74" font-family="Times,serif" font-size="14.00">if #9</text>
</g>
<!-- node4&#45;&gt;node0 -->
<g id="edge7" class="edge">
<title>node4&#45;&gt;node0</title>
<path fill="none" stroke="green" stroke-width="2" d="M476.57,-620.08C494.68,-626.37 514.91,-633.34 533.5,-639 551.21,-644.39 570.38,-649.67 588.35,-654.42"/>
<polygon fill="green" stroke="green" stroke-width="2" points="587.63,-657.85 598.2,-657 589.41,-651.08 587.63,-657.85"/>
</g>
<!-- node4&#45;&gt;node5 -->
<g id="edge11" class="edge">
<title>node4&#45;&gt;node5</title>
<path fill="none" stroke="black" d="M423.71,-583.81C424.28,-575.79 424.96,-566.05 425.59,-557.07"/>
<polygon fill="black" stroke="black" points="429.09,-557.25 426.3,-547.03 422.11,-556.76 429.09,-557.25"/>
<text text-anchor="middle" x="433.46" y="-562" font-family="Times,serif" font-size="14.00">*1</text>
</g>
<!-- node5&#45;&gt;node0 -->
<g id="edge9" class="edge">
<title>node5&#45;&gt;node0</title>
<path fill="none" stroke="green" stroke-width="2" d="M460.58,-547.02C478.63,-556.89 500.99,-570.09 519.5,-584 538.1,-597.98 538.57,-606.47 557.5,-620 574.56,-632.2 594.74,-643.39 612.7,-652.38"/>
<polygon fill="green" stroke="green" stroke-width="2" points="611.33,-655.61 621.85,-656.88 614.42,-649.33 611.33,-655.61"/>
</g>
<!-- node7 -->
<g id="node8" class="node">
<title>node7</title>
<polygon fill="lightgrey" stroke="black" points="523.5,-474 401.5,-474 401.5,-438 523.5,-438 523.5,-474"/>
<text text-anchor="middle" x="462.5" y="-452.3" font-family="Times,serif" font-size="14.00">#7 If Order : 7</text>
</g>
<!-- node5&#45;&gt;node7 -->
<g id="edge15" class="edge">
<title>node5&#45;&gt;node7</title>
<path fill="none" stroke="black" d="M435.97,-510.81C440.06,-502.53 445.04,-492.41 449.59,-483.19"/>
<polygon fill="black" stroke="black" points="452.82,-484.55 454.11,-474.03 446.54,-481.45 452.82,-484.55"/>
<text text-anchor="middle" x="453.67" y="-490.32" font-family="Times,serif" font-size="14.00">*0</text>
</g>
<!-- node6&#45;&gt;node0 -->
<g id="edge12" class="edge">
<title>node6&#45;&gt;node0</title>
<path fill="none" stroke="green" stroke-width="2" d="M666.36,-620.03C667.21,-628.03 667.45,-637.77 667.09,-646.75"/>
<polygon fill="green" stroke="green" stroke-width="2" points="663.59,-646.59 666.38,-656.81 670.57,-647.08 663.59,-646.59"/>
</g>
<!-- node6&#45;&gt;node7 -->
<g id="edge16" class="edge">
<title>node6&#45;&gt;node7</title>
<path fill="none" stroke="red" d="M659.1,-583.66C656.56,-563.52 649.44,-530.56 629.5,-511 603.97,-485.95 566.76,-472.52 533.93,-465.32"/>
<polygon fill="red" stroke="red" points="534.4,-461.85 523.9,-463.28 533,-468.7 534.4,-461.85"/>
</g>
<!-- node7&#45;&gt;node0 -->
<g id="edge14" class="edge">
<title>node7&#45;&gt;node0</title>
<path fill="none" stroke="green" stroke-width="2" d="M523.62,-461.25C597.47,-470.19 717.56,-497.94 763.5,-584 771.03,-598.11 771.78,-606.31 763.5,-620 755.06,-633.95 741.7,-644.47 727.36,-652.34"/>
<polygon fill="green" stroke="green" stroke-width="2" points="725.69,-649.27 718.34,-656.9 728.85,-655.51 725.69,-649.27"/>
</g>
<!-- node8 -->
<g id="node9" class="node">
<title>node8</title>
<polygon fill="lightgrey" stroke="black" points="356.5,-401 206.5,-401 206.5,-365 356.5,-365 356.5,-401"/>
<text text-anchor="middle" x="281.5" y="-379.3" font-family="Times,serif" font-size="14.00">#8 true Order : 11</text>
</g>
<!-- node7&#45;&gt;node8 -->
<g id="edge18" class="edge">
<title>node7&#45;&gt;node8</title>
<path fill="none" stroke="red" d="M413.29,-437.99C386.9,-428.06 354.6,-415.43 328.55,-404.89"/>
<polygon fill="red" stroke="red" points="329.84,-401.64 319.26,-401.11 327.2,-408.12 329.84,-401.64"/>
</g>
<!-- node10 -->
<g id="node11" class="node">
<title>node10</title>
<polygon fill="lightgrey" stroke="black" points="539.5,-401 385.5,-401 385.5,-365 539.5,-365 539.5,-401"/>
<text text-anchor="middle" x="462.5" y="-379.3" font-family="Times,serif" font-size="14.00">#10 false Order : 8</text>
</g>
<!-- node7&#45;&gt;node10 -->
<g id="edge22" class="edge">
<title>node7&#45;&gt;node10</title>
<path fill="none" stroke="red" d="M456.62,-437.81C455.78,-429.79 455.55,-420.05 455.92,-411.07"/>
<polygon fill="red" stroke="red" points="459.42,-411.25 456.64,-401.03 452.44,-410.75 459.42,-411.25"/>
</g>
<!-- node8&#45;&gt;node7 -->
<g id="edge17" class="edge">
<title>node8&#45;&gt;node7</title>
<path fill="none" stroke="green" stroke-width="2" d="M331,-401.11C357.43,-411.07 389.72,-423.69 415.73,-434.22"/>
<polygon fill="green" stroke="green" stroke-width="2" points="414.42,-437.47 425.01,-437.99 417.06,-430.98 414.42,-437.47"/>
</g>
<!-- node9 -->
<g id="node10" class="node">
<title>node9</title>
<polygon fill="lightgrey" stroke="black" points="346,-328 149,-328 149,-292 346,-292 346,-328"/>
<text text-anchor="middle" x="247.5" y="-306.3" font-family="Times,serif" font-size="14.00">#9 LabelNode Order : 12</text>
</g>
<!-- node8&#45;&gt;node9 -->
<g id="edge20" class="edge">
<title>node8&#45;&gt;node9</title>
<path fill="none" stroke="red" d="M267.39,-364.81C262.61,-356.62 257.6,-346.62 253.63,-337.48"/>
<polygon fill="red" stroke="red" points="256.8,-335.98 249.79,-328.03 250.31,-338.61 256.8,-335.98"/>
</g>
<!-- node9&#45;&gt;node8 -->
<g id="edge19" class="edge">
<title>node9&#45;&gt;node8</title>
<path fill="none" stroke="green" stroke-width="2" d="M261.52,-328.03C266.3,-336.2 271.31,-346.19 275.29,-355.34"/>
<polygon fill="green" stroke="green" stroke-width="2" points="272.14,-356.87 279.15,-364.81 278.62,-354.23 272.14,-356.87"/>
</g>
<!-- node13 -->
<g id="node14" class="node">
<title>node13</title>
<polygon fill="lightgrey" stroke="black" points="556.5,-182 302.5,-182 302.5,-146 556.5,-146 556.5,-182"/>
<text text-anchor="middle" x="429.5" y="-160.3" font-family="Times,serif" font-size="14.00">#13 Merge : Merge20 Order : 13</text>
</g>
<!-- node9&#45;&gt;node13 -->
<g id="edge29" class="edge">
<title>node9&#45;&gt;node13</title>
<path fill="none" stroke="red" d="M269.09,-291.92C301.66,-266.15 363.42,-217.29 400.07,-188.28"/>
<polygon fill="red" stroke="red" points="402.27,-191.01 407.94,-182.06 397.92,-185.52 402.27,-191.01"/>
</g>
<!-- node10&#45;&gt;node7 -->
<g id="edge21" class="edge">
<title>node10&#45;&gt;node7</title>
<path fill="none" stroke="green" stroke-width="2" d="M468.36,-401.03C469.21,-409.03 469.45,-418.77 469.09,-427.75"/>
<polygon fill="green" stroke="green" stroke-width="2" points="465.59,-427.59 468.38,-437.81 472.57,-428.08 465.59,-427.59"/>
</g>
<!-- node11 -->
<g id="node12" class="node">
<title>node11</title>
<polygon fill="lightgrey" stroke="black" points="561,-328 364,-328 364,-292 561,-292 561,-328"/>
<text text-anchor="middle" x="462.5" y="-306.3" font-family="Times,serif" font-size="14.00">#11 LabelNode Order : 9</text>
</g>
<!-- node10&#45;&gt;node11 -->
<g id="edge24" class="edge">
<title>node10&#45;&gt;node11</title>
<path fill="none" stroke="red" d="M456.62,-364.81C455.78,-356.79 455.55,-347.05 455.92,-338.07"/>
<polygon fill="red" stroke="red" points="459.42,-338.25 456.64,-328.03 452.44,-337.75 459.42,-338.25"/>
</g>
<!-- node11&#45;&gt;node10 -->
<g id="edge23" class="edge">
<title>node11&#45;&gt;node10</title>
<path fill="none" stroke="green" stroke-width="2" d="M468.36,-328.03C469.21,-336.03 469.45,-345.77 469.09,-354.75"/>
<polygon fill="green" stroke="green" stroke-width="2" points="465.59,-354.59 468.38,-364.81 472.57,-355.08 465.59,-354.59"/>
</g>
<!-- node12 -->
<g id="node13" class="node">
<title>node12</title>
<polygon fill="lightgrey" stroke="black" points="544,-255 381,-255 381,-219 544,-219 544,-255"/>
<text text-anchor="middle" x="462.5" y="-233.3" font-family="Times,serif" font-size="14.00">#12 Goto Order : 10</text>
</g>
<!-- node11&#45;&gt;node12 -->
<g id="edge26" class="edge">
<title>node11&#45;&gt;node12</title>
<path fill="none" stroke="red" d="M456.62,-291.81C455.78,-283.79 455.55,-274.05 455.92,-265.07"/>
<polygon fill="red" stroke="red" points="459.42,-265.25 456.64,-255.03 452.44,-264.75 459.42,-265.25"/>
</g>
<!-- node12&#45;&gt;node11 -->
<g id="edge25" class="edge">
<title>node12&#45;&gt;node11</title>
<path fill="none" stroke="green" stroke-width="2" d="M468.36,-255.03C469.21,-263.03 469.45,-272.77 469.09,-281.75"/>
<polygon fill="green" stroke="green" stroke-width="2" points="465.59,-281.59 468.38,-291.81 472.57,-282.08 465.59,-281.59"/>
</g>
<!-- node12&#45;&gt;node13 -->
<g id="edge28" class="edge">
<title>node12&#45;&gt;node13</title>
<path fill="none" stroke="red" d="M454.51,-218.81C450.66,-210.53 445.96,-200.41 441.67,-191.19"/>
<polygon fill="red" stroke="red" points="444.8,-189.62 437.41,-182.03 438.46,-192.57 444.8,-189.62"/>
</g>
<!-- node13&#45;&gt;node7 -->
<g id="edge27" class="edge">
<title>node13&#45;&gt;node7</title>
<path fill="none" stroke="green" stroke-width="2" d="M545.78,-182.05C570.59,-192.51 589.5,-209.26 589.5,-236 589.5,-384 589.5,-384 589.5,-384 589.5,-413.73 562.66,-431.13 533.65,-441.25"/>
<polygon fill="green" stroke="green" stroke-width="2" points="532.23,-438.04 523.77,-444.42 534.36,-444.7 532.23,-438.04"/>
</g>
<!-- node13&#45;&gt;node14 -->
<g id="edge31" class="edge">
<title>node13&#45;&gt;node14</title>
<path fill="none" stroke="black" stroke-dasharray="1,5" d="M429.5,-145.81C429.5,-137.79 429.5,-128.05 429.5,-119.07"/>
<polygon fill="black" stroke="black" points="433,-119.03 429.5,-109.03 426,-119.03 433,-119.03"/>
</g>
<!-- node13&#45;&gt;node15 -->
<g id="edge36" class="edge">
<title>node13&#45;&gt;node15</title>
<path fill="none" stroke="red" d="M302.04,-147.31C283.55,-142.49 265.15,-136.21 248.5,-128 206.93,-107.51 168.6,-69.14 146.13,-43.83"/>
<polygon fill="red" stroke="red" points="148.61,-41.35 139.41,-36.11 143.33,-45.95 148.61,-41.35"/>
</g>
<!-- node14&#45;&gt;node0 -->
<g id="edge30" class="edge">
<title>node14&#45;&gt;node0</title>
<path fill="none" stroke="green" stroke-width="2" d="M545.01,-96.69C762.14,-106.28 1209.5,-130.05 1209.5,-163 1209.5,-603 1209.5,-603 1209.5,-603 1209.5,-614 1201.55,-615.51 1191.5,-620 1104.32,-658.95 862.89,-644.6 753.95,-656.56"/>
<polygon fill="green" stroke="green" stroke-width="2" points="753.33,-653.11 743.83,-657.81 754.19,-660.06 753.33,-653.11"/>
</g>
<!-- node14&#45;&gt;node15 -->
<g id="edge35" class="edge">
<title>node14&#45;&gt;node15</title>
<path fill="none" stroke="black" d="M366.51,-75.29C320.61,-64.57 258,-49.95 208.1,-38.29"/>
<polygon fill="black" stroke="black" points="208.83,-34.87 198.29,-36 207.23,-41.68 208.83,-34.87"/>
<text text-anchor="middle" x="217.87" y="-28.19" font-family="Times,serif" font-size="14.00">*0</text>
</g>
<!-- node15&#45;&gt;node0 -->
<g id="edge34" class="edge">
<title>node15&#45;&gt;node0</title>
<path fill="none" stroke="green" stroke-width="2" d="M123.93,-36.01C119.19,-50.09 111.5,-70.82 111.5,-90 111.5,-603 111.5,-603 111.5,-603 111.5,-648.75 410.47,-665.56 567.2,-671.29"/>
<polygon fill="green" stroke="green" stroke-width="2" points="567.2,-674.79 577.32,-671.65 567.45,-667.8 567.2,-674.79"/>
</g>
<!-- c0 -->
<!-- c1 -->
<!-- c0&#45;&gt;c1 -->
<g id="edge38" class="edge">
<title>c0&#45;&gt;c1</title>
<path fill="none" stroke="red" d="M1475.39,-675C1486.61,-675 1544.74,-675 1570.36,-675"/>
<polygon fill="red" stroke="red" points="1570.56,-678.5 1580.56,-675 1570.56,-671.5 1570.56,-678.5"/>
<text text-anchor="middle" x="1528" y="-681.8" font-family="Times,serif" font-size="14.00">Control flow</text>
</g>
<!-- c2 -->
<!-- c3 -->
<!-- c2&#45;&gt;c3 -->
<g id="edge39" class="edge">
<title>c2&#45;&gt;c3</title>
<path fill="none" stroke="red" stroke-dasharray="5,2" d="M1268.58,-675C1285.55,-675 1401.71,-675 1439.58,-675"/>
<polygon fill="red" stroke="red" points="1439.67,-678.5 1449.67,-675 1439.67,-671.5 1439.67,-678.5"/>
<text text-anchor="middle" x="1359" y="-681.8" font-family="Times,serif" font-size="14.00">Control flow back edge</text>
</g>
<!-- d0 -->
<!-- d1 -->
<!-- d0&#45;&gt;d1 -->
<g id="edge40" class="edge">
<title>d0&#45;&gt;d1</title>
<path fill="none" stroke="black" d="M1157.36,-675C1166.91,-675 1210.81,-675 1232.42,-675"/>
<polygon fill="black" stroke="black" points="1232.65,-678.5 1242.65,-675 1232.65,-671.5 1232.65,-678.5"/>
<text text-anchor="middle" x="1200" y="-681.8" font-family="Times,serif" font-size="14.00">Data flow</text>
</g>
<!-- d2 -->
<!-- d3 -->
<!-- d2&#45;&gt;d3 -->
<g id="edge41" class="edge">
<title>d2&#45;&gt;d3</title>
<path fill="none" stroke="black" stroke-dasharray="1,5" d="M1031.31,-675C1041.96,-675 1096.96,-675 1121.58,-675"/>
<polygon fill="black" stroke="black" points="1121.65,-678.5 1131.65,-675 1121.65,-671.5 1121.65,-678.5"/>
<text text-anchor="middle" x="1081.5" y="-681.8" font-family="Times,serif" font-size="14.00">Declaration</text>
</g>
<!-- d4 -->
<!-- d5 -->
<!-- d4&#45;&gt;d5 -->
<g id="edge42" class="edge">
<title>d4&#45;&gt;d5</title>
<path fill="none" stroke="blue" d="M888.6,-675C901.22,-675 967.38,-675 995.18,-675"/>
<polygon fill="blue" stroke="blue" points="995.34,-678.5 1005.34,-675 995.34,-671.5 995.34,-678.5"/>
<text text-anchor="middle" x="947" y="-681.8" font-family="Times,serif" font-size="14.00">PHI Data flow</text>
</g>
<!-- d6 -->
<!-- d7 -->
<!-- d6&#45;&gt;d7 -->
<g id="edge43" class="edge">
<title>d6&#45;&gt;d7</title>
<path fill="none" stroke="green" d="M765.61,-675C776.65,-675 828.17,-675 852.16,-675"/>
<polygon fill="green" stroke="green" points="852.4,-678.5 862.4,-675 852.4,-671.5 852.4,-678.5"/>
<text text-anchor="middle" x="814" y="-681.8" font-family="Times,serif" font-size="14.00">Dominance</text>
</g>
</g>
</svg>
