<?xml version="1.0" encoding="UTF-8" standalone="no"?>
<!DOCTYPE svg PUBLIC "-//W3C//DTD SVG 1.1//EN"
 "http://www.w3.org/Graphics/SVG/1.1/DTD/svg11.dtd">
<!-- Generated by graphviz version 2.43.0 (0)
 -->
<!-- Title: debugoutput Pages: 1 -->
<svg width="1710pt" height="651pt"
 viewBox="0.00 0.00 1710.00 650.80" xmlns="http://www.w3.org/2000/svg" xmlns:xlink="http://www.w3.org/1999/xlink">
<g id="graph0" class="graph" transform="scale(1 1) rotate(0) translate(4 646.8)">
<title>debugoutput</title>
<polygon fill="white" stroke="transparent" points="-4,4 -4,-646.8 1706,-646.8 1706,4 -4,4"/>
<g id="clust1" class="cluster">
<title>cluster_000</title>
<polygon fill="none" stroke="black" points="718,-592.2 718,-634.8 1694,-634.8 1694,-592.2 718,-592.2"/>
<text text-anchor="middle" x="1206" y="-619.6" font-family="Times,serif" font-size="14.00">Legend</text>
</g>
<!-- node0 -->
<g id="node1" class="node">
<title>node0</title>
<polygon fill="lightgrey" stroke="black" points="708,-620 542,-620 542,-584 708,-584 708,-620"/>
<text text-anchor="middle" x="625" y="-598.3" font-family="Times,serif" font-size="14.00">#0 Method Order : 0</text>
</g>
<!-- node1 -->
<g id="node2" class="node">
<title>node1</title>
<polygon fill="lightgrey" stroke="black" points="186,-547 0,-547 0,-511 186,-511 186,-547"/>
<text text-anchor="middle" x="93" y="-525.3" font-family="Times,serif" font-size="14.00">#1 arg3 : int Order : 13</text>
</g>
<!-- node0&#45;&gt;node1 -->
<g id="edge2" class="edge">
<title>node0&#45;&gt;node1</title>
<path fill="none" stroke="black" d="M541.81,-592.32C455.69,-582.62 317.23,-565.97 195.92,-548.44"/>
<polygon fill="black" stroke="black" points="196.13,-544.93 185.73,-546.96 195.13,-551.86 196.13,-544.93"/>
<text text-anchor="middle" x="204.89" y="-537.5" font-family="Times,serif" font-size="14.00">*0</text>
</g>
<!-- node2 -->
<g id="node3" class="node">
<title>node2</title>
<polygon fill="lightgrey" stroke="black" points="1014.5,-547 837.5,-547 837.5,-511 1014.5,-511 1014.5,-547"/>
<text text-anchor="middle" x="926" y="-525.3" font-family="Times,serif" font-size="14.00">#2 arg1 : int Order : 4</text>
</g>
<!-- node0&#45;&gt;node2 -->
<g id="edge4" class="edge">
<title>node0&#45;&gt;node2</title>
<path fill="none" stroke="black" d="M691.24,-583.99C734.38,-573.56 791.09,-560.16 837.99,-549.32"/>
<polygon fill="black" stroke="black" points="838.89,-552.71 847.85,-547.05 837.31,-545.89 838.89,-552.71"/>
<text text-anchor="middle" x="832.08" y="-555.66" font-family="Times,serif" font-size="14.00">*0</text>
</g>
<!-- node3 -->
<g id="node4" class="node">
<title>node3</title>
<polygon fill="lightgrey" stroke="black" points="819.5,-547 642.5,-547 642.5,-511 819.5,-511 819.5,-547"/>
<text text-anchor="middle" x="731" y="-525.3" font-family="Times,serif" font-size="14.00">#3 arg0 : int Order : 3</text>
</g>
<!-- node0&#45;&gt;node3 -->
<g id="edge6" class="edge">
<title>node0&#45;&gt;node3</title>
<path fill="none" stroke="black" d="M644.53,-583.99C657.59,-574.58 675.08,-562.76 690.96,-552.57"/>
<polygon fill="black" stroke="black" points="693.01,-555.42 699.58,-547.11 689.26,-549.51 693.01,-555.42"/>
<text text-anchor="middle" x="688.79" y="-560.26" font-family="Times,serif" font-size="14.00">*0</text>
</g>
<!-- node4 -->
<g id="node5" class="node">
<title>node4</title>
<polygon fill="lightgrey" stroke="black" points="624.5,-547 447.5,-547 447.5,-511 624.5,-511 624.5,-547"/>
<text text-anchor="middle" x="536" y="-525.3" font-family="Times,serif" font-size="14.00">#4 arg2 : int Order : 2</text>
</g>
<!-- node0&#45;&gt;node4 -->
<g id="edge8" class="edge">
<title>node0&#45;&gt;node4</title>
<path fill="none" stroke="black" d="M597.58,-583.81C585.26,-574.74 570.96,-563.48 559.18,-553.6"/>
<polygon fill="black" stroke="black" points="561.36,-550.86 551.48,-547.03 556.82,-556.18 561.36,-550.86"/>
<text text-anchor="middle" x="570.76" y="-548.67" font-family="Times,serif" font-size="14.00">*0</text>
</g>
<!-- node5 -->
<g id="node6" class="node">
<title>node5</title>
<polygon fill="lightgrey" stroke="black" points="392,-547 204,-547 204,-511 392,-511 392,-547"/>
<text text-anchor="middle" x="298" y="-525.3" font-family="Times,serif" font-size="14.00">#5 LabelNode Order : 1</text>
</g>
<!-- node0&#45;&gt;node5 -->
<g id="edge10" class="edge">
<title>node0&#45;&gt;node5</title>
<path fill="none" stroke="red" d="M541.98,-592.08C498.34,-586.26 444.31,-577.58 397,-566 379.75,-561.78 361.31,-556.08 345.02,-550.47"/>
<polygon fill="red" stroke="red" points="345.78,-547.03 335.19,-547 343.45,-553.63 345.78,-547.03"/>
</g>
<!-- node15 -->
<g id="node16" class="node">
<title>node15</title>
<polygon fill="lightgrey" stroke="black" points="1120.5,-36 869.5,-36 869.5,0 1120.5,0 1120.5,-36"/>
<text text-anchor="middle" x="995" y="-14.3" font-family="Times,serif" font-size="14.00">#15 ReturnValue : int Order : 15</text>
</g>
<!-- node0&#45;&gt;node15 -->
<g id="edge37" class="edge">
<title>node0&#45;&gt;node15</title>
<path fill="none" stroke="green" d="M705.25,-583.97C747.97,-578.82 1054.96,-579.15 1082,-547 1210.19,-394.57 1057.36,-128.56 1008.69,-44.93"/>
<polygon fill="green" stroke="green" points="1011.6,-42.97 1003.54,-36.09 1005.55,-46.49 1011.6,-42.97"/>
</g>
<!-- node1&#45;&gt;node0 -->
<g id="edge1" class="edge">
<title>node1&#45;&gt;node0</title>
<path fill="none" stroke="fuchsia" stroke-width="2" d="M186.27,-544.32C192.28,-545.25 198.23,-546.16 204,-547 316.68,-563.46 446.42,-579.33 531.8,-589.56"/>
<polygon fill="fuchsia" stroke="fuchsia" stroke-width="2" points="531.65,-593.06 541.99,-590.78 532.48,-586.11 531.65,-593.06"/>
</g>
<!-- node8 -->
<g id="node9" class="node">
<title>node8</title>
<polygon fill="lightgreen" stroke="black" points="1104.08,-302.54 1104.08,-317.46 1040.18,-328 949.82,-328 885.92,-317.46 885.92,-302.54 949.82,-292 1040.18,-292 1104.08,-302.54"/>
<text text-anchor="middle" x="995" y="-306.3" font-family="Times,serif" font-size="14.00">#8 Φ int Order : 14</text>
</g>
<!-- node1&#45;&gt;node8 -->
<g id="edge20" class="edge">
<title>node1&#45;&gt;node8</title>
<path fill="none" stroke="blue" d="M144.54,-510.96C243.64,-478.72 468.02,-408.13 661,-365 741.43,-347.03 834.01,-332.53 901.28,-323.11"/>
<polygon fill="blue" stroke="blue" points="902.01,-326.54 911.43,-321.69 901.05,-319.6 902.01,-326.54"/>
<text text-anchor="middle" x="894.64" y="-328.86" font-family="Times,serif" font-size="14.00">if #12</text>
</g>
<!-- node2&#45;&gt;node0 -->
<g id="edge3" class="edge">
<title>node2&#45;&gt;node0</title>
<path fill="none" stroke="fuchsia" stroke-width="2" d="M859.57,-547.05C816.39,-557.5 759.67,-570.89 712.8,-581.72"/>
<polygon fill="fuchsia" stroke="fuchsia" stroke-width="2" points="711.91,-578.34 702.96,-583.99 713.49,-585.16 711.91,-578.34"/>
</g>
<!-- node6 -->
<g id="node7" class="node">
<title>node6</title>
<polygon fill="orange" stroke="black" points="924.42,-448.54 924.42,-463.46 811.12,-474 650.88,-474 537.58,-463.46 537.58,-448.54 650.88,-438 811.12,-438 924.42,-448.54"/>
<text text-anchor="middle" x="731" y="-452.3" font-family="Times,serif" font-size="14.00">#6 NumericCondition : LE Order : 5</text>
</g>
<!-- node2&#45;&gt;node6 -->
<g id="edge13" class="edge">
<title>node2&#45;&gt;node6</title>
<path fill="none" stroke="black" d="M879.29,-510.99C851.76,-500.97 816.72,-488.21 787.62,-477.62"/>
<polygon fill="black" stroke="black" points="788.6,-474.25 778,-474.11 786.2,-480.82 788.6,-474.25"/>
<text text-anchor="middle" x="797.93" y="-468.67" font-family="Times,serif" font-size="14.00">*1</text>
</g>
<!-- node3&#45;&gt;node0 -->
<g id="edge5" class="edge">
<title>node3&#45;&gt;node0</title>
<path fill="none" stroke="fuchsia" stroke-width="2" d="M711.32,-547.11C698.23,-556.55 680.73,-568.37 664.86,-578.54"/>
<polygon fill="fuchsia" stroke="fuchsia" stroke-width="2" points="662.82,-575.69 656.25,-583.99 666.57,-581.6 662.82,-575.69"/>
</g>
<!-- node3&#45;&gt;node6 -->
<g id="edge12" class="edge">
<title>node3&#45;&gt;node6</title>
<path fill="none" stroke="black" d="M731,-510.81C731,-502.79 731,-493.05 731,-484.07"/>
<polygon fill="black" stroke="black" points="734.5,-484.03 731,-474.03 727.5,-484.03 734.5,-484.03"/>
<text text-anchor="middle" x="739.45" y="-488.45" font-family="Times,serif" font-size="14.00">*0</text>
</g>
<!-- node4&#45;&gt;node0 -->
<g id="edge7" class="edge">
<title>node4&#45;&gt;node0</title>
<path fill="none" stroke="fuchsia" stroke-width="2" d="M563.21,-547.03C575.5,-556.07 589.8,-567.33 601.61,-577.23"/>
<polygon fill="fuchsia" stroke="fuchsia" stroke-width="2" points="599.45,-579.99 609.33,-583.81 604,-574.66 599.45,-579.99"/>
</g>
<!-- node4&#45;&gt;node8 -->
<g id="edge19" class="edge">
<title>node4&#45;&gt;node8</title>
<path fill="none" stroke="blue" d="M528.09,-510.79C520.21,-490.78 511.58,-457.95 529,-438 569.12,-392.05 742.46,-418.14 801,-401 857.34,-384.51 918.08,-354.06 956.3,-333.18"/>
<polygon fill="blue" stroke="blue" points="958.45,-335.99 965.52,-328.1 955.07,-329.86 958.45,-335.99"/>
<text text-anchor="middle" x="953.73" y="-340.56" font-family="Times,serif" font-size="14.00">if #13</text>
</g>
<!-- node5&#45;&gt;node0 -->
<g id="edge9" class="edge">
<title>node5&#45;&gt;node0</title>
<path fill="none" stroke="fuchsia" stroke-width="2" d="M351.82,-547C371.6,-553.66 394.17,-560.9 415,-566 452.86,-575.27 495.02,-582.68 531.61,-588.25"/>
<polygon fill="fuchsia" stroke="fuchsia" stroke-width="2" points="531.36,-591.76 541.77,-589.78 532.4,-584.83 531.36,-591.76"/>
</g>
<!-- node7 -->
<g id="node8" class="node">
<title>node7</title>
<polygon fill="lightgrey" stroke="black" points="792,-401 670,-401 670,-365 792,-365 792,-401"/>
<text text-anchor="middle" x="731" y="-379.3" font-family="Times,serif" font-size="14.00">#7 If Order : 6</text>
</g>
<!-- node5&#45;&gt;node7 -->
<g id="edge16" class="edge">
<title>node5&#45;&gt;node7</title>
<path fill="none" stroke="red" d="M337.99,-510.87C383.66,-491.66 460.89,-460.3 529,-438 571.91,-423.95 620.81,-410.81 659.75,-401"/>
<polygon fill="red" stroke="red" points="661.09,-404.28 669.94,-398.46 659.39,-397.49 661.09,-404.28"/>
</g>
<!-- node6&#45;&gt;node0 -->
<g id="edge11" class="edge">
<title>node6&#45;&gt;node0</title>
<path fill="none" stroke="fuchsia" stroke-width="2" d="M579.18,-467.35C517.82,-474.98 456.99,-488.19 438,-511 404.47,-551.28 469.42,-574.84 531.77,-587.68"/>
<polygon fill="fuchsia" stroke="fuchsia" stroke-width="2" points="531.25,-591.15 541.73,-589.65 532.6,-584.28 531.25,-591.15"/>
</g>
<!-- node6&#45;&gt;node7 -->
<g id="edge15" class="edge">
<title>node6&#45;&gt;node7</title>
<path fill="none" stroke="black" d="M731,-437.81C731,-429.79 731,-420.05 731,-411.07"/>
<polygon fill="black" stroke="black" points="734.5,-411.03 731,-401.03 727.5,-411.03 734.5,-411.03"/>
<text text-anchor="middle" x="739.45" y="-415.45" font-family="Times,serif" font-size="14.00">*0</text>
</g>
<!-- node7&#45;&gt;node0 -->
<g id="edge14" class="edge">
<title>node7&#45;&gt;node0</title>
<path fill="none" stroke="fuchsia" stroke-width="2" d="M792.35,-394.11C898.38,-414.04 1097.81,-463.86 1024,-547 979.92,-596.65 799.07,-575.42 718.56,-583.61"/>
<polygon fill="fuchsia" stroke="fuchsia" stroke-width="2" points="717.83,-580.17 708.35,-584.9 718.71,-587.12 717.83,-580.17"/>
</g>
<!-- node7&#45;&gt;node8 -->
<g id="edge18" class="edge">
<title>node7&#45;&gt;node8</title>
<path fill="none" stroke="black" stroke-dasharray="1,5" d="M792.22,-367.39C817.04,-361.31 845.95,-354.04 872,-347 891.84,-341.64 913.39,-335.45 932.81,-329.74"/>
<polygon fill="black" stroke="black" points="933.86,-333.08 942.46,-326.9 931.88,-326.37 933.86,-333.08"/>
</g>
<!-- node9 -->
<g id="node10" class="node">
<title>node9</title>
<polygon fill="lightgrey" stroke="black" points="624.5,-328 479.5,-328 479.5,-292 624.5,-292 624.5,-328"/>
<text text-anchor="middle" x="552" y="-306.3" font-family="Times,serif" font-size="14.00">#9 false Order : 9</text>
</g>
<!-- node7&#45;&gt;node9 -->
<g id="edge22" class="edge">
<title>node7&#45;&gt;node9</title>
<path fill="none" stroke="red" d="M682.27,-364.99C656.27,-355.1 624.5,-342.54 598.8,-332.03"/>
<polygon fill="red" stroke="red" points="599.85,-328.68 589.27,-328.11 597.19,-335.16 599.85,-328.68"/>
</g>
<!-- node10 -->
<g id="node11" class="node">
<title>node10</title>
<polygon fill="lightgrey" stroke="black" points="806,-328 656,-328 656,-292 806,-292 806,-328"/>
<text text-anchor="middle" x="731" y="-306.3" font-family="Times,serif" font-size="14.00">#10 true Order : 7</text>
</g>
<!-- node7&#45;&gt;node10 -->
<g id="edge24" class="edge">
<title>node7&#45;&gt;node10</title>
<path fill="none" stroke="red" d="M725.12,-364.81C724.28,-356.79 724.05,-347.05 724.42,-338.07"/>
<polygon fill="red" stroke="red" points="727.92,-338.25 725.14,-328.03 720.94,-337.75 727.92,-338.25"/>
</g>
<!-- node8&#45;&gt;node0 -->
<g id="edge17" class="edge">
<title>node8&#45;&gt;node0</title>
<path fill="none" stroke="fuchsia" stroke-width="2" d="M1037.5,-328.04C1058.75,-339.64 1080,-357.39 1080,-382 1080,-530 1080,-530 1080,-530 1080,-565.78 1042.55,-556.72 1008,-566 884.78,-599.1 845.86,-569.28 718.47,-583.54"/>
<polygon fill="fuchsia" stroke="fuchsia" stroke-width="2" points="717.84,-580.09 708.33,-584.75 718.67,-587.04 717.84,-580.09"/>
</g>
<!-- node8&#45;&gt;node15 -->
<g id="edge35" class="edge">
<title>node8&#45;&gt;node15</title>
<path fill="none" stroke="black" d="M995,-291.78C995,-277.41 995,-256.37 995,-238 995,-238 995,-238 995,-90 995,-75.65 995,-59.67 995,-46.51"/>
<polygon fill="black" stroke="black" points="998.5,-46.22 995,-36.22 991.5,-46.22 998.5,-46.22"/>
<text text-anchor="middle" x="1003.45" y="-50.64" font-family="Times,serif" font-size="14.00">*0</text>
</g>
<!-- node9&#45;&gt;node7 -->
<g id="edge21" class="edge">
<title>node9&#45;&gt;node7</title>
<path fill="none" stroke="fuchsia" stroke-width="2" d="M601.02,-328.11C627.05,-338.03 658.82,-350.58 684.48,-361.08"/>
<polygon fill="fuchsia" stroke="fuchsia" stroke-width="2" points="683.4,-364.42 693.98,-364.99 686.07,-357.95 683.4,-364.42"/>
</g>
<!-- node11 -->
<g id="node12" class="node">
<title>node11</title>
<polygon fill="lightgrey" stroke="black" points="614,-255 408,-255 408,-219 614,-219 614,-255"/>
<text text-anchor="middle" x="511" y="-233.3" font-family="Times,serif" font-size="14.00">#11 LabelNode Order : 10</text>
</g>
<!-- node9&#45;&gt;node11 -->
<g id="edge26" class="edge">
<title>node9&#45;&gt;node11</title>
<path fill="none" stroke="red" d="M536.2,-291.81C530.55,-283.53 524.48,-273.41 519.59,-264.19"/>
<polygon fill="red" stroke="red" points="522.6,-262.39 514.97,-255.03 516.34,-265.53 522.6,-262.39"/>
</g>
<!-- node10&#45;&gt;node7 -->
<g id="edge23" class="edge">
<title>node10&#45;&gt;node7</title>
<path fill="none" stroke="fuchsia" stroke-width="2" d="M736.86,-328.03C737.71,-336.03 737.95,-345.77 737.59,-354.75"/>
<polygon fill="fuchsia" stroke="fuchsia" stroke-width="2" points="734.09,-354.59 736.88,-364.81 741.07,-355.08 734.09,-354.59"/>
</g>
<!-- node12 -->
<g id="node13" class="node">
<title>node12</title>
<polygon fill="lightgrey" stroke="black" points="829.5,-255 632.5,-255 632.5,-219 829.5,-219 829.5,-255"/>
<text text-anchor="middle" x="731" y="-233.3" font-family="Times,serif" font-size="14.00">#12 LabelNode Order : 8</text>
</g>
<!-- node10&#45;&gt;node12 -->
<g id="edge28" class="edge">
<title>node10&#45;&gt;node12</title>
<path fill="none" stroke="red" d="M725.12,-291.81C724.28,-283.79 724.05,-274.05 724.42,-265.07"/>
<polygon fill="red" stroke="red" points="727.92,-265.25 725.14,-255.03 720.94,-264.75 727.92,-265.25"/>
</g>
<!-- node11&#45;&gt;node9 -->
<g id="edge25" class="edge">
<title>node11&#45;&gt;node9</title>
<path fill="none" stroke="fuchsia" stroke-width="2" d="M526.7,-255.03C532.34,-263.29 538.41,-273.4 543.32,-282.63"/>
<polygon fill="fuchsia" stroke="fuchsia" stroke-width="2" points="540.32,-284.46 547.95,-291.81 546.57,-281.31 540.32,-284.46"/>
</g>
<!-- node13 -->
<g id="node14" class="node">
<title>node13</title>
<polygon fill="lightgrey" stroke="black" points="592.5,-182 429.5,-182 429.5,-146 592.5,-146 592.5,-182"/>
<text text-anchor="middle" x="511" y="-160.3" font-family="Times,serif" font-size="14.00">#13 Goto Order : 11</text>
</g>
<!-- node11&#45;&gt;node13 -->
<g id="edge30" class="edge">
<title>node11&#45;&gt;node13</title>
<path fill="none" stroke="red" d="M505.12,-218.81C504.28,-210.79 504.05,-201.05 504.42,-192.07"/>
<polygon fill="red" stroke="red" points="507.92,-192.25 505.14,-182.03 500.94,-191.75 507.92,-192.25"/>
</g>
<!-- node12&#45;&gt;node10 -->
<g id="edge27" class="edge">
<title>node12&#45;&gt;node10</title>
<path fill="none" stroke="fuchsia" stroke-width="2" d="M736.86,-255.03C737.71,-263.03 737.95,-272.77 737.59,-281.75"/>
<polygon fill="fuchsia" stroke="fuchsia" stroke-width="2" points="734.09,-281.59 736.88,-291.81 741.07,-282.08 734.09,-281.59"/>
</g>
<!-- node14 -->
<g id="node15" class="node">
<title>node14</title>
<polygon fill="lightgrey" stroke="black" points="913,-109 659,-109 659,-73 913,-73 913,-109"/>
<text text-anchor="middle" x="786" y="-87.3" font-family="Times,serif" font-size="14.00">#14 Merge : Merge20 Order : 12</text>
</g>
<!-- node12&#45;&gt;node14 -->
<g id="edge33" class="edge">
<title>node12&#45;&gt;node14</title>
<path fill="none" stroke="red" d="M737.53,-218.92C746.99,-194.12 764.63,-147.95 775.82,-118.66"/>
<polygon fill="red" stroke="red" points="779.18,-119.65 779.48,-109.06 772.65,-117.15 779.18,-119.65"/>
</g>
<!-- node13&#45;&gt;node11 -->
<g id="edge29" class="edge">
<title>node13&#45;&gt;node11</title>
<path fill="none" stroke="fuchsia" stroke-width="2" d="M516.86,-182.03C517.71,-190.03 517.95,-199.77 517.59,-208.75"/>
<polygon fill="fuchsia" stroke="fuchsia" stroke-width="2" points="514.09,-208.59 516.88,-218.81 521.07,-209.08 514.09,-208.59"/>
</g>
<!-- node13&#45;&gt;node14 -->
<g id="edge32" class="edge">
<title>node13&#45;&gt;node14</title>
<path fill="none" stroke="red" d="M576.87,-145.99C616.88,-135.66 668.12,-122.43 709.87,-111.66"/>
<polygon fill="red" stroke="red" points="710.91,-115 719.72,-109.11 709.16,-108.22 710.91,-115"/>
</g>
<!-- node14&#45;&gt;node7 -->
<g id="edge31" class="edge">
<title>node14&#45;&gt;node7</title>
<path fill="none" stroke="fuchsia" stroke-width="2" d="M819.89,-109.25C838.57,-121.4 858,-139.65 858,-163 858,-311 858,-311 858,-311 858,-328.14 822.3,-347.07 788.75,-361.07"/>
<polygon fill="fuchsia" stroke="fuchsia" stroke-width="2" points="787.32,-357.87 779.38,-364.88 789.96,-364.35 787.32,-357.87"/>
</g>
<!-- node14&#45;&gt;node15 -->
<g id="edge36" class="edge">
<title>node14&#45;&gt;node15</title>
<path fill="none" stroke="red" d="M836.06,-72.99C865.83,-62.88 903.77,-49.99 935.12,-39.34"/>
<polygon fill="red" stroke="red" points="936.28,-42.64 944.62,-36.11 934.03,-36.02 936.28,-42.64"/>
</g>
<!-- node15&#45;&gt;node0 -->
<g id="edge34" class="edge">
<title>node15&#45;&gt;node0</title>
<path fill="none" stroke="fuchsia" stroke-width="2" d="M1009.81,-36.09C1063.17,-107.89 1233.13,-388.7 1100,-547 1072.91,-579.21 764.77,-578.82 723,-584 721.49,-584.19 719.96,-584.39 718.43,-584.59"/>
<polygon fill="fuchsia" stroke="fuchsia" stroke-width="2" points="717.56,-581.18 708.17,-586.08 718.57,-588.11 717.56,-581.18"/>
</g>
<!-- c0 -->
<!-- c1 -->
<!-- c0&#45;&gt;c1 -->
<g id="edge38" class="edge">
<title>c0&#45;&gt;c1</title>
<path fill="none" stroke="red" d="M1576.89,-602C1588.11,-602 1646.24,-602 1671.86,-602"/>
<polygon fill="red" stroke="red" points="1672.06,-605.5 1682.06,-602 1672.06,-598.5 1672.06,-605.5"/>
<text text-anchor="middle" x="1629.5" y="-608.8" font-family="Times,serif" font-size="14.00">Control flow</text>
</g>
<!-- c2 -->
<!-- c3 -->
<!-- c2&#45;&gt;c3 -->
<g id="edge39" class="edge">
<title>c2&#45;&gt;c3</title>
<path fill="none" stroke="red" stroke-dasharray="5,2" d="M1370.08,-602C1387.05,-602 1503.21,-602 1541.08,-602"/>
<polygon fill="red" stroke="red" points="1541.17,-605.5 1551.17,-602 1541.17,-598.5 1541.17,-605.5"/>
<text text-anchor="middle" x="1460.5" y="-608.8" font-family="Times,serif" font-size="14.00">Control flow back edge</text>
</g>
<!-- d0 -->
<!-- d1 -->
<!-- d0&#45;&gt;d1 -->
<g id="edge40" class="edge">
<title>d0&#45;&gt;d1</title>
<path fill="none" stroke="black" d="M1258.86,-602C1268.41,-602 1312.31,-602 1333.92,-602"/>
<polygon fill="black" stroke="black" points="1334.15,-605.5 1344.15,-602 1334.15,-598.5 1334.15,-605.5"/>
<text text-anchor="middle" x="1301.5" y="-608.8" font-family="Times,serif" font-size="14.00">Data flow</text>
</g>
<!-- d2 -->
<!-- d3 -->
<!-- d2&#45;&gt;d3 -->
<g id="edge41" class="edge">
<title>d2&#45;&gt;d3</title>
<path fill="none" stroke="black" stroke-dasharray="1,5" d="M1132.81,-602C1143.46,-602 1198.46,-602 1223.08,-602"/>
<polygon fill="black" stroke="black" points="1223.15,-605.5 1233.15,-602 1223.15,-598.5 1223.15,-605.5"/>
<text text-anchor="middle" x="1183" y="-608.8" font-family="Times,serif" font-size="14.00">Declaration</text>
</g>
<!-- d4 -->
<!-- d5 -->
<!-- d4&#45;&gt;d5 -->
<g id="edge42" class="edge">
<title>d4&#45;&gt;d5</title>
<path fill="none" stroke="blue" d="M990.1,-602C1002.72,-602 1068.88,-602 1096.68,-602"/>
<polygon fill="blue" stroke="blue" points="1096.84,-605.5 1106.84,-602 1096.84,-598.5 1096.84,-605.5"/>
<text text-anchor="middle" x="1048.5" y="-608.8" font-family="Times,serif" font-size="14.00">PHI Data flow</text>
</g>
<!-- d6 -->
<!-- d7 -->
<!-- d6&#45;&gt;d7 -->
<g id="edge43" class="edge">
<title>d6&#45;&gt;d7</title>
<path fill="none" stroke="green" d="M853,-602C864.94,-602 927.3,-602 953.93,-602"/>
<polygon fill="green" stroke="green" points="953.95,-605.5 963.95,-602 953.95,-598.5 953.95,-605.5"/>
<text text-anchor="middle" x="908.5" y="-608.8" font-family="Times,serif" font-size="14.00">Memory flow</text>
</g>
<!-- d8 -->
<!-- d9 -->
<!-- d8&#45;&gt;d9 -->
<g id="edge44" class="edge">
<title>d8&#45;&gt;d9</title>
<path fill="none" stroke="fuchsia" d="M730.11,-602C741.15,-602 792.67,-602 816.66,-602"/>
<polygon fill="fuchsia" stroke="fuchsia" points="816.9,-605.5 826.9,-602 816.9,-598.5 816.9,-605.5"/>
<text text-anchor="middle" x="778.5" y="-608.8" font-family="Times,serif" font-size="14.00">Dominance</text>
</g>
</g>
</svg>
