<?xml version="1.0" encoding="UTF-8" standalone="no"?>
<!DOCTYPE svg PUBLIC "-//W3C//DTD SVG 1.1//EN"
 "http://www.w3.org/Graphics/SVG/1.1/DTD/svg11.dtd">
<!-- Generated by graphviz version 2.43.0 (0)
 -->
<!-- Title: debugoutput Pages: 1 -->
<svg width="1503pt" height="724pt"
 viewBox="0.00 0.00 1503.00 723.80" xmlns="http://www.w3.org/2000/svg" xmlns:xlink="http://www.w3.org/1999/xlink">
<g id="graph0" class="graph" transform="scale(1 1) rotate(0) translate(4 719.8)">
<title>debugoutput</title>
<polygon fill="white" stroke="transparent" points="-4,4 -4,-719.8 1499,-719.8 1499,4 -4,4"/>
<g id="clust1" class="cluster">
<title>cluster_000</title>
<polygon fill="none" stroke="black" points="648,-665.2 648,-707.8 1487,-707.8 1487,-665.2 648,-665.2"/>
<text text-anchor="middle" x="1067.5" y="-692.6" font-family="Times,serif" font-size="14.00">Legend</text>
</g>
<!-- node0 -->
<g id="node1" class="node">
<title>node0</title>
<polygon fill="lightgrey" stroke="black" points="638,-693 472,-693 472,-657 638,-657 638,-693"/>
<text text-anchor="middle" x="555" y="-671.3" font-family="Times,serif" font-size="14.00">#0 Method Order : 0</text>
</g>
<!-- node1 -->
<g id="node2" class="node">
<title>node1</title>
<polygon fill="lightgrey" stroke="black" points="186,-620 0,-620 0,-584 186,-584 186,-620"/>
<text text-anchor="middle" x="93" y="-598.3" font-family="Times,serif" font-size="14.00">#1 arg3 : int Order : 13</text>
</g>
<!-- node0&#45;&gt;node1 -->
<g id="edge2" class="edge">
<title>node0&#45;&gt;node1</title>
<path fill="none" stroke="black" d="M471.81,-671.47C397.34,-667.89 285.76,-659.34 191,-639 173.22,-635.18 154.27,-629.4 137.77,-623.59"/>
<polygon fill="black" stroke="black" points="138.95,-620.29 128.36,-620.17 136.56,-626.87 138.95,-620.29"/>
<text text-anchor="middle" x="148.28" y="-614.71" font-family="Times,serif" font-size="14.00">*0</text>
</g>
<!-- node2 -->
<g id="node3" class="node">
<title>node2</title>
<polygon fill="lightgrey" stroke="black" points="875.5,-620 698.5,-620 698.5,-584 875.5,-584 875.5,-620"/>
<text text-anchor="middle" x="787" y="-598.3" font-family="Times,serif" font-size="14.00">#2 arg0 : int Order : 4</text>
</g>
<!-- node0&#45;&gt;node2 -->
<g id="edge4" class="edge">
<title>node0&#45;&gt;node2</title>
<path fill="none" stroke="black" d="M613.49,-656.99C633.39,-651.55 655.69,-645.31 676,-639 691.3,-634.25 707.72,-628.67 723.16,-623.34"/>
<polygon fill="black" stroke="black" points="724.32,-626.64 732.63,-620.06 722.03,-620.02 724.32,-626.64"/>
<text text-anchor="middle" x="718.27" y="-630.28" font-family="Times,serif" font-size="14.00">*0</text>
</g>
<!-- node3 -->
<g id="node4" class="node">
<title>node3</title>
<polygon fill="lightgrey" stroke="black" points="1070.5,-620 893.5,-620 893.5,-584 1070.5,-584 1070.5,-620"/>
<text text-anchor="middle" x="982" y="-598.3" font-family="Times,serif" font-size="14.00">#3 arg1 : int Order : 3</text>
</g>
<!-- node0&#45;&gt;node3 -->
<g id="edge6" class="edge">
<title>node0&#45;&gt;node3</title>
<path fill="none" stroke="black" d="M635.31,-656.95C741.85,-638.61 769.17,-637.56 876,-620 878.47,-619.59 880.98,-619.18 883.51,-618.76"/>
<polygon fill="black" stroke="black" points="884.09,-622.21 893.38,-617.1 882.93,-615.3 884.09,-622.21"/>
<text text-anchor="middle" x="876.9" y="-624.74" font-family="Times,serif" font-size="14.00">*0</text>
</g>
<!-- node4 -->
<g id="node5" class="node">
<title>node4</title>
<polygon fill="lightgrey" stroke="black" points="643.5,-620 466.5,-620 466.5,-584 643.5,-584 643.5,-620"/>
<text text-anchor="middle" x="555" y="-598.3" font-family="Times,serif" font-size="14.00">#4 arg2 : int Order : 2</text>
</g>
<!-- node0&#45;&gt;node4 -->
<g id="edge8" class="edge">
<title>node0&#45;&gt;node4</title>
<path fill="none" stroke="black" d="M549.12,-656.81C548.28,-648.79 548.05,-639.05 548.42,-630.07"/>
<polygon fill="black" stroke="black" points="551.92,-630.25 549.14,-620.03 544.94,-629.75 551.92,-630.25"/>
<text text-anchor="middle" x="556.28" y="-635.01" font-family="Times,serif" font-size="14.00">*0</text>
</g>
<!-- node5 -->
<g id="node6" class="node">
<title>node5</title>
<polygon fill="lightgrey" stroke="black" points="448,-620 260,-620 260,-584 448,-584 448,-620"/>
<text text-anchor="middle" x="354" y="-598.3" font-family="Times,serif" font-size="14.00">#5 LabelNode Order : 1</text>
</g>
<!-- node0&#45;&gt;node5 -->
<g id="edge10" class="edge">
<title>node0&#45;&gt;node5</title>
<path fill="none" stroke="red" d="M501,-656.99C471.55,-646.97 435.33,-634.21 406.17,-623.62"/>
<polygon fill="red" stroke="red" points="407.17,-620.26 396.58,-620.11 404.77,-626.83 407.17,-620.26"/>
</g>
<!-- node15 -->
<g id="node16" class="node">
<title>node15</title>
<polygon fill="lightgrey" stroke="black" points="371.5,-36 120.5,-36 120.5,0 371.5,0 371.5,-36"/>
<text text-anchor="middle" x="246" y="-14.3" font-family="Times,serif" font-size="14.00">#15 ReturnValue : int Order : 15</text>
</g>
<!-- node0&#45;&gt;node15 -->
<g id="edge37" class="edge">
<title>node0&#45;&gt;node15</title>
<path fill="none" stroke="black" d="M471.92,-672.73C370.92,-668.98 214,-654.87 214,-603 214,-603 214,-603 214,-90 214,-74.57 218.98,-58.13 225.21,-44.96"/>
<polygon fill="black" stroke="black" points="228.36,-46.49 229.91,-36.01 222.16,-43.23 228.36,-46.49"/>
</g>
<!-- node1&#45;&gt;node0 -->
<g id="edge1" class="edge">
<title>node1&#45;&gt;node0</title>
<path fill="none" stroke="green" stroke-width="2" d="M144.62,-620.08C164.58,-626.99 187.63,-634.41 209,-639 293.55,-657.15 391.48,-665.91 461.58,-670.13"/>
<polygon fill="green" stroke="green" stroke-width="2" points="461.53,-673.63 471.72,-670.72 461.94,-666.64 461.53,-673.63"/>
</g>
<!-- node14 -->
<g id="node15" class="node">
<title>node14</title>
<polygon fill="orange" stroke="black" points="543.25,-83.54 543.25,-98.46 475.74,-109 380.26,-109 312.75,-98.46 312.75,-83.54 380.26,-73 475.74,-73 543.25,-83.54"/>
<text text-anchor="middle" x="428" y="-87.3" font-family="Times,serif" font-size="14.00">#14 Φ int Order : 14</text>
</g>
<!-- node1&#45;&gt;node14 -->
<g id="edge33" class="edge">
<title>node1&#45;&gt;node14</title>
<path fill="none" stroke="blue" d="M94.08,-583.84C98.37,-527.08 118.23,-342.04 200,-219 237.19,-163.05 307.78,-129.31 360.61,-110.82"/>
<polygon fill="blue" stroke="blue" points="361.91,-114.07 370.26,-107.54 359.66,-107.44 361.91,-114.07"/>
<text text-anchor="middle" x="355.81" y="-117.67" font-family="Times,serif" font-size="14.00">if #11</text>
</g>
<!-- node2&#45;&gt;node0 -->
<g id="edge3" class="edge">
<title>node2&#45;&gt;node0</title>
<path fill="none" stroke="green" stroke-width="2" d="M749.46,-620.06C732.59,-626.31 712.47,-633.26 694,-639 676.86,-644.32 658.31,-649.6 640.49,-654.38"/>
<polygon fill="green" stroke="green" stroke-width="2" points="639.45,-651.04 630.68,-656.99 641.24,-657.8 639.45,-651.04"/>
</g>
<!-- node6 -->
<g id="node7" class="node">
<title>node6</title>
<polygon fill="orange" stroke="black" points="1097.42,-521.54 1097.42,-536.46 984.12,-547 823.88,-547 710.58,-536.46 710.58,-521.54 823.88,-511 984.12,-511 1097.42,-521.54"/>
<text text-anchor="middle" x="904" y="-525.3" font-family="Times,serif" font-size="14.00">#6 NumericCondition : LE Order : 5</text>
</g>
<!-- node2&#45;&gt;node6 -->
<g id="edge13" class="edge">
<title>node2&#45;&gt;node6</title>
<path fill="none" stroke="black" d="M815.02,-583.99C830.54,-574.58 850.02,-562.76 866.8,-552.57"/>
<polygon fill="black" stroke="black" points="869.07,-555.29 875.8,-547.11 865.43,-549.31 869.07,-555.29"/>
<text text-anchor="middle" x="864.69" y="-560.04" font-family="Times,serif" font-size="14.00">*1</text>
</g>
<!-- node3&#45;&gt;node0 -->
<g id="edge5" class="edge">
<title>node3&#45;&gt;node0</title>
<path fill="none" stroke="green" stroke-width="2" d="M893.69,-620.05C787.02,-637.58 759.69,-638.63 653,-657 651.5,-657.26 649.98,-657.52 648.46,-657.79"/>
<polygon fill="green" stroke="green" stroke-width="2" points="647.48,-654.41 638.25,-659.61 648.71,-661.3 647.48,-654.41"/>
</g>
<!-- node3&#45;&gt;node6 -->
<g id="edge12" class="edge">
<title>node3&#45;&gt;node6</title>
<path fill="none" stroke="black" d="M963.12,-583.81C953.25,-574.83 941.02,-563.69 930.24,-553.89"/>
<polygon fill="black" stroke="black" points="932.46,-551.17 922.71,-547.03 927.75,-556.35 932.46,-551.17"/>
<text text-anchor="middle" x="941.8" y="-549.28" font-family="Times,serif" font-size="14.00">*0</text>
</g>
<!-- node4&#45;&gt;node0 -->
<g id="edge7" class="edge">
<title>node4&#45;&gt;node0</title>
<path fill="none" stroke="green" stroke-width="2" d="M560.86,-620.03C561.71,-628.03 561.95,-637.77 561.59,-646.75"/>
<polygon fill="green" stroke="green" stroke-width="2" points="558.09,-646.59 560.88,-656.81 565.07,-647.08 558.09,-646.59"/>
</g>
<!-- node4&#45;&gt;node14 -->
<g id="edge32" class="edge">
<title>node4&#45;&gt;node14</title>
<path fill="none" stroke="blue" d="M551.57,-583.98C546.17,-552.21 539.22,-483.05 570,-438 590.75,-407.64 623.82,-431.74 644,-401 688.61,-333.05 688.47,-271 626,-219 568.61,-171.22 341.81,-237.64 292,-182 281.33,-170.08 283.01,-159.24 292,-146 304.07,-128.22 323.02,-116.29 342.98,-108.29"/>
<polygon fill="blue" stroke="blue" points="344.34,-111.52 352.51,-104.78 341.92,-104.95 344.34,-111.52"/>
<text text-anchor="middle" x="338.42" y="-115.28" font-family="Times,serif" font-size="14.00">if #12</text>
</g>
<!-- node5&#45;&gt;node0 -->
<g id="edge9" class="edge">
<title>node5&#45;&gt;node0</title>
<path fill="none" stroke="green" stroke-width="2" d="M408.32,-620.11C437.81,-630.16 474.03,-642.92 503.14,-653.5"/>
<polygon fill="green" stroke="green" stroke-width="2" points="502.12,-656.85 512.71,-656.99 504.52,-650.28 502.12,-656.85"/>
</g>
<!-- node7 -->
<g id="node8" class="node">
<title>node7</title>
<polygon fill="lightgrey" stroke="black" points="701,-474 579,-474 579,-438 701,-438 701,-474"/>
<text text-anchor="middle" x="640" y="-452.3" font-family="Times,serif" font-size="14.00">#7 If Order : 6</text>
</g>
<!-- node5&#45;&gt;node7 -->
<g id="edge16" class="edge">
<title>node5&#45;&gt;node7</title>
<path fill="none" stroke="red" d="M387.93,-583.92C440.07,-557.66 539.84,-507.43 596.98,-478.66"/>
<polygon fill="red" stroke="red" points="598.76,-481.69 606.11,-474.06 595.61,-475.43 598.76,-481.69"/>
</g>
<!-- node6&#45;&gt;node0 -->
<g id="edge11" class="edge">
<title>node6&#45;&gt;node0</title>
<path fill="none" stroke="green" stroke-width="2" d="M995.7,-545.93C1054.19,-559.93 1113.26,-583.8 1080,-620 1048.71,-654.05 726.06,-650.81 648.3,-656.81"/>
<polygon fill="green" stroke="green" stroke-width="2" points="647.93,-653.33 638.34,-657.81 648.64,-660.29 647.93,-653.33"/>
</g>
<!-- node6&#45;&gt;node7 -->
<g id="edge15" class="edge">
<title>node6&#45;&gt;node7</title>
<path fill="none" stroke="black" d="M840.77,-510.99C801.73,-500.5 751.56,-487 711.14,-476.13"/>
<polygon fill="black" stroke="black" points="711.92,-472.72 701.35,-473.5 710.1,-479.48 711.92,-472.72"/>
<text text-anchor="middle" x="721.05" y="-466.35" font-family="Times,serif" font-size="14.00">*0</text>
</g>
<!-- node7&#45;&gt;node0 -->
<g id="edge14" class="edge">
<title>node7&#45;&gt;node0</title>
<path fill="none" stroke="green" stroke-width="2" d="M647.24,-474.15C659.27,-505.54 679.46,-573.28 652,-620 643.95,-633.7 631.02,-644.17 617.2,-652.08"/>
<polygon fill="green" stroke="green" stroke-width="2" points="615.24,-649.16 608.02,-656.92 618.5,-655.35 615.24,-649.16"/>
</g>
<!-- node8 -->
<g id="node9" class="node">
<title>node8</title>
<polygon fill="lightgrey" stroke="black" points="634.5,-401 489.5,-401 489.5,-365 634.5,-365 634.5,-401"/>
<text text-anchor="middle" x="562" y="-379.3" font-family="Times,serif" font-size="14.00">#8 false Order : 9</text>
</g>
<!-- node7&#45;&gt;node8 -->
<g id="edge18" class="edge">
<title>node7&#45;&gt;node8</title>
<path fill="none" stroke="red" d="M615.24,-437.81C604.54,-428.92 592.26,-417.91 582.12,-408.17"/>
<polygon fill="red" stroke="red" points="584.43,-405.54 574.85,-401.03 579.53,-410.53 584.43,-405.54"/>
</g>
<!-- node9 -->
<g id="node10" class="node">
<title>node9</title>
<polygon fill="lightgrey" stroke="black" points="853.5,-401 712.5,-401 712.5,-365 853.5,-365 853.5,-401"/>
<text text-anchor="middle" x="783" y="-379.3" font-family="Times,serif" font-size="14.00">#9 true Order : 7</text>
</g>
<!-- node7&#45;&gt;node9 -->
<g id="edge20" class="edge">
<title>node7&#45;&gt;node9</title>
<path fill="none" stroke="red" d="M668.39,-437.99C687.02,-428.23 711.77,-415.88 733.54,-405.45"/>
<polygon fill="red" stroke="red" points="735.13,-408.57 742.66,-401.11 732.13,-402.25 735.13,-408.57"/>
</g>
<!-- node8&#45;&gt;node7 -->
<g id="edge17" class="edge">
<title>node8&#45;&gt;node7</title>
<path fill="none" stroke="green" stroke-width="2" d="M586.57,-401.03C597.25,-409.9 609.54,-420.9 619.7,-430.65"/>
<polygon fill="green" stroke="green" stroke-width="2" points="617.41,-433.31 627,-437.81 622.31,-428.31 617.41,-433.31"/>
</g>
<!-- node10 -->
<g id="node11" class="node">
<title>node10</title>
<polygon fill="lightgrey" stroke="black" points="639,-328 433,-328 433,-292 639,-292 639,-328"/>
<text text-anchor="middle" x="536" y="-306.3" font-family="Times,serif" font-size="14.00">#10 LabelNode Order : 10</text>
</g>
<!-- node8&#45;&gt;node10 -->
<g id="edge22" class="edge">
<title>node8&#45;&gt;node10</title>
<path fill="none" stroke="red" d="M549.83,-364.81C546.01,-356.7 542.17,-346.84 539.24,-337.78"/>
<polygon fill="red" stroke="red" points="542.55,-336.64 536.37,-328.03 535.84,-338.61 542.55,-336.64"/>
</g>
<!-- node9&#45;&gt;node7 -->
<g id="edge19" class="edge">
<title>node9&#45;&gt;node7</title>
<path fill="none" stroke="green" stroke-width="2" d="M754.4,-401.11C735.73,-410.9 710.97,-423.25 689.22,-433.66"/>
<polygon fill="green" stroke="green" stroke-width="2" points="687.64,-430.54 680.11,-437.99 690.65,-436.86 687.64,-430.54"/>
</g>
<!-- node11 -->
<g id="node12" class="node">
<title>node11</title>
<polygon fill="lightgrey" stroke="black" points="892.5,-328 695.5,-328 695.5,-292 892.5,-292 892.5,-328"/>
<text text-anchor="middle" x="794" y="-306.3" font-family="Times,serif" font-size="14.00">#11 LabelNode Order : 8</text>
</g>
<!-- node9&#45;&gt;node11 -->
<g id="edge24" class="edge">
<title>node9&#45;&gt;node11</title>
<path fill="none" stroke="red" d="M779.78,-364.81C780.19,-356.79 781.46,-347.05 783.23,-338.07"/>
<polygon fill="red" stroke="red" points="786.71,-338.55 785.5,-328.03 779.88,-337.01 786.71,-338.55"/>
</g>
<!-- node10&#45;&gt;node8 -->
<g id="edge21" class="edge">
<title>node10&#45;&gt;node8</title>
<path fill="none" stroke="green" stroke-width="2" d="M548.1,-328.03C551.92,-336.12 555.76,-345.98 558.7,-355.05"/>
<polygon fill="green" stroke="green" stroke-width="2" points="555.4,-356.21 561.58,-364.81 562.11,-354.23 555.4,-356.21"/>
</g>
<!-- node12 -->
<g id="node13" class="node">
<title>node12</title>
<polygon fill="lightgrey" stroke="black" points="617.5,-255 454.5,-255 454.5,-219 617.5,-219 617.5,-255"/>
<text text-anchor="middle" x="536" y="-233.3" font-family="Times,serif" font-size="14.00">#12 Goto Order : 11</text>
</g>
<!-- node10&#45;&gt;node12 -->
<g id="edge26" class="edge">
<title>node10&#45;&gt;node12</title>
<path fill="none" stroke="red" d="M530.12,-291.81C529.28,-283.79 529.05,-274.05 529.42,-265.07"/>
<polygon fill="red" stroke="red" points="532.92,-265.25 530.14,-255.03 525.94,-264.75 532.92,-265.25"/>
</g>
<!-- node11&#45;&gt;node9 -->
<g id="edge23" class="edge">
<title>node11&#45;&gt;node9</title>
<path fill="none" stroke="green" stroke-width="2" d="M797.22,-328.03C796.83,-336.12 795.54,-345.98 793.75,-355.05"/>
<polygon fill="green" stroke="green" stroke-width="2" points="790.33,-354.29 791.54,-364.81 797.16,-355.83 790.33,-354.29"/>
</g>
<!-- node13 -->
<g id="node14" class="node">
<title>node13</title>
<polygon fill="lightgrey" stroke="black" points="555,-182 301,-182 301,-146 555,-146 555,-182"/>
<text text-anchor="middle" x="428" y="-160.3" font-family="Times,serif" font-size="14.00">#13 Merge : Merge20 Order : 12</text>
</g>
<!-- node11&#45;&gt;node13 -->
<g id="edge29" class="edge">
<title>node11&#45;&gt;node13</title>
<path fill="none" stroke="red" d="M778.66,-291.77C760.35,-272.03 728.04,-239.76 695,-219 656.47,-194.79 609.18,-181.15 565.16,-173.56"/>
<polygon fill="red" stroke="red" points="565.67,-170.09 555.24,-171.93 564.54,-177 565.67,-170.09"/>
</g>
<!-- node12&#45;&gt;node10 -->
<g id="edge25" class="edge">
<title>node12&#45;&gt;node10</title>
<path fill="none" stroke="green" stroke-width="2" d="M541.86,-255.03C542.71,-263.03 542.95,-272.77 542.59,-281.75"/>
<polygon fill="green" stroke="green" stroke-width="2" points="539.09,-281.59 541.88,-291.81 546.07,-282.08 539.09,-281.59"/>
</g>
<!-- node12&#45;&gt;node13 -->
<g id="edge28" class="edge">
<title>node12&#45;&gt;node13</title>
<path fill="none" stroke="red" d="M510.13,-218.99C495.94,-209.67 478.16,-197.97 462.77,-187.86"/>
<polygon fill="red" stroke="red" points="464.31,-184.68 454.03,-182.11 460.47,-190.53 464.31,-184.68"/>
</g>
<!-- node13&#45;&gt;node7 -->
<g id="edge27" class="edge">
<title>node13&#45;&gt;node7</title>
<path fill="none" stroke="green" stroke-width="2" d="M419.17,-182.01C412.69,-196.09 405,-216.82 405,-236 405,-384 405,-384 405,-384 405,-418.63 499.7,-437.9 568.86,-447.36"/>
<polygon fill="green" stroke="green" stroke-width="2" points="568.5,-450.85 578.87,-448.69 569.42,-443.91 568.5,-450.85"/>
</g>
<!-- node13&#45;&gt;node14 -->
<g id="edge31" class="edge">
<title>node13&#45;&gt;node14</title>
<path fill="none" stroke="black" stroke-dasharray="1,5" d="M428,-145.81C428,-137.79 428,-128.05 428,-119.07"/>
<polygon fill="black" stroke="black" points="431.5,-119.03 428,-109.03 424.5,-119.03 431.5,-119.03"/>
</g>
<!-- node13&#45;&gt;node15 -->
<g id="edge36" class="edge">
<title>node13&#45;&gt;node15</title>
<path fill="none" stroke="red" d="M370.33,-145.95C347.95,-137.38 323.14,-125.27 304,-109 283.43,-91.51 267.53,-64.9 257.63,-45.15"/>
<polygon fill="red" stroke="red" points="260.75,-43.56 253.25,-36.07 254.44,-46.6 260.75,-43.56"/>
</g>
<!-- node14&#45;&gt;node0 -->
<g id="edge30" class="edge">
<title>node14&#45;&gt;node0</title>
<path fill="none" stroke="green" stroke-width="2" d="M543.33,-92.01C743.95,-93.58 1136,-104.17 1136,-163 1136,-603 1136,-603 1136,-603 1136,-652.33 1079.69,-631.07 1031,-639 864.29,-666.14 816.8,-637.91 648.28,-656.57"/>
<polygon fill="green" stroke="green" stroke-width="2" points="647.86,-653.1 638.32,-657.71 648.66,-660.05 647.86,-653.1"/>
</g>
<!-- node14&#45;&gt;node15 -->
<g id="edge35" class="edge">
<title>node14&#45;&gt;node15</title>
<path fill="none" stroke="black" d="M384.41,-72.99C358.82,-63.01 326.29,-50.32 299.2,-39.76"/>
<polygon fill="black" stroke="black" points="300.46,-36.49 289.87,-36.11 297.91,-43.01 300.46,-36.49"/>
<text text-anchor="middle" x="309.83" y="-31.13" font-family="Times,serif" font-size="14.00">*0</text>
</g>
<!-- node15&#45;&gt;node0 -->
<g id="edge34" class="edge">
<title>node15&#45;&gt;node0</title>
<path fill="none" stroke="green" stroke-width="2" d="M244.43,-36.01C239.69,-50.09 232,-70.82 232,-90 232,-603 232,-603 232,-603 232,-650.91 365.9,-666.61 461.32,-671.68"/>
<polygon fill="green" stroke="green" stroke-width="2" points="461.43,-675.19 471.59,-672.19 461.78,-668.2 461.43,-675.19"/>
</g>
<!-- c0 -->
<!-- c1 -->
<!-- c0&#45;&gt;c1 -->
<g id="edge38" class="edge">
<title>c0&#45;&gt;c1</title>
<path fill="none" stroke="red" d="M1369.89,-675C1381.11,-675 1439.24,-675 1464.86,-675"/>
<polygon fill="red" stroke="red" points="1465.06,-678.5 1475.06,-675 1465.06,-671.5 1465.06,-678.5"/>
<text text-anchor="middle" x="1422.5" y="-681.8" font-family="Times,serif" font-size="14.00">Control flow</text>
</g>
<!-- c2 -->
<!-- c3 -->
<!-- c2&#45;&gt;c3 -->
<g id="edge39" class="edge">
<title>c2&#45;&gt;c3</title>
<path fill="none" stroke="red" stroke-dasharray="5,2" d="M1163.08,-675C1180.05,-675 1296.21,-675 1334.08,-675"/>
<polygon fill="red" stroke="red" points="1334.17,-678.5 1344.17,-675 1334.17,-671.5 1334.17,-678.5"/>
<text text-anchor="middle" x="1253.5" y="-681.8" font-family="Times,serif" font-size="14.00">Control flow back edge</text>
</g>
<!-- d0 -->
<!-- d1 -->
<!-- d0&#45;&gt;d1 -->
<g id="edge40" class="edge">
<title>d0&#45;&gt;d1</title>
<path fill="none" stroke="black" d="M1051.86,-675C1061.41,-675 1105.31,-675 1126.92,-675"/>
<polygon fill="black" stroke="black" points="1127.15,-678.5 1137.15,-675 1127.15,-671.5 1127.15,-678.5"/>
<text text-anchor="middle" x="1094.5" y="-681.8" font-family="Times,serif" font-size="14.00">Data flow</text>
</g>
<!-- d2 -->
<!-- d3 -->
<!-- d2&#45;&gt;d3 -->
<g id="edge41" class="edge">
<title>d2&#45;&gt;d3</title>
<path fill="none" stroke="black" stroke-dasharray="1,5" d="M925.81,-675C936.46,-675 991.46,-675 1016.08,-675"/>
<polygon fill="black" stroke="black" points="1016.15,-678.5 1026.15,-675 1016.15,-671.5 1016.15,-678.5"/>
<text text-anchor="middle" x="976" y="-681.8" font-family="Times,serif" font-size="14.00">Declaration</text>
</g>
<!-- d4 -->
<!-- d5 -->
<!-- d4&#45;&gt;d5 -->
<g id="edge42" class="edge">
<title>d4&#45;&gt;d5</title>
<path fill="none" stroke="blue" d="M783.1,-675C795.72,-675 861.88,-675 889.68,-675"/>
<polygon fill="blue" stroke="blue" points="889.84,-678.5 899.84,-675 889.84,-671.5 889.84,-678.5"/>
<text text-anchor="middle" x="841.5" y="-681.8" font-family="Times,serif" font-size="14.00">PHI Data flow</text>
</g>
<!-- d6 -->
<!-- d7 -->
<!-- d6&#45;&gt;d7 -->
<g id="edge43" class="edge">
<title>d6&#45;&gt;d7</title>
<path fill="none" stroke="green" d="M660.11,-675C671.15,-675 722.67,-675 746.66,-675"/>
<polygon fill="green" stroke="green" points="746.9,-678.5 756.9,-675 746.9,-671.5 746.9,-678.5"/>
<text text-anchor="middle" x="708.5" y="-681.8" font-family="Times,serif" font-size="14.00">Dominance</text>
</g>
</g>
</svg>
