<?xml version="1.0" encoding="UTF-8" standalone="no"?>
<!DOCTYPE svg PUBLIC "-//W3C//DTD SVG 1.1//EN"
 "http://www.w3.org/Graphics/SVG/1.1/DTD/svg11.dtd">
<!-- Generated by graphviz version 2.43.0 (0)
 -->
<!-- Title: debugoutput Pages: 1 -->
<svg width="1813pt" height="651pt"
 viewBox="0.00 0.00 1813.00 650.80" xmlns="http://www.w3.org/2000/svg" xmlns:xlink="http://www.w3.org/1999/xlink">
<g id="graph0" class="graph" transform="scale(1 1) rotate(0) translate(4 646.8)">
<title>debugoutput</title>
<polygon fill="white" stroke="transparent" points="-4,4 -4,-646.8 1809,-646.8 1809,4 -4,4"/>
<g id="clust1" class="cluster">
<title>cluster_000</title>
<polygon fill="none" stroke="black" points="821,-592.2 821,-634.8 1797,-634.8 1797,-592.2 821,-592.2"/>
<text text-anchor="middle" x="1309" y="-619.6" font-family="Times,serif" font-size="14.00">Legend</text>
</g>
<!-- node0 -->
<g id="node1" class="node">
<title>node0</title>
<polygon fill="lightgrey" stroke="black" points="811,-620 645,-620 645,-584 811,-584 811,-620"/>
<text text-anchor="middle" x="728" y="-598.3" font-family="Times,serif" font-size="14.00">#0 Method Order : 0</text>
</g>
<!-- node1 -->
<g id="node2" class="node">
<title>node1</title>
<polygon fill="lightgrey" stroke="black" points="186,-547 0,-547 0,-511 186,-511 186,-547"/>
<text text-anchor="middle" x="93" y="-525.3" font-family="Times,serif" font-size="14.00">#1 arg2 : int Order : 13</text>
</g>
<!-- node0&#45;&gt;node1 -->
<g id="edge2" class="edge">
<title>node0&#45;&gt;node1</title>
<path fill="none" stroke="black" d="M644.93,-594.76C540.43,-586.18 355.56,-569.36 195.74,-548.29"/>
<polygon fill="black" stroke="black" points="196.11,-544.81 185.73,-546.96 195.19,-551.75 196.11,-544.81"/>
<text text-anchor="middle" x="204.81" y="-537.27" font-family="Times,serif" font-size="14.00">*0</text>
</g>
<!-- node2 -->
<g id="node3" class="node">
<title>node2</title>
<polygon fill="lightgrey" stroke="black" points="390,-547 204,-547 204,-511 390,-511 390,-547"/>
<text text-anchor="middle" x="297" y="-525.3" font-family="Times,serif" font-size="14.00">#2 arg3 : int Order : 12</text>
</g>
<!-- node0&#45;&gt;node2 -->
<g id="edge4" class="edge">
<title>node0&#45;&gt;node2</title>
<path fill="none" stroke="black" d="M644.85,-588.66C578.75,-578.2 483.81,-562.71 399.25,-548.7"/>
<polygon fill="black" stroke="black" points="399.69,-545.23 389.26,-547.04 398.55,-552.13 399.69,-545.23"/>
<text text-anchor="middle" x="408.52" y="-537.97" font-family="Times,serif" font-size="14.00">*0</text>
</g>
<!-- node3 -->
<g id="node4" class="node">
<title>node3</title>
<polygon fill="lightgrey" stroke="black" points="584.5,-547 407.5,-547 407.5,-511 584.5,-511 584.5,-547"/>
<text text-anchor="middle" x="496" y="-525.3" font-family="Times,serif" font-size="14.00">#3 arg0 : int Order : 3</text>
</g>
<!-- node0&#45;&gt;node3 -->
<g id="edge6" class="edge">
<title>node0&#45;&gt;node3</title>
<path fill="none" stroke="black" d="M652.32,-583.99C631.61,-578.55 609.31,-572.31 589,-566 573.99,-561.34 557.9,-555.88 543.34,-550.64"/>
<polygon fill="black" stroke="black" points="544.14,-547.2 533.54,-547.06 541.74,-553.78 544.14,-547.2"/>
<text text-anchor="middle" x="553.47" y="-541.64" font-family="Times,serif" font-size="14.00">*0</text>
</g>
<!-- node4 -->
<g id="node5" class="node">
<title>node4</title>
<polygon fill="lightgrey" stroke="black" points="816.5,-547 639.5,-547 639.5,-511 816.5,-511 816.5,-547"/>
<text text-anchor="middle" x="728" y="-525.3" font-family="Times,serif" font-size="14.00">#4 arg1 : int Order : 2</text>
</g>
<!-- node0&#45;&gt;node4 -->
<g id="edge8" class="edge">
<title>node0&#45;&gt;node4</title>
<path fill="none" stroke="black" d="M722.12,-583.81C721.28,-575.79 721.05,-566.05 721.42,-557.07"/>
<polygon fill="black" stroke="black" points="724.92,-557.25 722.14,-547.03 717.94,-556.75 724.92,-557.25"/>
<text text-anchor="middle" x="729.28" y="-562.01" font-family="Times,serif" font-size="14.00">*0</text>
</g>
<!-- node5 -->
<g id="node6" class="node">
<title>node5</title>
<polygon fill="lightgrey" stroke="black" points="1023,-547 835,-547 835,-511 1023,-511 1023,-547"/>
<text text-anchor="middle" x="929" y="-525.3" font-family="Times,serif" font-size="14.00">#5 LabelNode Order : 1</text>
</g>
<!-- node0&#45;&gt;node5 -->
<g id="edge10" class="edge">
<title>node0&#45;&gt;node5</title>
<path fill="none" stroke="red" d="M770.29,-583.99C797.72,-573.92 833.92,-561.1 864.84,-550.48"/>
<polygon fill="red" stroke="red" points="866.35,-553.66 874.68,-547.11 864.09,-547.04 866.35,-553.66"/>
</g>
<!-- node6 -->
<g id="node7" class="node">
<title>node6</title>
<polygon fill="orange" stroke="black" points="1297.08,-521.54 1297.08,-536.46 1233.18,-547 1142.82,-547 1078.92,-536.46 1078.92,-521.54 1142.82,-511 1233.18,-511 1297.08,-521.54"/>
<text text-anchor="middle" x="1188" y="-525.3" font-family="Times,serif" font-size="14.00">#6 Φ int Order : 14</text>
</g>
<!-- node0&#45;&gt;node6 -->
<g id="edge12" class="edge">
<title>node0&#45;&gt;node6</title>
<path fill="none" stroke="black" stroke-dasharray="1,5" d="M808.32,-583.96C917.63,-569.64 947.35,-585.61 1056,-566 1078.69,-561.9 1103.17,-555.23 1124.86,-548.73"/>
<polygon fill="black" stroke="black" points="1126.06,-552.02 1134.62,-545.76 1124.03,-545.32 1126.06,-552.02"/>
</g>
<!-- node15 -->
<g id="node16" class="node">
<title>node15</title>
<polygon fill="lightgrey" stroke="black" points="1316.5,-36 1065.5,-36 1065.5,0 1316.5,0 1316.5,-36"/>
<text text-anchor="middle" x="1191" y="-14.3" font-family="Times,serif" font-size="14.00">#15 ReturnValue : int Order : 15</text>
</g>
<!-- node0&#45;&gt;node15 -->
<g id="edge37" class="edge">
<title>node0&#45;&gt;node15</title>
<path fill="none" stroke="green" d="M808.32,-583.96C863.6,-577.12 1260.26,-587.1 1297,-547 1307.81,-535.2 1299.23,-526.84 1297,-511 1281.74,-402.48 1229,-383.58 1229,-274 1229,-274 1229,-274 1229,-127 1229,-97.21 1213.78,-66.35 1202.32,-45.28"/>
<polygon fill="green" stroke="green" points="1205.28,-43.4 1197.39,-36.33 1199.15,-46.78 1205.28,-43.4"/>
</g>
<!-- node1&#45;&gt;node0 -->
<g id="edge1" class="edge">
<title>node1&#45;&gt;node0</title>
<path fill="none" stroke="fuchsia" stroke-width="2" d="M186.24,-544.48C192.26,-545.37 198.22,-546.23 204,-547 354.33,-567.12 529.41,-583.52 634.39,-592.77"/>
<polygon fill="fuchsia" stroke="fuchsia" stroke-width="2" points="634.37,-596.28 644.64,-593.67 634.98,-589.31 634.37,-596.28"/>
</g>
<!-- node1&#45;&gt;node6 -->
<g id="edge13" class="edge">
<title>node1&#45;&gt;node6</title>
<path fill="none" stroke="blue" d="M137.02,-547.05C157.09,-554.34 181.37,-561.87 204,-565.5 297.47,-580.47 962.19,-578.23 1056,-565.5 1080.01,-562.24 1105.83,-555.79 1128.2,-549.21"/>
<polygon fill="blue" stroke="blue" points="1129.33,-552.53 1137.89,-546.29 1127.31,-545.82 1129.33,-552.53"/>
<text text-anchor="middle" x="1122.98" y="-555.91" font-family="Times,serif" font-size="14.00">if #13</text>
</g>
<!-- node2&#45;&gt;node0 -->
<g id="edge3" class="edge">
<title>node2&#45;&gt;node0</title>
<path fill="none" stroke="fuchsia" stroke-width="2" d="M390.02,-544.18C395.78,-545.13 401.47,-546.08 407,-547 483.79,-559.74 570.66,-573.95 634.7,-584.59"/>
<polygon fill="fuchsia" stroke="fuchsia" stroke-width="2" points="634.34,-588.08 644.78,-586.27 635.49,-581.18 634.34,-588.08"/>
</g>
<!-- node2&#45;&gt;node6 -->
<g id="edge14" class="edge">
<title>node2&#45;&gt;node6</title>
<path fill="none" stroke="blue" d="M340.61,-547.05C360.49,-554.34 384.55,-561.87 407,-565.5 549.38,-588.5 913.09,-584.89 1056,-565.5 1080.01,-562.24 1105.83,-555.79 1128.2,-549.21"/>
<polygon fill="blue" stroke="blue" points="1129.33,-552.53 1137.89,-546.29 1127.31,-545.82 1129.33,-552.53"/>
<text text-anchor="middle" x="1122.98" y="-555.91" font-family="Times,serif" font-size="14.00">if #11</text>
</g>
<!-- node3&#45;&gt;node0 -->
<g id="edge5" class="edge">
<title>node3&#45;&gt;node0</title>
<path fill="none" stroke="fuchsia" stroke-width="2" d="M550.37,-547.06C568.41,-553.31 588.53,-560.26 607,-566 623.98,-571.27 642.35,-576.5 659.54,-581.25"/>
<polygon fill="fuchsia" stroke="fuchsia" stroke-width="2" points="658.94,-584.71 669.51,-583.99 660.79,-577.96 658.94,-584.71"/>
</g>
<!-- node7 -->
<g id="node8" class="node">
<title>node7</title>
<polygon fill="orange" stroke="black" points="840.42,-448.54 840.42,-463.46 727.12,-474 566.88,-474 453.58,-463.46 453.58,-448.54 566.88,-438 727.12,-438 840.42,-448.54"/>
<text text-anchor="middle" x="647" y="-452.3" font-family="Times,serif" font-size="14.00">#7 NumericCondition : LE Order : 4</text>
</g>
<!-- node3&#45;&gt;node7 -->
<g id="edge16" class="edge">
<title>node3&#45;&gt;node7</title>
<path fill="none" stroke="black" d="M532.17,-510.99C552.93,-501.23 579.21,-488.88 601.38,-478.45"/>
<polygon fill="black" stroke="black" points="603.04,-481.54 610.6,-474.11 600.06,-475.2 603.04,-481.54"/>
<text text-anchor="middle" x="597.8" y="-485.78" font-family="Times,serif" font-size="14.00">*0</text>
</g>
<!-- node4&#45;&gt;node0 -->
<g id="edge7" class="edge">
<title>node4&#45;&gt;node0</title>
<path fill="none" stroke="fuchsia" stroke-width="2" d="M733.86,-547.03C734.71,-555.03 734.95,-564.77 734.59,-573.75"/>
<polygon fill="fuchsia" stroke="fuchsia" stroke-width="2" points="731.09,-573.59 733.88,-583.81 738.07,-574.08 731.09,-573.59"/>
</g>
<!-- node4&#45;&gt;node7 -->
<g id="edge17" class="edge">
<title>node4&#45;&gt;node7</title>
<path fill="none" stroke="black" d="M708.39,-510.81C698.14,-501.83 685.44,-490.69 674.25,-480.89"/>
<polygon fill="black" stroke="black" points="676.25,-477.99 666.43,-474.03 671.64,-483.25 676.25,-477.99"/>
<text text-anchor="middle" x="685.63" y="-475.92" font-family="Times,serif" font-size="14.00">*1</text>
</g>
<!-- node5&#45;&gt;node0 -->
<g id="edge9" class="edge">
<title>node5&#45;&gt;node0</title>
<path fill="none" stroke="fuchsia" stroke-width="2" d="M886.42,-547.11C858.92,-557.2 822.72,-570.03 791.83,-580.63"/>
<polygon fill="fuchsia" stroke="fuchsia" stroke-width="2" points="790.33,-577.45 782,-583.99 792.6,-584.07 790.33,-577.45"/>
</g>
<!-- node8 -->
<g id="node9" class="node">
<title>node8</title>
<polygon fill="lightgrey" stroke="black" points="990,-401 868,-401 868,-365 990,-365 990,-401"/>
<text text-anchor="middle" x="929" y="-379.3" font-family="Times,serif" font-size="14.00">#8 If Order : 5</text>
</g>
<!-- node5&#45;&gt;node8 -->
<g id="edge20" class="edge">
<title>node5&#45;&gt;node8</title>
<path fill="none" stroke="red" d="M929,-510.92C929,-486.34 929,-440.75 929,-411.43"/>
<polygon fill="red" stroke="red" points="932.5,-411.06 929,-401.06 925.5,-411.06 932.5,-411.06"/>
</g>
<!-- node6&#45;&gt;node0 -->
<g id="edge11" class="edge">
<title>node6&#45;&gt;node0</title>
<path fill="none" stroke="fuchsia" stroke-width="2" d="M1146.84,-547.06C1125.37,-554.06 1098.63,-561.55 1074,-566 965.25,-585.63 935.57,-569.61 826,-584 824.49,-584.2 822.97,-584.41 821.43,-584.62"/>
<polygon fill="fuchsia" stroke="fuchsia" stroke-width="2" points="820.55,-581.22 811.18,-586.16 821.59,-588.14 820.55,-581.22"/>
</g>
<!-- node6&#45;&gt;node15 -->
<g id="edge35" class="edge">
<title>node6&#45;&gt;node15</title>
<path fill="none" stroke="black" d="M1189.13,-510.79C1189.98,-496.42 1191,-475.38 1191,-457 1191,-457 1191,-457 1191,-90 1191,-75.65 1191,-59.67 1191,-46.51"/>
<polygon fill="black" stroke="black" points="1194.5,-46.22 1191,-36.22 1187.5,-46.22 1194.5,-46.22"/>
<text text-anchor="middle" x="1199.45" y="-50.64" font-family="Times,serif" font-size="14.00">*0</text>
</g>
<!-- node7&#45;&gt;node0 -->
<g id="edge15" class="edge">
<title>node7&#45;&gt;node0</title>
<path fill="none" stroke="fuchsia" stroke-width="2" d="M637.2,-474.12C627.71,-493.18 616.57,-524.27 630,-547 638.11,-560.72 651.08,-571.19 664.97,-579.09"/>
<polygon fill="fuchsia" stroke="fuchsia" stroke-width="2" points="663.7,-582.38 674.19,-583.91 666.95,-576.18 663.7,-582.38"/>
</g>
<!-- node7&#45;&gt;node8 -->
<g id="edge19" class="edge">
<title>node7&#45;&gt;node8</title>
<path fill="none" stroke="black" d="M714.55,-437.99C757.87,-427.09 814.03,-412.95 858.02,-401.87"/>
<polygon fill="black" stroke="black" points="858.93,-405.25 867.77,-399.41 857.22,-398.46 858.93,-405.25"/>
<text text-anchor="middle" x="852.26" y="-408.34" font-family="Times,serif" font-size="14.00">*0</text>
</g>
<!-- node8&#45;&gt;node0 -->
<g id="edge18" class="edge">
<title>node8&#45;&gt;node0</title>
<path fill="none" stroke="fuchsia" stroke-width="2" d="M954.18,-401.22C996.4,-432.13 1072.98,-498.36 1032,-547 1002.59,-581.9 880.29,-576.21 821.56,-583.5"/>
<polygon fill="fuchsia" stroke="fuchsia" stroke-width="2" points="820.74,-580.08 811.37,-585.03 821.78,-587.01 820.74,-580.08"/>
</g>
<!-- node9 -->
<g id="node10" class="node">
<title>node9</title>
<polygon fill="lightgrey" stroke="black" points="1106.5,-328 965.5,-328 965.5,-292 1106.5,-292 1106.5,-328"/>
<text text-anchor="middle" x="1036" y="-306.3" font-family="Times,serif" font-size="14.00">#9 true Order : 9</text>
</g>
<!-- node8&#45;&gt;node9 -->
<g id="edge22" class="edge">
<title>node8&#45;&gt;node9</title>
<path fill="none" stroke="red" d="M948.77,-364.99C961.96,-355.58 979.62,-343.76 995.64,-333.57"/>
<polygon fill="red" stroke="red" points="997.73,-336.4 1004.34,-328.11 994.01,-330.47 997.73,-336.4"/>
</g>
<!-- node10 -->
<g id="node11" class="node">
<title>node10</title>
<polygon fill="lightgrey" stroke="black" points="895,-328 741,-328 741,-292 895,-292 895,-328"/>
<text text-anchor="middle" x="818" y="-306.3" font-family="Times,serif" font-size="14.00">#10 false Order : 6</text>
</g>
<!-- node8&#45;&gt;node10 -->
<g id="edge24" class="edge">
<title>node8&#45;&gt;node10</title>
<path fill="none" stroke="red" d="M896.55,-364.99C880.98,-355.67 862.54,-343.97 847.38,-333.86"/>
<polygon fill="red" stroke="red" points="849.13,-330.81 838.88,-328.11 845.21,-336.61 849.13,-330.81"/>
</g>
<!-- node9&#45;&gt;node8 -->
<g id="edge21" class="edge">
<title>node9&#45;&gt;node8</title>
<path fill="none" stroke="fuchsia" stroke-width="2" d="M1016.08,-328.11C1002.86,-337.55 985.19,-349.37 969.17,-359.54"/>
<polygon fill="fuchsia" stroke="fuchsia" stroke-width="2" points="967.1,-356.71 960.49,-364.99 970.82,-362.64 967.1,-356.71"/>
</g>
<!-- node11 -->
<g id="node12" class="node">
<title>node11</title>
<polygon fill="lightgrey" stroke="black" points="1163,-255 957,-255 957,-219 1163,-219 1163,-255"/>
<text text-anchor="middle" x="1060" y="-233.3" font-family="Times,serif" font-size="14.00">#11 LabelNode Order : 10</text>
</g>
<!-- node9&#45;&gt;node11 -->
<g id="edge26" class="edge">
<title>node9&#45;&gt;node11</title>
<path fill="none" stroke="red" d="M1035.93,-291.81C1037.84,-283.62 1041,-273.62 1044.49,-264.48"/>
<polygon fill="red" stroke="red" points="1047.82,-265.61 1048.38,-255.03 1041.34,-262.95 1047.82,-265.61"/>
</g>
<!-- node10&#45;&gt;node8 -->
<g id="edge23" class="edge">
<title>node10&#45;&gt;node8</title>
<path fill="none" stroke="fuchsia" stroke-width="2" d="M850.63,-328.11C866.22,-337.46 884.66,-349.15 899.79,-359.26"/>
<polygon fill="fuchsia" stroke="fuchsia" stroke-width="2" points="898.03,-362.29 908.27,-364.99 901.95,-356.49 898.03,-362.29"/>
</g>
<!-- node12 -->
<g id="node13" class="node">
<title>node12</title>
<polygon fill="lightgrey" stroke="black" points="900.5,-255 703.5,-255 703.5,-219 900.5,-219 900.5,-255"/>
<text text-anchor="middle" x="802" y="-233.3" font-family="Times,serif" font-size="14.00">#12 LabelNode Order : 7</text>
</g>
<!-- node10&#45;&gt;node12 -->
<g id="edge28" class="edge">
<title>node10&#45;&gt;node12</title>
<path fill="none" stroke="red" d="M808.25,-291.81C805.6,-283.79 803.17,-274.05 801.52,-265.07"/>
<polygon fill="red" stroke="red" points="804.96,-264.38 799.98,-255.03 798.04,-265.45 804.96,-264.38"/>
</g>
<!-- node11&#45;&gt;node9 -->
<g id="edge25" class="edge">
<title>node11&#45;&gt;node9</title>
<path fill="none" stroke="fuchsia" stroke-width="2" d="M1060.11,-255.03C1058.21,-263.2 1055.07,-273.19 1051.57,-282.34"/>
<polygon fill="fuchsia" stroke="fuchsia" stroke-width="2" points="1048.24,-281.23 1047.69,-291.81 1054.72,-283.89 1048.24,-281.23"/>
</g>
<!-- node14 -->
<g id="node15" class="node">
<title>node14</title>
<polygon fill="lightgrey" stroke="black" points="1110,-109 856,-109 856,-73 1110,-73 1110,-109"/>
<text text-anchor="middle" x="983" y="-87.3" font-family="Times,serif" font-size="14.00">#14 Merge : Merge20 Order : 11</text>
</g>
<!-- node11&#45;&gt;node14 -->
<g id="edge33" class="edge">
<title>node11&#45;&gt;node14</title>
<path fill="none" stroke="red" d="M1050.86,-218.92C1037.49,-193.91 1012.48,-147.14 996.85,-117.89"/>
<polygon fill="red" stroke="red" points="999.93,-116.23 992.12,-109.06 993.75,-119.53 999.93,-116.23"/>
</g>
<!-- node12&#45;&gt;node10 -->
<g id="edge27" class="edge">
<title>node12&#45;&gt;node10</title>
<path fill="none" stroke="fuchsia" stroke-width="2" d="M811.7,-255.03C814.35,-263.03 816.78,-272.77 818.45,-281.75"/>
<polygon fill="fuchsia" stroke="fuchsia" stroke-width="2" points="815.01,-282.47 820.01,-291.81 821.93,-281.39 815.01,-282.47"/>
</g>
<!-- node13 -->
<g id="node14" class="node">
<title>node13</title>
<polygon fill="lightgrey" stroke="black" points="879,-182 725,-182 725,-146 879,-146 879,-182"/>
<text text-anchor="middle" x="802" y="-160.3" font-family="Times,serif" font-size="14.00">#13 Goto Order : 8</text>
</g>
<!-- node12&#45;&gt;node13 -->
<g id="edge30" class="edge">
<title>node12&#45;&gt;node13</title>
<path fill="none" stroke="red" d="M796.12,-218.81C795.28,-210.79 795.05,-201.05 795.42,-192.07"/>
<polygon fill="red" stroke="red" points="798.92,-192.25 796.14,-182.03 791.94,-191.75 798.92,-192.25"/>
</g>
<!-- node13&#45;&gt;node12 -->
<g id="edge29" class="edge">
<title>node13&#45;&gt;node12</title>
<path fill="none" stroke="fuchsia" stroke-width="2" d="M807.86,-182.03C808.71,-190.03 808.95,-199.77 808.59,-208.75"/>
<polygon fill="fuchsia" stroke="fuchsia" stroke-width="2" points="805.09,-208.59 807.88,-218.81 812.07,-209.08 805.09,-208.59"/>
</g>
<!-- node13&#45;&gt;node14 -->
<g id="edge32" class="edge">
<title>node13&#45;&gt;node14</title>
<path fill="none" stroke="red" d="M845.35,-145.99C870.69,-136.06 902.86,-123.43 929.74,-112.89"/>
<polygon fill="red" stroke="red" points="931.34,-116.02 939.37,-109.11 928.78,-109.51 931.34,-116.02"/>
</g>
<!-- node14&#45;&gt;node8 -->
<g id="edge31" class="edge">
<title>node14&#45;&gt;node8</title>
<path fill="none" stroke="fuchsia" stroke-width="2" d="M959.79,-109.17C945.15,-122.12 929,-141.32 929,-163 929,-311 929,-311 929,-311 929,-325.35 929,-341.33 929,-354.49"/>
<polygon fill="fuchsia" stroke="fuchsia" stroke-width="2" points="925.5,-354.78 929,-364.78 932.5,-354.78 925.5,-354.78"/>
</g>
<!-- node14&#45;&gt;node15 -->
<g id="edge36" class="edge">
<title>node14&#45;&gt;node15</title>
<path fill="none" stroke="red" d="M1032.82,-72.99C1062.32,-62.92 1099.89,-50.1 1131.01,-39.48"/>
<polygon fill="red" stroke="red" points="1132.53,-42.66 1140.86,-36.11 1130.27,-36.03 1132.53,-42.66"/>
</g>
<!-- node15&#45;&gt;node0 -->
<g id="edge34" class="edge">
<title>node15&#45;&gt;node0</title>
<path fill="none" stroke="fuchsia" stroke-width="2" d="M1210.3,-36.33C1226.76,-56.87 1247,-92.65 1247,-127 1247,-274 1247,-274 1247,-274 1247,-383.58 1299.74,-402.48 1315,-511 1317.23,-526.84 1325.81,-535.2 1315,-547 1278.19,-587.17 880.05,-577.08 826,-584 824.49,-584.19 822.96,-584.4 821.43,-584.61"/>
<polygon fill="fuchsia" stroke="fuchsia" stroke-width="2" points="820.56,-581.2 811.18,-586.12 821.58,-588.12 820.56,-581.2"/>
</g>
<!-- c0 -->
<!-- c1 -->
<!-- c0&#45;&gt;c1 -->
<g id="edge38" class="edge">
<title>c0&#45;&gt;c1</title>
<path fill="none" stroke="red" d="M1679.89,-602C1691.11,-602 1749.24,-602 1774.86,-602"/>
<polygon fill="red" stroke="red" points="1775.06,-605.5 1785.06,-602 1775.06,-598.5 1775.06,-605.5"/>
<text text-anchor="middle" x="1732.5" y="-608.8" font-family="Times,serif" font-size="14.00">Control flow</text>
</g>
<!-- c2 -->
<!-- c3 -->
<!-- c2&#45;&gt;c3 -->
<g id="edge39" class="edge">
<title>c2&#45;&gt;c3</title>
<path fill="none" stroke="red" stroke-dasharray="5,2" d="M1473.08,-602C1490.05,-602 1606.21,-602 1644.08,-602"/>
<polygon fill="red" stroke="red" points="1644.17,-605.5 1654.17,-602 1644.17,-598.5 1644.17,-605.5"/>
<text text-anchor="middle" x="1563.5" y="-608.8" font-family="Times,serif" font-size="14.00">Control flow back edge</text>
</g>
<!-- d0 -->
<!-- d1 -->
<!-- d0&#45;&gt;d1 -->
<g id="edge40" class="edge">
<title>d0&#45;&gt;d1</title>
<path fill="none" stroke="black" d="M1361.86,-602C1371.41,-602 1415.31,-602 1436.92,-602"/>
<polygon fill="black" stroke="black" points="1437.15,-605.5 1447.15,-602 1437.15,-598.5 1437.15,-605.5"/>
<text text-anchor="middle" x="1404.5" y="-608.8" font-family="Times,serif" font-size="14.00">Data flow</text>
</g>
<!-- d2 -->
<!-- d3 -->
<!-- d2&#45;&gt;d3 -->
<g id="edge41" class="edge">
<title>d2&#45;&gt;d3</title>
<path fill="none" stroke="black" stroke-dasharray="1,5" d="M1235.81,-602C1246.46,-602 1301.46,-602 1326.08,-602"/>
<polygon fill="black" stroke="black" points="1326.15,-605.5 1336.15,-602 1326.15,-598.5 1326.15,-605.5"/>
<text text-anchor="middle" x="1286" y="-608.8" font-family="Times,serif" font-size="14.00">Declaration</text>
</g>
<!-- d4 -->
<!-- d5 -->
<!-- d4&#45;&gt;d5 -->
<g id="edge42" class="edge">
<title>d4&#45;&gt;d5</title>
<path fill="none" stroke="blue" d="M1093.1,-602C1105.72,-602 1171.88,-602 1199.68,-602"/>
<polygon fill="blue" stroke="blue" points="1199.84,-605.5 1209.84,-602 1199.84,-598.5 1199.84,-605.5"/>
<text text-anchor="middle" x="1151.5" y="-608.8" font-family="Times,serif" font-size="14.00">PHI Data flow</text>
</g>
<!-- d6 -->
<!-- d7 -->
<!-- d6&#45;&gt;d7 -->
<g id="edge43" class="edge">
<title>d6&#45;&gt;d7</title>
<path fill="none" stroke="green" d="M956,-602C967.94,-602 1030.3,-602 1056.93,-602"/>
<polygon fill="green" stroke="green" points="1056.95,-605.5 1066.95,-602 1056.95,-598.5 1056.95,-605.5"/>
<text text-anchor="middle" x="1011.5" y="-608.8" font-family="Times,serif" font-size="14.00">Memory flow</text>
</g>
<!-- d8 -->
<!-- d9 -->
<!-- d8&#45;&gt;d9 -->
<g id="edge44" class="edge">
<title>d8&#45;&gt;d9</title>
<path fill="none" stroke="fuchsia" d="M833.11,-602C844.15,-602 895.67,-602 919.66,-602"/>
<polygon fill="fuchsia" stroke="fuchsia" points="919.9,-605.5 929.9,-602 919.9,-598.5 919.9,-605.5"/>
<text text-anchor="middle" x="881.5" y="-608.8" font-family="Times,serif" font-size="14.00">Dominance</text>
</g>
</g>
</svg>
