<?xml version="1.0" encoding="UTF-8" standalone="no"?>
<!DOCTYPE svg PUBLIC "-//W3C//DTD SVG 1.1//EN"
 "http://www.w3.org/Graphics/SVG/1.1/DTD/svg11.dtd">
<!-- Generated by graphviz version 2.43.0 (0)
 -->
<!-- Title: debugoutput Pages: 1 -->
<svg width="1804pt" height="651pt"
 viewBox="0.00 0.00 1804.00 650.80" xmlns="http://www.w3.org/2000/svg" xmlns:xlink="http://www.w3.org/1999/xlink">
<g id="graph0" class="graph" transform="scale(1 1) rotate(0) translate(4 646.8)">
<title>debugoutput</title>
<polygon fill="white" stroke="transparent" points="-4,4 -4,-646.8 1800,-646.8 1800,4 -4,4"/>
<g id="clust1" class="cluster">
<title>cluster_000</title>
<polygon fill="none" stroke="black" points="812,-592.2 812,-634.8 1788,-634.8 1788,-592.2 812,-592.2"/>
<text text-anchor="middle" x="1300" y="-619.6" font-family="Times,serif" font-size="14.00">Legend</text>
</g>
<!-- node0 -->
<g id="node1" class="node">
<title>node0</title>
<polygon fill="lightgrey" stroke="black" points="802,-620 636,-620 636,-584 802,-584 802,-620"/>
<text text-anchor="middle" x="719" y="-598.3" font-family="Times,serif" font-size="14.00">#0 Method Order : 0</text>
</g>
<!-- node1 -->
<g id="node2" class="node">
<title>node1</title>
<polygon fill="lightgrey" stroke="black" points="186,-547 0,-547 0,-511 186,-511 186,-547"/>
<text text-anchor="middle" x="93" y="-525.3" font-family="Times,serif" font-size="14.00">#1 arg2 : int Order : 13</text>
</g>
<!-- node0&#45;&gt;node1 -->
<g id="edge2" class="edge">
<title>node0&#45;&gt;node1</title>
<path fill="none" stroke="black" d="M635.73,-594.63C532.71,-586 352.01,-569.26 195.72,-548.44"/>
<polygon fill="black" stroke="black" points="195.84,-544.93 185.46,-547.06 194.91,-551.86 195.84,-544.93"/>
<text text-anchor="middle" x="204.55" y="-537.4" font-family="Times,serif" font-size="14.00">*0</text>
</g>
<!-- node2 -->
<g id="node3" class="node">
<title>node2</title>
<polygon fill="lightgrey" stroke="black" points="380.5,-547 203.5,-547 203.5,-511 380.5,-511 380.5,-547"/>
<text text-anchor="middle" x="292" y="-525.3" font-family="Times,serif" font-size="14.00">#2 arg1 : int Order : 4</text>
</g>
<!-- node0&#45;&gt;node2 -->
<g id="edge4" class="edge">
<title>node0&#45;&gt;node2</title>
<path fill="none" stroke="black" d="M635.86,-597.8C567.6,-593.83 468.98,-585.07 385,-566 368.17,-562.18 350.27,-556.46 334.66,-550.7"/>
<polygon fill="black" stroke="black" points="335.86,-547.41 325.27,-547.12 333.37,-553.95 335.86,-547.41"/>
<text text-anchor="middle" x="345.22" y="-541.97" font-family="Times,serif" font-size="14.00">*0</text>
</g>
<!-- node3 -->
<g id="node4" class="node">
<title>node3</title>
<polygon fill="lightgrey" stroke="black" points="807.5,-547 630.5,-547 630.5,-511 807.5,-511 807.5,-547"/>
<text text-anchor="middle" x="719" y="-525.3" font-family="Times,serif" font-size="14.00">#3 arg0 : int Order : 3</text>
</g>
<!-- node0&#45;&gt;node3 -->
<g id="edge6" class="edge">
<title>node0&#45;&gt;node3</title>
<path fill="none" stroke="black" d="M713.12,-583.81C712.28,-575.79 712.05,-566.05 712.42,-557.07"/>
<polygon fill="black" stroke="black" points="715.92,-557.25 713.14,-547.03 708.94,-556.75 715.92,-557.25"/>
<text text-anchor="middle" x="720.28" y="-562.01" font-family="Times,serif" font-size="14.00">*0</text>
</g>
<!-- node4 -->
<g id="node5" class="node">
<title>node4</title>
<polygon fill="lightgrey" stroke="black" points="612.5,-547 435.5,-547 435.5,-511 612.5,-511 612.5,-547"/>
<text text-anchor="middle" x="524" y="-525.3" font-family="Times,serif" font-size="14.00">#4 arg3 : int Order : 2</text>
</g>
<!-- node0&#45;&gt;node4 -->
<g id="edge8" class="edge">
<title>node0&#45;&gt;node4</title>
<path fill="none" stroke="black" d="M666.43,-583.99C637.96,-574.01 603,-561.32 574.8,-550.76"/>
<polygon fill="black" stroke="black" points="575.72,-547.36 565.13,-547.11 573.26,-553.91 575.72,-547.36"/>
<text text-anchor="middle" x="585.07" y="-541.89" font-family="Times,serif" font-size="14.00">*0</text>
</g>
<!-- node5 -->
<g id="node6" class="node">
<title>node5</title>
<polygon fill="lightgrey" stroke="black" points="1014,-547 826,-547 826,-511 1014,-511 1014,-547"/>
<text text-anchor="middle" x="920" y="-525.3" font-family="Times,serif" font-size="14.00">#5 LabelNode Order : 1</text>
</g>
<!-- node0&#45;&gt;node5 -->
<g id="edge10" class="edge">
<title>node0&#45;&gt;node5</title>
<path fill="none" stroke="red" d="M761.29,-583.99C788.72,-573.92 824.92,-561.1 855.84,-550.48"/>
<polygon fill="red" stroke="red" points="857.35,-553.66 865.68,-547.11 855.09,-547.04 857.35,-553.66"/>
</g>
<!-- node6 -->
<g id="node7" class="node">
<title>node6</title>
<polygon fill="orange" stroke="black" points="1288.08,-521.54 1288.08,-536.46 1224.18,-547 1133.82,-547 1069.92,-536.46 1069.92,-521.54 1133.82,-511 1224.18,-511 1288.08,-521.54"/>
<text text-anchor="middle" x="1179" y="-525.3" font-family="Times,serif" font-size="14.00">#6 Φ int Order : 14</text>
</g>
<!-- node0&#45;&gt;node6 -->
<g id="edge12" class="edge">
<title>node0&#45;&gt;node6</title>
<path fill="none" stroke="black" stroke-dasharray="1,5" d="M799.32,-583.96C908.63,-569.64 938.35,-585.61 1047,-566 1069.69,-561.9 1094.17,-555.23 1115.86,-548.73"/>
<polygon fill="black" stroke="black" points="1117.06,-552.02 1125.62,-545.76 1115.03,-545.32 1117.06,-552.02"/>
</g>
<!-- node15 -->
<g id="node16" class="node">
<title>node15</title>
<polygon fill="lightgrey" stroke="black" points="1307.5,-36 1056.5,-36 1056.5,0 1307.5,0 1307.5,-36"/>
<text text-anchor="middle" x="1182" y="-14.3" font-family="Times,serif" font-size="14.00">#15 ReturnValue : int Order : 15</text>
</g>
<!-- node0&#45;&gt;node15 -->
<g id="edge37" class="edge">
<title>node0&#45;&gt;node15</title>
<path fill="none" stroke="green" d="M799.32,-583.96C854.6,-577.12 1251.26,-587.1 1288,-547 1423.75,-398.84 1251.83,-128.98 1197.33,-44.79"/>
<polygon fill="green" stroke="green" points="1200.23,-42.83 1191.86,-36.34 1194.36,-46.64 1200.23,-42.83"/>
</g>
<!-- node1&#45;&gt;node0 -->
<g id="edge1" class="edge">
<title>node1&#45;&gt;node0</title>
<path fill="none" stroke="fuchsia" stroke-width="2" d="M186.24,-544.6C191.92,-545.45 197.54,-546.26 203,-547 350.4,-566.97 521.98,-583.32 625.5,-592.62"/>
<polygon fill="fuchsia" stroke="fuchsia" stroke-width="2" points="625.34,-596.12 635.62,-593.53 625.97,-589.15 625.34,-596.12"/>
</g>
<!-- node1&#45;&gt;node6 -->
<g id="edge13" class="edge">
<title>node1&#45;&gt;node6</title>
<path fill="none" stroke="blue" d="M136.61,-547.05C156.49,-554.34 180.55,-561.87 203,-565.5 295.58,-580.46 954.07,-578.11 1047,-565.5 1071.01,-562.24 1096.83,-555.79 1119.2,-549.21"/>
<polygon fill="blue" stroke="blue" points="1120.33,-552.53 1128.89,-546.29 1118.31,-545.82 1120.33,-552.53"/>
<text text-anchor="middle" x="1113.98" y="-555.91" font-family="Times,serif" font-size="14.00">if #13</text>
</g>
<!-- node2&#45;&gt;node0 -->
<g id="edge3" class="edge">
<title>node2&#45;&gt;node0</title>
<path fill="none" stroke="fuchsia" stroke-width="2" d="M341.55,-547.03C360.6,-553.94 382.58,-561.36 403,-566 477.07,-582.82 562.52,-591.62 625.92,-596.19"/>
<polygon fill="fuchsia" stroke="fuchsia" stroke-width="2" points="625.69,-599.68 635.91,-596.88 626.17,-592.69 625.69,-599.68"/>
</g>
<!-- node7 -->
<g id="node8" class="node">
<title>node7</title>
<polygon fill="orange" stroke="black" points="685.42,-448.54 685.42,-463.46 572.12,-474 411.88,-474 298.58,-463.46 298.58,-448.54 411.88,-438 572.12,-438 685.42,-448.54"/>
<text text-anchor="middle" x="492" y="-452.3" font-family="Times,serif" font-size="14.00">#7 NumericCondition : LE Order : 5</text>
</g>
<!-- node2&#45;&gt;node7 -->
<g id="edge17" class="edge">
<title>node2&#45;&gt;node7</title>
<path fill="none" stroke="black" d="M339.9,-510.99C368.27,-500.92 404.39,-488.1 434.31,-477.48"/>
<polygon fill="black" stroke="black" points="435.54,-480.76 443.79,-474.11 433.2,-474.16 435.54,-480.76"/>
<text text-anchor="middle" x="429.54" y="-484.44" font-family="Times,serif" font-size="14.00">*1</text>
</g>
<!-- node3&#45;&gt;node0 -->
<g id="edge5" class="edge">
<title>node3&#45;&gt;node0</title>
<path fill="none" stroke="fuchsia" stroke-width="2" d="M724.86,-547.03C725.71,-555.03 725.95,-564.77 725.59,-573.75"/>
<polygon fill="fuchsia" stroke="fuchsia" stroke-width="2" points="722.09,-573.59 724.88,-583.81 729.07,-574.08 722.09,-573.59"/>
</g>
<!-- node3&#45;&gt;node7 -->
<g id="edge16" class="edge">
<title>node3&#45;&gt;node7</title>
<path fill="none" stroke="black" d="M664.63,-510.99C632.16,-500.84 590.73,-487.88 556.59,-477.2"/>
<polygon fill="black" stroke="black" points="557.3,-473.76 546.72,-474.11 555.21,-480.44 557.3,-473.76"/>
<text text-anchor="middle" x="566.54" y="-467.76" font-family="Times,serif" font-size="14.00">*0</text>
</g>
<!-- node4&#45;&gt;node0 -->
<g id="edge7" class="edge">
<title>node4&#45;&gt;node0</title>
<path fill="none" stroke="fuchsia" stroke-width="2" d="M576.87,-547.11C605.39,-557.11 640.35,-569.81 668.5,-580.36"/>
<polygon fill="fuchsia" stroke="fuchsia" stroke-width="2" points="667.56,-583.74 678.15,-583.99 670.03,-577.19 667.56,-583.74"/>
</g>
<!-- node4&#45;&gt;node6 -->
<g id="edge14" class="edge">
<title>node4&#45;&gt;node6</title>
<path fill="none" stroke="blue" d="M565.97,-547.05C585.11,-554.33 608.31,-561.87 630,-565.5 721.4,-580.79 955.18,-577.96 1047,-565.5 1071.01,-562.24 1096.83,-555.79 1119.2,-549.21"/>
<polygon fill="blue" stroke="blue" points="1120.33,-552.53 1128.89,-546.29 1118.31,-545.82 1120.33,-552.53"/>
<text text-anchor="middle" x="1113.98" y="-555.91" font-family="Times,serif" font-size="14.00">if #11</text>
</g>
<!-- node5&#45;&gt;node0 -->
<g id="edge9" class="edge">
<title>node5&#45;&gt;node0</title>
<path fill="none" stroke="fuchsia" stroke-width="2" d="M877.42,-547.11C849.92,-557.2 813.72,-570.03 782.83,-580.63"/>
<polygon fill="fuchsia" stroke="fuchsia" stroke-width="2" points="781.33,-577.45 773,-583.99 783.6,-584.07 781.33,-577.45"/>
</g>
<!-- node8 -->
<g id="node9" class="node">
<title>node8</title>
<polygon fill="lightgrey" stroke="black" points="981,-401 859,-401 859,-365 981,-365 981,-401"/>
<text text-anchor="middle" x="920" y="-379.3" font-family="Times,serif" font-size="14.00">#8 If Order : 6</text>
</g>
<!-- node5&#45;&gt;node8 -->
<g id="edge20" class="edge">
<title>node5&#45;&gt;node8</title>
<path fill="none" stroke="red" d="M920,-510.92C920,-486.34 920,-440.75 920,-411.43"/>
<polygon fill="red" stroke="red" points="923.5,-411.06 920,-401.06 916.5,-411.06 923.5,-411.06"/>
</g>
<!-- node6&#45;&gt;node0 -->
<g id="edge11" class="edge">
<title>node6&#45;&gt;node0</title>
<path fill="none" stroke="fuchsia" stroke-width="2" d="M1137.84,-547.06C1116.37,-554.06 1089.63,-561.55 1065,-566 956.25,-585.63 926.57,-569.61 817,-584 815.49,-584.2 813.97,-584.41 812.43,-584.62"/>
<polygon fill="fuchsia" stroke="fuchsia" stroke-width="2" points="811.55,-581.22 802.18,-586.16 812.59,-588.14 811.55,-581.22"/>
</g>
<!-- node6&#45;&gt;node15 -->
<g id="edge35" class="edge">
<title>node6&#45;&gt;node15</title>
<path fill="none" stroke="black" d="M1180.13,-510.79C1180.98,-496.42 1182,-475.38 1182,-457 1182,-457 1182,-457 1182,-90 1182,-75.65 1182,-59.67 1182,-46.51"/>
<polygon fill="black" stroke="black" points="1185.5,-46.22 1182,-36.22 1178.5,-46.22 1185.5,-46.22"/>
<text text-anchor="middle" x="1190.45" y="-50.64" font-family="Times,serif" font-size="14.00">*0</text>
</g>
<!-- node7&#45;&gt;node0 -->
<g id="edge15" class="edge">
<title>node7&#45;&gt;node0</title>
<path fill="none" stroke="fuchsia" stroke-width="2" d="M460.63,-474.1C447.35,-483.15 433.29,-495.61 426,-511 419.15,-525.46 415.76,-534.7 426,-547 451.14,-577.2 549.64,-590.57 625.57,-596.45"/>
<polygon fill="fuchsia" stroke="fuchsia" stroke-width="2" points="625.42,-599.95 635.65,-597.2 625.94,-592.97 625.42,-599.95"/>
</g>
<!-- node7&#45;&gt;node8 -->
<g id="edge19" class="edge">
<title>node7&#45;&gt;node8</title>
<path fill="none" stroke="black" d="M586.46,-439.33C665.69,-426.19 777.12,-407.7 848.95,-395.79"/>
<polygon fill="black" stroke="black" points="849.52,-399.24 858.81,-394.15 848.38,-392.33 849.52,-399.24"/>
<text text-anchor="middle" x="842.32" y="-401.75" font-family="Times,serif" font-size="14.00">*0</text>
</g>
<!-- node8&#45;&gt;node0 -->
<g id="edge18" class="edge">
<title>node8&#45;&gt;node0</title>
<path fill="none" stroke="fuchsia" stroke-width="2" d="M945.18,-401.22C987.4,-432.13 1063.98,-498.36 1023,-547 993.59,-581.9 871.29,-576.21 812.56,-583.5"/>
<polygon fill="fuchsia" stroke="fuchsia" stroke-width="2" points="811.74,-580.08 802.37,-585.03 812.78,-587.01 811.74,-580.08"/>
</g>
<!-- node9 -->
<g id="node10" class="node">
<title>node9</title>
<polygon fill="lightgrey" stroke="black" points="1105,-328 955,-328 955,-292 1105,-292 1105,-328"/>
<text text-anchor="middle" x="1030" y="-306.3" font-family="Times,serif" font-size="14.00">#9 true Order : 10</text>
</g>
<!-- node8&#45;&gt;node9 -->
<g id="edge22" class="edge">
<title>node8&#45;&gt;node9</title>
<path fill="none" stroke="red" d="M940.49,-364.99C954.08,-355.58 972.24,-343.76 988.69,-333.57"/>
<polygon fill="red" stroke="red" points="990.91,-336.32 997.62,-328.11 987.26,-330.35 990.91,-336.32"/>
</g>
<!-- node10 -->
<g id="node11" class="node">
<title>node10</title>
<polygon fill="lightgrey" stroke="black" points="886,-328 732,-328 732,-292 886,-292 886,-328"/>
<text text-anchor="middle" x="809" y="-306.3" font-family="Times,serif" font-size="14.00">#10 false Order : 7</text>
</g>
<!-- node8&#45;&gt;node10 -->
<g id="edge24" class="edge">
<title>node8&#45;&gt;node10</title>
<path fill="none" stroke="red" d="M887.55,-364.99C871.98,-355.67 853.54,-343.97 838.38,-333.86"/>
<polygon fill="red" stroke="red" points="840.13,-330.81 829.88,-328.11 836.21,-336.61 840.13,-330.81"/>
</g>
<!-- node9&#45;&gt;node8 -->
<g id="edge21" class="edge">
<title>node9&#45;&gt;node8</title>
<path fill="none" stroke="fuchsia" stroke-width="2" d="M1009.36,-328.11C995.73,-337.55 977.56,-349.37 961.12,-359.54"/>
<polygon fill="fuchsia" stroke="fuchsia" stroke-width="2" points="958.91,-356.79 952.21,-364.99 962.56,-362.76 958.91,-356.79"/>
</g>
<!-- node11 -->
<g id="node12" class="node">
<title>node11</title>
<polygon fill="lightgrey" stroke="black" points="1154,-255 948,-255 948,-219 1154,-219 1154,-255"/>
<text text-anchor="middle" x="1051" y="-233.3" font-family="Times,serif" font-size="14.00">#11 LabelNode Order : 11</text>
</g>
<!-- node9&#45;&gt;node11 -->
<g id="edge26" class="edge">
<title>node9&#45;&gt;node11</title>
<path fill="none" stroke="red" d="M1029.21,-291.81C1030.77,-283.62 1033.5,-273.62 1036.61,-264.48"/>
<polygon fill="red" stroke="red" points="1039.92,-265.62 1040.1,-255.03 1033.36,-263.2 1039.92,-265.62"/>
</g>
<!-- node10&#45;&gt;node8 -->
<g id="edge23" class="edge">
<title>node10&#45;&gt;node8</title>
<path fill="none" stroke="fuchsia" stroke-width="2" d="M841.63,-328.11C857.22,-337.46 875.66,-349.15 890.79,-359.26"/>
<polygon fill="fuchsia" stroke="fuchsia" stroke-width="2" points="889.03,-362.29 899.27,-364.99 892.95,-356.49 889.03,-362.29"/>
</g>
<!-- node12 -->
<g id="node13" class="node">
<title>node12</title>
<polygon fill="lightgrey" stroke="black" points="891.5,-255 694.5,-255 694.5,-219 891.5,-219 891.5,-255"/>
<text text-anchor="middle" x="793" y="-233.3" font-family="Times,serif" font-size="14.00">#12 LabelNode Order : 8</text>
</g>
<!-- node10&#45;&gt;node12 -->
<g id="edge28" class="edge">
<title>node10&#45;&gt;node12</title>
<path fill="none" stroke="red" d="M799.25,-291.81C796.6,-283.79 794.17,-274.05 792.52,-265.07"/>
<polygon fill="red" stroke="red" points="795.96,-264.38 790.98,-255.03 789.04,-265.45 795.96,-264.38"/>
</g>
<!-- node11&#45;&gt;node9 -->
<g id="edge25" class="edge">
<title>node11&#45;&gt;node9</title>
<path fill="none" stroke="fuchsia" stroke-width="2" d="M1051.82,-255.03C1050.27,-263.2 1047.55,-273.19 1044.45,-282.34"/>
<polygon fill="fuchsia" stroke="fuchsia" stroke-width="2" points="1041.13,-281.22 1040.96,-291.81 1047.7,-283.64 1041.13,-281.22"/>
</g>
<!-- node14 -->
<g id="node15" class="node">
<title>node14</title>
<polygon fill="lightgrey" stroke="black" points="1101,-109 847,-109 847,-73 1101,-73 1101,-109"/>
<text text-anchor="middle" x="974" y="-87.3" font-family="Times,serif" font-size="14.00">#14 Merge : Merge20 Order : 12</text>
</g>
<!-- node11&#45;&gt;node14 -->
<g id="edge33" class="edge">
<title>node11&#45;&gt;node14</title>
<path fill="none" stroke="red" d="M1041.86,-218.92C1028.49,-193.91 1003.48,-147.14 987.85,-117.89"/>
<polygon fill="red" stroke="red" points="990.93,-116.23 983.12,-109.06 984.75,-119.53 990.93,-116.23"/>
</g>
<!-- node12&#45;&gt;node10 -->
<g id="edge27" class="edge">
<title>node12&#45;&gt;node10</title>
<path fill="none" stroke="fuchsia" stroke-width="2" d="M802.7,-255.03C805.35,-263.03 807.78,-272.77 809.45,-281.75"/>
<polygon fill="fuchsia" stroke="fuchsia" stroke-width="2" points="806.01,-282.47 811.01,-291.81 812.93,-281.39 806.01,-282.47"/>
</g>
<!-- node13 -->
<g id="node14" class="node">
<title>node13</title>
<polygon fill="lightgrey" stroke="black" points="870,-182 716,-182 716,-146 870,-146 870,-182"/>
<text text-anchor="middle" x="793" y="-160.3" font-family="Times,serif" font-size="14.00">#13 Goto Order : 9</text>
</g>
<!-- node12&#45;&gt;node13 -->
<g id="edge30" class="edge">
<title>node12&#45;&gt;node13</title>
<path fill="none" stroke="red" d="M787.12,-218.81C786.28,-210.79 786.05,-201.05 786.42,-192.07"/>
<polygon fill="red" stroke="red" points="789.92,-192.25 787.14,-182.03 782.94,-191.75 789.92,-192.25"/>
</g>
<!-- node13&#45;&gt;node12 -->
<g id="edge29" class="edge">
<title>node13&#45;&gt;node12</title>
<path fill="none" stroke="fuchsia" stroke-width="2" d="M798.86,-182.03C799.71,-190.03 799.95,-199.77 799.59,-208.75"/>
<polygon fill="fuchsia" stroke="fuchsia" stroke-width="2" points="796.09,-208.59 798.88,-218.81 803.07,-209.08 796.09,-208.59"/>
</g>
<!-- node13&#45;&gt;node14 -->
<g id="edge32" class="edge">
<title>node13&#45;&gt;node14</title>
<path fill="none" stroke="red" d="M836.35,-145.99C861.69,-136.06 893.86,-123.43 920.74,-112.89"/>
<polygon fill="red" stroke="red" points="922.34,-116.02 930.37,-109.11 919.78,-109.51 922.34,-116.02"/>
</g>
<!-- node14&#45;&gt;node8 -->
<g id="edge31" class="edge">
<title>node14&#45;&gt;node8</title>
<path fill="none" stroke="fuchsia" stroke-width="2" d="M950.79,-109.17C936.15,-122.12 920,-141.32 920,-163 920,-311 920,-311 920,-311 920,-325.35 920,-341.33 920,-354.49"/>
<polygon fill="fuchsia" stroke="fuchsia" stroke-width="2" points="916.5,-354.78 920,-364.78 923.5,-354.78 916.5,-354.78"/>
</g>
<!-- node14&#45;&gt;node15 -->
<g id="edge36" class="edge">
<title>node14&#45;&gt;node15</title>
<path fill="none" stroke="red" d="M1023.82,-72.99C1053.32,-62.92 1090.89,-50.1 1122.01,-39.48"/>
<polygon fill="red" stroke="red" points="1123.53,-42.66 1131.86,-36.11 1121.27,-36.03 1123.53,-42.66"/>
</g>
<!-- node15&#45;&gt;node0 -->
<g id="edge34" class="edge">
<title>node15&#45;&gt;node0</title>
<path fill="none" stroke="fuchsia" stroke-width="2" d="M1198.12,-36.34C1256.89,-109.15 1446.7,-393.44 1306,-547 1269.19,-587.17 871.05,-577.08 817,-584 815.49,-584.19 813.96,-584.4 812.43,-584.61"/>
<polygon fill="fuchsia" stroke="fuchsia" stroke-width="2" points="811.56,-581.2 802.18,-586.12 812.58,-588.12 811.56,-581.2"/>
</g>
<!-- c0 -->
<!-- c1 -->
<!-- c0&#45;&gt;c1 -->
<g id="edge38" class="edge">
<title>c0&#45;&gt;c1</title>
<path fill="none" stroke="red" d="M1670.89,-602C1682.11,-602 1740.24,-602 1765.86,-602"/>
<polygon fill="red" stroke="red" points="1766.06,-605.5 1776.06,-602 1766.06,-598.5 1766.06,-605.5"/>
<text text-anchor="middle" x="1723.5" y="-608.8" font-family="Times,serif" font-size="14.00">Control flow</text>
</g>
<!-- c2 -->
<!-- c3 -->
<!-- c2&#45;&gt;c3 -->
<g id="edge39" class="edge">
<title>c2&#45;&gt;c3</title>
<path fill="none" stroke="red" stroke-dasharray="5,2" d="M1464.08,-602C1481.05,-602 1597.21,-602 1635.08,-602"/>
<polygon fill="red" stroke="red" points="1635.17,-605.5 1645.17,-602 1635.17,-598.5 1635.17,-605.5"/>
<text text-anchor="middle" x="1554.5" y="-608.8" font-family="Times,serif" font-size="14.00">Control flow back edge</text>
</g>
<!-- d0 -->
<!-- d1 -->
<!-- d0&#45;&gt;d1 -->
<g id="edge40" class="edge">
<title>d0&#45;&gt;d1</title>
<path fill="none" stroke="black" d="M1352.86,-602C1362.41,-602 1406.31,-602 1427.92,-602"/>
<polygon fill="black" stroke="black" points="1428.15,-605.5 1438.15,-602 1428.15,-598.5 1428.15,-605.5"/>
<text text-anchor="middle" x="1395.5" y="-608.8" font-family="Times,serif" font-size="14.00">Data flow</text>
</g>
<!-- d2 -->
<!-- d3 -->
<!-- d2&#45;&gt;d3 -->
<g id="edge41" class="edge">
<title>d2&#45;&gt;d3</title>
<path fill="none" stroke="black" stroke-dasharray="1,5" d="M1226.81,-602C1237.46,-602 1292.46,-602 1317.08,-602"/>
<polygon fill="black" stroke="black" points="1317.15,-605.5 1327.15,-602 1317.15,-598.5 1317.15,-605.5"/>
<text text-anchor="middle" x="1277" y="-608.8" font-family="Times,serif" font-size="14.00">Declaration</text>
</g>
<!-- d4 -->
<!-- d5 -->
<!-- d4&#45;&gt;d5 -->
<g id="edge42" class="edge">
<title>d4&#45;&gt;d5</title>
<path fill="none" stroke="blue" d="M1084.1,-602C1096.72,-602 1162.88,-602 1190.68,-602"/>
<polygon fill="blue" stroke="blue" points="1190.84,-605.5 1200.84,-602 1190.84,-598.5 1190.84,-605.5"/>
<text text-anchor="middle" x="1142.5" y="-608.8" font-family="Times,serif" font-size="14.00">PHI Data flow</text>
</g>
<!-- d6 -->
<!-- d7 -->
<!-- d6&#45;&gt;d7 -->
<g id="edge43" class="edge">
<title>d6&#45;&gt;d7</title>
<path fill="none" stroke="green" d="M947,-602C958.94,-602 1021.3,-602 1047.93,-602"/>
<polygon fill="green" stroke="green" points="1047.95,-605.5 1057.95,-602 1047.95,-598.5 1047.95,-605.5"/>
<text text-anchor="middle" x="1002.5" y="-608.8" font-family="Times,serif" font-size="14.00">Memory flow</text>
</g>
<!-- d8 -->
<!-- d9 -->
<!-- d8&#45;&gt;d9 -->
<g id="edge44" class="edge">
<title>d8&#45;&gt;d9</title>
<path fill="none" stroke="fuchsia" d="M824.11,-602C835.15,-602 886.67,-602 910.66,-602"/>
<polygon fill="fuchsia" stroke="fuchsia" points="910.9,-605.5 920.9,-602 910.9,-598.5 910.9,-605.5"/>
<text text-anchor="middle" x="872.5" y="-608.8" font-family="Times,serif" font-size="14.00">Dominance</text>
</g>
</g>
</svg>
