<?xml version="1.0" encoding="UTF-8" standalone="no"?>
<!DOCTYPE svg PUBLIC "-//W3C//DTD SVG 1.1//EN"
 "http://www.w3.org/Graphics/SVG/1.1/DTD/svg11.dtd">
<!-- Generated by graphviz version 2.43.0 (0)
 -->
<!-- Title: %3 Pages: 1 -->
<svg width="1233pt" height="222pt"
 viewBox="0.00 0.00 1232.93 221.80" xmlns="http://www.w3.org/2000/svg" xmlns:xlink="http://www.w3.org/1999/xlink">
<g id="graph0" class="graph" transform="scale(1 1) rotate(0) translate(4 217.8)">
<title>%3</title>
<polygon fill="white" stroke="transparent" points="-4,4 -4,-217.8 1228.93,-217.8 1228.93,4 -4,4"/>
<g id="clust1" class="cluster">
<title>cluster_000</title>
<polygon fill="none" stroke="black" points="363.93,-163.2 363.93,-205.8 1216.93,-205.8 1216.93,-163.2 363.93,-163.2"/>
<text text-anchor="middle" x="790.43" y="-190.6" font-family="Times,serif" font-size="14.00">Legend</text>
</g>
<!-- node0 -->
<g id="node1" class="node">
<title>node0</title>
<polygon fill="lightgrey" stroke="transparent" points="354.43,-200 51.43,-200 51.43,-146 354.43,-146 354.43,-200"/>
<polygon fill="none" stroke="black" points="51.93,-173 51.93,-200 354.93,-200 354.93,-173 51.93,-173"/>
<text text-anchor="start" x="162.93" y="-182.8" font-family="Times,serif" font-size="14.00">#0 Method</text>
<polygon fill="yellow" stroke="transparent" points="51.93,-146 51.93,-173 142.93,-173 142.93,-146 51.93,-146"/>
<polygon fill="none" stroke="black" points="51.93,-146 51.93,-173 142.93,-173 142.93,-146 51.93,-146"/>
<text text-anchor="start" x="57.93" y="-155.8" font-family="Times,serif" font-size="14.00">arg0 : float</text>
<polygon fill="yellow" stroke="transparent" points="142.93,-146 142.93,-173 233.93,-173 233.93,-146 142.93,-146"/>
<polygon fill="none" stroke="black" points="142.93,-146 142.93,-173 233.93,-173 233.93,-146 142.93,-146"/>
<text text-anchor="start" x="148.93" y="-155.8" font-family="Times,serif" font-size="14.00">arg1 : float</text>
<polygon fill="yellow" stroke="transparent" points="233.93,-146 233.93,-173 354.93,-173 354.93,-146 233.93,-146"/>
<polygon fill="none" stroke="black" points="233.93,-146 233.93,-173 354.93,-173 354.93,-146 233.93,-146"/>
<text text-anchor="start" x="239.93" y="-155.8" font-family="Times,serif" font-size="14.00">this : MathTest</text>
</g>
<!-- node5 -->
<g id="node2" class="node">
<title>node5</title>
<polygon fill="lightgrey" stroke="black" points="314.43,-109 195.43,-109 195.43,-73 314.43,-73 314.43,-109"/>
<text text-anchor="middle" x="254.93" y="-87.3" font-family="Times,serif" font-size="14.00">#5 LabelNode</text>
</g>
<!-- node0&#45;&gt;node5 -->
<g id="edge1" class="edge">
<title>node0&#45;&gt;node5</title>
<path fill="none" stroke="red" d="M219.95,-145.81C225.82,-136.78 232.38,-126.69 238.22,-117.71"/>
<polygon fill="red" stroke="red" points="241.25,-119.47 243.76,-109.17 235.38,-115.65 241.25,-119.47"/>
</g>
<!-- node6 -->
<g id="node3" class="node">
<title>node6</title>
<polygon fill="lightgrey" stroke="black" points="229.93,-36 53.93,-36 53.93,0 229.93,0 229.93,-36"/>
<text text-anchor="middle" x="141.93" y="-14.3" font-family="Times,serif" font-size="14.00">#6 ReturnValue : float</text>
</g>
<!-- node0&#45;&gt;node6 -->
<g id="edge4" class="edge">
<title>node0&#45;&gt;node6</title>
<path fill="none" stroke="green" d="M51.6,-145.85C34.16,-136.85 18.51,-124.89 6.93,-109 -2.5,-96.07 -2.04,-86.25 6.93,-73 16.69,-58.58 30.99,-48.02 46.67,-40.27"/>
<polygon fill="green" stroke="green" points="48.37,-43.34 56.04,-36.03 45.49,-36.96 48.37,-43.34"/>
</g>
<!-- node3 -->
<g id="node4" class="node">
<title>node3</title>
<polygon fill="orange" stroke="black" points="177.73,-83.54 177.73,-98.46 130.4,-109 63.46,-109 16.12,-98.46 16.12,-83.54 63.46,-73 130.4,-73 177.73,-83.54"/>
<text text-anchor="middle" x="96.93" y="-87.3" font-family="Times,serif" font-size="14.00">#3 Sub : float</text>
</g>
<!-- node0&#45;&gt;node3 -->
<g id="edge5" class="edge">
<title>node0:prj1&#45;&gt;node3</title>
<path fill="none" stroke="black" d="M96.93,-146C96.93,-137.3 96.93,-127.81 96.93,-119.25"/>
<polygon fill="black" stroke="black" points="100.43,-119.02 96.93,-109.02 93.43,-119.02 100.43,-119.02"/>
<text text-anchor="middle" x="105.38" y="-123.45" font-family="Times,serif" font-size="14.00">*0</text>
</g>
<!-- node0&#45;&gt;node3 -->
<g id="edge6" class="edge">
<title>node0:prj2&#45;&gt;node3</title>
<path fill="none" stroke="black" d="M187.93,-146C187.93,-128.8 175.76,-116.96 160.31,-108.86"/>
<polygon fill="black" stroke="black" points="161.46,-105.53 150.91,-104.51 158.52,-111.88 161.46,-105.53"/>
<text text-anchor="middle" x="170.91" y="-100.75" font-family="Times,serif" font-size="14.00">*1</text>
</g>
<!-- node5&#45;&gt;node6 -->
<g id="edge3" class="edge">
<title>node5&#45;&gt;node6</title>
<path fill="none" stroke="red" d="M227.86,-72.99C212.88,-63.58 194.06,-51.76 177.86,-41.57"/>
<polygon fill="red" stroke="red" points="179.49,-38.47 169.16,-36.11 175.77,-44.4 179.49,-38.47"/>
</g>
<!-- node3&#45;&gt;node6 -->
<g id="edge2" class="edge">
<title>node3&#45;&gt;node6</title>
<path fill="none" stroke="black" d="M107.82,-72.81C113.18,-64.35 119.75,-53.98 125.69,-44.61"/>
<polygon fill="black" stroke="black" points="128.74,-46.35 131.13,-36.03 122.82,-42.6 128.74,-46.35"/>
<text text-anchor="middle" x="128.57" y="-52.16" font-family="Times,serif" font-size="14.00">*0</text>
</g>
<!-- c0 -->
<!-- c1 -->
<!-- c0&#45;&gt;c1 -->
<g id="edge7" class="edge">
<title>c0&#45;&gt;c1</title>
<path fill="none" stroke="red" d="M1099.82,-173C1111.03,-173 1169.17,-173 1194.78,-173"/>
<polygon fill="red" stroke="red" points="1194.98,-176.5 1204.98,-173 1194.98,-169.5 1194.98,-176.5"/>
<text text-anchor="middle" x="1152.43" y="-179.8" font-family="Times,serif" font-size="14.00">Control flow</text>
</g>
<!-- c2 -->
<!-- c3 -->
<!-- c2&#45;&gt;c3 -->
<g id="edge8" class="edge">
<title>c2&#45;&gt;c3</title>
<path fill="none" stroke="red" stroke-dasharray="5,2" d="M893,-173C909.97,-173 1026.13,-173 1064.01,-173"/>
<polygon fill="red" stroke="red" points="1064.1,-176.5 1074.1,-173 1064.1,-169.5 1064.1,-176.5"/>
<text text-anchor="middle" x="983.43" y="-179.8" font-family="Times,serif" font-size="14.00">Control flow back edge</text>
</g>
<!-- d0 -->
<!-- d1 -->
<!-- d0&#45;&gt;d1 -->
<g id="edge9" class="edge">
<title>d0&#45;&gt;d1</title>
<path fill="none" stroke="black" d="M781.79,-173C791.33,-173 835.24,-173 856.84,-173"/>
<polygon fill="black" stroke="black" points="857.08,-176.5 867.08,-173 857.08,-169.5 857.08,-176.5"/>
<text text-anchor="middle" x="824.43" y="-179.8" font-family="Times,serif" font-size="14.00">Data flow</text>
</g>
<!-- d2 -->
<!-- d3 -->
<!-- d2&#45;&gt;d3 -->
<g id="edge10" class="edge">
<title>d2&#45;&gt;d3</title>
<path fill="none" stroke="black" stroke-dasharray="1,5" d="M655.73,-173C666.38,-173 721.39,-173 746,-173"/>
<polygon fill="black" stroke="black" points="746.07,-176.5 756.07,-173 746.07,-169.5 746.07,-176.5"/>
<text text-anchor="middle" x="705.93" y="-179.8" font-family="Times,serif" font-size="14.00">Declaration</text>
</g>
<!-- d4 -->
<!-- d5 -->
<!-- d4&#45;&gt;d5 -->
<g id="edge11" class="edge">
<title>d4&#45;&gt;d5</title>
<path fill="none" stroke="blue" d="M513.03,-173C525.65,-173 591.81,-173 619.61,-173"/>
<polygon fill="blue" stroke="blue" points="619.77,-176.5 629.77,-173 619.77,-169.5 619.77,-176.5"/>
<text text-anchor="middle" x="571.43" y="-179.8" font-family="Times,serif" font-size="14.00">PHI Data flow</text>
</g>
<!-- d6 -->
<!-- d7 -->
<!-- d6&#45;&gt;d7 -->
<g id="edge12" class="edge">
<title>d6&#45;&gt;d7</title>
<path fill="none" stroke="green" d="M375.92,-173C387.86,-173 450.23,-173 476.85,-173"/>
<polygon fill="green" stroke="green" points="476.88,-176.5 486.88,-173 476.88,-169.5 476.88,-176.5"/>
<text text-anchor="middle" x="431.43" y="-179.8" font-family="Times,serif" font-size="14.00">Memory flow</text>
</g>
</g>
</svg>
