<?xml version="1.0" encoding="UTF-8" standalone="no"?>
<!DOCTYPE svg PUBLIC "-//W3C//DTD SVG 1.1//EN"
 "http://www.w3.org/Graphics/SVG/1.1/DTD/svg11.dtd">
<!-- Generated by graphviz version 2.43.0 (0)
 -->
<!-- Title: %3 Pages: 1 -->
<svg width="1217pt" height="222pt"
 viewBox="0.00 0.00 1216.90 221.80" xmlns="http://www.w3.org/2000/svg" xmlns:xlink="http://www.w3.org/1999/xlink">
<g id="graph0" class="graph" transform="scale(1 1) rotate(0) translate(4 217.8)">
<title>%3</title>
<polygon fill="white" stroke="transparent" points="-4,4 -4,-217.8 1212.9,-217.8 1212.9,4 -4,4"/>
<g id="clust1" class="cluster">
<title>cluster_000</title>
<polygon fill="none" stroke="black" points="347.9,-163.2 347.9,-205.8 1200.9,-205.8 1200.9,-163.2 347.9,-163.2"/>
<text text-anchor="middle" x="774.4" y="-190.6" font-family="Times,serif" font-size="14.00">Legend</text>
</g>
<!-- node0 -->
<g id="node1" class="node">
<title>node0</title>
<polygon fill="lightgrey" stroke="transparent" points="338.4,-200 35.4,-200 35.4,-146 338.4,-146 338.4,-200"/>
<polygon fill="none" stroke="black" points="35.9,-173 35.9,-200 338.9,-200 338.9,-173 35.9,-173"/>
<text text-anchor="start" x="146.9" y="-182.8" font-family="Times,serif" font-size="14.00">#0 Method</text>
<polygon fill="yellow" stroke="transparent" points="35.9,-146 35.9,-173 126.9,-173 126.9,-146 35.9,-146"/>
<polygon fill="none" stroke="black" points="35.9,-146 35.9,-173 126.9,-173 126.9,-146 35.9,-146"/>
<text text-anchor="start" x="41.9" y="-155.8" font-family="Times,serif" font-size="14.00">arg0 : float</text>
<polygon fill="yellow" stroke="transparent" points="126.9,-146 126.9,-173 217.9,-173 217.9,-146 126.9,-146"/>
<polygon fill="none" stroke="black" points="126.9,-146 126.9,-173 217.9,-173 217.9,-146 126.9,-146"/>
<text text-anchor="start" x="132.9" y="-155.8" font-family="Times,serif" font-size="14.00">arg1 : float</text>
<polygon fill="yellow" stroke="transparent" points="217.9,-146 217.9,-173 338.9,-173 338.9,-146 217.9,-146"/>
<polygon fill="none" stroke="black" points="217.9,-146 217.9,-173 338.9,-173 338.9,-146 217.9,-146"/>
<text text-anchor="start" x="223.9" y="-155.8" font-family="Times,serif" font-size="14.00">this : MathTest</text>
</g>
<!-- node3 -->
<g id="node2" class="node">
<title>node3</title>
<polygon fill="orange" stroke="black" points="161.71,-83.54 161.71,-98.46 114.37,-109 47.43,-109 0.1,-98.46 0.1,-83.54 47.43,-73 114.37,-73 161.71,-83.54"/>
<text text-anchor="middle" x="80.9" y="-87.3" font-family="Times,serif" font-size="14.00">#3 Sub : float</text>
</g>
<!-- node0&#45;&gt;node3 -->
<g id="edge1" class="edge">
<title>node0:prj1&#45;&gt;node3</title>
<path fill="none" stroke="black" d="M80.9,-146C80.9,-137.3 80.9,-127.81 80.9,-119.25"/>
<polygon fill="black" stroke="black" points="84.4,-119.02 80.9,-109.02 77.4,-119.02 84.4,-119.02"/>
<text text-anchor="middle" x="89.35" y="-123.45" font-family="Times,serif" font-size="14.00">*0</text>
</g>
<!-- node0&#45;&gt;node3 -->
<g id="edge2" class="edge">
<title>node0:prj2&#45;&gt;node3</title>
<path fill="none" stroke="black" d="M171.9,-146C171.9,-139.93 147.66,-125.74 124.21,-113.43"/>
<polygon fill="black" stroke="black" points="125.79,-110.32 115.3,-108.83 122.58,-116.53 125.79,-110.32"/>
<text text-anchor="middle" x="135.29" y="-105.95" font-family="Times,serif" font-size="14.00">*1</text>
</g>
<!-- node4 -->
<g id="node3" class="node">
<title>node4</title>
<polygon fill="lightgrey" stroke="black" points="209.9,-36 33.9,-36 33.9,0 209.9,0 209.9,-36"/>
<text text-anchor="middle" x="121.9" y="-14.3" font-family="Times,serif" font-size="14.00">#4 ReturnValue : float</text>
</g>
<!-- node0&#45;&gt;node4 -->
<g id="edge5" class="edge">
<title>node0&#45;&gt;node4</title>
<path fill="none" stroke="green" d="M186.71,-145.98C185.63,-125.28 182,-96.06 170.9,-73 165.77,-62.35 157.86,-52.28 149.89,-43.78"/>
<polygon fill="green" stroke="green" points="152.15,-41.09 142.62,-36.46 147.18,-46.02 152.15,-41.09"/>
</g>
<!-- node6 -->
<g id="node4" class="node">
<title>node6</title>
<polygon fill="lightgrey" stroke="black" points="337.4,-109 218.4,-109 218.4,-73 337.4,-73 337.4,-109"/>
<text text-anchor="middle" x="277.9" y="-87.3" font-family="Times,serif" font-size="14.00">#6 LabelNode</text>
</g>
<!-- node0&#45;&gt;node6 -->
<g id="edge6" class="edge">
<title>node0&#45;&gt;node6</title>
<path fill="none" stroke="red" d="M216.7,-145.81C227.6,-136.22 239.88,-125.43 250.56,-116.04"/>
<polygon fill="red" stroke="red" points="253.17,-118.41 258.37,-109.17 248.54,-113.15 253.17,-118.41"/>
</g>
<!-- node3&#45;&gt;node4 -->
<g id="edge3" class="edge">
<title>node3&#45;&gt;node4</title>
<path fill="none" stroke="black" d="M90.83,-72.81C95.66,-64.44 101.58,-54.2 106.94,-44.9"/>
<polygon fill="black" stroke="black" points="110.1,-46.44 112.07,-36.03 104.04,-42.94 110.1,-46.44"/>
<text text-anchor="middle" x="110.32" y="-52.25" font-family="Times,serif" font-size="14.00">*0</text>
</g>
<!-- node6&#45;&gt;node4 -->
<g id="edge4" class="edge">
<title>node6&#45;&gt;node4</title>
<path fill="none" stroke="red" d="M240.54,-72.99C218.99,-63.19 191.7,-50.77 168.73,-40.31"/>
<polygon fill="red" stroke="red" points="170.05,-37.07 159.5,-36.11 167.16,-43.44 170.05,-37.07"/>
</g>
<!-- c0 -->
<!-- c1 -->
<!-- c0&#45;&gt;c1 -->
<g id="edge7" class="edge">
<title>c0&#45;&gt;c1</title>
<path fill="none" stroke="red" d="M1083.79,-173C1095.01,-173 1153.14,-173 1178.76,-173"/>
<polygon fill="red" stroke="red" points="1178.96,-176.5 1188.96,-173 1178.96,-169.5 1178.96,-176.5"/>
<text text-anchor="middle" x="1136.4" y="-179.8" font-family="Times,serif" font-size="14.00">Control flow</text>
</g>
<!-- c2 -->
<!-- c3 -->
<!-- c2&#45;&gt;c3 -->
<g id="edge8" class="edge">
<title>c2&#45;&gt;c3</title>
<path fill="none" stroke="red" stroke-dasharray="5,2" d="M876.98,-173C893.95,-173 1010.11,-173 1047.99,-173"/>
<polygon fill="red" stroke="red" points="1048.07,-176.5 1058.07,-173 1048.07,-169.5 1048.07,-176.5"/>
<text text-anchor="middle" x="967.4" y="-179.8" font-family="Times,serif" font-size="14.00">Control flow back edge</text>
</g>
<!-- d0 -->
<!-- d1 -->
<!-- d0&#45;&gt;d1 -->
<g id="edge9" class="edge">
<title>d0&#45;&gt;d1</title>
<path fill="none" stroke="black" d="M765.76,-173C775.31,-173 819.21,-173 840.82,-173"/>
<polygon fill="black" stroke="black" points="841.05,-176.5 851.05,-173 841.05,-169.5 841.05,-176.5"/>
<text text-anchor="middle" x="808.4" y="-179.8" font-family="Times,serif" font-size="14.00">Data flow</text>
</g>
<!-- d2 -->
<!-- d3 -->
<!-- d2&#45;&gt;d3 -->
<g id="edge10" class="edge">
<title>d2&#45;&gt;d3</title>
<path fill="none" stroke="black" stroke-dasharray="1,5" d="M639.71,-173C650.36,-173 705.37,-173 729.98,-173"/>
<polygon fill="black" stroke="black" points="730.05,-176.5 740.05,-173 730.05,-169.5 730.05,-176.5"/>
<text text-anchor="middle" x="689.9" y="-179.8" font-family="Times,serif" font-size="14.00">Declaration</text>
</g>
<!-- d4 -->
<!-- d5 -->
<!-- d4&#45;&gt;d5 -->
<g id="edge11" class="edge">
<title>d4&#45;&gt;d5</title>
<path fill="none" stroke="blue" d="M497,-173C509.62,-173 575.78,-173 603.58,-173"/>
<polygon fill="blue" stroke="blue" points="603.74,-176.5 613.74,-173 603.74,-169.5 603.74,-176.5"/>
<text text-anchor="middle" x="555.4" y="-179.8" font-family="Times,serif" font-size="14.00">PHI Data flow</text>
</g>
<!-- d6 -->
<!-- d7 -->
<!-- d6&#45;&gt;d7 -->
<g id="edge12" class="edge">
<title>d6&#45;&gt;d7</title>
<path fill="none" stroke="green" d="M359.9,-173C371.84,-173 434.2,-173 460.83,-173"/>
<polygon fill="green" stroke="green" points="460.85,-176.5 470.85,-173 460.85,-169.5 460.85,-176.5"/>
<text text-anchor="middle" x="415.4" y="-179.8" font-family="Times,serif" font-size="14.00">Memory flow</text>
</g>
</g>
</svg>
