<?xml version="1.0" encoding="UTF-8" standalone="no"?>
<!DOCTYPE svg PUBLIC "-//W3C//DTD SVG 1.1//EN"
 "http://www.w3.org/Graphics/SVG/1.1/DTD/svg11.dtd">
<!-- Generated by graphviz version 2.43.0 (0)
 -->
<!-- Title: debugoutput Pages: 1 -->
<svg width="1609pt" height="286pt"
 viewBox="0.00 0.00 1608.50 285.80" xmlns="http://www.w3.org/2000/svg" xmlns:xlink="http://www.w3.org/1999/xlink">
<g id="graph0" class="graph" transform="scale(1 1) rotate(0) translate(4 281.8)">
<title>debugoutput</title>
<polygon fill="white" stroke="transparent" points="-4,4 -4,-281.8 1604.5,-281.8 1604.5,4 -4,4"/>
<g id="clust1" class="cluster">
<title>cluster_000</title>
<polygon fill="none" stroke="black" points="616.5,-227.2 616.5,-269.8 1592.5,-269.8 1592.5,-227.2 616.5,-227.2"/>
<text text-anchor="middle" x="1104.5" y="-254.6" font-family="Times,serif" font-size="14.00">Legend</text>
</g>
<!-- node0 -->
<g id="node1" class="node">
<title>node0</title>
<polygon fill="lightgrey" stroke="black" points="606.5,-255 440.5,-255 440.5,-219 606.5,-219 606.5,-255"/>
<text text-anchor="middle" x="523.5" y="-233.3" font-family="Times,serif" font-size="14.00">#0 Method Order : 0</text>
</g>
<!-- node1 -->
<g id="node2" class="node">
<title>node1</title>
<polygon fill="lightgrey" stroke="black" points="189,-182 0,-182 0,-146 189,-146 189,-182"/>
<text text-anchor="middle" x="94.5" y="-160.3" font-family="Times,serif" font-size="14.00">#1 arg1 : float Order : 4</text>
</g>
<!-- node0&#45;&gt;node1 -->
<g id="edge2" class="edge">
<title>node0&#45;&gt;node1</title>
<path fill="none" stroke="black" d="M440.47,-223.14C371.74,-212.04 273.75,-195.86 199.57,-183.38"/>
<polygon fill="black" stroke="black" points="199.71,-179.86 189.26,-181.65 198.54,-186.76 199.71,-179.86"/>
<text text-anchor="middle" x="208.54" y="-172.62" font-family="Times,serif" font-size="14.00">*0</text>
</g>
<!-- node2 -->
<g id="node3" class="node">
<title>node2</title>
<polygon fill="lightgrey" stroke="black" points="396,-182 207,-182 207,-146 396,-146 396,-182"/>
<text text-anchor="middle" x="301.5" y="-160.3" font-family="Times,serif" font-size="14.00">#2 arg0 : float Order : 3</text>
</g>
<!-- node0&#45;&gt;node2 -->
<g id="edge4" class="edge">
<title>node0&#45;&gt;node2</title>
<path fill="none" stroke="black" d="M464.47,-218.99C431.77,-208.88 391.36,-195.99 358.93,-185.34"/>
<polygon fill="black" stroke="black" points="359.73,-181.92 349.14,-182.11 357.54,-188.57 359.73,-181.92"/>
<text text-anchor="middle" x="369" y="-176.06" font-family="Times,serif" font-size="14.00">*0</text>
</g>
<!-- node3 -->
<g id="node4" class="node">
<title>node3</title>
<polygon fill="lightgrey" stroke="black" points="633,-182 414,-182 414,-146 633,-146 633,-182"/>
<text text-anchor="middle" x="523.5" y="-160.3" font-family="Times,serif" font-size="14.00">#3 this : MathTest Order : 2</text>
</g>
<!-- node0&#45;&gt;node3 -->
<g id="edge6" class="edge">
<title>node0&#45;&gt;node3</title>
<path fill="none" stroke="black" d="M517.62,-218.81C516.78,-210.79 516.55,-201.05 516.92,-192.07"/>
<polygon fill="black" stroke="black" points="520.42,-192.25 517.64,-182.03 513.44,-191.75 520.42,-192.25"/>
<text text-anchor="middle" x="524.78" y="-197.01" font-family="Times,serif" font-size="14.00">*0</text>
</g>
<!-- node4 -->
<g id="node5" class="node">
<title>node4</title>
<polygon fill="lightgrey" stroke="black" points="877.5,-182 689.5,-182 689.5,-146 877.5,-146 877.5,-182"/>
<text text-anchor="middle" x="783.5" y="-160.3" font-family="Times,serif" font-size="14.00">#4 LabelNode Order : 1</text>
</g>
<!-- node0&#45;&gt;node4 -->
<g id="edge8" class="edge">
<title>node0&#45;&gt;node4</title>
<path fill="none" stroke="red" d="M595.3,-218.99C618.14,-213.67 643.43,-207.49 666.5,-201 683.12,-196.33 700.97,-190.65 717.64,-185.2"/>
<polygon fill="red" stroke="red" points="718.89,-188.48 727.3,-182.03 716.71,-181.83 718.89,-188.48"/>
</g>
<!-- node6 -->
<g id="node7" class="node">
<title>node6</title>
<polygon fill="lightgrey" stroke="black" points="906,-36 661,-36 661,0 906,0 906,-36"/>
<text text-anchor="middle" x="783.5" y="-14.3" font-family="Times,serif" font-size="14.00">#6 ReturnValue : float Order : 6</text>
</g>
<!-- node0&#45;&gt;node6 -->
<g id="edge15" class="edge">
<title>node0&#45;&gt;node6</title>
<path fill="none" stroke="green" d="M603.86,-218.94C664.82,-209.2 837.14,-228.17 877.5,-182 916.76,-137.08 851.44,-75.7 811.15,-42.56"/>
<polygon fill="green" stroke="green" points="813.2,-39.71 803.23,-36.12 808.79,-45.14 813.2,-39.71"/>
</g>
<!-- node1&#45;&gt;node0 -->
<g id="edge1" class="edge">
<title>node1&#45;&gt;node0</title>
<path fill="none" stroke="fuchsia" stroke-width="2" d="M189.35,-179.77C261.17,-191.41 359.24,-207.63 430.58,-219.66"/>
<polygon fill="fuchsia" stroke="fuchsia" stroke-width="2" points="430.02,-223.12 440.46,-221.33 431.18,-216.22 430.02,-223.12"/>
</g>
<!-- node5 -->
<g id="node6" class="node">
<title>node5</title>
<polygon fill="orange" stroke="black" points="593.89,-83.54 593.89,-98.46 518.09,-109 410.91,-109 335.11,-98.46 335.11,-83.54 410.91,-73 518.09,-73 593.89,-83.54"/>
<text text-anchor="middle" x="464.5" y="-87.3" font-family="Times,serif" font-size="14.00">#5 Sub : float Order : 5</text>
</g>
<!-- node1&#45;&gt;node5 -->
<g id="edge11" class="edge">
<title>node1&#45;&gt;node5</title>
<path fill="none" stroke="black" d="M183.12,-145.99C243.05,-134.5 321.69,-119.4 380.59,-108.1"/>
<polygon fill="black" stroke="black" points="381.45,-111.5 390.61,-106.18 380.13,-104.63 381.45,-111.5"/>
<text text-anchor="middle" x="374.4" y="-114.2" font-family="Times,serif" font-size="14.00">*1</text>
</g>
<!-- node2&#45;&gt;node0 -->
<g id="edge3" class="edge">
<title>node2&#45;&gt;node0</title>
<path fill="none" stroke="fuchsia" stroke-width="2" d="M360.88,-182.11C393.63,-192.25 434.04,-205.14 466.41,-215.77"/>
<polygon fill="fuchsia" stroke="fuchsia" stroke-width="2" points="465.59,-219.19 476.18,-218.99 467.78,-212.54 465.59,-219.19"/>
</g>
<!-- node2&#45;&gt;node5 -->
<g id="edge10" class="edge">
<title>node2&#45;&gt;node5</title>
<path fill="none" stroke="black" d="M340.54,-145.99C363.16,-136.14 391.83,-123.66 415.89,-113.17"/>
<polygon fill="black" stroke="black" points="417.44,-116.32 425.21,-109.11 414.65,-109.9 417.44,-116.32"/>
<text text-anchor="middle" x="411.97" y="-120.4" font-family="Times,serif" font-size="14.00">*0</text>
</g>
<!-- node3&#45;&gt;node0 -->
<g id="edge5" class="edge">
<title>node3&#45;&gt;node0</title>
<path fill="none" stroke="fuchsia" stroke-width="2" d="M529.36,-182.03C530.21,-190.03 530.45,-199.77 530.09,-208.75"/>
<polygon fill="fuchsia" stroke="fuchsia" stroke-width="2" points="526.59,-208.59 529.38,-218.81 533.57,-209.08 526.59,-208.59"/>
</g>
<!-- node4&#45;&gt;node0 -->
<g id="edge7" class="edge">
<title>node4&#45;&gt;node0</title>
<path fill="none" stroke="fuchsia" stroke-width="2" d="M744.07,-182.03C726.03,-188.39 704.38,-195.41 684.5,-201 662.7,-207.13 638.92,-212.99 616.47,-218.1"/>
<polygon fill="fuchsia" stroke="fuchsia" stroke-width="2" points="615.59,-214.71 606.6,-220.32 617.13,-221.54 615.59,-214.71"/>
</g>
<!-- node4&#45;&gt;node6 -->
<g id="edge14" class="edge">
<title>node4&#45;&gt;node6</title>
<path fill="none" stroke="red" d="M783.5,-145.92C783.5,-121.34 783.5,-75.75 783.5,-46.43"/>
<polygon fill="red" stroke="red" points="787,-46.06 783.5,-36.06 780,-46.06 787,-46.06"/>
</g>
<!-- node5&#45;&gt;node0 -->
<g id="edge9" class="edge">
<title>node5&#45;&gt;node0</title>
<path fill="none" stroke="fuchsia" stroke-width="2" d="M571.52,-101.62C598.95,-109.51 625.48,-123.04 642.5,-146 652.03,-158.85 651.17,-168.55 642.5,-182 633.25,-196.35 619.17,-206.93 603.88,-214.71"/>
<polygon fill="fuchsia" stroke="fuchsia" stroke-width="2" points="602.34,-211.57 594.77,-218.98 605.31,-217.91 602.34,-211.57"/>
</g>
<!-- node5&#45;&gt;node6 -->
<g id="edge13" class="edge">
<title>node5&#45;&gt;node6</title>
<path fill="none" stroke="black" d="M532.15,-74.94C580.26,-64.24 645.28,-49.76 697.14,-38.22"/>
<polygon fill="black" stroke="black" points="697.99,-41.62 706.99,-36.03 696.47,-34.79 697.99,-41.62"/>
<text text-anchor="middle" x="691.13" y="-44.52" font-family="Times,serif" font-size="14.00">*0</text>
</g>
<!-- node6&#45;&gt;node0 -->
<g id="edge12" class="edge">
<title>node6&#45;&gt;node0</title>
<path fill="none" stroke="fuchsia" stroke-width="2" d="M813.81,-36.12C859.94,-67.17 937.47,-133.99 895.5,-182 855.07,-228.26 682.14,-209.12 621.5,-219 620,-219.25 618.48,-219.5 616.95,-219.75"/>
<polygon fill="fuchsia" stroke="fuchsia" stroke-width="2" points="616,-216.36 606.73,-221.5 617.18,-223.26 616,-216.36"/>
</g>
<!-- c0 -->
<!-- c1 -->
<!-- c0&#45;&gt;c1 -->
<g id="edge16" class="edge">
<title>c0&#45;&gt;c1</title>
<path fill="none" stroke="red" d="M1475.39,-237C1486.61,-237 1544.74,-237 1570.36,-237"/>
<polygon fill="red" stroke="red" points="1570.56,-240.5 1580.56,-237 1570.56,-233.5 1570.56,-240.5"/>
<text text-anchor="middle" x="1528" y="-243.8" font-family="Times,serif" font-size="14.00">Control flow</text>
</g>
<!-- c2 -->
<!-- c3 -->
<!-- c2&#45;&gt;c3 -->
<g id="edge17" class="edge">
<title>c2&#45;&gt;c3</title>
<path fill="none" stroke="red" stroke-dasharray="5,2" d="M1268.58,-237C1285.55,-237 1401.71,-237 1439.58,-237"/>
<polygon fill="red" stroke="red" points="1439.67,-240.5 1449.67,-237 1439.67,-233.5 1439.67,-240.5"/>
<text text-anchor="middle" x="1359" y="-243.8" font-family="Times,serif" font-size="14.00">Control flow back edge</text>
</g>
<!-- d0 -->
<!-- d1 -->
<!-- d0&#45;&gt;d1 -->
<g id="edge18" class="edge">
<title>d0&#45;&gt;d1</title>
<path fill="none" stroke="black" d="M1157.36,-237C1166.91,-237 1210.81,-237 1232.42,-237"/>
<polygon fill="black" stroke="black" points="1232.65,-240.5 1242.65,-237 1232.65,-233.5 1232.65,-240.5"/>
<text text-anchor="middle" x="1200" y="-243.8" font-family="Times,serif" font-size="14.00">Data flow</text>
</g>
<!-- d2 -->
<!-- d3 -->
<!-- d2&#45;&gt;d3 -->
<g id="edge19" class="edge">
<title>d2&#45;&gt;d3</title>
<path fill="none" stroke="black" stroke-dasharray="1,5" d="M1031.31,-237C1041.96,-237 1096.96,-237 1121.58,-237"/>
<polygon fill="black" stroke="black" points="1121.65,-240.5 1131.65,-237 1121.65,-233.5 1121.65,-240.5"/>
<text text-anchor="middle" x="1081.5" y="-243.8" font-family="Times,serif" font-size="14.00">Declaration</text>
</g>
<!-- d4 -->
<!-- d5 -->
<!-- d4&#45;&gt;d5 -->
<g id="edge20" class="edge">
<title>d4&#45;&gt;d5</title>
<path fill="none" stroke="blue" d="M888.6,-237C901.22,-237 967.38,-237 995.18,-237"/>
<polygon fill="blue" stroke="blue" points="995.34,-240.5 1005.34,-237 995.34,-233.5 995.34,-240.5"/>
<text text-anchor="middle" x="947" y="-243.8" font-family="Times,serif" font-size="14.00">PHI Data flow</text>
</g>
<!-- d6 -->
<!-- d7 -->
<!-- d6&#45;&gt;d7 -->
<g id="edge21" class="edge">
<title>d6&#45;&gt;d7</title>
<path fill="none" stroke="green" d="M751.5,-237C763.44,-237 825.8,-237 852.43,-237"/>
<polygon fill="green" stroke="green" points="852.45,-240.5 862.45,-237 852.45,-233.5 852.45,-240.5"/>
<text text-anchor="middle" x="807" y="-243.8" font-family="Times,serif" font-size="14.00">Memory flow</text>
</g>
<!-- d8 -->
<!-- d9 -->
<!-- d8&#45;&gt;d9 -->
<g id="edge22" class="edge">
<title>d8&#45;&gt;d9</title>
<path fill="none" stroke="fuchsia" d="M628.61,-237C639.65,-237 691.17,-237 715.16,-237"/>
<polygon fill="fuchsia" stroke="fuchsia" points="715.4,-240.5 725.4,-237 715.4,-233.5 715.4,-240.5"/>
<text text-anchor="middle" x="677" y="-243.8" font-family="Times,serif" font-size="14.00">Dominance</text>
</g>
</g>
</svg>
