<?xml version="1.0" encoding="UTF-8" standalone="no"?>
<!DOCTYPE svg PUBLIC "-//W3C//DTD SVG 1.1//EN"
 "http://www.w3.org/Graphics/SVG/1.1/DTD/svg11.dtd">
<!-- Generated by graphviz version 2.43.0 (0)
 -->
<!-- Title: %3 Pages: 1 -->
<svg width="1239pt" height="505pt"
 viewBox="0.00 0.00 1239.00 504.80" xmlns="http://www.w3.org/2000/svg" xmlns:xlink="http://www.w3.org/1999/xlink">
<g id="graph0" class="graph" transform="scale(1 1) rotate(0) translate(4 500.8)">
<title>%3</title>
<polygon fill="white" stroke="transparent" points="-4,4 -4,-500.8 1235,-500.8 1235,4 -4,4"/>
<g id="clust1" class="cluster">
<title>cluster_000</title>
<polygon fill="none" stroke="black" points="887,-446.2 887,-488.8 1223,-488.8 1223,-446.2 887,-446.2"/>
<text text-anchor="middle" x="1055" y="-473.6" font-family="Times,serif" font-size="14.00">Legend</text>
</g>
<!-- node0 -->
<g id="node1" class="node">
<title>node0</title>
<polygon fill="lightgrey" stroke="black" points="859.5,-474 42.5,-474 42.5,-438 859.5,-438 859.5,-474"/>
<text text-anchor="middle" x="451" y="-452.3" font-family="Times,serif" font-size="14.00">#0 LocalVariable[name=this, slot=0, type=Lde/mirkosertic/metair/ir/examples/StaticFieldAccessTest;] Order: 0</text>
</g>
<!-- node0&#45;&gt;node0 -->
<g id="edge1" class="edge">
<title>node0&#45;&gt;node0</title>
<path fill="none" stroke="fuchsia" d="M859.66,-459.45C871.07,-458.5 877.5,-457.35 877.5,-456 877.5,-455.13 874.86,-454.35 869.96,-453.65"/>
<polygon fill="fuchsia" stroke="fuchsia" points="869.97,-450.13 859.66,-452.55 869.23,-457.09 869.97,-450.13"/>
</g>
<!-- node1 -->
<g id="node2" class="node">
<title>node1</title>
<polygon fill="lightgrey" stroke="black" points="686,-401 216,-401 216,-365 686,-365 686,-401"/>
<text text-anchor="middle" x="451" y="-379.3" font-family="Times,serif" font-size="14.00">#1 Label[context=CodeModel[id=707506411], bci=0] Order: 1</text>
</g>
<!-- node0&#45;&gt;node1 -->
<g id="edge2" class="edge">
<title>node0&#45;&gt;node1</title>
<path fill="none" stroke="red" d="M445.12,-437.81C444.28,-429.79 444.05,-420.05 444.42,-411.07"/>
<polygon fill="red" stroke="red" points="447.92,-411.25 445.14,-401.03 440.94,-410.75 447.92,-411.25"/>
</g>
<!-- node1&#45;&gt;node0 -->
<g id="edge3" class="edge">
<title>node1&#45;&gt;node0</title>
<path fill="none" stroke="fuchsia" d="M456.86,-401.03C457.71,-409.03 457.95,-418.77 457.59,-427.75"/>
<polygon fill="fuchsia" stroke="fuchsia" points="454.09,-427.59 456.88,-437.81 461.07,-428.08 454.09,-427.59"/>
</g>
<!-- node2 -->
<g id="node3" class="node">
<title>node2</title>
<polygon fill="lightgrey" stroke="black" points="582.5,-328 319.5,-328 319.5,-292 582.5,-292 582.5,-328"/>
<text text-anchor="middle" x="451" y="-306.3" font-family="Times,serif" font-size="14.00">#2 LineNumber[line=59] Order: 2</text>
</g>
<!-- node1&#45;&gt;node2 -->
<g id="edge4" class="edge">
<title>node1&#45;&gt;node2</title>
<path fill="none" stroke="red" d="M445.12,-364.81C444.28,-356.79 444.05,-347.05 444.42,-338.07"/>
<polygon fill="red" stroke="red" points="447.92,-338.25 445.14,-328.03 440.94,-337.75 447.92,-338.25"/>
</g>
<!-- node2&#45;&gt;node1 -->
<g id="edge5" class="edge">
<title>node2&#45;&gt;node1</title>
<path fill="none" stroke="fuchsia" d="M456.86,-328.03C457.71,-336.03 457.95,-345.77 457.59,-354.75"/>
<polygon fill="fuchsia" stroke="fuchsia" points="454.09,-354.59 456.88,-364.81 461.07,-355.08 454.09,-354.59"/>
</g>
<!-- node3 -->
<g id="node4" class="node">
<title>node3</title>
<polygon fill="lightgrey" stroke="black" points="886,-255 16,-255 16,-219 886,-219 886,-255"/>
<text text-anchor="middle" x="451" y="-233.3" font-family="Times,serif" font-size="14.00">#3 Field[OP=GETSTATIC, field=de/mirkosertic/metair/ir/examples/StaticFieldAccessTest$Source.float_field:F] Order: 3</text>
</g>
<!-- node2&#45;&gt;node3 -->
<g id="edge6" class="edge">
<title>node2&#45;&gt;node3</title>
<path fill="none" stroke="red" d="M445.12,-291.81C444.28,-283.79 444.05,-274.05 444.42,-265.07"/>
<polygon fill="red" stroke="red" points="447.92,-265.25 445.14,-255.03 440.94,-264.75 447.92,-265.25"/>
</g>
<!-- node3&#45;&gt;node2 -->
<g id="edge7" class="edge">
<title>node3&#45;&gt;node2</title>
<path fill="none" stroke="fuchsia" d="M456.86,-255.03C457.71,-263.03 457.95,-272.77 457.59,-281.75"/>
<polygon fill="fuchsia" stroke="fuchsia" points="454.09,-281.59 456.88,-291.81 461.07,-282.08 454.09,-281.59"/>
</g>
<!-- node4 -->
<g id="node5" class="node">
<title>node4</title>
<polygon fill="lightgrey" stroke="black" points="902,-182 0,-182 0,-146 902,-146 902,-182"/>
<text text-anchor="middle" x="451" y="-160.3" font-family="Times,serif" font-size="14.00">#4 Field[OP=PUTSTATIC, field=de/mirkosertic/metair/ir/examples/StaticFieldAccessTest$Destination.float_field:F] Order: 4</text>
</g>
<!-- node3&#45;&gt;node4 -->
<g id="edge8" class="edge">
<title>node3&#45;&gt;node4</title>
<path fill="none" stroke="red" d="M445.12,-218.81C444.28,-210.79 444.05,-201.05 444.42,-192.07"/>
<polygon fill="red" stroke="red" points="447.92,-192.25 445.14,-182.03 440.94,-191.75 447.92,-192.25"/>
</g>
<!-- node4&#45;&gt;node3 -->
<g id="edge9" class="edge">
<title>node4&#45;&gt;node3</title>
<path fill="none" stroke="fuchsia" d="M456.86,-182.03C457.71,-190.03 457.95,-199.77 457.59,-208.75"/>
<polygon fill="fuchsia" stroke="fuchsia" points="454.09,-208.59 456.88,-218.81 461.07,-209.08 454.09,-208.59"/>
</g>
<!-- node5 -->
<g id="node6" class="node">
<title>node5</title>
<polygon fill="lightgrey" stroke="black" points="582.5,-109 319.5,-109 319.5,-73 582.5,-73 582.5,-109"/>
<text text-anchor="middle" x="451" y="-87.3" font-family="Times,serif" font-size="14.00">#5 LineNumber[line=60] Order: 5</text>
</g>
<!-- node4&#45;&gt;node5 -->
<g id="edge10" class="edge">
<title>node4&#45;&gt;node5</title>
<path fill="none" stroke="red" d="M445.12,-145.81C444.28,-137.79 444.05,-128.05 444.42,-119.07"/>
<polygon fill="red" stroke="red" points="447.92,-119.25 445.14,-109.03 440.94,-118.75 447.92,-119.25"/>
</g>
<!-- node5&#45;&gt;node4 -->
<g id="edge11" class="edge">
<title>node5&#45;&gt;node4</title>
<path fill="none" stroke="fuchsia" d="M456.86,-109.03C457.71,-117.03 457.95,-126.77 457.59,-135.75"/>
<polygon fill="fuchsia" stroke="fuchsia" points="454.09,-135.59 456.88,-145.81 461.07,-136.08 454.09,-135.59"/>
</g>
<!-- node6 -->
<g id="node7" class="node">
<title>node6</title>
<polygon fill="lightgrey" stroke="black" points="583,-36 319,-36 319,0 583,0 583,-36"/>
<text text-anchor="middle" x="451" y="-14.3" font-family="Times,serif" font-size="14.00">#6 Return[OP=RETURN] Order: 6</text>
</g>
<!-- node5&#45;&gt;node6 -->
<g id="edge12" class="edge">
<title>node5&#45;&gt;node6</title>
<path fill="none" stroke="red" d="M445.12,-72.81C444.28,-64.79 444.05,-55.05 444.42,-46.07"/>
<polygon fill="red" stroke="red" points="447.92,-46.25 445.14,-36.03 440.94,-45.75 447.92,-46.25"/>
</g>
<!-- node6&#45;&gt;node5 -->
<g id="edge13" class="edge">
<title>node6&#45;&gt;node5</title>
<path fill="none" stroke="fuchsia" d="M456.86,-36.03C457.71,-44.03 457.95,-53.77 457.59,-62.75"/>
<polygon fill="fuchsia" stroke="fuchsia" points="454.09,-62.59 456.88,-72.81 461.07,-63.08 454.09,-62.59"/>
</g>
<!-- c0 -->
<!-- c1 -->
<!-- c0&#45;&gt;c1 -->
<g id="edge14" class="edge">
<title>c0&#45;&gt;c1</title>
<path fill="none" stroke="red" d="M1105.89,-456C1117.11,-456 1175.24,-456 1200.86,-456"/>
<polygon fill="red" stroke="red" points="1201.06,-459.5 1211.06,-456 1201.06,-452.5 1201.06,-459.5"/>
<text text-anchor="middle" x="1158.5" y="-462.8" font-family="Times,serif" font-size="14.00">Control flow</text>
</g>
<!-- c2 -->
<!-- c3 -->
<!-- c2&#45;&gt;c3 -->
<g id="edge15" class="edge">
<title>c2&#45;&gt;c3</title>
<path fill="none" stroke="red" stroke-dasharray="5,2" d="M899.08,-456C916.05,-456 1032.21,-456 1070.08,-456"/>
<polygon fill="red" stroke="red" points="1070.17,-459.5 1080.17,-456 1070.17,-452.5 1070.17,-459.5"/>
<text text-anchor="middle" x="989.5" y="-462.8" font-family="Times,serif" font-size="14.00">Control flow back edge</text>
</g>
</g>
</svg>
