<?xml version="1.0" encoding="UTF-8" standalone="no"?>
<!DOCTYPE svg PUBLIC "-//W3C//DTD SVG 1.1//EN"
 "http://www.w3.org/Graphics/SVG/1.1/DTD/svg11.dtd">
<!-- Generated by graphviz version 2.43.0 (0)
 -->
<!-- Title: debugoutput Pages: 1 -->
<svg width="1800pt" height="505pt"
 viewBox="0.00 0.00 1800.00 504.80" xmlns="http://www.w3.org/2000/svg" xmlns:xlink="http://www.w3.org/1999/xlink">
<g id="graph0" class="graph" transform="scale(1 1) rotate(0) translate(4 500.8)">
<title>debugoutput</title>
<polygon fill="white" stroke="transparent" points="-4,4 -4,-500.8 1796,-500.8 1796,4 -4,4"/>
<g id="clust1" class="cluster">
<title>cluster_000</title>
<polygon fill="none" stroke="black" points="682,-446.2 682,-488.8 1521,-488.8 1521,-446.2 682,-446.2"/>
<text text-anchor="middle" x="1101.5" y="-473.6" font-family="Times,serif" font-size="14.00">Legend</text>
</g>
<!-- node0 -->
<g id="node1" class="node">
<title>node0</title>
<polygon fill="lightgrey" stroke="black" points="672,-474 506,-474 506,-438 672,-438 672,-474"/>
<text text-anchor="middle" x="589" y="-452.3" font-family="Times,serif" font-size="14.00">#0 Method Order : 0</text>
</g>
<!-- node1 -->
<g id="node2" class="node">
<title>node1</title>
<polygon fill="lightgrey" stroke="black" points="308,-401 0,-401 0,-365 308,-365 308,-401"/>
<text text-anchor="middle" x="154" y="-379.3" font-family="Times,serif" font-size="14.00">#1 this : StaticFieldAccessTest Order : 4</text>
</g>
<!-- node0&#45;&gt;node1 -->
<g id="edge2" class="edge">
<title>node0&#45;&gt;node1</title>
<path fill="none" stroke="black" d="M505.83,-446.74C450.78,-440.48 377.27,-431.08 313,-420 285.37,-415.24 255.38,-409.12 228.94,-403.28"/>
<polygon fill="black" stroke="black" points="229.51,-399.82 218.99,-401.06 227.99,-406.66 229.51,-399.82"/>
<text text-anchor="middle" x="238.52" y="-393.06" font-family="Times,serif" font-size="14.00">*0</text>
</g>
<!-- node2 -->
<g id="node3" class="node">
<title>node2</title>
<polygon fill="lightgrey" stroke="black" points="552,-401 364,-401 364,-365 552,-365 552,-401"/>
<text text-anchor="middle" x="458" y="-379.3" font-family="Times,serif" font-size="14.00">#2 LabelNode Order : 3</text>
</g>
<!-- node0&#45;&gt;node2 -->
<g id="edge4" class="edge">
<title>node0&#45;&gt;node2</title>
<path fill="none" stroke="red" d="M551.76,-437.99C533.22,-428.49 511.01,-416.54 492.81,-406.29"/>
<polygon fill="red" stroke="red" points="494.13,-403.01 483.71,-401.11 490.67,-409.1 494.13,-403.01"/>
</g>
<!-- node3 -->
<g id="node4" class="node">
<title>node3</title>
<polygon fill="lightgreen" stroke="black" points="1143.77,-375.54 1143.77,-390.46 992.19,-401 777.81,-401 626.23,-390.46 626.23,-375.54 777.81,-365 992.19,-365 1143.77,-375.54"/>
<text text-anchor="middle" x="885" y="-379.3" font-family="Times,serif" font-size="14.00">#3 Class StaticFieldAccessTest$Source Order : 2</text>
</g>
<!-- node0&#45;&gt;node3 -->
<g id="edge6" class="edge">
<title>node0&#45;&gt;node3</title>
<path fill="none" stroke="black" stroke-dasharray="1,5" d="M654.04,-437.99C696.36,-427.58 751.98,-414.22 798.07,-403.39"/>
<polygon fill="black" stroke="black" points="799.11,-406.74 808.05,-401.05 797.51,-399.93 799.11,-406.74"/>
</g>
<!-- node4 -->
<g id="node5" class="node">
<title>node4</title>
<polygon fill="lightgrey" stroke="black" points="677,-328 503,-328 503,-292 677,-292 677,-328"/>
<text text-anchor="middle" x="590" y="-306.3" font-family="Times,serif" font-size="14.00">#4 ClassInit Order : 5</text>
</g>
<!-- node0&#45;&gt;node4 -->
<g id="edge9" class="edge">
<title>node0&#45;&gt;node4</title>
<path fill="none" stroke="black" d="M584.56,-437.92C582.13,-413.23 582.16,-367.35 584.4,-338.04"/>
<polygon fill="black" stroke="black" points="587.89,-338.34 585.33,-328.06 580.92,-337.7 587.89,-338.34"/>
</g>
<!-- node9 -->
<g id="node8" class="node">
<title>node9</title>
<polygon fill="lightgreen" stroke="black" points="1764.2,-375.54 1764.2,-390.46 1598.89,-401 1365.11,-401 1199.8,-390.46 1199.8,-375.54 1365.11,-365 1598.89,-365 1764.2,-375.54"/>
<text text-anchor="middle" x="1482" y="-379.3" font-family="Times,serif" font-size="14.00">#9 Class StaticFieldAccessTest$Destination Order : 1</text>
</g>
<!-- node0&#45;&gt;node9 -->
<g id="edge27" class="edge">
<title>node0&#45;&gt;node9</title>
<path fill="none" stroke="black" stroke-dasharray="1,5" d="M669.33,-437.96C893.56,-412.76 951.88,-437.65 1177,-420 1232.64,-415.64 1293.9,-408.57 1346.87,-401.84"/>
<polygon fill="black" stroke="black" points="1347.52,-405.29 1357,-400.55 1346.64,-398.34 1347.52,-405.29"/>
</g>
<!-- node1&#45;&gt;node0 -->
<g id="edge1" class="edge">
<title>node1&#45;&gt;node0</title>
<path fill="none" stroke="green" stroke-width="2" d="M235.71,-401.06C265.68,-407.53 299.84,-414.63 331,-420 385.52,-429.4 446.7,-437.59 495.83,-443.68"/>
<polygon fill="green" stroke="green" stroke-width="2" points="495.46,-447.16 505.81,-444.91 496.31,-440.21 495.46,-447.16"/>
</g>
<!-- node2&#45;&gt;node0 -->
<g id="edge3" class="edge">
<title>node2&#45;&gt;node0</title>
<path fill="none" stroke="green" stroke-width="2" d="M495.45,-401.11C514.01,-410.63 536.22,-422.59 554.39,-432.82"/>
<polygon fill="green" stroke="green" stroke-width="2" points="553.06,-436.09 563.48,-437.99 556.52,-430.01 553.06,-436.09"/>
</g>
<!-- node2&#45;&gt;node4 -->
<g id="edge10" class="edge">
<title>node2&#45;&gt;node4</title>
<path fill="none" stroke="red" d="M489.62,-364.99C507.53,-355.36 530.12,-343.21 549.34,-332.87"/>
<polygon fill="red" stroke="red" points="551.03,-335.93 558.18,-328.11 547.72,-329.77 551.03,-335.93"/>
</g>
<!-- node3&#45;&gt;node0 -->
<g id="edge5" class="edge">
<title>node3&#45;&gt;node0</title>
<path fill="none" stroke="green" stroke-width="2" d="M819.52,-401.11C777.2,-411.53 721.68,-424.86 675.71,-435.66"/>
<polygon fill="green" stroke="green" stroke-width="2" points="674.7,-432.3 665.76,-437.99 676.29,-439.12 674.7,-432.3"/>
</g>
<!-- node3&#45;&gt;node4 -->
<g id="edge8" class="edge">
<title>node3&#45;&gt;node4</title>
<path fill="none" stroke="black" d="M814.34,-364.99C771.16,-354.6 715.78,-341.27 670.85,-330.46"/>
<polygon fill="black" stroke="black" points="671.39,-326.99 660.85,-328.05 669.75,-333.79 671.39,-326.99"/>
<text text-anchor="middle" x="680.45" y="-320.38" font-family="Times,serif" font-size="14.00">*0</text>
</g>
<!-- node5 -->
<g id="node6" class="node">
<title>node5</title>
<polygon fill="orange" stroke="black" points="831.69,-229.54 831.69,-244.46 690.7,-255 491.3,-255 350.31,-244.46 350.31,-229.54 491.3,-219 690.7,-219 831.69,-229.54"/>
<text text-anchor="middle" x="591" y="-233.3" font-family="Times,serif" font-size="14.00">#5 GetStaticField : float_field : float Order : 6</text>
</g>
<!-- node3&#45;&gt;node5 -->
<g id="edge12" class="edge">
<title>node3&#45;&gt;node5</title>
<path fill="none" stroke="black" d="M850.12,-364.92C796.41,-338.61 693.54,-288.22 634.86,-259.48"/>
<polygon fill="black" stroke="black" points="636.35,-256.32 625.83,-255.06 633.28,-262.6 636.35,-256.32"/>
<text text-anchor="middle" x="645.83" y="-251.74" font-family="Times,serif" font-size="14.00">*0</text>
</g>
<!-- node4&#45;&gt;node0 -->
<g id="edge7" class="edge">
<title>node4&#45;&gt;node0</title>
<path fill="none" stroke="green" stroke-width="2" d="M594.43,-328.06C596.87,-352.73 596.84,-398.61 594.6,-427.93"/>
<polygon fill="green" stroke="green" stroke-width="2" points="591.11,-427.64 593.67,-437.92 598.08,-428.28 591.11,-427.64"/>
</g>
<!-- node4&#45;&gt;node5 -->
<g id="edge13" class="edge">
<title>node4&#45;&gt;node5</title>
<path fill="none" stroke="black" d="M590.24,-291.81C590.36,-283.79 590.49,-274.05 590.62,-265.07"/>
<polygon fill="black" stroke="black" points="594.12,-265.08 590.76,-255.03 587.12,-264.98 594.12,-265.08"/>
</g>
<!-- node6 -->
<g id="node7" class="node">
<title>node6</title>
<polygon fill="lightgrey" stroke="black" points="1259,-182 1085,-182 1085,-146 1259,-146 1259,-182"/>
<text text-anchor="middle" x="1172" y="-160.3" font-family="Times,serif" font-size="14.00">#6 ClassInit Order : 7</text>
</g>
<!-- node4&#45;&gt;node6 -->
<g id="edge17" class="edge">
<title>node4&#45;&gt;node6</title>
<path fill="none" stroke="red" d="M674.5,-292C723.3,-281.88 785.78,-268.44 841,-255 932.09,-232.84 1036.31,-203.9 1103.07,-184.9"/>
<polygon fill="red" stroke="red" points="1104.4,-188.16 1113.05,-182.05 1102.48,-181.43 1104.4,-188.16"/>
</g>
<!-- node5&#45;&gt;node0 -->
<g id="edge11" class="edge">
<title>node5&#45;&gt;node0</title>
<path fill="none" stroke="green" stroke-width="2" d="M522.52,-255.07C434.71,-280.22 299.98,-331.83 355,-401 372.75,-423.32 438.34,-437.2 495.58,-445.29"/>
<polygon fill="green" stroke="green" stroke-width="2" points="495.4,-448.8 505.79,-446.69 496.35,-441.87 495.4,-448.8"/>
</g>
<!-- node5&#45;&gt;node6 -->
<g id="edge16" class="edge">
<title>node5&#45;&gt;node6</title>
<path fill="none" stroke="black" d="M700.72,-219.69C745.7,-213.22 798.3,-205.93 846,-200 922.68,-190.47 1009.69,-181.21 1074.53,-174.61"/>
<polygon fill="black" stroke="black" points="1075.14,-178.06 1084.74,-173.57 1074.44,-171.1 1075.14,-178.06"/>
</g>
<!-- node7 -->
<g id="node9" class="node">
<title>node7</title>
<polygon fill="lightgrey" stroke="black" points="1342.5,-109 1001.5,-109 1001.5,-73 1342.5,-73 1342.5,-109"/>
<text text-anchor="middle" x="1172" y="-87.3" font-family="Times,serif" font-size="14.00">#7 PutStaticField : float_field : float Order : 8</text>
</g>
<!-- node5&#45;&gt;node7 -->
<g id="edge20" class="edge">
<title>node5&#45;&gt;node7</title>
<path fill="none" stroke="black" d="M659.64,-218.99C768.18,-192.09 978.83,-139.88 1093.32,-111.5"/>
<polygon fill="black" stroke="black" points="1094.22,-114.88 1103.08,-109.08 1092.53,-108.09 1094.22,-114.88"/>
<text text-anchor="middle" x="1087.52" y="-117.95" font-family="Times,serif" font-size="14.00">*1</text>
</g>
<!-- node6&#45;&gt;node0 -->
<g id="edge14" class="edge">
<title>node6&#45;&gt;node0</title>
<path fill="none" stroke="green" stroke-width="2" d="M1172,-182.22C1172,-196.59 1172,-217.63 1172,-236 1172,-384 1172,-384 1172,-384 1172,-436.79 770.49,-431.29 682.42,-437.81"/>
<polygon fill="green" stroke="green" stroke-width="2" points="681.95,-434.34 672.33,-438.79 682.62,-441.31 681.95,-434.34"/>
</g>
<!-- node6&#45;&gt;node7 -->
<g id="edge21" class="edge">
<title>node6&#45;&gt;node7</title>
<path fill="none" stroke="black" d="M1166.12,-145.81C1165.28,-137.79 1165.05,-128.05 1165.42,-119.07"/>
<polygon fill="black" stroke="black" points="1168.92,-119.25 1166.14,-109.03 1161.94,-118.75 1168.92,-119.25"/>
</g>
<!-- node6&#45;&gt;node7 -->
<g id="edge22" class="edge">
<title>node6&#45;&gt;node7</title>
<path fill="none" stroke="red" d="M1177.88,-145.81C1178.72,-137.79 1178.95,-128.05 1178.58,-119.07"/>
<polygon fill="red" stroke="red" points="1182.06,-118.75 1177.86,-109.03 1175.08,-119.25 1182.06,-118.75"/>
</g>
<!-- node9&#45;&gt;node0 -->
<g id="edge26" class="edge">
<title>node9&#45;&gt;node0</title>
<path fill="none" stroke="green" stroke-width="2" d="M1369.86,-401.01C1316.97,-407.98 1252.93,-415.46 1195,-420 969.77,-437.65 911.5,-412.73 687,-438 685.49,-438.17 683.96,-438.35 682.42,-438.54"/>
<polygon fill="green" stroke="green" stroke-width="2" points="681.59,-435.13 672.15,-439.95 682.54,-442.06 681.59,-435.13"/>
</g>
<!-- node9&#45;&gt;node6 -->
<g id="edge15" class="edge">
<title>node9&#45;&gt;node6</title>
<path fill="none" stroke="black" d="M1411.64,-364.91C1397.7,-360.13 1383.52,-354.22 1371,-347 1296.41,-303.98 1226.28,-228.84 1192.71,-189.93"/>
<polygon fill="black" stroke="black" points="1195.26,-187.53 1186.11,-182.2 1189.94,-192.08 1195.26,-187.53"/>
<text text-anchor="middle" x="1204.3" y="-186.8" font-family="Times,serif" font-size="14.00">*0</text>
</g>
<!-- node9&#45;&gt;node7 -->
<g id="edge19" class="edge">
<title>node9&#45;&gt;node7</title>
<path fill="none" stroke="black" d="M1430.09,-364.93C1407.03,-353.78 1385,-336.46 1385,-311 1385,-311 1385,-311 1385,-163 1385,-139.8 1338.93,-122.82 1289.64,-111.29"/>
<polygon fill="black" stroke="black" points="1290.27,-107.85 1279.75,-109.06 1288.73,-114.68 1290.27,-107.85"/>
<text text-anchor="middle" x="1299.29" y="-101.11" font-family="Times,serif" font-size="14.00">*0</text>
</g>
<!-- node7&#45;&gt;node0 -->
<g id="edge18" class="edge">
<title>node7&#45;&gt;node0</title>
<path fill="none" stroke="green" stroke-width="2" d="M1342.65,-95.31C1526.18,-101.21 1792,-117.6 1792,-163 1792,-384 1792,-384 1792,-384 1792,-448.57 1276.53,-417.82 1212,-420 978.03,-427.91 915.75,-412.1 682.48,-437.56"/>
<polygon fill="green" stroke="green" stroke-width="2" points="681.87,-434.1 672.32,-438.68 682.64,-441.06 681.87,-434.1"/>
</g>
<!-- node8 -->
<g id="node10" class="node">
<title>node8</title>
<polygon fill="lightgrey" stroke="black" points="1252.5,-36 1091.5,-36 1091.5,0 1252.5,0 1252.5,-36"/>
<text text-anchor="middle" x="1172" y="-14.3" font-family="Times,serif" font-size="14.00">#8 Return Order : 9</text>
</g>
<!-- node7&#45;&gt;node8 -->
<g id="edge24" class="edge">
<title>node7&#45;&gt;node8</title>
<path fill="none" stroke="red" d="M1160.24,-72.81C1158.56,-64.79 1158.1,-55.05 1158.84,-46.07"/>
<polygon fill="red" stroke="red" points="1162.33,-46.42 1160.28,-36.03 1155.4,-45.43 1162.33,-46.42"/>
</g>
<!-- node7&#45;&gt;node8 -->
<g id="edge25" class="edge">
<title>node7&#45;&gt;node8</title>
<path fill="none" stroke="black" d="M1183.76,-72.81C1185.44,-64.79 1185.9,-55.05 1185.16,-46.07"/>
<polygon fill="black" stroke="black" points="1188.6,-45.43 1183.72,-36.03 1181.67,-46.42 1188.6,-45.43"/>
</g>
<!-- node8&#45;&gt;node7 -->
<g id="edge23" class="edge">
<title>node8&#45;&gt;node7</title>
<path fill="none" stroke="green" stroke-width="2" d="M1172,-36.03C1172,-44.03 1172,-53.77 1172,-62.75"/>
<polygon fill="green" stroke="green" stroke-width="2" points="1168.5,-62.81 1172,-72.81 1175.5,-62.81 1168.5,-62.81"/>
</g>
<!-- c0 -->
<!-- c1 -->
<!-- c0&#45;&gt;c1 -->
<g id="edge28" class="edge">
<title>c0&#45;&gt;c1</title>
<path fill="none" stroke="red" d="M1403.89,-456C1415.11,-456 1473.24,-456 1498.86,-456"/>
<polygon fill="red" stroke="red" points="1499.06,-459.5 1509.06,-456 1499.06,-452.5 1499.06,-459.5"/>
<text text-anchor="middle" x="1456.5" y="-462.8" font-family="Times,serif" font-size="14.00">Control flow</text>
</g>
<!-- c2 -->
<!-- c3 -->
<!-- c2&#45;&gt;c3 -->
<g id="edge29" class="edge">
<title>c2&#45;&gt;c3</title>
<path fill="none" stroke="red" stroke-dasharray="5,2" d="M1197.08,-456C1214.05,-456 1330.21,-456 1368.08,-456"/>
<polygon fill="red" stroke="red" points="1368.17,-459.5 1378.17,-456 1368.17,-452.5 1368.17,-459.5"/>
<text text-anchor="middle" x="1287.5" y="-462.8" font-family="Times,serif" font-size="14.00">Control flow back edge</text>
</g>
<!-- d0 -->
<!-- d1 -->
<!-- d0&#45;&gt;d1 -->
<g id="edge30" class="edge">
<title>d0&#45;&gt;d1</title>
<path fill="none" stroke="black" d="M1085.86,-456C1095.41,-456 1139.31,-456 1160.92,-456"/>
<polygon fill="black" stroke="black" points="1161.15,-459.5 1171.15,-456 1161.15,-452.5 1161.15,-459.5"/>
<text text-anchor="middle" x="1128.5" y="-462.8" font-family="Times,serif" font-size="14.00">Data flow</text>
</g>
<!-- d2 -->
<!-- d3 -->
<!-- d2&#45;&gt;d3 -->
<g id="edge31" class="edge">
<title>d2&#45;&gt;d3</title>
<path fill="none" stroke="black" stroke-dasharray="1,5" d="M959.81,-456C970.46,-456 1025.46,-456 1050.08,-456"/>
<polygon fill="black" stroke="black" points="1050.15,-459.5 1060.15,-456 1050.15,-452.5 1050.15,-459.5"/>
<text text-anchor="middle" x="1010" y="-462.8" font-family="Times,serif" font-size="14.00">Declaration</text>
</g>
<!-- d4 -->
<!-- d5 -->
<!-- d4&#45;&gt;d5 -->
<g id="edge32" class="edge">
<title>d4&#45;&gt;d5</title>
<path fill="none" stroke="blue" d="M817.1,-456C829.72,-456 895.88,-456 923.68,-456"/>
<polygon fill="blue" stroke="blue" points="923.84,-459.5 933.84,-456 923.84,-452.5 923.84,-459.5"/>
<text text-anchor="middle" x="875.5" y="-462.8" font-family="Times,serif" font-size="14.00">PHI Data flow</text>
</g>
<!-- d6 -->
<!-- d7 -->
<!-- d6&#45;&gt;d7 -->
<g id="edge33" class="edge">
<title>d6&#45;&gt;d7</title>
<path fill="none" stroke="green" d="M694.11,-456C705.15,-456 756.67,-456 780.66,-456"/>
<polygon fill="green" stroke="green" points="780.9,-459.5 790.9,-456 780.9,-452.5 780.9,-459.5"/>
<text text-anchor="middle" x="742.5" y="-462.8" font-family="Times,serif" font-size="14.00">Dominance</text>
</g>
</g>
</svg>
