<?xml version="1.0" encoding="UTF-8" standalone="no"?>
<!DOCTYPE svg PUBLIC "-//W3C//DTD SVG 1.1//EN"
 "http://www.w3.org/Graphics/SVG/1.1/DTD/svg11.dtd">
<!-- Generated by graphviz version 2.43.0 (0)
 -->
<!-- Title: %3 Pages: 1 -->
<svg width="1967pt" height="443pt"
 viewBox="0.00 0.00 1966.50 443.00" xmlns="http://www.w3.org/2000/svg" xmlns:xlink="http://www.w3.org/1999/xlink">
<g id="graph0" class="graph" transform="scale(1 1) rotate(0) translate(4 439)">
<title>%3</title>
<polygon fill="white" stroke="transparent" points="-4,4 -4,-439 1962.5,-439 1962.5,4 -4,4"/>
<g id="clust1" class="cluster">
<title>cluster_0</title>
<polygon fill="none" stroke="lightgray" points="167.5,-284 167.5,-427 1089.5,-427 1089.5,-284 167.5,-284"/>
</g>
<g id="clust2" class="cluster">
<title>cluster_000</title>
<polygon fill="none" stroke="black" points="1097.5,-382.2 1097.5,-424.8 1950.5,-424.8 1950.5,-382.2 1097.5,-382.2"/>
<text text-anchor="middle" x="1524" y="-409.6" font-family="Times,serif" font-size="14.00">Legend</text>
</g>
<!-- node0 -->
<g id="node1" class="node">
<title>node0</title>
<polygon fill="lightgrey" stroke="transparent" points="490,-419 281,-419 281,-365 490,-365 490,-419"/>
<polygon fill="none" stroke="black" points="281.5,-392 281.5,-419 490.5,-419 490.5,-392 281.5,-392"/>
<text text-anchor="start" x="345.5" y="-401.8" font-family="Times,serif" font-size="14.00">#0 Method</text>
<polygon fill="yellow" stroke="transparent" points="281.5,-365 281.5,-392 490.5,-392 490.5,-365 281.5,-365"/>
<polygon fill="none" stroke="black" points="281.5,-365 281.5,-392 490.5,-392 490.5,-365 281.5,-365"/>
<text text-anchor="start" x="287.5" y="-374.8" font-family="Times,serif" font-size="14.00">this : StaticFieldAccessTest</text>
</g>
<!-- node2 -->
<g id="node2" class="node">
<title>node2</title>
<polygon fill="lightgrey" stroke="black" points="119,-328 0,-328 0,-292 119,-292 119,-328"/>
<text text-anchor="middle" x="59.5" y="-306.3" font-family="Times,serif" font-size="14.00">#2 LabelNode</text>
</g>
<!-- node0&#45;&gt;node2 -->
<g id="edge1" class="edge">
<title>node0&#45;&gt;node2</title>
<path fill="none" stroke="red" d="M280.92,-383.43C230.34,-377.38 169.48,-366.51 117.5,-347 108.46,-343.6 99.29,-338.72 91,-333.64"/>
<polygon fill="red" stroke="red" points="92.7,-330.57 82.39,-328.12 88.91,-336.46 92.7,-330.57"/>
</g>
<!-- node4 -->
<g id="node3" class="node">
<title>node4</title>
<polygon fill="lightgrey" stroke="black" points="381,-255 276,-255 276,-219 381,-219 381,-255"/>
<text text-anchor="middle" x="328.5" y="-233.3" font-family="Times,serif" font-size="14.00">#4 ClassInit</text>
</g>
<!-- node0&#45;&gt;node4 -->
<g id="edge3" class="edge">
<title>node0&#45;&gt;node4</title>
<path fill="none" stroke="green" d="M280.84,-373.26C231.85,-362.62 181.08,-347.36 166.5,-328 154.74,-312.38 154.71,-299.6 166.5,-284 172.84,-275.61 223.17,-262.14 266.07,-251.93"/>
<polygon fill="green" stroke="green" points="267.01,-255.31 275.94,-249.61 265.4,-248.49 267.01,-255.31"/>
</g>
<!-- node3 -->
<g id="node4" class="node">
<title>node3</title>
<polygon fill="lightgreen" stroke="black" points="595.69,-302.54 595.69,-317.46 472.56,-328 298.44,-328 175.31,-317.46 175.31,-302.54 298.44,-292 472.56,-292 595.69,-302.54"/>
<text text-anchor="middle" x="385.5" y="-306.3" font-family="Times,serif" font-size="14.00">#3 Class StaticFieldAccessTest$Source</text>
</g>
<!-- node0&#45;&gt;node3 -->
<g id="edge5" class="edge">
<title>node0&#45;&gt;node3</title>
<path fill="none" stroke="black" stroke-dasharray="1,5" d="M385.5,-364.81C385.5,-356.35 385.5,-346.95 385.5,-338.4"/>
<polygon fill="black" stroke="black" points="389,-338.17 385.5,-328.17 382,-338.17 389,-338.17"/>
</g>
<!-- node5 -->
<g id="node7" class="node">
<title>node5</title>
<polygon fill="lightgreen" stroke="black" points="1081.12,-302.54 1081.12,-317.46 944.27,-328 750.73,-328 613.88,-317.46 613.88,-302.54 750.73,-292 944.27,-292 1081.12,-302.54"/>
<text text-anchor="middle" x="847.5" y="-306.3" font-family="Times,serif" font-size="14.00">#5 Class StaticFieldAccessTest$Destination</text>
</g>
<!-- node0&#45;&gt;node5 -->
<g id="edge15" class="edge">
<title>node0&#45;&gt;node5</title>
<path fill="none" stroke="black" stroke-dasharray="1,5" d="M490.05,-372.9C564.56,-359.99 664.45,-342.7 739.69,-329.67"/>
<polygon fill="black" stroke="black" points="740.41,-333.1 749.67,-327.94 739.22,-326.2 740.41,-333.1"/>
</g>
<!-- node2&#45;&gt;node4 -->
<g id="edge4" class="edge">
<title>node2&#45;&gt;node4</title>
<path fill="none" stroke="red" d="M107.86,-291.94C116.36,-289.14 125.16,-286.39 133.5,-284 177.24,-271.48 227.2,-259.75 265.59,-251.26"/>
<polygon fill="red" stroke="red" points="266.58,-254.63 275.6,-249.07 265.08,-247.79 266.58,-254.63"/>
</g>
<!-- node6 -->
<g id="node5" class="node">
<title>node6</title>
<polygon fill="orange" stroke="black" points="819.7,-229.54 819.7,-244.46 707.7,-255 549.3,-255 437.3,-244.46 437.3,-229.54 549.3,-219 707.7,-219 819.7,-229.54"/>
<text text-anchor="middle" x="628.5" y="-233.3" font-family="Times,serif" font-size="14.00">#6 GetStaticField : long_field : long</text>
</g>
<!-- node4&#45;&gt;node6 -->
<g id="edge7" class="edge">
<title>node4&#45;&gt;node6</title>
<path fill="none" stroke="green" d="M381.23,-237C396.55,-237 411.87,-237 427.19,-237"/>
<polygon fill="green" stroke="green" points="427.26,-240.5 437.26,-237 427.26,-233.5 427.26,-240.5"/>
</g>
<!-- node7 -->
<g id="node8" class="node">
<title>node7</title>
<polygon fill="lightgrey" stroke="black" points="462,-182 357,-182 357,-146 462,-146 462,-182"/>
<text text-anchor="middle" x="409.5" y="-160.3" font-family="Times,serif" font-size="14.00">#7 ClassInit</text>
</g>
<!-- node4&#45;&gt;node7 -->
<g id="edge14" class="edge">
<title>node4&#45;&gt;node7</title>
<path fill="none" stroke="red" d="M348.11,-218.81C358.36,-209.83 371.06,-198.69 382.25,-188.89"/>
<polygon fill="red" stroke="red" points="384.86,-191.25 390.07,-182.03 380.25,-185.99 384.86,-191.25"/>
</g>
<!-- node3&#45;&gt;node4 -->
<g id="edge2" class="edge">
<title>node3&#45;&gt;node4</title>
<path fill="none" stroke="black" d="M371.7,-291.81C364.77,-283.18 356.24,-272.56 348.6,-263.03"/>
<polygon fill="black" stroke="black" points="351.16,-260.64 342.17,-255.03 345.7,-265.02 351.16,-260.64"/>
<text text-anchor="middle" x="360.11" y="-260.17" font-family="Times,serif" font-size="14.00">*0</text>
</g>
<!-- node3&#45;&gt;node6 -->
<g id="edge6" class="edge">
<title>node3&#45;&gt;node6</title>
<path fill="none" stroke="black" d="M443.7,-291.99C478.76,-281.75 523.58,-268.66 560.29,-257.93"/>
<polygon fill="black" stroke="black" points="561.31,-261.28 569.93,-255.11 559.35,-254.56 561.31,-261.28"/>
<text text-anchor="middle" x="554.9" y="-264.61" font-family="Times,serif" font-size="14.00">*0</text>
</g>
<!-- node8 -->
<g id="node6" class="node">
<title>node8</title>
<polygon fill="lightgrey" stroke="black" points="764,-109 493,-109 493,-73 764,-73 764,-109"/>
<text text-anchor="middle" x="628.5" y="-87.3" font-family="Times,serif" font-size="14.00">#8 PutStaticField : long_field : long</text>
</g>
<!-- node6&#45;&gt;node8 -->
<g id="edge9" class="edge">
<title>node6&#45;&gt;node8</title>
<path fill="none" stroke="black" d="M628.5,-218.92C628.5,-194.34 628.5,-148.75 628.5,-119.43"/>
<polygon fill="black" stroke="black" points="632,-119.06 628.5,-109.06 625,-119.06 632,-119.06"/>
<text text-anchor="middle" x="636.95" y="-123.49" font-family="Times,serif" font-size="14.00">*1</text>
</g>
<!-- node6&#45;&gt;node7 -->
<g id="edge13" class="edge">
<title>node6&#45;&gt;node7</title>
<path fill="none" stroke="green" d="M576.04,-218.99C544.72,-208.84 504.75,-195.88 471.82,-185.2"/>
<polygon fill="green" stroke="green" points="472.88,-181.87 462.29,-182.11 470.72,-188.53 472.88,-181.87"/>
</g>
<!-- node9 -->
<g id="node9" class="node">
<title>node9</title>
<polygon fill="lightgrey" stroke="black" points="674.5,-36 582.5,-36 582.5,0 674.5,0 674.5,-36"/>
<text text-anchor="middle" x="628.5" y="-14.3" font-family="Times,serif" font-size="14.00">#9 Return</text>
</g>
<!-- node8&#45;&gt;node9 -->
<g id="edge16" class="edge">
<title>node8&#45;&gt;node9</title>
<path fill="none" stroke="red" d="M622.62,-72.81C621.78,-64.79 621.55,-55.05 621.92,-46.07"/>
<polygon fill="red" stroke="red" points="625.42,-46.25 622.64,-36.03 618.44,-45.75 625.42,-46.25"/>
</g>
<!-- node8&#45;&gt;node9 -->
<g id="edge17" class="edge">
<title>node8&#45;&gt;node9</title>
<path fill="none" stroke="green" d="M634.38,-72.81C635.22,-64.79 635.45,-55.05 635.08,-46.07"/>
<polygon fill="green" stroke="green" points="638.56,-45.75 634.36,-36.03 631.58,-46.25 638.56,-45.75"/>
</g>
<!-- node5&#45;&gt;node8 -->
<g id="edge8" class="edge">
<title>node5&#45;&gt;node8</title>
<path fill="none" stroke="black" d="M847.72,-291.88C847.16,-272.54 843.7,-240.91 828.5,-219 793.18,-168.1 730.19,-133.13 684.31,-112.97"/>
<polygon fill="black" stroke="black" points="685.66,-109.74 675.09,-109.01 682.9,-116.17 685.66,-109.74"/>
<text text-anchor="middle" x="695.08" y="-104.69" font-family="Times,serif" font-size="14.00">*0</text>
</g>
<!-- node5&#45;&gt;node7 -->
<g id="edge12" class="edge">
<title>node5&#45;&gt;node7</title>
<path fill="none" stroke="black" d="M709.89,-295.1C591.81,-282.57 438.99,-264.69 428.5,-255 411.49,-239.3 407.65,-212.52 407.52,-192.25"/>
<polygon fill="black" stroke="black" points="411.03,-192.13 407.76,-182.05 404.03,-191.97 411.03,-192.13"/>
<text text-anchor="middle" x="415.79" y="-196.67" font-family="Times,serif" font-size="14.00">*0</text>
</g>
<!-- node7&#45;&gt;node8 -->
<g id="edge10" class="edge">
<title>node7&#45;&gt;node8</title>
<path fill="none" stroke="green" d="M456.1,-145.99C486.35,-135.84 526.22,-122.88 560.02,-112.2"/>
<polygon fill="green" stroke="green" points="561.35,-115.45 569.84,-109.11 559.25,-108.78 561.35,-115.45"/>
</g>
<!-- node7&#45;&gt;node8 -->
<g id="edge11" class="edge">
<title>node7&#45;&gt;node8</title>
<path fill="none" stroke="red" d="M462.14,-147.77C495.31,-137.42 538.05,-123.62 571.94,-112.34"/>
<polygon fill="red" stroke="red" points="573.33,-115.56 581.7,-109.07 571.11,-108.92 573.33,-115.56"/>
</g>
<!-- c0 -->
<!-- c1 -->
<!-- c0&#45;&gt;c1 -->
<g id="edge18" class="edge">
<title>c0&#45;&gt;c1</title>
<path fill="none" stroke="red" d="M1833.39,-392C1844.61,-392 1902.74,-392 1928.36,-392"/>
<polygon fill="red" stroke="red" points="1928.56,-395.5 1938.56,-392 1928.56,-388.5 1928.56,-395.5"/>
<text text-anchor="middle" x="1886" y="-398.8" font-family="Times,serif" font-size="14.00">Control flow</text>
</g>
<!-- c2 -->
<!-- c3 -->
<!-- c2&#45;&gt;c3 -->
<g id="edge19" class="edge">
<title>c2&#45;&gt;c3</title>
<path fill="none" stroke="red" stroke-dasharray="5,2" d="M1626.58,-392C1643.55,-392 1759.71,-392 1797.58,-392"/>
<polygon fill="red" stroke="red" points="1797.67,-395.5 1807.67,-392 1797.67,-388.5 1797.67,-395.5"/>
<text text-anchor="middle" x="1717" y="-398.8" font-family="Times,serif" font-size="14.00">Control flow back edge</text>
</g>
<!-- d0 -->
<!-- d1 -->
<!-- d0&#45;&gt;d1 -->
<g id="edge20" class="edge">
<title>d0&#45;&gt;d1</title>
<path fill="none" stroke="black" d="M1515.36,-392C1524.91,-392 1568.81,-392 1590.42,-392"/>
<polygon fill="black" stroke="black" points="1590.65,-395.5 1600.65,-392 1590.65,-388.5 1590.65,-395.5"/>
<text text-anchor="middle" x="1558" y="-398.8" font-family="Times,serif" font-size="14.00">Data flow</text>
</g>
<!-- d2 -->
<!-- d3 -->
<!-- d2&#45;&gt;d3 -->
<g id="edge21" class="edge">
<title>d2&#45;&gt;d3</title>
<path fill="none" stroke="black" stroke-dasharray="1,5" d="M1389.31,-392C1399.96,-392 1454.96,-392 1479.58,-392"/>
<polygon fill="black" stroke="black" points="1479.65,-395.5 1489.65,-392 1479.65,-388.5 1479.65,-395.5"/>
<text text-anchor="middle" x="1439.5" y="-398.8" font-family="Times,serif" font-size="14.00">Declaration</text>
</g>
<!-- d4 -->
<!-- d5 -->
<!-- d4&#45;&gt;d5 -->
<g id="edge22" class="edge">
<title>d4&#45;&gt;d5</title>
<path fill="none" stroke="blue" d="M1246.6,-392C1259.22,-392 1325.38,-392 1353.18,-392"/>
<polygon fill="blue" stroke="blue" points="1353.34,-395.5 1363.34,-392 1353.34,-388.5 1353.34,-395.5"/>
<text text-anchor="middle" x="1305" y="-398.8" font-family="Times,serif" font-size="14.00">PHI Data flow</text>
</g>
<!-- d6 -->
<!-- d7 -->
<!-- d6&#45;&gt;d7 -->
<g id="edge23" class="edge">
<title>d6&#45;&gt;d7</title>
<path fill="none" stroke="green" d="M1109.5,-392C1121.44,-392 1183.8,-392 1210.43,-392"/>
<polygon fill="green" stroke="green" points="1210.45,-395.5 1220.45,-392 1210.45,-388.5 1210.45,-395.5"/>
<text text-anchor="middle" x="1165" y="-398.8" font-family="Times,serif" font-size="14.00">Memory flow</text>
</g>
</g>
</svg>
