<?xml version="1.0" encoding="UTF-8" standalone="no"?>
<!DOCTYPE svg PUBLIC "-//W3C//DTD SVG 1.1//EN"
 "http://www.w3.org/Graphics/SVG/1.1/DTD/svg11.dtd">
<!-- Generated by graphviz version 2.43.0 (0)
 -->
<!-- Title: %3 Pages: 1 -->
<svg width="3027pt" height="735pt"
 viewBox="0.00 0.00 3027.00 735.00" xmlns="http://www.w3.org/2000/svg" xmlns:xlink="http://www.w3.org/1999/xlink">
<g id="graph0" class="graph" transform="scale(1 1) rotate(0) translate(4 731)">
<title>%3</title>
<polygon fill="white" stroke="transparent" points="-4,4 -4,-731 3023,-731 3023,4 -4,4"/>
<g id="clust1" class="cluster">
<title>cluster_0</title>
<polygon fill="none" stroke="lightgray" points="20,-576 20,-719 2150,-719 2150,-576 20,-576"/>
</g>
<g id="clust2" class="cluster">
<title>cluster_1</title>
<polygon fill="none" stroke="lightgray" points="1336,-430 1336,-555 2243,-555 2243,-430 1336,-430"/>
</g>
<g id="clust3" class="cluster">
<title>cluster_000</title>
<polygon fill="none" stroke="black" points="2158,-674.2 2158,-716.8 3011,-716.8 3011,-674.2 2158,-674.2"/>
<text text-anchor="middle" x="2584.5" y="-701.6" font-family="Times,serif" font-size="14.00">Legend</text>
</g>
<!-- node0 -->
<g id="node1" class="node">
<title>node0</title>
<polygon fill="lightgrey" stroke="transparent" points="1440,-711 1082,-711 1082,-657 1440,-657 1440,-711"/>
<polygon fill="none" stroke="black" points="1082,-684 1082,-711 1440,-711 1440,-684 1082,-684"/>
<text text-anchor="start" x="1220.5" y="-693.8" font-family="Times,serif" font-size="14.00">#0 Method</text>
<polygon fill="yellow" stroke="transparent" points="1082,-657 1082,-684 1168,-684 1168,-657 1082,-657"/>
<polygon fill="none" stroke="black" points="1082,-657 1082,-684 1168,-684 1168,-657 1082,-657"/>
<text text-anchor="start" x="1088" y="-666.8" font-family="Times,serif" font-size="14.00">arg0 : List</text>
<polygon fill="yellow" stroke="transparent" points="1168,-657 1168,-684 1247,-684 1247,-657 1168,-657"/>
<polygon fill="none" stroke="black" points="1168,-657 1168,-684 1247,-684 1247,-657 1168,-657"/>
<text text-anchor="start" x="1174" y="-666.8" font-family="Times,serif" font-size="14.00">arg1 : int</text>
<polygon fill="yellow" stroke="transparent" points="1247,-657 1247,-684 1440,-684 1440,-657 1247,-657"/>
<polygon fill="none" stroke="black" points="1247,-657 1247,-684 1440,-684 1440,-657 1247,-657"/>
<text text-anchor="start" x="1253" y="-666.8" font-family="Times,serif" font-size="14.00">this : InvokeDynamicTest</text>
</g>
<!-- node4 -->
<g id="node2" class="node">
<title>node4</title>
<polygon fill="lightgrey" stroke="black" points="2279.5,-620 2160.5,-620 2160.5,-584 2279.5,-584 2279.5,-620"/>
<text text-anchor="middle" x="2220" y="-598.3" font-family="Times,serif" font-size="14.00">#4 LabelNode</text>
</g>
<!-- node0&#45;&gt;node4 -->
<g id="edge1" class="edge">
<title>node0&#45;&gt;node4</title>
<path fill="none" stroke="red" d="M1440,-679.91C1618.7,-674.63 1900.99,-660.31 2150.41,-620.48"/>
<polygon fill="red" stroke="red" points="2151.07,-623.92 2160.38,-618.87 2149.95,-617.01 2151.07,-623.92"/>
</g>
<!-- node5 -->
<g id="node3" class="node">
<title>node5</title>
<polygon fill="lightgrey" stroke="black" points="2235.5,-547 1946.5,-547 1946.5,-511 2235.5,-511 2235.5,-547"/>
<text text-anchor="middle" x="2091" y="-525.3" font-family="Times,serif" font-size="14.00">#5 Invoke interface stream : ()Stream</text>
</g>
<!-- node0&#45;&gt;node5 -->
<g id="edge2" class="edge">
<title>node0:prj1&#45;&gt;node5</title>
<path fill="none" stroke="black" d="M1125,-657C1125,-641.53 2223.64,-640.86 2239,-639 2276.57,-634.45 2298.41,-649.59 2322,-620 2353.95,-579.91 2306.16,-557.64 2245.91,-545.29"/>
<polygon fill="black" stroke="black" points="2246.22,-541.78 2235.74,-543.32 2244.89,-548.66 2246.22,-541.78"/>
<text text-anchor="middle" x="2255.15" y="-534.77" font-family="Times,serif" font-size="14.00">*0</text>
</g>
<!-- node0&#45;&gt;node5 -->
<g id="edge4" class="edge">
<title>node0&#45;&gt;node5</title>
<path fill="none" stroke="green" d="M1440.03,-678.37C1726.94,-670.07 2260.62,-650.59 2289,-620 2302.3,-605.67 2301.16,-591.31 2289,-576 2280.07,-564.75 2256.79,-556.01 2229.21,-549.31"/>
<polygon fill="green" stroke="green" points="2229.81,-545.86 2219.28,-547.03 2228.24,-552.68 2229.81,-545.86"/>
</g>
<!-- node8 -->
<g id="node8" class="node">
<title>node8</title>
<polygon fill="lightgreen" stroke="black" points="369.9,-594.54 369.9,-609.46 269.79,-620 128.21,-620 28.1,-609.46 28.1,-594.54 128.21,-584 269.79,-584 369.9,-594.54"/>
<text text-anchor="middle" x="199" y="-598.3" font-family="Times,serif" font-size="14.00">#8 MethodType : (int)Predicate</text>
</g>
<!-- node0&#45;&gt;node8 -->
<g id="edge16" class="edge">
<title>node0&#45;&gt;node8</title>
<path fill="none" stroke="black" stroke-dasharray="1,5" d="M1081.85,-671.41C903.58,-659.59 622.25,-640.17 379,-620 363.07,-618.68 346.35,-617.21 329.79,-615.71"/>
<polygon fill="black" stroke="black" points="329.79,-612.19 319.51,-614.77 329.15,-619.16 329.79,-612.19"/>
</g>
<!-- node7 -->
<g id="node9" class="node">
<title>node7</title>
<polygon fill="lightgreen" stroke="black" points="749.6,-594.54 749.6,-609.46 643.81,-620 494.19,-620 388.4,-609.46 388.4,-594.54 494.19,-584 643.81,-584 749.6,-594.54"/>
<text text-anchor="middle" x="569" y="-598.3" font-family="Times,serif" font-size="14.00">#7 MethodType : (Object)boolean</text>
</g>
<!-- node0&#45;&gt;node7 -->
<g id="edge15" class="edge">
<title>node0&#45;&gt;node7</title>
<path fill="none" stroke="black" stroke-dasharray="1,5" d="M1081.89,-662.29C959.76,-648.17 801.15,-629.84 692.85,-617.32"/>
<polygon fill="black" stroke="black" points="693.19,-613.83 682.85,-616.16 692.38,-620.79 693.19,-613.83"/>
</g>
<!-- node6 -->
<g id="node10" class="node">
<title>node6</title>
<polygon fill="lightgreen" stroke="black" points="1754.3,-594.54 1754.3,-609.46 1465.33,-620 1056.67,-620 767.7,-609.46 767.7,-594.54 1056.67,-584 1465.33,-584 1754.3,-594.54"/>
<text text-anchor="middle" x="1261" y="-598.3" font-family="Times,serif" font-size="14.00">#6 MethodHandle : invokeStatic : InvokeDynamicTest.lambda$countList$0 (int,Integer)boolean</text>
</g>
<!-- node0&#45;&gt;node6 -->
<g id="edge14" class="edge">
<title>node0&#45;&gt;node6</title>
<path fill="none" stroke="black" stroke-dasharray="1,5" d="M1261,-656.81C1261,-648.35 1261,-638.95 1261,-630.4"/>
<polygon fill="black" stroke="black" points="1264.5,-630.17 1261,-620.17 1257.5,-630.17 1264.5,-630.17"/>
</g>
<!-- node9 -->
<g id="node11" class="node">
<title>node9</title>
<polygon fill="lightgreen" stroke="black" points="2142.04,-594.54 2142.04,-609.46 2033.64,-620 1880.36,-620 1771.96,-609.46 1771.96,-594.54 1880.36,-584 2033.64,-584 2142.04,-594.54"/>
<text text-anchor="middle" x="1957" y="-598.3" font-family="Times,serif" font-size="14.00">#9 MethodType : (Integer)boolean</text>
</g>
<!-- node0&#45;&gt;node9 -->
<g id="edge13" class="edge">
<title>node0&#45;&gt;node9</title>
<path fill="none" stroke="black" stroke-dasharray="1,5" d="M1440.24,-662.4C1562.88,-648.3 1722.42,-629.96 1831.59,-617.41"/>
<polygon fill="black" stroke="black" points="1832.13,-620.88 1841.67,-616.26 1831.33,-613.92 1832.13,-620.88"/>
</g>
<!-- node15 -->
<g id="node13" class="node">
<title>node15</title>
<polygon fill="lightgrey" stroke="black" points="2291.5,-255 1984.5,-255 1984.5,-219 2291.5,-219 2291.5,-255"/>
<text text-anchor="middle" x="2138" y="-233.3" font-family="Times,serif" font-size="14.00">#15 Invoke dynamic test : (int)Predicate</text>
</g>
<!-- node0&#45;&gt;node15 -->
<g id="edge22" class="edge">
<title>node0:prj2&#45;&gt;node15</title>
<path fill="none" stroke="black" d="M1207,-657C1207,-640.24 620.75,-639.52 604,-639 343.99,-630.9 260.47,-716.78 19,-620 8.48,-615.78 0,-614.33 0,-603 0,-603 0,-603 0,-309 0,-259.67 1473.66,-243.31 1974.05,-239.18"/>
<polygon fill="black" stroke="black" points="1974.27,-242.68 1984.24,-239.1 1974.21,-235.68 1974.27,-242.68"/>
<text text-anchor="middle" x="1966.18" y="-244" font-family="Times,serif" font-size="14.00">*1</text>
</g>
<!-- node4&#45;&gt;node5 -->
<g id="edge3" class="edge">
<title>node4&#45;&gt;node5</title>
<path fill="none" stroke="red" d="M2189.1,-583.99C2171.68,-574.4 2149.72,-562.32 2130.99,-552.01"/>
<polygon fill="red" stroke="red" points="2132.54,-548.87 2122.09,-547.11 2129.17,-555 2132.54,-548.87"/>
</g>
<!-- node11 -->
<g id="node4" class="node">
<title>node11</title>
<polygon fill="lightgreen" stroke="black" points="2024.36,-448.54 2024.36,-463.46 1926.32,-474 1787.68,-474 1689.64,-463.46 1689.64,-448.54 1787.68,-438 1926.32,-438 2024.36,-448.54"/>
<text text-anchor="middle" x="1857" y="-452.3" font-family="Times,serif" font-size="14.00">#11 Class LambdaMetafactory</text>
</g>
<!-- node5&#45;&gt;node11 -->
<g id="edge5" class="edge">
<title>node5&#45;&gt;node11</title>
<path fill="none" stroke="black" stroke-dasharray="1,5" d="M2034.95,-510.99C2001.33,-500.79 1958.41,-487.77 1923.13,-477.07"/>
<polygon fill="black" stroke="black" points="1923.99,-473.67 1913.4,-474.11 1921.96,-480.37 1923.99,-473.67"/>
</g>
<!-- node12 -->
<g id="node7" class="node">
<title>node12</title>
<polygon fill="lightgreen" stroke="black" points="2235.26,-448.54 2235.26,-463.46 2178.87,-474 2099.13,-474 2042.74,-463.46 2042.74,-448.54 2099.13,-438 2178.87,-438 2235.26,-448.54"/>
<text text-anchor="middle" x="2139" y="-452.3" font-family="Times,serif" font-size="14.00">#12 String : test</text>
</g>
<!-- node5&#45;&gt;node12 -->
<g id="edge17" class="edge">
<title>node5&#45;&gt;node12</title>
<path fill="none" stroke="black" stroke-dasharray="1,5" d="M2102.62,-510.81C2108.4,-502.27 2115.49,-491.77 2121.88,-482.32"/>
<polygon fill="black" stroke="black" points="2124.79,-484.27 2127.49,-474.03 2118.99,-480.35 2124.79,-484.27"/>
</g>
<!-- node10 -->
<g id="node12" class="node">
<title>node10</title>
<polygon fill="lightgreen" stroke="black" points="1671.83,-448.54 1671.83,-463.46 1575.86,-474 1440.14,-474 1344.17,-463.46 1344.17,-448.54 1440.14,-438 1575.86,-438 1671.83,-448.54"/>
<text text-anchor="middle" x="1508" y="-452.3" font-family="Times,serif" font-size="14.00">#10 Class InvokeDynamicTest</text>
</g>
<!-- node5&#45;&gt;node10 -->
<g id="edge20" class="edge">
<title>node5&#45;&gt;node10</title>
<path fill="none" stroke="black" stroke-dasharray="1,5" d="M1951.36,-510.99C1851.25,-498.8 1717.99,-482.57 1623.79,-471.1"/>
<polygon fill="black" stroke="black" points="1624,-467.6 1613.65,-469.87 1623.15,-474.55 1624,-467.6"/>
</g>
<!-- node5&#45;&gt;node15 -->
<g id="edge23" class="edge">
<title>node5&#45;&gt;node15</title>
<path fill="none" stroke="green" d="M2185.61,-510.89C2204.86,-502.86 2222.88,-491.13 2235,-474 2284.43,-404.13 2201.54,-307.51 2159.64,-262.68"/>
<polygon fill="green" stroke="green" points="2161.98,-260.06 2152.58,-255.19 2156.89,-264.86 2161.98,-260.06"/>
</g>
<!-- node5&#45;&gt;node15 -->
<g id="edge24" class="edge">
<title>node5&#45;&gt;node15</title>
<path fill="none" stroke="red" d="M2203.17,-510.89C2222.86,-502.86 2240.88,-491.13 2253,-474 2302.74,-403.7 2218.51,-306.31 2169.3,-261.85"/>
<polygon fill="red" stroke="red" points="2171.55,-259.17 2161.73,-255.19 2166.92,-264.42 2171.55,-259.17"/>
</g>
<!-- node16 -->
<g id="node14" class="node">
<title>node16</title>
<polygon fill="lightgrey" stroke="black" points="2313,-182 1963,-182 1963,-146 2313,-146 2313,-182"/>
<text text-anchor="middle" x="2138" y="-160.3" font-family="Times,serif" font-size="14.00">#16 Invoke interface filter : (Predicate)Stream</text>
</g>
<!-- node5&#45;&gt;node16 -->
<g id="edge25" class="edge">
<title>node5&#45;&gt;node16</title>
<path fill="none" stroke="black" d="M2212.01,-511C2266.58,-499.81 2319,-482.44 2319,-457 2319,-457 2319,-457 2319,-236 2319,-214.62 2274.66,-197.01 2229.88,-184.67"/>
<polygon fill="black" stroke="black" points="2230.59,-181.24 2220.03,-182.05 2228.79,-188.01 2230.59,-181.24"/>
<text text-anchor="middle" x="2239.72" y="-174.85" font-family="Times,serif" font-size="14.00">*0</text>
</g>
<!-- node14 -->
<g id="node5" class="node">
<title>node14</title>
<polygon fill="lightgrey" stroke="black" points="1826.5,-328 897.5,-328 897.5,-292 1826.5,-292 1826.5,-328"/>
<text text-anchor="middle" x="1362" y="-306.3" font-family="Times,serif" font-size="14.00">#14 Invoke static metafactory : (MethodHandles$Lookup,String,MethodType,MethodType,MethodHandle,MethodType)CallSite</text>
</g>
<!-- node11&#45;&gt;node14 -->
<g id="edge6" class="edge">
<title>node11&#45;&gt;node14</title>
<path fill="none" stroke="black" d="M1839.4,-437.86C1816.79,-416.94 1775.38,-382.23 1733,-365 1693.98,-349.14 1650.99,-337.84 1608.52,-329.82"/>
<polygon fill="black" stroke="black" points="1609.07,-326.36 1598.6,-328 1607.81,-333.25 1609.07,-326.36"/>
<text text-anchor="middle" x="1617.95" y="-319.26" font-family="Times,serif" font-size="14.00">*0</text>
</g>
<!-- node14&#45;&gt;node15 -->
<g id="edge21" class="edge">
<title>node14&#45;&gt;node15</title>
<path fill="none" stroke="black" d="M1547.87,-291.99C1677.75,-280.11 1849.55,-264.39 1974.27,-252.98"/>
<polygon fill="black" stroke="black" points="1974.65,-256.46 1984.29,-252.06 1974.02,-249.49 1974.65,-256.46"/>
<text text-anchor="middle" x="1967.01" y="-258.43" font-family="Times,serif" font-size="14.00">*0</text>
</g>
<!-- node13 -->
<g id="node6" class="node">
<title>node13</title>
<polygon fill="lightgrey" stroke="black" points="1723.5,-401 1326.5,-401 1326.5,-365 1723.5,-365 1723.5,-401"/>
<text text-anchor="middle" x="1525" y="-379.3" font-family="Times,serif" font-size="14.00">#13 Invoke static in : (Class)MethodHandles$Lookup</text>
</g>
<!-- node13&#45;&gt;node14 -->
<g id="edge7" class="edge">
<title>node13&#45;&gt;node14</title>
<path fill="none" stroke="black" d="M1485.96,-364.99C1463.34,-355.14 1434.67,-342.66 1410.61,-332.17"/>
<polygon fill="black" stroke="black" points="1411.85,-328.9 1401.29,-328.11 1409.06,-335.32 1411.85,-328.9"/>
<text text-anchor="middle" x="1421.28" y="-323.9" font-family="Times,serif" font-size="14.00">*1</text>
</g>
<!-- node12&#45;&gt;node14 -->
<g id="edge8" class="edge">
<title>node12&#45;&gt;node14</title>
<path fill="none" stroke="black" d="M2088.35,-439.95C2006.16,-416.14 1838.29,-370.03 1693,-346 1653.24,-339.42 1610.57,-333.83 1569.53,-329.18"/>
<polygon fill="black" stroke="black" points="1569.74,-325.68 1559.42,-328.05 1568.96,-332.64 1569.74,-325.68"/>
<text text-anchor="middle" x="1578.37" y="-317.96" font-family="Times,serif" font-size="14.00">*2</text>
</g>
<!-- node8&#45;&gt;node14 -->
<g id="edge9" class="edge">
<title>node8&#45;&gt;node14</title>
<path fill="none" stroke="black" d="M298.47,-586.98C442.48,-566.65 692,-531.23 692,-530 692,-530 692,-530 692,-382 692,-355.28 777.34,-338.59 887.11,-328.17"/>
<polygon fill="black" stroke="black" points="887.48,-331.65 897.12,-327.25 886.84,-324.68 887.48,-331.65"/>
<text text-anchor="middle" x="879.85" y="-333.63" font-family="Times,serif" font-size="14.00">*3</text>
</g>
<!-- node7&#45;&gt;node14 -->
<g id="edge10" class="edge">
<title>node7&#45;&gt;node14</title>
<path fill="none" stroke="black" d="M678.8,-587.46C773.79,-574.2 896,-552.73 896,-530 896,-530 896,-530 896,-382 896,-357.47 998.19,-340.35 1106.86,-329.07"/>
<polygon fill="black" stroke="black" points="1107.47,-332.53 1117.06,-328.03 1106.76,-325.56 1107.47,-332.53"/>
<text text-anchor="middle" x="1099.88" y="-334.58" font-family="Times,serif" font-size="14.00">*4</text>
</g>
<!-- node6&#45;&gt;node14 -->
<g id="edge11" class="edge">
<title>node6&#45;&gt;node14</title>
<path fill="none" stroke="black" d="M1261,-583.78C1261,-569.41 1261,-548.37 1261,-530 1261,-530 1261,-530 1261,-382 1261,-359.6 1277.84,-343.65 1297.77,-332.62"/>
<polygon fill="black" stroke="black" points="1299.44,-335.7 1306.77,-328.05 1296.27,-329.46 1299.44,-335.7"/>
<text text-anchor="middle" x="1294.44" y="-340.09" font-family="Times,serif" font-size="14.00">*5</text>
</g>
<!-- node9&#45;&gt;node14 -->
<g id="edge12" class="edge">
<title>node9&#45;&gt;node14</title>
<path fill="none" stroke="black" d="M1855.47,-586.37C1825.73,-582.5 1793.11,-578.67 1763,-576 1667.48,-567.53 1422.13,-587.75 1332,-555 1314.71,-548.72 1299,-548.4 1299,-530 1299,-530 1299,-530 1299,-382 1299,-362.95 1311.84,-346.63 1325.93,-334.45"/>
<polygon fill="black" stroke="black" points="1328.21,-337.12 1333.82,-328.13 1323.83,-331.66 1328.21,-337.12"/>
<text text-anchor="middle" x="1324.97" y="-342.37" font-family="Times,serif" font-size="14.00">*6</text>
</g>
<!-- node10&#45;&gt;node13 -->
<g id="edge18" class="edge">
<title>node10&#45;&gt;node13</title>
<path fill="none" stroke="black" d="M1506.24,-437.81C1507.33,-429.7 1509.46,-419.84 1512.02,-410.78"/>
<polygon fill="black" stroke="black" points="1515.43,-411.62 1515.06,-401.03 1508.74,-409.53 1515.43,-411.62"/>
<text text-anchor="middle" x="1517.74" y="-417.15" font-family="Times,serif" font-size="14.00">*0</text>
</g>
<!-- node10&#45;&gt;node13 -->
<g id="edge19" class="edge">
<title>node10&#45;&gt;node13</title>
<path fill="none" stroke="black" d="M1517.99,-437.81C1520.75,-429.79 1523.32,-420.05 1525.1,-411.07"/>
<polygon fill="black" stroke="black" points="1528.58,-411.47 1526.78,-401.03 1521.67,-410.31 1528.58,-411.47"/>
<text text-anchor="middle" x="1532.11" y="-416.61" font-family="Times,serif" font-size="14.00">*1</text>
</g>
<!-- node15&#45;&gt;node16 -->
<g id="edge26" class="edge">
<title>node15&#45;&gt;node16</title>
<path fill="none" stroke="black" d="M2126.24,-218.81C2124.56,-210.79 2124.1,-201.05 2124.84,-192.07"/>
<polygon fill="black" stroke="black" points="2128.33,-192.42 2126.28,-182.03 2121.4,-191.43 2128.33,-192.42"/>
<text text-anchor="middle" x="2132.08" y="-197.47" font-family="Times,serif" font-size="14.00">*1</text>
</g>
<!-- node15&#45;&gt;node16 -->
<g id="edge27" class="edge">
<title>node15&#45;&gt;node16</title>
<path fill="none" stroke="red" d="M2138,-218.81C2138,-210.79 2138,-201.05 2138,-192.07"/>
<polygon fill="red" stroke="red" points="2141.5,-192.03 2138,-182.03 2134.5,-192.03 2141.5,-192.03"/>
</g>
<!-- node15&#45;&gt;node16 -->
<g id="edge28" class="edge">
<title>node15&#45;&gt;node16</title>
<path fill="none" stroke="green" d="M2149.76,-218.81C2151.44,-210.79 2151.9,-201.05 2151.16,-192.07"/>
<polygon fill="green" stroke="green" points="2154.6,-191.43 2149.72,-182.03 2147.67,-192.42 2154.6,-191.43"/>
</g>
<!-- node17 -->
<g id="node15" class="node">
<title>node17</title>
<polygon fill="lightgrey" stroke="black" points="2271,-109 2005,-109 2005,-73 2271,-73 2271,-109"/>
<text text-anchor="middle" x="2138" y="-87.3" font-family="Times,serif" font-size="14.00">#17 Invoke interface count : ()long</text>
</g>
<!-- node16&#45;&gt;node17 -->
<g id="edge29" class="edge">
<title>node16&#45;&gt;node17</title>
<path fill="none" stroke="black" d="M2126.24,-145.81C2124.56,-137.79 2124.1,-128.05 2124.84,-119.07"/>
<polygon fill="black" stroke="black" points="2128.33,-119.42 2126.28,-109.03 2121.4,-118.43 2128.33,-119.42"/>
<text text-anchor="middle" x="2132.08" y="-124.47" font-family="Times,serif" font-size="14.00">*0</text>
</g>
<!-- node16&#45;&gt;node17 -->
<g id="edge30" class="edge">
<title>node16&#45;&gt;node17</title>
<path fill="none" stroke="red" d="M2138,-145.81C2138,-137.79 2138,-128.05 2138,-119.07"/>
<polygon fill="red" stroke="red" points="2141.5,-119.03 2138,-109.03 2134.5,-119.03 2141.5,-119.03"/>
</g>
<!-- node16&#45;&gt;node17 -->
<g id="edge31" class="edge">
<title>node16&#45;&gt;node17</title>
<path fill="none" stroke="green" d="M2149.76,-145.81C2151.44,-137.79 2151.9,-128.05 2151.16,-119.07"/>
<polygon fill="green" stroke="green" points="2154.6,-118.43 2149.72,-109.03 2147.67,-119.42 2154.6,-118.43"/>
</g>
<!-- node18 -->
<g id="node16" class="node">
<title>node18</title>
<polygon fill="lightgrey" stroke="black" points="2230,-36 2046,-36 2046,0 2230,0 2230,-36"/>
<text text-anchor="middle" x="2138" y="-14.3" font-family="Times,serif" font-size="14.00">#18 ReturnValue : long</text>
</g>
<!-- node17&#45;&gt;node18 -->
<g id="edge32" class="edge">
<title>node17&#45;&gt;node18</title>
<path fill="none" stroke="black" d="M2126.24,-72.81C2124.56,-64.79 2124.1,-55.05 2124.84,-46.07"/>
<polygon fill="black" stroke="black" points="2128.33,-46.42 2126.28,-36.03 2121.4,-45.43 2128.33,-46.42"/>
<text text-anchor="middle" x="2132.08" y="-51.47" font-family="Times,serif" font-size="14.00">*0</text>
</g>
<!-- node17&#45;&gt;node18 -->
<g id="edge33" class="edge">
<title>node17&#45;&gt;node18</title>
<path fill="none" stroke="red" d="M2138,-72.81C2138,-64.79 2138,-55.05 2138,-46.07"/>
<polygon fill="red" stroke="red" points="2141.5,-46.03 2138,-36.03 2134.5,-46.03 2141.5,-46.03"/>
</g>
<!-- node17&#45;&gt;node18 -->
<g id="edge34" class="edge">
<title>node17&#45;&gt;node18</title>
<path fill="none" stroke="green" d="M2149.76,-72.81C2151.44,-64.79 2151.9,-55.05 2151.16,-46.07"/>
<polygon fill="green" stroke="green" points="2154.6,-45.43 2149.72,-36.03 2147.67,-46.42 2154.6,-45.43"/>
</g>
<!-- c0 -->
<!-- c1 -->
<!-- c0&#45;&gt;c1 -->
<g id="edge35" class="edge">
<title>c0&#45;&gt;c1</title>
<path fill="none" stroke="red" d="M2893.89,-684C2905.11,-684 2963.24,-684 2988.86,-684"/>
<polygon fill="red" stroke="red" points="2989.06,-687.5 2999.06,-684 2989.06,-680.5 2989.06,-687.5"/>
<text text-anchor="middle" x="2946.5" y="-690.8" font-family="Times,serif" font-size="14.00">Control flow</text>
</g>
<!-- c2 -->
<!-- c3 -->
<!-- c2&#45;&gt;c3 -->
<g id="edge36" class="edge">
<title>c2&#45;&gt;c3</title>
<path fill="none" stroke="red" stroke-dasharray="5,2" d="M2687.08,-684C2704.05,-684 2820.21,-684 2858.08,-684"/>
<polygon fill="red" stroke="red" points="2858.17,-687.5 2868.17,-684 2858.17,-680.5 2858.17,-687.5"/>
<text text-anchor="middle" x="2777.5" y="-690.8" font-family="Times,serif" font-size="14.00">Control flow back edge</text>
</g>
<!-- d0 -->
<!-- d1 -->
<!-- d0&#45;&gt;d1 -->
<g id="edge37" class="edge">
<title>d0&#45;&gt;d1</title>
<path fill="none" stroke="black" d="M2575.86,-684C2585.41,-684 2629.31,-684 2650.92,-684"/>
<polygon fill="black" stroke="black" points="2651.15,-687.5 2661.15,-684 2651.15,-680.5 2651.15,-687.5"/>
<text text-anchor="middle" x="2618.5" y="-690.8" font-family="Times,serif" font-size="14.00">Data flow</text>
</g>
<!-- d2 -->
<!-- d3 -->
<!-- d2&#45;&gt;d3 -->
<g id="edge38" class="edge">
<title>d2&#45;&gt;d3</title>
<path fill="none" stroke="black" stroke-dasharray="1,5" d="M2449.81,-684C2460.46,-684 2515.46,-684 2540.08,-684"/>
<polygon fill="black" stroke="black" points="2540.15,-687.5 2550.15,-684 2540.15,-680.5 2540.15,-687.5"/>
<text text-anchor="middle" x="2500" y="-690.8" font-family="Times,serif" font-size="14.00">Declaration</text>
</g>
<!-- d4 -->
<!-- d5 -->
<!-- d4&#45;&gt;d5 -->
<g id="edge39" class="edge">
<title>d4&#45;&gt;d5</title>
<path fill="none" stroke="blue" d="M2307.1,-684C2319.72,-684 2385.88,-684 2413.68,-684"/>
<polygon fill="blue" stroke="blue" points="2413.84,-687.5 2423.84,-684 2413.84,-680.5 2413.84,-687.5"/>
<text text-anchor="middle" x="2365.5" y="-690.8" font-family="Times,serif" font-size="14.00">PHI Data flow</text>
</g>
<!-- d6 -->
<!-- d7 -->
<!-- d6&#45;&gt;d7 -->
<g id="edge40" class="edge">
<title>d6&#45;&gt;d7</title>
<path fill="none" stroke="green" d="M2170,-684C2181.94,-684 2244.3,-684 2270.93,-684"/>
<polygon fill="green" stroke="green" points="2270.95,-687.5 2280.95,-684 2270.95,-680.5 2270.95,-687.5"/>
<text text-anchor="middle" x="2225.5" y="-690.8" font-family="Times,serif" font-size="14.00">Memory flow</text>
</g>
</g>
</svg>
