<?xml version="1.0" encoding="UTF-8" standalone="no"?>
<!DOCTYPE svg PUBLIC "-//W3C//DTD SVG 1.1//EN"
 "http://www.w3.org/Graphics/SVG/1.1/DTD/svg11.dtd">
<!-- Generated by graphviz version 2.43.0 (0)
 -->
<!-- Title: debugoutput Pages: 1 -->
<svg width="4808pt" height="578pt"
 viewBox="0.00 0.00 4808.36 577.80" xmlns="http://www.w3.org/2000/svg" xmlns:xlink="http://www.w3.org/1999/xlink">
<g id="graph0" class="graph" transform="scale(1 1) rotate(0) translate(4 573.8)">
<title>debugoutput</title>
<polygon fill="white" stroke="transparent" points="-4,4 -4,-573.8 4804.36,-573.8 4804.36,4 -4,4"/>
<g id="clust1" class="cluster">
<title>cluster_000</title>
<polygon fill="none" stroke="black" points="2575.36,-519.2 2575.36,-561.8 3414.36,-561.8 3414.36,-519.2 2575.36,-519.2"/>
<text text-anchor="middle" x="2994.86" y="-546.6" font-family="Times,serif" font-size="14.00">Legend</text>
</g>
<!-- node0 -->
<g id="node1" class="node">
<title>node0</title>
<polygon fill="lightgrey" stroke="black" points="2565.36,-547 2399.36,-547 2399.36,-511 2565.36,-511 2565.36,-547"/>
<text text-anchor="middle" x="2482.36" y="-525.3" font-family="Times,serif" font-size="14.00">#0 Method Order : 0</text>
</g>
<!-- node1 -->
<g id="node2" class="node">
<title>node1</title>
<polygon fill="lightgrey" stroke="black" points="228.36,-474 34.36,-474 34.36,-438 228.36,-438 228.36,-474"/>
<text text-anchor="middle" x="131.36" y="-452.3" font-family="Times,serif" font-size="14.00">#1 arg0 : List Order : 13</text>
</g>
<!-- node0&#45;&gt;node1 -->
<g id="edge2" class="edge">
<title>node0&#45;&gt;node1</title>
<path fill="none" stroke="black" d="M2399.2,-526.83C2149.78,-523.13 1386.55,-510.85 754.36,-493 523.95,-486.49 462.95,-496.49 238.21,-474.95"/>
<polygon fill="black" stroke="black" points="238.37,-471.45 228.08,-473.97 237.7,-478.42 238.37,-471.45"/>
<text text-anchor="middle" x="246.94" y="-463.61" font-family="Times,serif" font-size="14.00">*0</text>
</g>
<!-- node2 -->
<g id="node3" class="node">
<title>node2</title>
<polygon fill="lightgrey" stroke="black" points="648.36,-474 462.36,-474 462.36,-438 648.36,-438 648.36,-474"/>
<text text-anchor="middle" x="555.36" y="-452.3" font-family="Times,serif" font-size="14.00">#2 arg1 : int Order : 12</text>
</g>
<!-- node0&#45;&gt;node2 -->
<g id="edge4" class="edge">
<title>node0&#45;&gt;node2</title>
<path fill="none" stroke="black" d="M2399.32,-525.26C2213.52,-518.97 1750.51,-503.15 1363.36,-492 1049.03,-482.95 966.56,-503.75 658.22,-474.93"/>
<polygon fill="black" stroke="black" points="658.38,-471.43 648.09,-473.97 657.72,-478.4 658.38,-471.43"/>
<text text-anchor="middle" x="666.93" y="-463.56" font-family="Times,serif" font-size="14.00">*0</text>
</g>
<!-- node3 -->
<g id="node4" class="node">
<title>node3</title>
<polygon fill="lightgrey" stroke="black" points="4800.36,-474 4500.36,-474 4500.36,-438 4800.36,-438 4800.36,-474"/>
<text text-anchor="middle" x="4650.36" y="-452.3" font-family="Times,serif" font-size="14.00">#3 this : InvokeDynamicTest Order : 11</text>
</g>
<!-- node0&#45;&gt;node3 -->
<g id="edge6" class="edge">
<title>node0&#45;&gt;node3</title>
<path fill="none" stroke="black" d="M2562.67,-510.97C2986.37,-468.94 4054.59,-540.87 4477.36,-493 4507.55,-489.58 4540.33,-482.98 4569.21,-476.36"/>
<polygon fill="black" stroke="black" points="4570.3,-479.69 4579.25,-474.02 4568.71,-472.88 4570.3,-479.69"/>
<text text-anchor="middle" x="4563.51" y="-482.66" font-family="Times,serif" font-size="14.00">*0</text>
</g>
<!-- node4 -->
<g id="node5" class="node">
<title>node4</title>
<polygon fill="lightgrey" stroke="black" points="520.86,-401 153.86,-401 153.86,-365 520.86,-365 520.86,-401"/>
<text text-anchor="middle" x="337.36" y="-379.3" font-family="Times,serif" font-size="14.00">#4 Invoke interface stream : ()Stream Order : 14</text>
</g>
<!-- node0&#45;&gt;node4 -->
<g id="edge10" class="edge">
<title>node0&#45;&gt;node4</title>
<path fill="none" stroke="black" d="M2399.14,-527.77C1973.51,-526.36 58.76,-517.55 16.36,-474 -35.39,-420.84 48.51,-398.55 143.49,-389.44"/>
<polygon fill="black" stroke="black" points="143.96,-392.92 153.61,-388.53 143.33,-385.94 143.96,-392.92"/>
</g>
<!-- node5 -->
<g id="node6" class="node">
<title>node5</title>
<polygon fill="lightgrey" stroke="black" points="443.86,-474 246.86,-474 246.86,-438 443.86,-438 443.86,-474"/>
<text text-anchor="middle" x="345.36" y="-452.3" font-family="Times,serif" font-size="14.00">#5 LabelNode Order : 10</text>
</g>
<!-- node0&#45;&gt;node5 -->
<g id="edge12" class="edge">
<title>node0&#45;&gt;node5</title>
<path fill="none" stroke="red" d="M2399.18,-527.26C2069.53,-524.03 853.8,-509.83 454.23,-474.88"/>
<polygon fill="red" stroke="red" points="454.35,-471.38 444.08,-473.97 453.72,-478.35 454.35,-471.38"/>
</g>
<!-- node6 -->
<g id="node7" class="node">
<title>node6</title>
<polygon fill="lightgreen" stroke="black" points="1750.24,-448.54 1750.24,-463.46 1432.81,-474 983.91,-474 666.48,-463.46 666.48,-448.54 983.91,-438 1432.81,-438 1750.24,-448.54"/>
<text text-anchor="middle" x="1208.36" y="-452.3" font-family="Times,serif" font-size="14.00">#6 MethodHandle : invokeStatic : InvokeDynamicTest.lambda$countList$0 (int,Integer)boolean Order : 8</text>
</g>
<!-- node0&#45;&gt;node6 -->
<g id="edge14" class="edge">
<title>node0&#45;&gt;node6</title>
<path fill="none" stroke="black" stroke-dasharray="1,5" d="M2399.19,-523.65C2275.11,-516.87 2034.51,-503.38 1830.36,-492 1718.93,-485.79 1596.43,-478.99 1489.81,-473.05"/>
<polygon fill="black" stroke="black" points="1489.73,-469.54 1479.55,-472.48 1489.34,-476.53 1489.73,-469.54"/>
</g>
<!-- node7 -->
<g id="node8" class="node">
<title>node7</title>
<polygon fill="lightgreen" stroke="black" points="2234.98,-448.54 2234.98,-463.46 2098.13,-474 1904.59,-474 1767.74,-463.46 1767.74,-448.54 1904.59,-438 2098.13,-438 2234.98,-448.54"/>
<text text-anchor="middle" x="2001.36" y="-452.3" font-family="Times,serif" font-size="14.00">#7 MethodType : (Integer)boolean Order : 7</text>
</g>
<!-- node0&#45;&gt;node7 -->
<g id="edge16" class="edge">
<title>node0&#45;&gt;node7</title>
<path fill="none" stroke="black" stroke-dasharray="1,5" d="M2399.14,-516.47C2321.1,-505.22 2203.77,-487.95 2116.72,-474.91"/>
<polygon fill="black" stroke="black" points="2117.2,-471.44 2106.79,-473.42 2116.16,-478.36 2117.2,-471.44"/>
</g>
<!-- node8 -->
<g id="node9" class="node">
<title>node8</title>
<polygon fill="lightgreen" stroke="black" points="2711.54,-448.54 2711.54,-463.46 2577.29,-474 2387.43,-474 2253.18,-463.46 2253.18,-448.54 2387.43,-438 2577.29,-438 2711.54,-448.54"/>
<text text-anchor="middle" x="2482.36" y="-452.3" font-family="Times,serif" font-size="14.00">#8 MethodType : (Object)boolean Order : 6</text>
</g>
<!-- node0&#45;&gt;node8 -->
<g id="edge18" class="edge">
<title>node0&#45;&gt;node8</title>
<path fill="none" stroke="black" stroke-dasharray="1,5" d="M2476.48,-510.81C2475.64,-502.79 2475.41,-493.05 2475.78,-484.07"/>
<polygon fill="black" stroke="black" points="2479.28,-484.25 2476.5,-474.03 2472.3,-483.75 2479.28,-484.25"/>
</g>
<!-- node9 -->
<g id="node10" class="node">
<title>node9</title>
<polygon fill="lightgreen" stroke="black" points="3168.84,-448.54 3168.84,-463.46 3040.27,-474 2858.45,-474 2729.88,-463.46 2729.88,-448.54 2858.45,-438 3040.27,-438 3168.84,-448.54"/>
<text text-anchor="middle" x="2949.36" y="-452.3" font-family="Times,serif" font-size="14.00">#9 MethodType : (int)Predicate Order : 5</text>
</g>
<!-- node0&#45;&gt;node9 -->
<g id="edge20" class="edge">
<title>node0&#45;&gt;node9</title>
<path fill="none" stroke="black" stroke-dasharray="1,5" d="M2562.85,-510.92C2647.92,-496.73 2744.07,-483.04 2819.23,-473"/>
<polygon fill="black" stroke="black" points="2819.77,-476.45 2829.22,-471.67 2818.85,-469.52 2819.77,-476.45"/>
</g>
<!-- node10 -->
<g id="node11" class="node">
<title>node10</title>
<polygon fill="lightgreen" stroke="black" points="3618.3,-448.54 3618.3,-463.46 3491.81,-474 3312.91,-474 3186.42,-463.46 3186.42,-448.54 3312.91,-438 3491.81,-438 3618.3,-448.54"/>
<text text-anchor="middle" x="3402.36" y="-452.3" font-family="Times,serif" font-size="14.00">#10 Class LambdaMetafactory Order : 4</text>
</g>
<!-- node0&#45;&gt;node10 -->
<g id="edge22" class="edge">
<title>node0&#45;&gt;node10</title>
<path fill="none" stroke="black" stroke-dasharray="1,5" d="M2562.75,-510.95C2830.16,-477.41 2899.28,-492.38 3168.36,-474 3190.23,-472.51 3213.3,-470.85 3236.08,-469.18"/>
<polygon fill="black" stroke="black" points="3236.45,-472.66 3246.17,-468.44 3235.94,-465.68 3236.45,-472.66"/>
</g>
<!-- node11 -->
<g id="node12" class="node">
<title>node11</title>
<polygon fill="lightgreen" stroke="black" points="4060.77,-448.54 4060.77,-463.46 3936.34,-474 3760.38,-474 3635.95,-463.46 3635.95,-448.54 3760.38,-438 3936.34,-438 4060.77,-448.54"/>
<text text-anchor="middle" x="3848.36" y="-452.3" font-family="Times,serif" font-size="14.00">#11 Class InvokeDynamicTest Order : 2</text>
</g>
<!-- node0&#45;&gt;node11 -->
<g id="edge24" class="edge">
<title>node0&#45;&gt;node11</title>
<path fill="none" stroke="black" stroke-dasharray="1,5" d="M2562.7,-510.96C2796.28,-484.79 3384.03,-487.11 3618.36,-474 3640.88,-472.74 3664.68,-471.16 3688.1,-469.49"/>
<polygon fill="black" stroke="black" points="3688.38,-472.97 3698.1,-468.76 3687.88,-465.99 3688.38,-472.97"/>
</g>
<!-- node13 -->
<g id="node14" class="node">
<title>node13</title>
<polygon fill="lightgreen" stroke="black" points="4368.2,-448.54 4368.2,-463.46 4283.35,-474 4163.37,-474 4078.52,-463.46 4078.52,-448.54 4163.37,-438 4283.35,-438 4368.2,-448.54"/>
<text text-anchor="middle" x="4223.36" y="-452.3" font-family="Times,serif" font-size="14.00">#13 String : test Order : 1</text>
</g>
<!-- node0&#45;&gt;node13 -->
<g id="edge29" class="edge">
<title>node0&#45;&gt;node13</title>
<path fill="none" stroke="black" stroke-dasharray="1,5" d="M2562.85,-510.95C2730.19,-493.25 3894.4,-485.19 4060.36,-474 4076.36,-472.92 4093.26,-471.42 4109.89,-469.76"/>
<polygon fill="black" stroke="black" points="4110.61,-473.2 4120.2,-468.7 4109.9,-466.24 4110.61,-473.2"/>
</g>
<!-- node1&#45;&gt;node0 -->
<g id="edge1" class="edge">
<title>node1&#45;&gt;node0</title>
<path fill="none" stroke="green" stroke-width="2" d="M228.44,-471.97C234.51,-472.74 240.52,-473.43 246.36,-474 479.18,-496.79 538.52,-486.4 772.36,-493 1389.59,-510.43 2131.73,-522.54 2389.15,-526.55"/>
<polygon fill="green" stroke="green" stroke-width="2" points="2389.15,-530.05 2399.2,-526.71 2389.26,-523.05 2389.15,-530.05"/>
</g>
<!-- node1&#45;&gt;node4 -->
<g id="edge8" class="edge">
<title>node1&#45;&gt;node4</title>
<path fill="none" stroke="black" d="M180.7,-437.99C209.92,-427.92 247.12,-415.1 277.94,-404.48"/>
<polygon fill="black" stroke="black" points="279.39,-407.68 287.71,-401.11 277.11,-401.06 279.39,-407.68"/>
<text text-anchor="middle" x="273.32" y="-411.31" font-family="Times,serif" font-size="14.00">*0</text>
</g>
<!-- node2&#45;&gt;node0 -->
<g id="edge3" class="edge">
<title>node2&#45;&gt;node0</title>
<path fill="none" stroke="green" stroke-width="2" d="M648.55,-471.98C654.57,-472.76 660.55,-473.45 666.36,-474 982.8,-504.2 1063.61,-482.85 1381.36,-492 1754.89,-502.76 2199.04,-517.86 2388.89,-524.56"/>
<polygon fill="green" stroke="green" stroke-width="2" points="2388.99,-528.07 2399.11,-524.92 2389.24,-521.07 2388.99,-528.07"/>
</g>
<!-- node15 -->
<g id="node16" class="node">
<title>node15</title>
<polygon fill="lightgrey" stroke="black" points="750.86,-255 365.86,-255 365.86,-219 750.86,-219 750.86,-255"/>
<text text-anchor="middle" x="558.36" y="-233.3" font-family="Times,serif" font-size="14.00">#15 Invoke dynamic test : (int)Predicate Order : 15</text>
</g>
<!-- node2&#45;&gt;node15 -->
<g id="edge40" class="edge">
<title>node2&#45;&gt;node15</title>
<path fill="none" stroke="black" d="M555.6,-437.97C556.11,-400.51 557.36,-310.68 557.98,-265.26"/>
<polygon fill="black" stroke="black" points="561.48,-265.3 558.12,-255.25 554.48,-265.2 561.48,-265.3"/>
<text text-anchor="middle" x="566.32" y="-269.79" font-family="Times,serif" font-size="14.00">*1</text>
</g>
<!-- node3&#45;&gt;node0 -->
<g id="edge5" class="edge">
<title>node3&#45;&gt;node0</title>
<path fill="none" stroke="green" stroke-width="2" d="M4595.55,-474.02C4566.1,-481.38 4529.1,-489.18 4495.36,-493 4072.49,-540.88 3003.85,-468.91 2580.36,-511 2578.84,-511.15 2577.31,-511.31 2575.78,-511.49"/>
<polygon fill="green" stroke="green" stroke-width="2" points="2574.97,-508.06 2565.5,-512.81 2575.86,-515.01 2574.97,-508.06"/>
</g>
<!-- node4&#45;&gt;node0 -->
<g id="edge7" class="edge">
<title>node4&#45;&gt;node0</title>
<path fill="none" stroke="green" stroke-width="2" d="M153.85,-389.97C63.41,-399.4 -16.42,-421.84 34.36,-474 76.26,-517.04 1946.23,-526.14 2389.07,-527.71"/>
<polygon fill="green" stroke="green" stroke-width="2" points="2389.25,-531.21 2399.27,-527.75 2389.28,-524.21 2389.25,-531.21"/>
</g>
<!-- node4&#45;&gt;node15 -->
<g id="edge41" class="edge">
<title>node4&#45;&gt;node15</title>
<path fill="none" stroke="black" d="M359.03,-364.92C396.23,-338.88 472.23,-289.26 518.97,-260.38"/>
<polygon fill="black" stroke="black" points="520.93,-263.28 527.62,-255.06 517.27,-257.31 520.93,-263.28"/>
</g>
<!-- node4&#45;&gt;node15 -->
<g id="edge42" class="edge">
<title>node4&#45;&gt;node15</title>
<path fill="none" stroke="red" d="M368.13,-364.92C410.58,-339.04 486.22,-289.87 528.28,-260.92"/>
<polygon fill="red" stroke="red" points="530.51,-263.64 536.73,-255.06 526.52,-257.89 530.51,-263.64"/>
</g>
<!-- node16 -->
<g id="node17" class="node">
<title>node16</title>
<polygon fill="lightgrey" stroke="black" points="772.36,-182 344.36,-182 344.36,-146 772.36,-146 772.36,-182"/>
<text text-anchor="middle" x="558.36" y="-160.3" font-family="Times,serif" font-size="14.00">#16 Invoke interface filter : (Predicate)Stream Order : 16</text>
</g>
<!-- node4&#45;&gt;node16 -->
<g id="edge44" class="edge">
<title>node4&#45;&gt;node16</title>
<path fill="none" stroke="black" d="M333.71,-364.8C327.86,-332.12 320.4,-260.6 356.36,-219 368.81,-204.6 404.95,-192.94 443.29,-184.18"/>
<polygon fill="black" stroke="black" points="444.06,-187.6 453.07,-182.02 442.55,-180.76 444.06,-187.6"/>
<text text-anchor="middle" x="437.2" y="-190.49" font-family="Times,serif" font-size="14.00">*0</text>
</g>
<!-- node5&#45;&gt;node0 -->
<g id="edge11" class="edge">
<title>node5&#45;&gt;node0</title>
<path fill="none" stroke="green" stroke-width="2" d="M444.1,-472.03C450.28,-472.79 456.41,-473.45 462.36,-474 844.39,-509 2044.35,-523.53 2388.99,-527.09"/>
<polygon fill="green" stroke="green" stroke-width="2" points="2389.14,-530.59 2399.18,-527.19 2389.22,-523.59 2389.14,-530.59"/>
</g>
<!-- node5&#45;&gt;node4 -->
<g id="edge9" class="edge">
<title>node5&#45;&gt;node4</title>
<path fill="none" stroke="red" d="M343.42,-437.81C342.52,-429.79 341.42,-420.05 340.41,-411.07"/>
<polygon fill="red" stroke="red" points="343.88,-410.57 339.28,-401.03 336.92,-411.36 343.88,-410.57"/>
</g>
<!-- node6&#45;&gt;node0 -->
<g id="edge13" class="edge">
<title>node6&#45;&gt;node0</title>
<path fill="none" stroke="green" stroke-width="2" d="M1490.03,-472.13C1601.68,-478.28 1731.15,-485.47 1848.36,-492 2040.68,-502.72 2265.36,-515.31 2389,-522.41"/>
<polygon fill="green" stroke="green" stroke-width="2" points="2389,-525.91 2399.19,-522.99 2389.4,-518.92 2389,-525.91"/>
</g>
<!-- node14 -->
<g id="node15" class="node">
<title>node14</title>
<polygon fill="lightgrey" stroke="black" points="3448.36,-328 2450.36,-328 2450.36,-292 3448.36,-292 3448.36,-328"/>
<text text-anchor="middle" x="2949.36" y="-306.3" font-family="Times,serif" font-size="14.00">#14 Invoke static metafactory : (MethodHandles$Lookup,String,MethodType,MethodType,MethodHandle,MethodType)CallSite Order : 9</text>
</g>
<!-- node6&#45;&gt;node14 -->
<g id="edge36" class="edge">
<title>node6&#45;&gt;node14</title>
<path fill="none" stroke="black" d="M1414.05,-437.99C1745.65,-410.56 2395.3,-356.83 2733.36,-328.87"/>
<polygon fill="black" stroke="black" points="2733.84,-332.34 2743.52,-328.03 2733.26,-325.36 2733.84,-332.34"/>
<text text-anchor="middle" x="2726.15" y="-334.24" font-family="Times,serif" font-size="14.00">*5</text>
</g>
<!-- node7&#45;&gt;node0 -->
<g id="edge15" class="edge">
<title>node7&#45;&gt;node0</title>
<path fill="none" stroke="green" stroke-width="2" d="M2114.4,-472.84C2197.96,-484.97 2310.34,-501.56 2388.86,-513.37"/>
<polygon fill="green" stroke="green" stroke-width="2" points="2388.82,-516.91 2399.23,-514.94 2389.86,-509.99 2388.82,-516.91"/>
</g>
<!-- node7&#45;&gt;node14 -->
<g id="edge37" class="edge">
<title>node7&#45;&gt;node14</title>
<path fill="none" stroke="black" d="M2108.27,-438.76C2285.74,-411.8 2640.12,-357.97 2827.2,-329.56"/>
<polygon fill="black" stroke="black" points="2827.99,-332.98 2837.35,-328.01 2826.94,-326.06 2827.99,-332.98"/>
<text text-anchor="middle" x="2820.7" y="-335.39" font-family="Times,serif" font-size="14.00">*6</text>
</g>
<!-- node8&#45;&gt;node0 -->
<g id="edge17" class="edge">
<title>node8&#45;&gt;node0</title>
<path fill="none" stroke="green" stroke-width="2" d="M2488.22,-474.03C2489.07,-482.03 2489.31,-491.77 2488.95,-500.75"/>
<polygon fill="green" stroke="green" stroke-width="2" points="2485.45,-500.59 2488.24,-510.81 2492.43,-501.08 2485.45,-500.59"/>
</g>
<!-- node8&#45;&gt;node14 -->
<g id="edge35" class="edge">
<title>node8&#45;&gt;node14</title>
<path fill="none" stroke="black" d="M2537.77,-437.92C2624.48,-411.18 2791.89,-359.56 2884.24,-331.08"/>
<polygon fill="black" stroke="black" points="2885.5,-334.35 2894.03,-328.06 2883.44,-327.66 2885.5,-334.35"/>
<text text-anchor="middle" x="2879.2" y="-337.78" font-family="Times,serif" font-size="14.00">*4</text>
</g>
<!-- node9&#45;&gt;node0 -->
<g id="edge19" class="edge">
<title>node9&#45;&gt;node0</title>
<path fill="none" stroke="green" stroke-width="2" d="M2838.98,-472.43C2765.58,-482.53 2667.16,-496.52 2580.36,-511 2578.86,-511.25 2577.34,-511.51 2575.81,-511.77"/>
<polygon fill="green" stroke="green" stroke-width="2" points="2574.85,-508.38 2565.6,-513.55 2576.05,-515.28 2574.85,-508.38"/>
</g>
<!-- node9&#45;&gt;node14 -->
<g id="edge34" class="edge">
<title>node9&#45;&gt;node14</title>
<path fill="none" stroke="black" d="M2949.36,-437.92C2949.36,-413.34 2949.36,-367.75 2949.36,-338.43"/>
<polygon fill="black" stroke="black" points="2952.86,-338.06 2949.36,-328.06 2945.86,-338.06 2952.86,-338.06"/>
<text text-anchor="middle" x="2957.81" y="-342.49" font-family="Times,serif" font-size="14.00">*3</text>
</g>
<!-- node10&#45;&gt;node0 -->
<g id="edge21" class="edge">
<title>node10&#45;&gt;node0</title>
<path fill="none" stroke="green" stroke-width="2" d="M3254.23,-469.16C3231.53,-470.84 3208.34,-472.5 3186.36,-474 2917.15,-492.39 2848.09,-477.4 2580.36,-511 2578.85,-511.19 2577.32,-511.39 2575.79,-511.6"/>
<polygon fill="green" stroke="green" stroke-width="2" points="2574.92,-508.19 2565.53,-513.09 2575.93,-515.11 2574.92,-508.19"/>
</g>
<!-- node10&#45;&gt;node14 -->
<g id="edge31" class="edge">
<title>node10&#45;&gt;node14</title>
<path fill="none" stroke="black" d="M3348.62,-437.92C3264.58,-411.2 3102.44,-359.66 3012.8,-331.17"/>
<polygon fill="black" stroke="black" points="3013.62,-327.76 3003.03,-328.06 3011.5,-334.43 3013.62,-327.76"/>
<text text-anchor="middle" x="3022.87" y="-321.8" font-family="Times,serif" font-size="14.00">*0</text>
</g>
<!-- node11&#45;&gt;node0 -->
<g id="edge23" class="edge">
<title>node11&#45;&gt;node0</title>
<path fill="none" stroke="green" stroke-width="2" d="M3706.33,-469.45C3682.99,-471.14 3659.03,-472.73 3636.36,-474 3401.92,-487.12 2813.7,-484.78 2580.36,-511 2578.85,-511.17 2577.32,-511.35 2575.78,-511.54"/>
<polygon fill="green" stroke="green" stroke-width="2" points="2574.95,-508.13 2565.51,-512.95 2575.9,-515.06 2574.95,-508.13"/>
</g>
<!-- node12 -->
<g id="node13" class="node">
<title>node12</title>
<polygon fill="lightgrey" stroke="black" points="4081.36,-401 3615.36,-401 3615.36,-365 4081.36,-365 4081.36,-401"/>
<text text-anchor="middle" x="3848.36" y="-379.3" font-family="Times,serif" font-size="14.00">#12 Invoke static in : (Class)MethodHandles$Lookup Order : 3</text>
</g>
<!-- node11&#45;&gt;node12 -->
<g id="edge26" class="edge">
<title>node11&#45;&gt;node12</title>
<path fill="none" stroke="black" d="M3836.6,-437.81C3834.93,-429.79 3834.46,-420.05 3835.2,-411.07"/>
<polygon fill="black" stroke="black" points="3838.69,-411.42 3836.64,-401.03 3831.76,-410.43 3838.69,-411.42"/>
<text text-anchor="middle" x="3842.44" y="-416.47" font-family="Times,serif" font-size="14.00">*0</text>
</g>
<!-- node11&#45;&gt;node12 -->
<g id="edge27" class="edge">
<title>node11&#45;&gt;node12</title>
<path fill="none" stroke="black" d="M3860.12,-437.81C3861.8,-429.79 3862.26,-420.05 3861.52,-411.07"/>
<polygon fill="black" stroke="black" points="3864.96,-410.43 3860.08,-401.03 3858.03,-411.42 3864.96,-410.43"/>
<text text-anchor="middle" x="3871.01" y="-414.08" font-family="Times,serif" font-size="14.00">*1</text>
</g>
<!-- node12&#45;&gt;node11 -->
<g id="edge25" class="edge">
<title>node12&#45;&gt;node11</title>
<path fill="none" stroke="green" stroke-width="2" d="M3848.36,-401.03C3848.36,-409.03 3848.36,-418.77 3848.36,-427.75"/>
<polygon fill="green" stroke="green" stroke-width="2" points="3844.86,-427.81 3848.36,-437.81 3851.86,-427.81 3844.86,-427.81"/>
</g>
<!-- node12&#45;&gt;node14 -->
<g id="edge32" class="edge">
<title>node12&#45;&gt;node14</title>
<path fill="none" stroke="black" d="M3633.03,-364.99C3494.67,-354.07 3315.24,-339.9 3174.92,-328.81"/>
<polygon fill="black" stroke="black" points="3175.13,-325.32 3164.88,-328.02 3174.58,-332.3 3175.13,-325.32"/>
<text text-anchor="middle" x="3183.62" y="-317.32" font-family="Times,serif" font-size="14.00">*1</text>
</g>
<!-- node13&#45;&gt;node0 -->
<g id="edge28" class="edge">
<title>node13&#45;&gt;node0</title>
<path fill="none" stroke="green" stroke-width="2" d="M4128.39,-469.69C4111.76,-471.38 4094.6,-472.91 4078.36,-474 3912.24,-485.2 2745.91,-493.27 2580.36,-511 2578.85,-511.16 2577.32,-511.34 2575.78,-511.52"/>
<polygon fill="green" stroke="green" stroke-width="2" points="2574.96,-508.1 2565.51,-512.89 2575.88,-515.04 2574.96,-508.1"/>
</g>
<!-- node13&#45;&gt;node14 -->
<g id="edge33" class="edge">
<title>node13&#45;&gt;node14</title>
<path fill="none" stroke="black" d="M4205.33,-437.93C4181.29,-416.39 4136.39,-380.31 4090.36,-365 4028.96,-344.58 3733.61,-330.94 3458.81,-322.48"/>
<polygon fill="black" stroke="black" points="3458.73,-318.98 3448.63,-322.17 3458.52,-325.98 3458.73,-318.98"/>
<text text-anchor="middle" x="3467.01" y="-310.58" font-family="Times,serif" font-size="14.00">*2</text>
</g>
<!-- node14&#45;&gt;node0 -->
<g id="edge30" class="edge">
<title>node14&#45;&gt;node0</title>
<path fill="none" stroke="green" stroke-width="2" d="M3448.61,-318.11C3712.67,-324.99 4008.31,-338.48 4137.36,-365 4409.4,-420.9 4440.46,-409.59 4377.36,-474 4343.34,-508.72 2727.18,-505.98 2575.66,-511.12"/>
<polygon fill="green" stroke="green" stroke-width="2" points="2575.48,-507.63 2565.68,-511.65 2575.85,-514.62 2575.48,-507.63"/>
</g>
<!-- node14&#45;&gt;node15 -->
<g id="edge39" class="edge">
<title>node14&#45;&gt;node15</title>
<path fill="none" stroke="black" d="M2450.31,-294.18C1927.4,-278.65 1131.54,-255.02 761.15,-244.02"/>
<polygon fill="black" stroke="black" points="761.23,-240.52 751.13,-243.72 761.02,-247.52 761.23,-240.52"/>
<text text-anchor="middle" x="769.5" y="-232.11" font-family="Times,serif" font-size="14.00">*0</text>
</g>
<!-- node15&#45;&gt;node0 -->
<g id="edge38" class="edge">
<title>node15&#45;&gt;node0</title>
<path fill="none" stroke="green" stroke-width="2" d="M750.9,-238.98C1533.49,-243.3 4434.36,-262.42 4434.36,-309 4434.36,-457 4434.36,-457 4434.36,-457 4434.36,-518.41 4221.71,-490.27 4160.36,-493 3810.85,-508.57 2939.1,-476.34 2575.75,-510.64"/>
<polygon fill="green" stroke="green" stroke-width="2" points="2575.29,-507.17 2565.67,-511.62 2575.97,-514.14 2575.29,-507.17"/>
</g>
<!-- node15&#45;&gt;node16 -->
<g id="edge45" class="edge">
<title>node15&#45;&gt;node16</title>
<path fill="none" stroke="black" d="M546.6,-218.81C544.93,-210.79 544.46,-201.05 545.2,-192.07"/>
<polygon fill="black" stroke="black" points="548.69,-192.42 546.64,-182.03 541.76,-191.43 548.69,-192.42"/>
<text text-anchor="middle" x="552.44" y="-197.47" font-family="Times,serif" font-size="14.00">*1</text>
</g>
<!-- node15&#45;&gt;node16 -->
<g id="edge46" class="edge">
<title>node15&#45;&gt;node16</title>
<path fill="none" stroke="red" d="M558.36,-218.81C558.36,-210.79 558.36,-201.05 558.36,-192.07"/>
<polygon fill="red" stroke="red" points="561.86,-192.03 558.36,-182.03 554.86,-192.03 561.86,-192.03"/>
</g>
<!-- node15&#45;&gt;node16 -->
<g id="edge47" class="edge">
<title>node15&#45;&gt;node16</title>
<path fill="none" stroke="black" d="M570.12,-218.81C571.8,-210.79 572.26,-201.05 571.52,-192.07"/>
<polygon fill="black" stroke="black" points="574.96,-191.43 570.08,-182.03 568.03,-192.42 574.96,-191.43"/>
</g>
<!-- node16&#45;&gt;node0 -->
<g id="edge43" class="edge">
<title>node16&#45;&gt;node0</title>
<path fill="none" stroke="green" stroke-width="2" d="M772.62,-166.07C1590.8,-170.48 4472.36,-189.35 4472.36,-236 4472.36,-457 4472.36,-457 4472.36,-457 4472.36,-542.07 4369.26,-487.53 4284.36,-493 3907.71,-517.27 2966.43,-473.89 2575.65,-510.65"/>
<polygon fill="green" stroke="green" stroke-width="2" points="2575.29,-507.17 2565.67,-511.62 2575.96,-514.14 2575.29,-507.17"/>
</g>
<!-- node17 -->
<g id="node18" class="node">
<title>node17</title>
<polygon fill="lightgrey" stroke="black" points="730.36,-109 386.36,-109 386.36,-73 730.36,-73 730.36,-109"/>
<text text-anchor="middle" x="558.36" y="-87.3" font-family="Times,serif" font-size="14.00">#17 Invoke interface count : ()long Order : 17</text>
</g>
<!-- node16&#45;&gt;node17 -->
<g id="edge49" class="edge">
<title>node16&#45;&gt;node17</title>
<path fill="none" stroke="black" d="M540.73,-145.81C538.21,-137.79 537.51,-128.05 538.63,-119.07"/>
<polygon fill="black" stroke="black" points="542.11,-119.54 540.78,-109.03 535.26,-118.07 542.11,-119.54"/>
<text text-anchor="middle" x="545.25" y="-124.82" font-family="Times,serif" font-size="14.00">*0</text>
</g>
<!-- node16&#45;&gt;node17 -->
<g id="edge50" class="edge">
<title>node16&#45;&gt;node17</title>
<path fill="none" stroke="red" d="M564.24,-145.81C565.08,-137.79 565.31,-128.05 564.94,-119.07"/>
<polygon fill="red" stroke="red" points="568.42,-118.75 564.22,-109.03 561.44,-119.25 568.42,-118.75"/>
</g>
<!-- node16&#45;&gt;node17 -->
<g id="edge51" class="edge">
<title>node16&#45;&gt;node17</title>
<path fill="none" stroke="black" d="M576,-145.81C578.51,-137.79 579.21,-128.05 578.09,-119.07"/>
<polygon fill="black" stroke="black" points="581.46,-118.07 575.95,-109.03 574.62,-119.54 581.46,-118.07"/>
</g>
<!-- node17&#45;&gt;node16 -->
<g id="edge48" class="edge">
<title>node17&#45;&gt;node16</title>
<path fill="none" stroke="green" stroke-width="2" d="M552.5,-109.03C551.65,-117.03 551.41,-126.77 551.78,-135.75"/>
<polygon fill="green" stroke="green" stroke-width="2" points="548.29,-136.08 552.48,-145.81 555.27,-135.59 548.29,-136.08"/>
</g>
<!-- node18 -->
<g id="node19" class="node">
<title>node18</title>
<polygon fill="lightgrey" stroke="black" points="689.36,-36 427.36,-36 427.36,0 689.36,0 689.36,-36"/>
<text text-anchor="middle" x="558.36" y="-14.3" font-family="Times,serif" font-size="14.00">#18 ReturnValue : long Order : 18</text>
</g>
<!-- node17&#45;&gt;node18 -->
<g id="edge53" class="edge">
<title>node17&#45;&gt;node18</title>
<path fill="none" stroke="black" d="M540.73,-72.81C538.21,-64.79 537.51,-55.05 538.63,-46.07"/>
<polygon fill="black" stroke="black" points="542.11,-46.54 540.78,-36.03 535.26,-45.07 542.11,-46.54"/>
<text text-anchor="middle" x="545.25" y="-51.82" font-family="Times,serif" font-size="14.00">*0</text>
</g>
<!-- node17&#45;&gt;node18 -->
<g id="edge54" class="edge">
<title>node17&#45;&gt;node18</title>
<path fill="none" stroke="red" d="M564.24,-72.81C565.08,-64.79 565.31,-55.05 564.94,-46.07"/>
<polygon fill="red" stroke="red" points="568.42,-45.75 564.22,-36.03 561.44,-46.25 568.42,-45.75"/>
</g>
<!-- node17&#45;&gt;node18 -->
<g id="edge55" class="edge">
<title>node17&#45;&gt;node18</title>
<path fill="none" stroke="black" d="M576,-72.81C578.51,-64.79 579.21,-55.05 578.09,-46.07"/>
<polygon fill="black" stroke="black" points="581.46,-45.07 575.95,-36.03 574.62,-46.54 581.46,-45.07"/>
</g>
<!-- node18&#45;&gt;node17 -->
<g id="edge52" class="edge">
<title>node18&#45;&gt;node17</title>
<path fill="none" stroke="green" stroke-width="2" d="M552.5,-36.03C551.65,-44.03 551.41,-53.77 551.78,-62.75"/>
<polygon fill="green" stroke="green" stroke-width="2" points="548.29,-63.08 552.48,-72.81 555.27,-62.59 548.29,-63.08"/>
</g>
<!-- c0 -->
<!-- c1 -->
<!-- c0&#45;&gt;c1 -->
<g id="edge56" class="edge">
<title>c0&#45;&gt;c1</title>
<path fill="none" stroke="red" d="M3297.25,-529C3308.47,-529 3366.6,-529 3392.22,-529"/>
<polygon fill="red" stroke="red" points="3392.42,-532.5 3402.42,-529 3392.42,-525.5 3392.42,-532.5"/>
<text text-anchor="middle" x="3349.86" y="-535.8" font-family="Times,serif" font-size="14.00">Control flow</text>
</g>
<!-- c2 -->
<!-- c3 -->
<!-- c2&#45;&gt;c3 -->
<g id="edge57" class="edge">
<title>c2&#45;&gt;c3</title>
<path fill="none" stroke="red" stroke-dasharray="5,2" d="M3090.44,-529C3107.41,-529 3223.57,-529 3261.44,-529"/>
<polygon fill="red" stroke="red" points="3261.53,-532.5 3271.53,-529 3261.53,-525.5 3261.53,-532.5"/>
<text text-anchor="middle" x="3180.86" y="-535.8" font-family="Times,serif" font-size="14.00">Control flow back edge</text>
</g>
<!-- d0 -->
<!-- d1 -->
<!-- d0&#45;&gt;d1 -->
<g id="edge58" class="edge">
<title>d0&#45;&gt;d1</title>
<path fill="none" stroke="black" d="M2979.22,-529C2988.77,-529 3032.67,-529 3054.28,-529"/>
<polygon fill="black" stroke="black" points="3054.51,-532.5 3064.51,-529 3054.51,-525.5 3054.51,-532.5"/>
<text text-anchor="middle" x="3021.86" y="-535.8" font-family="Times,serif" font-size="14.00">Data flow</text>
</g>
<!-- d2 -->
<!-- d3 -->
<!-- d2&#45;&gt;d3 -->
<g id="edge59" class="edge">
<title>d2&#45;&gt;d3</title>
<path fill="none" stroke="black" stroke-dasharray="1,5" d="M2853.17,-529C2863.82,-529 2918.83,-529 2943.44,-529"/>
<polygon fill="black" stroke="black" points="2943.51,-532.5 2953.51,-529 2943.51,-525.5 2943.51,-532.5"/>
<text text-anchor="middle" x="2903.36" y="-535.8" font-family="Times,serif" font-size="14.00">Declaration</text>
</g>
<!-- d4 -->
<!-- d5 -->
<!-- d4&#45;&gt;d5 -->
<g id="edge60" class="edge">
<title>d4&#45;&gt;d5</title>
<path fill="none" stroke="blue" d="M2710.46,-529C2723.08,-529 2789.24,-529 2817.04,-529"/>
<polygon fill="blue" stroke="blue" points="2817.2,-532.5 2827.2,-529 2817.2,-525.5 2817.2,-532.5"/>
<text text-anchor="middle" x="2768.86" y="-535.8" font-family="Times,serif" font-size="14.00">PHI Data flow</text>
</g>
<!-- d6 -->
<!-- d7 -->
<!-- d6&#45;&gt;d7 -->
<g id="edge61" class="edge">
<title>d6&#45;&gt;d7</title>
<path fill="none" stroke="green" d="M2587.47,-529C2598.51,-529 2650.03,-529 2674.02,-529"/>
<polygon fill="green" stroke="green" points="2674.26,-532.5 2684.26,-529 2674.26,-525.5 2674.26,-532.5"/>
<text text-anchor="middle" x="2635.86" y="-535.8" font-family="Times,serif" font-size="14.00">Dominance</text>
</g>
</g>
</svg>
