<?xml version="1.0" encoding="UTF-8" standalone="no"?>
<!DOCTYPE svg PUBLIC "-//W3C//DTD SVG 1.1//EN"
 "http://www.w3.org/Graphics/SVG/1.1/DTD/svg11.dtd">
<!-- Generated by graphviz version 2.43.0 (0)
 -->
<!-- Title: debugoutput Pages: 1 -->
<svg width="3875pt" height="724pt"
 viewBox="0.00 0.00 3874.50 723.80" xmlns="http://www.w3.org/2000/svg" xmlns:xlink="http://www.w3.org/1999/xlink">
<g id="graph0" class="graph" transform="scale(1 1) rotate(0) translate(4 719.8)">
<title>debugoutput</title>
<polygon fill="white" stroke="transparent" points="-4,4 -4,-719.8 3870.5,-719.8 3870.5,4 -4,4"/>
<g id="clust1" class="cluster">
<title>cluster_000</title>
<polygon fill="none" stroke="black" points="2593.5,-665.2 2593.5,-707.8 3569.5,-707.8 3569.5,-665.2 2593.5,-665.2"/>
<text text-anchor="middle" x="3081.5" y="-692.6" font-family="Times,serif" font-size="14.00">Legend</text>
</g>
<!-- node0 -->
<g id="node1" class="node">
<title>node0</title>
<polygon fill="lightgrey" stroke="black" points="2583.5,-693 2417.5,-693 2417.5,-657 2583.5,-657 2583.5,-693"/>
<text text-anchor="middle" x="2500.5" y="-671.3" font-family="Times,serif" font-size="14.00">#0 Method Order : 0</text>
</g>
<!-- node1 -->
<g id="node2" class="node">
<title>node1</title>
<polygon fill="lightgrey" stroke="black" points="3303,-620 3118,-620 3118,-584 3303,-584 3303,-620"/>
<text text-anchor="middle" x="3210.5" y="-598.3" font-family="Times,serif" font-size="14.00">#1 arg0 : List Order : 8</text>
</g>
<!-- node0&#45;&gt;node1 -->
<g id="edge2" class="edge">
<title>node0&#45;&gt;node1</title>
<path fill="none" stroke="black" d="M2580.83,-656.96C2805.06,-631.78 2866.02,-677.63 3088.5,-639 3108.46,-635.53 3129.76,-629.42 3148.95,-623.2"/>
<polygon fill="black" stroke="black" points="3150.07,-626.51 3158.47,-620.05 3147.88,-619.86 3150.07,-626.51"/>
<text text-anchor="middle" x="3143.91" y="-630.06" font-family="Times,serif" font-size="14.00">*0</text>
</g>
<!-- node2 -->
<g id="node3" class="node">
<title>node2</title>
<polygon fill="lightgrey" stroke="black" points="177,-620 0,-620 0,-584 177,-584 177,-620"/>
<text text-anchor="middle" x="88.5" y="-598.3" font-family="Times,serif" font-size="14.00">#2 arg1 : int Order : 7</text>
</g>
<!-- node0&#45;&gt;node2 -->
<g id="edge4" class="edge">
<title>node0&#45;&gt;node2</title>
<path fill="none" stroke="black" d="M2417.25,-673.75C2058.87,-672.39 645.45,-664.29 186.82,-621"/>
<polygon fill="black" stroke="black" points="187.12,-617.51 176.83,-620.03 186.45,-624.48 187.12,-617.51"/>
<text text-anchor="middle" x="195.68" y="-609.66" font-family="Times,serif" font-size="14.00">*0</text>
</g>
<!-- node3 -->
<g id="node4" class="node">
<title>node3</title>
<polygon fill="lightgrey" stroke="black" points="1587,-620 1296,-620 1296,-584 1587,-584 1587,-620"/>
<text text-anchor="middle" x="1441.5" y="-598.3" font-family="Times,serif" font-size="14.00">#3 this : InvokeDynamicTest Order : 6</text>
</g>
<!-- node0&#45;&gt;node3 -->
<g id="edge6" class="edge">
<title>node0&#45;&gt;node3</title>
<path fill="none" stroke="black" d="M2417.29,-670.66C2258.29,-663.75 1900.44,-646.37 1597.26,-620.91"/>
<polygon fill="black" stroke="black" points="1597.21,-617.39 1586.95,-620.04 1596.62,-624.37 1597.21,-617.39"/>
<text text-anchor="middle" x="1605.72" y="-609.44" font-family="Times,serif" font-size="14.00">*0</text>
</g>
<!-- node4 -->
<g id="node5" class="node">
<title>node4</title>
<polygon fill="lightgrey" stroke="black" points="3509.5,-620 3321.5,-620 3321.5,-584 3509.5,-584 3509.5,-620"/>
<text text-anchor="middle" x="3415.5" y="-598.3" font-family="Times,serif" font-size="14.00">#4 LabelNode Order : 5</text>
</g>
<!-- node0&#45;&gt;node4 -->
<g id="edge8" class="edge">
<title>node0&#45;&gt;node4</title>
<path fill="none" stroke="red" d="M2580.84,-656.96C2815.68,-630.75 2876.56,-654.71 3112.5,-639 3197.62,-633.33 3218.93,-631.17 3303.5,-620 3306.05,-619.66 3308.64,-619.31 3311.26,-618.95"/>
<polygon fill="red" stroke="red" points="3312.03,-622.37 3321.43,-617.48 3311.03,-615.44 3312.03,-622.37"/>
</g>
<!-- node5 -->
<g id="node6" class="node">
<title>node5</title>
<polygon fill="lightgrey" stroke="black" points="3389.5,-547 3031.5,-547 3031.5,-511 3389.5,-511 3389.5,-547"/>
<text text-anchor="middle" x="3210.5" y="-525.3" font-family="Times,serif" font-size="14.00">#5 Invoke interface stream : ()Stream Order : 9</text>
</g>
<!-- node0&#45;&gt;node5 -->
<g id="edge12" class="edge">
<title>node0&#45;&gt;node5</title>
<path fill="none" stroke="green" d="M2580.8,-656.97C2632.5,-651.23 2991.34,-657.97 3038.5,-639 3072.67,-625.25 3070.27,-605.05 3100.5,-584 3117.81,-571.95 3138.11,-560.61 3156.6,-551.47"/>
<polygon fill="green" stroke="green" points="3158.31,-554.53 3165.79,-547.03 3155.27,-548.22 3158.31,-554.53"/>
</g>
<!-- node6 -->
<g id="node7" class="node">
<title>node6</title>
<polygon fill="lightgreen" stroke="black" points="1278.38,-594.54 1278.38,-609.46 960.95,-620 512.05,-620 194.62,-609.46 194.62,-594.54 512.05,-584 960.95,-584 1278.38,-594.54"/>
<text text-anchor="middle" x="736.5" y="-598.3" font-family="Times,serif" font-size="14.00">#6 MethodHandle : invokeStatic : InvokeDynamicTest.lambda$countList$0 (int,Integer)boolean Order : 4</text>
</g>
<!-- node0&#45;&gt;node6 -->
<g id="edge14" class="edge">
<title>node0&#45;&gt;node6</title>
<path fill="none" stroke="black" stroke-dasharray="1,5" d="M2417.38,-670.78C2181.1,-661.42 1495.8,-633.87 1076.75,-616.92"/>
<polygon fill="black" stroke="black" points="1076.73,-613.41 1066.6,-616.5 1076.45,-620.41 1076.73,-613.41"/>
</g>
<!-- node7 -->
<g id="node8" class="node">
<title>node7</title>
<polygon fill="lightgreen" stroke="black" points="2072.12,-594.54 2072.12,-609.46 1935.27,-620 1741.73,-620 1604.88,-609.46 1604.88,-594.54 1741.73,-584 1935.27,-584 2072.12,-594.54"/>
<text text-anchor="middle" x="1838.5" y="-598.3" font-family="Times,serif" font-size="14.00">#7 MethodType : (Integer)boolean Order : 3</text>
</g>
<!-- node0&#45;&gt;node7 -->
<g id="edge16" class="edge">
<title>node0&#45;&gt;node7</title>
<path fill="none" stroke="black" stroke-dasharray="1,5" d="M2417.41,-665.58C2307.28,-654.03 2111.54,-633.08 1978.43,-618.62"/>
<polygon fill="black" stroke="black" points="1978.48,-615.1 1968.16,-617.5 1977.72,-622.06 1978.48,-615.1"/>
</g>
<!-- node8 -->
<g id="node9" class="node">
<title>node8</title>
<polygon fill="lightgreen" stroke="black" points="2528.98,-594.54 2528.98,-609.46 2400.41,-620 2218.59,-620 2090.02,-609.46 2090.02,-594.54 2218.59,-584 2400.41,-584 2528.98,-594.54"/>
<text text-anchor="middle" x="2309.5" y="-598.3" font-family="Times,serif" font-size="14.00">#8 MethodType : (int)Predicate Order : 2</text>
</g>
<!-- node0&#45;&gt;node8 -->
<g id="edge18" class="edge">
<title>node0&#45;&gt;node8</title>
<path fill="none" stroke="black" stroke-dasharray="1,5" d="M2448.89,-656.99C2420.98,-647.01 2386.73,-634.32 2359.13,-623.76"/>
<polygon fill="black" stroke="black" points="2360.26,-620.44 2349.67,-620.11 2357.74,-626.97 2360.26,-620.44"/>
</g>
<!-- node9 -->
<g id="node10" class="node">
<title>node9</title>
<polygon fill="lightgreen" stroke="black" points="3005.68,-594.54 3005.68,-609.46 2871.43,-620 2681.57,-620 2547.32,-609.46 2547.32,-594.54 2681.57,-584 2871.43,-584 3005.68,-594.54"/>
<text text-anchor="middle" x="2776.5" y="-598.3" font-family="Times,serif" font-size="14.00">#9 MethodType : (Object)boolean Order : 1</text>
</g>
<!-- node0&#45;&gt;node9 -->
<g id="edge20" class="edge">
<title>node0&#45;&gt;node9</title>
<path fill="none" stroke="black" stroke-dasharray="1,5" d="M2560.75,-656.99C2599.89,-646.64 2651.37,-633.38 2694.25,-622.59"/>
<polygon fill="black" stroke="black" points="2695.26,-625.94 2704.1,-620.11 2693.55,-619.15 2695.26,-625.94"/>
</g>
<!-- node1&#45;&gt;node0 -->
<g id="edge1" class="edge">
<title>node1&#45;&gt;node0</title>
<path fill="none" stroke="fuchsia" stroke-width="2" d="M3174.84,-620.05C3155,-627.27 3129.83,-634.95 3106.5,-639 2883.91,-677.65 2823,-631.73 2598.5,-657 2596.99,-657.17 2595.46,-657.35 2593.92,-657.54"/>
<polygon fill="fuchsia" stroke="fuchsia" stroke-width="2" points="2593.09,-654.13 2583.65,-658.95 2594.04,-661.06 2593.09,-654.13"/>
</g>
<!-- node1&#45;&gt;node5 -->
<g id="edge10" class="edge">
<title>node1&#45;&gt;node5</title>
<path fill="none" stroke="black" d="M3210.5,-583.81C3210.5,-575.79 3210.5,-566.05 3210.5,-557.07"/>
<polygon fill="black" stroke="black" points="3214,-557.03 3210.5,-547.03 3207,-557.03 3214,-557.03"/>
<text text-anchor="middle" x="3218.95" y="-561.45" font-family="Times,serif" font-size="14.00">*0</text>
</g>
<!-- node2&#45;&gt;node0 -->
<g id="edge3" class="edge">
<title>node2&#45;&gt;node0</title>
<path fill="none" stroke="fuchsia" stroke-width="2" d="M177.01,-617.93C182.93,-618.73 188.8,-619.44 194.5,-620 635.21,-663.51 2031.91,-672.12 2407.03,-673.68"/>
<polygon fill="fuchsia" stroke="fuchsia" stroke-width="2" points="2407.28,-677.18 2417.3,-673.72 2407.31,-670.18 2407.28,-677.18"/>
</g>
<!-- node15 -->
<g id="node16" class="node">
<title>node15</title>
<polygon fill="lightgrey" stroke="black" points="3690,-255 3305,-255 3305,-219 3690,-219 3690,-255"/>
<text text-anchor="middle" x="3497.5" y="-233.3" font-family="Times,serif" font-size="14.00">#15 Invoke dynamic test : (int)Predicate Order : 15</text>
</g>
<!-- node2&#45;&gt;node15 -->
<g id="edge40" class="edge">
<title>node2&#45;&gt;node15</title>
<path fill="none" stroke="black" d="M177.25,-585.06C180.03,-584.69 182.78,-584.33 185.5,-584 228.95,-578.71 971.5,-573.77 971.5,-530 971.5,-530 971.5,-530 971.5,-309 971.5,-251.02 2695.03,-240.38 3294.73,-238.43"/>
<polygon fill="black" stroke="black" points="3294.8,-241.93 3304.79,-238.4 3294.78,-234.93 3294.8,-241.93"/>
<text text-anchor="middle" x="3286.69" y="-243.21" font-family="Times,serif" font-size="14.00">*1</text>
</g>
<!-- node3&#45;&gt;node0 -->
<g id="edge5" class="edge">
<title>node3&#45;&gt;node0</title>
<path fill="none" stroke="fuchsia" stroke-width="2" d="M1587.33,-618.47C1593.13,-619.01 1598.87,-619.52 1604.5,-620 1897.33,-644.88 2244.43,-662.19 2407.37,-669.74"/>
<polygon fill="fuchsia" stroke="fuchsia" stroke-width="2" points="2407.21,-673.24 2417.36,-670.2 2407.53,-666.25 2407.21,-673.24"/>
</g>
<!-- node4&#45;&gt;node0 -->
<g id="edge7" class="edge">
<title>node4&#45;&gt;node0</title>
<path fill="none" stroke="fuchsia" stroke-width="2" d="M3321.01,-620.07C3236.84,-631.18 3215.45,-633.34 3130.5,-639 2894.44,-654.72 2833.62,-630.73 2598.5,-657 2596.99,-657.17 2595.46,-657.35 2593.92,-657.54"/>
<polygon fill="fuchsia" stroke="fuchsia" stroke-width="2" points="2593.09,-654.12 2583.65,-658.94 2594.04,-661.06 2593.09,-654.12"/>
</g>
<!-- node4&#45;&gt;node5 -->
<g id="edge11" class="edge">
<title>node4&#45;&gt;node5</title>
<path fill="none" stroke="red" d="M3366.4,-583.99C3337.32,-573.92 3300.3,-561.1 3269.63,-550.48"/>
<polygon fill="red" stroke="red" points="3270.51,-547.08 3259.91,-547.11 3268.22,-553.69 3270.51,-547.08"/>
</g>
<!-- node5&#45;&gt;node0 -->
<g id="edge9" class="edge">
<title>node5&#45;&gt;node0</title>
<path fill="none" stroke="fuchsia" stroke-width="2" d="M3181.75,-547.03C3163.06,-556.8 3138.73,-569.91 3118.5,-584 3088.27,-605.05 3090.67,-625.25 3056.5,-639 3009.25,-658.01 2649.1,-651.21 2598.5,-657 2596.99,-657.17 2595.46,-657.36 2593.92,-657.55"/>
<polygon fill="fuchsia" stroke="fuchsia" stroke-width="2" points="2593.08,-654.14 2583.66,-658.97 2594.04,-661.07 2593.08,-654.14"/>
</g>
<!-- node10 -->
<g id="node11" class="node">
<title>node10</title>
<polygon fill="lightgreen" stroke="black" points="3634.07,-448.54 3634.07,-463.46 3506.04,-474 3324.96,-474 3196.93,-463.46 3196.93,-448.54 3324.96,-438 3506.04,-438 3634.07,-448.54"/>
<text text-anchor="middle" x="3415.5" y="-452.3" font-family="Times,serif" font-size="14.00">#10 Class InvokeDynamicTest Order : 12</text>
</g>
<!-- node5&#45;&gt;node10 -->
<g id="edge22" class="edge">
<title>node5&#45;&gt;node10</title>
<path fill="none" stroke="black" stroke-dasharray="1,5" d="M3253.74,-510.99C3281.87,-500.88 3318.98,-487.99 3350.6,-477.34"/>
<polygon fill="black" stroke="black" points="3351.85,-480.61 3360.22,-474.11 3349.62,-473.98 3351.85,-480.61"/>
</g>
<!-- node11 -->
<g id="node12" class="node">
<title>node11</title>
<polygon fill="lightgreen" stroke="black" points="2857.61,-448.54 2857.61,-463.46 2727.5,-474 2543.5,-474 2413.39,-463.46 2413.39,-448.54 2543.5,-438 2727.5,-438 2857.61,-448.54"/>
<text text-anchor="middle" x="2635.5" y="-452.3" font-family="Times,serif" font-size="14.00">#11 Class LambdaMetafactory Order : 11</text>
</g>
<!-- node5&#45;&gt;node11 -->
<g id="edge24" class="edge">
<title>node5&#45;&gt;node11</title>
<path fill="none" stroke="black" stroke-dasharray="1,5" d="M3066.91,-510.99C2973.15,-499.57 2851.9,-484.59 2761.81,-473.31"/>
<polygon fill="black" stroke="black" points="2762.17,-469.83 2751.81,-472.06 2761.3,-476.77 2762.17,-469.83"/>
</g>
<!-- node12 -->
<g id="node13" class="node">
<title>node12</title>
<polygon fill="lightgreen" stroke="black" points="3178.5,-448.54 3178.5,-463.46 3090.05,-474 2964.95,-474 2876.5,-463.46 2876.5,-448.54 2964.95,-438 3090.05,-438 3178.5,-448.54"/>
<text text-anchor="middle" x="3027.5" y="-452.3" font-family="Times,serif" font-size="14.00">#12 String : test Order : 10</text>
</g>
<!-- node5&#45;&gt;node12 -->
<g id="edge26" class="edge">
<title>node5&#45;&gt;node12</title>
<path fill="none" stroke="black" stroke-dasharray="1,5" d="M3160.81,-510.99C3134.14,-501.06 3101.49,-488.43 3075.14,-477.89"/>
<polygon fill="black" stroke="black" points="3076.32,-474.6 3065.74,-474.11 3073.71,-481.09 3076.32,-474.6"/>
</g>
<!-- node5&#45;&gt;node15 -->
<g id="edge41" class="edge">
<title>node5&#45;&gt;node15</title>
<path fill="none" stroke="green" d="M3389.64,-516.11C3497.65,-507.19 3617.55,-493.2 3634.5,-474 3666.57,-437.69 3654.58,-409.09 3634.5,-365 3613.21,-318.27 3565.3,-282.07 3532.06,-260.48"/>
<polygon fill="green" stroke="green" points="3533.85,-257.47 3523.53,-255.05 3530.08,-263.37 3533.85,-257.47"/>
</g>
<!-- node5&#45;&gt;node15 -->
<g id="edge42" class="edge">
<title>node5&#45;&gt;node15</title>
<path fill="none" stroke="red" d="M3389.71,-517.31C3504.34,-508.47 3634.76,-494.09 3652.5,-474 3684.57,-437.69 3672.58,-409.09 3652.5,-365 3631.12,-318.07 3582.89,-281.76 3545.76,-260.21"/>
<polygon fill="red" stroke="red" points="3547.01,-256.9 3536.58,-255.05 3543.58,-263 3547.01,-256.9"/>
</g>
<!-- node16 -->
<g id="node17" class="node">
<title>node16</title>
<polygon fill="lightgrey" stroke="black" points="3866.5,-182 3438.5,-182 3438.5,-146 3866.5,-146 3866.5,-182"/>
<text text-anchor="middle" x="3652.5" y="-160.3" font-family="Times,serif" font-size="14.00">#16 Invoke interface filter : (Predicate)Stream Order : 16</text>
</g>
<!-- node5&#45;&gt;node16 -->
<g id="edge44" class="edge">
<title>node5&#45;&gt;node16</title>
<path fill="none" stroke="black" d="M3389.6,-519.4C3535.86,-509.89 3718.5,-491.17 3718.5,-457 3718.5,-457 3718.5,-457 3718.5,-236 3718.5,-216.69 3705.24,-200.42 3690.61,-188.35"/>
<polygon fill="black" stroke="black" points="3692.48,-185.38 3682.41,-182.09 3688.23,-190.94 3692.48,-185.38"/>
<text text-anchor="middle" x="3701.94" y="-182.68" font-family="Times,serif" font-size="14.00">*0</text>
</g>
<!-- node6&#45;&gt;node0 -->
<g id="edge13" class="edge">
<title>node6&#45;&gt;node0</title>
<path fill="none" stroke="fuchsia" stroke-width="2" d="M1072.6,-616.31C1485.31,-632.83 2160.8,-660.04 2407.01,-670.1"/>
<polygon fill="fuchsia" stroke="fuchsia" stroke-width="2" points="2407.22,-673.62 2417.35,-670.53 2407.5,-666.62 2407.22,-673.62"/>
</g>
<!-- node14 -->
<g id="node15" class="node">
<title>node14</title>
<polygon fill="lightgrey" stroke="black" points="2889,-328 1882,-328 1882,-292 2889,-292 2889,-328"/>
<text text-anchor="middle" x="2385.5" y="-306.3" font-family="Times,serif" font-size="14.00">#14 Invoke static metafactory : (MethodHandles$Lookup,String,MethodType,MethodType,MethodHandle,MethodType)CallSite Order : 14</text>
</g>
<!-- node6&#45;&gt;node14 -->
<g id="edge36" class="edge">
<title>node6&#45;&gt;node14</title>
<path fill="none" stroke="black" d="M1042.48,-586.69C1259.91,-574.41 1513.5,-554.76 1513.5,-530 1513.5,-530 1513.5,-530 1513.5,-382 1513.5,-357.89 1728.05,-340.23 1944.31,-328.55"/>
<polygon fill="black" stroke="black" points="1944.81,-332.03 1954.61,-328 1944.44,-325.04 1944.81,-332.03"/>
<text text-anchor="middle" x="1936.96" y="-333.71" font-family="Times,serif" font-size="14.00">*5</text>
</g>
<!-- node7&#45;&gt;node0 -->
<g id="edge15" class="edge">
<title>node7&#45;&gt;node0</title>
<path fill="none" stroke="fuchsia" stroke-width="2" d="M1974.49,-617C2103.73,-630.66 2294.55,-651.14 2407.35,-663.48"/>
<polygon fill="fuchsia" stroke="fuchsia" stroke-width="2" points="2407.03,-666.96 2417.35,-664.57 2407.79,-660 2407.03,-666.96"/>
</g>
<!-- node7&#45;&gt;node14 -->
<g id="edge37" class="edge">
<title>node7&#45;&gt;node14</title>
<path fill="none" stroke="black" d="M1945.73,-584.79C2000.4,-573.4 2055.5,-555.57 2055.5,-530 2055.5,-530 2055.5,-530 2055.5,-382 2055.5,-356.86 2092.55,-340.6 2141.83,-330.09"/>
<polygon fill="black" stroke="black" points="2142.73,-333.48 2151.84,-328.06 2141.34,-326.62 2142.73,-333.48"/>
<text text-anchor="middle" x="2135.75" y="-336.24" font-family="Times,serif" font-size="14.00">*6</text>
</g>
<!-- node8&#45;&gt;node0 -->
<g id="edge17" class="edge">
<title>node8&#45;&gt;node0</title>
<path fill="none" stroke="fuchsia" stroke-width="2" d="M2361.41,-620.11C2389.37,-630.11 2423.61,-642.81 2451.16,-653.36"/>
<polygon fill="fuchsia" stroke="fuchsia" stroke-width="2" points="2450.02,-656.67 2460.61,-656.99 2452.53,-650.14 2450.02,-656.67"/>
</g>
<!-- node8&#45;&gt;node14 -->
<g id="edge34" class="edge">
<title>node8&#45;&gt;node14</title>
<path fill="none" stroke="black" d="M2309.5,-583.78C2309.5,-569.41 2309.5,-548.37 2309.5,-530 2309.5,-530 2309.5,-530 2309.5,-382 2309.5,-361.7 2324.15,-345.54 2340.59,-333.8"/>
<polygon fill="black" stroke="black" points="2342.86,-336.49 2349.28,-328.06 2339.01,-330.65 2342.86,-336.49"/>
<text text-anchor="middle" x="2338.81" y="-341.4" font-family="Times,serif" font-size="14.00">*3</text>
</g>
<!-- node9&#45;&gt;node0 -->
<g id="edge19" class="edge">
<title>node9&#45;&gt;node0</title>
<path fill="none" stroke="fuchsia" stroke-width="2" d="M2715.84,-620.11C2676.62,-630.49 2625.13,-643.75 2582.31,-654.52"/>
<polygon fill="fuchsia" stroke="fuchsia" stroke-width="2" points="2581.32,-651.16 2572.47,-656.99 2583.02,-657.95 2581.32,-651.16"/>
</g>
<!-- node9&#45;&gt;node14 -->
<g id="edge35" class="edge">
<title>node9&#45;&gt;node14</title>
<path fill="none" stroke="black" d="M2616.45,-589.09C2494.54,-577.79 2347.5,-558.29 2347.5,-530 2347.5,-530 2347.5,-530 2347.5,-382 2347.5,-365.53 2355.55,-349.18 2364.24,-336.33"/>
<polygon fill="black" stroke="black" points="2367.22,-338.18 2370.26,-328.04 2361.55,-334.07 2367.22,-338.18"/>
<text text-anchor="middle" x="2366.45" y="-343.97" font-family="Times,serif" font-size="14.00">*4</text>
</g>
<!-- node10&#45;&gt;node5 -->
<g id="edge21" class="edge">
<title>node10&#45;&gt;node5</title>
<path fill="none" stroke="fuchsia" stroke-width="2" d="M3371.96,-474.11C3343.77,-484.25 3306.64,-497.14 3275.07,-507.77"/>
<polygon fill="fuchsia" stroke="fuchsia" stroke-width="2" points="3273.83,-504.5 3265.46,-510.99 3276.06,-511.13 3273.83,-504.5"/>
</g>
<!-- node13 -->
<g id="node14" class="node">
<title>node13</title>
<polygon fill="lightgrey" stroke="black" points="3634,-401 3159,-401 3159,-365 3634,-365 3634,-401"/>
<text text-anchor="middle" x="3396.5" y="-379.3" font-family="Times,serif" font-size="14.00">#13 Invoke static in : (Class)MethodHandles$Lookup Order : 13</text>
</g>
<!-- node10&#45;&gt;node13 -->
<g id="edge28" class="edge">
<title>node10&#45;&gt;node13</title>
<path fill="none" stroke="black" d="M3399.14,-437.81C3395.32,-429.79 3392.24,-420.05 3390.59,-411.07"/>
<polygon fill="black" stroke="black" points="3394.05,-410.52 3389.33,-401.03 3387.1,-411.39 3394.05,-410.52"/>
<text text-anchor="middle" x="3399.97" y="-414.27" font-family="Times,serif" font-size="14.00">*0</text>
</g>
<!-- node10&#45;&gt;node13 -->
<g id="edge29" class="edge">
<title>node10&#45;&gt;node13</title>
<path fill="none" stroke="black" d="M3422.66,-437.81C3422.18,-429.62 3419.95,-419.62 3416.69,-410.48"/>
<polygon fill="black" stroke="black" points="3419.84,-408.93 3412.78,-401.03 3413.37,-411.61 3419.84,-408.93"/>
<text text-anchor="middle" x="3427.52" y="-410.85" font-family="Times,serif" font-size="14.00">*1</text>
</g>
<!-- node11&#45;&gt;node5 -->
<g id="edge23" class="edge">
<title>node11&#45;&gt;node5</title>
<path fill="none" stroke="fuchsia" stroke-width="2" d="M2758.73,-471.53C2849.67,-482.58 2973.58,-497.87 3068.65,-509.75"/>
<polygon fill="fuchsia" stroke="fuchsia" stroke-width="2" points="3068.28,-513.23 3078.63,-510.99 3069.14,-506.28 3068.28,-513.23"/>
</g>
<!-- node11&#45;&gt;node14 -->
<g id="edge31" class="edge">
<title>node11&#45;&gt;node14</title>
<path fill="none" stroke="black" d="M2605.84,-437.92C2560.54,-411.83 2474.13,-362.05 2424.03,-333.2"/>
<polygon fill="black" stroke="black" points="2425.53,-330.02 2415.12,-328.06 2422.04,-336.09 2425.53,-330.02"/>
<text text-anchor="middle" x="2435.05" y="-326.08" font-family="Times,serif" font-size="14.00">*0</text>
</g>
<!-- node12&#45;&gt;node5 -->
<g id="edge25" class="edge">
<title>node12&#45;&gt;node5</title>
<path fill="none" stroke="fuchsia" stroke-width="2" d="M3077.48,-474.11C3104.19,-484.07 3136.84,-496.69 3163.14,-507.22"/>
<polygon fill="fuchsia" stroke="fuchsia" stroke-width="2" points="3161.94,-510.51 3172.53,-510.99 3164.56,-504.01 3161.94,-510.51"/>
</g>
<!-- node12&#45;&gt;node14 -->
<g id="edge33" class="edge">
<title>node12&#45;&gt;node14</title>
<path fill="none" stroke="black" d="M2956.03,-438.97C2837.18,-412.31 2599.34,-358.96 2471.5,-330.29"/>
<polygon fill="black" stroke="black" points="2471.88,-326.79 2461.36,-328.02 2470.35,-333.62 2471.88,-326.79"/>
<text text-anchor="middle" x="2480.9" y="-320.04" font-family="Times,serif" font-size="14.00">*2</text>
</g>
<!-- node13&#45;&gt;node10 -->
<g id="edge27" class="edge">
<title>node13&#45;&gt;node10</title>
<path fill="none" stroke="fuchsia" stroke-width="2" d="M3401.06,-401.03C3403.22,-409.12 3405.86,-418.98 3408.29,-428.05"/>
<polygon fill="fuchsia" stroke="fuchsia" stroke-width="2" points="3404.93,-429.06 3410.9,-437.81 3411.7,-427.25 3404.93,-429.06"/>
</g>
<!-- node13&#45;&gt;node14 -->
<g id="edge32" class="edge">
<title>node13&#45;&gt;node14</title>
<path fill="none" stroke="black" d="M3158.83,-365.31C3002.33,-354.32 2797.67,-339.95 2638.21,-328.75"/>
<polygon fill="black" stroke="black" points="2637.99,-325.22 2627.77,-328.01 2637.5,-332.21 2637.99,-325.22"/>
<text text-anchor="middle" x="2646.45" y="-317.15" font-family="Times,serif" font-size="14.00">*1</text>
</g>
<!-- node14&#45;&gt;node0 -->
<g id="edge30" class="edge">
<title>node14&#45;&gt;node0</title>
<path fill="none" stroke="fuchsia" stroke-width="2" d="M2381.59,-328.22C2375.21,-361.26 2366.75,-433.82 2404.5,-474 2593.13,-674.78 2837.83,-372.62 3014.5,-584 3024.76,-596.28 3025.31,-608.21 3014.5,-620 2984.1,-653.17 2670.78,-650.84 2594.04,-656.78"/>
<polygon fill="fuchsia" stroke="fuchsia" stroke-width="2" points="2593.43,-653.33 2583.84,-657.82 2594.14,-660.29 2593.43,-653.33"/>
</g>
<!-- node14&#45;&gt;node15 -->
<g id="edge39" class="edge">
<title>node14&#45;&gt;node15</title>
<path fill="none" stroke="black" d="M2651.85,-291.99C2849.23,-279.39 3114.18,-262.47 3294.56,-250.96"/>
<polygon fill="black" stroke="black" points="3294.95,-254.44 3304.7,-250.31 3294.5,-247.45 3294.95,-254.44"/>
<text text-anchor="middle" x="3287.15" y="-256.2" font-family="Times,serif" font-size="14.00">*0</text>
</g>
<!-- node15&#45;&gt;node0 -->
<g id="edge38" class="edge">
<title>node15&#45;&gt;node0</title>
<path fill="none" stroke="fuchsia" stroke-width="2" d="M3649.66,-255.05C3706.04,-265.74 3756.5,-282.66 3756.5,-309 3756.5,-603 3756.5,-603 3756.5,-603 3756.5,-709.05 3624.35,-613.48 3518.5,-620 3355.48,-630.04 3314.69,-632.16 3151.5,-639 2905.1,-649.32 2839.6,-629.99 2593.77,-656.58"/>
<polygon fill="fuchsia" stroke="fuchsia" stroke-width="2" points="2593.38,-653.11 2583.82,-657.68 2594.14,-660.06 2593.38,-653.11"/>
</g>
<!-- node15&#45;&gt;node16 -->
<g id="edge45" class="edge">
<title>node15&#45;&gt;node16</title>
<path fill="none" stroke="black" d="M3522.91,-218.99C3542.41,-209.1 3569.57,-196.54 3594.13,-186.03"/>
<polygon fill="black" stroke="black" points="3595.55,-189.23 3603.4,-182.11 3592.82,-182.79 3595.55,-189.23"/>
<text text-anchor="middle" x="3590" y="-193.26" font-family="Times,serif" font-size="14.00">*1</text>
</g>
<!-- node15&#45;&gt;node16 -->
<g id="edge46" class="edge">
<title>node15&#45;&gt;node16</title>
<path fill="none" stroke="red" d="M3534.63,-218.99C3556.04,-209.19 3583.15,-196.77 3605.98,-186.31"/>
<polygon fill="red" stroke="red" points="3607.51,-189.46 3615.14,-182.11 3604.59,-183.1 3607.51,-189.46"/>
</g>
<!-- node15&#45;&gt;node16 -->
<g id="edge47" class="edge">
<title>node15&#45;&gt;node16</title>
<path fill="none" stroke="green" d="M3546.34,-218.99C3569.63,-209.27 3596.72,-196.99 3617.9,-186.59"/>
<polygon fill="green" stroke="green" points="3619.49,-189.71 3626.88,-182.11 3616.37,-183.44 3619.49,-189.71"/>
</g>
<!-- node16&#45;&gt;node0 -->
<g id="edge43" class="edge">
<title>node16&#45;&gt;node0</title>
<path fill="none" stroke="fuchsia" stroke-width="2" d="M3748.4,-182.04C3773.9,-192.42 3794.5,-209.13 3794.5,-236 3794.5,-603 3794.5,-603 3794.5,-603 3794.5,-689.37 3493.76,-634.7 3407.5,-639 3047.68,-656.95 2952.88,-619.46 2593.97,-656.59"/>
<polygon fill="fuchsia" stroke="fuchsia" stroke-width="2" points="2593.4,-653.13 2583.82,-657.65 2594.13,-660.09 2593.4,-653.13"/>
</g>
<!-- node17 -->
<g id="node18" class="node">
<title>node17</title>
<polygon fill="lightgrey" stroke="black" points="3824.5,-109 3480.5,-109 3480.5,-73 3824.5,-73 3824.5,-109"/>
<text text-anchor="middle" x="3652.5" y="-87.3" font-family="Times,serif" font-size="14.00">#17 Invoke interface count : ()long Order : 17</text>
</g>
<!-- node16&#45;&gt;node17 -->
<g id="edge49" class="edge">
<title>node16&#45;&gt;node17</title>
<path fill="none" stroke="black" d="M3634.87,-145.81C3632.35,-137.79 3631.65,-128.05 3632.77,-119.07"/>
<polygon fill="black" stroke="black" points="3636.24,-119.54 3634.92,-109.03 3629.4,-118.07 3636.24,-119.54"/>
<text text-anchor="middle" x="3639.39" y="-124.82" font-family="Times,serif" font-size="14.00">*0</text>
</g>
<!-- node16&#45;&gt;node17 -->
<g id="edge50" class="edge">
<title>node16&#45;&gt;node17</title>
<path fill="none" stroke="red" d="M3658.38,-145.81C3659.22,-137.79 3659.45,-128.05 3659.08,-119.07"/>
<polygon fill="red" stroke="red" points="3662.56,-118.75 3658.36,-109.03 3655.58,-119.25 3662.56,-118.75"/>
</g>
<!-- node16&#45;&gt;node17 -->
<g id="edge51" class="edge">
<title>node16&#45;&gt;node17</title>
<path fill="none" stroke="green" d="M3670.13,-145.81C3672.65,-137.79 3673.35,-128.05 3672.23,-119.07"/>
<polygon fill="green" stroke="green" points="3675.6,-118.07 3670.08,-109.03 3668.76,-119.54 3675.6,-118.07"/>
</g>
<!-- node17&#45;&gt;node16 -->
<g id="edge48" class="edge">
<title>node17&#45;&gt;node16</title>
<path fill="none" stroke="fuchsia" stroke-width="2" d="M3646.64,-109.03C3645.79,-117.03 3645.55,-126.77 3645.91,-135.75"/>
<polygon fill="fuchsia" stroke="fuchsia" stroke-width="2" points="3642.43,-136.08 3646.62,-145.81 3649.41,-135.59 3642.43,-136.08"/>
</g>
<!-- node18 -->
<g id="node19" class="node">
<title>node18</title>
<polygon fill="lightgrey" stroke="black" points="3783.5,-36 3521.5,-36 3521.5,0 3783.5,0 3783.5,-36"/>
<text text-anchor="middle" x="3652.5" y="-14.3" font-family="Times,serif" font-size="14.00">#18 ReturnValue : long Order : 18</text>
</g>
<!-- node17&#45;&gt;node18 -->
<g id="edge53" class="edge">
<title>node17&#45;&gt;node18</title>
<path fill="none" stroke="black" d="M3634.87,-72.81C3632.35,-64.79 3631.65,-55.05 3632.77,-46.07"/>
<polygon fill="black" stroke="black" points="3636.24,-46.54 3634.92,-36.03 3629.4,-45.07 3636.24,-46.54"/>
<text text-anchor="middle" x="3639.39" y="-51.82" font-family="Times,serif" font-size="14.00">*0</text>
</g>
<!-- node17&#45;&gt;node18 -->
<g id="edge54" class="edge">
<title>node17&#45;&gt;node18</title>
<path fill="none" stroke="red" d="M3658.38,-72.81C3659.22,-64.79 3659.45,-55.05 3659.08,-46.07"/>
<polygon fill="red" stroke="red" points="3662.56,-45.75 3658.36,-36.03 3655.58,-46.25 3662.56,-45.75"/>
</g>
<!-- node17&#45;&gt;node18 -->
<g id="edge55" class="edge">
<title>node17&#45;&gt;node18</title>
<path fill="none" stroke="green" d="M3670.13,-72.81C3672.65,-64.79 3673.35,-55.05 3672.23,-46.07"/>
<polygon fill="green" stroke="green" points="3675.6,-45.07 3670.08,-36.03 3668.76,-46.54 3675.6,-45.07"/>
</g>
<!-- node18&#45;&gt;node17 -->
<g id="edge52" class="edge">
<title>node18&#45;&gt;node17</title>
<path fill="none" stroke="fuchsia" stroke-width="2" d="M3646.64,-36.03C3645.79,-44.03 3645.55,-53.77 3645.91,-62.75"/>
<polygon fill="fuchsia" stroke="fuchsia" stroke-width="2" points="3642.43,-63.08 3646.62,-72.81 3649.41,-62.59 3642.43,-63.08"/>
</g>
<!-- c0 -->
<!-- c1 -->
<!-- c0&#45;&gt;c1 -->
<g id="edge56" class="edge">
<title>c0&#45;&gt;c1</title>
<path fill="none" stroke="red" d="M3452.39,-675C3463.61,-675 3521.74,-675 3547.36,-675"/>
<polygon fill="red" stroke="red" points="3547.56,-678.5 3557.56,-675 3547.56,-671.5 3547.56,-678.5"/>
<text text-anchor="middle" x="3505" y="-681.8" font-family="Times,serif" font-size="14.00">Control flow</text>
</g>
<!-- c2 -->
<!-- c3 -->
<!-- c2&#45;&gt;c3 -->
<g id="edge57" class="edge">
<title>c2&#45;&gt;c3</title>
<path fill="none" stroke="red" stroke-dasharray="5,2" d="M3245.58,-675C3262.55,-675 3378.71,-675 3416.58,-675"/>
<polygon fill="red" stroke="red" points="3416.67,-678.5 3426.67,-675 3416.67,-671.5 3416.67,-678.5"/>
<text text-anchor="middle" x="3336" y="-681.8" font-family="Times,serif" font-size="14.00">Control flow back edge</text>
</g>
<!-- d0 -->
<!-- d1 -->
<!-- d0&#45;&gt;d1 -->
<g id="edge58" class="edge">
<title>d0&#45;&gt;d1</title>
<path fill="none" stroke="black" d="M3134.36,-675C3143.91,-675 3187.81,-675 3209.42,-675"/>
<polygon fill="black" stroke="black" points="3209.65,-678.5 3219.65,-675 3209.65,-671.5 3209.65,-678.5"/>
<text text-anchor="middle" x="3177" y="-681.8" font-family="Times,serif" font-size="14.00">Data flow</text>
</g>
<!-- d2 -->
<!-- d3 -->
<!-- d2&#45;&gt;d3 -->
<g id="edge59" class="edge">
<title>d2&#45;&gt;d3</title>
<path fill="none" stroke="black" stroke-dasharray="1,5" d="M3008.31,-675C3018.96,-675 3073.96,-675 3098.58,-675"/>
<polygon fill="black" stroke="black" points="3098.65,-678.5 3108.65,-675 3098.65,-671.5 3098.65,-678.5"/>
<text text-anchor="middle" x="3058.5" y="-681.8" font-family="Times,serif" font-size="14.00">Declaration</text>
</g>
<!-- d4 -->
<!-- d5 -->
<!-- d4&#45;&gt;d5 -->
<g id="edge60" class="edge">
<title>d4&#45;&gt;d5</title>
<path fill="none" stroke="blue" d="M2865.6,-675C2878.22,-675 2944.38,-675 2972.18,-675"/>
<polygon fill="blue" stroke="blue" points="2972.34,-678.5 2982.34,-675 2972.34,-671.5 2972.34,-678.5"/>
<text text-anchor="middle" x="2924" y="-681.8" font-family="Times,serif" font-size="14.00">PHI Data flow</text>
</g>
<!-- d6 -->
<!-- d7 -->
<!-- d6&#45;&gt;d7 -->
<g id="edge61" class="edge">
<title>d6&#45;&gt;d7</title>
<path fill="none" stroke="green" d="M2728.5,-675C2740.44,-675 2802.8,-675 2829.43,-675"/>
<polygon fill="green" stroke="green" points="2829.45,-678.5 2839.45,-675 2829.45,-671.5 2829.45,-678.5"/>
<text text-anchor="middle" x="2784" y="-681.8" font-family="Times,serif" font-size="14.00">Memory flow</text>
</g>
<!-- d8 -->
<!-- d9 -->
<!-- d8&#45;&gt;d9 -->
<g id="edge62" class="edge">
<title>d8&#45;&gt;d9</title>
<path fill="none" stroke="fuchsia" d="M2605.61,-675C2616.65,-675 2668.17,-675 2692.16,-675"/>
<polygon fill="fuchsia" stroke="fuchsia" points="2692.4,-678.5 2702.4,-675 2692.4,-671.5 2692.4,-678.5"/>
<text text-anchor="middle" x="2654" y="-681.8" font-family="Times,serif" font-size="14.00">Dominance</text>
</g>
</g>
</svg>
