<?xml version="1.0" encoding="UTF-8" standalone="no"?>
<!DOCTYPE svg PUBLIC "-//W3C//DTD SVG 1.1//EN"
 "http://www.w3.org/Graphics/SVG/1.1/DTD/svg11.dtd">
<!-- Generated by graphviz version 2.43.0 (0)
 -->
<!-- Title: debugoutput Pages: 1 -->
<svg width="4809pt" height="578pt"
 viewBox="0.00 0.00 4809.46 577.80" xmlns="http://www.w3.org/2000/svg" xmlns:xlink="http://www.w3.org/1999/xlink">
<g id="graph0" class="graph" transform="scale(1 1) rotate(0) translate(4 573.8)">
<title>debugoutput</title>
<polygon fill="white" stroke="transparent" points="-4,4 -4,-573.8 4805.46,-573.8 4805.46,4 -4,4"/>
<g id="clust1" class="cluster">
<title>cluster_000</title>
<polygon fill="none" stroke="black" points="2547.46,-519.2 2547.46,-561.8 3386.46,-561.8 3386.46,-519.2 2547.46,-519.2"/>
<text text-anchor="middle" x="2966.96" y="-546.6" font-family="Times,serif" font-size="14.00">Legend</text>
</g>
<!-- node0 -->
<g id="node1" class="node">
<title>node0</title>
<polygon fill="lightgrey" stroke="black" points="2537.46,-547 2371.46,-547 2371.46,-511 2537.46,-511 2537.46,-547"/>
<text text-anchor="middle" x="2454.46" y="-525.3" font-family="Times,serif" font-size="14.00">#0 Method Order : 0</text>
</g>
<!-- node1 -->
<g id="node2" class="node">
<title>node1</title>
<polygon fill="lightgrey" stroke="black" points="648.46,-474 462.46,-474 462.46,-438 648.46,-438 648.46,-474"/>
<text text-anchor="middle" x="555.46" y="-452.3" font-family="Times,serif" font-size="14.00">#1 arg1 : int Order : 14</text>
</g>
<!-- node0&#45;&gt;node1 -->
<g id="edge2" class="edge">
<title>node0&#45;&gt;node1</title>
<path fill="none" stroke="red" d="M2371.28,-525.39C2182.24,-519.29 1706.23,-503.72 1308.46,-492 1018.58,-483.46 942.32,-501.75 658.38,-474.95"/>
<polygon fill="red" stroke="red" points="658.47,-471.44 648.19,-473.97 657.81,-478.41 658.47,-471.44"/>
</g>
<!-- node2 -->
<g id="node3" class="node">
<title>node2</title>
<polygon fill="lightgrey" stroke="black" points="228.46,-474 34.46,-474 34.46,-438 228.46,-438 228.46,-474"/>
<text text-anchor="middle" x="131.46" y="-452.3" font-family="Times,serif" font-size="14.00">#2 arg0 : List Order : 12</text>
</g>
<!-- node0&#45;&gt;node2 -->
<g id="edge4" class="edge">
<title>node0&#45;&gt;node2</title>
<path fill="none" stroke="red" d="M2371.09,-526.8C2123.73,-523.06 1372.72,-510.75 750.46,-493 521.8,-486.48 461.26,-496.35 238.23,-474.95"/>
<polygon fill="red" stroke="red" points="238.47,-471.45 228.18,-473.97 237.79,-478.42 238.47,-471.45"/>
</g>
<!-- node3 -->
<g id="node4" class="node">
<title>node3</title>
<polygon fill="lightgrey" stroke="black" points="4801.46,-474 4501.46,-474 4501.46,-438 4801.46,-438 4801.46,-474"/>
<text text-anchor="middle" x="4651.46" y="-452.3" font-family="Times,serif" font-size="14.00">#3 this : InvokeDynamicTest Order : 11</text>
</g>
<!-- node0&#45;&gt;node3 -->
<g id="edge6" class="edge">
<title>node0&#45;&gt;node3</title>
<path fill="none" stroke="red" d="M2534.77,-510.97C2964.89,-468.34 4049.28,-541.56 4478.46,-493 4508.64,-489.58 4541.43,-482.98 4570.3,-476.36"/>
<polygon fill="red" stroke="red" points="4571.4,-479.7 4580.34,-474.02 4569.81,-472.88 4571.4,-479.7"/>
</g>
<!-- node4 -->
<g id="node5" class="node">
<title>node4</title>
<polygon fill="lightgrey" stroke="black" points="522.96,-401 155.96,-401 155.96,-365 522.96,-365 522.96,-401"/>
<text text-anchor="middle" x="339.46" y="-379.3" font-family="Times,serif" font-size="14.00">#4 Invoke interface stream : ()Stream Order : 13</text>
</g>
<!-- node0&#45;&gt;node4 -->
<g id="edge10" class="edge">
<title>node0&#45;&gt;node4</title>
<path fill="none" stroke="black" d="M2371.11,-527.74C1948.19,-526.24 58.33,-517.03 16.46,-474 -35.79,-420.33 49.46,-398.08 145.46,-389.12"/>
<polygon fill="black" stroke="black" points="146.04,-392.58 155.69,-388.22 145.42,-385.61 146.04,-392.58"/>
</g>
<!-- node5 -->
<g id="node6" class="node">
<title>node5</title>
<polygon fill="lightgrey" stroke="black" points="443.96,-474 246.96,-474 246.96,-438 443.96,-438 443.96,-474"/>
<text text-anchor="middle" x="345.46" y="-452.3" font-family="Times,serif" font-size="14.00">#5 LabelNode Order : 10</text>
</g>
<!-- node0&#45;&gt;node5 -->
<g id="edge12" class="edge">
<title>node0&#45;&gt;node5</title>
<path fill="none" stroke="red" d="M2371.27,-527.22C2044.46,-523.89 847.77,-509.38 454.17,-474.87"/>
<polygon fill="red" stroke="red" points="454.44,-471.38 444.17,-473.97 453.82,-478.35 454.44,-471.38"/>
</g>
<!-- node6 -->
<g id="node7" class="node">
<title>node6</title>
<polygon fill="lightgreen" stroke="black" points="1750.33,-448.54 1750.33,-463.46 1432.91,-474 984,-474 666.58,-463.46 666.58,-448.54 984,-438 1432.91,-438 1750.33,-448.54"/>
<text text-anchor="middle" x="1208.46" y="-452.3" font-family="Times,serif" font-size="14.00">#6 MethodHandle : invokeStatic : InvokeDynamicTest.lambda$countList$0 (int,Integer)boolean Order : 8</text>
</g>
<!-- node0&#45;&gt;node6 -->
<g id="edge14" class="edge">
<title>node0&#45;&gt;node6</title>
<path fill="none" stroke="black" stroke-dasharray="1,5" d="M2370.99,-522.79C2258.81,-515.51 2053.49,-502.07 1878.46,-492 1758.37,-485.09 1626.29,-478.14 1511.37,-472.27"/>
<polygon fill="black" stroke="black" points="1511.53,-468.77 1501.37,-471.76 1511.18,-475.76 1511.53,-468.77"/>
</g>
<!-- node7 -->
<g id="node8" class="node">
<title>node7</title>
<polygon fill="lightgreen" stroke="black" points="2206.93,-448.54 2206.93,-463.46 2078.37,-474 1896.54,-474 1767.98,-463.46 1767.98,-448.54 1896.54,-438 2078.37,-438 2206.93,-448.54"/>
<text text-anchor="middle" x="1987.46" y="-452.3" font-family="Times,serif" font-size="14.00">#7 MethodType : (int)Predicate Order : 7</text>
</g>
<!-- node0&#45;&gt;node7 -->
<g id="edge16" class="edge">
<title>node0&#45;&gt;node7</title>
<path fill="none" stroke="black" stroke-dasharray="1,5" d="M2371.37,-516.16C2295.26,-504.86 2182.11,-487.69 2098.32,-474.76"/>
<polygon fill="black" stroke="black" points="2098.67,-471.27 2088.26,-473.2 2097.6,-478.19 2098.67,-471.27"/>
</g>
<!-- node8 -->
<g id="node9" class="node">
<title>node8</title>
<polygon fill="lightgreen" stroke="black" points="2683.63,-448.54 2683.63,-463.46 2549.38,-474 2359.53,-474 2225.28,-463.46 2225.28,-448.54 2359.53,-438 2549.38,-438 2683.63,-448.54"/>
<text text-anchor="middle" x="2454.46" y="-452.3" font-family="Times,serif" font-size="14.00">#8 MethodType : (Object)boolean Order : 6</text>
</g>
<!-- node0&#45;&gt;node8 -->
<g id="edge18" class="edge">
<title>node0&#45;&gt;node8</title>
<path fill="none" stroke="black" stroke-dasharray="1,5" d="M2448.58,-510.81C2447.74,-502.79 2447.5,-493.05 2447.88,-484.07"/>
<polygon fill="black" stroke="black" points="2451.37,-484.25 2448.59,-474.03 2444.39,-483.75 2451.37,-484.25"/>
</g>
<!-- node9 -->
<g id="node10" class="node">
<title>node9</title>
<polygon fill="lightgreen" stroke="black" points="3169.07,-448.54 3169.07,-463.46 3032.22,-474 2838.69,-474 2701.84,-463.46 2701.84,-448.54 2838.69,-438 3032.22,-438 3169.07,-448.54"/>
<text text-anchor="middle" x="2935.46" y="-452.3" font-family="Times,serif" font-size="14.00">#9 MethodType : (Integer)boolean Order : 5</text>
</g>
<!-- node0&#45;&gt;node9 -->
<g id="edge20" class="edge">
<title>node0&#45;&gt;node9</title>
<path fill="none" stroke="black" stroke-dasharray="1,5" d="M2534.71,-510.96C2622.11,-496.61 2720.87,-483.02 2798.51,-473.07"/>
<polygon fill="black" stroke="black" points="2799.36,-476.49 2808.84,-471.75 2798.47,-469.55 2799.36,-476.49"/>
</g>
<!-- node10 -->
<g id="node11" class="node">
<title>node10</title>
<polygon fill="lightgreen" stroke="black" points="3619.4,-448.54 3619.4,-463.46 3492.9,-474 3314.01,-474 3187.51,-463.46 3187.51,-448.54 3314.01,-438 3492.9,-438 3619.4,-448.54"/>
<text text-anchor="middle" x="3403.46" y="-452.3" font-family="Times,serif" font-size="14.00">#10 Class LambdaMetafactory Order : 4</text>
</g>
<!-- node0&#45;&gt;node10 -->
<g id="edge22" class="edge">
<title>node0&#45;&gt;node10</title>
<path fill="none" stroke="black" stroke-dasharray="1,5" d="M2534.87,-510.95C2815.07,-476.2 2887.52,-492.86 3169.46,-474 3191.42,-472.53 3214.58,-470.89 3237.44,-469.22"/>
<polygon fill="black" stroke="black" points="3237.86,-472.7 3247.57,-468.47 3237.34,-465.72 3237.86,-472.7"/>
</g>
<!-- node11 -->
<g id="node12" class="node">
<title>node11</title>
<polygon fill="lightgreen" stroke="black" points="4061.86,-448.54 4061.86,-463.46 3937.44,-474 3761.47,-474 3637.05,-463.46 3637.05,-448.54 3761.47,-438 3937.44,-438 4061.86,-448.54"/>
<text text-anchor="middle" x="3849.46" y="-452.3" font-family="Times,serif" font-size="14.00">#11 Class InvokeDynamicTest Order : 2</text>
</g>
<!-- node0&#45;&gt;node11 -->
<g id="edge24" class="edge">
<title>node0&#45;&gt;node11</title>
<path fill="none" stroke="black" stroke-dasharray="1,5" d="M2534.81,-510.96C2774.8,-484.18 3378.69,-487.36 3619.46,-474 3642.06,-472.75 3665.96,-471.17 3689.46,-469.49"/>
<polygon fill="black" stroke="black" points="3689.78,-472.97 3699.5,-468.76 3689.27,-465.99 3689.78,-472.97"/>
</g>
<!-- node13 -->
<g id="node14" class="node">
<title>node13</title>
<polygon fill="lightgreen" stroke="black" points="4369.29,-448.54 4369.29,-463.46 4284.45,-474 4164.46,-474 4079.62,-463.46 4079.62,-448.54 4164.46,-438 4284.45,-438 4369.29,-448.54"/>
<text text-anchor="middle" x="4224.46" y="-452.3" font-family="Times,serif" font-size="14.00">#13 String : test Order : 1</text>
</g>
<!-- node0&#45;&gt;node13 -->
<g id="edge29" class="edge">
<title>node0&#45;&gt;node13</title>
<path fill="none" stroke="black" stroke-dasharray="1,5" d="M2534.7,-510.97C2704.37,-492.96 3892.2,-485.37 4061.46,-474 4077.46,-472.92 4094.36,-471.43 4110.99,-469.77"/>
<polygon fill="black" stroke="black" points="4111.7,-473.21 4121.3,-468.71 4110.99,-466.25 4111.7,-473.21"/>
</g>
<!-- node1&#45;&gt;node0 -->
<g id="edge1" class="edge">
<title>node1&#45;&gt;node0</title>
<path fill="none" stroke="green" stroke-width="2" d="M648.64,-471.97C654.67,-472.75 660.65,-473.44 666.46,-474 958.54,-502.19 1033.14,-483.36 1326.46,-492 1710.7,-503.32 2167.93,-518.24 2361.08,-524.74"/>
<polygon fill="green" stroke="green" stroke-width="2" points="2361.08,-528.24 2371.19,-525.08 2361.32,-521.24 2361.08,-528.24"/>
</g>
<!-- node15 -->
<g id="node16" class="node">
<title>node15</title>
<polygon fill="lightgrey" stroke="black" points="752.96,-255 367.96,-255 367.96,-219 752.96,-219 752.96,-255"/>
<text text-anchor="middle" x="560.46" y="-233.3" font-family="Times,serif" font-size="14.00">#15 Invoke dynamic test : (int)Predicate Order : 15</text>
</g>
<!-- node1&#45;&gt;node15 -->
<g id="edge40" class="edge">
<title>node1&#45;&gt;node15</title>
<path fill="none" stroke="black" d="M555.85,-437.97C556.71,-400.51 558.78,-310.68 559.83,-265.26"/>
<polygon fill="black" stroke="black" points="563.33,-265.33 560.06,-255.25 556.33,-265.17 563.33,-265.33"/>
<text text-anchor="middle" x="568.09" y="-269.86" font-family="Times,serif" font-size="14.00">*1</text>
</g>
<!-- node2&#45;&gt;node0 -->
<g id="edge3" class="edge">
<title>node2&#45;&gt;node0</title>
<path fill="none" stroke="green" stroke-width="2" d="M228.54,-471.97C234.6,-472.74 240.61,-473.43 246.46,-474 477.5,-496.65 536.4,-486.38 768.46,-493 1375.68,-510.32 2105.51,-522.46 2360.86,-526.52"/>
<polygon fill="green" stroke="green" stroke-width="2" points="2361.14,-530.02 2371.2,-526.68 2361.26,-523.02 2361.14,-530.02"/>
</g>
<!-- node2&#45;&gt;node4 -->
<g id="edge8" class="edge">
<title>node2&#45;&gt;node4</title>
<path fill="none" stroke="black" d="M181.28,-437.99C210.77,-427.92 248.34,-415.1 279.46,-404.48"/>
<polygon fill="black" stroke="black" points="280.99,-407.66 289.32,-401.11 278.73,-401.03 280.99,-407.66"/>
<text text-anchor="middle" x="274.9" y="-411.27" font-family="Times,serif" font-size="14.00">*0</text>
</g>
<!-- node3&#45;&gt;node0 -->
<g id="edge5" class="edge">
<title>node3&#45;&gt;node0</title>
<path fill="none" stroke="green" stroke-width="2" d="M4596.65,-474.02C4567.2,-481.38 4530.2,-489.18 4496.46,-493 4067.18,-541.57 2982.36,-468.3 2552.46,-511 2550.94,-511.15 2549.41,-511.31 2547.87,-511.49"/>
<polygon fill="green" stroke="green" stroke-width="2" points="2547.07,-508.06 2537.59,-512.8 2547.96,-515.01 2547.07,-508.06"/>
</g>
<!-- node4&#45;&gt;node0 -->
<g id="edge7" class="edge">
<title>node4&#45;&gt;node0</title>
<path fill="none" stroke="green" stroke-width="2" d="M155.79,-389.63C64.34,-398.92 -16.82,-421.32 34.46,-474 75.84,-516.51 1921.48,-526.01 2361.17,-527.69"/>
<polygon fill="green" stroke="green" stroke-width="2" points="2361.28,-531.19 2371.3,-527.73 2361.31,-524.19 2361.28,-531.19"/>
</g>
<!-- node4&#45;&gt;node15 -->
<g id="edge41" class="edge">
<title>node4&#45;&gt;node15</title>
<path fill="none" stroke="black" d="M361.12,-364.92C398.33,-338.88 474.32,-289.26 521.06,-260.38"/>
<polygon fill="black" stroke="black" points="523.03,-263.28 529.72,-255.06 519.36,-257.31 523.03,-263.28"/>
</g>
<!-- node4&#45;&gt;node15 -->
<g id="edge42" class="edge">
<title>node4&#45;&gt;node15</title>
<path fill="none" stroke="red" d="M370.23,-364.92C412.67,-339.04 488.31,-289.87 530.38,-260.92"/>
<polygon fill="red" stroke="red" points="532.6,-263.64 538.82,-255.06 528.61,-257.89 532.6,-263.64"/>
</g>
<!-- node16 -->
<g id="node17" class="node">
<title>node16</title>
<polygon fill="lightgrey" stroke="black" points="774.46,-182 346.46,-182 346.46,-146 774.46,-146 774.46,-182"/>
<text text-anchor="middle" x="560.46" y="-160.3" font-family="Times,serif" font-size="14.00">#16 Invoke interface filter : (Predicate)Stream Order : 16</text>
</g>
<!-- node4&#45;&gt;node16 -->
<g id="edge44" class="edge">
<title>node4&#45;&gt;node16</title>
<path fill="none" stroke="black" d="M335.81,-364.8C329.96,-332.12 322.5,-260.6 358.46,-219 370.9,-204.6 407.05,-192.94 445.38,-184.18"/>
<polygon fill="black" stroke="black" points="446.16,-187.6 455.17,-182.02 444.65,-180.76 446.16,-187.6"/>
<text text-anchor="middle" x="439.29" y="-190.49" font-family="Times,serif" font-size="14.00">*0</text>
</g>
<!-- node5&#45;&gt;node0 -->
<g id="edge11" class="edge">
<title>node5&#45;&gt;node0</title>
<path fill="none" stroke="green" stroke-width="2" d="M444.2,-472.03C450.38,-472.78 456.5,-473.45 462.46,-474 838.78,-508.55 2019.92,-523.37 2361.26,-527.05"/>
<polygon fill="green" stroke="green" stroke-width="2" points="2361.32,-530.55 2371.35,-527.16 2361.39,-523.55 2361.32,-530.55"/>
</g>
<!-- node5&#45;&gt;node4 -->
<g id="edge9" class="edge">
<title>node5&#45;&gt;node4</title>
<path fill="none" stroke="red" d="M344,-437.81C343.32,-429.79 342.5,-420.05 341.74,-411.07"/>
<polygon fill="red" stroke="red" points="345.22,-410.7 340.89,-401.03 338.25,-411.29 345.22,-410.7"/>
</g>
<!-- node6&#45;&gt;node0 -->
<g id="edge13" class="edge">
<title>node6&#45;&gt;node0</title>
<path fill="none" stroke="green" stroke-width="2" d="M1511.37,-471.42C1631.38,-477.46 1770.51,-484.76 1896.46,-492 2060.22,-501.42 2250.5,-513.79 2361.27,-521.31"/>
<polygon fill="green" stroke="green" stroke-width="2" points="2361.19,-524.81 2371.4,-522 2361.66,-517.83 2361.19,-524.81"/>
</g>
<!-- node14 -->
<g id="node15" class="node">
<title>node14</title>
<polygon fill="lightgrey" stroke="black" points="3434.46,-328 2436.46,-328 2436.46,-292 3434.46,-292 3434.46,-328"/>
<text text-anchor="middle" x="2935.46" y="-306.3" font-family="Times,serif" font-size="14.00">#14 Invoke static metafactory : (MethodHandles$Lookup,String,MethodType,MethodType,MethodHandle,MethodType)CallSite Order : 9</text>
</g>
<!-- node6&#45;&gt;node14 -->
<g id="edge36" class="edge">
<title>node6&#45;&gt;node14</title>
<path fill="none" stroke="black" d="M1412.49,-437.99C1741.34,-410.57 2385.53,-356.85 2720.94,-328.89"/>
<polygon fill="black" stroke="black" points="2721.59,-332.34 2731.27,-328.03 2721.01,-325.37 2721.59,-332.34"/>
<text text-anchor="middle" x="2713.91" y="-334.25" font-family="Times,serif" font-size="14.00">*5</text>
</g>
<!-- node7&#45;&gt;node0 -->
<g id="edge15" class="edge">
<title>node7&#45;&gt;node0</title>
<path fill="none" stroke="green" stroke-width="2" d="M2095.71,-472.59C2176.08,-484.59 2284.53,-501.09 2361.1,-512.95"/>
<polygon fill="green" stroke="green" stroke-width="2" points="2360.8,-516.45 2371.22,-514.52 2361.88,-509.53 2360.8,-516.45"/>
</g>
<!-- node7&#45;&gt;node14 -->
<g id="edge34" class="edge">
<title>node7&#45;&gt;node14</title>
<path fill="none" stroke="black" d="M2092.07,-439.11C2268.77,-412.27 2625.37,-358.1 2813.26,-329.56"/>
<polygon fill="black" stroke="black" points="2813.82,-333.02 2823.18,-328.05 2812.77,-326.1 2813.82,-333.02"/>
<text text-anchor="middle" x="2806.53" y="-335.43" font-family="Times,serif" font-size="14.00">*3</text>
</g>
<!-- node8&#45;&gt;node0 -->
<g id="edge17" class="edge">
<title>node8&#45;&gt;node0</title>
<path fill="none" stroke="green" stroke-width="2" d="M2460.32,-474.03C2461.16,-482.03 2461.41,-491.77 2461.04,-500.75"/>
<polygon fill="green" stroke="green" stroke-width="2" points="2457.54,-500.59 2460.33,-510.81 2464.53,-501.08 2457.54,-500.59"/>
</g>
<!-- node8&#45;&gt;node14 -->
<g id="edge35" class="edge">
<title>node8&#45;&gt;node14</title>
<path fill="none" stroke="black" d="M2511.52,-437.92C2600.93,-411.15 2773.61,-359.45 2868.67,-330.99"/>
<polygon fill="black" stroke="black" points="2869.89,-334.28 2878.46,-328.06 2867.88,-327.58 2869.89,-334.28"/>
<text text-anchor="middle" x="2863.52" y="-337.66" font-family="Times,serif" font-size="14.00">*4</text>
</g>
<!-- node9&#45;&gt;node0 -->
<g id="edge19" class="edge">
<title>node9&#45;&gt;node0</title>
<path fill="none" stroke="green" stroke-width="2" d="M2818.52,-472.5C2742.59,-482.51 2641.6,-496.36 2552.46,-511 2550.95,-511.25 2549.43,-511.5 2547.91,-511.76"/>
<polygon fill="green" stroke="green" stroke-width="2" points="2546.95,-508.37 2537.69,-513.52 2548.14,-515.27 2546.95,-508.37"/>
</g>
<!-- node9&#45;&gt;node14 -->
<g id="edge37" class="edge">
<title>node9&#45;&gt;node14</title>
<path fill="none" stroke="black" d="M2935.46,-437.92C2935.46,-413.34 2935.46,-367.75 2935.46,-338.43"/>
<polygon fill="black" stroke="black" points="2938.96,-338.06 2935.46,-328.06 2931.96,-338.06 2938.96,-338.06"/>
<text text-anchor="middle" x="2943.91" y="-342.49" font-family="Times,serif" font-size="14.00">*6</text>
</g>
<!-- node10&#45;&gt;node0 -->
<g id="edge21" class="edge">
<title>node10&#45;&gt;node0</title>
<path fill="none" stroke="green" stroke-width="2" d="M3255.94,-469.17C3233.04,-470.85 3209.64,-472.52 3187.46,-474 2905.39,-492.87 2833,-476.18 2552.46,-511 2550.94,-511.19 2549.42,-511.39 2547.88,-511.59"/>
<polygon fill="green" stroke="green" stroke-width="2" points="2547.02,-508.18 2537.63,-513.08 2548.02,-515.11 2547.02,-508.18"/>
</g>
<!-- node10&#45;&gt;node14 -->
<g id="edge31" class="edge">
<title>node10&#45;&gt;node14</title>
<path fill="none" stroke="black" d="M3347.93,-437.92C3261.03,-411.18 3093.26,-359.56 3000.72,-331.08"/>
<polygon fill="black" stroke="black" points="3001.49,-327.66 2990.91,-328.06 2999.44,-334.35 3001.49,-327.66"/>
<text text-anchor="middle" x="3010.72" y="-321.61" font-family="Times,serif" font-size="14.00">*0</text>
</g>
<!-- node11&#45;&gt;node0 -->
<g id="edge23" class="edge">
<title>node11&#45;&gt;node0</title>
<path fill="none" stroke="green" stroke-width="2" d="M3707.72,-469.45C3684.29,-471.15 3660.22,-472.74 3637.46,-474 3396.57,-487.37 2792.21,-484.18 2552.46,-511 2550.94,-511.17 2549.41,-511.35 2547.88,-511.54"/>
<polygon fill="green" stroke="green" stroke-width="2" points="2547.04,-508.12 2537.61,-512.94 2547.99,-515.06 2547.04,-508.12"/>
</g>
<!-- node12 -->
<g id="node13" class="node">
<title>node12</title>
<polygon fill="lightgrey" stroke="black" points="4082.46,-401 3616.46,-401 3616.46,-365 4082.46,-365 4082.46,-401"/>
<text text-anchor="middle" x="3849.46" y="-379.3" font-family="Times,serif" font-size="14.00">#12 Invoke static in : (Class)MethodHandles$Lookup Order : 3</text>
</g>
<!-- node11&#45;&gt;node12 -->
<g id="edge26" class="edge">
<title>node11&#45;&gt;node12</title>
<path fill="none" stroke="black" d="M3837.7,-437.81C3836.02,-429.79 3835.55,-420.05 3836.3,-411.07"/>
<polygon fill="black" stroke="black" points="3839.78,-411.42 3837.73,-401.03 3832.85,-410.43 3839.78,-411.42"/>
<text text-anchor="middle" x="3843.54" y="-416.47" font-family="Times,serif" font-size="14.00">*0</text>
</g>
<!-- node11&#45;&gt;node12 -->
<g id="edge27" class="edge">
<title>node11&#45;&gt;node12</title>
<path fill="none" stroke="black" d="M3861.21,-437.81C3862.89,-429.79 3863.36,-420.05 3862.61,-411.07"/>
<polygon fill="black" stroke="black" points="3866.06,-410.43 3861.18,-401.03 3859.13,-411.42 3866.06,-410.43"/>
<text text-anchor="middle" x="3872.11" y="-414.08" font-family="Times,serif" font-size="14.00">*1</text>
</g>
<!-- node12&#45;&gt;node11 -->
<g id="edge25" class="edge">
<title>node12&#45;&gt;node11</title>
<path fill="none" stroke="green" stroke-width="2" d="M3849.46,-401.03C3849.46,-409.03 3849.46,-418.77 3849.46,-427.75"/>
<polygon fill="green" stroke="green" stroke-width="2" points="3845.96,-427.81 3849.46,-437.81 3852.96,-427.81 3845.96,-427.81"/>
</g>
<!-- node12&#45;&gt;node14 -->
<g id="edge32" class="edge">
<title>node12&#45;&gt;node14</title>
<path fill="none" stroke="black" d="M3630.53,-364.99C3489.86,-354.07 3307.44,-339.9 3164.77,-328.81"/>
<polygon fill="black" stroke="black" points="3164.81,-325.31 3154.57,-328.02 3164.27,-332.29 3164.81,-325.31"/>
<text text-anchor="middle" x="3173.3" y="-317.3" font-family="Times,serif" font-size="14.00">*1</text>
</g>
<!-- node13&#45;&gt;node0 -->
<g id="edge28" class="edge">
<title>node13&#45;&gt;node0</title>
<path fill="none" stroke="green" stroke-width="2" d="M4129.48,-469.69C4112.86,-471.38 4095.69,-472.91 4079.46,-474 3910.12,-485.38 2721.21,-492.96 2552.46,-511 2550.94,-511.16 2549.41,-511.34 2547.87,-511.52"/>
<polygon fill="green" stroke="green" stroke-width="2" points="2547.05,-508.1 2537.6,-512.89 2547.98,-515.04 2547.05,-508.1"/>
</g>
<!-- node13&#45;&gt;node14 -->
<g id="edge33" class="edge">
<title>node13&#45;&gt;node14</title>
<path fill="none" stroke="black" d="M4206.43,-437.92C4182.39,-416.38 4137.49,-380.3 4091.46,-365 4028.75,-344.16 3725.18,-330.48 3444.89,-322.1"/>
<polygon fill="black" stroke="black" points="3444.6,-318.59 3434.5,-321.8 3444.4,-325.59 3444.6,-318.59"/>
<text text-anchor="middle" x="3452.87" y="-310.18" font-family="Times,serif" font-size="14.00">*2</text>
</g>
<!-- node14&#45;&gt;node0 -->
<g id="edge30" class="edge">
<title>node14&#45;&gt;node0</title>
<path fill="none" stroke="green" stroke-width="2" d="M3434.81,-317.34C3703.8,-323.95 4006.85,-337.45 4138.46,-365 4409.76,-421.8 4441.45,-409.72 4378.46,-474 4343.89,-509.27 2701.78,-505.94 2547.91,-511.12"/>
<polygon fill="green" stroke="green" stroke-width="2" points="2547.57,-507.63 2537.77,-511.64 2547.94,-514.62 2547.57,-507.63"/>
</g>
<!-- node14&#45;&gt;node15 -->
<g id="edge39" class="edge">
<title>node14&#45;&gt;node15</title>
<path fill="none" stroke="black" d="M2436.13,-294.07C1917.34,-278.56 1130.96,-255.06 763.3,-244.06"/>
<polygon fill="black" stroke="black" points="763.18,-240.56 753.08,-243.76 762.98,-247.56 763.18,-240.56"/>
<text text-anchor="middle" x="771.46" y="-232.15" font-family="Times,serif" font-size="14.00">*0</text>
</g>
<!-- node15&#45;&gt;node0 -->
<g id="edge38" class="edge">
<title>node15&#45;&gt;node0</title>
<path fill="none" stroke="green" stroke-width="2" d="M753.28,-238.99C1536.15,-243.3 4435.46,-262.44 4435.46,-309 4435.46,-457 4435.46,-457 4435.46,-457 4435.46,-519.29 4219.69,-490.27 4157.46,-493 3802.35,-508.57 2916.55,-475.81 2547.72,-510.65"/>
<polygon fill="green" stroke="green" stroke-width="2" points="2547.38,-507.17 2537.77,-511.62 2548.06,-514.14 2547.38,-507.17"/>
</g>
<!-- node15&#45;&gt;node16 -->
<g id="edge45" class="edge">
<title>node15&#45;&gt;node16</title>
<path fill="none" stroke="black" d="M548.7,-218.81C547.02,-210.79 546.55,-201.05 547.3,-192.07"/>
<polygon fill="black" stroke="black" points="550.78,-192.42 548.73,-182.03 543.85,-191.43 550.78,-192.42"/>
<text text-anchor="middle" x="554.54" y="-197.47" font-family="Times,serif" font-size="14.00">*1</text>
</g>
<!-- node15&#45;&gt;node16 -->
<g id="edge46" class="edge">
<title>node15&#45;&gt;node16</title>
<path fill="none" stroke="red" d="M560.46,-218.81C560.46,-210.79 560.46,-201.05 560.46,-192.07"/>
<polygon fill="red" stroke="red" points="563.96,-192.03 560.46,-182.03 556.96,-192.03 563.96,-192.03"/>
</g>
<!-- node15&#45;&gt;node16 -->
<g id="edge47" class="edge">
<title>node15&#45;&gt;node16</title>
<path fill="none" stroke="black" d="M572.21,-218.81C573.89,-210.79 574.36,-201.05 573.61,-192.07"/>
<polygon fill="black" stroke="black" points="577.06,-191.43 572.18,-182.03 570.13,-192.42 577.06,-191.43"/>
</g>
<!-- node16&#45;&gt;node0 -->
<g id="edge43" class="edge">
<title>node16&#45;&gt;node0</title>
<path fill="none" stroke="green" stroke-width="2" d="M774.66,-166.07C1592.63,-170.49 4473.46,-189.36 4473.46,-236 4473.46,-457 4473.46,-457 4473.46,-457 4473.46,-543.38 4368.67,-487.54 4282.46,-493 3900.06,-517.2 2944.52,-473.35 2547.9,-510.64"/>
<polygon fill="green" stroke="green" stroke-width="2" points="2547.38,-507.17 2537.77,-511.62 2548.06,-514.14 2547.38,-507.17"/>
</g>
<!-- node17 -->
<g id="node18" class="node">
<title>node17</title>
<polygon fill="lightgrey" stroke="black" points="732.46,-109 388.46,-109 388.46,-73 732.46,-73 732.46,-109"/>
<text text-anchor="middle" x="560.46" y="-87.3" font-family="Times,serif" font-size="14.00">#17 Invoke interface count : ()long Order : 17</text>
</g>
<!-- node16&#45;&gt;node17 -->
<g id="edge49" class="edge">
<title>node16&#45;&gt;node17</title>
<path fill="none" stroke="black" d="M542.82,-145.81C540.3,-137.79 539.6,-128.05 540.72,-119.07"/>
<polygon fill="black" stroke="black" points="544.2,-119.54 542.87,-109.03 537.36,-118.07 544.2,-119.54"/>
<text text-anchor="middle" x="547.34" y="-124.82" font-family="Times,serif" font-size="14.00">*0</text>
</g>
<!-- node16&#45;&gt;node17 -->
<g id="edge50" class="edge">
<title>node16&#45;&gt;node17</title>
<path fill="none" stroke="red" d="M566.33,-145.81C567.17,-137.79 567.41,-128.05 567.03,-119.07"/>
<polygon fill="red" stroke="red" points="570.52,-118.75 566.32,-109.03 563.54,-119.25 570.52,-118.75"/>
</g>
<!-- node16&#45;&gt;node17 -->
<g id="edge51" class="edge">
<title>node16&#45;&gt;node17</title>
<path fill="none" stroke="black" d="M578.09,-145.81C580.61,-137.79 581.31,-128.05 580.19,-119.07"/>
<polygon fill="black" stroke="black" points="583.56,-118.07 578.04,-109.03 576.71,-119.54 583.56,-118.07"/>
</g>
<!-- node17&#45;&gt;node16 -->
<g id="edge48" class="edge">
<title>node17&#45;&gt;node16</title>
<path fill="none" stroke="green" stroke-width="2" d="M554.59,-109.03C553.75,-117.03 553.51,-126.77 553.87,-135.75"/>
<polygon fill="green" stroke="green" stroke-width="2" points="550.38,-136.08 554.58,-145.81 557.37,-135.59 550.38,-136.08"/>
</g>
<!-- node18 -->
<g id="node19" class="node">
<title>node18</title>
<polygon fill="lightgrey" stroke="black" points="691.46,-36 429.46,-36 429.46,0 691.46,0 691.46,-36"/>
<text text-anchor="middle" x="560.46" y="-14.3" font-family="Times,serif" font-size="14.00">#18 ReturnValue : long Order : 18</text>
</g>
<!-- node17&#45;&gt;node18 -->
<g id="edge53" class="edge">
<title>node17&#45;&gt;node18</title>
<path fill="none" stroke="black" d="M542.82,-72.81C540.3,-64.79 539.6,-55.05 540.72,-46.07"/>
<polygon fill="black" stroke="black" points="544.2,-46.54 542.87,-36.03 537.36,-45.07 544.2,-46.54"/>
<text text-anchor="middle" x="547.34" y="-51.82" font-family="Times,serif" font-size="14.00">*0</text>
</g>
<!-- node17&#45;&gt;node18 -->
<g id="edge54" class="edge">
<title>node17&#45;&gt;node18</title>
<path fill="none" stroke="red" d="M566.33,-72.81C567.17,-64.79 567.41,-55.05 567.03,-46.07"/>
<polygon fill="red" stroke="red" points="570.52,-45.75 566.32,-36.03 563.54,-46.25 570.52,-45.75"/>
</g>
<!-- node17&#45;&gt;node18 -->
<g id="edge55" class="edge">
<title>node17&#45;&gt;node18</title>
<path fill="none" stroke="black" d="M578.09,-72.81C580.61,-64.79 581.31,-55.05 580.19,-46.07"/>
<polygon fill="black" stroke="black" points="583.56,-45.07 578.04,-36.03 576.71,-46.54 583.56,-45.07"/>
</g>
<!-- node18&#45;&gt;node17 -->
<g id="edge52" class="edge">
<title>node18&#45;&gt;node17</title>
<path fill="none" stroke="green" stroke-width="2" d="M554.59,-36.03C553.75,-44.03 553.51,-53.77 553.87,-62.75"/>
<polygon fill="green" stroke="green" stroke-width="2" points="550.38,-63.08 554.58,-72.81 557.37,-62.59 550.38,-63.08"/>
</g>
<!-- c0 -->
<!-- c1 -->
<!-- c0&#45;&gt;c1 -->
<g id="edge56" class="edge">
<title>c0&#45;&gt;c1</title>
<path fill="none" stroke="red" d="M3269.35,-529C3280.56,-529 3338.7,-529 3364.31,-529"/>
<polygon fill="red" stroke="red" points="3364.51,-532.5 3374.51,-529 3364.51,-525.5 3364.51,-532.5"/>
<text text-anchor="middle" x="3321.96" y="-535.8" font-family="Times,serif" font-size="14.00">Control flow</text>
</g>
<!-- c2 -->
<!-- c3 -->
<!-- c2&#45;&gt;c3 -->
<g id="edge57" class="edge">
<title>c2&#45;&gt;c3</title>
<path fill="none" stroke="red" stroke-dasharray="5,2" d="M3062.53,-529C3079.5,-529 3195.66,-529 3233.54,-529"/>
<polygon fill="red" stroke="red" points="3233.62,-532.5 3243.62,-529 3233.62,-525.5 3233.62,-532.5"/>
<text text-anchor="middle" x="3152.96" y="-535.8" font-family="Times,serif" font-size="14.00">Control flow back edge</text>
</g>
<!-- d0 -->
<!-- d1 -->
<!-- d0&#45;&gt;d1 -->
<g id="edge58" class="edge">
<title>d0&#45;&gt;d1</title>
<path fill="none" stroke="black" d="M2951.31,-529C2960.86,-529 3004.76,-529 3026.37,-529"/>
<polygon fill="black" stroke="black" points="3026.61,-532.5 3036.61,-529 3026.61,-525.5 3026.61,-532.5"/>
<text text-anchor="middle" x="2993.96" y="-535.8" font-family="Times,serif" font-size="14.00">Data flow</text>
</g>
<!-- d2 -->
<!-- d3 -->
<!-- d2&#45;&gt;d3 -->
<g id="edge59" class="edge">
<title>d2&#45;&gt;d3</title>
<path fill="none" stroke="black" stroke-dasharray="1,5" d="M2825.26,-529C2835.91,-529 2890.92,-529 2915.53,-529"/>
<polygon fill="black" stroke="black" points="2915.6,-532.5 2925.6,-529 2915.6,-525.5 2915.6,-532.5"/>
<text text-anchor="middle" x="2875.46" y="-535.8" font-family="Times,serif" font-size="14.00">Declaration</text>
</g>
<!-- d4 -->
<!-- d5 -->
<!-- d4&#45;&gt;d5 -->
<g id="edge60" class="edge">
<title>d4&#45;&gt;d5</title>
<path fill="none" stroke="blue" d="M2682.56,-529C2695.18,-529 2761.34,-529 2789.13,-529"/>
<polygon fill="blue" stroke="blue" points="2789.3,-532.5 2799.3,-529 2789.3,-525.5 2789.3,-532.5"/>
<text text-anchor="middle" x="2740.96" y="-535.8" font-family="Times,serif" font-size="14.00">PHI Data flow</text>
</g>
<!-- d6 -->
<!-- d7 -->
<!-- d6&#45;&gt;d7 -->
<g id="edge61" class="edge">
<title>d6&#45;&gt;d7</title>
<path fill="none" stroke="green" d="M2559.56,-529C2570.6,-529 2622.12,-529 2646.11,-529"/>
<polygon fill="green" stroke="green" points="2646.36,-532.5 2656.36,-529 2646.36,-525.5 2646.36,-532.5"/>
<text text-anchor="middle" x="2607.96" y="-535.8" font-family="Times,serif" font-size="14.00">Dominance</text>
</g>
</g>
</svg>
