<?xml version="1.0" encoding="UTF-8" standalone="no"?>
<!DOCTYPE svg PUBLIC "-//W3C//DTD SVG 1.1//EN"
 "http://www.w3.org/Graphics/SVG/1.1/DTD/svg11.dtd">
<!-- Generated by graphviz version 2.43.0 (0)
 -->
<!-- Title: debugoutput Pages: 1 -->
<svg width="3818pt" height="724pt"
 viewBox="0.00 0.00 3818.00 723.80" xmlns="http://www.w3.org/2000/svg" xmlns:xlink="http://www.w3.org/1999/xlink">
<g id="graph0" class="graph" transform="scale(1 1) rotate(0) translate(4 719.8)">
<title>debugoutput</title>
<polygon fill="white" stroke="transparent" points="-4,4 -4,-719.8 3814,-719.8 3814,4 -4,4"/>
<g id="clust1" class="cluster">
<title>cluster_000</title>
<polygon fill="none" stroke="black" points="2596,-665.2 2596,-707.8 3572,-707.8 3572,-665.2 2596,-665.2"/>
<text text-anchor="middle" x="3084" y="-692.6" font-family="Times,serif" font-size="14.00">Legend</text>
</g>
<!-- node0 -->
<g id="node1" class="node">
<title>node0</title>
<polygon fill="lightgrey" stroke="black" points="2586,-693 2420,-693 2420,-657 2586,-657 2586,-693"/>
<text text-anchor="middle" x="2503" y="-671.3" font-family="Times,serif" font-size="14.00">#0 Method Order : 0</text>
</g>
<!-- node1 -->
<g id="node2" class="node">
<title>node1</title>
<polygon fill="lightgrey" stroke="black" points="186,-620 0,-620 0,-584 186,-584 186,-620"/>
<text text-anchor="middle" x="93" y="-598.3" font-family="Times,serif" font-size="14.00">#1 arg1 : int Order : 14</text>
</g>
<!-- node0&#45;&gt;node1 -->
<g id="edge2" class="edge">
<title>node0&#45;&gt;node1</title>
<path fill="none" stroke="black" d="M2419.7,-673.65C2061.84,-671.88 652.88,-662.31 195.7,-620.9"/>
<polygon fill="black" stroke="black" points="196.01,-617.41 185.73,-619.97 195.37,-624.38 196.01,-617.41"/>
<text text-anchor="middle" x="204.56" y="-609.53" font-family="Times,serif" font-size="14.00">*0</text>
</g>
<!-- node2 -->
<g id="node3" class="node">
<title>node2</title>
<polygon fill="lightgrey" stroke="black" points="3313.5,-620 3128.5,-620 3128.5,-584 3313.5,-584 3313.5,-620"/>
<text text-anchor="middle" x="3221" y="-598.3" font-family="Times,serif" font-size="14.00">#2 arg0 : List Order : 7</text>
</g>
<!-- node0&#45;&gt;node2 -->
<g id="edge4" class="edge">
<title>node0&#45;&gt;node2</title>
<path fill="none" stroke="black" d="M2583.33,-656.96C2811.1,-631.44 2873.01,-678.18 3099,-639 3118.96,-635.54 3140.26,-629.42 3159.45,-623.2"/>
<polygon fill="black" stroke="black" points="3160.58,-626.52 3168.97,-620.05 3158.38,-619.87 3160.58,-626.52"/>
<text text-anchor="middle" x="3154.41" y="-630.07" font-family="Times,serif" font-size="14.00">*0</text>
</g>
<!-- node3 -->
<g id="node4" class="node">
<title>node3</title>
<polygon fill="lightgrey" stroke="black" points="1596.5,-620 1305.5,-620 1305.5,-584 1596.5,-584 1596.5,-620"/>
<text text-anchor="middle" x="1451" y="-598.3" font-family="Times,serif" font-size="14.00">#3 this : InvokeDynamicTest Order : 6</text>
</g>
<!-- node0&#45;&gt;node3 -->
<g id="edge6" class="edge">
<title>node0&#45;&gt;node3</title>
<path fill="none" stroke="black" d="M2419.86,-670.59C2261.85,-663.58 1907.43,-646.07 1606.82,-620.83"/>
<polygon fill="black" stroke="black" points="1606.85,-617.32 1596.6,-619.97 1606.27,-624.29 1606.85,-617.32"/>
<text text-anchor="middle" x="1615.37" y="-609.37" font-family="Times,serif" font-size="14.00">*0</text>
</g>
<!-- node4 -->
<g id="node5" class="node">
<title>node4</title>
<polygon fill="lightgrey" stroke="black" points="3520,-620 3332,-620 3332,-584 3520,-584 3520,-620"/>
<text text-anchor="middle" x="3426" y="-598.3" font-family="Times,serif" font-size="14.00">#4 LabelNode Order : 5</text>
</g>
<!-- node0&#45;&gt;node4 -->
<g id="edge8" class="edge">
<title>node0&#45;&gt;node4</title>
<path fill="none" stroke="red" d="M2583.35,-656.96C2821.72,-630.42 2883.51,-654.89 3123,-639 3208.12,-633.35 3229.43,-631.17 3314,-620 3316.55,-619.66 3319.14,-619.31 3321.76,-618.95"/>
<polygon fill="red" stroke="red" points="3322.53,-622.37 3331.93,-617.48 3321.53,-615.44 3322.53,-622.37"/>
</g>
<!-- node5 -->
<g id="node6" class="node">
<title>node5</title>
<polygon fill="lightgrey" stroke="black" points="3400,-547 3042,-547 3042,-511 3400,-511 3400,-547"/>
<text text-anchor="middle" x="3221" y="-525.3" font-family="Times,serif" font-size="14.00">#5 Invoke interface stream : ()Stream Order : 8</text>
</g>
<!-- node0&#45;&gt;node5 -->
<g id="edge12" class="edge">
<title>node0&#45;&gt;node5</title>
<path fill="none" stroke="green" d="M2583.31,-656.97C2635.91,-651.15 3001.01,-658.28 3049,-639 3083.18,-625.26 3080.77,-605.05 3111,-584 3128.31,-571.95 3148.61,-560.61 3167.1,-551.47"/>
<polygon fill="green" stroke="green" points="3168.81,-554.53 3176.29,-547.03 3165.77,-548.22 3168.81,-554.53"/>
</g>
<!-- node6 -->
<g id="node7" class="node">
<title>node6</title>
<polygon fill="lightgreen" stroke="black" points="1287.88,-594.54 1287.88,-609.46 970.45,-620 521.55,-620 204.12,-609.46 204.12,-594.54 521.55,-584 970.45,-584 1287.88,-594.54"/>
<text text-anchor="middle" x="746" y="-598.3" font-family="Times,serif" font-size="14.00">#6 MethodHandle : invokeStatic : InvokeDynamicTest.lambda$countList$0 (int,Integer)boolean Order : 4</text>
</g>
<!-- node0&#45;&gt;node6 -->
<g id="edge14" class="edge">
<title>node0&#45;&gt;node6</title>
<path fill="none" stroke="black" stroke-dasharray="1,5" d="M2419.91,-670.76C2184.41,-661.41 1502.88,-633.9 1085.61,-616.95"/>
<polygon fill="black" stroke="black" points="1085.63,-613.44 1075.5,-616.53 1085.35,-620.44 1085.63,-613.44"/>
</g>
<!-- node7 -->
<g id="node8" class="node">
<title>node7</title>
<polygon fill="lightgreen" stroke="black" points="2073.18,-594.54 2073.18,-609.46 1938.93,-620 1749.07,-620 1614.82,-609.46 1614.82,-594.54 1749.07,-584 1938.93,-584 2073.18,-594.54"/>
<text text-anchor="middle" x="1844" y="-598.3" font-family="Times,serif" font-size="14.00">#7 MethodType : (Object)boolean Order : 3</text>
</g>
<!-- node0&#45;&gt;node7 -->
<g id="edge16" class="edge">
<title>node0&#45;&gt;node7</title>
<path fill="none" stroke="black" stroke-dasharray="1,5" d="M2419.93,-665.54C2310.02,-653.97 2114.87,-632.98 1982.5,-618.54"/>
<polygon fill="black" stroke="black" points="1982.6,-615.03 1972.28,-617.42 1981.84,-621.98 1982.6,-615.03"/>
</g>
<!-- node8 -->
<g id="node9" class="node">
<title>node8</title>
<polygon fill="lightgreen" stroke="black" points="2530.48,-594.54 2530.48,-609.46 2401.91,-620 2220.09,-620 2091.52,-609.46 2091.52,-594.54 2220.09,-584 2401.91,-584 2530.48,-594.54"/>
<text text-anchor="middle" x="2311" y="-598.3" font-family="Times,serif" font-size="14.00">#8 MethodType : (int)Predicate Order : 2</text>
</g>
<!-- node0&#45;&gt;node8 -->
<g id="edge18" class="edge">
<title>node0&#45;&gt;node8</title>
<path fill="none" stroke="black" stroke-dasharray="1,5" d="M2451.15,-656.99C2423.1,-647.01 2388.67,-634.32 2360.92,-623.76"/>
<polygon fill="black" stroke="black" points="2362,-620.42 2351.41,-620.11 2359.5,-626.96 2362,-620.42"/>
</g>
<!-- node9 -->
<g id="node10" class="node">
<title>node9</title>
<polygon fill="lightgreen" stroke="black" points="3015.62,-594.54 3015.62,-609.46 2878.77,-620 2685.23,-620 2548.38,-609.46 2548.38,-594.54 2685.23,-584 2878.77,-584 3015.62,-594.54"/>
<text text-anchor="middle" x="2782" y="-598.3" font-family="Times,serif" font-size="14.00">#9 MethodType : (Integer)boolean Order : 1</text>
</g>
<!-- node0&#45;&gt;node9 -->
<g id="edge20" class="edge">
<title>node0&#45;&gt;node9</title>
<path fill="none" stroke="black" stroke-dasharray="1,5" d="M2563.97,-656.99C2603.55,-646.64 2655.59,-633.38 2698.92,-622.59"/>
<polygon fill="black" stroke="black" points="2700.02,-625.92 2708.88,-620.11 2698.33,-619.13 2700.02,-625.92"/>
</g>
<!-- node1&#45;&gt;node0 -->
<g id="edge1" class="edge">
<title>node1&#45;&gt;node0</title>
<path fill="none" stroke="fuchsia" stroke-width="2" d="M186.18,-617.99C192.21,-618.77 198.19,-619.45 204,-620 643.43,-661.55 2035.12,-671.58 2409.52,-673.57"/>
<polygon fill="fuchsia" stroke="fuchsia" stroke-width="2" points="2409.75,-677.07 2419.77,-673.62 2409.79,-670.07 2409.75,-677.07"/>
</g>
<!-- node15 -->
<g id="node16" class="node">
<title>node15</title>
<polygon fill="lightgrey" stroke="black" points="3678.5,-255 3293.5,-255 3293.5,-219 3678.5,-219 3678.5,-255"/>
<text text-anchor="middle" x="3486" y="-233.3" font-family="Times,serif" font-size="14.00">#15 Invoke dynamic test : (int)Predicate Order : 15</text>
</g>
<!-- node1&#45;&gt;node15 -->
<g id="edge40" class="edge">
<title>node1&#45;&gt;node15</title>
<path fill="none" stroke="black" d="M186.06,-585.11C189.07,-584.72 192.06,-584.35 195,-584 238.08,-578.93 974,-573.38 974,-530 974,-530 974,-530 974,-309 974,-251.37 2685.96,-240.51 3283.31,-238.47"/>
<polygon fill="black" stroke="black" points="3283.33,-241.97 3293.32,-238.43 3283.31,-234.97 3283.33,-241.97"/>
<text text-anchor="middle" x="3275.22" y="-243.25" font-family="Times,serif" font-size="14.00">*1</text>
</g>
<!-- node2&#45;&gt;node0 -->
<g id="edge3" class="edge">
<title>node2&#45;&gt;node0</title>
<path fill="none" stroke="fuchsia" stroke-width="2" d="M3185.34,-620.05C3165.5,-627.28 3140.33,-634.96 3117,-639 2890.9,-678.19 2829.04,-631.4 2601,-657 2599.49,-657.17 2597.96,-657.35 2596.42,-657.54"/>
<polygon fill="fuchsia" stroke="fuchsia" stroke-width="2" points="2595.59,-654.12 2586.15,-658.95 2596.54,-661.06 2595.59,-654.12"/>
</g>
<!-- node2&#45;&gt;node5 -->
<g id="edge10" class="edge">
<title>node2&#45;&gt;node5</title>
<path fill="none" stroke="black" d="M3221,-583.81C3221,-575.79 3221,-566.05 3221,-557.07"/>
<polygon fill="black" stroke="black" points="3224.5,-557.03 3221,-547.03 3217.5,-557.03 3224.5,-557.03"/>
<text text-anchor="middle" x="3229.45" y="-561.45" font-family="Times,serif" font-size="14.00">*0</text>
</g>
<!-- node3&#45;&gt;node0 -->
<g id="edge5" class="edge">
<title>node3&#45;&gt;node0</title>
<path fill="none" stroke="fuchsia" stroke-width="2" d="M1596.88,-618.38C1603.01,-618.95 1609.07,-619.5 1615,-620 1904.39,-644.57 2247.24,-661.96 2409.3,-669.62"/>
<polygon fill="fuchsia" stroke="fuchsia" stroke-width="2" points="2409.56,-673.14 2419.72,-670.11 2409.89,-666.14 2409.56,-673.14"/>
</g>
<!-- node4&#45;&gt;node0 -->
<g id="edge7" class="edge">
<title>node4&#45;&gt;node0</title>
<path fill="none" stroke="fuchsia" stroke-width="2" d="M3331.51,-620.07C3247.34,-631.18 3225.95,-633.36 3141,-639 2901.39,-654.89 2839.65,-630.39 2601,-657 2599.49,-657.17 2597.96,-657.35 2596.42,-657.54"/>
<polygon fill="fuchsia" stroke="fuchsia" stroke-width="2" points="2595.59,-654.12 2586.15,-658.94 2596.53,-661.06 2595.59,-654.12"/>
</g>
<!-- node4&#45;&gt;node5 -->
<g id="edge11" class="edge">
<title>node4&#45;&gt;node5</title>
<path fill="none" stroke="red" d="M3376.9,-583.99C3347.82,-573.92 3310.8,-561.1 3280.13,-550.48"/>
<polygon fill="red" stroke="red" points="3281.01,-547.08 3270.41,-547.11 3278.72,-553.69 3281.01,-547.08"/>
</g>
<!-- node5&#45;&gt;node0 -->
<g id="edge9" class="edge">
<title>node5&#45;&gt;node0</title>
<path fill="none" stroke="fuchsia" stroke-width="2" d="M3192.25,-547.03C3173.56,-556.8 3149.23,-569.91 3129,-584 3098.77,-605.05 3101.18,-625.26 3067,-639 3018.92,-658.32 2652.48,-651.12 2601,-657 2599.49,-657.17 2597.96,-657.36 2596.42,-657.55"/>
<polygon fill="fuchsia" stroke="fuchsia" stroke-width="2" points="2595.58,-654.13 2586.16,-658.97 2596.54,-661.07 2595.58,-654.13"/>
</g>
<!-- node10 -->
<g id="node11" class="node">
<title>node10</title>
<polygon fill="lightgreen" stroke="black" points="3623.11,-448.54 3623.11,-463.46 3493,-474 3309,-474 3178.89,-463.46 3178.89,-448.54 3309,-438 3493,-438 3623.11,-448.54"/>
<text text-anchor="middle" x="3401" y="-452.3" font-family="Times,serif" font-size="14.00">#10 Class LambdaMetafactory Order : 12</text>
</g>
<!-- node5&#45;&gt;node10 -->
<g id="edge22" class="edge">
<title>node5&#45;&gt;node10</title>
<path fill="none" stroke="black" stroke-dasharray="1,5" d="M3258.26,-510.99C3282.5,-501.01 3314.56,-488.32 3342.18,-477.76"/>
<polygon fill="black" stroke="black" points="3343.64,-480.94 3351.74,-474.11 3341.15,-474.4 3343.64,-480.94"/>
</g>
<!-- node11 -->
<g id="node12" class="node">
<title>node11</title>
<polygon fill="lightgreen" stroke="black" points="2852.57,-448.54 2852.57,-463.46 2724.54,-474 2543.46,-474 2415.43,-463.46 2415.43,-448.54 2543.46,-438 2724.54,-438 2852.57,-448.54"/>
<text text-anchor="middle" x="2634" y="-452.3" font-family="Times,serif" font-size="14.00">#11 Class InvokeDynamicTest Order : 10</text>
</g>
<!-- node5&#45;&gt;node11 -->
<g id="edge24" class="edge">
<title>node5&#45;&gt;node11</title>
<path fill="none" stroke="black" stroke-dasharray="1,5" d="M3074.54,-510.99C2978.25,-499.49 2853.53,-484.4 2761.36,-473.1"/>
<polygon fill="black" stroke="black" points="2761.77,-469.63 2751.42,-471.88 2760.92,-476.57 2761.77,-469.63"/>
</g>
<!-- node12 -->
<g id="node13" class="node">
<title>node12</title>
<polygon fill="lightgreen" stroke="black" points="3160.84,-448.54 3160.84,-463.46 3075.99,-474 2956.01,-474 2871.16,-463.46 2871.16,-448.54 2956.01,-438 3075.99,-438 3160.84,-448.54"/>
<text text-anchor="middle" x="3016" y="-452.3" font-family="Times,serif" font-size="14.00">#12 String : test Order : 9</text>
</g>
<!-- node5&#45;&gt;node12 -->
<g id="edge26" class="edge">
<title>node5&#45;&gt;node12</title>
<path fill="none" stroke="black" stroke-dasharray="1,5" d="M3166.04,-510.99C3136.03,-500.97 3099.09,-488.21 3069.34,-477.62"/>
<polygon fill="black" stroke="black" points="3070.14,-474.19 3059.54,-474.11 3067.78,-480.78 3070.14,-474.19"/>
</g>
<!-- node5&#45;&gt;node15 -->
<g id="edge41" class="edge">
<title>node5&#45;&gt;node15</title>
<path fill="none" stroke="green" d="M3400.08,-514.65C3499.99,-505.47 3607.44,-491.74 3623,-474 3684.2,-404.24 3570.66,-305.85 3514.51,-261.41"/>
<polygon fill="green" stroke="green" points="3516.38,-258.43 3506.35,-255 3512.05,-263.93 3516.38,-258.43"/>
</g>
<!-- node5&#45;&gt;node15 -->
<g id="edge42" class="edge">
<title>node5&#45;&gt;node15</title>
<path fill="none" stroke="red" d="M3400.2,-516C3506.9,-506.85 3624.66,-492.63 3641,-474 3702.45,-403.95 3587.72,-305.05 3524.06,-260.87"/>
<polygon fill="red" stroke="red" points="3525.68,-257.73 3515.44,-255 3521.74,-263.52 3525.68,-257.73"/>
</g>
<!-- node16 -->
<g id="node17" class="node">
<title>node16</title>
<polygon fill="lightgrey" stroke="black" points="3810,-182 3382,-182 3382,-146 3810,-146 3810,-182"/>
<text text-anchor="middle" x="3596" y="-160.3" font-family="Times,serif" font-size="14.00">#16 Invoke interface filter : (Predicate)Stream Order : 16</text>
</g>
<!-- node5&#45;&gt;node16 -->
<g id="edge44" class="edge">
<title>node5&#45;&gt;node16</title>
<path fill="none" stroke="black" d="M3400.24,-518.14C3538.75,-508.01 3707,-489.11 3707,-457 3707,-457 3707,-457 3707,-236 3707,-213.08 3690,-197.23 3669.3,-186.42"/>
<polygon fill="black" stroke="black" points="3670.78,-183.24 3660.25,-182.09 3667.76,-189.56 3670.78,-183.24"/>
<text text-anchor="middle" x="3680.25" y="-178.58" font-family="Times,serif" font-size="14.00">*0</text>
</g>
<!-- node6&#45;&gt;node0 -->
<g id="edge13" class="edge">
<title>node6&#45;&gt;node0</title>
<path fill="none" stroke="fuchsia" stroke-width="2" d="M1081.52,-616.34C1492.5,-632.85 2164.28,-660.03 2409.6,-670.09"/>
<polygon fill="fuchsia" stroke="fuchsia" stroke-width="2" points="2409.77,-673.6 2419.9,-670.52 2410.05,-666.61 2409.77,-673.6"/>
</g>
<!-- node14 -->
<g id="node15" class="node">
<title>node14</title>
<polygon fill="lightgrey" stroke="black" points="2890.5,-328 1883.5,-328 1883.5,-292 2890.5,-292 2890.5,-328"/>
<text text-anchor="middle" x="2387" y="-306.3" font-family="Times,serif" font-size="14.00">#14 Invoke static metafactory : (MethodHandles$Lookup,String,MethodType,MethodType,MethodHandle,MethodType)CallSite Order : 13</text>
</g>
<!-- node6&#45;&gt;node14 -->
<g id="edge36" class="edge">
<title>node6&#45;&gt;node14</title>
<path fill="none" stroke="black" d="M1049.34,-586.61C1265.15,-574.26 1517,-554.58 1517,-530 1517,-530 1517,-530 1517,-382 1517,-357.92 1731.48,-340.25 1947.45,-328.56"/>
<polygon fill="black" stroke="black" points="1947.94,-332.04 1957.73,-328.01 1947.56,-325.05 1947.94,-332.04"/>
<text text-anchor="middle" x="1940.09" y="-333.72" font-family="Times,serif" font-size="14.00">*5</text>
</g>
<!-- node7&#45;&gt;node0 -->
<g id="edge15" class="edge">
<title>node7&#45;&gt;node0</title>
<path fill="none" stroke="fuchsia" stroke-width="2" d="M1978.64,-616.91C2107.17,-630.56 2297.39,-651.08 2409.94,-663.44"/>
<polygon fill="fuchsia" stroke="fuchsia" stroke-width="2" points="2409.59,-666.92 2419.92,-664.54 2410.36,-659.96 2409.59,-666.92"/>
</g>
<!-- node7&#45;&gt;node14 -->
<g id="edge35" class="edge">
<title>node7&#45;&gt;node14</title>
<path fill="none" stroke="black" d="M1949.61,-584.77C2003.98,-573.32 2059,-555.45 2059,-530 2059,-530 2059,-530 2059,-382 2059,-356.87 2096.23,-340.62 2145.61,-330.11"/>
<polygon fill="black" stroke="black" points="2146.53,-333.5 2155.64,-328.08 2145.14,-326.63 2146.53,-333.5"/>
<text text-anchor="middle" x="2139.54" y="-336.26" font-family="Times,serif" font-size="14.00">*4</text>
</g>
<!-- node8&#45;&gt;node0 -->
<g id="edge17" class="edge">
<title>node8&#45;&gt;node0</title>
<path fill="none" stroke="fuchsia" stroke-width="2" d="M2363.15,-620.11C2391.25,-630.11 2425.67,-642.81 2453.37,-653.36"/>
<polygon fill="fuchsia" stroke="fuchsia" stroke-width="2" points="2452.28,-656.69 2462.87,-656.99 2454.78,-650.15 2452.28,-656.69"/>
</g>
<!-- node8&#45;&gt;node14 -->
<g id="edge34" class="edge">
<title>node8&#45;&gt;node14</title>
<path fill="none" stroke="black" d="M2311,-583.78C2311,-569.41 2311,-548.37 2311,-530 2311,-530 2311,-530 2311,-382 2311,-361.7 2325.65,-345.54 2342.09,-333.8"/>
<polygon fill="black" stroke="black" points="2344.36,-336.49 2350.78,-328.06 2340.51,-330.65 2344.36,-336.49"/>
<text text-anchor="middle" x="2340.31" y="-341.4" font-family="Times,serif" font-size="14.00">*3</text>
</g>
<!-- node9&#45;&gt;node0 -->
<g id="edge19" class="edge">
<title>node9&#45;&gt;node0</title>
<path fill="none" stroke="fuchsia" stroke-width="2" d="M2720.62,-620.11C2680.95,-630.49 2628.9,-643.75 2585.63,-654.52"/>
<polygon fill="fuchsia" stroke="fuchsia" stroke-width="2" points="2584.55,-651.19 2575.69,-656.99 2586.24,-657.98 2584.55,-651.19"/>
</g>
<!-- node9&#45;&gt;node14 -->
<g id="edge37" class="edge">
<title>node9&#45;&gt;node14</title>
<path fill="none" stroke="black" d="M2618.92,-589.09C2496.18,-577.84 2349,-558.42 2349,-530 2349,-530 2349,-530 2349,-382 2349,-365.53 2357.05,-349.18 2365.74,-336.33"/>
<polygon fill="black" stroke="black" points="2368.72,-338.18 2371.76,-328.04 2363.05,-334.07 2368.72,-338.18"/>
<text text-anchor="middle" x="2367.95" y="-343.97" font-family="Times,serif" font-size="14.00">*6</text>
</g>
<!-- node10&#45;&gt;node5 -->
<g id="edge21" class="edge">
<title>node10&#45;&gt;node5</title>
<path fill="none" stroke="fuchsia" stroke-width="2" d="M3363.48,-474.11C3339.18,-484.11 3307.12,-496.81 3279.53,-507.36"/>
<polygon fill="fuchsia" stroke="fuchsia" stroke-width="2" points="3278.07,-504.17 3269.97,-510.99 3280.56,-510.71 3278.07,-504.17"/>
</g>
<!-- node10&#45;&gt;node14 -->
<g id="edge31" class="edge">
<title>node10&#45;&gt;node14</title>
<path fill="none" stroke="black" d="M3328.72,-437.97C3222.18,-413.55 3016.41,-369.01 2839,-346 2786.28,-339.16 2729.91,-333.5 2675.49,-328.86"/>
<polygon fill="black" stroke="black" points="2675.61,-325.36 2665.35,-328 2675.03,-332.33 2675.61,-325.36"/>
<text text-anchor="middle" x="2684.13" y="-317.4" font-family="Times,serif" font-size="14.00">*0</text>
</g>
<!-- node11&#45;&gt;node5 -->
<g id="edge23" class="edge">
<title>node11&#45;&gt;node5</title>
<path fill="none" stroke="fuchsia" stroke-width="2" d="M2757.73,-471.3C2850.78,-482.38 2978.5,-497.81 3076.29,-509.77"/>
<polygon fill="fuchsia" stroke="fuchsia" stroke-width="2" points="3075.91,-513.25 3086.26,-510.99 3076.76,-506.3 3075.91,-513.25"/>
</g>
<!-- node13 -->
<g id="node14" class="node">
<title>node13</title>
<polygon fill="lightgrey" stroke="black" points="2890.5,-401 2415.5,-401 2415.5,-365 2890.5,-365 2890.5,-401"/>
<text text-anchor="middle" x="2653" y="-379.3" font-family="Times,serif" font-size="14.00">#13 Invoke static in : (Class)MethodHandles$Lookup Order : 11</text>
</g>
<!-- node11&#45;&gt;node13 -->
<g id="edge28" class="edge">
<title>node11&#45;&gt;node13</title>
<path fill="none" stroke="black" d="M2626.84,-437.81C2627.32,-429.62 2629.55,-419.62 2632.81,-410.48"/>
<polygon fill="black" stroke="black" points="2636.13,-411.61 2636.72,-401.03 2629.66,-408.93 2636.13,-411.61"/>
<text text-anchor="middle" x="2637.6" y="-417.31" font-family="Times,serif" font-size="14.00">*0</text>
</g>
<!-- node11&#45;&gt;node13 -->
<g id="edge29" class="edge">
<title>node11&#45;&gt;node13</title>
<path fill="none" stroke="black" d="M2650.36,-437.81C2654.18,-429.79 2657.26,-420.05 2658.91,-411.07"/>
<polygon fill="black" stroke="black" points="2662.4,-411.39 2660.17,-401.03 2655.45,-410.52 2662.4,-411.39"/>
<text text-anchor="middle" x="2666.31" y="-416.36" font-family="Times,serif" font-size="14.00">*1</text>
</g>
<!-- node12&#45;&gt;node5 -->
<g id="edge25" class="edge">
<title>node12&#45;&gt;node5</title>
<path fill="none" stroke="fuchsia" stroke-width="2" d="M3071.28,-474.11C3101.34,-484.16 3138.28,-496.92 3167.98,-507.5"/>
<polygon fill="fuchsia" stroke="fuchsia" stroke-width="2" points="3167.16,-510.92 3177.76,-510.99 3169.52,-504.33 3167.16,-510.92"/>
</g>
<!-- node12&#45;&gt;node14 -->
<g id="edge33" class="edge">
<title>node12&#45;&gt;node14</title>
<path fill="none" stroke="black" d="M3000.23,-437.94C2979.5,-416.77 2940.91,-381.45 2900,-365 2859.85,-348.85 2776.89,-337.2 2689.18,-328.95"/>
<polygon fill="black" stroke="black" points="2689.3,-325.45 2679.02,-328.01 2688.65,-332.42 2689.3,-325.45"/>
<text text-anchor="middle" x="2697.84" y="-317.56" font-family="Times,serif" font-size="14.00">*2</text>
</g>
<!-- node13&#45;&gt;node11 -->
<g id="edge27" class="edge">
<title>node13&#45;&gt;node11</title>
<path fill="none" stroke="fuchsia" stroke-width="2" d="M2648.44,-401.03C2646.28,-409.12 2643.64,-418.98 2641.21,-428.05"/>
<polygon fill="fuchsia" stroke="fuchsia" stroke-width="2" points="2637.8,-427.25 2638.6,-437.81 2644.57,-429.06 2637.8,-427.25"/>
</g>
<!-- node13&#45;&gt;node14 -->
<g id="edge32" class="edge">
<title>node13&#45;&gt;node14</title>
<path fill="none" stroke="black" d="M2589.29,-364.99C2550.66,-354.68 2501.23,-341.49 2460.9,-330.72"/>
<polygon fill="black" stroke="black" points="2461.68,-327.31 2451.12,-328.11 2459.87,-334.07 2461.68,-327.31"/>
<text text-anchor="middle" x="2470.81" y="-320.92" font-family="Times,serif" font-size="14.00">*1</text>
</g>
<!-- node14&#45;&gt;node0 -->
<g id="edge30" class="edge">
<title>node14&#45;&gt;node0</title>
<path fill="none" stroke="fuchsia" stroke-width="2" d="M2383.09,-328.23C2376.69,-361.28 2368.2,-433.87 2406,-474 2597.58,-677.4 2845.53,-369.83 3025,-584 3035.28,-596.26 3035.82,-608.21 3025,-620 2994,-653.76 2674.81,-650.83 2596.72,-656.77"/>
<polygon fill="fuchsia" stroke="fuchsia" stroke-width="2" points="2595.94,-653.33 2586.34,-657.81 2596.63,-660.3 2595.94,-653.33"/>
</g>
<!-- node14&#45;&gt;node15 -->
<g id="edge39" class="edge">
<title>node14&#45;&gt;node15</title>
<path fill="none" stroke="black" d="M2650.24,-291.99C2844.53,-279.44 3105.07,-262.61 3283.3,-251.1"/>
<polygon fill="black" stroke="black" points="3283.56,-254.59 3293.31,-250.45 3283.11,-247.6 3283.56,-254.59"/>
<text text-anchor="middle" x="3275.77" y="-256.35" font-family="Times,serif" font-size="14.00">*0</text>
</g>
<!-- node15&#45;&gt;node0 -->
<g id="edge38" class="edge">
<title>node15&#45;&gt;node0</title>
<path fill="none" stroke="fuchsia" stroke-width="2" d="M3638.16,-255.05C3694.54,-265.74 3745,-282.66 3745,-309 3745,-603 3745,-603 3745,-603 3745,-699.3 3625.09,-613.73 3529,-620 3366.02,-630.63 3325.19,-632.2 3162,-639 2912.1,-649.41 2845.67,-629.67 2596.41,-656.57"/>
<polygon fill="fuchsia" stroke="fuchsia" stroke-width="2" points="2595.88,-653.11 2586.32,-657.67 2596.64,-660.07 2595.88,-653.11"/>
</g>
<!-- node15&#45;&gt;node16 -->
<g id="edge45" class="edge">
<title>node15&#45;&gt;node16</title>
<path fill="none" stroke="black" d="M3500.87,-218.81C3513.61,-209.31 3531.79,-197.39 3549.01,-187.19"/>
<polygon fill="black" stroke="black" points="3551,-190.08 3557.89,-182.03 3547.49,-184.02 3551,-190.08"/>
<text text-anchor="middle" x="3546.46" y="-194.74" font-family="Times,serif" font-size="14.00">*1</text>
</g>
<!-- node15&#45;&gt;node16 -->
<g id="edge46" class="edge">
<title>node15&#45;&gt;node16</title>
<path fill="none" stroke="red" d="M3512.35,-218.99C3526.93,-209.58 3545.25,-197.76 3561.02,-187.57"/>
<polygon fill="red" stroke="red" points="3562.98,-190.48 3569.49,-182.11 3559.19,-184.6 3562.98,-190.48"/>
</g>
<!-- node15&#45;&gt;node16 -->
<g id="edge47" class="edge">
<title>node15&#45;&gt;node16</title>
<path fill="none" stroke="green" d="M3524.07,-218.99C3540.34,-209.75 3558.6,-198.19 3572.89,-188.14"/>
<polygon fill="green" stroke="green" points="3575.18,-190.81 3581.23,-182.11 3571.07,-185.14 3575.18,-190.81"/>
</g>
<!-- node16&#45;&gt;node0 -->
<g id="edge43" class="edge">
<title>node16&#45;&gt;node0</title>
<path fill="none" stroke="fuchsia" stroke-width="2" d="M3682.38,-182.02C3731.38,-194.23 3783,-212.65 3783,-236 3783,-603 3783,-603 3783,-603 3783,-674.78 3533.65,-634.66 3462,-639 3079.35,-662.16 2978.4,-617.38 2596.54,-656.58"/>
<polygon fill="fuchsia" stroke="fuchsia" stroke-width="2" points="2595.9,-653.13 2586.32,-657.65 2596.62,-660.09 2595.9,-653.13"/>
</g>
<!-- node17 -->
<g id="node18" class="node">
<title>node17</title>
<polygon fill="lightgrey" stroke="black" points="3768,-109 3424,-109 3424,-73 3768,-73 3768,-109"/>
<text text-anchor="middle" x="3596" y="-87.3" font-family="Times,serif" font-size="14.00">#17 Invoke interface count : ()long Order : 17</text>
</g>
<!-- node16&#45;&gt;node17 -->
<g id="edge49" class="edge">
<title>node16&#45;&gt;node17</title>
<path fill="none" stroke="black" d="M3578.37,-145.81C3575.85,-137.79 3575.15,-128.05 3576.27,-119.07"/>
<polygon fill="black" stroke="black" points="3579.74,-119.54 3578.42,-109.03 3572.9,-118.07 3579.74,-119.54"/>
<text text-anchor="middle" x="3582.89" y="-124.82" font-family="Times,serif" font-size="14.00">*0</text>
</g>
<!-- node16&#45;&gt;node17 -->
<g id="edge50" class="edge">
<title>node16&#45;&gt;node17</title>
<path fill="none" stroke="red" d="M3601.88,-145.81C3602.72,-137.79 3602.95,-128.05 3602.58,-119.07"/>
<polygon fill="red" stroke="red" points="3606.06,-118.75 3601.86,-109.03 3599.08,-119.25 3606.06,-118.75"/>
</g>
<!-- node16&#45;&gt;node17 -->
<g id="edge51" class="edge">
<title>node16&#45;&gt;node17</title>
<path fill="none" stroke="green" d="M3613.63,-145.81C3616.15,-137.79 3616.85,-128.05 3615.73,-119.07"/>
<polygon fill="green" stroke="green" points="3619.1,-118.07 3613.58,-109.03 3612.26,-119.54 3619.1,-118.07"/>
</g>
<!-- node17&#45;&gt;node16 -->
<g id="edge48" class="edge">
<title>node17&#45;&gt;node16</title>
<path fill="none" stroke="fuchsia" stroke-width="2" d="M3590.14,-109.03C3589.29,-117.03 3589.05,-126.77 3589.41,-135.75"/>
<polygon fill="fuchsia" stroke="fuchsia" stroke-width="2" points="3585.93,-136.08 3590.12,-145.81 3592.91,-135.59 3585.93,-136.08"/>
</g>
<!-- node18 -->
<g id="node19" class="node">
<title>node18</title>
<polygon fill="lightgrey" stroke="black" points="3727,-36 3465,-36 3465,0 3727,0 3727,-36"/>
<text text-anchor="middle" x="3596" y="-14.3" font-family="Times,serif" font-size="14.00">#18 ReturnValue : long Order : 18</text>
</g>
<!-- node17&#45;&gt;node18 -->
<g id="edge53" class="edge">
<title>node17&#45;&gt;node18</title>
<path fill="none" stroke="black" d="M3578.37,-72.81C3575.85,-64.79 3575.15,-55.05 3576.27,-46.07"/>
<polygon fill="black" stroke="black" points="3579.74,-46.54 3578.42,-36.03 3572.9,-45.07 3579.74,-46.54"/>
<text text-anchor="middle" x="3582.89" y="-51.82" font-family="Times,serif" font-size="14.00">*0</text>
</g>
<!-- node17&#45;&gt;node18 -->
<g id="edge54" class="edge">
<title>node17&#45;&gt;node18</title>
<path fill="none" stroke="red" d="M3601.88,-72.81C3602.72,-64.79 3602.95,-55.05 3602.58,-46.07"/>
<polygon fill="red" stroke="red" points="3606.06,-45.75 3601.86,-36.03 3599.08,-46.25 3606.06,-45.75"/>
</g>
<!-- node17&#45;&gt;node18 -->
<g id="edge55" class="edge">
<title>node17&#45;&gt;node18</title>
<path fill="none" stroke="green" d="M3613.63,-72.81C3616.15,-64.79 3616.85,-55.05 3615.73,-46.07"/>
<polygon fill="green" stroke="green" points="3619.1,-45.07 3613.58,-36.03 3612.26,-46.54 3619.1,-45.07"/>
</g>
<!-- node18&#45;&gt;node17 -->
<g id="edge52" class="edge">
<title>node18&#45;&gt;node17</title>
<path fill="none" stroke="fuchsia" stroke-width="2" d="M3590.14,-36.03C3589.29,-44.03 3589.05,-53.77 3589.41,-62.75"/>
<polygon fill="fuchsia" stroke="fuchsia" stroke-width="2" points="3585.93,-63.08 3590.12,-72.81 3592.91,-62.59 3585.93,-63.08"/>
</g>
<!-- c0 -->
<!-- c1 -->
<!-- c0&#45;&gt;c1 -->
<g id="edge56" class="edge">
<title>c0&#45;&gt;c1</title>
<path fill="none" stroke="red" d="M3454.89,-675C3466.11,-675 3524.24,-675 3549.86,-675"/>
<polygon fill="red" stroke="red" points="3550.06,-678.5 3560.06,-675 3550.06,-671.5 3550.06,-678.5"/>
<text text-anchor="middle" x="3507.5" y="-681.8" font-family="Times,serif" font-size="14.00">Control flow</text>
</g>
<!-- c2 -->
<!-- c3 -->
<!-- c2&#45;&gt;c3 -->
<g id="edge57" class="edge">
<title>c2&#45;&gt;c3</title>
<path fill="none" stroke="red" stroke-dasharray="5,2" d="M3248.08,-675C3265.05,-675 3381.21,-675 3419.08,-675"/>
<polygon fill="red" stroke="red" points="3419.17,-678.5 3429.17,-675 3419.17,-671.5 3419.17,-678.5"/>
<text text-anchor="middle" x="3338.5" y="-681.8" font-family="Times,serif" font-size="14.00">Control flow back edge</text>
</g>
<!-- d0 -->
<!-- d1 -->
<!-- d0&#45;&gt;d1 -->
<g id="edge58" class="edge">
<title>d0&#45;&gt;d1</title>
<path fill="none" stroke="black" d="M3136.86,-675C3146.41,-675 3190.31,-675 3211.92,-675"/>
<polygon fill="black" stroke="black" points="3212.15,-678.5 3222.15,-675 3212.15,-671.5 3212.15,-678.5"/>
<text text-anchor="middle" x="3179.5" y="-681.8" font-family="Times,serif" font-size="14.00">Data flow</text>
</g>
<!-- d2 -->
<!-- d3 -->
<!-- d2&#45;&gt;d3 -->
<g id="edge59" class="edge">
<title>d2&#45;&gt;d3</title>
<path fill="none" stroke="black" stroke-dasharray="1,5" d="M3010.81,-675C3021.46,-675 3076.46,-675 3101.08,-675"/>
<polygon fill="black" stroke="black" points="3101.15,-678.5 3111.15,-675 3101.15,-671.5 3101.15,-678.5"/>
<text text-anchor="middle" x="3061" y="-681.8" font-family="Times,serif" font-size="14.00">Declaration</text>
</g>
<!-- d4 -->
<!-- d5 -->
<!-- d4&#45;&gt;d5 -->
<g id="edge60" class="edge">
<title>d4&#45;&gt;d5</title>
<path fill="none" stroke="blue" d="M2868.1,-675C2880.72,-675 2946.88,-675 2974.68,-675"/>
<polygon fill="blue" stroke="blue" points="2974.84,-678.5 2984.84,-675 2974.84,-671.5 2974.84,-678.5"/>
<text text-anchor="middle" x="2926.5" y="-681.8" font-family="Times,serif" font-size="14.00">PHI Data flow</text>
</g>
<!-- d6 -->
<!-- d7 -->
<!-- d6&#45;&gt;d7 -->
<g id="edge61" class="edge">
<title>d6&#45;&gt;d7</title>
<path fill="none" stroke="green" d="M2731,-675C2742.94,-675 2805.3,-675 2831.93,-675"/>
<polygon fill="green" stroke="green" points="2831.95,-678.5 2841.95,-675 2831.95,-671.5 2831.95,-678.5"/>
<text text-anchor="middle" x="2786.5" y="-681.8" font-family="Times,serif" font-size="14.00">Memory flow</text>
</g>
<!-- d8 -->
<!-- d9 -->
<!-- d8&#45;&gt;d9 -->
<g id="edge62" class="edge">
<title>d8&#45;&gt;d9</title>
<path fill="none" stroke="fuchsia" d="M2608.11,-675C2619.15,-675 2670.67,-675 2694.66,-675"/>
<polygon fill="fuchsia" stroke="fuchsia" points="2694.9,-678.5 2704.9,-675 2694.9,-671.5 2694.9,-678.5"/>
<text text-anchor="middle" x="2656.5" y="-681.8" font-family="Times,serif" font-size="14.00">Dominance</text>
</g>
</g>
</svg>
