<?xml version="1.0" encoding="UTF-8" standalone="no"?>
<!DOCTYPE svg PUBLIC "-//W3C//DTD SVG 1.1//EN"
 "http://www.w3.org/Graphics/SVG/1.1/DTD/svg11.dtd">
<!-- Generated by graphviz version 2.43.0 (0)
 -->
<!-- Title: debugoutput Pages: 1 -->
<svg width="4859pt" height="578pt"
 viewBox="0.00 0.00 4859.48 577.80" xmlns="http://www.w3.org/2000/svg" xmlns:xlink="http://www.w3.org/1999/xlink">
<g id="graph0" class="graph" transform="scale(1 1) rotate(0) translate(4 573.8)">
<title>debugoutput</title>
<polygon fill="white" stroke="transparent" points="-4,4 -4,-573.8 4855.48,-573.8 4855.48,4 -4,4"/>
<g id="clust1" class="cluster">
<title>cluster_000</title>
<polygon fill="none" stroke="black" points="2175.48,-519.2 2175.48,-561.8 3014.48,-561.8 3014.48,-519.2 2175.48,-519.2"/>
<text text-anchor="middle" x="2594.98" y="-546.6" font-family="Times,serif" font-size="14.00">Legend</text>
</g>
<!-- node0 -->
<g id="node1" class="node">
<title>node0</title>
<polygon fill="lightgrey" stroke="black" points="2165.48,-547 1999.48,-547 1999.48,-511 2165.48,-511 2165.48,-547"/>
<text text-anchor="middle" x="2082.48" y="-525.3" font-family="Times,serif" font-size="14.00">#0 Method Order : 0</text>
</g>
<!-- node1 -->
<g id="node2" class="node">
<title>node1</title>
<polygon fill="lightgrey" stroke="black" points="228.48,-474 34.48,-474 34.48,-438 228.48,-438 228.48,-474"/>
<text text-anchor="middle" x="131.48" y="-452.3" font-family="Times,serif" font-size="14.00">#1 arg0 : List Order : 13</text>
</g>
<!-- node0&#45;&gt;node1 -->
<g id="edge2" class="edge">
<title>node0&#45;&gt;node1</title>
<path fill="none" stroke="black" d="M1999.17,-526.73C1776.51,-523.09 1149.48,-511.68 628.48,-493 454,-486.74 407.28,-492.13 238.19,-474.99"/>
<polygon fill="black" stroke="black" points="238.51,-471.51 228.2,-473.97 237.79,-478.47 238.51,-471.51"/>
<text text-anchor="middle" x="247.1" y="-463.71" font-family="Times,serif" font-size="14.00">*0</text>
</g>
<!-- node2 -->
<g id="node3" class="node">
<title>node2</title>
<polygon fill="lightgrey" stroke="black" points="648.48,-474 462.48,-474 462.48,-438 648.48,-438 648.48,-474"/>
<text text-anchor="middle" x="555.48" y="-452.3" font-family="Times,serif" font-size="14.00">#2 arg1 : int Order : 12</text>
</g>
<!-- node0&#45;&gt;node2 -->
<g id="edge4" class="edge">
<title>node0&#45;&gt;node2</title>
<path fill="none" stroke="black" d="M1999.31,-527.43C1713.92,-525.23 785.23,-516.24 653.48,-493 634.93,-489.73 615.22,-483.84 598.32,-477.75"/>
<polygon fill="black" stroke="black" points="599.31,-474.39 588.72,-474.17 596.86,-480.95 599.31,-474.39"/>
<text text-anchor="middle" x="608.66" y="-468.89" font-family="Times,serif" font-size="14.00">*0</text>
</g>
<!-- node3 -->
<g id="node4" class="node">
<title>node3</title>
<polygon fill="lightgrey" stroke="black" points="4851.48,-474 4551.48,-474 4551.48,-438 4851.48,-438 4851.48,-474"/>
<text text-anchor="middle" x="4701.48" y="-452.3" font-family="Times,serif" font-size="14.00">#3 this : InvokeDynamicTest Order : 11</text>
</g>
<!-- node0&#45;&gt;node3 -->
<g id="edge6" class="edge">
<title>node0&#45;&gt;node3</title>
<path fill="none" stroke="black" d="M2162.87,-510.96C2425.91,-485.27 4267.35,-522.33 4528.48,-493 4558.67,-489.61 4591.46,-483.01 4620.33,-476.38"/>
<polygon fill="black" stroke="black" points="4621.43,-479.72 4630.37,-474.04 4619.84,-472.91 4621.43,-479.72"/>
<text text-anchor="middle" x="4614.64" y="-482.69" font-family="Times,serif" font-size="14.00">*0</text>
</g>
<!-- node4 -->
<g id="node5" class="node">
<title>node4</title>
<polygon fill="lightgrey" stroke="black" points="443.98,-474 246.98,-474 246.98,-438 443.98,-438 443.98,-474"/>
<text text-anchor="middle" x="345.48" y="-452.3" font-family="Times,serif" font-size="14.00">#4 LabelNode Order : 10</text>
</g>
<!-- node0&#45;&gt;node4 -->
<g id="edge8" class="edge">
<title>node0&#45;&gt;node4</title>
<path fill="none" stroke="red" d="M1999.35,-527.97C1778.71,-527.46 1160.45,-523.27 647.48,-493 560.47,-487.87 536.22,-485.46 454.22,-475.22"/>
<polygon fill="red" stroke="red" points="454.56,-471.73 444.2,-473.96 453.69,-478.68 454.56,-471.73"/>
</g>
<!-- node5 -->
<g id="node6" class="node">
<title>node5</title>
<polygon fill="lightgrey" stroke="black" points="524.98,-401 157.98,-401 157.98,-365 524.98,-365 524.98,-401"/>
<text text-anchor="middle" x="341.48" y="-379.3" font-family="Times,serif" font-size="14.00">#5 Invoke interface stream : ()Stream Order : 14</text>
</g>
<!-- node0&#45;&gt;node5 -->
<g id="edge12" class="edge">
<title>node0&#45;&gt;node5</title>
<path fill="none" stroke="black" d="M1999.22,-527.41C1617.4,-524.49 51.46,-510.13 16.48,-474 -36.17,-419.62 50.66,-397.43 147.77,-388.68"/>
<polygon fill="black" stroke="black" points="148.14,-392.16 157.81,-387.82 147.55,-385.18 148.14,-392.16"/>
</g>
<!-- node10 -->
<g id="node12" class="node">
<title>node10</title>
<polygon fill="lightgreen" stroke="black" points="1838.52,-448.54 1838.52,-463.46 1517.49,-474 1063.47,-474 742.44,-463.46 742.44,-448.54 1063.47,-438 1517.49,-438 1838.52,-448.54"/>
<text text-anchor="middle" x="1290.48" y="-452.3" font-family="Times,serif" font-size="14.00">#10 MethodHandle : invokeStatic : InvokeDynamicTest.lambda$countList$0 (int,Integer)boolean Order : 8</text>
</g>
<!-- node0&#45;&gt;node10 -->
<g id="edge32" class="edge">
<title>node0&#45;&gt;node10</title>
<path fill="none" stroke="black" stroke-dasharray="1,5" d="M1999.4,-520.93C1878.27,-510.31 1649.8,-489.88 1484.9,-474.96"/>
<polygon fill="black" stroke="black" points="1484.9,-471.45 1474.63,-474.03 1484.27,-478.42 1484.9,-471.45"/>
</g>
<!-- node11 -->
<g id="node13" class="node">
<title>node11</title>
<polygon fill="lightgreen" stroke="black" points="2308.12,-448.54 2308.12,-463.46 2175.95,-474 1989.02,-474 1856.84,-463.46 1856.84,-448.54 1989.02,-438 2175.95,-438 2308.12,-448.54"/>
<text text-anchor="middle" x="2082.48" y="-452.3" font-family="Times,serif" font-size="14.00">#11 MethodType : (int)Predicate Order : 7</text>
</g>
<!-- node0&#45;&gt;node11 -->
<g id="edge34" class="edge">
<title>node0&#45;&gt;node11</title>
<path fill="none" stroke="black" stroke-dasharray="1,5" d="M2076.6,-510.81C2075.76,-502.79 2075.53,-493.05 2075.9,-484.07"/>
<polygon fill="black" stroke="black" points="2079.4,-484.25 2076.62,-474.03 2072.42,-483.75 2079.4,-484.25"/>
</g>
<!-- node12 -->
<g id="node14" class="node">
<title>node12</title>
<polygon fill="lightgreen" stroke="black" points="2797.32,-448.54 2797.32,-463.46 2659.17,-474 2463.79,-474 2325.64,-463.46 2325.64,-448.54 2463.79,-438 2659.17,-438 2797.32,-448.54"/>
<text text-anchor="middle" x="2561.48" y="-452.3" font-family="Times,serif" font-size="14.00">#12 MethodType : (Object)boolean Order : 6</text>
</g>
<!-- node0&#45;&gt;node12 -->
<g id="edge36" class="edge">
<title>node0&#45;&gt;node12</title>
<path fill="none" stroke="black" stroke-dasharray="1,5" d="M2162.73,-510.96C2249.53,-496.67 2347.58,-483.11 2424.77,-473.16"/>
<polygon fill="black" stroke="black" points="2425.56,-476.59 2435.03,-471.84 2424.67,-469.64 2425.56,-476.59"/>
</g>
<!-- node13 -->
<g id="node15" class="node">
<title>node13</title>
<polygon fill="lightgreen" stroke="black" points="3295.26,-448.54 3295.26,-463.46 3154.8,-474 2956.16,-474 2815.7,-463.46 2815.7,-448.54 2956.16,-438 3154.8,-438 3295.26,-448.54"/>
<text text-anchor="middle" x="3055.48" y="-452.3" font-family="Times,serif" font-size="14.00">#13 MethodType : (Integer)boolean Order : 5</text>
</g>
<!-- node0&#45;&gt;node13 -->
<g id="edge38" class="edge">
<title>node0&#45;&gt;node13</title>
<path fill="none" stroke="black" stroke-dasharray="1,5" d="M2162.89,-510.95C2443.1,-476.2 2515.48,-491.84 2797.48,-474 2821.63,-472.47 2847.09,-470.8 2872.23,-469.12"/>
<polygon fill="black" stroke="black" points="2872.48,-472.62 2882.22,-468.46 2872.01,-465.63 2872.48,-472.62"/>
</g>
<!-- node14 -->
<g id="node16" class="node">
<title>node14</title>
<polygon fill="lightgreen" stroke="black" points="3745.43,-448.54 3745.43,-463.46 3618.93,-474 3440.03,-474 3313.54,-463.46 3313.54,-448.54 3440.03,-438 3618.93,-438 3745.43,-448.54"/>
<text text-anchor="middle" x="3529.48" y="-452.3" font-family="Times,serif" font-size="14.00">#14 Class LambdaMetafactory Order : 4</text>
</g>
<!-- node0&#45;&gt;node14 -->
<g id="edge40" class="edge">
<title>node0&#45;&gt;node14</title>
<path fill="none" stroke="black" stroke-dasharray="1,5" d="M2162.85,-510.96C2413.47,-483.18 3044.06,-487.6 3295.48,-474 3318.5,-472.76 3342.82,-471.18 3366.75,-469.5"/>
<polygon fill="black" stroke="black" points="3367.24,-472.98 3376.97,-468.78 3366.75,-465.99 3367.24,-472.98"/>
</g>
<!-- node15 -->
<g id="node17" class="node">
<title>node15</title>
<polygon fill="lightgreen" stroke="black" points="4187.89,-448.54 4187.89,-463.46 4063.46,-474 3887.5,-474 3763.07,-463.46 3763.07,-448.54 3887.5,-438 4063.46,-438 4187.89,-448.54"/>
<text text-anchor="middle" x="3975.48" y="-452.3" font-family="Times,serif" font-size="14.00">#15 Class InvokeDynamicTest Order : 2</text>
</g>
<!-- node0&#45;&gt;node15 -->
<g id="edge42" class="edge">
<title>node0&#45;&gt;node15</title>
<path fill="none" stroke="black" stroke-dasharray="1,5" d="M2162.74,-510.97C2338.63,-492.37 3569.85,-482.8 3745.48,-474 3768.52,-472.85 3792.88,-471.3 3816.8,-469.61"/>
<polygon fill="black" stroke="black" points="3817.3,-473.08 3827.02,-468.88 3816.8,-466.1 3817.3,-473.08"/>
</g>
<!-- node18 -->
<g id="node19" class="node">
<title>node18</title>
<polygon fill="lightgreen" stroke="black" points="4495.32,-448.54 4495.32,-463.46 4410.48,-474 4290.49,-474 4205.64,-463.46 4205.64,-448.54 4290.49,-438 4410.48,-438 4495.32,-448.54"/>
<text text-anchor="middle" x="4350.48" y="-452.3" font-family="Times,serif" font-size="14.00">#18 String : test Order : 1</text>
</g>
<!-- node0&#45;&gt;node18 -->
<g id="edge55" class="edge">
<title>node0&#45;&gt;node18</title>
<path fill="none" stroke="black" stroke-dasharray="1,5" d="M2162.81,-510.97C2387.85,-487.75 3963.02,-488.41 4187.48,-474 4203.6,-472.97 4220.62,-471.48 4237.37,-469.81"/>
<polygon fill="black" stroke="black" points="4238.15,-473.25 4247.74,-468.76 4237.44,-466.29 4238.15,-473.25"/>
</g>
<!-- node1&#45;&gt;node0 -->
<g id="edge1" class="edge">
<title>node1&#45;&gt;node0</title>
<path fill="none" stroke="green" stroke-width="2" d="M228.57,-471.9C234.63,-472.68 240.64,-473.39 246.48,-474 423.51,-492.34 468.62,-486.62 646.48,-493 1153.11,-511.17 1760,-522.46 1988.99,-526.41"/>
<polygon fill="green" stroke="green" stroke-width="2" points="1989.22,-529.92 1999.28,-526.59 1989.34,-522.92 1989.22,-529.92"/>
</g>
<!-- node1&#45;&gt;node5 -->
<g id="edge10" class="edge">
<title>node1&#45;&gt;node5</title>
<path fill="none" stroke="black" d="M181.78,-437.99C211.69,-427.88 249.82,-414.99 281.32,-404.34"/>
<polygon fill="black" stroke="black" points="282.51,-407.63 290.86,-401.11 280.27,-401 282.51,-407.63"/>
<text text-anchor="middle" x="276.4" y="-411.23" font-family="Times,serif" font-size="14.00">*0</text>
</g>
<!-- node2&#45;&gt;node0 -->
<g id="edge3" class="edge">
<title>node2&#45;&gt;node0</title>
<path fill="none" stroke="green" stroke-width="2" d="M604.82,-474.07C625.23,-481.36 649.19,-489.07 671.48,-493 800.56,-515.77 1694.62,-524.86 1988.87,-527.29"/>
<polygon fill="green" stroke="green" stroke-width="2" points="1989.06,-530.79 1999.09,-527.37 1989.12,-523.79 1989.06,-530.79"/>
</g>
<!-- node6 -->
<g id="node7" class="node">
<title>node6</title>
<polygon fill="lightgrey" stroke="black" points="745.48,-255 369.48,-255 369.48,-219 745.48,-219 745.48,-255"/>
<text text-anchor="middle" x="557.48" y="-233.3" font-family="Times,serif" font-size="14.00">#6 Invoke dynamic test : (int)Predicate Order : 15</text>
</g>
<!-- node2&#45;&gt;node6 -->
<g id="edge15" class="edge">
<title>node2&#45;&gt;node6</title>
<path fill="none" stroke="black" d="M555.64,-437.97C555.98,-400.51 556.81,-310.68 557.23,-265.26"/>
<polygon fill="black" stroke="black" points="560.73,-265.28 557.32,-255.25 553.73,-265.22 560.73,-265.28"/>
<text text-anchor="middle" x="565.61" y="-269.75" font-family="Times,serif" font-size="14.00">*1</text>
</g>
<!-- node3&#45;&gt;node0 -->
<g id="edge5" class="edge">
<title>node3&#45;&gt;node0</title>
<path fill="none" stroke="green" stroke-width="2" d="M4646.67,-474.04C4617.22,-481.41 4580.23,-489.21 4546.48,-493 4285.23,-522.34 2442.11,-485.23 2180.48,-511 2178.96,-511.15 2177.44,-511.31 2175.9,-511.49"/>
<polygon fill="green" stroke="green" stroke-width="2" points="2175.1,-508.06 2165.62,-512.8 2175.98,-515 2175.1,-508.06"/>
</g>
<!-- node4&#45;&gt;node0 -->
<g id="edge7" class="edge">
<title>node4&#45;&gt;node0</title>
<path fill="none" stroke="green" stroke-width="2" d="M444.27,-471.58C450.44,-472.44 456.55,-473.26 462.48,-474 552.39,-485.27 575.02,-487.66 665.48,-493 1163.99,-522.41 1761.94,-527.2 1988.96,-527.91"/>
<polygon fill="green" stroke="green" stroke-width="2" points="1989.15,-531.41 1999.16,-527.94 1989.17,-524.41 1989.15,-531.41"/>
</g>
<!-- node4&#45;&gt;node5 -->
<g id="edge11" class="edge">
<title>node4&#45;&gt;node5</title>
<path fill="none" stroke="red" d="M344.51,-437.81C344.06,-429.79 343.51,-420.05 343.01,-411.07"/>
<polygon fill="red" stroke="red" points="346.5,-410.82 342.44,-401.03 339.51,-411.21 346.5,-410.82"/>
</g>
<!-- node5&#45;&gt;node0 -->
<g id="edge9" class="edge">
<title>node5&#45;&gt;node0</title>
<path fill="none" stroke="green" stroke-width="2" d="M157.78,-389.2C65.35,-398.3 -17.15,-420.67 34.48,-474 68.98,-509.64 1592.66,-524.09 1989.06,-527.29"/>
<polygon fill="green" stroke="green" stroke-width="2" points="1989.3,-530.79 1999.33,-527.37 1989.36,-523.79 1989.3,-530.79"/>
</g>
<!-- node5&#45;&gt;node6 -->
<g id="edge16" class="edge">
<title>node5&#45;&gt;node6</title>
<path fill="none" stroke="black" d="M362.55,-364.92C398.78,-338.93 472.82,-289.46 518.58,-260.56"/>
<polygon fill="black" stroke="black" points="520.73,-263.34 527.34,-255.06 517.01,-257.41 520.73,-263.34"/>
</g>
<!-- node5&#45;&gt;node6 -->
<g id="edge17" class="edge">
<title>node5&#45;&gt;node6</title>
<path fill="none" stroke="red" d="M371.66,-364.92C413.21,-339.04 487.14,-289.87 528.2,-260.92"/>
<polygon fill="red" stroke="red" points="530.32,-263.71 536.44,-255.06 526.26,-258 530.32,-263.71"/>
</g>
<!-- node7 -->
<g id="node9" class="node">
<title>node7</title>
<polygon fill="lightgrey" stroke="black" points="766.98,-182 347.98,-182 347.98,-146 766.98,-146 766.98,-182"/>
<text text-anchor="middle" x="557.48" y="-160.3" font-family="Times,serif" font-size="14.00">#7 Invoke interface filter : (Predicate)Stream Order : 16</text>
</g>
<!-- node5&#45;&gt;node7 -->
<g id="edge19" class="edge">
<title>node5&#45;&gt;node7</title>
<path fill="none" stroke="black" d="M337.86,-364.82C332.05,-332.18 324.65,-260.71 360.48,-219 372.68,-204.8 408.31,-193.13 445.99,-184.32"/>
<polygon fill="black" stroke="black" points="447.14,-187.64 456.12,-182.02 445.59,-180.82 447.14,-187.64"/>
<text text-anchor="middle" x="440.31" y="-190.57" font-family="Times,serif" font-size="14.00">*0</text>
</g>
<!-- node6&#45;&gt;node0 -->
<g id="edge13" class="edge">
<title>node6&#45;&gt;node0</title>
<path fill="none" stroke="green" stroke-width="2" d="M629.45,-255.12C654.51,-265.71 676.48,-282.54 676.48,-309 676.48,-457 676.48,-457 676.48,-457 676.48,-517.81 748.12,-485.65 808.48,-493 1036.9,-520.83 1735.13,-526.54 1988.97,-527.71"/>
<polygon fill="green" stroke="green" stroke-width="2" points="1989.25,-531.21 1999.27,-527.75 1989.29,-524.21 1989.25,-531.21"/>
</g>
<!-- node6&#45;&gt;node7 -->
<g id="edge20" class="edge">
<title>node6&#45;&gt;node7</title>
<path fill="none" stroke="black" d="M545.72,-218.81C544.05,-210.79 543.58,-201.05 544.33,-192.07"/>
<polygon fill="black" stroke="black" points="547.81,-192.42 545.76,-182.03 540.88,-191.43 547.81,-192.42"/>
<text text-anchor="middle" x="551.57" y="-197.47" font-family="Times,serif" font-size="14.00">*1</text>
</g>
<!-- node6&#45;&gt;node7 -->
<g id="edge21" class="edge">
<title>node6&#45;&gt;node7</title>
<path fill="none" stroke="red" d="M557.48,-218.81C557.48,-210.79 557.48,-201.05 557.48,-192.07"/>
<polygon fill="red" stroke="red" points="560.98,-192.03 557.48,-182.03 553.98,-192.03 560.98,-192.03"/>
</g>
<!-- node6&#45;&gt;node7 -->
<g id="edge22" class="edge">
<title>node6&#45;&gt;node7</title>
<path fill="none" stroke="black" d="M569.24,-218.81C570.92,-210.79 571.38,-201.05 570.64,-192.07"/>
<polygon fill="black" stroke="black" points="574.08,-191.43 569.2,-182.03 567.15,-192.42 574.08,-191.43"/>
</g>
<!-- node17 -->
<g id="node8" class="node">
<title>node17</title>
<polygon fill="lightgrey" stroke="black" points="3060.48,-328 2062.48,-328 2062.48,-292 3060.48,-292 3060.48,-328"/>
<text text-anchor="middle" x="2561.48" y="-306.3" font-family="Times,serif" font-size="14.00">#17 Invoke static metafactory : (MethodHandles$Lookup,String,MethodType,MethodType,MethodHandle,MethodType)CallSite Order : 9</text>
</g>
<!-- node17&#45;&gt;node0 -->
<g id="edge46" class="edge">
<title>node17&#45;&gt;node0</title>
<path fill="none" stroke="green" stroke-width="2" d="M2087.49,-328C1561.28,-349.24 779.31,-388.85 733.48,-438 722.57,-449.7 722.4,-462.46 733.48,-474 776.91,-519.21 1690.09,-526.57 1988.82,-527.77"/>
<polygon fill="green" stroke="green" stroke-width="2" points="1989.17,-531.27 1999.18,-527.81 1989.2,-524.27 1989.17,-531.27"/>
</g>
<!-- node17&#45;&gt;node6 -->
<g id="edge14" class="edge">
<title>node17&#45;&gt;node6</title>
<path fill="none" stroke="black" d="M2081.47,-291.99C1657.99,-276.99 1061.92,-255.87 755.89,-245.03"/>
<polygon fill="black" stroke="black" points="755.69,-241.52 745.57,-244.66 755.44,-248.52 755.69,-241.52"/>
<text text-anchor="middle" x="763.99" y="-233.16" font-family="Times,serif" font-size="14.00">*0</text>
</g>
<!-- node7&#45;&gt;node0 -->
<g id="edge18" class="edge">
<title>node7&#45;&gt;node0</title>
<path fill="none" stroke="green" stroke-width="2" d="M767.21,-165.99C1586.16,-170.2 4523.48,-188.59 4523.48,-236 4523.48,-457 4523.48,-457 4523.48,-457 4523.48,-468.33 4515.03,-469.87 4504.48,-474 4386.12,-520.3 2381.06,-498.65 2175.88,-510.86"/>
<polygon fill="green" stroke="green" stroke-width="2" points="2175.5,-507.38 2165.8,-511.63 2176.03,-514.36 2175.5,-507.38"/>
</g>
<!-- node8 -->
<g id="node10" class="node">
<title>node8</title>
<polygon fill="lightgrey" stroke="black" points="724.98,-109 389.98,-109 389.98,-73 724.98,-73 724.98,-109"/>
<text text-anchor="middle" x="557.48" y="-87.3" font-family="Times,serif" font-size="14.00">#8 Invoke interface count : ()long Order : 17</text>
</g>
<!-- node7&#45;&gt;node8 -->
<g id="edge24" class="edge">
<title>node7&#45;&gt;node8</title>
<path fill="none" stroke="black" d="M539.85,-145.81C537.33,-137.79 536.63,-128.05 537.75,-119.07"/>
<polygon fill="black" stroke="black" points="541.23,-119.54 539.9,-109.03 534.38,-118.07 541.23,-119.54"/>
<text text-anchor="middle" x="544.37" y="-124.82" font-family="Times,serif" font-size="14.00">*0</text>
</g>
<!-- node7&#45;&gt;node8 -->
<g id="edge25" class="edge">
<title>node7&#45;&gt;node8</title>
<path fill="none" stroke="red" d="M563.36,-145.81C564.2,-137.79 564.43,-128.05 564.06,-119.07"/>
<polygon fill="red" stroke="red" points="567.55,-118.75 563.34,-109.03 560.56,-119.25 567.55,-118.75"/>
</g>
<!-- node7&#45;&gt;node8 -->
<g id="edge26" class="edge">
<title>node7&#45;&gt;node8</title>
<path fill="none" stroke="black" d="M575.12,-145.81C577.63,-137.79 578.33,-128.05 577.21,-119.07"/>
<polygon fill="black" stroke="black" points="580.58,-118.07 575.07,-109.03 573.74,-119.54 580.58,-118.07"/>
</g>
<!-- node8&#45;&gt;node7 -->
<g id="edge23" class="edge">
<title>node8&#45;&gt;node7</title>
<path fill="none" stroke="green" stroke-width="2" d="M551.62,-109.03C550.77,-117.03 550.53,-126.77 550.9,-135.75"/>
<polygon fill="green" stroke="green" stroke-width="2" points="547.41,-136.08 551.6,-145.81 554.39,-135.59 547.41,-136.08"/>
</g>
<!-- node9 -->
<g id="node11" class="node">
<title>node9</title>
<polygon fill="lightgrey" stroke="black" points="683.98,-36 430.98,-36 430.98,0 683.98,0 683.98,-36"/>
<text text-anchor="middle" x="557.48" y="-14.3" font-family="Times,serif" font-size="14.00">#9 ReturnValue : long Order : 18</text>
</g>
<!-- node8&#45;&gt;node9 -->
<g id="edge28" class="edge">
<title>node8&#45;&gt;node9</title>
<path fill="none" stroke="black" d="M539.85,-72.81C537.33,-64.79 536.63,-55.05 537.75,-46.07"/>
<polygon fill="black" stroke="black" points="541.23,-46.54 539.9,-36.03 534.38,-45.07 541.23,-46.54"/>
<text text-anchor="middle" x="544.37" y="-51.82" font-family="Times,serif" font-size="14.00">*0</text>
</g>
<!-- node8&#45;&gt;node9 -->
<g id="edge29" class="edge">
<title>node8&#45;&gt;node9</title>
<path fill="none" stroke="red" d="M563.36,-72.81C564.2,-64.79 564.43,-55.05 564.06,-46.07"/>
<polygon fill="red" stroke="red" points="567.55,-45.75 563.34,-36.03 560.56,-46.25 567.55,-45.75"/>
</g>
<!-- node8&#45;&gt;node9 -->
<g id="edge30" class="edge">
<title>node8&#45;&gt;node9</title>
<path fill="none" stroke="black" d="M575.12,-72.81C577.63,-64.79 578.33,-55.05 577.21,-46.07"/>
<polygon fill="black" stroke="black" points="580.58,-45.07 575.07,-36.03 573.74,-46.54 580.58,-45.07"/>
</g>
<!-- node9&#45;&gt;node8 -->
<g id="edge27" class="edge">
<title>node9&#45;&gt;node8</title>
<path fill="none" stroke="green" stroke-width="2" d="M551.62,-36.03C550.77,-44.03 550.53,-53.77 550.9,-62.75"/>
<polygon fill="green" stroke="green" stroke-width="2" points="547.41,-63.08 551.6,-72.81 554.39,-62.59 547.41,-63.08"/>
</g>
<!-- node10&#45;&gt;node0 -->
<g id="edge31" class="edge">
<title>node10&#45;&gt;node0</title>
<path fill="none" stroke="green" stroke-width="2" d="M1486.36,-474.03C1646.52,-488.26 1865.91,-507.96 1988.98,-519.2"/>
<polygon fill="green" stroke="green" stroke-width="2" points="1988.85,-522.71 1999.13,-520.13 1989.49,-515.73 1988.85,-522.71"/>
</g>
<!-- node10&#45;&gt;node17 -->
<g id="edge52" class="edge">
<title>node10&#45;&gt;node17</title>
<path fill="none" stroke="black" d="M1440.64,-437.99C1681.83,-410.66 2153.49,-357.22 2401.04,-329.18"/>
<polygon fill="black" stroke="black" points="2401.66,-332.63 2411.21,-328.03 2400.88,-325.67 2401.66,-332.63"/>
<text text-anchor="middle" x="2394.15" y="-334.76" font-family="Times,serif" font-size="14.00">*5</text>
</g>
<!-- node11&#45;&gt;node0 -->
<g id="edge33" class="edge">
<title>node11&#45;&gt;node0</title>
<path fill="none" stroke="green" stroke-width="2" d="M2088.34,-474.03C2089.19,-482.03 2089.43,-491.77 2089.07,-500.75"/>
<polygon fill="green" stroke="green" stroke-width="2" points="2085.57,-500.59 2088.36,-510.81 2092.55,-501.08 2085.57,-500.59"/>
</g>
<!-- node11&#45;&gt;node17 -->
<g id="edge50" class="edge">
<title>node11&#45;&gt;node17</title>
<path fill="none" stroke="black" d="M2139.31,-437.92C2228.35,-411.15 2400.31,-359.45 2494.97,-330.99"/>
<polygon fill="black" stroke="black" points="2496.16,-334.29 2504.73,-328.06 2494.14,-327.59 2496.16,-334.29"/>
<text text-anchor="middle" x="2489.8" y="-337.67" font-family="Times,serif" font-size="14.00">*3</text>
</g>
<!-- node12&#45;&gt;node0 -->
<g id="edge35" class="edge">
<title>node12&#45;&gt;node0</title>
<path fill="none" stroke="green" stroke-width="2" d="M2444.76,-472.59C2369.27,-482.6 2269,-496.43 2180.48,-511 2178.98,-511.25 2177.46,-511.5 2175.93,-511.76"/>
<polygon fill="green" stroke="green" stroke-width="2" points="2174.97,-508.37 2165.72,-513.52 2176.16,-515.27 2174.97,-508.37"/>
</g>
<!-- node12&#45;&gt;node17 -->
<g id="edge51" class="edge">
<title>node12&#45;&gt;node17</title>
<path fill="none" stroke="black" d="M2561.48,-437.92C2561.48,-413.34 2561.48,-367.75 2561.48,-338.43"/>
<polygon fill="black" stroke="black" points="2564.98,-338.06 2561.48,-328.06 2557.98,-338.06 2564.98,-338.06"/>
<text text-anchor="middle" x="2569.93" y="-342.49" font-family="Times,serif" font-size="14.00">*4</text>
</g>
<!-- node13&#45;&gt;node0 -->
<g id="edge37" class="edge">
<title>node13&#45;&gt;node0</title>
<path fill="none" stroke="green" stroke-width="2" d="M2890.6,-469.09C2865.46,-470.78 2839.81,-472.46 2815.48,-474 2533.34,-491.85 2461.03,-476.18 2180.48,-511 2178.97,-511.19 2177.44,-511.39 2175.91,-511.59"/>
<polygon fill="green" stroke="green" stroke-width="2" points="2175.05,-508.18 2165.65,-513.08 2176.05,-515.11 2175.05,-508.18"/>
</g>
<!-- node13&#45;&gt;node17 -->
<g id="edge53" class="edge">
<title>node13&#45;&gt;node17</title>
<path fill="none" stroke="black" d="M2996.87,-437.92C2904.95,-411.12 2727.34,-359.35 2629.78,-330.91"/>
<polygon fill="black" stroke="black" points="2630.59,-327.5 2620.01,-328.06 2628.63,-334.22 2630.59,-327.5"/>
<text text-anchor="middle" x="2639.78" y="-321.32" font-family="Times,serif" font-size="14.00">*6</text>
</g>
<!-- node14&#45;&gt;node0 -->
<g id="edge39" class="edge">
<title>node14&#45;&gt;node0</title>
<path fill="none" stroke="green" stroke-width="2" d="M3385.32,-469.45C3361.37,-471.15 3336.76,-472.74 3313.48,-474 3061.94,-487.6 2430.85,-483.17 2180.48,-511 2178.97,-511.17 2177.44,-511.35 2175.9,-511.54"/>
<polygon fill="green" stroke="green" stroke-width="2" points="2175.07,-508.12 2165.63,-512.94 2176.01,-515.06 2175.07,-508.12"/>
</g>
<!-- node14&#45;&gt;node17 -->
<g id="edge47" class="edge">
<title>node14&#45;&gt;node17</title>
<path fill="none" stroke="black" d="M3424.05,-439.32C3244.12,-412.55 2878.64,-358.18 2686.29,-329.57"/>
<polygon fill="black" stroke="black" points="2686.54,-326.06 2676.13,-328.06 2685.51,-332.99 2686.54,-326.06"/>
<text text-anchor="middle" x="2695.3" y="-318.66" font-family="Times,serif" font-size="14.00">*0</text>
</g>
<!-- node15&#45;&gt;node0 -->
<g id="edge41" class="edge">
<title>node15&#45;&gt;node0</title>
<path fill="none" stroke="green" stroke-width="2" d="M3834.94,-469.58C3811.13,-471.28 3786.64,-472.84 3763.48,-474 3587.76,-482.81 2355.43,-492.38 2180.48,-511 2178.97,-511.16 2177.44,-511.33 2175.9,-511.52"/>
<polygon fill="green" stroke="green" stroke-width="2" points="2175.08,-508.1 2165.63,-512.88 2176,-515.04 2175.08,-508.1"/>
</g>
<!-- node16 -->
<g id="node18" class="node">
<title>node16</title>
<polygon fill="lightgrey" stroke="black" points="4208.48,-401 3742.48,-401 3742.48,-365 4208.48,-365 4208.48,-401"/>
<text text-anchor="middle" x="3975.48" y="-379.3" font-family="Times,serif" font-size="14.00">#16 Invoke static in : (Class)MethodHandles$Lookup Order : 3</text>
</g>
<!-- node15&#45;&gt;node16 -->
<g id="edge44" class="edge">
<title>node15&#45;&gt;node16</title>
<path fill="none" stroke="black" d="M3963.72,-437.81C3962.05,-429.79 3961.58,-420.05 3962.33,-411.07"/>
<polygon fill="black" stroke="black" points="3965.81,-411.42 3963.76,-401.03 3958.88,-410.43 3965.81,-411.42"/>
<text text-anchor="middle" x="3969.57" y="-416.47" font-family="Times,serif" font-size="14.00">*0</text>
</g>
<!-- node15&#45;&gt;node16 -->
<g id="edge45" class="edge">
<title>node15&#45;&gt;node16</title>
<path fill="none" stroke="black" d="M3987.24,-437.81C3988.92,-429.79 3989.38,-420.05 3988.64,-411.07"/>
<polygon fill="black" stroke="black" points="3992.08,-410.43 3987.2,-401.03 3985.15,-411.42 3992.08,-410.43"/>
<text text-anchor="middle" x="3998.13" y="-414.08" font-family="Times,serif" font-size="14.00">*1</text>
</g>
<!-- node16&#45;&gt;node17 -->
<g id="edge48" class="edge">
<title>node16&#45;&gt;node17</title>
<path fill="none" stroke="black" d="M3742.38,-370.3C3516.13,-358.94 3169.88,-341.55 2910.71,-328.54"/>
<polygon fill="black" stroke="black" points="2910.54,-325.02 2900.37,-328.02 2910.18,-332.01 2910.54,-325.02"/>
<text text-anchor="middle" x="2918.9" y="-316.78" font-family="Times,serif" font-size="14.00">*1</text>
</g>
<!-- node16&#45;&gt;node15 -->
<g id="edge43" class="edge">
<title>node16&#45;&gt;node15</title>
<path fill="none" stroke="green" stroke-width="2" d="M3975.48,-401.03C3975.48,-409.03 3975.48,-418.77 3975.48,-427.75"/>
<polygon fill="green" stroke="green" stroke-width="2" points="3971.98,-427.81 3975.48,-437.81 3978.98,-427.81 3971.98,-427.81"/>
</g>
<!-- node18&#45;&gt;node0 -->
<g id="edge54" class="edge">
<title>node18&#45;&gt;node0</title>
<path fill="none" stroke="green" stroke-width="2" d="M4255.93,-469.73C4239.17,-471.43 4221.86,-472.95 4205.48,-474 3980.91,-488.42 2404.31,-487.75 2180.48,-511 2178.97,-511.16 2177.44,-511.33 2175.9,-511.51"/>
<polygon fill="green" stroke="green" stroke-width="2" points="2175.09,-508.08 2165.63,-512.86 2176,-515.03 2175.09,-508.08"/>
</g>
<!-- node18&#45;&gt;node17 -->
<g id="edge49" class="edge">
<title>node18&#45;&gt;node17</title>
<path fill="none" stroke="black" d="M4332.49,-437.82C4308.48,-416.17 4263.62,-379.97 4217.48,-365 4110.58,-330.31 3517.08,-317.85 3070.91,-313.41"/>
<polygon fill="black" stroke="black" points="3070.76,-309.91 3060.72,-313.31 3070.69,-316.91 3070.76,-309.91"/>
<text text-anchor="middle" x="3078.93" y="-301.34" font-family="Times,serif" font-size="14.00">*2</text>
</g>
<!-- c0 -->
<!-- c1 -->
<!-- c0&#45;&gt;c1 -->
<g id="edge56" class="edge">
<title>c0&#45;&gt;c1</title>
<path fill="none" stroke="red" d="M2897.37,-529C2908.59,-529 2966.72,-529 2992.34,-529"/>
<polygon fill="red" stroke="red" points="2992.54,-532.5 3002.54,-529 2992.54,-525.5 2992.54,-532.5"/>
<text text-anchor="middle" x="2949.98" y="-535.8" font-family="Times,serif" font-size="14.00">Control flow</text>
</g>
<!-- c2 -->
<!-- c3 -->
<!-- c2&#45;&gt;c3 -->
<g id="edge57" class="edge">
<title>c2&#45;&gt;c3</title>
<path fill="none" stroke="red" stroke-dasharray="5,2" d="M2690.56,-529C2707.53,-529 2823.69,-529 2861.57,-529"/>
<polygon fill="red" stroke="red" points="2861.65,-532.5 2871.65,-529 2861.65,-525.5 2861.65,-532.5"/>
<text text-anchor="middle" x="2780.98" y="-535.8" font-family="Times,serif" font-size="14.00">Control flow back edge</text>
</g>
<!-- d0 -->
<!-- d1 -->
<!-- d0&#45;&gt;d1 -->
<g id="edge58" class="edge">
<title>d0&#45;&gt;d1</title>
<path fill="none" stroke="black" d="M2579.34,-529C2588.89,-529 2632.79,-529 2654.4,-529"/>
<polygon fill="black" stroke="black" points="2654.63,-532.5 2664.63,-529 2654.63,-525.5 2654.63,-532.5"/>
<text text-anchor="middle" x="2621.98" y="-535.8" font-family="Times,serif" font-size="14.00">Data flow</text>
</g>
<!-- d2 -->
<!-- d3 -->
<!-- d2&#45;&gt;d3 -->
<g id="edge59" class="edge">
<title>d2&#45;&gt;d3</title>
<path fill="none" stroke="black" stroke-dasharray="1,5" d="M2453.29,-529C2463.94,-529 2518.95,-529 2543.56,-529"/>
<polygon fill="black" stroke="black" points="2543.63,-532.5 2553.63,-529 2543.63,-525.5 2543.63,-532.5"/>
<text text-anchor="middle" x="2503.48" y="-535.8" font-family="Times,serif" font-size="14.00">Declaration</text>
</g>
<!-- d4 -->
<!-- d5 -->
<!-- d4&#45;&gt;d5 -->
<g id="edge60" class="edge">
<title>d4&#45;&gt;d5</title>
<path fill="none" stroke="blue" d="M2310.58,-529C2323.2,-529 2389.36,-529 2417.16,-529"/>
<polygon fill="blue" stroke="blue" points="2417.32,-532.5 2427.32,-529 2417.32,-525.5 2417.32,-532.5"/>
<text text-anchor="middle" x="2368.98" y="-535.8" font-family="Times,serif" font-size="14.00">PHI Data flow</text>
</g>
<!-- d6 -->
<!-- d7 -->
<!-- d6&#45;&gt;d7 -->
<g id="edge61" class="edge">
<title>d6&#45;&gt;d7</title>
<path fill="none" stroke="green" d="M2187.59,-529C2198.63,-529 2250.15,-529 2274.14,-529"/>
<polygon fill="green" stroke="green" points="2274.38,-532.5 2284.38,-529 2274.38,-525.5 2274.38,-532.5"/>
<text text-anchor="middle" x="2235.98" y="-535.8" font-family="Times,serif" font-size="14.00">Dominance</text>
</g>
</g>
</svg>
