<?xml version="1.0" encoding="UTF-8" standalone="no"?>
<!DOCTYPE svg PUBLIC "-//W3C//DTD SVG 1.1//EN"
 "http://www.w3.org/Graphics/SVG/1.1/DTD/svg11.dtd">
<!-- Generated by graphviz version 2.43.0 (0)
 -->
<!-- Title: debugoutput Pages: 1 -->
<svg width="3830pt" height="724pt"
 viewBox="0.00 0.00 3829.50 723.80" xmlns="http://www.w3.org/2000/svg" xmlns:xlink="http://www.w3.org/1999/xlink">
<g id="graph0" class="graph" transform="scale(1 1) rotate(0) translate(4 719.8)">
<title>debugoutput</title>
<polygon fill="white" stroke="transparent" points="-4,4 -4,-719.8 3825.5,-719.8 3825.5,4 -4,4"/>
<g id="clust1" class="cluster">
<title>cluster_000</title>
<polygon fill="none" stroke="black" points="2770.5,-665.2 2770.5,-707.8 3746.5,-707.8 3746.5,-665.2 2770.5,-665.2"/>
<text text-anchor="middle" x="3258.5" y="-692.6" font-family="Times,serif" font-size="14.00">Legend</text>
</g>
<!-- node0 -->
<g id="node1" class="node">
<title>node0</title>
<polygon fill="lightgrey" stroke="black" points="2760.5,-693 2594.5,-693 2594.5,-657 2760.5,-657 2760.5,-693"/>
<text text-anchor="middle" x="2677.5" y="-671.3" font-family="Times,serif" font-size="14.00">#0 Method Order : 0</text>
</g>
<!-- node1 -->
<g id="node2" class="node">
<title>node1</title>
<polygon fill="lightgrey" stroke="black" points="3303,-620 3118,-620 3118,-584 3303,-584 3303,-620"/>
<text text-anchor="middle" x="3210.5" y="-598.3" font-family="Times,serif" font-size="14.00">#1 arg0 : List Order : 8</text>
</g>
<!-- node0&#45;&gt;node1 -->
<g id="edge2" class="edge">
<title>node0&#45;&gt;node1</title>
<path fill="none" stroke="black" d="M2757.93,-656.95C2903.82,-639.19 2943.73,-665.55 3088.5,-639 3108.16,-635.39 3129.16,-629.35 3148.15,-623.23"/>
<polygon fill="black" stroke="black" points="3149.46,-626.48 3157.87,-620.03 3147.28,-619.83 3149.46,-626.48"/>
<text text-anchor="middle" x="3143.29" y="-630.02" font-family="Times,serif" font-size="14.00">*0</text>
</g>
<!-- node2 -->
<g id="node3" class="node">
<title>node2</title>
<polygon fill="lightgrey" stroke="black" points="177,-620 0,-620 0,-584 177,-584 177,-620"/>
<text text-anchor="middle" x="88.5" y="-598.3" font-family="Times,serif" font-size="14.00">#2 arg1 : int Order : 7</text>
</g>
<!-- node0&#45;&gt;node2 -->
<g id="edge4" class="edge">
<title>node0&#45;&gt;node2</title>
<path fill="none" stroke="black" d="M2594.21,-673.9C2218.93,-673.2 682.58,-667.47 186.94,-621"/>
<polygon fill="black" stroke="black" points="187.14,-617.5 176.85,-620.03 186.48,-624.47 187.14,-617.5"/>
<text text-anchor="middle" x="195.7" y="-609.65" font-family="Times,serif" font-size="14.00">*0</text>
</g>
<!-- node3 -->
<g id="node4" class="node">
<title>node3</title>
<polygon fill="lightgrey" stroke="black" points="1587,-620 1296,-620 1296,-584 1587,-584 1587,-620"/>
<text text-anchor="middle" x="1441.5" y="-598.3" font-family="Times,serif" font-size="14.00">#3 this : InvokeDynamicTest Order : 6</text>
</g>
<!-- node0&#45;&gt;node3 -->
<g id="edge6" class="edge">
<title>node0&#45;&gt;node3</title>
<path fill="none" stroke="black" d="M2594.29,-671.7C2413.2,-666.17 1970.02,-650.34 1596.96,-620.83"/>
<polygon fill="black" stroke="black" points="1597.02,-617.33 1586.77,-620.02 1596.47,-624.3 1597.02,-617.33"/>
<text text-anchor="middle" x="1605.51" y="-609.33" font-family="Times,serif" font-size="14.00">*0</text>
</g>
<!-- node4 -->
<g id="node5" class="node">
<title>node4</title>
<polygon fill="lightgrey" stroke="black" points="3509.5,-620 3321.5,-620 3321.5,-584 3509.5,-584 3509.5,-620"/>
<text text-anchor="middle" x="3415.5" y="-598.3" font-family="Times,serif" font-size="14.00">#4 LabelNode Order : 5</text>
</g>
<!-- node0&#45;&gt;node4 -->
<g id="edge8" class="edge">
<title>node0&#45;&gt;node4</title>
<path fill="none" stroke="red" d="M2757.96,-656.94C2914.43,-638.16 2955.12,-650.81 3112.5,-639 3197.57,-632.62 3218.93,-631.17 3303.5,-620 3306.05,-619.66 3308.64,-619.31 3311.26,-618.95"/>
<polygon fill="red" stroke="red" points="3312.03,-622.37 3321.43,-617.48 3311.03,-615.44 3312.03,-622.37"/>
</g>
<!-- node5 -->
<g id="node6" class="node">
<title>node5</title>
<polygon fill="lightgrey" stroke="black" points="3389.5,-547 3031.5,-547 3031.5,-511 3389.5,-511 3389.5,-547"/>
<text text-anchor="middle" x="3210.5" y="-525.3" font-family="Times,serif" font-size="14.00">#5 Invoke interface stream : ()Stream Order : 9</text>
</g>
<!-- node0&#45;&gt;node5 -->
<g id="edge12" class="edge">
<title>node0&#45;&gt;node5</title>
<path fill="none" stroke="green" d="M2757.86,-656.95C2820.2,-649.17 2980.85,-663.02 3038.5,-639 3072.5,-624.83 3070.27,-605.05 3100.5,-584 3117.81,-571.95 3138.11,-560.61 3156.6,-551.47"/>
<polygon fill="green" stroke="green" points="3158.31,-554.53 3165.79,-547.03 3155.27,-548.22 3158.31,-554.53"/>
</g>
<!-- node6 -->
<g id="node7" class="node">
<title>node6</title>
<polygon fill="lightgreen" stroke="black" points="1278.38,-594.54 1278.38,-609.46 960.95,-620 512.05,-620 194.62,-609.46 194.62,-594.54 512.05,-584 960.95,-584 1278.38,-594.54"/>
<text text-anchor="middle" x="736.5" y="-598.3" font-family="Times,serif" font-size="14.00">#6 MethodHandle : invokeStatic : InvokeDynamicTest.lambda$countList$0 (int,Integer)boolean Order : 4</text>
</g>
<!-- node0&#45;&gt;node6 -->
<g id="edge14" class="edge">
<title>node0&#45;&gt;node6</title>
<path fill="none" stroke="black" stroke-dasharray="1,5" d="M2594.28,-671.06C2339.41,-661.89 1559.02,-633.37 1094.69,-616.3"/>
<polygon fill="black" stroke="black" points="1094.59,-612.79 1084.47,-615.92 1094.33,-619.79 1094.59,-612.79"/>
</g>
<!-- node7 -->
<g id="node8" class="node">
<title>node7</title>
<polygon fill="lightgreen" stroke="black" points="2072.12,-594.54 2072.12,-609.46 1935.27,-620 1741.73,-620 1604.88,-609.46 1604.88,-594.54 1741.73,-584 1935.27,-584 2072.12,-594.54"/>
<text text-anchor="middle" x="1838.5" y="-598.3" font-family="Times,serif" font-size="14.00">#7 MethodType : (Integer)boolean Order : 3</text>
</g>
<!-- node0&#45;&gt;node7 -->
<g id="edge16" class="edge">
<title>node0&#45;&gt;node7</title>
<path fill="none" stroke="black" stroke-dasharray="1,5" d="M2594.42,-667.32C2455.72,-655.83 2174.89,-632.1 1997.29,-616.9"/>
<polygon fill="black" stroke="black" points="1997.33,-613.39 1987.06,-616.03 1996.73,-620.37 1997.33,-613.39"/>
</g>
<!-- node8 -->
<g id="node9" class="node">
<title>node8</title>
<polygon fill="lightgreen" stroke="black" points="2528.98,-594.54 2528.98,-609.46 2400.41,-620 2218.59,-620 2090.02,-609.46 2090.02,-594.54 2218.59,-584 2400.41,-584 2528.98,-594.54"/>
<text text-anchor="middle" x="2309.5" y="-598.3" font-family="Times,serif" font-size="14.00">#8 MethodType : (int)Predicate Order : 2</text>
</g>
<!-- node0&#45;&gt;node8 -->
<g id="edge18" class="edge">
<title>node0&#45;&gt;node8</title>
<path fill="none" stroke="black" stroke-dasharray="1,5" d="M2594.28,-659.03C2537.03,-648.24 2460.99,-633.6 2401.87,-621.99"/>
<polygon fill="black" stroke="black" points="2402.27,-618.5 2391.79,-620.01 2400.92,-625.37 2402.27,-618.5"/>
</g>
<!-- node9 -->
<g id="node10" class="node">
<title>node9</title>
<polygon fill="lightgreen" stroke="black" points="3005.68,-594.54 3005.68,-609.46 2871.43,-620 2681.57,-620 2547.32,-609.46 2547.32,-594.54 2681.57,-584 2871.43,-584 3005.68,-594.54"/>
<text text-anchor="middle" x="2776.5" y="-598.3" font-family="Times,serif" font-size="14.00">#9 MethodType : (Object)boolean Order : 1</text>
</g>
<!-- node0&#45;&gt;node9 -->
<g id="edge20" class="edge">
<title>node0&#45;&gt;node9</title>
<path fill="none" stroke="black" stroke-dasharray="1,5" d="M2695.59,-656.81C2707.62,-647.48 2723.72,-635.83 2738.43,-625.75"/>
<polygon fill="black" stroke="black" points="2740.57,-628.53 2746.89,-620.03 2736.65,-622.73 2740.57,-628.53"/>
</g>
<!-- node1&#45;&gt;node0 -->
<g id="edge1" class="edge">
<title>node1&#45;&gt;node0</title>
<path fill="none" stroke="fuchsia" stroke-width="2" d="M3174.28,-620.03C3154.52,-627.16 3129.59,-634.77 3106.5,-639 2961.59,-665.58 2921.74,-639.14 2775.5,-657 2773.99,-657.18 2772.46,-657.38 2770.93,-657.58"/>
<polygon fill="fuchsia" stroke="fuchsia" stroke-width="2" points="2770.07,-654.17 2760.67,-659.06 2771.06,-661.1 2770.07,-654.17"/>
</g>
<!-- node1&#45;&gt;node5 -->
<g id="edge10" class="edge">
<title>node1&#45;&gt;node5</title>
<path fill="none" stroke="black" d="M3210.5,-583.81C3210.5,-575.79 3210.5,-566.05 3210.5,-557.07"/>
<polygon fill="black" stroke="black" points="3214,-557.03 3210.5,-547.03 3207,-557.03 3214,-557.03"/>
<text text-anchor="middle" x="3218.95" y="-561.45" font-family="Times,serif" font-size="14.00">*0</text>
</g>
<!-- node2&#45;&gt;node0 -->
<g id="edge3" class="edge">
<title>node2&#45;&gt;node0</title>
<path fill="none" stroke="fuchsia" stroke-width="2" d="M177.01,-617.94C182.93,-618.74 188.8,-619.44 194.5,-620 671.96,-666.74 2191.68,-673.02 2584.26,-673.87"/>
<polygon fill="fuchsia" stroke="fuchsia" stroke-width="2" points="2584.43,-677.37 2594.44,-673.89 2584.44,-670.37 2584.43,-677.37"/>
</g>
<!-- node15 -->
<g id="node16" class="node">
<title>node15</title>
<polygon fill="lightgrey" stroke="black" points="3690,-255 3305,-255 3305,-219 3690,-219 3690,-255"/>
<text text-anchor="middle" x="3497.5" y="-233.3" font-family="Times,serif" font-size="14.00">#15 Invoke dynamic test : (int)Predicate Order : 15</text>
</g>
<!-- node2&#45;&gt;node15 -->
<g id="edge40" class="edge">
<title>node2&#45;&gt;node15</title>
<path fill="none" stroke="black" d="M177.25,-585.06C180.03,-584.69 182.78,-584.33 185.5,-584 228.95,-578.71 971.5,-573.77 971.5,-530 971.5,-530 971.5,-530 971.5,-309 971.5,-251.02 2695.03,-240.38 3294.73,-238.43"/>
<polygon fill="black" stroke="black" points="3294.8,-241.93 3304.79,-238.4 3294.78,-234.93 3294.8,-241.93"/>
<text text-anchor="middle" x="3286.69" y="-243.21" font-family="Times,serif" font-size="14.00">*1</text>
</g>
<!-- node3&#45;&gt;node0 -->
<g id="edge5" class="edge">
<title>node3&#45;&gt;node0</title>
<path fill="none" stroke="fuchsia" stroke-width="2" d="M1587.32,-618.54C1593.13,-619.06 1598.87,-619.55 1604.5,-620 1966.47,-648.99 2397.9,-664.97 2584.26,-671.07"/>
<polygon fill="fuchsia" stroke="fuchsia" stroke-width="2" points="2584.19,-674.57 2594.3,-671.4 2584.42,-667.57 2584.19,-674.57"/>
</g>
<!-- node4&#45;&gt;node0 -->
<g id="edge7" class="edge">
<title>node4&#45;&gt;node0</title>
<path fill="none" stroke="fuchsia" stroke-width="2" d="M3321.01,-620.07C3236.84,-631.18 3215.4,-632.63 3130.5,-639 2972.96,-650.82 2932.35,-638.13 2775.5,-657 2773.99,-657.18 2772.46,-657.37 2770.92,-657.58"/>
<polygon fill="fuchsia" stroke="fuchsia" stroke-width="2" points="2770.07,-654.16 2760.66,-659.04 2771.06,-661.09 2770.07,-654.16"/>
</g>
<!-- node4&#45;&gt;node5 -->
<g id="edge11" class="edge">
<title>node4&#45;&gt;node5</title>
<path fill="none" stroke="red" d="M3366.4,-583.99C3337.32,-573.92 3300.3,-561.1 3269.63,-550.48"/>
<polygon fill="red" stroke="red" points="3270.51,-547.08 3259.91,-547.11 3268.22,-553.69 3270.51,-547.08"/>
</g>
<!-- node5&#45;&gt;node0 -->
<g id="edge9" class="edge">
<title>node5&#45;&gt;node0</title>
<path fill="none" stroke="fuchsia" stroke-width="2" d="M3181.75,-547.03C3163.06,-556.8 3138.73,-569.91 3118.5,-584 3088.27,-605.05 3090.5,-624.83 3056.5,-639 2998.74,-663.07 2837.57,-649.11 2775.5,-657 2773.99,-657.19 2772.46,-657.39 2770.93,-657.6"/>
<polygon fill="fuchsia" stroke="fuchsia" stroke-width="2" points="2770.06,-654.19 2760.67,-659.11 2771.08,-661.12 2770.06,-654.19"/>
</g>
<!-- node10 -->
<g id="node11" class="node">
<title>node10</title>
<polygon fill="lightgreen" stroke="black" points="3634.61,-448.54 3634.61,-463.46 3504.5,-474 3320.5,-474 3190.39,-463.46 3190.39,-448.54 3320.5,-438 3504.5,-438 3634.61,-448.54"/>
<text text-anchor="middle" x="3412.5" y="-452.3" font-family="Times,serif" font-size="14.00">#10 Class LambdaMetafactory Order : 13</text>
</g>
<!-- node5&#45;&gt;node10 -->
<g id="edge22" class="edge">
<title>node5&#45;&gt;node10</title>
<path fill="none" stroke="black" stroke-dasharray="1,5" d="M3253.02,-510.99C3280.72,-500.88 3317.29,-487.99 3348.46,-477.34"/>
<polygon fill="black" stroke="black" points="3349.6,-480.65 3357.94,-474.11 3347.35,-474.02 3349.6,-480.65"/>
</g>
<!-- node11 -->
<g id="node12" class="node">
<title>node11</title>
<polygon fill="lightgreen" stroke="black" points="2851.07,-448.54 2851.07,-463.46 2723.04,-474 2541.96,-474 2413.93,-463.46 2413.93,-448.54 2541.96,-438 2723.04,-438 2851.07,-448.54"/>
<text text-anchor="middle" x="2632.5" y="-452.3" font-family="Times,serif" font-size="14.00">#11 Class InvokeDynamicTest Order : 11</text>
</g>
<!-- node5&#45;&gt;node11 -->
<g id="edge24" class="edge">
<title>node5&#45;&gt;node11</title>
<path fill="none" stroke="black" stroke-dasharray="1,5" d="M3066.2,-510.99C2971.62,-499.53 2849.22,-484.49 2758.56,-473.19"/>
<polygon fill="black" stroke="black" points="2758.86,-469.7 2748.5,-471.94 2757.99,-476.65 2758.86,-469.7"/>
</g>
<!-- node12 -->
<g id="node13" class="node">
<title>node12</title>
<polygon fill="lightgreen" stroke="black" points="3171.5,-448.54 3171.5,-463.46 3083.05,-474 2957.95,-474 2869.5,-463.46 2869.5,-448.54 2957.95,-438 3083.05,-438 3171.5,-448.54"/>
<text text-anchor="middle" x="3020.5" y="-452.3" font-family="Times,serif" font-size="14.00">#12 String : test Order : 10</text>
</g>
<!-- node5&#45;&gt;node12 -->
<g id="edge26" class="edge">
<title>node5&#45;&gt;node12</title>
<path fill="none" stroke="black" stroke-dasharray="1,5" d="M3159.13,-510.99C3131.36,-501.01 3097.29,-488.32 3069.84,-477.76"/>
<polygon fill="black" stroke="black" points="3071.02,-474.46 3060.43,-474.11 3068.49,-480.99 3071.02,-474.46"/>
</g>
<!-- node5&#45;&gt;node15 -->
<g id="edge41" class="edge">
<title>node5&#45;&gt;node15</title>
<path fill="none" stroke="green" d="M3389.64,-516.11C3497.65,-507.19 3617.55,-493.2 3634.5,-474 3695.92,-404.44 3582.27,-305.95 3526.05,-261.45"/>
<polygon fill="green" stroke="green" points="3527.91,-258.45 3517.88,-255.03 3523.58,-263.96 3527.91,-258.45"/>
</g>
<!-- node5&#45;&gt;node15 -->
<g id="edge42" class="edge">
<title>node5&#45;&gt;node15</title>
<path fill="none" stroke="red" d="M3389.71,-517.31C3504.34,-508.47 3634.76,-494.09 3652.5,-474 3714.18,-404.15 3599.33,-305.15 3535.6,-260.9"/>
<polygon fill="red" stroke="red" points="3537.21,-257.76 3526.97,-255.03 3533.27,-263.55 3537.21,-257.76"/>
</g>
<!-- node16 -->
<g id="node17" class="node">
<title>node16</title>
<polygon fill="lightgrey" stroke="black" points="3821.5,-182 3393.5,-182 3393.5,-146 3821.5,-146 3821.5,-182"/>
<text text-anchor="middle" x="3607.5" y="-160.3" font-family="Times,serif" font-size="14.00">#16 Invoke interface filter : (Predicate)Stream Order : 16</text>
</g>
<!-- node5&#45;&gt;node16 -->
<g id="edge44" class="edge">
<title>node5&#45;&gt;node16</title>
<path fill="none" stroke="black" d="M3389.6,-519.4C3535.86,-509.89 3718.5,-491.17 3718.5,-457 3718.5,-457 3718.5,-457 3718.5,-236 3718.5,-213.08 3701.5,-197.23 3680.8,-186.42"/>
<polygon fill="black" stroke="black" points="3682.28,-183.24 3671.75,-182.09 3679.26,-189.56 3682.28,-183.24"/>
<text text-anchor="middle" x="3691.75" y="-178.58" font-family="Times,serif" font-size="14.00">*0</text>
</g>
<!-- node6&#45;&gt;node0 -->
<g id="edge13" class="edge">
<title>node6&#45;&gt;node0</title>
<path fill="none" stroke="fuchsia" stroke-width="2" d="M1089.86,-615.73C1547.7,-632.39 2318.64,-660.62 2584.28,-670.47"/>
<polygon fill="fuchsia" stroke="fuchsia" stroke-width="2" points="2584.15,-673.97 2594.28,-670.85 2584.41,-666.98 2584.15,-673.97"/>
</g>
<!-- node14 -->
<g id="node15" class="node">
<title>node14</title>
<polygon fill="lightgrey" stroke="black" points="2889,-328 1882,-328 1882,-292 2889,-292 2889,-328"/>
<text text-anchor="middle" x="2385.5" y="-306.3" font-family="Times,serif" font-size="14.00">#14 Invoke static metafactory : (MethodHandles$Lookup,String,MethodType,MethodType,MethodHandle,MethodType)CallSite Order : 14</text>
</g>
<!-- node6&#45;&gt;node14 -->
<g id="edge36" class="edge">
<title>node6&#45;&gt;node14</title>
<path fill="none" stroke="black" d="M1042.48,-586.69C1259.91,-574.41 1513.5,-554.76 1513.5,-530 1513.5,-530 1513.5,-530 1513.5,-382 1513.5,-357.89 1728.05,-340.23 1944.31,-328.55"/>
<polygon fill="black" stroke="black" points="1944.81,-332.03 1954.61,-328 1944.44,-325.04 1944.81,-332.03"/>
<text text-anchor="middle" x="1936.96" y="-333.71" font-family="Times,serif" font-size="14.00">*5</text>
</g>
<!-- node7&#45;&gt;node0 -->
<g id="edge15" class="edge">
<title>node7&#45;&gt;node0</title>
<path fill="none" stroke="fuchsia" stroke-width="2" d="M1992.57,-615.59C2165.72,-630.06 2441.19,-653.39 2584.34,-665.73"/>
<polygon fill="fuchsia" stroke="fuchsia" stroke-width="2" points="2584.15,-669.23 2594.41,-666.6 2584.75,-662.26 2584.15,-669.23"/>
</g>
<!-- node7&#45;&gt;node14 -->
<g id="edge37" class="edge">
<title>node7&#45;&gt;node14</title>
<path fill="none" stroke="black" d="M1945.73,-584.79C2000.4,-573.4 2055.5,-555.57 2055.5,-530 2055.5,-530 2055.5,-530 2055.5,-382 2055.5,-356.86 2092.55,-340.6 2141.83,-330.09"/>
<polygon fill="black" stroke="black" points="2142.73,-333.48 2151.84,-328.06 2141.34,-326.62 2142.73,-333.48"/>
<text text-anchor="middle" x="2135.75" y="-336.24" font-family="Times,serif" font-size="14.00">*6</text>
</g>
<!-- node8&#45;&gt;node0 -->
<g id="edge17" class="edge">
<title>node8&#45;&gt;node0</title>
<path fill="none" stroke="fuchsia" stroke-width="2" d="M2402.77,-619.87C2458.73,-630.44 2529.58,-644.1 2585.34,-655.05"/>
<polygon fill="fuchsia" stroke="fuchsia" stroke-width="2" points="2584.73,-658.5 2595.21,-656.99 2586.08,-651.63 2584.73,-658.5"/>
</g>
<!-- node8&#45;&gt;node14 -->
<g id="edge34" class="edge">
<title>node8&#45;&gt;node14</title>
<path fill="none" stroke="black" d="M2309.5,-583.78C2309.5,-569.41 2309.5,-548.37 2309.5,-530 2309.5,-530 2309.5,-530 2309.5,-382 2309.5,-361.7 2324.15,-345.54 2340.59,-333.8"/>
<polygon fill="black" stroke="black" points="2342.86,-336.49 2349.28,-328.06 2339.01,-330.65 2342.86,-336.49"/>
<text text-anchor="middle" x="2338.81" y="-341.4" font-family="Times,serif" font-size="14.00">*3</text>
</g>
<!-- node9&#45;&gt;node0 -->
<g id="edge19" class="edge">
<title>node9&#45;&gt;node0</title>
<path fill="none" stroke="fuchsia" stroke-width="2" d="M2758.51,-620.11C2746.46,-629.46 2730.31,-641.15 2715.56,-651.26"/>
<polygon fill="fuchsia" stroke="fuchsia" stroke-width="2" points="2713.4,-648.49 2707.07,-656.99 2717.32,-654.29 2713.4,-648.49"/>
</g>
<!-- node9&#45;&gt;node14 -->
<g id="edge35" class="edge">
<title>node9&#45;&gt;node14</title>
<path fill="none" stroke="black" d="M2616.45,-589.09C2494.54,-577.79 2347.5,-558.29 2347.5,-530 2347.5,-530 2347.5,-530 2347.5,-382 2347.5,-365.53 2355.55,-349.18 2364.24,-336.33"/>
<polygon fill="black" stroke="black" points="2367.22,-338.18 2370.26,-328.04 2361.55,-334.07 2367.22,-338.18"/>
<text text-anchor="middle" x="2366.45" y="-343.97" font-family="Times,serif" font-size="14.00">*4</text>
</g>
<!-- node10&#45;&gt;node5 -->
<g id="edge21" class="edge">
<title>node10&#45;&gt;node5</title>
<path fill="none" stroke="fuchsia" stroke-width="2" d="M3369.68,-474.11C3341.92,-484.25 3305.34,-497.14 3274.21,-507.77"/>
<polygon fill="fuchsia" stroke="fuchsia" stroke-width="2" points="3273.08,-504.46 3264.74,-510.99 3275.34,-511.09 3273.08,-504.46"/>
</g>
<!-- node10&#45;&gt;node14 -->
<g id="edge31" class="edge">
<title>node10&#45;&gt;node14</title>
<path fill="none" stroke="black" d="M3337.93,-437.98C3228.56,-413.67 3017.94,-369.39 2836.5,-346 2783.61,-339.18 2727.06,-333.52 2672.49,-328.87"/>
<polygon fill="black" stroke="black" points="2672.59,-325.37 2662.33,-328.02 2672,-332.35 2672.59,-325.37"/>
<text text-anchor="middle" x="2681.1" y="-317.42" font-family="Times,serif" font-size="14.00">*0</text>
</g>
<!-- node11&#45;&gt;node5 -->
<g id="edge23" class="edge">
<title>node11&#45;&gt;node5</title>
<path fill="none" stroke="fuchsia" stroke-width="2" d="M2755.38,-471.41C2846.87,-482.47 2971.94,-497.82 3067.84,-509.74"/>
<polygon fill="fuchsia" stroke="fuchsia" stroke-width="2" points="3067.56,-513.23 3077.91,-510.99 3068.42,-506.29 3067.56,-513.23"/>
</g>
<!-- node13 -->
<g id="node14" class="node">
<title>node13</title>
<polygon fill="lightgrey" stroke="black" points="2889,-401 2414,-401 2414,-365 2889,-365 2889,-401"/>
<text text-anchor="middle" x="2651.5" y="-379.3" font-family="Times,serif" font-size="14.00">#13 Invoke static in : (Class)MethodHandles$Lookup Order : 12</text>
</g>
<!-- node11&#45;&gt;node13 -->
<g id="edge28" class="edge">
<title>node11&#45;&gt;node13</title>
<path fill="none" stroke="black" d="M2625.34,-437.81C2625.82,-429.62 2628.05,-419.62 2631.31,-410.48"/>
<polygon fill="black" stroke="black" points="2634.63,-411.61 2635.22,-401.03 2628.16,-408.93 2634.63,-411.61"/>
<text text-anchor="middle" x="2636.1" y="-417.31" font-family="Times,serif" font-size="14.00">*0</text>
</g>
<!-- node11&#45;&gt;node13 -->
<g id="edge29" class="edge">
<title>node11&#45;&gt;node13</title>
<path fill="none" stroke="black" d="M2648.86,-437.81C2652.68,-429.79 2655.76,-420.05 2657.41,-411.07"/>
<polygon fill="black" stroke="black" points="2660.9,-411.39 2658.67,-401.03 2653.95,-410.52 2660.9,-411.39"/>
<text text-anchor="middle" x="2664.81" y="-416.36" font-family="Times,serif" font-size="14.00">*1</text>
</g>
<!-- node12&#45;&gt;node5 -->
<g id="edge25" class="edge">
<title>node12&#45;&gt;node5</title>
<path fill="none" stroke="fuchsia" stroke-width="2" d="M3072.17,-474.11C3099.98,-484.11 3134.05,-496.81 3161.46,-507.36"/>
<polygon fill="fuchsia" stroke="fuchsia" stroke-width="2" points="3160.26,-510.65 3170.85,-510.99 3162.79,-504.12 3160.26,-510.65"/>
</g>
<!-- node12&#45;&gt;node14 -->
<g id="edge33" class="edge">
<title>node12&#45;&gt;node14</title>
<path fill="none" stroke="black" d="M3003.56,-437.95C2981.36,-416.79 2940.2,-381.48 2897.5,-365 2856.06,-349 2769.61,-337.29 2679.35,-328.94"/>
<polygon fill="black" stroke="black" points="2679.46,-325.44 2669.19,-328.02 2678.83,-332.41 2679.46,-325.44"/>
<text text-anchor="middle" x="2688.01" y="-317.54" font-family="Times,serif" font-size="14.00">*2</text>
</g>
<!-- node13&#45;&gt;node11 -->
<g id="edge27" class="edge">
<title>node13&#45;&gt;node11</title>
<path fill="none" stroke="fuchsia" stroke-width="2" d="M2646.94,-401.03C2644.78,-409.12 2642.14,-418.98 2639.71,-428.05"/>
<polygon fill="fuchsia" stroke="fuchsia" stroke-width="2" points="2636.3,-427.25 2637.1,-437.81 2643.07,-429.06 2636.3,-427.25"/>
</g>
<!-- node13&#45;&gt;node14 -->
<g id="edge32" class="edge">
<title>node13&#45;&gt;node14</title>
<path fill="none" stroke="black" d="M2587.79,-364.99C2549.16,-354.68 2499.73,-341.49 2459.4,-330.72"/>
<polygon fill="black" stroke="black" points="2460.18,-327.31 2449.62,-328.11 2458.37,-334.07 2460.18,-327.31"/>
<text text-anchor="middle" x="2469.31" y="-320.92" font-family="Times,serif" font-size="14.00">*1</text>
</g>
<!-- node14&#45;&gt;node0 -->
<g id="edge30" class="edge">
<title>node14&#45;&gt;node0</title>
<path fill="none" stroke="fuchsia" stroke-width="2" d="M2381.59,-328.22C2375.21,-361.26 2366.75,-433.82 2404.5,-474 2593.13,-674.78 2837.83,-372.62 3014.5,-584 3086.17,-669.75 2890.96,-639.53 2770.81,-656.43"/>
<polygon fill="fuchsia" stroke="fuchsia" stroke-width="2" points="2770.21,-652.98 2760.86,-657.97 2771.28,-659.9 2770.21,-652.98"/>
</g>
<!-- node14&#45;&gt;node15 -->
<g id="edge39" class="edge">
<title>node14&#45;&gt;node15</title>
<path fill="none" stroke="black" d="M2651.85,-291.99C2849.23,-279.39 3114.18,-262.47 3294.56,-250.96"/>
<polygon fill="black" stroke="black" points="3294.95,-254.44 3304.7,-250.31 3294.5,-247.45 3294.95,-254.44"/>
<text text-anchor="middle" x="3287.15" y="-256.2" font-family="Times,serif" font-size="14.00">*0</text>
</g>
<!-- node15&#45;&gt;node0 -->
<g id="edge38" class="edge">
<title>node15&#45;&gt;node0</title>
<path fill="none" stroke="fuchsia" stroke-width="2" d="M3649.66,-255.05C3706.04,-265.74 3756.5,-282.66 3756.5,-309 3756.5,-603 3756.5,-603 3756.5,-603 3756.5,-709.05 3624.35,-613.5 3518.5,-620 3354.15,-630.09 3312.96,-630.9 3148.5,-639 2982.06,-647.2 2937.03,-637.4 2770.9,-656.54"/>
<polygon fill="fuchsia" stroke="fuchsia" stroke-width="2" points="2770.35,-653.08 2760.82,-657.71 2771.16,-660.03 2770.35,-653.08"/>
</g>
<!-- node15&#45;&gt;node16 -->
<g id="edge45" class="edge">
<title>node15&#45;&gt;node16</title>
<path fill="none" stroke="black" d="M3512.37,-218.81C3525.11,-209.31 3543.29,-197.39 3560.51,-187.19"/>
<polygon fill="black" stroke="black" points="3562.5,-190.08 3569.39,-182.03 3558.99,-184.02 3562.5,-190.08"/>
<text text-anchor="middle" x="3557.96" y="-194.74" font-family="Times,serif" font-size="14.00">*1</text>
</g>
<!-- node15&#45;&gt;node16 -->
<g id="edge46" class="edge">
<title>node15&#45;&gt;node16</title>
<path fill="none" stroke="red" d="M3523.85,-218.99C3538.43,-209.58 3556.75,-197.76 3572.52,-187.57"/>
<polygon fill="red" stroke="red" points="3574.48,-190.48 3580.99,-182.11 3570.69,-184.6 3574.48,-190.48"/>
</g>
<!-- node15&#45;&gt;node16 -->
<g id="edge47" class="edge">
<title>node15&#45;&gt;node16</title>
<path fill="none" stroke="green" d="M3535.57,-218.99C3551.84,-209.75 3570.1,-198.19 3584.39,-188.14"/>
<polygon fill="green" stroke="green" points="3586.68,-190.81 3592.73,-182.11 3582.57,-185.14 3586.68,-190.81"/>
</g>
<!-- node16&#45;&gt;node0 -->
<g id="edge43" class="edge">
<title>node16&#45;&gt;node0</title>
<path fill="none" stroke="fuchsia" stroke-width="2" d="M3693.88,-182.02C3742.88,-194.23 3794.5,-212.65 3794.5,-236 3794.5,-603 3794.5,-603 3794.5,-603 3794.5,-667 3715.2,-613.76 3651.5,-620 3542.36,-630.7 3515.01,-633.23 3405.5,-639 3125.11,-653.77 3050.68,-626.89 2770.86,-656.59"/>
<polygon fill="fuchsia" stroke="fuchsia" stroke-width="2" points="2770.39,-653.12 2760.82,-657.67 2771.13,-660.08 2770.39,-653.12"/>
</g>
<!-- node17 -->
<g id="node18" class="node">
<title>node17</title>
<polygon fill="lightgrey" stroke="black" points="3779.5,-109 3435.5,-109 3435.5,-73 3779.5,-73 3779.5,-109"/>
<text text-anchor="middle" x="3607.5" y="-87.3" font-family="Times,serif" font-size="14.00">#17 Invoke interface count : ()long Order : 17</text>
</g>
<!-- node16&#45;&gt;node17 -->
<g id="edge49" class="edge">
<title>node16&#45;&gt;node17</title>
<path fill="none" stroke="black" d="M3589.87,-145.81C3587.35,-137.79 3586.65,-128.05 3587.77,-119.07"/>
<polygon fill="black" stroke="black" points="3591.24,-119.54 3589.92,-109.03 3584.4,-118.07 3591.24,-119.54"/>
<text text-anchor="middle" x="3594.39" y="-124.82" font-family="Times,serif" font-size="14.00">*0</text>
</g>
<!-- node16&#45;&gt;node17 -->
<g id="edge50" class="edge">
<title>node16&#45;&gt;node17</title>
<path fill="none" stroke="red" d="M3613.38,-145.81C3614.22,-137.79 3614.45,-128.05 3614.08,-119.07"/>
<polygon fill="red" stroke="red" points="3617.56,-118.75 3613.36,-109.03 3610.58,-119.25 3617.56,-118.75"/>
</g>
<!-- node16&#45;&gt;node17 -->
<g id="edge51" class="edge">
<title>node16&#45;&gt;node17</title>
<path fill="none" stroke="green" d="M3625.13,-145.81C3627.65,-137.79 3628.35,-128.05 3627.23,-119.07"/>
<polygon fill="green" stroke="green" points="3630.6,-118.07 3625.08,-109.03 3623.76,-119.54 3630.6,-118.07"/>
</g>
<!-- node17&#45;&gt;node16 -->
<g id="edge48" class="edge">
<title>node17&#45;&gt;node16</title>
<path fill="none" stroke="fuchsia" stroke-width="2" d="M3601.64,-109.03C3600.79,-117.03 3600.55,-126.77 3600.91,-135.75"/>
<polygon fill="fuchsia" stroke="fuchsia" stroke-width="2" points="3597.43,-136.08 3601.62,-145.81 3604.41,-135.59 3597.43,-136.08"/>
</g>
<!-- node18 -->
<g id="node19" class="node">
<title>node18</title>
<polygon fill="lightgrey" stroke="black" points="3738.5,-36 3476.5,-36 3476.5,0 3738.5,0 3738.5,-36"/>
<text text-anchor="middle" x="3607.5" y="-14.3" font-family="Times,serif" font-size="14.00">#18 ReturnValue : long Order : 18</text>
</g>
<!-- node17&#45;&gt;node18 -->
<g id="edge53" class="edge">
<title>node17&#45;&gt;node18</title>
<path fill="none" stroke="black" d="M3589.87,-72.81C3587.35,-64.79 3586.65,-55.05 3587.77,-46.07"/>
<polygon fill="black" stroke="black" points="3591.24,-46.54 3589.92,-36.03 3584.4,-45.07 3591.24,-46.54"/>
<text text-anchor="middle" x="3594.39" y="-51.82" font-family="Times,serif" font-size="14.00">*0</text>
</g>
<!-- node17&#45;&gt;node18 -->
<g id="edge54" class="edge">
<title>node17&#45;&gt;node18</title>
<path fill="none" stroke="red" d="M3613.38,-72.81C3614.22,-64.79 3614.45,-55.05 3614.08,-46.07"/>
<polygon fill="red" stroke="red" points="3617.56,-45.75 3613.36,-36.03 3610.58,-46.25 3617.56,-45.75"/>
</g>
<!-- node17&#45;&gt;node18 -->
<g id="edge55" class="edge">
<title>node17&#45;&gt;node18</title>
<path fill="none" stroke="green" d="M3625.13,-72.81C3627.65,-64.79 3628.35,-55.05 3627.23,-46.07"/>
<polygon fill="green" stroke="green" points="3630.6,-45.07 3625.08,-36.03 3623.76,-46.54 3630.6,-45.07"/>
</g>
<!-- node18&#45;&gt;node17 -->
<g id="edge52" class="edge">
<title>node18&#45;&gt;node17</title>
<path fill="none" stroke="fuchsia" stroke-width="2" d="M3601.64,-36.03C3600.79,-44.03 3600.55,-53.77 3600.91,-62.75"/>
<polygon fill="fuchsia" stroke="fuchsia" stroke-width="2" points="3597.43,-63.08 3601.62,-72.81 3604.41,-62.59 3597.43,-63.08"/>
</g>
<!-- c0 -->
<!-- c1 -->
<!-- c0&#45;&gt;c1 -->
<g id="edge56" class="edge">
<title>c0&#45;&gt;c1</title>
<path fill="none" stroke="red" d="M3629.39,-675C3640.61,-675 3698.74,-675 3724.36,-675"/>
<polygon fill="red" stroke="red" points="3724.56,-678.5 3734.56,-675 3724.56,-671.5 3724.56,-678.5"/>
<text text-anchor="middle" x="3682" y="-681.8" font-family="Times,serif" font-size="14.00">Control flow</text>
</g>
<!-- c2 -->
<!-- c3 -->
<!-- c2&#45;&gt;c3 -->
<g id="edge57" class="edge">
<title>c2&#45;&gt;c3</title>
<path fill="none" stroke="red" stroke-dasharray="5,2" d="M3422.58,-675C3439.55,-675 3555.71,-675 3593.58,-675"/>
<polygon fill="red" stroke="red" points="3593.67,-678.5 3603.67,-675 3593.67,-671.5 3593.67,-678.5"/>
<text text-anchor="middle" x="3513" y="-681.8" font-family="Times,serif" font-size="14.00">Control flow back edge</text>
</g>
<!-- d0 -->
<!-- d1 -->
<!-- d0&#45;&gt;d1 -->
<g id="edge58" class="edge">
<title>d0&#45;&gt;d1</title>
<path fill="none" stroke="black" d="M3311.36,-675C3320.91,-675 3364.81,-675 3386.42,-675"/>
<polygon fill="black" stroke="black" points="3386.65,-678.5 3396.65,-675 3386.65,-671.5 3386.65,-678.5"/>
<text text-anchor="middle" x="3354" y="-681.8" font-family="Times,serif" font-size="14.00">Data flow</text>
</g>
<!-- d2 -->
<!-- d3 -->
<!-- d2&#45;&gt;d3 -->
<g id="edge59" class="edge">
<title>d2&#45;&gt;d3</title>
<path fill="none" stroke="black" stroke-dasharray="1,5" d="M3185.31,-675C3195.96,-675 3250.96,-675 3275.58,-675"/>
<polygon fill="black" stroke="black" points="3275.65,-678.5 3285.65,-675 3275.65,-671.5 3275.65,-678.5"/>
<text text-anchor="middle" x="3235.5" y="-681.8" font-family="Times,serif" font-size="14.00">Declaration</text>
</g>
<!-- d4 -->
<!-- d5 -->
<!-- d4&#45;&gt;d5 -->
<g id="edge60" class="edge">
<title>d4&#45;&gt;d5</title>
<path fill="none" stroke="blue" d="M3042.6,-675C3055.22,-675 3121.38,-675 3149.18,-675"/>
<polygon fill="blue" stroke="blue" points="3149.34,-678.5 3159.34,-675 3149.34,-671.5 3149.34,-678.5"/>
<text text-anchor="middle" x="3101" y="-681.8" font-family="Times,serif" font-size="14.00">PHI Data flow</text>
</g>
<!-- d6 -->
<!-- d7 -->
<!-- d6&#45;&gt;d7 -->
<g id="edge61" class="edge">
<title>d6&#45;&gt;d7</title>
<path fill="none" stroke="green" d="M2905.5,-675C2917.44,-675 2979.8,-675 3006.43,-675"/>
<polygon fill="green" stroke="green" points="3006.45,-678.5 3016.45,-675 3006.45,-671.5 3006.45,-678.5"/>
<text text-anchor="middle" x="2961" y="-681.8" font-family="Times,serif" font-size="14.00">Memory flow</text>
</g>
<!-- d8 -->
<!-- d9 -->
<!-- d8&#45;&gt;d9 -->
<g id="edge62" class="edge">
<title>d8&#45;&gt;d9</title>
<path fill="none" stroke="fuchsia" d="M2782.61,-675C2793.65,-675 2845.17,-675 2869.16,-675"/>
<polygon fill="fuchsia" stroke="fuchsia" points="2869.4,-678.5 2879.4,-675 2869.4,-671.5 2869.4,-678.5"/>
<text text-anchor="middle" x="2831" y="-681.8" font-family="Times,serif" font-size="14.00">Dominance</text>
</g>
</g>
</svg>
