<?xml version="1.0" encoding="UTF-8" standalone="no"?>
<!DOCTYPE svg PUBLIC "-//W3C//DTD SVG 1.1//EN"
 "http://www.w3.org/Graphics/SVG/1.1/DTD/svg11.dtd">
<!-- Generated by graphviz version 2.43.0 (0)
 -->
<!-- Title: debugoutput Pages: 1 -->
<svg width="4503pt" height="651pt"
 viewBox="0.00 0.00 4502.84 650.80" xmlns="http://www.w3.org/2000/svg" xmlns:xlink="http://www.w3.org/1999/xlink">
<g id="graph0" class="graph" transform="scale(1 1) rotate(0) translate(4 646.8)">
<title>debugoutput</title>
<polygon fill="white" stroke="transparent" points="-4,4 -4,-646.8 4498.84,-646.8 4498.84,4 -4,4"/>
<g id="clust1" class="cluster">
<title>cluster_000</title>
<polygon fill="none" stroke="black" points="3475.34,-592.2 3475.34,-634.8 4451.34,-634.8 4451.34,-592.2 3475.34,-592.2"/>
<text text-anchor="middle" x="3963.34" y="-619.6" font-family="Times,serif" font-size="14.00">Legend</text>
</g>
<!-- node0 -->
<g id="node1" class="node">
<title>node0</title>
<polygon fill="lightgrey" stroke="black" points="3465.34,-620 3299.34,-620 3299.34,-584 3465.34,-584 3465.34,-620"/>
<text text-anchor="middle" x="3382.34" y="-598.3" font-family="Times,serif" font-size="14.00">#0 Method Order : 0</text>
</g>
<!-- node1 -->
<g id="node2" class="node">
<title>node1</title>
<polygon fill="lightgrey" stroke="black" points="4148.34,-547 3954.34,-547 3954.34,-511 4148.34,-511 4148.34,-547"/>
<text text-anchor="middle" x="4051.34" y="-525.3" font-family="Times,serif" font-size="14.00">#1 arg0 : List Order : 11</text>
</g>
<!-- node0&#45;&gt;node1 -->
<g id="edge2" class="edge">
<title>node0&#45;&gt;node1</title>
<path fill="none" stroke="black" d="M3462.82,-583.94C3627.67,-564.38 3671.1,-584.34 3836.34,-566 3873.44,-561.88 3913.98,-555.26 3949.78,-548.82"/>
<polygon fill="black" stroke="black" points="3950.54,-552.24 3959.75,-547.01 3949.29,-545.35 3950.54,-552.24"/>
<text text-anchor="middle" x="3943.43" y="-554.86" font-family="Times,serif" font-size="14.00">*0</text>
</g>
<!-- node2 -->
<g id="node3" class="node">
<title>node2</title>
<polygon fill="lightgrey" stroke="black" points="3674.34,-547 3488.34,-547 3488.34,-511 3674.34,-511 3674.34,-547"/>
<text text-anchor="middle" x="3581.34" y="-525.3" font-family="Times,serif" font-size="14.00">#2 arg1 : int Order : 10</text>
</g>
<!-- node0&#45;&gt;node2 -->
<g id="edge4" class="edge">
<title>node0&#45;&gt;node2</title>
<path fill="none" stroke="black" d="M3424.14,-583.99C3451.3,-573.92 3487.13,-561.1 3517.76,-550.48"/>
<polygon fill="black" stroke="black" points="3519.19,-553.69 3527.5,-547.11 3516.91,-547.07 3519.19,-553.69"/>
<text text-anchor="middle" x="3513.13" y="-557.32" font-family="Times,serif" font-size="14.00">*0</text>
</g>
<!-- node3 -->
<g id="node4" class="node">
<title>node3</title>
<polygon fill="lightgrey" stroke="black" points="4494.84,-547 4203.84,-547 4203.84,-511 4494.84,-511 4494.84,-547"/>
<text text-anchor="middle" x="4349.34" y="-525.3" font-family="Times,serif" font-size="14.00">#3 this : InvokeDynamicTest Order : 9</text>
</g>
<!-- node0&#45;&gt;node3 -->
<g id="edge6" class="edge">
<title>node0&#45;&gt;node3</title>
<path fill="none" stroke="black" d="M3462.8,-583.95C3780.25,-549.95 3864.29,-605.47 4181.34,-566 4210.1,-562.42 4241.3,-555.94 4268.96,-549.46"/>
<polygon fill="black" stroke="black" points="4270.06,-552.79 4278.98,-547.07 4268.44,-545.98 4270.06,-552.79"/>
<text text-anchor="middle" x="4263.3" y="-555.79" font-family="Times,serif" font-size="14.00">*0</text>
</g>
<!-- node4 -->
<g id="node5" class="node">
<title>node4</title>
<polygon fill="lightgrey" stroke="black" points="3880.34,-547 3692.34,-547 3692.34,-511 3880.34,-511 3880.34,-547"/>
<text text-anchor="middle" x="3786.34" y="-525.3" font-family="Times,serif" font-size="14.00">#4 LabelNode Order : 8</text>
</g>
<!-- node0&#45;&gt;node4 -->
<g id="edge8" class="edge">
<title>node0&#45;&gt;node4</title>
<path fill="none" stroke="red" d="M3462.75,-583.93C3535.78,-570.69 3618.44,-556.56 3681.98,-546.08"/>
<polygon fill="red" stroke="red" points="3682.71,-549.51 3692.01,-544.43 3681.58,-542.6 3682.71,-549.51"/>
</g>
<!-- node5 -->
<g id="node6" class="node">
<title>node5</title>
<polygon fill="lightgrey" stroke="black" points="4085.84,-474 3718.84,-474 3718.84,-438 4085.84,-438 4085.84,-474"/>
<text text-anchor="middle" x="3902.34" y="-452.3" font-family="Times,serif" font-size="14.00">#5 Invoke interface stream : ()Stream Order : 12</text>
</g>
<!-- node0&#45;&gt;node5 -->
<g id="edge12" class="edge">
<title>node0&#45;&gt;node5</title>
<path fill="none" stroke="green" d="M3462.61,-583.96C3509.84,-577.57 3846.54,-578.99 3880.34,-547 3896.96,-531.27 3898.93,-504.5 3899.14,-484.23"/>
<polygon fill="green" stroke="green" points="3902.64,-484.05 3899.16,-474.04 3895.64,-484.03 3902.64,-484.05"/>
</g>
<!-- node6 -->
<g id="node7" class="node">
<title>node6</title>
<polygon fill="lightgreen" stroke="black" points="2017.22,-521.54 2017.22,-536.46 1699.79,-547 1250.89,-547 933.46,-536.46 933.46,-521.54 1250.89,-511 1699.79,-511 2017.22,-521.54"/>
<text text-anchor="middle" x="1475.34" y="-525.3" font-family="Times,serif" font-size="14.00">#6 MethodHandle : invokeStatic : InvokeDynamicTest.lambda$countList$0 (int,Integer)boolean Order : 7</text>
</g>
<!-- node0&#45;&gt;node6 -->
<g id="edge14" class="edge">
<title>node0&#45;&gt;node6</title>
<path fill="none" stroke="black" stroke-dasharray="1,5" d="M3299.3,-598.02C3048.05,-588.81 2285.57,-560.46 1829.85,-543.4"/>
<polygon fill="black" stroke="black" points="1829.94,-539.9 1819.82,-543.03 1829.68,-546.9 1829.94,-539.9"/>
</g>
<!-- node7 -->
<g id="node8" class="node">
<title>node7</title>
<polygon fill="lightgreen" stroke="black" points="2501.96,-521.54 2501.96,-536.46 2365.11,-547 2171.57,-547 2034.72,-536.46 2034.72,-521.54 2171.57,-511 2365.11,-511 2501.96,-521.54"/>
<text text-anchor="middle" x="2268.34" y="-525.3" font-family="Times,serif" font-size="14.00">#7 MethodType : (Integer)boolean Order : 6</text>
</g>
<!-- node0&#45;&gt;node7 -->
<g id="edge16" class="edge">
<title>node0&#45;&gt;node7</title>
<path fill="none" stroke="black" stroke-dasharray="1,5" d="M3299.14,-596.37C3142.8,-587.28 2794.87,-566.3 2502.34,-547 2481.94,-545.65 2460.58,-544.21 2439.41,-542.75"/>
<polygon fill="black" stroke="black" points="2439.58,-539.26 2429.37,-542.06 2439.1,-546.24 2439.58,-539.26"/>
</g>
<!-- node8 -->
<g id="node9" class="node">
<title>node8</title>
<polygon fill="lightgreen" stroke="black" points="458.52,-521.54 458.52,-536.46 324.27,-547 134.41,-547 0.16,-536.46 0.16,-521.54 134.41,-511 324.27,-511 458.52,-521.54"/>
<text text-anchor="middle" x="229.34" y="-525.3" font-family="Times,serif" font-size="14.00">#8 MethodType : (Object)boolean Order : 5</text>
</g>
<!-- node0&#45;&gt;node8 -->
<g id="edge18" class="edge">
<title>node0&#45;&gt;node8</title>
<path fill="none" stroke="black" stroke-dasharray="1,5" d="M3299.1,-599.74C3021.94,-595.42 2105.49,-580.63 1348.34,-566 953.21,-558.36 854.12,-565.25 459.34,-547 437.35,-545.98 414.24,-544.66 391.49,-543.2"/>
<polygon fill="black" stroke="black" points="391.62,-539.7 381.42,-542.55 391.17,-546.69 391.62,-539.7"/>
</g>
<!-- node9 -->
<g id="node10" class="node">
<title>node9</title>
<polygon fill="lightgreen" stroke="black" points="915.82,-521.54 915.82,-536.46 787.25,-547 605.43,-547 476.86,-536.46 476.86,-521.54 605.43,-511 787.25,-511 915.82,-521.54"/>
<text text-anchor="middle" x="696.34" y="-525.3" font-family="Times,serif" font-size="14.00">#9 MethodType : (int)Predicate Order : 4</text>
</g>
<!-- node0&#45;&gt;node9 -->
<g id="edge20" class="edge">
<title>node0&#45;&gt;node9</title>
<path fill="none" stroke="black" stroke-dasharray="1,5" d="M3299.1,-600.77C2986.01,-599.55 1849.83,-592.07 915.34,-547 894.63,-546 872.88,-544.7 851.46,-543.27"/>
<polygon fill="black" stroke="black" points="851.52,-539.76 841.31,-542.58 851.05,-546.75 851.52,-539.76"/>
</g>
<!-- node10 -->
<g id="node11" class="node">
<title>node10</title>
<polygon fill="lightgreen" stroke="black" points="3394.75,-521.54 3394.75,-536.46 3270.32,-547 3094.36,-547 2969.93,-536.46 2969.93,-521.54 3094.36,-511 3270.32,-511 3394.75,-521.54"/>
<text text-anchor="middle" x="3182.34" y="-525.3" font-family="Times,serif" font-size="14.00">#10 Class InvokeDynamicTest Order : 2</text>
</g>
<!-- node0&#45;&gt;node10 -->
<g id="edge22" class="edge">
<title>node0&#45;&gt;node10</title>
<path fill="none" stroke="black" stroke-dasharray="1,5" d="M3328.57,-583.99C3299.27,-573.97 3263.23,-561.21 3234.22,-550.62"/>
<polygon fill="black" stroke="black" points="3235.27,-547.27 3224.68,-547.11 3232.86,-553.84 3235.27,-547.27"/>
</g>
<!-- node11 -->
<g id="node12" class="node">
<title>node11</title>
<polygon fill="lightgreen" stroke="black" points="2952.28,-521.54 2952.28,-536.46 2825.79,-547 2646.89,-547 2520.39,-536.46 2520.39,-521.54 2646.89,-511 2825.79,-511 2952.28,-521.54"/>
<text text-anchor="middle" x="2736.34" y="-525.3" font-family="Times,serif" font-size="14.00">#11 Class LambdaMetafactory Order : 1</text>
</g>
<!-- node0&#45;&gt;node11 -->
<g id="edge24" class="edge">
<title>node0&#45;&gt;node11</title>
<path fill="none" stroke="black" stroke-dasharray="1,5" d="M3299.17,-592.36C3190.46,-580.69 2998.85,-559.67 2869.74,-545.28"/>
<polygon fill="black" stroke="black" points="2870.1,-541.8 2859.78,-544.17 2869.33,-548.76 2870.1,-541.8"/>
</g>
<!-- node1&#45;&gt;node0 -->
<g id="edge1" class="edge">
<title>node1&#45;&gt;node0</title>
<path fill="none" stroke="fuchsia" stroke-width="2" d="M3976.22,-547.01C3939.63,-554 3894.93,-561.49 3854.34,-566 3688.94,-584.36 3645.59,-564.34 3480.34,-584 3478.83,-584.18 3477.3,-584.37 3475.76,-584.57"/>
<polygon fill="fuchsia" stroke="fuchsia" stroke-width="2" points="3474.91,-581.16 3465.5,-586.02 3475.89,-588.09 3474.91,-581.16"/>
</g>
<!-- node1&#45;&gt;node5 -->
<g id="edge10" class="edge">
<title>node1&#45;&gt;node5</title>
<path fill="none" stroke="black" d="M4015.65,-510.99C3995.16,-501.23 3969.23,-488.88 3947.35,-478.45"/>
<polygon fill="black" stroke="black" points="3948.79,-475.26 3938.25,-474.11 3945.77,-481.57 3948.79,-475.26"/>
<text text-anchor="middle" x="3958.25" y="-470.58" font-family="Times,serif" font-size="14.00">*0</text>
</g>
<!-- node2&#45;&gt;node0 -->
<g id="edge3" class="edge">
<title>node2&#45;&gt;node0</title>
<path fill="none" stroke="fuchsia" stroke-width="2" d="M3539.24,-547.11C3512.03,-557.2 3476.18,-570.03 3445.59,-580.63"/>
<polygon fill="fuchsia" stroke="fuchsia" stroke-width="2" points="3444.17,-577.42 3435.86,-583.99 3446.46,-584.04 3444.17,-577.42"/>
</g>
<!-- node15 -->
<g id="node16" class="node">
<title>node15</title>
<polygon fill="lightgrey" stroke="black" points="3824.84,-255 3439.84,-255 3439.84,-219 3824.84,-219 3824.84,-255"/>
<text text-anchor="middle" x="3632.34" y="-233.3" font-family="Times,serif" font-size="14.00">#15 Invoke dynamic test : (int)Predicate Order : 15</text>
</g>
<!-- node2&#45;&gt;node15 -->
<g id="edge40" class="edge">
<title>node2&#45;&gt;node15</title>
<path fill="none" stroke="black" d="M3562.36,-510.99C3549.69,-497.7 3535.34,-478 3535.34,-457 3535.34,-457 3535.34,-457 3535.34,-309 3535.34,-286.92 3551.91,-270.96 3571.35,-259.84"/>
<polygon fill="black" stroke="black" points="3573.21,-262.82 3580.43,-255.07 3569.95,-256.62 3573.21,-262.82"/>
<text text-anchor="middle" x="3568.32" y="-267.28" font-family="Times,serif" font-size="14.00">*1</text>
</g>
<!-- node3&#45;&gt;node0 -->
<g id="edge5" class="edge">
<title>node3&#45;&gt;node0</title>
<path fill="none" stroke="fuchsia" stroke-width="2" d="M4295.35,-547.07C4267,-554.31 4231.64,-561.98 4199.34,-566 3882.13,-605.49 3798.17,-549.9 3480.34,-584 3478.82,-584.16 3477.3,-584.34 3475.76,-584.52"/>
<polygon fill="fuchsia" stroke="fuchsia" stroke-width="2" points="3474.94,-581.1 3465.49,-585.89 3475.86,-588.04 3474.94,-581.1"/>
</g>
<!-- node4&#45;&gt;node0 -->
<g id="edge7" class="edge">
<title>node4&#45;&gt;node0</title>
<path fill="none" stroke="fuchsia" stroke-width="2" d="M3692.28,-546.96C3631.74,-557.36 3551.45,-571.11 3480.34,-584 3478.84,-584.27 3477.33,-584.55 3475.8,-584.83"/>
<polygon fill="fuchsia" stroke="fuchsia" stroke-width="2" points="3474.8,-581.45 3465.6,-586.7 3476.07,-588.33 3474.8,-581.45"/>
</g>
<!-- node4&#45;&gt;node5 -->
<g id="edge11" class="edge">
<title>node4&#45;&gt;node5</title>
<path fill="none" stroke="red" d="M3814.12,-510.99C3829.51,-501.58 3848.82,-489.76 3865.46,-479.57"/>
<polygon fill="red" stroke="red" points="3867.68,-482.32 3874.38,-474.11 3864.02,-476.35 3867.68,-482.32"/>
</g>
<!-- node5&#45;&gt;node0 -->
<g id="edge9" class="edge">
<title>node5&#45;&gt;node0</title>
<path fill="none" stroke="fuchsia" stroke-width="2" d="M3911.79,-474.04C3917.16,-494.52 3917.95,-528.44 3898.34,-547 3864.47,-579.05 3526.52,-577.56 3480.34,-584 3478.83,-584.21 3477.31,-584.43 3475.77,-584.66"/>
<polygon fill="fuchsia" stroke="fuchsia" stroke-width="2" points="3474.87,-581.25 3465.53,-586.25 3475.95,-588.17 3474.87,-581.25"/>
</g>
<!-- node12 -->
<g id="node13" class="node">
<title>node12</title>
<polygon fill="lightgreen" stroke="black" points="3865.34,-375.54 3865.34,-390.46 3776.89,-401 3651.79,-401 3563.34,-390.46 3563.34,-375.54 3651.79,-365 3776.89,-365 3865.34,-375.54"/>
<text text-anchor="middle" x="3714.34" y="-379.3" font-family="Times,serif" font-size="14.00">#12 String : test Order : 13</text>
</g>
<!-- node5&#45;&gt;node12 -->
<g id="edge26" class="edge">
<title>node5&#45;&gt;node12</title>
<path fill="none" stroke="black" stroke-dasharray="1,5" d="M3851.45,-437.99C3824.08,-428.06 3790.54,-415.43 3763.45,-404.89"/>
<polygon fill="black" stroke="black" points="3764.37,-401.5 3753.78,-401.11 3761.82,-408.02 3764.37,-401.5"/>
</g>
<!-- node5&#45;&gt;node15 -->
<g id="edge41" class="edge">
<title>node5&#45;&gt;node15</title>
<path fill="none" stroke="green" d="M3894.47,-437.89C3889.49,-418.28 3882.93,-386.12 3865.34,-365 3820.81,-311.55 3747.9,-277.66 3695.42,-258.47"/>
<polygon fill="green" stroke="green" points="3696.47,-255.12 3685.87,-255.05 3694.11,-261.71 3696.47,-255.12"/>
</g>
<!-- node5&#45;&gt;node15 -->
<g id="edge42" class="edge">
<title>node5&#45;&gt;node15</title>
<path fill="none" stroke="red" d="M3907.38,-437.89C3907.49,-418.28 3900.93,-386.12 3883.34,-365 3838.63,-311.33 3765.3,-277.38 3709.35,-258.23"/>
<polygon fill="red" stroke="red" points="3710.41,-254.89 3699.82,-255.05 3708.2,-261.54 3710.41,-254.89"/>
</g>
<!-- node16 -->
<g id="node17" class="node">
<title>node16</title>
<polygon fill="lightgrey" stroke="black" points="4052.34,-182 3624.34,-182 3624.34,-146 4052.34,-146 4052.34,-182"/>
<text text-anchor="middle" x="3838.34" y="-160.3" font-family="Times,serif" font-size="14.00">#16 Invoke interface filter : (Predicate)Stream Order : 16</text>
</g>
<!-- node5&#45;&gt;node16 -->
<g id="edge44" class="edge">
<title>node5&#45;&gt;node16</title>
<path fill="none" stroke="black" d="M3922,-437.79C3934.88,-424.54 3949.34,-404.99 3949.34,-384 3949.34,-384 3949.34,-384 3949.34,-236 3949.34,-213.08 3932.34,-197.23 3911.64,-186.42"/>
<polygon fill="black" stroke="black" points="3913.12,-183.24 3902.59,-182.09 3910.1,-189.56 3913.12,-183.24"/>
<text text-anchor="middle" x="3922.59" y="-178.58" font-family="Times,serif" font-size="14.00">*0</text>
</g>
<!-- node6&#45;&gt;node0 -->
<g id="edge13" class="edge">
<title>node6&#45;&gt;node0</title>
<path fill="none" stroke="fuchsia" stroke-width="2" d="M1825.61,-542.84C2274.71,-559.47 3026.71,-587.5 3288.85,-597.4"/>
<polygon fill="fuchsia" stroke="fuchsia" stroke-width="2" points="3288.97,-600.91 3299.09,-597.79 3289.23,-593.91 3288.97,-600.91"/>
</g>
<!-- node14 -->
<g id="node15" class="node">
<title>node14</title>
<polygon fill="lightgrey" stroke="black" points="3239.84,-328 2232.84,-328 2232.84,-292 3239.84,-292 3239.84,-328"/>
<text text-anchor="middle" x="2736.34" y="-306.3" font-family="Times,serif" font-size="14.00">#14 Invoke static metafactory : (MethodHandles$Lookup,String,MethodType,MethodType,MethodHandle,MethodType)CallSite Order : 14</text>
</g>
<!-- node6&#45;&gt;node14 -->
<g id="edge36" class="edge">
<title>node6&#45;&gt;node14</title>
<path fill="none" stroke="black" d="M1574.29,-510.97C1806.65,-470.99 2385.74,-371.33 2627.56,-329.72"/>
<polygon fill="black" stroke="black" points="2628.15,-333.17 2637.41,-328.02 2626.97,-326.27 2628.15,-333.17"/>
<text text-anchor="middle" x="2620.98" y="-335.73" font-family="Times,serif" font-size="14.00">*5</text>
</g>
<!-- node7&#45;&gt;node0 -->
<g id="edge15" class="edge">
<title>node7&#45;&gt;node0</title>
<path fill="none" stroke="fuchsia" stroke-width="2" d="M2437.97,-541.43C2465.54,-543.33 2493.75,-545.25 2520.34,-547 2800.29,-565.47 3130.99,-585.48 3289.12,-595.13"/>
<polygon fill="fuchsia" stroke="fuchsia" stroke-width="2" points="3289.09,-598.63 3299.29,-595.75 3289.52,-591.65 3289.09,-598.63"/>
</g>
<!-- node7&#45;&gt;node14 -->
<g id="edge37" class="edge">
<title>node7&#45;&gt;node14</title>
<path fill="none" stroke="black" d="M2305.06,-510.97C2389.54,-471.8 2597.5,-375.38 2690.32,-332.34"/>
<polygon fill="black" stroke="black" points="2691.86,-335.48 2699.46,-328.1 2688.92,-329.13 2691.86,-335.48"/>
<text text-anchor="middle" x="2686.57" y="-339.69" font-family="Times,serif" font-size="14.00">*6</text>
</g>
<!-- node8&#45;&gt;node0 -->
<g id="edge17" class="edge">
<title>node8&#45;&gt;node0</title>
<path fill="none" stroke="fuchsia" stroke-width="2" d="M389.5,-541.9C418.75,-543.87 448.98,-545.69 477.34,-547 872.12,-565.25 971.21,-558.36 1366.34,-566 2107.73,-580.33 3001.87,-594.8 3288.91,-599.46"/>
<polygon fill="fuchsia" stroke="fuchsia" stroke-width="2" points="3289.22,-602.96 3299.27,-599.63 3289.33,-595.96 3289.22,-602.96"/>
</g>
<!-- node8&#45;&gt;node14 -->
<g id="edge35" class="edge">
<title>node8&#45;&gt;node14</title>
<path fill="none" stroke="black" d="M358.07,-513.62C634.85,-483.04 1307.34,-410.67 1872.34,-365 2049.79,-350.66 2248.02,-338.03 2409.79,-328.59"/>
<polygon fill="black" stroke="black" points="2410.13,-332.08 2419.91,-328 2409.72,-325.09 2410.13,-332.08"/>
<text text-anchor="middle" x="2402.3" y="-333.8" font-family="Times,serif" font-size="14.00">*4</text>
</g>
<!-- node9&#45;&gt;node0 -->
<g id="edge19" class="edge">
<title>node9&#45;&gt;node0</title>
<path fill="none" stroke="fuchsia" stroke-width="2" d="M849.53,-541.91C877.44,-543.88 906.28,-545.69 933.34,-547 1851.2,-591.27 2963.64,-599.27 3288.9,-600.7"/>
<polygon fill="fuchsia" stroke="fuchsia" stroke-width="2" points="3289.2,-604.2 3299.22,-600.74 3289.23,-597.2 3289.2,-604.2"/>
</g>
<!-- node9&#45;&gt;node14 -->
<g id="edge34" class="edge">
<title>node9&#45;&gt;node14</title>
<path fill="none" stroke="black" d="M824.26,-514.03C1085.09,-485.6 1697.17,-419.1 2211.34,-365 2327.08,-352.82 2457.22,-339.43 2558.97,-329.04"/>
<polygon fill="black" stroke="black" points="2559.44,-332.5 2569.04,-328.01 2558.73,-325.54 2559.44,-332.5"/>
<text text-anchor="middle" x="2551.86" y="-334.56" font-family="Times,serif" font-size="14.00">*3</text>
</g>
<!-- node10&#45;&gt;node0 -->
<g id="edge21" class="edge">
<title>node10&#45;&gt;node0</title>
<path fill="none" stroke="fuchsia" stroke-width="2" d="M3236.42,-547.11C3265.77,-557.16 3301.81,-569.92 3330.76,-580.5"/>
<polygon fill="fuchsia" stroke="fuchsia" stroke-width="2" points="3329.7,-583.83 3340.29,-583.99 3332.11,-577.26 3329.7,-583.83"/>
</g>
<!-- node13 -->
<g id="node14" class="node">
<title>node13</title>
<polygon fill="lightgrey" stroke="black" points="3394.34,-474 2928.34,-474 2928.34,-438 3394.34,-438 3394.34,-474"/>
<text text-anchor="middle" x="3161.34" y="-452.3" font-family="Times,serif" font-size="14.00">#13 Invoke static in : (Class)MethodHandles$Lookup Order : 3</text>
</g>
<!-- node10&#45;&gt;node13 -->
<g id="edge28" class="edge">
<title>node10&#45;&gt;node13</title>
<path fill="none" stroke="black" d="M3165.5,-510.81C3161.45,-502.79 3158.1,-493.05 3156.19,-484.07"/>
<polygon fill="black" stroke="black" points="3159.63,-483.38 3154.65,-474.03 3152.71,-484.44 3159.63,-483.38"/>
<text text-anchor="middle" x="3165.75" y="-486.97" font-family="Times,serif" font-size="14.00">*0</text>
</g>
<!-- node10&#45;&gt;node13 -->
<g id="edge29" class="edge">
<title>node10&#45;&gt;node13</title>
<path fill="none" stroke="black" d="M3189.01,-510.81C3188.29,-502.53 3185.74,-492.41 3182.16,-483.19"/>
<polygon fill="black" stroke="black" points="3185.35,-481.75 3178.1,-474.03 3178.96,-484.59 3185.35,-481.75"/>
<text text-anchor="middle" x="3193.18" y="-483.47" font-family="Times,serif" font-size="14.00">*1</text>
</g>
<!-- node11&#45;&gt;node0 -->
<g id="edge23" class="edge">
<title>node11&#45;&gt;node0</title>
<path fill="none" stroke="fuchsia" stroke-width="2" d="M2866.07,-543.66C2991.23,-557.21 3177.55,-577.7 3288.82,-590.17"/>
<polygon fill="fuchsia" stroke="fuchsia" stroke-width="2" points="3288.69,-593.68 3299.02,-591.31 3289.47,-586.72 3288.69,-593.68"/>
</g>
<!-- node11&#45;&gt;node14 -->
<g id="edge31" class="edge">
<title>node11&#45;&gt;node14</title>
<path fill="none" stroke="black" d="M2736.34,-510.97C2736.34,-473.51 2736.34,-383.68 2736.34,-338.26"/>
<polygon fill="black" stroke="black" points="2739.84,-338.25 2736.34,-328.25 2732.84,-338.25 2739.84,-338.25"/>
<text text-anchor="middle" x="2744.79" y="-342.67" font-family="Times,serif" font-size="14.00">*0</text>
</g>
<!-- node12&#45;&gt;node5 -->
<g id="edge25" class="edge">
<title>node12&#45;&gt;node5</title>
<path fill="none" stroke="fuchsia" stroke-width="2" d="M3765.52,-401.11C3792.94,-411.07 3826.47,-423.69 3853.52,-434.22"/>
<polygon fill="fuchsia" stroke="fuchsia" stroke-width="2" points="3852.58,-437.61 3863.17,-437.99 3855.13,-431.09 3852.58,-437.61"/>
</g>
<!-- node12&#45;&gt;node14 -->
<g id="edge33" class="edge">
<title>node12&#45;&gt;node14</title>
<path fill="none" stroke="black" d="M3623.13,-368.35C3568.97,-360.7 3498.87,-351.6 3436.34,-346 3357.6,-338.94 3273.74,-333.22 3192.43,-328.59"/>
<polygon fill="black" stroke="black" points="3192.19,-325.08 3182.01,-328.01 3191.8,-332.06 3192.19,-325.08"/>
<text text-anchor="middle" x="3200.58" y="-316.89" font-family="Times,serif" font-size="14.00">*2</text>
</g>
<!-- node13&#45;&gt;node10 -->
<g id="edge27" class="edge">
<title>node13&#45;&gt;node10</title>
<path fill="none" stroke="fuchsia" stroke-width="2" d="M3166.38,-474.03C3168.77,-482.12 3171.68,-491.98 3174.37,-501.05"/>
<polygon fill="fuchsia" stroke="fuchsia" stroke-width="2" points="3171.06,-502.22 3177.26,-510.81 3177.77,-500.23 3171.06,-502.22"/>
</g>
<!-- node13&#45;&gt;node14 -->
<g id="edge32" class="edge">
<title>node13&#45;&gt;node14</title>
<path fill="none" stroke="black" d="M3110.92,-437.92C3032.24,-411.26 2880.57,-359.87 2796.37,-331.34"/>
<polygon fill="black" stroke="black" points="2797.29,-327.96 2786.69,-328.06 2795.04,-334.59 2797.29,-327.96"/>
<text text-anchor="middle" x="2806.57" y="-322.17" font-family="Times,serif" font-size="14.00">*1</text>
</g>
<!-- node14&#45;&gt;node0 -->
<g id="edge30" class="edge">
<title>node14&#45;&gt;node0</title>
<path fill="none" stroke="fuchsia" stroke-width="2" d="M3229.42,-328.04C3338.49,-338.47 3422.34,-355.21 3422.34,-382 3422.34,-530 3422.34,-530 3422.34,-530 3422.34,-546.55 3413.98,-562.81 3404.91,-575.58"/>
<polygon fill="fuchsia" stroke="fuchsia" stroke-width="2" points="3401.9,-573.75 3398.61,-583.82 3407.46,-578 3401.9,-573.75"/>
</g>
<!-- node14&#45;&gt;node15 -->
<g id="edge39" class="edge">
<title>node14&#45;&gt;node15</title>
<path fill="none" stroke="black" d="M2950.95,-291.99C3096.18,-280.49 3286.81,-265.38 3429.5,-254.07"/>
<polygon fill="black" stroke="black" points="3429.99,-257.55 3439.69,-253.27 3429.44,-250.57 3429.99,-257.55"/>
<text text-anchor="middle" x="3422.28" y="-259.42" font-family="Times,serif" font-size="14.00">*0</text>
</g>
<!-- node15&#45;&gt;node0 -->
<g id="edge38" class="edge">
<title>node15&#45;&gt;node0</title>
<path fill="none" stroke="fuchsia" stroke-width="2" d="M3501.97,-255.1C3477.99,-265.71 3460.34,-282.51 3460.34,-309 3460.34,-530 3460.34,-530 3460.34,-530 3460.34,-550.43 3445.53,-566.53 3428.81,-578.21"/>
<polygon fill="fuchsia" stroke="fuchsia" stroke-width="2" points="3426.48,-575.55 3419.97,-583.91 3430.27,-581.43 3426.48,-575.55"/>
</g>
<!-- node15&#45;&gt;node16 -->
<g id="edge45" class="edge">
<title>node15&#45;&gt;node16</title>
<path fill="none" stroke="black" d="M3669.96,-218.99C3697.27,-208.84 3734.67,-195.88 3767.4,-185.2"/>
<polygon fill="black" stroke="black" points="3768.51,-188.52 3776.94,-182.11 3766.35,-181.86 3768.51,-188.52"/>
<text text-anchor="middle" x="3762.3" y="-192.04" font-family="Times,serif" font-size="14.00">*1</text>
</g>
<!-- node15&#45;&gt;node16 -->
<g id="edge46" class="edge">
<title>node15&#45;&gt;node16</title>
<path fill="none" stroke="red" d="M3681.68,-218.99C3710.9,-208.92 3748.1,-196.1 3778.92,-185.48"/>
<polygon fill="red" stroke="red" points="3780.37,-188.68 3788.69,-182.11 3778.09,-182.06 3780.37,-188.68"/>
</g>
<!-- node15&#45;&gt;node16 -->
<g id="edge47" class="edge">
<title>node15&#45;&gt;node16</title>
<path fill="none" stroke="green" d="M3693.4,-218.99C3724.61,-208.97 3761.85,-196.21 3790.91,-185.62"/>
<polygon fill="green" stroke="green" points="3792.25,-188.85 3800.43,-182.11 3789.83,-182.28 3792.25,-188.85"/>
</g>
<!-- node16&#45;&gt;node0 -->
<g id="edge43" class="edge">
<title>node16&#45;&gt;node0</title>
<path fill="none" stroke="fuchsia" stroke-width="2" d="M4052.4,-177.11C4119.48,-186.92 4176.34,-204.52 4176.34,-236 4176.34,-530 4176.34,-530 4176.34,-530 4176.34,-605.95 3590.31,-576.95 3475.75,-583.86"/>
<polygon fill="fuchsia" stroke="fuchsia" stroke-width="2" points="3475.33,-580.39 3465.66,-584.71 3475.92,-587.36 3475.33,-580.39"/>
</g>
<!-- node17 -->
<g id="node18" class="node">
<title>node17</title>
<polygon fill="lightgrey" stroke="black" points="4010.34,-109 3666.34,-109 3666.34,-73 4010.34,-73 4010.34,-109"/>
<text text-anchor="middle" x="3838.34" y="-87.3" font-family="Times,serif" font-size="14.00">#17 Invoke interface count : ()long Order : 17</text>
</g>
<!-- node16&#45;&gt;node17 -->
<g id="edge49" class="edge">
<title>node16&#45;&gt;node17</title>
<path fill="none" stroke="black" d="M3820.7,-145.81C3818.19,-137.79 3817.49,-128.05 3818.6,-119.07"/>
<polygon fill="black" stroke="black" points="3822.08,-119.54 3820.75,-109.03 3815.24,-118.07 3822.08,-119.54"/>
<text text-anchor="middle" x="3825.23" y="-124.82" font-family="Times,serif" font-size="14.00">*0</text>
</g>
<!-- node16&#45;&gt;node17 -->
<g id="edge50" class="edge">
<title>node16&#45;&gt;node17</title>
<path fill="none" stroke="red" d="M3844.22,-145.81C3845.06,-137.79 3845.29,-128.05 3844.92,-119.07"/>
<polygon fill="red" stroke="red" points="3848.4,-118.75 3844.2,-109.03 3841.42,-119.25 3848.4,-118.75"/>
</g>
<!-- node16&#45;&gt;node17 -->
<g id="edge51" class="edge">
<title>node16&#45;&gt;node17</title>
<path fill="none" stroke="green" d="M3855.97,-145.81C3858.49,-137.79 3859.19,-128.05 3858.07,-119.07"/>
<polygon fill="green" stroke="green" points="3861.44,-118.07 3855.92,-109.03 3854.59,-119.54 3861.44,-118.07"/>
</g>
<!-- node17&#45;&gt;node16 -->
<g id="edge48" class="edge">
<title>node17&#45;&gt;node16</title>
<path fill="none" stroke="fuchsia" stroke-width="2" d="M3832.48,-109.03C3831.63,-117.03 3831.39,-126.77 3831.75,-135.75"/>
<polygon fill="fuchsia" stroke="fuchsia" stroke-width="2" points="3828.27,-136.08 3832.46,-145.81 3835.25,-135.59 3828.27,-136.08"/>
</g>
<!-- node18 -->
<g id="node19" class="node">
<title>node18</title>
<polygon fill="lightgrey" stroke="black" points="3969.34,-36 3707.34,-36 3707.34,0 3969.34,0 3969.34,-36"/>
<text text-anchor="middle" x="3838.34" y="-14.3" font-family="Times,serif" font-size="14.00">#18 ReturnValue : long Order : 18</text>
</g>
<!-- node17&#45;&gt;node18 -->
<g id="edge53" class="edge">
<title>node17&#45;&gt;node18</title>
<path fill="none" stroke="black" d="M3820.7,-72.81C3818.19,-64.79 3817.49,-55.05 3818.6,-46.07"/>
<polygon fill="black" stroke="black" points="3822.08,-46.54 3820.75,-36.03 3815.24,-45.07 3822.08,-46.54"/>
<text text-anchor="middle" x="3825.23" y="-51.82" font-family="Times,serif" font-size="14.00">*0</text>
</g>
<!-- node17&#45;&gt;node18 -->
<g id="edge54" class="edge">
<title>node17&#45;&gt;node18</title>
<path fill="none" stroke="red" d="M3844.22,-72.81C3845.06,-64.79 3845.29,-55.05 3844.92,-46.07"/>
<polygon fill="red" stroke="red" points="3848.4,-45.75 3844.2,-36.03 3841.42,-46.25 3848.4,-45.75"/>
</g>
<!-- node17&#45;&gt;node18 -->
<g id="edge55" class="edge">
<title>node17&#45;&gt;node18</title>
<path fill="none" stroke="green" d="M3855.97,-72.81C3858.49,-64.79 3859.19,-55.05 3858.07,-46.07"/>
<polygon fill="green" stroke="green" points="3861.44,-45.07 3855.92,-36.03 3854.59,-46.54 3861.44,-45.07"/>
</g>
<!-- node18&#45;&gt;node17 -->
<g id="edge52" class="edge">
<title>node18&#45;&gt;node17</title>
<path fill="none" stroke="fuchsia" stroke-width="2" d="M3832.48,-36.03C3831.63,-44.03 3831.39,-53.77 3831.75,-62.75"/>
<polygon fill="fuchsia" stroke="fuchsia" stroke-width="2" points="3828.27,-63.08 3832.46,-72.81 3835.25,-62.59 3828.27,-63.08"/>
</g>
<!-- c0 -->
<!-- c1 -->
<!-- c0&#45;&gt;c1 -->
<g id="edge56" class="edge">
<title>c0&#45;&gt;c1</title>
<path fill="none" stroke="red" d="M4334.23,-602C4345.45,-602 4403.58,-602 4429.2,-602"/>
<polygon fill="red" stroke="red" points="4429.39,-605.5 4439.39,-602 4429.39,-598.5 4429.39,-605.5"/>
<text text-anchor="middle" x="4386.84" y="-608.8" font-family="Times,serif" font-size="14.00">Control flow</text>
</g>
<!-- c2 -->
<!-- c3 -->
<!-- c2&#45;&gt;c3 -->
<g id="edge57" class="edge">
<title>c2&#45;&gt;c3</title>
<path fill="none" stroke="red" stroke-dasharray="5,2" d="M4127.42,-602C4144.39,-602 4260.54,-602 4298.42,-602"/>
<polygon fill="red" stroke="red" points="4298.51,-605.5 4308.51,-602 4298.51,-598.5 4298.51,-605.5"/>
<text text-anchor="middle" x="4217.84" y="-608.8" font-family="Times,serif" font-size="14.00">Control flow back edge</text>
</g>
<!-- d0 -->
<!-- d1 -->
<!-- d0&#45;&gt;d1 -->
<g id="edge58" class="edge">
<title>d0&#45;&gt;d1</title>
<path fill="none" stroke="black" d="M4016.2,-602C4025.74,-602 4069.65,-602 4091.26,-602"/>
<polygon fill="black" stroke="black" points="4091.49,-605.5 4101.49,-602 4091.49,-598.5 4091.49,-605.5"/>
<text text-anchor="middle" x="4058.84" y="-608.8" font-family="Times,serif" font-size="14.00">Data flow</text>
</g>
<!-- d2 -->
<!-- d3 -->
<!-- d2&#45;&gt;d3 -->
<g id="edge59" class="edge">
<title>d2&#45;&gt;d3</title>
<path fill="none" stroke="black" stroke-dasharray="1,5" d="M3890.14,-602C3900.79,-602 3955.8,-602 3980.41,-602"/>
<polygon fill="black" stroke="black" points="3980.48,-605.5 3990.48,-602 3980.48,-598.5 3980.48,-605.5"/>
<text text-anchor="middle" x="3940.34" y="-608.8" font-family="Times,serif" font-size="14.00">Declaration</text>
</g>
<!-- d4 -->
<!-- d5 -->
<!-- d4&#45;&gt;d5 -->
<g id="edge60" class="edge">
<title>d4&#45;&gt;d5</title>
<path fill="none" stroke="blue" d="M3747.44,-602C3760.06,-602 3826.22,-602 3854.02,-602"/>
<polygon fill="blue" stroke="blue" points="3854.18,-605.5 3864.18,-602 3854.18,-598.5 3854.18,-605.5"/>
<text text-anchor="middle" x="3805.84" y="-608.8" font-family="Times,serif" font-size="14.00">PHI Data flow</text>
</g>
<!-- d6 -->
<!-- d7 -->
<!-- d6&#45;&gt;d7 -->
<g id="edge61" class="edge">
<title>d6&#45;&gt;d7</title>
<path fill="none" stroke="green" d="M3610.33,-602C3622.28,-602 3684.64,-602 3711.27,-602"/>
<polygon fill="green" stroke="green" points="3711.29,-605.5 3721.29,-602 3711.29,-598.5 3711.29,-605.5"/>
<text text-anchor="middle" x="3665.84" y="-608.8" font-family="Times,serif" font-size="14.00">Memory flow</text>
</g>
<!-- d8 -->
<!-- d9 -->
<!-- d8&#45;&gt;d9 -->
<g id="edge62" class="edge">
<title>d8&#45;&gt;d9</title>
<path fill="none" stroke="fuchsia" d="M3487.45,-602C3498.49,-602 3550.01,-602 3573.99,-602"/>
<polygon fill="fuchsia" stroke="fuchsia" points="3574.24,-605.5 3584.24,-602 3574.24,-598.5 3574.24,-605.5"/>
<text text-anchor="middle" x="3535.84" y="-608.8" font-family="Times,serif" font-size="14.00">Dominance</text>
</g>
</g>
</svg>
