<?xml version="1.0" encoding="UTF-8" standalone="no"?>
<!DOCTYPE svg PUBLIC "-//W3C//DTD SVG 1.1//EN"
 "http://www.w3.org/Graphics/SVG/1.1/DTD/svg11.dtd">
<!-- Generated by graphviz version 2.43.0 (0)
 -->
<!-- Title: debugoutput Pages: 1 -->
<svg width="4502pt" height="651pt"
 viewBox="0.00 0.00 4501.50 650.80" xmlns="http://www.w3.org/2000/svg" xmlns:xlink="http://www.w3.org/1999/xlink">
<g id="graph0" class="graph" transform="scale(1 1) rotate(0) translate(4 646.8)">
<title>debugoutput</title>
<polygon fill="white" stroke="transparent" points="-4,4 -4,-646.8 4497.5,-646.8 4497.5,4 -4,4"/>
<g id="clust1" class="cluster">
<title>cluster_000</title>
<polygon fill="none" stroke="black" points="3059,-592.2 3059,-634.8 3898,-634.8 3898,-592.2 3059,-592.2"/>
<text text-anchor="middle" x="3478.5" y="-619.6" font-family="Times,serif" font-size="14.00">Legend</text>
</g>
<!-- node0 -->
<g id="node1" class="node">
<title>node0</title>
<polygon fill="lightgrey" stroke="black" points="3049,-620 2883,-620 2883,-584 3049,-584 3049,-620"/>
<text text-anchor="middle" x="2966" y="-598.3" font-family="Times,serif" font-size="14.00">#0 Method Order : 0</text>
</g>
<!-- node1 -->
<g id="node2" class="node">
<title>node1</title>
<polygon fill="lightgrey" stroke="black" points="186,-547 0,-547 0,-511 186,-511 186,-547"/>
<text text-anchor="middle" x="93" y="-525.3" font-family="Times,serif" font-size="14.00">#1 arg1 : int Order : 14</text>
</g>
<!-- node0&#45;&gt;node1 -->
<g id="edge2" class="edge">
<title>node0&#45;&gt;node1</title>
<path fill="none" stroke="black" d="M2882.96,-600.63C2580.14,-599.06 1507.09,-591.84 623,-566 432.09,-560.42 381.13,-567 195.81,-548.02"/>
<polygon fill="black" stroke="black" points="196.04,-544.52 185.73,-546.97 195.32,-551.48 196.04,-544.52"/>
<text text-anchor="middle" x="204.63" y="-536.73" font-family="Times,serif" font-size="14.00">*0</text>
</g>
<!-- node2 -->
<g id="node3" class="node">
<title>node2</title>
<polygon fill="lightgrey" stroke="black" points="4109,-547 3915,-547 3915,-511 4109,-511 4109,-547"/>
<text text-anchor="middle" x="4012" y="-525.3" font-family="Times,serif" font-size="14.00">#2 arg0 : List Order : 10</text>
</g>
<!-- node0&#45;&gt;node2 -->
<g id="edge4" class="edge">
<title>node0&#45;&gt;node2</title>
<path fill="none" stroke="black" d="M3046.27,-583.97C3233.47,-564.32 3706.68,-597.32 3892,-566 3911.73,-562.66 3932.76,-556.54 3951.67,-550.28"/>
<polygon fill="black" stroke="black" points="3952.99,-553.53 3961.35,-547.01 3950.75,-546.9 3952.99,-553.53"/>
<text text-anchor="middle" x="3946.88" y="-557.12" font-family="Times,serif" font-size="14.00">*0</text>
</g>
<!-- node3 -->
<g id="node4" class="node">
<title>node3</title>
<polygon fill="lightgrey" stroke="black" points="4493.5,-547 4202.5,-547 4202.5,-511 4493.5,-511 4493.5,-547"/>
<text text-anchor="middle" x="4348" y="-525.3" font-family="Times,serif" font-size="14.00">#3 this : InvokeDynamicTest Order : 9</text>
</g>
<!-- node0&#45;&gt;node3 -->
<g id="edge6" class="edge">
<title>node0&#45;&gt;node3</title>
<path fill="none" stroke="black" d="M3046.37,-583.96C3297.33,-558.3 3929.88,-595.97 4180,-566 4209.03,-562.52 4240.53,-555.99 4268.36,-549.43"/>
<polygon fill="black" stroke="black" points="4269.53,-552.75 4278.44,-547.02 4267.9,-545.94 4269.53,-552.75"/>
<text text-anchor="middle" x="4262.78" y="-555.76" font-family="Times,serif" font-size="14.00">*0</text>
</g>
<!-- node4 -->
<g id="node5" class="node">
<title>node4</title>
<polygon fill="lightgrey" stroke="black" points="3841,-547 3653,-547 3653,-511 3841,-511 3841,-547"/>
<text text-anchor="middle" x="3747" y="-525.3" font-family="Times,serif" font-size="14.00">#4 LabelNode Order : 8</text>
</g>
<!-- node0&#45;&gt;node4 -->
<g id="edge8" class="edge">
<title>node0&#45;&gt;node4</title>
<path fill="none" stroke="red" d="M3046.38,-583.95C3306.29,-551.13 3374.51,-576.6 3635,-547 3637.56,-546.71 3640.15,-546.4 3642.77,-546.07"/>
<polygon fill="red" stroke="red" points="3643.5,-549.5 3652.96,-544.73 3642.59,-542.56 3643.5,-549.5"/>
</g>
<!-- node5 -->
<g id="node6" class="node">
<title>node5</title>
<polygon fill="lightgrey" stroke="black" points="4061.5,-474 3694.5,-474 3694.5,-438 4061.5,-438 4061.5,-474"/>
<text text-anchor="middle" x="3878" y="-452.3" font-family="Times,serif" font-size="14.00">#5 Invoke interface stream : ()Stream Order : 11</text>
</g>
<!-- node0&#45;&gt;node5 -->
<g id="edge12" class="edge">
<title>node0&#45;&gt;node5</title>
<path fill="none" stroke="black" d="M3046.26,-583.97C3135.06,-573.68 3771.09,-601.01 3841,-547 3859.97,-532.35 3866.4,-505 3870.11,-484.28"/>
<polygon fill="black" stroke="black" points="3873.61,-484.6 3871.86,-474.15 3866.71,-483.41 3873.61,-484.6"/>
</g>
<!-- node6 -->
<g id="node7" class="node">
<title>node6</title>
<polygon fill="lightgreen" stroke="black" points="2728.88,-521.54 2728.88,-536.46 2411.45,-547 1962.55,-547 1645.12,-536.46 1645.12,-521.54 1962.55,-511 2411.45,-511 2728.88,-521.54"/>
<text text-anchor="middle" x="2187" y="-525.3" font-family="Times,serif" font-size="14.00">#6 MethodHandle : invokeStatic : InvokeDynamicTest.lambda$countList$0 (int,Integer)boolean Order : 7</text>
</g>
<!-- node0&#45;&gt;node6 -->
<g id="edge14" class="edge">
<title>node0&#45;&gt;node6</title>
<path fill="none" stroke="black" stroke-dasharray="1,5" d="M2882.74,-593.8C2763.18,-583.14 2539.61,-562.81 2378.1,-547.96"/>
<polygon fill="black" stroke="black" points="2378.32,-544.47 2368.04,-547.03 2377.67,-551.44 2378.32,-544.47"/>
</g>
<!-- node7 -->
<g id="node8" class="node">
<title>node7</title>
<polygon fill="lightgreen" stroke="black" points="3185.48,-521.54 3185.48,-536.46 3056.91,-547 2875.09,-547 2746.52,-536.46 2746.52,-521.54 2875.09,-511 3056.91,-511 3185.48,-521.54"/>
<text text-anchor="middle" x="2966" y="-525.3" font-family="Times,serif" font-size="14.00">#7 MethodType : (int)Predicate Order : 6</text>
</g>
<!-- node0&#45;&gt;node7 -->
<g id="edge16" class="edge">
<title>node0&#45;&gt;node7</title>
<path fill="none" stroke="black" stroke-dasharray="1,5" d="M2960.12,-583.81C2959.28,-575.79 2959.05,-566.05 2959.42,-557.07"/>
<polygon fill="black" stroke="black" points="2962.92,-557.25 2960.14,-547.03 2955.94,-556.75 2962.92,-557.25"/>
</g>
<!-- node8 -->
<g id="node9" class="node">
<title>node8</title>
<polygon fill="lightgreen" stroke="black" points="1142.18,-521.54 1142.18,-536.46 1007.93,-547 818.07,-547 683.82,-536.46 683.82,-521.54 818.07,-511 1007.93,-511 1142.18,-521.54"/>
<text text-anchor="middle" x="913" y="-525.3" font-family="Times,serif" font-size="14.00">#8 MethodType : (Object)boolean Order : 5</text>
</g>
<!-- node0&#45;&gt;node8 -->
<g id="edge18" class="edge">
<title>node0&#45;&gt;node8</title>
<path fill="none" stroke="black" stroke-dasharray="1,5" d="M2882.98,-599.82C2624.72,-595.79 1813.01,-580.93 1142,-547 1120.65,-545.92 1098.24,-544.59 1076.14,-543.14"/>
<polygon fill="black" stroke="black" points="1076.22,-539.64 1066.01,-542.47 1075.76,-546.62 1076.22,-539.64"/>
</g>
<!-- node9 -->
<g id="node10" class="node">
<title>node9</title>
<polygon fill="lightgreen" stroke="black" points="1627.62,-521.54 1627.62,-536.46 1490.77,-547 1297.23,-547 1160.38,-536.46 1160.38,-521.54 1297.23,-511 1490.77,-511 1627.62,-521.54"/>
<text text-anchor="middle" x="1394" y="-525.3" font-family="Times,serif" font-size="14.00">#9 MethodType : (Integer)boolean Order : 4</text>
</g>
<!-- node0&#45;&gt;node9 -->
<g id="edge20" class="edge">
<title>node0&#45;&gt;node9</title>
<path fill="none" stroke="black" stroke-dasharray="1,5" d="M2882.93,-598.62C2672.49,-592.21 2101.75,-573.31 1627,-547 1605.85,-545.83 1583.67,-544.46 1561.74,-543.02"/>
<polygon fill="black" stroke="black" points="1561.91,-539.52 1551.7,-542.35 1561.44,-546.51 1561.91,-539.52"/>
</g>
<!-- node10 -->
<g id="node11" class="node">
<title>node10</title>
<polygon fill="lightgreen" stroke="black" points="628.41,-521.54 628.41,-536.46 503.98,-547 328.02,-547 203.59,-536.46 203.59,-521.54 328.02,-511 503.98,-511 628.41,-521.54"/>
<text text-anchor="middle" x="416" y="-525.3" font-family="Times,serif" font-size="14.00">#10 Class InvokeDynamicTest Order : 2</text>
</g>
<!-- node0&#45;&gt;node10 -->
<g id="edge22" class="edge">
<title>node0&#45;&gt;node10</title>
<path fill="none" stroke="black" stroke-dasharray="1,5" d="M2882.76,-601.33C2520.85,-602.57 1082.62,-605 633,-566 591.03,-562.36 545.06,-555.56 506.24,-548.84"/>
<polygon fill="black" stroke="black" points="506.47,-545.33 496.01,-547.05 505.26,-552.22 506.47,-545.33"/>
</g>
<!-- node11 -->
<g id="node12" class="node">
<title>node11</title>
<polygon fill="lightgreen" stroke="black" points="3634.94,-521.54 3634.94,-536.46 3508.45,-547 3329.55,-547 3203.06,-536.46 3203.06,-521.54 3329.55,-511 3508.45,-511 3634.94,-521.54"/>
<text text-anchor="middle" x="3419" y="-525.3" font-family="Times,serif" font-size="14.00">#11 Class LambdaMetafactory Order : 1</text>
</g>
<!-- node0&#45;&gt;node11 -->
<g id="edge24" class="edge">
<title>node0&#45;&gt;node11</title>
<path fill="none" stroke="black" stroke-dasharray="1,5" d="M3046.47,-583.92C3128.25,-570.06 3220.63,-556.38 3292.97,-546.27"/>
<polygon fill="black" stroke="black" points="3293.63,-549.71 3303.05,-544.87 3292.66,-542.78 3293.63,-549.71"/>
</g>
<!-- node1&#45;&gt;node0 -->
<g id="edge1" class="edge">
<title>node1&#45;&gt;node0</title>
<path fill="none" stroke="green" stroke-width="2" d="M186.2,-544.86C192.22,-545.67 198.2,-546.39 204,-547 397.35,-567.24 446.68,-560.32 641,-566 1508.4,-591.36 2557.7,-598.78 2872.46,-600.53"/>
<polygon fill="green" stroke="green" stroke-width="2" points="2872.88,-604.03 2882.9,-600.59 2872.92,-597.03 2872.88,-604.03"/>
</g>
<!-- node15 -->
<g id="node16" class="node">
<title>node15</title>
<polygon fill="lightgrey" stroke="black" points="4070.5,-255 3685.5,-255 3685.5,-219 4070.5,-219 4070.5,-255"/>
<text text-anchor="middle" x="3878" y="-233.3" font-family="Times,serif" font-size="14.00">#15 Invoke dynamic test : (int)Predicate Order : 15</text>
</g>
<!-- node1&#45;&gt;node15 -->
<g id="edge40" class="edge">
<title>node1&#45;&gt;node15</title>
<path fill="none" stroke="black" d="M105.25,-510.82C113.92,-496.97 124,-476.64 124,-457 124,-457 124,-457 124,-309 124,-264.2 2894.01,-243.98 3675.15,-239.16"/>
<polygon fill="black" stroke="black" points="3675.4,-242.66 3685.38,-239.1 3675.36,-235.66 3675.4,-242.66"/>
<text text-anchor="middle" x="3667.3" y="-243.97" font-family="Times,serif" font-size="14.00">*1</text>
</g>
<!-- node2&#45;&gt;node0 -->
<g id="edge3" class="edge">
<title>node2&#45;&gt;node0</title>
<path fill="none" stroke="green" stroke-width="2" d="M3977.67,-547.01C3958.13,-554.32 3933.17,-562.08 3910,-566 3724.59,-597.34 3251.01,-564.29 3064,-584 3062.48,-584.16 3060.96,-584.33 3059.42,-584.51"/>
<polygon fill="green" stroke="green" stroke-width="2" points="3058.6,-581.09 3049.15,-585.87 3059.52,-588.03 3058.6,-581.09"/>
</g>
<!-- node2&#45;&gt;node5 -->
<g id="edge10" class="edge">
<title>node2&#45;&gt;node5</title>
<path fill="none" stroke="black" d="M3979.9,-510.99C3961.72,-501.36 3938.78,-489.21 3919.28,-478.87"/>
<polygon fill="black" stroke="black" points="3920.77,-475.7 3910.3,-474.11 3917.5,-481.89 3920.77,-475.7"/>
<text text-anchor="middle" x="3930.27" y="-471.43" font-family="Times,serif" font-size="14.00">*0</text>
</g>
<!-- node3&#45;&gt;node0 -->
<g id="edge5" class="edge">
<title>node3&#45;&gt;node0</title>
<path fill="none" stroke="green" stroke-width="2" d="M4294.76,-547.02C4266.3,-554.34 4230.6,-562.09 4198,-566 3947.76,-595.99 3314.71,-558.26 3064,-584 3062.48,-584.16 3060.96,-584.32 3059.42,-584.5"/>
<polygon fill="green" stroke="green" stroke-width="2" points="3058.61,-581.08 3049.14,-585.84 3059.51,-588.02 3058.61,-581.08"/>
</g>
<!-- node4&#45;&gt;node0 -->
<g id="edge7" class="edge">
<title>node4&#45;&gt;node0</title>
<path fill="none" stroke="green" stroke-width="2" d="M3652.62,-547.04C3392.32,-576.59 3324.1,-551.12 3064,-584 3062.49,-584.19 3060.96,-584.39 3059.43,-584.6"/>
<polygon fill="green" stroke="green" stroke-width="2" points="3058.56,-581.19 3049.17,-586.1 3059.57,-588.12 3058.56,-581.19"/>
</g>
<!-- node4&#45;&gt;node5 -->
<g id="edge11" class="edge">
<title>node4&#45;&gt;node5</title>
<path fill="none" stroke="red" d="M3778.38,-510.99C3796.07,-501.4 3818.37,-489.32 3837.39,-479.01"/>
<polygon fill="red" stroke="red" points="3839.3,-481.96 3846.42,-474.11 3835.96,-475.8 3839.3,-481.96"/>
</g>
<!-- node5&#45;&gt;node0 -->
<g id="edge9" class="edge">
<title>node5&#45;&gt;node0</title>
<path fill="none" stroke="green" stroke-width="2" d="M3884.4,-474.15C3886.26,-495.08 3881.27,-529.79 3859,-547 3789.02,-601.07 3151.82,-573.62 3064,-584 3062.49,-584.18 3060.96,-584.37 3059.42,-584.57"/>
<polygon fill="green" stroke="green" stroke-width="2" points="3058.58,-581.15 3049.16,-586.01 3059.55,-588.08 3058.58,-581.15"/>
</g>
<!-- node12 -->
<g id="node13" class="node">
<title>node12</title>
<polygon fill="lightgreen" stroke="black" points="3841,-375.54 3841,-390.46 3752.55,-401 3627.45,-401 3539,-390.46 3539,-375.54 3627.45,-365 3752.55,-365 3841,-375.54"/>
<text text-anchor="middle" x="3690" y="-379.3" font-family="Times,serif" font-size="14.00">#12 String : test Order : 12</text>
</g>
<!-- node5&#45;&gt;node12 -->
<g id="edge26" class="edge">
<title>node5&#45;&gt;node12</title>
<path fill="none" stroke="black" stroke-dasharray="1,5" d="M3827.11,-437.99C3799.74,-428.06 3766.2,-415.43 3739.11,-404.89"/>
<polygon fill="black" stroke="black" points="3740.03,-401.5 3729.44,-401.11 3737.48,-408.02 3740.03,-401.5"/>
</g>
<!-- node5&#45;&gt;node15 -->
<g id="edge41" class="edge">
<title>node5&#45;&gt;node15</title>
<path fill="none" stroke="black" d="M3874.16,-437.97C3870.58,-400.51 3870.3,-310.68 3873.34,-265.26"/>
<polygon fill="black" stroke="black" points="3876.83,-265.49 3874.14,-255.25 3869.86,-264.94 3876.83,-265.49"/>
</g>
<!-- node5&#45;&gt;node15 -->
<g id="edge42" class="edge">
<title>node5&#45;&gt;node15</title>
<path fill="none" stroke="red" d="M3881.84,-437.97C3885.42,-400.51 3885.7,-310.68 3882.66,-265.26"/>
<polygon fill="red" stroke="red" points="3886.14,-264.94 3881.86,-255.25 3879.17,-265.49 3886.14,-264.94"/>
</g>
<!-- node16 -->
<g id="node17" class="node">
<title>node16</title>
<polygon fill="lightgrey" stroke="black" points="4092,-182 3664,-182 3664,-146 4092,-146 4092,-182"/>
<text text-anchor="middle" x="3878" y="-160.3" font-family="Times,serif" font-size="14.00">#16 Invoke interface filter : (Predicate)Stream Order : 16</text>
</g>
<!-- node5&#45;&gt;node16 -->
<g id="edge44" class="edge">
<title>node5&#45;&gt;node16</title>
<path fill="none" stroke="black" d="M3992.71,-437.97C4046.52,-426.64 4099,-409.14 4099,-384 4099,-384 4099,-384 4099,-236 4099,-212.43 4052.88,-195.58 4002.77,-184.23"/>
<polygon fill="black" stroke="black" points="4003.22,-180.74 3992.71,-182.03 4001.73,-187.58 4003.22,-180.74"/>
<text text-anchor="middle" x="4012.22" y="-173.94" font-family="Times,serif" font-size="14.00">*0</text>
</g>
<!-- node6&#45;&gt;node0 -->
<g id="edge13" class="edge">
<title>node6&#45;&gt;node0</title>
<path fill="none" stroke="green" stroke-width="2" d="M2379.55,-547.02C2536.64,-561.2 2751.7,-580.83 2872.98,-592.1"/>
<polygon fill="green" stroke="green" stroke-width="2" points="2872.7,-595.59 2882.99,-593.03 2873.35,-588.62 2872.7,-595.59"/>
</g>
<!-- node14 -->
<g id="node15" class="node">
<title>node14</title>
<polygon fill="lightgrey" stroke="black" points="2690.5,-328 1683.5,-328 1683.5,-292 2690.5,-292 2690.5,-328"/>
<text text-anchor="middle" x="2187" y="-306.3" font-family="Times,serif" font-size="14.00">#14 Invoke static metafactory : (MethodHandles$Lookup,String,MethodType,MethodType,MethodHandle,MethodType)CallSite Order : 13</text>
</g>
<!-- node6&#45;&gt;node14 -->
<g id="edge36" class="edge">
<title>node6&#45;&gt;node14</title>
<path fill="none" stroke="black" d="M2187,-510.97C2187,-473.51 2187,-383.68 2187,-338.26"/>
<polygon fill="black" stroke="black" points="2190.5,-338.25 2187,-328.25 2183.5,-338.25 2190.5,-338.25"/>
<text text-anchor="middle" x="2195.45" y="-342.67" font-family="Times,serif" font-size="14.00">*5</text>
</g>
<!-- node7&#45;&gt;node0 -->
<g id="edge15" class="edge">
<title>node7&#45;&gt;node0</title>
<path fill="none" stroke="green" stroke-width="2" d="M2971.86,-547.03C2972.71,-555.03 2972.95,-564.77 2972.59,-573.75"/>
<polygon fill="green" stroke="green" stroke-width="2" points="2969.09,-573.59 2971.88,-583.81 2976.07,-574.08 2969.09,-573.59"/>
</g>
<!-- node7&#45;&gt;node14 -->
<g id="edge34" class="edge">
<title>node7&#45;&gt;node14</title>
<path fill="none" stroke="black" d="M2896.6,-510.97C2874.34,-505.38 2849.59,-499.06 2827,-493 2617.48,-436.84 2370.99,-365.15 2254.49,-330.92"/>
<polygon fill="black" stroke="black" points="2255.22,-327.49 2244.64,-328.03 2253.25,-334.21 2255.22,-327.49"/>
<text text-anchor="middle" x="2264.42" y="-321.33" font-family="Times,serif" font-size="14.00">*3</text>
</g>
<!-- node8&#45;&gt;node0 -->
<g id="edge17" class="edge">
<title>node8&#45;&gt;node0</title>
<path fill="none" stroke="green" stroke-width="2" d="M1074.14,-541.82C1102.77,-543.77 1132.28,-545.6 1160,-547 1815.49,-580.15 2605.26,-595.1 2872.51,-599.52"/>
<polygon fill="green" stroke="green" stroke-width="2" points="2872.5,-603.02 2882.56,-599.69 2872.61,-596.02 2872.5,-603.02"/>
</g>
<!-- node8&#45;&gt;node14 -->
<g id="edge35" class="edge">
<title>node8&#45;&gt;node14</title>
<path fill="none" stroke="black" d="M1009.65,-511.1C1180.79,-481.23 1548.4,-417.33 1859,-365 1929.9,-353.06 2009.47,-339.95 2072.49,-329.64"/>
<polygon fill="black" stroke="black" points="2073.15,-333.08 2082.46,-328.01 2072.02,-326.17 2073.15,-333.08"/>
<text text-anchor="middle" x="2065.93" y="-335.57" font-family="Times,serif" font-size="14.00">*4</text>
</g>
<!-- node9&#45;&gt;node0 -->
<g id="edge19" class="edge">
<title>node9&#45;&gt;node0</title>
<path fill="none" stroke="green" stroke-width="2" d="M1559.67,-541.7C1588.16,-543.62 1617.46,-545.47 1645,-547 2105.8,-572.53 2657.04,-591.09 2872.92,-598.02"/>
<polygon fill="green" stroke="green" stroke-width="2" points="2872.84,-601.52 2882.94,-598.34 2873.06,-594.52 2872.84,-601.52"/>
</g>
<!-- node9&#45;&gt;node14 -->
<g id="edge37" class="edge">
<title>node9&#45;&gt;node14</title>
<path fill="none" stroke="black" d="M1458.82,-510.94C1480.22,-505.28 1504.14,-498.91 1526,-493 1741.15,-434.86 1995.17,-364.41 2116.11,-330.76"/>
<polygon fill="black" stroke="black" points="2117.3,-334.06 2126,-328.01 2115.42,-327.31 2117.3,-334.06"/>
<text text-anchor="middle" x="2110.8" y="-337.31" font-family="Times,serif" font-size="14.00">*6</text>
</g>
<!-- node10&#45;&gt;node0 -->
<g id="edge21" class="edge">
<title>node10&#45;&gt;node0</title>
<path fill="none" stroke="green" stroke-width="2" d="M509.62,-546.57C552.63,-553.98 604.29,-561.95 651,-566 1094.07,-604.43 2497.15,-602.63 2872.77,-601.39"/>
<polygon fill="green" stroke="green" stroke-width="2" points="2872.8,-604.89 2882.79,-601.35 2872.78,-597.89 2872.8,-604.89"/>
</g>
<!-- node13 -->
<g id="node14" class="node">
<title>node13</title>
<polygon fill="lightgrey" stroke="black" points="649,-474 183,-474 183,-438 649,-438 649,-474"/>
<text text-anchor="middle" x="416" y="-452.3" font-family="Times,serif" font-size="14.00">#13 Invoke static in : (Class)MethodHandles$Lookup Order : 3</text>
</g>
<!-- node10&#45;&gt;node13 -->
<g id="edge28" class="edge">
<title>node10&#45;&gt;node13</title>
<path fill="none" stroke="black" d="M404.24,-510.81C402.56,-502.79 402.1,-493.05 402.84,-484.07"/>
<polygon fill="black" stroke="black" points="406.33,-484.42 404.28,-474.03 399.4,-483.43 406.33,-484.42"/>
<text text-anchor="middle" x="410.08" y="-489.47" font-family="Times,serif" font-size="14.00">*0</text>
</g>
<!-- node10&#45;&gt;node13 -->
<g id="edge29" class="edge">
<title>node10&#45;&gt;node13</title>
<path fill="none" stroke="black" d="M427.76,-510.81C429.44,-502.79 429.9,-493.05 429.16,-484.07"/>
<polygon fill="black" stroke="black" points="432.6,-483.43 427.72,-474.03 425.67,-484.42 432.6,-483.43"/>
<text text-anchor="middle" x="438.65" y="-487.08" font-family="Times,serif" font-size="14.00">*1</text>
</g>
<!-- node11&#45;&gt;node0 -->
<g id="edge23" class="edge">
<title>node11&#45;&gt;node0</title>
<path fill="none" stroke="green" stroke-width="2" d="M3313.01,-545.64C3242.39,-555.82 3147.61,-569.82 3064,-584 3062.5,-584.25 3060.98,-584.51 3059.45,-584.78"/>
<polygon fill="green" stroke="green" stroke-width="2" points="3058.48,-581.4 3049.24,-586.58 3059.7,-588.29 3058.48,-581.4"/>
</g>
<!-- node11&#45;&gt;node14 -->
<g id="edge31" class="edge">
<title>node11&#45;&gt;node14</title>
<path fill="none" stroke="black" d="M3324.63,-511.38C3099.3,-471.69 2531.04,-371.6 2293.72,-329.8"/>
<polygon fill="black" stroke="black" points="2294.16,-326.32 2283.7,-328.03 2292.94,-333.21 2294.16,-326.32"/>
<text text-anchor="middle" x="2303.02" y="-319.15" font-family="Times,serif" font-size="14.00">*0</text>
</g>
<!-- node12&#45;&gt;node5 -->
<g id="edge25" class="edge">
<title>node12&#45;&gt;node5</title>
<path fill="none" stroke="green" stroke-width="2" d="M3741.19,-401.11C3768.6,-411.07 3802.14,-423.69 3829.18,-434.22"/>
<polygon fill="green" stroke="green" stroke-width="2" points="3828.24,-437.61 3838.83,-437.99 3830.79,-431.09 3828.24,-437.61"/>
</g>
<!-- node12&#45;&gt;node14 -->
<g id="edge33" class="edge">
<title>node12&#45;&gt;node14</title>
<path fill="none" stroke="black" d="M3542.81,-375.05C3316.22,-364.34 2874.95,-343.5 2557.28,-328.49"/>
<polygon fill="black" stroke="black" points="2557.13,-324.98 2546.98,-328 2556.8,-331.97 2557.13,-324.98"/>
<text text-anchor="middle" x="2565.48" y="-316.72" font-family="Times,serif" font-size="14.00">*2</text>
</g>
<!-- node13&#45;&gt;node10 -->
<g id="edge27" class="edge">
<title>node13&#45;&gt;node10</title>
<path fill="none" stroke="green" stroke-width="2" d="M416,-474.03C416,-482.03 416,-491.77 416,-500.75"/>
<polygon fill="green" stroke="green" stroke-width="2" points="412.5,-500.81 416,-510.81 419.5,-500.81 412.5,-500.81"/>
</g>
<!-- node13&#45;&gt;node14 -->
<g id="edge32" class="edge">
<title>node13&#45;&gt;node14</title>
<path fill="none" stroke="black" d="M444.74,-437.81C489.53,-412.08 579.51,-364.61 663,-346 760.19,-324.34 1269.76,-316.05 1673.29,-312.9"/>
<polygon fill="black" stroke="black" points="1673.43,-316.4 1683.4,-312.82 1673.37,-309.4 1673.43,-316.4"/>
<text text-anchor="middle" x="1665.34" y="-317.71" font-family="Times,serif" font-size="14.00">*1</text>
</g>
<!-- node14&#45;&gt;node0 -->
<g id="edge30" class="edge">
<title>node14&#45;&gt;node0</title>
<path fill="none" stroke="green" stroke-width="2" d="M1683.4,-320.12C1186.87,-338.07 522.69,-391.06 675,-547 714.03,-586.96 2448.23,-598.37 2872.89,-600.57"/>
<polygon fill="green" stroke="green" stroke-width="2" points="2872.96,-604.07 2882.98,-600.62 2872.99,-597.07 2872.96,-604.07"/>
</g>
<!-- node14&#45;&gt;node15 -->
<g id="edge39" class="edge">
<title>node14&#45;&gt;node15</title>
<path fill="none" stroke="black" d="M2592.04,-291.99C2933.65,-277.65 3408.37,-257.72 3675.11,-246.52"/>
<polygon fill="black" stroke="black" points="3675.45,-250.01 3685.29,-246.09 3675.15,-243.01 3675.45,-250.01"/>
<text text-anchor="middle" x="3667.54" y="-251.6" font-family="Times,serif" font-size="14.00">*0</text>
</g>
<!-- node15&#45;&gt;node0 -->
<g id="edge38" class="edge">
<title>node15&#45;&gt;node0</title>
<path fill="none" stroke="green" stroke-width="2" d="M4048.95,-255.05C4097.28,-270.01 4137,-297.16 4137,-346 4137,-530 4137,-530 4137,-530 4137,-625.57 4020.4,-560.33 3925,-566 3542.33,-588.76 3441.4,-544.37 3059.54,-583.58"/>
<polygon fill="green" stroke="green" stroke-width="2" points="3058.9,-580.13 3049.32,-584.65 3059.62,-587.09 3058.9,-580.13"/>
</g>
<!-- node15&#45;&gt;node16 -->
<g id="edge45" class="edge">
<title>node15&#45;&gt;node16</title>
<path fill="none" stroke="black" d="M3866.24,-218.81C3864.56,-210.79 3864.1,-201.05 3864.84,-192.07"/>
<polygon fill="black" stroke="black" points="3868.33,-192.42 3866.28,-182.03 3861.4,-191.43 3868.33,-192.42"/>
<text text-anchor="middle" x="3872.08" y="-197.47" font-family="Times,serif" font-size="14.00">*1</text>
</g>
<!-- node15&#45;&gt;node16 -->
<g id="edge46" class="edge">
<title>node15&#45;&gt;node16</title>
<path fill="none" stroke="red" d="M3878,-218.81C3878,-210.79 3878,-201.05 3878,-192.07"/>
<polygon fill="red" stroke="red" points="3881.5,-192.03 3878,-182.03 3874.5,-192.03 3881.5,-192.03"/>
</g>
<!-- node15&#45;&gt;node16 -->
<g id="edge47" class="edge">
<title>node15&#45;&gt;node16</title>
<path fill="none" stroke="black" d="M3889.76,-218.81C3891.44,-210.79 3891.9,-201.05 3891.16,-192.07"/>
<polygon fill="black" stroke="black" points="3894.6,-191.43 3889.72,-182.03 3887.67,-192.42 3894.6,-191.43"/>
</g>
<!-- node16&#45;&gt;node0 -->
<g id="edge43" class="edge">
<title>node16&#45;&gt;node0</title>
<path fill="none" stroke="green" stroke-width="2" d="M4072.37,-182.04C4128.54,-192.45 4175,-209.16 4175,-236 4175,-530 4175,-530 4175,-530 4175,-580.64 4000.55,-563.09 3950,-566 3754.6,-577.23 3268.83,-563.71 3059.38,-583.64"/>
<polygon fill="green" stroke="green" stroke-width="2" points="3058.92,-580.17 3049.32,-584.64 3059.61,-587.13 3058.92,-580.17"/>
</g>
<!-- node17 -->
<g id="node18" class="node">
<title>node17</title>
<polygon fill="lightgrey" stroke="black" points="4050,-109 3706,-109 3706,-73 4050,-73 4050,-109"/>
<text text-anchor="middle" x="3878" y="-87.3" font-family="Times,serif" font-size="14.00">#17 Invoke interface count : ()long Order : 17</text>
</g>
<!-- node16&#45;&gt;node17 -->
<g id="edge49" class="edge">
<title>node16&#45;&gt;node17</title>
<path fill="none" stroke="black" d="M3860.37,-145.81C3857.85,-137.79 3857.15,-128.05 3858.27,-119.07"/>
<polygon fill="black" stroke="black" points="3861.74,-119.54 3860.42,-109.03 3854.9,-118.07 3861.74,-119.54"/>
<text text-anchor="middle" x="3864.89" y="-124.82" font-family="Times,serif" font-size="14.00">*0</text>
</g>
<!-- node16&#45;&gt;node17 -->
<g id="edge50" class="edge">
<title>node16&#45;&gt;node17</title>
<path fill="none" stroke="red" d="M3883.88,-145.81C3884.72,-137.79 3884.95,-128.05 3884.58,-119.07"/>
<polygon fill="red" stroke="red" points="3888.06,-118.75 3883.86,-109.03 3881.08,-119.25 3888.06,-118.75"/>
</g>
<!-- node16&#45;&gt;node17 -->
<g id="edge51" class="edge">
<title>node16&#45;&gt;node17</title>
<path fill="none" stroke="black" d="M3895.63,-145.81C3898.15,-137.79 3898.85,-128.05 3897.73,-119.07"/>
<polygon fill="black" stroke="black" points="3901.1,-118.07 3895.58,-109.03 3894.26,-119.54 3901.1,-118.07"/>
</g>
<!-- node17&#45;&gt;node16 -->
<g id="edge48" class="edge">
<title>node17&#45;&gt;node16</title>
<path fill="none" stroke="green" stroke-width="2" d="M3872.14,-109.03C3871.29,-117.03 3871.05,-126.77 3871.41,-135.75"/>
<polygon fill="green" stroke="green" stroke-width="2" points="3867.93,-136.08 3872.12,-145.81 3874.91,-135.59 3867.93,-136.08"/>
</g>
<!-- node18 -->
<g id="node19" class="node">
<title>node18</title>
<polygon fill="lightgrey" stroke="black" points="4009,-36 3747,-36 3747,0 4009,0 4009,-36"/>
<text text-anchor="middle" x="3878" y="-14.3" font-family="Times,serif" font-size="14.00">#18 ReturnValue : long Order : 18</text>
</g>
<!-- node17&#45;&gt;node18 -->
<g id="edge53" class="edge">
<title>node17&#45;&gt;node18</title>
<path fill="none" stroke="black" d="M3860.37,-72.81C3857.85,-64.79 3857.15,-55.05 3858.27,-46.07"/>
<polygon fill="black" stroke="black" points="3861.74,-46.54 3860.42,-36.03 3854.9,-45.07 3861.74,-46.54"/>
<text text-anchor="middle" x="3864.89" y="-51.82" font-family="Times,serif" font-size="14.00">*0</text>
</g>
<!-- node17&#45;&gt;node18 -->
<g id="edge54" class="edge">
<title>node17&#45;&gt;node18</title>
<path fill="none" stroke="red" d="M3883.88,-72.81C3884.72,-64.79 3884.95,-55.05 3884.58,-46.07"/>
<polygon fill="red" stroke="red" points="3888.06,-45.75 3883.86,-36.03 3881.08,-46.25 3888.06,-45.75"/>
</g>
<!-- node17&#45;&gt;node18 -->
<g id="edge55" class="edge">
<title>node17&#45;&gt;node18</title>
<path fill="none" stroke="black" d="M3895.63,-72.81C3898.15,-64.79 3898.85,-55.05 3897.73,-46.07"/>
<polygon fill="black" stroke="black" points="3901.1,-45.07 3895.58,-36.03 3894.26,-46.54 3901.1,-45.07"/>
</g>
<!-- node18&#45;&gt;node17 -->
<g id="edge52" class="edge">
<title>node18&#45;&gt;node17</title>
<path fill="none" stroke="green" stroke-width="2" d="M3872.14,-36.03C3871.29,-44.03 3871.05,-53.77 3871.41,-62.75"/>
<polygon fill="green" stroke="green" stroke-width="2" points="3867.93,-63.08 3872.12,-72.81 3874.91,-62.59 3867.93,-63.08"/>
</g>
<!-- c0 -->
<!-- c1 -->
<!-- c0&#45;&gt;c1 -->
<g id="edge56" class="edge">
<title>c0&#45;&gt;c1</title>
<path fill="none" stroke="red" d="M3780.89,-602C3792.11,-602 3850.24,-602 3875.86,-602"/>
<polygon fill="red" stroke="red" points="3876.06,-605.5 3886.06,-602 3876.06,-598.5 3876.06,-605.5"/>
<text text-anchor="middle" x="3833.5" y="-608.8" font-family="Times,serif" font-size="14.00">Control flow</text>
</g>
<!-- c2 -->
<!-- c3 -->
<!-- c2&#45;&gt;c3 -->
<g id="edge57" class="edge">
<title>c2&#45;&gt;c3</title>
<path fill="none" stroke="red" stroke-dasharray="5,2" d="M3574.08,-602C3591.05,-602 3707.21,-602 3745.08,-602"/>
<polygon fill="red" stroke="red" points="3745.17,-605.5 3755.17,-602 3745.17,-598.5 3745.17,-605.5"/>
<text text-anchor="middle" x="3664.5" y="-608.8" font-family="Times,serif" font-size="14.00">Control flow back edge</text>
</g>
<!-- d0 -->
<!-- d1 -->
<!-- d0&#45;&gt;d1 -->
<g id="edge58" class="edge">
<title>d0&#45;&gt;d1</title>
<path fill="none" stroke="black" d="M3462.86,-602C3472.41,-602 3516.31,-602 3537.92,-602"/>
<polygon fill="black" stroke="black" points="3538.15,-605.5 3548.15,-602 3538.15,-598.5 3538.15,-605.5"/>
<text text-anchor="middle" x="3505.5" y="-608.8" font-family="Times,serif" font-size="14.00">Data flow</text>
</g>
<!-- d2 -->
<!-- d3 -->
<!-- d2&#45;&gt;d3 -->
<g id="edge59" class="edge">
<title>d2&#45;&gt;d3</title>
<path fill="none" stroke="black" stroke-dasharray="1,5" d="M3336.81,-602C3347.46,-602 3402.46,-602 3427.08,-602"/>
<polygon fill="black" stroke="black" points="3427.15,-605.5 3437.15,-602 3427.15,-598.5 3427.15,-605.5"/>
<text text-anchor="middle" x="3387" y="-608.8" font-family="Times,serif" font-size="14.00">Declaration</text>
</g>
<!-- d4 -->
<!-- d5 -->
<!-- d4&#45;&gt;d5 -->
<g id="edge60" class="edge">
<title>d4&#45;&gt;d5</title>
<path fill="none" stroke="blue" d="M3194.1,-602C3206.72,-602 3272.88,-602 3300.68,-602"/>
<polygon fill="blue" stroke="blue" points="3300.84,-605.5 3310.84,-602 3300.84,-598.5 3300.84,-605.5"/>
<text text-anchor="middle" x="3252.5" y="-608.8" font-family="Times,serif" font-size="14.00">PHI Data flow</text>
</g>
<!-- d6 -->
<!-- d7 -->
<!-- d6&#45;&gt;d7 -->
<g id="edge61" class="edge">
<title>d6&#45;&gt;d7</title>
<path fill="none" stroke="green" d="M3071.11,-602C3082.15,-602 3133.67,-602 3157.66,-602"/>
<polygon fill="green" stroke="green" points="3157.9,-605.5 3167.9,-602 3157.9,-598.5 3157.9,-605.5"/>
<text text-anchor="middle" x="3119.5" y="-608.8" font-family="Times,serif" font-size="14.00">Dominance</text>
</g>
</g>
</svg>
