<?xml version="1.0" encoding="UTF-8" standalone="no"?>
<!DOCTYPE svg PUBLIC "-//W3C//DTD SVG 1.1//EN"
 "http://www.w3.org/Graphics/SVG/1.1/DTD/svg11.dtd">
<!-- Generated by graphviz version 2.43.0 (0)
 -->
<!-- Title: debugoutput Pages: 1 -->
<svg width="3832pt" height="724pt"
 viewBox="0.00 0.00 3832.00 723.80" xmlns="http://www.w3.org/2000/svg" xmlns:xlink="http://www.w3.org/1999/xlink">
<g id="graph0" class="graph" transform="scale(1 1) rotate(0) translate(4 719.8)">
<title>debugoutput</title>
<polygon fill="white" stroke="transparent" points="-4,4 -4,-719.8 3828,-719.8 3828,4 -4,4"/>
<g id="clust1" class="cluster">
<title>cluster_000</title>
<polygon fill="none" stroke="black" points="2610,-665.2 2610,-707.8 3586,-707.8 3586,-665.2 2610,-665.2"/>
<text text-anchor="middle" x="3098" y="-692.6" font-family="Times,serif" font-size="14.00">Legend</text>
</g>
<!-- node0 -->
<g id="node1" class="node">
<title>node0</title>
<polygon fill="lightgrey" stroke="black" points="2600,-693 2434,-693 2434,-657 2600,-657 2600,-693"/>
<text text-anchor="middle" x="2517" y="-671.3" font-family="Times,serif" font-size="14.00">#0 Method Order : 0</text>
</g>
<!-- node1 -->
<g id="node2" class="node">
<title>node1</title>
<polygon fill="lightgrey" stroke="black" points="186,-620 0,-620 0,-584 186,-584 186,-620"/>
<text text-anchor="middle" x="93" y="-598.3" font-family="Times,serif" font-size="14.00">#1 arg1 : int Order : 14</text>
</g>
<!-- node0&#45;&gt;node1 -->
<g id="edge2" class="edge">
<title>node0&#45;&gt;node1</title>
<path fill="none" stroke="black" d="M2433.82,-673.66C2074.82,-671.95 655.99,-662.56 195.76,-620.9"/>
<polygon fill="black" stroke="black" points="196.01,-617.41 185.73,-619.97 195.37,-624.38 196.01,-617.41"/>
<text text-anchor="middle" x="204.56" y="-609.53" font-family="Times,serif" font-size="14.00">*0</text>
</g>
<!-- node2 -->
<g id="node3" class="node">
<title>node2</title>
<polygon fill="lightgrey" stroke="black" points="3312.5,-620 3127.5,-620 3127.5,-584 3312.5,-584 3312.5,-620"/>
<text text-anchor="middle" x="3220" y="-598.3" font-family="Times,serif" font-size="14.00">#2 arg0 : List Order : 7</text>
</g>
<!-- node0&#45;&gt;node2 -->
<g id="edge4" class="edge">
<title>node0&#45;&gt;node2</title>
<path fill="none" stroke="black" d="M2597.32,-656.96C2818.46,-632.07 2878.59,-677.15 3098,-639 3117.96,-635.53 3139.26,-629.41 3158.44,-623.19"/>
<polygon fill="black" stroke="black" points="3159.57,-626.5 3167.97,-620.04 3157.38,-619.86 3159.57,-626.5"/>
<text text-anchor="middle" x="3153.41" y="-630.06" font-family="Times,serif" font-size="14.00">*0</text>
</g>
<!-- node3 -->
<g id="node4" class="node">
<title>node3</title>
<polygon fill="lightgrey" stroke="black" points="1596.5,-620 1305.5,-620 1305.5,-584 1596.5,-584 1596.5,-620"/>
<text text-anchor="middle" x="1451" y="-598.3" font-family="Times,serif" font-size="14.00">#3 this : InvokeDynamicTest Order : 6</text>
</g>
<!-- node0&#45;&gt;node3 -->
<g id="edge6" class="edge">
<title>node0&#45;&gt;node3</title>
<path fill="none" stroke="black" d="M2433.89,-670.69C2274.1,-663.8 1913.08,-646.39 1607,-620.84"/>
<polygon fill="black" stroke="black" points="1606.85,-617.31 1596.6,-619.97 1606.27,-624.29 1606.85,-617.31"/>
<text text-anchor="middle" x="1615.36" y="-609.36" font-family="Times,serif" font-size="14.00">*0</text>
</g>
<!-- node4 -->
<g id="node5" class="node">
<title>node4</title>
<polygon fill="lightgrey" stroke="black" points="3519,-620 3331,-620 3331,-584 3519,-584 3519,-620"/>
<text text-anchor="middle" x="3425" y="-598.3" font-family="Times,serif" font-size="14.00">#4 LabelNode Order : 5</text>
</g>
<!-- node0&#45;&gt;node4 -->
<g id="edge8" class="edge">
<title>node0&#45;&gt;node4</title>
<path fill="none" stroke="red" d="M2597.34,-656.96C2829.08,-631.04 2889.16,-654.56 3122,-639 3207.12,-633.31 3228.43,-631.17 3313,-620 3315.55,-619.66 3318.14,-619.31 3320.76,-618.95"/>
<polygon fill="red" stroke="red" points="3321.53,-622.37 3330.93,-617.48 3320.53,-615.44 3321.53,-622.37"/>
</g>
<!-- node5 -->
<g id="node6" class="node">
<title>node5</title>
<polygon fill="lightgrey" stroke="black" points="3399,-547 3041,-547 3041,-511 3399,-511 3399,-547"/>
<text text-anchor="middle" x="3220" y="-525.3" font-family="Times,serif" font-size="14.00">#5 Invoke interface stream : ()Stream Order : 8</text>
</g>
<!-- node0&#45;&gt;node5 -->
<g id="edge12" class="edge">
<title>node0&#45;&gt;node5</title>
<path fill="none" stroke="green" d="M2597.3,-656.97C2648.21,-651.3 3001.57,-657.69 3048,-639 3082.17,-625.24 3079.77,-605.05 3110,-584 3127.31,-571.95 3147.61,-560.61 3166.1,-551.47"/>
<polygon fill="green" stroke="green" points="3167.81,-554.53 3175.29,-547.03 3164.77,-548.22 3167.81,-554.53"/>
</g>
<!-- node6 -->
<g id="node7" class="node">
<title>node6</title>
<polygon fill="lightgreen" stroke="black" points="1287.88,-594.54 1287.88,-609.46 970.45,-620 521.55,-620 204.12,-609.46 204.12,-594.54 521.55,-584 970.45,-584 1287.88,-594.54"/>
<text text-anchor="middle" x="746" y="-598.3" font-family="Times,serif" font-size="14.00">#6 MethodHandle : invokeStatic : InvokeDynamicTest.lambda$countList$0 (int,Integer)boolean Order : 4</text>
</g>
<!-- node0&#45;&gt;node6 -->
<g id="edge14" class="edge">
<title>node0&#45;&gt;node6</title>
<path fill="none" stroke="black" stroke-dasharray="1,5" d="M2433.86,-670.79C2196.8,-661.44 1507.72,-633.85 1086.89,-616.89"/>
<polygon fill="black" stroke="black" points="1086.82,-613.38 1076.69,-616.48 1086.54,-620.38 1086.82,-613.38"/>
</g>
<!-- node7 -->
<g id="node8" class="node">
<title>node7</title>
<polygon fill="lightgreen" stroke="black" points="2073.18,-594.54 2073.18,-609.46 1938.93,-620 1749.07,-620 1614.82,-609.46 1614.82,-594.54 1749.07,-584 1938.93,-584 2073.18,-594.54"/>
<text text-anchor="middle" x="1844" y="-598.3" font-family="Times,serif" font-size="14.00">#7 MethodType : (Object)boolean Order : 3</text>
</g>
<!-- node0&#45;&gt;node7 -->
<g id="edge16" class="edge">
<title>node0&#45;&gt;node7</title>
<path fill="none" stroke="black" stroke-dasharray="1,5" d="M2433.96,-665.72C2321.67,-654.14 2119.98,-632.9 1984.06,-618.37"/>
<polygon fill="black" stroke="black" points="1984.29,-614.88 1973.98,-617.3 1983.55,-621.84 1984.29,-614.88"/>
</g>
<!-- node8 -->
<g id="node9" class="node">
<title>node8</title>
<polygon fill="lightgreen" stroke="black" points="2558.62,-594.54 2558.62,-609.46 2421.77,-620 2228.23,-620 2091.38,-609.46 2091.38,-594.54 2228.23,-584 2421.77,-584 2558.62,-594.54"/>
<text text-anchor="middle" x="2325" y="-598.3" font-family="Times,serif" font-size="14.00">#8 MethodType : (Integer)boolean Order : 2</text>
</g>
<!-- node0&#45;&gt;node8 -->
<g id="edge18" class="edge">
<title>node0&#45;&gt;node8</title>
<path fill="none" stroke="black" stroke-dasharray="1,5" d="M2465.15,-656.99C2437.1,-647.01 2402.67,-634.32 2374.92,-623.76"/>
<polygon fill="black" stroke="black" points="2376,-620.42 2365.41,-620.11 2373.5,-626.96 2376,-620.42"/>
</g>
<!-- node9 -->
<g id="node10" class="node">
<title>node9</title>
<polygon fill="lightgreen" stroke="black" points="3015.48,-594.54 3015.48,-609.46 2886.91,-620 2705.09,-620 2576.52,-609.46 2576.52,-594.54 2705.09,-584 2886.91,-584 3015.48,-594.54"/>
<text text-anchor="middle" x="2796" y="-598.3" font-family="Times,serif" font-size="14.00">#9 MethodType : (int)Predicate Order : 1</text>
</g>
<!-- node0&#45;&gt;node9 -->
<g id="edge20" class="edge">
<title>node0&#45;&gt;node9</title>
<path fill="none" stroke="black" stroke-dasharray="1,5" d="M2577.97,-656.99C2617.55,-646.64 2669.59,-633.38 2712.92,-622.59"/>
<polygon fill="black" stroke="black" points="2714.02,-625.92 2722.88,-620.11 2712.33,-619.13 2714.02,-625.92"/>
</g>
<!-- node1&#45;&gt;node0 -->
<g id="edge1" class="edge">
<title>node1&#45;&gt;node0</title>
<path fill="none" stroke="fuchsia" stroke-width="2" d="M186.18,-617.99C192.21,-618.77 198.19,-619.45 204,-620 646.45,-661.8 2048.5,-671.65 2423.84,-673.58"/>
<polygon fill="fuchsia" stroke="fuchsia" stroke-width="2" points="2423.83,-677.08 2433.85,-673.63 2423.87,-670.08 2423.83,-677.08"/>
</g>
<!-- node15 -->
<g id="node16" class="node">
<title>node15</title>
<polygon fill="lightgrey" stroke="black" points="3692.5,-255 3307.5,-255 3307.5,-219 3692.5,-219 3692.5,-255"/>
<text text-anchor="middle" x="3500" y="-233.3" font-family="Times,serif" font-size="14.00">#15 Invoke dynamic test : (int)Predicate Order : 15</text>
</g>
<!-- node1&#45;&gt;node15 -->
<g id="edge40" class="edge">
<title>node1&#45;&gt;node15</title>
<path fill="none" stroke="black" d="M186.06,-585.11C189.07,-584.72 192.06,-584.35 195,-584 238.47,-578.9 981,-573.77 981,-530 981,-530 981,-530 981,-309 981,-251.2 2698.74,-240.44 3297.27,-238.45"/>
<polygon fill="black" stroke="black" points="3297.31,-241.95 3307.3,-238.42 3297.29,-234.95 3297.31,-241.95"/>
<text text-anchor="middle" x="3289.2" y="-243.23" font-family="Times,serif" font-size="14.00">*1</text>
</g>
<!-- node2&#45;&gt;node0 -->
<g id="edge3" class="edge">
<title>node2&#45;&gt;node0</title>
<path fill="none" stroke="fuchsia" stroke-width="2" d="M3184.34,-620.04C3164.5,-627.27 3139.33,-634.94 3116,-639 2896.48,-677.17 2836.41,-632.03 2615,-657 2613.49,-657.17 2611.96,-657.35 2610.42,-657.55"/>
<polygon fill="fuchsia" stroke="fuchsia" stroke-width="2" points="2609.59,-654.13 2600.16,-658.95 2610.54,-661.06 2609.59,-654.13"/>
</g>
<!-- node2&#45;&gt;node5 -->
<g id="edge10" class="edge">
<title>node2&#45;&gt;node5</title>
<path fill="none" stroke="black" d="M3220,-583.81C3220,-575.79 3220,-566.05 3220,-557.07"/>
<polygon fill="black" stroke="black" points="3223.5,-557.03 3220,-547.03 3216.5,-557.03 3223.5,-557.03"/>
<text text-anchor="middle" x="3228.45" y="-561.45" font-family="Times,serif" font-size="14.00">*0</text>
</g>
<!-- node3&#45;&gt;node0 -->
<g id="edge5" class="edge">
<title>node3&#45;&gt;node0</title>
<path fill="none" stroke="fuchsia" stroke-width="2" d="M1596.88,-618.39C1603.01,-618.96 1609.07,-619.5 1615,-620 1910.17,-644.92 2260.09,-662.24 2423.86,-669.77"/>
<polygon fill="fuchsia" stroke="fuchsia" stroke-width="2" points="2423.75,-673.27 2433.9,-670.23 2424.07,-666.28 2423.75,-673.27"/>
</g>
<!-- node4&#45;&gt;node0 -->
<g id="edge7" class="edge">
<title>node4&#45;&gt;node0</title>
<path fill="none" stroke="fuchsia" stroke-width="2" d="M3330.51,-620.07C3246.34,-631.18 3224.95,-633.32 3140,-639 2907.05,-654.56 2847.02,-631.02 2615,-657 2613.49,-657.17 2611.96,-657.35 2610.42,-657.54"/>
<polygon fill="fuchsia" stroke="fuchsia" stroke-width="2" points="2609.59,-654.12 2600.15,-658.94 2610.54,-661.06 2609.59,-654.12"/>
</g>
<!-- node4&#45;&gt;node5 -->
<g id="edge11" class="edge">
<title>node4&#45;&gt;node5</title>
<path fill="none" stroke="red" d="M3375.9,-583.99C3346.82,-573.92 3309.8,-561.1 3279.13,-550.48"/>
<polygon fill="red" stroke="red" points="3280.01,-547.08 3269.41,-547.11 3277.72,-553.69 3280.01,-547.08"/>
</g>
<!-- node5&#45;&gt;node0 -->
<g id="edge9" class="edge">
<title>node5&#45;&gt;node0</title>
<path fill="none" stroke="fuchsia" stroke-width="2" d="M3191.25,-547.03C3172.56,-556.8 3148.23,-569.91 3128,-584 3097.77,-605.05 3100.17,-625.24 3066,-639 3019.48,-657.73 2664.82,-651.28 2615,-657 2613.49,-657.17 2611.96,-657.36 2610.42,-657.55"/>
<polygon fill="fuchsia" stroke="fuchsia" stroke-width="2" points="2609.58,-654.14 2600.16,-658.98 2610.54,-661.07 2609.58,-654.14"/>
</g>
<!-- node10 -->
<g id="node11" class="node">
<title>node10</title>
<polygon fill="lightgreen" stroke="black" points="3637.11,-448.54 3637.11,-463.46 3507,-474 3323,-474 3192.89,-463.46 3192.89,-448.54 3323,-438 3507,-438 3637.11,-448.54"/>
<text text-anchor="middle" x="3415" y="-452.3" font-family="Times,serif" font-size="14.00">#10 Class LambdaMetafactory Order : 12</text>
</g>
<!-- node5&#45;&gt;node10 -->
<g id="edge22" class="edge">
<title>node5&#45;&gt;node10</title>
<path fill="none" stroke="black" stroke-dasharray="1,5" d="M3260.85,-510.99C3287.43,-500.92 3322.54,-488.1 3352.57,-477.48"/>
<polygon fill="black" stroke="black" points="3353.86,-480.74 3362.13,-474.11 3351.53,-474.13 3353.86,-480.74"/>
</g>
<!-- node11 -->
<g id="node12" class="node">
<title>node11</title>
<polygon fill="lightgreen" stroke="black" points="2866.57,-448.54 2866.57,-463.46 2738.54,-474 2557.46,-474 2429.43,-463.46 2429.43,-448.54 2557.46,-438 2738.54,-438 2866.57,-448.54"/>
<text text-anchor="middle" x="2648" y="-452.3" font-family="Times,serif" font-size="14.00">#11 Class InvokeDynamicTest Order : 10</text>
</g>
<!-- node5&#45;&gt;node11 -->
<g id="edge24" class="edge">
<title>node5&#45;&gt;node11</title>
<path fill="none" stroke="black" stroke-dasharray="1,5" d="M3077.13,-510.99C2983.69,-499.55 2862.82,-484.54 2773.16,-473.25"/>
<polygon fill="black" stroke="black" points="2773.57,-469.78 2763.21,-472 2772.69,-476.72 2773.57,-469.78"/>
</g>
<!-- node12 -->
<g id="node13" class="node">
<title>node12</title>
<polygon fill="lightgreen" stroke="black" points="3174.84,-448.54 3174.84,-463.46 3089.99,-474 2970.01,-474 2885.16,-463.46 2885.16,-448.54 2970.01,-438 3089.99,-438 3174.84,-448.54"/>
<text text-anchor="middle" x="3030" y="-452.3" font-family="Times,serif" font-size="14.00">#12 String : test Order : 9</text>
</g>
<!-- node5&#45;&gt;node12 -->
<g id="edge26" class="edge">
<title>node5&#45;&gt;node12</title>
<path fill="none" stroke="black" stroke-dasharray="1,5" d="M3168.63,-510.99C3140.86,-501.01 3106.79,-488.32 3079.34,-477.76"/>
<polygon fill="black" stroke="black" points="3080.52,-474.46 3069.93,-474.11 3077.99,-480.99 3080.52,-474.46"/>
</g>
<!-- node5&#45;&gt;node15 -->
<g id="edge41" class="edge">
<title>node5&#45;&gt;node15</title>
<path fill="none" stroke="green" d="M3399.08,-515.66C3504.54,-506.65 3620.49,-492.74 3637,-474 3698.35,-404.38 3584.73,-305.92 3528.54,-261.44"/>
<polygon fill="green" stroke="green" points="3530.4,-258.45 3520.37,-255.02 3526.07,-263.95 3530.4,-258.45"/>
</g>
<!-- node5&#45;&gt;node15 -->
<g id="edge42" class="edge">
<title>node5&#45;&gt;node15</title>
<path fill="none" stroke="red" d="M3399.14,-516.92C3511.29,-507.97 3637.7,-493.63 3655,-474 3716.61,-404.09 3601.8,-305.11 3538.09,-260.89"/>
<polygon fill="red" stroke="red" points="3539.7,-257.75 3529.46,-255.02 3535.76,-263.54 3539.7,-257.75"/>
</g>
<!-- node16 -->
<g id="node17" class="node">
<title>node16</title>
<polygon fill="lightgrey" stroke="black" points="3824,-182 3396,-182 3396,-146 3824,-146 3824,-182"/>
<text text-anchor="middle" x="3610" y="-160.3" font-family="Times,serif" font-size="14.00">#16 Invoke interface filter : (Predicate)Stream Order : 16</text>
</g>
<!-- node5&#45;&gt;node16 -->
<g id="edge44" class="edge">
<title>node5&#45;&gt;node16</title>
<path fill="none" stroke="black" d="M3399.1,-519.02C3542.92,-509.31 3721,-490.52 3721,-457 3721,-457 3721,-457 3721,-236 3721,-213.08 3704,-197.23 3683.3,-186.42"/>
<polygon fill="black" stroke="black" points="3684.78,-183.24 3674.25,-182.09 3681.76,-189.56 3684.78,-183.24"/>
<text text-anchor="middle" x="3694.25" y="-178.58" font-family="Times,serif" font-size="14.00">*0</text>
</g>
<!-- node6&#45;&gt;node0 -->
<g id="edge13" class="edge">
<title>node6&#45;&gt;node0</title>
<path fill="none" stroke="fuchsia" stroke-width="2" d="M1082.67,-616.28C1497.32,-632.81 2177,-660.09 2423.8,-670.13"/>
<polygon fill="fuchsia" stroke="fuchsia" stroke-width="2" points="2423.67,-673.63 2433.81,-670.54 2423.96,-666.64 2423.67,-673.63"/>
</g>
<!-- node14 -->
<g id="node15" class="node">
<title>node14</title>
<polygon fill="lightgrey" stroke="black" points="2904.5,-328 1897.5,-328 1897.5,-292 2904.5,-292 2904.5,-328"/>
<text text-anchor="middle" x="2401" y="-306.3" font-family="Times,serif" font-size="14.00">#14 Invoke static metafactory : (MethodHandles$Lookup,String,MethodType,MethodType,MethodHandle,MethodType)CallSite Order : 13</text>
</g>
<!-- node6&#45;&gt;node14 -->
<g id="edge36" class="edge">
<title>node6&#45;&gt;node14</title>
<path fill="none" stroke="black" d="M1052.37,-586.71C1270.08,-574.43 1524,-554.79 1524,-530 1524,-530 1524,-530 1524,-382 1524,-357.82 1738.54,-340.19 1955.39,-328.55"/>
<polygon fill="black" stroke="black" points="1955.59,-332.04 1965.39,-328.02 1955.22,-325.05 1955.59,-332.04"/>
<text text-anchor="middle" x="1947.74" y="-333.72" font-family="Times,serif" font-size="14.00">*5</text>
</g>
<!-- node7&#45;&gt;node0 -->
<g id="edge15" class="edge">
<title>node7&#45;&gt;node0</title>
<path fill="none" stroke="fuchsia" stroke-width="2" d="M1980.24,-616.8C2112.13,-630.51 2308.46,-651.24 2423.55,-663.62"/>
<polygon fill="fuchsia" stroke="fuchsia" stroke-width="2" points="2423.43,-667.13 2433.75,-664.72 2424.18,-660.17 2423.43,-667.13"/>
</g>
<!-- node7&#45;&gt;node14 -->
<g id="edge35" class="edge">
<title>node7&#45;&gt;node14</title>
<path fill="none" stroke="black" d="M1954.02,-585.12C2009.85,-573.86 2066,-556.05 2066,-530 2066,-530 2066,-530 2066,-382 2066,-356.85 2102.59,-340.57 2151.59,-330.04"/>
<polygon fill="black" stroke="black" points="2152.45,-333.44 2161.55,-328.01 2151.05,-326.58 2152.45,-333.44"/>
<text text-anchor="middle" x="2145.48" y="-336.21" font-family="Times,serif" font-size="14.00">*4</text>
</g>
<!-- node8&#45;&gt;node0 -->
<g id="edge17" class="edge">
<title>node8&#45;&gt;node0</title>
<path fill="none" stroke="fuchsia" stroke-width="2" d="M2377.15,-620.11C2405.25,-630.11 2439.67,-642.81 2467.37,-653.36"/>
<polygon fill="fuchsia" stroke="fuchsia" stroke-width="2" points="2466.28,-656.69 2476.87,-656.99 2468.78,-650.15 2466.28,-656.69"/>
</g>
<!-- node8&#45;&gt;node14 -->
<g id="edge37" class="edge">
<title>node8&#45;&gt;node14</title>
<path fill="none" stroke="black" d="M2325,-583.78C2325,-569.41 2325,-548.37 2325,-530 2325,-530 2325,-530 2325,-382 2325,-361.7 2339.65,-345.54 2356.09,-333.8"/>
<polygon fill="black" stroke="black" points="2358.36,-336.49 2364.78,-328.06 2354.51,-330.65 2358.36,-336.49"/>
<text text-anchor="middle" x="2354.31" y="-341.4" font-family="Times,serif" font-size="14.00">*6</text>
</g>
<!-- node9&#45;&gt;node0 -->
<g id="edge19" class="edge">
<title>node9&#45;&gt;node0</title>
<path fill="none" stroke="fuchsia" stroke-width="2" d="M2734.62,-620.11C2694.95,-630.49 2642.9,-643.75 2599.63,-654.52"/>
<polygon fill="fuchsia" stroke="fuchsia" stroke-width="2" points="2598.55,-651.19 2589.69,-656.99 2600.24,-657.98 2598.55,-651.19"/>
</g>
<!-- node9&#45;&gt;node14 -->
<g id="edge34" class="edge">
<title>node9&#45;&gt;node14</title>
<path fill="none" stroke="black" d="M2637.53,-589.51C2513.9,-578.32 2363,-558.78 2363,-530 2363,-530 2363,-530 2363,-382 2363,-365.53 2371.05,-349.18 2379.74,-336.33"/>
<polygon fill="black" stroke="black" points="2382.72,-338.18 2385.76,-328.04 2377.05,-334.07 2382.72,-338.18"/>
<text text-anchor="middle" x="2381.95" y="-343.97" font-family="Times,serif" font-size="14.00">*3</text>
</g>
<!-- node10&#45;&gt;node5 -->
<g id="edge21" class="edge">
<title>node10&#45;&gt;node5</title>
<path fill="none" stroke="fuchsia" stroke-width="2" d="M3373.87,-474.11C3347.22,-484.2 3312.1,-497.03 3282.11,-507.63"/>
<polygon fill="fuchsia" stroke="fuchsia" stroke-width="2" points="3280.84,-504.37 3272.57,-510.99 3283.16,-510.97 3280.84,-504.37"/>
</g>
<!-- node10&#45;&gt;node14 -->
<g id="edge31" class="edge">
<title>node10&#45;&gt;node14</title>
<path fill="none" stroke="black" d="M3342.72,-437.97C3236.18,-413.55 3030.41,-369.01 2853,-346 2800.28,-339.16 2743.91,-333.5 2689.49,-328.86"/>
<polygon fill="black" stroke="black" points="2689.61,-325.36 2679.35,-328 2689.03,-332.33 2689.61,-325.36"/>
<text text-anchor="middle" x="2698.13" y="-317.4" font-family="Times,serif" font-size="14.00">*0</text>
</g>
<!-- node11&#45;&gt;node5 -->
<g id="edge23" class="edge">
<title>node11&#45;&gt;node5</title>
<path fill="none" stroke="fuchsia" stroke-width="2" d="M2770.14,-471.47C2860.65,-482.53 2984.18,-497.84 3078.9,-509.74"/>
<polygon fill="fuchsia" stroke="fuchsia" stroke-width="2" points="3078.49,-513.22 3088.85,-510.99 3079.37,-506.27 3078.49,-513.22"/>
</g>
<!-- node13 -->
<g id="node14" class="node">
<title>node13</title>
<polygon fill="lightgrey" stroke="black" points="2904.5,-401 2429.5,-401 2429.5,-365 2904.5,-365 2904.5,-401"/>
<text text-anchor="middle" x="2667" y="-379.3" font-family="Times,serif" font-size="14.00">#13 Invoke static in : (Class)MethodHandles$Lookup Order : 11</text>
</g>
<!-- node11&#45;&gt;node13 -->
<g id="edge28" class="edge">
<title>node11&#45;&gt;node13</title>
<path fill="none" stroke="black" d="M2640.84,-437.81C2641.32,-429.62 2643.55,-419.62 2646.81,-410.48"/>
<polygon fill="black" stroke="black" points="2650.13,-411.61 2650.72,-401.03 2643.66,-408.93 2650.13,-411.61"/>
<text text-anchor="middle" x="2651.6" y="-417.31" font-family="Times,serif" font-size="14.00">*0</text>
</g>
<!-- node11&#45;&gt;node13 -->
<g id="edge29" class="edge">
<title>node11&#45;&gt;node13</title>
<path fill="none" stroke="black" d="M2664.36,-437.81C2668.18,-429.79 2671.26,-420.05 2672.91,-411.07"/>
<polygon fill="black" stroke="black" points="2676.4,-411.39 2674.17,-401.03 2669.45,-410.52 2676.4,-411.39"/>
<text text-anchor="middle" x="2680.31" y="-416.36" font-family="Times,serif" font-size="14.00">*1</text>
</g>
<!-- node12&#45;&gt;node5 -->
<g id="edge25" class="edge">
<title>node12&#45;&gt;node5</title>
<path fill="none" stroke="fuchsia" stroke-width="2" d="M3081.67,-474.11C3109.48,-484.11 3143.55,-496.81 3170.96,-507.36"/>
<polygon fill="fuchsia" stroke="fuchsia" stroke-width="2" points="3169.76,-510.65 3180.35,-510.99 3172.29,-504.12 3169.76,-510.65"/>
</g>
<!-- node12&#45;&gt;node14 -->
<g id="edge33" class="edge">
<title>node12&#45;&gt;node14</title>
<path fill="none" stroke="black" d="M3014.23,-437.94C2993.5,-416.77 2954.91,-381.45 2914,-365 2873.85,-348.85 2790.89,-337.2 2703.18,-328.95"/>
<polygon fill="black" stroke="black" points="2703.3,-325.45 2693.02,-328.01 2702.65,-332.42 2703.3,-325.45"/>
<text text-anchor="middle" x="2711.84" y="-317.56" font-family="Times,serif" font-size="14.00">*2</text>
</g>
<!-- node13&#45;&gt;node11 -->
<g id="edge27" class="edge">
<title>node13&#45;&gt;node11</title>
<path fill="none" stroke="fuchsia" stroke-width="2" d="M2662.44,-401.03C2660.28,-409.12 2657.64,-418.98 2655.21,-428.05"/>
<polygon fill="fuchsia" stroke="fuchsia" stroke-width="2" points="2651.8,-427.25 2652.6,-437.81 2658.57,-429.06 2651.8,-427.25"/>
</g>
<!-- node13&#45;&gt;node14 -->
<g id="edge32" class="edge">
<title>node13&#45;&gt;node14</title>
<path fill="none" stroke="black" d="M2603.29,-364.99C2564.66,-354.68 2515.23,-341.49 2474.9,-330.72"/>
<polygon fill="black" stroke="black" points="2475.68,-327.31 2465.12,-328.11 2473.87,-334.07 2475.68,-327.31"/>
<text text-anchor="middle" x="2484.81" y="-320.92" font-family="Times,serif" font-size="14.00">*1</text>
</g>
<!-- node14&#45;&gt;node0 -->
<g id="edge30" class="edge">
<title>node14&#45;&gt;node0</title>
<path fill="none" stroke="fuchsia" stroke-width="2" d="M2397.1,-328.21C2390.73,-361.24 2382.29,-433.79 2420,-474 2606.66,-673.03 2849.2,-374.49 3024,-584 3034.25,-596.29 3034.8,-608.2 3024,-620 2994.12,-652.65 2685.95,-650.85 2610.39,-656.79"/>
<polygon fill="fuchsia" stroke="fuchsia" stroke-width="2" points="2609.93,-653.32 2600.34,-657.82 2610.64,-660.29 2609.93,-653.32"/>
</g>
<!-- node14&#45;&gt;node15 -->
<g id="edge39" class="edge">
<title>node14&#45;&gt;node15</title>
<path fill="none" stroke="black" d="M2664.24,-291.99C2858.53,-279.44 3119.07,-262.61 3297.3,-251.1"/>
<polygon fill="black" stroke="black" points="3297.56,-254.59 3307.31,-250.45 3297.11,-247.6 3297.56,-254.59"/>
<text text-anchor="middle" x="3289.77" y="-256.35" font-family="Times,serif" font-size="14.00">*0</text>
</g>
<!-- node15&#45;&gt;node0 -->
<g id="edge38" class="edge">
<title>node15&#45;&gt;node0</title>
<path fill="none" stroke="fuchsia" stroke-width="2" d="M3652.16,-255.05C3708.54,-265.74 3759,-282.66 3759,-309 3759,-603 3759,-603 3759,-603 3759,-705.94 3630.74,-613.56 3528,-620 3364.99,-630.22 3324.19,-632.13 3161,-639 2917.79,-649.24 2853.05,-630.3 2610.51,-656.56"/>
<polygon fill="fuchsia" stroke="fuchsia" stroke-width="2" points="2609.88,-653.11 2600.32,-657.68 2610.64,-660.06 2609.88,-653.11"/>
</g>
<!-- node15&#45;&gt;node16 -->
<g id="edge45" class="edge">
<title>node15&#45;&gt;node16</title>
<path fill="none" stroke="black" d="M3514.87,-218.81C3527.61,-209.31 3545.79,-197.39 3563.01,-187.19"/>
<polygon fill="black" stroke="black" points="3565,-190.08 3571.89,-182.03 3561.49,-184.02 3565,-190.08"/>
<text text-anchor="middle" x="3560.46" y="-194.74" font-family="Times,serif" font-size="14.00">*1</text>
</g>
<!-- node15&#45;&gt;node16 -->
<g id="edge46" class="edge">
<title>node15&#45;&gt;node16</title>
<path fill="none" stroke="red" d="M3526.35,-218.99C3540.93,-209.58 3559.25,-197.76 3575.02,-187.57"/>
<polygon fill="red" stroke="red" points="3576.98,-190.48 3583.49,-182.11 3573.19,-184.6 3576.98,-190.48"/>
</g>
<!-- node15&#45;&gt;node16 -->
<g id="edge47" class="edge">
<title>node15&#45;&gt;node16</title>
<path fill="none" stroke="green" d="M3538.07,-218.99C3554.34,-209.75 3572.6,-198.19 3586.89,-188.14"/>
<polygon fill="green" stroke="green" points="3589.18,-190.81 3595.23,-182.11 3585.07,-185.14 3589.18,-190.81"/>
</g>
<!-- node16&#45;&gt;node0 -->
<g id="edge43" class="edge">
<title>node16&#45;&gt;node0</title>
<path fill="none" stroke="fuchsia" stroke-width="2" d="M3696.38,-182.02C3745.38,-194.23 3797,-212.65 3797,-236 3797,-603 3797,-603 3797,-603 3797,-676.33 3542.19,-634.55 3469,-639 3089.44,-662.1 2989.29,-617.66 2610.46,-656.59"/>
<polygon fill="fuchsia" stroke="fuchsia" stroke-width="2" points="2609.9,-653.13 2600.32,-657.65 2610.62,-660.09 2609.9,-653.13"/>
</g>
<!-- node17 -->
<g id="node18" class="node">
<title>node17</title>
<polygon fill="lightgrey" stroke="black" points="3782,-109 3438,-109 3438,-73 3782,-73 3782,-109"/>
<text text-anchor="middle" x="3610" y="-87.3" font-family="Times,serif" font-size="14.00">#17 Invoke interface count : ()long Order : 17</text>
</g>
<!-- node16&#45;&gt;node17 -->
<g id="edge49" class="edge">
<title>node16&#45;&gt;node17</title>
<path fill="none" stroke="black" d="M3592.37,-145.81C3589.85,-137.79 3589.15,-128.05 3590.27,-119.07"/>
<polygon fill="black" stroke="black" points="3593.74,-119.54 3592.42,-109.03 3586.9,-118.07 3593.74,-119.54"/>
<text text-anchor="middle" x="3596.89" y="-124.82" font-family="Times,serif" font-size="14.00">*0</text>
</g>
<!-- node16&#45;&gt;node17 -->
<g id="edge50" class="edge">
<title>node16&#45;&gt;node17</title>
<path fill="none" stroke="red" d="M3615.88,-145.81C3616.72,-137.79 3616.95,-128.05 3616.58,-119.07"/>
<polygon fill="red" stroke="red" points="3620.06,-118.75 3615.86,-109.03 3613.08,-119.25 3620.06,-118.75"/>
</g>
<!-- node16&#45;&gt;node17 -->
<g id="edge51" class="edge">
<title>node16&#45;&gt;node17</title>
<path fill="none" stroke="green" d="M3627.63,-145.81C3630.15,-137.79 3630.85,-128.05 3629.73,-119.07"/>
<polygon fill="green" stroke="green" points="3633.1,-118.07 3627.58,-109.03 3626.26,-119.54 3633.1,-118.07"/>
</g>
<!-- node17&#45;&gt;node16 -->
<g id="edge48" class="edge">
<title>node17&#45;&gt;node16</title>
<path fill="none" stroke="fuchsia" stroke-width="2" d="M3604.14,-109.03C3603.29,-117.03 3603.05,-126.77 3603.41,-135.75"/>
<polygon fill="fuchsia" stroke="fuchsia" stroke-width="2" points="3599.93,-136.08 3604.12,-145.81 3606.91,-135.59 3599.93,-136.08"/>
</g>
<!-- node18 -->
<g id="node19" class="node">
<title>node18</title>
<polygon fill="lightgrey" stroke="black" points="3741,-36 3479,-36 3479,0 3741,0 3741,-36"/>
<text text-anchor="middle" x="3610" y="-14.3" font-family="Times,serif" font-size="14.00">#18 ReturnValue : long Order : 18</text>
</g>
<!-- node17&#45;&gt;node18 -->
<g id="edge53" class="edge">
<title>node17&#45;&gt;node18</title>
<path fill="none" stroke="black" d="M3592.37,-72.81C3589.85,-64.79 3589.15,-55.05 3590.27,-46.07"/>
<polygon fill="black" stroke="black" points="3593.74,-46.54 3592.42,-36.03 3586.9,-45.07 3593.74,-46.54"/>
<text text-anchor="middle" x="3596.89" y="-51.82" font-family="Times,serif" font-size="14.00">*0</text>
</g>
<!-- node17&#45;&gt;node18 -->
<g id="edge54" class="edge">
<title>node17&#45;&gt;node18</title>
<path fill="none" stroke="red" d="M3615.88,-72.81C3616.72,-64.79 3616.95,-55.05 3616.58,-46.07"/>
<polygon fill="red" stroke="red" points="3620.06,-45.75 3615.86,-36.03 3613.08,-46.25 3620.06,-45.75"/>
</g>
<!-- node17&#45;&gt;node18 -->
<g id="edge55" class="edge">
<title>node17&#45;&gt;node18</title>
<path fill="none" stroke="green" d="M3627.63,-72.81C3630.15,-64.79 3630.85,-55.05 3629.73,-46.07"/>
<polygon fill="green" stroke="green" points="3633.1,-45.07 3627.58,-36.03 3626.26,-46.54 3633.1,-45.07"/>
</g>
<!-- node18&#45;&gt;node17 -->
<g id="edge52" class="edge">
<title>node18&#45;&gt;node17</title>
<path fill="none" stroke="fuchsia" stroke-width="2" d="M3604.14,-36.03C3603.29,-44.03 3603.05,-53.77 3603.41,-62.75"/>
<polygon fill="fuchsia" stroke="fuchsia" stroke-width="2" points="3599.93,-63.08 3604.12,-72.81 3606.91,-62.59 3599.93,-63.08"/>
</g>
<!-- c0 -->
<!-- c1 -->
<!-- c0&#45;&gt;c1 -->
<g id="edge56" class="edge">
<title>c0&#45;&gt;c1</title>
<path fill="none" stroke="red" d="M3468.89,-675C3480.11,-675 3538.24,-675 3563.86,-675"/>
<polygon fill="red" stroke="red" points="3564.06,-678.5 3574.06,-675 3564.06,-671.5 3564.06,-678.5"/>
<text text-anchor="middle" x="3521.5" y="-681.8" font-family="Times,serif" font-size="14.00">Control flow</text>
</g>
<!-- c2 -->
<!-- c3 -->
<!-- c2&#45;&gt;c3 -->
<g id="edge57" class="edge">
<title>c2&#45;&gt;c3</title>
<path fill="none" stroke="red" stroke-dasharray="5,2" d="M3262.08,-675C3279.05,-675 3395.21,-675 3433.08,-675"/>
<polygon fill="red" stroke="red" points="3433.17,-678.5 3443.17,-675 3433.17,-671.5 3433.17,-678.5"/>
<text text-anchor="middle" x="3352.5" y="-681.8" font-family="Times,serif" font-size="14.00">Control flow back edge</text>
</g>
<!-- d0 -->
<!-- d1 -->
<!-- d0&#45;&gt;d1 -->
<g id="edge58" class="edge">
<title>d0&#45;&gt;d1</title>
<path fill="none" stroke="black" d="M3150.86,-675C3160.41,-675 3204.31,-675 3225.92,-675"/>
<polygon fill="black" stroke="black" points="3226.15,-678.5 3236.15,-675 3226.15,-671.5 3226.15,-678.5"/>
<text text-anchor="middle" x="3193.5" y="-681.8" font-family="Times,serif" font-size="14.00">Data flow</text>
</g>
<!-- d2 -->
<!-- d3 -->
<!-- d2&#45;&gt;d3 -->
<g id="edge59" class="edge">
<title>d2&#45;&gt;d3</title>
<path fill="none" stroke="black" stroke-dasharray="1,5" d="M3024.81,-675C3035.46,-675 3090.46,-675 3115.08,-675"/>
<polygon fill="black" stroke="black" points="3115.15,-678.5 3125.15,-675 3115.15,-671.5 3115.15,-678.5"/>
<text text-anchor="middle" x="3075" y="-681.8" font-family="Times,serif" font-size="14.00">Declaration</text>
</g>
<!-- d4 -->
<!-- d5 -->
<!-- d4&#45;&gt;d5 -->
<g id="edge60" class="edge">
<title>d4&#45;&gt;d5</title>
<path fill="none" stroke="blue" d="M2882.1,-675C2894.72,-675 2960.88,-675 2988.68,-675"/>
<polygon fill="blue" stroke="blue" points="2988.84,-678.5 2998.84,-675 2988.84,-671.5 2988.84,-678.5"/>
<text text-anchor="middle" x="2940.5" y="-681.8" font-family="Times,serif" font-size="14.00">PHI Data flow</text>
</g>
<!-- d6 -->
<!-- d7 -->
<!-- d6&#45;&gt;d7 -->
<g id="edge61" class="edge">
<title>d6&#45;&gt;d7</title>
<path fill="none" stroke="green" d="M2745,-675C2756.94,-675 2819.3,-675 2845.93,-675"/>
<polygon fill="green" stroke="green" points="2845.95,-678.5 2855.95,-675 2845.95,-671.5 2845.95,-678.5"/>
<text text-anchor="middle" x="2800.5" y="-681.8" font-family="Times,serif" font-size="14.00">Memory flow</text>
</g>
<!-- d8 -->
<!-- d9 -->
<!-- d8&#45;&gt;d9 -->
<g id="edge62" class="edge">
<title>d8&#45;&gt;d9</title>
<path fill="none" stroke="fuchsia" d="M2622.11,-675C2633.15,-675 2684.67,-675 2708.66,-675"/>
<polygon fill="fuchsia" stroke="fuchsia" points="2708.9,-678.5 2718.9,-675 2708.9,-671.5 2708.9,-678.5"/>
<text text-anchor="middle" x="2670.5" y="-681.8" font-family="Times,serif" font-size="14.00">Dominance</text>
</g>
</g>
</svg>
