<?xml version="1.0" encoding="UTF-8" standalone="no"?>
<!DOCTYPE svg PUBLIC "-//W3C//DTD SVG 1.1//EN"
 "http://www.w3.org/Graphics/SVG/1.1/DTD/svg11.dtd">
<!-- Generated by graphviz version 2.43.0 (0)
 -->
<!-- Title: %3 Pages: 1 -->
<svg width="1272pt" height="879pt"
 viewBox="0.00 0.00 1272.00 878.80" xmlns="http://www.w3.org/2000/svg" xmlns:xlink="http://www.w3.org/1999/xlink">
<g id="graph0" class="graph" transform="scale(1 1) rotate(0) translate(4 874.8)">
<title>%3</title>
<polygon fill="white" stroke="transparent" points="-4,4 -4,-874.8 1268,-874.8 1268,4 -4,4"/>
<g id="clust1" class="cluster">
<title>cluster_0</title>
<polygon fill="none" stroke="lightgray" points="170,-649 170,-774 594,-774 594,-649 170,-649"/>
</g>
<g id="clust2" class="cluster">
<title>cluster_1</title>
<polygon fill="none" stroke="lightgray" points="172,-357 172,-482 550,-482 550,-357 172,-357"/>
</g>
<g id="clust3" class="cluster">
<title>cluster_000</title>
<polygon fill="none" stroke="black" points="403,-820.2 403,-862.8 1256,-862.8 1256,-820.2 403,-820.2"/>
<text text-anchor="middle" x="829.5" y="-847.6" font-family="Times,serif" font-size="14.00">Legend</text>
</g>
<!-- node0 -->
<g id="node1" class="node">
<title>node0</title>
<polygon fill="lightgrey" stroke="transparent" points="393.5,-857 226.5,-857 226.5,-803 393.5,-803 393.5,-857"/>
<polygon fill="none" stroke="black" points="227,-830 227,-857 394,-857 394,-830 227,-830"/>
<text text-anchor="start" x="270" y="-839.8" font-family="Times,serif" font-size="14.00">#0 Method</text>
<polygon fill="yellow" stroke="transparent" points="227,-803 227,-830 394,-830 394,-803 227,-803"/>
<polygon fill="none" stroke="black" points="227,-803 227,-830 394,-830 394,-803 227,-803"/>
<text text-anchor="start" x="233" y="-812.8" font-family="Times,serif" font-size="14.00">this : FieldAccessTest</text>
</g>
<!-- node4 -->
<g id="node2" class="node">
<title>node4</title>
<polygon fill="lightgrey" stroke="black" points="317.5,-620 212.5,-620 212.5,-584 317.5,-584 317.5,-620"/>
<text text-anchor="middle" x="265" y="-598.3" font-family="Times,serif" font-size="14.00">#4 ClassInit</text>
</g>
<!-- node0&#45;&gt;node4 -->
<g id="edge3" class="edge">
<title>node0&#45;&gt;node4</title>
<path fill="none" stroke="green" d="M226.37,-815.43C202.98,-807.36 180.11,-794.5 166,-774 134.49,-728.24 136.12,-695.83 166,-649 174.61,-635.5 188.32,-625.9 202.83,-619.1"/>
<polygon fill="green" stroke="green" points="204.6,-622.15 212.43,-615.02 201.86,-615.71 204.6,-622.15"/>
</g>
<!-- node2 -->
<g id="node4" class="node">
<title>node2</title>
<polygon fill="lightgrey" stroke="black" points="369.5,-766 250.5,-766 250.5,-730 369.5,-730 369.5,-766"/>
<text text-anchor="middle" x="310" y="-744.3" font-family="Times,serif" font-size="14.00">#2 LabelNode</text>
</g>
<!-- node0&#45;&gt;node2 -->
<g id="edge4" class="edge">
<title>node0&#45;&gt;node2</title>
<path fill="none" stroke="red" d="M310,-802.81C310,-794.35 310,-784.95 310,-776.4"/>
<polygon fill="red" stroke="red" points="313.5,-776.17 310,-766.17 306.5,-776.17 313.5,-776.17"/>
</g>
<!-- node5 -->
<g id="node5" class="node">
<title>node5</title>
<polygon fill="orange" stroke="black" points="277.12,-521.54 277.12,-536.46 246.59,-547 203.41,-547 172.88,-536.46 172.88,-521.54 203.41,-511 246.59,-511 277.12,-521.54"/>
<text text-anchor="middle" x="225" y="-525.3" font-family="Times,serif" font-size="14.00">#5 New</text>
</g>
<!-- node4&#45;&gt;node5 -->
<g id="edge6" class="edge">
<title>node4&#45;&gt;node5</title>
<path fill="none" stroke="black" d="M249.44,-583.81C243.9,-575.53 237.98,-565.41 233.22,-556.19"/>
<polygon fill="black" stroke="black" points="236.27,-554.47 228.73,-547.03 229.98,-557.55 236.27,-554.47"/>
<text text-anchor="middle" x="244.29" y="-555.89" font-family="Times,serif" font-size="14.00">*0</text>
</g>
<!-- node4&#45;&gt;node5 -->
<g id="edge7" class="edge">
<title>node4&#45;&gt;node5</title>
<path fill="none" stroke="green" d="M261.2,-583.81C257.31,-575.35 251.68,-564.98 245.94,-555.61"/>
<polygon fill="green" stroke="green" points="248.79,-553.57 240.46,-547.03 242.89,-557.34 248.79,-553.57"/>
</g>
<!-- node6 -->
<g id="node12" class="node">
<title>node6</title>
<polygon fill="lightgrey" stroke="black" points="430,-474 180,-474 180,-438 430,-438 430,-474"/>
<text text-anchor="middle" x="305" y="-452.3" font-family="Times,serif" font-size="14.00">#6 Invoke special &lt;init&gt; : ()void</text>
</g>
<!-- node4&#45;&gt;node6 -->
<g id="edge21" class="edge">
<title>node4&#45;&gt;node6</title>
<path fill="none" stroke="red" d="M272.54,-583.74C276.91,-573.26 282.27,-559.53 286,-547 292.18,-526.24 297.15,-502.22 300.45,-484.22"/>
<polygon fill="red" stroke="red" points="303.94,-484.58 302.24,-474.13 297.05,-483.36 303.94,-484.58"/>
</g>
<!-- node3 -->
<g id="node3" class="node">
<title>node3</title>
<polygon fill="lightgreen" stroke="black" points="586.03,-667.54 586.03,-682.46 466.51,-693 297.49,-693 177.97,-682.46 177.97,-667.54 297.49,-657 466.51,-657 586.03,-667.54"/>
<text text-anchor="middle" x="382" y="-671.3" font-family="Times,serif" font-size="14.00">#3 Class FieldAccessTest$Destination</text>
</g>
<!-- node3&#45;&gt;node4 -->
<g id="edge1" class="edge">
<title>node3&#45;&gt;node4</title>
<path fill="none" stroke="black" d="M353.98,-656.99C338.46,-647.58 318.98,-635.76 302.2,-625.57"/>
<polygon fill="black" stroke="black" points="303.57,-622.31 293.2,-620.11 299.93,-628.29 303.57,-622.31"/>
<text text-anchor="middle" x="313.08" y="-618.59" font-family="Times,serif" font-size="14.00">*0</text>
</g>
<!-- node2&#45;&gt;node4 -->
<g id="edge2" class="edge">
<title>node2&#45;&gt;node4</title>
<path fill="none" stroke="red" d="M250.47,-738.28C221.67,-730.97 189.07,-717.56 169,-693 153.33,-673.82 145.52,-658.09 160,-638 170.14,-623.93 186.19,-615.43 202.72,-610.32"/>
<polygon fill="red" stroke="red" points="203.72,-613.67 212.46,-607.69 201.9,-606.92 203.72,-613.67"/>
</g>
<!-- node2&#45;&gt;node3 -->
<g id="edge5" class="edge">
<title>node2&#45;&gt;node3</title>
<path fill="none" stroke="black" stroke-dasharray="1,5" d="M327.43,-729.81C336.45,-720.92 347.61,-709.91 357.49,-700.17"/>
<polygon fill="black" stroke="black" points="360.07,-702.54 364.73,-693.03 355.15,-697.56 360.07,-702.54"/>
</g>
<!-- node12 -->
<g id="node6" class="node">
<title>node12</title>
<polygon fill="lightgrey" stroke="black" points="322.5,-109 77.5,-109 77.5,-73 322.5,-73 322.5,-109"/>
<text text-anchor="middle" x="200" y="-87.3" font-family="Times,serif" font-size="14.00">#12 PutField : array_field : int[]</text>
</g>
<!-- node5&#45;&gt;node12 -->
<g id="edge8" class="edge">
<title>node5&#45;&gt;node12</title>
<path fill="none" stroke="black" d="M172.81,-522.09C106.35,-513.09 0,-493.05 0,-457 0,-457 0,-457 0,-163 0,-140.46 45.66,-123.26 93.35,-111.43"/>
<polygon fill="black" stroke="black" points="94.31,-114.79 103.22,-109.06 92.68,-107.99 94.31,-114.79"/>
<text text-anchor="middle" x="87.57" y="-117.81" font-family="Times,serif" font-size="14.00">*0</text>
</g>
<!-- node5&#45;&gt;node6 -->
<g id="edge20" class="edge">
<title>node5&#45;&gt;node6</title>
<path fill="none" stroke="black" d="M238.49,-510.81C247.76,-501.74 260.28,-490.48 272.01,-480.6"/>
<polygon fill="black" stroke="black" points="274.48,-483.1 279.95,-474.03 270.01,-477.71 274.48,-483.1"/>
<text text-anchor="middle" x="271.37" y="-488.4" font-family="Times,serif" font-size="14.00">*0</text>
</g>
<!-- node5&#45;&gt;node6 -->
<g id="edge22" class="edge">
<title>node5&#45;&gt;node6</title>
<path fill="none" stroke="green" d="M249.36,-511.53C260.53,-502.5 273.55,-491.13 284.25,-481.12"/>
<polygon fill="green" stroke="green" points="286.77,-483.56 291.58,-474.12 281.93,-478.5 286.77,-483.56"/>
</g>
<!-- node13 -->
<g id="node13" class="node">
<title>node13</title>
<polygon fill="lightgrey" stroke="black" points="250.5,-36 149.5,-36 149.5,0 250.5,0 250.5,-36"/>
<text text-anchor="middle" x="200" y="-14.3" font-family="Times,serif" font-size="14.00">#13 Return</text>
</g>
<!-- node12&#45;&gt;node13 -->
<g id="edge26" class="edge">
<title>node12&#45;&gt;node13</title>
<path fill="none" stroke="red" d="M194.12,-72.81C193.28,-64.79 193.05,-55.05 193.42,-46.07"/>
<polygon fill="red" stroke="red" points="196.92,-46.25 194.14,-36.03 189.94,-45.75 196.92,-46.25"/>
</g>
<!-- node12&#45;&gt;node13 -->
<g id="edge27" class="edge">
<title>node12&#45;&gt;node13</title>
<path fill="none" stroke="green" d="M205.88,-72.81C206.72,-64.79 206.95,-55.05 206.58,-46.07"/>
<polygon fill="green" stroke="green" points="210.06,-45.75 205.86,-36.03 203.08,-46.25 210.06,-45.75"/>
</g>
<!-- node11 -->
<g id="node7" class="node">
<title>node11</title>
<polygon fill="orange" stroke="black" points="372.21,-156.54 372.21,-171.46 271.33,-182 128.67,-182 27.79,-171.46 27.79,-156.54 128.67,-146 271.33,-146 372.21,-156.54"/>
<text text-anchor="middle" x="200" y="-160.3" font-family="Times,serif" font-size="14.00">#11 GetField : array_field : int[]</text>
</g>
<!-- node11&#45;&gt;node12 -->
<g id="edge9" class="edge">
<title>node11&#45;&gt;node12</title>
<path fill="none" stroke="black" d="M194.12,-145.81C193.28,-137.79 193.05,-128.05 193.42,-119.07"/>
<polygon fill="black" stroke="black" points="196.92,-119.25 194.14,-109.03 189.94,-118.75 196.92,-119.25"/>
<text text-anchor="middle" x="201.28" y="-124.01" font-family="Times,serif" font-size="14.00">*1</text>
</g>
<!-- node11&#45;&gt;node12 -->
<g id="edge10" class="edge">
<title>node11&#45;&gt;node12</title>
<path fill="none" stroke="green" d="M205.88,-145.81C206.72,-137.79 206.95,-128.05 206.58,-119.07"/>
<polygon fill="green" stroke="green" points="210.06,-118.75 205.86,-109.03 203.08,-119.25 210.06,-118.75"/>
</g>
<!-- node10 -->
<g id="node8" class="node">
<title>node10</title>
<polygon fill="lightgrey" stroke="black" points="666.5,-182 407.5,-182 407.5,-146 666.5,-146 666.5,-182"/>
<text text-anchor="middle" x="537" y="-160.3" font-family="Times,serif" font-size="14.00">#10 Invoke special &lt;init&gt; : ()void</text>
</g>
<!-- node10&#45;&gt;node12 -->
<g id="edge11" class="edge">
<title>node10&#45;&gt;node12</title>
<path fill="none" stroke="red" d="M456.28,-145.99C406.43,-135.49 342.36,-121.99 290.75,-111.12"/>
<polygon fill="red" stroke="red" points="291.44,-107.69 280.94,-109.05 290,-114.54 291.44,-107.69"/>
</g>
<!-- node10&#45;&gt;node11 -->
<g id="edge25" class="edge">
<title>node10&#45;&gt;node11</title>
<path fill="none" stroke="green" d="M407.48,-164C399.18,-164 390.88,-164 382.58,-164"/>
<polygon fill="green" stroke="green" points="382.45,-160.5 372.45,-164 382.45,-167.5 382.45,-160.5"/>
</g>
<!-- node9 -->
<g id="node9" class="node">
<title>node9</title>
<polygon fill="orange" stroke="black" points="413.12,-229.54 413.12,-244.46 382.59,-255 339.41,-255 308.88,-244.46 308.88,-229.54 339.41,-219 382.59,-219 413.12,-229.54"/>
<text text-anchor="middle" x="361" y="-233.3" font-family="Times,serif" font-size="14.00">#9 New</text>
</g>
<!-- node9&#45;&gt;node11 -->
<g id="edge24" class="edge">
<title>node9&#45;&gt;node11</title>
<path fill="none" stroke="black" d="M329.58,-222.14C306.43,-211.93 274.53,-197.87 248.17,-186.24"/>
<polygon fill="black" stroke="black" points="249.3,-182.92 238.74,-182.08 246.48,-189.32 249.3,-182.92"/>
<text text-anchor="middle" x="258.74" y="-177.96" font-family="Times,serif" font-size="14.00">*0</text>
</g>
<!-- node9&#45;&gt;node10 -->
<g id="edge12" class="edge">
<title>node9&#45;&gt;node10</title>
<path fill="none" stroke="black" d="M391.07,-221.63C415.29,-211.32 449.9,-197.27 479.37,-185.75"/>
<polygon fill="black" stroke="black" points="480.69,-188.99 488.74,-182.1 478.16,-182.46 480.69,-188.99"/>
<text text-anchor="middle" x="474.92" y="-192.85" font-family="Times,serif" font-size="14.00">*0</text>
</g>
<!-- node9&#45;&gt;node10 -->
<g id="edge14" class="edge">
<title>node9&#45;&gt;node10</title>
<path fill="none" stroke="green" d="M396.5,-223.79C423.82,-213.42 461.64,-198.29 491.22,-185.98"/>
<polygon fill="green" stroke="green" points="492.63,-189.18 500.5,-182.09 489.93,-182.72 492.63,-189.18"/>
</g>
<!-- node8 -->
<g id="node10" class="node">
<title>node8</title>
<polygon fill="lightgrey" stroke="black" points="413.5,-328 308.5,-328 308.5,-292 413.5,-292 413.5,-328"/>
<text text-anchor="middle" x="361" y="-306.3" font-family="Times,serif" font-size="14.00">#8 ClassInit</text>
</g>
<!-- node8&#45;&gt;node10 -->
<g id="edge13" class="edge">
<title>node8&#45;&gt;node10</title>
<path fill="none" stroke="red" d="M381.88,-291.92C413.24,-266.26 472.59,-217.7 508.1,-188.65"/>
<polygon fill="red" stroke="red" points="510.62,-191.1 516.15,-182.06 506.19,-185.69 510.62,-191.1"/>
</g>
<!-- node8&#45;&gt;node9 -->
<g id="edge15" class="edge">
<title>node8&#45;&gt;node9</title>
<path fill="none" stroke="black" d="M355.12,-291.81C354.28,-283.79 354.05,-274.05 354.42,-265.07"/>
<polygon fill="black" stroke="black" points="357.92,-265.25 355.14,-255.03 350.94,-264.75 357.92,-265.25"/>
<text text-anchor="middle" x="362.28" y="-270.01" font-family="Times,serif" font-size="14.00">*0</text>
</g>
<!-- node8&#45;&gt;node9 -->
<g id="edge16" class="edge">
<title>node8&#45;&gt;node9</title>
<path fill="none" stroke="green" d="M366.88,-291.81C367.72,-283.79 367.95,-274.05 367.58,-265.07"/>
<polygon fill="green" stroke="green" points="371.06,-264.75 366.86,-255.03 364.08,-265.25 371.06,-264.75"/>
</g>
<!-- node7 -->
<g id="node11" class="node">
<title>node7</title>
<polygon fill="lightgreen" stroke="black" points="541.6,-375.54 541.6,-390.46 435.81,-401 286.19,-401 180.4,-390.46 180.4,-375.54 286.19,-365 435.81,-365 541.6,-375.54"/>
<text text-anchor="middle" x="361" y="-379.3" font-family="Times,serif" font-size="14.00">#7 Class FieldAccessTest$Source</text>
</g>
<!-- node7&#45;&gt;node8 -->
<g id="edge17" class="edge">
<title>node7&#45;&gt;node8</title>
<path fill="none" stroke="black" d="M361,-364.81C361,-356.79 361,-347.05 361,-338.07"/>
<polygon fill="black" stroke="black" points="364.5,-338.03 361,-328.03 357.5,-338.03 364.5,-338.03"/>
<text text-anchor="middle" x="369.45" y="-342.45" font-family="Times,serif" font-size="14.00">*0</text>
</g>
<!-- node6&#45;&gt;node8 -->
<g id="edge18" class="edge">
<title>node6&#45;&gt;node8</title>
<path fill="none" stroke="red" d="M211.39,-437.99C191.83,-430 173.65,-418.25 162,-401 151.06,-384.79 149.91,-372.37 162,-357 178.48,-336.06 246.23,-323.5 298.23,-316.92"/>
<polygon fill="red" stroke="red" points="298.9,-320.36 308.4,-315.68 298.05,-313.42 298.9,-320.36"/>
</g>
<!-- node6&#45;&gt;node8 -->
<g id="edge19" class="edge">
<title>node6&#45;&gt;node8</title>
<path fill="none" stroke="green" d="M228.78,-437.99C209.83,-430 191.65,-418.25 180,-401 169.06,-384.79 167.91,-372.37 180,-357 194.96,-337.99 252.16,-325.89 298.38,-318.9"/>
<polygon fill="green" stroke="green" points="298.96,-322.35 308.35,-317.44 297.95,-315.42 298.96,-322.35"/>
</g>
<!-- node6&#45;&gt;node7 -->
<g id="edge23" class="edge">
<title>node6&#45;&gt;node7</title>
<path fill="none" stroke="black" stroke-dasharray="1,5" d="M318.56,-437.81C325.37,-429.18 333.75,-418.56 341.25,-409.03"/>
<polygon fill="black" stroke="black" points="344.12,-411.05 347.57,-401.03 338.63,-406.71 344.12,-411.05"/>
</g>
<!-- c0 -->
<!-- c1 -->
<!-- c0&#45;&gt;c1 -->
<g id="edge28" class="edge">
<title>c0&#45;&gt;c1</title>
<path fill="none" stroke="red" d="M1138.89,-830C1150.11,-830 1208.24,-830 1233.86,-830"/>
<polygon fill="red" stroke="red" points="1234.06,-833.5 1244.06,-830 1234.06,-826.5 1234.06,-833.5"/>
<text text-anchor="middle" x="1191.5" y="-836.8" font-family="Times,serif" font-size="14.00">Control flow</text>
</g>
<!-- c2 -->
<!-- c3 -->
<!-- c2&#45;&gt;c3 -->
<g id="edge29" class="edge">
<title>c2&#45;&gt;c3</title>
<path fill="none" stroke="red" stroke-dasharray="5,2" d="M932.08,-830C949.05,-830 1065.21,-830 1103.08,-830"/>
<polygon fill="red" stroke="red" points="1103.17,-833.5 1113.17,-830 1103.17,-826.5 1103.17,-833.5"/>
<text text-anchor="middle" x="1022.5" y="-836.8" font-family="Times,serif" font-size="14.00">Control flow back edge</text>
</g>
<!-- d0 -->
<!-- d1 -->
<!-- d0&#45;&gt;d1 -->
<g id="edge30" class="edge">
<title>d0&#45;&gt;d1</title>
<path fill="none" stroke="black" d="M820.86,-830C830.41,-830 874.31,-830 895.92,-830"/>
<polygon fill="black" stroke="black" points="896.15,-833.5 906.15,-830 896.15,-826.5 896.15,-833.5"/>
<text text-anchor="middle" x="863.5" y="-836.8" font-family="Times,serif" font-size="14.00">Data flow</text>
</g>
<!-- d2 -->
<!-- d3 -->
<!-- d2&#45;&gt;d3 -->
<g id="edge31" class="edge">
<title>d2&#45;&gt;d3</title>
<path fill="none" stroke="black" stroke-dasharray="1,5" d="M694.81,-830C705.46,-830 760.46,-830 785.08,-830"/>
<polygon fill="black" stroke="black" points="785.15,-833.5 795.15,-830 785.15,-826.5 785.15,-833.5"/>
<text text-anchor="middle" x="745" y="-836.8" font-family="Times,serif" font-size="14.00">Declaration</text>
</g>
<!-- d4 -->
<!-- d5 -->
<!-- d4&#45;&gt;d5 -->
<g id="edge32" class="edge">
<title>d4&#45;&gt;d5</title>
<path fill="none" stroke="blue" d="M552.1,-830C564.72,-830 630.88,-830 658.68,-830"/>
<polygon fill="blue" stroke="blue" points="658.84,-833.5 668.84,-830 658.84,-826.5 658.84,-833.5"/>
<text text-anchor="middle" x="610.5" y="-836.8" font-family="Times,serif" font-size="14.00">PHI Data flow</text>
</g>
<!-- d6 -->
<!-- d7 -->
<!-- d6&#45;&gt;d7 -->
<g id="edge33" class="edge">
<title>d6&#45;&gt;d7</title>
<path fill="none" stroke="green" d="M415,-830C426.94,-830 489.3,-830 515.93,-830"/>
<polygon fill="green" stroke="green" points="515.95,-833.5 525.95,-830 515.95,-826.5 515.95,-833.5"/>
<text text-anchor="middle" x="470.5" y="-836.8" font-family="Times,serif" font-size="14.00">Memory flow</text>
</g>
</g>
</svg>
