<?xml version="1.0" encoding="UTF-8" standalone="no"?>
<!DOCTYPE svg PUBLIC "-//W3C//DTD SVG 1.1//EN"
 "http://www.w3.org/Graphics/SVG/1.1/DTD/svg11.dtd">
<!-- Generated by graphviz version 2.43.0 (0)
 -->
<!-- Title: %3 Pages: 1 -->
<svg width="1861pt" height="735pt"
 viewBox="0.00 0.00 1860.50 735.00" xmlns="http://www.w3.org/2000/svg" xmlns:xlink="http://www.w3.org/1999/xlink">
<g id="graph0" class="graph" transform="scale(1 1) rotate(0) translate(4 731)">
<title>%3</title>
<polygon fill="white" stroke="transparent" points="-4,4 -4,-731 1856.5,-731 1856.5,4 -4,4"/>
<g id="clust1" class="cluster">
<title>cluster_0</title>
<polygon fill="none" stroke="lightgray" points="167.5,-576 167.5,-719 983.5,-719 983.5,-576 167.5,-576"/>
</g>
<g id="clust2" class="cluster">
<title>cluster_000</title>
<polygon fill="none" stroke="black" points="991.5,-674.2 991.5,-716.8 1844.5,-716.8 1844.5,-674.2 991.5,-674.2"/>
<text text-anchor="middle" x="1418" y="-701.6" font-family="Times,serif" font-size="14.00">Legend</text>
</g>
<!-- node0 -->
<g id="node1" class="node">
<title>node0</title>
<polygon fill="lightgrey" stroke="transparent" points="469,-711 302,-711 302,-657 469,-657 469,-711"/>
<polygon fill="none" stroke="black" points="302.5,-684 302.5,-711 469.5,-711 469.5,-684 302.5,-684"/>
<text text-anchor="start" x="345.5" y="-693.8" font-family="Times,serif" font-size="14.00">#0 Method</text>
<polygon fill="yellow" stroke="transparent" points="302.5,-657 302.5,-684 469.5,-684 469.5,-657 302.5,-657"/>
<polygon fill="none" stroke="black" points="302.5,-657 302.5,-684 469.5,-684 469.5,-657 302.5,-657"/>
<text text-anchor="start" x="308.5" y="-666.8" font-family="Times,serif" font-size="14.00">this : FieldAccessTest</text>
</g>
<!-- node1 -->
<g id="node2" class="node">
<title>node1</title>
<polygon fill="lightgrey" stroke="black" points="438,-547 333,-547 333,-511 438,-511 438,-547"/>
<text text-anchor="middle" x="385.5" y="-525.3" font-family="Times,serif" font-size="14.00">#1 ClassInit</text>
</g>
<!-- node0&#45;&gt;node1 -->
<g id="edge3" class="edge">
<title>node0&#45;&gt;node1</title>
<path fill="none" stroke="green" d="M301.85,-671.97C223.08,-658.11 123.16,-629.39 166.5,-576 171.52,-569.82 259.96,-552.68 322.9,-541.16"/>
<polygon fill="green" stroke="green" points="323.55,-544.6 332.76,-539.36 322.3,-537.71 323.55,-544.6"/>
</g>
<!-- node13 -->
<g id="node3" class="node">
<title>node13</title>
<polygon fill="lightgreen" stroke="black" points="595.69,-594.54 595.69,-609.46 472.56,-620 298.44,-620 175.31,-609.46 175.31,-594.54 298.44,-584 472.56,-584 595.69,-594.54"/>
<text text-anchor="middle" x="385.5" y="-598.3" font-family="Times,serif" font-size="14.00">#13 Class FieldAccessTest$Destination</text>
</g>
<!-- node0&#45;&gt;node13 -->
<g id="edge5" class="edge">
<title>node0&#45;&gt;node13</title>
<path fill="none" stroke="black" stroke-dasharray="1,5" d="M385.5,-656.81C385.5,-648.35 385.5,-638.95 385.5,-630.4"/>
<polygon fill="black" stroke="black" points="389,-630.17 385.5,-620.17 382,-630.17 389,-630.17"/>
</g>
<!-- node5 -->
<g id="node4" class="node">
<title>node5</title>
<polygon fill="lightgrey" stroke="black" points="119,-620 0,-620 0,-584 119,-584 119,-620"/>
<text text-anchor="middle" x="59.5" y="-598.3" font-family="Times,serif" font-size="14.00">#5 LabelNode</text>
</g>
<!-- node0&#45;&gt;node5 -->
<g id="edge4" class="edge">
<title>node0&#45;&gt;node5</title>
<path fill="none" stroke="red" d="M301.82,-677.74C247.83,-672.3 176.87,-661.29 117.5,-639 108.46,-635.6 99.29,-630.72 91,-625.64"/>
<polygon fill="red" stroke="red" points="92.7,-622.57 82.39,-620.12 88.91,-628.46 92.7,-622.57"/>
</g>
<!-- node6 -->
<g id="node12" class="node">
<title>node6</title>
<polygon fill="lightgreen" stroke="black" points="975.1,-594.54 975.1,-609.46 869.31,-620 719.69,-620 613.9,-609.46 613.9,-594.54 719.69,-584 869.31,-584 975.1,-594.54"/>
<text text-anchor="middle" x="794.5" y="-598.3" font-family="Times,serif" font-size="14.00">#6 Class FieldAccessTest$Source</text>
</g>
<!-- node0&#45;&gt;node6 -->
<g id="edge23" class="edge">
<title>node0&#45;&gt;node6</title>
<path fill="none" stroke="black" stroke-dasharray="1,5" d="M469.25,-666.62C536.75,-653.42 631.58,-634.87 701.44,-621.2"/>
<polygon fill="black" stroke="black" points="702.42,-624.58 711.56,-619.22 701.07,-617.71 702.42,-624.58"/>
</g>
<!-- node2 -->
<g id="node5" class="node">
<title>node2</title>
<polygon fill="lightgrey" stroke="black" points="611.5,-401 361.5,-401 361.5,-365 611.5,-365 611.5,-401"/>
<text text-anchor="middle" x="486.5" y="-379.3" font-family="Times,serif" font-size="14.00">#2 Invoke special &lt;init&gt; : ()void</text>
</g>
<!-- node1&#45;&gt;node2 -->
<g id="edge7" class="edge">
<title>node1&#45;&gt;node2</title>
<path fill="none" stroke="red" d="M409.46,-510.78C421.74,-501.05 436.22,-488.03 446.5,-474 460.65,-454.68 471.29,-429.56 478.03,-410.77"/>
<polygon fill="red" stroke="red" points="481.42,-411.65 481.36,-401.06 474.8,-409.38 481.42,-411.65"/>
</g>
<!-- node3 -->
<g id="node6" class="node">
<title>node3</title>
<polygon fill="orange" stroke="black" points="437.62,-448.54 437.62,-463.46 407.09,-474 363.91,-474 333.38,-463.46 333.38,-448.54 363.91,-438 407.09,-438 437.62,-448.54"/>
<text text-anchor="middle" x="385.5" y="-452.3" font-family="Times,serif" font-size="14.00">#3 New</text>
</g>
<!-- node1&#45;&gt;node3 -->
<g id="edge9" class="edge">
<title>node1&#45;&gt;node3</title>
<path fill="none" stroke="black" d="M379.62,-510.81C378.78,-502.79 378.55,-493.05 378.92,-484.07"/>
<polygon fill="black" stroke="black" points="382.42,-484.25 379.64,-474.03 375.44,-483.75 382.42,-484.25"/>
<text text-anchor="middle" x="386.78" y="-489.01" font-family="Times,serif" font-size="14.00">*0</text>
</g>
<!-- node1&#45;&gt;node3 -->
<g id="edge10" class="edge">
<title>node1&#45;&gt;node3</title>
<path fill="none" stroke="green" d="M391.38,-510.81C392.22,-502.79 392.45,-493.05 392.08,-484.07"/>
<polygon fill="green" stroke="green" points="395.56,-483.75 391.36,-474.03 388.58,-484.25 395.56,-483.75"/>
</g>
<!-- node13&#45;&gt;node1 -->
<g id="edge1" class="edge">
<title>node13&#45;&gt;node1</title>
<path fill="none" stroke="black" d="M385.5,-583.81C385.5,-575.79 385.5,-566.05 385.5,-557.07"/>
<polygon fill="black" stroke="black" points="389,-557.03 385.5,-547.03 382,-557.03 389,-557.03"/>
<text text-anchor="middle" x="393.95" y="-561.45" font-family="Times,serif" font-size="14.00">*0</text>
</g>
<!-- node5&#45;&gt;node1 -->
<g id="edge2" class="edge">
<title>node5&#45;&gt;node1</title>
<path fill="none" stroke="red" d="M106.56,-583.96C115.44,-581.07 124.7,-578.28 133.5,-576 197.28,-559.5 271.62,-546.69 322.94,-538.83"/>
<polygon fill="red" stroke="red" points="323.53,-542.28 332.89,-537.32 322.48,-535.36 323.53,-542.28"/>
</g>
<!-- node7 -->
<g id="node11" class="node">
<title>node7</title>
<polygon fill="lightgrey" stroke="black" points="844,-328 739,-328 739,-292 844,-292 844,-328"/>
<text text-anchor="middle" x="791.5" y="-306.3" font-family="Times,serif" font-size="14.00">#7 ClassInit</text>
</g>
<!-- node2&#45;&gt;node7 -->
<g id="edge21" class="edge">
<title>node2&#45;&gt;node7</title>
<path fill="none" stroke="red" d="M553.7,-364.99C605.9,-352.53 677.7,-335.85 728.76,-324.35"/>
<polygon fill="red" stroke="red" points="729.69,-327.72 738.68,-322.12 728.15,-320.89 729.69,-327.72"/>
</g>
<!-- node2&#45;&gt;node7 -->
<g id="edge22" class="edge">
<title>node2&#45;&gt;node7</title>
<path fill="none" stroke="green" d="M565.41,-364.99C616.33,-353.43 681.59,-338.23 728.93,-326.9"/>
<polygon fill="green" stroke="green" points="729.84,-330.28 738.75,-324.55 728.21,-323.47 729.84,-330.28"/>
</g>
<!-- node3&#45;&gt;node2 -->
<g id="edge6" class="edge">
<title>node3&#45;&gt;node2</title>
<path fill="none" stroke="black" d="M404.07,-437.81C416.37,-428.48 432.79,-416.83 447.79,-406.75"/>
<polygon fill="black" stroke="black" points="450.02,-409.47 456.41,-401.03 446.15,-403.64 450.02,-409.47"/>
<text text-anchor="middle" x="445.98" y="-414.39" font-family="Times,serif" font-size="14.00">*0</text>
</g>
<!-- node3&#45;&gt;node2 -->
<g id="edge8" class="edge">
<title>node3&#45;&gt;node2</title>
<path fill="none" stroke="green" d="M412.82,-439.77C427.45,-430.3 445.27,-417.94 459.79,-407.26"/>
<polygon fill="green" stroke="green" points="461.99,-409.99 467.91,-401.2 457.8,-404.38 461.99,-409.99"/>
</g>
<!-- node11 -->
<g id="node7" class="node">
<title>node11</title>
<polygon fill="lightgrey" stroke="black" points="656,-109 411,-109 411,-73 656,-73 656,-109"/>
<text text-anchor="middle" x="533.5" y="-87.3" font-family="Times,serif" font-size="14.00">#11 PutField : array_field : int[]</text>
</g>
<!-- node3&#45;&gt;node11 -->
<g id="edge11" class="edge">
<title>node3&#45;&gt;node11</title>
<path fill="none" stroke="black" d="M363.45,-437.93C349.27,-424.89 333.5,-405.54 333.5,-384 333.5,-384 333.5,-384 333.5,-163 333.5,-140.46 379.16,-123.26 426.85,-111.43"/>
<polygon fill="black" stroke="black" points="427.81,-114.79 436.72,-109.06 426.18,-107.99 427.81,-114.79"/>
<text text-anchor="middle" x="421.07" y="-117.81" font-family="Times,serif" font-size="14.00">*0</text>
</g>
<!-- node12 -->
<g id="node13" class="node">
<title>node12</title>
<polygon fill="lightgrey" stroke="black" points="584,-36 483,-36 483,0 584,0 584,-36"/>
<text text-anchor="middle" x="533.5" y="-14.3" font-family="Times,serif" font-size="14.00">#12 Return</text>
</g>
<!-- node11&#45;&gt;node12 -->
<g id="edge26" class="edge">
<title>node11&#45;&gt;node12</title>
<path fill="none" stroke="red" d="M527.62,-72.81C526.78,-64.79 526.55,-55.05 526.92,-46.07"/>
<polygon fill="red" stroke="red" points="530.42,-46.25 527.64,-36.03 523.44,-45.75 530.42,-46.25"/>
</g>
<!-- node11&#45;&gt;node12 -->
<g id="edge27" class="edge">
<title>node11&#45;&gt;node12</title>
<path fill="none" stroke="green" d="M539.38,-72.81C540.22,-64.79 540.45,-55.05 540.08,-46.07"/>
<polygon fill="green" stroke="green" points="543.56,-45.75 539.36,-36.03 536.58,-46.25 543.56,-45.75"/>
</g>
<!-- node10 -->
<g id="node8" class="node">
<title>node10</title>
<polygon fill="orange" stroke="black" points="705.71,-156.54 705.71,-171.46 604.83,-182 462.17,-182 361.29,-171.46 361.29,-156.54 462.17,-146 604.83,-146 705.71,-156.54"/>
<text text-anchor="middle" x="533.5" y="-160.3" font-family="Times,serif" font-size="14.00">#10 GetField : array_field : int[]</text>
</g>
<!-- node10&#45;&gt;node11 -->
<g id="edge12" class="edge">
<title>node10&#45;&gt;node11</title>
<path fill="none" stroke="black" d="M527.62,-145.81C526.78,-137.79 526.55,-128.05 526.92,-119.07"/>
<polygon fill="black" stroke="black" points="530.42,-119.25 527.64,-109.03 523.44,-118.75 530.42,-119.25"/>
<text text-anchor="middle" x="534.78" y="-124.01" font-family="Times,serif" font-size="14.00">*1</text>
</g>
<!-- node10&#45;&gt;node11 -->
<g id="edge13" class="edge">
<title>node10&#45;&gt;node11</title>
<path fill="none" stroke="green" d="M539.38,-145.81C540.22,-137.79 540.45,-128.05 540.08,-119.07"/>
<polygon fill="green" stroke="green" points="543.56,-118.75 539.36,-109.03 536.58,-119.25 543.56,-118.75"/>
</g>
<!-- node8 -->
<g id="node9" class="node">
<title>node8</title>
<polygon fill="lightgrey" stroke="black" points="991.5,-182 741.5,-182 741.5,-146 991.5,-146 991.5,-182"/>
<text text-anchor="middle" x="866.5" y="-160.3" font-family="Times,serif" font-size="14.00">#8 Invoke special &lt;init&gt; : ()void</text>
</g>
<!-- node8&#45;&gt;node11 -->
<g id="edge14" class="edge">
<title>node8&#45;&gt;node11</title>
<path fill="none" stroke="red" d="M786.74,-145.99C737.58,-135.51 674.43,-122.05 623.49,-111.19"/>
<polygon fill="red" stroke="red" points="623.99,-107.71 613.48,-109.05 622.53,-114.56 623.99,-107.71"/>
</g>
<!-- node8&#45;&gt;node10 -->
<g id="edge25" class="edge">
<title>node8&#45;&gt;node10</title>
<path fill="none" stroke="green" d="M741.31,-164C732.91,-164 724.5,-164 716.1,-164"/>
<polygon fill="green" stroke="green" points="715.85,-160.5 705.85,-164 715.85,-167.5 715.85,-160.5"/>
</g>
<!-- node9 -->
<g id="node10" class="node">
<title>node9</title>
<polygon fill="orange" stroke="black" points="838.62,-229.54 838.62,-244.46 808.09,-255 764.91,-255 734.38,-244.46 734.38,-229.54 764.91,-219 808.09,-219 838.62,-229.54"/>
<text text-anchor="middle" x="786.5" y="-233.3" font-family="Times,serif" font-size="14.00">#9 New</text>
</g>
<!-- node9&#45;&gt;node10 -->
<g id="edge24" class="edge">
<title>node9&#45;&gt;node10</title>
<path fill="none" stroke="black" d="M747.25,-224.98C709.15,-214.29 650.47,-197.83 604.23,-184.85"/>
<polygon fill="black" stroke="black" points="605.13,-181.47 594.56,-182.14 603.24,-188.21 605.13,-181.47"/>
<text text-anchor="middle" x="614.29" y="-175.19" font-family="Times,serif" font-size="14.00">*0</text>
</g>
<!-- node9&#45;&gt;node8 -->
<g id="edge15" class="edge">
<title>node9&#45;&gt;node8</title>
<path fill="none" stroke="black" d="M799.99,-218.81C809.26,-209.74 821.78,-198.48 833.51,-188.6"/>
<polygon fill="black" stroke="black" points="835.98,-191.1 841.45,-182.03 831.51,-185.71 835.98,-191.1"/>
<text text-anchor="middle" x="832.87" y="-196.4" font-family="Times,serif" font-size="14.00">*0</text>
</g>
<!-- node9&#45;&gt;node8 -->
<g id="edge17" class="edge">
<title>node9&#45;&gt;node8</title>
<path fill="none" stroke="green" d="M810.86,-219.53C822.03,-210.5 835.05,-199.13 845.75,-189.12"/>
<polygon fill="green" stroke="green" points="848.27,-191.56 853.08,-182.12 843.43,-186.5 848.27,-191.56"/>
</g>
<!-- node7&#45;&gt;node8 -->
<g id="edge16" class="edge">
<title>node7&#45;&gt;node8</title>
<path fill="none" stroke="red" d="M814.91,-291.95C826.42,-282.35 839.52,-269.41 847.5,-255 858.17,-235.73 862.86,-211.1 864.91,-192.48"/>
<polygon fill="red" stroke="red" points="868.42,-192.57 865.84,-182.29 861.45,-191.93 868.42,-192.57"/>
</g>
<!-- node7&#45;&gt;node9 -->
<g id="edge18" class="edge">
<title>node7&#45;&gt;node9</title>
<path fill="none" stroke="black" d="M784.41,-291.81C783.01,-283.79 782.09,-274.05 781.83,-265.07"/>
<polygon fill="black" stroke="black" points="785.33,-265.03 781.84,-255.03 778.33,-265.03 785.33,-265.03"/>
<text text-anchor="middle" x="790.27" y="-269.46" font-family="Times,serif" font-size="14.00">*0</text>
</g>
<!-- node7&#45;&gt;node9 -->
<g id="edge19" class="edge">
<title>node7&#45;&gt;node9</title>
<path fill="none" stroke="green" d="M796.17,-291.81C796.44,-283.79 795.99,-274.05 794.98,-265.07"/>
<polygon fill="green" stroke="green" points="798.43,-264.44 793.56,-255.03 791.5,-265.42 798.43,-264.44"/>
</g>
<!-- node6&#45;&gt;node7 -->
<g id="edge20" class="edge">
<title>node6&#45;&gt;node7</title>
<path fill="none" stroke="black" d="M794.12,-583.78C793.84,-569.41 793.5,-548.37 793.5,-530 793.5,-530 793.5,-530 793.5,-382 793.5,-367.65 793.09,-351.67 792.64,-338.51"/>
<polygon fill="black" stroke="black" points="796.12,-338.08 792.26,-328.21 789.13,-338.33 796.12,-338.08"/>
<text text-anchor="middle" x="801.37" y="-342.32" font-family="Times,serif" font-size="14.00">*0</text>
</g>
<!-- c0 -->
<!-- c1 -->
<!-- c0&#45;&gt;c1 -->
<g id="edge28" class="edge">
<title>c0&#45;&gt;c1</title>
<path fill="none" stroke="red" d="M1727.39,-684C1738.61,-684 1796.74,-684 1822.36,-684"/>
<polygon fill="red" stroke="red" points="1822.56,-687.5 1832.56,-684 1822.56,-680.5 1822.56,-687.5"/>
<text text-anchor="middle" x="1780" y="-690.8" font-family="Times,serif" font-size="14.00">Control flow</text>
</g>
<!-- c2 -->
<!-- c3 -->
<!-- c2&#45;&gt;c3 -->
<g id="edge29" class="edge">
<title>c2&#45;&gt;c3</title>
<path fill="none" stroke="red" stroke-dasharray="5,2" d="M1520.58,-684C1537.55,-684 1653.71,-684 1691.58,-684"/>
<polygon fill="red" stroke="red" points="1691.67,-687.5 1701.67,-684 1691.67,-680.5 1691.67,-687.5"/>
<text text-anchor="middle" x="1611" y="-690.8" font-family="Times,serif" font-size="14.00">Control flow back edge</text>
</g>
<!-- d0 -->
<!-- d1 -->
<!-- d0&#45;&gt;d1 -->
<g id="edge30" class="edge">
<title>d0&#45;&gt;d1</title>
<path fill="none" stroke="black" d="M1409.36,-684C1418.91,-684 1462.81,-684 1484.42,-684"/>
<polygon fill="black" stroke="black" points="1484.65,-687.5 1494.65,-684 1484.65,-680.5 1484.65,-687.5"/>
<text text-anchor="middle" x="1452" y="-690.8" font-family="Times,serif" font-size="14.00">Data flow</text>
</g>
<!-- d2 -->
<!-- d3 -->
<!-- d2&#45;&gt;d3 -->
<g id="edge31" class="edge">
<title>d2&#45;&gt;d3</title>
<path fill="none" stroke="black" stroke-dasharray="1,5" d="M1283.31,-684C1293.96,-684 1348.96,-684 1373.58,-684"/>
<polygon fill="black" stroke="black" points="1373.65,-687.5 1383.65,-684 1373.65,-680.5 1373.65,-687.5"/>
<text text-anchor="middle" x="1333.5" y="-690.8" font-family="Times,serif" font-size="14.00">Declaration</text>
</g>
<!-- d4 -->
<!-- d5 -->
<!-- d4&#45;&gt;d5 -->
<g id="edge32" class="edge">
<title>d4&#45;&gt;d5</title>
<path fill="none" stroke="blue" d="M1140.6,-684C1153.22,-684 1219.38,-684 1247.18,-684"/>
<polygon fill="blue" stroke="blue" points="1247.34,-687.5 1257.34,-684 1247.34,-680.5 1247.34,-687.5"/>
<text text-anchor="middle" x="1199" y="-690.8" font-family="Times,serif" font-size="14.00">PHI Data flow</text>
</g>
<!-- d6 -->
<!-- d7 -->
<!-- d6&#45;&gt;d7 -->
<g id="edge33" class="edge">
<title>d6&#45;&gt;d7</title>
<path fill="none" stroke="green" d="M1003.5,-684C1015.44,-684 1077.8,-684 1104.43,-684"/>
<polygon fill="green" stroke="green" points="1104.45,-687.5 1114.45,-684 1104.45,-680.5 1104.45,-687.5"/>
<text text-anchor="middle" x="1059" y="-690.8" font-family="Times,serif" font-size="14.00">Memory flow</text>
</g>
</g>
</svg>
