<?xml version="1.0" encoding="UTF-8" standalone="no"?>
<!DOCTYPE svg PUBLIC "-//W3C//DTD SVG 1.1//EN"
 "http://www.w3.org/Graphics/SVG/1.1/DTD/svg11.dtd">
<!-- Generated by graphviz version 2.43.0 (0)
 -->
<!-- Title: %3 Pages: 1 -->
<svg width="1623pt" height="879pt"
 viewBox="0.00 0.00 1623.36 878.80" xmlns="http://www.w3.org/2000/svg" xmlns:xlink="http://www.w3.org/1999/xlink">
<g id="graph0" class="graph" transform="scale(1 1) rotate(0) translate(4 874.8)">
<title>%3</title>
<polygon fill="white" stroke="transparent" points="-4,4 -4,-874.8 1619.36,-874.8 1619.36,4 -4,4"/>
<g id="clust1" class="cluster">
<title>cluster_0</title>
<polygon fill="none" stroke="lightgray" points="269.36,-357 269.36,-482 647.36,-482 647.36,-357 269.36,-357"/>
</g>
<g id="clust2" class="cluster">
<title>cluster_1</title>
<polygon fill="none" stroke="lightgray" points="521.36,-649 521.36,-774 945.36,-774 945.36,-649 521.36,-649"/>
</g>
<g id="clust3" class="cluster">
<title>cluster_000</title>
<polygon fill="none" stroke="black" points="754.36,-820.2 754.36,-862.8 1607.36,-862.8 1607.36,-820.2 754.36,-820.2"/>
<text text-anchor="middle" x="1180.86" y="-847.6" font-family="Times,serif" font-size="14.00">Legend</text>
</g>
<!-- node0 -->
<g id="node1" class="node">
<title>node0</title>
<polygon fill="lightgrey" stroke="transparent" points="744.86,-857 577.86,-857 577.86,-803 744.86,-803 744.86,-857"/>
<polygon fill="none" stroke="black" points="578.36,-830 578.36,-857 745.36,-857 745.36,-830 578.36,-830"/>
<text text-anchor="start" x="621.36" y="-839.8" font-family="Times,serif" font-size="14.00">#0 Method</text>
<polygon fill="yellow" stroke="transparent" points="578.36,-803 578.36,-830 745.36,-830 745.36,-803 578.36,-803"/>
<polygon fill="none" stroke="black" points="578.36,-803 578.36,-830 745.36,-830 745.36,-803 578.36,-803"/>
<text text-anchor="start" x="584.36" y="-812.8" font-family="Times,serif" font-size="14.00">this : FieldAccessTest</text>
</g>
<!-- node4 -->
<g id="node2" class="node">
<title>node4</title>
<polygon fill="lightgrey" stroke="black" points="527.86,-620 422.86,-620 422.86,-584 527.86,-584 527.86,-620"/>
<text text-anchor="middle" x="475.36" y="-598.3" font-family="Times,serif" font-size="14.00">#4 ClassInit</text>
</g>
<!-- node0&#45;&gt;node4 -->
<g id="edge3" class="edge">
<title>node0&#45;&gt;node4</title>
<path fill="none" stroke="green" d="M577.6,-812.11C555.33,-803.94 533.12,-791.85 517.36,-774 507.83,-763.21 489.58,-675.69 480.6,-630.22"/>
<polygon fill="green" stroke="green" points="483.99,-629.3 478.63,-620.15 477.12,-630.64 483.99,-629.3"/>
</g>
<!-- node2 -->
<g id="node4" class="node">
<title>node2</title>
<polygon fill="lightgrey" stroke="black" points="720.86,-766 601.86,-766 601.86,-730 720.86,-730 720.86,-766"/>
<text text-anchor="middle" x="661.36" y="-744.3" font-family="Times,serif" font-size="14.00">#2 LabelNode</text>
</g>
<!-- node0&#45;&gt;node2 -->
<g id="edge4" class="edge">
<title>node0&#45;&gt;node2</title>
<path fill="none" stroke="red" d="M661.36,-802.81C661.36,-794.35 661.36,-784.95 661.36,-776.4"/>
<polygon fill="red" stroke="red" points="664.86,-776.17 661.36,-766.17 657.86,-776.17 664.86,-776.17"/>
</g>
<!-- node6 -->
<g id="node5" class="node">
<title>node6</title>
<polygon fill="lightgrey" stroke="black" points="583.36,-474 333.36,-474 333.36,-438 583.36,-438 583.36,-474"/>
<text text-anchor="middle" x="458.36" y="-452.3" font-family="Times,serif" font-size="14.00">#6 Invoke special &lt;init&gt; : ()void</text>
</g>
<!-- node4&#45;&gt;node6 -->
<g id="edge7" class="edge">
<title>node4&#45;&gt;node6</title>
<path fill="none" stroke="red" d="M473.34,-583.92C470.42,-559.23 465.01,-513.35 461.55,-484.04"/>
<polygon fill="red" stroke="red" points="465.02,-483.58 460.37,-474.06 458.07,-484.4 465.02,-483.58"/>
</g>
<!-- node5 -->
<g id="node6" class="node">
<title>node5</title>
<polygon fill="orange" stroke="black" points="590.47,-521.54 590.47,-536.46 559.94,-547 516.77,-547 486.24,-536.46 486.24,-521.54 516.77,-511 559.94,-511 590.47,-521.54"/>
<text text-anchor="middle" x="538.36" y="-525.3" font-family="Times,serif" font-size="14.00">#5 New</text>
</g>
<!-- node4&#45;&gt;node5 -->
<g id="edge9" class="edge">
<title>node4&#45;&gt;node5</title>
<path fill="none" stroke="black" d="M484.73,-583.81C491.62,-575 501.09,-564.13 510.2,-554.46"/>
<polygon fill="black" stroke="black" points="512.95,-556.65 517.38,-547.03 507.92,-551.79 512.95,-556.65"/>
<text text-anchor="middle" x="510.86" y="-562.24" font-family="Times,serif" font-size="14.00">*0</text>
</g>
<!-- node4&#45;&gt;node5 -->
<g id="edge10" class="edge">
<title>node4&#45;&gt;node5</title>
<path fill="none" stroke="green" d="M496.48,-583.81C505.05,-575.18 514.68,-564.56 522.62,-555.03"/>
<polygon fill="green" stroke="green" points="525.53,-557 529.11,-547.03 520.09,-552.6 525.53,-557"/>
</g>
<!-- node3 -->
<g id="node3" class="node">
<title>node3</title>
<polygon fill="lightgreen" stroke="black" points="937.38,-667.54 937.38,-682.46 817.87,-693 648.85,-693 529.33,-682.46 529.33,-667.54 648.85,-657 817.87,-657 937.38,-667.54"/>
<text text-anchor="middle" x="733.36" y="-671.3" font-family="Times,serif" font-size="14.00">#3 Class FieldAccessTest$Destination</text>
</g>
<!-- node3&#45;&gt;node4 -->
<g id="edge1" class="edge">
<title>node3&#45;&gt;node4</title>
<path fill="none" stroke="black" d="M671.56,-656.99C631.07,-645.85 578.32,-631.34 537.72,-620.16"/>
<polygon fill="black" stroke="black" points="538.51,-616.75 527.94,-617.47 536.65,-623.5 538.51,-616.75"/>
<text text-anchor="middle" x="547.66" y="-610.43" font-family="Times,serif" font-size="14.00">*0</text>
</g>
<!-- node2&#45;&gt;node4 -->
<g id="edge2" class="edge">
<title>node2&#45;&gt;node4</title>
<path fill="none" stroke="red" d="M601.65,-732.38C574.99,-723.87 544.26,-711.15 520.36,-693 496.57,-674.94 491.65,-666.65 480.36,-639 479.24,-636.26 478.36,-633.32 477.68,-630.34"/>
<polygon fill="red" stroke="red" points="481.1,-629.59 476,-620.3 474.19,-630.74 481.1,-629.59"/>
</g>
<!-- node2&#45;&gt;node3 -->
<g id="edge5" class="edge">
<title>node2&#45;&gt;node3</title>
<path fill="none" stroke="black" stroke-dasharray="1,5" d="M678.78,-729.81C687.81,-720.92 698.97,-709.91 708.84,-700.17"/>
<polygon fill="black" stroke="black" points="711.42,-702.54 716.09,-693.03 706.51,-697.56 711.42,-702.54"/>
</g>
<!-- node8 -->
<g id="node11" class="node">
<title>node8</title>
<polygon fill="lightgrey" stroke="black" points="502.86,-328 397.86,-328 397.86,-292 502.86,-292 502.86,-328"/>
<text text-anchor="middle" x="450.36" y="-306.3" font-family="Times,serif" font-size="14.00">#8 ClassInit</text>
</g>
<!-- node6&#45;&gt;node8 -->
<g id="edge21" class="edge">
<title>node6&#45;&gt;node8</title>
<path fill="none" stroke="red" d="M350.5,-437.98C310.1,-429.01 271.14,-416.6 259.36,-401 247.57,-385.4 247.34,-372.43 259.36,-357 274.86,-337.09 338.18,-324.44 387.81,-317.55"/>
<polygon fill="red" stroke="red" points="388.4,-321 397.85,-316.2 387.47,-314.06 388.4,-321"/>
</g>
<!-- node6&#45;&gt;node8 -->
<g id="edge22" class="edge">
<title>node6&#45;&gt;node8</title>
<path fill="none" stroke="green" d="M366.91,-437.98C328.1,-429.01 289.14,-416.6 277.36,-401 265.57,-385.4 265.34,-372.43 277.36,-357 291.29,-339.11 343.85,-327.08 387.49,-319.82"/>
<polygon fill="green" stroke="green" points="388.18,-323.25 397.5,-318.21 387.07,-316.34 388.18,-323.25"/>
</g>
<!-- node7 -->
<g id="node12" class="node">
<title>node7</title>
<polygon fill="lightgreen" stroke="black" points="638.95,-375.54 638.95,-390.46 533.16,-401 383.55,-401 277.76,-390.46 277.76,-375.54 383.55,-365 533.16,-365 638.95,-375.54"/>
<text text-anchor="middle" x="458.36" y="-379.3" font-family="Times,serif" font-size="14.00">#7 Class FieldAccessTest$Source</text>
</g>
<!-- node6&#45;&gt;node7 -->
<g id="edge23" class="edge">
<title>node6&#45;&gt;node7</title>
<path fill="none" stroke="black" stroke-dasharray="1,5" d="M458.36,-437.81C458.36,-429.79 458.36,-420.05 458.36,-411.07"/>
<polygon fill="black" stroke="black" points="461.86,-411.03 458.36,-401.03 454.86,-411.03 461.86,-411.03"/>
</g>
<!-- node5&#45;&gt;node6 -->
<g id="edge6" class="edge">
<title>node5&#45;&gt;node6</title>
<path fill="none" stroke="black" d="M514,-511.53C502.82,-502.5 489.81,-491.13 479.1,-481.12"/>
<polygon fill="black" stroke="black" points="481.42,-478.5 471.77,-474.12 476.59,-483.56 481.42,-478.5"/>
<text text-anchor="middle" x="490.72" y="-476.83" font-family="Times,serif" font-size="14.00">*0</text>
</g>
<!-- node5&#45;&gt;node6 -->
<g id="edge8" class="edge">
<title>node5&#45;&gt;node6</title>
<path fill="none" stroke="green" d="M524.87,-510.81C515.6,-501.74 503.08,-490.48 491.35,-480.6"/>
<polygon fill="green" stroke="green" points="493.34,-477.71 483.4,-474.03 488.88,-483.1 493.34,-477.71"/>
</g>
<!-- node12 -->
<g id="node7" class="node">
<title>node12</title>
<polygon fill="lightgrey" stroke="black" points="631.86,-109 386.86,-109 386.86,-73 631.86,-73 631.86,-109"/>
<text text-anchor="middle" x="509.36" y="-87.3" font-family="Times,serif" font-size="14.00">#12 PutField : array_field : int[]</text>
</g>
<!-- node5&#45;&gt;node12 -->
<g id="edge11" class="edge">
<title>node5&#45;&gt;node12</title>
<path fill="none" stroke="black" d="M588.6,-520.78C624.82,-512.41 667.36,-494.58 667.36,-457 667.36,-457 667.36,-457 667.36,-163 667.36,-139.69 652.87,-123.98 632.66,-113.41"/>
<polygon fill="black" stroke="black" points="633.88,-110.12 623.34,-109.05 630.92,-116.46 633.88,-110.12"/>
<text text-anchor="middle" x="643.34" y="-105.38" font-family="Times,serif" font-size="14.00">*0</text>
</g>
<!-- node13 -->
<g id="node13" class="node">
<title>node13</title>
<polygon fill="lightgrey" stroke="black" points="559.86,-36 458.86,-36 458.86,0 559.86,0 559.86,-36"/>
<text text-anchor="middle" x="509.36" y="-14.3" font-family="Times,serif" font-size="14.00">#13 Return</text>
</g>
<!-- node12&#45;&gt;node13 -->
<g id="edge26" class="edge">
<title>node12&#45;&gt;node13</title>
<path fill="none" stroke="red" d="M503.48,-72.81C502.64,-64.79 502.4,-55.05 502.78,-46.07"/>
<polygon fill="red" stroke="red" points="506.27,-46.25 503.49,-36.03 499.29,-45.75 506.27,-46.25"/>
</g>
<!-- node12&#45;&gt;node13 -->
<g id="edge27" class="edge">
<title>node12&#45;&gt;node13</title>
<path fill="none" stroke="green" d="M515.23,-72.81C516.07,-64.79 516.31,-55.05 515.93,-46.07"/>
<polygon fill="green" stroke="green" points="519.42,-45.75 515.22,-36.03 512.44,-46.25 519.42,-45.75"/>
</g>
<!-- node11 -->
<g id="node8" class="node">
<title>node11</title>
<polygon fill="orange" stroke="black" points="344.57,-156.54 344.57,-171.46 243.69,-182 101.02,-182 0.14,-171.46 0.14,-156.54 101.02,-146 243.69,-146 344.57,-156.54"/>
<text text-anchor="middle" x="172.36" y="-160.3" font-family="Times,serif" font-size="14.00">#11 GetField : array_field : int[]</text>
</g>
<!-- node11&#45;&gt;node12 -->
<g id="edge12" class="edge">
<title>node11&#45;&gt;node12</title>
<path fill="none" stroke="black" d="M246.38,-146.17C295.26,-135.64 359.76,-122.03 412.67,-111.09"/>
<polygon fill="black" stroke="black" points="413.66,-114.46 422.74,-109.01 412.24,-107.61 413.66,-114.46"/>
<text text-anchor="middle" x="406.7" y="-117.26" font-family="Times,serif" font-size="14.00">*1</text>
</g>
<!-- node11&#45;&gt;node12 -->
<g id="edge13" class="edge">
<title>node11&#45;&gt;node12</title>
<path fill="none" stroke="green" d="M254.16,-146.98C305.8,-136.35 372.33,-122.36 424.54,-111.15"/>
<polygon fill="green" stroke="green" points="425.41,-114.54 434.45,-109.02 423.94,-107.7 425.41,-114.54"/>
</g>
<!-- node10 -->
<g id="node9" class="node">
<title>node10</title>
<polygon fill="lightgrey" stroke="black" points="638.86,-182 379.86,-182 379.86,-146 638.86,-146 638.86,-182"/>
<text text-anchor="middle" x="509.36" y="-160.3" font-family="Times,serif" font-size="14.00">#10 Invoke special &lt;init&gt; : ()void</text>
</g>
<!-- node10&#45;&gt;node12 -->
<g id="edge14" class="edge">
<title>node10&#45;&gt;node12</title>
<path fill="none" stroke="red" d="M509.36,-145.81C509.36,-137.79 509.36,-128.05 509.36,-119.07"/>
<polygon fill="red" stroke="red" points="512.86,-119.03 509.36,-109.03 505.86,-119.03 512.86,-119.03"/>
</g>
<!-- node10&#45;&gt;node11 -->
<g id="edge25" class="edge">
<title>node10&#45;&gt;node11</title>
<path fill="none" stroke="green" d="M379.84,-164C371.53,-164 363.23,-164 354.93,-164"/>
<polygon fill="green" stroke="green" points="354.8,-160.5 344.8,-164 354.8,-167.5 354.8,-160.5"/>
</g>
<!-- node9 -->
<g id="node10" class="node">
<title>node9</title>
<polygon fill="orange" stroke="black" points="481.47,-229.54 481.47,-244.46 450.94,-255 407.77,-255 377.24,-244.46 377.24,-229.54 407.77,-219 450.94,-219 481.47,-229.54"/>
<text text-anchor="middle" x="429.36" y="-233.3" font-family="Times,serif" font-size="14.00">#9 New</text>
</g>
<!-- node9&#45;&gt;node11 -->
<g id="edge24" class="edge">
<title>node9&#45;&gt;node11</title>
<path fill="none" stroke="black" d="M389.76,-225.06C350.98,-214.35 291.02,-197.78 243.88,-184.76"/>
<polygon fill="black" stroke="black" points="244.6,-181.33 234.03,-182.04 242.73,-188.07 244.6,-181.33"/>
<text text-anchor="middle" x="253.75" y="-175.02" font-family="Times,serif" font-size="14.00">*0</text>
</g>
<!-- node9&#45;&gt;node10 -->
<g id="edge15" class="edge">
<title>node9&#45;&gt;node10</title>
<path fill="none" stroke="black" d="M442.84,-218.81C452.11,-209.74 464.63,-198.48 476.36,-188.6"/>
<polygon fill="black" stroke="black" points="478.83,-191.1 484.31,-182.03 474.37,-185.71 478.83,-191.1"/>
<text text-anchor="middle" x="475.73" y="-196.4" font-family="Times,serif" font-size="14.00">*0</text>
</g>
<!-- node9&#45;&gt;node10 -->
<g id="edge17" class="edge">
<title>node9&#45;&gt;node10</title>
<path fill="none" stroke="green" d="M453.71,-219.53C464.89,-210.5 477.9,-199.13 488.61,-189.12"/>
<polygon fill="green" stroke="green" points="491.12,-191.56 495.94,-182.12 486.29,-186.5 491.12,-191.56"/>
</g>
<!-- node8&#45;&gt;node10 -->
<g id="edge16" class="edge">
<title>node8&#45;&gt;node10</title>
<path fill="none" stroke="red" d="M466.16,-291.74C474.54,-281.7 484.32,-268.41 490.36,-255 499.34,-235.03 504.15,-210.64 506.68,-192.29"/>
<polygon fill="red" stroke="red" points="510.17,-192.62 507.92,-182.26 503.22,-191.76 510.17,-192.62"/>
</g>
<!-- node8&#45;&gt;node9 -->
<g id="edge18" class="edge">
<title>node8&#45;&gt;node9</title>
<path fill="none" stroke="black" d="M439.39,-291.81C436.18,-283.79 433.07,-274.05 430.78,-265.07"/>
<polygon fill="black" stroke="black" points="434.14,-264.02 428.53,-255.03 427.31,-265.55 434.14,-264.02"/>
<text text-anchor="middle" x="440.75" y="-267.16" font-family="Times,serif" font-size="14.00">*0</text>
</g>
<!-- node8&#45;&gt;node9 -->
<g id="edge19" class="edge">
<title>node8&#45;&gt;node9</title>
<path fill="none" stroke="green" d="M451.15,-291.81C449.58,-283.62 446.85,-273.62 443.74,-264.48"/>
<polygon fill="green" stroke="green" points="447,-263.2 440.25,-255.03 440.43,-265.62 447,-263.2"/>
</g>
<!-- node7&#45;&gt;node8 -->
<g id="edge20" class="edge">
<title>node7&#45;&gt;node8</title>
<path fill="none" stroke="black" d="M456.42,-364.81C455.52,-356.79 454.42,-347.05 453.41,-338.07"/>
<polygon fill="black" stroke="black" points="456.87,-337.57 452.27,-328.03 449.92,-338.36 456.87,-337.57"/>
<text text-anchor="middle" x="462.7" y="-341.39" font-family="Times,serif" font-size="14.00">*0</text>
</g>
<!-- c0 -->
<!-- c1 -->
<!-- c0&#45;&gt;c1 -->
<g id="edge28" class="edge">
<title>c0&#45;&gt;c1</title>
<path fill="none" stroke="red" d="M1490.25,-830C1501.46,-830 1559.6,-830 1585.21,-830"/>
<polygon fill="red" stroke="red" points="1585.41,-833.5 1595.41,-830 1585.41,-826.5 1585.41,-833.5"/>
<text text-anchor="middle" x="1542.86" y="-836.8" font-family="Times,serif" font-size="14.00">Control flow</text>
</g>
<!-- c2 -->
<!-- c3 -->
<!-- c2&#45;&gt;c3 -->
<g id="edge29" class="edge">
<title>c2&#45;&gt;c3</title>
<path fill="none" stroke="red" stroke-dasharray="5,2" d="M1283.43,-830C1300.4,-830 1416.56,-830 1454.44,-830"/>
<polygon fill="red" stroke="red" points="1454.52,-833.5 1464.52,-830 1454.52,-826.5 1454.52,-833.5"/>
<text text-anchor="middle" x="1373.86" y="-836.8" font-family="Times,serif" font-size="14.00">Control flow back edge</text>
</g>
<!-- d0 -->
<!-- d1 -->
<!-- d0&#45;&gt;d1 -->
<g id="edge30" class="edge">
<title>d0&#45;&gt;d1</title>
<path fill="none" stroke="black" d="M1172.21,-830C1181.76,-830 1225.66,-830 1247.27,-830"/>
<polygon fill="black" stroke="black" points="1247.51,-833.5 1257.51,-830 1247.51,-826.5 1247.51,-833.5"/>
<text text-anchor="middle" x="1214.86" y="-836.8" font-family="Times,serif" font-size="14.00">Data flow</text>
</g>
<!-- d2 -->
<!-- d3 -->
<!-- d2&#45;&gt;d3 -->
<g id="edge31" class="edge">
<title>d2&#45;&gt;d3</title>
<path fill="none" stroke="black" stroke-dasharray="1,5" d="M1046.16,-830C1056.81,-830 1111.82,-830 1136.43,-830"/>
<polygon fill="black" stroke="black" points="1136.5,-833.5 1146.5,-830 1136.5,-826.5 1136.5,-833.5"/>
<text text-anchor="middle" x="1096.36" y="-836.8" font-family="Times,serif" font-size="14.00">Declaration</text>
</g>
<!-- d4 -->
<!-- d5 -->
<!-- d4&#45;&gt;d5 -->
<g id="edge32" class="edge">
<title>d4&#45;&gt;d5</title>
<path fill="none" stroke="blue" d="M903.46,-830C916.08,-830 982.24,-830 1010.04,-830"/>
<polygon fill="blue" stroke="blue" points="1010.2,-833.5 1020.2,-830 1010.2,-826.5 1010.2,-833.5"/>
<text text-anchor="middle" x="961.86" y="-836.8" font-family="Times,serif" font-size="14.00">PHI Data flow</text>
</g>
<!-- d6 -->
<!-- d7 -->
<!-- d6&#45;&gt;d7 -->
<g id="edge33" class="edge">
<title>d6&#45;&gt;d7</title>
<path fill="none" stroke="green" d="M766.35,-830C778.29,-830 840.66,-830 867.28,-830"/>
<polygon fill="green" stroke="green" points="867.3,-833.5 877.3,-830 867.3,-826.5 867.3,-833.5"/>
<text text-anchor="middle" x="821.86" y="-836.8" font-family="Times,serif" font-size="14.00">Memory flow</text>
</g>
</g>
</svg>
