<?xml version="1.0" encoding="UTF-8" standalone="no"?>
<!DOCTYPE svg PUBLIC "-//W3C//DTD SVG 1.1//EN"
 "http://www.w3.org/Graphics/SVG/1.1/DTD/svg11.dtd">
<!-- Generated by graphviz version 2.43.0 (0)
 -->
<!-- Title: %3 Pages: 1 -->
<svg width="1849pt" height="662pt"
 viewBox="0.00 0.00 1848.50 662.00" xmlns="http://www.w3.org/2000/svg" xmlns:xlink="http://www.w3.org/1999/xlink">
<g id="graph0" class="graph" transform="scale(1 1) rotate(0) translate(4 658)">
<title>%3</title>
<polygon fill="white" stroke="transparent" points="-4,4 -4,-658 1844.5,-658 1844.5,4 -4,4"/>
<g id="clust1" class="cluster">
<title>cluster_0</title>
<polygon fill="none" stroke="lightgray" points="167.5,-503 167.5,-646 971.5,-646 971.5,-503 167.5,-503"/>
</g>
<g id="clust2" class="cluster">
<title>cluster_000</title>
<polygon fill="none" stroke="black" points="979.5,-601.2 979.5,-643.8 1832.5,-643.8 1832.5,-601.2 979.5,-601.2"/>
<text text-anchor="middle" x="1406" y="-628.6" font-family="Times,serif" font-size="14.00">Legend</text>
</g>
<!-- node0 -->
<g id="node1" class="node">
<title>node0</title>
<polygon fill="lightgrey" stroke="transparent" points="463,-638 296,-638 296,-584 463,-584 463,-638"/>
<polygon fill="none" stroke="black" points="296.5,-611 296.5,-638 463.5,-638 463.5,-611 296.5,-611"/>
<text text-anchor="start" x="339.5" y="-620.8" font-family="Times,serif" font-size="14.00">#0 Method</text>
<polygon fill="yellow" stroke="transparent" points="296.5,-584 296.5,-611 463.5,-611 463.5,-584 296.5,-584"/>
<polygon fill="none" stroke="black" points="296.5,-584 296.5,-611 463.5,-611 463.5,-584 296.5,-584"/>
<text text-anchor="start" x="302.5" y="-593.8" font-family="Times,serif" font-size="14.00">this : FieldAccessTest</text>
</g>
<!-- node5 -->
<g id="node2" class="node">
<title>node5</title>
<polygon fill="lightgrey" stroke="black" points="432,-474 327,-474 327,-438 432,-438 432,-474"/>
<text text-anchor="middle" x="379.5" y="-452.3" font-family="Times,serif" font-size="14.00">#5 ClassInit</text>
</g>
<!-- node0&#45;&gt;node5 -->
<g id="edge3" class="edge">
<title>node0&#45;&gt;node5</title>
<path fill="none" stroke="green" d="M295.99,-598.15C219.69,-583.8 124.66,-554.85 166.5,-503 171.33,-497.02 255.8,-480.11 316.9,-468.54"/>
<polygon fill="green" stroke="green" points="317.69,-471.96 326.86,-466.66 316.39,-465.08 317.69,-471.96"/>
</g>
<!-- node4 -->
<g id="node3" class="node">
<title>node4</title>
<polygon fill="lightgreen" stroke="black" points="583.53,-521.54 583.53,-536.46 464.01,-547 294.99,-547 175.47,-536.46 175.47,-521.54 294.99,-511 464.01,-511 583.53,-521.54"/>
<text text-anchor="middle" x="379.5" y="-525.3" font-family="Times,serif" font-size="14.00">#4 Class FieldAccessTest$Destination</text>
</g>
<!-- node0&#45;&gt;node4 -->
<g id="edge5" class="edge">
<title>node0&#45;&gt;node4</title>
<path fill="none" stroke="black" stroke-dasharray="1,5" d="M379.5,-583.81C379.5,-575.35 379.5,-565.95 379.5,-557.4"/>
<polygon fill="black" stroke="black" points="383,-557.17 379.5,-547.17 376,-557.17 383,-557.17"/>
</g>
<!-- node2 -->
<g id="node4" class="node">
<title>node2</title>
<polygon fill="lightgrey" stroke="black" points="119,-547 0,-547 0,-511 119,-511 119,-547"/>
<text text-anchor="middle" x="59.5" y="-525.3" font-family="Times,serif" font-size="14.00">#2 LabelNode</text>
</g>
<!-- node0&#45;&gt;node2 -->
<g id="edge4" class="edge">
<title>node0&#45;&gt;node2</title>
<path fill="none" stroke="red" d="M295.92,-604.29C243.37,-598.69 174.89,-587.66 117.5,-566 108.46,-562.59 99.3,-557.7 91.01,-552.62"/>
<polygon fill="red" stroke="red" points="92.7,-549.55 82.4,-547.09 88.92,-555.44 92.7,-549.55"/>
</g>
<!-- node3 -->
<g id="node12" class="node">
<title>node3</title>
<polygon fill="lightgreen" stroke="black" points="963.1,-521.54 963.1,-536.46 857.31,-547 707.69,-547 601.9,-536.46 601.9,-521.54 707.69,-511 857.31,-511 963.1,-521.54"/>
<text text-anchor="middle" x="782.5" y="-525.3" font-family="Times,serif" font-size="14.00">#3 Class FieldAccessTest$Source</text>
</g>
<!-- node0&#45;&gt;node3 -->
<g id="edge24" class="edge">
<title>node0&#45;&gt;node3</title>
<path fill="none" stroke="black" stroke-dasharray="1,5" d="M463,-593.42C529.25,-580.27 621.78,-561.9 690.22,-548.32"/>
<polygon fill="black" stroke="black" points="691.01,-551.73 700.14,-546.35 689.65,-544.86 691.01,-551.73"/>
</g>
<!-- node7 -->
<g id="node5" class="node">
<title>node7</title>
<polygon fill="lightgrey" stroke="black" points="598.5,-328 348.5,-328 348.5,-292 598.5,-292 598.5,-328"/>
<text text-anchor="middle" x="473.5" y="-306.3" font-family="Times,serif" font-size="14.00">#7 Invoke special &lt;init&gt; : ()void</text>
</g>
<!-- node5&#45;&gt;node7 -->
<g id="edge7" class="edge">
<title>node5&#45;&gt;node7</title>
<path fill="none" stroke="red" d="M404.15,-437.82C416.46,-428.19 430.77,-415.25 440.5,-401 453.64,-381.75 462.28,-356.62 467.41,-337.81"/>
<polygon fill="red" stroke="red" points="470.81,-338.64 469.91,-328.09 464.03,-336.9 470.81,-338.64"/>
</g>
<!-- node6 -->
<g id="node6" class="node">
<title>node6</title>
<polygon fill="orange" stroke="black" points="431.62,-375.54 431.62,-390.46 401.09,-401 357.91,-401 327.38,-390.46 327.38,-375.54 357.91,-365 401.09,-365 431.62,-375.54"/>
<text text-anchor="middle" x="379.5" y="-379.3" font-family="Times,serif" font-size="14.00">#6 New</text>
</g>
<!-- node5&#45;&gt;node6 -->
<g id="edge9" class="edge">
<title>node5&#45;&gt;node6</title>
<path fill="none" stroke="black" d="M373.62,-437.81C372.78,-429.79 372.55,-420.05 372.92,-411.07"/>
<polygon fill="black" stroke="black" points="376.42,-411.25 373.64,-401.03 369.44,-410.75 376.42,-411.25"/>
<text text-anchor="middle" x="380.78" y="-416.01" font-family="Times,serif" font-size="14.00">*0</text>
</g>
<!-- node5&#45;&gt;node6 -->
<g id="edge10" class="edge">
<title>node5&#45;&gt;node6</title>
<path fill="none" stroke="green" d="M385.38,-437.81C386.22,-429.79 386.45,-420.05 386.08,-411.07"/>
<polygon fill="green" stroke="green" points="389.56,-410.75 385.36,-401.03 382.58,-411.25 389.56,-410.75"/>
</g>
<!-- node4&#45;&gt;node5 -->
<g id="edge1" class="edge">
<title>node4&#45;&gt;node5</title>
<path fill="none" stroke="black" d="M379.5,-510.81C379.5,-502.79 379.5,-493.05 379.5,-484.07"/>
<polygon fill="black" stroke="black" points="383,-484.03 379.5,-474.03 376,-484.03 383,-484.03"/>
<text text-anchor="middle" x="387.95" y="-488.45" font-family="Times,serif" font-size="14.00">*0</text>
</g>
<!-- node2&#45;&gt;node5 -->
<g id="edge2" class="edge">
<title>node2&#45;&gt;node5</title>
<path fill="none" stroke="red" d="M106.57,-510.99C115.45,-508.1 124.71,-505.29 133.5,-503 195.05,-486.93 266.66,-474.2 316.7,-466.24"/>
<polygon fill="red" stroke="red" points="317.38,-469.67 326.72,-464.66 316.3,-462.76 317.38,-469.67"/>
</g>
<!-- node8 -->
<g id="node11" class="node">
<title>node8</title>
<polygon fill="lightgrey" stroke="black" points="833,-255 728,-255 728,-219 833,-219 833,-255"/>
<text text-anchor="middle" x="780.5" y="-233.3" font-family="Times,serif" font-size="14.00">#8 ClassInit</text>
</g>
<!-- node7&#45;&gt;node8 -->
<g id="edge22" class="edge">
<title>node7&#45;&gt;node8</title>
<path fill="none" stroke="red" d="M541.17,-291.99C593.9,-279.49 666.45,-262.75 717.86,-251.24"/>
<polygon fill="red" stroke="red" points="718.84,-254.61 727.84,-249.01 717.32,-247.77 718.84,-254.61"/>
</g>
<!-- node7&#45;&gt;node8 -->
<g id="edge23" class="edge">
<title>node7&#45;&gt;node8</title>
<path fill="none" stroke="green" d="M552.89,-291.99C604.3,-280.39 670.26,-265.13 717.95,-253.79"/>
<polygon fill="green" stroke="green" points="718.93,-257.15 727.84,-251.43 717.3,-250.35 718.93,-257.15"/>
</g>
<!-- node6&#45;&gt;node7 -->
<g id="edge6" class="edge">
<title>node6&#45;&gt;node7</title>
<path fill="none" stroke="black" d="M396.38,-364.81C407.65,-355.57 422.75,-344.04 436.64,-334.03"/>
<polygon fill="black" stroke="black" points="438.97,-336.67 445.09,-328.03 434.91,-330.97 438.97,-336.67"/>
<text text-anchor="middle" x="435.21" y="-341.72" font-family="Times,serif" font-size="14.00">*0</text>
</g>
<!-- node6&#45;&gt;node7 -->
<g id="edge8" class="edge">
<title>node6&#45;&gt;node7</title>
<path fill="none" stroke="green" d="M405.83,-366.42C419.38,-357.02 435.7,-344.87 448.98,-334.34"/>
<polygon fill="green" stroke="green" points="451.22,-337.03 456.81,-328.04 446.83,-331.58 451.22,-337.03"/>
</g>
<!-- node12 -->
<g id="node7" class="node">
<title>node12</title>
<polygon fill="lightgrey" stroke="black" points="502,-36 257,-36 257,0 502,0 502,-36"/>
<text text-anchor="middle" x="379.5" y="-14.3" font-family="Times,serif" font-size="14.00">#12 PutField : array_field : int[]</text>
</g>
<!-- node6&#45;&gt;node12 -->
<g id="edge11" class="edge">
<title>node6&#45;&gt;node12</title>
<path fill="none" stroke="black" d="M354.82,-365.84C338.65,-353.11 320.5,-333.76 320.5,-311 320.5,-311 320.5,-311 320.5,-90 320.5,-71.51 332.48,-55.27 345.64,-43"/>
<polygon fill="black" stroke="black" points="348.18,-45.44 353.45,-36.25 343.6,-40.14 348.18,-45.44"/>
<text text-anchor="middle" x="345.27" y="-50.8" font-family="Times,serif" font-size="14.00">*0</text>
</g>
<!-- node13 -->
<g id="node13" class="node">
<title>node13</title>
<polygon fill="lightgrey" stroke="black" points="908,-36 807,-36 807,0 908,0 908,-36"/>
<text text-anchor="middle" x="857.5" y="-14.3" font-family="Times,serif" font-size="14.00">#13 Return</text>
</g>
<!-- node12&#45;&gt;node13 -->
<g id="edge26" class="edge">
<title>node12&#45;&gt;node13</title>
<path fill="none" stroke="green" d="M502.27,-18C600.42,-18 698.58,-18 796.74,-18"/>
<polygon fill="green" stroke="green" points="796.85,-21.5 806.85,-18 796.85,-14.5 796.85,-21.5"/>
</g>
<!-- node11 -->
<g id="node8" class="node">
<title>node11</title>
<polygon fill="orange" stroke="black" points="692.71,-83.54 692.71,-98.46 591.83,-109 449.17,-109 348.29,-98.46 348.29,-83.54 449.17,-73 591.83,-73 692.71,-83.54"/>
<text text-anchor="middle" x="520.5" y="-87.3" font-family="Times,serif" font-size="14.00">#11 GetField : array_field : int[]</text>
</g>
<!-- node11&#45;&gt;node12 -->
<g id="edge12" class="edge">
<title>node11&#45;&gt;node12</title>
<path fill="none" stroke="black" d="M480.87,-72.99C460.72,-63.36 436.44,-51.21 416.65,-40.87"/>
<polygon fill="black" stroke="black" points="418.09,-37.68 407.62,-36.11 414.83,-43.87 418.09,-37.68"/>
<text text-anchor="middle" x="427.59" y="-33.38" font-family="Times,serif" font-size="14.00">*1</text>
</g>
<!-- node11&#45;&gt;node12 -->
<g id="edge13" class="edge">
<title>node11&#45;&gt;node12</title>
<path fill="none" stroke="green" d="M492.59,-72.99C474.31,-63.27 450.05,-50.99 428.64,-40.59"/>
<polygon fill="green" stroke="green" points="429.88,-37.3 419.36,-36.11 426.84,-43.61 429.88,-37.3"/>
</g>
<!-- node9 -->
<g id="node9" class="node">
<title>node9</title>
<polygon fill="orange" stroke="black" points="829.62,-156.54 829.62,-171.46 799.09,-182 755.91,-182 725.38,-171.46 725.38,-156.54 755.91,-146 799.09,-146 829.62,-156.54"/>
<text text-anchor="middle" x="777.5" y="-160.3" font-family="Times,serif" font-size="14.00">#9 New</text>
</g>
<!-- node9&#45;&gt;node11 -->
<g id="edge14" class="edge">
<title>node9&#45;&gt;node11</title>
<path fill="none" stroke="black" d="M737.91,-152.06C699.13,-141.35 639.16,-124.78 592.02,-111.76"/>
<polygon fill="black" stroke="black" points="592.74,-108.33 582.17,-109.04 590.88,-115.07 592.74,-108.33"/>
<text text-anchor="middle" x="601.89" y="-102.02" font-family="Times,serif" font-size="14.00">*0</text>
</g>
<!-- node10 -->
<g id="node10" class="node">
<title>node10</title>
<polygon fill="lightgrey" stroke="black" points="987,-109 728,-109 728,-73 987,-73 987,-109"/>
<text text-anchor="middle" x="857.5" y="-87.3" font-family="Times,serif" font-size="14.00">#10 Invoke special &lt;init&gt; : ()void</text>
</g>
<!-- node9&#45;&gt;node10 -->
<g id="edge16" class="edge">
<title>node9&#45;&gt;node10</title>
<path fill="none" stroke="black" d="M790.99,-145.81C800.26,-136.74 812.78,-125.48 824.51,-115.6"/>
<polygon fill="black" stroke="black" points="826.98,-118.1 832.45,-109.03 822.51,-112.71 826.98,-118.1"/>
<text text-anchor="middle" x="823.87" y="-123.4" font-family="Times,serif" font-size="14.00">*0</text>
</g>
<!-- node9&#45;&gt;node10 -->
<g id="edge18" class="edge">
<title>node9&#45;&gt;node10</title>
<path fill="none" stroke="green" d="M801.86,-146.53C813.03,-137.5 826.05,-126.13 836.75,-116.12"/>
<polygon fill="green" stroke="green" points="839.27,-118.56 844.08,-109.12 834.43,-113.5 839.27,-118.56"/>
</g>
<!-- node10&#45;&gt;node11 -->
<g id="edge15" class="edge">
<title>node10&#45;&gt;node11</title>
<path fill="none" stroke="green" d="M727.98,-91C719.68,-91 711.38,-91 703.08,-91"/>
<polygon fill="green" stroke="green" points="702.95,-87.5 692.95,-91 702.95,-94.5 702.95,-87.5"/>
</g>
<!-- node10&#45;&gt;node13 -->
<g id="edge25" class="edge">
<title>node10&#45;&gt;node13</title>
<path fill="none" stroke="red" d="M857.5,-72.81C857.5,-64.79 857.5,-55.05 857.5,-46.07"/>
<polygon fill="red" stroke="red" points="861,-46.03 857.5,-36.03 854,-46.03 861,-46.03"/>
</g>
<!-- node8&#45;&gt;node9 -->
<g id="edge19" class="edge">
<title>node8&#45;&gt;node9</title>
<path fill="none" stroke="black" d="M773.9,-218.81C772.72,-210.79 772.07,-201.05 772.07,-192.07"/>
<polygon fill="black" stroke="black" points="775.57,-192.13 772.36,-182.03 768.57,-191.92 775.57,-192.13"/>
<text text-anchor="middle" x="780.28" y="-196.69" font-family="Times,serif" font-size="14.00">*0</text>
</g>
<!-- node8&#45;&gt;node9 -->
<g id="edge20" class="edge">
<title>node8&#45;&gt;node9</title>
<path fill="none" stroke="green" d="M785.65,-218.81C786.15,-210.79 785.97,-201.05 785.22,-192.07"/>
<polygon fill="green" stroke="green" points="788.69,-191.57 784.08,-182.03 781.73,-192.36 788.69,-191.57"/>
</g>
<!-- node8&#45;&gt;node10 -->
<g id="edge17" class="edge">
<title>node8&#45;&gt;node10</title>
<path fill="none" stroke="red" d="M805.04,-218.88C816.9,-209.35 830.31,-196.49 838.5,-182 849.34,-162.83 854.02,-138.19 856.02,-119.54"/>
<polygon fill="red" stroke="red" points="859.53,-119.61 856.92,-109.34 852.56,-118.99 859.53,-119.61"/>
</g>
<!-- node3&#45;&gt;node8 -->
<g id="edge21" class="edge">
<title>node3&#45;&gt;node8</title>
<path fill="none" stroke="black" d="M782.12,-510.78C781.84,-496.41 781.5,-475.37 781.5,-457 781.5,-457 781.5,-457 781.5,-309 781.5,-294.65 781.29,-278.67 781.07,-265.51"/>
<polygon fill="black" stroke="black" points="784.56,-265.15 780.88,-255.22 777.56,-265.28 784.56,-265.15"/>
<text text-anchor="middle" x="789.66" y="-269.48" font-family="Times,serif" font-size="14.00">*0</text>
</g>
<!-- c0 -->
<!-- c1 -->
<!-- c0&#45;&gt;c1 -->
<g id="edge27" class="edge">
<title>c0&#45;&gt;c1</title>
<path fill="none" stroke="red" d="M1715.39,-611C1726.61,-611 1784.74,-611 1810.36,-611"/>
<polygon fill="red" stroke="red" points="1810.56,-614.5 1820.56,-611 1810.56,-607.5 1810.56,-614.5"/>
<text text-anchor="middle" x="1768" y="-617.8" font-family="Times,serif" font-size="14.00">Control flow</text>
</g>
<!-- c2 -->
<!-- c3 -->
<!-- c2&#45;&gt;c3 -->
<g id="edge28" class="edge">
<title>c2&#45;&gt;c3</title>
<path fill="none" stroke="red" stroke-dasharray="5,2" d="M1508.58,-611C1525.55,-611 1641.71,-611 1679.58,-611"/>
<polygon fill="red" stroke="red" points="1679.67,-614.5 1689.67,-611 1679.67,-607.5 1679.67,-614.5"/>
<text text-anchor="middle" x="1599" y="-617.8" font-family="Times,serif" font-size="14.00">Control flow back edge</text>
</g>
<!-- d0 -->
<!-- d1 -->
<!-- d0&#45;&gt;d1 -->
<g id="edge29" class="edge">
<title>d0&#45;&gt;d1</title>
<path fill="none" stroke="black" d="M1397.36,-611C1406.91,-611 1450.81,-611 1472.42,-611"/>
<polygon fill="black" stroke="black" points="1472.65,-614.5 1482.65,-611 1472.65,-607.5 1472.65,-614.5"/>
<text text-anchor="middle" x="1440" y="-617.8" font-family="Times,serif" font-size="14.00">Data flow</text>
</g>
<!-- d2 -->
<!-- d3 -->
<!-- d2&#45;&gt;d3 -->
<g id="edge30" class="edge">
<title>d2&#45;&gt;d3</title>
<path fill="none" stroke="black" stroke-dasharray="1,5" d="M1271.31,-611C1281.96,-611 1336.96,-611 1361.58,-611"/>
<polygon fill="black" stroke="black" points="1361.65,-614.5 1371.65,-611 1361.65,-607.5 1361.65,-614.5"/>
<text text-anchor="middle" x="1321.5" y="-617.8" font-family="Times,serif" font-size="14.00">Declaration</text>
</g>
<!-- d4 -->
<!-- d5 -->
<!-- d4&#45;&gt;d5 -->
<g id="edge31" class="edge">
<title>d4&#45;&gt;d5</title>
<path fill="none" stroke="blue" d="M1128.6,-611C1141.22,-611 1207.38,-611 1235.18,-611"/>
<polygon fill="blue" stroke="blue" points="1235.34,-614.5 1245.34,-611 1235.34,-607.5 1235.34,-614.5"/>
<text text-anchor="middle" x="1187" y="-617.8" font-family="Times,serif" font-size="14.00">PHI Data flow</text>
</g>
<!-- d6 -->
<!-- d7 -->
<!-- d6&#45;&gt;d7 -->
<g id="edge32" class="edge">
<title>d6&#45;&gt;d7</title>
<path fill="none" stroke="green" d="M991.5,-611C1003.44,-611 1065.8,-611 1092.43,-611"/>
<polygon fill="green" stroke="green" points="1092.45,-614.5 1102.45,-611 1092.45,-607.5 1092.45,-614.5"/>
<text text-anchor="middle" x="1047" y="-617.8" font-family="Times,serif" font-size="14.00">Memory flow</text>
</g>
</g>
</svg>
