<?xml version="1.0" encoding="UTF-8" standalone="no"?>
<!DOCTYPE svg PUBLIC "-//W3C//DTD SVG 1.1//EN"
 "http://www.w3.org/Graphics/SVG/1.1/DTD/svg11.dtd">
<!-- Generated by graphviz version 2.43.0 (0)
 -->
<!-- Title: %3 Pages: 1 -->
<svg width="1093pt" height="2038pt"
 viewBox="0.00 0.00 1092.50 2037.80" xmlns="http://www.w3.org/2000/svg" xmlns:xlink="http://www.w3.org/1999/xlink">
<g id="graph0" class="graph" transform="scale(1 1) rotate(0) translate(4 2033.8)">
<title>%3</title>
<polygon fill="white" stroke="transparent" points="-4,4 -4,-2033.8 1088.5,-2033.8 1088.5,4 -4,4"/>
<g id="clust1" class="cluster">
<title>cluster_000</title>
<polygon fill="none" stroke="black" points="740.5,-1979.2 740.5,-2021.8 1076.5,-2021.8 1076.5,-1979.2 740.5,-1979.2"/>
<text text-anchor="middle" x="908.5" y="-2006.6" font-family="Times,serif" font-size="14.00">Legend</text>
</g>
<!-- node0 -->
<g id="node1" class="node">
<title>node0</title>
<polygon fill="lightgrey" stroke="black" points="731,-2007 0,-2007 0,-1971 731,-1971 731,-2007"/>
<text text-anchor="middle" x="365.5" y="-1985.3" font-family="Times,serif" font-size="14.00">#0 LocalVariable[name=this, slot=0, type=Lde/mirkosertic/metair/ir/examples/ArrayTest;] Order: 0</text>
</g>
<!-- node1 -->
<g id="node2" class="node">
<title>node1</title>
<polygon fill="lightgrey" stroke="black" points="561,-1934 170,-1934 170,-1898 561,-1898 561,-1934"/>
<text text-anchor="middle" x="365.5" y="-1912.3" font-family="Times,serif" font-size="14.00">#1 LocalVariable[name=c, slot=1, type=[J] Order: 1</text>
</g>
<!-- node0&#45;&gt;node1 -->
<g id="edge1" class="edge">
<title>node0&#45;&gt;node1</title>
<path fill="none" stroke="red" d="M365.5,-1970.81C365.5,-1962.79 365.5,-1953.05 365.5,-1944.07"/>
<polygon fill="red" stroke="red" points="369,-1944.03 365.5,-1934.03 362,-1944.03 369,-1944.03"/>
</g>
<!-- node2 -->
<g id="node3" class="node">
<title>node2</title>
<polygon fill="lightgrey" stroke="black" points="563,-1861 168,-1861 168,-1825 563,-1825 563,-1861"/>
<text text-anchor="middle" x="365.5" y="-1839.3" font-family="Times,serif" font-size="14.00">#2 LocalVariable[name=c2, slot=2, type=J] Order: 2</text>
</g>
<!-- node1&#45;&gt;node2 -->
<g id="edge2" class="edge">
<title>node1&#45;&gt;node2</title>
<path fill="none" stroke="red" d="M365.5,-1897.81C365.5,-1889.79 365.5,-1880.05 365.5,-1871.07"/>
<polygon fill="red" stroke="red" points="369,-1871.03 365.5,-1861.03 362,-1871.03 369,-1871.03"/>
</g>
<!-- node3 -->
<g id="node4" class="node">
<title>node3</title>
<polygon fill="lightgrey" stroke="black" points="557,-1788 174,-1788 174,-1752 557,-1752 557,-1788"/>
<text text-anchor="middle" x="365.5" y="-1766.3" font-family="Times,serif" font-size="14.00">#3 LocalVariable[name=l, slot=4, type=I] Order: 3</text>
</g>
<!-- node2&#45;&gt;node3 -->
<g id="edge3" class="edge">
<title>node2&#45;&gt;node3</title>
<path fill="none" stroke="red" d="M365.5,-1824.81C365.5,-1816.79 365.5,-1807.05 365.5,-1798.07"/>
<polygon fill="red" stroke="red" points="369,-1798.03 365.5,-1788.03 362,-1798.03 369,-1798.03"/>
</g>
<!-- node4 -->
<g id="node5" class="node">
<title>node4</title>
<polygon fill="lightgrey" stroke="black" points="600.5,-1715 130.5,-1715 130.5,-1679 600.5,-1679 600.5,-1715"/>
<text text-anchor="middle" x="365.5" y="-1693.3" font-family="Times,serif" font-size="14.00">#4 Label[context=CodeModel[id=203472514], bci=0] Order: 4</text>
</g>
<!-- node3&#45;&gt;node4 -->
<g id="edge4" class="edge">
<title>node3&#45;&gt;node4</title>
<path fill="none" stroke="red" d="M365.5,-1751.81C365.5,-1743.79 365.5,-1734.05 365.5,-1725.07"/>
<polygon fill="red" stroke="red" points="369,-1725.03 365.5,-1715.03 362,-1725.03 369,-1725.03"/>
</g>
<!-- node5 -->
<g id="node6" class="node">
<title>node5</title>
<polygon fill="lightgrey" stroke="black" points="497,-1642 234,-1642 234,-1606 497,-1606 497,-1642"/>
<text text-anchor="middle" x="365.5" y="-1620.3" font-family="Times,serif" font-size="14.00">#5 LineNumber[line=37] Order: 5</text>
</g>
<!-- node4&#45;&gt;node5 -->
<g id="edge5" class="edge">
<title>node4&#45;&gt;node5</title>
<path fill="none" stroke="red" d="M365.5,-1678.81C365.5,-1670.79 365.5,-1661.05 365.5,-1652.07"/>
<polygon fill="red" stroke="red" points="369,-1652.03 365.5,-1642.03 362,-1652.03 369,-1652.03"/>
</g>
<!-- node6 -->
<g id="node7" class="node">
<title>node6</title>
<polygon fill="lightgrey" stroke="black" points="567.5,-1569 163.5,-1569 163.5,-1533 567.5,-1533 567.5,-1569"/>
<text text-anchor="middle" x="365.5" y="-1547.3" font-family="Times,serif" font-size="14.00">#6 ArgumentConstant[OP=BIPUSH, val=10] Order: 6</text>
</g>
<!-- node5&#45;&gt;node6 -->
<g id="edge6" class="edge">
<title>node5&#45;&gt;node6</title>
<path fill="none" stroke="red" d="M365.5,-1605.81C365.5,-1597.79 365.5,-1588.05 365.5,-1579.07"/>
<polygon fill="red" stroke="red" points="369,-1579.03 365.5,-1569.03 362,-1579.03 369,-1579.03"/>
</g>
<!-- node7 -->
<g id="node8" class="node">
<title>node7</title>
<polygon fill="lightgrey" stroke="black" points="599.5,-1496 131.5,-1496 131.5,-1460 599.5,-1460 599.5,-1496"/>
<text text-anchor="middle" x="365.5" y="-1474.3" font-family="Times,serif" font-size="14.00">#7 NewPrimitiveArray[OP=NEWARRAY, type=LONG] Order: 7</text>
</g>
<!-- node6&#45;&gt;node7 -->
<g id="edge7" class="edge">
<title>node6&#45;&gt;node7</title>
<path fill="none" stroke="red" d="M365.5,-1532.81C365.5,-1524.79 365.5,-1515.05 365.5,-1506.07"/>
<polygon fill="red" stroke="red" points="369,-1506.03 365.5,-1496.03 362,-1506.03 369,-1506.03"/>
</g>
<!-- node8 -->
<g id="node9" class="node">
<title>node8</title>
<polygon fill="lightgrey" stroke="black" points="526.5,-1423 204.5,-1423 204.5,-1387 526.5,-1387 526.5,-1423"/>
<text text-anchor="middle" x="365.5" y="-1401.3" font-family="Times,serif" font-size="14.00">#8 Store[OP=ASTORE_1, slot=1] Order: 8</text>
</g>
<!-- node7&#45;&gt;node8 -->
<g id="edge8" class="edge">
<title>node7&#45;&gt;node8</title>
<path fill="none" stroke="red" d="M365.5,-1459.81C365.5,-1451.79 365.5,-1442.05 365.5,-1433.07"/>
<polygon fill="red" stroke="red" points="369,-1433.03 365.5,-1423.03 362,-1433.03 369,-1433.03"/>
</g>
<!-- node9 -->
<g id="node10" class="node">
<title>node9</title>
<polygon fill="lightgrey" stroke="black" points="600.5,-1350 130.5,-1350 130.5,-1314 600.5,-1314 600.5,-1350"/>
<text text-anchor="middle" x="365.5" y="-1328.3" font-family="Times,serif" font-size="14.00">#9 Label[context=CodeModel[id=203472514], bci=5] Order: 9</text>
</g>
<!-- node8&#45;&gt;node9 -->
<g id="edge9" class="edge">
<title>node8&#45;&gt;node9</title>
<path fill="none" stroke="red" d="M365.5,-1386.81C365.5,-1378.79 365.5,-1369.05 365.5,-1360.07"/>
<polygon fill="red" stroke="red" points="369,-1360.03 365.5,-1350.03 362,-1360.03 369,-1360.03"/>
</g>
<!-- node10 -->
<g id="node11" class="node">
<title>node10</title>
<polygon fill="lightgrey" stroke="black" points="506,-1277 225,-1277 225,-1241 506,-1241 506,-1277"/>
<text text-anchor="middle" x="365.5" y="-1255.3" font-family="Times,serif" font-size="14.00">#10 LineNumber[line=38] Order: 10</text>
</g>
<!-- node9&#45;&gt;node10 -->
<g id="edge10" class="edge">
<title>node9&#45;&gt;node10</title>
<path fill="none" stroke="red" d="M365.5,-1313.81C365.5,-1305.79 365.5,-1296.05 365.5,-1287.07"/>
<polygon fill="red" stroke="red" points="369,-1287.03 365.5,-1277.03 362,-1287.03 369,-1287.03"/>
</g>
<!-- node11 -->
<g id="node12" class="node">
<title>node11</title>
<polygon fill="lightgrey" stroke="black" points="528.5,-1204 202.5,-1204 202.5,-1168 528.5,-1168 528.5,-1204"/>
<text text-anchor="middle" x="365.5" y="-1182.3" font-family="Times,serif" font-size="14.00">#11 Load[OP=ALOAD_1, slot=1] Order: 11</text>
</g>
<!-- node10&#45;&gt;node11 -->
<g id="edge11" class="edge">
<title>node10&#45;&gt;node11</title>
<path fill="none" stroke="red" d="M365.5,-1240.81C365.5,-1232.79 365.5,-1223.05 365.5,-1214.07"/>
<polygon fill="red" stroke="red" points="369,-1214.03 365.5,-1204.03 362,-1214.03 369,-1214.03"/>
</g>
<!-- node12 -->
<g id="node13" class="node">
<title>node12</title>
<polygon fill="lightgrey" stroke="black" points="618.5,-1131 112.5,-1131 112.5,-1095 618.5,-1095 618.5,-1131"/>
<text text-anchor="middle" x="365.5" y="-1109.3" font-family="Times,serif" font-size="14.00">#12 UnboundIntrinsicConstantInstruction[op=ICONST_0] Order: 12</text>
</g>
<!-- node11&#45;&gt;node12 -->
<g id="edge12" class="edge">
<title>node11&#45;&gt;node12</title>
<path fill="none" stroke="red" d="M365.5,-1167.81C365.5,-1159.79 365.5,-1150.05 365.5,-1141.07"/>
<polygon fill="red" stroke="red" points="369,-1141.03 365.5,-1131.03 362,-1141.03 369,-1141.03"/>
</g>
<!-- node13 -->
<g id="node14" class="node">
<title>node13</title>
<polygon fill="lightgrey" stroke="black" points="558.5,-1058 172.5,-1058 172.5,-1022 558.5,-1022 558.5,-1058"/>
<text text-anchor="middle" x="365.5" y="-1036.3" font-family="Times,serif" font-size="14.00">#13 LoadConstant[OP=LDC2_W, val=10] Order: 13</text>
</g>
<!-- node12&#45;&gt;node13 -->
<g id="edge13" class="edge">
<title>node12&#45;&gt;node13</title>
<path fill="none" stroke="red" d="M365.5,-1094.81C365.5,-1086.79 365.5,-1077.05 365.5,-1068.07"/>
<polygon fill="red" stroke="red" points="369,-1068.03 365.5,-1058.03 362,-1068.03 369,-1068.03"/>
</g>
<!-- node14 -->
<g id="node15" class="node">
<title>node14</title>
<polygon fill="lightgrey" stroke="black" points="594,-985 137,-985 137,-949 594,-949 594,-985"/>
<text text-anchor="middle" x="365.5" y="-963.3" font-family="Times,serif" font-size="14.00">#14 UnboundArrayStoreInstruction[op=LASTORE] Order: 14</text>
</g>
<!-- node13&#45;&gt;node14 -->
<g id="edge14" class="edge">
<title>node13&#45;&gt;node14</title>
<path fill="none" stroke="red" d="M365.5,-1021.81C365.5,-1013.79 365.5,-1004.05 365.5,-995.07"/>
<polygon fill="red" stroke="red" points="369,-995.03 365.5,-985.03 362,-995.03 369,-995.03"/>
</g>
<!-- node15 -->
<g id="node16" class="node">
<title>node15</title>
<polygon fill="lightgrey" stroke="black" points="506,-912 225,-912 225,-876 506,-876 506,-912"/>
<text text-anchor="middle" x="365.5" y="-890.3" font-family="Times,serif" font-size="14.00">#15 LineNumber[line=39] Order: 15</text>
</g>
<!-- node14&#45;&gt;node15 -->
<g id="edge15" class="edge">
<title>node14&#45;&gt;node15</title>
<path fill="none" stroke="red" d="M365.5,-948.81C365.5,-940.79 365.5,-931.05 365.5,-922.07"/>
<polygon fill="red" stroke="red" points="369,-922.03 365.5,-912.03 362,-922.03 369,-922.03"/>
</g>
<!-- node16 -->
<g id="node17" class="node">
<title>node16</title>
<polygon fill="lightgrey" stroke="black" points="528.5,-839 202.5,-839 202.5,-803 528.5,-803 528.5,-839"/>
<text text-anchor="middle" x="365.5" y="-817.3" font-family="Times,serif" font-size="14.00">#16 Load[OP=ALOAD_1, slot=1] Order: 16</text>
</g>
<!-- node15&#45;&gt;node16 -->
<g id="edge16" class="edge">
<title>node15&#45;&gt;node16</title>
<path fill="none" stroke="red" d="M365.5,-875.81C365.5,-867.79 365.5,-858.05 365.5,-849.07"/>
<polygon fill="red" stroke="red" points="369,-849.03 365.5,-839.03 362,-849.03 369,-849.03"/>
</g>
<!-- node17 -->
<g id="node18" class="node">
<title>node17</title>
<polygon fill="lightgrey" stroke="black" points="618.5,-766 112.5,-766 112.5,-730 618.5,-730 618.5,-766"/>
<text text-anchor="middle" x="365.5" y="-744.3" font-family="Times,serif" font-size="14.00">#17 UnboundIntrinsicConstantInstruction[op=ICONST_1] Order: 17</text>
</g>
<!-- node16&#45;&gt;node17 -->
<g id="edge17" class="edge">
<title>node16&#45;&gt;node17</title>
<path fill="none" stroke="red" d="M365.5,-802.81C365.5,-794.79 365.5,-785.05 365.5,-776.07"/>
<polygon fill="red" stroke="red" points="369,-776.03 365.5,-766.03 362,-776.03 369,-776.03"/>
</g>
<!-- node18 -->
<g id="node19" class="node">
<title>node18</title>
<polygon fill="lightgrey" stroke="black" points="587,-693 144,-693 144,-657 587,-657 587,-693"/>
<text text-anchor="middle" x="365.5" y="-671.3" font-family="Times,serif" font-size="14.00">#18 UnboundArrayLoadInstruction[op=LALOAD] Order: 18</text>
</g>
<!-- node17&#45;&gt;node18 -->
<g id="edge18" class="edge">
<title>node17&#45;&gt;node18</title>
<path fill="none" stroke="red" d="M365.5,-729.81C365.5,-721.79 365.5,-712.05 365.5,-703.07"/>
<polygon fill="red" stroke="red" points="369,-703.03 365.5,-693.03 362,-703.03 369,-703.03"/>
</g>
<!-- node19 -->
<g id="node20" class="node">
<title>node19</title>
<polygon fill="lightgrey" stroke="black" points="535,-620 196,-620 196,-584 535,-584 535,-620"/>
<text text-anchor="middle" x="365.5" y="-598.3" font-family="Times,serif" font-size="14.00">#19 Store[OP=LSTORE_2, slot=2] Order: 19</text>
</g>
<!-- node18&#45;&gt;node19 -->
<g id="edge19" class="edge">
<title>node18&#45;&gt;node19</title>
<path fill="none" stroke="red" d="M365.5,-656.81C365.5,-648.79 365.5,-639.05 365.5,-630.07"/>
<polygon fill="red" stroke="red" points="369,-630.03 365.5,-620.03 362,-630.03 369,-630.03"/>
</g>
<!-- node20 -->
<g id="node21" class="node">
<title>node20</title>
<polygon fill="lightgrey" stroke="black" points="614,-547 117,-547 117,-511 614,-511 614,-547"/>
<text text-anchor="middle" x="365.5" y="-525.3" font-family="Times,serif" font-size="14.00">#20 Label[context=CodeModel[id=203472514], bci=15] Order: 20</text>
</g>
<!-- node19&#45;&gt;node20 -->
<g id="edge20" class="edge">
<title>node19&#45;&gt;node20</title>
<path fill="none" stroke="red" d="M365.5,-583.81C365.5,-575.79 365.5,-566.05 365.5,-557.07"/>
<polygon fill="red" stroke="red" points="369,-557.03 365.5,-547.03 362,-557.03 369,-557.03"/>
</g>
<!-- node21 -->
<g id="node22" class="node">
<title>node21</title>
<polygon fill="lightgrey" stroke="black" points="506,-474 225,-474 225,-438 506,-438 506,-474"/>
<text text-anchor="middle" x="365.5" y="-452.3" font-family="Times,serif" font-size="14.00">#21 LineNumber[line=40] Order: 21</text>
</g>
<!-- node20&#45;&gt;node21 -->
<g id="edge21" class="edge">
<title>node20&#45;&gt;node21</title>
<path fill="none" stroke="red" d="M365.5,-510.81C365.5,-502.79 365.5,-493.05 365.5,-484.07"/>
<polygon fill="red" stroke="red" points="369,-484.03 365.5,-474.03 362,-484.03 369,-484.03"/>
</g>
<!-- node22 -->
<g id="node23" class="node">
<title>node22</title>
<polygon fill="lightgrey" stroke="black" points="528.5,-401 202.5,-401 202.5,-365 528.5,-365 528.5,-401"/>
<text text-anchor="middle" x="365.5" y="-379.3" font-family="Times,serif" font-size="14.00">#22 Load[OP=ALOAD_1, slot=1] Order: 22</text>
</g>
<!-- node21&#45;&gt;node22 -->
<g id="edge22" class="edge">
<title>node21&#45;&gt;node22</title>
<path fill="none" stroke="red" d="M365.5,-437.81C365.5,-429.79 365.5,-420.05 365.5,-411.07"/>
<polygon fill="red" stroke="red" points="369,-411.03 365.5,-401.03 362,-411.03 369,-411.03"/>
</g>
<!-- node23 -->
<g id="node24" class="node">
<title>node23</title>
<polygon fill="lightgrey" stroke="black" points="608.5,-328 122.5,-328 122.5,-292 608.5,-292 608.5,-328"/>
<text text-anchor="middle" x="365.5" y="-306.3" font-family="Times,serif" font-size="14.00">#23 UnboundOperatorInstruction[op=ARRAYLENGTH] Order: 23</text>
</g>
<!-- node22&#45;&gt;node23 -->
<g id="edge23" class="edge">
<title>node22&#45;&gt;node23</title>
<path fill="none" stroke="red" d="M365.5,-364.81C365.5,-356.79 365.5,-347.05 365.5,-338.07"/>
<polygon fill="red" stroke="red" points="369,-338.03 365.5,-328.03 362,-338.03 369,-338.03"/>
</g>
<!-- node24 -->
<g id="node25" class="node">
<title>node24</title>
<polygon fill="lightgrey" stroke="black" points="525.5,-255 205.5,-255 205.5,-219 525.5,-219 525.5,-255"/>
<text text-anchor="middle" x="365.5" y="-233.3" font-family="Times,serif" font-size="14.00">#24 Store[OP=ISTORE, slot=4] Order: 24</text>
</g>
<!-- node23&#45;&gt;node24 -->
<g id="edge24" class="edge">
<title>node23&#45;&gt;node24</title>
<path fill="none" stroke="red" d="M365.5,-291.81C365.5,-283.79 365.5,-274.05 365.5,-265.07"/>
<polygon fill="red" stroke="red" points="369,-265.03 365.5,-255.03 362,-265.03 369,-265.03"/>
</g>
<!-- node25 -->
<g id="node26" class="node">
<title>node25</title>
<polygon fill="lightgrey" stroke="black" points="614,-182 117,-182 117,-146 614,-146 614,-182"/>
<text text-anchor="middle" x="365.5" y="-160.3" font-family="Times,serif" font-size="14.00">#25 Label[context=CodeModel[id=203472514], bci=19] Order: 25</text>
</g>
<!-- node24&#45;&gt;node25 -->
<g id="edge25" class="edge">
<title>node24&#45;&gt;node25</title>
<path fill="none" stroke="red" d="M365.5,-218.81C365.5,-210.79 365.5,-201.05 365.5,-192.07"/>
<polygon fill="red" stroke="red" points="369,-192.03 365.5,-182.03 362,-192.03 369,-192.03"/>
</g>
<!-- node26 -->
<g id="node27" class="node">
<title>node26</title>
<polygon fill="lightgrey" stroke="black" points="506,-109 225,-109 225,-73 506,-73 506,-109"/>
<text text-anchor="middle" x="365.5" y="-87.3" font-family="Times,serif" font-size="14.00">#26 LineNumber[line=41] Order: 26</text>
</g>
<!-- node25&#45;&gt;node26 -->
<g id="edge26" class="edge">
<title>node25&#45;&gt;node26</title>
<path fill="none" stroke="red" d="M365.5,-145.81C365.5,-137.79 365.5,-128.05 365.5,-119.07"/>
<polygon fill="red" stroke="red" points="369,-119.03 365.5,-109.03 362,-119.03 369,-119.03"/>
</g>
<!-- node27 -->
<g id="node28" class="node">
<title>node27</title>
<polygon fill="lightgrey" stroke="black" points="506.5,-36 224.5,-36 224.5,0 506.5,0 506.5,-36"/>
<text text-anchor="middle" x="365.5" y="-14.3" font-family="Times,serif" font-size="14.00">#27 Return[OP=RETURN] Order: 27</text>
</g>
<!-- node26&#45;&gt;node27 -->
<g id="edge27" class="edge">
<title>node26&#45;&gt;node27</title>
<path fill="none" stroke="red" d="M365.5,-72.81C365.5,-64.79 365.5,-55.05 365.5,-46.07"/>
<polygon fill="red" stroke="red" points="369,-46.03 365.5,-36.03 362,-46.03 369,-46.03"/>
</g>
<!-- c0 -->
<!-- c1 -->
<!-- c0&#45;&gt;c1 -->
<g id="edge28" class="edge">
<title>c0&#45;&gt;c1</title>
<path fill="none" stroke="red" d="M959.39,-1989C970.61,-1989 1028.74,-1989 1054.36,-1989"/>
<polygon fill="red" stroke="red" points="1054.56,-1992.5 1064.56,-1989 1054.56,-1985.5 1054.56,-1992.5"/>
<text text-anchor="middle" x="1012" y="-1995.8" font-family="Times,serif" font-size="14.00">Control flow</text>
</g>
<!-- c2 -->
<!-- c3 -->
<!-- c2&#45;&gt;c3 -->
<g id="edge29" class="edge">
<title>c2&#45;&gt;c3</title>
<path fill="none" stroke="red" stroke-dasharray="5,2" d="M752.58,-1989C769.55,-1989 885.71,-1989 923.58,-1989"/>
<polygon fill="red" stroke="red" points="923.67,-1992.5 933.67,-1989 923.67,-1985.5 923.67,-1992.5"/>
<text text-anchor="middle" x="843" y="-1995.8" font-family="Times,serif" font-size="14.00">Control flow back edge</text>
</g>
</g>
</svg>
