<?xml version="1.0" encoding="UTF-8" standalone="no"?>
<!DOCTYPE svg PUBLIC "-//W3C//DTD SVG 1.1//EN"
 "http://www.w3.org/Graphics/SVG/1.1/DTD/svg11.dtd">
<!-- Generated by graphviz version 2.43.0 (0)
 -->
<!-- Title: %3 Pages: 1 -->
<svg width="1086pt" height="587pt"
 viewBox="0.00 0.00 1085.89 586.80" xmlns="http://www.w3.org/2000/svg" xmlns:xlink="http://www.w3.org/1999/xlink">
<g id="graph0" class="graph" transform="scale(1 1) rotate(0) translate(4 582.8)">
<title>%3</title>
<polygon fill="white" stroke="transparent" points="-4,4 -4,-582.8 1081.89,-582.8 1081.89,4 -4,4"/>
<g id="clust1" class="cluster">
<title>cluster_0</title>
<polygon fill="none" stroke="lightgray" points="247.89,-284 247.89,-409 521.89,-409 521.89,-284 247.89,-284"/>
</g>
<g id="clust2" class="cluster">
<title>cluster_1</title>
<polygon fill="none" stroke="lightgray" points="290.89,-138 290.89,-263 482.89,-263 482.89,-138 290.89,-138"/>
</g>
<g id="clust3" class="cluster">
<title>cluster_2</title>
<polygon fill="none" stroke="lightgray" points="77.89,-357 77.89,-482 213.89,-482 213.89,-357 77.89,-357"/>
</g>
<g id="clust4" class="cluster">
<title>cluster_000</title>
<polygon fill="none" stroke="black" points="216.89,-528.2 216.89,-570.8 1069.89,-570.8 1069.89,-528.2 216.89,-528.2"/>
<text text-anchor="middle" x="643.39" y="-555.6" font-family="Times,serif" font-size="14.00">Legend</text>
</g>
<!-- node0 -->
<g id="node1" class="node">
<title>node0</title>
<polygon fill="lightgrey" stroke="transparent" points="207.39,-565 84.39,-565 84.39,-511 207.39,-511 207.39,-565"/>
<polygon fill="none" stroke="black" points="84.89,-538 84.89,-565 207.89,-565 207.89,-538 84.89,-538"/>
<text text-anchor="start" x="105.89" y="-547.8" font-family="Times,serif" font-size="14.00">#0 Method</text>
<polygon fill="yellow" stroke="transparent" points="84.89,-511 84.89,-538 207.89,-538 207.89,-511 84.89,-511"/>
<polygon fill="none" stroke="black" points="84.89,-511 84.89,-538 207.89,-538 207.89,-511 84.89,-511"/>
<text text-anchor="start" x="90.89" y="-520.8" font-family="Times,serif" font-size="14.00">this : ArrayTest</text>
</g>
<!-- node2 -->
<g id="node2" class="node">
<title>node2</title>
<polygon fill="lightgrey" stroke="black" points="205.39,-474 86.39,-474 86.39,-438 205.39,-438 205.39,-474"/>
<text text-anchor="middle" x="145.89" y="-452.3" font-family="Times,serif" font-size="14.00">#2 LabelNode</text>
</g>
<!-- node0&#45;&gt;node2 -->
<g id="edge1" class="edge">
<title>node0&#45;&gt;node2</title>
<path fill="none" stroke="red" d="M145.89,-510.81C145.89,-502.35 145.89,-492.95 145.89,-484.4"/>
<polygon fill="red" stroke="red" points="149.39,-484.17 145.89,-474.17 142.39,-484.17 149.39,-484.17"/>
</g>
<!-- node5 -->
<g id="node4" class="node">
<title>node5</title>
<polygon fill="orange" stroke="black" points="237.67,-302.54 237.67,-317.46 168.09,-328 69.69,-328 0.11,-317.46 0.11,-302.54 69.69,-292 168.09,-292 237.67,-302.54"/>
<text text-anchor="middle" x="118.89" y="-306.3" font-family="Times,serif" font-size="14.00">#5 NewArray : long[]</text>
</g>
<!-- node0&#45;&gt;node5 -->
<g id="edge4" class="edge">
<title>node0&#45;&gt;node5</title>
<path fill="none" stroke="green" d="M207.54,-512.93C209.34,-512.27 211.13,-511.63 212.89,-511 358.92,-458.92 629.76,-472.1 525.89,-357 504.79,-333.62 275.17,-331.73 243.89,-328 233.84,-326.8 223.34,-325.48 212.88,-324.12"/>
<polygon fill="green" stroke="green" points="213.26,-320.64 202.89,-322.81 212.35,-327.58 213.26,-320.64"/>
</g>
<!-- node4 -->
<g id="node3" class="node">
<title>node4</title>
<polygon fill="lightgreen" stroke="black" points="204.08,-375.54 204.08,-390.46 169.41,-401 120.37,-401 85.7,-390.46 85.7,-375.54 120.37,-365 169.41,-365 204.08,-375.54"/>
<text text-anchor="middle" x="144.89" y="-379.3" font-family="Times,serif" font-size="14.00">#4 int 10</text>
</g>
<!-- node2&#45;&gt;node4 -->
<g id="edge2" class="edge">
<title>node2&#45;&gt;node4</title>
<path fill="none" stroke="black" stroke-dasharray="1,5" d="M145.65,-437.81C145.54,-429.79 145.4,-420.05 145.27,-411.07"/>
<polygon fill="black" stroke="black" points="148.77,-410.98 145.13,-401.03 141.77,-411.08 148.77,-410.98"/>
</g>
<!-- node3 -->
<g id="node10" class="node">
<title>node3</title>
<polygon fill="lightgrey" stroke="black" points="421.39,-401 302.39,-401 302.39,-365 421.39,-365 421.39,-401"/>
<text text-anchor="middle" x="361.89" y="-379.3" font-family="Times,serif" font-size="14.00">#3 LabelNode</text>
</g>
<!-- node2&#45;&gt;node3 -->
<g id="edge13" class="edge">
<title>node2&#45;&gt;node3</title>
<path fill="none" stroke="red" d="M176.85,-437.87C189.6,-431.31 204.68,-424.17 218.89,-419 242.32,-410.47 268.66,-403.36 292.29,-397.82"/>
<polygon fill="red" stroke="red" points="293.27,-401.19 302.24,-395.55 291.71,-394.37 293.27,-401.19"/>
</g>
<!-- node4&#45;&gt;node5 -->
<g id="edge3" class="edge">
<title>node4&#45;&gt;node5</title>
<path fill="none" stroke="black" d="M138.6,-364.81C135.59,-356.62 131.94,-346.62 128.59,-337.48"/>
<polygon fill="black" stroke="black" points="131.85,-336.22 125.13,-328.03 125.28,-338.62 131.85,-336.22"/>
<text text-anchor="middle" x="139.3" y="-338.44" font-family="Times,serif" font-size="14.00">*0</text>
</g>
<!-- node12 -->
<g id="node5" class="node">
<title>node12</title>
<polygon fill="lightgrey" stroke="black" points="242.89,-109 72.89,-109 72.89,-73 242.89,-73 242.89,-109"/>
<text text-anchor="middle" x="157.89" y="-87.3" font-family="Times,serif" font-size="14.00">#12 ArrayLoad : long</text>
</g>
<!-- node5&#45;&gt;node12 -->
<g id="edge5" class="edge">
<title>node5&#45;&gt;node12</title>
<path fill="none" stroke="black" d="M102.51,-291.66C96,-283.59 89.26,-273.48 85.89,-263 79.9,-244.38 80.9,-237.91 85.89,-219 95.96,-180.8 120.46,-142.04 138.08,-117.56"/>
<polygon fill="black" stroke="black" points="141.12,-119.34 144.22,-109.22 135.48,-115.2 141.12,-119.34"/>
<text text-anchor="middle" x="140.29" y="-125.13" font-family="Times,serif" font-size="14.00">*0</text>
</g>
<!-- node8 -->
<g id="node7" class="node">
<title>node8</title>
<polygon fill="lightgrey" stroke="black" points="474.89,-255 298.89,-255 298.89,-219 474.89,-219 474.89,-255"/>
<text text-anchor="middle" x="386.89" y="-233.3" font-family="Times,serif" font-size="14.00">#8 ArrayStore : long[]</text>
</g>
<!-- node5&#45;&gt;node8 -->
<g id="edge8" class="edge">
<title>node5&#45;&gt;node8</title>
<path fill="none" stroke="black" d="M174.27,-292.8C212.5,-282.36 263.88,-268.72 306.58,-257.66"/>
<polygon fill="black" stroke="black" points="307.59,-261.01 316.4,-255.12 305.84,-254.23 307.59,-261.01"/>
<text text-anchor="middle" x="300.96" y="-264.14" font-family="Times,serif" font-size="14.00">*0</text>
</g>
<!-- node5&#45;&gt;node8 -->
<g id="edge11" class="edge">
<title>node5&#45;&gt;node8</title>
<path fill="none" stroke="green" d="M181.36,-293.94C222.58,-283.37 276.51,-269.12 318.81,-257.66"/>
<polygon fill="green" stroke="green" points="319.74,-261.03 328.47,-255.03 317.91,-254.27 319.74,-261.03"/>
</g>
<!-- node9 -->
<g id="node14" class="node">
<title>node9</title>
<polygon fill="orange" stroke="black" points="280.61,-229.54 280.61,-244.46 226.3,-255 149.48,-255 95.17,-244.46 95.17,-229.54 149.48,-219 226.3,-219 280.61,-229.54"/>
<text text-anchor="middle" x="187.89" y="-233.3" font-family="Times,serif" font-size="14.00">#9 ArrayLength</text>
</g>
<!-- node5&#45;&gt;node9 -->
<g id="edge21" class="edge">
<title>node5&#45;&gt;node9</title>
<path fill="none" stroke="black" d="M135.59,-291.81C144.15,-283 154.73,-272.13 164.12,-262.46"/>
<polygon fill="black" stroke="black" points="166.88,-264.64 171.34,-255.03 161.86,-259.76 166.88,-264.64"/>
<text text-anchor="middle" x="164.77" y="-270.22" font-family="Times,serif" font-size="14.00">*0</text>
</g>
<!-- node14 -->
<g id="node13" class="node">
<title>node14</title>
<polygon fill="lightgrey" stroke="black" points="605.39,-36 504.39,-36 504.39,0 605.39,0 605.39,-36"/>
<text text-anchor="middle" x="554.89" y="-14.3" font-family="Times,serif" font-size="14.00">#14 Return</text>
</g>
<!-- node12&#45;&gt;node14 -->
<g id="edge20" class="edge">
<title>node12&#45;&gt;node14</title>
<path fill="none" stroke="green" d="M243.06,-74.77C318.69,-61.24 427.33,-41.81 494.39,-29.82"/>
<polygon fill="green" stroke="green" points="495.15,-33.24 504.38,-28.03 493.92,-26.35 495.15,-33.24"/>
</g>
<!-- node11 -->
<g id="node6" class="node">
<title>node11</title>
<polygon fill="lightgreen" stroke="black" points="425.08,-156.54 425.08,-171.46 390.41,-182 341.37,-182 306.7,-171.46 306.7,-156.54 341.37,-146 390.41,-146 425.08,-156.54"/>
<text text-anchor="middle" x="365.89" y="-160.3" font-family="Times,serif" font-size="14.00">#11 int 1</text>
</g>
<!-- node11&#45;&gt;node12 -->
<g id="edge6" class="edge">
<title>node11&#45;&gt;node12</title>
<path fill="none" stroke="black" d="M327.74,-149.98C296.97,-139.48 253.14,-124.51 217.72,-112.42"/>
<polygon fill="black" stroke="black" points="218.56,-109.01 207.96,-109.09 216.3,-115.64 218.56,-109.01"/>
<text text-anchor="middle" x="227.85" y="-103.25" font-family="Times,serif" font-size="14.00">*1</text>
</g>
<!-- node8&#45;&gt;node12 -->
<g id="edge7" class="edge">
<title>node8&#45;&gt;node12</title>
<path fill="none" stroke="green" d="M358.32,-218.92C340.8,-208.39 317.97,-194.54 297.89,-182 261.85,-159.48 221.01,-133.13 192.78,-114.78"/>
<polygon fill="green" stroke="green" points="194.37,-111.64 184.08,-109.12 190.55,-117.51 194.37,-111.64"/>
</g>
<!-- node8&#45;&gt;node11 -->
<g id="edge16" class="edge">
<title>node8&#45;&gt;node11</title>
<path fill="none" stroke="black" stroke-dasharray="1,5" d="M381.81,-218.81C379.41,-210.7 376.49,-200.84 373.81,-191.78"/>
<polygon fill="black" stroke="black" points="377.12,-190.63 370.93,-182.03 370.41,-192.61 377.12,-190.63"/>
</g>
<!-- node10 -->
<g id="node11" class="node">
<title>node10</title>
<polygon fill="lightgrey" stroke="black" points="618.89,-182 490.89,-182 490.89,-146 618.89,-146 618.89,-182"/>
<text text-anchor="middle" x="554.89" y="-160.3" font-family="Times,serif" font-size="14.00">#10 LabelNode</text>
</g>
<!-- node8&#45;&gt;node10 -->
<g id="edge17" class="edge">
<title>node8&#45;&gt;node10</title>
<path fill="none" stroke="red" d="M427.13,-218.99C450.54,-209.1 480.25,-196.54 505.12,-186.03"/>
<polygon fill="red" stroke="red" points="506.55,-189.23 514.4,-182.11 503.82,-182.78 506.55,-189.23"/>
</g>
<!-- node6 -->
<g id="node8" class="node">
<title>node6</title>
<polygon fill="lightgreen" stroke="black" points="361.42,-302.54 361.42,-317.46 330.65,-328 287.13,-328 256.37,-317.46 256.37,-302.54 287.13,-292 330.65,-292 361.42,-302.54"/>
<text text-anchor="middle" x="308.89" y="-306.3" font-family="Times,serif" font-size="14.00">#6 int 0</text>
</g>
<!-- node6&#45;&gt;node8 -->
<g id="edge9" class="edge">
<title>node6&#45;&gt;node8</title>
<path fill="none" stroke="black" d="M327.77,-291.81C337.64,-282.83 349.88,-271.69 360.65,-261.89"/>
<polygon fill="black" stroke="black" points="363.14,-264.35 368.18,-255.03 358.43,-259.17 363.14,-264.35"/>
<text text-anchor="middle" x="360.47" y="-269.78" font-family="Times,serif" font-size="14.00">*1</text>
</g>
<!-- node7 -->
<g id="node9" class="node">
<title>node7</title>
<polygon fill="lightgreen" stroke="black" points="513.55,-302.54 513.55,-317.46 474.5,-328 419.28,-328 380.23,-317.46 380.23,-302.54 419.28,-292 474.5,-292 513.55,-302.54"/>
<text text-anchor="middle" x="446.89" y="-306.3" font-family="Times,serif" font-size="14.00">#7 long 10</text>
</g>
<!-- node7&#45;&gt;node8 -->
<g id="edge10" class="edge">
<title>node7&#45;&gt;node8</title>
<path fill="none" stroke="black" d="M432.37,-291.81C425,-283.09 415.91,-272.34 407.8,-262.75"/>
<polygon fill="black" stroke="black" points="410.41,-260.41 401.28,-255.03 405.06,-264.93 410.41,-260.41"/>
<text text-anchor="middle" x="419.44" y="-259.72" font-family="Times,serif" font-size="14.00">*2</text>
</g>
<!-- node3&#45;&gt;node8 -->
<g id="edge12" class="edge">
<title>node3&#45;&gt;node8</title>
<path fill="none" stroke="red" d="M421.42,-378.69C457.11,-373.26 499.91,-359.95 522.89,-328 534.31,-312.13 534.29,-299.89 522.89,-284 513.32,-270.67 499.68,-261.15 484.7,-254.37"/>
<polygon fill="red" stroke="red" points="485.8,-251.03 475.22,-250.49 483.15,-257.51 485.8,-251.03"/>
</g>
<!-- node3&#45;&gt;node6 -->
<g id="edge14" class="edge">
<title>node3&#45;&gt;node6</title>
<path fill="none" stroke="black" stroke-dasharray="1,5" d="M349.06,-364.81C342.68,-356.27 334.84,-345.77 327.79,-336.32"/>
<polygon fill="black" stroke="black" points="330.39,-333.95 321.6,-328.03 324.78,-338.14 330.39,-333.95"/>
</g>
<!-- node3&#45;&gt;node7 -->
<g id="edge15" class="edge">
<title>node3&#45;&gt;node7</title>
<path fill="none" stroke="black" stroke-dasharray="1,5" d="M382.47,-364.81C393.32,-355.74 406.81,-344.48 418.64,-334.6"/>
<polygon fill="black" stroke="black" points="421.07,-337.13 426.5,-328.03 416.58,-331.75 421.07,-337.13"/>
</g>
<!-- node13 -->
<g id="node12" class="node">
<title>node13</title>
<polygon fill="lightgrey" stroke="black" points="618.89,-109 490.89,-109 490.89,-73 618.89,-73 618.89,-109"/>
<text text-anchor="middle" x="554.89" y="-87.3" font-family="Times,serif" font-size="14.00">#13 LabelNode</text>
</g>
<!-- node10&#45;&gt;node13 -->
<g id="edge18" class="edge">
<title>node10&#45;&gt;node13</title>
<path fill="none" stroke="red" d="M554.89,-145.81C554.89,-137.79 554.89,-128.05 554.89,-119.07"/>
<polygon fill="red" stroke="red" points="558.39,-119.03 554.89,-109.03 551.39,-119.03 558.39,-119.03"/>
</g>
<!-- node13&#45;&gt;node14 -->
<g id="edge19" class="edge">
<title>node13&#45;&gt;node14</title>
<path fill="none" stroke="red" d="M554.89,-72.81C554.89,-64.79 554.89,-55.05 554.89,-46.07"/>
<polygon fill="red" stroke="red" points="558.39,-46.03 554.89,-36.03 551.39,-46.03 558.39,-46.03"/>
</g>
<!-- c0 -->
<!-- c1 -->
<!-- c0&#45;&gt;c1 -->
<g id="edge22" class="edge">
<title>c0&#45;&gt;c1</title>
<path fill="none" stroke="red" d="M952.78,-538C964,-538 1022.13,-538 1047.75,-538"/>
<polygon fill="red" stroke="red" points="1047.95,-541.5 1057.95,-538 1047.95,-534.5 1047.95,-541.5"/>
<text text-anchor="middle" x="1005.39" y="-544.8" font-family="Times,serif" font-size="14.00">Control flow</text>
</g>
<!-- c2 -->
<!-- c3 -->
<!-- c2&#45;&gt;c3 -->
<g id="edge23" class="edge">
<title>c2&#45;&gt;c3</title>
<path fill="none" stroke="red" stroke-dasharray="5,2" d="M745.97,-538C762.94,-538 879.1,-538 916.97,-538"/>
<polygon fill="red" stroke="red" points="917.06,-541.5 927.06,-538 917.06,-534.5 917.06,-541.5"/>
<text text-anchor="middle" x="836.39" y="-544.8" font-family="Times,serif" font-size="14.00">Control flow back edge</text>
</g>
<!-- d0 -->
<!-- d1 -->
<!-- d0&#45;&gt;d1 -->
<g id="edge24" class="edge">
<title>d0&#45;&gt;d1</title>
<path fill="none" stroke="black" d="M634.75,-538C644.3,-538 688.2,-538 709.81,-538"/>
<polygon fill="black" stroke="black" points="710.04,-541.5 720.04,-538 710.04,-534.5 710.04,-541.5"/>
<text text-anchor="middle" x="677.39" y="-544.8" font-family="Times,serif" font-size="14.00">Data flow</text>
</g>
<!-- d2 -->
<!-- d3 -->
<!-- d2&#45;&gt;d3 -->
<g id="edge25" class="edge">
<title>d2&#45;&gt;d3</title>
<path fill="none" stroke="black" stroke-dasharray="1,5" d="M508.7,-538C519.35,-538 574.36,-538 598.97,-538"/>
<polygon fill="black" stroke="black" points="599.04,-541.5 609.04,-538 599.04,-534.5 599.04,-541.5"/>
<text text-anchor="middle" x="558.89" y="-544.8" font-family="Times,serif" font-size="14.00">Declaration</text>
</g>
<!-- d4 -->
<!-- d5 -->
<!-- d4&#45;&gt;d5 -->
<g id="edge26" class="edge">
<title>d4&#45;&gt;d5</title>
<path fill="none" stroke="blue" d="M365.99,-538C378.61,-538 444.77,-538 472.57,-538"/>
<polygon fill="blue" stroke="blue" points="472.73,-541.5 482.73,-538 472.73,-534.5 472.73,-541.5"/>
<text text-anchor="middle" x="424.39" y="-544.8" font-family="Times,serif" font-size="14.00">PHI Data flow</text>
</g>
<!-- d6 -->
<!-- d7 -->
<!-- d6&#45;&gt;d7 -->
<g id="edge27" class="edge">
<title>d6&#45;&gt;d7</title>
<path fill="none" stroke="green" d="M228.89,-538C240.83,-538 303.19,-538 329.82,-538"/>
<polygon fill="green" stroke="green" points="329.84,-541.5 339.84,-538 329.84,-534.5 329.84,-541.5"/>
<text text-anchor="middle" x="284.39" y="-544.8" font-family="Times,serif" font-size="14.00">Memory flow</text>
</g>
</g>
</svg>
