<?xml version="1.0" encoding="UTF-8" standalone="no"?>
<!DOCTYPE svg PUBLIC "-//W3C//DTD SVG 1.1//EN"
 "http://www.w3.org/Graphics/SVG/1.1/DTD/svg11.dtd">
<!-- Generated by graphviz version 2.43.0 (0)
 -->
<!-- Title: debugoutput Pages: 1 -->
<svg width="1697pt" height="578pt"
 viewBox="0.00 0.00 1697.00 577.80" xmlns="http://www.w3.org/2000/svg" xmlns:xlink="http://www.w3.org/1999/xlink">
<g id="graph0" class="graph" transform="scale(1 1) rotate(0) translate(4 573.8)">
<title>debugoutput</title>
<polygon fill="white" stroke="transparent" points="-4,4 -4,-573.8 1693,-573.8 1693,4 -4,4"/>
<g id="clust1" class="cluster">
<title>cluster_000</title>
<polygon fill="none" stroke="black" points="842,-519.2 842,-561.8 1681,-561.8 1681,-519.2 842,-519.2"/>
<text text-anchor="middle" x="1261.5" y="-546.6" font-family="Times,serif" font-size="14.00">Legend</text>
</g>
<!-- node0 -->
<g id="node1" class="node">
<title>node0</title>
<polygon fill="lightgrey" stroke="black" points="832,-547 666,-547 666,-511 832,-511 832,-547"/>
<text text-anchor="middle" x="749" y="-525.3" font-family="Times,serif" font-size="14.00">#0 Method Order : 0</text>
</g>
<!-- node1 -->
<g id="node2" class="node">
<title>node1</title>
<polygon fill="lightgrey" stroke="black" points="230,-474 0,-474 0,-438 230,-438 230,-474"/>
<text text-anchor="middle" x="115" y="-452.3" font-family="Times,serif" font-size="14.00">#1 this : ArrayTest Order : 14</text>
</g>
<!-- node0&#45;&gt;node1 -->
<g id="edge2" class="edge">
<title>node0&#45;&gt;node1</title>
<path fill="none" stroke="black" d="M665.64,-527.5C563.29,-525.75 385.05,-518.86 235,-493 212.85,-489.18 189.03,-483.11 168.45,-477.04"/>
<polygon fill="black" stroke="black" points="169.21,-473.61 158.62,-474.07 167.18,-480.31 169.21,-473.61"/>
<text text-anchor="middle" x="178.42" y="-467.53" font-family="Times,serif" font-size="14.00">*0</text>
</g>
<!-- node2 -->
<g id="node3" class="node">
<title>node2</title>
<polygon fill="lightgrey" stroke="black" points="1454,-474 1266,-474 1266,-438 1454,-438 1454,-474"/>
<text text-anchor="middle" x="1360" y="-452.3" font-family="Times,serif" font-size="14.00">#2 LabelNode Order : 7</text>
</g>
<!-- node0&#45;&gt;node2 -->
<g id="edge4" class="edge">
<title>node0&#45;&gt;node2</title>
<path fill="none" stroke="red" d="M829.27,-510.97C1011.98,-489.7 1061.98,-526.43 1243,-493 1261.86,-489.52 1281.95,-483.5 1300.11,-477.37"/>
<polygon fill="red" stroke="red" points="1301.38,-480.64 1309.69,-474.07 1299.1,-474.02 1301.38,-480.64"/>
</g>
<!-- node4 -->
<g id="node5" class="node">
<title>node4</title>
<polygon fill="orange" stroke="black" points="633.36,-375.54 633.36,-390.46 535.32,-401 396.68,-401 298.64,-390.46 298.64,-375.54 396.68,-365 535.32,-365 633.36,-375.54"/>
<text text-anchor="middle" x="466" y="-379.3" font-family="Times,serif" font-size="14.00">#4 NewArray : long[] Order : 5</text>
</g>
<!-- node0&#45;&gt;node4 -->
<g id="edge9" class="edge">
<title>node0&#45;&gt;node4</title>
<path fill="none" stroke="black" d="M665.93,-524.3C539.37,-517.62 310.53,-501.62 286,-474 254.89,-438.97 308.62,-415.37 365.35,-401.16"/>
<polygon fill="black" stroke="black" points="366.3,-404.53 375.21,-398.79 364.66,-397.72 366.3,-404.53"/>
</g>
<!-- node6 -->
<g id="node6" class="node">
<title>node6</title>
<polygon fill="lightgreen" stroke="black" points="519.77,-448.54 519.77,-463.46 456.64,-474 367.36,-474 304.23,-463.46 304.23,-448.54 367.36,-438 456.64,-438 519.77,-448.54"/>
<text text-anchor="middle" x="412" y="-452.3" font-family="Times,serif" font-size="14.00">#6 int 10 Order : 4</text>
</g>
<!-- node0&#45;&gt;node6 -->
<g id="edge13" class="edge">
<title>node0&#45;&gt;node6</title>
<path fill="none" stroke="black" stroke-dasharray="1,5" d="M665.9,-511.71C610.03,-500.21 537.17,-484.86 483.81,-473.35"/>
<polygon fill="black" stroke="black" points="484.26,-469.86 473.75,-471.17 482.78,-476.71 484.26,-469.86"/>
</g>
<!-- node7 -->
<g id="node8" class="node">
<title>node7</title>
<polygon fill="lightgreen" stroke="black" points="740.11,-448.54 740.11,-463.46 680.88,-474 597.12,-474 537.89,-463.46 537.89,-448.54 597.12,-438 680.88,-438 740.11,-448.54"/>
<text text-anchor="middle" x="639" y="-452.3" font-family="Times,serif" font-size="14.00">#7 int 1 Order : 3</text>
</g>
<!-- node0&#45;&gt;node7 -->
<g id="edge15" class="edge">
<title>node0&#45;&gt;node7</title>
<path fill="none" stroke="black" stroke-dasharray="1,5" d="M716.79,-510.99C701.35,-501.67 683.07,-489.97 668.06,-479.86"/>
<polygon fill="black" stroke="black" points="669.88,-476.86 659.64,-474.11 665.93,-482.64 669.88,-476.86"/>
</g>
<!-- node8 -->
<g id="node9" class="node">
<title>node8</title>
<polygon fill="lightgreen" stroke="black" points="961.11,-448.54 961.11,-463.46 901.88,-474 818.12,-474 758.89,-463.46 758.89,-448.54 818.12,-438 901.88,-438 961.11,-448.54"/>
<text text-anchor="middle" x="860" y="-452.3" font-family="Times,serif" font-size="14.00">#8 int 0 Order : 2</text>
</g>
<!-- node0&#45;&gt;node8 -->
<g id="edge17" class="edge">
<title>node0&#45;&gt;node8</title>
<path fill="none" stroke="black" stroke-dasharray="1,5" d="M769.73,-510.99C783.45,-501.58 801.77,-489.76 818.37,-479.57"/>
<polygon fill="black" stroke="black" points="820.64,-482.29 827.37,-474.11 817.01,-476.31 820.64,-482.29"/>
</g>
<!-- node9 -->
<g id="node10" class="node">
<title>node9</title>
<polygon fill="lightgreen" stroke="black" points="1210.25,-448.54 1210.25,-463.46 1142.74,-474 1047.26,-474 979.75,-463.46 979.75,-448.54 1047.26,-438 1142.74,-438 1210.25,-448.54"/>
<text text-anchor="middle" x="1095" y="-452.3" font-family="Times,serif" font-size="14.00">#9 long 10 Order : 1</text>
</g>
<!-- node0&#45;&gt;node9 -->
<g id="edge19" class="edge">
<title>node0&#45;&gt;node9</title>
<path fill="none" stroke="black" stroke-dasharray="1,5" d="M826.02,-510.99C881.92,-499.27 957.33,-483.81 1014.1,-472.43"/>
<polygon fill="black" stroke="black" points="1015,-475.82 1024.12,-470.43 1013.63,-468.96 1015,-475.82"/>
</g>
<!-- node1&#45;&gt;node0 -->
<g id="edge1" class="edge">
<title>node1&#45;&gt;node0</title>
<path fill="none" stroke="green" stroke-width="2" d="M175.1,-474.07C199.19,-481.07 227.22,-488.56 253,-493 392.2,-516.99 555.68,-524.65 655.85,-527.03"/>
<polygon fill="green" stroke="green" stroke-width="2" points="655.86,-530.54 665.94,-527.26 656.02,-523.54 655.86,-530.54"/>
</g>
<!-- node2&#45;&gt;node0 -->
<g id="edge3" class="edge">
<title>node2&#45;&gt;node0</title>
<path fill="none" stroke="green" stroke-width="2" d="M1325.83,-474.16C1307,-481.32 1283.16,-488.91 1261,-493 1079.89,-526.44 1029.93,-489.67 847,-511 845.49,-511.18 843.96,-511.36 842.42,-511.56"/>
<polygon fill="green" stroke="green" stroke-width="2" points="841.58,-508.15 832.16,-513 842.55,-515.08 841.58,-508.15"/>
</g>
<!-- node3 -->
<g id="node4" class="node">
<title>node3</title>
<polygon fill="lightgrey" stroke="black" points="1454,-401 1266,-401 1266,-365 1454,-365 1454,-401"/>
<text text-anchor="middle" x="1360" y="-379.3" font-family="Times,serif" font-size="14.00">#3 LabelNode Order : 8</text>
</g>
<!-- node2&#45;&gt;node3 -->
<g id="edge6" class="edge">
<title>node2&#45;&gt;node3</title>
<path fill="none" stroke="red" d="M1354.12,-437.81C1353.28,-429.79 1353.05,-420.05 1353.42,-411.07"/>
<polygon fill="red" stroke="red" points="1356.92,-411.25 1354.14,-401.03 1349.94,-410.75 1356.92,-411.25"/>
</g>
<!-- node3&#45;&gt;node2 -->
<g id="edge5" class="edge">
<title>node3&#45;&gt;node2</title>
<path fill="none" stroke="green" stroke-width="2" d="M1365.86,-401.03C1366.71,-409.03 1366.95,-418.77 1366.59,-427.75"/>
<polygon fill="green" stroke="green" stroke-width="2" points="1363.09,-427.59 1365.88,-437.81 1370.07,-428.08 1363.09,-427.59"/>
</g>
<!-- node10 -->
<g id="node11" class="node">
<title>node10</title>
<polygon fill="lightgrey" stroke="black" points="987,-328 733,-328 733,-292 987,-292 987,-328"/>
<text text-anchor="middle" x="860" y="-306.3" font-family="Times,serif" font-size="14.00">#10 ArrayStore : long[] Order : 9</text>
</g>
<!-- node3&#45;&gt;node10 -->
<g id="edge25" class="edge">
<title>node3&#45;&gt;node10</title>
<path fill="none" stroke="red" d="M1316.5,-364.93C1297.05,-357.97 1273.67,-350.51 1252,-346 1168.46,-328.6 1073.13,-319.84 997.4,-315.44"/>
<polygon fill="red" stroke="red" points="997.5,-311.94 987.32,-314.88 997.11,-318.93 997.5,-311.94"/>
</g>
<!-- node4&#45;&gt;node0 -->
<g id="edge7" class="edge">
<title>node4&#45;&gt;node0</title>
<path fill="none" stroke="green" stroke-width="2" d="M385.43,-399.87C330.04,-413.92 271.92,-437.88 304,-474 327.13,-500.05 532.06,-515.77 655.65,-523.07"/>
<polygon fill="green" stroke="green" stroke-width="2" points="655.69,-526.58 665.88,-523.67 656.1,-519.59 655.69,-526.58"/>
</g>
<!-- node5 -->
<g id="node7" class="node">
<title>node5</title>
<polygon fill="orange" stroke="black" points="649.3,-302.54 649.3,-317.46 566.53,-328 449.47,-328 366.7,-317.46 366.7,-302.54 449.47,-292 566.53,-292 649.3,-302.54"/>
<text text-anchor="middle" x="508" y="-306.3" font-family="Times,serif" font-size="14.00">#5 ArrayLength Order : 6</text>
</g>
<!-- node4&#45;&gt;node5 -->
<g id="edge11" class="edge">
<title>node4&#45;&gt;node5</title>
<path fill="none" stroke="black" d="M470.29,-364.81C474.41,-356.35 480.33,-345.98 486.34,-336.61"/>
<polygon fill="black" stroke="black" points="489.43,-338.29 492.07,-328.03 483.6,-334.4 489.43,-338.29"/>
<text text-anchor="middle" x="489.03" y="-344.1" font-family="Times,serif" font-size="14.00">*0</text>
</g>
<!-- node4&#45;&gt;node10 -->
<g id="edge21" class="edge">
<title>node4&#45;&gt;node10</title>
<path fill="none" stroke="black" d="M547.72,-366.24C606.18,-355.48 685.49,-341.17 749.57,-329.81"/>
<polygon fill="black" stroke="black" points="750.48,-333.21 759.72,-328.02 749.26,-326.31 750.48,-333.21"/>
<text text-anchor="middle" x="743.34" y="-335.8" font-family="Times,serif" font-size="14.00">*0</text>
</g>
<!-- node4&#45;&gt;node10 -->
<g id="edge24" class="edge">
<title>node4&#45;&gt;node10</title>
<path fill="none" stroke="black" d="M554.7,-367.03C616.16,-356.2 697.97,-341.48 761.46,-329.85"/>
<polygon fill="black" stroke="black" points="762.28,-333.25 771.49,-328.01 761.02,-326.37 762.28,-333.25"/>
</g>
<!-- node11 -->
<g id="node12" class="node">
<title>node11</title>
<polygon fill="lightgrey" stroke="black" points="984,-255 736,-255 736,-219 984,-219 984,-255"/>
<text text-anchor="middle" x="860" y="-233.3" font-family="Times,serif" font-size="14.00">#11 ArrayLoad : long Order : 10</text>
</g>
<!-- node4&#45;&gt;node11 -->
<g id="edge27" class="edge">
<title>node4&#45;&gt;node11</title>
<path fill="none" stroke="black" d="M404,-364.89C386.04,-356.74 368.47,-344.94 358,-328 349.59,-314.39 347.31,-303.9 358,-292 382.27,-264.97 585.61,-250.31 725.92,-243.32"/>
<polygon fill="black" stroke="black" points="726.1,-246.82 735.91,-242.83 725.75,-239.83 726.1,-246.82"/>
<text text-anchor="middle" x="718.22" y="-248.46" font-family="Times,serif" font-size="14.00">*0</text>
</g>
<!-- node6&#45;&gt;node0 -->
<g id="edge12" class="edge">
<title>node6&#45;&gt;node0</title>
<path fill="none" stroke="green" stroke-width="2" d="M479.79,-470.15C532.89,-481.01 607.01,-496.57 664.06,-508.82"/>
<polygon fill="green" stroke="green" stroke-width="2" points="663.63,-512.31 674.14,-510.99 665.1,-505.47 663.63,-512.31"/>
</g>
<!-- node6&#45;&gt;node4 -->
<g id="edge8" class="edge">
<title>node6&#45;&gt;node4</title>
<path fill="none" stroke="black" d="M425.07,-437.81C431.64,-429.18 439.72,-418.56 446.96,-409.03"/>
<polygon fill="black" stroke="black" points="449.78,-411.11 453.05,-401.03 444.21,-406.87 449.78,-411.11"/>
<text text-anchor="middle" x="448.8" y="-416.87" font-family="Times,serif" font-size="14.00">*0</text>
</g>
<!-- node5&#45;&gt;node4 -->
<g id="edge10" class="edge">
<title>node5&#45;&gt;node4</title>
<path fill="none" stroke="green" stroke-width="2" d="M503.79,-328.03C499.69,-336.46 493.78,-346.83 487.78,-356.21"/>
<polygon fill="green" stroke="green" stroke-width="2" points="484.68,-354.55 482.05,-364.81 490.5,-358.43 484.68,-354.55"/>
</g>
<!-- node7&#45;&gt;node0 -->
<g id="edge14" class="edge">
<title>node7&#45;&gt;node0</title>
<path fill="none" stroke="green" stroke-width="2" d="M671.38,-474.11C686.85,-483.46 705.12,-495.15 720.11,-505.26"/>
<polygon fill="green" stroke="green" stroke-width="2" points="718.28,-508.24 728.51,-510.99 722.23,-502.46 718.28,-508.24"/>
</g>
<!-- node7&#45;&gt;node11 -->
<g id="edge28" class="edge">
<title>node7&#45;&gt;node11</title>
<path fill="none" stroke="black" d="M643.53,-437.99C653.05,-405.33 678.15,-333.37 724,-292 740.12,-277.46 760.63,-266.6 780.81,-258.6"/>
<polygon fill="black" stroke="black" points="782.23,-261.81 790.36,-255.01 779.76,-255.26 782.23,-261.81"/>
<text text-anchor="middle" x="776.37" y="-265.6" font-family="Times,serif" font-size="14.00">*1</text>
</g>
<!-- node8&#45;&gt;node0 -->
<g id="edge16" class="edge">
<title>node8&#45;&gt;node0</title>
<path fill="none" stroke="green" stroke-width="2" d="M839.12,-474.11C825.36,-483.55 807.02,-495.37 790.44,-505.54"/>
<polygon fill="green" stroke="green" stroke-width="2" points="788.18,-502.82 781.45,-510.99 791.81,-508.8 788.18,-502.82"/>
</g>
<!-- node8&#45;&gt;node10 -->
<g id="edge22" class="edge">
<title>node8&#45;&gt;node10</title>
<path fill="none" stroke="black" d="M860,-437.92C860,-413.34 860,-367.75 860,-338.43"/>
<polygon fill="black" stroke="black" points="863.5,-338.06 860,-328.06 856.5,-338.06 863.5,-338.06"/>
<text text-anchor="middle" x="868.45" y="-342.49" font-family="Times,serif" font-size="14.00">*1</text>
</g>
<!-- node9&#45;&gt;node0 -->
<g id="edge18" class="edge">
<title>node9&#45;&gt;node0</title>
<path fill="none" stroke="green" stroke-width="2" d="M1030.22,-471.43C977.33,-482.58 901.96,-498.08 842.54,-510.03"/>
<polygon fill="green" stroke="green" stroke-width="2" points="841.5,-506.67 832.39,-512.07 842.88,-513.53 841.5,-506.67"/>
</g>
<!-- node9&#45;&gt;node10 -->
<g id="edge23" class="edge">
<title>node9&#45;&gt;node10</title>
<path fill="none" stroke="black" d="M1067.12,-437.92C1024.63,-411.88 943.65,-362.26 896.52,-333.38"/>
<polygon fill="black" stroke="black" points="898.2,-330.3 887.84,-328.06 894.54,-336.27 898.2,-330.3"/>
<text text-anchor="middle" x="907.72" y="-326.63" font-family="Times,serif" font-size="14.00">*2</text>
</g>
<!-- node10&#45;&gt;node0 -->
<g id="edge20" class="edge">
<title>node10&#45;&gt;node0</title>
<path fill="none" stroke="green" stroke-width="2" d="M987.27,-325.62C1119.12,-345.65 1295.94,-389.23 1219,-474 1191.98,-503.77 913.2,-504.91 842.44,-510.77"/>
<polygon fill="green" stroke="green" stroke-width="2" points="841.91,-507.31 832.34,-511.84 842.65,-514.27 841.91,-507.31"/>
</g>
<!-- node10&#45;&gt;node11 -->
<g id="edge29" class="edge">
<title>node10&#45;&gt;node11</title>
<path fill="none" stroke="black" d="M854.12,-291.81C853.28,-283.79 853.05,-274.05 853.42,-265.07"/>
<polygon fill="black" stroke="black" points="856.92,-265.25 854.14,-255.03 849.94,-264.75 856.92,-265.25"/>
</g>
<!-- node10&#45;&gt;node11 -->
<g id="edge30" class="edge">
<title>node10&#45;&gt;node11</title>
<path fill="none" stroke="red" d="M865.88,-291.81C866.72,-283.79 866.95,-274.05 866.58,-265.07"/>
<polygon fill="red" stroke="red" points="870.06,-264.75 865.86,-255.03 863.08,-265.25 870.06,-264.75"/>
</g>
<!-- node11&#45;&gt;node0 -->
<g id="edge26" class="edge">
<title>node11&#45;&gt;node0</title>
<path fill="none" stroke="green" stroke-width="2" d="M984,-239.92C1165.46,-244.42 1482,-259.38 1482,-309 1482,-457 1482,-457 1482,-457 1482,-526.21 949.97,-504.52 842.56,-510.86"/>
<polygon fill="green" stroke="green" stroke-width="2" points="842,-507.39 832.32,-511.7 842.57,-514.37 842,-507.39"/>
</g>
<!-- node12 -->
<g id="node13" class="node">
<title>node12</title>
<polygon fill="lightgrey" stroke="black" points="1082,-182 876,-182 876,-146 1082,-146 1082,-182"/>
<text text-anchor="middle" x="979" y="-160.3" font-family="Times,serif" font-size="14.00">#12 LabelNode Order : 11</text>
</g>
<!-- node11&#45;&gt;node12 -->
<g id="edge32" class="edge">
<title>node11&#45;&gt;node12</title>
<path fill="none" stroke="red" d="M882.64,-218.99C897.56,-209.49 917.45,-197.54 935.32,-187.29"/>
<polygon fill="red" stroke="red" points="937.48,-190.09 944.45,-182.11 934.02,-184.01 937.48,-190.09"/>
</g>
<!-- node14 -->
<g id="node15" class="node">
<title>node14</title>
<polygon fill="lightgrey" stroke="black" points="928.5,-36 749.5,-36 749.5,0 928.5,0 928.5,-36"/>
<text text-anchor="middle" x="839" y="-14.3" font-family="Times,serif" font-size="14.00">#14 Return Order : 13</text>
</g>
<!-- node11&#45;&gt;node14 -->
<g id="edge37" class="edge">
<title>node11&#45;&gt;node14</title>
<path fill="none" stroke="black" d="M854.51,-218.97C847.3,-181.51 838.34,-91.68 836.98,-46.26"/>
<polygon fill="black" stroke="black" points="840.48,-46.19 836.81,-36.25 833.48,-46.31 840.48,-46.19"/>
</g>
<!-- node12&#45;&gt;node11 -->
<g id="edge31" class="edge">
<title>node12&#45;&gt;node11</title>
<path fill="none" stroke="green" stroke-width="2" d="M956.19,-182.11C941.23,-191.63 921.34,-203.59 903.48,-213.82"/>
<polygon fill="green" stroke="green" stroke-width="2" points="901.33,-211.02 894.36,-218.99 904.79,-217.1 901.33,-211.02"/>
</g>
<!-- node13 -->
<g id="node14" class="node">
<title>node13</title>
<polygon fill="lightgrey" stroke="black" points="1082,-109 876,-109 876,-73 1082,-73 1082,-109"/>
<text text-anchor="middle" x="979" y="-87.3" font-family="Times,serif" font-size="14.00">#13 LabelNode Order : 12</text>
</g>
<!-- node12&#45;&gt;node13 -->
<g id="edge34" class="edge">
<title>node12&#45;&gt;node13</title>
<path fill="none" stroke="red" d="M973.12,-145.81C972.28,-137.79 972.05,-128.05 972.42,-119.07"/>
<polygon fill="red" stroke="red" points="975.92,-119.25 973.14,-109.03 968.94,-118.75 975.92,-119.25"/>
</g>
<!-- node13&#45;&gt;node12 -->
<g id="edge33" class="edge">
<title>node13&#45;&gt;node12</title>
<path fill="none" stroke="green" stroke-width="2" d="M984.86,-109.03C985.71,-117.03 985.95,-126.77 985.59,-135.75"/>
<polygon fill="green" stroke="green" stroke-width="2" points="982.09,-135.59 984.88,-145.81 989.07,-136.08 982.09,-135.59"/>
</g>
<!-- node13&#45;&gt;node14 -->
<g id="edge36" class="edge">
<title>node13&#45;&gt;node14</title>
<path fill="none" stroke="red" d="M945.47,-72.99C926.39,-63.32 902.29,-51.1 881.85,-40.73"/>
<polygon fill="red" stroke="red" points="883.25,-37.52 872.75,-36.11 880.08,-43.76 883.25,-37.52"/>
</g>
<!-- node14&#45;&gt;node11 -->
<g id="edge35" class="edge">
<title>node14&#45;&gt;node11</title>
<path fill="none" stroke="green" stroke-width="2" d="M844.53,-36.25C851.73,-73.84 860.66,-163.39 862.02,-208.72"/>
<polygon fill="green" stroke="green" stroke-width="2" points="858.52,-209.03 862.2,-218.97 865.52,-208.91 858.52,-209.03"/>
</g>
<!-- c0 -->
<!-- c1 -->
<!-- c0&#45;&gt;c1 -->
<g id="edge38" class="edge">
<title>c0&#45;&gt;c1</title>
<path fill="none" stroke="red" d="M1563.89,-529C1575.11,-529 1633.24,-529 1658.86,-529"/>
<polygon fill="red" stroke="red" points="1659.06,-532.5 1669.06,-529 1659.06,-525.5 1659.06,-532.5"/>
<text text-anchor="middle" x="1616.5" y="-535.8" font-family="Times,serif" font-size="14.00">Control flow</text>
</g>
<!-- c2 -->
<!-- c3 -->
<!-- c2&#45;&gt;c3 -->
<g id="edge39" class="edge">
<title>c2&#45;&gt;c3</title>
<path fill="none" stroke="red" stroke-dasharray="5,2" d="M1357.08,-529C1374.05,-529 1490.21,-529 1528.08,-529"/>
<polygon fill="red" stroke="red" points="1528.17,-532.5 1538.17,-529 1528.17,-525.5 1528.17,-532.5"/>
<text text-anchor="middle" x="1447.5" y="-535.8" font-family="Times,serif" font-size="14.00">Control flow back edge</text>
</g>
<!-- d0 -->
<!-- d1 -->
<!-- d0&#45;&gt;d1 -->
<g id="edge40" class="edge">
<title>d0&#45;&gt;d1</title>
<path fill="none" stroke="black" d="M1245.86,-529C1255.41,-529 1299.31,-529 1320.92,-529"/>
<polygon fill="black" stroke="black" points="1321.15,-532.5 1331.15,-529 1321.15,-525.5 1321.15,-532.5"/>
<text text-anchor="middle" x="1288.5" y="-535.8" font-family="Times,serif" font-size="14.00">Data flow</text>
</g>
<!-- d2 -->
<!-- d3 -->
<!-- d2&#45;&gt;d3 -->
<g id="edge41" class="edge">
<title>d2&#45;&gt;d3</title>
<path fill="none" stroke="black" stroke-dasharray="1,5" d="M1119.81,-529C1130.46,-529 1185.46,-529 1210.08,-529"/>
<polygon fill="black" stroke="black" points="1210.15,-532.5 1220.15,-529 1210.15,-525.5 1210.15,-532.5"/>
<text text-anchor="middle" x="1170" y="-535.8" font-family="Times,serif" font-size="14.00">Declaration</text>
</g>
<!-- d4 -->
<!-- d5 -->
<!-- d4&#45;&gt;d5 -->
<g id="edge42" class="edge">
<title>d4&#45;&gt;d5</title>
<path fill="none" stroke="blue" d="M977.1,-529C989.72,-529 1055.88,-529 1083.68,-529"/>
<polygon fill="blue" stroke="blue" points="1083.84,-532.5 1093.84,-529 1083.84,-525.5 1083.84,-532.5"/>
<text text-anchor="middle" x="1035.5" y="-535.8" font-family="Times,serif" font-size="14.00">PHI Data flow</text>
</g>
<!-- d6 -->
<!-- d7 -->
<!-- d6&#45;&gt;d7 -->
<g id="edge43" class="edge">
<title>d6&#45;&gt;d7</title>
<path fill="none" stroke="green" d="M854.11,-529C865.15,-529 916.67,-529 940.66,-529"/>
<polygon fill="green" stroke="green" points="940.9,-532.5 950.9,-529 940.9,-525.5 940.9,-532.5"/>
<text text-anchor="middle" x="902.5" y="-535.8" font-family="Times,serif" font-size="14.00">Dominance</text>
</g>
</g>
</svg>
