<?xml version="1.0" encoding="UTF-8" standalone="no"?>
<!DOCTYPE svg PUBLIC "-//W3C//DTD SVG 1.1//EN"
 "http://www.w3.org/Graphics/SVG/1.1/DTD/svg11.dtd">
<!-- Generated by graphviz version 2.43.0 (0)
 -->
<!-- Title: debugoutput Pages: 1 -->
<svg width="1391pt" height="213pt"
 viewBox="0.00 0.00 1390.50 212.80" xmlns="http://www.w3.org/2000/svg" xmlns:xlink="http://www.w3.org/1999/xlink">
<g id="graph0" class="graph" transform="scale(1 1) rotate(0) translate(4 208.8)">
<title>debugoutput</title>
<polygon fill="white" stroke="transparent" points="-4,4 -4,-208.8 1386.5,-208.8 1386.5,4 -4,4"/>
<g id="clust1" class="cluster">
<title>cluster_000</title>
<polygon fill="none" stroke="black" points="535.5,-154.2 535.5,-196.8 1374.5,-196.8 1374.5,-154.2 535.5,-154.2"/>
<text text-anchor="middle" x="955" y="-181.6" font-family="Times,serif" font-size="14.00">Legend</text>
</g>
<!-- node0 -->
<g id="node1" class="node">
<title>node0</title>
<polygon fill="lightgrey" stroke="black" points="525.5,-182 359.5,-182 359.5,-146 525.5,-146 525.5,-182"/>
<text text-anchor="middle" x="442.5" y="-160.3" font-family="Times,serif" font-size="14.00">#0 Method Order : 0</text>
</g>
<!-- node1 -->
<g id="node2" class="node">
<title>node1</title>
<polygon fill="lightgrey" stroke="black" points="231,-109 0,-109 0,-73 231,-73 231,-109"/>
<text text-anchor="middle" x="115.5" y="-87.3" font-family="Times,serif" font-size="14.00">#1 this : ReturnTest Order : 4</text>
</g>
<!-- node0&#45;&gt;node1 -->
<g id="edge2" class="edge">
<title>node0&#45;&gt;node1</title>
<path fill="none" stroke="red" d="M359.17,-146.17C309.71,-135.68 247.29,-122.15 197.99,-111.23"/>
<polygon fill="red" stroke="red" points="198.52,-107.76 188,-109.01 197,-114.6 198.52,-107.76"/>
</g>
<!-- node2 -->
<g id="node3" class="node">
<title>node2</title>
<polygon fill="lightgrey" stroke="black" points="437.5,-109 249.5,-109 249.5,-73 437.5,-73 437.5,-109"/>
<text text-anchor="middle" x="343.5" y="-87.3" font-family="Times,serif" font-size="14.00">#2 LabelNode Order : 2</text>
</g>
<!-- node0&#45;&gt;node2 -->
<g id="edge4" class="edge">
<title>node0&#45;&gt;node2</title>
<path fill="none" stroke="red" d="M412.93,-145.99C399.19,-136.84 383.08,-125.41 369.78,-115.43"/>
<polygon fill="red" stroke="red" points="371.57,-112.39 361.49,-109.11 367.32,-117.96 371.57,-112.39"/>
</g>
<!-- node3 -->
<g id="node4" class="node">
<title>node3</title>
<polygon fill="lightgreen" stroke="black" points="671.27,-83.54 671.27,-98.46 608.14,-109 518.86,-109 455.73,-98.46 455.73,-83.54 518.86,-73 608.14,-73 671.27,-83.54"/>
<text text-anchor="middle" x="563.5" y="-87.3" font-family="Times,serif" font-size="14.00">#3 int 10 Order : 1</text>
</g>
<!-- node0&#45;&gt;node3 -->
<g id="edge6" class="edge">
<title>node0&#45;&gt;node3</title>
<path fill="none" stroke="black" stroke-dasharray="1,5" d="M465.62,-145.99C480.95,-136.4 501.4,-124.32 519.69,-114.01"/>
<polygon fill="black" stroke="black" points="521.44,-117.04 528.46,-109.11 518.03,-110.93 521.44,-117.04"/>
</g>
<!-- node4 -->
<g id="node5" class="node">
<title>node4</title>
<polygon fill="lightgrey" stroke="black" points="788,-36 555,-36 555,0 788,0 788,-36"/>
<text text-anchor="middle" x="671.5" y="-14.3" font-family="Times,serif" font-size="14.00">#4 ReturnValue : int Order : 3</text>
</g>
<!-- node0&#45;&gt;node4 -->
<g id="edge10" class="edge">
<title>node0&#45;&gt;node4</title>
<path fill="none" stroke="black" d="M522.03,-145.95C586.22,-132.56 666.56,-115.19 671.5,-109 685.45,-91.53 681.1,-65.64 676.03,-46.11"/>
<polygon fill="black" stroke="black" points="679.36,-45 673.34,-36.29 672.61,-46.85 679.36,-45"/>
</g>
<!-- node1&#45;&gt;node0 -->
<g id="edge1" class="edge">
<title>node1&#45;&gt;node0</title>
<path fill="none" stroke="green" stroke-width="2" d="M199.9,-109.05C249.21,-119.52 311.14,-132.95 360.11,-143.79"/>
<polygon fill="green" stroke="green" stroke-width="2" points="359.51,-147.25 370.03,-145.99 361.03,-140.41 359.51,-147.25"/>
</g>
<!-- node2&#45;&gt;node0 -->
<g id="edge3" class="edge">
<title>node2&#45;&gt;node0</title>
<path fill="none" stroke="green" stroke-width="2" d="M373.11,-109.03C386.81,-118.16 402.87,-129.55 416.14,-139.51"/>
<polygon fill="green" stroke="green" stroke-width="2" points="414.34,-142.54 424.41,-145.81 418.58,-136.97 414.34,-142.54"/>
</g>
<!-- node2&#45;&gt;node4 -->
<g id="edge9" class="edge">
<title>node2&#45;&gt;node4</title>
<path fill="none" stroke="red" d="M422.06,-72.99C470.48,-62.51 532.68,-49.05 582.86,-38.19"/>
<polygon fill="red" stroke="red" points="583.69,-41.59 592.72,-36.05 582.21,-34.75 583.69,-41.59"/>
</g>
<!-- node3&#45;&gt;node0 -->
<g id="edge5" class="edge">
<title>node3&#45;&gt;node0</title>
<path fill="none" stroke="green" stroke-width="2" d="M540.21,-109.11C524.84,-118.72 504.38,-130.81 486.1,-141.1"/>
<polygon fill="green" stroke="green" stroke-width="2" points="484.37,-138.06 477.34,-145.99 487.78,-144.18 484.37,-138.06"/>
</g>
<!-- node3&#45;&gt;node4 -->
<g id="edge8" class="edge">
<title>node3&#45;&gt;node4</title>
<path fill="none" stroke="black" d="M589.37,-72.99C603.56,-63.67 621.34,-51.97 636.73,-41.86"/>
<polygon fill="black" stroke="black" points="639.03,-44.53 645.47,-36.11 635.19,-38.68 639.03,-44.53"/>
<text text-anchor="middle" x="634.96" y="-49.43" font-family="Times,serif" font-size="14.00">*0</text>
</g>
<!-- node4&#45;&gt;node0 -->
<g id="edge7" class="edge">
<title>node4&#45;&gt;node0</title>
<path fill="none" stroke="green" stroke-width="2" d="M686.25,-36.29C696.94,-56.07 705.96,-88.39 689.5,-109 684.54,-115.21 603.56,-132.71 535.6,-146.12"/>
<polygon fill="green" stroke="green" stroke-width="2" points="534.82,-142.7 525.68,-148.06 536.17,-149.57 534.82,-142.7"/>
</g>
<!-- c0 -->
<!-- c1 -->
<!-- c0&#45;&gt;c1 -->
<g id="edge11" class="edge">
<title>c0&#45;&gt;c1</title>
<path fill="none" stroke="red" d="M1257.39,-164C1268.61,-164 1326.74,-164 1352.36,-164"/>
<polygon fill="red" stroke="red" points="1352.56,-167.5 1362.56,-164 1352.56,-160.5 1352.56,-167.5"/>
<text text-anchor="middle" x="1310" y="-170.8" font-family="Times,serif" font-size="14.00">Control flow</text>
</g>
<!-- c2 -->
<!-- c3 -->
<!-- c2&#45;&gt;c3 -->
<g id="edge12" class="edge">
<title>c2&#45;&gt;c3</title>
<path fill="none" stroke="red" stroke-dasharray="5,2" d="M1050.58,-164C1067.55,-164 1183.71,-164 1221.58,-164"/>
<polygon fill="red" stroke="red" points="1221.67,-167.5 1231.67,-164 1221.67,-160.5 1221.67,-167.5"/>
<text text-anchor="middle" x="1141" y="-170.8" font-family="Times,serif" font-size="14.00">Control flow back edge</text>
</g>
<!-- d0 -->
<!-- d1 -->
<!-- d0&#45;&gt;d1 -->
<g id="edge13" class="edge">
<title>d0&#45;&gt;d1</title>
<path fill="none" stroke="black" d="M939.36,-164C948.91,-164 992.81,-164 1014.42,-164"/>
<polygon fill="black" stroke="black" points="1014.65,-167.5 1024.65,-164 1014.65,-160.5 1014.65,-167.5"/>
<text text-anchor="middle" x="982" y="-170.8" font-family="Times,serif" font-size="14.00">Data flow</text>
</g>
<!-- d2 -->
<!-- d3 -->
<!-- d2&#45;&gt;d3 -->
<g id="edge14" class="edge">
<title>d2&#45;&gt;d3</title>
<path fill="none" stroke="black" stroke-dasharray="1,5" d="M813.31,-164C823.96,-164 878.96,-164 903.58,-164"/>
<polygon fill="black" stroke="black" points="903.65,-167.5 913.65,-164 903.65,-160.5 903.65,-167.5"/>
<text text-anchor="middle" x="863.5" y="-170.8" font-family="Times,serif" font-size="14.00">Declaration</text>
</g>
<!-- d4 -->
<!-- d5 -->
<!-- d4&#45;&gt;d5 -->
<g id="edge15" class="edge">
<title>d4&#45;&gt;d5</title>
<path fill="none" stroke="blue" d="M670.6,-164C683.22,-164 749.38,-164 777.18,-164"/>
<polygon fill="blue" stroke="blue" points="777.34,-167.5 787.34,-164 777.34,-160.5 777.34,-167.5"/>
<text text-anchor="middle" x="729" y="-170.8" font-family="Times,serif" font-size="14.00">PHI Data flow</text>
</g>
<!-- d6 -->
<!-- d7 -->
<!-- d6&#45;&gt;d7 -->
<g id="edge16" class="edge">
<title>d6&#45;&gt;d7</title>
<path fill="none" stroke="green" d="M547.61,-164C558.65,-164 610.17,-164 634.16,-164"/>
<polygon fill="green" stroke="green" points="634.4,-167.5 644.4,-164 634.4,-160.5 634.4,-167.5"/>
<text text-anchor="middle" x="596" y="-170.8" font-family="Times,serif" font-size="14.00">Dominance</text>
</g>
</g>
</svg>
