<?xml version="1.0" encoding="UTF-8" standalone="no"?>
<!DOCTYPE svg PUBLIC "-//W3C//DTD SVG 1.1//EN"
 "http://www.w3.org/Graphics/SVG/1.1/DTD/svg11.dtd">
<!-- Generated by graphviz version 2.43.0 (0)
 -->
<!-- Title: %3 Pages: 1 -->
<svg width="1021pt" height="295pt"
 viewBox="0.00 0.00 1021.00 294.80" xmlns="http://www.w3.org/2000/svg" xmlns:xlink="http://www.w3.org/1999/xlink">
<g id="graph0" class="graph" transform="scale(1 1) rotate(0) translate(4 290.8)">
<title>%3</title>
<polygon fill="white" stroke="transparent" points="-4,4 -4,-290.8 1017,-290.8 1017,4 -4,4"/>
<g id="clust1" class="cluster">
<title>cluster_0</title>
<polygon fill="none" stroke="lightgray" points="8,-65 8,-190 144,-190 144,-65 8,-65"/>
</g>
<g id="clust2" class="cluster">
<title>cluster_000</title>
<polygon fill="none" stroke="black" points="152,-236.2 152,-278.8 1005,-278.8 1005,-236.2 152,-236.2"/>
<text text-anchor="middle" x="578.5" y="-263.6" font-family="Times,serif" font-size="14.00">Legend</text>
</g>
<!-- node0 -->
<g id="node1" class="node">
<title>node0</title>
<polygon fill="lightgrey" stroke="transparent" points="142.5,-273 9.5,-273 9.5,-219 142.5,-219 142.5,-273"/>
<polygon fill="none" stroke="black" points="10,-246 10,-273 143,-273 143,-246 10,-246"/>
<text text-anchor="start" x="36" y="-255.8" font-family="Times,serif" font-size="14.00">#0 Method</text>
<polygon fill="yellow" stroke="transparent" points="10,-219 10,-246 143,-246 143,-219 10,-219"/>
<polygon fill="none" stroke="black" points="10,-219 10,-246 143,-246 143,-219 10,-219"/>
<text text-anchor="start" x="16" y="-228.8" font-family="Times,serif" font-size="14.00">this : ReturnTest</text>
</g>
<!-- node2 -->
<g id="node2" class="node">
<title>node2</title>
<polygon fill="lightgrey" stroke="black" points="135.5,-182 16.5,-182 16.5,-146 135.5,-146 135.5,-182"/>
<text text-anchor="middle" x="76" y="-160.3" font-family="Times,serif" font-size="14.00">#2 LabelNode</text>
</g>
<!-- node0&#45;&gt;node2 -->
<g id="edge1" class="edge">
<title>node0&#45;&gt;node2</title>
<path fill="none" stroke="red" d="M76,-218.81C76,-210.35 76,-200.95 76,-192.4"/>
<polygon fill="red" stroke="red" points="79.5,-192.17 76,-182.17 72.5,-192.17 79.5,-192.17"/>
</g>
<!-- node4 -->
<g id="node4" class="node">
<title>node4</title>
<polygon fill="lightgrey" stroke="black" points="194,-36 30,-36 30,0 194,0 194,-36"/>
<text text-anchor="middle" x="112" y="-14.3" font-family="Times,serif" font-size="14.00">#4 ReturnValue : int</text>
</g>
<!-- node0&#45;&gt;node4 -->
<g id="edge5" class="edge">
<title>node0&#45;&gt;node4</title>
<path fill="none" stroke="green" d="M123.39,-218.75C133.3,-210.88 142.42,-201.28 148,-190 174.8,-135.81 173.67,-107.75 146,-54 144.18,-50.46 141.88,-47.04 139.33,-43.81"/>
<polygon fill="green" stroke="green" points="141.89,-41.42 132.66,-36.23 136.64,-46.05 141.89,-41.42"/>
</g>
<!-- node3 -->
<g id="node3" class="node">
<title>node3</title>
<polygon fill="lightgreen" stroke="black" points="124.52,-83.54 124.52,-98.46 93.76,-109 50.24,-109 19.48,-98.46 19.48,-83.54 50.24,-73 93.76,-73 124.52,-83.54"/>
<text text-anchor="middle" x="72" y="-87.3" font-family="Times,serif" font-size="14.00">#3 int 1</text>
</g>
<!-- node2&#45;&gt;node3 -->
<g id="edge2" class="edge">
<title>node2&#45;&gt;node3</title>
<path fill="none" stroke="black" stroke-dasharray="1,5" d="M75.03,-145.81C74.58,-137.79 74.03,-128.05 73.53,-119.07"/>
<polygon fill="black" stroke="black" points="77.02,-118.82 72.96,-109.03 70.03,-119.21 77.02,-118.82"/>
</g>
<!-- node2&#45;&gt;node4 -->
<g id="edge4" class="edge">
<title>node2&#45;&gt;node4</title>
<path fill="none" stroke="red" d="M102.74,-145.82C114.69,-136.52 127.52,-123.89 134,-109 142.97,-88.4 135.6,-63.49 127.06,-45.11"/>
<polygon fill="red" stroke="red" points="130.17,-43.51 122.56,-36.14 123.92,-46.65 130.17,-43.51"/>
</g>
<!-- node3&#45;&gt;node4 -->
<g id="edge3" class="edge">
<title>node3&#45;&gt;node4</title>
<path fill="none" stroke="black" d="M81.68,-72.81C86.4,-64.44 92.17,-54.2 97.41,-44.9"/>
<polygon fill="black" stroke="black" points="100.55,-46.46 102.41,-36.03 94.45,-43.02 100.55,-46.46"/>
<text text-anchor="middle" x="100.87" y="-52.27" font-family="Times,serif" font-size="14.00">*0</text>
</g>
<!-- c0 -->
<!-- c1 -->
<!-- c0&#45;&gt;c1 -->
<g id="edge6" class="edge">
<title>c0&#45;&gt;c1</title>
<path fill="none" stroke="red" d="M887.89,-246C899.11,-246 957.24,-246 982.86,-246"/>
<polygon fill="red" stroke="red" points="983.06,-249.5 993.06,-246 983.06,-242.5 983.06,-249.5"/>
<text text-anchor="middle" x="940.5" y="-252.8" font-family="Times,serif" font-size="14.00">Control flow</text>
</g>
<!-- c2 -->
<!-- c3 -->
<!-- c2&#45;&gt;c3 -->
<g id="edge7" class="edge">
<title>c2&#45;&gt;c3</title>
<path fill="none" stroke="red" stroke-dasharray="5,2" d="M681.08,-246C698.05,-246 814.21,-246 852.08,-246"/>
<polygon fill="red" stroke="red" points="852.17,-249.5 862.17,-246 852.17,-242.5 852.17,-249.5"/>
<text text-anchor="middle" x="771.5" y="-252.8" font-family="Times,serif" font-size="14.00">Control flow back edge</text>
</g>
<!-- d0 -->
<!-- d1 -->
<!-- d0&#45;&gt;d1 -->
<g id="edge8" class="edge">
<title>d0&#45;&gt;d1</title>
<path fill="none" stroke="black" d="M569.86,-246C579.41,-246 623.31,-246 644.92,-246"/>
<polygon fill="black" stroke="black" points="645.15,-249.5 655.15,-246 645.15,-242.5 645.15,-249.5"/>
<text text-anchor="middle" x="612.5" y="-252.8" font-family="Times,serif" font-size="14.00">Data flow</text>
</g>
<!-- d2 -->
<!-- d3 -->
<!-- d2&#45;&gt;d3 -->
<g id="edge9" class="edge">
<title>d2&#45;&gt;d3</title>
<path fill="none" stroke="black" stroke-dasharray="1,5" d="M443.81,-246C454.46,-246 509.46,-246 534.08,-246"/>
<polygon fill="black" stroke="black" points="534.15,-249.5 544.15,-246 534.15,-242.5 534.15,-249.5"/>
<text text-anchor="middle" x="494" y="-252.8" font-family="Times,serif" font-size="14.00">Declaration</text>
</g>
<!-- d4 -->
<!-- d5 -->
<!-- d4&#45;&gt;d5 -->
<g id="edge10" class="edge">
<title>d4&#45;&gt;d5</title>
<path fill="none" stroke="blue" d="M301.1,-246C313.72,-246 379.88,-246 407.68,-246"/>
<polygon fill="blue" stroke="blue" points="407.84,-249.5 417.84,-246 407.84,-242.5 407.84,-249.5"/>
<text text-anchor="middle" x="359.5" y="-252.8" font-family="Times,serif" font-size="14.00">PHI Data flow</text>
</g>
<!-- d6 -->
<!-- d7 -->
<!-- d6&#45;&gt;d7 -->
<g id="edge11" class="edge">
<title>d6&#45;&gt;d7</title>
<path fill="none" stroke="green" d="M164,-246C175.94,-246 238.3,-246 264.93,-246"/>
<polygon fill="green" stroke="green" points="264.95,-249.5 274.95,-246 264.95,-242.5 264.95,-249.5"/>
<text text-anchor="middle" x="219.5" y="-252.8" font-family="Times,serif" font-size="14.00">Memory flow</text>
</g>
</g>
</svg>
