<?xml version="1.0" encoding="UTF-8" standalone="no"?>
<!DOCTYPE svg PUBLIC "-//W3C//DTD SVG 1.1//EN"
 "http://www.w3.org/Graphics/SVG/1.1/DTD/svg11.dtd">
<!-- Generated by graphviz version 2.43.0 (0)
 -->
<!-- Title: debugoutput Pages: 1 -->
<svg width="1388pt" height="213pt"
 viewBox="0.00 0.00 1387.50 212.80" xmlns="http://www.w3.org/2000/svg" xmlns:xlink="http://www.w3.org/1999/xlink">
<g id="graph0" class="graph" transform="scale(1 1) rotate(0) translate(4 208.8)">
<title>debugoutput</title>
<polygon fill="white" stroke="transparent" points="-4,4 -4,-208.8 1383.5,-208.8 1383.5,4 -4,4"/>
<g id="clust1" class="cluster">
<title>cluster_000</title>
<polygon fill="none" stroke="black" points="532.5,-154.2 532.5,-196.8 1371.5,-196.8 1371.5,-154.2 532.5,-154.2"/>
<text text-anchor="middle" x="952" y="-181.6" font-family="Times,serif" font-size="14.00">Legend</text>
</g>
<!-- node0 -->
<g id="node1" class="node">
<title>node0</title>
<polygon fill="lightgrey" stroke="black" points="522.5,-182 356.5,-182 356.5,-146 522.5,-146 522.5,-182"/>
<text text-anchor="middle" x="439.5" y="-160.3" font-family="Times,serif" font-size="14.00">#0 Method Order : 0</text>
</g>
<!-- node1 -->
<g id="node2" class="node">
<title>node1</title>
<polygon fill="lightgrey" stroke="black" points="231,-109 0,-109 0,-73 231,-73 231,-109"/>
<text text-anchor="middle" x="115.5" y="-87.3" font-family="Times,serif" font-size="14.00">#1 this : ReturnTest Order : 4</text>
</g>
<!-- node0&#45;&gt;node1 -->
<g id="edge2" class="edge">
<title>node0&#45;&gt;node1</title>
<path fill="none" stroke="black" d="M356.46,-146.08C307.53,-135.61 245.93,-122.13 197.24,-111.24"/>
<polygon fill="black" stroke="black" points="197.89,-107.8 187.36,-109.03 196.36,-114.63 197.89,-107.8"/>
<text text-anchor="middle" x="206.9" y="-101.04" font-family="Times,serif" font-size="14.00">*0</text>
</g>
<!-- node2 -->
<g id="node3" class="node">
<title>node2</title>
<polygon fill="lightgrey" stroke="black" points="437.5,-109 249.5,-109 249.5,-73 437.5,-73 437.5,-109"/>
<text text-anchor="middle" x="343.5" y="-87.3" font-family="Times,serif" font-size="14.00">#2 LabelNode Order : 2</text>
</g>
<!-- node0&#45;&gt;node2 -->
<g id="edge4" class="edge">
<title>node0&#45;&gt;node2</title>
<path fill="none" stroke="red" d="M410.65,-145.99C397.3,-136.84 381.67,-125.41 368.79,-115.43"/>
<polygon fill="red" stroke="red" points="370.79,-112.55 360.77,-109.11 366.46,-118.05 370.79,-112.55"/>
</g>
<!-- node3 -->
<g id="node4" class="node">
<title>node3</title>
<polygon fill="lightgreen" stroke="black" points="657.61,-83.54 657.61,-98.46 598.38,-109 514.62,-109 455.39,-98.46 455.39,-83.54 514.62,-73 598.38,-73 657.61,-83.54"/>
<text text-anchor="middle" x="556.5" y="-87.3" font-family="Times,serif" font-size="14.00">#3 int 1 Order : 1</text>
</g>
<!-- node0&#45;&gt;node3 -->
<g id="edge6" class="edge">
<title>node0&#45;&gt;node3</title>
<path fill="none" stroke="black" stroke-dasharray="1,5" d="M461.67,-145.99C476.32,-136.49 495.86,-124.54 513.45,-114.29"/>
<polygon fill="black" stroke="black" points="515.51,-117.14 522.43,-109.11 512.02,-111.08 515.51,-117.14"/>
</g>
<!-- node4 -->
<g id="node5" class="node">
<title>node4</title>
<polygon fill="lightgrey" stroke="black" points="776,-36 543,-36 543,0 776,0 776,-36"/>
<text text-anchor="middle" x="659.5" y="-14.3" font-family="Times,serif" font-size="14.00">#4 ReturnValue : int Order : 3</text>
</g>
<!-- node0&#45;&gt;node4 -->
<g id="edge10" class="edge">
<title>node0&#45;&gt;node4</title>
<path fill="none" stroke="black" d="M514.42,-145.96C575.67,-132.48 652.79,-114.96 657.5,-109 671.34,-91.49 667.61,-65.61 663.13,-46.09"/>
<polygon fill="black" stroke="black" points="666.51,-45.16 660.74,-36.27 659.71,-46.81 666.51,-45.16"/>
</g>
<!-- node1&#45;&gt;node0 -->
<g id="edge1" class="edge">
<title>node1&#45;&gt;node0</title>
<path fill="none" stroke="green" stroke-width="2" d="M199.18,-109.05C248.05,-119.52 309.41,-132.95 357.92,-143.79"/>
<polygon fill="green" stroke="green" stroke-width="2" points="357.23,-147.22 367.75,-145.99 358.76,-140.39 357.23,-147.22"/>
</g>
<!-- node2&#45;&gt;node0 -->
<g id="edge3" class="edge">
<title>node2&#45;&gt;node0</title>
<path fill="none" stroke="green" stroke-width="2" d="M372.39,-109.03C385.7,-118.16 401.28,-129.55 414.14,-139.51"/>
<polygon fill="green" stroke="green" stroke-width="2" points="412.12,-142.38 422.14,-145.81 416.45,-136.88 412.12,-142.38"/>
</g>
<!-- node2&#45;&gt;node4 -->
<g id="edge9" class="edge">
<title>node2&#45;&gt;node4</title>
<path fill="none" stroke="red" d="M419.19,-72.99C465.74,-62.53 525.51,-49.11 573.8,-38.26"/>
<polygon fill="red" stroke="red" points="574.62,-41.66 583.61,-36.05 573.08,-34.83 574.62,-41.66"/>
</g>
<!-- node3&#45;&gt;node0 -->
<g id="edge5" class="edge">
<title>node3&#45;&gt;node0</title>
<path fill="none" stroke="green" stroke-width="2" d="M534.17,-109.11C519.48,-118.63 499.92,-130.59 482.35,-140.82"/>
<polygon fill="green" stroke="green" stroke-width="2" points="480.3,-137.97 473.38,-145.99 483.8,-144.03 480.3,-137.97"/>
</g>
<!-- node3&#45;&gt;node4 -->
<g id="edge8" class="edge">
<title>node3&#45;&gt;node4</title>
<path fill="none" stroke="black" d="M581.17,-72.99C594.7,-63.67 611.66,-51.97 626.34,-41.86"/>
<polygon fill="black" stroke="black" points="628.43,-44.67 634.67,-36.11 624.45,-38.91 628.43,-44.67"/>
<text text-anchor="middle" x="624.55" y="-49.66" font-family="Times,serif" font-size="14.00">*0</text>
</g>
<!-- node4&#45;&gt;node0 -->
<g id="edge7" class="edge">
<title>node4&#45;&gt;node0</title>
<path fill="none" stroke="green" stroke-width="2" d="M673.66,-36.27C683.71,-56.04 691.82,-88.34 675.5,-109 670.89,-114.84 596.83,-131.75 532.84,-145.11"/>
<polygon fill="green" stroke="green" stroke-width="2" points="531.75,-141.77 522.67,-147.23 533.17,-148.62 531.75,-141.77"/>
</g>
<!-- c0 -->
<!-- c1 -->
<!-- c0&#45;&gt;c1 -->
<g id="edge11" class="edge">
<title>c0&#45;&gt;c1</title>
<path fill="none" stroke="red" d="M1254.39,-164C1265.61,-164 1323.74,-164 1349.36,-164"/>
<polygon fill="red" stroke="red" points="1349.56,-167.5 1359.56,-164 1349.56,-160.5 1349.56,-167.5"/>
<text text-anchor="middle" x="1307" y="-170.8" font-family="Times,serif" font-size="14.00">Control flow</text>
</g>
<!-- c2 -->
<!-- c3 -->
<!-- c2&#45;&gt;c3 -->
<g id="edge12" class="edge">
<title>c2&#45;&gt;c3</title>
<path fill="none" stroke="red" stroke-dasharray="5,2" d="M1047.58,-164C1064.55,-164 1180.71,-164 1218.58,-164"/>
<polygon fill="red" stroke="red" points="1218.67,-167.5 1228.67,-164 1218.67,-160.5 1218.67,-167.5"/>
<text text-anchor="middle" x="1138" y="-170.8" font-family="Times,serif" font-size="14.00">Control flow back edge</text>
</g>
<!-- d0 -->
<!-- d1 -->
<!-- d0&#45;&gt;d1 -->
<g id="edge13" class="edge">
<title>d0&#45;&gt;d1</title>
<path fill="none" stroke="black" d="M936.36,-164C945.91,-164 989.81,-164 1011.42,-164"/>
<polygon fill="black" stroke="black" points="1011.65,-167.5 1021.65,-164 1011.65,-160.5 1011.65,-167.5"/>
<text text-anchor="middle" x="979" y="-170.8" font-family="Times,serif" font-size="14.00">Data flow</text>
</g>
<!-- d2 -->
<!-- d3 -->
<!-- d2&#45;&gt;d3 -->
<g id="edge14" class="edge">
<title>d2&#45;&gt;d3</title>
<path fill="none" stroke="black" stroke-dasharray="1,5" d="M810.31,-164C820.96,-164 875.96,-164 900.58,-164"/>
<polygon fill="black" stroke="black" points="900.65,-167.5 910.65,-164 900.65,-160.5 900.65,-167.5"/>
<text text-anchor="middle" x="860.5" y="-170.8" font-family="Times,serif" font-size="14.00">Declaration</text>
</g>
<!-- d4 -->
<!-- d5 -->
<!-- d4&#45;&gt;d5 -->
<g id="edge15" class="edge">
<title>d4&#45;&gt;d5</title>
<path fill="none" stroke="blue" d="M667.6,-164C680.22,-164 746.38,-164 774.18,-164"/>
<polygon fill="blue" stroke="blue" points="774.34,-167.5 784.34,-164 774.34,-160.5 774.34,-167.5"/>
<text text-anchor="middle" x="726" y="-170.8" font-family="Times,serif" font-size="14.00">PHI Data flow</text>
</g>
<!-- d6 -->
<!-- d7 -->
<!-- d6&#45;&gt;d7 -->
<g id="edge16" class="edge">
<title>d6&#45;&gt;d7</title>
<path fill="none" stroke="green" d="M544.61,-164C555.65,-164 607.17,-164 631.16,-164"/>
<polygon fill="green" stroke="green" points="631.4,-167.5 641.4,-164 631.4,-160.5 631.4,-167.5"/>
<text text-anchor="middle" x="593" y="-170.8" font-family="Times,serif" font-size="14.00">Dominance</text>
</g>
</g>
</svg>
