<?xml version="1.0" encoding="UTF-8" standalone="no"?>
<!DOCTYPE svg PUBLIC "-//W3C//DTD SVG 1.1//EN"
 "http://www.w3.org/Graphics/SVG/1.1/DTD/svg11.dtd">
<!-- Generated by graphviz version 2.43.0 (0)
 -->
<!-- Title: %3 Pages: 1 -->
<svg width="1228pt" height="432pt"
 viewBox="0.00 0.00 1227.50 431.80" xmlns="http://www.w3.org/2000/svg" xmlns:xlink="http://www.w3.org/1999/xlink">
<g id="graph0" class="graph" transform="scale(1 1) rotate(0) translate(4 427.8)">
<title>%3</title>
<polygon fill="white" stroke="transparent" points="-4,4 -4,-427.8 1223.5,-427.8 1223.5,4 -4,4"/>
<g id="clust1" class="cluster">
<title>cluster_000</title>
<polygon fill="none" stroke="black" points="875.5,-373.2 875.5,-415.8 1211.5,-415.8 1211.5,-373.2 875.5,-373.2"/>
<text text-anchor="middle" x="1043.5" y="-400.6" font-family="Times,serif" font-size="14.00">Legend</text>
</g>
<!-- node0 -->
<g id="node1" class="node">
<title>node0</title>
<polygon fill="lightgrey" stroke="black" points="848,-401 55,-401 55,-365 848,-365 848,-401"/>
<text text-anchor="middle" x="451.5" y="-379.3" font-family="Times,serif" font-size="14.00">#0 LocalVariable[name=this, slot=0, type=Lde/mirkosertic/metair/ir/examples/MethodInvokeTest;] Order: 0</text>
</g>
<!-- node0&#45;&gt;node0 -->
<g id="edge1" class="edge">
<title>node0&#45;&gt;node0</title>
<path fill="none" stroke="fuchsia" d="M848.23,-386.49C859.59,-385.53 866,-384.37 866,-383 866,-382.12 863.37,-381.33 858.49,-380.62"/>
<polygon fill="fuchsia" stroke="fuchsia" points="858.54,-377.11 848.23,-379.51 857.79,-384.07 858.54,-377.11"/>
</g>
<!-- node1 -->
<g id="node2" class="node">
<title>node1</title>
<polygon fill="lightgrey" stroke="black" points="686.5,-328 216.5,-328 216.5,-292 686.5,-292 686.5,-328"/>
<text text-anchor="middle" x="451.5" y="-306.3" font-family="Times,serif" font-size="14.00">#1 Label[context=CodeModel[id=980533504], bci=0] Order: 1</text>
</g>
<!-- node0&#45;&gt;node1 -->
<g id="edge2" class="edge">
<title>node0&#45;&gt;node1</title>
<path fill="none" stroke="red" d="M445.62,-364.81C444.78,-356.79 444.55,-347.05 444.92,-338.07"/>
<polygon fill="red" stroke="red" points="448.42,-338.25 445.64,-328.03 441.44,-337.75 448.42,-338.25"/>
</g>
<!-- node1&#45;&gt;node0 -->
<g id="edge3" class="edge">
<title>node1&#45;&gt;node0</title>
<path fill="none" stroke="fuchsia" d="M457.36,-328.03C458.21,-336.03 458.45,-345.77 458.09,-354.75"/>
<polygon fill="fuchsia" stroke="fuchsia" points="454.59,-354.59 457.38,-364.81 461.57,-355.08 454.59,-354.59"/>
</g>
<!-- node2 -->
<g id="node3" class="node">
<title>node2</title>
<polygon fill="lightgrey" stroke="black" points="587.5,-255 315.5,-255 315.5,-219 587.5,-219 587.5,-255"/>
<text text-anchor="middle" x="451.5" y="-233.3" font-family="Times,serif" font-size="14.00">#2 LineNumber[line=115] Order: 2</text>
</g>
<!-- node1&#45;&gt;node2 -->
<g id="edge4" class="edge">
<title>node1&#45;&gt;node2</title>
<path fill="none" stroke="red" d="M445.62,-291.81C444.78,-283.79 444.55,-274.05 444.92,-265.07"/>
<polygon fill="red" stroke="red" points="448.42,-265.25 445.64,-255.03 441.44,-264.75 448.42,-265.25"/>
</g>
<!-- node2&#45;&gt;node1 -->
<g id="edge5" class="edge">
<title>node2&#45;&gt;node1</title>
<path fill="none" stroke="fuchsia" d="M457.36,-255.03C458.21,-263.03 458.45,-272.77 458.09,-281.75"/>
<polygon fill="fuchsia" stroke="fuchsia" points="454.59,-281.59 457.38,-291.81 461.57,-282.08 454.59,-281.59"/>
</g>
<!-- node3 -->
<g id="node4" class="node">
<title>node3</title>
<polygon fill="lightgrey" stroke="black" points="695.5,-182 207.5,-182 207.5,-146 695.5,-146 695.5,-182"/>
<text text-anchor="middle" x="451.5" y="-160.3" font-family="Times,serif" font-size="14.00">#3 UnboundIntrinsicConstantInstruction[op=ICONST_1] Order: 3</text>
</g>
<!-- node2&#45;&gt;node3 -->
<g id="edge6" class="edge">
<title>node2&#45;&gt;node3</title>
<path fill="none" stroke="red" d="M445.62,-218.81C444.78,-210.79 444.55,-201.05 444.92,-192.07"/>
<polygon fill="red" stroke="red" points="448.42,-192.25 445.64,-182.03 441.44,-191.75 448.42,-192.25"/>
</g>
<!-- node3&#45;&gt;node2 -->
<g id="edge7" class="edge">
<title>node3&#45;&gt;node2</title>
<path fill="none" stroke="fuchsia" d="M457.36,-182.03C458.21,-190.03 458.45,-199.77 458.09,-208.75"/>
<polygon fill="fuchsia" stroke="fuchsia" points="454.59,-208.59 457.38,-218.81 461.57,-209.08 454.59,-208.59"/>
</g>
<!-- node4 -->
<g id="node5" class="node">
<title>node4</title>
<polygon fill="lightgrey" stroke="black" points="903,-109 0,-109 0,-73 903,-73 903,-109"/>
<text text-anchor="middle" x="451.5" y="-87.3" font-family="Times,serif" font-size="14.00">#4 Invoke[OP=INVOKESTATIC, m=de/mirkosertic/metair/ir/examples/MethodInvokeTest.staticReturnBoolean(Z)Z] Order: 4</text>
</g>
<!-- node3&#45;&gt;node4 -->
<g id="edge8" class="edge">
<title>node3&#45;&gt;node4</title>
<path fill="none" stroke="red" d="M445.62,-145.81C444.78,-137.79 444.55,-128.05 444.92,-119.07"/>
<polygon fill="red" stroke="red" points="448.42,-119.25 445.64,-109.03 441.44,-118.75 448.42,-119.25"/>
</g>
<!-- node4&#45;&gt;node3 -->
<g id="edge9" class="edge">
<title>node4&#45;&gt;node3</title>
<path fill="none" stroke="fuchsia" d="M457.36,-109.03C458.21,-117.03 458.45,-126.77 458.09,-135.75"/>
<polygon fill="fuchsia" stroke="fuchsia" points="454.59,-135.59 457.38,-145.81 461.57,-136.08 454.59,-135.59"/>
</g>
<!-- node5 -->
<g id="node6" class="node">
<title>node5</title>
<polygon fill="lightgrey" stroke="black" points="586,-36 317,-36 317,0 586,0 586,-36"/>
<text text-anchor="middle" x="451.5" y="-14.3" font-family="Times,serif" font-size="14.00">#5 Return[OP=IRETURN] Order: 5</text>
</g>
<!-- node4&#45;&gt;node5 -->
<g id="edge10" class="edge">
<title>node4&#45;&gt;node5</title>
<path fill="none" stroke="red" d="M445.62,-72.81C444.78,-64.79 444.55,-55.05 444.92,-46.07"/>
<polygon fill="red" stroke="red" points="448.42,-46.25 445.64,-36.03 441.44,-45.75 448.42,-46.25"/>
</g>
<!-- node5&#45;&gt;node4 -->
<g id="edge11" class="edge">
<title>node5&#45;&gt;node4</title>
<path fill="none" stroke="fuchsia" d="M457.36,-36.03C458.21,-44.03 458.45,-53.77 458.09,-62.75"/>
<polygon fill="fuchsia" stroke="fuchsia" points="454.59,-62.59 457.38,-72.81 461.57,-63.08 454.59,-62.59"/>
</g>
<!-- c0 -->
<!-- c1 -->
<!-- c0&#45;&gt;c1 -->
<g id="edge12" class="edge">
<title>c0&#45;&gt;c1</title>
<path fill="none" stroke="red" d="M1094.39,-383C1105.61,-383 1163.74,-383 1189.36,-383"/>
<polygon fill="red" stroke="red" points="1189.56,-386.5 1199.56,-383 1189.56,-379.5 1189.56,-386.5"/>
<text text-anchor="middle" x="1147" y="-389.8" font-family="Times,serif" font-size="14.00">Control flow</text>
</g>
<!-- c2 -->
<!-- c3 -->
<!-- c2&#45;&gt;c3 -->
<g id="edge13" class="edge">
<title>c2&#45;&gt;c3</title>
<path fill="none" stroke="red" stroke-dasharray="5,2" d="M887.58,-383C904.55,-383 1020.71,-383 1058.58,-383"/>
<polygon fill="red" stroke="red" points="1058.67,-386.5 1068.67,-383 1058.67,-379.5 1058.67,-386.5"/>
<text text-anchor="middle" x="978" y="-389.8" font-family="Times,serif" font-size="14.00">Control flow back edge</text>
</g>
</g>
</svg>
