<?xml version="1.0" encoding="UTF-8" standalone="no"?>
<!DOCTYPE svg PUBLIC "-//W3C//DTD SVG 1.1//EN"
 "http://www.w3.org/Graphics/SVG/1.1/DTD/svg11.dtd">
<!-- Generated by graphviz version 2.43.0 (0)
 -->
<!-- Title: debugoutput Pages: 1 -->
<svg width="1471pt" height="432pt"
 viewBox="0.00 0.00 1471.00 431.80" xmlns="http://www.w3.org/2000/svg" xmlns:xlink="http://www.w3.org/1999/xlink">
<g id="graph0" class="graph" transform="scale(1 1) rotate(0) translate(4 427.8)">
<title>debugoutput</title>
<polygon fill="white" stroke="transparent" points="-4,4 -4,-427.8 1467,-427.8 1467,4 -4,4"/>
<g id="clust1" class="cluster">
<title>cluster_000</title>
<polygon fill="none" stroke="black" points="479,-373.2 479,-415.8 1455,-415.8 1455,-373.2 479,-373.2"/>
<text text-anchor="middle" x="967" y="-400.6" font-family="Times,serif" font-size="14.00">Legend</text>
</g>
<!-- node0 -->
<g id="node1" class="node">
<title>node0</title>
<polygon fill="lightgrey" stroke="black" points="469,-401 303,-401 303,-365 469,-365 469,-401"/>
<text text-anchor="middle" x="386" y="-379.3" font-family="Times,serif" font-size="14.00">#0 Method Order : 0</text>
</g>
<!-- node1 -->
<g id="node2" class="node">
<title>node1</title>
<polygon fill="lightgrey" stroke="black" points="284,-328 0,-328 0,-292 284,-292 284,-328"/>
<text text-anchor="middle" x="142" y="-306.3" font-family="Times,serif" font-size="14.00">#1 this : MethodInvokeTest Order : 4</text>
</g>
<!-- node0&#45;&gt;node1 -->
<g id="edge2" class="edge">
<title>node0&#45;&gt;node1</title>
<path fill="none" stroke="black" d="M321.7,-364.99C285.56,-354.79 240.7,-341.77 204.81,-331.07"/>
<polygon fill="black" stroke="black" points="205.53,-327.63 194.94,-328.11 203.52,-334.33 205.53,-327.63"/>
<text text-anchor="middle" x="214.73" y="-321.51" font-family="Times,serif" font-size="14.00">*0</text>
</g>
<!-- node2 -->
<g id="node3" class="node">
<title>node2</title>
<polygon fill="lightgrey" stroke="black" points="546,-328 358,-328 358,-292 546,-292 546,-328"/>
<text text-anchor="middle" x="452" y="-306.3" font-family="Times,serif" font-size="14.00">#2 LabelNode Order : 1</text>
</g>
<!-- node0&#45;&gt;node2 -->
<g id="edge4" class="edge">
<title>node0&#45;&gt;node2</title>
<path fill="none" stroke="red" d="M396.1,-364.81C403.44,-355.92 413.48,-344.91 423.1,-335.17"/>
<polygon fill="red" stroke="red" points="425.67,-337.55 430.31,-328.03 420.74,-332.58 425.67,-337.55"/>
</g>
<!-- node5 -->
<g id="node6" class="node">
<title>node5</title>
<polygon fill="lightgrey" stroke="black" points="539,-182 365,-182 365,-146 539,-146 539,-182"/>
<text text-anchor="middle" x="452" y="-160.3" font-family="Times,serif" font-size="14.00">#5 ClassInit Order : 5</text>
</g>
<!-- node0&#45;&gt;node5 -->
<g id="edge11" class="edge">
<title>node0&#45;&gt;node5</title>
<path fill="none" stroke="green" d="M364.09,-364.78C344.03,-345.64 313.77,-314.47 284,-292 257.78,-272.21 236.42,-283.46 220,-255 212,-241.14 212.63,-233.2 220,-219 232.73,-194.48 297.15,-180.67 354.93,-173.18"/>
<polygon fill="green" stroke="green" points="355.39,-176.65 364.88,-171.94 354.52,-169.7 355.39,-176.65"/>
</g>
<!-- node1&#45;&gt;node0 -->
<g id="edge1" class="edge">
<title>node1&#45;&gt;node0</title>
<path fill="none" stroke="fuchsia" stroke-width="2" d="M206.68,-328.11C242.88,-338.33 287.74,-351.36 323.56,-362.05"/>
<polygon fill="fuchsia" stroke="fuchsia" stroke-width="2" points="322.83,-365.48 333.42,-364.99 324.84,-358.77 322.83,-365.48"/>
</g>
<!-- node2&#45;&gt;node0 -->
<g id="edge3" class="edge">
<title>node2&#45;&gt;node0</title>
<path fill="none" stroke="fuchsia" stroke-width="2" d="M442.03,-328.03C434.73,-336.9 424.69,-347.9 415.08,-357.65"/>
<polygon fill="fuchsia" stroke="fuchsia" stroke-width="2" points="412.49,-355.29 407.85,-364.81 417.42,-360.26 412.49,-355.29"/>
</g>
<!-- node3 -->
<g id="node4" class="node">
<title>node3</title>
<polygon fill="lightgreen" stroke="black" points="874.11,-229.54 874.11,-244.46 814.88,-255 731.12,-255 671.89,-244.46 671.89,-229.54 731.12,-219 814.88,-219 874.11,-229.54"/>
<text text-anchor="middle" x="773" y="-233.3" font-family="Times,serif" font-size="14.00">#3 int 1 Order : 3</text>
</g>
<!-- node2&#45;&gt;node3 -->
<g id="edge6" class="edge">
<title>node2&#45;&gt;node3</title>
<path fill="none" stroke="black" stroke-dasharray="1,5" d="M523.03,-291.99C575.18,-280.18 645.8,-264.58 698.7,-253.18"/>
<polygon fill="black" stroke="black" points="699.66,-256.56 708.7,-251.04 698.19,-249.71 699.66,-256.56"/>
</g>
<!-- node4 -->
<g id="node5" class="node">
<title>node4</title>
<polygon fill="lightgreen" stroke="black" points="653.4,-229.54 653.4,-244.46 535.42,-255 368.58,-255 250.6,-244.46 250.6,-229.54 368.58,-219 535.42,-219 653.4,-229.54"/>
<text text-anchor="middle" x="452" y="-233.3" font-family="Times,serif" font-size="14.00">#4 Class MethodInvokeTest Order : 2</text>
</g>
<!-- node2&#45;&gt;node4 -->
<g id="edge8" class="edge">
<title>node2&#45;&gt;node4</title>
<path fill="none" stroke="black" stroke-dasharray="1,5" d="M446.12,-291.81C445.28,-283.79 445.05,-274.05 445.42,-265.07"/>
<polygon fill="black" stroke="black" points="448.92,-265.25 446.14,-255.03 441.94,-264.75 448.92,-265.25"/>
</g>
<!-- node2&#45;&gt;node5 -->
<g id="edge12" class="edge">
<title>node2&#45;&gt;node5</title>
<path fill="none" stroke="red" d="M365.52,-291.95C311.24,-280.37 250.02,-265.34 242,-255 205.55,-208 283.85,-185.18 354.98,-174.34"/>
<polygon fill="red" stroke="red" points="355.56,-177.79 364.95,-172.89 354.55,-170.86 355.56,-177.79"/>
</g>
<!-- node3&#45;&gt;node2 -->
<g id="edge5" class="edge">
<title>node3&#45;&gt;node2</title>
<path fill="none" stroke="fuchsia" stroke-width="2" d="M714.67,-252.12C667.28,-262.92 599.63,-277.93 544.82,-289.81"/>
<polygon fill="fuchsia" stroke="fuchsia" stroke-width="2" points="543.78,-286.46 534.75,-291.99 545.26,-293.3 543.78,-286.46"/>
</g>
<!-- node6 -->
<g id="node7" class="node">
<title>node6</title>
<polygon fill="lightgrey" stroke="black" points="805,-109 317,-109 317,-73 805,-73 805,-109"/>
<text text-anchor="middle" x="561" y="-87.3" font-family="Times,serif" font-size="14.00">#6 Invoke static staticReturnBoolean : (boolean)boolean Order : 6</text>
</g>
<!-- node3&#45;&gt;node6 -->
<g id="edge15" class="edge">
<title>node3&#45;&gt;node6</title>
<path fill="none" stroke="black" d="M747.85,-218.92C709.68,-192.99 637.07,-143.67 594.47,-114.74"/>
<polygon fill="black" stroke="black" points="596.36,-111.79 586.12,-109.06 592.42,-117.58 596.36,-111.79"/>
<text text-anchor="middle" x="605.86" y="-108.55" font-family="Times,serif" font-size="14.00">*1</text>
</g>
<!-- node4&#45;&gt;node2 -->
<g id="edge7" class="edge">
<title>node4&#45;&gt;node2</title>
<path fill="none" stroke="fuchsia" stroke-width="2" d="M457.86,-255.03C458.71,-263.03 458.95,-272.77 458.59,-281.75"/>
<polygon fill="fuchsia" stroke="fuchsia" stroke-width="2" points="455.09,-281.59 457.88,-291.81 462.07,-282.08 455.09,-281.59"/>
</g>
<!-- node4&#45;&gt;node5 -->
<g id="edge10" class="edge">
<title>node4&#45;&gt;node5</title>
<path fill="none" stroke="black" d="M452,-218.81C452,-210.79 452,-201.05 452,-192.07"/>
<polygon fill="black" stroke="black" points="455.5,-192.03 452,-182.03 448.5,-192.03 455.5,-192.03"/>
<text text-anchor="middle" x="460.45" y="-196.45" font-family="Times,serif" font-size="14.00">*0</text>
</g>
<!-- node5&#45;&gt;node0 -->
<g id="edge9" class="edge">
<title>node5&#45;&gt;node0</title>
<path fill="none" stroke="fuchsia" stroke-width="2" d="M364.72,-173.92C311.04,-181.58 250.32,-195.27 238,-219 230.63,-233.2 230,-241.14 238,-255 254.42,-283.46 275.78,-272.21 302,-292 327.93,-311.57 354.24,-337.75 370.6,-356.83"/>
<polygon fill="fuchsia" stroke="fuchsia" stroke-width="2" points="368.11,-359.3 377.18,-364.78 373.51,-354.84 368.11,-359.3"/>
</g>
<!-- node5&#45;&gt;node6 -->
<g id="edge14" class="edge">
<title>node5&#45;&gt;node6</title>
<path fill="none" stroke="black" d="M466.63,-145.81C479.23,-136.31 497.24,-124.39 514.32,-114.19"/>
<polygon fill="black" stroke="black" points="516.27,-117.1 523.13,-109.03 512.74,-111.06 516.27,-117.1"/>
<text text-anchor="middle" x="511.76" y="-121.78" font-family="Times,serif" font-size="14.00">*0</text>
</g>
<!-- node5&#45;&gt;node6 -->
<g id="edge16" class="edge">
<title>node5&#45;&gt;node6</title>
<path fill="none" stroke="green" d="M478.11,-145.99C492.56,-136.58 510.71,-124.76 526.34,-114.57"/>
<polygon fill="green" stroke="green" points="528.26,-117.5 534.73,-109.11 524.44,-111.64 528.26,-117.5"/>
</g>
<!-- node5&#45;&gt;node6 -->
<g id="edge17" class="edge">
<title>node5&#45;&gt;node6</title>
<path fill="none" stroke="red" d="M489.83,-145.99C505.97,-136.75 524.06,-125.19 538.22,-115.14"/>
<polygon fill="red" stroke="red" points="540.46,-117.84 546.47,-109.11 536.33,-112.19 540.46,-117.84"/>
</g>
<!-- node6&#45;&gt;node0 -->
<g id="edge13" class="edge">
<title>node6&#45;&gt;node0</title>
<path fill="none" stroke="fuchsia" stroke-width="2" d="M805.2,-108.52C859.85,-118.93 902,-135.79 902,-163 902,-311 902,-311 902,-311 902,-356.49 558.41,-357.52 479.35,-364.75"/>
<polygon fill="fuchsia" stroke="fuchsia" stroke-width="2" points="478.88,-361.28 469.35,-365.91 479.69,-368.23 478.88,-361.28"/>
</g>
<!-- node7 -->
<g id="node8" class="node">
<title>node7</title>
<polygon fill="lightgrey" stroke="black" points="677.5,-36 444.5,-36 444.5,0 677.5,0 677.5,-36"/>
<text text-anchor="middle" x="561" y="-14.3" font-family="Times,serif" font-size="14.00">#7 ReturnValue : int Order : 7</text>
</g>
<!-- node6&#45;&gt;node7 -->
<g id="edge19" class="edge">
<title>node6&#45;&gt;node7</title>
<path fill="none" stroke="black" d="M543.37,-72.81C540.85,-64.79 540.15,-55.05 541.27,-46.07"/>
<polygon fill="black" stroke="black" points="544.74,-46.54 543.42,-36.03 537.9,-45.07 544.74,-46.54"/>
<text text-anchor="middle" x="547.89" y="-51.82" font-family="Times,serif" font-size="14.00">*0</text>
</g>
<!-- node6&#45;&gt;node7 -->
<g id="edge20" class="edge">
<title>node6&#45;&gt;node7</title>
<path fill="none" stroke="red" d="M566.88,-72.81C567.72,-64.79 567.95,-55.05 567.58,-46.07"/>
<polygon fill="red" stroke="red" points="571.06,-45.75 566.86,-36.03 564.08,-46.25 571.06,-45.75"/>
</g>
<!-- node6&#45;&gt;node7 -->
<g id="edge21" class="edge">
<title>node6&#45;&gt;node7</title>
<path fill="none" stroke="green" d="M578.63,-72.81C581.15,-64.79 581.85,-55.05 580.73,-46.07"/>
<polygon fill="green" stroke="green" points="584.1,-45.07 578.58,-36.03 577.26,-46.54 584.1,-45.07"/>
</g>
<!-- node7&#45;&gt;node6 -->
<g id="edge18" class="edge">
<title>node7&#45;&gt;node6</title>
<path fill="none" stroke="fuchsia" stroke-width="2" d="M555.14,-36.03C554.29,-44.03 554.05,-53.77 554.41,-62.75"/>
<polygon fill="fuchsia" stroke="fuchsia" stroke-width="2" points="550.93,-63.08 555.12,-72.81 557.91,-62.59 550.93,-63.08"/>
</g>
<!-- c0 -->
<!-- c1 -->
<!-- c0&#45;&gt;c1 -->
<g id="edge22" class="edge">
<title>c0&#45;&gt;c1</title>
<path fill="none" stroke="red" d="M1337.89,-383C1349.11,-383 1407.24,-383 1432.86,-383"/>
<polygon fill="red" stroke="red" points="1433.06,-386.5 1443.06,-383 1433.06,-379.5 1433.06,-386.5"/>
<text text-anchor="middle" x="1390.5" y="-389.8" font-family="Times,serif" font-size="14.00">Control flow</text>
</g>
<!-- c2 -->
<!-- c3 -->
<!-- c2&#45;&gt;c3 -->
<g id="edge23" class="edge">
<title>c2&#45;&gt;c3</title>
<path fill="none" stroke="red" stroke-dasharray="5,2" d="M1131.08,-383C1148.05,-383 1264.21,-383 1302.08,-383"/>
<polygon fill="red" stroke="red" points="1302.17,-386.5 1312.17,-383 1302.17,-379.5 1302.17,-386.5"/>
<text text-anchor="middle" x="1221.5" y="-389.8" font-family="Times,serif" font-size="14.00">Control flow back edge</text>
</g>
<!-- d0 -->
<!-- d1 -->
<!-- d0&#45;&gt;d1 -->
<g id="edge24" class="edge">
<title>d0&#45;&gt;d1</title>
<path fill="none" stroke="black" d="M1019.86,-383C1029.41,-383 1073.31,-383 1094.92,-383"/>
<polygon fill="black" stroke="black" points="1095.15,-386.5 1105.15,-383 1095.15,-379.5 1095.15,-386.5"/>
<text text-anchor="middle" x="1062.5" y="-389.8" font-family="Times,serif" font-size="14.00">Data flow</text>
</g>
<!-- d2 -->
<!-- d3 -->
<!-- d2&#45;&gt;d3 -->
<g id="edge25" class="edge">
<title>d2&#45;&gt;d3</title>
<path fill="none" stroke="black" stroke-dasharray="1,5" d="M893.81,-383C904.46,-383 959.46,-383 984.08,-383"/>
<polygon fill="black" stroke="black" points="984.15,-386.5 994.15,-383 984.15,-379.5 984.15,-386.5"/>
<text text-anchor="middle" x="944" y="-389.8" font-family="Times,serif" font-size="14.00">Declaration</text>
</g>
<!-- d4 -->
<!-- d5 -->
<!-- d4&#45;&gt;d5 -->
<g id="edge26" class="edge">
<title>d4&#45;&gt;d5</title>
<path fill="none" stroke="blue" d="M751.1,-383C763.72,-383 829.88,-383 857.68,-383"/>
<polygon fill="blue" stroke="blue" points="857.84,-386.5 867.84,-383 857.84,-379.5 857.84,-386.5"/>
<text text-anchor="middle" x="809.5" y="-389.8" font-family="Times,serif" font-size="14.00">PHI Data flow</text>
</g>
<!-- d6 -->
<!-- d7 -->
<!-- d6&#45;&gt;d7 -->
<g id="edge27" class="edge">
<title>d6&#45;&gt;d7</title>
<path fill="none" stroke="green" d="M614,-383C625.94,-383 688.3,-383 714.93,-383"/>
<polygon fill="green" stroke="green" points="714.95,-386.5 724.95,-383 714.95,-379.5 714.95,-386.5"/>
<text text-anchor="middle" x="669.5" y="-389.8" font-family="Times,serif" font-size="14.00">Memory flow</text>
</g>
<!-- d8 -->
<!-- d9 -->
<!-- d8&#45;&gt;d9 -->
<g id="edge28" class="edge">
<title>d8&#45;&gt;d9</title>
<path fill="none" stroke="fuchsia" d="M491.11,-383C502.15,-383 553.67,-383 577.66,-383"/>
<polygon fill="fuchsia" stroke="fuchsia" points="577.9,-386.5 587.9,-383 577.9,-379.5 577.9,-386.5"/>
<text text-anchor="middle" x="539.5" y="-389.8" font-family="Times,serif" font-size="14.00">Dominance</text>
</g>
</g>
</svg>
