<?xml version="1.0" encoding="UTF-8" standalone="no"?>
<!DOCTYPE svg PUBLIC "-//W3C//DTD SVG 1.1//EN"
 "http://www.w3.org/Graphics/SVG/1.1/DTD/svg11.dtd">
<!-- Generated by graphviz version 2.43.0 (0)
 -->
<!-- Title: %3 Pages: 1 -->
<svg width="1385pt" height="2330pt"
 viewBox="0.00 0.00 1384.50 2329.80" xmlns="http://www.w3.org/2000/svg" xmlns:xlink="http://www.w3.org/1999/xlink">
<g id="graph0" class="graph" transform="scale(1 1) rotate(0) translate(4 2325.8)">
<title>%3</title>
<polygon fill="white" stroke="transparent" points="-4,4 -4,-2325.8 1380.5,-2325.8 1380.5,4 -4,4"/>
<g id="clust1" class="cluster">
<title>cluster_000</title>
<polygon fill="none" stroke="black" points="1032.5,-2271.2 1032.5,-2313.8 1368.5,-2313.8 1368.5,-2271.2 1032.5,-2271.2"/>
<text text-anchor="middle" x="1200.5" y="-2298.6" font-family="Times,serif" font-size="14.00">Legend</text>
</g>
<!-- node0 -->
<g id="node1" class="node">
<title>node0</title>
<polygon fill="lightgrey" stroke="black" points="1022.5,-2299 202.5,-2299 202.5,-2263 1022.5,-2263 1022.5,-2299"/>
<text text-anchor="middle" x="612.5" y="-2277.3" font-family="Times,serif" font-size="14.00">#0 LocalVariable[name=this, slot=0, type=Lde/mirkosertic/metair/ir/examples/MethodInvocationTest;] Order: 0</text>
</g>
<!-- node1 -->
<g id="node2" class="node">
<title>node1</title>
<polygon fill="lightgrey" stroke="black" points="1062,-2226 163,-2226 163,-2190 1062,-2190 1062,-2226"/>
<text text-anchor="middle" x="612.5" y="-2204.3" font-family="Times,serif" font-size="14.00">#1 LocalVariable[name=source, slot=1, type=Lde/mirkosertic/metair/ir/examples/MethodInvocationTest$Source;] Order: 1</text>
</g>
<!-- node0&#45;&gt;node1 -->
<g id="edge1" class="edge">
<title>node0&#45;&gt;node1</title>
<path fill="none" stroke="red" d="M612.5,-2262.81C612.5,-2254.79 612.5,-2245.05 612.5,-2236.07"/>
<polygon fill="red" stroke="red" points="616,-2236.03 612.5,-2226.03 609,-2236.03 616,-2236.03"/>
</g>
<!-- node2 -->
<g id="node3" class="node">
<title>node2</title>
<polygon fill="lightgrey" stroke="black" points="847.5,-2153 377.5,-2153 377.5,-2117 847.5,-2117 847.5,-2153"/>
<text text-anchor="middle" x="612.5" y="-2131.3" font-family="Times,serif" font-size="14.00">#2 Label[context=CodeModel[id=236567414], bci=0] Order: 2</text>
</g>
<!-- node1&#45;&gt;node2 -->
<g id="edge2" class="edge">
<title>node1&#45;&gt;node2</title>
<path fill="none" stroke="red" d="M612.5,-2189.81C612.5,-2181.79 612.5,-2172.05 612.5,-2163.07"/>
<polygon fill="red" stroke="red" points="616,-2163.03 612.5,-2153.03 609,-2163.03 616,-2163.03"/>
</g>
<!-- node3 -->
<g id="node4" class="node">
<title>node3</title>
<polygon fill="lightgrey" stroke="black" points="748.5,-2080 476.5,-2080 476.5,-2044 748.5,-2044 748.5,-2080"/>
<text text-anchor="middle" x="612.5" y="-2058.3" font-family="Times,serif" font-size="14.00">#3 LineNumber[line=106] Order: 3</text>
</g>
<!-- node2&#45;&gt;node3 -->
<g id="edge3" class="edge">
<title>node2&#45;&gt;node3</title>
<path fill="none" stroke="red" d="M612.5,-2116.81C612.5,-2108.79 612.5,-2099.05 612.5,-2090.07"/>
<polygon fill="red" stroke="red" points="616,-2090.03 612.5,-2080.03 609,-2090.03 616,-2090.03"/>
</g>
<!-- node4 -->
<g id="node5" class="node">
<title>node4</title>
<polygon fill="lightgrey" stroke="black" points="992,-2007 233,-2007 233,-1971 992,-1971 992,-2007"/>
<text text-anchor="middle" x="612.5" y="-1985.3" font-family="Times,serif" font-size="14.00">#4 NewObj[OP=NEW, type=de/mirkosertic/metair/ir/examples/MethodInvocationTest$Source] Order: 4</text>
</g>
<!-- node3&#45;&gt;node4 -->
<g id="edge4" class="edge">
<title>node3&#45;&gt;node4</title>
<path fill="none" stroke="red" d="M612.5,-2043.81C612.5,-2035.79 612.5,-2026.05 612.5,-2017.07"/>
<polygon fill="red" stroke="red" points="616,-2017.03 612.5,-2007.03 609,-2017.03 616,-2017.03"/>
</g>
<!-- node5 -->
<g id="node6" class="node">
<title>node5</title>
<polygon fill="lightgrey" stroke="black" points="794,-1934 431,-1934 431,-1898 794,-1898 794,-1934"/>
<text text-anchor="middle" x="612.5" y="-1912.3" font-family="Times,serif" font-size="14.00">#5 UnboundStackInstruction[op=DUP] Order: 5</text>
</g>
<!-- node4&#45;&gt;node5 -->
<g id="edge5" class="edge">
<title>node4&#45;&gt;node5</title>
<path fill="none" stroke="red" d="M612.5,-1970.81C612.5,-1962.79 612.5,-1953.05 612.5,-1944.07"/>
<polygon fill="red" stroke="red" points="616,-1944.03 612.5,-1934.03 609,-1944.03 616,-1944.03"/>
</g>
<!-- node6 -->
<g id="node7" class="node">
<title>node6</title>
<polygon fill="lightgrey" stroke="black" points="1059,-1861 166,-1861 166,-1825 1059,-1825 1059,-1861"/>
<text text-anchor="middle" x="612.5" y="-1839.3" font-family="Times,serif" font-size="14.00">#6 Invoke[OP=INVOKESPECIAL, m=de/mirkosertic/metair/ir/examples/MethodInvocationTest$Source.&lt;init&gt;()V] Order: 6</text>
</g>
<!-- node5&#45;&gt;node6 -->
<g id="edge6" class="edge">
<title>node5&#45;&gt;node6</title>
<path fill="none" stroke="red" d="M612.5,-1897.81C612.5,-1889.79 612.5,-1880.05 612.5,-1871.07"/>
<polygon fill="red" stroke="red" points="616,-1871.03 612.5,-1861.03 609,-1871.03 616,-1871.03"/>
</g>
<!-- node7 -->
<g id="node8" class="node">
<title>node7</title>
<polygon fill="lightgrey" stroke="black" points="773.5,-1788 451.5,-1788 451.5,-1752 773.5,-1752 773.5,-1788"/>
<text text-anchor="middle" x="612.5" y="-1766.3" font-family="Times,serif" font-size="14.00">#7 Store[OP=ASTORE_1, slot=1] Order: 7</text>
</g>
<!-- node6&#45;&gt;node7 -->
<g id="edge7" class="edge">
<title>node6&#45;&gt;node7</title>
<path fill="none" stroke="red" d="M612.5,-1824.81C612.5,-1816.79 612.5,-1807.05 612.5,-1798.07"/>
<polygon fill="red" stroke="red" points="616,-1798.03 612.5,-1788.03 609,-1798.03 616,-1798.03"/>
</g>
<!-- node8 -->
<g id="node9" class="node">
<title>node8</title>
<polygon fill="lightgrey" stroke="black" points="847.5,-1715 377.5,-1715 377.5,-1679 847.5,-1679 847.5,-1715"/>
<text text-anchor="middle" x="612.5" y="-1693.3" font-family="Times,serif" font-size="14.00">#8 Label[context=CodeModel[id=236567414], bci=8] Order: 8</text>
</g>
<!-- node7&#45;&gt;node8 -->
<g id="edge8" class="edge">
<title>node7&#45;&gt;node8</title>
<path fill="none" stroke="red" d="M612.5,-1751.81C612.5,-1743.79 612.5,-1734.05 612.5,-1725.07"/>
<polygon fill="red" stroke="red" points="616,-1725.03 612.5,-1715.03 609,-1725.03 616,-1725.03"/>
</g>
<!-- node9 -->
<g id="node10" class="node">
<title>node9</title>
<polygon fill="lightgrey" stroke="black" points="748.5,-1642 476.5,-1642 476.5,-1606 748.5,-1606 748.5,-1642"/>
<text text-anchor="middle" x="612.5" y="-1620.3" font-family="Times,serif" font-size="14.00">#9 LineNumber[line=107] Order: 9</text>
</g>
<!-- node8&#45;&gt;node9 -->
<g id="edge9" class="edge">
<title>node8&#45;&gt;node9</title>
<path fill="none" stroke="red" d="M612.5,-1678.81C612.5,-1670.79 612.5,-1661.05 612.5,-1652.07"/>
<polygon fill="red" stroke="red" points="616,-1652.03 612.5,-1642.03 609,-1652.03 616,-1652.03"/>
</g>
<!-- node10 -->
<g id="node11" class="node">
<title>node10</title>
<polygon fill="lightgrey" stroke="black" points="775.5,-1569 449.5,-1569 449.5,-1533 775.5,-1533 775.5,-1569"/>
<text text-anchor="middle" x="612.5" y="-1547.3" font-family="Times,serif" font-size="14.00">#10 Load[OP=ALOAD_1, slot=1] Order: 10</text>
</g>
<!-- node9&#45;&gt;node10 -->
<g id="edge10" class="edge">
<title>node9&#45;&gt;node10</title>
<path fill="none" stroke="red" d="M612.5,-1605.81C612.5,-1597.79 612.5,-1588.05 612.5,-1579.07"/>
<polygon fill="red" stroke="red" points="616,-1579.03 612.5,-1569.03 609,-1579.03 616,-1579.03"/>
</g>
<!-- node11 -->
<g id="node12" class="node">
<title>node11</title>
<polygon fill="lightgrey" stroke="black" points="1055,-1496 170,-1496 170,-1460 1055,-1460 1055,-1496"/>
<text text-anchor="middle" x="612.5" y="-1474.3" font-family="Times,serif" font-size="14.00">#11 Field[OP=GETFIELD, field=de/mirkosertic/metair/ir/examples/MethodInvocationTest$Source.byte_field:B] Order: 11</text>
</g>
<!-- node10&#45;&gt;node11 -->
<g id="edge11" class="edge">
<title>node10&#45;&gt;node11</title>
<path fill="none" stroke="red" d="M612.5,-1532.81C612.5,-1524.79 612.5,-1515.05 612.5,-1506.07"/>
<polygon fill="red" stroke="red" points="616,-1506.03 612.5,-1496.03 609,-1506.03 616,-1506.03"/>
</g>
<!-- node12 -->
<g id="node13" class="node">
<title>node12</title>
<polygon fill="lightgrey" stroke="black" points="775.5,-1423 449.5,-1423 449.5,-1387 775.5,-1387 775.5,-1423"/>
<text text-anchor="middle" x="612.5" y="-1401.3" font-family="Times,serif" font-size="14.00">#12 Load[OP=ALOAD_1, slot=1] Order: 12</text>
</g>
<!-- node11&#45;&gt;node12 -->
<g id="edge12" class="edge">
<title>node11&#45;&gt;node12</title>
<path fill="none" stroke="red" d="M612.5,-1459.81C612.5,-1451.79 612.5,-1442.05 612.5,-1433.07"/>
<polygon fill="red" stroke="red" points="616,-1433.03 612.5,-1423.03 609,-1433.03 616,-1433.03"/>
</g>
<!-- node13 -->
<g id="node14" class="node">
<title>node13</title>
<polygon fill="lightgrey" stroke="black" points="1066.5,-1350 158.5,-1350 158.5,-1314 1066.5,-1314 1066.5,-1350"/>
<text text-anchor="middle" x="612.5" y="-1328.3" font-family="Times,serif" font-size="14.00">#13 Field[OP=GETFIELD, field=de/mirkosertic/metair/ir/examples/MethodInvocationTest$Source.boolean_field:Z] Order: 13</text>
</g>
<!-- node12&#45;&gt;node13 -->
<g id="edge13" class="edge">
<title>node12&#45;&gt;node13</title>
<path fill="none" stroke="red" d="M612.5,-1386.81C612.5,-1378.79 612.5,-1369.05 612.5,-1360.07"/>
<polygon fill="red" stroke="red" points="616,-1360.03 612.5,-1350.03 609,-1360.03 616,-1360.03"/>
</g>
<!-- node14 -->
<g id="node15" class="node">
<title>node14</title>
<polygon fill="lightgrey" stroke="black" points="775.5,-1277 449.5,-1277 449.5,-1241 775.5,-1241 775.5,-1277"/>
<text text-anchor="middle" x="612.5" y="-1255.3" font-family="Times,serif" font-size="14.00">#14 Load[OP=ALOAD_1, slot=1] Order: 14</text>
</g>
<!-- node13&#45;&gt;node14 -->
<g id="edge14" class="edge">
<title>node13&#45;&gt;node14</title>
<path fill="none" stroke="red" d="M612.5,-1313.81C612.5,-1305.79 612.5,-1296.05 612.5,-1287.07"/>
<polygon fill="red" stroke="red" points="616,-1287.03 612.5,-1277.03 609,-1287.03 616,-1287.03"/>
</g>
<!-- node15 -->
<g id="node16" class="node">
<title>node15</title>
<polygon fill="lightgrey" stroke="black" points="1057.5,-1204 167.5,-1204 167.5,-1168 1057.5,-1168 1057.5,-1204"/>
<text text-anchor="middle" x="612.5" y="-1182.3" font-family="Times,serif" font-size="14.00">#15 Field[OP=GETFIELD, field=de/mirkosertic/metair/ir/examples/MethodInvocationTest$Source.short_field:S] Order: 15</text>
</g>
<!-- node14&#45;&gt;node15 -->
<g id="edge15" class="edge">
<title>node14&#45;&gt;node15</title>
<path fill="none" stroke="red" d="M612.5,-1240.81C612.5,-1232.79 612.5,-1223.05 612.5,-1214.07"/>
<polygon fill="red" stroke="red" points="616,-1214.03 612.5,-1204.03 609,-1214.03 616,-1214.03"/>
</g>
<!-- node16 -->
<g id="node17" class="node">
<title>node16</title>
<polygon fill="lightgrey" stroke="black" points="775.5,-1131 449.5,-1131 449.5,-1095 775.5,-1095 775.5,-1131"/>
<text text-anchor="middle" x="612.5" y="-1109.3" font-family="Times,serif" font-size="14.00">#16 Load[OP=ALOAD_1, slot=1] Order: 16</text>
</g>
<!-- node15&#45;&gt;node16 -->
<g id="edge16" class="edge">
<title>node15&#45;&gt;node16</title>
<path fill="none" stroke="red" d="M612.5,-1167.81C612.5,-1159.79 612.5,-1150.05 612.5,-1141.07"/>
<polygon fill="red" stroke="red" points="616,-1141.03 612.5,-1131.03 609,-1141.03 616,-1141.03"/>
</g>
<!-- node17 -->
<g id="node18" class="node">
<title>node17</title>
<polygon fill="lightgrey" stroke="black" points="1055,-1058 170,-1058 170,-1022 1055,-1022 1055,-1058"/>
<text text-anchor="middle" x="612.5" y="-1036.3" font-family="Times,serif" font-size="14.00">#17 Field[OP=GETFIELD, field=de/mirkosertic/metair/ir/examples/MethodInvocationTest$Source.char_field:C] Order: 17</text>
</g>
<!-- node16&#45;&gt;node17 -->
<g id="edge17" class="edge">
<title>node16&#45;&gt;node17</title>
<path fill="none" stroke="red" d="M612.5,-1094.81C612.5,-1086.79 612.5,-1077.05 612.5,-1068.07"/>
<polygon fill="red" stroke="red" points="616,-1068.03 612.5,-1058.03 609,-1068.03 616,-1068.03"/>
</g>
<!-- node18 -->
<g id="node19" class="node">
<title>node18</title>
<polygon fill="lightgrey" stroke="black" points="775.5,-985 449.5,-985 449.5,-949 775.5,-949 775.5,-985"/>
<text text-anchor="middle" x="612.5" y="-963.3" font-family="Times,serif" font-size="14.00">#18 Load[OP=ALOAD_1, slot=1] Order: 18</text>
</g>
<!-- node17&#45;&gt;node18 -->
<g id="edge18" class="edge">
<title>node17&#45;&gt;node18</title>
<path fill="none" stroke="red" d="M612.5,-1021.81C612.5,-1013.79 612.5,-1004.05 612.5,-995.07"/>
<polygon fill="red" stroke="red" points="616,-995.03 612.5,-985.03 609,-995.03 616,-995.03"/>
</g>
<!-- node19 -->
<g id="node20" class="node">
<title>node19</title>
<polygon fill="lightgrey" stroke="black" points="1046.5,-912 178.5,-912 178.5,-876 1046.5,-876 1046.5,-912"/>
<text text-anchor="middle" x="612.5" y="-890.3" font-family="Times,serif" font-size="14.00">#19 Field[OP=GETFIELD, field=de/mirkosertic/metair/ir/examples/MethodInvocationTest$Source.int_field:I] Order: 19</text>
</g>
<!-- node18&#45;&gt;node19 -->
<g id="edge19" class="edge">
<title>node18&#45;&gt;node19</title>
<path fill="none" stroke="red" d="M612.5,-948.81C612.5,-940.79 612.5,-931.05 612.5,-922.07"/>
<polygon fill="red" stroke="red" points="616,-922.03 612.5,-912.03 609,-922.03 616,-922.03"/>
</g>
<!-- node20 -->
<g id="node21" class="node">
<title>node20</title>
<polygon fill="lightgrey" stroke="black" points="775.5,-839 449.5,-839 449.5,-803 775.5,-803 775.5,-839"/>
<text text-anchor="middle" x="612.5" y="-817.3" font-family="Times,serif" font-size="14.00">#20 Load[OP=ALOAD_1, slot=1] Order: 20</text>
</g>
<!-- node19&#45;&gt;node20 -->
<g id="edge20" class="edge">
<title>node19&#45;&gt;node20</title>
<path fill="none" stroke="red" d="M612.5,-875.81C612.5,-867.79 612.5,-858.05 612.5,-849.07"/>
<polygon fill="red" stroke="red" points="616,-849.03 612.5,-839.03 609,-849.03 616,-849.03"/>
</g>
<!-- node21 -->
<g id="node22" class="node">
<title>node21</title>
<polygon fill="lightgrey" stroke="black" points="1052,-766 173,-766 173,-730 1052,-730 1052,-766"/>
<text text-anchor="middle" x="612.5" y="-744.3" font-family="Times,serif" font-size="14.00">#21 Field[OP=GETFIELD, field=de/mirkosertic/metair/ir/examples/MethodInvocationTest$Source.long_field:J] Order: 21</text>
</g>
<!-- node20&#45;&gt;node21 -->
<g id="edge21" class="edge">
<title>node20&#45;&gt;node21</title>
<path fill="none" stroke="red" d="M612.5,-802.81C612.5,-794.79 612.5,-785.05 612.5,-776.07"/>
<polygon fill="red" stroke="red" points="616,-776.03 612.5,-766.03 609,-776.03 616,-776.03"/>
</g>
<!-- node22 -->
<g id="node23" class="node">
<title>node22</title>
<polygon fill="lightgrey" stroke="black" points="775.5,-693 449.5,-693 449.5,-657 775.5,-657 775.5,-693"/>
<text text-anchor="middle" x="612.5" y="-671.3" font-family="Times,serif" font-size="14.00">#22 Load[OP=ALOAD_1, slot=1] Order: 22</text>
</g>
<!-- node21&#45;&gt;node22 -->
<g id="edge22" class="edge">
<title>node21&#45;&gt;node22</title>
<path fill="none" stroke="red" d="M612.5,-729.81C612.5,-721.79 612.5,-712.05 612.5,-703.07"/>
<polygon fill="red" stroke="red" points="616,-703.03 612.5,-693.03 609,-703.03 616,-703.03"/>
</g>
<!-- node23 -->
<g id="node24" class="node">
<title>node23</title>
<polygon fill="lightgrey" stroke="black" points="1054.5,-620 170.5,-620 170.5,-584 1054.5,-584 1054.5,-620"/>
<text text-anchor="middle" x="612.5" y="-598.3" font-family="Times,serif" font-size="14.00">#23 Field[OP=GETFIELD, field=de/mirkosertic/metair/ir/examples/MethodInvocationTest$Source.float_field:F] Order: 23</text>
</g>
<!-- node22&#45;&gt;node23 -->
<g id="edge23" class="edge">
<title>node22&#45;&gt;node23</title>
<path fill="none" stroke="red" d="M612.5,-656.81C612.5,-648.79 612.5,-639.05 612.5,-630.07"/>
<polygon fill="red" stroke="red" points="616,-630.03 612.5,-620.03 609,-630.03 616,-630.03"/>
</g>
<!-- node24 -->
<g id="node25" class="node">
<title>node24</title>
<polygon fill="lightgrey" stroke="black" points="775.5,-547 449.5,-547 449.5,-511 775.5,-511 775.5,-547"/>
<text text-anchor="middle" x="612.5" y="-525.3" font-family="Times,serif" font-size="14.00">#24 Load[OP=ALOAD_1, slot=1] Order: 24</text>
</g>
<!-- node23&#45;&gt;node24 -->
<g id="edge24" class="edge">
<title>node23&#45;&gt;node24</title>
<path fill="none" stroke="red" d="M612.5,-583.81C612.5,-575.79 612.5,-566.05 612.5,-557.07"/>
<polygon fill="red" stroke="red" points="616,-557.03 612.5,-547.03 609,-557.03 616,-557.03"/>
</g>
<!-- node25 -->
<g id="node26" class="node">
<title>node25</title>
<polygon fill="lightgrey" stroke="black" points="1063.5,-474 161.5,-474 161.5,-438 1063.5,-438 1063.5,-474"/>
<text text-anchor="middle" x="612.5" y="-452.3" font-family="Times,serif" font-size="14.00">#25 Field[OP=GETFIELD, field=de/mirkosertic/metair/ir/examples/MethodInvocationTest$Source.double_field:D] Order: 25</text>
</g>
<!-- node24&#45;&gt;node25 -->
<g id="edge25" class="edge">
<title>node24&#45;&gt;node25</title>
<path fill="none" stroke="red" d="M612.5,-510.81C612.5,-502.79 612.5,-493.05 612.5,-484.07"/>
<polygon fill="red" stroke="red" points="616,-484.03 612.5,-474.03 609,-484.03 616,-484.03"/>
</g>
<!-- node26 -->
<g id="node27" class="node">
<title>node26</title>
<polygon fill="lightgrey" stroke="black" points="775.5,-401 449.5,-401 449.5,-365 775.5,-365 775.5,-401"/>
<text text-anchor="middle" x="612.5" y="-379.3" font-family="Times,serif" font-size="14.00">#26 Load[OP=ALOAD_1, slot=1] Order: 26</text>
</g>
<!-- node25&#45;&gt;node26 -->
<g id="edge26" class="edge">
<title>node25&#45;&gt;node26</title>
<path fill="none" stroke="red" d="M612.5,-437.81C612.5,-429.79 612.5,-420.05 612.5,-411.07"/>
<polygon fill="red" stroke="red" points="616,-411.03 612.5,-401.03 609,-411.03 616,-411.03"/>
</g>
<!-- node27 -->
<g id="node28" class="node">
<title>node27</title>
<polygon fill="lightgrey" stroke="black" points="1119,-328 106,-328 106,-292 1119,-292 1119,-328"/>
<text text-anchor="middle" x="612.5" y="-306.3" font-family="Times,serif" font-size="14.00">#27 Field[OP=GETFIELD, field=de/mirkosertic/metair/ir/examples/MethodInvocationTest$Source.string_field:Ljava/lang/String;] Order: 27</text>
</g>
<!-- node26&#45;&gt;node27 -->
<g id="edge27" class="edge">
<title>node26&#45;&gt;node27</title>
<path fill="none" stroke="red" d="M612.5,-364.81C612.5,-356.79 612.5,-347.05 612.5,-338.07"/>
<polygon fill="red" stroke="red" points="616,-338.03 612.5,-328.03 609,-338.03 616,-338.03"/>
</g>
<!-- node28 -->
<g id="node29" class="node">
<title>node28</title>
<polygon fill="lightgrey" stroke="black" points="775.5,-255 449.5,-255 449.5,-219 775.5,-219 775.5,-255"/>
<text text-anchor="middle" x="612.5" y="-233.3" font-family="Times,serif" font-size="14.00">#28 Load[OP=ALOAD_1, slot=1] Order: 28</text>
</g>
<!-- node27&#45;&gt;node28 -->
<g id="edge28" class="edge">
<title>node27&#45;&gt;node28</title>
<path fill="none" stroke="red" d="M612.5,-291.81C612.5,-283.79 612.5,-274.05 612.5,-265.07"/>
<polygon fill="red" stroke="red" points="616,-265.03 612.5,-255.03 609,-265.03 616,-265.03"/>
</g>
<!-- node29 -->
<g id="node30" class="node">
<title>node29</title>
<polygon fill="lightgrey" stroke="black" points="1058.5,-182 166.5,-182 166.5,-146 1058.5,-146 1058.5,-182"/>
<text text-anchor="middle" x="612.5" y="-160.3" font-family="Times,serif" font-size="14.00">#29 Field[OP=GETFIELD, field=de/mirkosertic/metair/ir/examples/MethodInvocationTest$Source.array_field:[I] Order: 29</text>
</g>
<!-- node28&#45;&gt;node29 -->
<g id="edge29" class="edge">
<title>node28&#45;&gt;node29</title>
<path fill="none" stroke="red" d="M612.5,-218.81C612.5,-210.79 612.5,-201.05 612.5,-192.07"/>
<polygon fill="red" stroke="red" points="616,-192.03 612.5,-182.03 609,-192.03 616,-192.03"/>
</g>
<!-- node30 -->
<g id="node31" class="node">
<title>node30</title>
<polygon fill="lightgrey" stroke="black" points="1225,-109 0,-109 0,-73 1225,-73 1225,-109"/>
<text text-anchor="middle" x="612.5" y="-87.3" font-family="Times,serif" font-size="14.00">#30 Invoke[OP=INVOKESTATIC, m=de/mirkosertic/metair/ir/examples/MethodInvocationTest.simple_method_return_boolean(BZSCIJFDLjava/lang/String;[I)Z] Order: 30</text>
</g>
<!-- node29&#45;&gt;node30 -->
<g id="edge30" class="edge">
<title>node29&#45;&gt;node30</title>
<path fill="none" stroke="red" d="M612.5,-145.81C612.5,-137.79 612.5,-128.05 612.5,-119.07"/>
<polygon fill="red" stroke="red" points="616,-119.03 612.5,-109.03 609,-119.03 616,-119.03"/>
</g>
<!-- node31 -->
<g id="node32" class="node">
<title>node31</title>
<polygon fill="lightgrey" stroke="black" points="756,-36 469,-36 469,0 756,0 756,-36"/>
<text text-anchor="middle" x="612.5" y="-14.3" font-family="Times,serif" font-size="14.00">#31 Return[OP=IRETURN] Order: 31</text>
</g>
<!-- node30&#45;&gt;node31 -->
<g id="edge31" class="edge">
<title>node30&#45;&gt;node31</title>
<path fill="none" stroke="red" d="M612.5,-72.81C612.5,-64.79 612.5,-55.05 612.5,-46.07"/>
<polygon fill="red" stroke="red" points="616,-46.03 612.5,-36.03 609,-46.03 616,-46.03"/>
</g>
<!-- c0 -->
<!-- c1 -->
<!-- c0&#45;&gt;c1 -->
<g id="edge32" class="edge">
<title>c0&#45;&gt;c1</title>
<path fill="none" stroke="red" d="M1251.39,-2281C1262.61,-2281 1320.74,-2281 1346.36,-2281"/>
<polygon fill="red" stroke="red" points="1346.56,-2284.5 1356.56,-2281 1346.56,-2277.5 1346.56,-2284.5"/>
<text text-anchor="middle" x="1304" y="-2287.8" font-family="Times,serif" font-size="14.00">Control flow</text>
</g>
<!-- c2 -->
<!-- c3 -->
<!-- c2&#45;&gt;c3 -->
<g id="edge33" class="edge">
<title>c2&#45;&gt;c3</title>
<path fill="none" stroke="red" stroke-dasharray="5,2" d="M1044.58,-2281C1061.55,-2281 1177.71,-2281 1215.58,-2281"/>
<polygon fill="red" stroke="red" points="1215.67,-2284.5 1225.67,-2281 1215.67,-2277.5 1215.67,-2284.5"/>
<text text-anchor="middle" x="1135" y="-2287.8" font-family="Times,serif" font-size="14.00">Control flow back edge</text>
</g>
</g>
</svg>
