<?xml version="1.0" encoding="UTF-8" standalone="no"?>
<!DOCTYPE svg PUBLIC "-//W3C//DTD SVG 1.1//EN"
 "http://www.w3.org/Graphics/SVG/1.1/DTD/svg11.dtd">
<!-- Generated by graphviz version 2.43.0 (0)
 -->
<!-- Title: debugoutput Pages: 1 -->
<svg width="2712pt" height="1308pt"
 viewBox="0.00 0.00 2712.00 1307.80" xmlns="http://www.w3.org/2000/svg" xmlns:xlink="http://www.w3.org/1999/xlink">
<g id="graph0" class="graph" transform="scale(1 1) rotate(0) translate(4 1303.8)">
<title>debugoutput</title>
<polygon fill="white" stroke="transparent" points="-4,4 -4,-1303.8 2708,-1303.8 2708,4 -4,4"/>
<g id="clust1" class="cluster">
<title>cluster_000</title>
<polygon fill="none" stroke="black" points="1857,-1249.2 1857,-1291.8 2696,-1291.8 2696,-1249.2 1857,-1249.2"/>
<text text-anchor="middle" x="2276.5" y="-1276.6" font-family="Times,serif" font-size="14.00">Legend</text>
</g>
<!-- node0 -->
<g id="node1" class="node">
<title>node0</title>
<polygon fill="lightgrey" stroke="black" points="1847,-1277 1681,-1277 1681,-1241 1847,-1241 1847,-1277"/>
<text text-anchor="middle" x="1764" y="-1255.3" font-family="Times,serif" font-size="14.00">#0 Method Order : 0</text>
</g>
<!-- node1 -->
<g id="node2" class="node">
<title>node1</title>
<polygon fill="lightgrey" stroke="black" points="1323,-1131 1149,-1131 1149,-1095 1323,-1095 1323,-1131"/>
<text text-anchor="middle" x="1236" y="-1109.3" font-family="Times,serif" font-size="14.00">#1 ClassInit Order : 5</text>
</g>
<!-- node0&#45;&gt;node1 -->
<g id="edge4" class="edge">
<title>node0&#45;&gt;node1</title>
<path fill="none" stroke="black" d="M1681,-1258.67C1483.71,-1259.48 999.85,-1256.24 951,-1204 892.28,-1141.21 1034.34,-1122.14 1138.35,-1116.4"/>
<polygon fill="black" stroke="black" points="1138.8,-1119.88 1148.61,-1115.87 1138.44,-1112.89 1138.8,-1119.88"/>
</g>
<!-- node17 -->
<g id="node3" class="node">
<title>node17</title>
<polygon fill="lightgreen" stroke="black" points="1503.15,-1178.54 1503.15,-1193.46 1346.66,-1204 1125.34,-1204 968.85,-1193.46 968.85,-1178.54 1125.34,-1168 1346.66,-1168 1503.15,-1178.54"/>
<text text-anchor="middle" x="1236" y="-1182.3" font-family="Times,serif" font-size="14.00">#17 Class MethodInvocationTest$Source Order : 2</text>
</g>
<!-- node0&#45;&gt;node17 -->
<g id="edge49" class="edge">
<title>node0&#45;&gt;node17</title>
<path fill="none" stroke="black" stroke-dasharray="1,5" d="M1680.85,-1247.49C1595.6,-1236.29 1461.99,-1218.37 1363.41,-1204.93"/>
<polygon fill="black" stroke="black" points="1363.77,-1201.45 1353.38,-1203.57 1362.82,-1208.39 1363.77,-1201.45"/>
</g>
<!-- node16 -->
<g id="node4" class="node">
<title>node16</title>
<polygon fill="lightgrey" stroke="black" points="1718.5,-1204 1521.5,-1204 1521.5,-1168 1718.5,-1168 1718.5,-1204"/>
<text text-anchor="middle" x="1620" y="-1182.3" font-family="Times,serif" font-size="14.00">#16 LabelNode Order : 3</text>
</g>
<!-- node0&#45;&gt;node16 -->
<g id="edge47" class="edge">
<title>node0&#45;&gt;node16</title>
<path fill="none" stroke="red" d="M1723.65,-1240.99C1703,-1231.32 1678.07,-1219.1 1657.8,-1208.73"/>
<polygon fill="red" stroke="red" points="1659.33,-1205.58 1648.84,-1204.11 1656.12,-1211.81 1659.33,-1205.58"/>
</g>
<!-- node15 -->
<g id="node18" class="node">
<title>node15</title>
<polygon fill="lightgrey" stroke="black" points="2604,-1204 2284,-1204 2284,-1168 2604,-1168 2604,-1204"/>
<text text-anchor="middle" x="2444" y="-1182.3" font-family="Times,serif" font-size="14.00">#15 this : MethodInvocationTest Order : 4</text>
</g>
<!-- node0&#45;&gt;node15 -->
<g id="edge45" class="edge">
<title>node0&#45;&gt;node15</title>
<path fill="none" stroke="red" d="M1844.27,-1240.97C2028.31,-1219.57 2077,-1245.86 2261,-1223 2292.22,-1219.12 2326.17,-1212.62 2356.3,-1206.2"/>
<polygon fill="red" stroke="red" points="2357.32,-1209.56 2366.36,-1204.03 2355.85,-1202.72 2357.32,-1209.56"/>
</g>
<!-- node18 -->
<g id="node19" class="node">
<title>node18</title>
<polygon fill="lightgreen" stroke="black" points="2189.55,-1178.54 2189.55,-1193.46 2056.84,-1204 1869.16,-1204 1736.45,-1193.46 1736.45,-1178.54 1869.16,-1168 2056.84,-1168 2189.55,-1178.54"/>
<text text-anchor="middle" x="1963" y="-1182.3" font-family="Times,serif" font-size="14.00">#18 Class MethodInvocationTest Order : 1</text>
</g>
<!-- node0&#45;&gt;node18 -->
<g id="edge51" class="edge">
<title>node0&#45;&gt;node18</title>
<path fill="none" stroke="black" stroke-dasharray="1,5" d="M1805.81,-1240.99C1832.96,-1230.92 1868.79,-1218.1 1899.42,-1207.48"/>
<polygon fill="black" stroke="black" points="1900.85,-1210.69 1909.16,-1204.11 1898.57,-1204.07 1900.85,-1210.69"/>
</g>
<!-- node1&#45;&gt;node0 -->
<g id="edge1" class="edge">
<title>node1&#45;&gt;node0</title>
<path fill="none" stroke="green" stroke-width="2" d="M1148.73,-1116.54C1050.15,-1122.43 910.74,-1141.69 969,-1204 1016.28,-1254.56 1471.08,-1259.22 1670.81,-1258.73"/>
<polygon fill="green" stroke="green" stroke-width="2" points="1671,-1262.23 1680.99,-1258.7 1670.98,-1255.23 1671,-1262.23"/>
</g>
<!-- node2 -->
<g id="node5" class="node">
<title>node2</title>
<polygon fill="lightgrey" stroke="black" points="1697.5,-985 1378.5,-985 1378.5,-949 1697.5,-949 1697.5,-985"/>
<text text-anchor="middle" x="1538" y="-963.3" font-family="Times,serif" font-size="14.00">#2 Invoke special &lt;init&gt; : ()void Order : 7</text>
</g>
<!-- node1&#45;&gt;node2 -->
<g id="edge7" class="edge">
<title>node1&#45;&gt;node2</title>
<path fill="none" stroke="red" d="M1267.27,-1094.92C1319.77,-1068.55 1425.63,-1018.01 1488.36,-989.3"/>
<polygon fill="red" stroke="red" points="1490.02,-992.39 1497.67,-985.06 1487.11,-986.03 1490.02,-992.39"/>
</g>
<!-- node4 -->
<g id="node6" class="node">
<title>node4</title>
<polygon fill="orange" stroke="black" points="1336.7,-1032.54 1336.7,-1047.46 1277.71,-1058 1194.29,-1058 1135.3,-1047.46 1135.3,-1032.54 1194.29,-1022 1277.71,-1022 1336.7,-1032.54"/>
<text text-anchor="middle" x="1236" y="-1036.3" font-family="Times,serif" font-size="14.00">#4 New Order : 6</text>
</g>
<!-- node1&#45;&gt;node4 -->
<g id="edge12" class="edge">
<title>node1&#45;&gt;node4</title>
<path fill="none" stroke="black" d="M1224.24,-1094.81C1222.56,-1086.79 1222.1,-1077.05 1222.84,-1068.07"/>
<polygon fill="black" stroke="black" points="1226.33,-1068.42 1224.28,-1058.03 1219.4,-1067.43 1226.33,-1068.42"/>
<text text-anchor="middle" x="1230.08" y="-1073.47" font-family="Times,serif" font-size="14.00">*0</text>
</g>
<!-- node1&#45;&gt;node4 -->
<g id="edge13" class="edge">
<title>node1&#45;&gt;node4</title>
<path fill="none" stroke="black" d="M1247.76,-1094.81C1249.44,-1086.79 1249.9,-1077.05 1249.16,-1068.07"/>
<polygon fill="black" stroke="black" points="1252.6,-1067.43 1247.72,-1058.03 1245.67,-1068.42 1252.6,-1067.43"/>
</g>
<!-- node17&#45;&gt;node0 -->
<g id="edge48" class="edge">
<title>node17&#45;&gt;node0</title>
<path fill="none" stroke="green" stroke-width="2" d="M1361.13,-1203.05C1456.15,-1215.64 1584.68,-1232.94 1670.79,-1244.74"/>
<polygon fill="green" stroke="green" stroke-width="2" points="1670.43,-1248.22 1680.82,-1246.12 1671.39,-1241.29 1670.43,-1248.22"/>
</g>
<!-- node17&#45;&gt;node1 -->
<g id="edge2" class="edge">
<title>node17&#45;&gt;node1</title>
<path fill="none" stroke="black" d="M1236,-1167.81C1236,-1159.79 1236,-1150.05 1236,-1141.07"/>
<polygon fill="black" stroke="black" points="1239.5,-1141.03 1236,-1131.03 1232.5,-1141.03 1239.5,-1141.03"/>
<text text-anchor="middle" x="1244.45" y="-1145.45" font-family="Times,serif" font-size="14.00">*0</text>
</g>
<!-- node16&#45;&gt;node0 -->
<g id="edge46" class="edge">
<title>node16&#45;&gt;node0</title>
<path fill="none" stroke="green" stroke-width="2" d="M1660.58,-1204.11C1681.26,-1213.81 1706.19,-1226.03 1726.43,-1236.38"/>
<polygon fill="green" stroke="green" stroke-width="2" points="1724.88,-1239.52 1735.37,-1240.99 1728.08,-1233.3 1724.88,-1239.52"/>
</g>
<!-- node16&#45;&gt;node1 -->
<g id="edge3" class="edge">
<title>node16&#45;&gt;node1</title>
<path fill="none" stroke="red" d="M1528.02,-1167.99C1469.29,-1157.13 1393.24,-1143.07 1333.47,-1132.02"/>
<polygon fill="red" stroke="red" points="1333.74,-1128.51 1323.27,-1130.14 1332.47,-1135.4 1333.74,-1128.51"/>
</g>
<!-- node2&#45;&gt;node1 -->
<g id="edge5" class="edge">
<title>node2&#45;&gt;node1</title>
<path fill="none" stroke="green" stroke-width="2" d="M1506.77,-985.06C1454.3,-1011.41 1348.44,-1061.95 1285.69,-1090.67"/>
<polygon fill="green" stroke="green" stroke-width="2" points="1284.03,-1087.58 1276.38,-1094.92 1286.93,-1093.95 1284.03,-1087.58"/>
</g>
<!-- node3 -->
<g id="node7" class="node">
<title>node3</title>
<polygon fill="lightgrey" stroke="black" points="1632,-912 1444,-912 1444,-876 1632,-876 1632,-912"/>
<text text-anchor="middle" x="1538" y="-890.3" font-family="Times,serif" font-size="14.00">#3 LabelNode Order : 8</text>
</g>
<!-- node2&#45;&gt;node3 -->
<g id="edge10" class="edge">
<title>node2&#45;&gt;node3</title>
<path fill="none" stroke="red" d="M1532.12,-948.81C1531.28,-940.79 1531.05,-931.05 1531.42,-922.07"/>
<polygon fill="red" stroke="red" points="1534.92,-922.25 1532.14,-912.03 1527.94,-921.75 1534.92,-922.25"/>
</g>
<!-- node14 -->
<g id="node17" class="node">
<title>node14</title>
<polygon fill="orange" stroke="black" points="1184.26,-886.54 1184.26,-901.46 1056.99,-912 877.01,-912 749.74,-901.46 749.74,-886.54 877.01,-876 1056.99,-876 1184.26,-886.54"/>
<text text-anchor="middle" x="967" y="-890.3" font-family="Times,serif" font-size="14.00">#14 GetField : byte_field : byte Order : 9</text>
</g>
<!-- node2&#45;&gt;node14 -->
<g id="edge43" class="edge">
<title>node2&#45;&gt;node14</title>
<path fill="none" stroke="black" d="M1401.23,-948.99C1308.37,-937.45 1186.39,-922.28 1095.36,-910.96"/>
<polygon fill="black" stroke="black" points="1095.61,-907.47 1085.26,-909.7 1094.75,-914.41 1095.61,-907.47"/>
</g>
<!-- node4&#45;&gt;node1 -->
<g id="edge11" class="edge">
<title>node4&#45;&gt;node1</title>
<path fill="none" stroke="green" stroke-width="2" d="M1236,-1058.03C1236,-1066.03 1236,-1075.77 1236,-1084.75"/>
<polygon fill="green" stroke="green" stroke-width="2" points="1232.5,-1084.81 1236,-1094.81 1239.5,-1084.81 1232.5,-1084.81"/>
</g>
<!-- node4&#45;&gt;node2 -->
<g id="edge6" class="edge">
<title>node4&#45;&gt;node2</title>
<path fill="none" stroke="black" d="M1292.27,-1024.46C1336.52,-1013.73 1398.89,-999.03 1449.74,-987.32"/>
<polygon fill="black" stroke="black" points="1450.79,-990.67 1459.75,-985.02 1449.22,-983.85 1450.79,-990.67"/>
<text text-anchor="middle" x="1443.98" y="-993.62" font-family="Times,serif" font-size="14.00">*0</text>
</g>
<!-- node4&#45;&gt;node2 -->
<g id="edge8" class="edge">
<title>node4&#45;&gt;node2</title>
<path fill="none" stroke="black" d="M1298.22,-1025.65C1345.54,-1014.87 1410.85,-999.58 1461.38,-987.45"/>
<polygon fill="black" stroke="black" points="1462.38,-990.81 1471.28,-985.06 1460.74,-984 1462.38,-990.81"/>
</g>
<!-- node5 -->
<g id="node8" class="node">
<title>node5</title>
<polygon fill="orange" stroke="black" points="1651.93,-302.54 1651.93,-317.46 1514.31,-328 1319.69,-328 1182.07,-317.46 1182.07,-302.54 1319.69,-292 1514.31,-292 1651.93,-302.54"/>
<text text-anchor="middle" x="1417" y="-306.3" font-family="Times,serif" font-size="14.00">#5 GetField : string_field : String Order : 17</text>
</g>
<!-- node4&#45;&gt;node5 -->
<g id="edge15" class="edge">
<title>node4&#45;&gt;node5</title>
<path fill="none" stroke="black" d="M1260.67,-1021.89C1268.53,-1016.3 1277.21,-1009.99 1285,-1004 1295.51,-995.92 1299.34,-995.04 1308,-985 1332.73,-956.31 1332.78,-944.64 1352,-912 1478.67,-696.92 1535.79,-645.71 1585,-401 1588.15,-385.31 1594.43,-377.93 1585,-365 1573.96,-349.86 1558.6,-338.87 1541.62,-330.91"/>
<polygon fill="black" stroke="black" points="1542.61,-327.52 1532.04,-326.79 1539.85,-333.96 1542.61,-327.52"/>
<text text-anchor="middle" x="1552.03" y="-322.48" font-family="Times,serif" font-size="14.00">*0</text>
</g>
<!-- node13 -->
<g id="node9" class="node">
<title>node13</title>
<polygon fill="orange" stroke="black" points="1575.85,-375.54 1575.85,-390.46 1431.25,-401 1226.75,-401 1082.15,-390.46 1082.15,-375.54 1226.75,-365 1431.25,-365 1575.85,-375.54"/>
<text text-anchor="middle" x="1329" y="-379.3" font-family="Times,serif" font-size="14.00">#13 GetField : double_field : double Order : 16</text>
</g>
<!-- node4&#45;&gt;node13 -->
<g id="edge39" class="edge">
<title>node4&#45;&gt;node13</title>
<path fill="none" stroke="black" d="M1253.87,-1021.78C1263.49,-1011.76 1275.01,-998.47 1283,-985 1409.05,-772.68 1451.55,-715.91 1501,-474 1504.2,-458.32 1510.47,-450.9 1501,-438 1489.9,-422.89 1474.58,-411.89 1457.62,-403.91"/>
<polygon fill="black" stroke="black" points="1458.61,-400.53 1448.04,-399.78 1455.84,-406.95 1458.61,-400.53"/>
<text text-anchor="middle" x="1468.04" y="-395.5" font-family="Times,serif" font-size="14.00">*0</text>
</g>
<!-- node6 -->
<g id="node10" class="node">
<title>node6</title>
<polygon fill="orange" stroke="black" points="1145.85,-521.54 1145.85,-536.46 1018.82,-547 839.18,-547 712.15,-536.46 712.15,-521.54 839.18,-511 1018.82,-511 1145.85,-521.54"/>
<text text-anchor="middle" x="929" y="-525.3" font-family="Times,serif" font-size="14.00">#6 GetField : long_field : long Order : 14</text>
</g>
<!-- node4&#45;&gt;node6 -->
<g id="edge18" class="edge">
<title>node4&#45;&gt;node6</title>
<path fill="none" stroke="black" d="M1237.85,-1021.75C1241.43,-981.41 1246.19,-878.61 1212,-803 1164.1,-697.08 1159.37,-657.12 1069,-584 1051.09,-569.51 1028.86,-558.59 1007.42,-550.5"/>
<polygon fill="black" stroke="black" points="1008.56,-547.19 997.97,-547.09 1006.19,-553.78 1008.56,-547.19"/>
<text text-anchor="middle" x="1017.88" y="-541.59" font-family="Times,serif" font-size="14.00">*0</text>
</g>
<!-- node8 -->
<g id="node11" class="node">
<title>node8</title>
<polygon fill="orange" stroke="black" points="1060.49,-594.54 1060.49,-609.46 943.05,-620 776.95,-620 659.51,-609.46 659.51,-594.54 776.95,-584 943.05,-584 1060.49,-594.54"/>
<text text-anchor="middle" x="860" y="-598.3" font-family="Times,serif" font-size="14.00">#8 GetField : int_field : int Order : 13</text>
</g>
<!-- node4&#45;&gt;node8 -->
<g id="edge24" class="edge">
<title>node4&#45;&gt;node8</title>
<path fill="none" stroke="black" d="M1228.28,-1021.81C1225.99,-1016.21 1223.66,-1009.92 1222,-1004 1197.48,-916.78 1238.81,-878.01 1188,-803 1124.15,-708.74 999.62,-651.26 923.71,-623.42"/>
<polygon fill="black" stroke="black" points="924.84,-620.11 914.25,-620.01 922.47,-626.7 924.84,-620.11"/>
<text text-anchor="middle" x="934.17" y="-614.51" font-family="Times,serif" font-size="14.00">*0</text>
</g>
<!-- node7 -->
<g id="node12" class="node">
<title>node7</title>
<polygon fill="orange" stroke="black" points="617.64,-740.54 617.64,-755.46 485.46,-766 298.54,-766 166.36,-755.46 166.36,-740.54 298.54,-730 485.46,-730 617.64,-740.54"/>
<text text-anchor="middle" x="392" y="-744.3" font-family="Times,serif" font-size="14.00">#7 GetField : short_field : short Order : 11</text>
</g>
<!-- node4&#45;&gt;node7 -->
<g id="edge21" class="edge">
<title>node4&#45;&gt;node7</title>
<path fill="none" stroke="black" d="M1135.13,-1036.65C998.54,-1032.77 767.81,-1023.41 734,-1004 631.36,-945.1 683.23,-848.49 584,-784 572.76,-776.69 550.12,-770.56 524.2,-765.57"/>
<polygon fill="black" stroke="black" points="524.59,-762.09 514.13,-763.72 523.33,-768.97 524.59,-762.09"/>
<text text-anchor="middle" x="533.48" y="-754.99" font-family="Times,serif" font-size="14.00">*0</text>
</g>
<!-- node11 -->
<g id="node13" class="node">
<title>node11</title>
<polygon fill="orange" stroke="black" points="542.46,-813.54 542.46,-828.46 391.64,-839 178.36,-839 27.54,-828.46 27.54,-813.54 178.36,-803 391.64,-803 542.46,-813.54"/>
<text text-anchor="middle" x="285" y="-817.3" font-family="Times,serif" font-size="14.00">#11 GetField : boolean_field : boolean Order : 10</text>
</g>
<!-- node4&#45;&gt;node11 -->
<g id="edge33" class="edge">
<title>node4&#45;&gt;node11</title>
<path fill="none" stroke="black" d="M1135.28,-1034.64C990.68,-1028.05 737.09,-1015.14 696,-1004 678.42,-999.23 419.93,-863.7 403,-857 389.28,-851.57 374.37,-846.53 359.92,-842.05"/>
<polygon fill="black" stroke="black" points="360.59,-838.6 350,-839.04 358.56,-845.29 360.59,-838.6"/>
<text text-anchor="middle" x="369.8" y="-832.51" font-family="Times,serif" font-size="14.00">*0</text>
</g>
<!-- node12 -->
<g id="node14" class="node">
<title>node12</title>
<polygon fill="orange" stroke="black" points="831.92,-667.54 831.92,-682.46 700.75,-693 515.25,-693 384.08,-682.46 384.08,-667.54 515.25,-657 700.75,-657 831.92,-667.54"/>
<text text-anchor="middle" x="608" y="-671.3" font-family="Times,serif" font-size="14.00">#12 GetField : char_field : char Order : 12</text>
</g>
<!-- node4&#45;&gt;node12 -->
<g id="edge36" class="edge">
<title>node4&#45;&gt;node12</title>
<path fill="none" stroke="black" d="M1158.85,-1028.21C1035.57,-1009.53 801.83,-967.75 741,-912 722.24,-894.81 722,-883.44 722,-858 722,-858 722,-858 722,-747 722,-723.95 704.99,-708.11 684.12,-697.35"/>
<polygon fill="black" stroke="black" points="685.51,-694.14 674.97,-693.05 682.53,-700.47 685.51,-694.14"/>
<text text-anchor="middle" x="694.97" y="-689.42" font-family="Times,serif" font-size="14.00">*0</text>
</g>
<!-- node9 -->
<g id="node15" class="node">
<title>node9</title>
<polygon fill="orange" stroke="black" points="1976.79,-229.54 1976.79,-244.46 1847.46,-255 1664.54,-255 1535.21,-244.46 1535.21,-229.54 1664.54,-219 1847.46,-219 1976.79,-229.54"/>
<text text-anchor="middle" x="1756" y="-233.3" font-family="Times,serif" font-size="14.00">#9 GetField : array_field : int[] Order : 18</text>
</g>
<!-- node4&#45;&gt;node9 -->
<g id="edge27" class="edge">
<title>node4&#45;&gt;node9</title>
<path fill="none" stroke="black" d="M1336.64,-1034.35C1480.04,-1026.36 1726,-1006.98 1726,-968 1726,-968 1726,-968 1726,-711 1726,-645.19 1756,-631.81 1756,-566 1756,-566 1756,-566 1756,-309 1756,-294.65 1756,-278.67 1756,-265.51"/>
<polygon fill="black" stroke="black" points="1759.5,-265.22 1756,-255.22 1752.5,-265.22 1759.5,-265.22"/>
<text text-anchor="middle" x="1764.45" y="-269.64" font-family="Times,serif" font-size="14.00">*0</text>
</g>
<!-- node10 -->
<g id="node16" class="node">
<title>node10</title>
<polygon fill="orange" stroke="black" points="1491.92,-448.54 1491.92,-463.46 1360.75,-474 1175.25,-474 1044.08,-463.46 1044.08,-448.54 1175.25,-438 1360.75,-438 1491.92,-448.54"/>
<text text-anchor="middle" x="1268" y="-452.3" font-family="Times,serif" font-size="14.00">#10 GetField : float_field : float Order : 15</text>
</g>
<!-- node4&#45;&gt;node10 -->
<g id="edge30" class="edge">
<title>node4&#45;&gt;node10</title>
<path fill="none" stroke="black" d="M1245.84,-1021.93C1248.77,-1016.35 1251.79,-1010.03 1254,-1004 1276.96,-941.46 1288,-924.63 1288,-858 1288,-858 1288,-858 1288,-528 1288,-512.9 1283.76,-496.64 1279.18,-483.5"/>
<polygon fill="black" stroke="black" points="1282.45,-482.27 1275.68,-474.13 1275.9,-484.72 1282.45,-482.27"/>
<text text-anchor="middle" x="1289.94" y="-484.45" font-family="Times,serif" font-size="14.00">*0</text>
</g>
<!-- node4&#45;&gt;node14 -->
<g id="edge42" class="edge">
<title>node4&#45;&gt;node14</title>
<path fill="none" stroke="black" d="M1204.09,-1021.92C1155.15,-995.72 1061.59,-945.64 1007.79,-916.84"/>
<polygon fill="black" stroke="black" points="1009.34,-913.7 998.87,-912.06 1006.04,-919.87 1009.34,-913.7"/>
<text text-anchor="middle" x="1018.84" y="-909.46" font-family="Times,serif" font-size="14.00">*0</text>
</g>
<!-- node3&#45;&gt;node2 -->
<g id="edge9" class="edge">
<title>node3&#45;&gt;node2</title>
<path fill="none" stroke="green" stroke-width="2" d="M1543.86,-912.03C1544.71,-920.03 1544.95,-929.77 1544.59,-938.75"/>
<polygon fill="green" stroke="green" stroke-width="2" points="1541.09,-938.59 1543.88,-948.81 1548.07,-939.08 1541.09,-938.59"/>
</g>
<!-- node19 -->
<g id="node20" class="node">
<title>node19</title>
<polygon fill="lightgrey" stroke="black" points="1752,-182 1560,-182 1560,-146 1752,-146 1752,-182"/>
<text text-anchor="middle" x="1656" y="-160.3" font-family="Times,serif" font-size="14.00">#19 ClassInit Order : 19</text>
</g>
<!-- node3&#45;&gt;node19 -->
<g id="edge55" class="edge">
<title>node3&#45;&gt;node19</title>
<path fill="none" stroke="red" d="M1632.32,-876.59C1658.55,-866.26 1680,-849.42 1680,-822 1680,-822 1680,-822 1680,-346 1680,-320.56 1679.62,-309.34 1661,-292 1615.48,-249.59 1563.73,-304.46 1526,-255 1516.3,-242.28 1517.12,-232.31 1526,-219 1535.58,-204.64 1549.78,-194.1 1565.3,-186.35"/>
<polygon fill="red" stroke="red" points="1566.94,-189.45 1574.58,-182.11 1564.03,-183.09 1566.94,-189.45"/>
</g>
<!-- node5&#45;&gt;node1 -->
<g id="edge14" class="edge">
<title>node5&#45;&gt;node1</title>
<path fill="none" stroke="green" stroke-width="2" d="M1531.71,-326.75C1549.13,-331.55 1566.45,-337.82 1582,-346 1757.8,-438.51 1840,-512.34 1840,-711 1840,-1041 1840,-1041 1840,-1041 1840,-1091.4 1503.97,-1106.12 1333.19,-1110.34"/>
<polygon fill="green" stroke="green" stroke-width="2" points="1333.09,-1106.84 1323.18,-1110.58 1333.26,-1113.84 1333.09,-1106.84"/>
</g>
<!-- node5&#45;&gt;node9 -->
<g id="edge28" class="edge">
<title>node5&#45;&gt;node9</title>
<path fill="none" stroke="black" d="M1498.2,-291.99C1548.34,-281.49 1612.79,-267.99 1664.71,-257.12"/>
<polygon fill="black" stroke="black" points="1665.51,-260.53 1674.58,-255.05 1664.08,-253.68 1665.51,-260.53"/>
</g>
<!-- node20 -->
<g id="node21" class="node">
<title>node20</title>
<polygon fill="lightgrey" stroke="black" points="1567.5,-109 640.5,-109 640.5,-73 1567.5,-73 1567.5,-109"/>
<text text-anchor="middle" x="1104" y="-87.3" font-family="Times,serif" font-size="14.00">#20 Invoke static simple_method_return_boolean : (byte,boolean,short,char,int,long,float,double,String,int[])boolean Order : 20</text>
</g>
<!-- node5&#45;&gt;node20 -->
<g id="edge66" class="edge">
<title>node5&#45;&gt;node20</title>
<path fill="none" stroke="black" d="M1392.44,-291.97C1336.69,-253.33 1200.55,-158.94 1137.3,-115.09"/>
<polygon fill="black" stroke="black" points="1139.09,-112.07 1128.88,-109.25 1135.1,-117.82 1139.09,-112.07"/>
<text text-anchor="middle" x="1148.59" y="-108.93" font-family="Times,serif" font-size="14.00">*9</text>
</g>
<!-- node13&#45;&gt;node1 -->
<g id="edge38" class="edge">
<title>node13&#45;&gt;node1</title>
<path fill="none" stroke="green" stroke-width="2" d="M1440.01,-400.46C1459.74,-405.21 1479.79,-411.28 1498,-419 1670.47,-492.16 1802,-523.66 1802,-711 1802,-1041 1802,-1041 1802,-1041 1802,-1087.64 1495.57,-1104.08 1333.65,-1109.52"/>
<polygon fill="green" stroke="green" stroke-width="2" points="1333.08,-1106.03 1323.2,-1109.86 1333.31,-1113.03 1333.08,-1106.03"/>
</g>
<!-- node13&#45;&gt;node5 -->
<g id="edge16" class="edge">
<title>node13&#45;&gt;node5</title>
<path fill="none" stroke="black" d="M1350.3,-364.81C1361.65,-355.66 1375.78,-344.26 1388.1,-334.32"/>
<polygon fill="black" stroke="black" points="1390.31,-337.03 1395.89,-328.03 1385.91,-331.58 1390.31,-337.03"/>
</g>
<!-- node13&#45;&gt;node20 -->
<g id="edge65" class="edge">
<title>node13&#45;&gt;node20</title>
<path fill="none" stroke="black" d="M1232.22,-364.94C1181.17,-353.09 1129,-335.09 1129,-311 1129,-311 1129,-311 1129,-163 1129,-147.69 1123.77,-131.53 1118.09,-118.49"/>
<polygon fill="black" stroke="black" points="1121.15,-116.78 1113.74,-109.21 1114.81,-119.75 1121.15,-116.78"/>
<text text-anchor="middle" x="1129.08" y="-118.34" font-family="Times,serif" font-size="14.00">*8</text>
</g>
<!-- node6&#45;&gt;node1 -->
<g id="edge17" class="edge">
<title>node6&#45;&gt;node1</title>
<path fill="none" stroke="green" stroke-width="2" d="M834.74,-546.69C780.76,-556.66 711.86,-570.06 651,-584 427.84,-635.13 367.44,-639.82 157,-730 74.51,-765.35 0,-767.25 0,-857 0,-1041 0,-1041 0,-1041 0,-1097.92 846.54,-1109.26 1138.45,-1111.47"/>
<polygon fill="green" stroke="green" stroke-width="2" points="1138.57,-1114.97 1148.59,-1111.55 1138.62,-1107.97 1138.57,-1114.97"/>
</g>
<!-- node6&#45;&gt;node10 -->
<g id="edge31" class="edge">
<title>node6&#45;&gt;node10</title>
<path fill="none" stroke="black" d="M1010.2,-510.99C1060.34,-500.49 1124.79,-486.99 1176.71,-476.12"/>
<polygon fill="black" stroke="black" points="1177.51,-479.53 1186.58,-474.05 1176.08,-472.68 1177.51,-479.53"/>
</g>
<!-- node6&#45;&gt;node20 -->
<g id="edge63" class="edge">
<title>node6&#45;&gt;node20</title>
<path fill="none" stroke="black" d="M939.52,-510.89C947.1,-496.92 956,-476.39 956,-457 956,-457 956,-457 956,-163 956,-139.56 971.28,-123.85 992.02,-113.33"/>
<polygon fill="black" stroke="black" points="993.57,-116.47 1001.21,-109.13 990.66,-110.1 993.57,-116.47"/>
<text text-anchor="middle" x="988.23" y="-120.65" font-family="Times,serif" font-size="14.00">*6</text>
</g>
<!-- node8&#45;&gt;node1 -->
<g id="edge23" class="edge">
<title>node8&#45;&gt;node1</title>
<path fill="none" stroke="green" stroke-width="2" d="M859.69,-620.14C858.63,-639.21 854.72,-670.32 841,-693 801.3,-758.64 748.16,-737.65 708,-803 642.27,-909.96 647.76,-946.77 675,-985 728.09,-1059.51 992.57,-1092.42 1138.64,-1105.11"/>
<polygon fill="green" stroke="green" stroke-width="2" points="1138.69,-1108.63 1148.95,-1105.99 1139.29,-1101.65 1138.69,-1108.63"/>
</g>
<!-- node8&#45;&gt;node6 -->
<g id="edge19" class="edge">
<title>node8&#45;&gt;node6</title>
<path fill="none" stroke="black" d="M876.7,-583.81C885.26,-575 895.84,-564.13 905.23,-554.46"/>
<polygon fill="black" stroke="black" points="907.99,-556.64 912.45,-547.03 902.97,-551.76 907.99,-556.64"/>
</g>
<!-- node8&#45;&gt;node20 -->
<g id="edge62" class="edge">
<title>node8&#45;&gt;node20</title>
<path fill="none" stroke="black" d="M758.95,-585.54C703.54,-574.11 646,-555.98 646,-530 646,-530 646,-530 646,-163 646,-138.64 748.48,-121.44 856.49,-110.08"/>
<polygon fill="black" stroke="black" points="857.03,-113.54 866.62,-109.03 856.31,-106.58 857.03,-113.54"/>
<text text-anchor="middle" x="849.45" y="-115.6" font-family="Times,serif" font-size="14.00">*5</text>
</g>
<!-- node7&#45;&gt;node1 -->
<g id="edge20" class="edge">
<title>node7&#45;&gt;node1</title>
<path fill="none" stroke="green" stroke-width="2" d="M498.55,-765C519.09,-773.07 538.18,-785.11 551,-803 584.24,-849.39 532,-872.93 532,-930 532,-1041 532,-1041 532,-1041 532,-1068.38 556.17,-1067.9 582,-1077 633,-1094.97 969.36,-1105.56 1138.8,-1109.82"/>
<polygon fill="green" stroke="green" stroke-width="2" points="1138.89,-1113.32 1148.97,-1110.07 1139.06,-1106.32 1138.89,-1113.32"/>
</g>
<!-- node7&#45;&gt;node12 -->
<g id="edge37" class="edge">
<title>node7&#45;&gt;node12</title>
<path fill="none" stroke="black" d="M443.74,-729.99C474.5,-719.88 513.72,-706.99 546.12,-696.34"/>
<polygon fill="black" stroke="black" points="547.53,-699.56 555.94,-693.11 545.34,-692.91 547.53,-699.56"/>
</g>
<!-- node7&#45;&gt;node20 -->
<g id="edge60" class="edge">
<title>node7&#45;&gt;node20</title>
<path fill="none" stroke="black" d="M357.17,-729.98C337.97,-717.92 318,-699.68 318,-676 318,-676 318,-676 318,-163 318,-140.2 530.57,-121.91 734.62,-109.61"/>
<polygon fill="black" stroke="black" points="734.87,-113.1 744.64,-109.01 734.45,-106.11 734.87,-113.1"/>
<text text-anchor="middle" x="727.05" y="-114.83" font-family="Times,serif" font-size="14.00">*3</text>
</g>
<!-- node11&#45;&gt;node1 -->
<g id="edge32" class="edge">
<title>node11&#45;&gt;node1</title>
<path fill="none" stroke="green" stroke-width="2" d="M342.78,-839.02C366.72,-849.96 389,-867.09 389,-893 389,-1041 389,-1041 389,-1041 389,-1100.52 459.24,-1067.49 518,-1077 634.58,-1095.86 971.21,-1105.97 1138.81,-1109.95"/>
<polygon fill="green" stroke="green" stroke-width="2" points="1138.79,-1113.45 1148.87,-1110.19 1138.95,-1106.45 1138.79,-1113.45"/>
</g>
<!-- node11&#45;&gt;node7 -->
<g id="edge22" class="edge">
<title>node11&#45;&gt;node7</title>
<path fill="none" stroke="black" d="M310.63,-802.99C324.69,-793.67 342.31,-781.97 357.55,-771.86"/>
<polygon fill="black" stroke="black" points="359.81,-774.56 366.21,-766.11 355.94,-768.73 359.81,-774.56"/>
</g>
<!-- node11&#45;&gt;node20 -->
<g id="edge59" class="edge">
<title>node11&#45;&gt;node20</title>
<path fill="none" stroke="black" d="M200.08,-802.97C151.45,-790.7 100,-772.22 100,-749 100,-749 100,-749 100,-163 100,-133.99 370.15,-115.98 630.18,-105.35"/>
<polygon fill="black" stroke="black" points="630.36,-108.85 640.21,-104.95 630.07,-101.85 630.36,-108.85"/>
<text text-anchor="middle" x="622.44" y="-110.42" font-family="Times,serif" font-size="14.00">*2</text>
</g>
<!-- node12&#45;&gt;node1 -->
<g id="edge35" class="edge">
<title>node12&#45;&gt;node1</title>
<path fill="none" stroke="green" stroke-width="2" d="M615.7,-693.11C619.96,-703.54 624.82,-717.26 627,-730 629.69,-745.77 627.31,-750 627,-766 623.97,-924.59 595.37,-977.13 626,-1004 700.79,-1069.6 986.04,-1096.79 1138.52,-1106.82"/>
<polygon fill="green" stroke="green" stroke-width="2" points="1138.61,-1110.34 1148.82,-1107.49 1139.06,-1103.35 1138.61,-1110.34"/>
</g>
<!-- node12&#45;&gt;node8 -->
<g id="edge25" class="edge">
<title>node12&#45;&gt;node8</title>
<path fill="none" stroke="black" d="M668.36,-656.99C704.72,-646.75 751.19,-633.66 789.27,-622.93"/>
<polygon fill="black" stroke="black" points="790.58,-626.19 799.26,-620.11 788.68,-619.46 790.58,-626.19"/>
</g>
<!-- node12&#45;&gt;node20 -->
<g id="edge61" class="edge">
<title>node12&#45;&gt;node20</title>
<path fill="none" stroke="black" d="M608,-656.78C608,-642.41 608,-621.37 608,-603 608,-603 608,-603 608,-163 608,-137.88 708.99,-120.97 819.83,-109.98"/>
<polygon fill="black" stroke="black" points="820.27,-113.46 829.89,-109 819.59,-106.49 820.27,-113.46"/>
<text text-anchor="middle" x="812.66" y="-115.47" font-family="Times,serif" font-size="14.00">*4</text>
</g>
<!-- node9&#45;&gt;node1 -->
<g id="edge26" class="edge">
<title>node9&#45;&gt;node1</title>
<path fill="none" stroke="green" stroke-width="2" d="M1830.83,-255.07C1856.09,-265.61 1878,-282.41 1878,-309 1878,-1041 1878,-1041 1878,-1041 1878,-1095.11 1513.09,-1107.99 1333.5,-1111.05"/>
<polygon fill="green" stroke="green" stroke-width="2" points="1333.19,-1107.55 1323.25,-1111.21 1333.31,-1114.55 1333.19,-1107.55"/>
</g>
<!-- node9&#45;&gt;node19 -->
<g id="edge54" class="edge">
<title>node9&#45;&gt;node19</title>
<path fill="none" stroke="black" d="M1732.05,-218.99C1719.03,-209.75 1702.75,-198.19 1688.59,-188.14"/>
<polygon fill="black" stroke="black" points="1690.28,-185.05 1680.1,-182.11 1686.23,-190.76 1690.28,-185.05"/>
</g>
<!-- node9&#45;&gt;node20 -->
<g id="edge67" class="edge">
<title>node9&#45;&gt;node20</title>
<path fill="none" stroke="black" d="M1689.41,-218.92C1649.25,-208.5 1597.11,-194.78 1551,-182 1466.69,-158.63 1447.58,-145.15 1362,-127 1331.68,-120.57 1299.08,-115.07 1267.62,-110.47"/>
<polygon fill="black" stroke="black" points="1267.84,-106.96 1257.44,-109.01 1266.84,-113.89 1267.84,-106.96"/>
<text text-anchor="middle" x="1276.59" y="-99.52" font-family="Times,serif" font-size="14.00">*10</text>
</g>
<!-- node10&#45;&gt;node1 -->
<g id="edge29" class="edge">
<title>node10&#45;&gt;node1</title>
<path fill="none" stroke="green" stroke-width="2" d="M1411.46,-469.96C1557.95,-492 1764,-551.37 1764,-711 1764,-1041 1764,-1041 1764,-1041 1764,-1083.95 1486.07,-1101.95 1333.5,-1108.6"/>
<polygon fill="green" stroke="green" stroke-width="2" points="1333.03,-1105.11 1323.19,-1109.04 1333.33,-1112.11 1333.03,-1105.11"/>
</g>
<!-- node10&#45;&gt;node13 -->
<g id="edge40" class="edge">
<title>node10&#45;&gt;node13</title>
<path fill="none" stroke="black" d="M1282.77,-437.81C1290.26,-429.09 1299.5,-418.34 1307.74,-408.75"/>
<polygon fill="black" stroke="black" points="1310.51,-410.89 1314.37,-401.03 1305.2,-406.33 1310.51,-410.89"/>
</g>
<!-- node10&#45;&gt;node20 -->
<g id="edge64" class="edge">
<title>node10&#45;&gt;node20</title>
<path fill="none" stroke="black" d="M1163.82,-438.89C1109.4,-427.42 1054,-409.49 1054,-384 1054,-384 1054,-384 1054,-163 1054,-145.4 1064.4,-129.08 1075.72,-116.54"/>
<polygon fill="black" stroke="black" points="1078.35,-118.86 1082.8,-109.24 1073.32,-113.98 1078.35,-118.86"/>
<text text-anchor="middle" x="1076.24" y="-124.44" font-family="Times,serif" font-size="14.00">*7</text>
</g>
<!-- node14&#45;&gt;node1 -->
<g id="edge41" class="edge">
<title>node14&#45;&gt;node1</title>
<path fill="none" stroke="green" stroke-width="2" d="M980.32,-912.12C1005.83,-944.04 1064.54,-1013.46 1126,-1058 1143.62,-1070.77 1164.71,-1081.95 1183.7,-1090.78"/>
<polygon fill="green" stroke="green" stroke-width="2" points="1182.27,-1093.97 1192.82,-1094.92 1185.16,-1087.6 1182.27,-1093.97"/>
</g>
<!-- node14&#45;&gt;node11 -->
<g id="edge34" class="edge">
<title>node14&#45;&gt;node11</title>
<path fill="none" stroke="black" d="M835.91,-879.35C721.5,-867.44 555.49,-850.16 435.65,-837.68"/>
<polygon fill="black" stroke="black" points="435.96,-834.2 425.65,-836.64 435.24,-841.16 435.96,-834.2"/>
</g>
<!-- node14&#45;&gt;node20 -->
<g id="edge58" class="edge">
<title>node14&#45;&gt;node20</title>
<path fill="none" stroke="black" d="M1066.26,-876.68C1119.38,-865.03 1174,-846.98 1174,-822 1174,-822 1174,-822 1174,-565 1174,-539.56 1173.34,-528.63 1155,-511 1114.77,-472.32 1075.23,-512.68 1035,-474 1016.66,-456.37 1016,-445.44 1016,-420 1016,-420 1016,-420 1016,-163 1016,-141.66 1031.87,-125.64 1050.13,-114.27"/>
<polygon fill="black" stroke="black" points="1052.29,-117.07 1059.23,-109.06 1048.81,-110.99 1052.29,-117.07"/>
<text text-anchor="middle" x="1047.7" y="-121.7" font-family="Times,serif" font-size="14.00">*1</text>
</g>
<!-- node15&#45;&gt;node0 -->
<g id="edge44" class="edge">
<title>node15&#45;&gt;node0</title>
<path fill="none" stroke="green" stroke-width="2" d="M2382.79,-1204.03C2351.88,-1211.12 2313.75,-1218.68 2279,-1223 2094.91,-1245.87 2046.26,-1219.54 1862,-1241 1860.49,-1241.18 1858.96,-1241.36 1857.42,-1241.56"/>
<polygon fill="green" stroke="green" stroke-width="2" points="1856.58,-1238.14 1847.16,-1242.99 1857.55,-1245.08 1856.58,-1238.14"/>
</g>
<!-- node18&#45;&gt;node0 -->
<g id="edge50" class="edge">
<title>node18&#45;&gt;node0</title>
<path fill="none" stroke="green" stroke-width="2" d="M1920.9,-1204.11C1893.69,-1214.2 1857.84,-1227.03 1827.25,-1237.63"/>
<polygon fill="green" stroke="green" stroke-width="2" points="1825.83,-1234.42 1817.52,-1240.99 1828.12,-1241.04 1825.83,-1234.42"/>
</g>
<!-- node18&#45;&gt;node19 -->
<g id="edge53" class="edge">
<title>node18&#45;&gt;node19</title>
<path fill="none" stroke="black" d="M1980.08,-1167.96C1991.71,-1154.51 2005,-1134.62 2005,-1114 2005,-1114 2005,-1114 2005,-236 2005,-185.89 1865.07,-170.77 1762.41,-166.42"/>
<polygon fill="black" stroke="black" points="1762.42,-162.92 1752.29,-166.02 1762.14,-169.91 1762.42,-162.92"/>
<text text-anchor="middle" x="1770.73" y="-154.59" font-family="Times,serif" font-size="14.00">*0</text>
</g>
<!-- node19&#45;&gt;node0 -->
<g id="edge52" class="edge">
<title>node19&#45;&gt;node0</title>
<path fill="none" stroke="green" stroke-width="2" d="M1752.29,-167.53C1912.89,-173.04 2218,-189.62 2218,-236 2218,-1187 2218,-1187 2218,-1187 2218,-1266.03 1954.25,-1231.67 1857.5,-1240.66"/>
<polygon fill="green" stroke="green" stroke-width="2" points="1856.86,-1237.21 1847.34,-1241.87 1857.69,-1244.17 1856.86,-1237.21"/>
</g>
<!-- node19&#45;&gt;node20 -->
<g id="edge57" class="edge">
<title>node19&#45;&gt;node20</title>
<path fill="none" stroke="black" d="M1595.48,-145.93C1574.09,-138.93 1550.17,-131.44 1528,-127 1493.94,-120.18 1458.14,-114.67 1422.39,-110.23"/>
<polygon fill="black" stroke="black" points="1422.66,-106.74 1412.31,-109.01 1421.82,-113.69 1422.66,-106.74"/>
<text text-anchor="middle" x="1431.32" y="-99.1" font-family="Times,serif" font-size="14.00">*0</text>
</g>
<!-- node19&#45;&gt;node20 -->
<g id="edge68" class="edge">
<title>node19&#45;&gt;node20</title>
<path fill="none" stroke="black" d="M1611.95,-145.93C1592.09,-138.93 1568.17,-131.44 1546,-127 1511.94,-120.18 1476.14,-114.67 1440.29,-110.23"/>
<polygon fill="black" stroke="black" points="1440.53,-106.74 1430.18,-109.01 1439.69,-113.69 1440.53,-106.74"/>
</g>
<!-- node19&#45;&gt;node20 -->
<g id="edge69" class="edge">
<title>node19&#45;&gt;node20</title>
<path fill="none" stroke="red" d="M1628.18,-145.84C1609.88,-138.86 1586.07,-131.42 1564,-127 1529.94,-120.18 1494.14,-114.67 1458.2,-110.23"/>
<polygon fill="red" stroke="red" points="1458.4,-106.73 1448.05,-109.01 1457.56,-113.68 1458.4,-106.73"/>
</g>
<!-- node20&#45;&gt;node0 -->
<g id="edge56" class="edge">
<title>node20&#45;&gt;node0</title>
<path fill="none" stroke="green" stroke-width="2" d="M1567.58,-100.03C1887.69,-108.79 2256,-126.74 2256,-163 2256,-1187 2256,-1187 2256,-1187 2256,-1216.22 2228.77,-1213.93 2201,-1223 2130.26,-1246.1 1945.12,-1232.85 1857.51,-1240.66"/>
<polygon fill="green" stroke="green" stroke-width="2" points="1856.91,-1237.21 1847.32,-1241.73 1857.63,-1244.17 1856.91,-1237.21"/>
</g>
<!-- node21 -->
<g id="node22" class="node">
<title>node21</title>
<polygon fill="lightgrey" stroke="black" points="1229.5,-36 978.5,-36 978.5,0 1229.5,0 1229.5,-36"/>
<text text-anchor="middle" x="1104" y="-14.3" font-family="Times,serif" font-size="14.00">#21 ReturnValue : int Order : 21</text>
</g>
<!-- node20&#45;&gt;node21 -->
<g id="edge71" class="edge">
<title>node20&#45;&gt;node21</title>
<path fill="none" stroke="black" d="M1086.37,-72.81C1083.85,-64.79 1083.15,-55.05 1084.27,-46.07"/>
<polygon fill="black" stroke="black" points="1087.74,-46.54 1086.42,-36.03 1080.9,-45.07 1087.74,-46.54"/>
<text text-anchor="middle" x="1090.89" y="-51.82" font-family="Times,serif" font-size="14.00">*0</text>
</g>
<!-- node20&#45;&gt;node21 -->
<g id="edge72" class="edge">
<title>node20&#45;&gt;node21</title>
<path fill="none" stroke="red" d="M1109.88,-72.81C1110.72,-64.79 1110.95,-55.05 1110.58,-46.07"/>
<polygon fill="red" stroke="red" points="1114.06,-45.75 1109.86,-36.03 1107.08,-46.25 1114.06,-45.75"/>
</g>
<!-- node20&#45;&gt;node21 -->
<g id="edge73" class="edge">
<title>node20&#45;&gt;node21</title>
<path fill="none" stroke="black" d="M1121.63,-72.81C1124.15,-64.79 1124.85,-55.05 1123.73,-46.07"/>
<polygon fill="black" stroke="black" points="1127.1,-45.07 1121.58,-36.03 1120.26,-46.54 1127.1,-45.07"/>
</g>
<!-- node21&#45;&gt;node20 -->
<g id="edge70" class="edge">
<title>node21&#45;&gt;node20</title>
<path fill="none" stroke="green" stroke-width="2" d="M1098.14,-36.03C1097.29,-44.03 1097.05,-53.77 1097.41,-62.75"/>
<polygon fill="green" stroke="green" stroke-width="2" points="1093.93,-63.08 1098.12,-72.81 1100.91,-62.59 1093.93,-63.08"/>
</g>
<!-- c0 -->
<!-- c1 -->
<!-- c0&#45;&gt;c1 -->
<g id="edge74" class="edge">
<title>c0&#45;&gt;c1</title>
<path fill="none" stroke="red" d="M2578.89,-1259C2590.11,-1259 2648.24,-1259 2673.86,-1259"/>
<polygon fill="red" stroke="red" points="2674.06,-1262.5 2684.06,-1259 2674.06,-1255.5 2674.06,-1262.5"/>
<text text-anchor="middle" x="2631.5" y="-1265.8" font-family="Times,serif" font-size="14.00">Control flow</text>
</g>
<!-- c2 -->
<!-- c3 -->
<!-- c2&#45;&gt;c3 -->
<g id="edge75" class="edge">
<title>c2&#45;&gt;c3</title>
<path fill="none" stroke="red" stroke-dasharray="5,2" d="M2372.08,-1259C2389.05,-1259 2505.21,-1259 2543.08,-1259"/>
<polygon fill="red" stroke="red" points="2543.17,-1262.5 2553.17,-1259 2543.17,-1255.5 2543.17,-1262.5"/>
<text text-anchor="middle" x="2462.5" y="-1265.8" font-family="Times,serif" font-size="14.00">Control flow back edge</text>
</g>
<!-- d0 -->
<!-- d1 -->
<!-- d0&#45;&gt;d1 -->
<g id="edge76" class="edge">
<title>d0&#45;&gt;d1</title>
<path fill="none" stroke="black" d="M2260.86,-1259C2270.41,-1259 2314.31,-1259 2335.92,-1259"/>
<polygon fill="black" stroke="black" points="2336.15,-1262.5 2346.15,-1259 2336.15,-1255.5 2336.15,-1262.5"/>
<text text-anchor="middle" x="2303.5" y="-1265.8" font-family="Times,serif" font-size="14.00">Data flow</text>
</g>
<!-- d2 -->
<!-- d3 -->
<!-- d2&#45;&gt;d3 -->
<g id="edge77" class="edge">
<title>d2&#45;&gt;d3</title>
<path fill="none" stroke="black" stroke-dasharray="1,5" d="M2134.81,-1259C2145.46,-1259 2200.46,-1259 2225.08,-1259"/>
<polygon fill="black" stroke="black" points="2225.15,-1262.5 2235.15,-1259 2225.15,-1255.5 2225.15,-1262.5"/>
<text text-anchor="middle" x="2185" y="-1265.8" font-family="Times,serif" font-size="14.00">Declaration</text>
</g>
<!-- d4 -->
<!-- d5 -->
<!-- d4&#45;&gt;d5 -->
<g id="edge78" class="edge">
<title>d4&#45;&gt;d5</title>
<path fill="none" stroke="blue" d="M1992.1,-1259C2004.72,-1259 2070.88,-1259 2098.68,-1259"/>
<polygon fill="blue" stroke="blue" points="2098.84,-1262.5 2108.84,-1259 2098.84,-1255.5 2098.84,-1262.5"/>
<text text-anchor="middle" x="2050.5" y="-1265.8" font-family="Times,serif" font-size="14.00">PHI Data flow</text>
</g>
<!-- d6 -->
<!-- d7 -->
<!-- d6&#45;&gt;d7 -->
<g id="edge79" class="edge">
<title>d6&#45;&gt;d7</title>
<path fill="none" stroke="green" d="M1869.11,-1259C1880.15,-1259 1931.67,-1259 1955.66,-1259"/>
<polygon fill="green" stroke="green" points="1955.9,-1262.5 1965.9,-1259 1955.9,-1255.5 1955.9,-1262.5"/>
<text text-anchor="middle" x="1917.5" y="-1265.8" font-family="Times,serif" font-size="14.00">Dominance</text>
</g>
</g>
</svg>
