<?xml version="1.0" encoding="UTF-8" standalone="no"?>
<!DOCTYPE svg PUBLIC "-//W3C//DTD SVG 1.1//EN"
 "http://www.w3.org/Graphics/SVG/1.1/DTD/svg11.dtd">
<!-- Generated by graphviz version 2.43.0 (0)
 -->
<!-- Title: %3 Pages: 1 -->
<svg width="4247pt" height="662pt"
 viewBox="0.00 0.00 4247.05 662.00" xmlns="http://www.w3.org/2000/svg" xmlns:xlink="http://www.w3.org/1999/xlink">
<g id="graph0" class="graph" transform="scale(1 1) rotate(0) translate(4 658)">
<title>%3</title>
<polygon fill="white" stroke="transparent" points="-4,4 -4,-658 4243.05,-658 4243.05,4 -4,4"/>
<g id="clust1" class="cluster">
<title>cluster_0</title>
<polygon fill="none" stroke="lightgray" points="8,-503 8,-646 734,-646 734,-503 8,-503"/>
</g>
<g id="clust2" class="cluster">
<title>cluster_000</title>
<polygon fill="none" stroke="black" points="742,-601.2 742,-643.8 1595,-643.8 1595,-601.2 742,-601.2"/>
<text text-anchor="middle" x="1168.5" y="-628.6" font-family="Times,serif" font-size="14.00">Legend</text>
</g>
<!-- node0 -->
<g id="node1" class="node">
<title>node0</title>
<polygon fill="lightgrey" stroke="transparent" points="625.5,-638 440.5,-638 440.5,-584 625.5,-584 625.5,-638"/>
<polygon fill="none" stroke="black" points="441,-611 441,-638 626,-638 626,-611 441,-611"/>
<text text-anchor="start" x="493" y="-620.8" font-family="Times,serif" font-size="14.00">#0 Method</text>
<polygon fill="yellow" stroke="transparent" points="441,-584 441,-611 626,-611 626,-584 441,-584"/>
<polygon fill="none" stroke="black" points="441,-584 441,-611 626,-611 626,-584 441,-584"/>
<text text-anchor="start" x="447" y="-593.8" font-family="Times,serif" font-size="14.00">this : MethodInvokeTest</text>
</g>
<!-- node5 -->
<g id="node2" class="node">
<title>node5</title>
<polygon fill="lightgreen" stroke="black" points="321.82,-521.54 321.82,-536.46 232.3,-547 105.7,-547 16.18,-536.46 16.18,-521.54 105.7,-511 232.3,-511 321.82,-521.54"/>
<text text-anchor="middle" x="169" y="-525.3" font-family="Times,serif" font-size="14.00">#5 Class MethodInvokeTest</text>
</g>
<!-- node0&#45;&gt;node5 -->
<g id="edge1" class="edge">
<title>node0&#45;&gt;node5</title>
<path fill="none" stroke="black" stroke-dasharray="1,5" d="M440.21,-589.61C381.99,-576.81 307.59,-560.46 251.44,-548.12"/>
<polygon fill="black" stroke="black" points="252.05,-544.67 241.54,-545.94 250.55,-551.51 252.05,-544.67"/>
</g>
<!-- node4 -->
<g id="node8" class="node">
<title>node4</title>
<polygon fill="lightgrey" stroke="black" points="825.5,-474 720.5,-474 720.5,-438 825.5,-438 825.5,-474"/>
<text text-anchor="middle" x="773" y="-452.3" font-family="Times,serif" font-size="14.00">#4 ClassInit</text>
</g>
<!-- node0&#45;&gt;node4 -->
<g id="edge13" class="edge">
<title>node0&#45;&gt;node4</title>
<path fill="none" stroke="green" d="M625.77,-584.91C674.6,-571.02 726.19,-554.99 735,-547 753.18,-530.5 762.95,-503.88 768.01,-483.87"/>
<polygon fill="green" stroke="green" points="771.43,-484.62 770.25,-474.09 764.61,-483.06 771.43,-484.62"/>
</g>
<!-- node3 -->
<g id="node9" class="node">
<title>node3</title>
<polygon fill="lightgreen" stroke="black" points="726.42,-521.54 726.42,-536.46 613.12,-547 452.88,-547 339.58,-536.46 339.58,-521.54 452.88,-511 613.12,-511 726.42,-521.54"/>
<text text-anchor="middle" x="533" y="-525.3" font-family="Times,serif" font-size="14.00">#3 Class MethodInvokeTest$Source</text>
</g>
<!-- node0&#45;&gt;node3 -->
<g id="edge15" class="edge">
<title>node0&#45;&gt;node3</title>
<path fill="none" stroke="black" stroke-dasharray="1,5" d="M533,-583.81C533,-575.35 533,-565.95 533,-557.4"/>
<polygon fill="black" stroke="black" points="536.5,-557.17 533,-547.17 529.5,-557.17 536.5,-557.17"/>
</g>
<!-- node2 -->
<g id="node10" class="node">
<title>node2</title>
<polygon fill="lightgrey" stroke="black" points="901.5,-547 782.5,-547 782.5,-511 901.5,-511 901.5,-547"/>
<text text-anchor="middle" x="842" y="-525.3" font-family="Times,serif" font-size="14.00">#2 LabelNode</text>
</g>
<!-- node0&#45;&gt;node2 -->
<g id="edge14" class="edge">
<title>node0&#45;&gt;node2</title>
<path fill="none" stroke="red" d="M625.71,-586C672.88,-573.79 729.25,-559.19 772.61,-547.97"/>
<polygon fill="red" stroke="red" points="773.69,-551.3 782.5,-545.41 771.94,-544.52 773.69,-551.3"/>
</g>
<!-- node19 -->
<g id="node3" class="node">
<title>node19</title>
<polygon fill="lightgrey" stroke="black" points="1227,-182 1113,-182 1113,-146 1227,-146 1227,-182"/>
<text text-anchor="middle" x="1170" y="-160.3" font-family="Times,serif" font-size="14.00">#19 ClassInit</text>
</g>
<!-- node5&#45;&gt;node19 -->
<g id="edge2" class="edge">
<title>node5&#45;&gt;node19</title>
<path fill="none" stroke="black" d="M169,-510.78C169,-496.41 169,-475.37 169,-457 169,-457 169,-457 169,-236 169,-189.08 878.03,-170.85 1102.63,-166.25"/>
<polygon fill="black" stroke="black" points="1103.02,-169.74 1112.95,-166.04 1102.88,-162.74 1103.02,-169.74"/>
<text text-anchor="middle" x="1095" y="-171.16" font-family="Times,serif" font-size="14.00">*0</text>
</g>
<!-- node20 -->
<g id="node20" class="node">
<title>node20</title>
<polygon fill="lightgrey" stroke="black" points="2206.5,-109 1405.5,-109 1405.5,-73 2206.5,-73 2206.5,-109"/>
<text text-anchor="middle" x="1806" y="-87.3" font-family="Times,serif" font-size="14.00">#20 Invoke static simple_method_return_char : (byte,boolean,short,char,int,long,float,double,String,int[])char</text>
</g>
<!-- node19&#45;&gt;node20 -->
<g id="edge34" class="edge">
<title>node19&#45;&gt;node20</title>
<path fill="none" stroke="black" d="M1187.03,-145.94C1201.01,-138.81 1220.03,-131.21 1238,-127 1271.28,-119.21 1328.84,-113.04 1394.91,-108.19"/>
<polygon fill="black" stroke="black" points="1395.43,-111.66 1405.16,-107.46 1394.93,-104.68 1395.43,-111.66"/>
<text text-anchor="middle" x="1387.68" y="-113.49" font-family="Times,serif" font-size="14.00">*0</text>
</g>
<!-- node19&#45;&gt;node20 -->
<g id="edge45" class="edge">
<title>node19&#45;&gt;node20</title>
<path fill="none" stroke="green" d="M1203.44,-145.94C1219.01,-138.81 1238.03,-131.21 1256,-127 1286.33,-119.9 1336.8,-114.15 1395.22,-109.52"/>
<polygon fill="green" stroke="green" points="1395.74,-112.99 1405.44,-108.72 1395.2,-106.01 1395.74,-112.99"/>
</g>
<!-- node19&#45;&gt;node20 -->
<g id="edge46" class="edge">
<title>node19&#45;&gt;node20</title>
<path fill="none" stroke="red" d="M1219.85,-145.94C1237.01,-138.81 1256.03,-131.21 1274,-127 1303.66,-120.06 1352.59,-114.4 1409.1,-109.82"/>
<polygon fill="red" stroke="red" points="1409.67,-113.29 1419.36,-109.01 1409.11,-106.31 1409.67,-113.29"/>
</g>
<!-- node17 -->
<g id="node4" class="node">
<title>node17</title>
<polygon fill="orange" stroke="black" points="3411.21,-302.54 3411.21,-317.46 3310.33,-328 3167.67,-328 3066.79,-317.46 3066.79,-302.54 3167.67,-292 3310.33,-292 3411.21,-302.54"/>
<text text-anchor="middle" x="3239" y="-306.3" font-family="Times,serif" font-size="14.00">#17 GetField : array_field : int[]</text>
</g>
<!-- node17&#45;&gt;node19 -->
<g id="edge3" class="edge">
<title>node17&#45;&gt;node19</title>
<path fill="none" stroke="green" d="M3122.26,-296.74C3100.9,-294.86 3078.8,-293.17 3058,-292 2166.81,-242.01 1941.91,-290.11 1050,-255 850.9,-247.16 291.58,-346.07 155,-201 122.3,-166.27 870.32,-164.53 1102.38,-164.82"/>
<polygon fill="green" stroke="green" points="1102.71,-168.33 1112.71,-164.84 1102.72,-161.33 1102.71,-168.33"/>
</g>
<!-- node17&#45;&gt;node20 -->
<g id="edge44" class="edge">
<title>node17&#45;&gt;node20</title>
<path fill="none" stroke="black" d="M3145.01,-294.29C2959.96,-265.4 2535.34,-199.38 2178,-146 2097.25,-133.94 2006.57,-120.77 1934.96,-110.45"/>
<polygon fill="black" stroke="black" points="1935.38,-106.98 1924.99,-109.02 1934.38,-113.91 1935.38,-106.98"/>
<text text-anchor="middle" x="1944.13" y="-99.53" font-family="Times,serif" font-size="14.00">*10</text>
</g>
<!-- node18 -->
<g id="node5" class="node">
<title>node18</title>
<polygon fill="lightgrey" stroke="black" points="1187,-255 1059,-255 1059,-219 1187,-219 1187,-255"/>
<text text-anchor="middle" x="1123" y="-233.3" font-family="Times,serif" font-size="14.00">#18 LabelNode</text>
</g>
<!-- node18&#45;&gt;node19 -->
<g id="edge4" class="edge">
<title>node18&#45;&gt;node19</title>
<path fill="none" stroke="red" d="M1134.38,-218.81C1139.98,-210.35 1146.84,-199.98 1153.05,-190.61"/>
<polygon fill="red" stroke="red" points="1156.13,-192.3 1158.73,-182.03 1150.29,-188.44 1156.13,-192.3"/>
</g>
<!-- node7 -->
<g id="node6" class="node">
<title>node7</title>
<polygon fill="lightgrey" stroke="black" points="803,-328 553,-328 553,-292 803,-292 803,-328"/>
<text text-anchor="middle" x="678" y="-306.3" font-family="Times,serif" font-size="14.00">#7 Invoke special &lt;init&gt; : ()void</text>
</g>
<!-- node7&#45;&gt;node18 -->
<g id="edge5" class="edge">
<title>node7&#45;&gt;node18</title>
<path fill="none" stroke="red" d="M784.59,-291.99C866.24,-278.97 976.79,-261.33 1048.98,-249.81"/>
<polygon fill="red" stroke="red" points="1049.58,-253.26 1058.91,-248.23 1048.48,-246.35 1049.58,-253.26"/>
</g>
<!-- node8 -->
<g id="node19" class="node">
<title>node8</title>
<polygon fill="orange" stroke="black" points="3048.51,-302.54 3048.51,-317.46 2953.32,-328 2818.68,-328 2723.49,-317.46 2723.49,-302.54 2818.68,-292 2953.32,-292 3048.51,-302.54"/>
<text text-anchor="middle" x="2886" y="-306.3" font-family="Times,serif" font-size="14.00">#8 GetField : byte_field : byte</text>
</g>
<!-- node7&#45;&gt;node8 -->
<g id="edge33" class="edge">
<title>node7&#45;&gt;node8</title>
<path fill="none" stroke="green" d="M735.12,-328.07C761.04,-335.36 792.27,-342.89 821,-346.5 1026.83,-372.35 2481.42,-365.38 2688,-346.5 2725.23,-343.1 2765.9,-336.17 2800.65,-329.25"/>
<polygon fill="green" stroke="green" points="2801.65,-332.62 2810.76,-327.21 2800.26,-325.76 2801.65,-332.62"/>
</g>
<!-- node6 -->
<g id="node7" class="node">
<title>node6</title>
<polygon fill="orange" stroke="black" points="1943.12,-375.54 1943.12,-390.46 1912.59,-401 1869.41,-401 1838.88,-390.46 1838.88,-375.54 1869.41,-365 1912.59,-365 1943.12,-375.54"/>
<text text-anchor="middle" x="1891" y="-379.3" font-family="Times,serif" font-size="14.00">#6 New</text>
</g>
<!-- node6&#45;&gt;node17 -->
<g id="edge47" class="edge">
<title>node6&#45;&gt;node17</title>
<path fill="none" stroke="black" d="M1943.1,-380.47C2107.18,-375.46 2627.81,-358.14 3058,-328 3074.71,-326.83 3092.28,-325.41 3109.62,-323.9"/>
<polygon fill="black" stroke="black" points="3110.14,-327.37 3119.8,-323.01 3109.53,-320.4 3110.14,-327.37"/>
<text text-anchor="middle" x="3102.49" y="-329.32" font-family="Times,serif" font-size="14.00">*0</text>
</g>
<!-- node6&#45;&gt;node7 -->
<g id="edge6" class="edge">
<title>node6&#45;&gt;node7</title>
<path fill="none" stroke="black" d="M1838.86,-379.54C1720.53,-373.65 1423.26,-358.33 1175,-346 1013.07,-337.96 969.66,-342.24 812.66,-328.83"/>
<polygon fill="black" stroke="black" points="812.91,-325.34 802.65,-327.97 812.31,-332.32 812.91,-325.34"/>
<text text-anchor="middle" x="821.44" y="-317.41" font-family="Times,serif" font-size="14.00">*0</text>
</g>
<!-- node6&#45;&gt;node7 -->
<g id="edge8" class="edge">
<title>node6&#45;&gt;node7</title>
<path fill="none" stroke="green" d="M1838.64,-379.03C1722.4,-372.82 1434.51,-357.99 1193,-346 1027.68,-337.79 985.9,-342.43 821,-328 818.44,-327.78 815.86,-327.54 813.26,-327.29"/>
<polygon fill="green" stroke="green" points="813.44,-323.8 803.14,-326.3 812.75,-330.76 813.44,-323.8"/>
</g>
<!-- node16 -->
<g id="node11" class="node">
<title>node16</title>
<polygon fill="orange" stroke="black" points="3819.35,-302.54 3819.35,-317.46 3710.19,-328 3555.81,-328 3446.65,-317.46 3446.65,-302.54 3555.81,-292 3710.19,-292 3819.35,-302.54"/>
<text text-anchor="middle" x="3633" y="-306.3" font-family="Times,serif" font-size="14.00">#16 GetField : string_field : String</text>
</g>
<!-- node6&#45;&gt;node16 -->
<g id="edge16" class="edge">
<title>node6&#45;&gt;node16</title>
<path fill="none" stroke="black" d="M1943.18,-381C2138,-377.07 2841.25,-361.3 3420,-328 3442.34,-326.71 3465.98,-325.09 3489.07,-323.36"/>
<polygon fill="black" stroke="black" points="3489.56,-326.83 3499.27,-322.59 3489.03,-319.85 3489.56,-326.83"/>
<text text-anchor="middle" x="3481.84" y="-328.69" font-family="Times,serif" font-size="14.00">*0</text>
</g>
<!-- node15 -->
<g id="node12" class="node">
<title>node15</title>
<polygon fill="orange" stroke="black" points="4239.11,-302.54 4239.11,-317.46 4126.57,-328 3967.43,-328 3854.89,-317.46 3854.89,-302.54 3967.43,-292 4126.57,-292 4239.11,-302.54"/>
<text text-anchor="middle" x="4047" y="-306.3" font-family="Times,serif" font-size="14.00">#15 GetField : double_field : double</text>
</g>
<!-- node6&#45;&gt;node15 -->
<g id="edge18" class="edge">
<title>node6&#45;&gt;node15</title>
<path fill="none" stroke="black" d="M1943.43,-381.49C2169.15,-379.11 3080.51,-367.41 3828,-328 3851.33,-326.77 3876.03,-325.16 3900.11,-323.41"/>
<polygon fill="black" stroke="black" points="3900.67,-326.88 3910.39,-322.66 3900.16,-319.9 3900.67,-326.88"/>
<text text-anchor="middle" x="3892.93" y="-328.71" font-family="Times,serif" font-size="14.00">*0</text>
</g>
<!-- node14 -->
<g id="node13" class="node">
<title>node14</title>
<polygon fill="orange" stroke="black" points="534.68,-302.54 534.68,-317.46 435.87,-328 296.13,-328 197.32,-317.46 197.32,-302.54 296.13,-292 435.87,-292 534.68,-302.54"/>
<text text-anchor="middle" x="366" y="-306.3" font-family="Times,serif" font-size="14.00">#14 GetField : float_field : float</text>
</g>
<!-- node6&#45;&gt;node14 -->
<g id="edge20" class="edge">
<title>node6&#45;&gt;node14</title>
<path fill="none" stroke="black" d="M1838.94,-380.95C1659.15,-377.09 1047.79,-362.13 544,-328 527.43,-326.88 510.01,-325.48 492.82,-323.98"/>
<polygon fill="black" stroke="black" points="493.01,-320.48 482.74,-323.08 492.39,-327.45 493.01,-320.48"/>
<text text-anchor="middle" x="501.54" y="-312.57" font-family="Times,serif" font-size="14.00">*0</text>
</g>
<!-- node13 -->
<g id="node14" class="node">
<title>node13</title>
<polygon fill="orange" stroke="black" points="1157.27,-302.54 1157.27,-317.46 1058.7,-328 919.3,-328 820.73,-317.46 820.73,-302.54 919.3,-292 1058.7,-292 1157.27,-302.54"/>
<text text-anchor="middle" x="989" y="-306.3" font-family="Times,serif" font-size="14.00">#13 GetField : long_field : long</text>
</g>
<!-- node6&#45;&gt;node13 -->
<g id="edge22" class="edge">
<title>node6&#45;&gt;node13</title>
<path fill="none" stroke="black" d="M1838.66,-378.2C1721.41,-369.63 1428.77,-348.02 1184,-328 1164.66,-326.42 1144.25,-324.7 1124.2,-322.98"/>
<polygon fill="black" stroke="black" points="1124.34,-319.47 1114.08,-322.1 1123.74,-326.45 1124.34,-319.47"/>
<text text-anchor="middle" x="1132.86" y="-311.54" font-family="Times,serif" font-size="14.00">*0</text>
</g>
<!-- node12 -->
<g id="node15" class="node">
<title>node12</title>
<polygon fill="orange" stroke="black" points="1496.91,-302.54 1496.91,-317.46 1407.92,-328 1282.08,-328 1193.09,-317.46 1193.09,-302.54 1282.08,-292 1407.92,-292 1496.91,-302.54"/>
<text text-anchor="middle" x="1345" y="-306.3" font-family="Times,serif" font-size="14.00">#12 GetField : int_field : int</text>
</g>
<!-- node6&#45;&gt;node12 -->
<g id="edge24" class="edge">
<title>node6&#45;&gt;node12</title>
<path fill="none" stroke="black" d="M1839.14,-375.26C1751,-363.8 1570.21,-340.29 1453.46,-325.1"/>
<polygon fill="black" stroke="black" points="1453.79,-321.62 1443.42,-323.8 1452.89,-328.56 1453.79,-321.62"/>
<text text-anchor="middle" x="1462.48" y="-314.05" font-family="Times,serif" font-size="14.00">*0</text>
</g>
<!-- node11 -->
<g id="node16" class="node">
<title>node11</title>
<polygon fill="orange" stroke="black" points="1869.68,-302.54 1869.68,-317.46 1770.87,-328 1631.13,-328 1532.32,-317.46 1532.32,-302.54 1631.13,-292 1770.87,-292 1869.68,-302.54"/>
<text text-anchor="middle" x="1701" y="-306.3" font-family="Times,serif" font-size="14.00">#11 GetField : char_field : char</text>
</g>
<!-- node6&#45;&gt;node11 -->
<g id="edge26" class="edge">
<title>node6&#45;&gt;node11</title>
<path fill="none" stroke="black" d="M1856.59,-369.14C1828.56,-358.67 1788.45,-343.68 1755.98,-331.54"/>
<polygon fill="black" stroke="black" points="1757.19,-328.26 1746.6,-328.04 1754.74,-334.82 1757.19,-328.26"/>
<text text-anchor="middle" x="1766.54" y="-322.77" font-family="Times,serif" font-size="14.00">*0</text>
</g>
<!-- node10 -->
<g id="node17" class="node">
<title>node10</title>
<polygon fill="orange" stroke="black" points="2260.06,-302.54 2260.06,-317.46 2156.34,-328 2009.66,-328 1905.94,-317.46 1905.94,-302.54 2009.66,-292 2156.34,-292 2260.06,-302.54"/>
<text text-anchor="middle" x="2083" y="-306.3" font-family="Times,serif" font-size="14.00">#10 GetField : short_field : short</text>
</g>
<!-- node6&#45;&gt;node10 -->
<g id="edge28" class="edge">
<title>node6&#45;&gt;node10</title>
<path fill="none" stroke="black" d="M1925.33,-369.31C1953.6,-358.85 1994.25,-343.82 2027.19,-331.64"/>
<polygon fill="black" stroke="black" points="2028.54,-334.87 2036.71,-328.12 2026.11,-328.3 2028.54,-334.87"/>
<text text-anchor="middle" x="2022.64" y="-338.63" font-family="Times,serif" font-size="14.00">*0</text>
</g>
<!-- node9 -->
<g id="node18" class="node">
<title>node9</title>
<polygon fill="orange" stroke="black" points="2688.05,-302.54 2688.05,-317.46 2573.21,-328 2410.79,-328 2295.95,-317.46 2295.95,-302.54 2410.79,-292 2573.21,-292 2688.05,-302.54"/>
<text text-anchor="middle" x="2492" y="-306.3" font-family="Times,serif" font-size="14.00">#9 GetField : boolean_field : boolean</text>
</g>
<!-- node6&#45;&gt;node9 -->
<g id="edge30" class="edge">
<title>node6&#45;&gt;node9</title>
<path fill="none" stroke="black" d="M1943.28,-375.82C2036.66,-364.79 2234.57,-341.41 2365.41,-325.96"/>
<polygon fill="black" stroke="black" points="2365.97,-329.41 2375.49,-324.76 2365.15,-322.46 2365.97,-329.41"/>
<text text-anchor="middle" x="2358.48" y="-331.58" font-family="Times,serif" font-size="14.00">*0</text>
</g>
<!-- node6&#45;&gt;node8 -->
<g id="edge32" class="edge">
<title>node6&#45;&gt;node8</title>
<path fill="none" stroke="black" d="M1943.36,-378.91C2071.83,-371.23 2412.83,-350.3 2697,-328 2716.11,-326.5 2736.29,-324.81 2756.07,-323.08"/>
<polygon fill="black" stroke="black" points="2756.4,-326.56 2766.06,-322.2 2755.79,-319.59 2756.4,-326.56"/>
<text text-anchor="middle" x="2748.74" y="-328.51" font-family="Times,serif" font-size="14.00">*0</text>
</g>
<!-- node4&#45;&gt;node7 -->
<g id="edge7" class="edge">
<title>node4&#45;&gt;node7</title>
<path fill="none" stroke="red" d="M761.73,-437.92C745.16,-412.8 714.11,-365.73 694.83,-336.51"/>
<polygon fill="red" stroke="red" points="697.68,-334.48 689.26,-328.06 691.84,-338.34 697.68,-334.48"/>
</g>
<!-- node4&#45;&gt;node6 -->
<g id="edge9" class="edge">
<title>node4&#45;&gt;node6</title>
<path fill="none" stroke="black" d="M825.67,-451.45C1010.63,-439.41 1629.56,-400.1 1828.74,-387.75"/>
<polygon fill="black" stroke="black" points="1828.98,-391.24 1838.74,-387.13 1828.54,-384.25 1828.98,-391.24"/>
<text text-anchor="middle" x="1821.17" y="-392.99" font-family="Times,serif" font-size="14.00">*0</text>
</g>
<!-- node4&#45;&gt;node6 -->
<g id="edge10" class="edge">
<title>node4&#45;&gt;node6</title>
<path fill="none" stroke="green" d="M825.85,-451.83C1011.06,-440.38 1629.78,-401.1 1828.81,-388.16"/>
<polygon fill="green" stroke="green" points="1829.06,-391.66 1838.81,-387.51 1828.6,-384.67 1829.06,-391.66"/>
</g>
<!-- node3&#45;&gt;node4 -->
<g id="edge11" class="edge">
<title>node3&#45;&gt;node4</title>
<path fill="none" stroke="black" d="M590.49,-510.99C626.77,-500.26 673.62,-486.4 710.78,-475.41"/>
<polygon fill="black" stroke="black" points="711.89,-478.73 720.49,-472.53 709.91,-472.01 711.89,-478.73"/>
<text text-anchor="middle" x="705.51" y="-482.08" font-family="Times,serif" font-size="14.00">*0</text>
</g>
<!-- node2&#45;&gt;node4 -->
<g id="edge12" class="edge">
<title>node2&#45;&gt;node4</title>
<path fill="none" stroke="red" d="M825.3,-510.81C816.74,-502 806.16,-491.13 796.77,-481.46"/>
<polygon fill="red" stroke="red" points="799.03,-478.76 789.55,-474.03 794.01,-483.64 799.03,-478.76"/>
</g>
<!-- node16&#45;&gt;node17 -->
<g id="edge48" class="edge">
<title>node16&#45;&gt;node17</title>
<path fill="none" stroke="green" d="M3446.44,-310C3438.13,-310 3429.82,-310 3421.51,-310"/>
<polygon fill="green" stroke="green" points="3421.38,-306.5 3411.38,-310 3421.37,-313.5 3421.38,-306.5"/>
</g>
<!-- node16&#45;&gt;node20 -->
<g id="edge43" class="edge">
<title>node16&#45;&gt;node20</title>
<path fill="none" stroke="black" d="M3524.08,-295.01C3297.85,-266.08 2760.52,-198.03 2309,-146 2199.98,-133.44 2077.55,-120.27 1980.77,-110.09"/>
<polygon fill="black" stroke="black" points="1980.91,-106.58 1970.6,-109.02 1980.18,-113.54 1980.91,-106.58"/>
<text text-anchor="middle" x="1989.51" y="-98.81" font-family="Times,serif" font-size="14.00">*9</text>
</g>
<!-- node15&#45;&gt;node16 -->
<g id="edge17" class="edge">
<title>node15&#45;&gt;node16</title>
<path fill="none" stroke="green" d="M3854.95,-310C3846.43,-310 3837.9,-310 3829.38,-310"/>
<polygon fill="green" stroke="green" points="3829.38,-306.5 3819.38,-310 3829.38,-313.5 3829.38,-306.5"/>
</g>
<!-- node15&#45;&gt;node20 -->
<g id="edge42" class="edge">
<title>node15&#45;&gt;node20</title>
<path fill="none" stroke="black" d="M3927.32,-295.74C3663.92,-266.76 3014.07,-196.34 2469,-146 2326.67,-132.85 2166.98,-119.8 2040,-109.82"/>
<polygon fill="black" stroke="black" points="2040,-106.3 2029.75,-109.01 2039.45,-113.28 2040,-106.3"/>
<text text-anchor="middle" x="2048.49" y="-98.3" font-family="Times,serif" font-size="14.00">*8</text>
</g>
<!-- node14&#45;&gt;node15 -->
<g id="edge19" class="edge">
<title>node14&#45;&gt;node15</title>
<path fill="none" stroke="green" d="M439.24,-327.69C473.56,-335.1 515.14,-342.84 553,-346.5 733.6,-363.96 3638.13,-360.89 3819,-346.5 3862.1,-343.07 3909.36,-336.05 3949.62,-329.08"/>
<polygon fill="green" stroke="green" points="3950.45,-332.49 3959.69,-327.31 3949.24,-325.59 3950.45,-332.49"/>
</g>
<!-- node14&#45;&gt;node20 -->
<g id="edge41" class="edge">
<title>node14&#45;&gt;node20</title>
<path fill="none" stroke="black" d="M274.27,-294.23C197.14,-278.1 106.11,-247.98 151,-200 193.1,-155.01 918.93,-121.9 1395.25,-104.89"/>
<polygon fill="black" stroke="black" points="1395.54,-108.39 1405.41,-104.53 1395.29,-101.39 1395.54,-108.39"/>
<text text-anchor="middle" x="1387.59" y="-109.92" font-family="Times,serif" font-size="14.00">*7</text>
</g>
<!-- node13&#45;&gt;node14 -->
<g id="edge21" class="edge">
<title>node13&#45;&gt;node14</title>
<path fill="none" stroke="green" d="M916.16,-327.69C882.03,-335.1 840.67,-342.84 803,-346.5 692.41,-357.25 663.6,-357.19 553,-346.5 518.69,-343.18 481.32,-336.52 449.07,-329.78"/>
<polygon fill="green" stroke="green" points="449.75,-326.34 439.24,-327.69 448.29,-333.19 449.75,-326.34"/>
</g>
<!-- node13&#45;&gt;node20 -->
<g id="edge40" class="edge">
<title>node13&#45;&gt;node20</title>
<path fill="none" stroke="black" d="M1054.75,-291.95C1095.45,-281.38 1148.78,-267.47 1196,-255 1390.13,-203.74 1618.73,-142.39 1733.1,-111.63"/>
<polygon fill="black" stroke="black" points="1734.06,-115 1742.81,-109.02 1732.24,-108.24 1734.06,-115"/>
<text text-anchor="middle" x="1727.5" y="-118.19" font-family="Times,serif" font-size="14.00">*6</text>
</g>
<!-- node12&#45;&gt;node13 -->
<g id="edge23" class="edge">
<title>node12&#45;&gt;node13</title>
<path fill="none" stroke="green" d="M1192.83,-310C1184.31,-310 1175.79,-310 1167.27,-310"/>
<polygon fill="green" stroke="green" points="1167.27,-306.5 1157.27,-310 1167.27,-313.5 1167.27,-306.5"/>
</g>
<!-- node12&#45;&gt;node20 -->
<g id="edge39" class="edge">
<title>node12&#45;&gt;node20</title>
<path fill="none" stroke="black" d="M1381.17,-291.97C1464.3,-252.84 1668.83,-156.57 1760.39,-113.47"/>
<polygon fill="black" stroke="black" points="1762.12,-116.52 1769.68,-109.1 1759.14,-110.19 1762.12,-116.52"/>
<text text-anchor="middle" x="1756.88" y="-120.77" font-family="Times,serif" font-size="14.00">*5</text>
</g>
<!-- node11&#45;&gt;node12 -->
<g id="edge25" class="edge">
<title>node11&#45;&gt;node12</title>
<path fill="none" stroke="green" d="M1532,-310C1523.69,-310 1515.38,-310 1507.06,-310"/>
<polygon fill="green" stroke="green" points="1506.93,-306.5 1496.93,-310 1506.93,-313.5 1506.93,-306.5"/>
</g>
<!-- node11&#45;&gt;node20 -->
<g id="edge38" class="edge">
<title>node11&#45;&gt;node20</title>
<path fill="none" stroke="black" d="M1709.24,-291.97C1727.48,-254.27 1771.39,-163.54 1793.22,-118.41"/>
<polygon fill="black" stroke="black" points="1796.45,-119.77 1797.65,-109.25 1790.15,-116.73 1796.45,-119.77"/>
<text text-anchor="middle" x="1797.37" y="-125.55" font-family="Times,serif" font-size="14.00">*4</text>
</g>
<!-- node10&#45;&gt;node11 -->
<g id="edge27" class="edge">
<title>node10&#45;&gt;node11</title>
<path fill="none" stroke="green" d="M1905.77,-310C1897.2,-310 1888.63,-310 1880.05,-310"/>
<polygon fill="green" stroke="green" points="1879.99,-306.5 1869.99,-310 1879.99,-313.5 1879.99,-306.5"/>
</g>
<!-- node10&#45;&gt;node20 -->
<g id="edge37" class="edge">
<title>node10&#45;&gt;node20</title>
<path fill="none" stroke="black" d="M2061.26,-291.97C2012.13,-253.48 1892.43,-159.71 1836.16,-115.63"/>
<polygon fill="black" stroke="black" points="1838.05,-112.66 1828.02,-109.25 1833.73,-118.17 1838.05,-112.66"/>
<text text-anchor="middle" x="1847.5" y="-110.07" font-family="Times,serif" font-size="14.00">*3</text>
</g>
<!-- node9&#45;&gt;node10 -->
<g id="edge29" class="edge">
<title>node9&#45;&gt;node10</title>
<path fill="none" stroke="green" d="M2295.63,-310C2287.27,-310 2278.9,-310 2270.54,-310"/>
<polygon fill="green" stroke="green" points="2270.34,-306.5 2260.34,-310 2270.34,-313.5 2270.34,-306.5"/>
</g>
<!-- node9&#45;&gt;node20 -->
<g id="edge36" class="edge">
<title>node9&#45;&gt;node20</title>
<path fill="none" stroke="black" d="M2438.17,-291.97C2313.22,-252.45 2003.95,-154.62 1869.79,-112.18"/>
<polygon fill="black" stroke="black" points="1870.64,-108.78 1860.05,-109.1 1868.53,-115.45 1870.64,-108.78"/>
<text text-anchor="middle" x="1879.88" y="-102.81" font-family="Times,serif" font-size="14.00">*2</text>
</g>
<!-- node8&#45;&gt;node9 -->
<g id="edge31" class="edge">
<title>node8&#45;&gt;node9</title>
<path fill="none" stroke="green" d="M2723.38,-310C2715.05,-310 2706.72,-310 2698.39,-310"/>
<polygon fill="green" stroke="green" points="2698.23,-306.5 2688.23,-310 2698.23,-313.5 2698.23,-306.5"/>
</g>
<!-- node8&#45;&gt;node20 -->
<g id="edge35" class="edge">
<title>node8&#45;&gt;node20</title>
<path fill="none" stroke="black" d="M2807.46,-293.22C2613.32,-254.21 2111.4,-153.36 1901,-111.09"/>
<polygon fill="black" stroke="black" points="1901.4,-107.6 1890.91,-109.06 1900.02,-114.46 1901.4,-107.6"/>
<text text-anchor="middle" x="1910.34" y="-100.64" font-family="Times,serif" font-size="14.00">*1</text>
</g>
<!-- node21 -->
<g id="node21" class="node">
<title>node21</title>
<polygon fill="lightgrey" stroke="black" points="1892.5,-36 1719.5,-36 1719.5,0 1892.5,0 1892.5,-36"/>
<text text-anchor="middle" x="1806" y="-14.3" font-family="Times,serif" font-size="14.00">#21 ReturnValue : int</text>
</g>
<!-- node20&#45;&gt;node21 -->
<g id="edge49" class="edge">
<title>node20&#45;&gt;node21</title>
<path fill="none" stroke="black" d="M1794.24,-72.81C1792.56,-64.79 1792.1,-55.05 1792.84,-46.07"/>
<polygon fill="black" stroke="black" points="1796.33,-46.42 1794.28,-36.03 1789.4,-45.43 1796.33,-46.42"/>
<text text-anchor="middle" x="1800.08" y="-51.47" font-family="Times,serif" font-size="14.00">*0</text>
</g>
<!-- node20&#45;&gt;node21 -->
<g id="edge50" class="edge">
<title>node20&#45;&gt;node21</title>
<path fill="none" stroke="red" d="M1806,-72.81C1806,-64.79 1806,-55.05 1806,-46.07"/>
<polygon fill="red" stroke="red" points="1809.5,-46.03 1806,-36.03 1802.5,-46.03 1809.5,-46.03"/>
</g>
<!-- node20&#45;&gt;node21 -->
<g id="edge51" class="edge">
<title>node20&#45;&gt;node21</title>
<path fill="none" stroke="green" d="M1817.76,-72.81C1819.44,-64.79 1819.9,-55.05 1819.16,-46.07"/>
<polygon fill="green" stroke="green" points="1822.6,-45.43 1817.72,-36.03 1815.67,-46.42 1822.6,-45.43"/>
</g>
<!-- c0 -->
<!-- c1 -->
<!-- c0&#45;&gt;c1 -->
<g id="edge52" class="edge">
<title>c0&#45;&gt;c1</title>
<path fill="none" stroke="red" d="M1477.89,-611C1489.11,-611 1547.24,-611 1572.86,-611"/>
<polygon fill="red" stroke="red" points="1573.06,-614.5 1583.06,-611 1573.06,-607.5 1573.06,-614.5"/>
<text text-anchor="middle" x="1530.5" y="-617.8" font-family="Times,serif" font-size="14.00">Control flow</text>
</g>
<!-- c2 -->
<!-- c3 -->
<!-- c2&#45;&gt;c3 -->
<g id="edge53" class="edge">
<title>c2&#45;&gt;c3</title>
<path fill="none" stroke="red" stroke-dasharray="5,2" d="M1271.08,-611C1288.05,-611 1404.21,-611 1442.08,-611"/>
<polygon fill="red" stroke="red" points="1442.17,-614.5 1452.17,-611 1442.17,-607.5 1442.17,-614.5"/>
<text text-anchor="middle" x="1361.5" y="-617.8" font-family="Times,serif" font-size="14.00">Control flow back edge</text>
</g>
<!-- d0 -->
<!-- d1 -->
<!-- d0&#45;&gt;d1 -->
<g id="edge54" class="edge">
<title>d0&#45;&gt;d1</title>
<path fill="none" stroke="black" d="M1159.86,-611C1169.41,-611 1213.31,-611 1234.92,-611"/>
<polygon fill="black" stroke="black" points="1235.15,-614.5 1245.15,-611 1235.15,-607.5 1235.15,-614.5"/>
<text text-anchor="middle" x="1202.5" y="-617.8" font-family="Times,serif" font-size="14.00">Data flow</text>
</g>
<!-- d2 -->
<!-- d3 -->
<!-- d2&#45;&gt;d3 -->
<g id="edge55" class="edge">
<title>d2&#45;&gt;d3</title>
<path fill="none" stroke="black" stroke-dasharray="1,5" d="M1033.81,-611C1044.46,-611 1099.46,-611 1124.08,-611"/>
<polygon fill="black" stroke="black" points="1124.15,-614.5 1134.15,-611 1124.15,-607.5 1124.15,-614.5"/>
<text text-anchor="middle" x="1084" y="-617.8" font-family="Times,serif" font-size="14.00">Declaration</text>
</g>
<!-- d4 -->
<!-- d5 -->
<!-- d4&#45;&gt;d5 -->
<g id="edge56" class="edge">
<title>d4&#45;&gt;d5</title>
<path fill="none" stroke="blue" d="M891.1,-611C903.72,-611 969.88,-611 997.68,-611"/>
<polygon fill="blue" stroke="blue" points="997.84,-614.5 1007.84,-611 997.84,-607.5 997.84,-614.5"/>
<text text-anchor="middle" x="949.5" y="-617.8" font-family="Times,serif" font-size="14.00">PHI Data flow</text>
</g>
<!-- d6 -->
<!-- d7 -->
<!-- d6&#45;&gt;d7 -->
<g id="edge57" class="edge">
<title>d6&#45;&gt;d7</title>
<path fill="none" stroke="green" d="M754,-611C765.94,-611 828.3,-611 854.93,-611"/>
<polygon fill="green" stroke="green" points="854.95,-614.5 864.95,-611 854.95,-607.5 854.95,-614.5"/>
<text text-anchor="middle" x="809.5" y="-617.8" font-family="Times,serif" font-size="14.00">Memory flow</text>
</g>
</g>
</svg>
