<?xml version="1.0" encoding="UTF-8" standalone="no"?>
<!DOCTYPE svg PUBLIC "-//W3C//DTD SVG 1.1//EN"
 "http://www.w3.org/Graphics/SVG/1.1/DTD/svg11.dtd">
<!-- Generated by graphviz version 2.43.0 (0)
 -->
<!-- Title: %3 Pages: 1 -->
<svg width="5123pt" height="662pt"
 viewBox="0.00 0.00 5123.28 662.00" xmlns="http://www.w3.org/2000/svg" xmlns:xlink="http://www.w3.org/1999/xlink">
<g id="graph0" class="graph" transform="scale(1 1) rotate(0) translate(4 658)">
<title>%3</title>
<polygon fill="white" stroke="transparent" points="-4,4 -4,-658 5119.28,-658 5119.28,4 -4,4"/>
<g id="clust1" class="cluster">
<title>cluster_0</title>
<polygon fill="none" stroke="lightgray" points="3520.28,-503 3520.28,-646 4246.28,-646 4246.28,-503 3520.28,-503"/>
</g>
<g id="clust2" class="cluster">
<title>cluster_000</title>
<polygon fill="none" stroke="black" points="4254.28,-601.2 4254.28,-643.8 5107.28,-643.8 5107.28,-601.2 4254.28,-601.2"/>
<text text-anchor="middle" x="4680.78" y="-628.6" font-family="Times,serif" font-size="14.00">Legend</text>
</g>
<!-- node0 -->
<g id="node1" class="node">
<title>node0</title>
<polygon fill="lightgrey" stroke="transparent" points="3813.78,-638 3628.78,-638 3628.78,-584 3813.78,-584 3813.78,-638"/>
<polygon fill="none" stroke="black" points="3629.28,-611 3629.28,-638 3814.28,-638 3814.28,-611 3629.28,-611"/>
<text text-anchor="start" x="3681.28" y="-620.8" font-family="Times,serif" font-size="14.00">#0 Method</text>
<polygon fill="yellow" stroke="transparent" points="3629.28,-584 3629.28,-611 3814.28,-611 3814.28,-584 3629.28,-584"/>
<polygon fill="none" stroke="black" points="3629.28,-584 3629.28,-611 3814.28,-611 3814.28,-584 3629.28,-584"/>
<text text-anchor="start" x="3635.28" y="-593.8" font-family="Times,serif" font-size="14.00">this : MethodInvokeTest</text>
</g>
<!-- node4 -->
<g id="node2" class="node">
<title>node4</title>
<polygon fill="lightgreen" stroke="black" points="3914.7,-521.54 3914.7,-536.46 3801.4,-547 3641.16,-547 3527.86,-536.46 3527.86,-521.54 3641.16,-511 3801.4,-511 3914.7,-521.54"/>
<text text-anchor="middle" x="3721.28" y="-525.3" font-family="Times,serif" font-size="14.00">#4 Class MethodInvokeTest$Source</text>
</g>
<!-- node0&#45;&gt;node4 -->
<g id="edge1" class="edge">
<title>node0&#45;&gt;node4</title>
<path fill="none" stroke="black" stroke-dasharray="1,5" d="M3721.28,-583.81C3721.28,-575.35 3721.28,-565.95 3721.28,-557.4"/>
<polygon fill="black" stroke="black" points="3724.78,-557.17 3721.28,-547.17 3717.78,-557.17 3724.78,-557.17"/>
</g>
<!-- node5 -->
<g id="node3" class="node">
<title>node5</title>
<polygon fill="lightgrey" stroke="black" points="3505.78,-474 3400.78,-474 3400.78,-438 3505.78,-438 3505.78,-474"/>
<text text-anchor="middle" x="3453.28" y="-452.3" font-family="Times,serif" font-size="14.00">#5 ClassInit</text>
</g>
<!-- node0&#45;&gt;node5 -->
<g id="edge4" class="edge">
<title>node0&#45;&gt;node5</title>
<path fill="none" stroke="green" d="M3628.66,-594.17C3592.18,-584.74 3551.42,-569.95 3519.28,-547 3506.84,-538.11 3484.65,-505.97 3469.46,-482.63"/>
<polygon fill="green" stroke="green" points="3472.38,-480.69 3464.02,-474.18 3466.49,-484.48 3472.38,-480.69"/>
</g>
<!-- node2 -->
<g id="node4" class="node">
<title>node2</title>
<polygon fill="lightgrey" stroke="black" points="3471.78,-547 3352.78,-547 3352.78,-511 3471.78,-511 3471.78,-547"/>
<text text-anchor="middle" x="3412.28" y="-525.3" font-family="Times,serif" font-size="14.00">#2 LabelNode</text>
</g>
<!-- node0&#45;&gt;node2 -->
<g id="edge5" class="edge">
<title>node0&#45;&gt;node2</title>
<path fill="none" stroke="red" d="M3628.71,-602.31C3580.32,-596.18 3520.81,-585.28 3470.28,-566 3461.25,-562.56 3452.1,-557.66 3443.8,-552.57"/>
<polygon fill="red" stroke="red" points="3445.5,-549.5 3435.19,-547.05 3441.72,-555.4 3445.5,-549.5"/>
</g>
<!-- node3 -->
<g id="node19" class="node">
<title>node3</title>
<polygon fill="lightgreen" stroke="black" points="4238.1,-521.54 4238.1,-536.46 4148.58,-547 4021.98,-547 3932.46,-536.46 3932.46,-521.54 4021.98,-511 4148.58,-511 4238.1,-521.54"/>
<text text-anchor="middle" x="4085.28" y="-525.3" font-family="Times,serif" font-size="14.00">#3 Class MethodInvokeTest</text>
</g>
<!-- node0&#45;&gt;node3 -->
<g id="edge48" class="edge">
<title>node0&#45;&gt;node3</title>
<path fill="none" stroke="black" stroke-dasharray="1,5" d="M3814.07,-589.61C3872.29,-576.81 3946.69,-560.46 4002.84,-548.12"/>
<polygon fill="black" stroke="black" points="4003.73,-551.51 4012.74,-545.94 4002.23,-544.67 4003.73,-551.51"/>
</g>
<!-- node4&#45;&gt;node5 -->
<g id="edge2" class="edge">
<title>node4&#45;&gt;node5</title>
<path fill="none" stroke="black" d="M3657.09,-510.99C3614.37,-499.68 3558.51,-484.88 3516.08,-473.64"/>
<polygon fill="black" stroke="black" points="3516.71,-470.18 3506.15,-471.01 3514.92,-476.95 3516.71,-470.18"/>
<text text-anchor="middle" x="3525.83" y="-463.78" font-family="Times,serif" font-size="14.00">*0</text>
</g>
<!-- node7 -->
<g id="node5" class="node">
<title>node7</title>
<polygon fill="lightgrey" stroke="black" points="4057.28,-328 3807.28,-328 3807.28,-292 4057.28,-292 4057.28,-328"/>
<text text-anchor="middle" x="3932.28" y="-306.3" font-family="Times,serif" font-size="14.00">#7 Invoke special &lt;init&gt; : ()void</text>
</g>
<!-- node5&#45;&gt;node7 -->
<g id="edge7" class="edge">
<title>node5&#45;&gt;node7</title>
<path fill="none" stroke="red" d="M3505.91,-439.18C3593.67,-412.8 3769.72,-359.87 3865.87,-330.96"/>
<polygon fill="red" stroke="red" points="3866.92,-334.3 3875.49,-328.07 3864.9,-327.6 3866.92,-334.3"/>
</g>
<!-- node6 -->
<g id="node6" class="node">
<title>node6</title>
<polygon fill="orange" stroke="black" points="2193.4,-375.54 2193.4,-390.46 2162.87,-401 2119.69,-401 2089.16,-390.46 2089.16,-375.54 2119.69,-365 2162.87,-365 2193.4,-375.54"/>
<text text-anchor="middle" x="2141.28" y="-379.3" font-family="Times,serif" font-size="14.00">#6 New</text>
</g>
<!-- node5&#45;&gt;node6 -->
<g id="edge9" class="edge">
<title>node5&#45;&gt;node6</title>
<path fill="none" stroke="black" d="M3400.66,-452.3C3192.66,-441.33 2428.81,-400 2203.92,-387.56"/>
<polygon fill="black" stroke="black" points="2203.8,-384.05 2193.63,-386.99 2203.42,-391.04 2203.8,-384.05"/>
<text text-anchor="middle" x="2212.19" y="-375.85" font-family="Times,serif" font-size="14.00">*0</text>
</g>
<!-- node5&#45;&gt;node6 -->
<g id="edge10" class="edge">
<title>node5&#45;&gt;node6</title>
<path fill="none" stroke="green" d="M3400.68,-451.99C3192.68,-440.47 2428.64,-399.12 2203.85,-387.22"/>
<polygon fill="green" stroke="green" points="2203.72,-383.71 2193.55,-386.68 2203.36,-390.7 2203.72,-383.71"/>
</g>
<!-- node2&#45;&gt;node5 -->
<g id="edge3" class="edge">
<title>node2&#45;&gt;node5</title>
<path fill="none" stroke="red" d="M3422.21,-510.81C3427.04,-502.44 3432.96,-492.2 3438.32,-482.9"/>
<polygon fill="red" stroke="red" points="3441.48,-484.44 3443.45,-474.03 3435.41,-480.94 3441.48,-484.44"/>
</g>
<!-- node8 -->
<g id="node9" class="node">
<title>node8</title>
<polygon fill="orange" stroke="black" points="1142.79,-302.54 1142.79,-317.46 1047.6,-328 912.96,-328 817.77,-317.46 817.77,-302.54 912.96,-292 1047.6,-292 1142.79,-302.54"/>
<text text-anchor="middle" x="980.28" y="-306.3" font-family="Times,serif" font-size="14.00">#8 GetField : byte_field : byte</text>
</g>
<!-- node7&#45;&gt;node8 -->
<g id="edge16" class="edge">
<title>node7&#45;&gt;node8</title>
<path fill="none" stroke="green" d="M3875.16,-328.07C3849.24,-335.36 3818.01,-342.89 3789.28,-346.5 3644.36,-364.7 1305.61,-361.09 1160.28,-346.5 1127.36,-343.2 1091.55,-336.57 1060.61,-329.86"/>
<polygon fill="green" stroke="green" points="1061.26,-326.42 1050.74,-327.69 1059.75,-333.26 1061.26,-326.42"/>
</g>
<!-- node18 -->
<g id="node20" class="node">
<title>node18</title>
<polygon fill="lightgrey" stroke="black" points="3615.28,-255 3487.28,-255 3487.28,-219 3615.28,-219 3615.28,-255"/>
<text text-anchor="middle" x="3551.28" y="-233.3" font-family="Times,serif" font-size="14.00">#18 LabelNode</text>
</g>
<!-- node7&#45;&gt;node18 -->
<g id="edge33" class="edge">
<title>node7&#45;&gt;node18</title>
<path fill="none" stroke="red" d="M3841.02,-291.99C3775.12,-279.71 3687.24,-263.34 3625.61,-251.85"/>
<polygon fill="red" stroke="red" points="3626.04,-248.37 3615.57,-249.98 3624.76,-255.25 3626.04,-248.37"/>
</g>
<!-- node6&#45;&gt;node7 -->
<g id="edge6" class="edge">
<title>node6&#45;&gt;node7</title>
<path fill="none" stroke="black" d="M2193.42,-382.07C2397.63,-381.95 3162,-377.9 3789.28,-328 3791.84,-327.8 3794.42,-327.58 3797.02,-327.35"/>
<polygon fill="black" stroke="black" points="3797.51,-330.82 3807.15,-326.41 3796.87,-323.85 3797.51,-330.82"/>
<text text-anchor="middle" x="3789.88" y="-332.8" font-family="Times,serif" font-size="14.00">*0</text>
</g>
<!-- node6&#45;&gt;node7 -->
<g id="edge8" class="edge">
<title>node6&#45;&gt;node7</title>
<path fill="none" stroke="green" d="M2193.38,-382.08C2397.9,-382.04 3164.89,-378.48 3797.4,-328.78"/>
<polygon fill="green" stroke="green" points="3797.94,-332.25 3807.63,-327.97 3797.39,-325.27 3797.94,-332.25"/>
</g>
<!-- node10 -->
<g id="node7" class="node">
<title>node10</title>
<polygon fill="orange" stroke="black" points="354.34,-302.54 354.34,-317.46 250.62,-328 103.94,-328 0.22,-317.46 0.22,-302.54 103.94,-292 250.62,-292 354.34,-302.54"/>
<text text-anchor="middle" x="177.28" y="-306.3" font-family="Times,serif" font-size="14.00">#10 GetField : short_field : short</text>
</g>
<!-- node6&#45;&gt;node10 -->
<g id="edge11" class="edge">
<title>node6&#45;&gt;node10</title>
<path fill="none" stroke="black" d="M2089.04,-381.4C1876.43,-378.74 1055.4,-366.4 381.28,-328 359.59,-326.76 336.62,-325.15 314.23,-323.41"/>
<polygon fill="black" stroke="black" points="314.23,-319.9 303.98,-322.6 313.68,-326.87 314.23,-319.9"/>
<text text-anchor="middle" x="322.72" y="-311.9" font-family="Times,serif" font-size="14.00">*0</text>
</g>
<!-- node9 -->
<g id="node8" class="node">
<title>node9</title>
<polygon fill="orange" stroke="black" points="782.33,-302.54 782.33,-317.46 667.49,-328 505.07,-328 390.23,-317.46 390.23,-302.54 505.07,-292 667.49,-292 782.33,-302.54"/>
<text text-anchor="middle" x="586.28" y="-306.3" font-family="Times,serif" font-size="14.00">#9 GetField : boolean_field : boolean</text>
</g>
<!-- node6&#45;&gt;node9 -->
<g id="edge13" class="edge">
<title>node6&#45;&gt;node9</title>
<path fill="none" stroke="black" d="M2089.16,-380.56C1910.53,-375.49 1306.55,-357.16 808.28,-328 785.32,-326.66 761.04,-325.02 737.29,-323.3"/>
<polygon fill="black" stroke="black" points="737.39,-319.79 727.16,-322.55 736.87,-326.78 737.39,-319.79"/>
<text text-anchor="middle" x="745.85" y="-311.75" font-family="Times,serif" font-size="14.00">*0</text>
</g>
<!-- node6&#45;&gt;node8 -->
<g id="edge15" class="edge">
<title>node6&#45;&gt;node8</title>
<path fill="none" stroke="black" d="M2089.17,-379.98C1941.81,-374.08 1509.54,-355.57 1151.28,-328 1135.76,-326.81 1119.47,-325.39 1103.35,-323.9"/>
<polygon fill="black" stroke="black" points="1103.64,-320.41 1093.35,-322.96 1102.98,-327.38 1103.64,-320.41"/>
<text text-anchor="middle" x="1112.19" y="-312.54" font-family="Times,serif" font-size="14.00">*0</text>
</g>
<!-- node11 -->
<g id="node12" class="node">
<title>node11</title>
<polygon fill="orange" stroke="black" points="1497.96,-302.54 1497.96,-317.46 1399.15,-328 1259.41,-328 1160.6,-317.46 1160.6,-302.54 1259.41,-292 1399.15,-292 1497.96,-302.54"/>
<text text-anchor="middle" x="1329.28" y="-306.3" font-family="Times,serif" font-size="14.00">#11 GetField : char_field : char</text>
</g>
<!-- node6&#45;&gt;node11 -->
<g id="edge46" class="edge">
<title>node6&#45;&gt;node11</title>
<path fill="none" stroke="black" d="M2088.94,-377.42C1964.67,-366.56 1648.62,-338.92 1465.72,-322.93"/>
<polygon fill="black" stroke="black" points="1465.76,-319.42 1455.49,-322.04 1465.15,-326.39 1465.76,-319.42"/>
<text text-anchor="middle" x="1474.28" y="-311.49" font-family="Times,serif" font-size="14.00">*0</text>
</g>
<!-- node12 -->
<g id="node13" class="node">
<title>node12</title>
<polygon fill="orange" stroke="black" points="1837.19,-302.54 1837.19,-317.46 1748.2,-328 1622.36,-328 1533.37,-317.46 1533.37,-302.54 1622.36,-292 1748.2,-292 1837.19,-302.54"/>
<text text-anchor="middle" x="1685.28" y="-306.3" font-family="Times,serif" font-size="14.00">#12 GetField : int_field : int</text>
</g>
<!-- node6&#45;&gt;node12 -->
<g id="edge44" class="edge">
<title>node6&#45;&gt;node12</title>
<path fill="none" stroke="black" d="M2092.05,-374.33C2018.76,-362.92 1879.43,-341.23 1784.47,-326.44"/>
<polygon fill="black" stroke="black" points="1784.98,-322.98 1774.56,-324.9 1783.9,-329.9 1784.98,-322.98"/>
<text text-anchor="middle" x="1793.77" y="-315.64" font-family="Times,serif" font-size="14.00">*0</text>
</g>
<!-- node13 -->
<g id="node14" class="node">
<title>node13</title>
<polygon fill="orange" stroke="black" points="2209.55,-302.54 2209.55,-317.46 2110.98,-328 1971.58,-328 1873.01,-317.46 1873.01,-302.54 1971.58,-292 2110.98,-292 2209.55,-302.54"/>
<text text-anchor="middle" x="2041.28" y="-306.3" font-family="Times,serif" font-size="14.00">#13 GetField : long_field : long</text>
</g>
<!-- node6&#45;&gt;node13 -->
<g id="edge42" class="edge">
<title>node6&#45;&gt;node13</title>
<path fill="none" stroke="black" d="M2118.09,-365.53C2104.87,-356.15 2088.11,-344.25 2073.62,-333.96"/>
<polygon fill="black" stroke="black" points="2075.57,-331.05 2065.39,-328.12 2071.52,-336.76 2075.57,-331.05"/>
<text text-anchor="middle" x="2085.06" y="-328.02" font-family="Times,serif" font-size="14.00">*0</text>
</g>
<!-- node14 -->
<g id="node15" class="node">
<title>node14</title>
<polygon fill="orange" stroke="black" points="2581.96,-302.54 2581.96,-317.46 2483.15,-328 2343.41,-328 2244.6,-317.46 2244.6,-302.54 2343.41,-292 2483.15,-292 2581.96,-302.54"/>
<text text-anchor="middle" x="2413.28" y="-306.3" font-family="Times,serif" font-size="14.00">#14 GetField : float_field : float</text>
</g>
<!-- node6&#45;&gt;node14 -->
<g id="edge40" class="edge">
<title>node6&#45;&gt;node14</title>
<path fill="none" stroke="black" d="M2181.71,-371.45C2222.84,-360.71 2287.57,-343.81 2338.15,-330.61"/>
<polygon fill="black" stroke="black" points="2339.27,-333.94 2348.06,-328.02 2337.5,-327.16 2339.27,-333.94"/>
<text text-anchor="middle" x="2332.66" y="-337.08" font-family="Times,serif" font-size="14.00">*0</text>
</g>
<!-- node15 -->
<g id="node16" class="node">
<title>node15</title>
<polygon fill="orange" stroke="black" points="3001.39,-302.54 3001.39,-317.46 2888.85,-328 2729.71,-328 2617.17,-317.46 2617.17,-302.54 2729.71,-292 2888.85,-292 3001.39,-302.54"/>
<text text-anchor="middle" x="2809.28" y="-306.3" font-family="Times,serif" font-size="14.00">#15 GetField : double_field : double</text>
</g>
<!-- node6&#45;&gt;node15 -->
<g id="edge38" class="edge">
<title>node6&#45;&gt;node15</title>
<path fill="none" stroke="black" d="M2193.42,-376.46C2296.37,-365.52 2528.6,-340.83 2676.64,-325.1"/>
<polygon fill="black" stroke="black" points="2677.13,-328.57 2686.7,-324.03 2676.39,-321.6 2677.13,-328.57"/>
<text text-anchor="middle" x="2669.57" y="-330.65" font-family="Times,serif" font-size="14.00">*0</text>
</g>
<!-- node16 -->
<g id="node17" class="node">
<title>node16</title>
<polygon fill="orange" stroke="black" points="3409.63,-302.54 3409.63,-317.46 3300.47,-328 3146.09,-328 3036.93,-317.46 3036.93,-302.54 3146.09,-292 3300.47,-292 3409.63,-302.54"/>
<text text-anchor="middle" x="3223.28" y="-306.3" font-family="Times,serif" font-size="14.00">#16 GetField : string_field : String</text>
</g>
<!-- node6&#45;&gt;node16 -->
<g id="edge36" class="edge">
<title>node6&#45;&gt;node16</title>
<path fill="none" stroke="black" d="M2193.71,-379.06C2328.97,-371.42 2700.8,-349.96 3010.28,-328 3031.7,-326.48 3054.32,-324.78 3076.51,-323.05"/>
<polygon fill="black" stroke="black" points="3076.97,-326.53 3086.67,-322.26 3076.43,-319.55 3076.97,-326.53"/>
<text text-anchor="middle" x="3069.25" y="-328.4" font-family="Times,serif" font-size="14.00">*0</text>
</g>
<!-- node17 -->
<g id="node18" class="node">
<title>node17</title>
<polygon fill="orange" stroke="black" points="3789.49,-302.54 3789.49,-317.46 3688.61,-328 3545.95,-328 3445.07,-317.46 3445.07,-302.54 3545.95,-292 3688.61,-292 3789.49,-302.54"/>
<text text-anchor="middle" x="3617.28" y="-306.3" font-family="Times,serif" font-size="14.00">#17 GetField : array_field : int[]</text>
</g>
<!-- node6&#45;&gt;node17 -->
<g id="edge34" class="edge">
<title>node6&#45;&gt;node17</title>
<path fill="none" stroke="black" d="M2193.63,-380.59C2367.74,-375.74 2943.27,-358.32 3418.28,-328 3439.12,-326.67 3461.16,-325.03 3482.69,-323.29"/>
<polygon fill="black" stroke="black" points="3483.19,-326.76 3492.88,-322.46 3482.62,-319.78 3483.19,-326.76"/>
<text text-anchor="middle" x="3475.5" y="-328.66" font-family="Times,serif" font-size="14.00">*0</text>
</g>
<!-- node20 -->
<g id="node10" class="node">
<title>node20</title>
<polygon fill="lightgrey" stroke="black" points="2673.78,-109 1872.78,-109 1872.78,-73 2673.78,-73 2673.78,-109"/>
<text text-anchor="middle" x="2273.28" y="-87.3" font-family="Times,serif" font-size="14.00">#20 Invoke static simple_method_return_char : (byte,boolean,short,char,int,long,float,double,String,int[])char</text>
</g>
<!-- node10&#45;&gt;node20 -->
<g id="edge20" class="edge">
<title>node10&#45;&gt;node20</title>
<path fill="none" stroke="black" d="M274.95,-294.41C488.06,-263.05 1010.99,-188.59 1451.28,-146 1609.39,-130.71 1785.05,-118.52 1933.25,-109.62"/>
<polygon fill="black" stroke="black" points="1933.65,-113.1 1943.42,-109.01 1933.23,-106.12 1933.65,-113.1"/>
<text text-anchor="middle" x="1925.83" y="-114.83" font-family="Times,serif" font-size="14.00">*3</text>
</g>
<!-- node10&#45;&gt;node11 -->
<g id="edge47" class="edge">
<title>node10&#45;&gt;node11</title>
<path fill="none" stroke="green" d="M258.54,-327.26C298.09,-334.8 346.45,-342.77 390.28,-346.5 557.01,-360.68 976.73,-362.69 1143.28,-346.5 1177.42,-343.18 1214.58,-336.52 1246.66,-329.78"/>
<polygon fill="green" stroke="green" points="1247.39,-333.2 1256.44,-327.69 1245.93,-326.36 1247.39,-333.2"/>
</g>
<!-- node9&#45;&gt;node10 -->
<g id="edge12" class="edge">
<title>node9&#45;&gt;node10</title>
<path fill="none" stroke="green" d="M389.91,-310C381.55,-310 373.19,-310 364.82,-310"/>
<polygon fill="green" stroke="green" points="364.62,-306.5 354.62,-310 364.62,-313.5 364.62,-306.5"/>
</g>
<!-- node9&#45;&gt;node20 -->
<g id="edge19" class="edge">
<title>node9&#45;&gt;node20</title>
<path fill="none" stroke="black" d="M685.14,-293.56C883.66,-262.87 1345.08,-193.11 1734.28,-146 1846.66,-132.4 1972.52,-119.65 2074.34,-109.96"/>
<polygon fill="black" stroke="black" points="2074.8,-113.43 2084.43,-109 2074.14,-106.46 2074.8,-113.43"/>
<text text-anchor="middle" x="2067.18" y="-115.43" font-family="Times,serif" font-size="14.00">*2</text>
</g>
<!-- node8&#45;&gt;node9 -->
<g id="edge14" class="edge">
<title>node8&#45;&gt;node9</title>
<path fill="none" stroke="green" d="M817.66,-310C809.33,-310 801,-310 792.67,-310"/>
<polygon fill="green" stroke="green" points="792.51,-306.5 782.51,-310 792.51,-313.5 792.51,-306.5"/>
</g>
<!-- node8&#45;&gt;node20 -->
<g id="edge18" class="edge">
<title>node8&#45;&gt;node20</title>
<path fill="none" stroke="black" d="M1068.14,-294.26C1296.57,-255.92 1908.89,-153.15 2161.72,-110.72"/>
<polygon fill="black" stroke="black" points="2162.37,-114.16 2171.66,-109.06 2161.22,-107.26 2162.37,-114.16"/>
<text text-anchor="middle" x="2155.18" y="-116.69" font-family="Times,serif" font-size="14.00">*1</text>
</g>
<!-- node21 -->
<g id="node21" class="node">
<title>node21</title>
<polygon fill="lightgrey" stroke="black" points="2359.78,-36 2186.78,-36 2186.78,0 2359.78,0 2359.78,-36"/>
<text text-anchor="middle" x="2273.28" y="-14.3" font-family="Times,serif" font-size="14.00">#21 ReturnValue : int</text>
</g>
<!-- node20&#45;&gt;node21 -->
<g id="edge49" class="edge">
<title>node20&#45;&gt;node21</title>
<path fill="none" stroke="black" d="M2261.52,-72.81C2259.84,-64.79 2259.38,-55.05 2260.12,-46.07"/>
<polygon fill="black" stroke="black" points="2263.61,-46.42 2261.56,-36.03 2256.68,-45.43 2263.61,-46.42"/>
<text text-anchor="middle" x="2267.36" y="-51.47" font-family="Times,serif" font-size="14.00">*0</text>
</g>
<!-- node20&#45;&gt;node21 -->
<g id="edge50" class="edge">
<title>node20&#45;&gt;node21</title>
<path fill="none" stroke="red" d="M2273.28,-72.81C2273.28,-64.79 2273.28,-55.05 2273.28,-46.07"/>
<polygon fill="red" stroke="red" points="2276.78,-46.03 2273.28,-36.03 2269.78,-46.03 2276.78,-46.03"/>
</g>
<!-- node20&#45;&gt;node21 -->
<g id="edge51" class="edge">
<title>node20&#45;&gt;node21</title>
<path fill="none" stroke="green" d="M2285.04,-72.81C2286.72,-64.79 2287.18,-55.05 2286.44,-46.07"/>
<polygon fill="green" stroke="green" points="2289.88,-45.43 2285,-36.03 2282.95,-46.42 2289.88,-45.43"/>
</g>
<!-- node19 -->
<g id="node11" class="node">
<title>node19</title>
<polygon fill="lightgrey" stroke="black" points="3542.28,-182 3428.28,-182 3428.28,-146 3542.28,-146 3542.28,-182"/>
<text text-anchor="middle" x="3485.28" y="-160.3" font-family="Times,serif" font-size="14.00">#19 ClassInit</text>
</g>
<!-- node19&#45;&gt;node20 -->
<g id="edge17" class="edge">
<title>node19&#45;&gt;node20</title>
<path fill="none" stroke="black" d="M3428.11,-159.99C3275.55,-151.49 2851.75,-126.78 2562.23,-109.62"/>
<polygon fill="black" stroke="black" points="2562.18,-106.11 2551.99,-109.01 2561.77,-113.1 2562.18,-106.11"/>
<text text-anchor="middle" x="2570.59" y="-97.95" font-family="Times,serif" font-size="14.00">*0</text>
</g>
<!-- node19&#45;&gt;node20 -->
<g id="edge28" class="edge">
<title>node19&#45;&gt;node20</title>
<path fill="none" stroke="green" d="M3428.04,-159.65C3277.62,-150.84 2862.87,-126.54 2573.76,-109.6"/>
<polygon fill="green" stroke="green" points="2573.71,-106.09 2563.53,-109 2573.3,-113.08 2573.71,-106.09"/>
</g>
<!-- node19&#45;&gt;node20 -->
<g id="edge29" class="edge">
<title>node19&#45;&gt;node20</title>
<path fill="none" stroke="red" d="M3428.27,-159.28C3279.9,-150.18 2874.15,-126.31 2585.54,-109.6"/>
<polygon fill="red" stroke="red" points="2585.51,-106.09 2575.32,-109.01 2585.1,-113.08 2585.51,-106.09"/>
</g>
<!-- node11&#45;&gt;node20 -->
<g id="edge21" class="edge">
<title>node11&#45;&gt;node20</title>
<path fill="none" stroke="black" d="M1456.07,-298.07C1507.61,-292.52 1567.57,-284.65 1621.28,-274 1735.68,-251.31 2064.63,-154.4 2206.66,-112"/>
<polygon fill="black" stroke="black" points="2207.98,-115.25 2216.56,-109.04 2205.98,-108.55 2207.98,-115.25"/>
<text text-anchor="middle" x="2201.61" y="-118.63" font-family="Times,serif" font-size="14.00">*4</text>
</g>
<!-- node11&#45;&gt;node12 -->
<g id="edge45" class="edge">
<title>node11&#45;&gt;node12</title>
<path fill="none" stroke="green" d="M1498.24,-310C1506.55,-310 1514.86,-310 1523.17,-310"/>
<polygon fill="green" stroke="green" points="1523.31,-313.5 1533.31,-310 1523.31,-306.5 1523.31,-313.5"/>
</g>
<!-- node12&#45;&gt;node20 -->
<g id="edge22" class="edge">
<title>node12&#45;&gt;node20</title>
<path fill="none" stroke="black" d="M1778.48,-295.51C1807.6,-290.15 1839.59,-283.05 1868.28,-274 2007.05,-230.21 2161.39,-152.04 2232.87,-114"/>
<polygon fill="black" stroke="black" points="2234.82,-116.93 2241.99,-109.13 2231.52,-110.75 2234.82,-116.93"/>
<text text-anchor="middle" x="2229.99" y="-121.43" font-family="Times,serif" font-size="14.00">*5</text>
</g>
<!-- node12&#45;&gt;node13 -->
<g id="edge43" class="edge">
<title>node12&#45;&gt;node13</title>
<path fill="none" stroke="green" d="M1837.21,-310C1845.8,-310 1854.39,-310 1862.99,-310"/>
<polygon fill="green" stroke="green" points="1863.08,-313.5 1873.08,-310 1863.08,-306.5 1863.08,-313.5"/>
</g>
<!-- node13&#45;&gt;node20 -->
<g id="edge23" class="edge">
<title>node13&#45;&gt;node20</title>
<path fill="none" stroke="black" d="M2059.48,-291.97C2100.47,-253.64 2200.07,-160.48 2247.43,-116.18"/>
<polygon fill="black" stroke="black" points="2249.93,-118.64 2254.84,-109.25 2245.14,-113.52 2249.93,-118.64"/>
<text text-anchor="middle" x="2247.37" y="-124.1" font-family="Times,serif" font-size="14.00">*6</text>
</g>
<!-- node13&#45;&gt;node14 -->
<g id="edge41" class="edge">
<title>node13&#45;&gt;node14</title>
<path fill="none" stroke="green" d="M2209.48,-310C2217.78,-310 2226.08,-310 2234.38,-310"/>
<polygon fill="green" stroke="green" points="2234.51,-313.5 2244.51,-310 2234.51,-306.5 2234.51,-313.5"/>
</g>
<!-- node14&#45;&gt;node20 -->
<g id="edge24" class="edge">
<title>node14&#45;&gt;node20</title>
<path fill="none" stroke="black" d="M2402.29,-291.97C2377.87,-254.12 2318.94,-162.77 2289.95,-117.84"/>
<polygon fill="black" stroke="black" points="2292.77,-115.75 2284.41,-109.25 2286.89,-119.55 2292.77,-115.75"/>
<text text-anchor="middle" x="2301.34" y="-116.2" font-family="Times,serif" font-size="14.00">*7</text>
</g>
<!-- node14&#45;&gt;node15 -->
<g id="edge39" class="edge">
<title>node14&#45;&gt;node15</title>
<path fill="none" stroke="green" d="M2582.28,-310C2590.38,-310 2598.49,-310 2606.59,-310"/>
<polygon fill="green" stroke="green" points="2606.86,-313.5 2616.86,-310 2606.86,-306.5 2606.86,-313.5"/>
</g>
<!-- node15&#45;&gt;node20 -->
<g id="edge25" class="edge">
<title>node15&#45;&gt;node20</title>
<path fill="none" stroke="black" d="M2759.48,-291.99C2743.68,-286.44 2726.19,-280.12 2710.28,-274 2567.65,-219.14 2401.67,-147.95 2321.51,-113.1"/>
<polygon fill="black" stroke="black" points="2322.73,-109.82 2312.16,-109.04 2319.94,-116.24 2322.73,-109.82"/>
<text text-anchor="middle" x="2332.16" y="-104.82" font-family="Times,serif" font-size="14.00">*8</text>
</g>
<!-- node15&#45;&gt;node16 -->
<g id="edge37" class="edge">
<title>node15&#45;&gt;node16</title>
<path fill="none" stroke="green" d="M3001.73,-310C3010.03,-310 3018.34,-310 3026.64,-310"/>
<polygon fill="green" stroke="green" points="3026.78,-313.5 3036.78,-310 3026.78,-306.5 3026.78,-313.5"/>
</g>
<!-- node16&#45;&gt;node20 -->
<g id="edge26" class="edge">
<title>node16&#45;&gt;node20</title>
<path fill="none" stroke="black" d="M3085.83,-297.78C2975.27,-288.63 2836.25,-276.78 2823.28,-274 2653.95,-237.73 2620.11,-199.09 2455.28,-146 2418.45,-134.14 2377.12,-121.8 2343.16,-111.91"/>
<polygon fill="black" stroke="black" points="2343.91,-108.49 2333.33,-109.06 2341.96,-115.21 2343.91,-108.49"/>
<text text-anchor="middle" x="2353.1" y="-102.3" font-family="Times,serif" font-size="14.00">*9</text>
</g>
<!-- node16&#45;&gt;node17 -->
<g id="edge35" class="edge">
<title>node16&#45;&gt;node17</title>
<path fill="none" stroke="green" d="M3409.89,-310C3418.15,-310 3426.4,-310 3434.66,-310"/>
<polygon fill="green" stroke="green" points="3434.73,-313.5 3444.73,-310 3434.73,-306.5 3434.73,-313.5"/>
</g>
<!-- node17&#45;&gt;node20 -->
<g id="edge27" class="edge">
<title>node17&#45;&gt;node20</title>
<path fill="none" stroke="black" d="M3525.17,-294.13C3286.93,-255.66 2650.82,-152.96 2388.67,-110.63"/>
<polygon fill="black" stroke="black" points="2389.17,-107.17 2378.74,-109.03 2388.05,-114.08 2389.17,-107.17"/>
<text text-anchor="middle" x="2397.98" y="-99.87" font-family="Times,serif" font-size="14.00">*10</text>
</g>
<!-- node17&#45;&gt;node19 -->
<g id="edge31" class="edge">
<title>node17&#45;&gt;node19</title>
<path fill="none" stroke="green" d="M3624.59,-291.76C3631.58,-272.32 3639.06,-240.6 3624.28,-219 3607.94,-195.12 3579.37,-181.8 3552.36,-174.37"/>
<polygon fill="green" stroke="green" points="3553.06,-170.93 3542.51,-171.89 3551.35,-177.72 3553.06,-170.93"/>
</g>
<!-- node3&#45;&gt;node19 -->
<g id="edge30" class="edge">
<title>node3&#45;&gt;node19</title>
<path fill="none" stroke="black" d="M4085.28,-510.78C4085.28,-496.41 4085.28,-475.37 4085.28,-457 4085.28,-457 4085.28,-457 4085.28,-236 4085.28,-182.9 3709.96,-169.38 3553,-166.05"/>
<polygon fill="black" stroke="black" points="3552.61,-162.54 3542.54,-165.84 3552.47,-169.54 3552.61,-162.54"/>
<text text-anchor="middle" x="3560.83" y="-154.06" font-family="Times,serif" font-size="14.00">*0</text>
</g>
<!-- node18&#45;&gt;node19 -->
<g id="edge32" class="edge">
<title>node18&#45;&gt;node19</title>
<path fill="none" stroke="red" d="M3535.3,-218.81C3527.12,-210 3517,-199.13 3508.02,-189.46"/>
<polygon fill="red" stroke="red" points="3510.48,-186.97 3501.11,-182.03 3505.35,-191.74 3510.48,-186.97"/>
</g>
<!-- c0 -->
<!-- c1 -->
<!-- c0&#45;&gt;c1 -->
<g id="edge52" class="edge">
<title>c0&#45;&gt;c1</title>
<path fill="none" stroke="red" d="M4990.17,-611C5001.39,-611 5059.52,-611 5085.14,-611"/>
<polygon fill="red" stroke="red" points="5085.34,-614.5 5095.34,-611 5085.34,-607.5 5085.34,-614.5"/>
<text text-anchor="middle" x="5042.78" y="-617.8" font-family="Times,serif" font-size="14.00">Control flow</text>
</g>
<!-- c2 -->
<!-- c3 -->
<!-- c2&#45;&gt;c3 -->
<g id="edge53" class="edge">
<title>c2&#45;&gt;c3</title>
<path fill="none" stroke="red" stroke-dasharray="5,2" d="M4783.36,-611C4800.33,-611 4916.49,-611 4954.36,-611"/>
<polygon fill="red" stroke="red" points="4954.45,-614.5 4964.45,-611 4954.45,-607.5 4954.45,-614.5"/>
<text text-anchor="middle" x="4873.78" y="-617.8" font-family="Times,serif" font-size="14.00">Control flow back edge</text>
</g>
<!-- d0 -->
<!-- d1 -->
<!-- d0&#45;&gt;d1 -->
<g id="edge54" class="edge">
<title>d0&#45;&gt;d1</title>
<path fill="none" stroke="black" d="M4672.14,-611C4681.69,-611 4725.59,-611 4747.2,-611"/>
<polygon fill="black" stroke="black" points="4747.43,-614.5 4757.43,-611 4747.43,-607.5 4747.43,-614.5"/>
<text text-anchor="middle" x="4714.78" y="-617.8" font-family="Times,serif" font-size="14.00">Data flow</text>
</g>
<!-- d2 -->
<!-- d3 -->
<!-- d2&#45;&gt;d3 -->
<g id="edge55" class="edge">
<title>d2&#45;&gt;d3</title>
<path fill="none" stroke="black" stroke-dasharray="1,5" d="M4546.09,-611C4556.74,-611 4611.74,-611 4636.36,-611"/>
<polygon fill="black" stroke="black" points="4636.43,-614.5 4646.43,-611 4636.43,-607.5 4636.43,-614.5"/>
<text text-anchor="middle" x="4596.28" y="-617.8" font-family="Times,serif" font-size="14.00">Declaration</text>
</g>
<!-- d4 -->
<!-- d5 -->
<!-- d4&#45;&gt;d5 -->
<g id="edge56" class="edge">
<title>d4&#45;&gt;d5</title>
<path fill="none" stroke="blue" d="M4403.38,-611C4416,-611 4482.16,-611 4509.96,-611"/>
<polygon fill="blue" stroke="blue" points="4510.12,-614.5 4520.12,-611 4510.12,-607.5 4510.12,-614.5"/>
<text text-anchor="middle" x="4461.78" y="-617.8" font-family="Times,serif" font-size="14.00">PHI Data flow</text>
</g>
<!-- d6 -->
<!-- d7 -->
<!-- d6&#45;&gt;d7 -->
<g id="edge57" class="edge">
<title>d6&#45;&gt;d7</title>
<path fill="none" stroke="green" d="M4266.28,-611C4278.22,-611 4340.58,-611 4367.21,-611"/>
<polygon fill="green" stroke="green" points="4367.23,-614.5 4377.23,-611 4367.23,-607.5 4367.23,-614.5"/>
<text text-anchor="middle" x="4321.78" y="-617.8" font-family="Times,serif" font-size="14.00">Memory flow</text>
</g>
</g>
</svg>
