<?xml version="1.0" encoding="UTF-8" standalone="no"?>
<!DOCTYPE svg PUBLIC "-//W3C//DTD SVG 1.1//EN"
 "http://www.w3.org/Graphics/SVG/1.1/DTD/svg11.dtd">
<!-- Generated by graphviz version 2.43.0 (0)
 -->
<!-- Title: %3 Pages: 1 -->
<svg width="4216pt" height="662pt"
 viewBox="0.00 0.00 4216.09 662.00" xmlns="http://www.w3.org/2000/svg" xmlns:xlink="http://www.w3.org/1999/xlink">
<g id="graph0" class="graph" transform="scale(1 1) rotate(0) translate(4 658)">
<title>%3</title>
<polygon fill="white" stroke="transparent" points="-4,4 -4,-658 4212.09,-658 4212.09,4 -4,4"/>
<g id="clust1" class="cluster">
<title>cluster_0</title>
<polygon fill="none" stroke="lightgray" points="8,-503 8,-646 760,-646 760,-503 8,-503"/>
</g>
<g id="clust2" class="cluster">
<title>cluster_000</title>
<polygon fill="none" stroke="black" points="768,-601.2 768,-643.8 1621,-643.8 1621,-601.2 768,-601.2"/>
<text text-anchor="middle" x="1194.5" y="-628.6" font-family="Times,serif" font-size="14.00">Legend</text>
</g>
<!-- node0 -->
<g id="node1" class="node">
<title>node0</title>
<polygon fill="lightgrey" stroke="transparent" points="644.5,-638 459.5,-638 459.5,-584 644.5,-584 644.5,-638"/>
<polygon fill="none" stroke="black" points="460,-611 460,-638 645,-638 645,-611 460,-611"/>
<text text-anchor="start" x="512" y="-620.8" font-family="Times,serif" font-size="14.00">#0 Method</text>
<polygon fill="yellow" stroke="transparent" points="460,-584 460,-611 645,-611 645,-584 460,-584"/>
<polygon fill="none" stroke="black" points="460,-584 460,-611 645,-611 645,-584 460,-584"/>
<text text-anchor="start" x="466" y="-593.8" font-family="Times,serif" font-size="14.00">this : MethodInvokeTest</text>
</g>
<!-- node18 -->
<g id="node2" class="node">
<title>node18</title>
<polygon fill="lightgreen" stroke="black" points="333.98,-521.54 333.98,-536.46 240.85,-547 109.15,-547 16.02,-536.46 16.02,-521.54 109.15,-511 240.85,-511 333.98,-521.54"/>
<text text-anchor="middle" x="175" y="-525.3" font-family="Times,serif" font-size="14.00">#18 Class MethodInvokeTest</text>
</g>
<!-- node0&#45;&gt;node18 -->
<g id="edge1" class="edge">
<title>node0&#45;&gt;node18</title>
<path fill="none" stroke="black" stroke-dasharray="1,5" d="M459.29,-590.33C398.49,-577.43 319.59,-560.68 260.33,-548.11"/>
<polygon fill="black" stroke="black" points="260.76,-544.62 250.26,-545.97 259.31,-551.47 260.76,-544.62"/>
</g>
<!-- node1 -->
<g id="node8" class="node">
<title>node1</title>
<polygon fill="lightgrey" stroke="black" points="711.5,-474 606.5,-474 606.5,-438 711.5,-438 711.5,-474"/>
<text text-anchor="middle" x="659" y="-452.3" font-family="Times,serif" font-size="14.00">#1 ClassInit</text>
</g>
<!-- node0&#45;&gt;node1 -->
<g id="edge13" class="edge">
<title>node0&#45;&gt;node1</title>
<path fill="none" stroke="green" d="M644.59,-587.5C696.94,-573.85 753.46,-557.15 761,-547 772.66,-531.3 771.61,-519.43 761,-503 751.66,-488.54 736.57,-478.58 720.82,-471.74"/>
<polygon fill="green" stroke="green" points="722.1,-468.48 711.51,-468.06 719.52,-474.99 722.1,-468.48"/>
</g>
<!-- node17 -->
<g id="node9" class="node">
<title>node17</title>
<polygon fill="lightgreen" stroke="black" points="751.58,-521.54 751.58,-536.46 634.67,-547 469.33,-547 352.42,-536.46 352.42,-521.54 469.33,-511 634.67,-511 751.58,-521.54"/>
<text text-anchor="middle" x="552" y="-525.3" font-family="Times,serif" font-size="14.00">#17 Class MethodInvokeTest$Source</text>
</g>
<!-- node0&#45;&gt;node17 -->
<g id="edge15" class="edge">
<title>node0&#45;&gt;node17</title>
<path fill="none" stroke="black" stroke-dasharray="1,5" d="M552,-583.81C552,-575.35 552,-565.95 552,-557.4"/>
<polygon fill="black" stroke="black" points="555.5,-557.17 552,-547.17 548.5,-557.17 555.5,-557.17"/>
</g>
<!-- node16 -->
<g id="node10" class="node">
<title>node16</title>
<polygon fill="lightgrey" stroke="black" points="936,-547 808,-547 808,-511 936,-511 936,-547"/>
<text text-anchor="middle" x="872" y="-525.3" font-family="Times,serif" font-size="14.00">#16 LabelNode</text>
</g>
<!-- node0&#45;&gt;node16 -->
<g id="edge14" class="edge">
<title>node0&#45;&gt;node16</title>
<path fill="none" stroke="red" d="M644.56,-586.86C693.22,-574.69 752.08,-559.98 797.73,-548.57"/>
<polygon fill="red" stroke="red" points="798.7,-551.93 807.55,-546.11 797,-545.14 798.7,-551.93"/>
</g>
<!-- node19 -->
<g id="node3" class="node">
<title>node19</title>
<polygon fill="lightgrey" stroke="black" points="1180,-182 1066,-182 1066,-146 1180,-146 1180,-182"/>
<text text-anchor="middle" x="1123" y="-160.3" font-family="Times,serif" font-size="14.00">#19 ClassInit</text>
</g>
<!-- node18&#45;&gt;node19 -->
<g id="edge2" class="edge">
<title>node18&#45;&gt;node19</title>
<path fill="none" stroke="black" d="M175,-510.78C175,-496.41 175,-475.37 175,-457 175,-457 175,-457 175,-236 175,-191.8 838.95,-171.85 1055.56,-166.52"/>
<polygon fill="black" stroke="black" points="1055.92,-170.02 1065.83,-166.27 1055.75,-163.02 1055.92,-170.02"/>
<text text-anchor="middle" x="1047.92" y="-171.46" font-family="Times,serif" font-size="14.00">*0</text>
</g>
<!-- node20 -->
<g id="node17" class="node">
<title>node20</title>
<polygon fill="lightgrey" stroke="black" points="2261.5,-109 1460.5,-109 1460.5,-73 2261.5,-73 2261.5,-109"/>
<text text-anchor="middle" x="1861" y="-87.3" font-family="Times,serif" font-size="14.00">#20 Invoke static simple_method_return_char : (byte,boolean,short,char,int,long,float,double,String,int[])char</text>
</g>
<!-- node19&#45;&gt;node20 -->
<g id="edge28" class="edge">
<title>node19&#45;&gt;node20</title>
<path fill="none" stroke="black" d="M1180.12,-150.85C1225.86,-143.08 1291.11,-133.31 1349,-127 1410.96,-120.24 1477.45,-114.51 1541.34,-109.75"/>
<polygon fill="black" stroke="black" points="1541.85,-113.23 1551.57,-109 1541.34,-106.25 1541.85,-113.23"/>
<text text-anchor="middle" x="1534.11" y="-115.06" font-family="Times,serif" font-size="14.00">*0</text>
</g>
<!-- node19&#45;&gt;node20 -->
<g id="edge39" class="edge">
<title>node19&#45;&gt;node20</title>
<path fill="none" stroke="green" d="M1180.03,-153.34C1229.38,-145.27 1302.72,-134.01 1367,-127 1428.96,-120.24 1495.45,-114.51 1558.93,-109.75"/>
<polygon fill="green" stroke="green" points="1559.38,-113.23 1569.09,-109 1558.86,-106.25 1559.38,-113.23"/>
</g>
<!-- node19&#45;&gt;node20 -->
<g id="edge40" class="edge">
<title>node19&#45;&gt;node20</title>
<path fill="none" stroke="red" d="M1180.13,-155.49C1233.7,-147.4 1314.76,-134.66 1385,-127 1446.96,-120.24 1513.45,-114.51 1576.52,-109.75"/>
<polygon fill="red" stroke="red" points="1576.9,-113.24 1586.61,-109 1576.38,-106.26 1576.9,-113.24"/>
</g>
<!-- node7 -->
<g id="node4" class="node">
<title>node7</title>
<polygon fill="orange" stroke="black" points="803.05,-302.54 803.05,-317.46 705.78,-328 568.22,-328 470.95,-317.46 470.95,-302.54 568.22,-292 705.78,-292 803.05,-302.54"/>
<text text-anchor="middle" x="637" y="-306.3" font-family="Times,serif" font-size="14.00">#7 GetField : array_field : int[]</text>
</g>
<!-- node7&#45;&gt;node19 -->
<g id="edge3" class="edge">
<title>node7&#45;&gt;node19</title>
<path fill="none" stroke="green" d="M747.76,-296.5C851.36,-284.29 993.69,-265.99 1018,-255 1051.36,-239.91 1082.24,-210.86 1101.75,-189.83"/>
<polygon fill="green" stroke="green" points="1104.54,-191.98 1108.66,-182.21 1099.35,-187.27 1104.54,-191.98"/>
</g>
<!-- node7&#45;&gt;node20 -->
<g id="edge38" class="edge">
<title>node7&#45;&gt;node20</title>
<path fill="none" stroke="black" d="M750.74,-296.8C806.88,-290.51 875.57,-282.4 937,-274 990.93,-266.62 1004.42,-264.64 1058,-255 1194.55,-230.43 1589.22,-148.67 1769.37,-111.13"/>
<polygon fill="black" stroke="black" points="1770.28,-114.52 1779.36,-109.05 1768.85,-107.67 1770.28,-114.52"/>
<text text-anchor="middle" x="1763.34" y="-117.33" font-family="Times,serif" font-size="14.00">*10</text>
</g>
<!-- node3 -->
<g id="node5" class="node">
<title>node3</title>
<polygon fill="lightgrey" stroke="black" points="1008.5,-255 889.5,-255 889.5,-219 1008.5,-219 1008.5,-255"/>
<text text-anchor="middle" x="949" y="-233.3" font-family="Times,serif" font-size="14.00">#3 LabelNode</text>
</g>
<!-- node3&#45;&gt;node19 -->
<g id="edge4" class="edge">
<title>node3&#45;&gt;node19</title>
<path fill="none" stroke="red" d="M990.68,-218.99C1015.03,-209.06 1045.96,-196.43 1071.8,-185.89"/>
<polygon fill="red" stroke="red" points="1073.12,-189.13 1081.06,-182.11 1070.48,-182.65 1073.12,-189.13"/>
</g>
<!-- node2 -->
<g id="node6" class="node">
<title>node2</title>
<polygon fill="lightgrey" stroke="black" points="453,-328 203,-328 203,-292 453,-292 453,-328"/>
<text text-anchor="middle" x="328" y="-306.3" font-family="Times,serif" font-size="14.00">#2 Invoke special &lt;init&gt; : ()void</text>
</g>
<!-- node2&#45;&gt;node3 -->
<g id="edge5" class="edge">
<title>node2&#45;&gt;node3</title>
<path fill="none" stroke="red" d="M453.17,-293.06C456.14,-292.7 459.09,-292.35 462,-292 610.54,-274.34 784.79,-255.47 879.35,-245.37"/>
<polygon fill="red" stroke="red" points="879.79,-248.85 889.36,-244.31 879.05,-241.89 879.79,-248.85"/>
</g>
<!-- node12 -->
<g id="node16" class="node">
<title>node12</title>
<polygon fill="orange" stroke="black" points="3036.68,-302.54 3036.68,-317.46 2937.87,-328 2798.13,-328 2699.32,-317.46 2699.32,-302.54 2798.13,-292 2937.87,-292 3036.68,-302.54"/>
<text text-anchor="middle" x="2868" y="-306.3" font-family="Times,serif" font-size="14.00">#12 GetField : byte_field : byte</text>
</g>
<!-- node2&#45;&gt;node12 -->
<g id="edge27" class="edge">
<title>node2&#45;&gt;node12</title>
<path fill="none" stroke="green" d="M385.12,-328.07C411.04,-335.36 442.27,-342.89 471,-346.5 591.83,-361.68 2541.69,-357.21 2663,-346.5 2701.68,-343.08 2743.98,-336.11 2780.07,-329.16"/>
<polygon fill="green" stroke="green" points="2780.93,-332.56 2790.07,-327.21 2779.58,-325.69 2780.93,-332.56"/>
</g>
<!-- node4 -->
<g id="node7" class="node">
<title>node4</title>
<polygon fill="orange" stroke="black" points="1931.12,-375.54 1931.12,-390.46 1900.59,-401 1857.41,-401 1826.88,-390.46 1826.88,-375.54 1857.41,-365 1900.59,-365 1931.12,-375.54"/>
<text text-anchor="middle" x="1879" y="-379.3" font-family="Times,serif" font-size="14.00">#4 New</text>
</g>
<!-- node4&#45;&gt;node7 -->
<g id="edge41" class="edge">
<title>node4&#45;&gt;node7</title>
<path fill="none" stroke="black" d="M1826.76,-380.21C1671.83,-374.73 1201.38,-356.75 812,-328 796.12,-326.83 779.44,-325.43 762.95,-323.94"/>
<polygon fill="black" stroke="black" points="763,-320.43 752.72,-323 762.36,-327.4 763,-320.43"/>
<text text-anchor="middle" x="771.54" y="-312.54" font-family="Times,serif" font-size="14.00">*0</text>
</g>
<!-- node4&#45;&gt;node2 -->
<g id="edge6" class="edge">
<title>node4&#45;&gt;node2</title>
<path fill="none" stroke="black" d="M1826.84,-381.7C1641.27,-380.25 996.44,-372.16 462.86,-328.81"/>
<polygon fill="black" stroke="black" points="462.9,-325.3 452.65,-327.97 462.33,-332.27 462.9,-325.3"/>
<text text-anchor="middle" x="471.4" y="-317.32" font-family="Times,serif" font-size="14.00">*0</text>
</g>
<!-- node4&#45;&gt;node2 -->
<g id="edge8" class="edge">
<title>node4&#45;&gt;node2</title>
<path fill="none" stroke="green" d="M1826.84,-381.64C1641.67,-380.03 999.43,-371.5 471,-328 468.44,-327.79 465.86,-327.57 463.26,-327.33"/>
<polygon fill="green" stroke="green" points="463.42,-323.83 453.14,-326.37 462.76,-330.8 463.42,-323.83"/>
</g>
<!-- node14 -->
<g id="node11" class="node">
<title>node14</title>
<polygon fill="orange" stroke="black" points="1157.27,-302.54 1157.27,-317.46 1058.7,-328 919.3,-328 820.73,-317.46 820.73,-302.54 919.3,-292 1058.7,-292 1157.27,-302.54"/>
<text text-anchor="middle" x="989" y="-306.3" font-family="Times,serif" font-size="14.00">#14 GetField : long_field : long</text>
</g>
<!-- node4&#45;&gt;node14 -->
<g id="edge16" class="edge">
<title>node4&#45;&gt;node14</title>
<path fill="none" stroke="black" d="M1826.68,-378.1C1710.85,-369.44 1424.02,-347.79 1184,-328 1164.66,-326.41 1144.25,-324.68 1124.2,-322.95"/>
<polygon fill="black" stroke="black" points="1124.34,-319.45 1114.08,-322.08 1123.74,-326.43 1124.34,-319.45"/>
<text text-anchor="middle" x="1132.86" y="-311.52" font-family="Times,serif" font-size="14.00">*0</text>
</g>
<!-- node10 -->
<g id="node12" class="node">
<title>node10</title>
<polygon fill="orange" stroke="black" points="1496.91,-302.54 1496.91,-317.46 1407.92,-328 1282.08,-328 1193.09,-317.46 1193.09,-302.54 1282.08,-292 1407.92,-292 1496.91,-302.54"/>
<text text-anchor="middle" x="1345" y="-306.3" font-family="Times,serif" font-size="14.00">#10 GetField : int_field : int</text>
</g>
<!-- node4&#45;&gt;node10 -->
<g id="edge18" class="edge">
<title>node4&#45;&gt;node10</title>
<path fill="none" stroke="black" d="M1827.8,-375.19C1741.77,-363.75 1566.46,-340.45 1452.45,-325.29"/>
<polygon fill="black" stroke="black" points="1452.68,-321.79 1442.3,-323.94 1451.75,-328.72 1452.68,-321.79"/>
<text text-anchor="middle" x="1461.38" y="-314.25" font-family="Times,serif" font-size="14.00">*0</text>
</g>
<!-- node6 -->
<g id="node13" class="node">
<title>node6</title>
<polygon fill="orange" stroke="black" points="1857.51,-302.54 1857.51,-317.46 1762.32,-328 1627.68,-328 1532.49,-317.46 1532.49,-302.54 1627.68,-292 1762.32,-292 1857.51,-302.54"/>
<text text-anchor="middle" x="1695" y="-306.3" font-family="Times,serif" font-size="14.00">#6 GetField : char_field : char</text>
</g>
<!-- node4&#45;&gt;node6 -->
<g id="edge20" class="edge">
<title>node4&#45;&gt;node6</title>
<path fill="none" stroke="black" d="M1845.25,-368.98C1818.27,-358.57 1779.92,-343.77 1748.73,-331.73"/>
<polygon fill="black" stroke="black" points="1749.89,-328.43 1739.3,-328.09 1747.37,-334.96 1749.89,-328.43"/>
<text text-anchor="middle" x="1759.25" y="-323.03" font-family="Times,serif" font-size="14.00">*0</text>
</g>
<!-- node9 -->
<g id="node14" class="node">
<title>node9</title>
<polygon fill="orange" stroke="black" points="2234.9,-302.54 2234.9,-317.46 2134.79,-328 1993.21,-328 1893.1,-317.46 1893.1,-302.54 1993.21,-292 2134.79,-292 2234.9,-302.54"/>
<text text-anchor="middle" x="2064" y="-306.3" font-family="Times,serif" font-size="14.00">#9 GetField : short_field : short</text>
</g>
<!-- node4&#45;&gt;node9 -->
<g id="edge22" class="edge">
<title>node4&#45;&gt;node9</title>
<path fill="none" stroke="black" d="M1912.93,-368.98C1940.06,-358.57 1978.61,-343.77 2009.98,-331.73"/>
<polygon fill="black" stroke="black" points="2011.38,-334.94 2019.46,-328.09 2008.87,-328.41 2011.38,-334.94"/>
<text text-anchor="middle" x="2005.57" y="-338.78" font-family="Times,serif" font-size="14.00">*0</text>
</g>
<!-- node5 -->
<g id="node15" class="node">
<title>node5</title>
<polygon fill="orange" stroke="black" points="2663.05,-302.54 2663.05,-317.46 2548.21,-328 2385.79,-328 2270.95,-317.46 2270.95,-302.54 2385.79,-292 2548.21,-292 2663.05,-302.54"/>
<text text-anchor="middle" x="2467" y="-306.3" font-family="Times,serif" font-size="14.00">#5 GetField : boolean_field : boolean</text>
</g>
<!-- node4&#45;&gt;node5 -->
<g id="edge24" class="edge">
<title>node4&#45;&gt;node5</title>
<path fill="none" stroke="black" d="M1931.18,-375.7C2022.58,-364.66 2214.03,-341.55 2341.57,-326.15"/>
<polygon fill="black" stroke="black" points="2342.28,-329.59 2351.78,-324.91 2341.44,-322.64 2342.28,-329.59"/>
<text text-anchor="middle" x="2334.8" y="-331.78" font-family="Times,serif" font-size="14.00">*0</text>
</g>
<!-- node4&#45;&gt;node12 -->
<g id="edge26" class="edge">
<title>node4&#45;&gt;node12</title>
<path fill="none" stroke="black" d="M1931.45,-378.77C2058.54,-370.85 2393.05,-349.59 2672,-328 2691.83,-326.47 2712.77,-324.75 2733.3,-323.01"/>
<polygon fill="black" stroke="black" points="2733.68,-326.5 2743.34,-322.16 2733.08,-319.52 2733.68,-326.5"/>
<text text-anchor="middle" x="2726" y="-328.42" font-family="Times,serif" font-size="14.00">*0</text>
</g>
<!-- node13 -->
<g id="node18" class="node">
<title>node13</title>
<polygon fill="orange" stroke="black" points="3392.68,-302.54 3392.68,-317.46 3293.87,-328 3154.13,-328 3055.32,-317.46 3055.32,-302.54 3154.13,-292 3293.87,-292 3392.68,-302.54"/>
<text text-anchor="middle" x="3224" y="-306.3" font-family="Times,serif" font-size="14.00">#13 GetField : float_field : float</text>
</g>
<!-- node4&#45;&gt;node13 -->
<g id="edge47" class="edge">
<title>node4&#45;&gt;node13</title>
<path fill="none" stroke="black" d="M1931.11,-380.5C2095.19,-375.58 2615.83,-358.48 3046,-328 3062.44,-326.84 3079.71,-325.42 3096.77,-323.92"/>
<polygon fill="black" stroke="black" points="3097.13,-327.4 3106.78,-323.02 3096.5,-320.43 3097.13,-327.4"/>
<text text-anchor="middle" x="3089.48" y="-329.36" font-family="Times,serif" font-size="14.00">*0</text>
</g>
<!-- node11 -->
<g id="node19" class="node">
<title>node11</title>
<polygon fill="orange" stroke="black" points="3812.11,-302.54 3812.11,-317.46 3699.57,-328 3540.43,-328 3427.89,-317.46 3427.89,-302.54 3540.43,-292 3699.57,-292 3812.11,-302.54"/>
<text text-anchor="middle" x="3620" y="-306.3" font-family="Times,serif" font-size="14.00">#11 GetField : double_field : double</text>
</g>
<!-- node4&#45;&gt;node11 -->
<g id="edge45" class="edge">
<title>node4&#45;&gt;node11</title>
<path fill="none" stroke="black" d="M1931.31,-380.95C2125.83,-376.87 2825.82,-360.67 3402,-328 3424.8,-326.71 3448.92,-325.08 3472.49,-323.36"/>
<polygon fill="black" stroke="black" points="3472.83,-326.84 3482.55,-322.61 3472.31,-319.86 3472.83,-326.84"/>
<text text-anchor="middle" x="3465.09" y="-328.68" font-family="Times,serif" font-size="14.00">*0</text>
</g>
<!-- node8 -->
<g id="node20" class="node">
<title>node8</title>
<polygon fill="orange" stroke="black" points="4208.19,-302.54 4208.19,-317.46 4102.64,-328 3953.36,-328 3847.81,-317.46 3847.81,-302.54 3953.36,-292 4102.64,-292 4208.19,-302.54"/>
<text text-anchor="middle" x="4028" y="-306.3" font-family="Times,serif" font-size="14.00">#8 GetField : string_field : String</text>
</g>
<!-- node4&#45;&gt;node8 -->
<g id="edge43" class="edge">
<title>node4&#45;&gt;node8</title>
<path fill="none" stroke="black" d="M1931.19,-381.59C2156.86,-379.58 3071.25,-369.18 3821,-328 3843.11,-326.79 3866.53,-325.18 3889.35,-323.43"/>
<polygon fill="black" stroke="black" points="3889.73,-326.91 3899.43,-322.65 3889.19,-319.93 3889.73,-326.91"/>
<text text-anchor="middle" x="3882.02" y="-328.78" font-family="Times,serif" font-size="14.00">*0</text>
</g>
<!-- node1&#45;&gt;node2 -->
<g id="edge7" class="edge">
<title>node1&#45;&gt;node2</title>
<path fill="none" stroke="red" d="M619.73,-437.92C559.01,-411.5 442.49,-360.81 376.57,-332.13"/>
<polygon fill="red" stroke="red" points="377.78,-328.84 367.22,-328.06 374.99,-335.26 377.78,-328.84"/>
</g>
<!-- node1&#45;&gt;node4 -->
<g id="edge9" class="edge">
<title>node1&#45;&gt;node4</title>
<path fill="none" stroke="black" d="M711.56,-451.76C908.78,-440 1603.77,-399.55 1816.62,-387.45"/>
<polygon fill="black" stroke="black" points="1816.9,-390.94 1826.69,-386.88 1816.51,-383.95 1816.9,-390.94"/>
<text text-anchor="middle" x="1809.07" y="-392.64" font-family="Times,serif" font-size="14.00">*0</text>
</g>
<!-- node1&#45;&gt;node4 -->
<g id="edge10" class="edge">
<title>node1&#45;&gt;node4</title>
<path fill="none" stroke="green" d="M711.6,-452.11C908.85,-440.92 1603.64,-400.49 1816.56,-387.82"/>
<polygon fill="green" stroke="green" points="1816.85,-391.31 1826.63,-387.22 1816.44,-384.33 1816.85,-391.31"/>
</g>
<!-- node17&#45;&gt;node1 -->
<g id="edge11" class="edge">
<title>node17&#45;&gt;node1</title>
<path fill="none" stroke="black" d="M577.63,-510.99C591.69,-501.67 609.31,-489.97 624.55,-479.86"/>
<polygon fill="black" stroke="black" points="626.81,-482.56 633.21,-474.11 622.94,-476.73 626.81,-482.56"/>
<text text-anchor="middle" x="622.78" y="-487.48" font-family="Times,serif" font-size="14.00">*0</text>
</g>
<!-- node16&#45;&gt;node1 -->
<g id="edge12" class="edge">
<title>node16&#45;&gt;node1</title>
<path fill="none" stroke="red" d="M820.98,-510.99C790.64,-500.88 751.97,-487.99 720.02,-477.34"/>
<polygon fill="red" stroke="red" points="720.93,-473.96 710.34,-474.11 718.72,-480.6 720.93,-473.96"/>
</g>
<!-- node14&#45;&gt;node20 -->
<g id="edge34" class="edge">
<title>node14&#45;&gt;node20</title>
<path fill="none" stroke="black" d="M1114.87,-297.99C1137.87,-295.99 1161.65,-293.93 1184,-292 1277.77,-283.91 1303.74,-297.03 1395,-274 1464.29,-256.51 1623.06,-171.02 1690,-146 1723.16,-133.61 1760.59,-121.57 1791.96,-112.02"/>
<polygon fill="black" stroke="black" points="1793.36,-115.25 1801.92,-109.01 1791.34,-108.55 1793.36,-115.25"/>
<text text-anchor="middle" x="1787.02" y="-118.65" font-family="Times,serif" font-size="14.00">*6</text>
</g>
<!-- node14&#45;&gt;node13 -->
<g id="edge48" class="edge">
<title>node14&#45;&gt;node13</title>
<path fill="none" stroke="green" d="M1066.55,-327.21C1104.46,-334.77 1150.89,-342.76 1193,-346.5 1397.09,-364.61 2833.06,-366.22 3037,-346.5 3071.31,-343.18 3108.68,-336.52 3140.93,-329.78"/>
<polygon fill="green" stroke="green" points="3141.71,-333.19 3150.76,-327.69 3140.25,-326.34 3141.71,-333.19"/>
</g>
<!-- node10&#45;&gt;node14 -->
<g id="edge17" class="edge">
<title>node10&#45;&gt;node14</title>
<path fill="none" stroke="green" d="M1192.83,-310C1184.31,-310 1175.79,-310 1167.27,-310"/>
<polygon fill="green" stroke="green" points="1167.27,-306.5 1157.27,-310 1167.27,-313.5 1167.27,-306.5"/>
</g>
<!-- node10&#45;&gt;node20 -->
<g id="edge33" class="edge">
<title>node10&#45;&gt;node20</title>
<path fill="none" stroke="black" d="M1419.06,-293.31C1440.3,-288.02 1463.3,-281.51 1484,-274 1612.21,-227.46 1755.05,-151.34 1822.17,-114.03"/>
<polygon fill="black" stroke="black" points="1824.1,-116.96 1831.13,-109.03 1820.69,-110.85 1824.1,-116.96"/>
<text text-anchor="middle" x="1819.42" y="-121.54" font-family="Times,serif" font-size="14.00">*5</text>
</g>
<!-- node6&#45;&gt;node10 -->
<g id="edge19" class="edge">
<title>node6&#45;&gt;node10</title>
<path fill="none" stroke="green" d="M1532.27,-310C1523.94,-310 1515.6,-310 1507.27,-310"/>
<polygon fill="green" stroke="green" points="1507.1,-306.5 1497.1,-310 1507.1,-313.5 1507.1,-306.5"/>
</g>
<!-- node6&#45;&gt;node20 -->
<g id="edge32" class="edge">
<title>node6&#45;&gt;node20</title>
<path fill="none" stroke="black" d="M1708.03,-291.97C1737.11,-253.96 1807.44,-162.01 1841.66,-117.28"/>
<polygon fill="black" stroke="black" points="1844.51,-119.32 1847.81,-109.25 1838.95,-115.06 1844.51,-119.32"/>
<text text-anchor="middle" x="1843.51" y="-125.08" font-family="Times,serif" font-size="14.00">*4</text>
</g>
<!-- node9&#45;&gt;node6 -->
<g id="edge21" class="edge">
<title>node9&#45;&gt;node6</title>
<path fill="none" stroke="green" d="M1893.01,-310C1884.6,-310 1876.19,-310 1867.78,-310"/>
<polygon fill="green" stroke="green" points="1867.52,-306.5 1857.52,-310 1867.52,-313.5 1867.52,-306.5"/>
</g>
<!-- node9&#45;&gt;node20 -->
<g id="edge31" class="edge">
<title>node9&#45;&gt;node20</title>
<path fill="none" stroke="black" d="M2048.07,-291.97C2012.36,-253.8 1925.78,-161.25 1884.13,-116.73"/>
<polygon fill="black" stroke="black" points="1886.52,-114.16 1877.14,-109.25 1881.41,-118.94 1886.52,-114.16"/>
<text text-anchor="middle" x="1895.69" y="-113.01" font-family="Times,serif" font-size="14.00">*3</text>
</g>
<!-- node5&#45;&gt;node9 -->
<g id="edge23" class="edge">
<title>node5&#45;&gt;node9</title>
<path fill="none" stroke="green" d="M2270.51,-310C2262.14,-310 2253.77,-310 2245.4,-310"/>
<polygon fill="green" stroke="green" points="2245.2,-306.5 2235.2,-310 2245.2,-313.5 2245.2,-306.5"/>
</g>
<!-- node5&#45;&gt;node20 -->
<g id="edge30" class="edge">
<title>node5&#45;&gt;node20</title>
<path fill="none" stroke="black" d="M2419.45,-291.97C2309.4,-252.57 2037.51,-155.2 1918.42,-112.56"/>
<polygon fill="black" stroke="black" points="1919.34,-109.17 1908.75,-109.1 1916.98,-115.76 1919.34,-109.17"/>
<text text-anchor="middle" x="1928.66" y="-103.55" font-family="Times,serif" font-size="14.00">*2</text>
</g>
<!-- node12&#45;&gt;node5 -->
<g id="edge25" class="edge">
<title>node12&#45;&gt;node5</title>
<path fill="none" stroke="green" d="M2699.19,-310C2690.57,-310 2681.94,-310 2673.32,-310"/>
<polygon fill="green" stroke="green" points="2673.19,-306.5 2663.19,-310 2673.19,-313.5 2673.19,-306.5"/>
</g>
<!-- node12&#45;&gt;node20 -->
<g id="edge29" class="edge">
<title>node12&#45;&gt;node20</title>
<path fill="none" stroke="black" d="M2791.9,-292.6C2608.94,-253.17 2145.15,-153.23 1949.85,-111.15"/>
<polygon fill="black" stroke="black" points="1950.42,-107.69 1939.91,-109 1948.95,-114.53 1950.42,-107.69"/>
<text text-anchor="middle" x="1959.41" y="-100.86" font-family="Times,serif" font-size="14.00">*1</text>
</g>
<!-- node21 -->
<g id="node21" class="node">
<title>node21</title>
<polygon fill="lightgrey" stroke="black" points="1947.5,-36 1774.5,-36 1774.5,0 1947.5,0 1947.5,-36"/>
<text text-anchor="middle" x="1861" y="-14.3" font-family="Times,serif" font-size="14.00">#21 ReturnValue : int</text>
</g>
<!-- node20&#45;&gt;node21 -->
<g id="edge49" class="edge">
<title>node20&#45;&gt;node21</title>
<path fill="none" stroke="black" d="M1849.24,-72.81C1847.56,-64.79 1847.1,-55.05 1847.84,-46.07"/>
<polygon fill="black" stroke="black" points="1851.33,-46.42 1849.28,-36.03 1844.4,-45.43 1851.33,-46.42"/>
<text text-anchor="middle" x="1855.08" y="-51.47" font-family="Times,serif" font-size="14.00">*0</text>
</g>
<!-- node20&#45;&gt;node21 -->
<g id="edge50" class="edge">
<title>node20&#45;&gt;node21</title>
<path fill="none" stroke="red" d="M1861,-72.81C1861,-64.79 1861,-55.05 1861,-46.07"/>
<polygon fill="red" stroke="red" points="1864.5,-46.03 1861,-36.03 1857.5,-46.03 1864.5,-46.03"/>
</g>
<!-- node20&#45;&gt;node21 -->
<g id="edge51" class="edge">
<title>node20&#45;&gt;node21</title>
<path fill="none" stroke="green" d="M1872.76,-72.81C1874.44,-64.79 1874.9,-55.05 1874.16,-46.07"/>
<polygon fill="green" stroke="green" points="1877.6,-45.43 1872.72,-36.03 1870.67,-46.42 1877.6,-45.43"/>
</g>
<!-- node13&#45;&gt;node20 -->
<g id="edge35" class="edge">
<title>node13&#45;&gt;node20</title>
<path fill="none" stroke="black" d="M3133.04,-294.23C2955.46,-265.42 2550.12,-199.86 2209,-146 2133.61,-134.1 2048.99,-120.96 1982.07,-110.63"/>
<polygon fill="black" stroke="black" points="1982.32,-107.12 1971.91,-109.06 1981.26,-114.04 1982.32,-107.12"/>
<text text-anchor="middle" x="1991.11" y="-99.77" font-family="Times,serif" font-size="14.00">*7</text>
</g>
<!-- node13&#45;&gt;node11 -->
<g id="edge46" class="edge">
<title>node13&#45;&gt;node11</title>
<path fill="none" stroke="green" d="M3393,-310C3401.1,-310 3409.21,-310 3417.31,-310"/>
<polygon fill="green" stroke="green" points="3417.58,-313.5 3427.58,-310 3417.58,-306.5 3417.58,-313.5"/>
</g>
<!-- node11&#45;&gt;node20 -->
<g id="edge36" class="edge">
<title>node11&#45;&gt;node20</title>
<path fill="none" stroke="black" d="M3510.9,-294.68C3289.38,-265.72 2770.93,-198.48 2335,-146 2231.96,-133.6 2116.23,-120.4 2024.92,-110.15"/>
<polygon fill="black" stroke="black" points="2025.08,-106.65 2014.76,-109.01 2024.3,-113.61 2025.08,-106.65"/>
<text text-anchor="middle" x="2033.71" y="-98.93" font-family="Times,serif" font-size="14.00">*8</text>
</g>
<!-- node11&#45;&gt;node8 -->
<g id="edge44" class="edge">
<title>node11&#45;&gt;node8</title>
<path fill="none" stroke="green" d="M3812.45,-310C3820.83,-310 3829.21,-310 3837.59,-310"/>
<polygon fill="green" stroke="green" points="3837.81,-313.5 3847.81,-310 3837.81,-306.5 3837.81,-313.5"/>
</g>
<!-- node8&#45;&gt;node7 -->
<g id="edge42" class="edge">
<title>node8&#45;&gt;node7</title>
<path fill="none" stroke="green" d="M3945.59,-327.26C3905.48,-334.8 3856.44,-342.77 3812,-346.5 3646.42,-360.39 986.37,-362.74 821,-346.5 787.37,-343.2 750.77,-336.57 719.13,-329.87"/>
<polygon fill="green" stroke="green" points="719.56,-326.38 709.05,-327.69 718.08,-333.22 719.56,-326.38"/>
</g>
<!-- node8&#45;&gt;node20 -->
<g id="edge37" class="edge">
<title>node8&#45;&gt;node20</title>
<path fill="none" stroke="black" d="M3913.1,-295.97C3657.99,-267.21 3024.86,-196.84 2494,-146 2357.84,-132.96 2205.06,-119.88 2083.7,-109.86"/>
<polygon fill="black" stroke="black" points="2083.8,-106.36 2073.54,-109.02 2083.22,-113.33 2083.8,-106.36"/>
<text text-anchor="middle" x="2092.3" y="-98.39" font-family="Times,serif" font-size="14.00">*9</text>
</g>
<!-- c0 -->
<!-- c1 -->
<!-- c0&#45;&gt;c1 -->
<g id="edge52" class="edge">
<title>c0&#45;&gt;c1</title>
<path fill="none" stroke="red" d="M1503.89,-611C1515.11,-611 1573.24,-611 1598.86,-611"/>
<polygon fill="red" stroke="red" points="1599.06,-614.5 1609.06,-611 1599.06,-607.5 1599.06,-614.5"/>
<text text-anchor="middle" x="1556.5" y="-617.8" font-family="Times,serif" font-size="14.00">Control flow</text>
</g>
<!-- c2 -->
<!-- c3 -->
<!-- c2&#45;&gt;c3 -->
<g id="edge53" class="edge">
<title>c2&#45;&gt;c3</title>
<path fill="none" stroke="red" stroke-dasharray="5,2" d="M1297.08,-611C1314.05,-611 1430.21,-611 1468.08,-611"/>
<polygon fill="red" stroke="red" points="1468.17,-614.5 1478.17,-611 1468.17,-607.5 1468.17,-614.5"/>
<text text-anchor="middle" x="1387.5" y="-617.8" font-family="Times,serif" font-size="14.00">Control flow back edge</text>
</g>
<!-- d0 -->
<!-- d1 -->
<!-- d0&#45;&gt;d1 -->
<g id="edge54" class="edge">
<title>d0&#45;&gt;d1</title>
<path fill="none" stroke="black" d="M1185.86,-611C1195.41,-611 1239.31,-611 1260.92,-611"/>
<polygon fill="black" stroke="black" points="1261.15,-614.5 1271.15,-611 1261.15,-607.5 1261.15,-614.5"/>
<text text-anchor="middle" x="1228.5" y="-617.8" font-family="Times,serif" font-size="14.00">Data flow</text>
</g>
<!-- d2 -->
<!-- d3 -->
<!-- d2&#45;&gt;d3 -->
<g id="edge55" class="edge">
<title>d2&#45;&gt;d3</title>
<path fill="none" stroke="black" stroke-dasharray="1,5" d="M1059.81,-611C1070.46,-611 1125.46,-611 1150.08,-611"/>
<polygon fill="black" stroke="black" points="1150.15,-614.5 1160.15,-611 1150.15,-607.5 1150.15,-614.5"/>
<text text-anchor="middle" x="1110" y="-617.8" font-family="Times,serif" font-size="14.00">Declaration</text>
</g>
<!-- d4 -->
<!-- d5 -->
<!-- d4&#45;&gt;d5 -->
<g id="edge56" class="edge">
<title>d4&#45;&gt;d5</title>
<path fill="none" stroke="blue" d="M917.1,-611C929.72,-611 995.88,-611 1023.68,-611"/>
<polygon fill="blue" stroke="blue" points="1023.84,-614.5 1033.84,-611 1023.84,-607.5 1023.84,-614.5"/>
<text text-anchor="middle" x="975.5" y="-617.8" font-family="Times,serif" font-size="14.00">PHI Data flow</text>
</g>
<!-- d6 -->
<!-- d7 -->
<!-- d6&#45;&gt;d7 -->
<g id="edge57" class="edge">
<title>d6&#45;&gt;d7</title>
<path fill="none" stroke="green" d="M780,-611C791.94,-611 854.3,-611 880.93,-611"/>
<polygon fill="green" stroke="green" points="880.95,-614.5 890.95,-611 880.95,-607.5 880.95,-614.5"/>
<text text-anchor="middle" x="835.5" y="-617.8" font-family="Times,serif" font-size="14.00">Memory flow</text>
</g>
</g>
</svg>
