<?xml version="1.0" encoding="UTF-8" standalone="no"?>
<!DOCTYPE svg PUBLIC "-//W3C//DTD SVG 1.1//EN"
 "http://www.w3.org/Graphics/SVG/1.1/DTD/svg11.dtd">
<!-- Generated by graphviz version 2.43.0 (0)
 -->
<!-- Title: %3 Pages: 1 -->
<svg width="4264pt" height="662pt"
 viewBox="0.00 0.00 4264.27 662.00" xmlns="http://www.w3.org/2000/svg" xmlns:xlink="http://www.w3.org/1999/xlink">
<g id="graph0" class="graph" transform="scale(1 1) rotate(0) translate(4 658)">
<title>%3</title>
<polygon fill="white" stroke="transparent" points="-4,4 -4,-658 4260.27,-658 4260.27,4 -4,4"/>
<g id="clust1" class="cluster">
<title>cluster_0</title>
<polygon fill="none" stroke="lightgray" points="8,-503 8,-646 734,-646 734,-503 8,-503"/>
</g>
<g id="clust2" class="cluster">
<title>cluster_000</title>
<polygon fill="none" stroke="black" points="742,-601.2 742,-643.8 1595,-643.8 1595,-601.2 742,-601.2"/>
<text text-anchor="middle" x="1168.5" y="-628.6" font-family="Times,serif" font-size="14.00">Legend</text>
</g>
<!-- node0 -->
<g id="node1" class="node">
<title>node0</title>
<polygon fill="lightgrey" stroke="transparent" points="625.5,-638 440.5,-638 440.5,-584 625.5,-584 625.5,-638"/>
<polygon fill="none" stroke="black" points="441,-611 441,-638 626,-638 626,-611 441,-611"/>
<text text-anchor="start" x="493" y="-620.8" font-family="Times,serif" font-size="14.00">#0 Method</text>
<polygon fill="yellow" stroke="transparent" points="441,-584 441,-611 626,-611 626,-584 441,-584"/>
<polygon fill="none" stroke="black" points="441,-584 441,-611 626,-611 626,-584 441,-584"/>
<text text-anchor="start" x="447" y="-593.8" font-family="Times,serif" font-size="14.00">this : MethodInvokeTest</text>
</g>
<!-- node5 -->
<g id="node2" class="node">
<title>node5</title>
<polygon fill="lightgreen" stroke="black" points="321.82,-521.54 321.82,-536.46 232.3,-547 105.7,-547 16.18,-536.46 16.18,-521.54 105.7,-511 232.3,-511 321.82,-521.54"/>
<text text-anchor="middle" x="169" y="-525.3" font-family="Times,serif" font-size="14.00">#5 Class MethodInvokeTest</text>
</g>
<!-- node0&#45;&gt;node5 -->
<g id="edge1" class="edge">
<title>node0&#45;&gt;node5</title>
<path fill="none" stroke="black" stroke-dasharray="1,5" d="M440.21,-589.61C381.99,-576.81 307.59,-560.46 251.44,-548.12"/>
<polygon fill="black" stroke="black" points="252.05,-544.67 241.54,-545.94 250.55,-551.51 252.05,-544.67"/>
</g>
<!-- node4 -->
<g id="node8" class="node">
<title>node4</title>
<polygon fill="lightgrey" stroke="black" points="810.5,-474 705.5,-474 705.5,-438 810.5,-438 810.5,-474"/>
<text text-anchor="middle" x="758" y="-452.3" font-family="Times,serif" font-size="14.00">#4 ClassInit</text>
</g>
<!-- node0&#45;&gt;node4 -->
<g id="edge13" class="edge">
<title>node0&#45;&gt;node4</title>
<path fill="none" stroke="green" d="M625.66,-585.53C674.82,-571.77 726.78,-555.66 735,-547 750.83,-530.32 756.16,-504.3 757.78,-484.52"/>
<polygon fill="green" stroke="green" points="761.29,-484.44 758.34,-474.27 754.3,-484.06 761.29,-484.44"/>
</g>
<!-- node3 -->
<g id="node9" class="node">
<title>node3</title>
<polygon fill="lightgreen" stroke="black" points="726.42,-521.54 726.42,-536.46 613.12,-547 452.88,-547 339.58,-536.46 339.58,-521.54 452.88,-511 613.12,-511 726.42,-521.54"/>
<text text-anchor="middle" x="533" y="-525.3" font-family="Times,serif" font-size="14.00">#3 Class MethodInvokeTest$Source</text>
</g>
<!-- node0&#45;&gt;node3 -->
<g id="edge15" class="edge">
<title>node0&#45;&gt;node3</title>
<path fill="none" stroke="black" stroke-dasharray="1,5" d="M533,-583.81C533,-575.35 533,-565.95 533,-557.4"/>
<polygon fill="black" stroke="black" points="536.5,-557.17 533,-547.17 529.5,-557.17 536.5,-557.17"/>
</g>
<!-- node2 -->
<g id="node10" class="node">
<title>node2</title>
<polygon fill="lightgrey" stroke="black" points="901.5,-547 782.5,-547 782.5,-511 901.5,-511 901.5,-547"/>
<text text-anchor="middle" x="842" y="-525.3" font-family="Times,serif" font-size="14.00">#2 LabelNode</text>
</g>
<!-- node0&#45;&gt;node2 -->
<g id="edge14" class="edge">
<title>node0&#45;&gt;node2</title>
<path fill="none" stroke="red" d="M625.71,-586C672.88,-573.79 729.25,-559.19 772.61,-547.97"/>
<polygon fill="red" stroke="red" points="773.69,-551.3 782.5,-545.41 771.94,-544.52 773.69,-551.3"/>
</g>
<!-- node19 -->
<g id="node3" class="node">
<title>node19</title>
<polygon fill="lightgrey" stroke="black" points="952,-182 838,-182 838,-146 952,-146 952,-182"/>
<text text-anchor="middle" x="895" y="-160.3" font-family="Times,serif" font-size="14.00">#19 ClassInit</text>
</g>
<!-- node5&#45;&gt;node19 -->
<g id="edge2" class="edge">
<title>node5&#45;&gt;node19</title>
<path fill="none" stroke="black" d="M169,-510.78C169,-496.41 169,-475.37 169,-457 169,-457 169,-457 169,-236 169,-203.1 647.54,-176.82 827.59,-168.1"/>
<polygon fill="black" stroke="black" points="827.91,-171.59 837.73,-167.61 827.57,-164.6 827.91,-171.59"/>
<text text-anchor="middle" x="820.03" y="-173.23" font-family="Times,serif" font-size="14.00">*0</text>
</g>
<!-- node20 -->
<g id="node14" class="node">
<title>node20</title>
<polygon fill="lightgrey" stroke="black" points="2292.5,-109 1491.5,-109 1491.5,-73 2292.5,-73 2292.5,-109"/>
<text text-anchor="middle" x="1892" y="-87.3" font-family="Times,serif" font-size="14.00">#20 Invoke static simple_method_return_char : (byte,boolean,short,char,int,long,float,double,String,int[])char</text>
</g>
<!-- node19&#45;&gt;node20 -->
<g id="edge22" class="edge">
<title>node19&#45;&gt;node20</title>
<path fill="none" stroke="black" d="M952.27,-153.86C1013.88,-145.74 1113.85,-134.1 1201,-127 1291.43,-119.63 1388.83,-113.51 1481.18,-108.57"/>
<polygon fill="black" stroke="black" points="1481.46,-112.06 1491.26,-108.03 1481.08,-105.07 1481.46,-112.06"/>
<text text-anchor="middle" x="1473.61" y="-113.74" font-family="Times,serif" font-size="14.00">*0</text>
</g>
<!-- node19&#45;&gt;node20 -->
<g id="edge33" class="edge">
<title>node19&#45;&gt;node20</title>
<path fill="none" stroke="green" d="M952.26,-155.61C1016.93,-147.5 1125.36,-134.63 1219,-127 1303.77,-120.09 1394.67,-114.28 1481.38,-109.51"/>
<polygon fill="green" stroke="green" points="1481.6,-113 1491.39,-108.96 1481.21,-106.01 1481.6,-113"/>
</g>
<!-- node19&#45;&gt;node20 -->
<g id="edge34" class="edge">
<title>node19&#45;&gt;node20</title>
<path fill="none" stroke="red" d="M952.05,-157.16C1020.49,-149.23 1137.16,-135.14 1237,-127 1321.41,-120.12 1411.89,-114.33 1497.85,-109.57"/>
<polygon fill="red" stroke="red" points="1498.25,-113.06 1508.04,-109.01 1497.86,-106.07 1498.25,-113.06"/>
</g>
<!-- node17 -->
<g id="node4" class="node">
<title>node17</title>
<polygon fill="orange" stroke="black" points="3455.21,-302.54 3455.21,-317.46 3354.33,-328 3211.67,-328 3110.79,-317.46 3110.79,-302.54 3211.67,-292 3354.33,-292 3455.21,-302.54"/>
<text text-anchor="middle" x="3283" y="-306.3" font-family="Times,serif" font-size="14.00">#17 GetField : array_field : int[]</text>
</g>
<!-- node17&#45;&gt;node19 -->
<g id="edge3" class="edge">
<title>node17&#45;&gt;node19</title>
<path fill="none" stroke="green" d="M3161.28,-297.25C3135.77,-295.17 3109.02,-293.26 3084,-292 2041.2,-239.31 1777.59,-311.66 735,-255 605.74,-247.98 242.19,-296.68 155,-201 132.35,-176.14 640.74,-167.87 827.5,-165.68"/>
<polygon fill="green" stroke="green" points="827.78,-169.17 837.74,-165.56 827.7,-162.18 827.78,-169.17"/>
</g>
<!-- node17&#45;&gt;node20 -->
<g id="edge32" class="edge">
<title>node17&#45;&gt;node20</title>
<path fill="none" stroke="black" d="M3189.03,-294.34C2943.51,-256.04 2283.11,-153.01 2011.34,-110.62"/>
<polygon fill="black" stroke="black" points="2011.86,-107.16 2001.44,-109.07 2010.79,-114.07 2011.86,-107.16"/>
<text text-anchor="middle" x="2020.66" y="-99.82" font-family="Times,serif" font-size="14.00">*10</text>
</g>
<!-- node18 -->
<g id="node5" class="node">
<title>node18</title>
<polygon fill="lightgrey" stroke="black" points="872,-255 744,-255 744,-219 872,-219 872,-255"/>
<text text-anchor="middle" x="808" y="-233.3" font-family="Times,serif" font-size="14.00">#18 LabelNode</text>
</g>
<!-- node18&#45;&gt;node19 -->
<g id="edge4" class="edge">
<title>node18&#45;&gt;node19</title>
<path fill="none" stroke="red" d="M829.06,-218.81C840.17,-209.74 853.98,-198.48 866.08,-188.6"/>
<polygon fill="red" stroke="red" points="868.6,-191.06 874.13,-182.03 864.17,-185.64 868.6,-191.06"/>
</g>
<!-- node7 -->
<g id="node6" class="node">
<title>node7</title>
<polygon fill="lightgrey" stroke="black" points="808,-328 558,-328 558,-292 808,-292 808,-328"/>
<text text-anchor="middle" x="683" y="-306.3" font-family="Times,serif" font-size="14.00">#7 Invoke special &lt;init&gt; : ()void</text>
</g>
<!-- node7&#45;&gt;node18 -->
<g id="edge5" class="edge">
<title>node7&#45;&gt;node18</title>
<path fill="none" stroke="red" d="M712.94,-291.99C729.67,-282.49 750.72,-270.54 768.75,-260.29"/>
<polygon fill="red" stroke="red" points="770.9,-263.1 777.87,-255.11 767.45,-257.01 770.9,-263.1"/>
</g>
<!-- node8 -->
<g id="node13" class="node">
<title>node8</title>
<polygon fill="orange" stroke="black" points="522.51,-302.54 522.51,-317.46 427.32,-328 292.68,-328 197.49,-317.46 197.49,-302.54 292.68,-292 427.32,-292 522.51,-302.54"/>
<text text-anchor="middle" x="360" y="-306.3" font-family="Times,serif" font-size="14.00">#8 GetField : byte_field : byte</text>
</g>
<!-- node7&#45;&gt;node8 -->
<g id="edge21" class="edge">
<title>node7&#45;&gt;node8</title>
<path fill="none" stroke="green" d="M557.81,-310C549.51,-310 541.2,-310 532.89,-310"/>
<polygon fill="green" stroke="green" points="532.76,-306.5 522.76,-310 532.76,-313.5 532.76,-306.5"/>
</g>
<!-- node6 -->
<g id="node7" class="node">
<title>node6</title>
<polygon fill="orange" stroke="black" points="1945.12,-375.54 1945.12,-390.46 1914.59,-401 1871.41,-401 1840.88,-390.46 1840.88,-375.54 1871.41,-365 1914.59,-365 1945.12,-375.54"/>
<text text-anchor="middle" x="1893" y="-379.3" font-family="Times,serif" font-size="14.00">#6 New</text>
</g>
<!-- node6&#45;&gt;node17 -->
<g id="edge35" class="edge">
<title>node6&#45;&gt;node17</title>
<path fill="none" stroke="black" d="M1945.28,-380.37C2111.71,-375.04 2644.06,-356.75 3084,-328 3104.69,-326.65 3126.56,-325 3147.94,-323.27"/>
<polygon fill="black" stroke="black" points="3148.38,-326.75 3158.06,-322.44 3147.81,-319.77 3148.38,-326.75"/>
<text text-anchor="middle" x="3140.68" y="-328.64" font-family="Times,serif" font-size="14.00">*0</text>
</g>
<!-- node6&#45;&gt;node7 -->
<g id="edge6" class="edge">
<title>node6&#45;&gt;node7</title>
<path fill="none" stroke="black" d="M1840.8,-380.88C1685.29,-377.13 1212.1,-363.24 817.83,-328.86"/>
<polygon fill="black" stroke="black" points="817.92,-325.36 807.65,-327.97 817.31,-332.33 817.92,-325.36"/>
<text text-anchor="middle" x="826.45" y="-317.43" font-family="Times,serif" font-size="14.00">*0</text>
</g>
<!-- node6&#45;&gt;node7 -->
<g id="edge8" class="edge">
<title>node6&#45;&gt;node7</title>
<path fill="none" stroke="green" d="M1840.71,-380.68C1685.59,-376.61 1215.16,-362.4 826,-328 823.45,-327.77 820.86,-327.54 818.26,-327.29"/>
<polygon fill="green" stroke="green" points="818.44,-323.79 808.14,-326.28 817.75,-330.75 818.44,-323.79"/>
</g>
<!-- node10 -->
<g id="node11" class="node">
<title>node10</title>
<polygon fill="orange" stroke="black" points="3828.06,-302.54 3828.06,-317.46 3724.34,-328 3577.66,-328 3473.94,-317.46 3473.94,-302.54 3577.66,-292 3724.34,-292 3828.06,-302.54"/>
<text text-anchor="middle" x="3651" y="-306.3" font-family="Times,serif" font-size="14.00">#10 GetField : short_field : short</text>
</g>
<!-- node6&#45;&gt;node10 -->
<g id="edge16" class="edge">
<title>node6&#45;&gt;node10</title>
<path fill="none" stroke="black" d="M1945.26,-381.27C2143.53,-378.28 2868.19,-365.29 3464,-328 3481.78,-326.89 3500.48,-325.48 3518.91,-323.94"/>
<polygon fill="black" stroke="black" points="3519.44,-327.41 3529.11,-323.08 3518.85,-320.44 3519.44,-327.41"/>
<text text-anchor="middle" x="3511.76" y="-329.33" font-family="Times,serif" font-size="14.00">*0</text>
</g>
<!-- node9 -->
<g id="node12" class="node">
<title>node9</title>
<polygon fill="orange" stroke="black" points="4256.05,-302.54 4256.05,-317.46 4141.21,-328 3978.79,-328 3863.95,-317.46 3863.95,-302.54 3978.79,-292 4141.21,-292 4256.05,-302.54"/>
<text text-anchor="middle" x="4060" y="-306.3" font-family="Times,serif" font-size="14.00">#9 GetField : boolean_field : boolean</text>
</g>
<!-- node6&#45;&gt;node9 -->
<g id="edge18" class="edge">
<title>node6&#45;&gt;node9</title>
<path fill="none" stroke="black" d="M1945.23,-381.48C2171.12,-379.01 3086.36,-367.01 3837,-328 3860.77,-326.76 3885.94,-325.15 3910.49,-323.4"/>
<polygon fill="black" stroke="black" points="3910.87,-326.88 3920.59,-322.67 3910.36,-319.9 3910.87,-326.88"/>
<text text-anchor="middle" x="3903.12" y="-328.7" font-family="Times,serif" font-size="14.00">*0</text>
</g>
<!-- node6&#45;&gt;node8 -->
<g id="edge20" class="edge">
<title>node6&#45;&gt;node8</title>
<path fill="none" stroke="black" d="M1840.75,-380.83C1660.99,-376.62 1051.47,-360.67 549,-328 529.08,-326.7 508.01,-325.07 487.44,-323.33"/>
<polygon fill="black" stroke="black" points="487.65,-319.84 477.39,-322.47 487.05,-326.81 487.65,-319.84"/>
<text text-anchor="middle" x="496.17" y="-311.9" font-family="Times,serif" font-size="14.00">*0</text>
</g>
<!-- node11 -->
<g id="node15" class="node">
<title>node11</title>
<polygon fill="orange" stroke="black" points="1163.68,-302.54 1163.68,-317.46 1064.87,-328 925.13,-328 826.32,-317.46 826.32,-302.54 925.13,-292 1064.87,-292 1163.68,-302.54"/>
<text text-anchor="middle" x="995" y="-306.3" font-family="Times,serif" font-size="14.00">#11 GetField : char_field : char</text>
</g>
<!-- node6&#45;&gt;node11 -->
<g id="edge47" class="edge">
<title>node6&#45;&gt;node11</title>
<path fill="none" stroke="black" d="M1840.51,-378.15C1723.64,-369.55 1433.08,-347.93 1190,-328 1170.73,-326.42 1150.4,-324.7 1130.42,-322.99"/>
<polygon fill="black" stroke="black" points="1130.6,-319.49 1120.34,-322.12 1130,-326.46 1130.6,-319.49"/>
<text text-anchor="middle" x="1139.12" y="-311.55" font-family="Times,serif" font-size="14.00">*0</text>
</g>
<!-- node12 -->
<g id="node16" class="node">
<title>node12</title>
<polygon fill="orange" stroke="black" points="1502.91,-302.54 1502.91,-317.46 1413.92,-328 1288.08,-328 1199.09,-317.46 1199.09,-302.54 1288.08,-292 1413.92,-292 1502.91,-302.54"/>
<text text-anchor="middle" x="1351" y="-306.3" font-family="Times,serif" font-size="14.00">#12 GetField : int_field : int</text>
</g>
<!-- node6&#45;&gt;node12 -->
<g id="edge45" class="edge">
<title>node6&#45;&gt;node12</title>
<path fill="none" stroke="black" d="M1841.52,-375.26C1754.16,-363.81 1575.09,-340.35 1459.18,-325.17"/>
<polygon fill="black" stroke="black" points="1459.58,-321.69 1449.21,-323.86 1458.67,-328.63 1459.58,-321.69"/>
<text text-anchor="middle" x="1468.28" y="-314.14" font-family="Times,serif" font-size="14.00">*0</text>
</g>
<!-- node13 -->
<g id="node17" class="node">
<title>node13</title>
<polygon fill="orange" stroke="black" points="1875.27,-302.54 1875.27,-317.46 1776.7,-328 1637.3,-328 1538.73,-317.46 1538.73,-302.54 1637.3,-292 1776.7,-292 1875.27,-302.54"/>
<text text-anchor="middle" x="1707" y="-306.3" font-family="Times,serif" font-size="14.00">#13 GetField : long_field : long</text>
</g>
<!-- node6&#45;&gt;node13 -->
<g id="edge43" class="edge">
<title>node6&#45;&gt;node13</title>
<path fill="none" stroke="black" d="M1859.32,-369.14C1831.99,-358.71 1792.95,-343.81 1761.23,-331.7"/>
<polygon fill="black" stroke="black" points="1762.23,-328.34 1751.64,-328.04 1759.73,-334.88 1762.23,-328.34"/>
<text text-anchor="middle" x="1771.59" y="-322.91" font-family="Times,serif" font-size="14.00">*0</text>
</g>
<!-- node14 -->
<g id="node18" class="node">
<title>node14</title>
<polygon fill="orange" stroke="black" points="2247.68,-302.54 2247.68,-317.46 2148.87,-328 2009.13,-328 1910.32,-317.46 1910.32,-302.54 2009.13,-292 2148.87,-292 2247.68,-302.54"/>
<text text-anchor="middle" x="2079" y="-306.3" font-family="Times,serif" font-size="14.00">#14 GetField : float_field : float</text>
</g>
<!-- node6&#45;&gt;node14 -->
<g id="edge41" class="edge">
<title>node6&#45;&gt;node14</title>
<path fill="none" stroke="black" d="M1926.68,-369.14C1954.01,-358.71 1993.05,-343.81 2024.77,-331.7"/>
<polygon fill="black" stroke="black" points="2026.27,-334.88 2034.36,-328.04 2023.77,-328.34 2026.27,-334.88"/>
<text text-anchor="middle" x="2020.44" y="-338.7" font-family="Times,serif" font-size="14.00">*0</text>
</g>
<!-- node15 -->
<g id="node19" class="node">
<title>node15</title>
<polygon fill="orange" stroke="black" points="2667.11,-302.54 2667.11,-317.46 2554.57,-328 2395.43,-328 2282.89,-317.46 2282.89,-302.54 2395.43,-292 2554.57,-292 2667.11,-302.54"/>
<text text-anchor="middle" x="2475" y="-306.3" font-family="Times,serif" font-size="14.00">#15 GetField : double_field : double</text>
</g>
<!-- node6&#45;&gt;node15 -->
<g id="edge39" class="edge">
<title>node6&#45;&gt;node15</title>
<path fill="none" stroke="black" d="M1945.16,-375.64C2035.96,-364.56 2225.39,-341.45 2351.39,-326.08"/>
<polygon fill="black" stroke="black" points="2351.98,-329.53 2361.48,-324.85 2351.13,-322.59 2351.98,-329.53"/>
<text text-anchor="middle" x="2344.51" y="-331.73" font-family="Times,serif" font-size="14.00">*0</text>
</g>
<!-- node16 -->
<g id="node20" class="node">
<title>node16</title>
<polygon fill="orange" stroke="black" points="3075.35,-302.54 3075.35,-317.46 2966.19,-328 2811.81,-328 2702.65,-317.46 2702.65,-302.54 2811.81,-292 2966.19,-292 3075.35,-302.54"/>
<text text-anchor="middle" x="2889" y="-306.3" font-family="Times,serif" font-size="14.00">#16 GetField : string_field : String</text>
</g>
<!-- node6&#45;&gt;node16 -->
<g id="edge37" class="edge">
<title>node6&#45;&gt;node16</title>
<path fill="none" stroke="black" d="M1945.24,-378.59C2071.06,-370.34 2400.83,-348.47 2676,-328 2697.17,-326.42 2719.53,-324.7 2741.47,-322.98"/>
<polygon fill="black" stroke="black" points="2741.83,-326.47 2751.52,-322.19 2741.28,-319.49 2741.83,-326.47"/>
<text text-anchor="middle" x="2734.11" y="-328.34" font-family="Times,serif" font-size="14.00">*0</text>
</g>
<!-- node4&#45;&gt;node7 -->
<g id="edge7" class="edge">
<title>node4&#45;&gt;node7</title>
<path fill="none" stroke="red" d="M749.1,-437.92C736.13,-413.02 711.93,-366.54 696.68,-337.27"/>
<polygon fill="red" stroke="red" points="699.61,-335.31 691.89,-328.06 693.4,-338.55 699.61,-335.31"/>
</g>
<!-- node4&#45;&gt;node6 -->
<g id="edge9" class="edge">
<title>node4&#45;&gt;node6</title>
<path fill="none" stroke="black" d="M810.76,-451.5C997.95,-439.49 1629.32,-400 1830.75,-387.69"/>
<polygon fill="black" stroke="black" points="1831.09,-391.18 1840.86,-387.08 1830.66,-384.19 1831.09,-391.18"/>
<text text-anchor="middle" x="1823.28" y="-392.92" font-family="Times,serif" font-size="14.00">*0</text>
</g>
<!-- node4&#45;&gt;node6 -->
<g id="edge10" class="edge">
<title>node4&#45;&gt;node6</title>
<path fill="none" stroke="green" d="M810.85,-451.88C998.15,-440.47 1629.31,-401 1830.72,-388.11"/>
<polygon fill="green" stroke="green" points="1831.08,-391.59 1840.84,-387.46 1830.63,-384.61 1831.08,-391.59"/>
</g>
<!-- node3&#45;&gt;node4 -->
<g id="edge11" class="edge">
<title>node3&#45;&gt;node4</title>
<path fill="none" stroke="black" d="M586.89,-510.99C619.55,-500.69 661.35,-487.5 695.46,-476.73"/>
<polygon fill="black" stroke="black" points="696.84,-479.97 705.32,-473.62 694.73,-473.29 696.84,-479.97"/>
<text text-anchor="middle" x="690.58" y="-483.44" font-family="Times,serif" font-size="14.00">*0</text>
</g>
<!-- node2&#45;&gt;node4 -->
<g id="edge12" class="edge">
<title>node2&#45;&gt;node4</title>
<path fill="none" stroke="red" d="M821.67,-510.81C810.94,-501.74 797.61,-490.48 785.92,-480.6"/>
<polygon fill="red" stroke="red" points="788.04,-477.81 778.15,-474.03 783.52,-483.16 788.04,-477.81"/>
</g>
<!-- node10&#45;&gt;node20 -->
<g id="edge25" class="edge">
<title>node10&#45;&gt;node20</title>
<path fill="none" stroke="black" d="M3545.87,-295.16C3326.88,-266.43 2805.77,-198.64 2368,-146 2264.63,-133.57 2148.54,-120.39 2056.88,-110.15"/>
<polygon fill="black" stroke="black" points="2057,-106.65 2046.68,-109.02 2056.23,-113.6 2057,-106.65"/>
<text text-anchor="middle" x="2065.63" y="-98.93" font-family="Times,serif" font-size="14.00">*3</text>
</g>
<!-- node10&#45;&gt;node11 -->
<g id="edge48" class="edge">
<title>node10&#45;&gt;node11</title>
<path fill="none" stroke="green" d="M3574.19,-327.69C3538.21,-335.1 3494.64,-342.84 3455,-346.5 3205.39,-369.54 1448.69,-368.66 1199,-346.5 1160.51,-343.08 1118.41,-336.11 1082.5,-329.16"/>
<polygon fill="green" stroke="green" points="1083.03,-325.7 1072.55,-327.21 1081.68,-332.57 1083.03,-325.7"/>
</g>
<!-- node9&#45;&gt;node10 -->
<g id="edge17" class="edge">
<title>node9&#45;&gt;node10</title>
<path fill="none" stroke="green" d="M3863.63,-310C3855.27,-310 3846.9,-310 3838.54,-310"/>
<polygon fill="green" stroke="green" points="3838.34,-306.5 3828.34,-310 3838.34,-313.5 3838.34,-306.5"/>
</g>
<!-- node9&#45;&gt;node20 -->
<g id="edge24" class="edge">
<title>node9&#45;&gt;node20</title>
<path fill="none" stroke="black" d="M3940.82,-295.46C3683.09,-266.38 3054.53,-196.47 2527,-146 2390.41,-132.93 2237.14,-119.85 2115.41,-109.84"/>
<polygon fill="black" stroke="black" points="2115.47,-106.33 2105.22,-109 2114.9,-113.31 2115.47,-106.33"/>
<text text-anchor="middle" x="2123.97" y="-98.36" font-family="Times,serif" font-size="14.00">*2</text>
</g>
<!-- node8&#45;&gt;node9 -->
<g id="edge19" class="edge">
<title>node8&#45;&gt;node9</title>
<path fill="none" stroke="green" d="M435.24,-327.21C472.03,-334.77 517.1,-342.76 558,-346.5 738.91,-363.04 3646.89,-360.66 3828,-346.5 3871.94,-343.06 3920.13,-336.02 3961.15,-329.03"/>
<polygon fill="green" stroke="green" points="3961.89,-332.46 3971.15,-327.31 3960.7,-325.56 3961.89,-332.46"/>
</g>
<!-- node8&#45;&gt;node20 -->
<g id="edge23" class="edge">
<title>node8&#45;&gt;node20</title>
<path fill="none" stroke="black" d="M272.28,-294.19C197.03,-277.89 107.13,-247.5 151,-200 195.59,-151.72 980.46,-119.25 1481,-103.35"/>
<polygon fill="black" stroke="black" points="1481.41,-106.84 1491.3,-103.03 1481.19,-99.85 1481.41,-106.84"/>
<text text-anchor="middle" x="1473.45" y="-108.35" font-family="Times,serif" font-size="14.00">*1</text>
</g>
<!-- node21 -->
<g id="node21" class="node">
<title>node21</title>
<polygon fill="lightgrey" stroke="black" points="1978.5,-36 1805.5,-36 1805.5,0 1978.5,0 1978.5,-36"/>
<text text-anchor="middle" x="1892" y="-14.3" font-family="Times,serif" font-size="14.00">#21 ReturnValue : int</text>
</g>
<!-- node20&#45;&gt;node21 -->
<g id="edge49" class="edge">
<title>node20&#45;&gt;node21</title>
<path fill="none" stroke="black" d="M1880.24,-72.81C1878.56,-64.79 1878.1,-55.05 1878.84,-46.07"/>
<polygon fill="black" stroke="black" points="1882.33,-46.42 1880.28,-36.03 1875.4,-45.43 1882.33,-46.42"/>
<text text-anchor="middle" x="1886.08" y="-51.47" font-family="Times,serif" font-size="14.00">*0</text>
</g>
<!-- node20&#45;&gt;node21 -->
<g id="edge50" class="edge">
<title>node20&#45;&gt;node21</title>
<path fill="none" stroke="red" d="M1892,-72.81C1892,-64.79 1892,-55.05 1892,-46.07"/>
<polygon fill="red" stroke="red" points="1895.5,-46.03 1892,-36.03 1888.5,-46.03 1895.5,-46.03"/>
</g>
<!-- node20&#45;&gt;node21 -->
<g id="edge51" class="edge">
<title>node20&#45;&gt;node21</title>
<path fill="none" stroke="green" d="M1903.76,-72.81C1905.44,-64.79 1905.9,-55.05 1905.16,-46.07"/>
<polygon fill="green" stroke="green" points="1908.6,-45.43 1903.72,-36.03 1901.67,-46.42 1908.6,-45.43"/>
</g>
<!-- node11&#45;&gt;node20 -->
<g id="edge26" class="edge">
<title>node11&#45;&gt;node20</title>
<path fill="none" stroke="black" d="M1064.31,-291.96C1185.74,-262.13 1444.89,-198.64 1664,-146 1712.25,-134.41 1766.3,-121.6 1809.65,-111.37"/>
<polygon fill="black" stroke="black" points="1810.65,-114.73 1819.58,-109.03 1809.04,-107.92 1810.65,-114.73"/>
<text text-anchor="middle" x="1803.88" y="-117.71" font-family="Times,serif" font-size="14.00">*4</text>
</g>
<!-- node11&#45;&gt;node12 -->
<g id="edge46" class="edge">
<title>node11&#45;&gt;node12</title>
<path fill="none" stroke="green" d="M1163.96,-310C1172.27,-310 1180.58,-310 1188.89,-310"/>
<polygon fill="green" stroke="green" points="1189.03,-313.5 1199.03,-310 1189.03,-306.5 1189.03,-313.5"/>
</g>
<!-- node12&#45;&gt;node20 -->
<g id="edge27" class="edge">
<title>node12&#45;&gt;node20</title>
<path fill="none" stroke="black" d="M1393.45,-291.97C1491.4,-252.68 1732.96,-155.79 1839.77,-112.95"/>
<polygon fill="black" stroke="black" points="1841.39,-116.07 1849.37,-109.1 1838.79,-109.57 1841.39,-116.07"/>
<text text-anchor="middle" x="1835.7" y="-119.99" font-family="Times,serif" font-size="14.00">*5</text>
</g>
<!-- node12&#45;&gt;node13 -->
<g id="edge44" class="edge">
<title>node12&#45;&gt;node13</title>
<path fill="none" stroke="green" d="M1502.93,-310C1511.52,-310 1520.11,-310 1528.71,-310"/>
<polygon fill="green" stroke="green" points="1528.8,-313.5 1538.8,-310 1528.8,-306.5 1528.8,-313.5"/>
</g>
<!-- node13&#45;&gt;node20 -->
<g id="edge28" class="edge">
<title>node13&#45;&gt;node20</title>
<path fill="none" stroke="black" d="M1721.52,-291.97C1753.99,-253.88 1832.64,-161.63 1870.68,-117"/>
<polygon fill="black" stroke="black" points="1873.47,-119.13 1877.29,-109.25 1868.14,-114.59 1873.47,-119.13"/>
<text text-anchor="middle" x="1871.97" y="-124.83" font-family="Times,serif" font-size="14.00">*6</text>
</g>
<!-- node13&#45;&gt;node14 -->
<g id="edge42" class="edge">
<title>node13&#45;&gt;node14</title>
<path fill="none" stroke="green" d="M1875.2,-310C1883.5,-310 1891.8,-310 1900.1,-310"/>
<polygon fill="green" stroke="green" points="1900.23,-313.5 1910.23,-310 1900.23,-306.5 1900.23,-313.5"/>
</g>
<!-- node14&#45;&gt;node20 -->
<g id="edge29" class="edge">
<title>node14&#45;&gt;node20</title>
<path fill="none" stroke="black" d="M2064.33,-291.97C2031.5,-253.88 1952,-161.63 1913.55,-117"/>
<polygon fill="black" stroke="black" points="1916.04,-114.54 1906.86,-109.25 1910.74,-119.11 1916.04,-114.54"/>
<text text-anchor="middle" x="1925.1" y="-113.76" font-family="Times,serif" font-size="14.00">*7</text>
</g>
<!-- node14&#45;&gt;node15 -->
<g id="edge40" class="edge">
<title>node14&#45;&gt;node15</title>
<path fill="none" stroke="green" d="M2248,-310C2256.1,-310 2264.21,-310 2272.31,-310"/>
<polygon fill="green" stroke="green" points="2272.58,-313.5 2282.58,-310 2272.58,-306.5 2272.58,-313.5"/>
</g>
<!-- node15&#45;&gt;node20 -->
<g id="edge30" class="edge">
<title>node15&#45;&gt;node20</title>
<path fill="none" stroke="black" d="M2429.25,-291.97C2323.49,-252.6 2062.33,-155.4 1947.59,-112.69"/>
<polygon fill="black" stroke="black" points="1948.53,-109.31 1937.94,-109.1 1946.09,-115.87 1948.53,-109.31"/>
<text text-anchor="middle" x="1957.87" y="-103.8" font-family="Times,serif" font-size="14.00">*8</text>
</g>
<!-- node15&#45;&gt;node16 -->
<g id="edge38" class="edge">
<title>node15&#45;&gt;node16</title>
<path fill="none" stroke="green" d="M2667.45,-310C2675.75,-310 2684.06,-310 2692.36,-310"/>
<polygon fill="green" stroke="green" points="2692.5,-313.5 2702.5,-310 2692.5,-306.5 2692.5,-313.5"/>
</g>
<!-- node16&#45;&gt;node17 -->
<g id="edge36" class="edge">
<title>node16&#45;&gt;node17</title>
<path fill="none" stroke="green" d="M3075.61,-310C3083.87,-310 3092.12,-310 3100.38,-310"/>
<polygon fill="green" stroke="green" points="3100.45,-313.5 3110.45,-310 3100.45,-306.5 3100.45,-313.5"/>
</g>
<!-- node16&#45;&gt;node20 -->
<g id="edge31" class="edge">
<title>node16&#45;&gt;node20</title>
<path fill="none" stroke="black" d="M2810.77,-291.97C2627.69,-252.13 2172.37,-153.02 1980.01,-111.15"/>
<polygon fill="black" stroke="black" points="1980.73,-107.73 1970.21,-109.02 1979.24,-114.57 1980.73,-107.73"/>
<text text-anchor="middle" x="1989.72" y="-100.92" font-family="Times,serif" font-size="14.00">*9</text>
</g>
<!-- c0 -->
<!-- c1 -->
<!-- c0&#45;&gt;c1 -->
<g id="edge52" class="edge">
<title>c0&#45;&gt;c1</title>
<path fill="none" stroke="red" d="M1477.89,-611C1489.11,-611 1547.24,-611 1572.86,-611"/>
<polygon fill="red" stroke="red" points="1573.06,-614.5 1583.06,-611 1573.06,-607.5 1573.06,-614.5"/>
<text text-anchor="middle" x="1530.5" y="-617.8" font-family="Times,serif" font-size="14.00">Control flow</text>
</g>
<!-- c2 -->
<!-- c3 -->
<!-- c2&#45;&gt;c3 -->
<g id="edge53" class="edge">
<title>c2&#45;&gt;c3</title>
<path fill="none" stroke="red" stroke-dasharray="5,2" d="M1271.08,-611C1288.05,-611 1404.21,-611 1442.08,-611"/>
<polygon fill="red" stroke="red" points="1442.17,-614.5 1452.17,-611 1442.17,-607.5 1442.17,-614.5"/>
<text text-anchor="middle" x="1361.5" y="-617.8" font-family="Times,serif" font-size="14.00">Control flow back edge</text>
</g>
<!-- d0 -->
<!-- d1 -->
<!-- d0&#45;&gt;d1 -->
<g id="edge54" class="edge">
<title>d0&#45;&gt;d1</title>
<path fill="none" stroke="black" d="M1159.86,-611C1169.41,-611 1213.31,-611 1234.92,-611"/>
<polygon fill="black" stroke="black" points="1235.15,-614.5 1245.15,-611 1235.15,-607.5 1235.15,-614.5"/>
<text text-anchor="middle" x="1202.5" y="-617.8" font-family="Times,serif" font-size="14.00">Data flow</text>
</g>
<!-- d2 -->
<!-- d3 -->
<!-- d2&#45;&gt;d3 -->
<g id="edge55" class="edge">
<title>d2&#45;&gt;d3</title>
<path fill="none" stroke="black" stroke-dasharray="1,5" d="M1033.81,-611C1044.46,-611 1099.46,-611 1124.08,-611"/>
<polygon fill="black" stroke="black" points="1124.15,-614.5 1134.15,-611 1124.15,-607.5 1124.15,-614.5"/>
<text text-anchor="middle" x="1084" y="-617.8" font-family="Times,serif" font-size="14.00">Declaration</text>
</g>
<!-- d4 -->
<!-- d5 -->
<!-- d4&#45;&gt;d5 -->
<g id="edge56" class="edge">
<title>d4&#45;&gt;d5</title>
<path fill="none" stroke="blue" d="M891.1,-611C903.72,-611 969.88,-611 997.68,-611"/>
<polygon fill="blue" stroke="blue" points="997.84,-614.5 1007.84,-611 997.84,-607.5 997.84,-614.5"/>
<text text-anchor="middle" x="949.5" y="-617.8" font-family="Times,serif" font-size="14.00">PHI Data flow</text>
</g>
<!-- d6 -->
<!-- d7 -->
<!-- d6&#45;&gt;d7 -->
<g id="edge57" class="edge">
<title>d6&#45;&gt;d7</title>
<path fill="none" stroke="green" d="M754,-611C765.94,-611 828.3,-611 854.93,-611"/>
<polygon fill="green" stroke="green" points="854.95,-614.5 864.95,-611 854.95,-607.5 854.95,-614.5"/>
<text text-anchor="middle" x="809.5" y="-617.8" font-family="Times,serif" font-size="14.00">Memory flow</text>
</g>
</g>
</svg>
