<?xml version="1.0" encoding="UTF-8" standalone="no"?>
<!DOCTYPE svg PUBLIC "-//W3C//DTD SVG 1.1//EN"
 "http://www.w3.org/Graphics/SVG/1.1/DTD/svg11.dtd">
<!-- Generated by graphviz version 2.43.0 (0)
 -->
<!-- Title: debugoutput Pages: 1 -->
<svg width="2465pt" height="1308pt"
 viewBox="0.00 0.00 2465.00 1307.80" xmlns="http://www.w3.org/2000/svg" xmlns:xlink="http://www.w3.org/1999/xlink">
<g id="graph0" class="graph" transform="scale(1 1) rotate(0) translate(4 1303.8)">
<title>debugoutput</title>
<polygon fill="white" stroke="transparent" points="-4,4 -4,-1303.8 2461,-1303.8 2461,4 -4,4"/>
<g id="clust1" class="cluster">
<title>cluster_000</title>
<polygon fill="none" stroke="black" points="1610,-1249.2 1610,-1291.8 2449,-1291.8 2449,-1249.2 1610,-1249.2"/>
<text text-anchor="middle" x="2029.5" y="-1276.6" font-family="Times,serif" font-size="14.00">Legend</text>
</g>
<!-- node0 -->
<g id="node1" class="node">
<title>node0</title>
<polygon fill="lightgrey" stroke="black" points="1600,-1277 1434,-1277 1434,-1241 1600,-1241 1600,-1277"/>
<text text-anchor="middle" x="1517" y="-1255.3" font-family="Times,serif" font-size="14.00">#0 Method Order : 0</text>
</g>
<!-- node1 -->
<g id="node2" class="node">
<title>node1</title>
<polygon fill="lightgrey" stroke="black" points="1286,-1131 1112,-1131 1112,-1095 1286,-1095 1286,-1131"/>
<text text-anchor="middle" x="1199" y="-1109.3" font-family="Times,serif" font-size="14.00">#1 ClassInit Order : 5</text>
</g>
<!-- node0&#45;&gt;node1 -->
<g id="edge4" class="edge">
<title>node0&#45;&gt;node1</title>
<path fill="none" stroke="black" d="M1433.87,-1258.13C1248.83,-1257.62 816.05,-1251.39 772,-1204 761.11,-1192.28 761.44,-1180.02 772,-1168 793.21,-1143.87 982.06,-1127.43 1101.45,-1119.49"/>
<polygon fill="black" stroke="black" points="1101.96,-1122.96 1111.71,-1118.82 1101.5,-1115.98 1101.96,-1122.96"/>
</g>
<!-- node21 -->
<g id="node3" class="node">
<title>node21</title>
<polygon fill="lightgreen" stroke="black" points="1286.17,-1178.54 1286.17,-1193.46 1140.79,-1204 935.21,-1204 789.83,-1193.46 789.83,-1178.54 935.21,-1168 1140.79,-1168 1286.17,-1178.54"/>
<text text-anchor="middle" x="1038" y="-1182.3" font-family="Times,serif" font-size="14.00">#21 Class MethodInvokeTest$Source Order : 1</text>
</g>
<!-- node0&#45;&gt;node21 -->
<g id="edge73" class="edge">
<title>node0&#45;&gt;node21</title>
<path fill="none" stroke="black" stroke-dasharray="1,5" d="M1433.83,-1246.43C1356.8,-1235.28 1241.51,-1218.24 1155.17,-1205.25"/>
<polygon fill="black" stroke="black" points="1155.46,-1201.76 1145.05,-1203.73 1154.42,-1208.68 1155.46,-1201.76"/>
</g>
<!-- node16 -->
<g id="node4" class="node">
<title>node16</title>
<polygon fill="lightgrey" stroke="black" points="1501.5,-1204 1304.5,-1204 1304.5,-1168 1501.5,-1168 1501.5,-1204"/>
<text text-anchor="middle" x="1403" y="-1182.3" font-family="Times,serif" font-size="14.00">#16 LabelNode Order : 3</text>
</g>
<!-- node0&#45;&gt;node16 -->
<g id="edge47" class="edge">
<title>node0&#45;&gt;node16</title>
<path fill="none" stroke="red" d="M1483.83,-1240.99C1467.87,-1231.67 1448.93,-1219.97 1433.35,-1209.86"/>
<polygon fill="red" stroke="red" points="1434.89,-1206.68 1424.61,-1204.11 1431.04,-1212.53 1434.89,-1206.68"/>
</g>
<!-- node15 -->
<g id="node18" class="node">
<title>node15</title>
<polygon fill="lightgrey" stroke="black" points="1812.5,-1204 1519.5,-1204 1519.5,-1168 1812.5,-1168 1812.5,-1204"/>
<text text-anchor="middle" x="1666" y="-1182.3" font-family="Times,serif" font-size="14.00">#15 this : MethodInvokeTest Order : 4</text>
</g>
<!-- node0&#45;&gt;node15 -->
<g id="edge45" class="edge">
<title>node0&#45;&gt;node15</title>
<path fill="none" stroke="black" d="M1546.83,-1240.99C1566.37,-1231.19 1592.31,-1218.77 1615.03,-1208.31"/>
<polygon fill="black" stroke="black" points="1616.57,-1211.45 1624.22,-1204.11 1613.67,-1205.09 1616.57,-1211.45"/>
<text text-anchor="middle" x="1611.24" y="-1215.64" font-family="Times,serif" font-size="14.00">*0</text>
</g>
<!-- node17 -->
<g id="node19" class="node">
<title>node17</title>
<polygon fill="lightgreen" stroke="black" points="2245.56,-1178.54 2245.56,-1193.46 2123.97,-1204 1952.03,-1204 1830.44,-1193.46 1830.44,-1178.54 1952.03,-1168 2123.97,-1168 2245.56,-1178.54"/>
<text text-anchor="middle" x="2038" y="-1182.3" font-family="Times,serif" font-size="14.00">#17 Class MethodInvokeTest Order : 2</text>
</g>
<!-- node0&#45;&gt;node17 -->
<g id="edge49" class="edge">
<title>node0&#45;&gt;node17</title>
<path fill="none" stroke="black" stroke-dasharray="1,5" d="M1597.28,-1240.96C1697.26,-1225.18 1810.81,-1211.14 1897.64,-1201.34"/>
<polygon fill="black" stroke="black" points="1898.28,-1204.79 1907.83,-1200.2 1897.5,-1197.84 1898.28,-1204.79"/>
</g>
<!-- node1&#45;&gt;node0 -->
<g id="edge1" class="edge">
<title>node1&#45;&gt;node0</title>
<path fill="none" stroke="green" stroke-width="2" d="M1111.93,-1119.61C998.17,-1127.6 811.11,-1143.99 790,-1168 779.44,-1180.02 779.11,-1192.28 790,-1204 832.53,-1249.76 1237.45,-1257.14 1423.92,-1258.06"/>
<polygon fill="green" stroke="green" stroke-width="2" points="1423.97,-1261.56 1433.99,-1258.1 1424,-1254.56 1423.97,-1261.56"/>
</g>
<!-- node2 -->
<g id="node5" class="node">
<title>node2</title>
<polygon fill="lightgrey" stroke="black" points="1679.5,-985 1360.5,-985 1360.5,-949 1679.5,-949 1679.5,-985"/>
<text text-anchor="middle" x="1520" y="-963.3" font-family="Times,serif" font-size="14.00">#2 Invoke special &lt;init&gt; : ()void Order : 7</text>
</g>
<!-- node1&#45;&gt;node2 -->
<g id="edge7" class="edge">
<title>node1&#45;&gt;node2</title>
<path fill="none" stroke="red" d="M1232.53,-1094.92C1288.62,-1068.5 1401.5,-1017.81 1467.96,-989.13"/>
<polygon fill="red" stroke="red" points="1469.61,-992.23 1477.41,-985.06 1466.84,-985.8 1469.61,-992.23"/>
</g>
<!-- node4 -->
<g id="node6" class="node">
<title>node4</title>
<polygon fill="orange" stroke="black" points="1299.7,-1032.54 1299.7,-1047.46 1240.71,-1058 1157.29,-1058 1098.3,-1047.46 1098.3,-1032.54 1157.29,-1022 1240.71,-1022 1299.7,-1032.54"/>
<text text-anchor="middle" x="1199" y="-1036.3" font-family="Times,serif" font-size="14.00">#4 New Order : 6</text>
</g>
<!-- node1&#45;&gt;node4 -->
<g id="edge12" class="edge">
<title>node1&#45;&gt;node4</title>
<path fill="none" stroke="black" d="M1187.24,-1094.81C1185.56,-1086.79 1185.1,-1077.05 1185.84,-1068.07"/>
<polygon fill="black" stroke="black" points="1189.33,-1068.42 1187.28,-1058.03 1182.4,-1067.43 1189.33,-1068.42"/>
<text text-anchor="middle" x="1193.08" y="-1073.47" font-family="Times,serif" font-size="14.00">*0</text>
</g>
<!-- node1&#45;&gt;node4 -->
<g id="edge13" class="edge">
<title>node1&#45;&gt;node4</title>
<path fill="none" stroke="black" d="M1210.76,-1094.81C1212.44,-1086.79 1212.9,-1077.05 1212.16,-1068.07"/>
<polygon fill="black" stroke="black" points="1215.6,-1067.43 1210.72,-1058.03 1208.67,-1068.42 1215.6,-1067.43"/>
</g>
<!-- node21&#45;&gt;node0 -->
<g id="edge72" class="edge">
<title>node21&#45;&gt;node0</title>
<path fill="none" stroke="green" stroke-width="2" d="M1152.67,-1203.14C1235.6,-1215.23 1346.19,-1231.63 1423.72,-1243.35"/>
<polygon fill="green" stroke="green" stroke-width="2" points="1423.55,-1246.86 1433.96,-1244.89 1424.6,-1239.94 1423.55,-1246.86"/>
</g>
<!-- node21&#45;&gt;node1 -->
<g id="edge2" class="edge">
<title>node21&#45;&gt;node1</title>
<path fill="none" stroke="black" d="M1076.56,-1167.99C1098.9,-1158.14 1127.22,-1145.66 1150.99,-1135.17"/>
<polygon fill="black" stroke="black" points="1152.46,-1138.35 1160.19,-1131.11 1149.63,-1131.95 1152.46,-1138.35"/>
<text text-anchor="middle" x="1147.02" y="-1142.46" font-family="Times,serif" font-size="14.00">*0</text>
</g>
<!-- node16&#45;&gt;node0 -->
<g id="edge46" class="edge">
<title>node16&#45;&gt;node0</title>
<path fill="none" stroke="green" stroke-width="2" d="M1436.35,-1204.11C1452.34,-1213.46 1471.27,-1225.15 1486.83,-1235.26"/>
<polygon fill="green" stroke="green" stroke-width="2" points="1485.27,-1238.42 1495.55,-1240.99 1489.12,-1232.57 1485.27,-1238.42"/>
</g>
<!-- node16&#45;&gt;node1 -->
<g id="edge3" class="edge">
<title>node16&#45;&gt;node1</title>
<path fill="none" stroke="red" d="M1354.14,-1167.99C1325.21,-1157.92 1288.36,-1145.1 1257.84,-1134.48"/>
<polygon fill="red" stroke="red" points="1258.77,-1131.1 1248.17,-1131.11 1256.47,-1137.71 1258.77,-1131.1"/>
</g>
<!-- node2&#45;&gt;node1 -->
<g id="edge5" class="edge">
<title>node2&#45;&gt;node1</title>
<path fill="none" stroke="green" stroke-width="2" d="M1486.52,-985.06C1430.46,-1011.46 1317.58,-1062.16 1251.1,-1090.85"/>
<polygon fill="green" stroke="green" stroke-width="2" points="1249.44,-1087.75 1241.64,-1094.92 1252.21,-1094.18 1249.44,-1087.75"/>
</g>
<!-- node3 -->
<g id="node7" class="node">
<title>node3</title>
<polygon fill="lightgrey" stroke="black" points="1614,-912 1426,-912 1426,-876 1614,-876 1614,-912"/>
<text text-anchor="middle" x="1520" y="-890.3" font-family="Times,serif" font-size="14.00">#3 LabelNode Order : 8</text>
</g>
<!-- node2&#45;&gt;node3 -->
<g id="edge10" class="edge">
<title>node2&#45;&gt;node3</title>
<path fill="none" stroke="red" d="M1514.12,-948.81C1513.28,-940.79 1513.05,-931.05 1513.42,-922.07"/>
<polygon fill="red" stroke="red" points="1516.92,-922.25 1514.14,-912.03 1509.94,-921.75 1516.92,-922.25"/>
</g>
<!-- node13 -->
<g id="node16" class="node">
<title>node13</title>
<polygon fill="orange" stroke="black" points="1184.26,-886.54 1184.26,-901.46 1056.99,-912 877.01,-912 749.74,-901.46 749.74,-886.54 877.01,-876 1056.99,-876 1184.26,-886.54"/>
<text text-anchor="middle" x="967" y="-890.3" font-family="Times,serif" font-size="14.00">#13 GetField : byte_field : byte Order : 9</text>
</g>
<!-- node2&#45;&gt;node13 -->
<g id="edge40" class="edge">
<title>node2&#45;&gt;node13</title>
<path fill="none" stroke="black" d="M1387.54,-948.99C1298.16,-937.52 1180.92,-922.47 1092.94,-911.17"/>
<polygon fill="black" stroke="black" points="1093.27,-907.68 1082.9,-909.88 1092.38,-914.63 1093.27,-907.68"/>
</g>
<!-- node4&#45;&gt;node1 -->
<g id="edge11" class="edge">
<title>node4&#45;&gt;node1</title>
<path fill="none" stroke="green" stroke-width="2" d="M1199,-1058.03C1199,-1066.03 1199,-1075.77 1199,-1084.75"/>
<polygon fill="green" stroke="green" stroke-width="2" points="1195.5,-1084.81 1199,-1094.81 1202.5,-1084.81 1195.5,-1084.81"/>
</g>
<!-- node4&#45;&gt;node2 -->
<g id="edge6" class="edge">
<title>node4&#45;&gt;node2</title>
<path fill="none" stroke="black" d="M1257.29,-1024.89C1304.65,-1014.09 1372.28,-999.1 1427.08,-987.21"/>
<polygon fill="black" stroke="black" points="1428.12,-990.56 1437.15,-985.03 1426.64,-983.72 1428.12,-990.56"/>
<text text-anchor="middle" x="1421.23" y="-993.42" font-family="Times,serif" font-size="14.00">*0</text>
</g>
<!-- node4&#45;&gt;node2 -->
<g id="edge8" class="edge">
<title>node4&#45;&gt;node2</title>
<path fill="none" stroke="black" d="M1263.24,-1025.98C1313.79,-1015.14 1384.48,-999.56 1438.91,-987.28"/>
<polygon fill="black" stroke="black" points="1439.9,-990.65 1448.88,-985.03 1438.36,-983.82 1439.9,-990.65"/>
</g>
<!-- node5 -->
<g id="node8" class="node">
<title>node5</title>
<polygon fill="orange" stroke="black" points="2009.79,-229.54 2009.79,-244.46 1880.46,-255 1697.54,-255 1568.21,-244.46 1568.21,-229.54 1697.54,-219 1880.46,-219 2009.79,-229.54"/>
<text text-anchor="middle" x="1789" y="-233.3" font-family="Times,serif" font-size="14.00">#5 GetField : array_field : int[] Order : 18</text>
</g>
<!-- node4&#45;&gt;node5 -->
<g id="edge15" class="edge">
<title>node4&#45;&gt;node5</title>
<path fill="none" stroke="black" d="M1299.87,-1034.92C1448.26,-1027.54 1708,-1008.79 1708,-968 1708,-968 1708,-968 1708,-711 1708,-644.38 1746,-632.62 1746,-566 1746,-566 1746,-566 1746,-309 1746,-292.1 1755.03,-275.78 1764.81,-263.05"/>
<polygon fill="black" stroke="black" points="1767.59,-265.18 1771.26,-255.24 1762.2,-260.72 1767.59,-265.18"/>
<text text-anchor="middle" x="1766.24" y="-270.9" font-family="Times,serif" font-size="14.00">*0</text>
</g>
<!-- node12 -->
<g id="node9" class="node">
<title>node12</title>
<polygon fill="orange" stroke="black" points="1642.1,-302.54 1642.1,-317.46 1500.87,-328 1301.13,-328 1159.9,-317.46 1159.9,-302.54 1301.13,-292 1500.87,-292 1642.1,-302.54"/>
<text text-anchor="middle" x="1401" y="-306.3" font-family="Times,serif" font-size="14.00">#12 GetField : string_field : String Order : 17</text>
</g>
<!-- node4&#45;&gt;node12 -->
<g id="edge36" class="edge">
<title>node4&#45;&gt;node12</title>
<path fill="none" stroke="black" d="M1231.65,-1022C1242.07,-1016.42 1253.6,-1010.08 1264,-1004 1277.62,-996.03 1283.02,-996.34 1294,-985 1320.19,-957.95 1318.92,-945.03 1337,-912 1433.49,-735.68 1565.65,-443.81 1575,-401 1578.42,-385.37 1584.49,-377.88 1575,-365 1563.66,-349.6 1547.97,-338.47 1530.61,-330.44"/>
<polygon fill="black" stroke="black" points="1531.98,-327.21 1521.4,-326.52 1529.23,-333.65 1531.98,-327.21"/>
<text text-anchor="middle" x="1541.39" y="-322.14" font-family="Times,serif" font-size="14.00">*0</text>
</g>
<!-- node6 -->
<g id="node10" class="node">
<title>node6</title>
<polygon fill="orange" stroke="black" points="1480.26,-448.54 1480.26,-463.46 1352.99,-474 1173.01,-474 1045.74,-463.46 1045.74,-448.54 1173.01,-438 1352.99,-438 1480.26,-448.54"/>
<text text-anchor="middle" x="1263" y="-452.3" font-family="Times,serif" font-size="14.00">#6 GetField : float_field : float Order : 15</text>
</g>
<!-- node4&#45;&gt;node6 -->
<g id="edge18" class="edge">
<title>node4&#45;&gt;node6</title>
<path fill="none" stroke="black" d="M1214.1,-1021.9C1239.49,-991.3 1288,-924.18 1288,-858 1288,-858 1288,-858 1288,-528 1288,-512.69 1282.77,-496.53 1277.09,-483.49"/>
<polygon fill="black" stroke="black" points="1280.15,-481.78 1272.74,-474.21 1273.81,-484.75 1280.15,-481.78"/>
<text text-anchor="middle" x="1288.08" y="-483.34" font-family="Times,serif" font-size="14.00">*0</text>
</g>
<!-- node8 -->
<g id="node11" class="node">
<title>node8</title>
<polygon fill="orange" stroke="black" points="1145.85,-521.54 1145.85,-536.46 1018.82,-547 839.18,-547 712.15,-536.46 712.15,-521.54 839.18,-511 1018.82,-511 1145.85,-521.54"/>
<text text-anchor="middle" x="929" y="-525.3" font-family="Times,serif" font-size="14.00">#8 GetField : long_field : long Order : 14</text>
</g>
<!-- node4&#45;&gt;node8 -->
<g id="edge24" class="edge">
<title>node4&#45;&gt;node8</title>
<path fill="none" stroke="black" d="M1204.07,-1021.96C1215.01,-982.06 1237.56,-880.15 1208,-803 1166.23,-694 1153.44,-657.81 1063,-584 1045.48,-569.7 1023.67,-558.77 1002.77,-550.61"/>
<polygon fill="black" stroke="black" points="1003.84,-547.28 993.25,-547.06 1001.39,-553.84 1003.84,-547.28"/>
<text text-anchor="middle" x="1013.19" y="-541.78" font-family="Times,serif" font-size="14.00">*0</text>
</g>
<!-- node7 -->
<g id="node12" class="node">
<title>node7</title>
<polygon fill="orange" stroke="black" points="1054.49,-594.54 1054.49,-609.46 937.05,-620 770.95,-620 653.51,-609.46 653.51,-594.54 770.95,-584 937.05,-584 1054.49,-594.54"/>
<text text-anchor="middle" x="854" y="-598.3" font-family="Times,serif" font-size="14.00">#7 GetField : int_field : int Order : 13</text>
</g>
<!-- node4&#45;&gt;node7 -->
<g id="edge21" class="edge">
<title>node4&#45;&gt;node7</title>
<path fill="none" stroke="black" d="M1200.29,-1021.75C1203.56,-973.72 1210.4,-839.55 1188,-803 1128.73,-706.29 1003.63,-650.43 924.49,-623.42"/>
<polygon fill="black" stroke="black" points="925.18,-619.96 914.59,-620.11 922.97,-626.6 925.18,-619.96"/>
<text text-anchor="middle" x="934.46" y="-614.14" font-family="Times,serif" font-size="14.00">*0</text>
</g>
<!-- node11 -->
<g id="node13" class="node">
<title>node11</title>
<polygon fill="orange" stroke="black" points="825.92,-667.54 825.92,-682.46 694.75,-693 509.25,-693 378.08,-682.46 378.08,-667.54 509.25,-657 694.75,-657 825.92,-667.54"/>
<text text-anchor="middle" x="602" y="-671.3" font-family="Times,serif" font-size="14.00">#11 GetField : char_field : char Order : 12</text>
</g>
<!-- node4&#45;&gt;node11 -->
<g id="edge33" class="edge">
<title>node4&#45;&gt;node11</title>
<path fill="none" stroke="black" d="M1098.13,-1037.09C995.65,-1029.8 838.52,-1003.12 741,-912 722.41,-894.63 722,-883.44 722,-858 722,-858 722,-858 722,-747 722,-723.81 705.19,-708.03 684.15,-697.37"/>
<polygon fill="black" stroke="black" points="685.46,-694.11 674.92,-693.1 682.53,-700.47 685.46,-694.11"/>
<text text-anchor="middle" x="694.92" y="-689.32" font-family="Times,serif" font-size="14.00">*0</text>
</g>
<!-- node9 -->
<g id="node14" class="node">
<title>node9</title>
<polygon fill="orange" stroke="black" points="1565.69,-375.54 1565.69,-390.46 1424.7,-401 1225.3,-401 1084.31,-390.46 1084.31,-375.54 1225.3,-365 1424.7,-365 1565.69,-375.54"/>
<text text-anchor="middle" x="1325" y="-379.3" font-family="Times,serif" font-size="14.00">#9 GetField : double_field : double Order : 16</text>
</g>
<!-- node4&#45;&gt;node9 -->
<g id="edge27" class="edge">
<title>node4&#45;&gt;node9</title>
<path fill="none" stroke="black" d="M1226.52,-1021.86C1240.09,-1012.32 1255.89,-999.47 1267,-985 1342.39,-886.79 1463.81,-595.22 1489,-474 1492.26,-458.33 1498.38,-450.96 1489,-438 1478.18,-423.04 1463.07,-412.16 1446.36,-404.25"/>
<polygon fill="black" stroke="black" points="1447.5,-400.93 1436.93,-400.15 1444.71,-407.35 1447.5,-400.93"/>
<text text-anchor="middle" x="1456.93" y="-395.92" font-family="Times,serif" font-size="14.00">*0</text>
</g>
<!-- node10 -->
<g id="node15" class="node">
<title>node10</title>
<polygon fill="orange" stroke="black" points="542.46,-813.54 542.46,-828.46 391.64,-839 178.36,-839 27.54,-828.46 27.54,-813.54 178.36,-803 391.64,-803 542.46,-813.54"/>
<text text-anchor="middle" x="285" y="-817.3" font-family="Times,serif" font-size="14.00">#10 GetField : boolean_field : boolean Order : 10</text>
</g>
<!-- node4&#45;&gt;node10 -->
<g id="edge30" class="edge">
<title>node4&#45;&gt;node10</title>
<path fill="none" stroke="black" d="M1098.12,-1034.12C962.39,-1027.22 733.59,-1014.32 696,-1004 678.49,-999.19 420.89,-863.67 404,-857 390.25,-851.57 375.31,-846.53 360.82,-842.07"/>
<polygon fill="black" stroke="black" points="361.46,-838.61 350.88,-839.08 359.44,-845.31 361.46,-838.61"/>
<text text-anchor="middle" x="370.67" y="-832.51" font-family="Times,serif" font-size="14.00">*0</text>
</g>
<!-- node4&#45;&gt;node13 -->
<g id="edge39" class="edge">
<title>node4&#45;&gt;node13</title>
<path fill="none" stroke="black" d="M1171.48,-1021.92C1129.53,-995.88 1049.58,-946.26 1003.05,-917.38"/>
<polygon fill="black" stroke="black" points="1004.83,-914.36 994.49,-912.06 1001.14,-920.31 1004.83,-914.36"/>
<text text-anchor="middle" x="1014.35" y="-910.74" font-family="Times,serif" font-size="14.00">*0</text>
</g>
<!-- node14 -->
<g id="node17" class="node">
<title>node14</title>
<polygon fill="orange" stroke="black" points="618.31,-740.54 618.31,-755.46 482.22,-766 289.78,-766 153.69,-755.46 153.69,-740.54 289.78,-730 482.22,-730 618.31,-740.54"/>
<text text-anchor="middle" x="386" y="-744.3" font-family="Times,serif" font-size="14.00">#14 GetField : short_field : short Order : 11</text>
</g>
<!-- node4&#45;&gt;node14 -->
<g id="edge42" class="edge">
<title>node4&#45;&gt;node14</title>
<path fill="none" stroke="black" d="M1098.29,-1036.04C971,-1031.58 764.69,-1021.73 734,-1004 631.52,-944.81 683.4,-848.23 584,-784 572.48,-776.55 549.37,-770.38 522.87,-765.4"/>
<polygon fill="black" stroke="black" points="523.43,-761.95 512.97,-763.62 522.19,-768.84 523.43,-761.95"/>
<text text-anchor="middle" x="532.3" y="-754.81" font-family="Times,serif" font-size="14.00">*0</text>
</g>
<!-- node3&#45;&gt;node2 -->
<g id="edge9" class="edge">
<title>node3&#45;&gt;node2</title>
<path fill="none" stroke="green" stroke-width="2" d="M1525.86,-912.03C1526.71,-920.03 1526.95,-929.77 1526.59,-938.75"/>
<polygon fill="green" stroke="green" stroke-width="2" points="1523.09,-938.59 1525.88,-948.81 1530.07,-939.08 1523.09,-938.59"/>
</g>
<!-- node18 -->
<g id="node20" class="node">
<title>node18</title>
<polygon fill="lightgrey" stroke="black" points="1785,-182 1593,-182 1593,-146 1785,-146 1785,-182"/>
<text text-anchor="middle" x="1689" y="-160.3" font-family="Times,serif" font-size="14.00">#18 ClassInit Order : 19</text>
</g>
<!-- node3&#45;&gt;node18 -->
<g id="edge53" class="edge">
<title>node3&#45;&gt;node18</title>
<path fill="none" stroke="red" d="M1614.15,-879.89C1644.28,-869.96 1670,-852.54 1670,-822 1670,-822 1670,-822 1670,-346 1670,-320.56 1668.59,-310.38 1651,-292 1620.53,-260.16 1583.67,-291.52 1559,-255 1550.04,-241.74 1550.12,-232.31 1559,-219 1568.58,-204.64 1582.78,-194.1 1598.3,-186.35"/>
<polygon fill="red" stroke="red" points="1599.94,-189.45 1607.58,-182.11 1597.03,-183.09 1599.94,-189.45"/>
</g>
<!-- node5&#45;&gt;node1 -->
<g id="edge14" class="edge">
<title>node5&#45;&gt;node1</title>
<path fill="none" stroke="green" stroke-width="2" d="M1822.01,-255.09C1840.55,-267.28 1860,-285.64 1860,-309 1860,-1041 1860,-1041 1860,-1041 1860,-1097 1480.08,-1108.9 1296.3,-1111.38"/>
<polygon fill="green" stroke="green" stroke-width="2" points="1296.05,-1107.88 1286.09,-1111.51 1296.14,-1114.88 1296.05,-1107.88"/>
</g>
<!-- node5&#45;&gt;node18 -->
<g id="edge52" class="edge">
<title>node5&#45;&gt;node18</title>
<path fill="none" stroke="black" d="M1765.05,-218.99C1752.03,-209.75 1735.75,-198.19 1721.59,-188.14"/>
<polygon fill="black" stroke="black" points="1723.28,-185.05 1713.1,-182.11 1719.23,-190.76 1723.28,-185.05"/>
</g>
<!-- node19 -->
<g id="node21" class="node">
<title>node19</title>
<polygon fill="lightgrey" stroke="black" points="1533.5,-109 654.5,-109 654.5,-73 1533.5,-73 1533.5,-109"/>
<text text-anchor="middle" x="1094" y="-87.3" font-family="Times,serif" font-size="14.00">#19 Invoke static simple_method_return_char : (byte,boolean,short,char,int,long,float,double,String,int[])char Order : 20</text>
</g>
<!-- node5&#45;&gt;node19 -->
<g id="edge65" class="edge">
<title>node5&#45;&gt;node19</title>
<path fill="none" stroke="black" d="M1717.97,-218.97C1623.03,-196.49 1449.36,-156.32 1300,-127 1271.18,-121.34 1239.99,-115.77 1210.81,-110.78"/>
<polygon fill="black" stroke="black" points="1211.02,-107.27 1200.58,-109.04 1209.85,-114.17 1211.02,-107.27"/>
<text text-anchor="middle" x="1219.86" y="-100.04" font-family="Times,serif" font-size="14.00">*10</text>
</g>
<!-- node12&#45;&gt;node1 -->
<g id="edge35" class="edge">
<title>node12&#45;&gt;node1</title>
<path fill="none" stroke="green" stroke-width="2" d="M1519.7,-326.68C1537.77,-331.49 1555.78,-337.78 1572,-346 1724.38,-423.25 1822,-467.16 1822,-638 1822,-1041 1822,-1041 1822,-1041 1822,-1093.26 1471.48,-1107.07 1296.28,-1110.7"/>
<polygon fill="green" stroke="green" stroke-width="2" points="1296.21,-1107.21 1286.28,-1110.91 1296.35,-1114.2 1296.21,-1107.21"/>
</g>
<!-- node12&#45;&gt;node5 -->
<g id="edge16" class="edge">
<title>node12&#45;&gt;node5</title>
<path fill="none" stroke="black" d="M1493.94,-291.99C1552.02,-281.37 1626.87,-267.67 1686.65,-256.73"/>
<polygon fill="black" stroke="black" points="1687.28,-260.17 1696.49,-254.93 1686.02,-253.29 1687.28,-260.17"/>
</g>
<!-- node12&#45;&gt;node19 -->
<g id="edge64" class="edge">
<title>node12&#45;&gt;node19</title>
<path fill="none" stroke="black" d="M1376.91,-291.97C1322.23,-253.33 1188.7,-158.94 1126.67,-115.09"/>
<polygon fill="black" stroke="black" points="1128.59,-112.16 1118.4,-109.25 1124.55,-117.88 1128.59,-112.16"/>
<text text-anchor="middle" x="1138.08" y="-109.11" font-family="Times,serif" font-size="14.00">*9</text>
</g>
<!-- node6&#45;&gt;node1 -->
<g id="edge17" class="edge">
<title>node6&#45;&gt;node1</title>
<path fill="none" stroke="green" stroke-width="2" d="M1397.54,-470.38C1540.46,-492.9 1746,-552.78 1746,-711 1746,-1041 1746,-1041 1746,-1041 1746,-1085.8 1453.69,-1103.04 1296.44,-1109.08"/>
<polygon fill="green" stroke="green" stroke-width="2" points="1296.14,-1105.59 1286.28,-1109.46 1296.4,-1112.58 1296.14,-1105.59"/>
</g>
<!-- node6&#45;&gt;node9 -->
<g id="edge28" class="edge">
<title>node6&#45;&gt;node9</title>
<path fill="none" stroke="black" d="M1278.01,-437.81C1285.62,-429.09 1295.01,-418.34 1303.39,-408.75"/>
<polygon fill="black" stroke="black" points="1306.19,-410.86 1310.13,-401.03 1300.92,-406.26 1306.19,-410.86"/>
</g>
<!-- node6&#45;&gt;node19 -->
<g id="edge62" class="edge">
<title>node6&#45;&gt;node19</title>
<path fill="none" stroke="black" d="M1163.74,-438.68C1110.62,-427.03 1056,-408.98 1056,-384 1056,-384 1056,-384 1056,-163 1056,-146.53 1064.05,-130.18 1072.74,-117.33"/>
<polygon fill="black" stroke="black" points="1075.72,-119.18 1078.76,-109.04 1070.05,-115.07 1075.72,-119.18"/>
<text text-anchor="middle" x="1074.95" y="-124.97" font-family="Times,serif" font-size="14.00">*7</text>
</g>
<!-- node8&#45;&gt;node1 -->
<g id="edge23" class="edge">
<title>node8&#45;&gt;node1</title>
<path fill="none" stroke="green" stroke-width="2" d="M833.01,-546.51C777.82,-556.44 707.28,-569.86 645,-584 419.24,-635.25 356.38,-635.59 145,-730 66.78,-764.94 0,-771.33 0,-857 0,-1041 0,-1041 0,-1041 0,-1096.03 815.61,-1108.58 1101.45,-1111.29"/>
<polygon fill="green" stroke="green" stroke-width="2" points="1101.77,-1114.8 1111.81,-1111.39 1101.84,-1107.8 1101.77,-1114.8"/>
</g>
<!-- node8&#45;&gt;node6 -->
<g id="edge19" class="edge">
<title>node8&#45;&gt;node6</title>
<path fill="none" stroke="black" d="M1009,-510.99C1058.3,-500.51 1121.64,-487.05 1172.74,-476.19"/>
<polygon fill="black" stroke="black" points="1173.73,-479.55 1182.78,-474.05 1172.27,-472.71 1173.73,-479.55"/>
</g>
<!-- node8&#45;&gt;node19 -->
<g id="edge61" class="edge">
<title>node8&#45;&gt;node19</title>
<path fill="none" stroke="black" d="M937.06,-510.91C942.98,-496.78 950,-476.02 950,-457 950,-457 950,-457 950,-163 950,-139.46 965.67,-123.73 986.66,-113.21"/>
<polygon fill="black" stroke="black" points="988.28,-116.32 995.96,-109.02 985.4,-109.94 988.28,-116.32"/>
<text text-anchor="middle" x="982.92" y="-120.48" font-family="Times,serif" font-size="14.00">*6</text>
</g>
<!-- node7&#45;&gt;node1 -->
<g id="edge20" class="edge">
<title>node7&#45;&gt;node1</title>
<path fill="none" stroke="green" stroke-width="2" d="M853.6,-620.08C852.45,-639.1 848.46,-670.16 835,-693 797.09,-757.33 746.37,-738.94 708,-803 643.18,-911.23 647.98,-947.08 675,-985 699.87,-1019.9 957.23,-1069.85 1101.79,-1095.46"/>
<polygon fill="green" stroke="green" stroke-width="2" points="1101.54,-1098.97 1111.99,-1097.26 1102.76,-1092.08 1101.54,-1098.97"/>
</g>
<!-- node7&#45;&gt;node8 -->
<g id="edge25" class="edge">
<title>node7&#45;&gt;node8</title>
<path fill="none" stroke="black" d="M872.16,-583.81C881.55,-574.92 893.18,-563.91 903.47,-554.17"/>
<polygon fill="black" stroke="black" points="906.16,-556.45 911.01,-547.03 901.34,-551.36 906.16,-556.45"/>
</g>
<!-- node7&#45;&gt;node19 -->
<g id="edge60" class="edge">
<title>node7&#45;&gt;node19</title>
<path fill="none" stroke="black" d="M752.95,-585.54C697.54,-574.11 640,-555.98 640,-530 640,-530 640,-530 640,-163 640,-138.73 742.6,-121.49 850.26,-110.08"/>
<polygon fill="black" stroke="black" points="850.77,-113.54 860.35,-109.03 850.04,-106.58 850.77,-113.54"/>
<text text-anchor="middle" x="843.2" y="-115.61" font-family="Times,serif" font-size="14.00">*5</text>
</g>
<!-- node11&#45;&gt;node1 -->
<g id="edge32" class="edge">
<title>node11&#45;&gt;node1</title>
<path fill="none" stroke="green" stroke-width="2" d="M612.37,-693.31C617.91,-703.59 624.16,-717.09 627,-730 630.44,-745.63 627.31,-750 627,-766 624.15,-915.29 593.48,-975.64 627,-1004 697.35,-1063.52 957.76,-1093.05 1101.73,-1105.11"/>
<polygon fill="green" stroke="green" stroke-width="2" points="1101.64,-1108.61 1111.89,-1105.95 1102.21,-1101.64 1101.64,-1108.61"/>
</g>
<!-- node11&#45;&gt;node7 -->
<g id="edge22" class="edge">
<title>node11&#45;&gt;node7</title>
<path fill="none" stroke="black" d="M662.36,-656.99C698.72,-646.75 745.19,-633.66 783.27,-622.93"/>
<polygon fill="black" stroke="black" points="784.58,-626.19 793.26,-620.11 782.68,-619.46 784.58,-626.19"/>
</g>
<!-- node11&#45;&gt;node19 -->
<g id="edge59" class="edge">
<title>node11&#45;&gt;node19</title>
<path fill="none" stroke="black" d="M602,-656.78C602,-642.41 602,-621.37 602,-603 602,-603 602,-603 602,-163 602,-137.95 703.23,-121.01 813.85,-109.99"/>
<polygon fill="black" stroke="black" points="814.28,-113.46 823.89,-109.01 813.6,-106.5 814.28,-113.46"/>
<text text-anchor="middle" x="806.67" y="-115.48" font-family="Times,serif" font-size="14.00">*4</text>
</g>
<!-- node9&#45;&gt;node1 -->
<g id="edge26" class="edge">
<title>node9&#45;&gt;node1</title>
<path fill="none" stroke="green" stroke-width="2" d="M1450.12,-399.11C1586.03,-423.33 1784,-484.88 1784,-638 1784,-1041 1784,-1041 1784,-1041 1784,-1089.51 1462.93,-1105.11 1296.51,-1109.94"/>
<polygon fill="green" stroke="green" stroke-width="2" points="1296.16,-1106.45 1286.26,-1110.23 1296.36,-1113.45 1296.16,-1106.45"/>
</g>
<!-- node9&#45;&gt;node12 -->
<g id="edge37" class="edge">
<title>node9&#45;&gt;node12</title>
<path fill="none" stroke="black" d="M1343.4,-364.81C1353.01,-355.83 1364.93,-344.69 1375.43,-334.89"/>
<polygon fill="black" stroke="black" points="1377.85,-337.41 1382.77,-328.03 1373.08,-332.3 1377.85,-337.41"/>
</g>
<!-- node9&#45;&gt;node19 -->
<g id="edge63" class="edge">
<title>node9&#45;&gt;node19</title>
<path fill="none" stroke="black" d="M1219.93,-365.33C1166.62,-353.8 1113,-335.99 1113,-311 1113,-311 1113,-311 1113,-163 1113,-148.1 1109.05,-132.02 1104.75,-118.93"/>
<polygon fill="black" stroke="black" points="1107.92,-117.43 1101.29,-109.16 1101.33,-119.76 1107.92,-117.43"/>
<text text-anchor="middle" x="1115.3" y="-119.74" font-family="Times,serif" font-size="14.00">*8</text>
</g>
<!-- node10&#45;&gt;node1 -->
<g id="edge29" class="edge">
<title>node10&#45;&gt;node1</title>
<path fill="none" stroke="green" stroke-width="2" d="M343.64,-839.02C367.69,-849.92 390,-867.03 390,-893 390,-1041 390,-1041 390,-1041 390,-1100.1 459.68,-1067.42 518,-1077 627.31,-1094.95 940.72,-1105.36 1101.42,-1109.66"/>
<polygon fill="green" stroke="green" stroke-width="2" points="1101.69,-1113.17 1111.78,-1109.94 1101.88,-1106.17 1101.69,-1113.17"/>
</g>
<!-- node10&#45;&gt;node14 -->
<g id="edge43" class="edge">
<title>node10&#45;&gt;node14</title>
<path fill="none" stroke="black" d="M309.19,-802.99C322.34,-793.75 338.78,-782.19 353.08,-772.14"/>
<polygon fill="black" stroke="black" points="355.49,-774.73 361.66,-766.11 351.46,-769 355.49,-774.73"/>
</g>
<!-- node10&#45;&gt;node19 -->
<g id="edge57" class="edge">
<title>node10&#45;&gt;node19</title>
<path fill="none" stroke="black" d="M190.83,-802.98C140.18,-791.05 88,-772.95 88,-749 88,-749 88,-749 88,-163 88,-133.02 376.06,-114.79 643.9,-104.33"/>
<polygon fill="black" stroke="black" points="644.36,-107.81 654.22,-103.93 644.09,-100.82 644.36,-107.81"/>
<text text-anchor="middle" x="636.43" y="-109.38" font-family="Times,serif" font-size="14.00">*2</text>
</g>
<!-- node13&#45;&gt;node1 -->
<g id="edge38" class="edge">
<title>node13&#45;&gt;node1</title>
<path fill="none" stroke="green" stroke-width="2" d="M976.27,-912.35C994.25,-944.65 1036.76,-1014.68 1089,-1058 1105.04,-1071.3 1124.91,-1082.33 1143.33,-1090.88"/>
<polygon fill="green" stroke="green" stroke-width="2" points="1141.96,-1094.1 1152.52,-1095 1144.82,-1087.71 1141.96,-1094.1"/>
</g>
<!-- node13&#45;&gt;node10 -->
<g id="edge31" class="edge">
<title>node13&#45;&gt;node10</title>
<path fill="none" stroke="black" d="M835.91,-879.35C721.5,-867.44 555.49,-850.16 435.65,-837.68"/>
<polygon fill="black" stroke="black" points="435.96,-834.2 425.65,-836.64 435.24,-841.16 435.96,-834.2"/>
</g>
<!-- node13&#45;&gt;node19 -->
<g id="edge56" class="edge">
<title>node13&#45;&gt;node19</title>
<path fill="none" stroke="black" d="M1066.26,-876.68C1119.38,-865.03 1174,-846.98 1174,-822 1174,-822 1174,-822 1174,-565 1174,-539.56 1173.3,-528.68 1155,-511 1115.47,-472.81 1076.53,-512.19 1037,-474 1018.7,-456.32 1018,-445.44 1018,-420 1018,-420 1018,-420 1018,-163 1018,-142.7 1032.65,-126.54 1049.09,-114.8"/>
<polygon fill="black" stroke="black" points="1051.36,-117.49 1057.78,-109.06 1047.51,-111.65 1051.36,-117.49"/>
<text text-anchor="middle" x="1047.31" y="-122.4" font-family="Times,serif" font-size="14.00">*1</text>
</g>
<!-- node14&#45;&gt;node1 -->
<g id="edge41" class="edge">
<title>node14&#45;&gt;node1</title>
<path fill="none" stroke="green" stroke-width="2" d="M498.18,-764.86C518.86,-772.98 538,-785.06 551,-803 584.5,-849.21 532,-872.93 532,-930 532,-1041 532,-1041 532,-1041 532,-1068.38 556.19,-1067.86 582,-1077 629.5,-1093.82 939.59,-1104.8 1101.27,-1109.46"/>
<polygon fill="green" stroke="green" stroke-width="2" points="1101.6,-1112.97 1111.7,-1109.75 1101.8,-1105.97 1101.6,-1112.97"/>
</g>
<!-- node14&#45;&gt;node11 -->
<g id="edge34" class="edge">
<title>node14&#45;&gt;node11</title>
<path fill="none" stroke="black" d="M437.74,-729.99C468.5,-719.88 507.72,-706.99 540.12,-696.34"/>
<polygon fill="black" stroke="black" points="541.53,-699.56 549.94,-693.11 539.34,-692.91 541.53,-699.56"/>
</g>
<!-- node14&#45;&gt;node19 -->
<g id="edge58" class="edge">
<title>node14&#45;&gt;node19</title>
<path fill="none" stroke="black" d="M351.17,-729.98C331.97,-717.92 312,-699.68 312,-676 312,-676 312,-676 312,-163 312,-140.26 524.47,-121.94 727.91,-109.6"/>
<polygon fill="black" stroke="black" points="728.13,-113.1 737.9,-109 727.7,-106.11 728.13,-113.1"/>
<text text-anchor="middle" x="720.31" y="-114.83" font-family="Times,serif" font-size="14.00">*3</text>
</g>
<!-- node15&#45;&gt;node0 -->
<g id="edge44" class="edge">
<title>node15&#45;&gt;node0</title>
<path fill="none" stroke="green" stroke-width="2" d="M1635.96,-1204.11C1616.37,-1213.94 1590.42,-1226.36 1567.72,-1236.8"/>
<polygon fill="green" stroke="green" stroke-width="2" points="1566.19,-1233.65 1558.55,-1240.99 1569.1,-1240.02 1566.19,-1233.65"/>
</g>
<!-- node17&#45;&gt;node0 -->
<g id="edge48" class="edge">
<title>node17&#45;&gt;node0</title>
<path fill="none" stroke="green" stroke-width="2" d="M1916.34,-1200.96C1831.69,-1210.79 1716.35,-1225 1615,-1241 1613.49,-1241.24 1611.98,-1241.48 1610.45,-1241.73"/>
<polygon fill="green" stroke="green" stroke-width="2" points="1609.5,-1238.34 1600.22,-1243.45 1610.66,-1245.24 1609.5,-1238.34"/>
</g>
<!-- node17&#45;&gt;node18 -->
<g id="edge51" class="edge">
<title>node17&#45;&gt;node18</title>
<path fill="none" stroke="black" d="M2038,-1167.78C2038,-1153.41 2038,-1132.37 2038,-1114 2038,-1114 2038,-1114 2038,-236 2038,-185.89 1898.07,-170.77 1795.41,-166.42"/>
<polygon fill="black" stroke="black" points="1795.42,-162.92 1785.29,-166.02 1795.14,-169.91 1795.42,-162.92"/>
<text text-anchor="middle" x="1803.73" y="-154.59" font-family="Times,serif" font-size="14.00">*0</text>
</g>
<!-- node18&#45;&gt;node0 -->
<g id="edge50" class="edge">
<title>node18&#45;&gt;node0</title>
<path fill="none" stroke="green" stroke-width="2" d="M1785.27,-167.02C1951.33,-171.81 2274,-187.37 2274,-236 2274,-1187 2274,-1187 2274,-1187 2274,-1258.85 1720.94,-1233.83 1610.58,-1240.84"/>
<polygon fill="green" stroke="green" stroke-width="2" points="1609.98,-1237.38 1600.33,-1241.74 1610.59,-1244.35 1609.98,-1237.38"/>
</g>
<!-- node18&#45;&gt;node19 -->
<g id="edge55" class="edge">
<title>node18&#45;&gt;node19</title>
<path fill="none" stroke="black" d="M1628.78,-145.95C1607.32,-138.91 1583.28,-131.38 1561,-127 1526.45,-120.21 1490.29,-114.7 1454.04,-110.24"/>
<polygon fill="black" stroke="black" points="1454.16,-106.73 1443.81,-109 1453.32,-113.68 1454.16,-106.73"/>
<text text-anchor="middle" x="1462.82" y="-99.08" font-family="Times,serif" font-size="14.00">*0</text>
</g>
<!-- node18&#45;&gt;node19 -->
<g id="edge66" class="edge">
<title>node18&#45;&gt;node19</title>
<path fill="none" stroke="black" d="M1645.23,-145.95C1625.32,-138.91 1601.28,-131.38 1579,-127 1544.45,-120.21 1508.29,-114.7 1471.96,-110.24"/>
<polygon fill="black" stroke="black" points="1472.05,-106.72 1461.71,-109 1471.22,-113.67 1472.05,-106.72"/>
</g>
<!-- node18&#45;&gt;node19 -->
<g id="edge67" class="edge">
<title>node18&#45;&gt;node19</title>
<path fill="none" stroke="red" d="M1661.68,-145.95C1643.32,-138.91 1619.28,-131.38 1597,-127 1562.45,-120.21 1526.29,-114.7 1489.88,-110.24"/>
<polygon fill="red" stroke="red" points="1489.95,-106.72 1479.61,-109 1489.12,-113.67 1489.95,-106.72"/>
</g>
<!-- node19&#45;&gt;node0 -->
<g id="edge54" class="edge">
<title>node19&#45;&gt;node0</title>
<path fill="none" stroke="green" stroke-width="2" d="M1533.73,-97.71C1882.61,-105.27 2312,-122.75 2312,-163 2312,-1187 2312,-1187 2312,-1187 2312,-1263.06 1725.2,-1234.51 1610.43,-1240.88"/>
<polygon fill="green" stroke="green" stroke-width="2" points="1610.02,-1237.4 1600.32,-1241.67 1610.56,-1244.38 1610.02,-1237.4"/>
</g>
<!-- node20 -->
<g id="node22" class="node">
<title>node20</title>
<polygon fill="lightgrey" stroke="black" points="1219.5,-36 968.5,-36 968.5,0 1219.5,0 1219.5,-36"/>
<text text-anchor="middle" x="1094" y="-14.3" font-family="Times,serif" font-size="14.00">#20 ReturnValue : int Order : 21</text>
</g>
<!-- node19&#45;&gt;node20 -->
<g id="edge69" class="edge">
<title>node19&#45;&gt;node20</title>
<path fill="none" stroke="black" d="M1076.37,-72.81C1073.85,-64.79 1073.15,-55.05 1074.27,-46.07"/>
<polygon fill="black" stroke="black" points="1077.74,-46.54 1076.42,-36.03 1070.9,-45.07 1077.74,-46.54"/>
<text text-anchor="middle" x="1080.89" y="-51.82" font-family="Times,serif" font-size="14.00">*0</text>
</g>
<!-- node19&#45;&gt;node20 -->
<g id="edge70" class="edge">
<title>node19&#45;&gt;node20</title>
<path fill="none" stroke="red" d="M1099.88,-72.81C1100.72,-64.79 1100.95,-55.05 1100.58,-46.07"/>
<polygon fill="red" stroke="red" points="1104.06,-45.75 1099.86,-36.03 1097.08,-46.25 1104.06,-45.75"/>
</g>
<!-- node19&#45;&gt;node20 -->
<g id="edge71" class="edge">
<title>node19&#45;&gt;node20</title>
<path fill="none" stroke="black" d="M1111.63,-72.81C1114.15,-64.79 1114.85,-55.05 1113.73,-46.07"/>
<polygon fill="black" stroke="black" points="1117.1,-45.07 1111.58,-36.03 1110.26,-46.54 1117.1,-45.07"/>
</g>
<!-- node20&#45;&gt;node19 -->
<g id="edge68" class="edge">
<title>node20&#45;&gt;node19</title>
<path fill="none" stroke="green" stroke-width="2" d="M1088.14,-36.03C1087.29,-44.03 1087.05,-53.77 1087.41,-62.75"/>
<polygon fill="green" stroke="green" stroke-width="2" points="1083.93,-63.08 1088.12,-72.81 1090.91,-62.59 1083.93,-63.08"/>
</g>
<!-- c0 -->
<!-- c1 -->
<!-- c0&#45;&gt;c1 -->
<g id="edge74" class="edge">
<title>c0&#45;&gt;c1</title>
<path fill="none" stroke="red" d="M2331.89,-1259C2343.11,-1259 2401.24,-1259 2426.86,-1259"/>
<polygon fill="red" stroke="red" points="2427.06,-1262.5 2437.06,-1259 2427.06,-1255.5 2427.06,-1262.5"/>
<text text-anchor="middle" x="2384.5" y="-1265.8" font-family="Times,serif" font-size="14.00">Control flow</text>
</g>
<!-- c2 -->
<!-- c3 -->
<!-- c2&#45;&gt;c3 -->
<g id="edge75" class="edge">
<title>c2&#45;&gt;c3</title>
<path fill="none" stroke="red" stroke-dasharray="5,2" d="M2125.08,-1259C2142.05,-1259 2258.21,-1259 2296.08,-1259"/>
<polygon fill="red" stroke="red" points="2296.17,-1262.5 2306.17,-1259 2296.17,-1255.5 2296.17,-1262.5"/>
<text text-anchor="middle" x="2215.5" y="-1265.8" font-family="Times,serif" font-size="14.00">Control flow back edge</text>
</g>
<!-- d0 -->
<!-- d1 -->
<!-- d0&#45;&gt;d1 -->
<g id="edge76" class="edge">
<title>d0&#45;&gt;d1</title>
<path fill="none" stroke="black" d="M2013.86,-1259C2023.41,-1259 2067.31,-1259 2088.92,-1259"/>
<polygon fill="black" stroke="black" points="2089.15,-1262.5 2099.15,-1259 2089.15,-1255.5 2089.15,-1262.5"/>
<text text-anchor="middle" x="2056.5" y="-1265.8" font-family="Times,serif" font-size="14.00">Data flow</text>
</g>
<!-- d2 -->
<!-- d3 -->
<!-- d2&#45;&gt;d3 -->
<g id="edge77" class="edge">
<title>d2&#45;&gt;d3</title>
<path fill="none" stroke="black" stroke-dasharray="1,5" d="M1887.81,-1259C1898.46,-1259 1953.46,-1259 1978.08,-1259"/>
<polygon fill="black" stroke="black" points="1978.15,-1262.5 1988.15,-1259 1978.15,-1255.5 1978.15,-1262.5"/>
<text text-anchor="middle" x="1938" y="-1265.8" font-family="Times,serif" font-size="14.00">Declaration</text>
</g>
<!-- d4 -->
<!-- d5 -->
<!-- d4&#45;&gt;d5 -->
<g id="edge78" class="edge">
<title>d4&#45;&gt;d5</title>
<path fill="none" stroke="blue" d="M1745.1,-1259C1757.72,-1259 1823.88,-1259 1851.68,-1259"/>
<polygon fill="blue" stroke="blue" points="1851.84,-1262.5 1861.84,-1259 1851.84,-1255.5 1851.84,-1262.5"/>
<text text-anchor="middle" x="1803.5" y="-1265.8" font-family="Times,serif" font-size="14.00">PHI Data flow</text>
</g>
<!-- d6 -->
<!-- d7 -->
<!-- d6&#45;&gt;d7 -->
<g id="edge79" class="edge">
<title>d6&#45;&gt;d7</title>
<path fill="none" stroke="green" d="M1622.11,-1259C1633.15,-1259 1684.67,-1259 1708.66,-1259"/>
<polygon fill="green" stroke="green" points="1708.9,-1262.5 1718.9,-1259 1708.9,-1255.5 1708.9,-1262.5"/>
<text text-anchor="middle" x="1670.5" y="-1265.8" font-family="Times,serif" font-size="14.00">Dominance</text>
</g>
</g>
</svg>
