<?xml version="1.0" encoding="UTF-8" standalone="no"?>
<!DOCTYPE svg PUBLIC "-//W3C//DTD SVG 1.1//EN"
 "http://www.w3.org/Graphics/SVG/1.1/DTD/svg11.dtd">
<!-- Generated by graphviz version 2.43.0 (0)
 -->
<!-- Title: %3 Pages: 1 -->
<svg width="1374pt" height="443pt"
 viewBox="0.00 0.00 1373.62 443.00" xmlns="http://www.w3.org/2000/svg" xmlns:xlink="http://www.w3.org/1999/xlink">
<g id="graph0" class="graph" transform="scale(1 1) rotate(0) translate(4 439)">
<title>%3</title>
<polygon fill="white" stroke="transparent" points="-4,4 -4,-439 1369.62,-439 1369.62,4 -4,4"/>
<g id="clust1" class="cluster">
<title>cluster_0</title>
<polygon fill="none" stroke="lightgray" points="118.62,-284 118.62,-427 496.62,-427 496.62,-284 118.62,-284"/>
</g>
<g id="clust2" class="cluster">
<title>cluster_000</title>
<polygon fill="none" stroke="black" points="504.62,-382.2 504.62,-424.8 1357.62,-424.8 1357.62,-382.2 504.62,-382.2"/>
<text text-anchor="middle" x="931.12" y="-409.6" font-family="Times,serif" font-size="14.00">Legend</text>
</g>
<!-- node0 -->
<g id="node1" class="node">
<title>node0</title>
<polygon fill="lightgrey" stroke="transparent" points="462.12,-419 295.12,-419 295.12,-365 462.12,-365 462.12,-419"/>
<polygon fill="none" stroke="black" points="295.62,-392 295.62,-419 462.62,-419 462.62,-392 295.62,-392"/>
<text text-anchor="start" x="338.62" y="-401.8" font-family="Times,serif" font-size="14.00">#0 Method</text>
<polygon fill="yellow" stroke="transparent" points="295.62,-365 295.62,-392 462.62,-392 462.62,-365 295.62,-365"/>
<polygon fill="none" stroke="black" points="295.62,-365 295.62,-392 462.62,-392 462.62,-365 295.62,-365"/>
<text text-anchor="start" x="301.62" y="-374.8" font-family="Times,serif" font-size="14.00">this : FieldAccessTest</text>
</g>
<!-- node4 -->
<g id="node2" class="node">
<title>node4</title>
<polygon fill="lightgrey" stroke="black" points="464.12,-255 359.12,-255 359.12,-219 464.12,-219 464.12,-255"/>
<text text-anchor="middle" x="411.62" y="-233.3" font-family="Times,serif" font-size="14.00">#4 ClassInit</text>
</g>
<!-- node0&#45;&gt;node4 -->
<g id="edge3" class="edge">
<title>node0&#45;&gt;node4</title>
<path fill="none" stroke="green" d="M456.96,-364.99C473.12,-355.88 488.1,-343.82 497.62,-328 507.71,-311.25 507.67,-300.77 497.62,-284 491.7,-274.11 482.85,-266.23 473.04,-259.99"/>
<polygon fill="green" stroke="green" points="474.64,-256.87 464.23,-254.92 471.15,-262.94 474.64,-256.87"/>
</g>
<!-- node3 -->
<g id="node3" class="node">
<title>node3</title>
<polygon fill="lightgreen" stroke="black" points="488.22,-302.54 488.22,-317.46 382.43,-328 232.82,-328 127.03,-317.46 127.03,-302.54 232.82,-292 382.43,-292 488.22,-302.54"/>
<text text-anchor="middle" x="307.62" y="-306.3" font-family="Times,serif" font-size="14.00">#3 Class FieldAccessTest$Source</text>
</g>
<!-- node0&#45;&gt;node3 -->
<g id="edge5" class="edge">
<title>node0&#45;&gt;node3</title>
<path fill="none" stroke="black" stroke-dasharray="1,5" d="M355.37,-364.81C347.12,-355.5 337.85,-345.06 329.69,-335.87"/>
<polygon fill="black" stroke="black" points="332.12,-333.33 322.87,-328.17 326.89,-337.98 332.12,-333.33"/>
</g>
<!-- node2 -->
<g id="node4" class="node">
<title>node2</title>
<polygon fill="lightgrey" stroke="black" points="664.12,-328 545.12,-328 545.12,-292 664.12,-292 664.12,-328"/>
<text text-anchor="middle" x="604.62" y="-306.3" font-family="Times,serif" font-size="14.00">#2 LabelNode</text>
</g>
<!-- node0&#45;&gt;node2 -->
<g id="edge4" class="edge">
<title>node0&#45;&gt;node2</title>
<path fill="none" stroke="red" d="M452.31,-364.92C482.98,-354.06 518.06,-341.64 546.82,-331.46"/>
<polygon fill="red" stroke="red" points="548.06,-334.74 556.31,-328.1 545.72,-328.14 548.06,-334.74"/>
</g>
<!-- node5 -->
<g id="node5" class="node">
<title>node5</title>
<polygon fill="orange" stroke="black" points="423.74,-156.54 423.74,-171.46 393.21,-182 350.04,-182 319.51,-171.46 319.51,-156.54 350.04,-146 393.21,-146 423.74,-156.54"/>
<text text-anchor="middle" x="371.62" y="-160.3" font-family="Times,serif" font-size="14.00">#5 New</text>
</g>
<!-- node4&#45;&gt;node5 -->
<g id="edge6" class="edge">
<title>node4&#45;&gt;node5</title>
<path fill="none" stroke="black" d="M396.06,-218.81C390.53,-210.53 384.61,-200.41 379.84,-191.19"/>
<polygon fill="black" stroke="black" points="382.89,-189.47 375.36,-182.03 376.61,-192.55 382.89,-189.47"/>
<text text-anchor="middle" x="390.92" y="-190.89" font-family="Times,serif" font-size="14.00">*0</text>
</g>
<!-- node4&#45;&gt;node5 -->
<g id="edge7" class="edge">
<title>node4&#45;&gt;node5</title>
<path fill="none" stroke="green" d="M407.82,-218.81C403.94,-210.35 398.31,-199.98 392.56,-190.61"/>
<polygon fill="green" stroke="green" points="395.41,-188.57 387.08,-182.03 389.51,-192.34 395.41,-188.57"/>
</g>
<!-- node6 -->
<g id="node7" class="node">
<title>node6</title>
<polygon fill="lightgrey" stroke="black" points="576.62,-109 326.62,-109 326.62,-73 576.62,-73 576.62,-109"/>
<text text-anchor="middle" x="451.62" y="-87.3" font-family="Times,serif" font-size="14.00">#6 Invoke special &lt;init&gt; : ()void</text>
</g>
<!-- node4&#45;&gt;node6 -->
<g id="edge11" class="edge">
<title>node4&#45;&gt;node6</title>
<path fill="none" stroke="red" d="M419.16,-218.74C423.53,-208.26 428.89,-194.53 432.62,-182 438.81,-161.24 443.77,-137.22 447.07,-119.22"/>
<polygon fill="red" stroke="red" points="450.56,-119.58 448.86,-109.13 443.67,-118.36 450.56,-119.58"/>
</g>
<!-- node3&#45;&gt;node4 -->
<g id="edge1" class="edge">
<title>node3&#45;&gt;node4</title>
<path fill="none" stroke="black" d="M332.53,-291.99C346.2,-282.67 363.32,-270.97 378.14,-260.86"/>
<polygon fill="black" stroke="black" points="380.27,-263.64 386.56,-255.11 376.32,-257.86 380.27,-263.64"/>
<text text-anchor="middle" x="376.35" y="-268.61" font-family="Times,serif" font-size="14.00">*0</text>
</g>
<!-- node2&#45;&gt;node4 -->
<g id="edge2" class="edge">
<title>node2&#45;&gt;node4</title>
<path fill="none" stroke="red" d="M558.39,-291.99C531.14,-281.97 496.47,-269.21 467.67,-258.62"/>
<polygon fill="red" stroke="red" points="468.74,-255.28 458.14,-255.11 466.32,-261.85 468.74,-255.28"/>
</g>
<!-- node7 -->
<g id="node6" class="node">
<title>node7</title>
<polygon fill="orange" stroke="black" points="291.37,-83.54 291.37,-98.46 205.99,-109 85.25,-109 -0.12,-98.46 -0.12,-83.54 85.25,-73 205.99,-73 291.37,-83.54"/>
<text text-anchor="middle" x="145.62" y="-87.3" font-family="Times,serif" font-size="14.00">#7 GetField : int_field : int</text>
</g>
<!-- node5&#45;&gt;node7 -->
<g id="edge8" class="edge">
<title>node5&#45;&gt;node7</title>
<path fill="none" stroke="black" d="M334.3,-151.28C300.48,-140.65 249.92,-124.77 209.65,-112.12"/>
<polygon fill="black" stroke="black" points="210.51,-108.72 199.92,-109.06 208.41,-115.39 210.51,-108.72"/>
<text text-anchor="middle" x="219.74" y="-102.73" font-family="Times,serif" font-size="14.00">*0</text>
</g>
<!-- node5&#45;&gt;node6 -->
<g id="edge10" class="edge">
<title>node5&#45;&gt;node6</title>
<path fill="none" stroke="black" d="M385.11,-145.81C394.38,-136.74 406.9,-125.48 418.63,-115.6"/>
<polygon fill="black" stroke="black" points="421.1,-118.1 426.57,-109.03 416.64,-112.71 421.1,-118.1"/>
<text text-anchor="middle" x="417.99" y="-123.4" font-family="Times,serif" font-size="14.00">*0</text>
</g>
<!-- node5&#45;&gt;node6 -->
<g id="edge12" class="edge">
<title>node5&#45;&gt;node6</title>
<path fill="none" stroke="green" d="M395.98,-146.53C407.15,-137.5 420.17,-126.13 430.88,-116.12"/>
<polygon fill="green" stroke="green" points="433.39,-118.56 438.2,-109.12 428.56,-113.5 433.39,-118.56"/>
</g>
<!-- node8 -->
<g id="node8" class="node">
<title>node8</title>
<polygon fill="lightgrey" stroke="black" points="380.62,-36 216.62,-36 216.62,0 380.62,0 380.62,-36"/>
<text text-anchor="middle" x="298.62" y="-14.3" font-family="Times,serif" font-size="14.00">#8 ReturnValue : int</text>
</g>
<!-- node7&#45;&gt;node8 -->
<g id="edge13" class="edge">
<title>node7&#45;&gt;node8</title>
<path fill="none" stroke="black" d="M176.41,-72.99C196.5,-63.19 223.14,-50.77 246.45,-40.31"/>
<polygon fill="black" stroke="black" points="248.16,-43.38 255.87,-36.11 245.32,-36.99 248.16,-43.38"/>
<text text-anchor="middle" x="242.76" y="-47.51" font-family="Times,serif" font-size="14.00">*0</text>
</g>
<!-- node7&#45;&gt;node8 -->
<g id="edge15" class="edge">
<title>node7&#45;&gt;node8</title>
<path fill="none" stroke="green" d="M188.13,-72.99C210.11,-63.27 236.72,-50.99 258.36,-40.59"/>
<polygon fill="green" stroke="green" points="260.14,-43.62 267.61,-36.11 257.09,-37.32 260.14,-43.62"/>
</g>
<!-- node6&#45;&gt;node7 -->
<g id="edge9" class="edge">
<title>node6&#45;&gt;node7</title>
<path fill="none" stroke="green" d="M326.49,-91C318.19,-91 309.88,-91 301.58,-91"/>
<polygon fill="green" stroke="green" points="301.45,-87.5 291.45,-91 301.45,-94.5 301.45,-87.5"/>
</g>
<!-- node6&#45;&gt;node8 -->
<g id="edge14" class="edge">
<title>node6&#45;&gt;node8</title>
<path fill="none" stroke="red" d="M414.98,-72.99C393.94,-63.23 367.31,-50.88 344.85,-40.45"/>
<polygon fill="red" stroke="red" points="346.05,-37.15 335.5,-36.11 343.1,-43.5 346.05,-37.15"/>
</g>
<!-- c0 -->
<!-- c1 -->
<!-- c0&#45;&gt;c1 -->
<g id="edge16" class="edge">
<title>c0&#45;&gt;c1</title>
<path fill="none" stroke="red" d="M1240.51,-392C1251.73,-392 1309.87,-392 1335.48,-392"/>
<polygon fill="red" stroke="red" points="1335.68,-395.5 1345.68,-392 1335.68,-388.5 1335.68,-395.5"/>
<text text-anchor="middle" x="1293.12" y="-398.8" font-family="Times,serif" font-size="14.00">Control flow</text>
</g>
<!-- c2 -->
<!-- c3 -->
<!-- c2&#45;&gt;c3 -->
<g id="edge17" class="edge">
<title>c2&#45;&gt;c3</title>
<path fill="none" stroke="red" stroke-dasharray="5,2" d="M1033.7,-392C1050.67,-392 1166.83,-392 1204.71,-392"/>
<polygon fill="red" stroke="red" points="1204.79,-395.5 1214.79,-392 1204.79,-388.5 1204.79,-395.5"/>
<text text-anchor="middle" x="1124.12" y="-398.8" font-family="Times,serif" font-size="14.00">Control flow back edge</text>
</g>
<!-- d0 -->
<!-- d1 -->
<!-- d0&#45;&gt;d1 -->
<g id="edge18" class="edge">
<title>d0&#45;&gt;d1</title>
<path fill="none" stroke="black" d="M922.48,-392C932.03,-392 975.93,-392 997.54,-392"/>
<polygon fill="black" stroke="black" points="997.77,-395.5 1007.77,-392 997.77,-388.5 997.77,-395.5"/>
<text text-anchor="middle" x="965.12" y="-398.8" font-family="Times,serif" font-size="14.00">Data flow</text>
</g>
<!-- d2 -->
<!-- d3 -->
<!-- d2&#45;&gt;d3 -->
<g id="edge19" class="edge">
<title>d2&#45;&gt;d3</title>
<path fill="none" stroke="black" stroke-dasharray="1,5" d="M796.43,-392C807.08,-392 862.09,-392 886.7,-392"/>
<polygon fill="black" stroke="black" points="886.77,-395.5 896.77,-392 886.77,-388.5 886.77,-395.5"/>
<text text-anchor="middle" x="846.62" y="-398.8" font-family="Times,serif" font-size="14.00">Declaration</text>
</g>
<!-- d4 -->
<!-- d5 -->
<!-- d4&#45;&gt;d5 -->
<g id="edge20" class="edge">
<title>d4&#45;&gt;d5</title>
<path fill="none" stroke="blue" d="M653.72,-392C666.34,-392 732.5,-392 760.3,-392"/>
<polygon fill="blue" stroke="blue" points="760.46,-395.5 770.46,-392 760.46,-388.5 760.46,-395.5"/>
<text text-anchor="middle" x="712.12" y="-398.8" font-family="Times,serif" font-size="14.00">PHI Data flow</text>
</g>
<!-- d6 -->
<!-- d7 -->
<!-- d6&#45;&gt;d7 -->
<g id="edge21" class="edge">
<title>d6&#45;&gt;d7</title>
<path fill="none" stroke="green" d="M516.62,-392C528.56,-392 590.92,-392 617.55,-392"/>
<polygon fill="green" stroke="green" points="617.57,-395.5 627.57,-392 617.57,-388.5 617.57,-395.5"/>
<text text-anchor="middle" x="572.12" y="-398.8" font-family="Times,serif" font-size="14.00">Memory flow</text>
</g>
</g>
</svg>
