<?xml version="1.0" encoding="UTF-8" standalone="no"?>
<!DOCTYPE svg PUBLIC "-//W3C//DTD SVG 1.1//EN"
 "http://www.w3.org/Graphics/SVG/1.1/DTD/svg11.dtd">
<!-- Generated by graphviz version 2.43.0 (0)
 -->
<!-- Title: %3 Pages: 1 -->
<svg width="1354pt" height="514pt"
 viewBox="0.00 0.00 1353.62 513.80" xmlns="http://www.w3.org/2000/svg" xmlns:xlink="http://www.w3.org/1999/xlink">
<g id="graph0" class="graph" transform="scale(1 1) rotate(0) translate(4 509.8)">
<title>%3</title>
<polygon fill="white" stroke="transparent" points="-4,4 -4,-509.8 1349.62,-509.8 1349.62,4 -4,4"/>
<g id="clust1" class="cluster">
<title>cluster_0</title>
<polygon fill="none" stroke="lightgray" points="112.62,-284 112.62,-409 490.62,-409 490.62,-284 112.62,-284"/>
</g>
<g id="clust2" class="cluster">
<title>cluster_000</title>
<polygon fill="none" stroke="black" points="484.62,-455.2 484.62,-497.8 1337.62,-497.8 1337.62,-455.2 484.62,-455.2"/>
<text text-anchor="middle" x="911.12" y="-482.6" font-family="Times,serif" font-size="14.00">Legend</text>
</g>
<!-- node0 -->
<g id="node1" class="node">
<title>node0</title>
<polygon fill="lightgrey" stroke="transparent" points="475.12,-492 308.12,-492 308.12,-438 475.12,-438 475.12,-492"/>
<polygon fill="none" stroke="black" points="308.62,-465 308.62,-492 475.62,-492 475.62,-465 308.62,-465"/>
<text text-anchor="start" x="351.62" y="-474.8" font-family="Times,serif" font-size="14.00">#0 Method</text>
<polygon fill="yellow" stroke="transparent" points="308.62,-438 308.62,-465 475.62,-465 475.62,-438 308.62,-438"/>
<polygon fill="none" stroke="black" points="308.62,-438 308.62,-465 475.62,-465 475.62,-438 308.62,-438"/>
<text text-anchor="start" x="314.62" y="-447.8" font-family="Times,serif" font-size="14.00">this : FieldAccessTest</text>
</g>
<!-- node4 -->
<g id="node2" class="node">
<title>node4</title>
<polygon fill="lightgrey" stroke="black" points="464.12,-255 359.12,-255 359.12,-219 464.12,-219 464.12,-255"/>
<text text-anchor="middle" x="411.62" y="-233.3" font-family="Times,serif" font-size="14.00">#4 ClassInit</text>
</g>
<!-- node0&#45;&gt;node4 -->
<g id="edge3" class="edge">
<title>node0&#45;&gt;node4</title>
<path fill="none" stroke="green" d="M307.94,-460.9C203.88,-454.17 47.01,-432.8 108.62,-365 166.58,-301.23 436.67,-391.77 494.62,-328 507.77,-313.53 504.55,-300.85 494.62,-284 488.87,-274.23 480.21,-266.39 470.62,-260.14"/>
<polygon fill="green" stroke="green" points="472.39,-257.13 462,-255.06 468.83,-263.15 472.39,-257.13"/>
</g>
<!-- node2 -->
<g id="node4" class="node">
<title>node2</title>
<polygon fill="lightgrey" stroke="black" points="451.12,-401 332.12,-401 332.12,-365 451.12,-365 451.12,-401"/>
<text text-anchor="middle" x="391.62" y="-379.3" font-family="Times,serif" font-size="14.00">#2 LabelNode</text>
</g>
<!-- node0&#45;&gt;node2 -->
<g id="edge4" class="edge">
<title>node0&#45;&gt;node2</title>
<path fill="none" stroke="red" d="M391.62,-437.81C391.62,-429.35 391.62,-419.95 391.62,-411.4"/>
<polygon fill="red" stroke="red" points="395.12,-411.17 391.62,-401.17 388.12,-411.17 395.12,-411.17"/>
</g>
<!-- node5 -->
<g id="node5" class="node">
<title>node5</title>
<polygon fill="orange" stroke="black" points="423.74,-156.54 423.74,-171.46 393.21,-182 350.04,-182 319.51,-171.46 319.51,-156.54 350.04,-146 393.21,-146 423.74,-156.54"/>
<text text-anchor="middle" x="371.62" y="-160.3" font-family="Times,serif" font-size="14.00">#5 New</text>
</g>
<!-- node4&#45;&gt;node5 -->
<g id="edge6" class="edge">
<title>node4&#45;&gt;node5</title>
<path fill="none" stroke="black" d="M396.06,-218.81C390.53,-210.53 384.61,-200.41 379.84,-191.19"/>
<polygon fill="black" stroke="black" points="382.89,-189.47 375.36,-182.03 376.61,-192.55 382.89,-189.47"/>
<text text-anchor="middle" x="390.92" y="-190.89" font-family="Times,serif" font-size="14.00">*0</text>
</g>
<!-- node4&#45;&gt;node5 -->
<g id="edge7" class="edge">
<title>node4&#45;&gt;node5</title>
<path fill="none" stroke="green" d="M407.82,-218.81C403.94,-210.35 398.31,-199.98 392.56,-190.61"/>
<polygon fill="green" stroke="green" points="395.41,-188.57 387.08,-182.03 389.51,-192.34 395.41,-188.57"/>
</g>
<!-- node6 -->
<g id="node7" class="node">
<title>node6</title>
<polygon fill="lightgrey" stroke="black" points="576.62,-109 326.62,-109 326.62,-73 576.62,-73 576.62,-109"/>
<text text-anchor="middle" x="451.62" y="-87.3" font-family="Times,serif" font-size="14.00">#6 Invoke special &lt;init&gt; : ()void</text>
</g>
<!-- node4&#45;&gt;node6 -->
<g id="edge11" class="edge">
<title>node4&#45;&gt;node6</title>
<path fill="none" stroke="red" d="M419.16,-218.74C423.53,-208.26 428.89,-194.53 432.62,-182 438.81,-161.24 443.77,-137.22 447.07,-119.22"/>
<polygon fill="red" stroke="red" points="450.56,-119.58 448.86,-109.13 443.67,-118.36 450.56,-119.58"/>
</g>
<!-- node3 -->
<g id="node3" class="node">
<title>node3</title>
<polygon fill="lightgreen" stroke="black" points="482.22,-302.54 482.22,-317.46 376.43,-328 226.82,-328 121.03,-317.46 121.03,-302.54 226.82,-292 376.43,-292 482.22,-302.54"/>
<text text-anchor="middle" x="301.62" y="-306.3" font-family="Times,serif" font-size="14.00">#3 Class FieldAccessTest$Source</text>
</g>
<!-- node3&#45;&gt;node4 -->
<g id="edge1" class="edge">
<title>node3&#45;&gt;node4</title>
<path fill="none" stroke="black" d="M327.97,-291.99C342.56,-282.58 360.88,-270.76 376.65,-260.57"/>
<polygon fill="black" stroke="black" points="378.61,-263.48 385.11,-255.11 374.81,-257.6 378.61,-263.48"/>
<text text-anchor="middle" x="374.46" y="-268.34" font-family="Times,serif" font-size="14.00">*0</text>
</g>
<!-- node2&#45;&gt;node4 -->
<g id="edge2" class="edge">
<title>node2&#45;&gt;node4</title>
<path fill="none" stroke="red" d="M451.14,-374.37C484.16,-368.79 520.56,-359.91 530.62,-347 547.91,-324.82 541.43,-306.55 524.62,-284 512.34,-267.51 493.11,-256.91 473.98,-250.11"/>
<polygon fill="red" stroke="red" points="474.92,-246.73 464.33,-246.97 472.76,-253.39 474.92,-246.73"/>
</g>
<!-- node2&#45;&gt;node3 -->
<g id="edge5" class="edge">
<title>node2&#45;&gt;node3</title>
<path fill="none" stroke="black" stroke-dasharray="1,5" d="M369.84,-364.81C358.23,-355.66 343.78,-344.26 331.18,-334.32"/>
<polygon fill="black" stroke="black" points="333.23,-331.47 323.21,-328.03 328.89,-336.97 333.23,-331.47"/>
</g>
<!-- node7 -->
<g id="node6" class="node">
<title>node7</title>
<polygon fill="orange" stroke="black" points="291.37,-83.54 291.37,-98.46 205.99,-109 85.25,-109 -0.12,-98.46 -0.12,-83.54 85.25,-73 205.99,-73 291.37,-83.54"/>
<text text-anchor="middle" x="145.62" y="-87.3" font-family="Times,serif" font-size="14.00">#7 GetField : int_field : int</text>
</g>
<!-- node5&#45;&gt;node7 -->
<g id="edge8" class="edge">
<title>node5&#45;&gt;node7</title>
<path fill="none" stroke="black" d="M334.3,-151.28C300.48,-140.65 249.92,-124.77 209.65,-112.12"/>
<polygon fill="black" stroke="black" points="210.51,-108.72 199.92,-109.06 208.41,-115.39 210.51,-108.72"/>
<text text-anchor="middle" x="219.74" y="-102.73" font-family="Times,serif" font-size="14.00">*0</text>
</g>
<!-- node5&#45;&gt;node6 -->
<g id="edge10" class="edge">
<title>node5&#45;&gt;node6</title>
<path fill="none" stroke="black" d="M385.11,-145.81C394.38,-136.74 406.9,-125.48 418.63,-115.6"/>
<polygon fill="black" stroke="black" points="421.1,-118.1 426.57,-109.03 416.64,-112.71 421.1,-118.1"/>
<text text-anchor="middle" x="417.99" y="-123.4" font-family="Times,serif" font-size="14.00">*0</text>
</g>
<!-- node5&#45;&gt;node6 -->
<g id="edge12" class="edge">
<title>node5&#45;&gt;node6</title>
<path fill="none" stroke="green" d="M395.98,-146.53C407.15,-137.5 420.17,-126.13 430.88,-116.12"/>
<polygon fill="green" stroke="green" points="433.39,-118.56 438.2,-109.12 428.56,-113.5 433.39,-118.56"/>
</g>
<!-- node8 -->
<g id="node8" class="node">
<title>node8</title>
<polygon fill="lightgrey" stroke="black" points="380.62,-36 216.62,-36 216.62,0 380.62,0 380.62,-36"/>
<text text-anchor="middle" x="298.62" y="-14.3" font-family="Times,serif" font-size="14.00">#8 ReturnValue : int</text>
</g>
<!-- node7&#45;&gt;node8 -->
<g id="edge13" class="edge">
<title>node7&#45;&gt;node8</title>
<path fill="none" stroke="black" d="M176.41,-72.99C196.5,-63.19 223.14,-50.77 246.45,-40.31"/>
<polygon fill="black" stroke="black" points="248.16,-43.38 255.87,-36.11 245.32,-36.99 248.16,-43.38"/>
<text text-anchor="middle" x="242.76" y="-47.51" font-family="Times,serif" font-size="14.00">*0</text>
</g>
<!-- node7&#45;&gt;node8 -->
<g id="edge15" class="edge">
<title>node7&#45;&gt;node8</title>
<path fill="none" stroke="green" d="M188.13,-72.99C210.11,-63.27 236.72,-50.99 258.36,-40.59"/>
<polygon fill="green" stroke="green" points="260.14,-43.62 267.61,-36.11 257.09,-37.32 260.14,-43.62"/>
</g>
<!-- node6&#45;&gt;node7 -->
<g id="edge9" class="edge">
<title>node6&#45;&gt;node7</title>
<path fill="none" stroke="green" d="M326.49,-91C318.19,-91 309.88,-91 301.58,-91"/>
<polygon fill="green" stroke="green" points="301.45,-87.5 291.45,-91 301.45,-94.5 301.45,-87.5"/>
</g>
<!-- node6&#45;&gt;node8 -->
<g id="edge14" class="edge">
<title>node6&#45;&gt;node8</title>
<path fill="none" stroke="red" d="M414.98,-72.99C393.94,-63.23 367.31,-50.88 344.85,-40.45"/>
<polygon fill="red" stroke="red" points="346.05,-37.15 335.5,-36.11 343.1,-43.5 346.05,-37.15"/>
</g>
<!-- c0 -->
<!-- c1 -->
<!-- c0&#45;&gt;c1 -->
<g id="edge16" class="edge">
<title>c0&#45;&gt;c1</title>
<path fill="none" stroke="red" d="M1220.51,-465C1231.73,-465 1289.87,-465 1315.48,-465"/>
<polygon fill="red" stroke="red" points="1315.68,-468.5 1325.68,-465 1315.68,-461.5 1315.68,-468.5"/>
<text text-anchor="middle" x="1273.12" y="-471.8" font-family="Times,serif" font-size="14.00">Control flow</text>
</g>
<!-- c2 -->
<!-- c3 -->
<!-- c2&#45;&gt;c3 -->
<g id="edge17" class="edge">
<title>c2&#45;&gt;c3</title>
<path fill="none" stroke="red" stroke-dasharray="5,2" d="M1013.7,-465C1030.67,-465 1146.83,-465 1184.71,-465"/>
<polygon fill="red" stroke="red" points="1184.79,-468.5 1194.79,-465 1184.79,-461.5 1184.79,-468.5"/>
<text text-anchor="middle" x="1104.12" y="-471.8" font-family="Times,serif" font-size="14.00">Control flow back edge</text>
</g>
<!-- d0 -->
<!-- d1 -->
<!-- d0&#45;&gt;d1 -->
<g id="edge18" class="edge">
<title>d0&#45;&gt;d1</title>
<path fill="none" stroke="black" d="M902.48,-465C912.03,-465 955.93,-465 977.54,-465"/>
<polygon fill="black" stroke="black" points="977.77,-468.5 987.77,-465 977.77,-461.5 977.77,-468.5"/>
<text text-anchor="middle" x="945.12" y="-471.8" font-family="Times,serif" font-size="14.00">Data flow</text>
</g>
<!-- d2 -->
<!-- d3 -->
<!-- d2&#45;&gt;d3 -->
<g id="edge19" class="edge">
<title>d2&#45;&gt;d3</title>
<path fill="none" stroke="black" stroke-dasharray="1,5" d="M776.43,-465C787.08,-465 842.09,-465 866.7,-465"/>
<polygon fill="black" stroke="black" points="866.77,-468.5 876.77,-465 866.77,-461.5 866.77,-468.5"/>
<text text-anchor="middle" x="826.62" y="-471.8" font-family="Times,serif" font-size="14.00">Declaration</text>
</g>
<!-- d4 -->
<!-- d5 -->
<!-- d4&#45;&gt;d5 -->
<g id="edge20" class="edge">
<title>d4&#45;&gt;d5</title>
<path fill="none" stroke="blue" d="M633.72,-465C646.34,-465 712.5,-465 740.3,-465"/>
<polygon fill="blue" stroke="blue" points="740.46,-468.5 750.46,-465 740.46,-461.5 740.46,-468.5"/>
<text text-anchor="middle" x="692.12" y="-471.8" font-family="Times,serif" font-size="14.00">PHI Data flow</text>
</g>
<!-- d6 -->
<!-- d7 -->
<!-- d6&#45;&gt;d7 -->
<g id="edge21" class="edge">
<title>d6&#45;&gt;d7</title>
<path fill="none" stroke="green" d="M496.62,-465C508.56,-465 570.92,-465 597.55,-465"/>
<polygon fill="green" stroke="green" points="597.57,-468.5 607.57,-465 597.57,-461.5 597.57,-468.5"/>
<text text-anchor="middle" x="552.12" y="-471.8" font-family="Times,serif" font-size="14.00">Memory flow</text>
</g>
</g>
</svg>
