<?xml version="1.0" encoding="UTF-8" standalone="no"?>
<!DOCTYPE svg PUBLIC "-//W3C//DTD SVG 1.1//EN"
 "http://www.w3.org/Graphics/SVG/1.1/DTD/svg11.dtd">
<!-- Generated by graphviz version 2.43.0 (0)
 -->
<!-- Title: %3 Pages: 1 -->
<svg width="1237pt" height="368pt"
 viewBox="0.00 0.00 1236.50 367.80" xmlns="http://www.w3.org/2000/svg" xmlns:xlink="http://www.w3.org/1999/xlink">
<g id="graph0" class="graph" transform="scale(1 1) rotate(0) translate(4 363.8)">
<title>%3</title>
<polygon fill="white" stroke="transparent" points="-4,4 -4,-363.8 1232.5,-363.8 1232.5,4 -4,4"/>
<g id="clust1" class="cluster">
<title>cluster_0</title>
<polygon fill="none" stroke="lightgray" points="110.5,-138 110.5,-263 546.5,-263 546.5,-138 110.5,-138"/>
</g>
<g id="clust2" class="cluster">
<title>cluster_000</title>
<polygon fill="none" stroke="black" points="367.5,-309.2 367.5,-351.8 1220.5,-351.8 1220.5,-309.2 367.5,-309.2"/>
<text text-anchor="middle" x="794" y="-336.6" font-family="Times,serif" font-size="14.00">Legend</text>
</g>
<!-- node0 -->
<g id="node1" class="node">
<title>node0</title>
<polygon fill="lightgrey" stroke="transparent" points="358,-346 149,-346 149,-292 358,-292 358,-346"/>
<polygon fill="none" stroke="black" points="149.5,-319 149.5,-346 358.5,-346 358.5,-319 149.5,-319"/>
<text text-anchor="start" x="213.5" y="-328.8" font-family="Times,serif" font-size="14.00">#0 Method</text>
<polygon fill="yellow" stroke="transparent" points="149.5,-292 149.5,-319 358.5,-319 358.5,-292 149.5,-292"/>
<polygon fill="none" stroke="black" points="149.5,-292 149.5,-319 358.5,-319 358.5,-292 149.5,-292"/>
<text text-anchor="start" x="155.5" y="-301.8" font-family="Times,serif" font-size="14.00">this : StaticFieldAccessTest</text>
</g>
<!-- node4 -->
<g id="node2" class="node">
<title>node4</title>
<polygon fill="lightgrey" stroke="black" points="105,-109 0,-109 0,-73 105,-73 105,-109"/>
<text text-anchor="middle" x="52.5" y="-87.3" font-family="Times,serif" font-size="14.00">#4 ClassInit</text>
</g>
<!-- node0&#45;&gt;node4 -->
<g id="edge2" class="edge">
<title>node0&#45;&gt;node4</title>
<path fill="none" stroke="green" d="M148.66,-294.4C132.64,-286.71 117.74,-276.51 106.5,-263 67.25,-215.81 108.74,-182.49 82.5,-127 80.9,-123.62 78.89,-120.3 76.66,-117.15"/>
<polygon fill="green" stroke="green" points="79.35,-114.9 70.41,-109.21 73.85,-119.23 79.35,-114.9"/>
</g>
<!-- node2 -->
<g id="node4" class="node">
<title>node2</title>
<polygon fill="lightgrey" stroke="black" points="313,-255 194,-255 194,-219 313,-219 313,-255"/>
<text text-anchor="middle" x="253.5" y="-233.3" font-family="Times,serif" font-size="14.00">#2 LabelNode</text>
</g>
<!-- node0&#45;&gt;node2 -->
<g id="edge4" class="edge">
<title>node0&#45;&gt;node2</title>
<path fill="none" stroke="red" d="M253.5,-291.81C253.5,-283.35 253.5,-273.95 253.5,-265.4"/>
<polygon fill="red" stroke="red" points="257,-265.17 253.5,-255.17 250,-265.17 257,-265.17"/>
</g>
<!-- node5 -->
<g id="node5" class="node">
<title>node5</title>
<polygon fill="orange" stroke="black" points="560.28,-83.54 560.28,-98.46 437.39,-109 263.61,-109 140.72,-98.46 140.72,-83.54 263.61,-73 437.39,-73 560.28,-83.54"/>
<text text-anchor="middle" x="350.5" y="-87.3" font-family="Times,serif" font-size="14.00">#5 GetStaticField : string_field : String</text>
</g>
<!-- node4&#45;&gt;node5 -->
<g id="edge7" class="edge">
<title>node4&#45;&gt;node5</title>
<path fill="none" stroke="green" d="M105.17,-91C113.58,-91 121.98,-91 130.38,-91"/>
<polygon fill="green" stroke="green" points="130.63,-94.5 140.63,-91 130.63,-87.5 130.63,-94.5"/>
</g>
<!-- node6 -->
<g id="node6" class="node">
<title>node6</title>
<polygon fill="lightgrey" stroke="black" points="296,-36 107,-36 107,0 296,0 296,-36"/>
<text text-anchor="middle" x="201.5" y="-14.3" font-family="Times,serif" font-size="14.00">#6 ReturnValue : String</text>
</g>
<!-- node4&#45;&gt;node6 -->
<g id="edge9" class="edge">
<title>node4&#45;&gt;node6</title>
<path fill="none" stroke="red" d="M88.19,-72.99C108.68,-63.23 134.6,-50.88 156.48,-40.45"/>
<polygon fill="red" stroke="red" points="158.06,-43.57 165.59,-36.11 155.05,-37.26 158.06,-43.57"/>
</g>
<!-- node3 -->
<g id="node3" class="node">
<title>node3</title>
<polygon fill="lightgreen" stroke="black" points="538.69,-156.54 538.69,-171.46 415.56,-182 241.44,-182 118.31,-171.46 118.31,-156.54 241.44,-146 415.56,-146 538.69,-156.54"/>
<text text-anchor="middle" x="328.5" y="-160.3" font-family="Times,serif" font-size="14.00">#3 Class StaticFieldAccessTest$Source</text>
</g>
<!-- node3&#45;&gt;node4 -->
<g id="edge1" class="edge">
<title>node3&#45;&gt;node4</title>
<path fill="none" stroke="black" d="M262.39,-145.99C217.62,-134.48 158.83,-119.35 114.87,-108.04"/>
<polygon fill="black" stroke="black" points="115.71,-104.65 105.16,-105.55 113.97,-111.43 115.71,-104.65"/>
<text text-anchor="middle" x="124.82" y="-98.18" font-family="Times,serif" font-size="14.00">*0</text>
</g>
<!-- node3&#45;&gt;node5 -->
<g id="edge6" class="edge">
<title>node3&#45;&gt;node5</title>
<path fill="none" stroke="black" d="M333.83,-145.81C336.34,-137.7 339.4,-127.84 342.2,-118.78"/>
<polygon fill="black" stroke="black" points="345.61,-119.62 345.22,-109.03 338.92,-117.54 345.61,-119.62"/>
<text text-anchor="middle" x="347.93" y="-125.14" font-family="Times,serif" font-size="14.00">*0</text>
</g>
<!-- node2&#45;&gt;node4 -->
<g id="edge3" class="edge">
<title>node2&#45;&gt;node4</title>
<path fill="none" stroke="red" d="M193.68,-222.95C165.9,-214.68 133.74,-201.7 109.5,-182 88.66,-165.06 73.12,-138.37 63.57,-118.45"/>
<polygon fill="red" stroke="red" points="66.72,-116.92 59.37,-109.29 60.36,-119.84 66.72,-116.92"/>
</g>
<!-- node2&#45;&gt;node3 -->
<g id="edge5" class="edge">
<title>node2&#45;&gt;node3</title>
<path fill="none" stroke="black" stroke-dasharray="1,5" d="M271.66,-218.81C281.05,-209.92 292.68,-198.91 302.97,-189.17"/>
<polygon fill="black" stroke="black" points="305.66,-191.45 310.51,-182.03 300.84,-186.36 305.66,-191.45"/>
</g>
<!-- node5&#45;&gt;node6 -->
<g id="edge8" class="edge">
<title>node5&#45;&gt;node6</title>
<path fill="none" stroke="black" d="M308.95,-72.99C287.52,-63.27 261.6,-50.99 240.54,-40.59"/>
<polygon fill="black" stroke="black" points="242.06,-37.43 231.54,-36.11 238.94,-43.7 242.06,-37.43"/>
<text text-anchor="middle" x="251.54" y="-32.92" font-family="Times,serif" font-size="14.00">*0</text>
</g>
<!-- node5&#45;&gt;node6 -->
<g id="edge10" class="edge">
<title>node5&#45;&gt;node6</title>
<path fill="none" stroke="green" d="M320.67,-72.99C301.13,-63.19 275.19,-50.77 252.47,-40.31"/>
<polygon fill="green" stroke="green" points="253.83,-37.09 243.28,-36.11 250.93,-43.45 253.83,-37.09"/>
</g>
<!-- c0 -->
<!-- c1 -->
<!-- c0&#45;&gt;c1 -->
<g id="edge11" class="edge">
<title>c0&#45;&gt;c1</title>
<path fill="none" stroke="red" d="M1103.39,-319C1114.61,-319 1172.74,-319 1198.36,-319"/>
<polygon fill="red" stroke="red" points="1198.56,-322.5 1208.56,-319 1198.56,-315.5 1198.56,-322.5"/>
<text text-anchor="middle" x="1156" y="-325.8" font-family="Times,serif" font-size="14.00">Control flow</text>
</g>
<!-- c2 -->
<!-- c3 -->
<!-- c2&#45;&gt;c3 -->
<g id="edge12" class="edge">
<title>c2&#45;&gt;c3</title>
<path fill="none" stroke="red" stroke-dasharray="5,2" d="M896.58,-319C913.55,-319 1029.71,-319 1067.58,-319"/>
<polygon fill="red" stroke="red" points="1067.67,-322.5 1077.67,-319 1067.67,-315.5 1067.67,-322.5"/>
<text text-anchor="middle" x="987" y="-325.8" font-family="Times,serif" font-size="14.00">Control flow back edge</text>
</g>
<!-- d0 -->
<!-- d1 -->
<!-- d0&#45;&gt;d1 -->
<g id="edge13" class="edge">
<title>d0&#45;&gt;d1</title>
<path fill="none" stroke="black" d="M785.36,-319C794.91,-319 838.81,-319 860.42,-319"/>
<polygon fill="black" stroke="black" points="860.65,-322.5 870.65,-319 860.65,-315.5 860.65,-322.5"/>
<text text-anchor="middle" x="828" y="-325.8" font-family="Times,serif" font-size="14.00">Data flow</text>
</g>
<!-- d2 -->
<!-- d3 -->
<!-- d2&#45;&gt;d3 -->
<g id="edge14" class="edge">
<title>d2&#45;&gt;d3</title>
<path fill="none" stroke="black" stroke-dasharray="1,5" d="M659.31,-319C669.96,-319 724.96,-319 749.58,-319"/>
<polygon fill="black" stroke="black" points="749.65,-322.5 759.65,-319 749.65,-315.5 749.65,-322.5"/>
<text text-anchor="middle" x="709.5" y="-325.8" font-family="Times,serif" font-size="14.00">Declaration</text>
</g>
<!-- d4 -->
<!-- d5 -->
<!-- d4&#45;&gt;d5 -->
<g id="edge15" class="edge">
<title>d4&#45;&gt;d5</title>
<path fill="none" stroke="blue" d="M516.6,-319C529.22,-319 595.38,-319 623.18,-319"/>
<polygon fill="blue" stroke="blue" points="623.34,-322.5 633.34,-319 623.34,-315.5 623.34,-322.5"/>
<text text-anchor="middle" x="575" y="-325.8" font-family="Times,serif" font-size="14.00">PHI Data flow</text>
</g>
<!-- d6 -->
<!-- d7 -->
<!-- d6&#45;&gt;d7 -->
<g id="edge16" class="edge">
<title>d6&#45;&gt;d7</title>
<path fill="none" stroke="green" d="M379.5,-319C391.44,-319 453.8,-319 480.43,-319"/>
<polygon fill="green" stroke="green" points="480.45,-322.5 490.45,-319 480.45,-315.5 480.45,-322.5"/>
<text text-anchor="middle" x="435" y="-325.8" font-family="Times,serif" font-size="14.00">Memory flow</text>
</g>
</g>
</svg>
