<?xml version="1.0" encoding="UTF-8" standalone="no"?>
<!DOCTYPE svg PUBLIC "-//W3C//DTD SVG 1.1//EN"
 "http://www.w3.org/Graphics/SVG/1.1/DTD/svg11.dtd">
<!-- Generated by graphviz version 2.43.0 (0)
 -->
<!-- Title: debugoutput Pages: 1 -->
<svg width="1437pt" height="359pt"
 viewBox="0.00 0.00 1437.18 358.80" xmlns="http://www.w3.org/2000/svg" xmlns:xlink="http://www.w3.org/1999/xlink">
<g id="graph0" class="graph" transform="scale(1 1) rotate(0) translate(4 354.8)">
<title>debugoutput</title>
<polygon fill="white" stroke="transparent" points="-4,4 -4,-354.8 1433.18,-354.8 1433.18,4 -4,4"/>
<g id="clust1" class="cluster">
<title>cluster_000</title>
<polygon fill="none" stroke="black" points="582.18,-300.2 582.18,-342.8 1421.18,-342.8 1421.18,-300.2 582.18,-300.2"/>
<text text-anchor="middle" x="1001.68" y="-327.6" font-family="Times,serif" font-size="14.00">Legend</text>
</g>
<!-- node0 -->
<g id="node1" class="node">
<title>node0</title>
<polygon fill="lightgrey" stroke="black" points="572.18,-328 406.18,-328 406.18,-292 572.18,-292 572.18,-328"/>
<text text-anchor="middle" x="489.18" y="-306.3" font-family="Times,serif" font-size="14.00">#0 Method Order : 0</text>
</g>
<!-- node1 -->
<g id="node2" class="node">
<title>node1</title>
<polygon fill="lightgrey" stroke="black" points="345.18,-182 171.18,-182 171.18,-146 345.18,-146 345.18,-182"/>
<text text-anchor="middle" x="258.18" y="-160.3" font-family="Times,serif" font-size="14.00">#1 ClassInit Order : 4</text>
</g>
<!-- node0&#45;&gt;node1 -->
<g id="edge3" class="edge">
<title>node0&#45;&gt;node1</title>
<path fill="none" stroke="black" d="M406.02,-307.68C315.21,-304.36 178.55,-293.02 146.18,-255 135.81,-242.82 137.9,-232.69 146.18,-219 154.62,-205.05 167.98,-194.53 182.6,-186.66"/>
<polygon fill="black" stroke="black" points="184.42,-189.66 191.84,-182.1 181.32,-183.39 184.42,-189.66"/>
</g>
<!-- node4 -->
<g id="node3" class="node">
<title>node4</title>
<polygon fill="lightgreen" stroke="black" points="887.95,-229.54 887.95,-244.46 736.37,-255 522,-255 370.41,-244.46 370.41,-229.54 522,-219 736.37,-219 887.95,-229.54"/>
<text text-anchor="middle" x="629.18" y="-233.3" font-family="Times,serif" font-size="14.00">#4 Class StaticFieldAccessTest$Source Order : 1</text>
</g>
<!-- node0&#45;&gt;node4 -->
<g id="edge10" class="edge">
<title>node0&#45;&gt;node4</title>
<path fill="none" stroke="black" stroke-dasharray="1,5" d="M516.86,-291.99C534.99,-282.27 559.08,-269.99 580.34,-259.59"/>
<polygon fill="black" stroke="black" points="582.1,-262.63 589.57,-255.11 579.04,-256.33 582.1,-262.63"/>
</g>
<!-- node3 -->
<g id="node4" class="node">
<title>node3</title>
<polygon fill="lightgrey" stroke="black" points="352.18,-255 164.18,-255 164.18,-219 352.18,-219 352.18,-255"/>
<text text-anchor="middle" x="258.18" y="-233.3" font-family="Times,serif" font-size="14.00">#3 LabelNode Order : 2</text>
</g>
<!-- node0&#45;&gt;node3 -->
<g id="edge8" class="edge">
<title>node0&#45;&gt;node3</title>
<path fill="none" stroke="red" d="M427.99,-291.99C393.87,-281.84 351.61,-268.88 317.76,-258.2"/>
<polygon fill="red" stroke="red" points="318.58,-254.79 307.99,-255.11 316.47,-261.47 318.58,-254.79"/>
</g>
<!-- node2 -->
<g id="node5" class="node">
<title>node2</title>
<polygon fill="lightgrey" stroke="black" points="1252.18,-255 944.18,-255 944.18,-219 1252.18,-219 1252.18,-255"/>
<text text-anchor="middle" x="1098.18" y="-233.3" font-family="Times,serif" font-size="14.00">#2 this : StaticFieldAccessTest Order : 3</text>
</g>
<!-- node0&#45;&gt;node2 -->
<g id="edge6" class="edge">
<title>node0&#45;&gt;node2</title>
<path fill="none" stroke="black" d="M569.64,-291.95C724.79,-273.3 766.03,-294.46 921.18,-274 951.07,-270.06 983.55,-263.62 1012.47,-257.26"/>
<polygon fill="black" stroke="black" points="1013.54,-260.61 1022.54,-255.03 1012.02,-253.78 1013.54,-260.61"/>
<text text-anchor="middle" x="1006.68" y="-263.51" font-family="Times,serif" font-size="14.00">*0</text>
</g>
<!-- node1&#45;&gt;node0 -->
<g id="edge1" class="edge">
<title>node1&#45;&gt;node0</title>
<path fill="none" stroke="green" stroke-width="2" d="M208.84,-182.1C191.74,-190.31 174.37,-202.16 164.18,-219 155.9,-232.69 153.81,-242.82 164.18,-255 193.77,-289.76 310.56,-302.22 395.73,-306.64"/>
<polygon fill="green" stroke="green" stroke-width="2" points="395.79,-310.15 405.95,-307.14 396.14,-303.16 395.79,-310.15"/>
</g>
<!-- node5 -->
<g id="node6" class="node">
<title>node5</title>
<polygon fill="orange" stroke="black" points="516.55,-83.54 516.55,-98.46 365.2,-109 151.16,-109 -0.18,-98.46 -0.18,-83.54 151.16,-73 365.2,-73 516.55,-83.54"/>
<text text-anchor="middle" x="258.18" y="-87.3" font-family="Times,serif" font-size="14.00">#5 GetStaticField : string_field : String Order : 5</text>
</g>
<!-- node1&#45;&gt;node5 -->
<g id="edge13" class="edge">
<title>node1&#45;&gt;node5</title>
<path fill="none" stroke="black" d="M258.18,-145.81C258.18,-137.79 258.18,-128.05 258.18,-119.07"/>
<polygon fill="black" stroke="black" points="261.68,-119.03 258.18,-109.03 254.68,-119.03 261.68,-119.03"/>
</g>
<!-- node6 -->
<g id="node7" class="node">
<title>node6</title>
<polygon fill="lightgrey" stroke="black" points="530.18,-36 272.18,-36 272.18,0 530.18,0 530.18,-36"/>
<text text-anchor="middle" x="401.18" y="-14.3" font-family="Times,serif" font-size="14.00">#6 ReturnValue : String Order : 6</text>
</g>
<!-- node1&#45;&gt;node6 -->
<g id="edge16" class="edge">
<title>node1&#45;&gt;node6</title>
<path fill="none" stroke="red" d="M345.36,-157.08C414.33,-150.37 502.65,-136.55 525.18,-109 535.31,-96.62 533.95,-86.38 525.18,-73 515.77,-58.63 501.61,-48.07 486.19,-40.31"/>
<polygon fill="red" stroke="red" points="487.54,-37.07 476.99,-36.05 484.6,-43.43 487.54,-37.07"/>
</g>
<!-- node4&#45;&gt;node0 -->
<g id="edge9" class="edge">
<title>node4&#45;&gt;node0</title>
<path fill="none" stroke="green" stroke-width="2" d="M601.31,-255.11C583.13,-264.85 559.02,-277.14 537.79,-287.52"/>
<polygon fill="green" stroke="green" stroke-width="2" points="536.04,-284.48 528.57,-291.99 539.1,-290.78 536.04,-284.48"/>
</g>
<!-- node4&#45;&gt;node1 -->
<g id="edge2" class="edge">
<title>node4&#45;&gt;node1</title>
<path fill="none" stroke="black" d="M540.32,-218.99C484.6,-208.33 412.76,-194.58 355.51,-183.63"/>
<polygon fill="black" stroke="black" points="355.84,-180.13 345.36,-181.68 354.52,-187 355.84,-180.13"/>
<text text-anchor="middle" x="364.75" y="-173.09" font-family="Times,serif" font-size="14.00">*0</text>
</g>
<!-- node4&#45;&gt;node5 -->
<g id="edge12" class="edge">
<title>node4&#45;&gt;node5</title>
<path fill="none" stroke="black" d="M585.17,-218.92C516.83,-192.39 385.43,-141.39 311.71,-112.78"/>
<polygon fill="black" stroke="black" points="312.73,-109.42 302.14,-109.06 310.2,-115.94 312.73,-109.42"/>
<text text-anchor="middle" x="322.1" y="-104.04" font-family="Times,serif" font-size="14.00">*0</text>
</g>
<!-- node3&#45;&gt;node0 -->
<g id="edge7" class="edge">
<title>node3&#45;&gt;node0</title>
<path fill="none" stroke="green" stroke-width="2" d="M319.73,-255.11C353.91,-265.29 396.17,-278.25 429.97,-288.91"/>
<polygon fill="green" stroke="green" stroke-width="2" points="429.12,-292.31 439.71,-291.99 431.23,-285.64 429.12,-292.31"/>
</g>
<!-- node3&#45;&gt;node1 -->
<g id="edge4" class="edge">
<title>node3&#45;&gt;node1</title>
<path fill="none" stroke="red" d="M258.18,-218.81C258.18,-210.79 258.18,-201.05 258.18,-192.07"/>
<polygon fill="red" stroke="red" points="261.68,-192.03 258.18,-182.03 254.68,-192.03 261.68,-192.03"/>
</g>
<!-- node2&#45;&gt;node0 -->
<g id="edge5" class="edge">
<title>node2&#45;&gt;node0</title>
<path fill="none" stroke="green" stroke-width="2" d="M1038.99,-255.03C1009.25,-262.06 972.6,-269.59 939.18,-274 783.88,-294.48 742.71,-273.26 587.18,-292 585.67,-292.18 584.14,-292.38 582.61,-292.58"/>
<polygon fill="green" stroke="green" stroke-width="2" points="581.75,-289.16 572.35,-294.04 582.74,-296.09 581.75,-289.16"/>
</g>
<!-- node5&#45;&gt;node0 -->
<g id="edge11" class="edge">
<title>node5&#45;&gt;node0</title>
<path fill="none" stroke="green" stroke-width="2" d="M211.06,-109.03C193.37,-117.61 174.57,-129.71 162.18,-146 158.71,-150.56 129.19,-229.81 144.18,-255 169.46,-297.48 302.5,-307.75 395.77,-309.61"/>
<polygon fill="green" stroke="green" stroke-width="2" points="395.75,-313.11 405.8,-309.78 395.87,-306.11 395.75,-313.11"/>
</g>
<!-- node5&#45;&gt;node6 -->
<g id="edge15" class="edge">
<title>node5&#45;&gt;node6</title>
<path fill="none" stroke="black" d="M286.57,-72.99C305.2,-63.23 329.95,-50.88 351.72,-40.45"/>
<polygon fill="black" stroke="black" points="353.32,-43.57 360.84,-36.11 350.31,-37.25 353.32,-43.57"/>
<text text-anchor="middle" x="348.1" y="-47.83" font-family="Times,serif" font-size="14.00">*0</text>
</g>
<!-- node5&#45;&gt;node6 -->
<g id="edge17" class="edge">
<title>node5&#45;&gt;node6</title>
<path fill="none" stroke="black" d="M298.29,-72.99C318.81,-63.32 343.56,-51.1 363.69,-40.73"/>
<polygon fill="black" stroke="black" points="365.32,-43.83 372.58,-36.11 362.1,-37.62 365.32,-43.83"/>
</g>
<!-- node6&#45;&gt;node0 -->
<g id="edge14" class="edge">
<title>node6&#45;&gt;node0</title>
<path fill="none" stroke="green" stroke-width="2" d="M530.47,-24.35C683.03,-32.43 916.18,-51.13 916.18,-90 916.18,-238 916.18,-238 916.18,-238 916.18,-311.17 673.01,-282.87 582.53,-291.66"/>
<polygon fill="green" stroke="green" stroke-width="2" points="582.03,-288.2 572.53,-292.89 582.88,-295.14 582.03,-288.2"/>
</g>
<!-- c0 -->
<!-- c1 -->
<!-- c0&#45;&gt;c1 -->
<g id="edge18" class="edge">
<title>c0&#45;&gt;c1</title>
<path fill="none" stroke="red" d="M1304.07,-310C1315.29,-310 1373.42,-310 1399.04,-310"/>
<polygon fill="red" stroke="red" points="1399.24,-313.5 1409.24,-310 1399.24,-306.5 1399.24,-313.5"/>
<text text-anchor="middle" x="1356.68" y="-316.8" font-family="Times,serif" font-size="14.00">Control flow</text>
</g>
<!-- c2 -->
<!-- c3 -->
<!-- c2&#45;&gt;c3 -->
<g id="edge19" class="edge">
<title>c2&#45;&gt;c3</title>
<path fill="none" stroke="red" stroke-dasharray="5,2" d="M1097.26,-310C1114.23,-310 1230.39,-310 1268.27,-310"/>
<polygon fill="red" stroke="red" points="1268.35,-313.5 1278.35,-310 1268.35,-306.5 1268.35,-313.5"/>
<text text-anchor="middle" x="1187.68" y="-316.8" font-family="Times,serif" font-size="14.00">Control flow back edge</text>
</g>
<!-- d0 -->
<!-- d1 -->
<!-- d0&#45;&gt;d1 -->
<g id="edge20" class="edge">
<title>d0&#45;&gt;d1</title>
<path fill="none" stroke="black" d="M986.04,-310C995.59,-310 1039.49,-310 1061.1,-310"/>
<polygon fill="black" stroke="black" points="1061.33,-313.5 1071.33,-310 1061.33,-306.5 1061.33,-313.5"/>
<text text-anchor="middle" x="1028.68" y="-316.8" font-family="Times,serif" font-size="14.00">Data flow</text>
</g>
<!-- d2 -->
<!-- d3 -->
<!-- d2&#45;&gt;d3 -->
<g id="edge21" class="edge">
<title>d2&#45;&gt;d3</title>
<path fill="none" stroke="black" stroke-dasharray="1,5" d="M859.99,-310C870.64,-310 925.65,-310 950.26,-310"/>
<polygon fill="black" stroke="black" points="950.33,-313.5 960.33,-310 950.33,-306.5 950.33,-313.5"/>
<text text-anchor="middle" x="910.18" y="-316.8" font-family="Times,serif" font-size="14.00">Declaration</text>
</g>
<!-- d4 -->
<!-- d5 -->
<!-- d4&#45;&gt;d5 -->
<g id="edge22" class="edge">
<title>d4&#45;&gt;d5</title>
<path fill="none" stroke="blue" d="M717.28,-310C729.9,-310 796.06,-310 823.86,-310"/>
<polygon fill="blue" stroke="blue" points="824.02,-313.5 834.02,-310 824.02,-306.5 824.02,-313.5"/>
<text text-anchor="middle" x="775.68" y="-316.8" font-family="Times,serif" font-size="14.00">PHI Data flow</text>
</g>
<!-- d6 -->
<!-- d7 -->
<!-- d6&#45;&gt;d7 -->
<g id="edge23" class="edge">
<title>d6&#45;&gt;d7</title>
<path fill="none" stroke="green" d="M594.29,-310C605.33,-310 656.85,-310 680.84,-310"/>
<polygon fill="green" stroke="green" points="681.08,-313.5 691.08,-310 681.08,-306.5 681.08,-313.5"/>
<text text-anchor="middle" x="642.68" y="-316.8" font-family="Times,serif" font-size="14.00">Dominance</text>
</g>
</g>
</svg>
