<?xml version="1.0" encoding="UTF-8" standalone="no"?>
<!DOCTYPE svg PUBLIC "-//W3C//DTD SVG 1.1//EN"
 "http://www.w3.org/Graphics/SVG/1.1/DTD/svg11.dtd">
<!-- Generated by graphviz version 2.43.0 (0)
 -->
<!-- Title: %3 Pages: 1 -->
<svg width="1088pt" height="587pt"
 viewBox="0.00 0.00 1087.59 586.80" xmlns="http://www.w3.org/2000/svg" xmlns:xlink="http://www.w3.org/1999/xlink">
<g id="graph0" class="graph" transform="scale(1 1) rotate(0) translate(4 582.8)">
<title>%3</title>
<polygon fill="white" stroke="transparent" points="-4,4 -4,-582.8 1083.59,-582.8 1083.59,4 -4,4"/>
<g id="clust1" class="cluster">
<title>cluster_0</title>
<polygon fill="none" stroke="lightgray" points="303.59,-138 303.59,-263 495.59,-263 495.59,-138 303.59,-138"/>
</g>
<g id="clust2" class="cluster">
<title>cluster_1</title>
<polygon fill="none" stroke="lightgray" points="249.59,-284 249.59,-409 543.59,-409 543.59,-284 249.59,-284"/>
</g>
<g id="clust3" class="cluster">
<title>cluster_2</title>
<polygon fill="none" stroke="lightgray" points="79.59,-357 79.59,-482 215.59,-482 215.59,-357 79.59,-357"/>
</g>
<g id="clust4" class="cluster">
<title>cluster_000</title>
<polygon fill="none" stroke="black" points="218.59,-528.2 218.59,-570.8 1071.59,-570.8 1071.59,-528.2 218.59,-528.2"/>
<text text-anchor="middle" x="645.09" y="-555.6" font-family="Times,serif" font-size="14.00">Legend</text>
</g>
<!-- node0 -->
<g id="node1" class="node">
<title>node0</title>
<polygon fill="lightgrey" stroke="transparent" points="209.09,-565 86.09,-565 86.09,-511 209.09,-511 209.09,-565"/>
<polygon fill="none" stroke="black" points="86.59,-538 86.59,-565 209.59,-565 209.59,-538 86.59,-538"/>
<text text-anchor="start" x="107.59" y="-547.8" font-family="Times,serif" font-size="14.00">#0 Method</text>
<polygon fill="yellow" stroke="transparent" points="86.59,-511 86.59,-538 209.59,-538 209.59,-511 86.59,-511"/>
<polygon fill="none" stroke="black" points="86.59,-511 86.59,-538 209.59,-538 209.59,-511 86.59,-511"/>
<text text-anchor="start" x="92.59" y="-520.8" font-family="Times,serif" font-size="14.00">this : ArrayTest</text>
</g>
<!-- node2 -->
<g id="node2" class="node">
<title>node2</title>
<polygon fill="lightgrey" stroke="black" points="207.09,-474 88.09,-474 88.09,-438 207.09,-438 207.09,-474"/>
<text text-anchor="middle" x="147.59" y="-452.3" font-family="Times,serif" font-size="14.00">#2 LabelNode</text>
</g>
<!-- node0&#45;&gt;node2 -->
<g id="edge1" class="edge">
<title>node0&#45;&gt;node2</title>
<path fill="none" stroke="red" d="M147.59,-510.81C147.59,-502.35 147.59,-492.95 147.59,-484.4"/>
<polygon fill="red" stroke="red" points="151.09,-484.17 147.59,-474.17 144.09,-484.17 151.09,-484.17"/>
</g>
<!-- node5 -->
<g id="node6" class="node">
<title>node5</title>
<polygon fill="orange" stroke="black" points="239.28,-302.54 239.28,-317.46 169.17,-328 70.02,-328 -0.09,-317.46 -0.09,-302.54 70.02,-292 169.17,-292 239.28,-302.54"/>
<text text-anchor="middle" x="119.59" y="-306.3" font-family="Times,serif" font-size="14.00">#5 NewArray : float[]</text>
</g>
<!-- node0&#45;&gt;node5 -->
<g id="edge10" class="edge">
<title>node0&#45;&gt;node5</title>
<path fill="none" stroke="green" d="M209.23,-512.89C211.03,-512.24 212.83,-511.61 214.59,-511 368.66,-457.59 657.25,-477.69 547.59,-357 524.93,-332.05 279.08,-331.87 245.59,-328 235.37,-326.82 224.7,-325.51 214.07,-324.15"/>
<polygon fill="green" stroke="green" points="214.29,-320.65 203.92,-322.83 213.39,-327.59 214.29,-320.65"/>
</g>
<!-- node3 -->
<g id="node3" class="node">
<title>node3</title>
<polygon fill="lightgrey" stroke="black" points="480.09,-401 361.09,-401 361.09,-365 480.09,-365 480.09,-401"/>
<text text-anchor="middle" x="420.59" y="-379.3" font-family="Times,serif" font-size="14.00">#3 LabelNode</text>
</g>
<!-- node2&#45;&gt;node3 -->
<g id="edge2" class="edge">
<title>node2&#45;&gt;node3</title>
<path fill="none" stroke="red" d="M177.32,-437.94C190.26,-431.15 205.82,-423.83 220.59,-419 262.73,-405.24 311.74,-396.55 350.69,-391.27"/>
<polygon fill="red" stroke="red" points="351.42,-394.71 360.88,-389.94 350.51,-387.77 351.42,-394.71"/>
</g>
<!-- node4 -->
<g id="node8" class="node">
<title>node4</title>
<polygon fill="lightgreen" stroke="black" points="205.78,-375.54 205.78,-390.46 171.11,-401 122.08,-401 87.41,-390.46 87.41,-375.54 122.08,-365 171.11,-365 205.78,-375.54"/>
<text text-anchor="middle" x="146.59" y="-379.3" font-family="Times,serif" font-size="14.00">#4 int 10</text>
</g>
<!-- node2&#45;&gt;node4 -->
<g id="edge11" class="edge">
<title>node2&#45;&gt;node4</title>
<path fill="none" stroke="black" stroke-dasharray="1,5" d="M147.35,-437.81C147.24,-429.79 147.1,-420.05 146.97,-411.07"/>
<polygon fill="black" stroke="black" points="150.47,-410.98 146.83,-401.03 143.47,-411.08 150.47,-410.98"/>
</g>
<!-- node6 -->
<g id="node4" class="node">
<title>node6</title>
<polygon fill="lightgreen" stroke="black" points="411.86,-302.54 411.86,-317.46 366.6,-328 302.59,-328 257.33,-317.46 257.33,-302.54 302.59,-292 366.6,-292 411.86,-302.54"/>
<text text-anchor="middle" x="334.59" y="-306.3" font-family="Times,serif" font-size="14.00">#6 float 10.0</text>
</g>
<!-- node3&#45;&gt;node6 -->
<g id="edge3" class="edge">
<title>node3&#45;&gt;node6</title>
<path fill="none" stroke="black" stroke-dasharray="1,5" d="M399.78,-364.81C388.79,-355.74 375.14,-344.48 363.18,-334.6"/>
<polygon fill="black" stroke="black" points="365.16,-331.7 355.22,-328.03 360.7,-337.09 365.16,-331.7"/>
</g>
<!-- node8 -->
<g id="node5" class="node">
<title>node8</title>
<polygon fill="lightgrey" stroke="black" points="487.59,-255 311.59,-255 311.59,-219 487.59,-219 487.59,-255"/>
<text text-anchor="middle" x="399.59" y="-233.3" font-family="Times,serif" font-size="14.00">#8 ArrayStore : float[]</text>
</g>
<!-- node3&#45;&gt;node8 -->
<g id="edge8" class="edge">
<title>node3&#45;&gt;node8</title>
<path fill="none" stroke="red" d="M480.15,-370.95C504.42,-363.2 530.12,-350.1 544.59,-328 555.31,-311.64 556.14,-299.78 544.59,-284 532.92,-268.05 515.67,-257.49 497.11,-250.54"/>
<polygon fill="red" stroke="red" points="498.21,-247.21 487.62,-247.32 495.96,-253.84 498.21,-247.21"/>
</g>
<!-- node7 -->
<g id="node7" class="node">
<title>node7</title>
<polygon fill="lightgreen" stroke="black" points="535.12,-302.54 535.12,-317.46 504.35,-328 460.84,-328 430.07,-317.46 430.07,-302.54 460.84,-292 504.35,-292 535.12,-302.54"/>
<text text-anchor="middle" x="482.59" y="-306.3" font-family="Times,serif" font-size="14.00">#7 int 0</text>
</g>
<!-- node3&#45;&gt;node7 -->
<g id="edge21" class="edge">
<title>node3&#45;&gt;node7</title>
<path fill="none" stroke="black" stroke-dasharray="1,5" d="M435.6,-364.81C443.22,-356.09 452.61,-345.34 460.98,-335.75"/>
<polygon fill="black" stroke="black" points="463.78,-337.86 467.72,-328.03 458.51,-333.26 463.78,-337.86"/>
</g>
<!-- node6&#45;&gt;node8 -->
<g id="edge6" class="edge">
<title>node6&#45;&gt;node8</title>
<path fill="none" stroke="black" d="M350.33,-291.81C358.39,-283 368.35,-272.13 377.2,-262.46"/>
<polygon fill="black" stroke="black" points="379.83,-264.77 384,-255.03 374.67,-260.04 379.83,-264.77"/>
<text text-anchor="middle" x="378" y="-270.41" font-family="Times,serif" font-size="14.00">*2</text>
</g>
<!-- node12 -->
<g id="node10" class="node">
<title>node12</title>
<polygon fill="lightgrey" stroke="black" points="255.59,-109 85.59,-109 85.59,-73 255.59,-73 255.59,-109"/>
<text text-anchor="middle" x="170.59" y="-87.3" font-family="Times,serif" font-size="14.00">#12 ArrayLoad : float</text>
</g>
<!-- node8&#45;&gt;node12 -->
<g id="edge15" class="edge">
<title>node8&#45;&gt;node12</title>
<path fill="none" stroke="green" d="M371.02,-218.92C353.51,-208.39 330.67,-194.54 310.59,-182 274.55,-159.48 233.71,-133.13 205.48,-114.78"/>
<polygon fill="green" stroke="green" points="207.07,-111.64 196.78,-109.12 203.26,-117.51 207.07,-111.64"/>
</g>
<!-- node11 -->
<g id="node11" class="node">
<title>node11</title>
<polygon fill="lightgreen" stroke="black" points="437.78,-156.54 437.78,-171.46 403.11,-182 354.08,-182 319.41,-171.46 319.41,-156.54 354.08,-146 403.11,-146 437.78,-156.54"/>
<text text-anchor="middle" x="378.59" y="-160.3" font-family="Times,serif" font-size="14.00">#11 int 1</text>
</g>
<!-- node8&#45;&gt;node11 -->
<g id="edge16" class="edge">
<title>node8&#45;&gt;node11</title>
<path fill="none" stroke="black" stroke-dasharray="1,5" d="M394.51,-218.81C392.11,-210.7 389.19,-200.84 386.51,-191.78"/>
<polygon fill="black" stroke="black" points="389.82,-190.63 383.63,-182.03 383.11,-192.61 389.82,-190.63"/>
</g>
<!-- node10 -->
<g id="node14" class="node">
<title>node10</title>
<polygon fill="lightgrey" stroke="black" points="631.59,-182 503.59,-182 503.59,-146 631.59,-146 631.59,-182"/>
<text text-anchor="middle" x="567.59" y="-160.3" font-family="Times,serif" font-size="14.00">#10 LabelNode</text>
</g>
<!-- node8&#45;&gt;node10 -->
<g id="edge20" class="edge">
<title>node8&#45;&gt;node10</title>
<path fill="none" stroke="red" d="M439.83,-218.99C463.25,-209.1 492.95,-196.54 517.83,-186.03"/>
<polygon fill="red" stroke="red" points="519.25,-189.23 527.1,-182.11 516.53,-182.78 519.25,-189.23"/>
</g>
<!-- node5&#45;&gt;node8 -->
<g id="edge4" class="edge">
<title>node5&#45;&gt;node8</title>
<path fill="none" stroke="black" d="M176.01,-292.91C210.06,-284.13 254.23,-273.02 293.59,-263 300.49,-261.25 307.66,-259.41 314.87,-257.57"/>
<polygon fill="black" stroke="black" points="315.89,-260.92 324.71,-255.06 314.16,-254.14 315.89,-260.92"/>
<text text-anchor="middle" x="309.24" y="-264.03" font-family="Times,serif" font-size="14.00">*0</text>
</g>
<!-- node5&#45;&gt;node8 -->
<g id="edge7" class="edge">
<title>node5&#45;&gt;node8</title>
<path fill="none" stroke="green" d="M185.93,-294.38C223.06,-285.38 270.01,-273.59 311.59,-263 318.49,-261.25 325.66,-259.41 332.8,-257.57"/>
<polygon fill="green" stroke="green" points="333.68,-260.96 342.49,-255.06 331.93,-254.18 333.68,-260.96"/>
</g>
<!-- node9 -->
<g id="node9" class="node">
<title>node9</title>
<polygon fill="orange" stroke="black" points="293.32,-229.54 293.32,-244.46 239,-255 162.19,-255 107.87,-244.46 107.87,-229.54 162.19,-219 239,-219 293.32,-229.54"/>
<text text-anchor="middle" x="200.59" y="-233.3" font-family="Times,serif" font-size="14.00">#9 ArrayLength</text>
</g>
<!-- node5&#45;&gt;node9 -->
<g id="edge12" class="edge">
<title>node5&#45;&gt;node9</title>
<path fill="none" stroke="black" d="M139.2,-291.81C149.45,-282.83 162.15,-271.69 173.34,-261.89"/>
<polygon fill="black" stroke="black" points="175.95,-264.25 181.17,-255.03 171.34,-258.99 175.95,-264.25"/>
<text text-anchor="middle" x="173.11" y="-269.63" font-family="Times,serif" font-size="14.00">*0</text>
</g>
<!-- node5&#45;&gt;node12 -->
<g id="edge13" class="edge">
<title>node5&#45;&gt;node12</title>
<path fill="none" stroke="black" d="M109.56,-291.7C105.27,-283.33 100.76,-272.95 98.59,-263 94.44,-243.89 93.61,-237.91 98.59,-219 108.67,-180.8 133.16,-142.04 150.79,-117.56"/>
<polygon fill="black" stroke="black" points="153.82,-119.34 156.93,-109.22 148.18,-115.2 153.82,-119.34"/>
<text text-anchor="middle" x="152.99" y="-125.13" font-family="Times,serif" font-size="14.00">*0</text>
</g>
<!-- node7&#45;&gt;node8 -->
<g id="edge5" class="edge">
<title>node7&#45;&gt;node8</title>
<path fill="none" stroke="black" d="M462.5,-291.81C451.9,-282.74 438.73,-271.48 427.18,-261.6"/>
<polygon fill="black" stroke="black" points="429.37,-258.87 419.5,-255.03 424.82,-264.19 429.37,-258.87"/>
<text text-anchor="middle" x="438.77" y="-256.69" font-family="Times,serif" font-size="14.00">*1</text>
</g>
<!-- node4&#45;&gt;node5 -->
<g id="edge9" class="edge">
<title>node4&#45;&gt;node5</title>
<path fill="none" stroke="black" d="M140.06,-364.81C136.94,-356.62 133.14,-346.62 129.67,-337.48"/>
<polygon fill="black" stroke="black" points="132.9,-336.13 126.07,-328.03 126.35,-338.62 132.9,-336.13"/>
<text text-anchor="middle" x="140.41" y="-338.27" font-family="Times,serif" font-size="14.00">*0</text>
</g>
<!-- node14 -->
<g id="node12" class="node">
<title>node14</title>
<polygon fill="lightgrey" stroke="black" points="618.09,-36 517.09,-36 517.09,0 618.09,0 618.09,-36"/>
<text text-anchor="middle" x="567.59" y="-14.3" font-family="Times,serif" font-size="14.00">#14 Return</text>
</g>
<!-- node12&#45;&gt;node14 -->
<g id="edge18" class="edge">
<title>node12&#45;&gt;node14</title>
<path fill="none" stroke="green" d="M255.76,-74.77C331.39,-61.24 440.04,-41.81 507.09,-29.82"/>
<polygon fill="green" stroke="green" points="507.85,-33.24 517.08,-28.03 506.62,-26.35 507.85,-33.24"/>
</g>
<!-- node11&#45;&gt;node12 -->
<g id="edge14" class="edge">
<title>node11&#45;&gt;node12</title>
<path fill="none" stroke="black" d="M340.44,-149.98C309.68,-139.48 265.85,-124.51 230.42,-112.42"/>
<polygon fill="black" stroke="black" points="231.26,-109.01 220.67,-109.09 229,-115.64 231.26,-109.01"/>
<text text-anchor="middle" x="240.55" y="-103.25" font-family="Times,serif" font-size="14.00">*1</text>
</g>
<!-- node13 -->
<g id="node13" class="node">
<title>node13</title>
<polygon fill="lightgrey" stroke="black" points="631.59,-109 503.59,-109 503.59,-73 631.59,-73 631.59,-109"/>
<text text-anchor="middle" x="567.59" y="-87.3" font-family="Times,serif" font-size="14.00">#13 LabelNode</text>
</g>
<!-- node13&#45;&gt;node14 -->
<g id="edge17" class="edge">
<title>node13&#45;&gt;node14</title>
<path fill="none" stroke="red" d="M567.59,-72.81C567.59,-64.79 567.59,-55.05 567.59,-46.07"/>
<polygon fill="red" stroke="red" points="571.09,-46.03 567.59,-36.03 564.09,-46.03 571.09,-46.03"/>
</g>
<!-- node10&#45;&gt;node13 -->
<g id="edge19" class="edge">
<title>node10&#45;&gt;node13</title>
<path fill="none" stroke="red" d="M567.59,-145.81C567.59,-137.79 567.59,-128.05 567.59,-119.07"/>
<polygon fill="red" stroke="red" points="571.09,-119.03 567.59,-109.03 564.09,-119.03 571.09,-119.03"/>
</g>
<!-- c0 -->
<!-- c1 -->
<!-- c0&#45;&gt;c1 -->
<g id="edge22" class="edge">
<title>c0&#45;&gt;c1</title>
<path fill="none" stroke="red" d="M954.49,-538C965.7,-538 1023.84,-538 1049.45,-538"/>
<polygon fill="red" stroke="red" points="1049.65,-541.5 1059.65,-538 1049.65,-534.5 1049.65,-541.5"/>
<text text-anchor="middle" x="1007.09" y="-544.8" font-family="Times,serif" font-size="14.00">Control flow</text>
</g>
<!-- c2 -->
<!-- c3 -->
<!-- c2&#45;&gt;c3 -->
<g id="edge23" class="edge">
<title>c2&#45;&gt;c3</title>
<path fill="none" stroke="red" stroke-dasharray="5,2" d="M747.67,-538C764.64,-538 880.8,-538 918.68,-538"/>
<polygon fill="red" stroke="red" points="918.76,-541.5 928.76,-538 918.76,-534.5 918.76,-541.5"/>
<text text-anchor="middle" x="838.09" y="-544.8" font-family="Times,serif" font-size="14.00">Control flow back edge</text>
</g>
<!-- d0 -->
<!-- d1 -->
<!-- d0&#45;&gt;d1 -->
<g id="edge24" class="edge">
<title>d0&#45;&gt;d1</title>
<path fill="none" stroke="black" d="M636.45,-538C646,-538 689.9,-538 711.51,-538"/>
<polygon fill="black" stroke="black" points="711.75,-541.5 721.75,-538 711.75,-534.5 711.75,-541.5"/>
<text text-anchor="middle" x="679.09" y="-544.8" font-family="Times,serif" font-size="14.00">Data flow</text>
</g>
<!-- d2 -->
<!-- d3 -->
<!-- d2&#45;&gt;d3 -->
<g id="edge25" class="edge">
<title>d2&#45;&gt;d3</title>
<path fill="none" stroke="black" stroke-dasharray="1,5" d="M510.4,-538C521.05,-538 576.06,-538 600.67,-538"/>
<polygon fill="black" stroke="black" points="600.74,-541.5 610.74,-538 600.74,-534.5 600.74,-541.5"/>
<text text-anchor="middle" x="560.59" y="-544.8" font-family="Times,serif" font-size="14.00">Declaration</text>
</g>
<!-- d4 -->
<!-- d5 -->
<!-- d4&#45;&gt;d5 -->
<g id="edge26" class="edge">
<title>d4&#45;&gt;d5</title>
<path fill="none" stroke="blue" d="M367.69,-538C380.32,-538 446.47,-538 474.27,-538"/>
<polygon fill="blue" stroke="blue" points="474.44,-541.5 484.44,-538 474.44,-534.5 474.44,-541.5"/>
<text text-anchor="middle" x="426.09" y="-544.8" font-family="Times,serif" font-size="14.00">PHI Data flow</text>
</g>
<!-- d6 -->
<!-- d7 -->
<!-- d6&#45;&gt;d7 -->
<g id="edge27" class="edge">
<title>d6&#45;&gt;d7</title>
<path fill="none" stroke="green" d="M230.59,-538C242.53,-538 304.89,-538 331.52,-538"/>
<polygon fill="green" stroke="green" points="331.54,-541.5 341.54,-538 331.54,-534.5 331.54,-541.5"/>
<text text-anchor="middle" x="286.09" y="-544.8" font-family="Times,serif" font-size="14.00">Memory flow</text>
</g>
</g>
</svg>
