<?xml version="1.0" encoding="UTF-8" standalone="no"?>
<!DOCTYPE svg PUBLIC "-//W3C//DTD SVG 1.1//EN"
 "http://www.w3.org/Graphics/SVG/1.1/DTD/svg11.dtd">
<!-- Generated by graphviz version 2.43.0 (0)
 -->
<!-- Title: %3 Pages: 1 -->
<svg width="1327pt" height="733pt"
 viewBox="0.00 0.00 1326.56 732.80" xmlns="http://www.w3.org/2000/svg" xmlns:xlink="http://www.w3.org/1999/xlink">
<g id="graph0" class="graph" transform="scale(1 1) rotate(0) translate(4 728.8)">
<title>%3</title>
<polygon fill="white" stroke="transparent" points="-4,4 -4,-728.8 1322.56,-728.8 1322.56,4 -4,4"/>
<g id="clust1" class="cluster">
<title>cluster_0</title>
<polygon fill="none" stroke="lightgray" points="69.56,-284 69.56,-409 261.56,-409 261.56,-284 69.56,-284"/>
</g>
<g id="clust2" class="cluster">
<title>cluster_1</title>
<polygon fill="none" stroke="lightgray" points="9.56,-430 9.56,-555 303.56,-555 303.56,-430 9.56,-430"/>
</g>
<g id="clust3" class="cluster">
<title>cluster_2</title>
<polygon fill="none" stroke="lightgray" points="318.56,-503 318.56,-628 454.56,-628 454.56,-503 318.56,-503"/>
</g>
<g id="clust4" class="cluster">
<title>cluster_000</title>
<polygon fill="none" stroke="black" points="457.56,-674.2 457.56,-716.8 1310.56,-716.8 1310.56,-674.2 457.56,-674.2"/>
<text text-anchor="middle" x="884.06" y="-701.6" font-family="Times,serif" font-size="14.00">Legend</text>
</g>
<!-- node0 -->
<g id="node1" class="node">
<title>node0</title>
<polygon fill="lightgrey" stroke="transparent" points="448.06,-711 325.06,-711 325.06,-657 448.06,-657 448.06,-711"/>
<polygon fill="none" stroke="black" points="325.56,-684 325.56,-711 448.56,-711 448.56,-684 325.56,-684"/>
<text text-anchor="start" x="346.56" y="-693.8" font-family="Times,serif" font-size="14.00">#0 Method</text>
<polygon fill="yellow" stroke="transparent" points="325.56,-657 325.56,-684 448.56,-684 448.56,-657 325.56,-657"/>
<polygon fill="none" stroke="black" points="325.56,-657 325.56,-684 448.56,-684 448.56,-657 325.56,-657"/>
<text text-anchor="start" x="331.56" y="-666.8" font-family="Times,serif" font-size="14.00">this : ArrayTest</text>
</g>
<!-- node2 -->
<g id="node2" class="node">
<title>node2</title>
<polygon fill="lightgrey" stroke="black" points="446.06,-620 327.06,-620 327.06,-584 446.06,-584 446.06,-620"/>
<text text-anchor="middle" x="386.56" y="-598.3" font-family="Times,serif" font-size="14.00">#2 LabelNode</text>
</g>
<!-- node0&#45;&gt;node2 -->
<g id="edge1" class="edge">
<title>node0&#45;&gt;node2</title>
<path fill="none" stroke="red" d="M386.56,-656.81C386.56,-648.35 386.56,-638.95 386.56,-630.4"/>
<polygon fill="red" stroke="red" points="390.06,-630.17 386.56,-620.17 383.06,-630.17 390.06,-630.17"/>
</g>
<!-- node5 -->
<g id="node6" class="node">
<title>node5</title>
<polygon fill="orange" stroke="black" points="553.25,-448.54 553.25,-463.46 483.14,-474 383.99,-474 313.87,-463.46 313.87,-448.54 383.99,-438 483.14,-438 553.25,-448.54"/>
<text text-anchor="middle" x="433.56" y="-452.3" font-family="Times,serif" font-size="14.00">#5 NewArray : float[]</text>
</g>
<!-- node0&#45;&gt;node5 -->
<g id="edge10" class="edge">
<title>node0&#45;&gt;node5</title>
<path fill="none" stroke="green" d="M433.95,-656.75C443.86,-648.88 452.98,-639.28 458.56,-628 483.19,-578.2 472.25,-556.84 458.56,-503 456.82,-496.13 453.82,-489.19 450.49,-482.84"/>
<polygon fill="green" stroke="green" points="453.48,-481.01 445.48,-474.06 447.39,-484.48 453.48,-481.01"/>
</g>
<!-- node3 -->
<g id="node3" class="node">
<title>node3</title>
<polygon fill="lightgrey" stroke="black" points="204.06,-547 85.06,-547 85.06,-511 204.06,-511 204.06,-547"/>
<text text-anchor="middle" x="144.56" y="-525.3" font-family="Times,serif" font-size="14.00">#3 LabelNode</text>
</g>
<!-- node2&#45;&gt;node3 -->
<g id="edge2" class="edge">
<title>node2&#45;&gt;node3</title>
<path fill="none" stroke="red" d="M328.6,-583.99C293.68,-573.75 249.05,-560.66 212.49,-549.93"/>
<polygon fill="red" stroke="red" points="213.47,-546.57 202.89,-547.11 211.5,-553.29 213.47,-546.57"/>
</g>
<!-- node4 -->
<g id="node8" class="node">
<title>node4</title>
<polygon fill="lightgreen" stroke="black" points="445.75,-521.54 445.75,-536.46 411.08,-547 362.05,-547 327.37,-536.46 327.37,-521.54 362.05,-511 411.08,-511 445.75,-521.54"/>
<text text-anchor="middle" x="386.56" y="-525.3" font-family="Times,serif" font-size="14.00">#4 int 10</text>
</g>
<!-- node2&#45;&gt;node4 -->
<g id="edge11" class="edge">
<title>node2&#45;&gt;node4</title>
<path fill="none" stroke="black" stroke-dasharray="1,5" d="M386.56,-583.81C386.56,-575.79 386.56,-566.05 386.56,-557.07"/>
<polygon fill="black" stroke="black" points="390.06,-557.03 386.56,-547.03 383.06,-557.03 390.06,-557.03"/>
</g>
<!-- node6 -->
<g id="node4" class="node">
<title>node6</title>
<polygon fill="lightgreen" stroke="black" points="295.83,-448.54 295.83,-463.46 250.57,-474 186.56,-474 141.29,-463.46 141.29,-448.54 186.56,-438 250.57,-438 295.83,-448.54"/>
<text text-anchor="middle" x="218.56" y="-452.3" font-family="Times,serif" font-size="14.00">#6 float 10.0</text>
</g>
<!-- node3&#45;&gt;node6 -->
<g id="edge3" class="edge">
<title>node3&#45;&gt;node6</title>
<path fill="none" stroke="black" stroke-dasharray="1,5" d="M162.47,-510.81C171.75,-501.92 183.22,-490.91 193.37,-481.17"/>
<polygon fill="black" stroke="black" points="196.02,-483.48 200.81,-474.03 191.17,-478.43 196.02,-483.48"/>
</g>
<!-- node8 -->
<g id="node5" class="node">
<title>node8</title>
<polygon fill="lightgrey" stroke="black" points="253.56,-401 77.56,-401 77.56,-365 253.56,-365 253.56,-401"/>
<text text-anchor="middle" x="165.56" y="-379.3" font-family="Times,serif" font-size="14.00">#8 ArrayStore : float[]</text>
</g>
<!-- node3&#45;&gt;node8 -->
<g id="edge8" class="edge">
<title>node3&#45;&gt;node8</title>
<path fill="none" stroke="red" d="M85.04,-519.92C56.9,-512.78 25.76,-499.33 8.56,-474 -2.42,-457.82 -3.16,-445.65 8.56,-430 16.68,-419.17 40.5,-410.03 67.22,-402.82"/>
<polygon fill="red" stroke="red" points="68.37,-406.14 77.17,-400.25 66.62,-399.36 68.37,-406.14"/>
</g>
<!-- node7 -->
<g id="node7" class="node">
<title>node7</title>
<polygon fill="lightgreen" stroke="black" points="123.09,-448.54 123.09,-463.46 92.32,-474 48.81,-474 18.04,-463.46 18.04,-448.54 48.81,-438 92.32,-438 123.09,-448.54"/>
<text text-anchor="middle" x="70.56" y="-452.3" font-family="Times,serif" font-size="14.00">#7 int 0</text>
</g>
<!-- node3&#45;&gt;node7 -->
<g id="edge22" class="edge">
<title>node3&#45;&gt;node7</title>
<path fill="none" stroke="black" stroke-dasharray="1,5" d="M126.65,-510.81C117.38,-501.92 105.9,-490.91 95.75,-481.17"/>
<polygon fill="black" stroke="black" points="97.95,-478.43 88.31,-474.03 93.1,-483.48 97.95,-478.43"/>
</g>
<!-- node6&#45;&gt;node8 -->
<g id="edge6" class="edge">
<title>node6&#45;&gt;node8</title>
<path fill="none" stroke="black" d="M205.73,-437.81C199.35,-429.27 191.52,-418.77 184.46,-409.32"/>
<polygon fill="black" stroke="black" points="187.06,-406.95 178.27,-401.03 181.45,-411.14 187.06,-406.95"/>
<text text-anchor="middle" x="195.89" y="-406.8" font-family="Times,serif" font-size="14.00">*2</text>
</g>
<!-- node11 -->
<g id="node10" class="node">
<title>node11</title>
<polygon fill="lightgrey" stroke="black" points="216.56,-255 46.56,-255 46.56,-219 216.56,-219 216.56,-255"/>
<text text-anchor="middle" x="131.56" y="-233.3" font-family="Times,serif" font-size="14.00">#11 ArrayLoad : float</text>
</g>
<!-- node8&#45;&gt;node11 -->
<g id="edge15" class="edge">
<title>node8&#45;&gt;node11</title>
<path fill="none" stroke="green" d="M140.69,-364.62C131.26,-354.74 121.97,-341.64 117.56,-328 110.93,-307.49 112.88,-283 117.5,-264.75"/>
<polygon fill="green" stroke="green" points="120.89,-265.64 120.4,-255.05 114.18,-263.64 120.89,-265.64"/>
</g>
<!-- node8&#45;&gt;node11 -->
<g id="edge16" class="edge">
<title>node8&#45;&gt;node11</title>
<path fill="none" stroke="red" d="M156.64,-364.62C149.26,-354.74 139.97,-341.64 135.56,-328 128.99,-307.68 130.85,-283.45 132.65,-265.26"/>
<polygon fill="red" stroke="red" points="136.16,-265.35 133.66,-255.05 129.19,-264.66 136.16,-265.35"/>
</g>
<!-- node10 -->
<g id="node11" class="node">
<title>node10</title>
<polygon fill="lightgreen" stroke="black" points="253.75,-302.54 253.75,-317.46 219.08,-328 170.05,-328 135.37,-317.46 135.37,-302.54 170.05,-292 219.08,-292 253.75,-302.54"/>
<text text-anchor="middle" x="194.56" y="-306.3" font-family="Times,serif" font-size="14.00">#10 int 1</text>
</g>
<!-- node8&#45;&gt;node10 -->
<g id="edge17" class="edge">
<title>node8&#45;&gt;node10</title>
<path fill="none" stroke="black" stroke-dasharray="1,5" d="M172.58,-364.81C175.93,-356.62 180.01,-346.62 183.74,-337.48"/>
<polygon fill="black" stroke="black" points="187.07,-338.61 187.61,-328.03 180.58,-335.96 187.07,-338.61"/>
</g>
<!-- node5&#45;&gt;node8 -->
<g id="edge4" class="edge">
<title>node5&#45;&gt;node8</title>
<path fill="none" stroke="black" d="M370.75,-439.86C329.76,-429.34 276.29,-415.22 234.19,-403.8"/>
<polygon fill="black" stroke="black" points="234.86,-400.36 224.29,-401.11 233.03,-407.11 234.86,-400.36"/>
<text text-anchor="middle" x="244" y="-394.01" font-family="Times,serif" font-size="14.00">*0</text>
</g>
<!-- node5&#45;&gt;node8 -->
<g id="edge7" class="edge">
<title>node5&#45;&gt;node8</title>
<path fill="none" stroke="green" d="M378.18,-438.8C339.95,-428.36 288.57,-414.72 245.87,-403.66"/>
<polygon fill="green" stroke="green" points="246.61,-400.23 236.06,-401.12 244.86,-407.01 246.61,-400.23"/>
</g>
<!-- node9 -->
<g id="node9" class="node">
<title>node9</title>
<polygon fill="orange" stroke="black" points="457.28,-375.54 457.28,-390.46 402.97,-401 326.15,-401 271.84,-390.46 271.84,-375.54 326.15,-365 402.97,-365 457.28,-375.54"/>
<text text-anchor="middle" x="364.56" y="-379.3" font-family="Times,serif" font-size="14.00">#9 ArrayLength</text>
</g>
<!-- node5&#45;&gt;node9 -->
<g id="edge12" class="edge">
<title>node5&#45;&gt;node9</title>
<path fill="none" stroke="black" d="M416.86,-437.81C408.3,-429 397.73,-418.13 388.33,-408.46"/>
<polygon fill="black" stroke="black" points="390.59,-405.76 381.11,-401.03 385.57,-410.64 390.59,-405.76"/>
<text text-anchor="middle" x="399.81" y="-404.44" font-family="Times,serif" font-size="14.00">*0</text>
</g>
<!-- node5&#45;&gt;node11 -->
<g id="edge13" class="edge">
<title>node5&#45;&gt;node11</title>
<path fill="none" stroke="black" d="M448.66,-437.94C463.56,-418.94 482.02,-387.9 466.56,-365 413.74,-286.77 305.82,-256.66 226.69,-245.11"/>
<polygon fill="black" stroke="black" points="227.08,-241.63 216.7,-243.73 226.12,-248.57 227.08,-241.63"/>
<text text-anchor="middle" x="235.81" y="-234.14" font-family="Times,serif" font-size="14.00">*0</text>
</g>
<!-- node7&#45;&gt;node8 -->
<g id="edge5" class="edge">
<title>node7&#45;&gt;node8</title>
<path fill="none" stroke="black" d="M93.08,-438.17C105.43,-428.94 120.95,-417.34 134.45,-407.25"/>
<polygon fill="black" stroke="black" points="136.63,-409.99 142.55,-401.2 132.44,-404.38 136.63,-409.99"/>
<text text-anchor="middle" x="133.09" y="-415.12" font-family="Times,serif" font-size="14.00">*1</text>
</g>
<!-- node4&#45;&gt;node5 -->
<g id="edge9" class="edge">
<title>node4&#45;&gt;node5</title>
<path fill="none" stroke="black" d="M397.94,-510.81C403.54,-502.35 410.4,-491.98 416.61,-482.61"/>
<polygon fill="black" stroke="black" points="419.69,-484.3 422.29,-474.03 413.85,-480.44 419.69,-484.3"/>
<text text-anchor="middle" x="419.33" y="-490.11" font-family="Times,serif" font-size="14.00">*0</text>
</g>
<!-- node12 -->
<g id="node12" class="node">
<title>node12</title>
<polygon fill="lightgrey" stroke="black" points="195.56,-182 67.56,-182 67.56,-146 195.56,-146 195.56,-182"/>
<text text-anchor="middle" x="131.56" y="-160.3" font-family="Times,serif" font-size="14.00">#12 LabelNode</text>
</g>
<!-- node11&#45;&gt;node12 -->
<g id="edge18" class="edge">
<title>node11&#45;&gt;node12</title>
<path fill="none" stroke="red" d="M131.56,-218.81C131.56,-210.79 131.56,-201.05 131.56,-192.07"/>
<polygon fill="red" stroke="red" points="135.06,-192.03 131.56,-182.03 128.06,-192.03 135.06,-192.03"/>
</g>
<!-- node14 -->
<g id="node14" class="node">
<title>node14</title>
<polygon fill="lightgrey" stroke="black" points="182.06,-36 81.06,-36 81.06,0 182.06,0 182.06,-36"/>
<text text-anchor="middle" x="131.56" y="-14.3" font-family="Times,serif" font-size="14.00">#14 Return</text>
</g>
<!-- node11&#45;&gt;node14 -->
<g id="edge21" class="edge">
<title>node11&#45;&gt;node14</title>
<path fill="none" stroke="green" d="M167.33,-218.93C181.65,-210.07 196.61,-197.77 204.56,-182 226.37,-138.74 226.37,-116.26 204.56,-73 198.17,-60.31 187.23,-49.87 175.73,-41.66"/>
<polygon fill="green" stroke="green" points="177.59,-38.69 167.33,-36.07 173.72,-44.52 177.59,-38.69"/>
</g>
<!-- node10&#45;&gt;node11 -->
<g id="edge14" class="edge">
<title>node10&#45;&gt;node11</title>
<path fill="none" stroke="black" d="M179.31,-291.81C171.57,-283.09 162.03,-272.34 153.52,-262.75"/>
<polygon fill="black" stroke="black" points="155.93,-260.19 146.67,-255.03 150.69,-264.83 155.93,-260.19"/>
<text text-anchor="middle" x="165.02" y="-259.28" font-family="Times,serif" font-size="14.00">*1</text>
</g>
<!-- node13 -->
<g id="node13" class="node">
<title>node13</title>
<polygon fill="lightgrey" stroke="black" points="195.56,-109 67.56,-109 67.56,-73 195.56,-73 195.56,-109"/>
<text text-anchor="middle" x="131.56" y="-87.3" font-family="Times,serif" font-size="14.00">#13 LabelNode</text>
</g>
<!-- node12&#45;&gt;node13 -->
<g id="edge19" class="edge">
<title>node12&#45;&gt;node13</title>
<path fill="none" stroke="red" d="M131.56,-145.81C131.56,-137.79 131.56,-128.05 131.56,-119.07"/>
<polygon fill="red" stroke="red" points="135.06,-119.03 131.56,-109.03 128.06,-119.03 135.06,-119.03"/>
</g>
<!-- node13&#45;&gt;node14 -->
<g id="edge20" class="edge">
<title>node13&#45;&gt;node14</title>
<path fill="none" stroke="red" d="M131.56,-72.81C131.56,-64.79 131.56,-55.05 131.56,-46.07"/>
<polygon fill="red" stroke="red" points="135.06,-46.03 131.56,-36.03 128.06,-46.03 135.06,-46.03"/>
</g>
<!-- c0 -->
<!-- c1 -->
<!-- c0&#45;&gt;c1 -->
<g id="edge23" class="edge">
<title>c0&#45;&gt;c1</title>
<path fill="none" stroke="red" d="M1193.45,-684C1204.67,-684 1262.8,-684 1288.42,-684"/>
<polygon fill="red" stroke="red" points="1288.62,-687.5 1298.62,-684 1288.62,-680.5 1288.62,-687.5"/>
<text text-anchor="middle" x="1246.06" y="-690.8" font-family="Times,serif" font-size="14.00">Control flow</text>
</g>
<!-- c2 -->
<!-- c3 -->
<!-- c2&#45;&gt;c3 -->
<g id="edge24" class="edge">
<title>c2&#45;&gt;c3</title>
<path fill="none" stroke="red" stroke-dasharray="5,2" d="M986.64,-684C1003.61,-684 1119.77,-684 1157.65,-684"/>
<polygon fill="red" stroke="red" points="1157.73,-687.5 1167.73,-684 1157.73,-680.5 1157.73,-687.5"/>
<text text-anchor="middle" x="1077.06" y="-690.8" font-family="Times,serif" font-size="14.00">Control flow back edge</text>
</g>
<!-- d0 -->
<!-- d1 -->
<!-- d0&#45;&gt;d1 -->
<g id="edge25" class="edge">
<title>d0&#45;&gt;d1</title>
<path fill="none" stroke="black" d="M875.42,-684C884.97,-684 928.87,-684 950.48,-684"/>
<polygon fill="black" stroke="black" points="950.71,-687.5 960.71,-684 950.71,-680.5 950.71,-687.5"/>
<text text-anchor="middle" x="918.06" y="-690.8" font-family="Times,serif" font-size="14.00">Data flow</text>
</g>
<!-- d2 -->
<!-- d3 -->
<!-- d2&#45;&gt;d3 -->
<g id="edge26" class="edge">
<title>d2&#45;&gt;d3</title>
<path fill="none" stroke="black" stroke-dasharray="1,5" d="M749.37,-684C760.02,-684 815.03,-684 839.64,-684"/>
<polygon fill="black" stroke="black" points="839.71,-687.5 849.71,-684 839.71,-680.5 839.71,-687.5"/>
<text text-anchor="middle" x="799.56" y="-690.8" font-family="Times,serif" font-size="14.00">Declaration</text>
</g>
<!-- d4 -->
<!-- d5 -->
<!-- d4&#45;&gt;d5 -->
<g id="edge27" class="edge">
<title>d4&#45;&gt;d5</title>
<path fill="none" stroke="blue" d="M606.66,-684C619.28,-684 685.44,-684 713.24,-684"/>
<polygon fill="blue" stroke="blue" points="713.4,-687.5 723.4,-684 713.4,-680.5 713.4,-687.5"/>
<text text-anchor="middle" x="665.06" y="-690.8" font-family="Times,serif" font-size="14.00">PHI Data flow</text>
</g>
<!-- d6 -->
<!-- d7 -->
<!-- d6&#45;&gt;d7 -->
<g id="edge28" class="edge">
<title>d6&#45;&gt;d7</title>
<path fill="none" stroke="green" d="M469.56,-684C481.5,-684 543.86,-684 570.49,-684"/>
<polygon fill="green" stroke="green" points="570.51,-687.5 580.51,-684 570.51,-680.5 570.51,-687.5"/>
<text text-anchor="middle" x="525.06" y="-690.8" font-family="Times,serif" font-size="14.00">Memory flow</text>
</g>
</g>
</svg>
