<?xml version="1.0" encoding="UTF-8" standalone="no"?>
<!DOCTYPE svg PUBLIC "-//W3C//DTD SVG 1.1//EN"
 "http://www.w3.org/Graphics/SVG/1.1/DTD/svg11.dtd">
<!-- Generated by graphviz version 2.43.0 (0)
 -->
<!-- Title: debugoutput Pages: 1 -->
<svg width="1818pt" height="578pt"
 viewBox="0.00 0.00 1818.00 577.80" xmlns="http://www.w3.org/2000/svg" xmlns:xlink="http://www.w3.org/1999/xlink">
<g id="graph0" class="graph" transform="scale(1 1) rotate(0) translate(4 573.8)">
<title>debugoutput</title>
<polygon fill="white" stroke="transparent" points="-4,4 -4,-573.8 1814,-573.8 1814,4 -4,4"/>
<g id="clust1" class="cluster">
<title>cluster_000</title>
<polygon fill="none" stroke="black" points="963,-519.2 963,-561.8 1802,-561.8 1802,-519.2 963,-519.2"/>
<text text-anchor="middle" x="1382.5" y="-546.6" font-family="Times,serif" font-size="14.00">Legend</text>
</g>
<!-- node0 -->
<g id="node1" class="node">
<title>node0</title>
<polygon fill="lightgrey" stroke="black" points="953,-547 787,-547 787,-511 953,-511 953,-547"/>
<text text-anchor="middle" x="870" y="-525.3" font-family="Times,serif" font-size="14.00">#0 Method Order : 0</text>
</g>
<!-- node1 -->
<g id="node2" class="node">
<title>node1</title>
<polygon fill="lightgrey" stroke="black" points="230,-474 0,-474 0,-438 230,-438 230,-474"/>
<text text-anchor="middle" x="115" y="-452.3" font-family="Times,serif" font-size="14.00">#1 this : ArrayTest Order : 14</text>
</g>
<!-- node0&#45;&gt;node1 -->
<g id="edge2" class="edge">
<title>node0&#45;&gt;node1</title>
<path fill="none" stroke="black" d="M786.9,-522.65C666.58,-514.28 436.94,-496.75 239.64,-475.07"/>
<polygon fill="black" stroke="black" points="240,-471.58 229.68,-473.96 239.23,-478.54 240,-471.58"/>
<text text-anchor="middle" x="248.62" y="-463.86" font-family="Times,serif" font-size="14.00">*0</text>
</g>
<!-- node2 -->
<g id="node3" class="node">
<title>node2</title>
<polygon fill="lightgrey" stroke="black" points="964,-474 776,-474 776,-438 964,-438 964,-474"/>
<text text-anchor="middle" x="870" y="-452.3" font-family="Times,serif" font-size="14.00">#2 LabelNode Order : 7</text>
</g>
<!-- node0&#45;&gt;node2 -->
<g id="edge4" class="edge">
<title>node0&#45;&gt;node2</title>
<path fill="none" stroke="red" d="M864.12,-510.81C863.28,-502.79 863.05,-493.05 863.42,-484.07"/>
<polygon fill="red" stroke="red" points="866.92,-484.25 864.14,-474.03 859.94,-483.75 866.92,-484.25"/>
</g>
<!-- node3 -->
<g id="node4" class="node">
<title>node3</title>
<polygon fill="lightgreen" stroke="black" points="719.85,-448.54 719.85,-463.46 646.13,-474 541.87,-474 468.15,-463.46 468.15,-448.54 541.87,-438 646.13,-438 719.85,-448.54"/>
<text text-anchor="middle" x="594" y="-452.3" font-family="Times,serif" font-size="14.00">#3 float 10.0 Order : 4</text>
</g>
<!-- node0&#45;&gt;node3 -->
<g id="edge6" class="edge">
<title>node0&#45;&gt;node3</title>
<path fill="none" stroke="black" stroke-dasharray="1,5" d="M798.03,-510.99C755.72,-500.4 702.61,-486.75 661.15,-475.83"/>
<polygon fill="black" stroke="black" points="661.98,-472.43 651.42,-473.26 660.19,-479.2 661.98,-472.43"/>
</g>
<!-- node4 -->
<g id="node5" class="node">
<title>node4</title>
<polygon fill="lightgreen" stroke="black" points="1253.77,-448.54 1253.77,-463.46 1190.64,-474 1101.36,-474 1038.23,-463.46 1038.23,-448.54 1101.36,-438 1190.64,-438 1253.77,-448.54"/>
<text text-anchor="middle" x="1146" y="-452.3" font-family="Times,serif" font-size="14.00">#4 int 10 Order : 3</text>
</g>
<!-- node0&#45;&gt;node4 -->
<g id="edge8" class="edge">
<title>node0&#45;&gt;node4</title>
<path fill="none" stroke="black" stroke-dasharray="1,5" d="M940.77,-510.97C964.42,-505.54 990.86,-499.3 1015,-493 1036.03,-487.51 1058.92,-480.93 1079.64,-474.89"/>
<polygon fill="black" stroke="black" points="1080.69,-478.23 1089.31,-472.08 1078.73,-471.51 1080.69,-478.23"/>
</g>
<!-- node5 -->
<g id="node6" class="node">
<title>node5</title>
<polygon fill="orange" stroke="black" points="1318.27,-375.54 1318.27,-390.46 1219.7,-401 1080.3,-401 981.73,-390.46 981.73,-375.54 1080.3,-365 1219.7,-365 1318.27,-375.54"/>
<text text-anchor="middle" x="1150" y="-379.3" font-family="Times,serif" font-size="14.00">#5 NewArray : float[] Order : 5</text>
</g>
<!-- node0&#45;&gt;node5 -->
<g id="edge11" class="edge">
<title>node0&#45;&gt;node5</title>
<path fill="none" stroke="black" d="M896.43,-510.99C915.51,-500.71 941.49,-487.1 964,-474 989.57,-459.12 993.97,-452.07 1020,-438 1042.22,-425.99 1067.64,-414.35 1090.14,-404.96"/>
<polygon fill="black" stroke="black" points="1091.66,-408.12 1099.59,-401.09 1089.01,-401.65 1091.66,-408.12"/>
</g>
<!-- node6 -->
<g id="node7" class="node">
<title>node6</title>
<polygon fill="lightgreen" stroke="black" points="450.11,-448.54 450.11,-463.46 390.88,-474 307.12,-474 247.89,-463.46 247.89,-448.54 307.12,-438 390.88,-438 450.11,-448.54"/>
<text text-anchor="middle" x="349" y="-452.3" font-family="Times,serif" font-size="14.00">#6 int 0 Order : 2</text>
</g>
<!-- node0&#45;&gt;node6 -->
<g id="edge13" class="edge">
<title>node0&#45;&gt;node6</title>
<path fill="none" stroke="black" stroke-dasharray="1,5" d="M786.77,-518.47C701.82,-508.06 566.48,-490.65 450,-474 442.83,-472.98 435.41,-471.89 427.98,-470.77"/>
<polygon fill="black" stroke="black" points="428.29,-467.28 417.88,-469.25 427.24,-474.2 428.29,-467.28"/>
</g>
<!-- node7 -->
<g id="node8" class="node">
<title>node7</title>
<polygon fill="lightgreen" stroke="black" points="1474.11,-448.54 1474.11,-463.46 1414.88,-474 1331.12,-474 1271.89,-463.46 1271.89,-448.54 1331.12,-438 1414.88,-438 1474.11,-448.54"/>
<text text-anchor="middle" x="1373" y="-452.3" font-family="Times,serif" font-size="14.00">#7 int 1 Order : 1</text>
</g>
<!-- node0&#45;&gt;node7 -->
<g id="edge15" class="edge">
<title>node0&#45;&gt;node7</title>
<path fill="none" stroke="black" stroke-dasharray="1,5" d="M950.39,-510.94C1084.55,-490 1119.3,-492.6 1254,-474 1264.41,-472.56 1275.35,-470.97 1286.23,-469.35"/>
<polygon fill="black" stroke="black" points="1286.8,-472.8 1296.18,-467.86 1285.77,-465.88 1286.8,-472.8"/>
</g>
<!-- node1&#45;&gt;node0 -->
<g id="edge1" class="edge">
<title>node1&#45;&gt;node0</title>
<path fill="none" stroke="green" stroke-width="2" d="M230.15,-471.92C236.19,-472.65 242.17,-473.35 248,-474 435.46,-494.86 655.04,-512.01 776.8,-521.06"/>
<polygon fill="green" stroke="green" stroke-width="2" points="776.6,-524.55 786.83,-521.8 777.12,-517.57 776.6,-524.55"/>
</g>
<!-- node2&#45;&gt;node0 -->
<g id="edge3" class="edge">
<title>node2&#45;&gt;node0</title>
<path fill="none" stroke="green" stroke-width="2" d="M875.86,-474.03C876.71,-482.03 876.95,-491.77 876.59,-500.75"/>
<polygon fill="green" stroke="green" stroke-width="2" points="873.09,-500.59 875.88,-510.81 880.07,-501.08 873.09,-500.59"/>
</g>
<!-- node8 -->
<g id="node9" class="node">
<title>node8</title>
<polygon fill="lightgrey" stroke="black" points="964,-401 776,-401 776,-365 964,-365 964,-401"/>
<text text-anchor="middle" x="870" y="-379.3" font-family="Times,serif" font-size="14.00">#8 LabelNode Order : 8</text>
</g>
<!-- node2&#45;&gt;node8 -->
<g id="edge17" class="edge">
<title>node2&#45;&gt;node8</title>
<path fill="none" stroke="red" d="M864.12,-437.81C863.28,-429.79 863.05,-420.05 863.42,-411.07"/>
<polygon fill="red" stroke="red" points="866.92,-411.25 864.14,-401.03 859.94,-410.75 866.92,-411.25"/>
</g>
<!-- node3&#45;&gt;node0 -->
<g id="edge5" class="edge">
<title>node3&#45;&gt;node0</title>
<path fill="none" stroke="green" stroke-width="2" d="M659.12,-472.3C701.46,-482.86 756.57,-497 799.86,-508.39"/>
<polygon fill="green" stroke="green" stroke-width="2" points="799.19,-511.83 809.75,-510.99 800.97,-505.06 799.19,-511.83"/>
</g>
<!-- node9 -->
<g id="node10" class="node">
<title>node9</title>
<polygon fill="lightgrey" stroke="black" points="992.5,-328 747.5,-328 747.5,-292 992.5,-292 992.5,-328"/>
<text text-anchor="middle" x="870" y="-306.3" font-family="Times,serif" font-size="14.00">#9 ArrayStore : float[] Order : 9</text>
</g>
<!-- node3&#45;&gt;node9 -->
<g id="edge21" class="edge">
<title>node3&#45;&gt;node9</title>
<path fill="none" stroke="black" d="M610.95,-437.95C635.78,-413.92 684.51,-370.32 734,-346 745.97,-340.12 759.04,-335.15 772.19,-330.98"/>
<polygon fill="black" stroke="black" points="773.21,-334.32 781.76,-328.07 771.18,-327.62 773.21,-334.32"/>
<text text-anchor="middle" x="766.87" y="-337.72" font-family="Times,serif" font-size="14.00">*2</text>
</g>
<!-- node4&#45;&gt;node0 -->
<g id="edge7" class="edge">
<title>node4&#45;&gt;node0</title>
<path fill="none" stroke="green" stroke-width="2" d="M1099.94,-473.87C1079.52,-480.17 1055.22,-487.2 1033,-493 1010.48,-498.87 985.97,-504.7 962.93,-509.87"/>
<polygon fill="green" stroke="green" stroke-width="2" points="962.16,-506.45 953.15,-512.04 963.68,-513.28 962.16,-506.45"/>
</g>
<!-- node4&#45;&gt;node5 -->
<g id="edge10" class="edge">
<title>node4&#45;&gt;node5</title>
<path fill="none" stroke="black" d="M1146.97,-437.81C1147.42,-429.79 1147.97,-420.05 1148.47,-411.07"/>
<polygon fill="black" stroke="black" points="1151.97,-411.21 1149.04,-401.03 1144.98,-410.82 1151.97,-411.21"/>
<text text-anchor="middle" x="1156.46" y="-415.9" font-family="Times,serif" font-size="14.00">*0</text>
</g>
<!-- node5&#45;&gt;node0 -->
<g id="edge9" class="edge">
<title>node5&#45;&gt;node0</title>
<path fill="none" stroke="green" stroke-width="2" d="M1115.47,-401.09C1092.97,-411.03 1063.4,-424.27 1038,-438 1011.97,-452.07 1007.57,-459.12 982,-474 962.57,-485.31 940.55,-497 921.13,-506.6"/>
<polygon fill="green" stroke="green" stroke-width="2" points="919.58,-503.46 912.12,-510.99 922.65,-509.75 919.58,-503.46"/>
</g>
<!-- node5&#45;&gt;node9 -->
<g id="edge19" class="edge">
<title>node5&#45;&gt;node9</title>
<path fill="none" stroke="black" d="M1073.81,-365.68C1049.47,-359.87 1022.53,-353.22 998,-347 977.52,-341.8 955.35,-336.04 935.27,-330.67"/>
<polygon fill="black" stroke="black" points="936.17,-327.29 925.6,-328.07 934.35,-334.05 936.17,-327.29"/>
<text text-anchor="middle" x="945.3" y="-320.91" font-family="Times,serif" font-size="14.00">*0</text>
</g>
<!-- node5&#45;&gt;node9 -->
<g id="edge22" class="edge">
<title>node5&#45;&gt;node9</title>
<path fill="none" stroke="black" d="M1087.93,-364.97C1065.3,-359.33 1039.54,-352.97 1016,-347 995.42,-341.78 973.14,-335.98 952.31,-330.6"/>
<polygon fill="black" stroke="black" points="953.08,-327.18 942.53,-328.07 951.33,-333.96 953.08,-327.18"/>
</g>
<!-- node10 -->
<g id="node11" class="node">
<title>node10</title>
<polygon fill="orange" stroke="black" points="1344.97,-302.54 1344.97,-317.46 1258.29,-328 1135.71,-328 1049.03,-317.46 1049.03,-302.54 1135.71,-292 1258.29,-292 1344.97,-302.54"/>
<text text-anchor="middle" x="1197" y="-306.3" font-family="Times,serif" font-size="14.00">#10 ArrayLength Order : 6</text>
</g>
<!-- node5&#45;&gt;node10 -->
<g id="edge25" class="edge">
<title>node5&#45;&gt;node10</title>
<path fill="none" stroke="black" d="M1155.5,-364.81C1160.26,-356.27 1167,-345.77 1173.74,-336.32"/>
<polygon fill="black" stroke="black" points="1176.74,-338.15 1179.87,-328.03 1171.11,-333.99 1176.74,-338.15"/>
<text text-anchor="middle" x="1175.9" y="-343.93" font-family="Times,serif" font-size="14.00">*0</text>
</g>
<!-- node11 -->
<g id="node12" class="node">
<title>node11</title>
<polygon fill="lightgrey" stroke="black" points="1145,-255 897,-255 897,-219 1145,-219 1145,-255"/>
<text text-anchor="middle" x="1021" y="-233.3" font-family="Times,serif" font-size="14.00">#11 ArrayLoad : float Order : 10</text>
</g>
<!-- node5&#45;&gt;node11 -->
<g id="edge27" class="edge">
<title>node5&#45;&gt;node11</title>
<path fill="none" stroke="black" d="M1091.8,-364.99C1072.71,-356.7 1053.06,-344.79 1040,-328 1026.1,-310.13 1021.77,-284.46 1020.67,-265.1"/>
<polygon fill="black" stroke="black" points="1024.17,-264.97 1020.35,-255.09 1017.17,-265.19 1024.17,-264.97"/>
<text text-anchor="middle" x="1029.37" y="-269.24" font-family="Times,serif" font-size="14.00">*0</text>
</g>
<!-- node6&#45;&gt;node0 -->
<g id="edge12" class="edge">
<title>node6&#45;&gt;node0</title>
<path fill="none" stroke="green" stroke-width="2" d="M426.14,-467.81C440.11,-469.92 454.51,-472.07 468,-474 573.73,-489.11 694.99,-504.85 776.5,-515.41"/>
<polygon fill="green" stroke="green" stroke-width="2" points="776.36,-518.92 786.73,-516.74 777.26,-511.98 776.36,-518.92"/>
</g>
<!-- node6&#45;&gt;node9 -->
<g id="edge20" class="edge">
<title>node6&#45;&gt;node9</title>
<path fill="none" stroke="black" d="M398.41,-439.32C457.68,-420.71 560.19,-389.15 649,-365 694.16,-352.72 744.87,-340.23 786.31,-330.37"/>
<polygon fill="black" stroke="black" points="787.17,-333.76 796.09,-328.05 785.55,-326.95 787.17,-333.76"/>
<text text-anchor="middle" x="780.4" y="-336.76" font-family="Times,serif" font-size="14.00">*1</text>
</g>
<!-- node7&#45;&gt;node0 -->
<g id="edge14" class="edge">
<title>node7&#45;&gt;node0</title>
<path fill="none" stroke="green" stroke-width="2" d="M1304.43,-469.29C1293.61,-470.93 1282.53,-472.55 1272,-474 1137.17,-492.62 1102.48,-490 968,-511 966.49,-511.24 964.98,-511.48 963.45,-511.72"/>
<polygon fill="green" stroke="green" stroke-width="2" points="962.51,-508.33 953.22,-513.43 963.66,-515.24 962.51,-508.33"/>
</g>
<!-- node7&#45;&gt;node11 -->
<g id="edge28" class="edge">
<title>node7&#45;&gt;node11</title>
<path fill="none" stroke="black" d="M1376.92,-437.98C1383.41,-404.96 1392.2,-331.95 1354,-292 1326.68,-263.43 1235.6,-249.98 1155.58,-243.64"/>
<polygon fill="black" stroke="black" points="1155.62,-240.13 1145.38,-242.87 1155.09,-247.11 1155.62,-240.13"/>
<text text-anchor="middle" x="1164.1" y="-232.11" font-family="Times,serif" font-size="14.00">*1</text>
</g>
<!-- node8&#45;&gt;node2 -->
<g id="edge16" class="edge">
<title>node8&#45;&gt;node2</title>
<path fill="none" stroke="green" stroke-width="2" d="M875.86,-401.03C876.71,-409.03 876.95,-418.77 876.59,-427.75"/>
<polygon fill="green" stroke="green" stroke-width="2" points="873.09,-427.59 875.88,-437.81 880.07,-428.08 873.09,-427.59"/>
</g>
<!-- node8&#45;&gt;node9 -->
<g id="edge23" class="edge">
<title>node8&#45;&gt;node9</title>
<path fill="none" stroke="red" d="M870,-364.81C870,-356.79 870,-347.05 870,-338.07"/>
<polygon fill="red" stroke="red" points="873.5,-338.03 870,-328.03 866.5,-338.03 873.5,-338.03"/>
</g>
<!-- node9&#45;&gt;node0 -->
<g id="edge18" class="edge">
<title>node9&#45;&gt;node0</title>
<path fill="none" stroke="green" stroke-width="2" d="M812.16,-328.1C794.56,-336.31 777.19,-348.16 767,-365 741.93,-406.45 741.93,-432.55 767,-474 775.44,-487.95 788.8,-498.47 803.14,-506.34"/>
<polygon fill="green" stroke="green" stroke-width="2" points="801.65,-509.51 812.16,-510.9 804.81,-503.27 801.65,-509.51"/>
</g>
<!-- node9&#45;&gt;node11 -->
<g id="edge29" class="edge">
<title>node9&#45;&gt;node11</title>
<path fill="none" stroke="black" d="M900.31,-291.99C920.13,-282.19 946.41,-269.77 969.43,-259.31"/>
<polygon fill="black" stroke="black" points="971.06,-262.42 978.73,-255.11 968.18,-256.04 971.06,-262.42"/>
</g>
<!-- node9&#45;&gt;node11 -->
<g id="edge30" class="edge">
<title>node9&#45;&gt;node11</title>
<path fill="none" stroke="red" d="M912.03,-291.99C933.73,-282.27 960,-269.99 981.35,-259.59"/>
<polygon fill="red" stroke="red" points="983.04,-262.66 990.47,-255.11 979.95,-256.38 983.04,-262.66"/>
</g>
<!-- node10&#45;&gt;node5 -->
<g id="edge24" class="edge">
<title>node10&#45;&gt;node5</title>
<path fill="none" stroke="green" stroke-width="2" d="M1191.59,-328.03C1186.85,-336.55 1180.12,-347.04 1173.39,-356.5"/>
<polygon fill="green" stroke="green" stroke-width="2" points="1170.37,-354.69 1167.26,-364.81 1176.01,-358.84 1170.37,-354.69"/>
</g>
<!-- node11&#45;&gt;node0 -->
<g id="edge26" class="edge">
<title>node11&#45;&gt;node0</title>
<path fill="none" stroke="green" stroke-width="2" d="M1145.18,-244.37C1287.7,-253.39 1502,-272.94 1502,-309 1502,-457 1502,-457 1502,-457 1502,-515.14 1057.92,-504.22 963.47,-510.82"/>
<polygon fill="green" stroke="green" stroke-width="2" points="962.96,-507.36 953.33,-511.77 963.61,-514.33 962.96,-507.36"/>
</g>
<!-- node12 -->
<g id="node13" class="node">
<title>node12</title>
<polygon fill="lightgrey" stroke="black" points="1054,-182 848,-182 848,-146 1054,-146 1054,-182"/>
<text text-anchor="middle" x="951" y="-160.3" font-family="Times,serif" font-size="14.00">#12 LabelNode Order : 11</text>
</g>
<!-- node11&#45;&gt;node12 -->
<g id="edge32" class="edge">
<title>node11&#45;&gt;node12</title>
<path fill="none" stroke="red" d="M998.18,-218.81C988.57,-210 977.65,-199.13 968.66,-189.46"/>
<polygon fill="red" stroke="red" points="971.24,-187.09 961.93,-182.03 966.05,-191.79 971.24,-187.09"/>
</g>
<!-- node14 -->
<g id="node15" class="node">
<title>node14</title>
<polygon fill="lightgrey" stroke="black" points="1180.5,-36 1001.5,-36 1001.5,0 1180.5,0 1180.5,-36"/>
<text text-anchor="middle" x="1091" y="-14.3" font-family="Times,serif" font-size="14.00">#14 Return Order : 13</text>
</g>
<!-- node11&#45;&gt;node14 -->
<g id="edge37" class="edge">
<title>node11&#45;&gt;node14</title>
<path fill="none" stroke="black" d="M1029.89,-218.96C1037.69,-208.99 1047.96,-195.69 1054,-182 1073.77,-137.2 1079.63,-79.75 1083.99,-46.39"/>
<polygon fill="black" stroke="black" points="1087.46,-46.84 1085.37,-36.45 1080.53,-45.87 1087.46,-46.84"/>
</g>
<!-- node12&#45;&gt;node11 -->
<g id="edge31" class="edge">
<title>node12&#45;&gt;node11</title>
<path fill="none" stroke="green" stroke-width="2" d="M973.65,-182.03C983.24,-190.81 994.16,-201.69 1003.18,-211.37"/>
<polygon fill="green" stroke="green" stroke-width="2" points="1000.62,-213.76 1009.93,-218.81 1005.8,-209.06 1000.62,-213.76"/>
</g>
<!-- node13 -->
<g id="node14" class="node">
<title>node13</title>
<polygon fill="lightgrey" stroke="black" points="1054,-109 848,-109 848,-73 1054,-73 1054,-109"/>
<text text-anchor="middle" x="951" y="-87.3" font-family="Times,serif" font-size="14.00">#13 LabelNode Order : 12</text>
</g>
<!-- node12&#45;&gt;node13 -->
<g id="edge34" class="edge">
<title>node12&#45;&gt;node13</title>
<path fill="none" stroke="red" d="M945.12,-145.81C944.28,-137.79 944.05,-128.05 944.42,-119.07"/>
<polygon fill="red" stroke="red" points="947.92,-119.25 945.14,-109.03 940.94,-118.75 947.92,-119.25"/>
</g>
<!-- node13&#45;&gt;node12 -->
<g id="edge33" class="edge">
<title>node13&#45;&gt;node12</title>
<path fill="none" stroke="green" stroke-width="2" d="M956.86,-109.03C957.71,-117.03 957.95,-126.77 957.59,-135.75"/>
<polygon fill="green" stroke="green" stroke-width="2" points="954.09,-135.59 956.88,-145.81 961.07,-136.08 954.09,-135.59"/>
</g>
<!-- node13&#45;&gt;node14 -->
<g id="edge36" class="edge">
<title>node13&#45;&gt;node14</title>
<path fill="none" stroke="red" d="M984.53,-72.99C1003.61,-63.32 1027.71,-51.1 1048.15,-40.73"/>
<polygon fill="red" stroke="red" points="1049.92,-43.76 1057.25,-36.11 1046.75,-37.52 1049.92,-43.76"/>
</g>
<!-- node14&#45;&gt;node11 -->
<g id="edge35" class="edge">
<title>node14&#45;&gt;node11</title>
<path fill="none" stroke="green" stroke-width="2" d="M1096.13,-36.45C1098.73,-67.17 1093.91,-132.35 1072,-182 1067.37,-192.48 1060.27,-202.73 1052.73,-211.44"/>
<polygon fill="green" stroke="green" stroke-width="2" points="1049.99,-209.25 1045.75,-218.96 1055.12,-214.01 1049.99,-209.25"/>
</g>
<!-- c0 -->
<!-- c1 -->
<!-- c0&#45;&gt;c1 -->
<g id="edge38" class="edge">
<title>c0&#45;&gt;c1</title>
<path fill="none" stroke="red" d="M1684.89,-529C1696.11,-529 1754.24,-529 1779.86,-529"/>
<polygon fill="red" stroke="red" points="1780.06,-532.5 1790.06,-529 1780.06,-525.5 1780.06,-532.5"/>
<text text-anchor="middle" x="1737.5" y="-535.8" font-family="Times,serif" font-size="14.00">Control flow</text>
</g>
<!-- c2 -->
<!-- c3 -->
<!-- c2&#45;&gt;c3 -->
<g id="edge39" class="edge">
<title>c2&#45;&gt;c3</title>
<path fill="none" stroke="red" stroke-dasharray="5,2" d="M1478.08,-529C1495.05,-529 1611.21,-529 1649.08,-529"/>
<polygon fill="red" stroke="red" points="1649.17,-532.5 1659.17,-529 1649.17,-525.5 1649.17,-532.5"/>
<text text-anchor="middle" x="1568.5" y="-535.8" font-family="Times,serif" font-size="14.00">Control flow back edge</text>
</g>
<!-- d0 -->
<!-- d1 -->
<!-- d0&#45;&gt;d1 -->
<g id="edge40" class="edge">
<title>d0&#45;&gt;d1</title>
<path fill="none" stroke="black" d="M1366.86,-529C1376.41,-529 1420.31,-529 1441.92,-529"/>
<polygon fill="black" stroke="black" points="1442.15,-532.5 1452.15,-529 1442.15,-525.5 1442.15,-532.5"/>
<text text-anchor="middle" x="1409.5" y="-535.8" font-family="Times,serif" font-size="14.00">Data flow</text>
</g>
<!-- d2 -->
<!-- d3 -->
<!-- d2&#45;&gt;d3 -->
<g id="edge41" class="edge">
<title>d2&#45;&gt;d3</title>
<path fill="none" stroke="black" stroke-dasharray="1,5" d="M1240.81,-529C1251.46,-529 1306.46,-529 1331.08,-529"/>
<polygon fill="black" stroke="black" points="1331.15,-532.5 1341.15,-529 1331.15,-525.5 1331.15,-532.5"/>
<text text-anchor="middle" x="1291" y="-535.8" font-family="Times,serif" font-size="14.00">Declaration</text>
</g>
<!-- d4 -->
<!-- d5 -->
<!-- d4&#45;&gt;d5 -->
<g id="edge42" class="edge">
<title>d4&#45;&gt;d5</title>
<path fill="none" stroke="blue" d="M1098.1,-529C1110.72,-529 1176.88,-529 1204.68,-529"/>
<polygon fill="blue" stroke="blue" points="1204.84,-532.5 1214.84,-529 1204.84,-525.5 1204.84,-532.5"/>
<text text-anchor="middle" x="1156.5" y="-535.8" font-family="Times,serif" font-size="14.00">PHI Data flow</text>
</g>
<!-- d6 -->
<!-- d7 -->
<!-- d6&#45;&gt;d7 -->
<g id="edge43" class="edge">
<title>d6&#45;&gt;d7</title>
<path fill="none" stroke="green" d="M975.11,-529C986.15,-529 1037.67,-529 1061.66,-529"/>
<polygon fill="green" stroke="green" points="1061.9,-532.5 1071.9,-529 1061.9,-525.5 1061.9,-532.5"/>
<text text-anchor="middle" x="1023.5" y="-535.8" font-family="Times,serif" font-size="14.00">Dominance</text>
</g>
</g>
</svg>
