<?xml version="1.0" encoding="UTF-8" standalone="no"?>
<!DOCTYPE svg PUBLIC "-//W3C//DTD SVG 1.1//EN"
 "http://www.w3.org/Graphics/SVG/1.1/DTD/svg11.dtd">
<!-- Generated by graphviz version 2.43.0 (0)
 -->
<!-- Title: debugoutput Pages: 1 -->
<svg width="1810pt" height="724pt"
 viewBox="0.00 0.00 1810.13 723.80" xmlns="http://www.w3.org/2000/svg" xmlns:xlink="http://www.w3.org/1999/xlink">
<g id="graph0" class="graph" transform="scale(1 1) rotate(0) translate(4 719.8)">
<title>debugoutput</title>
<polygon fill="white" stroke="transparent" points="-4,4 -4,-719.8 1806.13,-719.8 1806.13,4 -4,4"/>
<g id="clust1" class="cluster">
<title>cluster_000</title>
<polygon fill="none" stroke="black" points="818.13,-665.2 818.13,-707.8 1794.13,-707.8 1794.13,-665.2 818.13,-665.2"/>
<text text-anchor="middle" x="1306.13" y="-692.6" font-family="Times,serif" font-size="14.00">Legend</text>
</g>
<!-- node0 -->
<g id="node1" class="node">
<title>node0</title>
<polygon fill="lightgrey" stroke="black" points="808.13,-693 642.13,-693 642.13,-657 808.13,-657 808.13,-693"/>
<text text-anchor="middle" x="725.13" y="-671.3" font-family="Times,serif" font-size="14.00">#0 Method Order : 0</text>
</g>
<!-- node1 -->
<g id="node2" class="node">
<title>node1</title>
<polygon fill="lightgrey" stroke="black" points="557.13,-620 327.13,-620 327.13,-584 557.13,-584 557.13,-620"/>
<text text-anchor="middle" x="442.13" y="-598.3" font-family="Times,serif" font-size="14.00">#1 this : ArrayTest Order : 14</text>
</g>
<!-- node0&#45;&gt;node1 -->
<g id="edge2" class="edge">
<title>node0&#45;&gt;node1</title>
<path fill="none" stroke="black" d="M651.49,-656.99C609.22,-646.66 556.4,-633.43 514.37,-622.66"/>
<polygon fill="black" stroke="black" points="515.03,-619.21 504.48,-620.11 513.29,-625.99 515.03,-619.21"/>
<text text-anchor="middle" x="524.14" y="-612.74" font-family="Times,serif" font-size="14.00">*0</text>
</g>
<!-- node2 -->
<g id="node3" class="node">
<title>node2</title>
<polygon fill="lightgrey" stroke="black" points="819.13,-620 631.13,-620 631.13,-584 819.13,-584 819.13,-620"/>
<text text-anchor="middle" x="725.13" y="-598.3" font-family="Times,serif" font-size="14.00">#2 LabelNode Order : 1</text>
</g>
<!-- node0&#45;&gt;node2 -->
<g id="edge4" class="edge">
<title>node0&#45;&gt;node2</title>
<path fill="none" stroke="red" d="M719.26,-656.81C718.42,-648.79 718.18,-639.05 718.56,-630.07"/>
<polygon fill="red" stroke="red" points="722.05,-630.25 719.27,-620.03 715.07,-629.75 722.05,-630.25"/>
</g>
<!-- node5 -->
<g id="node6" class="node">
<title>node5</title>
<polygon fill="orange" stroke="black" points="336.4,-448.54 336.4,-463.46 237.83,-474 98.44,-474 -0.13,-463.46 -0.13,-448.54 98.44,-438 237.83,-438 336.4,-448.54"/>
<text text-anchor="middle" x="168.13" y="-452.3" font-family="Times,serif" font-size="14.00">#5 NewArray : float[] Order : 3</text>
</g>
<!-- node0&#45;&gt;node5 -->
<g id="edge11" class="edge">
<title>node0&#45;&gt;node5</title>
<path fill="none" stroke="green" d="M683.01,-656.99C661.62,-646.71 635.65,-633.1 613.13,-620 587.56,-605.12 584.52,-595.2 557.13,-584 482.34,-553.42 456.41,-570.62 379.13,-547 317.13,-528.05 248.37,-498.46 206.58,-478.43"/>
<polygon fill="green" stroke="green" points="208.1,-475.27 197.57,-474.06 205.04,-481.57 208.1,-475.27"/>
</g>
<!-- node1&#45;&gt;node0 -->
<g id="edge1" class="edge">
<title>node1&#45;&gt;node0</title>
<path fill="none" stroke="fuchsia" stroke-width="2" d="M515.97,-620.05C558.35,-630.41 611.28,-643.67 653.32,-654.45"/>
<polygon fill="fuchsia" stroke="fuchsia" stroke-width="2" points="652.65,-657.89 663.21,-656.99 654.39,-651.11 652.65,-657.89"/>
</g>
<!-- node2&#45;&gt;node0 -->
<g id="edge3" class="edge">
<title>node2&#45;&gt;node0</title>
<path fill="none" stroke="fuchsia" stroke-width="2" d="M731,-620.03C731.84,-628.03 732.08,-637.77 731.72,-646.75"/>
<polygon fill="fuchsia" stroke="fuchsia" stroke-width="2" points="728.22,-646.59 731.01,-656.81 735.21,-647.08 728.22,-646.59"/>
</g>
<!-- node3 -->
<g id="node4" class="node">
<title>node3</title>
<polygon fill="lightgrey" stroke="black" points="819.13,-547 631.13,-547 631.13,-511 819.13,-511 819.13,-547"/>
<text text-anchor="middle" x="725.13" y="-525.3" font-family="Times,serif" font-size="14.00">#3 LabelNode Order : 5</text>
</g>
<!-- node2&#45;&gt;node3 -->
<g id="edge6" class="edge">
<title>node2&#45;&gt;node3</title>
<path fill="none" stroke="red" d="M719.26,-583.81C718.42,-575.79 718.18,-566.05 718.56,-557.07"/>
<polygon fill="red" stroke="red" points="722.05,-557.25 719.27,-547.03 715.07,-556.75 722.05,-557.25"/>
</g>
<!-- node4 -->
<g id="node5" class="node">
<title>node4</title>
<polygon fill="lightgreen" stroke="black" points="612.9,-521.54 612.9,-536.46 549.77,-547 460.5,-547 397.37,-536.46 397.37,-521.54 460.5,-511 549.77,-511 612.9,-521.54"/>
<text text-anchor="middle" x="505.13" y="-525.3" font-family="Times,serif" font-size="14.00">#4 int 10 Order : 2</text>
</g>
<!-- node2&#45;&gt;node4 -->
<g id="edge8" class="edge">
<title>node2&#45;&gt;node4</title>
<path fill="none" stroke="black" stroke-dasharray="1,5" d="M666.58,-583.99C633.93,-573.81 593.54,-560.8 561.29,-550.11"/>
<polygon fill="black" stroke="black" points="562.15,-546.71 551.56,-546.87 559.94,-553.35 562.15,-546.71"/>
</g>
<!-- node3&#45;&gt;node2 -->
<g id="edge5" class="edge">
<title>node3&#45;&gt;node2</title>
<path fill="none" stroke="fuchsia" stroke-width="2" d="M731,-547.03C731.84,-555.03 732.08,-564.77 731.72,-573.75"/>
<polygon fill="fuchsia" stroke="fuchsia" stroke-width="2" points="728.22,-573.59 731.01,-583.81 735.21,-574.08 728.22,-573.59"/>
</g>
<!-- node6 -->
<g id="node7" class="node">
<title>node6</title>
<polygon fill="lightgreen" stroke="black" points="605.99,-448.54 605.99,-463.46 532.26,-474 428.01,-474 354.28,-463.46 354.28,-448.54 428.01,-438 532.26,-438 605.99,-448.54"/>
<text text-anchor="middle" x="480.13" y="-452.3" font-family="Times,serif" font-size="14.00">#6 float 10.0 Order : 7</text>
</g>
<!-- node3&#45;&gt;node6 -->
<g id="edge13" class="edge">
<title>node3&#45;&gt;node6</title>
<path fill="none" stroke="black" stroke-dasharray="1,5" d="M660.59,-510.99C624.18,-500.76 578.94,-487.67 542.83,-476.95"/>
<polygon fill="black" stroke="black" points="543.49,-473.49 532.91,-473.99 541.49,-480.2 543.49,-473.49"/>
</g>
<!-- node7 -->
<g id="node8" class="node">
<title>node7</title>
<polygon fill="lightgreen" stroke="black" points="826.24,-448.54 826.24,-463.46 767.01,-474 683.26,-474 624.03,-463.46 624.03,-448.54 683.26,-438 767.01,-438 826.24,-448.54"/>
<text text-anchor="middle" x="725.13" y="-452.3" font-family="Times,serif" font-size="14.00">#7 int 0 Order : 6</text>
</g>
<!-- node3&#45;&gt;node7 -->
<g id="edge15" class="edge">
<title>node3&#45;&gt;node7</title>
<path fill="none" stroke="black" stroke-dasharray="1,5" d="M719.26,-510.81C718.42,-502.79 718.18,-493.05 718.56,-484.07"/>
<polygon fill="black" stroke="black" points="722.05,-484.25 719.27,-474.03 715.07,-483.75 722.05,-484.25"/>
</g>
<!-- node8 -->
<g id="node9" class="node">
<title>node8</title>
<polygon fill="lightgrey" stroke="black" points="847.63,-401 602.63,-401 602.63,-365 847.63,-365 847.63,-401"/>
<text text-anchor="middle" x="725.13" y="-379.3" font-family="Times,serif" font-size="14.00">#8 ArrayStore : float[] Order : 8</text>
</g>
<!-- node3&#45;&gt;node8 -->
<g id="edge21" class="edge">
<title>node3&#45;&gt;node8</title>
<path fill="none" stroke="red" d="M788.83,-510.89C806.92,-502.76 824.56,-490.97 835.13,-474 843.6,-460.42 843.6,-451.58 835.13,-438 826.38,-423.94 812.77,-413.44 798.08,-405.64"/>
<polygon fill="red" stroke="red" points="799.35,-402.36 788.83,-401.11 796.28,-408.65 799.35,-402.36"/>
</g>
<!-- node4&#45;&gt;node2 -->
<g id="edge7" class="edge">
<title>node4&#45;&gt;node2</title>
<path fill="none" stroke="fuchsia" stroke-width="2" d="M558.96,-545.53C592.24,-555.88 634.81,-569.57 668.58,-580.76"/>
<polygon fill="fuchsia" stroke="fuchsia" stroke-width="2" points="667.7,-584.16 678.3,-583.99 669.92,-577.52 667.7,-584.16"/>
</g>
<!-- node4&#45;&gt;node5 -->
<g id="edge10" class="edge">
<title>node4&#45;&gt;node5</title>
<path fill="none" stroke="black" d="M440.16,-514.31C387.54,-503.23 312.94,-487.51 255.17,-475.34"/>
<polygon fill="black" stroke="black" points="255.82,-471.9 245.32,-473.26 254.38,-478.75 255.82,-471.9"/>
<text text-anchor="middle" x="264.8" y="-465.03" font-family="Times,serif" font-size="14.00">*0</text>
</g>
<!-- node5&#45;&gt;node0 -->
<g id="edge9" class="edge">
<title>node5&#45;&gt;node0</title>
<path fill="none" stroke="fuchsia" stroke-width="2" d="M210.39,-474.06C255.93,-493.92 330.44,-526.61 397.13,-547 474.41,-570.62 500.34,-553.42 575.13,-584 602.52,-595.2 605.56,-605.12 631.13,-620 650.3,-631.16 671.99,-642.68 689.79,-652.21"/>
<polygon fill="fuchsia" stroke="fuchsia" stroke-width="2" points="688.24,-655.35 698.71,-656.99 691.55,-649.18 688.24,-655.35"/>
</g>
<!-- node5&#45;&gt;node8 -->
<g id="edge17" class="edge">
<title>node5&#45;&gt;node8</title>
<path fill="none" stroke="black" d="M284.85,-442.96C362.67,-435.14 457.74,-425.41 498.13,-420 534.97,-415.06 575.15,-408.7 611.36,-402.71"/>
<polygon fill="black" stroke="black" points="612.17,-406.12 621.46,-401.03 611.02,-399.22 612.17,-406.12"/>
<text text-anchor="middle" x="604.96" y="-408.64" font-family="Times,serif" font-size="14.00">*0</text>
</g>
<!-- node5&#45;&gt;node8 -->
<g id="edge20" class="edge">
<title>node5&#45;&gt;node8</title>
<path fill="none" stroke="green" d="M291.76,-443.76C374.05,-435.81 474.35,-425.6 516.13,-420 552.81,-415.08 592.81,-408.76 627.93,-402.79"/>
<polygon fill="green" stroke="green" points="628.91,-406.17 638.18,-401.03 627.73,-399.27 628.91,-406.17"/>
</g>
<!-- node9 -->
<g id="node10" class="node">
<title>node9</title>
<polygon fill="orange" stroke="black" points="309.44,-375.54 309.44,-390.46 226.66,-401 109.6,-401 26.83,-390.46 26.83,-375.54 109.6,-365 226.66,-365 309.44,-375.54"/>
<text text-anchor="middle" x="168.13" y="-379.3" font-family="Times,serif" font-size="14.00">#9 ArrayLength Order : 4</text>
</g>
<!-- node5&#45;&gt;node9 -->
<g id="edge23" class="edge">
<title>node5&#45;&gt;node9</title>
<path fill="none" stroke="black" d="M162.26,-437.81C161.42,-429.79 161.18,-420.05 161.56,-411.07"/>
<polygon fill="black" stroke="black" points="165.05,-411.25 162.27,-401.03 158.07,-410.75 165.05,-411.25"/>
<text text-anchor="middle" x="169.41" y="-416.01" font-family="Times,serif" font-size="14.00">*0</text>
</g>
<!-- node11 -->
<g id="node12" class="node">
<title>node11</title>
<polygon fill="lightgrey" stroke="black" points="939.13,-255 691.13,-255 691.13,-219 939.13,-219 939.13,-255"/>
<text text-anchor="middle" x="815.13" y="-233.3" font-family="Times,serif" font-size="14.00">#11 ArrayLoad : float Order : 10</text>
</g>
<!-- node5&#45;&gt;node11 -->
<g id="edge27" class="edge">
<title>node5&#45;&gt;node11</title>
<path fill="none" stroke="black" d="M216.16,-437.9C245.63,-427.37 284.11,-413.52 318.13,-401 447.36,-353.46 476.89,-333.66 608.13,-292 648.59,-279.16 694.18,-267.02 732.26,-257.52"/>
<polygon fill="black" stroke="black" points="733.41,-260.84 742.28,-255.03 731.73,-254.04 733.41,-260.84"/>
<text text-anchor="middle" x="726.72" y="-263.9" font-family="Times,serif" font-size="14.00">*0</text>
</g>
<!-- node6&#45;&gt;node3 -->
<g id="edge12" class="edge">
<title>node6&#45;&gt;node3</title>
<path fill="none" stroke="fuchsia" stroke-width="2" d="M540.72,-472.89C577.8,-483.29 625.08,-496.96 662.52,-508.08"/>
<polygon fill="fuchsia" stroke="fuchsia" stroke-width="2" points="661.73,-511.49 672.31,-510.99 663.73,-504.78 661.73,-511.49"/>
</g>
<!-- node6&#45;&gt;node8 -->
<g id="edge19" class="edge">
<title>node6&#45;&gt;node8</title>
<path fill="none" stroke="black" d="M536.65,-438.62C572.32,-428.28 618.64,-414.86 656.43,-403.91"/>
<polygon fill="black" stroke="black" points="657.72,-407.18 666.35,-401.04 655.77,-400.46 657.72,-407.18"/>
<text text-anchor="middle" x="651.29" y="-410.5" font-family="Times,serif" font-size="14.00">*2</text>
</g>
<!-- node7&#45;&gt;node3 -->
<g id="edge14" class="edge">
<title>node7&#45;&gt;node3</title>
<path fill="none" stroke="fuchsia" stroke-width="2" d="M731,-474.03C731.84,-482.03 732.08,-491.77 731.72,-500.75"/>
<polygon fill="fuchsia" stroke="fuchsia" stroke-width="2" points="728.22,-500.59 731.01,-510.81 735.21,-501.08 728.22,-500.59"/>
</g>
<!-- node7&#45;&gt;node8 -->
<g id="edge18" class="edge">
<title>node7&#45;&gt;node8</title>
<path fill="none" stroke="black" d="M725.13,-437.81C725.13,-429.79 725.13,-420.05 725.13,-411.07"/>
<polygon fill="black" stroke="black" points="728.63,-411.03 725.13,-401.03 721.63,-411.03 728.63,-411.03"/>
<text text-anchor="middle" x="733.59" y="-415.45" font-family="Times,serif" font-size="14.00">*1</text>
</g>
<!-- node8&#45;&gt;node0 -->
<g id="edge16" class="edge">
<title>node8&#45;&gt;node0</title>
<path fill="none" stroke="fuchsia" stroke-width="2" d="M847.82,-400.32C873.07,-410.81 892.13,-427.75 892.13,-455 892.13,-603 892.13,-603 892.13,-603 892.13,-623.39 849.45,-641.31 807.25,-654.04"/>
<polygon fill="fuchsia" stroke="fuchsia" stroke-width="2" points="806.02,-650.75 797.41,-656.92 807.99,-657.47 806.02,-650.75"/>
</g>
<!-- node10 -->
<g id="node11" class="node">
<title>node10</title>
<polygon fill="lightgreen" stroke="black" points="832.9,-302.54 832.9,-317.46 769.77,-328 680.5,-328 617.37,-317.46 617.37,-302.54 680.5,-292 769.77,-292 832.9,-302.54"/>
<text text-anchor="middle" x="725.13" y="-306.3" font-family="Times,serif" font-size="14.00">#10 int 1 Order : 9</text>
</g>
<!-- node8&#45;&gt;node10 -->
<g id="edge25" class="edge">
<title>node8&#45;&gt;node10</title>
<path fill="none" stroke="black" stroke-dasharray="1,5" d="M719.26,-364.81C718.42,-356.79 718.18,-347.05 718.56,-338.07"/>
<polygon fill="black" stroke="black" points="722.05,-338.25 719.27,-328.03 715.07,-337.75 722.05,-338.25"/>
</g>
<!-- node8&#45;&gt;node11 -->
<g id="edge29" class="edge">
<title>node8&#45;&gt;node11</title>
<path fill="none" stroke="green" d="M786.02,-364.99C804.21,-356.93 822.16,-345.15 833.13,-328 845.62,-308.49 835.95,-282.93 826.39,-264.04"/>
<polygon fill="green" stroke="green" points="829.43,-262.3 821.66,-255.09 823.24,-265.57 829.43,-262.3"/>
</g>
<!-- node8&#45;&gt;node11 -->
<g id="edge30" class="edge">
<title>node8&#45;&gt;node11</title>
<path fill="none" stroke="red" d="M803.22,-364.99C822.21,-356.93 840.16,-345.15 851.13,-328 863.79,-308.22 853.68,-282.23 840.8,-263.26"/>
<polygon fill="red" stroke="red" points="843.52,-261.05 834.76,-255.09 837.89,-265.21 843.52,-261.05"/>
</g>
<!-- node9&#45;&gt;node5 -->
<g id="edge22" class="edge">
<title>node9&#45;&gt;node5</title>
<path fill="none" stroke="fuchsia" stroke-width="2" d="M174,-401.03C174.84,-409.03 175.08,-418.77 174.72,-427.75"/>
<polygon fill="fuchsia" stroke="fuchsia" stroke-width="2" points="171.22,-427.59 174.01,-437.81 178.21,-428.08 171.22,-427.59"/>
</g>
<!-- node10&#45;&gt;node8 -->
<g id="edge24" class="edge">
<title>node10&#45;&gt;node8</title>
<path fill="none" stroke="fuchsia" stroke-width="2" d="M731,-328.03C731.84,-336.03 732.08,-345.77 731.72,-354.75"/>
<polygon fill="fuchsia" stroke="fuchsia" stroke-width="2" points="728.22,-354.59 731.01,-364.81 735.21,-355.08 728.22,-354.59"/>
</g>
<!-- node10&#45;&gt;node11 -->
<g id="edge28" class="edge">
<title>node10&#45;&gt;node11</title>
<path fill="none" stroke="black" d="M746.92,-291.81C758.53,-282.66 772.97,-271.26 785.58,-261.32"/>
<polygon fill="black" stroke="black" points="787.87,-263.97 793.55,-255.03 783.53,-258.47 787.87,-263.97"/>
<text text-anchor="middle" x="784.55" y="-269.19" font-family="Times,serif" font-size="14.00">*1</text>
</g>
<!-- node11&#45;&gt;node0 -->
<g id="edge26" class="edge">
<title>node11&#45;&gt;node0</title>
<path fill="none" stroke="fuchsia" stroke-width="2" d="M883.03,-255.03C907.93,-265.7 930.13,-282.6 930.13,-309 930.13,-603 930.13,-603 930.13,-603 930.13,-617.94 914.19,-612.73 901.13,-620 885.33,-628.8 882.03,-632.54 865.13,-639 849.92,-644.82 833.41,-649.94 817.23,-654.34"/>
<polygon fill="fuchsia" stroke="fuchsia" stroke-width="2" points="816,-651.05 807.22,-656.99 817.79,-657.81 816,-651.05"/>
</g>
<!-- node12 -->
<g id="node13" class="node">
<title>node12</title>
<polygon fill="lightgrey" stroke="black" points="918.13,-182 712.13,-182 712.13,-146 918.13,-146 918.13,-182"/>
<text text-anchor="middle" x="815.13" y="-160.3" font-family="Times,serif" font-size="14.00">#12 LabelNode Order : 11</text>
</g>
<!-- node11&#45;&gt;node12 -->
<g id="edge32" class="edge">
<title>node11&#45;&gt;node12</title>
<path fill="none" stroke="red" d="M809.26,-218.81C808.42,-210.79 808.18,-201.05 808.56,-192.07"/>
<polygon fill="red" stroke="red" points="812.05,-192.25 809.27,-182.03 805.07,-191.75 812.05,-192.25"/>
</g>
<!-- node14 -->
<g id="node15" class="node">
<title>node14</title>
<polygon fill="lightgrey" stroke="black" points="974.63,-36 795.63,-36 795.63,0 974.63,0 974.63,-36"/>
<text text-anchor="middle" x="885.13" y="-14.3" font-family="Times,serif" font-size="14.00">#14 Return Order : 13</text>
</g>
<!-- node11&#45;&gt;node14 -->
<g id="edge37" class="edge">
<title>node11&#45;&gt;node14</title>
<path fill="none" stroke="green" d="M871.98,-218.88C889.76,-210.78 907.46,-199 918.13,-182 943.9,-140.97 933.86,-118.82 918.13,-73 914.55,-62.55 908.03,-52.57 901.61,-44.09"/>
<polygon fill="green" stroke="green" points="904.28,-41.83 895.33,-36.15 898.79,-46.17 904.28,-41.83"/>
</g>
<!-- node12&#45;&gt;node11 -->
<g id="edge31" class="edge">
<title>node12&#45;&gt;node11</title>
<path fill="none" stroke="fuchsia" stroke-width="2" d="M821,-182.03C821.84,-190.03 822.08,-199.77 821.72,-208.75"/>
<polygon fill="fuchsia" stroke="fuchsia" stroke-width="2" points="818.22,-208.59 821.01,-218.81 825.21,-209.08 818.22,-208.59"/>
</g>
<!-- node13 -->
<g id="node14" class="node">
<title>node13</title>
<polygon fill="lightgrey" stroke="black" points="918.13,-109 712.13,-109 712.13,-73 918.13,-73 918.13,-109"/>
<text text-anchor="middle" x="815.13" y="-87.3" font-family="Times,serif" font-size="14.00">#13 LabelNode Order : 12</text>
</g>
<!-- node12&#45;&gt;node13 -->
<g id="edge34" class="edge">
<title>node12&#45;&gt;node13</title>
<path fill="none" stroke="red" d="M809.26,-145.81C808.42,-137.79 808.18,-128.05 808.56,-119.07"/>
<polygon fill="red" stroke="red" points="812.05,-119.25 809.27,-109.03 805.07,-118.75 812.05,-119.25"/>
</g>
<!-- node13&#45;&gt;node12 -->
<g id="edge33" class="edge">
<title>node13&#45;&gt;node12</title>
<path fill="none" stroke="fuchsia" stroke-width="2" d="M821,-109.03C821.84,-117.03 822.08,-126.77 821.72,-135.75"/>
<polygon fill="fuchsia" stroke="fuchsia" stroke-width="2" points="818.22,-135.59 821.01,-145.81 825.21,-136.08 818.22,-135.59"/>
</g>
<!-- node13&#45;&gt;node14 -->
<g id="edge36" class="edge">
<title>node13&#45;&gt;node14</title>
<path fill="none" stroke="red" d="M832.08,-72.81C840.85,-63.92 851.7,-52.91 861.3,-43.17"/>
<polygon fill="red" stroke="red" points="863.82,-45.61 868.35,-36.03 858.83,-40.69 863.82,-45.61"/>
</g>
<!-- node14&#45;&gt;node11 -->
<g id="edge35" class="edge">
<title>node14&#45;&gt;node11</title>
<path fill="none" stroke="fuchsia" stroke-width="2" d="M911.28,-36.15C921.35,-45.97 931.36,-59.07 936.13,-73 951.86,-118.82 961.9,-140.97 936.13,-182 927.21,-196.21 913.38,-206.77 898.19,-214.59"/>
<polygon fill="fuchsia" stroke="fuchsia" stroke-width="2" points="896.66,-211.44 889.11,-218.88 899.65,-217.77 896.66,-211.44"/>
</g>
<!-- c0 -->
<!-- c1 -->
<!-- c0&#45;&gt;c1 -->
<g id="edge38" class="edge">
<title>c0&#45;&gt;c1</title>
<path fill="none" stroke="red" d="M1677.03,-675C1688.24,-675 1746.38,-675 1771.99,-675"/>
<polygon fill="red" stroke="red" points="1772.19,-678.5 1782.19,-675 1772.19,-671.5 1772.19,-678.5"/>
<text text-anchor="middle" x="1729.63" y="-681.8" font-family="Times,serif" font-size="14.00">Control flow</text>
</g>
<!-- c2 -->
<!-- c3 -->
<!-- c2&#45;&gt;c3 -->
<g id="edge39" class="edge">
<title>c2&#45;&gt;c3</title>
<path fill="none" stroke="red" stroke-dasharray="5,2" d="M1470.21,-675C1487.18,-675 1603.34,-675 1641.22,-675"/>
<polygon fill="red" stroke="red" points="1641.3,-678.5 1651.3,-675 1641.3,-671.5 1641.3,-678.5"/>
<text text-anchor="middle" x="1560.63" y="-681.8" font-family="Times,serif" font-size="14.00">Control flow back edge</text>
</g>
<!-- d0 -->
<!-- d1 -->
<!-- d0&#45;&gt;d1 -->
<g id="edge40" class="edge">
<title>d0&#45;&gt;d1</title>
<path fill="none" stroke="black" d="M1358.99,-675C1368.54,-675 1412.44,-675 1434.05,-675"/>
<polygon fill="black" stroke="black" points="1434.29,-678.5 1444.29,-675 1434.29,-671.5 1434.29,-678.5"/>
<text text-anchor="middle" x="1401.63" y="-681.8" font-family="Times,serif" font-size="14.00">Data flow</text>
</g>
<!-- d2 -->
<!-- d3 -->
<!-- d2&#45;&gt;d3 -->
<g id="edge41" class="edge">
<title>d2&#45;&gt;d3</title>
<path fill="none" stroke="black" stroke-dasharray="1,5" d="M1232.94,-675C1243.59,-675 1298.6,-675 1323.21,-675"/>
<polygon fill="black" stroke="black" points="1323.28,-678.5 1333.28,-675 1323.28,-671.5 1323.28,-678.5"/>
<text text-anchor="middle" x="1283.13" y="-681.8" font-family="Times,serif" font-size="14.00">Declaration</text>
</g>
<!-- d4 -->
<!-- d5 -->
<!-- d4&#45;&gt;d5 -->
<g id="edge42" class="edge">
<title>d4&#45;&gt;d5</title>
<path fill="none" stroke="blue" d="M1090.23,-675C1102.86,-675 1169.02,-675 1196.81,-675"/>
<polygon fill="blue" stroke="blue" points="1196.98,-678.5 1206.98,-675 1196.98,-671.5 1196.98,-678.5"/>
<text text-anchor="middle" x="1148.63" y="-681.8" font-family="Times,serif" font-size="14.00">PHI Data flow</text>
</g>
<!-- d6 -->
<!-- d7 -->
<!-- d6&#45;&gt;d7 -->
<g id="edge43" class="edge">
<title>d6&#45;&gt;d7</title>
<path fill="none" stroke="green" d="M953.13,-675C965.07,-675 1027.43,-675 1054.06,-675"/>
<polygon fill="green" stroke="green" points="1054.08,-678.5 1064.08,-675 1054.08,-671.5 1054.08,-678.5"/>
<text text-anchor="middle" x="1008.63" y="-681.8" font-family="Times,serif" font-size="14.00">Memory flow</text>
</g>
<!-- d8 -->
<!-- d9 -->
<!-- d8&#45;&gt;d9 -->
<g id="edge44" class="edge">
<title>d8&#45;&gt;d9</title>
<path fill="none" stroke="fuchsia" d="M830.24,-675C841.28,-675 892.8,-675 916.79,-675"/>
<polygon fill="fuchsia" stroke="fuchsia" points="917.04,-678.5 927.04,-675 917.04,-671.5 917.04,-678.5"/>
<text text-anchor="middle" x="878.63" y="-681.8" font-family="Times,serif" font-size="14.00">Dominance</text>
</g>
</g>
</svg>
