<?xml version="1.0" encoding="UTF-8" standalone="no"?>
<!DOCTYPE svg PUBLIC "-//W3C//DTD SVG 1.1//EN"
 "http://www.w3.org/Graphics/SVG/1.1/DTD/svg11.dtd">
<!-- Generated by graphviz version 2.43.0 (0)
 -->
<!-- Title: debugoutput Pages: 1 -->
<svg width="1695pt" height="578pt"
 viewBox="0.00 0.00 1695.00 577.80" xmlns="http://www.w3.org/2000/svg" xmlns:xlink="http://www.w3.org/1999/xlink">
<g id="graph0" class="graph" transform="scale(1 1) rotate(0) translate(4 573.8)">
<title>debugoutput</title>
<polygon fill="white" stroke="transparent" points="-4,4 -4,-573.8 1691,-573.8 1691,4 -4,4"/>
<g id="clust1" class="cluster">
<title>cluster_000</title>
<polygon fill="none" stroke="black" points="840,-519.2 840,-561.8 1679,-561.8 1679,-519.2 840,-519.2"/>
<text text-anchor="middle" x="1259.5" y="-546.6" font-family="Times,serif" font-size="14.00">Legend</text>
</g>
<!-- node0 -->
<g id="node1" class="node">
<title>node0</title>
<polygon fill="lightgrey" stroke="black" points="830,-547 664,-547 664,-511 830,-511 830,-547"/>
<text text-anchor="middle" x="747" y="-525.3" font-family="Times,serif" font-size="14.00">#0 Method Order : 0</text>
</g>
<!-- node1 -->
<g id="node2" class="node">
<title>node1</title>
<polygon fill="lightgrey" stroke="black" points="230,-474 0,-474 0,-438 230,-438 230,-474"/>
<text text-anchor="middle" x="115" y="-452.3" font-family="Times,serif" font-size="14.00">#1 this : ArrayTest Order : 14</text>
</g>
<!-- node0&#45;&gt;node1 -->
<g id="edge2" class="edge">
<title>node0&#45;&gt;node1</title>
<path fill="none" stroke="black" d="M663.68,-520.54C563.57,-510.95 390.52,-493.37 240.01,-475.21"/>
<polygon fill="black" stroke="black" points="240.02,-471.69 229.68,-473.96 239.18,-478.64 240.02,-471.69"/>
<text text-anchor="middle" x="248.69" y="-464.05" font-family="Times,serif" font-size="14.00">*0</text>
</g>
<!-- node2 -->
<g id="node3" class="node">
<title>node2</title>
<polygon fill="lightgrey" stroke="black" points="1266,-474 1078,-474 1078,-438 1266,-438 1266,-474"/>
<text text-anchor="middle" x="1172" y="-452.3" font-family="Times,serif" font-size="14.00">#2 LabelNode Order : 7</text>
</g>
<!-- node0&#45;&gt;node2 -->
<g id="edge4" class="edge">
<title>node0&#45;&gt;node2</title>
<path fill="none" stroke="red" d="M827.3,-510.95C930.34,-492.94 956.6,-490.74 1060,-474 1062.54,-473.59 1065.12,-473.17 1067.73,-472.75"/>
<polygon fill="red" stroke="red" points="1068.57,-476.16 1077.87,-471.09 1067.44,-469.25 1068.57,-476.16"/>
</g>
<!-- node4 -->
<g id="node5" class="node">
<title>node4</title>
<polygon fill="orange" stroke="black" points="681.27,-375.54 681.27,-390.46 582.7,-401 443.3,-401 344.73,-390.46 344.73,-375.54 443.3,-365 582.7,-365 681.27,-375.54"/>
<text text-anchor="middle" x="513" y="-379.3" font-family="Times,serif" font-size="14.00">#4 NewArray : float[] Order : 5</text>
</g>
<!-- node0&#45;&gt;node4 -->
<g id="edge9" class="edge">
<title>node0&#45;&gt;node4</title>
<path fill="none" stroke="black" d="M663.84,-525.77C619.33,-520.62 566.75,-507.21 532,-474 514.95,-457.71 508.23,-431.24 507.21,-411.22"/>
<polygon fill="black" stroke="black" points="510.71,-411.13 507.18,-401.14 503.71,-411.15 510.71,-411.13"/>
</g>
<!-- node14 -->
<g id="node6" class="node">
<title>node14</title>
<polygon fill="lightgreen" stroke="black" points="475.93,-448.54 475.93,-463.46 409.19,-474 314.81,-474 248.07,-463.46 248.07,-448.54 314.81,-438 409.19,-438 475.93,-448.54"/>
<text text-anchor="middle" x="362" y="-452.3" font-family="Times,serif" font-size="14.00">#14 int 10 Order : 1</text>
</g>
<!-- node0&#45;&gt;node14 -->
<g id="edge37" class="edge">
<title>node0&#45;&gt;node14</title>
<path fill="none" stroke="black" stroke-dasharray="1,5" d="M663.85,-520.51C611.01,-514.72 541.51,-505.57 481,-493 460.02,-488.64 437.43,-482.71 417.58,-476.92"/>
<polygon fill="black" stroke="black" points="418.36,-473.5 407.77,-474.01 416.36,-480.21 418.36,-473.5"/>
</g>
<!-- node6 -->
<g id="node8" class="node">
<title>node6</title>
<polygon fill="lightgreen" stroke="black" points="1059.85,-448.54 1059.85,-463.46 986.13,-474 881.87,-474 808.15,-463.46 808.15,-448.54 881.87,-438 986.13,-438 1059.85,-448.54"/>
<text text-anchor="middle" x="934" y="-452.3" font-family="Times,serif" font-size="14.00">#6 float 10.0 Order : 4</text>
</g>
<!-- node0&#45;&gt;node6 -->
<g id="edge13" class="edge">
<title>node0&#45;&gt;node6</title>
<path fill="none" stroke="black" stroke-dasharray="1,5" d="M785.93,-510.99C811.27,-500.97 844.76,-488.21 873.51,-477.62"/>
<polygon fill="black" stroke="black" points="874.87,-480.84 883.06,-474.11 872.46,-474.27 874.87,-480.84"/>
</g>
<!-- node7 -->
<g id="node9" class="node">
<title>node7</title>
<polygon fill="lightgreen" stroke="black" points="1486.11,-448.54 1486.11,-463.46 1426.88,-474 1343.12,-474 1283.89,-463.46 1283.89,-448.54 1343.12,-438 1426.88,-438 1486.11,-448.54"/>
<text text-anchor="middle" x="1385" y="-452.3" font-family="Times,serif" font-size="14.00">#7 int 1 Order : 3</text>
</g>
<!-- node0&#45;&gt;node7 -->
<g id="edge15" class="edge">
<title>node0&#45;&gt;node7</title>
<path fill="none" stroke="black" stroke-dasharray="1,5" d="M827.28,-510.96C1021.03,-484.39 1071.67,-497.18 1266,-474 1276.72,-472.72 1288.01,-471.19 1299.19,-469.58"/>
<polygon fill="black" stroke="black" points="1300.03,-472.99 1309.41,-468.08 1299.01,-466.07 1300.03,-472.99"/>
</g>
<!-- node8 -->
<g id="node10" class="node">
<title>node8</title>
<polygon fill="lightgreen" stroke="black" points="752.11,-448.54 752.11,-463.46 692.88,-474 609.12,-474 549.89,-463.46 549.89,-448.54 609.12,-438 692.88,-438 752.11,-448.54"/>
<text text-anchor="middle" x="651" y="-452.3" font-family="Times,serif" font-size="14.00">#8 int 0 Order : 2</text>
</g>
<!-- node0&#45;&gt;node8 -->
<g id="edge17" class="edge">
<title>node0&#45;&gt;node8</title>
<path fill="none" stroke="black" stroke-dasharray="1,5" d="M718.15,-510.99C704.8,-501.84 689.17,-490.41 676.29,-480.43"/>
<polygon fill="black" stroke="black" points="678.29,-477.55 668.27,-474.11 673.96,-483.05 678.29,-477.55"/>
</g>
<!-- node1&#45;&gt;node0 -->
<g id="edge1" class="edge">
<title>node1&#45;&gt;node0</title>
<path fill="none" stroke="green" stroke-width="2" d="M230.16,-471.77C236.2,-472.54 242.18,-473.29 248,-474 389.51,-491.22 553.58,-508.1 653.87,-518.28"/>
<polygon fill="green" stroke="green" stroke-width="2" points="653.67,-521.78 663.97,-519.31 654.38,-514.82 653.67,-521.78"/>
</g>
<!-- node2&#45;&gt;node0 -->
<g id="edge3" class="edge">
<title>node2&#45;&gt;node0</title>
<path fill="none" stroke="green" stroke-width="2" d="M1077.7,-474.05C974.44,-490.76 948.19,-492.96 845,-511 843.5,-511.26 841.98,-511.53 840.46,-511.8"/>
<polygon fill="green" stroke="green" stroke-width="2" points="839.48,-508.42 830.25,-513.63 840.71,-515.31 839.48,-508.42"/>
</g>
<!-- node3 -->
<g id="node4" class="node">
<title>node3</title>
<polygon fill="lightgrey" stroke="black" points="1266,-401 1078,-401 1078,-365 1266,-365 1266,-401"/>
<text text-anchor="middle" x="1172" y="-379.3" font-family="Times,serif" font-size="14.00">#3 LabelNode Order : 8</text>
</g>
<!-- node2&#45;&gt;node3 -->
<g id="edge6" class="edge">
<title>node2&#45;&gt;node3</title>
<path fill="none" stroke="red" d="M1166.12,-437.81C1165.28,-429.79 1165.05,-420.05 1165.42,-411.07"/>
<polygon fill="red" stroke="red" points="1168.92,-411.25 1166.14,-401.03 1161.94,-410.75 1168.92,-411.25"/>
</g>
<!-- node3&#45;&gt;node2 -->
<g id="edge5" class="edge">
<title>node3&#45;&gt;node2</title>
<path fill="none" stroke="green" stroke-width="2" d="M1177.86,-401.03C1178.71,-409.03 1178.95,-418.77 1178.59,-427.75"/>
<polygon fill="green" stroke="green" stroke-width="2" points="1175.09,-427.59 1177.88,-437.81 1182.07,-428.08 1175.09,-427.59"/>
</g>
<!-- node9 -->
<g id="node11" class="node">
<title>node9</title>
<polygon fill="lightgrey" stroke="black" points="917.5,-328 672.5,-328 672.5,-292 917.5,-292 917.5,-328"/>
<text text-anchor="middle" x="795" y="-306.3" font-family="Times,serif" font-size="14.00">#9 ArrayStore : float[] Order : 9</text>
</g>
<!-- node3&#45;&gt;node9 -->
<g id="edge23" class="edge">
<title>node3&#45;&gt;node9</title>
<path fill="none" stroke="red" d="M1081.7,-364.99C1025.59,-354.43 953.36,-340.82 895.45,-329.92"/>
<polygon fill="red" stroke="red" points="896.02,-326.46 885.54,-328.05 894.72,-333.34 896.02,-326.46"/>
</g>
<!-- node4&#45;&gt;node0 -->
<g id="edge7" class="edge">
<title>node4&#45;&gt;node0</title>
<path fill="none" stroke="green" stroke-width="2" d="M519.91,-401.14C524.14,-421.4 529.89,-454.78 550,-474 577.91,-500.68 617.33,-514.58 653.62,-521.68"/>
<polygon fill="green" stroke="green" stroke-width="2" points="653.29,-525.18 663.75,-523.51 654.53,-518.29 653.29,-525.18"/>
</g>
<!-- node5 -->
<g id="node7" class="node">
<title>node5</title>
<polygon fill="orange" stroke="black" points="654.3,-302.54 654.3,-317.46 571.53,-328 454.47,-328 371.7,-317.46 371.7,-302.54 454.47,-292 571.53,-292 654.3,-302.54"/>
<text text-anchor="middle" x="513" y="-306.3" font-family="Times,serif" font-size="14.00">#5 ArrayLength Order : 6</text>
</g>
<!-- node4&#45;&gt;node5 -->
<g id="edge11" class="edge">
<title>node4&#45;&gt;node5</title>
<path fill="none" stroke="black" d="M507.12,-364.81C506.28,-356.79 506.05,-347.05 506.42,-338.07"/>
<polygon fill="black" stroke="black" points="509.92,-338.25 507.14,-328.03 502.94,-337.75 509.92,-338.25"/>
<text text-anchor="middle" x="514.28" y="-343.01" font-family="Times,serif" font-size="14.00">*0</text>
</g>
<!-- node4&#45;&gt;node9 -->
<g id="edge19" class="edge">
<title>node4&#45;&gt;node9</title>
<path fill="none" stroke="black" d="M574.69,-364.99C614.86,-354.6 667.72,-341.27 711.61,-330.46"/>
<polygon fill="black" stroke="black" points="712.53,-333.84 721.41,-328.05 710.86,-327.04 712.53,-333.84"/>
<text text-anchor="middle" x="705.82" y="-336.89" font-family="Times,serif" font-size="14.00">*0</text>
</g>
<!-- node4&#45;&gt;node9 -->
<g id="edge22" class="edge">
<title>node4&#45;&gt;node9</title>
<path fill="none" stroke="black" d="M585.3,-365.26C627.58,-354.9 680.72,-341.55 722.95,-330.68"/>
<polygon fill="black" stroke="black" points="724.08,-334 732.89,-328.12 722.33,-327.23 724.08,-334"/>
</g>
<!-- node10 -->
<g id="node12" class="node">
<title>node10</title>
<polygon fill="lightgrey" stroke="black" points="919,-255 671,-255 671,-219 919,-219 919,-255"/>
<text text-anchor="middle" x="795" y="-233.3" font-family="Times,serif" font-size="14.00">#10 ArrayLoad : float Order : 10</text>
</g>
<!-- node4&#45;&gt;node10 -->
<g id="edge25" class="edge">
<title>node4&#45;&gt;node10</title>
<path fill="none" stroke="black" d="M439.29,-365.38C387.85,-350.43 333.3,-325.64 363,-292 382.67,-269.72 541.25,-254.43 660.62,-245.96"/>
<polygon fill="black" stroke="black" points="661.22,-249.42 670.95,-245.23 660.73,-242.44 661.22,-249.42"/>
<text text-anchor="middle" x="653.46" y="-251.23" font-family="Times,serif" font-size="14.00">*0</text>
</g>
<!-- node14&#45;&gt;node0 -->
<g id="edge36" class="edge">
<title>node14&#45;&gt;node0</title>
<path fill="none" stroke="green" stroke-width="2" d="M418.98,-472.46C443.55,-479.52 472.56,-487.51 499,-493 549.83,-503.56 607,-511.7 653.67,-517.47"/>
<polygon fill="green" stroke="green" stroke-width="2" points="653.42,-520.96 663.77,-518.7 654.27,-514.02 653.42,-520.96"/>
</g>
<!-- node14&#45;&gt;node4 -->
<g id="edge8" class="edge">
<title>node14&#45;&gt;node4</title>
<path fill="none" stroke="black" d="M398.17,-437.99C418.93,-428.23 445.21,-415.88 467.38,-405.45"/>
<polygon fill="black" stroke="black" points="469.04,-408.54 476.6,-401.11 466.06,-402.2 469.04,-408.54"/>
<text text-anchor="middle" x="463.8" y="-412.78" font-family="Times,serif" font-size="14.00">*0</text>
</g>
<!-- node5&#45;&gt;node4 -->
<g id="edge10" class="edge">
<title>node5&#45;&gt;node4</title>
<path fill="none" stroke="green" stroke-width="2" d="M518.86,-328.03C519.71,-336.03 519.95,-345.77 519.59,-354.75"/>
<polygon fill="green" stroke="green" stroke-width="2" points="516.09,-354.59 518.88,-364.81 523.07,-355.08 516.09,-354.59"/>
</g>
<!-- node6&#45;&gt;node0 -->
<g id="edge12" class="edge">
<title>node6&#45;&gt;node0</title>
<path fill="none" stroke="green" stroke-width="2" d="M894.8,-474.11C869.4,-484.16 835.9,-496.92 807.19,-507.5"/>
<polygon fill="green" stroke="green" stroke-width="2" points="805.83,-504.26 797.65,-510.99 808.24,-510.84 805.83,-504.26"/>
</g>
<!-- node6&#45;&gt;node9 -->
<g id="edge21" class="edge">
<title>node6&#45;&gt;node9</title>
<path fill="none" stroke="black" d="M917.51,-437.92C892.95,-412.48 846.66,-364.51 818.54,-335.39"/>
<polygon fill="black" stroke="black" points="820.93,-332.83 811.47,-328.06 815.9,-337.69 820.93,-332.83"/>
<text text-anchor="middle" x="830.14" y="-331.53" font-family="Times,serif" font-size="14.00">*2</text>
</g>
<!-- node7&#45;&gt;node0 -->
<g id="edge14" class="edge">
<title>node7&#45;&gt;node0</title>
<path fill="none" stroke="green" stroke-width="2" d="M1317.66,-469.48C1306.46,-471.13 1294.94,-472.7 1284,-474 1089.58,-497.19 1038.98,-484.37 845,-511 843.49,-511.21 841.97,-511.42 840.43,-511.65"/>
<polygon fill="green" stroke="green" stroke-width="2" points="839.54,-508.24 830.19,-513.22 840.61,-515.16 839.54,-508.24"/>
</g>
<!-- node7&#45;&gt;node10 -->
<g id="edge26" class="edge">
<title>node7&#45;&gt;node10</title>
<path fill="none" stroke="black" d="M1368.75,-437.81C1348.61,-417.51 1312.36,-384.08 1275,-365 1163.67,-308.14 1024.44,-274.95 924.65,-256.85"/>
<polygon fill="black" stroke="black" points="924.97,-253.35 914.51,-255.04 923.74,-260.24 924.97,-253.35"/>
<text text-anchor="middle" x="933.84" y="-246.21" font-family="Times,serif" font-size="14.00">*1</text>
</g>
<!-- node8&#45;&gt;node0 -->
<g id="edge16" class="edge">
<title>node8&#45;&gt;node0</title>
<path fill="none" stroke="green" stroke-width="2" d="M679.89,-474.03C693.2,-483.16 708.78,-494.55 721.64,-504.51"/>
<polygon fill="green" stroke="green" stroke-width="2" points="719.62,-507.38 729.64,-510.81 723.95,-501.88 719.62,-507.38"/>
</g>
<!-- node8&#45;&gt;node9 -->
<g id="edge20" class="edge">
<title>node8&#45;&gt;node9</title>
<path fill="none" stroke="black" d="M668.08,-437.92C693.52,-412.48 741.49,-364.51 770.61,-335.39"/>
<polygon fill="black" stroke="black" points="773.34,-337.61 777.94,-328.06 768.39,-332.66 773.34,-337.61"/>
<text text-anchor="middle" x="771.1" y="-343.16" font-family="Times,serif" font-size="14.00">*1</text>
</g>
<!-- node9&#45;&gt;node0 -->
<g id="edge18" class="edge">
<title>node9&#45;&gt;node0</title>
<path fill="none" stroke="green" stroke-width="2" d="M791.7,-328.19C785.91,-357.98 773.37,-421.08 761,-474 758.96,-482.72 756.57,-492.18 754.35,-500.71"/>
<polygon fill="green" stroke="green" stroke-width="2" points="750.92,-499.98 751.75,-510.54 757.69,-501.77 750.92,-499.98"/>
</g>
<!-- node9&#45;&gt;node10 -->
<g id="edge27" class="edge">
<title>node9&#45;&gt;node10</title>
<path fill="none" stroke="black" d="M789.12,-291.81C788.28,-283.79 788.05,-274.05 788.42,-265.07"/>
<polygon fill="black" stroke="black" points="791.92,-265.25 789.14,-255.03 784.94,-264.75 791.92,-265.25"/>
</g>
<!-- node9&#45;&gt;node10 -->
<g id="edge28" class="edge">
<title>node9&#45;&gt;node10</title>
<path fill="none" stroke="red" d="M800.88,-291.81C801.72,-283.79 801.95,-274.05 801.58,-265.07"/>
<polygon fill="red" stroke="red" points="805.06,-264.75 800.86,-255.03 798.08,-265.25 805.06,-264.75"/>
</g>
<!-- node10&#45;&gt;node0 -->
<g id="edge24" class="edge">
<title>node10&#45;&gt;node0</title>
<path fill="none" stroke="green" stroke-width="2" d="M919.01,-237.88C1124.69,-239.35 1514,-249.93 1514,-309 1514,-457 1514,-457 1514,-457 1514,-529.99 951.52,-503.75 840.38,-510.85"/>
<polygon fill="green" stroke="green" stroke-width="2" points="839.98,-507.37 830.33,-511.74 840.59,-514.35 839.98,-507.37"/>
</g>
<!-- node11 -->
<g id="node13" class="node">
<title>node11</title>
<polygon fill="lightgrey" stroke="black" points="828,-182 622,-182 622,-146 828,-146 828,-182"/>
<text text-anchor="middle" x="725" y="-160.3" font-family="Times,serif" font-size="14.00">#11 LabelNode Order : 11</text>
</g>
<!-- node10&#45;&gt;node11 -->
<g id="edge30" class="edge">
<title>node10&#45;&gt;node11</title>
<path fill="none" stroke="red" d="M772.18,-218.81C762.57,-210 751.65,-199.13 742.66,-189.46"/>
<polygon fill="red" stroke="red" points="745.24,-187.09 735.93,-182.03 740.05,-191.79 745.24,-187.09"/>
</g>
<!-- node13 -->
<g id="node15" class="node">
<title>node13</title>
<polygon fill="lightgrey" stroke="black" points="954.5,-36 775.5,-36 775.5,0 954.5,0 954.5,-36"/>
<text text-anchor="middle" x="865" y="-14.3" font-family="Times,serif" font-size="14.00">#13 Return Order : 13</text>
</g>
<!-- node10&#45;&gt;node13 -->
<g id="edge35" class="edge">
<title>node10&#45;&gt;node13</title>
<path fill="none" stroke="black" d="M803.89,-218.96C811.69,-208.99 821.96,-195.69 828,-182 847.77,-137.2 853.63,-79.75 857.99,-46.39"/>
<polygon fill="black" stroke="black" points="861.46,-46.84 859.37,-36.45 854.53,-45.87 861.46,-46.84"/>
</g>
<!-- node11&#45;&gt;node10 -->
<g id="edge29" class="edge">
<title>node11&#45;&gt;node10</title>
<path fill="none" stroke="green" stroke-width="2" d="M747.65,-182.03C757.24,-190.81 768.16,-201.69 777.18,-211.37"/>
<polygon fill="green" stroke="green" stroke-width="2" points="774.62,-213.76 783.93,-218.81 779.8,-209.06 774.62,-213.76"/>
</g>
<!-- node12 -->
<g id="node14" class="node">
<title>node12</title>
<polygon fill="lightgrey" stroke="black" points="828,-109 622,-109 622,-73 828,-73 828,-109"/>
<text text-anchor="middle" x="725" y="-87.3" font-family="Times,serif" font-size="14.00">#12 LabelNode Order : 12</text>
</g>
<!-- node11&#45;&gt;node12 -->
<g id="edge32" class="edge">
<title>node11&#45;&gt;node12</title>
<path fill="none" stroke="red" d="M719.12,-145.81C718.28,-137.79 718.05,-128.05 718.42,-119.07"/>
<polygon fill="red" stroke="red" points="721.92,-119.25 719.14,-109.03 714.94,-118.75 721.92,-119.25"/>
</g>
<!-- node12&#45;&gt;node11 -->
<g id="edge31" class="edge">
<title>node12&#45;&gt;node11</title>
<path fill="none" stroke="green" stroke-width="2" d="M730.86,-109.03C731.71,-117.03 731.95,-126.77 731.59,-135.75"/>
<polygon fill="green" stroke="green" stroke-width="2" points="728.09,-135.59 730.88,-145.81 735.07,-136.08 728.09,-135.59"/>
</g>
<!-- node12&#45;&gt;node13 -->
<g id="edge34" class="edge">
<title>node12&#45;&gt;node13</title>
<path fill="none" stroke="red" d="M758.53,-72.99C777.61,-63.32 801.71,-51.1 822.15,-40.73"/>
<polygon fill="red" stroke="red" points="823.92,-43.76 831.25,-36.11 820.75,-37.52 823.92,-43.76"/>
</g>
<!-- node13&#45;&gt;node10 -->
<g id="edge33" class="edge">
<title>node13&#45;&gt;node10</title>
<path fill="none" stroke="green" stroke-width="2" d="M870.13,-36.45C872.73,-67.17 867.91,-132.35 846,-182 841.37,-192.48 834.27,-202.73 826.73,-211.44"/>
<polygon fill="green" stroke="green" stroke-width="2" points="823.99,-209.25 819.75,-218.96 829.12,-214.01 823.99,-209.25"/>
</g>
<!-- c0 -->
<!-- c1 -->
<!-- c0&#45;&gt;c1 -->
<g id="edge38" class="edge">
<title>c0&#45;&gt;c1</title>
<path fill="none" stroke="red" d="M1561.89,-529C1573.11,-529 1631.24,-529 1656.86,-529"/>
<polygon fill="red" stroke="red" points="1657.06,-532.5 1667.06,-529 1657.06,-525.5 1657.06,-532.5"/>
<text text-anchor="middle" x="1614.5" y="-535.8" font-family="Times,serif" font-size="14.00">Control flow</text>
</g>
<!-- c2 -->
<!-- c3 -->
<!-- c2&#45;&gt;c3 -->
<g id="edge39" class="edge">
<title>c2&#45;&gt;c3</title>
<path fill="none" stroke="red" stroke-dasharray="5,2" d="M1355.08,-529C1372.05,-529 1488.21,-529 1526.08,-529"/>
<polygon fill="red" stroke="red" points="1526.17,-532.5 1536.17,-529 1526.17,-525.5 1526.17,-532.5"/>
<text text-anchor="middle" x="1445.5" y="-535.8" font-family="Times,serif" font-size="14.00">Control flow back edge</text>
</g>
<!-- d0 -->
<!-- d1 -->
<!-- d0&#45;&gt;d1 -->
<g id="edge40" class="edge">
<title>d0&#45;&gt;d1</title>
<path fill="none" stroke="black" d="M1243.86,-529C1253.41,-529 1297.31,-529 1318.92,-529"/>
<polygon fill="black" stroke="black" points="1319.15,-532.5 1329.15,-529 1319.15,-525.5 1319.15,-532.5"/>
<text text-anchor="middle" x="1286.5" y="-535.8" font-family="Times,serif" font-size="14.00">Data flow</text>
</g>
<!-- d2 -->
<!-- d3 -->
<!-- d2&#45;&gt;d3 -->
<g id="edge41" class="edge">
<title>d2&#45;&gt;d3</title>
<path fill="none" stroke="black" stroke-dasharray="1,5" d="M1117.81,-529C1128.46,-529 1183.46,-529 1208.08,-529"/>
<polygon fill="black" stroke="black" points="1208.15,-532.5 1218.15,-529 1208.15,-525.5 1208.15,-532.5"/>
<text text-anchor="middle" x="1168" y="-535.8" font-family="Times,serif" font-size="14.00">Declaration</text>
</g>
<!-- d4 -->
<!-- d5 -->
<!-- d4&#45;&gt;d5 -->
<g id="edge42" class="edge">
<title>d4&#45;&gt;d5</title>
<path fill="none" stroke="blue" d="M975.1,-529C987.72,-529 1053.88,-529 1081.68,-529"/>
<polygon fill="blue" stroke="blue" points="1081.84,-532.5 1091.84,-529 1081.84,-525.5 1081.84,-532.5"/>
<text text-anchor="middle" x="1033.5" y="-535.8" font-family="Times,serif" font-size="14.00">PHI Data flow</text>
</g>
<!-- d6 -->
<!-- d7 -->
<!-- d6&#45;&gt;d7 -->
<g id="edge43" class="edge">
<title>d6&#45;&gt;d7</title>
<path fill="none" stroke="green" d="M852.11,-529C863.15,-529 914.67,-529 938.66,-529"/>
<polygon fill="green" stroke="green" points="938.9,-532.5 948.9,-529 938.9,-525.5 938.9,-532.5"/>
<text text-anchor="middle" x="900.5" y="-535.8" font-family="Times,serif" font-size="14.00">Dominance</text>
</g>
</g>
</svg>
