<?xml version="1.0" encoding="UTF-8" standalone="no"?>
<!DOCTYPE svg PUBLIC "-//W3C//DTD SVG 1.1//EN"
 "http://www.w3.org/Graphics/SVG/1.1/DTD/svg11.dtd">
<!-- Generated by graphviz version 2.43.0 (0)
 -->
<!-- Title: debugoutput Pages: 1 -->
<svg width="1292pt" height="724pt"
 viewBox="0.00 0.00 1292.13 723.80" xmlns="http://www.w3.org/2000/svg" xmlns:xlink="http://www.w3.org/1999/xlink">
<g id="graph0" class="graph" transform="scale(1 1) rotate(0) translate(4 719.8)">
<title>debugoutput</title>
<polygon fill="white" stroke="transparent" points="-4,4 -4,-719.8 1288.13,-719.8 1288.13,4 -4,4"/>
<g id="clust1" class="cluster">
<title>cluster_000</title>
<polygon fill="none" stroke="black" points="437.13,-665.2 437.13,-707.8 1276.13,-707.8 1276.13,-665.2 437.13,-665.2"/>
<text text-anchor="middle" x="856.63" y="-692.6" font-family="Times,serif" font-size="14.00">Legend</text>
</g>
<!-- node0 -->
<g id="node1" class="node">
<title>node0</title>
<polygon fill="lightgrey" stroke="black" points="427.13,-693 261.13,-693 261.13,-657 427.13,-657 427.13,-693"/>
<text text-anchor="middle" x="344.13" y="-671.3" font-family="Times,serif" font-size="14.00">#0 Method Order : 0</text>
</g>
<!-- node1 -->
<g id="node2" class="node">
<title>node1</title>
<polygon fill="lightgrey" stroke="black" points="260.13,-620 30.13,-620 30.13,-584 260.13,-584 260.13,-620"/>
<text text-anchor="middle" x="145.13" y="-598.3" font-family="Times,serif" font-size="14.00">#1 this : ArrayTest Order : 14</text>
</g>
<!-- node0&#45;&gt;node1 -->
<g id="edge2" class="edge">
<title>node0&#45;&gt;node1</title>
<path fill="none" stroke="black" d="M290.61,-656.99C261.45,-646.97 225.58,-634.21 196.73,-623.62"/>
<polygon fill="black" stroke="black" points="197.82,-620.29 187.23,-620.11 195.4,-626.86 197.82,-620.29"/>
<text text-anchor="middle" x="207.16" y="-614.76" font-family="Times,serif" font-size="14.00">*0</text>
</g>
<!-- node2 -->
<g id="node3" class="node">
<title>node2</title>
<polygon fill="lightgrey" stroke="black" points="536.13,-620 348.13,-620 348.13,-584 536.13,-584 536.13,-620"/>
<text text-anchor="middle" x="442.13" y="-598.3" font-family="Times,serif" font-size="14.00">#2 LabelNode Order : 1</text>
</g>
<!-- node0&#45;&gt;node2 -->
<g id="edge4" class="edge">
<title>node0&#45;&gt;node2</title>
<path fill="none" stroke="red" d="M361.98,-656.81C373.88,-647.48 389.82,-635.83 404.39,-625.75"/>
<polygon fill="red" stroke="red" points="406.48,-628.56 412.77,-620.03 402.54,-622.78 406.48,-628.56"/>
</g>
<!-- node5 -->
<g id="node6" class="node">
<title>node5</title>
<polygon fill="orange" stroke="black" points="336.4,-448.54 336.4,-463.46 237.83,-474 98.44,-474 -0.13,-463.46 -0.13,-448.54 98.44,-438 237.83,-438 336.4,-448.54"/>
<text text-anchor="middle" x="168.13" y="-452.3" font-family="Times,serif" font-size="14.00">#5 NewArray : float[] Order : 3</text>
</g>
<!-- node0&#45;&gt;node5 -->
<g id="edge11" class="edge">
<title>node0&#45;&gt;node5</title>
<path fill="none" stroke="black" d="M326.48,-656.97C292.09,-619.04 217.52,-527.39 184.32,-482.56"/>
<polygon fill="black" stroke="black" points="186.98,-480.26 178.26,-474.25 181.33,-484.39 186.98,-480.26"/>
</g>
<!-- node1&#45;&gt;node0 -->
<g id="edge1" class="edge">
<title>node1&#45;&gt;node0</title>
<path fill="none" stroke="green" stroke-width="2" d="M198.97,-620.11C228.18,-630.16 264.04,-642.92 292.85,-653.5"/>
<polygon fill="green" stroke="green" stroke-width="2" points="291.74,-656.82 302.33,-656.99 294.16,-650.25 291.74,-656.82"/>
</g>
<!-- node2&#45;&gt;node0 -->
<g id="edge3" class="edge">
<title>node2&#45;&gt;node0</title>
<path fill="none" stroke="green" stroke-width="2" d="M424.38,-620.11C412.47,-629.46 396.48,-641.15 381.87,-651.26"/>
<polygon fill="green" stroke="green" stroke-width="2" points="379.75,-648.47 373.47,-656.99 383.7,-654.25 379.75,-648.47"/>
</g>
<!-- node3 -->
<g id="node4" class="node">
<title>node3</title>
<polygon fill="lightgrey" stroke="black" points="756.13,-547 568.13,-547 568.13,-511 756.13,-511 756.13,-547"/>
<text text-anchor="middle" x="662.13" y="-525.3" font-family="Times,serif" font-size="14.00">#3 LabelNode Order : 5</text>
</g>
<!-- node2&#45;&gt;node3 -->
<g id="edge6" class="edge">
<title>node2&#45;&gt;node3</title>
<path fill="none" stroke="red" d="M488.97,-583.99C519.36,-573.84 559.42,-560.88 593.37,-550.2"/>
<polygon fill="red" stroke="red" points="594.74,-553.44 603.24,-547.11 592.65,-546.76 594.74,-553.44"/>
</g>
<!-- node4 -->
<g id="node5" class="node">
<title>node4</title>
<polygon fill="lightgreen" stroke="black" points="549.9,-521.54 549.9,-536.46 486.77,-547 397.5,-547 334.37,-536.46 334.37,-521.54 397.5,-511 486.77,-511 549.9,-521.54"/>
<text text-anchor="middle" x="442.13" y="-525.3" font-family="Times,serif" font-size="14.00">#4 int 10 Order : 2</text>
</g>
<!-- node2&#45;&gt;node4 -->
<g id="edge8" class="edge">
<title>node2&#45;&gt;node4</title>
<path fill="none" stroke="black" stroke-dasharray="1,5" d="M436.26,-583.81C435.42,-575.79 435.18,-566.05 435.56,-557.07"/>
<polygon fill="black" stroke="black" points="439.05,-557.25 436.27,-547.03 432.07,-556.75 439.05,-557.25"/>
</g>
<!-- node3&#45;&gt;node2 -->
<g id="edge5" class="edge">
<title>node3&#45;&gt;node2</title>
<path fill="none" stroke="green" stroke-width="2" d="M614.98,-547.11C584.52,-557.29 544.45,-570.25 510.54,-580.91"/>
<polygon fill="green" stroke="green" stroke-width="2" points="509.19,-577.66 500.69,-583.99 511.28,-584.34 509.19,-577.66"/>
</g>
<!-- node6 -->
<g id="node7" class="node">
<title>node6</title>
<polygon fill="lightgreen" stroke="black" points="605.99,-448.54 605.99,-463.46 532.26,-474 428.01,-474 354.28,-463.46 354.28,-448.54 428.01,-438 532.26,-438 605.99,-448.54"/>
<text text-anchor="middle" x="480.13" y="-452.3" font-family="Times,serif" font-size="14.00">#6 float 10.0 Order : 7</text>
</g>
<!-- node3&#45;&gt;node6 -->
<g id="edge13" class="edge">
<title>node3&#45;&gt;node6</title>
<path fill="none" stroke="black" stroke-dasharray="1,5" d="M612.68,-510.99C586.15,-501.06 553.68,-488.43 527.48,-477.89"/>
<polygon fill="black" stroke="black" points="528.72,-474.62 518.13,-474.11 526.09,-481.11 528.72,-474.62"/>
</g>
<!-- node7 -->
<g id="node8" class="node">
<title>node7</title>
<polygon fill="lightgreen" stroke="black" points="826.24,-448.54 826.24,-463.46 767.01,-474 683.26,-474 624.03,-463.46 624.03,-448.54 683.26,-438 767.01,-438 826.24,-448.54"/>
<text text-anchor="middle" x="725.13" y="-452.3" font-family="Times,serif" font-size="14.00">#7 int 0 Order : 6</text>
</g>
<!-- node3&#45;&gt;node7 -->
<g id="edge15" class="edge">
<title>node3&#45;&gt;node7</title>
<path fill="none" stroke="black" stroke-dasharray="1,5" d="M671.51,-510.81C678.4,-502 687.86,-491.13 696.98,-481.46"/>
<polygon fill="black" stroke="black" points="699.73,-483.65 704.16,-474.03 694.7,-478.79 699.73,-483.65"/>
</g>
<!-- node8 -->
<g id="node9" class="node">
<title>node8</title>
<polygon fill="lightgrey" stroke="black" points="741.63,-401 496.63,-401 496.63,-365 741.63,-365 741.63,-401"/>
<text text-anchor="middle" x="619.13" y="-379.3" font-family="Times,serif" font-size="14.00">#8 ArrayStore : float[] Order : 8</text>
</g>
<!-- node3&#45;&gt;node8 -->
<g id="edge21" class="edge">
<title>node3&#45;&gt;node8</title>
<path fill="none" stroke="red" d="M756.25,-511.88C810.99,-498.27 863.99,-474.96 835.13,-438 823.4,-422.97 788.64,-411.51 750.34,-403.09"/>
<polygon fill="red" stroke="red" points="751.05,-399.67 740.54,-401.02 749.6,-406.51 751.05,-399.67"/>
</g>
<!-- node4&#45;&gt;node2 -->
<g id="edge7" class="edge">
<title>node4&#45;&gt;node2</title>
<path fill="none" stroke="green" stroke-width="2" d="M448,-547.03C448.84,-555.03 449.08,-564.77 448.72,-573.75"/>
<polygon fill="green" stroke="green" stroke-width="2" points="445.22,-573.59 448.01,-583.81 452.21,-574.08 445.22,-573.59"/>
</g>
<!-- node4&#45;&gt;node5 -->
<g id="edge10" class="edge">
<title>node4&#45;&gt;node5</title>
<path fill="none" stroke="black" d="M390.68,-512.07C368.99,-505.54 343.42,-498.11 320.13,-492 298.67,-486.37 275.37,-480.75 253.61,-475.73"/>
<polygon fill="black" stroke="black" points="254.27,-472.28 243.74,-473.46 252.7,-479.11 254.27,-472.28"/>
<text text-anchor="middle" x="263.29" y="-465.58" font-family="Times,serif" font-size="14.00">*0</text>
</g>
<!-- node5&#45;&gt;node0 -->
<g id="edge9" class="edge">
<title>node5&#45;&gt;node0</title>
<path fill="none" stroke="green" stroke-width="2" d="M185.99,-474.25C220.54,-512.39 295.1,-604.05 328.14,-648.7"/>
<polygon fill="green" stroke="green" stroke-width="2" points="325.45,-650.95 334.17,-656.97 331.11,-646.83 325.45,-650.95"/>
</g>
<!-- node5&#45;&gt;node8 -->
<g id="edge17" class="edge">
<title>node5&#45;&gt;node8</title>
<path fill="none" stroke="black" d="M257.33,-440.07C325.33,-429.15 419.74,-414.27 495.09,-402.58"/>
<polygon fill="black" stroke="black" points="495.77,-406.02 505.12,-401.03 494.7,-399.1 495.77,-406.02"/>
<text text-anchor="middle" x="488.5" y="-408.46" font-family="Times,serif" font-size="14.00">*0</text>
</g>
<!-- node5&#45;&gt;node8 -->
<g id="edge20" class="edge">
<title>node5&#45;&gt;node8</title>
<path fill="none" stroke="black" d="M264.12,-440.76C335.2,-429.8 432.22,-414.55 506.89,-402.62"/>
<polygon fill="black" stroke="black" points="507.49,-406.07 516.81,-401.03 506.38,-399.15 507.49,-406.07"/>
</g>
<!-- node9 -->
<g id="node10" class="node">
<title>node9</title>
<polygon fill="orange" stroke="black" points="309.44,-375.54 309.44,-390.46 226.66,-401 109.6,-401 26.83,-390.46 26.83,-375.54 109.6,-365 226.66,-365 309.44,-375.54"/>
<text text-anchor="middle" x="168.13" y="-379.3" font-family="Times,serif" font-size="14.00">#9 ArrayLength Order : 4</text>
</g>
<!-- node5&#45;&gt;node9 -->
<g id="edge23" class="edge">
<title>node5&#45;&gt;node9</title>
<path fill="none" stroke="black" d="M162.26,-437.81C161.42,-429.79 161.18,-420.05 161.56,-411.07"/>
<polygon fill="black" stroke="black" points="165.05,-411.25 162.27,-401.03 158.07,-410.75 165.05,-411.25"/>
<text text-anchor="middle" x="169.41" y="-416.01" font-family="Times,serif" font-size="14.00">*0</text>
</g>
<!-- node11 -->
<g id="node12" class="node">
<title>node11</title>
<polygon fill="lightgrey" stroke="black" points="830.13,-255 582.13,-255 582.13,-219 830.13,-219 830.13,-255"/>
<text text-anchor="middle" x="706.13" y="-233.3" font-family="Times,serif" font-size="14.00">#11 ArrayLoad : float Order : 10</text>
</g>
<!-- node5&#45;&gt;node11 -->
<g id="edge27" class="edge">
<title>node5&#45;&gt;node11</title>
<path fill="none" stroke="black" d="M231.36,-437.94C259.04,-429.06 291.26,-416.72 318.13,-401 382.05,-363.61 377.73,-324.75 444.13,-292 483.55,-272.56 529.62,-260.11 572.05,-252.15"/>
<polygon fill="black" stroke="black" points="572.68,-255.59 581.89,-250.36 571.43,-248.7 572.68,-255.59"/>
<text text-anchor="middle" x="565.56" y="-258.21" font-family="Times,serif" font-size="14.00">*0</text>
</g>
<!-- node6&#45;&gt;node3 -->
<g id="edge12" class="edge">
<title>node6&#45;&gt;node3</title>
<path fill="none" stroke="green" stroke-width="2" d="M529.87,-474.11C556.45,-484.07 588.92,-496.69 615.07,-507.22"/>
<polygon fill="green" stroke="green" stroke-width="2" points="613.82,-510.49 624.4,-510.99 616.44,-504 613.82,-510.49"/>
</g>
<!-- node6&#45;&gt;node8 -->
<g id="edge19" class="edge">
<title>node6&#45;&gt;node8</title>
<path fill="none" stroke="black" d="M513.43,-437.99C532.37,-428.32 556.3,-416.1 576.59,-405.73"/>
<polygon fill="black" stroke="black" points="578.32,-408.78 585.63,-401.11 575.13,-402.55 578.32,-408.78"/>
<text text-anchor="middle" x="573.33" y="-413.19" font-family="Times,serif" font-size="14.00">*2</text>
</g>
<!-- node7&#45;&gt;node3 -->
<g id="edge14" class="edge">
<title>node7&#45;&gt;node3</title>
<path fill="none" stroke="green" stroke-width="2" d="M715.89,-474.03C709.02,-482.81 699.57,-493.69 690.45,-503.37"/>
<polygon fill="green" stroke="green" stroke-width="2" points="687.69,-501.19 683.26,-510.81 692.73,-506.05 687.69,-501.19"/>
</g>
<!-- node7&#45;&gt;node8 -->
<g id="edge18" class="edge">
<title>node7&#45;&gt;node8</title>
<path fill="none" stroke="black" d="M699.75,-437.99C685.82,-428.67 668.36,-416.97 653.26,-406.86"/>
<polygon fill="black" stroke="black" points="654.94,-403.77 644.68,-401.11 651.05,-409.59 654.94,-403.77"/>
<text text-anchor="middle" x="664.45" y="-400.48" font-family="Times,serif" font-size="14.00">*1</text>
</g>
<!-- node8&#45;&gt;node0 -->
<g id="edge16" class="edge">
<title>node8&#45;&gt;node0</title>
<path fill="none" stroke="green" stroke-width="2" d="M741.66,-394.07C814.23,-403.54 892.13,-421.52 892.13,-455 892.13,-603 892.13,-603 892.13,-603 892.13,-651.94 521.26,-649.54 437.65,-656.75"/>
<polygon fill="green" stroke="green" stroke-width="2" points="437.03,-653.3 427.48,-657.89 437.81,-660.26 437.03,-653.3"/>
</g>
<!-- node10 -->
<g id="node11" class="node">
<title>node10</title>
<polygon fill="lightgreen" stroke="black" points="668.9,-302.54 668.9,-317.46 605.77,-328 516.5,-328 453.37,-317.46 453.37,-302.54 516.5,-292 605.77,-292 668.9,-302.54"/>
<text text-anchor="middle" x="561.13" y="-306.3" font-family="Times,serif" font-size="14.00">#10 int 1 Order : 9</text>
</g>
<!-- node8&#45;&gt;node10 -->
<g id="edge25" class="edge">
<title>node8&#45;&gt;node10</title>
<path fill="none" stroke="black" stroke-dasharray="1,5" d="M599.22,-364.81C591.34,-356.27 582.56,-345.77 575.32,-336.32"/>
<polygon fill="black" stroke="black" points="577.95,-333.98 569.18,-328.03 572.32,-338.15 577.95,-333.98"/>
</g>
<!-- node8&#45;&gt;node11 -->
<g id="edge29" class="edge">
<title>node8&#45;&gt;node11</title>
<path fill="none" stroke="black" d="M635.22,-364.86C646.23,-355.24 660.06,-342.3 669.13,-328 681.42,-308.65 688.64,-283.53 694.14,-264.75"/>
<polygon fill="black" stroke="black" points="697.53,-265.63 697.04,-255.05 690.82,-263.63 697.53,-265.63"/>
</g>
<!-- node8&#45;&gt;node11 -->
<g id="edge30" class="edge">
<title>node8&#45;&gt;node11</title>
<path fill="none" stroke="red" d="M651.27,-364.86C664.23,-355.24 678.06,-342.3 687.13,-328 699.36,-308.74 706.58,-283.77 709.16,-265.01"/>
<polygon fill="red" stroke="red" points="712.64,-265.34 710.13,-255.05 705.67,-264.66 712.64,-265.34"/>
</g>
<!-- node9&#45;&gt;node5 -->
<g id="edge22" class="edge">
<title>node9&#45;&gt;node5</title>
<path fill="none" stroke="green" stroke-width="2" d="M174,-401.03C174.84,-409.03 175.08,-418.77 174.72,-427.75"/>
<polygon fill="green" stroke="green" stroke-width="2" points="171.22,-427.59 174.01,-437.81 178.21,-428.08 171.22,-427.59"/>
</g>
<!-- node10&#45;&gt;node8 -->
<g id="edge24" class="edge">
<title>node10&#45;&gt;node8</title>
<path fill="none" stroke="green" stroke-width="2" d="M580.91,-328.03C588.77,-336.55 597.56,-347.04 604.81,-356.5"/>
<polygon fill="green" stroke="green" stroke-width="2" points="602.21,-358.86 610.97,-364.81 607.83,-354.7 602.21,-358.86"/>
</g>
<!-- node10&#45;&gt;node11 -->
<g id="edge28" class="edge">
<title>node10&#45;&gt;node11</title>
<path fill="none" stroke="black" d="M595.87,-291.99C615.72,-282.27 640.81,-269.99 662.04,-259.59"/>
<polygon fill="black" stroke="black" points="663.74,-262.65 671.18,-255.11 660.66,-256.37 663.74,-262.65"/>
<text text-anchor="middle" x="658.62" y="-266.98" font-family="Times,serif" font-size="14.00">*1</text>
</g>
<!-- node11&#45;&gt;node0 -->
<g id="edge26" class="edge">
<title>node11&#45;&gt;node0</title>
<path fill="none" stroke="green" stroke-width="2" d="M823.71,-255.06C877.79,-266.33 930.13,-283.76 930.13,-309 930.13,-603 930.13,-603 930.13,-603 930.13,-656.11 526.27,-650.98 437.62,-656.84"/>
<polygon fill="green" stroke="green" stroke-width="2" points="437.12,-653.37 427.46,-657.72 437.72,-660.34 437.12,-653.37"/>
</g>
<!-- node12 -->
<g id="node13" class="node">
<title>node12</title>
<polygon fill="lightgrey" stroke="black" points="739.13,-182 533.13,-182 533.13,-146 739.13,-146 739.13,-182"/>
<text text-anchor="middle" x="636.13" y="-160.3" font-family="Times,serif" font-size="14.00">#12 LabelNode Order : 11</text>
</g>
<!-- node11&#45;&gt;node12 -->
<g id="edge32" class="edge">
<title>node11&#45;&gt;node12</title>
<path fill="none" stroke="red" d="M683.31,-218.81C673.71,-210 662.79,-199.13 653.8,-189.46"/>
<polygon fill="red" stroke="red" points="656.37,-187.09 647.06,-182.03 651.19,-191.79 656.37,-187.09"/>
</g>
<!-- node14 -->
<g id="node15" class="node">
<title>node14</title>
<polygon fill="lightgrey" stroke="black" points="865.63,-36 686.63,-36 686.63,0 865.63,0 865.63,-36"/>
<text text-anchor="middle" x="776.13" y="-14.3" font-family="Times,serif" font-size="14.00">#14 Return Order : 13</text>
</g>
<!-- node11&#45;&gt;node14 -->
<g id="edge37" class="edge">
<title>node11&#45;&gt;node14</title>
<path fill="none" stroke="black" d="M715.03,-218.96C722.82,-208.99 733.09,-195.69 739.13,-182 758.9,-137.2 764.76,-79.75 769.13,-46.39"/>
<polygon fill="black" stroke="black" points="772.6,-46.84 770.51,-36.45 765.67,-45.87 772.6,-46.84"/>
</g>
<!-- node12&#45;&gt;node11 -->
<g id="edge31" class="edge">
<title>node12&#45;&gt;node11</title>
<path fill="none" stroke="green" stroke-width="2" d="M658.79,-182.03C668.38,-190.81 679.3,-201.69 688.31,-211.37"/>
<polygon fill="green" stroke="green" stroke-width="2" points="685.76,-213.76 695.07,-218.81 690.94,-209.06 685.76,-213.76"/>
</g>
<!-- node13 -->
<g id="node14" class="node">
<title>node13</title>
<polygon fill="lightgrey" stroke="black" points="739.13,-109 533.13,-109 533.13,-73 739.13,-73 739.13,-109"/>
<text text-anchor="middle" x="636.13" y="-87.3" font-family="Times,serif" font-size="14.00">#13 LabelNode Order : 12</text>
</g>
<!-- node12&#45;&gt;node13 -->
<g id="edge34" class="edge">
<title>node12&#45;&gt;node13</title>
<path fill="none" stroke="red" d="M630.26,-145.81C629.42,-137.79 629.18,-128.05 629.56,-119.07"/>
<polygon fill="red" stroke="red" points="633.05,-119.25 630.27,-109.03 626.07,-118.75 633.05,-119.25"/>
</g>
<!-- node13&#45;&gt;node12 -->
<g id="edge33" class="edge">
<title>node13&#45;&gt;node12</title>
<path fill="none" stroke="green" stroke-width="2" d="M642,-109.03C642.84,-117.03 643.08,-126.77 642.72,-135.75"/>
<polygon fill="green" stroke="green" stroke-width="2" points="639.22,-135.59 642.01,-145.81 646.21,-136.08 639.22,-135.59"/>
</g>
<!-- node13&#45;&gt;node14 -->
<g id="edge36" class="edge">
<title>node13&#45;&gt;node14</title>
<path fill="none" stroke="red" d="M669.67,-72.99C688.75,-63.32 712.85,-51.1 733.29,-40.73"/>
<polygon fill="red" stroke="red" points="735.05,-43.76 742.39,-36.11 731.89,-37.52 735.05,-43.76"/>
</g>
<!-- node14&#45;&gt;node11 -->
<g id="edge35" class="edge">
<title>node14&#45;&gt;node11</title>
<path fill="none" stroke="green" stroke-width="2" d="M781.27,-36.45C783.86,-67.17 779.04,-132.35 757.13,-182 752.51,-192.48 745.41,-202.73 737.87,-211.44"/>
<polygon fill="green" stroke="green" stroke-width="2" points="735.12,-209.25 730.88,-218.96 740.25,-214.01 735.12,-209.25"/>
</g>
<!-- c0 -->
<!-- c1 -->
<!-- c0&#45;&gt;c1 -->
<g id="edge38" class="edge">
<title>c0&#45;&gt;c1</title>
<path fill="none" stroke="red" d="M1159.03,-675C1170.24,-675 1228.38,-675 1253.99,-675"/>
<polygon fill="red" stroke="red" points="1254.19,-678.5 1264.19,-675 1254.19,-671.5 1254.19,-678.5"/>
<text text-anchor="middle" x="1211.63" y="-681.8" font-family="Times,serif" font-size="14.00">Control flow</text>
</g>
<!-- c2 -->
<!-- c3 -->
<!-- c2&#45;&gt;c3 -->
<g id="edge39" class="edge">
<title>c2&#45;&gt;c3</title>
<path fill="none" stroke="red" stroke-dasharray="5,2" d="M952.21,-675C969.18,-675 1085.34,-675 1123.22,-675"/>
<polygon fill="red" stroke="red" points="1123.3,-678.5 1133.3,-675 1123.3,-671.5 1123.3,-678.5"/>
<text text-anchor="middle" x="1042.63" y="-681.8" font-family="Times,serif" font-size="14.00">Control flow back edge</text>
</g>
<!-- d0 -->
<!-- d1 -->
<!-- d0&#45;&gt;d1 -->
<g id="edge40" class="edge">
<title>d0&#45;&gt;d1</title>
<path fill="none" stroke="black" d="M840.99,-675C850.54,-675 894.44,-675 916.05,-675"/>
<polygon fill="black" stroke="black" points="916.29,-678.5 926.29,-675 916.29,-671.5 916.29,-678.5"/>
<text text-anchor="middle" x="883.63" y="-681.8" font-family="Times,serif" font-size="14.00">Data flow</text>
</g>
<!-- d2 -->
<!-- d3 -->
<!-- d2&#45;&gt;d3 -->
<g id="edge41" class="edge">
<title>d2&#45;&gt;d3</title>
<path fill="none" stroke="black" stroke-dasharray="1,5" d="M714.94,-675C725.59,-675 780.6,-675 805.21,-675"/>
<polygon fill="black" stroke="black" points="805.28,-678.5 815.28,-675 805.28,-671.5 805.28,-678.5"/>
<text text-anchor="middle" x="765.13" y="-681.8" font-family="Times,serif" font-size="14.00">Declaration</text>
</g>
<!-- d4 -->
<!-- d5 -->
<!-- d4&#45;&gt;d5 -->
<g id="edge42" class="edge">
<title>d4&#45;&gt;d5</title>
<path fill="none" stroke="blue" d="M572.23,-675C584.86,-675 651.02,-675 678.81,-675"/>
<polygon fill="blue" stroke="blue" points="678.98,-678.5 688.98,-675 678.98,-671.5 678.98,-678.5"/>
<text text-anchor="middle" x="630.63" y="-681.8" font-family="Times,serif" font-size="14.00">PHI Data flow</text>
</g>
<!-- d6 -->
<!-- d7 -->
<!-- d6&#45;&gt;d7 -->
<g id="edge43" class="edge">
<title>d6&#45;&gt;d7</title>
<path fill="none" stroke="green" d="M449.24,-675C460.28,-675 511.8,-675 535.79,-675"/>
<polygon fill="green" stroke="green" points="536.04,-678.5 546.04,-675 536.04,-671.5 536.04,-678.5"/>
<text text-anchor="middle" x="497.63" y="-681.8" font-family="Times,serif" font-size="14.00">Dominance</text>
</g>
</g>
</svg>
