<?xml version="1.0" encoding="UTF-8" standalone="no"?>
<!DOCTYPE svg PUBLIC "-//W3C//DTD SVG 1.1//EN"
 "http://www.w3.org/Graphics/SVG/1.1/DTD/svg11.dtd">
<!-- Generated by graphviz version 2.43.0 (0)
 -->
<!-- Title: %3 Pages: 1 -->
<svg width="1561pt" height="370pt"
 viewBox="0.00 0.00 1560.50 370.00" xmlns="http://www.w3.org/2000/svg" xmlns:xlink="http://www.w3.org/1999/xlink">
<g id="graph0" class="graph" transform="scale(1 1) rotate(0) translate(4 366)">
<title>%3</title>
<polygon fill="white" stroke="transparent" points="-4,4 -4,-366 1556.5,-366 1556.5,4 -4,4"/>
<g id="clust1" class="cluster">
<title>cluster_0</title>
<polygon fill="none" stroke="lightgray" points="167.5,-211 167.5,-354 683.5,-354 683.5,-211 167.5,-211"/>
</g>
<g id="clust2" class="cluster">
<title>cluster_000</title>
<polygon fill="none" stroke="black" points="691.5,-309.2 691.5,-351.8 1544.5,-351.8 1544.5,-309.2 691.5,-309.2"/>
<text text-anchor="middle" x="1118" y="-336.6" font-family="Times,serif" font-size="14.00">Legend</text>
</g>
<!-- node0 -->
<g id="node1" class="node">
<title>node0</title>
<polygon fill="lightgrey" stroke="transparent" points="471,-346 244,-346 244,-292 471,-292 471,-346"/>
<polygon fill="none" stroke="black" points="244.5,-319 244.5,-346 471.5,-346 471.5,-319 244.5,-319"/>
<text text-anchor="start" x="317.5" y="-328.8" font-family="Times,serif" font-size="14.00">#0 Method</text>
<polygon fill="yellow" stroke="transparent" points="244.5,-292 244.5,-319 471.5,-319 471.5,-292 244.5,-292"/>
<polygon fill="none" stroke="black" points="244.5,-292 244.5,-319 471.5,-319 471.5,-292 244.5,-292"/>
<text text-anchor="start" x="250.5" y="-301.8" font-family="Times,serif" font-size="14.00">this : StaticMethodInvokeTest</text>
</g>
<!-- node4 -->
<g id="node2" class="node">
<title>node4</title>
<polygon fill="lightgreen" stroke="black" points="539.91,-229.54 539.91,-244.46 433.06,-255 281.94,-255 175.09,-244.46 175.09,-229.54 281.94,-219 433.06,-219 539.91,-229.54"/>
<text text-anchor="middle" x="357.5" y="-233.3" font-family="Times,serif" font-size="14.00">#4 Class StaticMethodInvokeTest</text>
</g>
<!-- node0&#45;&gt;node4 -->
<g id="edge1" class="edge">
<title>node0&#45;&gt;node4</title>
<path fill="none" stroke="black" stroke-dasharray="1,5" d="M357.5,-291.81C357.5,-283.35 357.5,-273.95 357.5,-265.4"/>
<polygon fill="black" stroke="black" points="361,-265.17 357.5,-255.17 354,-265.17 361,-265.17"/>
</g>
<!-- node5 -->
<g id="node3" class="node">
<title>node5</title>
<polygon fill="lightgrey" stroke="black" points="410,-182 305,-182 305,-146 410,-146 410,-182"/>
<text text-anchor="middle" x="357.5" y="-160.3" font-family="Times,serif" font-size="14.00">#5 ClassInit</text>
</g>
<!-- node0&#45;&gt;node5 -->
<g id="edge3" class="edge">
<title>node0&#45;&gt;node5</title>
<path fill="none" stroke="green" d="M243.97,-294.55C186.81,-277.42 135.57,-250.26 166.5,-211 170.62,-205.77 240.89,-189.78 295,-178.12"/>
<polygon fill="green" stroke="green" points="295.86,-181.52 304.9,-176 294.39,-174.67 295.86,-181.52"/>
</g>
<!-- node2 -->
<g id="node4" class="node">
<title>node2</title>
<polygon fill="lightgrey" stroke="black" points="119,-255 0,-255 0,-219 119,-219 119,-255"/>
<text text-anchor="middle" x="59.5" y="-233.3" font-family="Times,serif" font-size="14.00">#2 LabelNode</text>
</g>
<!-- node0&#45;&gt;node2 -->
<g id="edge5" class="edge">
<title>node0&#45;&gt;node2</title>
<path fill="none" stroke="red" d="M243.99,-306.09C203.19,-299.51 157.41,-289.41 117.5,-274 108.49,-270.52 99.33,-265.61 91.04,-260.53"/>
<polygon fill="red" stroke="red" points="92.74,-257.46 82.43,-255.01 88.96,-263.35 92.74,-257.46"/>
</g>
<!-- node3 -->
<g id="node6" class="node">
<title>node3</title>
<polygon fill="lightgreen" stroke="black" points="675.69,-229.54 675.69,-244.46 641.02,-255 591.98,-255 557.31,-244.46 557.31,-229.54 591.98,-219 641.02,-219 675.69,-229.54"/>
<text text-anchor="middle" x="616.5" y="-233.3" font-family="Times,serif" font-size="14.00">#3 int 10</text>
</g>
<!-- node0&#45;&gt;node3 -->
<g id="edge10" class="edge">
<title>node0&#45;&gt;node3</title>
<path fill="none" stroke="black" stroke-dasharray="1,5" d="M441.95,-291.92C483.24,-279.16 531.51,-264.25 566.81,-253.35"/>
<polygon fill="black" stroke="black" points="567.88,-256.68 576.41,-250.38 565.82,-249.99 567.88,-256.68"/>
</g>
<!-- node4&#45;&gt;node5 -->
<g id="edge2" class="edge">
<title>node4&#45;&gt;node5</title>
<path fill="none" stroke="black" d="M357.5,-218.81C357.5,-210.79 357.5,-201.05 357.5,-192.07"/>
<polygon fill="black" stroke="black" points="361,-192.03 357.5,-182.03 354,-192.03 361,-192.03"/>
<text text-anchor="middle" x="365.95" y="-196.45" font-family="Times,serif" font-size="14.00">*0</text>
</g>
<!-- node6 -->
<g id="node5" class="node">
<title>node6</title>
<polygon fill="lightgrey" stroke="black" points="489,-109 226,-109 226,-73 489,-73 489,-109"/>
<text text-anchor="middle" x="357.5" y="-87.3" font-family="Times,serif" font-size="14.00">#6 Invoke static compute : (int)int</text>
</g>
<!-- node5&#45;&gt;node6 -->
<g id="edge6" class="edge">
<title>node5&#45;&gt;node6</title>
<path fill="none" stroke="black" d="M345.74,-145.81C344.06,-137.79 343.6,-128.05 344.34,-119.07"/>
<polygon fill="black" stroke="black" points="347.83,-119.42 345.78,-109.03 340.9,-118.43 347.83,-119.42"/>
<text text-anchor="middle" x="351.58" y="-124.47" font-family="Times,serif" font-size="14.00">*0</text>
</g>
<!-- node5&#45;&gt;node6 -->
<g id="edge8" class="edge">
<title>node5&#45;&gt;node6</title>
<path fill="none" stroke="green" d="M357.5,-145.81C357.5,-137.79 357.5,-128.05 357.5,-119.07"/>
<polygon fill="green" stroke="green" points="361,-119.03 357.5,-109.03 354,-119.03 361,-119.03"/>
</g>
<!-- node5&#45;&gt;node6 -->
<g id="edge9" class="edge">
<title>node5&#45;&gt;node6</title>
<path fill="none" stroke="red" d="M369.26,-145.81C370.94,-137.79 371.4,-128.05 370.66,-119.07"/>
<polygon fill="red" stroke="red" points="374.1,-118.43 369.22,-109.03 367.17,-119.42 374.1,-118.43"/>
</g>
<!-- node2&#45;&gt;node5 -->
<g id="edge4" class="edge">
<title>node2&#45;&gt;node5</title>
<path fill="none" stroke="red" d="M107,-218.99C115.76,-216.13 124.86,-213.34 133.5,-211 187.3,-196.45 249.45,-184.02 294.62,-175.77"/>
<polygon fill="red" stroke="red" points="295.35,-179.19 304.57,-173.97 294.1,-172.31 295.35,-179.19"/>
</g>
<!-- node7 -->
<g id="node7" class="node">
<title>node7</title>
<polygon fill="lightgrey" stroke="black" points="439.5,-36 275.5,-36 275.5,0 439.5,0 439.5,-36"/>
<text text-anchor="middle" x="357.5" y="-14.3" font-family="Times,serif" font-size="14.00">#7 ReturnValue : int</text>
</g>
<!-- node6&#45;&gt;node7 -->
<g id="edge11" class="edge">
<title>node6&#45;&gt;node7</title>
<path fill="none" stroke="black" d="M345.74,-72.81C344.06,-64.79 343.6,-55.05 344.34,-46.07"/>
<polygon fill="black" stroke="black" points="347.83,-46.42 345.78,-36.03 340.9,-45.43 347.83,-46.42"/>
<text text-anchor="middle" x="351.58" y="-51.47" font-family="Times,serif" font-size="14.00">*0</text>
</g>
<!-- node6&#45;&gt;node7 -->
<g id="edge12" class="edge">
<title>node6&#45;&gt;node7</title>
<path fill="none" stroke="red" d="M357.5,-72.81C357.5,-64.79 357.5,-55.05 357.5,-46.07"/>
<polygon fill="red" stroke="red" points="361,-46.03 357.5,-36.03 354,-46.03 361,-46.03"/>
</g>
<!-- node6&#45;&gt;node7 -->
<g id="edge13" class="edge">
<title>node6&#45;&gt;node7</title>
<path fill="none" stroke="green" d="M369.26,-72.81C370.94,-64.79 371.4,-55.05 370.66,-46.07"/>
<polygon fill="green" stroke="green" points="374.1,-45.43 369.22,-36.03 367.17,-46.42 374.1,-45.43"/>
</g>
<!-- node3&#45;&gt;node6 -->
<g id="edge7" class="edge">
<title>node3&#45;&gt;node6</title>
<path fill="none" stroke="black" d="M587.79,-220.04C541.45,-194.27 450.03,-143.45 397.39,-114.18"/>
<polygon fill="black" stroke="black" points="398.78,-110.95 388.34,-109.15 395.38,-117.07 398.78,-110.95"/>
<text text-anchor="middle" x="408.29" y="-106.87" font-family="Times,serif" font-size="14.00">*1</text>
</g>
<!-- c0 -->
<!-- c1 -->
<!-- c0&#45;&gt;c1 -->
<g id="edge14" class="edge">
<title>c0&#45;&gt;c1</title>
<path fill="none" stroke="red" d="M1427.39,-319C1438.61,-319 1496.74,-319 1522.36,-319"/>
<polygon fill="red" stroke="red" points="1522.56,-322.5 1532.56,-319 1522.56,-315.5 1522.56,-322.5"/>
<text text-anchor="middle" x="1480" y="-325.8" font-family="Times,serif" font-size="14.00">Control flow</text>
</g>
<!-- c2 -->
<!-- c3 -->
<!-- c2&#45;&gt;c3 -->
<g id="edge15" class="edge">
<title>c2&#45;&gt;c3</title>
<path fill="none" stroke="red" stroke-dasharray="5,2" d="M1220.58,-319C1237.55,-319 1353.71,-319 1391.58,-319"/>
<polygon fill="red" stroke="red" points="1391.67,-322.5 1401.67,-319 1391.67,-315.5 1391.67,-322.5"/>
<text text-anchor="middle" x="1311" y="-325.8" font-family="Times,serif" font-size="14.00">Control flow back edge</text>
</g>
<!-- d0 -->
<!-- d1 -->
<!-- d0&#45;&gt;d1 -->
<g id="edge16" class="edge">
<title>d0&#45;&gt;d1</title>
<path fill="none" stroke="black" d="M1109.36,-319C1118.91,-319 1162.81,-319 1184.42,-319"/>
<polygon fill="black" stroke="black" points="1184.65,-322.5 1194.65,-319 1184.65,-315.5 1184.65,-322.5"/>
<text text-anchor="middle" x="1152" y="-325.8" font-family="Times,serif" font-size="14.00">Data flow</text>
</g>
<!-- d2 -->
<!-- d3 -->
<!-- d2&#45;&gt;d3 -->
<g id="edge17" class="edge">
<title>d2&#45;&gt;d3</title>
<path fill="none" stroke="black" stroke-dasharray="1,5" d="M983.31,-319C993.96,-319 1048.96,-319 1073.58,-319"/>
<polygon fill="black" stroke="black" points="1073.65,-322.5 1083.65,-319 1073.65,-315.5 1073.65,-322.5"/>
<text text-anchor="middle" x="1033.5" y="-325.8" font-family="Times,serif" font-size="14.00">Declaration</text>
</g>
<!-- d4 -->
<!-- d5 -->
<!-- d4&#45;&gt;d5 -->
<g id="edge18" class="edge">
<title>d4&#45;&gt;d5</title>
<path fill="none" stroke="blue" d="M840.6,-319C853.22,-319 919.38,-319 947.18,-319"/>
<polygon fill="blue" stroke="blue" points="947.34,-322.5 957.34,-319 947.34,-315.5 947.34,-322.5"/>
<text text-anchor="middle" x="899" y="-325.8" font-family="Times,serif" font-size="14.00">PHI Data flow</text>
</g>
<!-- d6 -->
<!-- d7 -->
<!-- d6&#45;&gt;d7 -->
<g id="edge19" class="edge">
<title>d6&#45;&gt;d7</title>
<path fill="none" stroke="green" d="M703.5,-319C715.44,-319 777.8,-319 804.43,-319"/>
<polygon fill="green" stroke="green" points="804.45,-322.5 814.45,-319 804.45,-315.5 804.45,-322.5"/>
<text text-anchor="middle" x="759" y="-325.8" font-family="Times,serif" font-size="14.00">Memory flow</text>
</g>
</g>
</svg>
