<?xml version="1.0" encoding="UTF-8" standalone="no"?>
<!DOCTYPE svg PUBLIC "-//W3C//DTD SVG 1.1//EN"
 "http://www.w3.org/Graphics/SVG/1.1/DTD/svg11.dtd">
<!-- Generated by graphviz version 2.43.0 (0)
 -->
<!-- Title: %3 Pages: 1 -->
<svg width="1475pt" height="662pt"
 viewBox="0.00 0.00 1475.00 662.00" xmlns="http://www.w3.org/2000/svg" xmlns:xlink="http://www.w3.org/1999/xlink">
<g id="graph0" class="graph" transform="scale(1 1) rotate(0) translate(4 658)">
<title>%3</title>
<polygon fill="white" stroke="transparent" points="-4,4 -4,-658 1471,-658 1471,4 -4,4"/>
<g id="clust1" class="cluster">
<title>cluster_0</title>
<polygon fill="none" stroke="lightgray" points="270,-503 270,-646 598,-646 598,-503 270,-503"/>
</g>
<g id="clust2" class="cluster">
<title>cluster_000</title>
<polygon fill="none" stroke="black" points="606,-601.2 606,-643.8 1459,-643.8 1459,-601.2 606,-601.2"/>
<text text-anchor="middle" x="1032.5" y="-628.6" font-family="Times,serif" font-size="14.00">Legend</text>
</g>
<!-- node0 -->
<g id="node1" class="node">
<title>node0</title>
<polygon fill="lightgrey" stroke="transparent" points="572,-638 382,-638 382,-584 572,-584 572,-638"/>
<polygon fill="none" stroke="black" points="382,-611 382,-638 572,-638 572,-611 382,-611"/>
<text text-anchor="start" x="436.5" y="-620.8" font-family="Times,serif" font-size="14.00">#0 Method</text>
<polygon fill="yellow" stroke="transparent" points="382,-584 382,-611 572,-611 572,-584 382,-584"/>
<polygon fill="none" stroke="black" points="382,-584 382,-611 572,-611 572,-584 382,-584"/>
<text text-anchor="start" x="388" y="-593.8" font-family="Times,serif" font-size="14.00">this : MemoryAccessTest</text>
</g>
<!-- node4 -->
<g id="node2" class="node">
<title>node4</title>
<polygon fill="lightgreen" stroke="black" points="590.35,-521.54 590.35,-536.46 498.76,-547 369.24,-547 277.65,-536.46 277.65,-521.54 369.24,-511 498.76,-511 590.35,-521.54"/>
<text text-anchor="middle" x="434" y="-525.3" font-family="Times,serif" font-size="14.00">#4 Class MemoryAccessTest</text>
</g>
<!-- node0&#45;&gt;node4 -->
<g id="edge1" class="edge">
<title>node0&#45;&gt;node4</title>
<path fill="none" stroke="black" stroke-dasharray="1,5" d="M458.28,-583.55C454.64,-577.89 451.02,-571.85 448,-566 446.46,-563.02 444.99,-559.83 443.62,-556.63"/>
<polygon fill="black" stroke="black" points="446.8,-555.16 439.83,-547.17 440.3,-557.76 446.8,-555.16"/>
</g>
<!-- node2 -->
<g id="node7" class="node">
<title>node2</title>
<polygon fill="orange" stroke="black" points="1112.72,-521.54 1112.72,-536.46 1005.1,-547 852.9,-547 745.28,-536.46 745.28,-521.54 852.9,-511 1005.1,-511 1112.72,-521.54"/>
<text text-anchor="middle" x="929" y="-525.3" font-family="Times,serif" font-size="14.00">#2 GetField : instancmember : int</text>
</g>
<!-- node0&#45;&gt;node2 -->
<g id="edge11" class="edge">
<title>node0:prj1&#45;&gt;node2</title>
<path fill="none" stroke="black" d="M573,-597C587.12,-597 588.48,-588.07 602,-584 664.89,-565.06 736.71,-552.27 796.99,-543.92"/>
<polygon fill="black" stroke="black" points="797.51,-547.38 806.94,-542.56 796.56,-540.44 797.51,-547.38"/>
<text text-anchor="middle" x="790.12" y="-549.68" font-family="Times,serif" font-size="14.00">*0</text>
</g>
<!-- node0&#45;&gt;node2 -->
<g id="edge12" class="edge">
<title>node0&#45;&gt;node2</title>
<path fill="none" stroke="green" d="M572.31,-585.61C602.75,-578.34 636.67,-570.78 668,-565 711.69,-556.94 759.82,-549.96 802.73,-544.4"/>
<polygon fill="green" stroke="green" points="803.18,-547.87 812.65,-543.12 802.29,-540.92 803.18,-547.87"/>
</g>
<!-- node3 -->
<g id="node9" class="node">
<title>node3</title>
<polygon fill="lightgrey" stroke="black" points="727.5,-547 608.5,-547 608.5,-511 727.5,-511 727.5,-547"/>
<text text-anchor="middle" x="668" y="-525.3" font-family="Times,serif" font-size="14.00">#3 LabelNode</text>
</g>
<!-- node0&#45;&gt;node3 -->
<g id="edge10" class="edge">
<title>node0&#45;&gt;node3</title>
<path fill="none" stroke="red" d="M539.28,-583.92C564.74,-573.25 593.81,-561.07 617.88,-550.99"/>
<polygon fill="red" stroke="red" points="619.3,-554.19 627.17,-547.1 616.6,-547.74 619.3,-554.19"/>
</g>
<!-- node11 -->
<g id="node10" class="node">
<title>node11</title>
<polygon fill="lightgrey" stroke="black" points="367.5,-109 98.5,-109 98.5,-73 367.5,-73 367.5,-109"/>
<text text-anchor="middle" x="233" y="-87.3" font-family="Times,serif" font-size="14.00">#11 PutField : instancmember : int</text>
</g>
<!-- node0&#45;&gt;node11 -->
<g id="edge13" class="edge">
<title>node0:prj1&#45;&gt;node11</title>
<path fill="none" stroke="black" d="M381,-597C338.02,-597 0,-572.98 0,-530 0,-530 0,-530 0,-163 0,-138.96 45.94,-122.28 97.02,-111.15"/>
<polygon fill="black" stroke="black" points="97.88,-114.54 106.95,-109.07 96.45,-107.69 97.88,-114.54"/>
<text text-anchor="middle" x="90.95" y="-117.36" font-family="Times,serif" font-size="14.00">*0</text>
</g>
<!-- node9 -->
<g id="node3" class="node">
<title>node9</title>
<polygon fill="lightgrey" stroke="black" points="599.5,-255 494.5,-255 494.5,-219 599.5,-219 599.5,-255"/>
<text text-anchor="middle" x="547" y="-233.3" font-family="Times,serif" font-size="14.00">#9 ClassInit</text>
</g>
<!-- node4&#45;&gt;node9 -->
<g id="edge2" class="edge">
<title>node4&#45;&gt;node9</title>
<path fill="none" stroke="black" d="M466.54,-510.8C484.82,-498.56 504,-480.2 504,-457 504,-457 504,-457 504,-309 504,-292.1 513.03,-275.78 522.81,-263.05"/>
<polygon fill="black" stroke="black" points="525.59,-265.18 529.26,-255.24 520.2,-260.72 525.59,-265.18"/>
<text text-anchor="middle" x="524.24" y="-270.9" font-family="Times,serif" font-size="14.00">*0</text>
</g>
<!-- node7 -->
<g id="node4" class="node">
<title>node7</title>
<polygon fill="orange" stroke="black" points="437.93,-448.54 437.93,-463.46 317.89,-474 148.11,-474 28.07,-463.46 28.07,-448.54 148.11,-438 317.89,-438 437.93,-448.54"/>
<text text-anchor="middle" x="233" y="-452.3" font-family="Times,serif" font-size="14.00">#7 GetStaticField : staticmember : int</text>
</g>
<!-- node4&#45;&gt;node7 -->
<g id="edge21" class="edge">
<title>node4&#45;&gt;node7</title>
<path fill="none" stroke="black" d="M385.86,-510.99C357.35,-500.92 321.05,-488.1 290.98,-477.48"/>
<polygon fill="black" stroke="black" points="292.04,-474.14 281.45,-474.11 289.71,-480.74 292.04,-474.14"/>
<text text-anchor="middle" x="301.35" y="-468.48" font-family="Times,serif" font-size="14.00">*0</text>
</g>
<!-- node6 -->
<g id="node6" class="node">
<title>node6</title>
<polygon fill="lightgrey" stroke="black" points="644.5,-401 539.5,-401 539.5,-365 644.5,-365 644.5,-401"/>
<text text-anchor="middle" x="592" y="-379.3" font-family="Times,serif" font-size="14.00">#6 ClassInit</text>
</g>
<!-- node4&#45;&gt;node6 -->
<g id="edge6" class="edge">
<title>node4&#45;&gt;node6</title>
<path fill="none" stroke="black" d="M488.15,-510.9C498.69,-506.11 509.19,-500.19 518,-493 545.84,-470.27 567.39,-434.38 579.87,-410.04"/>
<polygon fill="black" stroke="black" points="583.04,-411.53 584.36,-401.02 576.77,-408.42 583.04,-411.53"/>
<text text-anchor="middle" x="583.86" y="-417.31" font-family="Times,serif" font-size="14.00">*0</text>
</g>
<!-- node10 -->
<g id="node11" class="node">
<title>node10</title>
<polygon fill="lightgrey" stroke="black" points="644.5,-182 345.5,-182 345.5,-146 644.5,-146 644.5,-182"/>
<text text-anchor="middle" x="495" y="-160.3" font-family="Times,serif" font-size="14.00">#10 PutStaticField : staticmember : int</text>
</g>
<!-- node4&#45;&gt;node10 -->
<g id="edge17" class="edge">
<title>node4&#45;&gt;node10</title>
<path fill="none" stroke="black" d="M446.65,-510.87C455.59,-497.06 466,-476.74 466,-457 466,-457 466,-457 466,-236 466,-220.25 472.19,-203.9 478.85,-190.86"/>
<polygon fill="black" stroke="black" points="481.97,-192.46 483.7,-182.01 475.83,-189.1 481.97,-192.46"/>
<text text-anchor="middle" x="482.4" y="-198.27" font-family="Times,serif" font-size="14.00">*0</text>
</g>
<!-- node9&#45;&gt;node10 -->
<g id="edge19" class="edge">
<title>node9&#45;&gt;node10</title>
<path fill="none" stroke="green" d="M528.53,-218.81C521.45,-210.35 513.65,-199.98 507.25,-190.61"/>
<polygon fill="green" stroke="green" points="510.02,-188.47 501.61,-182.03 504.17,-192.31 510.02,-188.47"/>
</g>
<!-- node9&#45;&gt;node10 -->
<g id="edge20" class="edge">
<title>node9&#45;&gt;node10</title>
<path fill="none" stroke="red" d="M540.29,-218.81C534.87,-210.18 527.29,-199.56 519.82,-190.03"/>
<polygon fill="red" stroke="red" points="522.35,-187.6 513.33,-182.03 516.91,-192 522.35,-187.6"/>
</g>
<!-- node7&#45;&gt;node9 -->
<g id="edge3" class="edge">
<title>node7&#45;&gt;node9</title>
<path fill="none" stroke="green" d="M223.99,-437.69C213.31,-414.52 199.32,-373.2 219,-346 279.62,-262.21 407.48,-242.31 484.43,-238.23"/>
<polygon fill="green" stroke="green" points="484.65,-241.73 494.48,-237.78 484.33,-234.73 484.65,-241.73"/>
</g>
<!-- node7&#45;&gt;node11 -->
<g id="edge14" class="edge">
<title>node7&#45;&gt;node11</title>
<path fill="none" stroke="black" d="M233,-437.78C233,-423.41 233,-402.37 233,-384 233,-384 233,-384 233,-163 233,-148.65 233,-132.67 233,-119.51"/>
<polygon fill="black" stroke="black" points="236.5,-119.22 233,-109.22 229.5,-119.22 236.5,-119.22"/>
<text text-anchor="middle" x="241.45" y="-123.64" font-family="Times,serif" font-size="14.00">*1</text>
</g>
<!-- node8 -->
<g id="node5" class="node">
<title>node8</title>
<polygon fill="lightgrey" stroke="black" points="651.5,-328 532.5,-328 532.5,-292 651.5,-292 651.5,-328"/>
<text text-anchor="middle" x="592" y="-306.3" font-family="Times,serif" font-size="14.00">#8 LabelNode</text>
</g>
<!-- node8&#45;&gt;node9 -->
<g id="edge4" class="edge">
<title>node8&#45;&gt;node9</title>
<path fill="none" stroke="red" d="M581.11,-291.81C575.75,-283.35 569.17,-272.98 563.23,-263.61"/>
<polygon fill="red" stroke="red" points="566.1,-261.6 557.79,-255.03 560.19,-265.35 566.1,-261.6"/>
</g>
<!-- node6&#45;&gt;node7 -->
<g id="edge22" class="edge">
<title>node6&#45;&gt;node7</title>
<path fill="none" stroke="green" d="M539.25,-394.43C484.18,-405.32 396.62,-422.64 329.21,-435.97"/>
<polygon fill="green" stroke="green" points="328.12,-432.62 318.99,-437.99 329.48,-439.49 328.12,-432.62"/>
</g>
<!-- node6&#45;&gt;node8 -->
<g id="edge5" class="edge">
<title>node6&#45;&gt;node8</title>
<path fill="none" stroke="red" d="M592,-364.81C592,-356.79 592,-347.05 592,-338.07"/>
<polygon fill="red" stroke="red" points="595.5,-338.03 592,-328.03 588.5,-338.03 595.5,-338.03"/>
</g>
<!-- node2&#45;&gt;node6 -->
<g id="edge7" class="edge">
<title>node2&#45;&gt;node6</title>
<path fill="none" stroke="green" d="M827.14,-513.47C734.04,-499.85 609.41,-480.62 600,-474 577.23,-457.98 562.29,-445.76 570,-419 570.87,-415.99 572.08,-413 573.49,-410.09"/>
<polygon fill="green" stroke="green" points="576.62,-411.66 578.5,-401.23 570.53,-408.21 576.62,-411.66"/>
</g>
<!-- node2&#45;&gt;node10 -->
<g id="edge18" class="edge">
<title>node2&#45;&gt;node10</title>
<path fill="none" stroke="black" d="M884.99,-510.94C863.41,-499.43 842,-481.76 842,-457 842,-457 842,-457 842,-236 842,-194.59 745.93,-177.1 654.89,-169.82"/>
<polygon fill="black" stroke="black" points="654.91,-166.31 644.68,-169.05 654.38,-173.29 654.91,-166.31"/>
<text text-anchor="middle" x="663.39" y="-158.29" font-family="Times,serif" font-size="14.00">*1</text>
</g>
<!-- node5 -->
<g id="node8" class="node">
<title>node5</title>
<polygon fill="lightgrey" stroke="black" points="727.5,-474 608.5,-474 608.5,-438 727.5,-438 727.5,-474"/>
<text text-anchor="middle" x="668" y="-452.3" font-family="Times,serif" font-size="14.00">#5 LabelNode</text>
</g>
<!-- node5&#45;&gt;node6 -->
<g id="edge8" class="edge">
<title>node5&#45;&gt;node6</title>
<path fill="none" stroke="red" d="M649.6,-437.81C639.99,-428.83 628.07,-417.69 617.57,-407.89"/>
<polygon fill="red" stroke="red" points="619.92,-405.3 610.23,-401.03 615.15,-410.41 619.92,-405.3"/>
</g>
<!-- node3&#45;&gt;node5 -->
<g id="edge9" class="edge">
<title>node3&#45;&gt;node5</title>
<path fill="none" stroke="red" d="M668,-510.81C668,-502.79 668,-493.05 668,-484.07"/>
<polygon fill="red" stroke="red" points="671.5,-484.03 668,-474.03 664.5,-484.03 671.5,-484.03"/>
</g>
<!-- node12 -->
<g id="node12" class="node">
<title>node12</title>
<polygon fill="lightgrey" stroke="black" points="283.5,-36 182.5,-36 182.5,0 283.5,0 283.5,-36"/>
<text text-anchor="middle" x="233" y="-14.3" font-family="Times,serif" font-size="14.00">#12 Return</text>
</g>
<!-- node11&#45;&gt;node12 -->
<g id="edge23" class="edge">
<title>node11&#45;&gt;node12</title>
<path fill="none" stroke="red" d="M227.12,-72.81C226.28,-64.79 226.05,-55.05 226.42,-46.07"/>
<polygon fill="red" stroke="red" points="229.92,-46.25 227.14,-36.03 222.94,-45.75 229.92,-46.25"/>
</g>
<!-- node11&#45;&gt;node12 -->
<g id="edge24" class="edge">
<title>node11&#45;&gt;node12</title>
<path fill="none" stroke="green" d="M238.88,-72.81C239.72,-64.79 239.95,-55.05 239.58,-46.07"/>
<polygon fill="green" stroke="green" points="243.06,-45.75 238.86,-36.03 236.08,-46.25 243.06,-45.75"/>
</g>
<!-- node10&#45;&gt;node11 -->
<g id="edge15" class="edge">
<title>node10&#45;&gt;node11</title>
<path fill="none" stroke="green" d="M426.39,-145.99C387.5,-135.75 339.09,-122.66 300.41,-111.93"/>
<polygon fill="green" stroke="green" points="300.85,-108.42 290.28,-109.11 298.98,-115.17 300.85,-108.42"/>
</g>
<!-- node10&#45;&gt;node11 -->
<g id="edge16" class="edge">
<title>node10&#45;&gt;node11</title>
<path fill="none" stroke="red" d="M438.1,-145.99C401.16,-135.68 352.55,-122.49 311.9,-111.72"/>
<polygon fill="red" stroke="red" points="312.58,-108.28 302.02,-109.11 310.8,-115.05 312.58,-108.28"/>
</g>
<!-- c0 -->
<!-- c1 -->
<!-- c0&#45;&gt;c1 -->
<g id="edge25" class="edge">
<title>c0&#45;&gt;c1</title>
<path fill="none" stroke="red" d="M1341.89,-611C1353.11,-611 1411.24,-611 1436.86,-611"/>
<polygon fill="red" stroke="red" points="1437.06,-614.5 1447.06,-611 1437.06,-607.5 1437.06,-614.5"/>
<text text-anchor="middle" x="1394.5" y="-617.8" font-family="Times,serif" font-size="14.00">Control flow</text>
</g>
<!-- c2 -->
<!-- c3 -->
<!-- c2&#45;&gt;c3 -->
<g id="edge26" class="edge">
<title>c2&#45;&gt;c3</title>
<path fill="none" stroke="red" stroke-dasharray="5,2" d="M1135.08,-611C1152.05,-611 1268.21,-611 1306.08,-611"/>
<polygon fill="red" stroke="red" points="1306.17,-614.5 1316.17,-611 1306.17,-607.5 1306.17,-614.5"/>
<text text-anchor="middle" x="1225.5" y="-617.8" font-family="Times,serif" font-size="14.00">Control flow back edge</text>
</g>
<!-- d0 -->
<!-- d1 -->
<!-- d0&#45;&gt;d1 -->
<g id="edge27" class="edge">
<title>d0&#45;&gt;d1</title>
<path fill="none" stroke="black" d="M1023.86,-611C1033.41,-611 1077.31,-611 1098.92,-611"/>
<polygon fill="black" stroke="black" points="1099.15,-614.5 1109.15,-611 1099.15,-607.5 1099.15,-614.5"/>
<text text-anchor="middle" x="1066.5" y="-617.8" font-family="Times,serif" font-size="14.00">Data flow</text>
</g>
<!-- d2 -->
<!-- d3 -->
<!-- d2&#45;&gt;d3 -->
<g id="edge28" class="edge">
<title>d2&#45;&gt;d3</title>
<path fill="none" stroke="black" stroke-dasharray="1,5" d="M897.81,-611C908.46,-611 963.46,-611 988.08,-611"/>
<polygon fill="black" stroke="black" points="988.15,-614.5 998.15,-611 988.15,-607.5 988.15,-614.5"/>
<text text-anchor="middle" x="948" y="-617.8" font-family="Times,serif" font-size="14.00">Declaration</text>
</g>
<!-- d4 -->
<!-- d5 -->
<!-- d4&#45;&gt;d5 -->
<g id="edge29" class="edge">
<title>d4&#45;&gt;d5</title>
<path fill="none" stroke="blue" d="M755.1,-611C767.72,-611 833.88,-611 861.68,-611"/>
<polygon fill="blue" stroke="blue" points="861.84,-614.5 871.84,-611 861.84,-607.5 861.84,-614.5"/>
<text text-anchor="middle" x="813.5" y="-617.8" font-family="Times,serif" font-size="14.00">PHI Data flow</text>
</g>
<!-- d6 -->
<!-- d7 -->
<!-- d6&#45;&gt;d7 -->
<g id="edge30" class="edge">
<title>d6&#45;&gt;d7</title>
<path fill="none" stroke="green" d="M618,-611C629.94,-611 692.3,-611 718.93,-611"/>
<polygon fill="green" stroke="green" points="718.95,-614.5 728.95,-611 718.95,-607.5 718.95,-614.5"/>
<text text-anchor="middle" x="673.5" y="-617.8" font-family="Times,serif" font-size="14.00">Memory flow</text>
</g>
</g>
</svg>
