<?xml version="1.0" encoding="UTF-8" standalone="no"?>
<!DOCTYPE svg PUBLIC "-//W3C//DTD SVG 1.1//EN"
 "http://www.w3.org/Graphics/SVG/1.1/DTD/svg11.dtd">
<!-- Generated by graphviz version 2.43.0 (0)
 -->
<!-- Title: %3 Pages: 1 -->
<svg width="1679pt" height="806pt"
 viewBox="0.00 0.00 1678.72 805.80" xmlns="http://www.w3.org/2000/svg" xmlns:xlink="http://www.w3.org/1999/xlink">
<g id="graph0" class="graph" transform="scale(1 1) rotate(0) translate(4 801.8)">
<title>%3</title>
<polygon fill="white" stroke="transparent" points="-4,4 -4,-801.8 1674.72,-801.8 1674.72,4 -4,4"/>
<g id="clust1" class="cluster">
<title>cluster_0</title>
<polygon fill="none" stroke="lightgray" points="118.72,-503 118.72,-628 446.72,-628 446.72,-503 118.72,-503"/>
</g>
<g id="clust2" class="cluster">
<title>cluster_1</title>
<polygon fill="none" stroke="lightgray" points="338.72,-284 338.72,-409 666.72,-409 666.72,-284 338.72,-284"/>
</g>
<g id="clust3" class="cluster">
<title>cluster_000</title>
<polygon fill="none" stroke="black" points="809.72,-747.2 809.72,-789.8 1662.72,-789.8 1662.72,-747.2 809.72,-747.2"/>
<text text-anchor="middle" x="1236.22" y="-774.6" font-family="Times,serif" font-size="14.00">Legend</text>
</g>
<!-- node0 -->
<g id="node1" class="node">
<title>node0</title>
<polygon fill="lightgrey" stroke="transparent" points="799.72,-784 609.72,-784 609.72,-730 799.72,-730 799.72,-784"/>
<polygon fill="none" stroke="black" points="609.72,-757 609.72,-784 799.72,-784 799.72,-757 609.72,-757"/>
<text text-anchor="start" x="664.22" y="-766.8" font-family="Times,serif" font-size="14.00">#0 Method</text>
<polygon fill="yellow" stroke="transparent" points="609.72,-730 609.72,-757 799.72,-757 799.72,-730 609.72,-730"/>
<polygon fill="none" stroke="black" points="609.72,-730 609.72,-757 799.72,-757 799.72,-730 609.72,-730"/>
<text text-anchor="start" x="615.72" y="-739.8" font-family="Times,serif" font-size="14.00">this : MemoryAccessTest</text>
</g>
<!-- node12 -->
<g id="node2" class="node">
<title>node12</title>
<polygon fill="lightgrey" stroke="black" points="711.22,-109 442.22,-109 442.22,-73 711.22,-73 711.22,-109"/>
<text text-anchor="middle" x="576.72" y="-87.3" font-family="Times,serif" font-size="14.00">#12 PutField : instancmember : int</text>
</g>
<!-- node0&#45;&gt;node12 -->
<g id="edge1" class="edge">
<title>node0:prj1&#45;&gt;node12</title>
<path fill="none" stroke="black" d="M800.72,-743C806.91,-743 801.3,-734.33 805.72,-730 856.01,-680.68 954.72,-746.44 954.72,-676 954.72,-676 954.72,-676 954.72,-163 954.72,-113.56 828.21,-97.56 721.57,-92.86"/>
<polygon fill="black" stroke="black" points="721.45,-89.35 711.32,-92.43 721.16,-96.34 721.45,-89.35"/>
<text text-anchor="middle" x="729.77" y="-81.03" font-family="Times,serif" font-size="14.00">*0</text>
</g>
<!-- node2 -->
<g id="node6" class="node">
<title>node2</title>
<polygon fill="orange" stroke="black" points="888.44,-229.54 888.44,-244.46 780.82,-255 628.62,-255 520.99,-244.46 520.99,-229.54 628.62,-219 780.82,-219 888.44,-229.54"/>
<text text-anchor="middle" x="704.72" y="-233.3" font-family="Times,serif" font-size="14.00">#2 GetField : instancmember : int</text>
</g>
<!-- node0&#45;&gt;node2 -->
<g id="edge21" class="edge">
<title>node0:prj1&#45;&gt;node2</title>
<path fill="none" stroke="black" d="M704.72,-730C695.72,-706 695.72,-700 695.72,-676 695.72,-676 695.72,-676 695.72,-309 695.72,-294.65 695.72,-278.67 696.56,-265.51"/>
<polygon fill="black" stroke="black" points="700.08,-265.49 697.49,-255.22 693.11,-264.86 700.08,-265.49"/>
<text text-anchor="middle" x="704.28" y="-270.33" font-family="Times,serif" font-size="14.00">*0</text>
</g>
<!-- node0&#45;&gt;node2 -->
<g id="edge22" class="edge">
<title>node0&#45;&gt;node2</title>
<path fill="none" stroke="green" d="M704.82,-729.72C713.72,-705.95 713.72,-699.91 713.72,-676 713.72,-676 713.72,-676 713.72,-309 713.72,-294.65 713.72,-278.67 712.87,-265.51"/>
<polygon fill="green" stroke="green" points="716.33,-264.86 711.94,-255.22 709.35,-265.49 716.33,-264.86"/>
</g>
<!-- node3 -->
<g id="node12" class="node">
<title>node3</title>
<polygon fill="lightgrey" stroke="black" points="643.22,-693 524.22,-693 524.22,-657 643.22,-657 643.22,-693"/>
<text text-anchor="middle" x="583.72" y="-671.3" font-family="Times,serif" font-size="14.00">#3 LabelNode</text>
</g>
<!-- node0&#45;&gt;node3 -->
<g id="edge17" class="edge">
<title>node0&#45;&gt;node3</title>
<path fill="none" stroke="red" d="M665.1,-729.81C650.03,-719.84 632.99,-708.58 618.41,-698.94"/>
<polygon fill="red" stroke="red" points="619.96,-695.77 609.69,-693.17 616.1,-701.61 619.96,-695.77"/>
</g>
<!-- node13 -->
<g id="node13" class="node">
<title>node13</title>
<polygon fill="lightgrey" stroke="black" points="627.22,-36 526.22,-36 526.22,0 627.22,0 627.22,-36"/>
<text text-anchor="middle" x="576.72" y="-14.3" font-family="Times,serif" font-size="14.00">#13 Return</text>
</g>
<!-- node12&#45;&gt;node13 -->
<g id="edge24" class="edge">
<title>node12&#45;&gt;node13</title>
<path fill="none" stroke="red" d="M570.84,-72.81C570,-64.79 569.77,-55.05 570.14,-46.07"/>
<polygon fill="red" stroke="red" points="573.63,-46.25 570.85,-36.03 566.65,-45.75 573.63,-46.25"/>
</g>
<!-- node12&#45;&gt;node13 -->
<g id="edge25" class="edge">
<title>node12&#45;&gt;node13</title>
<path fill="none" stroke="green" d="M582.59,-72.81C583.43,-64.79 583.67,-55.05 583.29,-46.07"/>
<polygon fill="green" stroke="green" points="586.78,-45.75 582.58,-36.03 579.8,-46.25 586.78,-45.75"/>
</g>
<!-- node7 -->
<g id="node3" class="node">
<title>node7</title>
<polygon fill="orange" stroke="black" points="409.65,-156.54 409.65,-171.46 289.6,-182 119.83,-182 -0.22,-171.46 -0.22,-156.54 119.83,-146 289.6,-146 409.65,-156.54"/>
<text text-anchor="middle" x="204.72" y="-160.3" font-family="Times,serif" font-size="14.00">#7 GetStaticField : staticmember : int</text>
</g>
<!-- node7&#45;&gt;node12 -->
<g id="edge2" class="edge">
<title>node7&#45;&gt;node12</title>
<path fill="none" stroke="black" d="M292.88,-146.17C348.42,-135.57 420.25,-121.86 477.75,-110.89"/>
<polygon fill="black" stroke="black" points="478.41,-114.33 487.58,-109.01 477.1,-107.45 478.41,-114.33"/>
<text text-anchor="middle" x="471.36" y="-117.01" font-family="Times,serif" font-size="14.00">*1</text>
</g>
<!-- node10 -->
<g id="node7" class="node">
<title>node10</title>
<polygon fill="lightgrey" stroke="black" points="464.72,-255 350.72,-255 350.72,-219 464.72,-219 464.72,-255"/>
<text text-anchor="middle" x="407.72" y="-233.3" font-family="Times,serif" font-size="14.00">#10 ClassInit</text>
</g>
<!-- node7&#45;&gt;node10 -->
<g id="edge10" class="edge">
<title>node7&#45;&gt;node10</title>
<path fill="none" stroke="green" d="M253.65,-182.11C282.49,-192.2 319.16,-205.03 349.49,-215.63"/>
<polygon fill="green" stroke="green" points="348.5,-219 359.09,-218.99 350.81,-212.39 348.5,-219"/>
</g>
<!-- node11 -->
<g id="node4" class="node">
<title>node11</title>
<polygon fill="lightgrey" stroke="black" points="726.22,-182 427.22,-182 427.22,-146 726.22,-146 726.22,-182"/>
<text text-anchor="middle" x="576.72" y="-160.3" font-family="Times,serif" font-size="14.00">#11 PutStaticField : staticmember : int</text>
</g>
<!-- node11&#45;&gt;node12 -->
<g id="edge3" class="edge">
<title>node11&#45;&gt;node12</title>
<path fill="none" stroke="green" d="M570.84,-145.81C570,-137.79 569.77,-128.05 570.14,-119.07"/>
<polygon fill="green" stroke="green" points="573.63,-119.25 570.85,-109.03 566.65,-118.75 573.63,-119.25"/>
</g>
<!-- node11&#45;&gt;node12 -->
<g id="edge4" class="edge">
<title>node11&#45;&gt;node12</title>
<path fill="none" stroke="red" d="M582.59,-145.81C583.43,-137.79 583.67,-128.05 583.29,-119.07"/>
<polygon fill="red" stroke="red" points="586.78,-118.75 582.58,-109.03 579.8,-119.25 586.78,-118.75"/>
</g>
<!-- node9 -->
<g id="node5" class="node">
<title>node9</title>
<polygon fill="lightgreen" stroke="black" points="659.07,-302.54 659.07,-317.46 567.48,-328 437.95,-328 346.37,-317.46 346.37,-302.54 437.95,-292 567.48,-292 659.07,-302.54"/>
<text text-anchor="middle" x="502.72" y="-306.3" font-family="Times,serif" font-size="14.00">#9 Class MemoryAccessTest</text>
</g>
<!-- node9&#45;&gt;node11 -->
<g id="edge5" class="edge">
<title>node9&#45;&gt;node11</title>
<path fill="none" stroke="black" d="M500.73,-291.98C499.33,-273.03 499.48,-242.02 511.72,-219 518.14,-206.92 528.5,-196.48 539.09,-188.08"/>
<polygon fill="black" stroke="black" points="541.23,-190.85 547.16,-182.07 537.05,-185.23 541.23,-190.85"/>
<text text-anchor="middle" x="537.68" y="-195.97" font-family="Times,serif" font-size="14.00">*0</text>
</g>
<!-- node9&#45;&gt;node10 -->
<g id="edge9" class="edge">
<title>node9&#45;&gt;node10</title>
<path fill="none" stroke="black" d="M479.72,-291.81C467.35,-282.57 451.93,-271.04 438.53,-261.03"/>
<polygon fill="black" stroke="black" points="440.61,-258.21 430.5,-255.03 436.42,-263.82 440.61,-258.21"/>
<text text-anchor="middle" x="450.08" y="-255.41" font-family="Times,serif" font-size="14.00">*0</text>
</g>
<!-- node2&#45;&gt;node11 -->
<g id="edge6" class="edge">
<title>node2&#45;&gt;node11</title>
<path fill="none" stroke="black" d="M674.06,-218.99C656.77,-209.4 634.98,-197.32 616.4,-187.01"/>
<polygon fill="black" stroke="black" points="618.01,-183.9 607.57,-182.11 614.62,-190.02 618.01,-183.9"/>
<text text-anchor="middle" x="627.52" y="-179.81" font-family="Times,serif" font-size="14.00">*1</text>
</g>
<!-- node6 -->
<g id="node9" class="node">
<title>node6</title>
<polygon fill="lightgrey" stroke="black" points="466.22,-474 361.22,-474 361.22,-438 466.22,-438 466.22,-474"/>
<text text-anchor="middle" x="413.72" y="-452.3" font-family="Times,serif" font-size="14.00">#6 ClassInit</text>
</g>
<!-- node2&#45;&gt;node6 -->
<g id="edge14" class="edge">
<title>node2&#45;&gt;node6</title>
<path fill="none" stroke="green" d="M582,-250.45C466.38,-262.43 310.01,-279.39 304.72,-284 262.78,-320.51 264.69,-365.82 299.72,-409 312.71,-425.02 332.15,-435.5 351.31,-442.34"/>
<polygon fill="green" stroke="green" points="350.37,-445.72 360.96,-445.51 352.55,-439.07 350.37,-445.72"/>
</g>
<!-- node10&#45;&gt;node11 -->
<g id="edge7" class="edge">
<title>node10&#45;&gt;node11</title>
<path fill="none" stroke="green" d="M431.06,-218.82C442.59,-212.55 456.64,-205.62 469.72,-200 481.55,-194.91 494.4,-189.94 506.97,-185.42"/>
<polygon fill="green" stroke="green" points="508.24,-188.68 516.51,-182.05 505.92,-182.08 508.24,-188.68"/>
</g>
<!-- node10&#45;&gt;node11 -->
<g id="edge8" class="edge">
<title>node10&#45;&gt;node11</title>
<path fill="none" stroke="red" d="M447.89,-218.82C460.59,-212.55 474.64,-205.62 487.72,-200 499.37,-194.99 512.01,-190.09 524.02,-185.62"/>
<polygon fill="red" stroke="red" points="525.32,-188.88 533.49,-182.14 522.9,-182.31 525.32,-188.88"/>
</g>
<!-- node8 -->
<g id="node8" class="node">
<title>node8</title>
<polygon fill="lightgrey" stroke="black" points="473.22,-401 354.22,-401 354.22,-365 473.22,-365 473.22,-401"/>
<text text-anchor="middle" x="413.72" y="-379.3" font-family="Times,serif" font-size="14.00">#8 LabelNode</text>
</g>
<!-- node8&#45;&gt;node9 -->
<g id="edge23" class="edge">
<title>node8&#45;&gt;node9</title>
<path fill="none" stroke="black" stroke-dasharray="1,5" d="M435.26,-364.81C446.74,-355.66 461.02,-344.26 473.49,-334.32"/>
<polygon fill="black" stroke="black" points="475.74,-337 481.37,-328.03 471.37,-331.53 475.74,-337"/>
</g>
<!-- node8&#45;&gt;node10 -->
<g id="edge11" class="edge">
<title>node8&#45;&gt;node10</title>
<path fill="none" stroke="red" d="M375.72,-364.78C361.06,-356.02 345.88,-343.82 337.72,-328 328.75,-310.62 328.43,-301.21 337.72,-284 342.74,-274.69 350.56,-266.96 359.18,-260.65"/>
<polygon fill="red" stroke="red" points="361.24,-263.49 367.63,-255.05 357.36,-257.66 361.24,-263.49"/>
</g>
<!-- node6&#45;&gt;node7 -->
<g id="edge20" class="edge">
<title>node6&#45;&gt;node7</title>
<path fill="none" stroke="green" d="M366.54,-437.91C353.98,-430.95 341.91,-421.52 334.72,-409 307.03,-360.84 296.46,-324.28 334.72,-284 356.29,-261.29 876.15,-277.71 897.72,-255 908.74,-243.4 908.59,-230.74 897.72,-219 861.37,-179.75 471.04,-186.18 417.72,-182 399.21,-180.55 379.81,-179.02 360.56,-177.49"/>
<polygon fill="green" stroke="green" points="360.76,-173.99 350.51,-176.69 360.2,-180.97 360.76,-173.99"/>
</g>
<!-- node6&#45;&gt;node8 -->
<g id="edge12" class="edge">
<title>node6&#45;&gt;node8</title>
<path fill="none" stroke="red" d="M413.72,-437.81C413.72,-429.79 413.72,-420.05 413.72,-411.07"/>
<polygon fill="red" stroke="red" points="417.22,-411.03 413.72,-401.03 410.22,-411.03 417.22,-411.03"/>
</g>
<!-- node5 -->
<g id="node10" class="node">
<title>node5</title>
<polygon fill="lightgreen" stroke="black" points="439.07,-521.54 439.07,-536.46 347.48,-547 217.95,-547 126.37,-536.46 126.37,-521.54 217.95,-511 347.48,-511 439.07,-521.54"/>
<text text-anchor="middle" x="282.72" y="-525.3" font-family="Times,serif" font-size="14.00">#5 Class MemoryAccessTest</text>
</g>
<!-- node5&#45;&gt;node7 -->
<g id="edge19" class="edge">
<title>node5&#45;&gt;node7</title>
<path fill="none" stroke="black" d="M245.09,-510.91C225.14,-499.02 204.72,-480.99 204.72,-457 204.72,-457 204.72,-457 204.72,-236 204.72,-221.65 204.72,-205.67 204.72,-192.51"/>
<polygon fill="black" stroke="black" points="208.22,-192.22 204.72,-182.22 201.22,-192.22 208.22,-192.22"/>
<text text-anchor="middle" x="213.17" y="-196.64" font-family="Times,serif" font-size="14.00">*0</text>
</g>
<!-- node5&#45;&gt;node6 -->
<g id="edge13" class="edge">
<title>node5&#45;&gt;node6</title>
<path fill="none" stroke="black" d="M314.09,-510.99C331.79,-501.4 354.09,-489.32 373.1,-479.01"/>
<polygon fill="black" stroke="black" points="375.02,-481.96 382.14,-474.11 371.68,-475.8 375.02,-481.96"/>
<text text-anchor="middle" x="370.23" y="-486.48" font-family="Times,serif" font-size="14.00">*0</text>
</g>
<!-- node4 -->
<g id="node11" class="node">
<title>node4</title>
<polygon fill="lightgrey" stroke="black" points="438.22,-620 319.22,-620 319.22,-584 438.22,-584 438.22,-620"/>
<text text-anchor="middle" x="378.72" y="-598.3" font-family="Times,serif" font-size="14.00">#4 LabelNode</text>
</g>
<!-- node4&#45;&gt;node6 -->
<g id="edge15" class="edge">
<title>node4&#45;&gt;node6</title>
<path fill="none" stroke="red" d="M411.84,-583.98C425.61,-575 440.12,-562.59 447.72,-547 456.28,-529.42 453.84,-521.57 447.72,-503 445.32,-495.74 441.29,-488.68 436.83,-482.37"/>
<polygon fill="red" stroke="red" points="439.46,-480.05 430.58,-474.26 433.92,-484.32 439.46,-480.05"/>
</g>
<!-- node4&#45;&gt;node5 -->
<g id="edge18" class="edge">
<title>node4&#45;&gt;node5</title>
<path fill="none" stroke="black" stroke-dasharray="1,5" d="M355.48,-583.81C342.98,-574.57 327.39,-563.04 313.86,-553.03"/>
<polygon fill="black" stroke="black" points="315.86,-550.16 305.74,-547.03 311.7,-555.79 315.86,-550.16"/>
</g>
<!-- node3&#45;&gt;node4 -->
<g id="edge16" class="edge">
<title>node3&#45;&gt;node4</title>
<path fill="none" stroke="red" d="M534.61,-656.99C505.54,-646.92 468.52,-634.1 437.85,-623.48"/>
<polygon fill="red" stroke="red" points="438.72,-620.08 428.13,-620.11 436.43,-626.69 438.72,-620.08"/>
</g>
<!-- c0 -->
<!-- c1 -->
<!-- c0&#45;&gt;c1 -->
<g id="edge26" class="edge">
<title>c0&#45;&gt;c1</title>
<path fill="none" stroke="red" d="M1545.61,-757C1556.82,-757 1614.96,-757 1640.57,-757"/>
<polygon fill="red" stroke="red" points="1640.77,-760.5 1650.77,-757 1640.77,-753.5 1640.77,-760.5"/>
<text text-anchor="middle" x="1598.22" y="-763.8" font-family="Times,serif" font-size="14.00">Control flow</text>
</g>
<!-- c2 -->
<!-- c3 -->
<!-- c2&#45;&gt;c3 -->
<g id="edge27" class="edge">
<title>c2&#45;&gt;c3</title>
<path fill="none" stroke="red" stroke-dasharray="5,2" d="M1338.79,-757C1355.76,-757 1471.92,-757 1509.8,-757"/>
<polygon fill="red" stroke="red" points="1509.89,-760.5 1519.89,-757 1509.89,-753.5 1509.89,-760.5"/>
<text text-anchor="middle" x="1429.22" y="-763.8" font-family="Times,serif" font-size="14.00">Control flow back edge</text>
</g>
<!-- d0 -->
<!-- d1 -->
<!-- d0&#45;&gt;d1 -->
<g id="edge28" class="edge">
<title>d0&#45;&gt;d1</title>
<path fill="none" stroke="black" d="M1227.58,-757C1237.12,-757 1281.03,-757 1302.63,-757"/>
<polygon fill="black" stroke="black" points="1302.87,-760.5 1312.87,-757 1302.87,-753.5 1302.87,-760.5"/>
<text text-anchor="middle" x="1270.22" y="-763.8" font-family="Times,serif" font-size="14.00">Data flow</text>
</g>
<!-- d2 -->
<!-- d3 -->
<!-- d2&#45;&gt;d3 -->
<g id="edge29" class="edge">
<title>d2&#45;&gt;d3</title>
<path fill="none" stroke="black" stroke-dasharray="1,5" d="M1101.52,-757C1112.17,-757 1167.18,-757 1191.79,-757"/>
<polygon fill="black" stroke="black" points="1191.86,-760.5 1201.86,-757 1191.86,-753.5 1191.86,-760.5"/>
<text text-anchor="middle" x="1151.72" y="-763.8" font-family="Times,serif" font-size="14.00">Declaration</text>
</g>
<!-- d4 -->
<!-- d5 -->
<!-- d4&#45;&gt;d5 -->
<g id="edge30" class="edge">
<title>d4&#45;&gt;d5</title>
<path fill="none" stroke="blue" d="M958.82,-757C971.44,-757 1037.6,-757 1065.4,-757"/>
<polygon fill="blue" stroke="blue" points="1065.56,-760.5 1075.56,-757 1065.56,-753.5 1065.56,-760.5"/>
<text text-anchor="middle" x="1017.22" y="-763.8" font-family="Times,serif" font-size="14.00">PHI Data flow</text>
</g>
<!-- d6 -->
<!-- d7 -->
<!-- d6&#45;&gt;d7 -->
<g id="edge31" class="edge">
<title>d6&#45;&gt;d7</title>
<path fill="none" stroke="green" d="M821.71,-757C833.65,-757 896.02,-757 922.64,-757"/>
<polygon fill="green" stroke="green" points="922.67,-760.5 932.67,-757 922.67,-753.5 922.67,-760.5"/>
<text text-anchor="middle" x="877.22" y="-763.8" font-family="Times,serif" font-size="14.00">Memory flow</text>
</g>
</g>
</svg>
