<?xml version="1.0" encoding="UTF-8" standalone="no"?>
<!DOCTYPE svg PUBLIC "-//W3C//DTD SVG 1.1//EN"
 "http://www.w3.org/Graphics/SVG/1.1/DTD/svg11.dtd">
<!-- Generated by graphviz version 2.43.0 (0)
 -->
<!-- Title: %3 Pages: 1 -->
<svg width="1252pt" height="879pt"
 viewBox="0.00 0.00 1252.00 878.80" xmlns="http://www.w3.org/2000/svg" xmlns:xlink="http://www.w3.org/1999/xlink">
<g id="graph0" class="graph" transform="scale(1 1) rotate(0) translate(4 874.8)">
<title>%3</title>
<polygon fill="white" stroke="transparent" points="-4,4 -4,-874.8 1248,-874.8 1248,4 -4,4"/>
<g id="clust1" class="cluster">
<title>cluster_0</title>
<polygon fill="none" stroke="lightgray" points="150,-649 150,-774 574,-774 574,-649 150,-649"/>
</g>
<g id="clust2" class="cluster">
<title>cluster_1</title>
<polygon fill="none" stroke="lightgray" points="152,-357 152,-482 530,-482 530,-357 152,-357"/>
</g>
<g id="clust3" class="cluster">
<title>cluster_000</title>
<polygon fill="none" stroke="black" points="383,-820.2 383,-862.8 1236,-862.8 1236,-820.2 383,-820.2"/>
<text text-anchor="middle" x="809.5" y="-847.6" font-family="Times,serif" font-size="14.00">Legend</text>
</g>
<!-- node0 -->
<g id="node1" class="node">
<title>node0</title>
<polygon fill="lightgrey" stroke="transparent" points="373.5,-857 206.5,-857 206.5,-803 373.5,-803 373.5,-857"/>
<polygon fill="none" stroke="black" points="207,-830 207,-857 374,-857 374,-830 207,-830"/>
<text text-anchor="start" x="250" y="-839.8" font-family="Times,serif" font-size="14.00">#0 Method</text>
<polygon fill="yellow" stroke="transparent" points="207,-803 207,-830 374,-830 374,-803 207,-803"/>
<polygon fill="none" stroke="black" points="207,-803 207,-830 374,-830 374,-803 207,-803"/>
<text text-anchor="start" x="213" y="-812.8" font-family="Times,serif" font-size="14.00">this : FieldAccessTest</text>
</g>
<!-- node4 -->
<g id="node2" class="node">
<title>node4</title>
<polygon fill="lightgrey" stroke="black" points="297.5,-620 192.5,-620 192.5,-584 297.5,-584 297.5,-620"/>
<text text-anchor="middle" x="245" y="-598.3" font-family="Times,serif" font-size="14.00">#4 ClassInit</text>
</g>
<!-- node0&#45;&gt;node4 -->
<g id="edge3" class="edge">
<title>node0&#45;&gt;node4</title>
<path fill="none" stroke="green" d="M206.37,-815.43C182.98,-807.36 160.11,-794.5 146,-774 114.49,-728.24 116.12,-695.83 146,-649 154.61,-635.5 168.32,-625.9 182.83,-619.1"/>
<polygon fill="green" stroke="green" points="184.6,-622.15 192.43,-615.02 181.86,-615.71 184.6,-622.15"/>
</g>
<!-- node2 -->
<g id="node4" class="node">
<title>node2</title>
<polygon fill="lightgrey" stroke="black" points="349.5,-766 230.5,-766 230.5,-730 349.5,-730 349.5,-766"/>
<text text-anchor="middle" x="290" y="-744.3" font-family="Times,serif" font-size="14.00">#2 LabelNode</text>
</g>
<!-- node0&#45;&gt;node2 -->
<g id="edge4" class="edge">
<title>node0&#45;&gt;node2</title>
<path fill="none" stroke="red" d="M290,-802.81C290,-794.35 290,-784.95 290,-776.4"/>
<polygon fill="red" stroke="red" points="293.5,-776.17 290,-766.17 286.5,-776.17 293.5,-776.17"/>
</g>
<!-- node5 -->
<g id="node5" class="node">
<title>node5</title>
<polygon fill="orange" stroke="black" points="257.12,-521.54 257.12,-536.46 226.59,-547 183.41,-547 152.88,-536.46 152.88,-521.54 183.41,-511 226.59,-511 257.12,-521.54"/>
<text text-anchor="middle" x="205" y="-525.3" font-family="Times,serif" font-size="14.00">#5 New</text>
</g>
<!-- node4&#45;&gt;node5 -->
<g id="edge6" class="edge">
<title>node4&#45;&gt;node5</title>
<path fill="none" stroke="black" d="M229.44,-583.81C223.9,-575.53 217.98,-565.41 213.22,-556.19"/>
<polygon fill="black" stroke="black" points="216.27,-554.47 208.73,-547.03 209.98,-557.55 216.27,-554.47"/>
<text text-anchor="middle" x="224.29" y="-555.89" font-family="Times,serif" font-size="14.00">*0</text>
</g>
<!-- node4&#45;&gt;node5 -->
<g id="edge7" class="edge">
<title>node4&#45;&gt;node5</title>
<path fill="none" stroke="green" d="M241.2,-583.81C237.31,-575.35 231.68,-564.98 225.94,-555.61"/>
<polygon fill="green" stroke="green" points="228.79,-553.57 220.46,-547.03 222.89,-557.34 228.79,-553.57"/>
</g>
<!-- node6 -->
<g id="node12" class="node">
<title>node6</title>
<polygon fill="lightgrey" stroke="black" points="410,-474 160,-474 160,-438 410,-438 410,-474"/>
<text text-anchor="middle" x="285" y="-452.3" font-family="Times,serif" font-size="14.00">#6 Invoke special &lt;init&gt; : ()void</text>
</g>
<!-- node4&#45;&gt;node6 -->
<g id="edge21" class="edge">
<title>node4&#45;&gt;node6</title>
<path fill="none" stroke="red" d="M252.54,-583.74C256.91,-573.26 262.27,-559.53 266,-547 272.18,-526.24 277.15,-502.22 280.45,-484.22"/>
<polygon fill="red" stroke="red" points="283.94,-484.58 282.24,-474.13 277.05,-483.36 283.94,-484.58"/>
</g>
<!-- node3 -->
<g id="node3" class="node">
<title>node3</title>
<polygon fill="lightgreen" stroke="black" points="566.03,-667.54 566.03,-682.46 446.51,-693 277.49,-693 157.97,-682.46 157.97,-667.54 277.49,-657 446.51,-657 566.03,-667.54"/>
<text text-anchor="middle" x="362" y="-671.3" font-family="Times,serif" font-size="14.00">#3 Class FieldAccessTest$Destination</text>
</g>
<!-- node3&#45;&gt;node4 -->
<g id="edge1" class="edge">
<title>node3&#45;&gt;node4</title>
<path fill="none" stroke="black" d="M333.98,-656.99C318.46,-647.58 298.98,-635.76 282.2,-625.57"/>
<polygon fill="black" stroke="black" points="283.57,-622.31 273.2,-620.11 279.93,-628.29 283.57,-622.31"/>
<text text-anchor="middle" x="293.08" y="-618.59" font-family="Times,serif" font-size="14.00">*0</text>
</g>
<!-- node2&#45;&gt;node4 -->
<g id="edge2" class="edge">
<title>node2&#45;&gt;node4</title>
<path fill="none" stroke="red" d="M230.47,-738.28C201.67,-730.97 169.07,-717.56 149,-693 133.33,-673.82 125.52,-658.09 140,-638 150.14,-623.93 166.19,-615.43 182.72,-610.32"/>
<polygon fill="red" stroke="red" points="183.72,-613.67 192.46,-607.69 181.9,-606.92 183.72,-613.67"/>
</g>
<!-- node2&#45;&gt;node3 -->
<g id="edge5" class="edge">
<title>node2&#45;&gt;node3</title>
<path fill="none" stroke="black" stroke-dasharray="1,5" d="M307.43,-729.81C316.45,-720.92 327.61,-709.91 337.49,-700.17"/>
<polygon fill="black" stroke="black" points="340.07,-702.54 344.73,-693.03 335.15,-697.56 340.07,-702.54"/>
</g>
<!-- node12 -->
<g id="node6" class="node">
<title>node12</title>
<polygon fill="lightgrey" stroke="black" points="287.5,-109 72.5,-109 72.5,-73 287.5,-73 287.5,-109"/>
<text text-anchor="middle" x="180" y="-87.3" font-family="Times,serif" font-size="14.00">#12 PutField : int_field : int</text>
</g>
<!-- node5&#45;&gt;node12 -->
<g id="edge8" class="edge">
<title>node5&#45;&gt;node12</title>
<path fill="none" stroke="black" d="M154.85,-520.81C94.16,-510.67 0,-489.67 0,-457 0,-457 0,-457 0,-163 0,-141.68 44.26,-124.05 88.88,-111.68"/>
<polygon fill="black" stroke="black" points="89.94,-115.02 98.69,-109.05 88.12,-108.26 89.94,-115.02"/>
<text text-anchor="middle" x="83.38" y="-118.21" font-family="Times,serif" font-size="14.00">*0</text>
</g>
<!-- node5&#45;&gt;node6 -->
<g id="edge20" class="edge">
<title>node5&#45;&gt;node6</title>
<path fill="none" stroke="black" d="M218.49,-510.81C227.76,-501.74 240.28,-490.48 252.01,-480.6"/>
<polygon fill="black" stroke="black" points="254.48,-483.1 259.95,-474.03 250.01,-477.71 254.48,-483.1"/>
<text text-anchor="middle" x="251.37" y="-488.4" font-family="Times,serif" font-size="14.00">*0</text>
</g>
<!-- node5&#45;&gt;node6 -->
<g id="edge22" class="edge">
<title>node5&#45;&gt;node6</title>
<path fill="none" stroke="green" d="M229.36,-511.53C240.53,-502.5 253.55,-491.13 264.25,-481.12"/>
<polygon fill="green" stroke="green" points="266.77,-483.56 271.58,-474.12 261.93,-478.5 266.77,-483.56"/>
</g>
<!-- node13 -->
<g id="node13" class="node">
<title>node13</title>
<polygon fill="lightgrey" stroke="black" points="230.5,-36 129.5,-36 129.5,0 230.5,0 230.5,-36"/>
<text text-anchor="middle" x="180" y="-14.3" font-family="Times,serif" font-size="14.00">#13 Return</text>
</g>
<!-- node12&#45;&gt;node13 -->
<g id="edge26" class="edge">
<title>node12&#45;&gt;node13</title>
<path fill="none" stroke="red" d="M174.12,-72.81C173.28,-64.79 173.05,-55.05 173.42,-46.07"/>
<polygon fill="red" stroke="red" points="176.92,-46.25 174.14,-36.03 169.94,-45.75 176.92,-46.25"/>
</g>
<!-- node12&#45;&gt;node13 -->
<g id="edge27" class="edge">
<title>node12&#45;&gt;node13</title>
<path fill="none" stroke="green" d="M185.88,-72.81C186.72,-64.79 186.95,-55.05 186.58,-46.07"/>
<polygon fill="green" stroke="green" points="190.06,-45.75 185.86,-36.03 183.08,-46.25 190.06,-45.75"/>
</g>
<!-- node11 -->
<g id="node7" class="node">
<title>node11</title>
<polygon fill="orange" stroke="black" points="331.91,-156.54 331.91,-171.46 242.92,-182 117.08,-182 28.09,-171.46 28.09,-156.54 117.08,-146 242.92,-146 331.91,-156.54"/>
<text text-anchor="middle" x="180" y="-160.3" font-family="Times,serif" font-size="14.00">#11 GetField : int_field : int</text>
</g>
<!-- node11&#45;&gt;node12 -->
<g id="edge9" class="edge">
<title>node11&#45;&gt;node12</title>
<path fill="none" stroke="black" d="M174.12,-145.81C173.28,-137.79 173.05,-128.05 173.42,-119.07"/>
<polygon fill="black" stroke="black" points="176.92,-119.25 174.14,-109.03 169.94,-118.75 176.92,-119.25"/>
<text text-anchor="middle" x="181.28" y="-124.01" font-family="Times,serif" font-size="14.00">*1</text>
</g>
<!-- node11&#45;&gt;node12 -->
<g id="edge10" class="edge">
<title>node11&#45;&gt;node12</title>
<path fill="none" stroke="green" d="M185.88,-145.81C186.72,-137.79 186.95,-128.05 186.58,-119.07"/>
<polygon fill="green" stroke="green" points="190.06,-118.75 185.86,-109.03 183.08,-119.25 190.06,-118.75"/>
</g>
<!-- node10 -->
<g id="node8" class="node">
<title>node10</title>
<polygon fill="lightgrey" stroke="black" points="626.5,-182 367.5,-182 367.5,-146 626.5,-146 626.5,-182"/>
<text text-anchor="middle" x="497" y="-160.3" font-family="Times,serif" font-size="14.00">#10 Invoke special &lt;init&gt; : ()void</text>
</g>
<!-- node10&#45;&gt;node12 -->
<g id="edge11" class="edge">
<title>node10&#45;&gt;node12</title>
<path fill="none" stroke="red" d="M421.07,-145.99C374.37,-135.53 314.41,-122.11 265.97,-111.26"/>
<polygon fill="red" stroke="red" points="266.66,-107.82 256.13,-109.05 265.13,-114.65 266.66,-107.82"/>
</g>
<!-- node10&#45;&gt;node11 -->
<g id="edge25" class="edge">
<title>node10&#45;&gt;node11</title>
<path fill="none" stroke="green" d="M367.45,-164C359.05,-164 350.65,-164 342.25,-164"/>
<polygon fill="green" stroke="green" points="342,-160.5 332,-164 342,-167.5 342,-160.5"/>
</g>
<!-- node9 -->
<g id="node9" class="node">
<title>node9</title>
<polygon fill="orange" stroke="black" points="393.12,-229.54 393.12,-244.46 362.59,-255 319.41,-255 288.88,-244.46 288.88,-229.54 319.41,-219 362.59,-219 393.12,-229.54"/>
<text text-anchor="middle" x="341" y="-233.3" font-family="Times,serif" font-size="14.00">#9 New</text>
</g>
<!-- node9&#45;&gt;node11 -->
<g id="edge24" class="edge">
<title>node9&#45;&gt;node11</title>
<path fill="none" stroke="black" d="M309.58,-222.14C286.43,-211.93 254.53,-197.87 228.17,-186.24"/>
<polygon fill="black" stroke="black" points="229.3,-182.92 218.74,-182.08 226.48,-189.32 229.3,-182.92"/>
<text text-anchor="middle" x="238.74" y="-177.96" font-family="Times,serif" font-size="14.00">*0</text>
</g>
<!-- node9&#45;&gt;node10 -->
<g id="edge12" class="edge">
<title>node9&#45;&gt;node10</title>
<path fill="none" stroke="black" d="M368.45,-220.94C389.5,-210.79 419.04,-197.26 444.54,-186.04"/>
<polygon fill="black" stroke="black" points="445.96,-189.24 453.72,-182.03 443.16,-182.83 445.96,-189.24"/>
<text text-anchor="middle" x="440.5" y="-193.33" font-family="Times,serif" font-size="14.00">*0</text>
</g>
<!-- node9&#45;&gt;node10 -->
<g id="edge14" class="edge">
<title>node9&#45;&gt;node10</title>
<path fill="none" stroke="green" d="M374.59,-223.14C398.61,-212.89 430.93,-198.32 456.38,-186.33"/>
<polygon fill="green" stroke="green" points="457.89,-189.49 465.42,-182.04 454.89,-183.16 457.89,-189.49"/>
</g>
<!-- node8 -->
<g id="node10" class="node">
<title>node8</title>
<polygon fill="lightgrey" stroke="black" points="393.5,-328 288.5,-328 288.5,-292 393.5,-292 393.5,-328"/>
<text text-anchor="middle" x="341" y="-306.3" font-family="Times,serif" font-size="14.00">#8 ClassInit</text>
</g>
<!-- node8&#45;&gt;node10 -->
<g id="edge13" class="edge">
<title>node8&#45;&gt;node10</title>
<path fill="none" stroke="red" d="M360.65,-291.9C372.68,-281.36 388.34,-267.51 402,-255 426,-233.02 452.89,-207.45 471.92,-189.2"/>
<polygon fill="red" stroke="red" points="474.52,-191.55 479.31,-182.1 469.67,-186.51 474.52,-191.55"/>
</g>
<!-- node8&#45;&gt;node9 -->
<g id="edge15" class="edge">
<title>node8&#45;&gt;node9</title>
<path fill="none" stroke="black" d="M335.12,-291.81C334.28,-283.79 334.05,-274.05 334.42,-265.07"/>
<polygon fill="black" stroke="black" points="337.92,-265.25 335.14,-255.03 330.94,-264.75 337.92,-265.25"/>
<text text-anchor="middle" x="342.28" y="-270.01" font-family="Times,serif" font-size="14.00">*0</text>
</g>
<!-- node8&#45;&gt;node9 -->
<g id="edge16" class="edge">
<title>node8&#45;&gt;node9</title>
<path fill="none" stroke="green" d="M346.88,-291.81C347.72,-283.79 347.95,-274.05 347.58,-265.07"/>
<polygon fill="green" stroke="green" points="351.06,-264.75 346.86,-255.03 344.08,-265.25 351.06,-264.75"/>
</g>
<!-- node7 -->
<g id="node11" class="node">
<title>node7</title>
<polygon fill="lightgreen" stroke="black" points="521.6,-375.54 521.6,-390.46 415.81,-401 266.19,-401 160.4,-390.46 160.4,-375.54 266.19,-365 415.81,-365 521.6,-375.54"/>
<text text-anchor="middle" x="341" y="-379.3" font-family="Times,serif" font-size="14.00">#7 Class FieldAccessTest$Source</text>
</g>
<!-- node7&#45;&gt;node8 -->
<g id="edge17" class="edge">
<title>node7&#45;&gt;node8</title>
<path fill="none" stroke="black" d="M341,-364.81C341,-356.79 341,-347.05 341,-338.07"/>
<polygon fill="black" stroke="black" points="344.5,-338.03 341,-328.03 337.5,-338.03 344.5,-338.03"/>
<text text-anchor="middle" x="349.45" y="-342.45" font-family="Times,serif" font-size="14.00">*0</text>
</g>
<!-- node6&#45;&gt;node8 -->
<g id="edge18" class="edge">
<title>node6&#45;&gt;node8</title>
<path fill="none" stroke="red" d="M191.39,-437.99C171.83,-430 153.65,-418.25 142,-401 131.06,-384.79 129.91,-372.37 142,-357 158.48,-336.06 226.23,-323.5 278.23,-316.92"/>
<polygon fill="red" stroke="red" points="278.9,-320.36 288.4,-315.68 278.05,-313.42 278.9,-320.36"/>
</g>
<!-- node6&#45;&gt;node8 -->
<g id="edge19" class="edge">
<title>node6&#45;&gt;node8</title>
<path fill="none" stroke="green" d="M208.78,-437.99C189.83,-430 171.65,-418.25 160,-401 149.06,-384.79 147.91,-372.37 160,-357 174.96,-337.99 232.16,-325.89 278.38,-318.9"/>
<polygon fill="green" stroke="green" points="278.96,-322.35 288.35,-317.44 277.95,-315.42 278.96,-322.35"/>
</g>
<!-- node6&#45;&gt;node7 -->
<g id="edge23" class="edge">
<title>node6&#45;&gt;node7</title>
<path fill="none" stroke="black" stroke-dasharray="1,5" d="M298.56,-437.81C305.37,-429.18 313.75,-418.56 321.25,-409.03"/>
<polygon fill="black" stroke="black" points="324.12,-411.05 327.57,-401.03 318.63,-406.71 324.12,-411.05"/>
</g>
<!-- c0 -->
<!-- c1 -->
<!-- c0&#45;&gt;c1 -->
<g id="edge28" class="edge">
<title>c0&#45;&gt;c1</title>
<path fill="none" stroke="red" d="M1118.89,-830C1130.11,-830 1188.24,-830 1213.86,-830"/>
<polygon fill="red" stroke="red" points="1214.06,-833.5 1224.06,-830 1214.06,-826.5 1214.06,-833.5"/>
<text text-anchor="middle" x="1171.5" y="-836.8" font-family="Times,serif" font-size="14.00">Control flow</text>
</g>
<!-- c2 -->
<!-- c3 -->
<!-- c2&#45;&gt;c3 -->
<g id="edge29" class="edge">
<title>c2&#45;&gt;c3</title>
<path fill="none" stroke="red" stroke-dasharray="5,2" d="M912.08,-830C929.05,-830 1045.21,-830 1083.08,-830"/>
<polygon fill="red" stroke="red" points="1083.17,-833.5 1093.17,-830 1083.17,-826.5 1083.17,-833.5"/>
<text text-anchor="middle" x="1002.5" y="-836.8" font-family="Times,serif" font-size="14.00">Control flow back edge</text>
</g>
<!-- d0 -->
<!-- d1 -->
<!-- d0&#45;&gt;d1 -->
<g id="edge30" class="edge">
<title>d0&#45;&gt;d1</title>
<path fill="none" stroke="black" d="M800.86,-830C810.41,-830 854.31,-830 875.92,-830"/>
<polygon fill="black" stroke="black" points="876.15,-833.5 886.15,-830 876.15,-826.5 876.15,-833.5"/>
<text text-anchor="middle" x="843.5" y="-836.8" font-family="Times,serif" font-size="14.00">Data flow</text>
</g>
<!-- d2 -->
<!-- d3 -->
<!-- d2&#45;&gt;d3 -->
<g id="edge31" class="edge">
<title>d2&#45;&gt;d3</title>
<path fill="none" stroke="black" stroke-dasharray="1,5" d="M674.81,-830C685.46,-830 740.46,-830 765.08,-830"/>
<polygon fill="black" stroke="black" points="765.15,-833.5 775.15,-830 765.15,-826.5 765.15,-833.5"/>
<text text-anchor="middle" x="725" y="-836.8" font-family="Times,serif" font-size="14.00">Declaration</text>
</g>
<!-- d4 -->
<!-- d5 -->
<!-- d4&#45;&gt;d5 -->
<g id="edge32" class="edge">
<title>d4&#45;&gt;d5</title>
<path fill="none" stroke="blue" d="M532.1,-830C544.72,-830 610.88,-830 638.68,-830"/>
<polygon fill="blue" stroke="blue" points="638.84,-833.5 648.84,-830 638.84,-826.5 638.84,-833.5"/>
<text text-anchor="middle" x="590.5" y="-836.8" font-family="Times,serif" font-size="14.00">PHI Data flow</text>
</g>
<!-- d6 -->
<!-- d7 -->
<!-- d6&#45;&gt;d7 -->
<g id="edge33" class="edge">
<title>d6&#45;&gt;d7</title>
<path fill="none" stroke="green" d="M395,-830C406.94,-830 469.3,-830 495.93,-830"/>
<polygon fill="green" stroke="green" points="495.95,-833.5 505.95,-830 495.95,-826.5 495.95,-833.5"/>
<text text-anchor="middle" x="450.5" y="-836.8" font-family="Times,serif" font-size="14.00">Memory flow</text>
</g>
</g>
</svg>
