<?xml version="1.0" encoding="UTF-8" standalone="no"?>
<!DOCTYPE svg PUBLIC "-//W3C//DTD SVG 1.1//EN"
 "http://www.w3.org/Graphics/SVG/1.1/DTD/svg11.dtd">
<!-- Generated by graphviz version 2.43.0 (0)
 -->
<!-- Title: %3 Pages: 1 -->
<svg width="1837pt" height="735pt"
 viewBox="0.00 0.00 1836.66 735.00" xmlns="http://www.w3.org/2000/svg" xmlns:xlink="http://www.w3.org/1999/xlink">
<g id="graph0" class="graph" transform="scale(1 1) rotate(0) translate(4 731)">
<title>%3</title>
<polygon fill="white" stroke="transparent" points="-4,4 -4,-731 1832.66,-731 1832.66,4 -4,4"/>
<g id="clust1" class="cluster">
<title>cluster_0</title>
<polygon fill="none" stroke="lightgray" points="155.66,-576 155.66,-719 959.66,-719 959.66,-576 155.66,-576"/>
</g>
<g id="clust2" class="cluster">
<title>cluster_000</title>
<polygon fill="none" stroke="black" points="967.66,-674.2 967.66,-716.8 1820.66,-716.8 1820.66,-674.2 967.66,-674.2"/>
<text text-anchor="middle" x="1394.16" y="-701.6" font-family="Times,serif" font-size="14.00">Legend</text>
</g>
<!-- node0 -->
<g id="node1" class="node">
<title>node0</title>
<polygon fill="lightgrey" stroke="transparent" points="451.16,-711 284.16,-711 284.16,-657 451.16,-657 451.16,-711"/>
<polygon fill="none" stroke="black" points="284.66,-684 284.66,-711 451.66,-711 451.66,-684 284.66,-684"/>
<text text-anchor="start" x="327.66" y="-693.8" font-family="Times,serif" font-size="14.00">#0 Method</text>
<polygon fill="yellow" stroke="transparent" points="284.66,-657 284.66,-684 451.66,-684 451.66,-657 284.66,-657"/>
<polygon fill="none" stroke="black" points="284.66,-657 284.66,-684 451.66,-684 451.66,-657 284.66,-657"/>
<text text-anchor="start" x="290.66" y="-666.8" font-family="Times,serif" font-size="14.00">this : FieldAccessTest</text>
</g>
<!-- node4 -->
<g id="node2" class="node">
<title>node4</title>
<polygon fill="lightgreen" stroke="black" points="571.69,-594.54 571.69,-609.46 452.17,-620 283.15,-620 163.64,-609.46 163.64,-594.54 283.15,-584 452.17,-584 571.69,-594.54"/>
<text text-anchor="middle" x="367.66" y="-598.3" font-family="Times,serif" font-size="14.00">#4 Class FieldAccessTest$Destination</text>
</g>
<!-- node0&#45;&gt;node4 -->
<g id="edge1" class="edge">
<title>node0&#45;&gt;node4</title>
<path fill="none" stroke="black" stroke-dasharray="1,5" d="M367.66,-656.81C367.66,-648.35 367.66,-638.95 367.66,-630.4"/>
<polygon fill="black" stroke="black" points="371.16,-630.17 367.66,-620.17 364.16,-630.17 371.16,-630.17"/>
</g>
<!-- node5 -->
<g id="node3" class="node">
<title>node5</title>
<polygon fill="lightgrey" stroke="black" points="420.16,-547 315.16,-547 315.16,-511 420.16,-511 420.16,-547"/>
<text text-anchor="middle" x="367.66" y="-525.3" font-family="Times,serif" font-size="14.00">#5 ClassInit</text>
</g>
<!-- node0&#45;&gt;node5 -->
<g id="edge4" class="edge">
<title>node0&#45;&gt;node5</title>
<path fill="none" stroke="green" d="M283.96,-683.32C157.14,-681.04 -61.12,-664.65 16.66,-576 35.34,-554.72 209.02,-540.24 304.86,-533.8"/>
<polygon fill="green" stroke="green" points="305.27,-537.28 315.01,-533.12 304.8,-530.29 305.27,-537.28"/>
</g>
<!-- node2 -->
<g id="node4" class="node">
<title>node2</title>
<polygon fill="lightgrey" stroke="black" points="145.16,-620 26.16,-620 26.16,-584 145.16,-584 145.16,-620"/>
<text text-anchor="middle" x="85.66" y="-598.3" font-family="Times,serif" font-size="14.00">#2 LabelNode</text>
</g>
<!-- node0&#45;&gt;node2 -->
<g id="edge5" class="edge">
<title>node0&#45;&gt;node2</title>
<path fill="none" stroke="red" d="M283.82,-659.21C242.81,-647.58 194.03,-633.74 155.14,-622.71"/>
<polygon fill="red" stroke="red" points="156.05,-619.33 145.47,-619.97 154.14,-626.06 156.05,-619.33"/>
</g>
<!-- node3 -->
<g id="node8" class="node">
<title>node3</title>
<polygon fill="lightgreen" stroke="black" points="951.26,-594.54 951.26,-609.46 845.47,-620 695.86,-620 590.07,-609.46 590.07,-594.54 695.86,-584 845.47,-584 951.26,-594.54"/>
<text text-anchor="middle" x="770.66" y="-598.3" font-family="Times,serif" font-size="14.00">#3 Class FieldAccessTest$Source</text>
</g>
<!-- node0&#45;&gt;node3 -->
<g id="edge14" class="edge">
<title>node0&#45;&gt;node3</title>
<path fill="none" stroke="black" stroke-dasharray="1,5" d="M451.17,-666.42C517.42,-653.27 609.95,-634.9 678.39,-621.32"/>
<polygon fill="black" stroke="black" points="679.18,-624.73 688.3,-619.35 677.81,-617.86 679.18,-624.73"/>
</g>
<!-- node4&#45;&gt;node5 -->
<g id="edge2" class="edge">
<title>node4&#45;&gt;node5</title>
<path fill="none" stroke="black" d="M367.66,-583.81C367.66,-575.79 367.66,-566.05 367.66,-557.07"/>
<polygon fill="black" stroke="black" points="371.16,-557.03 367.66,-547.03 364.16,-557.03 371.16,-557.03"/>
<text text-anchor="middle" x="376.12" y="-561.45" font-family="Times,serif" font-size="14.00">*0</text>
</g>
<!-- node6 -->
<g id="node5" class="node">
<title>node6</title>
<polygon fill="orange" stroke="black" points="419.78,-448.54 419.78,-463.46 389.25,-474 346.08,-474 315.55,-463.46 315.55,-448.54 346.08,-438 389.25,-438 419.78,-448.54"/>
<text text-anchor="middle" x="367.66" y="-452.3" font-family="Times,serif" font-size="14.00">#6 New</text>
</g>
<!-- node5&#45;&gt;node6 -->
<g id="edge6" class="edge">
<title>node5&#45;&gt;node6</title>
<path fill="none" stroke="black" d="M361.79,-510.81C360.95,-502.79 360.71,-493.05 361.09,-484.07"/>
<polygon fill="black" stroke="black" points="364.58,-484.25 361.8,-474.03 357.6,-483.75 364.58,-484.25"/>
<text text-anchor="middle" x="368.94" y="-489.01" font-family="Times,serif" font-size="14.00">*0</text>
</g>
<!-- node5&#45;&gt;node6 -->
<g id="edge7" class="edge">
<title>node5&#45;&gt;node6</title>
<path fill="none" stroke="green" d="M373.54,-510.81C374.38,-502.79 374.61,-493.05 374.24,-484.07"/>
<polygon fill="green" stroke="green" points="377.73,-483.75 373.53,-474.03 370.75,-484.25 377.73,-483.75"/>
</g>
<!-- node7 -->
<g id="node6" class="node">
<title>node7</title>
<polygon fill="lightgrey" stroke="black" points="616.66,-401 366.66,-401 366.66,-365 616.66,-365 616.66,-401"/>
<text text-anchor="middle" x="491.66" y="-379.3" font-family="Times,serif" font-size="14.00">#7 Invoke special &lt;init&gt; : ()void</text>
</g>
<!-- node5&#45;&gt;node7 -->
<g id="edge9" class="edge">
<title>node5&#45;&gt;node7</title>
<path fill="none" stroke="red" d="M389.41,-510.89C401.6,-500.8 416.71,-487.4 428.66,-474 446.67,-453.82 464.06,-428.38 475.99,-409.7"/>
<polygon fill="red" stroke="red" points="479.02,-411.46 481.38,-401.13 473.09,-407.73 479.02,-411.46"/>
</g>
<!-- node2&#45;&gt;node5 -->
<g id="edge3" class="edge">
<title>node2&#45;&gt;node5</title>
<path fill="none" stroke="red" d="M127.94,-583.9C135.76,-581.05 143.91,-578.28 151.66,-576 202.51,-561.05 261.42,-548.83 304.87,-540.76"/>
<polygon fill="red" stroke="red" points="305.52,-544.19 314.73,-538.95 304.26,-537.31 305.52,-544.19"/>
</g>
<!-- node6&#45;&gt;node7 -->
<g id="edge8" class="edge">
<title>node6&#45;&gt;node7</title>
<path fill="none" stroke="black" d="M390.92,-438.35C406.79,-428.66 428.18,-416.32 447.22,-405.85"/>
<polygon fill="black" stroke="black" points="448.94,-408.89 456.05,-401.04 445.59,-402.75 448.94,-408.89"/>
<text text-anchor="middle" x="444.18" y="-413.43" font-family="Times,serif" font-size="14.00">*0</text>
</g>
<!-- node6&#45;&gt;node7 -->
<g id="edge10" class="edge">
<title>node6&#45;&gt;node7</title>
<path fill="none" stroke="green" d="M397.99,-440.8C416.49,-430.95 440.03,-417.63 458.94,-406.36"/>
<polygon fill="green" stroke="green" points="460.77,-409.34 467.54,-401.18 457.16,-403.34 460.77,-409.34"/>
</g>
<!-- node12 -->
<g id="node12" class="node">
<title>node12</title>
<polygon fill="lightgrey" stroke="black" points="626.16,-109 411.16,-109 411.16,-73 626.16,-73 626.16,-109"/>
<text text-anchor="middle" x="518.66" y="-87.3" font-family="Times,serif" font-size="14.00">#12 PutField : int_field : int</text>
</g>
<!-- node6&#45;&gt;node12 -->
<g id="edge22" class="edge">
<title>node6&#45;&gt;node12</title>
<path fill="none" stroke="black" d="M356.37,-437.99C348.23,-424.08 338.66,-403.57 338.66,-384 338.66,-384 338.66,-384 338.66,-163 338.66,-141.68 382.92,-124.05 427.54,-111.68"/>
<polygon fill="black" stroke="black" points="428.6,-115.02 437.35,-109.05 426.79,-108.26 428.6,-115.02"/>
<text text-anchor="middle" x="422.04" y="-118.21" font-family="Times,serif" font-size="14.00">*0</text>
</g>
<!-- node8 -->
<g id="node7" class="node">
<title>node8</title>
<polygon fill="lightgrey" stroke="black" points="814.16,-328 709.16,-328 709.16,-292 814.16,-292 814.16,-328"/>
<text text-anchor="middle" x="761.66" y="-306.3" font-family="Times,serif" font-size="14.00">#8 ClassInit</text>
</g>
<!-- node7&#45;&gt;node8 -->
<g id="edge12" class="edge">
<title>node7&#45;&gt;node8</title>
<path fill="none" stroke="red" d="M550.48,-364.99C594.47,-353.09 654.43,-337.35 699.26,-325.93"/>
<polygon fill="red" stroke="red" points="700.32,-329.27 709.16,-323.42 698.6,-322.49 700.32,-329.27"/>
</g>
<!-- node7&#45;&gt;node8 -->
<g id="edge13" class="edge">
<title>node7&#45;&gt;node8</title>
<path fill="none" stroke="green" d="M562.19,-364.99C604.71,-354.12 658.33,-340.03 699.3,-328.97"/>
<polygon fill="green" stroke="green" points="700.42,-332.29 709.16,-326.3 698.59,-325.53 700.42,-332.29"/>
</g>
<!-- node9 -->
<g id="node9" class="node">
<title>node9</title>
<polygon fill="orange" stroke="black" points="807.78,-229.54 807.78,-244.46 777.25,-255 734.08,-255 703.55,-244.46 703.55,-229.54 734.08,-219 777.25,-219 807.78,-229.54"/>
<text text-anchor="middle" x="755.66" y="-233.3" font-family="Times,serif" font-size="14.00">#9 New</text>
</g>
<!-- node8&#45;&gt;node9 -->
<g id="edge15" class="edge">
<title>node8&#45;&gt;node9</title>
<path fill="none" stroke="black" d="M754.33,-291.81C752.82,-283.79 751.76,-274.05 751.37,-265.07"/>
<polygon fill="black" stroke="black" points="754.87,-264.98 751.24,-255.03 747.87,-265.07 754.87,-264.98"/>
<text text-anchor="middle" x="759.93" y="-269.34" font-family="Times,serif" font-size="14.00">*0</text>
</g>
<!-- node8&#45;&gt;node9 -->
<g id="edge16" class="edge">
<title>node8&#45;&gt;node9</title>
<path fill="none" stroke="green" d="M766.09,-291.81C766.25,-283.79 765.66,-274.05 764.53,-265.07"/>
<polygon fill="green" stroke="green" points="767.96,-264.37 762.96,-255.03 761.05,-265.45 767.96,-264.37"/>
</g>
<!-- node10 -->
<g id="node11" class="node">
<title>node10</title>
<polygon fill="lightgrey" stroke="black" points="965.16,-182 706.16,-182 706.16,-146 965.16,-146 965.16,-182"/>
<text text-anchor="middle" x="835.66" y="-160.3" font-family="Times,serif" font-size="14.00">#10 Invoke special &lt;init&gt; : ()void</text>
</g>
<!-- node8&#45;&gt;node10 -->
<g id="edge20" class="edge">
<title>node8&#45;&gt;node10</title>
<path fill="none" stroke="red" d="M784.65,-291.87C795.96,-282.25 808.82,-269.32 816.66,-255 827.25,-235.68 831.94,-211.06 834.02,-192.45"/>
<polygon fill="red" stroke="red" points="837.53,-192.55 834.97,-182.27 830.56,-191.91 837.53,-192.55"/>
</g>
<!-- node3&#45;&gt;node8 -->
<g id="edge11" class="edge">
<title>node3&#45;&gt;node8</title>
<path fill="none" stroke="black" d="M768.02,-583.83C766.03,-569.48 763.66,-548.46 763.66,-530 763.66,-530 763.66,-530 763.66,-382 763.66,-367.65 763.25,-351.67 762.8,-338.51"/>
<polygon fill="black" stroke="black" points="766.29,-338.08 762.42,-328.21 759.29,-338.33 766.29,-338.08"/>
<text text-anchor="middle" x="771.53" y="-342.32" font-family="Times,serif" font-size="14.00">*0</text>
</g>
<!-- node11 -->
<g id="node10" class="node">
<title>node11</title>
<polygon fill="orange" stroke="black" points="670.57,-156.54 670.57,-171.46 581.59,-182 455.74,-182 366.75,-171.46 366.75,-156.54 455.74,-146 581.59,-146 670.57,-156.54"/>
<text text-anchor="middle" x="518.66" y="-160.3" font-family="Times,serif" font-size="14.00">#11 GetField : int_field : int</text>
</g>
<!-- node9&#45;&gt;node11 -->
<g id="edge17" class="edge">
<title>node9&#45;&gt;node11</title>
<path fill="none" stroke="black" d="M717.59,-224.59C682.02,-213.94 628.15,-197.8 585.43,-185"/>
<polygon fill="black" stroke="black" points="586.25,-181.59 575.67,-182.08 584.24,-188.3 586.25,-181.59"/>
<text text-anchor="middle" x="595.46" y="-175.48" font-family="Times,serif" font-size="14.00">*0</text>
</g>
<!-- node9&#45;&gt;node10 -->
<g id="edge19" class="edge">
<title>node9&#45;&gt;node10</title>
<path fill="none" stroke="black" d="M769.15,-218.81C778.42,-209.74 790.94,-198.48 802.67,-188.6"/>
<polygon fill="black" stroke="black" points="805.14,-191.1 810.61,-182.03 800.68,-185.71 805.14,-191.1"/>
<text text-anchor="middle" x="802.04" y="-196.4" font-family="Times,serif" font-size="14.00">*0</text>
</g>
<!-- node9&#45;&gt;node10 -->
<g id="edge21" class="edge">
<title>node9&#45;&gt;node10</title>
<path fill="none" stroke="green" d="M780.02,-219.53C791.2,-210.5 804.21,-199.13 814.92,-189.12"/>
<polygon fill="green" stroke="green" points="817.43,-191.56 822.25,-182.12 812.6,-186.5 817.43,-191.56"/>
</g>
<!-- node11&#45;&gt;node12 -->
<g id="edge23" class="edge">
<title>node11&#45;&gt;node12</title>
<path fill="none" stroke="black" d="M512.79,-145.81C511.95,-137.79 511.71,-128.05 512.09,-119.07"/>
<polygon fill="black" stroke="black" points="515.58,-119.25 512.8,-109.03 508.6,-118.75 515.58,-119.25"/>
<text text-anchor="middle" x="519.94" y="-124.01" font-family="Times,serif" font-size="14.00">*1</text>
</g>
<!-- node11&#45;&gt;node12 -->
<g id="edge24" class="edge">
<title>node11&#45;&gt;node12</title>
<path fill="none" stroke="green" d="M524.54,-145.81C525.38,-137.79 525.61,-128.05 525.24,-119.07"/>
<polygon fill="green" stroke="green" points="528.73,-118.75 524.53,-109.03 521.75,-119.25 528.73,-118.75"/>
</g>
<!-- node10&#45;&gt;node11 -->
<g id="edge18" class="edge">
<title>node10&#45;&gt;node11</title>
<path fill="none" stroke="green" d="M706.11,-164C697.71,-164 689.31,-164 680.91,-164"/>
<polygon fill="green" stroke="green" points="680.66,-160.5 670.66,-164 680.66,-167.5 680.66,-160.5"/>
</g>
<!-- node10&#45;&gt;node12 -->
<g id="edge25" class="edge">
<title>node10&#45;&gt;node12</title>
<path fill="none" stroke="red" d="M759.73,-145.99C713.04,-135.53 653.08,-122.11 604.64,-111.26"/>
<polygon fill="red" stroke="red" points="605.32,-107.82 594.8,-109.05 603.79,-114.65 605.32,-107.82"/>
</g>
<!-- node13 -->
<g id="node13" class="node">
<title>node13</title>
<polygon fill="lightgrey" stroke="black" points="569.16,-36 468.16,-36 468.16,0 569.16,0 569.16,-36"/>
<text text-anchor="middle" x="518.66" y="-14.3" font-family="Times,serif" font-size="14.00">#13 Return</text>
</g>
<!-- node12&#45;&gt;node13 -->
<g id="edge26" class="edge">
<title>node12&#45;&gt;node13</title>
<path fill="none" stroke="red" d="M512.79,-72.81C511.95,-64.79 511.71,-55.05 512.09,-46.07"/>
<polygon fill="red" stroke="red" points="515.58,-46.25 512.8,-36.03 508.6,-45.75 515.58,-46.25"/>
</g>
<!-- node12&#45;&gt;node13 -->
<g id="edge27" class="edge">
<title>node12&#45;&gt;node13</title>
<path fill="none" stroke="green" d="M524.54,-72.81C525.38,-64.79 525.61,-55.05 525.24,-46.07"/>
<polygon fill="green" stroke="green" points="528.73,-45.75 524.53,-36.03 521.75,-46.25 528.73,-45.75"/>
</g>
<!-- c0 -->
<!-- c1 -->
<!-- c0&#45;&gt;c1 -->
<g id="edge28" class="edge">
<title>c0&#45;&gt;c1</title>
<path fill="none" stroke="red" d="M1703.56,-684C1714.77,-684 1772.91,-684 1798.52,-684"/>
<polygon fill="red" stroke="red" points="1798.72,-687.5 1808.72,-684 1798.72,-680.5 1798.72,-687.5"/>
<text text-anchor="middle" x="1756.16" y="-690.8" font-family="Times,serif" font-size="14.00">Control flow</text>
</g>
<!-- c2 -->
<!-- c3 -->
<!-- c2&#45;&gt;c3 -->
<g id="edge29" class="edge">
<title>c2&#45;&gt;c3</title>
<path fill="none" stroke="red" stroke-dasharray="5,2" d="M1496.74,-684C1513.71,-684 1629.87,-684 1667.75,-684"/>
<polygon fill="red" stroke="red" points="1667.83,-687.5 1677.83,-684 1667.83,-680.5 1667.83,-687.5"/>
<text text-anchor="middle" x="1587.16" y="-690.8" font-family="Times,serif" font-size="14.00">Control flow back edge</text>
</g>
<!-- d0 -->
<!-- d1 -->
<!-- d0&#45;&gt;d1 -->
<g id="edge30" class="edge">
<title>d0&#45;&gt;d1</title>
<path fill="none" stroke="black" d="M1385.52,-684C1395.07,-684 1438.97,-684 1460.58,-684"/>
<polygon fill="black" stroke="black" points="1460.81,-687.5 1470.81,-684 1460.81,-680.5 1460.81,-687.5"/>
<text text-anchor="middle" x="1428.16" y="-690.8" font-family="Times,serif" font-size="14.00">Data flow</text>
</g>
<!-- d2 -->
<!-- d3 -->
<!-- d2&#45;&gt;d3 -->
<g id="edge31" class="edge">
<title>d2&#45;&gt;d3</title>
<path fill="none" stroke="black" stroke-dasharray="1,5" d="M1259.47,-684C1270.12,-684 1325.13,-684 1349.74,-684"/>
<polygon fill="black" stroke="black" points="1349.81,-687.5 1359.81,-684 1349.81,-680.5 1349.81,-687.5"/>
<text text-anchor="middle" x="1309.66" y="-690.8" font-family="Times,serif" font-size="14.00">Declaration</text>
</g>
<!-- d4 -->
<!-- d5 -->
<!-- d4&#45;&gt;d5 -->
<g id="edge32" class="edge">
<title>d4&#45;&gt;d5</title>
<path fill="none" stroke="blue" d="M1116.76,-684C1129.39,-684 1195.54,-684 1223.34,-684"/>
<polygon fill="blue" stroke="blue" points="1223.51,-687.5 1233.51,-684 1223.51,-680.5 1223.51,-687.5"/>
<text text-anchor="middle" x="1175.16" y="-690.8" font-family="Times,serif" font-size="14.00">PHI Data flow</text>
</g>
<!-- d6 -->
<!-- d7 -->
<!-- d6&#45;&gt;d7 -->
<g id="edge33" class="edge">
<title>d6&#45;&gt;d7</title>
<path fill="none" stroke="green" d="M979.66,-684C991.6,-684 1053.96,-684 1080.59,-684"/>
<polygon fill="green" stroke="green" points="1080.61,-687.5 1090.61,-684 1080.61,-680.5 1080.61,-687.5"/>
<text text-anchor="middle" x="1035.16" y="-690.8" font-family="Times,serif" font-size="14.00">Memory flow</text>
</g>
</g>
</svg>
