<?xml version="1.0" encoding="UTF-8" standalone="no"?>
<!DOCTYPE svg PUBLIC "-//W3C//DTD SVG 1.1//EN"
 "http://www.w3.org/Graphics/SVG/1.1/DTD/svg11.dtd">
<!-- Generated by graphviz version 2.43.0 (0)
 -->
<!-- Title: %3 Pages: 1 -->
<svg width="1417pt" height="879pt"
 viewBox="0.00 0.00 1416.95 878.80" xmlns="http://www.w3.org/2000/svg" xmlns:xlink="http://www.w3.org/1999/xlink">
<g id="graph0" class="graph" transform="scale(1 1) rotate(0) translate(4 874.8)">
<title>%3</title>
<polygon fill="white" stroke="transparent" points="-4,4 -4,-874.8 1412.95,-874.8 1412.95,4 -4,4"/>
<g id="clust1" class="cluster">
<title>cluster_0</title>
<polygon fill="none" stroke="lightgray" points="228.95,-357 228.95,-482 606.95,-482 606.95,-357 228.95,-357"/>
</g>
<g id="clust2" class="cluster">
<title>cluster_1</title>
<polygon fill="none" stroke="lightgray" points="314.95,-649 314.95,-774 738.95,-774 738.95,-649 314.95,-649"/>
</g>
<g id="clust3" class="cluster">
<title>cluster_000</title>
<polygon fill="none" stroke="black" points="547.95,-820.2 547.95,-862.8 1400.95,-862.8 1400.95,-820.2 547.95,-820.2"/>
<text text-anchor="middle" x="974.45" y="-847.6" font-family="Times,serif" font-size="14.00">Legend</text>
</g>
<!-- node0 -->
<g id="node1" class="node">
<title>node0</title>
<polygon fill="lightgrey" stroke="transparent" points="538.45,-857 371.45,-857 371.45,-803 538.45,-803 538.45,-857"/>
<polygon fill="none" stroke="black" points="371.95,-830 371.95,-857 538.95,-857 538.95,-830 371.95,-830"/>
<text text-anchor="start" x="414.95" y="-839.8" font-family="Times,serif" font-size="14.00">#0 Method</text>
<polygon fill="yellow" stroke="transparent" points="371.95,-803 371.95,-830 538.95,-830 538.95,-803 371.95,-803"/>
<polygon fill="none" stroke="black" points="371.95,-803 371.95,-830 538.95,-830 538.95,-803 371.95,-803"/>
<text text-anchor="start" x="377.95" y="-812.8" font-family="Times,serif" font-size="14.00">this : FieldAccessTest</text>
</g>
<!-- node2 -->
<g id="node2" class="node">
<title>node2</title>
<polygon fill="lightgrey" stroke="black" points="514.45,-766 395.45,-766 395.45,-730 514.45,-730 514.45,-766"/>
<text text-anchor="middle" x="454.95" y="-744.3" font-family="Times,serif" font-size="14.00">#2 LabelNode</text>
</g>
<!-- node0&#45;&gt;node2 -->
<g id="edge1" class="edge">
<title>node0&#45;&gt;node2</title>
<path fill="none" stroke="red" d="M454.95,-802.81C454.95,-794.35 454.95,-784.95 454.95,-776.4"/>
<polygon fill="red" stroke="red" points="458.45,-776.17 454.95,-766.17 451.45,-776.17 458.45,-776.17"/>
</g>
<!-- node4 -->
<g id="node3" class="node">
<title>node4</title>
<polygon fill="lightgrey" stroke="black" points="487.45,-620 382.45,-620 382.45,-584 487.45,-584 487.45,-620"/>
<text text-anchor="middle" x="434.95" y="-598.3" font-family="Times,serif" font-size="14.00">#4 ClassInit</text>
</g>
<!-- node0&#45;&gt;node4 -->
<g id="edge4" class="edge">
<title>node0&#45;&gt;node4</title>
<path fill="none" stroke="green" d="M538.72,-804.18C540.48,-803.77 542.22,-803.38 543.95,-803 587.62,-793.49 713.72,-807.8 742.95,-774 779.3,-731.98 779.22,-691.09 742.95,-649 711.94,-613.01 578.37,-604.76 497.66,-603.12"/>
<polygon fill="green" stroke="green" points="497.66,-599.62 487.6,-602.94 497.54,-606.62 497.66,-599.62"/>
</g>
<!-- node2&#45;&gt;node4 -->
<g id="edge3" class="edge">
<title>node2&#45;&gt;node4</title>
<path fill="none" stroke="red" d="M395.12,-739.93C365.49,-733.07 332.23,-719.56 313.95,-693 302.87,-676.89 302.85,-665.1 313.95,-649 327.4,-629.5 350.29,-618.26 372.56,-611.78"/>
<polygon fill="red" stroke="red" points="373.59,-615.13 382.38,-609.21 371.82,-608.36 373.59,-615.13"/>
</g>
<!-- node3 -->
<g id="node4" class="node">
<title>node3</title>
<polygon fill="lightgreen" stroke="black" points="730.98,-667.54 730.98,-682.46 611.46,-693 442.44,-693 322.93,-682.46 322.93,-667.54 442.44,-657 611.46,-657 730.98,-667.54"/>
<text text-anchor="middle" x="526.95" y="-671.3" font-family="Times,serif" font-size="14.00">#3 Class FieldAccessTest$Destination</text>
</g>
<!-- node2&#45;&gt;node3 -->
<g id="edge5" class="edge">
<title>node2&#45;&gt;node3</title>
<path fill="none" stroke="black" stroke-dasharray="1,5" d="M472.38,-729.81C481.4,-720.92 492.57,-709.91 502.44,-700.17"/>
<polygon fill="black" stroke="black" points="505.02,-702.54 509.69,-693.03 500.11,-697.56 505.02,-702.54"/>
</g>
<!-- node6 -->
<g id="node5" class="node">
<title>node6</title>
<polygon fill="lightgrey" stroke="black" points="542.95,-474 292.95,-474 292.95,-438 542.95,-438 542.95,-474"/>
<text text-anchor="middle" x="417.95" y="-452.3" font-family="Times,serif" font-size="14.00">#6 Invoke special &lt;init&gt; : ()void</text>
</g>
<!-- node4&#45;&gt;node6 -->
<g id="edge7" class="edge">
<title>node4&#45;&gt;node6</title>
<path fill="none" stroke="red" d="M432.94,-583.92C430.02,-559.23 424.61,-513.35 421.15,-484.04"/>
<polygon fill="red" stroke="red" points="424.62,-483.58 419.97,-474.06 417.67,-484.4 424.62,-483.58"/>
</g>
<!-- node5 -->
<g id="node6" class="node">
<title>node5</title>
<polygon fill="orange" stroke="black" points="550.07,-521.54 550.07,-536.46 519.54,-547 476.37,-547 445.84,-536.46 445.84,-521.54 476.37,-511 519.54,-511 550.07,-521.54"/>
<text text-anchor="middle" x="497.95" y="-525.3" font-family="Times,serif" font-size="14.00">#5 New</text>
</g>
<!-- node4&#45;&gt;node5 -->
<g id="edge9" class="edge">
<title>node4&#45;&gt;node5</title>
<path fill="none" stroke="black" d="M444.33,-583.81C451.22,-575 460.68,-564.13 469.8,-554.46"/>
<polygon fill="black" stroke="black" points="472.55,-556.65 476.98,-547.03 467.52,-551.79 472.55,-556.65"/>
<text text-anchor="middle" x="470.46" y="-562.24" font-family="Times,serif" font-size="14.00">*0</text>
</g>
<!-- node4&#45;&gt;node5 -->
<g id="edge10" class="edge">
<title>node4&#45;&gt;node5</title>
<path fill="none" stroke="green" d="M456.08,-583.81C464.65,-575.18 474.28,-564.56 482.22,-555.03"/>
<polygon fill="green" stroke="green" points="485.13,-557 488.71,-547.03 479.69,-552.6 485.13,-557"/>
</g>
<!-- node3&#45;&gt;node4 -->
<g id="edge2" class="edge">
<title>node3&#45;&gt;node4</title>
<path fill="none" stroke="black" d="M504.68,-656.81C492.82,-647.66 478.05,-636.26 465.17,-626.32"/>
<polygon fill="black" stroke="black" points="467.07,-623.37 457.02,-620.03 462.8,-628.91 467.07,-623.37"/>
<text text-anchor="middle" x="476.53" y="-620.71" font-family="Times,serif" font-size="14.00">*0</text>
</g>
<!-- node8 -->
<g id="node11" class="node">
<title>node8</title>
<polygon fill="lightgrey" stroke="black" points="452.45,-328 347.45,-328 347.45,-292 452.45,-292 452.45,-328"/>
<text text-anchor="middle" x="399.95" y="-306.3" font-family="Times,serif" font-size="14.00">#8 ClassInit</text>
</g>
<!-- node6&#45;&gt;node8 -->
<g id="edge21" class="edge">
<title>node6&#45;&gt;node8</title>
<path fill="none" stroke="red" d="M310.1,-437.98C269.7,-429.01 230.74,-416.6 218.95,-401 207.17,-385.4 207.05,-372.51 218.95,-357 233.2,-338.44 290.75,-325.74 337.26,-318.47"/>
<polygon fill="red" stroke="red" points="337.94,-321.91 347.3,-316.95 336.89,-314.98 337.94,-321.91"/>
</g>
<!-- node6&#45;&gt;node8 -->
<g id="edge22" class="edge">
<title>node6&#45;&gt;node8</title>
<path fill="none" stroke="green" d="M326.51,-437.98C287.7,-429.01 248.74,-416.6 236.95,-401 225.17,-385.4 225.05,-372.51 236.95,-357 249.69,-340.41 297.04,-328.5 337.5,-320.97"/>
<polygon fill="green" stroke="green" points="338.13,-324.41 347.35,-319.19 336.89,-317.52 338.13,-324.41"/>
</g>
<!-- node7 -->
<g id="node12" class="node">
<title>node7</title>
<polygon fill="lightgreen" stroke="black" points="598.55,-375.54 598.55,-390.46 492.76,-401 343.15,-401 237.36,-390.46 237.36,-375.54 343.15,-365 492.76,-365 598.55,-375.54"/>
<text text-anchor="middle" x="417.95" y="-379.3" font-family="Times,serif" font-size="14.00">#7 Class FieldAccessTest$Source</text>
</g>
<!-- node6&#45;&gt;node7 -->
<g id="edge23" class="edge">
<title>node6&#45;&gt;node7</title>
<path fill="none" stroke="black" stroke-dasharray="1,5" d="M417.95,-437.81C417.95,-429.79 417.95,-420.05 417.95,-411.07"/>
<polygon fill="black" stroke="black" points="421.45,-411.03 417.95,-401.03 414.45,-411.03 421.45,-411.03"/>
</g>
<!-- node5&#45;&gt;node6 -->
<g id="edge6" class="edge">
<title>node5&#45;&gt;node6</title>
<path fill="none" stroke="black" d="M473.6,-511.53C462.42,-502.5 449.41,-491.13 438.7,-481.12"/>
<polygon fill="black" stroke="black" points="441.02,-478.5 431.37,-474.12 436.19,-483.56 441.02,-478.5"/>
<text text-anchor="middle" x="450.32" y="-476.83" font-family="Times,serif" font-size="14.00">*0</text>
</g>
<!-- node5&#45;&gt;node6 -->
<g id="edge8" class="edge">
<title>node5&#45;&gt;node6</title>
<path fill="none" stroke="green" d="M484.47,-510.81C475.2,-501.74 462.68,-490.48 450.95,-480.6"/>
<polygon fill="green" stroke="green" points="452.94,-477.71 443,-474.03 448.48,-483.1 452.94,-477.71"/>
</g>
<!-- node12 -->
<g id="node7" class="node">
<title>node12</title>
<polygon fill="lightgrey" stroke="black" points="576.45,-109 361.45,-109 361.45,-73 576.45,-73 576.45,-109"/>
<text text-anchor="middle" x="468.95" y="-87.3" font-family="Times,serif" font-size="14.00">#12 PutField : int_field : int</text>
</g>
<!-- node5&#45;&gt;node12 -->
<g id="edge11" class="edge">
<title>node5&#45;&gt;node12</title>
<path fill="none" stroke="black" d="M548.2,-520.78C584.42,-512.41 626.95,-494.58 626.95,-457 626.95,-457 626.95,-457 626.95,-163 626.95,-137.38 609.46,-120.95 586.11,-110.43"/>
<polygon fill="black" stroke="black" points="587.11,-107.06 576.53,-106.54 584.48,-113.55 587.11,-107.06"/>
<text text-anchor="middle" x="596.5" y="-101.82" font-family="Times,serif" font-size="14.00">*0</text>
</g>
<!-- node13 -->
<g id="node13" class="node">
<title>node13</title>
<polygon fill="lightgrey" stroke="black" points="519.45,-36 418.45,-36 418.45,0 519.45,0 519.45,-36"/>
<text text-anchor="middle" x="468.95" y="-14.3" font-family="Times,serif" font-size="14.00">#13 Return</text>
</g>
<!-- node12&#45;&gt;node13 -->
<g id="edge26" class="edge">
<title>node12&#45;&gt;node13</title>
<path fill="none" stroke="red" d="M463.08,-72.81C462.24,-64.79 462,-55.05 462.38,-46.07"/>
<polygon fill="red" stroke="red" points="465.87,-46.25 463.09,-36.03 458.89,-45.75 465.87,-46.25"/>
</g>
<!-- node12&#45;&gt;node13 -->
<g id="edge27" class="edge">
<title>node12&#45;&gt;node13</title>
<path fill="none" stroke="green" d="M474.83,-72.81C475.67,-64.79 475.91,-55.05 475.53,-46.07"/>
<polygon fill="green" stroke="green" points="479.02,-45.75 474.82,-36.03 472.04,-46.25 479.02,-45.75"/>
</g>
<!-- node11 -->
<g id="node8" class="node">
<title>node11</title>
<polygon fill="orange" stroke="black" points="303.86,-156.54 303.86,-171.46 214.88,-182 89.03,-182 0.05,-171.46 0.05,-156.54 89.03,-146 214.88,-146 303.86,-156.54"/>
<text text-anchor="middle" x="151.95" y="-160.3" font-family="Times,serif" font-size="14.00">#11 GetField : int_field : int</text>
</g>
<!-- node11&#45;&gt;node12 -->
<g id="edge12" class="edge">
<title>node11&#45;&gt;node12</title>
<path fill="none" stroke="black" d="M219.68,-146.53C265.58,-135.99 326.75,-122.27 377.03,-111.23"/>
<polygon fill="black" stroke="black" points="377.91,-114.62 386.93,-109.06 376.42,-107.78 377.91,-114.62"/>
<text text-anchor="middle" x="371.04" y="-117.49" font-family="Times,serif" font-size="14.00">*1</text>
</g>
<!-- node11&#45;&gt;node12 -->
<g id="edge13" class="edge">
<title>node11&#45;&gt;node12</title>
<path fill="none" stroke="green" d="M227.22,-147.42C275.88,-136.8 339.1,-122.67 388.71,-111.34"/>
<polygon fill="green" stroke="green" points="389.79,-114.68 398.76,-109.04 388.23,-107.86 389.79,-114.68"/>
</g>
<!-- node10 -->
<g id="node9" class="node">
<title>node10</title>
<polygon fill="lightgrey" stroke="black" points="598.45,-182 339.45,-182 339.45,-146 598.45,-146 598.45,-182"/>
<text text-anchor="middle" x="468.95" y="-160.3" font-family="Times,serif" font-size="14.00">#10 Invoke special &lt;init&gt; : ()void</text>
</g>
<!-- node10&#45;&gt;node12 -->
<g id="edge14" class="edge">
<title>node10&#45;&gt;node12</title>
<path fill="none" stroke="red" d="M468.95,-145.81C468.95,-137.79 468.95,-128.05 468.95,-119.07"/>
<polygon fill="red" stroke="red" points="472.45,-119.03 468.95,-109.03 465.45,-119.03 472.45,-119.03"/>
</g>
<!-- node10&#45;&gt;node11 -->
<g id="edge25" class="edge">
<title>node10&#45;&gt;node11</title>
<path fill="none" stroke="green" d="M339.4,-164C331,-164 322.6,-164 314.2,-164"/>
<polygon fill="green" stroke="green" points="313.95,-160.5 303.95,-164 313.95,-167.5 313.95,-160.5"/>
</g>
<!-- node9 -->
<g id="node10" class="node">
<title>node9</title>
<polygon fill="orange" stroke="black" points="441.07,-229.54 441.07,-244.46 410.54,-255 367.37,-255 336.84,-244.46 336.84,-229.54 367.37,-219 410.54,-219 441.07,-229.54"/>
<text text-anchor="middle" x="388.95" y="-233.3" font-family="Times,serif" font-size="14.00">#9 New</text>
</g>
<!-- node9&#45;&gt;node11 -->
<g id="edge24" class="edge">
<title>node9&#45;&gt;node11</title>
<path fill="none" stroke="black" d="M350.88,-224.59C315.31,-213.94 261.44,-197.8 218.72,-185"/>
<polygon fill="black" stroke="black" points="219.54,-181.59 208.96,-182.08 217.53,-188.3 219.54,-181.59"/>
<text text-anchor="middle" x="228.75" y="-175.48" font-family="Times,serif" font-size="14.00">*0</text>
</g>
<!-- node9&#45;&gt;node10 -->
<g id="edge15" class="edge">
<title>node9&#45;&gt;node10</title>
<path fill="none" stroke="black" d="M402.44,-218.81C411.71,-209.74 424.23,-198.48 435.96,-188.6"/>
<polygon fill="black" stroke="black" points="438.43,-191.1 443.91,-182.03 433.97,-185.71 438.43,-191.1"/>
<text text-anchor="middle" x="435.33" y="-196.4" font-family="Times,serif" font-size="14.00">*0</text>
</g>
<!-- node9&#45;&gt;node10 -->
<g id="edge17" class="edge">
<title>node9&#45;&gt;node10</title>
<path fill="none" stroke="green" d="M413.31,-219.53C424.49,-210.5 437.5,-199.13 448.21,-189.12"/>
<polygon fill="green" stroke="green" points="450.72,-191.56 455.54,-182.12 445.89,-186.5 450.72,-191.56"/>
</g>
<!-- node8&#45;&gt;node10 -->
<g id="edge16" class="edge">
<title>node8&#45;&gt;node10</title>
<path fill="none" stroke="red" d="M420.32,-291.96C430.71,-282.18 442.67,-269.07 449.95,-255 460.08,-235.44 464.81,-210.83 467.02,-192.29"/>
<polygon fill="red" stroke="red" points="470.52,-192.46 468.05,-182.16 463.55,-191.75 470.52,-192.46"/>
</g>
<!-- node8&#45;&gt;node9 -->
<g id="edge18" class="edge">
<title>node8&#45;&gt;node9</title>
<path fill="none" stroke="black" d="M391.41,-291.81C389.33,-283.79 387.59,-274.05 386.57,-265.07"/>
<polygon fill="black" stroke="black" points="390.05,-264.7 385.73,-255.03 383.08,-265.29 390.05,-264.7"/>
<text text-anchor="middle" x="395.66" y="-268.69" font-family="Times,serif" font-size="14.00">*0</text>
</g>
<!-- node8&#45;&gt;node9 -->
<g id="edge19" class="edge">
<title>node8&#45;&gt;node9</title>
<path fill="none" stroke="green" d="M403.17,-291.81C402.77,-283.79 401.49,-274.05 399.73,-265.07"/>
<polygon fill="green" stroke="green" points="403.07,-264.01 397.45,-255.03 396.25,-265.55 403.07,-264.01"/>
</g>
<!-- node7&#45;&gt;node8 -->
<g id="edge20" class="edge">
<title>node7&#45;&gt;node8</title>
<path fill="none" stroke="black" d="M413.6,-364.81C411.54,-356.7 409.04,-346.84 406.74,-337.78"/>
<polygon fill="black" stroke="black" points="410.12,-336.86 404.27,-328.03 403.34,-338.58 410.12,-336.86"/>
<text text-anchor="middle" x="416.92" y="-339.82" font-family="Times,serif" font-size="14.00">*0</text>
</g>
<!-- c0 -->
<!-- c1 -->
<!-- c0&#45;&gt;c1 -->
<g id="edge28" class="edge">
<title>c0&#45;&gt;c1</title>
<path fill="none" stroke="red" d="M1283.85,-830C1295.06,-830 1353.2,-830 1378.81,-830"/>
<polygon fill="red" stroke="red" points="1379.01,-833.5 1389.01,-830 1379.01,-826.5 1379.01,-833.5"/>
<text text-anchor="middle" x="1336.45" y="-836.8" font-family="Times,serif" font-size="14.00">Control flow</text>
</g>
<!-- c2 -->
<!-- c3 -->
<!-- c2&#45;&gt;c3 -->
<g id="edge29" class="edge">
<title>c2&#45;&gt;c3</title>
<path fill="none" stroke="red" stroke-dasharray="5,2" d="M1077.03,-830C1094,-830 1210.16,-830 1248.04,-830"/>
<polygon fill="red" stroke="red" points="1248.12,-833.5 1258.12,-830 1248.12,-826.5 1248.12,-833.5"/>
<text text-anchor="middle" x="1167.45" y="-836.8" font-family="Times,serif" font-size="14.00">Control flow back edge</text>
</g>
<!-- d0 -->
<!-- d1 -->
<!-- d0&#45;&gt;d1 -->
<g id="edge30" class="edge">
<title>d0&#45;&gt;d1</title>
<path fill="none" stroke="black" d="M965.81,-830C975.36,-830 1019.26,-830 1040.87,-830"/>
<polygon fill="black" stroke="black" points="1041.11,-833.5 1051.11,-830 1041.11,-826.5 1041.11,-833.5"/>
<text text-anchor="middle" x="1008.45" y="-836.8" font-family="Times,serif" font-size="14.00">Data flow</text>
</g>
<!-- d2 -->
<!-- d3 -->
<!-- d2&#45;&gt;d3 -->
<g id="edge31" class="edge">
<title>d2&#45;&gt;d3</title>
<path fill="none" stroke="black" stroke-dasharray="1,5" d="M839.76,-830C850.41,-830 905.42,-830 930.03,-830"/>
<polygon fill="black" stroke="black" points="930.1,-833.5 940.1,-830 930.1,-826.5 930.1,-833.5"/>
<text text-anchor="middle" x="889.95" y="-836.8" font-family="Times,serif" font-size="14.00">Declaration</text>
</g>
<!-- d4 -->
<!-- d5 -->
<!-- d4&#45;&gt;d5 -->
<g id="edge32" class="edge">
<title>d4&#45;&gt;d5</title>
<path fill="none" stroke="blue" d="M697.05,-830C709.68,-830 775.84,-830 803.63,-830"/>
<polygon fill="blue" stroke="blue" points="803.8,-833.5 813.8,-830 803.8,-826.5 803.8,-833.5"/>
<text text-anchor="middle" x="755.45" y="-836.8" font-family="Times,serif" font-size="14.00">PHI Data flow</text>
</g>
<!-- d6 -->
<!-- d7 -->
<!-- d6&#45;&gt;d7 -->
<g id="edge33" class="edge">
<title>d6&#45;&gt;d7</title>
<path fill="none" stroke="green" d="M559.95,-830C571.89,-830 634.25,-830 660.88,-830"/>
<polygon fill="green" stroke="green" points="660.9,-833.5 670.9,-830 660.9,-826.5 660.9,-833.5"/>
<text text-anchor="middle" x="615.45" y="-836.8" font-family="Times,serif" font-size="14.00">Memory flow</text>
</g>
</g>
</svg>
