<?xml version="1.0" encoding="UTF-8" standalone="no"?>
<!DOCTYPE svg PUBLIC "-//W3C//DTD SVG 1.1//EN"
 "http://www.w3.org/Graphics/SVG/1.1/DTD/svg11.dtd">
<!-- Generated by graphviz version 2.43.0 (0)
 -->
<!-- Title: %3 Pages: 1 -->
<svg width="1689pt" height="735pt"
 viewBox="0.00 0.00 1689.00 735.00" xmlns="http://www.w3.org/2000/svg" xmlns:xlink="http://www.w3.org/1999/xlink">
<g id="graph0" class="graph" transform="scale(1 1) rotate(0) translate(4 731)">
<title>%3</title>
<polygon fill="white" stroke="transparent" points="-4,4 -4,-731 1685,-731 1685,4 -4,4"/>
<g id="clust1" class="cluster">
<title>cluster_0</title>
<polygon fill="none" stroke="lightgray" points="8,-576 8,-719 812,-719 812,-576 8,-576"/>
</g>
<g id="clust2" class="cluster">
<title>cluster_000</title>
<polygon fill="none" stroke="black" points="820,-674.2 820,-716.8 1673,-716.8 1673,-674.2 820,-674.2"/>
<text text-anchor="middle" x="1246.5" y="-701.6" font-family="Times,serif" font-size="14.00">Legend</text>
</g>
<!-- node0 -->
<g id="node1" class="node">
<title>node0</title>
<polygon fill="lightgrey" stroke="transparent" points="683.5,-711 516.5,-711 516.5,-657 683.5,-657 683.5,-711"/>
<polygon fill="none" stroke="black" points="517,-684 517,-711 684,-711 684,-684 517,-684"/>
<text text-anchor="start" x="560" y="-693.8" font-family="Times,serif" font-size="14.00">#0 Method</text>
<polygon fill="yellow" stroke="transparent" points="517,-657 517,-684 684,-684 684,-657 517,-657"/>
<polygon fill="none" stroke="black" points="517,-657 517,-684 684,-684 684,-657 517,-657"/>
<text text-anchor="start" x="523" y="-666.8" font-family="Times,serif" font-size="14.00">this : FieldAccessTest</text>
</g>
<!-- node7 -->
<g id="node2" class="node">
<title>node7</title>
<polygon fill="lightgreen" stroke="black" points="377.6,-594.54 377.6,-609.46 271.81,-620 122.19,-620 16.4,-609.46 16.4,-594.54 122.19,-584 271.81,-584 377.6,-594.54"/>
<text text-anchor="middle" x="197" y="-598.3" font-family="Times,serif" font-size="14.00">#7 Class FieldAccessTest$Source</text>
</g>
<!-- node0&#45;&gt;node7 -->
<g id="edge1" class="edge">
<title>node0&#45;&gt;node7</title>
<path fill="none" stroke="black" stroke-dasharray="1,5" d="M516.5,-666.42C450.25,-653.27 357.72,-634.9 289.28,-621.32"/>
<polygon fill="black" stroke="black" points="289.85,-617.86 279.36,-619.35 288.49,-624.73 289.85,-617.86"/>
</g>
<!-- node1 -->
<g id="node6" class="node">
<title>node1</title>
<polygon fill="lightgrey" stroke="black" points="652.5,-547 547.5,-547 547.5,-511 652.5,-511 652.5,-547"/>
<text text-anchor="middle" x="600" y="-525.3" font-family="Times,serif" font-size="14.00">#1 ClassInit</text>
</g>
<!-- node0&#45;&gt;node1 -->
<g id="edge12" class="edge">
<title>node0&#45;&gt;node1</title>
<path fill="none" stroke="green" d="M683.63,-663.32C739.71,-649.28 804.78,-631.01 813,-620 824.7,-604.33 825.28,-591.22 813,-576 803.45,-564.17 721.96,-549.07 662.6,-539.46"/>
<polygon fill="green" stroke="green" points="662.97,-535.97 652.54,-537.85 661.87,-542.89 662.97,-535.97"/>
</g>
<!-- node6 -->
<g id="node7" class="node">
<title>node6</title>
<polygon fill="lightgreen" stroke="black" points="804.03,-594.54 804.03,-609.46 684.51,-620 515.49,-620 395.97,-609.46 395.97,-594.54 515.49,-584 684.51,-584 804.03,-594.54"/>
<text text-anchor="middle" x="600" y="-598.3" font-family="Times,serif" font-size="14.00">#6 Class FieldAccessTest$Destination</text>
</g>
<!-- node0&#45;&gt;node6 -->
<g id="edge14" class="edge">
<title>node0&#45;&gt;node6</title>
<path fill="none" stroke="black" stroke-dasharray="1,5" d="M600,-656.81C600,-648.35 600,-638.95 600,-630.4"/>
<polygon fill="black" stroke="black" points="603.5,-630.17 600,-620.17 596.5,-630.17 603.5,-630.17"/>
</g>
<!-- node5 -->
<g id="node8" class="node">
<title>node5</title>
<polygon fill="lightgrey" stroke="black" points="979.5,-620 860.5,-620 860.5,-584 979.5,-584 979.5,-620"/>
<text text-anchor="middle" x="920" y="-598.3" font-family="Times,serif" font-size="14.00">#5 LabelNode</text>
</g>
<!-- node0&#45;&gt;node5 -->
<g id="edge13" class="edge">
<title>node0&#45;&gt;node5</title>
<path fill="none" stroke="red" d="M683.66,-662.09C735.46,-649.14 801.2,-632.7 850.19,-620.45"/>
<polygon fill="red" stroke="red" points="851.22,-623.8 860.07,-617.98 849.52,-617.01 851.22,-623.8"/>
</g>
<!-- node8 -->
<g id="node3" class="node">
<title>node8</title>
<polygon fill="lightgrey" stroke="black" points="275.5,-328 170.5,-328 170.5,-292 275.5,-292 275.5,-328"/>
<text text-anchor="middle" x="223" y="-306.3" font-family="Times,serif" font-size="14.00">#8 ClassInit</text>
</g>
<!-- node7&#45;&gt;node8 -->
<g id="edge2" class="edge">
<title>node7&#45;&gt;node8</title>
<path fill="none" stroke="black" d="M200.4,-583.86C202.95,-569.53 206,-548.51 206,-530 206,-530 206,-530 206,-382 206,-367.2 209.54,-351.13 213.39,-338.02"/>
<polygon fill="black" stroke="black" points="216.8,-338.82 216.48,-328.23 210.13,-336.71 216.8,-338.82"/>
<text text-anchor="middle" x="219.08" y="-344.36" font-family="Times,serif" font-size="14.00">*0</text>
</g>
<!-- node9 -->
<g id="node11" class="node">
<title>node9</title>
<polygon fill="lightgrey" stroke="black" points="301,-182 51,-182 51,-146 301,-146 301,-182"/>
<text text-anchor="middle" x="176" y="-160.3" font-family="Times,serif" font-size="14.00">#9 Invoke special &lt;init&gt; : ()void</text>
</g>
<!-- node8&#45;&gt;node9 -->
<g id="edge20" class="edge">
<title>node8&#45;&gt;node9</title>
<path fill="none" stroke="red" d="M212.41,-291.55C206.55,-281.23 199.55,-267.73 195,-255 187.68,-234.51 182.77,-210.33 179.78,-192.2"/>
<polygon fill="red" stroke="red" points="183.23,-191.64 178.23,-182.3 176.31,-192.72 183.23,-191.64"/>
</g>
<!-- node10 -->
<g id="node12" class="node">
<title>node10</title>
<polygon fill="orange" stroke="black" points="320.28,-229.54 320.28,-244.46 286.14,-255 237.86,-255 203.72,-244.46 203.72,-229.54 237.86,-219 286.14,-219 320.28,-229.54"/>
<text text-anchor="middle" x="262" y="-233.3" font-family="Times,serif" font-size="14.00">#10 New</text>
</g>
<!-- node8&#45;&gt;node10 -->
<g id="edge22" class="edge">
<title>node8&#45;&gt;node10</title>
<path fill="none" stroke="black" d="M226.56,-291.81C230.32,-283.35 235.81,-272.98 241.42,-263.61"/>
<polygon fill="black" stroke="black" points="244.45,-265.36 246.78,-255.03 238.52,-261.65 244.45,-265.36"/>
<text text-anchor="middle" x="244.34" y="-271.18" font-family="Times,serif" font-size="14.00">*0</text>
</g>
<!-- node8&#45;&gt;node10 -->
<g id="edge23" class="edge">
<title>node8&#45;&gt;node10</title>
<path fill="none" stroke="green" d="M238.32,-291.81C243.74,-283.53 249.51,-273.41 254.15,-264.19"/>
<polygon fill="green" stroke="green" points="257.38,-265.56 258.51,-255.03 251.05,-262.56 257.38,-265.56"/>
</g>
<!-- node2 -->
<g id="node4" class="node">
<title>node2</title>
<polygon fill="lightgrey" stroke="black" points="640,-401 390,-401 390,-365 640,-365 640,-401"/>
<text text-anchor="middle" x="515" y="-379.3" font-family="Times,serif" font-size="14.00">#2 Invoke special &lt;init&gt; : ()void</text>
</g>
<!-- node2&#45;&gt;node8 -->
<g id="edge3" class="edge">
<title>node2&#45;&gt;node8</title>
<path fill="none" stroke="red" d="M439.2,-364.99C391.41,-353.67 330.5,-338.85 285.49,-327.61"/>
<polygon fill="red" stroke="red" points="286.11,-324.16 275.56,-325.12 284.41,-330.95 286.11,-324.16"/>
</g>
<!-- node2&#45;&gt;node8 -->
<g id="edge4" class="edge">
<title>node2&#45;&gt;node8</title>
<path fill="none" stroke="green" d="M450.92,-364.99C401.71,-352.71 334.22,-336.33 285.43,-324.85"/>
<polygon fill="green" stroke="green" points="286.16,-321.42 275.62,-322.55 284.56,-328.24 286.16,-321.42"/>
</g>
<!-- node3 -->
<g id="node5" class="node">
<title>node3</title>
<polygon fill="orange" stroke="black" points="652.12,-448.54 652.12,-463.46 621.59,-474 578.41,-474 547.88,-463.46 547.88,-448.54 578.41,-438 621.59,-438 652.12,-448.54"/>
<text text-anchor="middle" x="600" y="-452.3" font-family="Times,serif" font-size="14.00">#3 New</text>
</g>
<!-- node3&#45;&gt;node2 -->
<g id="edge5" class="edge">
<title>node3&#45;&gt;node2</title>
<path fill="none" stroke="black" d="M574.95,-438.89C562.92,-429.71 548.74,-418.05 537.11,-407.83"/>
<polygon fill="black" stroke="black" points="539.32,-405.1 529.53,-401.04 534.65,-410.32 539.32,-405.1"/>
<text text-anchor="middle" x="548.67" y="-403.14" font-family="Times,serif" font-size="14.00">*0</text>
</g>
<!-- node3&#45;&gt;node2 -->
<g id="edge7" class="edge">
<title>node3&#45;&gt;node2</title>
<path fill="none" stroke="green" d="M585.3,-437.81C575.3,-428.66 561.82,-417.26 549.3,-407.32"/>
<polygon fill="green" stroke="green" points="551.28,-404.43 541.25,-401.03 546.97,-409.94 551.28,-404.43"/>
</g>
<!-- node12 -->
<g id="node9" class="node">
<title>node12</title>
<polygon fill="lightgrey" stroke="black" points="595.5,-109 380.5,-109 380.5,-73 595.5,-73 595.5,-109"/>
<text text-anchor="middle" x="488" y="-87.3" font-family="Times,serif" font-size="14.00">#12 PutField : int_field : int</text>
</g>
<!-- node3&#45;&gt;node12 -->
<g id="edge15" class="edge">
<title>node3&#45;&gt;node12</title>
<path fill="none" stroke="black" d="M628.05,-439.98C646.78,-427.7 668,-408.41 668,-384 668,-384 668,-384 668,-163 668,-141.68 623.74,-124.05 579.12,-111.68"/>
<polygon fill="black" stroke="black" points="579.88,-108.26 569.31,-109.05 578.06,-115.02 579.88,-108.26"/>
<text text-anchor="middle" x="589.01" y="-101.89" font-family="Times,serif" font-size="14.00">*0</text>
</g>
<!-- node1&#45;&gt;node2 -->
<g id="edge6" class="edge">
<title>node1&#45;&gt;node2</title>
<path fill="none" stroke="red" d="M574.5,-510.93C562.11,-501.42 547.99,-488.56 539,-474 527.15,-454.82 521.09,-429.84 518.03,-411.06"/>
<polygon fill="red" stroke="red" points="521.48,-410.48 516.58,-401.08 514.55,-411.48 521.48,-410.48"/>
</g>
<!-- node1&#45;&gt;node3 -->
<g id="edge8" class="edge">
<title>node1&#45;&gt;node3</title>
<path fill="none" stroke="black" d="M594.12,-510.81C593.28,-502.79 593.05,-493.05 593.42,-484.07"/>
<polygon fill="black" stroke="black" points="596.92,-484.25 594.14,-474.03 589.94,-483.75 596.92,-484.25"/>
<text text-anchor="middle" x="601.28" y="-489.01" font-family="Times,serif" font-size="14.00">*0</text>
</g>
<!-- node1&#45;&gt;node3 -->
<g id="edge9" class="edge">
<title>node1&#45;&gt;node3</title>
<path fill="none" stroke="green" d="M605.88,-510.81C606.72,-502.79 606.95,-493.05 606.58,-484.07"/>
<polygon fill="green" stroke="green" points="610.06,-483.75 605.86,-474.03 603.08,-484.25 610.06,-483.75"/>
</g>
<!-- node6&#45;&gt;node1 -->
<g id="edge10" class="edge">
<title>node6&#45;&gt;node1</title>
<path fill="none" stroke="black" d="M600,-583.81C600,-575.79 600,-566.05 600,-557.07"/>
<polygon fill="black" stroke="black" points="603.5,-557.03 600,-547.03 596.5,-557.03 603.5,-557.03"/>
<text text-anchor="middle" x="608.45" y="-561.45" font-family="Times,serif" font-size="14.00">*0</text>
</g>
<!-- node5&#45;&gt;node1 -->
<g id="edge11" class="edge">
<title>node5&#45;&gt;node1</title>
<path fill="none" stroke="red" d="M872.93,-583.99C864.05,-581.1 854.79,-578.29 846,-576 784.45,-559.93 712.84,-547.2 662.8,-539.24"/>
<polygon fill="red" stroke="red" points="663.2,-535.76 652.78,-537.66 662.12,-542.67 663.2,-535.76"/>
</g>
<!-- node13 -->
<g id="node13" class="node">
<title>node13</title>
<polygon fill="lightgrey" stroke="black" points="538.5,-36 437.5,-36 437.5,0 538.5,0 538.5,-36"/>
<text text-anchor="middle" x="488" y="-14.3" font-family="Times,serif" font-size="14.00">#13 Return</text>
</g>
<!-- node12&#45;&gt;node13 -->
<g id="edge26" class="edge">
<title>node12&#45;&gt;node13</title>
<path fill="none" stroke="red" d="M482.12,-72.81C481.28,-64.79 481.05,-55.05 481.42,-46.07"/>
<polygon fill="red" stroke="red" points="484.92,-46.25 482.14,-36.03 477.94,-45.75 484.92,-46.25"/>
</g>
<!-- node12&#45;&gt;node13 -->
<g id="edge27" class="edge">
<title>node12&#45;&gt;node13</title>
<path fill="none" stroke="green" d="M493.88,-72.81C494.72,-64.79 494.95,-55.05 494.58,-46.07"/>
<polygon fill="green" stroke="green" points="498.06,-45.75 493.86,-36.03 491.08,-46.25 498.06,-45.75"/>
</g>
<!-- node11 -->
<g id="node10" class="node">
<title>node11</title>
<polygon fill="orange" stroke="black" points="639.91,-156.54 639.91,-171.46 550.92,-182 425.08,-182 336.09,-171.46 336.09,-156.54 425.08,-146 550.92,-146 639.91,-156.54"/>
<text text-anchor="middle" x="488" y="-160.3" font-family="Times,serif" font-size="14.00">#11 GetField : int_field : int</text>
</g>
<!-- node11&#45;&gt;node12 -->
<g id="edge16" class="edge">
<title>node11&#45;&gt;node12</title>
<path fill="none" stroke="black" d="M482.12,-145.81C481.28,-137.79 481.05,-128.05 481.42,-119.07"/>
<polygon fill="black" stroke="black" points="484.92,-119.25 482.14,-109.03 477.94,-118.75 484.92,-119.25"/>
<text text-anchor="middle" x="489.28" y="-124.01" font-family="Times,serif" font-size="14.00">*1</text>
</g>
<!-- node11&#45;&gt;node12 -->
<g id="edge17" class="edge">
<title>node11&#45;&gt;node12</title>
<path fill="none" stroke="green" d="M493.88,-145.81C494.72,-137.79 494.95,-128.05 494.58,-119.07"/>
<polygon fill="green" stroke="green" points="498.06,-118.75 493.86,-109.03 491.08,-119.25 498.06,-118.75"/>
</g>
<!-- node9&#45;&gt;node12 -->
<g id="edge18" class="edge">
<title>node9&#45;&gt;node12</title>
<path fill="none" stroke="red" d="M250.73,-145.99C296.6,-135.56 355.46,-122.16 403.08,-111.32"/>
<polygon fill="red" stroke="red" points="404.09,-114.68 413.07,-109.05 402.54,-107.86 404.09,-114.68"/>
</g>
<!-- node9&#45;&gt;node11 -->
<g id="edge25" class="edge">
<title>node9&#45;&gt;node11</title>
<path fill="none" stroke="green" d="M301.23,-164C309.44,-164 317.65,-164 325.86,-164"/>
<polygon fill="green" stroke="green" points="325.88,-167.5 335.88,-164 325.88,-160.5 325.88,-167.5"/>
</g>
<!-- node10&#45;&gt;node11 -->
<g id="edge24" class="edge">
<title>node10&#45;&gt;node11</title>
<path fill="none" stroke="black" d="M301.37,-223.63C335.25,-212.99 384.77,-197.43 424.29,-185.01"/>
<polygon fill="black" stroke="black" points="425.36,-188.35 433.85,-182.01 423.26,-181.67 425.36,-188.35"/>
<text text-anchor="middle" x="419.09" y="-191.81" font-family="Times,serif" font-size="14.00">*0</text>
</g>
<!-- node10&#45;&gt;node9 -->
<g id="edge19" class="edge">
<title>node10&#45;&gt;node9</title>
<path fill="none" stroke="black" d="M235.78,-219.17C223.83,-210.11 209.91,-198.78 198.44,-188.82"/>
<polygon fill="black" stroke="black" points="200.76,-186.2 190.95,-182.2 196.12,-191.45 200.76,-186.2"/>
<text text-anchor="middle" x="210.13" y="-184.18" font-family="Times,serif" font-size="14.00">*0</text>
</g>
<!-- node10&#45;&gt;node9 -->
<g id="edge21" class="edge">
<title>node10&#45;&gt;node9</title>
<path fill="none" stroke="green" d="M247.06,-218.81C236.93,-209.66 223.29,-198.26 210.63,-188.32"/>
<polygon fill="green" stroke="green" points="212.54,-185.37 202.49,-182.03 208.26,-190.91 212.54,-185.37"/>
</g>
<!-- c0 -->
<!-- c1 -->
<!-- c0&#45;&gt;c1 -->
<g id="edge28" class="edge">
<title>c0&#45;&gt;c1</title>
<path fill="none" stroke="red" d="M1555.89,-684C1567.11,-684 1625.24,-684 1650.86,-684"/>
<polygon fill="red" stroke="red" points="1651.06,-687.5 1661.06,-684 1651.06,-680.5 1651.06,-687.5"/>
<text text-anchor="middle" x="1608.5" y="-690.8" font-family="Times,serif" font-size="14.00">Control flow</text>
</g>
<!-- c2 -->
<!-- c3 -->
<!-- c2&#45;&gt;c3 -->
<g id="edge29" class="edge">
<title>c2&#45;&gt;c3</title>
<path fill="none" stroke="red" stroke-dasharray="5,2" d="M1349.08,-684C1366.05,-684 1482.21,-684 1520.08,-684"/>
<polygon fill="red" stroke="red" points="1520.17,-687.5 1530.17,-684 1520.17,-680.5 1520.17,-687.5"/>
<text text-anchor="middle" x="1439.5" y="-690.8" font-family="Times,serif" font-size="14.00">Control flow back edge</text>
</g>
<!-- d0 -->
<!-- d1 -->
<!-- d0&#45;&gt;d1 -->
<g id="edge30" class="edge">
<title>d0&#45;&gt;d1</title>
<path fill="none" stroke="black" d="M1237.86,-684C1247.41,-684 1291.31,-684 1312.92,-684"/>
<polygon fill="black" stroke="black" points="1313.15,-687.5 1323.15,-684 1313.15,-680.5 1313.15,-687.5"/>
<text text-anchor="middle" x="1280.5" y="-690.8" font-family="Times,serif" font-size="14.00">Data flow</text>
</g>
<!-- d2 -->
<!-- d3 -->
<!-- d2&#45;&gt;d3 -->
<g id="edge31" class="edge">
<title>d2&#45;&gt;d3</title>
<path fill="none" stroke="black" stroke-dasharray="1,5" d="M1111.81,-684C1122.46,-684 1177.46,-684 1202.08,-684"/>
<polygon fill="black" stroke="black" points="1202.15,-687.5 1212.15,-684 1202.15,-680.5 1202.15,-687.5"/>
<text text-anchor="middle" x="1162" y="-690.8" font-family="Times,serif" font-size="14.00">Declaration</text>
</g>
<!-- d4 -->
<!-- d5 -->
<!-- d4&#45;&gt;d5 -->
<g id="edge32" class="edge">
<title>d4&#45;&gt;d5</title>
<path fill="none" stroke="blue" d="M969.1,-684C981.72,-684 1047.88,-684 1075.68,-684"/>
<polygon fill="blue" stroke="blue" points="1075.84,-687.5 1085.84,-684 1075.84,-680.5 1075.84,-687.5"/>
<text text-anchor="middle" x="1027.5" y="-690.8" font-family="Times,serif" font-size="14.00">PHI Data flow</text>
</g>
<!-- d6 -->
<!-- d7 -->
<!-- d6&#45;&gt;d7 -->
<g id="edge33" class="edge">
<title>d6&#45;&gt;d7</title>
<path fill="none" stroke="green" d="M832,-684C843.94,-684 906.3,-684 932.93,-684"/>
<polygon fill="green" stroke="green" points="932.95,-687.5 942.95,-684 932.95,-680.5 932.95,-687.5"/>
<text text-anchor="middle" x="887.5" y="-690.8" font-family="Times,serif" font-size="14.00">Memory flow</text>
</g>
</g>
</svg>
