<?xml version="1.0" encoding="UTF-8" standalone="no"?>
<!DOCTYPE svg PUBLIC "-//W3C//DTD SVG 1.1//EN"
 "http://www.w3.org/Graphics/SVG/1.1/DTD/svg11.dtd">
<!-- Generated by graphviz version 2.43.0 (0)
 -->
<!-- Title: %3 Pages: 1 -->
<svg width="1861pt" height="735pt"
 viewBox="0.00 0.00 1860.50 735.00" xmlns="http://www.w3.org/2000/svg" xmlns:xlink="http://www.w3.org/1999/xlink">
<g id="graph0" class="graph" transform="scale(1 1) rotate(0) translate(4 731)">
<title>%3</title>
<polygon fill="white" stroke="transparent" points="-4,4 -4,-731 1856.5,-731 1856.5,4 -4,4"/>
<g id="clust1" class="cluster">
<title>cluster_0</title>
<polygon fill="none" stroke="lightgray" points="167.5,-576 167.5,-719 983.5,-719 983.5,-576 167.5,-576"/>
</g>
<g id="clust2" class="cluster">
<title>cluster_000</title>
<polygon fill="none" stroke="black" points="991.5,-674.2 991.5,-716.8 1844.5,-716.8 1844.5,-674.2 991.5,-674.2"/>
<text text-anchor="middle" x="1418" y="-701.6" font-family="Times,serif" font-size="14.00">Legend</text>
</g>
<!-- node0 -->
<g id="node1" class="node">
<title>node0</title>
<polygon fill="lightgrey" stroke="transparent" points="469,-711 302,-711 302,-657 469,-657 469,-711"/>
<polygon fill="none" stroke="black" points="302.5,-684 302.5,-711 469.5,-711 469.5,-684 302.5,-684"/>
<text text-anchor="start" x="345.5" y="-693.8" font-family="Times,serif" font-size="14.00">#0 Method</text>
<polygon fill="yellow" stroke="transparent" points="302.5,-657 302.5,-684 469.5,-684 469.5,-657 302.5,-657"/>
<polygon fill="none" stroke="black" points="302.5,-657 302.5,-684 469.5,-684 469.5,-657 302.5,-657"/>
<text text-anchor="start" x="308.5" y="-666.8" font-family="Times,serif" font-size="14.00">this : FieldAccessTest</text>
</g>
<!-- node13 -->
<g id="node2" class="node">
<title>node13</title>
<polygon fill="lightgreen" stroke="black" points="595.69,-594.54 595.69,-609.46 472.56,-620 298.44,-620 175.31,-609.46 175.31,-594.54 298.44,-584 472.56,-584 595.69,-594.54"/>
<text text-anchor="middle" x="385.5" y="-598.3" font-family="Times,serif" font-size="14.00">#13 Class FieldAccessTest$Destination</text>
</g>
<!-- node0&#45;&gt;node13 -->
<g id="edge1" class="edge">
<title>node0&#45;&gt;node13</title>
<path fill="none" stroke="black" stroke-dasharray="1,5" d="M385.5,-656.81C385.5,-648.35 385.5,-638.95 385.5,-630.4"/>
<polygon fill="black" stroke="black" points="389,-630.17 385.5,-620.17 382,-630.17 389,-630.17"/>
</g>
<!-- node1 -->
<g id="node3" class="node">
<title>node1</title>
<polygon fill="lightgrey" stroke="black" points="438,-547 333,-547 333,-511 438,-511 438,-547"/>
<text text-anchor="middle" x="385.5" y="-525.3" font-family="Times,serif" font-size="14.00">#1 ClassInit</text>
</g>
<!-- node0&#45;&gt;node1 -->
<g id="edge4" class="edge">
<title>node0&#45;&gt;node1</title>
<path fill="none" stroke="green" d="M301.85,-671.97C223.08,-658.11 123.16,-629.39 166.5,-576 171.52,-569.82 259.96,-552.68 322.9,-541.16"/>
<polygon fill="green" stroke="green" points="323.55,-544.6 332.76,-539.36 322.3,-537.71 323.55,-544.6"/>
</g>
<!-- node5 -->
<g id="node4" class="node">
<title>node5</title>
<polygon fill="lightgrey" stroke="black" points="119,-620 0,-620 0,-584 119,-584 119,-620"/>
<text text-anchor="middle" x="59.5" y="-598.3" font-family="Times,serif" font-size="14.00">#5 LabelNode</text>
</g>
<!-- node0&#45;&gt;node5 -->
<g id="edge5" class="edge">
<title>node0&#45;&gt;node5</title>
<path fill="none" stroke="red" d="M301.82,-677.74C247.83,-672.3 176.87,-661.29 117.5,-639 108.46,-635.6 99.29,-630.72 91,-625.64"/>
<polygon fill="red" stroke="red" points="92.7,-622.57 82.39,-620.12 88.91,-628.46 92.7,-622.57"/>
</g>
<!-- node6 -->
<g id="node12" class="node">
<title>node6</title>
<polygon fill="lightgreen" stroke="black" points="975.1,-594.54 975.1,-609.46 869.31,-620 719.69,-620 613.9,-609.46 613.9,-594.54 719.69,-584 869.31,-584 975.1,-594.54"/>
<text text-anchor="middle" x="794.5" y="-598.3" font-family="Times,serif" font-size="14.00">#6 Class FieldAccessTest$Source</text>
</g>
<!-- node0&#45;&gt;node6 -->
<g id="edge23" class="edge">
<title>node0&#45;&gt;node6</title>
<path fill="none" stroke="black" stroke-dasharray="1,5" d="M469.25,-666.62C536.75,-653.42 631.58,-634.87 701.44,-621.2"/>
<polygon fill="black" stroke="black" points="702.42,-624.58 711.56,-619.22 701.07,-617.71 702.42,-624.58"/>
</g>
<!-- node13&#45;&gt;node1 -->
<g id="edge2" class="edge">
<title>node13&#45;&gt;node1</title>
<path fill="none" stroke="black" d="M385.5,-583.81C385.5,-575.79 385.5,-566.05 385.5,-557.07"/>
<polygon fill="black" stroke="black" points="389,-557.03 385.5,-547.03 382,-557.03 389,-557.03"/>
<text text-anchor="middle" x="393.95" y="-561.45" font-family="Times,serif" font-size="14.00">*0</text>
</g>
<!-- node2 -->
<g id="node5" class="node">
<title>node2</title>
<polygon fill="lightgrey" stroke="black" points="642.5,-401 392.5,-401 392.5,-365 642.5,-365 642.5,-401"/>
<text text-anchor="middle" x="517.5" y="-379.3" font-family="Times,serif" font-size="14.00">#2 Invoke special &lt;init&gt; : ()void</text>
</g>
<!-- node1&#45;&gt;node2 -->
<g id="edge7" class="edge">
<title>node1&#45;&gt;node2</title>
<path fill="none" stroke="red" d="M406.67,-510.87C418.82,-500.66 434.07,-487.16 446.5,-474 465.85,-453.52 485.51,-428.17 499.23,-409.59"/>
<polygon fill="red" stroke="red" points="502.19,-411.46 505.27,-401.32 496.54,-407.33 502.19,-411.46"/>
</g>
<!-- node3 -->
<g id="node6" class="node">
<title>node3</title>
<polygon fill="orange" stroke="black" points="437.62,-448.54 437.62,-463.46 407.09,-474 363.91,-474 333.38,-463.46 333.38,-448.54 363.91,-438 407.09,-438 437.62,-448.54"/>
<text text-anchor="middle" x="385.5" y="-452.3" font-family="Times,serif" font-size="14.00">#3 New</text>
</g>
<!-- node1&#45;&gt;node3 -->
<g id="edge9" class="edge">
<title>node1&#45;&gt;node3</title>
<path fill="none" stroke="black" d="M379.62,-510.81C378.78,-502.79 378.55,-493.05 378.92,-484.07"/>
<polygon fill="black" stroke="black" points="382.42,-484.25 379.64,-474.03 375.44,-483.75 382.42,-484.25"/>
<text text-anchor="middle" x="386.78" y="-489.01" font-family="Times,serif" font-size="14.00">*0</text>
</g>
<!-- node1&#45;&gt;node3 -->
<g id="edge10" class="edge">
<title>node1&#45;&gt;node3</title>
<path fill="none" stroke="green" d="M391.38,-510.81C392.22,-502.79 392.45,-493.05 392.08,-484.07"/>
<polygon fill="green" stroke="green" points="395.56,-483.75 391.36,-474.03 388.58,-484.25 395.56,-483.75"/>
</g>
<!-- node5&#45;&gt;node1 -->
<g id="edge3" class="edge">
<title>node5&#45;&gt;node1</title>
<path fill="none" stroke="red" d="M106.56,-583.96C115.44,-581.07 124.7,-578.28 133.5,-576 197.28,-559.5 271.62,-546.69 322.94,-538.83"/>
<polygon fill="red" stroke="red" points="323.53,-542.28 332.89,-537.32 322.48,-535.36 323.53,-542.28"/>
</g>
<!-- node7 -->
<g id="node11" class="node">
<title>node7</title>
<polygon fill="lightgrey" stroke="black" points="841,-328 736,-328 736,-292 841,-292 841,-328"/>
<text text-anchor="middle" x="788.5" y="-306.3" font-family="Times,serif" font-size="14.00">#7 ClassInit</text>
</g>
<!-- node2&#45;&gt;node7 -->
<g id="edge21" class="edge">
<title>node2&#45;&gt;node7</title>
<path fill="none" stroke="red" d="M576.55,-364.99C620.71,-353.09 680.89,-337.35 725.88,-325.93"/>
<polygon fill="red" stroke="red" points="726.98,-329.27 735.82,-323.42 725.26,-322.48 726.98,-329.27"/>
</g>
<!-- node2&#45;&gt;node7 -->
<g id="edge22" class="edge">
<title>node2&#45;&gt;node7</title>
<path fill="none" stroke="green" d="M588.27,-364.99C630.94,-354.12 684.76,-340.03 725.88,-328.97"/>
<polygon fill="green" stroke="green" points="727.04,-332.28 735.78,-326.3 725.22,-325.52 727.04,-332.28"/>
</g>
<!-- node3&#45;&gt;node2 -->
<g id="edge6" class="edge">
<title>node3&#45;&gt;node2</title>
<path fill="none" stroke="black" d="M409.69,-438.89C426.86,-429.05 450.31,-416.35 470.99,-405.64"/>
<polygon fill="black" stroke="black" points="472.67,-408.72 479.96,-401.04 469.47,-402.49 472.67,-408.72"/>
<text text-anchor="middle" x="467.7" y="-413.14" font-family="Times,serif" font-size="14.00">*0</text>
</g>
<!-- node3&#45;&gt;node2 -->
<g id="edge8" class="edge">
<title>node3&#45;&gt;node2</title>
<path fill="none" stroke="green" d="M416.75,-441.14C436.66,-431.16 462.36,-417.48 482.87,-406.01"/>
<polygon fill="green" stroke="green" points="484.62,-409.05 491.61,-401.08 481.18,-402.95 484.62,-409.05"/>
</g>
<!-- node11 -->
<g id="node7" class="node">
<title>node11</title>
<polygon fill="lightgrey" stroke="black" points="652,-109 437,-109 437,-73 652,-73 652,-109"/>
<text text-anchor="middle" x="544.5" y="-87.3" font-family="Times,serif" font-size="14.00">#11 PutField : int_field : int</text>
</g>
<!-- node3&#45;&gt;node11 -->
<g id="edge11" class="edge">
<title>node3&#45;&gt;node11</title>
<path fill="none" stroke="black" d="M377.44,-437.91C371.52,-423.78 364.5,-403.02 364.5,-384 364.5,-384 364.5,-384 364.5,-163 364.5,-141.68 408.76,-124.05 453.38,-111.68"/>
<polygon fill="black" stroke="black" points="454.44,-115.02 463.19,-109.05 452.62,-108.26 454.44,-115.02"/>
<text text-anchor="middle" x="447.88" y="-118.21" font-family="Times,serif" font-size="14.00">*0</text>
</g>
<!-- node12 -->
<g id="node13" class="node">
<title>node12</title>
<polygon fill="lightgrey" stroke="black" points="595,-36 494,-36 494,0 595,0 595,-36"/>
<text text-anchor="middle" x="544.5" y="-14.3" font-family="Times,serif" font-size="14.00">#12 Return</text>
</g>
<!-- node11&#45;&gt;node12 -->
<g id="edge26" class="edge">
<title>node11&#45;&gt;node12</title>
<path fill="none" stroke="red" d="M538.62,-72.81C537.78,-64.79 537.55,-55.05 537.92,-46.07"/>
<polygon fill="red" stroke="red" points="541.42,-46.25 538.64,-36.03 534.44,-45.75 541.42,-46.25"/>
</g>
<!-- node11&#45;&gt;node12 -->
<g id="edge27" class="edge">
<title>node11&#45;&gt;node12</title>
<path fill="none" stroke="green" d="M550.38,-72.81C551.22,-64.79 551.45,-55.05 551.08,-46.07"/>
<polygon fill="green" stroke="green" points="554.56,-45.75 550.36,-36.03 547.58,-46.25 554.56,-45.75"/>
</g>
<!-- node10 -->
<g id="node8" class="node">
<title>node10</title>
<polygon fill="orange" stroke="black" points="696.41,-156.54 696.41,-171.46 607.42,-182 481.58,-182 392.59,-171.46 392.59,-156.54 481.58,-146 607.42,-146 696.41,-156.54"/>
<text text-anchor="middle" x="544.5" y="-160.3" font-family="Times,serif" font-size="14.00">#10 GetField : int_field : int</text>
</g>
<!-- node10&#45;&gt;node11 -->
<g id="edge12" class="edge">
<title>node10&#45;&gt;node11</title>
<path fill="none" stroke="black" d="M538.62,-145.81C537.78,-137.79 537.55,-128.05 537.92,-119.07"/>
<polygon fill="black" stroke="black" points="541.42,-119.25 538.64,-109.03 534.44,-118.75 541.42,-119.25"/>
<text text-anchor="middle" x="545.78" y="-124.01" font-family="Times,serif" font-size="14.00">*1</text>
</g>
<!-- node10&#45;&gt;node11 -->
<g id="edge13" class="edge">
<title>node10&#45;&gt;node11</title>
<path fill="none" stroke="green" d="M550.38,-145.81C551.22,-137.79 551.45,-128.05 551.08,-119.07"/>
<polygon fill="green" stroke="green" points="554.56,-118.75 550.36,-109.03 547.58,-119.25 554.56,-118.75"/>
</g>
<!-- node8 -->
<g id="node9" class="node">
<title>node8</title>
<polygon fill="lightgrey" stroke="black" points="981.5,-182 731.5,-182 731.5,-146 981.5,-146 981.5,-182"/>
<text text-anchor="middle" x="856.5" y="-160.3" font-family="Times,serif" font-size="14.00">#8 Invoke special &lt;init&gt; : ()void</text>
</g>
<!-- node8&#45;&gt;node11 -->
<g id="edge14" class="edge">
<title>node8&#45;&gt;node11</title>
<path fill="none" stroke="red" d="M781.77,-145.99C735.9,-135.56 677.04,-122.16 629.42,-111.32"/>
<polygon fill="red" stroke="red" points="629.96,-107.86 619.43,-109.05 628.41,-114.68 629.96,-107.86"/>
</g>
<!-- node8&#45;&gt;node10 -->
<g id="edge25" class="edge">
<title>node8&#45;&gt;node10</title>
<path fill="none" stroke="green" d="M731.22,-164C723,-164 714.78,-164 706.56,-164"/>
<polygon fill="green" stroke="green" points="706.54,-160.5 696.54,-164 706.54,-167.5 706.54,-160.5"/>
</g>
<!-- node9 -->
<g id="node10" class="node">
<title>node9</title>
<polygon fill="orange" stroke="black" points="828.62,-229.54 828.62,-244.46 798.09,-255 754.91,-255 724.38,-244.46 724.38,-229.54 754.91,-219 798.09,-219 828.62,-229.54"/>
<text text-anchor="middle" x="776.5" y="-233.3" font-family="Times,serif" font-size="14.00">#9 New</text>
</g>
<!-- node9&#45;&gt;node10 -->
<g id="edge24" class="edge">
<title>node9&#45;&gt;node10</title>
<path fill="none" stroke="black" d="M738.71,-224.43C703.88,-213.78 651.44,-197.73 609.83,-184.99"/>
<polygon fill="black" stroke="black" points="610.64,-181.58 600.05,-182 608.59,-188.27 610.64,-181.58"/>
<text text-anchor="middle" x="619.86" y="-175.52" font-family="Times,serif" font-size="14.00">*0</text>
</g>
<!-- node9&#45;&gt;node8 -->
<g id="edge15" class="edge">
<title>node9&#45;&gt;node8</title>
<path fill="none" stroke="black" d="M789.99,-218.81C799.26,-209.74 811.78,-198.48 823.51,-188.6"/>
<polygon fill="black" stroke="black" points="825.98,-191.1 831.45,-182.03 821.51,-185.71 825.98,-191.1"/>
<text text-anchor="middle" x="822.87" y="-196.4" font-family="Times,serif" font-size="14.00">*0</text>
</g>
<!-- node9&#45;&gt;node8 -->
<g id="edge17" class="edge">
<title>node9&#45;&gt;node8</title>
<path fill="none" stroke="green" d="M800.86,-219.53C812.03,-210.5 825.05,-199.13 835.75,-189.12"/>
<polygon fill="green" stroke="green" points="838.27,-191.56 843.08,-182.12 833.43,-186.5 838.27,-191.56"/>
</g>
<!-- node7&#45;&gt;node8 -->
<g id="edge16" class="edge">
<title>node7&#45;&gt;node8</title>
<path fill="none" stroke="red" d="M808.45,-291.88C818.64,-282.08 830.36,-268.98 837.5,-255 847.52,-235.39 852.26,-210.78 854.5,-192.26"/>
<polygon fill="red" stroke="red" points="858,-192.45 855.55,-182.14 851.04,-191.72 858,-192.45"/>
</g>
<!-- node7&#45;&gt;node9 -->
<g id="edge18" class="edge">
<title>node7&#45;&gt;node9</title>
<path fill="none" stroke="black" d="M779.72,-291.81C777.52,-283.79 775.64,-274.05 774.5,-265.07"/>
<polygon fill="black" stroke="black" points="777.97,-264.64 773.52,-255.03 771.01,-265.32 777.97,-264.64"/>
<text text-anchor="middle" x="783.69" y="-268.55" font-family="Times,serif" font-size="14.00">*0</text>
</g>
<!-- node7&#45;&gt;node9 -->
<g id="edge19" class="edge">
<title>node7&#45;&gt;node9</title>
<path fill="none" stroke="green" d="M791.47,-291.81C790.95,-283.7 789.51,-273.84 787.59,-264.78"/>
<polygon fill="green" stroke="green" points="790.99,-263.93 785.24,-255.03 784.18,-265.57 790.99,-263.93"/>
</g>
<!-- node6&#45;&gt;node7 -->
<g id="edge20" class="edge">
<title>node6&#45;&gt;node7</title>
<path fill="none" stroke="black" d="M793.74,-583.79C793.18,-569.41 792.5,-548.37 792.5,-530 792.5,-530 792.5,-530 792.5,-382 792.5,-367.63 791.67,-351.65 790.77,-338.49"/>
<polygon fill="black" stroke="black" points="794.24,-337.92 790.01,-328.2 787.26,-338.43 794.24,-337.92"/>
<text text-anchor="middle" x="799.77" y="-341.96" font-family="Times,serif" font-size="14.00">*0</text>
</g>
<!-- c0 -->
<!-- c1 -->
<!-- c0&#45;&gt;c1 -->
<g id="edge28" class="edge">
<title>c0&#45;&gt;c1</title>
<path fill="none" stroke="red" d="M1727.39,-684C1738.61,-684 1796.74,-684 1822.36,-684"/>
<polygon fill="red" stroke="red" points="1822.56,-687.5 1832.56,-684 1822.56,-680.5 1822.56,-687.5"/>
<text text-anchor="middle" x="1780" y="-690.8" font-family="Times,serif" font-size="14.00">Control flow</text>
</g>
<!-- c2 -->
<!-- c3 -->
<!-- c2&#45;&gt;c3 -->
<g id="edge29" class="edge">
<title>c2&#45;&gt;c3</title>
<path fill="none" stroke="red" stroke-dasharray="5,2" d="M1520.58,-684C1537.55,-684 1653.71,-684 1691.58,-684"/>
<polygon fill="red" stroke="red" points="1691.67,-687.5 1701.67,-684 1691.67,-680.5 1691.67,-687.5"/>
<text text-anchor="middle" x="1611" y="-690.8" font-family="Times,serif" font-size="14.00">Control flow back edge</text>
</g>
<!-- d0 -->
<!-- d1 -->
<!-- d0&#45;&gt;d1 -->
<g id="edge30" class="edge">
<title>d0&#45;&gt;d1</title>
<path fill="none" stroke="black" d="M1409.36,-684C1418.91,-684 1462.81,-684 1484.42,-684"/>
<polygon fill="black" stroke="black" points="1484.65,-687.5 1494.65,-684 1484.65,-680.5 1484.65,-687.5"/>
<text text-anchor="middle" x="1452" y="-690.8" font-family="Times,serif" font-size="14.00">Data flow</text>
</g>
<!-- d2 -->
<!-- d3 -->
<!-- d2&#45;&gt;d3 -->
<g id="edge31" class="edge">
<title>d2&#45;&gt;d3</title>
<path fill="none" stroke="black" stroke-dasharray="1,5" d="M1283.31,-684C1293.96,-684 1348.96,-684 1373.58,-684"/>
<polygon fill="black" stroke="black" points="1373.65,-687.5 1383.65,-684 1373.65,-680.5 1373.65,-687.5"/>
<text text-anchor="middle" x="1333.5" y="-690.8" font-family="Times,serif" font-size="14.00">Declaration</text>
</g>
<!-- d4 -->
<!-- d5 -->
<!-- d4&#45;&gt;d5 -->
<g id="edge32" class="edge">
<title>d4&#45;&gt;d5</title>
<path fill="none" stroke="blue" d="M1140.6,-684C1153.22,-684 1219.38,-684 1247.18,-684"/>
<polygon fill="blue" stroke="blue" points="1247.34,-687.5 1257.34,-684 1247.34,-680.5 1247.34,-687.5"/>
<text text-anchor="middle" x="1199" y="-690.8" font-family="Times,serif" font-size="14.00">PHI Data flow</text>
</g>
<!-- d6 -->
<!-- d7 -->
<!-- d6&#45;&gt;d7 -->
<g id="edge33" class="edge">
<title>d6&#45;&gt;d7</title>
<path fill="none" stroke="green" d="M1003.5,-684C1015.44,-684 1077.8,-684 1104.43,-684"/>
<polygon fill="green" stroke="green" points="1104.45,-687.5 1114.45,-684 1104.45,-680.5 1104.45,-687.5"/>
<text text-anchor="middle" x="1059" y="-690.8" font-family="Times,serif" font-size="14.00">Memory flow</text>
</g>
</g>
</svg>
