<?xml version="1.0" encoding="UTF-8" standalone="no"?>
<!DOCTYPE svg PUBLIC "-//W3C//DTD SVG 1.1//EN"
 "http://www.w3.org/Graphics/SVG/1.1/DTD/svg11.dtd">
<!-- Generated by graphviz version 2.43.0 (0)
 -->
<!-- Title: debugoutput Pages: 1 -->
<svg width="1748pt" height="797pt"
 viewBox="0.00 0.00 1748.16 796.80" xmlns="http://www.w3.org/2000/svg" xmlns:xlink="http://www.w3.org/1999/xlink">
<g id="graph0" class="graph" transform="scale(1 1) rotate(0) translate(4 792.8)">
<title>debugoutput</title>
<polygon fill="white" stroke="transparent" points="-4,4 -4,-792.8 1744.16,-792.8 1744.16,4 -4,4"/>
<g id="clust1" class="cluster">
<title>cluster_000</title>
<polygon fill="none" stroke="black" points="893.16,-738.2 893.16,-780.8 1732.16,-780.8 1732.16,-738.2 893.16,-738.2"/>
<text text-anchor="middle" x="1312.66" y="-765.6" font-family="Times,serif" font-size="14.00">Legend</text>
</g>
<!-- node0 -->
<g id="node1" class="node">
<title>node0</title>
<polygon fill="lightgrey" stroke="black" points="883.16,-766 717.16,-766 717.16,-730 883.16,-730 883.16,-766"/>
<text text-anchor="middle" x="800.16" y="-744.3" font-family="Times,serif" font-size="14.00">#0 Method Order : 0</text>
</g>
<!-- node1 -->
<g id="node2" class="node">
<title>node1</title>
<polygon fill="lightgrey" stroke="black" points="743.16,-620 569.16,-620 569.16,-584 743.16,-584 743.16,-620"/>
<text text-anchor="middle" x="656.16" y="-598.3" font-family="Times,serif" font-size="14.00">#1 ClassInit Order : 5</text>
</g>
<!-- node0&#45;&gt;node1 -->
<g id="edge4" class="edge">
<title>node0&#45;&gt;node1</title>
<path fill="none" stroke="black" d="M717.08,-747.51C523.49,-747.92 55.52,-743.74 8.16,-693 -2.76,-681.3 -2.67,-668.78 8.16,-657 44.4,-617.57 387.16,-606.91 559.01,-604.04"/>
<polygon fill="black" stroke="black" points="559.13,-607.54 569.08,-603.88 559.02,-600.54 559.13,-607.54"/>
</g>
<!-- node13 -->
<g id="node3" class="node">
<title>node13</title>
<polygon fill="lightgreen" stroke="black" points="543.93,-667.54 543.93,-682.46 392.35,-693 177.97,-693 26.39,-682.46 26.39,-667.54 177.97,-657 392.35,-657 543.93,-667.54"/>
<text text-anchor="middle" x="285.16" y="-671.3" font-family="Times,serif" font-size="14.00">#13 Class FieldAccessTest$Destination Order : 1</text>
</g>
<!-- node0&#45;&gt;node13 -->
<g id="edge41" class="edge">
<title>node0&#45;&gt;node13</title>
<path fill="none" stroke="black" stroke-dasharray="1,5" d="M716.93,-736.22C633.73,-725.01 504.87,-707.29 409.54,-693.97"/>
<polygon fill="black" stroke="black" points="409.94,-690.49 399.55,-692.57 408.97,-697.42 409.94,-690.49"/>
</g>
<!-- node5 -->
<g id="node4" class="node">
<title>node5</title>
<polygon fill="lightgrey" stroke="black" points="750.16,-693 562.16,-693 562.16,-657 750.16,-657 750.16,-693"/>
<text text-anchor="middle" x="656.16" y="-671.3" font-family="Times,serif" font-size="14.00">#5 LabelNode Order : 3</text>
</g>
<!-- node0&#45;&gt;node5 -->
<g id="edge15" class="edge">
<title>node0&#45;&gt;node5</title>
<path fill="none" stroke="red" d="M759.81,-729.99C739.16,-720.32 714.23,-708.1 693.96,-697.73"/>
<polygon fill="red" stroke="red" points="695.49,-694.58 685,-693.11 692.28,-700.81 695.49,-694.58"/>
</g>
<!-- node4 -->
<g id="node7" class="node">
<title>node4</title>
<polygon fill="lightgrey" stroke="black" points="1586.16,-693 1320.16,-693 1320.16,-657 1586.16,-657 1586.16,-693"/>
<text text-anchor="middle" x="1453.16" y="-671.3" font-family="Times,serif" font-size="14.00">#4 this : FieldAccessTest Order : 4</text>
</g>
<!-- node0&#45;&gt;node4 -->
<g id="edge13" class="edge">
<title>node0&#45;&gt;node4</title>
<path fill="none" stroke="red" d="M880.43,-729.97C1064.47,-708.57 1113.6,-738.18 1297.16,-712 1323.34,-708.27 1351.65,-701.9 1376.92,-695.56"/>
<polygon fill="red" stroke="red" points="1377.99,-698.9 1386.82,-693.04 1376.26,-692.12 1377.99,-698.9"/>
</g>
<!-- node6 -->
<g id="node8" class="node">
<title>node6</title>
<polygon fill="lightgreen" stroke="black" points="1226.34,-667.54 1226.34,-682.46 1092.09,-693 902.23,-693 767.98,-682.46 767.98,-667.54 902.23,-657 1092.09,-657 1226.34,-667.54"/>
<text text-anchor="middle" x="997.16" y="-671.3" font-family="Times,serif" font-size="14.00">#6 Class FieldAccessTest$Source Order : 2</text>
</g>
<!-- node0&#45;&gt;node6 -->
<g id="edge17" class="edge">
<title>node0&#45;&gt;node6</title>
<path fill="none" stroke="black" stroke-dasharray="1,5" d="M841.49,-729.99C868.36,-719.92 903.83,-707.1 934.16,-696.48"/>
<polygon fill="black" stroke="black" points="935.52,-699.71 943.81,-693.11 933.21,-693.1 935.52,-699.71"/>
</g>
<!-- node1&#45;&gt;node0 -->
<g id="edge1" class="edge">
<title>node1&#45;&gt;node0</title>
<path fill="none" stroke="green" stroke-width="2" d="M568.94,-604.05C404.57,-606.92 62.37,-617.6 26.16,-657 15.33,-668.78 15.24,-681.3 26.16,-693 71.95,-742.05 510.83,-747.59 706.68,-747.53"/>
<polygon fill="green" stroke="green" stroke-width="2" points="706.96,-751.03 716.96,-747.53 706.96,-744.03 706.96,-751.03"/>
</g>
<!-- node2 -->
<g id="node5" class="node">
<title>node2</title>
<polygon fill="lightgrey" stroke="black" points="959.66,-474 640.66,-474 640.66,-438 959.66,-438 959.66,-474"/>
<text text-anchor="middle" x="800.16" y="-452.3" font-family="Times,serif" font-size="14.00">#2 Invoke special &lt;init&gt; : ()void Order : 7</text>
</g>
<!-- node1&#45;&gt;node2 -->
<g id="edge7" class="edge">
<title>node1&#45;&gt;node2</title>
<path fill="none" stroke="red" d="M702.04,-583.93C721.13,-575.47 742.21,-563.45 757.16,-547 773.16,-529.4 781.88,-503.53 788.02,-484.04"/>
<polygon fill="red" stroke="red" points="791.44,-484.82 791.1,-474.23 784.76,-482.72 791.44,-484.82"/>
</g>
<!-- node3 -->
<g id="node6" class="node">
<title>node3</title>
<polygon fill="orange" stroke="black" points="756.86,-521.54 756.86,-536.46 697.87,-547 614.45,-547 555.46,-536.46 555.46,-521.54 614.45,-511 697.87,-511 756.86,-521.54"/>
<text text-anchor="middle" x="656.16" y="-525.3" font-family="Times,serif" font-size="14.00">#3 New Order : 6</text>
</g>
<!-- node1&#45;&gt;node3 -->
<g id="edge10" class="edge">
<title>node1&#45;&gt;node3</title>
<path fill="none" stroke="black" d="M644.4,-583.81C642.72,-575.79 642.26,-566.05 643,-557.07"/>
<polygon fill="black" stroke="black" points="646.49,-557.42 644.44,-547.03 639.56,-556.43 646.49,-557.42"/>
<text text-anchor="middle" x="650.24" y="-562.47" font-family="Times,serif" font-size="14.00">*0</text>
</g>
<!-- node1&#45;&gt;node3 -->
<g id="edge11" class="edge">
<title>node1&#45;&gt;node3</title>
<path fill="none" stroke="black" d="M667.92,-583.81C669.6,-575.79 670.06,-566.05 669.32,-557.07"/>
<polygon fill="black" stroke="black" points="672.76,-556.43 667.88,-547.03 665.83,-557.42 672.76,-556.43"/>
</g>
<!-- node13&#45;&gt;node0 -->
<g id="edge40" class="edge">
<title>node13&#45;&gt;node0</title>
<path fill="none" stroke="green" stroke-width="2" d="M407.36,-692.05C499.25,-704.53 623.2,-721.63 707.12,-733.42"/>
<polygon fill="green" stroke="green" stroke-width="2" points="706.77,-736.91 717.16,-734.84 707.74,-729.98 706.77,-736.91"/>
</g>
<!-- node13&#45;&gt;node1 -->
<g id="edge2" class="edge">
<title>node13&#45;&gt;node1</title>
<path fill="none" stroke="black" d="M374.02,-656.99C429.74,-646.33 501.59,-632.58 558.83,-621.63"/>
<polygon fill="black" stroke="black" points="559.82,-625 568.98,-619.68 558.5,-618.13 559.82,-625"/>
<text text-anchor="middle" x="552.77" y="-627.69" font-family="Times,serif" font-size="14.00">*0</text>
</g>
<!-- node5&#45;&gt;node0 -->
<g id="edge14" class="edge">
<title>node5&#45;&gt;node0</title>
<path fill="none" stroke="green" stroke-width="2" d="M696.74,-693.11C717.42,-702.81 742.35,-715.03 762.59,-725.38"/>
<polygon fill="green" stroke="green" stroke-width="2" points="761.04,-728.52 771.53,-729.99 764.24,-722.3 761.04,-728.52"/>
</g>
<!-- node5&#45;&gt;node1 -->
<g id="edge3" class="edge">
<title>node5&#45;&gt;node1</title>
<path fill="none" stroke="red" d="M656.16,-656.81C656.16,-648.79 656.16,-639.05 656.16,-630.07"/>
<polygon fill="red" stroke="red" points="659.66,-630.03 656.16,-620.03 652.66,-630.03 659.66,-630.03"/>
</g>
<!-- node2&#45;&gt;node1 -->
<g id="edge5" class="edge">
<title>node2&#45;&gt;node1</title>
<path fill="none" stroke="green" stroke-width="2" d="M804.02,-474.23C802.78,-493.97 794.04,-526.24 775.16,-547 762.54,-560.88 745.57,-571.6 728.36,-579.7"/>
<polygon fill="green" stroke="green" stroke-width="2" points="726.54,-576.68 718.81,-583.93 729.37,-583.08 726.54,-576.68"/>
</g>
<!-- node7 -->
<g id="node9" class="node">
<title>node7</title>
<polygon fill="lightgrey" stroke="black" points="1059.16,-401 885.16,-401 885.16,-365 1059.16,-365 1059.16,-401"/>
<text text-anchor="middle" x="972.16" y="-379.3" font-family="Times,serif" font-size="14.00">#7 ClassInit Order : 8</text>
</g>
<!-- node2&#45;&gt;node7 -->
<g id="edge20" class="edge">
<title>node2&#45;&gt;node7</title>
<path fill="none" stroke="red" d="M835.5,-437.99C858.52,-428.06 888.98,-415.43 915.33,-404.89"/>
<polygon fill="red" stroke="red" points="916.83,-408.06 924.83,-401.11 914.25,-401.56 916.83,-408.06"/>
</g>
<!-- node2&#45;&gt;node7 -->
<g id="edge21" class="edge">
<title>node2&#45;&gt;node7</title>
<path fill="none" stroke="black" d="M847.22,-437.99C872.13,-428.14 902.5,-415.66 927.11,-405.17"/>
<polygon fill="black" stroke="black" points="928.76,-408.27 936.57,-401.11 926,-401.84 928.76,-408.27"/>
</g>
<!-- node3&#45;&gt;node1 -->
<g id="edge9" class="edge">
<title>node3&#45;&gt;node1</title>
<path fill="none" stroke="green" stroke-width="2" d="M656.16,-547.03C656.16,-555.03 656.16,-564.77 656.16,-573.75"/>
<polygon fill="green" stroke="green" stroke-width="2" points="652.66,-573.81 656.16,-583.81 659.66,-573.81 652.66,-573.81"/>
</g>
<!-- node3&#45;&gt;node2 -->
<g id="edge6" class="edge">
<title>node3&#45;&gt;node2</title>
<path fill="none" stroke="black" d="M684.79,-510.99C703.56,-501.23 728.48,-488.88 750.4,-478.45"/>
<polygon fill="black" stroke="black" points="752.03,-481.55 759.58,-474.11 749.04,-475.22 752.03,-481.55"/>
<text text-anchor="middle" x="746.8" y="-485.8" font-family="Times,serif" font-size="14.00">*0</text>
</g>
<!-- node3&#45;&gt;node2 -->
<g id="edge8" class="edge">
<title>node3&#45;&gt;node2</title>
<path fill="none" stroke="black" d="M696.51,-510.99C717.16,-501.32 742.09,-489.1 762.36,-478.73"/>
<polygon fill="black" stroke="black" points="764.04,-481.81 771.32,-474.11 760.83,-475.58 764.04,-481.81"/>
</g>
<!-- node11 -->
<g id="node13" class="node">
<title>node11</title>
<polygon fill="lightgrey" stroke="black" points="1198.66,-109 905.66,-109 905.66,-73 1198.66,-73 1198.66,-109"/>
<text text-anchor="middle" x="1052.16" y="-87.3" font-family="Times,serif" font-size="14.00">#11 PutField : int_field : int Order : 12</text>
</g>
<!-- node3&#45;&gt;node11 -->
<g id="edge33" class="edge">
<title>node3&#45;&gt;node11</title>
<path fill="none" stroke="black" d="M638.01,-510.83C625.89,-497.46 612.16,-477.74 612.16,-457 612.16,-457 612.16,-457 612.16,-163 612.16,-133.43 769.04,-113.86 895.45,-102.89"/>
<polygon fill="black" stroke="black" points="895.98,-106.36 905.65,-102.02 895.38,-99.38 895.98,-106.36"/>
<text text-anchor="middle" x="888.31" y="-108.28" font-family="Times,serif" font-size="14.00">*0</text>
</g>
<!-- node4&#45;&gt;node0 -->
<g id="edge12" class="edge">
<title>node4&#45;&gt;node0</title>
<path fill="none" stroke="green" stroke-width="2" d="M1403.23,-693.04C1377.21,-700.17 1344.81,-707.77 1315.16,-712 1131.51,-738.19 1082.42,-708.54 898.16,-730 896.65,-730.18 895.12,-730.36 893.58,-730.56"/>
<polygon fill="green" stroke="green" stroke-width="2" points="892.74,-727.14 883.32,-731.99 893.71,-734.08 892.74,-727.14"/>
</g>
<!-- node6&#45;&gt;node0 -->
<g id="edge16" class="edge">
<title>node6&#45;&gt;node0</title>
<path fill="none" stroke="green" stroke-width="2" d="M955.55,-693.11C928.62,-703.2 893.13,-716.03 862.84,-726.63"/>
<polygon fill="green" stroke="green" stroke-width="2" points="861.5,-723.4 853.21,-729.99 863.8,-730.01 861.5,-723.4"/>
</g>
<!-- node6&#45;&gt;node7 -->
<g id="edge19" class="edge">
<title>node6&#45;&gt;node7</title>
<path fill="none" stroke="black" d="M996.4,-656.79C995.84,-642.41 995.16,-621.37 995.16,-603 995.16,-603 995.16,-603 995.16,-455 995.16,-439.72 990.28,-423.45 985.01,-410.34"/>
<polygon fill="black" stroke="black" points="988.16,-408.8 980.99,-401.01 981.73,-411.58 988.16,-408.8"/>
<text text-anchor="middle" x="995.93" y="-410.6" font-family="Times,serif" font-size="14.00">*0</text>
</g>
<!-- node7&#45;&gt;node0 -->
<g id="edge18" class="edge">
<title>node7&#45;&gt;node0</title>
<path fill="none" stroke="green" stroke-width="2" d="M1059.46,-389.25C1142.28,-396.7 1254.16,-414.3 1254.16,-455 1254.16,-676 1254.16,-676 1254.16,-676 1254.16,-755.03 990.41,-720.67 893.66,-729.66"/>
<polygon fill="green" stroke="green" stroke-width="2" points="893.02,-726.21 883.5,-730.87 893.85,-733.17 893.02,-726.21"/>
</g>
<!-- node8 -->
<g id="node10" class="node">
<title>node8</title>
<polygon fill="lightgrey" stroke="black" points="1005.16,-255 677.16,-255 677.16,-219 1005.16,-219 1005.16,-255"/>
<text text-anchor="middle" x="841.16" y="-233.3" font-family="Times,serif" font-size="14.00">#8 Invoke special &lt;init&gt; : ()void Order : 10</text>
</g>
<!-- node7&#45;&gt;node8 -->
<g id="edge24" class="edge">
<title>node7&#45;&gt;node8</title>
<path fill="none" stroke="red" d="M905.98,-364.96C886.28,-356.65 866.47,-344.73 853.16,-328 839,-310.2 834.09,-284.52 834.04,-265.14"/>
<polygon fill="red" stroke="red" points="837.54,-265.26 834.49,-255.11 830.55,-264.95 837.54,-265.26"/>
</g>
<!-- node9 -->
<g id="node11" class="node">
<title>node9</title>
<polygon fill="orange" stroke="black" points="1072.86,-302.54 1072.86,-317.46 1013.87,-328 930.45,-328 871.46,-317.46 871.46,-302.54 930.45,-292 1013.87,-292 1072.86,-302.54"/>
<text text-anchor="middle" x="972.16" y="-306.3" font-family="Times,serif" font-size="14.00">#9 New Order : 9</text>
</g>
<!-- node7&#45;&gt;node9 -->
<g id="edge27" class="edge">
<title>node7&#45;&gt;node9</title>
<path fill="none" stroke="black" d="M960.4,-364.81C958.72,-356.79 958.26,-347.05 959,-338.07"/>
<polygon fill="black" stroke="black" points="962.49,-338.42 960.44,-328.03 955.56,-337.43 962.49,-338.42"/>
<text text-anchor="middle" x="966.24" y="-343.47" font-family="Times,serif" font-size="14.00">*0</text>
</g>
<!-- node7&#45;&gt;node9 -->
<g id="edge28" class="edge">
<title>node7&#45;&gt;node9</title>
<path fill="none" stroke="black" d="M983.92,-364.81C985.6,-356.79 986.06,-347.05 985.32,-338.07"/>
<polygon fill="black" stroke="black" points="988.76,-337.43 983.88,-328.03 981.83,-338.42 988.76,-337.43"/>
</g>
<!-- node8&#45;&gt;node7 -->
<g id="edge22" class="edge">
<title>node8&#45;&gt;node7</title>
<path fill="none" stroke="green" stroke-width="2" d="M847.41,-255.11C850.58,-274.74 854.38,-306.9 871.16,-328 882.28,-341.99 897.95,-352.61 913.67,-360.57"/>
<polygon fill="green" stroke="green" stroke-width="2" points="912.36,-363.82 922.89,-364.96 915.36,-357.5 912.36,-363.82"/>
</g>
<!-- node10 -->
<g id="node12" class="node">
<title>node10</title>
<polygon fill="orange" stroke="black" points="1258.81,-156.54 1258.81,-171.46 1137.76,-182 966.56,-182 845.51,-171.46 845.51,-156.54 966.56,-146 1137.76,-146 1258.81,-156.54"/>
<text text-anchor="middle" x="1052.16" y="-160.3" font-family="Times,serif" font-size="14.00">#10 GetField : int_field : int Order : 11</text>
</g>
<!-- node8&#45;&gt;node10 -->
<g id="edge31" class="edge">
<title>node8&#45;&gt;node10</title>
<path fill="none" stroke="black" d="M891.7,-218.99C921.75,-208.88 960.06,-195.99 991.71,-185.34"/>
<polygon fill="black" stroke="black" points="992.94,-188.62 1001.3,-182.11 990.71,-181.99 992.94,-188.62"/>
</g>
<!-- node8&#45;&gt;node11 -->
<g id="edge36" class="edge">
<title>node8&#45;&gt;node11</title>
<path fill="none" stroke="red" d="M834.06,-218.75C827.19,-199.01 819.98,-166.72 836.16,-146 847.89,-130.97 882.65,-119.51 920.95,-111.09"/>
<polygon fill="red" stroke="red" points="921.7,-114.51 930.75,-109.02 920.25,-107.67 921.7,-114.51"/>
</g>
<!-- node9&#45;&gt;node7 -->
<g id="edge26" class="edge">
<title>node9&#45;&gt;node7</title>
<path fill="none" stroke="green" stroke-width="2" d="M972.16,-328.03C972.16,-336.03 972.16,-345.77 972.16,-354.75"/>
<polygon fill="green" stroke="green" stroke-width="2" points="968.66,-354.81 972.16,-364.81 975.66,-354.81 968.66,-354.81"/>
</g>
<!-- node9&#45;&gt;node8 -->
<g id="edge23" class="edge">
<title>node9&#45;&gt;node8</title>
<path fill="none" stroke="black" d="M934.92,-291.99C916.38,-282.49 894.17,-270.54 875.97,-260.29"/>
<polygon fill="black" stroke="black" points="877.29,-257.01 866.87,-255.11 873.83,-263.1 877.29,-257.01"/>
<text text-anchor="middle" x="886.8" y="-253.02" font-family="Times,serif" font-size="14.00">*0</text>
</g>
<!-- node9&#45;&gt;node8 -->
<g id="edge25" class="edge">
<title>node9&#45;&gt;node8</title>
<path fill="none" stroke="black" d="M946.64,-291.99C929.81,-282.32 907.41,-270.1 887.53,-259.73"/>
<polygon fill="black" stroke="black" points="889.1,-256.6 878.61,-255.11 885.88,-262.82 889.1,-256.6"/>
</g>
<!-- node9&#45;&gt;node10 -->
<g id="edge30" class="edge">
<title>node9&#45;&gt;node10</title>
<path fill="none" stroke="black" d="M987.39,-291.84C995.97,-281.61 1006.47,-268.11 1014.16,-255 1026.03,-234.75 1036.17,-210.1 1042.98,-191.72"/>
<polygon fill="black" stroke="black" points="1046.31,-192.81 1046.41,-182.22 1039.72,-190.43 1046.31,-192.81"/>
<text text-anchor="middle" x="1048.2" y="-198.44" font-family="Times,serif" font-size="14.00">*0</text>
</g>
<!-- node10&#45;&gt;node7 -->
<g id="edge29" class="edge">
<title>node10&#45;&gt;node7</title>
<path fill="none" stroke="green" stroke-width="2" d="M1062.6,-182.17C1080.22,-213.58 1111.22,-281.36 1082.16,-328 1073.4,-342.06 1059.8,-352.56 1045.11,-360.36"/>
<polygon fill="green" stroke="green" stroke-width="2" points="1043.3,-357.35 1035.85,-364.89 1046.38,-363.64 1043.3,-357.35"/>
</g>
<!-- node10&#45;&gt;node11 -->
<g id="edge34" class="edge">
<title>node10&#45;&gt;node11</title>
<path fill="none" stroke="black" d="M1046.28,-145.81C1045.44,-137.79 1045.21,-128.05 1045.58,-119.07"/>
<polygon fill="black" stroke="black" points="1049.08,-119.25 1046.3,-109.03 1042.1,-118.75 1049.08,-119.25"/>
<text text-anchor="middle" x="1053.44" y="-124.01" font-family="Times,serif" font-size="14.00">*1</text>
</g>
<!-- node10&#45;&gt;node11 -->
<g id="edge35" class="edge">
<title>node10&#45;&gt;node11</title>
<path fill="none" stroke="black" d="M1058.04,-145.81C1058.88,-137.79 1059.11,-128.05 1058.74,-119.07"/>
<polygon fill="black" stroke="black" points="1062.22,-118.75 1058.02,-109.03 1055.24,-119.25 1062.22,-118.75"/>
</g>
<!-- node11&#45;&gt;node0 -->
<g id="edge32" class="edge">
<title>node11&#45;&gt;node0</title>
<path fill="none" stroke="green" stroke-width="2" d="M1184.8,-109.03C1240.3,-119.99 1292.16,-137.15 1292.16,-163 1292.16,-676 1292.16,-676 1292.16,-676 1292.16,-705.22 1264.93,-702.93 1237.16,-712 1166.42,-735.1 981.28,-721.85 893.67,-729.66"/>
<polygon fill="green" stroke="green" stroke-width="2" points="893.07,-726.21 883.48,-730.73 893.79,-733.17 893.07,-726.21"/>
</g>
<!-- node12 -->
<g id="node14" class="node">
<title>node12</title>
<polygon fill="lightgrey" stroke="black" points="1141.66,-36 962.66,-36 962.66,0 1141.66,0 1141.66,-36"/>
<text text-anchor="middle" x="1052.16" y="-14.3" font-family="Times,serif" font-size="14.00">#12 Return Order : 13</text>
</g>
<!-- node11&#45;&gt;node12 -->
<g id="edge38" class="edge">
<title>node11&#45;&gt;node12</title>
<path fill="none" stroke="red" d="M1040.4,-72.81C1038.72,-64.79 1038.26,-55.05 1039,-46.07"/>
<polygon fill="red" stroke="red" points="1042.49,-46.42 1040.44,-36.03 1035.56,-45.43 1042.49,-46.42"/>
</g>
<!-- node11&#45;&gt;node12 -->
<g id="edge39" class="edge">
<title>node11&#45;&gt;node12</title>
<path fill="none" stroke="black" d="M1063.92,-72.81C1065.6,-64.79 1066.06,-55.05 1065.32,-46.07"/>
<polygon fill="black" stroke="black" points="1068.76,-45.43 1063.88,-36.03 1061.83,-46.42 1068.76,-45.43"/>
</g>
<!-- node12&#45;&gt;node11 -->
<g id="edge37" class="edge">
<title>node12&#45;&gt;node11</title>
<path fill="none" stroke="green" stroke-width="2" d="M1052.16,-36.03C1052.16,-44.03 1052.16,-53.77 1052.16,-62.75"/>
<polygon fill="green" stroke="green" stroke-width="2" points="1048.66,-62.81 1052.16,-72.81 1055.66,-62.81 1048.66,-62.81"/>
</g>
<!-- c0 -->
<!-- c1 -->
<!-- c0&#45;&gt;c1 -->
<g id="edge42" class="edge">
<title>c0&#45;&gt;c1</title>
<path fill="none" stroke="red" d="M1615.05,-748C1626.27,-748 1684.4,-748 1710.02,-748"/>
<polygon fill="red" stroke="red" points="1710.22,-751.5 1720.22,-748 1710.22,-744.5 1710.22,-751.5"/>
<text text-anchor="middle" x="1667.66" y="-754.8" font-family="Times,serif" font-size="14.00">Control flow</text>
</g>
<!-- c2 -->
<!-- c3 -->
<!-- c2&#45;&gt;c3 -->
<g id="edge43" class="edge">
<title>c2&#45;&gt;c3</title>
<path fill="none" stroke="red" stroke-dasharray="5,2" d="M1408.24,-748C1425.21,-748 1541.37,-748 1579.24,-748"/>
<polygon fill="red" stroke="red" points="1579.33,-751.5 1589.33,-748 1579.33,-744.5 1579.33,-751.5"/>
<text text-anchor="middle" x="1498.66" y="-754.8" font-family="Times,serif" font-size="14.00">Control flow back edge</text>
</g>
<!-- d0 -->
<!-- d1 -->
<!-- d0&#45;&gt;d1 -->
<g id="edge44" class="edge">
<title>d0&#45;&gt;d1</title>
<path fill="none" stroke="black" d="M1297.02,-748C1306.57,-748 1350.47,-748 1372.08,-748"/>
<polygon fill="black" stroke="black" points="1372.31,-751.5 1382.31,-748 1372.31,-744.5 1372.31,-751.5"/>
<text text-anchor="middle" x="1339.66" y="-754.8" font-family="Times,serif" font-size="14.00">Data flow</text>
</g>
<!-- d2 -->
<!-- d3 -->
<!-- d2&#45;&gt;d3 -->
<g id="edge45" class="edge">
<title>d2&#45;&gt;d3</title>
<path fill="none" stroke="black" stroke-dasharray="1,5" d="M1170.96,-748C1181.62,-748 1236.62,-748 1261.23,-748"/>
<polygon fill="black" stroke="black" points="1261.31,-751.5 1271.31,-748 1261.3,-744.5 1261.31,-751.5"/>
<text text-anchor="middle" x="1221.16" y="-754.8" font-family="Times,serif" font-size="14.00">Declaration</text>
</g>
<!-- d4 -->
<!-- d5 -->
<!-- d4&#45;&gt;d5 -->
<g id="edge46" class="edge">
<title>d4&#45;&gt;d5</title>
<path fill="none" stroke="blue" d="M1028.26,-748C1040.88,-748 1107.04,-748 1134.84,-748"/>
<polygon fill="blue" stroke="blue" points="1135,-751.5 1145,-748 1135,-744.5 1135,-751.5"/>
<text text-anchor="middle" x="1086.66" y="-754.8" font-family="Times,serif" font-size="14.00">PHI Data flow</text>
</g>
<!-- d6 -->
<!-- d7 -->
<!-- d6&#45;&gt;d7 -->
<g id="edge47" class="edge">
<title>d6&#45;&gt;d7</title>
<path fill="none" stroke="green" d="M905.27,-748C916.31,-748 967.83,-748 991.82,-748"/>
<polygon fill="green" stroke="green" points="992.06,-751.5 1002.06,-748 992.06,-744.5 992.06,-751.5"/>
<text text-anchor="middle" x="953.66" y="-754.8" font-family="Times,serif" font-size="14.00">Dominance</text>
</g>
</g>
</svg>
