<?xml version="1.0" encoding="UTF-8" standalone="no"?>
<!DOCTYPE svg PUBLIC "-//W3C//DTD SVG 1.1//EN"
 "http://www.w3.org/Graphics/SVG/1.1/DTD/svg11.dtd">
<!-- Generated by graphviz version 2.43.0 (0)
 -->
<!-- Title: debugoutput Pages: 1 -->
<svg width="2404pt" height="213pt"
 viewBox="0.00 0.00 2404.00 212.80" xmlns="http://www.w3.org/2000/svg" xmlns:xlink="http://www.w3.org/1999/xlink">
<g id="graph0" class="graph" transform="scale(1 1) rotate(0) translate(4 208.8)">
<title>debugoutput</title>
<polygon fill="white" stroke="transparent" points="-4,4 -4,-208.8 2400,-208.8 2400,4 -4,4"/>
<g id="clust1" class="cluster">
<title>cluster_000</title>
<polygon fill="none" stroke="black" points="1318,-154.2 1318,-196.8 2157,-196.8 2157,-154.2 1318,-154.2"/>
<text text-anchor="middle" x="1737.5" y="-181.6" font-family="Times,serif" font-size="14.00">Legend</text>
</g>
<!-- node0 -->
<g id="node1" class="node">
<title>node0</title>
<polygon fill="lightgrey" stroke="black" points="1308,-182 1142,-182 1142,-146 1308,-146 1308,-182"/>
<text text-anchor="middle" x="1225" y="-160.3" font-family="Times,serif" font-size="14.00">#0 Method Order : 0</text>
</g>
<!-- node1 -->
<g id="node2" class="node">
<title>node1</title>
<polygon fill="lightgrey" stroke="black" points="186,-109 0,-109 0,-73 186,-73 186,-109"/>
<text text-anchor="middle" x="93" y="-87.3" font-family="Times,serif" font-size="14.00">#1 arg1 : int Order : 12</text>
</g>
<!-- node0&#45;&gt;node1 -->
<g id="edge2" class="edge">
<title>node0&#45;&gt;node1</title>
<path fill="none" stroke="red" d="M1141.8,-161.9C966.75,-158.86 547.86,-147.84 195.86,-110.07"/>
<polygon fill="red" stroke="red" points="196.05,-106.57 185.73,-108.97 195.3,-113.53 196.05,-106.57"/>
</g>
<!-- node2 -->
<g id="node3" class="node">
<title>node2</title>
<polygon fill="lightgrey" stroke="black" points="390,-109 204,-109 204,-73 390,-73 390,-109"/>
<text text-anchor="middle" x="297" y="-87.3" font-family="Times,serif" font-size="14.00">#2 arg3 : int Order : 11</text>
</g>
<!-- node0&#45;&gt;node2 -->
<g id="edge4" class="edge">
<title>node0&#45;&gt;node2</title>
<path fill="none" stroke="red" d="M1141.83,-160.5C993.08,-155.28 671.88,-141.05 399.8,-110.12"/>
<polygon fill="red" stroke="red" points="400.07,-106.63 389.73,-108.97 399.27,-113.59 400.07,-106.63"/>
</g>
<!-- node3 -->
<g id="node4" class="node">
<title>node3</title>
<polygon fill="lightgrey" stroke="black" points="594,-109 408,-109 408,-73 594,-73 594,-109"/>
<text text-anchor="middle" x="501" y="-87.3" font-family="Times,serif" font-size="14.00">#3 arg2 : int Order : 10</text>
</g>
<!-- node0&#45;&gt;node3 -->
<g id="edge6" class="edge">
<title>node0&#45;&gt;node3</title>
<path fill="none" stroke="red" d="M1141.92,-158.25C1022.96,-150.7 797.32,-134.3 603.8,-110.23"/>
<polygon fill="red" stroke="red" points="604.09,-106.74 593.73,-108.97 603.22,-113.68 604.09,-106.74"/>
</g>
<!-- node4 -->
<g id="node5" class="node">
<title>node4</title>
<polygon fill="lightgrey" stroke="black" points="800,-109 612,-109 612,-73 800,-73 800,-109"/>
<text text-anchor="middle" x="706" y="-87.3" font-family="Times,serif" font-size="14.00">#4 arg5 : long Order : 9</text>
</g>
<!-- node0&#45;&gt;node4 -->
<g id="edge8" class="edge">
<title>node0&#45;&gt;node4</title>
<path fill="none" stroke="red" d="M1141.98,-153.88C1058.59,-144.03 926.36,-127.45 810.44,-110.53"/>
<polygon fill="red" stroke="red" points="810.75,-107.04 800.35,-109.05 809.73,-113.96 810.75,-107.04"/>
</g>
<!-- node5 -->
<g id="node6" class="node">
<title>node5</title>
<polygon fill="lightgrey" stroke="black" points="1024,-109 818,-109 818,-73 1024,-73 1024,-109"/>
<text text-anchor="middle" x="921" y="-87.3" font-family="Times,serif" font-size="14.00">#5 arg7 : double Order : 8</text>
</g>
<!-- node0&#45;&gt;node5 -->
<g id="edge10" class="edge">
<title>node0&#45;&gt;node5</title>
<path fill="none" stroke="red" d="M1146.33,-145.99C1100.63,-135.58 1043.34,-122.22 997.94,-111.39"/>
<polygon fill="red" stroke="red" points="998.69,-107.97 988.15,-109.05 997.06,-114.78 998.69,-107.97"/>
</g>
<!-- node6 -->
<g id="node7" class="node">
<title>node6</title>
<polygon fill="lightgrey" stroke="black" points="1219.5,-109 1042.5,-109 1042.5,-73 1219.5,-73 1219.5,-109"/>
<text text-anchor="middle" x="1131" y="-87.3" font-family="Times,serif" font-size="14.00">#6 arg0 : int Order : 7</text>
</g>
<!-- node0&#45;&gt;node6 -->
<g id="edge12" class="edge">
<title>node0&#45;&gt;node6</title>
<path fill="none" stroke="red" d="M1196.63,-145.99C1183.54,-136.84 1168.23,-125.41 1155.63,-115.43"/>
<polygon fill="red" stroke="red" points="1157.77,-112.66 1147.79,-109.11 1153.38,-118.11 1157.77,-112.66"/>
</g>
<!-- node7 -->
<g id="node8" class="node">
<title>node7</title>
<polygon fill="lightgrey" stroke="black" points="1440.5,-109 1237.5,-109 1237.5,-73 1440.5,-73 1440.5,-109"/>
<text text-anchor="middle" x="1339" y="-87.3" font-family="Times,serif" font-size="14.00">#7 arg8 : String Order : 6</text>
</g>
<!-- node0&#45;&gt;node7 -->
<g id="edge14" class="edge">
<title>node0&#45;&gt;node7</title>
<path fill="none" stroke="red" d="M1246.45,-145.99C1260.7,-136.49 1279.74,-124.54 1296.89,-114.29"/>
<polygon fill="red" stroke="red" points="1298.82,-117.22 1305.65,-109.11 1295.26,-111.19 1298.82,-117.22"/>
</g>
<!-- node8 -->
<g id="node9" class="node">
<title>node8</title>
<polygon fill="lightgrey" stroke="black" points="1647.5,-109 1458.5,-109 1458.5,-73 1647.5,-73 1647.5,-109"/>
<text text-anchor="middle" x="1553" y="-87.3" font-family="Times,serif" font-size="14.00">#8 arg6 : float Order : 5</text>
</g>
<!-- node0&#45;&gt;node8 -->
<g id="edge16" class="edge">
<title>node0&#45;&gt;node8</title>
<path fill="none" stroke="red" d="M1297.7,-145.99C1345.01,-135.51 1407.14,-122.05 1458.29,-111.19"/>
<polygon fill="red" stroke="red" points="1459.3,-114.55 1468.36,-109.05 1457.85,-107.7 1459.3,-114.55"/>
</g>
<!-- node9 -->
<g id="node10" class="node">
<title>node9</title>
<polygon fill="lightgrey" stroke="black" points="1854,-109 1666,-109 1666,-73 1854,-73 1854,-109"/>
<text text-anchor="middle" x="1760" y="-87.3" font-family="Times,serif" font-size="14.00">#9 arg9 : int[] Order : 4</text>
</g>
<!-- node0&#45;&gt;node9 -->
<g id="edge18" class="edge">
<title>node0&#45;&gt;node9</title>
<path fill="none" stroke="red" d="M1305.44,-145.93C1456.73,-123.39 1496.23,-129.69 1648,-109 1650.55,-108.65 1653.14,-108.29 1655.75,-107.92"/>
<polygon fill="red" stroke="red" points="1656.53,-111.34 1665.92,-106.43 1655.52,-104.41 1656.53,-111.34"/>
</g>
<!-- node10 -->
<g id="node11" class="node">
<title>node10</title>
<polygon fill="lightgrey" stroke="black" points="2058,-109 1872,-109 1872,-73 2058,-73 2058,-109"/>
<text text-anchor="middle" x="1965" y="-87.3" font-family="Times,serif" font-size="14.00">#10 arg4 : int Order : 3</text>
</g>
<!-- node0&#45;&gt;node10 -->
<g id="edge20" class="edge">
<title>node0&#45;&gt;node10</title>
<path fill="none" stroke="red" d="M1305.36,-145.95C1547.61,-114.8 1611.21,-137.34 1854,-109 1856.54,-108.7 1859.1,-108.39 1861.7,-108.06"/>
<polygon fill="red" stroke="red" points="1862.34,-111.5 1871.78,-106.7 1861.41,-104.56 1862.34,-111.5"/>
</g>
<!-- node11 -->
<g id="node12" class="node">
<title>node11</title>
<polygon fill="lightgrey" stroke="black" points="2273.5,-109 2076.5,-109 2076.5,-73 2273.5,-73 2273.5,-109"/>
<text text-anchor="middle" x="2175" y="-87.3" font-family="Times,serif" font-size="14.00">#11 LabelNode Order : 1</text>
</g>
<!-- node0&#45;&gt;node11 -->
<g id="edge22" class="edge">
<title>node0&#45;&gt;node11</title>
<path fill="none" stroke="red" d="M1305.49,-145.94C1472.17,-126.12 1891.51,-126.14 2058,-109 2060.69,-108.72 2063.43,-108.42 2066.18,-108.11"/>
<polygon fill="red" stroke="red" points="2066.74,-111.56 2076.24,-106.88 2065.89,-104.61 2066.74,-111.56"/>
</g>
<!-- node12 -->
<g id="node13" class="node">
<title>node12</title>
<polygon fill="lightgrey" stroke="black" points="2396,-36 2226,-36 2226,0 2396,0 2396,-36"/>
<text text-anchor="middle" x="2311" y="-14.3" font-family="Times,serif" font-size="14.00">#12 Return Order : 2</text>
</g>
<!-- node0&#45;&gt;node12 -->
<g id="edge25" class="edge">
<title>node0&#45;&gt;node12</title>
<path fill="none" stroke="black" d="M1305.32,-145.96C1361.93,-139.91 2231.32,-141.7 2274,-109 2293.03,-94.43 2299.45,-67.07 2303.14,-46.32"/>
<polygon fill="black" stroke="black" points="2306.64,-46.63 2304.88,-36.18 2299.74,-45.45 2306.64,-46.63"/>
</g>
<!-- node1&#45;&gt;node0 -->
<g id="edge1" class="edge">
<title>node1&#45;&gt;node0</title>
<path fill="none" stroke="green" stroke-width="2" d="M186.2,-106.8C192.23,-107.62 198.2,-108.37 204,-109 544.72,-146.21 951.75,-157.96 1131.69,-161.53"/>
<polygon fill="green" stroke="green" stroke-width="2" points="1131.84,-165.03 1141.91,-161.73 1131.98,-158.03 1131.84,-165.03"/>
</g>
<!-- node2&#45;&gt;node0 -->
<g id="edge3" class="edge">
<title>node2&#45;&gt;node0</title>
<path fill="none" stroke="green" stroke-width="2" d="M390.21,-106.71C396.24,-107.55 402.2,-108.33 408,-109 669.48,-139.26 979.64,-153.86 1131.66,-159.72"/>
<polygon fill="green" stroke="green" stroke-width="2" points="1131.76,-163.23 1141.89,-160.11 1132.03,-156.23 1131.76,-163.23"/>
</g>
<!-- node3&#45;&gt;node0 -->
<g id="edge5" class="edge">
<title>node3&#45;&gt;node0</title>
<path fill="none" stroke="green" stroke-width="2" d="M594.23,-106.57C600.25,-107.45 606.21,-108.27 612,-109 795.64,-132.24 1011.06,-148.5 1131.47,-156.76"/>
<polygon fill="green" stroke="green" stroke-width="2" points="1131.54,-160.27 1141.76,-157.46 1132.02,-153.29 1131.54,-160.27"/>
</g>
<!-- node4&#45;&gt;node0 -->
<g id="edge7" class="edge">
<title>node4&#45;&gt;node0</title>
<path fill="none" stroke="green" stroke-width="2" d="M800.1,-106.28C806.16,-107.23 812.17,-108.14 818,-109 925.55,-124.85 1049.12,-140.58 1131.67,-150.93"/>
<polygon fill="green" stroke="green" stroke-width="2" points="1131.43,-154.43 1141.78,-152.2 1132.3,-147.49 1131.43,-154.43"/>
</g>
<!-- node5&#45;&gt;node0 -->
<g id="edge9" class="edge">
<title>node5&#45;&gt;node0</title>
<path fill="none" stroke="green" stroke-width="2" d="M999.88,-109.05C1045.61,-119.48 1102.89,-132.84 1148.26,-143.66"/>
<polygon fill="green" stroke="green" stroke-width="2" points="1147.5,-147.07 1158.04,-145.99 1149.13,-140.27 1147.5,-147.07"/>
</g>
<!-- node6&#45;&gt;node0 -->
<g id="edge11" class="edge">
<title>node6&#45;&gt;node0</title>
<path fill="none" stroke="green" stroke-width="2" d="M1159.41,-109.03C1172.46,-118.16 1187.72,-129.55 1200.3,-139.51"/>
<polygon fill="green" stroke="green" stroke-width="2" points="1198.14,-142.27 1208.12,-145.81 1202.53,-136.82 1198.14,-142.27"/>
</g>
<!-- node7&#45;&gt;node0 -->
<g id="edge13" class="edge">
<title>node7&#45;&gt;node0</title>
<path fill="none" stroke="green" stroke-width="2" d="M1317.39,-109.11C1303.11,-118.63 1284.05,-130.59 1266.92,-140.82"/>
<polygon fill="green" stroke="green" stroke-width="2" points="1264.99,-137.89 1258.17,-145.99 1268.55,-143.92 1264.99,-137.89"/>
</g>
<!-- node8&#45;&gt;node0 -->
<g id="edge15" class="edge">
<title>node8&#45;&gt;node0</title>
<path fill="none" stroke="green" stroke-width="2" d="M1480.07,-109.06C1432.25,-119.65 1369.33,-133.28 1317.93,-144.19"/>
<polygon fill="green" stroke="green" stroke-width="2" points="1317.2,-140.77 1308.15,-146.26 1318.65,-147.62 1317.2,-140.77"/>
</g>
<!-- node9&#45;&gt;node0 -->
<g id="edge17" class="edge">
<title>node9&#45;&gt;node0</title>
<path fill="none" stroke="green" stroke-width="2" d="M1665.56,-109.06C1514,-129.7 1474.5,-123.4 1323,-146 1321.49,-146.22 1319.97,-146.46 1318.44,-146.7"/>
<polygon fill="green" stroke="green" stroke-width="2" points="1317.52,-143.3 1308.21,-148.36 1318.64,-150.21 1317.52,-143.3"/>
</g>
<!-- node10&#45;&gt;node0 -->
<g id="edge19" class="edge">
<title>node10&#45;&gt;node0</title>
<path fill="none" stroke="green" stroke-width="2" d="M1872.27,-108.97C1872.18,-108.98 1872.09,-108.99 1872,-109 1629.1,-137.36 1565.55,-114.78 1323,-146 1321.49,-146.19 1319.96,-146.4 1318.43,-146.61"/>
<polygon fill="green" stroke="green" stroke-width="2" points="1317.56,-143.2 1308.18,-148.13 1318.58,-150.13 1317.56,-143.2"/>
</g>
<!-- node11&#45;&gt;node0 -->
<g id="edge21" class="edge">
<title>node11&#45;&gt;node0</title>
<path fill="none" stroke="green" stroke-width="2" d="M2076.28,-108.97C2076.19,-108.98 2076.09,-108.99 2076,-109 1909.35,-126.16 1489.35,-126.12 1323,-146 1321.49,-146.18 1319.96,-146.37 1318.42,-146.57"/>
<polygon fill="green" stroke="green" stroke-width="2" points="1317.57,-143.16 1308.16,-148.03 1318.56,-150.09 1317.57,-143.16"/>
</g>
<!-- node11&#45;&gt;node12 -->
<g id="edge24" class="edge">
<title>node11&#45;&gt;node12</title>
<path fill="none" stroke="red" d="M2207.58,-72.99C2226.03,-63.36 2249.31,-51.21 2269.11,-40.87"/>
<polygon fill="red" stroke="red" points="2270.97,-43.84 2278.22,-36.11 2267.73,-37.64 2270.97,-43.84"/>
</g>
<!-- node12&#45;&gt;node0 -->
<g id="edge23" class="edge">
<title>node12&#45;&gt;node0</title>
<path fill="none" stroke="green" stroke-width="2" d="M2317.42,-36.18C2319.3,-57.14 2314.34,-91.88 2292,-109 2249.23,-141.76 1376.53,-139.9 1323,-146 1321.49,-146.17 1319.96,-146.36 1318.42,-146.55"/>
<polygon fill="green" stroke="green" stroke-width="2" points="1317.58,-143.13 1308.16,-147.97 1318.54,-150.07 1317.58,-143.13"/>
</g>
<!-- c0 -->
<!-- c1 -->
<!-- c0&#45;&gt;c1 -->
<g id="edge26" class="edge">
<title>c0&#45;&gt;c1</title>
<path fill="none" stroke="red" d="M2039.89,-164C2051.11,-164 2109.24,-164 2134.86,-164"/>
<polygon fill="red" stroke="red" points="2135.06,-167.5 2145.06,-164 2135.06,-160.5 2135.06,-167.5"/>
<text text-anchor="middle" x="2092.5" y="-170.8" font-family="Times,serif" font-size="14.00">Control flow</text>
</g>
<!-- c2 -->
<!-- c3 -->
<!-- c2&#45;&gt;c3 -->
<g id="edge27" class="edge">
<title>c2&#45;&gt;c3</title>
<path fill="none" stroke="red" stroke-dasharray="5,2" d="M1833.08,-164C1850.05,-164 1966.21,-164 2004.08,-164"/>
<polygon fill="red" stroke="red" points="2004.17,-167.5 2014.17,-164 2004.17,-160.5 2004.17,-167.5"/>
<text text-anchor="middle" x="1923.5" y="-170.8" font-family="Times,serif" font-size="14.00">Control flow back edge</text>
</g>
<!-- d0 -->
<!-- d1 -->
<!-- d0&#45;&gt;d1 -->
<g id="edge28" class="edge">
<title>d0&#45;&gt;d1</title>
<path fill="none" stroke="black" d="M1721.86,-164C1731.41,-164 1775.31,-164 1796.92,-164"/>
<polygon fill="black" stroke="black" points="1797.15,-167.5 1807.15,-164 1797.15,-160.5 1797.15,-167.5"/>
<text text-anchor="middle" x="1764.5" y="-170.8" font-family="Times,serif" font-size="14.00">Data flow</text>
</g>
<!-- d2 -->
<!-- d3 -->
<!-- d2&#45;&gt;d3 -->
<g id="edge29" class="edge">
<title>d2&#45;&gt;d3</title>
<path fill="none" stroke="black" stroke-dasharray="1,5" d="M1595.81,-164C1606.46,-164 1661.46,-164 1686.08,-164"/>
<polygon fill="black" stroke="black" points="1686.15,-167.5 1696.15,-164 1686.15,-160.5 1686.15,-167.5"/>
<text text-anchor="middle" x="1646" y="-170.8" font-family="Times,serif" font-size="14.00">Declaration</text>
</g>
<!-- d4 -->
<!-- d5 -->
<!-- d4&#45;&gt;d5 -->
<g id="edge30" class="edge">
<title>d4&#45;&gt;d5</title>
<path fill="none" stroke="blue" d="M1453.1,-164C1465.72,-164 1531.88,-164 1559.68,-164"/>
<polygon fill="blue" stroke="blue" points="1559.84,-167.5 1569.84,-164 1559.84,-160.5 1559.84,-167.5"/>
<text text-anchor="middle" x="1511.5" y="-170.8" font-family="Times,serif" font-size="14.00">PHI Data flow</text>
</g>
<!-- d6 -->
<!-- d7 -->
<!-- d6&#45;&gt;d7 -->
<g id="edge31" class="edge">
<title>d6&#45;&gt;d7</title>
<path fill="none" stroke="green" d="M1330.11,-164C1341.15,-164 1392.67,-164 1416.66,-164"/>
<polygon fill="green" stroke="green" points="1416.9,-167.5 1426.9,-164 1416.9,-160.5 1416.9,-167.5"/>
<text text-anchor="middle" x="1378.5" y="-170.8" font-family="Times,serif" font-size="14.00">Dominance</text>
</g>
</g>
</svg>
