<?xml version="1.0" encoding="UTF-8" standalone="no"?>
<!DOCTYPE svg PUBLIC "-//W3C//DTD SVG 1.1//EN"
 "http://www.w3.org/Graphics/SVG/1.1/DTD/svg11.dtd">
<!-- Generated by graphviz version 2.43.0 (0)
 -->
<!-- Title: %3 Pages: 1 -->
<svg width="5112pt" height="662pt"
 viewBox="0.00 0.00 5112.43 662.00" xmlns="http://www.w3.org/2000/svg" xmlns:xlink="http://www.w3.org/1999/xlink">
<g id="graph0" class="graph" transform="scale(1 1) rotate(0) translate(4 658)">
<title>%3</title>
<polygon fill="white" stroke="transparent" points="-4,4 -4,-658 5108.43,-658 5108.43,4 -4,4"/>
<g id="clust1" class="cluster">
<title>cluster_0</title>
<polygon fill="none" stroke="lightgray" points="3407.43,-503 3407.43,-646 4235.43,-646 4235.43,-503 3407.43,-503"/>
</g>
<g id="clust2" class="cluster">
<title>cluster_000</title>
<polygon fill="none" stroke="black" points="4243.43,-601.2 4243.43,-643.8 5096.43,-643.8 5096.43,-601.2 4243.43,-601.2"/>
<text text-anchor="middle" x="4669.93" y="-628.6" font-family="Times,serif" font-size="14.00">Legend</text>
</g>
<!-- node0 -->
<g id="node1" class="node">
<title>node0</title>
<polygon fill="lightgrey" stroke="transparent" points="3740.43,-638 3528.43,-638 3528.43,-584 3740.43,-584 3740.43,-638"/>
<polygon fill="none" stroke="black" points="3528.43,-611 3528.43,-638 3740.43,-638 3740.43,-611 3528.43,-611"/>
<text text-anchor="start" x="3593.93" y="-620.8" font-family="Times,serif" font-size="14.00">#0 Method</text>
<polygon fill="yellow" stroke="transparent" points="3528.43,-584 3528.43,-611 3740.43,-611 3740.43,-584 3528.43,-584"/>
<polygon fill="none" stroke="black" points="3528.43,-584 3528.43,-611 3740.43,-611 3740.43,-584 3528.43,-584"/>
<text text-anchor="start" x="3534.43" y="-593.8" font-family="Times,serif" font-size="14.00">this : MethodInvocationTest</text>
</g>
<!-- node16 -->
<g id="node2" class="node">
<title>node16</title>
<polygon fill="lightgrey" stroke="black" points="3397.43,-547 3269.43,-547 3269.43,-511 3397.43,-511 3397.43,-547"/>
<text text-anchor="middle" x="3333.43" y="-525.3" font-family="Times,serif" font-size="14.00">#16 LabelNode</text>
</g>
<!-- node0&#45;&gt;node16 -->
<g id="edge1" class="edge">
<title>node0&#45;&gt;node16</title>
<path fill="none" stroke="red" d="M3536.28,-583.92C3494.37,-572.78 3446.27,-559.99 3407.43,-549.67"/>
<polygon fill="red" stroke="red" points="3408.33,-546.29 3397.77,-547.1 3406.53,-553.05 3408.33,-546.29"/>
</g>
<!-- node1 -->
<g id="node3" class="node">
<title>node1</title>
<polygon fill="lightgrey" stroke="black" points="3536.93,-474 3431.93,-474 3431.93,-438 3536.93,-438 3536.93,-474"/>
<text text-anchor="middle" x="3484.43" y="-452.3" font-family="Times,serif" font-size="14.00">#1 ClassInit</text>
</g>
<!-- node0&#45;&gt;node1 -->
<g id="edge4" class="edge">
<title>node0&#45;&gt;node1</title>
<path fill="none" stroke="green" d="M3740.48,-606.47C3904.4,-599.91 4203.92,-583.09 4236.43,-547 4249.51,-532.47 4249.82,-517.24 4236.43,-503 4212.95,-478.04 3723.93,-463.12 3547.33,-458.53"/>
<polygon fill="green" stroke="green" points="3547.24,-455.02 3537.16,-458.27 3547.06,-462.02 3547.24,-455.02"/>
</g>
<!-- node17 -->
<g id="node4" class="node">
<title>node17</title>
<polygon fill="lightgreen" stroke="black" points="3853,-521.54 3853,-536.46 3724.96,-547 3543.89,-547 3415.85,-536.46 3415.85,-521.54 3543.89,-511 3724.96,-511 3853,-521.54"/>
<text text-anchor="middle" x="3634.43" y="-525.3" font-family="Times,serif" font-size="14.00">#17 Class MethodInvocationTest$Source</text>
</g>
<!-- node0&#45;&gt;node17 -->
<g id="edge5" class="edge">
<title>node0&#45;&gt;node17</title>
<path fill="none" stroke="black" stroke-dasharray="1,5" d="M3634.43,-583.81C3634.43,-575.35 3634.43,-565.95 3634.43,-557.4"/>
<polygon fill="black" stroke="black" points="3637.93,-557.17 3634.43,-547.17 3630.93,-557.17 3637.93,-557.17"/>
</g>
<!-- node18 -->
<g id="node19" class="node">
<title>node18</title>
<polygon fill="lightgreen" stroke="black" points="4227.39,-521.54 4227.39,-536.46 4123.14,-547 3975.71,-547 3871.46,-536.46 3871.46,-521.54 3975.71,-511 4123.14,-511 4227.39,-521.54"/>
<text text-anchor="middle" x="4049.43" y="-525.3" font-family="Times,serif" font-size="14.00">#18 Class MethodInvocationTest</text>
</g>
<!-- node0&#45;&gt;node18 -->
<g id="edge48" class="edge">
<title>node0&#45;&gt;node18</title>
<path fill="none" stroke="black" stroke-dasharray="1,5" d="M3740.49,-589.55C3807.05,-576.72 3892.09,-560.33 3956.08,-547.99"/>
<polygon fill="black" stroke="black" points="3957.01,-551.38 3966.17,-546.05 3955.69,-544.51 3957.01,-551.38"/>
</g>
<!-- node16&#45;&gt;node1 -->
<g id="edge3" class="edge">
<title>node16&#45;&gt;node1</title>
<path fill="none" stroke="red" d="M3369.59,-510.99C3390.36,-501.23 3416.63,-488.88 3438.81,-478.45"/>
<polygon fill="red" stroke="red" points="3440.47,-481.54 3448.03,-474.11 3437.49,-475.2 3440.47,-481.54"/>
</g>
<!-- node2 -->
<g id="node5" class="node">
<title>node2</title>
<polygon fill="lightgrey" stroke="black" points="4021.43,-328 3771.43,-328 3771.43,-292 4021.43,-292 4021.43,-328"/>
<text text-anchor="middle" x="3896.43" y="-306.3" font-family="Times,serif" font-size="14.00">#2 Invoke special &lt;init&gt; : ()void</text>
</g>
<!-- node1&#45;&gt;node2 -->
<g id="edge7" class="edge">
<title>node1&#45;&gt;node2</title>
<path fill="none" stroke="red" d="M3533.31,-437.92C3609.5,-411.28 3756.31,-359.97 3837.98,-331.43"/>
<polygon fill="red" stroke="red" points="3839.32,-334.67 3847.61,-328.06 3837.01,-328.06 3839.32,-334.67"/>
</g>
<!-- node4 -->
<g id="node6" class="node">
<title>node4</title>
<polygon fill="orange" stroke="black" points="2303.54,-375.54 2303.54,-390.46 2273.01,-401 2229.84,-401 2199.31,-390.46 2199.31,-375.54 2229.84,-365 2273.01,-365 2303.54,-375.54"/>
<text text-anchor="middle" x="2251.43" y="-379.3" font-family="Times,serif" font-size="14.00">#4 New</text>
</g>
<!-- node1&#45;&gt;node4 -->
<g id="edge9" class="edge">
<title>node1&#45;&gt;node4</title>
<path fill="none" stroke="black" d="M3431.69,-452.13C3232.72,-440.96 2528.49,-400.42 2313.9,-387.78"/>
<polygon fill="black" stroke="black" points="2313.94,-384.28 2303.75,-387.19 2313.53,-391.27 2313.94,-384.28"/>
<text text-anchor="middle" x="2322.35" y="-376.12" font-family="Times,serif" font-size="14.00">*0</text>
</g>
<!-- node1&#45;&gt;node4 -->
<g id="edge10" class="edge">
<title>node1&#45;&gt;node4</title>
<path fill="none" stroke="green" d="M3431.67,-451.79C3232.63,-440.04 2528.2,-399.48 2313.77,-387.41"/>
<polygon fill="green" stroke="green" points="2313.81,-383.91 2303.63,-386.84 2313.42,-390.9 2313.81,-383.91"/>
</g>
<!-- node17&#45;&gt;node1 -->
<g id="edge2" class="edge">
<title>node17&#45;&gt;node1</title>
<path fill="none" stroke="black" d="M3598.5,-510.99C3577.87,-501.23 3551.77,-488.88 3529.74,-478.45"/>
<polygon fill="black" stroke="black" points="3531.12,-475.23 3520.58,-474.11 3528.12,-481.56 3531.12,-475.23"/>
<text text-anchor="middle" x="3540.58" y="-470.53" font-family="Times,serif" font-size="14.00">*0</text>
</g>
<!-- node9 -->
<g id="node15" class="node">
<title>node9</title>
<polygon fill="orange" stroke="black" points="3390.94,-302.54 3390.94,-317.46 3295.74,-328 3161.11,-328 3065.91,-317.46 3065.91,-302.54 3161.11,-292 3295.74,-292 3390.94,-302.54"/>
<text text-anchor="middle" x="3228.43" y="-306.3" font-family="Times,serif" font-size="14.00">#9 GetField : byte_field : byte</text>
</g>
<!-- node2&#45;&gt;node9 -->
<g id="edge28" class="edge">
<title>node2&#45;&gt;node9</title>
<path fill="none" stroke="green" d="M3839.31,-328.07C3813.38,-335.36 3782.15,-342.89 3753.43,-346.5 3601.73,-365.55 3561.56,-361.69 3409.43,-346.5 3376.33,-343.2 3340.32,-336.57 3309.2,-329.87"/>
<polygon fill="green" stroke="green" points="3309.8,-326.41 3299.28,-327.69 3308.3,-333.25 3309.8,-326.41"/>
</g>
<!-- node3 -->
<g id="node20" class="node">
<title>node3</title>
<polygon fill="lightgrey" stroke="black" points="3724.93,-255 3605.93,-255 3605.93,-219 3724.93,-219 3724.93,-255"/>
<text text-anchor="middle" x="3665.43" y="-233.3" font-family="Times,serif" font-size="14.00">#3 LabelNode</text>
</g>
<!-- node2&#45;&gt;node3 -->
<g id="edge45" class="edge">
<title>node2&#45;&gt;node3</title>
<path fill="none" stroke="red" d="M3841.1,-291.99C3807.91,-281.79 3765.53,-268.77 3730.71,-258.07"/>
<polygon fill="red" stroke="red" points="3731.69,-254.71 3721.1,-255.11 3729.64,-261.4 3731.69,-254.71"/>
</g>
<!-- node4&#45;&gt;node2 -->
<g id="edge6" class="edge">
<title>node4&#45;&gt;node2</title>
<path fill="none" stroke="black" d="M2303.56,-381.83C2496.35,-380.82 3186.33,-374.01 3753.43,-328 3755.98,-327.79 3758.56,-327.57 3761.17,-327.34"/>
<polygon fill="black" stroke="black" points="3761.66,-330.81 3771.29,-326.39 3761.01,-323.84 3761.66,-330.81"/>
<text text-anchor="middle" x="3754.04" y="-332.8" font-family="Times,serif" font-size="14.00">*0</text>
</g>
<!-- node4&#45;&gt;node2 -->
<g id="edge8" class="edge">
<title>node4&#45;&gt;node2</title>
<path fill="none" stroke="green" d="M2303.78,-381.86C2497.27,-380.98 3189.61,-374.62 3761.67,-328.79"/>
<polygon fill="green" stroke="green" points="3762.09,-332.26 3771.78,-327.97 3761.53,-325.29 3762.09,-332.26"/>
</g>
<!-- node14 -->
<g id="node7" class="node">
<title>node14</title>
<polygon fill="orange" stroke="black" points="372.78,-302.54 372.78,-317.46 263.61,-328 109.24,-328 0.07,-317.46 0.07,-302.54 109.24,-292 263.61,-292 372.78,-302.54"/>
<text text-anchor="middle" x="186.43" y="-306.3" font-family="Times,serif" font-size="14.00">#14 GetField : string_field : String</text>
</g>
<!-- node4&#45;&gt;node14 -->
<g id="edge11" class="edge">
<title>node4&#45;&gt;node14</title>
<path fill="none" stroke="black" d="M2199.09,-381.44C1979.6,-378.89 1111.66,-366.78 399.43,-328 376.74,-326.76 352.71,-325.15 329.29,-323.4"/>
<polygon fill="black" stroke="black" points="329.53,-319.91 319.29,-322.65 329,-326.89 329.53,-319.91"/>
<text text-anchor="middle" x="338.01" y="-311.88" font-family="Times,serif" font-size="14.00">*0</text>
</g>
<!-- node8 -->
<g id="node8" class="node">
<title>node8</title>
<polygon fill="orange" stroke="black" points="780.37,-302.54 780.37,-317.46 671.45,-328 517.4,-328 408.48,-317.46 408.48,-302.54 517.4,-292 671.45,-292 780.37,-302.54"/>
<text text-anchor="middle" x="594.43" y="-306.3" font-family="Times,serif" font-size="14.00">#8 GetField : double_field : double</text>
</g>
<!-- node4&#45;&gt;node8 -->
<g id="edge13" class="edge">
<title>node4&#45;&gt;node8</title>
<path fill="none" stroke="black" d="M2199.22,-380.85C2011.15,-376.55 1350.56,-359.97 806.43,-328 784.27,-326.7 760.83,-325.07 737.94,-323.34"/>
<polygon fill="black" stroke="black" points="738.05,-319.84 727.81,-322.57 737.52,-326.82 738.05,-319.84"/>
<text text-anchor="middle" x="746.53" y="-311.82" font-family="Times,serif" font-size="14.00">*0</text>
</g>
<!-- node10 -->
<g id="node9" class="node">
<title>node10</title>
<polygon fill="orange" stroke="black" points="1153.1,-302.54 1153.1,-317.46 1054.29,-328 914.56,-328 815.75,-317.46 815.75,-302.54 914.56,-292 1054.29,-292 1153.1,-302.54"/>
<text text-anchor="middle" x="984.43" y="-306.3" font-family="Times,serif" font-size="14.00">#10 GetField : float_field : float</text>
</g>
<!-- node4&#45;&gt;node10 -->
<g id="edge15" class="edge">
<title>node4&#45;&gt;node10</title>
<path fill="none" stroke="black" d="M2199.23,-380.05C2043.9,-374.1 1570.99,-354.92 1179.43,-328 1159.32,-326.62 1138.07,-324.96 1117.28,-323.24"/>
<polygon fill="black" stroke="black" points="1117.37,-319.73 1107.12,-322.39 1116.79,-326.71 1117.37,-319.73"/>
<text text-anchor="middle" x="1125.89" y="-311.78" font-family="Times,serif" font-size="14.00">*0</text>
</g>
<!-- node12 -->
<g id="node10" class="node">
<title>node12</title>
<polygon fill="orange" stroke="black" points="1524.7,-302.54 1524.7,-317.46 1426.13,-328 1286.73,-328 1188.16,-317.46 1188.16,-302.54 1286.73,-292 1426.13,-292 1524.7,-302.54"/>
<text text-anchor="middle" x="1356.43" y="-306.3" font-family="Times,serif" font-size="14.00">#12 GetField : long_field : long</text>
</g>
<!-- node4&#45;&gt;node12 -->
<g id="edge17" class="edge">
<title>node4&#45;&gt;node12</title>
<path fill="none" stroke="black" d="M2199.16,-378.15C2082.79,-369.53 1793.47,-347.89 1551.43,-328 1532.09,-326.41 1511.67,-324.69 1491.62,-322.96"/>
<polygon fill="black" stroke="black" points="1491.77,-319.46 1481.5,-322.09 1491.16,-326.44 1491.77,-319.46"/>
<text text-anchor="middle" x="1500.29" y="-311.53" font-family="Times,serif" font-size="14.00">*0</text>
</g>
<!-- node11 -->
<g id="node11" class="node">
<title>node11</title>
<polygon fill="orange" stroke="black" points="1864.33,-302.54 1864.33,-317.46 1775.35,-328 1649.5,-328 1560.52,-317.46 1560.52,-302.54 1649.5,-292 1775.35,-292 1864.33,-302.54"/>
<text text-anchor="middle" x="1712.43" y="-306.3" font-family="Times,serif" font-size="14.00">#11 GetField : int_field : int</text>
</g>
<!-- node4&#45;&gt;node11 -->
<g id="edge19" class="edge">
<title>node4&#45;&gt;node11</title>
<path fill="none" stroke="black" d="M2199.74,-375.19C2112.85,-363.75 1935.7,-340.41 1820.63,-325.25"/>
<polygon fill="black" stroke="black" points="1820.76,-321.74 1810.38,-323.9 1819.84,-328.68 1820.76,-321.74"/>
<text text-anchor="middle" x="1829.46" y="-314.19" font-family="Times,serif" font-size="14.00">*0</text>
</g>
<!-- node5 -->
<g id="node12" class="node">
<title>node5</title>
<polygon fill="orange" stroke="black" points="2224.94,-302.54 2224.94,-317.46 2129.74,-328 1995.11,-328 1899.91,-317.46 1899.91,-302.54 1995.11,-292 2129.74,-292 2224.94,-302.54"/>
<text text-anchor="middle" x="2062.43" y="-306.3" font-family="Times,serif" font-size="14.00">#5 GetField : char_field : char</text>
</g>
<!-- node4&#45;&gt;node5 -->
<g id="edge21" class="edge">
<title>node4&#45;&gt;node5</title>
<path fill="none" stroke="black" d="M2217.2,-369.14C2189.43,-358.71 2149.76,-343.81 2117.53,-331.7"/>
<polygon fill="black" stroke="black" points="2118.38,-328.28 2107.79,-328.04 2115.92,-334.83 2118.38,-328.28"/>
<text text-anchor="middle" x="2127.73" y="-322.8" font-family="Times,serif" font-size="14.00">*0</text>
</g>
<!-- node6 -->
<g id="node13" class="node">
<title>node6</title>
<polygon fill="orange" stroke="black" points="2602.32,-302.54 2602.32,-317.46 2502.21,-328 2360.64,-328 2260.53,-317.46 2260.53,-302.54 2360.64,-292 2502.21,-292 2602.32,-302.54"/>
<text text-anchor="middle" x="2431.43" y="-306.3" font-family="Times,serif" font-size="14.00">#6 GetField : short_field : short</text>
</g>
<!-- node4&#45;&gt;node6 -->
<g id="edge23" class="edge">
<title>node4&#45;&gt;node6</title>
<path fill="none" stroke="black" d="M2284.86,-368.81C2311.19,-358.43 2348.38,-343.76 2378.71,-331.79"/>
<polygon fill="black" stroke="black" points="2380.28,-334.94 2388.29,-328.01 2377.71,-328.43 2380.28,-334.94"/>
<text text-anchor="middle" x="2374.53" y="-338.83" font-family="Times,serif" font-size="14.00">*0</text>
</g>
<!-- node7 -->
<g id="node14" class="node">
<title>node7</title>
<polygon fill="orange" stroke="black" points="3030.47,-302.54 3030.47,-317.46 2915.63,-328 2753.22,-328 2638.38,-317.46 2638.38,-302.54 2753.22,-292 2915.63,-292 3030.47,-302.54"/>
<text text-anchor="middle" x="2834.43" y="-306.3" font-family="Times,serif" font-size="14.00">#7 GetField : boolean_field : boolean</text>
</g>
<!-- node4&#45;&gt;node7 -->
<g id="edge25" class="edge">
<title>node4&#45;&gt;node7</title>
<path fill="none" stroke="black" d="M2303.68,-375.64C2394.43,-364.58 2583.54,-341.55 2709.75,-326.18"/>
<polygon fill="black" stroke="black" points="2710.36,-329.64 2719.86,-324.95 2709.51,-322.69 2710.36,-329.64"/>
<text text-anchor="middle" x="2702.89" y="-331.83" font-family="Times,serif" font-size="14.00">*0</text>
</g>
<!-- node4&#45;&gt;node9 -->
<g id="edge27" class="edge">
<title>node4&#45;&gt;node9</title>
<path fill="none" stroke="black" d="M2303.55,-378.81C2429.85,-371.01 2762.27,-349.96 3039.43,-328 3058.53,-326.49 3078.71,-324.78 3098.49,-323.05"/>
<polygon fill="black" stroke="black" points="3098.82,-326.54 3108.48,-322.18 3098.21,-319.57 3098.82,-326.54"/>
<text text-anchor="middle" x="3091.16" y="-328.48" font-family="Times,serif" font-size="14.00">*0</text>
</g>
<!-- node13 -->
<g id="node18" class="node">
<title>node13</title>
<polygon fill="orange" stroke="black" points="3753.64,-302.54 3753.64,-317.46 3652.76,-328 3510.09,-328 3409.21,-317.46 3409.21,-302.54 3510.09,-292 3652.76,-292 3753.64,-302.54"/>
<text text-anchor="middle" x="3581.43" y="-306.3" font-family="Times,serif" font-size="14.00">#13 GetField : array_field : int[]</text>
</g>
<!-- node4&#45;&gt;node13 -->
<g id="edge46" class="edge">
<title>node4&#45;&gt;node13</title>
<path fill="none" stroke="black" d="M2303.58,-380.42C2466.08,-375.3 2977.61,-357.78 3400.43,-328 3417.01,-326.83 3434.42,-325.43 3451.64,-323.93"/>
<polygon fill="black" stroke="black" points="3452.08,-327.4 3461.74,-323.04 3451.47,-320.43 3452.08,-327.4"/>
<text text-anchor="middle" x="3444.42" y="-329.35" font-family="Times,serif" font-size="14.00">*0</text>
</g>
<!-- node20 -->
<g id="node16" class="node">
<title>node20</title>
<polygon fill="lightgrey" stroke="black" points="2741.93,-109 1928.93,-109 1928.93,-73 2741.93,-73 2741.93,-109"/>
<text text-anchor="middle" x="2335.43" y="-87.3" font-family="Times,serif" font-size="14.00">#20 Invoke static simple_method_return_short : (byte,boolean,short,char,int,long,float,double,String,int[])short</text>
</g>
<!-- node14&#45;&gt;node20 -->
<g id="edge38" class="edge">
<title>node14&#45;&gt;node20</title>
<path fill="none" stroke="black" d="M282.47,-293.81C489.02,-261.67 991.06,-186.45 1414.43,-146 1581.63,-130.02 1766.39,-118.07 1926.27,-109.53"/>
<polygon fill="black" stroke="black" points="1926.48,-113.03 1936.28,-109 1926.11,-106.04 1926.48,-113.03"/>
<text text-anchor="middle" x="1918.63" y="-114.7" font-family="Times,serif" font-size="14.00">*9</text>
</g>
<!-- node14&#45;&gt;node13 -->
<g id="edge47" class="edge">
<title>node14&#45;&gt;node13</title>
<path fill="none" stroke="green" d="M271.41,-327.31C312.59,-334.84 362.88,-342.78 408.43,-346.5 573.6,-359.99 3226.45,-362.2 3391.43,-346.5 3426.27,-343.18 3464.24,-336.52 3497.01,-329.78"/>
<polygon fill="green" stroke="green" points="3497.93,-333.16 3507,-327.69 3496.49,-326.31 3497.93,-333.16"/>
</g>
<!-- node8&#45;&gt;node14 -->
<g id="edge12" class="edge">
<title>node8&#45;&gt;node14</title>
<path fill="none" stroke="green" d="M408.37,-310C399.97,-310 391.56,-310 383.15,-310"/>
<polygon fill="green" stroke="green" points="382.89,-306.5 372.89,-310 382.89,-313.5 382.89,-306.5"/>
</g>
<!-- node8&#45;&gt;node20 -->
<g id="edge37" class="edge">
<title>node8&#45;&gt;node20</title>
<path fill="none" stroke="black" d="M686.49,-293.43C875.61,-261.89 1321.7,-189.74 1698.43,-146 1824.7,-131.34 1965.49,-118.99 2082.53,-109.81"/>
<polygon fill="black" stroke="black" points="2083.01,-113.29 2092.71,-109.02 2082.47,-106.31 2083.01,-113.29"/>
<text text-anchor="middle" x="2075.29" y="-115.16" font-family="Times,serif" font-size="14.00">*8</text>
</g>
<!-- node10&#45;&gt;node8 -->
<g id="edge14" class="edge">
<title>node10&#45;&gt;node8</title>
<path fill="none" stroke="green" d="M815.37,-310C807.06,-310 798.74,-310 790.43,-310"/>
<polygon fill="green" stroke="green" points="790.28,-306.5 780.28,-310 790.28,-313.5 790.28,-306.5"/>
</g>
<!-- node10&#45;&gt;node20 -->
<g id="edge36" class="edge">
<title>node10&#45;&gt;node20</title>
<path fill="none" stroke="black" d="M1067.73,-293.43C1231.76,-263.03 1608.32,-194.5 1926.43,-146 2011.98,-132.96 2107.88,-120.2 2185.31,-110.36"/>
<polygon fill="black" stroke="black" points="2186.14,-113.78 2195.62,-109.05 2185.26,-106.84 2186.14,-113.78"/>
<text text-anchor="middle" x="2178.7" y="-116.01" font-family="Times,serif" font-size="14.00">*7</text>
</g>
<!-- node12&#45;&gt;node10 -->
<g id="edge16" class="edge">
<title>node12&#45;&gt;node10</title>
<path fill="none" stroke="green" d="M1188.25,-310C1179.98,-310 1171.71,-310 1163.44,-310"/>
<polygon fill="green" stroke="green" points="1163.35,-306.5 1153.35,-310 1163.35,-313.5 1163.35,-306.5"/>
</g>
<!-- node12&#45;&gt;node20 -->
<g id="edge35" class="edge">
<title>node12&#45;&gt;node20</title>
<path fill="none" stroke="black" d="M1431.22,-292.42C1609.5,-252.9 2058.76,-153.32 2248.6,-111.24"/>
<polygon fill="black" stroke="black" points="2249.53,-114.62 2258.54,-109.04 2248.02,-107.79 2249.53,-114.62"/>
<text text-anchor="middle" x="2242.67" y="-117.52" font-family="Times,serif" font-size="14.00">*6</text>
</g>
<!-- node11&#45;&gt;node12 -->
<g id="edge18" class="edge">
<title>node11&#45;&gt;node12</title>
<path fill="none" stroke="green" d="M1560.26,-310C1551.74,-310 1543.22,-310 1534.69,-310"/>
<polygon fill="green" stroke="green" points="1534.69,-306.5 1524.69,-310 1534.69,-313.5 1534.69,-306.5"/>
</g>
<!-- node11&#45;&gt;node20 -->
<g id="edge34" class="edge">
<title>node11&#45;&gt;node20</title>
<path fill="none" stroke="black" d="M1828.54,-298.24C1866.33,-292.98 1908.12,-285.26 1945.43,-274 2074.11,-235.17 2097.61,-202.81 2219.43,-146 2242.57,-135.2 2268.33,-123.21 2289.68,-113.28"/>
<polygon fill="black" stroke="black" points="2291.26,-116.4 2298.85,-109.01 2288.31,-110.06 2291.26,-116.4"/>
<text text-anchor="middle" x="2285.98" y="-120.62" font-family="Times,serif" font-size="14.00">*5</text>
</g>
<!-- node5&#45;&gt;node11 -->
<g id="edge20" class="edge">
<title>node5&#45;&gt;node11</title>
<path fill="none" stroke="green" d="M1899.7,-310C1891.36,-310 1883.03,-310 1874.69,-310"/>
<polygon fill="green" stroke="green" points="1874.53,-306.5 1864.53,-310 1874.53,-313.5 1874.53,-306.5"/>
</g>
<!-- node5&#45;&gt;node20 -->
<g id="edge33" class="edge">
<title>node5&#45;&gt;node20</title>
<path fill="none" stroke="black" d="M2083.85,-291.97C2132.27,-253.48 2250.24,-159.71 2305.7,-115.63"/>
<polygon fill="black" stroke="black" points="2308.08,-118.21 2313.73,-109.25 2303.72,-112.73 2308.08,-118.21"/>
<text text-anchor="middle" x="2304.8" y="-123.44" font-family="Times,serif" font-size="14.00">*4</text>
</g>
<!-- node6&#45;&gt;node5 -->
<g id="edge22" class="edge">
<title>node6&#45;&gt;node5</title>
<path fill="none" stroke="green" d="M2260.43,-310C2252.02,-310 2243.61,-310 2235.2,-310"/>
<polygon fill="green" stroke="green" points="2234.94,-306.5 2224.94,-310 2234.94,-313.5 2234.94,-306.5"/>
</g>
<!-- node6&#45;&gt;node20 -->
<g id="edge32" class="edge">
<title>node6&#45;&gt;node20</title>
<path fill="none" stroke="black" d="M2423.89,-291.97C2407.21,-254.27 2367.07,-163.54 2347.11,-118.41"/>
<polygon fill="black" stroke="black" points="2350.3,-116.98 2343.06,-109.25 2343.9,-119.81 2350.3,-116.98"/>
<text text-anchor="middle" x="2358.12" y="-118.71" font-family="Times,serif" font-size="14.00">*3</text>
</g>
<!-- node7&#45;&gt;node6 -->
<g id="edge24" class="edge">
<title>node7&#45;&gt;node6</title>
<path fill="none" stroke="green" d="M2637.94,-310C2629.57,-310 2621.2,-310 2612.83,-310"/>
<polygon fill="green" stroke="green" points="2612.62,-306.5 2602.62,-310 2612.62,-313.5 2612.62,-306.5"/>
</g>
<!-- node7&#45;&gt;node20 -->
<g id="edge31" class="edge">
<title>node7&#45;&gt;node20</title>
<path fill="none" stroke="black" d="M2795.27,-291.97C2705.11,-252.76 2483.01,-156.18 2384.2,-113.21"/>
<polygon fill="black" stroke="black" points="2385.31,-109.88 2374.74,-109.1 2382.52,-116.3 2385.31,-109.88"/>
<text text-anchor="middle" x="2394.74" y="-104.88" font-family="Times,serif" font-size="14.00">*2</text>
</g>
<!-- node9&#45;&gt;node7 -->
<g id="edge26" class="edge">
<title>node9&#45;&gt;node7</title>
<path fill="none" stroke="green" d="M3065.81,-310C3057.48,-310 3049.15,-310 3040.82,-310"/>
<polygon fill="green" stroke="green" points="3040.66,-306.5 3030.66,-310 3040.66,-313.5 3040.66,-306.5"/>
</g>
<!-- node9&#45;&gt;node20 -->
<g id="edge30" class="edge">
<title>node9&#45;&gt;node20</title>
<path fill="none" stroke="black" d="M3159.1,-292.15C2995.99,-252.52 2588.71,-153.55 2415.46,-111.45"/>
<polygon fill="black" stroke="black" points="2416.18,-108.02 2405.63,-109.06 2414.53,-114.82 2416.18,-108.02"/>
<text text-anchor="middle" x="2425.24" y="-101.43" font-family="Times,serif" font-size="14.00">*1</text>
</g>
<!-- node21 -->
<g id="node21" class="node">
<title>node21</title>
<polygon fill="lightgrey" stroke="black" points="2421.93,-36 2248.93,-36 2248.93,0 2421.93,0 2421.93,-36"/>
<text text-anchor="middle" x="2335.43" y="-14.3" font-family="Times,serif" font-size="14.00">#21 ReturnValue : int</text>
</g>
<!-- node20&#45;&gt;node21 -->
<g id="edge49" class="edge">
<title>node20&#45;&gt;node21</title>
<path fill="none" stroke="black" d="M2323.67,-72.81C2321.99,-64.79 2321.52,-55.05 2322.27,-46.07"/>
<polygon fill="black" stroke="black" points="2325.75,-46.42 2323.7,-36.03 2318.82,-45.43 2325.75,-46.42"/>
<text text-anchor="middle" x="2329.51" y="-51.47" font-family="Times,serif" font-size="14.00">*0</text>
</g>
<!-- node20&#45;&gt;node21 -->
<g id="edge50" class="edge">
<title>node20&#45;&gt;node21</title>
<path fill="none" stroke="red" d="M2335.43,-72.81C2335.43,-64.79 2335.43,-55.05 2335.43,-46.07"/>
<polygon fill="red" stroke="red" points="2338.93,-46.03 2335.43,-36.03 2331.93,-46.03 2338.93,-46.03"/>
</g>
<!-- node20&#45;&gt;node21 -->
<g id="edge51" class="edge">
<title>node20&#45;&gt;node21</title>
<path fill="none" stroke="green" d="M2347.18,-72.81C2348.86,-64.79 2349.33,-55.05 2348.58,-46.07"/>
<polygon fill="green" stroke="green" points="2352.03,-45.43 2347.15,-36.03 2345.1,-46.42 2352.03,-45.43"/>
</g>
<!-- node19 -->
<g id="node17" class="node">
<title>node19</title>
<polygon fill="lightgrey" stroke="black" points="3635.43,-182 3521.43,-182 3521.43,-146 3635.43,-146 3635.43,-182"/>
<text text-anchor="middle" x="3578.43" y="-160.3" font-family="Times,serif" font-size="14.00">#19 ClassInit</text>
</g>
<!-- node19&#45;&gt;node20 -->
<g id="edge29" class="edge">
<title>node19&#45;&gt;node20</title>
<path fill="none" stroke="black" d="M3521.38,-156.88C3453.65,-148.7 3338.82,-134.39 3240.43,-127 3080.92,-115.02 2905.59,-107.06 2752.04,-101.81"/>
<polygon fill="black" stroke="black" points="2752.07,-98.31 2741.96,-101.47 2751.83,-105.31 2752.07,-98.31"/>
<text text-anchor="middle" x="2760.36" y="-89.94" font-family="Times,serif" font-size="14.00">*0</text>
</g>
<!-- node19&#45;&gt;node20 -->
<g id="edge40" class="edge">
<title>node19&#45;&gt;node20</title>
<path fill="none" stroke="green" d="M3521.32,-155.28C3457.4,-146.95 3350.69,-133.93 3258.43,-127 3093.25,-114.59 2911.1,-106.5 2752.56,-101.26"/>
<polygon fill="green" stroke="green" points="2752.26,-97.75 2742.15,-100.92 2752.03,-104.75 2752.26,-97.75"/>
</g>
<!-- node19&#45;&gt;node20 -->
<g id="edge41" class="edge">
<title>node19&#45;&gt;node20</title>
<path fill="none" stroke="red" d="M3521.18,-153.44C3460.32,-145.13 3362.14,-133.44 3276.43,-127 3105.31,-114.15 2915.97,-105.93 2752.23,-100.71"/>
<polygon fill="red" stroke="red" points="2752.09,-97.2 2741.98,-100.38 2751.87,-104.2 2752.09,-97.2"/>
</g>
<!-- node13&#45;&gt;node20 -->
<g id="edge39" class="edge">
<title>node13&#45;&gt;node20</title>
<path fill="none" stroke="black" d="M3493.77,-293.7C3328.21,-264.8 2958.11,-200.23 2646.43,-146 2579.06,-134.28 2503.47,-121.15 2443.69,-110.78"/>
<polygon fill="black" stroke="black" points="2443.93,-107.27 2433.48,-109.01 2442.73,-114.17 2443.93,-107.27"/>
<text text-anchor="middle" x="2452.78" y="-100.08" font-family="Times,serif" font-size="14.00">*10</text>
</g>
<!-- node13&#45;&gt;node19 -->
<g id="edge43" class="edge">
<title>node13&#45;&gt;node19</title>
<path fill="none" stroke="green" d="M3660,-292.71C3709.61,-278.61 3759.9,-254.77 3734.43,-219 3714.24,-190.65 3678.1,-177.04 3645.69,-170.58"/>
<polygon fill="green" stroke="green" points="3646.23,-167.12 3635.77,-168.79 3644.99,-174.01 3646.23,-167.12"/>
</g>
<!-- node18&#45;&gt;node19 -->
<g id="edge42" class="edge">
<title>node18&#45;&gt;node19</title>
<path fill="none" stroke="black" d="M4049.43,-510.78C4049.43,-496.41 4049.43,-475.37 4049.43,-457 4049.43,-457 4049.43,-457 4049.43,-236 4049.43,-195.69 3776.23,-175.6 3645.97,-168.31"/>
<polygon fill="black" stroke="black" points="3645.89,-164.8 3635.71,-167.74 3645.5,-171.79 3645.89,-164.8"/>
<text text-anchor="middle" x="3654.27" y="-156.6" font-family="Times,serif" font-size="14.00">*0</text>
</g>
<!-- node3&#45;&gt;node19 -->
<g id="edge44" class="edge">
<title>node3&#45;&gt;node19</title>
<path fill="none" stroke="red" d="M3644.37,-218.81C3633.25,-209.74 3619.45,-198.48 3607.34,-188.6"/>
<polygon fill="red" stroke="red" points="3609.25,-185.64 3599.29,-182.03 3604.83,-191.06 3609.25,-185.64"/>
</g>
<!-- c0 -->
<!-- c1 -->
<!-- c0&#45;&gt;c1 -->
<g id="edge52" class="edge">
<title>c0&#45;&gt;c1</title>
<path fill="none" stroke="red" d="M4979.32,-611C4990.53,-611 5048.67,-611 5074.28,-611"/>
<polygon fill="red" stroke="red" points="5074.48,-614.5 5084.48,-611 5074.48,-607.5 5074.48,-614.5"/>
<text text-anchor="middle" x="5031.93" y="-617.8" font-family="Times,serif" font-size="14.00">Control flow</text>
</g>
<!-- c2 -->
<!-- c3 -->
<!-- c2&#45;&gt;c3 -->
<g id="edge53" class="edge">
<title>c2&#45;&gt;c3</title>
<path fill="none" stroke="red" stroke-dasharray="5,2" d="M4772.5,-611C4789.47,-611 4905.63,-611 4943.51,-611"/>
<polygon fill="red" stroke="red" points="4943.59,-614.5 4953.59,-611 4943.59,-607.5 4943.59,-614.5"/>
<text text-anchor="middle" x="4862.93" y="-617.8" font-family="Times,serif" font-size="14.00">Control flow back edge</text>
</g>
<!-- d0 -->
<!-- d1 -->
<!-- d0&#45;&gt;d1 -->
<g id="edge54" class="edge">
<title>d0&#45;&gt;d1</title>
<path fill="none" stroke="black" d="M4661.28,-611C4670.83,-611 4714.73,-611 4736.34,-611"/>
<polygon fill="black" stroke="black" points="4736.58,-614.5 4746.58,-611 4736.58,-607.5 4736.58,-614.5"/>
<text text-anchor="middle" x="4703.93" y="-617.8" font-family="Times,serif" font-size="14.00">Data flow</text>
</g>
<!-- d2 -->
<!-- d3 -->
<!-- d2&#45;&gt;d3 -->
<g id="edge55" class="edge">
<title>d2&#45;&gt;d3</title>
<path fill="none" stroke="black" stroke-dasharray="1,5" d="M4535.23,-611C4545.88,-611 4600.89,-611 4625.5,-611"/>
<polygon fill="black" stroke="black" points="4625.57,-614.5 4635.57,-611 4625.57,-607.5 4625.57,-614.5"/>
<text text-anchor="middle" x="4585.43" y="-617.8" font-family="Times,serif" font-size="14.00">Declaration</text>
</g>
<!-- d4 -->
<!-- d5 -->
<!-- d4&#45;&gt;d5 -->
<g id="edge56" class="edge">
<title>d4&#45;&gt;d5</title>
<path fill="none" stroke="blue" d="M4392.53,-611C4405.15,-611 4471.31,-611 4499.11,-611"/>
<polygon fill="blue" stroke="blue" points="4499.27,-614.5 4509.27,-611 4499.27,-607.5 4499.27,-614.5"/>
<text text-anchor="middle" x="4450.93" y="-617.8" font-family="Times,serif" font-size="14.00">PHI Data flow</text>
</g>
<!-- d6 -->
<!-- d7 -->
<!-- d6&#45;&gt;d7 -->
<g id="edge57" class="edge">
<title>d6&#45;&gt;d7</title>
<path fill="none" stroke="green" d="M4255.42,-611C4267.36,-611 4329.73,-611 4356.35,-611"/>
<polygon fill="green" stroke="green" points="4356.37,-614.5 4366.37,-611 4356.37,-607.5 4356.37,-614.5"/>
<text text-anchor="middle" x="4310.93" y="-617.8" font-family="Times,serif" font-size="14.00">Memory flow</text>
</g>
</g>
</svg>
