<?xml version="1.0" encoding="UTF-8" standalone="no"?>
<!DOCTYPE svg PUBLIC "-//W3C//DTD SVG 1.1//EN"
 "http://www.w3.org/Graphics/SVG/1.1/DTD/svg11.dtd">
<!-- Generated by graphviz version 2.43.0 (0)
 -->
<!-- Title: %3 Pages: 1 -->
<svg width="4214pt" height="662pt"
 viewBox="0.00 0.00 4214.09 662.00" xmlns="http://www.w3.org/2000/svg" xmlns:xlink="http://www.w3.org/1999/xlink">
<g id="graph0" class="graph" transform="scale(1 1) rotate(0) translate(4 658)">
<title>%3</title>
<polygon fill="white" stroke="transparent" points="-4,4 -4,-658 4210.09,-658 4210.09,4 -4,4"/>
<g id="clust1" class="cluster">
<title>cluster_0</title>
<polygon fill="none" stroke="lightgray" points="8,-503 8,-646 760,-646 760,-503 8,-503"/>
</g>
<g id="clust2" class="cluster">
<title>cluster_000</title>
<polygon fill="none" stroke="black" points="768,-601.2 768,-643.8 1621,-643.8 1621,-601.2 768,-601.2"/>
<text text-anchor="middle" x="1194.5" y="-628.6" font-family="Times,serif" font-size="14.00">Legend</text>
</g>
<!-- node0 -->
<g id="node1" class="node">
<title>node0</title>
<polygon fill="lightgrey" stroke="transparent" points="644.5,-638 459.5,-638 459.5,-584 644.5,-584 644.5,-638"/>
<polygon fill="none" stroke="black" points="460,-611 460,-638 645,-638 645,-611 460,-611"/>
<text text-anchor="start" x="512" y="-620.8" font-family="Times,serif" font-size="14.00">#0 Method</text>
<polygon fill="yellow" stroke="transparent" points="460,-584 460,-611 645,-611 645,-584 460,-584"/>
<polygon fill="none" stroke="black" points="460,-584 460,-611 645,-611 645,-584 460,-584"/>
<text text-anchor="start" x="466" y="-593.8" font-family="Times,serif" font-size="14.00">this : MethodInvokeTest</text>
</g>
<!-- node18 -->
<g id="node2" class="node">
<title>node18</title>
<polygon fill="lightgreen" stroke="black" points="333.98,-521.54 333.98,-536.46 240.85,-547 109.15,-547 16.02,-536.46 16.02,-521.54 109.15,-511 240.85,-511 333.98,-521.54"/>
<text text-anchor="middle" x="175" y="-525.3" font-family="Times,serif" font-size="14.00">#18 Class MethodInvokeTest</text>
</g>
<!-- node0&#45;&gt;node18 -->
<g id="edge1" class="edge">
<title>node0&#45;&gt;node18</title>
<path fill="none" stroke="black" stroke-dasharray="1,5" d="M459.29,-590.33C398.49,-577.43 319.59,-560.68 260.33,-548.11"/>
<polygon fill="black" stroke="black" points="260.76,-544.62 250.26,-545.97 259.31,-551.47 260.76,-544.62"/>
</g>
<!-- node1 -->
<g id="node8" class="node">
<title>node1</title>
<polygon fill="lightgrey" stroke="black" points="821.5,-474 716.5,-474 716.5,-438 821.5,-438 821.5,-474"/>
<text text-anchor="middle" x="769" y="-452.3" font-family="Times,serif" font-size="14.00">#1 ClassInit</text>
</g>
<!-- node0&#45;&gt;node1 -->
<g id="edge13" class="edge">
<title>node0&#45;&gt;node1</title>
<path fill="none" stroke="green" d="M644.58,-587.19C696.73,-573.46 753.03,-556.79 761,-547 775.04,-529.76 775.98,-504.02 774.03,-484.47"/>
<polygon fill="green" stroke="green" points="777.47,-483.81 772.71,-474.35 770.53,-484.72 777.47,-483.81"/>
</g>
<!-- node17 -->
<g id="node9" class="node">
<title>node17</title>
<polygon fill="lightgreen" stroke="black" points="751.58,-521.54 751.58,-536.46 634.67,-547 469.33,-547 352.42,-536.46 352.42,-521.54 469.33,-511 634.67,-511 751.58,-521.54"/>
<text text-anchor="middle" x="552" y="-525.3" font-family="Times,serif" font-size="14.00">#17 Class MethodInvokeTest$Source</text>
</g>
<!-- node0&#45;&gt;node17 -->
<g id="edge15" class="edge">
<title>node0&#45;&gt;node17</title>
<path fill="none" stroke="black" stroke-dasharray="1,5" d="M552,-583.81C552,-575.35 552,-565.95 552,-557.4"/>
<polygon fill="black" stroke="black" points="555.5,-557.17 552,-547.17 548.5,-557.17 555.5,-557.17"/>
</g>
<!-- node16 -->
<g id="node10" class="node">
<title>node16</title>
<polygon fill="lightgrey" stroke="black" points="936,-547 808,-547 808,-511 936,-511 936,-547"/>
<text text-anchor="middle" x="872" y="-525.3" font-family="Times,serif" font-size="14.00">#16 LabelNode</text>
</g>
<!-- node0&#45;&gt;node16 -->
<g id="edge14" class="edge">
<title>node0&#45;&gt;node16</title>
<path fill="none" stroke="red" d="M644.56,-586.86C693.22,-574.69 752.08,-559.98 797.73,-548.57"/>
<polygon fill="red" stroke="red" points="798.7,-551.93 807.55,-546.11 797,-545.14 798.7,-551.93"/>
</g>
<!-- node19 -->
<g id="node3" class="node">
<title>node19</title>
<polygon fill="lightgrey" stroke="black" points="1024,-182 910,-182 910,-146 1024,-146 1024,-182"/>
<text text-anchor="middle" x="967" y="-160.3" font-family="Times,serif" font-size="14.00">#19 ClassInit</text>
</g>
<!-- node18&#45;&gt;node19 -->
<g id="edge2" class="edge">
<title>node18&#45;&gt;node19</title>
<path fill="none" stroke="black" d="M175,-510.78C175,-496.41 175,-475.37 175,-457 175,-457 175,-457 175,-236 175,-199.76 708,-175.2 899.5,-167.54"/>
<polygon fill="black" stroke="black" points="899.87,-171.03 909.72,-167.14 899.59,-164.04 899.87,-171.03"/>
<text text-anchor="middle" x="891.95" y="-172.6" font-family="Times,serif" font-size="14.00">*0</text>
</g>
<!-- node20 -->
<g id="node19" class="node">
<title>node20</title>
<polygon fill="lightgrey" stroke="black" points="2309.5,-109 1600.5,-109 1600.5,-73 2309.5,-73 2309.5,-109"/>
<text text-anchor="middle" x="1955" y="-87.3" font-family="Times,serif" font-size="14.00">#20 Invoke static simple_method : (byte,boolean,short,char,int,long,float,double,String,int[])void</text>
</g>
<!-- node19&#45;&gt;node20 -->
<g id="edge32" class="edge">
<title>node19&#45;&gt;node20</title>
<path fill="none" stroke="black" d="M1024.44,-149.92C1068.63,-142.03 1130.71,-132.47 1186,-127 1317.21,-114.01 1461.8,-105.83 1589.89,-100.67"/>
<polygon fill="black" stroke="black" points="1590.41,-104.15 1600.26,-100.26 1590.13,-97.16 1590.41,-104.15"/>
<text text-anchor="middle" x="1582.48" y="-105.73" font-family="Times,serif" font-size="14.00">*0</text>
</g>
<!-- node19&#45;&gt;node20 -->
<g id="edge43" class="edge">
<title>node19&#45;&gt;node20</title>
<path fill="none" stroke="green" d="M1024.26,-152.59C1072.13,-144.3 1142.29,-133.11 1204,-127 1329.39,-114.59 1467,-106.56 1589.79,-101.38"/>
<polygon fill="green" stroke="green" points="1590.27,-104.86 1600.11,-100.95 1589.98,-97.87 1590.27,-104.86"/>
</g>
<!-- node19&#45;&gt;node20 -->
<g id="edge44" class="edge">
<title>node19&#45;&gt;node20</title>
<path fill="none" stroke="red" d="M1024.25,-154.92C1076.39,-146.53 1154.29,-133.7 1222,-127 1341.58,-115.16 1472.29,-107.31 1589.81,-102.11"/>
<polygon fill="red" stroke="red" points="1590.21,-105.6 1600.05,-101.67 1589.91,-98.61 1590.21,-105.6"/>
</g>
<!-- node10 -->
<g id="node4" class="node">
<title>node10</title>
<polygon fill="orange" stroke="black" points="815.21,-302.54 815.21,-317.46 714.33,-328 571.67,-328 470.79,-317.46 470.79,-302.54 571.67,-292 714.33,-292 815.21,-302.54"/>
<text text-anchor="middle" x="643" y="-306.3" font-family="Times,serif" font-size="14.00">#10 GetField : array_field : int[]</text>
</g>
<!-- node10&#45;&gt;node19 -->
<g id="edge3" class="edge">
<title>node10&#45;&gt;node19</title>
<path fill="none" stroke="green" d="M748.46,-295.55C788.2,-287.55 832.75,-274.9 870,-255 900.59,-238.66 928.83,-210.29 946.86,-189.77"/>
<polygon fill="green" stroke="green" points="949.62,-191.92 953.48,-182.05 944.31,-187.36 949.62,-191.92"/>
</g>
<!-- node10&#45;&gt;node20 -->
<g id="edge42" class="edge">
<title>node10&#45;&gt;node20</title>
<path fill="none" stroke="black" d="M730.64,-293.67C932.33,-258.42 1424.76,-172.62 1591,-146 1668.71,-133.56 1755.92,-120.58 1825.49,-110.47"/>
<polygon fill="black" stroke="black" points="1826.23,-113.9 1835.63,-109 1825.23,-106.98 1826.23,-113.9"/>
<text text-anchor="middle" x="1818.9" y="-116.27" font-family="Times,serif" font-size="14.00">*10</text>
</g>
<!-- node3 -->
<g id="node5" class="node">
<title>node3</title>
<polygon fill="lightgrey" stroke="black" points="860.5,-255 741.5,-255 741.5,-219 860.5,-219 860.5,-255"/>
<text text-anchor="middle" x="801" y="-233.3" font-family="Times,serif" font-size="14.00">#3 LabelNode</text>
</g>
<!-- node3&#45;&gt;node19 -->
<g id="edge4" class="edge">
<title>node3&#45;&gt;node19</title>
<path fill="none" stroke="red" d="M840.76,-218.99C863.79,-209.14 892.99,-196.66 917.5,-186.17"/>
<polygon fill="red" stroke="red" points="919.17,-189.26 926.99,-182.11 916.42,-182.83 919.17,-189.26"/>
</g>
<!-- node2 -->
<g id="node6" class="node">
<title>node2</title>
<polygon fill="lightgrey" stroke="black" points="453,-328 203,-328 203,-292 453,-292 453,-328"/>
<text text-anchor="middle" x="328" y="-306.3" font-family="Times,serif" font-size="14.00">#2 Invoke special &lt;init&gt; : ()void</text>
</g>
<!-- node2&#45;&gt;node3 -->
<g id="edge5" class="edge">
<title>node2&#45;&gt;node3</title>
<path fill="none" stroke="red" d="M441.3,-291.99C531.53,-278.45 654.98,-259.92 731.27,-248.47"/>
<polygon fill="red" stroke="red" points="731.88,-251.91 741.25,-246.97 730.84,-244.99 731.88,-251.91"/>
</g>
<!-- node7 -->
<g id="node18" class="node">
<title>node7</title>
<polygon fill="orange" stroke="black" points="3827.51,-302.54 3827.51,-317.46 3732.32,-328 3597.68,-328 3502.49,-317.46 3502.49,-302.54 3597.68,-292 3732.32,-292 3827.51,-302.54"/>
<text text-anchor="middle" x="3665" y="-306.3" font-family="Times,serif" font-size="14.00">#7 GetField : byte_field : byte</text>
</g>
<!-- node2&#45;&gt;node7 -->
<g id="edge31" class="edge">
<title>node2&#45;&gt;node7</title>
<path fill="none" stroke="green" d="M385.12,-328.07C411.04,-335.36 442.27,-342.89 471,-346.5 636.15,-367.24 3301.25,-361.65 3467,-346.5 3504.23,-343.1 3544.9,-336.17 3579.65,-329.25"/>
<polygon fill="green" stroke="green" points="3580.65,-332.62 3589.76,-327.21 3579.26,-325.76 3580.65,-332.62"/>
</g>
<!-- node4 -->
<g id="node7" class="node">
<title>node4</title>
<polygon fill="orange" stroke="black" points="2013.12,-375.54 2013.12,-390.46 1982.59,-401 1939.41,-401 1908.88,-390.46 1908.88,-375.54 1939.41,-365 1982.59,-365 2013.12,-375.54"/>
<text text-anchor="middle" x="1961" y="-379.3" font-family="Times,serif" font-size="14.00">#4 New</text>
</g>
<!-- node4&#45;&gt;node10 -->
<g id="edge45" class="edge">
<title>node4&#45;&gt;node10</title>
<path fill="none" stroke="black" d="M1908.82,-380.38C1747.4,-375.18 1241.91,-357.53 824,-328 807.42,-326.83 790,-325.42 772.79,-323.92"/>
<polygon fill="black" stroke="black" points="772.96,-320.42 762.69,-323.03 772.34,-327.39 772.96,-320.42"/>
<text text-anchor="middle" x="781.49" y="-312.5" font-family="Times,serif" font-size="14.00">*0</text>
</g>
<!-- node4&#45;&gt;node2 -->
<g id="edge6" class="edge">
<title>node4&#45;&gt;node2</title>
<path fill="none" stroke="black" d="M1908.7,-381.84C1716.24,-380.89 1029.86,-374.3 462.67,-328.78"/>
<polygon fill="black" stroke="black" points="462.9,-325.29 452.65,-327.97 462.33,-332.27 462.9,-325.29"/>
<text text-anchor="middle" x="471.4" y="-317.31" font-family="Times,serif" font-size="14.00">*0</text>
</g>
<!-- node4&#45;&gt;node2 -->
<g id="edge8" class="edge">
<title>node4&#45;&gt;node2</title>
<path fill="none" stroke="green" d="M1908.64,-381.8C1716.52,-380.72 1032.94,-373.67 471,-328 468.44,-327.79 465.86,-327.57 463.26,-327.34"/>
<polygon fill="green" stroke="green" points="463.42,-323.84 453.13,-326.39 462.76,-330.81 463.42,-323.84"/>
</g>
<!-- node14 -->
<g id="node11" class="node">
<title>node14</title>
<polygon fill="orange" stroke="black" points="1217.11,-302.54 1217.11,-317.46 1104.57,-328 945.43,-328 832.89,-317.46 832.89,-302.54 945.43,-292 1104.57,-292 1217.11,-302.54"/>
<text text-anchor="middle" x="1025" y="-306.3" font-family="Times,serif" font-size="14.00">#14 GetField : double_field : double</text>
</g>
<!-- node4&#45;&gt;node14 -->
<g id="edge16" class="edge">
<title>node4&#45;&gt;node14</title>
<path fill="none" stroke="black" d="M1908.74,-378.12C1790.29,-369.31 1492.28,-347.09 1243,-328 1221.75,-326.37 1199.33,-324.64 1177.28,-322.93"/>
<polygon fill="black" stroke="black" points="1177.42,-319.43 1167.18,-322.14 1176.88,-326.41 1177.42,-319.43"/>
<text text-anchor="middle" x="1185.91" y="-311.42" font-family="Times,serif" font-size="14.00">*0</text>
</g>
<!-- node13 -->
<g id="node12" class="node">
<title>node13</title>
<polygon fill="orange" stroke="black" points="1589.68,-302.54 1589.68,-317.46 1490.87,-328 1351.13,-328 1252.32,-317.46 1252.32,-302.54 1351.13,-292 1490.87,-292 1589.68,-302.54"/>
<text text-anchor="middle" x="1421" y="-306.3" font-family="Times,serif" font-size="14.00">#13 GetField : float_field : float</text>
</g>
<!-- node4&#45;&gt;node13 -->
<g id="edge18" class="edge">
<title>node4&#45;&gt;node13</title>
<path fill="none" stroke="black" d="M1909.71,-375.26C1823.89,-363.97 1649.23,-341.01 1533.65,-325.81"/>
<polygon fill="black" stroke="black" points="1534.07,-322.34 1523.7,-324.5 1533.16,-329.28 1534.07,-322.34"/>
<text text-anchor="middle" x="1542.77" y="-314.79" font-family="Times,serif" font-size="14.00">*0</text>
</g>
<!-- node6 -->
<g id="node13" class="node">
<title>node6</title>
<polygon fill="orange" stroke="black" points="1948.61,-302.54 1948.61,-317.46 1853.94,-328 1720.06,-328 1625.39,-317.46 1625.39,-302.54 1720.06,-292 1853.94,-292 1948.61,-302.54"/>
<text text-anchor="middle" x="1787" y="-306.3" font-family="Times,serif" font-size="14.00">#6 GetField : long_field : long</text>
</g>
<!-- node4&#45;&gt;node6 -->
<g id="edge20" class="edge">
<title>node4&#45;&gt;node6</title>
<path fill="none" stroke="black" d="M1928.27,-368.65C1902.98,-358.32 1867.49,-343.84 1838.41,-331.98"/>
<polygon fill="black" stroke="black" points="1839.4,-328.6 1828.82,-328.06 1836.76,-335.08 1839.4,-328.6"/>
<text text-anchor="middle" x="1848.8" y="-323.39" font-family="Times,serif" font-size="14.00">*0</text>
</g>
<!-- node12 -->
<g id="node14" class="node">
<title>node12</title>
<polygon fill="orange" stroke="black" points="2287.91,-302.54 2287.91,-317.46 2198.92,-328 2073.08,-328 1984.09,-317.46 1984.09,-302.54 2073.08,-292 2198.92,-292 2287.91,-302.54"/>
<text text-anchor="middle" x="2136" y="-306.3" font-family="Times,serif" font-size="14.00">#12 GetField : int_field : int</text>
</g>
<!-- node4&#45;&gt;node12 -->
<g id="edge22" class="edge">
<title>node4&#45;&gt;node12</title>
<path fill="none" stroke="black" d="M1993.92,-368.65C2019.36,-358.32 2055.05,-343.84 2084.29,-331.98"/>
<polygon fill="black" stroke="black" points="2085.99,-335.07 2093.94,-328.06 2083.36,-328.58 2085.99,-335.07"/>
<text text-anchor="middle" x="2080.32" y="-339.01" font-family="Times,serif" font-size="14.00">*0</text>
</g>
<!-- node5 -->
<g id="node15" class="node">
<title>node5</title>
<polygon fill="orange" stroke="black" points="2648.51,-302.54 2648.51,-317.46 2553.32,-328 2418.68,-328 2323.49,-317.46 2323.49,-302.54 2418.68,-292 2553.32,-292 2648.51,-302.54"/>
<text text-anchor="middle" x="2486" y="-306.3" font-family="Times,serif" font-size="14.00">#5 GetField : char_field : char</text>
</g>
<!-- node4&#45;&gt;node5 -->
<g id="edge24" class="edge">
<title>node4&#45;&gt;node5</title>
<path fill="none" stroke="black" d="M2012.3,-375.06C2096.2,-363.72 2264.61,-340.94 2376.34,-325.83"/>
<polygon fill="black" stroke="black" points="2376.85,-329.29 2386.29,-324.48 2375.91,-322.36 2376.85,-329.29"/>
<text text-anchor="middle" x="2369.46" y="-331.59" font-family="Times,serif" font-size="14.00">*0</text>
</g>
<!-- node8 -->
<g id="node16" class="node">
<title>node8</title>
<polygon fill="orange" stroke="black" points="3025.9,-302.54 3025.9,-317.46 2925.79,-328 2784.21,-328 2684.1,-317.46 2684.1,-302.54 2784.21,-292 2925.79,-292 3025.9,-302.54"/>
<text text-anchor="middle" x="2855" y="-306.3" font-family="Times,serif" font-size="14.00">#8 GetField : short_field : short</text>
</g>
<!-- node4&#45;&gt;node8 -->
<g id="edge26" class="edge">
<title>node4&#45;&gt;node8</title>
<path fill="none" stroke="black" d="M2013.47,-378.09C2129.63,-369.41 2417.28,-347.71 2658,-328 2677.39,-326.41 2697.85,-324.69 2717.96,-322.98"/>
<polygon fill="black" stroke="black" points="2718.44,-326.45 2728.11,-322.11 2717.85,-319.48 2718.44,-326.45"/>
<text text-anchor="middle" x="2710.77" y="-328.38" font-family="Times,serif" font-size="14.00">*0</text>
</g>
<!-- node11 -->
<g id="node17" class="node">
<title>node11</title>
<polygon fill="orange" stroke="black" points="3466.71,-302.54 3466.71,-317.46 3347.97,-328 3180.03,-328 3061.29,-317.46 3061.29,-302.54 3180.03,-292 3347.97,-292 3466.71,-302.54"/>
<text text-anchor="middle" x="3264" y="-306.3" font-family="Times,serif" font-size="14.00">#11 GetField : boolean_field : boolean</text>
</g>
<!-- node4&#45;&gt;node11 -->
<g id="edge28" class="edge">
<title>node4&#45;&gt;node11</title>
<path fill="none" stroke="black" d="M2013.27,-379.81C2168.86,-373.21 2642.54,-352.43 3035,-328 3058.24,-326.55 3082.79,-324.88 3106.86,-323.16"/>
<polygon fill="black" stroke="black" points="3107.41,-326.63 3117.13,-322.42 3106.91,-319.65 3107.41,-326.63"/>
<text text-anchor="middle" x="3099.66" y="-328.46" font-family="Times,serif" font-size="14.00">*0</text>
</g>
<!-- node4&#45;&gt;node7 -->
<g id="edge30" class="edge">
<title>node4&#45;&gt;node7</title>
<path fill="none" stroke="black" d="M2013.38,-381.16C2207.39,-377.83 2903.38,-363.93 3476,-328 3495.99,-326.75 3517.15,-325.13 3537.79,-323.39"/>
<polygon fill="black" stroke="black" points="3538.21,-326.87 3547.87,-322.53 3537.61,-319.89 3538.21,-326.87"/>
<text text-anchor="middle" x="3530.53" y="-328.79" font-family="Times,serif" font-size="14.00">*0</text>
</g>
<!-- node9 -->
<g id="node20" class="node">
<title>node9</title>
<polygon fill="orange" stroke="black" points="4206.19,-302.54 4206.19,-317.46 4100.64,-328 3951.36,-328 3845.81,-317.46 3845.81,-302.54 3951.36,-292 4100.64,-292 4206.19,-302.54"/>
<text text-anchor="middle" x="4026" y="-306.3" font-family="Times,serif" font-size="14.00">#9 GetField : string_field : String</text>
</g>
<!-- node4&#45;&gt;node9 -->
<g id="edge47" class="edge">
<title>node4&#45;&gt;node9</title>
<path fill="none" stroke="black" d="M2013.27,-381.66C2234.42,-379.98 3114.93,-370.83 3837,-328 3855.05,-326.93 3874.05,-325.54 3892.76,-324.01"/>
<polygon fill="black" stroke="black" points="3893.14,-327.49 3902.81,-323.17 3892.56,-320.51 3893.14,-327.49"/>
<text text-anchor="middle" x="3885.45" y="-329.4" font-family="Times,serif" font-size="14.00">*0</text>
</g>
<!-- node1&#45;&gt;node2 -->
<g id="edge7" class="edge">
<title>node1&#45;&gt;node2</title>
<path fill="none" stroke="red" d="M716.68,-437.92C634.87,-411.2 477.02,-359.66 389.76,-331.17"/>
<polygon fill="red" stroke="red" points="390.84,-327.84 380.25,-328.06 388.67,-334.49 390.84,-327.84"/>
</g>
<!-- node1&#45;&gt;node4 -->
<g id="edge9" class="edge">
<title>node1&#45;&gt;node4</title>
<path fill="none" stroke="black" d="M821.82,-451.67C1015.99,-439.81 1689.26,-399.71 1898.51,-387.53"/>
<polygon fill="black" stroke="black" points="1898.92,-391.02 1908.7,-386.94 1898.52,-384.03 1898.92,-391.02"/>
<text text-anchor="middle" x="1891.1" y="-392.73" font-family="Times,serif" font-size="14.00">*0</text>
</g>
<!-- node1&#45;&gt;node4 -->
<g id="edge10" class="edge">
<title>node1&#45;&gt;node4</title>
<path fill="none" stroke="green" d="M821.61,-452.04C1015.52,-440.79 1689.23,-400.67 1898.52,-387.92"/>
<polygon fill="green" stroke="green" points="1898.95,-391.4 1908.72,-387.3 1898.53,-384.41 1898.95,-391.4"/>
</g>
<!-- node17&#45;&gt;node1 -->
<g id="edge11" class="edge">
<title>node17&#45;&gt;node1</title>
<path fill="none" stroke="black" d="M603.98,-510.99C634.88,-500.88 674.28,-487.99 706.83,-477.34"/>
<polygon fill="black" stroke="black" points="708.28,-480.55 716.7,-474.11 706.1,-473.9 708.28,-480.55"/>
<text text-anchor="middle" x="702.1" y="-484.08" font-family="Times,serif" font-size="14.00">*0</text>
</g>
<!-- node16&#45;&gt;node1 -->
<g id="edge12" class="edge">
<title>node16&#45;&gt;node1</title>
<path fill="none" stroke="red" d="M847.33,-510.99C833.8,-501.67 816.84,-489.97 802.16,-479.86"/>
<polygon fill="red" stroke="red" points="804.05,-476.91 793.83,-474.11 800.07,-482.67 804.05,-476.91"/>
</g>
<!-- node14&#45;&gt;node20 -->
<g id="edge40" class="edge">
<title>node14&#45;&gt;node20</title>
<path fill="none" stroke="black" d="M1124.82,-293.86C1158.93,-288.23 1197.24,-281.39 1232,-274 1455.53,-226.46 1508.22,-201.11 1730,-146 1777.29,-134.25 1830.28,-121.51 1872.95,-111.36"/>
<polygon fill="black" stroke="black" points="1873.81,-114.75 1882.73,-109.03 1872.19,-107.94 1873.81,-114.75"/>
<text text-anchor="middle" x="1867.05" y="-117.75" font-family="Times,serif" font-size="14.00">*8</text>
</g>
<!-- node14&#45;&gt;node9 -->
<g id="edge48" class="edge">
<title>node14&#45;&gt;node9</title>
<path fill="none" stroke="green" d="M1112.19,-327.36C1154.25,-334.87 1205.55,-342.79 1252,-346.5 1537.31,-369.29 3542.97,-372.55 3828,-346.5 3864.28,-343.18 3903.83,-336.52 3937.98,-329.78"/>
<polygon fill="green" stroke="green" points="3938.81,-333.19 3947.93,-327.79 3937.43,-326.32 3938.81,-333.19"/>
</g>
<!-- node13&#45;&gt;node14 -->
<g id="edge17" class="edge">
<title>node13&#45;&gt;node14</title>
<path fill="none" stroke="green" d="M1252.23,-310C1243.93,-310 1235.63,-310 1227.32,-310"/>
<polygon fill="green" stroke="green" points="1227.2,-306.5 1217.2,-310 1227.2,-313.5 1227.2,-306.5"/>
</g>
<!-- node13&#45;&gt;node20 -->
<g id="edge39" class="edge">
<title>node13&#45;&gt;node20</title>
<path fill="none" stroke="black" d="M1462.9,-291.97C1559.58,-252.68 1798.02,-155.79 1903.45,-112.95"/>
<polygon fill="black" stroke="black" points="1904.98,-116.11 1912.92,-109.1 1902.34,-109.62 1904.98,-116.11"/>
<text text-anchor="middle" x="1899.31" y="-120.05" font-family="Times,serif" font-size="14.00">*7</text>
</g>
<!-- node6&#45;&gt;node13 -->
<g id="edge19" class="edge">
<title>node6&#45;&gt;node13</title>
<path fill="none" stroke="green" d="M1625.15,-310C1616.75,-310 1608.35,-310 1599.95,-310"/>
<polygon fill="green" stroke="green" points="1599.7,-306.5 1589.7,-310 1599.7,-313.5 1599.7,-306.5"/>
</g>
<!-- node6&#45;&gt;node20 -->
<g id="edge38" class="edge">
<title>node6&#45;&gt;node20</title>
<path fill="none" stroke="black" d="M1800.18,-291.97C1829.61,-253.96 1900.8,-162.01 1935.43,-117.28"/>
<polygon fill="black" stroke="black" points="1938.29,-119.3 1941.65,-109.25 1932.76,-115.01 1938.29,-119.3"/>
<text text-anchor="middle" x="1937.23" y="-125.06" font-family="Times,serif" font-size="14.00">*6</text>
</g>
<!-- node12&#45;&gt;node6 -->
<g id="edge21" class="edge">
<title>node12&#45;&gt;node6</title>
<path fill="none" stroke="green" d="M1983.97,-310C1975.66,-310 1967.34,-310 1959.03,-310"/>
<polygon fill="green" stroke="green" points="1958.89,-306.5 1948.89,-310 1958.89,-313.5 1958.89,-306.5"/>
</g>
<!-- node12&#45;&gt;node20 -->
<g id="edge37" class="edge">
<title>node12&#45;&gt;node20</title>
<path fill="none" stroke="black" d="M2121.8,-291.97C2090.02,-253.88 2013.08,-161.63 1975.86,-117"/>
<polygon fill="black" stroke="black" points="1978.48,-114.69 1969.39,-109.25 1973.1,-119.17 1978.48,-114.69"/>
<text text-anchor="middle" x="1987.49" y="-114.05" font-family="Times,serif" font-size="14.00">*5</text>
</g>
<!-- node5&#45;&gt;node12 -->
<g id="edge23" class="edge">
<title>node5&#45;&gt;node12</title>
<path fill="none" stroke="green" d="M2323.27,-310C2314.94,-310 2306.6,-310 2298.27,-310"/>
<polygon fill="green" stroke="green" points="2298.1,-306.5 2288.1,-310 2298.1,-313.5 2298.1,-306.5"/>
</g>
<!-- node5&#45;&gt;node20 -->
<g id="edge36" class="edge">
<title>node5&#45;&gt;node20</title>
<path fill="none" stroke="black" d="M2444.33,-291.97C2348.19,-252.68 2111.1,-155.79 2006.26,-112.95"/>
<polygon fill="black" stroke="black" points="2007.42,-109.64 1996.84,-109.1 2004.77,-116.12 2007.42,-109.64"/>
<text text-anchor="middle" x="2016.82" y="-104.43" font-family="Times,serif" font-size="14.00">*4</text>
</g>
<!-- node8&#45;&gt;node5 -->
<g id="edge25" class="edge">
<title>node8&#45;&gt;node5</title>
<path fill="none" stroke="green" d="M2684.01,-310C2675.6,-310 2667.19,-310 2658.78,-310"/>
<polygon fill="green" stroke="green" points="2658.52,-306.5 2648.52,-310 2658.52,-313.5 2658.52,-306.5"/>
</g>
<!-- node8&#45;&gt;node20 -->
<g id="edge35" class="edge">
<title>node8&#45;&gt;node20</title>
<path fill="none" stroke="black" d="M2784.38,-291.97C2619.44,-252.2 2209.72,-153.42 2035.48,-111.41"/>
<polygon fill="black" stroke="black" points="2036.15,-107.96 2025.6,-109.02 2034.5,-114.77 2036.15,-107.96"/>
<text text-anchor="middle" x="2045.21" y="-101.36" font-family="Times,serif" font-size="14.00">*3</text>
</g>
<!-- node11&#45;&gt;node8 -->
<g id="edge27" class="edge">
<title>node11&#45;&gt;node8</title>
<path fill="none" stroke="green" d="M3061.28,-310C3052.91,-310 3044.54,-310 3036.16,-310"/>
<polygon fill="green" stroke="green" points="3035.95,-306.5 3025.95,-310 3035.95,-313.5 3035.95,-306.5"/>
</g>
<!-- node11&#45;&gt;node20 -->
<g id="edge34" class="edge">
<title>node11&#45;&gt;node20</title>
<path fill="none" stroke="black" d="M3167.75,-293.04C2930.9,-253.78 2320.75,-152.63 2067.63,-110.67"/>
<polygon fill="black" stroke="black" points="2068.12,-107.2 2057.68,-109.02 2066.98,-114.11 2068.12,-107.2"/>
<text text-anchor="middle" x="2076.95" y="-99.95" font-family="Times,serif" font-size="14.00">*2</text>
</g>
<!-- node7&#45;&gt;node11 -->
<g id="edge29" class="edge">
<title>node7&#45;&gt;node11</title>
<path fill="none" stroke="green" d="M3502.45,-310C3493.92,-310 3485.39,-310 3476.86,-310"/>
<polygon fill="green" stroke="green" points="3476.85,-306.5 3466.85,-310 3476.85,-313.5 3476.85,-306.5"/>
</g>
<!-- node7&#45;&gt;node20 -->
<g id="edge33" class="edge">
<title>node7&#45;&gt;node20</title>
<path fill="none" stroke="black" d="M3564.02,-295.66C3350.04,-267.46 2835.13,-199.95 2403,-146 2305.23,-133.79 2195.39,-120.55 2108.95,-110.23"/>
<polygon fill="black" stroke="black" points="2109.14,-106.73 2098.79,-109.02 2108.31,-113.68 2109.14,-106.73"/>
<text text-anchor="middle" x="2117.79" y="-99.07" font-family="Times,serif" font-size="14.00">*1</text>
</g>
<!-- node21 -->
<g id="node21" class="node">
<title>node21</title>
<polygon fill="lightgrey" stroke="black" points="2005.5,-36 1904.5,-36 1904.5,0 2005.5,0 2005.5,-36"/>
<text text-anchor="middle" x="1955" y="-14.3" font-family="Times,serif" font-size="14.00">#21 Return</text>
</g>
<!-- node20&#45;&gt;node21 -->
<g id="edge49" class="edge">
<title>node20&#45;&gt;node21</title>
<path fill="none" stroke="red" d="M1949.12,-72.81C1948.28,-64.79 1948.05,-55.05 1948.42,-46.07"/>
<polygon fill="red" stroke="red" points="1951.92,-46.25 1949.14,-36.03 1944.94,-45.75 1951.92,-46.25"/>
</g>
<!-- node20&#45;&gt;node21 -->
<g id="edge50" class="edge">
<title>node20&#45;&gt;node21</title>
<path fill="none" stroke="green" d="M1960.88,-72.81C1961.72,-64.79 1961.95,-55.05 1961.58,-46.07"/>
<polygon fill="green" stroke="green" points="1965.06,-45.75 1960.86,-36.03 1958.08,-46.25 1965.06,-45.75"/>
</g>
<!-- node9&#45;&gt;node10 -->
<g id="edge46" class="edge">
<title>node9&#45;&gt;node10</title>
<path fill="none" stroke="green" d="M3947.93,-327.79C3911.67,-335.17 3867.86,-342.86 3828,-346.5 3662.3,-361.65 998.64,-362.27 833,-346.5 798.15,-343.18 760.19,-336.52 727.42,-329.78"/>
<polygon fill="green" stroke="green" points="727.93,-326.31 717.43,-327.69 726.5,-333.16 727.93,-326.31"/>
</g>
<!-- node9&#45;&gt;node20 -->
<g id="edge41" class="edge">
<title>node9&#45;&gt;node20</title>
<path fill="none" stroke="black" d="M3913.59,-295.73C3667.63,-266.86 3063.15,-196.9 2556,-146 2426.61,-133.01 2281.39,-119.93 2166.12,-109.89"/>
<polygon fill="black" stroke="black" points="2166.38,-106.4 2156.12,-109.02 2165.78,-113.37 2166.38,-106.4"/>
<text text-anchor="middle" x="2174.91" y="-98.47" font-family="Times,serif" font-size="14.00">*9</text>
</g>
<!-- c0 -->
<!-- c1 -->
<!-- c0&#45;&gt;c1 -->
<g id="edge51" class="edge">
<title>c0&#45;&gt;c1</title>
<path fill="none" stroke="red" d="M1503.89,-611C1515.11,-611 1573.24,-611 1598.86,-611"/>
<polygon fill="red" stroke="red" points="1599.06,-614.5 1609.06,-611 1599.06,-607.5 1599.06,-614.5"/>
<text text-anchor="middle" x="1556.5" y="-617.8" font-family="Times,serif" font-size="14.00">Control flow</text>
</g>
<!-- c2 -->
<!-- c3 -->
<!-- c2&#45;&gt;c3 -->
<g id="edge52" class="edge">
<title>c2&#45;&gt;c3</title>
<path fill="none" stroke="red" stroke-dasharray="5,2" d="M1297.08,-611C1314.05,-611 1430.21,-611 1468.08,-611"/>
<polygon fill="red" stroke="red" points="1468.17,-614.5 1478.17,-611 1468.17,-607.5 1468.17,-614.5"/>
<text text-anchor="middle" x="1387.5" y="-617.8" font-family="Times,serif" font-size="14.00">Control flow back edge</text>
</g>
<!-- d0 -->
<!-- d1 -->
<!-- d0&#45;&gt;d1 -->
<g id="edge53" class="edge">
<title>d0&#45;&gt;d1</title>
<path fill="none" stroke="black" d="M1185.86,-611C1195.41,-611 1239.31,-611 1260.92,-611"/>
<polygon fill="black" stroke="black" points="1261.15,-614.5 1271.15,-611 1261.15,-607.5 1261.15,-614.5"/>
<text text-anchor="middle" x="1228.5" y="-617.8" font-family="Times,serif" font-size="14.00">Data flow</text>
</g>
<!-- d2 -->
<!-- d3 -->
<!-- d2&#45;&gt;d3 -->
<g id="edge54" class="edge">
<title>d2&#45;&gt;d3</title>
<path fill="none" stroke="black" stroke-dasharray="1,5" d="M1059.81,-611C1070.46,-611 1125.46,-611 1150.08,-611"/>
<polygon fill="black" stroke="black" points="1150.15,-614.5 1160.15,-611 1150.15,-607.5 1150.15,-614.5"/>
<text text-anchor="middle" x="1110" y="-617.8" font-family="Times,serif" font-size="14.00">Declaration</text>
</g>
<!-- d4 -->
<!-- d5 -->
<!-- d4&#45;&gt;d5 -->
<g id="edge55" class="edge">
<title>d4&#45;&gt;d5</title>
<path fill="none" stroke="blue" d="M917.1,-611C929.72,-611 995.88,-611 1023.68,-611"/>
<polygon fill="blue" stroke="blue" points="1023.84,-614.5 1033.84,-611 1023.84,-607.5 1023.84,-614.5"/>
<text text-anchor="middle" x="975.5" y="-617.8" font-family="Times,serif" font-size="14.00">PHI Data flow</text>
</g>
<!-- d6 -->
<!-- d7 -->
<!-- d6&#45;&gt;d7 -->
<g id="edge56" class="edge">
<title>d6&#45;&gt;d7</title>
<path fill="none" stroke="green" d="M780,-611C791.94,-611 854.3,-611 880.93,-611"/>
<polygon fill="green" stroke="green" points="880.95,-614.5 890.95,-611 880.95,-607.5 880.95,-614.5"/>
<text text-anchor="middle" x="835.5" y="-617.8" font-family="Times,serif" font-size="14.00">Memory flow</text>
</g>
</g>
</svg>
