<?xml version="1.0" encoding="UTF-8" standalone="no"?>
<!DOCTYPE svg PUBLIC "-//W3C//DTD SVG 1.1//EN"
 "http://www.w3.org/Graphics/SVG/1.1/DTD/svg11.dtd">
<!-- Generated by graphviz version 2.43.0 (0)
 -->
<!-- Title: %3 Pages: 1 -->
<svg width="4661pt" height="587pt"
 viewBox="0.00 0.00 4661.27 586.80" xmlns="http://www.w3.org/2000/svg" xmlns:xlink="http://www.w3.org/1999/xlink">
<g id="graph0" class="graph" transform="scale(1 1) rotate(0) translate(4 582.8)">
<title>%3</title>
<polygon fill="white" stroke="transparent" points="-4,4 -4,-582.8 4657.27,-582.8 4657.27,4 -4,4"/>
<g id="clust1" class="cluster">
<title>cluster_0</title>
<polygon fill="none" stroke="lightgray" points="3556.27,-357 3556.27,-482 3958.27,-482 3958.27,-357 3556.27,-357"/>
</g>
<g id="clust2" class="cluster">
<title>cluster_1</title>
<polygon fill="none" stroke="lightgray" points="4055.27,-138 4055.27,-263 4389.27,-263 4389.27,-138 4055.27,-138"/>
</g>
<g id="clust3" class="cluster">
<title>cluster_000</title>
<polygon fill="none" stroke="black" points="3792.27,-528.2 3792.27,-570.8 4645.27,-570.8 4645.27,-528.2 3792.27,-528.2"/>
<text text-anchor="middle" x="4218.77" y="-555.6" font-family="Times,serif" font-size="14.00">Legend</text>
</g>
<!-- node0 -->
<g id="node1" class="node">
<title>node0</title>
<polygon fill="lightgrey" stroke="transparent" points="3782.77,-565 3597.77,-565 3597.77,-511 3782.77,-511 3782.77,-565"/>
<polygon fill="none" stroke="black" points="3598.27,-538 3598.27,-565 3783.27,-565 3783.27,-538 3598.27,-538"/>
<text text-anchor="start" x="3650.27" y="-547.8" font-family="Times,serif" font-size="14.00">#0 Method</text>
<polygon fill="yellow" stroke="transparent" points="3598.27,-511 3598.27,-538 3783.27,-538 3783.27,-511 3598.27,-511"/>
<polygon fill="none" stroke="black" points="3598.27,-511 3598.27,-538 3783.27,-538 3783.27,-511 3598.27,-511"/>
<text text-anchor="start" x="3604.27" y="-520.8" font-family="Times,serif" font-size="14.00">this : MethodInvokeTest</text>
</g>
<!-- node2 -->
<g id="node2" class="node">
<title>node2</title>
<polygon fill="lightgrey" stroke="black" points="3749.77,-474 3630.77,-474 3630.77,-438 3749.77,-438 3749.77,-474"/>
<text text-anchor="middle" x="3690.27" y="-452.3" font-family="Times,serif" font-size="14.00">#2 LabelNode</text>
</g>
<!-- node0&#45;&gt;node2 -->
<g id="edge1" class="edge">
<title>node0&#45;&gt;node2</title>
<path fill="none" stroke="red" d="M3690.27,-510.81C3690.27,-502.35 3690.27,-492.95 3690.27,-484.4"/>
<polygon fill="red" stroke="red" points="3693.77,-484.17 3690.27,-474.17 3686.77,-484.17 3693.77,-484.17"/>
</g>
<!-- node4 -->
<g id="node3" class="node">
<title>node4</title>
<polygon fill="lightgrey" stroke="black" points="3600.77,-328 3495.77,-328 3495.77,-292 3600.77,-292 3600.77,-328"/>
<text text-anchor="middle" x="3548.27" y="-306.3" font-family="Times,serif" font-size="14.00">#4 ClassInit</text>
</g>
<!-- node0&#45;&gt;node4 -->
<g id="edge4" class="edge">
<title>node0&#45;&gt;node4</title>
<path fill="none" stroke="green" d="M3782.81,-512.2C3784.64,-511.79 3786.47,-511.39 3788.27,-511 3826.59,-502.74 3936.94,-511.91 3962.27,-482 3998.18,-439.61 3999.33,-398.4 3962.27,-357 3939.32,-331.36 3721.59,-318.41 3611.44,-313.46"/>
<polygon fill="green" stroke="green" points="3611.28,-309.95 3601.13,-313.01 3610.97,-316.95 3611.28,-309.95"/>
</g>
<!-- node2&#45;&gt;node4 -->
<g id="edge3" class="edge">
<title>node2&#45;&gt;node4</title>
<path fill="none" stroke="red" d="M3630.61,-445.86C3603.23,-438.46 3572.99,-425.1 3555.27,-401 3542.12,-383.1 3541.38,-357.43 3543.35,-338.08"/>
<polygon fill="red" stroke="red" points="3546.83,-338.44 3544.66,-328.07 3539.89,-337.53 3546.83,-338.44"/>
</g>
<!-- node3 -->
<g id="node4" class="node">
<title>node3</title>
<polygon fill="lightgreen" stroke="black" points="3950.7,-375.54 3950.7,-390.46 3837.39,-401 3677.16,-401 3563.85,-390.46 3563.85,-375.54 3677.16,-365 3837.39,-365 3950.7,-375.54"/>
<text text-anchor="middle" x="3757.27" y="-379.3" font-family="Times,serif" font-size="14.00">#3 Class MethodInvokeTest$Source</text>
</g>
<!-- node2&#45;&gt;node3 -->
<g id="edge5" class="edge">
<title>node2&#45;&gt;node3</title>
<path fill="none" stroke="black" stroke-dasharray="1,5" d="M3706.49,-437.81C3714.81,-429 3725.07,-418.13 3734.19,-408.46"/>
<polygon fill="black" stroke="black" points="3736.89,-410.7 3741.2,-401.03 3731.8,-405.9 3736.89,-410.7"/>
</g>
<!-- node5 -->
<g id="node5" class="node">
<title>node5</title>
<polygon fill="orange" stroke="black" points="2292.39,-229.54 2292.39,-244.46 2261.86,-255 2218.69,-255 2188.16,-244.46 2188.16,-229.54 2218.69,-219 2261.86,-219 2292.39,-229.54"/>
<text text-anchor="middle" x="2240.27" y="-233.3" font-family="Times,serif" font-size="14.00">#5 New</text>
</g>
<!-- node4&#45;&gt;node5 -->
<g id="edge6" class="edge">
<title>node4&#45;&gt;node5</title>
<path fill="none" stroke="black" d="M3495.4,-306.28C3287.41,-295.27 2526.6,-253.98 2302.65,-241.56"/>
<polygon fill="black" stroke="black" points="2302.57,-238.05 2292.4,-240.99 2302.19,-245.04 2302.57,-238.05"/>
<text text-anchor="middle" x="2310.96" y="-229.85" font-family="Times,serif" font-size="14.00">*0</text>
</g>
<!-- node4&#45;&gt;node5 -->
<g id="edge7" class="edge">
<title>node4&#45;&gt;node5</title>
<path fill="none" stroke="green" d="M3495.43,-305.97C3287.48,-294.41 2526.5,-253.1 2302.59,-241.22"/>
<polygon fill="green" stroke="green" points="2302.51,-237.71 2292.34,-240.68 2302.14,-244.7 2302.51,-237.71"/>
</g>
<!-- node6 -->
<g id="node12" class="node">
<title>node6</title>
<polygon fill="lightgrey" stroke="black" points="4045.27,-182 3795.27,-182 3795.27,-146 4045.27,-146 4045.27,-182"/>
<text text-anchor="middle" x="3920.27" y="-160.3" font-family="Times,serif" font-size="14.00">#6 Invoke special &lt;init&gt; : ()void</text>
</g>
<!-- node4&#45;&gt;node6 -->
<g id="edge21" class="edge">
<title>node4&#45;&gt;node6</title>
<path fill="none" stroke="red" d="M3592.41,-291.92C3660.93,-265.39 3792.68,-214.39 3866.6,-185.78"/>
<polygon fill="red" stroke="red" points="3868.14,-188.94 3876.2,-182.06 3865.61,-182.41 3868.14,-188.94"/>
</g>
<!-- node3&#45;&gt;node4 -->
<g id="edge2" class="edge">
<title>node3&#45;&gt;node4</title>
<path fill="none" stroke="black" d="M3707.21,-364.99C3677.45,-354.88 3639.5,-341.99 3608.15,-331.34"/>
<polygon fill="black" stroke="black" points="3609.25,-328.02 3598.65,-328.11 3606.99,-334.64 3609.25,-328.02"/>
<text text-anchor="middle" x="3618.53" y="-322.24" font-family="Times,serif" font-size="14.00">*0</text>
</g>
<!-- node12 -->
<g id="node6" class="node">
<title>node12</title>
<polygon fill="orange" stroke="black" points="2687.54,-156.54 2687.54,-171.46 2588.97,-182 2449.57,-182 2351,-171.46 2351,-156.54 2449.57,-146 2588.97,-146 2687.54,-156.54"/>
<text text-anchor="middle" x="2519.27" y="-160.3" font-family="Times,serif" font-size="14.00">#12 GetField : long_field : long</text>
</g>
<!-- node5&#45;&gt;node12 -->
<g id="edge8" class="edge">
<title>node5&#45;&gt;node12</title>
<path fill="none" stroke="black" d="M2281.14,-225.6C2323.37,-214.85 2390.3,-197.82 2442.46,-184.55"/>
<polygon fill="black" stroke="black" points="2443.52,-187.89 2452.35,-182.03 2441.79,-181.11 2443.52,-187.89"/>
<text text-anchor="middle" x="2436.87" y="-190.99" font-family="Times,serif" font-size="14.00">*0</text>
</g>
<!-- node11 -->
<g id="node7" class="node">
<title>node11</title>
<polygon fill="orange" stroke="black" points="3027.18,-156.54 3027.18,-171.46 2938.2,-182 2812.35,-182 2723.37,-171.46 2723.37,-156.54 2812.35,-146 2938.2,-146 3027.18,-156.54"/>
<text text-anchor="middle" x="2875.27" y="-160.3" font-family="Times,serif" font-size="14.00">#11 GetField : int_field : int</text>
</g>
<!-- node5&#45;&gt;node11 -->
<g id="edge10" class="edge">
<title>node5&#45;&gt;node11</title>
<path fill="none" stroke="black" d="M2292.51,-230.16C2393.95,-218.82 2619.83,-193.56 2758.69,-178.04"/>
<polygon fill="black" stroke="black" points="2759.39,-181.48 2768.94,-176.89 2758.62,-174.52 2759.39,-181.48"/>
<text text-anchor="middle" x="2751.87" y="-183.6" font-family="Times,serif" font-size="14.00">*0</text>
</g>
<!-- node10 -->
<g id="node8" class="node">
<title>node10</title>
<polygon fill="orange" stroke="black" points="3399.95,-156.54 3399.95,-171.46 3301.14,-182 3161.41,-182 3062.6,-171.46 3062.6,-156.54 3161.41,-146 3301.14,-146 3399.95,-156.54"/>
<text text-anchor="middle" x="3231.27" y="-160.3" font-family="Times,serif" font-size="14.00">#10 GetField : char_field : char</text>
</g>
<!-- node5&#45;&gt;node10 -->
<g id="edge12" class="edge">
<title>node5&#45;&gt;node10</title>
<path fill="none" stroke="black" d="M2292.45,-232.81C2419.67,-224.95 2755.94,-203.73 3036.27,-182 3055.84,-180.48 3076.5,-178.79 3096.76,-177.07"/>
<polygon fill="black" stroke="black" points="3097.33,-180.53 3106.99,-176.19 3096.73,-173.56 3097.33,-180.53"/>
<text text-anchor="middle" x="3089.65" y="-182.46" font-family="Times,serif" font-size="14.00">*0</text>
</g>
<!-- node9 -->
<g id="node9" class="node">
<title>node9</title>
<polygon fill="orange" stroke="black" points="3777.17,-156.54 3777.17,-171.46 3677.06,-182 3535.49,-182 3435.38,-171.46 3435.38,-156.54 3535.49,-146 3677.06,-146 3777.17,-156.54"/>
<text text-anchor="middle" x="3606.27" y="-160.3" font-family="Times,serif" font-size="14.00">#9 GetField : short_field : short</text>
</g>
<!-- node5&#45;&gt;node9 -->
<g id="edge14" class="edge">
<title>node5&#45;&gt;node9</title>
<path fill="none" stroke="black" d="M2292.46,-234.33C2456.78,-228.92 2978.23,-210.54 3409.27,-182 3429.75,-180.64 3451.41,-178.99 3472.58,-177.26"/>
<polygon fill="black" stroke="black" points="3472.91,-180.75 3482.59,-176.43 3472.34,-173.77 3472.91,-180.75"/>
<text text-anchor="middle" x="3465.22" y="-182.65" font-family="Times,serif" font-size="14.00">*0</text>
</g>
<!-- node8 -->
<g id="node10" class="node">
<title>node8</title>
<polygon fill="orange" stroke="black" points="392.32,-156.54 392.32,-171.46 277.48,-182 115.07,-182 0.23,-171.46 0.23,-156.54 115.07,-146 277.48,-146 392.32,-156.54"/>
<text text-anchor="middle" x="196.27" y="-160.3" font-family="Times,serif" font-size="14.00">#8 GetField : boolean_field : boolean</text>
</g>
<!-- node5&#45;&gt;node8 -->
<g id="edge16" class="edge">
<title>node5&#45;&gt;node8</title>
<path fill="none" stroke="black" d="M2188.06,-235.35C1970.94,-232.44 1118.24,-219.15 418.27,-182 394.78,-180.75 369.91,-179.14 345.64,-177.4"/>
<polygon fill="black" stroke="black" points="345.88,-173.91 335.65,-176.68 345.37,-180.89 345.88,-173.91"/>
<text text-anchor="middle" x="354.34" y="-165.86" font-family="Times,serif" font-size="14.00">*0</text>
</g>
<!-- node7 -->
<g id="node11" class="node">
<title>node7</title>
<polygon fill="orange" stroke="black" points="752.79,-156.54 752.79,-171.46 657.59,-182 522.96,-182 427.76,-171.46 427.76,-156.54 522.96,-146 657.59,-146 752.79,-156.54"/>
<text text-anchor="middle" x="590.27" y="-160.3" font-family="Times,serif" font-size="14.00">#7 GetField : byte_field : byte</text>
</g>
<!-- node5&#45;&gt;node7 -->
<g id="edge18" class="edge">
<title>node5&#45;&gt;node7</title>
<path fill="none" stroke="black" d="M2188.18,-235.26C1997.52,-232.33 1319.79,-219.7 762.27,-182 746.16,-180.91 729.22,-179.53 712.51,-178.02"/>
<polygon fill="black" stroke="black" points="712.42,-174.5 702.14,-177.07 711.78,-181.47 712.42,-174.5"/>
<text text-anchor="middle" x="720.97" y="-166.61" font-family="Times,serif" font-size="14.00">*0</text>
</g>
<!-- node5&#45;&gt;node6 -->
<g id="edge20" class="edge">
<title>node5&#45;&gt;node6</title>
<path fill="none" stroke="black" d="M2292.34,-235.89C2487.82,-235.1 3195.71,-228.95 3777.27,-182 3779.83,-181.79 3782.41,-181.57 3785.02,-181.34"/>
<polygon fill="black" stroke="black" points="3785.51,-184.81 3795.14,-180.39 3784.86,-177.84 3785.51,-184.81"/>
<text text-anchor="middle" x="3777.88" y="-186.8" font-family="Times,serif" font-size="14.00">*0</text>
</g>
<!-- node5&#45;&gt;node6 -->
<g id="edge22" class="edge">
<title>node5&#45;&gt;node6</title>
<path fill="none" stroke="green" d="M2292.41,-235.91C2488.36,-235.24 3198.62,-229.56 3785.27,-182.8"/>
<polygon fill="green" stroke="green" points="3785.94,-186.26 3795.63,-181.97 3785.38,-179.28 3785.94,-186.26"/>
</g>
<!-- node16 -->
<g id="node16" class="node">
<title>node16</title>
<polygon fill="orange" stroke="black" points="1115.49,-156.54 1115.49,-171.46 1014.61,-182 871.94,-182 771.06,-171.46 771.06,-156.54 871.94,-146 1014.61,-146 1115.49,-156.54"/>
<text text-anchor="middle" x="943.27" y="-160.3" font-family="Times,serif" font-size="14.00">#16 GetField : array_field : int[]</text>
</g>
<!-- node5&#45;&gt;node16 -->
<g id="edge28" class="edge">
<title>node5&#45;&gt;node16</title>
<path fill="none" stroke="black" d="M2187.95,-234.1C2030.02,-228.21 1544.31,-209.05 1142.27,-182 1121.67,-180.61 1099.88,-178.95 1078.57,-177.22"/>
<polygon fill="black" stroke="black" points="1078.74,-173.72 1068.48,-176.39 1078.16,-180.7 1078.74,-173.72"/>
<text text-anchor="middle" x="1087.24" y="-165.75" font-family="Times,serif" font-size="14.00">*0</text>
</g>
<!-- node15 -->
<g id="node17" class="node">
<title>node15</title>
<polygon fill="orange" stroke="black" points="1523.63,-156.54 1523.63,-171.46 1414.46,-182 1260.09,-182 1150.92,-171.46 1150.92,-156.54 1260.09,-146 1414.46,-146 1523.63,-156.54"/>
<text text-anchor="middle" x="1337.27" y="-160.3" font-family="Times,serif" font-size="14.00">#15 GetField : string_field : String</text>
</g>
<!-- node5&#45;&gt;node15 -->
<g id="edge30" class="edge">
<title>node5&#45;&gt;node15</title>
<path fill="none" stroke="black" d="M2187.9,-231.93C2072.65,-222.96 1788.35,-200.82 1550.27,-182 1529.52,-180.36 1507.63,-178.62 1486.11,-176.91"/>
<polygon fill="black" stroke="black" points="1486.16,-173.4 1475.91,-176.1 1485.6,-180.38 1486.16,-173.4"/>
<text text-anchor="middle" x="1494.65" y="-165.41" font-family="Times,serif" font-size="14.00">*0</text>
</g>
<!-- node14 -->
<g id="node18" class="node">
<title>node14</title>
<polygon fill="orange" stroke="black" points="1943.38,-156.54 1943.38,-171.46 1830.85,-182 1671.7,-182 1559.17,-171.46 1559.17,-156.54 1671.7,-146 1830.85,-146 1943.38,-156.54"/>
<text text-anchor="middle" x="1751.27" y="-160.3" font-family="Times,serif" font-size="14.00">#14 GetField : double_field : double</text>
</g>
<!-- node5&#45;&gt;node14 -->
<g id="edge32" class="edge">
<title>node5&#45;&gt;node14</title>
<path fill="none" stroke="black" d="M2190.24,-228.74C2114.03,-217.67 1966.89,-196.31 1864.06,-181.38"/>
<polygon fill="black" stroke="black" points="1864.34,-177.88 1853.94,-179.91 1863.33,-184.81 1864.34,-177.88"/>
<text text-anchor="middle" x="1873.09" y="-170.45" font-family="Times,serif" font-size="14.00">*0</text>
</g>
<!-- node13 -->
<g id="node19" class="node">
<title>node13</title>
<polygon fill="orange" stroke="black" points="2315.95,-156.54 2315.95,-171.46 2217.14,-182 2077.41,-182 1978.6,-171.46 1978.6,-156.54 2077.41,-146 2217.14,-146 2315.95,-156.54"/>
<text text-anchor="middle" x="2147.27" y="-160.3" font-family="Times,serif" font-size="14.00">#13 GetField : float_field : float</text>
</g>
<!-- node5&#45;&gt;node13 -->
<g id="edge34" class="edge">
<title>node5&#45;&gt;node13</title>
<path fill="none" stroke="black" d="M2217.76,-218.81C2205.77,-209.66 2190.84,-198.26 2177.81,-188.32"/>
<polygon fill="black" stroke="black" points="2179.65,-185.32 2169.58,-182.03 2175.4,-190.88 2179.65,-185.32"/>
<text text-anchor="middle" x="2189.12" y="-182.61" font-family="Times,serif" font-size="14.00">*0</text>
</g>
<!-- node12&#45;&gt;node13 -->
<g id="edge35" class="edge">
<title>node12&#45;&gt;node13</title>
<path fill="none" stroke="green" d="M2351.1,-164C2342.83,-164 2334.56,-164 2326.29,-164"/>
<polygon fill="green" stroke="green" points="2326.2,-160.5 2316.2,-164 2326.2,-167.5 2326.2,-160.5"/>
</g>
<!-- node20 -->
<g id="node20" class="node">
<title>node20</title>
<polygon fill="lightgrey" stroke="black" points="2600.77,-109 1891.77,-109 1891.77,-73 2600.77,-73 2600.77,-109"/>
<text text-anchor="middle" x="2246.27" y="-87.3" font-family="Times,serif" font-size="14.00">#20 Invoke static simple_method : (byte,boolean,short,char,int,long,float,double,String,int[])void</text>
</g>
<!-- node12&#45;&gt;node20 -->
<g id="edge42" class="edge">
<title>node12&#45;&gt;node20</title>
<path fill="none" stroke="black" d="M2453.88,-145.99C2414.16,-135.66 2363.29,-122.43 2321.85,-111.66"/>
<polygon fill="black" stroke="black" points="2322.64,-108.24 2312.08,-109.11 2320.87,-115.02 2322.64,-108.24"/>
<text text-anchor="middle" x="2331.75" y="-101.8" font-family="Times,serif" font-size="14.00">*6</text>
</g>
<!-- node11&#45;&gt;node12 -->
<g id="edge9" class="edge">
<title>node11&#45;&gt;node12</title>
<path fill="none" stroke="green" d="M2723.11,-164C2714.59,-164 2706.06,-164 2697.54,-164"/>
<polygon fill="green" stroke="green" points="2697.54,-160.5 2687.54,-164 2697.54,-167.5 2697.54,-160.5"/>
</g>
<!-- node11&#45;&gt;node20 -->
<g id="edge41" class="edge">
<title>node11&#45;&gt;node20</title>
<path fill="none" stroke="black" d="M2782.92,-149.44C2755.1,-145.53 2724.47,-141.41 2696.27,-138 2611.6,-127.76 2517.78,-117.93 2437.81,-110.01"/>
<polygon fill="black" stroke="black" points="2437.93,-106.5 2427.63,-109 2437.24,-113.47 2437.93,-106.5"/>
<text text-anchor="middle" x="2446.5" y="-98.67" font-family="Times,serif" font-size="14.00">*5</text>
</g>
<!-- node10&#45;&gt;node11 -->
<g id="edge11" class="edge">
<title>node10&#45;&gt;node11</title>
<path fill="none" stroke="green" d="M3062.28,-164C3053.96,-164 3045.65,-164 3037.34,-164"/>
<polygon fill="green" stroke="green" points="3037.2,-160.5 3027.2,-164 3037.2,-167.5 3037.2,-160.5"/>
</g>
<!-- node10&#45;&gt;node20 -->
<g id="edge40" class="edge">
<title>node10&#45;&gt;node20</title>
<path fill="none" stroke="black" d="M3132.72,-149.01C3101.89,-145 3067.71,-140.93 3036.27,-138 2897.65,-125.09 2744.98,-115.2 2611.11,-107.95"/>
<polygon fill="black" stroke="black" points="2611.27,-104.45 2601.1,-107.41 2610.89,-111.44 2611.27,-104.45"/>
<text text-anchor="middle" x="2619.65" y="-96.24" font-family="Times,serif" font-size="14.00">*4</text>
</g>
<!-- node9&#45;&gt;node10 -->
<g id="edge13" class="edge">
<title>node9&#45;&gt;node10</title>
<path fill="none" stroke="green" d="M3435.13,-164C3426.83,-164 3418.53,-164 3410.22,-164"/>
<polygon fill="green" stroke="green" points="3410.1,-160.5 3400.1,-164 3410.1,-167.5 3410.1,-160.5"/>
</g>
<!-- node9&#45;&gt;node20 -->
<g id="edge39" class="edge">
<title>node9&#45;&gt;node20</title>
<path fill="none" stroke="black" d="M3508.25,-148.86C3476.71,-144.77 3441.57,-140.68 3409.27,-138 3142.52,-115.84 2840.43,-104.3 2611,-98.32"/>
<polygon fill="black" stroke="black" points="2610.9,-94.81 2600.81,-98.05 2610.72,-101.81 2610.9,-94.81"/>
<text text-anchor="middle" x="2619.15" y="-86.37" font-family="Times,serif" font-size="14.00">*3</text>
</g>
<!-- node8&#45;&gt;node9 -->
<g id="edge15" class="edge">
<title>node8&#45;&gt;node9</title>
<path fill="none" stroke="green" d="M285.02,-181.36C327.82,-188.87 380.02,-196.79 427.27,-200.5 591.93,-213.43 3235.74,-214.96 3400.27,-200.5 3439.13,-197.08 3481.65,-190.11 3517.91,-183.16"/>
<polygon fill="green" stroke="green" points="3518.81,-186.55 3527.96,-181.21 3517.48,-179.68 3518.81,-186.55"/>
</g>
<!-- node8&#45;&gt;node20 -->
<g id="edge38" class="edge">
<title>node8&#45;&gt;node20</title>
<path fill="none" stroke="black" d="M306.76,-148.64C342.31,-144.54 381.9,-140.5 418.27,-138 924.95,-103.16 1512.24,-93.9 1881.52,-91.86"/>
<polygon fill="black" stroke="black" points="1881.58,-95.36 1891.57,-91.8 1881.55,-88.36 1881.58,-95.36"/>
<text text-anchor="middle" x="1873.49" y="-96.65" font-family="Times,serif" font-size="14.00">*2</text>
</g>
<!-- node7&#45;&gt;node8 -->
<g id="edge17" class="edge">
<title>node7&#45;&gt;node8</title>
<path fill="none" stroke="green" d="M427.66,-164C419.33,-164 411,-164 402.67,-164"/>
<polygon fill="green" stroke="green" points="402.5,-160.5 392.5,-164 402.5,-167.5 402.5,-160.5"/>
</g>
<!-- node7&#45;&gt;node20 -->
<g id="edge37" class="edge">
<title>node7&#45;&gt;node20</title>
<path fill="none" stroke="black" d="M678.44,-148.23C705.28,-144.26 734.92,-140.4 762.27,-138 1142.95,-104.54 1580.41,-94.41 1881.22,-91.81"/>
<polygon fill="black" stroke="black" points="1881.45,-95.3 1891.42,-91.72 1881.39,-88.31 1881.45,-95.3"/>
<text text-anchor="middle" x="1873.36" y="-96.63" font-family="Times,serif" font-size="14.00">*1</text>
</g>
<!-- node6&#45;&gt;node7 -->
<g id="edge19" class="edge">
<title>node6&#45;&gt;node7</title>
<path fill="none" stroke="green" d="M3863.15,-182.07C3837.23,-189.36 3806,-196.89 3777.27,-200.5 3611.58,-221.31 937.45,-217.09 771.27,-200.5 738.17,-197.2 702.17,-190.57 671.05,-183.87"/>
<polygon fill="green" stroke="green" points="671.65,-180.41 661.13,-181.69 670.15,-187.25 671.65,-180.41"/>
</g>
<!-- node17 -->
<g id="node13" class="node">
<title>node17</title>
<polygon fill="lightgrey" stroke="black" points="4286.27,-255 4158.27,-255 4158.27,-219 4286.27,-219 4286.27,-255"/>
<text text-anchor="middle" x="4222.27" y="-233.3" font-family="Times,serif" font-size="14.00">#17 LabelNode</text>
</g>
<!-- node6&#45;&gt;node17 -->
<g id="edge23" class="edge">
<title>node6&#45;&gt;node17</title>
<path fill="none" stroke="red" d="M3992.71,-182.03C4039.78,-193.1 4100.97,-207.48 4148.34,-218.62"/>
<polygon fill="red" stroke="red" points="4147.69,-222.06 4158.23,-220.94 4149.29,-215.25 4147.69,-222.06"/>
</g>
<!-- node18 -->
<g id="node14" class="node">
<title>node18</title>
<polygon fill="lightgreen" stroke="black" points="4381.25,-156.54 4381.25,-171.46 4288.13,-182 4156.42,-182 4063.3,-171.46 4063.3,-156.54 4156.42,-146 4288.13,-146 4381.25,-156.54"/>
<text text-anchor="middle" x="4222.27" y="-160.3" font-family="Times,serif" font-size="14.00">#18 Class MethodInvokeTest</text>
</g>
<!-- node17&#45;&gt;node18 -->
<g id="edge24" class="edge">
<title>node17&#45;&gt;node18</title>
<path fill="none" stroke="black" stroke-dasharray="1,5" d="M4222.27,-218.81C4222.27,-210.79 4222.27,-201.05 4222.27,-192.07"/>
<polygon fill="black" stroke="black" points="4225.77,-192.03 4222.27,-182.03 4218.77,-192.03 4225.77,-192.03"/>
</g>
<!-- node19 -->
<g id="node15" class="node">
<title>node19</title>
<polygon fill="lightgrey" stroke="black" points="4530.27,-182 4416.27,-182 4416.27,-146 4530.27,-146 4530.27,-182"/>
<text text-anchor="middle" x="4473.27" y="-160.3" font-family="Times,serif" font-size="14.00">#19 ClassInit</text>
</g>
<!-- node17&#45;&gt;node19 -->
<g id="edge27" class="edge">
<title>node17&#45;&gt;node19</title>
<path fill="none" stroke="red" d="M4282.4,-218.99C4319.67,-208.45 4367.63,-194.88 4406.14,-183.99"/>
<polygon fill="red" stroke="red" points="4407.56,-187.23 4416.23,-181.14 4405.66,-180.49 4407.56,-187.23"/>
</g>
<!-- node18&#45;&gt;node19 -->
<g id="edge25" class="edge">
<title>node18&#45;&gt;node19</title>
<path fill="none" stroke="black" d="M4381.6,-164C4389.66,-164 4397.72,-164 4405.77,-164"/>
<polygon fill="black" stroke="black" points="4405.98,-167.5 4415.98,-164 4405.98,-160.5 4405.98,-167.5"/>
<text text-anchor="middle" x="4397.85" y="-168.75" font-family="Times,serif" font-size="14.00">*0</text>
</g>
<!-- node19&#45;&gt;node20 -->
<g id="edge36" class="edge">
<title>node19&#45;&gt;node20</title>
<path fill="none" stroke="black" d="M4415.95,-148.03C4402.53,-144 4388.49,-140.16 4375.27,-138 4206.28,-110.36 3174.13,-98.7 2611.37,-94.32"/>
<polygon fill="black" stroke="black" points="2611.08,-90.82 2601.05,-94.24 2611.03,-97.82 2611.08,-90.82"/>
<text text-anchor="middle" x="2619.24" y="-82.23" font-family="Times,serif" font-size="14.00">*0</text>
</g>
<!-- node19&#45;&gt;node20 -->
<g id="edge47" class="edge">
<title>node19&#45;&gt;node20</title>
<path fill="none" stroke="green" d="M4426.43,-145.95C4415.67,-142.71 4404.19,-139.79 4393.27,-138 4223.14,-110.17 3178.13,-98.54 2611.23,-94.23"/>
<polygon fill="green" stroke="green" points="2610.86,-90.73 2600.84,-94.15 2610.81,-97.73 2610.86,-90.73"/>
</g>
<!-- node19&#45;&gt;node20 -->
<g id="edge48" class="edge">
<title>node19&#45;&gt;node20</title>
<path fill="none" stroke="red" d="M4443.96,-145.95C4433.67,-142.71 4422.19,-139.79 4411.27,-138 4240.01,-109.98 3182.23,-98.39 2611.09,-94.15"/>
<polygon fill="red" stroke="red" points="2611.07,-90.65 2601.05,-94.07 2611.02,-97.65 2611.07,-90.65"/>
</g>
<!-- node16&#45;&gt;node19 -->
<g id="edge26" class="edge">
<title>node16&#45;&gt;node19</title>
<path fill="none" stroke="green" d="M1022.36,-181.21C1061.02,-188.77 1108.36,-196.76 1151.27,-200.5 1240.74,-208.29 4296.16,-217.87 4384.27,-200.5 4399.32,-197.54 4415.02,-192 4428.97,-186.12"/>
<polygon fill="green" stroke="green" points="4430.57,-189.25 4438.32,-182.03 4427.76,-182.84 4430.57,-189.25"/>
</g>
<!-- node16&#45;&gt;node20 -->
<g id="edge46" class="edge">
<title>node16&#45;&gt;node20</title>
<path fill="none" stroke="black" d="M1042.56,-148.88C1074.35,-144.8 1109.74,-140.72 1142.27,-138 1388.32,-117.45 1666.02,-105.94 1881.35,-99.57"/>
<polygon fill="black" stroke="black" points="1881.66,-103.06 1891.56,-99.27 1881.46,-96.07 1881.66,-103.06"/>
<text text-anchor="middle" x="1873.69" y="-104.55" font-family="Times,serif" font-size="14.00">*10</text>
</g>
<!-- node15&#45;&gt;node16 -->
<g id="edge29" class="edge">
<title>node15&#45;&gt;node16</title>
<path fill="none" stroke="green" d="M1150.71,-164C1142.4,-164 1134.09,-164 1125.78,-164"/>
<polygon fill="green" stroke="green" points="1125.65,-160.5 1115.65,-164 1125.65,-167.5 1125.65,-160.5"/>
</g>
<!-- node15&#45;&gt;node20 -->
<g id="edge45" class="edge">
<title>node15&#45;&gt;node20</title>
<path fill="none" stroke="black" d="M1446.62,-149.09C1479.87,-145.15 1516.53,-141.09 1550.27,-138 1673.31,-126.72 1808.82,-117.13 1927.33,-109.66"/>
<polygon fill="black" stroke="black" points="1927.89,-113.14 1937.65,-109.02 1927.45,-106.15 1927.89,-113.14"/>
<text text-anchor="middle" x="1920.09" y="-114.89" font-family="Times,serif" font-size="14.00">*9</text>
</g>
<!-- node14&#45;&gt;node15 -->
<g id="edge31" class="edge">
<title>node14&#45;&gt;node15</title>
<path fill="none" stroke="green" d="M1559.22,-164C1550.7,-164 1542.18,-164 1533.66,-164"/>
<polygon fill="green" stroke="green" points="1533.66,-160.5 1523.66,-164 1533.66,-167.5 1533.66,-160.5"/>
</g>
<!-- node14&#45;&gt;node20 -->
<g id="edge44" class="edge">
<title>node14&#45;&gt;node20</title>
<path fill="none" stroke="black" d="M1854.44,-148.2C1930.87,-137.24 2035.53,-122.23 2117.46,-110.48"/>
<polygon fill="black" stroke="black" points="2118.18,-113.91 2127.59,-109.02 2117.19,-106.98 2118.18,-113.91"/>
<text text-anchor="middle" x="2110.84" y="-116.26" font-family="Times,serif" font-size="14.00">*8</text>
</g>
<!-- node13&#45;&gt;node14 -->
<g id="edge33" class="edge">
<title>node13&#45;&gt;node14</title>
<path fill="none" stroke="green" d="M1978.5,-164C1970.2,-164 1961.9,-164 1953.6,-164"/>
<polygon fill="green" stroke="green" points="1953.47,-160.5 1943.47,-164 1953.47,-167.5 1953.47,-160.5"/>
</g>
<!-- node13&#45;&gt;node20 -->
<g id="edge43" class="edge">
<title>node13&#45;&gt;node20</title>
<path fill="none" stroke="black" d="M2170.99,-145.99C2183.87,-136.75 2199.99,-125.19 2214.01,-115.14"/>
<polygon fill="black" stroke="black" points="2216.33,-117.79 2222.41,-109.11 2212.25,-112.1 2216.33,-117.79"/>
<text text-anchor="middle" x="2212.61" y="-122.85" font-family="Times,serif" font-size="14.00">*7</text>
</g>
<!-- node21 -->
<g id="node21" class="node">
<title>node21</title>
<polygon fill="lightgrey" stroke="black" points="2296.77,-36 2195.77,-36 2195.77,0 2296.77,0 2296.77,-36"/>
<text text-anchor="middle" x="2246.27" y="-14.3" font-family="Times,serif" font-size="14.00">#21 Return</text>
</g>
<!-- node20&#45;&gt;node21 -->
<g id="edge49" class="edge">
<title>node20&#45;&gt;node21</title>
<path fill="none" stroke="red" d="M2240.4,-72.81C2239.56,-64.79 2239.32,-55.05 2239.7,-46.07"/>
<polygon fill="red" stroke="red" points="2243.19,-46.25 2240.41,-36.03 2236.21,-45.75 2243.19,-46.25"/>
</g>
<!-- node20&#45;&gt;node21 -->
<g id="edge50" class="edge">
<title>node20&#45;&gt;node21</title>
<path fill="none" stroke="green" d="M2252.15,-72.81C2252.99,-64.79 2253.23,-55.05 2252.85,-46.07"/>
<polygon fill="green" stroke="green" points="2256.34,-45.75 2252.14,-36.03 2249.36,-46.25 2256.34,-45.75"/>
</g>
<!-- c0 -->
<!-- c1 -->
<!-- c0&#45;&gt;c1 -->
<g id="edge51" class="edge">
<title>c0&#45;&gt;c1</title>
<path fill="none" stroke="red" d="M4528.17,-538C4539.38,-538 4597.52,-538 4623.13,-538"/>
<polygon fill="red" stroke="red" points="4623.33,-541.5 4633.33,-538 4623.33,-534.5 4623.33,-541.5"/>
<text text-anchor="middle" x="4580.77" y="-544.8" font-family="Times,serif" font-size="14.00">Control flow</text>
</g>
<!-- c2 -->
<!-- c3 -->
<!-- c2&#45;&gt;c3 -->
<g id="edge52" class="edge">
<title>c2&#45;&gt;c3</title>
<path fill="none" stroke="red" stroke-dasharray="5,2" d="M4321.35,-538C4338.32,-538 4454.48,-538 4492.36,-538"/>
<polygon fill="red" stroke="red" points="4492.44,-541.5 4502.44,-538 4492.44,-534.5 4492.44,-541.5"/>
<text text-anchor="middle" x="4411.77" y="-544.8" font-family="Times,serif" font-size="14.00">Control flow back edge</text>
</g>
<!-- d0 -->
<!-- d1 -->
<!-- d0&#45;&gt;d1 -->
<g id="edge53" class="edge">
<title>d0&#45;&gt;d1</title>
<path fill="none" stroke="black" d="M4210.13,-538C4219.68,-538 4263.58,-538 4285.19,-538"/>
<polygon fill="black" stroke="black" points="4285.43,-541.5 4295.43,-538 4285.43,-534.5 4285.43,-541.5"/>
<text text-anchor="middle" x="4252.77" y="-544.8" font-family="Times,serif" font-size="14.00">Data flow</text>
</g>
<!-- d2 -->
<!-- d3 -->
<!-- d2&#45;&gt;d3 -->
<g id="edge54" class="edge">
<title>d2&#45;&gt;d3</title>
<path fill="none" stroke="black" stroke-dasharray="1,5" d="M4084.08,-538C4094.73,-538 4149.74,-538 4174.35,-538"/>
<polygon fill="black" stroke="black" points="4174.42,-541.5 4184.42,-538 4174.42,-534.5 4174.42,-541.5"/>
<text text-anchor="middle" x="4134.27" y="-544.8" font-family="Times,serif" font-size="14.00">Declaration</text>
</g>
<!-- d4 -->
<!-- d5 -->
<!-- d4&#45;&gt;d5 -->
<g id="edge55" class="edge">
<title>d4&#45;&gt;d5</title>
<path fill="none" stroke="blue" d="M3941.37,-538C3954,-538 4020.16,-538 4047.95,-538"/>
<polygon fill="blue" stroke="blue" points="4048.12,-541.5 4058.12,-538 4048.12,-534.5 4048.12,-541.5"/>
<text text-anchor="middle" x="3999.77" y="-544.8" font-family="Times,serif" font-size="14.00">PHI Data flow</text>
</g>
<!-- d6 -->
<!-- d7 -->
<!-- d6&#45;&gt;d7 -->
<g id="edge56" class="edge">
<title>d6&#45;&gt;d7</title>
<path fill="none" stroke="green" d="M3804.27,-538C3816.21,-538 3878.57,-538 3905.2,-538"/>
<polygon fill="green" stroke="green" points="3905.22,-541.5 3915.22,-538 3905.22,-534.5 3905.22,-541.5"/>
<text text-anchor="middle" x="3859.77" y="-544.8" font-family="Times,serif" font-size="14.00">Memory flow</text>
</g>
</g>
</svg>
