<?xml version="1.0" encoding="UTF-8" standalone="no"?>
<!DOCTYPE svg PUBLIC "-//W3C//DTD SVG 1.1//EN"
 "http://www.w3.org/Graphics/SVG/1.1/DTD/svg11.dtd">
<!-- Generated by graphviz version 2.43.0 (0)
 -->
<!-- Title: %3 Pages: 1 -->
<svg width="4227pt" height="662pt"
 viewBox="0.00 0.00 4226.84 662.00" xmlns="http://www.w3.org/2000/svg" xmlns:xlink="http://www.w3.org/1999/xlink">
<g id="graph0" class="graph" transform="scale(1 1) rotate(0) translate(4 658)">
<title>%3</title>
<polygon fill="white" stroke="transparent" points="-4,4 -4,-658 4222.84,-658 4222.84,4 -4,4"/>
<g id="clust1" class="cluster">
<title>cluster_0</title>
<polygon fill="none" stroke="lightgray" points="8,-503 8,-646 734,-646 734,-503 8,-503"/>
</g>
<g id="clust2" class="cluster">
<title>cluster_000</title>
<polygon fill="none" stroke="black" points="742,-601.2 742,-643.8 1595,-643.8 1595,-601.2 742,-601.2"/>
<text text-anchor="middle" x="1168.5" y="-628.6" font-family="Times,serif" font-size="14.00">Legend</text>
</g>
<!-- node0 -->
<g id="node1" class="node">
<title>node0</title>
<polygon fill="lightgrey" stroke="transparent" points="625.5,-638 440.5,-638 440.5,-584 625.5,-584 625.5,-638"/>
<polygon fill="none" stroke="black" points="441,-611 441,-638 626,-638 626,-611 441,-611"/>
<text text-anchor="start" x="493" y="-620.8" font-family="Times,serif" font-size="14.00">#0 Method</text>
<polygon fill="yellow" stroke="transparent" points="441,-584 441,-611 626,-611 626,-584 441,-584"/>
<polygon fill="none" stroke="black" points="441,-584 441,-611 626,-611 626,-584 441,-584"/>
<text text-anchor="start" x="447" y="-593.8" font-family="Times,serif" font-size="14.00">this : MethodInvokeTest</text>
</g>
<!-- node5 -->
<g id="node2" class="node">
<title>node5</title>
<polygon fill="lightgreen" stroke="black" points="321.82,-521.54 321.82,-536.46 232.3,-547 105.7,-547 16.18,-536.46 16.18,-521.54 105.7,-511 232.3,-511 321.82,-521.54"/>
<text text-anchor="middle" x="169" y="-525.3" font-family="Times,serif" font-size="14.00">#5 Class MethodInvokeTest</text>
</g>
<!-- node0&#45;&gt;node5 -->
<g id="edge1" class="edge">
<title>node0&#45;&gt;node5</title>
<path fill="none" stroke="black" stroke-dasharray="1,5" d="M440.21,-589.61C381.99,-576.81 307.59,-560.46 251.44,-548.12"/>
<polygon fill="black" stroke="black" points="252.05,-544.67 241.54,-545.94 250.55,-551.51 252.05,-544.67"/>
</g>
<!-- node4 -->
<g id="node8" class="node">
<title>node4</title>
<polygon fill="lightgrey" stroke="black" points="835.5,-474 730.5,-474 730.5,-438 835.5,-438 835.5,-474"/>
<text text-anchor="middle" x="783" y="-452.3" font-family="Times,serif" font-size="14.00">#4 ClassInit</text>
</g>
<!-- node0&#45;&gt;node4 -->
<g id="edge13" class="edge">
<title>node0&#45;&gt;node4</title>
<path fill="none" stroke="green" d="M625.55,-588.39C670.09,-576.58 717.56,-561.44 735,-547 754.84,-530.58 767.63,-503.77 774.97,-483.67"/>
<polygon fill="green" stroke="green" points="778.31,-484.74 778.24,-474.15 771.69,-482.47 778.31,-484.74"/>
</g>
<!-- node3 -->
<g id="node9" class="node">
<title>node3</title>
<polygon fill="lightgreen" stroke="black" points="726.42,-521.54 726.42,-536.46 613.12,-547 452.88,-547 339.58,-536.46 339.58,-521.54 452.88,-511 613.12,-511 726.42,-521.54"/>
<text text-anchor="middle" x="533" y="-525.3" font-family="Times,serif" font-size="14.00">#3 Class MethodInvokeTest$Source</text>
</g>
<!-- node0&#45;&gt;node3 -->
<g id="edge15" class="edge">
<title>node0&#45;&gt;node3</title>
<path fill="none" stroke="black" stroke-dasharray="1,5" d="M533,-583.81C533,-575.35 533,-565.95 533,-557.4"/>
<polygon fill="black" stroke="black" points="536.5,-557.17 533,-547.17 529.5,-557.17 536.5,-557.17"/>
</g>
<!-- node2 -->
<g id="node10" class="node">
<title>node2</title>
<polygon fill="lightgrey" stroke="black" points="901.5,-547 782.5,-547 782.5,-511 901.5,-511 901.5,-547"/>
<text text-anchor="middle" x="842" y="-525.3" font-family="Times,serif" font-size="14.00">#2 LabelNode</text>
</g>
<!-- node0&#45;&gt;node2 -->
<g id="edge14" class="edge">
<title>node0&#45;&gt;node2</title>
<path fill="none" stroke="red" d="M625.71,-586C672.88,-573.79 729.25,-559.19 772.61,-547.97"/>
<polygon fill="red" stroke="red" points="773.69,-551.3 782.5,-545.41 771.94,-544.52 773.69,-551.3"/>
</g>
<!-- node19 -->
<g id="node3" class="node">
<title>node19</title>
<polygon fill="lightgrey" stroke="black" points="1244,-182 1130,-182 1130,-146 1244,-146 1244,-182"/>
<text text-anchor="middle" x="1187" y="-160.3" font-family="Times,serif" font-size="14.00">#19 ClassInit</text>
</g>
<!-- node5&#45;&gt;node19 -->
<g id="edge2" class="edge">
<title>node5&#45;&gt;node19</title>
<path fill="none" stroke="black" d="M169,-510.78C169,-496.41 169,-475.37 169,-457 169,-457 169,-457 169,-236 169,-188.21 892.44,-170.54 1119.6,-166.17"/>
<polygon fill="black" stroke="black" points="1119.79,-169.66 1129.72,-165.97 1119.65,-162.67 1119.79,-169.66"/>
<text text-anchor="middle" x="1111.76" y="-171.07" font-family="Times,serif" font-size="14.00">*0</text>
</g>
<!-- node20 -->
<g id="node16" class="node">
<title>node20</title>
<polygon fill="lightgrey" stroke="black" points="2315.5,-109 1606.5,-109 1606.5,-73 2315.5,-73 2315.5,-109"/>
<text text-anchor="middle" x="1961" y="-87.3" font-family="Times,serif" font-size="14.00">#20 Invoke static simple_method : (byte,boolean,short,char,int,long,float,double,String,int[])void</text>
</g>
<!-- node19&#45;&gt;node20 -->
<g id="edge26" class="edge">
<title>node19&#45;&gt;node20</title>
<path fill="none" stroke="black" d="M1204.83,-145.84C1219.17,-138.69 1238.63,-131.1 1257,-127 1321.65,-112.57 1459.38,-104.07 1596.06,-99.07"/>
<polygon fill="black" stroke="black" points="1596.45,-102.56 1606.31,-98.71 1596.19,-95.57 1596.45,-102.56"/>
<text text-anchor="middle" x="1588.5" y="-104.1" font-family="Times,serif" font-size="14.00">*0</text>
</g>
<!-- node19&#45;&gt;node20 -->
<g id="edge37" class="edge">
<title>node19&#45;&gt;node20</title>
<path fill="none" stroke="green" d="M1221.24,-145.84C1237.17,-138.69 1256.63,-131.1 1275,-127 1337.03,-113.15 1466.35,-104.77 1596.16,-99.7"/>
<polygon fill="green" stroke="green" points="1596.45,-103.19 1606.3,-99.31 1596.18,-96.19 1596.45,-103.19"/>
</g>
<!-- node19&#45;&gt;node20 -->
<g id="edge38" class="edge">
<title>node19&#45;&gt;node20</title>
<path fill="none" stroke="red" d="M1237.65,-145.84C1255.17,-138.69 1274.63,-131.1 1293,-127 1352.29,-113.76 1473.05,-105.52 1595.82,-100.39"/>
<polygon fill="red" stroke="red" points="1596.33,-103.87 1606.18,-99.96 1596.04,-96.88 1596.33,-103.87"/>
</g>
<!-- node17 -->
<g id="node4" class="node">
<title>node17</title>
<polygon fill="orange" stroke="black" points="3524.21,-302.54 3524.21,-317.46 3423.33,-328 3280.67,-328 3179.79,-317.46 3179.79,-302.54 3280.67,-292 3423.33,-292 3524.21,-302.54"/>
<text text-anchor="middle" x="3352" y="-306.3" font-family="Times,serif" font-size="14.00">#17 GetField : array_field : int[]</text>
</g>
<!-- node17&#45;&gt;node19 -->
<g id="edge3" class="edge">
<title>node17&#45;&gt;node19</title>
<path fill="none" stroke="green" d="M3230.01,-297.27C3204.58,-295.19 3177.93,-293.28 3153,-292 2224.75,-244.19 1990.79,-290.85 1062,-255 860.24,-247.21 293.47,-347.96 155,-201 121.67,-165.62 885.65,-164.35 1119.8,-164.79"/>
<polygon fill="green" stroke="green" points="1119.88,-168.29 1129.89,-164.81 1119.89,-161.29 1119.88,-168.29"/>
</g>
<!-- node17&#45;&gt;node20 -->
<g id="edge36" class="edge">
<title>node17&#45;&gt;node20</title>
<path fill="none" stroke="black" d="M3258.03,-294.34C3012.51,-256.04 2352.11,-153.01 2080.34,-110.62"/>
<polygon fill="black" stroke="black" points="2080.86,-107.16 2070.44,-109.07 2079.79,-114.07 2080.86,-107.16"/>
<text text-anchor="middle" x="2089.66" y="-99.82" font-family="Times,serif" font-size="14.00">*10</text>
</g>
<!-- node18 -->
<g id="node5" class="node">
<title>node18</title>
<polygon fill="lightgrey" stroke="black" points="1199,-255 1071,-255 1071,-219 1199,-219 1199,-255"/>
<text text-anchor="middle" x="1135" y="-233.3" font-family="Times,serif" font-size="14.00">#18 LabelNode</text>
</g>
<!-- node18&#45;&gt;node19 -->
<g id="edge4" class="edge">
<title>node18&#45;&gt;node19</title>
<path fill="none" stroke="red" d="M1147.59,-218.81C1153.85,-210.27 1161.54,-199.77 1168.45,-190.32"/>
<polygon fill="red" stroke="red" points="1171.44,-192.16 1174.53,-182.03 1165.8,-188.03 1171.44,-192.16"/>
</g>
<!-- node7 -->
<g id="node6" class="node">
<title>node7</title>
<polygon fill="lightgrey" stroke="black" points="819,-328 569,-328 569,-292 819,-292 819,-328"/>
<text text-anchor="middle" x="694" y="-306.3" font-family="Times,serif" font-size="14.00">#7 Invoke special &lt;init&gt; : ()void</text>
</g>
<!-- node7&#45;&gt;node18 -->
<g id="edge5" class="edge">
<title>node7&#45;&gt;node18</title>
<path fill="none" stroke="red" d="M799.63,-291.99C880.14,-279.03 989,-261.51 1060.56,-249.98"/>
<polygon fill="red" stroke="red" points="1061.52,-253.37 1070.84,-248.33 1060.41,-246.46 1061.52,-253.37"/>
</g>
<!-- node8 -->
<g id="node15" class="node">
<title>node8</title>
<polygon fill="orange" stroke="black" points="1589.51,-302.54 1589.51,-317.46 1494.32,-328 1359.68,-328 1264.49,-317.46 1264.49,-302.54 1359.68,-292 1494.32,-292 1589.51,-302.54"/>
<text text-anchor="middle" x="1427" y="-306.3" font-family="Times,serif" font-size="14.00">#8 GetField : byte_field : byte</text>
</g>
<!-- node7&#45;&gt;node8 -->
<g id="edge25" class="edge">
<title>node7&#45;&gt;node8</title>
<path fill="none" stroke="green" d="M751.12,-328.07C777.04,-335.36 808.27,-342.89 837,-346.5 1009.86,-368.21 1055.5,-362.36 1229,-346.5 1266.23,-343.1 1306.9,-336.17 1341.65,-329.25"/>
<polygon fill="green" stroke="green" points="1342.65,-332.62 1351.76,-327.21 1341.26,-325.76 1342.65,-332.62"/>
</g>
<!-- node6 -->
<g id="node7" class="node">
<title>node6</title>
<polygon fill="orange" stroke="black" points="2014.12,-375.54 2014.12,-390.46 1983.59,-401 1940.41,-401 1909.88,-390.46 1909.88,-375.54 1940.41,-365 1983.59,-365 2014.12,-375.54"/>
<text text-anchor="middle" x="1962" y="-379.3" font-family="Times,serif" font-size="14.00">#6 New</text>
</g>
<!-- node6&#45;&gt;node17 -->
<g id="edge39" class="edge">
<title>node6&#45;&gt;node17</title>
<path fill="none" stroke="black" d="M2014.28,-380.37C2180.71,-375.04 2713.06,-356.75 3153,-328 3173.69,-326.65 3195.56,-325 3216.94,-323.27"/>
<polygon fill="black" stroke="black" points="3217.38,-326.75 3227.06,-322.44 3216.81,-319.77 3217.38,-326.75"/>
<text text-anchor="middle" x="3209.68" y="-328.64" font-family="Times,serif" font-size="14.00">*0</text>
</g>
<!-- node6&#45;&gt;node7 -->
<g id="edge6" class="edge">
<title>node6&#45;&gt;node7</title>
<path fill="none" stroke="black" d="M1909.78,-381.05C1748.83,-377.73 1246.64,-364.75 828.81,-328.85"/>
<polygon fill="black" stroke="black" points="828.91,-325.34 818.65,-327.97 828.31,-332.32 828.91,-325.34"/>
<text text-anchor="middle" x="837.44" y="-317.41" font-family="Times,serif" font-size="14.00">*0</text>
</g>
<!-- node6&#45;&gt;node7 -->
<g id="edge8" class="edge">
<title>node6&#45;&gt;node7</title>
<path fill="none" stroke="green" d="M1909.86,-380.89C1749.46,-377.28 1249.84,-363.96 837,-328 834.44,-327.78 831.86,-327.54 829.26,-327.3"/>
<polygon fill="green" stroke="green" points="829.44,-323.8 819.14,-326.3 828.75,-330.76 829.44,-323.8"/>
</g>
<!-- node12 -->
<g id="node11" class="node">
<title>node12</title>
<polygon fill="orange" stroke="black" points="3845.91,-302.54 3845.91,-317.46 3756.92,-328 3631.08,-328 3542.09,-317.46 3542.09,-302.54 3631.08,-292 3756.92,-292 3845.91,-302.54"/>
<text text-anchor="middle" x="3694" y="-306.3" font-family="Times,serif" font-size="14.00">#12 GetField : int_field : int</text>
</g>
<!-- node6&#45;&gt;node12 -->
<g id="edge16" class="edge">
<title>node6&#45;&gt;node12</title>
<path fill="none" stroke="black" d="M2014.28,-381.55C2212.62,-379.54 2937.48,-369.62 3533,-328 3547.95,-326.96 3563.66,-325.61 3579.16,-324.13"/>
<polygon fill="black" stroke="black" points="3579.69,-327.59 3589.3,-323.14 3579.01,-320.63 3579.69,-327.59"/>
<text text-anchor="middle" x="3572.08" y="-329.61" font-family="Times,serif" font-size="14.00">*0</text>
</g>
<!-- node11 -->
<g id="node12" class="node">
<title>node11</title>
<polygon fill="orange" stroke="black" points="4218.68,-302.54 4218.68,-317.46 4119.87,-328 3980.13,-328 3881.32,-317.46 3881.32,-302.54 3980.13,-292 4119.87,-292 4218.68,-302.54"/>
<text text-anchor="middle" x="4050" y="-306.3" font-family="Times,serif" font-size="14.00">#11 GetField : char_field : char</text>
</g>
<!-- node6&#45;&gt;node11 -->
<g id="edge18" class="edge">
<title>node6&#45;&gt;node11</title>
<path fill="none" stroke="black" d="M2014.37,-381.68C2236.9,-380.07 3125.97,-371.12 3855,-328 3875.72,-326.77 3897.65,-325.17 3919.04,-323.43"/>
<polygon fill="black" stroke="black" points="3919.47,-326.9 3929.15,-322.59 3918.9,-319.93 3919.47,-326.9"/>
<text text-anchor="middle" x="3911.78" y="-328.81" font-family="Times,serif" font-size="14.00">*0</text>
</g>
<!-- node10 -->
<g id="node13" class="node">
<title>node10</title>
<polygon fill="orange" stroke="black" points="551.06,-302.54 551.06,-317.46 447.34,-328 300.66,-328 196.94,-317.46 196.94,-302.54 300.66,-292 447.34,-292 551.06,-302.54"/>
<text text-anchor="middle" x="374" y="-306.3" font-family="Times,serif" font-size="14.00">#10 GetField : short_field : short</text>
</g>
<!-- node6&#45;&gt;node10 -->
<g id="edge20" class="edge">
<title>node6&#45;&gt;node10</title>
<path fill="none" stroke="black" d="M1909.75,-380.98C1725.13,-377.16 1086.25,-362.16 560,-328 542.53,-326.87 524.15,-325.45 506.03,-323.93"/>
<polygon fill="black" stroke="black" points="506.25,-320.44 495.99,-323.08 505.66,-327.41 506.25,-320.44"/>
<text text-anchor="middle" x="514.77" y="-312.49" font-family="Times,serif" font-size="14.00">*0</text>
</g>
<!-- node9 -->
<g id="node14" class="node">
<title>node9</title>
<polygon fill="orange" stroke="black" points="1229.05,-302.54 1229.05,-317.46 1114.21,-328 951.79,-328 836.95,-317.46 836.95,-302.54 951.79,-292 1114.21,-292 1229.05,-302.54"/>
<text text-anchor="middle" x="1033" y="-306.3" font-family="Times,serif" font-size="14.00">#9 GetField : boolean_field : boolean</text>
</g>
<!-- node6&#45;&gt;node9 -->
<g id="edge22" class="edge">
<title>node6&#45;&gt;node9</title>
<path fill="none" stroke="black" d="M1909.67,-378.01C1792.45,-369.06 1499.87,-346.73 1255,-328 1233.53,-326.36 1210.88,-324.62 1188.6,-322.92"/>
<polygon fill="black" stroke="black" points="1188.63,-319.41 1178.39,-322.14 1188.09,-326.39 1188.63,-319.41"/>
<text text-anchor="middle" x="1197.11" y="-311.39" font-family="Times,serif" font-size="14.00">*0</text>
</g>
<!-- node6&#45;&gt;node8 -->
<g id="edge24" class="edge">
<title>node6&#45;&gt;node8</title>
<path fill="none" stroke="black" d="M1910.7,-375.19C1825.27,-363.85 1651.98,-340.86 1537.7,-325.69"/>
<polygon fill="black" stroke="black" points="1537.89,-322.19 1527.51,-324.34 1536.97,-329.12 1537.89,-322.19"/>
<text text-anchor="middle" x="1546.59" y="-314.64" font-family="Times,serif" font-size="14.00">*0</text>
</g>
<!-- node13 -->
<g id="node17" class="node">
<title>node13</title>
<polygon fill="orange" stroke="black" points="1944.27,-302.54 1944.27,-317.46 1845.7,-328 1706.3,-328 1607.73,-317.46 1607.73,-302.54 1706.3,-292 1845.7,-292 1944.27,-302.54"/>
<text text-anchor="middle" x="1776" y="-306.3" font-family="Times,serif" font-size="14.00">#13 GetField : long_field : long</text>
</g>
<!-- node6&#45;&gt;node13 -->
<g id="edge47" class="edge">
<title>node6&#45;&gt;node13</title>
<path fill="none" stroke="black" d="M1928.32,-369.14C1900.99,-358.71 1861.95,-343.81 1830.23,-331.7"/>
<polygon fill="black" stroke="black" points="1831.23,-328.34 1820.64,-328.04 1828.73,-334.88 1831.23,-328.34"/>
<text text-anchor="middle" x="1840.59" y="-322.91" font-family="Times,serif" font-size="14.00">*0</text>
</g>
<!-- node14 -->
<g id="node18" class="node">
<title>node14</title>
<polygon fill="orange" stroke="black" points="2316.68,-302.54 2316.68,-317.46 2217.87,-328 2078.13,-328 1979.32,-317.46 1979.32,-302.54 2078.13,-292 2217.87,-292 2316.68,-302.54"/>
<text text-anchor="middle" x="2148" y="-306.3" font-family="Times,serif" font-size="14.00">#14 GetField : float_field : float</text>
</g>
<!-- node6&#45;&gt;node14 -->
<g id="edge45" class="edge">
<title>node6&#45;&gt;node14</title>
<path fill="none" stroke="black" d="M1995.68,-369.14C2023.01,-358.71 2062.05,-343.81 2093.77,-331.7"/>
<polygon fill="black" stroke="black" points="2095.27,-334.88 2103.36,-328.04 2092.77,-328.34 2095.27,-334.88"/>
<text text-anchor="middle" x="2089.44" y="-338.7" font-family="Times,serif" font-size="14.00">*0</text>
</g>
<!-- node15 -->
<g id="node19" class="node">
<title>node15</title>
<polygon fill="orange" stroke="black" points="2736.11,-302.54 2736.11,-317.46 2623.57,-328 2464.43,-328 2351.89,-317.46 2351.89,-302.54 2464.43,-292 2623.57,-292 2736.11,-302.54"/>
<text text-anchor="middle" x="2544" y="-306.3" font-family="Times,serif" font-size="14.00">#15 GetField : double_field : double</text>
</g>
<!-- node6&#45;&gt;node15 -->
<g id="edge43" class="edge">
<title>node6&#45;&gt;node15</title>
<path fill="none" stroke="black" d="M2014.16,-375.64C2104.96,-364.56 2294.39,-341.45 2420.39,-326.08"/>
<polygon fill="black" stroke="black" points="2420.98,-329.53 2430.48,-324.85 2420.13,-322.59 2420.98,-329.53"/>
<text text-anchor="middle" x="2413.51" y="-331.73" font-family="Times,serif" font-size="14.00">*0</text>
</g>
<!-- node16 -->
<g id="node20" class="node">
<title>node16</title>
<polygon fill="orange" stroke="black" points="3144.35,-302.54 3144.35,-317.46 3035.19,-328 2880.81,-328 2771.65,-317.46 2771.65,-302.54 2880.81,-292 3035.19,-292 3144.35,-302.54"/>
<text text-anchor="middle" x="2958" y="-306.3" font-family="Times,serif" font-size="14.00">#16 GetField : string_field : String</text>
</g>
<!-- node6&#45;&gt;node16 -->
<g id="edge41" class="edge">
<title>node6&#45;&gt;node16</title>
<path fill="none" stroke="black" d="M2014.24,-378.59C2140.06,-370.34 2469.83,-348.47 2745,-328 2766.17,-326.42 2788.53,-324.7 2810.47,-322.98"/>
<polygon fill="black" stroke="black" points="2810.83,-326.47 2820.52,-322.19 2810.28,-319.49 2810.83,-326.47"/>
<text text-anchor="middle" x="2803.11" y="-328.34" font-family="Times,serif" font-size="14.00">*0</text>
</g>
<!-- node4&#45;&gt;node7 -->
<g id="edge7" class="edge">
<title>node4&#45;&gt;node7</title>
<path fill="none" stroke="red" d="M772.44,-437.92C756.98,-412.91 728.08,-366.14 710,-336.89"/>
<polygon fill="red" stroke="red" points="712.78,-334.73 704.55,-328.06 706.83,-338.41 712.78,-334.73"/>
</g>
<!-- node4&#45;&gt;node6 -->
<g id="edge9" class="edge">
<title>node4&#45;&gt;node6</title>
<path fill="none" stroke="black" d="M835.6,-451.65C1027.9,-439.77 1691.9,-399.79 1899.51,-387.57"/>
<polygon fill="black" stroke="black" points="1899.85,-391.06 1909.63,-386.98 1899.44,-384.07 1899.85,-391.06"/>
<text text-anchor="middle" x="1892.03" y="-392.78" font-family="Times,serif" font-size="14.00">*0</text>
</g>
<!-- node4&#45;&gt;node6 -->
<g id="edge10" class="edge">
<title>node4&#45;&gt;node6</title>
<path fill="none" stroke="green" d="M835.84,-451.99C1028.51,-440.69 1692.32,-400.72 1899.66,-387.95"/>
<polygon fill="green" stroke="green" points="1900,-391.44 1909.77,-387.33 1899.57,-384.45 1900,-391.44"/>
</g>
<!-- node3&#45;&gt;node4 -->
<g id="edge11" class="edge">
<title>node3&#45;&gt;node4</title>
<path fill="none" stroke="black" d="M592.88,-510.99C631.5,-500.03 681.62,-485.79 720.71,-474.69"/>
<polygon fill="black" stroke="black" points="721.73,-478.04 730.39,-471.94 719.82,-471.31 721.73,-478.04"/>
<text text-anchor="middle" x="715.27" y="-481.32" font-family="Times,serif" font-size="14.00">*0</text>
</g>
<!-- node2&#45;&gt;node4 -->
<g id="edge12" class="edge">
<title>node2&#45;&gt;node4</title>
<path fill="none" stroke="red" d="M827.72,-510.81C820.47,-502.09 811.54,-491.34 803.56,-481.75"/>
<polygon fill="red" stroke="red" points="806.23,-479.48 797.15,-474.03 800.85,-483.96 806.23,-479.48"/>
</g>
<!-- node12&#45;&gt;node20 -->
<g id="edge31" class="edge">
<title>node12&#45;&gt;node20</title>
<path fill="none" stroke="black" d="M3597.47,-295.95C3386.89,-267.59 2870.35,-198.67 2437,-146 2333.95,-133.47 2218.22,-120.32 2126.69,-110.14"/>
<polygon fill="black" stroke="black" points="2126.82,-106.63 2116.5,-109.01 2126.05,-113.59 2126.82,-106.63"/>
<text text-anchor="middle" x="2135.45" y="-98.91" font-family="Times,serif" font-size="14.00">*5</text>
</g>
<!-- node12&#45;&gt;node13 -->
<g id="edge48" class="edge">
<title>node12&#45;&gt;node13</title>
<path fill="none" stroke="green" d="M3627.51,-327.69C3596.33,-335.1 3558.52,-342.84 3524,-346.5 3353.29,-364.62 2149.99,-361.75 1979,-346.5 1940.69,-343.08 1898.8,-336.11 1863.07,-329.16"/>
<polygon fill="green" stroke="green" points="1863.65,-325.71 1853.16,-327.21 1862.29,-332.58 1863.65,-325.71"/>
</g>
<!-- node11&#45;&gt;node12 -->
<g id="edge17" class="edge">
<title>node11&#45;&gt;node12</title>
<path fill="none" stroke="green" d="M3881,-310C3872.69,-310 3864.38,-310 3856.06,-310"/>
<polygon fill="green" stroke="green" points="3855.93,-306.5 3845.93,-310 3855.93,-313.5 3855.93,-306.5"/>
</g>
<!-- node11&#45;&gt;node20 -->
<g id="edge30" class="edge">
<title>node11&#45;&gt;node20</title>
<path fill="none" stroke="black" d="M3942.04,-295.99C3700.17,-267.06 3096.36,-195.99 2590,-146 2455.8,-132.75 2305.29,-119.76 2185.16,-109.85"/>
<polygon fill="black" stroke="black" points="2185.36,-106.35 2175.11,-109.02 2184.78,-113.33 2185.36,-106.35"/>
<text text-anchor="middle" x="2193.86" y="-98.38" font-family="Times,serif" font-size="14.00">*4</text>
</g>
<!-- node10&#45;&gt;node11 -->
<g id="edge19" class="edge">
<title>node10&#45;&gt;node11</title>
<path fill="none" stroke="green" d="M450.41,-327.69C486.2,-335.1 529.56,-342.84 569,-346.5 750.28,-363.32 3664.66,-362.6 3846,-346.5 3884.49,-343.08 3926.59,-336.11 3962.5,-329.16"/>
<polygon fill="green" stroke="green" points="3963.32,-332.57 3972.45,-327.21 3961.97,-325.7 3963.32,-332.57"/>
</g>
<!-- node10&#45;&gt;node20 -->
<g id="edge29" class="edge">
<title>node10&#45;&gt;node20</title>
<path fill="none" stroke="black" d="M276.7,-294.4C197.31,-278.61 105.19,-248.9 151,-200 199.62,-148.1 1081.78,-115.65 1596.27,-101.06"/>
<polygon fill="black" stroke="black" points="1596.57,-104.55 1606.46,-100.77 1596.37,-97.55 1596.57,-104.55"/>
<text text-anchor="middle" x="1588.58" y="-106.03" font-family="Times,serif" font-size="14.00">*3</text>
</g>
<!-- node9&#45;&gt;node10 -->
<g id="edge21" class="edge">
<title>node9&#45;&gt;node10</title>
<path fill="none" stroke="green" d="M948.8,-327.74C909.55,-335.14 862.09,-342.85 819,-346.5 708.29,-355.87 679.64,-356.77 569,-346.5 533.1,-343.17 493.96,-336.46 460.23,-329.69"/>
<polygon fill="green" stroke="green" points="460.91,-326.26 450.41,-327.69 459.51,-333.12 460.91,-326.26"/>
</g>
<!-- node9&#45;&gt;node20 -->
<g id="edge28" class="edge">
<title>node9&#45;&gt;node20</title>
<path fill="none" stroke="black" d="M1105.82,-291.97C1275.97,-252.18 1698.77,-153.32 1878.28,-111.34"/>
<polygon fill="black" stroke="black" points="1879.26,-114.71 1888.2,-109.02 1877.67,-107.89 1879.26,-114.71"/>
<text text-anchor="middle" x="1872.47" y="-117.68" font-family="Times,serif" font-size="14.00">*2</text>
</g>
<!-- node8&#45;&gt;node9 -->
<g id="edge23" class="edge">
<title>node8&#45;&gt;node9</title>
<path fill="none" stroke="green" d="M1264.38,-310C1256.05,-310 1247.72,-310 1239.39,-310"/>
<polygon fill="green" stroke="green" points="1239.23,-306.5 1229.23,-310 1239.23,-313.5 1239.23,-306.5"/>
</g>
<!-- node8&#45;&gt;node20 -->
<g id="edge27" class="edge">
<title>node8&#45;&gt;node20</title>
<path fill="none" stroke="black" d="M1468.9,-291.97C1565.58,-252.68 1804.02,-155.79 1909.45,-112.95"/>
<polygon fill="black" stroke="black" points="1910.98,-116.11 1918.92,-109.1 1908.34,-109.62 1910.98,-116.11"/>
<text text-anchor="middle" x="1905.31" y="-120.05" font-family="Times,serif" font-size="14.00">*1</text>
</g>
<!-- node21 -->
<g id="node21" class="node">
<title>node21</title>
<polygon fill="lightgrey" stroke="black" points="2011.5,-36 1910.5,-36 1910.5,0 2011.5,0 2011.5,-36"/>
<text text-anchor="middle" x="1961" y="-14.3" font-family="Times,serif" font-size="14.00">#21 Return</text>
</g>
<!-- node20&#45;&gt;node21 -->
<g id="edge49" class="edge">
<title>node20&#45;&gt;node21</title>
<path fill="none" stroke="red" d="M1955.12,-72.81C1954.28,-64.79 1954.05,-55.05 1954.42,-46.07"/>
<polygon fill="red" stroke="red" points="1957.92,-46.25 1955.14,-36.03 1950.94,-45.75 1957.92,-46.25"/>
</g>
<!-- node20&#45;&gt;node21 -->
<g id="edge50" class="edge">
<title>node20&#45;&gt;node21</title>
<path fill="none" stroke="green" d="M1966.88,-72.81C1967.72,-64.79 1967.95,-55.05 1967.58,-46.07"/>
<polygon fill="green" stroke="green" points="1971.06,-45.75 1966.86,-36.03 1964.08,-46.25 1971.06,-45.75"/>
</g>
<!-- node13&#45;&gt;node20 -->
<g id="edge32" class="edge">
<title>node13&#45;&gt;node20</title>
<path fill="none" stroke="black" d="M1790.52,-291.97C1822.99,-253.88 1901.64,-161.63 1939.68,-117"/>
<polygon fill="black" stroke="black" points="1942.47,-119.13 1946.29,-109.25 1937.14,-114.59 1942.47,-119.13"/>
<text text-anchor="middle" x="1940.97" y="-124.83" font-family="Times,serif" font-size="14.00">*6</text>
</g>
<!-- node13&#45;&gt;node14 -->
<g id="edge46" class="edge">
<title>node13&#45;&gt;node14</title>
<path fill="none" stroke="green" d="M1944.2,-310C1952.5,-310 1960.8,-310 1969.1,-310"/>
<polygon fill="green" stroke="green" points="1969.23,-313.5 1979.23,-310 1969.23,-306.5 1969.23,-313.5"/>
</g>
<!-- node14&#45;&gt;node20 -->
<g id="edge33" class="edge">
<title>node14&#45;&gt;node20</title>
<path fill="none" stroke="black" d="M2133.33,-291.97C2100.5,-253.88 2021,-161.63 1982.55,-117"/>
<polygon fill="black" stroke="black" points="1985.04,-114.54 1975.86,-109.25 1979.74,-119.11 1985.04,-114.54"/>
<text text-anchor="middle" x="1994.1" y="-113.76" font-family="Times,serif" font-size="14.00">*7</text>
</g>
<!-- node14&#45;&gt;node15 -->
<g id="edge44" class="edge">
<title>node14&#45;&gt;node15</title>
<path fill="none" stroke="green" d="M2317,-310C2325.1,-310 2333.21,-310 2341.31,-310"/>
<polygon fill="green" stroke="green" points="2341.58,-313.5 2351.58,-310 2341.58,-306.5 2341.58,-313.5"/>
</g>
<!-- node15&#45;&gt;node20 -->
<g id="edge34" class="edge">
<title>node15&#45;&gt;node20</title>
<path fill="none" stroke="black" d="M2498.25,-291.97C2392.49,-252.6 2131.33,-155.4 2016.59,-112.69"/>
<polygon fill="black" stroke="black" points="2017.53,-109.31 2006.94,-109.1 2015.09,-115.87 2017.53,-109.31"/>
<text text-anchor="middle" x="2026.87" y="-103.8" font-family="Times,serif" font-size="14.00">*8</text>
</g>
<!-- node15&#45;&gt;node16 -->
<g id="edge42" class="edge">
<title>node15&#45;&gt;node16</title>
<path fill="none" stroke="green" d="M2736.45,-310C2744.75,-310 2753.06,-310 2761.36,-310"/>
<polygon fill="green" stroke="green" points="2761.5,-313.5 2771.5,-310 2761.5,-306.5 2761.5,-313.5"/>
</g>
<!-- node16&#45;&gt;node17 -->
<g id="edge40" class="edge">
<title>node16&#45;&gt;node17</title>
<path fill="none" stroke="green" d="M3144.61,-310C3152.87,-310 3161.12,-310 3169.38,-310"/>
<polygon fill="green" stroke="green" points="3169.45,-313.5 3179.45,-310 3169.45,-306.5 3169.45,-313.5"/>
</g>
<!-- node16&#45;&gt;node20 -->
<g id="edge35" class="edge">
<title>node16&#45;&gt;node20</title>
<path fill="none" stroke="black" d="M2879.77,-291.97C2696.69,-252.13 2241.37,-153.02 2049.01,-111.15"/>
<polygon fill="black" stroke="black" points="2049.73,-107.73 2039.21,-109.02 2048.24,-114.57 2049.73,-107.73"/>
<text text-anchor="middle" x="2058.72" y="-100.92" font-family="Times,serif" font-size="14.00">*9</text>
</g>
<!-- c0 -->
<!-- c1 -->
<!-- c0&#45;&gt;c1 -->
<g id="edge51" class="edge">
<title>c0&#45;&gt;c1</title>
<path fill="none" stroke="red" d="M1477.89,-611C1489.11,-611 1547.24,-611 1572.86,-611"/>
<polygon fill="red" stroke="red" points="1573.06,-614.5 1583.06,-611 1573.06,-607.5 1573.06,-614.5"/>
<text text-anchor="middle" x="1530.5" y="-617.8" font-family="Times,serif" font-size="14.00">Control flow</text>
</g>
<!-- c2 -->
<!-- c3 -->
<!-- c2&#45;&gt;c3 -->
<g id="edge52" class="edge">
<title>c2&#45;&gt;c3</title>
<path fill="none" stroke="red" stroke-dasharray="5,2" d="M1271.08,-611C1288.05,-611 1404.21,-611 1442.08,-611"/>
<polygon fill="red" stroke="red" points="1442.17,-614.5 1452.17,-611 1442.17,-607.5 1442.17,-614.5"/>
<text text-anchor="middle" x="1361.5" y="-617.8" font-family="Times,serif" font-size="14.00">Control flow back edge</text>
</g>
<!-- d0 -->
<!-- d1 -->
<!-- d0&#45;&gt;d1 -->
<g id="edge53" class="edge">
<title>d0&#45;&gt;d1</title>
<path fill="none" stroke="black" d="M1159.86,-611C1169.41,-611 1213.31,-611 1234.92,-611"/>
<polygon fill="black" stroke="black" points="1235.15,-614.5 1245.15,-611 1235.15,-607.5 1235.15,-614.5"/>
<text text-anchor="middle" x="1202.5" y="-617.8" font-family="Times,serif" font-size="14.00">Data flow</text>
</g>
<!-- d2 -->
<!-- d3 -->
<!-- d2&#45;&gt;d3 -->
<g id="edge54" class="edge">
<title>d2&#45;&gt;d3</title>
<path fill="none" stroke="black" stroke-dasharray="1,5" d="M1033.81,-611C1044.46,-611 1099.46,-611 1124.08,-611"/>
<polygon fill="black" stroke="black" points="1124.15,-614.5 1134.15,-611 1124.15,-607.5 1124.15,-614.5"/>
<text text-anchor="middle" x="1084" y="-617.8" font-family="Times,serif" font-size="14.00">Declaration</text>
</g>
<!-- d4 -->
<!-- d5 -->
<!-- d4&#45;&gt;d5 -->
<g id="edge55" class="edge">
<title>d4&#45;&gt;d5</title>
<path fill="none" stroke="blue" d="M891.1,-611C903.72,-611 969.88,-611 997.68,-611"/>
<polygon fill="blue" stroke="blue" points="997.84,-614.5 1007.84,-611 997.84,-607.5 997.84,-614.5"/>
<text text-anchor="middle" x="949.5" y="-617.8" font-family="Times,serif" font-size="14.00">PHI Data flow</text>
</g>
<!-- d6 -->
<!-- d7 -->
<!-- d6&#45;&gt;d7 -->
<g id="edge56" class="edge">
<title>d6&#45;&gt;d7</title>
<path fill="none" stroke="green" d="M754,-611C765.94,-611 828.3,-611 854.93,-611"/>
<polygon fill="green" stroke="green" points="854.95,-614.5 864.95,-611 854.95,-607.5 854.95,-614.5"/>
<text text-anchor="middle" x="809.5" y="-617.8" font-family="Times,serif" font-size="14.00">Memory flow</text>
</g>
</g>
</svg>
