<?xml version="1.0" encoding="UTF-8" standalone="no"?>
<!DOCTYPE svg PUBLIC "-//W3C//DTD SVG 1.1//EN"
 "http://www.w3.org/Graphics/SVG/1.1/DTD/svg11.dtd">
<!-- Generated by graphviz version 2.43.0 (0)
 -->
<!-- Title: %3 Pages: 1 -->
<svg width="4662pt" height="587pt"
 viewBox="0.00 0.00 4662.43 586.80" xmlns="http://www.w3.org/2000/svg" xmlns:xlink="http://www.w3.org/1999/xlink">
<g id="graph0" class="graph" transform="scale(1 1) rotate(0) translate(4 582.8)">
<title>%3</title>
<polygon fill="white" stroke="transparent" points="-4,4 -4,-582.8 4658.43,-582.8 4658.43,4 -4,4"/>
<g id="clust1" class="cluster">
<title>cluster_0</title>
<polygon fill="none" stroke="lightgray" points="4055.43,-138 4055.43,-263 4389.43,-263 4389.43,-138 4055.43,-138"/>
</g>
<g id="clust2" class="cluster">
<title>cluster_1</title>
<polygon fill="none" stroke="lightgray" points="3557.43,-357 3557.43,-482 3959.43,-482 3959.43,-357 3557.43,-357"/>
</g>
<g id="clust3" class="cluster">
<title>cluster_000</title>
<polygon fill="none" stroke="black" points="3793.43,-528.2 3793.43,-570.8 4646.43,-570.8 4646.43,-528.2 3793.43,-528.2"/>
<text text-anchor="middle" x="4219.93" y="-555.6" font-family="Times,serif" font-size="14.00">Legend</text>
</g>
<!-- node0 -->
<g id="node1" class="node">
<title>node0</title>
<polygon fill="lightgrey" stroke="transparent" points="3783.93,-565 3598.93,-565 3598.93,-511 3783.93,-511 3783.93,-565"/>
<polygon fill="none" stroke="black" points="3599.43,-538 3599.43,-565 3784.43,-565 3784.43,-538 3599.43,-538"/>
<text text-anchor="start" x="3651.43" y="-547.8" font-family="Times,serif" font-size="14.00">#0 Method</text>
<polygon fill="yellow" stroke="transparent" points="3599.43,-511 3599.43,-538 3784.43,-538 3784.43,-511 3599.43,-511"/>
<polygon fill="none" stroke="black" points="3599.43,-511 3599.43,-538 3784.43,-538 3784.43,-511 3599.43,-511"/>
<text text-anchor="start" x="3605.43" y="-520.8" font-family="Times,serif" font-size="14.00">this : MethodInvokeTest</text>
</g>
<!-- node2 -->
<g id="node2" class="node">
<title>node2</title>
<polygon fill="lightgrey" stroke="black" points="3750.93,-474 3631.93,-474 3631.93,-438 3750.93,-438 3750.93,-474"/>
<text text-anchor="middle" x="3691.43" y="-452.3" font-family="Times,serif" font-size="14.00">#2 LabelNode</text>
</g>
<!-- node0&#45;&gt;node2 -->
<g id="edge1" class="edge">
<title>node0&#45;&gt;node2</title>
<path fill="none" stroke="red" d="M3691.43,-510.81C3691.43,-502.35 3691.43,-492.95 3691.43,-484.4"/>
<polygon fill="red" stroke="red" points="3694.93,-484.17 3691.43,-474.17 3687.93,-484.17 3694.93,-484.17"/>
</g>
<!-- node4 -->
<g id="node4" class="node">
<title>node4</title>
<polygon fill="lightgrey" stroke="black" points="3601.93,-328 3496.93,-328 3496.93,-292 3601.93,-292 3601.93,-328"/>
<text text-anchor="middle" x="3549.43" y="-306.3" font-family="Times,serif" font-size="14.00">#4 ClassInit</text>
</g>
<!-- node0&#45;&gt;node4 -->
<g id="edge5" class="edge">
<title>node0&#45;&gt;node4</title>
<path fill="none" stroke="green" d="M3783.96,-512.2C3785.8,-511.79 3787.62,-511.39 3789.43,-511 3827.75,-502.74 3938.09,-511.91 3963.43,-482 3999.34,-439.61 4000.48,-398.4 3963.43,-357 3940.47,-331.36 3722.74,-318.41 3612.6,-313.46"/>
<polygon fill="green" stroke="green" points="3612.43,-309.95 3602.28,-313.01 3612.12,-316.95 3612.43,-309.95"/>
</g>
<!-- node3 -->
<g id="node3" class="node">
<title>node3</title>
<polygon fill="lightgreen" stroke="black" points="3951.85,-375.54 3951.85,-390.46 3838.54,-401 3678.31,-401 3565,-390.46 3565,-375.54 3678.31,-365 3838.54,-365 3951.85,-375.54"/>
<text text-anchor="middle" x="3758.43" y="-379.3" font-family="Times,serif" font-size="14.00">#3 Class MethodInvokeTest$Source</text>
</g>
<!-- node2&#45;&gt;node3 -->
<g id="edge2" class="edge">
<title>node2&#45;&gt;node3</title>
<path fill="none" stroke="black" stroke-dasharray="1,5" d="M3707.64,-437.81C3715.96,-429 3726.22,-418.13 3735.35,-408.46"/>
<polygon fill="black" stroke="black" points="3738.04,-410.7 3742.36,-401.03 3732.95,-405.9 3738.04,-410.7"/>
</g>
<!-- node2&#45;&gt;node4 -->
<g id="edge4" class="edge">
<title>node2&#45;&gt;node4</title>
<path fill="none" stroke="red" d="M3631.76,-445.86C3604.39,-438.46 3574.14,-425.1 3556.43,-401 3543.27,-383.1 3542.53,-357.43 3544.5,-338.08"/>
<polygon fill="red" stroke="red" points="3547.98,-338.44 3545.81,-328.07 3541.04,-337.53 3547.98,-338.44"/>
</g>
<!-- node3&#45;&gt;node4 -->
<g id="edge3" class="edge">
<title>node3&#45;&gt;node4</title>
<path fill="none" stroke="black" d="M3708.36,-364.99C3678.6,-354.88 3640.65,-341.99 3609.3,-331.34"/>
<polygon fill="black" stroke="black" points="3610.4,-328.02 3599.8,-328.11 3608.14,-334.64 3610.4,-328.02"/>
<text text-anchor="middle" x="3619.68" y="-322.24" font-family="Times,serif" font-size="14.00">*0</text>
</g>
<!-- node5 -->
<g id="node5" class="node">
<title>node5</title>
<polygon fill="orange" stroke="black" points="2226.54,-229.54 2226.54,-244.46 2196.01,-255 2152.84,-255 2122.31,-244.46 2122.31,-229.54 2152.84,-219 2196.01,-219 2226.54,-229.54"/>
<text text-anchor="middle" x="2174.43" y="-233.3" font-family="Times,serif" font-size="14.00">#5 New</text>
</g>
<!-- node4&#45;&gt;node5 -->
<g id="edge6" class="edge">
<title>node4&#45;&gt;node5</title>
<path fill="none" stroke="black" d="M3496.53,-306.41C3280.93,-295.55 2469.6,-253.66 2237.04,-241.39"/>
<polygon fill="black" stroke="black" points="2236.9,-237.88 2226.73,-240.85 2236.53,-244.87 2236.9,-237.88"/>
<text text-anchor="middle" x="2245.28" y="-229.66" font-family="Times,serif" font-size="14.00">*0</text>
</g>
<!-- node4&#45;&gt;node5 -->
<g id="edge7" class="edge">
<title>node4&#45;&gt;node5</title>
<path fill="none" stroke="green" d="M3496.69,-306.13C3281.39,-294.75 2469.89,-252.84 2237.14,-241.08"/>
<polygon fill="green" stroke="green" points="2236.98,-237.57 2226.82,-240.56 2236.63,-244.56 2236.98,-237.57"/>
</g>
<!-- node6 -->
<g id="node9" class="node">
<title>node6</title>
<polygon fill="lightgrey" stroke="black" points="4045.43,-182 3795.43,-182 3795.43,-146 4045.43,-146 4045.43,-182"/>
<text text-anchor="middle" x="3920.43" y="-160.3" font-family="Times,serif" font-size="14.00">#6 Invoke special &lt;init&gt; : ()void</text>
</g>
<!-- node4&#45;&gt;node6 -->
<g id="edge15" class="edge">
<title>node4&#45;&gt;node6</title>
<path fill="none" stroke="red" d="M3593.44,-291.92C3661.78,-265.39 3793.18,-214.39 3866.9,-185.78"/>
<polygon fill="red" stroke="red" points="3868.41,-188.94 3876.47,-182.06 3865.88,-182.42 3868.41,-188.94"/>
</g>
<!-- node9 -->
<g id="node6" class="node">
<title>node9</title>
<polygon fill="orange" stroke="black" points="2626.32,-156.54 2626.32,-171.46 2526.21,-182 2384.64,-182 2284.53,-171.46 2284.53,-156.54 2384.64,-146 2526.21,-146 2626.32,-156.54"/>
<text text-anchor="middle" x="2455.43" y="-160.3" font-family="Times,serif" font-size="14.00">#9 GetField : short_field : short</text>
</g>
<!-- node5&#45;&gt;node9 -->
<g id="edge8" class="edge">
<title>node5&#45;&gt;node9</title>
<path fill="none" stroke="black" d="M2215.59,-225.6C2258.12,-214.85 2325.52,-197.82 2378.06,-184.55"/>
<polygon fill="black" stroke="black" points="2379.18,-187.87 2388.02,-182.03 2377.47,-181.09 2379.18,-187.87"/>
<text text-anchor="middle" x="2372.52" y="-190.97" font-family="Times,serif" font-size="14.00">*0</text>
</g>
<!-- node8 -->
<g id="node7" class="node">
<title>node8</title>
<polygon fill="orange" stroke="black" points="3054.47,-156.54 3054.47,-171.46 2939.63,-182 2777.22,-182 2662.38,-171.46 2662.38,-156.54 2777.22,-146 2939.63,-146 3054.47,-156.54"/>
<text text-anchor="middle" x="2858.43" y="-160.3" font-family="Times,serif" font-size="14.00">#8 GetField : boolean_field : boolean</text>
</g>
<!-- node5&#45;&gt;node8 -->
<g id="edge10" class="edge">
<title>node5&#45;&gt;node8</title>
<path fill="none" stroke="black" d="M2226.68,-230.58C2331.62,-219.68 2570.93,-194.84 2723.03,-179.05"/>
<polygon fill="black" stroke="black" points="2723.79,-182.49 2733.38,-177.98 2723.07,-175.53 2723.79,-182.49"/>
<text text-anchor="middle" x="2716.22" y="-184.56" font-family="Times,serif" font-size="14.00">*0</text>
</g>
<!-- node7 -->
<g id="node8" class="node">
<title>node7</title>
<polygon fill="orange" stroke="black" points="3414.94,-156.54 3414.94,-171.46 3319.74,-182 3185.11,-182 3089.91,-171.46 3089.91,-156.54 3185.11,-146 3319.74,-146 3414.94,-156.54"/>
<text text-anchor="middle" x="3252.43" y="-160.3" font-family="Times,serif" font-size="14.00">#7 GetField : byte_field : byte</text>
</g>
<!-- node5&#45;&gt;node7 -->
<g id="edge12" class="edge">
<title>node5&#45;&gt;node7</title>
<path fill="none" stroke="black" d="M2226.57,-233.36C2363.71,-226.31 2745.8,-205.93 3063.43,-182 3082.68,-180.55 3103.02,-178.87 3122.94,-177.15"/>
<polygon fill="black" stroke="black" points="3123.34,-180.63 3133,-176.27 3122.73,-173.65 3123.34,-180.63"/>
<text text-anchor="middle" x="3115.67" y="-182.57" font-family="Times,serif" font-size="14.00">*0</text>
</g>
<!-- node5&#45;&gt;node6 -->
<g id="edge14" class="edge">
<title>node5&#45;&gt;node6</title>
<path fill="none" stroke="black" d="M2226.77,-236C2427.82,-235.61 3168.93,-230.69 3777.43,-182 3779.98,-181.8 3782.57,-181.58 3785.17,-181.35"/>
<polygon fill="black" stroke="black" points="3785.66,-184.82 3795.29,-180.4 3785.01,-177.85 3785.66,-184.82"/>
<text text-anchor="middle" x="3778.03" y="-186.8" font-family="Times,serif" font-size="14.00">*0</text>
</g>
<!-- node5&#45;&gt;node6 -->
<g id="edge16" class="edge">
<title>node5&#45;&gt;node6</title>
<path fill="none" stroke="green" d="M2226.57,-236.01C2427.67,-235.72 3171.53,-231.29 3785.39,-182.8"/>
<polygon fill="green" stroke="green" points="3786.09,-186.25 3795.78,-181.97 3785.53,-179.28 3786.09,-186.25"/>
</g>
<!-- node16 -->
<g id="node13" class="node">
<title>node16</title>
<polygon fill="orange" stroke="black" points="3777.64,-156.54 3777.64,-171.46 3676.76,-182 3534.09,-182 3433.21,-171.46 3433.21,-156.54 3534.09,-146 3676.76,-146 3777.64,-156.54"/>
<text text-anchor="middle" x="3605.43" y="-160.3" font-family="Times,serif" font-size="14.00">#16 GetField : array_field : int[]</text>
</g>
<!-- node5&#45;&gt;node16 -->
<g id="edge21" class="edge">
<title>node5&#45;&gt;node16</title>
<path fill="none" stroke="black" d="M2226.57,-234.69C2398.11,-230.18 2960.4,-213.79 3424.43,-182 3441.14,-180.85 3458.71,-179.45 3476.05,-177.95"/>
<polygon fill="black" stroke="black" points="3476.57,-181.42 3486.23,-177.06 3475.96,-174.45 3476.57,-181.42"/>
<text text-anchor="middle" x="3468.91" y="-183.36" font-family="Times,serif" font-size="14.00">*0</text>
</g>
<!-- node15 -->
<g id="node14" class="node">
<title>node15</title>
<polygon fill="orange" stroke="black" points="372.78,-156.54 372.78,-171.46 263.61,-182 109.24,-182 0.07,-171.46 0.07,-156.54 109.24,-146 263.61,-146 372.78,-156.54"/>
<text text-anchor="middle" x="186.43" y="-160.3" font-family="Times,serif" font-size="14.00">#15 GetField : string_field : String</text>
</g>
<!-- node5&#45;&gt;node15 -->
<g id="edge23" class="edge">
<title>node5&#45;&gt;node15</title>
<path fill="none" stroke="black" d="M2122.11,-235.35C1908.28,-232.49 1079.74,-219.47 399.43,-182 376.92,-180.76 353.1,-179.15 329.86,-177.42"/>
<polygon fill="black" stroke="black" points="329.82,-173.91 319.58,-176.64 329.29,-180.89 329.82,-173.91"/>
<text text-anchor="middle" x="338.29" y="-165.88" font-family="Times,serif" font-size="14.00">*0</text>
</g>
<!-- node14 -->
<g id="node15" class="node">
<title>node14</title>
<polygon fill="orange" stroke="black" points="792.53,-156.54 792.53,-171.46 680,-182 520.85,-182 408.32,-171.46 408.32,-156.54 520.85,-146 680,-146 792.53,-156.54"/>
<text text-anchor="middle" x="600.43" y="-160.3" font-family="Times,serif" font-size="14.00">#14 GetField : double_field : double</text>
</g>
<!-- node5&#45;&gt;node14 -->
<g id="edge25" class="edge">
<title>node5&#45;&gt;node14</title>
<path fill="none" stroke="black" d="M2122.35,-234.64C1941.83,-229.77 1326.15,-211.9 818.43,-182 795.79,-180.67 771.86,-179.03 748.46,-177.31"/>
<polygon fill="black" stroke="black" points="748.7,-173.81 738.47,-176.56 748.18,-180.8 748.7,-173.81"/>
<text text-anchor="middle" x="757.17" y="-165.78" font-family="Times,serif" font-size="14.00">*0</text>
</g>
<!-- node13 -->
<g id="node16" class="node">
<title>node13</title>
<polygon fill="orange" stroke="black" points="1165.1,-156.54 1165.1,-171.46 1066.29,-182 926.56,-182 827.75,-171.46 827.75,-156.54 926.56,-146 1066.29,-146 1165.1,-156.54"/>
<text text-anchor="middle" x="996.43" y="-160.3" font-family="Times,serif" font-size="14.00">#13 GetField : float_field : float</text>
</g>
<!-- node5&#45;&gt;node13 -->
<g id="edge27" class="edge">
<title>node5&#45;&gt;node13</title>
<path fill="none" stroke="black" d="M2122.17,-233.72C1975.39,-227.19 1546.89,-207.25 1191.43,-182 1171.47,-180.58 1150.38,-178.92 1129.74,-177.2"/>
<polygon fill="black" stroke="black" points="1129.9,-173.7 1119.64,-176.35 1129.32,-180.67 1129.9,-173.7"/>
<text text-anchor="middle" x="1138.42" y="-165.74" font-family="Times,serif" font-size="14.00">*0</text>
</g>
<!-- node12 -->
<g id="node17" class="node">
<title>node12</title>
<polygon fill="orange" stroke="black" points="1536.7,-156.54 1536.7,-171.46 1438.13,-182 1298.73,-182 1200.16,-171.46 1200.16,-156.54 1298.73,-146 1438.13,-146 1536.7,-156.54"/>
<text text-anchor="middle" x="1368.43" y="-160.3" font-family="Times,serif" font-size="14.00">#12 GetField : long_field : long</text>
</g>
<!-- node5&#45;&gt;node12 -->
<g id="edge29" class="edge">
<title>node5&#45;&gt;node12</title>
<path fill="none" stroke="black" d="M2122.16,-231.4C1998.65,-220.52 1685.53,-192.93 1504.09,-176.95"/>
<polygon fill="black" stroke="black" points="1504.22,-173.45 1493.95,-176.06 1503.6,-180.42 1504.22,-173.45"/>
<text text-anchor="middle" x="1512.74" y="-165.53" font-family="Times,serif" font-size="14.00">*0</text>
</g>
<!-- node11 -->
<g id="node18" class="node">
<title>node11</title>
<polygon fill="orange" stroke="black" points="1876.33,-156.54 1876.33,-171.46 1787.35,-182 1661.5,-182 1572.52,-171.46 1572.52,-156.54 1661.5,-146 1787.35,-146 1876.33,-156.54"/>
<text text-anchor="middle" x="1724.43" y="-160.3" font-family="Times,serif" font-size="14.00">#11 GetField : int_field : int</text>
</g>
<!-- node5&#45;&gt;node11 -->
<g id="edge31" class="edge">
<title>node5&#45;&gt;node11</title>
<path fill="none" stroke="black" d="M2125.41,-228.27C2053.21,-216.88 1916.74,-195.34 1823.23,-180.59"/>
<polygon fill="black" stroke="black" points="1823.61,-177.11 1813.19,-179 1822.52,-184.02 1823.61,-177.11"/>
<text text-anchor="middle" x="1832.41" y="-169.78" font-family="Times,serif" font-size="14.00">*0</text>
</g>
<!-- node10 -->
<g id="node19" class="node">
<title>node10</title>
<polygon fill="orange" stroke="black" points="2249.1,-156.54 2249.1,-171.46 2150.29,-182 2010.56,-182 1911.75,-171.46 1911.75,-156.54 2010.56,-146 2150.29,-146 2249.1,-156.54"/>
<text text-anchor="middle" x="2080.43" y="-160.3" font-family="Times,serif" font-size="14.00">#10 GetField : char_field : char</text>
</g>
<!-- node5&#45;&gt;node10 -->
<g id="edge33" class="edge">
<title>node5&#45;&gt;node10</title>
<path fill="none" stroke="black" d="M2152.15,-219.17C2139.92,-209.94 2124.57,-198.34 2111.21,-188.25"/>
<polygon fill="black" stroke="black" points="2113.28,-185.43 2103.2,-182.2 2109.07,-191.02 2113.28,-185.43"/>
<text text-anchor="middle" x="2122.75" y="-182.68" font-family="Times,serif" font-size="14.00">*0</text>
</g>
<!-- node9&#45;&gt;node10 -->
<g id="edge34" class="edge">
<title>node9&#45;&gt;node10</title>
<path fill="none" stroke="green" d="M2284.28,-164C2275.98,-164 2267.68,-164 2259.38,-164"/>
<polygon fill="green" stroke="green" points="2259.25,-160.5 2249.25,-164 2259.25,-167.5 2259.25,-160.5"/>
</g>
<!-- node20 -->
<g id="node20" class="node">
<title>node20</title>
<polygon fill="lightgrey" stroke="black" points="2533.93,-109 1824.93,-109 1824.93,-73 2533.93,-73 2533.93,-109"/>
<text text-anchor="middle" x="2179.43" y="-87.3" font-family="Times,serif" font-size="14.00">#20 Invoke static simple_method : (byte,boolean,short,char,int,long,float,double,String,int[])void</text>
</g>
<!-- node9&#45;&gt;node20 -->
<g id="edge38" class="edge">
<title>node9&#45;&gt;node20</title>
<path fill="none" stroke="black" d="M2389.32,-145.99C2349.16,-135.66 2297.73,-122.43 2255.83,-111.66"/>
<polygon fill="black" stroke="black" points="2256.51,-108.22 2245.95,-109.11 2254.76,-114.99 2256.51,-108.22"/>
<text text-anchor="middle" x="2265.61" y="-101.74" font-family="Times,serif" font-size="14.00">*3</text>
</g>
<!-- node8&#45;&gt;node9 -->
<g id="edge9" class="edge">
<title>node8&#45;&gt;node9</title>
<path fill="none" stroke="green" d="M2661.94,-164C2653.57,-164 2645.2,-164 2636.83,-164"/>
<polygon fill="green" stroke="green" points="2636.62,-160.5 2626.62,-164 2636.62,-167.5 2636.62,-160.5"/>
</g>
<!-- node8&#45;&gt;node20 -->
<g id="edge37" class="edge">
<title>node8&#45;&gt;node20</title>
<path fill="none" stroke="black" d="M2739.54,-149.42C2705.89,-145.65 2669.23,-141.6 2635.43,-138 2545.71,-128.45 2446.01,-118.33 2362.77,-110.03"/>
<polygon fill="black" stroke="black" points="2363,-106.53 2352.7,-109.02 2362.3,-113.5 2363,-106.53"/>
<text text-anchor="middle" x="2371.57" y="-98.71" font-family="Times,serif" font-size="14.00">*2</text>
</g>
<!-- node7&#45;&gt;node8 -->
<g id="edge11" class="edge">
<title>node7&#45;&gt;node8</title>
<path fill="none" stroke="green" d="M3089.81,-164C3081.48,-164 3073.15,-164 3064.82,-164"/>
<polygon fill="green" stroke="green" points="3064.66,-160.5 3054.66,-164 3064.66,-167.5 3064.66,-160.5"/>
</g>
<!-- node7&#45;&gt;node20 -->
<g id="edge36" class="edge">
<title>node7&#45;&gt;node20</title>
<path fill="none" stroke="black" d="M3157.9,-149C3127.76,-144.93 3094.24,-140.84 3063.43,-138 2893.18,-122.34 2703.97,-111.6 2544.42,-104.47"/>
<polygon fill="black" stroke="black" points="2544.1,-100.95 2533.95,-104 2543.79,-107.94 2544.1,-100.95"/>
<text text-anchor="middle" x="2552.44" y="-92.66" font-family="Times,serif" font-size="14.00">*1</text>
</g>
<!-- node6&#45;&gt;node7 -->
<g id="edge13" class="edge">
<title>node6&#45;&gt;node7</title>
<path fill="none" stroke="green" d="M3863.31,-182.07C3837.38,-189.36 3806.15,-196.89 3777.43,-200.5 3625.73,-219.55 3585.56,-215.69 3433.43,-200.5 3400.33,-197.2 3364.32,-190.57 3333.2,-183.87"/>
<polygon fill="green" stroke="green" points="3333.8,-180.41 3323.28,-181.69 3332.3,-187.25 3333.8,-180.41"/>
</g>
<!-- node17 -->
<g id="node10" class="node">
<title>node17</title>
<polygon fill="lightgrey" stroke="black" points="4286.43,-255 4158.43,-255 4158.43,-219 4286.43,-219 4286.43,-255"/>
<text text-anchor="middle" x="4222.43" y="-233.3" font-family="Times,serif" font-size="14.00">#17 LabelNode</text>
</g>
<!-- node6&#45;&gt;node17 -->
<g id="edge17" class="edge">
<title>node6&#45;&gt;node17</title>
<path fill="none" stroke="red" d="M3992.86,-182.03C4039.93,-193.1 4101.12,-207.48 4148.49,-218.62"/>
<polygon fill="red" stroke="red" points="4147.84,-222.06 4158.38,-220.94 4149.45,-215.25 4147.84,-222.06"/>
</g>
<!-- node19 -->
<g id="node11" class="node">
<title>node19</title>
<polygon fill="lightgrey" stroke="black" points="4530.43,-182 4416.43,-182 4416.43,-146 4530.43,-146 4530.43,-182"/>
<text text-anchor="middle" x="4473.43" y="-160.3" font-family="Times,serif" font-size="14.00">#19 ClassInit</text>
</g>
<!-- node17&#45;&gt;node19 -->
<g id="edge20" class="edge">
<title>node17&#45;&gt;node19</title>
<path fill="none" stroke="red" d="M4282.55,-218.99C4319.82,-208.45 4367.78,-194.88 4406.3,-183.99"/>
<polygon fill="red" stroke="red" points="4407.71,-187.23 4416.38,-181.14 4405.81,-180.49 4407.71,-187.23"/>
</g>
<!-- node18 -->
<g id="node12" class="node">
<title>node18</title>
<polygon fill="lightgreen" stroke="black" points="4381.4,-156.54 4381.4,-171.46 4288.28,-182 4156.57,-182 4063.45,-171.46 4063.45,-156.54 4156.57,-146 4288.28,-146 4381.4,-156.54"/>
<text text-anchor="middle" x="4222.43" y="-160.3" font-family="Times,serif" font-size="14.00">#18 Class MethodInvokeTest</text>
</g>
<!-- node17&#45;&gt;node18 -->
<g id="edge50" class="edge">
<title>node17&#45;&gt;node18</title>
<path fill="none" stroke="black" stroke-dasharray="1,5" d="M4222.43,-218.81C4222.43,-210.79 4222.43,-201.05 4222.43,-192.07"/>
<polygon fill="black" stroke="black" points="4225.93,-192.03 4222.43,-182.03 4218.93,-192.03 4225.93,-192.03"/>
</g>
<!-- node19&#45;&gt;node20 -->
<g id="edge35" class="edge">
<title>node19&#45;&gt;node20</title>
<path fill="none" stroke="black" d="M4416.1,-148.02C4402.69,-143.99 4388.64,-140.16 4375.43,-138 4199.93,-109.35 3121.82,-98.09 2544.13,-94.04"/>
<polygon fill="black" stroke="black" points="2543.99,-90.54 2533.97,-93.97 2543.94,-97.54 2543.99,-90.54"/>
<text text-anchor="middle" x="2552.15" y="-81.94" font-family="Times,serif" font-size="14.00">*0</text>
</g>
<!-- node19&#45;&gt;node20 -->
<g id="edge46" class="edge">
<title>node19&#45;&gt;node20</title>
<path fill="none" stroke="green" d="M4426.58,-145.94C4415.82,-142.71 4404.34,-139.78 4393.43,-138 4216.81,-109.17 3126.03,-97.94 2544.21,-93.96"/>
<polygon fill="green" stroke="green" points="2544,-90.46 2533.97,-93.89 2543.95,-97.46 2544,-90.46"/>
</g>
<!-- node19&#45;&gt;node20 -->
<g id="edge47" class="edge">
<title>node19&#45;&gt;node20</title>
<path fill="none" stroke="red" d="M4444.11,-145.94C4433.82,-142.71 4422.34,-139.78 4411.43,-138 4233.72,-108.99 3130.52,-97.8 2544.43,-93.89"/>
<polygon fill="red" stroke="red" points="2544.15,-90.39 2534.13,-93.82 2544.1,-97.39 2544.15,-90.39"/>
</g>
<!-- node18&#45;&gt;node19 -->
<g id="edge18" class="edge">
<title>node18&#45;&gt;node19</title>
<path fill="none" stroke="black" d="M4381.75,-164C4389.81,-164 4397.87,-164 4405.92,-164"/>
<polygon fill="black" stroke="black" points="4406.13,-167.5 4416.13,-164 4406.13,-160.5 4406.13,-167.5"/>
<text text-anchor="middle" x="4398" y="-168.75" font-family="Times,serif" font-size="14.00">*0</text>
</g>
<!-- node16&#45;&gt;node19 -->
<g id="edge19" class="edge">
<title>node16&#45;&gt;node19</title>
<path fill="none" stroke="green" d="M3679.85,-181.69C3714.72,-189.1 3756.97,-196.84 3795.43,-200.5 3925.73,-212.9 4256.01,-225.81 4384.43,-200.5 4399.47,-197.54 4415.17,-192 4429.12,-186.12"/>
<polygon fill="green" stroke="green" points="4430.72,-189.25 4438.47,-182.03 4427.91,-182.84 4430.72,-189.25"/>
</g>
<!-- node16&#45;&gt;node20 -->
<g id="edge45" class="edge">
<title>node16&#45;&gt;node20</title>
<path fill="none" stroke="black" d="M3511.69,-148.23C3483.68,-144.31 3452.87,-140.48 3424.43,-138 3129.01,-112.21 2792.94,-100.85 2544.48,-95.86"/>
<polygon fill="black" stroke="black" points="2544.26,-92.35 2534.2,-95.66 2544.13,-99.35 2544.26,-92.35"/>
<text text-anchor="middle" x="2552.49" y="-83.86" font-family="Times,serif" font-size="14.00">*10</text>
</g>
<!-- node15&#45;&gt;node16 -->
<g id="edge22" class="edge">
<title>node15&#45;&gt;node16</title>
<path fill="none" stroke="green" d="M271.41,-181.31C312.59,-188.84 362.88,-196.78 408.43,-200.5 574.93,-214.1 3249.12,-216.33 3415.43,-200.5 3450.27,-197.18 3488.24,-190.52 3521.01,-183.78"/>
<polygon fill="green" stroke="green" points="3521.93,-187.16 3531,-181.69 3520.49,-180.31 3521.93,-187.16"/>
</g>
<!-- node15&#45;&gt;node20 -->
<g id="edge44" class="edge">
<title>node15&#45;&gt;node20</title>
<path fill="none" stroke="black" d="M291.88,-148.7C326.12,-144.57 364.33,-140.51 399.43,-138 888.39,-103.06 1454.59,-93.76 1814.71,-91.73"/>
<polygon fill="black" stroke="black" points="1814.8,-95.23 1824.78,-91.68 1814.76,-88.23 1814.8,-95.23"/>
<text text-anchor="middle" x="1806.7" y="-96.53" font-family="Times,serif" font-size="14.00">*9</text>
</g>
<!-- node14&#45;&gt;node15 -->
<g id="edge24" class="edge">
<title>node14&#45;&gt;node15</title>
<path fill="none" stroke="green" d="M408.37,-164C399.85,-164 391.33,-164 382.81,-164"/>
<polygon fill="green" stroke="green" points="382.81,-160.5 372.81,-164 382.81,-167.5 382.81,-160.5"/>
</g>
<!-- node14&#45;&gt;node20 -->
<g id="edge43" class="edge">
<title>node14&#45;&gt;node20</title>
<path fill="none" stroke="black" d="M709.49,-148.75C744.25,-144.68 782.9,-140.63 818.43,-138 1155.4,-113.02 1540.32,-101.6 1814.62,-96.38"/>
<polygon fill="black" stroke="black" points="1814.8,-99.87 1824.74,-96.19 1814.67,-92.88 1814.8,-99.87"/>
<text text-anchor="middle" x="1806.77" y="-101.28" font-family="Times,serif" font-size="14.00">*8</text>
</g>
<!-- node13&#45;&gt;node14 -->
<g id="edge26" class="edge">
<title>node13&#45;&gt;node14</title>
<path fill="none" stroke="green" d="M827.65,-164C819.35,-164 811.05,-164 802.75,-164"/>
<polygon fill="green" stroke="green" points="802.62,-160.5 792.62,-164 802.62,-167.5 802.62,-160.5"/>
</g>
<!-- node13&#45;&gt;node20 -->
<g id="edge42" class="edge">
<title>node13&#45;&gt;node20</title>
<path fill="none" stroke="black" d="M1093.96,-148.92C1125.05,-144.86 1159.63,-140.77 1191.43,-138 1397.3,-120.04 1627.96,-108.8 1814.6,-101.93"/>
<polygon fill="black" stroke="black" points="1814.99,-105.42 1824.86,-101.56 1814.73,-98.42 1814.99,-105.42"/>
<text text-anchor="middle" x="1807.05" y="-106.97" font-family="Times,serif" font-size="14.00">*7</text>
</g>
<!-- node12&#45;&gt;node13 -->
<g id="edge28" class="edge">
<title>node12&#45;&gt;node13</title>
<path fill="none" stroke="green" d="M1200.25,-164C1191.98,-164 1183.71,-164 1175.44,-164"/>
<polygon fill="green" stroke="green" points="1175.35,-160.5 1165.35,-164 1175.35,-167.5 1175.35,-160.5"/>
</g>
<!-- node12&#45;&gt;node20 -->
<g id="edge41" class="edge">
<title>node12&#45;&gt;node20</title>
<path fill="none" stroke="black" d="M1468.26,-149.17C1498.77,-145.22 1532.44,-141.14 1563.43,-138 1673.25,-126.87 1794.34,-117.25 1899.88,-109.73"/>
<polygon fill="black" stroke="black" points="1900.32,-113.21 1910.05,-109.01 1899.83,-106.23 1900.32,-113.21"/>
<text text-anchor="middle" x="1892.57" y="-115.02" font-family="Times,serif" font-size="14.00">*6</text>
</g>
<!-- node11&#45;&gt;node12 -->
<g id="edge30" class="edge">
<title>node11&#45;&gt;node12</title>
<path fill="none" stroke="green" d="M1572.26,-164C1563.74,-164 1555.22,-164 1546.69,-164"/>
<polygon fill="green" stroke="green" points="1546.69,-160.5 1536.69,-164 1546.69,-167.5 1546.69,-160.5"/>
</g>
<!-- node11&#45;&gt;node20 -->
<g id="edge40" class="edge">
<title>node11&#45;&gt;node20</title>
<path fill="none" stroke="black" d="M1813.78,-149.06C1884.12,-138.08 1982.82,-122.68 2059.95,-110.64"/>
<polygon fill="black" stroke="black" points="2060.86,-114.04 2070.2,-109.04 2059.78,-107.13 2060.86,-114.04"/>
<text text-anchor="middle" x="2053.6" y="-116.49" font-family="Times,serif" font-size="14.00">*5</text>
</g>
<!-- node10&#45;&gt;node11 -->
<g id="edge32" class="edge">
<title>node10&#45;&gt;node11</title>
<path fill="none" stroke="green" d="M1911.43,-164C1903.11,-164 1894.8,-164 1886.49,-164"/>
<polygon fill="green" stroke="green" points="1886.35,-160.5 1876.35,-164 1886.35,-167.5 1886.35,-160.5"/>
</g>
<!-- node10&#45;&gt;node20 -->
<g id="edge39" class="edge">
<title>node10&#45;&gt;node20</title>
<path fill="none" stroke="black" d="M2104.14,-145.99C2117.02,-136.75 2133.14,-125.19 2147.16,-115.14"/>
<polygon fill="black" stroke="black" points="2149.48,-117.79 2155.56,-109.11 2145.4,-112.1 2149.48,-117.79"/>
<text text-anchor="middle" x="2145.76" y="-122.85" font-family="Times,serif" font-size="14.00">*4</text>
</g>
<!-- node21 -->
<g id="node21" class="node">
<title>node21</title>
<polygon fill="lightgrey" stroke="black" points="2229.93,-36 2128.93,-36 2128.93,0 2229.93,0 2229.93,-36"/>
<text text-anchor="middle" x="2179.43" y="-14.3" font-family="Times,serif" font-size="14.00">#21 Return</text>
</g>
<!-- node20&#45;&gt;node21 -->
<g id="edge48" class="edge">
<title>node20&#45;&gt;node21</title>
<path fill="none" stroke="red" d="M2173.55,-72.81C2172.71,-64.79 2172.47,-55.05 2172.85,-46.07"/>
<polygon fill="red" stroke="red" points="2176.34,-46.25 2173.56,-36.03 2169.36,-45.75 2176.34,-46.25"/>
</g>
<!-- node20&#45;&gt;node21 -->
<g id="edge49" class="edge">
<title>node20&#45;&gt;node21</title>
<path fill="none" stroke="green" d="M2185.3,-72.81C2186.14,-64.79 2186.38,-55.05 2186,-46.07"/>
<polygon fill="green" stroke="green" points="2189.49,-45.75 2185.29,-36.03 2182.51,-46.25 2189.49,-45.75"/>
</g>
<!-- c0 -->
<!-- c1 -->
<!-- c0&#45;&gt;c1 -->
<g id="edge51" class="edge">
<title>c0&#45;&gt;c1</title>
<path fill="none" stroke="red" d="M4529.32,-538C4540.53,-538 4598.67,-538 4624.28,-538"/>
<polygon fill="red" stroke="red" points="4624.48,-541.5 4634.48,-538 4624.48,-534.5 4624.48,-541.5"/>
<text text-anchor="middle" x="4581.93" y="-544.8" font-family="Times,serif" font-size="14.00">Control flow</text>
</g>
<!-- c2 -->
<!-- c3 -->
<!-- c2&#45;&gt;c3 -->
<g id="edge52" class="edge">
<title>c2&#45;&gt;c3</title>
<path fill="none" stroke="red" stroke-dasharray="5,2" d="M4322.5,-538C4339.47,-538 4455.63,-538 4493.51,-538"/>
<polygon fill="red" stroke="red" points="4493.59,-541.5 4503.59,-538 4493.59,-534.5 4493.59,-541.5"/>
<text text-anchor="middle" x="4412.93" y="-544.8" font-family="Times,serif" font-size="14.00">Control flow back edge</text>
</g>
<!-- d0 -->
<!-- d1 -->
<!-- d0&#45;&gt;d1 -->
<g id="edge53" class="edge">
<title>d0&#45;&gt;d1</title>
<path fill="none" stroke="black" d="M4211.28,-538C4220.83,-538 4264.73,-538 4286.34,-538"/>
<polygon fill="black" stroke="black" points="4286.58,-541.5 4296.58,-538 4286.58,-534.5 4286.58,-541.5"/>
<text text-anchor="middle" x="4253.93" y="-544.8" font-family="Times,serif" font-size="14.00">Data flow</text>
</g>
<!-- d2 -->
<!-- d3 -->
<!-- d2&#45;&gt;d3 -->
<g id="edge54" class="edge">
<title>d2&#45;&gt;d3</title>
<path fill="none" stroke="black" stroke-dasharray="1,5" d="M4085.23,-538C4095.88,-538 4150.89,-538 4175.5,-538"/>
<polygon fill="black" stroke="black" points="4175.57,-541.5 4185.57,-538 4175.57,-534.5 4175.57,-541.5"/>
<text text-anchor="middle" x="4135.43" y="-544.8" font-family="Times,serif" font-size="14.00">Declaration</text>
</g>
<!-- d4 -->
<!-- d5 -->
<!-- d4&#45;&gt;d5 -->
<g id="edge55" class="edge">
<title>d4&#45;&gt;d5</title>
<path fill="none" stroke="blue" d="M3942.53,-538C3955.15,-538 4021.31,-538 4049.11,-538"/>
<polygon fill="blue" stroke="blue" points="4049.27,-541.5 4059.27,-538 4049.27,-534.5 4049.27,-541.5"/>
<text text-anchor="middle" x="4000.93" y="-544.8" font-family="Times,serif" font-size="14.00">PHI Data flow</text>
</g>
<!-- d6 -->
<!-- d7 -->
<!-- d6&#45;&gt;d7 -->
<g id="edge56" class="edge">
<title>d6&#45;&gt;d7</title>
<path fill="none" stroke="green" d="M3805.42,-538C3817.36,-538 3879.73,-538 3906.35,-538"/>
<polygon fill="green" stroke="green" points="3906.37,-541.5 3916.37,-538 3906.37,-534.5 3906.37,-541.5"/>
<text text-anchor="middle" x="3860.93" y="-544.8" font-family="Times,serif" font-size="14.00">Memory flow</text>
</g>
</g>
</svg>
