<?xml version="1.0" encoding="UTF-8" standalone="no"?>
<!DOCTYPE svg PUBLIC "-//W3C//DTD SVG 1.1//EN"
 "http://www.w3.org/Graphics/SVG/1.1/DTD/svg11.dtd">
<!-- Generated by graphviz version 2.43.0 (0)
 -->
<!-- Title: %3 Pages: 1 -->
<svg width="4521pt" height="587pt"
 viewBox="0.00 0.00 4520.84 586.80" xmlns="http://www.w3.org/2000/svg" xmlns:xlink="http://www.w3.org/1999/xlink">
<g id="graph0" class="graph" transform="scale(1 1) rotate(0) translate(4 582.8)">
<title>%3</title>
<polygon fill="white" stroke="transparent" points="-4,4 -4,-582.8 4516.84,-582.8 4516.84,4 -4,4"/>
<g id="clust1" class="cluster">
<title>cluster_0</title>
<polygon fill="none" stroke="lightgray" points="4037.84,-138 4037.84,-263 4371.84,-263 4371.84,-138 4037.84,-138"/>
</g>
<g id="clust2" class="cluster">
<title>cluster_1</title>
<polygon fill="none" stroke="lightgray" points="3280.84,-357 3280.84,-482 3682.84,-482 3682.84,-357 3280.84,-357"/>
</g>
<g id="clust3" class="cluster">
<title>cluster_000</title>
<polygon fill="none" stroke="black" points="3650.84,-528.2 3650.84,-570.8 4503.84,-570.8 4503.84,-528.2 3650.84,-528.2"/>
<text text-anchor="middle" x="4077.34" y="-555.6" font-family="Times,serif" font-size="14.00">Legend</text>
</g>
<!-- node0 -->
<g id="node1" class="node">
<title>node0</title>
<polygon fill="lightgrey" stroke="transparent" points="3641.34,-565 3456.34,-565 3456.34,-511 3641.34,-511 3641.34,-565"/>
<polygon fill="none" stroke="black" points="3456.84,-538 3456.84,-565 3641.84,-565 3641.84,-538 3456.84,-538"/>
<text text-anchor="start" x="3508.84" y="-547.8" font-family="Times,serif" font-size="14.00">#0 Method</text>
<polygon fill="yellow" stroke="transparent" points="3456.84,-511 3456.84,-538 3641.84,-538 3641.84,-511 3456.84,-511"/>
<polygon fill="none" stroke="black" points="3456.84,-511 3456.84,-538 3641.84,-538 3641.84,-511 3456.84,-511"/>
<text text-anchor="start" x="3462.84" y="-520.8" font-family="Times,serif" font-size="14.00">this : MethodInvokeTest</text>
</g>
<!-- node2 -->
<g id="node2" class="node">
<title>node2</title>
<polygon fill="lightgrey" stroke="black" points="3608.34,-474 3489.34,-474 3489.34,-438 3608.34,-438 3608.34,-474"/>
<text text-anchor="middle" x="3548.84" y="-452.3" font-family="Times,serif" font-size="14.00">#2 LabelNode</text>
</g>
<!-- node0&#45;&gt;node2 -->
<g id="edge1" class="edge">
<title>node0&#45;&gt;node2</title>
<path fill="none" stroke="red" d="M3548.84,-510.81C3548.84,-502.35 3548.84,-492.95 3548.84,-484.4"/>
<polygon fill="red" stroke="red" points="3552.34,-484.17 3548.84,-474.17 3545.34,-484.17 3552.34,-484.17"/>
</g>
<!-- node4 -->
<g id="node3" class="node">
<title>node4</title>
<polygon fill="lightgrey" stroke="black" points="3644.34,-328 3539.34,-328 3539.34,-292 3644.34,-292 3644.34,-328"/>
<text text-anchor="middle" x="3591.84" y="-306.3" font-family="Times,serif" font-size="14.00">#4 ClassInit</text>
</g>
<!-- node0&#45;&gt;node4 -->
<g id="edge4" class="edge">
<title>node0&#45;&gt;node4</title>
<path fill="none" stroke="green" d="M3633.3,-510.95C3657.24,-501.97 3678.96,-491.72 3686.84,-482 3722.05,-438.58 3723.35,-408.17 3700.84,-357 3692.49,-338.02 3673.77,-326.85 3654.15,-320.29"/>
<polygon fill="green" stroke="green" points="3655.08,-316.91 3644.5,-317.43 3653.09,-323.62 3655.08,-316.91"/>
</g>
<!-- node2&#45;&gt;node4 -->
<g id="edge3" class="edge">
<title>node2&#45;&gt;node4</title>
<path fill="none" stroke="red" d="M3608.63,-446.62C3636.39,-439.4 3666.93,-425.98 3683.84,-401 3694.8,-384.81 3694.12,-373.63 3683.84,-357 3676.73,-345.5 3665.78,-336.78 3653.88,-330.2"/>
<polygon fill="red" stroke="red" points="3655.16,-326.92 3644.65,-325.57 3652.02,-333.18 3655.16,-326.92"/>
</g>
<!-- node3 -->
<g id="node4" class="node">
<title>node3</title>
<polygon fill="lightgreen" stroke="black" points="3675.26,-375.54 3675.26,-390.46 3561.96,-401 3401.72,-401 3288.42,-390.46 3288.42,-375.54 3401.72,-365 3561.96,-365 3675.26,-375.54"/>
<text text-anchor="middle" x="3481.84" y="-379.3" font-family="Times,serif" font-size="14.00">#3 Class MethodInvokeTest$Source</text>
</g>
<!-- node2&#45;&gt;node3 -->
<g id="edge5" class="edge">
<title>node2&#45;&gt;node3</title>
<path fill="none" stroke="black" stroke-dasharray="1,5" d="M3532.62,-437.81C3524.31,-429 3514.04,-418.13 3504.92,-408.46"/>
<polygon fill="black" stroke="black" points="3507.32,-405.9 3497.91,-401.03 3502.23,-410.7 3507.32,-405.9"/>
</g>
<!-- node6 -->
<g id="node5" class="node">
<title>node6</title>
<polygon fill="lightgrey" stroke="black" points="4027.84,-182 3777.84,-182 3777.84,-146 4027.84,-146 4027.84,-182"/>
<text text-anchor="middle" x="3902.84" y="-160.3" font-family="Times,serif" font-size="14.00">#6 Invoke special &lt;init&gt; : ()void</text>
</g>
<!-- node4&#45;&gt;node6 -->
<g id="edge7" class="edge">
<title>node4&#45;&gt;node6</title>
<path fill="none" stroke="red" d="M3628.74,-291.92C3685.67,-265.55 3794.82,-215.01 3856.83,-186.3"/>
<polygon fill="red" stroke="red" points="3858.39,-189.44 3865.99,-182.06 3855.44,-183.09 3858.39,-189.44"/>
</g>
<!-- node5 -->
<g id="node6" class="node">
<title>node5</title>
<polygon fill="orange" stroke="black" points="2213.96,-229.54 2213.96,-244.46 2183.43,-255 2140.25,-255 2109.72,-244.46 2109.72,-229.54 2140.25,-219 2183.43,-219 2213.96,-229.54"/>
<text text-anchor="middle" x="2161.84" y="-233.3" font-family="Times,serif" font-size="14.00">#5 New</text>
</g>
<!-- node4&#45;&gt;node5 -->
<g id="edge9" class="edge">
<title>node4&#45;&gt;node5</title>
<path fill="none" stroke="black" d="M3539.09,-306.51C3317.53,-295.78 2463.18,-253.36 2224.22,-241.25"/>
<polygon fill="black" stroke="black" points="2224.14,-237.74 2213.97,-240.73 2223.78,-244.73 2224.14,-237.74"/>
<text text-anchor="middle" x="2232.5" y="-229.51" font-family="Times,serif" font-size="14.00">*0</text>
</g>
<!-- node4&#45;&gt;node5 -->
<g id="edge10" class="edge">
<title>node4&#45;&gt;node5</title>
<path fill="none" stroke="green" d="M3539.04,-306.24C3317.49,-294.98 2463.8,-252.59 2224.48,-240.97"/>
<polygon fill="green" stroke="green" points="2224.38,-237.46 2214.22,-240.47 2224.04,-244.45 2224.38,-237.46"/>
</g>
<!-- node3&#45;&gt;node4 -->
<g id="edge2" class="edge">
<title>node3&#45;&gt;node4</title>
<path fill="none" stroke="black" d="M3508.19,-364.99C3522.77,-355.58 3541.09,-343.76 3556.86,-333.57"/>
<polygon fill="black" stroke="black" points="3558.82,-336.48 3565.32,-328.11 3555.02,-330.6 3558.82,-336.48"/>
<text text-anchor="middle" x="3554.68" y="-341.34" font-family="Times,serif" font-size="14.00">*0</text>
</g>
<!-- node7 -->
<g id="node8" class="node">
<title>node7</title>
<polygon fill="orange" stroke="black" points="3400.35,-156.54 3400.35,-171.46 3305.15,-182 3170.52,-182 3075.32,-171.46 3075.32,-156.54 3170.52,-146 3305.15,-146 3400.35,-156.54"/>
<text text-anchor="middle" x="3237.84" y="-160.3" font-family="Times,serif" font-size="14.00">#7 GetField : byte_field : byte</text>
</g>
<!-- node6&#45;&gt;node7 -->
<g id="edge14" class="edge">
<title>node6&#45;&gt;node7</title>
<path fill="none" stroke="green" d="M3845.72,-182.07C3819.79,-189.36 3788.57,-196.89 3759.84,-200.5 3609.02,-219.44 3569.08,-215.68 3417.84,-200.5 3384.92,-197.2 3349.11,-190.57 3318.16,-183.86"/>
<polygon fill="green" stroke="green" points="3318.82,-180.42 3308.3,-181.69 3317.31,-187.26 3318.82,-180.42"/>
</g>
<!-- node17 -->
<g id="node20" class="node">
<title>node17</title>
<polygon fill="lightgrey" stroke="black" points="4268.84,-255 4140.84,-255 4140.84,-219 4268.84,-219 4268.84,-255"/>
<text text-anchor="middle" x="4204.84" y="-233.3" font-family="Times,serif" font-size="14.00">#17 LabelNode</text>
</g>
<!-- node6&#45;&gt;node17 -->
<g id="edge31" class="edge">
<title>node6&#45;&gt;node17</title>
<path fill="none" stroke="red" d="M3975.27,-182.03C4022.34,-193.1 4083.54,-207.48 4130.9,-218.62"/>
<polygon fill="red" stroke="red" points="4130.26,-222.06 4140.79,-220.94 4131.86,-215.25 4130.26,-222.06"/>
</g>
<!-- node5&#45;&gt;node6 -->
<g id="edge6" class="edge">
<title>node5&#45;&gt;node6</title>
<path fill="none" stroke="black" d="M2214.01,-235.99C2414.42,-235.58 3153.23,-230.57 3759.84,-182 3762.39,-181.8 3764.98,-181.58 3767.58,-181.35"/>
<polygon fill="black" stroke="black" points="3768.07,-184.82 3777.71,-180.4 3767.42,-177.85 3768.07,-184.82"/>
<text text-anchor="middle" x="3760.44" y="-186.8" font-family="Times,serif" font-size="14.00">*0</text>
</g>
<!-- node5&#45;&gt;node6 -->
<g id="edge8" class="edge">
<title>node5&#45;&gt;node6</title>
<path fill="none" stroke="green" d="M2214.17,-236.01C2415.17,-235.68 3156.24,-231.15 3767.84,-182.8"/>
<polygon fill="green" stroke="green" points="3768.5,-186.25 3778.19,-181.97 3767.94,-179.28 3768.5,-186.25"/>
</g>
<!-- node8 -->
<g id="node7" class="node">
<title>node8</title>
<polygon fill="orange" stroke="black" points="3039.89,-156.54 3039.89,-171.46 2925.04,-182 2762.63,-182 2647.79,-171.46 2647.79,-156.54 2762.63,-146 2925.04,-146 3039.89,-156.54"/>
<text text-anchor="middle" x="2843.84" y="-160.3" font-family="Times,serif" font-size="14.00">#8 GetField : boolean_field : boolean</text>
</g>
<!-- node5&#45;&gt;node8 -->
<g id="edge11" class="edge">
<title>node5&#45;&gt;node8</title>
<path fill="none" stroke="black" d="M2213.94,-230.58C2318.5,-219.69 2556.84,-194.88 2708.51,-179.09"/>
<polygon fill="black" stroke="black" points="2709.24,-182.53 2718.83,-178.01 2708.52,-175.57 2709.24,-182.53"/>
<text text-anchor="middle" x="2701.67" y="-184.6" font-family="Times,serif" font-size="14.00">*0</text>
</g>
<!-- node5&#45;&gt;node7 -->
<g id="edge13" class="edge">
<title>node5&#45;&gt;node7</title>
<path fill="none" stroke="black" d="M2214.11,-233.35C2351.15,-226.28 2732.12,-205.88 3048.84,-182 3068.09,-180.55 3088.43,-178.87 3108.35,-177.15"/>
<polygon fill="black" stroke="black" points="3108.75,-180.63 3118.41,-176.27 3108.14,-173.65 3108.75,-180.63"/>
<text text-anchor="middle" x="3101.08" y="-182.56" font-family="Times,serif" font-size="14.00">*0</text>
</g>
<!-- node9 -->
<g id="node11" class="node">
<title>node9</title>
<polygon fill="orange" stroke="black" points="3759.74,-156.54 3759.74,-171.46 3659.63,-182 3518.05,-182 3417.94,-171.46 3417.94,-156.54 3518.05,-146 3659.63,-146 3759.74,-156.54"/>
<text text-anchor="middle" x="3588.84" y="-160.3" font-family="Times,serif" font-size="14.00">#9 GetField : short_field : short</text>
</g>
<!-- node5&#45;&gt;node9 -->
<g id="edge47" class="edge">
<title>node5&#45;&gt;node9</title>
<path fill="none" stroke="black" d="M2213.9,-234.71C2385.17,-230.25 2946.57,-214 3409.84,-182 3426.37,-180.86 3443.74,-179.46 3460.89,-177.96"/>
<polygon fill="black" stroke="black" points="3461.31,-181.44 3470.96,-177.06 3460.69,-174.46 3461.31,-181.44"/>
<text text-anchor="middle" x="3453.65" y="-183.39" font-family="Times,serif" font-size="14.00">*0</text>
</g>
<!-- node10 -->
<g id="node12" class="node">
<title>node10</title>
<polygon fill="orange" stroke="black" points="337.51,-156.54 337.51,-171.46 238.71,-182 98.97,-182 0.16,-171.46 0.16,-156.54 98.97,-146 238.71,-146 337.51,-156.54"/>
<text text-anchor="middle" x="168.84" y="-160.3" font-family="Times,serif" font-size="14.00">#10 GetField : char_field : char</text>
</g>
<!-- node5&#45;&gt;node10 -->
<g id="edge45" class="edge">
<title>node5&#45;&gt;node10</title>
<path fill="none" stroke="black" d="M2109.57,-235.52C1894.1,-233.3 1053.61,-222.39 363.84,-182 343.04,-180.78 321.03,-179.17 299.57,-177.43"/>
<polygon fill="black" stroke="black" points="299.68,-173.93 289.42,-176.59 299.1,-180.9 299.68,-173.93"/>
<text text-anchor="middle" x="308.18" y="-165.96" font-family="Times,serif" font-size="14.00">*0</text>
</g>
<!-- node11 -->
<g id="node13" class="node">
<title>node11</title>
<polygon fill="orange" stroke="black" points="676.75,-156.54 676.75,-171.46 587.76,-182 461.92,-182 372.93,-171.46 372.93,-156.54 461.92,-146 587.76,-146 676.75,-156.54"/>
<text text-anchor="middle" x="524.84" y="-160.3" font-family="Times,serif" font-size="14.00">#11 GetField : int_field : int</text>
</g>
<!-- node5&#45;&gt;node11 -->
<g id="edge43" class="edge">
<title>node5&#45;&gt;node11</title>
<path fill="none" stroke="black" d="M2109.48,-235.15C1920.09,-231.85 1252.94,-218.21 703.84,-182 684.87,-180.75 664.8,-179.13 645.23,-177.39"/>
<polygon fill="black" stroke="black" points="645.32,-173.89 635.04,-176.47 644.69,-180.86 645.32,-173.89"/>
<text text-anchor="middle" x="653.86" y="-165.98" font-family="Times,serif" font-size="14.00">*0</text>
</g>
<!-- node12 -->
<g id="node14" class="node">
<title>node12</title>
<polygon fill="orange" stroke="black" points="1049.11,-156.54 1049.11,-171.46 950.54,-182 811.14,-182 712.57,-171.46 712.57,-156.54 811.14,-146 950.54,-146 1049.11,-156.54"/>
<text text-anchor="middle" x="880.84" y="-160.3" font-family="Times,serif" font-size="14.00">#12 GetField : long_field : long</text>
</g>
<!-- node5&#45;&gt;node12 -->
<g id="edge41" class="edge">
<title>node5&#45;&gt;node12</title>
<path fill="none" stroke="black" d="M2109.75,-234.11C1953.11,-228.28 1472.58,-209.3 1074.84,-182 1054.84,-180.63 1033.69,-178.98 1013.01,-177.26"/>
<polygon fill="black" stroke="black" points="1013.16,-173.76 1002.9,-176.4 1012.57,-180.73 1013.16,-173.76"/>
<text text-anchor="middle" x="1021.67" y="-165.8" font-family="Times,serif" font-size="14.00">*0</text>
</g>
<!-- node13 -->
<g id="node15" class="node">
<title>node13</title>
<polygon fill="orange" stroke="black" points="1421.51,-156.54 1421.51,-171.46 1322.71,-182 1182.97,-182 1084.16,-171.46 1084.16,-156.54 1182.97,-146 1322.71,-146 1421.51,-156.54"/>
<text text-anchor="middle" x="1252.84" y="-160.3" font-family="Times,serif" font-size="14.00">#13 GetField : float_field : float</text>
</g>
<!-- node5&#45;&gt;node13 -->
<g id="edge39" class="edge">
<title>node5&#45;&gt;node13</title>
<path fill="none" stroke="black" d="M2109.42,-232.24C1991.3,-223.73 1695.33,-202.15 1447.84,-182 1428.5,-180.43 1408.08,-178.71 1388.04,-176.99"/>
<polygon fill="black" stroke="black" points="1388.18,-173.49 1377.91,-176.12 1387.58,-180.46 1388.18,-173.49"/>
<text text-anchor="middle" x="1396.7" y="-165.55" font-family="Times,serif" font-size="14.00">*0</text>
</g>
<!-- node14 -->
<g id="node16" class="node">
<title>node14</title>
<polygon fill="orange" stroke="black" points="1840.95,-156.54 1840.95,-171.46 1728.41,-182 1569.26,-182 1456.73,-171.46 1456.73,-156.54 1569.26,-146 1728.41,-146 1840.95,-156.54"/>
<text text-anchor="middle" x="1648.84" y="-160.3" font-family="Times,serif" font-size="14.00">#14 GetField : double_field : double</text>
</g>
<!-- node5&#45;&gt;node14 -->
<g id="edge37" class="edge">
<title>node5&#45;&gt;node14</title>
<path fill="none" stroke="black" d="M2111.25,-229C2031.21,-217.92 1873.34,-196.07 1764.5,-181.01"/>
<polygon fill="black" stroke="black" points="1764.83,-177.52 1754.45,-179.62 1763.87,-184.45 1764.83,-177.52"/>
<text text-anchor="middle" x="1773.56" y="-170.03" font-family="Times,serif" font-size="14.00">*0</text>
</g>
<!-- node15 -->
<g id="node17" class="node">
<title>node15</title>
<polygon fill="orange" stroke="black" points="2249.19,-156.54 2249.19,-171.46 2140.03,-182 1985.65,-182 1876.49,-171.46 1876.49,-156.54 1985.65,-146 2140.03,-146 2249.19,-156.54"/>
<text text-anchor="middle" x="2062.84" y="-160.3" font-family="Times,serif" font-size="14.00">#15 GetField : string_field : String</text>
</g>
<!-- node5&#45;&gt;node15 -->
<g id="edge35" class="edge">
<title>node5&#45;&gt;node15</title>
<path fill="none" stroke="black" d="M2138.63,-219.35C2125.66,-210.05 2109.3,-198.32 2095.1,-188.14"/>
<polygon fill="black" stroke="black" points="2096.76,-185.02 2086.59,-182.04 2092.68,-190.71 2096.76,-185.02"/>
<text text-anchor="middle" x="2106.25" y="-182.03" font-family="Times,serif" font-size="14.00">*0</text>
</g>
<!-- node16 -->
<g id="node18" class="node">
<title>node16</title>
<polygon fill="orange" stroke="black" points="2629.05,-156.54 2629.05,-171.46 2528.17,-182 2385.51,-182 2284.63,-171.46 2284.63,-156.54 2385.51,-146 2528.17,-146 2629.05,-156.54"/>
<text text-anchor="middle" x="2456.84" y="-160.3" font-family="Times,serif" font-size="14.00">#16 GetField : array_field : int[]</text>
</g>
<!-- node5&#45;&gt;node16 -->
<g id="edge33" class="edge">
<title>node5&#45;&gt;node16</title>
<path fill="none" stroke="black" d="M2203.79,-225.9C2248.51,-215.14 2320.41,-197.84 2376.16,-184.42"/>
<polygon fill="black" stroke="black" points="2377.11,-187.79 2386.02,-182.05 2375.47,-180.98 2377.11,-187.79"/>
<text text-anchor="middle" x="2370.37" y="-190.8" font-family="Times,serif" font-size="14.00">*0</text>
</g>
<!-- node20 -->
<g id="node9" class="node">
<title>node20</title>
<polygon fill="lightgrey" stroke="black" points="2521.34,-109 1812.34,-109 1812.34,-73 2521.34,-73 2521.34,-109"/>
<text text-anchor="middle" x="2166.84" y="-87.3" font-family="Times,serif" font-size="14.00">#20 Invoke static simple_method : (byte,boolean,short,char,int,long,float,double,String,int[])void</text>
</g>
<!-- node8&#45;&gt;node20 -->
<g id="edge17" class="edge">
<title>node8&#45;&gt;node20</title>
<path fill="none" stroke="black" d="M2731.37,-148.87C2701.02,-145.19 2668.19,-141.32 2637.84,-138 2547.1,-128.06 2446.41,-118.09 2361.5,-109.98"/>
<polygon fill="black" stroke="black" points="2361.77,-106.49 2351.48,-109.02 2361.11,-113.46 2361.77,-106.49"/>
<text text-anchor="middle" x="2370.33" y="-98.63" font-family="Times,serif" font-size="14.00">*2</text>
</g>
<!-- node8&#45;&gt;node9 -->
<g id="edge48" class="edge">
<title>node8&#45;&gt;node9</title>
<path fill="none" stroke="green" d="M2932.58,-181.36C2975.38,-188.87 3027.58,-196.79 3074.84,-200.5 3219.28,-211.84 3256.61,-214.37 3400.84,-200.5 3435.18,-197.2 3472.57,-190.57 3504.89,-183.87"/>
<polygon fill="green" stroke="green" points="3505.69,-187.28 3514.75,-181.79 3504.25,-180.43 3505.69,-187.28"/>
</g>
<!-- node7&#45;&gt;node8 -->
<g id="edge12" class="edge">
<title>node7&#45;&gt;node8</title>
<path fill="none" stroke="green" d="M3075.22,-164C3066.89,-164 3058.56,-164 3050.23,-164"/>
<polygon fill="green" stroke="green" points="3050.07,-160.5 3040.07,-164 3050.07,-167.5 3050.07,-160.5"/>
</g>
<!-- node7&#45;&gt;node20 -->
<g id="edge16" class="edge">
<title>node7&#45;&gt;node20</title>
<path fill="none" stroke="black" d="M3143.31,-149C3113.17,-144.94 3079.65,-140.84 3048.84,-138 2879.26,-122.39 2690.82,-111.66 2531.79,-104.53"/>
<polygon fill="black" stroke="black" points="2531.51,-101.01 2521.36,-104.06 2531.2,-108 2531.51,-101.01"/>
<text text-anchor="middle" x="2539.85" y="-92.72" font-family="Times,serif" font-size="14.00">*1</text>
</g>
<!-- node21 -->
<g id="node21" class="node">
<title>node21</title>
<polygon fill="lightgrey" stroke="black" points="2217.34,-36 2116.34,-36 2116.34,0 2217.34,0 2217.34,-36"/>
<text text-anchor="middle" x="2166.84" y="-14.3" font-family="Times,serif" font-size="14.00">#21 Return</text>
</g>
<!-- node20&#45;&gt;node21 -->
<g id="edge49" class="edge">
<title>node20&#45;&gt;node21</title>
<path fill="none" stroke="red" d="M2160.96,-72.81C2160.12,-64.79 2159.89,-55.05 2160.26,-46.07"/>
<polygon fill="red" stroke="red" points="2163.76,-46.25 2160.98,-36.03 2156.77,-45.75 2163.76,-46.25"/>
</g>
<!-- node20&#45;&gt;node21 -->
<g id="edge50" class="edge">
<title>node20&#45;&gt;node21</title>
<path fill="none" stroke="green" d="M2172.72,-72.81C2173.56,-64.79 2173.79,-55.05 2173.42,-46.07"/>
<polygon fill="green" stroke="green" points="2176.9,-45.75 2172.7,-36.03 2169.92,-46.25 2176.9,-45.75"/>
</g>
<!-- node19 -->
<g id="node10" class="node">
<title>node19</title>
<polygon fill="lightgrey" stroke="black" points="4512.84,-182 4398.84,-182 4398.84,-146 4512.84,-146 4512.84,-182"/>
<text text-anchor="middle" x="4455.84" y="-160.3" font-family="Times,serif" font-size="14.00">#19 ClassInit</text>
</g>
<!-- node19&#45;&gt;node20 -->
<g id="edge15" class="edge">
<title>node19&#45;&gt;node20</title>
<path fill="none" stroke="black" d="M4398.51,-148.02C4385.1,-143.99 4371.05,-140.16 4357.84,-138 4182.83,-109.42 3108.15,-98.13 2531.56,-94.06"/>
<polygon fill="black" stroke="black" points="2531.44,-90.56 2521.42,-93.99 2531.4,-97.56 2531.44,-90.56"/>
<text text-anchor="middle" x="2539.61" y="-81.96" font-family="Times,serif" font-size="14.00">*0</text>
</g>
<!-- node19&#45;&gt;node20 -->
<g id="edge26" class="edge">
<title>node19&#45;&gt;node20</title>
<path fill="none" stroke="green" d="M4408.99,-145.95C4398.24,-142.71 4386.75,-139.78 4375.84,-138 4199.71,-109.24 3112.39,-97.99 2531.67,-93.98"/>
<polygon fill="green" stroke="green" points="2531.48,-90.48 2521.45,-93.91 2531.43,-97.48 2531.48,-90.48"/>
</g>
<!-- node19&#45;&gt;node20 -->
<g id="edge27" class="edge">
<title>node19&#45;&gt;node20</title>
<path fill="none" stroke="red" d="M4426.52,-145.95C4416.24,-142.71 4404.75,-139.78 4393.84,-138 4216.6,-109.06 3116.56,-97.84 2531.63,-93.91"/>
<polygon fill="red" stroke="red" points="2531.36,-90.41 2521.34,-93.84 2531.32,-97.41 2531.36,-90.41"/>
</g>
<!-- node9&#45;&gt;node20 -->
<g id="edge18" class="edge">
<title>node9&#45;&gt;node20</title>
<path fill="none" stroke="black" d="M3496.14,-148.22C3468.44,-144.3 3437.97,-140.48 3409.84,-138 3115.05,-112.03 2779.68,-100.68 2531.65,-95.74"/>
<polygon fill="black" stroke="black" points="2531.46,-92.24 2521.39,-95.54 2531.32,-99.24 2531.46,-92.24"/>
<text text-anchor="middle" x="2539.68" y="-83.75" font-family="Times,serif" font-size="14.00">*3</text>
</g>
<!-- node9&#45;&gt;node10 -->
<g id="edge46" class="edge">
<title>node9&#45;&gt;node10</title>
<path fill="none" stroke="green" d="M3514.75,-181.79C3480.34,-189.17 3438.73,-196.86 3400.84,-200.5 3233.39,-216.6 540.4,-215.37 372.84,-200.5 334.35,-197.08 292.25,-190.11 256.34,-183.16"/>
<polygon fill="green" stroke="green" points="256.87,-179.7 246.38,-181.21 255.52,-186.57 256.87,-179.7"/>
</g>
<!-- node10&#45;&gt;node20 -->
<g id="edge19" class="edge">
<title>node10&#45;&gt;node20</title>
<path fill="none" stroke="black" d="M264.85,-148.71C296.32,-144.56 331.51,-140.48 363.84,-138 633.02,-117.37 1357.6,-103.66 1801.96,-96.91"/>
<polygon fill="black" stroke="black" points="1802.13,-100.41 1812.07,-96.76 1802.02,-93.41 1802.13,-100.41"/>
<text text-anchor="middle" x="1794.08" y="-101.78" font-family="Times,serif" font-size="14.00">*4</text>
</g>
<!-- node10&#45;&gt;node11 -->
<g id="edge44" class="edge">
<title>node10&#45;&gt;node11</title>
<path fill="none" stroke="green" d="M337.8,-164C346.11,-164 354.42,-164 362.73,-164"/>
<polygon fill="green" stroke="green" points="362.87,-167.5 372.87,-164 362.87,-160.5 362.87,-167.5"/>
</g>
<!-- node11&#45;&gt;node20 -->
<g id="edge20" class="edge">
<title>node11&#45;&gt;node20</title>
<path fill="none" stroke="black" d="M612.48,-148.85C641.49,-144.67 673.98,-140.55 703.84,-138 1077.18,-106.15 1505.8,-95.73 1802.16,-92.62"/>
<polygon fill="black" stroke="black" points="1802.25,-96.12 1812.21,-92.52 1802.17,-89.12 1802.25,-96.12"/>
<text text-anchor="middle" x="1794.17" y="-97.45" font-family="Times,serif" font-size="14.00">*5</text>
</g>
<!-- node11&#45;&gt;node12 -->
<g id="edge42" class="edge">
<title>node11&#45;&gt;node12</title>
<path fill="none" stroke="green" d="M676.76,-164C685.36,-164 693.95,-164 702.55,-164"/>
<polygon fill="green" stroke="green" points="702.64,-167.5 712.64,-164 702.64,-160.5 702.64,-167.5"/>
</g>
<!-- node12&#45;&gt;node20 -->
<g id="edge21" class="edge">
<title>node12&#45;&gt;node20</title>
<path fill="none" stroke="black" d="M977.86,-148.83C1008.8,-144.76 1043.2,-140.7 1074.84,-138 1316.78,-117.35 1589.71,-105.85 1802.18,-99.52"/>
<polygon fill="black" stroke="black" points="1802.36,-103.01 1812.26,-99.22 1802.16,-96.02 1802.36,-103.01"/>
<text text-anchor="middle" x="1794.39" y="-104.5" font-family="Times,serif" font-size="14.00">*6</text>
</g>
<!-- node12&#45;&gt;node13 -->
<g id="edge40" class="edge">
<title>node12&#45;&gt;node13</title>
<path fill="none" stroke="green" d="M1049.04,-164C1057.34,-164 1065.64,-164 1073.94,-164"/>
<polygon fill="green" stroke="green" points="1074.07,-167.5 1084.07,-164 1074.07,-160.5 1074.07,-167.5"/>
</g>
<!-- node13&#45;&gt;node20 -->
<g id="edge22" class="edge">
<title>node13&#45;&gt;node20</title>
<path fill="none" stroke="black" d="M1351.9,-149.06C1382.61,-145.07 1416.58,-141 1447.84,-138 1569.43,-126.33 1702.88,-116.87 1821.44,-109.63"/>
<polygon fill="black" stroke="black" points="1822,-113.1 1831.77,-109 1821.58,-106.12 1822,-113.1"/>
<text text-anchor="middle" x="1814.19" y="-114.84" font-family="Times,serif" font-size="14.00">*7</text>
</g>
<!-- node13&#45;&gt;node14 -->
<g id="edge38" class="edge">
<title>node13&#45;&gt;node14</title>
<path fill="none" stroke="green" d="M1421.83,-164C1429.94,-164 1438.04,-164 1446.15,-164"/>
<polygon fill="green" stroke="green" points="1446.42,-167.5 1456.42,-164 1446.42,-160.5 1446.42,-167.5"/>
</g>
<!-- node14&#45;&gt;node20 -->
<g id="edge23" class="edge">
<title>node14&#45;&gt;node20</title>
<path fill="none" stroke="black" d="M1754.91,-148.46C1835.2,-137.46 1946.04,-122.26 2032.52,-110.41"/>
<polygon fill="black" stroke="black" points="2033.24,-113.84 2042.68,-109.02 2032.29,-106.91 2033.24,-113.84"/>
<text text-anchor="middle" x="2025.87" y="-116.15" font-family="Times,serif" font-size="14.00">*8</text>
</g>
<!-- node14&#45;&gt;node15 -->
<g id="edge36" class="edge">
<title>node14&#45;&gt;node15</title>
<path fill="none" stroke="green" d="M1841.28,-164C1849.59,-164 1857.9,-164 1866.2,-164"/>
<polygon fill="green" stroke="green" points="1866.33,-167.5 1876.33,-164 1866.33,-160.5 1866.33,-167.5"/>
</g>
<!-- node15&#45;&gt;node20 -->
<g id="edge24" class="edge">
<title>node15&#45;&gt;node20</title>
<path fill="none" stroke="black" d="M2087.75,-145.99C2101.41,-136.67 2118.54,-124.97 2133.36,-114.86"/>
<polygon fill="black" stroke="black" points="2135.48,-117.64 2141.77,-109.11 2131.54,-111.86 2135.48,-117.64"/>
<text text-anchor="middle" x="2131.57" y="-122.61" font-family="Times,serif" font-size="14.00">*9</text>
</g>
<!-- node15&#45;&gt;node16 -->
<g id="edge34" class="edge">
<title>node15&#45;&gt;node16</title>
<path fill="none" stroke="green" d="M2249.45,-164C2257.7,-164 2265.96,-164 2274.21,-164"/>
<polygon fill="green" stroke="green" points="2274.28,-167.5 2284.28,-164 2274.28,-160.5 2274.28,-167.5"/>
</g>
<!-- node16&#45;&gt;node20 -->
<g id="edge25" class="edge">
<title>node16&#45;&gt;node20</title>
<path fill="none" stroke="black" d="M2387.38,-145.99C2344.92,-135.6 2290.49,-122.27 2246.32,-111.46"/>
<polygon fill="black" stroke="black" points="2247.03,-108.03 2236.49,-109.05 2245.37,-114.83 2247.03,-108.03"/>
<text text-anchor="middle" x="2256.1" y="-101.45" font-family="Times,serif" font-size="14.00">*10</text>
</g>
<!-- node16&#45;&gt;node19 -->
<g id="edge29" class="edge">
<title>node16&#45;&gt;node19</title>
<path fill="none" stroke="green" d="M2531.66,-181.69C2566.72,-189.1 2609.19,-196.84 2647.84,-200.5 2742.91,-209.5 4273.14,-218.97 4366.84,-200.5 4381.88,-197.54 4397.58,-192 4411.53,-186.12"/>
<polygon fill="green" stroke="green" points="4413.13,-189.25 4420.88,-182.03 4410.32,-182.84 4413.13,-189.25"/>
</g>
<!-- node18 -->
<g id="node19" class="node">
<title>node18</title>
<polygon fill="lightgreen" stroke="black" points="4363.82,-156.54 4363.82,-171.46 4270.69,-182 4138.99,-182 4045.86,-171.46 4045.86,-156.54 4138.99,-146 4270.69,-146 4363.82,-156.54"/>
<text text-anchor="middle" x="4204.84" y="-160.3" font-family="Times,serif" font-size="14.00">#18 Class MethodInvokeTest</text>
</g>
<!-- node18&#45;&gt;node19 -->
<g id="edge28" class="edge">
<title>node18&#45;&gt;node19</title>
<path fill="none" stroke="black" d="M4364.16,-164C4372.22,-164 4380.28,-164 4388.34,-164"/>
<polygon fill="black" stroke="black" points="4388.54,-167.5 4398.54,-164 4388.54,-160.5 4388.54,-167.5"/>
<text text-anchor="middle" x="4380.42" y="-168.75" font-family="Times,serif" font-size="14.00">*0</text>
</g>
<!-- node17&#45;&gt;node19 -->
<g id="edge30" class="edge">
<title>node17&#45;&gt;node19</title>
<path fill="none" stroke="red" d="M4264.96,-218.99C4302.24,-208.45 4350.19,-194.88 4388.71,-183.99"/>
<polygon fill="red" stroke="red" points="4390.12,-187.23 4398.79,-181.14 4388.22,-180.49 4390.12,-187.23"/>
</g>
<!-- node17&#45;&gt;node18 -->
<g id="edge32" class="edge">
<title>node17&#45;&gt;node18</title>
<path fill="none" stroke="black" stroke-dasharray="1,5" d="M4204.84,-218.81C4204.84,-210.79 4204.84,-201.05 4204.84,-192.07"/>
<polygon fill="black" stroke="black" points="4208.34,-192.03 4204.84,-182.03 4201.34,-192.03 4208.34,-192.03"/>
</g>
<!-- c0 -->
<!-- c1 -->
<!-- c0&#45;&gt;c1 -->
<g id="edge51" class="edge">
<title>c0&#45;&gt;c1</title>
<path fill="none" stroke="red" d="M4386.73,-538C4397.94,-538 4456.08,-538 4481.7,-538"/>
<polygon fill="red" stroke="red" points="4481.89,-541.5 4491.89,-538 4481.89,-534.5 4481.89,-541.5"/>
<text text-anchor="middle" x="4439.34" y="-544.8" font-family="Times,serif" font-size="14.00">Control flow</text>
</g>
<!-- c2 -->
<!-- c3 -->
<!-- c2&#45;&gt;c3 -->
<g id="edge52" class="edge">
<title>c2&#45;&gt;c3</title>
<path fill="none" stroke="red" stroke-dasharray="5,2" d="M4179.92,-538C4196.89,-538 4313.04,-538 4350.92,-538"/>
<polygon fill="red" stroke="red" points="4351.01,-541.5 4361.01,-538 4351.01,-534.5 4351.01,-541.5"/>
<text text-anchor="middle" x="4270.34" y="-544.8" font-family="Times,serif" font-size="14.00">Control flow back edge</text>
</g>
<!-- d0 -->
<!-- d1 -->
<!-- d0&#45;&gt;d1 -->
<g id="edge53" class="edge">
<title>d0&#45;&gt;d1</title>
<path fill="none" stroke="black" d="M4068.7,-538C4078.24,-538 4122.15,-538 4143.76,-538"/>
<polygon fill="black" stroke="black" points="4143.99,-541.5 4153.99,-538 4143.99,-534.5 4143.99,-541.5"/>
<text text-anchor="middle" x="4111.34" y="-544.8" font-family="Times,serif" font-size="14.00">Data flow</text>
</g>
<!-- d2 -->
<!-- d3 -->
<!-- d2&#45;&gt;d3 -->
<g id="edge54" class="edge">
<title>d2&#45;&gt;d3</title>
<path fill="none" stroke="black" stroke-dasharray="1,5" d="M3942.64,-538C3953.29,-538 4008.3,-538 4032.91,-538"/>
<polygon fill="black" stroke="black" points="4032.98,-541.5 4042.98,-538 4032.98,-534.5 4032.98,-541.5"/>
<text text-anchor="middle" x="3992.84" y="-544.8" font-family="Times,serif" font-size="14.00">Declaration</text>
</g>
<!-- d4 -->
<!-- d5 -->
<!-- d4&#45;&gt;d5 -->
<g id="edge55" class="edge">
<title>d4&#45;&gt;d5</title>
<path fill="none" stroke="blue" d="M3799.94,-538C3812.56,-538 3878.72,-538 3906.52,-538"/>
<polygon fill="blue" stroke="blue" points="3906.68,-541.5 3916.68,-538 3906.68,-534.5 3906.68,-541.5"/>
<text text-anchor="middle" x="3858.34" y="-544.8" font-family="Times,serif" font-size="14.00">PHI Data flow</text>
</g>
<!-- d6 -->
<!-- d7 -->
<!-- d6&#45;&gt;d7 -->
<g id="edge56" class="edge">
<title>d6&#45;&gt;d7</title>
<path fill="none" stroke="green" d="M3662.83,-538C3674.78,-538 3737.14,-538 3763.77,-538"/>
<polygon fill="green" stroke="green" points="3763.79,-541.5 3773.79,-538 3763.79,-534.5 3763.79,-541.5"/>
<text text-anchor="middle" x="3718.34" y="-544.8" font-family="Times,serif" font-size="14.00">Memory flow</text>
</g>
</g>
</svg>
