<?xml version="1.0" encoding="UTF-8" standalone="no"?>
<!DOCTYPE svg PUBLIC "-//W3C//DTD SVG 1.1//EN"
 "http://www.w3.org/Graphics/SVG/1.1/DTD/svg11.dtd">
<!-- Generated by graphviz version 2.43.0 (0)
 -->
<!-- Title: %3 Pages: 1 -->
<svg width="5124pt" height="662pt"
 viewBox="0.00 0.00 5124.43 662.00" xmlns="http://www.w3.org/2000/svg" xmlns:xlink="http://www.w3.org/1999/xlink">
<g id="graph0" class="graph" transform="scale(1 1) rotate(0) translate(4 658)">
<title>%3</title>
<polygon fill="white" stroke="transparent" points="-4,4 -4,-658 5120.43,-658 5120.43,4 -4,4"/>
<g id="clust1" class="cluster">
<title>cluster_0</title>
<polygon fill="none" stroke="lightgray" points="3521.43,-503 3521.43,-646 4247.43,-646 4247.43,-503 3521.43,-503"/>
</g>
<g id="clust2" class="cluster">
<title>cluster_000</title>
<polygon fill="none" stroke="black" points="4255.43,-601.2 4255.43,-643.8 5108.43,-643.8 5108.43,-601.2 4255.43,-601.2"/>
<text text-anchor="middle" x="4681.93" y="-628.6" font-family="Times,serif" font-size="14.00">Legend</text>
</g>
<!-- node0 -->
<g id="node1" class="node">
<title>node0</title>
<polygon fill="lightgrey" stroke="transparent" points="3814.93,-638 3629.93,-638 3629.93,-584 3814.93,-584 3814.93,-638"/>
<polygon fill="none" stroke="black" points="3630.43,-611 3630.43,-638 3815.43,-638 3815.43,-611 3630.43,-611"/>
<text text-anchor="start" x="3682.43" y="-620.8" font-family="Times,serif" font-size="14.00">#0 Method</text>
<polygon fill="yellow" stroke="transparent" points="3630.43,-584 3630.43,-611 3815.43,-611 3815.43,-584 3630.43,-584"/>
<polygon fill="none" stroke="black" points="3630.43,-584 3630.43,-611 3815.43,-611 3815.43,-584 3630.43,-584"/>
<text text-anchor="start" x="3636.43" y="-593.8" font-family="Times,serif" font-size="14.00">this : MethodInvokeTest</text>
</g>
<!-- node5 -->
<g id="node2" class="node">
<title>node5</title>
<polygon fill="lightgrey" stroke="black" points="3506.93,-474 3401.93,-474 3401.93,-438 3506.93,-438 3506.93,-474"/>
<text text-anchor="middle" x="3454.43" y="-452.3" font-family="Times,serif" font-size="14.00">#5 ClassInit</text>
</g>
<!-- node0&#45;&gt;node5 -->
<g id="edge3" class="edge">
<title>node0&#45;&gt;node5</title>
<path fill="none" stroke="green" d="M3629.81,-594.17C3593.33,-584.74 3552.56,-569.95 3520.43,-547 3507.98,-538.11 3485.79,-505.97 3470.61,-482.63"/>
<polygon fill="green" stroke="green" points="3473.52,-480.69 3465.16,-474.18 3467.64,-484.48 3473.52,-480.69"/>
</g>
<!-- node4 -->
<g id="node3" class="node">
<title>node4</title>
<polygon fill="lightgreen" stroke="black" points="3915.85,-521.54 3915.85,-536.46 3802.54,-547 3642.31,-547 3529,-536.46 3529,-521.54 3642.31,-511 3802.54,-511 3915.85,-521.54"/>
<text text-anchor="middle" x="3722.43" y="-525.3" font-family="Times,serif" font-size="14.00">#4 Class MethodInvokeTest$Source</text>
</g>
<!-- node0&#45;&gt;node4 -->
<g id="edge5" class="edge">
<title>node0&#45;&gt;node4</title>
<path fill="none" stroke="black" stroke-dasharray="1,5" d="M3722.43,-583.81C3722.43,-575.35 3722.43,-565.95 3722.43,-557.4"/>
<polygon fill="black" stroke="black" points="3725.93,-557.17 3722.43,-547.17 3718.93,-557.17 3725.93,-557.17"/>
</g>
<!-- node2 -->
<g id="node4" class="node">
<title>node2</title>
<polygon fill="lightgrey" stroke="black" points="3472.93,-547 3353.93,-547 3353.93,-511 3472.93,-511 3472.93,-547"/>
<text text-anchor="middle" x="3413.43" y="-525.3" font-family="Times,serif" font-size="14.00">#2 LabelNode</text>
</g>
<!-- node0&#45;&gt;node2 -->
<g id="edge4" class="edge">
<title>node0&#45;&gt;node2</title>
<path fill="none" stroke="red" d="M3629.85,-602.31C3581.47,-596.18 3521.96,-585.28 3471.43,-566 3462.4,-562.56 3453.24,-557.66 3444.95,-552.57"/>
<polygon fill="red" stroke="red" points="3446.65,-549.5 3436.34,-547.05 3442.87,-555.4 3446.65,-549.5"/>
</g>
<!-- node3 -->
<g id="node19" class="node">
<title>node3</title>
<polygon fill="lightgreen" stroke="black" points="4239.24,-521.54 4239.24,-536.46 4149.72,-547 4023.13,-547 3933.61,-536.46 3933.61,-521.54 4023.13,-511 4149.72,-511 4239.24,-521.54"/>
<text text-anchor="middle" x="4086.43" y="-525.3" font-family="Times,serif" font-size="14.00">#3 Class MethodInvokeTest</text>
</g>
<!-- node0&#45;&gt;node3 -->
<g id="edge48" class="edge">
<title>node0&#45;&gt;node3</title>
<path fill="none" stroke="black" stroke-dasharray="1,5" d="M3815.22,-589.61C3873.44,-576.81 3947.84,-560.46 4003.98,-548.12"/>
<polygon fill="black" stroke="black" points="4004.87,-551.51 4013.89,-545.94 4003.37,-544.67 4004.87,-551.51"/>
</g>
<!-- node7 -->
<g id="node5" class="node">
<title>node7</title>
<polygon fill="lightgrey" stroke="black" points="4058.43,-328 3808.43,-328 3808.43,-292 4058.43,-292 4058.43,-328"/>
<text text-anchor="middle" x="3933.43" y="-306.3" font-family="Times,serif" font-size="14.00">#7 Invoke special &lt;init&gt; : ()void</text>
</g>
<!-- node5&#45;&gt;node7 -->
<g id="edge7" class="edge">
<title>node5&#45;&gt;node7</title>
<path fill="none" stroke="red" d="M3507.06,-439.18C3594.81,-412.8 3770.87,-359.87 3867.02,-330.96"/>
<polygon fill="red" stroke="red" points="3868.06,-334.3 3876.63,-328.07 3866.05,-327.6 3868.06,-334.3"/>
</g>
<!-- node6 -->
<g id="node6" class="node">
<title>node6</title>
<polygon fill="orange" stroke="black" points="2234.54,-375.54 2234.54,-390.46 2204.01,-401 2160.84,-401 2130.31,-390.46 2130.31,-375.54 2160.84,-365 2204.01,-365 2234.54,-375.54"/>
<text text-anchor="middle" x="2182.43" y="-379.3" font-family="Times,serif" font-size="14.00">#6 New</text>
</g>
<!-- node5&#45;&gt;node6 -->
<g id="edge9" class="edge">
<title>node5&#45;&gt;node6</title>
<path fill="none" stroke="black" d="M3401.73,-452.22C3198.14,-441.14 2463.97,-400.16 2244.66,-387.65"/>
<polygon fill="black" stroke="black" points="2244.79,-384.15 2234.61,-387.08 2244.4,-391.14 2244.79,-384.15"/>
<text text-anchor="middle" x="2253.19" y="-375.97" font-family="Times,serif" font-size="14.00">*0</text>
</g>
<!-- node5&#45;&gt;node6 -->
<g id="edge10" class="edge">
<title>node5&#45;&gt;node6</title>
<path fill="none" stroke="green" d="M3401.92,-451.9C3198.65,-440.28 2464.29,-399.29 2244.77,-387.31"/>
<polygon fill="green" stroke="green" points="2244.89,-383.81 2234.71,-386.76 2244.51,-390.8 2244.89,-383.81"/>
</g>
<!-- node4&#45;&gt;node5 -->
<g id="edge1" class="edge">
<title>node4&#45;&gt;node5</title>
<path fill="none" stroke="black" d="M3658.23,-510.99C3615.51,-499.68 3559.66,-484.88 3517.22,-473.64"/>
<polygon fill="black" stroke="black" points="3517.85,-470.18 3507.29,-471.01 3516.06,-476.95 3517.85,-470.18"/>
<text text-anchor="middle" x="3526.98" y="-463.78" font-family="Times,serif" font-size="14.00">*0</text>
</g>
<!-- node2&#45;&gt;node5 -->
<g id="edge2" class="edge">
<title>node2&#45;&gt;node5</title>
<path fill="none" stroke="red" d="M3423.35,-510.81C3428.19,-502.44 3434.1,-492.2 3439.47,-482.9"/>
<polygon fill="red" stroke="red" points="3442.62,-484.44 3444.59,-474.03 3436.56,-480.94 3442.62,-484.44"/>
</g>
<!-- node8 -->
<g id="node15" class="node">
<title>node8</title>
<polygon fill="orange" stroke="black" points="3427.94,-302.54 3427.94,-317.46 3332.74,-328 3198.11,-328 3102.91,-317.46 3102.91,-302.54 3198.11,-292 3332.74,-292 3427.94,-302.54"/>
<text text-anchor="middle" x="3265.43" y="-306.3" font-family="Times,serif" font-size="14.00">#8 GetField : byte_field : byte</text>
</g>
<!-- node7&#45;&gt;node8 -->
<g id="edge28" class="edge">
<title>node7&#45;&gt;node8</title>
<path fill="none" stroke="green" d="M3876.31,-328.07C3850.38,-335.36 3819.15,-342.89 3790.43,-346.5 3638.73,-365.55 3598.56,-361.69 3446.43,-346.5 3413.33,-343.2 3377.32,-336.57 3346.2,-329.87"/>
<polygon fill="green" stroke="green" points="3346.8,-326.41 3336.28,-327.69 3345.3,-333.25 3346.8,-326.41"/>
</g>
<!-- node18 -->
<g id="node20" class="node">
<title>node18</title>
<polygon fill="lightgrey" stroke="black" points="3618.43,-255 3490.43,-255 3490.43,-219 3618.43,-219 3618.43,-255"/>
<text text-anchor="middle" x="3554.43" y="-233.3" font-family="Times,serif" font-size="14.00">#18 LabelNode</text>
</g>
<!-- node7&#45;&gt;node18 -->
<g id="edge45" class="edge">
<title>node7&#45;&gt;node18</title>
<path fill="none" stroke="red" d="M3842.65,-291.99C3777.2,-279.73 3689.95,-263.39 3628.66,-251.91"/>
<polygon fill="red" stroke="red" points="3629.14,-248.44 3618.67,-250.03 3627.85,-255.32 3629.14,-248.44"/>
</g>
<!-- node6&#45;&gt;node7 -->
<g id="edge6" class="edge">
<title>node6&#45;&gt;node7</title>
<path fill="none" stroke="black" d="M2234.6,-382.01C2435.78,-381.65 3179.69,-376.83 3790.43,-328 3792.98,-327.8 3795.57,-327.58 3798.17,-327.35"/>
<polygon fill="black" stroke="black" points="3798.66,-330.82 3808.29,-326.4 3798.01,-323.85 3798.66,-330.82"/>
<text text-anchor="middle" x="3791.03" y="-332.8" font-family="Times,serif" font-size="14.00">*0</text>
</g>
<!-- node6&#45;&gt;node7 -->
<g id="edge8" class="edge">
<title>node6&#45;&gt;node7</title>
<path fill="none" stroke="green" d="M2234.72,-382.02C2436.43,-381.75 3182.6,-377.41 3798.36,-328.8"/>
<polygon fill="green" stroke="green" points="3799.08,-332.25 3808.78,-327.97 3798.53,-325.27 3799.08,-332.25"/>
</g>
<!-- node16 -->
<g id="node7" class="node">
<title>node16</title>
<polygon fill="orange" stroke="black" points="372.78,-302.54 372.78,-317.46 263.61,-328 109.24,-328 0.07,-317.46 0.07,-302.54 109.24,-292 263.61,-292 372.78,-302.54"/>
<text text-anchor="middle" x="186.43" y="-306.3" font-family="Times,serif" font-size="14.00">#16 GetField : string_field : String</text>
</g>
<!-- node6&#45;&gt;node16 -->
<g id="edge11" class="edge">
<title>node6&#45;&gt;node16</title>
<path fill="none" stroke="black" d="M2130.24,-381.36C1916.02,-378.54 1083.19,-365.62 399.43,-328 376.74,-326.75 352.71,-325.13 329.29,-323.38"/>
<polygon fill="black" stroke="black" points="329.53,-319.89 319.3,-322.62 329,-326.87 329.53,-319.89"/>
<text text-anchor="middle" x="338.01" y="-311.86" font-family="Times,serif" font-size="14.00">*0</text>
</g>
<!-- node15 -->
<g id="node8" class="node">
<title>node15</title>
<polygon fill="orange" stroke="black" points="792.53,-302.54 792.53,-317.46 680,-328 520.85,-328 408.32,-317.46 408.32,-302.54 520.85,-292 680,-292 792.53,-302.54"/>
<text text-anchor="middle" x="600.43" y="-306.3" font-family="Times,serif" font-size="14.00">#15 GetField : double_field : double</text>
</g>
<!-- node6&#45;&gt;node15 -->
<g id="edge13" class="edge">
<title>node6&#45;&gt;node15</title>
<path fill="none" stroke="black" d="M2130.36,-380.66C1949.17,-375.83 1329.44,-358.03 818.43,-328 795.79,-326.67 771.86,-325.04 748.46,-323.31"/>
<polygon fill="black" stroke="black" points="748.7,-319.82 738.47,-322.57 748.18,-326.8 748.7,-319.82"/>
<text text-anchor="middle" x="757.17" y="-311.78" font-family="Times,serif" font-size="14.00">*0</text>
</g>
<!-- node14 -->
<g id="node9" class="node">
<title>node14</title>
<polygon fill="orange" stroke="black" points="1165.1,-302.54 1165.1,-317.46 1066.29,-328 926.56,-328 827.75,-317.46 827.75,-302.54 926.56,-292 1066.29,-292 1165.1,-302.54"/>
<text text-anchor="middle" x="996.43" y="-306.3" font-family="Times,serif" font-size="14.00">#14 GetField : float_field : float</text>
</g>
<!-- node6&#45;&gt;node14 -->
<g id="edge15" class="edge">
<title>node6&#45;&gt;node14</title>
<path fill="none" stroke="black" d="M2130.28,-379.76C1982.81,-373.29 1550.21,-353.41 1191.43,-328 1171.47,-326.59 1150.38,-324.92 1129.74,-323.2"/>
<polygon fill="black" stroke="black" points="1129.9,-319.7 1119.64,-322.35 1129.32,-326.68 1129.9,-319.7"/>
<text text-anchor="middle" x="1138.41" y="-311.75" font-family="Times,serif" font-size="14.00">*0</text>
</g>
<!-- node13 -->
<g id="node10" class="node">
<title>node13</title>
<polygon fill="orange" stroke="black" points="1536.7,-302.54 1536.7,-317.46 1438.13,-328 1298.73,-328 1200.16,-317.46 1200.16,-302.54 1298.73,-292 1438.13,-292 1536.7,-302.54"/>
<text text-anchor="middle" x="1368.43" y="-306.3" font-family="Times,serif" font-size="14.00">#13 GetField : long_field : long</text>
</g>
<!-- node6&#45;&gt;node13 -->
<g id="edge17" class="edge">
<title>node6&#45;&gt;node13</title>
<path fill="none" stroke="black" d="M2130.27,-377.45C2005.8,-366.59 1688.11,-338.88 1504.69,-322.89"/>
<polygon fill="black" stroke="black" points="1504.97,-319.4 1494.7,-322.01 1504.36,-326.37 1504.97,-319.4"/>
<text text-anchor="middle" x="1513.49" y="-311.47" font-family="Times,serif" font-size="14.00">*0</text>
</g>
<!-- node12 -->
<g id="node11" class="node">
<title>node12</title>
<polygon fill="orange" stroke="black" points="1876.33,-302.54 1876.33,-317.46 1787.35,-328 1661.5,-328 1572.52,-317.46 1572.52,-302.54 1661.5,-292 1787.35,-292 1876.33,-302.54"/>
<text text-anchor="middle" x="1724.43" y="-306.3" font-family="Times,serif" font-size="14.00">#12 GetField : int_field : int</text>
</g>
<!-- node6&#45;&gt;node12 -->
<g id="edge19" class="edge">
<title>node6&#45;&gt;node12</title>
<path fill="none" stroke="black" d="M2133.41,-374.4C2059.86,-363 1919.4,-341.22 1823.83,-326.41"/>
<polygon fill="black" stroke="black" points="1824.27,-322.94 1813.85,-324.86 1823.2,-329.85 1824.27,-322.94"/>
<text text-anchor="middle" x="1833.06" y="-315.59" font-family="Times,serif" font-size="14.00">*0</text>
</g>
<!-- node11 -->
<g id="node12" class="node">
<title>node11</title>
<polygon fill="orange" stroke="black" points="2249.1,-302.54 2249.1,-317.46 2150.29,-328 2010.56,-328 1911.75,-317.46 1911.75,-302.54 2010.56,-292 2150.29,-292 2249.1,-302.54"/>
<text text-anchor="middle" x="2080.43" y="-306.3" font-family="Times,serif" font-size="14.00">#11 GetField : char_field : char</text>
</g>
<!-- node6&#45;&gt;node11 -->
<g id="edge21" class="edge">
<title>node6&#45;&gt;node11</title>
<path fill="none" stroke="black" d="M2158.77,-365.53C2145.29,-356.15 2128.19,-344.25 2113.41,-333.96"/>
<polygon fill="black" stroke="black" points="2115.23,-330.96 2105.02,-328.12 2111.23,-336.7 2115.23,-330.96"/>
<text text-anchor="middle" x="2124.73" y="-327.84" font-family="Times,serif" font-size="14.00">*0</text>
</g>
<!-- node10 -->
<g id="node13" class="node">
<title>node10</title>
<polygon fill="orange" stroke="black" points="2639.49,-302.54 2639.49,-317.46 2535.77,-328 2389.08,-328 2285.37,-317.46 2285.37,-302.54 2389.08,-292 2535.77,-292 2639.49,-302.54"/>
<text text-anchor="middle" x="2462.43" y="-306.3" font-family="Times,serif" font-size="14.00">#10 GetField : short_field : short</text>
</g>
<!-- node6&#45;&gt;node10 -->
<g id="edge23" class="edge">
<title>node6&#45;&gt;node10</title>
<path fill="none" stroke="black" d="M2223.44,-371.6C2265.82,-360.85 2332.99,-343.82 2385.33,-330.55"/>
<polygon fill="black" stroke="black" points="2386.43,-333.88 2395.26,-328.03 2384.71,-327.1 2386.43,-333.88"/>
<text text-anchor="middle" x="2379.77" y="-336.98" font-family="Times,serif" font-size="14.00">*0</text>
</g>
<!-- node9 -->
<g id="node14" class="node">
<title>node9</title>
<polygon fill="orange" stroke="black" points="3067.47,-302.54 3067.47,-317.46 2952.63,-328 2790.22,-328 2675.38,-317.46 2675.38,-302.54 2790.22,-292 2952.63,-292 3067.47,-302.54"/>
<text text-anchor="middle" x="2871.43" y="-306.3" font-family="Times,serif" font-size="14.00">#9 GetField : boolean_field : boolean</text>
</g>
<!-- node6&#45;&gt;node9 -->
<g id="edge25" class="edge">
<title>node6&#45;&gt;node9</title>
<path fill="none" stroke="black" d="M2234.49,-376.63C2340.1,-365.75 2582.44,-340.78 2735.89,-324.97"/>
<polygon fill="black" stroke="black" points="2736.28,-328.45 2745.87,-323.94 2735.56,-321.48 2736.28,-328.45"/>
<text text-anchor="middle" x="2728.7" y="-330.5" font-family="Times,serif" font-size="14.00">*0</text>
</g>
<!-- node6&#45;&gt;node8 -->
<g id="edge27" class="edge">
<title>node6&#45;&gt;node8</title>
<path fill="none" stroke="black" d="M2234.86,-379.37C2372.77,-372.34 2757.01,-352.01 3076.43,-328 3095.68,-326.55 3116.02,-324.88 3135.94,-323.15"/>
<polygon fill="black" stroke="black" points="3136.34,-326.63 3146,-322.28 3135.73,-319.66 3136.34,-326.63"/>
<text text-anchor="middle" x="3128.67" y="-328.57" font-family="Times,serif" font-size="14.00">*0</text>
</g>
<!-- node17 -->
<g id="node18" class="node">
<title>node17</title>
<polygon fill="orange" stroke="black" points="3790.64,-302.54 3790.64,-317.46 3689.76,-328 3547.09,-328 3446.21,-317.46 3446.21,-302.54 3547.09,-292 3689.76,-292 3790.64,-302.54"/>
<text text-anchor="middle" x="3618.43" y="-306.3" font-family="Times,serif" font-size="14.00">#17 GetField : array_field : int[]</text>
</g>
<!-- node6&#45;&gt;node17 -->
<g id="edge46" class="edge">
<title>node6&#45;&gt;node17</title>
<path fill="none" stroke="black" d="M2234.78,-380.7C2407,-376.21 2971.54,-359.88 3437.43,-328 3454.14,-326.86 3471.71,-325.46 3489.05,-323.95"/>
<polygon fill="black" stroke="black" points="3489.57,-327.42 3499.23,-323.06 3488.96,-320.45 3489.57,-327.42"/>
<text text-anchor="middle" x="3481.91" y="-329.37" font-family="Times,serif" font-size="14.00">*0</text>
</g>
<!-- node20 -->
<g id="node16" class="node">
<title>node20</title>
<polygon fill="lightgrey" stroke="black" points="2673.93,-109 1964.93,-109 1964.93,-73 2673.93,-73 2673.93,-109"/>
<text text-anchor="middle" x="2319.43" y="-87.3" font-family="Times,serif" font-size="14.00">#20 Invoke static simple_method : (byte,boolean,short,char,int,long,float,double,String,int[])void</text>
</g>
<!-- node16&#45;&gt;node20 -->
<g id="edge38" class="edge">
<title>node16&#45;&gt;node20</title>
<path fill="none" stroke="black" d="M286.94,-294.23C504.36,-262.75 1034.77,-188.46 1481.43,-146 1642.45,-130.69 1821.31,-118.51 1972.29,-109.62"/>
<polygon fill="black" stroke="black" points="1972.88,-113.09 1982.65,-109.01 1972.47,-106.1 1972.88,-113.09"/>
<text text-anchor="middle" x="1965.05" y="-114.81" font-family="Times,serif" font-size="14.00">*9</text>
</g>
<!-- node16&#45;&gt;node17 -->
<g id="edge47" class="edge">
<title>node16&#45;&gt;node17</title>
<path fill="none" stroke="green" d="M271.41,-327.31C312.59,-334.84 362.88,-342.78 408.43,-346.5 575.65,-360.16 3261.4,-362.4 3428.43,-346.5 3463.27,-343.18 3501.24,-336.52 3534.01,-329.78"/>
<polygon fill="green" stroke="green" points="3534.93,-333.16 3544,-327.69 3533.49,-326.31 3534.93,-333.16"/>
</g>
<!-- node15&#45;&gt;node16 -->
<g id="edge12" class="edge">
<title>node15&#45;&gt;node16</title>
<path fill="none" stroke="green" d="M408.37,-310C399.85,-310 391.33,-310 382.81,-310"/>
<polygon fill="green" stroke="green" points="382.81,-306.5 372.81,-310 382.81,-313.5 382.81,-306.5"/>
</g>
<!-- node15&#45;&gt;node20 -->
<g id="edge37" class="edge">
<title>node15&#45;&gt;node20</title>
<path fill="none" stroke="black" d="M699.47,-293.78C900.59,-263.19 1371.45,-193.13 1768.43,-146 1883.2,-132.37 2011.72,-119.63 2115.75,-109.95"/>
<polygon fill="black" stroke="black" points="2116.1,-113.44 2125.74,-109.03 2115.46,-106.47 2116.1,-113.44"/>
<text text-anchor="middle" x="2108.47" y="-115.42" font-family="Times,serif" font-size="14.00">*8</text>
</g>
<!-- node14&#45;&gt;node15 -->
<g id="edge14" class="edge">
<title>node14&#45;&gt;node15</title>
<path fill="none" stroke="green" d="M827.65,-310C819.35,-310 811.05,-310 802.75,-310"/>
<polygon fill="green" stroke="green" points="802.62,-306.5 792.62,-310 802.62,-313.5 802.62,-306.5"/>
</g>
<!-- node14&#45;&gt;node20 -->
<g id="edge36" class="edge">
<title>node14&#45;&gt;node20</title>
<path fill="none" stroke="black" d="M1086.84,-294.17C1321.01,-255.76 1946.97,-153.09 2205.4,-110.7"/>
<polygon fill="black" stroke="black" points="2206.26,-114.11 2215.56,-109.04 2205.12,-107.2 2206.26,-114.11"/>
<text text-anchor="middle" x="2199.04" y="-116.61" font-family="Times,serif" font-size="14.00">*7</text>
</g>
<!-- node13&#45;&gt;node14 -->
<g id="edge16" class="edge">
<title>node13&#45;&gt;node14</title>
<path fill="none" stroke="green" d="M1200.25,-310C1191.98,-310 1183.71,-310 1175.44,-310"/>
<polygon fill="green" stroke="green" points="1175.35,-306.5 1165.35,-310 1175.35,-313.5 1175.35,-306.5"/>
</g>
<!-- node13&#45;&gt;node20 -->
<g id="edge35" class="edge">
<title>node13&#45;&gt;node20</title>
<path fill="none" stroke="black" d="M1493.45,-297.85C1544.28,-292.27 1603.42,-284.44 1656.43,-274 1772.77,-251.09 2107.88,-154.11 2252.1,-111.84"/>
<polygon fill="black" stroke="black" points="2253.13,-115.19 2261.74,-109.01 2251.16,-108.47 2253.13,-115.19"/>
<text text-anchor="middle" x="2246.72" y="-118.53" font-family="Times,serif" font-size="14.00">*6</text>
</g>
<!-- node12&#45;&gt;node13 -->
<g id="edge18" class="edge">
<title>node12&#45;&gt;node13</title>
<path fill="none" stroke="green" d="M1572.26,-310C1563.74,-310 1555.22,-310 1546.69,-310"/>
<polygon fill="green" stroke="green" points="1546.69,-306.5 1536.69,-310 1546.69,-313.5 1546.69,-306.5"/>
</g>
<!-- node12&#45;&gt;node20 -->
<g id="edge34" class="edge">
<title>node12&#45;&gt;node20</title>
<path fill="none" stroke="black" d="M1817.12,-295.49C1846.36,-290.11 1878.55,-283.01 1907.43,-274 2048.34,-230.03 2205.46,-151.94 2278.27,-113.96"/>
<polygon fill="black" stroke="black" points="2280.32,-116.84 2287.55,-109.1 2277.07,-110.64 2280.32,-116.84"/>
<text text-anchor="middle" x="2275.42" y="-121.3" font-family="Times,serif" font-size="14.00">*5</text>
</g>
<!-- node11&#45;&gt;node12 -->
<g id="edge20" class="edge">
<title>node11&#45;&gt;node12</title>
<path fill="none" stroke="green" d="M1911.43,-310C1903.11,-310 1894.8,-310 1886.49,-310"/>
<polygon fill="green" stroke="green" points="1886.35,-306.5 1876.35,-310 1886.35,-313.5 1886.35,-306.5"/>
</g>
<!-- node11&#45;&gt;node20 -->
<g id="edge33" class="edge">
<title>node11&#45;&gt;node20</title>
<path fill="none" stroke="black" d="M2099.18,-291.97C2141.4,-253.64 2244,-160.48 2292.8,-116.18"/>
<polygon fill="black" stroke="black" points="2295.38,-118.56 2300.43,-109.25 2290.67,-113.38 2295.38,-118.56"/>
<text text-anchor="middle" x="2292.69" y="-123.99" font-family="Times,serif" font-size="14.00">*4</text>
</g>
<!-- node10&#45;&gt;node11 -->
<g id="edge22" class="edge">
<title>node10&#45;&gt;node11</title>
<path fill="none" stroke="green" d="M2285.19,-310C2276.62,-310 2268.05,-310 2259.48,-310"/>
<polygon fill="green" stroke="green" points="2259.42,-306.5 2249.42,-310 2259.42,-313.5 2259.42,-306.5"/>
</g>
<!-- node10&#45;&gt;node20 -->
<g id="edge32" class="edge">
<title>node10&#45;&gt;node20</title>
<path fill="none" stroke="black" d="M2451.2,-291.97C2426.26,-254.12 2366.07,-162.77 2336.46,-117.84"/>
<polygon fill="black" stroke="black" points="2339.22,-115.67 2330.79,-109.25 2333.37,-119.52 2339.22,-115.67"/>
<text text-anchor="middle" x="2347.82" y="-116.03" font-family="Times,serif" font-size="14.00">*3</text>
</g>
<!-- node9&#45;&gt;node10 -->
<g id="edge24" class="edge">
<title>node9&#45;&gt;node10</title>
<path fill="none" stroke="green" d="M2675.06,-310C2666.69,-310 2658.33,-310 2649.97,-310"/>
<polygon fill="green" stroke="green" points="2649.77,-306.5 2639.77,-310 2649.77,-313.5 2649.77,-306.5"/>
</g>
<!-- node9&#45;&gt;node20 -->
<g id="edge31" class="edge">
<title>node9&#45;&gt;node20</title>
<path fill="none" stroke="black" d="M2805.84,-291.96C2787.14,-286.67 2766.85,-280.5 2748.43,-274 2605.57,-223.59 2442.19,-149.56 2364.73,-113.43"/>
<polygon fill="black" stroke="black" points="2365.81,-110.07 2355.27,-109 2362.84,-116.41 2365.81,-110.07"/>
<text text-anchor="middle" x="2375.27" y="-105.32" font-family="Times,serif" font-size="14.00">*2</text>
</g>
<!-- node8&#45;&gt;node9 -->
<g id="edge26" class="edge">
<title>node8&#45;&gt;node9</title>
<path fill="none" stroke="green" d="M3102.81,-310C3094.48,-310 3086.15,-310 3077.82,-310"/>
<polygon fill="green" stroke="green" points="3077.66,-306.5 3067.66,-310 3077.66,-313.5 3077.66,-306.5"/>
</g>
<!-- node8&#45;&gt;node20 -->
<g id="edge30" class="edge">
<title>node8&#45;&gt;node20</title>
<path fill="none" stroke="black" d="M3144.2,-297.93C3121.67,-295.92 3098.34,-293.87 3076.43,-292 2977.35,-283.55 2950.66,-294.79 2853.43,-274 2686.96,-238.41 2653.93,-199.82 2492.43,-146 2457.39,-134.33 2418.12,-122.01 2385.86,-112.09"/>
<polygon fill="black" stroke="black" points="2386.68,-108.68 2376.09,-109.09 2384.62,-115.37 2386.68,-108.68"/>
<text text-anchor="middle" x="2395.9" y="-102.62" font-family="Times,serif" font-size="14.00">*1</text>
</g>
<!-- node21 -->
<g id="node21" class="node">
<title>node21</title>
<polygon fill="lightgrey" stroke="black" points="2369.93,-36 2268.93,-36 2268.93,0 2369.93,0 2369.93,-36"/>
<text text-anchor="middle" x="2319.43" y="-14.3" font-family="Times,serif" font-size="14.00">#21 Return</text>
</g>
<!-- node20&#45;&gt;node21 -->
<g id="edge49" class="edge">
<title>node20&#45;&gt;node21</title>
<path fill="none" stroke="red" d="M2313.55,-72.81C2312.71,-64.79 2312.47,-55.05 2312.85,-46.07"/>
<polygon fill="red" stroke="red" points="2316.34,-46.25 2313.56,-36.03 2309.36,-45.75 2316.34,-46.25"/>
</g>
<!-- node20&#45;&gt;node21 -->
<g id="edge50" class="edge">
<title>node20&#45;&gt;node21</title>
<path fill="none" stroke="green" d="M2325.3,-72.81C2326.14,-64.79 2326.38,-55.05 2326,-46.07"/>
<polygon fill="green" stroke="green" points="2329.49,-45.75 2325.29,-36.03 2322.51,-46.25 2329.49,-45.75"/>
</g>
<!-- node19 -->
<g id="node17" class="node">
<title>node19</title>
<polygon fill="lightgrey" stroke="black" points="3548.43,-182 3434.43,-182 3434.43,-146 3548.43,-146 3548.43,-182"/>
<text text-anchor="middle" x="3491.43" y="-160.3" font-family="Times,serif" font-size="14.00">#19 ClassInit</text>
</g>
<!-- node19&#45;&gt;node20 -->
<g id="edge29" class="edge">
<title>node19&#45;&gt;node20</title>
<path fill="none" stroke="black" d="M3434.37,-159.9C3285.32,-151.32 2877.58,-126.74 2598.72,-109.64"/>
<polygon fill="black" stroke="black" points="2598.64,-106.13 2588.45,-109.01 2598.21,-113.11 2598.64,-106.13"/>
<text text-anchor="middle" x="2607.06" y="-97.98" font-family="Times,serif" font-size="14.00">*0</text>
</g>
<!-- node19&#45;&gt;node20 -->
<g id="edge40" class="edge">
<title>node19&#45;&gt;node20</title>
<path fill="none" stroke="green" d="M3434.1,-159.53C3287.13,-150.62 2888.89,-126.5 2610.6,-109.64"/>
<polygon fill="green" stroke="green" points="2610.53,-106.13 2600.34,-109.02 2610.11,-113.12 2610.53,-106.13"/>
</g>
<!-- node19&#45;&gt;node20 -->
<g id="edge41" class="edge">
<title>node19&#45;&gt;node20</title>
<path fill="none" stroke="red" d="M3434.15,-159.13C3289.04,-149.92 2899.72,-126.23 2622.07,-109.62"/>
<polygon fill="red" stroke="red" points="2622.02,-106.11 2611.83,-109 2621.61,-113.1 2622.02,-106.11"/>
</g>
<!-- node17&#45;&gt;node20 -->
<g id="edge39" class="edge">
<title>node17&#45;&gt;node20</title>
<path fill="none" stroke="black" d="M3528.37,-293.96C3297.5,-255.39 2684.92,-153.06 2431.55,-110.73"/>
<polygon fill="black" stroke="black" points="2432.03,-107.26 2421.59,-109.07 2430.87,-114.17 2432.03,-107.26"/>
<text text-anchor="middle" x="2440.86" y="-100.02" font-family="Times,serif" font-size="14.00">*10</text>
</g>
<!-- node17&#45;&gt;node19 -->
<g id="edge43" class="edge">
<title>node17&#45;&gt;node19</title>
<path fill="none" stroke="green" d="M3626.27,-291.8C3633.84,-272.39 3642.15,-240.7 3627.43,-219 3611.74,-195.89 3584.44,-182.67 3558.39,-175.11"/>
<polygon fill="green" stroke="green" points="3559.06,-171.66 3548.5,-172.48 3557.26,-178.43 3559.06,-171.66"/>
</g>
<!-- node3&#45;&gt;node19 -->
<g id="edge42" class="edge">
<title>node3&#45;&gt;node19</title>
<path fill="none" stroke="black" d="M4086.43,-510.78C4086.43,-496.41 4086.43,-475.37 4086.43,-457 4086.43,-457 4086.43,-457 4086.43,-236 4086.43,-183.37 3714.68,-169.58 3558.87,-166.11"/>
<polygon fill="black" stroke="black" points="3558.55,-162.61 3548.48,-165.89 3558.4,-169.6 3558.55,-162.61"/>
<text text-anchor="middle" x="3566.78" y="-154.13" font-family="Times,serif" font-size="14.00">*0</text>
</g>
<!-- node18&#45;&gt;node19 -->
<g id="edge44" class="edge">
<title>node18&#45;&gt;node19</title>
<path fill="none" stroke="red" d="M3539.17,-218.81C3531.44,-210.09 3521.9,-199.34 3513.38,-189.75"/>
<polygon fill="red" stroke="red" points="3515.79,-187.19 3506.54,-182.03 3510.55,-191.83 3515.79,-187.19"/>
</g>
<!-- c0 -->
<!-- c1 -->
<!-- c0&#45;&gt;c1 -->
<g id="edge51" class="edge">
<title>c0&#45;&gt;c1</title>
<path fill="none" stroke="red" d="M4991.32,-611C5002.53,-611 5060.67,-611 5086.28,-611"/>
<polygon fill="red" stroke="red" points="5086.48,-614.5 5096.48,-611 5086.48,-607.5 5086.48,-614.5"/>
<text text-anchor="middle" x="5043.93" y="-617.8" font-family="Times,serif" font-size="14.00">Control flow</text>
</g>
<!-- c2 -->
<!-- c3 -->
<!-- c2&#45;&gt;c3 -->
<g id="edge52" class="edge">
<title>c2&#45;&gt;c3</title>
<path fill="none" stroke="red" stroke-dasharray="5,2" d="M4784.5,-611C4801.47,-611 4917.63,-611 4955.51,-611"/>
<polygon fill="red" stroke="red" points="4955.59,-614.5 4965.59,-611 4955.59,-607.5 4955.59,-614.5"/>
<text text-anchor="middle" x="4874.93" y="-617.8" font-family="Times,serif" font-size="14.00">Control flow back edge</text>
</g>
<!-- d0 -->
<!-- d1 -->
<!-- d0&#45;&gt;d1 -->
<g id="edge53" class="edge">
<title>d0&#45;&gt;d1</title>
<path fill="none" stroke="black" d="M4673.28,-611C4682.83,-611 4726.73,-611 4748.34,-611"/>
<polygon fill="black" stroke="black" points="4748.58,-614.5 4758.58,-611 4748.58,-607.5 4748.58,-614.5"/>
<text text-anchor="middle" x="4715.93" y="-617.8" font-family="Times,serif" font-size="14.00">Data flow</text>
</g>
<!-- d2 -->
<!-- d3 -->
<!-- d2&#45;&gt;d3 -->
<g id="edge54" class="edge">
<title>d2&#45;&gt;d3</title>
<path fill="none" stroke="black" stroke-dasharray="1,5" d="M4547.23,-611C4557.88,-611 4612.89,-611 4637.5,-611"/>
<polygon fill="black" stroke="black" points="4637.57,-614.5 4647.57,-611 4637.57,-607.5 4637.57,-614.5"/>
<text text-anchor="middle" x="4597.43" y="-617.8" font-family="Times,serif" font-size="14.00">Declaration</text>
</g>
<!-- d4 -->
<!-- d5 -->
<!-- d4&#45;&gt;d5 -->
<g id="edge55" class="edge">
<title>d4&#45;&gt;d5</title>
<path fill="none" stroke="blue" d="M4404.53,-611C4417.15,-611 4483.31,-611 4511.11,-611"/>
<polygon fill="blue" stroke="blue" points="4511.27,-614.5 4521.27,-611 4511.27,-607.5 4511.27,-614.5"/>
<text text-anchor="middle" x="4462.93" y="-617.8" font-family="Times,serif" font-size="14.00">PHI Data flow</text>
</g>
<!-- d6 -->
<!-- d7 -->
<!-- d6&#45;&gt;d7 -->
<g id="edge56" class="edge">
<title>d6&#45;&gt;d7</title>
<path fill="none" stroke="green" d="M4267.42,-611C4279.36,-611 4341.73,-611 4368.35,-611"/>
<polygon fill="green" stroke="green" points="4368.37,-614.5 4378.37,-611 4368.37,-607.5 4368.37,-614.5"/>
<text text-anchor="middle" x="4322.93" y="-617.8" font-family="Times,serif" font-size="14.00">Memory flow</text>
</g>
</g>
</svg>
