<?xml version="1.0" encoding="UTF-8" standalone="no"?>
<!DOCTYPE svg PUBLIC "-//W3C//DTD SVG 1.1//EN"
 "http://www.w3.org/Graphics/SVG/1.1/DTD/svg11.dtd">
<!-- Generated by graphviz version 2.43.0 (0)
 -->
<!-- Title: %3 Pages: 1 -->
<svg width="4665pt" height="587pt"
 viewBox="0.00 0.00 4664.84 586.80" xmlns="http://www.w3.org/2000/svg" xmlns:xlink="http://www.w3.org/1999/xlink">
<g id="graph0" class="graph" transform="scale(1 1) rotate(0) translate(4 582.8)">
<title>%3</title>
<polygon fill="white" stroke="transparent" points="-4,4 -4,-582.8 4660.84,-582.8 4660.84,4 -4,4"/>
<g id="clust1" class="cluster">
<title>cluster_0</title>
<polygon fill="none" stroke="lightgray" points="3559.84,-357 3559.84,-482 3961.84,-482 3961.84,-357 3559.84,-357"/>
</g>
<g id="clust2" class="cluster">
<title>cluster_1</title>
<polygon fill="none" stroke="lightgray" points="4055.84,-138 4055.84,-263 4389.84,-263 4389.84,-138 4055.84,-138"/>
</g>
<g id="clust3" class="cluster">
<title>cluster_000</title>
<polygon fill="none" stroke="black" points="3795.84,-528.2 3795.84,-570.8 4648.84,-570.8 4648.84,-528.2 3795.84,-528.2"/>
<text text-anchor="middle" x="4222.34" y="-555.6" font-family="Times,serif" font-size="14.00">Legend</text>
</g>
<!-- node0 -->
<g id="node1" class="node">
<title>node0</title>
<polygon fill="lightgrey" stroke="transparent" points="3786.34,-565 3601.34,-565 3601.34,-511 3786.34,-511 3786.34,-565"/>
<polygon fill="none" stroke="black" points="3601.84,-538 3601.84,-565 3786.84,-565 3786.84,-538 3601.84,-538"/>
<text text-anchor="start" x="3653.84" y="-547.8" font-family="Times,serif" font-size="14.00">#0 Method</text>
<polygon fill="yellow" stroke="transparent" points="3601.84,-511 3601.84,-538 3786.84,-538 3786.84,-511 3601.84,-511"/>
<polygon fill="none" stroke="black" points="3601.84,-511 3601.84,-538 3786.84,-538 3786.84,-511 3601.84,-511"/>
<text text-anchor="start" x="3607.84" y="-520.8" font-family="Times,serif" font-size="14.00">this : MethodInvokeTest</text>
</g>
<!-- node2 -->
<g id="node2" class="node">
<title>node2</title>
<polygon fill="lightgrey" stroke="black" points="3753.34,-474 3634.34,-474 3634.34,-438 3753.34,-438 3753.34,-474"/>
<text text-anchor="middle" x="3693.84" y="-452.3" font-family="Times,serif" font-size="14.00">#2 LabelNode</text>
</g>
<!-- node0&#45;&gt;node2 -->
<g id="edge1" class="edge">
<title>node0&#45;&gt;node2</title>
<path fill="none" stroke="red" d="M3693.84,-510.81C3693.84,-502.35 3693.84,-492.95 3693.84,-484.4"/>
<polygon fill="red" stroke="red" points="3697.34,-484.17 3693.84,-474.17 3690.34,-484.17 3697.34,-484.17"/>
</g>
<!-- node4 -->
<g id="node4" class="node">
<title>node4</title>
<polygon fill="lightgrey" stroke="black" points="3604.34,-328 3499.34,-328 3499.34,-292 3604.34,-292 3604.34,-328"/>
<text text-anchor="middle" x="3551.84" y="-306.3" font-family="Times,serif" font-size="14.00">#4 ClassInit</text>
</g>
<!-- node0&#45;&gt;node4 -->
<g id="edge5" class="edge">
<title>node0&#45;&gt;node4</title>
<path fill="none" stroke="green" d="M3786.37,-512.2C3788.21,-511.79 3790.03,-511.39 3791.84,-511 3830.16,-502.74 3940.5,-511.91 3965.84,-482 4001.75,-439.61 4002.89,-398.4 3965.84,-357 3942.89,-331.36 3725.16,-318.41 3615.01,-313.46"/>
<polygon fill="green" stroke="green" points="3614.84,-309.95 3604.7,-313.01 3614.53,-316.95 3614.84,-309.95"/>
</g>
<!-- node3 -->
<g id="node3" class="node">
<title>node3</title>
<polygon fill="lightgreen" stroke="black" points="3954.26,-375.54 3954.26,-390.46 3840.96,-401 3680.72,-401 3567.42,-390.46 3567.42,-375.54 3680.72,-365 3840.96,-365 3954.26,-375.54"/>
<text text-anchor="middle" x="3760.84" y="-379.3" font-family="Times,serif" font-size="14.00">#3 Class MethodInvokeTest$Source</text>
</g>
<!-- node2&#45;&gt;node3 -->
<g id="edge2" class="edge">
<title>node2&#45;&gt;node3</title>
<path fill="none" stroke="black" stroke-dasharray="1,5" d="M3710.06,-437.81C3718.37,-429 3728.64,-418.13 3737.76,-408.46"/>
<polygon fill="black" stroke="black" points="3740.45,-410.7 3744.77,-401.03 3735.36,-405.9 3740.45,-410.7"/>
</g>
<!-- node2&#45;&gt;node4 -->
<g id="edge4" class="edge">
<title>node2&#45;&gt;node4</title>
<path fill="none" stroke="red" d="M3634.17,-445.86C3606.8,-438.46 3576.56,-425.1 3558.84,-401 3545.68,-383.1 3544.95,-357.43 3546.91,-338.08"/>
<polygon fill="red" stroke="red" points="3550.4,-338.44 3548.22,-328.07 3543.46,-337.53 3550.4,-338.44"/>
</g>
<!-- node3&#45;&gt;node4 -->
<g id="edge3" class="edge">
<title>node3&#45;&gt;node4</title>
<path fill="none" stroke="black" d="M3710.78,-364.99C3681.01,-354.88 3643.06,-341.99 3611.72,-331.34"/>
<polygon fill="black" stroke="black" points="3612.81,-328.02 3602.21,-328.11 3610.56,-334.64 3612.81,-328.02"/>
<text text-anchor="middle" x="3622.1" y="-322.24" font-family="Times,serif" font-size="14.00">*0</text>
</g>
<!-- node5 -->
<g id="node5" class="node">
<title>node5</title>
<polygon fill="orange" stroke="black" points="2243.96,-229.54 2243.96,-244.46 2213.43,-255 2170.25,-255 2139.72,-244.46 2139.72,-229.54 2170.25,-219 2213.43,-219 2243.96,-229.54"/>
<text text-anchor="middle" x="2191.84" y="-233.3" font-family="Times,serif" font-size="14.00">#5 New</text>
</g>
<!-- node4&#45;&gt;node5 -->
<g id="edge6" class="edge">
<title>node4&#45;&gt;node5</title>
<path fill="none" stroke="black" d="M3499.07,-306.39C3285.37,-295.5 2485.21,-253.74 2254.45,-241.43"/>
<polygon fill="black" stroke="black" points="2254.39,-237.92 2244.22,-240.88 2254.02,-244.91 2254.39,-237.92"/>
<text text-anchor="middle" x="2262.77" y="-229.71" font-family="Times,serif" font-size="14.00">*0</text>
</g>
<!-- node4&#45;&gt;node5 -->
<g id="edge7" class="edge">
<title>node4&#45;&gt;node5</title>
<path fill="none" stroke="green" d="M3499.3,-306.11C3285.87,-294.7 2484.76,-252.87 2254.22,-241.1"/>
<polygon fill="green" stroke="green" points="2254.17,-237.59 2244,-240.58 2253.81,-244.59 2254.17,-237.59"/>
</g>
<!-- node6 -->
<g id="node14" class="node">
<title>node6</title>
<polygon fill="lightgrey" stroke="black" points="4045.84,-182 3795.84,-182 3795.84,-146 4045.84,-146 4045.84,-182"/>
<text text-anchor="middle" x="3920.84" y="-160.3" font-family="Times,serif" font-size="14.00">#6 Invoke special &lt;init&gt; : ()void</text>
</g>
<!-- node4&#45;&gt;node6 -->
<g id="edge25" class="edge">
<title>node4&#45;&gt;node6</title>
<path fill="none" stroke="red" d="M3595.62,-291.92C3663.58,-265.39 3794.27,-214.39 3867.6,-185.78"/>
<polygon fill="red" stroke="red" points="3869.07,-188.96 3877.12,-182.06 3866.53,-182.44 3869.07,-188.96"/>
</g>
<!-- node14 -->
<g id="node6" class="node">
<title>node14</title>
<polygon fill="orange" stroke="black" points="2693.95,-156.54 2693.95,-171.46 2581.41,-182 2422.26,-182 2309.73,-171.46 2309.73,-156.54 2422.26,-146 2581.41,-146 2693.95,-156.54"/>
<text text-anchor="middle" x="2501.84" y="-160.3" font-family="Times,serif" font-size="14.00">#14 GetField : double_field : double</text>
</g>
<!-- node5&#45;&gt;node14 -->
<g id="edge8" class="edge">
<title>node5&#45;&gt;node14</title>
<path fill="none" stroke="black" d="M2234.62,-226.2C2281.56,-215.45 2358.11,-197.92 2417.28,-184.37"/>
<polygon fill="black" stroke="black" points="2418.39,-187.7 2427.36,-182.06 2416.83,-180.88 2418.39,-187.7"/>
<text text-anchor="middle" x="2411.58" y="-190.64" font-family="Times,serif" font-size="14.00">*0</text>
</g>
<!-- node13 -->
<g id="node7" class="node">
<title>node13</title>
<polygon fill="orange" stroke="black" points="3066.51,-156.54 3066.51,-171.46 2967.71,-182 2827.97,-182 2729.16,-171.46 2729.16,-156.54 2827.97,-146 2967.71,-146 3066.51,-156.54"/>
<text text-anchor="middle" x="2897.84" y="-160.3" font-family="Times,serif" font-size="14.00">#13 GetField : float_field : float</text>
</g>
<!-- node5&#45;&gt;node13 -->
<g id="edge10" class="edge">
<title>node5&#45;&gt;node13</title>
<path fill="none" stroke="black" d="M2244.04,-230.75C2354.07,-219.68 2612.58,-193.69 2769.57,-177.9"/>
<polygon fill="black" stroke="black" points="2770.16,-181.36 2779.76,-176.87 2769.46,-174.39 2770.16,-181.36"/>
<text text-anchor="middle" x="2762.57" y="-183.4" font-family="Times,serif" font-size="14.00">*0</text>
</g>
<!-- node12 -->
<g id="node8" class="node">
<title>node12</title>
<polygon fill="orange" stroke="black" points="3438.11,-156.54 3438.11,-171.46 3339.54,-182 3200.14,-182 3101.57,-171.46 3101.57,-156.54 3200.14,-146 3339.54,-146 3438.11,-156.54"/>
<text text-anchor="middle" x="3269.84" y="-160.3" font-family="Times,serif" font-size="14.00">#12 GetField : long_field : long</text>
</g>
<!-- node5&#45;&gt;node12 -->
<g id="edge12" class="edge">
<title>node5&#45;&gt;node12</title>
<path fill="none" stroke="black" d="M2244.18,-233.29C2380.96,-226.09 2760.35,-205.45 3075.84,-182 3095.38,-180.55 3116.02,-178.88 3136.25,-177.17"/>
<polygon fill="black" stroke="black" points="3136.8,-180.64 3146.47,-176.3 3136.2,-173.66 3136.8,-180.64"/>
<text text-anchor="middle" x="3129.12" y="-182.56" font-family="Times,serif" font-size="14.00">*0</text>
</g>
<!-- node11 -->
<g id="node9" class="node">
<title>node11</title>
<polygon fill="orange" stroke="black" points="3777.75,-156.54 3777.75,-171.46 3688.76,-182 3562.92,-182 3473.93,-171.46 3473.93,-156.54 3562.92,-146 3688.76,-146 3777.75,-156.54"/>
<text text-anchor="middle" x="3625.84" y="-160.3" font-family="Times,serif" font-size="14.00">#11 GetField : int_field : int</text>
</g>
<!-- node5&#45;&gt;node11 -->
<g id="edge14" class="edge">
<title>node5&#45;&gt;node11</title>
<path fill="none" stroke="black" d="M2244.2,-234.72C2416.42,-230.29 2980.97,-214.12 3446.84,-182 3465.67,-180.7 3485.59,-179.07 3505.03,-177.33"/>
<polygon fill="black" stroke="black" points="3505.5,-180.8 3515.15,-176.41 3504.87,-173.83 3505.5,-180.8"/>
<text text-anchor="middle" x="3497.86" y="-182.77" font-family="Times,serif" font-size="14.00">*0</text>
</g>
<!-- node10 -->
<g id="node10" class="node">
<title>node10</title>
<polygon fill="orange" stroke="black" points="337.51,-156.54 337.51,-171.46 238.71,-182 98.97,-182 0.16,-171.46 0.16,-156.54 98.97,-146 238.71,-146 337.51,-156.54"/>
<text text-anchor="middle" x="168.84" y="-160.3" font-family="Times,serif" font-size="14.00">#10 GetField : char_field : char</text>
</g>
<!-- node5&#45;&gt;node10 -->
<g id="edge16" class="edge">
<title>node5&#45;&gt;node10</title>
<path fill="none" stroke="black" d="M2139.44,-235.55C1921.56,-233.46 1065.91,-222.94 363.84,-182 343.04,-180.79 321.03,-179.18 299.57,-177.44"/>
<polygon fill="black" stroke="black" points="299.68,-173.94 289.42,-176.6 299.1,-180.91 299.68,-173.94"/>
<text text-anchor="middle" x="308.18" y="-165.97" font-family="Times,serif" font-size="14.00">*0</text>
</g>
<!-- node9 -->
<g id="node11" class="node">
<title>node9</title>
<polygon fill="orange" stroke="black" points="714.74,-156.54 714.74,-171.46 614.63,-182 473.05,-182 372.94,-171.46 372.94,-156.54 473.05,-146 614.63,-146 714.74,-156.54"/>
<text text-anchor="middle" x="543.84" y="-160.3" font-family="Times,serif" font-size="14.00">#9 GetField : short_field : short</text>
</g>
<!-- node5&#45;&gt;node9 -->
<g id="edge18" class="edge">
<title>node5&#45;&gt;node9</title>
<path fill="none" stroke="black" d="M2139.78,-234.97C1951.46,-231.06 1288.08,-215.6 741.84,-182 720.95,-180.72 698.85,-179.09 677.28,-177.35"/>
<polygon fill="black" stroke="black" points="677.33,-173.84 667.08,-176.51 676.76,-180.81 677.33,-173.84"/>
<text text-anchor="middle" x="685.84" y="-165.86" font-family="Times,serif" font-size="14.00">*0</text>
</g>
<!-- node8 -->
<g id="node12" class="node">
<title>node8</title>
<polygon fill="orange" stroke="black" points="1142.89,-156.54 1142.89,-171.46 1028.04,-182 865.63,-182 750.79,-171.46 750.79,-156.54 865.63,-146 1028.04,-146 1142.89,-156.54"/>
<text text-anchor="middle" x="946.84" y="-160.3" font-family="Times,serif" font-size="14.00">#8 GetField : boolean_field : boolean</text>
</g>
<!-- node5&#45;&gt;node8 -->
<g id="edge20" class="edge">
<title>node5&#45;&gt;node8</title>
<path fill="none" stroke="black" d="M2139.65,-233.68C1989.03,-226.9 1540.66,-206.05 1168.84,-182 1146.41,-180.55 1122.72,-178.88 1099.49,-177.17"/>
<polygon fill="black" stroke="black" points="1099.45,-173.66 1089.22,-176.41 1098.93,-180.64 1099.45,-173.66"/>
<text text-anchor="middle" x="1107.92" y="-165.62" font-family="Times,serif" font-size="14.00">*0</text>
</g>
<!-- node7 -->
<g id="node13" class="node">
<title>node7</title>
<polygon fill="orange" stroke="black" points="1503.35,-156.54 1503.35,-171.46 1408.15,-182 1273.52,-182 1178.32,-171.46 1178.32,-156.54 1273.52,-146 1408.15,-146 1503.35,-156.54"/>
<text text-anchor="middle" x="1340.84" y="-160.3" font-family="Times,serif" font-size="14.00">#7 GetField : byte_field : byte</text>
</g>
<!-- node5&#45;&gt;node7 -->
<g id="edge22" class="edge">
<title>node5&#45;&gt;node7</title>
<path fill="none" stroke="black" d="M2139.42,-232.17C2025.4,-223.78 1746.35,-202.82 1512.84,-182 1497.88,-180.67 1482.2,-179.2 1466.65,-177.72"/>
<polygon fill="black" stroke="black" points="1466.75,-174.21 1456.46,-176.73 1466.08,-181.18 1466.75,-174.21"/>
<text text-anchor="middle" x="1475.31" y="-166.36" font-family="Times,serif" font-size="14.00">*0</text>
</g>
<!-- node5&#45;&gt;node6 -->
<g id="edge24" class="edge">
<title>node5&#45;&gt;node6</title>
<path fill="none" stroke="black" d="M2243.94,-235.97C2443.31,-235.49 3176.11,-230.25 3777.84,-182 3780.39,-181.79 3782.98,-181.58 3785.58,-181.35"/>
<polygon fill="black" stroke="black" points="3786.07,-184.82 3795.71,-180.4 3785.42,-177.85 3786.07,-184.82"/>
<text text-anchor="middle" x="3778.44" y="-186.8" font-family="Times,serif" font-size="14.00">*0</text>
</g>
<!-- node5&#45;&gt;node6 -->
<g id="edge26" class="edge">
<title>node5&#45;&gt;node6</title>
<path fill="none" stroke="green" d="M2244.15,-235.99C2444.19,-235.6 3179.23,-230.83 3785.92,-182.79"/>
<polygon fill="green" stroke="green" points="3786.5,-186.26 3796.19,-181.97 3785.94,-179.28 3786.5,-186.26"/>
</g>
<!-- node16 -->
<g id="node18" class="node">
<title>node16</title>
<polygon fill="orange" stroke="black" points="1866.05,-156.54 1866.05,-171.46 1765.17,-182 1622.51,-182 1521.63,-171.46 1521.63,-156.54 1622.51,-146 1765.17,-146 1866.05,-156.54"/>
<text text-anchor="middle" x="1693.84" y="-160.3" font-family="Times,serif" font-size="14.00">#16 GetField : array_field : int[]</text>
</g>
<!-- node5&#45;&gt;node16 -->
<g id="edge31" class="edge">
<title>node5&#45;&gt;node16</title>
<path fill="none" stroke="black" d="M2141.35,-228.8C2062.41,-217.55 1907.96,-195.53 1802.84,-180.54"/>
<polygon fill="black" stroke="black" points="1803.22,-177.06 1792.82,-179.11 1802.23,-183.99 1803.22,-177.06"/>
<text text-anchor="middle" x="1811.96" y="-169.6" font-family="Times,serif" font-size="14.00">*0</text>
</g>
<!-- node15 -->
<g id="node19" class="node">
<title>node15</title>
<polygon fill="orange" stroke="black" points="2274.19,-156.54 2274.19,-171.46 2165.03,-182 2010.65,-182 1901.49,-171.46 1901.49,-156.54 2010.65,-146 2165.03,-146 2274.19,-156.54"/>
<text text-anchor="middle" x="2087.84" y="-160.3" font-family="Times,serif" font-size="14.00">#15 GetField : string_field : String</text>
</g>
<!-- node5&#45;&gt;node15 -->
<g id="edge33" class="edge">
<title>node5&#45;&gt;node15</title>
<path fill="none" stroke="black" d="M2167.98,-219.71C2154.24,-210.33 2136.76,-198.4 2121.63,-188.07"/>
<polygon fill="black" stroke="black" points="2123.27,-184.95 2113.04,-182.2 2119.32,-190.73 2123.27,-184.95"/>
<text text-anchor="middle" x="2132.77" y="-181.74" font-family="Times,serif" font-size="14.00">*0</text>
</g>
<!-- node14&#45;&gt;node15 -->
<g id="edge34" class="edge">
<title>node14&#45;&gt;node15</title>
<path fill="none" stroke="green" d="M2309.78,-164C2301.26,-164 2292.74,-164 2284.22,-164"/>
<polygon fill="green" stroke="green" points="2284.22,-160.5 2274.22,-164 2284.22,-167.5 2284.22,-160.5"/>
</g>
<!-- node20 -->
<g id="node20" class="node">
<title>node20</title>
<polygon fill="lightgrey" stroke="black" points="2551.34,-109 1842.34,-109 1842.34,-73 2551.34,-73 2551.34,-109"/>
<text text-anchor="middle" x="2196.84" y="-87.3" font-family="Times,serif" font-size="14.00">#20 Invoke static simple_method : (byte,boolean,short,char,int,long,float,double,String,int[])void</text>
</g>
<!-- node14&#45;&gt;node20 -->
<g id="edge43" class="edge">
<title>node14&#45;&gt;node20</title>
<path fill="none" stroke="black" d="M2428.78,-145.99C2383.95,-135.56 2326.4,-122.16 2279.85,-111.32"/>
<polygon fill="black" stroke="black" points="2280.62,-107.91 2270.09,-109.05 2279.04,-114.73 2280.62,-107.91"/>
<text text-anchor="middle" x="2289.66" y="-101.23" font-family="Times,serif" font-size="14.00">*8</text>
</g>
<!-- node13&#45;&gt;node14 -->
<g id="edge9" class="edge">
<title>node13&#45;&gt;node14</title>
<path fill="none" stroke="green" d="M2729.07,-164C2720.76,-164 2712.46,-164 2704.16,-164"/>
<polygon fill="green" stroke="green" points="2704.04,-160.5 2694.04,-164 2704.04,-167.5 2704.04,-160.5"/>
</g>
<!-- node13&#45;&gt;node20 -->
<g id="edge42" class="edge">
<title>node13&#45;&gt;node20</title>
<path fill="none" stroke="black" d="M2796.71,-149.32C2766.54,-145.43 2733.37,-141.34 2702.84,-138 2607.86,-127.6 2502.67,-117.76 2412.92,-109.88"/>
<polygon fill="black" stroke="black" points="2413.16,-106.39 2402.89,-109 2412.54,-113.36 2413.16,-106.39"/>
<text text-anchor="middle" x="2421.68" y="-98.46" font-family="Times,serif" font-size="14.00">*7</text>
</g>
<!-- node12&#45;&gt;node13 -->
<g id="edge11" class="edge">
<title>node12&#45;&gt;node13</title>
<path fill="none" stroke="green" d="M3101.67,-164C3093.4,-164 3085.12,-164 3076.85,-164"/>
<polygon fill="green" stroke="green" points="3076.76,-160.5 3066.76,-164 3076.76,-167.5 3076.76,-160.5"/>
</g>
<!-- node12&#45;&gt;node20 -->
<g id="edge41" class="edge">
<title>node12&#45;&gt;node20</title>
<path fill="none" stroke="black" d="M3172.3,-148.96C3141.5,-144.92 3107.29,-140.85 3075.84,-138 2907.28,-122.75 2720.04,-112.09 2561.84,-104.89"/>
<polygon fill="black" stroke="black" points="2561.61,-101.38 2551.46,-104.42 2561.29,-108.37 2561.61,-101.38"/>
<text text-anchor="middle" x="2569.95" y="-93.1" font-family="Times,serif" font-size="14.00">*6</text>
</g>
<!-- node11&#45;&gt;node12 -->
<g id="edge13" class="edge">
<title>node11&#45;&gt;node12</title>
<path fill="none" stroke="green" d="M3473.67,-164C3465.15,-164 3456.63,-164 3448.11,-164"/>
<polygon fill="green" stroke="green" points="3448.1,-160.5 3438.1,-164 3448.1,-167.5 3448.1,-160.5"/>
</g>
<!-- node11&#45;&gt;node20 -->
<g id="edge40" class="edge">
<title>node11&#45;&gt;node20</title>
<path fill="none" stroke="black" d="M3537.73,-148.87C3508.84,-144.73 3476.53,-140.61 3446.84,-138 3149.59,-111.84 2811.31,-100.51 2561.69,-95.63"/>
<polygon fill="black" stroke="black" points="2561.43,-92.12 2551.36,-95.43 2561.29,-99.12 2561.43,-92.12"/>
<text text-anchor="middle" x="2569.65" y="-83.63" font-family="Times,serif" font-size="14.00">*5</text>
</g>
<!-- node10&#45;&gt;node11 -->
<g id="edge15" class="edge">
<title>node10&#45;&gt;node11</title>
<path fill="none" stroke="green" d="M246.38,-181.21C284.3,-188.77 330.73,-196.76 372.84,-200.5 542.45,-215.55 3268.34,-216.8 3437.84,-200.5 3473.23,-197.1 3511.86,-190.17 3544.84,-183.25"/>
<polygon fill="green" stroke="green" points="3545.84,-186.62 3554.89,-181.11 3544.38,-179.77 3545.84,-186.62"/>
</g>
<!-- node10&#45;&gt;node20 -->
<g id="edge39" class="edge">
<title>node10&#45;&gt;node20</title>
<path fill="none" stroke="black" d="M264.85,-148.71C296.32,-144.55 331.51,-140.47 363.84,-138 638.68,-116.99 1380.5,-103.35 1831.72,-96.73"/>
<polygon fill="black" stroke="black" points="1832.05,-100.23 1841.99,-96.58 1831.94,-93.23 1832.05,-100.23"/>
<text text-anchor="middle" x="1823.99" y="-101.6" font-family="Times,serif" font-size="14.00">*4</text>
</g>
<!-- node9&#45;&gt;node10 -->
<g id="edge17" class="edge">
<title>node9&#45;&gt;node10</title>
<path fill="none" stroke="green" d="M372.7,-164C364.39,-164 356.09,-164 347.79,-164"/>
<polygon fill="green" stroke="green" points="347.66,-160.5 337.66,-164 347.66,-167.5 347.66,-160.5"/>
</g>
<!-- node9&#45;&gt;node20 -->
<g id="edge38" class="edge">
<title>node9&#45;&gt;node20</title>
<path fill="none" stroke="black" d="M641.59,-148.81C673.49,-144.67 709.11,-140.58 741.84,-138 1112.22,-108.83 1537.02,-97.99 1831.6,-94.05"/>
<polygon fill="black" stroke="black" points="1832.07,-97.54 1842.03,-93.91 1831.98,-90.55 1832.07,-97.54"/>
<text text-anchor="middle" x="1824.01" y="-98.9" font-family="Times,serif" font-size="14.00">*3</text>
</g>
<!-- node8&#45;&gt;node9 -->
<g id="edge19" class="edge">
<title>node8&#45;&gt;node9</title>
<path fill="none" stroke="green" d="M750.35,-164C741.98,-164 733.61,-164 725.24,-164"/>
<polygon fill="green" stroke="green" points="725.03,-160.5 715.03,-164 725.03,-167.5 725.03,-160.5"/>
</g>
<!-- node8&#45;&gt;node20 -->
<g id="edge37" class="edge">
<title>node8&#45;&gt;node20</title>
<path fill="none" stroke="black" d="M1059.35,-148.84C1094.38,-144.83 1133.17,-140.8 1168.84,-138 1388.65,-120.73 1635.44,-109.42 1832.12,-102.33"/>
<polygon fill="black" stroke="black" points="1832.46,-105.82 1842.33,-101.97 1832.21,-98.83 1832.46,-105.82"/>
<text text-anchor="middle" x="1824.52" y="-107.36" font-family="Times,serif" font-size="14.00">*2</text>
</g>
<!-- node7&#45;&gt;node8 -->
<g id="edge21" class="edge">
<title>node7&#45;&gt;node8</title>
<path fill="none" stroke="green" d="M1178.22,-164C1169.89,-164 1161.56,-164 1153.23,-164"/>
<polygon fill="green" stroke="green" points="1153.07,-160.5 1143.07,-164 1153.07,-167.5 1153.07,-160.5"/>
</g>
<!-- node7&#45;&gt;node20 -->
<g id="edge36" class="edge">
<title>node7&#45;&gt;node20</title>
<path fill="none" stroke="black" d="M1431.28,-148.52C1457.53,-144.68 1486.28,-140.82 1512.84,-138 1624.6,-126.14 1746.97,-116.77 1856.92,-109.67"/>
<polygon fill="black" stroke="black" points="1857.43,-113.14 1867.18,-109.01 1856.98,-106.16 1857.43,-113.14"/>
<text text-anchor="middle" x="1849.64" y="-114.9" font-family="Times,serif" font-size="14.00">*1</text>
</g>
<!-- node6&#45;&gt;node7 -->
<g id="edge23" class="edge">
<title>node6&#45;&gt;node7</title>
<path fill="none" stroke="green" d="M3863.72,-182.07C3837.79,-189.36 3806.57,-196.89 3777.84,-200.5 3653.48,-216.12 1646.55,-212.95 1521.84,-200.5 1488.74,-197.2 1452.73,-190.57 1421.62,-183.87"/>
<polygon fill="green" stroke="green" points="1422.21,-180.41 1411.69,-181.69 1420.71,-187.25 1422.21,-180.41"/>
</g>
<!-- node17 -->
<g id="node15" class="node">
<title>node17</title>
<polygon fill="lightgrey" stroke="black" points="4286.84,-255 4158.84,-255 4158.84,-219 4286.84,-219 4286.84,-255"/>
<text text-anchor="middle" x="4222.84" y="-233.3" font-family="Times,serif" font-size="14.00">#17 LabelNode</text>
</g>
<!-- node6&#45;&gt;node17 -->
<g id="edge27" class="edge">
<title>node6&#45;&gt;node17</title>
<path fill="none" stroke="red" d="M3993.27,-182.03C4040.34,-193.1 4101.54,-207.48 4148.9,-218.62"/>
<polygon fill="red" stroke="red" points="4148.26,-222.06 4158.79,-220.94 4149.86,-215.25 4148.26,-222.06"/>
</g>
<!-- node19 -->
<g id="node16" class="node">
<title>node19</title>
<polygon fill="lightgrey" stroke="black" points="4530.84,-182 4416.84,-182 4416.84,-146 4530.84,-146 4530.84,-182"/>
<text text-anchor="middle" x="4473.84" y="-160.3" font-family="Times,serif" font-size="14.00">#19 ClassInit</text>
</g>
<!-- node17&#45;&gt;node19 -->
<g id="edge30" class="edge">
<title>node17&#45;&gt;node19</title>
<path fill="none" stroke="red" d="M4282.96,-218.99C4320.24,-208.45 4368.19,-194.88 4406.71,-183.99"/>
<polygon fill="red" stroke="red" points="4408.12,-187.23 4416.79,-181.14 4406.22,-180.49 4408.12,-187.23"/>
</g>
<!-- node18 -->
<g id="node17" class="node">
<title>node18</title>
<polygon fill="lightgreen" stroke="black" points="4381.82,-156.54 4381.82,-171.46 4288.69,-182 4156.99,-182 4063.86,-171.46 4063.86,-156.54 4156.99,-146 4288.69,-146 4381.82,-156.54"/>
<text text-anchor="middle" x="4222.84" y="-160.3" font-family="Times,serif" font-size="14.00">#18 Class MethodInvokeTest</text>
</g>
<!-- node17&#45;&gt;node18 -->
<g id="edge50" class="edge">
<title>node17&#45;&gt;node18</title>
<path fill="none" stroke="black" stroke-dasharray="1,5" d="M4222.84,-218.81C4222.84,-210.79 4222.84,-201.05 4222.84,-192.07"/>
<polygon fill="black" stroke="black" points="4226.34,-192.03 4222.84,-182.03 4219.34,-192.03 4226.34,-192.03"/>
</g>
<!-- node19&#45;&gt;node20 -->
<g id="edge35" class="edge">
<title>node19&#45;&gt;node20</title>
<path fill="none" stroke="black" d="M4416.51,-148.02C4403.1,-143.99 4389.05,-140.16 4375.84,-138 4201.99,-109.6 3135.45,-98.24 2561.55,-94.11"/>
<polygon fill="black" stroke="black" points="2561.48,-90.61 2551.45,-94.04 2561.43,-97.61 2561.48,-90.61"/>
<text text-anchor="middle" x="2569.64" y="-82.01" font-family="Times,serif" font-size="14.00">*0</text>
</g>
<!-- node19&#45;&gt;node20 -->
<g id="edge46" class="edge">
<title>node19&#45;&gt;node20</title>
<path fill="none" stroke="green" d="M4426.99,-145.95C4416.24,-142.71 4404.75,-139.78 4393.84,-138 4218.88,-109.42 3139.78,-98.09 2561.71,-94.03"/>
<polygon fill="green" stroke="green" points="2561.57,-90.53 2551.54,-93.96 2561.52,-97.53 2561.57,-90.53"/>
</g>
<!-- node19&#45;&gt;node20 -->
<g id="edge47" class="edge">
<title>node19&#45;&gt;node20</title>
<path fill="none" stroke="red" d="M4444.52,-145.95C4434.24,-142.71 4422.75,-139.78 4411.84,-138 4235.77,-109.24 3144.04,-97.95 2561.74,-93.95"/>
<polygon fill="red" stroke="red" points="2561.52,-90.45 2551.49,-93.88 2561.47,-97.45 2561.52,-90.45"/>
</g>
<!-- node18&#45;&gt;node19 -->
<g id="edge28" class="edge">
<title>node18&#45;&gt;node19</title>
<path fill="none" stroke="black" d="M4382.16,-164C4390.22,-164 4398.28,-164 4406.34,-164"/>
<polygon fill="black" stroke="black" points="4406.54,-167.5 4416.54,-164 4406.54,-160.5 4406.54,-167.5"/>
<text text-anchor="middle" x="4398.42" y="-168.75" font-family="Times,serif" font-size="14.00">*0</text>
</g>
<!-- node16&#45;&gt;node19 -->
<g id="edge29" class="edge">
<title>node16&#45;&gt;node19</title>
<path fill="none" stroke="green" d="M1772.92,-181.21C1811.58,-188.77 1858.92,-196.76 1901.84,-200.5 2039.26,-212.47 4249.5,-227.17 4384.84,-200.5 4399.88,-197.54 4415.58,-192 4429.53,-186.12"/>
<polygon fill="green" stroke="green" points="4431.13,-189.25 4438.88,-182.03 4428.32,-182.84 4431.13,-189.25"/>
</g>
<!-- node16&#45;&gt;node20 -->
<g id="edge45" class="edge">
<title>node16&#45;&gt;node20</title>
<path fill="none" stroke="black" d="M1793.52,-148.93C1871.62,-137.91 1980.94,-122.47 2066.07,-110.46"/>
<polygon fill="black" stroke="black" points="2066.65,-113.91 2076.06,-109.05 2065.67,-106.98 2066.65,-113.91"/>
<text text-anchor="middle" x="2059.3" y="-116.25" font-family="Times,serif" font-size="14.00">*10</text>
</g>
<!-- node15&#45;&gt;node16 -->
<g id="edge32" class="edge">
<title>node15&#45;&gt;node16</title>
<path fill="none" stroke="green" d="M1901.27,-164C1892.97,-164 1884.66,-164 1876.35,-164"/>
<polygon fill="green" stroke="green" points="1876.21,-160.5 1866.21,-164 1876.21,-167.5 1876.21,-160.5"/>
</g>
<!-- node15&#45;&gt;node20 -->
<g id="edge44" class="edge">
<title>node15&#45;&gt;node20</title>
<path fill="none" stroke="black" d="M2113.95,-145.99C2128.4,-136.58 2146.55,-124.76 2162.18,-114.57"/>
<polygon fill="black" stroke="black" points="2164.1,-117.5 2170.57,-109.11 2160.28,-111.64 2164.1,-117.5"/>
<text text-anchor="middle" x="2159.99" y="-122.39" font-family="Times,serif" font-size="14.00">*9</text>
</g>
<!-- node21 -->
<g id="node21" class="node">
<title>node21</title>
<polygon fill="lightgrey" stroke="black" points="2247.34,-36 2146.34,-36 2146.34,0 2247.34,0 2247.34,-36"/>
<text text-anchor="middle" x="2196.84" y="-14.3" font-family="Times,serif" font-size="14.00">#21 Return</text>
</g>
<!-- node20&#45;&gt;node21 -->
<g id="edge48" class="edge">
<title>node20&#45;&gt;node21</title>
<path fill="none" stroke="red" d="M2190.96,-72.81C2190.12,-64.79 2189.89,-55.05 2190.26,-46.07"/>
<polygon fill="red" stroke="red" points="2193.76,-46.25 2190.98,-36.03 2186.77,-45.75 2193.76,-46.25"/>
</g>
<!-- node20&#45;&gt;node21 -->
<g id="edge49" class="edge">
<title>node20&#45;&gt;node21</title>
<path fill="none" stroke="green" d="M2202.72,-72.81C2203.56,-64.79 2203.79,-55.05 2203.42,-46.07"/>
<polygon fill="green" stroke="green" points="2206.9,-45.75 2202.7,-36.03 2199.92,-46.25 2206.9,-45.75"/>
</g>
<!-- c0 -->
<!-- c1 -->
<!-- c0&#45;&gt;c1 -->
<g id="edge51" class="edge">
<title>c0&#45;&gt;c1</title>
<path fill="none" stroke="red" d="M4531.73,-538C4542.94,-538 4601.08,-538 4626.7,-538"/>
<polygon fill="red" stroke="red" points="4626.89,-541.5 4636.89,-538 4626.89,-534.5 4626.89,-541.5"/>
<text text-anchor="middle" x="4584.34" y="-544.8" font-family="Times,serif" font-size="14.00">Control flow</text>
</g>
<!-- c2 -->
<!-- c3 -->
<!-- c2&#45;&gt;c3 -->
<g id="edge52" class="edge">
<title>c2&#45;&gt;c3</title>
<path fill="none" stroke="red" stroke-dasharray="5,2" d="M4324.92,-538C4341.89,-538 4458.04,-538 4495.92,-538"/>
<polygon fill="red" stroke="red" points="4496.01,-541.5 4506.01,-538 4496.01,-534.5 4496.01,-541.5"/>
<text text-anchor="middle" x="4415.34" y="-544.8" font-family="Times,serif" font-size="14.00">Control flow back edge</text>
</g>
<!-- d0 -->
<!-- d1 -->
<!-- d0&#45;&gt;d1 -->
<g id="edge53" class="edge">
<title>d0&#45;&gt;d1</title>
<path fill="none" stroke="black" d="M4213.7,-538C4223.24,-538 4267.15,-538 4288.76,-538"/>
<polygon fill="black" stroke="black" points="4288.99,-541.5 4298.99,-538 4288.99,-534.5 4288.99,-541.5"/>
<text text-anchor="middle" x="4256.34" y="-544.8" font-family="Times,serif" font-size="14.00">Data flow</text>
</g>
<!-- d2 -->
<!-- d3 -->
<!-- d2&#45;&gt;d3 -->
<g id="edge54" class="edge">
<title>d2&#45;&gt;d3</title>
<path fill="none" stroke="black" stroke-dasharray="1,5" d="M4087.64,-538C4098.29,-538 4153.3,-538 4177.91,-538"/>
<polygon fill="black" stroke="black" points="4177.98,-541.5 4187.98,-538 4177.98,-534.5 4177.98,-541.5"/>
<text text-anchor="middle" x="4137.84" y="-544.8" font-family="Times,serif" font-size="14.00">Declaration</text>
</g>
<!-- d4 -->
<!-- d5 -->
<!-- d4&#45;&gt;d5 -->
<g id="edge55" class="edge">
<title>d4&#45;&gt;d5</title>
<path fill="none" stroke="blue" d="M3944.94,-538C3957.56,-538 4023.72,-538 4051.52,-538"/>
<polygon fill="blue" stroke="blue" points="4051.68,-541.5 4061.68,-538 4051.68,-534.5 4051.68,-541.5"/>
<text text-anchor="middle" x="4003.34" y="-544.8" font-family="Times,serif" font-size="14.00">PHI Data flow</text>
</g>
<!-- d6 -->
<!-- d7 -->
<!-- d6&#45;&gt;d7 -->
<g id="edge56" class="edge">
<title>d6&#45;&gt;d7</title>
<path fill="none" stroke="green" d="M3807.83,-538C3819.78,-538 3882.14,-538 3908.77,-538"/>
<polygon fill="green" stroke="green" points="3908.79,-541.5 3918.79,-538 3908.79,-534.5 3908.79,-541.5"/>
<text text-anchor="middle" x="3863.34" y="-544.8" font-family="Times,serif" font-size="14.00">Memory flow</text>
</g>
</g>
</svg>
