<?xml version="1.0" encoding="UTF-8" standalone="no"?>
<!DOCTYPE svg PUBLIC "-//W3C//DTD SVG 1.1//EN"
 "http://www.w3.org/Graphics/SVG/1.1/DTD/svg11.dtd">
<!-- Generated by graphviz version 2.43.0 (0)
 -->
<!-- Title: debugoutput Pages: 1 -->
<svg width="1472pt" height="286pt"
 viewBox="0.00 0.00 1471.50 285.80" xmlns="http://www.w3.org/2000/svg" xmlns:xlink="http://www.w3.org/1999/xlink">
<g id="graph0" class="graph" transform="scale(1 1) rotate(0) translate(4 281.8)">
<title>debugoutput</title>
<polygon fill="white" stroke="transparent" points="-4,4 -4,-281.8 1467.5,-281.8 1467.5,4 -4,4"/>
<g id="clust1" class="cluster">
<title>cluster_000</title>
<polygon fill="none" stroke="black" points="616.5,-227.2 616.5,-269.8 1455.5,-269.8 1455.5,-227.2 616.5,-227.2"/>
<text text-anchor="middle" x="1036" y="-254.6" font-family="Times,serif" font-size="14.00">Legend</text>
</g>
<!-- node0 -->
<g id="node1" class="node">
<title>node0</title>
<polygon fill="lightgrey" stroke="black" points="606.5,-255 440.5,-255 440.5,-219 606.5,-219 606.5,-255"/>
<text text-anchor="middle" x="523.5" y="-233.3" font-family="Times,serif" font-size="14.00">#0 Method Order : 0</text>
</g>
<!-- node1 -->
<g id="node2" class="node">
<title>node1</title>
<polygon fill="lightgrey" stroke="black" points="840,-182 651,-182 651,-146 840,-146 840,-182"/>
<text text-anchor="middle" x="745.5" y="-160.3" font-family="Times,serif" font-size="14.00">#1 arg0 : float Order : 4</text>
</g>
<!-- node0&#45;&gt;node1 -->
<g id="edge2" class="edge">
<title>node0&#45;&gt;node1</title>
<path fill="none" stroke="red" d="M570.82,-218.99C601.49,-208.84 641.91,-195.88 676.17,-185.2"/>
<polygon fill="red" stroke="red" points="677.61,-188.42 686.12,-182.11 675.53,-181.74 677.61,-188.42"/>
</g>
<!-- node2 -->
<g id="node3" class="node">
<title>node2</title>
<polygon fill="lightgrey" stroke="black" points="189,-182 0,-182 0,-146 189,-146 189,-182"/>
<text text-anchor="middle" x="94.5" y="-160.3" font-family="Times,serif" font-size="14.00">#2 arg1 : float Order : 3</text>
</g>
<!-- node0&#45;&gt;node2 -->
<g id="edge4" class="edge">
<title>node0&#45;&gt;node2</title>
<path fill="none" stroke="red" d="M440.47,-223.14C371.74,-212.04 273.75,-195.86 199.57,-183.38"/>
<polygon fill="red" stroke="red" points="199.71,-179.86 189.26,-181.65 198.54,-186.76 199.71,-179.86"/>
</g>
<!-- node3 -->
<g id="node4" class="node">
<title>node3</title>
<polygon fill="lightgrey" stroke="black" points="633,-182 414,-182 414,-146 633,-146 633,-182"/>
<text text-anchor="middle" x="523.5" y="-160.3" font-family="Times,serif" font-size="14.00">#3 this : MathTest Order : 2</text>
</g>
<!-- node0&#45;&gt;node3 -->
<g id="edge6" class="edge">
<title>node0&#45;&gt;node3</title>
<path fill="none" stroke="red" d="M517.62,-218.81C516.78,-210.79 516.55,-201.05 516.92,-192.07"/>
<polygon fill="red" stroke="red" points="520.42,-192.25 517.64,-182.03 513.44,-191.75 520.42,-192.25"/>
</g>
<!-- node4 -->
<g id="node5" class="node">
<title>node4</title>
<polygon fill="lightgrey" stroke="black" points="395.5,-182 207.5,-182 207.5,-146 395.5,-146 395.5,-182"/>
<text text-anchor="middle" x="301.5" y="-160.3" font-family="Times,serif" font-size="14.00">#4 LabelNode Order : 1</text>
</g>
<!-- node0&#45;&gt;node4 -->
<g id="edge8" class="edge">
<title>node0&#45;&gt;node4</title>
<path fill="none" stroke="red" d="M464.47,-218.99C431.77,-208.88 391.36,-195.99 358.93,-185.34"/>
<polygon fill="red" stroke="red" points="359.73,-181.92 349.14,-182.11 357.54,-188.57 359.73,-181.92"/>
</g>
<!-- node6 -->
<g id="node7" class="node">
<title>node6</title>
<polygon fill="lightgrey" stroke="black" points="956,-36 711,-36 711,0 956,0 956,-36"/>
<text text-anchor="middle" x="833.5" y="-14.3" font-family="Times,serif" font-size="14.00">#6 ReturnValue : float Order : 6</text>
</g>
<!-- node0&#45;&gt;node6 -->
<g id="edge16" class="edge">
<title>node0&#45;&gt;node6</title>
<path fill="none" stroke="black" d="M603.83,-218.96C660.65,-211.35 822.44,-226.85 857.5,-182 887.74,-143.32 893.64,-118.63 875.5,-73 871.12,-61.99 863.32,-51.93 855.53,-43.55"/>
<polygon fill="black" stroke="black" points="857.97,-41.05 848.47,-36.35 852.97,-45.95 857.97,-41.05"/>
</g>
<!-- node1&#45;&gt;node0 -->
<g id="edge1" class="edge">
<title>node1&#45;&gt;node0</title>
<path fill="none" stroke="green" stroke-width="2" d="M697.86,-182.11C667.11,-192.29 626.68,-205.25 592.47,-215.91"/>
<polygon fill="green" stroke="green" stroke-width="2" points="591.05,-212.69 582.53,-218.99 593.12,-219.37 591.05,-212.69"/>
</g>
<!-- node5 -->
<g id="node6" class="node">
<title>node5</title>
<polygon fill="orange" stroke="black" points="875.26,-83.54 875.26,-98.46 801,-109 696,-109 621.74,-98.46 621.74,-83.54 696,-73 801,-73 875.26,-83.54"/>
<text text-anchor="middle" x="748.5" y="-87.3" font-family="Times,serif" font-size="14.00">#5 Div : float Order : 5</text>
</g>
<!-- node1&#45;&gt;node5 -->
<g id="edge10" class="edge">
<title>node1&#45;&gt;node5</title>
<path fill="none" stroke="black" d="M746.23,-145.81C746.57,-137.79 746.98,-128.05 747.36,-119.07"/>
<polygon fill="black" stroke="black" points="750.86,-119.17 747.78,-109.03 743.86,-118.87 750.86,-119.17"/>
<text text-anchor="middle" x="755.46" y="-123.8" font-family="Times,serif" font-size="14.00">*0</text>
</g>
<!-- node2&#45;&gt;node0 -->
<g id="edge3" class="edge">
<title>node2&#45;&gt;node0</title>
<path fill="none" stroke="green" stroke-width="2" d="M189.35,-179.77C261.17,-191.41 359.24,-207.63 430.58,-219.66"/>
<polygon fill="green" stroke="green" stroke-width="2" points="430.02,-223.12 440.46,-221.33 431.18,-216.22 430.02,-223.12"/>
</g>
<!-- node2&#45;&gt;node5 -->
<g id="edge11" class="edge">
<title>node2&#45;&gt;node5</title>
<path fill="none" stroke="black" d="M189.12,-147.27C192.28,-146.83 195.42,-146.4 198.5,-146 345.76,-126.75 516.03,-111.04 627.63,-101.62"/>
<polygon fill="black" stroke="black" points="628.24,-105.08 637.91,-100.76 627.65,-98.11 628.24,-105.08"/>
<text text-anchor="middle" x="620.56" y="-107" font-family="Times,serif" font-size="14.00">*1</text>
</g>
<!-- node3&#45;&gt;node0 -->
<g id="edge5" class="edge">
<title>node3&#45;&gt;node0</title>
<path fill="none" stroke="green" stroke-width="2" d="M529.36,-182.03C530.21,-190.03 530.45,-199.77 530.09,-208.75"/>
<polygon fill="green" stroke="green" stroke-width="2" points="526.59,-208.59 529.38,-218.81 533.57,-209.08 526.59,-208.59"/>
</g>
<!-- node4&#45;&gt;node0 -->
<g id="edge7" class="edge">
<title>node4&#45;&gt;node0</title>
<path fill="none" stroke="green" stroke-width="2" d="M360.88,-182.11C393.63,-192.25 434.04,-205.14 466.41,-215.77"/>
<polygon fill="green" stroke="green" stroke-width="2" points="465.59,-219.19 476.18,-218.99 467.78,-212.54 465.59,-219.19"/>
</g>
<!-- node4&#45;&gt;node5 -->
<g id="edge12" class="edge">
<title>node4&#45;&gt;node5</title>
<path fill="none" stroke="red" d="M395.52,-147.45C398.55,-146.96 401.55,-146.48 404.5,-146 489.55,-132.31 586.49,-117.13 655.74,-106.36"/>
<polygon fill="red" stroke="red" points="656.41,-109.8 665.76,-104.8 655.34,-102.88 656.41,-109.8"/>
</g>
<!-- node5&#45;&gt;node0 -->
<g id="edge9" class="edge">
<title>node5&#45;&gt;node0</title>
<path fill="none" stroke="green" stroke-width="2" d="M803.92,-108.72C821.63,-116.97 839.28,-128.94 849.5,-146 857.72,-159.72 859.9,-169.85 849.5,-182 816.66,-220.36 680.5,-211.07 616.8,-218.57"/>
<polygon fill="green" stroke="green" stroke-width="2" points="616.27,-215.11 606.86,-219.99 617.26,-222.04 616.27,-215.11"/>
</g>
<!-- node5&#45;&gt;node6 -->
<g id="edge14" class="edge">
<title>node5&#45;&gt;node6</title>
<path fill="none" stroke="black" d="M763.2,-72.81C773.2,-63.66 786.68,-52.26 799.2,-42.32"/>
<polygon fill="black" stroke="black" points="801.53,-44.94 807.25,-36.03 797.22,-39.43 801.53,-44.94"/>
<text text-anchor="middle" x="798.17" y="-50.15" font-family="Times,serif" font-size="14.00">*0</text>
</g>
<!-- node5&#45;&gt;node6 -->
<g id="edge15" class="edge">
<title>node5&#45;&gt;node6</title>
<path fill="none" stroke="red" d="M774.95,-72.81C786.65,-63.83 800.16,-52.69 811.32,-42.89"/>
<polygon fill="red" stroke="red" points="813.86,-45.31 818.97,-36.03 809.19,-40.1 813.86,-45.31"/>
</g>
<!-- node6&#45;&gt;node0 -->
<g id="edge13" class="edge">
<title>node6&#45;&gt;node0</title>
<path fill="none" stroke="green" stroke-width="2" d="M864.33,-36.12C876.03,-45.64 887.74,-58.5 893.5,-73 911.64,-118.63 905.74,-143.32 875.5,-182 840.37,-226.94 678.02,-211.29 621.5,-219 619.99,-219.21 618.47,-219.42 616.93,-219.64"/>
<polygon fill="green" stroke="green" stroke-width="2" points="616.04,-216.24 606.69,-221.21 617.1,-223.16 616.04,-216.24"/>
</g>
<!-- c0 -->
<!-- c1 -->
<!-- c0&#45;&gt;c1 -->
<g id="edge17" class="edge">
<title>c0&#45;&gt;c1</title>
<path fill="none" stroke="red" d="M1338.39,-237C1349.61,-237 1407.74,-237 1433.36,-237"/>
<polygon fill="red" stroke="red" points="1433.56,-240.5 1443.56,-237 1433.56,-233.5 1433.56,-240.5"/>
<text text-anchor="middle" x="1391" y="-243.8" font-family="Times,serif" font-size="14.00">Control flow</text>
</g>
<!-- c2 -->
<!-- c3 -->
<!-- c2&#45;&gt;c3 -->
<g id="edge18" class="edge">
<title>c2&#45;&gt;c3</title>
<path fill="none" stroke="red" stroke-dasharray="5,2" d="M1131.58,-237C1148.55,-237 1264.71,-237 1302.58,-237"/>
<polygon fill="red" stroke="red" points="1302.67,-240.5 1312.67,-237 1302.67,-233.5 1302.67,-240.5"/>
<text text-anchor="middle" x="1222" y="-243.8" font-family="Times,serif" font-size="14.00">Control flow back edge</text>
</g>
<!-- d0 -->
<!-- d1 -->
<!-- d0&#45;&gt;d1 -->
<g id="edge19" class="edge">
<title>d0&#45;&gt;d1</title>
<path fill="none" stroke="black" d="M1020.36,-237C1029.91,-237 1073.81,-237 1095.42,-237"/>
<polygon fill="black" stroke="black" points="1095.65,-240.5 1105.65,-237 1095.65,-233.5 1095.65,-240.5"/>
<text text-anchor="middle" x="1063" y="-243.8" font-family="Times,serif" font-size="14.00">Data flow</text>
</g>
<!-- d2 -->
<!-- d3 -->
<!-- d2&#45;&gt;d3 -->
<g id="edge20" class="edge">
<title>d2&#45;&gt;d3</title>
<path fill="none" stroke="black" stroke-dasharray="1,5" d="M894.31,-237C904.96,-237 959.96,-237 984.58,-237"/>
<polygon fill="black" stroke="black" points="984.65,-240.5 994.65,-237 984.65,-233.5 984.65,-240.5"/>
<text text-anchor="middle" x="944.5" y="-243.8" font-family="Times,serif" font-size="14.00">Declaration</text>
</g>
<!-- d4 -->
<!-- d5 -->
<!-- d4&#45;&gt;d5 -->
<g id="edge21" class="edge">
<title>d4&#45;&gt;d5</title>
<path fill="none" stroke="blue" d="M751.6,-237C764.22,-237 830.38,-237 858.18,-237"/>
<polygon fill="blue" stroke="blue" points="858.34,-240.5 868.34,-237 858.34,-233.5 858.34,-240.5"/>
<text text-anchor="middle" x="810" y="-243.8" font-family="Times,serif" font-size="14.00">PHI Data flow</text>
</g>
<!-- d6 -->
<!-- d7 -->
<!-- d6&#45;&gt;d7 -->
<g id="edge22" class="edge">
<title>d6&#45;&gt;d7</title>
<path fill="none" stroke="green" d="M628.61,-237C639.65,-237 691.17,-237 715.16,-237"/>
<polygon fill="green" stroke="green" points="715.4,-240.5 725.4,-237 715.4,-233.5 715.4,-240.5"/>
<text text-anchor="middle" x="677" y="-243.8" font-family="Times,serif" font-size="14.00">Dominance</text>
</g>
</g>
</svg>
