<?xml version="1.0" encoding="UTF-8" standalone="no"?>
<!DOCTYPE svg PUBLIC "-//W3C//DTD SVG 1.1//EN"
 "http://www.w3.org/Graphics/SVG/1.1/DTD/svg11.dtd">
<!-- Generated by graphviz version 2.43.0 (0)
 -->
<!-- Title: %3 Pages: 1 -->
<svg width="801pt" height="359pt"
 viewBox="0.00 0.00 800.50 358.80" xmlns="http://www.w3.org/2000/svg" xmlns:xlink="http://www.w3.org/1999/xlink">
<g id="graph0" class="graph" transform="scale(1 1) rotate(0) translate(4 354.8)">
<title>%3</title>
<polygon fill="white" stroke="transparent" points="-4,4 -4,-354.8 796.5,-354.8 796.5,4 -4,4"/>
<g id="clust1" class="cluster">
<title>cluster_000</title>
<polygon fill="none" stroke="black" points="448.5,-300.2 448.5,-342.8 784.5,-342.8 784.5,-300.2 448.5,-300.2"/>
<text text-anchor="middle" x="616.5" y="-327.6" font-family="Times,serif" font-size="14.00">Legend</text>
</g>
<!-- node0 -->
<g id="node1" class="node">
<title>node0</title>
<polygon fill="lightgrey" stroke="black" points="438.5,-328 40.5,-328 40.5,-292 438.5,-292 438.5,-328"/>
<text text-anchor="middle" x="239.5" y="-306.3" font-family="Times,serif" font-size="14.00">#0 LocalVariable[name=bt, slot=0, type=B] Order: 0</text>
</g>
<!-- node1 -->
<g id="node2" class="node">
<title>node1</title>
<polygon fill="lightgrey" stroke="black" points="479,-255 0,-255 0,-219 479,-219 479,-255"/>
<text text-anchor="middle" x="239.5" y="-233.3" font-family="Times,serif" font-size="14.00">#1 Label[context=CodeModel[id=1542856295], bci=0] Order: 1</text>
</g>
<!-- node0&#45;&gt;node1 -->
<g id="edge1" class="edge">
<title>node0&#45;&gt;node1</title>
<path fill="none" stroke="red" d="M239.5,-291.81C239.5,-283.79 239.5,-274.05 239.5,-265.07"/>
<polygon fill="red" stroke="red" points="243,-265.03 239.5,-255.03 236,-265.03 243,-265.03"/>
</g>
<!-- node2 -->
<g id="node3" class="node">
<title>node2</title>
<polygon fill="lightgrey" stroke="black" points="375.5,-182 103.5,-182 103.5,-146 375.5,-146 375.5,-182"/>
<text text-anchor="middle" x="239.5" y="-160.3" font-family="Times,serif" font-size="14.00">#2 LineNumber[line=119] Order: 2</text>
</g>
<!-- node1&#45;&gt;node2 -->
<g id="edge2" class="edge">
<title>node1&#45;&gt;node2</title>
<path fill="none" stroke="red" d="M239.5,-218.81C239.5,-210.79 239.5,-201.05 239.5,-192.07"/>
<polygon fill="red" stroke="red" points="243,-192.03 239.5,-182.03 236,-192.03 243,-192.03"/>
</g>
<!-- node3 -->
<g id="node4" class="node">
<title>node3</title>
<polygon fill="lightgrey" stroke="black" points="391,-109 88,-109 88,-73 391,-73 391,-109"/>
<text text-anchor="middle" x="239.5" y="-87.3" font-family="Times,serif" font-size="14.00">#3 Load[OP=ILOAD_0, slot=0] Order: 3</text>
</g>
<!-- node2&#45;&gt;node3 -->
<g id="edge3" class="edge">
<title>node2&#45;&gt;node3</title>
<path fill="none" stroke="red" d="M239.5,-145.81C239.5,-137.79 239.5,-128.05 239.5,-119.07"/>
<polygon fill="red" stroke="red" points="243,-119.03 239.5,-109.03 236,-119.03 243,-119.03"/>
</g>
<!-- node4 -->
<g id="node5" class="node">
<title>node4</title>
<polygon fill="lightgrey" stroke="black" points="374,-36 105,-36 105,0 374,0 374,-36"/>
<text text-anchor="middle" x="239.5" y="-14.3" font-family="Times,serif" font-size="14.00">#4 Return[OP=IRETURN] Order: 4</text>
</g>
<!-- node3&#45;&gt;node4 -->
<g id="edge4" class="edge">
<title>node3&#45;&gt;node4</title>
<path fill="none" stroke="red" d="M239.5,-72.81C239.5,-64.79 239.5,-55.05 239.5,-46.07"/>
<polygon fill="red" stroke="red" points="243,-46.03 239.5,-36.03 236,-46.03 243,-46.03"/>
</g>
<!-- c0 -->
<!-- c1 -->
<!-- c0&#45;&gt;c1 -->
<g id="edge5" class="edge">
<title>c0&#45;&gt;c1</title>
<path fill="none" stroke="red" d="M667.39,-310C678.61,-310 736.74,-310 762.36,-310"/>
<polygon fill="red" stroke="red" points="762.56,-313.5 772.56,-310 762.56,-306.5 762.56,-313.5"/>
<text text-anchor="middle" x="720" y="-316.8" font-family="Times,serif" font-size="14.00">Control flow</text>
</g>
<!-- c2 -->
<!-- c3 -->
<!-- c2&#45;&gt;c3 -->
<g id="edge6" class="edge">
<title>c2&#45;&gt;c3</title>
<path fill="none" stroke="red" stroke-dasharray="5,2" d="M460.58,-310C477.55,-310 593.71,-310 631.58,-310"/>
<polygon fill="red" stroke="red" points="631.67,-313.5 641.67,-310 631.67,-306.5 631.67,-313.5"/>
<text text-anchor="middle" x="551" y="-316.8" font-family="Times,serif" font-size="14.00">Control flow back edge</text>
</g>
</g>
</svg>
