<?xml version="1.0" encoding="UTF-8" standalone="no"?>
<!DOCTYPE svg PUBLIC "-//W3C//DTD SVG 1.1//EN"
 "http://www.w3.org/Graphics/SVG/1.1/DTD/svg11.dtd">
<!-- Generated by graphviz version 2.43.0 (0)
 -->
<!-- Title: %3 Pages: 1 -->
<svg width="1378pt" height="678pt"
 viewBox="0.00 0.00 1377.55 677.80" xmlns="http://www.w3.org/2000/svg" xmlns:xlink="http://www.w3.org/1999/xlink">
<g id="graph0" class="graph" transform="scale(1 1) rotate(0) translate(4 673.8)">
<title>%3</title>
<polygon fill="white" stroke="transparent" points="-4,4 -4,-673.8 1373.55,-673.8 1373.55,4 -4,4"/>
<g id="clust1" class="cluster">
<title>cluster_0</title>
<polygon fill="none" stroke="lightgray" points="151.55,-65 151.55,-190 439.55,-190 439.55,-65 151.55,-65"/>
</g>
<g id="clust2" class="cluster">
<title>cluster_1</title>
<polygon fill="none" stroke="lightgray" points="43.55,-293 43.55,-345 351.55,-345 351.55,-293 43.55,-293"/>
</g>
<g id="clust3" class="cluster">
<title>cluster_2</title>
<polygon fill="none" stroke="lightgray" points="384.55,-448 384.55,-573 758.55,-573 758.55,-448 384.55,-448"/>
</g>
<g id="clust4" class="cluster">
<title>cluster_000</title>
<polygon fill="none" stroke="black" points="508.55,-619.2 508.55,-661.8 1361.55,-661.8 1361.55,-619.2 508.55,-619.2"/>
<text text-anchor="middle" x="935.05" y="-646.6" font-family="Times,serif" font-size="14.00">Legend</text>
</g>
<!-- node0 -->
<g id="node1" class="node">
<title>node0</title>
<polygon fill="lightgrey" stroke="transparent" points="499.05,-656 406.05,-656 406.05,-602 499.05,-602 499.05,-656"/>
<polygon fill="none" stroke="black" points="406.55,-629 406.55,-656 499.55,-656 499.55,-629 406.55,-629"/>
<text text-anchor="start" x="412.55" y="-638.8" font-family="Times,serif" font-size="14.00">#0 Method</text>
<polygon fill="yellow" stroke="transparent" points="406.55,-602 406.55,-629 499.55,-629 499.55,-602 406.55,-602"/>
<polygon fill="none" stroke="black" points="406.55,-602 406.55,-629 499.55,-629 499.55,-602 406.55,-602"/>
<text text-anchor="start" x="419.55" y="-611.8" font-family="Times,serif" font-size="14.00">arg0 : int</text>
</g>
<!-- node15 -->
<g id="node2" class="node">
<title>node15</title>
<polygon fill="lightgrey" stroke="black" points="623.05,-182 450.05,-182 450.05,-146 623.05,-146 623.05,-182"/>
<text text-anchor="middle" x="536.55" y="-160.3" font-family="Times,serif" font-size="14.00">#15 ReturnValue : int</text>
</g>
<!-- node0&#45;&gt;node15 -->
<g id="edge3" class="edge">
<title>node0&#45;&gt;node15</title>
<path fill="none" stroke="green" d="M499.3,-603.7C501.05,-603.09 502.81,-602.52 504.55,-602 618.82,-568.18 844.81,-615.23 762.55,-529 747.88,-513.63 401.77,-512.09 380.55,-511 304.75,-507.1 98.59,-539.69 39.55,-492 -5.57,-455.55 14.85,-422.75 9.55,-365 6.58,-332.69 -9.44,-318.31 9.55,-292 125.52,-131.34 249.3,-229.1 443.55,-190 451.47,-188.4 459.72,-186.52 467.89,-184.51"/>
<polygon fill="green" stroke="green" points="468.94,-187.86 477.78,-182.02 467.23,-181.07 468.94,-187.86"/>
</g>
<!-- node3 -->
<g id="node3" class="node">
<title>node3</title>
<polygon fill="lightgreen" stroke="black" points="626.89,-466.54 626.89,-481.46 595.06,-492 550.04,-492 518.21,-481.46 518.21,-466.54 550.04,-456 595.06,-456 626.89,-466.54"/>
<text text-anchor="middle" x="572.55" y="-470.3" font-family="Times,serif" font-size="14.00">#3 Φ int</text>
</g>
<!-- node0&#45;&gt;node3 -->
<g id="edge27" class="edge">
<title>node0:prj1&#45;&gt;node3</title>
<path fill="none" stroke="blue" d="M500.55,-615C506.59,-615 499.87,-605.83 504.55,-602 553.95,-561.5 747.72,-620.39 790.55,-573 803.66,-558.49 802.67,-544.35 790.55,-529 768.61,-501.2 669.87,-500.72 635.55,-492 631.47,-490.96 627.25,-489.87 623.02,-488.76"/>
<polygon fill="blue" stroke="blue" points="623.73,-485.33 613.17,-486.15 621.94,-492.09 623.73,-485.33"/>
<text text-anchor="middle" x="632.86" y="-478.92" font-family="Times,serif" font-size="14.00">if #2</text>
</g>
<!-- node2 -->
<g id="node8" class="node">
<title>node2</title>
<polygon fill="lightgrey" stroke="black" points="512.05,-565 393.05,-565 393.05,-529 512.05,-529 512.05,-565"/>
<text text-anchor="middle" x="452.55" y="-543.3" font-family="Times,serif" font-size="14.00">#2 LabelNode</text>
</g>
<!-- node0&#45;&gt;node2 -->
<g id="edge25" class="edge">
<title>node0&#45;&gt;node2</title>
<path fill="none" stroke="red" d="M452.55,-601.81C452.55,-593.35 452.55,-583.95 452.55,-575.4"/>
<polygon fill="red" stroke="red" points="456.05,-575.17 452.55,-565.17 449.05,-575.17 456.05,-575.17"/>
</g>
<!-- node12 -->
<g id="node11" class="node">
<title>node12</title>
<polygon fill="lightgrey" stroke="black" points="352.55,-255 238.55,-255 238.55,-219 352.55,-219 352.55,-255"/>
<text text-anchor="middle" x="295.55" y="-233.3" font-family="Times,serif" font-size="14.00">#12 ClassInit</text>
</g>
<!-- node0&#45;&gt;node12 -->
<g id="edge15" class="edge">
<title>node0&#45;&gt;node12</title>
<path fill="none" stroke="green" d="M499.27,-603.59C501.03,-603.01 502.8,-602.47 504.55,-602 627.09,-568.96 668.07,-620.77 789.55,-584 798.89,-581.17 803.68,-581.45 808.55,-573 818.32,-556.06 813.54,-547.91 808.55,-529 797.98,-488.97 792.07,-477.02 762.55,-448 710.92,-397.25 543.38,-319.83 476.55,-292 439.91,-276.74 397.45,-263.84 362.86,-254.47"/>
<polygon fill="green" stroke="green" points="363.43,-251 352.87,-251.81 361.63,-257.77 363.43,-251"/>
</g>
<!-- node3&#45;&gt;node15 -->
<g id="edge1" class="edge">
<title>node3&#45;&gt;node15</title>
<path fill="none" stroke="black" d="M605.77,-459.42C615.34,-455.61 625.82,-451.55 635.55,-448 648.89,-443.13 667.74,-451.03 665.55,-437 648.46,-327.71 656.38,-288.14 589.55,-200 586.26,-195.66 582.27,-191.69 577.97,-188.12"/>
<polygon fill="black" stroke="black" points="580.07,-185.32 569.98,-182.1 575.86,-190.91 580.07,-185.32"/>
<text text-anchor="middle" x="589.54" y="-182.55" font-family="Times,serif" font-size="14.00">*0</text>
</g>
<!-- node7 -->
<g id="node6" class="node">
<title>node7</title>
<polygon fill="orange" stroke="black" points="547.7,-393.54 547.7,-408.46 462.09,-419 341.01,-419 255.4,-408.46 255.4,-393.54 341.01,-383 462.09,-383 547.7,-393.54"/>
<text text-anchor="middle" x="401.55" y="-397.3" font-family="Times,serif" font-size="14.00">#7 NumericCondition : GE</text>
</g>
<!-- node3&#45;&gt;node7 -->
<g id="edge29" class="edge">
<title>node3&#45;&gt;node7</title>
<path fill="none" stroke="black" d="M539.58,-459.31C514.73,-448.99 480.21,-434.66 451.91,-422.91"/>
<polygon fill="black" stroke="black" points="453.15,-419.64 442.58,-419.03 450.47,-426.1 453.15,-419.64"/>
<text text-anchor="middle" x="462.56" y="-414.48" font-family="Times,serif" font-size="14.00">*1</text>
</g>
<!-- node14 -->
<g id="node4" class="node">
<title>node14</title>
<polygon fill="lightgrey" stroke="black" points="532.55,-255 404.55,-255 404.55,-219 532.55,-219 532.55,-255"/>
<text text-anchor="middle" x="468.55" y="-233.3" font-family="Times,serif" font-size="14.00">#14 LabelNode</text>
</g>
<!-- node14&#45;&gt;node15 -->
<g id="edge2" class="edge">
<title>node14&#45;&gt;node15</title>
<path fill="none" stroke="red" d="M485.01,-218.81C493.45,-210 503.87,-199.13 513.12,-189.46"/>
<polygon fill="red" stroke="red" points="515.85,-191.67 520.24,-182.03 510.8,-186.83 515.85,-191.67"/>
</g>
<!-- node8 -->
<g id="node5" class="node">
<title>node8</title>
<polygon fill="lightgrey" stroke="transparent" points="468.05,-346 379.05,-346 379.05,-292 468.05,-292 468.05,-346"/>
<polygon fill="none" stroke="black" points="379.55,-319 379.55,-346 468.55,-346 468.55,-319 379.55,-319"/>
<text text-anchor="start" x="405.55" y="-328.8" font-family="Times,serif" font-size="14.00">#8 If</text>
<polygon fill="yellow" stroke="transparent" points="379.55,-292 379.55,-319 425.55,-319 425.55,-292 379.55,-292"/>
<polygon fill="none" stroke="black" points="379.55,-292 379.55,-319 425.55,-319 425.55,-292 379.55,-292"/>
<text text-anchor="start" x="385.55" y="-301.8" font-family="Times,serif" font-size="14.00">false</text>
<polygon fill="yellow" stroke="transparent" points="425.55,-292 425.55,-319 468.55,-319 468.55,-292 425.55,-292"/>
<polygon fill="none" stroke="black" points="425.55,-292 425.55,-319 468.55,-319 468.55,-292 425.55,-292"/>
<text text-anchor="start" x="431.55" y="-301.8" font-family="Times,serif" font-size="14.00">true</text>
</g>
<!-- node8&#45;&gt;node14 -->
<g id="edge4" class="edge">
<title>node8:prj10&#45;&gt;node14</title>
<path fill="none" stroke="red" d="M447.55,-292C447.55,-282.65 450.32,-272.96 453.85,-264.42"/>
<polygon fill="red" stroke="red" points="457.03,-265.89 458.05,-255.34 450.67,-262.95 457.03,-265.89"/>
</g>
<!-- node8&#45;&gt;node12 -->
<g id="edge16" class="edge">
<title>node8:prj9&#45;&gt;node12</title>
<path fill="none" stroke="red" d="M402.55,-292C402.55,-269.89 384.11,-256.83 362.54,-249.12"/>
<polygon fill="red" stroke="red" points="363.4,-245.72 352.81,-246.03 361.28,-252.39 363.4,-245.72"/>
</g>
<!-- node11 -->
<g id="node13" class="node">
<title>node11</title>
<polygon fill="lightgreen" stroke="black" points="343.7,-311.54 343.7,-326.46 258.09,-337 137.01,-337 51.4,-326.46 51.4,-311.54 137.01,-301 258.09,-301 343.7,-311.54"/>
<text text-anchor="middle" x="197.55" y="-315.3" font-family="Times,serif" font-size="14.00">#11 Class SimpleLoopTest</text>
</g>
<!-- node8&#45;&gt;node11 -->
<g id="edge17" class="edge">
<title>node8:prj9&#45;&gt;node11</title>
<path fill="none" stroke="black" stroke-dasharray="1,5" d="M379.05,-305C360.45,-305 340.8,-305.75 321.58,-306.9"/>
<polygon fill="black" stroke="black" points="321.34,-303.41 311.58,-307.54 321.78,-310.39 321.34,-303.41"/>
</g>
<!-- node7&#45;&gt;node8 -->
<g id="edge5" class="edge">
<title>node7&#45;&gt;node8</title>
<path fill="none" stroke="black" d="M406.32,-382.64C408.48,-374.81 411.1,-365.26 413.65,-355.99"/>
<polygon fill="black" stroke="black" points="417.08,-356.72 416.36,-346.15 410.33,-354.86 417.08,-356.72"/>
<text text-anchor="middle" x="419.7" y="-362.17" font-family="Times,serif" font-size="14.00">*0</text>
</g>
<!-- node4 -->
<g id="node7" class="node">
<title>node4</title>
<polygon fill="lightgrey" stroke="black" points="237.55,-419 51.55,-419 51.55,-383 237.55,-383 237.55,-419"/>
<text text-anchor="middle" x="144.55" y="-397.3" font-family="Times,serif" font-size="14.00">#4 LoopHeader : Loop6</text>
</g>
<!-- node4&#45;&gt;node8 -->
<g id="edge6" class="edge">
<title>node4&#45;&gt;node8</title>
<path fill="none" stroke="red" d="M219.85,-382.95C260.38,-373.22 311.05,-360.15 355.55,-346 360.06,-344.57 364.7,-343 369.34,-341.36"/>
<polygon fill="red" stroke="red" points="370.6,-344.63 378.82,-337.94 368.22,-338.04 370.6,-344.63"/>
</g>
<!-- node2&#45;&gt;node3 -->
<g id="edge26" class="edge">
<title>node2&#45;&gt;node3</title>
<path fill="none" stroke="black" stroke-dasharray="1,5" d="M481.29,-528.99C497.94,-519.14 519.05,-506.65 536.77,-496.17"/>
<polygon fill="black" stroke="black" points="538.86,-499 545.69,-490.89 535.3,-492.97 538.86,-499"/>
</g>
<!-- node2&#45;&gt;node4 -->
<g id="edge7" class="edge">
<title>node2&#45;&gt;node4</title>
<path fill="none" stroke="red" d="M416.01,-528.92C359.63,-502.55 251.53,-452.01 190.12,-423.3"/>
<polygon fill="red" stroke="red" points="191.58,-420.13 181.04,-419.06 188.62,-426.47 191.58,-420.13"/>
</g>
<!-- node6 -->
<g id="node12" class="node">
<title>node6</title>
<polygon fill="orange" stroke="black" points="500.89,-466.54 500.89,-481.46 469.06,-492 424.04,-492 392.21,-481.46 392.21,-466.54 424.04,-456 469.06,-456 500.89,-466.54"/>
<text text-anchor="middle" x="446.55" y="-470.3" font-family="Times,serif" font-size="14.00">#6 Φ int</text>
</g>
<!-- node2&#45;&gt;node6 -->
<g id="edge18" class="edge">
<title>node2&#45;&gt;node6</title>
<path fill="none" stroke="black" stroke-dasharray="1,5" d="M451.1,-528.81C450.42,-520.79 449.6,-511.05 448.84,-502.07"/>
<polygon fill="black" stroke="black" points="452.32,-501.7 447.99,-492.03 445.34,-502.29 452.32,-501.7"/>
</g>
<!-- node5 -->
<g id="node14" class="node">
<title>node5</title>
<polygon fill="lightgreen" stroke="black" points="750.07,-466.54 750.07,-481.46 719.31,-492 675.79,-492 645.02,-481.46 645.02,-466.54 675.79,-456 719.31,-456 750.07,-466.54"/>
<text text-anchor="middle" x="697.55" y="-470.3" font-family="Times,serif" font-size="14.00">#5 int 0</text>
</g>
<!-- node2&#45;&gt;node5 -->
<g id="edge24" class="edge">
<title>node2&#45;&gt;node5</title>
<path fill="none" stroke="black" stroke-dasharray="1,5" d="M511.23,-528.99C553.39,-516.78 609.53,-500.51 649.13,-489.03"/>
<polygon fill="black" stroke="black" points="650.19,-492.37 658.82,-486.22 648.24,-485.65 650.19,-492.37"/>
</g>
<!-- node16 -->
<g id="node9" class="node">
<title>node16</title>
<polygon fill="lightgrey" stroke="black" points="134.05,-492 49.05,-492 49.05,-456 134.05,-456 134.05,-492"/>
<text text-anchor="middle" x="91.55" y="-470.3" font-family="Times,serif" font-size="14.00">#16 Goto</text>
</g>
<!-- node16&#45;&gt;node4 -->
<g id="edge8" class="edge">
<title>node16&#45;&gt;node4</title>
<path fill="none" stroke="red" stroke-dasharray="5,2" d="M104.38,-455.81C110.76,-447.27 118.6,-436.77 125.65,-427.32"/>
<polygon fill="red" stroke="red" points="128.66,-429.14 131.84,-419.03 123.05,-424.95 128.66,-429.14"/>
</g>
<!-- node13 -->
<g id="node10" class="node">
<title>node13</title>
<polygon fill="lightgrey" stroke="black" points="431.55,-182 159.55,-182 159.55,-146 431.55,-146 431.55,-182"/>
<text text-anchor="middle" x="295.55" y="-160.3" font-family="Times,serif" font-size="14.00">#13 Invoke static compute : (int)int</text>
</g>
<!-- node13&#45;&gt;node16 -->
<g id="edge9" class="edge">
<title>node13&#45;&gt;node16</title>
<path fill="none" stroke="red" d="M159.15,-177.13C91.28,-187.08 23.55,-204.83 23.55,-236 23.55,-402 23.55,-402 23.55,-402 23.55,-421.44 37.01,-437.64 51.96,-449.63"/>
<polygon fill="red" stroke="red" points="50.22,-452.7 60.34,-455.85 54.39,-447.08 50.22,-452.7"/>
</g>
<!-- node17 -->
<g id="node16" class="node">
<title>node17</title>
<polygon fill="lightgreen" stroke="black" points="430.74,-83.54 430.74,-98.46 396.07,-109 347.03,-109 312.36,-98.46 312.36,-83.54 347.03,-73 396.07,-73 430.74,-83.54"/>
<text text-anchor="middle" x="371.55" y="-87.3" font-family="Times,serif" font-size="14.00">#17 int 1</text>
</g>
<!-- node13&#45;&gt;node17 -->
<g id="edge23" class="edge">
<title>node13&#45;&gt;node17</title>
<path fill="none" stroke="black" stroke-dasharray="1,5" d="M313.95,-145.81C323.56,-136.83 335.48,-125.69 345.98,-115.89"/>
<polygon fill="black" stroke="black" points="348.4,-118.41 353.32,-109.03 343.63,-113.3 348.4,-118.41"/>
</g>
<!-- node12&#45;&gt;node13 -->
<g id="edge10" class="edge">
<title>node12&#45;&gt;node13</title>
<path fill="none" stroke="black" d="M283.79,-218.81C282.11,-210.79 281.65,-201.05 282.39,-192.07"/>
<polygon fill="black" stroke="black" points="285.88,-192.42 283.83,-182.03 278.95,-191.43 285.88,-192.42"/>
<text text-anchor="middle" x="289.63" y="-197.47" font-family="Times,serif" font-size="14.00">*0</text>
</g>
<!-- node12&#45;&gt;node13 -->
<g id="edge12" class="edge">
<title>node12&#45;&gt;node13</title>
<path fill="none" stroke="green" d="M295.55,-218.81C295.55,-210.79 295.55,-201.05 295.55,-192.07"/>
<polygon fill="green" stroke="green" points="299.05,-192.03 295.55,-182.03 292.05,-192.03 299.05,-192.03"/>
</g>
<!-- node12&#45;&gt;node13 -->
<g id="edge13" class="edge">
<title>node12&#45;&gt;node13</title>
<path fill="none" stroke="red" d="M307.31,-218.81C308.99,-210.79 309.45,-201.05 308.71,-192.07"/>
<polygon fill="red" stroke="red" points="312.15,-191.43 307.27,-182.03 305.22,-192.42 312.15,-191.43"/>
</g>
<!-- node6&#45;&gt;node7 -->
<g id="edge28" class="edge">
<title>node6&#45;&gt;node7</title>
<path fill="none" stroke="black" d="M435.66,-455.81C430.29,-447.35 423.72,-436.98 417.78,-427.61"/>
<polygon fill="black" stroke="black" points="420.65,-425.6 412.34,-419.03 414.74,-429.35 420.65,-425.6"/>
<text text-anchor="middle" x="429.19" y="-426.11" font-family="Times,serif" font-size="14.00">*0</text>
</g>
<!-- node6&#45;&gt;node13 -->
<g id="edge11" class="edge">
<title>node6&#45;&gt;node13</title>
<path fill="none" stroke="black" d="M478.44,-458.94C516.64,-441.59 575.55,-413.06 575.55,-402 575.55,-402 575.55,-402 575.55,-236 575.55,-219.11 557.48,-224.63 541.55,-219 499.57,-204.16 452.06,-192.58 410.06,-184.01"/>
<polygon fill="black" stroke="black" points="410.57,-180.55 400.08,-182.01 409.19,-187.41 410.57,-180.55"/>
<text text-anchor="middle" x="419.51" y="-173.59" font-family="Times,serif" font-size="14.00">*1</text>
</g>
<!-- node18 -->
<g id="node15" class="node">
<title>node18</title>
<polygon fill="orange" stroke="black" points="532.13,-10.54 532.13,-25.46 486.1,-36 421,-36 374.97,-25.46 374.97,-10.54 421,0 486.1,0 532.13,-10.54"/>
<text text-anchor="middle" x="453.55" y="-14.3" font-family="Times,serif" font-size="14.00">#18 Add : int</text>
</g>
<!-- node6&#45;&gt;node18 -->
<g id="edge21" class="edge">
<title>node6&#45;&gt;node18</title>
<path fill="none" stroke="black" d="M479.75,-459.36C489.32,-455.56 499.81,-451.51 509.55,-448 571.97,-425.53 651.55,-468.34 651.55,-402 651.55,-402 651.55,-402 651.55,-90 651.55,-62.44 582.72,-42.7 526.22,-31.13"/>
<polygon fill="black" stroke="black" points="526.69,-27.66 516.2,-29.14 525.32,-34.52 526.69,-27.66"/>
<text text-anchor="middle" x="535.63" y="-20.69" font-family="Times,serif" font-size="14.00">*0</text>
</g>
<!-- node11&#45;&gt;node12 -->
<g id="edge14" class="edge">
<title>node11&#45;&gt;node12</title>
<path fill="none" stroke="black" d="M218.81,-300.64C232.78,-289.24 251.22,-274.18 266.53,-261.69"/>
<polygon fill="black" stroke="black" points="269.13,-264.09 274.66,-255.05 264.7,-258.66 269.13,-264.09"/>
<text text-anchor="middle" x="265.97" y="-269.36" font-family="Times,serif" font-size="14.00">*0</text>
</g>
<!-- node5&#45;&gt;node6 -->
<g id="edge19" class="edge">
<title>node5&#45;&gt;node6</title>
<path fill="none" stroke="blue" d="M672.08,-490.84C659.05,-498.46 642.58,-506.62 626.55,-510.5 579.9,-521.79 565.23,-521.66 518.55,-510.5 505.98,-507.5 493.13,-501.92 481.83,-496.02"/>
<polygon fill="blue" stroke="blue" points="483.19,-492.77 472.74,-491.03 479.82,-498.91 483.19,-492.77"/>
<text text-anchor="middle" x="492.7" y="-488.64" font-family="Times,serif" font-size="14.00">if #2</text>
</g>
<!-- node18&#45;&gt;node6 -->
<g id="edge20" class="edge">
<title>node18&#45;&gt;node6</title>
<path fill="none" stroke="blue" stroke-dasharray="5,2" d="M485.28,-36.15C523.53,-57.95 588.21,-98.52 632.55,-146 721.68,-241.46 757.47,-345.22 665.55,-438 653.33,-450.34 526.5,-444.19 509.55,-448 502.13,-449.67 494.44,-452.08 487.09,-454.77"/>
<polygon fill="blue" stroke="blue" points="485.4,-451.67 477.34,-458.55 487.93,-458.2 485.4,-451.67"/>
<text text-anchor="middle" x="491.19" y="-440.42" font-family="Times,serif" font-size="14.00">if #16</text>
</g>
<!-- node17&#45;&gt;node18 -->
<g id="edge22" class="edge">
<title>node17&#45;&gt;node18</title>
<path fill="none" stroke="black" d="M391.4,-72.81C401.87,-63.74 414.89,-52.48 426.29,-42.6"/>
<polygon fill="black" stroke="black" points="428.61,-45.22 433.88,-36.03 424.03,-39.93 428.61,-45.22"/>
<text text-anchor="middle" x="425.71" y="-50.58" font-family="Times,serif" font-size="14.00">*1</text>
</g>
<!-- c0 -->
<!-- c1 -->
<!-- c0&#45;&gt;c1 -->
<g id="edge30" class="edge">
<title>c0&#45;&gt;c1</title>
<path fill="none" stroke="red" d="M1244.44,-629C1255.66,-629 1313.79,-629 1339.41,-629"/>
<polygon fill="red" stroke="red" points="1339.61,-632.5 1349.61,-629 1339.61,-625.5 1339.61,-632.5"/>
<text text-anchor="middle" x="1297.05" y="-635.8" font-family="Times,serif" font-size="14.00">Control flow</text>
</g>
<!-- c2 -->
<!-- c3 -->
<!-- c2&#45;&gt;c3 -->
<g id="edge31" class="edge">
<title>c2&#45;&gt;c3</title>
<path fill="none" stroke="red" stroke-dasharray="5,2" d="M1037.63,-629C1054.6,-629 1170.76,-629 1208.63,-629"/>
<polygon fill="red" stroke="red" points="1208.72,-632.5 1218.72,-629 1208.72,-625.5 1208.72,-632.5"/>
<text text-anchor="middle" x="1128.05" y="-635.8" font-family="Times,serif" font-size="14.00">Control flow back edge</text>
</g>
<!-- d0 -->
<!-- d1 -->
<!-- d0&#45;&gt;d1 -->
<g id="edge32" class="edge">
<title>d0&#45;&gt;d1</title>
<path fill="none" stroke="black" d="M926.41,-629C935.96,-629 979.86,-629 1001.47,-629"/>
<polygon fill="black" stroke="black" points="1001.7,-632.5 1011.7,-629 1001.7,-625.5 1001.7,-632.5"/>
<text text-anchor="middle" x="969.05" y="-635.8" font-family="Times,serif" font-size="14.00">Data flow</text>
</g>
<!-- d2 -->
<!-- d3 -->
<!-- d2&#45;&gt;d3 -->
<g id="edge33" class="edge">
<title>d2&#45;&gt;d3</title>
<path fill="none" stroke="black" stroke-dasharray="1,5" d="M800.35,-629C811.01,-629 866.01,-629 890.62,-629"/>
<polygon fill="black" stroke="black" points="890.69,-632.5 900.69,-629 890.69,-625.5 890.69,-632.5"/>
<text text-anchor="middle" x="850.55" y="-635.8" font-family="Times,serif" font-size="14.00">Declaration</text>
</g>
<!-- d4 -->
<!-- d5 -->
<!-- d4&#45;&gt;d5 -->
<g id="edge34" class="edge">
<title>d4&#45;&gt;d5</title>
<path fill="none" stroke="blue" d="M657.65,-629C670.27,-629 736.43,-629 764.23,-629"/>
<polygon fill="blue" stroke="blue" points="764.39,-632.5 774.39,-629 764.39,-625.5 764.39,-632.5"/>
<text text-anchor="middle" x="716.05" y="-635.8" font-family="Times,serif" font-size="14.00">PHI Data flow</text>
</g>
<!-- d6 -->
<!-- d7 -->
<!-- d6&#45;&gt;d7 -->
<g id="edge35" class="edge">
<title>d6&#45;&gt;d7</title>
<path fill="none" stroke="green" d="M520.55,-629C532.49,-629 594.85,-629 621.48,-629"/>
<polygon fill="green" stroke="green" points="621.5,-632.5 631.5,-629 621.5,-625.5 621.5,-632.5"/>
<text text-anchor="middle" x="576.05" y="-635.8" font-family="Times,serif" font-size="14.00">Memory flow</text>
</g>
</g>
</svg>
