<?xml version="1.0" encoding="UTF-8" standalone="no"?>
<!DOCTYPE svg PUBLIC "-//W3C//DTD SVG 1.1//EN"
 "http://www.w3.org/Graphics/SVG/1.1/DTD/svg11.dtd">
<!-- Generated by graphviz version 2.43.0 (0)
 -->
<!-- Title: %3 Pages: 1 -->
<svg width="1622pt" height="680pt"
 viewBox="0.00 0.00 1621.79 680.00" xmlns="http://www.w3.org/2000/svg" xmlns:xlink="http://www.w3.org/1999/xlink">
<g id="graph0" class="graph" transform="scale(1 1) rotate(0) translate(4 676)">
<title>%3</title>
<polygon fill="white" stroke="transparent" points="-4,4 -4,-676 1617.79,-676 1617.79,4 -4,4"/>
<g id="clust1" class="cluster">
<title>cluster_0</title>
<polygon fill="none" stroke="lightgray" points="305.79,-65 305.79,-190 593.79,-190 593.79,-65 305.79,-65"/>
</g>
<g id="clust2" class="cluster">
<title>cluster_1</title>
<polygon fill="none" stroke="lightgray" points="448.79,-521 448.79,-664 744.79,-664 744.79,-521 448.79,-521"/>
</g>
<g id="clust3" class="cluster">
<title>cluster_2</title>
<polygon fill="none" stroke="lightgray" points="41.79,-448 41.79,-573 432.79,-573 432.79,-448 41.79,-448"/>
</g>
<g id="clust4" class="cluster">
<title>cluster_000</title>
<polygon fill="none" stroke="black" points="752.79,-619.2 752.79,-661.8 1605.79,-661.8 1605.79,-619.2 752.79,-619.2"/>
<text text-anchor="middle" x="1179.29" y="-646.6" font-family="Times,serif" font-size="14.00">Legend</text>
</g>
<!-- node0 -->
<g id="node1" class="node">
<title>node0</title>
<polygon fill="lightgrey" stroke="transparent" points="596.29,-656 503.29,-656 503.29,-602 596.29,-602 596.29,-656"/>
<polygon fill="none" stroke="black" points="503.79,-629 503.79,-656 596.79,-656 596.79,-629 503.79,-629"/>
<text text-anchor="start" x="509.79" y="-638.8" font-family="Times,serif" font-size="14.00">#0 Method</text>
<polygon fill="yellow" stroke="transparent" points="503.79,-602 503.79,-629 596.79,-629 596.79,-602 503.79,-602"/>
<polygon fill="none" stroke="black" points="503.79,-602 503.79,-629 596.79,-629 596.79,-602 503.79,-602"/>
<text text-anchor="start" x="516.79" y="-611.8" font-family="Times,serif" font-size="14.00">arg0 : int</text>
</g>
<!-- node2 -->
<g id="node2" class="node">
<title>node2</title>
<polygon fill="lightgrey" stroke="black" points="424.29,-565 305.29,-565 305.29,-529 424.29,-529 424.29,-565"/>
<text text-anchor="middle" x="364.79" y="-543.3" font-family="Times,serif" font-size="14.00">#2 LabelNode</text>
</g>
<!-- node0&#45;&gt;node2 -->
<g id="edge1" class="edge">
<title>node0&#45;&gt;node2</title>
<path fill="none" stroke="red" d="M503.11,-607.81C475.82,-596.01 441.41,-581.13 413.74,-569.17"/>
<polygon fill="red" stroke="red" points="414.83,-565.82 404.26,-565.07 412.05,-572.25 414.83,-565.82"/>
</g>
<!-- node3 -->
<g id="node9" class="node">
<title>node3</title>
<polygon fill="lightgreen" stroke="black" points="736.78,-539.54 736.78,-554.46 654.78,-565 538.81,-565 456.8,-554.46 456.8,-539.54 538.81,-529 654.78,-529 736.78,-539.54"/>
<text text-anchor="middle" x="596.79" y="-543.3" font-family="Times,serif" font-size="14.00">#3 Class SimpleLoopTest</text>
</g>
<!-- node0&#45;&gt;node3 -->
<g id="edge30" class="edge">
<title>node0&#45;&gt;node3</title>
<path fill="none" stroke="black" stroke-dasharray="1,5" d="M565.18,-601.81C570.43,-592.88 576.29,-582.9 581.52,-573.99"/>
<polygon fill="black" stroke="black" points="584.65,-575.57 586.7,-565.17 578.62,-572.02 584.65,-575.57"/>
</g>
<!-- node9 -->
<g id="node10" class="node">
<title>node9</title>
<polygon fill="lightgrey" stroke="transparent" points="496.29,-346 407.29,-346 407.29,-292 496.29,-292 496.29,-346"/>
<polygon fill="none" stroke="black" points="407.79,-319 407.79,-346 496.79,-346 496.79,-319 407.79,-319"/>
<text text-anchor="start" x="433.79" y="-328.8" font-family="Times,serif" font-size="14.00">#9 If</text>
<polygon fill="yellow" stroke="transparent" points="407.79,-292 407.79,-319 453.79,-319 453.79,-292 407.79,-292"/>
<polygon fill="none" stroke="black" points="407.79,-292 407.79,-319 453.79,-319 453.79,-292 407.79,-292"/>
<text text-anchor="start" x="413.79" y="-301.8" font-family="Times,serif" font-size="14.00">false</text>
<polygon fill="yellow" stroke="transparent" points="453.79,-292 453.79,-319 496.79,-319 496.79,-292 453.79,-292"/>
<polygon fill="none" stroke="black" points="453.79,-292 453.79,-319 496.79,-319 496.79,-292 453.79,-292"/>
<text text-anchor="start" x="459.79" y="-301.8" font-family="Times,serif" font-size="14.00">true</text>
</g>
<!-- node0&#45;&gt;node9 -->
<g id="edge18" class="edge">
<title>node0&#45;&gt;node9</title>
<path fill="none" stroke="green" d="M596.77,-617.93C651.78,-605.66 736.64,-585.08 745.79,-573 771.94,-538.5 775.65,-434.07 729.79,-383 700.56,-350.45 579.1,-332.81 506.75,-325.01"/>
<polygon fill="green" stroke="green" points="506.76,-321.49 496.45,-323.93 506.03,-328.46 506.76,-321.49"/>
</g>
<!-- node4 -->
<g id="node14" class="node">
<title>node4</title>
<polygon fill="lightgreen" stroke="black" points="425.13,-466.54 425.13,-481.46 393.3,-492 348.28,-492 316.45,-481.46 316.45,-466.54 348.28,-456 393.3,-456 425.13,-466.54"/>
<text text-anchor="middle" x="370.79" y="-470.3" font-family="Times,serif" font-size="14.00">#4 Φ int</text>
</g>
<!-- node0&#45;&gt;node4 -->
<g id="edge25" class="edge">
<title>node0:prj1&#45;&gt;node4</title>
<path fill="none" stroke="blue" d="M597.79,-615C675.71,-615 797.43,-579.36 745.79,-521 735.62,-509.5 539.67,-490.21 435.18,-480.68"/>
<polygon fill="blue" stroke="blue" points="435.33,-477.18 425.05,-479.76 434.7,-484.15 435.33,-477.18"/>
<text text-anchor="middle" x="443.87" y="-469.28" font-family="Times,serif" font-size="14.00">if #2</text>
</g>
<!-- node6 -->
<g id="node3" class="node">
<title>node6</title>
<polygon fill="lightgreen" stroke="black" points="155.32,-466.54 155.32,-481.46 124.55,-492 81.03,-492 50.27,-481.46 50.27,-466.54 81.03,-456 124.55,-456 155.32,-466.54"/>
<text text-anchor="middle" x="102.79" y="-470.3" font-family="Times,serif" font-size="14.00">#6 int 0</text>
</g>
<!-- node2&#45;&gt;node6 -->
<g id="edge2" class="edge">
<title>node2&#45;&gt;node6</title>
<path fill="none" stroke="black" stroke-dasharray="1,5" d="M305.01,-529.8C258.91,-517.31 195.91,-500.23 152.54,-488.48"/>
<polygon fill="black" stroke="black" points="153.35,-485.07 142.78,-485.84 151.52,-491.83 153.35,-485.07"/>
</g>
<!-- node7 -->
<g id="node4" class="node">
<title>node7</title>
<polygon fill="orange" stroke="black" points="299.13,-466.54 299.13,-481.46 267.3,-492 222.28,-492 190.45,-481.46 190.45,-466.54 222.28,-456 267.3,-456 299.13,-466.54"/>
<text text-anchor="middle" x="244.79" y="-470.3" font-family="Times,serif" font-size="14.00">#7 Φ int</text>
</g>
<!-- node2&#45;&gt;node7 -->
<g id="edge3" class="edge">
<title>node2&#45;&gt;node7</title>
<path fill="none" stroke="black" stroke-dasharray="1,5" d="M336.05,-528.99C319.4,-519.14 298.29,-506.65 280.57,-496.17"/>
<polygon fill="black" stroke="black" points="282.04,-492.97 271.65,-490.89 278.48,-499 282.04,-492.97"/>
</g>
<!-- node5 -->
<g id="node12" class="node">
<title>node5</title>
<polygon fill="lightgrey" stroke="black" points="720.79,-419 534.79,-419 534.79,-383 720.79,-383 720.79,-419"/>
<text text-anchor="middle" x="627.79" y="-397.3" font-family="Times,serif" font-size="14.00">#5 LoopHeader : Loop6</text>
</g>
<!-- node2&#45;&gt;node5 -->
<g id="edge19" class="edge">
<title>node2&#45;&gt;node5</title>
<path fill="none" stroke="red" d="M395.99,-528.92C443.74,-502.77 534.93,-452.84 587.58,-424.02"/>
<polygon fill="red" stroke="red" points="589.54,-426.93 596.63,-419.06 586.18,-420.79 589.54,-426.93"/>
</g>
<!-- node2&#45;&gt;node4 -->
<g id="edge24" class="edge">
<title>node2&#45;&gt;node4</title>
<path fill="none" stroke="black" stroke-dasharray="1,5" d="M366.24,-528.81C366.92,-520.79 367.74,-511.05 368.5,-502.07"/>
<polygon fill="black" stroke="black" points="372,-502.29 369.35,-492.03 365.02,-501.7 372,-502.29"/>
</g>
<!-- node6&#45;&gt;node7 -->
<g id="edge4" class="edge">
<title>node6&#45;&gt;node7</title>
<path fill="none" stroke="blue" d="M155.49,-474C163.75,-474 172.02,-474 180.29,-474"/>
<polygon fill="blue" stroke="blue" points="180.37,-477.5 190.37,-474 180.37,-470.5 180.37,-477.5"/>
<text text-anchor="middle" x="172.24" y="-478.75" font-family="Times,serif" font-size="14.00">if #2</text>
</g>
<!-- node18 -->
<g id="node5" class="node">
<title>node18</title>
<polygon fill="orange" stroke="black" points="157.37,-10.54 157.37,-25.46 111.34,-36 46.24,-36 0.21,-25.46 0.21,-10.54 46.24,0 111.34,0 157.37,-10.54"/>
<text text-anchor="middle" x="78.79" y="-14.3" font-family="Times,serif" font-size="14.00">#18 Add : int</text>
</g>
<!-- node7&#45;&gt;node18 -->
<g id="edge6" class="edge">
<title>node7&#45;&gt;node18</title>
<path fill="none" stroke="black" d="M208.34,-460.38C156.26,-442.08 66.79,-409.55 66.79,-402 66.79,-402 66.79,-402 66.79,-90 66.79,-75.3 69.32,-59.13 72.06,-45.94"/>
<polygon fill="black" stroke="black" points="75.5,-46.6 74.25,-36.08 68.66,-45.08 75.5,-46.6"/>
<text text-anchor="middle" x="78.56" y="-51.91" font-family="Times,serif" font-size="14.00">*0</text>
</g>
<!-- node13 -->
<g id="node7" class="node">
<title>node13</title>
<polygon fill="lightgrey" stroke="black" points="585.79,-182 313.79,-182 313.79,-146 585.79,-146 585.79,-182"/>
<text text-anchor="middle" x="449.79" y="-160.3" font-family="Times,serif" font-size="14.00">#13 Invoke static compute : (int)int</text>
</g>
<!-- node7&#45;&gt;node13 -->
<g id="edge10" class="edge">
<title>node7&#45;&gt;node13</title>
<path fill="none" stroke="black" d="M217.74,-457.41C204.5,-448.14 189.91,-435.05 182.79,-419 176.3,-404.38 176.58,-397.74 182.79,-383 223.92,-285.36 335.86,-218.51 401,-186.56"/>
<polygon fill="black" stroke="black" points="402.77,-189.59 410.26,-182.1 399.73,-183.28 402.77,-189.59"/>
<text text-anchor="middle" x="397.6" y="-193.88" font-family="Times,serif" font-size="14.00">*1</text>
</g>
<!-- node8 -->
<g id="node11" class="node">
<title>node8</title>
<polygon fill="orange" stroke="black" points="516.94,-393.54 516.94,-408.46 431.33,-419 310.25,-419 224.64,-408.46 224.64,-393.54 310.25,-383 431.33,-383 516.94,-393.54"/>
<text text-anchor="middle" x="370.79" y="-397.3" font-family="Times,serif" font-size="14.00">#8 NumericCondition : GE</text>
</g>
<!-- node7&#45;&gt;node8 -->
<g id="edge22" class="edge">
<title>node7&#45;&gt;node8</title>
<path fill="none" stroke="black" d="M272.13,-457.59C289.5,-447.81 312.26,-434.98 331.55,-424.11"/>
<polygon fill="black" stroke="black" points="333.42,-427.08 340.41,-419.12 329.98,-420.98 333.42,-427.08"/>
<text text-anchor="middle" x="328.77" y="-431.68" font-family="Times,serif" font-size="14.00">*0</text>
</g>
<!-- node18&#45;&gt;node7 -->
<g id="edge5" class="edge">
<title>node18&#45;&gt;node7</title>
<path fill="none" stroke="blue" stroke-dasharray="5,2" d="M157.62,-20.25C295.51,-23.27 568.7,-33.22 597.79,-65 635.3,-105.98 634.34,-148.16 597.79,-190 566.22,-226.14 426.92,-197.95 383.79,-219 336.9,-241.88 236.05,-334.92 215.79,-383 206.94,-404 216.22,-428.69 226.56,-446.89"/>
<polygon fill="blue" stroke="blue" points="223.78,-449.05 231.98,-455.76 229.75,-445.4 223.78,-449.05"/>
<text text-anchor="middle" x="215.32" y="-440.99" font-family="Times,serif" font-size="14.00">if #16</text>
</g>
<!-- node17 -->
<g id="node6" class="node">
<title>node17</title>
<polygon fill="lightgreen" stroke="black" points="469.98,-83.54 469.98,-98.46 435.31,-109 386.28,-109 351.6,-98.46 351.6,-83.54 386.28,-73 435.31,-73 469.98,-83.54"/>
<text text-anchor="middle" x="410.79" y="-87.3" font-family="Times,serif" font-size="14.00">#17 int 1</text>
</g>
<!-- node17&#45;&gt;node18 -->
<g id="edge7" class="edge">
<title>node17&#45;&gt;node18</title>
<path fill="none" stroke="black" d="M363.58,-79.9C306.14,-67.62 208.86,-46.82 144.23,-32.99"/>
<polygon fill="black" stroke="black" points="144.65,-29.51 134.14,-30.84 143.19,-36.35 144.65,-29.51"/>
<text text-anchor="middle" x="153.64" y="-22.66" font-family="Times,serif" font-size="14.00">*1</text>
</g>
<!-- node13&#45;&gt;node17 -->
<g id="edge8" class="edge">
<title>node13&#45;&gt;node17</title>
<path fill="none" stroke="black" stroke-dasharray="1,5" d="M440.35,-145.81C435.75,-137.44 430.12,-127.2 425.02,-117.9"/>
<polygon fill="black" stroke="black" points="428.03,-116.11 420.15,-109.03 421.89,-119.48 428.03,-116.11"/>
</g>
<!-- node16 -->
<g id="node13" class="node">
<title>node16</title>
<polygon fill="lightgrey" stroke="black" points="674.29,-492 589.29,-492 589.29,-456 674.29,-456 674.29,-492"/>
<text text-anchor="middle" x="631.79" y="-470.3" font-family="Times,serif" font-size="14.00">#16 Goto</text>
</g>
<!-- node13&#45;&gt;node16 -->
<g id="edge21" class="edge">
<title>node13&#45;&gt;node16</title>
<path fill="none" stroke="red" d="M585.97,-165.73C693.24,-170.13 824.79,-185.77 824.79,-236 824.79,-365 824.79,-365 824.79,-365 824.79,-429.47 741.75,-455.83 684.61,-466.34"/>
<polygon fill="red" stroke="red" points="683.88,-462.91 674.62,-468.07 685.07,-469.81 683.88,-462.91"/>
</g>
<!-- node12 -->
<g id="node8" class="node">
<title>node12</title>
<polygon fill="lightgrey" stroke="black" points="506.79,-255 392.79,-255 392.79,-219 506.79,-219 506.79,-255"/>
<text text-anchor="middle" x="449.79" y="-233.3" font-family="Times,serif" font-size="14.00">#12 ClassInit</text>
</g>
<!-- node12&#45;&gt;node13 -->
<g id="edge9" class="edge">
<title>node12&#45;&gt;node13</title>
<path fill="none" stroke="black" d="M438.03,-218.81C436.36,-210.79 435.89,-201.05 436.64,-192.07"/>
<polygon fill="black" stroke="black" points="440.12,-192.42 438.07,-182.03 433.19,-191.43 440.12,-192.42"/>
<text text-anchor="middle" x="443.88" y="-197.47" font-family="Times,serif" font-size="14.00">*0</text>
</g>
<!-- node12&#45;&gt;node13 -->
<g id="edge11" class="edge">
<title>node12&#45;&gt;node13</title>
<path fill="none" stroke="green" d="M449.79,-218.81C449.79,-210.79 449.79,-201.05 449.79,-192.07"/>
<polygon fill="green" stroke="green" points="453.29,-192.03 449.79,-182.03 446.29,-192.03 453.29,-192.03"/>
</g>
<!-- node12&#45;&gt;node13 -->
<g id="edge12" class="edge">
<title>node12&#45;&gt;node13</title>
<path fill="none" stroke="red" d="M461.55,-218.81C463.23,-210.79 463.69,-201.05 462.95,-192.07"/>
<polygon fill="red" stroke="red" points="466.39,-191.43 461.51,-182.03 459.46,-192.42 466.39,-191.43"/>
</g>
<!-- node3&#45;&gt;node12 -->
<g id="edge13" class="edge">
<title>node3&#45;&gt;node12</title>
<path fill="none" stroke="black" d="M691.33,-533.51C722.24,-523.68 748.79,-506.16 748.79,-475 748.79,-475 748.79,-475 748.79,-318 748.79,-270.38 605.48,-250.35 517.29,-242.54"/>
<polygon fill="black" stroke="black" points="517.35,-239.03 507.09,-241.66 516.75,-246 517.35,-239.03"/>
<text text-anchor="middle" x="525.87" y="-231.09" font-family="Times,serif" font-size="14.00">*0</text>
</g>
<!-- node9&#45;&gt;node12 -->
<g id="edge14" class="edge">
<title>node9&#45;&gt;node12</title>
<path fill="none" stroke="green" d="M429.61,-291.95C425.98,-286.35 422.77,-280.24 420.79,-274 419.67,-270.45 419.9,-267 421.04,-263.74"/>
<polygon fill="green" stroke="green" points="424.09,-265.46 426.27,-255.09 418.1,-261.84 424.09,-265.46"/>
</g>
<!-- node9&#45;&gt;node12 -->
<g id="edge15" class="edge">
<title>node9:prj11&#45;&gt;node12</title>
<path fill="none" stroke="red" d="M430.79,-292C430.79,-282.86 433.25,-273.31 436.39,-264.83"/>
<polygon fill="red" stroke="red" points="439.68,-266.04 440.29,-255.46 433.22,-263.35 439.68,-266.04"/>
</g>
<!-- node15 -->
<g id="node15" class="node">
<title>node15</title>
<polygon fill="lightgrey" stroke="black" points="275.29,-182 102.29,-182 102.29,-146 275.29,-146 275.29,-182"/>
<text text-anchor="middle" x="188.79" y="-160.3" font-family="Times,serif" font-size="14.00">#15 ReturnValue : int</text>
</g>
<!-- node9&#45;&gt;node15 -->
<g id="edge28" class="edge">
<title>node9&#45;&gt;node15</title>
<path fill="none" stroke="green" d="M407.18,-292.05C356.51,-262.57 274.7,-214.98 226.9,-187.17"/>
<polygon fill="green" stroke="green" points="228.5,-184.05 218.1,-182.05 224.98,-190.1 228.5,-184.05"/>
</g>
<!-- node14 -->
<g id="node16" class="node">
<title>node14</title>
<polygon fill="lightgrey" stroke="black" points="260.79,-255 132.79,-255 132.79,-219 260.79,-219 260.79,-255"/>
<text text-anchor="middle" x="196.79" y="-233.3" font-family="Times,serif" font-size="14.00">#14 LabelNode</text>
</g>
<!-- node9&#45;&gt;node14 -->
<g id="edge29" class="edge">
<title>node9:prj10&#45;&gt;node14</title>
<path fill="none" stroke="red" d="M475.79,-292C475.79,-267.14 276.34,-281.96 252.79,-274 243.62,-270.9 234.46,-265.98 226.29,-260.76"/>
<polygon fill="red" stroke="red" points="228.09,-257.75 217.85,-255.05 224.17,-263.55 228.09,-257.75"/>
</g>
<!-- node8&#45;&gt;node9 -->
<g id="edge16" class="edge">
<title>node8&#45;&gt;node9</title>
<path fill="none" stroke="black" d="M388.37,-382.64C397.05,-374.06 407.84,-363.41 418.03,-353.34"/>
<polygon fill="black" stroke="black" points="420.66,-355.66 425.32,-346.15 415.74,-350.68 420.66,-355.66"/>
<text text-anchor="middle" x="418.36" y="-361.2" font-family="Times,serif" font-size="14.00">*0</text>
</g>
<!-- node5&#45;&gt;node9 -->
<g id="edge17" class="edge">
<title>node5&#45;&gt;node9</title>
<path fill="none" stroke="red" d="M590.03,-382.84C565.46,-371.67 533.02,-356.92 505.74,-344.52"/>
<polygon fill="red" stroke="red" points="506.88,-341.2 496.33,-340.25 503.99,-347.57 506.88,-341.2"/>
</g>
<!-- node16&#45;&gt;node5 -->
<g id="edge20" class="edge">
<title>node16&#45;&gt;node5</title>
<path fill="none" stroke="red" stroke-dasharray="5,2" d="M630.82,-455.81C630.37,-447.79 629.82,-438.05 629.32,-429.07"/>
<polygon fill="red" stroke="red" points="632.81,-428.82 628.75,-419.03 625.82,-429.21 632.81,-428.82"/>
</g>
<!-- node4&#45;&gt;node8 -->
<g id="edge23" class="edge">
<title>node4&#45;&gt;node8</title>
<path fill="none" stroke="black" d="M370.79,-455.81C370.79,-447.79 370.79,-438.05 370.79,-429.07"/>
<polygon fill="black" stroke="black" points="374.29,-429.03 370.79,-419.03 367.29,-429.03 374.29,-429.03"/>
<text text-anchor="middle" x="379.24" y="-433.45" font-family="Times,serif" font-size="14.00">*1</text>
</g>
<!-- node4&#45;&gt;node15 -->
<g id="edge26" class="edge">
<title>node4&#45;&gt;node15</title>
<path fill="none" stroke="black" d="M338.44,-459.05C328.7,-455.15 317.91,-451.13 307.79,-448 263.61,-434.32 104.79,-448.25 104.79,-402 104.79,-402 104.79,-402 104.79,-236 104.79,-215 120.3,-198.93 137.99,-187.44"/>
<polygon fill="black" stroke="black" points="140.01,-190.31 146.79,-182.17 136.41,-184.31 140.01,-190.31"/>
<text text-anchor="middle" x="135.59" y="-195.04" font-family="Times,serif" font-size="14.00">*0</text>
</g>
<!-- node14&#45;&gt;node15 -->
<g id="edge27" class="edge">
<title>node14&#45;&gt;node15</title>
<path fill="none" stroke="red" d="M194.85,-218.81C193.95,-210.79 192.85,-201.05 191.84,-192.07"/>
<polygon fill="red" stroke="red" points="195.31,-191.57 190.71,-182.03 188.35,-192.36 195.31,-191.57"/>
</g>
<!-- c0 -->
<!-- c1 -->
<!-- c0&#45;&gt;c1 -->
<g id="edge31" class="edge">
<title>c0&#45;&gt;c1</title>
<path fill="none" stroke="red" d="M1488.68,-629C1499.9,-629 1558.03,-629 1583.65,-629"/>
<polygon fill="red" stroke="red" points="1583.85,-632.5 1593.85,-629 1583.85,-625.5 1583.85,-632.5"/>
<text text-anchor="middle" x="1541.29" y="-635.8" font-family="Times,serif" font-size="14.00">Control flow</text>
</g>
<!-- c2 -->
<!-- c3 -->
<!-- c2&#45;&gt;c3 -->
<g id="edge32" class="edge">
<title>c2&#45;&gt;c3</title>
<path fill="none" stroke="red" stroke-dasharray="5,2" d="M1281.87,-629C1298.84,-629 1415,-629 1452.88,-629"/>
<polygon fill="red" stroke="red" points="1452.96,-632.5 1462.96,-629 1452.96,-625.5 1452.96,-632.5"/>
<text text-anchor="middle" x="1372.29" y="-635.8" font-family="Times,serif" font-size="14.00">Control flow back edge</text>
</g>
<!-- d0 -->
<!-- d1 -->
<!-- d0&#45;&gt;d1 -->
<g id="edge33" class="edge">
<title>d0&#45;&gt;d1</title>
<path fill="none" stroke="black" d="M1170.65,-629C1180.2,-629 1224.1,-629 1245.71,-629"/>
<polygon fill="black" stroke="black" points="1245.94,-632.5 1255.94,-629 1245.94,-625.5 1245.94,-632.5"/>
<text text-anchor="middle" x="1213.29" y="-635.8" font-family="Times,serif" font-size="14.00">Data flow</text>
</g>
<!-- d2 -->
<!-- d3 -->
<!-- d2&#45;&gt;d3 -->
<g id="edge34" class="edge">
<title>d2&#45;&gt;d3</title>
<path fill="none" stroke="black" stroke-dasharray="1,5" d="M1044.6,-629C1055.25,-629 1110.26,-629 1134.87,-629"/>
<polygon fill="black" stroke="black" points="1134.94,-632.5 1144.94,-629 1134.94,-625.5 1134.94,-632.5"/>
<text text-anchor="middle" x="1094.79" y="-635.8" font-family="Times,serif" font-size="14.00">Declaration</text>
</g>
<!-- d4 -->
<!-- d5 -->
<!-- d4&#45;&gt;d5 -->
<g id="edge35" class="edge">
<title>d4&#45;&gt;d5</title>
<path fill="none" stroke="blue" d="M901.89,-629C914.51,-629 980.67,-629 1008.47,-629"/>
<polygon fill="blue" stroke="blue" points="1008.63,-632.5 1018.63,-629 1008.63,-625.5 1008.63,-632.5"/>
<text text-anchor="middle" x="960.29" y="-635.8" font-family="Times,serif" font-size="14.00">PHI Data flow</text>
</g>
<!-- d6 -->
<!-- d7 -->
<!-- d6&#45;&gt;d7 -->
<g id="edge36" class="edge">
<title>d6&#45;&gt;d7</title>
<path fill="none" stroke="green" d="M764.79,-629C776.73,-629 839.09,-629 865.72,-629"/>
<polygon fill="green" stroke="green" points="865.74,-632.5 875.74,-629 865.74,-625.5 865.74,-632.5"/>
<text text-anchor="middle" x="820.29" y="-635.8" font-family="Times,serif" font-size="14.00">Memory flow</text>
</g>
</g>
</svg>
