<?xml version="1.0" encoding="UTF-8" standalone="no"?>
<!DOCTYPE svg PUBLIC "-//W3C//DTD SVG 1.1//EN"
 "http://www.w3.org/Graphics/SVG/1.1/DTD/svg11.dtd">
<!-- Generated by graphviz version 2.43.0 (0)
 -->
<!-- Title: %3 Pages: 1 -->
<svg width="1219pt" height="607pt"
 viewBox="0.00 0.00 1218.79 607.00" xmlns="http://www.w3.org/2000/svg" xmlns:xlink="http://www.w3.org/1999/xlink">
<g id="graph0" class="graph" transform="scale(1 1) rotate(0) translate(4 603)">
<title>%3</title>
<polygon fill="white" stroke="transparent" points="-4,4 -4,-603 1214.79,-603 1214.79,4 -4,4"/>
<g id="clust1" class="cluster">
<title>cluster_0</title>
<polygon fill="none" stroke="lightgray" points="86.79,-65 86.79,-190 374.79,-190 374.79,-65 86.79,-65"/>
</g>
<g id="clust2" class="cluster">
<title>cluster_1</title>
<polygon fill="none" stroke="lightgray" points="200.79,-293 200.79,-345 508.79,-345 508.79,-293 200.79,-293"/>
</g>
<g id="clust3" class="cluster">
<title>cluster_2</title>
<polygon fill="none" stroke="lightgray" points="750.79,-375 750.79,-500 886.79,-500 886.79,-375 750.79,-375"/>
</g>
<g id="clust4" class="cluster">
<title>cluster_3</title>
<polygon fill="none" stroke="lightgray" points="217.79,-448 217.79,-591 341.79,-591 341.79,-448 217.79,-448"/>
</g>
<g id="clust5" class="cluster">
<title>cluster_000</title>
<polygon fill="none" stroke="black" points="349.79,-546.2 349.79,-588.8 1202.79,-588.8 1202.79,-546.2 349.79,-546.2"/>
<text text-anchor="middle" x="776.29" y="-573.6" font-family="Times,serif" font-size="14.00">Legend</text>
</g>
<!-- node0 -->
<g id="node1" class="node">
<title>node0</title>
<polygon fill="lightgrey" stroke="transparent" points="334.29,-583 241.29,-583 241.29,-529 334.29,-529 334.29,-583"/>
<polygon fill="none" stroke="black" points="241.79,-556 241.79,-583 334.79,-583 334.79,-556 241.79,-556"/>
<text text-anchor="start" x="247.79" y="-565.8" font-family="Times,serif" font-size="14.00">#0 Method</text>
<polygon fill="yellow" stroke="transparent" points="241.79,-529 241.79,-556 334.79,-556 334.79,-529 241.79,-529"/>
<polygon fill="none" stroke="black" points="241.79,-529 241.79,-556 334.79,-556 334.79,-529 241.79,-529"/>
<text text-anchor="start" x="254.79" y="-538.8" font-family="Times,serif" font-size="14.00">arg0 : int</text>
</g>
<!-- node14 -->
<g id="node2" class="node">
<title>node14</title>
<polygon fill="lightgrey" stroke="black" points="1046.29,-182 873.29,-182 873.29,-146 1046.29,-146 1046.29,-182"/>
<text text-anchor="middle" x="959.79" y="-160.3" font-family="Times,serif" font-size="14.00">#14 ReturnValue : int</text>
</g>
<!-- node0&#45;&gt;node14 -->
<g id="edge1" class="edge">
<title>node0:prj1&#45;&gt;node14</title>
<path fill="none" stroke="black" d="M335.79,-542C343.08,-542 339.34,-532.39 345.79,-529 359.21,-521.94 876.08,-503.65 890.79,-500 916.46,-493.63 944.79,-501.45 944.79,-475 944.79,-475 944.79,-475 944.79,-236 944.79,-221.19 947.95,-205.01 951.38,-191.84"/>
<polygon fill="black" stroke="black" points="954.8,-192.58 954.12,-182 948.06,-190.7 954.8,-192.58"/>
<text text-anchor="middle" x="957.39" y="-198.03" font-family="Times,serif" font-size="14.00">*0</text>
</g>
<!-- node0&#45;&gt;node14 -->
<g id="edge3" class="edge">
<title>node0&#45;&gt;node14</title>
<path fill="none" stroke="green" d="M334.41,-533.42C338.23,-531.86 342.06,-530.36 345.79,-529 506.12,-470.38 612.1,-556.11 713.79,-419 783.66,-324.79 605.26,-369.16 586.79,-346 571.83,-327.24 572.82,-311.51 586.79,-292 649.19,-204.83 774.97,-176.79 863.15,-168.16"/>
<polygon fill="green" stroke="green" points="863.53,-171.64 873.17,-167.24 862.89,-164.67 863.53,-171.64"/>
</g>
<!-- node6 -->
<g id="node5" class="node">
<title>node6</title>
<polygon fill="orange" stroke="black" points="462.94,-393.54 462.94,-408.46 377.33,-419 256.25,-419 170.64,-408.46 170.64,-393.54 256.25,-383 377.33,-383 462.94,-393.54"/>
<text text-anchor="middle" x="316.79" y="-397.3" font-family="Times,serif" font-size="14.00">#6 NumericCondition : GE</text>
</g>
<!-- node0&#45;&gt;node6 -->
<g id="edge27" class="edge">
<title>node0:prj1&#45;&gt;node6</title>
<path fill="none" stroke="black" d="M335.79,-542C343.08,-542 339.76,-533.1 345.79,-529 384.41,-502.73 418.69,-537.3 446.79,-500 460.7,-481.54 460.13,-466.87 446.79,-448 438.15,-435.77 425.96,-426.77 412.48,-420.15"/>
<polygon fill="black" stroke="black" points="413.54,-416.79 402.98,-415.94 410.7,-423.19 413.54,-416.79"/>
<text text-anchor="middle" x="422.97" y="-411.85" font-family="Times,serif" font-size="14.00">*1</text>
</g>
<!-- node2 -->
<g id="node7" class="node">
<title>node2</title>
<polygon fill="lightgrey" stroke="black" points="878.29,-492 759.29,-492 759.29,-456 878.29,-456 878.29,-492"/>
<text text-anchor="middle" x="818.79" y="-470.3" font-family="Times,serif" font-size="14.00">#2 LabelNode</text>
</g>
<!-- node0&#45;&gt;node2 -->
<g id="edge25" class="edge">
<title>node0&#45;&gt;node2</title>
<path fill="none" stroke="red" d="M334.45,-532.39C338.23,-531.08 342.04,-529.92 345.79,-529 471.61,-498 508.28,-527.61 636.79,-511 674.3,-506.15 715.68,-498.18 749.5,-490.97"/>
<polygon fill="red" stroke="red" points="750.24,-494.39 759.28,-488.86 748.77,-487.54 750.24,-494.39"/>
</g>
<!-- node11 -->
<g id="node10" class="node">
<title>node11</title>
<polygon fill="lightgrey" stroke="black" points="292.79,-255 178.79,-255 178.79,-219 292.79,-219 292.79,-255"/>
<text text-anchor="middle" x="235.79" y="-233.3" font-family="Times,serif" font-size="14.00">#11 ClassInit</text>
</g>
<!-- node0&#45;&gt;node11 -->
<g id="edge15" class="edge">
<title>node0&#45;&gt;node11</title>
<path fill="none" stroke="green" d="M334.44,-532.35C338.23,-531.05 342.04,-529.91 345.79,-529 404.73,-514.75 849.07,-544 890.79,-500 929.02,-459.69 926.85,-417.26 890.79,-375 846.74,-323.37 650.46,-369.49 586.79,-346 548.59,-331.91 550.11,-308.28 512.79,-292 444.91,-262.38 360.6,-248.91 302.94,-242.85"/>
<polygon fill="green" stroke="green" points="303.15,-239.35 292.85,-241.83 302.45,-246.32 303.15,-239.35"/>
</g>
<!-- node5 -->
<g id="node11" class="node">
<title>node5</title>
<polygon fill="orange" stroke="black" points="334.13,-466.54 334.13,-481.46 302.3,-492 257.28,-492 225.45,-481.46 225.45,-466.54 257.28,-456 302.3,-456 334.13,-466.54"/>
<text text-anchor="middle" x="279.79" y="-470.3" font-family="Times,serif" font-size="14.00">#5 Φ int</text>
</g>
<!-- node0&#45;&gt;node5 -->
<g id="edge18" class="edge">
<title>node0&#45;&gt;node5</title>
<path fill="none" stroke="black" stroke-dasharray="1,5" d="M285.17,-528.81C284.33,-520.35 283.39,-510.95 282.53,-502.4"/>
<polygon fill="black" stroke="black" points="285.99,-501.78 281.51,-492.17 279.02,-502.47 285.99,-501.78"/>
</g>
<!-- node13 -->
<g id="node3" class="node">
<title>node13</title>
<polygon fill="lightgrey" stroke="black" points="1138.79,-255 1010.79,-255 1010.79,-219 1138.79,-219 1138.79,-255"/>
<text text-anchor="middle" x="1074.79" y="-233.3" font-family="Times,serif" font-size="14.00">#13 LabelNode</text>
</g>
<!-- node13&#45;&gt;node14 -->
<g id="edge2" class="edge">
<title>node13&#45;&gt;node14</title>
<path fill="none" stroke="red" d="M1047.25,-218.99C1032,-209.58 1012.85,-197.76 996.36,-187.57"/>
<polygon fill="red" stroke="red" points="997.86,-184.39 987.51,-182.11 994.18,-190.35 997.86,-184.39"/>
</g>
<!-- node7 -->
<g id="node4" class="node">
<title>node7</title>
<polygon fill="lightgrey" stroke="transparent" points="684.29,-346 595.29,-346 595.29,-292 684.29,-292 684.29,-346"/>
<polygon fill="none" stroke="black" points="595.79,-319 595.79,-346 684.79,-346 684.79,-319 595.79,-319"/>
<text text-anchor="start" x="621.79" y="-328.8" font-family="Times,serif" font-size="14.00">#7 If</text>
<polygon fill="yellow" stroke="transparent" points="595.79,-292 595.79,-319 641.79,-319 641.79,-292 595.79,-292"/>
<polygon fill="none" stroke="black" points="595.79,-292 595.79,-319 641.79,-319 641.79,-292 595.79,-292"/>
<text text-anchor="start" x="601.79" y="-301.8" font-family="Times,serif" font-size="14.00">false</text>
<polygon fill="yellow" stroke="transparent" points="641.79,-292 641.79,-319 684.79,-319 684.79,-292 641.79,-292"/>
<polygon fill="none" stroke="black" points="641.79,-292 641.79,-319 684.79,-319 684.79,-292 641.79,-292"/>
<text text-anchor="start" x="647.79" y="-301.8" font-family="Times,serif" font-size="14.00">true</text>
</g>
<!-- node7&#45;&gt;node13 -->
<g id="edge4" class="edge">
<title>node7:prj9&#45;&gt;node13</title>
<path fill="none" stroke="red" d="M685.79,-305C798.27,-305 926.42,-277.46 1003.91,-257.69"/>
<polygon fill="red" stroke="red" points="1005.23,-260.97 1014.04,-255.08 1003.48,-254.19 1005.23,-260.97"/>
</g>
<!-- node7&#45;&gt;node11 -->
<g id="edge16" class="edge">
<title>node7:prj8&#45;&gt;node11</title>
<path fill="none" stroke="red" d="M594.79,-305C580.27,-305 402.67,-270.69 302.84,-251.17"/>
<polygon fill="red" stroke="red" points="303.33,-247.7 292.84,-249.21 301.98,-254.57 303.33,-247.7"/>
</g>
<!-- node10 -->
<g id="node12" class="node">
<title>node10</title>
<polygon fill="lightgreen" stroke="black" points="500.94,-311.54 500.94,-326.46 415.33,-337 294.25,-337 208.64,-326.46 208.64,-311.54 294.25,-301 415.33,-301 500.94,-311.54"/>
<text text-anchor="middle" x="354.79" y="-315.3" font-family="Times,serif" font-size="14.00">#10 Class SimpleLoopTest</text>
</g>
<!-- node7&#45;&gt;node10 -->
<g id="edge17" class="edge">
<title>node7:prj8&#45;&gt;node10</title>
<path fill="none" stroke="black" stroke-dasharray="1,5" d="M595.29,-305C561.27,-305 524.57,-306.43 490.37,-308.37"/>
<polygon fill="black" stroke="black" points="490.1,-304.88 480.32,-308.96 490.51,-311.86 490.1,-304.88"/>
</g>
<!-- node6&#45;&gt;node7 -->
<g id="edge5" class="edge">
<title>node6&#45;&gt;node7</title>
<path fill="none" stroke="black" d="M382.93,-383.62C442.53,-368.86 529.12,-347.41 584.95,-333.58"/>
<polygon fill="black" stroke="black" points="586.14,-336.89 595,-331.09 584.45,-330.1 586.14,-336.89"/>
<text text-anchor="middle" x="579.44" y="-339.96" font-family="Times,serif" font-size="14.00">*0</text>
</g>
<!-- node3 -->
<g id="node6" class="node">
<title>node3</title>
<polygon fill="lightgrey" stroke="black" points="704.79,-419 518.79,-419 518.79,-383 704.79,-383 704.79,-419"/>
<text text-anchor="middle" x="611.79" y="-397.3" font-family="Times,serif" font-size="14.00">#3 LoopHeader : Loop6</text>
</g>
<!-- node3&#45;&gt;node7 -->
<g id="edge6" class="edge">
<title>node3&#45;&gt;node7</title>
<path fill="none" stroke="red" d="M617.87,-382.64C620.64,-374.73 624.02,-365.05 627.3,-355.7"/>
<polygon fill="red" stroke="red" points="630.64,-356.74 630.64,-346.15 624.03,-354.43 630.64,-356.74"/>
</g>
<!-- node2&#45;&gt;node3 -->
<g id="edge7" class="edge">
<title>node2&#45;&gt;node3</title>
<path fill="none" stroke="red" d="M759.2,-465.54C729.08,-460.33 692.49,-451.77 661.79,-438 654.24,-434.61 646.69,-429.99 639.83,-425.18"/>
<polygon fill="red" stroke="red" points="641.68,-422.2 631.55,-419.07 637.52,-427.83 641.68,-422.2"/>
</g>
<!-- node4 -->
<g id="node13" class="node">
<title>node4</title>
<polygon fill="lightgreen" stroke="black" points="871.32,-393.54 871.32,-408.46 840.55,-419 797.03,-419 766.27,-408.46 766.27,-393.54 797.03,-383 840.55,-383 871.32,-393.54"/>
<text text-anchor="middle" x="818.79" y="-397.3" font-family="Times,serif" font-size="14.00">#4 int 0</text>
</g>
<!-- node2&#45;&gt;node4 -->
<g id="edge24" class="edge">
<title>node2&#45;&gt;node4</title>
<path fill="none" stroke="black" stroke-dasharray="1,5" d="M818.79,-455.81C818.79,-447.79 818.79,-438.05 818.79,-429.07"/>
<polygon fill="black" stroke="black" points="822.29,-429.03 818.79,-419.03 815.29,-429.03 822.29,-429.03"/>
</g>
<!-- node15 -->
<g id="node8" class="node">
<title>node15</title>
<polygon fill="lightgrey" stroke="black" points="437.29,-492 352.29,-492 352.29,-456 437.29,-456 437.29,-492"/>
<text text-anchor="middle" x="394.79" y="-470.3" font-family="Times,serif" font-size="14.00">#15 Goto</text>
</g>
<!-- node15&#45;&gt;node3 -->
<g id="edge8" class="edge">
<title>node15&#45;&gt;node3</title>
<path fill="none" stroke="red" stroke-dasharray="5,2" d="M437.4,-459.06C469.45,-448.57 513.83,-434.05 549.8,-422.28"/>
<polygon fill="red" stroke="red" points="551.28,-425.48 559.7,-419.04 549.11,-418.83 551.28,-425.48"/>
</g>
<!-- node12 -->
<g id="node9" class="node">
<title>node12</title>
<polygon fill="lightgrey" stroke="black" points="366.79,-182 94.79,-182 94.79,-146 366.79,-146 366.79,-182"/>
<text text-anchor="middle" x="230.79" y="-160.3" font-family="Times,serif" font-size="14.00">#12 Invoke static compute : (int)int</text>
</g>
<!-- node12&#45;&gt;node15 -->
<g id="edge9" class="edge">
<title>node12&#45;&gt;node15</title>
<path fill="none" stroke="red" d="M186.02,-182.06C164.28,-193.54 142.79,-211.17 142.79,-236 142.79,-402 142.79,-402 142.79,-402 142.79,-448.25 301.8,-433.71 345.79,-448 349.12,-449.08 352.49,-450.36 355.84,-451.77"/>
<polygon fill="red" stroke="red" points="354.56,-455.03 365.11,-455.98 357.46,-448.66 354.56,-455.03"/>
</g>
<!-- node16 -->
<g id="node15" class="node">
<title>node16</title>
<polygon fill="lightgreen" stroke="black" points="250.98,-83.54 250.98,-98.46 216.31,-109 167.28,-109 132.6,-98.46 132.6,-83.54 167.28,-73 216.31,-73 250.98,-83.54"/>
<text text-anchor="middle" x="191.79" y="-87.3" font-family="Times,serif" font-size="14.00">#16 int 1</text>
</g>
<!-- node12&#45;&gt;node16 -->
<g id="edge23" class="edge">
<title>node12&#45;&gt;node16</title>
<path fill="none" stroke="black" stroke-dasharray="1,5" d="M221.35,-145.81C216.75,-137.44 211.12,-127.2 206.02,-117.9"/>
<polygon fill="black" stroke="black" points="209.03,-116.11 201.15,-109.03 202.89,-119.48 209.03,-116.11"/>
</g>
<!-- node11&#45;&gt;node12 -->
<g id="edge10" class="edge">
<title>node11&#45;&gt;node12</title>
<path fill="none" stroke="black" d="M222.82,-218.81C220.58,-210.79 219.43,-201.05 219.54,-192.07"/>
<polygon fill="black" stroke="black" points="223.04,-192.26 220.27,-182.03 216.06,-191.75 223.04,-192.26"/>
<text text-anchor="middle" x="227.39" y="-197.02" font-family="Times,serif" font-size="14.00">*0</text>
</g>
<!-- node11&#45;&gt;node12 -->
<g id="edge12" class="edge">
<title>node11&#45;&gt;node12</title>
<path fill="none" stroke="green" d="M234.58,-218.81C234.02,-210.79 233.33,-201.05 232.7,-192.07"/>
<polygon fill="green" stroke="green" points="236.18,-191.76 231.99,-182.03 229.2,-192.25 236.18,-191.76"/>
</g>
<!-- node11&#45;&gt;node12 -->
<g id="edge13" class="edge">
<title>node11&#45;&gt;node12</title>
<path fill="none" stroke="red" d="M246.34,-218.81C247.45,-210.79 247.23,-201.05 245.85,-192.07"/>
<polygon fill="red" stroke="red" points="249.22,-191.08 243.71,-182.03 242.37,-192.54 249.22,-191.08"/>
</g>
<!-- node5&#45;&gt;node6 -->
<g id="edge26" class="edge">
<title>node5&#45;&gt;node6</title>
<path fill="none" stroke="black" d="M288.75,-455.81C293.11,-447.44 298.45,-437.2 303.29,-427.9"/>
<polygon fill="black" stroke="black" points="306.4,-429.51 307.92,-419.03 300.19,-426.28 306.4,-429.51"/>
<text text-anchor="middle" x="307.04" y="-435.31" font-family="Times,serif" font-size="14.00">*0</text>
</g>
<!-- node5&#45;&gt;node12 -->
<g id="edge11" class="edge">
<title>node5&#45;&gt;node12</title>
<path fill="none" stroke="black" d="M225.38,-472.73C174.01,-469.26 104.79,-454.79 104.79,-402 104.79,-402 104.79,-402 104.79,-236 104.79,-212.6 121.49,-196.83 142.72,-186.23"/>
<polygon fill="black" stroke="black" points="144.4,-189.32 152.07,-182 141.51,-182.94 144.4,-189.32"/>
<text text-anchor="middle" x="139.04" y="-193.48" font-family="Times,serif" font-size="14.00">*1</text>
</g>
<!-- node17 -->
<g id="node14" class="node">
<title>node17</title>
<polygon fill="orange" stroke="black" points="157.37,-10.54 157.37,-25.46 111.34,-36 46.24,-36 0.21,-25.46 0.21,-10.54 46.24,0 111.34,0 157.37,-10.54"/>
<text text-anchor="middle" x="78.79" y="-14.3" font-family="Times,serif" font-size="14.00">#17 Add : int</text>
</g>
<!-- node5&#45;&gt;node17 -->
<g id="edge21" class="edge">
<title>node5&#45;&gt;node17</title>
<path fill="none" stroke="black" d="M226.87,-466.04C163.78,-456.23 66.79,-435.67 66.79,-402 66.79,-402 66.79,-402 66.79,-90 66.79,-75.3 69.32,-59.13 72.06,-45.94"/>
<polygon fill="black" stroke="black" points="75.5,-46.6 74.25,-36.08 68.66,-45.08 75.5,-46.6"/>
<text text-anchor="middle" x="78.56" y="-51.91" font-family="Times,serif" font-size="14.00">*0</text>
</g>
<!-- node10&#45;&gt;node11 -->
<g id="edge14" class="edge">
<title>node10&#45;&gt;node11</title>
<path fill="none" stroke="black" d="M329.26,-300.84C311.85,-289.13 288.6,-273.5 269.65,-260.76"/>
<polygon fill="black" stroke="black" points="271.53,-257.81 261.28,-255.13 267.62,-263.62 271.53,-257.81"/>
<text text-anchor="middle" x="281.04" y="-254.53" font-family="Times,serif" font-size="14.00">*0</text>
</g>
<!-- node4&#45;&gt;node5 -->
<g id="edge19" class="edge">
<title>node4&#45;&gt;node5</title>
<path fill="none" stroke="blue" d="M771.87,-410.44C753.76,-413.48 732.86,-416.71 713.79,-419 550.02,-438.64 504.57,-411.15 343.79,-448 336.02,-449.78 327.95,-452.33 320.27,-455.13"/>
<polygon fill="blue" stroke="blue" points="318.87,-451.92 310.79,-458.78 321.38,-458.46 318.87,-451.92"/>
<text text-anchor="middle" x="324.67" y="-440.69" font-family="Times,serif" font-size="14.00">if #2</text>
</g>
<!-- node17&#45;&gt;node5 -->
<g id="edge20" class="edge">
<title>node17&#45;&gt;node5</title>
<path fill="none" stroke="blue" stroke-dasharray="5,2" d="M157.54,-23.36C379.27,-36.45 996.63,-78.65 1055.79,-146 1068.7,-160.69 1068.78,-175.38 1055.79,-190 991.96,-261.86 260.62,-220.14 196.79,-292 180.85,-309.94 180.74,-328.16 196.79,-346 237.9,-391.67 430.68,-329.33 471.79,-375 484.87,-389.53 484,-403.72 471.79,-419 435.39,-464.58 399.56,-430.9 343.79,-448 336.66,-450.19 329.19,-452.8 321.97,-455.5"/>
<polygon fill="blue" stroke="blue" points="320.42,-452.34 312.35,-459.2 322.94,-458.88 320.42,-452.34"/>
<text text-anchor="middle" x="326.23" y="-441.1" font-family="Times,serif" font-size="14.00">if #15</text>
</g>
<!-- node16&#45;&gt;node17 -->
<g id="edge22" class="edge">
<title>node16&#45;&gt;node17</title>
<path fill="none" stroke="black" d="M165.3,-73.35C150.22,-63.88 131.12,-51.88 114.7,-41.56"/>
<polygon fill="black" stroke="black" points="116.23,-38.39 105.9,-36.04 112.51,-44.32 116.23,-38.39"/>
<text text-anchor="middle" x="125.75" y="-34.82" font-family="Times,serif" font-size="14.00">*1</text>
</g>
<!-- c0 -->
<!-- c1 -->
<!-- c0&#45;&gt;c1 -->
<g id="edge28" class="edge">
<title>c0&#45;&gt;c1</title>
<path fill="none" stroke="red" d="M1085.68,-556C1096.9,-556 1155.03,-556 1180.65,-556"/>
<polygon fill="red" stroke="red" points="1180.85,-559.5 1190.85,-556 1180.85,-552.5 1180.85,-559.5"/>
<text text-anchor="middle" x="1138.29" y="-562.8" font-family="Times,serif" font-size="14.00">Control flow</text>
</g>
<!-- c2 -->
<!-- c3 -->
<!-- c2&#45;&gt;c3 -->
<g id="edge29" class="edge">
<title>c2&#45;&gt;c3</title>
<path fill="none" stroke="red" stroke-dasharray="5,2" d="M878.87,-556C895.84,-556 1012,-556 1049.88,-556"/>
<polygon fill="red" stroke="red" points="1049.96,-559.5 1059.96,-556 1049.96,-552.5 1049.96,-559.5"/>
<text text-anchor="middle" x="969.29" y="-562.8" font-family="Times,serif" font-size="14.00">Control flow back edge</text>
</g>
<!-- d0 -->
<!-- d1 -->
<!-- d0&#45;&gt;d1 -->
<g id="edge30" class="edge">
<title>d0&#45;&gt;d1</title>
<path fill="none" stroke="black" d="M767.65,-556C777.2,-556 821.1,-556 842.71,-556"/>
<polygon fill="black" stroke="black" points="842.94,-559.5 852.94,-556 842.94,-552.5 842.94,-559.5"/>
<text text-anchor="middle" x="810.29" y="-562.8" font-family="Times,serif" font-size="14.00">Data flow</text>
</g>
<!-- d2 -->
<!-- d3 -->
<!-- d2&#45;&gt;d3 -->
<g id="edge31" class="edge">
<title>d2&#45;&gt;d3</title>
<path fill="none" stroke="black" stroke-dasharray="1,5" d="M641.6,-556C652.25,-556 707.26,-556 731.87,-556"/>
<polygon fill="black" stroke="black" points="731.94,-559.5 741.94,-556 731.94,-552.5 731.94,-559.5"/>
<text text-anchor="middle" x="691.79" y="-562.8" font-family="Times,serif" font-size="14.00">Declaration</text>
</g>
<!-- d4 -->
<!-- d5 -->
<!-- d4&#45;&gt;d5 -->
<g id="edge32" class="edge">
<title>d4&#45;&gt;d5</title>
<path fill="none" stroke="blue" d="M498.89,-556C511.51,-556 577.67,-556 605.47,-556"/>
<polygon fill="blue" stroke="blue" points="605.63,-559.5 615.63,-556 605.63,-552.5 605.63,-559.5"/>
<text text-anchor="middle" x="557.29" y="-562.8" font-family="Times,serif" font-size="14.00">PHI Data flow</text>
</g>
<!-- d6 -->
<!-- d7 -->
<!-- d6&#45;&gt;d7 -->
<g id="edge33" class="edge">
<title>d6&#45;&gt;d7</title>
<path fill="none" stroke="green" d="M361.79,-556C373.73,-556 436.09,-556 462.72,-556"/>
<polygon fill="green" stroke="green" points="462.74,-559.5 472.74,-556 462.74,-552.5 462.74,-559.5"/>
<text text-anchor="middle" x="417.29" y="-562.8" font-family="Times,serif" font-size="14.00">Memory flow</text>
</g>
</g>
</svg>
