<?xml version="1.0" encoding="UTF-8" standalone="no"?>
<!DOCTYPE svg PUBLIC "-//W3C//DTD SVG 1.1//EN"
 "http://www.w3.org/Graphics/SVG/1.1/DTD/svg11.dtd">
<!-- Generated by graphviz version 2.43.0 (0)
 -->
<!-- Title: %3 Pages: 1 -->
<svg width="1441pt" height="680pt"
 viewBox="0.00 0.00 1441.00 680.00" xmlns="http://www.w3.org/2000/svg" xmlns:xlink="http://www.w3.org/1999/xlink">
<g id="graph0" class="graph" transform="scale(1 1) rotate(0) translate(4 676)">
<title>%3</title>
<polygon fill="white" stroke="transparent" points="-4,4 -4,-676 1437,-676 1437,4 -4,4"/>
<g id="clust1" class="cluster">
<title>cluster_0</title>
<polygon fill="none" stroke="lightgray" points="8,-521 8,-664 564,-664 564,-521 8,-521"/>
</g>
<g id="clust2" class="cluster">
<title>cluster_1</title>
<polygon fill="none" stroke="lightgray" points="547,-375 547,-500 797,-500 797,-375 547,-375"/>
</g>
<g id="clust3" class="cluster">
<title>cluster_000</title>
<polygon fill="none" stroke="black" points="572,-619.2 572,-661.8 1425,-661.8 1425,-619.2 572,-619.2"/>
<text text-anchor="middle" x="998.5" y="-646.6" font-family="Times,serif" font-size="14.00">Legend</text>
</g>
<!-- node0 -->
<g id="node1" class="node">
<title>node0</title>
<polygon fill="lightgrey" stroke="transparent" points="469.5,-656 376.5,-656 376.5,-602 469.5,-602 469.5,-656"/>
<polygon fill="none" stroke="black" points="377,-629 377,-656 470,-656 470,-629 377,-629"/>
<text text-anchor="start" x="383" y="-638.8" font-family="Times,serif" font-size="14.00">#0 Method</text>
<polygon fill="yellow" stroke="transparent" points="377,-602 377,-629 470,-629 470,-602 377,-602"/>
<polygon fill="none" stroke="black" points="377,-602 377,-629 470,-629 470,-602 377,-602"/>
<text text-anchor="start" x="390" y="-611.8" font-family="Times,serif" font-size="14.00">arg0 : int</text>
</g>
<!-- node5 -->
<g id="node2" class="node">
<title>node5</title>
<polygon fill="orange" stroke="black" points="789.34,-393.54 789.34,-408.46 757.51,-419 712.49,-419 680.66,-408.46 680.66,-393.54 712.49,-383 757.51,-383 789.34,-393.54"/>
<text text-anchor="middle" x="735" y="-397.3" font-family="Times,serif" font-size="14.00">#5 Φ int</text>
</g>
<!-- node0&#45;&gt;node5 -->
<g id="edge2" class="edge">
<title>node0:prj2&#45;&gt;node5</title>
<path fill="none" stroke="blue" d="M471,-615C486.26,-615 731.24,-576.73 741,-565 753.51,-549.97 754.57,-535.09 741,-521 720.48,-499.7 495.52,-532.3 475,-511 474.69,-510.68 474.94,-510.44 475,-510 478.59,-485.23 472.55,-472.92 491,-456 551.51,-400.5 592.1,-437.93 672,-419 676.15,-418.02 680.45,-416.95 684.76,-415.86"/>
<polygon fill="blue" stroke="blue" points="685.97,-419.16 694.76,-413.26 684.21,-412.38 685.97,-419.16"/>
<text text-anchor="middle" x="679.35" y="-422.3" font-family="Times,serif" font-size="14.00">if #3</text>
</g>
<!-- node3 -->
<g id="node4" class="node">
<title>node3</title>
<polygon fill="lightgrey" stroke="black" points="731.5,-565 612.5,-565 612.5,-529 731.5,-529 731.5,-565"/>
<text text-anchor="middle" x="672" y="-543.3" font-family="Times,serif" font-size="14.00">#3 LabelNode</text>
</g>
<!-- node0&#45;&gt;node3 -->
<g id="edge29" class="edge">
<title>node0&#45;&gt;node3</title>
<path fill="none" stroke="red" d="M469.54,-613.05C508.93,-600.39 565.74,-582.14 609.17,-568.19"/>
<polygon fill="red" stroke="red" points="610.32,-571.49 618.77,-565.1 608.18,-564.83 610.32,-571.49"/>
</g>
<!-- node1 -->
<g id="node7" class="node">
<title>node1</title>
<polygon fill="lightgrey" stroke="black" points="640.5,-182 535.5,-182 535.5,-146 640.5,-146 640.5,-182"/>
<text text-anchor="middle" x="588" y="-160.3" font-family="Times,serif" font-size="14.00">#1 ClassInit</text>
</g>
<!-- node0&#45;&gt;node1 -->
<g id="edge11" class="edge">
<title>node0&#45;&gt;node1</title>
<path fill="none" stroke="green" d="M469.63,-620.83C502.42,-613.09 544.05,-597.22 565,-565 575.66,-548.61 578.08,-535.53 565,-521 550.8,-505.22 489.84,-518.54 470,-511 353.07,-466.58 205.53,-415.33 273,-310 328.51,-223.33 450.36,-187.75 525.19,-173.68"/>
<polygon fill="green" stroke="green" points="526.21,-177.05 535.43,-171.83 524.96,-170.17 526.21,-177.05"/>
</g>
<!-- node18 -->
<g id="node9" class="node">
<title>node18</title>
<polygon fill="lightgreen" stroke="black" points="308.15,-539.54 308.15,-554.46 222.54,-565 101.46,-565 15.85,-554.46 15.85,-539.54 101.46,-529 222.54,-529 308.15,-539.54"/>
<text text-anchor="middle" x="162" y="-543.3" font-family="Times,serif" font-size="14.00">#18 Class SimpleLoopTest</text>
</g>
<!-- node0&#45;&gt;node18 -->
<g id="edge28" class="edge">
<title>node0&#45;&gt;node18</title>
<path fill="none" stroke="black" stroke-dasharray="1,5" d="M376.34,-613.7C334.86,-600.98 273.79,-582.26 227.43,-568.06"/>
<polygon fill="black" stroke="black" points="228.37,-564.68 217.78,-565.1 226.31,-571.37 228.37,-564.68"/>
</g>
<!-- node7 -->
<g id="node12" class="node">
<title>node7</title>
<polygon fill="lightgreen" stroke="black" points="555.52,-539.54 555.52,-554.46 524.76,-565 481.24,-565 450.48,-554.46 450.48,-539.54 481.24,-529 524.76,-529 555.52,-539.54"/>
<text text-anchor="middle" x="503" y="-543.3" font-family="Times,serif" font-size="14.00">#7 int 0</text>
</g>
<!-- node0&#45;&gt;node7 -->
<g id="edge23" class="edge">
<title>node0&#45;&gt;node7</title>
<path fill="none" stroke="black" stroke-dasharray="1,5" d="M449.19,-601.81C458.69,-592.31 469.36,-581.64 478.69,-572.31"/>
<polygon fill="black" stroke="black" points="481.23,-574.72 485.83,-565.17 476.28,-569.77 481.23,-574.72"/>
</g>
<!-- node6 -->
<g id="node14" class="node">
<title>node6</title>
<polygon fill="lightgreen" stroke="black" points="431.52,-539.54 431.52,-554.46 400.76,-565 357.24,-565 326.48,-554.46 326.48,-539.54 357.24,-529 400.76,-529 431.52,-539.54"/>
<text text-anchor="middle" x="379" y="-543.3" font-family="Times,serif" font-size="14.00">#6 int 1</text>
</g>
<!-- node0&#45;&gt;node6 -->
<g id="edge22" class="edge">
<title>node0&#45;&gt;node6</title>
<path fill="none" stroke="black" stroke-dasharray="1,5" d="M408.59,-601.81C403.68,-592.88 398.2,-582.9 393.29,-573.99"/>
<polygon fill="black" stroke="black" points="396.33,-572.25 388.45,-565.17 390.2,-575.62 396.33,-572.25"/>
</g>
<!-- node17 -->
<g id="node16" class="node">
<title>node17</title>
<polygon fill="lightgrey" stroke="black" points="935.5,-109 762.5,-109 762.5,-73 935.5,-73 935.5,-109"/>
<text text-anchor="middle" x="849" y="-87.3" font-family="Times,serif" font-size="14.00">#17 ReturnValue : int</text>
</g>
<!-- node0&#45;&gt;node17 -->
<g id="edge27" class="edge">
<title>node0&#45;&gt;node17</title>
<path fill="none" stroke="green" d="M469.65,-619.37C498.05,-614.17 535.09,-607.53 568,-602 610.64,-594.84 732.39,-599.08 759,-565 771.03,-549.59 772.14,-535.48 759,-521 726.59,-485.29 575.41,-535.71 543,-500 529.86,-485.52 530.19,-470.78 543,-456 618.87,-368.47 718.95,-500.78 801,-419 882.83,-337.44 865.63,-181.89 854.56,-119.19"/>
<polygon fill="green" stroke="green" points="857.98,-118.47 852.72,-109.28 851.1,-119.75 857.98,-118.47"/>
</g>
<!-- node12 -->
<g id="node11" class="node">
<title>node12</title>
<polygon fill="orange" stroke="black" points="761.82,-320.54 761.82,-335.46 672.3,-346 545.7,-346 456.18,-335.46 456.18,-320.54 545.7,-310 672.3,-310 761.82,-320.54"/>
<text text-anchor="middle" x="609" y="-324.3" font-family="Times,serif" font-size="14.00">#12 NumericCondition : GE</text>
</g>
<!-- node5&#45;&gt;node12 -->
<g id="edge15" class="edge">
<title>node5&#45;&gt;node12</title>
<path fill="none" stroke="black" d="M707.66,-384.59C690.29,-374.81 667.53,-361.98 648.24,-351.11"/>
<polygon fill="black" stroke="black" points="649.81,-347.98 639.38,-346.12 646.37,-354.08 649.81,-347.98"/>
<text text-anchor="middle" x="659.32" y="-343.95" font-family="Times,serif" font-size="14.00">*0</text>
</g>
<!-- node5&#45;&gt;node17 -->
<g id="edge25" class="edge">
<title>node5&#45;&gt;node17</title>
<path fill="none" stroke="black" d="M789.56,-396.99C834.55,-391.21 891,-374.82 891,-329 891,-329 891,-329 891,-163 891,-146.08 882.06,-129.66 872.43,-116.88"/>
<polygon fill="black" stroke="black" points="875.09,-114.61 866.08,-109.04 869.65,-119.01 875.09,-114.61"/>
<text text-anchor="middle" x="884.05" y="-114.12" font-family="Times,serif" font-size="14.00">*0</text>
</g>
<!-- node4 -->
<g id="node3" class="node">
<title>node4</title>
<polygon fill="lightgrey" stroke="black" points="765,-492 579,-492 579,-456 765,-456 765,-492"/>
<text text-anchor="middle" x="672" y="-470.3" font-family="Times,serif" font-size="14.00">#4 LoopHeader : Loop6</text>
</g>
<!-- node4&#45;&gt;node5 -->
<g id="edge1" class="edge">
<title>node4&#45;&gt;node5</title>
<path fill="none" stroke="black" stroke-dasharray="1,5" d="M687.25,-455.81C694.99,-447.09 704.53,-436.34 713.04,-426.75"/>
<polygon fill="black" stroke="black" points="715.87,-428.83 719.89,-419.03 710.63,-424.19 715.87,-428.83"/>
</g>
<!-- node8 -->
<g id="node8" class="node">
<title>node8</title>
<polygon fill="orange" stroke="black" points="663.34,-393.54 663.34,-408.46 631.51,-419 586.49,-419 554.66,-408.46 554.66,-393.54 586.49,-383 631.51,-383 663.34,-393.54"/>
<text text-anchor="middle" x="609" y="-397.3" font-family="Times,serif" font-size="14.00">#8 Φ int</text>
</g>
<!-- node4&#45;&gt;node8 -->
<g id="edge17" class="edge">
<title>node4&#45;&gt;node8</title>
<path fill="none" stroke="black" stroke-dasharray="1,5" d="M656.75,-455.81C649.01,-447.09 639.47,-436.34 630.96,-426.75"/>
<polygon fill="black" stroke="black" points="633.37,-424.19 624.11,-419.03 628.13,-428.83 633.37,-424.19"/>
</g>
<!-- node13 -->
<g id="node10" class="node">
<title>node13</title>
<polygon fill="lightgrey" stroke="transparent" points="653.5,-273 564.5,-273 564.5,-219 653.5,-219 653.5,-273"/>
<polygon fill="none" stroke="black" points="565,-246 565,-273 654,-273 654,-246 565,-246"/>
<text text-anchor="start" x="586.5" y="-255.8" font-family="Times,serif" font-size="14.00">#13 If</text>
<polygon fill="yellow" stroke="transparent" points="565,-219 565,-246 611,-246 611,-219 565,-219"/>
<polygon fill="none" stroke="black" points="565,-219 565,-246 611,-246 611,-219 565,-219"/>
<text text-anchor="start" x="571" y="-228.8" font-family="Times,serif" font-size="14.00">false</text>
<polygon fill="yellow" stroke="transparent" points="611,-219 611,-246 654,-246 654,-219 611,-219"/>
<polygon fill="none" stroke="black" points="611,-219 611,-246 654,-246 654,-219 611,-219"/>
<text text-anchor="start" x="617" y="-228.8" font-family="Times,serif" font-size="14.00">true</text>
</g>
<!-- node4&#45;&gt;node13 -->
<g id="edge14" class="edge">
<title>node4&#45;&gt;node13</title>
<path fill="none" stroke="red" d="M578.84,-471.57C487.21,-464.58 351.68,-438.06 285,-346 275.61,-333.04 274.82,-322.35 285,-310 302,-289.37 466.38,-265.34 554.24,-253.83"/>
<polygon fill="red" stroke="red" points="554.84,-257.28 564.3,-252.52 553.94,-250.34 554.84,-257.28"/>
</g>
<!-- node3&#45;&gt;node4 -->
<g id="edge3" class="edge">
<title>node3&#45;&gt;node4</title>
<path fill="none" stroke="red" d="M672,-528.81C672,-520.79 672,-511.05 672,-502.07"/>
<polygon fill="red" stroke="red" points="675.5,-502.03 672,-492.03 668.5,-502.03 675.5,-502.03"/>
</g>
<!-- node11 -->
<g id="node5" class="node">
<title>node11</title>
<polygon fill="lightgrey" stroke="black" points="828.5,-36 743.5,-36 743.5,0 828.5,0 828.5,-36"/>
<text text-anchor="middle" x="786" y="-14.3" font-family="Times,serif" font-size="14.00">#11 Goto</text>
</g>
<!-- node11&#45;&gt;node4 -->
<g id="edge4" class="edge">
<title>node11&#45;&gt;node4</title>
<path fill="none" stroke="red" stroke-dasharray="5,2" d="M828.89,-26.96C882.42,-38.13 967,-60.46 967,-90 967,-402 967,-402 967,-402 967,-442.54 860.38,-459.99 775.33,-467.47"/>
<polygon fill="red" stroke="red" points="775.01,-463.99 765.34,-468.31 775.6,-470.96 775.01,-463.99"/>
</g>
<!-- node10 -->
<g id="node6" class="node">
<title>node10</title>
<polygon fill="lightgrey" stroke="black" points="741,-109 469,-109 469,-73 741,-73 741,-109"/>
<text text-anchor="middle" x="605" y="-87.3" font-family="Times,serif" font-size="14.00">#10 Invoke static compute : (int)int</text>
</g>
<!-- node10&#45;&gt;node11 -->
<g id="edge5" class="edge">
<title>node10&#45;&gt;node11</title>
<path fill="none" stroke="red" d="M648.35,-72.99C674.08,-62.9 706.86,-50.04 733.98,-39.41"/>
<polygon fill="red" stroke="red" points="735.28,-42.65 743.31,-35.74 732.72,-36.14 735.28,-42.65"/>
</g>
<!-- node1&#45;&gt;node10 -->
<g id="edge6" class="edge">
<title>node1&#45;&gt;node10</title>
<path fill="none" stroke="black" d="M580.36,-145.81C580.61,-137.62 582.55,-127.62 585.55,-118.48"/>
<polygon fill="black" stroke="black" points="588.87,-119.62 589.2,-109.03 582.34,-117.1 588.87,-119.62"/>
<text text-anchor="middle" x="590.56" y="-125.28" font-family="Times,serif" font-size="14.00">*0</text>
</g>
<!-- node1&#45;&gt;node10 -->
<g id="edge8" class="edge">
<title>node1&#45;&gt;node10</title>
<path fill="none" stroke="green" d="M592.12,-145.81C594.06,-137.7 596.42,-127.84 598.59,-118.78"/>
<polygon fill="green" stroke="green" points="602,-119.57 600.92,-109.03 595.19,-117.94 602,-119.57"/>
</g>
<!-- node1&#45;&gt;node10 -->
<g id="edge9" class="edge">
<title>node1&#45;&gt;node10</title>
<path fill="none" stroke="red" d="M603.87,-145.81C607.47,-137.79 610.27,-128.05 611.67,-119.07"/>
<polygon fill="red" stroke="red" points="615.17,-119.32 612.65,-109.03 608.2,-118.65 615.17,-119.32"/>
</g>
<!-- node8&#45;&gt;node10 -->
<g id="edge7" class="edge">
<title>node8&#45;&gt;node10</title>
<path fill="none" stroke="black" d="M641.81,-386.31C651.47,-382.47 662.1,-378.41 672,-375 715.35,-360.08 743.51,-382.7 771,-346 823.17,-276.36 774.52,-304.73 650,-146 642.5,-136.44 634.03,-126.16 626.48,-117.15"/>
<polygon fill="black" stroke="black" points="628.98,-114.68 619.86,-109.3 623.63,-119.2 628.98,-114.68"/>
<text text-anchor="middle" x="638" y="-114" font-family="Times,serif" font-size="14.00">*1</text>
</g>
<!-- node8&#45;&gt;node12 -->
<g id="edge16" class="edge">
<title>node8&#45;&gt;node12</title>
<path fill="none" stroke="black" d="M609,-382.81C609,-374.79 609,-365.05 609,-356.07"/>
<polygon fill="black" stroke="black" points="612.5,-356.03 609,-346.03 605.5,-356.03 612.5,-356.03"/>
<text text-anchor="middle" x="617.45" y="-360.45" font-family="Times,serif" font-size="14.00">*1</text>
</g>
<!-- node9 -->
<g id="node13" class="node">
<title>node9</title>
<polygon fill="orange" stroke="black" points="438.42,-320.54 438.42,-335.46 396,-346 336,-346 293.58,-335.46 293.58,-320.54 336,-310 396,-310 438.42,-320.54"/>
<text text-anchor="middle" x="366" y="-324.3" font-family="Times,serif" font-size="14.00">#9 Add : int</text>
</g>
<!-- node8&#45;&gt;node9 -->
<g id="edge20" class="edge">
<title>node8&#45;&gt;node9</title>
<path fill="none" stroke="black" d="M569.69,-388.51C529.39,-376.74 466.39,-358.33 421.12,-345.11"/>
<polygon fill="black" stroke="black" points="422.04,-341.73 411.46,-342.28 420.08,-348.45 422.04,-341.73"/>
<text text-anchor="middle" x="431.23" y="-335.55" font-family="Times,serif" font-size="14.00">*0</text>
</g>
<!-- node18&#45;&gt;node1 -->
<g id="edge10" class="edge">
<title>node18&#45;&gt;node1</title>
<path fill="none" stroke="black" d="M169.68,-528.87C175.32,-514.72 182,-493.95 182,-475 182,-475 182,-475 182,-245 182,-175.94 410.97,-165.49 525,-164.56"/>
<polygon fill="black" stroke="black" points="525.36,-168.06 535.34,-164.5 525.32,-161.06 525.36,-168.06"/>
<text text-anchor="middle" x="517.26" y="-169.36" font-family="Times,serif" font-size="14.00">*0</text>
</g>
<!-- node13&#45;&gt;node1 -->
<g id="edge12" class="edge">
<title>node13:prj16&#45;&gt;node1</title>
<path fill="none" stroke="red" d="M588,-219C588,-210.3 588,-200.81 588,-192.25"/>
<polygon fill="red" stroke="red" points="591.5,-192.02 588,-182.02 584.5,-192.02 591.5,-192.02"/>
</g>
<!-- node15 -->
<g id="node15" class="node">
<title>node15</title>
<polygon fill="lightgrey" stroke="black" points="825,-182 697,-182 697,-146 825,-146 825,-182"/>
<text text-anchor="middle" x="761" y="-160.3" font-family="Times,serif" font-size="14.00">#15 LabelNode</text>
</g>
<!-- node13&#45;&gt;node15 -->
<g id="edge24" class="edge">
<title>node13:prj14&#45;&gt;node15</title>
<path fill="none" stroke="red" d="M655,-232C687.87,-232 718.83,-208.7 738.71,-189.58"/>
<polygon fill="red" stroke="red" points="741.43,-191.81 746.01,-182.25 736.48,-186.86 741.43,-191.81"/>
</g>
<!-- node12&#45;&gt;node13 -->
<g id="edge13" class="edge">
<title>node12&#45;&gt;node13</title>
<path fill="none" stroke="black" d="M609,-309.64C609,-301.9 609,-292.46 609,-283.29"/>
<polygon fill="black" stroke="black" points="612.5,-283.15 609,-273.15 605.5,-283.15 612.5,-283.15"/>
<text text-anchor="middle" x="617.45" y="-287.57" font-family="Times,serif" font-size="14.00">*0</text>
</g>
<!-- node7&#45;&gt;node8 -->
<g id="edge18" class="edge">
<title>node7&#45;&gt;node8</title>
<path fill="none" stroke="blue" d="M485.58,-528.91C481.28,-523.62 477.27,-517.46 475,-511 466.57,-486.98 474.31,-475.23 491,-456 507.86,-436.57 533.16,-423.73 556.01,-415.47"/>
<polygon fill="blue" stroke="blue" points="557.28,-418.73 565.62,-412.2 555.03,-412.11 557.28,-418.73"/>
<text text-anchor="middle" x="551.18" y="-422.34" font-family="Times,serif" font-size="14.00">if #3</text>
</g>
<!-- node9&#45;&gt;node8 -->
<g id="edge19" class="edge">
<title>node9&#45;&gt;node8</title>
<path fill="none" stroke="blue" d="M417.07,-340.89C443.21,-347.25 475.45,-355.5 504,-364 523.88,-369.92 545.61,-377.23 564.12,-383.71"/>
<polygon fill="blue" stroke="blue" points="563.16,-387.08 573.75,-387.11 565.49,-380.48 563.16,-387.08"/>
<text text-anchor="middle" x="553.85" y="-385.35" font-family="Times,serif" font-size="14.00">if #11</text>
</g>
<!-- node6&#45;&gt;node9 -->
<g id="edge21" class="edge">
<title>node6&#45;&gt;node9</title>
<path fill="none" stroke="black" d="M377.98,-528.97C375.74,-491.51 370.35,-401.68 367.63,-356.26"/>
<polygon fill="black" stroke="black" points="371.13,-356.02 367.03,-346.25 364.14,-356.44 371.13,-356.02"/>
<text text-anchor="middle" x="376.55" y="-360.14" font-family="Times,serif" font-size="14.00">*1</text>
</g>
<!-- node15&#45;&gt;node17 -->
<g id="edge26" class="edge">
<title>node15&#45;&gt;node17</title>
<path fill="none" stroke="red" d="M782.3,-145.81C793.65,-136.66 807.78,-125.26 820.1,-115.32"/>
<polygon fill="red" stroke="red" points="822.31,-118.03 827.89,-109.03 817.91,-112.58 822.31,-118.03"/>
</g>
<!-- c0 -->
<!-- c1 -->
<!-- c0&#45;&gt;c1 -->
<g id="edge30" class="edge">
<title>c0&#45;&gt;c1</title>
<path fill="none" stroke="red" d="M1307.89,-629C1319.11,-629 1377.24,-629 1402.86,-629"/>
<polygon fill="red" stroke="red" points="1403.06,-632.5 1413.06,-629 1403.06,-625.5 1403.06,-632.5"/>
<text text-anchor="middle" x="1360.5" y="-635.8" font-family="Times,serif" font-size="14.00">Control flow</text>
</g>
<!-- c2 -->
<!-- c3 -->
<!-- c2&#45;&gt;c3 -->
<g id="edge31" class="edge">
<title>c2&#45;&gt;c3</title>
<path fill="none" stroke="red" stroke-dasharray="5,2" d="M1101.08,-629C1118.05,-629 1234.21,-629 1272.08,-629"/>
<polygon fill="red" stroke="red" points="1272.17,-632.5 1282.17,-629 1272.17,-625.5 1272.17,-632.5"/>
<text text-anchor="middle" x="1191.5" y="-635.8" font-family="Times,serif" font-size="14.00">Control flow back edge</text>
</g>
<!-- d0 -->
<!-- d1 -->
<!-- d0&#45;&gt;d1 -->
<g id="edge32" class="edge">
<title>d0&#45;&gt;d1</title>
<path fill="none" stroke="black" d="M989.86,-629C999.41,-629 1043.31,-629 1064.92,-629"/>
<polygon fill="black" stroke="black" points="1065.15,-632.5 1075.15,-629 1065.15,-625.5 1065.15,-632.5"/>
<text text-anchor="middle" x="1032.5" y="-635.8" font-family="Times,serif" font-size="14.00">Data flow</text>
</g>
<!-- d2 -->
<!-- d3 -->
<!-- d2&#45;&gt;d3 -->
<g id="edge33" class="edge">
<title>d2&#45;&gt;d3</title>
<path fill="none" stroke="black" stroke-dasharray="1,5" d="M863.81,-629C874.46,-629 929.46,-629 954.08,-629"/>
<polygon fill="black" stroke="black" points="954.15,-632.5 964.15,-629 954.15,-625.5 954.15,-632.5"/>
<text text-anchor="middle" x="914" y="-635.8" font-family="Times,serif" font-size="14.00">Declaration</text>
</g>
<!-- d4 -->
<!-- d5 -->
<!-- d4&#45;&gt;d5 -->
<g id="edge34" class="edge">
<title>d4&#45;&gt;d5</title>
<path fill="none" stroke="blue" d="M721.1,-629C733.72,-629 799.88,-629 827.68,-629"/>
<polygon fill="blue" stroke="blue" points="827.84,-632.5 837.84,-629 827.84,-625.5 827.84,-632.5"/>
<text text-anchor="middle" x="779.5" y="-635.8" font-family="Times,serif" font-size="14.00">PHI Data flow</text>
</g>
<!-- d6 -->
<!-- d7 -->
<!-- d6&#45;&gt;d7 -->
<g id="edge35" class="edge">
<title>d6&#45;&gt;d7</title>
<path fill="none" stroke="green" d="M584,-629C595.94,-629 658.3,-629 684.93,-629"/>
<polygon fill="green" stroke="green" points="684.95,-632.5 694.95,-629 684.95,-625.5 684.95,-632.5"/>
<text text-anchor="middle" x="639.5" y="-635.8" font-family="Times,serif" font-size="14.00">Memory flow</text>
</g>
</g>
</svg>
