<?xml version="1.0" encoding="UTF-8" standalone="no"?>
<!DOCTYPE svg PUBLIC "-//W3C//DTD SVG 1.1//EN"
 "http://www.w3.org/Graphics/SVG/1.1/DTD/svg11.dtd">
<!-- Generated by graphviz version 2.43.0 (0)
 -->
<!-- Title: %3 Pages: 1 -->
<svg width="1495pt" height="678pt"
 viewBox="0.00 0.00 1494.79 677.80" xmlns="http://www.w3.org/2000/svg" xmlns:xlink="http://www.w3.org/1999/xlink">
<g id="graph0" class="graph" transform="scale(1 1) rotate(0) translate(4 673.8)">
<title>%3</title>
<polygon fill="white" stroke="transparent" points="-4,4 -4,-673.8 1490.79,-673.8 1490.79,4 -4,4"/>
<g id="clust1" class="cluster">
<title>cluster_0</title>
<polygon fill="none" stroke="lightgray" points="86.79,-65 86.79,-190 374.79,-190 374.79,-65 86.79,-65"/>
</g>
<g id="clust2" class="cluster">
<title>cluster_1</title>
<polygon fill="none" stroke="lightgray" points="144.79,-448 144.79,-573 409.79,-573 409.79,-448 144.79,-448"/>
</g>
<g id="clust3" class="cluster">
<title>cluster_2</title>
<polygon fill="none" stroke="lightgray" points="200.79,-293 200.79,-345 508.79,-345 508.79,-293 200.79,-293"/>
</g>
<g id="clust4" class="cluster">
<title>cluster_000</title>
<polygon fill="none" stroke="black" points="625.79,-619.2 625.79,-661.8 1478.79,-661.8 1478.79,-619.2 625.79,-619.2"/>
<text text-anchor="middle" x="1052.29" y="-646.6" font-family="Times,serif" font-size="14.00">Legend</text>
</g>
<!-- node0 -->
<g id="node1" class="node">
<title>node0</title>
<polygon fill="lightgrey" stroke="transparent" points="616.29,-656 523.29,-656 523.29,-602 616.29,-602 616.29,-656"/>
<polygon fill="none" stroke="black" points="523.79,-629 523.79,-656 616.79,-656 616.79,-629 523.79,-629"/>
<text text-anchor="start" x="529.79" y="-638.8" font-family="Times,serif" font-size="14.00">#0 Method</text>
<polygon fill="yellow" stroke="transparent" points="523.79,-602 523.79,-629 616.79,-629 616.79,-602 523.79,-602"/>
<polygon fill="none" stroke="black" points="523.79,-602 523.79,-629 616.79,-629 616.79,-602 523.79,-602"/>
<text text-anchor="start" x="536.79" y="-611.8" font-family="Times,serif" font-size="14.00">arg0 : int</text>
</g>
<!-- node11 -->
<g id="node2" class="node">
<title>node11</title>
<polygon fill="lightgrey" stroke="black" points="802.29,-182 629.29,-182 629.29,-146 802.29,-146 802.29,-182"/>
<text text-anchor="middle" x="715.79" y="-160.3" font-family="Times,serif" font-size="14.00">#11 ReturnValue : int</text>
</g>
<!-- node0&#45;&gt;node11 -->
<g id="edge1" class="edge">
<title>node0:prj1&#45;&gt;node11</title>
<path fill="none" stroke="black" d="M617.79,-615C614.84,-615 608.58,-606.34 612.79,-602 664.45,-548.72 770.79,-622.21 770.79,-548 770.79,-548 770.79,-548 770.79,-236 770.79,-216.99 757.98,-200.78 744.63,-188.67"/>
<polygon fill="black" stroke="black" points="746.69,-185.83 736.8,-182.02 742.16,-191.16 746.69,-185.83"/>
<text text-anchor="middle" x="756.09" y="-183.61" font-family="Times,serif" font-size="14.00">*0</text>
</g>
<!-- node0&#45;&gt;node11 -->
<g id="edge3" class="edge">
<title>node0&#45;&gt;node11</title>
<path fill="none" stroke="green" d="M618.14,-615C632.74,-614.86 626.62,-606.31 630.79,-602 682.45,-548.72 788.79,-622.21 788.79,-548 788.79,-548 788.79,-548 788.79,-236 788.79,-216.64 775.5,-200.18 760.18,-188"/>
<polygon fill="green" stroke="green" points="762.17,-185.12 752.04,-182.02 758.03,-190.76 762.17,-185.12"/>
</g>
<!-- node6 -->
<g id="node5" class="node">
<title>node6</title>
<polygon fill="orange" stroke="black" points="500.94,-393.54 500.94,-408.46 415.33,-419 294.25,-419 208.64,-408.46 208.64,-393.54 294.25,-383 415.33,-383 500.94,-393.54"/>
<text text-anchor="middle" x="354.79" y="-397.3" font-family="Times,serif" font-size="14.00">#6 NumericCondition : GE</text>
</g>
<!-- node0&#45;&gt;node6 -->
<g id="edge27" class="edge">
<title>node0:prj1&#45;&gt;node6</title>
<path fill="none" stroke="black" d="M570.79,-602C570.79,-528.86 566.46,-497.69 512.79,-448 498.09,-434.38 479.58,-424.78 460.45,-418"/>
<polygon fill="black" stroke="black" points="461.31,-414.6 450.72,-414.81 459.13,-421.25 461.31,-414.6"/>
<text text-anchor="middle" x="470.58" y="-408.73" font-family="Times,serif" font-size="14.00">*1</text>
</g>
<!-- node2 -->
<g id="node7" class="node">
<title>node2</title>
<polygon fill="lightgrey" stroke="black" points="401.29,-565 282.29,-565 282.29,-529 401.29,-529 401.29,-565"/>
<text text-anchor="middle" x="341.79" y="-543.3" font-family="Times,serif" font-size="14.00">#2 LabelNode</text>
</g>
<!-- node0&#45;&gt;node2 -->
<g id="edge25" class="edge">
<title>node0&#45;&gt;node2</title>
<path fill="none" stroke="red" d="M523.1,-611.62C487.43,-599.1 438.06,-581.78 399.85,-568.37"/>
<polygon fill="red" stroke="red" points="400.98,-565.06 390.39,-565.05 398.66,-571.66 400.98,-565.06"/>
</g>
<!-- node13 -->
<g id="node10" class="node">
<title>node13</title>
<polygon fill="lightgrey" stroke="black" points="328.79,-255 214.79,-255 214.79,-219 328.79,-219 328.79,-255"/>
<text text-anchor="middle" x="271.79" y="-233.3" font-family="Times,serif" font-size="14.00">#13 ClassInit</text>
</g>
<!-- node0&#45;&gt;node13 -->
<g id="edge15" class="edge">
<title>node0&#45;&gt;node13</title>
<path fill="none" stroke="green" d="M616.53,-603.68C618.29,-603.07 620.05,-602.5 621.79,-602 660.62,-590.78 775.66,-613.96 802.79,-584 868.37,-511.58 789.41,-444.87 713.79,-383 655.29,-335.14 609.85,-389.15 547.79,-346 524.31,-329.67 536.26,-308.34 512.79,-292 498.48,-282.04 405.07,-262.94 338.85,-250.33"/>
<polygon fill="green" stroke="green" points="339.36,-246.86 328.88,-248.44 338.05,-253.74 339.36,-246.86"/>
</g>
<!-- node10 -->
<g id="node3" class="node">
<title>node10</title>
<polygon fill="lightgrey" stroke="black" points="728.79,-255 600.79,-255 600.79,-219 728.79,-219 728.79,-255"/>
<text text-anchor="middle" x="664.79" y="-233.3" font-family="Times,serif" font-size="14.00">#10 LabelNode</text>
</g>
<!-- node10&#45;&gt;node11 -->
<g id="edge2" class="edge">
<title>node10&#45;&gt;node11</title>
<path fill="none" stroke="red" d="M677.14,-218.81C683.28,-210.27 690.82,-199.77 697.6,-190.32"/>
<polygon fill="red" stroke="red" points="700.57,-192.19 703.56,-182.03 694.88,-188.11 700.57,-192.19"/>
</g>
<!-- node7 -->
<g id="node4" class="node">
<title>node7</title>
<polygon fill="lightgrey" stroke="transparent" points="646.29,-346 557.29,-346 557.29,-292 646.29,-292 646.29,-346"/>
<polygon fill="none" stroke="black" points="557.79,-319 557.79,-346 646.79,-346 646.79,-319 557.79,-319"/>
<text text-anchor="start" x="583.79" y="-328.8" font-family="Times,serif" font-size="14.00">#7 If</text>
<polygon fill="yellow" stroke="transparent" points="557.79,-292 557.79,-319 603.79,-319 603.79,-292 557.79,-292"/>
<polygon fill="none" stroke="black" points="557.79,-292 557.79,-319 603.79,-319 603.79,-292 557.79,-292"/>
<text text-anchor="start" x="563.79" y="-301.8" font-family="Times,serif" font-size="14.00">false</text>
<polygon fill="yellow" stroke="transparent" points="603.79,-292 603.79,-319 646.79,-319 646.79,-292 603.79,-292"/>
<polygon fill="none" stroke="black" points="603.79,-292 603.79,-319 646.79,-319 646.79,-292 603.79,-292"/>
<text text-anchor="start" x="609.79" y="-301.8" font-family="Times,serif" font-size="14.00">true</text>
</g>
<!-- node7&#45;&gt;node10 -->
<g id="edge4" class="edge">
<title>node7:prj8&#45;&gt;node10</title>
<path fill="none" stroke="red" d="M625.79,-292C625.79,-281.31 630.88,-271.3 637.38,-262.87"/>
<polygon fill="red" stroke="red" points="640.03,-265.15 643.92,-255.3 634.73,-260.57 640.03,-265.15"/>
</g>
<!-- node7&#45;&gt;node13 -->
<g id="edge16" class="edge">
<title>node7:prj9&#45;&gt;node13</title>
<path fill="none" stroke="red" d="M556.79,-305C548.3,-305 550.26,-296.05 542.79,-292 512.18,-275.41 500.83,-280.3 466.79,-273 424.68,-263.97 377.1,-255.4 339.49,-249"/>
<polygon fill="red" stroke="red" points="339.6,-245.47 329.16,-247.25 338.44,-252.37 339.6,-245.47"/>
</g>
<!-- node12 -->
<g id="node12" class="node">
<title>node12</title>
<polygon fill="lightgreen" stroke="black" points="500.94,-311.54 500.94,-326.46 415.33,-337 294.25,-337 208.64,-326.46 208.64,-311.54 294.25,-301 415.33,-301 500.94,-311.54"/>
<text text-anchor="middle" x="354.79" y="-315.3" font-family="Times,serif" font-size="14.00">#12 Class SimpleLoopTest</text>
</g>
<!-- node7&#45;&gt;node12 -->
<g id="edge17" class="edge">
<title>node7:prj9&#45;&gt;node12</title>
<path fill="none" stroke="black" stroke-dasharray="1,5" d="M557.29,-305C533.33,-305 507.8,-306 483.25,-307.46"/>
<polygon fill="black" stroke="black" points="482.93,-303.97 473.17,-308.09 483.37,-310.96 482.93,-303.97"/>
</g>
<!-- node6&#45;&gt;node7 -->
<g id="edge5" class="edge">
<title>node6&#45;&gt;node7</title>
<path fill="none" stroke="black" d="M407.48,-382.94C448.66,-369.6 505.72,-351.12 547.35,-337.63"/>
<polygon fill="black" stroke="black" points="548.61,-340.9 557.05,-334.49 546.45,-334.24 548.61,-340.9"/>
<text text-anchor="middle" x="542.41" y="-344.42" font-family="Times,serif" font-size="14.00">*0</text>
</g>
<!-- node3 -->
<g id="node6" class="node">
<title>node3</title>
<polygon fill="lightgrey" stroke="black" points="704.79,-419 518.79,-419 518.79,-383 704.79,-383 704.79,-419"/>
<text text-anchor="middle" x="611.79" y="-397.3" font-family="Times,serif" font-size="14.00">#3 LoopHeader : Loop6</text>
</g>
<!-- node3&#45;&gt;node7 -->
<g id="edge6" class="edge">
<title>node3&#45;&gt;node7</title>
<path fill="none" stroke="red" d="M609.62,-382.64C608.65,-374.9 607.47,-365.46 606.33,-356.29"/>
<polygon fill="red" stroke="red" points="609.77,-355.64 605.06,-346.15 602.83,-356.5 609.77,-355.64"/>
</g>
<!-- node2&#45;&gt;node3 -->
<g id="edge7" class="edge">
<title>node2&#45;&gt;node3</title>
<path fill="none" stroke="red" d="M401.38,-533.9C435.5,-525.36 478.25,-511.86 512.79,-492 542.83,-474.72 571.48,-447.02 590.16,-426.9"/>
<polygon fill="red" stroke="red" points="592.91,-429.09 597.05,-419.34 587.73,-424.38 592.91,-429.09"/>
</g>
<!-- node5 -->
<g id="node11" class="node">
<title>node5</title>
<polygon fill="orange" stroke="black" points="261.13,-466.54 261.13,-481.46 229.3,-492 184.28,-492 152.45,-481.46 152.45,-466.54 184.28,-456 229.3,-456 261.13,-466.54"/>
<text text-anchor="middle" x="206.79" y="-470.3" font-family="Times,serif" font-size="14.00">#5 Φ int</text>
</g>
<!-- node2&#45;&gt;node5 -->
<g id="edge18" class="edge">
<title>node2&#45;&gt;node5</title>
<path fill="none" stroke="black" stroke-dasharray="1,5" d="M309.46,-528.99C289.97,-518.75 265.07,-505.65 244.67,-494.92"/>
<polygon fill="black" stroke="black" points="246.13,-491.73 235.65,-490.18 242.87,-497.93 246.13,-491.73"/>
</g>
<!-- node4 -->
<g id="node13" class="node">
<title>node4</title>
<polygon fill="lightgreen" stroke="black" points="401.32,-466.54 401.32,-481.46 370.55,-492 327.03,-492 296.27,-481.46 296.27,-466.54 327.03,-456 370.55,-456 401.32,-466.54"/>
<text text-anchor="middle" x="348.79" y="-470.3" font-family="Times,serif" font-size="14.00">#4 int 0</text>
</g>
<!-- node2&#45;&gt;node4 -->
<g id="edge24" class="edge">
<title>node2&#45;&gt;node4</title>
<path fill="none" stroke="black" stroke-dasharray="1,5" d="M343.49,-528.81C344.28,-520.79 345.24,-511.05 346.12,-502.07"/>
<polygon fill="black" stroke="black" points="349.61,-502.32 347.11,-492.03 342.65,-501.64 349.61,-502.32"/>
</g>
<!-- node15 -->
<g id="node8" class="node">
<title>node15</title>
<polygon fill="lightgrey" stroke="black" points="504.29,-492 419.29,-492 419.29,-456 504.29,-456 504.29,-492"/>
<text text-anchor="middle" x="461.79" y="-470.3" font-family="Times,serif" font-size="14.00">#15 Goto</text>
</g>
<!-- node15&#45;&gt;node3 -->
<g id="edge8" class="edge">
<title>node15&#45;&gt;node3</title>
<path fill="none" stroke="red" stroke-dasharray="5,2" d="M496.35,-456C508.76,-449.94 522.88,-443.11 535.79,-437 545.24,-432.53 555.39,-427.8 565.09,-423.32"/>
<polygon fill="red" stroke="red" points="566.6,-426.47 574.22,-419.11 563.67,-420.12 566.6,-426.47"/>
</g>
<!-- node14 -->
<g id="node9" class="node">
<title>node14</title>
<polygon fill="lightgrey" stroke="black" points="366.79,-182 94.79,-182 94.79,-146 366.79,-146 366.79,-182"/>
<text text-anchor="middle" x="230.79" y="-160.3" font-family="Times,serif" font-size="14.00">#14 Invoke static compute : (int)int</text>
</g>
<!-- node14&#45;&gt;node15 -->
<g id="edge9" class="edge">
<title>node14&#45;&gt;node15</title>
<path fill="none" stroke="red" d="M186.02,-182.06C164.28,-193.54 142.79,-211.17 142.79,-236 142.79,-402 142.79,-402 142.79,-402 142.79,-463.08 355.57,-429.52 413.79,-448 417.12,-449.06 420.49,-450.33 423.82,-451.74"/>
<polygon fill="red" stroke="red" points="422.49,-454.98 433.04,-455.99 425.42,-448.63 422.49,-454.98"/>
</g>
<!-- node16 -->
<g id="node15" class="node">
<title>node16</title>
<polygon fill="lightgreen" stroke="black" points="250.98,-83.54 250.98,-98.46 216.31,-109 167.28,-109 132.6,-98.46 132.6,-83.54 167.28,-73 216.31,-73 250.98,-83.54"/>
<text text-anchor="middle" x="191.79" y="-87.3" font-family="Times,serif" font-size="14.00">#16 int 1</text>
</g>
<!-- node14&#45;&gt;node16 -->
<g id="edge23" class="edge">
<title>node14&#45;&gt;node16</title>
<path fill="none" stroke="black" stroke-dasharray="1,5" d="M221.35,-145.81C216.75,-137.44 211.12,-127.2 206.02,-117.9"/>
<polygon fill="black" stroke="black" points="209.03,-116.11 201.15,-109.03 202.89,-119.48 209.03,-116.11"/>
</g>
<!-- node13&#45;&gt;node14 -->
<g id="edge10" class="edge">
<title>node13&#45;&gt;node14</title>
<path fill="none" stroke="black" d="M250.11,-218.81C243.66,-210.62 237.44,-200.62 232.98,-191.48"/>
<polygon fill="black" stroke="black" points="236.08,-189.83 228.9,-182.03 229.65,-192.6 236.08,-189.83"/>
<text text-anchor="middle" x="243.84" y="-191.63" font-family="Times,serif" font-size="14.00">*0</text>
</g>
<!-- node13&#45;&gt;node14 -->
<g id="edge12" class="edge">
<title>node13&#45;&gt;node14</title>
<path fill="none" stroke="green" d="M261.87,-218.81C257.03,-210.44 251.12,-200.2 245.75,-190.9"/>
<polygon fill="green" stroke="green" points="248.66,-188.94 240.62,-182.03 242.59,-192.44 248.66,-188.94"/>
</g>
<!-- node13&#45;&gt;node14 -->
<g id="edge13" class="edge">
<title>node13&#45;&gt;node14</title>
<path fill="none" stroke="red" d="M273.62,-218.81C270.48,-210.27 264.83,-199.77 258.41,-190.32"/>
<polygon fill="red" stroke="red" points="261.07,-188.04 252.35,-182.03 255.42,-192.17 261.07,-188.04"/>
</g>
<!-- node5&#45;&gt;node6 -->
<g id="edge26" class="edge">
<title>node5&#45;&gt;node6</title>
<path fill="none" stroke="black" d="M237.1,-458.46C258.15,-448.36 286.56,-434.73 310.19,-423.4"/>
<polygon fill="black" stroke="black" points="311.81,-426.5 319.32,-419.02 308.79,-420.19 311.81,-426.5"/>
<text text-anchor="middle" x="306.63" y="-430.78" font-family="Times,serif" font-size="14.00">*0</text>
</g>
<!-- node5&#45;&gt;node14 -->
<g id="edge11" class="edge">
<title>node5&#45;&gt;node14</title>
<path fill="none" stroke="black" d="M165.6,-462.07C137.29,-451.78 104.79,-433.18 104.79,-402 104.79,-402 104.79,-402 104.79,-236 104.79,-212.6 121.49,-196.83 142.72,-186.23"/>
<polygon fill="black" stroke="black" points="144.4,-189.32 152.07,-182 141.51,-182.94 144.4,-189.32"/>
<text text-anchor="middle" x="139.04" y="-193.48" font-family="Times,serif" font-size="14.00">*1</text>
</g>
<!-- node17 -->
<g id="node14" class="node">
<title>node17</title>
<polygon fill="orange" stroke="black" points="157.37,-10.54 157.37,-25.46 111.34,-36 46.24,-36 0.21,-25.46 0.21,-10.54 46.24,0 111.34,0 157.37,-10.54"/>
<text text-anchor="middle" x="78.79" y="-14.3" font-family="Times,serif" font-size="14.00">#17 Add : int</text>
</g>
<!-- node5&#45;&gt;node17 -->
<g id="edge21" class="edge">
<title>node5&#45;&gt;node17</title>
<path fill="none" stroke="black" d="M152.26,-467.13C112.95,-459.53 66.79,-442.06 66.79,-402 66.79,-402 66.79,-402 66.79,-90 66.79,-75.3 69.32,-59.13 72.06,-45.94"/>
<polygon fill="black" stroke="black" points="75.5,-46.6 74.25,-36.08 68.66,-45.08 75.5,-46.6"/>
<text text-anchor="middle" x="78.56" y="-51.91" font-family="Times,serif" font-size="14.00">*0</text>
</g>
<!-- node12&#45;&gt;node13 -->
<g id="edge14" class="edge">
<title>node12&#45;&gt;node13</title>
<path fill="none" stroke="black" d="M336.78,-300.64C325.06,-289.35 309.62,-274.46 296.73,-262.04"/>
<polygon fill="black" stroke="black" points="299.11,-259.47 289.48,-255.05 294.25,-264.51 299.11,-259.47"/>
<text text-anchor="middle" x="308.4" y="-257.84" font-family="Times,serif" font-size="14.00">*0</text>
</g>
<!-- node4&#45;&gt;node5 -->
<g id="edge19" class="edge">
<title>node4&#45;&gt;node5</title>
<path fill="none" stroke="blue" d="M296.07,-474C287.79,-474 279.52,-474 271.24,-474"/>
<polygon fill="blue" stroke="blue" points="271.15,-470.5 261.15,-474 271.15,-477.5 271.15,-470.5"/>
<text text-anchor="middle" x="279.28" y="-461.85" font-family="Times,serif" font-size="14.00">if #2</text>
</g>
<!-- node17&#45;&gt;node5 -->
<g id="edge20" class="edge">
<title>node17&#45;&gt;node5</title>
<path fill="none" stroke="blue" stroke-dasharray="5,2" d="M157.47,-20.33C329.31,-25.07 729.39,-46.76 811.79,-146 877.6,-225.26 693.55,-202.9 591.79,-219 569.75,-222.49 211.07,-274.85 196.79,-292 160.48,-335.64 180.3,-407.64 195.18,-446.37"/>
<polygon fill="blue" stroke="blue" points="192.04,-447.94 199.01,-455.92 198.54,-445.33 192.04,-447.94"/>
<text text-anchor="middle" x="184.42" y="-438.54" font-family="Times,serif" font-size="14.00">if #15</text>
</g>
<!-- node16&#45;&gt;node17 -->
<g id="edge22" class="edge">
<title>node16&#45;&gt;node17</title>
<path fill="none" stroke="black" d="M165.3,-73.35C150.22,-63.88 131.12,-51.88 114.7,-41.56"/>
<polygon fill="black" stroke="black" points="116.23,-38.39 105.9,-36.04 112.51,-44.32 116.23,-38.39"/>
<text text-anchor="middle" x="125.75" y="-34.82" font-family="Times,serif" font-size="14.00">*1</text>
</g>
<!-- c0 -->
<!-- c1 -->
<!-- c0&#45;&gt;c1 -->
<g id="edge28" class="edge">
<title>c0&#45;&gt;c1</title>
<path fill="none" stroke="red" d="M1361.68,-629C1372.9,-629 1431.03,-629 1456.65,-629"/>
<polygon fill="red" stroke="red" points="1456.85,-632.5 1466.85,-629 1456.85,-625.5 1456.85,-632.5"/>
<text text-anchor="middle" x="1414.29" y="-635.8" font-family="Times,serif" font-size="14.00">Control flow</text>
</g>
<!-- c2 -->
<!-- c3 -->
<!-- c2&#45;&gt;c3 -->
<g id="edge29" class="edge">
<title>c2&#45;&gt;c3</title>
<path fill="none" stroke="red" stroke-dasharray="5,2" d="M1154.87,-629C1171.84,-629 1288,-629 1325.88,-629"/>
<polygon fill="red" stroke="red" points="1325.96,-632.5 1335.96,-629 1325.96,-625.5 1325.96,-632.5"/>
<text text-anchor="middle" x="1245.29" y="-635.8" font-family="Times,serif" font-size="14.00">Control flow back edge</text>
</g>
<!-- d0 -->
<!-- d1 -->
<!-- d0&#45;&gt;d1 -->
<g id="edge30" class="edge">
<title>d0&#45;&gt;d1</title>
<path fill="none" stroke="black" d="M1043.65,-629C1053.2,-629 1097.1,-629 1118.71,-629"/>
<polygon fill="black" stroke="black" points="1118.94,-632.5 1128.94,-629 1118.94,-625.5 1118.94,-632.5"/>
<text text-anchor="middle" x="1086.29" y="-635.8" font-family="Times,serif" font-size="14.00">Data flow</text>
</g>
<!-- d2 -->
<!-- d3 -->
<!-- d2&#45;&gt;d3 -->
<g id="edge31" class="edge">
<title>d2&#45;&gt;d3</title>
<path fill="none" stroke="black" stroke-dasharray="1,5" d="M917.6,-629C928.25,-629 983.26,-629 1007.87,-629"/>
<polygon fill="black" stroke="black" points="1007.94,-632.5 1017.94,-629 1007.94,-625.5 1007.94,-632.5"/>
<text text-anchor="middle" x="967.79" y="-635.8" font-family="Times,serif" font-size="14.00">Declaration</text>
</g>
<!-- d4 -->
<!-- d5 -->
<!-- d4&#45;&gt;d5 -->
<g id="edge32" class="edge">
<title>d4&#45;&gt;d5</title>
<path fill="none" stroke="blue" d="M774.89,-629C787.51,-629 853.67,-629 881.47,-629"/>
<polygon fill="blue" stroke="blue" points="881.63,-632.5 891.63,-629 881.63,-625.5 881.63,-632.5"/>
<text text-anchor="middle" x="833.29" y="-635.8" font-family="Times,serif" font-size="14.00">PHI Data flow</text>
</g>
<!-- d6 -->
<!-- d7 -->
<!-- d6&#45;&gt;d7 -->
<g id="edge33" class="edge">
<title>d6&#45;&gt;d7</title>
<path fill="none" stroke="green" d="M637.79,-629C649.73,-629 712.09,-629 738.72,-629"/>
<polygon fill="green" stroke="green" points="738.74,-632.5 748.74,-629 738.74,-625.5 738.74,-632.5"/>
<text text-anchor="middle" x="693.29" y="-635.8" font-family="Times,serif" font-size="14.00">Memory flow</text>
</g>
</g>
</svg>
