<?xml version="1.0" encoding="UTF-8" standalone="no"?>
<!DOCTYPE svg PUBLIC "-//W3C//DTD SVG 1.1//EN"
 "http://www.w3.org/Graphics/SVG/1.1/DTD/svg11.dtd">
<!-- Generated by graphviz version 2.43.0 (0)
 -->
<!-- Title: debugoutput Pages: 1 -->
<svg width="916pt" height="578pt"
 viewBox="0.00 0.00 916.00 577.80" xmlns="http://www.w3.org/2000/svg" xmlns:xlink="http://www.w3.org/1999/xlink">
<g id="graph0" class="graph" transform="scale(1 1) rotate(0) translate(4 573.8)">
<title>debugoutput</title>
<polygon fill="white" stroke="transparent" points="-4,4 -4,-573.8 912,-573.8 912,4 -4,4"/>
<g id="clust1" class="cluster">
<title>cluster_000</title>
<polygon fill="none" stroke="black" points="564,-519.2 564,-561.8 900,-561.8 900,-519.2 564,-519.2"/>
<text text-anchor="middle" x="732" y="-546.6" font-family="Times,serif" font-size="14.00">Legend</text>
</g>
<!-- node0 -->
<g id="node1" class="node">
<title>node0</title>
<polygon fill="lightgrey" stroke="black" points="554,-547 388,-547 388,-511 554,-511 554,-547"/>
<text text-anchor="middle" x="471" y="-525.3" font-family="Times,serif" font-size="14.00">#0 Method Order : 0</text>
</g>
<!-- node1 -->
<g id="node2" class="node">
<title>node1</title>
<polygon fill="lightgrey" stroke="black" points="565,-474 377,-474 377,-438 565,-438 565,-474"/>
<text text-anchor="middle" x="471" y="-452.3" font-family="Times,serif" font-size="14.00">#1 LabelNode Order : 1</text>
</g>
<!-- node0&#45;&gt;node1 -->
<g id="edge2" class="edge">
<title>node0&#45;&gt;node1</title>
<path fill="none" stroke="red" d="M465.12,-510.81C464.28,-502.79 464.05,-493.05 464.42,-484.07"/>
<polygon fill="red" stroke="red" points="467.92,-484.25 465.14,-474.03 460.94,-483.75 467.92,-484.25"/>
</g>
<!-- node1&#45;&gt;node0 -->
<g id="edge1" class="edge">
<title>node1&#45;&gt;node0</title>
<path fill="none" stroke="green" stroke-width="2" d="M476.86,-474.03C477.71,-482.03 477.95,-491.77 477.59,-500.75"/>
<polygon fill="green" stroke="green" stroke-width="2" points="474.09,-500.59 476.88,-510.81 481.07,-501.08 474.09,-500.59"/>
</g>
<!-- node2 -->
<g id="node3" class="node">
<title>node2</title>
<polygon fill="lightgrey" stroke="black" points="598.5,-401 343.5,-401 343.5,-365 598.5,-365 598.5,-401"/>
<text text-anchor="middle" x="471" y="-379.3" font-family="Times,serif" font-size="14.00">#2 LoopHeader : Loop6 Order : 2</text>
</g>
<!-- node1&#45;&gt;node2 -->
<g id="edge4" class="edge">
<title>node1&#45;&gt;node2</title>
<path fill="none" stroke="red" d="M465.12,-437.81C464.28,-429.79 464.05,-420.05 464.42,-411.07"/>
<polygon fill="red" stroke="red" points="467.92,-411.25 465.14,-401.03 460.94,-410.75 467.92,-411.25"/>
</g>
<!-- node2&#45;&gt;node1 -->
<g id="edge3" class="edge">
<title>node2&#45;&gt;node1</title>
<path fill="none" stroke="green" stroke-width="2" d="M476.86,-401.03C477.71,-409.03 477.95,-418.77 477.59,-427.75"/>
<polygon fill="green" stroke="green" stroke-width="2" points="474.09,-427.59 476.88,-437.81 481.07,-428.08 474.09,-427.59"/>
</g>
<!-- node3 -->
<g id="node5" class="node">
<title>node3</title>
<polygon fill="lightgrey" stroke="black" points="532,-328 410,-328 410,-292 532,-292 532,-328"/>
<text text-anchor="middle" x="471" y="-306.3" font-family="Times,serif" font-size="14.00">#3 If Order : 3</text>
</g>
<!-- node2&#45;&gt;node3 -->
<g id="edge7" class="edge">
<title>node2&#45;&gt;node3</title>
<path fill="none" stroke="red" d="M465.12,-364.81C464.28,-356.79 464.05,-347.05 464.42,-338.07"/>
<polygon fill="red" stroke="red" points="467.92,-338.25 465.14,-328.03 460.94,-337.75 467.92,-338.25"/>
</g>
<!-- node10 -->
<g id="node4" class="node">
<title>node10</title>
<polygon fill="lightgrey" stroke="black" points="243,-36 89,-36 89,0 243,0 243,-36"/>
<text text-anchor="middle" x="166" y="-14.3" font-family="Times,serif" font-size="14.00">#10 Goto Order : 7</text>
</g>
<!-- node10&#45;&gt;node2 -->
<g id="edge5" class="edge">
<title>node10&#45;&gt;node2</title>
<path fill="none" stroke="red" stroke-dasharray="5,2" d="M243.01,-23.3C372.54,-31.57 620,-52.31 620,-90 620,-311 620,-311 620,-311 620,-334.44 604.78,-350.15 584.07,-360.68"/>
<polygon fill="red" stroke="red" points="582.53,-357.54 574.89,-364.88 585.44,-363.9 582.53,-357.54"/>
</g>
<!-- node9 -->
<g id="node11" class="node">
<title>node9</title>
<polygon fill="lightgrey" stroke="black" points="332,-109 0,-109 0,-73 332,-73 332,-109"/>
<text text-anchor="middle" x="166" y="-87.3" font-family="Times,serif" font-size="14.00">#9 Invoke static compute : (int)int Order : 6</text>
</g>
<!-- node10&#45;&gt;node9 -->
<g id="edge20" class="edge">
<title>node10&#45;&gt;node9</title>
<path fill="none" stroke="green" stroke-width="2" d="M171.86,-36.03C172.71,-44.03 172.95,-53.77 172.59,-62.75"/>
<polygon fill="green" stroke="green" stroke-width="2" points="169.09,-62.59 171.88,-72.81 176.07,-63.08 169.09,-62.59"/>
</g>
<!-- node3&#45;&gt;node2 -->
<g id="edge6" class="edge">
<title>node3&#45;&gt;node2</title>
<path fill="none" stroke="green" stroke-width="2" d="M476.86,-328.03C477.71,-336.03 477.95,-345.77 477.59,-354.75"/>
<polygon fill="green" stroke="green" stroke-width="2" points="474.09,-354.59 476.88,-364.81 481.07,-355.08 474.09,-354.59"/>
</g>
<!-- node4 -->
<g id="node6" class="node">
<title>node4</title>
<polygon fill="lightgrey" stroke="black" points="541.5,-255 400.5,-255 400.5,-219 541.5,-219 541.5,-255"/>
<text text-anchor="middle" x="471" y="-233.3" font-family="Times,serif" font-size="14.00">#4 true Order : 8</text>
</g>
<!-- node3&#45;&gt;node4 -->
<g id="edge9" class="edge">
<title>node3&#45;&gt;node4</title>
<path fill="none" stroke="red" d="M465.12,-291.81C464.28,-283.79 464.05,-274.05 464.42,-265.07"/>
<polygon fill="red" stroke="red" points="467.92,-265.25 465.14,-255.03 460.94,-264.75 467.92,-265.25"/>
</g>
<!-- node5 -->
<g id="node7" class="node">
<title>node5</title>
<polygon fill="lightgrey" stroke="black" points="360.5,-255 215.5,-255 215.5,-219 360.5,-219 360.5,-255"/>
<text text-anchor="middle" x="288" y="-233.3" font-family="Times,serif" font-size="14.00">#5 false Order : 4</text>
</g>
<!-- node3&#45;&gt;node5 -->
<g id="edge11" class="edge">
<title>node3&#45;&gt;node5</title>
<path fill="none" stroke="red" d="M421.31,-291.99C394.64,-282.06 361.99,-269.43 335.64,-258.89"/>
<polygon fill="red" stroke="red" points="336.82,-255.6 326.24,-255.11 334.21,-262.09 336.82,-255.6"/>
</g>
<!-- node4&#45;&gt;node3 -->
<g id="edge8" class="edge">
<title>node4&#45;&gt;node3</title>
<path fill="none" stroke="green" stroke-width="2" d="M476.86,-255.03C477.71,-263.03 477.95,-272.77 477.59,-281.75"/>
<polygon fill="green" stroke="green" stroke-width="2" points="474.09,-281.59 476.88,-291.81 481.07,-282.08 474.09,-281.59"/>
</g>
<!-- node6 -->
<g id="node8" class="node">
<title>node6</title>
<polygon fill="lightgrey" stroke="black" points="565,-182 377,-182 377,-146 565,-146 565,-182"/>
<text text-anchor="middle" x="471" y="-160.3" font-family="Times,serif" font-size="14.00">#6 LabelNode Order : 9</text>
</g>
<!-- node4&#45;&gt;node6 -->
<g id="edge13" class="edge">
<title>node4&#45;&gt;node6</title>
<path fill="none" stroke="red" d="M465.12,-218.81C464.28,-210.79 464.05,-201.05 464.42,-192.07"/>
<polygon fill="red" stroke="red" points="467.92,-192.25 465.14,-182.03 460.94,-191.75 467.92,-192.25"/>
</g>
<!-- node5&#45;&gt;node3 -->
<g id="edge10" class="edge">
<title>node5&#45;&gt;node3</title>
<path fill="none" stroke="green" stroke-width="2" d="M337.98,-255.11C364.69,-265.07 397.34,-277.69 423.64,-288.22"/>
<polygon fill="green" stroke="green" stroke-width="2" points="422.44,-291.51 433.03,-291.99 425.06,-285.01 422.44,-291.51"/>
</g>
<!-- node7 -->
<g id="node9" class="node">
<title>node7</title>
<polygon fill="lightgrey" stroke="black" points="333,-182 159,-182 159,-146 333,-146 333,-182"/>
<text text-anchor="middle" x="246" y="-160.3" font-family="Times,serif" font-size="14.00">#7 ClassInit Order : 5</text>
</g>
<!-- node5&#45;&gt;node7 -->
<g id="edge15" class="edge">
<title>node5&#45;&gt;node7</title>
<path fill="none" stroke="red" d="M271.95,-218.81C266.19,-210.53 259.98,-200.41 254.96,-191.19"/>
<polygon fill="red" stroke="red" points="257.92,-189.3 250.21,-182.03 251.7,-192.52 257.92,-189.3"/>
</g>
<!-- node6&#45;&gt;node4 -->
<g id="edge12" class="edge">
<title>node6&#45;&gt;node4</title>
<path fill="none" stroke="green" stroke-width="2" d="M476.86,-182.03C477.71,-190.03 477.95,-199.77 477.59,-208.75"/>
<polygon fill="green" stroke="green" stroke-width="2" points="474.09,-208.59 476.88,-218.81 481.07,-209.08 474.09,-208.59"/>
</g>
<!-- node8 -->
<g id="node10" class="node">
<title>node8</title>
<polygon fill="lightgrey" stroke="black" points="592,-109 350,-109 350,-73 592,-73 592,-109"/>
<text text-anchor="middle" x="471" y="-87.3" font-family="Times,serif" font-size="14.00">#8 ReturnValue : int Order : 10</text>
</g>
<!-- node6&#45;&gt;node8 -->
<g id="edge17" class="edge">
<title>node6&#45;&gt;node8</title>
<path fill="none" stroke="red" d="M465.12,-145.81C464.28,-137.79 464.05,-128.05 464.42,-119.07"/>
<polygon fill="red" stroke="red" points="467.92,-119.25 465.14,-109.03 460.94,-118.75 467.92,-119.25"/>
</g>
<!-- node7&#45;&gt;node5 -->
<g id="edge14" class="edge">
<title>node7&#45;&gt;node5</title>
<path fill="none" stroke="green" stroke-width="2" d="M261.93,-182.03C267.76,-190.38 274.04,-200.61 279.11,-209.92"/>
<polygon fill="green" stroke="green" stroke-width="2" points="276.01,-211.54 283.71,-218.81 282.22,-208.32 276.01,-211.54"/>
</g>
<!-- node7&#45;&gt;node9 -->
<g id="edge19" class="edge">
<title>node7&#45;&gt;node9</title>
<path fill="none" stroke="red" d="M220.76,-145.81C209.8,-136.92 197.21,-125.91 186.8,-116.17"/>
<polygon fill="red" stroke="red" points="188.97,-113.41 179.33,-109.03 184.14,-118.47 188.97,-113.41"/>
</g>
<!-- node8&#45;&gt;node6 -->
<g id="edge16" class="edge">
<title>node8&#45;&gt;node6</title>
<path fill="none" stroke="green" stroke-width="2" d="M476.86,-109.03C477.71,-117.03 477.95,-126.77 477.59,-135.75"/>
<polygon fill="green" stroke="green" stroke-width="2" points="474.09,-135.59 476.88,-145.81 481.07,-136.08 474.09,-135.59"/>
</g>
<!-- node9&#45;&gt;node10 -->
<g id="edge21" class="edge">
<title>node9&#45;&gt;node10</title>
<path fill="none" stroke="red" d="M160.12,-72.81C159.28,-64.79 159.05,-55.05 159.42,-46.07"/>
<polygon fill="red" stroke="red" points="162.92,-46.25 160.14,-36.03 155.94,-45.75 162.92,-46.25"/>
</g>
<!-- node9&#45;&gt;node7 -->
<g id="edge18" class="edge">
<title>node9&#45;&gt;node7</title>
<path fill="none" stroke="green" stroke-width="2" d="M191.05,-109.03C201.98,-117.9 214.58,-128.9 225.01,-138.65"/>
<polygon fill="green" stroke="green" stroke-width="2" points="222.86,-141.44 232.51,-145.81 227.7,-136.38 222.86,-141.44"/>
</g>
<!-- c0 -->
<!-- c1 -->
<!-- c0&#45;&gt;c1 -->
<g id="edge22" class="edge">
<title>c0&#45;&gt;c1</title>
<path fill="none" stroke="red" d="M782.89,-529C794.11,-529 852.24,-529 877.86,-529"/>
<polygon fill="red" stroke="red" points="878.06,-532.5 888.06,-529 878.06,-525.5 878.06,-532.5"/>
<text text-anchor="middle" x="835.5" y="-535.8" font-family="Times,serif" font-size="14.00">Control flow</text>
</g>
<!-- c2 -->
<!-- c3 -->
<!-- c2&#45;&gt;c3 -->
<g id="edge23" class="edge">
<title>c2&#45;&gt;c3</title>
<path fill="none" stroke="red" stroke-dasharray="5,2" d="M576.08,-529C593.05,-529 709.21,-529 747.08,-529"/>
<polygon fill="red" stroke="red" points="747.17,-532.5 757.17,-529 747.17,-525.5 747.17,-532.5"/>
<text text-anchor="middle" x="666.5" y="-535.8" font-family="Times,serif" font-size="14.00">Control flow back edge</text>
</g>
</g>
</svg>
