<?xml version="1.0" encoding="UTF-8" standalone="no"?>
<!DOCTYPE svg PUBLIC "-//W3C//DTD SVG 1.1//EN"
 "http://www.w3.org/Graphics/SVG/1.1/DTD/svg11.dtd">
<!-- Generated by graphviz version 2.43.0 (0)
 -->
<!-- Title: debugoutput Pages: 1 -->
<svg width="1829pt" height="797pt"
 viewBox="0.00 0.00 1828.50 796.80" xmlns="http://www.w3.org/2000/svg" xmlns:xlink="http://www.w3.org/1999/xlink">
<g id="graph0" class="graph" transform="scale(1 1) rotate(0) translate(4 792.8)">
<title>debugoutput</title>
<polygon fill="white" stroke="transparent" points="-4,4 -4,-792.8 1824.5,-792.8 1824.5,4 -4,4"/>
<g id="clust1" class="cluster">
<title>cluster_000</title>
<polygon fill="none" stroke="black" points="836.5,-738.2 836.5,-780.8 1812.5,-780.8 1812.5,-738.2 836.5,-738.2"/>
<text text-anchor="middle" x="1324.5" y="-765.6" font-family="Times,serif" font-size="14.00">Legend</text>
</g>
<!-- node0 -->
<g id="node1" class="node">
<title>node0</title>
<polygon fill="lightgrey" stroke="black" points="826.5,-766 660.5,-766 660.5,-730 826.5,-730 826.5,-766"/>
<text text-anchor="middle" x="743.5" y="-744.3" font-family="Times,serif" font-size="14.00">#0 Method Order : 0</text>
</g>
<!-- node1 -->
<g id="node2" class="node">
<title>node1</title>
<polygon fill="lightgrey" stroke="black" points="911,-693 734,-693 734,-657 911,-657 911,-693"/>
<text text-anchor="middle" x="822.5" y="-671.3" font-family="Times,serif" font-size="14.00">#1 arg0 : int Order : 4</text>
</g>
<!-- node0&#45;&gt;node1 -->
<g id="edge2" class="edge">
<title>node0&#45;&gt;node1</title>
<path fill="none" stroke="black" d="M756.75,-729.81C765.89,-720.74 778.25,-709.48 789.84,-699.6"/>
<polygon fill="black" stroke="black" points="792.27,-702.13 797.69,-693.03 787.78,-696.76 792.27,-702.13"/>
<text text-anchor="middle" x="789.22" y="-707.44" font-family="Times,serif" font-size="14.00">*0</text>
</g>
<!-- node2 -->
<g id="node3" class="node">
<title>node2</title>
<polygon fill="lightgrey" stroke="black" points="419.5,-693 231.5,-693 231.5,-657 419.5,-657 419.5,-693"/>
<text text-anchor="middle" x="325.5" y="-671.3" font-family="Times,serif" font-size="14.00">#2 LabelNode Order : 1</text>
</g>
<!-- node0&#45;&gt;node2 -->
<g id="edge4" class="edge">
<title>node0&#45;&gt;node2</title>
<path fill="none" stroke="red" d="M660.32,-739.68C603.81,-733.78 527.72,-724.42 461.5,-712 437.52,-707.5 411.58,-701.45 388.81,-695.59"/>
<polygon fill="red" stroke="red" points="389.48,-692.15 378.92,-693.01 387.71,-698.92 389.48,-692.15"/>
</g>
<!-- node11 -->
<g id="node14" class="node">
<title>node11</title>
<polygon fill="lightgrey" stroke="black" points="1090,-255 839,-255 839,-219 1090,-219 1090,-255"/>
<text text-anchor="middle" x="964.5" y="-233.3" font-family="Times,serif" font-size="14.00">#11 ReturnValue : int Order : 16</text>
</g>
<!-- node0&#45;&gt;node11 -->
<g id="edge29" class="edge">
<title>node0&#45;&gt;node11</title>
<path fill="none" stroke="green" d="M822.03,-729.95C846.59,-724.65 873.72,-718.49 898.5,-712 925.97,-704.81 935.69,-708.48 959.5,-693 1020.43,-653.39 1062.5,-638.67 1062.5,-566 1062.5,-566 1062.5,-566 1062.5,-346 1062.5,-308.21 1029.03,-278.9 1001.1,-260.42"/>
<polygon fill="green" stroke="green" points="1002.96,-257.46 992.65,-255.03 999.2,-263.36 1002.96,-257.46"/>
</g>
<!-- node13 -->
<g id="node16" class="node">
<title>node13</title>
<polygon fill="lightgrey" stroke="black" points="722,-255 539,-255 539,-219 722,-219 722,-255"/>
<text text-anchor="middle" x="630.5" y="-233.3" font-family="Times,serif" font-size="14.00">#13 ClassInit Order : 5</text>
</g>
<!-- node0&#45;&gt;node13 -->
<g id="edge34" class="edge">
<title>node0&#45;&gt;node13</title>
<path fill="none" stroke="green" d="M824.25,-729.93C852.94,-721.73 884.5,-709.89 910.5,-693 969.83,-654.45 1006.5,-636.76 1006.5,-566 1006.5,-566 1006.5,-566 1006.5,-346 1006.5,-288.22 843.69,-259.91 732.29,-247.19"/>
<polygon fill="green" stroke="green" points="732.68,-243.71 722.35,-246.08 731.9,-250.66 732.68,-243.71"/>
</g>
<!-- node1&#45;&gt;node0 -->
<g id="edge1" class="edge">
<title>node1&#45;&gt;node0</title>
<path fill="none" stroke="fuchsia" stroke-width="2" d="M809.41,-693.03C800.31,-702.07 787.96,-713.33 776.36,-723.23"/>
<polygon fill="fuchsia" stroke="fuchsia" stroke-width="2" points="773.92,-720.71 768.5,-729.81 778.42,-726.07 773.92,-720.71"/>
</g>
<!-- node6 -->
<g id="node9" class="node">
<title>node6</title>
<polygon fill="orange" stroke="black" points="740.9,-521.54 740.9,-536.46 622.92,-547 456.08,-547 338.1,-536.46 338.1,-521.54 456.08,-511 622.92,-511 740.9,-521.54"/>
<text text-anchor="middle" x="539.5" y="-525.3" font-family="Times,serif" font-size="14.00">#6 NumericCondition : GE Order : 10</text>
</g>
<!-- node1&#45;&gt;node6 -->
<g id="edge16" class="edge">
<title>node1&#45;&gt;node6</title>
<path fill="none" stroke="black" d="M795.52,-656.98C758.98,-634.31 691.31,-593.76 630.5,-565 619.97,-560.02 608.52,-555.19 597.41,-550.78"/>
<polygon fill="black" stroke="black" points="598.35,-547.39 587.76,-547.03 595.81,-553.92 598.35,-547.39"/>
<text text-anchor="middle" x="607.72" y="-542.02" font-family="Times,serif" font-size="14.00">*1</text>
</g>
<!-- node1&#45;&gt;node11 -->
<g id="edge27" class="edge">
<title>node1&#45;&gt;node11</title>
<path fill="none" stroke="black" d="M911.22,-661.18C941.79,-651.31 968.5,-633.86 968.5,-603 968.5,-603 968.5,-603 968.5,-309 968.5,-294.63 967.67,-278.65 966.77,-265.49"/>
<polygon fill="black" stroke="black" points="970.24,-264.92 966.01,-255.2 963.26,-265.43 970.24,-264.92"/>
<text text-anchor="middle" x="975.77" y="-268.96" font-family="Times,serif" font-size="14.00">*0</text>
</g>
<!-- node2&#45;&gt;node0 -->
<g id="edge3" class="edge">
<title>node2&#45;&gt;node0</title>
<path fill="none" stroke="fuchsia" stroke-width="2" d="M395.57,-693.01C421.86,-699.62 451.97,-706.84 479.5,-712 535.97,-722.59 599.61,-730.96 650.31,-736.85"/>
<polygon fill="fuchsia" stroke="fuchsia" stroke-width="2" points="649.93,-740.33 660.27,-737.99 650.73,-733.37 649.93,-740.33"/>
</g>
<!-- node3 -->
<g id="node4" class="node">
<title>node3</title>
<polygon fill="lightgrey" stroke="black" points="255,-36 0,-36 0,0 255,0 255,-36"/>
<text text-anchor="middle" x="127.5" y="-14.3" font-family="Times,serif" font-size="14.00">#3 LoopHeader : Loop6 Order : 3</text>
</g>
<!-- node2&#45;&gt;node3 -->
<g id="edge6" class="edge">
<title>node2&#45;&gt;node3</title>
<path fill="none" stroke="red" d="M326.01,-656.93C325.65,-636.73 321.86,-603.42 302.5,-584 290.91,-572.38 173.27,-555.94 159.5,-547 133.77,-530.3 116.5,-523.68 116.5,-493 116.5,-493 116.5,-493 116.5,-90 116.5,-75.33 118.82,-59.16 121.33,-45.97"/>
<polygon fill="red" stroke="red" points="124.77,-46.6 123.34,-36.1 117.91,-45.2 124.77,-46.6"/>
</g>
<!-- node4 -->
<g id="node6" class="node">
<title>node4</title>
<polygon fill="lightgreen" stroke="black" points="293.61,-594.54 293.61,-609.46 234.38,-620 150.62,-620 91.39,-609.46 91.39,-594.54 150.62,-584 234.38,-584 293.61,-594.54"/>
<text text-anchor="middle" x="192.5" y="-598.3" font-family="Times,serif" font-size="14.00">#4 int 0 Order : 2</text>
</g>
<!-- node2&#45;&gt;node4 -->
<g id="edge9" class="edge">
<title>node2&#45;&gt;node4</title>
<path fill="none" stroke="black" stroke-dasharray="1,5" d="M287.78,-656.99C268.8,-647.4 246.01,-635.32 227.43,-625.01"/>
<polygon fill="black" stroke="black" points="229.12,-621.94 218.69,-620.11 225.7,-628.05 229.12,-621.94"/>
</g>
<!-- node5 -->
<g id="node7" class="node">
<title>node5</title>
<polygon fill="orange" stroke="black" points="555.42,-594.54 555.42,-609.46 495.13,-620 409.87,-620 349.58,-609.46 349.58,-594.54 409.87,-584 495.13,-584 555.42,-594.54"/>
<text text-anchor="middle" x="452.5" y="-598.3" font-family="Times,serif" font-size="14.00">#5 Φ int Order : 9</text>
</g>
<!-- node2&#45;&gt;node5 -->
<g id="edge11" class="edge">
<title>node2&#45;&gt;node5</title>
<path fill="none" stroke="black" stroke-dasharray="1,5" d="M355.92,-656.99C373.07,-647.4 394.69,-635.32 413.13,-625.01"/>
<polygon fill="black" stroke="black" points="414.87,-628.05 421.89,-620.11 411.45,-621.94 414.87,-628.05"/>
</g>
<!-- node3&#45;&gt;node0 -->
<g id="edge5" class="edge">
<title>node3&#45;&gt;node0</title>
<path fill="none" stroke="fuchsia" stroke-width="2" d="M98.87,-36.02C81.83,-48.53 63.5,-67.26 63.5,-90 63.5,-676 63.5,-676 63.5,-676 63.5,-734.31 464.18,-744.94 650.4,-746.73"/>
<polygon fill="fuchsia" stroke="fuchsia" stroke-width="2" points="650.43,-750.23 660.46,-746.82 650.49,-743.23 650.43,-750.23"/>
</g>
<!-- node7 -->
<g id="node10" class="node">
<title>node7</title>
<polygon fill="lightgrey" stroke="black" points="614,-474 483,-474 483,-438 614,-438 614,-474"/>
<text text-anchor="middle" x="548.5" y="-452.3" font-family="Times,serif" font-size="14.00">#7 If Order : 11</text>
</g>
<!-- node3&#45;&gt;node7 -->
<g id="edge19" class="edge">
<title>node3&#45;&gt;node7</title>
<path fill="none" stroke="red" d="M142.34,-36.12C174.65,-75.23 248.5,-175.31 248.5,-273 248.5,-384 248.5,-384 248.5,-384 248.5,-430 383.73,-446.23 472.61,-451.94"/>
<polygon fill="red" stroke="red" points="472.47,-455.44 482.66,-452.55 472.9,-448.45 472.47,-455.44"/>
</g>
<!-- node15 -->
<g id="node5" class="node">
<title>node15</title>
<polygon fill="lightgrey" stroke="black" points="505,-109 342,-109 342,-73 505,-73 505,-109"/>
<text text-anchor="middle" x="423.5" y="-87.3" font-family="Times,serif" font-size="14.00">#15 Goto Order : 17</text>
</g>
<!-- node15&#45;&gt;node3 -->
<g id="edge7" class="edge">
<title>node15&#45;&gt;node3</title>
<path fill="none" stroke="red" stroke-dasharray="5,2" d="M352.6,-72.99C309.18,-62.58 253.48,-49.22 208.34,-38.39"/>
<polygon fill="red" stroke="red" points="209.13,-34.98 198.59,-36.05 207.5,-41.79 209.13,-34.98"/>
</g>
<!-- node14 -->
<g id="node17" class="node">
<title>node14</title>
<polygon fill="lightgrey" stroke="black" points="801,-182 460,-182 460,-146 801,-146 801,-182"/>
<text text-anchor="middle" x="630.5" y="-160.3" font-family="Times,serif" font-size="14.00">#14 Invoke static compute : (int)int Order : 6</text>
</g>
<!-- node15&#45;&gt;node14 -->
<g id="edge41" class="edge">
<title>node15&#45;&gt;node14</title>
<path fill="none" stroke="fuchsia" stroke-width="2" d="M479.27,-109.11C509.74,-119.2 547.23,-132.03 577.3,-142.63"/>
<polygon fill="fuchsia" stroke="fuchsia" stroke-width="2" points="576.18,-145.95 586.78,-145.99 578.52,-139.35 576.18,-145.95"/>
</g>
<!-- node4&#45;&gt;node2 -->
<g id="edge8" class="edge">
<title>node4&#45;&gt;node2</title>
<path fill="none" stroke="fuchsia" stroke-width="2" d="M230.43,-620.11C249.44,-629.72 272.22,-641.81 290.77,-652.1"/>
<polygon fill="fuchsia" stroke="fuchsia" stroke-width="2" points="289.07,-655.16 299.5,-656.99 292.49,-649.05 289.07,-655.16"/>
</g>
<!-- node4&#45;&gt;node5 -->
<g id="edge12" class="edge">
<title>node4&#45;&gt;node5</title>
<path fill="none" stroke="blue" d="M293.81,-602C309.06,-602 324.32,-602 339.57,-602"/>
<polygon fill="blue" stroke="blue" points="339.6,-605.5 349.6,-602 339.6,-598.5 339.6,-605.5"/>
<text text-anchor="middle" x="331.47" y="-606.75" font-family="Times,serif" font-size="14.00">if #2</text>
</g>
<!-- node5&#45;&gt;node0 -->
<g id="edge10" class="edge">
<title>node5&#45;&gt;node0</title>
<path fill="none" stroke="fuchsia" stroke-width="2" d="M470.87,-620.05C497.74,-644.07 550.26,-687.67 602.5,-712 617.46,-718.97 633.98,-724.66 650.29,-729.27"/>
<polygon fill="fuchsia" stroke="fuchsia" stroke-width="2" points="649.83,-732.77 660.4,-732.01 651.66,-726.02 649.83,-732.77"/>
</g>
<!-- node17 -->
<g id="node8" class="node">
<title>node17</title>
<polygon fill="orange" stroke="black" points="757.66,-10.54 757.66,-25.46 683.17,-36 577.83,-36 503.34,-25.46 503.34,-10.54 577.83,0 683.17,0 757.66,-10.54"/>
<text text-anchor="middle" x="630.5" y="-14.3" font-family="Times,serif" font-size="14.00">#17 Add : int Order : 8</text>
</g>
<!-- node5&#45;&gt;node17 -->
<g id="edge46" class="edge">
<title>node5&#45;&gt;node17</title>
<path fill="none" stroke="black" d="M373.69,-590.32C285.34,-576.7 154.5,-552.25 154.5,-530 154.5,-530 154.5,-530 154.5,-236 154.5,-86.92 352.63,-39.99 493.28,-25.38"/>
<polygon fill="black" stroke="black" points="493.69,-28.85 503.3,-24.38 493,-21.89 493.69,-28.85"/>
<text text-anchor="middle" x="486.1" y="-30.88" font-family="Times,serif" font-size="14.00">*0</text>
</g>
<!-- node5&#45;&gt;node6 -->
<g id="edge15" class="edge">
<title>node5&#45;&gt;node6</title>
<path fill="none" stroke="black" d="M473.56,-583.81C484.67,-574.74 498.48,-563.48 510.58,-553.6"/>
<polygon fill="black" stroke="black" points="513.1,-556.06 518.63,-547.03 508.67,-550.64 513.1,-556.06"/>
<text text-anchor="middle" x="509.93" y="-561.34" font-family="Times,serif" font-size="14.00">*0</text>
</g>
<!-- node5&#45;&gt;node14 -->
<g id="edge38" class="edge">
<title>node5&#45;&gt;node14</title>
<path fill="none" stroke="black" d="M386.05,-588.05C314.41,-573.15 210.5,-548.36 210.5,-530 210.5,-530 210.5,-530 210.5,-273 210.5,-220.33 335.94,-192.98 449.71,-178.99"/>
<polygon fill="black" stroke="black" points="450.46,-182.43 459.97,-177.77 449.63,-175.48 450.46,-182.43"/>
<text text-anchor="middle" x="442.98" y="-184.61" font-family="Times,serif" font-size="14.00">*1</text>
</g>
<!-- node17&#45;&gt;node0 -->
<g id="edge45" class="edge">
<title>node17&#45;&gt;node0</title>
<path fill="none" stroke="fuchsia" stroke-width="2" d="M757.83,-23.85C913.5,-31.52 1156.5,-49.92 1156.5,-90 1156.5,-676 1156.5,-676 1156.5,-676 1156.5,-746.07 924.63,-722.71 837.01,-729.73"/>
<polygon fill="fuchsia" stroke="fuchsia" stroke-width="2" points="836.42,-726.27 826.83,-730.77 837.14,-733.23 836.42,-726.27"/>
</g>
<!-- node17&#45;&gt;node5 -->
<g id="edge13" class="edge">
<title>node17&#45;&gt;node5</title>
<path fill="none" stroke="blue" stroke-dasharray="5,2" d="M504.17,-25.61C368.56,-40.48 172.5,-87.7 172.5,-236 172.5,-530 172.5,-530 172.5,-530 172.5,-550.82 287.09,-573.57 369.71,-587.57"/>
<polygon fill="blue" stroke="blue" points="369.17,-591.03 379.61,-589.23 370.33,-584.12 369.17,-591.03"/>
<text text-anchor="middle" x="360.34" y="-590.87" font-family="Times,serif" font-size="14.00">if #15</text>
</g>
<!-- node6&#45;&gt;node0 -->
<g id="edge14" class="edge">
<title>node6&#45;&gt;node0</title>
<path fill="none" stroke="fuchsia" stroke-width="2" d="M551.45,-547.13C575.61,-581.03 633.03,-658.06 692.5,-712 697.15,-716.21 702.33,-720.33 707.56,-724.16"/>
<polygon fill="fuchsia" stroke="fuchsia" stroke-width="2" points="705.56,-727.04 715.74,-729.95 709.59,-721.32 705.56,-727.04"/>
</g>
<!-- node6&#45;&gt;node7 -->
<g id="edge18" class="edge">
<title>node6&#45;&gt;node7</title>
<path fill="none" stroke="black" d="M541.68,-510.81C542.7,-502.79 543.93,-493.05 545.07,-484.07"/>
<polygon fill="black" stroke="black" points="548.56,-484.39 546.34,-474.03 541.61,-483.51 548.56,-484.39"/>
<text text-anchor="middle" x="552.45" y="-489.37" font-family="Times,serif" font-size="14.00">*0</text>
</g>
<!-- node7&#45;&gt;node0 -->
<g id="edge17" class="edge">
<title>node7&#45;&gt;node0</title>
<path fill="none" stroke="fuchsia" stroke-width="2" d="M614.08,-465.92C666.17,-474.5 732.93,-489.39 749.5,-511 759.24,-523.7 751.22,-531.09 749.5,-547 742.45,-612.38 714.97,-628.09 725.5,-693 726.98,-702.11 729.78,-711.77 732.73,-720.36"/>
<polygon fill="fuchsia" stroke="fuchsia" stroke-width="2" points="729.48,-721.66 736.21,-729.85 736.06,-719.25 729.48,-721.66"/>
</g>
<!-- node8 -->
<g id="node11" class="node">
<title>node8</title>
<polygon fill="lightgrey" stroke="black" points="888.5,-401 738.5,-401 738.5,-365 888.5,-365 888.5,-401"/>
<text text-anchor="middle" x="813.5" y="-379.3" font-family="Times,serif" font-size="14.00">#8 true Order : 14</text>
</g>
<!-- node7&#45;&gt;node8 -->
<g id="edge21" class="edge">
<title>node7&#45;&gt;node8</title>
<path fill="none" stroke="red" d="M606.11,-437.99C643.58,-427.66 692.87,-414.43 734.02,-403.66"/>
<polygon fill="red" stroke="red" points="734.96,-407.03 743.75,-401.11 733.19,-400.25 734.96,-407.03"/>
</g>
<!-- node9 -->
<g id="node12" class="node">
<title>node9</title>
<polygon fill="lightgrey" stroke="black" points="625.5,-401 471.5,-401 471.5,-365 625.5,-365 625.5,-401"/>
<text text-anchor="middle" x="548.5" y="-379.3" font-family="Times,serif" font-size="14.00">#9 false Order : 12</text>
</g>
<!-- node7&#45;&gt;node9 -->
<g id="edge23" class="edge">
<title>node7&#45;&gt;node9</title>
<path fill="none" stroke="red" d="M542.62,-437.81C541.78,-429.79 541.55,-420.05 541.92,-411.07"/>
<polygon fill="red" stroke="red" points="545.42,-411.25 542.64,-401.03 538.44,-410.75 545.42,-411.25"/>
</g>
<!-- node8&#45;&gt;node7 -->
<g id="edge20" class="edge">
<title>node8&#45;&gt;node7</title>
<path fill="none" stroke="fuchsia" stroke-width="2" d="M755.62,-401.08C716.95,-411.74 665.77,-425.47 623.92,-436.4"/>
<polygon fill="fuchsia" stroke="fuchsia" stroke-width="2" points="622.85,-433.07 614.05,-438.98 624.61,-439.84 622.85,-433.07"/>
</g>
<!-- node10 -->
<g id="node13" class="node">
<title>node10</title>
<polygon fill="lightgrey" stroke="black" points="940.5,-328 734.5,-328 734.5,-292 940.5,-292 940.5,-328"/>
<text text-anchor="middle" x="837.5" y="-306.3" font-family="Times,serif" font-size="14.00">#10 LabelNode Order : 15</text>
</g>
<!-- node8&#45;&gt;node10 -->
<g id="edge25" class="edge">
<title>node8&#45;&gt;node10</title>
<path fill="none" stroke="red" d="M813.43,-364.81C815.34,-356.62 818.5,-346.62 821.99,-337.48"/>
<polygon fill="red" stroke="red" points="825.32,-338.61 825.88,-328.03 818.84,-335.95 825.32,-338.61"/>
</g>
<!-- node9&#45;&gt;node7 -->
<g id="edge22" class="edge">
<title>node9&#45;&gt;node7</title>
<path fill="none" stroke="fuchsia" stroke-width="2" d="M554.36,-401.03C555.21,-409.03 555.45,-418.77 555.09,-427.75"/>
<polygon fill="fuchsia" stroke="fuchsia" stroke-width="2" points="551.59,-427.59 554.38,-437.81 558.57,-428.08 551.59,-427.59"/>
</g>
<!-- node12 -->
<g id="node15" class="node">
<title>node12</title>
<polygon fill="lightgreen" stroke="black" points="678.9,-302.54 678.9,-317.46 560.92,-328 394.08,-328 276.1,-317.46 276.1,-302.54 394.08,-292 560.92,-292 678.9,-302.54"/>
<text text-anchor="middle" x="477.5" y="-306.3" font-family="Times,serif" font-size="14.00">#12 Class SimpleLoopTest Order : 13</text>
</g>
<!-- node9&#45;&gt;node12 -->
<g id="edge31" class="edge">
<title>node9&#45;&gt;node12</title>
<path fill="none" stroke="black" stroke-dasharray="1,5" d="M525.43,-364.81C515.7,-356 504.63,-345.13 495.51,-335.46"/>
<polygon fill="black" stroke="black" points="498.02,-333.02 488.67,-328.03 492.87,-337.76 498.02,-333.02"/>
</g>
<!-- node9&#45;&gt;node13 -->
<g id="edge35" class="edge">
<title>node9&#45;&gt;node13</title>
<path fill="none" stroke="red" d="M625.61,-369.61C649.44,-361.76 673.17,-348.94 687.5,-328 696.54,-314.8 693.82,-306.7 687.5,-292 682.49,-280.36 673.6,-270.05 664.32,-261.64"/>
<polygon fill="red" stroke="red" points="666.39,-258.82 656.49,-255.04 661.88,-264.17 666.39,-258.82"/>
</g>
<!-- node10&#45;&gt;node8 -->
<g id="edge24" class="edge">
<title>node10&#45;&gt;node8</title>
<path fill="none" stroke="fuchsia" stroke-width="2" d="M837.61,-328.03C835.71,-336.2 832.57,-346.19 829.07,-355.34"/>
<polygon fill="fuchsia" stroke="fuchsia" stroke-width="2" points="825.74,-354.23 825.19,-364.81 832.22,-356.89 825.74,-354.23"/>
</g>
<!-- node10&#45;&gt;node11 -->
<g id="edge28" class="edge">
<title>node10&#45;&gt;node11</title>
<path fill="none" stroke="red" d="M867.92,-291.99C885.07,-282.4 906.69,-270.32 925.13,-260.01"/>
<polygon fill="red" stroke="red" points="926.87,-263.05 933.89,-255.11 923.45,-256.94 926.87,-263.05"/>
</g>
<!-- node11&#45;&gt;node0 -->
<g id="edge26" class="edge">
<title>node11&#45;&gt;node0</title>
<path fill="none" stroke="fuchsia" stroke-width="2" d="M1006.42,-255.03C1039.74,-272.93 1080.5,-304.3 1080.5,-346 1080.5,-566 1080.5,-566 1080.5,-566 1080.5,-638.67 1038.43,-653.39 977.5,-693 953.69,-708.48 943.97,-704.81 916.5,-712 890.78,-718.74 862.53,-725.12 836.43,-730.55"/>
<polygon fill="fuchsia" stroke="fuchsia" stroke-width="2" points="835.64,-727.14 826.55,-732.58 837.05,-733.99 835.64,-727.14"/>
</g>
<!-- node12&#45;&gt;node9 -->
<g id="edge30" class="edge">
<title>node12&#45;&gt;node9</title>
<path fill="none" stroke="fuchsia" stroke-width="2" d="M500.39,-328.03C510.1,-336.81 521.18,-347.69 530.33,-357.37"/>
<polygon fill="fuchsia" stroke="fuchsia" stroke-width="2" points="527.84,-359.83 537.19,-364.81 532.99,-355.09 527.84,-359.83"/>
</g>
<!-- node12&#45;&gt;node13 -->
<g id="edge33" class="edge">
<title>node12&#45;&gt;node13</title>
<path fill="none" stroke="black" d="M514.15,-291.99C535.19,-282.23 561.81,-269.88 584.28,-259.45"/>
<polygon fill="black" stroke="black" points="586.02,-262.5 593.62,-255.11 583.08,-256.15 586.02,-262.5"/>
<text text-anchor="middle" x="580.74" y="-266.71" font-family="Times,serif" font-size="14.00">*0</text>
</g>
<!-- node13&#45;&gt;node0 -->
<g id="edge32" class="edge">
<title>node13&#45;&gt;node0</title>
<path fill="none" stroke="fuchsia" stroke-width="2" d="M722.41,-244.81C838.89,-256.22 1024.5,-284.3 1024.5,-346 1024.5,-566 1024.5,-566 1024.5,-566 1024.5,-636.76 987.83,-654.45 928.5,-693 901.17,-710.75 867.69,-722.93 836.73,-731.16"/>
<polygon fill="fuchsia" stroke="fuchsia" stroke-width="2" points="835.6,-727.83 826.77,-733.69 837.33,-734.62 835.6,-727.83"/>
</g>
<!-- node13&#45;&gt;node14 -->
<g id="edge37" class="edge">
<title>node13&#45;&gt;node14</title>
<path fill="none" stroke="black" d="M618.74,-218.81C617.06,-210.79 616.6,-201.05 617.34,-192.07"/>
<polygon fill="black" stroke="black" points="620.83,-192.42 618.78,-182.03 613.9,-191.43 620.83,-192.42"/>
<text text-anchor="middle" x="624.58" y="-197.47" font-family="Times,serif" font-size="14.00">*0</text>
</g>
<!-- node13&#45;&gt;node14 -->
<g id="edge39" class="edge">
<title>node13&#45;&gt;node14</title>
<path fill="none" stroke="green" d="M630.5,-218.81C630.5,-210.79 630.5,-201.05 630.5,-192.07"/>
<polygon fill="green" stroke="green" points="634,-192.03 630.5,-182.03 627,-192.03 634,-192.03"/>
</g>
<!-- node13&#45;&gt;node14 -->
<g id="edge40" class="edge">
<title>node13&#45;&gt;node14</title>
<path fill="none" stroke="red" d="M642.26,-218.81C643.94,-210.79 644.4,-201.05 643.66,-192.07"/>
<polygon fill="red" stroke="red" points="647.1,-191.43 642.22,-182.03 640.17,-192.42 647.1,-191.43"/>
</g>
<!-- node14&#45;&gt;node0 -->
<g id="edge36" class="edge">
<title>node14&#45;&gt;node0</title>
<path fill="none" stroke="fuchsia" stroke-width="2" d="M801.18,-174.13C941.9,-184.04 1118.5,-203.04 1118.5,-236 1118.5,-676 1118.5,-676 1118.5,-676 1118.5,-737.77 915.62,-720 837.09,-729.52"/>
<polygon fill="fuchsia" stroke="fuchsia" stroke-width="2" points="836.24,-726.1 826.87,-731.05 837.28,-733.03 836.24,-726.1"/>
</g>
<!-- node14&#45;&gt;node15 -->
<g id="edge42" class="edge">
<title>node14&#45;&gt;node15</title>
<path fill="none" stroke="red" d="M575.06,-145.99C544.63,-135.92 507.14,-123.1 477.02,-112.48"/>
<polygon fill="red" stroke="red" points="478.12,-109.15 467.52,-109.11 475.78,-115.75 478.12,-109.15"/>
</g>
<!-- node16 -->
<g id="node18" class="node">
<title>node16</title>
<polygon fill="lightgreen" stroke="black" points="738.27,-83.54 738.27,-98.46 675.14,-109 585.86,-109 522.73,-98.46 522.73,-83.54 585.86,-73 675.14,-73 738.27,-83.54"/>
<text text-anchor="middle" x="630.5" y="-87.3" font-family="Times,serif" font-size="14.00">#16 int 1 Order : 7</text>
</g>
<!-- node14&#45;&gt;node16 -->
<g id="edge44" class="edge">
<title>node14&#45;&gt;node16</title>
<path fill="none" stroke="black" stroke-dasharray="1,5" d="M624.62,-145.81C623.78,-137.79 623.55,-128.05 623.92,-119.07"/>
<polygon fill="black" stroke="black" points="627.42,-119.25 624.64,-109.03 620.44,-118.75 627.42,-119.25"/>
</g>
<!-- node16&#45;&gt;node17 -->
<g id="edge47" class="edge">
<title>node16&#45;&gt;node17</title>
<path fill="none" stroke="black" d="M630.5,-72.81C630.5,-64.79 630.5,-55.05 630.5,-46.07"/>
<polygon fill="black" stroke="black" points="634,-46.03 630.5,-36.03 627,-46.03 634,-46.03"/>
<text text-anchor="middle" x="638.95" y="-50.45" font-family="Times,serif" font-size="14.00">*1</text>
</g>
<!-- node16&#45;&gt;node14 -->
<g id="edge43" class="edge">
<title>node16&#45;&gt;node14</title>
<path fill="none" stroke="fuchsia" stroke-width="2" d="M636.36,-109.03C637.21,-117.03 637.45,-126.77 637.09,-135.75"/>
<polygon fill="fuchsia" stroke="fuchsia" stroke-width="2" points="633.59,-135.59 636.38,-145.81 640.57,-136.08 633.59,-135.59"/>
</g>
<!-- c0 -->
<!-- c1 -->
<!-- c0&#45;&gt;c1 -->
<g id="edge48" class="edge">
<title>c0&#45;&gt;c1</title>
<path fill="none" stroke="red" d="M1695.39,-748C1706.61,-748 1764.74,-748 1790.36,-748"/>
<polygon fill="red" stroke="red" points="1790.56,-751.5 1800.56,-748 1790.56,-744.5 1790.56,-751.5"/>
<text text-anchor="middle" x="1748" y="-754.8" font-family="Times,serif" font-size="14.00">Control flow</text>
</g>
<!-- c2 -->
<!-- c3 -->
<!-- c2&#45;&gt;c3 -->
<g id="edge49" class="edge">
<title>c2&#45;&gt;c3</title>
<path fill="none" stroke="red" stroke-dasharray="5,2" d="M1488.58,-748C1505.55,-748 1621.71,-748 1659.58,-748"/>
<polygon fill="red" stroke="red" points="1659.67,-751.5 1669.67,-748 1659.67,-744.5 1659.67,-751.5"/>
<text text-anchor="middle" x="1579" y="-754.8" font-family="Times,serif" font-size="14.00">Control flow back edge</text>
</g>
<!-- d0 -->
<!-- d1 -->
<!-- d0&#45;&gt;d1 -->
<g id="edge50" class="edge">
<title>d0&#45;&gt;d1</title>
<path fill="none" stroke="black" d="M1377.36,-748C1386.91,-748 1430.81,-748 1452.42,-748"/>
<polygon fill="black" stroke="black" points="1452.65,-751.5 1462.65,-748 1452.65,-744.5 1452.65,-751.5"/>
<text text-anchor="middle" x="1420" y="-754.8" font-family="Times,serif" font-size="14.00">Data flow</text>
</g>
<!-- d2 -->
<!-- d3 -->
<!-- d2&#45;&gt;d3 -->
<g id="edge51" class="edge">
<title>d2&#45;&gt;d3</title>
<path fill="none" stroke="black" stroke-dasharray="1,5" d="M1251.31,-748C1261.96,-748 1316.96,-748 1341.58,-748"/>
<polygon fill="black" stroke="black" points="1341.65,-751.5 1351.65,-748 1341.65,-744.5 1341.65,-751.5"/>
<text text-anchor="middle" x="1301.5" y="-754.8" font-family="Times,serif" font-size="14.00">Declaration</text>
</g>
<!-- d4 -->
<!-- d5 -->
<!-- d4&#45;&gt;d5 -->
<g id="edge52" class="edge">
<title>d4&#45;&gt;d5</title>
<path fill="none" stroke="blue" d="M1108.6,-748C1121.22,-748 1187.38,-748 1215.18,-748"/>
<polygon fill="blue" stroke="blue" points="1215.34,-751.5 1225.34,-748 1215.34,-744.5 1215.34,-751.5"/>
<text text-anchor="middle" x="1167" y="-754.8" font-family="Times,serif" font-size="14.00">PHI Data flow</text>
</g>
<!-- d6 -->
<!-- d7 -->
<!-- d6&#45;&gt;d7 -->
<g id="edge53" class="edge">
<title>d6&#45;&gt;d7</title>
<path fill="none" stroke="green" d="M971.5,-748C983.44,-748 1045.8,-748 1072.43,-748"/>
<polygon fill="green" stroke="green" points="1072.45,-751.5 1082.45,-748 1072.45,-744.5 1072.45,-751.5"/>
<text text-anchor="middle" x="1027" y="-754.8" font-family="Times,serif" font-size="14.00">Memory flow</text>
</g>
<!-- d8 -->
<!-- d9 -->
<!-- d8&#45;&gt;d9 -->
<g id="edge54" class="edge">
<title>d8&#45;&gt;d9</title>
<path fill="none" stroke="fuchsia" d="M848.61,-748C859.65,-748 911.17,-748 935.16,-748"/>
<polygon fill="fuchsia" stroke="fuchsia" points="935.4,-751.5 945.4,-748 935.4,-744.5 935.4,-751.5"/>
<text text-anchor="middle" x="897" y="-754.8" font-family="Times,serif" font-size="14.00">Dominance</text>
</g>
</g>
</svg>
