<?xml version="1.0" encoding="UTF-8" standalone="no"?>
<!DOCTYPE svg PUBLIC "-//W3C//DTD SVG 1.1//EN"
 "http://www.w3.org/Graphics/SVG/1.1/DTD/svg11.dtd">
<!-- Generated by graphviz version 2.43.0 (0)
 -->
<!-- Title: debugoutput Pages: 1 -->
<svg width="1765pt" height="724pt"
 viewBox="0.00 0.00 1764.50 723.80" xmlns="http://www.w3.org/2000/svg" xmlns:xlink="http://www.w3.org/1999/xlink">
<g id="graph0" class="graph" transform="scale(1 1) rotate(0) translate(4 719.8)">
<title>debugoutput</title>
<polygon fill="white" stroke="transparent" points="-4,4 -4,-719.8 1760.5,-719.8 1760.5,4 -4,4"/>
<g id="clust1" class="cluster">
<title>cluster_000</title>
<polygon fill="none" stroke="black" points="772.5,-665.2 772.5,-707.8 1748.5,-707.8 1748.5,-665.2 772.5,-665.2"/>
<text text-anchor="middle" x="1260.5" y="-692.6" font-family="Times,serif" font-size="14.00">Legend</text>
</g>
<!-- node0 -->
<g id="node1" class="node">
<title>node0</title>
<polygon fill="lightgrey" stroke="black" points="762.5,-693 596.5,-693 596.5,-657 762.5,-657 762.5,-693"/>
<text text-anchor="middle" x="679.5" y="-671.3" font-family="Times,serif" font-size="14.00">#0 Method Order : 0</text>
</g>
<!-- node1 -->
<g id="node2" class="node">
<title>node1</title>
<polygon fill="lightgrey" stroke="black" points="292,-620 115,-620 115,-584 292,-584 292,-620"/>
<text text-anchor="middle" x="203.5" y="-598.3" font-family="Times,serif" font-size="14.00">#1 arg0 : int Order : 4</text>
</g>
<!-- node0&#45;&gt;node1 -->
<g id="edge2" class="edge">
<title>node0&#45;&gt;node1</title>
<path fill="none" stroke="black" d="M596.25,-672.33C517.9,-669.39 397.93,-661.29 296.5,-639 279.49,-635.26 261.41,-629.51 245.71,-623.69"/>
<polygon fill="black" stroke="black" points="246.86,-620.38 236.27,-620.07 244.36,-626.92 246.86,-620.38"/>
<text text-anchor="middle" x="256.22" y="-614.96" font-family="Times,serif" font-size="14.00">*0</text>
</g>
<!-- node2 -->
<g id="node3" class="node">
<title>node2</title>
<polygon fill="lightgrey" stroke="black" points="773.5,-620 585.5,-620 585.5,-584 773.5,-584 773.5,-620"/>
<text text-anchor="middle" x="679.5" y="-598.3" font-family="Times,serif" font-size="14.00">#2 LabelNode Order : 1</text>
</g>
<!-- node0&#45;&gt;node2 -->
<g id="edge4" class="edge">
<title>node0&#45;&gt;node2</title>
<path fill="none" stroke="red" d="M673.62,-656.81C672.78,-648.79 672.55,-639.05 672.92,-630.07"/>
<polygon fill="red" stroke="red" points="676.42,-630.25 673.64,-620.03 669.44,-629.75 676.42,-630.25"/>
</g>
<!-- node12 -->
<g id="node15" class="node">
<title>node12</title>
<polygon fill="lightgrey" stroke="black" points="251,-36 0,-36 0,0 251,0 251,-36"/>
<text text-anchor="middle" x="125.5" y="-14.3" font-family="Times,serif" font-size="14.00">#12 ReturnValue : int Order : 17</text>
</g>
<!-- node0&#45;&gt;node12 -->
<g id="edge32" class="edge">
<title>node0&#45;&gt;node12</title>
<path fill="none" stroke="green" d="M596.47,-670.86C445.11,-664.31 136.47,-647.49 96.5,-620 74.39,-604.8 69.5,-592.83 69.5,-566 69.5,-566 69.5,-566 69.5,-127 69.5,-96.81 85.14,-65.51 100.1,-44.43"/>
<polygon fill="green" stroke="green" points="102.98,-46.43 106.2,-36.33 97.39,-42.21 102.98,-46.43"/>
</g>
<!-- node14 -->
<g id="node17" class="node">
<title>node14</title>
<polygon fill="lightgrey" stroke="black" points="1313,-36 1130,-36 1130,0 1313,0 1313,-36"/>
<text text-anchor="middle" x="1221.5" y="-14.3" font-family="Times,serif" font-size="14.00">#14 ClassInit Order : 6</text>
</g>
<!-- node0&#45;&gt;node14 -->
<g id="edge37" class="edge">
<title>node0&#45;&gt;node14</title>
<path fill="none" stroke="green" d="M759.89,-656.96C893.08,-641.97 1353.5,-699.41 1353.5,-566 1353.5,-566 1353.5,-566 1353.5,-419 1353.5,-249.7 1327.95,-201.31 1244.5,-54 1242.6,-50.65 1240.33,-47.36 1237.94,-44.21"/>
<polygon fill="green" stroke="green" points="1240.53,-41.85 1231.51,-36.29 1235.09,-46.26 1240.53,-41.85"/>
</g>
<!-- node1&#45;&gt;node0 -->
<g id="edge1" class="edge">
<title>node1&#45;&gt;node0</title>
<path fill="none" stroke="fuchsia" stroke-width="2" d="M252.76,-620.07C271.87,-627.03 293.96,-634.49 314.5,-639 405.6,-659.02 511.64,-667.59 585.93,-671.26"/>
<polygon fill="fuchsia" stroke="fuchsia" stroke-width="2" points="586.04,-674.77 596.19,-671.75 586.37,-667.78 586.04,-674.77"/>
</g>
<!-- node3 -->
<g id="node4" class="node">
<title>node3</title>
<polygon fill="lightgreen" stroke="black" points="384.42,-521.54 384.42,-536.46 324.13,-547 238.87,-547 178.58,-536.46 178.58,-521.54 238.87,-511 324.13,-511 384.42,-521.54"/>
<text text-anchor="middle" x="281.5" y="-525.3" font-family="Times,serif" font-size="14.00">#3 Φ int Order : 5</text>
</g>
<!-- node1&#45;&gt;node3 -->
<g id="edge7" class="edge">
<title>node1&#45;&gt;node3</title>
<path fill="none" stroke="blue" d="M222.38,-583.81C232.25,-574.83 244.48,-563.69 255.26,-553.89"/>
<polygon fill="blue" stroke="blue" points="257.75,-556.35 262.79,-547.03 253.04,-551.17 257.75,-556.35"/>
<text text-anchor="middle" x="255.08" y="-561.78" font-family="Times,serif" font-size="14.00">if #2</text>
</g>
<!-- node2&#45;&gt;node0 -->
<g id="edge3" class="edge">
<title>node2&#45;&gt;node0</title>
<path fill="none" stroke="fuchsia" stroke-width="2" d="M685.36,-620.03C686.21,-628.03 686.45,-637.77 686.09,-646.75"/>
<polygon fill="fuchsia" stroke="fuchsia" stroke-width="2" points="682.59,-646.59 685.38,-656.81 689.57,-647.08 682.59,-646.59"/>
</g>
<!-- node2&#45;&gt;node3 -->
<g id="edge6" class="edge">
<title>node2&#45;&gt;node3</title>
<path fill="none" stroke="black" stroke-dasharray="1,5" d="M585.43,-584.22C517.14,-572.04 425.77,-555.74 361.09,-544.2"/>
<polygon fill="black" stroke="black" points="361.41,-540.7 350.95,-542.39 360.18,-547.59 361.41,-540.7"/>
</g>
<!-- node4 -->
<g id="node5" class="node">
<title>node4</title>
<polygon fill="lightgrey" stroke="black" points="1147,-328 892,-328 892,-292 1147,-292 1147,-328"/>
<text text-anchor="middle" x="1019.5" y="-306.3" font-family="Times,serif" font-size="14.00">#4 LoopHeader : Loop6 Order : 3</text>
</g>
<!-- node2&#45;&gt;node4 -->
<g id="edge9" class="edge">
<title>node2&#45;&gt;node4</title>
<path fill="none" stroke="red" d="M773.73,-584.85C814.39,-575.78 855.42,-563.04 867.5,-547 909.33,-491.46 799.39,-479.48 769.5,-401 763.81,-386.05 759.45,-377.45 769.5,-365 784.7,-346.17 832.26,-333.59 881.89,-325.34"/>
<polygon fill="red" stroke="red" points="882.51,-328.79 891.83,-323.75 881.4,-321.88 882.51,-328.79"/>
</g>
<!-- node5 -->
<g id="node7" class="node">
<title>node5</title>
<polygon fill="lightgreen" stroke="black" points="858.61,-521.54 858.61,-536.46 799.38,-547 715.62,-547 656.39,-536.46 656.39,-521.54 715.62,-511 799.38,-511 858.61,-521.54"/>
<text text-anchor="middle" x="757.5" y="-525.3" font-family="Times,serif" font-size="14.00">#5 int 0 Order : 2</text>
</g>
<!-- node2&#45;&gt;node5 -->
<g id="edge12" class="edge">
<title>node2&#45;&gt;node5</title>
<path fill="none" stroke="black" stroke-dasharray="1,5" d="M692.5,-583.81C701.52,-574.74 713.72,-563.48 725.17,-553.6"/>
<polygon fill="black" stroke="black" points="727.56,-556.16 732.93,-547.03 723.04,-550.82 727.56,-556.16"/>
</g>
<!-- node6 -->
<g id="node8" class="node">
<title>node6</title>
<polygon fill="orange" stroke="black" points="620.58,-521.54 620.58,-536.46 556.68,-547 466.32,-547 402.42,-536.46 402.42,-521.54 466.32,-511 556.68,-511 620.58,-521.54"/>
<text text-anchor="middle" x="511.5" y="-525.3" font-family="Times,serif" font-size="14.00">#6 Φ int Order : 10</text>
</g>
<!-- node2&#45;&gt;node6 -->
<g id="edge14" class="edge">
<title>node2&#45;&gt;node6</title>
<path fill="none" stroke="black" stroke-dasharray="1,5" d="M639.26,-583.99C615.85,-574.1 586.14,-561.54 561.27,-551.03"/>
<polygon fill="black" stroke="black" points="562.57,-547.78 551.99,-547.11 559.84,-554.23 562.57,-547.78"/>
</g>
<!-- node3&#45;&gt;node0 -->
<g id="edge5" class="edge">
<title>node3&#45;&gt;node0</title>
<path fill="none" stroke="fuchsia" stroke-width="2" d="M327.12,-546.51C400.07,-572.9 542.83,-624.55 622.43,-653.35"/>
<polygon fill="fuchsia" stroke="fuchsia" stroke-width="2" points="621.69,-656.8 632.28,-656.92 624.07,-650.22 621.69,-656.8"/>
</g>
<!-- node7 -->
<g id="node10" class="node">
<title>node7</title>
<polygon fill="orange" stroke="black" points="579.9,-448.54 579.9,-463.46 461.92,-474 295.08,-474 177.1,-463.46 177.1,-448.54 295.08,-438 461.92,-438 579.9,-448.54"/>
<text text-anchor="middle" x="378.5" y="-452.3" font-family="Times,serif" font-size="14.00">#7 NumericCondition : GE Order : 11</text>
</g>
<!-- node3&#45;&gt;node7 -->
<g id="edge19" class="edge">
<title>node3&#45;&gt;node7</title>
<path fill="none" stroke="black" d="M304.98,-510.81C317.61,-501.57 333.36,-490.04 347.03,-480.03"/>
<polygon fill="black" stroke="black" points="349.23,-482.76 355.24,-474.03 345.1,-477.11 349.23,-482.76"/>
<text text-anchor="middle" x="345.6" y="-487.86" font-family="Times,serif" font-size="14.00">*1</text>
</g>
<!-- node3&#45;&gt;node12 -->
<g id="edge30" class="edge">
<title>node3&#45;&gt;node12</title>
<path fill="none" stroke="black" d="M193.92,-518.84C158.36,-509.79 125.5,-491.96 125.5,-457 125.5,-457 125.5,-457 125.5,-90 125.5,-75.65 125.5,-59.67 125.5,-46.51"/>
<polygon fill="black" stroke="black" points="129,-46.22 125.5,-36.22 122,-46.22 129,-46.22"/>
<text text-anchor="middle" x="133.95" y="-50.64" font-family="Times,serif" font-size="14.00">*0</text>
</g>
<!-- node4&#45;&gt;node0 -->
<g id="edge8" class="edge">
<title>node4&#45;&gt;node0</title>
<path fill="none" stroke="fuchsia" stroke-width="2" d="M1147.37,-324.02C1212.24,-334.31 1277.5,-352.09 1277.5,-382 1277.5,-603 1277.5,-603 1277.5,-603 1277.5,-657.43 862.86,-649.71 772.92,-656.79"/>
<polygon fill="fuchsia" stroke="fuchsia" stroke-width="2" points="772.42,-653.32 762.84,-657.84 773.15,-660.29 772.42,-653.32"/>
</g>
<!-- node8 -->
<g id="node11" class="node">
<title>node8</title>
<polygon fill="lightgrey" stroke="black" points="1002,-255 871,-255 871,-219 1002,-219 1002,-255"/>
<text text-anchor="middle" x="936.5" y="-233.3" font-family="Times,serif" font-size="14.00">#8 If Order : 12</text>
</g>
<!-- node4&#45;&gt;node8 -->
<g id="edge22" class="edge">
<title>node4&#45;&gt;node8</title>
<path fill="none" stroke="red" d="M999.41,-291.81C988.81,-282.74 975.63,-271.48 964.09,-261.6"/>
<polygon fill="red" stroke="red" points="966.28,-258.87 956.41,-255.03 961.73,-264.19 966.28,-258.87"/>
</g>
<!-- node16 -->
<g id="node6" class="node">
<title>node16</title>
<polygon fill="lightgrey" stroke="black" points="1175,-401 1012,-401 1012,-365 1175,-365 1175,-401"/>
<text text-anchor="middle" x="1093.5" y="-379.3" font-family="Times,serif" font-size="14.00">#16 Goto Order : 18</text>
</g>
<!-- node16&#45;&gt;node4 -->
<g id="edge10" class="edge">
<title>node16&#45;&gt;node4</title>
<path fill="none" stroke="red" stroke-dasharray="5,2" d="M1075.59,-364.81C1066.32,-355.92 1054.84,-344.91 1044.69,-335.17"/>
<polygon fill="red" stroke="red" points="1046.89,-332.43 1037.25,-328.03 1042.04,-337.48 1046.89,-332.43"/>
</g>
<!-- node15 -->
<g id="node18" class="node">
<title>node15</title>
<polygon fill="lightgrey" stroke="black" points="1185,-474 844,-474 844,-438 1185,-438 1185,-474"/>
<text text-anchor="middle" x="1014.5" y="-452.3" font-family="Times,serif" font-size="14.00">#15 Invoke static compute : (int)int Order : 7</text>
</g>
<!-- node16&#45;&gt;node15 -->
<g id="edge44" class="edge">
<title>node16&#45;&gt;node15</title>
<path fill="none" stroke="fuchsia" stroke-width="2" d="M1080.41,-401.03C1071.31,-410.07 1058.96,-421.33 1047.36,-431.23"/>
<polygon fill="fuchsia" stroke="fuchsia" stroke-width="2" points="1044.92,-428.71 1039.5,-437.81 1049.42,-434.07 1044.92,-428.71"/>
</g>
<!-- node5&#45;&gt;node2 -->
<g id="edge11" class="edge">
<title>node5&#45;&gt;node2</title>
<path fill="none" stroke="fuchsia" stroke-width="2" d="M744.65,-547.03C735.68,-556.07 723.49,-567.33 712.03,-577.23"/>
<polygon fill="fuchsia" stroke="fuchsia" stroke-width="2" points="709.62,-574.68 704.26,-583.81 714.15,-580.02 709.62,-574.68"/>
</g>
<!-- node5&#45;&gt;node6 -->
<g id="edge15" class="edge">
<title>node5&#45;&gt;node6</title>
<path fill="none" stroke="blue" d="M656.14,-529C647.61,-529 639.09,-529 630.57,-529"/>
<polygon fill="blue" stroke="blue" points="630.57,-525.5 620.57,-529 630.57,-532.5 630.57,-525.5"/>
<text text-anchor="middle" x="638.69" y="-516.85" font-family="Times,serif" font-size="14.00">if #2</text>
</g>
<!-- node6&#45;&gt;node0 -->
<g id="edge13" class="edge">
<title>node6&#45;&gt;node0</title>
<path fill="none" stroke="fuchsia" stroke-width="2" d="M520.59,-547.08C531.68,-566.66 552.03,-598.79 576.5,-620 591.43,-632.94 610,-643.88 627.25,-652.46"/>
<polygon fill="fuchsia" stroke="fuchsia" stroke-width="2" points="626.13,-655.8 636.66,-656.98 629.16,-649.49 626.13,-655.8"/>
</g>
<!-- node18 -->
<g id="node9" class="node">
<title>node18</title>
<polygon fill="orange" stroke="black" points="839.66,-302.54 839.66,-317.46 765.17,-328 659.83,-328 585.34,-317.46 585.34,-302.54 659.83,-292 765.17,-292 839.66,-302.54"/>
<text text-anchor="middle" x="712.5" y="-306.3" font-family="Times,serif" font-size="14.00">#18 Add : int Order : 9</text>
</g>
<!-- node6&#45;&gt;node18 -->
<g id="edge49" class="edge">
<title>node6&#45;&gt;node18</title>
<path fill="none" stroke="black" d="M532.19,-510.93C546.39,-501.14 564.91,-488.04 579.5,-474 624.43,-430.78 665.98,-370.3 690.6,-336.48"/>
<polygon fill="black" stroke="black" points="693.67,-338.21 696.78,-328.08 688.03,-334.06 693.67,-338.21"/>
<text text-anchor="middle" x="692.84" y="-343.99" font-family="Times,serif" font-size="14.00">*0</text>
</g>
<!-- node6&#45;&gt;node7 -->
<g id="edge18" class="edge">
<title>node6&#45;&gt;node7</title>
<path fill="none" stroke="black" d="M479.64,-510.99C461.6,-501.36 438.83,-489.21 419.47,-478.87"/>
<polygon fill="black" stroke="black" points="421.03,-475.74 410.56,-474.11 417.73,-481.91 421.03,-475.74"/>
<text text-anchor="middle" x="430.53" y="-471.49" font-family="Times,serif" font-size="14.00">*0</text>
</g>
<!-- node6&#45;&gt;node15 -->
<g id="edge41" class="edge">
<title>node6&#45;&gt;node15</title>
<path fill="none" stroke="black" d="M591.48,-516.71C670.11,-505.61 791.46,-488.48 884.06,-475.41"/>
<polygon fill="black" stroke="black" points="884.65,-478.86 894.06,-474 883.67,-471.93 884.65,-478.86"/>
<text text-anchor="middle" x="877.29" y="-481.2" font-family="Times,serif" font-size="14.00">*1</text>
</g>
<!-- node18&#45;&gt;node0 -->
<g id="edge48" class="edge">
<title>node18&#45;&gt;node0</title>
<path fill="none" stroke="fuchsia" stroke-width="2" d="M719.37,-328.14C727.32,-346.94 741.52,-377.55 758.5,-401 768.59,-414.94 860.95,-495.09 867.5,-511 873.59,-525.8 872.75,-531.88 867.5,-547 848.89,-600.61 791.68,-634.1 745.21,-653.14"/>
<polygon fill="fuchsia" stroke="fuchsia" stroke-width="2" points="743.79,-649.94 735.78,-656.87 746.37,-656.45 743.79,-649.94"/>
</g>
<!-- node18&#45;&gt;node6 -->
<g id="edge16" class="edge">
<title>node18&#45;&gt;node6</title>
<path fill="none" stroke="blue" stroke-dasharray="5,2" d="M707.31,-328.08C691.38,-359.36 646.44,-426.92 597.5,-474 585.42,-485.62 570.64,-496.61 556.69,-505.6"/>
<polygon fill="blue" stroke="blue" points="554.78,-502.67 548.14,-510.93 558.48,-508.61 554.78,-502.67"/>
<text text-anchor="middle" x="559.05" y="-490.47" font-family="Times,serif" font-size="14.00">if #16</text>
</g>
<!-- node7&#45;&gt;node0 -->
<g id="edge17" class="edge">
<title>node7&#45;&gt;node0</title>
<path fill="none" stroke="fuchsia" stroke-width="2" d="M256.71,-470.65C194.53,-482.83 137.98,-505.46 169.5,-547 170.07,-547.75 429.59,-619.77 430.5,-620 481.91,-632.75 539.69,-645.39 586.65,-655.23"/>
<polygon fill="fuchsia" stroke="fuchsia" stroke-width="2" points="586,-658.67 596.5,-657.28 587.43,-651.81 586,-658.67"/>
</g>
<!-- node7&#45;&gt;node8 -->
<g id="edge21" class="edge">
<title>node7&#45;&gt;node8</title>
<path fill="none" stroke="black" d="M393.12,-437.92C423.44,-403.79 496.98,-327.4 576.5,-292 668.45,-251.07 785.32,-240.16 860.52,-237.77"/>
<polygon fill="black" stroke="black" points="860.95,-241.26 870.85,-237.49 860.75,-234.26 860.95,-241.26"/>
<text text-anchor="middle" x="852.96" y="-242.73" font-family="Times,serif" font-size="14.00">*0</text>
</g>
<!-- node8&#45;&gt;node0 -->
<g id="edge20" class="edge">
<title>node8&#45;&gt;node0</title>
<path fill="none" stroke="fuchsia" stroke-width="2" d="M1002.08,-240.48C1110.56,-248.47 1315.5,-281.73 1315.5,-419 1315.5,-603 1315.5,-603 1315.5,-603 1315.5,-661.57 868.24,-650.99 773.04,-656.85"/>
<polygon fill="fuchsia" stroke="fuchsia" stroke-width="2" points="772.5,-653.39 762.82,-657.7 773.08,-660.36 772.5,-653.39"/>
</g>
<!-- node9 -->
<g id="node12" class="node">
<title>node9</title>
<polygon fill="lightgrey" stroke="black" points="799.5,-182 649.5,-182 649.5,-146 799.5,-146 799.5,-182"/>
<text text-anchor="middle" x="724.5" y="-160.3" font-family="Times,serif" font-size="14.00">#9 true Order : 15</text>
</g>
<!-- node8&#45;&gt;node9 -->
<g id="edge24" class="edge">
<title>node8&#45;&gt;node9</title>
<path fill="none" stroke="red" d="M879.86,-218.99C848.73,-208.92 810.33,-196.1 779.47,-185.48"/>
<polygon fill="red" stroke="red" points="780.32,-182.07 769.73,-182.11 778.04,-188.69 780.32,-182.07"/>
</g>
<!-- node10 -->
<g id="node13" class="node">
<title>node10</title>
<polygon fill="lightgrey" stroke="black" points="1018,-182 855,-182 855,-146 1018,-146 1018,-182"/>
<text text-anchor="middle" x="936.5" y="-160.3" font-family="Times,serif" font-size="14.00">#10 false Order : 13</text>
</g>
<!-- node8&#45;&gt;node10 -->
<g id="edge26" class="edge">
<title>node8&#45;&gt;node10</title>
<path fill="none" stroke="red" d="M930.62,-218.81C929.78,-210.79 929.55,-201.05 929.92,-192.07"/>
<polygon fill="red" stroke="red" points="933.42,-192.25 930.64,-182.03 926.44,-191.75 933.42,-192.25"/>
</g>
<!-- node9&#45;&gt;node8 -->
<g id="edge23" class="edge">
<title>node9&#45;&gt;node8</title>
<path fill="none" stroke="fuchsia" stroke-width="2" d="M781.47,-182.11C812.66,-192.2 851.05,-205.03 881.86,-215.63"/>
<polygon fill="fuchsia" stroke="fuchsia" stroke-width="2" points="880.99,-219.03 891.58,-218.99 883.27,-212.42 880.99,-219.03"/>
</g>
<!-- node11 -->
<g id="node14" class="node">
<title>node11</title>
<polygon fill="lightgrey" stroke="black" points="717.5,-109 511.5,-109 511.5,-73 717.5,-73 717.5,-109"/>
<text text-anchor="middle" x="614.5" y="-87.3" font-family="Times,serif" font-size="14.00">#11 LabelNode Order : 16</text>
</g>
<!-- node9&#45;&gt;node11 -->
<g id="edge28" class="edge">
<title>node9&#45;&gt;node11</title>
<path fill="none" stroke="red" d="M692.29,-145.99C676.85,-136.67 658.57,-124.97 643.56,-114.86"/>
<polygon fill="red" stroke="red" points="645.38,-111.86 635.14,-109.11 641.43,-117.64 645.38,-111.86"/>
</g>
<!-- node10&#45;&gt;node8 -->
<g id="edge25" class="edge">
<title>node10&#45;&gt;node8</title>
<path fill="none" stroke="fuchsia" stroke-width="2" d="M942.36,-182.03C943.21,-190.03 943.45,-199.77 943.09,-208.75"/>
<polygon fill="fuchsia" stroke="fuchsia" stroke-width="2" points="939.59,-208.59 942.38,-218.81 946.57,-209.08 939.59,-208.59"/>
</g>
<!-- node13 -->
<g id="node16" class="node">
<title>node13</title>
<polygon fill="lightgreen" stroke="black" points="1137.9,-83.54 1137.9,-98.46 1019.92,-109 853.08,-109 735.1,-98.46 735.1,-83.54 853.08,-73 1019.92,-73 1137.9,-83.54"/>
<text text-anchor="middle" x="936.5" y="-87.3" font-family="Times,serif" font-size="14.00">#13 Class SimpleLoopTest Order : 14</text>
</g>
<!-- node10&#45;&gt;node13 -->
<g id="edge34" class="edge">
<title>node10&#45;&gt;node13</title>
<path fill="none" stroke="black" stroke-dasharray="1,5" d="M930.62,-145.81C929.78,-137.79 929.55,-128.05 929.92,-119.07"/>
<polygon fill="black" stroke="black" points="933.42,-119.25 930.64,-109.03 926.44,-118.75 933.42,-119.25"/>
</g>
<!-- node10&#45;&gt;node14 -->
<g id="edge38" class="edge">
<title>node10&#45;&gt;node14</title>
<path fill="none" stroke="red" d="M1018.05,-154.64C1059.18,-147.43 1108.31,-133.99 1146.5,-109 1172.46,-92.01 1169.46,-77.69 1189.5,-54 1192.31,-50.68 1195.33,-47.23 1198.34,-43.86"/>
<polygon fill="red" stroke="red" points="1201.15,-45.97 1205.28,-36.21 1195.97,-41.27 1201.15,-45.97"/>
</g>
<!-- node11&#45;&gt;node9 -->
<g id="edge27" class="edge">
<title>node11&#45;&gt;node9</title>
<path fill="none" stroke="fuchsia" stroke-width="2" d="M646.88,-109.11C662.35,-118.46 680.62,-130.15 695.61,-140.26"/>
<polygon fill="fuchsia" stroke="fuchsia" stroke-width="2" points="693.78,-143.24 704.01,-145.99 697.73,-137.46 693.78,-143.24"/>
</g>
<!-- node11&#45;&gt;node12 -->
<g id="edge31" class="edge">
<title>node11&#45;&gt;node12</title>
<path fill="none" stroke="red" d="M511.39,-75.03C436.02,-64.09 333.33,-49.18 252.83,-37.49"/>
<polygon fill="red" stroke="red" points="253.03,-33.98 242.63,-36.01 252.02,-40.91 253.03,-33.98"/>
</g>
<!-- node12&#45;&gt;node0 -->
<g id="edge29" class="edge">
<title>node12&#45;&gt;node0</title>
<path fill="none" stroke="fuchsia" stroke-width="2" d="M119.11,-36.33C107.74,-56.87 87.5,-92.65 87.5,-127 87.5,-566 87.5,-566 87.5,-566 87.5,-592.83 92.39,-604.8 114.5,-620 152.67,-646.25 435.79,-662.77 586.24,-669.91"/>
<polygon fill="fuchsia" stroke="fuchsia" stroke-width="2" points="586.24,-673.41 596.39,-670.39 586.57,-666.42 586.24,-673.41"/>
</g>
<!-- node13&#45;&gt;node10 -->
<g id="edge33" class="edge">
<title>node13&#45;&gt;node10</title>
<path fill="none" stroke="fuchsia" stroke-width="2" d="M942.36,-109.03C943.21,-117.03 943.45,-126.77 943.09,-135.75"/>
<polygon fill="fuchsia" stroke="fuchsia" stroke-width="2" points="939.59,-135.59 942.38,-145.81 946.57,-136.08 939.59,-135.59"/>
</g>
<!-- node13&#45;&gt;node14 -->
<g id="edge36" class="edge">
<title>node13&#45;&gt;node14</title>
<path fill="none" stroke="black" d="M1004.76,-72.99C1046.32,-62.64 1099.56,-49.38 1142.87,-38.59"/>
<polygon fill="black" stroke="black" points="1143.95,-41.93 1152.8,-36.11 1142.26,-35.13 1143.95,-41.93"/>
<text text-anchor="middle" x="1137.26" y="-45" font-family="Times,serif" font-size="14.00">*0</text>
</g>
<!-- node14&#45;&gt;node0 -->
<g id="edge35" class="edge">
<title>node14&#45;&gt;node0</title>
<path fill="none" stroke="fuchsia" stroke-width="2" d="M1248.78,-36.29C1254.03,-41.59 1258.93,-47.7 1262.5,-54 1345.95,-201.31 1371.5,-249.7 1371.5,-419 1371.5,-566 1371.5,-566 1371.5,-566 1371.5,-699.54 910.18,-641.85 777.5,-657 775.99,-657.17 774.46,-657.36 772.92,-657.55"/>
<polygon fill="fuchsia" stroke="fuchsia" stroke-width="2" points="772.08,-654.13 762.66,-658.97 773.04,-661.07 772.08,-654.13"/>
</g>
<!-- node14&#45;&gt;node15 -->
<g id="edge40" class="edge">
<title>node14&#45;&gt;node15</title>
<path fill="none" stroke="black" d="M1207.05,-36.22C1203.5,-50.59 1203.5,-71.63 1203.5,-90 1203.5,-384 1203.5,-384 1203.5,-384 1203.5,-406.83 1157.86,-423.88 1111.31,-435.54"/>
<polygon fill="black" stroke="black" points="1110.27,-432.18 1101.38,-437.94 1111.92,-438.99 1110.27,-432.18"/>
<text text-anchor="middle" x="1117.01" y="-421.76" font-family="Times,serif" font-size="14.00">*0</text>
</g>
<!-- node14&#45;&gt;node15 -->
<g id="edge42" class="edge">
<title>node14&#45;&gt;node15</title>
<path fill="none" stroke="green" d="M1221.5,-36.22C1221.5,-50.59 1221.5,-71.63 1221.5,-90 1221.5,-384 1221.5,-384 1221.5,-384 1221.5,-406.93 1175.48,-424.02 1126.84,-435.68"/>
<polygon fill="green" stroke="green" points="1126.04,-432.27 1117.09,-437.94 1127.62,-439.09 1126.04,-432.27"/>
</g>
<!-- node14&#45;&gt;node15 -->
<g id="edge43" class="edge">
<title>node14&#45;&gt;node15</title>
<path fill="none" stroke="red" d="M1235.95,-36.22C1239.5,-50.59 1239.5,-71.63 1239.5,-90 1239.5,-384 1239.5,-384 1239.5,-384 1239.5,-406.98 1193.29,-424.09 1142.64,-435.75"/>
<polygon fill="red" stroke="red" points="1141.8,-432.35 1132.8,-437.94 1143.32,-439.19 1141.8,-432.35"/>
</g>
<!-- node15&#45;&gt;node0 -->
<g id="edge39" class="edge">
<title>node15&#45;&gt;node0</title>
<path fill="none" stroke="fuchsia" stroke-width="2" d="M1012.97,-474.27C1008.68,-511.33 993,-598.39 938.5,-639 910.18,-660.1 820.06,-652.71 772.79,-656.74"/>
<polygon fill="fuchsia" stroke="fuchsia" stroke-width="2" points="772.39,-653.26 762.84,-657.86 773.17,-660.22 772.39,-653.26"/>
</g>
<!-- node15&#45;&gt;node16 -->
<g id="edge45" class="edge">
<title>node15&#45;&gt;node16</title>
<path fill="none" stroke="red" d="M1027.75,-437.81C1036.89,-428.74 1049.25,-417.48 1060.84,-407.6"/>
<polygon fill="red" stroke="red" points="1063.27,-410.13 1068.69,-401.03 1058.78,-404.76 1063.27,-410.13"/>
</g>
<!-- node17 -->
<g id="node19" class="node">
<title>node17</title>
<polygon fill="lightgreen" stroke="black" points="994.27,-375.54 994.27,-390.46 931.14,-401 841.86,-401 778.73,-390.46 778.73,-375.54 841.86,-365 931.14,-365 994.27,-375.54"/>
<text text-anchor="middle" x="886.5" y="-379.3" font-family="Times,serif" font-size="14.00">#17 int 1 Order : 8</text>
</g>
<!-- node15&#45;&gt;node17 -->
<g id="edge47" class="edge">
<title>node15&#45;&gt;node17</title>
<path fill="none" stroke="black" stroke-dasharray="1,5" d="M977.98,-437.99C959.84,-428.49 938.14,-416.54 920.37,-406.29"/>
<polygon fill="black" stroke="black" points="921.88,-403.12 911.48,-401.11 918.36,-409.17 921.88,-403.12"/>
</g>
<!-- node17&#45;&gt;node18 -->
<g id="edge50" class="edge">
<title>node17&#45;&gt;node18</title>
<path fill="none" stroke="black" d="M844.82,-364.99C820.47,-355.06 789.54,-342.43 763.7,-331.89"/>
<polygon fill="black" stroke="black" points="765.02,-328.65 754.44,-328.11 762.38,-335.13 765.02,-328.65"/>
<text text-anchor="middle" x="774.42" y="-323.44" font-family="Times,serif" font-size="14.00">*1</text>
</g>
<!-- node17&#45;&gt;node15 -->
<g id="edge46" class="edge">
<title>node17&#45;&gt;node15</title>
<path fill="none" stroke="fuchsia" stroke-width="2" d="M923.22,-401.11C941.39,-410.63 963.09,-422.59 980.83,-432.82"/>
<polygon fill="fuchsia" stroke="fuchsia" stroke-width="2" points="979.3,-435.98 989.7,-437.99 982.82,-429.93 979.3,-435.98"/>
</g>
<!-- c0 -->
<!-- c1 -->
<!-- c0&#45;&gt;c1 -->
<g id="edge51" class="edge">
<title>c0&#45;&gt;c1</title>
<path fill="none" stroke="red" d="M1631.39,-675C1642.61,-675 1700.74,-675 1726.36,-675"/>
<polygon fill="red" stroke="red" points="1726.56,-678.5 1736.56,-675 1726.56,-671.5 1726.56,-678.5"/>
<text text-anchor="middle" x="1684" y="-681.8" font-family="Times,serif" font-size="14.00">Control flow</text>
</g>
<!-- c2 -->
<!-- c3 -->
<!-- c2&#45;&gt;c3 -->
<g id="edge52" class="edge">
<title>c2&#45;&gt;c3</title>
<path fill="none" stroke="red" stroke-dasharray="5,2" d="M1424.58,-675C1441.55,-675 1557.71,-675 1595.58,-675"/>
<polygon fill="red" stroke="red" points="1595.67,-678.5 1605.67,-675 1595.67,-671.5 1595.67,-678.5"/>
<text text-anchor="middle" x="1515" y="-681.8" font-family="Times,serif" font-size="14.00">Control flow back edge</text>
</g>
<!-- d0 -->
<!-- d1 -->
<!-- d0&#45;&gt;d1 -->
<g id="edge53" class="edge">
<title>d0&#45;&gt;d1</title>
<path fill="none" stroke="black" d="M1313.36,-675C1322.91,-675 1366.81,-675 1388.42,-675"/>
<polygon fill="black" stroke="black" points="1388.65,-678.5 1398.65,-675 1388.65,-671.5 1388.65,-678.5"/>
<text text-anchor="middle" x="1356" y="-681.8" font-family="Times,serif" font-size="14.00">Data flow</text>
</g>
<!-- d2 -->
<!-- d3 -->
<!-- d2&#45;&gt;d3 -->
<g id="edge54" class="edge">
<title>d2&#45;&gt;d3</title>
<path fill="none" stroke="black" stroke-dasharray="1,5" d="M1187.31,-675C1197.96,-675 1252.96,-675 1277.58,-675"/>
<polygon fill="black" stroke="black" points="1277.65,-678.5 1287.65,-675 1277.65,-671.5 1277.65,-678.5"/>
<text text-anchor="middle" x="1237.5" y="-681.8" font-family="Times,serif" font-size="14.00">Declaration</text>
</g>
<!-- d4 -->
<!-- d5 -->
<!-- d4&#45;&gt;d5 -->
<g id="edge55" class="edge">
<title>d4&#45;&gt;d5</title>
<path fill="none" stroke="blue" d="M1044.6,-675C1057.22,-675 1123.38,-675 1151.18,-675"/>
<polygon fill="blue" stroke="blue" points="1151.34,-678.5 1161.34,-675 1151.34,-671.5 1151.34,-678.5"/>
<text text-anchor="middle" x="1103" y="-681.8" font-family="Times,serif" font-size="14.00">PHI Data flow</text>
</g>
<!-- d6 -->
<!-- d7 -->
<!-- d6&#45;&gt;d7 -->
<g id="edge56" class="edge">
<title>d6&#45;&gt;d7</title>
<path fill="none" stroke="green" d="M907.5,-675C919.44,-675 981.8,-675 1008.43,-675"/>
<polygon fill="green" stroke="green" points="1008.45,-678.5 1018.45,-675 1008.45,-671.5 1008.45,-678.5"/>
<text text-anchor="middle" x="963" y="-681.8" font-family="Times,serif" font-size="14.00">Memory flow</text>
</g>
<!-- d8 -->
<!-- d9 -->
<!-- d8&#45;&gt;d9 -->
<g id="edge57" class="edge">
<title>d8&#45;&gt;d9</title>
<path fill="none" stroke="fuchsia" d="M784.61,-675C795.65,-675 847.17,-675 871.16,-675"/>
<polygon fill="fuchsia" stroke="fuchsia" points="871.4,-678.5 881.4,-675 871.4,-671.5 871.4,-678.5"/>
<text text-anchor="middle" x="833" y="-681.8" font-family="Times,serif" font-size="14.00">Dominance</text>
</g>
</g>
</svg>
