<?xml version="1.0" encoding="UTF-8" standalone="no"?>
<!DOCTYPE svg PUBLIC "-//W3C//DTD SVG 1.1//EN"
 "http://www.w3.org/Graphics/SVG/1.1/DTD/svg11.dtd">
<!-- Generated by graphviz version 2.43.0 (0)
 -->
<!-- Title: debugoutput Pages: 1 -->
<svg width="2085pt" height="870pt"
 viewBox="0.00 0.00 2085.30 869.80" xmlns="http://www.w3.org/2000/svg" xmlns:xlink="http://www.w3.org/1999/xlink">
<g id="graph0" class="graph" transform="scale(1 1) rotate(0) translate(4 865.8)">
<title>debugoutput</title>
<polygon fill="white" stroke="transparent" points="-4,4 -4,-865.8 2081.3,-865.8 2081.3,4 -4,4"/>
<g id="clust1" class="cluster">
<title>cluster_000</title>
<polygon fill="none" stroke="black" points="1230.3,-811.2 1230.3,-853.8 2069.3,-853.8 2069.3,-811.2 1230.3,-811.2"/>
<text text-anchor="middle" x="1649.8" y="-838.6" font-family="Times,serif" font-size="14.00">Legend</text>
</g>
<!-- node0 -->
<g id="node1" class="node">
<title>node0</title>
<polygon fill="lightgrey" stroke="black" points="1220.3,-839 1054.3,-839 1054.3,-803 1220.3,-803 1220.3,-839"/>
<text text-anchor="middle" x="1137.3" y="-817.3" font-family="Times,serif" font-size="14.00">#0 Method Order : 0</text>
</g>
<!-- node1 -->
<g id="node2" class="node">
<title>node1</title>
<polygon fill="lightgrey" stroke="black" points="1110.8,-693 927.8,-693 927.8,-657 1110.8,-657 1110.8,-693"/>
<text text-anchor="middle" x="1019.3" y="-671.3" font-family="Times,serif" font-size="14.00">#1 ClassInit Order : 16</text>
</g>
<!-- node0&#45;&gt;node1 -->
<g id="edge3" class="edge">
<title>node0&#45;&gt;node1</title>
<path fill="none" stroke="black" d="M1129.12,-802.72C1123.96,-783.24 1117.19,-751.49 1100.3,-730 1090.05,-716.95 1075.71,-706.36 1061.88,-698.12"/>
<polygon fill="black" stroke="black" points="1063.35,-694.92 1052.92,-693.04 1059.9,-701.01 1063.35,-694.92"/>
</g>
<!-- node18 -->
<g id="node3" class="node">
<title>node18</title>
<polygon fill="lightgreen" stroke="black" points="880.04,-740.54 880.04,-755.46 765.96,-766 604.64,-766 490.57,-755.46 490.57,-740.54 604.64,-730 765.96,-730 880.04,-740.54"/>
<text text-anchor="middle" x="685.3" y="-744.3" font-family="Times,serif" font-size="14.00">#18 Class SimpleLoopTest Order : 1</text>
</g>
<!-- node0&#45;&gt;node18 -->
<g id="edge50" class="edge">
<title>node0&#45;&gt;node18</title>
<path fill="none" stroke="black" stroke-dasharray="1,5" d="M1054.1,-807.75C979.69,-796.34 870.37,-779.2 790.04,-766.38"/>
<polygon fill="black" stroke="black" points="790.32,-762.88 779.89,-764.76 789.22,-769.79 790.32,-762.88"/>
</g>
<!-- node2 -->
<g id="node5" class="node">
<title>node2</title>
<polygon fill="lightgrey" stroke="black" points="434.8,-766 257.8,-766 257.8,-730 434.8,-730 434.8,-766"/>
<text text-anchor="middle" x="346.3" y="-744.3" font-family="Times,serif" font-size="14.00">#2 arg0 : int Order : 8</text>
</g>
<!-- node0&#45;&gt;node2 -->
<g id="edge6" class="edge">
<title>node0&#45;&gt;node2</title>
<path fill="none" stroke="red" d="M1054.3,-818.86C895.41,-816.14 554.16,-807.69 439.3,-785 421.91,-781.56 403.47,-775.77 387.58,-769.82"/>
<polygon fill="red" stroke="red" points="388.63,-766.47 378.05,-766.11 386.1,-773 388.63,-766.47"/>
</g>
<!-- node3 -->
<g id="node6" class="node">
<title>node3</title>
<polygon fill="lightgrey" stroke="black" points="1438.3,-766 1250.3,-766 1250.3,-730 1438.3,-730 1438.3,-766"/>
<text text-anchor="middle" x="1344.3" y="-744.3" font-family="Times,serif" font-size="14.00">#3 LabelNode Order : 4</text>
</g>
<!-- node0&#45;&gt;node3 -->
<g id="edge8" class="edge">
<title>node0&#45;&gt;node3</title>
<path fill="none" stroke="red" d="M1181.03,-802.99C1209.44,-792.88 1246.91,-779.99 1278.83,-769.34"/>
<polygon fill="red" stroke="red" points="1280.15,-772.59 1288.54,-766.11 1277.94,-765.95 1280.15,-772.59"/>
</g>
<!-- node6 -->
<g id="node10" class="node">
<title>node6</title>
<polygon fill="lightgreen" stroke="black" points="202.41,-740.54 202.41,-755.46 143.18,-766 59.42,-766 0.2,-755.46 0.2,-740.54 59.42,-730 143.18,-730 202.41,-740.54"/>
<text text-anchor="middle" x="101.3" y="-744.3" font-family="Times,serif" font-size="14.00">#6 int 1 Order : 3</text>
</g>
<!-- node0&#45;&gt;node6 -->
<g id="edge16" class="edge">
<title>node0&#45;&gt;node6</title>
<path fill="none" stroke="black" stroke-dasharray="1,5" d="M1054.2,-819.69C857.49,-818.49 368.14,-812.72 207.3,-785 187.21,-781.54 165.74,-775.49 147.36,-769.33"/>
<polygon fill="black" stroke="black" points="148.37,-765.98 137.77,-766.01 146.08,-772.59 148.37,-765.98"/>
</g>
<!-- node7 -->
<g id="node11" class="node">
<title>node7</title>
<polygon fill="lightgreen" stroke="black" points="1100.41,-740.54 1100.41,-755.46 1041.18,-766 957.42,-766 898.2,-755.46 898.2,-740.54 957.42,-730 1041.18,-730 1100.41,-740.54"/>
<text text-anchor="middle" x="999.3" y="-744.3" font-family="Times,serif" font-size="14.00">#7 int 0 Order : 2</text>
</g>
<!-- node0&#45;&gt;node7 -->
<g id="edge18" class="edge">
<title>node0&#45;&gt;node7</title>
<path fill="none" stroke="black" stroke-dasharray="1,5" d="M1098.39,-802.99C1078.64,-793.36 1054.88,-781.21 1035.52,-770.87"/>
<polygon fill="black" stroke="black" points="1037.16,-767.78 1026.7,-766.11 1033.84,-773.94 1037.16,-767.78"/>
</g>
<!-- node17 -->
<g id="node19" class="node">
<title>node17</title>
<polygon fill="lightgrey" stroke="black" points="1679.8,-36 1428.8,-36 1428.8,0 1679.8,0 1679.8,-36"/>
<text text-anchor="middle" x="1554.3" y="-14.3" font-family="Times,serif" font-size="14.00">#17 ReturnValue : int Order : 14</text>
</g>
<!-- node0&#45;&gt;node17 -->
<g id="edge48" class="edge">
<title>node0&#45;&gt;node17</title>
<path fill="none" stroke="black" d="M1217.69,-802.95C1348.15,-786.67 1386.65,-820.99 1513.3,-785 1545.82,-775.76 1580.3,-782.8 1580.3,-749 1580.3,-749 1580.3,-749 1580.3,-90 1580.3,-73.97 1573.03,-57.8 1565.97,-44.95"/>
<polygon fill="black" stroke="black" points="1568.98,-43.17 1560.97,-36.23 1562.91,-46.65 1568.98,-43.17"/>
</g>
<!-- node1&#45;&gt;node0 -->
<g id="edge1" class="edge">
<title>node1&#45;&gt;node0</title>
<path fill="none" stroke="green" stroke-width="2" d="M1069.45,-693.04C1087.23,-701.83 1105.81,-714.1 1118.3,-730 1132.48,-748.05 1139.53,-773.33 1141.52,-792.51"/>
<polygon fill="green" stroke="green" stroke-width="2" points="1138.04,-792.95 1142.13,-802.72 1145.03,-792.53 1138.04,-792.95"/>
</g>
<!-- node10 -->
<g id="node14" class="node">
<title>node10</title>
<polygon fill="lightgrey" stroke="black" points="1194.3,-620 844.3,-620 844.3,-584 1194.3,-584 1194.3,-620"/>
<text text-anchor="middle" x="1019.3" y="-598.3" font-family="Times,serif" font-size="14.00">#10 Invoke static compute : (int)int Order : 17</text>
</g>
<!-- node1&#45;&gt;node10 -->
<g id="edge27" class="edge">
<title>node1&#45;&gt;node10</title>
<path fill="none" stroke="black" d="M1007.55,-656.81C1005.87,-648.79 1005.4,-639.05 1006.15,-630.07"/>
<polygon fill="black" stroke="black" points="1009.63,-630.42 1007.58,-620.03 1002.7,-629.43 1009.63,-630.42"/>
<text text-anchor="middle" x="1013.39" y="-635.47" font-family="Times,serif" font-size="14.00">*0</text>
</g>
<!-- node1&#45;&gt;node10 -->
<g id="edge29" class="edge">
<title>node1&#45;&gt;node10</title>
<path fill="none" stroke="black" d="M1019.3,-656.81C1019.3,-648.79 1019.3,-639.05 1019.3,-630.07"/>
<polygon fill="black" stroke="black" points="1022.8,-630.03 1019.3,-620.03 1015.8,-630.03 1022.8,-630.03"/>
</g>
<!-- node1&#45;&gt;node10 -->
<g id="edge30" class="edge">
<title>node1&#45;&gt;node10</title>
<path fill="none" stroke="red" d="M1031.06,-656.81C1032.74,-648.79 1033.2,-639.05 1032.46,-630.07"/>
<polygon fill="red" stroke="red" points="1035.9,-629.43 1031.03,-620.03 1028.97,-630.42 1035.9,-629.43"/>
</g>
<!-- node18&#45;&gt;node0 -->
<g id="edge49" class="edge">
<title>node18&#45;&gt;node0</title>
<path fill="none" stroke="green" stroke-width="2" d="M787.04,-764.09C864.24,-775.99 969.45,-792.52 1044.39,-804.51"/>
<polygon fill="green" stroke="green" stroke-width="2" points="1043.87,-807.97 1054.3,-806.1 1044.98,-801.06 1043.87,-807.97"/>
</g>
<!-- node18&#45;&gt;node1 -->
<g id="edge2" class="edge">
<title>node18&#45;&gt;node1</title>
<path fill="none" stroke="black" d="M765.3,-729.99C814.61,-719.51 877.95,-706.05 929.04,-695.19"/>
<polygon fill="black" stroke="black" points="930.03,-698.55 939.09,-693.05 928.58,-691.71 930.03,-698.55"/>
<text text-anchor="middle" x="923.11" y="-701.39" font-family="Times,serif" font-size="14.00">*0</text>
</g>
<!-- node14 -->
<g id="node4" class="node">
<title>node14</title>
<polygon fill="lightgrey" stroke="black" points="1306.8,-182 1143.8,-182 1143.8,-146 1306.8,-146 1306.8,-182"/>
<text text-anchor="middle" x="1225.3" y="-160.3" font-family="Times,serif" font-size="14.00">#14 false Order : 15</text>
</g>
<!-- node14&#45;&gt;node1 -->
<g id="edge4" class="edge">
<title>node14&#45;&gt;node1</title>
<path fill="none" stroke="red" d="M1143.55,-164.62C953.94,-164.81 500.3,-171.97 500.3,-236 500.3,-603 500.3,-603 500.3,-603 500.3,-644.67 766.35,-663.07 917.48,-670.16"/>
<polygon fill="red" stroke="red" points="917.56,-673.66 927.71,-670.63 917.88,-666.67 917.56,-673.66"/>
</g>
<!-- node13 -->
<g id="node16" class="node">
<title>node13</title>
<polygon fill="lightgrey" stroke="black" points="1376.3,-255 1236.3,-255 1236.3,-219 1376.3,-219 1376.3,-255"/>
<text text-anchor="middle" x="1306.3" y="-233.3" font-family="Times,serif" font-size="14.00">#13 If Order : 11</text>
</g>
<!-- node14&#45;&gt;node13 -->
<g id="edge39" class="edge">
<title>node14&#45;&gt;node13</title>
<path fill="none" stroke="green" stroke-width="2" d="M1250.59,-182.03C1261.76,-190.99 1274.65,-202.12 1285.28,-211.94"/>
<polygon fill="green" stroke="green" stroke-width="2" points="1282.9,-214.5 1292.57,-218.81 1287.7,-209.41 1282.9,-214.5"/>
</g>
<!-- node2&#45;&gt;node0 -->
<g id="edge5" class="edge">
<title>node2&#45;&gt;node0</title>
<path fill="none" stroke="green" stroke-width="2" d="M394.2,-766.02C413.58,-773.19 436.21,-780.83 457.3,-785 567.25,-806.72 884.64,-815.39 1043.92,-818.48"/>
<polygon fill="green" stroke="green" stroke-width="2" points="1044.11,-821.98 1054.18,-818.68 1044.25,-814.98 1044.11,-821.98"/>
</g>
<!-- node5 -->
<g id="node9" class="node">
<title>node5</title>
<polygon fill="orange" stroke="black" points="1378.22,-375.54 1378.22,-390.46 1317.93,-401 1232.67,-401 1172.38,-390.46 1172.38,-375.54 1232.67,-365 1317.93,-365 1378.22,-375.54"/>
<text text-anchor="middle" x="1275.3" y="-379.3" font-family="Times,serif" font-size="14.00">#5 Φ int Order : 9</text>
</g>
<!-- node2&#45;&gt;node5 -->
<g id="edge14" class="edge">
<title>node2&#45;&gt;node5</title>
<path fill="none" stroke="blue" d="M353.9,-729.83C368.57,-698.11 403.34,-629.44 448.3,-584 490.62,-541.24 506.27,-532.92 562.3,-511 764.55,-431.87 1018.47,-401.71 1162.26,-390.45"/>
<polygon fill="blue" stroke="blue" points="1162.72,-393.93 1172.42,-389.68 1162.18,-386.95 1162.72,-393.93"/>
<text text-anchor="middle" x="1154.99" y="-395.79" font-family="Times,serif" font-size="14.00">if #3</text>
</g>
<!-- node3&#45;&gt;node0 -->
<g id="edge7" class="edge">
<title>node3&#45;&gt;node0</title>
<path fill="none" stroke="green" stroke-width="2" d="M1300.28,-766.11C1271.8,-776.25 1234.31,-789.14 1202.44,-799.77"/>
<polygon fill="green" stroke="green" stroke-width="2" points="1201.13,-796.52 1192.74,-802.99 1203.34,-803.16 1201.13,-796.52"/>
</g>
<!-- node4 -->
<g id="node7" class="node">
<title>node4</title>
<polygon fill="lightgrey" stroke="black" points="1295.8,-474 1040.8,-474 1040.8,-438 1295.8,-438 1295.8,-474"/>
<text text-anchor="middle" x="1168.3" y="-452.3" font-family="Times,serif" font-size="14.00">#4 LoopHeader : Loop6 Order : 5</text>
</g>
<!-- node3&#45;&gt;node4 -->
<g id="edge10" class="edge">
<title>node3&#45;&gt;node4</title>
<path fill="none" stroke="red" d="M1327.22,-729.96C1315.59,-716.51 1302.3,-696.62 1302.3,-676 1302.3,-676 1302.3,-676 1302.3,-528 1302.3,-504.5 1286.02,-488.76 1264.8,-478.22"/>
<polygon fill="red" stroke="red" points="1265.99,-474.92 1255.44,-474.01 1263.12,-481.3 1265.99,-474.92"/>
</g>
<!-- node4&#45;&gt;node0 -->
<g id="edge9" class="edge">
<title>node4&#45;&gt;node0</title>
<path fill="none" stroke="green" stroke-width="2" d="M1191.52,-474.17C1206.15,-487.12 1222.3,-506.32 1222.3,-528 1222.3,-749 1222.3,-749 1222.3,-749 1222.3,-770.15 1206.61,-786.23 1188.71,-797.7"/>
<polygon fill="green" stroke="green" stroke-width="2" points="1186.63,-794.86 1179.8,-802.96 1190.19,-800.89 1186.63,-794.86"/>
</g>
<!-- node4&#45;&gt;node5 -->
<g id="edge13" class="edge">
<title>node4&#45;&gt;node5</title>
<path fill="none" stroke="black" stroke-dasharray="1,5" d="M1193.93,-437.99C1207.99,-428.67 1225.61,-416.97 1240.85,-406.86"/>
<polygon fill="black" stroke="black" points="1243.11,-409.56 1249.51,-401.11 1239.24,-403.73 1243.11,-409.56"/>
</g>
<!-- node8 -->
<g id="node12" class="node">
<title>node8</title>
<polygon fill="orange" stroke="black" points="983.22,-375.54 983.22,-390.46 922.93,-401 837.67,-401 777.38,-390.46 777.38,-375.54 837.67,-365 922.93,-365 983.22,-375.54"/>
<text text-anchor="middle" x="880.3" y="-379.3" font-family="Times,serif" font-size="14.00">#8 Φ int Order : 6</text>
</g>
<!-- node4&#45;&gt;node8 -->
<g id="edge20" class="edge">
<title>node4&#45;&gt;node8</title>
<path fill="none" stroke="black" stroke-dasharray="1,5" d="M1084.4,-437.97C1059.21,-432.56 1031.56,-426.33 1006.3,-420 985.16,-414.7 962.19,-408.33 941.72,-402.42"/>
<polygon fill="black" stroke="black" points="942.48,-399 931.9,-399.57 940.53,-405.72 942.48,-399"/>
</g>
<!-- node4&#45;&gt;node13 -->
<g id="edge38" class="edge">
<title>node4&#45;&gt;node13</title>
<path fill="none" stroke="red" d="M1127.56,-437.97C1090.94,-419.72 1044.58,-387.66 1056.3,-346 1063.92,-318.92 1066.63,-308.64 1089.3,-292 1128.87,-262.97 1182.27,-249.44 1226.19,-243.18"/>
<polygon fill="red" stroke="red" points="1226.82,-246.63 1236.27,-241.85 1225.9,-239.69 1226.82,-246.63"/>
</g>
<!-- node11 -->
<g id="node8" class="node">
<title>node11</title>
<polygon fill="lightgrey" stroke="black" points="1109.8,-547 946.8,-547 946.8,-511 1109.8,-511 1109.8,-547"/>
<text text-anchor="middle" x="1028.3" y="-525.3" font-family="Times,serif" font-size="14.00">#11 Goto Order : 18</text>
</g>
<!-- node11&#45;&gt;node4 -->
<g id="edge11" class="edge">
<title>node11&#45;&gt;node4</title>
<path fill="none" stroke="red" stroke-dasharray="5,2" d="M1061.84,-510.99C1080.92,-501.32 1105.01,-489.1 1125.45,-478.73"/>
<polygon fill="red" stroke="red" points="1127.22,-481.76 1134.56,-474.11 1124.06,-475.52 1127.22,-481.76"/>
</g>
<!-- node11&#45;&gt;node10 -->
<g id="edge31" class="edge">
<title>node11&#45;&gt;node10</title>
<path fill="none" stroke="green" stroke-width="2" d="M1032.01,-547.03C1031.84,-555.03 1030.85,-564.77 1029.34,-573.75"/>
<polygon fill="green" stroke="green" stroke-width="2" points="1025.86,-573.32 1027.36,-583.81 1032.73,-574.68 1025.86,-573.32"/>
</g>
<!-- node5&#45;&gt;node0 -->
<g id="edge12" class="edge">
<title>node5&#45;&gt;node0</title>
<path fill="none" stroke="green" stroke-width="2" d="M1344.53,-396.38C1399.19,-408.19 1466.3,-428.16 1466.3,-455 1466.3,-749 1466.3,-749 1466.3,-749 1466.3,-800.89 1298.54,-794.24 1230.67,-802.54"/>
<polygon fill="green" stroke="green" stroke-width="2" points="1230.05,-799.1 1220.67,-804.02 1231.07,-806.02 1230.05,-799.1"/>
</g>
<!-- node12 -->
<g id="node15" class="node">
<title>node12</title>
<polygon fill="orange" stroke="black" points="1513.86,-302.54 1513.86,-317.46 1392.28,-328 1220.33,-328 1098.74,-317.46 1098.74,-302.54 1220.33,-292 1392.28,-292 1513.86,-302.54"/>
<text text-anchor="middle" x="1306.3" y="-306.3" font-family="Times,serif" font-size="14.00">#12 NumericCondition : GE Order : 10</text>
</g>
<!-- node5&#45;&gt;node12 -->
<g id="edge34" class="edge">
<title>node5&#45;&gt;node12</title>
<path fill="none" stroke="black" d="M1282.81,-364.81C1286.39,-356.62 1290.75,-346.62 1294.74,-337.48"/>
<polygon fill="black" stroke="black" points="1298.07,-338.59 1298.87,-328.03 1291.66,-335.79 1298.07,-338.59"/>
<text text-anchor="middle" x="1299.36" y="-344.32" font-family="Times,serif" font-size="14.00">*0</text>
</g>
<!-- node5&#45;&gt;node17 -->
<g id="edge46" class="edge">
<title>node5&#45;&gt;node17</title>
<path fill="none" stroke="black" d="M1201,-370.48C1142.34,-359.22 1070.3,-339.58 1070.3,-311 1070.3,-311 1070.3,-311 1070.3,-90 1070.3,-54.62 1275.35,-35.22 1418.52,-25.98"/>
<polygon fill="black" stroke="black" points="1418.96,-29.46 1428.72,-25.34 1418.51,-22.48 1418.96,-29.46"/>
<text text-anchor="middle" x="1411.16" y="-31.22" font-family="Times,serif" font-size="14.00">*0</text>
</g>
<!-- node6&#45;&gt;node0 -->
<g id="edge15" class="edge">
<title>node6&#45;&gt;node0</title>
<path fill="none" stroke="green" stroke-width="2" d="M150.47,-764.79C173.08,-772.35 200.25,-780.68 225.3,-785 380.97,-811.83 844.37,-818.09 1044.09,-819.56"/>
<polygon fill="green" stroke="green" stroke-width="2" points="1044.24,-823.06 1054.26,-819.63 1044.29,-816.06 1044.24,-823.06"/>
</g>
<!-- node9 -->
<g id="node13" class="node">
<title>node9</title>
<polygon fill="orange" stroke="black" points="351.3,-302.54 351.3,-317.46 280.42,-328 180.18,-328 109.3,-317.46 109.3,-302.54 180.18,-292 280.42,-292 351.3,-302.54"/>
<text text-anchor="middle" x="230.3" y="-306.3" font-family="Times,serif" font-size="14.00">#9 Add : int Order : 7</text>
</g>
<!-- node6&#45;&gt;node9 -->
<g id="edge25" class="edge">
<title>node6&#45;&gt;node9</title>
<path fill="none" stroke="black" d="M106.6,-729.97C110.56,-715.7 115.3,-694.72 115.3,-676 115.3,-676 115.3,-676 115.3,-382 115.3,-357.25 134.83,-340.84 157.8,-330.1"/>
<polygon fill="black" stroke="black" points="159.27,-333.27 167.08,-326.12 156.51,-326.84 159.27,-333.27"/>
<text text-anchor="middle" x="153.76" y="-337.33" font-family="Times,serif" font-size="14.00">*1</text>
</g>
<!-- node7&#45;&gt;node0 -->
<g id="edge17" class="edge">
<title>node7&#45;&gt;node0</title>
<path fill="none" stroke="green" stroke-width="2" d="M1038.44,-766.11C1058.21,-775.77 1081.98,-787.92 1101.3,-798.24"/>
<polygon fill="green" stroke="green" stroke-width="2" points="1099.64,-801.33 1110.11,-802.99 1102.97,-795.17 1099.64,-801.33"/>
</g>
<!-- node7&#45;&gt;node8 -->
<g id="edge21" class="edge">
<title>node7&#45;&gt;node8</title>
<path fill="none" stroke="blue" d="M959.3,-729.89C919,-710.12 859.42,-673.32 835.3,-620 803.04,-548.66 842.29,-455.04 865.52,-410.18"/>
<polygon fill="blue" stroke="blue" points="868.74,-411.59 870.34,-401.12 862.56,-408.31 868.74,-411.59"/>
<text text-anchor="middle" x="869.29" y="-417.39" font-family="Times,serif" font-size="14.00">if #3</text>
</g>
<!-- node8&#45;&gt;node0 -->
<g id="edge19" class="edge">
<title>node8&#45;&gt;node0</title>
<path fill="none" stroke="green" stroke-width="2" d="M845.02,-401.16C744.25,-450.72 462.3,-593.37 462.3,-638 462.3,-749 462.3,-749 462.3,-749 462.3,-806.82 859.04,-817.71 1044.2,-819.65"/>
<polygon fill="green" stroke="green" stroke-width="2" points="1044.16,-823.15 1054.2,-819.75 1044.23,-816.15 1044.16,-823.15"/>
</g>
<!-- node8&#45;&gt;node9 -->
<g id="edge24" class="edge">
<title>node8&#45;&gt;node9</title>
<path fill="none" stroke="black" d="M792.29,-372.9C672.82,-360.13 459.85,-336.88 333.15,-322.8"/>
<polygon fill="black" stroke="black" points="333.38,-319.3 323.05,-321.68 332.6,-326.26 333.38,-319.3"/>
<text text-anchor="middle" x="342" y="-311.58" font-family="Times,serif" font-size="14.00">*0</text>
</g>
<!-- node8&#45;&gt;node10 -->
<g id="edge28" class="edge">
<title>node8&#45;&gt;node10</title>
<path fill="none" stroke="black" d="M882.61,-401.21C887.61,-432.98 901.99,-501.73 937.3,-547 947.19,-559.68 960.93,-570.35 974.33,-578.76"/>
<polygon fill="black" stroke="black" points="972.67,-581.85 983.05,-583.97 976.26,-575.84 972.67,-581.85"/>
<text text-anchor="middle" x="963.15" y="-578.23" font-family="Times,serif" font-size="14.00">*1</text>
</g>
<!-- node8&#45;&gt;node12 -->
<g id="edge35" class="edge">
<title>node8&#45;&gt;node12</title>
<path fill="none" stroke="black" d="M952.09,-370.04C1019.71,-358.77 1121.9,-341.73 1199.17,-328.86"/>
<polygon fill="black" stroke="black" points="1200.13,-332.24 1209.42,-327.15 1198.98,-325.34 1200.13,-332.24"/>
<text text-anchor="middle" x="1192.93" y="-334.76" font-family="Times,serif" font-size="14.00">*1</text>
</g>
<!-- node9&#45;&gt;node0 -->
<g id="edge23" class="edge">
<title>node9&#45;&gt;node0</title>
<path fill="none" stroke="green" stroke-width="2" d="M230.3,-328.22C230.3,-342.59 230.3,-363.63 230.3,-382 230.3,-749 230.3,-749 230.3,-749 230.3,-844.57 346.99,-777.94 442.3,-785 657.33,-800.94 910.34,-811.66 1043.86,-816.7"/>
<polygon fill="green" stroke="green" stroke-width="2" points="1043.92,-820.2 1054.05,-817.08 1044.18,-813.21 1043.92,-820.2"/>
</g>
<!-- node9&#45;&gt;node8 -->
<g id="edge22" class="edge">
<title>node9&#45;&gt;node8</title>
<path fill="none" stroke="blue" d="M327.21,-321.05C450.82,-334.29 663.13,-357.47 785.65,-371.11"/>
<polygon fill="blue" stroke="blue" points="785.44,-374.61 795.77,-372.24 786.22,-367.65 785.44,-374.61"/>
<text text-anchor="middle" x="776.82" y="-374.93" font-family="Times,serif" font-size="14.00">if #11</text>
</g>
<!-- node10&#45;&gt;node0 -->
<g id="edge26" class="edge">
<title>node10&#45;&gt;node0</title>
<path fill="none" stroke="green" stroke-width="2" d="M1068.19,-620.08C1086.48,-628.64 1106.02,-640.72 1119.3,-657 1119.47,-657.2 1154.2,-768.58 1156.3,-784 1156.74,-787.19 1156.42,-790.38 1155.59,-793.48"/>
<polygon fill="green" stroke="green" stroke-width="2" points="1152.28,-792.33 1151.58,-802.9 1158.72,-795.08 1152.28,-792.33"/>
</g>
<!-- node10&#45;&gt;node11 -->
<g id="edge32" class="edge">
<title>node10&#45;&gt;node11</title>
<path fill="none" stroke="red" d="M1015.6,-583.81C1015.78,-575.79 1016.78,-566.05 1018.29,-557.07"/>
<polygon fill="red" stroke="red" points="1021.77,-557.52 1020.28,-547.03 1014.91,-556.16 1021.77,-557.52"/>
</g>
<!-- node12&#45;&gt;node0 -->
<g id="edge33" class="edge">
<title>node12&#45;&gt;node0</title>
<path fill="none" stroke="green" stroke-width="2" d="M1398.93,-327.47C1450.46,-339.36 1504.3,-357.62 1504.3,-382 1504.3,-749 1504.3,-749 1504.3,-749 1504.3,-809.11 1307.58,-795.78 1230.66,-802.69"/>
<polygon fill="green" stroke="green" stroke-width="2" points="1230.19,-799.23 1220.64,-803.81 1230.97,-806.18 1230.19,-799.23"/>
</g>
<!-- node12&#45;&gt;node13 -->
<g id="edge37" class="edge">
<title>node12&#45;&gt;node13</title>
<path fill="none" stroke="black" d="M1306.3,-291.81C1306.3,-283.79 1306.3,-274.05 1306.3,-265.07"/>
<polygon fill="black" stroke="black" points="1309.8,-265.03 1306.3,-255.03 1302.8,-265.03 1309.8,-265.03"/>
<text text-anchor="middle" x="1314.76" y="-269.45" font-family="Times,serif" font-size="14.00">*0</text>
</g>
<!-- node13&#45;&gt;node0 -->
<g id="edge36" class="edge">
<title>node13&#45;&gt;node0</title>
<path fill="none" stroke="green" stroke-width="2" d="M1376.47,-245.41C1446.04,-254.76 1542.3,-274.02 1542.3,-309 1542.3,-749 1542.3,-749 1542.3,-749 1542.3,-817.39 1316.2,-795.73 1230.59,-802.74"/>
<polygon fill="green" stroke="green" stroke-width="2" points="1230.22,-799.26 1220.63,-803.78 1230.94,-806.22 1230.22,-799.26"/>
</g>
<!-- node13&#45;&gt;node14 -->
<g id="edge40" class="edge">
<title>node13&#45;&gt;node14</title>
<path fill="none" stroke="red" d="M1280.82,-218.81C1269.74,-209.92 1256.99,-198.91 1246.44,-189.17"/>
<polygon fill="red" stroke="red" points="1248.55,-186.34 1238.87,-182.03 1243.74,-191.44 1248.55,-186.34"/>
</g>
<!-- node15 -->
<g id="node17" class="node">
<title>node15</title>
<polygon fill="lightgrey" stroke="black" points="1483.8,-182 1324.8,-182 1324.8,-146 1483.8,-146 1483.8,-182"/>
<text text-anchor="middle" x="1404.3" y="-160.3" font-family="Times,serif" font-size="14.00">#15 true Order : 12</text>
</g>
<!-- node13&#45;&gt;node15 -->
<g id="edge42" class="edge">
<title>node13&#45;&gt;node15</title>
<path fill="none" stroke="red" d="M1324.15,-218.81C1336.05,-209.48 1351.98,-197.83 1366.56,-187.75"/>
<polygon fill="red" stroke="red" points="1368.65,-190.56 1374.94,-182.03 1364.7,-184.78 1368.65,-190.56"/>
</g>
<!-- node15&#45;&gt;node13 -->
<g id="edge41" class="edge">
<title>node15&#45;&gt;node13</title>
<path fill="none" stroke="green" stroke-width="2" d="M1386.55,-182.11C1374.64,-191.46 1358.65,-203.15 1344.04,-213.26"/>
<polygon fill="green" stroke="green" stroke-width="2" points="1341.92,-210.47 1335.64,-218.99 1345.87,-216.25 1341.92,-210.47"/>
</g>
<!-- node16 -->
<g id="node18" class="node">
<title>node16</title>
<polygon fill="lightgrey" stroke="black" points="1507.3,-109 1301.3,-109 1301.3,-73 1507.3,-73 1507.3,-109"/>
<text text-anchor="middle" x="1404.3" y="-87.3" font-family="Times,serif" font-size="14.00">#16 LabelNode Order : 13</text>
</g>
<!-- node15&#45;&gt;node16 -->
<g id="edge44" class="edge">
<title>node15&#45;&gt;node16</title>
<path fill="none" stroke="red" d="M1398.42,-145.81C1397.59,-137.79 1397.35,-128.05 1397.73,-119.07"/>
<polygon fill="red" stroke="red" points="1401.22,-119.25 1398.44,-109.03 1394.24,-118.75 1401.22,-119.25"/>
</g>
<!-- node16&#45;&gt;node15 -->
<g id="edge43" class="edge">
<title>node16&#45;&gt;node15</title>
<path fill="none" stroke="green" stroke-width="2" d="M1410.16,-109.03C1411.01,-117.03 1411.25,-126.77 1410.89,-135.75"/>
<polygon fill="green" stroke="green" stroke-width="2" points="1407.39,-135.59 1410.18,-145.81 1414.37,-136.08 1407.39,-135.59"/>
</g>
<!-- node16&#45;&gt;node17 -->
<g id="edge47" class="edge">
<title>node16&#45;&gt;node17</title>
<path fill="none" stroke="red" d="M1440.23,-72.99C1460.86,-63.23 1486.96,-50.88 1508.98,-40.45"/>
<polygon fill="red" stroke="red" points="1510.61,-43.56 1518.15,-36.11 1507.61,-37.23 1510.61,-43.56"/>
</g>
<!-- node17&#45;&gt;node0 -->
<g id="edge45" class="edge">
<title>node17&#45;&gt;node0</title>
<path fill="none" stroke="green" stroke-width="2" d="M1575.7,-36.23C1587.07,-49.94 1598.3,-70.07 1598.3,-90 1598.3,-749 1598.3,-749 1598.3,-749 1598.3,-782.8 1563.82,-775.76 1531.3,-785 1404.52,-821.03 1366.08,-786.6 1235.3,-803 1233.79,-803.19 1232.27,-803.39 1230.73,-803.6"/>
<polygon fill="green" stroke="green" stroke-width="2" points="1229.86,-800.19 1220.47,-805.09 1230.88,-807.11 1229.86,-800.19"/>
</g>
<!-- c0 -->
<!-- c1 -->
<!-- c0&#45;&gt;c1 -->
<g id="edge51" class="edge">
<title>c0&#45;&gt;c1</title>
<path fill="none" stroke="red" d="M1952.19,-821C1963.41,-821 2021.55,-821 2047.16,-821"/>
<polygon fill="red" stroke="red" points="2047.36,-824.5 2057.36,-821 2047.36,-817.5 2047.36,-824.5"/>
<text text-anchor="middle" x="2004.8" y="-827.8" font-family="Times,serif" font-size="14.00">Control flow</text>
</g>
<!-- c2 -->
<!-- c3 -->
<!-- c2&#45;&gt;c3 -->
<g id="edge52" class="edge">
<title>c2&#45;&gt;c3</title>
<path fill="none" stroke="red" stroke-dasharray="5,2" d="M1745.38,-821C1762.35,-821 1878.51,-821 1916.39,-821"/>
<polygon fill="red" stroke="red" points="1916.47,-824.5 1926.47,-821 1916.47,-817.5 1916.47,-824.5"/>
<text text-anchor="middle" x="1835.8" y="-827.8" font-family="Times,serif" font-size="14.00">Control flow back edge</text>
</g>
<!-- d0 -->
<!-- d1 -->
<!-- d0&#45;&gt;d1 -->
<g id="edge53" class="edge">
<title>d0&#45;&gt;d1</title>
<path fill="none" stroke="black" d="M1634.16,-821C1643.71,-821 1687.61,-821 1709.22,-821"/>
<polygon fill="black" stroke="black" points="1709.45,-824.5 1719.45,-821 1709.45,-817.5 1709.45,-824.5"/>
<text text-anchor="middle" x="1676.8" y="-827.8" font-family="Times,serif" font-size="14.00">Data flow</text>
</g>
<!-- d2 -->
<!-- d3 -->
<!-- d2&#45;&gt;d3 -->
<g id="edge54" class="edge">
<title>d2&#45;&gt;d3</title>
<path fill="none" stroke="black" stroke-dasharray="1,5" d="M1508.11,-821C1518.76,-821 1573.77,-821 1598.38,-821"/>
<polygon fill="black" stroke="black" points="1598.45,-824.5 1608.45,-821 1598.45,-817.5 1598.45,-824.5"/>
<text text-anchor="middle" x="1558.3" y="-827.8" font-family="Times,serif" font-size="14.00">Declaration</text>
</g>
<!-- d4 -->
<!-- d5 -->
<!-- d4&#45;&gt;d5 -->
<g id="edge55" class="edge">
<title>d4&#45;&gt;d5</title>
<path fill="none" stroke="blue" d="M1365.4,-821C1378.02,-821 1444.18,-821 1471.98,-821"/>
<polygon fill="blue" stroke="blue" points="1472.14,-824.5 1482.14,-821 1472.14,-817.5 1472.14,-824.5"/>
<text text-anchor="middle" x="1423.8" y="-827.8" font-family="Times,serif" font-size="14.00">PHI Data flow</text>
</g>
<!-- d6 -->
<!-- d7 -->
<!-- d6&#45;&gt;d7 -->
<g id="edge56" class="edge">
<title>d6&#45;&gt;d7</title>
<path fill="none" stroke="green" d="M1242.41,-821C1253.45,-821 1304.97,-821 1328.96,-821"/>
<polygon fill="green" stroke="green" points="1329.21,-824.5 1339.2,-821 1329.2,-817.5 1329.21,-824.5"/>
<text text-anchor="middle" x="1290.8" y="-827.8" font-family="Times,serif" font-size="14.00">Dominance</text>
</g>
</g>
</svg>
