<?xml version="1.0" encoding="UTF-8" standalone="no"?>
<!DOCTYPE svg PUBLIC "-//W3C//DTD SVG 1.1//EN"
 "http://www.w3.org/Graphics/SVG/1.1/DTD/svg11.dtd">
<!-- Generated by graphviz version 2.43.0 (0)
 -->
<!-- Title: %3 Pages: 1 -->
<svg width="1227pt" height="432pt"
 viewBox="0.00 0.00 1226.50 431.80" xmlns="http://www.w3.org/2000/svg" xmlns:xlink="http://www.w3.org/1999/xlink">
<g id="graph0" class="graph" transform="scale(1 1) rotate(0) translate(4 427.8)">
<title>%3</title>
<polygon fill="white" stroke="transparent" points="-4,4 -4,-427.8 1222.5,-427.8 1222.5,4 -4,4"/>
<g id="clust1" class="cluster">
<title>cluster_000</title>
<polygon fill="none" stroke="black" points="874.5,-373.2 874.5,-415.8 1210.5,-415.8 1210.5,-373.2 874.5,-373.2"/>
<text text-anchor="middle" x="1042.5" y="-400.6" font-family="Times,serif" font-size="14.00">Legend</text>
</g>
<!-- node0 -->
<g id="node1" class="node">
<title>node0</title>
<polygon fill="lightgrey" stroke="black" points="864.5,-401 44.5,-401 44.5,-365 864.5,-365 864.5,-401"/>
<text text-anchor="middle" x="454.5" y="-379.3" font-family="Times,serif" font-size="14.00">#0 LocalVariable[name=this, slot=0, type=Lde/mirkosertic/metair/ir/examples/MethodInvocationTest;] Order: 0</text>
</g>
<!-- node1 -->
<g id="node2" class="node">
<title>node1</title>
<polygon fill="lightgrey" stroke="black" points="694,-328 215,-328 215,-292 694,-292 694,-328"/>
<text text-anchor="middle" x="454.5" y="-306.3" font-family="Times,serif" font-size="14.00">#1 Label[context=CodeModel[id=1770437551], bci=0] Order: 1</text>
</g>
<!-- node0&#45;&gt;node1 -->
<g id="edge1" class="edge">
<title>node0&#45;&gt;node1</title>
<path fill="none" stroke="red" d="M454.5,-364.81C454.5,-356.79 454.5,-347.05 454.5,-338.07"/>
<polygon fill="red" stroke="red" points="458,-338.03 454.5,-328.03 451,-338.03 458,-338.03"/>
</g>
<!-- node2 -->
<g id="node3" class="node">
<title>node2</title>
<polygon fill="lightgrey" stroke="black" points="590.5,-255 318.5,-255 318.5,-219 590.5,-219 590.5,-255"/>
<text text-anchor="middle" x="454.5" y="-233.3" font-family="Times,serif" font-size="14.00">#2 LineNumber[line=139] Order: 2</text>
</g>
<!-- node1&#45;&gt;node2 -->
<g id="edge2" class="edge">
<title>node1&#45;&gt;node2</title>
<path fill="none" stroke="red" d="M454.5,-291.81C454.5,-283.79 454.5,-274.05 454.5,-265.07"/>
<polygon fill="red" stroke="red" points="458,-265.03 454.5,-255.03 451,-265.03 458,-265.03"/>
</g>
<!-- node3 -->
<g id="node4" class="node">
<title>node3</title>
<polygon fill="lightgrey" stroke="black" points="656.5,-182 252.5,-182 252.5,-146 656.5,-146 656.5,-182"/>
<text text-anchor="middle" x="454.5" y="-160.3" font-family="Times,serif" font-size="14.00">#3 ArgumentConstant[OP=BIPUSH, val=10] Order: 3</text>
</g>
<!-- node2&#45;&gt;node3 -->
<g id="edge3" class="edge">
<title>node2&#45;&gt;node3</title>
<path fill="none" stroke="red" d="M454.5,-218.81C454.5,-210.79 454.5,-201.05 454.5,-192.07"/>
<polygon fill="red" stroke="red" points="458,-192.03 454.5,-182.03 451,-192.03 458,-192.03"/>
</g>
<!-- node4 -->
<g id="node5" class="node">
<title>node4</title>
<polygon fill="lightgrey" stroke="black" points="909,-109 0,-109 0,-73 909,-73 909,-109"/>
<text text-anchor="middle" x="454.5" y="-87.3" font-family="Times,serif" font-size="14.00">#4 Invoke[OP=INVOKESTATIC, m=de/mirkosertic/metair/ir/examples/MethodInvocationTest.staticReturnChar(C)C] Order: 4</text>
</g>
<!-- node3&#45;&gt;node4 -->
<g id="edge4" class="edge">
<title>node3&#45;&gt;node4</title>
<path fill="none" stroke="red" d="M454.5,-145.81C454.5,-137.79 454.5,-128.05 454.5,-119.07"/>
<polygon fill="red" stroke="red" points="458,-119.03 454.5,-109.03 451,-119.03 458,-119.03"/>
</g>
<!-- node5 -->
<g id="node6" class="node">
<title>node5</title>
<polygon fill="lightgrey" stroke="black" points="589,-36 320,-36 320,0 589,0 589,-36"/>
<text text-anchor="middle" x="454.5" y="-14.3" font-family="Times,serif" font-size="14.00">#5 Return[OP=IRETURN] Order: 5</text>
</g>
<!-- node4&#45;&gt;node5 -->
<g id="edge5" class="edge">
<title>node4&#45;&gt;node5</title>
<path fill="none" stroke="red" d="M454.5,-72.81C454.5,-64.79 454.5,-55.05 454.5,-46.07"/>
<polygon fill="red" stroke="red" points="458,-46.03 454.5,-36.03 451,-46.03 458,-46.03"/>
</g>
<!-- c0 -->
<!-- c1 -->
<!-- c0&#45;&gt;c1 -->
<g id="edge6" class="edge">
<title>c0&#45;&gt;c1</title>
<path fill="none" stroke="red" d="M1093.39,-383C1104.61,-383 1162.74,-383 1188.36,-383"/>
<polygon fill="red" stroke="red" points="1188.56,-386.5 1198.56,-383 1188.56,-379.5 1188.56,-386.5"/>
<text text-anchor="middle" x="1146" y="-389.8" font-family="Times,serif" font-size="14.00">Control flow</text>
</g>
<!-- c2 -->
<!-- c3 -->
<!-- c2&#45;&gt;c3 -->
<g id="edge7" class="edge">
<title>c2&#45;&gt;c3</title>
<path fill="none" stroke="red" stroke-dasharray="5,2" d="M886.58,-383C903.55,-383 1019.71,-383 1057.58,-383"/>
<polygon fill="red" stroke="red" points="1057.67,-386.5 1067.67,-383 1057.67,-379.5 1057.67,-386.5"/>
<text text-anchor="middle" x="977" y="-389.8" font-family="Times,serif" font-size="14.00">Control flow back edge</text>
</g>
</g>
</svg>
