<?xml version="1.0" encoding="UTF-8" standalone="no"?>
<!DOCTYPE svg PUBLIC "-//W3C//DTD SVG 1.1//EN"
 "http://www.w3.org/Graphics/SVG/1.1/DTD/svg11.dtd">
<!-- Generated by graphviz version 2.43.0 (0)
 -->
<!-- Title: %3 Pages: 1 -->
<svg width="1384pt" height="806pt"
 viewBox="0.00 0.00 1384.28 805.80" xmlns="http://www.w3.org/2000/svg" xmlns:xlink="http://www.w3.org/1999/xlink">
<g id="graph0" class="graph" transform="scale(1 1) rotate(0) translate(4 801.8)">
<title>%3</title>
<polygon fill="white" stroke="transparent" points="-4,4 -4,-801.8 1380.28,-801.8 1380.28,4 -4,4"/>
<g id="clust1" class="cluster">
<title>cluster_0</title>
<polygon fill="none" stroke="lightgray" points="376.28,-576 376.28,-701 512.28,-701 512.28,-576 376.28,-576"/>
</g>
<g id="clust2" class="cluster">
<title>cluster_1</title>
<polygon fill="none" stroke="lightgray" points="165.28,-284 165.28,-409 391.28,-409 391.28,-284 165.28,-284"/>
</g>
<g id="clust3" class="cluster">
<title>cluster_2</title>
<polygon fill="none" stroke="lightgray" points="85.28,-503 85.28,-628 331.28,-628 331.28,-503 85.28,-503"/>
</g>
<g id="clust4" class="cluster">
<title>cluster_000</title>
<polygon fill="none" stroke="black" points="515.28,-747.2 515.28,-789.8 1368.28,-789.8 1368.28,-747.2 515.28,-747.2"/>
<text text-anchor="middle" x="941.78" y="-774.6" font-family="Times,serif" font-size="14.00">Legend</text>
</g>
<!-- node0 -->
<g id="node1" class="node">
<title>node0</title>
<polygon fill="lightgrey" stroke="transparent" points="505.78,-784 382.78,-784 382.78,-730 505.78,-730 505.78,-784"/>
<polygon fill="none" stroke="black" points="383.28,-757 383.28,-784 506.28,-784 506.28,-757 383.28,-757"/>
<text text-anchor="start" x="404.28" y="-766.8" font-family="Times,serif" font-size="14.00">#0 Method</text>
<polygon fill="yellow" stroke="transparent" points="383.28,-730 383.28,-757 506.28,-757 506.28,-730 383.28,-730"/>
<polygon fill="none" stroke="black" points="383.28,-730 383.28,-757 506.28,-757 506.28,-730 383.28,-730"/>
<text text-anchor="start" x="389.28" y="-739.8" font-family="Times,serif" font-size="14.00">this : ArrayTest</text>
</g>
<!-- node5 -->
<g id="node2" class="node">
<title>node5</title>
<polygon fill="orange" stroke="black" points="595.74,-448.54 595.74,-463.46 515.8,-474 402.76,-474 322.83,-463.46 322.83,-448.54 402.76,-438 515.8,-438 595.74,-448.54"/>
<text text-anchor="middle" x="459.28" y="-452.3" font-family="Times,serif" font-size="14.00">#5 NewArray : boolean[]</text>
</g>
<!-- node0&#45;&gt;node5 -->
<g id="edge2" class="edge">
<title>node0&#45;&gt;node5</title>
<path fill="none" stroke="green" d="M396.89,-729.75C386.98,-721.88 377.86,-712.28 372.28,-701 347.65,-651.2 355.03,-628.81 372.28,-576 384.36,-539 412.79,-503.97 433.88,-481.62"/>
<polygon fill="green" stroke="green" points="436.56,-483.89 440.99,-474.26 431.53,-479.02 436.56,-483.89"/>
</g>
<!-- node2 -->
<g id="node4" class="node">
<title>node2</title>
<polygon fill="lightgrey" stroke="black" points="503.78,-693 384.78,-693 384.78,-657 503.78,-657 503.78,-693"/>
<text text-anchor="middle" x="444.28" y="-671.3" font-family="Times,serif" font-size="14.00">#2 LabelNode</text>
</g>
<!-- node0&#45;&gt;node2 -->
<g id="edge4" class="edge">
<title>node0&#45;&gt;node2</title>
<path fill="none" stroke="red" d="M444.28,-729.81C444.28,-721.35 444.28,-711.95 444.28,-703.4"/>
<polygon fill="red" stroke="red" points="447.78,-703.17 444.28,-693.17 440.78,-703.17 447.78,-703.17"/>
</g>
<!-- node10 -->
<g id="node6" class="node">
<title>node10</title>
<polygon fill="lightgrey" stroke="black" points="382.78,-401 173.78,-401 173.78,-365 382.78,-365 382.78,-401"/>
<text text-anchor="middle" x="278.28" y="-379.3" font-family="Times,serif" font-size="14.00">#10 ArrayStore : boolean[]</text>
</g>
<!-- node5&#45;&gt;node10 -->
<g id="edge6" class="edge">
<title>node5&#45;&gt;node10</title>
<path fill="none" stroke="black" d="M410.07,-437.99C383.68,-428.06 351.38,-415.43 325.33,-404.89"/>
<polygon fill="black" stroke="black" points="326.62,-401.64 316.04,-401.11 323.98,-408.12 326.62,-401.64"/>
<text text-anchor="middle" x="336.01" y="-396.41" font-family="Times,serif" font-size="14.00">*0</text>
</g>
<!-- node5&#45;&gt;node10 -->
<g id="edge9" class="edge">
<title>node5&#45;&gt;node10</title>
<path fill="none" stroke="green" d="M421.79,-437.99C397.4,-428.01 365.17,-415.32 337.4,-404.76"/>
<polygon fill="green" stroke="green" points="338.37,-401.38 327.78,-401.11 335.89,-407.93 338.37,-401.38"/>
</g>
<!-- node12 -->
<g id="node11" class="node">
<title>node12</title>
<polygon fill="lightgrey" stroke="black" points="358.28,-255 164.28,-255 164.28,-219 358.28,-219 358.28,-255"/>
<text text-anchor="middle" x="261.28" y="-233.3" font-family="Times,serif" font-size="14.00">#12 ArrayLoad : boolean</text>
</g>
<!-- node5&#45;&gt;node12 -->
<g id="edge15" class="edge">
<title>node5&#45;&gt;node12</title>
<path fill="none" stroke="black" d="M446.73,-437.76C441.09,-429.39 434.72,-419.01 430.28,-409 406.87,-356.27 434.88,-325.95 395.28,-284 385.33,-273.46 372.87,-265.34 359.58,-259.08"/>
<polygon fill="black" stroke="black" points="360.82,-255.81 350.26,-255.03 358.04,-262.23 360.82,-255.81"/>
<text text-anchor="middle" x="370.25" y="-250.8" font-family="Times,serif" font-size="14.00">*0</text>
</g>
<!-- node8 -->
<g id="node16" class="node">
<title>node8</title>
<polygon fill="orange" stroke="black" points="625,-375.54 625,-390.46 570.69,-401 493.87,-401 439.56,-390.46 439.56,-375.54 493.87,-365 570.69,-365 625,-375.54"/>
<text text-anchor="middle" x="532.28" y="-379.3" font-family="Times,serif" font-size="14.00">#8 ArrayLength</text>
</g>
<!-- node5&#45;&gt;node8 -->
<g id="edge24" class="edge">
<title>node5&#45;&gt;node8</title>
<path fill="none" stroke="black" d="M476.95,-437.81C486.1,-428.92 497.42,-417.91 507.43,-408.17"/>
<polygon fill="black" stroke="black" points="510.04,-410.51 514.77,-401.03 505.16,-405.49 510.04,-410.51"/>
<text text-anchor="middle" x="507.67" y="-416.03" font-family="Times,serif" font-size="14.00">*0</text>
</g>
<!-- node4 -->
<g id="node3" class="node">
<title>node4</title>
<polygon fill="lightgreen" stroke="black" points="504.47,-594.54 504.47,-609.46 469.8,-620 420.76,-620 386.09,-609.46 386.09,-594.54 420.76,-584 469.8,-584 504.47,-594.54"/>
<text text-anchor="middle" x="445.28" y="-598.3" font-family="Times,serif" font-size="14.00">#4 int 10</text>
</g>
<!-- node4&#45;&gt;node5 -->
<g id="edge1" class="edge">
<title>node4&#45;&gt;node5</title>
<path fill="none" stroke="black" d="M446.94,-583.92C449.34,-559.23 453.8,-513.35 456.65,-484.04"/>
<polygon fill="black" stroke="black" points="460.14,-484.35 457.62,-474.06 453.17,-483.68 460.14,-484.35"/>
<text text-anchor="middle" x="464.28" y="-489.22" font-family="Times,serif" font-size="14.00">*0</text>
</g>
<!-- node2&#45;&gt;node4 -->
<g id="edge3" class="edge">
<title>node2&#45;&gt;node4</title>
<path fill="none" stroke="black" stroke-dasharray="1,5" d="M444.52,-656.81C444.64,-648.79 444.77,-639.05 444.9,-630.07"/>
<polygon fill="black" stroke="black" points="448.4,-630.08 445.04,-620.03 441.4,-629.98 448.4,-630.08"/>
</g>
<!-- node3 -->
<g id="node5" class="node">
<title>node3</title>
<polygon fill="lightgrey" stroke="black" points="235.78,-620 116.78,-620 116.78,-584 235.78,-584 235.78,-620"/>
<text text-anchor="middle" x="176.28" y="-598.3" font-family="Times,serif" font-size="14.00">#3 LabelNode</text>
</g>
<!-- node2&#45;&gt;node3 -->
<g id="edge5" class="edge">
<title>node2&#45;&gt;node3</title>
<path fill="none" stroke="red" d="M384.47,-658.15C343.39,-647.27 288.74,-632.79 245.73,-621.4"/>
<polygon fill="red" stroke="red" points="246.47,-617.97 235.91,-618.8 244.68,-624.74 246.47,-617.97"/>
</g>
<!-- node3&#45;&gt;node10 -->
<g id="edge10" class="edge">
<title>node3&#45;&gt;node10</title>
<path fill="none" stroke="red" d="M135.35,-583.96C72.72,-555.5 -34.91,-495.73 12.28,-438 31.78,-414.15 100.75,-400.57 163.57,-393"/>
<polygon fill="red" stroke="red" points="164.07,-396.47 173.59,-391.84 163.26,-389.51 164.07,-396.47"/>
</g>
<!-- node6 -->
<g id="node7" class="node">
<title>node6</title>
<polygon fill="lightgreen" stroke="black" points="322.81,-521.54 322.81,-536.46 292.04,-547 248.52,-547 217.76,-536.46 217.76,-521.54 248.52,-511 292.04,-511 322.81,-521.54"/>
<text text-anchor="middle" x="270.28" y="-525.3" font-family="Times,serif" font-size="14.00">#6 int 0</text>
</g>
<!-- node3&#45;&gt;node6 -->
<g id="edge13" class="edge">
<title>node3&#45;&gt;node6</title>
<path fill="none" stroke="black" stroke-dasharray="1,5" d="M199.04,-583.81C211.16,-574.66 226.25,-563.26 239.41,-553.32"/>
<polygon fill="black" stroke="black" points="241.87,-555.85 247.74,-547.03 237.65,-550.26 241.87,-555.85"/>
</g>
<!-- node7 -->
<g id="node9" class="node">
<title>node7</title>
<polygon fill="lightgreen" stroke="black" points="198.81,-521.54 198.81,-536.46 168.04,-547 124.52,-547 93.76,-536.46 93.76,-521.54 124.52,-511 168.04,-511 198.81,-521.54"/>
<text text-anchor="middle" x="146.28" y="-525.3" font-family="Times,serif" font-size="14.00">#7 int 1</text>
</g>
<!-- node3&#45;&gt;node7 -->
<g id="edge12" class="edge">
<title>node3&#45;&gt;node7</title>
<path fill="none" stroke="black" stroke-dasharray="1,5" d="M169.02,-583.81C165.55,-575.62 161.33,-565.62 157.47,-556.48"/>
<polygon fill="black" stroke="black" points="160.59,-554.88 153.48,-547.03 154.14,-557.6 160.59,-554.88"/>
</g>
<!-- node11 -->
<g id="node10" class="node">
<title>node11</title>
<polygon fill="lightgreen" stroke="black" points="383.47,-302.54 383.47,-317.46 348.8,-328 299.76,-328 265.09,-317.46 265.09,-302.54 299.76,-292 348.8,-292 383.47,-302.54"/>
<text text-anchor="middle" x="324.28" y="-306.3" font-family="Times,serif" font-size="14.00">#11 int 1</text>
</g>
<!-- node10&#45;&gt;node11 -->
<g id="edge14" class="edge">
<title>node10&#45;&gt;node11</title>
<path fill="none" stroke="black" stroke-dasharray="1,5" d="M289.42,-364.81C294.9,-356.35 301.61,-345.98 307.69,-336.61"/>
<polygon fill="black" stroke="black" points="310.75,-338.32 313.25,-328.03 304.87,-334.52 310.75,-338.32"/>
</g>
<!-- node10&#45;&gt;node12 -->
<g id="edge17" class="edge">
<title>node10&#45;&gt;node12</title>
<path fill="none" stroke="green" d="M261.27,-364.54C255.27,-354.22 249.77,-340.72 247.28,-328 243.18,-307.07 244.86,-282.93 248.69,-264.92"/>
<polygon fill="green" stroke="green" points="252.11,-265.64 251.16,-255.09 245.33,-263.94 252.11,-265.64"/>
</g>
<!-- node10&#45;&gt;node12 -->
<g id="edge18" class="edge">
<title>node10&#45;&gt;node12</title>
<path fill="none" stroke="red" d="M277.02,-364.54C273.27,-354.22 267.77,-340.72 265.28,-328 261.2,-307.17 262.85,-283.15 263.96,-265.17"/>
<polygon fill="red" stroke="red" points="267.46,-265.27 264.52,-255.09 260.47,-264.88 267.46,-265.27"/>
</g>
<!-- node6&#45;&gt;node10 -->
<g id="edge7" class="edge">
<title>node6&#45;&gt;node10</title>
<path fill="none" stroke="black" d="M272.62,-510.52C273.93,-499.97 275.47,-486.24 276.28,-474 277.68,-452.98 278.16,-429.15 278.3,-411.29"/>
<polygon fill="black" stroke="black" points="281.8,-411.29 278.35,-401.27 274.8,-411.26 281.8,-411.29"/>
<text text-anchor="middle" x="286.71" y="-415.74" font-family="Times,serif" font-size="14.00">*1</text>
</g>
<!-- node9 -->
<g id="node8" class="node">
<title>node9</title>
<polygon fill="orange" stroke="black" points="267.5,-448.54 267.5,-463.46 195.32,-474 93.24,-474 21.06,-463.46 21.06,-448.54 93.24,-438 195.32,-438 267.5,-448.54"/>
<text text-anchor="middle" x="144.28" y="-452.3" font-family="Times,serif" font-size="14.00">#9 Truncate : boolean</text>
</g>
<!-- node9&#45;&gt;node10 -->
<g id="edge8" class="edge">
<title>node9&#45;&gt;node10</title>
<path fill="none" stroke="black" d="M176.38,-437.99C194.56,-428.36 217.5,-416.21 237,-405.87"/>
<polygon fill="black" stroke="black" points="238.78,-408.89 245.98,-401.11 235.51,-402.7 238.78,-408.89"/>
<text text-anchor="middle" x="233.92" y="-413.37" font-family="Times,serif" font-size="14.00">*2</text>
</g>
<!-- node7&#45;&gt;node9 -->
<g id="edge11" class="edge">
<title>node7&#45;&gt;node9</title>
<path fill="none" stroke="black" d="M145.8,-510.81C145.57,-502.79 145.3,-493.05 145.04,-484.07"/>
<polygon fill="black" stroke="black" points="148.54,-483.93 144.76,-474.03 141.54,-484.12 148.54,-483.93"/>
<text text-anchor="middle" x="153.72" y="-488.21" font-family="Times,serif" font-size="14.00">*0</text>
</g>
<!-- node11&#45;&gt;node12 -->
<g id="edge16" class="edge">
<title>node11&#45;&gt;node12</title>
<path fill="none" stroke="black" d="M309.03,-291.81C301.29,-283.09 291.75,-272.34 283.24,-262.75"/>
<polygon fill="black" stroke="black" points="285.65,-260.19 276.39,-255.03 280.41,-264.83 285.65,-260.19"/>
<text text-anchor="middle" x="294.74" y="-259.28" font-family="Times,serif" font-size="14.00">*1</text>
</g>
<!-- node14 -->
<g id="node12" class="node">
<title>node14</title>
<polygon fill="lightgrey" stroke="black" points="558.28,-182 430.28,-182 430.28,-146 558.28,-146 558.28,-182"/>
<text text-anchor="middle" x="494.28" y="-160.3" font-family="Times,serif" font-size="14.00">#14 LabelNode</text>
</g>
<!-- node12&#45;&gt;node14 -->
<g id="edge19" class="edge">
<title>node12&#45;&gt;node14</title>
<path fill="none" stroke="red" d="M317.09,-218.99C350.56,-208.79 393.31,-195.77 428.43,-185.07"/>
<polygon fill="red" stroke="red" points="429.57,-188.38 438.12,-182.11 427.53,-181.68 429.57,-188.38"/>
</g>
<!-- node16 -->
<g id="node14" class="node">
<title>node16</title>
<polygon fill="lightgrey" stroke="black" points="544.78,-36 443.78,-36 443.78,0 544.78,0 544.78,-36"/>
<text text-anchor="middle" x="494.28" y="-14.3" font-family="Times,serif" font-size="14.00">#16 Return</text>
</g>
<!-- node12&#45;&gt;node16 -->
<g id="edge22" class="edge">
<title>node12&#45;&gt;node16</title>
<path fill="none" stroke="green" d="M309.88,-218.93C333.07,-209.7 360.63,-197.09 383.28,-182 402.64,-169.1 400.9,-157.22 421.28,-146 479.92,-113.71 526.17,-161.83 567.28,-109 577.11,-96.37 574.48,-87.29 567.28,-73 560.88,-60.31 549.94,-49.87 538.45,-41.66"/>
<polygon fill="green" stroke="green" points="540.31,-38.69 530.04,-36.07 536.44,-44.52 540.31,-38.69"/>
</g>
<!-- node13 -->
<g id="node15" class="node">
<title>node13</title>
<polygon fill="orange" stroke="black" points="374.72,-156.54 374.72,-171.46 301.24,-182 197.32,-182 123.84,-171.46 123.84,-156.54 197.32,-146 301.24,-146 374.72,-156.54"/>
<text text-anchor="middle" x="249.28" y="-160.3" font-family="Times,serif" font-size="14.00">#13 Extend : SIGN int</text>
</g>
<!-- node12&#45;&gt;node13 -->
<g id="edge23" class="edge">
<title>node12&#45;&gt;node13</title>
<path fill="none" stroke="black" d="M258.38,-218.81C257.02,-210.79 255.37,-201.05 253.86,-192.07"/>
<polygon fill="black" stroke="black" points="257.28,-191.31 252.16,-182.03 250.37,-192.47 257.28,-191.31"/>
<text text-anchor="middle" x="263.51" y="-194.79" font-family="Times,serif" font-size="14.00">*0</text>
</g>
<!-- node15 -->
<g id="node13" class="node">
<title>node15</title>
<polygon fill="lightgrey" stroke="black" points="558.28,-109 430.28,-109 430.28,-73 558.28,-73 558.28,-109"/>
<text text-anchor="middle" x="494.28" y="-87.3" font-family="Times,serif" font-size="14.00">#15 LabelNode</text>
</g>
<!-- node14&#45;&gt;node15 -->
<g id="edge20" class="edge">
<title>node14&#45;&gt;node15</title>
<path fill="none" stroke="red" d="M494.28,-145.81C494.28,-137.79 494.28,-128.05 494.28,-119.07"/>
<polygon fill="red" stroke="red" points="497.78,-119.03 494.28,-109.03 490.78,-119.03 497.78,-119.03"/>
</g>
<!-- node15&#45;&gt;node16 -->
<g id="edge21" class="edge">
<title>node15&#45;&gt;node16</title>
<path fill="none" stroke="red" d="M494.28,-72.81C494.28,-64.79 494.28,-55.05 494.28,-46.07"/>
<polygon fill="red" stroke="red" points="497.78,-46.03 494.28,-36.03 490.78,-46.03 497.78,-46.03"/>
</g>
<!-- c0 -->
<!-- c1 -->
<!-- c0&#45;&gt;c1 -->
<g id="edge25" class="edge">
<title>c0&#45;&gt;c1</title>
<path fill="none" stroke="red" d="M1251.17,-757C1262.39,-757 1320.52,-757 1346.14,-757"/>
<polygon fill="red" stroke="red" points="1346.34,-760.5 1356.34,-757 1346.34,-753.5 1346.34,-760.5"/>
<text text-anchor="middle" x="1303.78" y="-763.8" font-family="Times,serif" font-size="14.00">Control flow</text>
</g>
<!-- c2 -->
<!-- c3 -->
<!-- c2&#45;&gt;c3 -->
<g id="edge26" class="edge">
<title>c2&#45;&gt;c3</title>
<path fill="none" stroke="red" stroke-dasharray="5,2" d="M1044.36,-757C1061.33,-757 1177.49,-757 1215.36,-757"/>
<polygon fill="red" stroke="red" points="1215.45,-760.5 1225.45,-757 1215.45,-753.5 1215.45,-760.5"/>
<text text-anchor="middle" x="1134.78" y="-763.8" font-family="Times,serif" font-size="14.00">Control flow back edge</text>
</g>
<!-- d0 -->
<!-- d1 -->
<!-- d0&#45;&gt;d1 -->
<g id="edge27" class="edge">
<title>d0&#45;&gt;d1</title>
<path fill="none" stroke="black" d="M933.14,-757C942.69,-757 986.59,-757 1008.2,-757"/>
<polygon fill="black" stroke="black" points="1008.43,-760.5 1018.43,-757 1008.43,-753.5 1008.43,-760.5"/>
<text text-anchor="middle" x="975.78" y="-763.8" font-family="Times,serif" font-size="14.00">Data flow</text>
</g>
<!-- d2 -->
<!-- d3 -->
<!-- d2&#45;&gt;d3 -->
<g id="edge28" class="edge">
<title>d2&#45;&gt;d3</title>
<path fill="none" stroke="black" stroke-dasharray="1,5" d="M807.09,-757C817.74,-757 872.75,-757 897.36,-757"/>
<polygon fill="black" stroke="black" points="897.43,-760.5 907.43,-757 897.43,-753.5 897.43,-760.5"/>
<text text-anchor="middle" x="857.28" y="-763.8" font-family="Times,serif" font-size="14.00">Declaration</text>
</g>
<!-- d4 -->
<!-- d5 -->
<!-- d4&#45;&gt;d5 -->
<g id="edge29" class="edge">
<title>d4&#45;&gt;d5</title>
<path fill="none" stroke="blue" d="M664.38,-757C677,-757 743.16,-757 770.96,-757"/>
<polygon fill="blue" stroke="blue" points="771.12,-760.5 781.12,-757 771.12,-753.5 771.12,-760.5"/>
<text text-anchor="middle" x="722.78" y="-763.8" font-family="Times,serif" font-size="14.00">PHI Data flow</text>
</g>
<!-- d6 -->
<!-- d7 -->
<!-- d6&#45;&gt;d7 -->
<g id="edge30" class="edge">
<title>d6&#45;&gt;d7</title>
<path fill="none" stroke="green" d="M527.28,-757C539.22,-757 601.58,-757 628.21,-757"/>
<polygon fill="green" stroke="green" points="628.23,-760.5 638.23,-757 628.23,-753.5 628.23,-760.5"/>
<text text-anchor="middle" x="582.78" y="-763.8" font-family="Times,serif" font-size="14.00">Memory flow</text>
</g>
</g>
</svg>
