<?xml version="1.0" encoding="UTF-8" standalone="no"?>
<!DOCTYPE svg PUBLIC "-//W3C//DTD SVG 1.1//EN"
 "http://www.w3.org/Graphics/SVG/1.1/DTD/svg11.dtd">
<!-- Generated by graphviz version 2.43.0 (0)
 -->
<!-- Title: %3 Pages: 1 -->
<svg width="1395pt" height="806pt"
 viewBox="0.00 0.00 1395.08 805.80" xmlns="http://www.w3.org/2000/svg" xmlns:xlink="http://www.w3.org/1999/xlink">
<g id="graph0" class="graph" transform="scale(1 1) rotate(0) translate(4 801.8)">
<title>%3</title>
<polygon fill="white" stroke="transparent" points="-4,4 -4,-801.8 1391.08,-801.8 1391.08,4 -4,4"/>
<g id="clust1" class="cluster">
<title>cluster_0</title>
<polygon fill="none" stroke="lightgray" points="387.08,-576 387.08,-701 523.08,-701 523.08,-576 387.08,-576"/>
</g>
<g id="clust2" class="cluster">
<title>cluster_1</title>
<polygon fill="none" stroke="lightgray" points="165.08,-284 165.08,-409 391.08,-409 391.08,-284 165.08,-284"/>
</g>
<g id="clust3" class="cluster">
<title>cluster_2</title>
<polygon fill="none" stroke="lightgray" points="96.08,-503 96.08,-628 342.08,-628 342.08,-503 96.08,-503"/>
</g>
<g id="clust4" class="cluster">
<title>cluster_000</title>
<polygon fill="none" stroke="black" points="526.08,-747.2 526.08,-789.8 1379.08,-789.8 1379.08,-747.2 526.08,-747.2"/>
<text text-anchor="middle" x="952.58" y="-774.6" font-family="Times,serif" font-size="14.00">Legend</text>
</g>
<!-- node0 -->
<g id="node1" class="node">
<title>node0</title>
<polygon fill="lightgrey" stroke="transparent" points="516.58,-784 393.58,-784 393.58,-730 516.58,-730 516.58,-784"/>
<polygon fill="none" stroke="black" points="394.08,-757 394.08,-784 517.08,-784 517.08,-757 394.08,-757"/>
<text text-anchor="start" x="415.08" y="-766.8" font-family="Times,serif" font-size="14.00">#0 Method</text>
<polygon fill="yellow" stroke="transparent" points="394.08,-730 394.08,-757 517.08,-757 517.08,-730 394.08,-730"/>
<polygon fill="none" stroke="black" points="394.08,-730 394.08,-757 517.08,-757 517.08,-730 394.08,-730"/>
<text text-anchor="start" x="400.08" y="-739.8" font-family="Times,serif" font-size="14.00">this : ArrayTest</text>
</g>
<!-- node5 -->
<g id="node2" class="node">
<title>node5</title>
<polygon fill="orange" stroke="black" points="595.53,-448.54 595.53,-463.46 515.6,-474 402.56,-474 322.62,-463.46 322.62,-448.54 402.56,-438 515.6,-438 595.53,-448.54"/>
<text text-anchor="middle" x="459.08" y="-452.3" font-family="Times,serif" font-size="14.00">#5 NewArray : boolean[]</text>
</g>
<!-- node0&#45;&gt;node5 -->
<g id="edge2" class="edge">
<title>node0&#45;&gt;node5</title>
<path fill="none" stroke="green" d="M407.69,-729.75C397.78,-721.88 388.66,-712.28 383.08,-701 358.45,-651.2 367.5,-629.33 383.08,-576 393.54,-540.16 418.46,-504.85 436.92,-482.12"/>
<polygon fill="green" stroke="green" points="439.69,-484.26 443.39,-474.34 434.31,-479.79 439.69,-484.26"/>
</g>
<!-- node2 -->
<g id="node4" class="node">
<title>node2</title>
<polygon fill="lightgrey" stroke="black" points="514.58,-693 395.58,-693 395.58,-657 514.58,-657 514.58,-693"/>
<text text-anchor="middle" x="455.08" y="-671.3" font-family="Times,serif" font-size="14.00">#2 LabelNode</text>
</g>
<!-- node0&#45;&gt;node2 -->
<g id="edge4" class="edge">
<title>node0&#45;&gt;node2</title>
<path fill="none" stroke="red" d="M455.08,-729.81C455.08,-721.35 455.08,-711.95 455.08,-703.4"/>
<polygon fill="red" stroke="red" points="458.58,-703.17 455.08,-693.17 451.58,-703.17 458.58,-703.17"/>
</g>
<!-- node10 -->
<g id="node6" class="node">
<title>node10</title>
<polygon fill="lightgrey" stroke="black" points="382.58,-401 173.58,-401 173.58,-365 382.58,-365 382.58,-401"/>
<text text-anchor="middle" x="278.08" y="-379.3" font-family="Times,serif" font-size="14.00">#10 ArrayStore : boolean[]</text>
</g>
<!-- node5&#45;&gt;node10 -->
<g id="edge6" class="edge">
<title>node5&#45;&gt;node10</title>
<path fill="none" stroke="black" d="M409.86,-437.99C383.47,-428.06 351.18,-415.43 325.13,-404.89"/>
<polygon fill="black" stroke="black" points="326.42,-401.64 315.83,-401.11 323.78,-408.12 326.42,-401.64"/>
<text text-anchor="middle" x="335.81" y="-396.41" font-family="Times,serif" font-size="14.00">*0</text>
</g>
<!-- node5&#45;&gt;node10 -->
<g id="edge9" class="edge">
<title>node5&#45;&gt;node10</title>
<path fill="none" stroke="green" d="M421.58,-437.99C397.19,-428.01 364.96,-415.32 337.19,-404.76"/>
<polygon fill="green" stroke="green" points="338.17,-401.38 327.58,-401.11 335.69,-407.93 338.17,-401.38"/>
</g>
<!-- node12 -->
<g id="node11" class="node">
<title>node12</title>
<polygon fill="lightgrey" stroke="black" points="388.08,-255 194.08,-255 194.08,-219 388.08,-219 388.08,-255"/>
<text text-anchor="middle" x="291.08" y="-233.3" font-family="Times,serif" font-size="14.00">#12 ArrayLoad : boolean</text>
</g>
<!-- node5&#45;&gt;node12 -->
<g id="edge15" class="edge">
<title>node5&#45;&gt;node12</title>
<path fill="none" stroke="black" d="M446.53,-437.76C440.89,-429.39 434.52,-419.01 430.08,-409 406.67,-356.27 432.84,-327.61 395.08,-284 386.27,-273.83 374.79,-265.82 362.67,-259.53"/>
<polygon fill="black" stroke="black" points="363.85,-256.21 353.32,-255.05 360.83,-262.53 363.85,-256.21"/>
<text text-anchor="middle" x="373.32" y="-251.56" font-family="Times,serif" font-size="14.00">*0</text>
</g>
<!-- node8 -->
<g id="node16" class="node">
<title>node8</title>
<polygon fill="orange" stroke="black" points="624.8,-375.54 624.8,-390.46 570.48,-401 493.67,-401 439.35,-390.46 439.35,-375.54 493.67,-365 570.48,-365 624.8,-375.54"/>
<text text-anchor="middle" x="532.08" y="-379.3" font-family="Times,serif" font-size="14.00">#8 ArrayLength</text>
</g>
<!-- node5&#45;&gt;node8 -->
<g id="edge24" class="edge">
<title>node5&#45;&gt;node8</title>
<path fill="none" stroke="black" d="M476.75,-437.81C485.89,-428.92 497.21,-417.91 507.22,-408.17"/>
<polygon fill="black" stroke="black" points="509.84,-410.51 514.57,-401.03 504.96,-405.49 509.84,-410.51"/>
<text text-anchor="middle" x="507.47" y="-416.03" font-family="Times,serif" font-size="14.00">*0</text>
</g>
<!-- node4 -->
<g id="node3" class="node">
<title>node4</title>
<polygon fill="lightgreen" stroke="black" points="515.26,-594.54 515.26,-609.46 480.59,-620 431.56,-620 396.89,-609.46 396.89,-594.54 431.56,-584 480.59,-584 515.26,-594.54"/>
<text text-anchor="middle" x="456.08" y="-598.3" font-family="Times,serif" font-size="14.00">#4 int 10</text>
</g>
<!-- node4&#45;&gt;node5 -->
<g id="edge1" class="edge">
<title>node4&#45;&gt;node5</title>
<path fill="none" stroke="black" d="M456.43,-583.92C456.94,-559.34 457.89,-513.75 458.51,-484.43"/>
<polygon fill="black" stroke="black" points="462.01,-484.13 458.72,-474.06 455.01,-483.99 462.01,-484.13"/>
<text text-anchor="middle" x="466.79" y="-488.66" font-family="Times,serif" font-size="14.00">*0</text>
</g>
<!-- node2&#45;&gt;node4 -->
<g id="edge3" class="edge">
<title>node2&#45;&gt;node4</title>
<path fill="none" stroke="black" stroke-dasharray="1,5" d="M455.32,-656.81C455.43,-648.79 455.57,-639.05 455.7,-630.07"/>
<polygon fill="black" stroke="black" points="459.2,-630.08 455.84,-620.03 452.2,-629.98 459.2,-630.08"/>
</g>
<!-- node3 -->
<g id="node5" class="node">
<title>node3</title>
<polygon fill="lightgrey" stroke="black" points="223.58,-620 104.58,-620 104.58,-584 223.58,-584 223.58,-620"/>
<text text-anchor="middle" x="164.08" y="-598.3" font-family="Times,serif" font-size="14.00">#3 LabelNode</text>
</g>
<!-- node2&#45;&gt;node3 -->
<g id="edge5" class="edge">
<title>node2&#45;&gt;node3</title>
<path fill="none" stroke="red" d="M395.49,-659.46C348.51,-648 282.91,-631.99 233.55,-619.95"/>
<polygon fill="red" stroke="red" points="234.13,-616.49 223.59,-617.52 232.47,-623.29 234.13,-616.49"/>
</g>
<!-- node3&#45;&gt;node10 -->
<g id="edge10" class="edge">
<title>node3&#45;&gt;node10</title>
<path fill="none" stroke="red" d="M126.45,-583.84C67.95,-554.85 -33.59,-493.87 12.08,-438 31.57,-414.15 100.55,-400.57 163.37,-393"/>
<polygon fill="red" stroke="red" points="163.86,-396.47 173.39,-391.84 163.05,-389.51 163.86,-396.47"/>
</g>
<!-- node7 -->
<g id="node7" class="node">
<title>node7</title>
<polygon fill="lightgreen" stroke="black" points="333.6,-521.54 333.6,-536.46 302.83,-547 259.32,-547 228.55,-536.46 228.55,-521.54 259.32,-511 302.83,-511 333.6,-521.54"/>
<text text-anchor="middle" x="281.08" y="-525.3" font-family="Times,serif" font-size="14.00">#7 int 0</text>
</g>
<!-- node3&#45;&gt;node7 -->
<g id="edge13" class="edge">
<title>node3&#45;&gt;node7</title>
<path fill="none" stroke="black" stroke-dasharray="1,5" d="M192.1,-583.99C208.45,-574.07 229.21,-561.48 246.56,-550.95"/>
<polygon fill="black" stroke="black" points="248.55,-553.83 255.28,-545.65 244.92,-547.85 248.55,-553.83"/>
</g>
<!-- node6 -->
<g id="node9" class="node">
<title>node6</title>
<polygon fill="lightgreen" stroke="black" points="209.6,-521.54 209.6,-536.46 178.83,-547 135.32,-547 104.55,-536.46 104.55,-521.54 135.32,-511 178.83,-511 209.6,-521.54"/>
<text text-anchor="middle" x="157.08" y="-525.3" font-family="Times,serif" font-size="14.00">#6 int 1</text>
</g>
<!-- node3&#45;&gt;node6 -->
<g id="edge12" class="edge">
<title>node3&#45;&gt;node6</title>
<path fill="none" stroke="black" stroke-dasharray="1,5" d="M162.38,-583.81C161.59,-575.79 160.63,-566.05 159.75,-557.07"/>
<polygon fill="black" stroke="black" points="163.22,-556.64 158.76,-547.03 156.25,-557.32 163.22,-556.64"/>
</g>
<!-- node11 -->
<g id="node10" class="node">
<title>node11</title>
<polygon fill="lightgreen" stroke="black" points="383.26,-302.54 383.26,-317.46 348.59,-328 299.56,-328 264.89,-317.46 264.89,-302.54 299.56,-292 348.59,-292 383.26,-302.54"/>
<text text-anchor="middle" x="324.08" y="-306.3" font-family="Times,serif" font-size="14.00">#11 int 1</text>
</g>
<!-- node10&#45;&gt;node11 -->
<g id="edge14" class="edge">
<title>node10&#45;&gt;node11</title>
<path fill="none" stroke="black" stroke-dasharray="1,5" d="M289.21,-364.81C294.69,-356.35 301.41,-345.98 307.48,-336.61"/>
<polygon fill="black" stroke="black" points="310.54,-338.32 313.04,-328.03 304.67,-334.52 310.54,-338.32"/>
</g>
<!-- node10&#45;&gt;node12 -->
<g id="edge17" class="edge">
<title>node10&#45;&gt;node12</title>
<path fill="none" stroke="green" d="M262.07,-364.71C249.97,-344.89 237.77,-311.59 247.08,-284 249.6,-276.51 253.89,-269.28 258.87,-262.85"/>
<polygon fill="green" stroke="green" points="261.6,-265.04 265.48,-255.18 256.3,-260.47 261.6,-265.04"/>
</g>
<!-- node10&#45;&gt;node12 -->
<g id="edge18" class="edge">
<title>node10&#45;&gt;node12</title>
<path fill="none" stroke="red" d="M275.08,-364.71C267.97,-344.89 255.77,-311.59 265.08,-284 267.55,-276.68 271.7,-269.6 276.05,-263.28"/>
<polygon fill="red" stroke="red" points="278.89,-265.32 281.97,-255.18 273.24,-261.19 278.89,-265.32"/>
</g>
<!-- node7&#45;&gt;node10 -->
<g id="edge7" class="edge">
<title>node7&#45;&gt;node10</title>
<path fill="none" stroke="black" d="M280.72,-510.92C280.21,-486.34 279.26,-440.75 278.65,-411.43"/>
<polygon fill="black" stroke="black" points="282.14,-410.99 278.43,-401.06 275.14,-411.13 282.14,-410.99"/>
<text text-anchor="middle" x="287.26" y="-415.31" font-family="Times,serif" font-size="14.00">*1</text>
</g>
<!-- node9 -->
<g id="node8" class="node">
<title>node9</title>
<polygon fill="orange" stroke="black" points="267.3,-448.54 267.3,-463.46 195.12,-474 93.04,-474 20.85,-463.46 20.85,-448.54 93.04,-438 195.12,-438 267.3,-448.54"/>
<text text-anchor="middle" x="144.08" y="-452.3" font-family="Times,serif" font-size="14.00">#9 Truncate : boolean</text>
</g>
<!-- node9&#45;&gt;node10 -->
<g id="edge8" class="edge">
<title>node9&#45;&gt;node10</title>
<path fill="none" stroke="black" d="M176.17,-437.99C194.35,-428.36 217.29,-416.21 236.8,-405.87"/>
<polygon fill="black" stroke="black" points="238.58,-408.89 245.78,-401.11 235.3,-402.7 238.58,-408.89"/>
<text text-anchor="middle" x="233.72" y="-413.37" font-family="Times,serif" font-size="14.00">*2</text>
</g>
<!-- node6&#45;&gt;node9 -->
<g id="edge11" class="edge">
<title>node6&#45;&gt;node9</title>
<path fill="none" stroke="black" d="M153.93,-510.81C152.46,-502.79 150.68,-493.05 149.03,-484.07"/>
<polygon fill="black" stroke="black" points="152.44,-483.23 147.2,-474.03 145.55,-484.5 152.44,-483.23"/>
<text text-anchor="middle" x="158.77" y="-486.64" font-family="Times,serif" font-size="14.00">*0</text>
</g>
<!-- node11&#45;&gt;node12 -->
<g id="edge16" class="edge">
<title>node11&#45;&gt;node12</title>
<path fill="none" stroke="black" d="M316.09,-291.81C312.24,-283.53 307.54,-273.41 303.25,-264.19"/>
<polygon fill="black" stroke="black" points="306.38,-262.62 298.99,-255.03 300.03,-265.57 306.38,-262.62"/>
<text text-anchor="middle" x="314.3" y="-264.2" font-family="Times,serif" font-size="14.00">*1</text>
</g>
<!-- node13 -->
<g id="node12" class="node">
<title>node13</title>
<polygon fill="orange" stroke="black" points="616.52,-156.54 616.52,-171.46 543.04,-182 439.12,-182 365.63,-171.46 365.63,-156.54 439.12,-146 543.04,-146 616.52,-156.54"/>
<text text-anchor="middle" x="491.08" y="-160.3" font-family="Times,serif" font-size="14.00">#13 Extend : SIGN int</text>
</g>
<!-- node12&#45;&gt;node13 -->
<g id="edge19" class="edge">
<title>node12&#45;&gt;node13</title>
<path fill="none" stroke="black" d="M338.98,-218.99C367.35,-208.92 403.47,-196.1 433.39,-185.48"/>
<polygon fill="black" stroke="black" points="434.62,-188.76 442.87,-182.11 432.28,-182.16 434.62,-188.76"/>
<text text-anchor="middle" x="428.62" y="-192.44" font-family="Times,serif" font-size="14.00">*0</text>
</g>
<!-- node16 -->
<g id="node13" class="node">
<title>node16</title>
<polygon fill="lightgrey" stroke="black" points="296.58,-36 195.58,-36 195.58,0 296.58,0 296.58,-36"/>
<text text-anchor="middle" x="246.08" y="-14.3" font-family="Times,serif" font-size="14.00">#16 Return</text>
</g>
<!-- node12&#45;&gt;node16 -->
<g id="edge21" class="edge">
<title>node12&#45;&gt;node16</title>
<path fill="none" stroke="green" d="M304.96,-218.75C318.83,-199.3 335.86,-167.57 319.08,-146 277.97,-93.17 214.19,-161.83 173.08,-109 163.25,-96.37 165.87,-87.29 173.08,-73 179.47,-60.31 190.41,-49.87 201.91,-41.66"/>
<polygon fill="green" stroke="green" points="203.92,-44.52 210.31,-36.07 200.05,-38.69 203.92,-44.52"/>
</g>
<!-- node14 -->
<g id="node15" class="node">
<title>node14</title>
<polygon fill="lightgrey" stroke="black" points="310.08,-182 182.08,-182 182.08,-146 310.08,-146 310.08,-182"/>
<text text-anchor="middle" x="246.08" y="-160.3" font-family="Times,serif" font-size="14.00">#14 LabelNode</text>
</g>
<!-- node12&#45;&gt;node14 -->
<g id="edge23" class="edge">
<title>node12&#45;&gt;node14</title>
<path fill="none" stroke="red" d="M280.18,-218.81C274.82,-210.35 268.25,-199.98 262.31,-190.61"/>
<polygon fill="red" stroke="red" points="265.18,-188.6 256.87,-182.03 259.27,-192.35 265.18,-188.6"/>
</g>
<!-- node15 -->
<g id="node14" class="node">
<title>node15</title>
<polygon fill="lightgrey" stroke="black" points="310.08,-109 182.08,-109 182.08,-73 310.08,-73 310.08,-109"/>
<text text-anchor="middle" x="246.08" y="-87.3" font-family="Times,serif" font-size="14.00">#15 LabelNode</text>
</g>
<!-- node15&#45;&gt;node16 -->
<g id="edge20" class="edge">
<title>node15&#45;&gt;node16</title>
<path fill="none" stroke="red" d="M246.08,-72.81C246.08,-64.79 246.08,-55.05 246.08,-46.07"/>
<polygon fill="red" stroke="red" points="249.58,-46.03 246.08,-36.03 242.58,-46.03 249.58,-46.03"/>
</g>
<!-- node14&#45;&gt;node15 -->
<g id="edge22" class="edge">
<title>node14&#45;&gt;node15</title>
<path fill="none" stroke="red" d="M246.08,-145.81C246.08,-137.79 246.08,-128.05 246.08,-119.07"/>
<polygon fill="red" stroke="red" points="249.58,-119.03 246.08,-109.03 242.58,-119.03 249.58,-119.03"/>
</g>
<!-- c0 -->
<!-- c1 -->
<!-- c0&#45;&gt;c1 -->
<g id="edge25" class="edge">
<title>c0&#45;&gt;c1</title>
<path fill="none" stroke="red" d="M1261.97,-757C1273.18,-757 1331.32,-757 1356.93,-757"/>
<polygon fill="red" stroke="red" points="1357.13,-760.5 1367.13,-757 1357.13,-753.5 1357.13,-760.5"/>
<text text-anchor="middle" x="1314.58" y="-763.8" font-family="Times,serif" font-size="14.00">Control flow</text>
</g>
<!-- c2 -->
<!-- c3 -->
<!-- c2&#45;&gt;c3 -->
<g id="edge26" class="edge">
<title>c2&#45;&gt;c3</title>
<path fill="none" stroke="red" stroke-dasharray="5,2" d="M1055.15,-757C1072.13,-757 1188.28,-757 1226.16,-757"/>
<polygon fill="red" stroke="red" points="1226.25,-760.5 1236.25,-757 1226.25,-753.5 1226.25,-760.5"/>
<text text-anchor="middle" x="1145.58" y="-763.8" font-family="Times,serif" font-size="14.00">Control flow back edge</text>
</g>
<!-- d0 -->
<!-- d1 -->
<!-- d0&#45;&gt;d1 -->
<g id="edge27" class="edge">
<title>d0&#45;&gt;d1</title>
<path fill="none" stroke="black" d="M943.94,-757C953.48,-757 997.39,-757 1018.99,-757"/>
<polygon fill="black" stroke="black" points="1019.23,-760.5 1029.23,-757 1019.23,-753.5 1019.23,-760.5"/>
<text text-anchor="middle" x="986.58" y="-763.8" font-family="Times,serif" font-size="14.00">Data flow</text>
</g>
<!-- d2 -->
<!-- d3 -->
<!-- d2&#45;&gt;d3 -->
<g id="edge28" class="edge">
<title>d2&#45;&gt;d3</title>
<path fill="none" stroke="black" stroke-dasharray="1,5" d="M817.88,-757C828.53,-757 883.54,-757 908.15,-757"/>
<polygon fill="black" stroke="black" points="908.22,-760.5 918.22,-757 908.22,-753.5 908.22,-760.5"/>
<text text-anchor="middle" x="868.08" y="-763.8" font-family="Times,serif" font-size="14.00">Declaration</text>
</g>
<!-- d4 -->
<!-- d5 -->
<!-- d4&#45;&gt;d5 -->
<g id="edge29" class="edge">
<title>d4&#45;&gt;d5</title>
<path fill="none" stroke="blue" d="M675.18,-757C687.8,-757 753.96,-757 781.76,-757"/>
<polygon fill="blue" stroke="blue" points="781.92,-760.5 791.92,-757 781.92,-753.5 781.92,-760.5"/>
<text text-anchor="middle" x="733.58" y="-763.8" font-family="Times,serif" font-size="14.00">PHI Data flow</text>
</g>
<!-- d6 -->
<!-- d7 -->
<!-- d6&#45;&gt;d7 -->
<g id="edge30" class="edge">
<title>d6&#45;&gt;d7</title>
<path fill="none" stroke="green" d="M538.07,-757C550.01,-757 612.38,-757 639.01,-757"/>
<polygon fill="green" stroke="green" points="639.03,-760.5 649.03,-757 639.03,-753.5 639.03,-760.5"/>
<text text-anchor="middle" x="593.58" y="-763.8" font-family="Times,serif" font-size="14.00">Memory flow</text>
</g>
</g>
</svg>
