<?xml version="1.0" encoding="UTF-8" standalone="no"?>
<!DOCTYPE svg PUBLIC "-//W3C//DTD SVG 1.1//EN"
 "http://www.w3.org/Graphics/SVG/1.1/DTD/svg11.dtd">
<!-- Generated by graphviz version 2.43.0 (0)
 -->
<!-- Title: %3 Pages: 1 -->
<svg width="1188pt" height="660pt"
 viewBox="0.00 0.00 1188.48 659.80" xmlns="http://www.w3.org/2000/svg" xmlns:xlink="http://www.w3.org/1999/xlink">
<g id="graph0" class="graph" transform="scale(1 1) rotate(0) translate(4 655.8)">
<title>%3</title>
<polygon fill="white" stroke="transparent" points="-4,4 -4,-655.8 1184.48,-655.8 1184.48,4 -4,4"/>
<g id="clust1" class="cluster">
<title>cluster_0</title>
<polygon fill="none" stroke="lightgray" points="262.48,-138 262.48,-263 488.48,-263 488.48,-138 262.48,-138"/>
</g>
<g id="clust2" class="cluster">
<title>cluster_1</title>
<polygon fill="none" stroke="lightgray" points="372.48,-357 372.48,-482 618.48,-482 618.48,-357 372.48,-357"/>
</g>
<g id="clust3" class="cluster">
<title>cluster_2</title>
<polygon fill="none" stroke="lightgray" points="180.48,-430 180.48,-555 316.48,-555 316.48,-430 180.48,-430"/>
</g>
<g id="clust4" class="cluster">
<title>cluster_000</title>
<polygon fill="none" stroke="black" points="319.48,-601.2 319.48,-643.8 1172.48,-643.8 1172.48,-601.2 319.48,-601.2"/>
<text text-anchor="middle" x="745.98" y="-628.6" font-family="Times,serif" font-size="14.00">Legend</text>
</g>
<!-- node0 -->
<g id="node1" class="node">
<title>node0</title>
<polygon fill="lightgrey" stroke="transparent" points="309.98,-638 186.98,-638 186.98,-584 309.98,-584 309.98,-638"/>
<polygon fill="none" stroke="black" points="187.48,-611 187.48,-638 310.48,-638 310.48,-611 187.48,-611"/>
<text text-anchor="start" x="208.48" y="-620.8" font-family="Times,serif" font-size="14.00">#0 Method</text>
<polygon fill="yellow" stroke="transparent" points="187.48,-584 187.48,-611 310.48,-611 310.48,-584 187.48,-584"/>
<polygon fill="none" stroke="black" points="187.48,-584 187.48,-611 310.48,-611 310.48,-584 187.48,-584"/>
<text text-anchor="start" x="193.48" y="-593.8" font-family="Times,serif" font-size="14.00">this : ArrayTest</text>
</g>
<!-- node2 -->
<g id="node2" class="node">
<title>node2</title>
<polygon fill="lightgrey" stroke="black" points="307.98,-547 188.98,-547 188.98,-511 307.98,-511 307.98,-547"/>
<text text-anchor="middle" x="248.48" y="-525.3" font-family="Times,serif" font-size="14.00">#2 LabelNode</text>
</g>
<!-- node0&#45;&gt;node2 -->
<g id="edge1" class="edge">
<title>node0&#45;&gt;node2</title>
<path fill="none" stroke="red" d="M248.48,-583.81C248.48,-575.35 248.48,-565.95 248.48,-557.4"/>
<polygon fill="red" stroke="red" points="251.98,-557.17 248.48,-547.17 244.98,-557.17 251.98,-557.17"/>
</g>
<!-- node5 -->
<g id="node7" class="node">
<title>node5</title>
<polygon fill="orange" stroke="black" points="272.93,-302.54 272.93,-317.46 193,-328 79.96,-328 0.02,-317.46 0.02,-302.54 79.96,-292 193,-292 272.93,-302.54"/>
<text text-anchor="middle" x="136.48" y="-306.3" font-family="Times,serif" font-size="14.00">#5 NewArray : boolean[]</text>
</g>
<!-- node0&#45;&gt;node5 -->
<g id="edge11" class="edge">
<title>node0&#45;&gt;node5</title>
<path fill="none" stroke="green" d="M310.13,-585.94C311.93,-585.28 313.72,-584.63 315.48,-584 450.76,-535.31 538.35,-598.6 622.48,-482 654.98,-436.95 659.86,-398.09 622.48,-357 622.09,-356.58 399.09,-335.61 255.34,-322.13"/>
<polygon fill="green" stroke="green" points="255.41,-318.62 245.13,-321.17 254.76,-325.59 255.41,-318.62"/>
</g>
<!-- node3 -->
<g id="node3" class="node">
<title>node3</title>
<polygon fill="lightgrey" stroke="black" points="499.98,-474 380.98,-474 380.98,-438 499.98,-438 499.98,-474"/>
<text text-anchor="middle" x="440.48" y="-452.3" font-family="Times,serif" font-size="14.00">#3 LabelNode</text>
</g>
<!-- node2&#45;&gt;node3 -->
<g id="edge2" class="edge">
<title>node2&#45;&gt;node3</title>
<path fill="none" stroke="red" d="M280.28,-510.83C292.89,-504.42 307.66,-497.39 321.48,-492 337.18,-485.87 354.4,-480.22 370.74,-475.33"/>
<polygon fill="red" stroke="red" points="372.18,-478.55 380.79,-472.38 370.21,-471.84 372.18,-478.55"/>
</g>
<!-- node4 -->
<g id="node9" class="node">
<title>node4</title>
<polygon fill="lightgreen" stroke="black" points="306.66,-448.54 306.66,-463.46 271.99,-474 222.96,-474 188.29,-463.46 188.29,-448.54 222.96,-438 271.99,-438 306.66,-448.54"/>
<text text-anchor="middle" x="247.48" y="-452.3" font-family="Times,serif" font-size="14.00">#4 int 10</text>
</g>
<!-- node2&#45;&gt;node4 -->
<g id="edge12" class="edge">
<title>node2&#45;&gt;node4</title>
<path fill="none" stroke="black" stroke-dasharray="1,5" d="M248.24,-510.81C248.12,-502.79 247.99,-493.05 247.86,-484.07"/>
<polygon fill="black" stroke="black" points="251.36,-483.98 247.72,-474.03 244.36,-484.08 251.36,-483.98"/>
</g>
<!-- node7 -->
<g id="node4" class="node">
<title>node7</title>
<polygon fill="lightgreen" stroke="black" points="486,-375.54 486,-390.46 455.23,-401 411.72,-401 380.95,-390.46 380.95,-375.54 411.72,-365 455.23,-365 486,-375.54"/>
<text text-anchor="middle" x="433.48" y="-379.3" font-family="Times,serif" font-size="14.00">#7 int 1</text>
</g>
<!-- node3&#45;&gt;node7 -->
<g id="edge3" class="edge">
<title>node3&#45;&gt;node7</title>
<path fill="none" stroke="black" stroke-dasharray="1,5" d="M438.78,-437.81C437.99,-429.79 437.03,-420.05 436.15,-411.07"/>
<polygon fill="black" stroke="black" points="439.62,-410.64 435.16,-401.03 432.65,-411.32 439.62,-410.64"/>
</g>
<!-- node10 -->
<g id="node6" class="node">
<title>node10</title>
<polygon fill="lightgrey" stroke="black" points="479.98,-255 270.98,-255 270.98,-219 479.98,-219 479.98,-255"/>
<text text-anchor="middle" x="375.48" y="-233.3" font-family="Times,serif" font-size="14.00">#10 ArrayStore : boolean[]</text>
</g>
<!-- node3&#45;&gt;node10 -->
<g id="edge9" class="edge">
<title>node3&#45;&gt;node10</title>
<path fill="none" stroke="red" d="M413.48,-437.95C382.86,-416.67 335.15,-377.02 319.48,-328 314.6,-312.76 313.22,-306.73 319.48,-292 324.39,-280.44 333.12,-270.16 342.24,-261.75"/>
<polygon fill="red" stroke="red" points="344.63,-264.31 349.93,-255.13 340.07,-259 344.63,-264.31"/>
</g>
<!-- node6 -->
<g id="node8" class="node">
<title>node6</title>
<polygon fill="lightgreen" stroke="black" points="610,-375.54 610,-390.46 579.23,-401 535.72,-401 504.95,-390.46 504.95,-375.54 535.72,-365 579.23,-365 610,-375.54"/>
<text text-anchor="middle" x="557.48" y="-379.3" font-family="Times,serif" font-size="14.00">#6 int 0</text>
</g>
<!-- node3&#45;&gt;node6 -->
<g id="edge23" class="edge">
<title>node3&#45;&gt;node6</title>
<path fill="none" stroke="black" stroke-dasharray="1,5" d="M468.5,-437.99C484.85,-428.07 505.61,-415.48 522.96,-404.95"/>
<polygon fill="black" stroke="black" points="524.95,-407.83 531.68,-399.65 521.32,-401.85 524.95,-407.83"/>
</g>
<!-- node9 -->
<g id="node5" class="node">
<title>node9</title>
<polygon fill="orange" stroke="black" points="574.7,-302.54 574.7,-317.46 502.52,-328 400.44,-328 328.26,-317.46 328.26,-302.54 400.44,-292 502.52,-292 574.7,-302.54"/>
<text text-anchor="middle" x="451.48" y="-306.3" font-family="Times,serif" font-size="14.00">#9 Truncate : boolean</text>
</g>
<!-- node7&#45;&gt;node9 -->
<g id="edge4" class="edge">
<title>node7&#45;&gt;node9</title>
<path fill="none" stroke="black" d="M437.83,-364.81C439.89,-356.7 442.39,-346.84 444.69,-337.78"/>
<polygon fill="black" stroke="black" points="448.1,-338.58 447.16,-328.03 441.31,-336.86 448.1,-338.58"/>
<text text-anchor="middle" x="450.9" y="-343.98" font-family="Times,serif" font-size="14.00">*0</text>
</g>
<!-- node9&#45;&gt;node10 -->
<g id="edge7" class="edge">
<title>node9&#45;&gt;node10</title>
<path fill="none" stroke="black" d="M433.08,-291.81C423.46,-282.83 411.54,-271.69 401.05,-261.89"/>
<polygon fill="black" stroke="black" points="403.4,-259.3 393.71,-255.03 398.62,-264.41 403.4,-259.3"/>
<text text-anchor="middle" x="412.72" y="-257.53" font-family="Times,serif" font-size="14.00">*2</text>
</g>
<!-- node13 -->
<g id="node11" class="node">
<title>node13</title>
<polygon fill="lightgrey" stroke="black" points="299.48,-109 105.48,-109 105.48,-73 299.48,-73 299.48,-109"/>
<text text-anchor="middle" x="202.48" y="-87.3" font-family="Times,serif" font-size="14.00">#13 ArrayLoad : boolean</text>
</g>
<!-- node10&#45;&gt;node13 -->
<g id="edge16" class="edge">
<title>node10&#45;&gt;node13</title>
<path fill="none" stroke="green" d="M336.19,-218.91C317.09,-209.56 294.43,-196.85 276.48,-182 253.9,-163.33 233.19,-136.98 219.45,-117.62"/>
<polygon fill="green" stroke="green" points="222.23,-115.48 213.65,-109.26 216.48,-119.47 222.23,-115.48"/>
</g>
<!-- node12 -->
<g id="node12" class="node">
<title>node12</title>
<polygon fill="lightgreen" stroke="black" points="403.66,-156.54 403.66,-171.46 368.99,-182 319.96,-182 285.29,-171.46 285.29,-156.54 319.96,-146 368.99,-146 403.66,-156.54"/>
<text text-anchor="middle" x="344.48" y="-160.3" font-family="Times,serif" font-size="14.00">#12 int 1</text>
</g>
<!-- node10&#45;&gt;node12 -->
<g id="edge17" class="edge">
<title>node10&#45;&gt;node12</title>
<path fill="none" stroke="black" stroke-dasharray="1,5" d="M367.97,-218.81C364.39,-210.62 360.03,-200.62 356.04,-191.48"/>
<polygon fill="black" stroke="black" points="359.12,-189.79 351.91,-182.03 352.71,-192.59 359.12,-189.79"/>
</g>
<!-- node11 -->
<g id="node16" class="node">
<title>node11</title>
<polygon fill="lightgrey" stroke="black" points="624.48,-182 496.48,-182 496.48,-146 624.48,-146 624.48,-182"/>
<text text-anchor="middle" x="560.48" y="-160.3" font-family="Times,serif" font-size="14.00">#11 LabelNode</text>
</g>
<!-- node10&#45;&gt;node11 -->
<g id="edge22" class="edge">
<title>node10&#45;&gt;node11</title>
<path fill="none" stroke="red" d="M419.79,-218.99C445.8,-209.01 478.86,-196.32 506.4,-185.76"/>
<polygon fill="red" stroke="red" points="507.8,-188.96 515.89,-182.11 505.3,-182.43 507.8,-188.96"/>
</g>
<!-- node5&#45;&gt;node10 -->
<g id="edge5" class="edge">
<title>node5&#45;&gt;node10</title>
<path fill="none" stroke="black" d="M187.86,-291.99C221.26,-281.75 265.24,-268.66 302.26,-257.93"/>
<polygon fill="black" stroke="black" points="303.36,-261.25 312,-255.11 301.42,-254.53 303.36,-261.25"/>
<text text-anchor="middle" x="296.93" y="-264.57" font-family="Times,serif" font-size="14.00">*0</text>
</g>
<!-- node5&#45;&gt;node10 -->
<g id="edge8" class="edge">
<title>node5&#45;&gt;node10</title>
<path fill="none" stroke="green" d="M197.71,-292.53C233.38,-282.27 278.17,-269 313.9,-258.12"/>
<polygon fill="green" stroke="green" points="315.18,-261.39 323.72,-255.12 313.14,-254.69 315.18,-261.39"/>
</g>
<!-- node8 -->
<g id="node10" class="node">
<title>node8</title>
<polygon fill="orange" stroke="black" points="253.2,-229.54 253.2,-244.46 198.88,-255 122.07,-255 67.76,-244.46 67.76,-229.54 122.07,-219 198.88,-219 253.2,-229.54"/>
<text text-anchor="middle" x="160.48" y="-233.3" font-family="Times,serif" font-size="14.00">#8 ArrayLength</text>
</g>
<!-- node5&#45;&gt;node8 -->
<g id="edge13" class="edge">
<title>node5&#45;&gt;node8</title>
<path fill="none" stroke="black" d="M142.29,-291.81C145.03,-283.7 148.36,-273.84 151.43,-264.78"/>
<polygon fill="black" stroke="black" points="154.83,-265.62 154.72,-255.03 148.2,-263.38 154.83,-265.62"/>
<text text-anchor="middle" x="156.92" y="-271.21" font-family="Times,serif" font-size="14.00">*0</text>
</g>
<!-- node5&#45;&gt;node13 -->
<g id="edge14" class="edge">
<title>node5&#45;&gt;node13</title>
<path fill="none" stroke="black" d="M89.88,-291.79C77.48,-284.83 65.57,-275.42 58.48,-263 48.78,-246.02 50.43,-236.82 58.48,-219 79.44,-172.56 126.7,-136.31 161.39,-114.63"/>
<polygon fill="black" stroke="black" points="163.63,-117.36 170.36,-109.17 159.99,-111.38 163.63,-117.36"/>
<text text-anchor="middle" x="159.27" y="-122.11" font-family="Times,serif" font-size="14.00">*0</text>
</g>
<!-- node6&#45;&gt;node10 -->
<g id="edge6" class="edge">
<title>node6&#45;&gt;node10</title>
<path fill="none" stroke="black" d="M570.75,-364.72C583.97,-345.24 600.1,-313.48 583.48,-292 571.04,-275.92 531.47,-263.74 490.15,-255.06"/>
<polygon fill="black" stroke="black" points="490.68,-251.59 480.18,-253.04 489.29,-258.45 490.68,-251.59"/>
<text text-anchor="middle" x="499.63" y="-244.66" font-family="Times,serif" font-size="14.00">*1</text>
</g>
<!-- node4&#45;&gt;node5 -->
<g id="edge10" class="edge">
<title>node4&#45;&gt;node5</title>
<path fill="none" stroke="black" d="M234.31,-437.92C214.86,-412.69 178.36,-365.33 155.85,-336.14"/>
<polygon fill="black" stroke="black" points="158.51,-333.85 149.63,-328.06 152.96,-338.12 158.51,-333.85"/>
<text text-anchor="middle" x="167.39" y="-333.56" font-family="Times,serif" font-size="14.00">*0</text>
</g>
<!-- node15 -->
<g id="node13" class="node">
<title>node15</title>
<polygon fill="orange" stroke="black" points="327.92,-10.54 327.92,-25.46 254.44,-36 150.52,-36 77.03,-25.46 77.03,-10.54 150.52,0 254.44,0 327.92,-10.54"/>
<text text-anchor="middle" x="202.48" y="-14.3" font-family="Times,serif" font-size="14.00">#15 Extend : SIGN int</text>
</g>
<!-- node13&#45;&gt;node15 -->
<g id="edge18" class="edge">
<title>node13&#45;&gt;node15</title>
<path fill="none" stroke="black" d="M202.48,-72.81C202.48,-64.79 202.48,-55.05 202.48,-46.07"/>
<polygon fill="black" stroke="black" points="205.98,-46.03 202.48,-36.03 198.98,-46.03 205.98,-46.03"/>
<text text-anchor="middle" x="210.93" y="-50.45" font-family="Times,serif" font-size="14.00">*0</text>
</g>
<!-- node16 -->
<g id="node14" class="node">
<title>node16</title>
<polygon fill="lightgrey" stroke="black" points="610.98,-36 509.98,-36 509.98,0 610.98,0 610.98,-36"/>
<text text-anchor="middle" x="560.48" y="-14.3" font-family="Times,serif" font-size="14.00">#16 Return</text>
</g>
<!-- node13&#45;&gt;node16 -->
<g id="edge20" class="edge">
<title>node13&#45;&gt;node16</title>
<path fill="none" stroke="green" d="M288.23,-72.99C353.5,-60.05 441.73,-42.55 499.82,-31.03"/>
<polygon fill="green" stroke="green" points="500.82,-34.4 509.95,-29.02 499.46,-27.53 500.82,-34.4"/>
</g>
<!-- node12&#45;&gt;node13 -->
<g id="edge15" class="edge">
<title>node12&#45;&gt;node13</title>
<path fill="none" stroke="black" d="M314.01,-147.77C294.12,-137.82 267.84,-124.68 245.79,-113.65"/>
<polygon fill="black" stroke="black" points="247.13,-110.42 236.62,-109.07 244,-116.68 247.13,-110.42"/>
<text text-anchor="middle" x="256.62" y="-105.92" font-family="Times,serif" font-size="14.00">*1</text>
</g>
<!-- node14 -->
<g id="node15" class="node">
<title>node14</title>
<polygon fill="lightgrey" stroke="black" points="624.48,-109 496.48,-109 496.48,-73 624.48,-73 624.48,-109"/>
<text text-anchor="middle" x="560.48" y="-87.3" font-family="Times,serif" font-size="14.00">#14 LabelNode</text>
</g>
<!-- node14&#45;&gt;node16 -->
<g id="edge19" class="edge">
<title>node14&#45;&gt;node16</title>
<path fill="none" stroke="red" d="M560.48,-72.81C560.48,-64.79 560.48,-55.05 560.48,-46.07"/>
<polygon fill="red" stroke="red" points="563.98,-46.03 560.48,-36.03 556.98,-46.03 563.98,-46.03"/>
</g>
<!-- node11&#45;&gt;node14 -->
<g id="edge21" class="edge">
<title>node11&#45;&gt;node14</title>
<path fill="none" stroke="red" d="M560.48,-145.81C560.48,-137.79 560.48,-128.05 560.48,-119.07"/>
<polygon fill="red" stroke="red" points="563.98,-119.03 560.48,-109.03 556.98,-119.03 563.98,-119.03"/>
</g>
<!-- c0 -->
<!-- c1 -->
<!-- c0&#45;&gt;c1 -->
<g id="edge24" class="edge">
<title>c0&#45;&gt;c1</title>
<path fill="none" stroke="red" d="M1055.37,-611C1066.58,-611 1124.72,-611 1150.34,-611"/>
<polygon fill="red" stroke="red" points="1150.53,-614.5 1160.53,-611 1150.53,-607.5 1150.53,-614.5"/>
<text text-anchor="middle" x="1107.98" y="-617.8" font-family="Times,serif" font-size="14.00">Control flow</text>
</g>
<!-- c2 -->
<!-- c3 -->
<!-- c2&#45;&gt;c3 -->
<g id="edge25" class="edge">
<title>c2&#45;&gt;c3</title>
<path fill="none" stroke="red" stroke-dasharray="5,2" d="M848.56,-611C865.53,-611 981.68,-611 1019.56,-611"/>
<polygon fill="red" stroke="red" points="1019.65,-614.5 1029.65,-611 1019.65,-607.5 1019.65,-614.5"/>
<text text-anchor="middle" x="938.98" y="-617.8" font-family="Times,serif" font-size="14.00">Control flow back edge</text>
</g>
<!-- d0 -->
<!-- d1 -->
<!-- d0&#45;&gt;d1 -->
<g id="edge26" class="edge">
<title>d0&#45;&gt;d1</title>
<path fill="none" stroke="black" d="M737.34,-611C746.88,-611 790.79,-611 812.4,-611"/>
<polygon fill="black" stroke="black" points="812.63,-614.5 822.63,-611 812.63,-607.5 812.63,-614.5"/>
<text text-anchor="middle" x="779.98" y="-617.8" font-family="Times,serif" font-size="14.00">Data flow</text>
</g>
<!-- d2 -->
<!-- d3 -->
<!-- d2&#45;&gt;d3 -->
<g id="edge27" class="edge">
<title>d2&#45;&gt;d3</title>
<path fill="none" stroke="black" stroke-dasharray="1,5" d="M611.28,-611C621.93,-611 676.94,-611 701.55,-611"/>
<polygon fill="black" stroke="black" points="701.62,-614.5 711.62,-611 701.62,-607.5 701.62,-614.5"/>
<text text-anchor="middle" x="661.48" y="-617.8" font-family="Times,serif" font-size="14.00">Declaration</text>
</g>
<!-- d4 -->
<!-- d5 -->
<!-- d4&#45;&gt;d5 -->
<g id="edge28" class="edge">
<title>d4&#45;&gt;d5</title>
<path fill="none" stroke="blue" d="M468.58,-611C481.2,-611 547.36,-611 575.16,-611"/>
<polygon fill="blue" stroke="blue" points="575.32,-614.5 585.32,-611 575.32,-607.5 575.32,-614.5"/>
<text text-anchor="middle" x="526.98" y="-617.8" font-family="Times,serif" font-size="14.00">PHI Data flow</text>
</g>
<!-- d6 -->
<!-- d7 -->
<!-- d6&#45;&gt;d7 -->
<g id="edge29" class="edge">
<title>d6&#45;&gt;d7</title>
<path fill="none" stroke="green" d="M331.47,-611C343.41,-611 405.78,-611 432.41,-611"/>
<polygon fill="green" stroke="green" points="432.43,-614.5 442.43,-611 432.43,-607.5 432.43,-614.5"/>
<text text-anchor="middle" x="386.98" y="-617.8" font-family="Times,serif" font-size="14.00">Memory flow</text>
</g>
</g>
</svg>
