<?xml version="1.0" encoding="UTF-8" standalone="no"?>
<!DOCTYPE svg PUBLIC "-//W3C//DTD SVG 1.1//EN"
 "http://www.w3.org/Graphics/SVG/1.1/DTD/svg11.dtd">
<!-- Generated by graphviz version 2.43.0 (0)
 -->
<!-- Title: debugoutput Pages: 1 -->
<svg width="580pt" height="578pt"
 viewBox="0.00 0.00 579.50 577.80" xmlns="http://www.w3.org/2000/svg" xmlns:xlink="http://www.w3.org/1999/xlink">
<g id="graph0" class="graph" transform="scale(1 1) rotate(0) translate(4 573.8)">
<title>debugoutput</title>
<polygon fill="white" stroke="transparent" points="-4,4 -4,-573.8 575.5,-573.8 575.5,4 -4,4"/>
<g id="clust1" class="cluster">
<title>cluster_000</title>
<polygon fill="none" stroke="black" points="227.5,-519.2 227.5,-561.8 563.5,-561.8 563.5,-519.2 227.5,-519.2"/>
<text text-anchor="middle" x="395.5" y="-546.6" font-family="Times,serif" font-size="14.00">Legend</text>
</g>
<!-- node0 -->
<g id="node1" class="node">
<title>node0</title>
<polygon fill="lightgrey" stroke="black" points="217.5,-547 51.5,-547 51.5,-511 217.5,-511 217.5,-547"/>
<text text-anchor="middle" x="134.5" y="-525.3" font-family="Times,serif" font-size="14.00">#0 Method Order : 0</text>
</g>
<!-- node1 -->
<g id="node2" class="node">
<title>node1</title>
<polygon fill="lightgrey" stroke="black" points="228.5,-474 40.5,-474 40.5,-438 228.5,-438 228.5,-474"/>
<text text-anchor="middle" x="134.5" y="-452.3" font-family="Times,serif" font-size="14.00">#1 LabelNode Order : 1</text>
</g>
<!-- node0&#45;&gt;node1 -->
<g id="edge2" class="edge">
<title>node0&#45;&gt;node1</title>
<path fill="none" stroke="red" d="M128.62,-510.81C127.78,-502.79 127.55,-493.05 127.92,-484.07"/>
<polygon fill="red" stroke="red" points="131.42,-484.25 128.64,-474.03 124.44,-483.75 131.42,-484.25"/>
</g>
<!-- node1&#45;&gt;node0 -->
<g id="edge1" class="edge">
<title>node1&#45;&gt;node0</title>
<path fill="none" stroke="green" stroke-width="2" d="M140.36,-474.03C141.21,-482.03 141.45,-491.77 141.09,-500.75"/>
<polygon fill="green" stroke="green" stroke-width="2" points="137.59,-500.59 140.38,-510.81 144.57,-501.08 137.59,-500.59"/>
</g>
<!-- node2 -->
<g id="node3" class="node">
<title>node2</title>
<polygon fill="lightgrey" stroke="black" points="228.5,-401 40.5,-401 40.5,-365 228.5,-365 228.5,-401"/>
<text text-anchor="middle" x="134.5" y="-379.3" font-family="Times,serif" font-size="14.00">#2 LabelNode Order : 2</text>
</g>
<!-- node1&#45;&gt;node2 -->
<g id="edge4" class="edge">
<title>node1&#45;&gt;node2</title>
<path fill="none" stroke="red" d="M128.62,-437.81C127.78,-429.79 127.55,-420.05 127.92,-411.07"/>
<polygon fill="red" stroke="red" points="131.42,-411.25 128.64,-401.03 124.44,-410.75 131.42,-411.25"/>
</g>
<!-- node2&#45;&gt;node1 -->
<g id="edge3" class="edge">
<title>node2&#45;&gt;node1</title>
<path fill="none" stroke="green" stroke-width="2" d="M140.36,-401.03C141.21,-409.03 141.45,-418.77 141.09,-427.75"/>
<polygon fill="green" stroke="green" stroke-width="2" points="137.59,-427.59 140.38,-437.81 144.57,-428.08 137.59,-427.59"/>
</g>
<!-- node3 -->
<g id="node4" class="node">
<title>node3</title>
<polygon fill="lightgrey" stroke="black" points="269,-328 0,-328 0,-292 269,-292 269,-328"/>
<text text-anchor="middle" x="134.5" y="-306.3" font-family="Times,serif" font-size="14.00">#3 ArrayStore : boolean[] Order : 3</text>
</g>
<!-- node2&#45;&gt;node3 -->
<g id="edge6" class="edge">
<title>node2&#45;&gt;node3</title>
<path fill="none" stroke="red" d="M128.62,-364.81C127.78,-356.79 127.55,-347.05 127.92,-338.07"/>
<polygon fill="red" stroke="red" points="131.42,-338.25 128.64,-328.03 124.44,-337.75 131.42,-338.25"/>
</g>
<!-- node3&#45;&gt;node2 -->
<g id="edge5" class="edge">
<title>node3&#45;&gt;node2</title>
<path fill="none" stroke="green" stroke-width="2" d="M140.36,-328.03C141.21,-336.03 141.45,-345.77 141.09,-354.75"/>
<polygon fill="green" stroke="green" stroke-width="2" points="137.59,-354.59 140.38,-364.81 144.57,-355.08 137.59,-354.59"/>
</g>
<!-- node4 -->
<g id="node5" class="node">
<title>node4</title>
<polygon fill="lightgrey" stroke="black" points="261.5,-255 7.5,-255 7.5,-219 261.5,-219 261.5,-255"/>
<text text-anchor="middle" x="134.5" y="-233.3" font-family="Times,serif" font-size="14.00">#4 ArrayLoad : boolean Order : 4</text>
</g>
<!-- node3&#45;&gt;node4 -->
<g id="edge8" class="edge">
<title>node3&#45;&gt;node4</title>
<path fill="none" stroke="red" d="M128.62,-291.81C127.78,-283.79 127.55,-274.05 127.92,-265.07"/>
<polygon fill="red" stroke="red" points="131.42,-265.25 128.64,-255.03 124.44,-264.75 131.42,-265.25"/>
</g>
<!-- node4&#45;&gt;node3 -->
<g id="edge7" class="edge">
<title>node4&#45;&gt;node3</title>
<path fill="none" stroke="green" stroke-width="2" d="M140.36,-255.03C141.21,-263.03 141.45,-272.77 141.09,-281.75"/>
<polygon fill="green" stroke="green" stroke-width="2" points="137.59,-281.59 140.38,-291.81 144.57,-282.08 137.59,-281.59"/>
</g>
<!-- node5 -->
<g id="node6" class="node">
<title>node5</title>
<polygon fill="lightgrey" stroke="black" points="228.5,-182 40.5,-182 40.5,-146 228.5,-146 228.5,-182"/>
<text text-anchor="middle" x="134.5" y="-160.3" font-family="Times,serif" font-size="14.00">#5 LabelNode Order : 5</text>
</g>
<!-- node4&#45;&gt;node5 -->
<g id="edge10" class="edge">
<title>node4&#45;&gt;node5</title>
<path fill="none" stroke="red" d="M128.62,-218.81C127.78,-210.79 127.55,-201.05 127.92,-192.07"/>
<polygon fill="red" stroke="red" points="131.42,-192.25 128.64,-182.03 124.44,-191.75 131.42,-192.25"/>
</g>
<!-- node5&#45;&gt;node4 -->
<g id="edge9" class="edge">
<title>node5&#45;&gt;node4</title>
<path fill="none" stroke="green" stroke-width="2" d="M140.36,-182.03C141.21,-190.03 141.45,-199.77 141.09,-208.75"/>
<polygon fill="green" stroke="green" stroke-width="2" points="137.59,-208.59 140.38,-218.81 144.57,-209.08 137.59,-208.59"/>
</g>
<!-- node6 -->
<g id="node7" class="node">
<title>node6</title>
<polygon fill="lightgrey" stroke="black" points="228.5,-109 40.5,-109 40.5,-73 228.5,-73 228.5,-109"/>
<text text-anchor="middle" x="134.5" y="-87.3" font-family="Times,serif" font-size="14.00">#6 LabelNode Order : 6</text>
</g>
<!-- node5&#45;&gt;node6 -->
<g id="edge12" class="edge">
<title>node5&#45;&gt;node6</title>
<path fill="none" stroke="red" d="M128.62,-145.81C127.78,-137.79 127.55,-128.05 127.92,-119.07"/>
<polygon fill="red" stroke="red" points="131.42,-119.25 128.64,-109.03 124.44,-118.75 131.42,-119.25"/>
</g>
<!-- node6&#45;&gt;node5 -->
<g id="edge11" class="edge">
<title>node6&#45;&gt;node5</title>
<path fill="none" stroke="green" stroke-width="2" d="M140.36,-109.03C141.21,-117.03 141.45,-126.77 141.09,-135.75"/>
<polygon fill="green" stroke="green" stroke-width="2" points="137.59,-135.59 140.38,-145.81 144.57,-136.08 137.59,-135.59"/>
</g>
<!-- node7 -->
<g id="node8" class="node">
<title>node7</title>
<polygon fill="lightgrey" stroke="black" points="215,-36 54,-36 54,0 215,0 215,-36"/>
<text text-anchor="middle" x="134.5" y="-14.3" font-family="Times,serif" font-size="14.00">#7 Return Order : 7</text>
</g>
<!-- node6&#45;&gt;node7 -->
<g id="edge14" class="edge">
<title>node6&#45;&gt;node7</title>
<path fill="none" stroke="red" d="M128.62,-72.81C127.78,-64.79 127.55,-55.05 127.92,-46.07"/>
<polygon fill="red" stroke="red" points="131.42,-46.25 128.64,-36.03 124.44,-45.75 131.42,-46.25"/>
</g>
<!-- node7&#45;&gt;node6 -->
<g id="edge13" class="edge">
<title>node7&#45;&gt;node6</title>
<path fill="none" stroke="green" stroke-width="2" d="M140.36,-36.03C141.21,-44.03 141.45,-53.77 141.09,-62.75"/>
<polygon fill="green" stroke="green" stroke-width="2" points="137.59,-62.59 140.38,-72.81 144.57,-63.08 137.59,-62.59"/>
</g>
<!-- c0 -->
<!-- c1 -->
<!-- c0&#45;&gt;c1 -->
<g id="edge15" class="edge">
<title>c0&#45;&gt;c1</title>
<path fill="none" stroke="red" d="M446.39,-529C457.61,-529 515.74,-529 541.36,-529"/>
<polygon fill="red" stroke="red" points="541.56,-532.5 551.56,-529 541.56,-525.5 541.56,-532.5"/>
<text text-anchor="middle" x="499" y="-535.8" font-family="Times,serif" font-size="14.00">Control flow</text>
</g>
<!-- c2 -->
<!-- c3 -->
<!-- c2&#45;&gt;c3 -->
<g id="edge16" class="edge">
<title>c2&#45;&gt;c3</title>
<path fill="none" stroke="red" stroke-dasharray="5,2" d="M239.58,-529C256.55,-529 372.71,-529 410.58,-529"/>
<polygon fill="red" stroke="red" points="410.67,-532.5 420.67,-529 410.67,-525.5 410.67,-532.5"/>
<text text-anchor="middle" x="330" y="-535.8" font-family="Times,serif" font-size="14.00">Control flow back edge</text>
</g>
</g>
</svg>
