<?xml version="1.0" encoding="UTF-8" standalone="no"?>
<!DOCTYPE svg PUBLIC "-//W3C//DTD SVG 1.1//EN"
 "http://www.w3.org/Graphics/SVG/1.1/DTD/svg11.dtd">
<!-- Generated by graphviz version 2.43.0 (0)
 -->
<!-- Title: debugoutput Pages: 1 -->
<svg width="1599pt" height="578pt"
 viewBox="0.00 0.00 1599.00 577.80" xmlns="http://www.w3.org/2000/svg" xmlns:xlink="http://www.w3.org/1999/xlink">
<g id="graph0" class="graph" transform="scale(1 1) rotate(0) translate(4 573.8)">
<title>debugoutput</title>
<polygon fill="white" stroke="transparent" points="-4,4 -4,-573.8 1595,-573.8 1595,4 -4,4"/>
<g id="clust1" class="cluster">
<title>cluster_000</title>
<polygon fill="none" stroke="black" points="744,-519.2 744,-561.8 1583,-561.8 1583,-519.2 744,-519.2"/>
<text text-anchor="middle" x="1163.5" y="-546.6" font-family="Times,serif" font-size="14.00">Legend</text>
</g>
<!-- node0 -->
<g id="node1" class="node">
<title>node0</title>
<polygon fill="lightgrey" stroke="black" points="734,-547 568,-547 568,-511 734,-511 734,-547"/>
<text text-anchor="middle" x="651" y="-525.3" font-family="Times,serif" font-size="14.00">#0 Method Order : 0</text>
</g>
<!-- node1 -->
<g id="node2" class="node">
<title>node1</title>
<polygon fill="lightgrey" stroke="black" points="230,-474 0,-474 0,-438 230,-438 230,-474"/>
<text text-anchor="middle" x="115" y="-452.3" font-family="Times,serif" font-size="14.00">#1 this : ArrayTest Order : 15</text>
</g>
<!-- node0&#45;&gt;node1 -->
<g id="edge2" class="edge">
<title>node0&#45;&gt;node1</title>
<path fill="none" stroke="black" d="M567.63,-518.08C484.95,-507.66 354.54,-490.67 239.68,-475.3"/>
<polygon fill="black" stroke="black" points="240.05,-471.82 229.68,-473.96 239.12,-478.75 240.05,-471.82"/>
<text text-anchor="middle" x="248.76" y="-464.29" font-family="Times,serif" font-size="14.00">*0</text>
</g>
<!-- node2 -->
<g id="node3" class="node">
<title>node2</title>
<polygon fill="lightgrey" stroke="black" points="996,-474 808,-474 808,-438 996,-438 996,-474"/>
<text text-anchor="middle" x="902" y="-452.3" font-family="Times,serif" font-size="14.00">#2 LabelNode Order : 7</text>
</g>
<!-- node0&#45;&gt;node2 -->
<g id="edge4" class="edge">
<title>node0&#45;&gt;node2</title>
<path fill="none" stroke="red" d="M716.92,-510.98C738.66,-505.6 762.9,-499.38 785,-493 801.43,-488.26 819.09,-482.61 835.62,-477.21"/>
<polygon fill="red" stroke="red" points="836.79,-480.51 845.2,-474.07 834.61,-473.86 836.79,-480.51"/>
</g>
<!-- node4 -->
<g id="node5" class="node">
<title>node4</title>
<polygon fill="orange" stroke="black" points="698.04,-375.54 698.04,-390.46 589.64,-401 436.36,-401 327.96,-390.46 327.96,-375.54 436.36,-365 589.64,-365 698.04,-375.54"/>
<text text-anchor="middle" x="513" y="-379.3" font-family="Times,serif" font-size="14.00">#4 NewArray : boolean[] Order : 5</text>
</g>
<!-- node0&#45;&gt;node4 -->
<g id="edge9" class="edge">
<title>node0&#45;&gt;node4</title>
<path fill="none" stroke="black" d="M586.66,-510.91C566.64,-502.52 546.18,-490.56 532,-474 516.91,-456.38 509.95,-430.68 508.27,-411.25"/>
<polygon fill="black" stroke="black" points="511.76,-411.04 507.86,-401.19 504.77,-411.32 511.76,-411.04"/>
</g>
<!-- node15 -->
<g id="node6" class="node">
<title>node15</title>
<polygon fill="lightgreen" stroke="black" points="475.93,-448.54 475.93,-463.46 409.19,-474 314.81,-474 248.07,-463.46 248.07,-448.54 314.81,-438 409.19,-438 475.93,-448.54"/>
<text text-anchor="middle" x="362" y="-452.3" font-family="Times,serif" font-size="14.00">#15 int 10 Order : 1</text>
</g>
<!-- node0&#45;&gt;node15 -->
<g id="edge39" class="edge">
<title>node0&#45;&gt;node15</title>
<path fill="none" stroke="black" stroke-dasharray="1,5" d="M567.79,-512.72C540.01,-506.9 509.03,-499.98 481,-493 461.16,-488.06 439.73,-482.23 420.56,-476.71"/>
<polygon fill="black" stroke="black" points="421.33,-473.3 410.75,-473.87 419.38,-480.02 421.33,-473.3"/>
</g>
<!-- node6 -->
<g id="node8" class="node">
<title>node6</title>
<polygon fill="lightgreen" stroke="black" points="1287.11,-448.54 1287.11,-463.46 1227.88,-474 1144.12,-474 1084.89,-463.46 1084.89,-448.54 1144.12,-438 1227.88,-438 1287.11,-448.54"/>
<text text-anchor="middle" x="1186" y="-452.3" font-family="Times,serif" font-size="14.00">#6 int 1 Order : 3</text>
</g>
<!-- node0&#45;&gt;node6 -->
<g id="edge13" class="edge">
<title>node0&#45;&gt;node6</title>
<path fill="none" stroke="black" stroke-dasharray="1,5" d="M731.29,-510.95C852.52,-492.07 993.12,-476.02 1085.55,-466.45"/>
<polygon fill="black" stroke="black" points="1086.15,-469.9 1095.74,-465.4 1085.44,-462.94 1086.15,-469.9"/>
</g>
<!-- node8 -->
<g id="node10" class="node">
<title>node8</title>
<polygon fill="lightgreen" stroke="black" points="752.11,-448.54 752.11,-463.46 692.88,-474 609.12,-474 549.89,-463.46 549.89,-448.54 609.12,-438 692.88,-438 752.11,-448.54"/>
<text text-anchor="middle" x="651" y="-452.3" font-family="Times,serif" font-size="14.00">#8 int 0 Order : 2</text>
</g>
<!-- node0&#45;&gt;node8 -->
<g id="edge17" class="edge">
<title>node0&#45;&gt;node8</title>
<path fill="none" stroke="black" stroke-dasharray="1,5" d="M645.12,-510.81C644.28,-502.79 644.05,-493.05 644.42,-484.07"/>
<polygon fill="black" stroke="black" points="647.92,-484.25 645.14,-474.03 640.94,-483.75 647.92,-484.25"/>
</g>
<!-- node1&#45;&gt;node0 -->
<g id="edge1" class="edge">
<title>node1&#45;&gt;node0</title>
<path fill="none" stroke="green" stroke-width="2" d="M230.18,-471.6C236.22,-472.42 242.19,-473.22 248,-474 354.28,-488.25 476.04,-504.16 557.71,-514.99"/>
<polygon fill="green" stroke="green" stroke-width="2" points="557.59,-518.51 567.97,-516.36 558.51,-511.57 557.59,-518.51"/>
</g>
<!-- node2&#45;&gt;node0 -->
<g id="edge3" class="edge">
<title>node2&#45;&gt;node0</title>
<path fill="none" stroke="green" stroke-width="2" d="M862.01,-474.07C844.07,-480.36 822.65,-487.33 803,-493 784.09,-498.46 763.62,-503.79 744,-508.6"/>
<polygon fill="green" stroke="green" stroke-width="2" points="743.03,-505.23 734.13,-510.98 744.68,-512.03 743.03,-505.23"/>
</g>
<!-- node3 -->
<g id="node4" class="node">
<title>node3</title>
<polygon fill="lightgrey" stroke="black" points="996,-401 808,-401 808,-365 996,-365 996,-401"/>
<text text-anchor="middle" x="902" y="-379.3" font-family="Times,serif" font-size="14.00">#3 LabelNode Order : 8</text>
</g>
<!-- node2&#45;&gt;node3 -->
<g id="edge6" class="edge">
<title>node2&#45;&gt;node3</title>
<path fill="none" stroke="red" d="M896.12,-437.81C895.28,-429.79 895.05,-420.05 895.42,-411.07"/>
<polygon fill="red" stroke="red" points="898.92,-411.25 896.14,-401.03 891.94,-410.75 898.92,-411.25"/>
</g>
<!-- node3&#45;&gt;node2 -->
<g id="edge5" class="edge">
<title>node3&#45;&gt;node2</title>
<path fill="none" stroke="green" stroke-width="2" d="M907.86,-401.03C908.71,-409.03 908.95,-418.77 908.59,-427.75"/>
<polygon fill="green" stroke="green" stroke-width="2" points="905.09,-427.59 907.88,-437.81 912.07,-428.08 905.09,-427.59"/>
</g>
<!-- node9 -->
<g id="node11" class="node">
<title>node9</title>
<polygon fill="lightgrey" stroke="black" points="971.5,-328 702.5,-328 702.5,-292 971.5,-292 971.5,-328"/>
<text text-anchor="middle" x="837" y="-306.3" font-family="Times,serif" font-size="14.00">#9 ArrayStore : boolean[] Order : 9</text>
</g>
<!-- node3&#45;&gt;node9 -->
<g id="edge23" class="edge">
<title>node3&#45;&gt;node9</title>
<path fill="none" stroke="red" d="M886.27,-364.81C878.2,-356 868.24,-345.13 859.39,-335.46"/>
<polygon fill="red" stroke="red" points="861.92,-333.04 852.59,-328.03 856.76,-337.77 861.92,-333.04"/>
</g>
<!-- node4&#45;&gt;node0 -->
<g id="edge7" class="edge">
<title>node4&#45;&gt;node0</title>
<path fill="none" stroke="green" stroke-width="2" d="M520.77,-401.19C525.65,-420.88 532.12,-453.12 550,-474 561.85,-487.85 578.1,-498.47 594.12,-506.49"/>
<polygon fill="green" stroke="green" stroke-width="2" points="592.96,-509.81 603.5,-510.91 595.95,-503.48 592.96,-509.81"/>
</g>
<!-- node5 -->
<g id="node7" class="node">
<title>node5</title>
<polygon fill="orange" stroke="black" points="646.3,-302.54 646.3,-317.46 563.53,-328 446.47,-328 363.7,-317.46 363.7,-302.54 446.47,-292 563.53,-292 646.3,-302.54"/>
<text text-anchor="middle" x="505" y="-306.3" font-family="Times,serif" font-size="14.00">#5 ArrayLength Order : 6</text>
</g>
<!-- node4&#45;&gt;node5 -->
<g id="edge11" class="edge">
<title>node4&#45;&gt;node5</title>
<path fill="none" stroke="black" d="M505.19,-364.81C503.44,-356.79 502.11,-347.05 501.47,-338.07"/>
<polygon fill="black" stroke="black" points="504.97,-337.88 501.06,-328.03 497.97,-338.16 504.97,-337.88"/>
<text text-anchor="middle" x="510.25" y="-342.09" font-family="Times,serif" font-size="14.00">*0</text>
</g>
<!-- node4&#45;&gt;node9 -->
<g id="edge19" class="edge">
<title>node4&#45;&gt;node9</title>
<path fill="none" stroke="black" d="M590.73,-365C617.73,-359.44 648.17,-353.12 676,-347 699.52,-341.82 725.02,-335.9 748.66,-330.38"/>
<polygon fill="black" stroke="black" points="749.73,-333.73 758.67,-328.04 748.14,-326.91 749.73,-333.73"/>
<text text-anchor="middle" x="742.94" y="-336.7" font-family="Times,serif" font-size="14.00">*0</text>
</g>
<!-- node4&#45;&gt;node9 -->
<g id="edge22" class="edge">
<title>node4&#45;&gt;node9</title>
<path fill="none" stroke="black" d="M602.08,-366.15C631.48,-360.32 664.24,-353.55 694,-347 717.42,-341.85 742.79,-335.96 765.6,-330.46"/>
<polygon fill="black" stroke="black" points="766.66,-333.8 775.55,-328.04 765.01,-327 766.66,-333.8"/>
</g>
<!-- node10 -->
<g id="node12" class="node">
<title>node10</title>
<polygon fill="lightgrey" stroke="black" points="973,-255 701,-255 701,-219 973,-219 973,-255"/>
<text text-anchor="middle" x="837" y="-233.3" font-family="Times,serif" font-size="14.00">#10 ArrayLoad : boolean Order : 10</text>
</g>
<!-- node4&#45;&gt;node10 -->
<g id="edge25" class="edge">
<title>node4&#45;&gt;node10</title>
<path fill="none" stroke="black" d="M573.15,-365C599.41,-356.12 629.87,-343.78 655,-328 674.7,-315.62 673.27,-304.33 693,-292 715.29,-278.07 741.73,-266.87 765.83,-258.36"/>
<polygon fill="black" stroke="black" points="766.96,-261.67 775.29,-255.11 764.69,-255.05 766.96,-261.67"/>
<text text-anchor="middle" x="760.89" y="-265.29" font-family="Times,serif" font-size="14.00">*0</text>
</g>
<!-- node15&#45;&gt;node0 -->
<g id="edge38" class="edge">
<title>node15&#45;&gt;node0</title>
<path fill="none" stroke="green" stroke-width="2" d="M421.41,-472.16C445.54,-478.87 473.58,-486.67 499,-493 520.9,-498.46 544.6,-503.87 566.64,-508.76"/>
<polygon fill="green" stroke="green" stroke-width="2" points="566.12,-512.23 576.64,-510.96 567.63,-505.39 566.12,-512.23"/>
</g>
<!-- node15&#45;&gt;node4 -->
<g id="edge8" class="edge">
<title>node15&#45;&gt;node4</title>
<path fill="none" stroke="black" d="M398.17,-437.99C418.93,-428.23 445.21,-415.88 467.38,-405.45"/>
<polygon fill="black" stroke="black" points="469.04,-408.54 476.6,-401.11 466.06,-402.2 469.04,-408.54"/>
<text text-anchor="middle" x="463.8" y="-412.78" font-family="Times,serif" font-size="14.00">*0</text>
</g>
<!-- node5&#45;&gt;node4 -->
<g id="edge10" class="edge">
<title>node5&#45;&gt;node4</title>
<path fill="none" stroke="green" stroke-width="2" d="M512.78,-328.03C514.53,-336.03 515.87,-345.77 516.52,-354.75"/>
<polygon fill="green" stroke="green" stroke-width="2" points="513.02,-354.97 516.94,-364.81 520.01,-354.67 513.02,-354.97"/>
</g>
<!-- node6&#45;&gt;node0 -->
<g id="edge12" class="edge">
<title>node6&#45;&gt;node0</title>
<path fill="none" stroke="green" stroke-width="2" d="M1100.8,-466.29C1012.56,-475.85 870.96,-491.99 749,-511 747.49,-511.23 745.98,-511.48 744.45,-511.72"/>
<polygon fill="green" stroke="green" stroke-width="2" points="743.51,-508.33 734.22,-513.43 744.66,-515.24 743.51,-508.33"/>
</g>
<!-- node7 -->
<g id="node9" class="node">
<title>node7</title>
<polygon fill="orange" stroke="black" points="1357.8,-375.54 1357.8,-390.46 1257.16,-401 1114.84,-401 1014.2,-390.46 1014.2,-375.54 1114.84,-365 1257.16,-365 1357.8,-375.54"/>
<text text-anchor="middle" x="1186" y="-379.3" font-family="Times,serif" font-size="14.00">#7 Truncate : boolean Order : 4</text>
</g>
<!-- node6&#45;&gt;node7 -->
<g id="edge15" class="edge">
<title>node6&#45;&gt;node7</title>
<path fill="none" stroke="black" d="M1180.12,-437.81C1179.28,-429.79 1179.05,-420.05 1179.42,-411.07"/>
<polygon fill="black" stroke="black" points="1182.92,-411.25 1180.14,-401.03 1175.94,-410.75 1182.92,-411.25"/>
<text text-anchor="middle" x="1187.28" y="-416.01" font-family="Times,serif" font-size="14.00">*0</text>
</g>
<!-- node6&#45;&gt;node10 -->
<g id="edge26" class="edge">
<title>node6&#45;&gt;node10</title>
<path fill="none" stroke="black" d="M1262.8,-444.21C1326.27,-432 1400.9,-407.99 1367,-365 1319.94,-305.33 1123.24,-270.54 983.23,-252.9"/>
<polygon fill="black" stroke="black" points="983.61,-249.42 973.25,-251.66 982.74,-256.36 983.61,-249.42"/>
<text text-anchor="middle" x="992.28" y="-241.8" font-family="Times,serif" font-size="14.00">*1</text>
</g>
<!-- node7&#45;&gt;node6 -->
<g id="edge14" class="edge">
<title>node7&#45;&gt;node6</title>
<path fill="none" stroke="green" stroke-width="2" d="M1191.86,-401.03C1192.71,-409.03 1192.95,-418.77 1192.59,-427.75"/>
<polygon fill="green" stroke="green" stroke-width="2" points="1189.09,-427.59 1191.88,-437.81 1196.07,-428.08 1189.09,-427.59"/>
</g>
<!-- node7&#45;&gt;node9 -->
<g id="edge21" class="edge">
<title>node7&#45;&gt;node9</title>
<path fill="none" stroke="black" d="M1106.37,-365.8C1054.19,-355.19 985.76,-341.26 930.92,-330.11"/>
<polygon fill="black" stroke="black" points="931.35,-326.62 920.85,-328.06 929.95,-333.48 931.35,-326.62"/>
<text text-anchor="middle" x="940.3" y="-319.69" font-family="Times,serif" font-size="14.00">*2</text>
</g>
<!-- node8&#45;&gt;node0 -->
<g id="edge16" class="edge">
<title>node8&#45;&gt;node0</title>
<path fill="none" stroke="green" stroke-width="2" d="M656.86,-474.03C657.71,-482.03 657.95,-491.77 657.59,-500.75"/>
<polygon fill="green" stroke="green" stroke-width="2" points="654.09,-500.59 656.88,-510.81 661.07,-501.08 654.09,-500.59"/>
</g>
<!-- node8&#45;&gt;node9 -->
<g id="edge20" class="edge">
<title>node8&#45;&gt;node9</title>
<path fill="none" stroke="black" d="M668.92,-437.75C699.89,-407.97 760.64,-349.73 766,-346 772.89,-341.2 780.53,-336.7 788.18,-332.63"/>
<polygon fill="black" stroke="black" points="789.81,-335.73 797.12,-328.05 786.62,-329.5 789.81,-335.73"/>
<text text-anchor="middle" x="784.84" y="-340.14" font-family="Times,serif" font-size="14.00">*1</text>
</g>
<!-- node9&#45;&gt;node0 -->
<g id="edge18" class="edge">
<title>node9&#45;&gt;node0</title>
<path fill="none" stroke="green" stroke-width="2" d="M823.03,-328.21C815.2,-338.45 805.7,-351.95 799,-365 775.57,-410.64 795.02,-435.6 761,-474 748.68,-487.91 731.97,-498.61 715.29,-506.68"/>
<polygon fill="green" stroke="green" stroke-width="2" points="713.7,-503.55 706.05,-510.89 716.61,-509.92 713.7,-503.55"/>
</g>
<!-- node9&#45;&gt;node10 -->
<g id="edge27" class="edge">
<title>node9&#45;&gt;node10</title>
<path fill="none" stroke="black" d="M831.12,-291.81C830.28,-283.79 830.05,-274.05 830.42,-265.07"/>
<polygon fill="black" stroke="black" points="833.92,-265.25 831.14,-255.03 826.94,-264.75 833.92,-265.25"/>
</g>
<!-- node9&#45;&gt;node10 -->
<g id="edge28" class="edge">
<title>node9&#45;&gt;node10</title>
<path fill="none" stroke="red" d="M842.88,-291.81C843.72,-283.79 843.95,-274.05 843.58,-265.07"/>
<polygon fill="red" stroke="red" points="847.06,-264.75 842.86,-255.03 840.08,-265.25 847.06,-264.75"/>
</g>
<!-- node10&#45;&gt;node0 -->
<g id="edge24" class="edge">
<title>node10&#45;&gt;node0</title>
<path fill="none" stroke="green" stroke-width="2" d="M973.15,-241.23C1146.55,-247.21 1424,-263.83 1424,-309 1424,-457 1424,-457 1424,-457 1424,-514.39 1353.11,-468.31 1296,-474 1052.93,-498.2 987.43,-480 744.53,-510.47"/>
<polygon fill="green" stroke="green" stroke-width="2" points="743.81,-507.03 734.33,-511.76 744.69,-513.98 743.81,-507.03"/>
</g>
<!-- node11 -->
<g id="node13" class="node">
<title>node11</title>
<polygon fill="orange" stroke="black" points="716.19,-156.54 716.19,-171.46 610.64,-182 461.36,-182 355.81,-171.46 355.81,-156.54 461.36,-146 610.64,-146 716.19,-156.54"/>
<text text-anchor="middle" x="536" y="-160.3" font-family="Times,serif" font-size="14.00">#11 Extend : SIGN int Order : 14</text>
</g>
<!-- node10&#45;&gt;node11 -->
<g id="edge30" class="edge">
<title>node10&#45;&gt;node11</title>
<path fill="none" stroke="black" d="M759.04,-218.99C713.88,-208.6 657.3,-195.27 612.4,-184.46"/>
<polygon fill="black" stroke="black" points="612.97,-181 602.43,-182.05 611.33,-187.8 612.97,-181"/>
<text text-anchor="middle" x="622.03" y="-174.39" font-family="Times,serif" font-size="14.00">*0</text>
</g>
<!-- node12 -->
<g id="node14" class="node">
<title>node12</title>
<polygon fill="lightgrey" stroke="black" points="940,-182 734,-182 734,-146 940,-146 940,-182"/>
<text text-anchor="middle" x="837" y="-160.3" font-family="Times,serif" font-size="14.00">#12 LabelNode Order : 11</text>
</g>
<!-- node10&#45;&gt;node12 -->
<g id="edge32" class="edge">
<title>node10&#45;&gt;node12</title>
<path fill="none" stroke="red" d="M831.12,-218.81C830.28,-210.79 830.05,-201.05 830.42,-192.07"/>
<polygon fill="red" stroke="red" points="833.92,-192.25 831.14,-182.03 826.94,-191.75 833.92,-192.25"/>
</g>
<!-- node14 -->
<g id="node16" class="node">
<title>node14</title>
<polygon fill="lightgrey" stroke="black" points="1066.5,-36 887.5,-36 887.5,0 1066.5,0 1066.5,-36"/>
<text text-anchor="middle" x="977" y="-14.3" font-family="Times,serif" font-size="14.00">#14 Return Order : 13</text>
</g>
<!-- node10&#45;&gt;node14 -->
<g id="edge37" class="edge">
<title>node10&#45;&gt;node14</title>
<path fill="none" stroke="black" d="M889.28,-218.99C907.87,-210.77 927.27,-198.89 940,-182 969.94,-142.27 972.18,-81.66 973.29,-46.63"/>
<polygon fill="black" stroke="black" points="976.8,-46.33 973.64,-36.21 969.81,-46.09 976.8,-46.33"/>
</g>
<!-- node11&#45;&gt;node10 -->
<g id="edge29" class="edge">
<title>node11&#45;&gt;node10</title>
<path fill="none" stroke="green" stroke-width="2" d="M613.09,-181.81C658.53,-192.26 715.75,-205.74 761,-216.64"/>
<polygon fill="green" stroke="green" stroke-width="2" points="760.22,-220.05 770.76,-218.99 761.86,-213.24 760.22,-220.05"/>
</g>
<!-- node12&#45;&gt;node10 -->
<g id="edge31" class="edge">
<title>node12&#45;&gt;node10</title>
<path fill="none" stroke="green" stroke-width="2" d="M842.86,-182.03C843.71,-190.03 843.95,-199.77 843.59,-208.75"/>
<polygon fill="green" stroke="green" stroke-width="2" points="840.09,-208.59 842.88,-218.81 847.07,-209.08 840.09,-208.59"/>
</g>
<!-- node13 -->
<g id="node15" class="node">
<title>node13</title>
<polygon fill="lightgrey" stroke="black" points="940,-109 734,-109 734,-73 940,-73 940,-109"/>
<text text-anchor="middle" x="837" y="-87.3" font-family="Times,serif" font-size="14.00">#13 LabelNode Order : 12</text>
</g>
<!-- node12&#45;&gt;node13 -->
<g id="edge34" class="edge">
<title>node12&#45;&gt;node13</title>
<path fill="none" stroke="red" d="M831.12,-145.81C830.28,-137.79 830.05,-128.05 830.42,-119.07"/>
<polygon fill="red" stroke="red" points="833.92,-119.25 831.14,-109.03 826.94,-118.75 833.92,-119.25"/>
</g>
<!-- node13&#45;&gt;node12 -->
<g id="edge33" class="edge">
<title>node13&#45;&gt;node12</title>
<path fill="none" stroke="green" stroke-width="2" d="M842.86,-109.03C843.71,-117.03 843.95,-126.77 843.59,-135.75"/>
<polygon fill="green" stroke="green" stroke-width="2" points="840.09,-135.59 842.88,-145.81 847.07,-136.08 840.09,-135.59"/>
</g>
<!-- node13&#45;&gt;node14 -->
<g id="edge36" class="edge">
<title>node13&#45;&gt;node14</title>
<path fill="none" stroke="red" d="M870.53,-72.99C889.61,-63.32 913.71,-51.1 934.15,-40.73"/>
<polygon fill="red" stroke="red" points="935.92,-43.76 943.25,-36.11 932.75,-37.52 935.92,-43.76"/>
</g>
<!-- node14&#45;&gt;node10 -->
<g id="edge35" class="edge">
<title>node14&#45;&gt;node10</title>
<path fill="none" stroke="green" stroke-width="2" d="M984.05,-36.21C990.34,-68.3 991.18,-137.97 958,-182 947.26,-196.25 931.77,-206.93 915.42,-214.86"/>
<polygon fill="green" stroke="green" stroke-width="2" points="913.95,-211.69 906.27,-218.99 916.83,-218.07 913.95,-211.69"/>
</g>
<!-- c0 -->
<!-- c1 -->
<!-- c0&#45;&gt;c1 -->
<g id="edge40" class="edge">
<title>c0&#45;&gt;c1</title>
<path fill="none" stroke="red" d="M1465.89,-529C1477.11,-529 1535.24,-529 1560.86,-529"/>
<polygon fill="red" stroke="red" points="1561.06,-532.5 1571.06,-529 1561.06,-525.5 1561.06,-532.5"/>
<text text-anchor="middle" x="1518.5" y="-535.8" font-family="Times,serif" font-size="14.00">Control flow</text>
</g>
<!-- c2 -->
<!-- c3 -->
<!-- c2&#45;&gt;c3 -->
<g id="edge41" class="edge">
<title>c2&#45;&gt;c3</title>
<path fill="none" stroke="red" stroke-dasharray="5,2" d="M1259.08,-529C1276.05,-529 1392.21,-529 1430.08,-529"/>
<polygon fill="red" stroke="red" points="1430.17,-532.5 1440.17,-529 1430.17,-525.5 1430.17,-532.5"/>
<text text-anchor="middle" x="1349.5" y="-535.8" font-family="Times,serif" font-size="14.00">Control flow back edge</text>
</g>
<!-- d0 -->
<!-- d1 -->
<!-- d0&#45;&gt;d1 -->
<g id="edge42" class="edge">
<title>d0&#45;&gt;d1</title>
<path fill="none" stroke="black" d="M1147.86,-529C1157.41,-529 1201.31,-529 1222.92,-529"/>
<polygon fill="black" stroke="black" points="1223.15,-532.5 1233.15,-529 1223.15,-525.5 1223.15,-532.5"/>
<text text-anchor="middle" x="1190.5" y="-535.8" font-family="Times,serif" font-size="14.00">Data flow</text>
</g>
<!-- d2 -->
<!-- d3 -->
<!-- d2&#45;&gt;d3 -->
<g id="edge43" class="edge">
<title>d2&#45;&gt;d3</title>
<path fill="none" stroke="black" stroke-dasharray="1,5" d="M1021.81,-529C1032.46,-529 1087.46,-529 1112.08,-529"/>
<polygon fill="black" stroke="black" points="1112.15,-532.5 1122.15,-529 1112.15,-525.5 1112.15,-532.5"/>
<text text-anchor="middle" x="1072" y="-535.8" font-family="Times,serif" font-size="14.00">Declaration</text>
</g>
<!-- d4 -->
<!-- d5 -->
<!-- d4&#45;&gt;d5 -->
<g id="edge44" class="edge">
<title>d4&#45;&gt;d5</title>
<path fill="none" stroke="blue" d="M879.1,-529C891.72,-529 957.88,-529 985.68,-529"/>
<polygon fill="blue" stroke="blue" points="985.84,-532.5 995.84,-529 985.84,-525.5 985.84,-532.5"/>
<text text-anchor="middle" x="937.5" y="-535.8" font-family="Times,serif" font-size="14.00">PHI Data flow</text>
</g>
<!-- d6 -->
<!-- d7 -->
<!-- d6&#45;&gt;d7 -->
<g id="edge45" class="edge">
<title>d6&#45;&gt;d7</title>
<path fill="none" stroke="green" d="M756.11,-529C767.15,-529 818.67,-529 842.66,-529"/>
<polygon fill="green" stroke="green" points="842.9,-532.5 852.9,-529 842.9,-525.5 842.9,-532.5"/>
<text text-anchor="middle" x="804.5" y="-535.8" font-family="Times,serif" font-size="14.00">Dominance</text>
</g>
</g>
</svg>
