<?xml version="1.0" encoding="UTF-8" standalone="no"?>
<!DOCTYPE svg PUBLIC "-//W3C//DTD SVG 1.1//EN"
 "http://www.w3.org/Graphics/SVG/1.1/DTD/svg11.dtd">
<!-- Generated by graphviz version 2.43.0 (0)
 -->
<!-- Title: debugoutput Pages: 1 -->
<svg width="1601pt" height="651pt"
 viewBox="0.00 0.00 1601.00 650.80" xmlns="http://www.w3.org/2000/svg" xmlns:xlink="http://www.w3.org/1999/xlink">
<g id="graph0" class="graph" transform="scale(1 1) rotate(0) translate(4 646.8)">
<title>debugoutput</title>
<polygon fill="white" stroke="transparent" points="-4,4 -4,-646.8 1597,-646.8 1597,4 -4,4"/>
<g id="clust1" class="cluster">
<title>cluster_000</title>
<polygon fill="none" stroke="black" points="609,-592.2 609,-634.8 1585,-634.8 1585,-592.2 609,-592.2"/>
<text text-anchor="middle" x="1097" y="-619.6" font-family="Times,serif" font-size="14.00">Legend</text>
</g>
<!-- node0 -->
<g id="node1" class="node">
<title>node0</title>
<polygon fill="lightgrey" stroke="black" points="599,-620 433,-620 433,-584 599,-584 599,-620"/>
<text text-anchor="middle" x="516" y="-598.3" font-family="Times,serif" font-size="14.00">#0 Method Order : 0</text>
</g>
<!-- node1 -->
<g id="node2" class="node">
<title>node1</title>
<polygon fill="lightgrey" stroke="black" points="230,-547 0,-547 0,-511 230,-511 230,-547"/>
<text text-anchor="middle" x="115" y="-525.3" font-family="Times,serif" font-size="14.00">#1 this : ArrayTest Order : 16</text>
</g>
<!-- node0&#45;&gt;node1 -->
<g id="edge2" class="edge">
<title>node0&#45;&gt;node1</title>
<path fill="none" stroke="black" d="M432.98,-594.23C376.63,-588.6 300.79,-579.34 235,-566 213.75,-561.69 190.87,-555.75 170.8,-549.93"/>
<polygon fill="black" stroke="black" points="171.77,-546.56 161.19,-547.09 169.79,-553.28 171.77,-546.56"/>
<text text-anchor="middle" x="180.96" y="-540.42" font-family="Times,serif" font-size="14.00">*0</text>
</g>
<!-- node2 -->
<g id="node3" class="node">
<title>node2</title>
<polygon fill="lightgrey" stroke="black" points="680,-547 492,-547 492,-511 680,-511 680,-547"/>
<text text-anchor="middle" x="586" y="-525.3" font-family="Times,serif" font-size="14.00">#2 LabelNode Order : 1</text>
</g>
<!-- node0&#45;&gt;node2 -->
<g id="edge4" class="edge">
<title>node0&#45;&gt;node2</title>
<path fill="none" stroke="red" d="M527.07,-583.81C534.98,-574.83 545.78,-563.69 556.03,-553.89"/>
<polygon fill="red" stroke="red" points="558.45,-556.42 563.35,-547.03 553.66,-551.31 558.45,-556.42"/>
</g>
<!-- node5 -->
<g id="node6" class="node">
<title>node5</title>
<polygon fill="orange" stroke="black" points="656.04,-375.54 656.04,-390.46 547.64,-401 394.36,-401 285.96,-390.46 285.96,-375.54 394.36,-365 547.64,-365 656.04,-375.54"/>
<text text-anchor="middle" x="471" y="-379.3" font-family="Times,serif" font-size="14.00">#5 NewArray : boolean[] Order : 3</text>
</g>
<!-- node0&#45;&gt;node5 -->
<g id="edge11" class="edge">
<title>node0&#45;&gt;node5</title>
<path fill="none" stroke="green" d="M495.43,-583.84C487.32,-573.62 479.07,-560.12 474,-547 456.55,-501.87 457.02,-444.53 461.94,-411.28"/>
<polygon fill="green" stroke="green" points="465.4,-411.83 463.68,-401.37 458.51,-410.62 465.4,-411.83"/>
</g>
<!-- node1&#45;&gt;node0 -->
<g id="edge1" class="edge">
<title>node1&#45;&gt;node0</title>
<path fill="none" stroke="fuchsia" stroke-width="2" d="M177.82,-547.09C201.34,-553.76 228.28,-560.99 253,-566 308.99,-577.35 372.24,-585.75 422.73,-591.47"/>
<polygon fill="fuchsia" stroke="fuchsia" stroke-width="2" points="422.65,-594.99 432.97,-592.62 423.42,-588.03 422.65,-594.99"/>
</g>
<!-- node2&#45;&gt;node0 -->
<g id="edge3" class="edge">
<title>node2&#45;&gt;node0</title>
<path fill="none" stroke="fuchsia" stroke-width="2" d="M575.07,-547.03C567.19,-555.99 556.4,-567.12 546.15,-576.94"/>
<polygon fill="fuchsia" stroke="fuchsia" stroke-width="2" points="543.72,-574.42 538.82,-583.81 548.51,-579.52 543.72,-574.42"/>
</g>
<!-- node3 -->
<g id="node4" class="node">
<title>node3</title>
<polygon fill="lightgrey" stroke="black" points="900,-474 712,-474 712,-438 900,-438 900,-474"/>
<text text-anchor="middle" x="806" y="-452.3" font-family="Times,serif" font-size="14.00">#3 LabelNode Order : 5</text>
</g>
<!-- node2&#45;&gt;node3 -->
<g id="edge6" class="edge">
<title>node2&#45;&gt;node3</title>
<path fill="none" stroke="red" d="M632.84,-510.99C663.23,-500.84 703.28,-487.88 737.24,-477.2"/>
<polygon fill="red" stroke="red" points="738.61,-480.44 747.1,-474.11 736.51,-473.76 738.61,-480.44"/>
</g>
<!-- node4 -->
<g id="node5" class="node">
<title>node4</title>
<polygon fill="lightgreen" stroke="black" points="693.77,-448.54 693.77,-463.46 630.64,-474 541.36,-474 478.23,-463.46 478.23,-448.54 541.36,-438 630.64,-438 693.77,-448.54"/>
<text text-anchor="middle" x="586" y="-452.3" font-family="Times,serif" font-size="14.00">#4 int 10 Order : 2</text>
</g>
<!-- node2&#45;&gt;node4 -->
<g id="edge8" class="edge">
<title>node2&#45;&gt;node4</title>
<path fill="none" stroke="black" stroke-dasharray="1,5" d="M580.12,-510.81C579.28,-502.79 579.05,-493.05 579.42,-484.07"/>
<polygon fill="black" stroke="black" points="582.92,-484.25 580.14,-474.03 575.94,-483.75 582.92,-484.25"/>
</g>
<!-- node3&#45;&gt;node2 -->
<g id="edge5" class="edge">
<title>node3&#45;&gt;node2</title>
<path fill="none" stroke="fuchsia" stroke-width="2" d="M758.84,-474.11C728.38,-484.29 688.32,-497.25 654.4,-507.91"/>
<polygon fill="fuchsia" stroke="fuchsia" stroke-width="2" points="653.05,-504.66 644.55,-510.99 655.14,-511.34 653.05,-504.66"/>
</g>
<!-- node6 -->
<g id="node7" class="node">
<title>node6</title>
<polygon fill="lightgreen" stroke="black" points="1097.11,-375.54 1097.11,-390.46 1037.88,-401 954.12,-401 894.89,-390.46 894.89,-375.54 954.12,-365 1037.88,-365 1097.11,-375.54"/>
<text text-anchor="middle" x="996" y="-379.3" font-family="Times,serif" font-size="14.00">#6 int 1 Order : 7</text>
</g>
<!-- node3&#45;&gt;node6 -->
<g id="edge13" class="edge">
<title>node3&#45;&gt;node6</title>
<path fill="none" stroke="black" stroke-dasharray="1,5" d="M845.65,-437.99C872.48,-427.55 908.26,-414.16 938.22,-403.32"/>
<polygon fill="black" stroke="black" points="939.51,-406.57 947.73,-399.89 937.14,-399.99 939.51,-406.57"/>
</g>
<!-- node7 -->
<g id="node8" class="node">
<title>node7</title>
<polygon fill="lightgreen" stroke="black" points="876.11,-375.54 876.11,-390.46 816.88,-401 733.12,-401 673.89,-390.46 673.89,-375.54 733.12,-365 816.88,-365 876.11,-375.54"/>
<text text-anchor="middle" x="775" y="-379.3" font-family="Times,serif" font-size="14.00">#7 int 0 Order : 6</text>
</g>
<!-- node3&#45;&gt;node7 -->
<g id="edge15" class="edge">
<title>node3&#45;&gt;node7</title>
<path fill="none" stroke="black" stroke-dasharray="1,5" d="M792.62,-437.81C788.18,-429.62 783.59,-419.62 780.01,-410.48"/>
<polygon fill="black" stroke="black" points="783.28,-409.23 776.57,-401.03 776.7,-411.62 783.28,-409.23"/>
</g>
<!-- node10 -->
<g id="node11" class="node">
<title>node10</title>
<polygon fill="lightgrey" stroke="black" points="1067,-255 789,-255 789,-219 1067,-219 1067,-255"/>
<text text-anchor="middle" x="928" y="-233.3" font-family="Times,serif" font-size="14.00">#10 ArrayStore : boolean[] Order : 9</text>
</g>
<!-- node3&#45;&gt;node10 -->
<g id="edge25" class="edge">
<title>node3&#45;&gt;node10</title>
<path fill="none" stroke="red" d="M900.08,-450.6C977.77,-444.8 1079.44,-431.47 1106,-401 1137.84,-364.47 1137.96,-330.86 1109,-292 1098.61,-278.06 1065.78,-266.4 1030.87,-257.53"/>
<polygon fill="red" stroke="red" points="1031.54,-254.09 1020.99,-255.1 1029.87,-260.89 1031.54,-254.09"/>
</g>
<!-- node4&#45;&gt;node2 -->
<g id="edge7" class="edge">
<title>node4&#45;&gt;node2</title>
<path fill="none" stroke="fuchsia" stroke-width="2" d="M591.86,-474.03C592.71,-482.03 592.95,-491.77 592.59,-500.75"/>
<polygon fill="fuchsia" stroke="fuchsia" stroke-width="2" points="589.09,-500.59 591.88,-510.81 596.07,-501.08 589.09,-500.59"/>
</g>
<!-- node4&#45;&gt;node5 -->
<g id="edge10" class="edge">
<title>node4&#45;&gt;node5</title>
<path fill="none" stroke="black" d="M558.45,-437.99C543.2,-428.58 524.05,-416.76 507.56,-406.57"/>
<polygon fill="black" stroke="black" points="509.07,-403.39 498.72,-401.11 505.39,-409.35 509.07,-403.39"/>
<text text-anchor="middle" x="518.58" y="-399.74" font-family="Times,serif" font-size="14.00">*0</text>
</g>
<!-- node5&#45;&gt;node0 -->
<g id="edge9" class="edge">
<title>node5&#45;&gt;node0</title>
<path fill="none" stroke="fuchsia" stroke-width="2" d="M474.44,-401.37C475.33,-431.97 472.66,-496.98 492,-547 495.73,-556.63 501.16,-566.47 506.11,-575.07"/>
<polygon fill="fuchsia" stroke="fuchsia" stroke-width="2" points="503.14,-576.93 511.18,-583.84 509.21,-573.43 503.14,-576.93"/>
</g>
<!-- node8 -->
<g id="node9" class="node">
<title>node8</title>
<polygon fill="orange" stroke="black" points="644.3,-302.54 644.3,-317.46 561.53,-328 444.47,-328 361.7,-317.46 361.7,-302.54 444.47,-292 561.53,-292 644.3,-302.54"/>
<text text-anchor="middle" x="503" y="-306.3" font-family="Times,serif" font-size="14.00">#8 ArrayLength Order : 4</text>
</g>
<!-- node5&#45;&gt;node8 -->
<g id="edge17" class="edge">
<title>node5&#45;&gt;node8</title>
<path fill="none" stroke="black" d="M472.87,-364.81C475.77,-356.44 480.17,-346.2 484.8,-336.9"/>
<polygon fill="black" stroke="black" points="487.91,-338.51 489.46,-328.03 481.71,-335.25 487.91,-338.51"/>
<text text-anchor="middle" x="488.51" y="-344.31" font-family="Times,serif" font-size="14.00">*0</text>
</g>
<!-- node5&#45;&gt;node10 -->
<g id="edge21" class="edge">
<title>node5&#45;&gt;node10</title>
<path fill="none" stroke="black" d="M529.07,-364.99C562.97,-355.35 606.27,-342.37 644,-328 697.7,-307.55 706.62,-291.55 761,-273 778.47,-267.04 797.38,-261.84 815.99,-257.39"/>
<polygon fill="black" stroke="black" points="817.03,-260.74 825.98,-255.07 815.45,-253.92 817.03,-260.74"/>
<text text-anchor="middle" x="810.24" y="-263.7" font-family="Times,serif" font-size="14.00">*0</text>
</g>
<!-- node5&#45;&gt;node10 -->
<g id="edge24" class="edge">
<title>node5&#45;&gt;node10</title>
<path fill="none" stroke="green" d="M545.09,-364.99C580.97,-355.35 624.27,-342.37 662,-328 715.7,-307.55 724.62,-291.55 779,-273 796.47,-267.04 815.38,-261.84 833.68,-257.39"/>
<polygon fill="green" stroke="green" points="834.56,-260.78 843.48,-255.07 832.94,-253.97 834.56,-260.78"/>
</g>
<!-- node13 -->
<g id="node14" class="node">
<title>node13</title>
<polygon fill="lightgrey" stroke="black" points="470,-109 198,-109 198,-73 470,-73 470,-109"/>
<text text-anchor="middle" x="334" y="-87.3" font-family="Times,serif" font-size="14.00">#13 ArrayLoad : boolean Order : 13</text>
</g>
<!-- node5&#45;&gt;node13 -->
<g id="edge31" class="edge">
<title>node5&#45;&gt;node13</title>
<path fill="none" stroke="black" d="M383.07,-365.95C356.39,-355.64 334,-338.73 334,-311 334,-311 334,-311 334,-163 334,-148.65 334,-132.67 334,-119.51"/>
<polygon fill="black" stroke="black" points="337.5,-119.22 334,-109.22 330.5,-119.22 337.5,-119.22"/>
<text text-anchor="middle" x="342.45" y="-123.64" font-family="Times,serif" font-size="14.00">*0</text>
</g>
<!-- node6&#45;&gt;node3 -->
<g id="edge12" class="edge">
<title>node6&#45;&gt;node3</title>
<path fill="none" stroke="fuchsia" stroke-width="2" d="M956.07,-401.11C930.25,-411.16 896.21,-423.92 867.05,-434.5"/>
<polygon fill="fuchsia" stroke="fuchsia" stroke-width="2" points="865.59,-431.3 857.37,-437.99 867.96,-437.89 865.59,-431.3"/>
</g>
<!-- node9 -->
<g id="node10" class="node">
<title>node9</title>
<polygon fill="orange" stroke="black" points="1099.8,-302.54 1099.8,-317.46 999.16,-328 856.84,-328 756.2,-317.46 756.2,-302.54 856.84,-292 999.16,-292 1099.8,-302.54"/>
<text text-anchor="middle" x="928" y="-306.3" font-family="Times,serif" font-size="14.00">#9 Truncate : boolean Order : 8</text>
</g>
<!-- node6&#45;&gt;node9 -->
<g id="edge19" class="edge">
<title>node6&#45;&gt;node9</title>
<path fill="none" stroke="black" d="M973.66,-364.81C964.4,-356.09 953.9,-345.34 945.23,-335.75"/>
<polygon fill="black" stroke="black" points="947.68,-333.23 938.45,-328.03 942.42,-337.85 947.68,-333.23"/>
<text text-anchor="middle" x="956.76" y="-332.36" font-family="Times,serif" font-size="14.00">*0</text>
</g>
<!-- node7&#45;&gt;node3 -->
<g id="edge14" class="edge">
<title>node7&#45;&gt;node3</title>
<path fill="none" stroke="fuchsia" stroke-width="2" d="M788.3,-401.03C792.73,-409.2 797.32,-419.19 800.92,-428.34"/>
<polygon fill="fuchsia" stroke="fuchsia" stroke-width="2" points="797.66,-429.62 804.37,-437.81 804.24,-427.22 797.66,-429.62"/>
</g>
<!-- node7&#45;&gt;node10 -->
<g id="edge22" class="edge">
<title>node7&#45;&gt;node10</title>
<path fill="none" stroke="black" d="M761.28,-364.88C747.56,-345.54 730.67,-313.91 747,-292 757.39,-278.06 790.22,-266.4 825.13,-257.53"/>
<polygon fill="black" stroke="black" points="826.13,-260.89 835.01,-255.1 824.46,-254.09 826.13,-260.89"/>
<text text-anchor="middle" x="819.42" y="-263.94" font-family="Times,serif" font-size="14.00">*1</text>
</g>
<!-- node8&#45;&gt;node5 -->
<g id="edge16" class="edge">
<title>node8&#45;&gt;node5</title>
<path fill="none" stroke="fuchsia" stroke-width="2" d="M501.19,-328.03C498.31,-336.38 493.92,-346.61 489.29,-355.92"/>
<polygon fill="fuchsia" stroke="fuchsia" stroke-width="2" points="486.17,-354.33 484.62,-364.81 492.37,-357.58 486.17,-354.33"/>
</g>
<!-- node9&#45;&gt;node6 -->
<g id="edge18" class="edge">
<title>node9&#45;&gt;node6</title>
<path fill="none" stroke="fuchsia" stroke-width="2" d="M950.17,-328.03C959.42,-336.73 969.92,-347.47 978.61,-357.08"/>
<polygon fill="fuchsia" stroke="fuchsia" stroke-width="2" points="976.18,-359.62 985.42,-364.81 981.44,-354.99 976.18,-359.62"/>
</g>
<!-- node9&#45;&gt;node10 -->
<g id="edge23" class="edge">
<title>node9&#45;&gt;node10</title>
<path fill="none" stroke="black" d="M928,-291.81C928,-283.79 928,-274.05 928,-265.07"/>
<polygon fill="black" stroke="black" points="931.5,-265.03 928,-255.03 924.5,-265.03 931.5,-265.03"/>
<text text-anchor="middle" x="936.45" y="-269.45" font-family="Times,serif" font-size="14.00">*2</text>
</g>
<!-- node10&#45;&gt;node0 -->
<g id="edge20" class="edge">
<title>node10&#45;&gt;node0</title>
<path fill="none" stroke="fuchsia" stroke-width="2" d="M1058.84,-255.06C1114.14,-266.05 1166,-283.24 1166,-309 1166,-530 1166,-530 1166,-530 1166,-590.11 706.15,-576.39 609.48,-583.79"/>
<polygon fill="fuchsia" stroke="fuchsia" stroke-width="2" points="608.93,-580.33 599.34,-584.84 609.64,-587.3 608.93,-580.33"/>
</g>
<!-- node11 -->
<g id="node12" class="node">
<title>node11</title>
<polygon fill="lightgrey" stroke="black" points="1111,-182 905,-182 905,-146 1111,-146 1111,-182"/>
<text text-anchor="middle" x="1008" y="-160.3" font-family="Times,serif" font-size="14.00">#11 LabelNode Order : 11</text>
</g>
<!-- node10&#45;&gt;node11 -->
<g id="edge27" class="edge">
<title>node10&#45;&gt;node11</title>
<path fill="none" stroke="red" d="M941.49,-218.81C950.76,-209.74 963.28,-198.48 975.01,-188.6"/>
<polygon fill="red" stroke="red" points="977.48,-191.1 982.95,-182.03 973.01,-185.71 977.48,-191.1"/>
</g>
<!-- node12 -->
<g id="node13" class="node">
<title>node12</title>
<polygon fill="lightgreen" stroke="black" points="886.93,-156.54 886.93,-171.46 820.19,-182 725.81,-182 659.07,-171.46 659.07,-156.54 725.81,-146 820.19,-146 886.93,-156.54"/>
<text text-anchor="middle" x="773" y="-160.3" font-family="Times,serif" font-size="14.00">#12 int 1 Order : 10</text>
</g>
<!-- node10&#45;&gt;node12 -->
<g id="edge29" class="edge">
<title>node10&#45;&gt;node12</title>
<path fill="none" stroke="black" stroke-dasharray="1,5" d="M885.01,-218.99C862.66,-209.23 835.56,-196.88 813.57,-186.45"/>
<polygon fill="black" stroke="black" points="815.02,-183.26 804.49,-182.11 812.01,-189.58 815.02,-183.26"/>
</g>
<!-- node10&#45;&gt;node13 -->
<g id="edge33" class="edge">
<title>node10&#45;&gt;node13</title>
<path fill="none" stroke="green" d="M829.46,-218.98C776.1,-209.23 709.18,-196.15 650,-182 562.05,-160.98 461.86,-131.48 398.31,-112.07"/>
<polygon fill="green" stroke="green" points="399.02,-108.62 388.43,-109.04 396.96,-115.31 399.02,-108.62"/>
</g>
<!-- node11&#45;&gt;node10 -->
<g id="edge26" class="edge">
<title>node11&#45;&gt;node10</title>
<path fill="none" stroke="fuchsia" stroke-width="2" d="M994.67,-182.03C985.44,-191.07 972.94,-202.33 961.2,-212.23"/>
<polygon fill="fuchsia" stroke="fuchsia" stroke-width="2" points="958.71,-209.74 953.24,-218.81 963.18,-215.13 958.71,-209.74"/>
</g>
<!-- node14 -->
<g id="node15" class="node">
<title>node14</title>
<polygon fill="lightgrey" stroke="black" points="1111,-109 905,-109 905,-73 1111,-73 1111,-109"/>
<text text-anchor="middle" x="1008" y="-87.3" font-family="Times,serif" font-size="14.00">#14 LabelNode Order : 12</text>
</g>
<!-- node11&#45;&gt;node14 -->
<g id="edge35" class="edge">
<title>node11&#45;&gt;node14</title>
<path fill="none" stroke="red" d="M1002.12,-145.81C1001.28,-137.79 1001.05,-128.05 1001.42,-119.07"/>
<polygon fill="red" stroke="red" points="1004.92,-119.25 1002.14,-109.03 997.94,-118.75 1004.92,-119.25"/>
</g>
<!-- node12&#45;&gt;node10 -->
<g id="edge28" class="edge">
<title>node12&#45;&gt;node10</title>
<path fill="none" stroke="fuchsia" stroke-width="2" d="M816.23,-182.11C838.62,-191.9 865.72,-204.25 887.67,-214.66"/>
<polygon fill="fuchsia" stroke="fuchsia" stroke-width="2" points="886.2,-217.84 896.73,-218.99 889.22,-211.53 886.2,-217.84"/>
</g>
<!-- node12&#45;&gt;node13 -->
<g id="edge32" class="edge">
<title>node12&#45;&gt;node13</title>
<path fill="none" stroke="black" d="M696.28,-150.59C628.18,-139.58 527.7,-123.33 449.82,-110.73"/>
<polygon fill="black" stroke="black" points="449.91,-107.2 439.48,-109.06 448.79,-114.11 449.91,-107.2"/>
<text text-anchor="middle" x="458.72" y="-99.91" font-family="Times,serif" font-size="14.00">*1</text>
</g>
<!-- node13&#45;&gt;node0 -->
<g id="edge30" class="edge">
<title>node13&#45;&gt;node0</title>
<path fill="none" stroke="fuchsia" stroke-width="2" d="M297.78,-109.06C278.21,-121.03 258,-139.17 258,-163 258,-530 258,-530 258,-530 258,-565.27 348.78,-583.68 422.65,-592.82"/>
<polygon fill="fuchsia" stroke="fuchsia" stroke-width="2" points="422.6,-596.34 432.95,-594.05 423.43,-589.39 422.6,-596.34"/>
</g>
<!-- node15 -->
<g id="node16" class="node">
<title>node15</title>
<polygon fill="orange" stroke="black" points="514.19,-10.54 514.19,-25.46 408.64,-36 259.36,-36 153.81,-25.46 153.81,-10.54 259.36,0 408.64,0 514.19,-10.54"/>
<text text-anchor="middle" x="334" y="-14.3" font-family="Times,serif" font-size="14.00">#15 Extend : SIGN int Order : 15</text>
</g>
<!-- node13&#45;&gt;node15 -->
<g id="edge37" class="edge">
<title>node13&#45;&gt;node15</title>
<path fill="none" stroke="black" d="M328.12,-72.81C327.28,-64.79 327.05,-55.05 327.42,-46.07"/>
<polygon fill="black" stroke="black" points="330.92,-46.25 328.14,-36.03 323.94,-45.75 330.92,-46.25"/>
<text text-anchor="middle" x="335.28" y="-51.01" font-family="Times,serif" font-size="14.00">*0</text>
</g>
<!-- node16 -->
<g id="node17" class="node">
<title>node16</title>
<polygon fill="lightgrey" stroke="black" points="1224.5,-36 1045.5,-36 1045.5,0 1224.5,0 1224.5,-36"/>
<text text-anchor="middle" x="1135" y="-14.3" font-family="Times,serif" font-size="14.00">#16 Return Order : 14</text>
</g>
<!-- node13&#45;&gt;node16 -->
<g id="edge40" class="edge">
<title>node13&#45;&gt;node16</title>
<path fill="none" stroke="green" d="M470.33,-77.92C630.61,-63.71 892.76,-40.47 1035.23,-27.84"/>
<polygon fill="green" stroke="green" points="1035.62,-31.32 1045.27,-26.95 1035,-24.35 1035.62,-31.32"/>
</g>
<!-- node14&#45;&gt;node11 -->
<g id="edge34" class="edge">
<title>node14&#45;&gt;node11</title>
<path fill="none" stroke="fuchsia" stroke-width="2" d="M1013.86,-109.03C1014.71,-117.03 1014.95,-126.77 1014.59,-135.75"/>
<polygon fill="fuchsia" stroke="fuchsia" stroke-width="2" points="1011.09,-135.59 1013.88,-145.81 1018.07,-136.08 1011.09,-135.59"/>
</g>
<!-- node14&#45;&gt;node16 -->
<g id="edge39" class="edge">
<title>node14&#45;&gt;node16</title>
<path fill="none" stroke="red" d="M1038.42,-72.99C1055.57,-63.4 1077.19,-51.32 1095.63,-41.01"/>
<polygon fill="red" stroke="red" points="1097.37,-44.05 1104.39,-36.11 1093.95,-37.94 1097.37,-44.05"/>
</g>
<!-- node15&#45;&gt;node13 -->
<g id="edge36" class="edge">
<title>node15&#45;&gt;node13</title>
<path fill="none" stroke="fuchsia" stroke-width="2" d="M339.86,-36.03C340.71,-44.03 340.95,-53.77 340.59,-62.75"/>
<polygon fill="fuchsia" stroke="fuchsia" stroke-width="2" points="337.09,-62.59 339.88,-72.81 344.07,-63.08 337.09,-62.59"/>
</g>
<!-- node16&#45;&gt;node0 -->
<g id="edge38" class="edge">
<title>node16&#45;&gt;node0</title>
<path fill="none" stroke="fuchsia" stroke-width="2" d="M1166.67,-36.04C1184.81,-48.32 1204,-66.8 1204,-90 1204,-530 1204,-530 1204,-530 1204,-583.56 1142.1,-559 1089,-566 878.92,-593.7 820.7,-560.8 609.49,-583.56"/>
<polygon fill="fuchsia" stroke="fuchsia" stroke-width="2" points="608.87,-580.11 599.32,-584.69 609.64,-587.07 608.87,-580.11"/>
</g>
<!-- c0 -->
<!-- c1 -->
<!-- c0&#45;&gt;c1 -->
<g id="edge41" class="edge">
<title>c0&#45;&gt;c1</title>
<path fill="none" stroke="red" d="M1467.89,-602C1479.11,-602 1537.24,-602 1562.86,-602"/>
<polygon fill="red" stroke="red" points="1563.06,-605.5 1573.06,-602 1563.06,-598.5 1563.06,-605.5"/>
<text text-anchor="middle" x="1520.5" y="-608.8" font-family="Times,serif" font-size="14.00">Control flow</text>
</g>
<!-- c2 -->
<!-- c3 -->
<!-- c2&#45;&gt;c3 -->
<g id="edge42" class="edge">
<title>c2&#45;&gt;c3</title>
<path fill="none" stroke="red" stroke-dasharray="5,2" d="M1261.08,-602C1278.05,-602 1394.21,-602 1432.08,-602"/>
<polygon fill="red" stroke="red" points="1432.17,-605.5 1442.17,-602 1432.17,-598.5 1432.17,-605.5"/>
<text text-anchor="middle" x="1351.5" y="-608.8" font-family="Times,serif" font-size="14.00">Control flow back edge</text>
</g>
<!-- d0 -->
<!-- d1 -->
<!-- d0&#45;&gt;d1 -->
<g id="edge43" class="edge">
<title>d0&#45;&gt;d1</title>
<path fill="none" stroke="black" d="M1149.86,-602C1159.41,-602 1203.31,-602 1224.92,-602"/>
<polygon fill="black" stroke="black" points="1225.15,-605.5 1235.15,-602 1225.15,-598.5 1225.15,-605.5"/>
<text text-anchor="middle" x="1192.5" y="-608.8" font-family="Times,serif" font-size="14.00">Data flow</text>
</g>
<!-- d2 -->
<!-- d3 -->
<!-- d2&#45;&gt;d3 -->
<g id="edge44" class="edge">
<title>d2&#45;&gt;d3</title>
<path fill="none" stroke="black" stroke-dasharray="1,5" d="M1023.81,-602C1034.46,-602 1089.46,-602 1114.08,-602"/>
<polygon fill="black" stroke="black" points="1114.15,-605.5 1124.15,-602 1114.15,-598.5 1114.15,-605.5"/>
<text text-anchor="middle" x="1074" y="-608.8" font-family="Times,serif" font-size="14.00">Declaration</text>
</g>
<!-- d4 -->
<!-- d5 -->
<!-- d4&#45;&gt;d5 -->
<g id="edge45" class="edge">
<title>d4&#45;&gt;d5</title>
<path fill="none" stroke="blue" d="M881.1,-602C893.72,-602 959.88,-602 987.68,-602"/>
<polygon fill="blue" stroke="blue" points="987.84,-605.5 997.84,-602 987.84,-598.5 987.84,-605.5"/>
<text text-anchor="middle" x="939.5" y="-608.8" font-family="Times,serif" font-size="14.00">PHI Data flow</text>
</g>
<!-- d6 -->
<!-- d7 -->
<!-- d6&#45;&gt;d7 -->
<g id="edge46" class="edge">
<title>d6&#45;&gt;d7</title>
<path fill="none" stroke="green" d="M744,-602C755.94,-602 818.3,-602 844.93,-602"/>
<polygon fill="green" stroke="green" points="844.95,-605.5 854.95,-602 844.95,-598.5 844.95,-605.5"/>
<text text-anchor="middle" x="799.5" y="-608.8" font-family="Times,serif" font-size="14.00">Memory flow</text>
</g>
<!-- d8 -->
<!-- d9 -->
<!-- d8&#45;&gt;d9 -->
<g id="edge47" class="edge">
<title>d8&#45;&gt;d9</title>
<path fill="none" stroke="fuchsia" d="M621.11,-602C632.15,-602 683.67,-602 707.66,-602"/>
<polygon fill="fuchsia" stroke="fuchsia" points="707.9,-605.5 717.9,-602 707.9,-598.5 707.9,-605.5"/>
<text text-anchor="middle" x="669.5" y="-608.8" font-family="Times,serif" font-size="14.00">Dominance</text>
</g>
</g>
</svg>
