<?xml version="1.0" encoding="UTF-8" standalone="no"?>
<!DOCTYPE svg PUBLIC "-//W3C//DTD SVG 1.1//EN"
 "http://www.w3.org/Graphics/SVG/1.1/DTD/svg11.dtd">
<!-- Generated by graphviz version 2.43.0 (0)
 -->
<!-- Title: %3 Pages: 1 -->
<svg width="1811pt" height="662pt"
 viewBox="0.00 0.00 1810.50 662.00" xmlns="http://www.w3.org/2000/svg" xmlns:xlink="http://www.w3.org/1999/xlink">
<g id="graph0" class="graph" transform="scale(1 1) rotate(0) translate(4 658)">
<title>%3</title>
<polygon fill="white" stroke="transparent" points="-4,4 -4,-658 1806.5,-658 1806.5,4 -4,4"/>
<g id="clust1" class="cluster">
<title>cluster_0</title>
<polygon fill="none" stroke="lightgray" points="129.5,-503 129.5,-646 933.5,-646 933.5,-503 129.5,-503"/>
</g>
<g id="clust2" class="cluster">
<title>cluster_000</title>
<polygon fill="none" stroke="black" points="941.5,-601.2 941.5,-643.8 1794.5,-643.8 1794.5,-601.2 941.5,-601.2"/>
<text text-anchor="middle" x="1368" y="-628.6" font-family="Times,serif" font-size="14.00">Legend</text>
</g>
<!-- node0 -->
<g id="node1" class="node">
<title>node0</title>
<polygon fill="lightgrey" stroke="transparent" points="425,-638 258,-638 258,-584 425,-584 425,-638"/>
<polygon fill="none" stroke="black" points="258.5,-611 258.5,-638 425.5,-638 425.5,-611 258.5,-611"/>
<text text-anchor="start" x="301.5" y="-620.8" font-family="Times,serif" font-size="14.00">#0 Method</text>
<polygon fill="yellow" stroke="transparent" points="258.5,-584 258.5,-611 425.5,-611 425.5,-584 258.5,-584"/>
<polygon fill="none" stroke="black" points="258.5,-584 258.5,-611 425.5,-611 425.5,-584 258.5,-584"/>
<text text-anchor="start" x="264.5" y="-593.8" font-family="Times,serif" font-size="14.00">this : FieldAccessTest</text>
</g>
<!-- node2 -->
<g id="node2" class="node">
<title>node2</title>
<polygon fill="lightgrey" stroke="black" points="119,-547 0,-547 0,-511 119,-511 119,-547"/>
<text text-anchor="middle" x="59.5" y="-525.3" font-family="Times,serif" font-size="14.00">#2 LabelNode</text>
</g>
<!-- node0&#45;&gt;node2 -->
<g id="edge1" class="edge">
<title>node0&#45;&gt;node2</title>
<path fill="none" stroke="red" d="M257.65,-586.21C216.64,-574.58 167.87,-560.74 128.97,-549.71"/>
<polygon fill="red" stroke="red" points="129.88,-546.33 119.31,-546.97 127.97,-553.06 129.88,-546.33"/>
</g>
<!-- node4 -->
<g id="node3" class="node">
<title>node4</title>
<polygon fill="lightgrey" stroke="black" points="394,-474 289,-474 289,-438 394,-438 394,-474"/>
<text text-anchor="middle" x="341.5" y="-452.3" font-family="Times,serif" font-size="14.00">#4 ClassInit</text>
</g>
<!-- node0&#45;&gt;node4 -->
<g id="edge4" class="edge">
<title>node0&#45;&gt;node4</title>
<path fill="none" stroke="green" d="M425.19,-607.19C580.6,-601.11 901.07,-584.17 934.5,-547 947.58,-532.46 947.78,-517.35 934.5,-503 899.06,-464.7 549.83,-458.2 404.48,-457.17"/>
<polygon fill="green" stroke="green" points="404.39,-453.67 394.37,-457.1 404.35,-460.67 404.39,-453.67"/>
</g>
<!-- node3 -->
<g id="node4" class="node">
<title>node3</title>
<polygon fill="lightgreen" stroke="black" points="545.53,-521.54 545.53,-536.46 426.01,-547 256.99,-547 137.47,-536.46 137.47,-521.54 256.99,-511 426.01,-511 545.53,-521.54"/>
<text text-anchor="middle" x="341.5" y="-525.3" font-family="Times,serif" font-size="14.00">#3 Class FieldAccessTest$Destination</text>
</g>
<!-- node0&#45;&gt;node3 -->
<g id="edge5" class="edge">
<title>node0&#45;&gt;node3</title>
<path fill="none" stroke="black" stroke-dasharray="1,5" d="M341.5,-583.81C341.5,-575.35 341.5,-565.95 341.5,-557.4"/>
<polygon fill="black" stroke="black" points="345,-557.17 341.5,-547.17 338,-557.17 345,-557.17"/>
</g>
<!-- node5 -->
<g id="node12" class="node">
<title>node5</title>
<polygon fill="lightgreen" stroke="black" points="925.1,-521.54 925.1,-536.46 819.31,-547 669.69,-547 563.9,-536.46 563.9,-521.54 669.69,-511 819.31,-511 925.1,-521.54"/>
<text text-anchor="middle" x="744.5" y="-525.3" font-family="Times,serif" font-size="14.00">#5 Class FieldAccessTest$Source</text>
</g>
<!-- node0&#45;&gt;node5 -->
<g id="edge24" class="edge">
<title>node0&#45;&gt;node5</title>
<path fill="none" stroke="black" stroke-dasharray="1,5" d="M425,-593.42C491.25,-580.27 583.78,-561.9 652.22,-548.32"/>
<polygon fill="black" stroke="black" points="653.01,-551.73 662.14,-546.35 651.65,-544.86 653.01,-551.73"/>
</g>
<!-- node2&#45;&gt;node4 -->
<g id="edge3" class="edge">
<title>node2&#45;&gt;node4</title>
<path fill="none" stroke="red" d="M101.78,-510.9C109.6,-508.05 117.74,-505.28 125.5,-503 176.35,-488.05 235.26,-475.83 278.7,-467.76"/>
<polygon fill="red" stroke="red" points="279.36,-471.19 288.56,-465.95 278.1,-464.31 279.36,-471.19"/>
</g>
<!-- node7 -->
<g id="node5" class="node">
<title>node7</title>
<polygon fill="lightgrey" stroke="black" points="564.5,-328 314.5,-328 314.5,-292 564.5,-292 564.5,-328"/>
<text text-anchor="middle" x="439.5" y="-306.3" font-family="Times,serif" font-size="14.00">#7 Invoke special &lt;init&gt; : ()void</text>
</g>
<!-- node4&#45;&gt;node7 -->
<g id="edge7" class="edge">
<title>node4&#45;&gt;node7</title>
<path fill="none" stroke="red" d="M365.62,-437.9C377.94,-428.2 392.42,-415.18 402.5,-401 416.21,-381.72 426,-356.59 432.04,-337.79"/>
<polygon fill="red" stroke="red" points="435.44,-338.66 435.02,-328.08 428.75,-336.61 435.44,-338.66"/>
</g>
<!-- node6 -->
<g id="node6" class="node">
<title>node6</title>
<polygon fill="orange" stroke="black" points="393.62,-375.54 393.62,-390.46 363.09,-401 319.91,-401 289.38,-390.46 289.38,-375.54 319.91,-365 363.09,-365 393.62,-375.54"/>
<text text-anchor="middle" x="341.5" y="-379.3" font-family="Times,serif" font-size="14.00">#6 New</text>
</g>
<!-- node4&#45;&gt;node6 -->
<g id="edge9" class="edge">
<title>node4&#45;&gt;node6</title>
<path fill="none" stroke="black" d="M335.62,-437.81C334.78,-429.79 334.55,-420.05 334.92,-411.07"/>
<polygon fill="black" stroke="black" points="338.42,-411.25 335.64,-401.03 331.44,-410.75 338.42,-411.25"/>
<text text-anchor="middle" x="342.78" y="-416.01" font-family="Times,serif" font-size="14.00">*0</text>
</g>
<!-- node4&#45;&gt;node6 -->
<g id="edge10" class="edge">
<title>node4&#45;&gt;node6</title>
<path fill="none" stroke="green" d="M347.38,-437.81C348.22,-429.79 348.45,-420.05 348.08,-411.07"/>
<polygon fill="green" stroke="green" points="351.56,-410.75 347.36,-401.03 344.58,-411.25 351.56,-410.75"/>
</g>
<!-- node3&#45;&gt;node4 -->
<g id="edge2" class="edge">
<title>node3&#45;&gt;node4</title>
<path fill="none" stroke="black" d="M341.5,-510.81C341.5,-502.79 341.5,-493.05 341.5,-484.07"/>
<polygon fill="black" stroke="black" points="345,-484.03 341.5,-474.03 338,-484.03 345,-484.03"/>
<text text-anchor="middle" x="349.95" y="-488.45" font-family="Times,serif" font-size="14.00">*0</text>
</g>
<!-- node8 -->
<g id="node11" class="node">
<title>node8</title>
<polygon fill="lightgrey" stroke="black" points="793,-255 688,-255 688,-219 793,-219 793,-255"/>
<text text-anchor="middle" x="740.5" y="-233.3" font-family="Times,serif" font-size="14.00">#8 ClassInit</text>
</g>
<!-- node7&#45;&gt;node8 -->
<g id="edge22" class="edge">
<title>node7&#45;&gt;node8</title>
<path fill="none" stroke="red" d="M505.74,-291.99C557.09,-279.57 627.67,-262.96 678.04,-251.45"/>
<polygon fill="red" stroke="red" points="678.86,-254.86 687.83,-249.22 677.31,-248.03 678.86,-254.86"/>
</g>
<!-- node7&#45;&gt;node8 -->
<g id="edge23" class="edge">
<title>node7&#45;&gt;node8</title>
<path fill="none" stroke="green" d="M517.46,-291.99C567.28,-280.53 631,-265.49 677.6,-254.2"/>
<polygon fill="green" stroke="green" points="678.68,-257.54 687.57,-251.78 677.03,-250.74 678.68,-257.54"/>
</g>
<!-- node6&#45;&gt;node7 -->
<g id="edge6" class="edge">
<title>node6&#45;&gt;node7</title>
<path fill="none" stroke="black" d="M359.34,-364.81C371.25,-355.48 387.18,-343.83 401.75,-333.75"/>
<polygon fill="black" stroke="black" points="403.85,-336.56 410.13,-328.03 399.9,-330.78 403.85,-336.56"/>
<text text-anchor="middle" x="399.93" y="-341.53" font-family="Times,serif" font-size="14.00">*0</text>
</g>
<!-- node6&#45;&gt;node7 -->
<g id="edge8" class="edge">
<title>node6&#45;&gt;node7</title>
<path fill="none" stroke="green" d="M368.44,-366.59C382.53,-357.2 399.59,-345.02 413.52,-334.45"/>
<polygon fill="green" stroke="green" points="415.96,-336.99 421.74,-328.12 411.69,-331.45 415.96,-336.99"/>
</g>
<!-- node12 -->
<g id="node7" class="node">
<title>node12</title>
<polygon fill="lightgrey" stroke="black" points="464,-36 225,-36 225,0 464,0 464,-36"/>
<text text-anchor="middle" x="344.5" y="-14.3" font-family="Times,serif" font-size="14.00">#12 PutField : byte_field : byte</text>
</g>
<!-- node6&#45;&gt;node12 -->
<g id="edge11" class="edge">
<title>node6&#45;&gt;node12</title>
<path fill="none" stroke="black" d="M318.49,-365.47C303.42,-352.56 286.5,-333.14 286.5,-311 286.5,-311 286.5,-311 286.5,-90 286.5,-71.51 298.45,-55.17 311.5,-42.85"/>
<polygon fill="black" stroke="black" points="314.02,-45.3 319.23,-36.07 309.4,-40.03 314.02,-45.3"/>
<text text-anchor="middle" x="311.17" y="-50.68" font-family="Times,serif" font-size="14.00">*0</text>
</g>
<!-- node13 -->
<g id="node13" class="node">
<title>node13</title>
<polygon fill="lightgrey" stroke="black" points="868,-36 767,-36 767,0 868,0 868,-36"/>
<text text-anchor="middle" x="817.5" y="-14.3" font-family="Times,serif" font-size="14.00">#13 Return</text>
</g>
<!-- node12&#45;&gt;node13 -->
<g id="edge26" class="edge">
<title>node12&#45;&gt;node13</title>
<path fill="none" stroke="green" d="M464.14,-18C561.67,-18 659.19,-18 756.72,-18"/>
<polygon fill="green" stroke="green" points="756.77,-21.5 766.77,-18 756.77,-14.5 756.77,-21.5"/>
</g>
<!-- node11 -->
<g id="node8" class="node">
<title>node11</title>
<polygon fill="orange" stroke="black" points="652.18,-83.54 652.18,-98.46 553.37,-109 413.63,-109 314.82,-98.46 314.82,-83.54 413.63,-73 553.37,-73 652.18,-83.54"/>
<text text-anchor="middle" x="483.5" y="-87.3" font-family="Times,serif" font-size="14.00">#11 GetField : byte_field : byte</text>
</g>
<!-- node11&#45;&gt;node12 -->
<g id="edge12" class="edge">
<title>node11&#45;&gt;node12</title>
<path fill="none" stroke="black" d="M444.35,-72.99C424.47,-63.36 400.53,-51.21 381.03,-40.87"/>
<polygon fill="black" stroke="black" points="382.6,-37.74 372.13,-36.11 379.3,-43.92 382.6,-37.74"/>
<text text-anchor="middle" x="392.1" y="-33.51" font-family="Times,serif" font-size="14.00">*1</text>
</g>
<!-- node11&#45;&gt;node12 -->
<g id="edge13" class="edge">
<title>node11&#45;&gt;node12</title>
<path fill="none" stroke="green" d="M456.07,-72.99C438.07,-63.27 414.15,-50.99 393.03,-40.59"/>
<polygon fill="green" stroke="green" points="394.4,-37.36 383.87,-36.11 391.32,-43.65 394.4,-37.36"/>
</g>
<!-- node9 -->
<g id="node9" class="node">
<title>node9</title>
<polygon fill="orange" stroke="black" points="789.62,-156.54 789.62,-171.46 759.09,-182 715.91,-182 685.38,-171.46 685.38,-156.54 715.91,-146 759.09,-146 789.62,-156.54"/>
<text text-anchor="middle" x="737.5" y="-160.3" font-family="Times,serif" font-size="14.00">#9 New</text>
</g>
<!-- node9&#45;&gt;node11 -->
<g id="edge14" class="edge">
<title>node9&#45;&gt;node11</title>
<path fill="none" stroke="black" d="M698.09,-151.98C659.84,-141.29 600.93,-124.83 554.51,-111.85"/>
<polygon fill="black" stroke="black" points="555.37,-108.46 544.8,-109.14 553.49,-115.2 555.37,-108.46"/>
<text text-anchor="middle" x="564.53" y="-102.17" font-family="Times,serif" font-size="14.00">*0</text>
</g>
<!-- node10 -->
<g id="node10" class="node">
<title>node10</title>
<polygon fill="lightgrey" stroke="black" points="947,-109 688,-109 688,-73 947,-73 947,-109"/>
<text text-anchor="middle" x="817.5" y="-87.3" font-family="Times,serif" font-size="14.00">#10 Invoke special &lt;init&gt; : ()void</text>
</g>
<!-- node9&#45;&gt;node10 -->
<g id="edge16" class="edge">
<title>node9&#45;&gt;node10</title>
<path fill="none" stroke="black" d="M750.99,-145.81C760.26,-136.74 772.78,-125.48 784.51,-115.6"/>
<polygon fill="black" stroke="black" points="786.98,-118.1 792.45,-109.03 782.51,-112.71 786.98,-118.1"/>
<text text-anchor="middle" x="783.87" y="-123.4" font-family="Times,serif" font-size="14.00">*0</text>
</g>
<!-- node9&#45;&gt;node10 -->
<g id="edge18" class="edge">
<title>node9&#45;&gt;node10</title>
<path fill="none" stroke="green" d="M761.86,-146.53C773.03,-137.5 786.05,-126.13 796.75,-116.12"/>
<polygon fill="green" stroke="green" points="799.27,-118.56 804.08,-109.12 794.43,-113.5 799.27,-118.56"/>
</g>
<!-- node10&#45;&gt;node11 -->
<g id="edge15" class="edge">
<title>node10&#45;&gt;node11</title>
<path fill="none" stroke="green" d="M687.92,-91C679.51,-91 671.11,-91 662.71,-91"/>
<polygon fill="green" stroke="green" points="662.46,-87.5 652.46,-91 662.46,-94.5 662.46,-87.5"/>
</g>
<!-- node10&#45;&gt;node13 -->
<g id="edge25" class="edge">
<title>node10&#45;&gt;node13</title>
<path fill="none" stroke="red" d="M817.5,-72.81C817.5,-64.79 817.5,-55.05 817.5,-46.07"/>
<polygon fill="red" stroke="red" points="821,-46.03 817.5,-36.03 814,-46.03 821,-46.03"/>
</g>
<!-- node8&#45;&gt;node9 -->
<g id="edge19" class="edge">
<title>node8&#45;&gt;node9</title>
<path fill="none" stroke="black" d="M733.9,-218.81C732.72,-210.79 732.07,-201.05 732.07,-192.07"/>
<polygon fill="black" stroke="black" points="735.57,-192.13 732.36,-182.03 728.57,-191.92 735.57,-192.13"/>
<text text-anchor="middle" x="740.28" y="-196.69" font-family="Times,serif" font-size="14.00">*0</text>
</g>
<!-- node8&#45;&gt;node9 -->
<g id="edge20" class="edge">
<title>node8&#45;&gt;node9</title>
<path fill="none" stroke="green" d="M745.65,-218.81C746.15,-210.79 745.97,-201.05 745.22,-192.07"/>
<polygon fill="green" stroke="green" points="748.69,-191.57 744.08,-182.03 741.73,-192.36 748.69,-191.57"/>
</g>
<!-- node8&#45;&gt;node10 -->
<g id="edge17" class="edge">
<title>node8&#45;&gt;node10</title>
<path fill="none" stroke="red" d="M765.04,-218.88C776.9,-209.35 790.31,-196.49 798.5,-182 809.34,-162.83 814.02,-138.19 816.02,-119.54"/>
<polygon fill="red" stroke="red" points="819.53,-119.61 816.92,-109.34 812.56,-118.99 819.53,-119.61"/>
</g>
<!-- node5&#45;&gt;node8 -->
<g id="edge21" class="edge">
<title>node5&#45;&gt;node8</title>
<path fill="none" stroke="black" d="M743.37,-510.79C742.52,-496.42 741.5,-475.38 741.5,-457 741.5,-457 741.5,-457 741.5,-309 741.5,-294.65 741.29,-278.67 741.07,-265.51"/>
<polygon fill="black" stroke="black" points="744.56,-265.15 740.88,-255.22 737.56,-265.28 744.56,-265.15"/>
<text text-anchor="middle" x="749.66" y="-269.48" font-family="Times,serif" font-size="14.00">*0</text>
</g>
<!-- c0 -->
<!-- c1 -->
<!-- c0&#45;&gt;c1 -->
<g id="edge27" class="edge">
<title>c0&#45;&gt;c1</title>
<path fill="none" stroke="red" d="M1677.39,-611C1688.61,-611 1746.74,-611 1772.36,-611"/>
<polygon fill="red" stroke="red" points="1772.56,-614.5 1782.56,-611 1772.56,-607.5 1772.56,-614.5"/>
<text text-anchor="middle" x="1730" y="-617.8" font-family="Times,serif" font-size="14.00">Control flow</text>
</g>
<!-- c2 -->
<!-- c3 -->
<!-- c2&#45;&gt;c3 -->
<g id="edge28" class="edge">
<title>c2&#45;&gt;c3</title>
<path fill="none" stroke="red" stroke-dasharray="5,2" d="M1470.58,-611C1487.55,-611 1603.71,-611 1641.58,-611"/>
<polygon fill="red" stroke="red" points="1641.67,-614.5 1651.67,-611 1641.67,-607.5 1641.67,-614.5"/>
<text text-anchor="middle" x="1561" y="-617.8" font-family="Times,serif" font-size="14.00">Control flow back edge</text>
</g>
<!-- d0 -->
<!-- d1 -->
<!-- d0&#45;&gt;d1 -->
<g id="edge29" class="edge">
<title>d0&#45;&gt;d1</title>
<path fill="none" stroke="black" d="M1359.36,-611C1368.91,-611 1412.81,-611 1434.42,-611"/>
<polygon fill="black" stroke="black" points="1434.65,-614.5 1444.65,-611 1434.65,-607.5 1434.65,-614.5"/>
<text text-anchor="middle" x="1402" y="-617.8" font-family="Times,serif" font-size="14.00">Data flow</text>
</g>
<!-- d2 -->
<!-- d3 -->
<!-- d2&#45;&gt;d3 -->
<g id="edge30" class="edge">
<title>d2&#45;&gt;d3</title>
<path fill="none" stroke="black" stroke-dasharray="1,5" d="M1233.31,-611C1243.96,-611 1298.96,-611 1323.58,-611"/>
<polygon fill="black" stroke="black" points="1323.65,-614.5 1333.65,-611 1323.65,-607.5 1323.65,-614.5"/>
<text text-anchor="middle" x="1283.5" y="-617.8" font-family="Times,serif" font-size="14.00">Declaration</text>
</g>
<!-- d4 -->
<!-- d5 -->
<!-- d4&#45;&gt;d5 -->
<g id="edge31" class="edge">
<title>d4&#45;&gt;d5</title>
<path fill="none" stroke="blue" d="M1090.6,-611C1103.22,-611 1169.38,-611 1197.18,-611"/>
<polygon fill="blue" stroke="blue" points="1197.34,-614.5 1207.34,-611 1197.34,-607.5 1197.34,-614.5"/>
<text text-anchor="middle" x="1149" y="-617.8" font-family="Times,serif" font-size="14.00">PHI Data flow</text>
</g>
<!-- d6 -->
<!-- d7 -->
<!-- d6&#45;&gt;d7 -->
<g id="edge32" class="edge">
<title>d6&#45;&gt;d7</title>
<path fill="none" stroke="green" d="M953.5,-611C965.44,-611 1027.8,-611 1054.43,-611"/>
<polygon fill="green" stroke="green" points="1054.45,-614.5 1064.45,-611 1054.45,-607.5 1054.45,-614.5"/>
<text text-anchor="middle" x="1009" y="-617.8" font-family="Times,serif" font-size="14.00">Memory flow</text>
</g>
</g>
</svg>
