<?xml version="1.0" encoding="UTF-8" standalone="no"?>
<!DOCTYPE svg PUBLIC "-//W3C//DTD SVG 1.1//EN"
 "http://www.w3.org/Graphics/SVG/1.1/DTD/svg11.dtd">
<!-- Generated by graphviz version 2.43.0 (0)
 -->
<!-- Title: %3 Pages: 1 -->
<svg width="1232pt" height="879pt"
 viewBox="0.00 0.00 1232.00 878.80" xmlns="http://www.w3.org/2000/svg" xmlns:xlink="http://www.w3.org/1999/xlink">
<g id="graph0" class="graph" transform="scale(1 1) rotate(0) translate(4 874.8)">
<title>%3</title>
<polygon fill="white" stroke="transparent" points="-4,4 -4,-874.8 1228,-874.8 1228,4 -4,4"/>
<g id="clust1" class="cluster">
<title>cluster_0</title>
<polygon fill="none" stroke="lightgray" points="76,-357 76,-482 454,-482 454,-357 76,-357"/>
</g>
<g id="clust2" class="cluster">
<title>cluster_1</title>
<polygon fill="none" stroke="lightgray" points="130,-649 130,-774 554,-774 554,-649 130,-649"/>
</g>
<g id="clust3" class="cluster">
<title>cluster_000</title>
<polygon fill="none" stroke="black" points="363,-820.2 363,-862.8 1216,-862.8 1216,-820.2 363,-820.2"/>
<text text-anchor="middle" x="789.5" y="-847.6" font-family="Times,serif" font-size="14.00">Legend</text>
</g>
<!-- node0 -->
<g id="node1" class="node">
<title>node0</title>
<polygon fill="lightgrey" stroke="transparent" points="353.5,-857 186.5,-857 186.5,-803 353.5,-803 353.5,-857"/>
<polygon fill="none" stroke="black" points="187,-830 187,-857 354,-857 354,-830 187,-830"/>
<text text-anchor="start" x="230" y="-839.8" font-family="Times,serif" font-size="14.00">#0 Method</text>
<polygon fill="yellow" stroke="transparent" points="187,-803 187,-830 354,-830 354,-803 187,-803"/>
<polygon fill="none" stroke="black" points="187,-803 187,-830 354,-830 354,-803 187,-803"/>
<text text-anchor="start" x="193" y="-812.8" font-family="Times,serif" font-size="14.00">this : FieldAccessTest</text>
</g>
<!-- node4 -->
<g id="node2" class="node">
<title>node4</title>
<polygon fill="lightgrey" stroke="black" points="221.5,-620 116.5,-620 116.5,-584 221.5,-584 221.5,-620"/>
<text text-anchor="middle" x="169" y="-598.3" font-family="Times,serif" font-size="14.00">#4 ClassInit</text>
</g>
<!-- node0&#45;&gt;node4 -->
<g id="edge3" class="edge">
<title>node0&#45;&gt;node4</title>
<path fill="none" stroke="green" d="M186.37,-815.43C162.98,-807.36 140.11,-794.5 126,-774 94.49,-728.24 105.61,-700.68 126,-649 129.05,-641.28 134.07,-634.09 139.63,-627.8"/>
<polygon fill="green" stroke="green" points="142.41,-629.96 146.85,-620.33 137.38,-625.09 142.41,-629.96"/>
</g>
<!-- node2 -->
<g id="node4" class="node">
<title>node2</title>
<polygon fill="lightgrey" stroke="black" points="329.5,-766 210.5,-766 210.5,-730 329.5,-730 329.5,-766"/>
<text text-anchor="middle" x="270" y="-744.3" font-family="Times,serif" font-size="14.00">#2 LabelNode</text>
</g>
<!-- node0&#45;&gt;node2 -->
<g id="edge4" class="edge">
<title>node0&#45;&gt;node2</title>
<path fill="none" stroke="red" d="M270,-802.81C270,-794.35 270,-784.95 270,-776.4"/>
<polygon fill="red" stroke="red" points="273.5,-776.17 270,-766.17 266.5,-776.17 273.5,-776.17"/>
</g>
<!-- node5 -->
<g id="node5" class="node">
<title>node5</title>
<polygon fill="orange" stroke="black" points="181.12,-521.54 181.12,-536.46 150.59,-547 107.41,-547 76.88,-536.46 76.88,-521.54 107.41,-511 150.59,-511 181.12,-521.54"/>
<text text-anchor="middle" x="129" y="-525.3" font-family="Times,serif" font-size="14.00">#5 New</text>
</g>
<!-- node4&#45;&gt;node5 -->
<g id="edge6" class="edge">
<title>node4&#45;&gt;node5</title>
<path fill="none" stroke="black" d="M153.44,-583.81C147.9,-575.53 141.98,-565.41 137.22,-556.19"/>
<polygon fill="black" stroke="black" points="140.27,-554.47 132.73,-547.03 133.98,-557.55 140.27,-554.47"/>
<text text-anchor="middle" x="148.29" y="-555.89" font-family="Times,serif" font-size="14.00">*0</text>
</g>
<!-- node4&#45;&gt;node5 -->
<g id="edge7" class="edge">
<title>node4&#45;&gt;node5</title>
<path fill="none" stroke="green" d="M165.2,-583.81C161.31,-575.35 155.68,-564.98 149.94,-555.61"/>
<polygon fill="green" stroke="green" points="152.79,-553.57 144.46,-547.03 146.89,-557.34 152.79,-553.57"/>
</g>
<!-- node6 -->
<g id="node6" class="node">
<title>node6</title>
<polygon fill="lightgrey" stroke="black" points="334,-474 84,-474 84,-438 334,-438 334,-474"/>
<text text-anchor="middle" x="209" y="-452.3" font-family="Times,serif" font-size="14.00">#6 Invoke special &lt;init&gt; : ()void</text>
</g>
<!-- node4&#45;&gt;node6 -->
<g id="edge9" class="edge">
<title>node4&#45;&gt;node6</title>
<path fill="none" stroke="red" d="M176.54,-583.74C180.91,-573.26 186.27,-559.53 190,-547 196.18,-526.24 201.15,-502.22 204.45,-484.22"/>
<polygon fill="red" stroke="red" points="207.94,-484.58 206.24,-474.13 201.05,-483.36 207.94,-484.58"/>
</g>
<!-- node3 -->
<g id="node3" class="node">
<title>node3</title>
<polygon fill="lightgreen" stroke="black" points="546.03,-667.54 546.03,-682.46 426.51,-693 257.49,-693 137.97,-682.46 137.97,-667.54 257.49,-657 426.51,-657 546.03,-667.54"/>
<text text-anchor="middle" x="342" y="-671.3" font-family="Times,serif" font-size="14.00">#3 Class FieldAccessTest$Destination</text>
</g>
<!-- node3&#45;&gt;node4 -->
<g id="edge1" class="edge">
<title>node3&#45;&gt;node4</title>
<path fill="none" stroke="black" d="M300.56,-656.99C276.45,-647.1 245.86,-634.54 220.25,-624.03"/>
<polygon fill="black" stroke="black" points="221.28,-620.67 210.7,-620.11 218.62,-627.15 221.28,-620.67"/>
<text text-anchor="middle" x="230.68" y="-615.48" font-family="Times,serif" font-size="14.00">*0</text>
</g>
<!-- node2&#45;&gt;node4 -->
<g id="edge2" class="edge">
<title>node2&#45;&gt;node4</title>
<path fill="none" stroke="red" d="M210.3,-732.38C183.63,-723.87 152.9,-711.15 129,-693 105.21,-674.94 98.36,-667.36 89,-639 84.66,-625.84 93.51,-617.49 106.73,-612.18"/>
<polygon fill="red" stroke="red" points="108.06,-615.43 116.46,-608.98 105.87,-608.78 108.06,-615.43"/>
</g>
<!-- node2&#45;&gt;node3 -->
<g id="edge5" class="edge">
<title>node2&#45;&gt;node3</title>
<path fill="none" stroke="black" stroke-dasharray="1,5" d="M287.43,-729.81C296.45,-720.92 307.61,-709.91 317.49,-700.17"/>
<polygon fill="black" stroke="black" points="320.07,-702.54 324.73,-693.03 315.15,-697.56 320.07,-702.54"/>
</g>
<!-- node5&#45;&gt;node6 -->
<g id="edge8" class="edge">
<title>node5&#45;&gt;node6</title>
<path fill="none" stroke="black" d="M142.49,-510.81C151.76,-501.74 164.28,-490.48 176.01,-480.6"/>
<polygon fill="black" stroke="black" points="178.48,-483.1 183.95,-474.03 174.01,-477.71 178.48,-483.1"/>
<text text-anchor="middle" x="175.37" y="-488.4" font-family="Times,serif" font-size="14.00">*0</text>
</g>
<!-- node5&#45;&gt;node6 -->
<g id="edge10" class="edge">
<title>node5&#45;&gt;node6</title>
<path fill="none" stroke="green" d="M153.36,-511.53C164.53,-502.5 177.55,-491.13 188.25,-481.12"/>
<polygon fill="green" stroke="green" points="190.77,-483.56 195.58,-474.12 185.93,-478.5 190.77,-483.56"/>
</g>
<!-- node12 -->
<g id="node12" class="node">
<title>node12</title>
<polygon fill="lightgrey" stroke="black" points="277.5,-109 38.5,-109 38.5,-73 277.5,-73 277.5,-109"/>
<text text-anchor="middle" x="158" y="-87.3" font-family="Times,serif" font-size="14.00">#12 PutField : byte_field : byte</text>
</g>
<!-- node5&#45;&gt;node12 -->
<g id="edge22" class="edge">
<title>node5&#45;&gt;node12</title>
<path fill="none" stroke="black" d="M78.76,-520.78C42.53,-512.41 0,-494.58 0,-457 0,-457 0,-457 0,-163 0,-139.69 14.49,-123.98 34.7,-113.41"/>
<polygon fill="black" stroke="black" points="36.44,-116.46 44.01,-109.05 33.47,-110.12 36.44,-116.46"/>
<text text-anchor="middle" x="31.18" y="-120.69" font-family="Times,serif" font-size="14.00">*0</text>
</g>
<!-- node8 -->
<g id="node7" class="node">
<title>node8</title>
<polygon fill="lightgrey" stroke="black" points="239.5,-328 134.5,-328 134.5,-292 239.5,-292 239.5,-328"/>
<text text-anchor="middle" x="187" y="-306.3" font-family="Times,serif" font-size="14.00">#8 ClassInit</text>
</g>
<!-- node6&#45;&gt;node8 -->
<g id="edge12" class="edge">
<title>node6&#45;&gt;node8</title>
<path fill="none" stroke="red" d="M115.39,-437.99C95.83,-430 77.65,-418.25 66,-401 55.06,-384.79 55.11,-373.24 66,-357 79.05,-337.53 101.98,-326.3 124.45,-319.81"/>
<polygon fill="red" stroke="red" points="125.56,-323.14 134.36,-317.24 123.8,-316.37 125.56,-323.14"/>
</g>
<!-- node6&#45;&gt;node8 -->
<g id="edge13" class="edge">
<title>node6&#45;&gt;node8</title>
<path fill="none" stroke="green" d="M132.78,-437.99C113.83,-430 95.65,-418.25 84,-401 73.06,-384.79 73.11,-373.24 84,-357 93.78,-342.4 109.12,-332.44 125.03,-325.63"/>
<polygon fill="green" stroke="green" points="126.37,-328.86 134.42,-321.98 123.83,-322.34 126.37,-328.86"/>
</g>
<!-- node7 -->
<g id="node8" class="node">
<title>node7</title>
<polygon fill="lightgreen" stroke="black" points="445.6,-375.54 445.6,-390.46 339.81,-401 190.19,-401 84.4,-390.46 84.4,-375.54 190.19,-365 339.81,-365 445.6,-375.54"/>
<text text-anchor="middle" x="265" y="-379.3" font-family="Times,serif" font-size="14.00">#7 Class FieldAccessTest$Source</text>
</g>
<!-- node6&#45;&gt;node7 -->
<g id="edge14" class="edge">
<title>node6&#45;&gt;node7</title>
<path fill="none" stroke="black" stroke-dasharray="1,5" d="M222.56,-437.81C229.37,-429.18 237.75,-418.56 245.25,-409.03"/>
<polygon fill="black" stroke="black" points="248.12,-411.05 251.57,-401.03 242.63,-406.71 248.12,-411.05"/>
</g>
<!-- node9 -->
<g id="node9" class="node">
<title>node9</title>
<polygon fill="orange" stroke="black" points="290.12,-229.54 290.12,-244.46 259.59,-255 216.41,-255 185.88,-244.46 185.88,-229.54 216.41,-219 259.59,-219 290.12,-229.54"/>
<text text-anchor="middle" x="238" y="-233.3" font-family="Times,serif" font-size="14.00">#9 New</text>
</g>
<!-- node8&#45;&gt;node9 -->
<g id="edge15" class="edge">
<title>node8&#45;&gt;node9</title>
<path fill="none" stroke="black" d="M193.47,-291.81C198.77,-283.18 206.2,-272.56 213.54,-263.03"/>
<polygon fill="black" stroke="black" points="216.42,-265.03 219.91,-255.03 210.94,-260.67 216.42,-265.03"/>
<text text-anchor="middle" x="215.23" y="-270.78" font-family="Times,serif" font-size="14.00">*0</text>
</g>
<!-- node8&#45;&gt;node9 -->
<g id="edge16" class="edge">
<title>node8&#45;&gt;node9</title>
<path fill="none" stroke="green" d="M205.22,-291.81C212.19,-283.35 219.85,-272.98 226.11,-263.61"/>
<polygon fill="green" stroke="green" points="229.17,-265.33 231.63,-255.03 223.28,-261.55 229.17,-265.33"/>
</g>
<!-- node10 -->
<g id="node10" class="node">
<title>node10</title>
<polygon fill="lightgrey" stroke="black" points="287.5,-182 28.5,-182 28.5,-146 287.5,-146 287.5,-182"/>
<text text-anchor="middle" x="158" y="-160.3" font-family="Times,serif" font-size="14.00">#10 Invoke special &lt;init&gt; : ()void</text>
</g>
<!-- node8&#45;&gt;node10 -->
<g id="edge18" class="edge">
<title>node8&#45;&gt;node10</title>
<path fill="none" stroke="red" d="M183.56,-291.92C178.59,-267.23 169.35,-221.35 163.45,-192.04"/>
<polygon fill="red" stroke="red" points="166.84,-191.17 161.44,-182.06 159.98,-192.56 166.84,-191.17"/>
</g>
<!-- node7&#45;&gt;node8 -->
<g id="edge11" class="edge">
<title>node7&#45;&gt;node8</title>
<path fill="none" stroke="black" d="M246.12,-364.81C236.25,-355.83 224.02,-344.69 213.24,-334.89"/>
<polygon fill="black" stroke="black" points="215.46,-332.17 205.71,-328.03 210.75,-337.35 215.46,-332.17"/>
<text text-anchor="middle" x="224.8" y="-330.28" font-family="Times,serif" font-size="14.00">*0</text>
</g>
<!-- node9&#45;&gt;node10 -->
<g id="edge17" class="edge">
<title>node9&#45;&gt;node10</title>
<path fill="none" stroke="black" d="M213.64,-219.53C202.47,-210.5 189.45,-199.13 178.75,-189.12"/>
<polygon fill="black" stroke="black" points="181.07,-186.5 171.42,-182.12 176.23,-191.56 181.07,-186.5"/>
<text text-anchor="middle" x="190.36" y="-184.83" font-family="Times,serif" font-size="14.00">*0</text>
</g>
<!-- node9&#45;&gt;node10 -->
<g id="edge19" class="edge">
<title>node9&#45;&gt;node10</title>
<path fill="none" stroke="green" d="M224.51,-218.81C215.24,-209.74 202.72,-198.48 190.99,-188.6"/>
<polygon fill="green" stroke="green" points="192.99,-185.71 183.05,-182.03 188.52,-191.1 192.99,-185.71"/>
</g>
<!-- node11 -->
<g id="node11" class="node">
<title>node11</title>
<polygon fill="orange" stroke="black" points="660.68,-156.54 660.68,-171.46 561.87,-182 422.13,-182 323.32,-171.46 323.32,-156.54 422.13,-146 561.87,-146 660.68,-156.54"/>
<text text-anchor="middle" x="492" y="-160.3" font-family="Times,serif" font-size="14.00">#11 GetField : byte_field : byte</text>
</g>
<!-- node9&#45;&gt;node11 -->
<g id="edge20" class="edge">
<title>node9&#45;&gt;node11</title>
<path fill="none" stroke="black" d="M277.41,-224.98C315.66,-214.29 374.57,-197.83 420.99,-184.85"/>
<polygon fill="black" stroke="black" points="422.01,-188.2 430.7,-182.14 420.13,-181.46 422.01,-188.2"/>
<text text-anchor="middle" x="415.52" y="-191.46" font-family="Times,serif" font-size="14.00">*0</text>
</g>
<!-- node10&#45;&gt;node11 -->
<g id="edge21" class="edge">
<title>node10&#45;&gt;node11</title>
<path fill="none" stroke="green" d="M287.82,-164C296.23,-164 304.64,-164 313.05,-164"/>
<polygon fill="green" stroke="green" points="313.31,-167.5 323.31,-164 313.31,-160.5 313.31,-167.5"/>
</g>
<!-- node10&#45;&gt;node12 -->
<g id="edge25" class="edge">
<title>node10&#45;&gt;node12</title>
<path fill="none" stroke="red" d="M158,-145.81C158,-137.79 158,-128.05 158,-119.07"/>
<polygon fill="red" stroke="red" points="161.5,-119.03 158,-109.03 154.5,-119.03 161.5,-119.03"/>
</g>
<!-- node11&#45;&gt;node12 -->
<g id="edge23" class="edge">
<title>node11&#45;&gt;node12</title>
<path fill="none" stroke="black" d="M411.3,-147.07C360.12,-136.45 294.07,-122.43 242.22,-111.19"/>
<polygon fill="black" stroke="black" points="242.89,-107.76 232.38,-109.06 241.41,-114.6 242.89,-107.76"/>
<text text-anchor="middle" x="251.89" y="-100.94" font-family="Times,serif" font-size="14.00">*1</text>
</g>
<!-- node11&#45;&gt;node12 -->
<g id="edge24" class="edge">
<title>node11&#45;&gt;node12</title>
<path fill="none" stroke="green" d="M419.1,-146.26C370.69,-135.73 306.66,-122.1 254.11,-111.14"/>
<polygon fill="green" stroke="green" points="254.6,-107.67 244.1,-109.06 253.17,-114.52 254.6,-107.67"/>
</g>
<!-- node13 -->
<g id="node13" class="node">
<title>node13</title>
<polygon fill="lightgrey" stroke="black" points="208.5,-36 107.5,-36 107.5,0 208.5,0 208.5,-36"/>
<text text-anchor="middle" x="158" y="-14.3" font-family="Times,serif" font-size="14.00">#13 Return</text>
</g>
<!-- node12&#45;&gt;node13 -->
<g id="edge26" class="edge">
<title>node12&#45;&gt;node13</title>
<path fill="none" stroke="red" d="M152.12,-72.81C151.28,-64.79 151.05,-55.05 151.42,-46.07"/>
<polygon fill="red" stroke="red" points="154.92,-46.25 152.14,-36.03 147.94,-45.75 154.92,-46.25"/>
</g>
<!-- node12&#45;&gt;node13 -->
<g id="edge27" class="edge">
<title>node12&#45;&gt;node13</title>
<path fill="none" stroke="green" d="M163.88,-72.81C164.72,-64.79 164.95,-55.05 164.58,-46.07"/>
<polygon fill="green" stroke="green" points="168.06,-45.75 163.86,-36.03 161.08,-46.25 168.06,-45.75"/>
</g>
<!-- c0 -->
<!-- c1 -->
<!-- c0&#45;&gt;c1 -->
<g id="edge28" class="edge">
<title>c0&#45;&gt;c1</title>
<path fill="none" stroke="red" d="M1098.89,-830C1110.11,-830 1168.24,-830 1193.86,-830"/>
<polygon fill="red" stroke="red" points="1194.06,-833.5 1204.06,-830 1194.06,-826.5 1194.06,-833.5"/>
<text text-anchor="middle" x="1151.5" y="-836.8" font-family="Times,serif" font-size="14.00">Control flow</text>
</g>
<!-- c2 -->
<!-- c3 -->
<!-- c2&#45;&gt;c3 -->
<g id="edge29" class="edge">
<title>c2&#45;&gt;c3</title>
<path fill="none" stroke="red" stroke-dasharray="5,2" d="M892.08,-830C909.05,-830 1025.21,-830 1063.08,-830"/>
<polygon fill="red" stroke="red" points="1063.17,-833.5 1073.17,-830 1063.17,-826.5 1063.17,-833.5"/>
<text text-anchor="middle" x="982.5" y="-836.8" font-family="Times,serif" font-size="14.00">Control flow back edge</text>
</g>
<!-- d0 -->
<!-- d1 -->
<!-- d0&#45;&gt;d1 -->
<g id="edge30" class="edge">
<title>d0&#45;&gt;d1</title>
<path fill="none" stroke="black" d="M780.86,-830C790.41,-830 834.31,-830 855.92,-830"/>
<polygon fill="black" stroke="black" points="856.15,-833.5 866.15,-830 856.15,-826.5 856.15,-833.5"/>
<text text-anchor="middle" x="823.5" y="-836.8" font-family="Times,serif" font-size="14.00">Data flow</text>
</g>
<!-- d2 -->
<!-- d3 -->
<!-- d2&#45;&gt;d3 -->
<g id="edge31" class="edge">
<title>d2&#45;&gt;d3</title>
<path fill="none" stroke="black" stroke-dasharray="1,5" d="M654.81,-830C665.46,-830 720.46,-830 745.08,-830"/>
<polygon fill="black" stroke="black" points="745.15,-833.5 755.15,-830 745.15,-826.5 745.15,-833.5"/>
<text text-anchor="middle" x="705" y="-836.8" font-family="Times,serif" font-size="14.00">Declaration</text>
</g>
<!-- d4 -->
<!-- d5 -->
<!-- d4&#45;&gt;d5 -->
<g id="edge32" class="edge">
<title>d4&#45;&gt;d5</title>
<path fill="none" stroke="blue" d="M512.1,-830C524.72,-830 590.88,-830 618.68,-830"/>
<polygon fill="blue" stroke="blue" points="618.84,-833.5 628.84,-830 618.84,-826.5 618.84,-833.5"/>
<text text-anchor="middle" x="570.5" y="-836.8" font-family="Times,serif" font-size="14.00">PHI Data flow</text>
</g>
<!-- d6 -->
<!-- d7 -->
<!-- d6&#45;&gt;d7 -->
<g id="edge33" class="edge">
<title>d6&#45;&gt;d7</title>
<path fill="none" stroke="green" d="M375,-830C386.94,-830 449.3,-830 475.93,-830"/>
<polygon fill="green" stroke="green" points="475.95,-833.5 485.95,-830 475.95,-826.5 475.95,-833.5"/>
<text text-anchor="middle" x="430.5" y="-836.8" font-family="Times,serif" font-size="14.00">Memory flow</text>
</g>
</g>
</svg>
