<?xml version="1.0" encoding="UTF-8" standalone="no"?>
<!DOCTYPE svg PUBLIC "-//W3C//DTD SVG 1.1//EN"
 "http://www.w3.org/Graphics/SVG/1.1/DTD/svg11.dtd">
<!-- Generated by graphviz version 2.43.0 (0)
 -->
<!-- Title: %3 Pages: 1 -->
<svg width="1304pt" height="505pt"
 viewBox="0.00 0.00 1303.50 504.80" xmlns="http://www.w3.org/2000/svg" xmlns:xlink="http://www.w3.org/1999/xlink">
<g id="graph0" class="graph" transform="scale(1 1) rotate(0) translate(4 500.8)">
<title>%3</title>
<polygon fill="white" stroke="transparent" points="-4,4 -4,-500.8 1299.5,-500.8 1299.5,4 -4,4"/>
<g id="clust1" class="cluster">
<title>cluster_000</title>
<polygon fill="none" stroke="black" points="951.5,-446.2 951.5,-488.8 1287.5,-488.8 1287.5,-446.2 951.5,-446.2"/>
<text text-anchor="middle" x="1119.5" y="-473.6" font-family="Times,serif" font-size="14.00">Legend</text>
</g>
<!-- node0 -->
<g id="node1" class="node">
<title>node0</title>
<polygon fill="lightgrey" stroke="black" points="924,-474 107,-474 107,-438 924,-438 924,-474"/>
<text text-anchor="middle" x="515.5" y="-452.3" font-family="Times,serif" font-size="14.00">#0 LocalVariable[name=this, slot=0, type=Lde/mirkosertic/metair/ir/examples/StaticFieldAccessTest;] Order: 0</text>
</g>
<!-- node0&#45;&gt;node0 -->
<g id="edge1" class="edge">
<title>node0&#45;&gt;node0</title>
<path fill="none" stroke="fuchsia" d="M924.16,-459.45C935.57,-458.5 942,-457.35 942,-456 942,-455.13 939.36,-454.35 934.46,-453.65"/>
<polygon fill="fuchsia" stroke="fuchsia" points="934.47,-450.13 924.16,-452.55 933.73,-457.09 934.47,-450.13"/>
</g>
<!-- node1 -->
<g id="node2" class="node">
<title>node1</title>
<polygon fill="lightgrey" stroke="black" points="750.5,-401 280.5,-401 280.5,-365 750.5,-365 750.5,-401"/>
<text text-anchor="middle" x="515.5" y="-379.3" font-family="Times,serif" font-size="14.00">#1 Label[context=CodeModel[id=242408359], bci=0] Order: 1</text>
</g>
<!-- node0&#45;&gt;node1 -->
<g id="edge2" class="edge">
<title>node0&#45;&gt;node1</title>
<path fill="none" stroke="red" d="M509.62,-437.81C508.78,-429.79 508.55,-420.05 508.92,-411.07"/>
<polygon fill="red" stroke="red" points="512.42,-411.25 509.64,-401.03 505.44,-410.75 512.42,-411.25"/>
</g>
<!-- node1&#45;&gt;node0 -->
<g id="edge3" class="edge">
<title>node1&#45;&gt;node0</title>
<path fill="none" stroke="fuchsia" d="M521.36,-401.03C522.21,-409.03 522.45,-418.77 522.09,-427.75"/>
<polygon fill="fuchsia" stroke="fuchsia" points="518.59,-427.59 521.38,-437.81 525.57,-428.08 518.59,-427.59"/>
</g>
<!-- node2 -->
<g id="node3" class="node">
<title>node2</title>
<polygon fill="lightgrey" stroke="black" points="647,-328 384,-328 384,-292 647,-292 647,-328"/>
<text text-anchor="middle" x="515.5" y="-306.3" font-family="Times,serif" font-size="14.00">#2 LineNumber[line=67] Order: 2</text>
</g>
<!-- node1&#45;&gt;node2 -->
<g id="edge4" class="edge">
<title>node1&#45;&gt;node2</title>
<path fill="none" stroke="red" d="M509.62,-364.81C508.78,-356.79 508.55,-347.05 508.92,-338.07"/>
<polygon fill="red" stroke="red" points="512.42,-338.25 509.64,-328.03 505.44,-337.75 512.42,-338.25"/>
</g>
<!-- node2&#45;&gt;node1 -->
<g id="edge5" class="edge">
<title>node2&#45;&gt;node1</title>
<path fill="none" stroke="fuchsia" d="M521.36,-328.03C522.21,-336.03 522.45,-345.77 522.09,-354.75"/>
<polygon fill="fuchsia" stroke="fuchsia" points="518.59,-354.59 521.38,-364.81 525.57,-355.08 518.59,-354.59"/>
</g>
<!-- node3 -->
<g id="node4" class="node">
<title>node3</title>
<polygon fill="lightgrey" stroke="black" points="1015,-255 16,-255 16,-219 1015,-219 1015,-255"/>
<text text-anchor="middle" x="515.5" y="-233.3" font-family="Times,serif" font-size="14.00">#3 Field[OP=GETSTATIC, field=de/mirkosertic/metair/ir/examples/StaticFieldAccessTest$Source.string_field:Ljava/lang/String;] Order: 3</text>
</g>
<!-- node2&#45;&gt;node3 -->
<g id="edge6" class="edge">
<title>node2&#45;&gt;node3</title>
<path fill="none" stroke="red" d="M509.62,-291.81C508.78,-283.79 508.55,-274.05 508.92,-265.07"/>
<polygon fill="red" stroke="red" points="512.42,-265.25 509.64,-255.03 505.44,-264.75 512.42,-265.25"/>
</g>
<!-- node3&#45;&gt;node2 -->
<g id="edge7" class="edge">
<title>node3&#45;&gt;node2</title>
<path fill="none" stroke="fuchsia" d="M521.36,-255.03C522.21,-263.03 522.45,-272.77 522.09,-281.75"/>
<polygon fill="fuchsia" stroke="fuchsia" points="518.59,-281.59 521.38,-291.81 525.57,-282.08 518.59,-281.59"/>
</g>
<!-- node4 -->
<g id="node5" class="node">
<title>node4</title>
<polygon fill="lightgrey" stroke="black" points="1031,-182 0,-182 0,-146 1031,-146 1031,-182"/>
<text text-anchor="middle" x="515.5" y="-160.3" font-family="Times,serif" font-size="14.00">#4 Field[OP=PUTSTATIC, field=de/mirkosertic/metair/ir/examples/StaticFieldAccessTest$Destination.string_field:Ljava/lang/String;] Order: 4</text>
</g>
<!-- node3&#45;&gt;node4 -->
<g id="edge8" class="edge">
<title>node3&#45;&gt;node4</title>
<path fill="none" stroke="red" d="M509.62,-218.81C508.78,-210.79 508.55,-201.05 508.92,-192.07"/>
<polygon fill="red" stroke="red" points="512.42,-192.25 509.64,-182.03 505.44,-191.75 512.42,-192.25"/>
</g>
<!-- node4&#45;&gt;node3 -->
<g id="edge9" class="edge">
<title>node4&#45;&gt;node3</title>
<path fill="none" stroke="fuchsia" d="M521.36,-182.03C522.21,-190.03 522.45,-199.77 522.09,-208.75"/>
<polygon fill="fuchsia" stroke="fuchsia" points="518.59,-208.59 521.38,-218.81 525.57,-209.08 518.59,-208.59"/>
</g>
<!-- node5 -->
<g id="node6" class="node">
<title>node5</title>
<polygon fill="lightgrey" stroke="black" points="647,-109 384,-109 384,-73 647,-73 647,-109"/>
<text text-anchor="middle" x="515.5" y="-87.3" font-family="Times,serif" font-size="14.00">#5 LineNumber[line=68] Order: 5</text>
</g>
<!-- node4&#45;&gt;node5 -->
<g id="edge10" class="edge">
<title>node4&#45;&gt;node5</title>
<path fill="none" stroke="red" d="M509.62,-145.81C508.78,-137.79 508.55,-128.05 508.92,-119.07"/>
<polygon fill="red" stroke="red" points="512.42,-119.25 509.64,-109.03 505.44,-118.75 512.42,-119.25"/>
</g>
<!-- node5&#45;&gt;node4 -->
<g id="edge11" class="edge">
<title>node5&#45;&gt;node4</title>
<path fill="none" stroke="fuchsia" d="M521.36,-109.03C522.21,-117.03 522.45,-126.77 522.09,-135.75"/>
<polygon fill="fuchsia" stroke="fuchsia" points="518.59,-135.59 521.38,-145.81 525.57,-136.08 518.59,-135.59"/>
</g>
<!-- node6 -->
<g id="node7" class="node">
<title>node6</title>
<polygon fill="lightgrey" stroke="black" points="647.5,-36 383.5,-36 383.5,0 647.5,0 647.5,-36"/>
<text text-anchor="middle" x="515.5" y="-14.3" font-family="Times,serif" font-size="14.00">#6 Return[OP=RETURN] Order: 6</text>
</g>
<!-- node5&#45;&gt;node6 -->
<g id="edge12" class="edge">
<title>node5&#45;&gt;node6</title>
<path fill="none" stroke="red" d="M509.62,-72.81C508.78,-64.79 508.55,-55.05 508.92,-46.07"/>
<polygon fill="red" stroke="red" points="512.42,-46.25 509.64,-36.03 505.44,-45.75 512.42,-46.25"/>
</g>
<!-- node6&#45;&gt;node5 -->
<g id="edge13" class="edge">
<title>node6&#45;&gt;node5</title>
<path fill="none" stroke="fuchsia" d="M521.36,-36.03C522.21,-44.03 522.45,-53.77 522.09,-62.75"/>
<polygon fill="fuchsia" stroke="fuchsia" points="518.59,-62.59 521.38,-72.81 525.57,-63.08 518.59,-62.59"/>
</g>
<!-- c0 -->
<!-- c1 -->
<!-- c0&#45;&gt;c1 -->
<g id="edge14" class="edge">
<title>c0&#45;&gt;c1</title>
<path fill="none" stroke="red" d="M1170.39,-456C1181.61,-456 1239.74,-456 1265.36,-456"/>
<polygon fill="red" stroke="red" points="1265.56,-459.5 1275.56,-456 1265.56,-452.5 1265.56,-459.5"/>
<text text-anchor="middle" x="1223" y="-462.8" font-family="Times,serif" font-size="14.00">Control flow</text>
</g>
<!-- c2 -->
<!-- c3 -->
<!-- c2&#45;&gt;c3 -->
<g id="edge15" class="edge">
<title>c2&#45;&gt;c3</title>
<path fill="none" stroke="red" stroke-dasharray="5,2" d="M963.58,-456C980.55,-456 1096.71,-456 1134.58,-456"/>
<polygon fill="red" stroke="red" points="1134.67,-459.5 1144.67,-456 1134.67,-452.5 1134.67,-459.5"/>
<text text-anchor="middle" x="1054" y="-462.8" font-family="Times,serif" font-size="14.00">Control flow back edge</text>
</g>
</g>
</svg>
