<?xml version="1.0" encoding="UTF-8" standalone="no"?>
<!DOCTYPE svg PUBLIC "-//W3C//DTD SVG 1.1//EN"
 "http://www.w3.org/Graphics/SVG/1.1/DTD/svg11.dtd">
<!-- Generated by graphviz version 2.43.0 (0)
 -->
<!-- Title: %3 Pages: 1 -->
<svg width="1766pt" height="443pt"
 viewBox="0.00 0.00 1765.51 443.00" xmlns="http://www.w3.org/2000/svg" xmlns:xlink="http://www.w3.org/1999/xlink">
<g id="graph0" class="graph" transform="scale(1 1) rotate(0) translate(4 439)">
<title>%3</title>
<polygon fill="white" stroke="transparent" points="-4,4 -4,-439 1761.51,-439 1761.51,4 -4,4"/>
<g id="clust1" class="cluster">
<title>cluster_0</title>
<polygon fill="none" stroke="lightgray" points="510.51,-284 510.51,-427 888.51,-427 888.51,-284 510.51,-284"/>
</g>
<g id="clust2" class="cluster">
<title>cluster_000</title>
<polygon fill="none" stroke="black" points="896.51,-382.2 896.51,-424.8 1749.51,-424.8 1749.51,-382.2 896.51,-382.2"/>
<text text-anchor="middle" x="1323.01" y="-409.6" font-family="Times,serif" font-size="14.00">Legend</text>
</g>
<!-- node0 -->
<g id="node1" class="node">
<title>node0</title>
<polygon fill="lightgrey" stroke="transparent" points="734.01,-419 567.01,-419 567.01,-365 734.01,-365 734.01,-419"/>
<polygon fill="none" stroke="black" points="567.51,-392 567.51,-419 734.51,-419 734.51,-392 567.51,-392"/>
<text text-anchor="start" x="610.51" y="-401.8" font-family="Times,serif" font-size="14.00">#0 Method</text>
<polygon fill="yellow" stroke="transparent" points="567.51,-365 567.51,-392 734.51,-392 734.51,-365 567.51,-365"/>
<polygon fill="none" stroke="black" points="567.51,-365 567.51,-392 734.51,-392 734.51,-365 567.51,-365"/>
<text text-anchor="start" x="573.51" y="-374.8" font-family="Times,serif" font-size="14.00">this : FieldAccessTest</text>
</g>
<!-- node8 -->
<g id="node2" class="node">
<title>node8</title>
<polygon fill="lightgreen" stroke="black" points="880.1,-302.54 880.1,-317.46 774.31,-328 624.7,-328 518.91,-317.46 518.91,-302.54 624.7,-292 774.31,-292 880.1,-302.54"/>
<text text-anchor="middle" x="699.51" y="-306.3" font-family="Times,serif" font-size="14.00">#8 Class FieldAccessTest$Source</text>
</g>
<!-- node0&#45;&gt;node8 -->
<g id="edge1" class="edge">
<title>node0&#45;&gt;node8</title>
<path fill="none" stroke="black" stroke-dasharray="1,5" d="M666.55,-364.81C672.08,-355.78 678.26,-345.69 683.76,-336.71"/>
<polygon fill="black" stroke="black" points="686.75,-338.53 688.99,-328.17 680.78,-334.87 686.75,-338.53"/>
</g>
<!-- node1 -->
<g id="node3" class="node">
<title>node1</title>
<polygon fill="lightgrey" stroke="black" points="498.01,-255 393.01,-255 393.01,-219 498.01,-219 498.01,-255"/>
<text text-anchor="middle" x="445.51" y="-233.3" font-family="Times,serif" font-size="14.00">#1 ClassInit</text>
</g>
<!-- node0&#45;&gt;node1 -->
<g id="edge4" class="edge">
<title>node0&#45;&gt;node1</title>
<path fill="none" stroke="green" d="M572.35,-364.86C550.63,-355.35 527.96,-343.12 509.51,-328 497.92,-318.51 476.63,-287.07 461.81,-264.02"/>
<polygon fill="green" stroke="green" points="464.61,-261.9 456.28,-255.35 458.7,-265.66 464.61,-261.9"/>
</g>
<!-- node7 -->
<g id="node4" class="node">
<title>node7</title>
<polygon fill="lightgrey" stroke="black" points="462.01,-328 343.01,-328 343.01,-292 462.01,-292 462.01,-328"/>
<text text-anchor="middle" x="402.51" y="-306.3" font-family="Times,serif" font-size="14.00">#7 LabelNode</text>
</g>
<!-- node0&#45;&gt;node7 -->
<g id="edge5" class="edge">
<title>node0&#45;&gt;node7</title>
<path fill="none" stroke="red" d="M566.84,-377.78C533.04,-370.87 494.15,-360.89 460.51,-347 451.74,-343.38 442.78,-338.5 434.61,-333.51"/>
<polygon fill="red" stroke="red" points="436.42,-330.51 426.11,-328.1 432.67,-336.42 436.42,-330.51"/>
</g>
<!-- node8&#45;&gt;node1 -->
<g id="edge2" class="edge">
<title>node8&#45;&gt;node1</title>
<path fill="none" stroke="black" d="M638.67,-291.99C599.16,-280.95 547.8,-266.59 507.97,-255.46"/>
<polygon fill="black" stroke="black" points="508.68,-252.03 498.11,-252.7 506.8,-258.77 508.68,-252.03"/>
<text text-anchor="middle" x="517.84" y="-245.74" font-family="Times,serif" font-size="14.00">*0</text>
</g>
<!-- node3 -->
<g id="node5" class="node">
<title>node3</title>
<polygon fill="orange" stroke="black" points="457.62,-156.54 457.62,-171.46 427.09,-182 383.92,-182 353.39,-171.46 353.39,-156.54 383.92,-146 427.09,-146 457.62,-156.54"/>
<text text-anchor="middle" x="405.51" y="-160.3" font-family="Times,serif" font-size="14.00">#3 New</text>
</g>
<!-- node1&#45;&gt;node3 -->
<g id="edge6" class="edge">
<title>node1&#45;&gt;node3</title>
<path fill="none" stroke="black" d="M429.95,-218.81C424.41,-210.53 418.49,-200.41 413.72,-191.19"/>
<polygon fill="black" stroke="black" points="416.78,-189.47 409.24,-182.03 410.49,-192.55 416.78,-189.47"/>
<text text-anchor="middle" x="424.8" y="-190.89" font-family="Times,serif" font-size="14.00">*0</text>
</g>
<!-- node1&#45;&gt;node3 -->
<g id="edge7" class="edge">
<title>node1&#45;&gt;node3</title>
<path fill="none" stroke="green" d="M441.7,-218.81C437.82,-210.35 432.19,-199.98 426.45,-190.61"/>
<polygon fill="green" stroke="green" points="429.3,-188.57 420.96,-182.03 423.4,-192.34 429.3,-188.57"/>
</g>
<!-- node2 -->
<g id="node6" class="node">
<title>node2</title>
<polygon fill="lightgrey" stroke="black" points="610.51,-109 360.51,-109 360.51,-73 610.51,-73 610.51,-109"/>
<text text-anchor="middle" x="485.51" y="-87.3" font-family="Times,serif" font-size="14.00">#2 Invoke special &lt;init&gt; : ()void</text>
</g>
<!-- node1&#45;&gt;node2 -->
<g id="edge9" class="edge">
<title>node1&#45;&gt;node2</title>
<path fill="none" stroke="red" d="M453.05,-218.74C457.42,-208.26 462.77,-194.53 466.51,-182 472.69,-161.24 477.65,-137.22 480.96,-119.22"/>
<polygon fill="red" stroke="red" points="484.44,-119.58 482.75,-109.13 477.55,-118.36 484.44,-119.58"/>
</g>
<!-- node7&#45;&gt;node1 -->
<g id="edge3" class="edge">
<title>node7&#45;&gt;node1</title>
<path fill="none" stroke="red" d="M412.92,-291.81C418.04,-283.35 424.32,-272.98 430,-263.61"/>
<polygon fill="red" stroke="red" points="433.01,-265.4 435.19,-255.03 427.02,-261.77 433.01,-265.4"/>
</g>
<!-- node3&#45;&gt;node2 -->
<g id="edge8" class="edge">
<title>node3&#45;&gt;node2</title>
<path fill="none" stroke="black" d="M418.99,-145.81C428.27,-136.74 440.78,-125.48 452.51,-115.6"/>
<polygon fill="black" stroke="black" points="454.98,-118.1 460.46,-109.03 450.52,-112.71 454.98,-118.1"/>
<text text-anchor="middle" x="451.88" y="-123.4" font-family="Times,serif" font-size="14.00">*0</text>
</g>
<!-- node3&#45;&gt;node2 -->
<g id="edge10" class="edge">
<title>node3&#45;&gt;node2</title>
<path fill="none" stroke="green" d="M429.86,-146.53C441.04,-137.5 454.06,-126.13 464.76,-116.12"/>
<polygon fill="green" stroke="green" points="467.28,-118.56 472.09,-109.12 462.44,-113.5 467.28,-118.56"/>
</g>
<!-- node4 -->
<g id="node7" class="node">
<title>node4</title>
<polygon fill="orange" stroke="black" points="325.02,-83.54 325.02,-98.46 229.82,-109 95.19,-109 -0.01,-98.46 -0.01,-83.54 95.19,-73 229.82,-73 325.02,-83.54"/>
<text text-anchor="middle" x="162.51" y="-87.3" font-family="Times,serif" font-size="14.00">#4 GetField : float_field : float</text>
</g>
<!-- node3&#45;&gt;node4 -->
<g id="edge11" class="edge">
<title>node3&#45;&gt;node4</title>
<path fill="none" stroke="black" d="M367,-151.75C330.42,-141.06 274.62,-124.76 230.54,-111.88"/>
<polygon fill="black" stroke="black" points="231.34,-108.46 220.76,-109.02 229.37,-115.18 231.34,-108.46"/>
<text text-anchor="middle" x="240.53" y="-102.29" font-family="Times,serif" font-size="14.00">*0</text>
</g>
<!-- node2&#45;&gt;node4 -->
<g id="edge12" class="edge">
<title>node2&#45;&gt;node4</title>
<path fill="none" stroke="green" d="M360.32,-91C352.01,-91 343.71,-91 335.4,-91"/>
<polygon fill="green" stroke="green" points="335.27,-87.5 325.27,-91 335.27,-94.5 335.27,-87.5"/>
</g>
<!-- node5 -->
<g id="node8" class="node">
<title>node5</title>
<polygon fill="lightgrey" stroke="black" points="411.51,-36 235.51,-36 235.51,0 411.51,0 411.51,-36"/>
<text text-anchor="middle" x="323.51" y="-14.3" font-family="Times,serif" font-size="14.00">#5 ReturnValue : float</text>
</g>
<!-- node2&#45;&gt;node5 -->
<g id="edge14" class="edge">
<title>node2&#45;&gt;node5</title>
<path fill="none" stroke="red" d="M446.7,-72.99C424.23,-63.14 395.73,-50.66 371.81,-40.17"/>
<polygon fill="red" stroke="red" points="373.12,-36.92 362.55,-36.11 370.31,-43.33 373.12,-36.92"/>
</g>
<!-- node4&#45;&gt;node5 -->
<g id="edge13" class="edge">
<title>node4&#45;&gt;node5</title>
<path fill="none" stroke="black" d="M195.21,-72.99C216.6,-63.1 244.94,-50.54 269.59,-40.03"/>
<polygon fill="black" stroke="black" points="270.99,-43.24 278.83,-36.11 268.26,-36.8 270.99,-43.24"/>
<text text-anchor="middle" x="265.44" y="-47.27" font-family="Times,serif" font-size="14.00">*0</text>
</g>
<!-- node4&#45;&gt;node5 -->
<g id="edge15" class="edge">
<title>node4&#45;&gt;node5</title>
<path fill="none" stroke="green" d="M206.93,-72.99C230.21,-63.19 258.5,-50.77 281.43,-40.31"/>
<polygon fill="green" stroke="green" points="282.94,-43.47 290.57,-36.11 280.02,-37.11 282.94,-43.47"/>
</g>
<!-- c0 -->
<!-- c1 -->
<!-- c0&#45;&gt;c1 -->
<g id="edge16" class="edge">
<title>c0&#45;&gt;c1</title>
<path fill="none" stroke="red" d="M1632.4,-392C1643.61,-392 1701.75,-392 1727.36,-392"/>
<polygon fill="red" stroke="red" points="1727.56,-395.5 1737.56,-392 1727.56,-388.5 1727.56,-395.5"/>
<text text-anchor="middle" x="1685.01" y="-398.8" font-family="Times,serif" font-size="14.00">Control flow</text>
</g>
<!-- c2 -->
<!-- c3 -->
<!-- c2&#45;&gt;c3 -->
<g id="edge17" class="edge">
<title>c2&#45;&gt;c3</title>
<path fill="none" stroke="red" stroke-dasharray="5,2" d="M1425.58,-392C1442.55,-392 1558.71,-392 1596.59,-392"/>
<polygon fill="red" stroke="red" points="1596.68,-395.5 1606.68,-392 1596.68,-388.5 1596.68,-395.5"/>
<text text-anchor="middle" x="1516.01" y="-398.8" font-family="Times,serif" font-size="14.00">Control flow back edge</text>
</g>
<!-- d0 -->
<!-- d1 -->
<!-- d0&#45;&gt;d1 -->
<g id="edge18" class="edge">
<title>d0&#45;&gt;d1</title>
<path fill="none" stroke="black" d="M1314.37,-392C1323.91,-392 1367.82,-392 1389.42,-392"/>
<polygon fill="black" stroke="black" points="1389.66,-395.5 1399.66,-392 1389.66,-388.5 1389.66,-395.5"/>
<text text-anchor="middle" x="1357.01" y="-398.8" font-family="Times,serif" font-size="14.00">Data flow</text>
</g>
<!-- d2 -->
<!-- d3 -->
<!-- d2&#45;&gt;d3 -->
<g id="edge19" class="edge">
<title>d2&#45;&gt;d3</title>
<path fill="none" stroke="black" stroke-dasharray="1,5" d="M1188.31,-392C1198.96,-392 1253.97,-392 1278.58,-392"/>
<polygon fill="black" stroke="black" points="1278.65,-395.5 1288.65,-392 1278.65,-388.5 1278.65,-395.5"/>
<text text-anchor="middle" x="1238.51" y="-398.8" font-family="Times,serif" font-size="14.00">Declaration</text>
</g>
<!-- d4 -->
<!-- d5 -->
<!-- d4&#45;&gt;d5 -->
<g id="edge20" class="edge">
<title>d4&#45;&gt;d5</title>
<path fill="none" stroke="blue" d="M1045.61,-392C1058.23,-392 1124.39,-392 1152.19,-392"/>
<polygon fill="blue" stroke="blue" points="1152.35,-395.5 1162.35,-392 1152.35,-388.5 1152.35,-395.5"/>
<text text-anchor="middle" x="1104.01" y="-398.8" font-family="Times,serif" font-size="14.00">PHI Data flow</text>
</g>
<!-- d6 -->
<!-- d7 -->
<!-- d6&#45;&gt;d7 -->
<g id="edge21" class="edge">
<title>d6&#45;&gt;d7</title>
<path fill="none" stroke="green" d="M908.5,-392C920.44,-392 982.81,-392 1009.43,-392"/>
<polygon fill="green" stroke="green" points="1009.46,-395.5 1019.46,-392 1009.46,-388.5 1009.46,-395.5"/>
<text text-anchor="middle" x="964.01" y="-398.8" font-family="Times,serif" font-size="14.00">Memory flow</text>
</g>
</g>
</svg>
