<?xml version="1.0" encoding="UTF-8" standalone="no"?>
<!DOCTYPE svg PUBLIC "-//W3C//DTD SVG 1.1//EN"
 "http://www.w3.org/Graphics/SVG/1.1/DTD/svg11.dtd">
<!-- Generated by graphviz version 2.43.0 (0)
 -->
<!-- Title: %3 Pages: 1 -->
<svg width="4231pt" height="662pt"
 viewBox="0.00 0.00 4230.87 662.00" xmlns="http://www.w3.org/2000/svg" xmlns:xlink="http://www.w3.org/1999/xlink">
<g id="graph0" class="graph" transform="scale(1 1) rotate(0) translate(4 658)">
<title>%3</title>
<polygon fill="white" stroke="transparent" points="-4,4 -4,-658 4226.87,-658 4226.87,4 -4,4"/>
<g id="clust1" class="cluster">
<title>cluster_0</title>
<polygon fill="none" stroke="lightgray" points="10.92,-503 10.92,-646 736.92,-646 736.92,-503 10.92,-503"/>
</g>
<g id="clust2" class="cluster">
<title>cluster_000</title>
<polygon fill="none" stroke="black" points="744.92,-601.2 744.92,-643.8 1597.92,-643.8 1597.92,-601.2 744.92,-601.2"/>
<text text-anchor="middle" x="1171.42" y="-628.6" font-family="Times,serif" font-size="14.00">Legend</text>
</g>
<!-- node0 -->
<g id="node1" class="node">
<title>node0</title>
<polygon fill="lightgrey" stroke="transparent" points="628.42,-638 443.42,-638 443.42,-584 628.42,-584 628.42,-638"/>
<polygon fill="none" stroke="black" points="443.92,-611 443.92,-638 628.92,-638 628.92,-611 443.92,-611"/>
<text text-anchor="start" x="495.92" y="-620.8" font-family="Times,serif" font-size="14.00">#0 Method</text>
<polygon fill="yellow" stroke="transparent" points="443.92,-584 443.92,-611 628.92,-611 628.92,-584 443.92,-584"/>
<polygon fill="none" stroke="black" points="443.92,-584 443.92,-611 628.92,-611 628.92,-584 443.92,-584"/>
<text text-anchor="start" x="449.92" y="-593.8" font-family="Times,serif" font-size="14.00">this : MethodInvokeTest</text>
</g>
<!-- node2 -->
<g id="node2" class="node">
<title>node2</title>
<polygon fill="lightgrey" stroke="black" points="866.42,-547 747.42,-547 747.42,-511 866.42,-511 866.42,-547"/>
<text text-anchor="middle" x="806.92" y="-525.3" font-family="Times,serif" font-size="14.00">#2 LabelNode</text>
</g>
<!-- node0&#45;&gt;node2 -->
<g id="edge1" class="edge">
<title>node0&#45;&gt;node2</title>
<path fill="none" stroke="red" d="M624.28,-583.92C661.69,-572.87 704.59,-560.21 739.4,-549.93"/>
<polygon fill="red" stroke="red" points="740.39,-553.29 748.99,-547.1 738.41,-546.57 740.39,-553.29"/>
</g>
<!-- node5 -->
<g id="node3" class="node">
<title>node5</title>
<polygon fill="lightgrey" stroke="black" points="816.42,-474 711.42,-474 711.42,-438 816.42,-438 816.42,-474"/>
<text text-anchor="middle" x="763.92" y="-452.3" font-family="Times,serif" font-size="14.00">#5 ClassInit</text>
</g>
<!-- node0&#45;&gt;node5 -->
<g id="edge4" class="edge">
<title>node0&#45;&gt;node5</title>
<path fill="none" stroke="green" d="M443.21,-605.48C299.92,-597.52 38.13,-578.8 9.92,-547 -3.06,-532.37 -3.48,-517.24 9.92,-503 33.47,-477.96 524.36,-463.08 701.16,-458.51"/>
<polygon fill="green" stroke="green" points="701.43,-462.01 711.34,-458.25 701.25,-455.01 701.43,-462.01"/>
</g>
<!-- node4 -->
<g id="node4" class="node">
<title>node4</title>
<polygon fill="lightgreen" stroke="black" points="729.34,-521.54 729.34,-536.46 616.04,-547 455.8,-547 342.5,-536.46 342.5,-521.54 455.8,-511 616.04,-511 729.34,-521.54"/>
<text text-anchor="middle" x="535.92" y="-525.3" font-family="Times,serif" font-size="14.00">#4 Class MethodInvokeTest$Source</text>
</g>
<!-- node0&#45;&gt;node4 -->
<g id="edge5" class="edge">
<title>node0&#45;&gt;node4</title>
<path fill="none" stroke="black" stroke-dasharray="1,5" d="M535.92,-583.81C535.92,-575.35 535.92,-565.95 535.92,-557.4"/>
<polygon fill="black" stroke="black" points="539.42,-557.17 535.92,-547.17 532.42,-557.17 539.42,-557.17"/>
</g>
<!-- node3 -->
<g id="node18" class="node">
<title>node3</title>
<polygon fill="lightgreen" stroke="black" points="324.73,-521.54 324.73,-536.46 235.22,-547 108.62,-547 19.1,-536.46 19.1,-521.54 108.62,-511 235.22,-511 324.73,-521.54"/>
<text text-anchor="middle" x="171.92" y="-525.3" font-family="Times,serif" font-size="14.00">#3 Class MethodInvokeTest</text>
</g>
<!-- node0&#45;&gt;node3 -->
<g id="edge51" class="edge">
<title>node0&#45;&gt;node3</title>
<path fill="none" stroke="black" stroke-dasharray="1,5" d="M443.12,-589.61C384.9,-576.81 310.5,-560.46 254.36,-548.12"/>
<polygon fill="black" stroke="black" points="254.97,-544.67 244.45,-545.94 253.47,-551.51 254.97,-544.67"/>
</g>
<!-- node2&#45;&gt;node5 -->
<g id="edge3" class="edge">
<title>node2&#45;&gt;node5</title>
<path fill="none" stroke="red" d="M796.51,-510.81C791.39,-502.35 785.11,-491.98 779.43,-482.61"/>
<polygon fill="red" stroke="red" points="782.41,-480.77 774.23,-474.03 776.42,-484.4 782.41,-480.77"/>
</g>
<!-- node6 -->
<g id="node5" class="node">
<title>node6</title>
<polygon fill="orange" stroke="black" points="2039.04,-375.54 2039.04,-390.46 2008.51,-401 1965.33,-401 1934.8,-390.46 1934.8,-375.54 1965.33,-365 2008.51,-365 2039.04,-375.54"/>
<text text-anchor="middle" x="1986.92" y="-379.3" font-family="Times,serif" font-size="14.00">#6 New</text>
</g>
<!-- node5&#45;&gt;node6 -->
<g id="edge6" class="edge">
<title>node5&#45;&gt;node6</title>
<path fill="none" stroke="black" d="M816.61,-451.76C1014.44,-439.99 1711.82,-399.51 1924.76,-387.43"/>
<polygon fill="black" stroke="black" points="1925.04,-390.92 1934.83,-386.86 1924.64,-383.93 1925.04,-390.92"/>
<text text-anchor="middle" x="1917.21" y="-392.62" font-family="Times,serif" font-size="14.00">*0</text>
</g>
<!-- node5&#45;&gt;node6 -->
<g id="edge7" class="edge">
<title>node5&#45;&gt;node6</title>
<path fill="none" stroke="green" d="M816.64,-452.11C1014.48,-440.91 1711.66,-400.45 1924.68,-387.8"/>
<polygon fill="green" stroke="green" points="1924.98,-391.29 1934.75,-387.2 1924.56,-384.3 1924.98,-391.29"/>
</g>
<!-- node7 -->
<g id="node15" class="node">
<title>node7</title>
<polygon fill="lightgrey" stroke="black" points="805.92,-328 555.92,-328 555.92,-292 805.92,-292 805.92,-328"/>
<text text-anchor="middle" x="680.92" y="-306.3" font-family="Times,serif" font-size="14.00">#7 Invoke special &lt;init&gt; : ()void</text>
</g>
<!-- node5&#45;&gt;node7 -->
<g id="edge27" class="edge">
<title>node5&#45;&gt;node7</title>
<path fill="none" stroke="red" d="M754.07,-437.92C739.66,-412.91 712.7,-366.14 695.84,-336.89"/>
<polygon fill="red" stroke="red" points="698.78,-334.98 690.75,-328.06 692.71,-338.47 698.78,-334.98"/>
</g>
<!-- node4&#45;&gt;node5 -->
<g id="edge2" class="edge">
<title>node4&#45;&gt;node5</title>
<path fill="none" stroke="black" d="M590.53,-510.99C624.01,-500.57 666.96,-487.19 701.74,-476.36"/>
<polygon fill="black" stroke="black" points="702.82,-479.69 711.32,-473.38 700.73,-473.01 702.82,-479.69"/>
<text text-anchor="middle" x="696.53" y="-483.14" font-family="Times,serif" font-size="14.00">*0</text>
</g>
<!-- node16 -->
<g id="node6" class="node">
<title>node16</title>
<polygon fill="orange" stroke="black" points="2357.27,-302.54 2357.27,-317.46 2248.11,-328 2093.73,-328 1984.57,-317.46 1984.57,-302.54 2093.73,-292 2248.11,-292 2357.27,-302.54"/>
<text text-anchor="middle" x="2170.92" y="-306.3" font-family="Times,serif" font-size="14.00">#16 GetField : string_field : String</text>
</g>
<!-- node6&#45;&gt;node16 -->
<g id="edge8" class="edge">
<title>node6&#45;&gt;node16</title>
<path fill="none" stroke="black" d="M2020.67,-368.98C2047.65,-358.57 2085.99,-343.77 2117.19,-331.73"/>
<polygon fill="black" stroke="black" points="2118.55,-334.96 2126.62,-328.09 2116.03,-328.43 2118.55,-334.96"/>
<text text-anchor="middle" x="2112.75" y="-338.8" font-family="Times,serif" font-size="14.00">*0</text>
</g>
<!-- node15 -->
<g id="node7" class="node">
<title>node15</title>
<polygon fill="orange" stroke="black" points="3139.03,-302.54 3139.03,-317.46 3026.49,-328 2867.35,-328 2754.81,-317.46 2754.81,-302.54 2867.35,-292 3026.49,-292 3139.03,-302.54"/>
<text text-anchor="middle" x="2946.92" y="-306.3" font-family="Times,serif" font-size="14.00">#15 GetField : double_field : double</text>
</g>
<!-- node6&#45;&gt;node15 -->
<g id="edge10" class="edge">
<title>node6&#45;&gt;node15</title>
<path fill="none" stroke="black" d="M2039.39,-378.51C2162.69,-370.25 2480.53,-348.66 2745.92,-328 2763.75,-326.61 2782.47,-325.1 2801.01,-323.57"/>
<polygon fill="black" stroke="black" points="2801.3,-327.06 2810.98,-322.75 2800.72,-320.08 2801.3,-327.06"/>
<text text-anchor="middle" x="2793.61" y="-328.96" font-family="Times,serif" font-size="14.00">*0</text>
</g>
<!-- node14 -->
<g id="node8" class="node">
<title>node14</title>
<polygon fill="orange" stroke="black" points="3511.6,-302.54 3511.6,-317.46 3412.79,-328 3273.05,-328 3174.24,-317.46 3174.24,-302.54 3273.05,-292 3412.79,-292 3511.6,-302.54"/>
<text text-anchor="middle" x="3342.92" y="-306.3" font-family="Times,serif" font-size="14.00">#14 GetField : float_field : float</text>
</g>
<!-- node6&#45;&gt;node14 -->
<g id="edge12" class="edge">
<title>node6&#45;&gt;node14</title>
<path fill="none" stroke="black" d="M2039.03,-380.33C2202.56,-374.92 2720.09,-356.59 3147.92,-328 3168.1,-326.65 3189.43,-325.01 3210.3,-323.29"/>
<polygon fill="black" stroke="black" points="3210.82,-326.76 3220.49,-322.44 3210.24,-319.78 3210.82,-326.76"/>
<text text-anchor="middle" x="3203.13" y="-328.67" font-family="Times,serif" font-size="14.00">*0</text>
</g>
<!-- node13 -->
<g id="node9" class="node">
<title>node13</title>
<polygon fill="orange" stroke="black" points="3883.19,-302.54 3883.19,-317.46 3784.62,-328 3645.22,-328 3546.65,-317.46 3546.65,-302.54 3645.22,-292 3784.62,-292 3883.19,-302.54"/>
<text text-anchor="middle" x="3714.92" y="-306.3" font-family="Times,serif" font-size="14.00">#13 GetField : long_field : long</text>
</g>
<!-- node6&#45;&gt;node13 -->
<g id="edge14" class="edge">
<title>node6&#45;&gt;node13</title>
<path fill="none" stroke="black" d="M2039.28,-381.15C2234.77,-377.76 2940.41,-363.63 3520.92,-328 3541.38,-326.74 3563.04,-325.13 3584.18,-323.4"/>
<polygon fill="black" stroke="black" points="3584.49,-326.88 3594.17,-322.56 3583.91,-319.91 3584.49,-326.88"/>
<text text-anchor="middle" x="3576.81" y="-328.79" font-family="Times,serif" font-size="14.00">*0</text>
</g>
<!-- node12 -->
<g id="node10" class="node">
<title>node12</title>
<polygon fill="orange" stroke="black" points="4222.83,-302.54 4222.83,-317.46 4133.84,-328 4008,-328 3919.01,-317.46 3919.01,-302.54 4008,-292 4133.84,-292 4222.83,-302.54"/>
<text text-anchor="middle" x="4070.92" y="-306.3" font-family="Times,serif" font-size="14.00">#12 GetField : int_field : int</text>
</g>
<!-- node6&#45;&gt;node12 -->
<g id="edge16" class="edge">
<title>node6&#45;&gt;node12</title>
<path fill="none" stroke="black" d="M2039.25,-381.79C2262.58,-380.62 3157.97,-373.2 3891.92,-328 3911.24,-326.81 3931.71,-325.2 3951.63,-323.44"/>
<polygon fill="black" stroke="black" points="3952.03,-326.92 3961.68,-322.54 3951.4,-319.95 3952.03,-326.92"/>
<text text-anchor="middle" x="3944.38" y="-328.88" font-family="Times,serif" font-size="14.00">*0</text>
</g>
<!-- node11 -->
<g id="node11" class="node">
<title>node11</title>
<polygon fill="orange" stroke="black" points="537.6,-302.54 537.6,-317.46 438.79,-328 299.05,-328 200.24,-317.46 200.24,-302.54 299.05,-292 438.79,-292 537.6,-302.54"/>
<text text-anchor="middle" x="368.92" y="-306.3" font-family="Times,serif" font-size="14.00">#11 GetField : char_field : char</text>
</g>
<!-- node6&#45;&gt;node11 -->
<g id="edge18" class="edge">
<title>node6&#45;&gt;node11</title>
<path fill="none" stroke="black" d="M1934.56,-381.13C1746.63,-377.77 1088.61,-363.99 546.92,-328 530.22,-326.89 512.66,-325.49 495.34,-323.98"/>
<polygon fill="black" stroke="black" points="495.45,-320.48 485.18,-323.08 494.83,-327.45 495.45,-320.48"/>
<text text-anchor="middle" x="503.98" y="-312.56" font-family="Times,serif" font-size="14.00">*0</text>
</g>
<!-- node10 -->
<g id="node12" class="node">
<title>node10</title>
<polygon fill="orange" stroke="black" points="1177.98,-302.54 1177.98,-317.46 1074.26,-328 927.58,-328 823.86,-317.46 823.86,-302.54 927.58,-292 1074.26,-292 1177.98,-302.54"/>
<text text-anchor="middle" x="1000.92" y="-306.3" font-family="Times,serif" font-size="14.00">#10 GetField : short_field : short</text>
</g>
<!-- node6&#45;&gt;node10 -->
<g id="edge20" class="edge">
<title>node6&#45;&gt;node10</title>
<path fill="none" stroke="black" d="M1934.74,-378.65C1809.07,-370.54 1479.7,-348.94 1204.92,-328 1184.5,-326.44 1162.94,-324.73 1141.78,-323"/>
<polygon fill="black" stroke="black" points="1142.02,-319.51 1131.76,-322.18 1141.44,-326.49 1142.02,-319.51"/>
<text text-anchor="middle" x="1150.52" y="-311.54" font-family="Times,serif" font-size="14.00">*0</text>
</g>
<!-- node9 -->
<g id="node13" class="node">
<title>node9</title>
<polygon fill="orange" stroke="black" points="1605.97,-302.54 1605.97,-317.46 1491.12,-328 1328.71,-328 1213.87,-317.46 1213.87,-302.54 1328.71,-292 1491.12,-292 1605.97,-302.54"/>
<text text-anchor="middle" x="1409.92" y="-306.3" font-family="Times,serif" font-size="14.00">#9 GetField : boolean_field : boolean</text>
</g>
<!-- node6&#45;&gt;node9 -->
<g id="edge22" class="edge">
<title>node6&#45;&gt;node9</title>
<path fill="none" stroke="black" d="M1934.7,-375.57C1844.82,-364.51 1658.57,-341.6 1533.89,-326.26"/>
<polygon fill="black" stroke="black" points="1534.26,-322.77 1523.9,-325.03 1533.4,-329.72 1534.26,-322.77"/>
<text text-anchor="middle" x="1542.93" y="-315.15" font-family="Times,serif" font-size="14.00">*0</text>
</g>
<!-- node8 -->
<g id="node14" class="node">
<title>node8</title>
<polygon fill="orange" stroke="black" points="1966.43,-302.54 1966.43,-317.46 1871.23,-328 1736.6,-328 1641.41,-317.46 1641.41,-302.54 1736.6,-292 1871.23,-292 1966.43,-302.54"/>
<text text-anchor="middle" x="1803.92" y="-306.3" font-family="Times,serif" font-size="14.00">#8 GetField : byte_field : byte</text>
</g>
<!-- node6&#45;&gt;node8 -->
<g id="edge24" class="edge">
<title>node6&#45;&gt;node8</title>
<path fill="none" stroke="black" d="M1953.35,-368.98C1926.52,-358.57 1888.38,-343.77 1857.35,-331.73"/>
<polygon fill="black" stroke="black" points="1858.56,-328.45 1847.97,-328.09 1856.03,-334.97 1858.56,-328.45"/>
<text text-anchor="middle" x="1867.93" y="-323.07" font-family="Times,serif" font-size="14.00">*0</text>
</g>
<!-- node6&#45;&gt;node7 -->
<g id="edge26" class="edge">
<title>node6&#45;&gt;node7</title>
<path fill="none" stroke="black" d="M1934.83,-381.16C1770.54,-378.1 1249.19,-365.75 815.79,-328.85"/>
<polygon fill="black" stroke="black" points="815.83,-325.34 805.57,-327.97 815.23,-332.31 815.83,-325.34"/>
<text text-anchor="middle" x="824.35" y="-317.4" font-family="Times,serif" font-size="14.00">*0</text>
</g>
<!-- node6&#45;&gt;node7 -->
<g id="edge28" class="edge">
<title>node6&#45;&gt;node7</title>
<path fill="none" stroke="green" d="M1934.66,-381.01C1770.64,-377.68 1252.11,-364.97 823.92,-328 821.36,-327.78 818.78,-327.55 816.18,-327.3"/>
<polygon fill="green" stroke="green" points="816.35,-323.8 806.06,-326.31 815.67,-330.77 816.35,-323.8"/>
</g>
<!-- node17 -->
<g id="node19" class="node">
<title>node17</title>
<polygon fill="orange" stroke="black" points="2737.13,-302.54 2737.13,-317.46 2636.25,-328 2493.59,-328 2392.71,-317.46 2392.71,-302.54 2493.59,-292 2636.25,-292 2737.13,-302.54"/>
<text text-anchor="middle" x="2564.92" y="-306.3" font-family="Times,serif" font-size="14.00">#17 GetField : array_field : int[]</text>
</g>
<!-- node6&#45;&gt;node17 -->
<g id="edge33" class="edge">
<title>node6&#45;&gt;node17</title>
<path fill="none" stroke="black" d="M2039.23,-375.57C2130.82,-364.32 2322.31,-340.8 2447.15,-325.47"/>
<polygon fill="black" stroke="black" points="2447.64,-328.93 2457.14,-324.24 2446.79,-321.98 2447.64,-328.93"/>
<text text-anchor="middle" x="2440.18" y="-331.14" font-family="Times,serif" font-size="14.00">*0</text>
</g>
<!-- node16&#45;&gt;node17 -->
<g id="edge34" class="edge">
<title>node16&#45;&gt;node17</title>
<path fill="none" stroke="green" d="M2357.53,-310C2365.79,-310 2374.04,-310 2382.3,-310"/>
<polygon fill="green" stroke="green" points="2382.36,-313.5 2392.36,-310 2382.36,-306.5 2382.36,-313.5"/>
</g>
<!-- node20 -->
<g id="node20" class="node">
<title>node20</title>
<polygon fill="lightgrey" stroke="black" points="2235.42,-109 1422.42,-109 1422.42,-73 2235.42,-73 2235.42,-109"/>
<text text-anchor="middle" x="1828.92" y="-87.3" font-family="Times,serif" font-size="14.00">#20 Invoke static simple_method_return_short : (byte,boolean,short,char,int,long,float,double,String,int[])short</text>
</g>
<!-- node16&#45;&gt;node20 -->
<g id="edge44" class="edge">
<title>node16&#45;&gt;node20</title>
<path fill="none" stroke="black" d="M2144.08,-291.97C2083.05,-253.25 1933.81,-158.55 1864.89,-114.82"/>
<polygon fill="black" stroke="black" points="1866.42,-111.65 1856.1,-109.25 1862.67,-117.56 1866.42,-111.65"/>
<text text-anchor="middle" x="1875.94" y="-108.12" font-family="Times,serif" font-size="14.00">*9</text>
</g>
<!-- node15&#45;&gt;node16 -->
<g id="edge9" class="edge">
<title>node15&#45;&gt;node16</title>
<path fill="none" stroke="green" d="M2864.31,-327.74C2825.8,-335.14 2779.22,-342.85 2736.92,-346.5 2584.6,-359.64 2545.3,-358.94 2392.92,-346.5 2351.11,-343.09 2305.3,-336.11 2266.22,-329.17"/>
<polygon fill="green" stroke="green" points="2266.37,-325.64 2255.91,-327.31 2265.13,-332.53 2266.37,-325.64"/>
</g>
<!-- node15&#45;&gt;node20 -->
<g id="edge43" class="edge">
<title>node15&#45;&gt;node20</title>
<path fill="none" stroke="black" d="M2813.44,-297C2790.92,-295.18 2767.76,-293.43 2745.92,-292 2660.68,-286.4 2445.56,-291.36 2361.92,-274 2294.43,-259.99 2281.42,-243.3 2216.92,-219 2130.32,-186.37 2109.89,-174.72 2021.92,-146 1983.82,-133.57 1940.94,-121.39 1905.29,-111.76"/>
<polygon fill="black" stroke="black" points="1906,-108.32 1895.44,-109.11 1904.19,-115.08 1906,-108.32"/>
<text text-anchor="middle" x="1915.14" y="-101.95" font-family="Times,serif" font-size="14.00">*8</text>
</g>
<!-- node14&#45;&gt;node15 -->
<g id="edge11" class="edge">
<title>node14&#45;&gt;node15</title>
<path fill="none" stroke="green" d="M3174.15,-310C3165.85,-310 3157.54,-310 3149.24,-310"/>
<polygon fill="green" stroke="green" points="3149.12,-306.5 3139.12,-310 3149.12,-313.5 3149.12,-306.5"/>
</g>
<!-- node14&#45;&gt;node20 -->
<g id="edge42" class="edge">
<title>node14&#45;&gt;node20</title>
<path fill="none" stroke="black" d="M3222.33,-297.37C3197.73,-295.31 3172.01,-293.39 3147.92,-292 3006.32,-283.84 2649.93,-296.65 2509.92,-274 2315.18,-242.5 2276.05,-194.85 2084.92,-146 2033.77,-132.93 1976.29,-120.59 1928.78,-111.02"/>
<polygon fill="black" stroke="black" points="1929.29,-107.56 1918.8,-109.02 1927.91,-114.42 1929.29,-107.56"/>
<text text-anchor="middle" x="1938.23" y="-100.6" font-family="Times,serif" font-size="14.00">*7</text>
</g>
<!-- node13&#45;&gt;node14 -->
<g id="edge13" class="edge">
<title>node13&#45;&gt;node14</title>
<path fill="none" stroke="green" d="M3546.75,-310C3538.48,-310 3530.21,-310 3521.93,-310"/>
<polygon fill="green" stroke="green" points="3521.84,-306.5 3511.84,-310 3521.84,-313.5 3521.84,-306.5"/>
</g>
<!-- node13&#45;&gt;node20 -->
<g id="edge41" class="edge">
<title>node13&#45;&gt;node20</title>
<path fill="none" stroke="black" d="M3589.71,-297.93C3486.06,-288.74 3351.75,-276.73 3325.92,-274 2825.31,-221.06 2232.2,-144.97 1967.95,-110.38"/>
<polygon fill="black" stroke="black" points="1968.29,-106.89 1957.92,-109.06 1967.38,-113.83 1968.29,-106.89"/>
<text text-anchor="middle" x="1976.99" y="-99.34" font-family="Times,serif" font-size="14.00">*6</text>
</g>
<!-- node12&#45;&gt;node13 -->
<g id="edge15" class="edge">
<title>node12&#45;&gt;node13</title>
<path fill="none" stroke="green" d="M3918.75,-310C3910.23,-310 3901.71,-310 3893.19,-310"/>
<polygon fill="green" stroke="green" points="3893.18,-306.5 3883.18,-310 3893.18,-313.5 3893.18,-306.5"/>
</g>
<!-- node12&#45;&gt;node20 -->
<g id="edge40" class="edge">
<title>node12&#45;&gt;node20</title>
<path fill="none" stroke="black" d="M3958.04,-297.86C3688.67,-271.3 2987.03,-202.27 2400.92,-146 2274.3,-133.84 2131.89,-120.4 2020.84,-109.97"/>
<polygon fill="black" stroke="black" points="2021.15,-106.48 2010.87,-109.03 2020.5,-113.45 2021.15,-106.48"/>
<text text-anchor="middle" x="2029.71" y="-98.61" font-family="Times,serif" font-size="14.00">*5</text>
</g>
<!-- node11&#45;&gt;node12 -->
<g id="edge17" class="edge">
<title>node11&#45;&gt;node12</title>
<path fill="none" stroke="green" d="M442.16,-327.69C476.47,-335.1 518.06,-342.84 555.92,-346.5 739.89,-364.29 3698.93,-364.19 3882.92,-346.5 3918.31,-343.1 3956.94,-336.17 3989.92,-329.25"/>
<polygon fill="green" stroke="green" points="3990.92,-332.62 3999.97,-327.11 3989.46,-325.77 3990.92,-332.62"/>
</g>
<!-- node11&#45;&gt;node20 -->
<g id="edge39" class="edge">
<title>node11&#45;&gt;node20</title>
<path fill="none" stroke="black" d="M421.72,-291.98C548.26,-252.29 879.56,-154.85 1164.92,-127 1244.69,-119.22 1330.02,-113.08 1412.05,-108.27"/>
<polygon fill="black" stroke="black" points="1412.25,-111.76 1422.03,-107.69 1411.84,-104.78 1412.25,-111.76"/>
<text text-anchor="middle" x="1404.43" y="-113.48" font-family="Times,serif" font-size="14.00">*4</text>
</g>
<!-- node10&#45;&gt;node11 -->
<g id="edge19" class="edge">
<title>node10&#45;&gt;node11</title>
<path fill="none" stroke="green" d="M924.51,-327.69C888.71,-335.1 845.36,-342.84 805.92,-346.5 695.28,-356.77 666.51,-357.19 555.92,-346.5 521.61,-343.18 484.24,-336.52 451.99,-329.78"/>
<polygon fill="green" stroke="green" points="452.66,-326.34 442.16,-327.69 451.21,-333.19 452.66,-326.34"/>
</g>
<!-- node10&#45;&gt;node20 -->
<g id="edge38" class="edge">
<title>node10&#45;&gt;node20</title>
<path fill="none" stroke="black" d="M1065.89,-291.97C1217.41,-252.26 1593.45,-153.71 1754.16,-111.59"/>
<polygon fill="black" stroke="black" points="1755.18,-114.94 1763.96,-109.02 1753.4,-108.17 1755.18,-114.94"/>
<text text-anchor="middle" x="1748.57" y="-118.09" font-family="Times,serif" font-size="14.00">*3</text>
</g>
<!-- node9&#45;&gt;node10 -->
<g id="edge21" class="edge">
<title>node9&#45;&gt;node10</title>
<path fill="none" stroke="green" d="M1213.55,-310C1205.19,-310 1196.82,-310 1188.46,-310"/>
<polygon fill="green" stroke="green" points="1188.26,-306.5 1178.26,-310 1188.26,-313.5 1188.26,-306.5"/>
</g>
<!-- node9&#45;&gt;node20 -->
<g id="edge37" class="edge">
<title>node9&#45;&gt;node20</title>
<path fill="none" stroke="black" d="M1442.8,-291.97C1518.2,-252.92 1703.49,-156.96 1786.96,-113.73"/>
<polygon fill="black" stroke="black" points="1788.63,-116.81 1795.9,-109.1 1785.41,-110.59 1788.63,-116.81"/>
<text text-anchor="middle" x="1783.7" y="-121.24" font-family="Times,serif" font-size="14.00">*2</text>
</g>
<!-- node8&#45;&gt;node9 -->
<g id="edge23" class="edge">
<title>node8&#45;&gt;node9</title>
<path fill="none" stroke="green" d="M1641.3,-310C1632.97,-310 1624.64,-310 1616.31,-310"/>
<polygon fill="green" stroke="green" points="1616.15,-306.5 1606.15,-310 1616.15,-313.5 1616.15,-306.5"/>
</g>
<!-- node8&#45;&gt;node20 -->
<g id="edge36" class="edge">
<title>node8&#45;&gt;node20</title>
<path fill="none" stroke="black" d="M1805.88,-291.97C1810.2,-254.51 1820.55,-164.68 1825.78,-119.26"/>
<polygon fill="black" stroke="black" points="1829.26,-119.58 1826.93,-109.25 1822.31,-118.78 1829.26,-119.58"/>
<text text-anchor="middle" x="1833.25" y="-124.52" font-family="Times,serif" font-size="14.00">*1</text>
</g>
<!-- node7&#45;&gt;node8 -->
<g id="edge25" class="edge">
<title>node7&#45;&gt;node8</title>
<path fill="none" stroke="green" d="M738.04,-328.07C763.96,-335.36 795.19,-342.89 823.92,-346.5 996.34,-368.16 1432.86,-362.32 1605.92,-346.5 1643.14,-343.1 1683.82,-336.17 1718.57,-329.25"/>
<polygon fill="green" stroke="green" points="1719.57,-332.62 1728.68,-327.21 1718.18,-325.76 1719.57,-332.62"/>
</g>
<!-- node18 -->
<g id="node16" class="node">
<title>node18</title>
<polygon fill="lightgrey" stroke="black" points="1117.92,-255 989.92,-255 989.92,-219 1117.92,-219 1117.92,-255"/>
<text text-anchor="middle" x="1053.92" y="-233.3" font-family="Times,serif" font-size="14.00">#18 LabelNode</text>
</g>
<!-- node7&#45;&gt;node18 -->
<g id="edge29" class="edge">
<title>node7&#45;&gt;node18</title>
<path fill="none" stroke="red" d="M793.86,-291.98C826.83,-286.64 862.88,-280.45 895.92,-274 923.34,-268.65 953.27,-262.03 979.62,-255.94"/>
<polygon fill="red" stroke="red" points="980.59,-259.3 989.54,-253.63 979.01,-252.49 980.59,-259.3"/>
</g>
<!-- node19 -->
<g id="node17" class="node">
<title>node19</title>
<polygon fill="lightgrey" stroke="black" points="1154.92,-182 1040.92,-182 1040.92,-146 1154.92,-146 1154.92,-182"/>
<text text-anchor="middle" x="1097.92" y="-160.3" font-family="Times,serif" font-size="14.00">#19 ClassInit</text>
</g>
<!-- node18&#45;&gt;node19 -->
<g id="edge32" class="edge">
<title>node18&#45;&gt;node19</title>
<path fill="none" stroke="red" d="M1064.57,-218.81C1069.81,-210.35 1076.24,-199.98 1082.05,-190.61"/>
<polygon fill="red" stroke="red" points="1085.07,-192.37 1087.37,-182.03 1079.12,-188.69 1085.07,-192.37"/>
</g>
<!-- node19&#45;&gt;node20 -->
<g id="edge35" class="edge">
<title>node19&#45;&gt;node20</title>
<path fill="none" stroke="black" d="M1110,-145.82C1121.75,-138.66 1138.15,-131.08 1153.92,-127 1204.99,-113.8 1304.74,-105.56 1412.23,-100.43"/>
<polygon fill="black" stroke="black" points="1412.5,-103.93 1422.32,-99.96 1412.17,-96.93 1412.5,-103.93"/>
<text text-anchor="middle" x="1404.61" y="-105.55" font-family="Times,serif" font-size="14.00">*0</text>
</g>
<!-- node19&#45;&gt;node20 -->
<g id="edge46" class="edge">
<title>node19&#45;&gt;node20</title>
<path fill="none" stroke="green" d="M1126.41,-145.82C1139.75,-138.66 1156.15,-131.08 1171.92,-127 1220.21,-114.51 1312.03,-106.47 1412.05,-101.3"/>
<polygon fill="green" stroke="green" points="1412.26,-104.79 1422.07,-100.79 1411.9,-97.8 1412.26,-104.79"/>
</g>
<!-- node19&#45;&gt;node20 -->
<g id="edge47" class="edge">
<title>node19&#45;&gt;node20</title>
<path fill="none" stroke="red" d="M1142.82,-145.82C1157.75,-138.66 1174.15,-131.08 1189.92,-127 1235.4,-115.24 1319.48,-107.43 1412.06,-102.23"/>
<polygon fill="red" stroke="red" points="1412.42,-105.72 1422.21,-101.68 1412.04,-98.73 1412.42,-105.72"/>
</g>
<!-- node3&#45;&gt;node19 -->
<g id="edge30" class="edge">
<title>node3&#45;&gt;node19</title>
<path fill="none" stroke="black" d="M171.92,-510.78C171.92,-496.41 171.92,-475.37 171.92,-457 171.92,-457 171.92,-457 171.92,-236 171.92,-192.92 817.48,-172.28 1030.58,-166.64"/>
<polygon fill="black" stroke="black" points="1030.79,-170.14 1040.69,-166.38 1030.6,-163.14 1030.79,-170.14"/>
<text text-anchor="middle" x="1022.79" y="-171.6" font-family="Times,serif" font-size="14.00">*0</text>
</g>
<!-- node17&#45;&gt;node19 -->
<g id="edge31" class="edge">
<title>node17&#45;&gt;node19</title>
<path fill="none" stroke="green" d="M2444.24,-297.15C2148.42,-268.12 1394.59,-194.12 1165.18,-171.6"/>
<polygon fill="green" stroke="green" points="1165.27,-168.09 1154.98,-170.6 1164.59,-175.06 1165.27,-168.09"/>
</g>
<!-- node17&#45;&gt;node20 -->
<g id="edge45" class="edge">
<title>node17&#45;&gt;node20</title>
<path fill="none" stroke="black" d="M2442.94,-297.24C2402.18,-291.89 2356.75,-284.37 2315.92,-274 2229.62,-252.09 1987.08,-155.85 1880.39,-112.87"/>
<polygon fill="black" stroke="black" points="1881.69,-109.62 1871.1,-109.12 1879.07,-116.11 1881.69,-109.62"/>
<text text-anchor="middle" x="1891.08" y="-104.36" font-family="Times,serif" font-size="14.00">*10</text>
</g>
<!-- node21 -->
<g id="node21" class="node">
<title>node21</title>
<polygon fill="lightgrey" stroke="black" points="1915.42,-36 1742.42,-36 1742.42,0 1915.42,0 1915.42,-36"/>
<text text-anchor="middle" x="1828.92" y="-14.3" font-family="Times,serif" font-size="14.00">#21 ReturnValue : int</text>
</g>
<!-- node20&#45;&gt;node21 -->
<g id="edge48" class="edge">
<title>node20&#45;&gt;node21</title>
<path fill="none" stroke="black" d="M1817.16,-72.81C1815.48,-64.79 1815.02,-55.05 1815.76,-46.07"/>
<polygon fill="black" stroke="black" points="1819.25,-46.42 1817.2,-36.03 1812.32,-45.43 1819.25,-46.42"/>
<text text-anchor="middle" x="1823" y="-51.47" font-family="Times,serif" font-size="14.00">*0</text>
</g>
<!-- node20&#45;&gt;node21 -->
<g id="edge49" class="edge">
<title>node20&#45;&gt;node21</title>
<path fill="none" stroke="red" d="M1828.92,-72.81C1828.92,-64.79 1828.92,-55.05 1828.92,-46.07"/>
<polygon fill="red" stroke="red" points="1832.42,-46.03 1828.92,-36.03 1825.42,-46.03 1832.42,-46.03"/>
</g>
<!-- node20&#45;&gt;node21 -->
<g id="edge50" class="edge">
<title>node20&#45;&gt;node21</title>
<path fill="none" stroke="green" d="M1840.68,-72.81C1842.35,-64.79 1842.82,-55.05 1842.07,-46.07"/>
<polygon fill="green" stroke="green" points="1845.52,-45.43 1840.64,-36.03 1838.59,-46.42 1845.52,-45.43"/>
</g>
<!-- c0 -->
<!-- c1 -->
<!-- c0&#45;&gt;c1 -->
<g id="edge52" class="edge">
<title>c0&#45;&gt;c1</title>
<path fill="none" stroke="red" d="M1480.81,-611C1492.03,-611 1550.16,-611 1575.78,-611"/>
<polygon fill="red" stroke="red" points="1575.97,-614.5 1585.97,-611 1575.97,-607.5 1575.97,-614.5"/>
<text text-anchor="middle" x="1533.42" y="-617.8" font-family="Times,serif" font-size="14.00">Control flow</text>
</g>
<!-- c2 -->
<!-- c3 -->
<!-- c2&#45;&gt;c3 -->
<g id="edge53" class="edge">
<title>c2&#45;&gt;c3</title>
<path fill="none" stroke="red" stroke-dasharray="5,2" d="M1274,-611C1290.97,-611 1407.12,-611 1445,-611"/>
<polygon fill="red" stroke="red" points="1445.09,-614.5 1455.09,-611 1445.09,-607.5 1445.09,-614.5"/>
<text text-anchor="middle" x="1364.42" y="-617.8" font-family="Times,serif" font-size="14.00">Control flow back edge</text>
</g>
<!-- d0 -->
<!-- d1 -->
<!-- d0&#45;&gt;d1 -->
<g id="edge54" class="edge">
<title>d0&#45;&gt;d1</title>
<path fill="none" stroke="black" d="M1162.78,-611C1172.32,-611 1216.23,-611 1237.84,-611"/>
<polygon fill="black" stroke="black" points="1238.07,-614.5 1248.07,-611 1238.07,-607.5 1238.07,-614.5"/>
<text text-anchor="middle" x="1205.42" y="-617.8" font-family="Times,serif" font-size="14.00">Data flow</text>
</g>
<!-- d2 -->
<!-- d3 -->
<!-- d2&#45;&gt;d3 -->
<g id="edge55" class="edge">
<title>d2&#45;&gt;d3</title>
<path fill="none" stroke="black" stroke-dasharray="1,5" d="M1036.72,-611C1047.37,-611 1102.38,-611 1126.99,-611"/>
<polygon fill="black" stroke="black" points="1127.06,-614.5 1137.06,-611 1127.06,-607.5 1127.06,-614.5"/>
<text text-anchor="middle" x="1086.92" y="-617.8" font-family="Times,serif" font-size="14.00">Declaration</text>
</g>
<!-- d4 -->
<!-- d5 -->
<!-- d4&#45;&gt;d5 -->
<g id="edge56" class="edge">
<title>d4&#45;&gt;d5</title>
<path fill="none" stroke="blue" d="M894.02,-611C906.64,-611 972.8,-611 1000.6,-611"/>
<polygon fill="blue" stroke="blue" points="1000.76,-614.5 1010.76,-611 1000.76,-607.5 1000.76,-614.5"/>
<text text-anchor="middle" x="952.42" y="-617.8" font-family="Times,serif" font-size="14.00">PHI Data flow</text>
</g>
<!-- d6 -->
<!-- d7 -->
<!-- d6&#45;&gt;d7 -->
<g id="edge57" class="edge">
<title>d6&#45;&gt;d7</title>
<path fill="none" stroke="green" d="M756.91,-611C768.86,-611 831.22,-611 857.85,-611"/>
<polygon fill="green" stroke="green" points="857.87,-614.5 867.87,-611 857.87,-607.5 857.87,-614.5"/>
<text text-anchor="middle" x="812.42" y="-617.8" font-family="Times,serif" font-size="14.00">Memory flow</text>
</g>
</g>
</svg>
