<?xml version="1.0" encoding="UTF-8" standalone="no"?>
<!DOCTYPE svg PUBLIC "-//W3C//DTD SVG 1.1//EN"
 "http://www.w3.org/Graphics/SVG/1.1/DTD/svg11.dtd">
<!-- Generated by graphviz version 2.43.0 (0)
 -->
<!-- Title: %3 Pages: 1 -->
<svg width="5124pt" height="662pt"
 viewBox="0.00 0.00 5123.95 662.00" xmlns="http://www.w3.org/2000/svg" xmlns:xlink="http://www.w3.org/1999/xlink">
<g id="graph0" class="graph" transform="scale(1 1) rotate(0) translate(4 658)">
<title>%3</title>
<polygon fill="white" stroke="transparent" points="-4,4 -4,-658 5119.95,-658 5119.95,4 -4,4"/>
<g id="clust1" class="cluster">
<title>cluster_0</title>
<polygon fill="none" stroke="lightgray" points="3520.95,-503 3520.95,-646 4246.95,-646 4246.95,-503 3520.95,-503"/>
</g>
<g id="clust2" class="cluster">
<title>cluster_000</title>
<polygon fill="none" stroke="black" points="4254.95,-601.2 4254.95,-643.8 5107.95,-643.8 5107.95,-601.2 4254.95,-601.2"/>
<text text-anchor="middle" x="4681.45" y="-628.6" font-family="Times,serif" font-size="14.00">Legend</text>
</g>
<!-- node0 -->
<g id="node1" class="node">
<title>node0</title>
<polygon fill="lightgrey" stroke="transparent" points="3814.45,-638 3629.45,-638 3629.45,-584 3814.45,-584 3814.45,-638"/>
<polygon fill="none" stroke="black" points="3629.95,-611 3629.95,-638 3814.95,-638 3814.95,-611 3629.95,-611"/>
<text text-anchor="start" x="3681.95" y="-620.8" font-family="Times,serif" font-size="14.00">#0 Method</text>
<polygon fill="yellow" stroke="transparent" points="3629.95,-584 3629.95,-611 3814.95,-611 3814.95,-584 3629.95,-584"/>
<polygon fill="none" stroke="black" points="3629.95,-584 3629.95,-611 3814.95,-611 3814.95,-584 3629.95,-584"/>
<text text-anchor="start" x="3635.95" y="-593.8" font-family="Times,serif" font-size="14.00">this : MethodInvokeTest</text>
</g>
<!-- node4 -->
<g id="node2" class="node">
<title>node4</title>
<polygon fill="lightgreen" stroke="black" points="3915.38,-521.54 3915.38,-536.46 3802.07,-547 3641.84,-547 3528.53,-536.46 3528.53,-521.54 3641.84,-511 3802.07,-511 3915.38,-521.54"/>
<text text-anchor="middle" x="3721.95" y="-525.3" font-family="Times,serif" font-size="14.00">#4 Class MethodInvokeTest$Source</text>
</g>
<!-- node0&#45;&gt;node4 -->
<g id="edge1" class="edge">
<title>node0&#45;&gt;node4</title>
<path fill="none" stroke="black" stroke-dasharray="1,5" d="M3721.95,-583.81C3721.95,-575.35 3721.95,-565.95 3721.95,-557.4"/>
<polygon fill="black" stroke="black" points="3725.45,-557.17 3721.95,-547.17 3718.45,-557.17 3725.45,-557.17"/>
</g>
<!-- node5 -->
<g id="node3" class="node">
<title>node5</title>
<polygon fill="lightgrey" stroke="black" points="3506.45,-474 3401.45,-474 3401.45,-438 3506.45,-438 3506.45,-474"/>
<text text-anchor="middle" x="3453.95" y="-452.3" font-family="Times,serif" font-size="14.00">#5 ClassInit</text>
</g>
<!-- node0&#45;&gt;node5 -->
<g id="edge4" class="edge">
<title>node0&#45;&gt;node5</title>
<path fill="none" stroke="green" d="M3629.34,-594.17C3592.86,-584.74 3552.09,-569.95 3519.95,-547 3507.51,-538.11 3485.32,-505.97 3470.14,-482.63"/>
<polygon fill="green" stroke="green" points="3473.05,-480.69 3464.69,-474.18 3467.17,-484.48 3473.05,-480.69"/>
</g>
<!-- node2 -->
<g id="node4" class="node">
<title>node2</title>
<polygon fill="lightgrey" stroke="black" points="3472.45,-547 3353.45,-547 3353.45,-511 3472.45,-511 3472.45,-547"/>
<text text-anchor="middle" x="3412.95" y="-525.3" font-family="Times,serif" font-size="14.00">#2 LabelNode</text>
</g>
<!-- node0&#45;&gt;node2 -->
<g id="edge5" class="edge">
<title>node0&#45;&gt;node2</title>
<path fill="none" stroke="red" d="M3629.38,-602.31C3580.99,-596.18 3521.49,-585.28 3470.95,-566 3461.93,-562.56 3452.77,-557.66 3444.48,-552.57"/>
<polygon fill="red" stroke="red" points="3446.18,-549.5 3435.87,-547.05 3442.4,-555.4 3446.18,-549.5"/>
</g>
<!-- node3 -->
<g id="node19" class="node">
<title>node3</title>
<polygon fill="lightgreen" stroke="black" points="4238.77,-521.54 4238.77,-536.46 4149.25,-547 4022.66,-547 3933.14,-536.46 3933.14,-521.54 4022.66,-511 4149.25,-511 4238.77,-521.54"/>
<text text-anchor="middle" x="4085.95" y="-525.3" font-family="Times,serif" font-size="14.00">#3 Class MethodInvokeTest</text>
</g>
<!-- node0&#45;&gt;node3 -->
<g id="edge48" class="edge">
<title>node0&#45;&gt;node3</title>
<path fill="none" stroke="black" stroke-dasharray="1,5" d="M3814.75,-589.61C3872.97,-576.81 3947.37,-560.46 4003.51,-548.12"/>
<polygon fill="black" stroke="black" points="4004.4,-551.51 4013.42,-545.94 4002.9,-544.67 4004.4,-551.51"/>
</g>
<!-- node4&#45;&gt;node5 -->
<g id="edge2" class="edge">
<title>node4&#45;&gt;node5</title>
<path fill="none" stroke="black" d="M3657.76,-510.99C3615.04,-499.68 3559.18,-484.88 3516.75,-473.64"/>
<polygon fill="black" stroke="black" points="3517.38,-470.18 3506.82,-471.01 3515.59,-476.95 3517.38,-470.18"/>
<text text-anchor="middle" x="3526.51" y="-463.78" font-family="Times,serif" font-size="14.00">*0</text>
</g>
<!-- node7 -->
<g id="node5" class="node">
<title>node7</title>
<polygon fill="lightgrey" stroke="black" points="4057.95,-328 3807.95,-328 3807.95,-292 4057.95,-292 4057.95,-328"/>
<text text-anchor="middle" x="3932.95" y="-306.3" font-family="Times,serif" font-size="14.00">#7 Invoke special &lt;init&gt; : ()void</text>
</g>
<!-- node5&#45;&gt;node7 -->
<g id="edge7" class="edge">
<title>node5&#45;&gt;node7</title>
<path fill="none" stroke="red" d="M3506.59,-439.18C3594.34,-412.8 3770.39,-359.87 3866.55,-330.96"/>
<polygon fill="red" stroke="red" points="3867.59,-334.3 3876.16,-328.07 3865.58,-327.6 3867.59,-334.3"/>
</g>
<!-- node6 -->
<g id="node6" class="node">
<title>node6</title>
<polygon fill="orange" stroke="black" points="2194.07,-375.54 2194.07,-390.46 2163.54,-401 2120.37,-401 2089.84,-390.46 2089.84,-375.54 2120.37,-365 2163.54,-365 2194.07,-375.54"/>
<text text-anchor="middle" x="2141.95" y="-379.3" font-family="Times,serif" font-size="14.00">#6 New</text>
</g>
<!-- node5&#45;&gt;node6 -->
<g id="edge9" class="edge">
<title>node5&#45;&gt;node6</title>
<path fill="none" stroke="black" d="M3401.33,-452.3C3193.33,-441.33 2429.49,-400 2204.6,-387.56"/>
<polygon fill="black" stroke="black" points="2204.48,-384.05 2194.3,-386.99 2204.09,-391.04 2204.48,-384.05"/>
<text text-anchor="middle" x="2212.87" y="-375.85" font-family="Times,serif" font-size="14.00">*0</text>
</g>
<!-- node5&#45;&gt;node6 -->
<g id="edge10" class="edge">
<title>node5&#45;&gt;node6</title>
<path fill="none" stroke="green" d="M3401.35,-451.99C3193.36,-440.47 2429.32,-399.12 2204.52,-387.22"/>
<polygon fill="green" stroke="green" points="2204.4,-383.71 2194.23,-386.68 2204.03,-390.7 2204.4,-383.71"/>
</g>
<!-- node2&#45;&gt;node5 -->
<g id="edge3" class="edge">
<title>node2&#45;&gt;node5</title>
<path fill="none" stroke="red" d="M3422.88,-510.81C3427.71,-502.44 3433.63,-492.2 3439,-482.9"/>
<polygon fill="red" stroke="red" points="3442.15,-484.44 3444.12,-474.03 3436.09,-480.94 3442.15,-484.44"/>
</g>
<!-- node8 -->
<g id="node11" class="node">
<title>node8</title>
<polygon fill="orange" stroke="black" points="1855.47,-302.54 1855.47,-317.46 1760.27,-328 1625.64,-328 1530.44,-317.46 1530.44,-302.54 1625.64,-292 1760.27,-292 1855.47,-302.54"/>
<text text-anchor="middle" x="1692.95" y="-306.3" font-family="Times,serif" font-size="14.00">#8 GetField : byte_field : byte</text>
</g>
<!-- node7&#45;&gt;node8 -->
<g id="edge20" class="edge">
<title>node7&#45;&gt;node8</title>
<path fill="none" stroke="green" d="M3875.83,-328.07C3849.91,-335.36 3818.68,-342.89 3789.95,-346.5 3578.73,-373.03 2085.79,-367.65 1873.95,-346.5 1840.85,-343.2 1804.85,-336.57 1773.73,-329.87"/>
<polygon fill="green" stroke="green" points="1774.33,-326.41 1763.81,-327.69 1772.83,-333.25 1774.33,-326.41"/>
</g>
<!-- node18 -->
<g id="node20" class="node">
<title>node18</title>
<polygon fill="lightgrey" stroke="black" points="3615.95,-255 3487.95,-255 3487.95,-219 3615.95,-219 3615.95,-255"/>
<text text-anchor="middle" x="3551.95" y="-233.3" font-family="Times,serif" font-size="14.00">#18 LabelNode</text>
</g>
<!-- node7&#45;&gt;node18 -->
<g id="edge37" class="edge">
<title>node7&#45;&gt;node18</title>
<path fill="none" stroke="red" d="M3841.7,-291.99C3775.8,-279.71 3687.92,-263.34 3626.28,-251.85"/>
<polygon fill="red" stroke="red" points="3626.71,-248.37 3616.24,-249.98 3625.43,-255.25 3626.71,-248.37"/>
</g>
<!-- node6&#45;&gt;node7 -->
<g id="edge6" class="edge">
<title>node6&#45;&gt;node7</title>
<path fill="none" stroke="black" d="M2194.09,-382.07C2398.31,-381.95 3162.68,-377.9 3789.95,-328 3792.51,-327.8 3795.09,-327.58 3797.7,-327.35"/>
<polygon fill="black" stroke="black" points="3798.19,-330.82 3807.82,-326.41 3797.54,-323.85 3798.19,-330.82"/>
<text text-anchor="middle" x="3790.56" y="-332.8" font-family="Times,serif" font-size="14.00">*0</text>
</g>
<!-- node6&#45;&gt;node7 -->
<g id="edge8" class="edge">
<title>node6&#45;&gt;node7</title>
<path fill="none" stroke="green" d="M2194.06,-382.08C2398.58,-382.04 3165.56,-378.48 3798.07,-328.78"/>
<polygon fill="green" stroke="green" points="3798.61,-332.25 3808.31,-327.97 3798.06,-325.27 3798.61,-332.25"/>
</g>
<!-- node12 -->
<g id="node7" class="node">
<title>node12</title>
<polygon fill="orange" stroke="black" points="303.86,-302.54 303.86,-317.46 214.88,-328 89.03,-328 0.05,-317.46 0.05,-302.54 89.03,-292 214.88,-292 303.86,-302.54"/>
<text text-anchor="middle" x="151.95" y="-306.3" font-family="Times,serif" font-size="14.00">#12 GetField : int_field : int</text>
</g>
<!-- node6&#45;&gt;node12 -->
<g id="edge11" class="edge">
<title>node6&#45;&gt;node12</title>
<path fill="none" stroke="black" d="M2089.64,-381.69C1873.04,-380.15 1025.31,-371.52 329.95,-328 310.96,-326.81 290.85,-325.22 271.25,-323.48"/>
<polygon fill="black" stroke="black" points="271.34,-319.97 261.06,-322.56 270.71,-326.94 271.34,-319.97"/>
<text text-anchor="middle" x="279.87" y="-312.07" font-family="Times,serif" font-size="14.00">*0</text>
</g>
<!-- node11 -->
<g id="node8" class="node">
<title>node11</title>
<polygon fill="orange" stroke="black" points="676.63,-302.54 676.63,-317.46 577.82,-328 438.09,-328 339.28,-317.46 339.28,-302.54 438.09,-292 577.82,-292 676.63,-302.54"/>
<text text-anchor="middle" x="507.95" y="-306.3" font-family="Times,serif" font-size="14.00">#11 GetField : char_field : char</text>
</g>
<!-- node6&#45;&gt;node11 -->
<g id="edge13" class="edge">
<title>node6&#45;&gt;node11</title>
<path fill="none" stroke="black" d="M2089.67,-380.96C1902.05,-377.04 1245.04,-361.6 703.95,-328 683.21,-326.71 661.25,-325.07 639.82,-323.33"/>
<polygon fill="black" stroke="black" points="639.95,-319.83 629.69,-322.49 639.37,-326.8 639.95,-319.83"/>
<text text-anchor="middle" x="648.45" y="-311.86" font-family="Times,serif" font-size="14.00">*0</text>
</g>
<!-- node10 -->
<g id="node9" class="node">
<title>node10</title>
<polygon fill="orange" stroke="black" points="1067.01,-302.54 1067.01,-317.46 963.3,-328 816.61,-328 712.89,-317.46 712.89,-302.54 816.61,-292 963.3,-292 1067.01,-302.54"/>
<text text-anchor="middle" x="889.95" y="-306.3" font-family="Times,serif" font-size="14.00">#10 GetField : short_field : short</text>
</g>
<!-- node6&#45;&gt;node10 -->
<g id="edge15" class="edge">
<title>node6&#45;&gt;node10</title>
<path fill="none" stroke="black" d="M2089.85,-379.9C1936.9,-373.61 1475.91,-353.75 1093.95,-328 1072.89,-326.58 1050.62,-324.9 1028.83,-323.17"/>
<polygon fill="black" stroke="black" points="1029.11,-319.68 1018.86,-322.36 1028.55,-326.66 1029.11,-319.68"/>
<text text-anchor="middle" x="1037.61" y="-311.69" font-family="Times,serif" font-size="14.00">*0</text>
</g>
<!-- node9 -->
<g id="node10" class="node">
<title>node9</title>
<polygon fill="orange" stroke="black" points="1495,-302.54 1495,-317.46 1380.16,-328 1217.75,-328 1102.91,-317.46 1102.91,-302.54 1217.75,-292 1380.16,-292 1495,-302.54"/>
<text text-anchor="middle" x="1298.95" y="-306.3" font-family="Times,serif" font-size="14.00">#9 GetField : boolean_field : boolean</text>
</g>
<!-- node6&#45;&gt;node9 -->
<g id="edge17" class="edge">
<title>node6&#45;&gt;node9</title>
<path fill="none" stroke="black" d="M2089.86,-377.61C1964.13,-367.02 1640.33,-339.75 1448.27,-323.58"/>
<polygon fill="black" stroke="black" points="1448.35,-320.07 1438.09,-322.72 1447.76,-327.05 1448.35,-320.07"/>
<text text-anchor="middle" x="1456.86" y="-312.12" font-family="Times,serif" font-size="14.00">*0</text>
</g>
<!-- node6&#45;&gt;node8 -->
<g id="edge19" class="edge">
<title>node6&#45;&gt;node8</title>
<path fill="none" stroke="black" d="M2093.05,-374.27C2021.67,-362.98 1887.32,-341.73 1794.11,-327"/>
<polygon fill="black" stroke="black" points="1794.51,-323.52 1784.09,-325.41 1793.42,-330.43 1794.51,-323.52"/>
<text text-anchor="middle" x="1803.31" y="-316.19" font-family="Times,serif" font-size="14.00">*0</text>
</g>
<!-- node13 -->
<g id="node14" class="node">
<title>node13</title>
<polygon fill="orange" stroke="black" points="2210.22,-302.54 2210.22,-317.46 2111.65,-328 1972.25,-328 1873.68,-317.46 1873.68,-302.54 1972.25,-292 2111.65,-292 2210.22,-302.54"/>
<text text-anchor="middle" x="2041.95" y="-306.3" font-family="Times,serif" font-size="14.00">#13 GetField : long_field : long</text>
</g>
<!-- node6&#45;&gt;node13 -->
<g id="edge46" class="edge">
<title>node6&#45;&gt;node13</title>
<path fill="none" stroke="black" d="M2118.76,-365.53C2105.55,-356.15 2088.78,-344.25 2074.29,-333.96"/>
<polygon fill="black" stroke="black" points="2076.25,-331.05 2066.07,-328.12 2072.19,-336.76 2076.25,-331.05"/>
<text text-anchor="middle" x="2085.74" y="-328.02" font-family="Times,serif" font-size="14.00">*0</text>
</g>
<!-- node14 -->
<g id="node15" class="node">
<title>node14</title>
<polygon fill="orange" stroke="black" points="2582.63,-302.54 2582.63,-317.46 2483.82,-328 2344.09,-328 2245.28,-317.46 2245.28,-302.54 2344.09,-292 2483.82,-292 2582.63,-302.54"/>
<text text-anchor="middle" x="2413.95" y="-306.3" font-family="Times,serif" font-size="14.00">#14 GetField : float_field : float</text>
</g>
<!-- node6&#45;&gt;node14 -->
<g id="edge44" class="edge">
<title>node6&#45;&gt;node14</title>
<path fill="none" stroke="black" d="M2182.38,-371.45C2223.52,-360.71 2288.24,-343.81 2338.82,-330.61"/>
<polygon fill="black" stroke="black" points="2339.94,-333.94 2348.74,-328.02 2338.18,-327.16 2339.94,-333.94"/>
<text text-anchor="middle" x="2333.33" y="-337.08" font-family="Times,serif" font-size="14.00">*0</text>
</g>
<!-- node15 -->
<g id="node16" class="node">
<title>node15</title>
<polygon fill="orange" stroke="black" points="3002.06,-302.54 3002.06,-317.46 2889.53,-328 2730.38,-328 2617.85,-317.46 2617.85,-302.54 2730.38,-292 2889.53,-292 3002.06,-302.54"/>
<text text-anchor="middle" x="2809.95" y="-306.3" font-family="Times,serif" font-size="14.00">#15 GetField : double_field : double</text>
</g>
<!-- node6&#45;&gt;node15 -->
<g id="edge42" class="edge">
<title>node6&#45;&gt;node15</title>
<path fill="none" stroke="black" d="M2194.09,-376.46C2297.05,-365.52 2529.28,-340.83 2677.31,-325.1"/>
<polygon fill="black" stroke="black" points="2677.8,-328.57 2687.38,-324.03 2677.06,-321.6 2677.8,-328.57"/>
<text text-anchor="middle" x="2670.25" y="-330.65" font-family="Times,serif" font-size="14.00">*0</text>
</g>
<!-- node16 -->
<g id="node17" class="node">
<title>node16</title>
<polygon fill="orange" stroke="black" points="3410.31,-302.54 3410.31,-317.46 3301.14,-328 3146.77,-328 3037.6,-317.46 3037.6,-302.54 3146.77,-292 3301.14,-292 3410.31,-302.54"/>
<text text-anchor="middle" x="3223.95" y="-306.3" font-family="Times,serif" font-size="14.00">#16 GetField : string_field : String</text>
</g>
<!-- node6&#45;&gt;node16 -->
<g id="edge40" class="edge">
<title>node6&#45;&gt;node16</title>
<path fill="none" stroke="black" d="M2194.38,-379.06C2329.65,-371.42 2701.48,-349.96 3010.95,-328 3032.37,-326.48 3055,-324.78 3077.18,-323.05"/>
<polygon fill="black" stroke="black" points="3077.64,-326.53 3087.34,-322.26 3077.1,-319.55 3077.64,-326.53"/>
<text text-anchor="middle" x="3069.93" y="-328.4" font-family="Times,serif" font-size="14.00">*0</text>
</g>
<!-- node17 -->
<g id="node18" class="node">
<title>node17</title>
<polygon fill="orange" stroke="black" points="3790.17,-302.54 3790.17,-317.46 3689.29,-328 3546.62,-328 3445.74,-317.46 3445.74,-302.54 3546.62,-292 3689.29,-292 3790.17,-302.54"/>
<text text-anchor="middle" x="3617.95" y="-306.3" font-family="Times,serif" font-size="14.00">#17 GetField : array_field : int[]</text>
</g>
<!-- node6&#45;&gt;node17 -->
<g id="edge38" class="edge">
<title>node6&#45;&gt;node17</title>
<path fill="none" stroke="black" d="M2194.3,-380.59C2368.42,-375.74 2943.95,-358.32 3418.95,-328 3439.79,-326.67 3461.83,-325.03 3483.37,-323.29"/>
<polygon fill="black" stroke="black" points="3483.87,-326.76 3493.55,-322.46 3483.3,-319.78 3483.87,-326.76"/>
<text text-anchor="middle" x="3476.17" y="-328.66" font-family="Times,serif" font-size="14.00">*0</text>
</g>
<!-- node20 -->
<g id="node12" class="node">
<title>node20</title>
<polygon fill="lightgrey" stroke="black" points="2680.45,-109 1867.45,-109 1867.45,-73 2680.45,-73 2680.45,-109"/>
<text text-anchor="middle" x="2273.95" y="-87.3" font-family="Times,serif" font-size="14.00">#20 Invoke static simple_method_return_short : (byte,boolean,short,char,int,long,float,double,String,int[])short</text>
</g>
<!-- node12&#45;&gt;node20 -->
<g id="edge26" class="edge">
<title>node12&#45;&gt;node20</title>
<path fill="none" stroke="black" d="M244.53,-295.44C456.96,-264.74 995.99,-189.25 1448.95,-146 1608.36,-130.78 1785.51,-118.57 1934.66,-109.64"/>
<polygon fill="black" stroke="black" points="1935.12,-113.12 1944.9,-109.03 1934.71,-106.13 1935.12,-113.12"/>
<text text-anchor="middle" x="1927.31" y="-114.84" font-family="Times,serif" font-size="14.00">*5</text>
</g>
<!-- node12&#45;&gt;node13 -->
<g id="edge47" class="edge">
<title>node12&#45;&gt;node13</title>
<path fill="none" stroke="green" d="M222.52,-327.11C257.34,-334.7 300.1,-342.74 338.95,-346.5 506.73,-362.72 1688.19,-362.81 1855.95,-346.5 1890.09,-343.18 1927.26,-336.52 1959.33,-329.78"/>
<polygon fill="green" stroke="green" points="1960.07,-333.2 1969.11,-327.69 1958.6,-326.36 1960.07,-333.2"/>
</g>
<!-- node11&#45;&gt;node12 -->
<g id="edge12" class="edge">
<title>node11&#45;&gt;node12</title>
<path fill="none" stroke="green" d="M338.96,-310C330.64,-310 322.33,-310 314.02,-310"/>
<polygon fill="green" stroke="green" points="313.88,-306.5 303.88,-310 313.88,-313.5 313.88,-306.5"/>
</g>
<!-- node11&#45;&gt;node20 -->
<g id="edge25" class="edge">
<title>node11&#45;&gt;node20</title>
<path fill="none" stroke="black" d="M605.88,-294.96C814.02,-265.36 1315.92,-195.21 1737.95,-146 1851.46,-132.77 1978.71,-119.86 2080.74,-109.99"/>
<polygon fill="black" stroke="black" points="2081.23,-113.46 2090.84,-109.01 2080.55,-106.49 2081.23,-113.46"/>
<text text-anchor="middle" x="2073.61" y="-115.47" font-family="Times,serif" font-size="14.00">*4</text>
</g>
<!-- node10&#45;&gt;node11 -->
<g id="edge14" class="edge">
<title>node10&#45;&gt;node11</title>
<path fill="none" stroke="green" d="M712.72,-310C704.15,-310 695.58,-310 687.01,-310"/>
<polygon fill="green" stroke="green" points="686.94,-306.5 676.94,-310 686.94,-313.5 686.94,-306.5"/>
</g>
<!-- node10&#45;&gt;node20 -->
<g id="edge24" class="edge">
<title>node10&#45;&gt;node20</title>
<path fill="none" stroke="black" d="M997.63,-295.45C1045.54,-289.23 1102.61,-281.57 1153.95,-274 1525.76,-219.16 1965.42,-144.98 2165.31,-110.74"/>
<polygon fill="black" stroke="black" points="2165.96,-114.18 2175.22,-109.04 2164.78,-107.28 2165.96,-114.18"/>
<text text-anchor="middle" x="2158.79" y="-116.73" font-family="Times,serif" font-size="14.00">*3</text>
</g>
<!-- node9&#45;&gt;node10 -->
<g id="edge16" class="edge">
<title>node9&#45;&gt;node10</title>
<path fill="none" stroke="green" d="M1102.59,-310C1094.22,-310 1085.86,-310 1077.5,-310"/>
<polygon fill="green" stroke="green" points="1077.29,-306.5 1067.29,-310 1077.29,-313.5 1077.29,-306.5"/>
</g>
<!-- node9&#45;&gt;node20 -->
<g id="edge23" class="edge">
<title>node9&#45;&gt;node20</title>
<path fill="none" stroke="black" d="M1444.94,-297.89C1499.23,-292.46 1561.18,-284.72 1616.95,-274 1732.38,-251.81 2064.15,-154.51 2207.1,-111.99"/>
<polygon fill="black" stroke="black" points="2208.48,-115.24 2217.06,-109.03 2206.48,-108.53 2208.48,-115.24"/>
<text text-anchor="middle" x="2202.1" y="-118.6" font-family="Times,serif" font-size="14.00">*2</text>
</g>
<!-- node8&#45;&gt;node9 -->
<g id="edge18" class="edge">
<title>node8&#45;&gt;node9</title>
<path fill="none" stroke="green" d="M1530.34,-310C1522.01,-310 1513.68,-310 1505.35,-310"/>
<polygon fill="green" stroke="green" points="1505.18,-306.5 1495.18,-310 1505.18,-313.5 1505.18,-306.5"/>
</g>
<!-- node8&#45;&gt;node20 -->
<g id="edge22" class="edge">
<title>node8&#45;&gt;node20</title>
<path fill="none" stroke="black" d="M1784.24,-294.59C1811.19,-289.28 1840.54,-282.45 1866.95,-274 2006.13,-229.5 2161.36,-151.66 2233.29,-113.85"/>
<polygon fill="black" stroke="black" points="2235.25,-116.77 2242.46,-109.01 2231.99,-110.58 2235.25,-116.77"/>
<text text-anchor="middle" x="2230.38" y="-121.25" font-family="Times,serif" font-size="14.00">*1</text>
</g>
<!-- node21 -->
<g id="node21" class="node">
<title>node21</title>
<polygon fill="lightgrey" stroke="black" points="2360.45,-36 2187.45,-36 2187.45,0 2360.45,0 2360.45,-36"/>
<text text-anchor="middle" x="2273.95" y="-14.3" font-family="Times,serif" font-size="14.00">#21 ReturnValue : int</text>
</g>
<!-- node20&#45;&gt;node21 -->
<g id="edge49" class="edge">
<title>node20&#45;&gt;node21</title>
<path fill="none" stroke="black" d="M2262.2,-72.81C2260.52,-64.79 2260.05,-55.05 2260.8,-46.07"/>
<polygon fill="black" stroke="black" points="2264.28,-46.42 2262.23,-36.03 2257.35,-45.43 2264.28,-46.42"/>
<text text-anchor="middle" x="2268.04" y="-51.47" font-family="Times,serif" font-size="14.00">*0</text>
</g>
<!-- node20&#45;&gt;node21 -->
<g id="edge50" class="edge">
<title>node20&#45;&gt;node21</title>
<path fill="none" stroke="red" d="M2273.95,-72.81C2273.95,-64.79 2273.95,-55.05 2273.95,-46.07"/>
<polygon fill="red" stroke="red" points="2277.45,-46.03 2273.95,-36.03 2270.45,-46.03 2277.45,-46.03"/>
</g>
<!-- node20&#45;&gt;node21 -->
<g id="edge51" class="edge">
<title>node20&#45;&gt;node21</title>
<path fill="none" stroke="green" d="M2285.71,-72.81C2287.39,-64.79 2287.86,-55.05 2287.11,-46.07"/>
<polygon fill="green" stroke="green" points="2290.56,-45.43 2285.68,-36.03 2283.63,-46.42 2290.56,-45.43"/>
</g>
<!-- node19 -->
<g id="node13" class="node">
<title>node19</title>
<polygon fill="lightgrey" stroke="black" points="3542.95,-182 3428.95,-182 3428.95,-146 3542.95,-146 3542.95,-182"/>
<text text-anchor="middle" x="3485.95" y="-160.3" font-family="Times,serif" font-size="14.00">#19 ClassInit</text>
</g>
<!-- node19&#45;&gt;node20 -->
<g id="edge21" class="edge">
<title>node19&#45;&gt;node20</title>
<path fill="none" stroke="black" d="M3428.78,-159.99C3276.22,-151.49 2852.43,-126.78 2562.91,-109.62"/>
<polygon fill="black" stroke="black" points="2562.86,-106.11 2552.67,-109.01 2562.44,-113.1 2562.86,-106.11"/>
<text text-anchor="middle" x="2571.26" y="-97.95" font-family="Times,serif" font-size="14.00">*0</text>
</g>
<!-- node19&#45;&gt;node20 -->
<g id="edge32" class="edge">
<title>node19&#45;&gt;node20</title>
<path fill="none" stroke="green" d="M3428.72,-159.65C3278.3,-150.84 2863.54,-126.54 2574.43,-109.6"/>
<polygon fill="green" stroke="green" points="2574.39,-106.09 2564.2,-109 2573.98,-113.08 2574.39,-106.09"/>
</g>
<!-- node19&#45;&gt;node20 -->
<g id="edge33" class="edge">
<title>node19&#45;&gt;node20</title>
<path fill="none" stroke="red" d="M3428.95,-159.28C3280.57,-150.18 2874.82,-126.31 2586.21,-109.6"/>
<polygon fill="red" stroke="red" points="2586.18,-106.09 2576,-109.01 2585.78,-113.08 2586.18,-106.09"/>
</g>
<!-- node13&#45;&gt;node20 -->
<g id="edge27" class="edge">
<title>node13&#45;&gt;node20</title>
<path fill="none" stroke="black" d="M2060.16,-291.97C2101.14,-253.64 2200.74,-160.48 2248.11,-116.18"/>
<polygon fill="black" stroke="black" points="2250.6,-118.64 2255.51,-109.25 2245.82,-113.52 2250.6,-118.64"/>
<text text-anchor="middle" x="2248.05" y="-124.1" font-family="Times,serif" font-size="14.00">*6</text>
</g>
<!-- node13&#45;&gt;node14 -->
<g id="edge45" class="edge">
<title>node13&#45;&gt;node14</title>
<path fill="none" stroke="green" d="M2210.15,-310C2218.45,-310 2226.76,-310 2235.06,-310"/>
<polygon fill="green" stroke="green" points="2235.18,-313.5 2245.18,-310 2235.18,-306.5 2235.18,-313.5"/>
</g>
<!-- node14&#45;&gt;node20 -->
<g id="edge28" class="edge">
<title>node14&#45;&gt;node20</title>
<path fill="none" stroke="black" d="M2402.97,-291.97C2378.55,-254.12 2319.62,-162.77 2290.63,-117.84"/>
<polygon fill="black" stroke="black" points="2293.44,-115.75 2285.08,-109.25 2287.56,-119.55 2293.44,-115.75"/>
<text text-anchor="middle" x="2302.01" y="-116.2" font-family="Times,serif" font-size="14.00">*7</text>
</g>
<!-- node14&#45;&gt;node15 -->
<g id="edge43" class="edge">
<title>node14&#45;&gt;node15</title>
<path fill="none" stroke="green" d="M2582.95,-310C2591.06,-310 2599.16,-310 2607.27,-310"/>
<polygon fill="green" stroke="green" points="2607.53,-313.5 2617.53,-310 2607.53,-306.5 2607.53,-313.5"/>
</g>
<!-- node15&#45;&gt;node20 -->
<g id="edge29" class="edge">
<title>node15&#45;&gt;node20</title>
<path fill="none" stroke="black" d="M2760.16,-291.99C2744.36,-286.44 2726.86,-280.12 2710.95,-274 2568.33,-219.14 2402.35,-147.95 2322.18,-113.1"/>
<polygon fill="black" stroke="black" points="2323.4,-109.82 2312.84,-109.04 2320.61,-116.24 2323.4,-109.82"/>
<text text-anchor="middle" x="2332.83" y="-104.82" font-family="Times,serif" font-size="14.00">*8</text>
</g>
<!-- node15&#45;&gt;node16 -->
<g id="edge41" class="edge">
<title>node15&#45;&gt;node16</title>
<path fill="none" stroke="green" d="M3002.4,-310C3010.71,-310 3019.01,-310 3027.32,-310"/>
<polygon fill="green" stroke="green" points="3027.45,-313.5 3037.45,-310 3027.45,-306.5 3027.45,-313.5"/>
</g>
<!-- node16&#45;&gt;node20 -->
<g id="edge30" class="edge">
<title>node16&#45;&gt;node20</title>
<path fill="none" stroke="black" d="M3086.5,-297.78C2975.95,-288.63 2836.93,-276.78 2823.95,-274 2654.63,-237.73 2620.78,-199.09 2455.95,-146 2419.12,-134.14 2377.79,-121.8 2343.84,-111.91"/>
<polygon fill="black" stroke="black" points="2344.59,-108.49 2334.01,-109.06 2342.64,-115.21 2344.59,-108.49"/>
<text text-anchor="middle" x="2353.77" y="-102.3" font-family="Times,serif" font-size="14.00">*9</text>
</g>
<!-- node16&#45;&gt;node17 -->
<g id="edge39" class="edge">
<title>node16&#45;&gt;node17</title>
<path fill="none" stroke="green" d="M3410.57,-310C3418.82,-310 3427.08,-310 3435.33,-310"/>
<polygon fill="green" stroke="green" points="3435.4,-313.5 3445.4,-310 3435.4,-306.5 3435.4,-313.5"/>
</g>
<!-- node17&#45;&gt;node20 -->
<g id="edge31" class="edge">
<title>node17&#45;&gt;node20</title>
<path fill="none" stroke="black" d="M3525.84,-294.13C3287.61,-255.66 2651.49,-152.96 2389.34,-110.63"/>
<polygon fill="black" stroke="black" points="2389.84,-107.17 2379.41,-109.03 2388.73,-114.08 2389.84,-107.17"/>
<text text-anchor="middle" x="2398.66" y="-99.87" font-family="Times,serif" font-size="14.00">*10</text>
</g>
<!-- node17&#45;&gt;node19 -->
<g id="edge35" class="edge">
<title>node17&#45;&gt;node19</title>
<path fill="none" stroke="green" d="M3625.26,-291.76C3632.25,-272.32 3639.74,-240.6 3624.95,-219 3608.61,-195.12 3580.04,-181.8 3553.04,-174.37"/>
<polygon fill="green" stroke="green" points="3553.74,-170.93 3543.19,-171.89 3552.03,-177.72 3553.74,-170.93"/>
</g>
<!-- node3&#45;&gt;node19 -->
<g id="edge34" class="edge">
<title>node3&#45;&gt;node19</title>
<path fill="none" stroke="black" d="M4085.95,-510.78C4085.95,-496.41 4085.95,-475.37 4085.95,-457 4085.95,-457 4085.95,-457 4085.95,-236 4085.95,-182.9 3710.63,-169.38 3553.68,-166.05"/>
<polygon fill="black" stroke="black" points="3553.28,-162.54 3543.21,-165.84 3553.14,-169.54 3553.28,-162.54"/>
<text text-anchor="middle" x="3561.51" y="-154.06" font-family="Times,serif" font-size="14.00">*0</text>
</g>
<!-- node18&#45;&gt;node19 -->
<g id="edge36" class="edge">
<title>node18&#45;&gt;node19</title>
<path fill="none" stroke="red" d="M3535.98,-218.81C3527.79,-210 3517.68,-199.13 3508.69,-189.46"/>
<polygon fill="red" stroke="red" points="3511.16,-186.97 3501.78,-182.03 3506.03,-191.74 3511.16,-186.97"/>
</g>
<!-- c0 -->
<!-- c1 -->
<!-- c0&#45;&gt;c1 -->
<g id="edge52" class="edge">
<title>c0&#45;&gt;c1</title>
<path fill="none" stroke="red" d="M4990.85,-611C5002.06,-611 5060.2,-611 5085.81,-611"/>
<polygon fill="red" stroke="red" points="5086.01,-614.5 5096.01,-611 5086.01,-607.5 5086.01,-614.5"/>
<text text-anchor="middle" x="5043.45" y="-617.8" font-family="Times,serif" font-size="14.00">Control flow</text>
</g>
<!-- c2 -->
<!-- c3 -->
<!-- c2&#45;&gt;c3 -->
<g id="edge53" class="edge">
<title>c2&#45;&gt;c3</title>
<path fill="none" stroke="red" stroke-dasharray="5,2" d="M4784.03,-611C4801,-611 4917.16,-611 4955.04,-611"/>
<polygon fill="red" stroke="red" points="4955.12,-614.5 4965.12,-611 4955.12,-607.5 4955.12,-614.5"/>
<text text-anchor="middle" x="4874.45" y="-617.8" font-family="Times,serif" font-size="14.00">Control flow back edge</text>
</g>
<!-- d0 -->
<!-- d1 -->
<!-- d0&#45;&gt;d1 -->
<g id="edge54" class="edge">
<title>d0&#45;&gt;d1</title>
<path fill="none" stroke="black" d="M4672.81,-611C4682.36,-611 4726.26,-611 4747.87,-611"/>
<polygon fill="black" stroke="black" points="4748.11,-614.5 4758.11,-611 4748.11,-607.5 4748.11,-614.5"/>
<text text-anchor="middle" x="4715.45" y="-617.8" font-family="Times,serif" font-size="14.00">Data flow</text>
</g>
<!-- d2 -->
<!-- d3 -->
<!-- d2&#45;&gt;d3 -->
<g id="edge55" class="edge">
<title>d2&#45;&gt;d3</title>
<path fill="none" stroke="black" stroke-dasharray="1,5" d="M4546.76,-611C4557.41,-611 4612.42,-611 4637.03,-611"/>
<polygon fill="black" stroke="black" points="4637.1,-614.5 4647.1,-611 4637.1,-607.5 4637.1,-614.5"/>
<text text-anchor="middle" x="4596.95" y="-617.8" font-family="Times,serif" font-size="14.00">Declaration</text>
</g>
<!-- d4 -->
<!-- d5 -->
<!-- d4&#45;&gt;d5 -->
<g id="edge56" class="edge">
<title>d4&#45;&gt;d5</title>
<path fill="none" stroke="blue" d="M4404.05,-611C4416.68,-611 4482.84,-611 4510.63,-611"/>
<polygon fill="blue" stroke="blue" points="4510.8,-614.5 4520.8,-611 4510.8,-607.5 4510.8,-614.5"/>
<text text-anchor="middle" x="4462.45" y="-617.8" font-family="Times,serif" font-size="14.00">PHI Data flow</text>
</g>
<!-- d6 -->
<!-- d7 -->
<!-- d6&#45;&gt;d7 -->
<g id="edge57" class="edge">
<title>d6&#45;&gt;d7</title>
<path fill="none" stroke="green" d="M4266.95,-611C4278.89,-611 4341.25,-611 4367.88,-611"/>
<polygon fill="green" stroke="green" points="4367.9,-614.5 4377.9,-611 4367.9,-607.5 4367.9,-614.5"/>
<text text-anchor="middle" x="4322.45" y="-617.8" font-family="Times,serif" font-size="14.00">Memory flow</text>
</g>
</g>
</svg>
