<?xml version="1.0" encoding="UTF-8" standalone="no"?>
<!DOCTYPE svg PUBLIC "-//W3C//DTD SVG 1.1//EN"
 "http://www.w3.org/Graphics/SVG/1.1/DTD/svg11.dtd">
<!-- Generated by graphviz version 2.43.0 (0)
 -->
<!-- Title: %3 Pages: 1 -->
<svg width="5124pt" height="662pt"
 viewBox="0.00 0.00 5124.05 662.00" xmlns="http://www.w3.org/2000/svg" xmlns:xlink="http://www.w3.org/1999/xlink">
<g id="graph0" class="graph" transform="scale(1 1) rotate(0) translate(4 658)">
<title>%3</title>
<polygon fill="white" stroke="transparent" points="-4,4 -4,-658 5120.05,-658 5120.05,4 -4,4"/>
<g id="clust1" class="cluster">
<title>cluster_0</title>
<polygon fill="none" stroke="lightgray" points="3521.05,-503 3521.05,-646 4247.05,-646 4247.05,-503 3521.05,-503"/>
</g>
<g id="clust2" class="cluster">
<title>cluster_000</title>
<polygon fill="none" stroke="black" points="4255.05,-601.2 4255.05,-643.8 5108.05,-643.8 5108.05,-601.2 4255.05,-601.2"/>
<text text-anchor="middle" x="4681.55" y="-628.6" font-family="Times,serif" font-size="14.00">Legend</text>
</g>
<!-- node0 -->
<g id="node1" class="node">
<title>node0</title>
<polygon fill="lightgrey" stroke="transparent" points="3814.55,-638 3629.55,-638 3629.55,-584 3814.55,-584 3814.55,-638"/>
<polygon fill="none" stroke="black" points="3630.05,-611 3630.05,-638 3815.05,-638 3815.05,-611 3630.05,-611"/>
<text text-anchor="start" x="3682.05" y="-620.8" font-family="Times,serif" font-size="14.00">#0 Method</text>
<polygon fill="yellow" stroke="transparent" points="3630.05,-584 3630.05,-611 3815.05,-611 3815.05,-584 3630.05,-584"/>
<polygon fill="none" stroke="black" points="3630.05,-584 3630.05,-611 3815.05,-611 3815.05,-584 3630.05,-584"/>
<text text-anchor="start" x="3636.05" y="-593.8" font-family="Times,serif" font-size="14.00">this : MethodInvokeTest</text>
</g>
<!-- node4 -->
<g id="node2" class="node">
<title>node4</title>
<polygon fill="lightgreen" stroke="black" points="3915.47,-521.54 3915.47,-536.46 3802.17,-547 3641.94,-547 3528.63,-536.46 3528.63,-521.54 3641.94,-511 3802.17,-511 3915.47,-521.54"/>
<text text-anchor="middle" x="3722.05" y="-525.3" font-family="Times,serif" font-size="14.00">#4 Class MethodInvokeTest$Source</text>
</g>
<!-- node0&#45;&gt;node4 -->
<g id="edge1" class="edge">
<title>node0&#45;&gt;node4</title>
<path fill="none" stroke="black" stroke-dasharray="1,5" d="M3722.05,-583.81C3722.05,-575.35 3722.05,-565.95 3722.05,-557.4"/>
<polygon fill="black" stroke="black" points="3725.55,-557.17 3722.05,-547.17 3718.55,-557.17 3725.55,-557.17"/>
</g>
<!-- node5 -->
<g id="node3" class="node">
<title>node5</title>
<polygon fill="lightgrey" stroke="black" points="3506.55,-474 3401.55,-474 3401.55,-438 3506.55,-438 3506.55,-474"/>
<text text-anchor="middle" x="3454.05" y="-452.3" font-family="Times,serif" font-size="14.00">#5 ClassInit</text>
</g>
<!-- node0&#45;&gt;node5 -->
<g id="edge4" class="edge">
<title>node0&#45;&gt;node5</title>
<path fill="none" stroke="green" d="M3629.44,-594.17C3592.96,-584.74 3552.19,-569.95 3520.05,-547 3507.61,-538.11 3485.42,-505.97 3470.24,-482.63"/>
<polygon fill="green" stroke="green" points="3473.15,-480.69 3464.79,-474.18 3467.27,-484.48 3473.15,-480.69"/>
</g>
<!-- node2 -->
<g id="node4" class="node">
<title>node2</title>
<polygon fill="lightgrey" stroke="black" points="3472.55,-547 3353.55,-547 3353.55,-511 3472.55,-511 3472.55,-547"/>
<text text-anchor="middle" x="3413.05" y="-525.3" font-family="Times,serif" font-size="14.00">#2 LabelNode</text>
</g>
<!-- node0&#45;&gt;node2 -->
<g id="edge5" class="edge">
<title>node0&#45;&gt;node2</title>
<path fill="none" stroke="red" d="M3629.48,-602.31C3581.09,-596.18 3521.58,-585.28 3471.05,-566 3462.03,-562.56 3452.87,-557.66 3444.58,-552.57"/>
<polygon fill="red" stroke="red" points="3446.27,-549.5 3435.97,-547.05 3442.49,-555.4 3446.27,-549.5"/>
</g>
<!-- node3 -->
<g id="node19" class="node">
<title>node3</title>
<polygon fill="lightgreen" stroke="black" points="4238.87,-521.54 4238.87,-536.46 4149.35,-547 4022.76,-547 3933.24,-536.46 3933.24,-521.54 4022.76,-511 4149.35,-511 4238.87,-521.54"/>
<text text-anchor="middle" x="4086.05" y="-525.3" font-family="Times,serif" font-size="14.00">#3 Class MethodInvokeTest</text>
</g>
<!-- node0&#45;&gt;node3 -->
<g id="edge48" class="edge">
<title>node0&#45;&gt;node3</title>
<path fill="none" stroke="black" stroke-dasharray="1,5" d="M3814.85,-589.61C3873.07,-576.81 3947.47,-560.46 4003.61,-548.12"/>
<polygon fill="black" stroke="black" points="4004.5,-551.51 4013.52,-545.94 4003,-544.67 4004.5,-551.51"/>
</g>
<!-- node4&#45;&gt;node5 -->
<g id="edge2" class="edge">
<title>node4&#45;&gt;node5</title>
<path fill="none" stroke="black" d="M3657.86,-510.99C3615.14,-499.68 3559.28,-484.88 3516.85,-473.64"/>
<polygon fill="black" stroke="black" points="3517.48,-470.18 3506.92,-471.01 3515.69,-476.95 3517.48,-470.18"/>
<text text-anchor="middle" x="3526.61" y="-463.78" font-family="Times,serif" font-size="14.00">*0</text>
</g>
<!-- node7 -->
<g id="node5" class="node">
<title>node7</title>
<polygon fill="lightgrey" stroke="black" points="4058.05,-328 3808.05,-328 3808.05,-292 4058.05,-292 4058.05,-328"/>
<text text-anchor="middle" x="3933.05" y="-306.3" font-family="Times,serif" font-size="14.00">#7 Invoke special &lt;init&gt; : ()void</text>
</g>
<!-- node5&#45;&gt;node7 -->
<g id="edge7" class="edge">
<title>node5&#45;&gt;node7</title>
<path fill="none" stroke="red" d="M3506.69,-439.18C3594.44,-412.8 3770.49,-359.87 3866.64,-330.96"/>
<polygon fill="red" stroke="red" points="3867.69,-334.3 3876.26,-328.07 3865.68,-327.6 3867.69,-334.3"/>
</g>
<!-- node6 -->
<g id="node6" class="node">
<title>node6</title>
<polygon fill="orange" stroke="black" points="2215.17,-375.54 2215.17,-390.46 2184.64,-401 2141.47,-401 2110.94,-390.46 2110.94,-375.54 2141.47,-365 2184.64,-365 2215.17,-375.54"/>
<text text-anchor="middle" x="2163.05" y="-379.3" font-family="Times,serif" font-size="14.00">#6 New</text>
</g>
<!-- node5&#45;&gt;node6 -->
<g id="edge9" class="edge">
<title>node5&#45;&gt;node6</title>
<path fill="none" stroke="black" d="M3401.42,-452.26C3195.82,-441.23 2447.82,-400.1 2225.64,-387.62"/>
<polygon fill="black" stroke="black" points="2225.65,-384.11 2215.46,-387.04 2225.25,-391.1 2225.65,-384.11"/>
<text text-anchor="middle" x="2234.04" y="-375.92" font-family="Times,serif" font-size="14.00">*0</text>
</g>
<!-- node5&#45;&gt;node6 -->
<g id="edge10" class="edge">
<title>node5&#45;&gt;node6</title>
<path fill="none" stroke="green" d="M3401.53,-451.95C3195.98,-440.37 2447.06,-399.18 2225.29,-387.26"/>
<polygon fill="green" stroke="green" points="2225.3,-383.75 2215.13,-386.71 2224.93,-390.74 2225.3,-383.75"/>
</g>
<!-- node2&#45;&gt;node5 -->
<g id="edge3" class="edge">
<title>node2&#45;&gt;node5</title>
<path fill="none" stroke="red" d="M3422.98,-510.81C3427.81,-502.44 3433.73,-492.2 3439.1,-482.9"/>
<polygon fill="red" stroke="red" points="3442.25,-484.44 3444.22,-474.03 3436.19,-480.94 3442.25,-484.44"/>
</g>
<!-- node8 -->
<g id="node14" class="node">
<title>node8</title>
<polygon fill="orange" stroke="black" points="3019.57,-302.54 3019.57,-317.46 2924.37,-328 2789.74,-328 2694.54,-317.46 2694.54,-302.54 2789.74,-292 2924.37,-292 3019.57,-302.54"/>
<text text-anchor="middle" x="2857.05" y="-306.3" font-family="Times,serif" font-size="14.00">#8 GetField : byte_field : byte</text>
</g>
<!-- node7&#45;&gt;node8 -->
<g id="edge26" class="edge">
<title>node7&#45;&gt;node8</title>
<path fill="none" stroke="green" d="M3875.93,-328.07C3850.01,-335.36 3818.78,-342.89 3790.05,-346.5 3624.25,-367.33 3204.34,-363.1 3038.05,-346.5 3004.95,-343.2 2968.95,-336.57 2937.83,-329.87"/>
<polygon fill="green" stroke="green" points="2938.43,-326.41 2927.91,-327.69 2936.93,-333.25 2938.43,-326.41"/>
</g>
<!-- node18 -->
<g id="node20" class="node">
<title>node18</title>
<polygon fill="lightgrey" stroke="black" points="3613.05,-255 3485.05,-255 3485.05,-219 3613.05,-219 3613.05,-255"/>
<text text-anchor="middle" x="3549.05" y="-233.3" font-family="Times,serif" font-size="14.00">#18 LabelNode</text>
</g>
<!-- node7&#45;&gt;node18 -->
<g id="edge43" class="edge">
<title>node7&#45;&gt;node18</title>
<path fill="none" stroke="red" d="M3841.08,-291.99C3774.45,-279.67 3685.53,-263.23 3623.38,-251.74"/>
<polygon fill="red" stroke="red" points="3623.73,-248.25 3613.26,-249.87 3622.45,-255.13 3623.73,-248.25"/>
</g>
<!-- node6&#45;&gt;node7 -->
<g id="edge6" class="edge">
<title>node6&#45;&gt;node7</title>
<path fill="none" stroke="black" d="M2215.18,-382.04C2417.77,-381.8 3171.43,-377.34 3790.05,-328 3792.61,-327.8 3795.19,-327.58 3797.8,-327.35"/>
<polygon fill="black" stroke="black" points="3798.29,-330.82 3807.92,-326.41 3797.64,-323.85 3798.29,-330.82"/>
<text text-anchor="middle" x="3790.66" y="-332.8" font-family="Times,serif" font-size="14.00">*0</text>
</g>
<!-- node6&#45;&gt;node7 -->
<g id="edge8" class="edge">
<title>node6&#45;&gt;node7</title>
<path fill="none" stroke="green" d="M2215.23,-382.05C2418.26,-381.89 3174.52,-377.92 3798.31,-328.77"/>
<polygon fill="green" stroke="green" points="3798.71,-332.25 3808.4,-327.97 3798.16,-325.27 3798.71,-332.25"/>
</g>
<!-- node15 -->
<g id="node7" class="node">
<title>node15</title>
<polygon fill="orange" stroke="black" points="384.16,-302.54 384.16,-317.46 271.63,-328 112.48,-328 -0.05,-317.46 -0.05,-302.54 112.48,-292 271.63,-292 384.16,-302.54"/>
<text text-anchor="middle" x="192.05" y="-306.3" font-family="Times,serif" font-size="14.00">#15 GetField : double_field : double</text>
</g>
<!-- node6&#45;&gt;node15 -->
<g id="edge11" class="edge">
<title>node6&#45;&gt;node15</title>
<path fill="none" stroke="black" d="M2110.67,-381.29C1898.36,-378.2 1081.21,-364.49 410.05,-328 387.08,-326.75 362.78,-325.14 339.05,-323.41"/>
<polygon fill="black" stroke="black" points="339.15,-319.91 328.92,-322.66 338.64,-326.89 339.15,-319.91"/>
<text text-anchor="middle" x="347.62" y="-311.87" font-family="Times,serif" font-size="14.00">*0</text>
</g>
<!-- node14 -->
<g id="node8" class="node">
<title>node14</title>
<polygon fill="orange" stroke="black" points="756.73,-302.54 756.73,-317.46 657.92,-328 518.19,-328 419.38,-317.46 419.38,-302.54 518.19,-292 657.92,-292 756.73,-302.54"/>
<text text-anchor="middle" x="588.05" y="-306.3" font-family="Times,serif" font-size="14.00">#14 GetField : float_field : float</text>
</g>
<!-- node6&#45;&gt;node14 -->
<g id="edge13" class="edge">
<title>node6&#45;&gt;node14</title>
<path fill="none" stroke="black" d="M2110.68,-380.85C1927.74,-376.66 1300.22,-360.64 783.05,-328 762.56,-326.71 740.87,-325.08 719.7,-323.34"/>
<polygon fill="black" stroke="black" points="719.95,-319.85 709.69,-322.51 719.37,-326.82 719.95,-319.85"/>
<text text-anchor="middle" x="728.45" y="-311.89" font-family="Times,serif" font-size="14.00">*0</text>
</g>
<!-- node13 -->
<g id="node9" class="node">
<title>node13</title>
<polygon fill="orange" stroke="black" points="1128.32,-302.54 1128.32,-317.46 1029.75,-328 890.35,-328 791.78,-317.46 791.78,-302.54 890.35,-292 1029.75,-292 1128.32,-302.54"/>
<text text-anchor="middle" x="960.05" y="-306.3" font-family="Times,serif" font-size="14.00">#13 GetField : long_field : long</text>
</g>
<!-- node6&#45;&gt;node13 -->
<g id="edge15" class="edge">
<title>node6&#45;&gt;node13</title>
<path fill="none" stroke="black" d="M2110.81,-379.82C1961.59,-373.45 1520.64,-353.72 1155.05,-328 1135.03,-326.59 1113.86,-324.93 1093.14,-323.2"/>
<polygon fill="black" stroke="black" points="1093.27,-319.7 1083.01,-322.35 1092.68,-326.67 1093.27,-319.7"/>
<text text-anchor="middle" x="1101.78" y="-311.74" font-family="Times,serif" font-size="14.00">*0</text>
</g>
<!-- node12 -->
<g id="node10" class="node">
<title>node12</title>
<polygon fill="orange" stroke="black" points="1467.96,-302.54 1467.96,-317.46 1378.98,-328 1253.13,-328 1164.14,-317.46 1164.14,-302.54 1253.13,-292 1378.98,-292 1467.96,-302.54"/>
<text text-anchor="middle" x="1316.05" y="-306.3" font-family="Times,serif" font-size="14.00">#12 GetField : int_field : int</text>
</g>
<!-- node6&#45;&gt;node12 -->
<g id="edge17" class="edge">
<title>node6&#45;&gt;node12</title>
<path fill="none" stroke="black" d="M2110.98,-378.06C1998.39,-369.48 1723.88,-348.25 1494.05,-328 1476.44,-326.45 1457.86,-324.75 1439.6,-323.04"/>
<polygon fill="black" stroke="black" points="1439.79,-319.54 1429.5,-322.09 1439.13,-326.51 1439.79,-319.54"/>
<text text-anchor="middle" x="1448.34" y="-311.67" font-family="Times,serif" font-size="14.00">*0</text>
</g>
<!-- node11 -->
<g id="node11" class="node">
<title>node11</title>
<polygon fill="orange" stroke="black" points="1840.73,-302.54 1840.73,-317.46 1741.92,-328 1602.19,-328 1503.38,-317.46 1503.38,-302.54 1602.19,-292 1741.92,-292 1840.73,-302.54"/>
<text text-anchor="middle" x="1672.05" y="-306.3" font-family="Times,serif" font-size="14.00">#11 GetField : char_field : char</text>
</g>
<!-- node6&#45;&gt;node11 -->
<g id="edge19" class="edge">
<title>node6&#45;&gt;node11</title>
<path fill="none" stroke="black" d="M2112.82,-374.74C2034.88,-363.47 1883.05,-341.51 1779.6,-326.55"/>
<polygon fill="black" stroke="black" points="1779.83,-323.05 1769.44,-325.08 1778.83,-329.98 1779.83,-323.05"/>
<text text-anchor="middle" x="1788.58" y="-315.61" font-family="Times,serif" font-size="14.00">*0</text>
</g>
<!-- node10 -->
<g id="node12" class="node">
<title>node10</title>
<polygon fill="orange" stroke="black" points="2231.11,-302.54 2231.11,-317.46 2127.39,-328 1980.71,-328 1876.99,-317.46 1876.99,-302.54 1980.71,-292 2127.39,-292 2231.11,-302.54"/>
<text text-anchor="middle" x="2054.05" y="-306.3" font-family="Times,serif" font-size="14.00">#10 GetField : short_field : short</text>
</g>
<!-- node6&#45;&gt;node10 -->
<g id="edge21" class="edge">
<title>node6&#45;&gt;node10</title>
<path fill="none" stroke="black" d="M2138.32,-365.89C2123.69,-356.36 2104.94,-344.15 2088.84,-333.66"/>
<polygon fill="black" stroke="black" points="2090.5,-330.56 2080.21,-328.04 2086.68,-336.43 2090.5,-330.56"/>
<text text-anchor="middle" x="2100.01" y="-327.15" font-family="Times,serif" font-size="14.00">*0</text>
</g>
<!-- node9 -->
<g id="node13" class="node">
<title>node9</title>
<polygon fill="orange" stroke="black" points="2659.1,-302.54 2659.1,-317.46 2544.26,-328 2381.85,-328 2267,-317.46 2267,-302.54 2381.85,-292 2544.26,-292 2659.1,-302.54"/>
<text text-anchor="middle" x="2463.05" y="-306.3" font-family="Times,serif" font-size="14.00">#9 GetField : boolean_field : boolean</text>
</g>
<!-- node6&#45;&gt;node9 -->
<g id="edge23" class="edge">
<title>node6&#45;&gt;node9</title>
<path fill="none" stroke="black" d="M2205.08,-372.05C2250.49,-361.31 2323.98,-343.91 2380.93,-330.43"/>
<polygon fill="black" stroke="black" points="2382.08,-333.76 2391,-328.05 2380.47,-326.95 2382.08,-333.76"/>
<text text-anchor="middle" x="2375.31" y="-336.75" font-family="Times,serif" font-size="14.00">*0</text>
</g>
<!-- node6&#45;&gt;node8 -->
<g id="edge25" class="edge">
<title>node6&#45;&gt;node8</title>
<path fill="none" stroke="black" d="M2215.22,-376.66C2324.1,-365.52 2578.2,-339.53 2732.01,-323.79"/>
<polygon fill="black" stroke="black" points="2732.41,-327.27 2742,-322.77 2731.69,-320.31 2732.41,-327.27"/>
<text text-anchor="middle" x="2724.83" y="-329.32" font-family="Times,serif" font-size="14.00">*0</text>
</g>
<!-- node16 -->
<g id="node17" class="node">
<title>node16</title>
<polygon fill="orange" stroke="black" points="3410.4,-302.54 3410.4,-317.46 3301.24,-328 3146.86,-328 3037.7,-317.46 3037.7,-302.54 3146.86,-292 3301.24,-292 3410.4,-302.54"/>
<text text-anchor="middle" x="3224.05" y="-306.3" font-family="Times,serif" font-size="14.00">#16 GetField : string_field : String</text>
</g>
<!-- node6&#45;&gt;node16 -->
<g id="edge46" class="edge">
<title>node6&#45;&gt;node16</title>
<path fill="none" stroke="black" d="M2215.31,-379.19C2350.13,-371.85 2720.73,-351.05 3029.05,-328 3046.57,-326.69 3064.96,-325.22 3083.15,-323.7"/>
<polygon fill="black" stroke="black" points="3083.57,-327.18 3093.24,-322.85 3082.98,-320.2 3083.57,-327.18"/>
<text text-anchor="middle" x="3075.88" y="-329.09" font-family="Times,serif" font-size="14.00">*0</text>
</g>
<!-- node17 -->
<g id="node18" class="node">
<title>node17</title>
<polygon fill="orange" stroke="black" points="3790.26,-302.54 3790.26,-317.46 3689.39,-328 3546.72,-328 3445.84,-317.46 3445.84,-302.54 3546.72,-292 3689.39,-292 3790.26,-302.54"/>
<text text-anchor="middle" x="3618.05" y="-306.3" font-family="Times,serif" font-size="14.00">#17 GetField : array_field : int[]</text>
</g>
<!-- node6&#45;&gt;node17 -->
<g id="edge44" class="edge">
<title>node6&#45;&gt;node17</title>
<path fill="none" stroke="black" d="M2215.14,-380.55C2387.11,-375.59 2952.4,-357.95 3419.05,-328 3439.81,-326.67 3461.78,-325.03 3483.23,-323.29"/>
<polygon fill="black" stroke="black" points="3483.7,-326.77 3493.38,-322.46 3483.13,-319.79 3483.7,-326.77"/>
<text text-anchor="middle" x="3476" y="-328.66" font-family="Times,serif" font-size="14.00">*0</text>
</g>
<!-- node20 -->
<g id="node15" class="node">
<title>node20</title>
<polygon fill="lightgrey" stroke="black" points="2715.55,-109 1902.55,-109 1902.55,-73 2715.55,-73 2715.55,-109"/>
<text text-anchor="middle" x="2309.05" y="-87.3" font-family="Times,serif" font-size="14.00">#20 Invoke static simple_method_return_short : (byte,boolean,short,char,int,long,float,double,String,int[])short</text>
</g>
<!-- node15&#45;&gt;node20 -->
<g id="edge35" class="edge">
<title>node15&#45;&gt;node20</title>
<path fill="none" stroke="black" d="M292.55,-293.94C507.43,-262.23 1027.67,-188.04 1466.05,-146 1626.78,-130.59 1805.17,-118.44 1956.31,-109.61"/>
<polygon fill="black" stroke="black" points="1956.91,-113.08 1966.69,-109 1956.5,-106.09 1956.91,-113.08"/>
<text text-anchor="middle" x="1949.08" y="-114.79" font-family="Times,serif" font-size="14.00">*8</text>
</g>
<!-- node15&#45;&gt;node16 -->
<g id="edge47" class="edge">
<title>node15&#45;&gt;node16</title>
<path fill="none" stroke="green" d="M279.24,-327.36C321.3,-334.87 372.6,-342.79 419.05,-346.5 707.14,-369.51 2732.19,-372.05 3020.05,-346.5 3057.4,-343.19 3098.15,-336.52 3133.34,-329.78"/>
<polygon fill="green" stroke="green" points="3134.44,-333.13 3143.59,-327.79 3133.1,-326.26 3134.44,-333.13"/>
</g>
<!-- node14&#45;&gt;node15 -->
<g id="edge12" class="edge">
<title>node14&#45;&gt;node15</title>
<path fill="none" stroke="green" d="M419.28,-310C410.98,-310 402.68,-310 394.38,-310"/>
<polygon fill="green" stroke="green" points="394.25,-306.5 384.25,-310 394.25,-313.5 394.25,-306.5"/>
</g>
<!-- node14&#45;&gt;node20 -->
<g id="edge34" class="edge">
<title>node14&#45;&gt;node20</title>
<path fill="none" stroke="black" d="M681.88,-294.5C879.61,-264.25 1353.77,-193.3 1753.05,-146 1868.63,-132.31 1998.02,-119.59 2102.89,-109.94"/>
<polygon fill="black" stroke="black" points="2103.32,-113.41 2112.96,-109.01 2102.68,-106.44 2103.32,-113.41"/>
<text text-anchor="middle" x="2095.68" y="-115.38" font-family="Times,serif" font-size="14.00">*7</text>
</g>
<!-- node13&#45;&gt;node14 -->
<g id="edge14" class="edge">
<title>node13&#45;&gt;node14</title>
<path fill="none" stroke="green" d="M791.88,-310C783.61,-310 775.34,-310 767.07,-310"/>
<polygon fill="green" stroke="green" points="766.98,-306.5 756.98,-310 766.98,-313.5 766.98,-306.5"/>
</g>
<!-- node13&#45;&gt;node20 -->
<g id="edge33" class="edge">
<title>node13&#45;&gt;node20</title>
<path fill="none" stroke="black" d="M1053.53,-294.51C1093.71,-288.25 1141.2,-280.81 1184.05,-274 1553.71,-215.22 1991.39,-143.92 2194.69,-110.71"/>
<polygon fill="black" stroke="black" points="2195.47,-114.13 2204.78,-109.06 2194.35,-107.22 2195.47,-114.13"/>
<text text-anchor="middle" x="2188.25" y="-116.63" font-family="Times,serif" font-size="14.00">*6</text>
</g>
<!-- node12&#45;&gt;node13 -->
<g id="edge16" class="edge">
<title>node12&#45;&gt;node13</title>
<path fill="none" stroke="green" d="M1163.89,-310C1155.36,-310 1146.84,-310 1138.32,-310"/>
<polygon fill="green" stroke="green" points="1138.32,-306.5 1128.32,-310 1138.32,-313.5 1138.32,-306.5"/>
</g>
<!-- node12&#45;&gt;node20 -->
<g id="edge32" class="edge">
<title>node12&#45;&gt;node20</title>
<path fill="none" stroke="black" d="M1428.12,-297.77C1513.34,-289.09 1619.38,-277.91 1640.05,-274 1852.79,-233.8 1901.14,-202.79 2110.05,-146 2151.91,-134.62 2198.73,-121.92 2236.43,-111.69"/>
<polygon fill="black" stroke="black" points="2237.58,-115.01 2246.31,-109.01 2235.74,-108.25 2237.58,-115.01"/>
<text text-anchor="middle" x="2231.03" y="-118.21" font-family="Times,serif" font-size="14.00">*5</text>
</g>
<!-- node11&#45;&gt;node12 -->
<g id="edge18" class="edge">
<title>node11&#45;&gt;node12</title>
<path fill="none" stroke="green" d="M1503.05,-310C1494.74,-310 1486.43,-310 1478.12,-310"/>
<polygon fill="green" stroke="green" points="1477.98,-306.5 1467.98,-310 1477.98,-313.5 1477.98,-306.5"/>
</g>
<!-- node11&#45;&gt;node20 -->
<g id="edge31" class="edge">
<title>node11&#45;&gt;node20</title>
<path fill="none" stroke="black" d="M1782.59,-296.33C1816.5,-291.02 1853.66,-283.76 1887.05,-274 1962.3,-252.01 2170.67,-156.55 2263.46,-113.36"/>
<polygon fill="black" stroke="black" points="2265.01,-116.5 2272.6,-109.1 2262.06,-110.15 2265.01,-116.5"/>
<text text-anchor="middle" x="2259.74" y="-120.72" font-family="Times,serif" font-size="14.00">*4</text>
</g>
<!-- node10&#45;&gt;node11 -->
<g id="edge20" class="edge">
<title>node10&#45;&gt;node11</title>
<path fill="none" stroke="green" d="M1876.82,-310C1868.25,-310 1859.68,-310 1851.11,-310"/>
<polygon fill="green" stroke="green" points="1851.04,-306.5 1841.04,-310 1851.04,-313.5 1851.04,-306.5"/>
</g>
<!-- node10&#45;&gt;node20 -->
<g id="edge30" class="edge">
<title>node10&#45;&gt;node20</title>
<path fill="none" stroke="black" d="M2074.06,-291.97C2119.2,-253.56 2229.04,-160.09 2280.97,-115.9"/>
<polygon fill="black" stroke="black" points="2283.44,-118.4 2288.78,-109.25 2278.9,-113.06 2283.44,-118.4"/>
<text text-anchor="middle" x="2280.46" y="-123.73" font-family="Times,serif" font-size="14.00">*3</text>
</g>
<!-- node9&#45;&gt;node10 -->
<g id="edge22" class="edge">
<title>node9&#45;&gt;node10</title>
<path fill="none" stroke="green" d="M2266.69,-310C2258.32,-310 2249.96,-310 2241.59,-310"/>
<polygon fill="green" stroke="green" points="2241.39,-306.5 2231.39,-310 2241.39,-313.5 2241.39,-306.5"/>
</g>
<!-- node9&#45;&gt;node20 -->
<g id="edge29" class="edge">
<title>node9&#45;&gt;node20</title>
<path fill="none" stroke="black" d="M2450.97,-291.97C2424.05,-254.04 2359.01,-162.39 2327.19,-117.56"/>
<polygon fill="black" stroke="black" points="2329.94,-115.38 2321.29,-109.25 2324.23,-119.43 2329.94,-115.38"/>
<text text-anchor="middle" x="2338.68" y="-115.44" font-family="Times,serif" font-size="14.00">*2</text>
</g>
<!-- node8&#45;&gt;node9 -->
<g id="edge24" class="edge">
<title>node8&#45;&gt;node9</title>
<path fill="none" stroke="green" d="M2694.43,-310C2686.1,-310 2677.77,-310 2669.44,-310"/>
<polygon fill="green" stroke="green" points="2669.28,-306.5 2659.28,-310 2669.28,-313.5 2669.28,-306.5"/>
</g>
<!-- node8&#45;&gt;node20 -->
<g id="edge28" class="edge">
<title>node8&#45;&gt;node20</title>
<path fill="none" stroke="black" d="M2794.24,-291.99C2775.98,-286.66 2756.1,-280.46 2738.05,-274 2595.61,-223.03 2432.35,-149.41 2354.7,-113.43"/>
<polygon fill="black" stroke="black" points="2355.76,-110.06 2345.22,-109.02 2352.81,-116.41 2355.76,-110.06"/>
<text text-anchor="middle" x="2365.22" y="-105.29" font-family="Times,serif" font-size="14.00">*1</text>
</g>
<!-- node21 -->
<g id="node21" class="node">
<title>node21</title>
<polygon fill="lightgrey" stroke="black" points="2395.55,-36 2222.55,-36 2222.55,0 2395.55,0 2395.55,-36"/>
<text text-anchor="middle" x="2309.05" y="-14.3" font-family="Times,serif" font-size="14.00">#21 ReturnValue : int</text>
</g>
<!-- node20&#45;&gt;node21 -->
<g id="edge49" class="edge">
<title>node20&#45;&gt;node21</title>
<path fill="none" stroke="black" d="M2297.3,-72.81C2295.62,-64.79 2295.15,-55.05 2295.9,-46.07"/>
<polygon fill="black" stroke="black" points="2299.38,-46.42 2297.33,-36.03 2292.45,-45.43 2299.38,-46.42"/>
<text text-anchor="middle" x="2303.14" y="-51.47" font-family="Times,serif" font-size="14.00">*0</text>
</g>
<!-- node20&#45;&gt;node21 -->
<g id="edge50" class="edge">
<title>node20&#45;&gt;node21</title>
<path fill="none" stroke="red" d="M2309.05,-72.81C2309.05,-64.79 2309.05,-55.05 2309.05,-46.07"/>
<polygon fill="red" stroke="red" points="2312.55,-46.03 2309.05,-36.03 2305.55,-46.03 2312.55,-46.03"/>
</g>
<!-- node20&#45;&gt;node21 -->
<g id="edge51" class="edge">
<title>node20&#45;&gt;node21</title>
<path fill="none" stroke="green" d="M2320.81,-72.81C2322.49,-64.79 2322.96,-55.05 2322.21,-46.07"/>
<polygon fill="green" stroke="green" points="2325.65,-45.43 2320.78,-36.03 2318.72,-46.42 2325.65,-45.43"/>
</g>
<!-- node19 -->
<g id="node16" class="node">
<title>node19</title>
<polygon fill="lightgrey" stroke="black" points="3542.05,-182 3428.05,-182 3428.05,-146 3542.05,-146 3542.05,-182"/>
<text text-anchor="middle" x="3485.05" y="-160.3" font-family="Times,serif" font-size="14.00">#19 ClassInit</text>
</g>
<!-- node19&#45;&gt;node20 -->
<g id="edge27" class="edge">
<title>node19&#45;&gt;node20</title>
<path fill="none" stroke="black" d="M3427.82,-159.9C3278.29,-151.32 2869.16,-126.74 2589.35,-109.64"/>
<polygon fill="black" stroke="black" points="2589.23,-106.12 2579.03,-109.01 2588.8,-113.11 2589.23,-106.12"/>
<text text-anchor="middle" x="2597.64" y="-97.98" font-family="Times,serif" font-size="14.00">*0</text>
</g>
<!-- node19&#45;&gt;node20 -->
<g id="edge38" class="edge">
<title>node19&#45;&gt;node20</title>
<path fill="none" stroke="green" d="M3427.94,-159.55C3280.78,-150.67 2880.67,-126.51 2601.18,-109.64"/>
<polygon fill="green" stroke="green" points="2601.07,-106.12 2590.88,-109.01 2600.65,-113.11 2601.07,-106.12"/>
</g>
<!-- node19&#45;&gt;node20 -->
<g id="edge39" class="edge">
<title>node19&#45;&gt;node20</title>
<path fill="none" stroke="red" d="M3427.95,-159.16C3282.64,-149.97 2891.5,-126.25 2612.66,-109.61"/>
<polygon fill="red" stroke="red" points="2612.56,-106.1 2602.37,-109 2612.15,-113.09 2612.56,-106.1"/>
</g>
<!-- node16&#45;&gt;node20 -->
<g id="edge36" class="edge">
<title>node16&#45;&gt;node20</title>
<path fill="none" stroke="black" d="M3092.36,-297.22C2985.4,-287.59 2851.23,-275.35 2845.05,-274 2677.94,-237.41 2644.4,-199.94 2482.05,-146 2447.01,-134.36 2407.74,-122.04 2375.48,-112.11"/>
<polygon fill="black" stroke="black" points="2376.3,-108.7 2365.71,-109.11 2374.24,-115.39 2376.3,-108.7"/>
<text text-anchor="middle" x="2385.52" y="-102.65" font-family="Times,serif" font-size="14.00">*9</text>
</g>
<!-- node16&#45;&gt;node17 -->
<g id="edge45" class="edge">
<title>node16&#45;&gt;node17</title>
<path fill="none" stroke="green" d="M3410.66,-310C3418.92,-310 3427.18,-310 3435.43,-310"/>
<polygon fill="green" stroke="green" points="3435.5,-313.5 3445.5,-310 3435.5,-306.5 3435.5,-313.5"/>
</g>
<!-- node17&#45;&gt;node20 -->
<g id="edge37" class="edge">
<title>node17&#45;&gt;node20</title>
<path fill="none" stroke="black" d="M3527.56,-294C3295.14,-255.47 2677.55,-153.09 2422.1,-110.74"/>
<polygon fill="black" stroke="black" points="2422.5,-107.26 2412.06,-109.08 2421.35,-114.16 2422.5,-107.26"/>
<text text-anchor="middle" x="2431.32" y="-100" font-family="Times,serif" font-size="14.00">*10</text>
</g>
<!-- node17&#45;&gt;node19 -->
<g id="edge41" class="edge">
<title>node17&#45;&gt;node19</title>
<path fill="none" stroke="green" d="M3624.5,-291.76C3630.57,-272.31 3636.75,-240.59 3622.05,-219 3606.17,-195.67 3578.51,-182.42 3552.18,-174.89"/>
<polygon fill="green" stroke="green" points="3552.74,-171.42 3542.18,-172.28 3550.97,-178.19 3552.74,-171.42"/>
</g>
<!-- node3&#45;&gt;node19 -->
<g id="edge40" class="edge">
<title>node3&#45;&gt;node19</title>
<path fill="none" stroke="black" d="M4086.05,-510.78C4086.05,-496.41 4086.05,-475.37 4086.05,-457 4086.05,-457 4086.05,-457 4086.05,-236 4086.05,-182.73 3708.9,-169.3 3552.14,-166.02"/>
<polygon fill="black" stroke="black" points="3552.2,-162.52 3542.14,-165.82 3552.06,-169.52 3552.2,-162.52"/>
<text text-anchor="middle" x="3560.43" y="-154.04" font-family="Times,serif" font-size="14.00">*0</text>
</g>
<!-- node18&#45;&gt;node19 -->
<g id="edge42" class="edge">
<title>node18&#45;&gt;node19</title>
<path fill="none" stroke="red" d="M3533.56,-218.81C3525.62,-210 3515.81,-199.13 3507.1,-189.46"/>
<polygon fill="red" stroke="red" points="3509.7,-187.11 3500.4,-182.03 3504.5,-191.8 3509.7,-187.11"/>
</g>
<!-- c0 -->
<!-- c1 -->
<!-- c0&#45;&gt;c1 -->
<g id="edge52" class="edge">
<title>c0&#45;&gt;c1</title>
<path fill="none" stroke="red" d="M4990.95,-611C5002.16,-611 5060.3,-611 5085.91,-611"/>
<polygon fill="red" stroke="red" points="5086.11,-614.5 5096.11,-611 5086.11,-607.5 5086.11,-614.5"/>
<text text-anchor="middle" x="5043.55" y="-617.8" font-family="Times,serif" font-size="14.00">Control flow</text>
</g>
<!-- c2 -->
<!-- c3 -->
<!-- c2&#45;&gt;c3 -->
<g id="edge53" class="edge">
<title>c2&#45;&gt;c3</title>
<path fill="none" stroke="red" stroke-dasharray="5,2" d="M4784.13,-611C4801.1,-611 4917.26,-611 4955.14,-611"/>
<polygon fill="red" stroke="red" points="4955.22,-614.5 4965.22,-611 4955.22,-607.5 4955.22,-614.5"/>
<text text-anchor="middle" x="4874.55" y="-617.8" font-family="Times,serif" font-size="14.00">Control flow back edge</text>
</g>
<!-- d0 -->
<!-- d1 -->
<!-- d0&#45;&gt;d1 -->
<g id="edge54" class="edge">
<title>d0&#45;&gt;d1</title>
<path fill="none" stroke="black" d="M4672.91,-611C4682.46,-611 4726.36,-611 4747.97,-611"/>
<polygon fill="black" stroke="black" points="4748.2,-614.5 4758.2,-611 4748.2,-607.5 4748.2,-614.5"/>
<text text-anchor="middle" x="4715.55" y="-617.8" font-family="Times,serif" font-size="14.00">Data flow</text>
</g>
<!-- d2 -->
<!-- d3 -->
<!-- d2&#45;&gt;d3 -->
<g id="edge55" class="edge">
<title>d2&#45;&gt;d3</title>
<path fill="none" stroke="black" stroke-dasharray="1,5" d="M4546.86,-611C4557.51,-611 4612.52,-611 4637.13,-611"/>
<polygon fill="black" stroke="black" points="4637.2,-614.5 4647.2,-611 4637.2,-607.5 4637.2,-614.5"/>
<text text-anchor="middle" x="4597.05" y="-617.8" font-family="Times,serif" font-size="14.00">Declaration</text>
</g>
<!-- d4 -->
<!-- d5 -->
<!-- d4&#45;&gt;d5 -->
<g id="edge56" class="edge">
<title>d4&#45;&gt;d5</title>
<path fill="none" stroke="blue" d="M4404.15,-611C4416.78,-611 4482.93,-611 4510.73,-611"/>
<polygon fill="blue" stroke="blue" points="4510.9,-614.5 4520.9,-611 4510.9,-607.5 4510.9,-614.5"/>
<text text-anchor="middle" x="4462.55" y="-617.8" font-family="Times,serif" font-size="14.00">PHI Data flow</text>
</g>
<!-- d6 -->
<!-- d7 -->
<!-- d6&#45;&gt;d7 -->
<g id="edge57" class="edge">
<title>d6&#45;&gt;d7</title>
<path fill="none" stroke="green" d="M4267.05,-611C4278.99,-611 4341.35,-611 4367.98,-611"/>
<polygon fill="green" stroke="green" points="4368,-614.5 4378,-611 4368,-607.5 4368,-614.5"/>
<text text-anchor="middle" x="4322.55" y="-617.8" font-family="Times,serif" font-size="14.00">Memory flow</text>
</g>
</g>
</svg>
