<?xml version="1.0" encoding="UTF-8" standalone="no"?>
<!DOCTYPE svg PUBLIC "-//W3C//DTD SVG 1.1//EN"
 "http://www.w3.org/Graphics/SVG/1.1/DTD/svg11.dtd">
<!-- Generated by graphviz version 2.43.0 (0)
 -->
<!-- Title: debugoutput Pages: 1 -->
<svg width="2641pt" height="1308pt"
 viewBox="0.00 0.00 2641.00 1307.80" xmlns="http://www.w3.org/2000/svg" xmlns:xlink="http://www.w3.org/1999/xlink">
<g id="graph0" class="graph" transform="scale(1 1) rotate(0) translate(4 1303.8)">
<title>debugoutput</title>
<polygon fill="white" stroke="transparent" points="-4,4 -4,-1303.8 2637,-1303.8 2637,4 -4,4"/>
<g id="clust1" class="cluster">
<title>cluster_000</title>
<polygon fill="none" stroke="black" points="1786,-1249.2 1786,-1291.8 2625,-1291.8 2625,-1249.2 1786,-1249.2"/>
<text text-anchor="middle" x="2205.5" y="-1276.6" font-family="Times,serif" font-size="14.00">Legend</text>
</g>
<!-- node0 -->
<g id="node1" class="node">
<title>node0</title>
<polygon fill="lightgrey" stroke="black" points="1776,-1277 1610,-1277 1610,-1241 1776,-1241 1776,-1277"/>
<text text-anchor="middle" x="1693" y="-1255.3" font-family="Times,serif" font-size="14.00">#0 Method Order : 0</text>
</g>
<!-- node1 -->
<g id="node2" class="node">
<title>node1</title>
<polygon fill="lightgrey" stroke="black" points="1315,-1131 1141,-1131 1141,-1095 1315,-1095 1315,-1131"/>
<text text-anchor="middle" x="1228" y="-1109.3" font-family="Times,serif" font-size="14.00">#1 ClassInit Order : 5</text>
</g>
<!-- node0&#45;&gt;node1 -->
<g id="edge4" class="edge">
<title>node0&#45;&gt;node1</title>
<path fill="none" stroke="black" d="M1609.87,-1258.13C1424.83,-1257.62 992.05,-1251.39 948,-1204 890.68,-1142.32 1028.71,-1122.87 1130.73,-1116.76"/>
<polygon fill="black" stroke="black" points="1131.01,-1120.25 1140.79,-1116.2 1130.61,-1113.26 1131.01,-1120.25"/>
</g>
<!-- node17 -->
<g id="node3" class="node">
<title>node17</title>
<polygon fill="lightgreen" stroke="black" points="1462.17,-1178.54 1462.17,-1193.46 1316.79,-1204 1111.21,-1204 965.83,-1193.46 965.83,-1178.54 1111.21,-1168 1316.79,-1168 1462.17,-1178.54"/>
<text text-anchor="middle" x="1214" y="-1182.3" font-family="Times,serif" font-size="14.00">#17 Class MethodInvokeTest$Source Order : 2</text>
</g>
<!-- node0&#45;&gt;node17 -->
<g id="edge49" class="edge">
<title>node0&#45;&gt;node17</title>
<path fill="none" stroke="black" stroke-dasharray="1,5" d="M1609.83,-1246.43C1532.8,-1235.28 1417.51,-1218.24 1331.17,-1205.25"/>
<polygon fill="black" stroke="black" points="1331.46,-1201.76 1321.05,-1203.73 1330.42,-1208.68 1331.46,-1201.76"/>
</g>
<!-- node16 -->
<g id="node4" class="node">
<title>node16</title>
<polygon fill="lightgrey" stroke="black" points="1677.5,-1204 1480.5,-1204 1480.5,-1168 1677.5,-1168 1677.5,-1204"/>
<text text-anchor="middle" x="1579" y="-1182.3" font-family="Times,serif" font-size="14.00">#16 LabelNode Order : 3</text>
</g>
<!-- node0&#45;&gt;node16 -->
<g id="edge47" class="edge">
<title>node0&#45;&gt;node16</title>
<path fill="none" stroke="red" d="M1659.83,-1240.99C1643.87,-1231.67 1624.93,-1219.97 1609.35,-1209.86"/>
<polygon fill="red" stroke="red" points="1610.89,-1206.68 1600.61,-1204.11 1607.04,-1212.53 1610.89,-1206.68"/>
</g>
<!-- node15 -->
<g id="node18" class="node">
<title>node15</title>
<polygon fill="lightgrey" stroke="black" points="1988.5,-1204 1695.5,-1204 1695.5,-1168 1988.5,-1168 1988.5,-1204"/>
<text text-anchor="middle" x="1842" y="-1182.3" font-family="Times,serif" font-size="14.00">#15 this : MethodInvokeTest Order : 4</text>
</g>
<!-- node0&#45;&gt;node15 -->
<g id="edge45" class="edge">
<title>node0&#45;&gt;node15</title>
<path fill="none" stroke="black" d="M1722.83,-1240.99C1742.37,-1231.19 1768.31,-1218.77 1791.03,-1208.31"/>
<polygon fill="black" stroke="black" points="1792.57,-1211.45 1800.22,-1204.11 1789.67,-1205.09 1792.57,-1211.45"/>
<text text-anchor="middle" x="1787.24" y="-1215.64" font-family="Times,serif" font-size="14.00">*0</text>
</g>
<!-- node18 -->
<g id="node19" class="node">
<title>node18</title>
<polygon fill="lightgreen" stroke="black" points="2460.56,-1178.54 2460.56,-1193.46 2338.97,-1204 2167.03,-1204 2045.44,-1193.46 2045.44,-1178.54 2167.03,-1168 2338.97,-1168 2460.56,-1178.54"/>
<text text-anchor="middle" x="2253" y="-1182.3" font-family="Times,serif" font-size="14.00">#18 Class MethodInvokeTest Order : 1</text>
</g>
<!-- node0&#45;&gt;node18 -->
<g id="edge51" class="edge">
<title>node0&#45;&gt;node18</title>
<path fill="none" stroke="black" stroke-dasharray="1,5" d="M1773.32,-1240.96C1883.07,-1226.58 1911.9,-1235.88 2022,-1223 2062.67,-1218.24 2107.28,-1211.34 2146.39,-1204.85"/>
<polygon fill="black" stroke="black" points="2147.45,-1208.22 2156.74,-1203.12 2146.3,-1201.32 2147.45,-1208.22"/>
</g>
<!-- node1&#45;&gt;node0 -->
<g id="edge1" class="edge">
<title>node1&#45;&gt;node0</title>
<path fill="none" stroke="green" stroke-width="2" d="M1140.74,-1116.94C1044.13,-1123.24 909.22,-1142.9 966,-1204 1008.53,-1249.76 1413.45,-1257.14 1599.92,-1258.06"/>
<polygon fill="green" stroke="green" stroke-width="2" points="1599.97,-1261.56 1609.99,-1258.1 1600,-1254.56 1599.97,-1261.56"/>
</g>
<!-- node2 -->
<g id="node5" class="node">
<title>node2</title>
<polygon fill="lightgrey" stroke="black" points="1729.5,-985 1410.5,-985 1410.5,-949 1729.5,-949 1729.5,-985"/>
<text text-anchor="middle" x="1570" y="-963.3" font-family="Times,serif" font-size="14.00">#2 Invoke special &lt;init&gt; : ()void Order : 7</text>
</g>
<!-- node1&#45;&gt;node2 -->
<g id="edge7" class="edge">
<title>node1&#45;&gt;node2</title>
<path fill="none" stroke="red" d="M1315.3,-1101.71C1344.23,-1096.5 1376.11,-1088.69 1404,-1077 1454.57,-1055.8 1505.26,-1016.56 1537.28,-991.4"/>
<polygon fill="red" stroke="red" points="1539.7,-993.94 1545.4,-985.01 1535.37,-988.44 1539.7,-993.94"/>
</g>
<!-- node4 -->
<g id="node6" class="node">
<title>node4</title>
<polygon fill="orange" stroke="black" points="1328.7,-1032.54 1328.7,-1047.46 1269.71,-1058 1186.29,-1058 1127.3,-1047.46 1127.3,-1032.54 1186.29,-1022 1269.71,-1022 1328.7,-1032.54"/>
<text text-anchor="middle" x="1228" y="-1036.3" font-family="Times,serif" font-size="14.00">#4 New Order : 6</text>
</g>
<!-- node1&#45;&gt;node4 -->
<g id="edge12" class="edge">
<title>node1&#45;&gt;node4</title>
<path fill="none" stroke="black" d="M1216.24,-1094.81C1214.56,-1086.79 1214.1,-1077.05 1214.84,-1068.07"/>
<polygon fill="black" stroke="black" points="1218.33,-1068.42 1216.28,-1058.03 1211.4,-1067.43 1218.33,-1068.42"/>
<text text-anchor="middle" x="1222.08" y="-1073.47" font-family="Times,serif" font-size="14.00">*0</text>
</g>
<!-- node1&#45;&gt;node4 -->
<g id="edge13" class="edge">
<title>node1&#45;&gt;node4</title>
<path fill="none" stroke="black" d="M1239.76,-1094.81C1241.44,-1086.79 1241.9,-1077.05 1241.16,-1068.07"/>
<polygon fill="black" stroke="black" points="1244.6,-1067.43 1239.72,-1058.03 1237.67,-1068.42 1244.6,-1067.43"/>
</g>
<!-- node17&#45;&gt;node0 -->
<g id="edge48" class="edge">
<title>node17&#45;&gt;node0</title>
<path fill="none" stroke="green" stroke-width="2" d="M1328.67,-1203.14C1411.6,-1215.23 1522.19,-1231.63 1599.72,-1243.35"/>
<polygon fill="green" stroke="green" stroke-width="2" points="1599.55,-1246.86 1609.96,-1244.89 1600.6,-1239.94 1599.55,-1246.86"/>
</g>
<!-- node17&#45;&gt;node1 -->
<g id="edge2" class="edge">
<title>node17&#45;&gt;node1</title>
<path fill="none" stroke="black" d="M1217.39,-1167.81C1218.97,-1159.79 1220.89,-1150.05 1222.66,-1141.07"/>
<polygon fill="black" stroke="black" points="1226.14,-1141.52 1224.64,-1131.03 1219.27,-1140.16 1226.14,-1141.52"/>
<text text-anchor="middle" x="1229.43" y="-1146.75" font-family="Times,serif" font-size="14.00">*0</text>
</g>
<!-- node16&#45;&gt;node0 -->
<g id="edge46" class="edge">
<title>node16&#45;&gt;node0</title>
<path fill="none" stroke="green" stroke-width="2" d="M1612.35,-1204.11C1628.34,-1213.46 1647.27,-1225.15 1662.83,-1235.26"/>
<polygon fill="green" stroke="green" stroke-width="2" points="1661.27,-1238.42 1671.55,-1240.99 1665.12,-1232.57 1661.27,-1238.42"/>
</g>
<!-- node16&#45;&gt;node1 -->
<g id="edge3" class="edge">
<title>node16&#45;&gt;node1</title>
<path fill="none" stroke="red" d="M1494.93,-1167.99C1442.9,-1157.47 1376,-1143.94 1322.19,-1133.05"/>
<polygon fill="red" stroke="red" points="1322.79,-1129.6 1312.3,-1131.05 1321.41,-1136.47 1322.79,-1129.6"/>
</g>
<!-- node2&#45;&gt;node1 -->
<g id="edge5" class="edge">
<title>node2&#45;&gt;node1</title>
<path fill="none" stroke="green" stroke-width="2" d="M1557.14,-985.01C1532.32,-1009.4 1477.08,-1053.91 1422,-1077 1391.94,-1089.6 1357.23,-1097.69 1325.52,-1102.88"/>
<polygon fill="green" stroke="green" stroke-width="2" points="1324.69,-1099.47 1315.35,-1104.47 1325.76,-1106.39 1324.69,-1099.47"/>
</g>
<!-- node3 -->
<g id="node7" class="node">
<title>node3</title>
<polygon fill="lightgrey" stroke="black" points="1664,-912 1476,-912 1476,-876 1664,-876 1664,-912"/>
<text text-anchor="middle" x="1570" y="-890.3" font-family="Times,serif" font-size="14.00">#3 LabelNode Order : 8</text>
</g>
<!-- node2&#45;&gt;node3 -->
<g id="edge10" class="edge">
<title>node2&#45;&gt;node3</title>
<path fill="none" stroke="red" d="M1564.12,-948.81C1563.28,-940.79 1563.05,-931.05 1563.42,-922.07"/>
<polygon fill="red" stroke="red" points="1566.92,-922.25 1564.14,-912.03 1559.94,-921.75 1566.92,-922.25"/>
</g>
<!-- node6 -->
<g id="node10" class="node">
<title>node6</title>
<polygon fill="orange" stroke="black" points="1202.1,-886.54 1202.1,-901.46 1078.44,-912 903.56,-912 779.9,-901.46 779.9,-886.54 903.56,-876 1078.44,-876 1202.1,-886.54"/>
<text text-anchor="middle" x="991" y="-890.3" font-family="Times,serif" font-size="14.00">#6 GetField : byte_field : byte Order : 9</text>
</g>
<!-- node2&#45;&gt;node6 -->
<g id="edge19" class="edge">
<title>node2&#45;&gt;node6</title>
<path fill="none" stroke="black" d="M1431.32,-948.99C1336.41,-937.36 1211.51,-922.04 1118.99,-910.69"/>
<polygon fill="black" stroke="black" points="1119.36,-907.21 1109,-909.47 1118.5,-914.16 1119.36,-907.21"/>
</g>
<!-- node4&#45;&gt;node1 -->
<g id="edge11" class="edge">
<title>node4&#45;&gt;node1</title>
<path fill="none" stroke="green" stroke-width="2" d="M1228,-1058.03C1228,-1066.03 1228,-1075.77 1228,-1084.75"/>
<polygon fill="green" stroke="green" stroke-width="2" points="1224.5,-1084.81 1228,-1094.81 1231.5,-1084.81 1224.5,-1084.81"/>
</g>
<!-- node4&#45;&gt;node2 -->
<g id="edge6" class="edge">
<title>node4&#45;&gt;node2</title>
<path fill="none" stroke="black" d="M1288.48,-1025.31C1339.29,-1014.45 1412.78,-999.15 1471.96,-987.09"/>
<polygon fill="black" stroke="black" points="1472.98,-990.46 1482.08,-985.03 1471.59,-983.6 1472.98,-990.46"/>
<text text-anchor="middle" x="1466.01" y="-993.23" font-family="Times,serif" font-size="14.00">*0</text>
</g>
<!-- node4&#45;&gt;node2 -->
<g id="edge8" class="edge">
<title>node4&#45;&gt;node2</title>
<path fill="none" stroke="black" d="M1294.46,-1026.31C1348.47,-1015.43 1424.99,-999.6 1483.71,-987.17"/>
<polygon fill="black" stroke="black" points="1484.66,-990.55 1493.72,-985.05 1483.21,-983.7 1484.66,-990.55"/>
</g>
<!-- node5 -->
<g id="node8" class="node">
<title>node5</title>
<polygon fill="orange" stroke="black" points="1988.79,-229.54 1988.79,-244.46 1859.46,-255 1676.54,-255 1547.21,-244.46 1547.21,-229.54 1676.54,-219 1859.46,-219 1988.79,-229.54"/>
<text text-anchor="middle" x="1768" y="-233.3" font-family="Times,serif" font-size="14.00">#5 GetField : array_field : int[] Order : 18</text>
</g>
<!-- node4&#45;&gt;node5 -->
<g id="edge15" class="edge">
<title>node4&#45;&gt;node5</title>
<path fill="none" stroke="black" d="M1328.67,-1034C1468.08,-1026.23 1706.43,-1009.54 1738,-985 1758.21,-969.29 1758,-956.59 1758,-931 1758,-931 1758,-931 1758,-638 1758,-573.46 1766,-557.54 1766,-493 1766,-493 1766,-493 1766,-309 1766,-294.65 1766.41,-278.67 1766.86,-265.51"/>
<polygon fill="black" stroke="black" points="1770.37,-265.33 1767.24,-255.21 1763.38,-265.08 1770.37,-265.33"/>
<text text-anchor="middle" x="1775.02" y="-269.94" font-family="Times,serif" font-size="14.00">*0</text>
</g>
<!-- node12 -->
<g id="node9" class="node">
<title>node12</title>
<polygon fill="orange" stroke="black" points="1687.1,-302.54 1687.1,-317.46 1545.87,-328 1346.13,-328 1204.9,-317.46 1204.9,-302.54 1346.13,-292 1545.87,-292 1687.1,-302.54"/>
<text text-anchor="middle" x="1446" y="-306.3" font-family="Times,serif" font-size="14.00">#12 GetField : string_field : String Order : 17</text>
</g>
<!-- node4&#45;&gt;node12 -->
<g id="edge36" class="edge">
<title>node4&#45;&gt;node12</title>
<path fill="none" stroke="black" d="M1274.2,-1022.61C1284.93,-1017.59 1295.87,-1011.4 1305,-1004 1333.57,-980.84 1344,-967.78 1344,-931 1344,-931 1344,-931 1344,-638 1344,-476.31 1552.5,-547.92 1620,-401 1626.68,-386.46 1629.49,-377.88 1620,-365 1608.66,-349.6 1592.97,-338.47 1575.61,-330.44"/>
<polygon fill="black" stroke="black" points="1576.98,-327.21 1566.4,-326.52 1574.23,-333.65 1576.98,-327.21"/>
<text text-anchor="middle" x="1586.39" y="-322.14" font-family="Times,serif" font-size="14.00">*0</text>
</g>
<!-- node4&#45;&gt;node6 -->
<g id="edge18" class="edge">
<title>node4&#45;&gt;node6</title>
<path fill="none" stroke="black" d="M1199.88,-1021.92C1157.03,-995.88 1075.36,-946.26 1027.83,-917.38"/>
<polygon fill="black" stroke="black" points="1029.44,-914.26 1019.08,-912.06 1025.81,-920.25 1029.44,-914.26"/>
<text text-anchor="middle" x="1038.96" y="-910.55" font-family="Times,serif" font-size="14.00">*0</text>
</g>
<!-- node7 -->
<g id="node11" class="node">
<title>node7</title>
<polygon fill="orange" stroke="black" points="980.85,-521.54 980.85,-536.46 853.82,-547 674.18,-547 547.15,-536.46 547.15,-521.54 674.18,-511 853.82,-511 980.85,-521.54"/>
<text text-anchor="middle" x="764" y="-525.3" font-family="Times,serif" font-size="14.00">#7 GetField : long_field : long Order : 14</text>
</g>
<!-- node4&#45;&gt;node7 -->
<g id="edge21" class="edge">
<title>node4&#45;&gt;node7</title>
<path fill="none" stroke="black" d="M1228.76,-1021.79C1229.32,-1007.41 1230,-986.37 1230,-968 1230,-968 1230,-968 1230,-784 1230,-632.08 1036.71,-570.49 899.1,-545.89"/>
<polygon fill="black" stroke="black" points="899.33,-542.38 888.88,-544.11 898.13,-549.28 899.33,-542.38"/>
<text text-anchor="middle" x="908.19" y="-535.19" font-family="Times,serif" font-size="14.00">*0</text>
</g>
<!-- node8 -->
<g id="node12" class="node">
<title>node8</title>
<polygon fill="orange" stroke="black" points="789.49,-594.54 789.49,-609.46 672.05,-620 505.95,-620 388.51,-609.46 388.51,-594.54 505.95,-584 672.05,-584 789.49,-594.54"/>
<text text-anchor="middle" x="589" y="-598.3" font-family="Times,serif" font-size="14.00">#8 GetField : int_field : int Order : 13</text>
</g>
<!-- node4&#45;&gt;node8 -->
<g id="edge24" class="edge">
<title>node4&#45;&gt;node8</title>
<path fill="none" stroke="black" d="M1128.26,-1032.36C1025.87,-1024.39 874.2,-1008.99 821,-985 770.75,-962.34 634,-877.13 634,-822 634,-822 634,-822 634,-674 634,-656.88 624.55,-640.54 614.31,-627.86"/>
<polygon fill="black" stroke="black" points="616.76,-625.35 607.56,-620.09 611.48,-629.94 616.76,-625.35"/>
<text text-anchor="middle" x="625.83" y="-624.54" font-family="Times,serif" font-size="14.00">*0</text>
</g>
<!-- node13 -->
<g id="node13" class="node">
<title>node13</title>
<polygon fill="orange" stroke="black" points="560.92,-667.54 560.92,-682.46 429.75,-693 244.25,-693 113.08,-682.46 113.08,-667.54 244.25,-657 429.75,-657 560.92,-667.54"/>
<text text-anchor="middle" x="337" y="-671.3" font-family="Times,serif" font-size="14.00">#13 GetField : char_field : char Order : 12</text>
</g>
<!-- node4&#45;&gt;node13 -->
<g id="edge39" class="edge">
<title>node4&#45;&gt;node13</title>
<path fill="none" stroke="black" d="M1127.37,-1035.69C996.86,-1030.77 781.94,-1020.32 749,-1004 671.41,-965.56 670.77,-928.14 620,-858 575.62,-796.68 596.1,-754.28 534,-711 522.94,-703.3 500.49,-697.05 474.57,-692.08"/>
<polygon fill="black" stroke="black" points="474.95,-688.59 464.48,-690.24 473.69,-695.47 474.95,-688.59"/>
<text text-anchor="middle" x="483.83" y="-681.48" font-family="Times,serif" font-size="14.00">*0</text>
</g>
<!-- node9 -->
<g id="node14" class="node">
<title>node9</title>
<polygon fill="orange" stroke="black" points="1164.29,-813.54 1164.29,-828.46 1017.09,-839 808.91,-839 661.71,-828.46 661.71,-813.54 808.91,-803 1017.09,-803 1164.29,-813.54"/>
<text text-anchor="middle" x="913" y="-817.3" font-family="Times,serif" font-size="14.00">#9 GetField : boolean_field : boolean Order : 10</text>
</g>
<!-- node4&#45;&gt;node9 -->
<g id="edge27" class="edge">
<title>node4&#45;&gt;node9</title>
<path fill="none" stroke="black" d="M1148.83,-1028.54C1030.53,-1011.11 816.59,-971.99 771,-912 761.32,-899.26 761.92,-889.17 771,-876 780.89,-861.66 795.12,-851.13 810.81,-843.39"/>
<polygon fill="black" stroke="black" points="812.52,-846.46 820.19,-839.15 809.63,-840.08 812.52,-846.46"/>
<text text-anchor="middle" x="807.15" y="-850.62" font-family="Times,serif" font-size="14.00">*0</text>
</g>
<!-- node10 -->
<g id="node15" class="node">
<title>node10</title>
<polygon fill="orange" stroke="black" points="492.31,-740.54 492.31,-755.46 356.22,-766 163.78,-766 27.69,-755.46 27.69,-740.54 163.78,-730 356.22,-730 492.31,-740.54"/>
<text text-anchor="middle" x="260" y="-744.3" font-family="Times,serif" font-size="14.00">#10 GetField : short_field : short Order : 11</text>
</g>
<!-- node4&#45;&gt;node10 -->
<g id="edge30" class="edge">
<title>node4&#45;&gt;node10</title>
<path fill="none" stroke="black" d="M1127.38,-1034.83C988.13,-1028.65 749.4,-1016.46 711,-1004 535.88,-947.18 525.92,-863.8 360,-784 349.06,-778.74 337.11,-773.86 325.4,-769.52"/>
<polygon fill="black" stroke="black" points="326.24,-766.11 315.65,-766.01 323.87,-772.69 326.24,-766.11"/>
<text text-anchor="middle" x="335.57" y="-760.5" font-family="Times,serif" font-size="14.00">*0</text>
</g>
<!-- node11 -->
<g id="node16" class="node">
<title>node11</title>
<polygon fill="orange" stroke="black" points="1610.85,-375.54 1610.85,-390.46 1466.25,-401 1261.75,-401 1117.15,-390.46 1117.15,-375.54 1261.75,-365 1466.25,-365 1610.85,-375.54"/>
<text text-anchor="middle" x="1364" y="-379.3" font-family="Times,serif" font-size="14.00">#11 GetField : double_field : double Order : 16</text>
</g>
<!-- node4&#45;&gt;node11 -->
<g id="edge33" class="edge">
<title>node4&#45;&gt;node11</title>
<path fill="none" stroke="black" d="M1265.63,-1021.91C1285.58,-1010.02 1306,-991.99 1306,-968 1306,-968 1306,-968 1306,-638 1306,-593.38 1340.45,-466.68 1356.25,-410.91"/>
<polygon fill="black" stroke="black" points="1359.68,-411.63 1359.05,-401.06 1352.95,-409.71 1359.68,-411.63"/>
<text text-anchor="middle" x="1362.22" y="-417.1" font-family="Times,serif" font-size="14.00">*0</text>
</g>
<!-- node14 -->
<g id="node17" class="node">
<title>node14</title>
<polygon fill="orange" stroke="black" points="1277.92,-448.54 1277.92,-463.46 1146.75,-474 961.25,-474 830.08,-463.46 830.08,-448.54 961.25,-438 1146.75,-438 1277.92,-448.54"/>
<text text-anchor="middle" x="1054" y="-452.3" font-family="Times,serif" font-size="14.00">#14 GetField : float_field : float Order : 15</text>
</g>
<!-- node4&#45;&gt;node14 -->
<g id="edge42" class="edge">
<title>node4&#45;&gt;node14</title>
<path fill="none" stroke="black" d="M1244.27,-1021.82C1255.34,-1008.29 1268,-988.37 1268,-968 1268,-968 1268,-968 1268,-528 1268,-504.05 1219.11,-486.78 1168.06,-475.26"/>
<polygon fill="black" stroke="black" points="1168.69,-471.82 1158.18,-473.11 1167.2,-478.66 1168.69,-471.82"/>
<text text-anchor="middle" x="1177.69" y="-465.01" font-family="Times,serif" font-size="14.00">*0</text>
</g>
<!-- node3&#45;&gt;node2 -->
<g id="edge9" class="edge">
<title>node3&#45;&gt;node2</title>
<path fill="none" stroke="green" stroke-width="2" d="M1575.86,-912.03C1576.71,-920.03 1576.95,-929.77 1576.59,-938.75"/>
<polygon fill="green" stroke="green" stroke-width="2" points="1573.09,-938.59 1575.88,-948.81 1580.07,-939.08 1573.09,-938.59"/>
</g>
<!-- node19 -->
<g id="node20" class="node">
<title>node19</title>
<polygon fill="lightgrey" stroke="black" points="1764,-182 1572,-182 1572,-146 1764,-146 1764,-182"/>
<text text-anchor="middle" x="1668" y="-160.3" font-family="Times,serif" font-size="14.00">#19 ClassInit Order : 19</text>
</g>
<!-- node3&#45;&gt;node19 -->
<g id="edge55" class="edge">
<title>node3&#45;&gt;node19</title>
<path fill="none" stroke="red" d="M1642.92,-875.9C1668.05,-865.33 1690,-848.51 1690,-822 1690,-822 1690,-822 1690,-492 1690,-403.07 1751.25,-361.68 1696,-292 1651.19,-235.49 1582.81,-311.51 1538,-255 1528.06,-242.46 1529.12,-232.31 1538,-219 1547.58,-204.64 1561.78,-194.1 1577.3,-186.35"/>
<polygon fill="red" stroke="red" points="1578.94,-189.45 1586.58,-182.11 1576.03,-183.09 1578.94,-189.45"/>
</g>
<!-- node5&#45;&gt;node1 -->
<g id="edge14" class="edge">
<title>node5&#45;&gt;node1</title>
<path fill="none" stroke="green" stroke-width="2" d="M1825.78,-255.02C1849.72,-265.96 1872,-283.09 1872,-309 1872,-1041 1872,-1041 1872,-1041 1872,-1095.34 1505.12,-1108.1 1325.19,-1111.09"/>
<polygon fill="green" stroke="green" stroke-width="2" points="1325.13,-1107.59 1315.19,-1111.25 1325.24,-1114.59 1325.13,-1107.59"/>
</g>
<!-- node5&#45;&gt;node19 -->
<g id="edge54" class="edge">
<title>node5&#45;&gt;node19</title>
<path fill="none" stroke="black" d="M1744.05,-218.99C1731.03,-209.75 1714.75,-198.19 1700.59,-188.14"/>
<polygon fill="black" stroke="black" points="1702.28,-185.05 1692.1,-182.11 1698.23,-190.76 1702.28,-185.05"/>
</g>
<!-- node20 -->
<g id="node21" class="node">
<title>node20</title>
<polygon fill="lightgrey" stroke="black" points="1565.5,-109 674.5,-109 674.5,-73 1565.5,-73 1565.5,-109"/>
<text text-anchor="middle" x="1120" y="-87.3" font-family="Times,serif" font-size="14.00">#20 Invoke static simple_method_return_short : (byte,boolean,short,char,int,long,float,double,String,int[])short Order : 20</text>
</g>
<!-- node5&#45;&gt;node20 -->
<g id="edge67" class="edge">
<title>node5&#45;&gt;node20</title>
<path fill="none" stroke="black" d="M1703.61,-218.99C1616.68,-196.35 1456.8,-155.81 1319,-127 1291.63,-121.28 1262.01,-115.72 1234.2,-110.79"/>
<polygon fill="black" stroke="black" points="1234.49,-107.29 1224.04,-109 1233.28,-114.18 1234.49,-107.29"/>
<text text-anchor="middle" x="1243.36" y="-100.12" font-family="Times,serif" font-size="14.00">*10</text>
</g>
<!-- node12&#45;&gt;node1 -->
<g id="edge35" class="edge">
<title>node12&#45;&gt;node1</title>
<path fill="none" stroke="green" stroke-width="2" d="M1562.94,-326.85C1581.23,-331.64 1599.51,-337.88 1616,-346 1761.29,-417.57 1834,-476.04 1834,-638 1834,-1041 1834,-1041 1834,-1041 1834,-1091.6 1496.42,-1106.22 1325.18,-1110.38"/>
<polygon fill="green" stroke="green" stroke-width="2" points="1325.06,-1106.88 1315.15,-1110.62 1325.23,-1113.88 1325.06,-1106.88"/>
</g>
<!-- node12&#45;&gt;node5 -->
<g id="edge16" class="edge">
<title>node12&#45;&gt;node5</title>
<path fill="none" stroke="black" d="M1523.13,-291.99C1570.56,-281.53 1631.47,-268.11 1680.67,-257.26"/>
<polygon fill="black" stroke="black" points="1681.65,-260.62 1690.67,-255.05 1680.15,-253.79 1681.65,-260.62"/>
</g>
<!-- node12&#45;&gt;node20 -->
<g id="edge66" class="edge">
<title>node12&#45;&gt;node20</title>
<path fill="none" stroke="black" d="M1420.42,-291.97C1362.24,-253.25 1219.98,-158.55 1154.28,-114.82"/>
<polygon fill="black" stroke="black" points="1156.18,-111.88 1145.91,-109.25 1152.3,-117.7 1156.18,-111.88"/>
<text text-anchor="middle" x="1165.69" y="-108.56" font-family="Times,serif" font-size="14.00">*9</text>
</g>
<!-- node6&#45;&gt;node1 -->
<g id="edge17" class="edge">
<title>node6&#45;&gt;node1</title>
<path fill="none" stroke="green" stroke-width="2" d="M886.98,-910.61C754.03,-934.6 550.54,-987.41 635,-1077 651.71,-1094.72 966.7,-1105.35 1130.63,-1109.7"/>
<polygon fill="green" stroke="green" stroke-width="2" points="1130.64,-1113.2 1140.72,-1109.97 1130.82,-1106.2 1130.64,-1113.2"/>
</g>
<!-- node6&#45;&gt;node9 -->
<g id="edge28" class="edge">
<title>node6&#45;&gt;node9</title>
<path fill="none" stroke="black" d="M972.12,-875.81C962.25,-866.83 950.02,-855.69 939.24,-845.89"/>
<polygon fill="black" stroke="black" points="941.46,-843.17 931.71,-839.03 936.75,-848.35 941.46,-843.17"/>
</g>
<!-- node6&#45;&gt;node20 -->
<g id="edge58" class="edge">
<title>node6&#45;&gt;node20</title>
<path fill="none" stroke="black" d="M1085.91,-876.56C1137.95,-864.74 1192,-846.56 1192,-822 1192,-822 1192,-822 1192,-638 1192,-531.95 1088.15,-551.16 990,-511 918.84,-481.88 878.6,-524.93 821,-474 801.94,-457.15 802,-445.44 802,-420 802,-420 802,-420 802,-163 802,-137.76 840.65,-121.49 891,-111"/>
<polygon fill="black" stroke="black" points="891.75,-114.42 900.87,-109.04 890.38,-107.55 891.75,-114.42"/>
<text text-anchor="middle" x="884.74" y="-117.16" font-family="Times,serif" font-size="14.00">*1</text>
</g>
<!-- node7&#45;&gt;node1 -->
<g id="edge20" class="edge">
<title>node7&#45;&gt;node1</title>
<path fill="none" stroke="green" stroke-width="2" d="M566.02,-538.07C429.47,-550.62 247.43,-581.58 104,-657 39.43,-690.95 0,-711.04 0,-784 0,-1041 0,-1041 0,-1041 0,-1097.52 840.08,-1109.12 1130.57,-1111.44"/>
<polygon fill="green" stroke="green" stroke-width="2" points="1130.64,-1114.94 1140.67,-1111.51 1130.7,-1107.94 1130.64,-1114.94"/>
</g>
<!-- node7&#45;&gt;node14 -->
<g id="edge43" class="edge">
<title>node7&#45;&gt;node14</title>
<path fill="none" stroke="black" d="M833.46,-510.99C875.91,-500.6 930.35,-487.27 974.52,-476.46"/>
<polygon fill="black" stroke="black" points="975.47,-479.83 984.35,-474.05 973.81,-473.03 975.47,-479.83"/>
</g>
<!-- node7&#45;&gt;node20 -->
<g id="edge63" class="edge">
<title>node7&#45;&gt;node20</title>
<path fill="none" stroke="black" d="M764,-510.78C764,-496.41 764,-475.37 764,-457 764,-457 764,-457 764,-163 764,-143.77 771.55,-136.95 788,-127 798.6,-120.59 814.92,-115.34 834.76,-111.05"/>
<polygon fill="black" stroke="black" points="835.66,-114.44 844.76,-109.02 834.27,-107.58 835.66,-114.44"/>
<text text-anchor="middle" x="828.68" y="-117.21" font-family="Times,serif" font-size="14.00">*6</text>
</g>
<!-- node8&#45;&gt;node1 -->
<g id="edge23" class="edge">
<title>node8&#45;&gt;node1</title>
<path fill="none" stroke="green" stroke-width="2" d="M587.58,-620.01C583.66,-668.43 573,-811.21 573,-930 573,-1041 573,-1041 573,-1041 573,-1071.34 602.08,-1067.83 631,-1077 721.25,-1105.61 985.89,-1111.22 1130.65,-1112.08"/>
<polygon fill="green" stroke="green" stroke-width="2" points="1130.85,-1115.58 1140.87,-1112.13 1130.88,-1108.58 1130.85,-1115.58"/>
</g>
<!-- node8&#45;&gt;node7 -->
<g id="edge22" class="edge">
<title>node8&#45;&gt;node7</title>
<path fill="none" stroke="black" d="M630.92,-583.99C655.41,-574.06 686.52,-561.43 712.5,-550.89"/>
<polygon fill="black" stroke="black" points="713.87,-554.12 721.82,-547.11 711.24,-547.63 713.87,-554.12"/>
</g>
<!-- node8&#45;&gt;node20 -->
<g id="edge62" class="edge">
<title>node8&#45;&gt;node20</title>
<path fill="none" stroke="black" d="M487.95,-585.54C432.54,-574.11 375,-555.98 375,-530 375,-530 375,-530 375,-163 375,-127.68 509.41,-109.56 664.05,-100.39"/>
<polygon fill="black" stroke="black" points="664.48,-103.87 674.26,-99.8 664.08,-96.88 664.48,-103.87"/>
<text text-anchor="middle" x="656.66" y="-105.58" font-family="Times,serif" font-size="14.00">*5</text>
</g>
<!-- node13&#45;&gt;node1 -->
<g id="edge38" class="edge">
<title>node13&#45;&gt;node1</title>
<path fill="none" stroke="green" stroke-width="2" d="M447.68,-691.66C468.55,-699.77 487.91,-711.91 501,-730 553.12,-802.03 497,-841.09 497,-930 497,-1041 497,-1041 497,-1041 497,-1072.86 528.46,-1067.91 559,-1077 663.1,-1107.97 971.41,-1112.38 1130.54,-1112.5"/>
<polygon fill="green" stroke="green" stroke-width="2" points="1130.8,-1116 1140.8,-1112.5 1130.8,-1109 1130.8,-1116"/>
</g>
<!-- node13&#45;&gt;node8 -->
<g id="edge25" class="edge">
<title>node13&#45;&gt;node8</title>
<path fill="none" stroke="black" d="M397.36,-656.99C433.72,-646.75 480.19,-633.66 518.27,-622.93"/>
<polygon fill="black" stroke="black" points="519.58,-626.19 528.26,-620.11 517.68,-619.46 519.58,-626.19"/>
</g>
<!-- node13&#45;&gt;node20 -->
<g id="edge61" class="edge">
<title>node13&#45;&gt;node20</title>
<path fill="none" stroke="black" d="M337,-656.78C337,-642.41 337,-621.37 337,-603 337,-603 337,-603 337,-163 337,-135.42 392.71,-133.19 432,-127 480.19,-119.41 567.52,-113.11 664.16,-108.04"/>
<polygon fill="black" stroke="black" points="664.35,-111.53 674.15,-107.52 663.98,-104.54 664.35,-111.53"/>
<text text-anchor="middle" x="656.49" y="-113.2" font-family="Times,serif" font-size="14.00">*4</text>
</g>
<!-- node9&#45;&gt;node1 -->
<g id="edge26" class="edge">
<title>node9&#45;&gt;node1</title>
<path fill="none" stroke="green" stroke-width="2" d="M804.49,-838.74C786.27,-846.84 770.03,-858.7 760,-876 731.36,-925.4 713.34,-959.41 749,-1004 795.88,-1062.62 1004.93,-1091.7 1130.86,-1104.14"/>
<polygon fill="green" stroke="green" stroke-width="2" points="1130.61,-1107.63 1140.9,-1105.11 1131.28,-1100.66 1130.61,-1107.63"/>
</g>
<!-- node9&#45;&gt;node10 -->
<g id="edge31" class="edge">
<title>node9&#45;&gt;node10</title>
<path fill="none" stroke="black" d="M777.3,-805.25C667.3,-793.29 512.8,-776.49 401.32,-764.37"/>
<polygon fill="black" stroke="black" points="401.66,-760.88 391.34,-763.28 400.91,-767.84 401.66,-760.88"/>
</g>
<!-- node9&#45;&gt;node20 -->
<g id="edge59" class="edge">
<title>node9&#45;&gt;node20</title>
<path fill="none" stroke="black" d="M944.92,-802.96C1021.57,-759.99 1214.98,-638.73 1287,-474 1293.41,-459.34 1297.1,-450.41 1287,-438 1235.7,-375.01 1169.17,-454.45 1108,-401 1088.84,-384.26 1089,-372.44 1089,-347 1089,-347 1089,-347 1089,-163 1089,-147.2 1095.53,-130.95 1102.59,-117.99"/>
<polygon fill="black" stroke="black" points="1105.72,-119.58 1107.75,-109.18 1099.67,-116.05 1105.72,-119.58"/>
<text text-anchor="middle" x="1105.88" y="-125.4" font-family="Times,serif" font-size="14.00">*2</text>
</g>
<!-- node10&#45;&gt;node1 -->
<g id="edge29" class="edge">
<title>node10&#45;&gt;node1</title>
<path fill="none" stroke="green" stroke-width="2" d="M303.25,-766.05C324.67,-777.61 346,-795.31 346,-820 346,-1041 346,-1041 346,-1041 346,-1103.96 420.77,-1067.47 483,-1077 604.96,-1095.68 958.22,-1105.94 1130.8,-1109.97"/>
<polygon fill="green" stroke="green" stroke-width="2" points="1130.82,-1113.47 1140.9,-1110.2 1130.98,-1106.47 1130.82,-1113.47"/>
</g>
<!-- node10&#45;&gt;node13 -->
<g id="edge40" class="edge">
<title>node10&#45;&gt;node13</title>
<path fill="none" stroke="black" d="M278.64,-729.81C288.38,-720.83 300.46,-709.69 311.1,-699.89"/>
<polygon fill="black" stroke="black" points="313.55,-702.38 318.53,-693.03 308.81,-697.23 313.55,-702.38"/>
</g>
<!-- node10&#45;&gt;node20 -->
<g id="edge60" class="edge">
<title>node10&#45;&gt;node20</title>
<path fill="none" stroke="black" d="M155.37,-730.61C101.51,-719.11 47,-701.24 47,-676 47,-676 47,-676 47,-163 47,-130.14 371.72,-111.94 663.89,-102.23"/>
<polygon fill="black" stroke="black" points="664.39,-105.71 674.27,-101.88 664.16,-98.71 664.39,-105.71"/>
<text text-anchor="middle" x="656.44" y="-107.23" font-family="Times,serif" font-size="14.00">*3</text>
</g>
<!-- node11&#45;&gt;node1 -->
<g id="edge32" class="edge">
<title>node11&#45;&gt;node1</title>
<path fill="none" stroke="green" stroke-width="2" d="M1475.81,-400.32C1603.81,-426.06 1796,-489.44 1796,-638 1796,-1041 1796,-1041 1796,-1041 1796,-1087.88 1487.47,-1104.22 1325.19,-1109.58"/>
<polygon fill="green" stroke="green" stroke-width="2" points="1325.08,-1106.08 1315.2,-1109.9 1325.3,-1113.08 1325.08,-1106.08"/>
</g>
<!-- node11&#45;&gt;node12 -->
<g id="edge37" class="edge">
<title>node11&#45;&gt;node12</title>
<path fill="none" stroke="black" d="M1383.85,-364.81C1394.33,-355.74 1407.34,-344.48 1418.74,-334.6"/>
<polygon fill="black" stroke="black" points="1421.06,-337.22 1426.33,-328.03 1416.48,-331.93 1421.06,-337.22"/>
</g>
<!-- node11&#45;&gt;node20 -->
<g id="edge65" class="edge">
<title>node11&#45;&gt;node20</title>
<path fill="none" stroke="black" d="M1258.31,-365.2C1205.21,-353.66 1152,-335.89 1152,-311 1152,-311 1152,-311 1152,-163 1152,-147.12 1145.26,-130.86 1137.97,-117.91"/>
<polygon fill="black" stroke="black" points="1140.82,-115.87 1132.65,-109.13 1134.83,-119.49 1140.82,-115.87"/>
<text text-anchor="middle" x="1149.27" y="-116.55" font-family="Times,serif" font-size="14.00">*8</text>
</g>
<!-- node14&#45;&gt;node1 -->
<g id="edge41" class="edge">
<title>node14&#45;&gt;node1</title>
<path fill="none" stroke="green" stroke-width="2" d="M1166.88,-472.47C1261.76,-488.75 1382,-518.54 1382,-565 1382,-931 1382,-931 1382,-931 1382,-990.74 1377.57,-1013.25 1338,-1058 1325.69,-1071.92 1308.98,-1082.62 1292.31,-1090.69"/>
<polygon fill="green" stroke="green" stroke-width="2" points="1290.72,-1087.57 1283.07,-1094.9 1293.62,-1093.94 1290.72,-1087.57"/>
</g>
<!-- node14&#45;&gt;node11 -->
<g id="edge34" class="edge">
<title>node14&#45;&gt;node11</title>
<path fill="none" stroke="black" d="M1128.25,-437.99C1173.82,-427.56 1232.31,-414.16 1279.63,-403.32"/>
<polygon fill="black" stroke="black" points="1280.58,-406.7 1289.55,-401.05 1279.02,-399.87 1280.58,-406.7"/>
</g>
<!-- node14&#45;&gt;node20 -->
<g id="edge64" class="edge">
<title>node14&#45;&gt;node20</title>
<path fill="none" stroke="black" d="M1052.87,-437.79C1052.02,-423.42 1051,-402.38 1051,-384 1051,-384 1051,-384 1051,-163 1051,-143.42 1064.66,-127.21 1079.82,-115.24"/>
<polygon fill="black" stroke="black" points="1082.31,-117.76 1088.33,-109.04 1078.19,-112.11 1082.31,-117.76"/>
<text text-anchor="middle" x="1078.67" y="-122.85" font-family="Times,serif" font-size="14.00">*7</text>
</g>
<!-- node15&#45;&gt;node0 -->
<g id="edge44" class="edge">
<title>node15&#45;&gt;node0</title>
<path fill="none" stroke="green" stroke-width="2" d="M1811.96,-1204.11C1792.37,-1213.94 1766.42,-1226.36 1743.72,-1236.8"/>
<polygon fill="green" stroke="green" stroke-width="2" points="1742.19,-1233.65 1734.55,-1240.99 1745.1,-1240.02 1742.19,-1233.65"/>
</g>
<!-- node18&#45;&gt;node0 -->
<g id="edge50" class="edge">
<title>node18&#45;&gt;node0</title>
<path fill="none" stroke="green" stroke-width="2" d="M2167.85,-1204.04C2129.01,-1210.76 2082.37,-1218.04 2040,-1223 1929.8,-1235.89 1901.01,-1226.57 1791,-1241 1789.49,-1241.2 1787.96,-1241.41 1786.43,-1241.62"/>
<polygon fill="green" stroke="green" stroke-width="2" points="1785.55,-1238.21 1776.18,-1243.16 1786.59,-1245.14 1785.55,-1238.21"/>
</g>
<!-- node18&#45;&gt;node19 -->
<g id="edge53" class="edge">
<title>node18&#45;&gt;node19</title>
<path fill="none" stroke="black" d="M2199.44,-1167.94C2176.12,-1156.85 2154,-1139.59 2154,-1114 2154,-1114 2154,-1114 2154,-236 2154,-197.9 1917.16,-178.4 1774.15,-170.09"/>
<polygon fill="black" stroke="black" points="1774.2,-166.59 1764.02,-169.51 1773.8,-173.58 1774.2,-166.59"/>
<text text-anchor="middle" x="1782.6" y="-158.41" font-family="Times,serif" font-size="14.00">*0</text>
</g>
<!-- node19&#45;&gt;node0 -->
<g id="edge52" class="edge">
<title>node19&#45;&gt;node0</title>
<path fill="none" stroke="green" stroke-width="2" d="M1764.29,-166.02C1867.59,-169.8 2017,-184.22 2017,-236 2017,-1187 2017,-1187 2017,-1187 2017,-1237.76 1853.44,-1232.24 1786.59,-1240.5"/>
<polygon fill="green" stroke="green" stroke-width="2" points="1785.75,-1237.09 1776.37,-1242.03 1786.78,-1244.02 1785.75,-1237.09"/>
</g>
<!-- node19&#45;&gt;node20 -->
<g id="edge57" class="edge">
<title>node19&#45;&gt;node20</title>
<path fill="none" stroke="black" d="M1607.48,-145.94C1586.09,-138.94 1562.16,-131.45 1540,-127 1505.99,-120.18 1470.24,-114.67 1434.54,-110.23"/>
<polygon fill="black" stroke="black" points="1434.83,-106.74 1424.48,-109.01 1433.98,-113.69 1434.83,-106.74"/>
<text text-anchor="middle" x="1443.49" y="-99.11" font-family="Times,serif" font-size="14.00">*0</text>
</g>
<!-- node19&#45;&gt;node20 -->
<g id="edge68" class="edge">
<title>node19&#45;&gt;node20</title>
<path fill="none" stroke="black" d="M1623.95,-145.94C1604.09,-138.94 1580.16,-131.45 1558,-127 1523.99,-120.18 1488.24,-114.67 1452.44,-110.23"/>
<polygon fill="black" stroke="black" points="1452.69,-106.74 1442.35,-109.01 1451.85,-113.69 1452.69,-106.74"/>
</g>
<!-- node19&#45;&gt;node20 -->
<g id="edge69" class="edge">
<title>node19&#45;&gt;node20</title>
<path fill="none" stroke="red" d="M1640.18,-145.85C1621.88,-138.87 1598.07,-131.43 1576,-127 1541.99,-120.18 1506.24,-114.67 1470.34,-110.23"/>
<polygon fill="red" stroke="red" points="1470.56,-106.74 1460.21,-109.01 1469.72,-113.68 1470.56,-106.74"/>
</g>
<!-- node20&#45;&gt;node0 -->
<g id="edge56" class="edge">
<title>node20&#45;&gt;node0</title>
<path fill="none" stroke="green" stroke-width="2" d="M1565.89,-94.55C1965.46,-99.9 2489,-115.9 2489,-163 2489,-1187 2489,-1187 2489,-1187 2489,-1263.17 1901.27,-1233.63 1786.44,-1240.85"/>
<polygon fill="green" stroke="green" stroke-width="2" points="1785.98,-1237.38 1776.32,-1241.73 1786.59,-1244.35 1785.98,-1237.38"/>
</g>
<!-- node21 -->
<g id="node22" class="node">
<title>node21</title>
<polygon fill="lightgrey" stroke="black" points="1245.5,-36 994.5,-36 994.5,0 1245.5,0 1245.5,-36"/>
<text text-anchor="middle" x="1120" y="-14.3" font-family="Times,serif" font-size="14.00">#21 ReturnValue : int Order : 21</text>
</g>
<!-- node20&#45;&gt;node21 -->
<g id="edge71" class="edge">
<title>node20&#45;&gt;node21</title>
<path fill="none" stroke="black" d="M1102.37,-72.81C1099.85,-64.79 1099.15,-55.05 1100.27,-46.07"/>
<polygon fill="black" stroke="black" points="1103.74,-46.54 1102.42,-36.03 1096.9,-45.07 1103.74,-46.54"/>
<text text-anchor="middle" x="1106.89" y="-51.82" font-family="Times,serif" font-size="14.00">*0</text>
</g>
<!-- node20&#45;&gt;node21 -->
<g id="edge72" class="edge">
<title>node20&#45;&gt;node21</title>
<path fill="none" stroke="red" d="M1125.88,-72.81C1126.72,-64.79 1126.95,-55.05 1126.58,-46.07"/>
<polygon fill="red" stroke="red" points="1130.06,-45.75 1125.86,-36.03 1123.08,-46.25 1130.06,-45.75"/>
</g>
<!-- node20&#45;&gt;node21 -->
<g id="edge73" class="edge">
<title>node20&#45;&gt;node21</title>
<path fill="none" stroke="black" d="M1137.63,-72.81C1140.15,-64.79 1140.85,-55.05 1139.73,-46.07"/>
<polygon fill="black" stroke="black" points="1143.1,-45.07 1137.58,-36.03 1136.26,-46.54 1143.1,-45.07"/>
</g>
<!-- node21&#45;&gt;node20 -->
<g id="edge70" class="edge">
<title>node21&#45;&gt;node20</title>
<path fill="none" stroke="green" stroke-width="2" d="M1114.14,-36.03C1113.29,-44.03 1113.05,-53.77 1113.41,-62.75"/>
<polygon fill="green" stroke="green" stroke-width="2" points="1109.93,-63.08 1114.12,-72.81 1116.91,-62.59 1109.93,-63.08"/>
</g>
<!-- c0 -->
<!-- c1 -->
<!-- c0&#45;&gt;c1 -->
<g id="edge74" class="edge">
<title>c0&#45;&gt;c1</title>
<path fill="none" stroke="red" d="M2507.89,-1259C2519.11,-1259 2577.24,-1259 2602.86,-1259"/>
<polygon fill="red" stroke="red" points="2603.06,-1262.5 2613.06,-1259 2603.06,-1255.5 2603.06,-1262.5"/>
<text text-anchor="middle" x="2560.5" y="-1265.8" font-family="Times,serif" font-size="14.00">Control flow</text>
</g>
<!-- c2 -->
<!-- c3 -->
<!-- c2&#45;&gt;c3 -->
<g id="edge75" class="edge">
<title>c2&#45;&gt;c3</title>
<path fill="none" stroke="red" stroke-dasharray="5,2" d="M2301.08,-1259C2318.05,-1259 2434.21,-1259 2472.08,-1259"/>
<polygon fill="red" stroke="red" points="2472.17,-1262.5 2482.17,-1259 2472.17,-1255.5 2472.17,-1262.5"/>
<text text-anchor="middle" x="2391.5" y="-1265.8" font-family="Times,serif" font-size="14.00">Control flow back edge</text>
</g>
<!-- d0 -->
<!-- d1 -->
<!-- d0&#45;&gt;d1 -->
<g id="edge76" class="edge">
<title>d0&#45;&gt;d1</title>
<path fill="none" stroke="black" d="M2189.86,-1259C2199.41,-1259 2243.31,-1259 2264.92,-1259"/>
<polygon fill="black" stroke="black" points="2265.15,-1262.5 2275.15,-1259 2265.15,-1255.5 2265.15,-1262.5"/>
<text text-anchor="middle" x="2232.5" y="-1265.8" font-family="Times,serif" font-size="14.00">Data flow</text>
</g>
<!-- d2 -->
<!-- d3 -->
<!-- d2&#45;&gt;d3 -->
<g id="edge77" class="edge">
<title>d2&#45;&gt;d3</title>
<path fill="none" stroke="black" stroke-dasharray="1,5" d="M2063.81,-1259C2074.46,-1259 2129.46,-1259 2154.08,-1259"/>
<polygon fill="black" stroke="black" points="2154.15,-1262.5 2164.15,-1259 2154.15,-1255.5 2154.15,-1262.5"/>
<text text-anchor="middle" x="2114" y="-1265.8" font-family="Times,serif" font-size="14.00">Declaration</text>
</g>
<!-- d4 -->
<!-- d5 -->
<!-- d4&#45;&gt;d5 -->
<g id="edge78" class="edge">
<title>d4&#45;&gt;d5</title>
<path fill="none" stroke="blue" d="M1921.1,-1259C1933.72,-1259 1999.88,-1259 2027.68,-1259"/>
<polygon fill="blue" stroke="blue" points="2027.84,-1262.5 2037.84,-1259 2027.84,-1255.5 2027.84,-1262.5"/>
<text text-anchor="middle" x="1979.5" y="-1265.8" font-family="Times,serif" font-size="14.00">PHI Data flow</text>
</g>
<!-- d6 -->
<!-- d7 -->
<!-- d6&#45;&gt;d7 -->
<g id="edge79" class="edge">
<title>d6&#45;&gt;d7</title>
<path fill="none" stroke="green" d="M1798.11,-1259C1809.15,-1259 1860.67,-1259 1884.66,-1259"/>
<polygon fill="green" stroke="green" points="1884.9,-1262.5 1894.9,-1259 1884.9,-1255.5 1884.9,-1262.5"/>
<text text-anchor="middle" x="1846.5" y="-1265.8" font-family="Times,serif" font-size="14.00">Dominance</text>
</g>
</g>
</svg>
