<?xml version="1.0" encoding="UTF-8" standalone="no"?>
<!DOCTYPE svg PUBLIC "-//W3C//DTD SVG 1.1//EN"
 "http://www.w3.org/Graphics/SVG/1.1/DTD/svg11.dtd">
<!-- Generated by graphviz version 2.43.0 (0)
 -->
<!-- Title: %3 Pages: 1 -->
<svg width="1231pt" height="222pt"
 viewBox="0.00 0.00 1230.65 221.80" xmlns="http://www.w3.org/2000/svg" xmlns:xlink="http://www.w3.org/1999/xlink">
<g id="graph0" class="graph" transform="scale(1 1) rotate(0) translate(4 217.8)">
<title>%3</title>
<polygon fill="white" stroke="transparent" points="-4,4 -4,-217.8 1226.65,-217.8 1226.65,4 -4,4"/>
<g id="clust1" class="cluster">
<title>cluster_000</title>
<polygon fill="none" stroke="black" points="361.65,-163.2 361.65,-205.8 1214.65,-205.8 1214.65,-163.2 361.65,-163.2"/>
<text text-anchor="middle" x="788.15" y="-190.6" font-family="Times,serif" font-size="14.00">Legend</text>
</g>
<!-- node0 -->
<g id="node1" class="node">
<title>node0</title>
<polygon fill="lightgrey" stroke="transparent" points="352.15,-200 51.15,-200 51.15,-146 352.15,-146 352.15,-200"/>
<polygon fill="none" stroke="black" points="51.65,-173 51.65,-200 352.65,-200 352.65,-173 51.65,-173"/>
<text text-anchor="start" x="161.65" y="-182.8" font-family="Times,serif" font-size="14.00">#0 Method</text>
<polygon fill="yellow" stroke="transparent" points="51.65,-146 51.65,-173 141.65,-173 141.65,-146 51.65,-146"/>
<polygon fill="none" stroke="black" points="51.65,-146 51.65,-173 141.65,-173 141.65,-146 51.65,-146"/>
<text text-anchor="start" x="57.65" y="-155.8" font-family="Times,serif" font-size="14.00">arg0 : long</text>
<polygon fill="yellow" stroke="transparent" points="141.65,-146 141.65,-173 231.65,-173 231.65,-146 141.65,-146"/>
<polygon fill="none" stroke="black" points="141.65,-146 141.65,-173 231.65,-173 231.65,-146 141.65,-146"/>
<text text-anchor="start" x="147.65" y="-155.8" font-family="Times,serif" font-size="14.00">arg1 : long</text>
<polygon fill="yellow" stroke="transparent" points="231.65,-146 231.65,-173 352.65,-173 352.65,-146 231.65,-146"/>
<polygon fill="none" stroke="black" points="231.65,-146 231.65,-173 352.65,-173 352.65,-146 231.65,-146"/>
<text text-anchor="start" x="237.65" y="-155.8" font-family="Times,serif" font-size="14.00">this : MathTest</text>
</g>
<!-- node4 -->
<g id="node2" class="node">
<title>node4</title>
<polygon fill="lightgrey" stroke="black" points="314.15,-109 195.15,-109 195.15,-73 314.15,-73 314.15,-109"/>
<text text-anchor="middle" x="254.65" y="-87.3" font-family="Times,serif" font-size="14.00">#4 LabelNode</text>
</g>
<!-- node0&#45;&gt;node4 -->
<g id="edge1" class="edge">
<title>node0&#45;&gt;node4</title>
<path fill="none" stroke="red" d="M219,-145.81C224.98,-136.78 231.66,-126.69 237.61,-117.71"/>
<polygon fill="red" stroke="red" points="240.66,-119.44 243.27,-109.17 234.83,-115.58 240.66,-119.44"/>
</g>
<!-- node6 -->
<g id="node3" class="node">
<title>node6</title>
<polygon fill="lightgrey" stroke="black" points="262.15,-36 87.15,-36 87.15,0 262.15,0 262.15,-36"/>
<text text-anchor="middle" x="174.65" y="-14.3" font-family="Times,serif" font-size="14.00">#6 ReturnValue : long</text>
</g>
<!-- node0&#45;&gt;node6 -->
<g id="edge4" class="edge">
<title>node0&#45;&gt;node6</title>
<path fill="none" stroke="green" d="M52.31,-145.86C34.86,-136.87 19.2,-124.9 7.65,-109 -17.96,-73.77 27.44,-50.92 77.33,-37.07"/>
<polygon fill="green" stroke="green" points="78.24,-40.44 87.01,-34.5 76.45,-33.68 78.24,-40.44"/>
</g>
<!-- node5 -->
<g id="node4" class="node">
<title>node5</title>
<polygon fill="orange" stroke="black" points="177.04,-83.54 177.04,-98.46 129.95,-109 63.34,-109 16.25,-98.46 16.25,-83.54 63.34,-73 129.95,-73 177.04,-83.54"/>
<text text-anchor="middle" x="96.65" y="-87.3" font-family="Times,serif" font-size="14.00">#5 Mul : long</text>
</g>
<!-- node0&#45;&gt;node5 -->
<g id="edge5" class="edge">
<title>node0:prj1&#45;&gt;node5</title>
<path fill="none" stroke="black" d="M96.65,-146C96.65,-137.3 96.65,-127.81 96.65,-119.25"/>
<polygon fill="black" stroke="black" points="100.15,-119.02 96.65,-109.02 93.15,-119.02 100.15,-119.02"/>
<text text-anchor="middle" x="105.1" y="-123.45" font-family="Times,serif" font-size="14.00">*0</text>
</g>
<!-- node0&#45;&gt;node5 -->
<g id="edge6" class="edge">
<title>node0:prj2&#45;&gt;node5</title>
<path fill="none" stroke="black" d="M186.65,-146C186.65,-128.94 174.61,-117.14 159.34,-109.02"/>
<polygon fill="black" stroke="black" points="160.58,-105.74 150.04,-104.66 157.61,-112.08 160.58,-105.74"/>
<text text-anchor="middle" x="170.04" y="-101.01" font-family="Times,serif" font-size="14.00">*1</text>
</g>
<!-- node4&#45;&gt;node6 -->
<g id="edge3" class="edge">
<title>node4&#45;&gt;node6</title>
<path fill="none" stroke="red" d="M235.28,-72.81C225.16,-63.83 212.61,-52.69 201.56,-42.89"/>
<polygon fill="red" stroke="red" points="203.64,-40.05 193.83,-36.03 198.99,-45.28 203.64,-40.05"/>
</g>
<!-- node5&#45;&gt;node6 -->
<g id="edge2" class="edge">
<title>node5&#45;&gt;node6</title>
<path fill="none" stroke="black" d="M115.53,-72.81C125.4,-63.83 137.63,-52.69 148.4,-42.89"/>
<polygon fill="black" stroke="black" points="150.9,-45.35 155.94,-36.03 146.19,-40.17 150.9,-45.35"/>
<text text-anchor="middle" x="148.22" y="-50.78" font-family="Times,serif" font-size="14.00">*0</text>
</g>
<!-- c0 -->
<!-- c1 -->
<!-- c0&#45;&gt;c1 -->
<g id="edge7" class="edge">
<title>c0&#45;&gt;c1</title>
<path fill="none" stroke="red" d="M1097.54,-173C1108.75,-173 1166.89,-173 1192.5,-173"/>
<polygon fill="red" stroke="red" points="1192.7,-176.5 1202.7,-173 1192.7,-169.5 1192.7,-176.5"/>
<text text-anchor="middle" x="1150.15" y="-179.8" font-family="Times,serif" font-size="14.00">Control flow</text>
</g>
<!-- c2 -->
<!-- c3 -->
<!-- c2&#45;&gt;c3 -->
<g id="edge8" class="edge">
<title>c2&#45;&gt;c3</title>
<path fill="none" stroke="red" stroke-dasharray="5,2" d="M890.72,-173C907.69,-173 1023.85,-173 1061.73,-173"/>
<polygon fill="red" stroke="red" points="1061.81,-176.5 1071.81,-173 1061.81,-169.5 1061.81,-176.5"/>
<text text-anchor="middle" x="981.15" y="-179.8" font-family="Times,serif" font-size="14.00">Control flow back edge</text>
</g>
<!-- d0 -->
<!-- d1 -->
<!-- d0&#45;&gt;d1 -->
<g id="edge9" class="edge">
<title>d0&#45;&gt;d1</title>
<path fill="none" stroke="black" d="M779.5,-173C789.05,-173 832.95,-173 854.56,-173"/>
<polygon fill="black" stroke="black" points="854.8,-176.5 864.8,-173 854.8,-169.5 854.8,-176.5"/>
<text text-anchor="middle" x="822.15" y="-179.8" font-family="Times,serif" font-size="14.00">Data flow</text>
</g>
<!-- d2 -->
<!-- d3 -->
<!-- d2&#45;&gt;d3 -->
<g id="edge10" class="edge">
<title>d2&#45;&gt;d3</title>
<path fill="none" stroke="black" stroke-dasharray="1,5" d="M653.45,-173C664.1,-173 719.11,-173 743.72,-173"/>
<polygon fill="black" stroke="black" points="743.79,-176.5 753.79,-173 743.79,-169.5 743.79,-176.5"/>
<text text-anchor="middle" x="703.65" y="-179.8" font-family="Times,serif" font-size="14.00">Declaration</text>
</g>
<!-- d4 -->
<!-- d5 -->
<!-- d4&#45;&gt;d5 -->
<g id="edge11" class="edge">
<title>d4&#45;&gt;d5</title>
<path fill="none" stroke="blue" d="M510.75,-173C523.37,-173 589.53,-173 617.32,-173"/>
<polygon fill="blue" stroke="blue" points="617.49,-176.5 627.49,-173 617.49,-169.5 617.49,-176.5"/>
<text text-anchor="middle" x="569.15" y="-179.8" font-family="Times,serif" font-size="14.00">PHI Data flow</text>
</g>
<!-- d6 -->
<!-- d7 -->
<!-- d6&#45;&gt;d7 -->
<g id="edge12" class="edge">
<title>d6&#45;&gt;d7</title>
<path fill="none" stroke="green" d="M373.64,-173C385.58,-173 447.94,-173 474.57,-173"/>
<polygon fill="green" stroke="green" points="474.59,-176.5 484.59,-173 474.59,-169.5 474.59,-176.5"/>
<text text-anchor="middle" x="429.15" y="-179.8" font-family="Times,serif" font-size="14.00">Memory flow</text>
</g>
</g>
</svg>
