<?xml version="1.0" encoding="UTF-8" standalone="no"?>
<!DOCTYPE svg PUBLIC "-//W3C//DTD SVG 1.1//EN"
 "http://www.w3.org/Graphics/SVG/1.1/DTD/svg11.dtd">
<!-- Generated by graphviz version 2.43.0 (0)
 -->
<!-- Title: %3 Pages: 1 -->
<svg width="1395pt" height="514pt"
 viewBox="0.00 0.00 1395.02 513.80" xmlns="http://www.w3.org/2000/svg" xmlns:xlink="http://www.w3.org/1999/xlink">
<g id="graph0" class="graph" transform="scale(1 1) rotate(0) translate(4 509.8)">
<title>%3</title>
<polygon fill="white" stroke="transparent" points="-4,4 -4,-509.8 1391.02,-509.8 1391.02,4 -4,4"/>
<g id="clust1" class="cluster">
<title>cluster_0</title>
<polygon fill="none" stroke="lightgray" points="154.02,-284 154.02,-409 532.02,-409 532.02,-284 154.02,-284"/>
</g>
<g id="clust2" class="cluster">
<title>cluster_000</title>
<polygon fill="none" stroke="black" points="526.02,-455.2 526.02,-497.8 1379.02,-497.8 1379.02,-455.2 526.02,-455.2"/>
<text text-anchor="middle" x="952.52" y="-482.6" font-family="Times,serif" font-size="14.00">Legend</text>
</g>
<!-- node0 -->
<g id="node1" class="node">
<title>node0</title>
<polygon fill="lightgrey" stroke="transparent" points="516.52,-492 349.52,-492 349.52,-438 516.52,-438 516.52,-492"/>
<polygon fill="none" stroke="black" points="350.02,-465 350.02,-492 517.02,-492 517.02,-465 350.02,-465"/>
<text text-anchor="start" x="393.02" y="-474.8" font-family="Times,serif" font-size="14.00">#0 Method</text>
<polygon fill="yellow" stroke="transparent" points="350.02,-438 350.02,-465 517.02,-465 517.02,-438 350.02,-438"/>
<polygon fill="none" stroke="black" points="350.02,-438 350.02,-465 517.02,-465 517.02,-438 350.02,-438"/>
<text text-anchor="start" x="356.02" y="-447.8" font-family="Times,serif" font-size="14.00">this : FieldAccessTest</text>
</g>
<!-- node4 -->
<g id="node2" class="node">
<title>node4</title>
<polygon fill="lightgrey" stroke="black" points="505.52,-255 400.52,-255 400.52,-219 505.52,-219 505.52,-255"/>
<text text-anchor="middle" x="453.02" y="-233.3" font-family="Times,serif" font-size="14.00">#4 ClassInit</text>
</g>
<!-- node0&#45;&gt;node4 -->
<g id="edge3" class="edge">
<title>node0&#45;&gt;node4</title>
<path fill="none" stroke="green" d="M349.34,-460.9C245.28,-454.17 88.41,-432.8 150.02,-365 207.98,-301.23 478.07,-391.77 536.02,-328 549.18,-313.53 545.95,-300.85 536.02,-284 530.27,-274.23 521.61,-266.39 512.02,-260.14"/>
<polygon fill="green" stroke="green" points="513.79,-257.13 503.4,-255.06 510.24,-263.15 513.79,-257.13"/>
</g>
<!-- node2 -->
<g id="node4" class="node">
<title>node2</title>
<polygon fill="lightgrey" stroke="black" points="492.52,-401 373.52,-401 373.52,-365 492.52,-365 492.52,-401"/>
<text text-anchor="middle" x="433.02" y="-379.3" font-family="Times,serif" font-size="14.00">#2 LabelNode</text>
</g>
<!-- node0&#45;&gt;node2 -->
<g id="edge4" class="edge">
<title>node0&#45;&gt;node2</title>
<path fill="none" stroke="red" d="M433.02,-437.81C433.02,-429.35 433.02,-419.95 433.02,-411.4"/>
<polygon fill="red" stroke="red" points="436.52,-411.17 433.02,-401.17 429.52,-411.17 436.52,-411.17"/>
</g>
<!-- node5 -->
<g id="node5" class="node">
<title>node5</title>
<polygon fill="orange" stroke="black" points="465.14,-156.54 465.14,-171.46 434.61,-182 391.44,-182 360.91,-171.46 360.91,-156.54 391.44,-146 434.61,-146 465.14,-156.54"/>
<text text-anchor="middle" x="413.02" y="-160.3" font-family="Times,serif" font-size="14.00">#5 New</text>
</g>
<!-- node4&#45;&gt;node5 -->
<g id="edge6" class="edge">
<title>node4&#45;&gt;node5</title>
<path fill="none" stroke="black" d="M437.46,-218.81C431.93,-210.53 426.01,-200.41 421.24,-191.19"/>
<polygon fill="black" stroke="black" points="424.3,-189.47 416.76,-182.03 418.01,-192.55 424.3,-189.47"/>
<text text-anchor="middle" x="432.32" y="-190.89" font-family="Times,serif" font-size="14.00">*0</text>
</g>
<!-- node4&#45;&gt;node5 -->
<g id="edge7" class="edge">
<title>node4&#45;&gt;node5</title>
<path fill="none" stroke="green" d="M449.22,-218.81C445.34,-210.35 439.71,-199.98 433.97,-190.61"/>
<polygon fill="green" stroke="green" points="436.81,-188.57 428.48,-182.03 430.92,-192.34 436.81,-188.57"/>
</g>
<!-- node6 -->
<g id="node7" class="node">
<title>node6</title>
<polygon fill="lightgrey" stroke="black" points="618.02,-109 368.02,-109 368.02,-73 618.02,-73 618.02,-109"/>
<text text-anchor="middle" x="493.02" y="-87.3" font-family="Times,serif" font-size="14.00">#6 Invoke special &lt;init&gt; : ()void</text>
</g>
<!-- node4&#45;&gt;node6 -->
<g id="edge11" class="edge">
<title>node4&#45;&gt;node6</title>
<path fill="none" stroke="red" d="M460.57,-218.74C464.93,-208.26 470.29,-194.53 474.02,-182 480.21,-161.24 485.17,-137.22 488.47,-119.22"/>
<polygon fill="red" stroke="red" points="491.96,-119.58 490.27,-109.13 485.07,-118.36 491.96,-119.58"/>
</g>
<!-- node3 -->
<g id="node3" class="node">
<title>node3</title>
<polygon fill="lightgreen" stroke="black" points="523.62,-302.54 523.62,-317.46 417.83,-328 268.22,-328 162.43,-317.46 162.43,-302.54 268.22,-292 417.83,-292 523.62,-302.54"/>
<text text-anchor="middle" x="343.02" y="-306.3" font-family="Times,serif" font-size="14.00">#3 Class FieldAccessTest$Source</text>
</g>
<!-- node3&#45;&gt;node4 -->
<g id="edge1" class="edge">
<title>node3&#45;&gt;node4</title>
<path fill="none" stroke="black" d="M369.37,-291.99C383.96,-282.58 402.28,-270.76 418.05,-260.57"/>
<polygon fill="black" stroke="black" points="420.01,-263.48 426.51,-255.11 416.21,-257.6 420.01,-263.48"/>
<text text-anchor="middle" x="415.86" y="-268.34" font-family="Times,serif" font-size="14.00">*0</text>
</g>
<!-- node2&#45;&gt;node4 -->
<g id="edge2" class="edge">
<title>node2&#45;&gt;node4</title>
<path fill="none" stroke="red" d="M492.54,-374.37C525.56,-368.79 561.97,-359.91 572.02,-347 589.31,-324.82 582.83,-306.55 566.02,-284 553.74,-267.51 534.51,-256.91 515.39,-250.11"/>
<polygon fill="red" stroke="red" points="516.32,-246.73 505.73,-246.97 514.16,-253.39 516.32,-246.73"/>
</g>
<!-- node2&#45;&gt;node3 -->
<g id="edge5" class="edge">
<title>node2&#45;&gt;node3</title>
<path fill="none" stroke="black" stroke-dasharray="1,5" d="M411.24,-364.81C399.63,-355.66 385.18,-344.26 372.58,-334.32"/>
<polygon fill="black" stroke="black" points="374.63,-331.47 364.61,-328.03 370.29,-336.97 374.63,-331.47"/>
</g>
<!-- node7 -->
<g id="node6" class="node">
<title>node7</title>
<polygon fill="orange" stroke="black" points="332.07,-83.54 332.07,-98.46 234.8,-109 97.24,-109 -0.02,-98.46 -0.02,-83.54 97.24,-73 234.8,-73 332.07,-83.54"/>
<text text-anchor="middle" x="166.02" y="-87.3" font-family="Times,serif" font-size="14.00">#7 GetField : array_field : int[]</text>
</g>
<!-- node5&#45;&gt;node7 -->
<g id="edge8" class="edge">
<title>node5&#45;&gt;node7</title>
<path fill="none" stroke="black" d="M374.16,-151.83C336.95,-141.13 279.98,-124.76 235.05,-111.84"/>
<polygon fill="black" stroke="black" points="235.95,-108.46 225.37,-109.06 234.01,-115.18 235.95,-108.46"/>
<text text-anchor="middle" x="245.12" y="-102.24" font-family="Times,serif" font-size="14.00">*0</text>
</g>
<!-- node5&#45;&gt;node6 -->
<g id="edge10" class="edge">
<title>node5&#45;&gt;node6</title>
<path fill="none" stroke="black" d="M426.51,-145.81C435.78,-136.74 448.3,-125.48 460.03,-115.6"/>
<polygon fill="black" stroke="black" points="462.5,-118.1 467.98,-109.03 458.04,-112.71 462.5,-118.1"/>
<text text-anchor="middle" x="459.4" y="-123.4" font-family="Times,serif" font-size="14.00">*0</text>
</g>
<!-- node5&#45;&gt;node6 -->
<g id="edge12" class="edge">
<title>node5&#45;&gt;node6</title>
<path fill="none" stroke="green" d="M437.38,-146.53C448.56,-137.5 461.57,-126.13 472.28,-116.12"/>
<polygon fill="green" stroke="green" points="474.79,-118.56 479.61,-109.12 469.96,-113.5 474.79,-118.56"/>
</g>
<!-- node8 -->
<g id="node8" class="node">
<title>node8</title>
<polygon fill="lightgrey" stroke="black" points="416.02,-36 242.02,-36 242.02,0 416.02,0 416.02,-36"/>
<text text-anchor="middle" x="329.02" y="-14.3" font-family="Times,serif" font-size="14.00">#8 ReturnValue : int[]</text>
</g>
<!-- node7&#45;&gt;node8 -->
<g id="edge13" class="edge">
<title>node7&#45;&gt;node8</title>
<path fill="none" stroke="black" d="M199.21,-72.99C220.87,-63.1 249.57,-50.54 274.51,-40.03"/>
<polygon fill="black" stroke="black" points="275.99,-43.21 283.86,-36.11 273.29,-36.75 275.99,-43.21"/>
<text text-anchor="middle" x="270.41" y="-47.21" font-family="Times,serif" font-size="14.00">*0</text>
</g>
<!-- node7&#45;&gt;node8 -->
<g id="edge15" class="edge">
<title>node7&#45;&gt;node8</title>
<path fill="none" stroke="green" d="M210.93,-72.99C234.48,-63.19 263.13,-50.77 286.34,-40.31"/>
<polygon fill="green" stroke="green" points="287.94,-43.43 295.61,-36.11 285.05,-37.05 287.94,-43.43"/>
</g>
<!-- node6&#45;&gt;node7 -->
<g id="edge9" class="edge">
<title>node6&#45;&gt;node7</title>
<path fill="none" stroke="green" d="M367.91,-91C359.33,-91 350.74,-91 342.16,-91"/>
<polygon fill="green" stroke="green" points="342.08,-87.5 332.08,-91 342.08,-94.5 342.08,-87.5"/>
</g>
<!-- node6&#45;&gt;node8 -->
<g id="edge14" class="edge">
<title>node6&#45;&gt;node8</title>
<path fill="none" stroke="red" d="M453.74,-72.99C430.99,-63.14 402.14,-50.66 377.93,-40.17"/>
<polygon fill="red" stroke="red" points="379.12,-36.87 368.55,-36.11 376.34,-43.3 379.12,-36.87"/>
</g>
<!-- c0 -->
<!-- c1 -->
<!-- c0&#45;&gt;c1 -->
<g id="edge16" class="edge">
<title>c0&#45;&gt;c1</title>
<path fill="none" stroke="red" d="M1261.92,-465C1273.13,-465 1331.27,-465 1356.88,-465"/>
<polygon fill="red" stroke="red" points="1357.08,-468.5 1367.08,-465 1357.08,-461.5 1357.08,-468.5"/>
<text text-anchor="middle" x="1314.52" y="-471.8" font-family="Times,serif" font-size="14.00">Control flow</text>
</g>
<!-- c2 -->
<!-- c3 -->
<!-- c2&#45;&gt;c3 -->
<g id="edge17" class="edge">
<title>c2&#45;&gt;c3</title>
<path fill="none" stroke="red" stroke-dasharray="5,2" d="M1055.1,-465C1072.07,-465 1188.23,-465 1226.11,-465"/>
<polygon fill="red" stroke="red" points="1226.19,-468.5 1236.19,-465 1226.19,-461.5 1226.19,-468.5"/>
<text text-anchor="middle" x="1145.52" y="-471.8" font-family="Times,serif" font-size="14.00">Control flow back edge</text>
</g>
<!-- d0 -->
<!-- d1 -->
<!-- d0&#45;&gt;d1 -->
<g id="edge18" class="edge">
<title>d0&#45;&gt;d1</title>
<path fill="none" stroke="black" d="M943.88,-465C953.43,-465 997.33,-465 1018.94,-465"/>
<polygon fill="black" stroke="black" points="1019.18,-468.5 1029.18,-465 1019.18,-461.5 1019.18,-468.5"/>
<text text-anchor="middle" x="986.52" y="-471.8" font-family="Times,serif" font-size="14.00">Data flow</text>
</g>
<!-- d2 -->
<!-- d3 -->
<!-- d2&#45;&gt;d3 -->
<g id="edge19" class="edge">
<title>d2&#45;&gt;d3</title>
<path fill="none" stroke="black" stroke-dasharray="1,5" d="M817.83,-465C828.48,-465 883.49,-465 908.1,-465"/>
<polygon fill="black" stroke="black" points="908.17,-468.5 918.17,-465 908.17,-461.5 908.17,-468.5"/>
<text text-anchor="middle" x="868.02" y="-471.8" font-family="Times,serif" font-size="14.00">Declaration</text>
</g>
<!-- d4 -->
<!-- d5 -->
<!-- d4&#45;&gt;d5 -->
<g id="edge20" class="edge">
<title>d4&#45;&gt;d5</title>
<path fill="none" stroke="blue" d="M675.12,-465C687.75,-465 753.91,-465 781.7,-465"/>
<polygon fill="blue" stroke="blue" points="781.87,-468.5 791.87,-465 781.87,-461.5 781.87,-468.5"/>
<text text-anchor="middle" x="733.52" y="-471.8" font-family="Times,serif" font-size="14.00">PHI Data flow</text>
</g>
<!-- d6 -->
<!-- d7 -->
<!-- d6&#45;&gt;d7 -->
<g id="edge21" class="edge">
<title>d6&#45;&gt;d7</title>
<path fill="none" stroke="green" d="M538.02,-465C549.96,-465 612.32,-465 638.95,-465"/>
<polygon fill="green" stroke="green" points="638.97,-468.5 648.97,-465 638.97,-461.5 638.97,-468.5"/>
<text text-anchor="middle" x="593.52" y="-471.8" font-family="Times,serif" font-size="14.00">Memory flow</text>
</g>
</g>
</svg>
