<?xml version="1.0" encoding="UTF-8" standalone="no"?>
<!DOCTYPE svg PUBLIC "-//W3C//DTD SVG 1.1//EN"
 "http://www.w3.org/Graphics/SVG/1.1/DTD/svg11.dtd">
<!-- Generated by graphviz version 2.43.0 (0)
 -->
<!-- Title: %3 Pages: 1 -->
<svg width="1617pt" height="879pt"
 viewBox="0.00 0.00 1616.84 878.80" xmlns="http://www.w3.org/2000/svg" xmlns:xlink="http://www.w3.org/1999/xlink">
<g id="graph0" class="graph" transform="scale(1 1) rotate(0) translate(4 874.8)">
<title>%3</title>
<polygon fill="white" stroke="transparent" points="-4,4 -4,-874.8 1612.84,-874.8 1612.84,4 -4,4"/>
<g id="clust1" class="cluster">
<title>cluster_0</title>
<polygon fill="none" stroke="lightgray" points="262.84,-357 262.84,-482 640.84,-482 640.84,-357 262.84,-357"/>
</g>
<g id="clust2" class="cluster">
<title>cluster_1</title>
<polygon fill="none" stroke="lightgray" points="514.84,-649 514.84,-774 938.84,-774 938.84,-649 514.84,-649"/>
</g>
<g id="clust3" class="cluster">
<title>cluster_000</title>
<polygon fill="none" stroke="black" points="747.84,-820.2 747.84,-862.8 1600.84,-862.8 1600.84,-820.2 747.84,-820.2"/>
<text text-anchor="middle" x="1174.34" y="-847.6" font-family="Times,serif" font-size="14.00">Legend</text>
</g>
<!-- node0 -->
<g id="node1" class="node">
<title>node0</title>
<polygon fill="lightgrey" stroke="transparent" points="738.34,-857 571.34,-857 571.34,-803 738.34,-803 738.34,-857"/>
<polygon fill="none" stroke="black" points="571.84,-830 571.84,-857 738.84,-857 738.84,-830 571.84,-830"/>
<text text-anchor="start" x="614.84" y="-839.8" font-family="Times,serif" font-size="14.00">#0 Method</text>
<polygon fill="yellow" stroke="transparent" points="571.84,-803 571.84,-830 738.84,-830 738.84,-803 571.84,-803"/>
<polygon fill="none" stroke="black" points="571.84,-803 571.84,-830 738.84,-830 738.84,-803 571.84,-803"/>
<text text-anchor="start" x="577.84" y="-812.8" font-family="Times,serif" font-size="14.00">this : FieldAccessTest</text>
</g>
<!-- node4 -->
<g id="node2" class="node">
<title>node4</title>
<polygon fill="lightgrey" stroke="black" points="521.34,-620 416.34,-620 416.34,-584 521.34,-584 521.34,-620"/>
<text text-anchor="middle" x="468.84" y="-598.3" font-family="Times,serif" font-size="14.00">#4 ClassInit</text>
</g>
<!-- node0&#45;&gt;node4 -->
<g id="edge3" class="edge">
<title>node0&#45;&gt;node4</title>
<path fill="none" stroke="green" d="M571.08,-812.11C548.81,-803.94 526.6,-791.85 510.84,-774 501.31,-763.21 483.06,-675.69 474.08,-630.22"/>
<polygon fill="green" stroke="green" points="477.47,-629.3 472.11,-620.15 470.6,-630.64 477.47,-629.3"/>
</g>
<!-- node2 -->
<g id="node4" class="node">
<title>node2</title>
<polygon fill="lightgrey" stroke="black" points="714.34,-766 595.34,-766 595.34,-730 714.34,-730 714.34,-766"/>
<text text-anchor="middle" x="654.84" y="-744.3" font-family="Times,serif" font-size="14.00">#2 LabelNode</text>
</g>
<!-- node0&#45;&gt;node2 -->
<g id="edge4" class="edge">
<title>node0&#45;&gt;node2</title>
<path fill="none" stroke="red" d="M654.84,-802.81C654.84,-794.35 654.84,-784.95 654.84,-776.4"/>
<polygon fill="red" stroke="red" points="658.34,-776.17 654.84,-766.17 651.34,-776.17 658.34,-776.17"/>
</g>
<!-- node6 -->
<g id="node5" class="node">
<title>node6</title>
<polygon fill="lightgrey" stroke="black" points="576.84,-474 326.84,-474 326.84,-438 576.84,-438 576.84,-474"/>
<text text-anchor="middle" x="451.84" y="-452.3" font-family="Times,serif" font-size="14.00">#6 Invoke special &lt;init&gt; : ()void</text>
</g>
<!-- node4&#45;&gt;node6 -->
<g id="edge7" class="edge">
<title>node4&#45;&gt;node6</title>
<path fill="none" stroke="red" d="M466.82,-583.92C463.91,-559.23 458.49,-513.35 455.03,-484.04"/>
<polygon fill="red" stroke="red" points="458.5,-483.58 453.85,-474.06 451.55,-484.4 458.5,-483.58"/>
</g>
<!-- node5 -->
<g id="node6" class="node">
<title>node5</title>
<polygon fill="orange" stroke="black" points="583.96,-521.54 583.96,-536.46 553.43,-547 510.25,-547 479.72,-536.46 479.72,-521.54 510.25,-511 553.43,-511 583.96,-521.54"/>
<text text-anchor="middle" x="531.84" y="-525.3" font-family="Times,serif" font-size="14.00">#5 New</text>
</g>
<!-- node4&#45;&gt;node5 -->
<g id="edge9" class="edge">
<title>node4&#45;&gt;node5</title>
<path fill="none" stroke="black" d="M478.21,-583.81C485.1,-575 494.57,-564.13 503.68,-554.46"/>
<polygon fill="black" stroke="black" points="506.43,-556.65 510.87,-547.03 501.4,-551.79 506.43,-556.65"/>
<text text-anchor="middle" x="504.35" y="-562.24" font-family="Times,serif" font-size="14.00">*0</text>
</g>
<!-- node4&#45;&gt;node5 -->
<g id="edge10" class="edge">
<title>node4&#45;&gt;node5</title>
<path fill="none" stroke="green" d="M489.97,-583.81C498.53,-575.18 508.16,-564.56 516.11,-555.03"/>
<polygon fill="green" stroke="green" points="519.02,-557 522.59,-547.03 513.58,-552.6 519.02,-557"/>
</g>
<!-- node3 -->
<g id="node3" class="node">
<title>node3</title>
<polygon fill="lightgreen" stroke="black" points="930.86,-667.54 930.86,-682.46 811.35,-693 642.33,-693 522.81,-682.46 522.81,-667.54 642.33,-657 811.35,-657 930.86,-667.54"/>
<text text-anchor="middle" x="726.84" y="-671.3" font-family="Times,serif" font-size="14.00">#3 Class FieldAccessTest$Destination</text>
</g>
<!-- node3&#45;&gt;node4 -->
<g id="edge1" class="edge">
<title>node3&#45;&gt;node4</title>
<path fill="none" stroke="black" d="M665.04,-656.99C624.55,-645.85 571.81,-631.34 531.2,-620.16"/>
<polygon fill="black" stroke="black" points="531.99,-616.75 521.42,-617.47 530.13,-623.5 531.99,-616.75"/>
<text text-anchor="middle" x="541.14" y="-610.43" font-family="Times,serif" font-size="14.00">*0</text>
</g>
<!-- node2&#45;&gt;node4 -->
<g id="edge2" class="edge">
<title>node2&#45;&gt;node4</title>
<path fill="none" stroke="red" d="M595.13,-732.38C568.47,-723.87 537.74,-711.15 513.84,-693 490.05,-674.94 485.13,-666.65 473.84,-639 472.72,-636.26 471.84,-633.32 471.16,-630.34"/>
<polygon fill="red" stroke="red" points="474.58,-629.59 469.49,-620.3 467.68,-630.74 474.58,-629.59"/>
</g>
<!-- node2&#45;&gt;node3 -->
<g id="edge5" class="edge">
<title>node2&#45;&gt;node3</title>
<path fill="none" stroke="black" stroke-dasharray="1,5" d="M672.27,-729.81C681.29,-720.92 692.45,-709.91 702.33,-700.17"/>
<polygon fill="black" stroke="black" points="704.91,-702.54 709.57,-693.03 699.99,-697.56 704.91,-702.54"/>
</g>
<!-- node8 -->
<g id="node11" class="node">
<title>node8</title>
<polygon fill="lightgrey" stroke="black" points="496.34,-328 391.34,-328 391.34,-292 496.34,-292 496.34,-328"/>
<text text-anchor="middle" x="443.84" y="-306.3" font-family="Times,serif" font-size="14.00">#8 ClassInit</text>
</g>
<!-- node6&#45;&gt;node8 -->
<g id="edge21" class="edge">
<title>node6&#45;&gt;node8</title>
<path fill="none" stroke="red" d="M343.98,-437.98C303.59,-429.01 264.62,-416.6 252.84,-401 241.05,-385.4 240.82,-372.43 252.84,-357 268.34,-337.09 331.67,-324.44 381.29,-317.55"/>
<polygon fill="red" stroke="red" points="381.88,-321 391.33,-316.2 380.95,-314.06 381.88,-321"/>
</g>
<!-- node6&#45;&gt;node8 -->
<g id="edge22" class="edge">
<title>node6&#45;&gt;node8</title>
<path fill="none" stroke="green" d="M360.39,-437.98C321.59,-429.01 282.62,-416.6 270.84,-401 259.05,-385.4 258.82,-372.43 270.84,-357 284.77,-339.11 337.34,-327.08 380.97,-319.82"/>
<polygon fill="green" stroke="green" points="381.66,-323.25 390.98,-318.21 380.55,-316.34 381.66,-323.25"/>
</g>
<!-- node7 -->
<g id="node12" class="node">
<title>node7</title>
<polygon fill="lightgreen" stroke="black" points="632.43,-375.54 632.43,-390.46 526.64,-401 377.03,-401 271.24,-390.46 271.24,-375.54 377.03,-365 526.64,-365 632.43,-375.54"/>
<text text-anchor="middle" x="451.84" y="-379.3" font-family="Times,serif" font-size="14.00">#7 Class FieldAccessTest$Source</text>
</g>
<!-- node6&#45;&gt;node7 -->
<g id="edge23" class="edge">
<title>node6&#45;&gt;node7</title>
<path fill="none" stroke="black" stroke-dasharray="1,5" d="M451.84,-437.81C451.84,-429.79 451.84,-420.05 451.84,-411.07"/>
<polygon fill="black" stroke="black" points="455.34,-411.03 451.84,-401.03 448.34,-411.03 455.34,-411.03"/>
</g>
<!-- node5&#45;&gt;node6 -->
<g id="edge6" class="edge">
<title>node5&#45;&gt;node6</title>
<path fill="none" stroke="black" d="M507.48,-511.53C496.31,-502.5 483.29,-491.13 472.58,-481.12"/>
<polygon fill="black" stroke="black" points="474.9,-478.5 465.26,-474.12 470.07,-483.56 474.9,-478.5"/>
<text text-anchor="middle" x="484.2" y="-476.83" font-family="Times,serif" font-size="14.00">*0</text>
</g>
<!-- node5&#45;&gt;node6 -->
<g id="edge8" class="edge">
<title>node5&#45;&gt;node6</title>
<path fill="none" stroke="green" d="M518.35,-510.81C509.08,-501.74 496.56,-490.48 484.83,-480.6"/>
<polygon fill="green" stroke="green" points="486.82,-477.71 476.89,-474.03 482.36,-483.1 486.82,-477.71"/>
</g>
<!-- node12 -->
<g id="node7" class="node">
<title>node12</title>
<polygon fill="lightgrey" stroke="black" points="622.34,-109 383.34,-109 383.34,-73 622.34,-73 622.34,-109"/>
<text text-anchor="middle" x="502.84" y="-87.3" font-family="Times,serif" font-size="14.00">#12 PutField : float_field : float</text>
</g>
<!-- node5&#45;&gt;node12 -->
<g id="edge11" class="edge">
<title>node5&#45;&gt;node12</title>
<path fill="none" stroke="black" d="M582.08,-520.78C618.3,-512.41 660.84,-494.58 660.84,-457 660.84,-457 660.84,-457 660.84,-163 660.84,-139.69 646.35,-123.98 626.14,-113.41"/>
<polygon fill="black" stroke="black" points="627.37,-110.12 616.83,-109.05 624.4,-116.46 627.37,-110.12"/>
<text text-anchor="middle" x="636.83" y="-105.38" font-family="Times,serif" font-size="14.00">*0</text>
</g>
<!-- node13 -->
<g id="node13" class="node">
<title>node13</title>
<polygon fill="lightgrey" stroke="black" points="553.34,-36 452.34,-36 452.34,0 553.34,0 553.34,-36"/>
<text text-anchor="middle" x="502.84" y="-14.3" font-family="Times,serif" font-size="14.00">#13 Return</text>
</g>
<!-- node12&#45;&gt;node13 -->
<g id="edge26" class="edge">
<title>node12&#45;&gt;node13</title>
<path fill="none" stroke="red" d="M496.96,-72.81C496.12,-64.79 495.89,-55.05 496.26,-46.07"/>
<polygon fill="red" stroke="red" points="499.76,-46.25 496.98,-36.03 492.77,-45.75 499.76,-46.25"/>
</g>
<!-- node12&#45;&gt;node13 -->
<g id="edge27" class="edge">
<title>node12&#45;&gt;node13</title>
<path fill="none" stroke="green" d="M508.72,-72.81C509.56,-64.79 509.79,-55.05 509.42,-46.07"/>
<polygon fill="green" stroke="green" points="512.9,-45.75 508.7,-36.03 505.92,-46.25 512.9,-45.75"/>
</g>
<!-- node11 -->
<g id="node8" class="node">
<title>node11</title>
<polygon fill="orange" stroke="black" points="337.51,-156.54 337.51,-171.46 238.71,-182 98.97,-182 0.16,-171.46 0.16,-156.54 98.97,-146 238.71,-146 337.51,-156.54"/>
<text text-anchor="middle" x="168.84" y="-160.3" font-family="Times,serif" font-size="14.00">#11 GetField : float_field : float</text>
</g>
<!-- node11&#45;&gt;node12 -->
<g id="edge12" class="edge">
<title>node11&#45;&gt;node12</title>
<path fill="none" stroke="black" d="M241.74,-146.26C290.15,-135.73 354.18,-122.1 406.73,-111.14"/>
<polygon fill="black" stroke="black" points="407.67,-114.52 416.74,-109.06 406.24,-107.67 407.67,-114.52"/>
<text text-anchor="middle" x="400.72" y="-117.33" font-family="Times,serif" font-size="14.00">*1</text>
</g>
<!-- node11&#45;&gt;node12 -->
<g id="edge13" class="edge">
<title>node11&#45;&gt;node12</title>
<path fill="none" stroke="green" d="M249.53,-147.07C300.72,-136.45 366.77,-122.43 418.62,-111.19"/>
<polygon fill="green" stroke="green" points="419.43,-114.6 428.46,-109.06 417.94,-107.76 419.43,-114.6"/>
</g>
<!-- node10 -->
<g id="node9" class="node">
<title>node10</title>
<polygon fill="lightgrey" stroke="black" points="632.34,-182 373.34,-182 373.34,-146 632.34,-146 632.34,-182"/>
<text text-anchor="middle" x="502.84" y="-160.3" font-family="Times,serif" font-size="14.00">#10 Invoke special &lt;init&gt; : ()void</text>
</g>
<!-- node10&#45;&gt;node12 -->
<g id="edge14" class="edge">
<title>node10&#45;&gt;node12</title>
<path fill="none" stroke="red" d="M502.84,-145.81C502.84,-137.79 502.84,-128.05 502.84,-119.07"/>
<polygon fill="red" stroke="red" points="506.34,-119.03 502.84,-109.03 499.34,-119.03 506.34,-119.03"/>
</g>
<!-- node10&#45;&gt;node11 -->
<g id="edge25" class="edge">
<title>node10&#45;&gt;node11</title>
<path fill="none" stroke="green" d="M373.25,-164C364.85,-164 356.45,-164 348.04,-164"/>
<polygon fill="green" stroke="green" points="347.8,-160.5 337.8,-164 347.8,-167.5 347.8,-160.5"/>
</g>
<!-- node9 -->
<g id="node10" class="node">
<title>node9</title>
<polygon fill="orange" stroke="black" points="474.96,-229.54 474.96,-244.46 444.43,-255 401.25,-255 370.72,-244.46 370.72,-229.54 401.25,-219 444.43,-219 474.96,-229.54"/>
<text text-anchor="middle" x="422.84" y="-233.3" font-family="Times,serif" font-size="14.00">#9 New</text>
</g>
<!-- node9&#45;&gt;node11 -->
<g id="edge24" class="edge">
<title>node9&#45;&gt;node11</title>
<path fill="none" stroke="black" d="M383.43,-224.98C345.18,-214.29 286.27,-197.83 239.84,-184.85"/>
<polygon fill="black" stroke="black" points="240.71,-181.46 230.14,-182.14 238.83,-188.2 240.71,-181.46"/>
<text text-anchor="middle" x="249.87" y="-175.17" font-family="Times,serif" font-size="14.00">*0</text>
</g>
<!-- node9&#45;&gt;node10 -->
<g id="edge15" class="edge">
<title>node9&#45;&gt;node10</title>
<path fill="none" stroke="black" d="M436.33,-218.81C445.6,-209.74 458.12,-198.48 469.85,-188.6"/>
<polygon fill="black" stroke="black" points="472.31,-191.1 477.79,-182.03 467.85,-185.71 472.31,-191.1"/>
<text text-anchor="middle" x="469.21" y="-196.4" font-family="Times,serif" font-size="14.00">*0</text>
</g>
<!-- node9&#45;&gt;node10 -->
<g id="edge17" class="edge">
<title>node9&#45;&gt;node10</title>
<path fill="none" stroke="green" d="M447.19,-219.53C458.37,-210.5 471.39,-199.13 482.09,-189.12"/>
<polygon fill="green" stroke="green" points="484.61,-191.56 489.42,-182.12 479.77,-186.5 484.61,-191.56"/>
</g>
<!-- node8&#45;&gt;node10 -->
<g id="edge16" class="edge">
<title>node8&#45;&gt;node10</title>
<path fill="none" stroke="red" d="M459.64,-291.74C468.02,-281.7 477.81,-268.41 483.84,-255 492.82,-235.03 497.63,-210.64 500.16,-192.29"/>
<polygon fill="red" stroke="red" points="503.65,-192.62 501.4,-182.26 496.7,-191.76 503.65,-192.62"/>
</g>
<!-- node8&#45;&gt;node9 -->
<g id="edge18" class="edge">
<title>node8&#45;&gt;node9</title>
<path fill="none" stroke="black" d="M432.88,-291.81C429.66,-283.79 426.55,-274.05 424.27,-265.07"/>
<polygon fill="black" stroke="black" points="427.62,-264.02 422.01,-255.03 420.79,-265.55 427.62,-264.02"/>
<text text-anchor="middle" x="434.23" y="-267.16" font-family="Times,serif" font-size="14.00">*0</text>
</g>
<!-- node8&#45;&gt;node9 -->
<g id="edge19" class="edge">
<title>node8&#45;&gt;node9</title>
<path fill="none" stroke="green" d="M444.63,-291.81C443.07,-283.62 440.34,-273.62 437.22,-264.48"/>
<polygon fill="green" stroke="green" points="440.48,-263.2 433.74,-255.03 433.91,-265.62 440.48,-263.2"/>
</g>
<!-- node7&#45;&gt;node8 -->
<g id="edge20" class="edge">
<title>node7&#45;&gt;node8</title>
<path fill="none" stroke="black" d="M449.9,-364.81C449,-356.79 447.9,-347.05 446.89,-338.07"/>
<polygon fill="black" stroke="black" points="450.35,-337.57 445.76,-328.03 443.4,-338.36 450.35,-337.57"/>
<text text-anchor="middle" x="456.19" y="-341.39" font-family="Times,serif" font-size="14.00">*0</text>
</g>
<!-- c0 -->
<!-- c1 -->
<!-- c0&#45;&gt;c1 -->
<g id="edge28" class="edge">
<title>c0&#45;&gt;c1</title>
<path fill="none" stroke="red" d="M1483.73,-830C1494.94,-830 1553.08,-830 1578.7,-830"/>
<polygon fill="red" stroke="red" points="1578.89,-833.5 1588.89,-830 1578.89,-826.5 1578.89,-833.5"/>
<text text-anchor="middle" x="1536.34" y="-836.8" font-family="Times,serif" font-size="14.00">Control flow</text>
</g>
<!-- c2 -->
<!-- c3 -->
<!-- c2&#45;&gt;c3 -->
<g id="edge29" class="edge">
<title>c2&#45;&gt;c3</title>
<path fill="none" stroke="red" stroke-dasharray="5,2" d="M1276.92,-830C1293.89,-830 1410.04,-830 1447.92,-830"/>
<polygon fill="red" stroke="red" points="1448.01,-833.5 1458.01,-830 1448.01,-826.5 1448.01,-833.5"/>
<text text-anchor="middle" x="1367.34" y="-836.8" font-family="Times,serif" font-size="14.00">Control flow back edge</text>
</g>
<!-- d0 -->
<!-- d1 -->
<!-- d0&#45;&gt;d1 -->
<g id="edge30" class="edge">
<title>d0&#45;&gt;d1</title>
<path fill="none" stroke="black" d="M1165.7,-830C1175.24,-830 1219.15,-830 1240.76,-830"/>
<polygon fill="black" stroke="black" points="1240.99,-833.5 1250.99,-830 1240.99,-826.5 1240.99,-833.5"/>
<text text-anchor="middle" x="1208.34" y="-836.8" font-family="Times,serif" font-size="14.00">Data flow</text>
</g>
<!-- d2 -->
<!-- d3 -->
<!-- d2&#45;&gt;d3 -->
<g id="edge31" class="edge">
<title>d2&#45;&gt;d3</title>
<path fill="none" stroke="black" stroke-dasharray="1,5" d="M1039.64,-830C1050.29,-830 1105.3,-830 1129.91,-830"/>
<polygon fill="black" stroke="black" points="1129.98,-833.5 1139.98,-830 1129.98,-826.5 1129.98,-833.5"/>
<text text-anchor="middle" x="1089.84" y="-836.8" font-family="Times,serif" font-size="14.00">Declaration</text>
</g>
<!-- d4 -->
<!-- d5 -->
<!-- d4&#45;&gt;d5 -->
<g id="edge32" class="edge">
<title>d4&#45;&gt;d5</title>
<path fill="none" stroke="blue" d="M896.94,-830C909.56,-830 975.72,-830 1003.52,-830"/>
<polygon fill="blue" stroke="blue" points="1003.68,-833.5 1013.68,-830 1003.68,-826.5 1003.68,-833.5"/>
<text text-anchor="middle" x="955.34" y="-836.8" font-family="Times,serif" font-size="14.00">PHI Data flow</text>
</g>
<!-- d6 -->
<!-- d7 -->
<!-- d6&#45;&gt;d7 -->
<g id="edge33" class="edge">
<title>d6&#45;&gt;d7</title>
<path fill="none" stroke="green" d="M759.83,-830C771.78,-830 834.14,-830 860.77,-830"/>
<polygon fill="green" stroke="green" points="860.79,-833.5 870.79,-830 860.79,-826.5 860.79,-833.5"/>
<text text-anchor="middle" x="815.34" y="-836.8" font-family="Times,serif" font-size="14.00">Memory flow</text>
</g>
</g>
</svg>
