<?xml version="1.0" encoding="UTF-8" standalone="no"?>
<!DOCTYPE svg PUBLIC "-//W3C//DTD SVG 1.1//EN"
 "http://www.w3.org/Graphics/SVG/1.1/DTD/svg11.dtd">
<!-- Generated by graphviz version 2.43.0 (0)
 -->
<!-- Title: %3 Pages: 1 -->
<svg width="1755pt" height="222pt"
 viewBox="0.00 0.00 1755.00 221.80" xmlns="http://www.w3.org/2000/svg" xmlns:xlink="http://www.w3.org/1999/xlink">
<g id="graph0" class="graph" transform="scale(1 1) rotate(0) translate(4 217.8)">
<title>%3</title>
<polygon fill="white" stroke="transparent" points="-4,4 -4,-217.8 1751,-217.8 1751,4 -4,4"/>
<g id="clust1" class="cluster">
<title>cluster_000</title>
<polygon fill="none" stroke="black" points="886,-163.2 886,-205.8 1739,-205.8 1739,-163.2 886,-163.2"/>
<text text-anchor="middle" x="1312.5" y="-190.6" font-family="Times,serif" font-size="14.00">Legend</text>
</g>
<!-- node0 -->
<g id="node1" class="node">
<title>node0</title>
<polygon fill="lightgrey" stroke="transparent" points="876,-200 0,-200 0,-146 876,-146 876,-200"/>
<polygon fill="none" stroke="black" points="0,-173 0,-200 876,-200 876,-173 0,-173"/>
<text text-anchor="start" x="397.5" y="-182.8" font-family="Times,serif" font-size="14.00">#0 Method</text>
<polygon fill="yellow" stroke="transparent" points="0,-146 0,-173 79,-173 79,-146 0,-146"/>
<polygon fill="none" stroke="black" points="0,-146 0,-173 79,-173 79,-146 0,-146"/>
<text text-anchor="start" x="6" y="-155.8" font-family="Times,serif" font-size="14.00">arg0 : int</text>
<polygon fill="yellow" stroke="transparent" points="79,-146 79,-173 158,-173 158,-146 79,-146"/>
<polygon fill="none" stroke="black" points="79,-146 79,-173 158,-173 158,-146 79,-146"/>
<text text-anchor="start" x="85" y="-155.8" font-family="Times,serif" font-size="14.00">arg1 : int</text>
<polygon fill="yellow" stroke="transparent" points="158,-146 158,-173 237,-173 237,-146 158,-146"/>
<polygon fill="none" stroke="black" points="158,-146 158,-173 237,-173 237,-146 158,-146"/>
<text text-anchor="start" x="164" y="-155.8" font-family="Times,serif" font-size="14.00">arg2 : int</text>
<polygon fill="yellow" stroke="transparent" points="237,-146 237,-173 316,-173 316,-146 237,-146"/>
<polygon fill="none" stroke="black" points="237,-146 237,-173 316,-173 316,-146 237,-146"/>
<text text-anchor="start" x="243" y="-155.8" font-family="Times,serif" font-size="14.00">arg3 : int</text>
<polygon fill="yellow" stroke="transparent" points="316,-146 316,-173 395,-173 395,-146 316,-146"/>
<polygon fill="none" stroke="black" points="316,-146 316,-173 395,-173 395,-146 316,-146"/>
<text text-anchor="start" x="322" y="-155.8" font-family="Times,serif" font-size="14.00">arg4 : int</text>
<polygon fill="yellow" stroke="transparent" points="395,-146 395,-173 485,-173 485,-146 395,-146"/>
<polygon fill="none" stroke="black" points="395,-146 395,-173 485,-173 485,-146 395,-146"/>
<text text-anchor="start" x="401" y="-155.8" font-family="Times,serif" font-size="14.00">arg5 : long</text>
<polygon fill="yellow" stroke="transparent" points="485,-146 485,-173 576,-173 576,-146 485,-146"/>
<polygon fill="none" stroke="black" points="485,-146 485,-173 576,-173 576,-146 485,-146"/>
<text text-anchor="start" x="491" y="-155.8" font-family="Times,serif" font-size="14.00">arg6 : float</text>
<polygon fill="yellow" stroke="transparent" points="576,-146 576,-173 683,-173 683,-146 576,-146"/>
<polygon fill="none" stroke="black" points="576,-146 576,-173 683,-173 683,-146 576,-146"/>
<text text-anchor="start" x="582" y="-155.8" font-family="Times,serif" font-size="14.00">arg7 : double</text>
<polygon fill="yellow" stroke="transparent" points="683,-146 683,-173 787,-173 787,-146 683,-146"/>
<polygon fill="none" stroke="black" points="683,-146 683,-173 787,-173 787,-146 683,-146"/>
<text text-anchor="start" x="689" y="-155.8" font-family="Times,serif" font-size="14.00">arg8 : String</text>
<polygon fill="yellow" stroke="transparent" points="787,-146 787,-173 876,-173 876,-146 787,-146"/>
<polygon fill="none" stroke="black" points="787,-146 787,-173 876,-173 876,-146 787,-146"/>
<text text-anchor="start" x="793" y="-155.8" font-family="Times,serif" font-size="14.00">arg9 : int[]</text>
</g>
<!-- node11 -->
<g id="node2" class="node">
<title>node11</title>
<polygon fill="lightgrey" stroke="black" points="486,-109 358,-109 358,-73 486,-73 486,-109"/>
<text text-anchor="middle" x="422" y="-87.3" font-family="Times,serif" font-size="14.00">#11 LabelNode</text>
</g>
<!-- node0&#45;&gt;node11 -->
<g id="edge1" class="edge">
<title>node0&#45;&gt;node11</title>
<path fill="none" stroke="red" d="M432.76,-145.81C431.05,-137.25 429.15,-127.74 427.42,-119.12"/>
<polygon fill="red" stroke="red" points="430.83,-118.29 425.43,-109.17 423.96,-119.67 430.83,-118.29"/>
</g>
<!-- node12 -->
<g id="node3" class="node">
<title>node12</title>
<polygon fill="lightgrey" stroke="black" points="409.5,-36 236.5,-36 236.5,0 409.5,0 409.5,-36"/>
<text text-anchor="middle" x="323" y="-14.3" font-family="Times,serif" font-size="14.00">#12 ReturnValue : int</text>
</g>
<!-- node0&#45;&gt;node12 -->
<g id="edge2" class="edge">
<title>node0:prj4&#45;&gt;node12</title>
<path fill="none" stroke="black" d="M276,-146C270.49,-109.15 285.97,-69.81 300.87,-44.85"/>
<polygon fill="black" stroke="black" points="303.88,-46.65 306.3,-36.33 297.97,-42.89 303.88,-46.65"/>
<text text-anchor="middle" x="303.69" y="-52.46" font-family="Times,serif" font-size="14.00">*0</text>
</g>
<!-- node0&#45;&gt;node12 -->
<g id="edge4" class="edge">
<title>node0&#45;&gt;node12</title>
<path fill="none" stroke="green" d="M276.05,-145.65C281.59,-109.17 301.01,-70.32 313.41,-45.41"/>
<polygon fill="green" stroke="green" points="316.64,-46.79 317.93,-36.27 310.36,-43.68 316.64,-46.79"/>
</g>
<!-- node11&#45;&gt;node12 -->
<g id="edge3" class="edge">
<title>node11&#45;&gt;node12</title>
<path fill="none" stroke="red" d="M398.29,-72.99C385.4,-63.75 369.28,-52.19 355.27,-42.14"/>
<polygon fill="red" stroke="red" points="357.03,-39.1 346.86,-36.11 352.95,-44.79 357.03,-39.1"/>
</g>
<!-- c0 -->
<!-- c1 -->
<!-- c0&#45;&gt;c1 -->
<g id="edge5" class="edge">
<title>c0&#45;&gt;c1</title>
<path fill="none" stroke="red" d="M1621.89,-173C1633.11,-173 1691.24,-173 1716.86,-173"/>
<polygon fill="red" stroke="red" points="1717.06,-176.5 1727.06,-173 1717.06,-169.5 1717.06,-176.5"/>
<text text-anchor="middle" x="1674.5" y="-179.8" font-family="Times,serif" font-size="14.00">Control flow</text>
</g>
<!-- c2 -->
<!-- c3 -->
<!-- c2&#45;&gt;c3 -->
<g id="edge6" class="edge">
<title>c2&#45;&gt;c3</title>
<path fill="none" stroke="red" stroke-dasharray="5,2" d="M1415.08,-173C1432.05,-173 1548.21,-173 1586.08,-173"/>
<polygon fill="red" stroke="red" points="1586.17,-176.5 1596.17,-173 1586.17,-169.5 1586.17,-176.5"/>
<text text-anchor="middle" x="1505.5" y="-179.8" font-family="Times,serif" font-size="14.00">Control flow back edge</text>
</g>
<!-- d0 -->
<!-- d1 -->
<!-- d0&#45;&gt;d1 -->
<g id="edge7" class="edge">
<title>d0&#45;&gt;d1</title>
<path fill="none" stroke="black" d="M1303.86,-173C1313.41,-173 1357.31,-173 1378.92,-173"/>
<polygon fill="black" stroke="black" points="1379.15,-176.5 1389.15,-173 1379.15,-169.5 1379.15,-176.5"/>
<text text-anchor="middle" x="1346.5" y="-179.8" font-family="Times,serif" font-size="14.00">Data flow</text>
</g>
<!-- d2 -->
<!-- d3 -->
<!-- d2&#45;&gt;d3 -->
<g id="edge8" class="edge">
<title>d2&#45;&gt;d3</title>
<path fill="none" stroke="black" stroke-dasharray="1,5" d="M1177.81,-173C1188.46,-173 1243.46,-173 1268.08,-173"/>
<polygon fill="black" stroke="black" points="1268.15,-176.5 1278.15,-173 1268.15,-169.5 1268.15,-176.5"/>
<text text-anchor="middle" x="1228" y="-179.8" font-family="Times,serif" font-size="14.00">Declaration</text>
</g>
<!-- d4 -->
<!-- d5 -->
<!-- d4&#45;&gt;d5 -->
<g id="edge9" class="edge">
<title>d4&#45;&gt;d5</title>
<path fill="none" stroke="blue" d="M1035.1,-173C1047.72,-173 1113.88,-173 1141.68,-173"/>
<polygon fill="blue" stroke="blue" points="1141.84,-176.5 1151.84,-173 1141.84,-169.5 1141.84,-176.5"/>
<text text-anchor="middle" x="1093.5" y="-179.8" font-family="Times,serif" font-size="14.00">PHI Data flow</text>
</g>
<!-- d6 -->
<!-- d7 -->
<!-- d6&#45;&gt;d7 -->
<g id="edge10" class="edge">
<title>d6&#45;&gt;d7</title>
<path fill="none" stroke="green" d="M898,-173C909.94,-173 972.3,-173 998.93,-173"/>
<polygon fill="green" stroke="green" points="998.95,-176.5 1008.95,-173 998.95,-169.5 998.95,-176.5"/>
<text text-anchor="middle" x="953.5" y="-179.8" font-family="Times,serif" font-size="14.00">Memory flow</text>
</g>
</g>
</svg>
