<?xml version="1.0" encoding="UTF-8" standalone="no"?>
<!DOCTYPE svg PUBLIC "-//W3C//DTD SVG 1.1//EN"
 "http://www.w3.org/Graphics/SVG/1.1/DTD/svg11.dtd">
<!-- Generated by graphviz version 2.43.0 (0)
 -->
<!-- Title: debugoutput Pages: 1 -->
<svg width="2308pt" height="213pt"
 viewBox="0.00 0.00 2308.49 212.80" xmlns="http://www.w3.org/2000/svg" xmlns:xlink="http://www.w3.org/1999/xlink">
<g id="graph0" class="graph" transform="scale(1 1) rotate(0) translate(4 208.8)">
<title>debugoutput</title>
<polygon fill="white" stroke="transparent" points="-4,4 -4,-208.8 2304.49,-208.8 2304.49,4 -4,4"/>
<g id="clust1" class="cluster">
<title>cluster_000</title>
<polygon fill="none" stroke="black" points="1218,-154.2 1218,-196.8 2194,-196.8 2194,-154.2 1218,-154.2"/>
<text text-anchor="middle" x="1706" y="-181.6" font-family="Times,serif" font-size="14.00">Legend</text>
</g>
<!-- node0 -->
<g id="node1" class="node">
<title>node0</title>
<polygon fill="lightgrey" stroke="black" points="1208,-182 1042,-182 1042,-146 1208,-146 1208,-182"/>
<text text-anchor="middle" x="1125" y="-160.3" font-family="Times,serif" font-size="14.00">#0 Method Order : 0</text>
</g>
<!-- node1 -->
<g id="node2" class="node">
<title>node1</title>
<polygon fill="lightgrey" stroke="black" points="186,-109 0,-109 0,-73 186,-73 186,-109"/>
<text text-anchor="middle" x="93" y="-87.3" font-family="Times,serif" font-size="14.00">#1 arg1 : int Order : 12</text>
</g>
<!-- node0&#45;&gt;node1 -->
<g id="edge2" class="edge">
<title>node0&#45;&gt;node1</title>
<path fill="none" stroke="black" d="M1041.7,-161.28C879.13,-157.19 508.49,-144.5 195.89,-110.1"/>
<polygon fill="black" stroke="black" points="196.06,-106.6 185.73,-108.97 195.28,-113.55 196.06,-106.6"/>
<text text-anchor="middle" x="204.68" y="-98.87" font-family="Times,serif" font-size="14.00">*0</text>
</g>
<!-- node2 -->
<g id="node3" class="node">
<title>node2</title>
<polygon fill="lightgrey" stroke="black" points="390,-109 204,-109 204,-73 390,-73 390,-109"/>
<text text-anchor="middle" x="297" y="-87.3" font-family="Times,serif" font-size="14.00">#2 arg2 : int Order : 11</text>
</g>
<!-- node0&#45;&gt;node2 -->
<g id="edge4" class="edge">
<title>node0&#45;&gt;node2</title>
<path fill="none" stroke="black" d="M1041.95,-159.55C907.31,-153.2 633.19,-137.74 399.77,-110.16"/>
<polygon fill="black" stroke="black" points="400.08,-106.68 389.73,-108.97 399.25,-113.63 400.08,-106.68"/>
<text text-anchor="middle" x="408.73" y="-99.02" font-family="Times,serif" font-size="14.00">*0</text>
</g>
<!-- node3 -->
<g id="node4" class="node">
<title>node3</title>
<polygon fill="lightgrey" stroke="black" points="594,-109 408,-109 408,-73 594,-73 594,-109"/>
<text text-anchor="middle" x="501" y="-87.3" font-family="Times,serif" font-size="14.00">#3 arg4 : int Order : 10</text>
</g>
<!-- node0&#45;&gt;node3 -->
<g id="edge6" class="edge">
<title>node0&#45;&gt;node3</title>
<path fill="none" stroke="black" d="M1041.57,-156.58C938.86,-147.92 759.13,-131.18 603.67,-110.44"/>
<polygon fill="black" stroke="black" points="603.84,-106.93 593.46,-109.06 602.91,-113.86 603.84,-106.93"/>
<text text-anchor="middle" x="612.55" y="-99.4" font-family="Times,serif" font-size="14.00">*0</text>
</g>
<!-- node4 -->
<g id="node5" class="node">
<title>node4</title>
<polygon fill="lightgrey" stroke="black" points="788.5,-109 611.5,-109 611.5,-73 788.5,-73 788.5,-109"/>
<text text-anchor="middle" x="700" y="-87.3" font-family="Times,serif" font-size="14.00">#4 arg3 : int Order : 8</text>
</g>
<!-- node0&#45;&gt;node4 -->
<g id="edge8" class="edge">
<title>node0&#45;&gt;node4</title>
<path fill="none" stroke="black" d="M1041.85,-150.63C976.29,-140.2 882.43,-124.78 798.65,-110.63"/>
<polygon fill="black" stroke="black" points="799.19,-107.17 788.74,-108.96 798.02,-114.08 799.19,-107.17"/>
<text text-anchor="middle" x="808.03" y="-99.94" font-family="Times,serif" font-size="14.00">*0</text>
</g>
<!-- node5 -->
<g id="node6" class="node">
<title>node5</title>
<polygon fill="lightgrey" stroke="black" points="1013,-109 807,-109 807,-73 1013,-73 1013,-109"/>
<text text-anchor="middle" x="910" y="-87.3" font-family="Times,serif" font-size="14.00">#5 arg7 : double Order : 7</text>
</g>
<!-- node0&#45;&gt;node5 -->
<g id="edge10" class="edge">
<title>node0&#45;&gt;node5</title>
<path fill="none" stroke="black" d="M1067.64,-145.99C1035.95,-135.88 996.81,-122.99 965.43,-112.34"/>
<polygon fill="black" stroke="black" points="966.55,-109.03 955.95,-109.11 964.29,-115.65 966.55,-109.03"/>
<text text-anchor="middle" x="975.84" y="-103.26" font-family="Times,serif" font-size="14.00">*0</text>
</g>
<!-- node6 -->
<g id="node7" class="node">
<title>node6</title>
<polygon fill="lightgrey" stroke="black" points="1219,-109 1031,-109 1031,-73 1219,-73 1219,-109"/>
<text text-anchor="middle" x="1125" y="-87.3" font-family="Times,serif" font-size="14.00">#6 arg9 : int[] Order : 6</text>
</g>
<!-- node0&#45;&gt;node6 -->
<g id="edge12" class="edge">
<title>node0&#45;&gt;node6</title>
<path fill="none" stroke="black" d="M1119.12,-145.81C1118.28,-137.79 1118.05,-128.05 1118.42,-119.07"/>
<polygon fill="black" stroke="black" points="1121.92,-119.25 1119.14,-109.03 1114.94,-118.75 1121.92,-119.25"/>
<text text-anchor="middle" x="1126.28" y="-124.01" font-family="Times,serif" font-size="14.00">*0</text>
</g>
<!-- node7 -->
<g id="node8" class="node">
<title>node7</title>
<polygon fill="lightgrey" stroke="black" points="1440.5,-109 1237.5,-109 1237.5,-73 1440.5,-73 1440.5,-109"/>
<text text-anchor="middle" x="1339" y="-87.3" font-family="Times,serif" font-size="14.00">#7 arg8 : String Order : 5</text>
</g>
<!-- node0&#45;&gt;node7 -->
<g id="edge14" class="edge">
<title>node0&#45;&gt;node7</title>
<path fill="none" stroke="black" d="M1170.4,-145.99C1199.93,-135.84 1238.89,-122.88 1271.95,-112.2"/>
<polygon fill="black" stroke="black" points="1273.1,-115.51 1281.55,-109.11 1270.96,-108.85 1273.1,-115.51"/>
<text text-anchor="middle" x="1266.88" y="-119.01" font-family="Times,serif" font-size="14.00">*0</text>
</g>
<!-- node8 -->
<g id="node9" class="node">
<title>node8</title>
<polygon fill="lightgrey" stroke="black" points="1647,-109 1459,-109 1459,-73 1647,-73 1647,-109"/>
<text text-anchor="middle" x="1553" y="-87.3" font-family="Times,serif" font-size="14.00">#8 arg5 : long Order : 4</text>
</g>
<!-- node0&#45;&gt;node8 -->
<g id="edge16" class="edge">
<title>node0&#45;&gt;node8</title>
<path fill="none" stroke="black" d="M1205.31,-145.95C1309.65,-127.81 1336.28,-125.85 1441,-109 1443.54,-108.59 1446.12,-108.17 1448.73,-107.75"/>
<polygon fill="black" stroke="black" points="1449.56,-111.16 1458.87,-106.11 1448.44,-104.25 1449.56,-111.16"/>
<text text-anchor="middle" x="1442.34" y="-113.65" font-family="Times,serif" font-size="14.00">*0</text>
</g>
<!-- node9 -->
<g id="node10" class="node">
<title>node9</title>
<polygon fill="lightgrey" stroke="black" points="1842.5,-109 1665.5,-109 1665.5,-73 1842.5,-73 1842.5,-109"/>
<text text-anchor="middle" x="1754" y="-87.3" font-family="Times,serif" font-size="14.00">#9 arg0 : int Order : 3</text>
</g>
<!-- node0&#45;&gt;node9 -->
<g id="edge18" class="edge">
<title>node0&#45;&gt;node9</title>
<path fill="none" stroke="black" d="M1205.29,-145.96C1400.36,-119.26 1451.57,-134.08 1647,-109 1649.72,-108.65 1652.47,-108.28 1655.25,-107.89"/>
<polygon fill="black" stroke="black" points="1656.03,-111.32 1665.42,-106.41 1655.02,-104.39 1656.03,-111.32"/>
<text text-anchor="middle" x="1648.7" y="-113.69" font-family="Times,serif" font-size="14.00">*0</text>
</g>
<!-- node10 -->
<g id="node11" class="node">
<title>node10</title>
<polygon fill="lightgrey" stroke="black" points="2059,-109 1861,-109 1861,-73 2059,-73 2059,-109"/>
<text text-anchor="middle" x="1960" y="-87.3" font-family="Times,serif" font-size="14.00">#10 arg6 : float Order : 2</text>
</g>
<!-- node0&#45;&gt;node10 -->
<g id="edge20" class="edge">
<title>node0&#45;&gt;node10</title>
<path fill="none" stroke="black" d="M1205.41,-145.95C1346.63,-128.52 1701.93,-124.16 1843,-109 1845.56,-108.73 1848.15,-108.43 1850.77,-108.12"/>
<polygon fill="black" stroke="black" points="1851.45,-111.56 1860.94,-106.86 1850.59,-104.62 1851.45,-111.56"/>
<text text-anchor="middle" x="1844" y="-113.78" font-family="Times,serif" font-size="14.00">*0</text>
</g>
<!-- node11 -->
<g id="node12" class="node">
<title>node11</title>
<polygon fill="lightgrey" stroke="black" points="2274.5,-109 2077.5,-109 2077.5,-73 2274.5,-73 2274.5,-109"/>
<text text-anchor="middle" x="2176" y="-87.3" font-family="Times,serif" font-size="14.00">#11 LabelNode Order : 1</text>
</g>
<!-- node0&#45;&gt;node11 -->
<g id="edge22" class="edge">
<title>node0&#45;&gt;node11</title>
<path fill="none" stroke="red" d="M1205.28,-145.97C1394.14,-124.01 1870.08,-127.9 2059,-109 2061.7,-108.73 2064.43,-108.44 2067.18,-108.13"/>
<polygon fill="red" stroke="red" points="2067.73,-111.58 2077.25,-106.92 2066.9,-104.63 2067.73,-111.58"/>
</g>
<!-- node12 -->
<g id="node13" class="node">
<title>node12</title>
<polygon fill="lightgrey" stroke="black" points="2297,-36 2055,-36 2055,0 2297,0 2297,-36"/>
<text text-anchor="middle" x="2176" y="-14.3" font-family="Times,serif" font-size="14.00">#12 ReturnValue : int Order : 9</text>
</g>
<!-- node0&#45;&gt;node12 -->
<g id="edge26" class="edge">
<title>node0&#45;&gt;node12</title>
<path fill="none" stroke="green" d="M1205.36,-145.96C1267.89,-139.42 2233.76,-151.7 2275,-109 2286.12,-97.49 2283.41,-86.61 2275,-73 2266.33,-58.97 2252.79,-48.46 2238.45,-40.64"/>
<polygon fill="green" stroke="green" points="2239.96,-37.48 2229.46,-36.11 2236.81,-43.73 2239.96,-37.48"/>
</g>
<!-- node1&#45;&gt;node0 -->
<g id="edge1" class="edge">
<title>node1&#45;&gt;node0</title>
<path fill="none" stroke="fuchsia" stroke-width="2" d="M186.21,-106.76C192.23,-107.59 198.2,-108.35 204,-109 505.67,-142.8 864.91,-156.06 1031.59,-160.74"/>
<polygon fill="fuchsia" stroke="fuchsia" stroke-width="2" points="1031.71,-164.24 1041.8,-161.02 1031.9,-157.24 1031.71,-164.24"/>
</g>
<!-- node2&#45;&gt;node0 -->
<g id="edge3" class="edge">
<title>node2&#45;&gt;node0</title>
<path fill="none" stroke="fuchsia" stroke-width="2" d="M390.22,-106.65C396.24,-107.51 402.21,-108.3 408,-109 631.27,-135.85 894.87,-151.46 1031.88,-158.49"/>
<polygon fill="fuchsia" stroke="fuchsia" stroke-width="2" points="1031.76,-161.99 1041.93,-159 1032.12,-155 1031.76,-161.99"/>
</g>
<!-- node3&#45;&gt;node0 -->
<g id="edge5" class="edge">
<title>node3&#45;&gt;node0</title>
<path fill="none" stroke="fuchsia" stroke-width="2" d="M594.24,-106.6C599.92,-107.45 605.54,-108.26 611,-109 757.84,-128.92 928.77,-145.29 1031.89,-154.6"/>
<polygon fill="fuchsia" stroke="fuchsia" stroke-width="2" points="1031.69,-158.1 1041.96,-155.51 1032.31,-151.13 1031.69,-158.1"/>
</g>
<!-- node4&#45;&gt;node0 -->
<g id="edge7" class="edge">
<title>node4&#45;&gt;node0</title>
<path fill="none" stroke="fuchsia" stroke-width="2" d="M788.66,-105.88C794.88,-106.94 801.04,-107.99 807,-109 882.8,-121.83 968.54,-135.98 1031.93,-146.57"/>
<polygon fill="fuchsia" stroke="fuchsia" stroke-width="2" points="1031.46,-150.04 1041.9,-148.24 1032.62,-143.14 1031.46,-150.04"/>
</g>
<!-- node4&#45;&gt;node12 -->
<g id="edge24" class="edge">
<title>node4&#45;&gt;node12</title>
<path fill="none" stroke="black" d="M788.6,-74.09C791.77,-73.69 794.91,-73.33 798,-73 1254.17,-24.71 1799.38,-18.46 2044.84,-18.36"/>
<polygon fill="black" stroke="black" points="2044.88,-21.86 2054.88,-18.36 2044.88,-14.86 2044.88,-21.86"/>
<text text-anchor="middle" x="2036.75" y="-23.12" font-family="Times,serif" font-size="14.00">*0</text>
</g>
<!-- node5&#45;&gt;node0 -->
<g id="edge9" class="edge">
<title>node5&#45;&gt;node0</title>
<path fill="none" stroke="fuchsia" stroke-width="2" d="M967.69,-109.11C999.3,-119.2 1038.24,-132.03 1069.5,-142.63"/>
<polygon fill="fuchsia" stroke="fuchsia" stroke-width="2" points="1068.77,-146.08 1079.36,-145.99 1071.02,-139.46 1068.77,-146.08"/>
</g>
<!-- node6&#45;&gt;node0 -->
<g id="edge11" class="edge">
<title>node6&#45;&gt;node0</title>
<path fill="none" stroke="fuchsia" stroke-width="2" d="M1130.86,-109.03C1131.71,-117.03 1131.95,-126.77 1131.59,-135.75"/>
<polygon fill="fuchsia" stroke="fuchsia" stroke-width="2" points="1128.09,-135.59 1130.88,-145.81 1135.07,-136.08 1128.09,-135.59"/>
</g>
<!-- node7&#45;&gt;node0 -->
<g id="edge13" class="edge">
<title>node7&#45;&gt;node0</title>
<path fill="none" stroke="fuchsia" stroke-width="2" d="M1293.29,-109.11C1263.69,-119.29 1224.72,-132.25 1191.71,-142.91"/>
<polygon fill="fuchsia" stroke="fuchsia" stroke-width="2" points="1190.57,-139.6 1182.12,-145.99 1192.71,-146.26 1190.57,-139.6"/>
</g>
<!-- node8&#45;&gt;node0 -->
<g id="edge15" class="edge">
<title>node8&#45;&gt;node0</title>
<path fill="none" stroke="fuchsia" stroke-width="2" d="M1458.69,-109.05C1354.13,-125.87 1327.5,-127.83 1223,-146 1221.5,-146.26 1219.98,-146.53 1218.46,-146.8"/>
<polygon fill="fuchsia" stroke="fuchsia" stroke-width="2" points="1217.48,-143.42 1208.25,-148.62 1218.71,-150.31 1217.48,-143.42"/>
</g>
<!-- node9&#45;&gt;node0 -->
<g id="edge17" class="edge">
<title>node9&#45;&gt;node0</title>
<path fill="none" stroke="fuchsia" stroke-width="2" d="M1665.26,-108.97C1665.17,-108.98 1665.09,-108.99 1665,-109 1469.47,-134.09 1418.31,-119.25 1223,-146 1221.49,-146.21 1219.97,-146.42 1218.43,-146.65"/>
<polygon fill="fuchsia" stroke="fuchsia" stroke-width="2" points="1217.54,-143.24 1208.19,-148.22 1218.6,-150.16 1217.54,-143.24"/>
</g>
<!-- node10&#45;&gt;node0 -->
<g id="edge19" class="edge">
<title>node10&#45;&gt;node0</title>
<path fill="none" stroke="fuchsia" stroke-width="2" d="M1860.59,-109.04C1719.1,-124.18 1363.8,-128.55 1223,-146 1221.49,-146.19 1219.96,-146.39 1218.43,-146.59"/>
<polygon fill="fuchsia" stroke="fuchsia" stroke-width="2" points="1217.56,-143.18 1208.17,-148.08 1218.57,-150.11 1217.56,-143.18"/>
</g>
<!-- node11&#45;&gt;node0 -->
<g id="edge21" class="edge">
<title>node11&#45;&gt;node0</title>
<path fill="none" stroke="fuchsia" stroke-width="2" d="M2077.28,-108.97C2077.19,-108.98 2077.09,-108.99 2077,-109 1887.99,-127.91 1411.68,-124.01 1223,-146 1221.49,-146.18 1219.96,-146.36 1218.42,-146.56"/>
<polygon fill="fuchsia" stroke="fuchsia" stroke-width="2" points="1217.58,-143.14 1208.16,-148 1218.55,-150.08 1217.58,-143.14"/>
</g>
<!-- node11&#45;&gt;node12 -->
<g id="edge25" class="edge">
<title>node11&#45;&gt;node12</title>
<path fill="none" stroke="red" d="M2176,-72.81C2176,-64.79 2176,-55.05 2176,-46.07"/>
<polygon fill="red" stroke="red" points="2179.5,-46.03 2176,-36.03 2172.5,-46.03 2179.5,-46.03"/>
</g>
<!-- node12&#45;&gt;node0 -->
<g id="edge23" class="edge">
<title>node12&#45;&gt;node0</title>
<path fill="none" stroke="fuchsia" stroke-width="2" d="M2246.54,-36.11C2264.96,-44.26 2282.53,-56.06 2293,-73 2301.41,-86.61 2304.12,-97.49 2293,-109 2251.67,-151.78 1282.11,-139.37 1223,-146 1221.49,-146.17 1219.96,-146.35 1218.42,-146.54"/>
<polygon fill="fuchsia" stroke="fuchsia" stroke-width="2" points="1217.59,-143.12 1208.15,-147.95 1218.54,-150.06 1217.59,-143.12"/>
</g>
<!-- c0 -->
<!-- c1 -->
<!-- c0&#45;&gt;c1 -->
<g id="edge27" class="edge">
<title>c0&#45;&gt;c1</title>
<path fill="none" stroke="red" d="M2076.89,-164C2088.11,-164 2146.24,-164 2171.86,-164"/>
<polygon fill="red" stroke="red" points="2172.06,-167.5 2182.06,-164 2172.06,-160.5 2172.06,-167.5"/>
<text text-anchor="middle" x="2129.5" y="-170.8" font-family="Times,serif" font-size="14.00">Control flow</text>
</g>
<!-- c2 -->
<!-- c3 -->
<!-- c2&#45;&gt;c3 -->
<g id="edge28" class="edge">
<title>c2&#45;&gt;c3</title>
<path fill="none" stroke="red" stroke-dasharray="5,2" d="M1870.08,-164C1887.05,-164 2003.21,-164 2041.08,-164"/>
<polygon fill="red" stroke="red" points="2041.17,-167.5 2051.17,-164 2041.17,-160.5 2041.17,-167.5"/>
<text text-anchor="middle" x="1960.5" y="-170.8" font-family="Times,serif" font-size="14.00">Control flow back edge</text>
</g>
<!-- d0 -->
<!-- d1 -->
<!-- d0&#45;&gt;d1 -->
<g id="edge29" class="edge">
<title>d0&#45;&gt;d1</title>
<path fill="none" stroke="black" d="M1758.86,-164C1768.41,-164 1812.31,-164 1833.92,-164"/>
<polygon fill="black" stroke="black" points="1834.15,-167.5 1844.15,-164 1834.15,-160.5 1834.15,-167.5"/>
<text text-anchor="middle" x="1801.5" y="-170.8" font-family="Times,serif" font-size="14.00">Data flow</text>
</g>
<!-- d2 -->
<!-- d3 -->
<!-- d2&#45;&gt;d3 -->
<g id="edge30" class="edge">
<title>d2&#45;&gt;d3</title>
<path fill="none" stroke="black" stroke-dasharray="1,5" d="M1632.81,-164C1643.46,-164 1698.46,-164 1723.08,-164"/>
<polygon fill="black" stroke="black" points="1723.15,-167.5 1733.15,-164 1723.15,-160.5 1723.15,-167.5"/>
<text text-anchor="middle" x="1683" y="-170.8" font-family="Times,serif" font-size="14.00">Declaration</text>
</g>
<!-- d4 -->
<!-- d5 -->
<!-- d4&#45;&gt;d5 -->
<g id="edge31" class="edge">
<title>d4&#45;&gt;d5</title>
<path fill="none" stroke="blue" d="M1490.1,-164C1502.72,-164 1568.88,-164 1596.68,-164"/>
<polygon fill="blue" stroke="blue" points="1596.84,-167.5 1606.84,-164 1596.84,-160.5 1596.84,-167.5"/>
<text text-anchor="middle" x="1548.5" y="-170.8" font-family="Times,serif" font-size="14.00">PHI Data flow</text>
</g>
<!-- d6 -->
<!-- d7 -->
<!-- d6&#45;&gt;d7 -->
<g id="edge32" class="edge">
<title>d6&#45;&gt;d7</title>
<path fill="none" stroke="green" d="M1353,-164C1364.94,-164 1427.3,-164 1453.93,-164"/>
<polygon fill="green" stroke="green" points="1453.95,-167.5 1463.95,-164 1453.95,-160.5 1453.95,-167.5"/>
<text text-anchor="middle" x="1408.5" y="-170.8" font-family="Times,serif" font-size="14.00">Memory flow</text>
</g>
<!-- d8 -->
<!-- d9 -->
<!-- d8&#45;&gt;d9 -->
<g id="edge33" class="edge">
<title>d8&#45;&gt;d9</title>
<path fill="none" stroke="fuchsia" d="M1230.11,-164C1241.15,-164 1292.67,-164 1316.66,-164"/>
<polygon fill="fuchsia" stroke="fuchsia" points="1316.9,-167.5 1326.9,-164 1316.9,-160.5 1316.9,-167.5"/>
<text text-anchor="middle" x="1278.5" y="-170.8" font-family="Times,serif" font-size="14.00">Dominance</text>
</g>
</g>
</svg>
