<?xml version="1.0" encoding="UTF-8" standalone="no"?>
<!DOCTYPE svg PUBLIC "-//W3C//DTD SVG 1.1//EN"
 "http://www.w3.org/Graphics/SVG/1.1/DTD/svg11.dtd">
<!-- Generated by graphviz version 2.43.0 (0)
 -->
<!-- Title: debugoutput Pages: 1 -->
<svg width="2307pt" height="213pt"
 viewBox="0.00 0.00 2307.49 212.80" xmlns="http://www.w3.org/2000/svg" xmlns:xlink="http://www.w3.org/1999/xlink">
<g id="graph0" class="graph" transform="scale(1 1) rotate(0) translate(4 208.8)">
<title>debugoutput</title>
<polygon fill="white" stroke="transparent" points="-4,4 -4,-208.8 2303.49,-208.8 2303.49,4 -4,4"/>
<g id="clust1" class="cluster">
<title>cluster_000</title>
<polygon fill="none" stroke="black" points="1196,-154.2 1196,-196.8 2172,-196.8 2172,-154.2 1196,-154.2"/>
<text text-anchor="middle" x="1684" y="-181.6" font-family="Times,serif" font-size="14.00">Legend</text>
</g>
<!-- node0 -->
<g id="node1" class="node">
<title>node0</title>
<polygon fill="lightgrey" stroke="black" points="1186,-182 1020,-182 1020,-146 1186,-146 1186,-182"/>
<text text-anchor="middle" x="1103" y="-160.3" font-family="Times,serif" font-size="14.00">#0 Method Order : 0</text>
</g>
<!-- node1 -->
<g id="node2" class="node">
<title>node1</title>
<polygon fill="lightgrey" stroke="black" points="186,-109 0,-109 0,-73 186,-73 186,-109"/>
<text text-anchor="middle" x="93" y="-87.3" font-family="Times,serif" font-size="14.00">#1 arg2 : int Order : 12</text>
</g>
<!-- node0&#45;&gt;node1 -->
<g id="edge2" class="edge">
<title>node0&#45;&gt;node1</title>
<path fill="none" stroke="black" d="M1019.7,-161.13C860.01,-156.81 500.01,-143.78 196.07,-110.12"/>
<polygon fill="black" stroke="black" points="196.06,-106.6 185.73,-108.97 195.28,-113.56 196.06,-106.6"/>
<text text-anchor="middle" x="204.68" y="-98.88" font-family="Times,serif" font-size="14.00">*0</text>
</g>
<!-- node2 -->
<g id="node3" class="node">
<title>node2</title>
<polygon fill="lightgrey" stroke="black" points="390,-109 204,-109 204,-73 390,-73 390,-109"/>
<text text-anchor="middle" x="297" y="-87.3" font-family="Times,serif" font-size="14.00">#2 arg0 : int Order : 11</text>
</g>
<!-- node0&#45;&gt;node2 -->
<g id="edge4" class="edge">
<title>node0&#45;&gt;node2</title>
<path fill="none" stroke="black" d="M1019.9,-159.3C888.45,-152.7 624.67,-137.01 399.74,-110.17"/>
<polygon fill="black" stroke="black" points="400.08,-106.69 389.73,-108.97 399.24,-113.64 400.08,-106.69"/>
<text text-anchor="middle" x="408.74" y="-99.04" font-family="Times,serif" font-size="14.00">*0</text>
</g>
<!-- node3 -->
<g id="node4" class="node">
<title>node3</title>
<polygon fill="lightgrey" stroke="black" points="594,-109 408,-109 408,-73 594,-73 594,-109"/>
<text text-anchor="middle" x="501" y="-87.3" font-family="Times,serif" font-size="14.00">#3 arg1 : int Order : 10</text>
</g>
<!-- node0&#45;&gt;node3 -->
<g id="edge6" class="edge">
<title>node0&#45;&gt;node3</title>
<path fill="none" stroke="black" d="M1019.78,-156.13C920.88,-147.23 750.9,-130.46 603.56,-110.45"/>
<polygon fill="black" stroke="black" points="603.82,-106.95 593.44,-109.06 602.87,-113.88 603.82,-106.95"/>
<text text-anchor="middle" x="612.54" y="-99.44" font-family="Times,serif" font-size="14.00">*0</text>
</g>
<!-- node4 -->
<g id="node5" class="node">
<title>node4</title>
<polygon fill="lightgrey" stroke="black" points="788.5,-109 611.5,-109 611.5,-73 788.5,-73 788.5,-109"/>
<text text-anchor="middle" x="700" y="-87.3" font-family="Times,serif" font-size="14.00">#4 arg3 : int Order : 8</text>
</g>
<!-- node0&#45;&gt;node4 -->
<g id="edge8" class="edge">
<title>node0&#45;&gt;node4</title>
<path fill="none" stroke="black" d="M1019.84,-149.31C955.54,-138.25 866.39,-122.58 798.52,-110.41"/>
<polygon fill="black" stroke="black" points="799.13,-106.97 788.67,-108.65 797.89,-113.86 799.13,-106.97"/>
<text text-anchor="middle" x="808" y="-99.83" font-family="Times,serif" font-size="14.00">*0</text>
</g>
<!-- node5 -->
<g id="node6" class="node">
<title>node5</title>
<polygon fill="lightgrey" stroke="black" points="983.5,-109 806.5,-109 806.5,-73 983.5,-73 983.5,-109"/>
<text text-anchor="middle" x="895" y="-87.3" font-family="Times,serif" font-size="14.00">#5 arg4 : int Order : 7</text>
</g>
<!-- node0&#45;&gt;node5 -->
<g id="edge10" class="edge">
<title>node0&#45;&gt;node5</title>
<path fill="none" stroke="black" d="M1047.32,-145.99C1016.75,-135.92 979.08,-123.1 948.81,-112.48"/>
<polygon fill="black" stroke="black" points="949.86,-109.14 939.27,-109.11 947.53,-115.74 949.86,-109.14"/>
<text text-anchor="middle" x="959.17" y="-103.47" font-family="Times,serif" font-size="14.00">*0</text>
</g>
<!-- node6 -->
<g id="node7" class="node">
<title>node6</title>
<polygon fill="lightgrey" stroke="black" points="1204.5,-109 1001.5,-109 1001.5,-73 1204.5,-73 1204.5,-109"/>
<text text-anchor="middle" x="1103" y="-87.3" font-family="Times,serif" font-size="14.00">#6 arg8 : String Order : 6</text>
</g>
<!-- node0&#45;&gt;node6 -->
<g id="edge12" class="edge">
<title>node0&#45;&gt;node6</title>
<path fill="none" stroke="black" d="M1097.12,-145.81C1096.28,-137.79 1096.05,-128.05 1096.42,-119.07"/>
<polygon fill="black" stroke="black" points="1099.92,-119.25 1097.14,-109.03 1092.94,-118.75 1099.92,-119.25"/>
<text text-anchor="middle" x="1104.28" y="-124.01" font-family="Times,serif" font-size="14.00">*0</text>
</g>
<!-- node7 -->
<g id="node8" class="node">
<title>node7</title>
<polygon fill="lightgrey" stroke="black" points="1429,-109 1223,-109 1223,-73 1429,-73 1429,-109"/>
<text text-anchor="middle" x="1326" y="-87.3" font-family="Times,serif" font-size="14.00">#7 arg7 : double Order : 5</text>
</g>
<!-- node0&#45;&gt;node7 -->
<g id="edge14" class="edge">
<title>node0&#45;&gt;node7</title>
<path fill="none" stroke="black" d="M1150.55,-145.99C1181.38,-135.84 1221.98,-122.88 1256.38,-112.2"/>
<polygon fill="black" stroke="black" points="1257.86,-115.41 1266.38,-109.11 1255.79,-108.72 1257.86,-115.41"/>
<text text-anchor="middle" x="1251.56" y="-118.84" font-family="Times,serif" font-size="14.00">*0</text>
</g>
<!-- node8 -->
<g id="node9" class="node">
<title>node8</title>
<polygon fill="lightgrey" stroke="black" points="1636.5,-109 1447.5,-109 1447.5,-73 1636.5,-73 1636.5,-109"/>
<text text-anchor="middle" x="1542" y="-87.3" font-family="Times,serif" font-size="14.00">#8 arg6 : float Order : 4</text>
</g>
<!-- node0&#45;&gt;node8 -->
<g id="edge16" class="edge">
<title>node0&#45;&gt;node8</title>
<path fill="none" stroke="black" d="M1183.32,-145.95C1292.04,-127.4 1319.88,-126.12 1429,-109 1431.7,-108.58 1434.44,-108.14 1437.21,-107.7"/>
<polygon fill="black" stroke="black" points="1438.01,-111.12 1447.34,-106.09 1436.91,-104.21 1438.01,-111.12"/>
<text text-anchor="middle" x="1430.76" y="-113.59" font-family="Times,serif" font-size="14.00">*0</text>
</g>
<!-- node9 -->
<g id="node10" class="node">
<title>node9</title>
<polygon fill="lightgrey" stroke="black" points="1843,-109 1655,-109 1655,-73 1843,-73 1843,-109"/>
<text text-anchor="middle" x="1749" y="-87.3" font-family="Times,serif" font-size="14.00">#9 arg5 : long Order : 3</text>
</g>
<!-- node0&#45;&gt;node9 -->
<g id="edge18" class="edge">
<title>node0&#45;&gt;node9</title>
<path fill="none" stroke="black" d="M1183.29,-145.96C1383.66,-118.76 1436.17,-133.71 1637,-109 1639.56,-108.69 1642.15,-108.35 1644.76,-108.01"/>
<polygon fill="black" stroke="black" points="1645.52,-111.44 1654.95,-106.6 1644.56,-104.5 1645.52,-111.44"/>
<text text-anchor="middle" x="1638.14" y="-113.75" font-family="Times,serif" font-size="14.00">*0</text>
</g>
<!-- node10 -->
<g id="node11" class="node">
<title>node10</title>
<polygon fill="lightgrey" stroke="black" points="2058.5,-109 1861.5,-109 1861.5,-73 2058.5,-73 2058.5,-109"/>
<text text-anchor="middle" x="1960" y="-87.3" font-family="Times,serif" font-size="14.00">#10 arg9 : int[] Order : 2</text>
</g>
<!-- node0&#45;&gt;node10 -->
<g id="edge20" class="edge">
<title>node0&#45;&gt;node10</title>
<path fill="none" stroke="black" d="M1183.43,-145.95C1329.52,-128.06 1697.07,-124.54 1843,-109 1845.69,-108.71 1848.42,-108.41 1851.18,-108.08"/>
<polygon fill="black" stroke="black" points="1851.74,-111.54 1861.24,-106.83 1850.88,-104.59 1851.74,-111.54"/>
<text text-anchor="middle" x="1844.29" y="-113.75" font-family="Times,serif" font-size="14.00">*0</text>
</g>
<!-- node11 -->
<g id="node12" class="node">
<title>node11</title>
<polygon fill="lightgrey" stroke="black" points="2273.5,-109 2076.5,-109 2076.5,-73 2273.5,-73 2273.5,-109"/>
<text text-anchor="middle" x="2175" y="-87.3" font-family="Times,serif" font-size="14.00">#11 LabelNode Order : 1</text>
</g>
<!-- node0&#45;&gt;node11 -->
<g id="edge22" class="edge">
<title>node0&#45;&gt;node11</title>
<path fill="none" stroke="red" d="M1183.28,-145.97C1377.02,-123.56 1865.23,-128.42 2059,-109 2061.41,-108.76 2063.84,-108.5 2066.3,-108.22"/>
<polygon fill="red" stroke="red" points="2066.98,-111.67 2076.5,-107 2066.15,-104.72 2066.98,-111.67"/>
</g>
<!-- node12 -->
<g id="node13" class="node">
<title>node12</title>
<polygon fill="lightgrey" stroke="black" points="2296,-36 2054,-36 2054,0 2296,0 2296,-36"/>
<text text-anchor="middle" x="2175" y="-14.3" font-family="Times,serif" font-size="14.00">#12 ReturnValue : int Order : 9</text>
</g>
<!-- node0&#45;&gt;node12 -->
<g id="edge26" class="edge">
<title>node0&#45;&gt;node12</title>
<path fill="none" stroke="green" d="M1183.36,-145.96C1247.13,-139.31 2231.93,-152.52 2274,-109 2285.12,-97.5 2282.41,-86.61 2274,-73 2265.33,-58.97 2251.79,-48.46 2237.45,-40.64"/>
<polygon fill="green" stroke="green" points="2238.96,-37.48 2228.46,-36.11 2235.81,-43.73 2238.96,-37.48"/>
</g>
<!-- node1&#45;&gt;node0 -->
<g id="edge1" class="edge">
<title>node1&#45;&gt;node0</title>
<path fill="none" stroke="fuchsia" stroke-width="2" d="M186.21,-106.75C192.23,-107.58 198.2,-108.35 204,-109 497.19,-142.06 846.08,-155.63 1009.69,-160.54"/>
<polygon fill="fuchsia" stroke="fuchsia" stroke-width="2" points="1009.62,-164.04 1019.72,-160.84 1009.83,-157.05 1009.62,-164.04"/>
</g>
<!-- node2&#45;&gt;node0 -->
<g id="edge3" class="edge">
<title>node2&#45;&gt;node0</title>
<path fill="none" stroke="fuchsia" stroke-width="2" d="M390.22,-106.64C396.24,-107.5 402.21,-108.3 408,-109 622.81,-135.09 876.12,-150.87 1009.74,-158.16"/>
<polygon fill="fuchsia" stroke="fuchsia" stroke-width="2" points="1009.76,-161.67 1019.93,-158.71 1010.14,-154.68 1009.76,-161.67"/>
</g>
<!-- node3&#45;&gt;node0 -->
<g id="edge5" class="edge">
<title>node3&#45;&gt;node0</title>
<path fill="none" stroke="fuchsia" stroke-width="2" d="M594.25,-106.57C599.92,-107.43 605.54,-108.25 611,-109 749.66,-128.13 910.71,-144.44 1009.79,-153.98"/>
<polygon fill="fuchsia" stroke="fuchsia" stroke-width="2" points="1009.49,-157.47 1019.78,-154.94 1010.16,-150.5 1009.49,-157.47"/>
</g>
<!-- node4&#45;&gt;node0 -->
<g id="edge7" class="edge">
<title>node4&#45;&gt;node0</title>
<path fill="none" stroke="fuchsia" stroke-width="2" d="M788.8,-106.66C854.3,-117.95 943.17,-133.59 1009.71,-145.52"/>
<polygon fill="fuchsia" stroke="fuchsia" stroke-width="2" points="1009.31,-149.01 1019.77,-147.33 1010.55,-142.12 1009.31,-149.01"/>
</g>
<!-- node4&#45;&gt;node12 -->
<g id="edge24" class="edge">
<title>node4&#45;&gt;node12</title>
<path fill="none" stroke="black" d="M788.74,-73.96C791.52,-73.61 794.28,-73.29 797,-73 1253.12,-24.32 1798.36,-18.26 2043.84,-18.29"/>
<polygon fill="black" stroke="black" points="2043.87,-21.79 2053.87,-18.29 2043.87,-14.79 2043.87,-21.79"/>
<text text-anchor="middle" x="2035.74" y="-23.04" font-family="Times,serif" font-size="14.00">*0</text>
</g>
<!-- node5&#45;&gt;node0 -->
<g id="edge9" class="edge">
<title>node5&#45;&gt;node0</title>
<path fill="none" stroke="fuchsia" stroke-width="2" d="M951.01,-109.11C981.62,-119.2 1019.29,-132.03 1049.51,-142.63"/>
<polygon fill="fuchsia" stroke="fuchsia" stroke-width="2" points="1048.44,-145.97 1059.04,-145.99 1050.77,-139.37 1048.44,-145.97"/>
</g>
<!-- node6&#45;&gt;node0 -->
<g id="edge11" class="edge">
<title>node6&#45;&gt;node0</title>
<path fill="none" stroke="fuchsia" stroke-width="2" d="M1108.86,-109.03C1109.71,-117.03 1109.95,-126.77 1109.59,-135.75"/>
<polygon fill="fuchsia" stroke="fuchsia" stroke-width="2" points="1106.09,-135.59 1108.88,-145.81 1113.07,-136.08 1106.09,-135.59"/>
</g>
<!-- node7&#45;&gt;node0 -->
<g id="edge13" class="edge">
<title>node7&#45;&gt;node0</title>
<path fill="none" stroke="fuchsia" stroke-width="2" d="M1278.12,-109.11C1247.23,-119.29 1206.62,-132.25 1172.25,-142.91"/>
<polygon fill="fuchsia" stroke="fuchsia" stroke-width="2" points="1170.79,-139.7 1162.27,-145.99 1172.86,-146.38 1170.79,-139.7"/>
</g>
<!-- node8&#45;&gt;node0 -->
<g id="edge15" class="edge">
<title>node8&#45;&gt;node0</title>
<path fill="none" stroke="fuchsia" stroke-width="2" d="M1447.27,-108.96C1447.18,-108.97 1447.09,-108.99 1447,-109 1337.77,-126.14 1309.99,-127.4 1201,-146 1199.5,-146.26 1197.98,-146.52 1196.45,-146.78"/>
<polygon fill="fuchsia" stroke="fuchsia" stroke-width="2" points="1195.48,-143.4 1186.24,-148.59 1196.7,-150.29 1195.48,-143.4"/>
</g>
<!-- node9&#45;&gt;node0 -->
<g id="edge17" class="edge">
<title>node9&#45;&gt;node0</title>
<path fill="none" stroke="fuchsia" stroke-width="2" d="M1654.71,-109.04C1454.02,-133.71 1401.51,-118.76 1201,-146 1199.49,-146.21 1197.97,-146.42 1196.43,-146.64"/>
<polygon fill="fuchsia" stroke="fuchsia" stroke-width="2" points="1195.54,-143.24 1186.19,-148.21 1196.6,-150.16 1195.54,-143.24"/>
</g>
<!-- node10&#45;&gt;node0 -->
<g id="edge19" class="edge">
<title>node10&#45;&gt;node0</title>
<path fill="none" stroke="fuchsia" stroke-width="2" d="M1861.28,-108.97C1861.19,-108.98 1861.09,-108.99 1861,-109 1714.93,-124.55 1346.8,-128.07 1201,-146 1199.49,-146.19 1197.96,-146.38 1196.43,-146.59"/>
<polygon fill="fuchsia" stroke="fuchsia" stroke-width="2" points="1195.57,-143.18 1186.17,-148.07 1196.57,-150.1 1195.57,-143.18"/>
</g>
<!-- node11&#45;&gt;node0 -->
<g id="edge21" class="edge">
<title>node11&#45;&gt;node0</title>
<path fill="none" stroke="fuchsia" stroke-width="2" d="M2076.72,-109.03C1882.65,-128.42 1394.45,-123.56 1201,-146 1199.49,-146.18 1197.96,-146.36 1196.42,-146.56"/>
<polygon fill="fuchsia" stroke="fuchsia" stroke-width="2" points="1195.58,-143.14 1186.16,-147.99 1196.55,-150.08 1195.58,-143.14"/>
</g>
<!-- node11&#45;&gt;node12 -->
<g id="edge25" class="edge">
<title>node11&#45;&gt;node12</title>
<path fill="none" stroke="red" d="M2175,-72.81C2175,-64.79 2175,-55.05 2175,-46.07"/>
<polygon fill="red" stroke="red" points="2178.5,-46.03 2175,-36.03 2171.5,-46.03 2178.5,-46.03"/>
</g>
<!-- node12&#45;&gt;node0 -->
<g id="edge23" class="edge">
<title>node12&#45;&gt;node0</title>
<path fill="none" stroke="fuchsia" stroke-width="2" d="M2245.54,-36.11C2263.96,-44.26 2281.53,-56.06 2292,-73 2300.41,-86.61 2303.12,-97.5 2292,-109 2249.85,-152.6 1261.27,-139.26 1201,-146 1199.49,-146.17 1197.96,-146.35 1196.42,-146.54"/>
<polygon fill="fuchsia" stroke="fuchsia" stroke-width="2" points="1195.59,-143.12 1186.15,-147.94 1196.54,-150.06 1195.59,-143.12"/>
</g>
<!-- c0 -->
<!-- c1 -->
<!-- c0&#45;&gt;c1 -->
<g id="edge27" class="edge">
<title>c0&#45;&gt;c1</title>
<path fill="none" stroke="red" d="M2054.89,-164C2066.11,-164 2124.24,-164 2149.86,-164"/>
<polygon fill="red" stroke="red" points="2150.06,-167.5 2160.06,-164 2150.06,-160.5 2150.06,-167.5"/>
<text text-anchor="middle" x="2107.5" y="-170.8" font-family="Times,serif" font-size="14.00">Control flow</text>
</g>
<!-- c2 -->
<!-- c3 -->
<!-- c2&#45;&gt;c3 -->
<g id="edge28" class="edge">
<title>c2&#45;&gt;c3</title>
<path fill="none" stroke="red" stroke-dasharray="5,2" d="M1848.08,-164C1865.05,-164 1981.21,-164 2019.08,-164"/>
<polygon fill="red" stroke="red" points="2019.17,-167.5 2029.17,-164 2019.17,-160.5 2019.17,-167.5"/>
<text text-anchor="middle" x="1938.5" y="-170.8" font-family="Times,serif" font-size="14.00">Control flow back edge</text>
</g>
<!-- d0 -->
<!-- d1 -->
<!-- d0&#45;&gt;d1 -->
<g id="edge29" class="edge">
<title>d0&#45;&gt;d1</title>
<path fill="none" stroke="black" d="M1736.86,-164C1746.41,-164 1790.31,-164 1811.92,-164"/>
<polygon fill="black" stroke="black" points="1812.15,-167.5 1822.15,-164 1812.15,-160.5 1812.15,-167.5"/>
<text text-anchor="middle" x="1779.5" y="-170.8" font-family="Times,serif" font-size="14.00">Data flow</text>
</g>
<!-- d2 -->
<!-- d3 -->
<!-- d2&#45;&gt;d3 -->
<g id="edge30" class="edge">
<title>d2&#45;&gt;d3</title>
<path fill="none" stroke="black" stroke-dasharray="1,5" d="M1610.81,-164C1621.46,-164 1676.46,-164 1701.08,-164"/>
<polygon fill="black" stroke="black" points="1701.15,-167.5 1711.15,-164 1701.15,-160.5 1701.15,-167.5"/>
<text text-anchor="middle" x="1661" y="-170.8" font-family="Times,serif" font-size="14.00">Declaration</text>
</g>
<!-- d4 -->
<!-- d5 -->
<!-- d4&#45;&gt;d5 -->
<g id="edge31" class="edge">
<title>d4&#45;&gt;d5</title>
<path fill="none" stroke="blue" d="M1468.1,-164C1480.72,-164 1546.88,-164 1574.68,-164"/>
<polygon fill="blue" stroke="blue" points="1574.84,-167.5 1584.84,-164 1574.84,-160.5 1574.84,-167.5"/>
<text text-anchor="middle" x="1526.5" y="-170.8" font-family="Times,serif" font-size="14.00">PHI Data flow</text>
</g>
<!-- d6 -->
<!-- d7 -->
<!-- d6&#45;&gt;d7 -->
<g id="edge32" class="edge">
<title>d6&#45;&gt;d7</title>
<path fill="none" stroke="green" d="M1331,-164C1342.94,-164 1405.3,-164 1431.93,-164"/>
<polygon fill="green" stroke="green" points="1431.95,-167.5 1441.95,-164 1431.95,-160.5 1431.95,-167.5"/>
<text text-anchor="middle" x="1386.5" y="-170.8" font-family="Times,serif" font-size="14.00">Memory flow</text>
</g>
<!-- d8 -->
<!-- d9 -->
<!-- d8&#45;&gt;d9 -->
<g id="edge33" class="edge">
<title>d8&#45;&gt;d9</title>
<path fill="none" stroke="fuchsia" d="M1208.11,-164C1219.15,-164 1270.67,-164 1294.66,-164"/>
<polygon fill="fuchsia" stroke="fuchsia" points="1294.9,-167.5 1304.9,-164 1294.9,-160.5 1294.9,-167.5"/>
<text text-anchor="middle" x="1256.5" y="-170.8" font-family="Times,serif" font-size="14.00">Dominance</text>
</g>
</g>
</svg>
