<?xml version="1.0" encoding="UTF-8" standalone="no"?>
<!DOCTYPE svg PUBLIC "-//W3C//DTD SVG 1.1//EN"
 "http://www.w3.org/Graphics/SVG/1.1/DTD/svg11.dtd">
<!-- Generated by graphviz version 2.43.0 (0)
 -->
<!-- Title: debugoutput Pages: 1 -->
<svg width="2309pt" height="213pt"
 viewBox="0.00 0.00 2309.49 212.80" xmlns="http://www.w3.org/2000/svg" xmlns:xlink="http://www.w3.org/1999/xlink">
<g id="graph0" class="graph" transform="scale(1 1) rotate(0) translate(4 208.8)">
<title>debugoutput</title>
<polygon fill="white" stroke="transparent" points="-4,4 -4,-208.8 2305.49,-208.8 2305.49,4 -4,4"/>
<g id="clust1" class="cluster">
<title>cluster_000</title>
<polygon fill="none" stroke="black" points="1231,-154.2 1231,-196.8 2207,-196.8 2207,-154.2 1231,-154.2"/>
<text text-anchor="middle" x="1719" y="-181.6" font-family="Times,serif" font-size="14.00">Legend</text>
</g>
<!-- node0 -->
<g id="node1" class="node">
<title>node0</title>
<polygon fill="lightgrey" stroke="black" points="1221,-182 1055,-182 1055,-146 1221,-146 1221,-182"/>
<text text-anchor="middle" x="1138" y="-160.3" font-family="Times,serif" font-size="14.00">#0 Method Order : 0</text>
</g>
<!-- node1 -->
<g id="node2" class="node">
<title>node1</title>
<polygon fill="lightgrey" stroke="black" points="186,-109 0,-109 0,-73 186,-73 186,-109"/>
<text text-anchor="middle" x="93" y="-87.3" font-family="Times,serif" font-size="14.00">#1 arg0 : int Order : 12</text>
</g>
<!-- node0&#45;&gt;node1 -->
<g id="edge2" class="edge">
<title>node0&#45;&gt;node1</title>
<path fill="none" stroke="black" d="M1054.88,-161.38C890.77,-157.43 513.84,-144.95 196.06,-110.11"/>
<polygon fill="black" stroke="black" points="196.06,-106.59 185.73,-108.97 195.29,-113.55 196.06,-106.59"/>
<text text-anchor="middle" x="204.68" y="-98.86" font-family="Times,serif" font-size="14.00">*0</text>
</g>
<!-- node2 -->
<g id="node3" class="node">
<title>node2</title>
<polygon fill="lightgrey" stroke="black" points="390,-109 204,-109 204,-73 390,-73 390,-109"/>
<text text-anchor="middle" x="297" y="-87.3" font-family="Times,serif" font-size="14.00">#2 arg4 : int Order : 11</text>
</g>
<!-- node0&#45;&gt;node2 -->
<g id="edge4" class="edge">
<title>node0&#45;&gt;node2</title>
<path fill="none" stroke="black" d="M1054.95,-159.69C918.46,-153.49 638.37,-138.18 399.98,-110.18"/>
<polygon fill="black" stroke="black" points="400.07,-106.67 389.73,-108.97 399.25,-113.62 400.07,-106.67"/>
<text text-anchor="middle" x="408.73" y="-99.01" font-family="Times,serif" font-size="14.00">*0</text>
</g>
<!-- node3 -->
<g id="node4" class="node">
<title>node3</title>
<polygon fill="lightgrey" stroke="black" points="623.5,-109 408.5,-109 408.5,-73 623.5,-73 623.5,-109"/>
<text text-anchor="middle" x="516" y="-87.3" font-family="Times,serif" font-size="14.00">#3 arg7 : double Order : 10</text>
</g>
<!-- node0&#45;&gt;node3 -->
<g id="edge6" class="edge">
<title>node0&#45;&gt;node3</title>
<path fill="none" stroke="black" d="M1054.67,-155.67C955.05,-146.25 783.27,-128.88 633.95,-110.25"/>
<polygon fill="black" stroke="black" points="634.05,-106.73 623.69,-108.96 633.18,-113.68 634.05,-106.73"/>
<text text-anchor="middle" x="642.73" y="-99.13" font-family="Times,serif" font-size="14.00">*0</text>
</g>
<!-- node4 -->
<g id="node5" class="node">
<title>node4</title>
<polygon fill="lightgrey" stroke="black" points="830,-109 642,-109 642,-73 830,-73 830,-109"/>
<text text-anchor="middle" x="736" y="-87.3" font-family="Times,serif" font-size="14.00">#4 arg5 : long Order : 9</text>
</g>
<!-- node0&#45;&gt;node4 -->
<g id="edge8" class="edge">
<title>node0&#45;&gt;node4</title>
<path fill="none" stroke="black" d="M1054.54,-149.23C991.27,-138.31 904.09,-122.95 836.91,-110.89"/>
<polygon fill="black" stroke="black" points="837.19,-107.38 826.72,-109.06 835.95,-114.27 837.19,-107.38"/>
<text text-anchor="middle" x="846.06" y="-100.25" font-family="Times,serif" font-size="14.00">*0</text>
</g>
<!-- node5 -->
<g id="node6" class="node">
<title>node5</title>
<polygon fill="lightgrey" stroke="black" points="1025.5,-109 848.5,-109 848.5,-73 1025.5,-73 1025.5,-109"/>
<text text-anchor="middle" x="937" y="-87.3" font-family="Times,serif" font-size="14.00">#5 arg1 : int Order : 8</text>
</g>
<!-- node0&#45;&gt;node5 -->
<g id="edge10" class="edge">
<title>node0&#45;&gt;node5</title>
<path fill="none" stroke="black" d="M1084,-145.99C1054.55,-135.97 1018.33,-123.21 989.17,-112.62"/>
<polygon fill="black" stroke="black" points="990.17,-109.26 979.58,-109.11 987.77,-115.83 990.17,-109.26"/>
<text text-anchor="middle" x="999.5" y="-103.69" font-family="Times,serif" font-size="14.00">*0</text>
</g>
<!-- node6 -->
<g id="node7" class="node">
<title>node6</title>
<polygon fill="lightgrey" stroke="black" points="1232,-109 1044,-109 1044,-73 1232,-73 1232,-109"/>
<text text-anchor="middle" x="1138" y="-87.3" font-family="Times,serif" font-size="14.00">#6 arg9 : int[] Order : 7</text>
</g>
<!-- node0&#45;&gt;node6 -->
<g id="edge12" class="edge">
<title>node0&#45;&gt;node6</title>
<path fill="none" stroke="black" d="M1132.12,-145.81C1131.28,-137.79 1131.05,-128.05 1131.42,-119.07"/>
<polygon fill="black" stroke="black" points="1134.92,-119.25 1132.14,-109.03 1127.94,-118.75 1134.92,-119.25"/>
<text text-anchor="middle" x="1139.28" y="-124.01" font-family="Times,serif" font-size="14.00">*0</text>
</g>
<!-- node7 -->
<g id="node8" class="node">
<title>node7</title>
<polygon fill="lightgrey" stroke="black" points="1427.5,-109 1250.5,-109 1250.5,-73 1427.5,-73 1427.5,-109"/>
<text text-anchor="middle" x="1339" y="-87.3" font-family="Times,serif" font-size="14.00">#7 arg2 : int Order : 6</text>
</g>
<!-- node0&#45;&gt;node7 -->
<g id="edge14" class="edge">
<title>node0&#45;&gt;node7</title>
<path fill="none" stroke="black" d="M1180.29,-145.99C1207.72,-135.92 1243.92,-123.1 1274.84,-112.48"/>
<polygon fill="black" stroke="black" points="1276.35,-115.66 1284.68,-109.11 1274.09,-109.04 1276.35,-115.66"/>
<text text-anchor="middle" x="1270.27" y="-119.28" font-family="Times,serif" font-size="14.00">*0</text>
</g>
<!-- node8 -->
<g id="node9" class="node">
<title>node8</title>
<polygon fill="lightgrey" stroke="black" points="1622.5,-109 1445.5,-109 1445.5,-73 1622.5,-73 1622.5,-109"/>
<text text-anchor="middle" x="1534" y="-87.3" font-family="Times,serif" font-size="14.00">#8 arg3 : int Order : 4</text>
</g>
<!-- node0&#45;&gt;node8 -->
<g id="edge16" class="edge">
<title>node0&#45;&gt;node8</title>
<path fill="none" stroke="black" d="M1218.21,-145.96C1230.14,-143.78 1347.13,-123.23 1435.31,-108.13"/>
<polygon fill="black" stroke="black" points="1436.1,-111.55 1445.37,-106.41 1434.92,-104.65 1436.1,-111.55"/>
<text text-anchor="middle" x="1428.92" y="-114.1" font-family="Times,serif" font-size="14.00">*0</text>
</g>
<!-- node9 -->
<g id="node10" class="node">
<title>node9</title>
<polygon fill="lightgrey" stroke="black" points="1843.5,-109 1640.5,-109 1640.5,-73 1843.5,-73 1843.5,-109"/>
<text text-anchor="middle" x="1742" y="-87.3" font-family="Times,serif" font-size="14.00">#9 arg8 : String Order : 3</text>
</g>
<!-- node0&#45;&gt;node9 -->
<g id="edge18" class="edge">
<title>node0&#45;&gt;node9</title>
<path fill="none" stroke="black" d="M1218.26,-145.96C1397.03,-120.8 1443.69,-131.03 1623,-109 1625.39,-108.71 1627.8,-108.4 1630.24,-108.09"/>
<polygon fill="black" stroke="black" points="1630.9,-111.53 1640.35,-106.74 1629.97,-104.59 1630.9,-111.53"/>
<text text-anchor="middle" x="1623.49" y="-113.81" font-family="Times,serif" font-size="14.00">*0</text>
</g>
<!-- node10 -->
<g id="node11" class="node">
<title>node10</title>
<polygon fill="lightgrey" stroke="black" points="2060,-109 1862,-109 1862,-73 2060,-73 2060,-109"/>
<text text-anchor="middle" x="1961" y="-87.3" font-family="Times,serif" font-size="14.00">#10 arg6 : float Order : 2</text>
</g>
<!-- node0&#45;&gt;node10 -->
<g id="edge20" class="edge">
<title>node0&#45;&gt;node10</title>
<path fill="none" stroke="black" d="M1218.4,-145.95C1494.64,-111.59 1567.04,-138.91 1844,-109 1846.56,-108.72 1849.15,-108.43 1851.76,-108.12"/>
<polygon fill="black" stroke="black" points="1852.45,-111.56 1861.94,-106.85 1851.58,-104.61 1852.45,-111.56"/>
<text text-anchor="middle" x="1845" y="-113.78" font-family="Times,serif" font-size="14.00">*0</text>
</g>
<!-- node11 -->
<g id="node12" class="node">
<title>node11</title>
<polygon fill="lightgrey" stroke="black" points="2275.5,-109 2078.5,-109 2078.5,-73 2275.5,-73 2275.5,-109"/>
<text text-anchor="middle" x="2177" y="-87.3" font-family="Times,serif" font-size="14.00">#11 LabelNode Order : 1</text>
</g>
<!-- node0&#45;&gt;node11 -->
<g id="edge22" class="edge">
<title>node0&#45;&gt;node11</title>
<path fill="none" stroke="red" d="M1218.27,-145.97C1404.48,-124.27 1873.74,-127.69 2060,-109 2062.7,-108.73 2065.43,-108.44 2068.18,-108.12"/>
<polygon fill="red" stroke="red" points="2068.73,-111.58 2078.25,-106.91 2067.9,-104.63 2068.73,-111.58"/>
</g>
<!-- node12 -->
<g id="node13" class="node">
<title>node12</title>
<polygon fill="lightgrey" stroke="black" points="2298,-36 2056,-36 2056,0 2298,0 2298,-36"/>
<text text-anchor="middle" x="2177" y="-14.3" font-family="Times,serif" font-size="14.00">#12 ReturnValue : int Order : 5</text>
</g>
<!-- node0&#45;&gt;node12 -->
<g id="edge26" class="edge">
<title>node0&#45;&gt;node12</title>
<path fill="none" stroke="green" d="M1218.35,-145.96C1280.19,-139.48 2235.23,-151.23 2276,-109 2287.11,-97.49 2284.41,-86.61 2276,-73 2267.33,-58.97 2253.79,-48.46 2239.45,-40.64"/>
<polygon fill="green" stroke="green" points="2240.96,-37.48 2230.46,-36.11 2237.81,-43.73 2240.96,-37.48"/>
</g>
<!-- node1&#45;&gt;node0 -->
<g id="edge1" class="edge">
<title>node1&#45;&gt;node0</title>
<path fill="none" stroke="fuchsia" stroke-width="2" d="M186.21,-106.77C192.23,-107.6 198.2,-108.35 204,-109 510.84,-143.25 876.42,-156.33 1044.78,-160.85"/>
<polygon fill="fuchsia" stroke="fuchsia" stroke-width="2" points="1044.76,-164.35 1054.85,-161.12 1044.94,-157.36 1044.76,-164.35"/>
</g>
<!-- node2&#45;&gt;node0 -->
<g id="edge3" class="edge">
<title>node2&#45;&gt;node0</title>
<path fill="none" stroke="fuchsia" stroke-width="2" d="M390.22,-106.66C396.24,-107.52 402.21,-108.31 408,-109 636.04,-136.28 905.43,-151.77 1044.53,-158.65"/>
<polygon fill="fuchsia" stroke="fuchsia" stroke-width="2" points="1044.57,-162.16 1054.73,-159.15 1044.91,-155.17 1044.57,-162.16"/>
</g>
<!-- node3&#45;&gt;node0 -->
<g id="edge5" class="edge">
<title>node3&#45;&gt;node0</title>
<path fill="none" stroke="fuchsia" stroke-width="2" d="M623.58,-106.6C629.82,-107.43 635.99,-108.24 642,-109 782.19,-126.67 944.74,-143.38 1044.53,-153.4"/>
<polygon fill="fuchsia" stroke="fuchsia" stroke-width="2" points="1044.28,-156.9 1054.58,-154.41 1044.98,-149.93 1044.28,-156.9"/>
</g>
<!-- node4&#45;&gt;node0 -->
<g id="edge7" class="edge">
<title>node4&#45;&gt;node0</title>
<path fill="none" stroke="fuchsia" stroke-width="2" d="M830.2,-107.63C894.89,-118.82 980.35,-133.9 1044.83,-145.5"/>
<polygon fill="fuchsia" stroke="fuchsia" stroke-width="2" points="1044.53,-149 1054.99,-147.33 1045.77,-142.11 1044.53,-149"/>
</g>
<!-- node5&#45;&gt;node0 -->
<g id="edge9" class="edge">
<title>node5&#45;&gt;node0</title>
<path fill="none" stroke="fuchsia" stroke-width="2" d="M991.32,-109.11C1020.81,-119.16 1057.03,-131.92 1086.14,-142.5"/>
<polygon fill="fuchsia" stroke="fuchsia" stroke-width="2" points="1085.12,-145.85 1095.71,-145.99 1087.52,-139.28 1085.12,-145.85"/>
</g>
<!-- node6&#45;&gt;node0 -->
<g id="edge11" class="edge">
<title>node6&#45;&gt;node0</title>
<path fill="none" stroke="fuchsia" stroke-width="2" d="M1143.86,-109.03C1144.71,-117.03 1144.95,-126.77 1144.59,-135.75"/>
<polygon fill="fuchsia" stroke="fuchsia" stroke-width="2" points="1141.09,-135.59 1143.88,-145.81 1148.07,-136.08 1141.09,-135.59"/>
</g>
<!-- node7&#45;&gt;node0 -->
<g id="edge13" class="edge">
<title>node7&#45;&gt;node0</title>
<path fill="none" stroke="fuchsia" stroke-width="2" d="M1296.42,-109.11C1268.92,-119.2 1232.72,-132.03 1201.83,-142.63"/>
<polygon fill="fuchsia" stroke="fuchsia" stroke-width="2" points="1200.33,-139.45 1192,-145.99 1202.6,-146.07 1200.33,-139.45"/>
</g>
<!-- node8&#45;&gt;node0 -->
<g id="edge15" class="edge">
<title>node8&#45;&gt;node0</title>
<path fill="none" stroke="fuchsia" stroke-width="2" d="M1445.38,-108.76C1361.35,-123.89 1246.53,-144.07 1236,-146 1234.5,-146.27 1232.99,-146.55 1231.46,-146.83"/>
<polygon fill="fuchsia" stroke="fuchsia" stroke-width="2" points="1230.46,-143.46 1221.27,-148.73 1231.74,-150.34 1230.46,-143.46"/>
</g>
<!-- node8&#45;&gt;node12 -->
<g id="edge24" class="edge">
<title>node8&#45;&gt;node12</title>
<path fill="none" stroke="black" d="M1622.63,-74.33C1625.79,-73.86 1628.92,-73.42 1632,-73 1772.81,-53.84 1934.97,-38.64 2045.55,-29.32"/>
<polygon fill="black" stroke="black" points="2046.08,-32.78 2055.75,-28.46 2045.5,-25.81 2046.08,-32.78"/>
<text text-anchor="middle" x="2038.4" y="-34.7" font-family="Times,serif" font-size="14.00">*0</text>
</g>
<!-- node9&#45;&gt;node0 -->
<g id="edge17" class="edge">
<title>node9&#45;&gt;node0</title>
<path fill="none" stroke="fuchsia" stroke-width="2" d="M1640.74,-109.03C1461.55,-131.03 1414.9,-120.8 1236,-146 1234.49,-146.21 1232.97,-146.43 1231.44,-146.66"/>
<polygon fill="fuchsia" stroke="fuchsia" stroke-width="2" points="1230.53,-143.26 1221.19,-148.26 1231.62,-150.18 1230.53,-143.26"/>
</g>
<!-- node10&#45;&gt;node0 -->
<g id="edge19" class="edge">
<title>node10&#45;&gt;node0</title>
<path fill="none" stroke="fuchsia" stroke-width="2" d="M1861.59,-109.04C1584.83,-138.9 1512.44,-111.58 1236,-146 1234.49,-146.19 1232.96,-146.39 1231.43,-146.59"/>
<polygon fill="fuchsia" stroke="fuchsia" stroke-width="2" points="1230.56,-143.18 1221.17,-148.08 1231.57,-150.11 1230.56,-143.18"/>
</g>
<!-- node11&#45;&gt;node0 -->
<g id="edge21" class="edge">
<title>node11&#45;&gt;node0</title>
<path fill="none" stroke="fuchsia" stroke-width="2" d="M2078.28,-108.97C2078.19,-108.98 2078.09,-108.99 2078,-109 1891.64,-127.7 1422.03,-124.26 1236,-146 1234.49,-146.18 1232.96,-146.36 1231.42,-146.56"/>
<polygon fill="fuchsia" stroke="fuchsia" stroke-width="2" points="1230.58,-143.15 1221.16,-148 1231.55,-150.08 1230.58,-143.15"/>
</g>
<!-- node11&#45;&gt;node12 -->
<g id="edge25" class="edge">
<title>node11&#45;&gt;node12</title>
<path fill="none" stroke="red" d="M2177,-72.81C2177,-64.79 2177,-55.05 2177,-46.07"/>
<polygon fill="red" stroke="red" points="2180.5,-46.03 2177,-36.03 2173.5,-46.03 2180.5,-46.03"/>
</g>
<!-- node12&#45;&gt;node0 -->
<g id="edge23" class="edge">
<title>node12&#45;&gt;node0</title>
<path fill="none" stroke="fuchsia" stroke-width="2" d="M2247.54,-36.11C2265.96,-44.26 2283.53,-56.06 2294,-73 2302.41,-86.61 2305.11,-97.49 2294,-109 2253.15,-151.31 1294.45,-139.44 1236,-146 1234.49,-146.17 1232.96,-146.35 1231.42,-146.54"/>
<polygon fill="fuchsia" stroke="fuchsia" stroke-width="2" points="1230.59,-143.12 1221.15,-147.95 1231.54,-150.06 1230.59,-143.12"/>
</g>
<!-- c0 -->
<!-- c1 -->
<!-- c0&#45;&gt;c1 -->
<g id="edge27" class="edge">
<title>c0&#45;&gt;c1</title>
<path fill="none" stroke="red" d="M2089.89,-164C2101.11,-164 2159.24,-164 2184.86,-164"/>
<polygon fill="red" stroke="red" points="2185.06,-167.5 2195.06,-164 2185.06,-160.5 2185.06,-167.5"/>
<text text-anchor="middle" x="2142.5" y="-170.8" font-family="Times,serif" font-size="14.00">Control flow</text>
</g>
<!-- c2 -->
<!-- c3 -->
<!-- c2&#45;&gt;c3 -->
<g id="edge28" class="edge">
<title>c2&#45;&gt;c3</title>
<path fill="none" stroke="red" stroke-dasharray="5,2" d="M1883.08,-164C1900.05,-164 2016.21,-164 2054.08,-164"/>
<polygon fill="red" stroke="red" points="2054.17,-167.5 2064.17,-164 2054.17,-160.5 2054.17,-167.5"/>
<text text-anchor="middle" x="1973.5" y="-170.8" font-family="Times,serif" font-size="14.00">Control flow back edge</text>
</g>
<!-- d0 -->
<!-- d1 -->
<!-- d0&#45;&gt;d1 -->
<g id="edge29" class="edge">
<title>d0&#45;&gt;d1</title>
<path fill="none" stroke="black" d="M1771.86,-164C1781.41,-164 1825.31,-164 1846.92,-164"/>
<polygon fill="black" stroke="black" points="1847.15,-167.5 1857.15,-164 1847.15,-160.5 1847.15,-167.5"/>
<text text-anchor="middle" x="1814.5" y="-170.8" font-family="Times,serif" font-size="14.00">Data flow</text>
</g>
<!-- d2 -->
<!-- d3 -->
<!-- d2&#45;&gt;d3 -->
<g id="edge30" class="edge">
<title>d2&#45;&gt;d3</title>
<path fill="none" stroke="black" stroke-dasharray="1,5" d="M1645.81,-164C1656.46,-164 1711.46,-164 1736.08,-164"/>
<polygon fill="black" stroke="black" points="1736.15,-167.5 1746.15,-164 1736.15,-160.5 1736.15,-167.5"/>
<text text-anchor="middle" x="1696" y="-170.8" font-family="Times,serif" font-size="14.00">Declaration</text>
</g>
<!-- d4 -->
<!-- d5 -->
<!-- d4&#45;&gt;d5 -->
<g id="edge31" class="edge">
<title>d4&#45;&gt;d5</title>
<path fill="none" stroke="blue" d="M1503.1,-164C1515.72,-164 1581.88,-164 1609.68,-164"/>
<polygon fill="blue" stroke="blue" points="1609.84,-167.5 1619.84,-164 1609.84,-160.5 1609.84,-167.5"/>
<text text-anchor="middle" x="1561.5" y="-170.8" font-family="Times,serif" font-size="14.00">PHI Data flow</text>
</g>
<!-- d6 -->
<!-- d7 -->
<!-- d6&#45;&gt;d7 -->
<g id="edge32" class="edge">
<title>d6&#45;&gt;d7</title>
<path fill="none" stroke="green" d="M1366,-164C1377.94,-164 1440.3,-164 1466.93,-164"/>
<polygon fill="green" stroke="green" points="1466.95,-167.5 1476.95,-164 1466.95,-160.5 1466.95,-167.5"/>
<text text-anchor="middle" x="1421.5" y="-170.8" font-family="Times,serif" font-size="14.00">Memory flow</text>
</g>
<!-- d8 -->
<!-- d9 -->
<!-- d8&#45;&gt;d9 -->
<g id="edge33" class="edge">
<title>d8&#45;&gt;d9</title>
<path fill="none" stroke="fuchsia" d="M1243.11,-164C1254.15,-164 1305.67,-164 1329.66,-164"/>
<polygon fill="fuchsia" stroke="fuchsia" points="1329.9,-167.5 1339.9,-164 1329.9,-160.5 1329.9,-167.5"/>
<text text-anchor="middle" x="1291.5" y="-170.8" font-family="Times,serif" font-size="14.00">Dominance</text>
</g>
</g>
</svg>
