<?xml version="1.0" encoding="UTF-8" standalone="no"?>
<!DOCTYPE svg PUBLIC "-//W3C//DTD SVG 1.1//EN"
 "http://www.w3.org/Graphics/SVG/1.1/DTD/svg11.dtd">
<!-- Generated by graphviz version 2.43.0 (0)
 -->
<!-- Title: debugoutput Pages: 1 -->
<svg width="2406pt" height="213pt"
 viewBox="0.00 0.00 2406.00 212.80" xmlns="http://www.w3.org/2000/svg" xmlns:xlink="http://www.w3.org/1999/xlink">
<g id="graph0" class="graph" transform="scale(1 1) rotate(0) translate(4 208.8)">
<title>debugoutput</title>
<polygon fill="white" stroke="transparent" points="-4,4 -4,-208.8 2402,-208.8 2402,4 -4,4"/>
<g id="clust1" class="cluster">
<title>cluster_000</title>
<polygon fill="none" stroke="black" points="1342,-154.2 1342,-196.8 2181,-196.8 2181,-154.2 1342,-154.2"/>
<text text-anchor="middle" x="1761.5" y="-181.6" font-family="Times,serif" font-size="14.00">Legend</text>
</g>
<!-- node0 -->
<g id="node1" class="node">
<title>node0</title>
<polygon fill="lightgrey" stroke="black" points="1332,-182 1166,-182 1166,-146 1332,-146 1332,-182"/>
<text text-anchor="middle" x="1249" y="-160.3" font-family="Times,serif" font-size="14.00">#0 Method Order : 0</text>
</g>
<!-- node1 -->
<g id="node2" class="node">
<title>node1</title>
<polygon fill="lightgrey" stroke="black" points="198,-109 0,-109 0,-73 198,-73 198,-109"/>
<text text-anchor="middle" x="99" y="-87.3" font-family="Times,serif" font-size="14.00">#1 arg6 : float Order : 12</text>
</g>
<!-- node0&#45;&gt;node1 -->
<g id="edge2" class="edge">
<title>node0&#45;&gt;node1</title>
<path fill="none" stroke="black" d="M1165.92,-161.73C989.54,-158.33 564.94,-146.65 208.26,-110.06"/>
<polygon fill="black" stroke="black" points="208.57,-106.57 198.26,-109.03 207.85,-113.54 208.57,-106.57"/>
<text text-anchor="middle" x="217.16" y="-98.78" font-family="Times,serif" font-size="14.00">*0</text>
</g>
<!-- node2 -->
<g id="node3" class="node">
<title>node2</title>
<polygon fill="lightgrey" stroke="black" points="413.5,-109 216.5,-109 216.5,-73 413.5,-73 413.5,-109"/>
<text text-anchor="middle" x="315" y="-87.3" font-family="Times,serif" font-size="14.00">#2 arg9 : int[] Order : 11</text>
</g>
<!-- node0&#45;&gt;node2 -->
<g id="edge4" class="edge">
<title>node0&#45;&gt;node2</title>
<path fill="none" stroke="black" d="M1165.76,-160.31C1016.94,-154.78 695.65,-140.07 423.47,-110.16"/>
<polygon fill="black" stroke="black" points="423.73,-106.67 413.4,-109.04 422.96,-113.63 423.73,-106.67"/>
<text text-anchor="middle" x="432.35" y="-98.94" font-family="Times,serif" font-size="14.00">*0</text>
</g>
<!-- node3 -->
<g id="node4" class="node">
<title>node3</title>
<polygon fill="lightgrey" stroke="black" points="646.5,-109 431.5,-109 431.5,-73 646.5,-73 646.5,-109"/>
<text text-anchor="middle" x="539" y="-87.3" font-family="Times,serif" font-size="14.00">#3 arg7 : double Order : 10</text>
</g>
<!-- node0&#45;&gt;node3 -->
<g id="edge6" class="edge">
<title>node0&#45;&gt;node3</title>
<path fill="none" stroke="black" d="M1165.74,-157.28C1051.39,-148.76 839.37,-131.43 656.74,-110.14"/>
<polygon fill="black" stroke="black" points="657.03,-106.65 646.69,-108.96 656.22,-113.61 657.03,-106.65"/>
<text text-anchor="middle" x="665.68" y="-98.98" font-family="Times,serif" font-size="14.00">*0</text>
</g>
<!-- node4 -->
<g id="node5" class="node">
<title>node4</title>
<polygon fill="lightgrey" stroke="black" points="853,-109 665,-109 665,-73 853,-73 853,-109"/>
<text text-anchor="middle" x="759" y="-87.3" font-family="Times,serif" font-size="14.00">#4 arg5 : long Order : 9</text>
</g>
<!-- node0&#45;&gt;node4 -->
<g id="edge8" class="edge">
<title>node0&#45;&gt;node4</title>
<path fill="none" stroke="black" d="M1165.77,-152.9C1088.01,-142.79 968.63,-126.48 863.45,-110.58"/>
<polygon fill="black" stroke="black" points="863.73,-107.09 853.32,-109.05 862.68,-114.01 863.73,-107.09"/>
<text text-anchor="middle" x="872.5" y="-99.71" font-family="Times,serif" font-size="14.00">*0</text>
</g>
<!-- node5 -->
<g id="node6" class="node">
<title>node5</title>
<polygon fill="lightgrey" stroke="black" points="1048.5,-109 871.5,-109 871.5,-73 1048.5,-73 1048.5,-109"/>
<text text-anchor="middle" x="960" y="-87.3" font-family="Times,serif" font-size="14.00">#5 arg0 : int Order : 8</text>
</g>
<!-- node0&#45;&gt;node5 -->
<g id="edge10" class="edge">
<title>node0&#45;&gt;node5</title>
<path fill="none" stroke="black" d="M1173.92,-145.99C1130.68,-135.64 1076.61,-122.38 1033.62,-111.59"/>
<polygon fill="black" stroke="black" points="1034.34,-108.16 1023.79,-109.11 1032.63,-114.95 1034.34,-108.16"/>
<text text-anchor="middle" x="1043.43" y="-101.64" font-family="Times,serif" font-size="14.00">*0</text>
</g>
<!-- node6 -->
<g id="node7" class="node">
<title>node6</title>
<polygon fill="lightgrey" stroke="black" points="1243.5,-109 1066.5,-109 1066.5,-73 1243.5,-73 1243.5,-109"/>
<text text-anchor="middle" x="1155" y="-87.3" font-family="Times,serif" font-size="14.00">#6 arg1 : int Order : 7</text>
</g>
<!-- node0&#45;&gt;node6 -->
<g id="edge12" class="edge">
<title>node0&#45;&gt;node6</title>
<path fill="none" stroke="black" d="M1220.63,-145.99C1207.54,-136.84 1192.23,-125.41 1179.63,-115.43"/>
<polygon fill="black" stroke="black" points="1181.77,-112.66 1171.79,-109.11 1177.38,-118.11 1181.77,-112.66"/>
<text text-anchor="middle" x="1191.21" y="-110.2" font-family="Times,serif" font-size="14.00">*0</text>
</g>
<!-- node7 -->
<g id="node8" class="node">
<title>node7</title>
<polygon fill="lightgrey" stroke="black" points="1464.5,-109 1261.5,-109 1261.5,-73 1464.5,-73 1464.5,-109"/>
<text text-anchor="middle" x="1363" y="-87.3" font-family="Times,serif" font-size="14.00">#7 arg8 : String Order : 6</text>
</g>
<!-- node0&#45;&gt;node7 -->
<g id="edge14" class="edge">
<title>node0&#45;&gt;node7</title>
<path fill="none" stroke="black" d="M1270.45,-145.99C1284.7,-136.49 1303.74,-124.54 1320.89,-114.29"/>
<polygon fill="black" stroke="black" points="1322.82,-117.22 1329.65,-109.11 1319.26,-111.19 1322.82,-117.22"/>
<text text-anchor="middle" x="1318.35" y="-121.91" font-family="Times,serif" font-size="14.00">*0</text>
</g>
<!-- node8 -->
<g id="node9" class="node">
<title>node8</title>
<polygon fill="lightgrey" stroke="black" points="1659.5,-109 1482.5,-109 1482.5,-73 1659.5,-73 1659.5,-109"/>
<text text-anchor="middle" x="1571" y="-87.3" font-family="Times,serif" font-size="14.00">#8 arg2 : int Order : 5</text>
</g>
<!-- node0&#45;&gt;node8 -->
<g id="edge16" class="edge">
<title>node0&#45;&gt;node8</title>
<path fill="none" stroke="black" d="M1320.27,-145.99C1366.69,-135.51 1427.68,-122.05 1477.91,-111.19"/>
<polygon fill="black" stroke="black" points="1478.77,-114.58 1487.8,-109.05 1477.29,-107.74 1478.77,-114.58"/>
<text text-anchor="middle" x="1471.87" y="-117.44" font-family="Times,serif" font-size="14.00">*0</text>
</g>
<!-- node9 -->
<g id="node10" class="node">
<title>node9</title>
<polygon fill="lightgrey" stroke="black" points="1854.5,-109 1677.5,-109 1677.5,-73 1854.5,-73 1854.5,-109"/>
<text text-anchor="middle" x="1766" y="-87.3" font-family="Times,serif" font-size="14.00">#9 arg4 : int Order : 4</text>
</g>
<!-- node0&#45;&gt;node9 -->
<g id="edge18" class="edge">
<title>node0&#45;&gt;node9</title>
<path fill="none" stroke="black" d="M1329.43,-145.94C1475.44,-123.89 1513.61,-129.99 1660,-109 1662.48,-108.64 1664.99,-108.27 1667.53,-107.89"/>
<polygon fill="black" stroke="black" points="1668.07,-111.35 1677.42,-106.36 1667,-104.43 1668.07,-111.35"/>
<text text-anchor="middle" x="1660.8" y="-113.79" font-family="Times,serif" font-size="14.00">*0</text>
</g>
<!-- node10 -->
<g id="node11" class="node">
<title>node10</title>
<polygon fill="lightgrey" stroke="black" points="2058,-109 1872,-109 1872,-73 2058,-73 2058,-109"/>
<text text-anchor="middle" x="1965" y="-87.3" font-family="Times,serif" font-size="14.00">#10 arg3 : int Order : 2</text>
</g>
<!-- node0&#45;&gt;node10 -->
<g id="edge20" class="edge">
<title>node0&#45;&gt;node10</title>
<path fill="none" stroke="black" d="M1329.34,-145.96C1561.45,-115.76 1622.4,-136.69 1855,-109 1857.22,-108.74 1859.47,-108.46 1861.74,-108.16"/>
<polygon fill="black" stroke="black" points="1862.35,-111.61 1871.79,-106.8 1861.41,-104.68 1862.35,-111.61"/>
<text text-anchor="middle" x="1854.96" y="-113.91" font-family="Times,serif" font-size="14.00">*0</text>
</g>
<!-- node11 -->
<g id="node12" class="node">
<title>node11</title>
<polygon fill="lightgrey" stroke="black" points="2273.5,-109 2076.5,-109 2076.5,-73 2273.5,-73 2273.5,-109"/>
<text text-anchor="middle" x="2175" y="-87.3" font-family="Times,serif" font-size="14.00">#11 LabelNode Order : 1</text>
</g>
<!-- node0&#45;&gt;node11 -->
<g id="edge22" class="edge">
<title>node0&#45;&gt;node11</title>
<path fill="none" stroke="red" d="M1329.47,-145.94C1490.84,-126.62 1896.82,-125.73 2058,-109 2060.69,-108.72 2063.42,-108.42 2066.18,-108.1"/>
<polygon fill="red" stroke="red" points="2066.74,-111.56 2076.24,-106.87 2065.89,-104.61 2066.74,-111.56"/>
</g>
<!-- node12 -->
<g id="node13" class="node">
<title>node12</title>
<polygon fill="lightgrey" stroke="black" points="2398,-36 2156,-36 2156,0 2398,0 2398,-36"/>
<text text-anchor="middle" x="2277" y="-14.3" font-family="Times,serif" font-size="14.00">#12 ReturnValue : int Order : 3</text>
</g>
<!-- node0&#45;&gt;node12 -->
<g id="edge26" class="edge">
<title>node0&#45;&gt;node12</title>
<path fill="none" stroke="black" d="M1329.32,-145.97C1384.54,-140.05 2237.65,-146.8 2274,-109 2289.71,-92.66 2285.74,-66.02 2280.94,-45.95"/>
<polygon fill="black" stroke="black" points="2284.31,-44.98 2278.46,-36.15 2277.52,-46.7 2284.31,-44.98"/>
</g>
<!-- node1&#45;&gt;node0 -->
<g id="edge1" class="edge">
<title>node1&#45;&gt;node0</title>
<path fill="none" stroke="green" stroke-width="2" d="M198.05,-106.9C204.13,-107.68 210.15,-108.39 216,-109 561.69,-145.07 974.54,-157.4 1155.89,-161.32"/>
<polygon fill="green" stroke="green" stroke-width="2" points="1155.85,-164.82 1165.93,-161.53 1156,-157.82 1155.85,-164.82"/>
</g>
<!-- node2&#45;&gt;node0 -->
<g id="edge3" class="edge">
<title>node2&#45;&gt;node0</title>
<path fill="none" stroke="green" stroke-width="2" d="M413.52,-106.85C419.44,-107.64 425.3,-108.36 431,-109 692.91,-138.29 1003.4,-153.31 1155.57,-159.49"/>
<polygon fill="green" stroke="green" stroke-width="2" points="1155.68,-162.99 1165.81,-159.9 1155.96,-156 1155.68,-162.99"/>
</g>
<!-- node3&#45;&gt;node0 -->
<g id="edge5" class="edge">
<title>node3&#45;&gt;node0</title>
<path fill="none" stroke="green" stroke-width="2" d="M646.56,-106.71C652.81,-107.52 658.99,-108.29 665,-109 837.9,-129.42 1039.96,-146.34 1155.42,-155.53"/>
<polygon fill="green" stroke="green" stroke-width="2" points="1155.39,-159.04 1165.63,-156.34 1155.94,-152.06 1155.39,-159.04"/>
</g>
<!-- node4&#45;&gt;node0 -->
<g id="edge7" class="edge">
<title>node4&#45;&gt;node0</title>
<path fill="none" stroke="green" stroke-width="2" d="M853.11,-106.22C859.17,-107.18 865.18,-108.11 871,-109 968.08,-123.78 1079.1,-139.11 1155.64,-149.64"/>
<polygon fill="green" stroke="green" stroke-width="2" points="1155.35,-153.14 1165.74,-151.03 1156.31,-146.2 1155.35,-153.14"/>
</g>
<!-- node5&#45;&gt;node0 -->
<g id="edge9" class="edge">
<title>node5&#45;&gt;node0</title>
<path fill="none" stroke="green" stroke-width="2" d="M1035.27,-109.05C1078.62,-119.43 1132.81,-132.73 1175.8,-143.52"/>
<polygon fill="green" stroke="green" stroke-width="2" points="1175.08,-146.95 1185.64,-145.99 1176.79,-140.16 1175.08,-146.95"/>
</g>
<!-- node6&#45;&gt;node0 -->
<g id="edge11" class="edge">
<title>node6&#45;&gt;node0</title>
<path fill="none" stroke="green" stroke-width="2" d="M1183.41,-109.03C1196.46,-118.16 1211.72,-129.55 1224.3,-139.51"/>
<polygon fill="green" stroke="green" stroke-width="2" points="1222.14,-142.27 1232.12,-145.81 1226.53,-136.82 1222.14,-142.27"/>
</g>
<!-- node7&#45;&gt;node0 -->
<g id="edge13" class="edge">
<title>node7&#45;&gt;node0</title>
<path fill="none" stroke="green" stroke-width="2" d="M1341.39,-109.11C1327.11,-118.63 1308.05,-130.59 1290.92,-140.82"/>
<polygon fill="green" stroke="green" stroke-width="2" points="1288.99,-137.89 1282.17,-145.99 1292.55,-143.92 1288.99,-137.89"/>
</g>
<!-- node8&#45;&gt;node0 -->
<g id="edge15" class="edge">
<title>node8&#45;&gt;node0</title>
<path fill="none" stroke="green" stroke-width="2" d="M1499.53,-109.05C1453.07,-119.54 1392.07,-133.01 1341.87,-143.86"/>
<polygon fill="green" stroke="green" stroke-width="2" points="1341.02,-140.46 1331.99,-145.99 1342.5,-147.3 1341.02,-140.46"/>
</g>
<!-- node9&#45;&gt;node0 -->
<g id="edge17" class="edge">
<title>node9&#45;&gt;node0</title>
<path fill="none" stroke="green" stroke-width="2" d="M1677.57,-109.06C1531.4,-130 1493.22,-123.9 1347,-146 1345.49,-146.23 1343.97,-146.46 1342.44,-146.7"/>
<polygon fill="green" stroke="green" stroke-width="2" points="1341.51,-143.31 1332.21,-148.38 1342.64,-150.22 1341.51,-143.31"/>
</g>
<!-- node10&#45;&gt;node0 -->
<g id="edge19" class="edge">
<title>node10&#45;&gt;node0</title>
<path fill="none" stroke="green" stroke-width="2" d="M1872.66,-109.04C1640.23,-136.68 1579.28,-115.75 1347,-146 1345.49,-146.2 1343.96,-146.4 1342.43,-146.62"/>
<polygon fill="green" stroke="green" stroke-width="2" points="1341.55,-143.21 1332.18,-148.15 1342.59,-150.13 1341.55,-143.21"/>
</g>
<!-- node10&#45;&gt;node12 -->
<g id="edge24" class="edge">
<title>node10&#45;&gt;node12</title>
<path fill="none" stroke="black" d="M2039.73,-72.99C2085.6,-62.56 2144.46,-49.16 2192.08,-38.32"/>
<polygon fill="black" stroke="black" points="2193.09,-41.68 2202.07,-36.05 2191.54,-34.86 2193.09,-41.68"/>
<text text-anchor="middle" x="2186.27" y="-44.62" font-family="Times,serif" font-size="14.00">*0</text>
</g>
<!-- node11&#45;&gt;node0 -->
<g id="edge21" class="edge">
<title>node11&#45;&gt;node0</title>
<path fill="none" stroke="green" stroke-width="2" d="M2076.28,-108.97C2076.19,-108.98 2076.09,-108.99 2076,-109 1914.66,-125.75 1508.05,-126.63 1347,-146 1345.49,-146.18 1343.96,-146.37 1342.42,-146.58"/>
<polygon fill="green" stroke="green" stroke-width="2" points="1341.57,-143.16 1332.16,-148.04 1342.56,-150.09 1341.57,-143.16"/>
</g>
<!-- node11&#45;&gt;node12 -->
<g id="edge25" class="edge">
<title>node11&#45;&gt;node12</title>
<path fill="none" stroke="red" d="M2199.43,-72.99C2212.83,-63.67 2229.63,-51.97 2244.16,-41.86"/>
<polygon fill="red" stroke="red" points="2246.21,-44.7 2252.41,-36.11 2242.21,-38.95 2246.21,-44.7"/>
</g>
<!-- node12&#45;&gt;node0 -->
<g id="edge23" class="edge">
<title>node12&#45;&gt;node0</title>
<path fill="none" stroke="green" stroke-width="2" d="M2291.19,-36.15C2301.75,-56.42 2310.45,-89.81 2292,-109 2255.58,-146.87 1399.2,-140.03 1347,-146 1345.49,-146.17 1343.96,-146.36 1342.42,-146.55"/>
<polygon fill="green" stroke="green" stroke-width="2" points="1341.58,-143.13 1332.16,-147.97 1342.54,-150.07 1341.58,-143.13"/>
</g>
<!-- c0 -->
<!-- c1 -->
<!-- c0&#45;&gt;c1 -->
<g id="edge27" class="edge">
<title>c0&#45;&gt;c1</title>
<path fill="none" stroke="red" d="M2063.89,-164C2075.11,-164 2133.24,-164 2158.86,-164"/>
<polygon fill="red" stroke="red" points="2159.06,-167.5 2169.06,-164 2159.06,-160.5 2159.06,-167.5"/>
<text text-anchor="middle" x="2116.5" y="-170.8" font-family="Times,serif" font-size="14.00">Control flow</text>
</g>
<!-- c2 -->
<!-- c3 -->
<!-- c2&#45;&gt;c3 -->
<g id="edge28" class="edge">
<title>c2&#45;&gt;c3</title>
<path fill="none" stroke="red" stroke-dasharray="5,2" d="M1857.08,-164C1874.05,-164 1990.21,-164 2028.08,-164"/>
<polygon fill="red" stroke="red" points="2028.17,-167.5 2038.17,-164 2028.17,-160.5 2028.17,-167.5"/>
<text text-anchor="middle" x="1947.5" y="-170.8" font-family="Times,serif" font-size="14.00">Control flow back edge</text>
</g>
<!-- d0 -->
<!-- d1 -->
<!-- d0&#45;&gt;d1 -->
<g id="edge29" class="edge">
<title>d0&#45;&gt;d1</title>
<path fill="none" stroke="black" d="M1745.86,-164C1755.41,-164 1799.31,-164 1820.92,-164"/>
<polygon fill="black" stroke="black" points="1821.15,-167.5 1831.15,-164 1821.15,-160.5 1821.15,-167.5"/>
<text text-anchor="middle" x="1788.5" y="-170.8" font-family="Times,serif" font-size="14.00">Data flow</text>
</g>
<!-- d2 -->
<!-- d3 -->
<!-- d2&#45;&gt;d3 -->
<g id="edge30" class="edge">
<title>d2&#45;&gt;d3</title>
<path fill="none" stroke="black" stroke-dasharray="1,5" d="M1619.81,-164C1630.46,-164 1685.46,-164 1710.08,-164"/>
<polygon fill="black" stroke="black" points="1710.15,-167.5 1720.15,-164 1710.15,-160.5 1710.15,-167.5"/>
<text text-anchor="middle" x="1670" y="-170.8" font-family="Times,serif" font-size="14.00">Declaration</text>
</g>
<!-- d4 -->
<!-- d5 -->
<!-- d4&#45;&gt;d5 -->
<g id="edge31" class="edge">
<title>d4&#45;&gt;d5</title>
<path fill="none" stroke="blue" d="M1477.1,-164C1489.72,-164 1555.88,-164 1583.68,-164"/>
<polygon fill="blue" stroke="blue" points="1583.84,-167.5 1593.84,-164 1583.84,-160.5 1583.84,-167.5"/>
<text text-anchor="middle" x="1535.5" y="-170.8" font-family="Times,serif" font-size="14.00">PHI Data flow</text>
</g>
<!-- d6 -->
<!-- d7 -->
<!-- d6&#45;&gt;d7 -->
<g id="edge32" class="edge">
<title>d6&#45;&gt;d7</title>
<path fill="none" stroke="green" d="M1354.11,-164C1365.15,-164 1416.67,-164 1440.66,-164"/>
<polygon fill="green" stroke="green" points="1440.9,-167.5 1450.9,-164 1440.9,-160.5 1440.9,-167.5"/>
<text text-anchor="middle" x="1402.5" y="-170.8" font-family="Times,serif" font-size="14.00">Dominance</text>
</g>
</g>
</svg>
