<?xml version="1.0" encoding="UTF-8" standalone="no"?>
<!DOCTYPE svg PUBLIC "-//W3C//DTD SVG 1.1//EN"
 "http://www.w3.org/Graphics/SVG/1.1/DTD/svg11.dtd">
<!-- Generated by graphviz version 2.43.0 (0)
 -->
<!-- Title: debugoutput Pages: 1 -->
<svg width="2307pt" height="213pt"
 viewBox="0.00 0.00 2306.99 212.80" xmlns="http://www.w3.org/2000/svg" xmlns:xlink="http://www.w3.org/1999/xlink">
<g id="graph0" class="graph" transform="scale(1 1) rotate(0) translate(4 208.8)">
<title>debugoutput</title>
<polygon fill="white" stroke="transparent" points="-4,4 -4,-208.8 2302.99,-208.8 2302.99,4 -4,4"/>
<g id="clust1" class="cluster">
<title>cluster_000</title>
<polygon fill="none" stroke="black" points="1237.5,-154.2 1237.5,-196.8 2213.5,-196.8 2213.5,-154.2 1237.5,-154.2"/>
<text text-anchor="middle" x="1725.5" y="-181.6" font-family="Times,serif" font-size="14.00">Legend</text>
</g>
<!-- node0 -->
<g id="node1" class="node">
<title>node0</title>
<polygon fill="lightgrey" stroke="black" points="1227.5,-182 1061.5,-182 1061.5,-146 1227.5,-146 1227.5,-182"/>
<text text-anchor="middle" x="1144.5" y="-160.3" font-family="Times,serif" font-size="14.00">#0 Method Order : 0</text>
</g>
<!-- node1 -->
<g id="node2" class="node">
<title>node1</title>
<polygon fill="lightgrey" stroke="black" points="197,-109 0,-109 0,-73 197,-73 197,-109"/>
<text text-anchor="middle" x="98.5" y="-87.3" font-family="Times,serif" font-size="14.00">#1 arg5 : long Order : 12</text>
</g>
<!-- node0&#45;&gt;node1 -->
<g id="edge2" class="edge">
<title>node0&#45;&gt;node1</title>
<path fill="none" stroke="black" d="M1061.18,-161.1C897.64,-156.66 523.34,-143.35 207.49,-110.06"/>
<polygon fill="black" stroke="black" points="207.53,-106.55 197.22,-108.97 206.79,-113.51 207.53,-106.55"/>
<text text-anchor="middle" x="216.13" y="-98.78" font-family="Times,serif" font-size="14.00">*0</text>
</g>
<!-- node2 -->
<g id="node3" class="node">
<title>node2</title>
<polygon fill="lightgrey" stroke="black" points="401.5,-109 215.5,-109 215.5,-73 401.5,-73 401.5,-109"/>
<text text-anchor="middle" x="308.5" y="-87.3" font-family="Times,serif" font-size="14.00">#2 arg0 : int Order : 11</text>
</g>
<!-- node0&#45;&gt;node2 -->
<g id="edge4" class="edge">
<title>node0&#45;&gt;node2</title>
<path fill="none" stroke="black" d="M1061.42,-159.63C925.63,-153.38 647.86,-138.01 411.4,-110.18"/>
<polygon fill="black" stroke="black" points="411.58,-106.67 401.23,-108.97 410.75,-113.62 411.58,-106.67"/>
<text text-anchor="middle" x="420.23" y="-99.01" font-family="Times,serif" font-size="14.00">*0</text>
</g>
<!-- node3 -->
<g id="node4" class="node">
<title>node3</title>
<polygon fill="lightgrey" stroke="black" points="605.5,-109 419.5,-109 419.5,-73 605.5,-73 605.5,-109"/>
<text text-anchor="middle" x="512.5" y="-87.3" font-family="Times,serif" font-size="14.00">#3 arg1 : int Order : 10</text>
</g>
<!-- node0&#45;&gt;node3 -->
<g id="edge6" class="edge">
<title>node0&#45;&gt;node3</title>
<path fill="none" stroke="black" d="M1061.26,-156.75C957.16,-148.19 773.53,-131.44 614.9,-110.39"/>
<polygon fill="black" stroke="black" points="615.35,-106.92 604.97,-109.06 614.42,-113.86 615.35,-106.92"/>
<text text-anchor="middle" x="624.06" y="-99.39" font-family="Times,serif" font-size="14.00">*0</text>
</g>
<!-- node4 -->
<g id="node5" class="node">
<title>node4</title>
<polygon fill="lightgrey" stroke="black" points="800,-109 623,-109 623,-73 800,-73 800,-109"/>
<text text-anchor="middle" x="711.5" y="-87.3" font-family="Times,serif" font-size="14.00">#4 arg2 : int Order : 9</text>
</g>
<!-- node0&#45;&gt;node4 -->
<g id="edge8" class="edge">
<title>node0&#45;&gt;node4</title>
<path fill="none" stroke="black" d="M1061.2,-150.98C993.95,-140.6 896.79,-125.06 810.21,-110.62"/>
<polygon fill="black" stroke="black" points="810.68,-107.15 800.24,-108.96 809.53,-114.06 810.68,-107.15"/>
<text text-anchor="middle" x="819.52" y="-99.91" font-family="Times,serif" font-size="14.00">*0</text>
</g>
<!-- node5 -->
<g id="node6" class="node">
<title>node5</title>
<polygon fill="lightgrey" stroke="black" points="1024.5,-109 818.5,-109 818.5,-73 1024.5,-73 1024.5,-109"/>
<text text-anchor="middle" x="921.5" y="-87.3" font-family="Times,serif" font-size="14.00">#5 arg7 : double Order : 8</text>
</g>
<!-- node0&#45;&gt;node5 -->
<g id="edge10" class="edge">
<title>node0&#45;&gt;node5</title>
<path fill="none" stroke="black" d="M1085.23,-145.99C1052.39,-135.88 1011.8,-122.99 979.22,-112.34"/>
<polygon fill="black" stroke="black" points="979.97,-108.91 969.38,-109.11 977.79,-115.56 979.97,-108.91"/>
<text text-anchor="middle" x="989.24" y="-103.03" font-family="Times,serif" font-size="14.00">*0</text>
</g>
<!-- node6 -->
<g id="node7" class="node">
<title>node6</title>
<polygon fill="lightgrey" stroke="black" points="1246,-109 1043,-109 1043,-73 1246,-73 1246,-109"/>
<text text-anchor="middle" x="1144.5" y="-87.3" font-family="Times,serif" font-size="14.00">#6 arg8 : String Order : 7</text>
</g>
<!-- node0&#45;&gt;node6 -->
<g id="edge12" class="edge">
<title>node0&#45;&gt;node6</title>
<path fill="none" stroke="black" d="M1138.62,-145.81C1137.78,-137.79 1137.55,-128.05 1137.92,-119.07"/>
<polygon fill="black" stroke="black" points="1141.42,-119.25 1138.64,-109.03 1134.44,-118.75 1141.42,-119.25"/>
<text text-anchor="middle" x="1145.78" y="-124.01" font-family="Times,serif" font-size="14.00">*0</text>
</g>
<!-- node7 -->
<g id="node8" class="node">
<title>node7</title>
<polygon fill="lightgrey" stroke="black" points="1441,-109 1264,-109 1264,-73 1441,-73 1441,-109"/>
<text text-anchor="middle" x="1352.5" y="-87.3" font-family="Times,serif" font-size="14.00">#7 arg3 : int Order : 5</text>
</g>
<!-- node0&#45;&gt;node7 -->
<g id="edge14" class="edge">
<title>node0&#45;&gt;node7</title>
<path fill="none" stroke="black" d="M1188.46,-145.99C1217.01,-135.88 1254.67,-122.99 1286.74,-112.34"/>
<polygon fill="black" stroke="black" points="1288.1,-115.58 1296.49,-109.11 1285.9,-108.93 1288.1,-115.58"/>
<text text-anchor="middle" x="1281.94" y="-119.13" font-family="Times,serif" font-size="14.00">*0</text>
</g>
<!-- node8 -->
<g id="node9" class="node">
<title>node8</title>
<polygon fill="lightgrey" stroke="black" points="1648,-109 1459,-109 1459,-73 1648,-73 1648,-109"/>
<text text-anchor="middle" x="1553.5" y="-87.3" font-family="Times,serif" font-size="14.00">#8 arg6 : float Order : 4</text>
</g>
<!-- node0&#45;&gt;node8 -->
<g id="edge16" class="edge">
<title>node0&#45;&gt;node8</title>
<path fill="none" stroke="black" d="M1224.92,-145.92C1266.79,-138.4 1369.14,-121.21 1448.62,-108.25"/>
<polygon fill="black" stroke="black" points="1449.38,-111.67 1458.69,-106.61 1448.26,-104.76 1449.38,-111.67"/>
<text text-anchor="middle" x="1442.16" y="-114.16" font-family="Times,serif" font-size="14.00">*0</text>
</g>
<!-- node9 -->
<g id="node10" class="node">
<title>node9</title>
<polygon fill="lightgrey" stroke="black" points="1843,-109 1666,-109 1666,-73 1843,-73 1843,-109"/>
<text text-anchor="middle" x="1754.5" y="-87.3" font-family="Times,serif" font-size="14.00">#9 arg4 : int Order : 3</text>
</g>
<!-- node0&#45;&gt;node9 -->
<g id="edge18" class="edge">
<title>node0&#45;&gt;node9</title>
<path fill="none" stroke="black" d="M1224.77,-145.96C1411.91,-120.01 1461.03,-133.56 1648.5,-109 1650.98,-108.67 1653.5,-108.33 1656.04,-107.97"/>
<polygon fill="black" stroke="black" points="1656.55,-111.43 1665.94,-106.52 1655.54,-104.51 1656.55,-111.43"/>
<text text-anchor="middle" x="1649.23" y="-113.82" font-family="Times,serif" font-size="14.00">*0</text>
</g>
<!-- node10 -->
<g id="node11" class="node">
<title>node10</title>
<polygon fill="lightgrey" stroke="black" points="2058,-109 1861,-109 1861,-73 2058,-73 2058,-109"/>
<text text-anchor="middle" x="1959.5" y="-87.3" font-family="Times,serif" font-size="14.00">#10 arg9 : int[] Order : 2</text>
</g>
<!-- node0&#45;&gt;node10 -->
<g id="edge20" class="edge">
<title>node0&#45;&gt;node10</title>
<path fill="none" stroke="black" d="M1224.9,-145.95C1361.91,-128.92 1706.64,-123.93 1843.5,-109 1845.91,-108.74 1848.34,-108.46 1850.8,-108.17"/>
<polygon fill="black" stroke="black" points="1851.5,-111.6 1860.98,-106.89 1850.63,-104.66 1851.5,-111.6"/>
<text text-anchor="middle" x="1844.05" y="-113.83" font-family="Times,serif" font-size="14.00">*0</text>
</g>
<!-- node11 -->
<g id="node12" class="node">
<title>node11</title>
<polygon fill="lightgrey" stroke="black" points="2273,-109 2076,-109 2076,-73 2273,-73 2273,-109"/>
<text text-anchor="middle" x="2174.5" y="-87.3" font-family="Times,serif" font-size="14.00">#11 LabelNode Order : 1</text>
</g>
<!-- node0&#45;&gt;node11 -->
<g id="edge22" class="edge">
<title>node0&#45;&gt;node11</title>
<path fill="none" stroke="red" d="M1224.77,-145.97C1409.21,-124.43 1874.02,-127.69 2058.5,-109 2060.91,-108.76 2063.34,-108.49 2065.8,-108.22"/>
<polygon fill="red" stroke="red" points="2066.49,-111.66 2076,-106.99 2065.65,-104.71 2066.49,-111.66"/>
</g>
<!-- node12 -->
<g id="node13" class="node">
<title>node12</title>
<polygon fill="lightgrey" stroke="black" points="2295.5,-36 2053.5,-36 2053.5,0 2295.5,0 2295.5,-36"/>
<text text-anchor="middle" x="2174.5" y="-14.3" font-family="Times,serif" font-size="14.00">#12 ReturnValue : int Order : 6</text>
</g>
<!-- node0&#45;&gt;node12 -->
<g id="edge26" class="edge">
<title>node0&#45;&gt;node12</title>
<path fill="none" stroke="green" d="M1224.85,-145.96C1286.16,-139.53 2233.08,-150.87 2273.5,-109 2284.61,-97.49 2281.91,-86.61 2273.5,-73 2264.83,-58.97 2251.29,-48.46 2236.95,-40.64"/>
<polygon fill="green" stroke="green" points="2238.46,-37.48 2227.96,-36.11 2235.31,-43.73 2238.46,-37.48"/>
</g>
<!-- node1&#45;&gt;node0 -->
<g id="edge1" class="edge">
<title>node1&#45;&gt;node0</title>
<path fill="none" stroke="fuchsia" stroke-width="2" d="M197.26,-106.82C203.44,-107.62 209.56,-108.36 215.5,-109 520.47,-141.7 883.48,-155.5 1051.18,-160.52"/>
<polygon fill="fuchsia" stroke="fuchsia" stroke-width="2" points="1051.11,-164.02 1061.21,-160.81 1051.32,-157.02 1051.11,-164.02"/>
</g>
<!-- node2&#45;&gt;node0 -->
<g id="edge3" class="edge">
<title>node2&#45;&gt;node0</title>
<path fill="none" stroke="fuchsia" stroke-width="2" d="M401.72,-106.66C407.74,-107.51 413.71,-108.31 419.5,-109 645.69,-136.11 912.83,-151.65 1051.14,-158.59"/>
<polygon fill="fuchsia" stroke="fuchsia" stroke-width="2" points="1051.12,-162.09 1061.28,-159.09 1051.47,-155.1 1051.12,-162.09"/>
</g>
<!-- node3&#45;&gt;node0 -->
<g id="edge5" class="edge">
<title>node3&#45;&gt;node0</title>
<path fill="none" stroke="fuchsia" stroke-width="2" d="M605.74,-106.61C611.42,-107.46 617.04,-108.26 622.5,-109 772.25,-129.2 946.68,-145.57 1051.26,-154.8"/>
<polygon fill="fuchsia" stroke="fuchsia" stroke-width="2" points="1051.2,-158.31 1061.47,-155.7 1051.81,-151.34 1051.2,-158.31"/>
</g>
<!-- node4&#45;&gt;node0 -->
<g id="edge7" class="edge">
<title>node4&#45;&gt;node0</title>
<path fill="none" stroke="fuchsia" stroke-width="2" d="M800.16,-105.9C806.38,-106.96 812.54,-108 818.5,-109 896.95,-122.13 985.84,-136.43 1051.02,-147.02"/>
<polygon fill="fuchsia" stroke="fuchsia" stroke-width="2" points="1050.83,-150.53 1061.27,-148.68 1051.96,-143.62 1050.83,-150.53"/>
</g>
<!-- node5&#45;&gt;node0 -->
<g id="edge9" class="edge">
<title>node5&#45;&gt;node0</title>
<path fill="none" stroke="fuchsia" stroke-width="2" d="M981.12,-109.11C1014.01,-119.25 1054.6,-132.14 1087.13,-142.77"/>
<polygon fill="fuchsia" stroke="fuchsia" stroke-width="2" points="1086.35,-146.2 1096.95,-145.99 1088.54,-139.55 1086.35,-146.2"/>
</g>
<!-- node6&#45;&gt;node0 -->
<g id="edge11" class="edge">
<title>node6&#45;&gt;node0</title>
<path fill="none" stroke="fuchsia" stroke-width="2" d="M1150.36,-109.03C1151.21,-117.03 1151.45,-126.77 1151.09,-135.75"/>
<polygon fill="fuchsia" stroke="fuchsia" stroke-width="2" points="1147.59,-135.59 1150.38,-145.81 1154.57,-136.08 1147.59,-135.59"/>
</g>
<!-- node7&#45;&gt;node0 -->
<g id="edge13" class="edge">
<title>node7&#45;&gt;node0</title>
<path fill="none" stroke="fuchsia" stroke-width="2" d="M1308.23,-109.11C1279.62,-119.25 1241.95,-132.14 1209.92,-142.77"/>
<polygon fill="fuchsia" stroke="fuchsia" stroke-width="2" points="1208.58,-139.53 1200.18,-145.99 1210.77,-146.18 1208.58,-139.53"/>
</g>
<!-- node7&#45;&gt;node12 -->
<g id="edge24" class="edge">
<title>node7&#45;&gt;node12</title>
<path fill="none" stroke="black" d="M1441.12,-74.23C1444.28,-73.79 1447.42,-73.38 1450.5,-73 1656.79,-47.48 1897.76,-32.43 2043.11,-24.95"/>
<polygon fill="black" stroke="black" points="2043.6,-28.43 2053.41,-24.42 2043.24,-21.44 2043.6,-28.43"/>
<text text-anchor="middle" x="2035.74" y="-30.09" font-family="Times,serif" font-size="14.00">*0</text>
</g>
<!-- node8&#45;&gt;node0 -->
<g id="edge15" class="edge">
<title>node8&#45;&gt;node0</title>
<path fill="none" stroke="fuchsia" stroke-width="2" d="M1458.71,-108.98C1383.06,-121.9 1283.33,-138.66 1242.5,-146 1241,-146.27 1239.49,-146.54 1237.96,-146.82"/>
<polygon fill="fuchsia" stroke="fuchsia" stroke-width="2" points="1236.97,-143.44 1227.76,-148.69 1238.23,-150.33 1236.97,-143.44"/>
</g>
<!-- node9&#45;&gt;node0 -->
<g id="edge17" class="edge">
<title>node9&#45;&gt;node0</title>
<path fill="none" stroke="fuchsia" stroke-width="2" d="M1666.23,-109.04C1478.89,-133.56 1429.77,-120.01 1242.5,-146 1240.99,-146.21 1239.47,-146.43 1237.93,-146.65"/>
<polygon fill="fuchsia" stroke="fuchsia" stroke-width="2" points="1237.04,-143.25 1227.69,-148.24 1238.11,-150.17 1237.04,-143.25"/>
</g>
<!-- node10&#45;&gt;node0 -->
<g id="edge19" class="edge">
<title>node10&#45;&gt;node0</title>
<path fill="none" stroke="fuchsia" stroke-width="2" d="M1861.1,-109.04C1723.84,-123.95 1379.11,-128.94 1242.5,-146 1240.99,-146.19 1239.46,-146.39 1237.93,-146.6"/>
<polygon fill="fuchsia" stroke="fuchsia" stroke-width="2" points="1237.06,-143.18 1227.67,-148.09 1238.07,-150.11 1237.06,-143.18"/>
</g>
<!-- node11&#45;&gt;node0 -->
<g id="edge21" class="edge">
<title>node11&#45;&gt;node0</title>
<path fill="none" stroke="fuchsia" stroke-width="2" d="M2076.23,-109.03C1891.47,-127.69 1426.67,-124.44 1242.5,-146 1240.99,-146.18 1239.46,-146.37 1237.92,-146.56"/>
<polygon fill="fuchsia" stroke="fuchsia" stroke-width="2" points="1237.08,-143.15 1227.66,-148 1238.05,-150.08 1237.08,-143.15"/>
</g>
<!-- node11&#45;&gt;node12 -->
<g id="edge25" class="edge">
<title>node11&#45;&gt;node12</title>
<path fill="none" stroke="red" d="M2174.5,-72.81C2174.5,-64.79 2174.5,-55.05 2174.5,-46.07"/>
<polygon fill="red" stroke="red" points="2178,-46.03 2174.5,-36.03 2171,-46.03 2178,-46.03"/>
</g>
<!-- node12&#45;&gt;node0 -->
<g id="edge23" class="edge">
<title>node12&#45;&gt;node0</title>
<path fill="none" stroke="fuchsia" stroke-width="2" d="M2245.04,-36.11C2263.46,-44.26 2281.03,-56.06 2291.5,-73 2299.91,-86.61 2302.61,-97.49 2291.5,-109 2251,-150.95 1300.45,-139.48 1242.5,-146 1240.99,-146.17 1239.46,-146.35 1237.92,-146.54"/>
<polygon fill="fuchsia" stroke="fuchsia" stroke-width="2" points="1237.09,-143.13 1227.65,-147.95 1238.04,-150.06 1237.09,-143.13"/>
</g>
<!-- c0 -->
<!-- c1 -->
<!-- c0&#45;&gt;c1 -->
<g id="edge27" class="edge">
<title>c0&#45;&gt;c1</title>
<path fill="none" stroke="red" d="M2096.39,-164C2107.61,-164 2165.74,-164 2191.36,-164"/>
<polygon fill="red" stroke="red" points="2191.56,-167.5 2201.56,-164 2191.56,-160.5 2191.56,-167.5"/>
<text text-anchor="middle" x="2149" y="-170.8" font-family="Times,serif" font-size="14.00">Control flow</text>
</g>
<!-- c2 -->
<!-- c3 -->
<!-- c2&#45;&gt;c3 -->
<g id="edge28" class="edge">
<title>c2&#45;&gt;c3</title>
<path fill="none" stroke="red" stroke-dasharray="5,2" d="M1889.58,-164C1906.55,-164 2022.71,-164 2060.58,-164"/>
<polygon fill="red" stroke="red" points="2060.67,-167.5 2070.67,-164 2060.67,-160.5 2060.67,-167.5"/>
<text text-anchor="middle" x="1980" y="-170.8" font-family="Times,serif" font-size="14.00">Control flow back edge</text>
</g>
<!-- d0 -->
<!-- d1 -->
<!-- d0&#45;&gt;d1 -->
<g id="edge29" class="edge">
<title>d0&#45;&gt;d1</title>
<path fill="none" stroke="black" d="M1778.36,-164C1787.91,-164 1831.81,-164 1853.42,-164"/>
<polygon fill="black" stroke="black" points="1853.65,-167.5 1863.65,-164 1853.65,-160.5 1853.65,-167.5"/>
<text text-anchor="middle" x="1821" y="-170.8" font-family="Times,serif" font-size="14.00">Data flow</text>
</g>
<!-- d2 -->
<!-- d3 -->
<!-- d2&#45;&gt;d3 -->
<g id="edge30" class="edge">
<title>d2&#45;&gt;d3</title>
<path fill="none" stroke="black" stroke-dasharray="1,5" d="M1652.31,-164C1662.96,-164 1717.96,-164 1742.58,-164"/>
<polygon fill="black" stroke="black" points="1742.65,-167.5 1752.65,-164 1742.65,-160.5 1742.65,-167.5"/>
<text text-anchor="middle" x="1702.5" y="-170.8" font-family="Times,serif" font-size="14.00">Declaration</text>
</g>
<!-- d4 -->
<!-- d5 -->
<!-- d4&#45;&gt;d5 -->
<g id="edge31" class="edge">
<title>d4&#45;&gt;d5</title>
<path fill="none" stroke="blue" d="M1509.6,-164C1522.22,-164 1588.38,-164 1616.18,-164"/>
<polygon fill="blue" stroke="blue" points="1616.34,-167.5 1626.34,-164 1616.34,-160.5 1616.34,-167.5"/>
<text text-anchor="middle" x="1568" y="-170.8" font-family="Times,serif" font-size="14.00">PHI Data flow</text>
</g>
<!-- d6 -->
<!-- d7 -->
<!-- d6&#45;&gt;d7 -->
<g id="edge32" class="edge">
<title>d6&#45;&gt;d7</title>
<path fill="none" stroke="green" d="M1372.5,-164C1384.44,-164 1446.8,-164 1473.43,-164"/>
<polygon fill="green" stroke="green" points="1473.45,-167.5 1483.45,-164 1473.45,-160.5 1473.45,-167.5"/>
<text text-anchor="middle" x="1428" y="-170.8" font-family="Times,serif" font-size="14.00">Memory flow</text>
</g>
<!-- d8 -->
<!-- d9 -->
<!-- d8&#45;&gt;d9 -->
<g id="edge33" class="edge">
<title>d8&#45;&gt;d9</title>
<path fill="none" stroke="fuchsia" d="M1249.61,-164C1260.65,-164 1312.17,-164 1336.16,-164"/>
<polygon fill="fuchsia" stroke="fuchsia" points="1336.4,-167.5 1346.4,-164 1336.4,-160.5 1336.4,-167.5"/>
<text text-anchor="middle" x="1298" y="-170.8" font-family="Times,serif" font-size="14.00">Dominance</text>
</g>
</g>
</svg>
