<?xml version="1.0" encoding="UTF-8" standalone="no"?>
<!DOCTYPE svg PUBLIC "-//W3C//DTD SVG 1.1//EN"
 "http://www.w3.org/Graphics/SVG/1.1/DTD/svg11.dtd">
<!-- Generated by graphviz version 2.43.0 (0)
 -->
<!-- Title: debugoutput Pages: 1 -->
<svg width="2301pt" height="213pt"
 viewBox="0.00 0.00 2300.50 212.80" xmlns="http://www.w3.org/2000/svg" xmlns:xlink="http://www.w3.org/1999/xlink">
<g id="graph0" class="graph" transform="scale(1 1) rotate(0) translate(4 208.8)">
<title>debugoutput</title>
<polygon fill="white" stroke="transparent" points="-4,4 -4,-208.8 2296.5,-208.8 2296.5,4 -4,4"/>
<g id="clust1" class="cluster">
<title>cluster_000</title>
<polygon fill="none" stroke="black" points="1241,-154.2 1241,-196.8 2217,-196.8 2217,-154.2 1241,-154.2"/>
<text text-anchor="middle" x="1729" y="-181.6" font-family="Times,serif" font-size="14.00">Legend</text>
</g>
<!-- node0 -->
<g id="node1" class="node">
<title>node0</title>
<polygon fill="lightgrey" stroke="black" points="1231,-182 1065,-182 1065,-146 1231,-146 1231,-182"/>
<text text-anchor="middle" x="1148" y="-160.3" font-family="Times,serif" font-size="14.00">#0 Method Order : 0</text>
</g>
<!-- node1 -->
<g id="node2" class="node">
<title>node1</title>
<polygon fill="lightgrey" stroke="black" points="186,-109 0,-109 0,-73 186,-73 186,-109"/>
<text text-anchor="middle" x="93" y="-87.3" font-family="Times,serif" font-size="14.00">#1 arg3 : int Order : 11</text>
</g>
<!-- node0&#45;&gt;node1 -->
<g id="edge2" class="edge">
<title>node0&#45;&gt;node1</title>
<path fill="none" stroke="black" d="M1064.69,-161.44C899.15,-157.59 517.36,-145.26 195.71,-110.07"/>
<polygon fill="black" stroke="black" points="196.06,-106.59 185.73,-108.97 195.29,-113.55 196.06,-106.59"/>
<text text-anchor="middle" x="204.68" y="-98.86" font-family="Times,serif" font-size="14.00">*0</text>
</g>
<!-- node2 -->
<g id="node3" class="node">
<title>node2</title>
<polygon fill="lightgrey" stroke="black" points="416,-109 204,-109 204,-73 416,-73 416,-109"/>
<text text-anchor="middle" x="310" y="-87.3" font-family="Times,serif" font-size="14.00">#2 arg8 : String Order : 10</text>
</g>
<!-- node0&#45;&gt;node2 -->
<g id="edge4" class="edge">
<title>node0&#45;&gt;node2</title>
<path fill="none" stroke="black" d="M1064.94,-159.09C930.7,-152.09 657.85,-135.71 425.34,-110.15"/>
<polygon fill="black" stroke="black" points="425.67,-106.66 415.34,-109.04 424.9,-113.62 425.67,-106.66"/>
<text text-anchor="middle" x="434.29" y="-98.93" font-family="Times,serif" font-size="14.00">*0</text>
</g>
<!-- node3 -->
<g id="node4" class="node">
<title>node3</title>
<polygon fill="lightgrey" stroke="black" points="610.5,-109 433.5,-109 433.5,-73 610.5,-73 610.5,-109"/>
<text text-anchor="middle" x="522" y="-87.3" font-family="Times,serif" font-size="14.00">#3 arg1 : int Order : 9</text>
</g>
<!-- node0&#45;&gt;node3 -->
<g id="edge6" class="edge">
<title>node0&#45;&gt;node3</title>
<path fill="none" stroke="black" d="M1064.72,-156.81C961.1,-148.34 778.79,-131.73 621.09,-110.38"/>
<polygon fill="black" stroke="black" points="621.12,-106.85 610.74,-108.96 620.18,-113.79 621.12,-106.85"/>
<text text-anchor="middle" x="629.85" y="-99.34" font-family="Times,serif" font-size="14.00">*0</text>
</g>
<!-- node4 -->
<g id="node5" class="node">
<title>node4</title>
<polygon fill="lightgrey" stroke="black" points="817,-109 629,-109 629,-73 817,-73 817,-109"/>
<text text-anchor="middle" x="723" y="-87.3" font-family="Times,serif" font-size="14.00">#4 arg5 : long Order : 8</text>
</g>
<!-- node0&#45;&gt;node4 -->
<g id="edge8" class="edge">
<title>node0&#45;&gt;node4</title>
<path fill="none" stroke="black" d="M1064.94,-150.02C996.99,-138.94 900.57,-122.86 827.41,-110.45"/>
<polygon fill="black" stroke="black" points="827.7,-106.94 817.25,-108.72 826.52,-113.85 827.7,-106.94"/>
<text text-anchor="middle" x="836.54" y="-99.72" font-family="Times,serif" font-size="14.00">*0</text>
</g>
<!-- node5 -->
<g id="node6" class="node">
<title>node5</title>
<polygon fill="lightgrey" stroke="black" points="1041,-109 835,-109 835,-73 1041,-73 1041,-109"/>
<text text-anchor="middle" x="938" y="-87.3" font-family="Times,serif" font-size="14.00">#5 arg7 : double Order : 7</text>
</g>
<!-- node0&#45;&gt;node5 -->
<g id="edge10" class="edge">
<title>node0&#45;&gt;node5</title>
<path fill="none" stroke="black" d="M1091.84,-145.99C1060.99,-135.92 1022.96,-123.1 992.39,-112.48"/>
<polygon fill="black" stroke="black" points="993.34,-109.1 982.75,-109.11 991.04,-115.71 993.34,-109.1"/>
<text text-anchor="middle" x="1002.65" y="-103.41" font-family="Times,serif" font-size="14.00">*0</text>
</g>
<!-- node6 -->
<g id="node7" class="node">
<title>node6</title>
<polygon fill="lightgrey" stroke="black" points="1236.5,-109 1059.5,-109 1059.5,-73 1236.5,-73 1236.5,-109"/>
<text text-anchor="middle" x="1148" y="-87.3" font-family="Times,serif" font-size="14.00">#6 arg4 : int Order : 6</text>
</g>
<!-- node0&#45;&gt;node6 -->
<g id="edge12" class="edge">
<title>node0&#45;&gt;node6</title>
<path fill="none" stroke="black" d="M1142.12,-145.81C1141.28,-137.79 1141.05,-128.05 1141.42,-119.07"/>
<polygon fill="black" stroke="black" points="1144.92,-119.25 1142.14,-109.03 1137.94,-118.75 1144.92,-119.25"/>
<text text-anchor="middle" x="1149.28" y="-124.01" font-family="Times,serif" font-size="14.00">*0</text>
</g>
<!-- node7 -->
<g id="node8" class="node">
<title>node7</title>
<polygon fill="lightgrey" stroke="black" points="1443,-109 1255,-109 1255,-73 1443,-73 1443,-109"/>
<text text-anchor="middle" x="1349" y="-87.3" font-family="Times,serif" font-size="14.00">#7 arg9 : int[] Order : 5</text>
</g>
<!-- node0&#45;&gt;node7 -->
<g id="edge14" class="edge">
<title>node0&#45;&gt;node7</title>
<path fill="none" stroke="black" d="M1190.29,-145.99C1217.72,-135.92 1253.92,-123.1 1284.84,-112.48"/>
<polygon fill="black" stroke="black" points="1286.35,-115.66 1294.68,-109.11 1284.09,-109.04 1286.35,-115.66"/>
<text text-anchor="middle" x="1280.27" y="-119.28" font-family="Times,serif" font-size="14.00">*0</text>
</g>
<!-- node8 -->
<g id="node9" class="node">
<title>node8</title>
<polygon fill="lightgrey" stroke="black" points="1638.5,-109 1461.5,-109 1461.5,-73 1638.5,-73 1638.5,-109"/>
<text text-anchor="middle" x="1550" y="-87.3" font-family="Times,serif" font-size="14.00">#8 arg0 : int Order : 4</text>
</g>
<!-- node0&#45;&gt;node8 -->
<g id="edge16" class="edge">
<title>node0&#45;&gt;node8</title>
<path fill="none" stroke="black" d="M1228.28,-145.95C1323.45,-128.68 1347.55,-125.49 1443,-109 1445.7,-108.53 1448.44,-108.06 1451.21,-107.58"/>
<polygon fill="black" stroke="black" points="1452.07,-110.98 1461.33,-105.83 1450.88,-104.09 1452.07,-110.98"/>
<text text-anchor="middle" x="1444.91" y="-113.55" font-family="Times,serif" font-size="14.00">*0</text>
</g>
<!-- node9 -->
<g id="node10" class="node">
<title>node9</title>
<polygon fill="lightgrey" stroke="black" points="1833.5,-109 1656.5,-109 1656.5,-73 1833.5,-73 1833.5,-109"/>
<text text-anchor="middle" x="1745" y="-87.3" font-family="Times,serif" font-size="14.00">#9 arg2 : int Order : 3</text>
</g>
<!-- node0&#45;&gt;node9 -->
<g id="edge18" class="edge">
<title>node0&#45;&gt;node9</title>
<path fill="none" stroke="black" d="M1228.27,-145.96C1409.68,-120.55 1457.27,-133.06 1639,-109 1641.48,-108.67 1644,-108.32 1646.54,-107.96"/>
<polygon fill="black" stroke="black" points="1647.06,-111.42 1656.44,-106.5 1646.03,-104.5 1647.06,-111.42"/>
<text text-anchor="middle" x="1639.74" y="-113.81" font-family="Times,serif" font-size="14.00">*0</text>
</g>
<!-- node10 -->
<g id="node11" class="node">
<title>node10</title>
<polygon fill="lightgrey" stroke="black" points="2050,-109 1852,-109 1852,-73 2050,-73 2050,-109"/>
<text text-anchor="middle" x="1951" y="-87.3" font-family="Times,serif" font-size="14.00">#10 arg6 : float Order : 2</text>
</g>
<!-- node0&#45;&gt;node10 -->
<g id="edge20" class="edge">
<title>node0&#45;&gt;node10</title>
<path fill="none" stroke="black" d="M1228.39,-145.95C1362.53,-129.19 1700.01,-123.6 1834,-109 1836.56,-108.72 1839.15,-108.42 1841.76,-108.11"/>
<polygon fill="black" stroke="black" points="1842.45,-111.55 1851.94,-106.84 1841.58,-104.61 1842.45,-111.55"/>
<text text-anchor="middle" x="1835.01" y="-113.78" font-family="Times,serif" font-size="14.00">*0</text>
</g>
<!-- node11 -->
<g id="node12" class="node">
<title>node11</title>
<polygon fill="lightgrey" stroke="black" points="2265.5,-109 2068.5,-109 2068.5,-73 2265.5,-73 2265.5,-109"/>
<text text-anchor="middle" x="2167" y="-87.3" font-family="Times,serif" font-size="14.00">#11 LabelNode Order : 1</text>
</g>
<!-- node0&#45;&gt;node11 -->
<g id="edge22" class="edge">
<title>node0&#45;&gt;node11</title>
<path fill="none" stroke="red" d="M1228.27,-145.97C1410.05,-124.68 1868.16,-127.35 2050,-109 2052.7,-108.73 2055.43,-108.43 2058.18,-108.12"/>
<polygon fill="red" stroke="red" points="2058.74,-111.58 2068.24,-106.91 2057.9,-104.63 2058.74,-111.58"/>
</g>
<!-- node12 -->
<g id="node13" class="node">
<title>node12</title>
<polygon fill="lightgrey" stroke="black" points="2292.5,-36 2041.5,-36 2041.5,0 2292.5,0 2292.5,-36"/>
<text text-anchor="middle" x="2167" y="-14.3" font-family="Times,serif" font-size="14.00">#12 ReturnValue : int Order : 12</text>
</g>
<!-- node0&#45;&gt;node12 -->
<g id="edge26" class="edge">
<title>node0&#45;&gt;node12</title>
<path fill="none" stroke="green" d="M1228.35,-145.96C1289.01,-139.58 2226.01,-150.44 2266,-109 2277.11,-97.49 2274.41,-86.61 2266,-73 2257.33,-58.97 2243.79,-48.46 2229.45,-40.64"/>
<polygon fill="green" stroke="green" points="2230.96,-37.48 2220.46,-36.11 2227.81,-43.73 2230.96,-37.48"/>
</g>
<!-- node1&#45;&gt;node0 -->
<g id="edge1" class="edge">
<title>node1&#45;&gt;node0</title>
<path fill="none" stroke="fuchsia" stroke-width="2" d="M186.21,-106.77C192.23,-107.6 198.2,-108.35 204,-109 514.7,-143.59 884.99,-156.52 1054.73,-160.94"/>
<polygon fill="fuchsia" stroke="fuchsia" stroke-width="2" points="1054.79,-164.44 1064.88,-161.2 1054.97,-157.44 1054.79,-164.44"/>
</g>
<!-- node1&#45;&gt;node12 -->
<g id="edge24" class="edge">
<title>node1&#45;&gt;node12</title>
<path fill="none" stroke="black" d="M186.04,-73.95C189.06,-73.6 192.05,-73.28 195,-73 552.23,-38.51 1646.23,-24.3 2031.23,-20.28"/>
<polygon fill="black" stroke="black" points="2031.34,-23.78 2041.3,-20.18 2031.27,-16.78 2031.34,-23.78"/>
<text text-anchor="middle" x="2023.27" y="-25.12" font-family="Times,serif" font-size="14.00">*0</text>
</g>
<!-- node2&#45;&gt;node0 -->
<g id="edge3" class="edge">
<title>node2&#45;&gt;node0</title>
<path fill="none" stroke="fuchsia" stroke-width="2" d="M416.25,-106.99C421.92,-107.71 427.53,-108.39 433,-109 655.72,-133.88 918.31,-150.25 1054.93,-157.93"/>
<polygon fill="fuchsia" stroke="fuchsia" stroke-width="2" points="1054.77,-161.42 1064.95,-158.49 1055.16,-154.43 1054.77,-161.42"/>
</g>
<!-- node3&#45;&gt;node0 -->
<g id="edge5" class="edge">
<title>node3&#45;&gt;node0</title>
<path fill="none" stroke="fuchsia" stroke-width="2" d="M610.6,-106.29C616.83,-107.26 623.01,-108.18 629,-109 777.63,-129.47 950.8,-145.74 1054.84,-154.88"/>
<polygon fill="fuchsia" stroke="fuchsia" stroke-width="2" points="1054.73,-158.39 1065,-155.77 1055.34,-151.41 1054.73,-158.39"/>
</g>
<!-- node4&#45;&gt;node0 -->
<g id="edge7" class="edge">
<title>node4&#45;&gt;node0</title>
<path fill="none" stroke="fuchsia" stroke-width="2" d="M817.33,-106.82C887.98,-118.38 984.14,-134.43 1054.57,-146.42"/>
<polygon fill="fuchsia" stroke="fuchsia" stroke-width="2" points="1054.33,-149.93 1064.77,-148.16 1055.5,-143.03 1054.33,-149.93"/>
</g>
<!-- node5&#45;&gt;node0 -->
<g id="edge9" class="edge">
<title>node5&#45;&gt;node0</title>
<path fill="none" stroke="fuchsia" stroke-width="2" d="M994.49,-109.11C1025.39,-119.2 1063.42,-132.03 1093.94,-142.63"/>
<polygon fill="fuchsia" stroke="fuchsia" stroke-width="2" points="1092.96,-146 1103.56,-145.99 1095.27,-139.39 1092.96,-146"/>
</g>
<!-- node6&#45;&gt;node0 -->
<g id="edge11" class="edge">
<title>node6&#45;&gt;node0</title>
<path fill="none" stroke="fuchsia" stroke-width="2" d="M1153.86,-109.03C1154.71,-117.03 1154.95,-126.77 1154.59,-135.75"/>
<polygon fill="fuchsia" stroke="fuchsia" stroke-width="2" points="1151.09,-135.59 1153.88,-145.81 1158.07,-136.08 1151.09,-135.59"/>
</g>
<!-- node7&#45;&gt;node0 -->
<g id="edge13" class="edge">
<title>node7&#45;&gt;node0</title>
<path fill="none" stroke="fuchsia" stroke-width="2" d="M1306.42,-109.11C1278.92,-119.2 1242.72,-132.03 1211.83,-142.63"/>
<polygon fill="fuchsia" stroke="fuchsia" stroke-width="2" points="1210.33,-139.45 1202,-145.99 1212.6,-146.07 1210.33,-139.45"/>
</g>
<!-- node8&#45;&gt;node0 -->
<g id="edge15" class="edge">
<title>node8&#45;&gt;node0</title>
<path fill="none" stroke="fuchsia" stroke-width="2" d="M1461.26,-108.96C1461.17,-108.97 1461.09,-108.99 1461,-109 1365.46,-125.51 1341.4,-128.68 1246,-146 1244.5,-146.27 1242.99,-146.55 1241.46,-146.83"/>
<polygon fill="fuchsia" stroke="fuchsia" stroke-width="2" points="1240.47,-143.45 1231.27,-148.71 1241.73,-150.34 1240.47,-143.45"/>
</g>
<!-- node9&#45;&gt;node0 -->
<g id="edge17" class="edge">
<title>node9&#45;&gt;node0</title>
<path fill="none" stroke="fuchsia" stroke-width="2" d="M1656.73,-109.04C1475.13,-133.06 1427.54,-120.55 1246,-146 1244.49,-146.21 1242.97,-146.43 1241.44,-146.66"/>
<polygon fill="fuchsia" stroke="fuchsia" stroke-width="2" points="1240.53,-143.26 1231.19,-148.26 1241.61,-150.17 1240.53,-143.26"/>
</g>
<!-- node10&#45;&gt;node0 -->
<g id="edge19" class="edge">
<title>node10&#45;&gt;node0</title>
<path fill="none" stroke="fuchsia" stroke-width="2" d="M1851.61,-109.04C1717.22,-123.63 1379.74,-129.21 1246,-146 1244.49,-146.19 1242.96,-146.39 1241.43,-146.6"/>
<polygon fill="fuchsia" stroke="fuchsia" stroke-width="2" points="1240.56,-143.19 1231.17,-148.09 1241.57,-150.11 1240.56,-143.19"/>
</g>
<!-- node11&#45;&gt;node0 -->
<g id="edge21" class="edge">
<title>node11&#45;&gt;node0</title>
<path fill="none" stroke="fuchsia" stroke-width="2" d="M2068.28,-108.97C2068.19,-108.98 2068.09,-108.99 2068,-109 1886.07,-127.36 1427.6,-124.68 1246,-146 1244.49,-146.18 1242.96,-146.37 1241.42,-146.56"/>
<polygon fill="fuchsia" stroke="fuchsia" stroke-width="2" points="1240.58,-143.15 1231.16,-148.01 1241.55,-150.08 1240.58,-143.15"/>
</g>
<!-- node11&#45;&gt;node12 -->
<g id="edge25" class="edge">
<title>node11&#45;&gt;node12</title>
<path fill="none" stroke="red" d="M2167,-72.81C2167,-64.79 2167,-55.05 2167,-46.07"/>
<polygon fill="red" stroke="red" points="2170.5,-46.03 2167,-36.03 2163.5,-46.03 2170.5,-46.03"/>
</g>
<!-- node12&#45;&gt;node0 -->
<g id="edge23" class="edge">
<title>node12&#45;&gt;node0</title>
<path fill="none" stroke="fuchsia" stroke-width="2" d="M2237.54,-36.11C2255.96,-44.26 2273.53,-56.06 2284,-73 2292.41,-86.61 2295.11,-97.49 2284,-109 2243.93,-150.52 1303.34,-139.54 1246,-146 1244.49,-146.17 1242.96,-146.35 1241.42,-146.54"/>
<polygon fill="fuchsia" stroke="fuchsia" stroke-width="2" points="1240.59,-143.13 1231.15,-147.95 1241.54,-150.06 1240.59,-143.13"/>
</g>
<!-- c0 -->
<!-- c1 -->
<!-- c0&#45;&gt;c1 -->
<g id="edge27" class="edge">
<title>c0&#45;&gt;c1</title>
<path fill="none" stroke="red" d="M2099.89,-164C2111.11,-164 2169.24,-164 2194.86,-164"/>
<polygon fill="red" stroke="red" points="2195.06,-167.5 2205.06,-164 2195.06,-160.5 2195.06,-167.5"/>
<text text-anchor="middle" x="2152.5" y="-170.8" font-family="Times,serif" font-size="14.00">Control flow</text>
</g>
<!-- c2 -->
<!-- c3 -->
<!-- c2&#45;&gt;c3 -->
<g id="edge28" class="edge">
<title>c2&#45;&gt;c3</title>
<path fill="none" stroke="red" stroke-dasharray="5,2" d="M1893.08,-164C1910.05,-164 2026.21,-164 2064.08,-164"/>
<polygon fill="red" stroke="red" points="2064.17,-167.5 2074.17,-164 2064.17,-160.5 2064.17,-167.5"/>
<text text-anchor="middle" x="1983.5" y="-170.8" font-family="Times,serif" font-size="14.00">Control flow back edge</text>
</g>
<!-- d0 -->
<!-- d1 -->
<!-- d0&#45;&gt;d1 -->
<g id="edge29" class="edge">
<title>d0&#45;&gt;d1</title>
<path fill="none" stroke="black" d="M1781.86,-164C1791.41,-164 1835.31,-164 1856.92,-164"/>
<polygon fill="black" stroke="black" points="1857.15,-167.5 1867.15,-164 1857.15,-160.5 1857.15,-167.5"/>
<text text-anchor="middle" x="1824.5" y="-170.8" font-family="Times,serif" font-size="14.00">Data flow</text>
</g>
<!-- d2 -->
<!-- d3 -->
<!-- d2&#45;&gt;d3 -->
<g id="edge30" class="edge">
<title>d2&#45;&gt;d3</title>
<path fill="none" stroke="black" stroke-dasharray="1,5" d="M1655.81,-164C1666.46,-164 1721.46,-164 1746.08,-164"/>
<polygon fill="black" stroke="black" points="1746.15,-167.5 1756.15,-164 1746.15,-160.5 1746.15,-167.5"/>
<text text-anchor="middle" x="1706" y="-170.8" font-family="Times,serif" font-size="14.00">Declaration</text>
</g>
<!-- d4 -->
<!-- d5 -->
<!-- d4&#45;&gt;d5 -->
<g id="edge31" class="edge">
<title>d4&#45;&gt;d5</title>
<path fill="none" stroke="blue" d="M1513.1,-164C1525.72,-164 1591.88,-164 1619.68,-164"/>
<polygon fill="blue" stroke="blue" points="1619.84,-167.5 1629.84,-164 1619.84,-160.5 1619.84,-167.5"/>
<text text-anchor="middle" x="1571.5" y="-170.8" font-family="Times,serif" font-size="14.00">PHI Data flow</text>
</g>
<!-- d6 -->
<!-- d7 -->
<!-- d6&#45;&gt;d7 -->
<g id="edge32" class="edge">
<title>d6&#45;&gt;d7</title>
<path fill="none" stroke="green" d="M1376,-164C1387.94,-164 1450.3,-164 1476.93,-164"/>
<polygon fill="green" stroke="green" points="1476.95,-167.5 1486.95,-164 1476.95,-160.5 1476.95,-167.5"/>
<text text-anchor="middle" x="1431.5" y="-170.8" font-family="Times,serif" font-size="14.00">Memory flow</text>
</g>
<!-- d8 -->
<!-- d9 -->
<!-- d8&#45;&gt;d9 -->
<g id="edge33" class="edge">
<title>d8&#45;&gt;d9</title>
<path fill="none" stroke="fuchsia" d="M1253.11,-164C1264.15,-164 1315.67,-164 1339.66,-164"/>
<polygon fill="fuchsia" stroke="fuchsia" points="1339.9,-167.5 1349.9,-164 1339.9,-160.5 1339.9,-167.5"/>
<text text-anchor="middle" x="1301.5" y="-170.8" font-family="Times,serif" font-size="14.00">Dominance</text>
</g>
</g>
</svg>
