<?xml version="1.0" encoding="UTF-8" standalone="no"?>
<!DOCTYPE svg PUBLIC "-//W3C//DTD SVG 1.1//EN"
 "http://www.w3.org/Graphics/SVG/1.1/DTD/svg11.dtd">
<!-- Generated by graphviz version 2.43.0 (0)
 -->
<!-- Title: debugoutput Pages: 1 -->
<svg width="2309pt" height="213pt"
 viewBox="0.00 0.00 2308.99 212.80" xmlns="http://www.w3.org/2000/svg" xmlns:xlink="http://www.w3.org/1999/xlink">
<g id="graph0" class="graph" transform="scale(1 1) rotate(0) translate(4 208.8)">
<title>debugoutput</title>
<polygon fill="white" stroke="transparent" points="-4,4 -4,-208.8 2304.99,-208.8 2304.99,4 -4,4"/>
<g id="clust1" class="cluster">
<title>cluster_000</title>
<polygon fill="none" stroke="black" points="1206.5,-154.2 1206.5,-196.8 2182.5,-196.8 2182.5,-154.2 1206.5,-154.2"/>
<text text-anchor="middle" x="1694.5" y="-181.6" font-family="Times,serif" font-size="14.00">Legend</text>
</g>
<!-- node0 -->
<g id="node1" class="node">
<title>node0</title>
<polygon fill="lightgrey" stroke="black" points="1196.5,-182 1030.5,-182 1030.5,-146 1196.5,-146 1196.5,-182"/>
<text text-anchor="middle" x="1113.5" y="-160.3" font-family="Times,serif" font-size="14.00">#0 Method Order : 0</text>
</g>
<!-- node1 -->
<g id="node2" class="node">
<title>node1</title>
<polygon fill="lightgrey" stroke="black" points="197,-109 0,-109 0,-73 197,-73 197,-109"/>
<text text-anchor="middle" x="98.5" y="-87.3" font-family="Times,serif" font-size="14.00">#1 arg5 : long Order : 12</text>
</g>
<!-- node0&#45;&gt;node1 -->
<g id="edge2" class="edge">
<title>node0&#45;&gt;node1</title>
<path fill="none" stroke="black" d="M1030.31,-160.89C870.84,-156.14 511.31,-142.39 207.55,-110.08"/>
<polygon fill="black" stroke="black" points="207.53,-106.56 197.22,-108.97 206.79,-113.52 207.53,-106.56"/>
<text text-anchor="middle" x="216.14" y="-98.8" font-family="Times,serif" font-size="14.00">*0</text>
</g>
<!-- node2 -->
<g id="node3" class="node">
<title>node2</title>
<polygon fill="lightgrey" stroke="black" points="401.5,-109 215.5,-109 215.5,-73 401.5,-73 401.5,-109"/>
<text text-anchor="middle" x="308.5" y="-87.3" font-family="Times,serif" font-size="14.00">#2 arg4 : int Order : 11</text>
</g>
<!-- node0&#45;&gt;node2 -->
<g id="edge4" class="edge">
<title>node0&#45;&gt;node2</title>
<path fill="none" stroke="black" d="M1030.25,-159.28C898.89,-152.67 635.68,-136.97 411.22,-110.17"/>
<polygon fill="black" stroke="black" points="411.58,-106.69 401.23,-108.97 410.74,-113.64 411.58,-106.69"/>
<text text-anchor="middle" x="420.24" y="-99.04" font-family="Times,serif" font-size="14.00">*0</text>
</g>
<!-- node3 -->
<g id="node4" class="node">
<title>node3</title>
<polygon fill="lightgrey" stroke="black" points="617,-109 420,-109 420,-73 617,-73 617,-109"/>
<text text-anchor="middle" x="518.5" y="-87.3" font-family="Times,serif" font-size="14.00">#3 arg9 : int[] Order : 10</text>
</g>
<!-- node0&#45;&gt;node3 -->
<g id="edge6" class="edge">
<title>node0&#45;&gt;node3</title>
<path fill="none" stroke="black" d="M1030.15,-155.61C933.57,-146.35 769.62,-129.37 627.14,-110.42"/>
<polygon fill="black" stroke="black" points="627.3,-106.91 616.92,-109.06 626.37,-113.85 627.3,-106.91"/>
<text text-anchor="middle" x="636.01" y="-99.38" font-family="Times,serif" font-size="14.00">*0</text>
</g>
<!-- node4 -->
<g id="node5" class="node">
<title>node4</title>
<polygon fill="lightgrey" stroke="black" points="812,-109 635,-109 635,-73 812,-73 812,-109"/>
<text text-anchor="middle" x="723.5" y="-87.3" font-family="Times,serif" font-size="14.00">#4 arg3 : int Order : 8</text>
</g>
<!-- node0&#45;&gt;node4 -->
<g id="edge8" class="edge">
<title>node0&#45;&gt;node4</title>
<path fill="none" stroke="black" d="M1030.47,-148.89C969.24,-138.01 885.8,-122.85 821.35,-110.91"/>
<polygon fill="black" stroke="black" points="821.64,-107.41 811.17,-109.03 820.37,-114.29 821.64,-107.41"/>
<text text-anchor="middle" x="830.53" y="-100.32" font-family="Times,serif" font-size="14.00">*0</text>
</g>
<!-- node5 -->
<g id="node6" class="node">
<title>node5</title>
<polygon fill="lightgrey" stroke="black" points="1007,-109 830,-109 830,-73 1007,-73 1007,-109"/>
<text text-anchor="middle" x="918.5" y="-87.3" font-family="Times,serif" font-size="14.00">#5 arg1 : int Order : 7</text>
</g>
<!-- node0&#45;&gt;node5 -->
<g id="edge10" class="edge">
<title>node0&#45;&gt;node5</title>
<path fill="none" stroke="black" d="M1060.93,-145.99C1032.46,-136.01 997.5,-123.32 969.3,-112.76"/>
<polygon fill="black" stroke="black" points="970.22,-109.36 959.63,-109.11 967.76,-115.91 970.22,-109.36"/>
<text text-anchor="middle" x="979.57" y="-103.89" font-family="Times,serif" font-size="14.00">*0</text>
</g>
<!-- node6 -->
<g id="node7" class="node">
<title>node6</title>
<polygon fill="lightgrey" stroke="black" points="1202,-109 1025,-109 1025,-73 1202,-73 1202,-109"/>
<text text-anchor="middle" x="1113.5" y="-87.3" font-family="Times,serif" font-size="14.00">#6 arg0 : int Order : 6</text>
</g>
<!-- node0&#45;&gt;node6 -->
<g id="edge12" class="edge">
<title>node0&#45;&gt;node6</title>
<path fill="none" stroke="black" d="M1107.62,-145.81C1106.78,-137.79 1106.55,-128.05 1106.92,-119.07"/>
<polygon fill="black" stroke="black" points="1110.42,-119.25 1107.64,-109.03 1103.44,-118.75 1110.42,-119.25"/>
<text text-anchor="middle" x="1114.78" y="-124.01" font-family="Times,serif" font-size="14.00">*0</text>
</g>
<!-- node7 -->
<g id="node8" class="node">
<title>node7</title>
<polygon fill="lightgrey" stroke="black" points="1397,-109 1220,-109 1220,-73 1397,-73 1397,-109"/>
<text text-anchor="middle" x="1308.5" y="-87.3" font-family="Times,serif" font-size="14.00">#7 arg2 : int Order : 5</text>
</g>
<!-- node0&#45;&gt;node7 -->
<g id="edge14" class="edge">
<title>node0&#45;&gt;node7</title>
<path fill="none" stroke="black" d="M1154.35,-145.99C1180.93,-135.92 1216.04,-123.1 1246.07,-112.48"/>
<polygon fill="black" stroke="black" points="1247.36,-115.74 1255.63,-109.11 1245.03,-109.13 1247.36,-115.74"/>
<text text-anchor="middle" x="1241.34" y="-119.41" font-family="Times,serif" font-size="14.00">*0</text>
</g>
<!-- node8 -->
<g id="node9" class="node">
<title>node8</title>
<polygon fill="lightgrey" stroke="black" points="1621.5,-109 1415.5,-109 1415.5,-73 1621.5,-73 1621.5,-109"/>
<text text-anchor="middle" x="1518.5" y="-87.3" font-family="Times,serif" font-size="14.00">#8 arg7 : double Order : 4</text>
</g>
<!-- node0&#45;&gt;node8 -->
<g id="edge16" class="edge">
<title>node0&#45;&gt;node8</title>
<path fill="none" stroke="black" d="M1193.91,-145.93C1264.06,-133.24 1343.06,-119.74 1405.6,-109.42"/>
<polygon fill="black" stroke="black" points="1406.19,-112.87 1415.49,-107.79 1405.05,-105.96 1406.19,-112.87"/>
<text text-anchor="middle" x="1398.98" y="-115.38" font-family="Times,serif" font-size="14.00">*0</text>
</g>
<!-- node9 -->
<g id="node10" class="node">
<title>node9</title>
<polygon fill="lightgrey" stroke="black" points="1829,-109 1640,-109 1640,-73 1829,-73 1829,-109"/>
<text text-anchor="middle" x="1734.5" y="-87.3" font-family="Times,serif" font-size="14.00">#9 arg6 : float Order : 3</text>
</g>
<!-- node0&#45;&gt;node9 -->
<g id="edge18" class="edge">
<title>node0&#45;&gt;node9</title>
<path fill="none" stroke="black" d="M1193.78,-145.96C1382.68,-119.84 1432.13,-132.63 1621.5,-109 1624.21,-108.66 1626.97,-108.3 1629.75,-107.93"/>
<polygon fill="black" stroke="black" points="1630.47,-111.36 1639.9,-106.52 1629.51,-104.43 1630.47,-111.36"/>
<text text-anchor="middle" x="1623.1" y="-113.69" font-family="Times,serif" font-size="14.00">*0</text>
</g>
<!-- node10 -->
<g id="node11" class="node">
<title>node10</title>
<polygon fill="lightgrey" stroke="black" points="2059.5,-109 1847.5,-109 1847.5,-73 2059.5,-73 2059.5,-109"/>
<text text-anchor="middle" x="1953.5" y="-87.3" font-family="Times,serif" font-size="14.00">#10 arg8 : String Order : 2</text>
</g>
<!-- node0&#45;&gt;node10 -->
<g id="edge20" class="edge">
<title>node0&#45;&gt;node10</title>
<path fill="none" stroke="black" d="M1193.91,-145.95C1334.69,-128.56 1688.81,-123.46 1829.5,-109 1832.05,-108.74 1834.62,-108.46 1837.22,-108.17"/>
<polygon fill="black" stroke="black" points="1837.82,-111.62 1847.34,-106.98 1837,-104.67 1837.82,-111.62"/>
<text text-anchor="middle" x="1830.32" y="-113.79" font-family="Times,serif" font-size="14.00">*0</text>
</g>
<!-- node11 -->
<g id="node12" class="node">
<title>node11</title>
<polygon fill="lightgrey" stroke="black" points="2275,-109 2078,-109 2078,-73 2275,-73 2275,-109"/>
<text text-anchor="middle" x="2176.5" y="-87.3" font-family="Times,serif" font-size="14.00">#11 LabelNode Order : 1</text>
</g>
<!-- node0&#45;&gt;node11 -->
<g id="edge22" class="edge">
<title>node0&#45;&gt;node11</title>
<path fill="none" stroke="red" d="M1193.78,-145.97C1385.3,-123.76 1867.92,-128.11 2059.5,-109 2062.2,-108.73 2064.93,-108.44 2067.68,-108.13"/>
<polygon fill="red" stroke="red" points="2068.23,-111.59 2077.75,-106.92 2067.4,-104.64 2068.23,-111.59"/>
</g>
<!-- node12 -->
<g id="node13" class="node">
<title>node12</title>
<polygon fill="lightgrey" stroke="black" points="2297.5,-36 2055.5,-36 2055.5,0 2297.5,0 2297.5,-36"/>
<text text-anchor="middle" x="2176.5" y="-14.3" font-family="Times,serif" font-size="14.00">#12 ReturnValue : int Order : 9</text>
</g>
<!-- node0&#45;&gt;node12 -->
<g id="edge26" class="edge">
<title>node0&#45;&gt;node12</title>
<path fill="none" stroke="green" d="M1193.86,-145.96C1257.1,-139.36 2233.78,-152.17 2275.5,-109 2286.62,-97.49 2283.91,-86.61 2275.5,-73 2266.83,-58.97 2253.29,-48.46 2238.95,-40.64"/>
<polygon fill="green" stroke="green" points="2240.46,-37.48 2229.96,-36.11 2237.31,-43.73 2240.46,-37.48"/>
</g>
<!-- node1&#45;&gt;node0 -->
<g id="edge1" class="edge">
<title>node1&#45;&gt;node0</title>
<path fill="none" stroke="fuchsia" stroke-width="2" d="M197.27,-106.81C203.44,-107.61 209.56,-108.36 215.5,-109 508.52,-140.71 856.95,-154.9 1020.33,-160.25"/>
<polygon fill="fuchsia" stroke="fuchsia" stroke-width="2" points="1020.24,-163.75 1030.35,-160.57 1020.47,-156.75 1020.24,-163.75"/>
</g>
<!-- node2&#45;&gt;node0 -->
<g id="edge3" class="edge">
<title>node2&#45;&gt;node0</title>
<path fill="none" stroke="fuchsia" stroke-width="2" d="M401.72,-106.64C407.74,-107.5 413.71,-108.3 419.5,-109 633.86,-135.04 886.6,-150.84 1020.1,-158.14"/>
<polygon fill="fuchsia" stroke="fuchsia" stroke-width="2" points="1020.11,-161.64 1030.29,-158.69 1020.49,-154.65 1020.11,-161.64"/>
</g>
<!-- node3&#45;&gt;node0 -->
<g id="edge5" class="edge">
<title>node3&#45;&gt;node0</title>
<path fill="none" stroke="fuchsia" stroke-width="2" d="M617.06,-106.55C622.96,-107.41 628.81,-108.23 634.5,-109 768.51,-127.05 923.82,-143.47 1020.44,-153.34"/>
<polygon fill="fuchsia" stroke="fuchsia" stroke-width="2" points="1020.17,-156.83 1030.47,-154.36 1020.88,-149.87 1020.17,-156.83"/>
</g>
<!-- node4&#45;&gt;node0 -->
<g id="edge7" class="edge">
<title>node4&#45;&gt;node0</title>
<path fill="none" stroke="fuchsia" stroke-width="2" d="M812.08,-107.1C874.25,-118.17 957.17,-133.25 1020.33,-144.95"/>
<polygon fill="fuchsia" stroke="fuchsia" stroke-width="2" points="1019.82,-148.42 1030.29,-146.8 1021.09,-141.53 1019.82,-148.42"/>
</g>
<!-- node4&#45;&gt;node12 -->
<g id="edge24" class="edge">
<title>node4&#45;&gt;node12</title>
<path fill="none" stroke="black" d="M812.24,-73.96C815.02,-73.61 817.78,-73.29 820.5,-73 1267.96,-25.1 1802.58,-18.62 2045.2,-18.41"/>
<polygon fill="black" stroke="black" points="2045.47,-21.91 2055.47,-18.41 2045.47,-14.91 2045.47,-21.91"/>
<text text-anchor="middle" x="2037.35" y="-23.17" font-family="Times,serif" font-size="14.00">*0</text>
</g>
<!-- node5&#45;&gt;node0 -->
<g id="edge9" class="edge">
<title>node5&#45;&gt;node0</title>
<path fill="none" stroke="fuchsia" stroke-width="2" d="M971.37,-109.11C999.89,-119.11 1034.85,-131.81 1063,-142.36"/>
<polygon fill="fuchsia" stroke="fuchsia" stroke-width="2" points="1062.06,-145.74 1072.65,-145.99 1064.53,-139.19 1062.06,-145.74"/>
</g>
<!-- node6&#45;&gt;node0 -->
<g id="edge11" class="edge">
<title>node6&#45;&gt;node0</title>
<path fill="none" stroke="fuchsia" stroke-width="2" d="M1119.36,-109.03C1120.21,-117.03 1120.45,-126.77 1120.09,-135.75"/>
<polygon fill="fuchsia" stroke="fuchsia" stroke-width="2" points="1116.59,-135.59 1119.38,-145.81 1123.57,-136.08 1116.59,-135.59"/>
</g>
<!-- node7&#45;&gt;node0 -->
<g id="edge13" class="edge">
<title>node7&#45;&gt;node0</title>
<path fill="none" stroke="fuchsia" stroke-width="2" d="M1267.37,-109.11C1240.72,-119.2 1205.6,-132.03 1175.61,-142.63"/>
<polygon fill="fuchsia" stroke="fuchsia" stroke-width="2" points="1174.34,-139.37 1166.07,-145.99 1176.66,-145.97 1174.34,-139.37"/>
</g>
<!-- node8&#45;&gt;node0 -->
<g id="edge15" class="edge">
<title>node8&#45;&gt;node0</title>
<path fill="none" stroke="fuchsia" stroke-width="2" d="M1423.77,-109.01C1363.07,-119.39 1282.7,-133.12 1211.5,-146 1210,-146.27 1208.49,-146.55 1206.96,-146.82"/>
<polygon fill="fuchsia" stroke="fuchsia" stroke-width="2" points="1205.97,-143.45 1196.76,-148.7 1207.23,-150.33 1205.97,-143.45"/>
</g>
<!-- node9&#45;&gt;node0 -->
<g id="edge17" class="edge">
<title>node9&#45;&gt;node0</title>
<path fill="none" stroke="fuchsia" stroke-width="2" d="M1639.77,-108.97C1639.68,-108.98 1639.59,-108.99 1639.5,-109 1450.04,-132.64 1400.63,-119.83 1211.5,-146 1209.99,-146.21 1208.47,-146.43 1206.93,-146.65"/>
<polygon fill="fuchsia" stroke="fuchsia" stroke-width="2" points="1206.04,-143.25 1196.69,-148.24 1207.11,-150.17 1206.04,-143.25"/>
</g>
<!-- node10&#45;&gt;node0 -->
<g id="edge19" class="edge">
<title>node10&#45;&gt;node0</title>
<path fill="none" stroke="fuchsia" stroke-width="2" d="M1847.8,-108.97C1847.7,-108.98 1847.6,-108.99 1847.5,-109 1706.67,-123.48 1352,-128.57 1211.5,-146 1209.99,-146.19 1208.46,-146.39 1206.93,-146.59"/>
<polygon fill="fuchsia" stroke="fuchsia" stroke-width="2" points="1206.06,-143.18 1196.67,-148.08 1207.07,-150.11 1206.06,-143.18"/>
</g>
<!-- node11&#45;&gt;node0 -->
<g id="edge21" class="edge">
<title>node11&#45;&gt;node0</title>
<path fill="none" stroke="fuchsia" stroke-width="2" d="M2077.78,-108.97C2077.69,-108.98 2077.59,-108.99 2077.5,-109 1885.83,-128.12 1402.83,-123.76 1211.5,-146 1209.99,-146.18 1208.46,-146.36 1206.92,-146.56"/>
<polygon fill="fuchsia" stroke="fuchsia" stroke-width="2" points="1206.08,-143.14 1196.66,-147.99 1207.05,-150.08 1206.08,-143.14"/>
</g>
<!-- node11&#45;&gt;node12 -->
<g id="edge25" class="edge">
<title>node11&#45;&gt;node12</title>
<path fill="none" stroke="red" d="M2176.5,-72.81C2176.5,-64.79 2176.5,-55.05 2176.5,-46.07"/>
<polygon fill="red" stroke="red" points="2180,-46.03 2176.5,-36.03 2173,-46.03 2180,-46.03"/>
</g>
<!-- node12&#45;&gt;node0 -->
<g id="edge23" class="edge">
<title>node12&#45;&gt;node0</title>
<path fill="none" stroke="fuchsia" stroke-width="2" d="M2247.04,-36.11C2265.46,-44.26 2283.03,-56.06 2293.5,-73 2301.91,-86.61 2304.62,-97.49 2293.5,-109 2251.7,-152.25 1271.27,-139.31 1211.5,-146 1209.99,-146.17 1208.46,-146.35 1206.92,-146.54"/>
<polygon fill="fuchsia" stroke="fuchsia" stroke-width="2" points="1206.09,-143.12 1196.65,-147.94 1207.04,-150.06 1206.09,-143.12"/>
</g>
<!-- c0 -->
<!-- c1 -->
<!-- c0&#45;&gt;c1 -->
<g id="edge27" class="edge">
<title>c0&#45;&gt;c1</title>
<path fill="none" stroke="red" d="M2065.39,-164C2076.61,-164 2134.74,-164 2160.36,-164"/>
<polygon fill="red" stroke="red" points="2160.56,-167.5 2170.56,-164 2160.56,-160.5 2160.56,-167.5"/>
<text text-anchor="middle" x="2118" y="-170.8" font-family="Times,serif" font-size="14.00">Control flow</text>
</g>
<!-- c2 -->
<!-- c3 -->
<!-- c2&#45;&gt;c3 -->
<g id="edge28" class="edge">
<title>c2&#45;&gt;c3</title>
<path fill="none" stroke="red" stroke-dasharray="5,2" d="M1858.58,-164C1875.55,-164 1991.71,-164 2029.58,-164"/>
<polygon fill="red" stroke="red" points="2029.67,-167.5 2039.67,-164 2029.67,-160.5 2029.67,-167.5"/>
<text text-anchor="middle" x="1949" y="-170.8" font-family="Times,serif" font-size="14.00">Control flow back edge</text>
</g>
<!-- d0 -->
<!-- d1 -->
<!-- d0&#45;&gt;d1 -->
<g id="edge29" class="edge">
<title>d0&#45;&gt;d1</title>
<path fill="none" stroke="black" d="M1747.36,-164C1756.91,-164 1800.81,-164 1822.42,-164"/>
<polygon fill="black" stroke="black" points="1822.65,-167.5 1832.65,-164 1822.65,-160.5 1822.65,-167.5"/>
<text text-anchor="middle" x="1790" y="-170.8" font-family="Times,serif" font-size="14.00">Data flow</text>
</g>
<!-- d2 -->
<!-- d3 -->
<!-- d2&#45;&gt;d3 -->
<g id="edge30" class="edge">
<title>d2&#45;&gt;d3</title>
<path fill="none" stroke="black" stroke-dasharray="1,5" d="M1621.31,-164C1631.96,-164 1686.96,-164 1711.58,-164"/>
<polygon fill="black" stroke="black" points="1711.65,-167.5 1721.65,-164 1711.65,-160.5 1711.65,-167.5"/>
<text text-anchor="middle" x="1671.5" y="-170.8" font-family="Times,serif" font-size="14.00">Declaration</text>
</g>
<!-- d4 -->
<!-- d5 -->
<!-- d4&#45;&gt;d5 -->
<g id="edge31" class="edge">
<title>d4&#45;&gt;d5</title>
<path fill="none" stroke="blue" d="M1478.6,-164C1491.22,-164 1557.38,-164 1585.18,-164"/>
<polygon fill="blue" stroke="blue" points="1585.34,-167.5 1595.34,-164 1585.34,-160.5 1585.34,-167.5"/>
<text text-anchor="middle" x="1537" y="-170.8" font-family="Times,serif" font-size="14.00">PHI Data flow</text>
</g>
<!-- d6 -->
<!-- d7 -->
<!-- d6&#45;&gt;d7 -->
<g id="edge32" class="edge">
<title>d6&#45;&gt;d7</title>
<path fill="none" stroke="green" d="M1341.5,-164C1353.44,-164 1415.8,-164 1442.43,-164"/>
<polygon fill="green" stroke="green" points="1442.45,-167.5 1452.45,-164 1442.45,-160.5 1442.45,-167.5"/>
<text text-anchor="middle" x="1397" y="-170.8" font-family="Times,serif" font-size="14.00">Memory flow</text>
</g>
<!-- d8 -->
<!-- d9 -->
<!-- d8&#45;&gt;d9 -->
<g id="edge33" class="edge">
<title>d8&#45;&gt;d9</title>
<path fill="none" stroke="fuchsia" d="M1218.61,-164C1229.65,-164 1281.17,-164 1305.16,-164"/>
<polygon fill="fuchsia" stroke="fuchsia" points="1305.4,-167.5 1315.4,-164 1305.4,-160.5 1305.4,-167.5"/>
<text text-anchor="middle" x="1267" y="-170.8" font-family="Times,serif" font-size="14.00">Dominance</text>
</g>
</g>
</svg>
