<?xml version="1.0" encoding="UTF-8" standalone="no"?>
<!DOCTYPE svg PUBLIC "-//W3C//DTD SVG 1.1//EN"
 "http://www.w3.org/Graphics/SVG/1.1/DTD/svg11.dtd">
<!-- Generated by graphviz version 2.43.0 (0)
 -->
<!-- Title: debugoutput Pages: 1 -->
<svg width="2301pt" height="213pt"
 viewBox="0.00 0.00 2300.50 212.80" xmlns="http://www.w3.org/2000/svg" xmlns:xlink="http://www.w3.org/1999/xlink">
<g id="graph0" class="graph" transform="scale(1 1) rotate(0) translate(4 208.8)">
<title>debugoutput</title>
<polygon fill="white" stroke="transparent" points="-4,4 -4,-208.8 2296.5,-208.8 2296.5,4 -4,4"/>
<g id="clust1" class="cluster">
<title>cluster_000</title>
<polygon fill="none" stroke="black" points="1225,-154.2 1225,-196.8 2201,-196.8 2201,-154.2 1225,-154.2"/>
<text text-anchor="middle" x="1713" y="-181.6" font-family="Times,serif" font-size="14.00">Legend</text>
</g>
<!-- node0 -->
<g id="node1" class="node">
<title>node0</title>
<polygon fill="lightgrey" stroke="black" points="1215,-182 1049,-182 1049,-146 1215,-146 1215,-182"/>
<text text-anchor="middle" x="1132" y="-160.3" font-family="Times,serif" font-size="14.00">#0 Method Order : 0</text>
</g>
<!-- node1 -->
<g id="node2" class="node">
<title>node1</title>
<polygon fill="lightgrey" stroke="black" points="212,-109 0,-109 0,-73 212,-73 212,-109"/>
<text text-anchor="middle" x="106" y="-87.3" font-family="Times,serif" font-size="14.00">#1 arg8 : String Order : 12</text>
</g>
<!-- node0&#45;&gt;node1 -->
<g id="edge2" class="edge">
<title>node0&#45;&gt;node1</title>
<path fill="none" stroke="black" d="M1048.8,-160.67C888.85,-155.53 527.55,-141.09 222.09,-110.03"/>
<polygon fill="black" stroke="black" points="222,-106.51 211.7,-108.97 221.29,-113.47 222,-106.51"/>
<text text-anchor="middle" x="230.59" y="-98.71" font-family="Times,serif" font-size="14.00">*0</text>
</g>
<!-- node2 -->
<g id="node3" class="node">
<title>node2</title>
<polygon fill="lightgrey" stroke="black" points="416,-109 230,-109 230,-73 416,-73 416,-109"/>
<text text-anchor="middle" x="323" y="-87.3" font-family="Times,serif" font-size="14.00">#2 arg3 : int Order : 10</text>
</g>
<!-- node0&#45;&gt;node2 -->
<g id="edge4" class="edge">
<title>node0&#45;&gt;node2</title>
<path fill="none" stroke="black" d="M1048.84,-159.33C916.94,-152.77 651.82,-137.11 425.79,-110.18"/>
<polygon fill="black" stroke="black" points="426.08,-106.69 415.73,-108.97 425.24,-113.64 426.08,-106.69"/>
<text text-anchor="middle" x="434.74" y="-99.04" font-family="Times,serif" font-size="14.00">*0</text>
</g>
<!-- node3 -->
<g id="node4" class="node">
<title>node3</title>
<polygon fill="lightgrey" stroke="black" points="623.5,-109 434.5,-109 434.5,-73 623.5,-73 623.5,-109"/>
<text text-anchor="middle" x="529" y="-87.3" font-family="Times,serif" font-size="14.00">#3 arg6 : float Order : 9</text>
</g>
<!-- node0&#45;&gt;node3 -->
<g id="edge6" class="edge">
<title>node0&#45;&gt;node3</title>
<path fill="none" stroke="black" d="M1048.94,-156.05C950.24,-147.06 780.62,-130.2 633.54,-110.43"/>
<polygon fill="black" stroke="black" points="633.82,-106.93 623.44,-109.06 632.88,-113.87 633.82,-106.93"/>
<text text-anchor="middle" x="642.53" y="-99.42" font-family="Times,serif" font-size="14.00">*0</text>
</g>
<!-- node4 -->
<g id="node5" class="node">
<title>node4</title>
<polygon fill="lightgrey" stroke="black" points="818.5,-109 641.5,-109 641.5,-73 818.5,-73 818.5,-109"/>
<text text-anchor="middle" x="730" y="-87.3" font-family="Times,serif" font-size="14.00">#4 arg1 : int Order : 8</text>
</g>
<!-- node0&#45;&gt;node4 -->
<g id="edge8" class="edge">
<title>node0&#45;&gt;node4</title>
<path fill="none" stroke="black" d="M1048.54,-149.23C984.6,-138.2 896.25,-122.63 828.79,-110.51"/>
<polygon fill="black" stroke="black" points="829.03,-107 818.57,-108.67 827.79,-113.89 829.03,-107"/>
<text text-anchor="middle" x="837.91" y="-99.86" font-family="Times,serif" font-size="14.00">*0</text>
</g>
<!-- node5 -->
<g id="node6" class="node">
<title>node5</title>
<polygon fill="lightgrey" stroke="black" points="1025,-109 837,-109 837,-73 1025,-73 1025,-109"/>
<text text-anchor="middle" x="931" y="-87.3" font-family="Times,serif" font-size="14.00">#5 arg5 : long Order : 7</text>
</g>
<!-- node0&#45;&gt;node5 -->
<g id="edge10" class="edge">
<title>node0&#45;&gt;node5</title>
<path fill="none" stroke="black" d="M1078,-145.99C1048.55,-135.97 1012.33,-123.21 983.17,-112.62"/>
<polygon fill="black" stroke="black" points="984.17,-109.26 973.58,-109.11 981.77,-115.83 984.17,-109.26"/>
<text text-anchor="middle" x="993.5" y="-103.69" font-family="Times,serif" font-size="14.00">*0</text>
</g>
<!-- node6 -->
<g id="node7" class="node">
<title>node6</title>
<polygon fill="lightgrey" stroke="black" points="1220.5,-109 1043.5,-109 1043.5,-73 1220.5,-73 1220.5,-109"/>
<text text-anchor="middle" x="1132" y="-87.3" font-family="Times,serif" font-size="14.00">#6 arg0 : int Order : 6</text>
</g>
<!-- node0&#45;&gt;node6 -->
<g id="edge12" class="edge">
<title>node0&#45;&gt;node6</title>
<path fill="none" stroke="black" d="M1126.12,-145.81C1125.28,-137.79 1125.05,-128.05 1125.42,-119.07"/>
<polygon fill="black" stroke="black" points="1128.92,-119.25 1126.14,-109.03 1121.94,-118.75 1128.92,-119.25"/>
<text text-anchor="middle" x="1133.28" y="-124.01" font-family="Times,serif" font-size="14.00">*0</text>
</g>
<!-- node7 -->
<g id="node8" class="node">
<title>node7</title>
<polygon fill="lightgrey" stroke="black" points="1427,-109 1239,-109 1239,-73 1427,-73 1427,-109"/>
<text text-anchor="middle" x="1333" y="-87.3" font-family="Times,serif" font-size="14.00">#7 arg9 : int[] Order : 5</text>
</g>
<!-- node0&#45;&gt;node7 -->
<g id="edge14" class="edge">
<title>node0&#45;&gt;node7</title>
<path fill="none" stroke="black" d="M1174.29,-145.99C1201.72,-135.92 1237.92,-123.1 1268.84,-112.48"/>
<polygon fill="black" stroke="black" points="1270.35,-115.66 1278.68,-109.11 1268.09,-109.04 1270.35,-115.66"/>
<text text-anchor="middle" x="1264.27" y="-119.28" font-family="Times,serif" font-size="14.00">*0</text>
</g>
<!-- node8 -->
<g id="node9" class="node">
<title>node8</title>
<polygon fill="lightgrey" stroke="black" points="1651,-109 1445,-109 1445,-73 1651,-73 1651,-109"/>
<text text-anchor="middle" x="1548" y="-87.3" font-family="Times,serif" font-size="14.00">#8 arg7 : double Order : 4</text>
</g>
<!-- node0&#45;&gt;node8 -->
<g id="edge16" class="edge">
<title>node0&#45;&gt;node8</title>
<path fill="none" stroke="black" d="M1212.42,-145.92C1286.34,-132.77 1369.8,-119.01 1435.04,-108.68"/>
<polygon fill="black" stroke="black" points="1435.61,-112.13 1444.94,-107.12 1434.51,-105.22 1435.61,-112.13"/>
<text text-anchor="middle" x="1428.35" y="-114.59" font-family="Times,serif" font-size="14.00">*0</text>
</g>
<!-- node9 -->
<g id="node10" class="node">
<title>node9</title>
<polygon fill="lightgrey" stroke="black" points="1846.5,-109 1669.5,-109 1669.5,-73 1846.5,-73 1846.5,-109"/>
<text text-anchor="middle" x="1758" y="-87.3" font-family="Times,serif" font-size="14.00">#9 arg4 : int Order : 3</text>
</g>
<!-- node0&#45;&gt;node9 -->
<g id="edge18" class="edge">
<title>node0&#45;&gt;node9</title>
<path fill="none" stroke="black" d="M1212.28,-145.96C1406.03,-119.39 1456.89,-133.97 1651,-109 1653.72,-108.65 1656.47,-108.28 1659.25,-107.89"/>
<polygon fill="black" stroke="black" points="1660.03,-111.31 1669.42,-106.41 1659.02,-104.39 1660.03,-111.31"/>
<text text-anchor="middle" x="1652.7" y="-113.69" font-family="Times,serif" font-size="14.00">*0</text>
</g>
<!-- node10 -->
<g id="node11" class="node">
<title>node10</title>
<polygon fill="lightgrey" stroke="black" points="2050,-109 1864,-109 1864,-73 2050,-73 2050,-109"/>
<text text-anchor="middle" x="1957" y="-87.3" font-family="Times,serif" font-size="14.00">#10 arg2 : int Order : 2</text>
</g>
<!-- node0&#45;&gt;node10 -->
<g id="edge20" class="edge">
<title>node0&#45;&gt;node10</title>
<path fill="none" stroke="black" d="M1212.41,-145.95C1352.97,-128.58 1706.68,-124.85 1847,-109 1849.23,-108.75 1851.48,-108.48 1853.75,-108.2"/>
<polygon fill="black" stroke="black" points="1854.34,-111.65 1863.79,-106.88 1853.42,-104.71 1854.34,-111.65"/>
<text text-anchor="middle" x="1846.92" y="-113.92" font-family="Times,serif" font-size="14.00">*0</text>
</g>
<!-- node11 -->
<g id="node12" class="node">
<title>node11</title>
<polygon fill="lightgrey" stroke="black" points="2265.5,-109 2068.5,-109 2068.5,-73 2265.5,-73 2265.5,-109"/>
<text text-anchor="middle" x="2167" y="-87.3" font-family="Times,serif" font-size="14.00">#11 LabelNode Order : 1</text>
</g>
<!-- node0&#45;&gt;node11 -->
<g id="edge22" class="edge">
<title>node0&#45;&gt;node11</title>
<path fill="none" stroke="red" d="M1212.27,-145.97C1397.6,-124.35 1864.62,-127.62 2050,-109 2052.7,-108.73 2055.43,-108.44 2058.18,-108.12"/>
<polygon fill="red" stroke="red" points="2058.73,-111.58 2068.25,-106.91 2057.9,-104.63 2058.73,-111.58"/>
</g>
<!-- node12 -->
<g id="node13" class="node">
<title>node12</title>
<polygon fill="lightgrey" stroke="black" points="2292.5,-36 2041.5,-36 2041.5,0 2292.5,0 2292.5,-36"/>
<text text-anchor="middle" x="2167" y="-14.3" font-family="Times,serif" font-size="14.00">#12 ReturnValue : int Order : 11</text>
</g>
<!-- node0&#45;&gt;node12 -->
<g id="edge26" class="edge">
<title>node0&#45;&gt;node12</title>
<path fill="none" stroke="green" d="M1212.35,-145.96C1273.95,-139.5 2225.38,-151.07 2266,-109 2277.11,-97.49 2274.41,-86.61 2266,-73 2257.33,-58.97 2243.79,-48.46 2229.45,-40.64"/>
<polygon fill="green" stroke="green" points="2230.96,-37.48 2220.46,-36.11 2227.81,-43.73 2230.96,-37.48"/>
</g>
<!-- node1&#45;&gt;node0 -->
<g id="edge1" class="edge">
<title>node1&#45;&gt;node0</title>
<path fill="none" stroke="fuchsia" stroke-width="2" d="M212.16,-106.98C218.2,-107.71 224.18,-108.4 230,-109 524.65,-139.45 874.81,-154.23 1038.75,-159.98"/>
<polygon fill="fuchsia" stroke="fuchsia" stroke-width="2" points="1038.68,-163.48 1048.8,-160.33 1038.93,-156.48 1038.68,-163.48"/>
</g>
<!-- node2&#45;&gt;node0 -->
<g id="edge3" class="edge">
<title>node2&#45;&gt;node0</title>
<path fill="none" stroke="fuchsia" stroke-width="2" d="M416.22,-106.64C422.24,-107.5 428.21,-108.3 434,-109 649.87,-135.18 904.46,-150.94 1038.59,-158.2"/>
<polygon fill="fuchsia" stroke="fuchsia" stroke-width="2" points="1038.65,-161.71 1048.83,-158.75 1039.03,-154.72 1038.65,-161.71"/>
</g>
<!-- node2&#45;&gt;node12 -->
<g id="edge24" class="edge">
<title>node2&#45;&gt;node12</title>
<path fill="none" stroke="black" d="M416.04,-73.96C419.06,-73.61 422.05,-73.29 425,-73 735.84,-42.42 1678.27,-26.04 2031.43,-20.85"/>
<polygon fill="black" stroke="black" points="2031.5,-24.35 2041.45,-20.7 2031.4,-17.35 2031.5,-24.35"/>
<text text-anchor="middle" x="2023.45" y="-25.72" font-family="Times,serif" font-size="14.00">*0</text>
</g>
<!-- node3&#45;&gt;node0 -->
<g id="edge5" class="edge">
<title>node3&#45;&gt;node0</title>
<path fill="none" stroke="fuchsia" stroke-width="2" d="M623.64,-106.51C629.52,-107.39 635.34,-108.23 641,-109 779.42,-127.88 940.13,-144.26 1039,-153.88"/>
<polygon fill="fuchsia" stroke="fuchsia" stroke-width="2" points="1038.68,-157.37 1048.97,-154.85 1039.35,-150.4 1038.68,-157.37"/>
</g>
<!-- node4&#45;&gt;node0 -->
<g id="edge7" class="edge">
<title>node4&#45;&gt;node0</title>
<path fill="none" stroke="fuchsia" stroke-width="2" d="M818.59,-106.66C883.93,-117.95 972.58,-133.59 1038.95,-145.52"/>
<polygon fill="fuchsia" stroke="fuchsia" stroke-width="2" points="1038.53,-149 1048.99,-147.33 1039.77,-142.11 1038.53,-149"/>
</g>
<!-- node5&#45;&gt;node0 -->
<g id="edge9" class="edge">
<title>node5&#45;&gt;node0</title>
<path fill="none" stroke="fuchsia" stroke-width="2" d="M985.32,-109.11C1014.81,-119.16 1051.03,-131.92 1080.14,-142.5"/>
<polygon fill="fuchsia" stroke="fuchsia" stroke-width="2" points="1079.12,-145.85 1089.71,-145.99 1081.52,-139.28 1079.12,-145.85"/>
</g>
<!-- node6&#45;&gt;node0 -->
<g id="edge11" class="edge">
<title>node6&#45;&gt;node0</title>
<path fill="none" stroke="fuchsia" stroke-width="2" d="M1137.86,-109.03C1138.71,-117.03 1138.95,-126.77 1138.59,-135.75"/>
<polygon fill="fuchsia" stroke="fuchsia" stroke-width="2" points="1135.09,-135.59 1137.88,-145.81 1142.07,-136.08 1135.09,-135.59"/>
</g>
<!-- node7&#45;&gt;node0 -->
<g id="edge13" class="edge">
<title>node7&#45;&gt;node0</title>
<path fill="none" stroke="fuchsia" stroke-width="2" d="M1290.42,-109.11C1262.92,-119.2 1226.72,-132.03 1195.83,-142.63"/>
<polygon fill="fuchsia" stroke="fuchsia" stroke-width="2" points="1194.33,-139.45 1186,-145.99 1196.6,-146.07 1194.33,-139.45"/>
</g>
<!-- node8&#45;&gt;node0 -->
<g id="edge15" class="edge">
<title>node8&#45;&gt;node0</title>
<path fill="none" stroke="fuchsia" stroke-width="2" d="M1448.58,-109.02C1385.86,-119.33 1303.22,-132.96 1230,-146 1228.5,-146.27 1226.99,-146.54 1225.46,-146.81"/>
<polygon fill="fuchsia" stroke="fuchsia" stroke-width="2" points="1224.47,-143.44 1215.26,-148.67 1225.72,-150.32 1224.47,-143.44"/>
</g>
<!-- node9&#45;&gt;node0 -->
<g id="edge17" class="edge">
<title>node9&#45;&gt;node0</title>
<path fill="none" stroke="fuchsia" stroke-width="2" d="M1669.26,-108.97C1669.17,-108.98 1669.09,-108.99 1669,-109 1474.8,-133.98 1423.98,-119.37 1230,-146 1228.49,-146.21 1226.97,-146.42 1225.43,-146.65"/>
<polygon fill="fuchsia" stroke="fuchsia" stroke-width="2" points="1224.54,-143.24 1215.19,-148.22 1225.61,-150.16 1224.54,-143.24"/>
</g>
<!-- node10&#45;&gt;node0 -->
<g id="edge19" class="edge">
<title>node10&#45;&gt;node0</title>
<path fill="none" stroke="fuchsia" stroke-width="2" d="M1864.59,-109.05C1723.85,-124.87 1370.14,-128.61 1230,-146 1228.49,-146.19 1226.96,-146.39 1225.43,-146.59"/>
<polygon fill="fuchsia" stroke="fuchsia" stroke-width="2" points="1224.56,-143.18 1215.17,-148.08 1225.57,-150.11 1224.56,-143.18"/>
</g>
<!-- node11&#45;&gt;node0 -->
<g id="edge21" class="edge">
<title>node11&#45;&gt;node0</title>
<path fill="none" stroke="fuchsia" stroke-width="2" d="M2068.28,-108.97C2068.19,-108.98 2068.09,-108.99 2068,-109 1882.53,-127.63 1415.14,-124.35 1230,-146 1228.49,-146.18 1226.96,-146.37 1225.42,-146.56"/>
<polygon fill="fuchsia" stroke="fuchsia" stroke-width="2" points="1224.58,-143.15 1215.16,-148 1225.55,-150.08 1224.58,-143.15"/>
</g>
<!-- node11&#45;&gt;node12 -->
<g id="edge25" class="edge">
<title>node11&#45;&gt;node12</title>
<path fill="none" stroke="red" d="M2167,-72.81C2167,-64.79 2167,-55.05 2167,-46.07"/>
<polygon fill="red" stroke="red" points="2170.5,-46.03 2167,-36.03 2163.5,-46.03 2170.5,-46.03"/>
</g>
<!-- node12&#45;&gt;node0 -->
<g id="edge23" class="edge">
<title>node12&#45;&gt;node0</title>
<path fill="none" stroke="fuchsia" stroke-width="2" d="M2237.54,-36.11C2255.96,-44.26 2273.53,-56.06 2284,-73 2292.41,-86.61 2295.11,-97.49 2284,-109 2243.3,-151.15 1288.23,-139.46 1230,-146 1228.49,-146.17 1226.96,-146.35 1225.42,-146.54"/>
<polygon fill="fuchsia" stroke="fuchsia" stroke-width="2" points="1224.59,-143.13 1215.15,-147.95 1225.54,-150.06 1224.59,-143.13"/>
</g>
<!-- c0 -->
<!-- c1 -->
<!-- c0&#45;&gt;c1 -->
<g id="edge27" class="edge">
<title>c0&#45;&gt;c1</title>
<path fill="none" stroke="red" d="M2083.89,-164C2095.11,-164 2153.24,-164 2178.86,-164"/>
<polygon fill="red" stroke="red" points="2179.06,-167.5 2189.06,-164 2179.06,-160.5 2179.06,-167.5"/>
<text text-anchor="middle" x="2136.5" y="-170.8" font-family="Times,serif" font-size="14.00">Control flow</text>
</g>
<!-- c2 -->
<!-- c3 -->
<!-- c2&#45;&gt;c3 -->
<g id="edge28" class="edge">
<title>c2&#45;&gt;c3</title>
<path fill="none" stroke="red" stroke-dasharray="5,2" d="M1877.08,-164C1894.05,-164 2010.21,-164 2048.08,-164"/>
<polygon fill="red" stroke="red" points="2048.17,-167.5 2058.17,-164 2048.17,-160.5 2048.17,-167.5"/>
<text text-anchor="middle" x="1967.5" y="-170.8" font-family="Times,serif" font-size="14.00">Control flow back edge</text>
</g>
<!-- d0 -->
<!-- d1 -->
<!-- d0&#45;&gt;d1 -->
<g id="edge29" class="edge">
<title>d0&#45;&gt;d1</title>
<path fill="none" stroke="black" d="M1765.86,-164C1775.41,-164 1819.31,-164 1840.92,-164"/>
<polygon fill="black" stroke="black" points="1841.15,-167.5 1851.15,-164 1841.15,-160.5 1841.15,-167.5"/>
<text text-anchor="middle" x="1808.5" y="-170.8" font-family="Times,serif" font-size="14.00">Data flow</text>
</g>
<!-- d2 -->
<!-- d3 -->
<!-- d2&#45;&gt;d3 -->
<g id="edge30" class="edge">
<title>d2&#45;&gt;d3</title>
<path fill="none" stroke="black" stroke-dasharray="1,5" d="M1639.81,-164C1650.46,-164 1705.46,-164 1730.08,-164"/>
<polygon fill="black" stroke="black" points="1730.15,-167.5 1740.15,-164 1730.15,-160.5 1730.15,-167.5"/>
<text text-anchor="middle" x="1690" y="-170.8" font-family="Times,serif" font-size="14.00">Declaration</text>
</g>
<!-- d4 -->
<!-- d5 -->
<!-- d4&#45;&gt;d5 -->
<g id="edge31" class="edge">
<title>d4&#45;&gt;d5</title>
<path fill="none" stroke="blue" d="M1497.1,-164C1509.72,-164 1575.88,-164 1603.68,-164"/>
<polygon fill="blue" stroke="blue" points="1603.84,-167.5 1613.84,-164 1603.84,-160.5 1603.84,-167.5"/>
<text text-anchor="middle" x="1555.5" y="-170.8" font-family="Times,serif" font-size="14.00">PHI Data flow</text>
</g>
<!-- d6 -->
<!-- d7 -->
<!-- d6&#45;&gt;d7 -->
<g id="edge32" class="edge">
<title>d6&#45;&gt;d7</title>
<path fill="none" stroke="green" d="M1360,-164C1371.94,-164 1434.3,-164 1460.93,-164"/>
<polygon fill="green" stroke="green" points="1460.95,-167.5 1470.95,-164 1460.95,-160.5 1460.95,-167.5"/>
<text text-anchor="middle" x="1415.5" y="-170.8" font-family="Times,serif" font-size="14.00">Memory flow</text>
</g>
<!-- d8 -->
<!-- d9 -->
<!-- d8&#45;&gt;d9 -->
<g id="edge33" class="edge">
<title>d8&#45;&gt;d9</title>
<path fill="none" stroke="fuchsia" d="M1237.11,-164C1248.15,-164 1299.67,-164 1323.66,-164"/>
<polygon fill="fuchsia" stroke="fuchsia" points="1323.9,-167.5 1333.9,-164 1323.9,-160.5 1323.9,-167.5"/>
<text text-anchor="middle" x="1285.5" y="-170.8" font-family="Times,serif" font-size="14.00">Dominance</text>
</g>
</g>
</svg>
