<?xml version="1.0" encoding="UTF-8" standalone="no"?>
<!DOCTYPE svg PUBLIC "-//W3C//DTD SVG 1.1//EN"
 "http://www.w3.org/Graphics/SVG/1.1/DTD/svg11.dtd">
<!-- Generated by graphviz version 2.43.0 (0)
 -->
<!-- Title: debugoutput Pages: 1 -->
<svg width="2402pt" height="213pt"
 viewBox="0.00 0.00 2401.50 212.80" xmlns="http://www.w3.org/2000/svg" xmlns:xlink="http://www.w3.org/1999/xlink">
<g id="graph0" class="graph" transform="scale(1 1) rotate(0) translate(4 208.8)">
<title>debugoutput</title>
<polygon fill="white" stroke="transparent" points="-4,4 -4,-208.8 2397.5,-208.8 2397.5,4 -4,4"/>
<g id="clust1" class="cluster">
<title>cluster_000</title>
<polygon fill="none" stroke="black" points="1312,-154.2 1312,-196.8 2151,-196.8 2151,-154.2 1312,-154.2"/>
<text text-anchor="middle" x="1731.5" y="-181.6" font-family="Times,serif" font-size="14.00">Legend</text>
</g>
<!-- node0 -->
<g id="node1" class="node">
<title>node0</title>
<polygon fill="lightgrey" stroke="black" points="1302,-182 1136,-182 1136,-146 1302,-146 1302,-182"/>
<text text-anchor="middle" x="1219" y="-160.3" font-family="Times,serif" font-size="14.00">#0 Method Order : 0</text>
</g>
<!-- node1 -->
<g id="node2" class="node">
<title>node1</title>
<polygon fill="lightgrey" stroke="black" points="186,-109 0,-109 0,-73 186,-73 186,-109"/>
<text text-anchor="middle" x="93" y="-87.3" font-family="Times,serif" font-size="14.00">#1 arg2 : int Order : 12</text>
</g>
<!-- node0&#45;&gt;node1 -->
<g id="edge2" class="edge">
<title>node0&#45;&gt;node1</title>
<path fill="none" stroke="black" d="M1135.92,-161.87C961.67,-158.77 545.53,-147.65 195.8,-110.06"/>
<polygon fill="black" stroke="black" points="196.05,-106.57 185.73,-108.97 195.3,-113.53 196.05,-106.57"/>
<text text-anchor="middle" x="204.66" y="-98.82" font-family="Times,serif" font-size="14.00">*0</text>
</g>
<!-- node2 -->
<g id="node3" class="node">
<title>node2</title>
<polygon fill="lightgrey" stroke="black" points="419.5,-109 204.5,-109 204.5,-73 419.5,-73 419.5,-109"/>
<text text-anchor="middle" x="312" y="-87.3" font-family="Times,serif" font-size="14.00">#2 arg7 : double Order : 11</text>
</g>
<!-- node0&#45;&gt;node2 -->
<g id="edge4" class="edge">
<title>node0&#45;&gt;node2</title>
<path fill="none" stroke="black" d="M1135.78,-159.68C992.01,-153.28 688,-137.39 429.71,-110.14"/>
<polygon fill="black" stroke="black" points="429.7,-106.62 419.38,-109.04 428.96,-113.58 429.7,-106.62"/>
<text text-anchor="middle" x="438.3" y="-98.85" font-family="Times,serif" font-size="14.00">*0</text>
</g>
<!-- node3 -->
<g id="node4" class="node">
<title>node3</title>
<polygon fill="lightgrey" stroke="black" points="614.5,-109 437.5,-109 437.5,-73 614.5,-73 614.5,-109"/>
<text text-anchor="middle" x="526" y="-87.3" font-family="Times,serif" font-size="14.00">#3 arg3 : int Order : 9</text>
</g>
<!-- node0&#45;&gt;node3 -->
<g id="edge6" class="edge">
<title>node0&#45;&gt;node3</title>
<path fill="none" stroke="black" d="M1135.75,-158.05C1020.9,-150.45 807.49,-134.22 624.35,-110.36"/>
<polygon fill="black" stroke="black" points="624.64,-106.87 614.27,-109.04 623.73,-113.81 624.64,-106.87"/>
<text text-anchor="middle" x="633.34" y="-99.32" font-family="Times,serif" font-size="14.00">*0</text>
</g>
<!-- node4 -->
<g id="node5" class="node">
<title>node4</title>
<polygon fill="lightgrey" stroke="black" points="809.5,-109 632.5,-109 632.5,-73 809.5,-73 809.5,-109"/>
<text text-anchor="middle" x="721" y="-87.3" font-family="Times,serif" font-size="14.00">#4 arg1 : int Order : 8</text>
</g>
<!-- node0&#45;&gt;node4 -->
<g id="edge8" class="edge">
<title>node0&#45;&gt;node4</title>
<path fill="none" stroke="black" d="M1135.86,-153.55C1055.4,-143.68 929.98,-127.32 819.69,-110.49"/>
<polygon fill="black" stroke="black" points="820.16,-107.02 809.74,-108.96 819.1,-113.94 820.16,-107.02"/>
<text text-anchor="middle" x="828.94" y="-99.65" font-family="Times,serif" font-size="14.00">*0</text>
</g>
<!-- node5 -->
<g id="node6" class="node">
<title>node5</title>
<polygon fill="lightgrey" stroke="black" points="1016,-109 828,-109 828,-73 1016,-73 1016,-109"/>
<text text-anchor="middle" x="922" y="-87.3" font-family="Times,serif" font-size="14.00">#5 arg5 : long Order : 7</text>
</g>
<!-- node0&#45;&gt;node5 -->
<g id="edge10" class="edge">
<title>node0&#45;&gt;node5</title>
<path fill="none" stroke="black" d="M1142,-145.99C1097.42,-135.6 1041.59,-122.27 997.31,-111.46"/>
<polygon fill="black" stroke="black" points="998.01,-108.03 987.47,-109.05 996.35,-114.83 998.01,-108.03"/>
<text text-anchor="middle" x="1007.08" y="-101.45" font-family="Times,serif" font-size="14.00">*0</text>
</g>
<!-- node6 -->
<g id="node7" class="node">
<title>node6</title>
<polygon fill="lightgrey" stroke="black" points="1222,-109 1034,-109 1034,-73 1222,-73 1222,-109"/>
<text text-anchor="middle" x="1128" y="-87.3" font-family="Times,serif" font-size="14.00">#6 arg9 : int[] Order : 6</text>
</g>
<!-- node0&#45;&gt;node6 -->
<g id="edge12" class="edge">
<title>node0&#45;&gt;node6</title>
<path fill="none" stroke="black" d="M1191.34,-145.99C1178.76,-136.93 1164.1,-125.63 1151.98,-115.71"/>
<polygon fill="black" stroke="black" points="1153.99,-112.83 1144.06,-109.11 1149.51,-118.2 1153.99,-112.83"/>
<text text-anchor="middle" x="1163.4" y="-110.52" font-family="Times,serif" font-size="14.00">*0</text>
</g>
<!-- node7 -->
<g id="node8" class="node">
<title>node7</title>
<polygon fill="lightgrey" stroke="black" points="1417.5,-109 1240.5,-109 1240.5,-73 1417.5,-73 1417.5,-109"/>
<text text-anchor="middle" x="1329" y="-87.3" font-family="Times,serif" font-size="14.00">#7 arg0 : int Order : 5</text>
</g>
<!-- node0&#45;&gt;node7 -->
<g id="edge14" class="edge">
<title>node0&#45;&gt;node7</title>
<path fill="none" stroke="black" d="M1239.49,-145.99C1253.08,-136.58 1271.24,-124.76 1287.69,-114.57"/>
<polygon fill="black" stroke="black" points="1289.91,-117.32 1296.62,-109.11 1286.26,-111.35 1289.91,-117.32"/>
<text text-anchor="middle" x="1285.56" y="-122.08" font-family="Times,serif" font-size="14.00">*0</text>
</g>
<!-- node8 -->
<g id="node9" class="node">
<title>node8</title>
<polygon fill="lightgrey" stroke="black" points="1624.5,-109 1435.5,-109 1435.5,-73 1624.5,-73 1624.5,-109"/>
<text text-anchor="middle" x="1530" y="-87.3" font-family="Times,serif" font-size="14.00">#8 arg6 : float Order : 4</text>
</g>
<!-- node0&#45;&gt;node8 -->
<g id="edge16" class="edge">
<title>node0&#45;&gt;node8</title>
<path fill="none" stroke="black" d="M1287.63,-145.99C1332.34,-135.53 1391.09,-122.11 1439.58,-111.26"/>
<polygon fill="black" stroke="black" points="1440.45,-114.65 1449.44,-109.05 1438.92,-107.82 1440.45,-114.65"/>
<text text-anchor="middle" x="1433.6" y="-117.55" font-family="Times,serif" font-size="14.00">*0</text>
</g>
<!-- node9 -->
<g id="node10" class="node">
<title>node9</title>
<polygon fill="lightgrey" stroke="black" points="1845.5,-109 1642.5,-109 1642.5,-73 1845.5,-73 1845.5,-109"/>
<text text-anchor="middle" x="1744" y="-87.3" font-family="Times,serif" font-size="14.00">#9 arg8 : String Order : 3</text>
</g>
<!-- node0&#45;&gt;node9 -->
<g id="edge18" class="edge">
<title>node0&#45;&gt;node9</title>
<path fill="none" stroke="black" d="M1299.42,-145.94C1443.24,-124.09 1480.61,-128.34 1625,-109 1627.38,-108.68 1629.8,-108.35 1632.23,-108.02"/>
<polygon fill="black" stroke="black" points="1632.91,-111.45 1642.33,-106.6 1631.94,-104.52 1632.91,-111.45"/>
<text text-anchor="middle" x="1625.55" y="-113.79" font-family="Times,serif" font-size="14.00">*0</text>
</g>
<!-- node10 -->
<g id="node11" class="node">
<title>node10</title>
<polygon fill="lightgrey" stroke="black" points="2049,-109 1863,-109 1863,-73 2049,-73 2049,-109"/>
<text text-anchor="middle" x="1956" y="-87.3" font-family="Times,serif" font-size="14.00">#10 arg4 : int Order : 2</text>
</g>
<!-- node0&#45;&gt;node10 -->
<g id="edge20" class="edge">
<title>node0&#45;&gt;node10</title>
<path fill="none" stroke="black" d="M1299.35,-145.95C1540.73,-114.88 1604.12,-137.47 1846,-109 1848.22,-108.74 1850.47,-108.46 1852.74,-108.17"/>
<polygon fill="black" stroke="black" points="1853.34,-111.62 1862.79,-106.82 1852.41,-104.68 1853.34,-111.62"/>
<text text-anchor="middle" x="1845.95" y="-113.91" font-family="Times,serif" font-size="14.00">*0</text>
</g>
<!-- node11 -->
<g id="node12" class="node">
<title>node11</title>
<polygon fill="lightgrey" stroke="black" points="2264.5,-109 2067.5,-109 2067.5,-73 2264.5,-73 2264.5,-109"/>
<text text-anchor="middle" x="2166" y="-87.3" font-family="Times,serif" font-size="14.00">#11 LabelNode Order : 1</text>
</g>
<!-- node0&#45;&gt;node11 -->
<g id="edge22" class="edge">
<title>node0&#45;&gt;node11</title>
<path fill="none" stroke="red" d="M1299.49,-145.94C1465.51,-126.19 1883.17,-126.09 2049,-109 2051.69,-108.72 2054.43,-108.42 2057.18,-108.1"/>
<polygon fill="red" stroke="red" points="2057.74,-111.56 2067.24,-106.88 2056.89,-104.61 2057.74,-111.56"/>
</g>
<!-- node12 -->
<g id="node13" class="node">
<title>node12</title>
<polygon fill="lightgrey" stroke="black" points="2393.5,-36 2142.5,-36 2142.5,0 2393.5,0 2393.5,-36"/>
<text text-anchor="middle" x="2268" y="-14.3" font-family="Times,serif" font-size="14.00">#12 ReturnValue : int Order : 10</text>
</g>
<!-- node0&#45;&gt;node12 -->
<g id="edge26" class="edge">
<title>node0&#45;&gt;node12</title>
<path fill="none" stroke="black" d="M1299.32,-145.96C1355.78,-139.95 2227.83,-147.62 2265,-109 2280.72,-92.67 2276.74,-66.03 2271.95,-45.96"/>
<polygon fill="black" stroke="black" points="2275.31,-44.99 2269.46,-36.15 2268.52,-46.71 2275.31,-44.99"/>
</g>
<!-- node1&#45;&gt;node0 -->
<g id="edge1" class="edge">
<title>node1&#45;&gt;node0</title>
<path fill="none" stroke="green" stroke-width="2" d="M186.2,-106.8C192.23,-107.62 198.2,-108.37 204,-109 542.3,-145.99 946.36,-157.85 1125.57,-161.48"/>
<polygon fill="green" stroke="green" stroke-width="2" points="1125.69,-164.98 1135.75,-161.68 1125.83,-157.99 1125.69,-164.98"/>
</g>
<!-- node2&#45;&gt;node0 -->
<g id="edge3" class="edge">
<title>node2&#45;&gt;node0</title>
<path fill="none" stroke="green" stroke-width="2" d="M419.64,-106.99C425.52,-107.71 431.33,-108.39 437,-109 685.26,-135.63 978.85,-151.63 1125.67,-158.7"/>
<polygon fill="green" stroke="green" stroke-width="2" points="1125.83,-162.21 1135.99,-159.19 1126.17,-155.22 1125.83,-162.21"/>
</g>
<!-- node3&#45;&gt;node0 -->
<g id="edge5" class="edge">
<title>node3&#45;&gt;node0</title>
<path fill="none" stroke="green" stroke-width="2" d="M614.56,-106.5C620.47,-107.4 626.32,-108.25 632,-109 805.71,-132.05 1009.22,-148.17 1125.3,-156.48"/>
<polygon fill="green" stroke="green" stroke-width="2" points="1125.34,-159.99 1135.57,-157.21 1125.84,-153.01 1125.34,-159.99"/>
</g>
<!-- node3&#45;&gt;node12 -->
<g id="edge24" class="edge">
<title>node3&#45;&gt;node12</title>
<path fill="none" stroke="black" d="M614.74,-73.93C617.52,-73.59 620.28,-73.28 623,-73 914.14,-42.86 1792.79,-26.38 2132.17,-21"/>
<polygon fill="black" stroke="black" points="2132.36,-24.49 2142.3,-20.84 2132.25,-17.49 2132.36,-24.49"/>
<text text-anchor="middle" x="2124.31" y="-25.87" font-family="Times,serif" font-size="14.00">*0</text>
</g>
<!-- node4&#45;&gt;node0 -->
<g id="edge7" class="edge">
<title>node4&#45;&gt;node0</title>
<path fill="none" stroke="green" stroke-width="2" d="M809.63,-106.07C815.86,-107.09 822.03,-108.08 828,-109 929.78,-124.69 1046.53,-140.16 1125.81,-150.5"/>
<polygon fill="green" stroke="green" stroke-width="2" points="1125.41,-153.97 1135.77,-151.79 1126.31,-147.03 1125.41,-153.97"/>
</g>
<!-- node5&#45;&gt;node0 -->
<g id="edge9" class="edge">
<title>node5&#45;&gt;node0</title>
<path fill="none" stroke="green" stroke-width="2" d="M999.19,-109.05C1043.81,-119.45 1099.63,-132.78 1143.89,-143.59"/>
<polygon fill="green" stroke="green" stroke-width="2" points="1143.17,-147.02 1153.72,-145.99 1144.84,-140.22 1143.17,-147.02"/>
</g>
<!-- node6&#45;&gt;node0 -->
<g id="edge11" class="edge">
<title>node6&#45;&gt;node0</title>
<path fill="none" stroke="green" stroke-width="2" d="M1155.69,-109.03C1168.24,-118.07 1182.85,-129.33 1194.94,-139.23"/>
<polygon fill="green" stroke="green" stroke-width="2" points="1192.93,-142.1 1202.85,-145.81 1197.41,-136.72 1192.93,-142.1"/>
</g>
<!-- node7&#45;&gt;node0 -->
<g id="edge13" class="edge">
<title>node7&#45;&gt;node0</title>
<path fill="none" stroke="green" stroke-width="2" d="M1308.36,-109.11C1294.73,-118.55 1276.56,-130.37 1260.12,-140.54"/>
<polygon fill="green" stroke="green" stroke-width="2" points="1257.91,-137.79 1251.21,-145.99 1261.56,-143.76 1257.91,-137.79"/>
</g>
<!-- node8&#45;&gt;node0 -->
<g id="edge15" class="edge">
<title>node8&#45;&gt;node0</title>
<path fill="none" stroke="green" stroke-width="2" d="M1461.17,-109.05C1416.43,-119.52 1357.67,-132.95 1309.21,-143.79"/>
<polygon fill="green" stroke="green" stroke-width="2" points="1308.35,-140.4 1299.35,-145.99 1309.87,-147.23 1308.35,-140.4"/>
</g>
<!-- node9&#45;&gt;node0 -->
<g id="edge17" class="edge">
<title>node9&#45;&gt;node0</title>
<path fill="none" stroke="green" stroke-width="2" d="M1642.58,-109.06C1498.4,-128.35 1461.02,-124.1 1317,-146 1315.49,-146.23 1313.97,-146.47 1312.44,-146.71"/>
<polygon fill="green" stroke="green" stroke-width="2" points="1311.51,-143.31 1302.21,-148.39 1312.65,-150.22 1311.51,-143.31"/>
</g>
<!-- node10&#45;&gt;node0 -->
<g id="edge19" class="edge">
<title>node10&#45;&gt;node0</title>
<path fill="none" stroke="green" stroke-width="2" d="M1863.65,-109.04C1621.94,-137.46 1558.55,-114.88 1317,-146 1315.49,-146.19 1313.96,-146.4 1312.43,-146.61"/>
<polygon fill="green" stroke="green" stroke-width="2" points="1311.56,-143.2 1302.18,-148.13 1312.58,-150.13 1311.56,-143.2"/>
</g>
<!-- node11&#45;&gt;node0 -->
<g id="edge21" class="edge">
<title>node11&#45;&gt;node0</title>
<path fill="none" stroke="green" stroke-width="2" d="M2067.28,-108.97C2067.19,-108.98 2067.09,-108.99 2067,-109 1901.01,-126.11 1482.69,-126.19 1317,-146 1315.49,-146.18 1313.96,-146.37 1312.42,-146.57"/>
<polygon fill="green" stroke="green" stroke-width="2" points="1311.57,-143.16 1302.16,-148.03 1312.56,-150.09 1311.57,-143.16"/>
</g>
<!-- node11&#45;&gt;node12 -->
<g id="edge25" class="edge">
<title>node11&#45;&gt;node12</title>
<path fill="none" stroke="red" d="M2190.43,-72.99C2203.83,-63.67 2220.63,-51.97 2235.16,-41.86"/>
<polygon fill="red" stroke="red" points="2237.21,-44.7 2243.41,-36.11 2233.21,-38.95 2237.21,-44.7"/>
</g>
<!-- node12&#45;&gt;node0 -->
<g id="edge23" class="edge">
<title>node12&#45;&gt;node0</title>
<path fill="none" stroke="green" stroke-width="2" d="M2282.19,-36.15C2292.76,-56.42 2301.46,-89.82 2283,-109 2245.76,-147.7 1370.36,-139.92 1317,-146 1315.49,-146.17 1313.96,-146.36 1312.42,-146.55"/>
<polygon fill="green" stroke="green" stroke-width="2" points="1311.58,-143.13 1302.16,-147.97 1312.54,-150.07 1311.58,-143.13"/>
</g>
<!-- c0 -->
<!-- c1 -->
<!-- c0&#45;&gt;c1 -->
<g id="edge27" class="edge">
<title>c0&#45;&gt;c1</title>
<path fill="none" stroke="red" d="M2033.89,-164C2045.11,-164 2103.24,-164 2128.86,-164"/>
<polygon fill="red" stroke="red" points="2129.06,-167.5 2139.06,-164 2129.06,-160.5 2129.06,-167.5"/>
<text text-anchor="middle" x="2086.5" y="-170.8" font-family="Times,serif" font-size="14.00">Control flow</text>
</g>
<!-- c2 -->
<!-- c3 -->
<!-- c2&#45;&gt;c3 -->
<g id="edge28" class="edge">
<title>c2&#45;&gt;c3</title>
<path fill="none" stroke="red" stroke-dasharray="5,2" d="M1827.08,-164C1844.05,-164 1960.21,-164 1998.08,-164"/>
<polygon fill="red" stroke="red" points="1998.17,-167.5 2008.17,-164 1998.17,-160.5 1998.17,-167.5"/>
<text text-anchor="middle" x="1917.5" y="-170.8" font-family="Times,serif" font-size="14.00">Control flow back edge</text>
</g>
<!-- d0 -->
<!-- d1 -->
<!-- d0&#45;&gt;d1 -->
<g id="edge29" class="edge">
<title>d0&#45;&gt;d1</title>
<path fill="none" stroke="black" d="M1715.86,-164C1725.41,-164 1769.31,-164 1790.92,-164"/>
<polygon fill="black" stroke="black" points="1791.15,-167.5 1801.15,-164 1791.15,-160.5 1791.15,-167.5"/>
<text text-anchor="middle" x="1758.5" y="-170.8" font-family="Times,serif" font-size="14.00">Data flow</text>
</g>
<!-- d2 -->
<!-- d3 -->
<!-- d2&#45;&gt;d3 -->
<g id="edge30" class="edge">
<title>d2&#45;&gt;d3</title>
<path fill="none" stroke="black" stroke-dasharray="1,5" d="M1589.81,-164C1600.46,-164 1655.46,-164 1680.08,-164"/>
<polygon fill="black" stroke="black" points="1680.15,-167.5 1690.15,-164 1680.15,-160.5 1680.15,-167.5"/>
<text text-anchor="middle" x="1640" y="-170.8" font-family="Times,serif" font-size="14.00">Declaration</text>
</g>
<!-- d4 -->
<!-- d5 -->
<!-- d4&#45;&gt;d5 -->
<g id="edge31" class="edge">
<title>d4&#45;&gt;d5</title>
<path fill="none" stroke="blue" d="M1447.1,-164C1459.72,-164 1525.88,-164 1553.68,-164"/>
<polygon fill="blue" stroke="blue" points="1553.84,-167.5 1563.84,-164 1553.84,-160.5 1553.84,-167.5"/>
<text text-anchor="middle" x="1505.5" y="-170.8" font-family="Times,serif" font-size="14.00">PHI Data flow</text>
</g>
<!-- d6 -->
<!-- d7 -->
<!-- d6&#45;&gt;d7 -->
<g id="edge32" class="edge">
<title>d6&#45;&gt;d7</title>
<path fill="none" stroke="green" d="M1324.11,-164C1335.15,-164 1386.67,-164 1410.66,-164"/>
<polygon fill="green" stroke="green" points="1410.9,-167.5 1420.9,-164 1410.9,-160.5 1410.9,-167.5"/>
<text text-anchor="middle" x="1372.5" y="-170.8" font-family="Times,serif" font-size="14.00">Dominance</text>
</g>
</g>
</svg>
