<?xml version="1.0" encoding="UTF-8" standalone="no"?>
<!DOCTYPE svg PUBLIC "-//W3C//DTD SVG 1.1//EN"
 "http://www.w3.org/Graphics/SVG/1.1/DTD/svg11.dtd">
<!-- Generated by graphviz version 2.43.0 (0)
 -->
<!-- Title: debugoutput Pages: 1 -->
<svg width="2406pt" height="213pt"
 viewBox="0.00 0.00 2406.00 212.80" xmlns="http://www.w3.org/2000/svg" xmlns:xlink="http://www.w3.org/1999/xlink">
<g id="graph0" class="graph" transform="scale(1 1) rotate(0) translate(4 208.8)">
<title>debugoutput</title>
<polygon fill="white" stroke="transparent" points="-4,4 -4,-208.8 2402,-208.8 2402,4 -4,4"/>
<g id="clust1" class="cluster">
<title>cluster_000</title>
<polygon fill="none" stroke="black" points="1330,-154.2 1330,-196.8 2169,-196.8 2169,-154.2 1330,-154.2"/>
<text text-anchor="middle" x="1749.5" y="-181.6" font-family="Times,serif" font-size="14.00">Legend</text>
</g>
<!-- node0 -->
<g id="node1" class="node">
<title>node0</title>
<polygon fill="lightgrey" stroke="black" points="1320,-182 1154,-182 1154,-146 1320,-146 1320,-182"/>
<text text-anchor="middle" x="1237" y="-160.3" font-family="Times,serif" font-size="14.00">#0 Method Order : 0</text>
</g>
<!-- node1 -->
<g id="node2" class="node">
<title>node1</title>
<polygon fill="lightgrey" stroke="black" points="186,-109 0,-109 0,-73 186,-73 186,-109"/>
<text text-anchor="middle" x="93" y="-87.3" font-family="Times,serif" font-size="14.00">#1 arg1 : int Order : 12</text>
</g>
<!-- node0&#45;&gt;node1 -->
<g id="edge2" class="edge">
<title>node0&#45;&gt;node1</title>
<path fill="none" stroke="black" d="M1153.89,-161.97C977.42,-159.05 552.57,-148.25 195.74,-110.05"/>
<polygon fill="black" stroke="black" points="196.05,-106.56 185.73,-108.97 195.3,-113.52 196.05,-106.56"/>
<text text-anchor="middle" x="204.66" y="-98.81" font-family="Times,serif" font-size="14.00">*0</text>
</g>
<!-- node2 -->
<g id="node3" class="node">
<title>node2</title>
<polygon fill="lightgrey" stroke="black" points="401.5,-109 204.5,-109 204.5,-73 401.5,-73 401.5,-109"/>
<text text-anchor="middle" x="303" y="-87.3" font-family="Times,serif" font-size="14.00">#2 arg9 : int[] Order : 11</text>
</g>
<!-- node0&#45;&gt;node2 -->
<g id="edge4" class="edge">
<title>node0&#45;&gt;node2</title>
<path fill="none" stroke="black" d="M1153.76,-160.31C1004.94,-154.78 683.65,-140.07 411.47,-110.16"/>
<polygon fill="black" stroke="black" points="411.73,-106.67 401.4,-109.04 410.96,-113.63 411.73,-106.67"/>
<text text-anchor="middle" x="420.35" y="-98.94" font-family="Times,serif" font-size="14.00">*0</text>
</g>
<!-- node3 -->
<g id="node4" class="node">
<title>node3</title>
<polygon fill="lightgrey" stroke="black" points="634.5,-109 419.5,-109 419.5,-73 634.5,-73 634.5,-109"/>
<text text-anchor="middle" x="527" y="-87.3" font-family="Times,serif" font-size="14.00">#3 arg7 : double Order : 10</text>
</g>
<!-- node0&#45;&gt;node3 -->
<g id="edge6" class="edge">
<title>node0&#45;&gt;node3</title>
<path fill="none" stroke="black" d="M1153.61,-157.32C1039.12,-148.85 826.89,-131.58 644.32,-110.22"/>
<polygon fill="black" stroke="black" points="644.61,-106.73 634.27,-109.03 643.79,-113.68 644.61,-106.73"/>
<text text-anchor="middle" x="653.26" y="-99.06" font-family="Times,serif" font-size="14.00">*0</text>
</g>
<!-- node4 -->
<g id="node5" class="node">
<title>node4</title>
<polygon fill="lightgrey" stroke="black" points="829.5,-109 652.5,-109 652.5,-73 829.5,-73 829.5,-109"/>
<text text-anchor="middle" x="741" y="-87.3" font-family="Times,serif" font-size="14.00">#4 arg0 : int Order : 9</text>
</g>
<!-- node0&#45;&gt;node4 -->
<g id="edge8" class="edge">
<title>node0&#45;&gt;node4</title>
<path fill="none" stroke="black" d="M1153.66,-153.53C1073.54,-143.7 948.98,-127.43 839.53,-110.63"/>
<polygon fill="black" stroke="black" points="839.74,-107.12 829.33,-109.05 838.68,-114.04 839.74,-107.12"/>
<text text-anchor="middle" x="848.53" y="-99.76" font-family="Times,serif" font-size="14.00">*0</text>
</g>
<!-- node5 -->
<g id="node6" class="node">
<title>node5</title>
<polygon fill="lightgrey" stroke="black" points="1036.5,-109 847.5,-109 847.5,-73 1036.5,-73 1036.5,-109"/>
<text text-anchor="middle" x="942" y="-87.3" font-family="Times,serif" font-size="14.00">#5 arg6 : float Order : 8</text>
</g>
<!-- node0&#45;&gt;node5 -->
<g id="edge10" class="edge">
<title>node0&#45;&gt;node5</title>
<path fill="none" stroke="black" d="M1160.48,-145.99C1116.28,-135.62 1060.95,-122.32 1017,-111.52"/>
<polygon fill="black" stroke="black" points="1017.78,-108.11 1007.24,-109.11 1016.11,-114.9 1017.78,-108.11"/>
<text text-anchor="middle" x="1026.86" y="-101.54" font-family="Times,serif" font-size="14.00">*0</text>
</g>
<!-- node6 -->
<g id="node7" class="node">
<title>node6</title>
<polygon fill="lightgrey" stroke="black" points="1231.5,-109 1054.5,-109 1054.5,-73 1231.5,-73 1231.5,-109"/>
<text text-anchor="middle" x="1143" y="-87.3" font-family="Times,serif" font-size="14.00">#6 arg4 : int Order : 7</text>
</g>
<!-- node0&#45;&gt;node6 -->
<g id="edge12" class="edge">
<title>node0&#45;&gt;node6</title>
<path fill="none" stroke="black" d="M1208.63,-145.99C1195.54,-136.84 1180.23,-125.41 1167.63,-115.43"/>
<polygon fill="black" stroke="black" points="1169.77,-112.66 1159.79,-109.11 1165.38,-118.11 1169.77,-112.66"/>
<text text-anchor="middle" x="1179.21" y="-110.2" font-family="Times,serif" font-size="14.00">*0</text>
</g>
<!-- node7 -->
<g id="node8" class="node">
<title>node7</title>
<polygon fill="lightgrey" stroke="black" points="1452.5,-109 1249.5,-109 1249.5,-73 1452.5,-73 1452.5,-109"/>
<text text-anchor="middle" x="1351" y="-87.3" font-family="Times,serif" font-size="14.00">#7 arg8 : String Order : 6</text>
</g>
<!-- node0&#45;&gt;node7 -->
<g id="edge14" class="edge">
<title>node0&#45;&gt;node7</title>
<path fill="none" stroke="black" d="M1258.45,-145.99C1272.7,-136.49 1291.74,-124.54 1308.89,-114.29"/>
<polygon fill="black" stroke="black" points="1310.82,-117.22 1317.65,-109.11 1307.26,-111.19 1310.82,-117.22"/>
<text text-anchor="middle" x="1306.35" y="-121.91" font-family="Times,serif" font-size="14.00">*0</text>
</g>
<!-- node8 -->
<g id="node9" class="node">
<title>node8</title>
<polygon fill="lightgrey" stroke="black" points="1647.5,-109 1470.5,-109 1470.5,-73 1647.5,-73 1647.5,-109"/>
<text text-anchor="middle" x="1559" y="-87.3" font-family="Times,serif" font-size="14.00">#8 arg2 : int Order : 5</text>
</g>
<!-- node0&#45;&gt;node8 -->
<g id="edge16" class="edge">
<title>node0&#45;&gt;node8</title>
<path fill="none" stroke="black" d="M1308.27,-145.99C1354.69,-135.51 1415.68,-122.05 1465.91,-111.19"/>
<polygon fill="black" stroke="black" points="1466.77,-114.58 1475.8,-109.05 1465.29,-107.74 1466.77,-114.58"/>
<text text-anchor="middle" x="1459.87" y="-117.44" font-family="Times,serif" font-size="14.00">*0</text>
</g>
<!-- node9 -->
<g id="node10" class="node">
<title>node9</title>
<polygon fill="lightgrey" stroke="black" points="1854,-109 1666,-109 1666,-73 1854,-73 1854,-109"/>
<text text-anchor="middle" x="1760" y="-87.3" font-family="Times,serif" font-size="14.00">#9 arg5 : long Order : 4</text>
</g>
<!-- node0&#45;&gt;node9 -->
<g id="edge18" class="edge">
<title>node0&#45;&gt;node9</title>
<path fill="none" stroke="black" d="M1317.43,-145.94C1463.44,-123.89 1501.51,-129.26 1648,-109 1650.55,-108.65 1653.14,-108.28 1655.75,-107.9"/>
<polygon fill="black" stroke="black" points="1656.54,-111.33 1665.92,-106.4 1655.51,-104.4 1656.54,-111.33"/>
<text text-anchor="middle" x="1649.22" y="-113.71" font-family="Times,serif" font-size="14.00">*0</text>
</g>
<!-- node10 -->
<g id="node11" class="node">
<title>node10</title>
<polygon fill="lightgrey" stroke="black" points="2058,-109 1872,-109 1872,-73 2058,-73 2058,-109"/>
<text text-anchor="middle" x="1965" y="-87.3" font-family="Times,serif" font-size="14.00">#10 arg3 : int Order : 2</text>
</g>
<!-- node0&#45;&gt;node10 -->
<g id="edge20" class="edge">
<title>node0&#45;&gt;node10</title>
<path fill="none" stroke="black" d="M1317.35,-145.96C1554.31,-115.3 1616.52,-136.91 1854,-109 1856.54,-108.7 1859.1,-108.38 1861.69,-108.05"/>
<polygon fill="black" stroke="black" points="1862.34,-111.5 1871.78,-106.69 1861.41,-104.56 1862.34,-111.5"/>
<text text-anchor="middle" x="1854.95" y="-113.79" font-family="Times,serif" font-size="14.00">*0</text>
</g>
<!-- node11 -->
<g id="node12" class="node">
<title>node11</title>
<polygon fill="lightgrey" stroke="black" points="2273.5,-109 2076.5,-109 2076.5,-73 2273.5,-73 2273.5,-109"/>
<text text-anchor="middle" x="2175" y="-87.3" font-family="Times,serif" font-size="14.00">#11 LabelNode Order : 1</text>
</g>
<!-- node0&#45;&gt;node11 -->
<g id="edge22" class="edge">
<title>node0&#45;&gt;node11</title>
<path fill="none" stroke="red" d="M1317.48,-145.94C1481.51,-126.37 1894.16,-125.94 2058,-109 2060.69,-108.72 2063.42,-108.42 2066.18,-108.1"/>
<polygon fill="red" stroke="red" points="2066.74,-111.56 2076.24,-106.87 2065.89,-104.61 2066.74,-111.56"/>
</g>
<!-- node12 -->
<g id="node13" class="node">
<title>node12</title>
<polygon fill="lightgrey" stroke="black" points="2398,-36 2156,-36 2156,0 2398,0 2398,-36"/>
<text text-anchor="middle" x="2277" y="-14.3" font-family="Times,serif" font-size="14.00">#12 ReturnValue : int Order : 3</text>
</g>
<!-- node0&#45;&gt;node12 -->
<g id="edge26" class="edge">
<title>node0&#45;&gt;node12</title>
<path fill="none" stroke="black" d="M1317.32,-145.96C1373.25,-139.99 2237.18,-147.27 2274,-109 2289.72,-92.66 2285.74,-66.02 2280.94,-45.96"/>
<polygon fill="black" stroke="black" points="2284.31,-44.99 2278.46,-36.15 2277.52,-46.7 2284.31,-44.99"/>
</g>
<!-- node1&#45;&gt;node0 -->
<g id="edge1" class="edge">
<title>node1&#45;&gt;node0</title>
<path fill="none" stroke="green" stroke-width="2" d="M186.2,-106.8C192.23,-107.62 198.2,-108.37 204,-109 549.53,-146.62 962.45,-158.18 1143.86,-161.61"/>
<polygon fill="green" stroke="green" stroke-width="2" points="1143.83,-165.11 1153.9,-161.8 1143.96,-158.12 1143.83,-165.11"/>
</g>
<!-- node2&#45;&gt;node0 -->
<g id="edge3" class="edge">
<title>node2&#45;&gt;node0</title>
<path fill="none" stroke="green" stroke-width="2" d="M401.52,-106.85C407.44,-107.64 413.3,-108.36 419,-109 680.91,-138.29 991.4,-153.31 1143.57,-159.49"/>
<polygon fill="green" stroke="green" stroke-width="2" points="1143.68,-162.99 1153.81,-159.9 1143.96,-156 1143.68,-162.99"/>
</g>
<!-- node3&#45;&gt;node0 -->
<g id="edge5" class="edge">
<title>node3&#45;&gt;node0</title>
<path fill="none" stroke="green" stroke-width="2" d="M634.66,-106.84C640.53,-107.6 646.34,-108.33 652,-109 825.43,-129.58 1028.17,-146.48 1143.74,-155.62"/>
<polygon fill="green" stroke="green" stroke-width="2" points="1143.72,-159.13 1153.97,-156.42 1144.27,-152.15 1143.72,-159.13"/>
</g>
<!-- node4&#45;&gt;node0 -->
<g id="edge7" class="edge">
<title>node4&#45;&gt;node0</title>
<path fill="none" stroke="green" stroke-width="2" d="M829.61,-106.21C835.5,-107.18 841.34,-108.12 847,-109 948.52,-124.76 1064.97,-140.22 1144.06,-150.53"/>
<polygon fill="green" stroke="green" stroke-width="2" points="1143.63,-154.01 1153.99,-151.83 1144.53,-147.07 1143.63,-154.01"/>
</g>
<!-- node5&#45;&gt;node0 -->
<g id="edge9" class="edge">
<title>node5&#45;&gt;node0</title>
<path fill="none" stroke="green" stroke-width="2" d="M1018.71,-109.05C1063.03,-119.45 1118.48,-132.78 1162.43,-143.59"/>
<polygon fill="green" stroke="green" stroke-width="2" points="1161.65,-147 1172.2,-145.99 1163.33,-140.2 1161.65,-147"/>
</g>
<!-- node6&#45;&gt;node0 -->
<g id="edge11" class="edge">
<title>node6&#45;&gt;node0</title>
<path fill="none" stroke="green" stroke-width="2" d="M1171.41,-109.03C1184.46,-118.16 1199.72,-129.55 1212.3,-139.51"/>
<polygon fill="green" stroke="green" stroke-width="2" points="1210.14,-142.27 1220.12,-145.81 1214.53,-136.82 1210.14,-142.27"/>
</g>
<!-- node7&#45;&gt;node0 -->
<g id="edge13" class="edge">
<title>node7&#45;&gt;node0</title>
<path fill="none" stroke="green" stroke-width="2" d="M1329.39,-109.11C1315.11,-118.63 1296.05,-130.59 1278.92,-140.82"/>
<polygon fill="green" stroke="green" stroke-width="2" points="1276.99,-137.89 1270.17,-145.99 1280.55,-143.92 1276.99,-137.89"/>
</g>
<!-- node8&#45;&gt;node0 -->
<g id="edge15" class="edge">
<title>node8&#45;&gt;node0</title>
<path fill="none" stroke="green" stroke-width="2" d="M1487.53,-109.05C1441.07,-119.54 1380.07,-133.01 1329.87,-143.86"/>
<polygon fill="green" stroke="green" stroke-width="2" points="1329.02,-140.46 1319.99,-145.99 1330.5,-147.3 1329.02,-140.46"/>
</g>
<!-- node9&#45;&gt;node0 -->
<g id="edge17" class="edge">
<title>node9&#45;&gt;node0</title>
<path fill="none" stroke="green" stroke-width="2" d="M1665.57,-109.06C1519.29,-129.27 1481.22,-123.9 1335,-146 1333.49,-146.23 1331.97,-146.46 1330.44,-146.7"/>
<polygon fill="green" stroke="green" stroke-width="2" points="1329.51,-143.31 1320.21,-148.38 1330.64,-150.22 1329.51,-143.31"/>
</g>
<!-- node10&#45;&gt;node0 -->
<g id="edge19" class="edge">
<title>node10&#45;&gt;node0</title>
<path fill="none" stroke="green" stroke-width="2" d="M1872.27,-108.97C1872.18,-108.98 1872.09,-108.99 1872,-109 1634.4,-136.92 1572.25,-115.28 1335,-146 1333.49,-146.2 1331.96,-146.4 1330.43,-146.61"/>
<polygon fill="green" stroke="green" stroke-width="2" points="1329.55,-143.21 1320.18,-148.14 1330.58,-150.13 1329.55,-143.21"/>
</g>
<!-- node10&#45;&gt;node12 -->
<g id="edge24" class="edge">
<title>node10&#45;&gt;node12</title>
<path fill="none" stroke="black" d="M2039.73,-72.99C2085.6,-62.56 2144.46,-49.16 2192.08,-38.32"/>
<polygon fill="black" stroke="black" points="2193.09,-41.68 2202.07,-36.05 2191.54,-34.86 2193.09,-41.68"/>
<text text-anchor="middle" x="2186.27" y="-44.62" font-family="Times,serif" font-size="14.00">*0</text>
</g>
<!-- node11&#45;&gt;node0 -->
<g id="edge21" class="edge">
<title>node11&#45;&gt;node0</title>
<path fill="none" stroke="green" stroke-width="2" d="M2076.28,-108.97C2076.19,-108.98 2076.09,-108.99 2076,-109 1912,-125.95 1498.7,-126.38 1335,-146 1333.49,-146.18 1331.96,-146.37 1330.42,-146.57"/>
<polygon fill="green" stroke="green" stroke-width="2" points="1329.57,-143.16 1320.16,-148.03 1330.56,-150.09 1329.57,-143.16"/>
</g>
<!-- node11&#45;&gt;node12 -->
<g id="edge25" class="edge">
<title>node11&#45;&gt;node12</title>
<path fill="none" stroke="red" d="M2199.43,-72.99C2212.83,-63.67 2229.63,-51.97 2244.16,-41.86"/>
<polygon fill="red" stroke="red" points="2246.21,-44.7 2252.41,-36.11 2242.21,-38.95 2246.21,-44.7"/>
</g>
<!-- node12&#45;&gt;node0 -->
<g id="edge23" class="edge">
<title>node12&#45;&gt;node0</title>
<path fill="none" stroke="green" stroke-width="2" d="M2291.19,-36.15C2301.75,-56.42 2310.46,-89.82 2292,-109 2255.11,-147.34 1387.86,-139.96 1335,-146 1333.49,-146.17 1331.96,-146.36 1330.42,-146.55"/>
<polygon fill="green" stroke="green" stroke-width="2" points="1329.58,-143.13 1320.16,-147.97 1330.54,-150.07 1329.58,-143.13"/>
</g>
<!-- c0 -->
<!-- c1 -->
<!-- c0&#45;&gt;c1 -->
<g id="edge27" class="edge">
<title>c0&#45;&gt;c1</title>
<path fill="none" stroke="red" d="M2051.89,-164C2063.11,-164 2121.24,-164 2146.86,-164"/>
<polygon fill="red" stroke="red" points="2147.06,-167.5 2157.06,-164 2147.06,-160.5 2147.06,-167.5"/>
<text text-anchor="middle" x="2104.5" y="-170.8" font-family="Times,serif" font-size="14.00">Control flow</text>
</g>
<!-- c2 -->
<!-- c3 -->
<!-- c2&#45;&gt;c3 -->
<g id="edge28" class="edge">
<title>c2&#45;&gt;c3</title>
<path fill="none" stroke="red" stroke-dasharray="5,2" d="M1845.08,-164C1862.05,-164 1978.21,-164 2016.08,-164"/>
<polygon fill="red" stroke="red" points="2016.17,-167.5 2026.17,-164 2016.17,-160.5 2016.17,-167.5"/>
<text text-anchor="middle" x="1935.5" y="-170.8" font-family="Times,serif" font-size="14.00">Control flow back edge</text>
</g>
<!-- d0 -->
<!-- d1 -->
<!-- d0&#45;&gt;d1 -->
<g id="edge29" class="edge">
<title>d0&#45;&gt;d1</title>
<path fill="none" stroke="black" d="M1733.86,-164C1743.41,-164 1787.31,-164 1808.92,-164"/>
<polygon fill="black" stroke="black" points="1809.15,-167.5 1819.15,-164 1809.15,-160.5 1809.15,-167.5"/>
<text text-anchor="middle" x="1776.5" y="-170.8" font-family="Times,serif" font-size="14.00">Data flow</text>
</g>
<!-- d2 -->
<!-- d3 -->
<!-- d2&#45;&gt;d3 -->
<g id="edge30" class="edge">
<title>d2&#45;&gt;d3</title>
<path fill="none" stroke="black" stroke-dasharray="1,5" d="M1607.81,-164C1618.46,-164 1673.46,-164 1698.08,-164"/>
<polygon fill="black" stroke="black" points="1698.15,-167.5 1708.15,-164 1698.15,-160.5 1698.15,-167.5"/>
<text text-anchor="middle" x="1658" y="-170.8" font-family="Times,serif" font-size="14.00">Declaration</text>
</g>
<!-- d4 -->
<!-- d5 -->
<!-- d4&#45;&gt;d5 -->
<g id="edge31" class="edge">
<title>d4&#45;&gt;d5</title>
<path fill="none" stroke="blue" d="M1465.1,-164C1477.72,-164 1543.88,-164 1571.68,-164"/>
<polygon fill="blue" stroke="blue" points="1571.84,-167.5 1581.84,-164 1571.84,-160.5 1571.84,-167.5"/>
<text text-anchor="middle" x="1523.5" y="-170.8" font-family="Times,serif" font-size="14.00">PHI Data flow</text>
</g>
<!-- d6 -->
<!-- d7 -->
<!-- d6&#45;&gt;d7 -->
<g id="edge32" class="edge">
<title>d6&#45;&gt;d7</title>
<path fill="none" stroke="green" d="M1342.11,-164C1353.15,-164 1404.67,-164 1428.66,-164"/>
<polygon fill="green" stroke="green" points="1428.9,-167.5 1438.9,-164 1428.9,-160.5 1428.9,-167.5"/>
<text text-anchor="middle" x="1390.5" y="-170.8" font-family="Times,serif" font-size="14.00">Dominance</text>
</g>
</g>
</svg>
