<?xml version="1.0" encoding="UTF-8" standalone="no"?>
<!DOCTYPE svg PUBLIC "-//W3C//DTD SVG 1.1//EN"
 "http://www.w3.org/Graphics/SVG/1.1/DTD/svg11.dtd">
<!-- Generated by graphviz version 2.43.0 (0)
 -->
<!-- Title: debugoutput Pages: 1 -->
<svg width="1488pt" height="870pt"
 viewBox="0.00 0.00 1488.00 869.80" xmlns="http://www.w3.org/2000/svg" xmlns:xlink="http://www.w3.org/1999/xlink">
<g id="graph0" class="graph" transform="scale(1 1) rotate(0) translate(4 865.8)">
<title>debugoutput</title>
<polygon fill="white" stroke="transparent" points="-4,4 -4,-865.8 1484,-865.8 1484,4 -4,4"/>
<g id="clust1" class="cluster">
<title>cluster_000</title>
<polygon fill="none" stroke="black" points="496,-811.2 496,-853.8 1472,-853.8 1472,-811.2 496,-811.2"/>
<text text-anchor="middle" x="984" y="-838.6" font-family="Times,serif" font-size="14.00">Legend</text>
</g>
<!-- node0 -->
<g id="node1" class="node">
<title>node0</title>
<polygon fill="lightgrey" stroke="black" points="486,-839 320,-839 320,-803 486,-803 486,-839"/>
<text text-anchor="middle" x="403" y="-817.3" font-family="Times,serif" font-size="14.00">#0 Method Order : 0</text>
</g>
<!-- node1 -->
<g id="node2" class="node">
<title>node1</title>
<polygon fill="lightgrey" stroke="black" points="291,-766 25,-766 25,-730 291,-730 291,-766"/>
<text text-anchor="middle" x="158" y="-744.3" font-family="Times,serif" font-size="14.00">#1 this : FieldAccessTest Order : 3</text>
</g>
<!-- node0&#45;&gt;node1 -->
<g id="edge2" class="edge">
<title>node0&#45;&gt;node1</title>
<path fill="none" stroke="black" d="M338.46,-802.99C302.18,-792.79 257.13,-779.77 221.09,-769.07"/>
<polygon fill="black" stroke="black" points="221.77,-765.61 211.18,-766.11 219.77,-772.32 221.77,-765.61"/>
<text text-anchor="middle" x="230.97" y="-759.49" font-family="Times,serif" font-size="14.00">*0</text>
</g>
<!-- node2 -->
<g id="node3" class="node">
<title>node2</title>
<polygon fill="lightgrey" stroke="black" points="497,-766 309,-766 309,-730 497,-730 497,-766"/>
<text text-anchor="middle" x="403" y="-744.3" font-family="Times,serif" font-size="14.00">#2 LabelNode Order : 1</text>
</g>
<!-- node0&#45;&gt;node2 -->
<g id="edge4" class="edge">
<title>node0&#45;&gt;node2</title>
<path fill="none" stroke="red" d="M397.12,-802.81C396.28,-794.79 396.05,-785.05 396.42,-776.07"/>
<polygon fill="red" stroke="red" points="399.92,-776.25 397.14,-766.03 392.94,-775.75 399.92,-776.25"/>
</g>
<!-- node4 -->
<g id="node5" class="node">
<title>node4</title>
<polygon fill="lightgrey" stroke="black" points="490,-620 316,-620 316,-584 490,-584 490,-620"/>
<text text-anchor="middle" x="403" y="-598.3" font-family="Times,serif" font-size="14.00">#4 ClassInit Order : 4</text>
</g>
<!-- node0&#45;&gt;node4 -->
<g id="edge10" class="edge">
<title>node0&#45;&gt;node4</title>
<path fill="none" stroke="green" d="M477.56,-802.99C571.87,-778.88 715.05,-729.47 656,-657 635.95,-632.39 562.62,-618.67 499.99,-611.22"/>
<polygon fill="green" stroke="green" points="500.37,-607.74 490.04,-610.08 499.57,-614.7 500.37,-607.74"/>
</g>
<!-- node1&#45;&gt;node0 -->
<g id="edge1" class="edge">
<title>node1&#45;&gt;node0</title>
<path fill="none" stroke="fuchsia" stroke-width="2" d="M222.92,-766.11C259.26,-776.33 304.31,-789.36 340.28,-800.05"/>
<polygon fill="fuchsia" stroke="fuchsia" stroke-width="2" points="339.59,-803.49 350.18,-802.99 341.59,-796.78 339.59,-803.49"/>
</g>
<!-- node2&#45;&gt;node0 -->
<g id="edge3" class="edge">
<title>node2&#45;&gt;node0</title>
<path fill="none" stroke="fuchsia" stroke-width="2" d="M408.86,-766.03C409.71,-774.03 409.95,-783.77 409.59,-792.75"/>
<polygon fill="fuchsia" stroke="fuchsia" stroke-width="2" points="406.09,-792.59 408.88,-802.81 413.07,-793.08 406.09,-792.59"/>
</g>
<!-- node3 -->
<g id="node4" class="node">
<title>node3</title>
<polygon fill="lightgreen" stroke="black" points="655.61,-667.54 655.61,-682.46 507.63,-693 298.37,-693 150.39,-682.46 150.39,-667.54 298.37,-657 507.63,-657 655.61,-667.54"/>
<text text-anchor="middle" x="403" y="-671.3" font-family="Times,serif" font-size="14.00">#3 Class FieldAccessTest$Destination Order : 2</text>
</g>
<!-- node2&#45;&gt;node3 -->
<g id="edge6" class="edge">
<title>node2&#45;&gt;node3</title>
<path fill="none" stroke="black" stroke-dasharray="1,5" d="M397.12,-729.81C396.28,-721.79 396.05,-712.05 396.42,-703.07"/>
<polygon fill="black" stroke="black" points="399.92,-703.25 397.14,-693.03 392.94,-702.75 399.92,-703.25"/>
</g>
<!-- node2&#45;&gt;node4 -->
<g id="edge9" class="edge">
<title>node2&#45;&gt;node4</title>
<path fill="none" stroke="red" d="M309,-730.5C236.1,-717.25 146.52,-699.77 141,-693 91.31,-632.03 212.03,-612.23 305.71,-605.88"/>
<polygon fill="red" stroke="red" points="306.08,-609.36 315.84,-605.24 305.64,-602.38 306.08,-609.36"/>
</g>
<!-- node3&#45;&gt;node2 -->
<g id="edge5" class="edge">
<title>node3&#45;&gt;node2</title>
<path fill="none" stroke="fuchsia" stroke-width="2" d="M408.86,-693.03C409.71,-701.03 409.95,-710.77 409.59,-719.75"/>
<polygon fill="fuchsia" stroke="fuchsia" stroke-width="2" points="406.09,-719.59 408.88,-729.81 413.07,-720.08 406.09,-719.59"/>
</g>
<!-- node3&#45;&gt;node4 -->
<g id="edge8" class="edge">
<title>node3&#45;&gt;node4</title>
<path fill="none" stroke="black" d="M403,-656.81C403,-648.79 403,-639.05 403,-630.07"/>
<polygon fill="black" stroke="black" points="406.5,-630.03 403,-620.03 399.5,-630.03 406.5,-630.03"/>
<text text-anchor="middle" x="411.45" y="-634.45" font-family="Times,serif" font-size="14.00">*0</text>
</g>
<!-- node4&#45;&gt;node0 -->
<g id="edge7" class="edge">
<title>node4&#45;&gt;node0</title>
<path fill="none" stroke="fuchsia" stroke-width="2" d="M490.23,-608.62C560.6,-615.28 651.34,-629.19 674,-657 731.89,-728.03 595.44,-776.92 495.83,-801.53"/>
<polygon fill="fuchsia" stroke="fuchsia" stroke-width="2" points="494.91,-798.16 486.01,-803.91 496.56,-804.96 494.91,-798.16"/>
</g>
<!-- node5 -->
<g id="node6" class="node">
<title>node5</title>
<polygon fill="orange" stroke="black" points="365.7,-521.54 365.7,-536.46 306.71,-547 223.29,-547 164.3,-536.46 164.3,-521.54 223.29,-511 306.71,-511 365.7,-521.54"/>
<text text-anchor="middle" x="265" y="-525.3" font-family="Times,serif" font-size="14.00">#5 New Order : 5</text>
</g>
<!-- node4&#45;&gt;node5 -->
<g id="edge12" class="edge">
<title>node4&#45;&gt;node5</title>
<path fill="none" stroke="black" d="M358.23,-583.99C337.65,-574.45 313.98,-562.43 295.44,-552.15"/>
<polygon fill="black" stroke="black" points="296.95,-548.98 286.52,-547.11 293.51,-555.08 296.95,-548.98"/>
<text text-anchor="middle" x="306.46" y="-544.97" font-family="Times,serif" font-size="14.00">*0</text>
</g>
<!-- node4&#45;&gt;node5 -->
<g id="edge13" class="edge">
<title>node4&#45;&gt;node5</title>
<path fill="none" stroke="green" d="M381.66,-583.99C364.51,-574.09 340.31,-561.51 318.24,-550.99"/>
<polygon fill="green" stroke="green" points="319.48,-547.71 308.94,-546.62 316.51,-554.04 319.48,-547.71"/>
</g>
<!-- node6 -->
<g id="node7" class="node">
<title>node6</title>
<polygon fill="lightgrey" stroke="black" points="562.5,-474 243.5,-474 243.5,-438 562.5,-438 562.5,-474"/>
<text text-anchor="middle" x="403" y="-452.3" font-family="Times,serif" font-size="14.00">#6 Invoke special &lt;init&gt; : ()void Order : 6</text>
</g>
<!-- node4&#45;&gt;node6 -->
<g id="edge16" class="edge">
<title>node4&#45;&gt;node6</title>
<path fill="none" stroke="red" d="M398.45,-583.92C395.84,-559.23 395.55,-513.35 397.59,-484.04"/>
<polygon fill="red" stroke="red" points="401.08,-484.32 398.45,-474.06 394.11,-483.73 401.08,-484.32"/>
</g>
<!-- node5&#45;&gt;node4 -->
<g id="edge11" class="edge">
<title>node5&#45;&gt;node4</title>
<path fill="none" stroke="fuchsia" stroke-width="2" d="M298.26,-547.11C317.11,-556.81 340.86,-569.03 360.99,-579.38"/>
<polygon fill="fuchsia" stroke="fuchsia" stroke-width="2" points="359.45,-582.53 369.95,-583.99 362.65,-576.31 359.45,-582.53"/>
</g>
<!-- node5&#45;&gt;node6 -->
<g id="edge15" class="edge">
<title>node5&#45;&gt;node6</title>
<path fill="none" stroke="black" d="M292.2,-510.99C310.06,-501.27 333.8,-488.99 354.77,-478.59"/>
<polygon fill="black" stroke="black" points="356.44,-481.67 363.87,-474.11 353.35,-475.39 356.44,-481.67"/>
<text text-anchor="middle" x="351.33" y="-486" font-family="Times,serif" font-size="14.00">*0</text>
</g>
<!-- node5&#45;&gt;node6 -->
<g id="edge17" class="edge">
<title>node5&#45;&gt;node6</title>
<path fill="none" stroke="green" d="M303.91,-510.99C323.66,-501.36 347.42,-489.21 366.78,-478.87"/>
<polygon fill="green" stroke="green" points="368.46,-481.94 375.61,-474.11 365.14,-475.78 368.46,-481.94"/>
</g>
<!-- node12 -->
<g id="node13" class="node">
<title>node12</title>
<polygon fill="lightgrey" stroke="black" points="675,-109 359,-109 359,-73 675,-73 675,-109"/>
<text text-anchor="middle" x="517" y="-87.3" font-family="Times,serif" font-size="14.00">#12 PutField : long_field : long Order : 12</text>
</g>
<!-- node5&#45;&gt;node12 -->
<g id="edge35" class="edge">
<title>node5&#45;&gt;node12</title>
<path fill="none" stroke="black" d="M170.45,-520.42C94.35,-511.62 0,-493.38 0,-457 0,-457 0,-457 0,-163 0,-127.16 197.53,-108.5 348.4,-99.47"/>
<polygon fill="black" stroke="black" points="348.94,-102.95 358.72,-98.87 348.53,-95.96 348.94,-102.95"/>
<text text-anchor="middle" x="341.12" y="-104.67" font-family="Times,serif" font-size="14.00">*0</text>
</g>
<!-- node6&#45;&gt;node4 -->
<g id="edge14" class="edge">
<title>node6&#45;&gt;node4</title>
<path fill="none" stroke="fuchsia" stroke-width="2" d="M407.55,-474.06C410.16,-498.73 410.45,-544.61 408.41,-573.93"/>
<polygon fill="fuchsia" stroke="fuchsia" stroke-width="2" points="404.92,-573.65 407.55,-583.92 411.9,-574.25 404.92,-573.65"/>
</g>
<!-- node7 -->
<g id="node8" class="node">
<title>node7</title>
<polygon fill="lightgreen" stroke="black" points="494.18,-375.54 494.18,-390.46 359.93,-401 170.07,-401 35.82,-390.46 35.82,-375.54 170.07,-365 359.93,-365 494.18,-375.54"/>
<text text-anchor="middle" x="265" y="-379.3" font-family="Times,serif" font-size="14.00">#7 Class FieldAccessTest$Source Order : 7</text>
</g>
<!-- node6&#45;&gt;node7 -->
<g id="edge19" class="edge">
<title>node6&#45;&gt;node7</title>
<path fill="none" stroke="black" stroke-dasharray="1,5" d="M364.09,-437.99C344.34,-428.36 320.58,-416.21 301.22,-405.87"/>
<polygon fill="black" stroke="black" points="302.86,-402.78 292.39,-401.11 299.54,-408.94 302.86,-402.78"/>
</g>
<!-- node8 -->
<g id="node9" class="node">
<title>node8</title>
<polygon fill="lightgrey" stroke="black" points="627,-328 453,-328 453,-292 627,-292 627,-328"/>
<text text-anchor="middle" x="540" y="-306.3" font-family="Times,serif" font-size="14.00">#8 ClassInit Order : 8</text>
</g>
<!-- node6&#45;&gt;node8 -->
<g id="edge22" class="edge">
<title>node6&#45;&gt;node8</title>
<path fill="none" stroke="red" d="M433.21,-437.84C450.35,-429.15 470.61,-416.99 485,-401 501.24,-382.95 510.91,-356.8 519.45,-337.34"/>
<polygon fill="red" stroke="red" points="522.69,-338.66 523.71,-328.11 516.34,-335.73 522.69,-338.66"/>
</g>
<!-- node6&#45;&gt;node8 -->
<g id="edge23" class="edge">
<title>node6&#45;&gt;node8</title>
<path fill="none" stroke="green" d="M466.16,-437.96C486.16,-429.26 506.55,-417.06 521,-401 537.02,-383.2 546.64,-357.52 548.99,-338.14"/>
<polygon fill="green" stroke="green" points="552.48,-338.29 549.53,-328.11 545.49,-337.91 552.48,-338.29"/>
</g>
<!-- node7&#45;&gt;node6 -->
<g id="edge18" class="edge">
<title>node7&#45;&gt;node6</title>
<path fill="none" stroke="fuchsia" stroke-width="2" d="M304.13,-401.11C323.91,-410.77 347.67,-422.92 366.99,-433.24"/>
<polygon fill="fuchsia" stroke="fuchsia" stroke-width="2" points="365.34,-436.33 375.8,-437.99 368.66,-430.17 365.34,-436.33"/>
</g>
<!-- node7&#45;&gt;node8 -->
<g id="edge21" class="edge">
<title>node7&#45;&gt;node8</title>
<path fill="none" stroke="black" d="M330.87,-364.99C370.88,-354.66 422.12,-341.43 463.87,-330.66"/>
<polygon fill="black" stroke="black" points="464.91,-334 473.72,-328.11 463.16,-327.22 464.91,-334"/>
<text text-anchor="middle" x="458.28" y="-337.13" font-family="Times,serif" font-size="14.00">*0</text>
</g>
<!-- node8&#45;&gt;node6 -->
<g id="edge20" class="edge">
<title>node8&#45;&gt;node6</title>
<path fill="none" stroke="fuchsia" stroke-width="2" d="M536.62,-328.11C531.99,-347.74 521.99,-379.9 503,-401 490.92,-414.42 474.69,-425.15 458.83,-433.4"/>
<polygon fill="fuchsia" stroke="fuchsia" stroke-width="2" points="456.98,-430.4 449.56,-437.96 460.08,-436.68 456.98,-430.4"/>
</g>
<!-- node9 -->
<g id="node10" class="node">
<title>node9</title>
<polygon fill="orange" stroke="black" points="640.7,-229.54 640.7,-244.46 581.71,-255 498.29,-255 439.3,-244.46 439.3,-229.54 498.29,-219 581.71,-219 640.7,-229.54"/>
<text text-anchor="middle" x="540" y="-233.3" font-family="Times,serif" font-size="14.00">#9 New Order : 9</text>
</g>
<!-- node8&#45;&gt;node9 -->
<g id="edge25" class="edge">
<title>node8&#45;&gt;node9</title>
<path fill="none" stroke="black" d="M528.24,-291.81C526.56,-283.79 526.1,-274.05 526.84,-265.07"/>
<polygon fill="black" stroke="black" points="530.33,-265.42 528.28,-255.03 523.4,-264.43 530.33,-265.42"/>
<text text-anchor="middle" x="534.08" y="-270.47" font-family="Times,serif" font-size="14.00">*0</text>
</g>
<!-- node8&#45;&gt;node9 -->
<g id="edge26" class="edge">
<title>node8&#45;&gt;node9</title>
<path fill="none" stroke="green" d="M551.76,-291.81C553.44,-283.79 553.9,-274.05 553.16,-265.07"/>
<polygon fill="green" stroke="green" points="556.6,-264.43 551.72,-255.03 549.67,-265.42 556.6,-264.43"/>
</g>
<!-- node10 -->
<g id="node11" class="node">
<title>node10</title>
<polygon fill="lightgrey" stroke="black" points="846.5,-182 509.5,-182 509.5,-146 846.5,-146 846.5,-182"/>
<text text-anchor="middle" x="678" y="-160.3" font-family="Times,serif" font-size="14.00">#10 Invoke special &lt;init&gt; : ()void Order : 10</text>
</g>
<!-- node8&#45;&gt;node10 -->
<g id="edge29" class="edge">
<title>node8&#45;&gt;node10</title>
<path fill="none" stroke="red" d="M587.5,-291.91C606.36,-283.52 626.82,-271.56 641,-255 656.15,-237.3 663.11,-211.44 667.85,-191.98"/>
<polygon fill="red" stroke="red" points="671.27,-192.73 670.23,-182.19 664.47,-191.08 671.27,-192.73"/>
</g>
<!-- node9&#45;&gt;node8 -->
<g id="edge24" class="edge">
<title>node9&#45;&gt;node8</title>
<path fill="none" stroke="fuchsia" stroke-width="2" d="M540,-255.03C540,-263.03 540,-272.77 540,-281.75"/>
<polygon fill="fuchsia" stroke="fuchsia" stroke-width="2" points="536.5,-281.81 540,-291.81 543.5,-281.81 536.5,-281.81"/>
</g>
<!-- node9&#45;&gt;node10 -->
<g id="edge28" class="edge">
<title>node9&#45;&gt;node10</title>
<path fill="none" stroke="black" d="M567.2,-218.99C585.06,-209.27 608.8,-196.99 629.77,-186.59"/>
<polygon fill="black" stroke="black" points="631.44,-189.67 638.87,-182.11 628.35,-183.39 631.44,-189.67"/>
<text text-anchor="middle" x="626.33" y="-194" font-family="Times,serif" font-size="14.00">*0</text>
</g>
<!-- node9&#45;&gt;node10 -->
<g id="edge30" class="edge">
<title>node9&#45;&gt;node10</title>
<path fill="none" stroke="green" d="M578.91,-218.99C598.66,-209.36 622.42,-197.21 641.78,-186.87"/>
<polygon fill="green" stroke="green" points="643.46,-189.94 650.61,-182.11 640.14,-183.78 643.46,-189.94"/>
</g>
<!-- node11 -->
<g id="node12" class="node">
<title>node11</title>
<polygon fill="orange" stroke="black" points="474.01,-156.54 474.01,-171.46 343.38,-182 158.62,-182 27.99,-171.46 27.99,-156.54 158.62,-146 343.38,-146 474.01,-156.54"/>
<text text-anchor="middle" x="251" y="-160.3" font-family="Times,serif" font-size="14.00">#11 GetField : long_field : long Order : 11</text>
</g>
<!-- node9&#45;&gt;node11 -->
<g id="edge32" class="edge">
<title>node9&#45;&gt;node11</title>
<path fill="none" stroke="black" d="M482.21,-221.8C438.6,-211.09 378.27,-196.27 330.17,-184.45"/>
<polygon fill="black" stroke="black" points="330.95,-181.04 320.41,-182.05 329.28,-187.84 330.95,-181.04"/>
<text text-anchor="middle" x="340.03" y="-174.47" font-family="Times,serif" font-size="14.00">*0</text>
</g>
<!-- node10&#45;&gt;node8 -->
<g id="edge27" class="edge">
<title>node10&#45;&gt;node8</title>
<path fill="none" stroke="fuchsia" stroke-width="2" d="M683.14,-182.19C683.35,-201.88 676.88,-234.12 659,-255 647.03,-268.98 630.6,-279.67 613.73,-287.71"/>
<polygon fill="fuchsia" stroke="fuchsia" stroke-width="2" points="612.05,-284.63 604.34,-291.91 614.9,-291.02 612.05,-284.63"/>
</g>
<!-- node10&#45;&gt;node11 -->
<g id="edge33" class="edge">
<title>node10&#45;&gt;node11</title>
<path fill="none" stroke="green" d="M509.14,-164C500.83,-164 492.53,-164 484.22,-164"/>
<polygon fill="green" stroke="green" points="484.09,-160.5 474.09,-164 484.09,-167.5 484.09,-160.5"/>
</g>
<!-- node10&#45;&gt;node12 -->
<g id="edge38" class="edge">
<title>node10&#45;&gt;node12</title>
<path fill="none" stroke="red" d="M639.44,-145.99C617.1,-136.14 588.78,-123.66 565.01,-113.17"/>
<polygon fill="red" stroke="red" points="566.37,-109.95 555.81,-109.11 563.54,-116.35 566.37,-109.95"/>
</g>
<!-- node11&#45;&gt;node8 -->
<g id="edge31" class="edge">
<title>node11&#45;&gt;node8</title>
<path fill="none" stroke="fuchsia" stroke-width="2" d="M284.6,-182.02C320.54,-200.18 379.22,-229.77 430,-255 451.55,-265.7 475.52,-277.49 495.58,-287.31"/>
<polygon fill="fuchsia" stroke="fuchsia" stroke-width="2" points="494.26,-290.57 504.78,-291.82 497.34,-284.28 494.26,-290.57"/>
</g>
<!-- node11&#45;&gt;node12 -->
<g id="edge36" class="edge">
<title>node11&#45;&gt;node12</title>
<path fill="none" stroke="black" d="M308.85,-145.99C346.46,-135.66 395.94,-122.43 437.25,-111.66"/>
<polygon fill="black" stroke="black" points="438.22,-115.02 447.01,-109.11 436.45,-108.25 438.22,-115.02"/>
<text text-anchor="middle" x="431.6" y="-118.16" font-family="Times,serif" font-size="14.00">*1</text>
</g>
<!-- node11&#45;&gt;node12 -->
<g id="edge37" class="edge">
<title>node11&#45;&gt;node12</title>
<path fill="none" stroke="green" d="M320.57,-145.99C360.2,-135.71 409.6,-122.55 448.97,-111.79"/>
<polygon fill="green" stroke="green" points="450.03,-115.13 458.75,-109.11 448.19,-108.38 450.03,-115.13"/>
</g>
<!-- node12&#45;&gt;node4 -->
<g id="edge34" class="edge">
<title>node12&#45;&gt;node4</title>
<path fill="none" stroke="fuchsia" stroke-width="2" d="M675.07,-95.48C770.97,-102.06 875,-119.28 875,-163 875,-530 875,-530 875,-530 875,-567.54 638.49,-587.51 500.31,-595.97"/>
<polygon fill="fuchsia" stroke="fuchsia" stroke-width="2" points="499.89,-592.49 490.12,-596.59 500.31,-599.48 499.89,-592.49"/>
</g>
<!-- node13 -->
<g id="node14" class="node">
<title>node13</title>
<polygon fill="lightgrey" stroke="black" points="606.5,-36 427.5,-36 427.5,0 606.5,0 606.5,-36"/>
<text text-anchor="middle" x="517" y="-14.3" font-family="Times,serif" font-size="14.00">#13 Return Order : 13</text>
</g>
<!-- node12&#45;&gt;node13 -->
<g id="edge40" class="edge">
<title>node12&#45;&gt;node13</title>
<path fill="none" stroke="red" d="M505.24,-72.81C503.56,-64.79 503.1,-55.05 503.84,-46.07"/>
<polygon fill="red" stroke="red" points="507.33,-46.42 505.28,-36.03 500.4,-45.43 507.33,-46.42"/>
</g>
<!-- node12&#45;&gt;node13 -->
<g id="edge41" class="edge">
<title>node12&#45;&gt;node13</title>
<path fill="none" stroke="green" d="M528.76,-72.81C530.44,-64.79 530.9,-55.05 530.16,-46.07"/>
<polygon fill="green" stroke="green" points="533.6,-45.43 528.72,-36.03 526.67,-46.42 533.6,-45.43"/>
</g>
<!-- node13&#45;&gt;node12 -->
<g id="edge39" class="edge">
<title>node13&#45;&gt;node12</title>
<path fill="none" stroke="fuchsia" stroke-width="2" d="M517,-36.03C517,-44.03 517,-53.77 517,-62.75"/>
<polygon fill="fuchsia" stroke="fuchsia" stroke-width="2" points="513.5,-62.81 517,-72.81 520.5,-62.81 513.5,-62.81"/>
</g>
<!-- c0 -->
<!-- c1 -->
<!-- c0&#45;&gt;c1 -->
<g id="edge42" class="edge">
<title>c0&#45;&gt;c1</title>
<path fill="none" stroke="red" d="M1354.89,-821C1366.11,-821 1424.24,-821 1449.86,-821"/>
<polygon fill="red" stroke="red" points="1450.06,-824.5 1460.06,-821 1450.06,-817.5 1450.06,-824.5"/>
<text text-anchor="middle" x="1407.5" y="-827.8" font-family="Times,serif" font-size="14.00">Control flow</text>
</g>
<!-- c2 -->
<!-- c3 -->
<!-- c2&#45;&gt;c3 -->
<g id="edge43" class="edge">
<title>c2&#45;&gt;c3</title>
<path fill="none" stroke="red" stroke-dasharray="5,2" d="M1148.08,-821C1165.05,-821 1281.21,-821 1319.08,-821"/>
<polygon fill="red" stroke="red" points="1319.17,-824.5 1329.17,-821 1319.17,-817.5 1319.17,-824.5"/>
<text text-anchor="middle" x="1238.5" y="-827.8" font-family="Times,serif" font-size="14.00">Control flow back edge</text>
</g>
<!-- d0 -->
<!-- d1 -->
<!-- d0&#45;&gt;d1 -->
<g id="edge44" class="edge">
<title>d0&#45;&gt;d1</title>
<path fill="none" stroke="black" d="M1036.86,-821C1046.41,-821 1090.31,-821 1111.92,-821"/>
<polygon fill="black" stroke="black" points="1112.15,-824.5 1122.15,-821 1112.15,-817.5 1112.15,-824.5"/>
<text text-anchor="middle" x="1079.5" y="-827.8" font-family="Times,serif" font-size="14.00">Data flow</text>
</g>
<!-- d2 -->
<!-- d3 -->
<!-- d2&#45;&gt;d3 -->
<g id="edge45" class="edge">
<title>d2&#45;&gt;d3</title>
<path fill="none" stroke="black" stroke-dasharray="1,5" d="M910.81,-821C921.46,-821 976.46,-821 1001.08,-821"/>
<polygon fill="black" stroke="black" points="1001.15,-824.5 1011.15,-821 1001.15,-817.5 1001.15,-824.5"/>
<text text-anchor="middle" x="961" y="-827.8" font-family="Times,serif" font-size="14.00">Declaration</text>
</g>
<!-- d4 -->
<!-- d5 -->
<!-- d4&#45;&gt;d5 -->
<g id="edge46" class="edge">
<title>d4&#45;&gt;d5</title>
<path fill="none" stroke="blue" d="M768.1,-821C780.72,-821 846.88,-821 874.68,-821"/>
<polygon fill="blue" stroke="blue" points="874.84,-824.5 884.84,-821 874.84,-817.5 874.84,-824.5"/>
<text text-anchor="middle" x="826.5" y="-827.8" font-family="Times,serif" font-size="14.00">PHI Data flow</text>
</g>
<!-- d6 -->
<!-- d7 -->
<!-- d6&#45;&gt;d7 -->
<g id="edge47" class="edge">
<title>d6&#45;&gt;d7</title>
<path fill="none" stroke="green" d="M631,-821C642.94,-821 705.3,-821 731.93,-821"/>
<polygon fill="green" stroke="green" points="731.95,-824.5 741.95,-821 731.95,-817.5 731.95,-824.5"/>
<text text-anchor="middle" x="686.5" y="-827.8" font-family="Times,serif" font-size="14.00">Memory flow</text>
</g>
<!-- d8 -->
<!-- d9 -->
<!-- d8&#45;&gt;d9 -->
<g id="edge48" class="edge">
<title>d8&#45;&gt;d9</title>
<path fill="none" stroke="fuchsia" d="M508.11,-821C519.15,-821 570.67,-821 594.66,-821"/>
<polygon fill="fuchsia" stroke="fuchsia" points="594.9,-824.5 604.9,-821 594.9,-817.5 594.9,-824.5"/>
<text text-anchor="middle" x="556.5" y="-827.8" font-family="Times,serif" font-size="14.00">Dominance</text>
</g>
</g>
</svg>
