<?xml version="1.0" encoding="UTF-8" standalone="no"?>
<!DOCTYPE svg PUBLIC "-//W3C//DTD SVG 1.1//EN"
 "http://www.w3.org/Graphics/SVG/1.1/DTD/svg11.dtd">
<!-- Generated by graphviz version 2.43.0 (0)
 -->
<!-- Title: %3 Pages: 1 -->
<svg width="1633pt" height="589pt"
 viewBox="0.00 0.00 1632.50 589.00" xmlns="http://www.w3.org/2000/svg" xmlns:xlink="http://www.w3.org/1999/xlink">
<g id="graph0" class="graph" transform="scale(1 1) rotate(0) translate(4 585)">
<title>%3</title>
<polygon fill="white" stroke="transparent" points="-4,4 -4,-585 1628.5,-585 1628.5,4 -4,4"/>
<g id="clust1" class="cluster">
<title>cluster_0</title>
<polygon fill="none" stroke="lightgray" points="167.5,-430 167.5,-573 755.5,-573 755.5,-430 167.5,-430"/>
</g>
<g id="clust2" class="cluster">
<title>cluster_000</title>
<polygon fill="none" stroke="black" points="763.5,-528.2 763.5,-570.8 1616.5,-570.8 1616.5,-528.2 763.5,-528.2"/>
<text text-anchor="middle" x="1190" y="-555.6" font-family="Times,serif" font-size="14.00">Legend</text>
</g>
<!-- node0 -->
<g id="node1" class="node">
<title>node0</title>
<polygon fill="lightgrey" stroke="transparent" points="438,-565 315,-565 315,-511 438,-511 438,-565"/>
<polygon fill="none" stroke="black" points="315.5,-538 315.5,-565 438.5,-565 438.5,-538 315.5,-538"/>
<text text-anchor="start" x="336.5" y="-547.8" font-family="Times,serif" font-size="14.00">#0 Method</text>
<polygon fill="yellow" stroke="transparent" points="315.5,-511 315.5,-538 438.5,-538 438.5,-511 315.5,-511"/>
<polygon fill="none" stroke="black" points="315.5,-511 315.5,-538 438.5,-538 438.5,-511 315.5,-511"/>
<text text-anchor="start" x="321.5" y="-520.8" font-family="Times,serif" font-size="14.00">this : ArrayTest</text>
</g>
<!-- node2 -->
<g id="node2" class="node">
<title>node2</title>
<polygon fill="lightgrey" stroke="black" points="119,-474 0,-474 0,-438 119,-438 119,-474"/>
<text text-anchor="middle" x="59.5" y="-452.3" font-family="Times,serif" font-size="14.00">#2 LabelNode</text>
</g>
<!-- node0&#45;&gt;node2 -->
<g id="edge1" class="edge">
<title>node0&#45;&gt;node2</title>
<path fill="none" stroke="red" d="M314.63,-521.39C261.25,-507.92 184.24,-488.48 128.81,-474.49"/>
<polygon fill="red" stroke="red" points="129.62,-471.09 119.07,-472.03 127.91,-477.87 129.62,-471.09"/>
</g>
<!-- node4 -->
<g id="node5" class="node">
<title>node4</title>
<polygon fill="orange" stroke="black" points="332.2,-375.54 332.2,-390.46 255.64,-401 147.36,-401 70.8,-390.46 70.8,-375.54 147.36,-365 255.64,-365 332.2,-375.54"/>
<text text-anchor="middle" x="201.5" y="-379.3" font-family="Times,serif" font-size="14.00">#4 NewArray : double[]</text>
</g>
<!-- node0&#45;&gt;node4 -->
<g id="edge9" class="edge">
<title>node0&#45;&gt;node4</title>
<path fill="none" stroke="green" d="M314.77,-520.41C254.49,-503.92 171.12,-480.2 166.5,-474 152.03,-454.55 165.07,-428.36 179.17,-409.25"/>
<polygon fill="green" stroke="green" points="182,-411.3 185.4,-401.27 176.49,-406.99 182,-411.3"/>
</g>
<!-- node7 -->
<g id="node6" class="node">
<title>node7</title>
<polygon fill="lightgreen" stroke="black" points="429.02,-448.54 429.02,-463.46 398.26,-474 354.74,-474 323.98,-463.46 323.98,-448.54 354.74,-438 398.26,-438 429.02,-448.54"/>
<text text-anchor="middle" x="376.5" y="-452.3" font-family="Times,serif" font-size="14.00">#7 int 0</text>
</g>
<!-- node0&#45;&gt;node7 -->
<g id="edge22" class="edge">
<title>node0&#45;&gt;node7</title>
<path fill="none" stroke="black" stroke-dasharray="1,5" d="M376.5,-510.81C376.5,-502.35 376.5,-492.95 376.5,-484.4"/>
<polygon fill="black" stroke="black" points="380,-484.17 376.5,-474.17 373,-484.17 380,-484.17"/>
</g>
<!-- node6 -->
<g id="node7" class="node">
<title>node6</title>
<polygon fill="lightgreen" stroke="black" points="624.28,-448.54 624.28,-463.46 572.27,-474 498.73,-474 446.72,-463.46 446.72,-448.54 498.73,-438 572.27,-438 624.28,-448.54"/>
<text text-anchor="middle" x="535.5" y="-452.3" font-family="Times,serif" font-size="14.00">#6 double 10.0</text>
</g>
<!-- node0&#45;&gt;node6 -->
<g id="edge21" class="edge">
<title>node0&#45;&gt;node6</title>
<path fill="none" stroke="black" stroke-dasharray="1,5" d="M428.56,-510.81C449.2,-500.42 472.66,-488.62 492.33,-478.72"/>
<polygon fill="black" stroke="black" points="494.01,-481.8 501.37,-474.17 490.86,-475.54 494.01,-481.8"/>
</g>
<!-- node14 -->
<g id="node8" class="node">
<title>node14</title>
<polygon fill="lightgreen" stroke="black" points="305.85,-448.54 305.85,-463.46 267.57,-474 213.43,-474 175.15,-463.46 175.15,-448.54 213.43,-438 267.57,-438 305.85,-448.54"/>
<text text-anchor="middle" x="240.5" y="-452.3" font-family="Times,serif" font-size="14.00">#14 int 10</text>
</g>
<!-- node0&#45;&gt;node14 -->
<g id="edge10" class="edge">
<title>node0&#45;&gt;node14</title>
<path fill="none" stroke="black" stroke-dasharray="1,5" d="M331.97,-510.81C314.45,-500.5 294.57,-488.8 277.82,-478.95"/>
<polygon fill="black" stroke="black" points="279.27,-475.74 268.88,-473.69 275.72,-481.78 279.27,-475.74"/>
</g>
<!-- node9 -->
<g id="node10" class="node">
<title>node9</title>
<polygon fill="lightgreen" stroke="black" points="747.02,-448.54 747.02,-463.46 716.26,-474 672.74,-474 641.98,-463.46 641.98,-448.54 672.74,-438 716.26,-438 747.02,-448.54"/>
<text text-anchor="middle" x="694.5" y="-452.3" font-family="Times,serif" font-size="14.00">#9 int 1</text>
</g>
<!-- node0&#45;&gt;node9 -->
<g id="edge15" class="edge">
<title>node0&#45;&gt;node9</title>
<path fill="none" stroke="black" stroke-dasharray="1,5" d="M438.17,-522.46C490.32,-510.02 566.95,-491.43 633.5,-474 637.34,-472.99 641.31,-471.94 645.29,-470.86"/>
<polygon fill="black" stroke="black" points="646.45,-474.17 655.17,-468.16 644.6,-467.42 646.45,-474.17"/>
</g>
<!-- node3 -->
<g id="node3" class="node">
<title>node3</title>
<polygon fill="lightgrey" stroke="black" points="469,-401 350,-401 350,-365 469,-365 469,-401"/>
<text text-anchor="middle" x="409.5" y="-379.3" font-family="Times,serif" font-size="14.00">#3 LabelNode</text>
</g>
<!-- node2&#45;&gt;node3 -->
<g id="edge2" class="edge">
<title>node2&#45;&gt;node3</title>
<path fill="none" stroke="red" d="M119,-439.89C133.51,-436.43 149.03,-432.91 163.5,-430 239.01,-414.8 261.27,-416.97 339.98,-401.22"/>
<polygon fill="red" stroke="red" points="340.76,-404.63 349.86,-399.21 339.36,-397.77 340.76,-404.63"/>
</g>
<!-- node8 -->
<g id="node4" class="node">
<title>node8</title>
<polygon fill="lightgrey" stroke="black" points="557,-328 364,-328 364,-292 557,-292 557,-328"/>
<text text-anchor="middle" x="460.5" y="-306.3" font-family="Times,serif" font-size="14.00">#8 ArrayStore : double[]</text>
</g>
<!-- node3&#45;&gt;node8 -->
<g id="edge7" class="edge">
<title>node3&#45;&gt;node8</title>
<path fill="none" stroke="red" d="M421.85,-364.81C427.98,-356.27 435.52,-345.77 442.31,-336.32"/>
<polygon fill="red" stroke="red" points="445.28,-338.19 448.27,-328.03 439.59,-334.11 445.28,-338.19"/>
</g>
<!-- node10 -->
<g id="node9" class="node">
<title>node10</title>
<polygon fill="lightgrey" stroke="black" points="554,-255 367,-255 367,-219 554,-219 554,-255"/>
<text text-anchor="middle" x="460.5" y="-233.3" font-family="Times,serif" font-size="14.00">#10 ArrayLoad : double</text>
</g>
<!-- node8&#45;&gt;node10 -->
<g id="edge13" class="edge">
<title>node8&#45;&gt;node10</title>
<path fill="none" stroke="green" d="M454.62,-291.81C453.78,-283.79 453.55,-274.05 453.92,-265.07"/>
<polygon fill="green" stroke="green" points="457.42,-265.25 454.64,-255.03 450.44,-264.75 457.42,-265.25"/>
</g>
<!-- node8&#45;&gt;node10 -->
<g id="edge14" class="edge">
<title>node8&#45;&gt;node10</title>
<path fill="none" stroke="red" d="M466.38,-291.81C467.22,-283.79 467.45,-274.05 467.08,-265.07"/>
<polygon fill="red" stroke="red" points="470.56,-264.75 466.36,-255.03 463.58,-265.25 470.56,-264.75"/>
</g>
<!-- node4&#45;&gt;node8 -->
<g id="edge3" class="edge">
<title>node4&#45;&gt;node8</title>
<path fill="none" stroke="black" d="M264.8,-366.26C288.62,-360.6 315.84,-353.9 340.5,-347 357.38,-342.28 375.53,-336.63 392.51,-331.23"/>
<polygon fill="black" stroke="black" points="393.89,-334.46 402.35,-328.09 391.76,-327.8 393.89,-334.46"/>
<text text-anchor="middle" x="387.65" y="-337.95" font-family="Times,serif" font-size="14.00">*0</text>
</g>
<!-- node4&#45;&gt;node8 -->
<g id="edge6" class="edge">
<title>node4&#45;&gt;node8</title>
<path fill="none" stroke="green" d="M275.74,-367.63C302.11,-361.7 331.8,-354.47 358.5,-347 375.22,-342.32 393.19,-336.74 409.36,-331.38"/>
<polygon fill="green" stroke="green" points="410.8,-334.59 419.16,-328.09 408.57,-327.96 410.8,-334.59"/>
</g>
<!-- node4&#45;&gt;node10 -->
<g id="edge11" class="edge">
<title>node4&#45;&gt;node10</title>
<path fill="none" stroke="black" d="M236.06,-364.99C256.08,-354.82 281.58,-341.32 303.5,-328 327.52,-313.4 331.39,-306.46 355.5,-292 374.69,-280.49 396.6,-268.98 415.42,-259.56"/>
<polygon fill="black" stroke="black" points="416.99,-262.69 424.39,-255.12 413.88,-256.42 416.99,-262.69"/>
<text text-anchor="middle" x="411.91" y="-267.04" font-family="Times,serif" font-size="14.00">*0</text>
</g>
<!-- node5 -->
<g id="node14" class="node">
<title>node5</title>
<polygon fill="orange" stroke="black" points="294.22,-302.54 294.22,-317.46 239.91,-328 163.09,-328 108.78,-317.46 108.78,-302.54 163.09,-292 239.91,-292 294.22,-302.54"/>
<text text-anchor="middle" x="201.5" y="-306.3" font-family="Times,serif" font-size="14.00">#5 ArrayLength</text>
</g>
<!-- node4&#45;&gt;node5 -->
<g id="edge20" class="edge">
<title>node4&#45;&gt;node5</title>
<path fill="none" stroke="black" d="M201.5,-364.81C201.5,-356.79 201.5,-347.05 201.5,-338.07"/>
<polygon fill="black" stroke="black" points="205,-338.03 201.5,-328.03 198,-338.03 205,-338.03"/>
<text text-anchor="middle" x="209.95" y="-342.45" font-family="Times,serif" font-size="14.00">*0</text>
</g>
<!-- node7&#45;&gt;node8 -->
<g id="edge4" class="edge">
<title>node7&#45;&gt;node8</title>
<path fill="none" stroke="black" d="M409.7,-441.85C436.39,-430.53 470.67,-414 478.5,-401 490.12,-381.7 483.42,-356.28 475.09,-337.37"/>
<polygon fill="black" stroke="black" points="478.14,-335.65 470.67,-328.15 471.83,-338.68 478.14,-335.65"/>
<text text-anchor="middle" x="486.12" y="-337.14" font-family="Times,serif" font-size="14.00">*1</text>
</g>
<!-- node6&#45;&gt;node8 -->
<g id="edge5" class="edge">
<title>node6&#45;&gt;node8</title>
<path fill="none" stroke="black" d="M535.5,-437.61C534.71,-414.73 530.45,-374.12 511.5,-346 508.65,-341.77 505.1,-337.9 501.2,-334.41"/>
<polygon fill="black" stroke="black" points="503.39,-331.67 493.39,-328.16 499.01,-337.14 503.39,-331.67"/>
<text text-anchor="middle" x="512.83" y="-329.18" font-family="Times,serif" font-size="14.00">*2</text>
</g>
<!-- node14&#45;&gt;node4 -->
<g id="edge8" class="edge">
<title>node14&#45;&gt;node4</title>
<path fill="none" stroke="black" d="M231.06,-437.81C226.46,-429.44 220.83,-419.2 215.73,-409.9"/>
<polygon fill="black" stroke="black" points="218.74,-408.11 210.85,-401.03 212.6,-411.48 218.74,-408.11"/>
<text text-anchor="middle" x="226.99" y="-409.15" font-family="Times,serif" font-size="14.00">*0</text>
</g>
<!-- node11 -->
<g id="node11" class="node">
<title>node11</title>
<polygon fill="lightgrey" stroke="black" points="524.5,-182 396.5,-182 396.5,-146 524.5,-146 524.5,-182"/>
<text text-anchor="middle" x="460.5" y="-160.3" font-family="Times,serif" font-size="14.00">#11 LabelNode</text>
</g>
<!-- node10&#45;&gt;node11 -->
<g id="edge16" class="edge">
<title>node10&#45;&gt;node11</title>
<path fill="none" stroke="red" d="M460.5,-218.81C460.5,-210.79 460.5,-201.05 460.5,-192.07"/>
<polygon fill="red" stroke="red" points="464,-192.03 460.5,-182.03 457,-192.03 464,-192.03"/>
</g>
<!-- node13 -->
<g id="node13" class="node">
<title>node13</title>
<polygon fill="lightgrey" stroke="black" points="511,-36 410,-36 410,0 511,0 511,-36"/>
<text text-anchor="middle" x="460.5" y="-14.3" font-family="Times,serif" font-size="14.00">#13 Return</text>
</g>
<!-- node10&#45;&gt;node13 -->
<g id="edge19" class="edge">
<title>node10&#45;&gt;node13</title>
<path fill="none" stroke="green" d="M424.74,-218.93C410.41,-210.07 395.45,-197.77 387.5,-182 365.69,-138.74 365.69,-116.26 387.5,-73 393.9,-60.31 404.84,-49.87 416.33,-41.66"/>
<polygon fill="green" stroke="green" points="418.34,-44.52 424.74,-36.07 414.47,-38.69 418.34,-44.52"/>
</g>
<!-- node9&#45;&gt;node10 -->
<g id="edge12" class="edge">
<title>node9&#45;&gt;node10</title>
<path fill="none" stroke="black" d="M684.51,-437.76C665.18,-405.62 619.86,-335.87 566.5,-292 550.67,-278.99 531.19,-267.95 513.27,-259.31"/>
<polygon fill="black" stroke="black" points="514.61,-256.07 504.07,-255.02 511.65,-262.42 514.61,-256.07"/>
<text text-anchor="middle" x="524.07" y="-251.32" font-family="Times,serif" font-size="14.00">*1</text>
</g>
<!-- node12 -->
<g id="node12" class="node">
<title>node12</title>
<polygon fill="lightgrey" stroke="black" points="524.5,-109 396.5,-109 396.5,-73 524.5,-73 524.5,-109"/>
<text text-anchor="middle" x="460.5" y="-87.3" font-family="Times,serif" font-size="14.00">#12 LabelNode</text>
</g>
<!-- node11&#45;&gt;node12 -->
<g id="edge17" class="edge">
<title>node11&#45;&gt;node12</title>
<path fill="none" stroke="red" d="M460.5,-145.81C460.5,-137.79 460.5,-128.05 460.5,-119.07"/>
<polygon fill="red" stroke="red" points="464,-119.03 460.5,-109.03 457,-119.03 464,-119.03"/>
</g>
<!-- node12&#45;&gt;node13 -->
<g id="edge18" class="edge">
<title>node12&#45;&gt;node13</title>
<path fill="none" stroke="red" d="M460.5,-72.81C460.5,-64.79 460.5,-55.05 460.5,-46.07"/>
<polygon fill="red" stroke="red" points="464,-46.03 460.5,-36.03 457,-46.03 464,-46.03"/>
</g>
<!-- c0 -->
<!-- c1 -->
<!-- c0&#45;&gt;c1 -->
<g id="edge23" class="edge">
<title>c0&#45;&gt;c1</title>
<path fill="none" stroke="red" d="M1499.39,-538C1510.61,-538 1568.74,-538 1594.36,-538"/>
<polygon fill="red" stroke="red" points="1594.56,-541.5 1604.56,-538 1594.56,-534.5 1594.56,-541.5"/>
<text text-anchor="middle" x="1552" y="-544.8" font-family="Times,serif" font-size="14.00">Control flow</text>
</g>
<!-- c2 -->
<!-- c3 -->
<!-- c2&#45;&gt;c3 -->
<g id="edge24" class="edge">
<title>c2&#45;&gt;c3</title>
<path fill="none" stroke="red" stroke-dasharray="5,2" d="M1292.58,-538C1309.55,-538 1425.71,-538 1463.58,-538"/>
<polygon fill="red" stroke="red" points="1463.67,-541.5 1473.67,-538 1463.67,-534.5 1463.67,-541.5"/>
<text text-anchor="middle" x="1383" y="-544.8" font-family="Times,serif" font-size="14.00">Control flow back edge</text>
</g>
<!-- d0 -->
<!-- d1 -->
<!-- d0&#45;&gt;d1 -->
<g id="edge25" class="edge">
<title>d0&#45;&gt;d1</title>
<path fill="none" stroke="black" d="M1181.36,-538C1190.91,-538 1234.81,-538 1256.42,-538"/>
<polygon fill="black" stroke="black" points="1256.65,-541.5 1266.65,-538 1256.65,-534.5 1256.65,-541.5"/>
<text text-anchor="middle" x="1224" y="-544.8" font-family="Times,serif" font-size="14.00">Data flow</text>
</g>
<!-- d2 -->
<!-- d3 -->
<!-- d2&#45;&gt;d3 -->
<g id="edge26" class="edge">
<title>d2&#45;&gt;d3</title>
<path fill="none" stroke="black" stroke-dasharray="1,5" d="M1055.31,-538C1065.96,-538 1120.96,-538 1145.58,-538"/>
<polygon fill="black" stroke="black" points="1145.65,-541.5 1155.65,-538 1145.65,-534.5 1145.65,-541.5"/>
<text text-anchor="middle" x="1105.5" y="-544.8" font-family="Times,serif" font-size="14.00">Declaration</text>
</g>
<!-- d4 -->
<!-- d5 -->
<!-- d4&#45;&gt;d5 -->
<g id="edge27" class="edge">
<title>d4&#45;&gt;d5</title>
<path fill="none" stroke="blue" d="M912.6,-538C925.22,-538 991.38,-538 1019.18,-538"/>
<polygon fill="blue" stroke="blue" points="1019.34,-541.5 1029.34,-538 1019.34,-534.5 1019.34,-541.5"/>
<text text-anchor="middle" x="971" y="-544.8" font-family="Times,serif" font-size="14.00">PHI Data flow</text>
</g>
<!-- d6 -->
<!-- d7 -->
<!-- d6&#45;&gt;d7 -->
<g id="edge28" class="edge">
<title>d6&#45;&gt;d7</title>
<path fill="none" stroke="green" d="M775.5,-538C787.44,-538 849.8,-538 876.43,-538"/>
<polygon fill="green" stroke="green" points="876.45,-541.5 886.45,-538 876.45,-534.5 876.45,-541.5"/>
<text text-anchor="middle" x="831" y="-544.8" font-family="Times,serif" font-size="14.00">Memory flow</text>
</g>
</g>
</svg>
