<?xml version="1.0" encoding="UTF-8" standalone="no"?>
<!DOCTYPE svg PUBLIC "-//W3C//DTD SVG 1.1//EN"
 "http://www.w3.org/Graphics/SVG/1.1/DTD/svg11.dtd">
<!-- Generated by graphviz version 2.43.0 (0)
 -->
<!-- Title: %3 Pages: 1 -->
<svg width="1634pt" height="589pt"
 viewBox="0.00 0.00 1633.50 589.00" xmlns="http://www.w3.org/2000/svg" xmlns:xlink="http://www.w3.org/1999/xlink">
<g id="graph0" class="graph" transform="scale(1 1) rotate(0) translate(4 585)">
<title>%3</title>
<polygon fill="white" stroke="transparent" points="-4,4 -4,-585 1629.5,-585 1629.5,4 -4,4"/>
<g id="clust1" class="cluster">
<title>cluster_0</title>
<polygon fill="none" stroke="lightgray" points="167.5,-430 167.5,-573 756.5,-573 756.5,-430 167.5,-430"/>
</g>
<g id="clust2" class="cluster">
<title>cluster_000</title>
<polygon fill="none" stroke="black" points="764.5,-528.2 764.5,-570.8 1617.5,-570.8 1617.5,-528.2 764.5,-528.2"/>
<text text-anchor="middle" x="1191" y="-555.6" font-family="Times,serif" font-size="14.00">Legend</text>
</g>
<!-- node0 -->
<g id="node1" class="node">
<title>node0</title>
<polygon fill="lightgrey" stroke="transparent" points="485,-565 362,-565 362,-511 485,-511 485,-565"/>
<polygon fill="none" stroke="black" points="362.5,-538 362.5,-565 485.5,-565 485.5,-538 362.5,-538"/>
<text text-anchor="start" x="383.5" y="-547.8" font-family="Times,serif" font-size="14.00">#0 Method</text>
<polygon fill="yellow" stroke="transparent" points="362.5,-511 362.5,-538 485.5,-538 485.5,-511 362.5,-511"/>
<polygon fill="none" stroke="black" points="362.5,-511 362.5,-538 485.5,-538 485.5,-511 362.5,-511"/>
<text text-anchor="start" x="368.5" y="-520.8" font-family="Times,serif" font-size="14.00">this : ArrayTest</text>
</g>
<!-- node10 -->
<g id="node2" class="node">
<title>node10</title>
<polygon fill="lightgreen" stroke="black" points="748.69,-448.54 748.69,-463.46 714.02,-474 664.98,-474 630.31,-463.46 630.31,-448.54 664.98,-438 714.02,-438 748.69,-448.54"/>
<text text-anchor="middle" x="689.5" y="-452.3" font-family="Times,serif" font-size="14.00">#10 int 1</text>
</g>
<!-- node0&#45;&gt;node10 -->
<g id="edge1" class="edge">
<title>node0&#45;&gt;node10</title>
<path fill="none" stroke="black" stroke-dasharray="1,5" d="M485.19,-518.45C531.9,-504.4 595.25,-485.35 638.97,-472.2"/>
<polygon fill="black" stroke="black" points="640.24,-475.47 648.81,-469.24 638.23,-468.77 640.24,-475.47"/>
</g>
<!-- node4 -->
<g id="node4" class="node">
<title>node4</title>
<polygon fill="orange" stroke="black" points="661.2,-375.54 661.2,-390.46 584.64,-401 476.36,-401 399.8,-390.46 399.8,-375.54 476.36,-365 584.64,-365 661.2,-375.54"/>
<text text-anchor="middle" x="530.5" y="-379.3" font-family="Times,serif" font-size="14.00">#4 NewArray : double[]</text>
</g>
<!-- node0&#45;&gt;node4 -->
<g id="edge14" class="edge">
<title>node0&#45;&gt;node4</title>
<path fill="none" stroke="green" d="M361.9,-532.39C268.35,-523.15 107.29,-497.16 166.5,-430 181.98,-412.44 299.78,-399.87 397.24,-392.36"/>
<polygon fill="green" stroke="green" points="397.8,-395.83 407.5,-391.58 397.27,-388.85 397.8,-395.83"/>
</g>
<!-- node8 -->
<g id="node6" class="node">
<title>node8</title>
<polygon fill="lightgreen" stroke="black" points="476.02,-448.54 476.02,-463.46 445.26,-474 401.74,-474 370.98,-463.46 370.98,-448.54 401.74,-438 445.26,-438 476.02,-448.54"/>
<text text-anchor="middle" x="423.5" y="-452.3" font-family="Times,serif" font-size="14.00">#8 int 0</text>
</g>
<!-- node0&#45;&gt;node8 -->
<g id="edge18" class="edge">
<title>node0&#45;&gt;node8</title>
<path fill="none" stroke="black" stroke-dasharray="1,5" d="M423.5,-510.81C423.5,-502.35 423.5,-492.95 423.5,-484.4"/>
<polygon fill="black" stroke="black" points="427,-484.17 423.5,-474.17 420,-484.17 427,-484.17"/>
</g>
<!-- node6 -->
<g id="node7" class="node">
<title>node6</title>
<polygon fill="lightgreen" stroke="black" points="353.28,-448.54 353.28,-463.46 301.27,-474 227.73,-474 175.72,-463.46 175.72,-448.54 227.73,-438 301.27,-438 353.28,-448.54"/>
<text text-anchor="middle" x="264.5" y="-452.3" font-family="Times,serif" font-size="14.00">#6 double 10.0</text>
</g>
<!-- node0&#45;&gt;node6 -->
<g id="edge17" class="edge">
<title>node0&#45;&gt;node6</title>
<path fill="none" stroke="black" stroke-dasharray="1,5" d="M371.44,-510.81C350.8,-500.42 327.34,-488.62 307.67,-478.72"/>
<polygon fill="black" stroke="black" points="309.14,-475.54 298.63,-474.17 305.99,-481.8 309.14,-475.54"/>
</g>
<!-- node2 -->
<g id="node9" class="node">
<title>node2</title>
<polygon fill="lightgrey" stroke="black" points="119,-474 0,-474 0,-438 119,-438 119,-474"/>
<text text-anchor="middle" x="59.5" y="-452.3" font-family="Times,serif" font-size="14.00">#2 LabelNode</text>
</g>
<!-- node0&#45;&gt;node2 -->
<g id="edge12" class="edge">
<title>node0&#45;&gt;node2</title>
<path fill="none" stroke="red" d="M361.9,-535.53C298.79,-532.34 198.7,-522.56 117.5,-493 108.34,-489.67 99.08,-484.76 90.73,-479.63"/>
<polygon fill="red" stroke="red" points="92.37,-476.53 82.07,-474.05 88.58,-482.41 92.37,-476.53"/>
</g>
<!-- node7 -->
<g id="node10" class="node">
<title>node7</title>
<polygon fill="lightgreen" stroke="black" points="612.69,-448.54 612.69,-463.46 578.02,-474 528.98,-474 494.31,-463.46 494.31,-448.54 528.98,-438 578.02,-438 612.69,-448.54"/>
<text text-anchor="middle" x="553.5" y="-452.3" font-family="Times,serif" font-size="14.00">#7 int 10</text>
</g>
<!-- node0&#45;&gt;node7 -->
<g id="edge15" class="edge">
<title>node0&#45;&gt;node7</title>
<path fill="none" stroke="black" stroke-dasharray="1,5" d="M466.07,-510.81C482.94,-500.42 502.1,-488.63 518.18,-478.73"/>
<polygon fill="black" stroke="black" points="520.08,-481.67 526.77,-473.45 516.41,-475.71 520.08,-481.67"/>
</g>
<!-- node11 -->
<g id="node3" class="node">
<title>node11</title>
<polygon fill="lightgrey" stroke="black" points="745,-255 558,-255 558,-219 745,-219 745,-255"/>
<text text-anchor="middle" x="651.5" y="-233.3" font-family="Times,serif" font-size="14.00">#11 ArrayLoad : double</text>
</g>
<!-- node10&#45;&gt;node11 -->
<g id="edge3" class="edge">
<title>node10&#45;&gt;node11</title>
<path fill="none" stroke="black" d="M688.39,-437.7C686.02,-405.07 679.42,-332.39 664.5,-273 663.83,-270.32 663.02,-267.57 662.14,-264.83"/>
<polygon fill="black" stroke="black" points="665.37,-263.48 658.75,-255.21 658.77,-265.8 665.37,-263.48"/>
<text text-anchor="middle" x="672.74" y="-265.79" font-family="Times,serif" font-size="14.00">*1</text>
</g>
<!-- node12 -->
<g id="node12" class="node">
<title>node12</title>
<polygon fill="lightgrey" stroke="black" points="715.5,-182 587.5,-182 587.5,-146 715.5,-146 715.5,-182"/>
<text text-anchor="middle" x="651.5" y="-160.3" font-family="Times,serif" font-size="14.00">#12 LabelNode</text>
</g>
<!-- node11&#45;&gt;node12 -->
<g id="edge19" class="edge">
<title>node11&#45;&gt;node12</title>
<path fill="none" stroke="red" d="M651.5,-218.81C651.5,-210.79 651.5,-201.05 651.5,-192.07"/>
<polygon fill="red" stroke="red" points="655,-192.03 651.5,-182.03 648,-192.03 655,-192.03"/>
</g>
<!-- node14 -->
<g id="node14" class="node">
<title>node14</title>
<polygon fill="lightgrey" stroke="black" points="702,-36 601,-36 601,0 702,0 702,-36"/>
<text text-anchor="middle" x="651.5" y="-14.3" font-family="Times,serif" font-size="14.00">#14 Return</text>
</g>
<!-- node11&#45;&gt;node14 -->
<g id="edge22" class="edge">
<title>node11&#45;&gt;node14</title>
<path fill="none" stroke="green" d="M687.26,-218.93C701.59,-210.07 716.55,-197.77 724.5,-182 746.31,-138.74 746.31,-116.26 724.5,-73 718.1,-60.31 707.16,-49.87 695.67,-41.66"/>
<polygon fill="green" stroke="green" points="697.53,-38.69 687.26,-36.07 693.66,-44.52 697.53,-38.69"/>
</g>
<!-- node4&#45;&gt;node11 -->
<g id="edge2" class="edge">
<title>node4&#45;&gt;node11</title>
<path fill="none" stroke="black" d="M582.67,-364.97C600.95,-356.56 620.02,-344.56 632.5,-328 645.98,-310.12 650.4,-284.81 651.63,-265.59"/>
<polygon fill="black" stroke="black" points="655.14,-265.48 652.03,-255.35 648.14,-265.2 655.14,-265.48"/>
<text text-anchor="middle" x="659.77" y="-270.09" font-family="Times,serif" font-size="14.00">*0</text>
</g>
<!-- node9 -->
<g id="node5" class="node">
<title>node9</title>
<polygon fill="lightgrey" stroke="black" points="420,-328 227,-328 227,-292 420,-292 420,-328"/>
<text text-anchor="middle" x="323.5" y="-306.3" font-family="Times,serif" font-size="14.00">#9 ArrayStore : double[]</text>
</g>
<!-- node4&#45;&gt;node9 -->
<g id="edge6" class="edge">
<title>node4&#45;&gt;node9</title>
<path fill="none" stroke="black" d="M475.33,-365.08C444.79,-354.98 407.07,-342.08 376.83,-331.41"/>
<polygon fill="black" stroke="black" points="377.89,-328.07 367.3,-328.03 375.55,-334.67 377.89,-328.07"/>
<text text-anchor="middle" x="387.2" y="-322.42" font-family="Times,serif" font-size="14.00">*0</text>
</g>
<!-- node4&#45;&gt;node9 -->
<g id="edge9" class="edge">
<title>node4&#45;&gt;node9</title>
<path fill="none" stroke="green" d="M486.78,-364.99C458.37,-354.88 420.89,-341.99 388.97,-331.34"/>
<polygon fill="green" stroke="green" points="389.86,-327.95 379.27,-328.11 387.65,-334.59 389.86,-327.95"/>
</g>
<!-- node5 -->
<g id="node11" class="node">
<title>node5</title>
<polygon fill="orange" stroke="black" points="623.22,-302.54 623.22,-317.46 568.91,-328 492.09,-328 437.78,-317.46 437.78,-302.54 492.09,-292 568.91,-292 623.22,-302.54"/>
<text text-anchor="middle" x="530.5" y="-306.3" font-family="Times,serif" font-size="14.00">#5 ArrayLength</text>
</g>
<!-- node4&#45;&gt;node5 -->
<g id="edge16" class="edge">
<title>node4&#45;&gt;node5</title>
<path fill="none" stroke="black" d="M530.5,-364.81C530.5,-356.79 530.5,-347.05 530.5,-338.07"/>
<polygon fill="black" stroke="black" points="534,-338.03 530.5,-328.03 527,-338.03 534,-338.03"/>
<text text-anchor="middle" x="538.95" y="-342.45" font-family="Times,serif" font-size="14.00">*0</text>
</g>
<!-- node9&#45;&gt;node11 -->
<g id="edge4" class="edge">
<title>node9&#45;&gt;node11</title>
<path fill="none" stroke="green" d="M396.2,-291.99C443.51,-281.51 505.64,-268.05 556.79,-257.19"/>
<polygon fill="green" stroke="green" points="557.8,-260.55 566.86,-255.05 556.35,-253.7 557.8,-260.55"/>
</g>
<!-- node9&#45;&gt;node11 -->
<g id="edge5" class="edge">
<title>node9&#45;&gt;node11</title>
<path fill="none" stroke="red" d="M407.92,-291.99C457.35,-281.53 519.47,-268.11 568.62,-257.26"/>
<polygon fill="red" stroke="red" points="569.58,-260.63 578.59,-255.05 568.07,-253.79 569.58,-260.63"/>
</g>
<!-- node8&#45;&gt;node9 -->
<g id="edge7" class="edge">
<title>node8&#45;&gt;node9</title>
<path fill="none" stroke="black" d="M411.64,-437.92C394.19,-412.8 361.51,-365.73 341.22,-336.51"/>
<polygon fill="black" stroke="black" points="343.93,-334.28 335.35,-328.06 338.18,-338.27 343.93,-334.28"/>
<text text-anchor="middle" x="352.63" y="-334.43" font-family="Times,serif" font-size="14.00">*1</text>
</g>
<!-- node6&#45;&gt;node9 -->
<g id="edge8" class="edge">
<title>node6&#45;&gt;node9</title>
<path fill="none" stroke="black" d="M271.5,-437.92C281.66,-413.12 300.58,-366.95 312.58,-337.66"/>
<polygon fill="black" stroke="black" points="315.96,-338.64 316.51,-328.06 309.48,-335.99 315.96,-338.64"/>
<text text-anchor="middle" x="317.46" y="-344.34" font-family="Times,serif" font-size="14.00">*2</text>
</g>
<!-- node3 -->
<g id="node8" class="node">
<title>node3</title>
<polygon fill="lightgrey" stroke="black" points="229,-401 110,-401 110,-365 229,-365 229,-401"/>
<text text-anchor="middle" x="169.5" y="-379.3" font-family="Times,serif" font-size="14.00">#3 LabelNode</text>
</g>
<!-- node3&#45;&gt;node9 -->
<g id="edge10" class="edge">
<title>node3&#45;&gt;node9</title>
<path fill="none" stroke="red" d="M206.39,-364.99C227.66,-355.19 254.6,-342.77 277.28,-332.31"/>
<polygon fill="red" stroke="red" points="278.76,-335.48 286.38,-328.11 275.83,-329.12 278.76,-335.48"/>
</g>
<!-- node2&#45;&gt;node3 -->
<g id="edge11" class="edge">
<title>node2&#45;&gt;node3</title>
<path fill="none" stroke="red" d="M85.85,-437.99C100.43,-428.58 118.75,-416.76 134.52,-406.57"/>
<polygon fill="red" stroke="red" points="136.48,-409.48 142.99,-401.11 132.69,-403.6 136.48,-409.48"/>
</g>
<!-- node7&#45;&gt;node4 -->
<g id="edge13" class="edge">
<title>node7&#45;&gt;node4</title>
<path fill="none" stroke="black" d="M547.93,-437.81C545.3,-429.7 542.11,-419.84 539.17,-410.78"/>
<polygon fill="black" stroke="black" points="542.43,-409.46 536.02,-401.03 535.77,-411.62 542.43,-409.46"/>
<text text-anchor="middle" x="549.64" y="-411.97" font-family="Times,serif" font-size="14.00">*0</text>
</g>
<!-- node13 -->
<g id="node13" class="node">
<title>node13</title>
<polygon fill="lightgrey" stroke="black" points="715.5,-109 587.5,-109 587.5,-73 715.5,-73 715.5,-109"/>
<text text-anchor="middle" x="651.5" y="-87.3" font-family="Times,serif" font-size="14.00">#13 LabelNode</text>
</g>
<!-- node12&#45;&gt;node13 -->
<g id="edge20" class="edge">
<title>node12&#45;&gt;node13</title>
<path fill="none" stroke="red" d="M651.5,-145.81C651.5,-137.79 651.5,-128.05 651.5,-119.07"/>
<polygon fill="red" stroke="red" points="655,-119.03 651.5,-109.03 648,-119.03 655,-119.03"/>
</g>
<!-- node13&#45;&gt;node14 -->
<g id="edge21" class="edge">
<title>node13&#45;&gt;node14</title>
<path fill="none" stroke="red" d="M651.5,-72.81C651.5,-64.79 651.5,-55.05 651.5,-46.07"/>
<polygon fill="red" stroke="red" points="655,-46.03 651.5,-36.03 648,-46.03 655,-46.03"/>
</g>
<!-- c0 -->
<!-- c1 -->
<!-- c0&#45;&gt;c1 -->
<g id="edge23" class="edge">
<title>c0&#45;&gt;c1</title>
<path fill="none" stroke="red" d="M1500.39,-538C1511.61,-538 1569.74,-538 1595.36,-538"/>
<polygon fill="red" stroke="red" points="1595.56,-541.5 1605.56,-538 1595.56,-534.5 1595.56,-541.5"/>
<text text-anchor="middle" x="1553" y="-544.8" font-family="Times,serif" font-size="14.00">Control flow</text>
</g>
<!-- c2 -->
<!-- c3 -->
<!-- c2&#45;&gt;c3 -->
<g id="edge24" class="edge">
<title>c2&#45;&gt;c3</title>
<path fill="none" stroke="red" stroke-dasharray="5,2" d="M1293.58,-538C1310.55,-538 1426.71,-538 1464.58,-538"/>
<polygon fill="red" stroke="red" points="1464.67,-541.5 1474.67,-538 1464.67,-534.5 1464.67,-541.5"/>
<text text-anchor="middle" x="1384" y="-544.8" font-family="Times,serif" font-size="14.00">Control flow back edge</text>
</g>
<!-- d0 -->
<!-- d1 -->
<!-- d0&#45;&gt;d1 -->
<g id="edge25" class="edge">
<title>d0&#45;&gt;d1</title>
<path fill="none" stroke="black" d="M1182.36,-538C1191.91,-538 1235.81,-538 1257.42,-538"/>
<polygon fill="black" stroke="black" points="1257.65,-541.5 1267.65,-538 1257.65,-534.5 1257.65,-541.5"/>
<text text-anchor="middle" x="1225" y="-544.8" font-family="Times,serif" font-size="14.00">Data flow</text>
</g>
<!-- d2 -->
<!-- d3 -->
<!-- d2&#45;&gt;d3 -->
<g id="edge26" class="edge">
<title>d2&#45;&gt;d3</title>
<path fill="none" stroke="black" stroke-dasharray="1,5" d="M1056.31,-538C1066.96,-538 1121.96,-538 1146.58,-538"/>
<polygon fill="black" stroke="black" points="1146.65,-541.5 1156.65,-538 1146.65,-534.5 1146.65,-541.5"/>
<text text-anchor="middle" x="1106.5" y="-544.8" font-family="Times,serif" font-size="14.00">Declaration</text>
</g>
<!-- d4 -->
<!-- d5 -->
<!-- d4&#45;&gt;d5 -->
<g id="edge27" class="edge">
<title>d4&#45;&gt;d5</title>
<path fill="none" stroke="blue" d="M913.6,-538C926.22,-538 992.38,-538 1020.18,-538"/>
<polygon fill="blue" stroke="blue" points="1020.34,-541.5 1030.34,-538 1020.34,-534.5 1020.34,-541.5"/>
<text text-anchor="middle" x="972" y="-544.8" font-family="Times,serif" font-size="14.00">PHI Data flow</text>
</g>
<!-- d6 -->
<!-- d7 -->
<!-- d6&#45;&gt;d7 -->
<g id="edge28" class="edge">
<title>d6&#45;&gt;d7</title>
<path fill="none" stroke="green" d="M776.5,-538C788.44,-538 850.8,-538 877.43,-538"/>
<polygon fill="green" stroke="green" points="877.45,-541.5 887.45,-538 877.45,-534.5 877.45,-541.5"/>
<text text-anchor="middle" x="832" y="-544.8" font-family="Times,serif" font-size="14.00">Memory flow</text>
</g>
</g>
</svg>
