<?xml version="1.0" encoding="UTF-8" standalone="no"?>
<!DOCTYPE svg PUBLIC "-//W3C//DTD SVG 1.1//EN"
 "http://www.w3.org/Graphics/SVG/1.1/DTD/svg11.dtd">
<!-- Generated by graphviz version 2.43.0 (0)
 -->
<!-- Title: %3 Pages: 1 -->
<svg width="1424pt" height="587pt"
 viewBox="0.00 0.00 1424.00 586.80" xmlns="http://www.w3.org/2000/svg" xmlns:xlink="http://www.w3.org/1999/xlink">
<g id="graph0" class="graph" transform="scale(1 1) rotate(0) translate(4 582.8)">
<title>%3</title>
<polygon fill="white" stroke="transparent" points="-4,4 -4,-582.8 1420,-582.8 1420,4 -4,4"/>
<g id="clust1" class="cluster">
<title>cluster_0</title>
<polygon fill="none" stroke="lightgray" points="226,-138 226,-263 436,-263 436,-138 226,-138"/>
</g>
<g id="clust2" class="cluster">
<title>cluster_1</title>
<polygon fill="none" stroke="lightgray" points="416,-357 416,-482 552,-482 552,-357 416,-357"/>
</g>
<g id="clust3" class="cluster">
<title>cluster_2</title>
<polygon fill="none" stroke="lightgray" points="8,-284 8,-409 325,-409 325,-284 8,-284"/>
</g>
<g id="clust4" class="cluster">
<title>cluster_000</title>
<polygon fill="none" stroke="black" points="555,-528.2 555,-570.8 1408,-570.8 1408,-528.2 555,-528.2"/>
<text text-anchor="middle" x="981.5" y="-555.6" font-family="Times,serif" font-size="14.00">Legend</text>
</g>
<!-- node0 -->
<g id="node1" class="node">
<title>node0</title>
<polygon fill="lightgrey" stroke="transparent" points="545.5,-565 422.5,-565 422.5,-511 545.5,-511 545.5,-565"/>
<polygon fill="none" stroke="black" points="423,-538 423,-565 546,-565 546,-538 423,-538"/>
<text text-anchor="start" x="444" y="-547.8" font-family="Times,serif" font-size="14.00">#0 Method</text>
<polygon fill="yellow" stroke="transparent" points="423,-511 423,-538 546,-538 546,-511 423,-511"/>
<polygon fill="none" stroke="black" points="423,-511 423,-538 546,-538 546,-511 423,-511"/>
<text text-anchor="start" x="429" y="-520.8" font-family="Times,serif" font-size="14.00">this : ArrayTest</text>
</g>
<!-- node5 -->
<g id="node2" class="node">
<title>node5</title>
<polygon fill="orange" stroke="black" points="634.7,-302.54 634.7,-317.46 558.14,-328 449.86,-328 373.3,-317.46 373.3,-302.54 449.86,-292 558.14,-292 634.7,-302.54"/>
<text text-anchor="middle" x="504" y="-306.3" font-family="Times,serif" font-size="14.00">#5 NewArray : double[]</text>
</g>
<!-- node0&#45;&gt;node5 -->
<g id="edge2" class="edge">
<title>node0&#45;&gt;node5</title>
<path fill="none" stroke="green" d="M436.61,-510.75C426.7,-502.88 417.58,-493.28 412,-482 387.37,-432.2 382.79,-404.26 412,-357 418.31,-346.79 427.64,-338.78 437.98,-332.5"/>
<polygon fill="green" stroke="green" points="439.77,-335.51 446.85,-327.63 436.4,-329.37 439.77,-335.51"/>
</g>
<!-- node2 -->
<g id="node4" class="node">
<title>node2</title>
<polygon fill="lightgrey" stroke="black" points="543.5,-474 424.5,-474 424.5,-438 543.5,-438 543.5,-474"/>
<text text-anchor="middle" x="484" y="-452.3" font-family="Times,serif" font-size="14.00">#2 LabelNode</text>
</g>
<!-- node0&#45;&gt;node2 -->
<g id="edge4" class="edge">
<title>node0&#45;&gt;node2</title>
<path fill="none" stroke="red" d="M484,-510.81C484,-502.35 484,-492.95 484,-484.4"/>
<polygon fill="red" stroke="red" points="487.5,-484.17 484,-474.17 480.5,-484.17 487.5,-484.17"/>
</g>
<!-- node8 -->
<g id="node7" class="node">
<title>node8</title>
<polygon fill="lightgrey" stroke="black" points="427.5,-255 234.5,-255 234.5,-219 427.5,-219 427.5,-255"/>
<text text-anchor="middle" x="331" y="-233.3" font-family="Times,serif" font-size="14.00">#8 ArrayStore : double[]</text>
</g>
<!-- node5&#45;&gt;node8 -->
<g id="edge7" class="edge">
<title>node5&#45;&gt;node8</title>
<path fill="none" stroke="black" d="M456.7,-291.99C431.65,-282.14 401.1,-269.66 376.35,-259.17"/>
<polygon fill="black" stroke="black" points="377.4,-255.81 366.83,-255.11 374.66,-262.25 377.4,-255.81"/>
<text text-anchor="middle" x="386.82" y="-250.74" font-family="Times,serif" font-size="14.00">*0</text>
</g>
<!-- node5&#45;&gt;node8 -->
<g id="edge10" class="edge">
<title>node5&#45;&gt;node8</title>
<path fill="none" stroke="green" d="M468.42,-291.99C445.26,-282.06 414.63,-269.43 388.12,-258.89"/>
<polygon fill="green" stroke="green" points="389.16,-255.54 378.57,-255.11 386.58,-262.05 389.16,-255.54"/>
</g>
<!-- node12 -->
<g id="node12" class="node">
<title>node12</title>
<polygon fill="lightgrey" stroke="black" points="515.5,-109 328.5,-109 328.5,-73 515.5,-73 515.5,-109"/>
<text text-anchor="middle" x="422" y="-87.3" font-family="Times,serif" font-size="14.00">#12 ArrayLoad : double</text>
</g>
<!-- node5&#45;&gt;node12 -->
<g id="edge17" class="edge">
<title>node5&#45;&gt;node12</title>
<path fill="none" stroke="black" d="M491.45,-291.76C485.81,-283.39 479.44,-273.01 475,-263 451.59,-210.27 458.31,-192.71 440,-138 437.89,-131.7 435.41,-125.01 432.98,-118.73"/>
<polygon fill="black" stroke="black" points="436.19,-117.33 429.25,-109.32 429.68,-119.91 436.19,-117.33"/>
<text text-anchor="middle" x="443.79" y="-119.36" font-family="Times,serif" font-size="14.00">*0</text>
</g>
<!-- node9 -->
<g id="node14" class="node">
<title>node9</title>
<polygon fill="orange" stroke="black" points="669.72,-229.54 669.72,-244.46 615.41,-255 538.59,-255 484.28,-244.46 484.28,-229.54 538.59,-219 615.41,-219 669.72,-229.54"/>
<text text-anchor="middle" x="577" y="-233.3" font-family="Times,serif" font-size="14.00">#9 ArrayLength</text>
</g>
<!-- node5&#45;&gt;node9 -->
<g id="edge21" class="edge">
<title>node5&#45;&gt;node9</title>
<path fill="none" stroke="black" d="M521.67,-291.81C530.82,-282.92 542.14,-271.91 552.15,-262.17"/>
<polygon fill="black" stroke="black" points="554.76,-264.51 559.49,-255.03 549.88,-259.49 554.76,-264.51"/>
<text text-anchor="middle" x="552.39" y="-270.03" font-family="Times,serif" font-size="14.00">*0</text>
</g>
<!-- node4 -->
<g id="node3" class="node">
<title>node4</title>
<polygon fill="lightgreen" stroke="black" points="544.19,-375.54 544.19,-390.46 509.52,-401 460.48,-401 425.81,-390.46 425.81,-375.54 460.48,-365 509.52,-365 544.19,-375.54"/>
<text text-anchor="middle" x="485" y="-379.3" font-family="Times,serif" font-size="14.00">#4 int 10</text>
</g>
<!-- node4&#45;&gt;node5 -->
<g id="edge1" class="edge">
<title>node4&#45;&gt;node5</title>
<path fill="none" stroke="black" d="M489.6,-364.81C491.77,-356.7 494.41,-346.84 496.83,-337.78"/>
<polygon fill="black" stroke="black" points="500.24,-338.59 499.44,-328.03 493.48,-336.78 500.24,-338.59"/>
<text text-anchor="middle" x="502.92" y="-344.02" font-family="Times,serif" font-size="14.00">*0</text>
</g>
<!-- node2&#45;&gt;node4 -->
<g id="edge3" class="edge">
<title>node2&#45;&gt;node4</title>
<path fill="none" stroke="black" stroke-dasharray="1,5" d="M484.24,-437.81C484.36,-429.79 484.49,-420.05 484.62,-411.07"/>
<polygon fill="black" stroke="black" points="488.12,-411.08 484.76,-401.03 481.12,-410.98 488.12,-411.08"/>
</g>
<!-- node3 -->
<g id="node5" class="node">
<title>node3</title>
<polygon fill="lightgrey" stroke="black" points="308.5,-401 189.5,-401 189.5,-365 308.5,-365 308.5,-401"/>
<text text-anchor="middle" x="249" y="-379.3" font-family="Times,serif" font-size="14.00">#3 LabelNode</text>
</g>
<!-- node2&#45;&gt;node3 -->
<g id="edge5" class="edge">
<title>node2&#45;&gt;node3</title>
<path fill="none" stroke="red" d="M427.71,-437.99C393.95,-427.79 350.84,-414.77 315.42,-404.07"/>
<polygon fill="red" stroke="red" points="316.23,-400.66 305.64,-401.11 314.2,-407.36 316.23,-400.66"/>
</g>
<!-- node7 -->
<g id="node6" class="node">
<title>node7</title>
<polygon fill="lightgreen" stroke="black" points="121.52,-302.54 121.52,-317.46 90.76,-328 47.24,-328 16.48,-317.46 16.48,-302.54 47.24,-292 90.76,-292 121.52,-302.54"/>
<text text-anchor="middle" x="69" y="-306.3" font-family="Times,serif" font-size="14.00">#7 int 0</text>
</g>
<!-- node3&#45;&gt;node7 -->
<g id="edge6" class="edge">
<title>node3&#45;&gt;node7</title>
<path fill="none" stroke="black" stroke-dasharray="1,5" d="M205.89,-364.99C177.42,-353.76 140.26,-339.11 111.85,-327.9"/>
<polygon fill="black" stroke="black" points="112.78,-324.51 102.19,-324.09 110.21,-331.02 112.78,-324.51"/>
</g>
<!-- node3&#45;&gt;node8 -->
<g id="edge11" class="edge">
<title>node3&#45;&gt;node8</title>
<path fill="none" stroke="red" d="M286.65,-364.9C301.55,-356.1 317.19,-343.84 326,-328 336.6,-308.93 337.14,-283.94 335.43,-265.13"/>
<polygon fill="red" stroke="red" points="338.9,-264.66 334.26,-255.13 331.94,-265.47 338.9,-264.66"/>
</g>
<!-- node6 -->
<g id="node8" class="node">
<title>node6</title>
<polygon fill="lightgreen" stroke="black" points="316.78,-302.54 316.78,-317.46 264.77,-328 191.23,-328 139.22,-317.46 139.22,-302.54 191.23,-292 264.77,-292 316.78,-302.54"/>
<text text-anchor="middle" x="228" y="-306.3" font-family="Times,serif" font-size="14.00">#6 double 10.0</text>
</g>
<!-- node3&#45;&gt;node6 -->
<g id="edge12" class="edge">
<title>node3&#45;&gt;node6</title>
<path fill="none" stroke="black" stroke-dasharray="1,5" d="M243.92,-364.81C241.52,-356.7 238.6,-346.84 235.92,-337.78"/>
<polygon fill="black" stroke="black" points="239.23,-336.63 233.04,-328.03 232.52,-338.61 239.23,-336.63"/>
</g>
<!-- node7&#45;&gt;node8 -->
<g id="edge8" class="edge">
<title>node7&#45;&gt;node8</title>
<path fill="none" stroke="black" d="M99.98,-295.15C109.49,-291.22 120.07,-287.15 130,-284 162.78,-273.61 199.26,-264.54 232.05,-257.26"/>
<polygon fill="black" stroke="black" points="233.08,-260.62 242.1,-255.06 231.58,-253.78 233.08,-260.62"/>
<text text-anchor="middle" x="226.2" y="-263.5" font-family="Times,serif" font-size="14.00">*1</text>
</g>
<!-- node10 -->
<g id="node9" class="node">
<title>node10</title>
<polygon fill="lightgrey" stroke="black" points="218,-182 90,-182 90,-146 218,-146 218,-182"/>
<text text-anchor="middle" x="154" y="-160.3" font-family="Times,serif" font-size="14.00">#10 LabelNode</text>
</g>
<!-- node8&#45;&gt;node10 -->
<g id="edge13" class="edge">
<title>node8&#45;&gt;node10</title>
<path fill="none" stroke="red" d="M288.6,-218.99C263.83,-209.06 232.36,-196.43 206.09,-185.89"/>
<polygon fill="red" stroke="red" points="207.25,-182.59 196.66,-182.11 204.64,-189.08 207.25,-182.59"/>
</g>
<!-- node8&#45;&gt;node12 -->
<g id="edge19" class="edge">
<title>node8&#45;&gt;node12</title>
<path fill="none" stroke="green" d="M360.54,-218.86C374.12,-209.57 389.33,-196.93 399,-182 411.23,-163.13 416.96,-138.12 419.64,-119.26"/>
<polygon fill="green" stroke="green" points="423.13,-119.57 420.87,-109.22 416.18,-118.72 423.13,-119.57"/>
</g>
<!-- node11 -->
<g id="node13" class="node">
<title>node11</title>
<polygon fill="lightgreen" stroke="black" points="390.19,-156.54 390.19,-171.46 355.52,-182 306.48,-182 271.81,-171.46 271.81,-156.54 306.48,-146 355.52,-146 390.19,-156.54"/>
<text text-anchor="middle" x="331" y="-160.3" font-family="Times,serif" font-size="14.00">#11 int 1</text>
</g>
<!-- node8&#45;&gt;node11 -->
<g id="edge20" class="edge">
<title>node8&#45;&gt;node11</title>
<path fill="none" stroke="black" stroke-dasharray="1,5" d="M331,-218.81C331,-210.79 331,-201.05 331,-192.07"/>
<polygon fill="black" stroke="black" points="334.5,-192.03 331,-182.03 327.5,-192.03 334.5,-192.03"/>
</g>
<!-- node6&#45;&gt;node8 -->
<g id="edge9" class="edge">
<title>node6&#45;&gt;node8</title>
<path fill="none" stroke="black" d="M252.67,-291.99C266.2,-282.67 283.16,-270.97 297.84,-260.86"/>
<polygon fill="black" stroke="black" points="299.93,-263.67 306.17,-255.11 295.95,-257.91 299.93,-263.67"/>
<text text-anchor="middle" x="296.05" y="-268.66" font-family="Times,serif" font-size="14.00">*2</text>
</g>
<!-- node13 -->
<g id="node10" class="node">
<title>node13</title>
<polygon fill="lightgrey" stroke="black" points="218,-109 90,-109 90,-73 218,-73 218,-109"/>
<text text-anchor="middle" x="154" y="-87.3" font-family="Times,serif" font-size="14.00">#13 LabelNode</text>
</g>
<!-- node10&#45;&gt;node13 -->
<g id="edge14" class="edge">
<title>node10&#45;&gt;node13</title>
<path fill="none" stroke="red" d="M154,-145.81C154,-137.79 154,-128.05 154,-119.07"/>
<polygon fill="red" stroke="red" points="157.5,-119.03 154,-109.03 150.5,-119.03 157.5,-119.03"/>
</g>
<!-- node14 -->
<g id="node11" class="node">
<title>node14</title>
<polygon fill="lightgrey" stroke="black" points="204.5,-36 103.5,-36 103.5,0 204.5,0 204.5,-36"/>
<text text-anchor="middle" x="154" y="-14.3" font-family="Times,serif" font-size="14.00">#14 Return</text>
</g>
<!-- node13&#45;&gt;node14 -->
<g id="edge15" class="edge">
<title>node13&#45;&gt;node14</title>
<path fill="none" stroke="red" d="M154,-72.81C154,-64.79 154,-55.05 154,-46.07"/>
<polygon fill="red" stroke="red" points="157.5,-46.03 154,-36.03 150.5,-46.03 157.5,-46.03"/>
</g>
<!-- node12&#45;&gt;node14 -->
<g id="edge16" class="edge">
<title>node12&#45;&gt;node14</title>
<path fill="none" stroke="green" d="M357.81,-72.99C314.28,-61.46 257.11,-46.32 214.4,-35"/>
<polygon fill="green" stroke="green" points="215.26,-31.61 204.7,-32.43 213.47,-38.38 215.26,-31.61"/>
</g>
<!-- node11&#45;&gt;node12 -->
<g id="edge18" class="edge">
<title>node11&#45;&gt;node12</title>
<path fill="none" stroke="black" d="M353.03,-145.81C364.77,-136.66 379.37,-125.26 392.12,-115.32"/>
<polygon fill="black" stroke="black" points="394.44,-117.94 400.17,-109.03 390.14,-112.42 394.44,-117.94"/>
<text text-anchor="middle" x="391.08" y="-123.14" font-family="Times,serif" font-size="14.00">*1</text>
</g>
<!-- c0 -->
<!-- c1 -->
<!-- c0&#45;&gt;c1 -->
<g id="edge22" class="edge">
<title>c0&#45;&gt;c1</title>
<path fill="none" stroke="red" d="M1290.89,-538C1302.11,-538 1360.24,-538 1385.86,-538"/>
<polygon fill="red" stroke="red" points="1386.06,-541.5 1396.06,-538 1386.06,-534.5 1386.06,-541.5"/>
<text text-anchor="middle" x="1343.5" y="-544.8" font-family="Times,serif" font-size="14.00">Control flow</text>
</g>
<!-- c2 -->
<!-- c3 -->
<!-- c2&#45;&gt;c3 -->
<g id="edge23" class="edge">
<title>c2&#45;&gt;c3</title>
<path fill="none" stroke="red" stroke-dasharray="5,2" d="M1084.08,-538C1101.05,-538 1217.21,-538 1255.08,-538"/>
<polygon fill="red" stroke="red" points="1255.17,-541.5 1265.17,-538 1255.17,-534.5 1255.17,-541.5"/>
<text text-anchor="middle" x="1174.5" y="-544.8" font-family="Times,serif" font-size="14.00">Control flow back edge</text>
</g>
<!-- d0 -->
<!-- d1 -->
<!-- d0&#45;&gt;d1 -->
<g id="edge24" class="edge">
<title>d0&#45;&gt;d1</title>
<path fill="none" stroke="black" d="M972.86,-538C982.41,-538 1026.31,-538 1047.92,-538"/>
<polygon fill="black" stroke="black" points="1048.15,-541.5 1058.15,-538 1048.15,-534.5 1048.15,-541.5"/>
<text text-anchor="middle" x="1015.5" y="-544.8" font-family="Times,serif" font-size="14.00">Data flow</text>
</g>
<!-- d2 -->
<!-- d3 -->
<!-- d2&#45;&gt;d3 -->
<g id="edge25" class="edge">
<title>d2&#45;&gt;d3</title>
<path fill="none" stroke="black" stroke-dasharray="1,5" d="M846.81,-538C857.46,-538 912.46,-538 937.08,-538"/>
<polygon fill="black" stroke="black" points="937.15,-541.5 947.15,-538 937.15,-534.5 937.15,-541.5"/>
<text text-anchor="middle" x="897" y="-544.8" font-family="Times,serif" font-size="14.00">Declaration</text>
</g>
<!-- d4 -->
<!-- d5 -->
<!-- d4&#45;&gt;d5 -->
<g id="edge26" class="edge">
<title>d4&#45;&gt;d5</title>
<path fill="none" stroke="blue" d="M704.1,-538C716.72,-538 782.88,-538 810.68,-538"/>
<polygon fill="blue" stroke="blue" points="810.84,-541.5 820.84,-538 810.84,-534.5 810.84,-541.5"/>
<text text-anchor="middle" x="762.5" y="-544.8" font-family="Times,serif" font-size="14.00">PHI Data flow</text>
</g>
<!-- d6 -->
<!-- d7 -->
<!-- d6&#45;&gt;d7 -->
<g id="edge27" class="edge">
<title>d6&#45;&gt;d7</title>
<path fill="none" stroke="green" d="M567,-538C578.94,-538 641.3,-538 667.93,-538"/>
<polygon fill="green" stroke="green" points="667.95,-541.5 677.95,-538 667.95,-534.5 667.95,-541.5"/>
<text text-anchor="middle" x="622.5" y="-544.8" font-family="Times,serif" font-size="14.00">Memory flow</text>
</g>
</g>
</svg>
