<?xml version="1.0" encoding="UTF-8" standalone="no"?>
<!DOCTYPE svg PUBLIC "-//W3C//DTD SVG 1.1//EN"
 "http://www.w3.org/Graphics/SVG/1.1/DTD/svg11.dtd">
<!-- Generated by graphviz version 2.43.0 (0)
 -->
<!-- Title: %3 Pages: 1 -->
<svg width="1621pt" height="589pt"
 viewBox="0.00 0.00 1620.50 589.00" xmlns="http://www.w3.org/2000/svg" xmlns:xlink="http://www.w3.org/1999/xlink">
<g id="graph0" class="graph" transform="scale(1 1) rotate(0) translate(4 585)">
<title>%3</title>
<polygon fill="white" stroke="transparent" points="-4,4 -4,-585 1616.5,-585 1616.5,4 -4,4"/>
<g id="clust1" class="cluster">
<title>cluster_0</title>
<polygon fill="none" stroke="lightgray" points="167.5,-430 167.5,-573 743.5,-573 743.5,-430 167.5,-430"/>
</g>
<g id="clust2" class="cluster">
<title>cluster_000</title>
<polygon fill="none" stroke="black" points="751.5,-528.2 751.5,-570.8 1604.5,-570.8 1604.5,-528.2 751.5,-528.2"/>
<text text-anchor="middle" x="1178" y="-555.6" font-family="Times,serif" font-size="14.00">Legend</text>
</g>
<!-- node0 -->
<g id="node1" class="node">
<title>node0</title>
<polygon fill="lightgrey" stroke="transparent" points="426,-565 303,-565 303,-511 426,-511 426,-565"/>
<polygon fill="none" stroke="black" points="303.5,-538 303.5,-565 426.5,-565 426.5,-538 303.5,-538"/>
<text text-anchor="start" x="324.5" y="-547.8" font-family="Times,serif" font-size="14.00">#0 Method</text>
<polygon fill="yellow" stroke="transparent" points="303.5,-511 303.5,-538 426.5,-538 426.5,-511 303.5,-511"/>
<polygon fill="none" stroke="black" points="303.5,-511 303.5,-538 426.5,-538 426.5,-511 303.5,-511"/>
<text text-anchor="start" x="309.5" y="-520.8" font-family="Times,serif" font-size="14.00">this : ArrayTest</text>
</g>
<!-- node2 -->
<g id="node2" class="node">
<title>node2</title>
<polygon fill="lightgrey" stroke="black" points="119,-474 0,-474 0,-438 119,-438 119,-474"/>
<text text-anchor="middle" x="59.5" y="-452.3" font-family="Times,serif" font-size="14.00">#2 LabelNode</text>
</g>
<!-- node0&#45;&gt;node2 -->
<g id="edge1" class="edge">
<title>node0&#45;&gt;node2</title>
<path fill="none" stroke="red" d="M302.78,-520.81C252.41,-507.6 181.28,-488.94 128.93,-475.21"/>
<polygon fill="red" stroke="red" points="129.61,-471.77 119.05,-472.62 127.84,-478.54 129.61,-471.77"/>
</g>
<!-- node6 -->
<g id="node5" class="node">
<title>node6</title>
<polygon fill="orange" stroke="black" points="320.2,-375.54 320.2,-390.46 243.64,-401 135.36,-401 58.8,-390.46 58.8,-375.54 135.36,-365 243.64,-365 320.2,-375.54"/>
<text text-anchor="middle" x="189.5" y="-379.3" font-family="Times,serif" font-size="14.00">#6 NewArray : double[]</text>
</g>
<!-- node0&#45;&gt;node6 -->
<g id="edge9" class="edge">
<title>node0&#45;&gt;node6</title>
<path fill="none" stroke="green" d="M302.85,-519.29C246.32,-502.76 170.74,-479.8 166.5,-474 152.84,-455.32 161.72,-429.3 172.17,-410.04"/>
<polygon fill="green" stroke="green" points="175.31,-411.59 177.33,-401.19 169.27,-408.06 175.31,-411.59"/>
</g>
<!-- node7 -->
<g id="node6" class="node">
<title>node7</title>
<polygon fill="lightgreen" stroke="black" points="417.02,-448.54 417.02,-463.46 386.26,-474 342.74,-474 311.98,-463.46 311.98,-448.54 342.74,-438 386.26,-438 417.02,-448.54"/>
<text text-anchor="middle" x="364.5" y="-452.3" font-family="Times,serif" font-size="14.00">#7 int 0</text>
</g>
<!-- node0&#45;&gt;node7 -->
<g id="edge22" class="edge">
<title>node0&#45;&gt;node7</title>
<path fill="none" stroke="black" stroke-dasharray="1,5" d="M364.5,-510.81C364.5,-502.35 364.5,-492.95 364.5,-484.4"/>
<polygon fill="black" stroke="black" points="368,-484.17 364.5,-474.17 361,-484.17 368,-484.17"/>
</g>
<!-- node3 -->
<g id="node7" class="node">
<title>node3</title>
<polygon fill="lightgreen" stroke="black" points="612.28,-448.54 612.28,-463.46 560.27,-474 486.73,-474 434.72,-463.46 434.72,-448.54 486.73,-438 560.27,-438 612.28,-448.54"/>
<text text-anchor="middle" x="523.5" y="-452.3" font-family="Times,serif" font-size="14.00">#3 double 10.0</text>
</g>
<!-- node0&#45;&gt;node3 -->
<g id="edge21" class="edge">
<title>node0&#45;&gt;node3</title>
<path fill="none" stroke="black" stroke-dasharray="1,5" d="M416.56,-510.81C437.2,-500.42 460.66,-488.62 480.33,-478.72"/>
<polygon fill="black" stroke="black" points="482.01,-481.8 489.37,-474.17 478.86,-475.54 482.01,-481.8"/>
</g>
<!-- node5 -->
<g id="node8" class="node">
<title>node5</title>
<polygon fill="lightgreen" stroke="black" points="293.69,-448.54 293.69,-463.46 259.02,-474 209.98,-474 175.31,-463.46 175.31,-448.54 209.98,-438 259.02,-438 293.69,-448.54"/>
<text text-anchor="middle" x="234.5" y="-452.3" font-family="Times,serif" font-size="14.00">#5 int 10</text>
</g>
<!-- node0&#45;&gt;node5 -->
<g id="edge10" class="edge">
<title>node0&#45;&gt;node5</title>
<path fill="none" stroke="black" stroke-dasharray="1,5" d="M321.93,-510.81C305.06,-500.42 285.9,-488.63 269.82,-478.73"/>
<polygon fill="black" stroke="black" points="271.59,-475.71 261.23,-473.45 267.92,-481.67 271.59,-475.71"/>
</g>
<!-- node4 -->
<g id="node10" class="node">
<title>node4</title>
<polygon fill="lightgreen" stroke="black" points="735.02,-448.54 735.02,-463.46 704.26,-474 660.74,-474 629.98,-463.46 629.98,-448.54 660.74,-438 704.26,-438 735.02,-448.54"/>
<text text-anchor="middle" x="682.5" y="-452.3" font-family="Times,serif" font-size="14.00">#4 int 1</text>
</g>
<!-- node0&#45;&gt;node4 -->
<g id="edge15" class="edge">
<title>node0&#45;&gt;node4</title>
<path fill="none" stroke="black" stroke-dasharray="1,5" d="M426.17,-522.46C478.32,-510.02 554.95,-491.43 621.5,-474 625.34,-472.99 629.31,-471.94 633.29,-470.86"/>
<polygon fill="black" stroke="black" points="634.45,-474.17 643.17,-468.16 632.6,-467.42 634.45,-474.17"/>
</g>
<!-- node8 -->
<g id="node3" class="node">
<title>node8</title>
<polygon fill="lightgrey" stroke="black" points="457,-401 338,-401 338,-365 457,-365 457,-401"/>
<text text-anchor="middle" x="397.5" y="-379.3" font-family="Times,serif" font-size="14.00">#8 LabelNode</text>
</g>
<!-- node2&#45;&gt;node8 -->
<g id="edge2" class="edge">
<title>node2&#45;&gt;node8</title>
<path fill="none" stroke="red" d="M119.03,-440.01C133.54,-436.54 149.04,-433 163.5,-430 233.68,-415.45 254.47,-416.42 327.67,-401.31"/>
<polygon fill="red" stroke="red" points="328.78,-404.65 337.85,-399.17 327.35,-397.8 328.78,-404.65"/>
</g>
<!-- node9 -->
<g id="node4" class="node">
<title>node9</title>
<polygon fill="lightgrey" stroke="black" points="552,-328 359,-328 359,-292 552,-292 552,-328"/>
<text text-anchor="middle" x="455.5" y="-306.3" font-family="Times,serif" font-size="14.00">#9 ArrayStore : double[]</text>
</g>
<!-- node8&#45;&gt;node9 -->
<g id="edge7" class="edge">
<title>node8&#45;&gt;node9</title>
<path fill="none" stroke="red" d="M411.54,-364.81C418.59,-356.18 427.27,-345.56 435.05,-336.03"/>
<polygon fill="red" stroke="red" points="437.97,-337.99 441.59,-328.03 432.55,-333.56 437.97,-337.99"/>
</g>
<!-- node10 -->
<g id="node9" class="node">
<title>node10</title>
<polygon fill="lightgrey" stroke="black" points="549,-255 362,-255 362,-219 549,-219 549,-255"/>
<text text-anchor="middle" x="455.5" y="-233.3" font-family="Times,serif" font-size="14.00">#10 ArrayLoad : double</text>
</g>
<!-- node9&#45;&gt;node10 -->
<g id="edge13" class="edge">
<title>node9&#45;&gt;node10</title>
<path fill="none" stroke="green" d="M449.62,-291.81C448.78,-283.79 448.55,-274.05 448.92,-265.07"/>
<polygon fill="green" stroke="green" points="452.42,-265.25 449.64,-255.03 445.44,-264.75 452.42,-265.25"/>
</g>
<!-- node9&#45;&gt;node10 -->
<g id="edge14" class="edge">
<title>node9&#45;&gt;node10</title>
<path fill="none" stroke="red" d="M461.38,-291.81C462.22,-283.79 462.45,-274.05 462.08,-265.07"/>
<polygon fill="red" stroke="red" points="465.56,-264.75 461.36,-255.03 458.58,-265.25 465.56,-264.75"/>
</g>
<!-- node6&#45;&gt;node9 -->
<g id="edge3" class="edge">
<title>node6&#45;&gt;node9</title>
<path fill="none" stroke="black" d="M253.36,-366.22C277.58,-360.54 305.34,-353.83 330.5,-347 348.27,-342.18 367.42,-336.45 385.29,-331.01"/>
<polygon fill="black" stroke="black" points="386.53,-334.29 395.07,-328.02 384.48,-327.59 386.53,-334.29"/>
<text text-anchor="middle" x="380.2" y="-337.7" font-family="Times,serif" font-size="14.00">*0</text>
</g>
<!-- node6&#45;&gt;node9 -->
<g id="edge6" class="edge">
<title>node6&#45;&gt;node9</title>
<path fill="none" stroke="green" d="M263.83,-367.68C290.73,-361.7 321.14,-354.43 348.5,-347 366.11,-342.22 385.06,-336.56 402.1,-331.16"/>
<polygon fill="green" stroke="green" points="403.43,-334.41 411.88,-328.02 401.29,-327.74 403.43,-334.41"/>
</g>
<!-- node6&#45;&gt;node10 -->
<g id="edge11" class="edge">
<title>node6&#45;&gt;node10</title>
<path fill="none" stroke="black" d="M226.64,-364.94C247.77,-354.86 274.53,-341.46 297.5,-328 322.07,-313.6 326.02,-306.54 350.5,-292 369.74,-280.58 391.66,-269.08 410.47,-259.65"/>
<polygon fill="black" stroke="black" points="412.04,-262.78 419.44,-255.19 408.92,-256.51 412.04,-262.78"/>
<text text-anchor="middle" x="406.97" y="-267.13" font-family="Times,serif" font-size="14.00">*0</text>
</g>
<!-- node11 -->
<g id="node14" class="node">
<title>node11</title>
<polygon fill="orange" stroke="black" points="288.89,-302.54 288.89,-317.46 230.67,-328 148.33,-328 90.11,-317.46 90.11,-302.54 148.33,-292 230.67,-292 288.89,-302.54"/>
<text text-anchor="middle" x="189.5" y="-306.3" font-family="Times,serif" font-size="14.00">#11 ArrayLength</text>
</g>
<!-- node6&#45;&gt;node11 -->
<g id="edge20" class="edge">
<title>node6&#45;&gt;node11</title>
<path fill="none" stroke="black" d="M189.5,-364.81C189.5,-356.79 189.5,-347.05 189.5,-338.07"/>
<polygon fill="black" stroke="black" points="193,-338.03 189.5,-328.03 186,-338.03 193,-338.03"/>
<text text-anchor="middle" x="197.95" y="-342.45" font-family="Times,serif" font-size="14.00">*0</text>
</g>
<!-- node7&#45;&gt;node9 -->
<g id="edge4" class="edge">
<title>node7&#45;&gt;node9</title>
<path fill="none" stroke="black" d="M397.7,-441.85C424.39,-430.53 458.67,-414 466.5,-401 477.92,-382.02 473.47,-356.72 467.13,-337.77"/>
<polygon fill="black" stroke="black" points="470.37,-336.42 463.62,-328.25 463.8,-338.84 470.37,-336.42"/>
<text text-anchor="middle" x="477.83" y="-338.63" font-family="Times,serif" font-size="14.00">*1</text>
</g>
<!-- node3&#45;&gt;node9 -->
<g id="edge5" class="edge">
<title>node3&#45;&gt;node9</title>
<path fill="none" stroke="black" d="M523.2,-437.81C522.07,-415.14 517.45,-374.77 499.5,-346 497.05,-342.07 494,-338.4 490.65,-335.02"/>
<polygon fill="black" stroke="black" points="492.75,-332.2 482.98,-328.12 488.07,-337.41 492.75,-332.2"/>
<text text-anchor="middle" x="502.11" y="-330.26" font-family="Times,serif" font-size="14.00">*2</text>
</g>
<!-- node5&#45;&gt;node6 -->
<g id="edge8" class="edge">
<title>node5&#45;&gt;node6</title>
<path fill="none" stroke="black" d="M223.61,-437.81C218.25,-429.35 211.67,-418.98 205.73,-409.61"/>
<polygon fill="black" stroke="black" points="208.6,-407.6 200.29,-401.03 202.69,-411.35 208.6,-407.6"/>
<text text-anchor="middle" x="217.14" y="-408.11" font-family="Times,serif" font-size="14.00">*0</text>
</g>
<!-- node14 -->
<g id="node11" class="node">
<title>node14</title>
<polygon fill="lightgrey" stroke="black" points="506,-36 405,-36 405,0 506,0 506,-36"/>
<text text-anchor="middle" x="455.5" y="-14.3" font-family="Times,serif" font-size="14.00">#14 Return</text>
</g>
<!-- node10&#45;&gt;node14 -->
<g id="edge17" class="edge">
<title>node10&#45;&gt;node14</title>
<path fill="none" stroke="green" d="M419.74,-218.93C405.41,-210.07 390.45,-197.77 382.5,-182 360.69,-138.74 360.69,-116.26 382.5,-73 388.9,-60.31 399.84,-49.87 411.33,-41.66"/>
<polygon fill="green" stroke="green" points="413.34,-44.52 419.74,-36.07 409.47,-38.69 413.34,-44.52"/>
</g>
<!-- node12 -->
<g id="node13" class="node">
<title>node12</title>
<polygon fill="lightgrey" stroke="black" points="519.5,-182 391.5,-182 391.5,-146 519.5,-146 519.5,-182"/>
<text text-anchor="middle" x="455.5" y="-160.3" font-family="Times,serif" font-size="14.00">#12 LabelNode</text>
</g>
<!-- node10&#45;&gt;node12 -->
<g id="edge19" class="edge">
<title>node10&#45;&gt;node12</title>
<path fill="none" stroke="red" d="M455.5,-218.81C455.5,-210.79 455.5,-201.05 455.5,-192.07"/>
<polygon fill="red" stroke="red" points="459,-192.03 455.5,-182.03 452,-192.03 459,-192.03"/>
</g>
<!-- node4&#45;&gt;node10 -->
<g id="edge12" class="edge">
<title>node4&#45;&gt;node10</title>
<path fill="none" stroke="black" d="M673.28,-437.72C655.4,-405.53 613.18,-335.68 561.5,-292 545.99,-278.89 526.75,-267.88 508.93,-259.29"/>
<polygon fill="black" stroke="black" points="510.32,-256.08 499.78,-255.03 507.36,-262.42 510.32,-256.08"/>
<text text-anchor="middle" x="519.78" y="-251.32" font-family="Times,serif" font-size="14.00">*1</text>
</g>
<!-- node13 -->
<g id="node12" class="node">
<title>node13</title>
<polygon fill="lightgrey" stroke="black" points="519.5,-109 391.5,-109 391.5,-73 519.5,-73 519.5,-109"/>
<text text-anchor="middle" x="455.5" y="-87.3" font-family="Times,serif" font-size="14.00">#13 LabelNode</text>
</g>
<!-- node13&#45;&gt;node14 -->
<g id="edge16" class="edge">
<title>node13&#45;&gt;node14</title>
<path fill="none" stroke="red" d="M455.5,-72.81C455.5,-64.79 455.5,-55.05 455.5,-46.07"/>
<polygon fill="red" stroke="red" points="459,-46.03 455.5,-36.03 452,-46.03 459,-46.03"/>
</g>
<!-- node12&#45;&gt;node13 -->
<g id="edge18" class="edge">
<title>node12&#45;&gt;node13</title>
<path fill="none" stroke="red" d="M455.5,-145.81C455.5,-137.79 455.5,-128.05 455.5,-119.07"/>
<polygon fill="red" stroke="red" points="459,-119.03 455.5,-109.03 452,-119.03 459,-119.03"/>
</g>
<!-- c0 -->
<!-- c1 -->
<!-- c0&#45;&gt;c1 -->
<g id="edge23" class="edge">
<title>c0&#45;&gt;c1</title>
<path fill="none" stroke="red" d="M1487.39,-538C1498.61,-538 1556.74,-538 1582.36,-538"/>
<polygon fill="red" stroke="red" points="1582.56,-541.5 1592.56,-538 1582.56,-534.5 1582.56,-541.5"/>
<text text-anchor="middle" x="1540" y="-544.8" font-family="Times,serif" font-size="14.00">Control flow</text>
</g>
<!-- c2 -->
<!-- c3 -->
<!-- c2&#45;&gt;c3 -->
<g id="edge24" class="edge">
<title>c2&#45;&gt;c3</title>
<path fill="none" stroke="red" stroke-dasharray="5,2" d="M1280.58,-538C1297.55,-538 1413.71,-538 1451.58,-538"/>
<polygon fill="red" stroke="red" points="1451.67,-541.5 1461.67,-538 1451.67,-534.5 1451.67,-541.5"/>
<text text-anchor="middle" x="1371" y="-544.8" font-family="Times,serif" font-size="14.00">Control flow back edge</text>
</g>
<!-- d0 -->
<!-- d1 -->
<!-- d0&#45;&gt;d1 -->
<g id="edge25" class="edge">
<title>d0&#45;&gt;d1</title>
<path fill="none" stroke="black" d="M1169.36,-538C1178.91,-538 1222.81,-538 1244.42,-538"/>
<polygon fill="black" stroke="black" points="1244.65,-541.5 1254.65,-538 1244.65,-534.5 1244.65,-541.5"/>
<text text-anchor="middle" x="1212" y="-544.8" font-family="Times,serif" font-size="14.00">Data flow</text>
</g>
<!-- d2 -->
<!-- d3 -->
<!-- d2&#45;&gt;d3 -->
<g id="edge26" class="edge">
<title>d2&#45;&gt;d3</title>
<path fill="none" stroke="black" stroke-dasharray="1,5" d="M1043.31,-538C1053.96,-538 1108.96,-538 1133.58,-538"/>
<polygon fill="black" stroke="black" points="1133.65,-541.5 1143.65,-538 1133.65,-534.5 1133.65,-541.5"/>
<text text-anchor="middle" x="1093.5" y="-544.8" font-family="Times,serif" font-size="14.00">Declaration</text>
</g>
<!-- d4 -->
<!-- d5 -->
<!-- d4&#45;&gt;d5 -->
<g id="edge27" class="edge">
<title>d4&#45;&gt;d5</title>
<path fill="none" stroke="blue" d="M900.6,-538C913.22,-538 979.38,-538 1007.18,-538"/>
<polygon fill="blue" stroke="blue" points="1007.34,-541.5 1017.34,-538 1007.34,-534.5 1007.34,-541.5"/>
<text text-anchor="middle" x="959" y="-544.8" font-family="Times,serif" font-size="14.00">PHI Data flow</text>
</g>
<!-- d6 -->
<!-- d7 -->
<!-- d6&#45;&gt;d7 -->
<g id="edge28" class="edge">
<title>d6&#45;&gt;d7</title>
<path fill="none" stroke="green" d="M763.5,-538C775.44,-538 837.8,-538 864.43,-538"/>
<polygon fill="green" stroke="green" points="864.45,-541.5 874.45,-538 864.45,-534.5 864.45,-541.5"/>
<text text-anchor="middle" x="819" y="-544.8" font-family="Times,serif" font-size="14.00">Memory flow</text>
</g>
</g>
</svg>
