<?xml version="1.0" encoding="UTF-8" standalone="no"?>
<!DOCTYPE svg PUBLIC "-//W3C//DTD SVG 1.1//EN"
 "http://www.w3.org/Graphics/SVG/1.1/DTD/svg11.dtd">
<!-- Generated by graphviz version 2.43.0 (0)
 -->
<!-- Title: %3 Pages: 1 -->
<svg width="1634pt" height="589pt"
 viewBox="0.00 0.00 1633.50 589.00" xmlns="http://www.w3.org/2000/svg" xmlns:xlink="http://www.w3.org/1999/xlink">
<g id="graph0" class="graph" transform="scale(1 1) rotate(0) translate(4 585)">
<title>%3</title>
<polygon fill="white" stroke="transparent" points="-4,4 -4,-585 1629.5,-585 1629.5,4 -4,4"/>
<g id="clust1" class="cluster">
<title>cluster_0</title>
<polygon fill="none" stroke="lightgray" points="167.5,-430 167.5,-573 756.5,-573 756.5,-430 167.5,-430"/>
</g>
<g id="clust2" class="cluster">
<title>cluster_000</title>
<polygon fill="none" stroke="black" points="764.5,-528.2 764.5,-570.8 1617.5,-570.8 1617.5,-528.2 764.5,-528.2"/>
<text text-anchor="middle" x="1191" y="-555.6" font-family="Times,serif" font-size="14.00">Legend</text>
</g>
<!-- node0 -->
<g id="node1" class="node">
<title>node0</title>
<polygon fill="lightgrey" stroke="transparent" points="426,-565 303,-565 303,-511 426,-511 426,-565"/>
<polygon fill="none" stroke="black" points="303.5,-538 303.5,-565 426.5,-565 426.5,-538 303.5,-538"/>
<text text-anchor="start" x="324.5" y="-547.8" font-family="Times,serif" font-size="14.00">#0 Method</text>
<polygon fill="yellow" stroke="transparent" points="303.5,-511 303.5,-538 426.5,-538 426.5,-511 303.5,-511"/>
<polygon fill="none" stroke="black" points="303.5,-511 303.5,-538 426.5,-538 426.5,-511 303.5,-511"/>
<text text-anchor="start" x="309.5" y="-520.8" font-family="Times,serif" font-size="14.00">this : ArrayTest</text>
</g>
<!-- node6 -->
<g id="node2" class="node">
<title>node6</title>
<polygon fill="lightgreen" stroke="black" points="612.28,-448.54 612.28,-463.46 560.27,-474 486.73,-474 434.72,-463.46 434.72,-448.54 486.73,-438 560.27,-438 612.28,-448.54"/>
<text text-anchor="middle" x="523.5" y="-452.3" font-family="Times,serif" font-size="14.00">#6 double 10.0</text>
</g>
<!-- node0&#45;&gt;node6 -->
<g id="edge1" class="edge">
<title>node0&#45;&gt;node6</title>
<path fill="none" stroke="black" stroke-dasharray="1,5" d="M416.56,-510.81C437.2,-500.42 460.66,-488.62 480.33,-478.72"/>
<polygon fill="black" stroke="black" points="482.01,-481.8 489.37,-474.17 478.86,-475.54 482.01,-481.8"/>
</g>
<!-- node4 -->
<g id="node4" class="node">
<title>node4</title>
<polygon fill="orange" stroke="black" points="320.2,-375.54 320.2,-390.46 243.64,-401 135.36,-401 58.8,-390.46 58.8,-375.54 135.36,-365 243.64,-365 320.2,-375.54"/>
<text text-anchor="middle" x="189.5" y="-379.3" font-family="Times,serif" font-size="14.00">#4 NewArray : double[]</text>
</g>
<!-- node0&#45;&gt;node4 -->
<g id="edge10" class="edge">
<title>node0&#45;&gt;node4</title>
<path fill="none" stroke="green" d="M302.99,-535.6C257.21,-530.93 197.48,-516.37 166.5,-474 152.84,-455.32 161.72,-429.3 172.17,-410.04"/>
<polygon fill="green" stroke="green" points="175.31,-411.59 177.33,-401.19 169.27,-408.06 175.31,-411.59"/>
</g>
<!-- node8 -->
<g id="node5" class="node">
<title>node8</title>
<polygon fill="lightgreen" stroke="black" points="417.02,-448.54 417.02,-463.46 386.26,-474 342.74,-474 311.98,-463.46 311.98,-448.54 342.74,-438 386.26,-438 417.02,-448.54"/>
<text text-anchor="middle" x="364.5" y="-452.3" font-family="Times,serif" font-size="14.00">#8 int 0</text>
</g>
<!-- node0&#45;&gt;node8 -->
<g id="edge22" class="edge">
<title>node0&#45;&gt;node8</title>
<path fill="none" stroke="black" stroke-dasharray="1,5" d="M364.5,-510.81C364.5,-502.35 364.5,-492.95 364.5,-484.4"/>
<polygon fill="black" stroke="black" points="368,-484.17 364.5,-474.17 361,-484.17 368,-484.17"/>
</g>
<!-- node2 -->
<g id="node7" class="node">
<title>node2</title>
<polygon fill="lightgrey" stroke="black" points="119,-474 0,-474 0,-438 119,-438 119,-474"/>
<text text-anchor="middle" x="59.5" y="-452.3" font-family="Times,serif" font-size="14.00">#2 LabelNode</text>
</g>
<!-- node0&#45;&gt;node2 -->
<g id="edge8" class="edge">
<title>node0&#45;&gt;node2</title>
<path fill="none" stroke="red" d="M302.88,-532.53C251.83,-527.32 178.1,-516.22 117.5,-493 108.48,-489.54 99.32,-484.64 91.03,-479.56"/>
<polygon fill="red" stroke="red" points="92.73,-476.49 82.42,-474.03 88.95,-482.38 92.73,-476.49"/>
</g>
<!-- node7 -->
<g id="node8" class="node">
<title>node7</title>
<polygon fill="lightgreen" stroke="black" points="293.69,-448.54 293.69,-463.46 259.02,-474 209.98,-474 175.31,-463.46 175.31,-448.54 209.98,-438 259.02,-438 293.69,-448.54"/>
<text text-anchor="middle" x="234.5" y="-452.3" font-family="Times,serif" font-size="14.00">#7 int 10</text>
</g>
<!-- node0&#45;&gt;node7 -->
<g id="edge11" class="edge">
<title>node0&#45;&gt;node7</title>
<path fill="none" stroke="black" stroke-dasharray="1,5" d="M321.93,-510.81C305.06,-500.42 285.9,-488.63 269.82,-478.73"/>
<polygon fill="black" stroke="black" points="271.59,-475.71 261.23,-473.45 267.92,-481.67 271.59,-475.71"/>
</g>
<!-- node10 -->
<g id="node10" class="node">
<title>node10</title>
<polygon fill="lightgreen" stroke="black" points="748.69,-448.54 748.69,-463.46 714.02,-474 664.98,-474 630.31,-463.46 630.31,-448.54 664.98,-438 714.02,-438 748.69,-448.54"/>
<text text-anchor="middle" x="689.5" y="-452.3" font-family="Times,serif" font-size="14.00">#10 int 1</text>
</g>
<!-- node0&#45;&gt;node10 -->
<g id="edge16" class="edge">
<title>node0&#45;&gt;node10</title>
<path fill="none" stroke="black" stroke-dasharray="1,5" d="M426.05,-521.99C478.13,-509.28 554.72,-490.53 621.5,-474 626.06,-472.87 630.79,-471.7 635.53,-470.52"/>
<polygon fill="black" stroke="black" points="636.39,-473.91 645.25,-468.09 634.7,-467.12 636.39,-473.91"/>
</g>
<!-- node9 -->
<g id="node3" class="node">
<title>node9</title>
<polygon fill="lightgrey" stroke="black" points="537,-328 344,-328 344,-292 537,-292 537,-328"/>
<text text-anchor="middle" x="440.5" y="-306.3" font-family="Times,serif" font-size="14.00">#9 ArrayStore : double[]</text>
</g>
<!-- node6&#45;&gt;node9 -->
<g id="edge4" class="edge">
<title>node6&#45;&gt;node9</title>
<path fill="none" stroke="black" d="M518.38,-437.7C511.25,-415.27 496.84,-375.53 476.5,-346 474.05,-342.45 471.2,-338.96 468.2,-335.64"/>
<polygon fill="black" stroke="black" points="470.52,-333.01 461.04,-328.27 465.5,-337.88 470.52,-333.01"/>
<text text-anchor="middle" x="479.74" y="-331.68" font-family="Times,serif" font-size="14.00">*2</text>
</g>
<!-- node11 -->
<g id="node9" class="node">
<title>node11</title>
<polygon fill="lightgrey" stroke="black" points="534,-255 347,-255 347,-219 534,-219 534,-255"/>
<text text-anchor="middle" x="440.5" y="-233.3" font-family="Times,serif" font-size="14.00">#11 ArrayLoad : double</text>
</g>
<!-- node9&#45;&gt;node11 -->
<g id="edge14" class="edge">
<title>node9&#45;&gt;node11</title>
<path fill="none" stroke="green" d="M434.62,-291.81C433.78,-283.79 433.55,-274.05 433.92,-265.07"/>
<polygon fill="green" stroke="green" points="437.42,-265.25 434.64,-255.03 430.44,-264.75 437.42,-265.25"/>
</g>
<!-- node9&#45;&gt;node11 -->
<g id="edge15" class="edge">
<title>node9&#45;&gt;node11</title>
<path fill="none" stroke="red" d="M446.38,-291.81C447.22,-283.79 447.45,-274.05 447.08,-265.07"/>
<polygon fill="red" stroke="red" points="450.56,-264.75 446.36,-255.03 443.58,-265.25 450.56,-264.75"/>
</g>
<!-- node4&#45;&gt;node9 -->
<g id="edge2" class="edge">
<title>node4&#45;&gt;node9</title>
<path fill="none" stroke="black" d="M249.93,-365.76C272.18,-360.14 297.5,-353.6 320.5,-347 337.27,-342.19 355.31,-336.54 372.22,-331.17"/>
<polygon fill="black" stroke="black" points="373.56,-334.41 382.03,-328.04 371.44,-327.74 373.56,-334.41"/>
<text text-anchor="middle" x="367.32" y="-337.9" font-family="Times,serif" font-size="14.00">*0</text>
</g>
<!-- node4&#45;&gt;node9 -->
<g id="edge5" class="edge">
<title>node4&#45;&gt;node9</title>
<path fill="none" stroke="green" d="M260.51,-367.32C285.38,-361.37 313.33,-354.22 338.5,-347 355.11,-342.24 372.98,-336.65 389.08,-331.32"/>
<polygon fill="green" stroke="green" points="390.49,-334.54 398.85,-328.04 388.26,-327.9 390.49,-334.54"/>
</g>
<!-- node4&#45;&gt;node11 -->
<g id="edge12" class="edge">
<title>node4&#45;&gt;node11</title>
<path fill="none" stroke="black" d="M225.9,-364.94C245.83,-355.06 270.64,-341.86 291.5,-328 312.55,-314.02 314.37,-305.85 335.5,-292 353.68,-280.08 374.83,-268.76 393.35,-259.6"/>
<polygon fill="black" stroke="black" points="395.04,-262.67 402.49,-255.15 391.97,-256.38 395.04,-262.67"/>
<text text-anchor="middle" x="389.9" y="-266.99" font-family="Times,serif" font-size="14.00">*0</text>
</g>
<!-- node5 -->
<g id="node14" class="node">
<title>node5</title>
<polygon fill="orange" stroke="black" points="282.22,-302.54 282.22,-317.46 227.91,-328 151.09,-328 96.78,-317.46 96.78,-302.54 151.09,-292 227.91,-292 282.22,-302.54"/>
<text text-anchor="middle" x="189.5" y="-306.3" font-family="Times,serif" font-size="14.00">#5 ArrayLength</text>
</g>
<!-- node4&#45;&gt;node5 -->
<g id="edge21" class="edge">
<title>node4&#45;&gt;node5</title>
<path fill="none" stroke="black" d="M189.5,-364.81C189.5,-356.79 189.5,-347.05 189.5,-338.07"/>
<polygon fill="black" stroke="black" points="193,-338.03 189.5,-328.03 186,-338.03 193,-338.03"/>
<text text-anchor="middle" x="197.95" y="-342.45" font-family="Times,serif" font-size="14.00">*0</text>
</g>
<!-- node8&#45;&gt;node9 -->
<g id="edge3" class="edge">
<title>node8&#45;&gt;node9</title>
<path fill="none" stroke="black" d="M397.7,-441.85C424.39,-430.53 458.67,-414 466.5,-401 478.4,-381.24 469.14,-355.76 458.51,-336.96"/>
<polygon fill="black" stroke="black" points="461.45,-335.05 453.27,-328.32 455.46,-338.68 461.45,-335.05"/>
<text text-anchor="middle" x="469.89" y="-335.73" font-family="Times,serif" font-size="14.00">*1</text>
</g>
<!-- node3 -->
<g id="node6" class="node">
<title>node3</title>
<polygon fill="lightgrey" stroke="black" points="457,-401 338,-401 338,-365 457,-365 457,-401"/>
<text text-anchor="middle" x="397.5" y="-379.3" font-family="Times,serif" font-size="14.00">#3 LabelNode</text>
</g>
<!-- node3&#45;&gt;node9 -->
<g id="edge6" class="edge">
<title>node3&#45;&gt;node9</title>
<path fill="none" stroke="red" d="M407.91,-364.81C413.03,-356.35 419.31,-345.98 424.99,-336.61"/>
<polygon fill="red" stroke="red" points="428,-338.4 430.19,-328.03 422.01,-334.77 428,-338.4"/>
</g>
<!-- node2&#45;&gt;node3 -->
<g id="edge7" class="edge">
<title>node2&#45;&gt;node3</title>
<path fill="none" stroke="red" d="M119.03,-440.01C133.54,-436.54 149.04,-433 163.5,-430 233.68,-415.45 254.47,-416.42 327.67,-401.31"/>
<polygon fill="red" stroke="red" points="328.78,-404.65 337.85,-399.17 327.35,-397.8 328.78,-404.65"/>
</g>
<!-- node7&#45;&gt;node4 -->
<g id="edge9" class="edge">
<title>node7&#45;&gt;node4</title>
<path fill="none" stroke="black" d="M223.61,-437.81C218.25,-429.35 211.67,-418.98 205.73,-409.61"/>
<polygon fill="black" stroke="black" points="208.6,-407.6 200.29,-401.03 202.69,-411.35 208.6,-407.6"/>
<text text-anchor="middle" x="217.14" y="-408.11" font-family="Times,serif" font-size="14.00">*0</text>
</g>
<!-- node12 -->
<g id="node11" class="node">
<title>node12</title>
<polygon fill="lightgrey" stroke="black" points="504.5,-182 376.5,-182 376.5,-146 504.5,-146 504.5,-182"/>
<text text-anchor="middle" x="440.5" y="-160.3" font-family="Times,serif" font-size="14.00">#12 LabelNode</text>
</g>
<!-- node11&#45;&gt;node12 -->
<g id="edge17" class="edge">
<title>node11&#45;&gt;node12</title>
<path fill="none" stroke="red" d="M440.5,-218.81C440.5,-210.79 440.5,-201.05 440.5,-192.07"/>
<polygon fill="red" stroke="red" points="444,-192.03 440.5,-182.03 437,-192.03 444,-192.03"/>
</g>
<!-- node14 -->
<g id="node13" class="node">
<title>node14</title>
<polygon fill="lightgrey" stroke="black" points="491,-36 390,-36 390,0 491,0 491,-36"/>
<text text-anchor="middle" x="440.5" y="-14.3" font-family="Times,serif" font-size="14.00">#14 Return</text>
</g>
<!-- node11&#45;&gt;node14 -->
<g id="edge20" class="edge">
<title>node11&#45;&gt;node14</title>
<path fill="none" stroke="green" d="M404.74,-218.93C390.41,-210.07 375.45,-197.77 367.5,-182 345.69,-138.74 345.69,-116.26 367.5,-73 373.9,-60.31 384.84,-49.87 396.33,-41.66"/>
<polygon fill="green" stroke="green" points="398.34,-44.52 404.74,-36.07 394.47,-38.69 398.34,-44.52"/>
</g>
<!-- node10&#45;&gt;node11 -->
<g id="edge13" class="edge">
<title>node10&#45;&gt;node11</title>
<path fill="none" stroke="black" d="M677.85,-437.85C655.47,-405.87 603.56,-336.37 546.5,-292 530.12,-279.26 510.26,-268.2 492.19,-259.47"/>
<polygon fill="black" stroke="black" points="493.47,-256.2 482.93,-255.12 490.49,-262.54 493.47,-256.2"/>
<text text-anchor="middle" x="502.93" y="-251.47" font-family="Times,serif" font-size="14.00">*1</text>
</g>
<!-- node13 -->
<g id="node12" class="node">
<title>node13</title>
<polygon fill="lightgrey" stroke="black" points="504.5,-109 376.5,-109 376.5,-73 504.5,-73 504.5,-109"/>
<text text-anchor="middle" x="440.5" y="-87.3" font-family="Times,serif" font-size="14.00">#13 LabelNode</text>
</g>
<!-- node12&#45;&gt;node13 -->
<g id="edge18" class="edge">
<title>node12&#45;&gt;node13</title>
<path fill="none" stroke="red" d="M440.5,-145.81C440.5,-137.79 440.5,-128.05 440.5,-119.07"/>
<polygon fill="red" stroke="red" points="444,-119.03 440.5,-109.03 437,-119.03 444,-119.03"/>
</g>
<!-- node13&#45;&gt;node14 -->
<g id="edge19" class="edge">
<title>node13&#45;&gt;node14</title>
<path fill="none" stroke="red" d="M440.5,-72.81C440.5,-64.79 440.5,-55.05 440.5,-46.07"/>
<polygon fill="red" stroke="red" points="444,-46.03 440.5,-36.03 437,-46.03 444,-46.03"/>
</g>
<!-- c0 -->
<!-- c1 -->
<!-- c0&#45;&gt;c1 -->
<g id="edge23" class="edge">
<title>c0&#45;&gt;c1</title>
<path fill="none" stroke="red" d="M1500.39,-538C1511.61,-538 1569.74,-538 1595.36,-538"/>
<polygon fill="red" stroke="red" points="1595.56,-541.5 1605.56,-538 1595.56,-534.5 1595.56,-541.5"/>
<text text-anchor="middle" x="1553" y="-544.8" font-family="Times,serif" font-size="14.00">Control flow</text>
</g>
<!-- c2 -->
<!-- c3 -->
<!-- c2&#45;&gt;c3 -->
<g id="edge24" class="edge">
<title>c2&#45;&gt;c3</title>
<path fill="none" stroke="red" stroke-dasharray="5,2" d="M1293.58,-538C1310.55,-538 1426.71,-538 1464.58,-538"/>
<polygon fill="red" stroke="red" points="1464.67,-541.5 1474.67,-538 1464.67,-534.5 1464.67,-541.5"/>
<text text-anchor="middle" x="1384" y="-544.8" font-family="Times,serif" font-size="14.00">Control flow back edge</text>
</g>
<!-- d0 -->
<!-- d1 -->
<!-- d0&#45;&gt;d1 -->
<g id="edge25" class="edge">
<title>d0&#45;&gt;d1</title>
<path fill="none" stroke="black" d="M1182.36,-538C1191.91,-538 1235.81,-538 1257.42,-538"/>
<polygon fill="black" stroke="black" points="1257.65,-541.5 1267.65,-538 1257.65,-534.5 1257.65,-541.5"/>
<text text-anchor="middle" x="1225" y="-544.8" font-family="Times,serif" font-size="14.00">Data flow</text>
</g>
<!-- d2 -->
<!-- d3 -->
<!-- d2&#45;&gt;d3 -->
<g id="edge26" class="edge">
<title>d2&#45;&gt;d3</title>
<path fill="none" stroke="black" stroke-dasharray="1,5" d="M1056.31,-538C1066.96,-538 1121.96,-538 1146.58,-538"/>
<polygon fill="black" stroke="black" points="1146.65,-541.5 1156.65,-538 1146.65,-534.5 1146.65,-541.5"/>
<text text-anchor="middle" x="1106.5" y="-544.8" font-family="Times,serif" font-size="14.00">Declaration</text>
</g>
<!-- d4 -->
<!-- d5 -->
<!-- d4&#45;&gt;d5 -->
<g id="edge27" class="edge">
<title>d4&#45;&gt;d5</title>
<path fill="none" stroke="blue" d="M913.6,-538C926.22,-538 992.38,-538 1020.18,-538"/>
<polygon fill="blue" stroke="blue" points="1020.34,-541.5 1030.34,-538 1020.34,-534.5 1020.34,-541.5"/>
<text text-anchor="middle" x="972" y="-544.8" font-family="Times,serif" font-size="14.00">PHI Data flow</text>
</g>
<!-- d6 -->
<!-- d7 -->
<!-- d6&#45;&gt;d7 -->
<g id="edge28" class="edge">
<title>d6&#45;&gt;d7</title>
<path fill="none" stroke="green" d="M776.5,-538C788.44,-538 850.8,-538 877.43,-538"/>
<polygon fill="green" stroke="green" points="877.45,-541.5 887.45,-538 877.45,-534.5 877.45,-541.5"/>
<text text-anchor="middle" x="832" y="-544.8" font-family="Times,serif" font-size="14.00">Memory flow</text>
</g>
</g>
</svg>
