<?xml version="1.0" encoding="UTF-8" standalone="no"?>
<!DOCTYPE svg PUBLIC "-//W3C//DTD SVG 1.1//EN"
 "http://www.w3.org/Graphics/SVG/1.1/DTD/svg11.dtd">
<!-- Generated by graphviz version 2.43.0 (0)
 -->
<!-- Title: debugoutput Pages: 1 -->
<svg width="699pt" height="578pt"
 viewBox="0.00 0.00 699.00 577.80" xmlns="http://www.w3.org/2000/svg" xmlns:xlink="http://www.w3.org/1999/xlink">
<g id="graph0" class="graph" transform="scale(1 1) rotate(0) translate(4 573.8)">
<title>debugoutput</title>
<polygon fill="white" stroke="transparent" points="-4,4 -4,-573.8 695,-573.8 695,4 -4,4"/>
<g id="clust1" class="cluster">
<title>cluster_000</title>
<polygon fill="none" stroke="black" points="224,-519.2 224,-561.8 683,-561.8 683,-519.2 224,-519.2"/>
<text text-anchor="middle" x="453.5" y="-546.6" font-family="Times,serif" font-size="14.00">Legend</text>
</g>
<!-- node0 -->
<g id="node1" class="node">
<title>node0</title>
<polygon fill="lightgrey" stroke="black" points="214,-547 48,-547 48,-511 214,-511 214,-547"/>
<text text-anchor="middle" x="131" y="-525.3" font-family="Times,serif" font-size="14.00">#0 Method Order : 0</text>
</g>
<!-- node1 -->
<g id="node2" class="node">
<title>node1</title>
<polygon fill="lightgrey" stroke="black" points="225,-474 37,-474 37,-438 225,-438 225,-474"/>
<text text-anchor="middle" x="131" y="-452.3" font-family="Times,serif" font-size="14.00">#1 LabelNode Order : 1</text>
</g>
<!-- node0&#45;&gt;node1 -->
<g id="edge2" class="edge">
<title>node0&#45;&gt;node1</title>
<path fill="none" stroke="red" d="M125.12,-510.81C124.28,-502.79 124.05,-493.05 124.42,-484.07"/>
<polygon fill="red" stroke="red" points="127.92,-484.25 125.14,-474.03 120.94,-483.75 127.92,-484.25"/>
</g>
<!-- node1&#45;&gt;node0 -->
<g id="edge1" class="edge">
<title>node1&#45;&gt;node0</title>
<path fill="none" stroke="fuchsia" stroke-width="2" d="M136.86,-474.03C137.71,-482.03 137.95,-491.77 137.59,-500.75"/>
<polygon fill="fuchsia" stroke="fuchsia" stroke-width="2" points="134.09,-500.59 136.88,-510.81 141.07,-501.08 134.09,-500.59"/>
</g>
<!-- node2 -->
<g id="node3" class="node">
<title>node2</title>
<polygon fill="lightgrey" stroke="black" points="225,-401 37,-401 37,-365 225,-365 225,-401"/>
<text text-anchor="middle" x="131" y="-379.3" font-family="Times,serif" font-size="14.00">#2 LabelNode Order : 2</text>
</g>
<!-- node1&#45;&gt;node2 -->
<g id="edge4" class="edge">
<title>node1&#45;&gt;node2</title>
<path fill="none" stroke="red" d="M125.12,-437.81C124.28,-429.79 124.05,-420.05 124.42,-411.07"/>
<polygon fill="red" stroke="red" points="127.92,-411.25 125.14,-401.03 120.94,-410.75 127.92,-411.25"/>
</g>
<!-- node2&#45;&gt;node1 -->
<g id="edge3" class="edge">
<title>node2&#45;&gt;node1</title>
<path fill="none" stroke="fuchsia" stroke-width="2" d="M136.86,-401.03C137.71,-409.03 137.95,-418.77 137.59,-427.75"/>
<polygon fill="fuchsia" stroke="fuchsia" stroke-width="2" points="134.09,-427.59 136.88,-437.81 141.07,-428.08 134.09,-427.59"/>
</g>
<!-- node3 -->
<g id="node4" class="node">
<title>node3</title>
<polygon fill="lightgrey" stroke="black" points="262,-328 0,-328 0,-292 262,-292 262,-328"/>
<text text-anchor="middle" x="131" y="-306.3" font-family="Times,serif" font-size="14.00">#3 ArrayStore : double[] Order : 3</text>
</g>
<!-- node2&#45;&gt;node3 -->
<g id="edge6" class="edge">
<title>node2&#45;&gt;node3</title>
<path fill="none" stroke="red" d="M125.12,-364.81C124.28,-356.79 124.05,-347.05 124.42,-338.07"/>
<polygon fill="red" stroke="red" points="127.92,-338.25 125.14,-328.03 120.94,-337.75 127.92,-338.25"/>
</g>
<!-- node3&#45;&gt;node2 -->
<g id="edge5" class="edge">
<title>node3&#45;&gt;node2</title>
<path fill="none" stroke="fuchsia" stroke-width="2" d="M136.86,-328.03C137.71,-336.03 137.95,-345.77 137.59,-354.75"/>
<polygon fill="fuchsia" stroke="fuchsia" stroke-width="2" points="134.09,-354.59 136.88,-364.81 141.07,-355.08 134.09,-354.59"/>
</g>
<!-- node4 -->
<g id="node5" class="node">
<title>node4</title>
<polygon fill="lightgrey" stroke="black" points="254.5,-255 7.5,-255 7.5,-219 254.5,-219 254.5,-255"/>
<text text-anchor="middle" x="131" y="-233.3" font-family="Times,serif" font-size="14.00">#4 ArrayLoad : double Order : 4</text>
</g>
<!-- node3&#45;&gt;node4 -->
<g id="edge8" class="edge">
<title>node3&#45;&gt;node4</title>
<path fill="none" stroke="red" d="M125.12,-291.81C124.28,-283.79 124.05,-274.05 124.42,-265.07"/>
<polygon fill="red" stroke="red" points="127.92,-265.25 125.14,-255.03 120.94,-264.75 127.92,-265.25"/>
</g>
<!-- node4&#45;&gt;node3 -->
<g id="edge7" class="edge">
<title>node4&#45;&gt;node3</title>
<path fill="none" stroke="fuchsia" stroke-width="2" d="M136.86,-255.03C137.71,-263.03 137.95,-272.77 137.59,-281.75"/>
<polygon fill="fuchsia" stroke="fuchsia" stroke-width="2" points="134.09,-281.59 136.88,-291.81 141.07,-282.08 134.09,-281.59"/>
</g>
<!-- node5 -->
<g id="node6" class="node">
<title>node5</title>
<polygon fill="lightgrey" stroke="black" points="225,-182 37,-182 37,-146 225,-146 225,-182"/>
<text text-anchor="middle" x="131" y="-160.3" font-family="Times,serif" font-size="14.00">#5 LabelNode Order : 5</text>
</g>
<!-- node4&#45;&gt;node5 -->
<g id="edge10" class="edge">
<title>node4&#45;&gt;node5</title>
<path fill="none" stroke="red" d="M125.12,-218.81C124.28,-210.79 124.05,-201.05 124.42,-192.07"/>
<polygon fill="red" stroke="red" points="127.92,-192.25 125.14,-182.03 120.94,-191.75 127.92,-192.25"/>
</g>
<!-- node5&#45;&gt;node4 -->
<g id="edge9" class="edge">
<title>node5&#45;&gt;node4</title>
<path fill="none" stroke="fuchsia" stroke-width="2" d="M136.86,-182.03C137.71,-190.03 137.95,-199.77 137.59,-208.75"/>
<polygon fill="fuchsia" stroke="fuchsia" stroke-width="2" points="134.09,-208.59 136.88,-218.81 141.07,-209.08 134.09,-208.59"/>
</g>
<!-- node6 -->
<g id="node7" class="node">
<title>node6</title>
<polygon fill="lightgrey" stroke="black" points="225,-109 37,-109 37,-73 225,-73 225,-109"/>
<text text-anchor="middle" x="131" y="-87.3" font-family="Times,serif" font-size="14.00">#6 LabelNode Order : 6</text>
</g>
<!-- node5&#45;&gt;node6 -->
<g id="edge12" class="edge">
<title>node5&#45;&gt;node6</title>
<path fill="none" stroke="red" d="M125.12,-145.81C124.28,-137.79 124.05,-128.05 124.42,-119.07"/>
<polygon fill="red" stroke="red" points="127.92,-119.25 125.14,-109.03 120.94,-118.75 127.92,-119.25"/>
</g>
<!-- node6&#45;&gt;node5 -->
<g id="edge11" class="edge">
<title>node6&#45;&gt;node5</title>
<path fill="none" stroke="fuchsia" stroke-width="2" d="M136.86,-109.03C137.71,-117.03 137.95,-126.77 137.59,-135.75"/>
<polygon fill="fuchsia" stroke="fuchsia" stroke-width="2" points="134.09,-135.59 136.88,-145.81 141.07,-136.08 134.09,-135.59"/>
</g>
<!-- node7 -->
<g id="node8" class="node">
<title>node7</title>
<polygon fill="lightgrey" stroke="black" points="211.5,-36 50.5,-36 50.5,0 211.5,0 211.5,-36"/>
<text text-anchor="middle" x="131" y="-14.3" font-family="Times,serif" font-size="14.00">#7 Return Order : 7</text>
</g>
<!-- node6&#45;&gt;node7 -->
<g id="edge14" class="edge">
<title>node6&#45;&gt;node7</title>
<path fill="none" stroke="red" d="M125.12,-72.81C124.28,-64.79 124.05,-55.05 124.42,-46.07"/>
<polygon fill="red" stroke="red" points="127.92,-46.25 125.14,-36.03 120.94,-45.75 127.92,-46.25"/>
</g>
<!-- node7&#45;&gt;node6 -->
<g id="edge13" class="edge">
<title>node7&#45;&gt;node6</title>
<path fill="none" stroke="fuchsia" stroke-width="2" d="M136.86,-36.03C137.71,-44.03 137.95,-53.77 137.59,-62.75"/>
<polygon fill="fuchsia" stroke="fuchsia" stroke-width="2" points="134.09,-62.59 136.88,-72.81 141.07,-63.08 134.09,-62.59"/>
</g>
<!-- c0 -->
<!-- c1 -->
<!-- c0&#45;&gt;c1 -->
<g id="edge15" class="edge">
<title>c0&#45;&gt;c1</title>
<path fill="none" stroke="red" d="M565.89,-529C577.11,-529 635.24,-529 660.86,-529"/>
<polygon fill="red" stroke="red" points="661.06,-532.5 671.06,-529 661.06,-525.5 661.06,-532.5"/>
<text text-anchor="middle" x="618.5" y="-535.8" font-family="Times,serif" font-size="14.00">Control flow</text>
</g>
<!-- c2 -->
<!-- c3 -->
<!-- c2&#45;&gt;c3 -->
<g id="edge16" class="edge">
<title>c2&#45;&gt;c3</title>
<path fill="none" stroke="red" stroke-dasharray="5,2" d="M359.08,-529C376.05,-529 492.21,-529 530.08,-529"/>
<polygon fill="red" stroke="red" points="530.17,-532.5 540.17,-529 530.17,-525.5 530.17,-532.5"/>
<text text-anchor="middle" x="449.5" y="-535.8" font-family="Times,serif" font-size="14.00">Control flow back edge</text>
</g>
<!-- d8 -->
<!-- d9 -->
<!-- d8&#45;&gt;d9 -->
<g id="edge17" class="edge">
<title>d8&#45;&gt;d9</title>
<path fill="none" stroke="fuchsia" d="M236.11,-529C247.15,-529 298.67,-529 322.66,-529"/>
<polygon fill="fuchsia" stroke="fuchsia" points="322.9,-532.5 332.9,-529 322.9,-525.5 322.9,-532.5"/>
<text text-anchor="middle" x="284.5" y="-535.8" font-family="Times,serif" font-size="14.00">Dominance</text>
</g>
</g>
</svg>
