<?xml version="1.0" encoding="UTF-8" standalone="no"?>
<!DOCTYPE svg PUBLIC "-//W3C//DTD SVG 1.1//EN"
 "http://www.w3.org/Graphics/SVG/1.1/DTD/svg11.dtd">
<!-- Generated by graphviz version 2.43.0 (0)
 -->
<!-- Title: debugoutput Pages: 1 -->
<svg width="1899pt" height="578pt"
 viewBox="0.00 0.00 1899.00 577.80" xmlns="http://www.w3.org/2000/svg" xmlns:xlink="http://www.w3.org/1999/xlink">
<g id="graph0" class="graph" transform="scale(1 1) rotate(0) translate(4 573.8)">
<title>debugoutput</title>
<polygon fill="white" stroke="transparent" points="-4,4 -4,-573.8 1895,-573.8 1895,4 -4,4"/>
<g id="clust1" class="cluster">
<title>cluster_000</title>
<polygon fill="none" stroke="black" points="1044,-519.2 1044,-561.8 1883,-561.8 1883,-519.2 1044,-519.2"/>
<text text-anchor="middle" x="1463.5" y="-546.6" font-family="Times,serif" font-size="14.00">Legend</text>
</g>
<!-- node0 -->
<g id="node1" class="node">
<title>node0</title>
<polygon fill="lightgrey" stroke="black" points="1034,-547 868,-547 868,-511 1034,-511 1034,-547"/>
<text text-anchor="middle" x="951" y="-525.3" font-family="Times,serif" font-size="14.00">#0 Method Order : 0</text>
</g>
<!-- node1 -->
<g id="node2" class="node">
<title>node1</title>
<polygon fill="lightgrey" stroke="black" points="230,-474 0,-474 0,-438 230,-438 230,-474"/>
<text text-anchor="middle" x="115" y="-452.3" font-family="Times,serif" font-size="14.00">#1 this : ArrayTest Order : 14</text>
</g>
<!-- node0&#45;&gt;node1 -->
<g id="edge2" class="edge">
<title>node0&#45;&gt;node1</title>
<path fill="none" stroke="black" d="M867.92,-523.66C735.41,-516.1 468.18,-499 239.83,-475.04"/>
<polygon fill="black" stroke="black" points="239.99,-471.54 229.68,-473.97 239.25,-478.5 239.99,-471.54"/>
<text text-anchor="middle" x="248.59" y="-463.76" font-family="Times,serif" font-size="14.00">*0</text>
</g>
<!-- node2 -->
<g id="node3" class="node">
<title>node2</title>
<polygon fill="lightgrey" stroke="black" points="436,-474 248,-474 248,-438 436,-438 436,-474"/>
<text text-anchor="middle" x="342" y="-452.3" font-family="Times,serif" font-size="14.00">#2 LabelNode Order : 7</text>
</g>
<!-- node0&#45;&gt;node2 -->
<g id="edge4" class="edge">
<title>node0&#45;&gt;node2</title>
<path fill="none" stroke="red" d="M867.9,-521.18C768.19,-512.26 595.97,-495.4 446.7,-475.44"/>
<polygon fill="red" stroke="red" points="446.82,-471.93 436.44,-474.06 445.89,-478.86 446.82,-471.93"/>
</g>
<!-- node13 -->
<g id="node6" class="node">
<title>node13</title>
<polygon fill="orange" stroke="black" points="1399.94,-375.54 1399.94,-390.46 1291.02,-401 1136.98,-401 1028.06,-390.46 1028.06,-375.54 1136.98,-365 1291.02,-365 1399.94,-375.54"/>
<text text-anchor="middle" x="1214" y="-379.3" font-family="Times,serif" font-size="14.00">#13 NewArray : double[] Order : 5</text>
</g>
<!-- node0&#45;&gt;node13 -->
<g id="edge35" class="edge">
<title>node0&#45;&gt;node13</title>
<path fill="none" stroke="black" d="M1031.28,-510.95C1079.23,-502.37 1214.82,-511 1246,-474 1262.09,-454.9 1246.66,-428.44 1231.98,-409.16"/>
<polygon fill="black" stroke="black" points="1234.57,-406.79 1225.62,-401.12 1229.08,-411.13 1234.57,-406.79"/>
</g>
<!-- node10 -->
<g id="node7" class="node">
<title>node10</title>
<polygon fill="lightgreen" stroke="black" points="669.77,-448.54 669.77,-463.46 606.64,-474 517.36,-474 454.23,-463.46 454.23,-448.54 517.36,-438 606.64,-438 669.77,-448.54"/>
<text text-anchor="middle" x="562" y="-452.3" font-family="Times,serif" font-size="14.00">#10 int 0 Order : 3</text>
</g>
<!-- node0&#45;&gt;node10 -->
<g id="edge28" class="edge">
<title>node0&#45;&gt;node10</title>
<path fill="none" stroke="black" stroke-dasharray="1,5" d="M867.69,-513.8C799.98,-501.74 705.28,-484.46 639.25,-472.13"/>
<polygon fill="black" stroke="black" points="639.79,-468.67 629.32,-470.27 638.51,-475.55 639.79,-468.67"/>
</g>
<!-- node9 -->
<g id="node8" class="node">
<title>node9</title>
<polygon fill="lightgreen" stroke="black" points="962.36,-448.54 962.36,-463.46 881.9,-474 768.1,-474 687.64,-463.46 687.64,-448.54 768.1,-438 881.9,-438 962.36,-448.54"/>
<text text-anchor="middle" x="825" y="-452.3" font-family="Times,serif" font-size="14.00">#9 double 10.0 Order : 4</text>
</g>
<!-- node0&#45;&gt;node9 -->
<g id="edge26" class="edge">
<title>node0&#45;&gt;node9</title>
<path fill="none" stroke="black" stroke-dasharray="1,5" d="M914.96,-510.99C897.09,-501.49 875.72,-489.54 858.24,-479.29"/>
<polygon fill="black" stroke="black" points="859.89,-476.2 849.5,-474.11 856.32,-482.22 859.89,-476.2"/>
</g>
<!-- node11 -->
<g id="node10" class="node">
<title>node11</title>
<polygon fill="lightgreen" stroke="black" points="1535.77,-448.54 1535.77,-463.46 1472.64,-474 1383.36,-474 1320.23,-463.46 1320.23,-448.54 1383.36,-438 1472.64,-438 1535.77,-448.54"/>
<text text-anchor="middle" x="1428" y="-452.3" font-family="Times,serif" font-size="14.00">#11 int 1 Order : 2</text>
</g>
<!-- node0&#45;&gt;node11 -->
<g id="edge30" class="edge">
<title>node0&#45;&gt;node11</title>
<path fill="none" stroke="black" stroke-dasharray="1,5" d="M1031.34,-510.96C1148.58,-495.89 1180.48,-513.87 1297,-493 1319.62,-488.95 1344.01,-482.24 1365.6,-475.71"/>
<polygon fill="black" stroke="black" points="1366.77,-479.01 1375.3,-472.73 1364.71,-472.32 1366.77,-479.01"/>
</g>
<!-- node12 -->
<g id="node14" class="node">
<title>node12</title>
<polygon fill="lightgreen" stroke="black" points="1245.93,-448.54 1245.93,-463.46 1179.19,-474 1084.81,-474 1018.07,-463.46 1018.07,-448.54 1084.81,-438 1179.19,-438 1245.93,-448.54"/>
<text text-anchor="middle" x="1132" y="-452.3" font-family="Times,serif" font-size="14.00">#12 int 10 Order : 1</text>
</g>
<!-- node0&#45;&gt;node12 -->
<g id="edge32" class="edge">
<title>node0&#45;&gt;node12</title>
<path fill="none" stroke="black" stroke-dasharray="1,5" d="M988.49,-510.99C1013.06,-500.94 1045.59,-488.14 1073.5,-477.52"/>
<polygon fill="black" stroke="black" points="1075.04,-480.68 1083.16,-473.87 1072.56,-474.13 1075.04,-480.68"/>
</g>
<!-- node1&#45;&gt;node0 -->
<g id="edge1" class="edge">
<title>node1&#45;&gt;node0</title>
<path fill="none" stroke="green" stroke-width="2" d="M230.14,-471.98C236.18,-472.7 242.17,-473.38 248,-474 466.06,-497.19 722.72,-514.12 857.55,-522.36"/>
<polygon fill="green" stroke="green" stroke-width="2" points="857.64,-525.87 867.84,-522.99 858.07,-518.89 857.64,-525.87"/>
</g>
<!-- node2&#45;&gt;node0 -->
<g id="edge3" class="edge">
<title>node2&#45;&gt;node0</title>
<path fill="none" stroke="green" stroke-width="2" d="M436.08,-471.44C442.15,-472.34 448.16,-473.21 454,-474 594.5,-493.08 757.7,-509.46 857.71,-519.02"/>
<polygon fill="green" stroke="green" stroke-width="2" points="857.5,-522.52 867.78,-519.99 858.16,-515.55 857.5,-522.52"/>
</g>
<!-- node3 -->
<g id="node4" class="node">
<title>node3</title>
<polygon fill="lightgrey" stroke="black" points="436,-401 248,-401 248,-365 436,-365 436,-401"/>
<text text-anchor="middle" x="342" y="-379.3" font-family="Times,serif" font-size="14.00">#3 LabelNode Order : 8</text>
</g>
<!-- node2&#45;&gt;node3 -->
<g id="edge6" class="edge">
<title>node2&#45;&gt;node3</title>
<path fill="none" stroke="red" d="M336.12,-437.81C335.28,-429.79 335.05,-420.05 335.42,-411.07"/>
<polygon fill="red" stroke="red" points="338.92,-411.25 336.14,-401.03 331.94,-410.75 338.92,-411.25"/>
</g>
<!-- node3&#45;&gt;node2 -->
<g id="edge5" class="edge">
<title>node3&#45;&gt;node2</title>
<path fill="none" stroke="green" stroke-width="2" d="M347.86,-401.03C348.71,-409.03 348.95,-418.77 348.59,-427.75"/>
<polygon fill="green" stroke="green" stroke-width="2" points="345.09,-427.59 347.88,-437.81 352.07,-428.08 345.09,-427.59"/>
</g>
<!-- node4 -->
<g id="node5" class="node">
<title>node4</title>
<polygon fill="lightgrey" stroke="black" points="1048,-328 786,-328 786,-292 1048,-292 1048,-328"/>
<text text-anchor="middle" x="917" y="-306.3" font-family="Times,serif" font-size="14.00">#4 ArrayStore : double[] Order : 9</text>
</g>
<!-- node3&#45;&gt;node4 -->
<g id="edge12" class="edge">
<title>node3&#45;&gt;node4</title>
<path fill="none" stroke="red" d="M436.31,-370.36C528.51,-358.97 670.07,-341.49 775.72,-328.44"/>
<polygon fill="red" stroke="red" points="776.34,-331.9 785.83,-327.2 775.48,-324.95 776.34,-331.9"/>
</g>
<!-- node4&#45;&gt;node0 -->
<g id="edge7" class="edge">
<title>node4&#45;&gt;node0</title>
<path fill="none" stroke="green" stroke-width="2" d="M927.06,-328.35C940.21,-352.15 962.58,-396.68 971,-438 974.19,-453.68 973.82,-458.25 971,-474 969.35,-483.19 966.24,-492.87 962.96,-501.45"/>
<polygon fill="green" stroke="green" stroke-width="2" points="959.63,-500.35 959.1,-510.93 966.11,-502.99 959.63,-500.35"/>
</g>
<!-- node5 -->
<g id="node9" class="node">
<title>node5</title>
<polygon fill="lightgrey" stroke="black" points="1518,-255 1262,-255 1262,-219 1518,-219 1518,-255"/>
<text text-anchor="middle" x="1390" y="-233.3" font-family="Times,serif" font-size="14.00">#5 ArrayLoad : double Order : 10</text>
</g>
<!-- node4&#45;&gt;node5 -->
<g id="edge16" class="edge">
<title>node4&#45;&gt;node5</title>
<path fill="none" stroke="black" d="M1024.44,-291.99C1094.43,-281.32 1186.14,-267.54 1260.21,-256.58"/>
<polygon fill="black" stroke="black" points="1261.16,-259.98 1270.54,-255.05 1260.13,-253.05 1261.16,-259.98"/>
</g>
<!-- node4&#45;&gt;node5 -->
<g id="edge17" class="edge">
<title>node4&#45;&gt;node5</title>
<path fill="none" stroke="red" d="M1036.15,-291.99C1108.42,-281.32 1200.23,-267.54 1272.24,-256.58"/>
<polygon fill="red" stroke="red" points="1272.91,-260.02 1282.26,-255.05 1271.85,-253.1 1272.91,-260.02"/>
</g>
<!-- node13&#45;&gt;node0 -->
<g id="edge33" class="edge">
<title>node13&#45;&gt;node0</title>
<path fill="none" stroke="green" stroke-width="2" d="M1238.62,-401.12C1259.4,-420.45 1282.48,-452.07 1264,-474 1232.76,-511.07 1096.7,-502.34 1049,-511 1047.5,-511.27 1045.99,-511.55 1044.46,-511.83"/>
<polygon fill="green" stroke="green" stroke-width="2" points="1043.47,-508.45 1034.27,-513.71 1044.73,-515.34 1043.47,-508.45"/>
</g>
<!-- node13&#45;&gt;node4 -->
<g id="edge8" class="edge">
<title>node13&#45;&gt;node4</title>
<path fill="none" stroke="black" d="M1137,-364.99C1092.42,-354.6 1036.59,-341.27 992.31,-330.46"/>
<polygon fill="black" stroke="black" points="993.01,-327.03 982.47,-328.05 991.35,-333.83 993.01,-327.03"/>
<text text-anchor="middle" x="1002.08" y="-320.45" font-family="Times,serif" font-size="14.00">*0</text>
</g>
<!-- node13&#45;&gt;node4 -->
<g id="edge11" class="edge">
<title>node13&#45;&gt;node4</title>
<path fill="none" stroke="black" d="M1148.72,-364.99C1106.26,-354.58 1050.44,-341.22 1004.21,-330.39"/>
<polygon fill="black" stroke="black" points="1004.73,-326.92 994.19,-328.05 1003.14,-333.74 1004.73,-326.92"/>
</g>
<!-- node13&#45;&gt;node5 -->
<g id="edge14" class="edge">
<title>node13&#45;&gt;node5</title>
<path fill="none" stroke="black" d="M1308.44,-366.62C1331.75,-358.62 1354.68,-346.47 1371,-328 1386.08,-310.94 1390.26,-284.96 1391,-265.29"/>
<polygon fill="black" stroke="black" points="1394.5,-265.15 1391.1,-255.11 1387.5,-265.07 1394.5,-265.15"/>
<text text-anchor="middle" x="1399.37" y="-269.62" font-family="Times,serif" font-size="14.00">*0</text>
</g>
<!-- node14 -->
<g id="node15" class="node">
<title>node14</title>
<polygon fill="orange" stroke="black" points="1361.97,-302.54 1361.97,-317.46 1275.29,-328 1152.71,-328 1066.03,-317.46 1066.03,-302.54 1152.71,-292 1275.29,-292 1361.97,-302.54"/>
<text text-anchor="middle" x="1214" y="-306.3" font-family="Times,serif" font-size="14.00">#14 ArrayLength Order : 6</text>
</g>
<!-- node13&#45;&gt;node14 -->
<g id="edge37" class="edge">
<title>node13&#45;&gt;node14</title>
<path fill="none" stroke="black" d="M1208.12,-364.81C1207.28,-356.79 1207.05,-347.05 1207.42,-338.07"/>
<polygon fill="black" stroke="black" points="1210.92,-338.25 1208.14,-328.03 1203.94,-337.75 1210.92,-338.25"/>
<text text-anchor="middle" x="1215.28" y="-343.01" font-family="Times,serif" font-size="14.00">*0</text>
</g>
<!-- node10&#45;&gt;node0 -->
<g id="edge27" class="edge">
<title>node10&#45;&gt;node0</title>
<path fill="none" stroke="green" stroke-width="2" d="M634.86,-469.34C697.88,-480.53 789.27,-497.17 857.62,-509.87"/>
<polygon fill="green" stroke="green" stroke-width="2" points="857.06,-513.32 867.54,-511.71 858.35,-506.44 857.06,-513.32"/>
</g>
<!-- node10&#45;&gt;node4 -->
<g id="edge9" class="edge">
<title>node10&#45;&gt;node4</title>
<path fill="none" stroke="black" d="M604.12,-437.92C669.37,-411.45 794.72,-360.6 865.35,-331.95"/>
<polygon fill="black" stroke="black" points="866.99,-335.06 874.94,-328.06 864.36,-328.58 866.99,-335.06"/>
<text text-anchor="middle" x="861.32" y="-339.01" font-family="Times,serif" font-size="14.00">*1</text>
</g>
<!-- node9&#45;&gt;node0 -->
<g id="edge25" class="edge">
<title>node9&#45;&gt;node0</title>
<path fill="none" stroke="green" stroke-width="2" d="M861.24,-474.11C879.14,-483.63 900.51,-495.59 917.95,-505.82"/>
<polygon fill="green" stroke="green" stroke-width="2" points="916.29,-508.91 926.68,-510.99 919.86,-502.89 916.29,-508.91"/>
</g>
<!-- node9&#45;&gt;node4 -->
<g id="edge10" class="edge">
<title>node9&#45;&gt;node4</title>
<path fill="none" stroke="black" d="M835.91,-437.92C851.96,-412.8 882.03,-365.73 900.7,-336.51"/>
<polygon fill="black" stroke="black" points="903.66,-338.37 906.1,-328.06 897.77,-334.6 903.66,-338.37"/>
<text text-anchor="middle" x="903.46" y="-344.19" font-family="Times,serif" font-size="14.00">*2</text>
</g>
<!-- node5&#45;&gt;node0 -->
<g id="edge13" class="edge">
<title>node5&#45;&gt;node0</title>
<path fill="none" stroke="green" stroke-width="2" d="M1518.28,-253.23C1544.36,-263.72 1564,-280.94 1564,-309 1564,-457 1564,-457 1564,-457 1564,-513.07 1136.38,-504.55 1044.42,-510.83"/>
<polygon fill="green" stroke="green" stroke-width="2" points="1043.97,-507.36 1034.33,-511.75 1044.6,-514.33 1043.97,-507.36"/>
</g>
<!-- node6 -->
<g id="node11" class="node">
<title>node6</title>
<polygon fill="lightgrey" stroke="black" points="1420.5,-182 1223.5,-182 1223.5,-146 1420.5,-146 1420.5,-182"/>
<text text-anchor="middle" x="1322" y="-160.3" font-family="Times,serif" font-size="14.00">#6 LabelNode Order : 11</text>
</g>
<!-- node5&#45;&gt;node6 -->
<g id="edge19" class="edge">
<title>node5&#45;&gt;node6</title>
<path fill="none" stroke="red" d="M1367.66,-218.81C1358.4,-210.09 1347.9,-199.34 1339.23,-189.75"/>
<polygon fill="red" stroke="red" points="1341.68,-187.23 1332.45,-182.03 1336.42,-191.85 1341.68,-187.23"/>
</g>
<!-- node8 -->
<g id="node13" class="node">
<title>node8</title>
<polygon fill="lightgrey" stroke="black" points="1543,-36 1373,-36 1373,0 1543,0 1543,-36"/>
<text text-anchor="middle" x="1458" y="-14.3" font-family="Times,serif" font-size="14.00">#8 Return Order : 13</text>
</g>
<!-- node5&#45;&gt;node8 -->
<g id="edge24" class="edge">
<title>node5&#45;&gt;node8</title>
<path fill="none" stroke="black" d="M1398.07,-218.82C1405.44,-208.81 1415.22,-195.52 1421,-182 1440.24,-136.97 1446.27,-79.6 1450.82,-46.31"/>
<polygon fill="black" stroke="black" points="1454.28,-46.8 1452.25,-36.4 1447.35,-45.79 1454.28,-46.8"/>
</g>
<!-- node11&#45;&gt;node0 -->
<g id="edge29" class="edge">
<title>node11&#45;&gt;node0</title>
<path fill="none" stroke="green" stroke-width="2" d="M1387.55,-474.03C1366.21,-481.07 1339.56,-488.6 1315,-493 1198.36,-513.89 1166.52,-495.86 1049,-511 1047.49,-511.19 1045.96,-511.4 1044.43,-511.61"/>
<polygon fill="green" stroke="green" stroke-width="2" points="1043.56,-508.2 1034.18,-513.13 1044.58,-515.13 1043.56,-508.2"/>
</g>
<!-- node11&#45;&gt;node5 -->
<g id="edge15" class="edge">
<title>node11&#45;&gt;node5</title>
<path fill="none" stroke="black" d="M1427.17,-437.92C1425.27,-405.35 1419.52,-332.35 1404,-273 1403.27,-270.21 1402.38,-267.34 1401.4,-264.51"/>
<polygon fill="black" stroke="black" points="1404.67,-263.27 1397.85,-255.16 1398.13,-265.75 1404.67,-263.27"/>
<text text-anchor="middle" x="1412.18" y="-265.41" font-family="Times,serif" font-size="14.00">*1</text>
</g>
<!-- node6&#45;&gt;node5 -->
<g id="edge18" class="edge">
<title>node6&#45;&gt;node5</title>
<path fill="none" stroke="green" stroke-width="2" d="M1344.17,-182.03C1353.42,-190.73 1363.92,-201.47 1372.61,-211.08"/>
<polygon fill="green" stroke="green" stroke-width="2" points="1370.18,-213.62 1379.42,-218.81 1375.44,-208.99 1370.18,-213.62"/>
</g>
<!-- node7 -->
<g id="node12" class="node">
<title>node7</title>
<polygon fill="lightgrey" stroke="black" points="1420.5,-109 1223.5,-109 1223.5,-73 1420.5,-73 1420.5,-109"/>
<text text-anchor="middle" x="1322" y="-87.3" font-family="Times,serif" font-size="14.00">#7 LabelNode Order : 12</text>
</g>
<!-- node6&#45;&gt;node7 -->
<g id="edge21" class="edge">
<title>node6&#45;&gt;node7</title>
<path fill="none" stroke="red" d="M1316.12,-145.81C1315.28,-137.79 1315.05,-128.05 1315.42,-119.07"/>
<polygon fill="red" stroke="red" points="1318.92,-119.25 1316.14,-109.03 1311.94,-118.75 1318.92,-119.25"/>
</g>
<!-- node7&#45;&gt;node6 -->
<g id="edge20" class="edge">
<title>node7&#45;&gt;node6</title>
<path fill="none" stroke="green" stroke-width="2" d="M1327.86,-109.03C1328.71,-117.03 1328.95,-126.77 1328.59,-135.75"/>
<polygon fill="green" stroke="green" stroke-width="2" points="1325.09,-135.59 1327.88,-145.81 1332.07,-136.08 1325.09,-135.59"/>
</g>
<!-- node7&#45;&gt;node8 -->
<g id="edge23" class="edge">
<title>node7&#45;&gt;node8</title>
<path fill="none" stroke="red" d="M1354.58,-72.99C1373.03,-63.36 1396.31,-51.21 1416.11,-40.87"/>
<polygon fill="red" stroke="red" points="1417.97,-43.84 1425.22,-36.11 1414.73,-37.64 1417.97,-43.84"/>
</g>
<!-- node8&#45;&gt;node5 -->
<g id="edge22" class="edge">
<title>node8&#45;&gt;node5</title>
<path fill="none" stroke="green" stroke-width="2" d="M1463.01,-36.4C1465.42,-67.03 1460.32,-132.1 1439,-182 1434.58,-192.35 1427.81,-202.57 1420.61,-211.28"/>
<polygon fill="green" stroke="green" stroke-width="2" points="1417.94,-209.02 1413.93,-218.82 1423.18,-213.66 1417.94,-209.02"/>
</g>
<!-- node12&#45;&gt;node0 -->
<g id="edge31" class="edge">
<title>node12&#45;&gt;node0</title>
<path fill="none" stroke="green" stroke-width="2" d="M1094.24,-474.11C1069.8,-484.11 1037.56,-496.81 1009.82,-507.36"/>
<polygon fill="green" stroke="green" stroke-width="2" points="1008.33,-504.18 1000.21,-510.99 1010.8,-510.73 1008.33,-504.18"/>
</g>
<!-- node12&#45;&gt;node13 -->
<g id="edge34" class="edge">
<title>node12&#45;&gt;node13</title>
<path fill="none" stroke="black" d="M1151.85,-437.81C1162.33,-428.74 1175.34,-417.48 1186.74,-407.6"/>
<polygon fill="black" stroke="black" points="1189.06,-410.22 1194.33,-401.03 1184.48,-404.93 1189.06,-410.22"/>
<text text-anchor="middle" x="1186.16" y="-415.58" font-family="Times,serif" font-size="14.00">*0</text>
</g>
<!-- node14&#45;&gt;node13 -->
<g id="edge36" class="edge">
<title>node14&#45;&gt;node13</title>
<path fill="none" stroke="green" stroke-width="2" d="M1219.86,-328.03C1220.71,-336.03 1220.95,-345.77 1220.59,-354.75"/>
<polygon fill="green" stroke="green" stroke-width="2" points="1217.09,-354.59 1219.88,-364.81 1224.07,-355.08 1217.09,-354.59"/>
</g>
<!-- c0 -->
<!-- c1 -->
<!-- c0&#45;&gt;c1 -->
<g id="edge38" class="edge">
<title>c0&#45;&gt;c1</title>
<path fill="none" stroke="red" d="M1765.89,-529C1777.11,-529 1835.24,-529 1860.86,-529"/>
<polygon fill="red" stroke="red" points="1861.06,-532.5 1871.06,-529 1861.06,-525.5 1861.06,-532.5"/>
<text text-anchor="middle" x="1818.5" y="-535.8" font-family="Times,serif" font-size="14.00">Control flow</text>
</g>
<!-- c2 -->
<!-- c3 -->
<!-- c2&#45;&gt;c3 -->
<g id="edge39" class="edge">
<title>c2&#45;&gt;c3</title>
<path fill="none" stroke="red" stroke-dasharray="5,2" d="M1559.08,-529C1576.05,-529 1692.21,-529 1730.08,-529"/>
<polygon fill="red" stroke="red" points="1730.17,-532.5 1740.17,-529 1730.17,-525.5 1730.17,-532.5"/>
<text text-anchor="middle" x="1649.5" y="-535.8" font-family="Times,serif" font-size="14.00">Control flow back edge</text>
</g>
<!-- d0 -->
<!-- d1 -->
<!-- d0&#45;&gt;d1 -->
<g id="edge40" class="edge">
<title>d0&#45;&gt;d1</title>
<path fill="none" stroke="black" d="M1447.86,-529C1457.41,-529 1501.31,-529 1522.92,-529"/>
<polygon fill="black" stroke="black" points="1523.15,-532.5 1533.15,-529 1523.15,-525.5 1523.15,-532.5"/>
<text text-anchor="middle" x="1490.5" y="-535.8" font-family="Times,serif" font-size="14.00">Data flow</text>
</g>
<!-- d2 -->
<!-- d3 -->
<!-- d2&#45;&gt;d3 -->
<g id="edge41" class="edge">
<title>d2&#45;&gt;d3</title>
<path fill="none" stroke="black" stroke-dasharray="1,5" d="M1321.81,-529C1332.46,-529 1387.46,-529 1412.08,-529"/>
<polygon fill="black" stroke="black" points="1412.15,-532.5 1422.15,-529 1412.15,-525.5 1412.15,-532.5"/>
<text text-anchor="middle" x="1372" y="-535.8" font-family="Times,serif" font-size="14.00">Declaration</text>
</g>
<!-- d4 -->
<!-- d5 -->
<!-- d4&#45;&gt;d5 -->
<g id="edge42" class="edge">
<title>d4&#45;&gt;d5</title>
<path fill="none" stroke="blue" d="M1179.1,-529C1191.72,-529 1257.88,-529 1285.68,-529"/>
<polygon fill="blue" stroke="blue" points="1285.84,-532.5 1295.84,-529 1285.84,-525.5 1285.84,-532.5"/>
<text text-anchor="middle" x="1237.5" y="-535.8" font-family="Times,serif" font-size="14.00">PHI Data flow</text>
</g>
<!-- d6 -->
<!-- d7 -->
<!-- d6&#45;&gt;d7 -->
<g id="edge43" class="edge">
<title>d6&#45;&gt;d7</title>
<path fill="none" stroke="green" d="M1056.11,-529C1067.15,-529 1118.67,-529 1142.66,-529"/>
<polygon fill="green" stroke="green" points="1142.9,-532.5 1152.9,-529 1142.9,-525.5 1142.9,-532.5"/>
<text text-anchor="middle" x="1104.5" y="-535.8" font-family="Times,serif" font-size="14.00">Dominance</text>
</g>
</g>
</svg>
