<?xml version="1.0" encoding="UTF-8" standalone="no"?>
<!DOCTYPE svg PUBLIC "-//W3C//DTD SVG 1.1//EN"
 "http://www.w3.org/Graphics/SVG/1.1/DTD/svg11.dtd">
<!-- Generated by graphviz version 2.43.0 (0)
 -->
<!-- Title: debugoutput Pages: 1 -->
<svg width="1348pt" height="724pt"
 viewBox="0.00 0.00 1348.39 723.80" xmlns="http://www.w3.org/2000/svg" xmlns:xlink="http://www.w3.org/1999/xlink">
<g id="graph0" class="graph" transform="scale(1 1) rotate(0) translate(4 719.8)">
<title>debugoutput</title>
<polygon fill="white" stroke="transparent" points="-4,4 -4,-719.8 1344.39,-719.8 1344.39,4 -4,4"/>
<g id="clust1" class="cluster">
<title>cluster_000</title>
<polygon fill="none" stroke="black" points="493.39,-665.2 493.39,-707.8 1332.39,-707.8 1332.39,-665.2 493.39,-665.2"/>
<text text-anchor="middle" x="912.89" y="-692.6" font-family="Times,serif" font-size="14.00">Legend</text>
</g>
<!-- node0 -->
<g id="node1" class="node">
<title>node0</title>
<polygon fill="lightgrey" stroke="black" points="483.39,-693 317.39,-693 317.39,-657 483.39,-657 483.39,-693"/>
<text text-anchor="middle" x="400.39" y="-671.3" font-family="Times,serif" font-size="14.00">#0 Method Order : 0</text>
</g>
<!-- node1 -->
<g id="node2" class="node">
<title>node1</title>
<polygon fill="lightgrey" stroke="black" points="316.39,-620 86.39,-620 86.39,-584 316.39,-584 316.39,-620"/>
<text text-anchor="middle" x="201.39" y="-598.3" font-family="Times,serif" font-size="14.00">#1 this : ArrayTest Order : 14</text>
</g>
<!-- node0&#45;&gt;node1 -->
<g id="edge2" class="edge">
<title>node0&#45;&gt;node1</title>
<path fill="none" stroke="black" d="M346.87,-656.99C317.7,-646.97 281.84,-634.21 252.98,-623.62"/>
<polygon fill="black" stroke="black" points="254.08,-620.29 243.49,-620.11 251.66,-626.86 254.08,-620.29"/>
<text text-anchor="middle" x="263.42" y="-614.76" font-family="Times,serif" font-size="14.00">*0</text>
</g>
<!-- node2 -->
<g id="node3" class="node">
<title>node2</title>
<polygon fill="lightgrey" stroke="black" points="592.39,-620 404.39,-620 404.39,-584 592.39,-584 592.39,-620"/>
<text text-anchor="middle" x="498.39" y="-598.3" font-family="Times,serif" font-size="14.00">#2 LabelNode Order : 1</text>
</g>
<!-- node0&#45;&gt;node2 -->
<g id="edge4" class="edge">
<title>node0&#45;&gt;node2</title>
<path fill="none" stroke="red" d="M418.24,-656.81C430.14,-647.48 446.07,-635.83 460.64,-625.75"/>
<polygon fill="red" stroke="red" points="462.74,-628.56 469.02,-620.03 458.79,-622.78 462.74,-628.56"/>
</g>
<!-- node5 -->
<g id="node6" class="node">
<title>node5</title>
<polygon fill="orange" stroke="black" points="358.67,-448.54 358.67,-463.46 253.65,-474 105.13,-474 0.11,-463.46 0.11,-448.54 105.13,-438 253.65,-438 358.67,-448.54"/>
<text text-anchor="middle" x="179.39" y="-452.3" font-family="Times,serif" font-size="14.00">#5 NewArray : double[] Order : 3</text>
</g>
<!-- node0&#45;&gt;node5 -->
<g id="edge11" class="edge">
<title>node0&#45;&gt;node5</title>
<path fill="none" stroke="black" d="M380.7,-656.72C363.94,-638.07 339.73,-607.83 316.39,-584 278.74,-545.55 231.04,-505.49 202.82,-480.89"/>
<polygon fill="black" stroke="black" points="204.88,-478.05 195.06,-474.08 200.26,-483.31 204.88,-478.05"/>
</g>
<!-- node1&#45;&gt;node0 -->
<g id="edge1" class="edge">
<title>node1&#45;&gt;node0</title>
<path fill="none" stroke="green" stroke-width="2" d="M255.23,-620.11C284.44,-630.16 320.3,-642.92 349.11,-653.5"/>
<polygon fill="green" stroke="green" stroke-width="2" points="347.99,-656.82 358.58,-656.99 350.41,-650.25 347.99,-656.82"/>
</g>
<!-- node2&#45;&gt;node0 -->
<g id="edge3" class="edge">
<title>node2&#45;&gt;node0</title>
<path fill="none" stroke="green" stroke-width="2" d="M480.64,-620.11C468.72,-629.46 452.74,-641.15 438.13,-651.26"/>
<polygon fill="green" stroke="green" stroke-width="2" points="436.01,-648.47 429.72,-656.99 439.96,-654.25 436.01,-648.47"/>
</g>
<!-- node3 -->
<g id="node4" class="node">
<title>node3</title>
<polygon fill="lightgrey" stroke="black" points="812.39,-547 624.39,-547 624.39,-511 812.39,-511 812.39,-547"/>
<text text-anchor="middle" x="718.39" y="-525.3" font-family="Times,serif" font-size="14.00">#3 LabelNode Order : 5</text>
</g>
<!-- node2&#45;&gt;node3 -->
<g id="edge6" class="edge">
<title>node2&#45;&gt;node3</title>
<path fill="none" stroke="red" d="M545.23,-583.99C575.62,-573.84 615.67,-560.88 649.63,-550.2"/>
<polygon fill="red" stroke="red" points="651,-553.44 659.49,-547.11 648.9,-546.76 651,-553.44"/>
</g>
<!-- node4 -->
<g id="node5" class="node">
<title>node4</title>
<polygon fill="lightgreen" stroke="black" points="606.16,-521.54 606.16,-536.46 543.03,-547 453.75,-547 390.62,-536.46 390.62,-521.54 453.75,-511 543.03,-511 606.16,-521.54"/>
<text text-anchor="middle" x="498.39" y="-525.3" font-family="Times,serif" font-size="14.00">#4 int 10 Order : 2</text>
</g>
<!-- node2&#45;&gt;node4 -->
<g id="edge8" class="edge">
<title>node2&#45;&gt;node4</title>
<path fill="none" stroke="black" stroke-dasharray="1,5" d="M492.51,-583.81C491.67,-575.79 491.44,-566.05 491.81,-557.07"/>
<polygon fill="black" stroke="black" points="495.31,-557.25 492.53,-547.03 488.33,-556.75 495.31,-557.25"/>
</g>
<!-- node3&#45;&gt;node2 -->
<g id="edge5" class="edge">
<title>node3&#45;&gt;node2</title>
<path fill="none" stroke="green" stroke-width="2" d="M671.23,-547.11C640.77,-557.29 600.71,-570.25 566.79,-580.91"/>
<polygon fill="green" stroke="green" stroke-width="2" points="565.44,-577.66 556.95,-583.99 567.53,-584.34 565.44,-577.66"/>
</g>
<!-- node6 -->
<g id="node7" class="node">
<title>node6</title>
<polygon fill="lightgreen" stroke="black" points="651.75,-448.54 651.75,-463.46 571.29,-474 457.49,-474 377.03,-463.46 377.03,-448.54 457.49,-438 571.29,-438 651.75,-448.54"/>
<text text-anchor="middle" x="514.39" y="-452.3" font-family="Times,serif" font-size="14.00">#6 double 10.0 Order : 7</text>
</g>
<!-- node3&#45;&gt;node6 -->
<g id="edge13" class="edge">
<title>node3&#45;&gt;node6</title>
<path fill="none" stroke="black" stroke-dasharray="1,5" d="M663.67,-510.99C633.8,-500.97 597.04,-488.21 567.44,-477.62"/>
<polygon fill="black" stroke="black" points="568.29,-474.2 557.69,-474.11 565.92,-480.79 568.29,-474.2"/>
</g>
<!-- node7 -->
<g id="node8" class="node">
<title>node7</title>
<polygon fill="lightgreen" stroke="black" points="871.5,-448.54 871.5,-463.46 812.27,-474 728.51,-474 669.28,-463.46 669.28,-448.54 728.51,-438 812.27,-438 871.5,-448.54"/>
<text text-anchor="middle" x="770.39" y="-452.3" font-family="Times,serif" font-size="14.00">#7 int 0 Order : 6</text>
</g>
<!-- node3&#45;&gt;node7 -->
<g id="edge15" class="edge">
<title>node3&#45;&gt;node7</title>
<path fill="none" stroke="black" stroke-dasharray="1,5" d="M725.1,-510.81C730.52,-502.18 738.1,-491.56 745.57,-482.03"/>
<polygon fill="black" stroke="black" points="748.48,-484 752.06,-474.03 743.04,-479.6 748.48,-484"/>
</g>
<!-- node8 -->
<g id="node9" class="node">
<title>node8</title>
<polygon fill="lightgrey" stroke="black" points="832.39,-401 570.39,-401 570.39,-365 832.39,-365 832.39,-401"/>
<text text-anchor="middle" x="701.39" y="-379.3" font-family="Times,serif" font-size="14.00">#8 ArrayStore : double[] Order : 8</text>
</g>
<!-- node3&#45;&gt;node8 -->
<g id="edge21" class="edge">
<title>node3&#45;&gt;node8</title>
<path fill="none" stroke="red" d="M806.79,-510.98C857.72,-497.01 906.87,-473.64 880.39,-438 869.87,-423.84 855.76,-413.26 840.04,-405.38"/>
<polygon fill="red" stroke="red" points="841.17,-402.04 830.62,-401.04 838.24,-408.4 841.17,-402.04"/>
</g>
<!-- node4&#45;&gt;node2 -->
<g id="edge7" class="edge">
<title>node4&#45;&gt;node2</title>
<path fill="none" stroke="green" stroke-width="2" d="M504.25,-547.03C505.1,-555.03 505.34,-564.77 504.98,-573.75"/>
<polygon fill="green" stroke="green" stroke-width="2" points="501.48,-573.59 504.27,-583.81 508.46,-574.08 501.48,-573.59"/>
</g>
<!-- node4&#45;&gt;node5 -->
<g id="edge10" class="edge">
<title>node4&#45;&gt;node5</title>
<path fill="none" stroke="black" d="M448.27,-511.85C426.36,-505.14 400.25,-497.62 376.39,-492 347,-485.08 314.86,-478.82 285.22,-473.57"/>
<polygon fill="black" stroke="black" points="285.72,-470.11 275.27,-471.83 284.52,-477 285.72,-470.11"/>
<text text-anchor="middle" x="294.58" y="-462.93" font-family="Times,serif" font-size="14.00">*0</text>
</g>
<!-- node5&#45;&gt;node0 -->
<g id="edge9" class="edge">
<title>node5&#45;&gt;node0</title>
<path fill="none" stroke="green" stroke-width="2" d="M207.21,-474.08C239.53,-497.57 293.03,-541.75 334.39,-584 354.44,-604.48 375.15,-629.69 388.21,-648.21"/>
<polygon fill="green" stroke="green" stroke-width="2" points="385.46,-650.4 393.97,-656.72 391.26,-646.48 385.46,-650.4"/>
</g>
<!-- node5&#45;&gt;node8 -->
<g id="edge17" class="edge">
<title>node5&#45;&gt;node8</title>
<path fill="none" stroke="black" d="M279.79,-440.59C359.42,-429.56 471.63,-414.28 560.29,-402.38"/>
<polygon fill="black" stroke="black" points="560.99,-405.81 570.43,-401.01 560.06,-398.88 560.99,-405.81"/>
<text text-anchor="middle" x="553.59" y="-408.1" font-family="Times,serif" font-size="14.00">*0</text>
</g>
<!-- node5&#45;&gt;node8 -->
<g id="edge20" class="edge">
<title>node5&#45;&gt;node8</title>
<path fill="none" stroke="black" d="M286.13,-441.23C368.85,-430.18 483.78,-414.57 571.78,-402.45"/>
<polygon fill="black" stroke="black" points="572.41,-405.89 581.83,-401.06 571.45,-398.96 572.41,-405.89"/>
</g>
<!-- node9 -->
<g id="node10" class="node">
<title>node9</title>
<polygon fill="orange" stroke="black" points="320.69,-375.54 320.69,-390.46 237.92,-401 120.86,-401 38.09,-390.46 38.09,-375.54 120.86,-365 237.92,-365 320.69,-375.54"/>
<text text-anchor="middle" x="179.39" y="-379.3" font-family="Times,serif" font-size="14.00">#9 ArrayLength Order : 4</text>
</g>
<!-- node5&#45;&gt;node9 -->
<g id="edge23" class="edge">
<title>node5&#45;&gt;node9</title>
<path fill="none" stroke="black" d="M173.51,-437.81C172.67,-429.79 172.44,-420.05 172.81,-411.07"/>
<polygon fill="black" stroke="black" points="176.31,-411.25 173.53,-401.03 169.33,-410.75 176.31,-411.25"/>
<text text-anchor="middle" x="180.67" y="-416.01" font-family="Times,serif" font-size="14.00">*0</text>
</g>
<!-- node11 -->
<g id="node12" class="node">
<title>node11</title>
<polygon fill="lightgrey" stroke="black" points="865.89,-255 600.89,-255 600.89,-219 865.89,-219 865.89,-255"/>
<text text-anchor="middle" x="733.39" y="-233.3" font-family="Times,serif" font-size="14.00">#11 ArrayLoad : double Order : 10</text>
</g>
<!-- node5&#45;&gt;node11 -->
<g id="edge27" class="edge">
<title>node5&#45;&gt;node11</title>
<path fill="none" stroke="black" d="M239.99,-437.91C268.07,-428.82 301.34,-416.33 329.39,-401 399.21,-362.85 399.04,-325.09 471.39,-292 508.48,-275.04 550.95,-263.36 590.74,-255.33"/>
<polygon fill="black" stroke="black" points="591.65,-258.72 600.8,-253.37 590.31,-251.85 591.65,-258.72"/>
<text text-anchor="middle" x="584.63" y="-261.44" font-family="Times,serif" font-size="14.00">*0</text>
</g>
<!-- node6&#45;&gt;node3 -->
<g id="edge12" class="edge">
<title>node6&#45;&gt;node3</title>
<path fill="none" stroke="green" stroke-width="2" d="M569.43,-474.11C599.35,-484.16 636.11,-496.92 665.66,-507.5"/>
<polygon fill="green" stroke="green" stroke-width="2" points="664.79,-510.9 675.39,-510.99 667.16,-504.32 664.79,-510.9"/>
</g>
<!-- node6&#45;&gt;node8 -->
<g id="edge19" class="edge">
<title>node6&#45;&gt;node8</title>
<path fill="none" stroke="black" d="M559.18,-437.99C585.47,-428.01 618.89,-415.32 646.73,-404.76"/>
<polygon fill="black" stroke="black" points="648.21,-407.94 656.32,-401.11 645.73,-401.39 648.21,-407.94"/>
<text text-anchor="middle" x="642.37" y="-411.75" font-family="Times,serif" font-size="14.00">*2</text>
</g>
<!-- node7&#45;&gt;node3 -->
<g id="edge14" class="edge">
<title>node7&#45;&gt;node3</title>
<path fill="none" stroke="green" stroke-width="2" d="M763.78,-474.03C758.39,-482.64 750.82,-493.26 743.34,-502.79"/>
<polygon fill="green" stroke="green" stroke-width="2" points="740.42,-500.84 736.86,-510.81 745.87,-505.24 740.42,-500.84"/>
</g>
<!-- node7&#45;&gt;node8 -->
<g id="edge18" class="edge">
<title>node7&#45;&gt;node8</title>
<path fill="none" stroke="black" d="M753.69,-437.81C745.13,-429 734.55,-418.13 725.16,-408.46"/>
<polygon fill="black" stroke="black" points="727.42,-405.76 717.94,-401.03 722.4,-410.64 727.42,-405.76"/>
<text text-anchor="middle" x="736.63" y="-404.44" font-family="Times,serif" font-size="14.00">*1</text>
</g>
<!-- node8&#45;&gt;node0 -->
<g id="edge16" class="edge">
<title>node8&#45;&gt;node0</title>
<path fill="none" stroke="green" stroke-width="2" d="M830.09,-401.02C885.32,-412.05 937.39,-429.27 937.39,-455 937.39,-603 937.39,-603 937.39,-603 937.39,-650.79 575.41,-649.53 493.69,-656.76"/>
<polygon fill="green" stroke="green" stroke-width="2" points="493.28,-653.29 483.74,-657.9 494.07,-660.24 493.28,-653.29"/>
</g>
<!-- node10 -->
<g id="node11" class="node">
<title>node10</title>
<polygon fill="lightgreen" stroke="black" points="696.16,-302.54 696.16,-317.46 633.03,-328 543.75,-328 480.62,-317.46 480.62,-302.54 543.75,-292 633.03,-292 696.16,-302.54"/>
<text text-anchor="middle" x="588.39" y="-306.3" font-family="Times,serif" font-size="14.00">#10 int 1 Order : 9</text>
</g>
<!-- node8&#45;&gt;node10 -->
<g id="edge25" class="edge">
<title>node8&#45;&gt;node10</title>
<path fill="none" stroke="black" stroke-dasharray="1,5" d="M668.47,-364.99C652.63,-355.67 633.86,-343.97 618.42,-333.86"/>
<polygon fill="black" stroke="black" points="620.03,-330.73 609.76,-328.11 616.16,-336.56 620.03,-330.73"/>
</g>
<!-- node8&#45;&gt;node11 -->
<g id="edge29" class="edge">
<title>node8&#45;&gt;node11</title>
<path fill="none" stroke="black" d="M700.63,-364.92C703.52,-340.12 713.51,-293.95 722.09,-264.66"/>
<polygon fill="black" stroke="black" points="725.44,-265.65 725.05,-255.06 718.75,-263.58 725.44,-265.65"/>
</g>
<!-- node8&#45;&gt;node11 -->
<g id="edge30" class="edge">
<title>node8&#45;&gt;node11</title>
<path fill="none" stroke="red" d="M709.74,-364.92C717.83,-340.23 728.32,-294.35 732.79,-265.04"/>
<polygon fill="red" stroke="red" points="736.27,-265.44 734.15,-255.06 729.33,-264.5 736.27,-265.44"/>
</g>
<!-- node9&#45;&gt;node5 -->
<g id="edge22" class="edge">
<title>node9&#45;&gt;node5</title>
<path fill="none" stroke="green" stroke-width="2" d="M185.25,-401.03C186.1,-409.03 186.34,-418.77 185.98,-427.75"/>
<polygon fill="green" stroke="green" stroke-width="2" points="182.48,-427.59 185.27,-437.81 189.46,-428.08 182.48,-427.59"/>
</g>
<!-- node10&#45;&gt;node8 -->
<g id="edge24" class="edge">
<title>node10&#45;&gt;node8</title>
<path fill="none" stroke="green" stroke-width="2" d="M621.5,-328.11C637.36,-337.46 656.13,-349.15 671.54,-359.26"/>
<polygon fill="green" stroke="green" stroke-width="2" points="669.92,-362.38 680.18,-364.99 673.79,-356.55 669.92,-362.38"/>
</g>
<!-- node10&#45;&gt;node11 -->
<g id="edge28" class="edge">
<title>node10&#45;&gt;node11</title>
<path fill="none" stroke="black" d="M623.12,-291.99C642.97,-282.27 668.07,-269.99 689.3,-259.59"/>
<polygon fill="black" stroke="black" points="691,-262.65 698.44,-255.11 687.92,-256.37 691,-262.65"/>
<text text-anchor="middle" x="685.88" y="-266.98" font-family="Times,serif" font-size="14.00">*1</text>
</g>
<!-- node11&#45;&gt;node0 -->
<g id="edge26" class="edge">
<title>node11&#45;&gt;node0</title>
<path fill="none" stroke="green" stroke-width="2" d="M866.07,-254.65C922.44,-265.56 975.39,-282.78 975.39,-309 975.39,-603 975.39,-603 975.39,-603 975.39,-654.89 581.28,-650.97 493.93,-656.83"/>
<polygon fill="green" stroke="green" stroke-width="2" points="493.37,-653.36 483.71,-657.73 493.98,-660.34 493.37,-653.36"/>
</g>
<!-- node12 -->
<g id="node13" class="node">
<title>node12</title>
<polygon fill="lightgrey" stroke="black" points="766.39,-182 560.39,-182 560.39,-146 766.39,-146 766.39,-182"/>
<text text-anchor="middle" x="663.39" y="-160.3" font-family="Times,serif" font-size="14.00">#12 LabelNode Order : 11</text>
</g>
<!-- node11&#45;&gt;node12 -->
<g id="edge32" class="edge">
<title>node11&#45;&gt;node12</title>
<path fill="none" stroke="red" d="M710.57,-218.81C700.96,-210 690.04,-199.13 681.05,-189.46"/>
<polygon fill="red" stroke="red" points="683.63,-187.09 674.32,-182.03 678.44,-191.79 683.63,-187.09"/>
</g>
<!-- node14 -->
<g id="node15" class="node">
<title>node14</title>
<polygon fill="lightgrey" stroke="black" points="892.89,-36 713.89,-36 713.89,0 892.89,0 892.89,-36"/>
<text text-anchor="middle" x="803.39" y="-14.3" font-family="Times,serif" font-size="14.00">#14 Return Order : 13</text>
</g>
<!-- node11&#45;&gt;node14 -->
<g id="edge37" class="edge">
<title>node11&#45;&gt;node14</title>
<path fill="none" stroke="black" d="M742.28,-218.96C750.08,-208.99 760.35,-195.69 766.39,-182 786.16,-137.2 792.02,-79.75 796.38,-46.39"/>
<polygon fill="black" stroke="black" points="799.85,-46.84 797.76,-36.45 792.92,-45.87 799.85,-46.84"/>
</g>
<!-- node12&#45;&gt;node11 -->
<g id="edge31" class="edge">
<title>node12&#45;&gt;node11</title>
<path fill="none" stroke="green" stroke-width="2" d="M686.04,-182.03C695.63,-190.81 706.55,-201.69 715.57,-211.37"/>
<polygon fill="green" stroke="green" stroke-width="2" points="713.01,-213.76 722.32,-218.81 718.19,-209.06 713.01,-213.76"/>
</g>
<!-- node13 -->
<g id="node14" class="node">
<title>node13</title>
<polygon fill="lightgrey" stroke="black" points="766.39,-109 560.39,-109 560.39,-73 766.39,-73 766.39,-109"/>
<text text-anchor="middle" x="663.39" y="-87.3" font-family="Times,serif" font-size="14.00">#13 LabelNode Order : 12</text>
</g>
<!-- node12&#45;&gt;node13 -->
<g id="edge34" class="edge">
<title>node12&#45;&gt;node13</title>
<path fill="none" stroke="red" d="M657.51,-145.81C656.67,-137.79 656.44,-128.05 656.81,-119.07"/>
<polygon fill="red" stroke="red" points="660.31,-119.25 657.53,-109.03 653.33,-118.75 660.31,-119.25"/>
</g>
<!-- node13&#45;&gt;node12 -->
<g id="edge33" class="edge">
<title>node13&#45;&gt;node12</title>
<path fill="none" stroke="green" stroke-width="2" d="M669.25,-109.03C670.1,-117.03 670.34,-126.77 669.98,-135.75"/>
<polygon fill="green" stroke="green" stroke-width="2" points="666.48,-135.59 669.27,-145.81 673.46,-136.08 666.48,-135.59"/>
</g>
<!-- node13&#45;&gt;node14 -->
<g id="edge36" class="edge">
<title>node13&#45;&gt;node14</title>
<path fill="none" stroke="red" d="M696.92,-72.99C716,-63.32 740.1,-51.1 760.54,-40.73"/>
<polygon fill="red" stroke="red" points="762.31,-43.76 769.65,-36.11 759.14,-37.52 762.31,-43.76"/>
</g>
<!-- node14&#45;&gt;node11 -->
<g id="edge35" class="edge">
<title>node14&#45;&gt;node11</title>
<path fill="none" stroke="green" stroke-width="2" d="M808.52,-36.45C811.12,-67.17 806.3,-132.35 784.39,-182 779.76,-192.48 772.66,-202.73 765.12,-211.44"/>
<polygon fill="green" stroke="green" stroke-width="2" points="762.38,-209.25 758.14,-218.96 767.51,-214.01 762.38,-209.25"/>
</g>
<!-- c0 -->
<!-- c1 -->
<!-- c0&#45;&gt;c1 -->
<g id="edge38" class="edge">
<title>c0&#45;&gt;c1</title>
<path fill="none" stroke="red" d="M1215.28,-675C1226.5,-675 1284.63,-675 1310.25,-675"/>
<polygon fill="red" stroke="red" points="1310.45,-678.5 1320.45,-675 1310.45,-671.5 1310.45,-678.5"/>
<text text-anchor="middle" x="1267.89" y="-681.8" font-family="Times,serif" font-size="14.00">Control flow</text>
</g>
<!-- c2 -->
<!-- c3 -->
<!-- c2&#45;&gt;c3 -->
<g id="edge39" class="edge">
<title>c2&#45;&gt;c3</title>
<path fill="none" stroke="red" stroke-dasharray="5,2" d="M1008.47,-675C1025.44,-675 1141.6,-675 1179.47,-675"/>
<polygon fill="red" stroke="red" points="1179.56,-678.5 1189.56,-675 1179.56,-671.5 1179.56,-678.5"/>
<text text-anchor="middle" x="1098.89" y="-681.8" font-family="Times,serif" font-size="14.00">Control flow back edge</text>
</g>
<!-- d0 -->
<!-- d1 -->
<!-- d0&#45;&gt;d1 -->
<g id="edge40" class="edge">
<title>d0&#45;&gt;d1</title>
<path fill="none" stroke="black" d="M897.25,-675C906.8,-675 950.7,-675 972.31,-675"/>
<polygon fill="black" stroke="black" points="972.54,-678.5 982.54,-675 972.54,-671.5 972.54,-678.5"/>
<text text-anchor="middle" x="939.89" y="-681.8" font-family="Times,serif" font-size="14.00">Data flow</text>
</g>
<!-- d2 -->
<!-- d3 -->
<!-- d2&#45;&gt;d3 -->
<g id="edge41" class="edge">
<title>d2&#45;&gt;d3</title>
<path fill="none" stroke="black" stroke-dasharray="1,5" d="M771.2,-675C781.85,-675 836.86,-675 861.47,-675"/>
<polygon fill="black" stroke="black" points="861.54,-678.5 871.54,-675 861.54,-671.5 861.54,-678.5"/>
<text text-anchor="middle" x="821.39" y="-681.8" font-family="Times,serif" font-size="14.00">Declaration</text>
</g>
<!-- d4 -->
<!-- d5 -->
<!-- d4&#45;&gt;d5 -->
<g id="edge42" class="edge">
<title>d4&#45;&gt;d5</title>
<path fill="none" stroke="blue" d="M628.49,-675C641.11,-675 707.27,-675 735.07,-675"/>
<polygon fill="blue" stroke="blue" points="735.23,-678.5 745.23,-675 735.23,-671.5 735.23,-678.5"/>
<text text-anchor="middle" x="686.89" y="-681.8" font-family="Times,serif" font-size="14.00">PHI Data flow</text>
</g>
<!-- d6 -->
<!-- d7 -->
<!-- d6&#45;&gt;d7 -->
<g id="edge43" class="edge">
<title>d6&#45;&gt;d7</title>
<path fill="none" stroke="green" d="M505.5,-675C516.54,-675 568.06,-675 592.05,-675"/>
<polygon fill="green" stroke="green" points="592.29,-678.5 602.29,-675 592.29,-671.5 592.29,-678.5"/>
<text text-anchor="middle" x="553.89" y="-681.8" font-family="Times,serif" font-size="14.00">Dominance</text>
</g>
</g>
</svg>
