<?xml version="1.0" encoding="UTF-8" standalone="no"?>
<!DOCTYPE svg PUBLIC "-//W3C//DTD SVG 1.1//EN"
 "http://www.w3.org/Graphics/SVG/1.1/DTD/svg11.dtd">
<!-- Generated by graphviz version 2.43.0 (0)
 -->
<!-- Title: debugoutput Pages: 1 -->
<svg width="1695pt" height="578pt"
 viewBox="0.00 0.00 1695.00 577.80" xmlns="http://www.w3.org/2000/svg" xmlns:xlink="http://www.w3.org/1999/xlink">
<g id="graph0" class="graph" transform="scale(1 1) rotate(0) translate(4 573.8)">
<title>debugoutput</title>
<polygon fill="white" stroke="transparent" points="-4,4 -4,-573.8 1691,-573.8 1691,4 -4,4"/>
<g id="clust1" class="cluster">
<title>cluster_000</title>
<polygon fill="none" stroke="black" points="840,-519.2 840,-561.8 1679,-561.8 1679,-519.2 840,-519.2"/>
<text text-anchor="middle" x="1259.5" y="-546.6" font-family="Times,serif" font-size="14.00">Legend</text>
</g>
<!-- node0 -->
<g id="node1" class="node">
<title>node0</title>
<polygon fill="lightgrey" stroke="black" points="830,-547 664,-547 664,-511 830,-511 830,-547"/>
<text text-anchor="middle" x="747" y="-525.3" font-family="Times,serif" font-size="14.00">#0 Method Order : 0</text>
</g>
<!-- node1 -->
<g id="node2" class="node">
<title>node1</title>
<polygon fill="lightgrey" stroke="black" points="230,-474 0,-474 0,-438 230,-438 230,-474"/>
<text text-anchor="middle" x="115" y="-452.3" font-family="Times,serif" font-size="14.00">#1 this : ArrayTest Order : 14</text>
</g>
<!-- node0&#45;&gt;node1 -->
<g id="edge2" class="edge">
<title>node0&#45;&gt;node1</title>
<path fill="none" stroke="red" d="M663.68,-520.54C563.57,-510.95 390.52,-493.37 240.01,-475.21"/>
<polygon fill="red" stroke="red" points="240.02,-471.69 229.68,-473.96 239.18,-478.64 240.02,-471.69"/>
</g>
<!-- node2 -->
<g id="node3" class="node">
<title>node2</title>
<polygon fill="lightgrey" stroke="black" points="1288,-474 1100,-474 1100,-438 1288,-438 1288,-474"/>
<text text-anchor="middle" x="1194" y="-452.3" font-family="Times,serif" font-size="14.00">#2 LabelNode Order : 7</text>
</g>
<!-- node0&#45;&gt;node2 -->
<g id="edge4" class="edge">
<title>node0&#45;&gt;node2</title>
<path fill="none" stroke="red" d="M827.33,-510.94C939.99,-492.03 968.94,-491.53 1082,-474 1084.55,-473.61 1087.13,-473.2 1089.73,-472.79"/>
<polygon fill="red" stroke="red" points="1090.56,-476.21 1099.89,-471.18 1089.46,-469.29 1090.56,-476.21"/>
</g>
<!-- node4 -->
<g id="node5" class="node">
<title>node4</title>
<polygon fill="orange" stroke="black" points="692.28,-375.54 692.28,-390.46 587.26,-401 438.74,-401 333.72,-390.46 333.72,-375.54 438.74,-365 587.26,-365 692.28,-375.54"/>
<text text-anchor="middle" x="513" y="-379.3" font-family="Times,serif" font-size="14.00">#4 NewArray : double[] Order : 5</text>
</g>
<!-- node0&#45;&gt;node4 -->
<g id="edge9" class="edge">
<title>node0&#45;&gt;node4</title>
<path fill="none" stroke="black" d="M663.84,-525.77C619.33,-520.62 566.75,-507.21 532,-474 514.95,-457.71 508.23,-431.24 507.21,-411.22"/>
<polygon fill="black" stroke="black" points="510.71,-411.13 507.18,-401.14 503.71,-411.15 510.71,-411.13"/>
</g>
<!-- node14 -->
<g id="node6" class="node">
<title>node14</title>
<polygon fill="lightgreen" stroke="black" points="475.93,-448.54 475.93,-463.46 409.19,-474 314.81,-474 248.07,-463.46 248.07,-448.54 314.81,-438 409.19,-438 475.93,-448.54"/>
<text text-anchor="middle" x="362" y="-452.3" font-family="Times,serif" font-size="14.00">#14 int 10 Order : 1</text>
</g>
<!-- node0&#45;&gt;node14 -->
<g id="edge37" class="edge">
<title>node0&#45;&gt;node14</title>
<path fill="none" stroke="black" stroke-dasharray="1,5" d="M663.85,-520.51C611.01,-514.72 541.51,-505.57 481,-493 460.02,-488.64 437.43,-482.71 417.58,-476.92"/>
<polygon fill="black" stroke="black" points="418.36,-473.5 407.77,-474.01 416.36,-480.21 418.36,-473.5"/>
</g>
<!-- node6 -->
<g id="node8" class="node">
<title>node6</title>
<polygon fill="lightgreen" stroke="black" points="1082.36,-448.54 1082.36,-463.46 1001.9,-474 888.1,-474 807.64,-463.46 807.64,-448.54 888.1,-438 1001.9,-438 1082.36,-448.54"/>
<text text-anchor="middle" x="945" y="-452.3" font-family="Times,serif" font-size="14.00">#6 double 10.0 Order : 4</text>
</g>
<!-- node0&#45;&gt;node6 -->
<g id="edge13" class="edge">
<title>node0&#45;&gt;node6</title>
<path fill="none" stroke="black" stroke-dasharray="1,5" d="M788.57,-510.99C815.58,-500.92 851.23,-488.1 881.71,-477.48"/>
<polygon fill="black" stroke="black" points="883.1,-480.7 891.4,-474.11 880.81,-474.09 883.1,-480.7"/>
</g>
<!-- node7 -->
<g id="node9" class="node">
<title>node7</title>
<polygon fill="lightgreen" stroke="black" points="1508.11,-448.54 1508.11,-463.46 1448.88,-474 1365.12,-474 1305.89,-463.46 1305.89,-448.54 1365.12,-438 1448.88,-438 1508.11,-448.54"/>
<text text-anchor="middle" x="1407" y="-452.3" font-family="Times,serif" font-size="14.00">#7 int 1 Order : 3</text>
</g>
<!-- node0&#45;&gt;node7 -->
<g id="edge15" class="edge">
<title>node0&#45;&gt;node7</title>
<path fill="none" stroke="black" stroke-dasharray="1,5" d="M827.3,-510.96C1030.75,-483.47 1083.95,-497.92 1288,-474 1298.91,-472.72 1310.4,-471.17 1321.77,-469.53"/>
<polygon fill="black" stroke="black" points="1322.33,-472.99 1331.72,-468.08 1321.31,-466.06 1322.33,-472.99"/>
</g>
<!-- node8 -->
<g id="node10" class="node">
<title>node8</title>
<polygon fill="lightgreen" stroke="black" points="752.11,-448.54 752.11,-463.46 692.88,-474 609.12,-474 549.89,-463.46 549.89,-448.54 609.12,-438 692.88,-438 752.11,-448.54"/>
<text text-anchor="middle" x="651" y="-452.3" font-family="Times,serif" font-size="14.00">#8 int 0 Order : 2</text>
</g>
<!-- node0&#45;&gt;node8 -->
<g id="edge17" class="edge">
<title>node0&#45;&gt;node8</title>
<path fill="none" stroke="black" stroke-dasharray="1,5" d="M718.15,-510.99C704.8,-501.84 689.17,-490.41 676.29,-480.43"/>
<polygon fill="black" stroke="black" points="678.29,-477.55 668.27,-474.11 673.96,-483.05 678.29,-477.55"/>
</g>
<!-- node1&#45;&gt;node0 -->
<g id="edge1" class="edge">
<title>node1&#45;&gt;node0</title>
<path fill="none" stroke="green" stroke-width="2" d="M230.16,-471.77C236.2,-472.54 242.18,-473.29 248,-474 389.51,-491.22 553.58,-508.1 653.87,-518.28"/>
<polygon fill="green" stroke="green" stroke-width="2" points="653.67,-521.78 663.97,-519.31 654.38,-514.82 653.67,-521.78"/>
</g>
<!-- node2&#45;&gt;node0 -->
<g id="edge3" class="edge">
<title>node2&#45;&gt;node0</title>
<path fill="none" stroke="green" stroke-width="2" d="M1099.67,-474.05C986.78,-491.55 957.83,-492.05 845,-511 843.5,-511.25 841.98,-511.51 840.45,-511.77"/>
<polygon fill="green" stroke="green" stroke-width="2" points="839.49,-508.39 830.24,-513.56 840.69,-515.28 839.49,-508.39"/>
</g>
<!-- node3 -->
<g id="node4" class="node">
<title>node3</title>
<polygon fill="lightgrey" stroke="black" points="1288,-401 1100,-401 1100,-365 1288,-365 1288,-401"/>
<text text-anchor="middle" x="1194" y="-379.3" font-family="Times,serif" font-size="14.00">#3 LabelNode Order : 8</text>
</g>
<!-- node2&#45;&gt;node3 -->
<g id="edge6" class="edge">
<title>node2&#45;&gt;node3</title>
<path fill="none" stroke="red" d="M1188.12,-437.81C1187.28,-429.79 1187.05,-420.05 1187.42,-411.07"/>
<polygon fill="red" stroke="red" points="1190.92,-411.25 1188.14,-401.03 1183.94,-410.75 1190.92,-411.25"/>
</g>
<!-- node3&#45;&gt;node2 -->
<g id="edge5" class="edge">
<title>node3&#45;&gt;node2</title>
<path fill="none" stroke="green" stroke-width="2" d="M1199.86,-401.03C1200.71,-409.03 1200.95,-418.77 1200.59,-427.75"/>
<polygon fill="green" stroke="green" stroke-width="2" points="1197.09,-427.59 1199.88,-437.81 1204.07,-428.08 1197.09,-427.59"/>
</g>
<!-- node9 -->
<g id="node11" class="node">
<title>node9</title>
<polygon fill="lightgrey" stroke="black" points="964,-328 702,-328 702,-292 964,-292 964,-328"/>
<text text-anchor="middle" x="833" y="-306.3" font-family="Times,serif" font-size="14.00">#9 ArrayStore : double[] Order : 9</text>
</g>
<!-- node3&#45;&gt;node9 -->
<g id="edge23" class="edge">
<title>node3&#45;&gt;node9</title>
<path fill="none" stroke="red" d="M1107.53,-364.99C1053.91,-354.45 984.93,-340.88 929.53,-329.98"/>
<polygon fill="red" stroke="red" points="930.19,-326.55 919.7,-328.05 928.84,-333.42 930.19,-326.55"/>
</g>
<!-- node4&#45;&gt;node0 -->
<g id="edge7" class="edge">
<title>node4&#45;&gt;node0</title>
<path fill="none" stroke="green" stroke-width="2" d="M519.91,-401.14C524.14,-421.4 529.89,-454.78 550,-474 577.91,-500.68 617.33,-514.58 653.62,-521.68"/>
<polygon fill="green" stroke="green" stroke-width="2" points="653.29,-525.18 663.75,-523.51 654.53,-518.29 653.29,-525.18"/>
</g>
<!-- node5 -->
<g id="node7" class="node">
<title>node5</title>
<polygon fill="orange" stroke="black" points="646.3,-302.54 646.3,-317.46 563.53,-328 446.47,-328 363.7,-317.46 363.7,-302.54 446.47,-292 563.53,-292 646.3,-302.54"/>
<text text-anchor="middle" x="505" y="-306.3" font-family="Times,serif" font-size="14.00">#5 ArrayLength Order : 6</text>
</g>
<!-- node4&#45;&gt;node5 -->
<g id="edge11" class="edge">
<title>node4&#45;&gt;node5</title>
<path fill="none" stroke="black" d="M505.19,-364.81C503.44,-356.79 502.11,-347.05 501.47,-338.07"/>
<polygon fill="black" stroke="black" points="504.97,-337.88 501.06,-328.03 497.97,-338.16 504.97,-337.88"/>
<text text-anchor="middle" x="510.25" y="-342.09" font-family="Times,serif" font-size="14.00">*0</text>
</g>
<!-- node4&#45;&gt;node9 -->
<g id="edge19" class="edge">
<title>node4&#45;&gt;node9</title>
<path fill="none" stroke="black" d="M590.32,-365.19C617.43,-359.62 648.04,-353.24 676,-347 699.03,-341.86 724,-335.92 747.12,-330.38"/>
<polygon fill="black" stroke="black" points="748,-333.77 756.91,-328.03 746.37,-326.96 748,-333.77"/>
<text text-anchor="middle" x="741.26" y="-336.78" font-family="Times,serif" font-size="14.00">*0</text>
</g>
<!-- node4&#45;&gt;node9 -->
<g id="edge22" class="edge">
<title>node4&#45;&gt;node9</title>
<path fill="none" stroke="black" d="M601.66,-366.33C631.18,-360.5 664.11,-353.67 694,-347 716.93,-341.88 741.77,-335.98 764.06,-330.45"/>
<polygon fill="black" stroke="black" points="764.92,-333.85 773.77,-328.03 763.22,-327.05 764.92,-333.85"/>
</g>
<!-- node10 -->
<g id="node12" class="node">
<title>node10</title>
<polygon fill="lightgrey" stroke="black" points="965.5,-255 700.5,-255 700.5,-219 965.5,-219 965.5,-255"/>
<text text-anchor="middle" x="833" y="-233.3" font-family="Times,serif" font-size="14.00">#10 ArrayLoad : double Order : 10</text>
</g>
<!-- node4&#45;&gt;node10 -->
<g id="edge25" class="edge">
<title>node4&#45;&gt;node10</title>
<path fill="none" stroke="black" d="M573.15,-365C599.41,-356.12 629.87,-343.78 655,-328 674.7,-315.62 673.33,-304.42 693,-292 714.88,-278.19 740.85,-266.96 764.45,-258.4"/>
<polygon fill="black" stroke="black" points="765.79,-261.64 774.05,-255.01 763.46,-255.04 765.79,-261.64"/>
<text text-anchor="middle" x="759.77" y="-265.31" font-family="Times,serif" font-size="14.00">*0</text>
</g>
<!-- node14&#45;&gt;node0 -->
<g id="edge36" class="edge">
<title>node14&#45;&gt;node0</title>
<path fill="none" stroke="green" stroke-width="2" d="M418.98,-472.46C443.55,-479.52 472.56,-487.51 499,-493 549.83,-503.56 607,-511.7 653.67,-517.47"/>
<polygon fill="green" stroke="green" stroke-width="2" points="653.42,-520.96 663.77,-518.7 654.27,-514.02 653.42,-520.96"/>
</g>
<!-- node14&#45;&gt;node4 -->
<g id="edge8" class="edge">
<title>node14&#45;&gt;node4</title>
<path fill="none" stroke="black" d="M398.17,-437.99C418.93,-428.23 445.21,-415.88 467.38,-405.45"/>
<polygon fill="black" stroke="black" points="469.04,-408.54 476.6,-401.11 466.06,-402.2 469.04,-408.54"/>
<text text-anchor="middle" x="463.8" y="-412.78" font-family="Times,serif" font-size="14.00">*0</text>
</g>
<!-- node5&#45;&gt;node4 -->
<g id="edge10" class="edge">
<title>node5&#45;&gt;node4</title>
<path fill="none" stroke="green" stroke-width="2" d="M512.78,-328.03C514.53,-336.03 515.87,-345.77 516.52,-354.75"/>
<polygon fill="green" stroke="green" stroke-width="2" points="513.02,-354.97 516.94,-364.81 520.01,-354.67 513.02,-354.97"/>
</g>
<!-- node6&#45;&gt;node0 -->
<g id="edge12" class="edge">
<title>node6&#45;&gt;node0</title>
<path fill="none" stroke="green" stroke-width="2" d="M903.15,-474.11C876.07,-484.2 840.41,-497.03 809.97,-507.63"/>
<polygon fill="green" stroke="green" stroke-width="2" points="808.59,-504.41 800.29,-510.99 810.88,-511.02 808.59,-504.41"/>
</g>
<!-- node6&#45;&gt;node9 -->
<g id="edge21" class="edge">
<title>node6&#45;&gt;node9</title>
<path fill="none" stroke="black" d="M931.71,-437.92C912.09,-412.69 875.26,-365.33 852.55,-336.14"/>
<polygon fill="black" stroke="black" points="855.17,-333.81 846.27,-328.06 849.65,-338.1 855.17,-333.81"/>
<text text-anchor="middle" x="864.07" y="-333.48" font-family="Times,serif" font-size="14.00">*2</text>
</g>
<!-- node7&#45;&gt;node0 -->
<g id="edge14" class="edge">
<title>node7&#45;&gt;node0</title>
<path fill="none" stroke="green" stroke-width="2" d="M1339.66,-469.52C1328.46,-471.16 1316.94,-472.72 1306,-474 1101.85,-497.94 1048.69,-483.45 845,-511 843.49,-511.2 841.97,-511.42 840.43,-511.64"/>
<polygon fill="green" stroke="green" stroke-width="2" points="839.54,-508.23 830.19,-513.2 840.6,-515.15 839.54,-508.23"/>
</g>
<!-- node7&#45;&gt;node10 -->
<g id="edge26" class="edge">
<title>node7&#45;&gt;node10</title>
<path fill="none" stroke="black" d="M1390.72,-437.87C1370.55,-417.61 1334.28,-384.24 1297,-365 1188.05,-308.77 1051.47,-275.27 954.77,-256.92"/>
<polygon fill="black" stroke="black" points="955.13,-253.42 944.66,-255.02 953.85,-260.3 955.13,-253.42"/>
<text text-anchor="middle" x="964.03" y="-246.35" font-family="Times,serif" font-size="14.00">*1</text>
</g>
<!-- node8&#45;&gt;node0 -->
<g id="edge16" class="edge">
<title>node8&#45;&gt;node0</title>
<path fill="none" stroke="green" stroke-width="2" d="M679.89,-474.03C693.2,-483.16 708.78,-494.55 721.64,-504.51"/>
<polygon fill="green" stroke="green" stroke-width="2" points="719.62,-507.38 729.64,-510.81 723.95,-501.88 719.62,-507.38"/>
</g>
<!-- node8&#45;&gt;node9 -->
<g id="edge20" class="edge">
<title>node8&#45;&gt;node9</title>
<path fill="none" stroke="black" d="M666.13,-437.96C687.02,-415.1 726.6,-374.13 766,-346 772.46,-341.39 779.6,-337 786.75,-332.99"/>
<polygon fill="black" stroke="black" points="788.62,-335.96 795.76,-328.13 785.29,-329.8 788.62,-335.96"/>
<text text-anchor="middle" x="783.83" y="-340.48" font-family="Times,serif" font-size="14.00">*1</text>
</g>
<!-- node9&#45;&gt;node0 -->
<g id="edge18" class="edge">
<title>node9&#45;&gt;node0</title>
<path fill="none" stroke="green" stroke-width="2" d="M826.16,-328.25C811.17,-366.07 775.33,-456.52 757.47,-501.57"/>
<polygon fill="green" stroke="green" stroke-width="2" points="754.18,-500.39 753.75,-510.97 760.69,-502.97 754.18,-500.39"/>
</g>
<!-- node9&#45;&gt;node10 -->
<g id="edge27" class="edge">
<title>node9&#45;&gt;node10</title>
<path fill="none" stroke="black" d="M827.12,-291.81C826.28,-283.79 826.05,-274.05 826.42,-265.07"/>
<polygon fill="black" stroke="black" points="829.92,-265.25 827.14,-255.03 822.94,-264.75 829.92,-265.25"/>
</g>
<!-- node9&#45;&gt;node10 -->
<g id="edge28" class="edge">
<title>node9&#45;&gt;node10</title>
<path fill="none" stroke="red" d="M838.88,-291.81C839.72,-283.79 839.95,-274.05 839.58,-265.07"/>
<polygon fill="red" stroke="red" points="843.06,-264.75 838.86,-255.03 836.08,-265.25 843.06,-264.75"/>
</g>
<!-- node10&#45;&gt;node0 -->
<g id="edge24" class="edge">
<title>node10&#45;&gt;node0</title>
<path fill="none" stroke="green" stroke-width="2" d="M965.64,-238.27C1169.37,-240.47 1536,-252.3 1536,-309 1536,-457 1536,-457 1536,-457 1536,-532.42 954.09,-503.64 840.35,-510.86"/>
<polygon fill="green" stroke="green" stroke-width="2" points="839.98,-507.37 830.32,-511.73 840.59,-514.35 839.98,-507.37"/>
</g>
<!-- node11 -->
<g id="node13" class="node">
<title>node11</title>
<polygon fill="lightgrey" stroke="black" points="866,-182 660,-182 660,-146 866,-146 866,-182"/>
<text text-anchor="middle" x="763" y="-160.3" font-family="Times,serif" font-size="14.00">#11 LabelNode Order : 11</text>
</g>
<!-- node10&#45;&gt;node11 -->
<g id="edge30" class="edge">
<title>node10&#45;&gt;node11</title>
<path fill="none" stroke="red" d="M810.18,-218.81C800.57,-210 789.65,-199.13 780.66,-189.46"/>
<polygon fill="red" stroke="red" points="783.24,-187.09 773.93,-182.03 778.05,-191.79 783.24,-187.09"/>
</g>
<!-- node13 -->
<g id="node15" class="node">
<title>node13</title>
<polygon fill="lightgrey" stroke="black" points="992.5,-36 813.5,-36 813.5,0 992.5,0 992.5,-36"/>
<text text-anchor="middle" x="903" y="-14.3" font-family="Times,serif" font-size="14.00">#13 Return Order : 13</text>
</g>
<!-- node10&#45;&gt;node13 -->
<g id="edge35" class="edge">
<title>node10&#45;&gt;node13</title>
<path fill="none" stroke="black" d="M841.89,-218.96C849.69,-208.99 859.96,-195.69 866,-182 885.77,-137.2 891.63,-79.75 895.99,-46.39"/>
<polygon fill="black" stroke="black" points="899.46,-46.84 897.37,-36.45 892.53,-45.87 899.46,-46.84"/>
</g>
<!-- node11&#45;&gt;node10 -->
<g id="edge29" class="edge">
<title>node11&#45;&gt;node10</title>
<path fill="none" stroke="green" stroke-width="2" d="M785.65,-182.03C795.24,-190.81 806.16,-201.69 815.18,-211.37"/>
<polygon fill="green" stroke="green" stroke-width="2" points="812.62,-213.76 821.93,-218.81 817.8,-209.06 812.62,-213.76"/>
</g>
<!-- node12 -->
<g id="node14" class="node">
<title>node12</title>
<polygon fill="lightgrey" stroke="black" points="866,-109 660,-109 660,-73 866,-73 866,-109"/>
<text text-anchor="middle" x="763" y="-87.3" font-family="Times,serif" font-size="14.00">#12 LabelNode Order : 12</text>
</g>
<!-- node11&#45;&gt;node12 -->
<g id="edge32" class="edge">
<title>node11&#45;&gt;node12</title>
<path fill="none" stroke="red" d="M757.12,-145.81C756.28,-137.79 756.05,-128.05 756.42,-119.07"/>
<polygon fill="red" stroke="red" points="759.92,-119.25 757.14,-109.03 752.94,-118.75 759.92,-119.25"/>
</g>
<!-- node12&#45;&gt;node11 -->
<g id="edge31" class="edge">
<title>node12&#45;&gt;node11</title>
<path fill="none" stroke="green" stroke-width="2" d="M768.86,-109.03C769.71,-117.03 769.95,-126.77 769.59,-135.75"/>
<polygon fill="green" stroke="green" stroke-width="2" points="766.09,-135.59 768.88,-145.81 773.07,-136.08 766.09,-135.59"/>
</g>
<!-- node12&#45;&gt;node13 -->
<g id="edge34" class="edge">
<title>node12&#45;&gt;node13</title>
<path fill="none" stroke="red" d="M796.53,-72.99C815.61,-63.32 839.71,-51.1 860.15,-40.73"/>
<polygon fill="red" stroke="red" points="861.92,-43.76 869.25,-36.11 858.75,-37.52 861.92,-43.76"/>
</g>
<!-- node13&#45;&gt;node10 -->
<g id="edge33" class="edge">
<title>node13&#45;&gt;node10</title>
<path fill="none" stroke="green" stroke-width="2" d="M908.13,-36.45C910.73,-67.17 905.91,-132.35 884,-182 879.37,-192.48 872.27,-202.73 864.73,-211.44"/>
<polygon fill="green" stroke="green" stroke-width="2" points="861.99,-209.25 857.75,-218.96 867.12,-214.01 861.99,-209.25"/>
</g>
<!-- c0 -->
<!-- c1 -->
<!-- c0&#45;&gt;c1 -->
<g id="edge38" class="edge">
<title>c0&#45;&gt;c1</title>
<path fill="none" stroke="red" d="M1561.89,-529C1573.11,-529 1631.24,-529 1656.86,-529"/>
<polygon fill="red" stroke="red" points="1657.06,-532.5 1667.06,-529 1657.06,-525.5 1657.06,-532.5"/>
<text text-anchor="middle" x="1614.5" y="-535.8" font-family="Times,serif" font-size="14.00">Control flow</text>
</g>
<!-- c2 -->
<!-- c3 -->
<!-- c2&#45;&gt;c3 -->
<g id="edge39" class="edge">
<title>c2&#45;&gt;c3</title>
<path fill="none" stroke="red" stroke-dasharray="5,2" d="M1355.08,-529C1372.05,-529 1488.21,-529 1526.08,-529"/>
<polygon fill="red" stroke="red" points="1526.17,-532.5 1536.17,-529 1526.17,-525.5 1526.17,-532.5"/>
<text text-anchor="middle" x="1445.5" y="-535.8" font-family="Times,serif" font-size="14.00">Control flow back edge</text>
</g>
<!-- d0 -->
<!-- d1 -->
<!-- d0&#45;&gt;d1 -->
<g id="edge40" class="edge">
<title>d0&#45;&gt;d1</title>
<path fill="none" stroke="black" d="M1243.86,-529C1253.41,-529 1297.31,-529 1318.92,-529"/>
<polygon fill="black" stroke="black" points="1319.15,-532.5 1329.15,-529 1319.15,-525.5 1319.15,-532.5"/>
<text text-anchor="middle" x="1286.5" y="-535.8" font-family="Times,serif" font-size="14.00">Data flow</text>
</g>
<!-- d2 -->
<!-- d3 -->
<!-- d2&#45;&gt;d3 -->
<g id="edge41" class="edge">
<title>d2&#45;&gt;d3</title>
<path fill="none" stroke="black" stroke-dasharray="1,5" d="M1117.81,-529C1128.46,-529 1183.46,-529 1208.08,-529"/>
<polygon fill="black" stroke="black" points="1208.15,-532.5 1218.15,-529 1208.15,-525.5 1208.15,-532.5"/>
<text text-anchor="middle" x="1168" y="-535.8" font-family="Times,serif" font-size="14.00">Declaration</text>
</g>
<!-- d4 -->
<!-- d5 -->
<!-- d4&#45;&gt;d5 -->
<g id="edge42" class="edge">
<title>d4&#45;&gt;d5</title>
<path fill="none" stroke="blue" d="M975.1,-529C987.72,-529 1053.88,-529 1081.68,-529"/>
<polygon fill="blue" stroke="blue" points="1081.84,-532.5 1091.84,-529 1081.84,-525.5 1081.84,-532.5"/>
<text text-anchor="middle" x="1033.5" y="-535.8" font-family="Times,serif" font-size="14.00">PHI Data flow</text>
</g>
<!-- d6 -->
<!-- d7 -->
<!-- d6&#45;&gt;d7 -->
<g id="edge43" class="edge">
<title>d6&#45;&gt;d7</title>
<path fill="none" stroke="green" d="M852.11,-529C863.15,-529 914.67,-529 938.66,-529"/>
<polygon fill="green" stroke="green" points="938.9,-532.5 948.9,-529 938.9,-525.5 938.9,-532.5"/>
<text text-anchor="middle" x="900.5" y="-535.8" font-family="Times,serif" font-size="14.00">Dominance</text>
</g>
</g>
</svg>
