<?xml version="1.0" encoding="UTF-8" standalone="no"?>
<!DOCTYPE svg PUBLIC "-//W3C//DTD SVG 1.1//EN"
 "http://www.w3.org/Graphics/SVG/1.1/DTD/svg11.dtd">
<!-- Generated by graphviz version 2.43.0 (0)
 -->
<!-- Title: debugoutput Pages: 1 -->
<svg width="1336pt" height="286pt"
 viewBox="0.00 0.00 1335.50 285.80" xmlns="http://www.w3.org/2000/svg" xmlns:xlink="http://www.w3.org/1999/xlink">
<g id="graph0" class="graph" transform="scale(1 1) rotate(0) translate(4 281.8)">
<title>debugoutput</title>
<polygon fill="white" stroke="transparent" points="-4,4 -4,-281.8 1331.5,-281.8 1331.5,4 -4,4"/>
<g id="clust1" class="cluster">
<title>cluster_000</title>
<polygon fill="none" stroke="black" points="480.5,-227.2 480.5,-269.8 1319.5,-269.8 1319.5,-227.2 480.5,-227.2"/>
<text text-anchor="middle" x="900" y="-254.6" font-family="Times,serif" font-size="14.00">Legend</text>
</g>
<!-- node0 -->
<g id="node1" class="node">
<title>node0</title>
<polygon fill="lightgrey" stroke="black" points="470.5,-255 304.5,-255 304.5,-219 470.5,-219 470.5,-255"/>
<text text-anchor="middle" x="387.5" y="-233.3" font-family="Times,serif" font-size="14.00">#0 Method Order : 0</text>
</g>
<!-- node1 -->
<g id="node2" class="node">
<title>node1</title>
<polygon fill="lightgrey" stroke="black" points="275,-182 0,-182 0,-146 275,-146 275,-182"/>
<text text-anchor="middle" x="137.5" y="-160.3" font-family="Times,serif" font-size="14.00">#1 this : NewInstanceTest Order : 2</text>
</g>
<!-- node0&#45;&gt;node1 -->
<g id="edge2" class="edge">
<title>node0&#45;&gt;node1</title>
<path fill="none" stroke="black" d="M321.76,-218.99C284.6,-208.75 238.41,-195.66 201.54,-184.93"/>
<polygon fill="black" stroke="black" points="202.47,-181.56 191.89,-182.11 200.51,-188.27 202.47,-181.56"/>
<text text-anchor="middle" x="211.66" y="-175.38" font-family="Times,serif" font-size="14.00">*0</text>
</g>
<!-- node2 -->
<g id="node3" class="node">
<title>node2</title>
<polygon fill="lightgrey" stroke="black" points="481.5,-182 293.5,-182 293.5,-146 481.5,-146 481.5,-182"/>
<text text-anchor="middle" x="387.5" y="-160.3" font-family="Times,serif" font-size="14.00">#2 LabelNode Order : 1</text>
</g>
<!-- node0&#45;&gt;node2 -->
<g id="edge4" class="edge">
<title>node0&#45;&gt;node2</title>
<path fill="none" stroke="red" d="M381.62,-218.81C380.78,-210.79 380.55,-201.05 380.92,-192.07"/>
<polygon fill="red" stroke="red" points="384.42,-192.25 381.64,-182.03 377.44,-191.75 384.42,-192.25"/>
</g>
<!-- node3 -->
<g id="node4" class="node">
<title>node3</title>
<polygon fill="lightgrey" stroke="black" points="645,-109 326,-109 326,-73 645,-73 645,-109"/>
<text text-anchor="middle" x="485.5" y="-87.3" font-family="Times,serif" font-size="14.00">#3 Invoke special &lt;init&gt; : ()void Order : 3</text>
</g>
<!-- node0&#45;&gt;node3 -->
<g id="edge8" class="edge">
<title>node0&#45;&gt;node3</title>
<path fill="none" stroke="black" d="M436.84,-218.9C453.94,-210.69 471.31,-198.84 481.5,-182 492.79,-163.33 490.3,-138.3 487.15,-119.38"/>
<polygon fill="black" stroke="black" points="490.55,-118.54 485.36,-109.31 483.66,-119.77 490.55,-118.54"/>
</g>
<!-- node1&#45;&gt;node0 -->
<g id="edge1" class="edge">
<title>node1&#45;&gt;node0</title>
<path fill="none" stroke="green" stroke-width="2" d="M203.63,-182.11C240.85,-192.38 287.04,-205.47 323.85,-216.18"/>
<polygon fill="green" stroke="green" stroke-width="2" points="322.9,-219.55 333.48,-218.99 324.86,-212.83 322.9,-219.55"/>
</g>
<!-- node1&#45;&gt;node3 -->
<g id="edge6" class="edge">
<title>node1&#45;&gt;node3</title>
<path fill="none" stroke="black" d="M220.85,-145.99C272.44,-135.47 338.77,-121.94 392.12,-111.05"/>
<polygon fill="black" stroke="black" points="392.82,-114.48 401.92,-109.05 391.42,-107.62 392.82,-114.48"/>
<text text-anchor="middle" x="385.85" y="-117.26" font-family="Times,serif" font-size="14.00">*0</text>
</g>
<!-- node2&#45;&gt;node0 -->
<g id="edge3" class="edge">
<title>node2&#45;&gt;node0</title>
<path fill="none" stroke="green" stroke-width="2" d="M393.36,-182.03C394.21,-190.03 394.45,-199.77 394.09,-208.75"/>
<polygon fill="green" stroke="green" stroke-width="2" points="390.59,-208.59 393.38,-218.81 397.57,-209.08 390.59,-208.59"/>
</g>
<!-- node2&#45;&gt;node3 -->
<g id="edge7" class="edge">
<title>node2&#45;&gt;node3</title>
<path fill="none" stroke="red" d="M411.22,-145.81C423.98,-136.57 439.89,-125.04 453.71,-115.03"/>
<polygon fill="red" stroke="red" points="455.95,-117.73 462,-109.03 451.84,-112.06 455.95,-117.73"/>
</g>
<!-- node3&#45;&gt;node0 -->
<g id="edge5" class="edge">
<title>node3&#45;&gt;node0</title>
<path fill="none" stroke="green" stroke-width="2" d="M498.45,-109.31C506.85,-128.53 512.94,-159.77 499.5,-182 491.06,-195.95 477.7,-206.47 463.08,-214.34"/>
<polygon fill="green" stroke="green" stroke-width="2" points="461.26,-211.34 453.85,-218.9 464.36,-217.61 461.26,-211.34"/>
</g>
<!-- node4 -->
<g id="node5" class="node">
<title>node4</title>
<polygon fill="lightgrey" stroke="black" points="566,-36 405,-36 405,0 566,0 566,-36"/>
<text text-anchor="middle" x="485.5" y="-14.3" font-family="Times,serif" font-size="14.00">#4 Return Order : 4</text>
</g>
<!-- node3&#45;&gt;node4 -->
<g id="edge10" class="edge">
<title>node3&#45;&gt;node4</title>
<path fill="none" stroke="red" d="M473.74,-72.81C472.06,-64.79 471.6,-55.05 472.34,-46.07"/>
<polygon fill="red" stroke="red" points="475.83,-46.42 473.78,-36.03 468.9,-45.43 475.83,-46.42"/>
</g>
<!-- node3&#45;&gt;node4 -->
<g id="edge11" class="edge">
<title>node3&#45;&gt;node4</title>
<path fill="none" stroke="black" d="M497.26,-72.81C498.94,-64.79 499.4,-55.05 498.66,-46.07"/>
<polygon fill="black" stroke="black" points="502.1,-45.43 497.22,-36.03 495.17,-46.42 502.1,-45.43"/>
</g>
<!-- node4&#45;&gt;node3 -->
<g id="edge9" class="edge">
<title>node4&#45;&gt;node3</title>
<path fill="none" stroke="green" stroke-width="2" d="M485.5,-36.03C485.5,-44.03 485.5,-53.77 485.5,-62.75"/>
<polygon fill="green" stroke="green" stroke-width="2" points="482,-62.81 485.5,-72.81 489,-62.81 482,-62.81"/>
</g>
<!-- c0 -->
<!-- c1 -->
<!-- c0&#45;&gt;c1 -->
<g id="edge12" class="edge">
<title>c0&#45;&gt;c1</title>
<path fill="none" stroke="red" d="M1202.39,-237C1213.61,-237 1271.74,-237 1297.36,-237"/>
<polygon fill="red" stroke="red" points="1297.56,-240.5 1307.56,-237 1297.56,-233.5 1297.56,-240.5"/>
<text text-anchor="middle" x="1255" y="-243.8" font-family="Times,serif" font-size="14.00">Control flow</text>
</g>
<!-- c2 -->
<!-- c3 -->
<!-- c2&#45;&gt;c3 -->
<g id="edge13" class="edge">
<title>c2&#45;&gt;c3</title>
<path fill="none" stroke="red" stroke-dasharray="5,2" d="M995.58,-237C1012.55,-237 1128.71,-237 1166.58,-237"/>
<polygon fill="red" stroke="red" points="1166.67,-240.5 1176.67,-237 1166.67,-233.5 1166.67,-240.5"/>
<text text-anchor="middle" x="1086" y="-243.8" font-family="Times,serif" font-size="14.00">Control flow back edge</text>
</g>
<!-- d0 -->
<!-- d1 -->
<!-- d0&#45;&gt;d1 -->
<g id="edge14" class="edge">
<title>d0&#45;&gt;d1</title>
<path fill="none" stroke="black" d="M884.36,-237C893.91,-237 937.81,-237 959.42,-237"/>
<polygon fill="black" stroke="black" points="959.65,-240.5 969.65,-237 959.65,-233.5 959.65,-240.5"/>
<text text-anchor="middle" x="927" y="-243.8" font-family="Times,serif" font-size="14.00">Data flow</text>
</g>
<!-- d2 -->
<!-- d3 -->
<!-- d2&#45;&gt;d3 -->
<g id="edge15" class="edge">
<title>d2&#45;&gt;d3</title>
<path fill="none" stroke="black" stroke-dasharray="1,5" d="M758.31,-237C768.96,-237 823.96,-237 848.58,-237"/>
<polygon fill="black" stroke="black" points="848.65,-240.5 858.65,-237 848.65,-233.5 848.65,-240.5"/>
<text text-anchor="middle" x="808.5" y="-243.8" font-family="Times,serif" font-size="14.00">Declaration</text>
</g>
<!-- d4 -->
<!-- d5 -->
<!-- d4&#45;&gt;d5 -->
<g id="edge16" class="edge">
<title>d4&#45;&gt;d5</title>
<path fill="none" stroke="blue" d="M615.6,-237C628.22,-237 694.38,-237 722.18,-237"/>
<polygon fill="blue" stroke="blue" points="722.34,-240.5 732.34,-237 722.34,-233.5 722.34,-240.5"/>
<text text-anchor="middle" x="674" y="-243.8" font-family="Times,serif" font-size="14.00">PHI Data flow</text>
</g>
<!-- d6 -->
<!-- d7 -->
<!-- d6&#45;&gt;d7 -->
<g id="edge17" class="edge">
<title>d6&#45;&gt;d7</title>
<path fill="none" stroke="green" d="M492.61,-237C503.65,-237 555.17,-237 579.16,-237"/>
<polygon fill="green" stroke="green" points="579.4,-240.5 589.4,-237 579.4,-233.5 579.4,-240.5"/>
<text text-anchor="middle" x="541" y="-243.8" font-family="Times,serif" font-size="14.00">Dominance</text>
</g>
</g>
</svg>
