<?xml version="1.0" encoding="UTF-8" standalone="no"?>
<!DOCTYPE svg PUBLIC "-//W3C//DTD SVG 1.1//EN"
 "http://www.w3.org/Graphics/SVG/1.1/DTD/svg11.dtd">
<!-- Generated by graphviz version 2.43.0 (0)
 -->
<!-- Title: debugoutput Pages: 1 -->
<svg width="1429pt" height="213pt"
 viewBox="0.00 0.00 1428.50 212.80" xmlns="http://www.w3.org/2000/svg" xmlns:xlink="http://www.w3.org/1999/xlink">
<g id="graph0" class="graph" transform="scale(1 1) rotate(0) translate(4 208.8)">
<title>debugoutput</title>
<polygon fill="white" stroke="transparent" points="-4,4 -4,-208.8 1424.5,-208.8 1424.5,4 -4,4"/>
<g id="clust1" class="cluster">
<title>cluster_000</title>
<polygon fill="none" stroke="black" points="436.5,-154.2 436.5,-196.8 1412.5,-196.8 1412.5,-154.2 436.5,-154.2"/>
<text text-anchor="middle" x="924.5" y="-181.6" font-family="Times,serif" font-size="14.00">Legend</text>
</g>
<!-- node0 -->
<g id="node1" class="node">
<title>node0</title>
<polygon fill="lightgrey" stroke="black" points="426.5,-182 260.5,-182 260.5,-146 426.5,-146 426.5,-182"/>
<text text-anchor="middle" x="343.5" y="-160.3" font-family="Times,serif" font-size="14.00">#0 Method Order : 0</text>
</g>
<!-- node1 -->
<g id="node2" class="node">
<title>node1</title>
<polygon fill="lightgrey" stroke="black" points="231,-109 0,-109 0,-73 231,-73 231,-109"/>
<text text-anchor="middle" x="115.5" y="-87.3" font-family="Times,serif" font-size="14.00">#1 this : ReturnTest Order : 2</text>
</g>
<!-- node0&#45;&gt;node1 -->
<g id="edge2" class="edge">
<title>node0&#45;&gt;node1</title>
<path fill="none" stroke="black" d="M283.03,-145.99C249.34,-135.84 207.63,-122.88 174.22,-112.2"/>
<polygon fill="black" stroke="black" points="175.18,-108.83 164.59,-109.11 173.04,-115.5 175.18,-108.83"/>
<text text-anchor="middle" x="184.43" y="-102.9" font-family="Times,serif" font-size="14.00">*0</text>
</g>
<!-- node2 -->
<g id="node3" class="node">
<title>node2</title>
<polygon fill="lightgrey" stroke="black" points="437.5,-109 249.5,-109 249.5,-73 437.5,-73 437.5,-109"/>
<text text-anchor="middle" x="343.5" y="-87.3" font-family="Times,serif" font-size="14.00">#2 LabelNode Order : 1</text>
</g>
<!-- node0&#45;&gt;node2 -->
<g id="edge4" class="edge">
<title>node0&#45;&gt;node2</title>
<path fill="none" stroke="red" d="M337.62,-145.81C336.78,-137.79 336.55,-128.05 336.92,-119.07"/>
<polygon fill="red" stroke="red" points="340.42,-119.25 337.64,-109.03 333.44,-118.75 340.42,-119.25"/>
</g>
<!-- node3 -->
<g id="node4" class="node">
<title>node3</title>
<polygon fill="lightgrey" stroke="black" points="473.5,-36 213.5,-36 213.5,0 473.5,0 473.5,-36"/>
<text text-anchor="middle" x="343.5" y="-14.3" font-family="Times,serif" font-size="14.00">#3 ReturnValue : Object Order : 3</text>
</g>
<!-- node0&#45;&gt;node3 -->
<g id="edge8" class="edge">
<title>node0&#45;&gt;node3</title>
<path fill="none" stroke="green" d="M392.84,-145.9C409.94,-137.69 427.31,-125.84 437.5,-109 445.78,-95.31 445.78,-86.69 437.5,-73 429.14,-59.18 415.95,-48.73 402.04,-40.88"/>
<polygon fill="green" stroke="green" points="403.33,-37.61 392.84,-36.1 400.1,-43.82 403.33,-37.61"/>
</g>
<!-- node1&#45;&gt;node0 -->
<g id="edge1" class="edge">
<title>node1&#45;&gt;node0</title>
<path fill="none" stroke="fuchsia" stroke-width="2" d="M176.33,-109.11C210.07,-119.29 251.79,-132.25 285.13,-142.91"/>
<polygon fill="fuchsia" stroke="fuchsia" stroke-width="2" points="284.16,-146.27 294.75,-145.99 286.29,-139.61 284.16,-146.27"/>
</g>
<!-- node1&#45;&gt;node3 -->
<g id="edge6" class="edge">
<title>node1&#45;&gt;node3</title>
<path fill="none" stroke="black" d="M170.11,-72.99C202.73,-62.84 244.34,-49.88 278.62,-39.2"/>
<polygon fill="black" stroke="black" points="280.04,-42.43 288.54,-36.11 277.96,-35.75 280.04,-42.43"/>
<text text-anchor="middle" x="273.75" y="-45.87" font-family="Times,serif" font-size="14.00">*0</text>
</g>
<!-- node2&#45;&gt;node0 -->
<g id="edge3" class="edge">
<title>node2&#45;&gt;node0</title>
<path fill="none" stroke="fuchsia" stroke-width="2" d="M349.36,-109.03C350.21,-117.03 350.45,-126.77 350.09,-135.75"/>
<polygon fill="fuchsia" stroke="fuchsia" stroke-width="2" points="346.59,-135.59 349.38,-145.81 353.57,-136.08 346.59,-135.59"/>
</g>
<!-- node2&#45;&gt;node3 -->
<g id="edge7" class="edge">
<title>node2&#45;&gt;node3</title>
<path fill="none" stroke="red" d="M343.5,-72.81C343.5,-64.79 343.5,-55.05 343.5,-46.07"/>
<polygon fill="red" stroke="red" points="347,-46.03 343.5,-36.03 340,-46.03 347,-46.03"/>
</g>
<!-- node3&#45;&gt;node0 -->
<g id="edge5" class="edge">
<title>node3&#45;&gt;node0</title>
<path fill="none" stroke="fuchsia" stroke-width="2" d="M409.85,-36.1C427.94,-44.31 445.31,-56.16 455.5,-73 463.78,-86.69 463.78,-95.31 455.5,-109 447.06,-122.95 433.7,-133.47 419.08,-141.34"/>
<polygon fill="fuchsia" stroke="fuchsia" stroke-width="2" points="417.26,-138.34 409.85,-145.9 420.36,-144.61 417.26,-138.34"/>
</g>
<!-- c0 -->
<!-- c1 -->
<!-- c0&#45;&gt;c1 -->
<g id="edge9" class="edge">
<title>c0&#45;&gt;c1</title>
<path fill="none" stroke="red" d="M1295.39,-164C1306.61,-164 1364.74,-164 1390.36,-164"/>
<polygon fill="red" stroke="red" points="1390.56,-167.5 1400.56,-164 1390.56,-160.5 1390.56,-167.5"/>
<text text-anchor="middle" x="1348" y="-170.8" font-family="Times,serif" font-size="14.00">Control flow</text>
</g>
<!-- c2 -->
<!-- c3 -->
<!-- c2&#45;&gt;c3 -->
<g id="edge10" class="edge">
<title>c2&#45;&gt;c3</title>
<path fill="none" stroke="red" stroke-dasharray="5,2" d="M1088.58,-164C1105.55,-164 1221.71,-164 1259.58,-164"/>
<polygon fill="red" stroke="red" points="1259.67,-167.5 1269.67,-164 1259.67,-160.5 1259.67,-167.5"/>
<text text-anchor="middle" x="1179" y="-170.8" font-family="Times,serif" font-size="14.00">Control flow back edge</text>
</g>
<!-- d0 -->
<!-- d1 -->
<!-- d0&#45;&gt;d1 -->
<g id="edge11" class="edge">
<title>d0&#45;&gt;d1</title>
<path fill="none" stroke="black" d="M977.36,-164C986.91,-164 1030.81,-164 1052.42,-164"/>
<polygon fill="black" stroke="black" points="1052.65,-167.5 1062.65,-164 1052.65,-160.5 1052.65,-167.5"/>
<text text-anchor="middle" x="1020" y="-170.8" font-family="Times,serif" font-size="14.00">Data flow</text>
</g>
<!-- d2 -->
<!-- d3 -->
<!-- d2&#45;&gt;d3 -->
<g id="edge12" class="edge">
<title>d2&#45;&gt;d3</title>
<path fill="none" stroke="black" stroke-dasharray="1,5" d="M851.31,-164C861.96,-164 916.96,-164 941.58,-164"/>
<polygon fill="black" stroke="black" points="941.65,-167.5 951.65,-164 941.65,-160.5 941.65,-167.5"/>
<text text-anchor="middle" x="901.5" y="-170.8" font-family="Times,serif" font-size="14.00">Declaration</text>
</g>
<!-- d4 -->
<!-- d5 -->
<!-- d4&#45;&gt;d5 -->
<g id="edge13" class="edge">
<title>d4&#45;&gt;d5</title>
<path fill="none" stroke="blue" d="M708.6,-164C721.22,-164 787.38,-164 815.18,-164"/>
<polygon fill="blue" stroke="blue" points="815.34,-167.5 825.34,-164 815.34,-160.5 815.34,-167.5"/>
<text text-anchor="middle" x="767" y="-170.8" font-family="Times,serif" font-size="14.00">PHI Data flow</text>
</g>
<!-- d6 -->
<!-- d7 -->
<!-- d6&#45;&gt;d7 -->
<g id="edge14" class="edge">
<title>d6&#45;&gt;d7</title>
<path fill="none" stroke="green" d="M571.5,-164C583.44,-164 645.8,-164 672.43,-164"/>
<polygon fill="green" stroke="green" points="672.45,-167.5 682.45,-164 672.45,-160.5 672.45,-167.5"/>
<text text-anchor="middle" x="627" y="-170.8" font-family="Times,serif" font-size="14.00">Memory flow</text>
</g>
<!-- d8 -->
<!-- d9 -->
<!-- d8&#45;&gt;d9 -->
<g id="edge15" class="edge">
<title>d8&#45;&gt;d9</title>
<path fill="none" stroke="fuchsia" d="M448.61,-164C459.65,-164 511.17,-164 535.16,-164"/>
<polygon fill="fuchsia" stroke="fuchsia" points="535.4,-167.5 545.4,-164 535.4,-160.5 535.4,-167.5"/>
<text text-anchor="middle" x="497" y="-170.8" font-family="Times,serif" font-size="14.00">Dominance</text>
</g>
</g>
</svg>
