<?xml version="1.0" encoding="UTF-8" standalone="no"?>
<!DOCTYPE svg PUBLIC "-//W3C//DTD SVG 1.1//EN"
 "http://www.w3.org/Graphics/SVG/1.1/DTD/svg11.dtd">
<!-- Generated by graphviz version 2.43.0 (0)
 -->
<!-- Title: %3 Pages: 1 -->
<svg width="1105pt" height="432pt"
 viewBox="0.00 0.00 1104.50 431.80" xmlns="http://www.w3.org/2000/svg" xmlns:xlink="http://www.w3.org/1999/xlink">
<g id="graph0" class="graph" transform="scale(1 1) rotate(0) translate(4 427.8)">
<title>%3</title>
<polygon fill="white" stroke="transparent" points="-4,4 -4,-427.8 1100.5,-427.8 1100.5,4 -4,4"/>
<g id="clust1" class="cluster">
<title>cluster_000</title>
<polygon fill="none" stroke="black" points="752.5,-373.2 752.5,-415.8 1088.5,-415.8 1088.5,-373.2 752.5,-373.2"/>
<text text-anchor="middle" x="920.5" y="-400.6" font-family="Times,serif" font-size="14.00">Legend</text>
</g>
<!-- node0 -->
<g id="node1" class="node">
<title>node0</title>
<polygon fill="lightgrey" stroke="black" points="725,-401 0,-401 0,-365 725,-365 725,-401"/>
<text text-anchor="middle" x="362.5" y="-379.3" font-family="Times,serif" font-size="14.00">#0 LocalVariable[name=this, slot=0, type=Lde/mirkosertic/metair/ir/examples/TypeTest;] Order: 0</text>
</g>
<!-- node0&#45;&gt;node0 -->
<g id="edge1" class="edge">
<title>node0&#45;&gt;node0</title>
<path fill="none" stroke="fuchsia" d="M725.04,-386.63C736.49,-385.65 743,-384.44 743,-383 743,-382.05 740.2,-381.21 735.04,-380.46"/>
<polygon fill="fuchsia" stroke="fuchsia" points="735.36,-376.98 725.04,-379.37 734.6,-383.93 735.36,-376.98"/>
</g>
<!-- node1 -->
<g id="node2" class="node">
<title>node1</title>
<polygon fill="lightgrey" stroke="black" points="602,-328 123,-328 123,-292 602,-292 602,-328"/>
<text text-anchor="middle" x="362.5" y="-306.3" font-family="Times,serif" font-size="14.00">#1 Label[context=CodeModel[id=1958592872], bci=0] Order: 1</text>
</g>
<!-- node0&#45;&gt;node1 -->
<g id="edge2" class="edge">
<title>node0&#45;&gt;node1</title>
<path fill="none" stroke="red" d="M356.62,-364.81C355.78,-356.79 355.55,-347.05 355.92,-338.07"/>
<polygon fill="red" stroke="red" points="359.42,-338.25 356.64,-328.03 352.44,-337.75 359.42,-338.25"/>
</g>
<!-- node1&#45;&gt;node0 -->
<g id="edge3" class="edge">
<title>node1&#45;&gt;node0</title>
<path fill="none" stroke="fuchsia" d="M368.36,-328.03C369.21,-336.03 369.45,-345.77 369.09,-354.75"/>
<polygon fill="fuchsia" stroke="fuchsia" points="365.59,-354.59 368.38,-364.81 372.57,-355.08 365.59,-354.59"/>
</g>
<!-- node2 -->
<g id="node3" class="node">
<title>node2</title>
<polygon fill="lightgrey" stroke="black" points="494,-255 231,-255 231,-219 494,-219 494,-255"/>
<text text-anchor="middle" x="362.5" y="-233.3" font-family="Times,serif" font-size="14.00">#2 LineNumber[line=13] Order: 2</text>
</g>
<!-- node1&#45;&gt;node2 -->
<g id="edge4" class="edge">
<title>node1&#45;&gt;node2</title>
<path fill="none" stroke="red" d="M356.62,-291.81C355.78,-283.79 355.55,-274.05 355.92,-265.07"/>
<polygon fill="red" stroke="red" points="359.42,-265.25 356.64,-255.03 352.44,-264.75 359.42,-265.25"/>
</g>
<!-- node2&#45;&gt;node1 -->
<g id="edge5" class="edge">
<title>node2&#45;&gt;node1</title>
<path fill="none" stroke="fuchsia" d="M368.36,-255.03C369.21,-263.03 369.45,-272.77 369.09,-281.75"/>
<polygon fill="fuchsia" stroke="fuchsia" points="365.59,-281.59 368.38,-291.81 372.57,-282.08 365.59,-281.59"/>
</g>
<!-- node3 -->
<g id="node4" class="node">
<title>node3</title>
<polygon fill="lightgrey" stroke="black" points="564.5,-182 160.5,-182 160.5,-146 564.5,-146 564.5,-182"/>
<text text-anchor="middle" x="362.5" y="-160.3" font-family="Times,serif" font-size="14.00">#3 ArgumentConstant[OP=BIPUSH, val=10] Order: 3</text>
</g>
<!-- node2&#45;&gt;node3 -->
<g id="edge6" class="edge">
<title>node2&#45;&gt;node3</title>
<path fill="none" stroke="red" d="M356.62,-218.81C355.78,-210.79 355.55,-201.05 355.92,-192.07"/>
<polygon fill="red" stroke="red" points="359.42,-192.25 356.64,-182.03 352.44,-191.75 359.42,-192.25"/>
</g>
<!-- node3&#45;&gt;node2 -->
<g id="edge7" class="edge">
<title>node3&#45;&gt;node2</title>
<path fill="none" stroke="fuchsia" d="M368.36,-182.03C369.21,-190.03 369.45,-199.77 369.09,-208.75"/>
<polygon fill="fuchsia" stroke="fuchsia" points="365.59,-208.59 368.38,-218.81 372.57,-209.08 365.59,-208.59"/>
</g>
<!-- node4 -->
<g id="node5" class="node">
<title>node4</title>
<polygon fill="lightgrey" stroke="black" points="616.5,-109 108.5,-109 108.5,-73 616.5,-73 616.5,-109"/>
<text text-anchor="middle" x="362.5" y="-87.3" font-family="Times,serif" font-size="14.00">#4 NewRefArray[OP=ANEWARRAY, type=java/lang/Object] Order: 4</text>
</g>
<!-- node3&#45;&gt;node4 -->
<g id="edge8" class="edge">
<title>node3&#45;&gt;node4</title>
<path fill="none" stroke="red" d="M356.62,-145.81C355.78,-137.79 355.55,-128.05 355.92,-119.07"/>
<polygon fill="red" stroke="red" points="359.42,-119.25 356.64,-109.03 352.44,-118.75 359.42,-119.25"/>
</g>
<!-- node4&#45;&gt;node3 -->
<g id="edge9" class="edge">
<title>node4&#45;&gt;node3</title>
<path fill="none" stroke="fuchsia" d="M368.36,-109.03C369.21,-117.03 369.45,-126.77 369.09,-135.75"/>
<polygon fill="fuchsia" stroke="fuchsia" points="365.59,-135.59 368.38,-145.81 372.57,-136.08 365.59,-135.59"/>
</g>
<!-- node5 -->
<g id="node6" class="node">
<title>node5</title>
<polygon fill="lightgrey" stroke="black" points="499.5,-36 225.5,-36 225.5,0 499.5,0 499.5,-36"/>
<text text-anchor="middle" x="362.5" y="-14.3" font-family="Times,serif" font-size="14.00">#5 Return[OP=ARETURN] Order: 5</text>
</g>
<!-- node4&#45;&gt;node5 -->
<g id="edge10" class="edge">
<title>node4&#45;&gt;node5</title>
<path fill="none" stroke="red" d="M356.62,-72.81C355.78,-64.79 355.55,-55.05 355.92,-46.07"/>
<polygon fill="red" stroke="red" points="359.42,-46.25 356.64,-36.03 352.44,-45.75 359.42,-46.25"/>
</g>
<!-- node5&#45;&gt;node4 -->
<g id="edge11" class="edge">
<title>node5&#45;&gt;node4</title>
<path fill="none" stroke="fuchsia" d="M368.36,-36.03C369.21,-44.03 369.45,-53.77 369.09,-62.75"/>
<polygon fill="fuchsia" stroke="fuchsia" points="365.59,-62.59 368.38,-72.81 372.57,-63.08 365.59,-62.59"/>
</g>
<!-- c0 -->
<!-- c1 -->
<!-- c0&#45;&gt;c1 -->
<g id="edge12" class="edge">
<title>c0&#45;&gt;c1</title>
<path fill="none" stroke="red" d="M971.39,-383C982.61,-383 1040.74,-383 1066.36,-383"/>
<polygon fill="red" stroke="red" points="1066.56,-386.5 1076.56,-383 1066.56,-379.5 1066.56,-386.5"/>
<text text-anchor="middle" x="1024" y="-389.8" font-family="Times,serif" font-size="14.00">Control flow</text>
</g>
<!-- c2 -->
<!-- c3 -->
<!-- c2&#45;&gt;c3 -->
<g id="edge13" class="edge">
<title>c2&#45;&gt;c3</title>
<path fill="none" stroke="red" stroke-dasharray="5,2" d="M764.58,-383C781.55,-383 897.71,-383 935.58,-383"/>
<polygon fill="red" stroke="red" points="935.67,-386.5 945.67,-383 935.67,-379.5 935.67,-386.5"/>
<text text-anchor="middle" x="855" y="-389.8" font-family="Times,serif" font-size="14.00">Control flow back edge</text>
</g>
</g>
</svg>
