<?xml version="1.0" encoding="UTF-8" standalone="no"?>
<!DOCTYPE svg PUBLIC "-//W3C//DTD SVG 1.1//EN"
 "http://www.w3.org/Graphics/SVG/1.1/DTD/svg11.dtd">
<!-- Generated by graphviz version 2.43.0 (0)
 -->
<!-- Title: %3 Pages: 1 -->
<svg width="1122pt" height="368pt"
 viewBox="0.00 0.00 1122.15 367.80" xmlns="http://www.w3.org/2000/svg" xmlns:xlink="http://www.w3.org/1999/xlink">
<g id="graph0" class="graph" transform="scale(1 1) rotate(0) translate(4 363.8)">
<title>%3</title>
<polygon fill="white" stroke="transparent" points="-4,4 -4,-363.8 1118.15,-363.8 1118.15,4 -4,4"/>
<g id="clust1" class="cluster">
<title>cluster_0</title>
<polygon fill="none" stroke="lightgray" points="116.15,-138 116.15,-263 252.15,-263 252.15,-138 116.15,-138"/>
</g>
<g id="clust2" class="cluster">
<title>cluster_000</title>
<polygon fill="none" stroke="black" points="253.15,-309.2 253.15,-351.8 1106.15,-351.8 1106.15,-309.2 253.15,-309.2"/>
<text text-anchor="middle" x="679.65" y="-336.6" font-family="Times,serif" font-size="14.00">Legend</text>
</g>
<!-- node0 -->
<g id="node1" class="node">
<title>node0</title>
<polygon fill="lightgrey" stroke="transparent" points="243.15,-346 125.15,-346 125.15,-292 243.15,-292 243.15,-346"/>
<polygon fill="none" stroke="black" points="125.15,-319 125.15,-346 243.15,-346 243.15,-319 125.15,-319"/>
<text text-anchor="start" x="143.65" y="-328.8" font-family="Times,serif" font-size="14.00">#0 Method</text>
<polygon fill="yellow" stroke="transparent" points="125.15,-292 125.15,-319 243.15,-319 243.15,-292 125.15,-292"/>
<polygon fill="none" stroke="black" points="125.15,-292 125.15,-319 243.15,-319 243.15,-292 125.15,-292"/>
<text text-anchor="start" x="131.15" y="-301.8" font-family="Times,serif" font-size="14.00">this : TypeTest</text>
</g>
<!-- node2 -->
<g id="node2" class="node">
<title>node2</title>
<polygon fill="lightgrey" stroke="black" points="243.65,-255 124.65,-255 124.65,-219 243.65,-219 243.65,-255"/>
<text text-anchor="middle" x="184.15" y="-233.3" font-family="Times,serif" font-size="14.00">#2 LabelNode</text>
</g>
<!-- node0&#45;&gt;node2 -->
<g id="edge1" class="edge">
<title>node0&#45;&gt;node2</title>
<path fill="none" stroke="red" d="M184.15,-291.81C184.15,-283.35 184.15,-273.95 184.15,-265.4"/>
<polygon fill="red" stroke="red" points="187.65,-265.17 184.15,-255.17 180.65,-265.17 187.65,-265.17"/>
</g>
<!-- node4 -->
<g id="node4" class="node">
<title>node4</title>
<polygon fill="orange" stroke="black" points="260.44,-83.54 260.44,-98.46 184.11,-109 76.18,-109 -0.15,-98.46 -0.15,-83.54 76.18,-73 184.11,-73 260.44,-83.54"/>
<text text-anchor="middle" x="130.15" y="-87.3" font-family="Times,serif" font-size="14.00">#4 NewArray : Object[]</text>
</g>
<!-- node0&#45;&gt;node4 -->
<g id="edge4" class="edge">
<title>node0&#45;&gt;node4</title>
<path fill="none" stroke="green" d="M231.54,-291.75C241.45,-283.88 250.57,-274.28 256.15,-263 280.77,-213.2 287.99,-183.52 256.15,-138 247.28,-125.32 234.52,-116.12 220.5,-109.46"/>
<polygon fill="green" stroke="green" points="221.7,-106.16 211.13,-105.43 218.93,-112.59 221.7,-106.16"/>
</g>
<!-- node3 -->
<g id="node3" class="node">
<title>node3</title>
<polygon fill="lightgreen" stroke="black" points="242.33,-156.54 242.33,-171.46 207.66,-182 158.63,-182 123.96,-171.46 123.96,-156.54 158.63,-146 207.66,-146 242.33,-156.54"/>
<text text-anchor="middle" x="183.15" y="-160.3" font-family="Times,serif" font-size="14.00">#3 int 10</text>
</g>
<!-- node2&#45;&gt;node3 -->
<g id="edge2" class="edge">
<title>node2&#45;&gt;node3</title>
<path fill="none" stroke="black" stroke-dasharray="1,5" d="M183.9,-218.81C183.79,-210.79 183.65,-201.05 183.53,-192.07"/>
<polygon fill="black" stroke="black" points="187.03,-191.98 183.39,-182.03 180.03,-192.08 187.03,-191.98"/>
</g>
<!-- node5 -->
<g id="node5" class="node">
<title>node5</title>
<polygon fill="lightgrey" stroke="black" points="304.65,-36 113.65,-36 113.65,0 304.65,0 304.65,-36"/>
<text text-anchor="middle" x="209.15" y="-14.3" font-family="Times,serif" font-size="14.00">#5 ReturnValue : Object</text>
</g>
<!-- node2&#45;&gt;node5 -->
<g id="edge6" class="edge">
<title>node2&#45;&gt;node5</title>
<path fill="none" stroke="red" d="M213.31,-218.8C226.7,-209.5 241.68,-196.87 251.15,-182 269.1,-153.81 265.12,-142.17 269.15,-109 271.08,-93.12 275.66,-87.62 269.15,-73 263.88,-61.18 254.61,-50.86 244.91,-42.5"/>
<polygon fill="red" stroke="red" points="247.09,-39.76 237.1,-36.22 242.7,-45.22 247.09,-39.76"/>
</g>
<!-- node3&#45;&gt;node4 -->
<g id="edge3" class="edge">
<title>node3&#45;&gt;node4</title>
<path fill="none" stroke="black" d="M170.32,-145.81C163.94,-137.27 156.1,-126.77 149.05,-117.32"/>
<polygon fill="black" stroke="black" points="151.64,-114.95 142.86,-109.03 146.04,-119.14 151.64,-114.95"/>
<text text-anchor="middle" x="160.47" y="-114.8" font-family="Times,serif" font-size="14.00">*0</text>
</g>
<!-- node4&#45;&gt;node5 -->
<g id="edge5" class="edge">
<title>node4&#45;&gt;node5</title>
<path fill="none" stroke="black" d="M143.39,-72.81C152.53,-63.74 164.9,-52.48 176.49,-42.6"/>
<polygon fill="black" stroke="black" points="178.91,-45.13 184.34,-36.03 174.42,-39.76 178.91,-45.13"/>
<text text-anchor="middle" x="175.86" y="-50.44" font-family="Times,serif" font-size="14.00">*0</text>
</g>
<!-- node4&#45;&gt;node5 -->
<g id="edge7" class="edge">
<title>node4&#45;&gt;node5</title>
<path fill="none" stroke="green" d="M155.15,-72.81C165.98,-63.92 178.41,-52.91 188.69,-43.17"/>
<polygon fill="green" stroke="green" points="191.31,-45.5 196.06,-36.03 186.44,-40.47 191.31,-45.5"/>
</g>
<!-- c0 -->
<!-- c1 -->
<!-- c0&#45;&gt;c1 -->
<g id="edge8" class="edge">
<title>c0&#45;&gt;c1</title>
<path fill="none" stroke="red" d="M989.04,-319C1000.25,-319 1058.39,-319 1084,-319"/>
<polygon fill="red" stroke="red" points="1084.2,-322.5 1094.2,-319 1084.2,-315.5 1084.2,-322.5"/>
<text text-anchor="middle" x="1041.65" y="-325.8" font-family="Times,serif" font-size="14.00">Control flow</text>
</g>
<!-- c2 -->
<!-- c3 -->
<!-- c2&#45;&gt;c3 -->
<g id="edge9" class="edge">
<title>c2&#45;&gt;c3</title>
<path fill="none" stroke="red" stroke-dasharray="5,2" d="M782.22,-319C799.19,-319 915.35,-319 953.23,-319"/>
<polygon fill="red" stroke="red" points="953.32,-322.5 963.32,-319 953.32,-315.5 953.32,-322.5"/>
<text text-anchor="middle" x="872.65" y="-325.8" font-family="Times,serif" font-size="14.00">Control flow back edge</text>
</g>
<!-- d0 -->
<!-- d1 -->
<!-- d0&#45;&gt;d1 -->
<g id="edge10" class="edge">
<title>d0&#45;&gt;d1</title>
<path fill="none" stroke="black" d="M671.01,-319C680.55,-319 724.46,-319 746.06,-319"/>
<polygon fill="black" stroke="black" points="746.3,-322.5 756.3,-319 746.3,-315.5 746.3,-322.5"/>
<text text-anchor="middle" x="713.65" y="-325.8" font-family="Times,serif" font-size="14.00">Data flow</text>
</g>
<!-- d2 -->
<!-- d3 -->
<!-- d2&#45;&gt;d3 -->
<g id="edge11" class="edge">
<title>d2&#45;&gt;d3</title>
<path fill="none" stroke="black" stroke-dasharray="1,5" d="M544.95,-319C555.6,-319 610.61,-319 635.22,-319"/>
<polygon fill="black" stroke="black" points="635.29,-322.5 645.29,-319 635.29,-315.5 635.29,-322.5"/>
<text text-anchor="middle" x="595.15" y="-325.8" font-family="Times,serif" font-size="14.00">Declaration</text>
</g>
<!-- d4 -->
<!-- d5 -->
<!-- d4&#45;&gt;d5 -->
<g id="edge12" class="edge">
<title>d4&#45;&gt;d5</title>
<path fill="none" stroke="blue" d="M402.25,-319C414.87,-319 481.03,-319 508.83,-319"/>
<polygon fill="blue" stroke="blue" points="508.99,-322.5 518.99,-319 508.99,-315.5 508.99,-322.5"/>
<text text-anchor="middle" x="460.65" y="-325.8" font-family="Times,serif" font-size="14.00">PHI Data flow</text>
</g>
<!-- d6 -->
<!-- d7 -->
<!-- d6&#45;&gt;d7 -->
<g id="edge13" class="edge">
<title>d6&#45;&gt;d7</title>
<path fill="none" stroke="green" d="M265.14,-319C277.08,-319 339.45,-319 366.07,-319"/>
<polygon fill="green" stroke="green" points="366.1,-322.5 376.1,-319 366.1,-315.5 366.1,-322.5"/>
<text text-anchor="middle" x="320.65" y="-325.8" font-family="Times,serif" font-size="14.00">Memory flow</text>
</g>
</g>
</svg>
