<?xml version="1.0" encoding="UTF-8" standalone="no"?>
<!DOCTYPE svg PUBLIC "-//W3C//DTD SVG 1.1//EN"
 "http://www.w3.org/Graphics/SVG/1.1/DTD/svg11.dtd">
<!-- Generated by graphviz version 2.43.0 (0)
 -->
<!-- Title: debugoutput Pages: 1 -->
<svg width="1276pt" height="359pt"
 viewBox="0.00 0.00 1276.00 358.80" xmlns="http://www.w3.org/2000/svg" xmlns:xlink="http://www.w3.org/1999/xlink">
<g id="graph0" class="graph" transform="scale(1 1) rotate(0) translate(4 354.8)">
<title>debugoutput</title>
<polygon fill="white" stroke="transparent" points="-4,4 -4,-354.8 1272,-354.8 1272,4 -4,4"/>
<g id="clust1" class="cluster">
<title>cluster_000</title>
<polygon fill="none" stroke="black" points="421,-300.2 421,-342.8 1260,-342.8 1260,-300.2 421,-300.2"/>
<text text-anchor="middle" x="840.5" y="-327.6" font-family="Times,serif" font-size="14.00">Legend</text>
</g>
<!-- node0 -->
<g id="node1" class="node">
<title>node0</title>
<polygon fill="lightgrey" stroke="black" points="411,-328 245,-328 245,-292 411,-292 411,-328"/>
<text text-anchor="middle" x="328" y="-306.3" font-family="Times,serif" font-size="14.00">#0 Method Order : 0</text>
</g>
<!-- node1 -->
<g id="node2" class="node">
<title>node1</title>
<polygon fill="lightgrey" stroke="black" points="216,-255 0,-255 0,-219 216,-219 216,-255"/>
<text text-anchor="middle" x="108" y="-233.3" font-family="Times,serif" font-size="14.00">#1 this : TypeTest Order : 5</text>
</g>
<!-- node0&#45;&gt;node1 -->
<g id="edge2" class="edge">
<title>node0&#45;&gt;node1</title>
<path fill="none" stroke="black" d="M269.45,-291.99C237.04,-281.88 196.99,-268.99 164.86,-258.34"/>
<polygon fill="black" stroke="black" points="165.75,-254.95 155.16,-255.11 163.54,-261.59 165.75,-254.95"/>
<text text-anchor="middle" x="175.03" y="-249.12" font-family="Times,serif" font-size="14.00">*0</text>
</g>
<!-- node2 -->
<g id="node3" class="node">
<title>node2</title>
<polygon fill="lightgrey" stroke="black" points="422,-255 234,-255 234,-219 422,-219 422,-255"/>
<text text-anchor="middle" x="328" y="-233.3" font-family="Times,serif" font-size="14.00">#2 LabelNode Order : 1</text>
</g>
<!-- node0&#45;&gt;node2 -->
<g id="edge4" class="edge">
<title>node0&#45;&gt;node2</title>
<path fill="none" stroke="red" d="M322.12,-291.81C321.28,-283.79 321.05,-274.05 321.42,-265.07"/>
<polygon fill="red" stroke="red" points="324.92,-265.25 322.14,-255.03 317.94,-264.75 324.92,-265.25"/>
</g>
<!-- node4 -->
<g id="node5" class="node">
<title>node4</title>
<polygon fill="orange" stroke="black" points="567.87,-83.54 567.87,-98.46 463.09,-109 314.91,-109 210.13,-98.46 210.13,-83.54 314.91,-73 463.09,-73 567.87,-83.54"/>
<text text-anchor="middle" x="389" y="-87.3" font-family="Times,serif" font-size="14.00">#4 NewArray : Object[] Order : 3</text>
</g>
<!-- node0&#45;&gt;node4 -->
<g id="edge9" class="edge">
<title>node0&#45;&gt;node4</title>
<path fill="none" stroke="black" d="M376.03,-291.95C393.34,-283.7 411.19,-271.81 422,-255 448.21,-214.22 442.75,-191.49 426,-146 422.07,-135.32 414.97,-125.31 407.94,-116.88"/>
<polygon fill="black" stroke="black" points="410.54,-114.53 401.32,-109.31 405.27,-119.14 410.54,-114.53"/>
</g>
<!-- node1&#45;&gt;node0 -->
<g id="edge1" class="edge">
<title>node1&#45;&gt;node0</title>
<path fill="none" stroke="green" stroke-width="2" d="M166.9,-255.11C199.36,-265.25 239.4,-278.14 271.48,-288.77"/>
<polygon fill="green" stroke="green" stroke-width="2" points="270.57,-292.16 281.16,-291.99 272.78,-285.52 270.57,-292.16"/>
</g>
<!-- node2&#45;&gt;node0 -->
<g id="edge3" class="edge">
<title>node2&#45;&gt;node0</title>
<path fill="none" stroke="green" stroke-width="2" d="M333.86,-255.03C334.71,-263.03 334.95,-272.77 334.59,-281.75"/>
<polygon fill="green" stroke="green" stroke-width="2" points="331.09,-281.59 333.88,-291.81 338.07,-282.08 331.09,-281.59"/>
</g>
<!-- node3 -->
<g id="node4" class="node">
<title>node3</title>
<polygon fill="lightgreen" stroke="black" points="425.77,-156.54 425.77,-171.46 362.64,-182 273.36,-182 210.23,-171.46 210.23,-156.54 273.36,-146 362.64,-146 425.77,-156.54"/>
<text text-anchor="middle" x="318" y="-160.3" font-family="Times,serif" font-size="14.00">#3 int 10 Order : 2</text>
</g>
<!-- node2&#45;&gt;node3 -->
<g id="edge6" class="edge">
<title>node2&#45;&gt;node3</title>
<path fill="none" stroke="black" stroke-dasharray="1,5" d="M319.7,-218.81C317.73,-210.79 316.13,-201.05 315.23,-192.07"/>
<polygon fill="black" stroke="black" points="318.72,-191.76 314.54,-182.03 311.74,-192.25 318.72,-191.76"/>
</g>
<!-- node5 -->
<g id="node6" class="node">
<title>node5</title>
<polygon fill="lightgrey" stroke="black" points="519,-36 259,-36 259,0 519,0 519,-36"/>
<text text-anchor="middle" x="389" y="-14.3" font-family="Times,serif" font-size="14.00">#5 ReturnValue : Object Order : 4</text>
</g>
<!-- node2&#45;&gt;node5 -->
<g id="edge12" class="edge">
<title>node2&#45;&gt;node5</title>
<path fill="none" stroke="red" d="M249.41,-218.92C230.43,-210.92 212.37,-199.19 201,-182 174.27,-141.59 171.85,-111.7 201,-73 211.69,-58.81 245.06,-47.19 280.78,-38.42"/>
<polygon fill="red" stroke="red" points="281.98,-41.73 290.9,-36.02 280.37,-34.92 281.98,-41.73"/>
</g>
<!-- node3&#45;&gt;node2 -->
<g id="edge5" class="edge">
<title>node3&#45;&gt;node2</title>
<path fill="none" stroke="green" stroke-width="2" d="M326.26,-182.03C328.23,-190.03 329.85,-199.77 330.75,-208.75"/>
<polygon fill="green" stroke="green" stroke-width="2" points="327.26,-209.08 331.46,-218.81 334.24,-208.59 327.26,-209.08"/>
</g>
<!-- node3&#45;&gt;node4 -->
<g id="edge8" class="edge">
<title>node3&#45;&gt;node4</title>
<path fill="none" stroke="black" d="M335.19,-145.81C344.08,-136.92 355.09,-125.91 364.83,-116.17"/>
<polygon fill="black" stroke="black" points="367.37,-118.57 371.97,-109.03 362.43,-113.63 367.37,-118.57"/>
<text text-anchor="middle" x="365.13" y="-124.12" font-family="Times,serif" font-size="14.00">*0</text>
</g>
<!-- node4&#45;&gt;node0 -->
<g id="edge7" class="edge">
<title>node4&#45;&gt;node0</title>
<path fill="none" stroke="green" stroke-width="2" d="M417.11,-109.07C427.94,-118.76 438.77,-131.78 444,-146 460.75,-191.49 466.21,-214.22 440,-255 431.05,-268.92 417.27,-279.47 402.37,-287.37"/>
<polygon fill="green" stroke="green" stroke-width="2" points="400.44,-284.42 392.99,-291.95 403.51,-290.71 400.44,-284.42"/>
</g>
<!-- node4&#45;&gt;node5 -->
<g id="edge11" class="edge">
<title>node4&#45;&gt;node5</title>
<path fill="none" stroke="black" d="M383.12,-72.81C382.28,-64.79 382.05,-55.05 382.42,-46.07"/>
<polygon fill="black" stroke="black" points="385.92,-46.25 383.14,-36.03 378.94,-45.75 385.92,-46.25"/>
<text text-anchor="middle" x="390.28" y="-51.01" font-family="Times,serif" font-size="14.00">*0</text>
</g>
<!-- node4&#45;&gt;node5 -->
<g id="edge13" class="edge">
<title>node4&#45;&gt;node5</title>
<path fill="none" stroke="black" d="M394.88,-72.81C395.72,-64.79 395.95,-55.05 395.58,-46.07"/>
<polygon fill="black" stroke="black" points="399.06,-45.75 394.86,-36.03 392.08,-46.25 399.06,-45.75"/>
</g>
<!-- node5&#45;&gt;node0 -->
<g id="edge10" class="edge">
<title>node5&#45;&gt;node0</title>
<path fill="none" stroke="green" stroke-width="2" d="M491.59,-36.06C543.64,-47.73 596,-65.54 596,-90 596,-238 596,-238 596,-238 596,-247.48 494.54,-272.17 416.48,-289.77"/>
<polygon fill="green" stroke="green" stroke-width="2" points="415.59,-286.38 406.6,-291.99 417.12,-293.21 415.59,-286.38"/>
</g>
<!-- c0 -->
<!-- c1 -->
<!-- c0&#45;&gt;c1 -->
<g id="edge14" class="edge">
<title>c0&#45;&gt;c1</title>
<path fill="none" stroke="red" d="M1142.89,-310C1154.11,-310 1212.24,-310 1237.86,-310"/>
<polygon fill="red" stroke="red" points="1238.06,-313.5 1248.06,-310 1238.06,-306.5 1238.06,-313.5"/>
<text text-anchor="middle" x="1195.5" y="-316.8" font-family="Times,serif" font-size="14.00">Control flow</text>
</g>
<!-- c2 -->
<!-- c3 -->
<!-- c2&#45;&gt;c3 -->
<g id="edge15" class="edge">
<title>c2&#45;&gt;c3</title>
<path fill="none" stroke="red" stroke-dasharray="5,2" d="M936.08,-310C953.05,-310 1069.21,-310 1107.08,-310"/>
<polygon fill="red" stroke="red" points="1107.17,-313.5 1117.17,-310 1107.17,-306.5 1107.17,-313.5"/>
<text text-anchor="middle" x="1026.5" y="-316.8" font-family="Times,serif" font-size="14.00">Control flow back edge</text>
</g>
<!-- d0 -->
<!-- d1 -->
<!-- d0&#45;&gt;d1 -->
<g id="edge16" class="edge">
<title>d0&#45;&gt;d1</title>
<path fill="none" stroke="black" d="M824.86,-310C834.41,-310 878.31,-310 899.92,-310"/>
<polygon fill="black" stroke="black" points="900.15,-313.5 910.15,-310 900.15,-306.5 900.15,-313.5"/>
<text text-anchor="middle" x="867.5" y="-316.8" font-family="Times,serif" font-size="14.00">Data flow</text>
</g>
<!-- d2 -->
<!-- d3 -->
<!-- d2&#45;&gt;d3 -->
<g id="edge17" class="edge">
<title>d2&#45;&gt;d3</title>
<path fill="none" stroke="black" stroke-dasharray="1,5" d="M698.81,-310C709.46,-310 764.46,-310 789.08,-310"/>
<polygon fill="black" stroke="black" points="789.15,-313.5 799.15,-310 789.15,-306.5 789.15,-313.5"/>
<text text-anchor="middle" x="749" y="-316.8" font-family="Times,serif" font-size="14.00">Declaration</text>
</g>
<!-- d4 -->
<!-- d5 -->
<!-- d4&#45;&gt;d5 -->
<g id="edge18" class="edge">
<title>d4&#45;&gt;d5</title>
<path fill="none" stroke="blue" d="M556.1,-310C568.72,-310 634.88,-310 662.68,-310"/>
<polygon fill="blue" stroke="blue" points="662.84,-313.5 672.84,-310 662.84,-306.5 662.84,-313.5"/>
<text text-anchor="middle" x="614.5" y="-316.8" font-family="Times,serif" font-size="14.00">PHI Data flow</text>
</g>
<!-- d6 -->
<!-- d7 -->
<!-- d6&#45;&gt;d7 -->
<g id="edge19" class="edge">
<title>d6&#45;&gt;d7</title>
<path fill="none" stroke="green" d="M433.11,-310C444.15,-310 495.67,-310 519.66,-310"/>
<polygon fill="green" stroke="green" points="519.9,-313.5 529.9,-310 519.9,-306.5 519.9,-313.5"/>
<text text-anchor="middle" x="481.5" y="-316.8" font-family="Times,serif" font-size="14.00">Dominance</text>
</g>
</g>
</svg>
