<?xml version="1.0" encoding="UTF-8" standalone="no"?>
<!DOCTYPE svg PUBLIC "-//W3C//DTD SVG 1.1//EN"
 "http://www.w3.org/Graphics/SVG/1.1/DTD/svg11.dtd">
<!-- Generated by graphviz version 2.43.0 (0)
 -->
<!-- Title: %3 Pages: 1 -->
<svg width="1091pt" height="224pt"
 viewBox="0.00 0.00 1091.00 224.00" xmlns="http://www.w3.org/2000/svg" xmlns:xlink="http://www.w3.org/1999/xlink">
<g id="graph0" class="graph" transform="scale(1 1) rotate(0) translate(4 220)">
<title>%3</title>
<polygon fill="white" stroke="transparent" points="-4,4 -4,-220 1087,-220 1087,4 -4,4"/>
<g id="clust1" class="cluster">
<title>cluster_0</title>
<polygon fill="none" stroke="lightgray" points="8,-65 8,-208 214,-208 214,-65 8,-65"/>
</g>
<g id="clust2" class="cluster">
<title>cluster_000</title>
<polygon fill="none" stroke="black" points="222,-163.2 222,-205.8 1075,-205.8 1075,-163.2 222,-163.2"/>
<text text-anchor="middle" x="648.5" y="-190.6" font-family="Times,serif" font-size="14.00">Legend</text>
</g>
<!-- node0 -->
<g id="node1" class="node">
<title>node0</title>
<polygon fill="lightgrey" stroke="transparent" points="188,-200 70,-200 70,-146 188,-146 188,-200"/>
<polygon fill="none" stroke="black" points="70,-173 70,-200 188,-200 188,-173 70,-173"/>
<text text-anchor="start" x="88.5" y="-182.8" font-family="Times,serif" font-size="14.00">#0 Method</text>
<polygon fill="yellow" stroke="transparent" points="70,-146 70,-173 188,-173 188,-146 70,-146"/>
<polygon fill="none" stroke="black" points="70,-146 70,-173 188,-173 188,-146 70,-146"/>
<text text-anchor="start" x="76" y="-155.8" font-family="Times,serif" font-size="14.00">this : TypeTest</text>
</g>
<!-- node2 -->
<g id="node2" class="node">
<title>node2</title>
<polygon fill="lightgrey" stroke="black" points="342.5,-109 223.5,-109 223.5,-73 342.5,-73 342.5,-109"/>
<text text-anchor="middle" x="283" y="-87.3" font-family="Times,serif" font-size="14.00">#2 LabelNode</text>
</g>
<!-- node0&#45;&gt;node2 -->
<g id="edge1" class="edge">
<title>node0&#45;&gt;node2</title>
<path fill="none" stroke="red" d="M179.43,-145.81C199.33,-135.47 221.93,-123.73 240.93,-113.86"/>
<polygon fill="red" stroke="red" points="242.68,-116.89 249.94,-109.17 239.45,-110.68 242.68,-116.89"/>
</g>
<!-- node4 -->
<g id="node3" class="node">
<title>node4</title>
<polygon fill="lightgrey" stroke="black" points="291.5,-36 100.5,-36 100.5,0 291.5,0 291.5,-36"/>
<text text-anchor="middle" x="196" y="-14.3" font-family="Times,serif" font-size="14.00">#4 ReturnValue : Object</text>
</g>
<!-- node0&#45;&gt;node4 -->
<g id="edge4" class="edge">
<title>node0&#45;&gt;node4</title>
<path fill="none" stroke="green" d="M188.33,-154.54C198.23,-151.66 208.4,-148.73 218,-146 277.43,-129.11 314.57,-158.16 352,-109 363.85,-93.44 363.71,-80.66 352,-65 344.24,-54.62 322,-45.77 296.65,-38.69"/>
<polygon fill="green" stroke="green" points="297.37,-35.26 286.81,-36.06 295.56,-42.03 297.37,-35.26"/>
</g>
<!-- node3 -->
<g id="node4" class="node">
<title>node3</title>
<polygon fill="lightgreen" stroke="black" points="205.94,-83.54 205.94,-98.46 150.33,-109 71.67,-109 16.06,-98.46 16.06,-83.54 71.67,-73 150.33,-73 205.94,-83.54"/>
<text text-anchor="middle" x="111" y="-87.3" font-family="Times,serif" font-size="14.00">#3 String : hello</text>
</g>
<!-- node0&#45;&gt;node3 -->
<g id="edge5" class="edge">
<title>node0&#45;&gt;node3</title>
<path fill="none" stroke="black" stroke-dasharray="1,5" d="M123.11,-145.81C121.18,-137.25 119.04,-127.74 117.1,-119.12"/>
<polygon fill="black" stroke="black" points="120.47,-118.16 114.86,-109.17 113.64,-119.7 120.47,-118.16"/>
</g>
<!-- node2&#45;&gt;node4 -->
<g id="edge3" class="edge">
<title>node2&#45;&gt;node4</title>
<path fill="none" stroke="red" d="M261.94,-72.81C250.83,-63.74 237.02,-52.48 224.92,-42.6"/>
<polygon fill="red" stroke="red" points="226.83,-39.64 216.87,-36.03 222.4,-45.06 226.83,-39.64"/>
</g>
<!-- node3&#45;&gt;node4 -->
<g id="edge2" class="edge">
<title>node3&#45;&gt;node4</title>
<path fill="none" stroke="black" d="M131.58,-72.81C142.43,-63.74 155.92,-52.48 167.75,-42.6"/>
<polygon fill="black" stroke="black" points="170.18,-45.13 175.61,-36.03 165.69,-39.75 170.18,-45.13"/>
<text text-anchor="middle" x="167.12" y="-50.44" font-family="Times,serif" font-size="14.00">*0</text>
</g>
<!-- c0 -->
<!-- c1 -->
<!-- c0&#45;&gt;c1 -->
<g id="edge6" class="edge">
<title>c0&#45;&gt;c1</title>
<path fill="none" stroke="red" d="M957.89,-173C969.11,-173 1027.24,-173 1052.86,-173"/>
<polygon fill="red" stroke="red" points="1053.06,-176.5 1063.06,-173 1053.06,-169.5 1053.06,-176.5"/>
<text text-anchor="middle" x="1010.5" y="-179.8" font-family="Times,serif" font-size="14.00">Control flow</text>
</g>
<!-- c2 -->
<!-- c3 -->
<!-- c2&#45;&gt;c3 -->
<g id="edge7" class="edge">
<title>c2&#45;&gt;c3</title>
<path fill="none" stroke="red" stroke-dasharray="5,2" d="M751.08,-173C768.05,-173 884.21,-173 922.08,-173"/>
<polygon fill="red" stroke="red" points="922.17,-176.5 932.17,-173 922.17,-169.5 922.17,-176.5"/>
<text text-anchor="middle" x="841.5" y="-179.8" font-family="Times,serif" font-size="14.00">Control flow back edge</text>
</g>
<!-- d0 -->
<!-- d1 -->
<!-- d0&#45;&gt;d1 -->
<g id="edge8" class="edge">
<title>d0&#45;&gt;d1</title>
<path fill="none" stroke="black" d="M639.86,-173C649.41,-173 693.31,-173 714.92,-173"/>
<polygon fill="black" stroke="black" points="715.15,-176.5 725.15,-173 715.15,-169.5 715.15,-176.5"/>
<text text-anchor="middle" x="682.5" y="-179.8" font-family="Times,serif" font-size="14.00">Data flow</text>
</g>
<!-- d2 -->
<!-- d3 -->
<!-- d2&#45;&gt;d3 -->
<g id="edge9" class="edge">
<title>d2&#45;&gt;d3</title>
<path fill="none" stroke="black" stroke-dasharray="1,5" d="M513.81,-173C524.46,-173 579.46,-173 604.08,-173"/>
<polygon fill="black" stroke="black" points="604.15,-176.5 614.15,-173 604.15,-169.5 604.15,-176.5"/>
<text text-anchor="middle" x="564" y="-179.8" font-family="Times,serif" font-size="14.00">Declaration</text>
</g>
<!-- d4 -->
<!-- d5 -->
<!-- d4&#45;&gt;d5 -->
<g id="edge10" class="edge">
<title>d4&#45;&gt;d5</title>
<path fill="none" stroke="blue" d="M371.1,-173C383.72,-173 449.88,-173 477.68,-173"/>
<polygon fill="blue" stroke="blue" points="477.84,-176.5 487.84,-173 477.84,-169.5 477.84,-176.5"/>
<text text-anchor="middle" x="429.5" y="-179.8" font-family="Times,serif" font-size="14.00">PHI Data flow</text>
</g>
<!-- d6 -->
<!-- d7 -->
<!-- d6&#45;&gt;d7 -->
<g id="edge11" class="edge">
<title>d6&#45;&gt;d7</title>
<path fill="none" stroke="green" d="M234,-173C245.94,-173 308.3,-173 334.93,-173"/>
<polygon fill="green" stroke="green" points="334.95,-176.5 344.95,-173 334.95,-169.5 334.95,-176.5"/>
<text text-anchor="middle" x="289.5" y="-179.8" font-family="Times,serif" font-size="14.00">Memory flow</text>
</g>
</g>
</svg>
