<?xml version="1.0" encoding="UTF-8" standalone="no"?>
<!DOCTYPE svg PUBLIC "-//W3C//DTD SVG 1.1//EN"
 "http://www.w3.org/Graphics/SVG/1.1/DTD/svg11.dtd">
<!-- Generated by graphviz version 2.43.0 (0)
 -->
<!-- Title: %3 Pages: 1 -->
<svg width="1091pt" height="224pt"
 viewBox="0.00 0.00 1091.00 224.00" xmlns="http://www.w3.org/2000/svg" xmlns:xlink="http://www.w3.org/1999/xlink">
<g id="graph0" class="graph" transform="scale(1 1) rotate(0) translate(4 220)">
<title>%3</title>
<polygon fill="white" stroke="transparent" points="-4,4 -4,-220 1087,-220 1087,4 -4,4"/>
<g id="clust1" class="cluster">
<title>cluster_0</title>
<polygon fill="none" stroke="lightgray" points="8,-65 8,-208 214,-208 214,-65 8,-65"/>
</g>
<g id="clust2" class="cluster">
<title>cluster_000</title>
<polygon fill="none" stroke="black" points="222,-163.2 222,-205.8 1075,-205.8 1075,-163.2 222,-163.2"/>
<text text-anchor="middle" x="648.5" y="-190.6" font-family="Times,serif" font-size="14.00">Legend</text>
</g>
<!-- node0 -->
<g id="node1" class="node">
<title>node0</title>
<polygon fill="lightgrey" stroke="transparent" points="196,-200 78,-200 78,-146 196,-146 196,-200"/>
<polygon fill="none" stroke="black" points="78,-173 78,-200 196,-200 196,-173 78,-173"/>
<text text-anchor="start" x="96.5" y="-182.8" font-family="Times,serif" font-size="14.00">#0 Method</text>
<polygon fill="yellow" stroke="transparent" points="78,-146 78,-173 196,-173 196,-146 78,-146"/>
<polygon fill="none" stroke="black" points="78,-146 78,-173 196,-173 196,-146 78,-146"/>
<text text-anchor="start" x="84" y="-155.8" font-family="Times,serif" font-size="14.00">this : TypeTest</text>
</g>
<!-- node4 -->
<g id="node2" class="node">
<title>node4</title>
<polygon fill="lightgrey" stroke="black" points="267.5,-36 76.5,-36 76.5,0 267.5,0 267.5,-36"/>
<text text-anchor="middle" x="172" y="-14.3" font-family="Times,serif" font-size="14.00">#4 ReturnValue : Object</text>
</g>
<!-- node0&#45;&gt;node4 -->
<g id="edge3" class="edge">
<title>node0&#45;&gt;node4</title>
<path fill="none" stroke="green" d="M182.7,-145.98C195.56,-136.18 207.95,-123.76 215,-109 223.43,-91.35 222.18,-83.19 215,-65 211.95,-57.28 206.93,-50.09 201.37,-43.8"/>
<polygon fill="green" stroke="green" points="203.62,-41.09 194.15,-36.33 198.59,-45.96 203.62,-41.09"/>
</g>
<!-- node3 -->
<g id="node3" class="node">
<title>node3</title>
<polygon fill="lightgreen" stroke="black" points="205.94,-83.54 205.94,-98.46 150.33,-109 71.67,-109 16.06,-98.46 16.06,-83.54 71.67,-73 150.33,-73 205.94,-83.54"/>
<text text-anchor="middle" x="111" y="-87.3" font-family="Times,serif" font-size="14.00">#3 String : hello</text>
</g>
<!-- node0&#45;&gt;node3 -->
<g id="edge5" class="edge">
<title>node0&#45;&gt;node3</title>
<path fill="none" stroke="black" stroke-dasharray="1,5" d="M126.22,-145.66C124.02,-139.89 121.83,-133.78 120,-128 119.11,-125.18 118.24,-122.21 117.43,-119.24"/>
<polygon fill="black" stroke="black" points="120.76,-118.14 114.87,-109.33 113.98,-119.89 120.76,-118.14"/>
</g>
<!-- node2 -->
<g id="node4" class="node">
<title>node2</title>
<polygon fill="lightgrey" stroke="black" points="381.5,-109 262.5,-109 262.5,-73 381.5,-73 381.5,-109"/>
<text text-anchor="middle" x="322" y="-87.3" font-family="Times,serif" font-size="14.00">#2 LabelNode</text>
</g>
<!-- node0&#45;&gt;node2 -->
<g id="edge4" class="edge">
<title>node0&#45;&gt;node2</title>
<path fill="none" stroke="red" d="M196.04,-146.47C220.86,-135.74 249.39,-123.4 273.01,-113.18"/>
<polygon fill="red" stroke="red" points="274.68,-116.27 282.47,-109.09 271.91,-109.85 274.68,-116.27"/>
</g>
<!-- node3&#45;&gt;node4 -->
<g id="edge1" class="edge">
<title>node3&#45;&gt;node4</title>
<path fill="none" stroke="black" d="M125.77,-72.81C133.26,-64.09 142.5,-53.34 150.74,-43.75"/>
<polygon fill="black" stroke="black" points="153.51,-45.89 157.37,-36.03 148.2,-41.33 153.51,-45.89"/>
<text text-anchor="middle" x="151.97" y="-51.59" font-family="Times,serif" font-size="14.00">*0</text>
</g>
<!-- node2&#45;&gt;node4 -->
<g id="edge2" class="edge">
<title>node2&#45;&gt;node4</title>
<path fill="none" stroke="red" d="M286.07,-72.99C265.44,-63.23 239.34,-50.88 217.32,-40.45"/>
<polygon fill="red" stroke="red" points="218.69,-37.23 208.16,-36.11 215.7,-43.56 218.69,-37.23"/>
</g>
<!-- c0 -->
<!-- c1 -->
<!-- c0&#45;&gt;c1 -->
<g id="edge6" class="edge">
<title>c0&#45;&gt;c1</title>
<path fill="none" stroke="red" d="M957.89,-173C969.11,-173 1027.24,-173 1052.86,-173"/>
<polygon fill="red" stroke="red" points="1053.06,-176.5 1063.06,-173 1053.06,-169.5 1053.06,-176.5"/>
<text text-anchor="middle" x="1010.5" y="-179.8" font-family="Times,serif" font-size="14.00">Control flow</text>
</g>
<!-- c2 -->
<!-- c3 -->
<!-- c2&#45;&gt;c3 -->
<g id="edge7" class="edge">
<title>c2&#45;&gt;c3</title>
<path fill="none" stroke="red" stroke-dasharray="5,2" d="M751.08,-173C768.05,-173 884.21,-173 922.08,-173"/>
<polygon fill="red" stroke="red" points="922.17,-176.5 932.17,-173 922.17,-169.5 922.17,-176.5"/>
<text text-anchor="middle" x="841.5" y="-179.8" font-family="Times,serif" font-size="14.00">Control flow back edge</text>
</g>
<!-- d0 -->
<!-- d1 -->
<!-- d0&#45;&gt;d1 -->
<g id="edge8" class="edge">
<title>d0&#45;&gt;d1</title>
<path fill="none" stroke="black" d="M639.86,-173C649.41,-173 693.31,-173 714.92,-173"/>
<polygon fill="black" stroke="black" points="715.15,-176.5 725.15,-173 715.15,-169.5 715.15,-176.5"/>
<text text-anchor="middle" x="682.5" y="-179.8" font-family="Times,serif" font-size="14.00">Data flow</text>
</g>
<!-- d2 -->
<!-- d3 -->
<!-- d2&#45;&gt;d3 -->
<g id="edge9" class="edge">
<title>d2&#45;&gt;d3</title>
<path fill="none" stroke="black" stroke-dasharray="1,5" d="M513.81,-173C524.46,-173 579.46,-173 604.08,-173"/>
<polygon fill="black" stroke="black" points="604.15,-176.5 614.15,-173 604.15,-169.5 604.15,-176.5"/>
<text text-anchor="middle" x="564" y="-179.8" font-family="Times,serif" font-size="14.00">Declaration</text>
</g>
<!-- d4 -->
<!-- d5 -->
<!-- d4&#45;&gt;d5 -->
<g id="edge10" class="edge">
<title>d4&#45;&gt;d5</title>
<path fill="none" stroke="blue" d="M371.1,-173C383.72,-173 449.88,-173 477.68,-173"/>
<polygon fill="blue" stroke="blue" points="477.84,-176.5 487.84,-173 477.84,-169.5 477.84,-176.5"/>
<text text-anchor="middle" x="429.5" y="-179.8" font-family="Times,serif" font-size="14.00">PHI Data flow</text>
</g>
<!-- d6 -->
<!-- d7 -->
<!-- d6&#45;&gt;d7 -->
<g id="edge11" class="edge">
<title>d6&#45;&gt;d7</title>
<path fill="none" stroke="green" d="M234,-173C245.94,-173 308.3,-173 334.93,-173"/>
<polygon fill="green" stroke="green" points="334.95,-176.5 344.95,-173 334.95,-169.5 334.95,-176.5"/>
<text text-anchor="middle" x="289.5" y="-179.8" font-family="Times,serif" font-size="14.00">Memory flow</text>
</g>
</g>
</svg>
