<?xml version="1.0" encoding="UTF-8" standalone="no"?>
<!DOCTYPE svg PUBLIC "-//W3C//DTD SVG 1.1//EN"
 "http://www.w3.org/Graphics/SVG/1.1/DTD/svg11.dtd">
<!-- Generated by graphviz version 2.43.0 (0)
 -->
<!-- Title: debugoutput Pages: 1 -->
<svg width="1388pt" height="213pt"
 viewBox="0.00 0.00 1388.00 212.80" xmlns="http://www.w3.org/2000/svg" xmlns:xlink="http://www.w3.org/1999/xlink">
<g id="graph0" class="graph" transform="scale(1 1) rotate(0) translate(4 208.8)">
<title>debugoutput</title>
<polygon fill="white" stroke="transparent" points="-4,4 -4,-208.8 1384,-208.8 1384,4 -4,4"/>
<g id="clust1" class="cluster">
<title>cluster_000</title>
<polygon fill="none" stroke="black" points="533,-154.2 533,-196.8 1372,-196.8 1372,-154.2 533,-154.2"/>
<text text-anchor="middle" x="952.5" y="-181.6" font-family="Times,serif" font-size="14.00">Legend</text>
</g>
<!-- node0 -->
<g id="node1" class="node">
<title>node0</title>
<polygon fill="lightgrey" stroke="black" points="523,-182 357,-182 357,-146 523,-146 523,-182"/>
<text text-anchor="middle" x="440" y="-160.3" font-family="Times,serif" font-size="14.00">#0 Method Order : 0</text>
</g>
<!-- node1 -->
<g id="node2" class="node">
<title>node1</title>
<polygon fill="lightgrey" stroke="black" points="216,-109 0,-109 0,-73 216,-73 216,-109"/>
<text text-anchor="middle" x="108" y="-87.3" font-family="Times,serif" font-size="14.00">#1 this : TypeTest Order : 4</text>
</g>
<!-- node0&#45;&gt;node1 -->
<g id="edge2" class="edge">
<title>node0&#45;&gt;node1</title>
<path fill="none" stroke="black" d="M356.77,-146.44C306.3,-135.9 242.16,-122.2 191.62,-111.18"/>
<polygon fill="black" stroke="black" points="192.22,-107.73 181.7,-109.02 190.73,-114.57 192.22,-107.73"/>
<text text-anchor="middle" x="201.22" y="-100.93" font-family="Times,serif" font-size="14.00">*0</text>
</g>
<!-- node2 -->
<g id="node3" class="node">
<title>node2</title>
<polygon fill="lightgrey" stroke="black" points="422,-109 234,-109 234,-73 422,-73 422,-109"/>
<text text-anchor="middle" x="328" y="-87.3" font-family="Times,serif" font-size="14.00">#2 LabelNode Order : 2</text>
</g>
<!-- node0&#45;&gt;node2 -->
<g id="edge4" class="edge">
<title>node0&#45;&gt;node2</title>
<path fill="none" stroke="red" d="M407.31,-145.99C391.61,-136.67 373,-124.97 357.7,-114.86"/>
<polygon fill="red" stroke="red" points="359.38,-111.77 349.13,-109.11 355.49,-117.59 359.38,-111.77"/>
</g>
<!-- node3 -->
<g id="node4" class="node">
<title>node3</title>
<polygon fill="lightgreen" stroke="black" points="727.52,-83.54 727.52,-98.46 643.45,-109 524.55,-109 440.48,-98.46 440.48,-83.54 524.55,-73 643.45,-73 727.52,-83.54"/>
<text text-anchor="middle" x="584" y="-87.3" font-family="Times,serif" font-size="14.00">#3 String : hello Order : 1</text>
</g>
<!-- node0&#45;&gt;node3 -->
<g id="edge6" class="edge">
<title>node0&#45;&gt;node3</title>
<path fill="none" stroke="black" stroke-dasharray="1,5" d="M468.63,-145.99C487.4,-136.23 512.32,-123.88 534.24,-113.45"/>
<polygon fill="black" stroke="black" points="535.87,-116.55 543.42,-109.11 532.88,-110.22 535.87,-116.55"/>
</g>
<!-- node4 -->
<g id="node5" class="node">
<title>node4</title>
<polygon fill="lightgrey" stroke="black" points="849,-36 589,-36 589,0 849,0 849,-36"/>
<text text-anchor="middle" x="719" y="-14.3" font-family="Times,serif" font-size="14.00">#4 ReturnValue : Object Order : 3</text>
</g>
<!-- node0&#45;&gt;node4 -->
<g id="edge10" class="edge">
<title>node0&#45;&gt;node4</title>
<path fill="none" stroke="black" d="M520.27,-145.95C566.68,-137.51 697.91,-144.92 728,-109 742.71,-91.45 735.23,-65.24 727.43,-45.62"/>
<polygon fill="black" stroke="black" points="730.63,-44.2 723.56,-36.32 724.17,-46.9 730.63,-44.2"/>
</g>
<!-- node1&#45;&gt;node0 -->
<g id="edge1" class="edge">
<title>node1&#45;&gt;node0</title>
<path fill="none" stroke="green" stroke-width="2" d="M193.6,-109.05C243.76,-119.54 306.79,-133.01 356.57,-143.86"/>
<polygon fill="green" stroke="green" stroke-width="2" points="355.82,-147.28 366.34,-145.99 357.31,-140.44 355.82,-147.28"/>
</g>
<!-- node2&#45;&gt;node0 -->
<g id="edge3" class="edge">
<title>node2&#45;&gt;node0</title>
<path fill="none" stroke="green" stroke-width="2" d="M360.87,-109.11C376.59,-118.46 395.2,-130.15 410.47,-140.26"/>
<polygon fill="green" stroke="green" stroke-width="2" points="408.78,-143.34 419.03,-145.99 412.67,-137.52 408.78,-143.34"/>
</g>
<!-- node2&#45;&gt;node4 -->
<g id="edge9" class="edge">
<title>node2&#45;&gt;node4</title>
<path fill="none" stroke="red" d="M421.65,-72.99C479.97,-62.4 555.07,-48.77 615.2,-37.85"/>
<polygon fill="red" stroke="red" points="615.88,-41.28 625.09,-36.05 614.63,-34.39 615.88,-41.28"/>
</g>
<!-- node3&#45;&gt;node0 -->
<g id="edge5" class="edge">
<title>node3&#45;&gt;node0</title>
<path fill="none" stroke="green" stroke-width="2" d="M555.16,-109.11C536.35,-118.9 511.42,-131.25 489.52,-141.66"/>
<polygon fill="green" stroke="green" stroke-width="2" points="487.9,-138.56 480.35,-145.99 490.89,-144.89 487.9,-138.56"/>
</g>
<!-- node3&#45;&gt;node4 -->
<g id="edge8" class="edge">
<title>node3&#45;&gt;node4</title>
<path fill="none" stroke="black" d="M616.34,-72.99C634.65,-63.36 657.76,-51.21 677.42,-40.87"/>
<polygon fill="black" stroke="black" points="679.24,-43.87 686.46,-36.11 675.98,-37.67 679.24,-43.87"/>
<text text-anchor="middle" x="674.35" y="-48.33" font-family="Times,serif" font-size="14.00">*0</text>
</g>
<!-- node4&#45;&gt;node0 -->
<g id="edge7" class="edge">
<title>node4&#45;&gt;node0</title>
<path fill="none" stroke="green" stroke-width="2" d="M736.47,-36.32C750.07,-56.13 763.19,-88.48 746,-109 715.85,-144.99 584.17,-137.48 538,-146 536.5,-146.28 534.99,-146.56 533.46,-146.84"/>
<polygon fill="green" stroke="green" stroke-width="2" points="532.46,-143.47 523.27,-148.74 533.74,-150.35 532.46,-143.47"/>
</g>
<!-- c0 -->
<!-- c1 -->
<!-- c0&#45;&gt;c1 -->
<g id="edge11" class="edge">
<title>c0&#45;&gt;c1</title>
<path fill="none" stroke="red" d="M1254.89,-164C1266.11,-164 1324.24,-164 1349.86,-164"/>
<polygon fill="red" stroke="red" points="1350.06,-167.5 1360.06,-164 1350.06,-160.5 1350.06,-167.5"/>
<text text-anchor="middle" x="1307.5" y="-170.8" font-family="Times,serif" font-size="14.00">Control flow</text>
</g>
<!-- c2 -->
<!-- c3 -->
<!-- c2&#45;&gt;c3 -->
<g id="edge12" class="edge">
<title>c2&#45;&gt;c3</title>
<path fill="none" stroke="red" stroke-dasharray="5,2" d="M1048.08,-164C1065.05,-164 1181.21,-164 1219.08,-164"/>
<polygon fill="red" stroke="red" points="1219.17,-167.5 1229.17,-164 1219.17,-160.5 1219.17,-167.5"/>
<text text-anchor="middle" x="1138.5" y="-170.8" font-family="Times,serif" font-size="14.00">Control flow back edge</text>
</g>
<!-- d0 -->
<!-- d1 -->
<!-- d0&#45;&gt;d1 -->
<g id="edge13" class="edge">
<title>d0&#45;&gt;d1</title>
<path fill="none" stroke="black" d="M936.86,-164C946.41,-164 990.31,-164 1011.92,-164"/>
<polygon fill="black" stroke="black" points="1012.15,-167.5 1022.15,-164 1012.15,-160.5 1012.15,-167.5"/>
<text text-anchor="middle" x="979.5" y="-170.8" font-family="Times,serif" font-size="14.00">Data flow</text>
</g>
<!-- d2 -->
<!-- d3 -->
<!-- d2&#45;&gt;d3 -->
<g id="edge14" class="edge">
<title>d2&#45;&gt;d3</title>
<path fill="none" stroke="black" stroke-dasharray="1,5" d="M810.81,-164C821.46,-164 876.46,-164 901.08,-164"/>
<polygon fill="black" stroke="black" points="901.15,-167.5 911.15,-164 901.15,-160.5 901.15,-167.5"/>
<text text-anchor="middle" x="861" y="-170.8" font-family="Times,serif" font-size="14.00">Declaration</text>
</g>
<!-- d4 -->
<!-- d5 -->
<!-- d4&#45;&gt;d5 -->
<g id="edge15" class="edge">
<title>d4&#45;&gt;d5</title>
<path fill="none" stroke="blue" d="M668.1,-164C680.72,-164 746.88,-164 774.68,-164"/>
<polygon fill="blue" stroke="blue" points="774.84,-167.5 784.84,-164 774.84,-160.5 774.84,-167.5"/>
<text text-anchor="middle" x="726.5" y="-170.8" font-family="Times,serif" font-size="14.00">PHI Data flow</text>
</g>
<!-- d6 -->
<!-- d7 -->
<!-- d6&#45;&gt;d7 -->
<g id="edge16" class="edge">
<title>d6&#45;&gt;d7</title>
<path fill="none" stroke="green" d="M545.11,-164C556.15,-164 607.67,-164 631.66,-164"/>
<polygon fill="green" stroke="green" points="631.9,-167.5 641.9,-164 631.9,-160.5 631.9,-167.5"/>
<text text-anchor="middle" x="593.5" y="-170.8" font-family="Times,serif" font-size="14.00">Dominance</text>
</g>
</g>
</svg>
