<?xml version="1.0" encoding="UTF-8" standalone="no"?>
<!DOCTYPE svg PUBLIC "-//W3C//DTD SVG 1.1//EN"
 "http://www.w3.org/Graphics/SVG/1.1/DTD/svg11.dtd">
<!-- Generated by graphviz version 2.43.0 (0)
 -->
<!-- Title: debugoutput Pages: 1 -->
<svg width="1413pt" height="286pt"
 viewBox="0.00 0.00 1413.00 285.80" xmlns="http://www.w3.org/2000/svg" xmlns:xlink="http://www.w3.org/1999/xlink">
<g id="graph0" class="graph" transform="scale(1 1) rotate(0) translate(4 281.8)">
<title>debugoutput</title>
<polygon fill="white" stroke="transparent" points="-4,4 -4,-281.8 1409,-281.8 1409,4 -4,4"/>
<g id="clust1" class="cluster">
<title>cluster_000</title>
<polygon fill="none" stroke="black" points="421,-227.2 421,-269.8 1397,-269.8 1397,-227.2 421,-227.2"/>
<text text-anchor="middle" x="909" y="-254.6" font-family="Times,serif" font-size="14.00">Legend</text>
</g>
<!-- node0 -->
<g id="node1" class="node">
<title>node0</title>
<polygon fill="lightgrey" stroke="black" points="411,-255 245,-255 245,-219 411,-219 411,-255"/>
<text text-anchor="middle" x="328" y="-233.3" font-family="Times,serif" font-size="14.00">#0 Method Order : 0</text>
</g>
<!-- node1 -->
<g id="node2" class="node">
<title>node1</title>
<polygon fill="lightgrey" stroke="black" points="216,-182 0,-182 0,-146 216,-146 216,-182"/>
<text text-anchor="middle" x="108" y="-160.3" font-family="Times,serif" font-size="14.00">#1 this : TypeTest Order : 4</text>
</g>
<!-- node0&#45;&gt;node1 -->
<g id="edge2" class="edge">
<title>node0&#45;&gt;node1</title>
<path fill="none" stroke="black" d="M269.45,-218.99C237.04,-208.88 196.99,-195.99 164.86,-185.34"/>
<polygon fill="black" stroke="black" points="165.75,-181.95 155.16,-182.11 163.54,-188.59 165.75,-181.95"/>
<text text-anchor="middle" x="175.03" y="-176.12" font-family="Times,serif" font-size="14.00">*0</text>
</g>
<!-- node2 -->
<g id="node3" class="node">
<title>node2</title>
<polygon fill="lightgrey" stroke="black" points="422,-182 234,-182 234,-146 422,-146 422,-182"/>
<text text-anchor="middle" x="328" y="-160.3" font-family="Times,serif" font-size="14.00">#2 LabelNode Order : 1</text>
</g>
<!-- node0&#45;&gt;node2 -->
<g id="edge4" class="edge">
<title>node0&#45;&gt;node2</title>
<path fill="none" stroke="red" d="M322.12,-218.81C321.28,-210.79 321.05,-201.05 321.42,-192.07"/>
<polygon fill="red" stroke="red" points="324.92,-192.25 322.14,-182.03 317.94,-191.75 324.92,-192.25"/>
</g>
<!-- node4 -->
<g id="node5" class="node">
<title>node4</title>
<polygon fill="lightgrey" stroke="black" points="601,-36 341,-36 341,0 601,0 601,-36"/>
<text text-anchor="middle" x="471" y="-14.3" font-family="Times,serif" font-size="14.00">#4 ReturnValue : Object Order : 3</text>
</g>
<!-- node0&#45;&gt;node4 -->
<g id="edge10" class="edge">
<title>node0&#45;&gt;node4</title>
<path fill="none" stroke="green" d="M365.39,-218.84C383.95,-209.97 405.7,-197.67 422,-182 466.09,-139.61 468.86,-115.85 475,-55 475.3,-52.02 475.09,-48.98 474.6,-45.99"/>
<polygon fill="green" stroke="green" points="477.96,-45.01 472.11,-36.17 471.17,-46.72 477.96,-45.01"/>
</g>
<!-- node1&#45;&gt;node0 -->
<g id="edge1" class="edge">
<title>node1&#45;&gt;node0</title>
<path fill="none" stroke="fuchsia" stroke-width="2" d="M166.9,-182.11C199.36,-192.25 239.4,-205.14 271.48,-215.77"/>
<polygon fill="fuchsia" stroke="fuchsia" stroke-width="2" points="270.57,-219.16 281.16,-218.99 272.78,-212.52 270.57,-219.16"/>
</g>
<!-- node2&#45;&gt;node0 -->
<g id="edge3" class="edge">
<title>node2&#45;&gt;node0</title>
<path fill="none" stroke="fuchsia" stroke-width="2" d="M333.86,-182.03C334.71,-190.03 334.95,-199.77 334.59,-208.75"/>
<polygon fill="fuchsia" stroke="fuchsia" stroke-width="2" points="331.09,-208.59 333.88,-218.81 338.07,-209.08 331.09,-208.59"/>
</g>
<!-- node3 -->
<g id="node4" class="node">
<title>node3</title>
<polygon fill="lightgreen" stroke="black" points="442.52,-83.54 442.52,-98.46 358.45,-109 239.55,-109 155.48,-98.46 155.48,-83.54 239.55,-73 358.45,-73 442.52,-83.54"/>
<text text-anchor="middle" x="299" y="-87.3" font-family="Times,serif" font-size="14.00">#3 String : hello Order : 2</text>
</g>
<!-- node2&#45;&gt;node3 -->
<g id="edge6" class="edge">
<title>node2&#45;&gt;node3</title>
<path fill="none" stroke="black" stroke-dasharray="1,5" d="M315.1,-145.81C310.94,-137.7 306.68,-127.84 303.37,-118.78"/>
<polygon fill="black" stroke="black" points="306.6,-117.39 300.09,-109.03 299.96,-119.62 306.6,-117.39"/>
</g>
<!-- node2&#45;&gt;node4 -->
<g id="edge9" class="edge">
<title>node2&#45;&gt;node4</title>
<path fill="none" stroke="red" d="M397.69,-145.92C417.85,-137.8 438.13,-126.01 452,-109 466.31,-91.46 470.59,-65.75 471.57,-46.29"/>
<polygon fill="red" stroke="red" points="475.07,-46.3 471.82,-36.22 468.08,-46.13 475.07,-46.3"/>
</g>
<!-- node3&#45;&gt;node2 -->
<g id="edge5" class="edge">
<title>node3&#45;&gt;node2</title>
<path fill="none" stroke="fuchsia" stroke-width="2" d="M311.82,-109.03C315.98,-117.12 320.24,-126.98 323.56,-136.05"/>
<polygon fill="fuchsia" stroke="fuchsia" stroke-width="2" points="320.35,-137.46 326.86,-145.81 326.98,-135.22 320.35,-137.46"/>
</g>
<!-- node3&#45;&gt;node4 -->
<g id="edge8" class="edge">
<title>node3&#45;&gt;node4</title>
<path fill="none" stroke="black" d="M340.2,-72.99C364.17,-63.1 394.58,-50.54 420.05,-40.03"/>
<polygon fill="black" stroke="black" points="421.63,-43.16 429.54,-36.11 418.96,-36.69 421.63,-43.16"/>
<text text-anchor="middle" x="416.01" y="-47.14" font-family="Times,serif" font-size="14.00">*0</text>
</g>
<!-- node4&#45;&gt;node0 -->
<g id="edge7" class="edge">
<title>node4&#45;&gt;node0</title>
<path fill="none" stroke="fuchsia" stroke-width="2" d="M489.16,-36.17C491.97,-42 493.64,-48.65 493,-55 486.86,-115.85 484.09,-139.61 440,-182 426.19,-195.28 408.45,-206.14 391.15,-214.54"/>
<polygon fill="fuchsia" stroke="fuchsia" stroke-width="2" points="389.22,-211.58 381.61,-218.96 392.16,-217.94 389.22,-211.58"/>
</g>
<!-- c0 -->
<!-- c1 -->
<!-- c0&#45;&gt;c1 -->
<g id="edge11" class="edge">
<title>c0&#45;&gt;c1</title>
<path fill="none" stroke="red" d="M1279.89,-237C1291.11,-237 1349.24,-237 1374.86,-237"/>
<polygon fill="red" stroke="red" points="1375.06,-240.5 1385.06,-237 1375.06,-233.5 1375.06,-240.5"/>
<text text-anchor="middle" x="1332.5" y="-243.8" font-family="Times,serif" font-size="14.00">Control flow</text>
</g>
<!-- c2 -->
<!-- c3 -->
<!-- c2&#45;&gt;c3 -->
<g id="edge12" class="edge">
<title>c2&#45;&gt;c3</title>
<path fill="none" stroke="red" stroke-dasharray="5,2" d="M1073.08,-237C1090.05,-237 1206.21,-237 1244.08,-237"/>
<polygon fill="red" stroke="red" points="1244.17,-240.5 1254.17,-237 1244.17,-233.5 1244.17,-240.5"/>
<text text-anchor="middle" x="1163.5" y="-243.8" font-family="Times,serif" font-size="14.00">Control flow back edge</text>
</g>
<!-- d0 -->
<!-- d1 -->
<!-- d0&#45;&gt;d1 -->
<g id="edge13" class="edge">
<title>d0&#45;&gt;d1</title>
<path fill="none" stroke="black" d="M961.86,-237C971.41,-237 1015.31,-237 1036.92,-237"/>
<polygon fill="black" stroke="black" points="1037.15,-240.5 1047.15,-237 1037.15,-233.5 1037.15,-240.5"/>
<text text-anchor="middle" x="1004.5" y="-243.8" font-family="Times,serif" font-size="14.00">Data flow</text>
</g>
<!-- d2 -->
<!-- d3 -->
<!-- d2&#45;&gt;d3 -->
<g id="edge14" class="edge">
<title>d2&#45;&gt;d3</title>
<path fill="none" stroke="black" stroke-dasharray="1,5" d="M835.81,-237C846.46,-237 901.46,-237 926.08,-237"/>
<polygon fill="black" stroke="black" points="926.15,-240.5 936.15,-237 926.15,-233.5 926.15,-240.5"/>
<text text-anchor="middle" x="886" y="-243.8" font-family="Times,serif" font-size="14.00">Declaration</text>
</g>
<!-- d4 -->
<!-- d5 -->
<!-- d4&#45;&gt;d5 -->
<g id="edge15" class="edge">
<title>d4&#45;&gt;d5</title>
<path fill="none" stroke="blue" d="M693.1,-237C705.72,-237 771.88,-237 799.68,-237"/>
<polygon fill="blue" stroke="blue" points="799.84,-240.5 809.84,-237 799.84,-233.5 799.84,-240.5"/>
<text text-anchor="middle" x="751.5" y="-243.8" font-family="Times,serif" font-size="14.00">PHI Data flow</text>
</g>
<!-- d6 -->
<!-- d7 -->
<!-- d6&#45;&gt;d7 -->
<g id="edge16" class="edge">
<title>d6&#45;&gt;d7</title>
<path fill="none" stroke="green" d="M556,-237C567.94,-237 630.3,-237 656.93,-237"/>
<polygon fill="green" stroke="green" points="656.95,-240.5 666.95,-237 656.95,-233.5 656.95,-240.5"/>
<text text-anchor="middle" x="611.5" y="-243.8" font-family="Times,serif" font-size="14.00">Memory flow</text>
</g>
<!-- d8 -->
<!-- d9 -->
<!-- d8&#45;&gt;d9 -->
<g id="edge17" class="edge">
<title>d8&#45;&gt;d9</title>
<path fill="none" stroke="fuchsia" d="M433.11,-237C444.15,-237 495.67,-237 519.66,-237"/>
<polygon fill="fuchsia" stroke="fuchsia" points="519.9,-240.5 529.9,-237 519.9,-233.5 519.9,-240.5"/>
<text text-anchor="middle" x="481.5" y="-243.8" font-family="Times,serif" font-size="14.00">Dominance</text>
</g>
</g>
</svg>
