<?xml version="1.0" encoding="UTF-8" standalone="no"?>
<!DOCTYPE svg PUBLIC "-//W3C//DTD SVG 1.1//EN"
 "http://www.w3.org/Graphics/SVG/1.1/DTD/svg11.dtd">
<!-- Generated by graphviz version 2.43.0 (0)
 -->
<!-- Title: %3 Pages: 1 -->
<svg width="1092pt" height="297pt"
 viewBox="0.00 0.00 1092.15 297.00" xmlns="http://www.w3.org/2000/svg" xmlns:xlink="http://www.w3.org/1999/xlink">
<g id="graph0" class="graph" transform="scale(1 1) rotate(0) translate(4 293)">
<title>%3</title>
<polygon fill="white" stroke="transparent" points="-4,4 -4,-293 1088.15,-293 1088.15,4 -4,4"/>
<g id="clust1" class="cluster">
<title>cluster_0</title>
<polygon fill="none" stroke="lightgray" points="65.15,-138 65.15,-281 215.15,-281 215.15,-138 65.15,-138"/>
</g>
<g id="clust2" class="cluster">
<title>cluster_000</title>
<polygon fill="none" stroke="black" points="223.15,-236.2 223.15,-278.8 1076.15,-278.8 1076.15,-236.2 223.15,-236.2"/>
<text text-anchor="middle" x="649.65" y="-263.6" font-family="Times,serif" font-size="14.00">Legend</text>
</g>
<!-- node0 -->
<g id="node1" class="node">
<title>node0</title>
<polygon fill="lightgrey" stroke="transparent" points="206.65,-273 73.65,-273 73.65,-219 206.65,-219 206.65,-273"/>
<polygon fill="none" stroke="black" points="74.15,-246 74.15,-273 207.15,-273 207.15,-246 74.15,-246"/>
<text text-anchor="start" x="100.15" y="-255.8" font-family="Times,serif" font-size="14.00">#0 Method</text>
<polygon fill="yellow" stroke="transparent" points="74.15,-219 74.15,-246 207.15,-246 207.15,-219 74.15,-219"/>
<polygon fill="none" stroke="black" points="74.15,-219 74.15,-246 207.15,-246 207.15,-219 74.15,-219"/>
<text text-anchor="start" x="80.15" y="-228.8" font-family="Times,serif" font-size="14.00">this : ReturnTest</text>
</g>
<!-- node2 -->
<g id="node2" class="node">
<title>node2</title>
<polygon fill="lightgrey" stroke="black" points="344.65,-182 225.65,-182 225.65,-146 344.65,-146 344.65,-182"/>
<text text-anchor="middle" x="285.15" y="-160.3" font-family="Times,serif" font-size="14.00">#2 LabelNode</text>
</g>
<!-- node0&#45;&gt;node2 -->
<g id="edge1" class="edge">
<title>node0&#45;&gt;node2</title>
<path fill="none" stroke="red" d="M187.62,-218.81C206.19,-208.56 227.26,-196.94 245.04,-187.12"/>
<polygon fill="red" stroke="red" points="246.95,-190.07 254.02,-182.17 243.57,-183.94 246.95,-190.07"/>
</g>
<!-- node3 -->
<g id="node4" class="node">
<title>node3</title>
<polygon fill="orange" stroke="black" points="260.44,-83.54 260.44,-98.46 184.11,-109 76.18,-109 -0.15,-98.46 -0.15,-83.54 76.18,-73 184.11,-73 260.44,-83.54"/>
<text text-anchor="middle" x="130.15" y="-87.3" font-family="Times,serif" font-size="14.00">#3 NewArray : Object[]</text>
</g>
<!-- node0&#45;&gt;node3 -->
<g id="edge6" class="edge">
<title>node0&#45;&gt;node3</title>
<path fill="none" stroke="green" d="M206.88,-222.78C211.02,-221.48 215.14,-220.21 219.15,-219 278.71,-201.05 316.41,-231.46 354.15,-182 366.01,-166.45 366.51,-153.15 354.15,-138 340.06,-120.73 295.25,-109.76 249.38,-102.89"/>
<polygon fill="green" stroke="green" points="249.67,-99.39 239.27,-101.44 248.68,-106.32 249.67,-99.39"/>
</g>
<!-- node5 -->
<g id="node5" class="node">
<title>node5</title>
<polygon fill="lightgreen" stroke="black" points="195.33,-156.54 195.33,-171.46 160.66,-182 111.63,-182 76.96,-171.46 76.96,-156.54 111.63,-146 160.66,-146 195.33,-156.54"/>
<text text-anchor="middle" x="136.15" y="-160.3" font-family="Times,serif" font-size="14.00">#5 int 10</text>
</g>
<!-- node0&#45;&gt;node5 -->
<g id="edge7" class="edge">
<title>node0&#45;&gt;node5</title>
<path fill="none" stroke="black" stroke-dasharray="1,5" d="M138.84,-218.81C138.41,-210.35 137.94,-200.95 137.52,-192.4"/>
<polygon fill="black" stroke="black" points="141,-191.99 137,-182.17 134.01,-192.34 141,-191.99"/>
</g>
<!-- node4 -->
<g id="node3" class="node">
<title>node4</title>
<polygon fill="lightgrey" stroke="black" points="309.65,-36 108.65,-36 108.65,0 309.65,0 309.65,-36"/>
<text text-anchor="middle" x="209.15" y="-14.3" font-family="Times,serif" font-size="14.00">#4 ReturnValue : Object[]</text>
</g>
<!-- node2&#45;&gt;node4 -->
<g id="edge3" class="edge">
<title>node2&#45;&gt;node4</title>
<path fill="none" stroke="red" d="M285.35,-145.99C284.87,-127.04 281.94,-96.03 269.15,-73 262.7,-61.4 252.82,-50.99 242.92,-42.48"/>
<polygon fill="red" stroke="red" points="245.01,-39.67 235.04,-36.08 240.59,-45.1 245.01,-39.67"/>
</g>
<!-- node3&#45;&gt;node4 -->
<g id="edge2" class="edge">
<title>node3&#45;&gt;node4</title>
<path fill="none" stroke="black" d="M143.39,-72.81C152.53,-63.74 164.9,-52.48 176.49,-42.6"/>
<polygon fill="black" stroke="black" points="178.91,-45.13 184.34,-36.03 174.42,-39.76 178.91,-45.13"/>
<text text-anchor="middle" x="175.86" y="-50.44" font-family="Times,serif" font-size="14.00">*0</text>
</g>
<!-- node3&#45;&gt;node4 -->
<g id="edge4" class="edge">
<title>node3&#45;&gt;node4</title>
<path fill="none" stroke="green" d="M155.15,-72.81C165.98,-63.92 178.41,-52.91 188.69,-43.17"/>
<polygon fill="green" stroke="green" points="191.31,-45.5 196.06,-36.03 186.44,-40.47 191.31,-45.5"/>
</g>
<!-- node5&#45;&gt;node3 -->
<g id="edge5" class="edge">
<title>node5&#45;&gt;node3</title>
<path fill="none" stroke="black" d="M134.69,-145.81C134.02,-137.79 133.19,-128.05 132.43,-119.07"/>
<polygon fill="black" stroke="black" points="135.91,-118.7 131.59,-109.03 128.94,-119.29 135.91,-118.7"/>
<text text-anchor="middle" x="141.53" y="-122.68" font-family="Times,serif" font-size="14.00">*0</text>
</g>
<!-- c0 -->
<!-- c1 -->
<!-- c0&#45;&gt;c1 -->
<g id="edge8" class="edge">
<title>c0&#45;&gt;c1</title>
<path fill="none" stroke="red" d="M959.04,-246C970.25,-246 1028.39,-246 1054,-246"/>
<polygon fill="red" stroke="red" points="1054.2,-249.5 1064.2,-246 1054.2,-242.5 1054.2,-249.5"/>
<text text-anchor="middle" x="1011.65" y="-252.8" font-family="Times,serif" font-size="14.00">Control flow</text>
</g>
<!-- c2 -->
<!-- c3 -->
<!-- c2&#45;&gt;c3 -->
<g id="edge9" class="edge">
<title>c2&#45;&gt;c3</title>
<path fill="none" stroke="red" stroke-dasharray="5,2" d="M752.22,-246C769.19,-246 885.35,-246 923.23,-246"/>
<polygon fill="red" stroke="red" points="923.32,-249.5 933.32,-246 923.32,-242.5 923.32,-249.5"/>
<text text-anchor="middle" x="842.65" y="-252.8" font-family="Times,serif" font-size="14.00">Control flow back edge</text>
</g>
<!-- d0 -->
<!-- d1 -->
<!-- d0&#45;&gt;d1 -->
<g id="edge10" class="edge">
<title>d0&#45;&gt;d1</title>
<path fill="none" stroke="black" d="M641.01,-246C650.55,-246 694.46,-246 716.06,-246"/>
<polygon fill="black" stroke="black" points="716.3,-249.5 726.3,-246 716.3,-242.5 716.3,-249.5"/>
<text text-anchor="middle" x="683.65" y="-252.8" font-family="Times,serif" font-size="14.00">Data flow</text>
</g>
<!-- d2 -->
<!-- d3 -->
<!-- d2&#45;&gt;d3 -->
<g id="edge11" class="edge">
<title>d2&#45;&gt;d3</title>
<path fill="none" stroke="black" stroke-dasharray="1,5" d="M514.95,-246C525.6,-246 580.61,-246 605.22,-246"/>
<polygon fill="black" stroke="black" points="605.29,-249.5 615.29,-246 605.29,-242.5 605.29,-249.5"/>
<text text-anchor="middle" x="565.15" y="-252.8" font-family="Times,serif" font-size="14.00">Declaration</text>
</g>
<!-- d4 -->
<!-- d5 -->
<!-- d4&#45;&gt;d5 -->
<g id="edge12" class="edge">
<title>d4&#45;&gt;d5</title>
<path fill="none" stroke="blue" d="M372.25,-246C384.87,-246 451.03,-246 478.83,-246"/>
<polygon fill="blue" stroke="blue" points="478.99,-249.5 488.99,-246 478.99,-242.5 478.99,-249.5"/>
<text text-anchor="middle" x="430.65" y="-252.8" font-family="Times,serif" font-size="14.00">PHI Data flow</text>
</g>
<!-- d6 -->
<!-- d7 -->
<!-- d6&#45;&gt;d7 -->
<g id="edge13" class="edge">
<title>d6&#45;&gt;d7</title>
<path fill="none" stroke="green" d="M235.14,-246C247.08,-246 309.45,-246 336.07,-246"/>
<polygon fill="green" stroke="green" points="336.1,-249.5 346.1,-246 336.1,-242.5 336.1,-249.5"/>
<text text-anchor="middle" x="290.65" y="-252.8" font-family="Times,serif" font-size="14.00">Memory flow</text>
</g>
</g>
</svg>
