<?xml version="1.0" encoding="UTF-8" standalone="no"?>
<!DOCTYPE svg PUBLIC "-//W3C//DTD SVG 1.1//EN"
 "http://www.w3.org/Graphics/SVG/1.1/DTD/svg11.dtd">
<!-- Generated by graphviz version 2.43.0 (0)
 -->
<!-- Title: %3 Pages: 1 -->
<svg width="4245pt" height="662pt"
 viewBox="0.00 0.00 4245.28 662.00" xmlns="http://www.w3.org/2000/svg" xmlns:xlink="http://www.w3.org/1999/xlink">
<g id="graph0" class="graph" transform="scale(1 1) rotate(0) translate(4 658)">
<title>%3</title>
<polygon fill="white" stroke="transparent" points="-4,4 -4,-658 4241.28,-658 4241.28,4 -4,4"/>
<g id="clust1" class="cluster">
<title>cluster_0</title>
<polygon fill="none" stroke="lightgray" points="8,-503 8,-646 734,-646 734,-503 8,-503"/>
</g>
<g id="clust2" class="cluster">
<title>cluster_000</title>
<polygon fill="none" stroke="black" points="742,-601.2 742,-643.8 1595,-643.8 1595,-601.2 742,-601.2"/>
<text text-anchor="middle" x="1168.5" y="-628.6" font-family="Times,serif" font-size="14.00">Legend</text>
</g>
<!-- node0 -->
<g id="node1" class="node">
<title>node0</title>
<polygon fill="lightgrey" stroke="transparent" points="625.5,-638 440.5,-638 440.5,-584 625.5,-584 625.5,-638"/>
<polygon fill="none" stroke="black" points="441,-611 441,-638 626,-638 626,-611 441,-611"/>
<text text-anchor="start" x="493" y="-620.8" font-family="Times,serif" font-size="14.00">#0 Method</text>
<polygon fill="yellow" stroke="transparent" points="441,-584 441,-611 626,-611 626,-584 441,-584"/>
<polygon fill="none" stroke="black" points="441,-584 441,-611 626,-611 626,-584 441,-584"/>
<text text-anchor="start" x="447" y="-593.8" font-family="Times,serif" font-size="14.00">this : MethodInvokeTest</text>
</g>
<!-- node5 -->
<g id="node2" class="node">
<title>node5</title>
<polygon fill="lightgreen" stroke="black" points="321.82,-521.54 321.82,-536.46 232.3,-547 105.7,-547 16.18,-536.46 16.18,-521.54 105.7,-511 232.3,-511 321.82,-521.54"/>
<text text-anchor="middle" x="169" y="-525.3" font-family="Times,serif" font-size="14.00">#5 Class MethodInvokeTest</text>
</g>
<!-- node0&#45;&gt;node5 -->
<g id="edge1" class="edge">
<title>node0&#45;&gt;node5</title>
<path fill="none" stroke="black" stroke-dasharray="1,5" d="M440.21,-589.61C381.99,-576.81 307.59,-560.46 251.44,-548.12"/>
<polygon fill="black" stroke="black" points="252.05,-544.67 241.54,-545.94 250.55,-551.51 252.05,-544.67"/>
</g>
<!-- node4 -->
<g id="node8" class="node">
<title>node4</title>
<polygon fill="lightgrey" stroke="black" points="839.5,-474 734.5,-474 734.5,-438 839.5,-438 839.5,-474"/>
<text text-anchor="middle" x="787" y="-452.3" font-family="Times,serif" font-size="14.00">#4 ClassInit</text>
</g>
<!-- node0&#45;&gt;node4 -->
<g id="edge13" class="edge">
<title>node0&#45;&gt;node4</title>
<path fill="none" stroke="green" d="M625.63,-588.08C670.04,-576.21 717.36,-561.11 735,-547 755.5,-530.61 769.49,-503.8 777.75,-483.69"/>
<polygon fill="green" stroke="green" points="781.09,-484.75 781.45,-474.16 774.57,-482.21 781.09,-484.75"/>
</g>
<!-- node3 -->
<g id="node9" class="node">
<title>node3</title>
<polygon fill="lightgreen" stroke="black" points="726.42,-521.54 726.42,-536.46 613.12,-547 452.88,-547 339.58,-536.46 339.58,-521.54 452.88,-511 613.12,-511 726.42,-521.54"/>
<text text-anchor="middle" x="533" y="-525.3" font-family="Times,serif" font-size="14.00">#3 Class MethodInvokeTest$Source</text>
</g>
<!-- node0&#45;&gt;node3 -->
<g id="edge15" class="edge">
<title>node0&#45;&gt;node3</title>
<path fill="none" stroke="black" stroke-dasharray="1,5" d="M533,-583.81C533,-575.35 533,-565.95 533,-557.4"/>
<polygon fill="black" stroke="black" points="536.5,-557.17 533,-547.17 529.5,-557.17 536.5,-557.17"/>
</g>
<!-- node2 -->
<g id="node10" class="node">
<title>node2</title>
<polygon fill="lightgrey" stroke="black" points="901.5,-547 782.5,-547 782.5,-511 901.5,-511 901.5,-547"/>
<text text-anchor="middle" x="842" y="-525.3" font-family="Times,serif" font-size="14.00">#2 LabelNode</text>
</g>
<!-- node0&#45;&gt;node2 -->
<g id="edge14" class="edge">
<title>node0&#45;&gt;node2</title>
<path fill="none" stroke="red" d="M625.71,-586C672.88,-573.79 729.25,-559.19 772.61,-547.97"/>
<polygon fill="red" stroke="red" points="773.69,-551.3 782.5,-545.41 771.94,-544.52 773.69,-551.3"/>
</g>
<!-- node19 -->
<g id="node3" class="node">
<title>node19</title>
<polygon fill="lightgrey" stroke="black" points="1011,-182 897,-182 897,-146 1011,-146 1011,-182"/>
<text text-anchor="middle" x="954" y="-160.3" font-family="Times,serif" font-size="14.00">#19 ClassInit</text>
</g>
<!-- node5&#45;&gt;node19 -->
<g id="edge2" class="edge">
<title>node5&#45;&gt;node19</title>
<path fill="none" stroke="black" d="M169,-510.78C169,-496.41 169,-475.37 169,-457 169,-457 169,-457 169,-236 169,-200.1 696.67,-175.34 886.77,-167.59"/>
<polygon fill="black" stroke="black" points="887.06,-171.08 896.91,-167.18 886.78,-164.08 887.06,-171.08"/>
<text text-anchor="middle" x="879.14" y="-172.65" font-family="Times,serif" font-size="14.00">*0</text>
</g>
<!-- node20 -->
<g id="node15" class="node">
<title>node20</title>
<polygon fill="lightgrey" stroke="black" points="2352.5,-109 1503.5,-109 1503.5,-73 2352.5,-73 2352.5,-109"/>
<text text-anchor="middle" x="1928" y="-87.3" font-family="Times,serif" font-size="14.00">#20 Invoke static simple_method_return_boolean : (byte,boolean,short,char,int,long,float,double,String,int[])boolean</text>
</g>
<!-- node19&#45;&gt;node20 -->
<g id="edge24" class="edge">
<title>node19&#45;&gt;node20</title>
<path fill="none" stroke="black" d="M1011.16,-153.52C1070.72,-145.41 1165.88,-133.97 1249,-127 1331.2,-120.1 1419.28,-114.32 1503.86,-109.57"/>
<polygon fill="black" stroke="black" points="1504.1,-113.07 1513.89,-109.01 1503.71,-106.08 1504.1,-113.07"/>
<text text-anchor="middle" x="1496.27" y="-114.76" font-family="Times,serif" font-size="14.00">*0</text>
</g>
<!-- node19&#45;&gt;node20 -->
<g id="edge35" class="edge">
<title>node19&#45;&gt;node20</title>
<path fill="none" stroke="green" d="M1011.01,-155.37C1073.66,-147.24 1177.34,-134.52 1267,-127 1349.12,-120.11 1437.1,-114.33 1521.21,-109.59"/>
<polygon fill="green" stroke="green" points="1521.66,-113.07 1531.45,-109.01 1521.27,-106.08 1521.66,-113.07"/>
</g>
<!-- node19&#45;&gt;node20 -->
<g id="edge36" class="edge">
<title>node19&#45;&gt;node20</title>
<path fill="none" stroke="red" d="M1011.21,-156.94C1077.74,-148.97 1189.34,-135.03 1285,-127 1367.12,-120.11 1455.1,-114.33 1538.81,-109.59"/>
<polygon fill="red" stroke="red" points="1539.21,-113.07 1549,-109.01 1538.82,-106.08 1539.21,-113.07"/>
</g>
<!-- node17 -->
<g id="node4" class="node">
<title>node17</title>
<polygon fill="orange" stroke="black" points="3491.21,-302.54 3491.21,-317.46 3390.33,-328 3247.67,-328 3146.79,-317.46 3146.79,-302.54 3247.67,-292 3390.33,-292 3491.21,-302.54"/>
<text text-anchor="middle" x="3319" y="-306.3" font-family="Times,serif" font-size="14.00">#17 GetField : array_field : int[]</text>
</g>
<!-- node17&#45;&gt;node19 -->
<g id="edge3" class="edge">
<title>node17&#45;&gt;node19</title>
<path fill="none" stroke="green" d="M3197.28,-297.25C3171.77,-295.17 3145.02,-293.27 3120,-292 2085.19,-239.65 1823.81,-307.22 789,-255 647.78,-247.87 250.65,-305.14 155,-201 130.22,-174.01 689.6,-167.05 886.59,-165.44"/>
<polygon fill="green" stroke="green" points="886.84,-168.94 896.81,-165.36 886.79,-161.94 886.84,-168.94"/>
</g>
<!-- node17&#45;&gt;node20 -->
<g id="edge34" class="edge">
<title>node17&#45;&gt;node20</title>
<path fill="none" stroke="black" d="M3225.03,-294.34C2979.51,-256.04 2319.11,-153.01 2047.34,-110.62"/>
<polygon fill="black" stroke="black" points="2047.86,-107.16 2037.44,-109.07 2046.79,-114.07 2047.86,-107.16"/>
<text text-anchor="middle" x="2056.66" y="-99.82" font-family="Times,serif" font-size="14.00">*10</text>
</g>
<!-- node18 -->
<g id="node5" class="node">
<title>node18</title>
<polygon fill="lightgrey" stroke="black" points="926,-255 798,-255 798,-219 926,-219 926,-255"/>
<text text-anchor="middle" x="862" y="-233.3" font-family="Times,serif" font-size="14.00">#18 LabelNode</text>
</g>
<!-- node18&#45;&gt;node19 -->
<g id="edge4" class="edge">
<title>node18&#45;&gt;node19</title>
<path fill="none" stroke="red" d="M884.27,-218.81C896.14,-209.66 910.9,-198.26 923.79,-188.32"/>
<polygon fill="red" stroke="red" points="926.16,-190.91 931.93,-182.03 921.88,-185.37 926.16,-190.91"/>
</g>
<!-- node7 -->
<g id="node6" class="node">
<title>node7</title>
<polygon fill="lightgrey" stroke="black" points="857,-328 607,-328 607,-292 857,-292 857,-328"/>
<text text-anchor="middle" x="732" y="-306.3" font-family="Times,serif" font-size="14.00">#7 Invoke special &lt;init&gt; : ()void</text>
</g>
<!-- node7&#45;&gt;node18 -->
<g id="edge5" class="edge">
<title>node7&#45;&gt;node18</title>
<path fill="none" stroke="red" d="M763.14,-291.99C780.7,-282.4 802.83,-270.32 821.7,-260.01"/>
<polygon fill="red" stroke="red" points="823.57,-262.98 830.67,-255.11 820.21,-256.84 823.57,-262.98"/>
</g>
<!-- node8 -->
<g id="node14" class="node">
<title>node8</title>
<polygon fill="orange" stroke="black" points="1217.51,-302.54 1217.51,-317.46 1122.32,-328 987.68,-328 892.49,-317.46 892.49,-302.54 987.68,-292 1122.32,-292 1217.51,-302.54"/>
<text text-anchor="middle" x="1055" y="-306.3" font-family="Times,serif" font-size="14.00">#8 GetField : byte_field : byte</text>
</g>
<!-- node7&#45;&gt;node8 -->
<g id="edge23" class="edge">
<title>node7&#45;&gt;node8</title>
<path fill="none" stroke="green" d="M857.23,-310C865.56,-310 873.89,-310 882.22,-310"/>
<polygon fill="green" stroke="green" points="882.38,-313.5 892.38,-310 882.38,-306.5 882.38,-313.5"/>
</g>
<!-- node6 -->
<g id="node7" class="node">
<title>node6</title>
<polygon fill="orange" stroke="black" points="1981.12,-375.54 1981.12,-390.46 1950.59,-401 1907.41,-401 1876.88,-390.46 1876.88,-375.54 1907.41,-365 1950.59,-365 1981.12,-375.54"/>
<text text-anchor="middle" x="1929" y="-379.3" font-family="Times,serif" font-size="14.00">#6 New</text>
</g>
<!-- node6&#45;&gt;node17 -->
<g id="edge37" class="edge">
<title>node6&#45;&gt;node17</title>
<path fill="none" stroke="black" d="M1981.28,-380.37C2147.71,-375.04 2680.06,-356.75 3120,-328 3140.69,-326.65 3162.56,-325 3183.94,-323.27"/>
<polygon fill="black" stroke="black" points="3184.38,-326.75 3194.06,-322.44 3183.81,-319.77 3184.38,-326.75"/>
<text text-anchor="middle" x="3176.68" y="-328.64" font-family="Times,serif" font-size="14.00">*0</text>
</g>
<!-- node6&#45;&gt;node7 -->
<g id="edge6" class="edge">
<title>node6&#45;&gt;node7</title>
<path fill="none" stroke="black" d="M1876.81,-380.55C1722.86,-375.85 1257.98,-359.5 874,-328 871.76,-327.82 869.5,-327.63 867.22,-327.43"/>
<polygon fill="black" stroke="black" points="867.44,-323.93 857.17,-326.53 866.81,-330.91 867.44,-323.93"/>
<text text-anchor="middle" x="875.97" y="-316.02" font-family="Times,serif" font-size="14.00">*0</text>
</g>
<!-- node6&#45;&gt;node7 -->
<g id="edge8" class="edge">
<title>node6&#45;&gt;node7</title>
<path fill="none" stroke="green" d="M1876.67,-380.29C1724.43,-375.26 1269.19,-358.94 892,-328 883.96,-327.34 875.69,-326.6 867.34,-325.8"/>
<polygon fill="green" stroke="green" points="867.42,-322.29 857.13,-324.8 866.74,-329.25 867.42,-322.29"/>
</g>
<!-- node11 -->
<g id="node11" class="node">
<title>node11</title>
<polygon fill="orange" stroke="black" points="3846.68,-302.54 3846.68,-317.46 3747.87,-328 3608.13,-328 3509.32,-317.46 3509.32,-302.54 3608.13,-292 3747.87,-292 3846.68,-302.54"/>
<text text-anchor="middle" x="3678" y="-306.3" font-family="Times,serif" font-size="14.00">#11 GetField : char_field : char</text>
</g>
<!-- node6&#45;&gt;node11 -->
<g id="edge16" class="edge">
<title>node6&#45;&gt;node11</title>
<path fill="none" stroke="black" d="M1981.27,-381.36C2179.56,-378.68 2904.27,-366.65 3500,-328 3516.7,-326.92 3534.27,-325.54 3551.59,-324.03"/>
<polygon fill="black" stroke="black" points="3552.09,-327.5 3561.75,-323.13 3551.48,-320.53 3552.09,-327.5"/>
<text text-anchor="middle" x="3544.44" y="-329.45" font-family="Times,serif" font-size="14.00">*0</text>
</g>
<!-- node10 -->
<g id="node12" class="node">
<title>node10</title>
<polygon fill="orange" stroke="black" points="4237.06,-302.54 4237.06,-317.46 4133.34,-328 3986.66,-328 3882.94,-317.46 3882.94,-302.54 3986.66,-292 4133.34,-292 4237.06,-302.54"/>
<text text-anchor="middle" x="4060" y="-306.3" font-family="Times,serif" font-size="14.00">#10 GetField : short_field : short</text>
</g>
<!-- node6&#45;&gt;node10 -->
<g id="edge18" class="edge">
<title>node6&#45;&gt;node10</title>
<path fill="none" stroke="black" d="M1981.16,-381.59C2205.74,-379.63 3112.49,-369.4 3856,-328 3877.87,-326.78 3901.03,-325.17 3923.6,-323.41"/>
<polygon fill="black" stroke="black" points="3923.88,-326.9 3933.57,-322.63 3923.33,-319.92 3923.88,-326.9"/>
<text text-anchor="middle" x="3916.16" y="-328.78" font-family="Times,serif" font-size="14.00">*0</text>
</g>
<!-- node9 -->
<g id="node13" class="node">
<title>node9</title>
<polygon fill="orange" stroke="black" points="589.05,-302.54 589.05,-317.46 474.21,-328 311.79,-328 196.95,-317.46 196.95,-302.54 311.79,-292 474.21,-292 589.05,-302.54"/>
<text text-anchor="middle" x="393" y="-306.3" font-family="Times,serif" font-size="14.00">#9 GetField : boolean_field : boolean</text>
</g>
<!-- node6&#45;&gt;node9 -->
<g id="edge20" class="edge">
<title>node6&#45;&gt;node9</title>
<path fill="none" stroke="black" d="M1876.64,-380.67C1697.87,-375.96 1095.14,-358.68 598,-328 578.79,-326.81 558.58,-325.37 538.65,-323.84"/>
<polygon fill="black" stroke="black" points="538.82,-320.34 528.57,-323.05 538.27,-327.32 538.82,-320.34"/>
<text text-anchor="middle" x="547.3" y="-312.34" font-family="Times,serif" font-size="14.00">*0</text>
</g>
<!-- node6&#45;&gt;node8 -->
<g id="edge22" class="edge">
<title>node6&#45;&gt;node8</title>
<path fill="none" stroke="black" d="M1876.93,-378.4C1760.31,-370.25 1469.26,-349.43 1226,-328 1211.13,-326.69 1195.54,-325.24 1180.08,-323.76"/>
<polygon fill="black" stroke="black" points="1180.23,-320.26 1169.94,-322.78 1179.56,-327.23 1180.23,-320.26"/>
<text text-anchor="middle" x="1188.8" y="-312.41" font-family="Times,serif" font-size="14.00">*0</text>
</g>
<!-- node12 -->
<g id="node16" class="node">
<title>node12</title>
<polygon fill="orange" stroke="black" points="1538.91,-302.54 1538.91,-317.46 1449.92,-328 1324.08,-328 1235.09,-317.46 1235.09,-302.54 1324.08,-292 1449.92,-292 1538.91,-302.54"/>
<text text-anchor="middle" x="1387" y="-306.3" font-family="Times,serif" font-size="14.00">#12 GetField : int_field : int</text>
</g>
<!-- node6&#45;&gt;node12 -->
<g id="edge47" class="edge">
<title>node6&#45;&gt;node12</title>
<path fill="none" stroke="black" d="M1877.52,-375.26C1790.16,-363.81 1611.09,-340.35 1495.18,-325.17"/>
<polygon fill="black" stroke="black" points="1495.58,-321.69 1485.21,-323.86 1494.67,-328.63 1495.58,-321.69"/>
<text text-anchor="middle" x="1504.28" y="-314.14" font-family="Times,serif" font-size="14.00">*0</text>
</g>
<!-- node13 -->
<g id="node17" class="node">
<title>node13</title>
<polygon fill="orange" stroke="black" points="1911.27,-302.54 1911.27,-317.46 1812.7,-328 1673.3,-328 1574.73,-317.46 1574.73,-302.54 1673.3,-292 1812.7,-292 1911.27,-302.54"/>
<text text-anchor="middle" x="1743" y="-306.3" font-family="Times,serif" font-size="14.00">#13 GetField : long_field : long</text>
</g>
<!-- node6&#45;&gt;node13 -->
<g id="edge45" class="edge">
<title>node6&#45;&gt;node13</title>
<path fill="none" stroke="black" d="M1895.32,-369.14C1867.99,-358.71 1828.95,-343.81 1797.23,-331.7"/>
<polygon fill="black" stroke="black" points="1798.23,-328.34 1787.64,-328.04 1795.73,-334.88 1798.23,-328.34"/>
<text text-anchor="middle" x="1807.59" y="-322.91" font-family="Times,serif" font-size="14.00">*0</text>
</g>
<!-- node14 -->
<g id="node18" class="node">
<title>node14</title>
<polygon fill="orange" stroke="black" points="2283.68,-302.54 2283.68,-317.46 2184.87,-328 2045.13,-328 1946.32,-317.46 1946.32,-302.54 2045.13,-292 2184.87,-292 2283.68,-302.54"/>
<text text-anchor="middle" x="2115" y="-306.3" font-family="Times,serif" font-size="14.00">#14 GetField : float_field : float</text>
</g>
<!-- node6&#45;&gt;node14 -->
<g id="edge43" class="edge">
<title>node6&#45;&gt;node14</title>
<path fill="none" stroke="black" d="M1962.68,-369.14C1990.01,-358.71 2029.05,-343.81 2060.77,-331.7"/>
<polygon fill="black" stroke="black" points="2062.27,-334.88 2070.36,-328.04 2059.77,-328.34 2062.27,-334.88"/>
<text text-anchor="middle" x="2056.44" y="-338.7" font-family="Times,serif" font-size="14.00">*0</text>
</g>
<!-- node15 -->
<g id="node19" class="node">
<title>node15</title>
<polygon fill="orange" stroke="black" points="2703.11,-302.54 2703.11,-317.46 2590.57,-328 2431.43,-328 2318.89,-317.46 2318.89,-302.54 2431.43,-292 2590.57,-292 2703.11,-302.54"/>
<text text-anchor="middle" x="2511" y="-306.3" font-family="Times,serif" font-size="14.00">#15 GetField : double_field : double</text>
</g>
<!-- node6&#45;&gt;node15 -->
<g id="edge41" class="edge">
<title>node6&#45;&gt;node15</title>
<path fill="none" stroke="black" d="M1981.16,-375.64C2071.96,-364.56 2261.39,-341.45 2387.39,-326.08"/>
<polygon fill="black" stroke="black" points="2387.98,-329.53 2397.48,-324.85 2387.13,-322.59 2387.98,-329.53"/>
<text text-anchor="middle" x="2380.51" y="-331.73" font-family="Times,serif" font-size="14.00">*0</text>
</g>
<!-- node16 -->
<g id="node20" class="node">
<title>node16</title>
<polygon fill="orange" stroke="black" points="3111.35,-302.54 3111.35,-317.46 3002.19,-328 2847.81,-328 2738.65,-317.46 2738.65,-302.54 2847.81,-292 3002.19,-292 3111.35,-302.54"/>
<text text-anchor="middle" x="2925" y="-306.3" font-family="Times,serif" font-size="14.00">#16 GetField : string_field : String</text>
</g>
<!-- node6&#45;&gt;node16 -->
<g id="edge39" class="edge">
<title>node6&#45;&gt;node16</title>
<path fill="none" stroke="black" d="M1981.24,-378.59C2107.06,-370.34 2436.83,-348.47 2712,-328 2733.17,-326.42 2755.53,-324.7 2777.47,-322.98"/>
<polygon fill="black" stroke="black" points="2777.83,-326.47 2787.52,-322.19 2777.28,-319.49 2777.83,-326.47"/>
<text text-anchor="middle" x="2770.11" y="-328.34" font-family="Times,serif" font-size="14.00">*0</text>
</g>
<!-- node4&#45;&gt;node7 -->
<g id="edge7" class="edge">
<title>node4&#45;&gt;node7</title>
<path fill="none" stroke="red" d="M780.47,-437.92C771.01,-413.12 753.37,-366.95 742.18,-337.66"/>
<polygon fill="red" stroke="red" points="745.35,-336.15 738.52,-328.06 738.82,-338.65 745.35,-336.15"/>
</g>
<!-- node4&#45;&gt;node6 -->
<g id="edge9" class="edge">
<title>node4&#45;&gt;node6</title>
<path fill="none" stroke="black" d="M839.73,-451.53C1027.71,-439.54 1664.2,-399.97 1866.66,-387.68"/>
<polygon fill="black" stroke="black" points="1867.06,-391.16 1876.83,-387.06 1866.63,-384.17 1867.06,-391.16"/>
<text text-anchor="middle" x="1859.25" y="-392.89" font-family="Times,serif" font-size="14.00">*0</text>
</g>
<!-- node4&#45;&gt;node6 -->
<g id="edge10" class="edge">
<title>node4&#45;&gt;node6</title>
<path fill="none" stroke="green" d="M839.78,-451.9C1027.81,-440.52 1664.09,-400.97 1866.6,-388.09"/>
<polygon fill="green" stroke="green" points="1867.01,-391.57 1876.77,-387.44 1866.56,-384.58 1867.01,-391.57"/>
</g>
<!-- node3&#45;&gt;node4 -->
<g id="edge11" class="edge">
<title>node3&#45;&gt;node4</title>
<path fill="none" stroke="black" d="M593.84,-510.99C633.35,-499.95 684.7,-485.59 724.53,-474.46"/>
<polygon fill="black" stroke="black" points="725.71,-477.77 734.4,-471.7 723.82,-471.03 725.71,-477.77"/>
<text text-anchor="middle" x="719.21" y="-481.02" font-family="Times,serif" font-size="14.00">*0</text>
</g>
<!-- node2&#45;&gt;node4 -->
<g id="edge12" class="edge">
<title>node2&#45;&gt;node4</title>
<path fill="none" stroke="red" d="M828.69,-510.81C822,-502.18 813.77,-491.56 806.39,-482.03"/>
<polygon fill="red" stroke="red" points="809.08,-479.79 800.19,-474.03 803.55,-484.08 809.08,-479.79"/>
</g>
<!-- node11&#45;&gt;node20 -->
<g id="edge28" class="edge">
<title>node11&#45;&gt;node20</title>
<path fill="none" stroke="black" d="M3575.68,-295.4C3359.46,-266.79 2840.11,-198.63 2404,-146 2300.74,-133.54 2184.77,-120.36 2093.15,-110.15"/>
<polygon fill="black" stroke="black" points="2093.28,-106.64 2082.95,-109.01 2092.5,-113.6 2093.28,-106.64"/>
<text text-anchor="middle" x="2101.9" y="-98.92" font-family="Times,serif" font-size="14.00">*4</text>
</g>
<!-- node11&#45;&gt;node12 -->
<g id="edge48" class="edge">
<title>node11&#45;&gt;node12</title>
<path fill="none" stroke="green" d="M3604.76,-327.69C3570.44,-335.1 3528.86,-342.84 3491,-346.5 3279.1,-366.99 1786.91,-366.88 1575,-346.5 1539.61,-343.1 1500.98,-336.17 1467.99,-329.25"/>
<polygon fill="green" stroke="green" points="1468.46,-325.77 1457.95,-327.11 1467,-332.62 1468.46,-325.77"/>
</g>
<!-- node10&#45;&gt;node11 -->
<g id="edge17" class="edge">
<title>node10&#45;&gt;node11</title>
<path fill="none" stroke="green" d="M3882.77,-310C3874.2,-310 3865.63,-310 3857.05,-310"/>
<polygon fill="green" stroke="green" points="3856.99,-306.5 3846.99,-310 3856.99,-313.5 3856.99,-306.5"/>
</g>
<!-- node10&#45;&gt;node20 -->
<g id="edge27" class="edge">
<title>node10&#45;&gt;node20</title>
<path fill="none" stroke="black" d="M3947.81,-295.88C3698.71,-266.96 3080.49,-196.28 2562,-146 2426.18,-132.83 2273.82,-119.79 2152.5,-109.83"/>
<polygon fill="black" stroke="black" points="2152.6,-106.33 2142.34,-109 2152.02,-113.31 2152.6,-106.33"/>
<text text-anchor="middle" x="2161.1" y="-98.36" font-family="Times,serif" font-size="14.00">*3</text>
</g>
<!-- node9&#45;&gt;node10 -->
<g id="edge19" class="edge">
<title>node9&#45;&gt;node10</title>
<path fill="none" stroke="green" d="M477.2,-327.74C516.45,-335.14 563.91,-342.85 607,-346.5 786.36,-361.69 3667.65,-361.76 3847,-346.5 3887.24,-343.08 3931.29,-336.08 3968.84,-329.12"/>
<polygon fill="green" stroke="green" points="3969.56,-332.55 3978.74,-327.26 3968.27,-325.67 3969.56,-332.55"/>
</g>
<!-- node9&#45;&gt;node20 -->
<g id="edge26" class="edge">
<title>node9&#45;&gt;node20</title>
<path fill="none" stroke="black" d="M280.77,-294.83C196.65,-279.83 103.55,-251.05 151,-200 196.21,-151.36 981.85,-119.34 1493.22,-103.56"/>
<polygon fill="black" stroke="black" points="1493.48,-107.06 1503.37,-103.25 1493.26,-100.06 1493.48,-107.06"/>
<text text-anchor="middle" x="1485.51" y="-108.55" font-family="Times,serif" font-size="14.00">*2</text>
</g>
<!-- node8&#45;&gt;node9 -->
<g id="edge21" class="edge">
<title>node8&#45;&gt;node9</title>
<path fill="none" stroke="green" d="M979.76,-327.21C942.97,-334.77 897.9,-342.76 857,-346.5 746.35,-356.61 717.71,-355.87 607,-346.5 567.61,-343.16 524.57,-336.44 487.49,-329.65"/>
<polygon fill="green" stroke="green" points="487.67,-326.13 477.2,-327.74 486.39,-333.01 487.67,-326.13"/>
</g>
<!-- node8&#45;&gt;node20 -->
<g id="edge25" class="edge">
<title>node8&#45;&gt;node20</title>
<path fill="none" stroke="black" d="M1121.31,-291.89C1238.11,-261.84 1488.25,-197.83 1700,-146 1747.93,-134.27 1801.63,-121.53 1844.87,-111.37"/>
<polygon fill="black" stroke="black" points="1845.84,-114.74 1854.77,-109.05 1844.24,-107.93 1845.84,-114.74"/>
<text text-anchor="middle" x="1839.06" y="-117.72" font-family="Times,serif" font-size="14.00">*1</text>
</g>
<!-- node21 -->
<g id="node21" class="node">
<title>node21</title>
<polygon fill="lightgrey" stroke="black" points="2014.5,-36 1841.5,-36 1841.5,0 2014.5,0 2014.5,-36"/>
<text text-anchor="middle" x="1928" y="-14.3" font-family="Times,serif" font-size="14.00">#21 ReturnValue : int</text>
</g>
<!-- node20&#45;&gt;node21 -->
<g id="edge49" class="edge">
<title>node20&#45;&gt;node21</title>
<path fill="none" stroke="black" d="M1916.24,-72.81C1914.56,-64.79 1914.1,-55.05 1914.84,-46.07"/>
<polygon fill="black" stroke="black" points="1918.33,-46.42 1916.28,-36.03 1911.4,-45.43 1918.33,-46.42"/>
<text text-anchor="middle" x="1922.08" y="-51.47" font-family="Times,serif" font-size="14.00">*0</text>
</g>
<!-- node20&#45;&gt;node21 -->
<g id="edge50" class="edge">
<title>node20&#45;&gt;node21</title>
<path fill="none" stroke="red" d="M1928,-72.81C1928,-64.79 1928,-55.05 1928,-46.07"/>
<polygon fill="red" stroke="red" points="1931.5,-46.03 1928,-36.03 1924.5,-46.03 1931.5,-46.03"/>
</g>
<!-- node20&#45;&gt;node21 -->
<g id="edge51" class="edge">
<title>node20&#45;&gt;node21</title>
<path fill="none" stroke="green" d="M1939.76,-72.81C1941.44,-64.79 1941.9,-55.05 1941.16,-46.07"/>
<polygon fill="green" stroke="green" points="1944.6,-45.43 1939.72,-36.03 1937.67,-46.42 1944.6,-45.43"/>
</g>
<!-- node12&#45;&gt;node20 -->
<g id="edge29" class="edge">
<title>node12&#45;&gt;node20</title>
<path fill="none" stroke="black" d="M1429.45,-291.97C1527.4,-252.68 1768.96,-155.79 1875.77,-112.95"/>
<polygon fill="black" stroke="black" points="1877.39,-116.07 1885.37,-109.1 1874.79,-109.57 1877.39,-116.07"/>
<text text-anchor="middle" x="1871.7" y="-119.99" font-family="Times,serif" font-size="14.00">*5</text>
</g>
<!-- node12&#45;&gt;node13 -->
<g id="edge46" class="edge">
<title>node12&#45;&gt;node13</title>
<path fill="none" stroke="green" d="M1538.93,-310C1547.52,-310 1556.11,-310 1564.71,-310"/>
<polygon fill="green" stroke="green" points="1564.8,-313.5 1574.8,-310 1564.8,-306.5 1564.8,-313.5"/>
</g>
<!-- node13&#45;&gt;node20 -->
<g id="edge30" class="edge">
<title>node13&#45;&gt;node20</title>
<path fill="none" stroke="black" d="M1757.52,-291.97C1789.99,-253.88 1868.64,-161.63 1906.68,-117"/>
<polygon fill="black" stroke="black" points="1909.47,-119.13 1913.29,-109.25 1904.14,-114.59 1909.47,-119.13"/>
<text text-anchor="middle" x="1907.97" y="-124.83" font-family="Times,serif" font-size="14.00">*6</text>
</g>
<!-- node13&#45;&gt;node14 -->
<g id="edge44" class="edge">
<title>node13&#45;&gt;node14</title>
<path fill="none" stroke="green" d="M1911.2,-310C1919.5,-310 1927.8,-310 1936.1,-310"/>
<polygon fill="green" stroke="green" points="1936.23,-313.5 1946.23,-310 1936.23,-306.5 1936.23,-313.5"/>
</g>
<!-- node14&#45;&gt;node20 -->
<g id="edge31" class="edge">
<title>node14&#45;&gt;node20</title>
<path fill="none" stroke="black" d="M2100.33,-291.97C2067.5,-253.88 1988,-161.63 1949.55,-117"/>
<polygon fill="black" stroke="black" points="1952.04,-114.54 1942.86,-109.25 1946.74,-119.11 1952.04,-114.54"/>
<text text-anchor="middle" x="1961.1" y="-113.76" font-family="Times,serif" font-size="14.00">*7</text>
</g>
<!-- node14&#45;&gt;node15 -->
<g id="edge42" class="edge">
<title>node14&#45;&gt;node15</title>
<path fill="none" stroke="green" d="M2284,-310C2292.1,-310 2300.21,-310 2308.31,-310"/>
<polygon fill="green" stroke="green" points="2308.58,-313.5 2318.58,-310 2308.58,-306.5 2308.58,-313.5"/>
</g>
<!-- node15&#45;&gt;node20 -->
<g id="edge32" class="edge">
<title>node15&#45;&gt;node20</title>
<path fill="none" stroke="black" d="M2465.25,-291.97C2359.49,-252.6 2098.33,-155.4 1983.59,-112.69"/>
<polygon fill="black" stroke="black" points="1984.53,-109.31 1973.94,-109.1 1982.09,-115.87 1984.53,-109.31"/>
<text text-anchor="middle" x="1993.87" y="-103.8" font-family="Times,serif" font-size="14.00">*8</text>
</g>
<!-- node15&#45;&gt;node16 -->
<g id="edge40" class="edge">
<title>node15&#45;&gt;node16</title>
<path fill="none" stroke="green" d="M2703.45,-310C2711.75,-310 2720.06,-310 2728.36,-310"/>
<polygon fill="green" stroke="green" points="2728.5,-313.5 2738.5,-310 2728.5,-306.5 2728.5,-313.5"/>
</g>
<!-- node16&#45;&gt;node17 -->
<g id="edge38" class="edge">
<title>node16&#45;&gt;node17</title>
<path fill="none" stroke="green" d="M3111.61,-310C3119.87,-310 3128.12,-310 3136.38,-310"/>
<polygon fill="green" stroke="green" points="3136.45,-313.5 3146.45,-310 3136.45,-306.5 3136.45,-313.5"/>
</g>
<!-- node16&#45;&gt;node20 -->
<g id="edge33" class="edge">
<title>node16&#45;&gt;node20</title>
<path fill="none" stroke="black" d="M2846.77,-291.97C2663.69,-252.13 2208.37,-153.02 2016.01,-111.15"/>
<polygon fill="black" stroke="black" points="2016.73,-107.73 2006.21,-109.02 2015.24,-114.57 2016.73,-107.73"/>
<text text-anchor="middle" x="2025.72" y="-100.92" font-family="Times,serif" font-size="14.00">*9</text>
</g>
<!-- c0 -->
<!-- c1 -->
<!-- c0&#45;&gt;c1 -->
<g id="edge52" class="edge">
<title>c0&#45;&gt;c1</title>
<path fill="none" stroke="red" d="M1477.89,-611C1489.11,-611 1547.24,-611 1572.86,-611"/>
<polygon fill="red" stroke="red" points="1573.06,-614.5 1583.06,-611 1573.06,-607.5 1573.06,-614.5"/>
<text text-anchor="middle" x="1530.5" y="-617.8" font-family="Times,serif" font-size="14.00">Control flow</text>
</g>
<!-- c2 -->
<!-- c3 -->
<!-- c2&#45;&gt;c3 -->
<g id="edge53" class="edge">
<title>c2&#45;&gt;c3</title>
<path fill="none" stroke="red" stroke-dasharray="5,2" d="M1271.08,-611C1288.05,-611 1404.21,-611 1442.08,-611"/>
<polygon fill="red" stroke="red" points="1442.17,-614.5 1452.17,-611 1442.17,-607.5 1442.17,-614.5"/>
<text text-anchor="middle" x="1361.5" y="-617.8" font-family="Times,serif" font-size="14.00">Control flow back edge</text>
</g>
<!-- d0 -->
<!-- d1 -->
<!-- d0&#45;&gt;d1 -->
<g id="edge54" class="edge">
<title>d0&#45;&gt;d1</title>
<path fill="none" stroke="black" d="M1159.86,-611C1169.41,-611 1213.31,-611 1234.92,-611"/>
<polygon fill="black" stroke="black" points="1235.15,-614.5 1245.15,-611 1235.15,-607.5 1235.15,-614.5"/>
<text text-anchor="middle" x="1202.5" y="-617.8" font-family="Times,serif" font-size="14.00">Data flow</text>
</g>
<!-- d2 -->
<!-- d3 -->
<!-- d2&#45;&gt;d3 -->
<g id="edge55" class="edge">
<title>d2&#45;&gt;d3</title>
<path fill="none" stroke="black" stroke-dasharray="1,5" d="M1033.81,-611C1044.46,-611 1099.46,-611 1124.08,-611"/>
<polygon fill="black" stroke="black" points="1124.15,-614.5 1134.15,-611 1124.15,-607.5 1124.15,-614.5"/>
<text text-anchor="middle" x="1084" y="-617.8" font-family="Times,serif" font-size="14.00">Declaration</text>
</g>
<!-- d4 -->
<!-- d5 -->
<!-- d4&#45;&gt;d5 -->
<g id="edge56" class="edge">
<title>d4&#45;&gt;d5</title>
<path fill="none" stroke="blue" d="M891.1,-611C903.72,-611 969.88,-611 997.68,-611"/>
<polygon fill="blue" stroke="blue" points="997.84,-614.5 1007.84,-611 997.84,-607.5 997.84,-614.5"/>
<text text-anchor="middle" x="949.5" y="-617.8" font-family="Times,serif" font-size="14.00">PHI Data flow</text>
</g>
<!-- d6 -->
<!-- d7 -->
<!-- d6&#45;&gt;d7 -->
<g id="edge57" class="edge">
<title>d6&#45;&gt;d7</title>
<path fill="none" stroke="green" d="M754,-611C765.94,-611 828.3,-611 854.93,-611"/>
<polygon fill="green" stroke="green" points="854.95,-614.5 864.95,-611 854.95,-607.5 854.95,-614.5"/>
<text text-anchor="middle" x="809.5" y="-617.8" font-family="Times,serif" font-size="14.00">Memory flow</text>
</g>
</g>
</svg>
