<?xml version="1.0" encoding="UTF-8" standalone="no"?>
<!DOCTYPE svg PUBLIC "-//W3C//DTD SVG 1.1//EN"
 "http://www.w3.org/Graphics/SVG/1.1/DTD/svg11.dtd">
<!-- Generated by graphviz version 2.43.0 (0)
 -->
<!-- Title: %3 Pages: 1 -->
<svg width="4657pt" height="587pt"
 viewBox="0.00 0.00 4656.51 586.80" xmlns="http://www.w3.org/2000/svg" xmlns:xlink="http://www.w3.org/1999/xlink">
<g id="graph0" class="graph" transform="scale(1 1) rotate(0) translate(4 582.8)">
<title>%3</title>
<polygon fill="white" stroke="transparent" points="-4,4 -4,-582.8 4652.51,-582.8 4652.51,4 -4,4"/>
<g id="clust1" class="cluster">
<title>cluster_0</title>
<polygon fill="none" stroke="lightgray" points="4055.51,-138 4055.51,-263 4389.51,-263 4389.51,-138 4055.51,-138"/>
</g>
<g id="clust2" class="cluster">
<title>cluster_1</title>
<polygon fill="none" stroke="lightgray" points="3551.51,-357 3551.51,-482 3953.51,-482 3953.51,-357 3551.51,-357"/>
</g>
<g id="clust3" class="cluster">
<title>cluster_000</title>
<polygon fill="none" stroke="black" points="3787.51,-528.2 3787.51,-570.8 4640.51,-570.8 4640.51,-528.2 3787.51,-528.2"/>
<text text-anchor="middle" x="4214.01" y="-555.6" font-family="Times,serif" font-size="14.00">Legend</text>
</g>
<!-- node0 -->
<g id="node1" class="node">
<title>node0</title>
<polygon fill="lightgrey" stroke="transparent" points="3778.01,-565 3593.01,-565 3593.01,-511 3778.01,-511 3778.01,-565"/>
<polygon fill="none" stroke="black" points="3593.51,-538 3593.51,-565 3778.51,-565 3778.51,-538 3593.51,-538"/>
<text text-anchor="start" x="3645.51" y="-547.8" font-family="Times,serif" font-size="14.00">#0 Method</text>
<polygon fill="yellow" stroke="transparent" points="3593.51,-511 3593.51,-538 3778.51,-538 3778.51,-511 3593.51,-511"/>
<polygon fill="none" stroke="black" points="3593.51,-511 3593.51,-538 3778.51,-538 3778.51,-511 3593.51,-511"/>
<text text-anchor="start" x="3599.51" y="-520.8" font-family="Times,serif" font-size="14.00">this : MethodInvokeTest</text>
</g>
<!-- node2 -->
<g id="node2" class="node">
<title>node2</title>
<polygon fill="lightgrey" stroke="black" points="3745.01,-474 3626.01,-474 3626.01,-438 3745.01,-438 3745.01,-474"/>
<text text-anchor="middle" x="3685.51" y="-452.3" font-family="Times,serif" font-size="14.00">#2 LabelNode</text>
</g>
<!-- node0&#45;&gt;node2 -->
<g id="edge1" class="edge">
<title>node0&#45;&gt;node2</title>
<path fill="none" stroke="red" d="M3685.51,-510.81C3685.51,-502.35 3685.51,-492.95 3685.51,-484.4"/>
<polygon fill="red" stroke="red" points="3689.01,-484.17 3685.51,-474.17 3682.01,-484.17 3689.01,-484.17"/>
</g>
<!-- node4 -->
<g id="node4" class="node">
<title>node4</title>
<polygon fill="lightgrey" stroke="black" points="3596.01,-328 3491.01,-328 3491.01,-292 3596.01,-292 3596.01,-328"/>
<text text-anchor="middle" x="3543.51" y="-306.3" font-family="Times,serif" font-size="14.00">#4 ClassInit</text>
</g>
<!-- node0&#45;&gt;node4 -->
<g id="edge5" class="edge">
<title>node0&#45;&gt;node4</title>
<path fill="none" stroke="green" d="M3778.04,-512.2C3779.88,-511.79 3781.7,-511.39 3783.51,-511 3821.83,-502.74 3932.17,-511.91 3957.51,-482 3993.42,-439.61 3994.56,-398.4 3957.51,-357 3934.55,-331.36 3716.82,-318.41 3606.68,-313.46"/>
<polygon fill="green" stroke="green" points="3606.51,-309.95 3596.36,-313.01 3606.2,-316.95 3606.51,-309.95"/>
</g>
<!-- node3 -->
<g id="node3" class="node">
<title>node3</title>
<polygon fill="lightgreen" stroke="black" points="3945.93,-375.54 3945.93,-390.46 3832.62,-401 3672.39,-401 3559.09,-390.46 3559.09,-375.54 3672.39,-365 3832.62,-365 3945.93,-375.54"/>
<text text-anchor="middle" x="3752.51" y="-379.3" font-family="Times,serif" font-size="14.00">#3 Class MethodInvokeTest$Source</text>
</g>
<!-- node2&#45;&gt;node3 -->
<g id="edge2" class="edge">
<title>node2&#45;&gt;node3</title>
<path fill="none" stroke="black" stroke-dasharray="1,5" d="M3701.73,-437.81C3710.04,-429 3720.3,-418.13 3729.43,-408.46"/>
<polygon fill="black" stroke="black" points="3732.12,-410.7 3736.44,-401.03 3727.03,-405.9 3732.12,-410.7"/>
</g>
<!-- node2&#45;&gt;node4 -->
<g id="edge4" class="edge">
<title>node2&#45;&gt;node4</title>
<path fill="none" stroke="red" d="M3625.84,-445.86C3598.47,-438.46 3568.23,-425.1 3550.51,-401 3537.35,-383.1 3536.62,-357.43 3538.58,-338.08"/>
<polygon fill="red" stroke="red" points="3542.06,-338.44 3539.89,-328.07 3535.12,-337.53 3542.06,-338.44"/>
</g>
<!-- node3&#45;&gt;node4 -->
<g id="edge3" class="edge">
<title>node3&#45;&gt;node4</title>
<path fill="none" stroke="black" d="M3702.45,-364.99C3672.68,-354.88 3634.73,-341.99 3603.38,-331.34"/>
<polygon fill="black" stroke="black" points="3604.48,-328.02 3593.88,-328.11 3602.23,-334.64 3604.48,-328.02"/>
<text text-anchor="middle" x="3613.76" y="-322.24" font-family="Times,serif" font-size="14.00">*0</text>
</g>
<!-- node5 -->
<g id="node5" class="node">
<title>node5</title>
<polygon fill="orange" stroke="black" points="2232.62,-229.54 2232.62,-244.46 2202.09,-255 2158.92,-255 2128.39,-244.46 2128.39,-229.54 2158.92,-219 2202.09,-219 2232.62,-229.54"/>
<text text-anchor="middle" x="2180.51" y="-233.3" font-family="Times,serif" font-size="14.00">#5 New</text>
</g>
<!-- node4&#45;&gt;node5 -->
<g id="edge6" class="edge">
<title>node4&#45;&gt;node5</title>
<path fill="none" stroke="black" d="M3490.63,-306.39C3276.35,-295.5 2473.64,-253.69 2242.87,-241.41"/>
<polygon fill="black" stroke="black" points="2242.81,-237.9 2232.64,-240.87 2242.44,-244.89 2242.81,-237.9"/>
<text text-anchor="middle" x="2251.19" y="-229.69" font-family="Times,serif" font-size="14.00">*0</text>
</g>
<!-- node4&#45;&gt;node5 -->
<g id="edge7" class="edge">
<title>node4&#45;&gt;node5</title>
<path fill="none" stroke="green" d="M3490.85,-306.11C3276.94,-294.7 2474.06,-252.87 2243.02,-241.1"/>
<polygon fill="green" stroke="green" points="2242.94,-237.59 2232.78,-240.58 2242.59,-244.58 2242.94,-237.59"/>
</g>
<!-- node6 -->
<g id="node11" class="node">
<title>node6</title>
<polygon fill="lightgrey" stroke="black" points="4045.51,-182 3795.51,-182 3795.51,-146 4045.51,-146 4045.51,-182"/>
<text text-anchor="middle" x="3920.51" y="-160.3" font-family="Times,serif" font-size="14.00">#6 Invoke special &lt;init&gt; : ()void</text>
</g>
<!-- node4&#45;&gt;node6 -->
<g id="edge19" class="edge">
<title>node4&#45;&gt;node6</title>
<path fill="none" stroke="red" d="M3588.23,-291.92C3657.67,-265.39 3791.2,-214.39 3866.11,-185.78"/>
<polygon fill="red" stroke="red" points="3867.74,-188.9 3875.84,-182.06 3865.25,-182.36 3867.74,-188.9"/>
</g>
<!-- node11 -->
<g id="node6" class="node">
<title>node11</title>
<polygon fill="orange" stroke="black" points="2599.42,-156.54 2599.42,-171.46 2510.43,-182 2384.58,-182 2295.6,-171.46 2295.6,-156.54 2384.58,-146 2510.43,-146 2599.42,-156.54"/>
<text text-anchor="middle" x="2447.51" y="-160.3" font-family="Times,serif" font-size="14.00">#11 GetField : int_field : int</text>
</g>
<!-- node5&#45;&gt;node11 -->
<g id="edge8" class="edge">
<title>node5&#45;&gt;node11</title>
<path fill="none" stroke="black" d="M2220.77,-225.29C2261.26,-214.53 2324.62,-197.68 2374.08,-184.53"/>
<polygon fill="black" stroke="black" points="2375.01,-187.9 2383.77,-181.95 2373.21,-181.14 2375.01,-187.9"/>
<text text-anchor="middle" x="2368.43" y="-191.07" font-family="Times,serif" font-size="14.00">*0</text>
</g>
<!-- node10 -->
<g id="node7" class="node">
<title>node10</title>
<polygon fill="orange" stroke="black" points="2972.18,-156.54 2972.18,-171.46 2873.37,-182 2733.64,-182 2634.83,-171.46 2634.83,-156.54 2733.64,-146 2873.37,-146 2972.18,-156.54"/>
<text text-anchor="middle" x="2803.51" y="-160.3" font-family="Times,serif" font-size="14.00">#10 GetField : char_field : char</text>
</g>
<!-- node5&#45;&gt;node10 -->
<g id="edge10" class="edge">
<title>node5&#45;&gt;node10</title>
<path fill="none" stroke="black" d="M2232.82,-230.04C2331.26,-218.82 2546.37,-194.3 2682.56,-178.78"/>
<polygon fill="black" stroke="black" points="2683.09,-182.25 2692.63,-177.64 2682.3,-175.29 2683.09,-182.25"/>
<text text-anchor="middle" x="2675.58" y="-184.39" font-family="Times,serif" font-size="14.00">*0</text>
</g>
<!-- node9 -->
<g id="node8" class="node">
<title>node9</title>
<polygon fill="orange" stroke="black" points="3349.4,-156.54 3349.4,-171.46 3249.29,-182 3107.72,-182 3007.61,-171.46 3007.61,-156.54 3107.72,-146 3249.29,-146 3349.4,-156.54"/>
<text text-anchor="middle" x="3178.51" y="-160.3" font-family="Times,serif" font-size="14.00">#9 GetField : short_field : short</text>
</g>
<!-- node5&#45;&gt;node9 -->
<g id="edge12" class="edge">
<title>node5&#45;&gt;node9</title>
<path fill="none" stroke="black" d="M2233.01,-232.8C2361.03,-224.93 2699.4,-203.68 2981.51,-182 3001.29,-180.48 3022.18,-178.78 3042.67,-177.06"/>
<polygon fill="black" stroke="black" points="3043.02,-180.54 3052.69,-176.21 3042.43,-173.57 3043.02,-180.54"/>
<text text-anchor="middle" x="3035.34" y="-182.46" font-family="Times,serif" font-size="14.00">*0</text>
</g>
<!-- node8 -->
<g id="node9" class="node">
<title>node8</title>
<polygon fill="orange" stroke="black" points="3777.56,-156.54 3777.56,-171.46 3662.71,-182 3500.3,-182 3385.46,-171.46 3385.46,-156.54 3500.3,-146 3662.71,-146 3777.56,-156.54"/>
<text text-anchor="middle" x="3581.51" y="-160.3" font-family="Times,serif" font-size="14.00">#8 GetField : boolean_field : boolean</text>
</g>
<!-- node5&#45;&gt;node8 -->
<g id="edge14" class="edge">
<title>node5&#45;&gt;node8</title>
<path fill="none" stroke="black" d="M2232.79,-234.17C2398.02,-228.26 2923.76,-208.53 3358.51,-182 3381.48,-180.6 3405.77,-178.93 3429.54,-177.2"/>
<polygon fill="black" stroke="black" points="3429.97,-180.68 3439.69,-176.46 3429.46,-173.7 3429.97,-180.68"/>
<text text-anchor="middle" x="3422.23" y="-182.52" font-family="Times,serif" font-size="14.00">*0</text>
</g>
<!-- node7 -->
<g id="node10" class="node">
<title>node7</title>
<polygon fill="orange" stroke="black" points="325.02,-156.54 325.02,-171.46 229.82,-182 95.19,-182 -0.01,-171.46 -0.01,-156.54 95.19,-146 229.82,-146 325.02,-156.54"/>
<text text-anchor="middle" x="162.51" y="-160.3" font-family="Times,serif" font-size="14.00">#7 GetField : byte_field : byte</text>
</g>
<!-- node5&#45;&gt;node7 -->
<g id="edge16" class="edge">
<title>node5&#45;&gt;node7</title>
<path fill="none" stroke="black" d="M2128.32,-235.8C1909.46,-234.66 1044.04,-227.39 334.51,-182 318.11,-180.95 300.86,-179.57 283.87,-178.06"/>
<polygon fill="black" stroke="black" points="284.18,-174.57 273.91,-177.15 283.55,-181.54 284.18,-174.57"/>
<text text-anchor="middle" x="292.72" y="-166.68" font-family="Times,serif" font-size="14.00">*0</text>
</g>
<!-- node5&#45;&gt;node6 -->
<g id="edge18" class="edge">
<title>node5&#45;&gt;node6</title>
<path fill="none" stroke="black" d="M2232.65,-235.99C2432.93,-235.57 3171.28,-230.54 3777.51,-182 3780.06,-181.8 3782.65,-181.58 3785.25,-181.35"/>
<polygon fill="black" stroke="black" points="3785.74,-184.82 3795.37,-180.4 3785.09,-177.85 3785.74,-184.82"/>
<text text-anchor="middle" x="3778.11" y="-186.8" font-family="Times,serif" font-size="14.00">*0</text>
</g>
<!-- node5&#45;&gt;node6 -->
<g id="edge20" class="edge">
<title>node5&#45;&gt;node6</title>
<path fill="none" stroke="green" d="M2232.81,-236C2433.69,-235.68 3174.29,-231.12 3785.52,-182.79"/>
<polygon fill="green" stroke="green" points="3786.17,-186.25 3795.86,-181.97 3785.61,-179.28 3786.17,-186.25"/>
</g>
<!-- node16 -->
<g id="node15" class="node">
<title>node16</title>
<polygon fill="orange" stroke="black" points="687.72,-156.54 687.72,-171.46 586.84,-182 444.17,-182 343.3,-171.46 343.3,-156.54 444.17,-146 586.84,-146 687.72,-156.54"/>
<text text-anchor="middle" x="515.51" y="-160.3" font-family="Times,serif" font-size="14.00">#16 GetField : array_field : int[]</text>
</g>
<!-- node5&#45;&gt;node16 -->
<g id="edge25" class="edge">
<title>node5&#45;&gt;node16</title>
<path fill="none" stroke="black" d="M2128.2,-234.99C1938.25,-231.12 1267.1,-215.76 714.51,-182 693.52,-180.72 671.3,-179.09 649.63,-177.35"/>
<polygon fill="black" stroke="black" points="649.62,-173.84 639.37,-176.52 649.06,-180.82 649.62,-173.84"/>
<text text-anchor="middle" x="658.13" y="-165.86" font-family="Times,serif" font-size="14.00">*0</text>
</g>
<!-- node15 -->
<g id="node16" class="node">
<title>node15</title>
<polygon fill="orange" stroke="black" points="1095.86,-156.54 1095.86,-171.46 986.7,-182 832.32,-182 723.16,-171.46 723.16,-156.54 832.32,-146 986.7,-146 1095.86,-156.54"/>
<text text-anchor="middle" x="909.51" y="-160.3" font-family="Times,serif" font-size="14.00">#15 GetField : string_field : String</text>
</g>
<!-- node5&#45;&gt;node15 -->
<g id="edge27" class="edge">
<title>node5&#45;&gt;node15</title>
<path fill="none" stroke="black" d="M2128.19,-233.86C1974.06,-227.45 1508.37,-207.24 1122.51,-182 1100.66,-180.57 1077.57,-178.9 1054.96,-177.17"/>
<polygon fill="black" stroke="black" points="1055.2,-173.68 1044.96,-176.4 1054.66,-180.66 1055.2,-173.68"/>
<text text-anchor="middle" x="1063.69" y="-165.66" font-family="Times,serif" font-size="14.00">*0</text>
</g>
<!-- node14 -->
<g id="node17" class="node">
<title>node14</title>
<polygon fill="orange" stroke="black" points="1515.61,-156.54 1515.61,-171.46 1403.08,-182 1243.93,-182 1131.4,-171.46 1131.4,-156.54 1243.93,-146 1403.08,-146 1515.61,-156.54"/>
<text text-anchor="middle" x="1323.51" y="-160.3" font-family="Times,serif" font-size="14.00">#14 GetField : double_field : double</text>
</g>
<!-- node5&#45;&gt;node14 -->
<g id="edge29" class="edge">
<title>node5&#45;&gt;node14</title>
<path fill="none" stroke="black" d="M2128.19,-231.67C2000.22,-221.06 1667.66,-193.51 1472.45,-177.34"/>
<polygon fill="black" stroke="black" points="1472.65,-173.84 1462.39,-176.51 1472.07,-180.82 1472.65,-173.84"/>
<text text-anchor="middle" x="1481.16" y="-165.88" font-family="Times,serif" font-size="14.00">*0</text>
</g>
<!-- node13 -->
<g id="node18" class="node">
<title>node13</title>
<polygon fill="orange" stroke="black" points="1888.18,-156.54 1888.18,-171.46 1789.37,-182 1649.64,-182 1550.83,-171.46 1550.83,-156.54 1649.64,-146 1789.37,-146 1888.18,-156.54"/>
<text text-anchor="middle" x="1719.51" y="-160.3" font-family="Times,serif" font-size="14.00">#13 GetField : float_field : float</text>
</g>
<!-- node5&#45;&gt;node13 -->
<g id="edge31" class="edge">
<title>node5&#45;&gt;node13</title>
<path fill="none" stroke="black" d="M2131.17,-228.4C2058.15,-217.16 1919.6,-195.82 1823.52,-181.02"/>
<polygon fill="black" stroke="black" points="1823.9,-177.54 1813.48,-179.47 1822.83,-184.46 1823.9,-177.54"/>
<text text-anchor="middle" x="1832.68" y="-170.18" font-family="Times,serif" font-size="14.00">*0</text>
</g>
<!-- node12 -->
<g id="node19" class="node">
<title>node12</title>
<polygon fill="orange" stroke="black" points="2259.78,-156.54 2259.78,-171.46 2161.21,-182 2021.81,-182 1923.24,-171.46 1923.24,-156.54 2021.81,-146 2161.21,-146 2259.78,-156.54"/>
<text text-anchor="middle" x="2091.51" y="-160.3" font-family="Times,serif" font-size="14.00">#12 GetField : long_field : long</text>
</g>
<!-- node5&#45;&gt;node12 -->
<g id="edge33" class="edge">
<title>node5&#45;&gt;node12</title>
<path fill="none" stroke="black" d="M2158.96,-218.81C2147.48,-209.66 2133.2,-198.26 2120.73,-188.32"/>
<polygon fill="black" stroke="black" points="2122.85,-185.53 2112.85,-182.03 2118.49,-191 2122.85,-185.53"/>
<text text-anchor="middle" x="2132.29" y="-183.03" font-family="Times,serif" font-size="14.00">*0</text>
</g>
<!-- node11&#45;&gt;node12 -->
<g id="edge34" class="edge">
<title>node11&#45;&gt;node12</title>
<path fill="none" stroke="green" d="M2295.34,-164C2286.82,-164 2278.3,-164 2269.78,-164"/>
<polygon fill="green" stroke="green" points="2269.77,-160.5 2259.77,-164 2269.77,-167.5 2269.77,-160.5"/>
</g>
<!-- node20 -->
<g id="node20" class="node">
<title>node20</title>
<polygon fill="lightgrey" stroke="black" points="2611.01,-109 1762.01,-109 1762.01,-73 2611.01,-73 2611.01,-109"/>
<text text-anchor="middle" x="2186.51" y="-87.3" font-family="Times,serif" font-size="14.00">#20 Invoke static simple_method_return_boolean : (byte,boolean,short,char,int,long,float,double,String,int[])boolean</text>
</g>
<!-- node11&#45;&gt;node20 -->
<g id="edge40" class="edge">
<title>node11&#45;&gt;node20</title>
<path fill="none" stroke="black" d="M2384.99,-145.99C2347.18,-135.71 2298.79,-122.55 2259.26,-111.79"/>
<polygon fill="black" stroke="black" points="2259.99,-108.36 2249.42,-109.11 2258.15,-115.12 2259.99,-108.36"/>
<text text-anchor="middle" x="2269.13" y="-102.02" font-family="Times,serif" font-size="14.00">*5</text>
</g>
<!-- node10&#45;&gt;node11 -->
<g id="edge9" class="edge">
<title>node10&#45;&gt;node11</title>
<path fill="none" stroke="green" d="M2634.51,-164C2626.2,-164 2617.88,-164 2609.57,-164"/>
<polygon fill="green" stroke="green" points="2609.43,-160.5 2599.43,-164 2609.43,-167.5 2609.43,-160.5"/>
</g>
<!-- node10&#45;&gt;node20 -->
<g id="edge39" class="edge">
<title>node10&#45;&gt;node20</title>
<path fill="none" stroke="black" d="M2700.83,-149.47C2671.06,-145.64 2638.5,-141.56 2608.51,-138 2526.65,-128.29 2435.76,-118.29 2359.36,-110.1"/>
<polygon fill="black" stroke="black" points="2359.47,-106.59 2349.16,-109 2358.73,-113.55 2359.47,-106.59"/>
<text text-anchor="middle" x="2368.08" y="-98.83" font-family="Times,serif" font-size="14.00">*4</text>
</g>
<!-- node9&#45;&gt;node10 -->
<g id="edge11" class="edge">
<title>node9&#45;&gt;node10</title>
<path fill="none" stroke="green" d="M3007.36,-164C2999.06,-164 2990.76,-164 2982.46,-164"/>
<polygon fill="green" stroke="green" points="2982.33,-160.5 2972.33,-164 2982.33,-167.5 2982.33,-160.5"/>
</g>
<!-- node9&#45;&gt;node20 -->
<g id="edge38" class="edge">
<title>node9&#45;&gt;node20</title>
<path fill="none" stroke="black" d="M3078.94,-149.02C3047.79,-145.01 3013.26,-140.93 2981.51,-138 2851.91,-126.04 2710.12,-116.66 2582.64,-109.57"/>
<polygon fill="black" stroke="black" points="2582.49,-106.06 2572.31,-109 2582.1,-113.05 2582.49,-106.06"/>
<text text-anchor="middle" x="2590.88" y="-97.86" font-family="Times,serif" font-size="14.00">*3</text>
</g>
<!-- node8&#45;&gt;node9 -->
<g id="edge13" class="edge">
<title>node8&#45;&gt;node9</title>
<path fill="none" stroke="green" d="M3385.02,-164C3376.65,-164 3368.28,-164 3359.91,-164"/>
<polygon fill="green" stroke="green" points="3359.7,-160.5 3349.7,-164 3359.7,-167.5 3359.7,-160.5"/>
</g>
<!-- node8&#45;&gt;node20 -->
<g id="edge37" class="edge">
<title>node8&#45;&gt;node20</title>
<path fill="none" stroke="black" d="M3469.35,-148.82C3433.94,-144.78 3394.63,-140.73 3358.51,-138 3114.91,-119.59 2842.24,-108.33 2621.24,-101.57"/>
<polygon fill="black" stroke="black" points="2621.19,-98.06 2611.09,-101.26 2620.98,-105.06 2621.19,-98.06"/>
<text text-anchor="middle" x="2629.47" y="-89.66" font-family="Times,serif" font-size="14.00">*2</text>
</g>
<!-- node7&#45;&gt;node8 -->
<g id="edge15" class="edge">
<title>node7&#45;&gt;node8</title>
<path fill="none" stroke="green" d="M233.36,-181.69C266.57,-189.1 306.82,-196.84 343.51,-200.5 509.68,-217.09 3183.01,-213.52 3349.51,-200.5 3393.44,-197.06 3441.64,-190.02 3482.66,-183.03"/>
<polygon fill="green" stroke="green" points="3483.4,-186.46 3492.65,-181.31 3482.2,-179.56 3483.4,-186.46"/>
</g>
<!-- node7&#45;&gt;node20 -->
<g id="edge36" class="edge">
<title>node7&#45;&gt;node20</title>
<path fill="none" stroke="black" d="M250.22,-148.19C277.18,-144.19 307,-140.33 334.51,-138 599.05,-115.57 1292.63,-102.94 1751.84,-96.8"/>
<polygon fill="black" stroke="black" points="1752.02,-100.29 1761.97,-96.66 1751.92,-93.3 1752.02,-100.29"/>
<text text-anchor="middle" x="1743.96" y="-101.65" font-family="Times,serif" font-size="14.00">*1</text>
</g>
<!-- node6&#45;&gt;node7 -->
<g id="edge17" class="edge">
<title>node6&#45;&gt;node7</title>
<path fill="none" stroke="green" d="M3863.39,-182.07C3837.46,-189.36 3806.23,-196.89 3777.51,-200.5 3588.22,-224.28 533.34,-219.45 343.51,-200.5 310.41,-197.2 274.4,-190.57 243.28,-183.87"/>
<polygon fill="green" stroke="green" points="243.88,-180.41 233.36,-181.69 242.38,-187.25 243.88,-180.41"/>
</g>
<!-- node17 -->
<g id="node12" class="node">
<title>node17</title>
<polygon fill="lightgrey" stroke="black" points="4286.51,-255 4158.51,-255 4158.51,-219 4286.51,-219 4286.51,-255"/>
<text text-anchor="middle" x="4222.51" y="-233.3" font-family="Times,serif" font-size="14.00">#17 LabelNode</text>
</g>
<!-- node6&#45;&gt;node17 -->
<g id="edge21" class="edge">
<title>node6&#45;&gt;node17</title>
<path fill="none" stroke="red" d="M3992.94,-182.03C4040.01,-193.1 4101.2,-207.48 4148.57,-218.62"/>
<polygon fill="red" stroke="red" points="4147.92,-222.06 4158.46,-220.94 4149.53,-215.25 4147.92,-222.06"/>
</g>
<!-- node19 -->
<g id="node13" class="node">
<title>node19</title>
<polygon fill="lightgrey" stroke="black" points="4530.51,-182 4416.51,-182 4416.51,-146 4530.51,-146 4530.51,-182"/>
<text text-anchor="middle" x="4473.51" y="-160.3" font-family="Times,serif" font-size="14.00">#19 ClassInit</text>
</g>
<!-- node17&#45;&gt;node19 -->
<g id="edge24" class="edge">
<title>node17&#45;&gt;node19</title>
<path fill="none" stroke="red" d="M4282.63,-218.99C4319.91,-208.45 4367.86,-194.88 4406.38,-183.99"/>
<polygon fill="red" stroke="red" points="4407.79,-187.23 4416.46,-181.14 4405.89,-180.49 4407.79,-187.23"/>
</g>
<!-- node18 -->
<g id="node14" class="node">
<title>node18</title>
<polygon fill="lightgreen" stroke="black" points="4381.49,-156.54 4381.49,-171.46 4288.36,-182 4156.66,-182 4063.53,-171.46 4063.53,-156.54 4156.66,-146 4288.36,-146 4381.49,-156.54"/>
<text text-anchor="middle" x="4222.51" y="-160.3" font-family="Times,serif" font-size="14.00">#18 Class MethodInvokeTest</text>
</g>
<!-- node17&#45;&gt;node18 -->
<g id="edge51" class="edge">
<title>node17&#45;&gt;node18</title>
<path fill="none" stroke="black" stroke-dasharray="1,5" d="M4222.51,-218.81C4222.51,-210.79 4222.51,-201.05 4222.51,-192.07"/>
<polygon fill="black" stroke="black" points="4226.01,-192.03 4222.51,-182.03 4219.01,-192.03 4226.01,-192.03"/>
</g>
<!-- node19&#45;&gt;node20 -->
<g id="edge35" class="edge">
<title>node19&#45;&gt;node20</title>
<path fill="none" stroke="black" d="M4416.18,-148.02C4402.77,-143.99 4388.72,-140.16 4375.51,-138 4207.59,-110.58 3210.68,-99.07 2621.68,-94.59"/>
<polygon fill="black" stroke="black" points="2621.33,-91.08 2611.3,-94.51 2621.28,-98.08 2621.33,-91.08"/>
<text text-anchor="middle" x="2629.49" y="-82.49" font-family="Times,serif" font-size="14.00">*0</text>
</g>
<!-- node19&#45;&gt;node20 -->
<g id="edge46" class="edge">
<title>node19&#45;&gt;node20</title>
<path fill="none" stroke="green" d="M4426.66,-145.95C4415.91,-142.71 4404.42,-139.78 4393.51,-138 4224.4,-110.39 3214.55,-98.91 2621.11,-94.49"/>
<polygon fill="green" stroke="green" points="2621.12,-90.99 2611.09,-94.42 2621.07,-97.99 2621.12,-90.99"/>
</g>
<!-- node19&#45;&gt;node20 -->
<g id="edge47" class="edge">
<title>node19&#45;&gt;node20</title>
<path fill="none" stroke="red" d="M4444.19,-145.95C4433.91,-142.71 4422.42,-139.78 4411.51,-138 4241.29,-110.2 3219.17,-98.75 2621.15,-94.41"/>
<polygon fill="red" stroke="red" points="2621.08,-90.91 2611.06,-94.33 2621.03,-97.91 2621.08,-90.91"/>
</g>
<!-- node18&#45;&gt;node19 -->
<g id="edge22" class="edge">
<title>node18&#45;&gt;node19</title>
<path fill="none" stroke="black" d="M4381.83,-164C4389.89,-164 4397.95,-164 4406,-164"/>
<polygon fill="black" stroke="black" points="4406.21,-167.5 4416.21,-164 4406.21,-160.5 4406.21,-167.5"/>
<text text-anchor="middle" x="4398.08" y="-168.75" font-family="Times,serif" font-size="14.00">*0</text>
</g>
<!-- node16&#45;&gt;node19 -->
<g id="edge23" class="edge">
<title>node16&#45;&gt;node19</title>
<path fill="none" stroke="green" d="M594.59,-181.21C633.25,-188.77 680.59,-196.76 723.51,-200.5 824.82,-209.32 4284.73,-220.16 4384.51,-200.5 4399.55,-197.54 4415.25,-192 4429.2,-186.12"/>
<polygon fill="green" stroke="green" points="4430.8,-189.25 4438.55,-182.03 4427.99,-182.84 4430.8,-189.25"/>
</g>
<!-- node16&#45;&gt;node20 -->
<g id="edge45" class="edge">
<title>node16&#45;&gt;node20</title>
<path fill="none" stroke="black" d="M613.76,-148.8C645.81,-144.67 681.62,-140.57 714.51,-138 1062.62,-110.75 1458.23,-99.49 1751.6,-94.9"/>
<polygon fill="black" stroke="black" points="1752.05,-98.4 1761.99,-94.74 1751.94,-91.4 1752.05,-98.4"/>
<text text-anchor="middle" x="1744" y="-99.77" font-family="Times,serif" font-size="14.00">*10</text>
</g>
<!-- node15&#45;&gt;node16 -->
<g id="edge26" class="edge">
<title>node15&#45;&gt;node16</title>
<path fill="none" stroke="green" d="M722.94,-164C714.63,-164 706.33,-164 698.02,-164"/>
<polygon fill="green" stroke="green" points="697.88,-160.5 687.88,-164 697.88,-167.5 697.88,-160.5"/>
</g>
<!-- node15&#45;&gt;node20 -->
<g id="edge44" class="edge">
<title>node15&#45;&gt;node20</title>
<path fill="none" stroke="black" d="M1016.62,-148.87C1050.44,-144.82 1087.99,-140.77 1122.51,-138 1329.13,-121.43 1558.85,-110.55 1751.8,-103.56"/>
<polygon fill="black" stroke="black" points="1751.96,-107.05 1761.83,-103.19 1751.71,-100.06 1751.96,-107.05"/>
<text text-anchor="middle" x="1744.02" y="-108.59" font-family="Times,serif" font-size="14.00">*9</text>
</g>
<!-- node14&#45;&gt;node15 -->
<g id="edge28" class="edge">
<title>node14&#45;&gt;node15</title>
<path fill="none" stroke="green" d="M1131.45,-164C1122.93,-164 1114.41,-164 1105.89,-164"/>
<polygon fill="green" stroke="green" points="1105.89,-160.5 1095.89,-164 1105.89,-167.5 1105.89,-160.5"/>
</g>
<!-- node14&#45;&gt;node20 -->
<g id="edge43" class="edge">
<title>node14&#45;&gt;node20</title>
<path fill="none" stroke="black" d="M1436.56,-149.1C1470.29,-145.21 1507.37,-141.17 1541.51,-138 1659.1,-127.07 1788.97,-117.35 1901.16,-109.7"/>
<polygon fill="black" stroke="black" points="1901.53,-113.18 1911.27,-109.01 1901.06,-106.2 1901.53,-113.18"/>
<text text-anchor="middle" x="1893.76" y="-114.98" font-family="Times,serif" font-size="14.00">*8</text>
</g>
<!-- node13&#45;&gt;node14 -->
<g id="edge30" class="edge">
<title>node13&#45;&gt;node14</title>
<path fill="none" stroke="green" d="M1550.73,-164C1542.43,-164 1534.13,-164 1525.83,-164"/>
<polygon fill="green" stroke="green" points="1525.71,-160.5 1515.71,-164 1525.71,-167.5 1525.71,-160.5"/>
</g>
<!-- node13&#45;&gt;node20 -->
<g id="edge42" class="edge">
<title>node13&#45;&gt;node20</title>
<path fill="none" stroke="black" d="M1814.29,-148.59C1886.52,-137.61 1986.52,-122.4 2064.69,-110.52"/>
<polygon fill="black" stroke="black" points="2065.23,-113.98 2074.59,-109.01 2064.18,-107.06 2065.23,-113.98"/>
<text text-anchor="middle" x="2057.94" y="-116.4" font-family="Times,serif" font-size="14.00">*7</text>
</g>
<!-- node12&#45;&gt;node13 -->
<g id="edge32" class="edge">
<title>node12&#45;&gt;node13</title>
<path fill="none" stroke="green" d="M1923.34,-164C1915.06,-164 1906.79,-164 1898.52,-164"/>
<polygon fill="green" stroke="green" points="1898.43,-160.5 1888.43,-164 1898.43,-167.5 1898.43,-160.5"/>
</g>
<!-- node12&#45;&gt;node20 -->
<g id="edge41" class="edge">
<title>node12&#45;&gt;node20</title>
<path fill="none" stroke="black" d="M2114.5,-145.81C2126.87,-136.57 2142.29,-125.04 2155.69,-115.03"/>
<polygon fill="black" stroke="black" points="2157.81,-117.82 2163.72,-109.03 2153.62,-112.21 2157.81,-117.82"/>
<text text-anchor="middle" x="2154.26" y="-122.95" font-family="Times,serif" font-size="14.00">*6</text>
</g>
<!-- node21 -->
<g id="node21" class="node">
<title>node21</title>
<polygon fill="lightgrey" stroke="black" points="2273.01,-36 2100.01,-36 2100.01,0 2273.01,0 2273.01,-36"/>
<text text-anchor="middle" x="2186.51" y="-14.3" font-family="Times,serif" font-size="14.00">#21 ReturnValue : int</text>
</g>
<!-- node20&#45;&gt;node21 -->
<g id="edge48" class="edge">
<title>node20&#45;&gt;node21</title>
<path fill="none" stroke="black" d="M2174.75,-72.81C2173.07,-64.79 2172.61,-55.05 2173.35,-46.07"/>
<polygon fill="black" stroke="black" points="2176.84,-46.42 2174.78,-36.03 2169.91,-45.43 2176.84,-46.42"/>
<text text-anchor="middle" x="2180.59" y="-51.47" font-family="Times,serif" font-size="14.00">*0</text>
</g>
<!-- node20&#45;&gt;node21 -->
<g id="edge49" class="edge">
<title>node20&#45;&gt;node21</title>
<path fill="none" stroke="red" d="M2186.51,-72.81C2186.51,-64.79 2186.51,-55.05 2186.51,-46.07"/>
<polygon fill="red" stroke="red" points="2190.01,-46.03 2186.51,-36.03 2183.01,-46.03 2190.01,-46.03"/>
</g>
<!-- node20&#45;&gt;node21 -->
<g id="edge50" class="edge">
<title>node20&#45;&gt;node21</title>
<path fill="none" stroke="green" d="M2198.26,-72.81C2199.94,-64.79 2200.41,-55.05 2199.66,-46.07"/>
<polygon fill="green" stroke="green" points="2203.11,-45.43 2198.23,-36.03 2196.18,-46.42 2203.11,-45.43"/>
</g>
<!-- c0 -->
<!-- c1 -->
<!-- c0&#45;&gt;c1 -->
<g id="edge52" class="edge">
<title>c0&#45;&gt;c1</title>
<path fill="none" stroke="red" d="M4523.4,-538C4534.61,-538 4592.75,-538 4618.36,-538"/>
<polygon fill="red" stroke="red" points="4618.56,-541.5 4628.56,-538 4618.56,-534.5 4618.56,-541.5"/>
<text text-anchor="middle" x="4576.01" y="-544.8" font-family="Times,serif" font-size="14.00">Control flow</text>
</g>
<!-- c2 -->
<!-- c3 -->
<!-- c2&#45;&gt;c3 -->
<g id="edge53" class="edge">
<title>c2&#45;&gt;c3</title>
<path fill="none" stroke="red" stroke-dasharray="5,2" d="M4316.58,-538C4333.55,-538 4449.71,-538 4487.59,-538"/>
<polygon fill="red" stroke="red" points="4487.68,-541.5 4497.68,-538 4487.68,-534.5 4487.68,-541.5"/>
<text text-anchor="middle" x="4407.01" y="-544.8" font-family="Times,serif" font-size="14.00">Control flow back edge</text>
</g>
<!-- d0 -->
<!-- d1 -->
<!-- d0&#45;&gt;d1 -->
<g id="edge54" class="edge">
<title>d0&#45;&gt;d1</title>
<path fill="none" stroke="black" d="M4205.37,-538C4214.91,-538 4258.82,-538 4280.42,-538"/>
<polygon fill="black" stroke="black" points="4280.66,-541.5 4290.66,-538 4280.66,-534.5 4280.66,-541.5"/>
<text text-anchor="middle" x="4248.01" y="-544.8" font-family="Times,serif" font-size="14.00">Data flow</text>
</g>
<!-- d2 -->
<!-- d3 -->
<!-- d2&#45;&gt;d3 -->
<g id="edge55" class="edge">
<title>d2&#45;&gt;d3</title>
<path fill="none" stroke="black" stroke-dasharray="1,5" d="M4079.31,-538C4089.96,-538 4144.97,-538 4169.58,-538"/>
<polygon fill="black" stroke="black" points="4169.65,-541.5 4179.65,-538 4169.65,-534.5 4169.65,-541.5"/>
<text text-anchor="middle" x="4129.51" y="-544.8" font-family="Times,serif" font-size="14.00">Declaration</text>
</g>
<!-- d4 -->
<!-- d5 -->
<!-- d4&#45;&gt;d5 -->
<g id="edge56" class="edge">
<title>d4&#45;&gt;d5</title>
<path fill="none" stroke="blue" d="M3936.61,-538C3949.23,-538 4015.39,-538 4043.19,-538"/>
<polygon fill="blue" stroke="blue" points="4043.35,-541.5 4053.35,-538 4043.35,-534.5 4043.35,-541.5"/>
<text text-anchor="middle" x="3995.01" y="-544.8" font-family="Times,serif" font-size="14.00">PHI Data flow</text>
</g>
<!-- d6 -->
<!-- d7 -->
<!-- d6&#45;&gt;d7 -->
<g id="edge57" class="edge">
<title>d6&#45;&gt;d7</title>
<path fill="none" stroke="green" d="M3799.5,-538C3811.44,-538 3873.81,-538 3900.43,-538"/>
<polygon fill="green" stroke="green" points="3900.46,-541.5 3910.46,-538 3900.46,-534.5 3900.46,-541.5"/>
<text text-anchor="middle" x="3855.01" y="-544.8" font-family="Times,serif" font-size="14.00">Memory flow</text>
</g>
</g>
</svg>
