<?xml version="1.0" encoding="UTF-8" standalone="no"?>
<!DOCTYPE svg PUBLIC "-//W3C//DTD SVG 1.1//EN"
 "http://www.w3.org/Graphics/SVG/1.1/DTD/svg11.dtd">
<!-- Generated by graphviz version 2.43.0 (0)
 -->
<!-- Title: %3 Pages: 1 -->
<svg width="4249pt" height="662pt"
 viewBox="0.00 0.00 4249.35 662.00" xmlns="http://www.w3.org/2000/svg" xmlns:xlink="http://www.w3.org/1999/xlink">
<g id="graph0" class="graph" transform="scale(1 1) rotate(0) translate(4 658)">
<title>%3</title>
<polygon fill="white" stroke="transparent" points="-4,4 -4,-658 4245.35,-658 4245.35,4 -4,4"/>
<g id="clust1" class="cluster">
<title>cluster_0</title>
<polygon fill="none" stroke="lightgray" points="10.92,-503 10.92,-646 736.92,-646 736.92,-503 10.92,-503"/>
</g>
<g id="clust2" class="cluster">
<title>cluster_000</title>
<polygon fill="none" stroke="black" points="744.92,-601.2 744.92,-643.8 1597.92,-643.8 1597.92,-601.2 744.92,-601.2"/>
<text text-anchor="middle" x="1171.42" y="-628.6" font-family="Times,serif" font-size="14.00">Legend</text>
</g>
<!-- node0 -->
<g id="node1" class="node">
<title>node0</title>
<polygon fill="lightgrey" stroke="transparent" points="628.42,-638 443.42,-638 443.42,-584 628.42,-584 628.42,-638"/>
<polygon fill="none" stroke="black" points="443.92,-611 443.92,-638 628.92,-638 628.92,-611 443.92,-611"/>
<text text-anchor="start" x="495.92" y="-620.8" font-family="Times,serif" font-size="14.00">#0 Method</text>
<polygon fill="yellow" stroke="transparent" points="443.92,-584 443.92,-611 628.92,-611 628.92,-584 443.92,-584"/>
<polygon fill="none" stroke="black" points="443.92,-584 443.92,-611 628.92,-611 628.92,-584 443.92,-584"/>
<text text-anchor="start" x="449.92" y="-593.8" font-family="Times,serif" font-size="14.00">this : MethodInvokeTest</text>
</g>
<!-- node2 -->
<g id="node2" class="node">
<title>node2</title>
<polygon fill="lightgrey" stroke="black" points="866.42,-547 747.42,-547 747.42,-511 866.42,-511 866.42,-547"/>
<text text-anchor="middle" x="806.92" y="-525.3" font-family="Times,serif" font-size="14.00">#2 LabelNode</text>
</g>
<!-- node0&#45;&gt;node2 -->
<g id="edge1" class="edge">
<title>node0&#45;&gt;node2</title>
<path fill="none" stroke="red" d="M624.28,-583.92C661.7,-572.87 704.59,-560.21 739.4,-549.93"/>
<polygon fill="red" stroke="red" points="740.4,-553.29 749,-547.1 738.41,-546.57 740.4,-553.29"/>
</g>
<!-- node5 -->
<g id="node3" class="node">
<title>node5</title>
<polygon fill="lightgrey" stroke="black" points="839.42,-474 734.42,-474 734.42,-438 839.42,-438 839.42,-474"/>
<text text-anchor="middle" x="786.92" y="-452.3" font-family="Times,serif" font-size="14.00">#5 ClassInit</text>
</g>
<!-- node0&#45;&gt;node5 -->
<g id="edge4" class="edge">
<title>node0&#45;&gt;node5</title>
<path fill="none" stroke="green" d="M443.21,-605.48C299.92,-597.52 38.14,-578.8 9.92,-547 -3.06,-532.37 -3.49,-517.23 9.92,-503 34.3,-477.14 543.53,-462.71 724.11,-458.4"/>
<polygon fill="green" stroke="green" points="724.33,-461.89 734.25,-458.16 724.17,-454.89 724.33,-461.89"/>
</g>
<!-- node4 -->
<g id="node4" class="node">
<title>node4</title>
<polygon fill="lightgreen" stroke="black" points="729.35,-521.54 729.35,-536.46 616.04,-547 455.81,-547 342.5,-536.46 342.5,-521.54 455.81,-511 616.04,-511 729.35,-521.54"/>
<text text-anchor="middle" x="535.92" y="-525.3" font-family="Times,serif" font-size="14.00">#4 Class MethodInvokeTest$Source</text>
</g>
<!-- node0&#45;&gt;node4 -->
<g id="edge5" class="edge">
<title>node0&#45;&gt;node4</title>
<path fill="none" stroke="black" stroke-dasharray="1,5" d="M535.92,-583.81C535.92,-575.35 535.92,-565.95 535.92,-557.4"/>
<polygon fill="black" stroke="black" points="539.42,-557.17 535.92,-547.17 532.42,-557.17 539.42,-557.17"/>
</g>
<!-- node3 -->
<g id="node10" class="node">
<title>node3</title>
<polygon fill="lightgreen" stroke="black" points="324.74,-521.54 324.74,-536.46 235.22,-547 108.63,-547 19.11,-536.46 19.11,-521.54 108.63,-511 235.22,-511 324.74,-521.54"/>
<text text-anchor="middle" x="171.92" y="-525.3" font-family="Times,serif" font-size="14.00">#3 Class MethodInvokeTest</text>
</g>
<!-- node0&#45;&gt;node3 -->
<g id="edge51" class="edge">
<title>node0&#45;&gt;node3</title>
<path fill="none" stroke="black" stroke-dasharray="1,5" d="M443.13,-589.61C384.91,-576.81 310.51,-560.46 254.37,-548.12"/>
<polygon fill="black" stroke="black" points="254.98,-544.67 244.46,-545.94 253.48,-551.51 254.98,-544.67"/>
</g>
<!-- node2&#45;&gt;node5 -->
<g id="edge3" class="edge">
<title>node2&#45;&gt;node5</title>
<path fill="none" stroke="red" d="M802.08,-510.81C799.8,-502.7 797.02,-492.84 794.47,-483.78"/>
<polygon fill="red" stroke="red" points="797.8,-482.71 791.72,-474.03 791.06,-484.6 797.8,-482.71"/>
</g>
<!-- node6 -->
<g id="node5" class="node">
<title>node6</title>
<polygon fill="orange" stroke="black" points="1997.04,-375.54 1997.04,-390.46 1966.51,-401 1923.34,-401 1892.81,-390.46 1892.81,-375.54 1923.34,-365 1966.51,-365 1997.04,-375.54"/>
<text text-anchor="middle" x="1944.92" y="-379.3" font-family="Times,serif" font-size="14.00">#6 New</text>
</g>
<!-- node5&#45;&gt;node6 -->
<g id="edge6" class="edge">
<title>node5&#45;&gt;node6</title>
<path fill="none" stroke="black" d="M839.67,-451.58C1029.57,-439.64 1677.45,-399.91 1882.33,-387.64"/>
<polygon fill="black" stroke="black" points="1882.84,-391.12 1892.61,-387.03 1882.42,-384.13 1882.84,-391.12"/>
<text text-anchor="middle" x="1875.02" y="-392.85" font-family="Times,serif" font-size="14.00">*0</text>
</g>
<!-- node5&#45;&gt;node6 -->
<g id="edge7" class="edge">
<title>node5&#45;&gt;node6</title>
<path fill="none" stroke="green" d="M839.64,-451.95C1029.55,-440.61 1677.86,-400.87 1882.53,-388.03"/>
<polygon fill="green" stroke="green" points="1883.04,-391.51 1892.8,-387.39 1882.6,-384.52 1883.04,-391.51"/>
</g>
<!-- node7 -->
<g id="node7" class="node">
<title>node7</title>
<polygon fill="lightgrey" stroke="black" points="851.92,-328 601.92,-328 601.92,-292 851.92,-292 851.92,-328"/>
<text text-anchor="middle" x="726.92" y="-306.3" font-family="Times,serif" font-size="14.00">#7 Invoke special &lt;init&gt; : ()void</text>
</g>
<!-- node5&#45;&gt;node7 -->
<g id="edge11" class="edge">
<title>node5&#45;&gt;node7</title>
<path fill="none" stroke="red" d="M779.81,-437.92C769.48,-413.12 750.24,-366.95 738.03,-337.66"/>
<polygon fill="red" stroke="red" points="741.11,-335.95 734.03,-328.06 734.65,-338.64 741.11,-335.95"/>
</g>
<!-- node4&#45;&gt;node5 -->
<g id="edge2" class="edge">
<title>node4&#45;&gt;node5</title>
<path fill="none" stroke="black" d="M596.05,-510.99C634.82,-500.03 685.14,-485.79 724.38,-474.69"/>
<polygon fill="black" stroke="black" points="725.44,-478.03 734.11,-471.94 723.53,-471.29 725.44,-478.03"/>
<text text-anchor="middle" x="718.97" y="-481.31" font-family="Times,serif" font-size="14.00">*0</text>
</g>
<!-- node8 -->
<g id="node6" class="node">
<title>node8</title>
<polygon fill="orange" stroke="black" points="3470.44,-302.54 3470.44,-317.46 3375.24,-328 3240.61,-328 3145.41,-317.46 3145.41,-302.54 3240.61,-292 3375.24,-292 3470.44,-302.54"/>
<text text-anchor="middle" x="3307.92" y="-306.3" font-family="Times,serif" font-size="14.00">#8 GetField : byte_field : byte</text>
</g>
<!-- node6&#45;&gt;node8 -->
<g id="edge8" class="edge">
<title>node6&#45;&gt;node8</title>
<path fill="none" stroke="black" d="M1997.04,-380.42C2161.76,-375.24 2685.84,-357.42 3118.92,-328 3138.7,-326.66 3159.61,-325.01 3180.04,-323.27"/>
<polygon fill="black" stroke="black" points="3180.37,-326.75 3190.03,-322.41 3179.76,-319.78 3180.37,-326.75"/>
<text text-anchor="middle" x="3172.69" y="-328.68" font-family="Times,serif" font-size="14.00">*0</text>
</g>
<!-- node6&#45;&gt;node7 -->
<g id="edge10" class="edge">
<title>node6&#45;&gt;node7</title>
<path fill="none" stroke="black" d="M1892.64,-380.91C1736.26,-377.21 1259.03,-363.44 861.54,-328.84"/>
<polygon fill="black" stroke="black" points="861.84,-325.36 851.57,-327.97 861.23,-332.33 861.84,-325.36"/>
<text text-anchor="middle" x="870.37" y="-317.43" font-family="Times,serif" font-size="14.00">*0</text>
</g>
<!-- node6&#45;&gt;node7 -->
<g id="edge12" class="edge">
<title>node6&#45;&gt;node7</title>
<path fill="none" stroke="green" d="M1892.78,-380.71C1737.04,-376.72 1262.45,-362.62 869.92,-328 867.37,-327.77 864.79,-327.54 862.19,-327.29"/>
<polygon fill="green" stroke="green" points="862.36,-323.79 852.07,-326.29 861.67,-330.76 862.36,-323.79"/>
</g>
<!-- node17 -->
<g id="node11" class="node">
<title>node17</title>
<polygon fill="orange" stroke="black" points="3833.14,-302.54 3833.14,-317.46 3732.26,-328 3589.59,-328 3488.71,-317.46 3488.71,-302.54 3589.59,-292 3732.26,-292 3833.14,-302.54"/>
<text text-anchor="middle" x="3660.92" y="-306.3" font-family="Times,serif" font-size="14.00">#17 GetField : array_field : int[]</text>
</g>
<!-- node6&#45;&gt;node17 -->
<g id="edge17" class="edge">
<title>node6&#45;&gt;node17</title>
<path fill="none" stroke="black" d="M1996.99,-381.27C2192.16,-378.31 2898.82,-365.48 3479.92,-328 3496.91,-326.9 3514.76,-325.52 3532.38,-324.01"/>
<polygon fill="black" stroke="black" points="3533.05,-327.46 3542.71,-323.11 3532.44,-320.49 3533.05,-327.46"/>
<text text-anchor="middle" x="3525.38" y="-329.4" font-family="Times,serif" font-size="14.00">*0</text>
</g>
<!-- node16 -->
<g id="node12" class="node">
<title>node16</title>
<polygon fill="orange" stroke="black" points="4241.28,-302.54 4241.28,-317.46 4132.11,-328 3977.74,-328 3868.57,-317.46 3868.57,-302.54 3977.74,-292 4132.11,-292 4241.28,-302.54"/>
<text text-anchor="middle" x="4054.92" y="-306.3" font-family="Times,serif" font-size="14.00">#16 GetField : string_field : String</text>
</g>
<!-- node6&#45;&gt;node16 -->
<g id="edge19" class="edge">
<title>node6&#45;&gt;node16</title>
<path fill="none" stroke="black" d="M1997.02,-381.49C2219.35,-379.13 3110.74,-367.56 3841.92,-328 3864.61,-326.77 3888.64,-325.16 3912.06,-323.41"/>
<polygon fill="black" stroke="black" points="3912.35,-326.9 3922.06,-322.66 3911.82,-319.92 3912.35,-326.9"/>
<text text-anchor="middle" x="3904.62" y="-328.75" font-family="Times,serif" font-size="14.00">*0</text>
</g>
<!-- node15 -->
<g id="node13" class="node">
<title>node15</title>
<polygon fill="orange" stroke="black" points="584.03,-302.54 584.03,-317.46 471.5,-328 312.35,-328 199.82,-317.46 199.82,-302.54 312.35,-292 471.5,-292 584.03,-302.54"/>
<text text-anchor="middle" x="391.92" y="-306.3" font-family="Times,serif" font-size="14.00">#15 GetField : double_field : double</text>
</g>
<!-- node6&#45;&gt;node15 -->
<g id="edge21" class="edge">
<title>node6&#45;&gt;node15</title>
<path fill="none" stroke="black" d="M1892.68,-380.75C1712.27,-376.25 1098.76,-359.48 592.92,-328 574.1,-326.83 554.3,-325.4 534.76,-323.87"/>
<polygon fill="black" stroke="black" points="534.82,-320.36 524.58,-323.06 534.27,-327.34 534.82,-320.36"/>
<text text-anchor="middle" x="543.32" y="-312.37" font-family="Times,serif" font-size="14.00">*0</text>
</g>
<!-- node14 -->
<g id="node14" class="node">
<title>node14</title>
<polygon fill="orange" stroke="black" points="1207.6,-302.54 1207.6,-317.46 1108.79,-328 969.06,-328 870.25,-317.46 870.25,-302.54 969.06,-292 1108.79,-292 1207.6,-302.54"/>
<text text-anchor="middle" x="1038.92" y="-306.3" font-family="Times,serif" font-size="14.00">#14 GetField : float_field : float</text>
</g>
<!-- node6&#45;&gt;node14 -->
<g id="edge23" class="edge">
<title>node6&#45;&gt;node14</title>
<path fill="none" stroke="black" d="M1892.73,-378.24C1775.11,-369.71 1480.38,-348.1 1233.92,-328 1214.58,-326.42 1194.17,-324.7 1174.12,-322.98"/>
<polygon fill="black" stroke="black" points="1174.26,-319.48 1164,-322.11 1173.66,-326.46 1174.26,-319.48"/>
<text text-anchor="middle" x="1182.78" y="-311.54" font-family="Times,serif" font-size="14.00">*0</text>
</g>
<!-- node13 -->
<g id="node15" class="node">
<title>node13</title>
<polygon fill="orange" stroke="black" points="1579.19,-302.54 1579.19,-317.46 1480.62,-328 1341.22,-328 1242.65,-317.46 1242.65,-302.54 1341.22,-292 1480.62,-292 1579.19,-302.54"/>
<text text-anchor="middle" x="1410.92" y="-306.3" font-family="Times,serif" font-size="14.00">#13 GetField : long_field : long</text>
</g>
<!-- node6&#45;&gt;node13 -->
<g id="edge25" class="edge">
<title>node6&#45;&gt;node13</title>
<path fill="none" stroke="black" d="M1893.72,-375.19C1808.9,-363.91 1637.28,-341.1 1523.2,-325.93"/>
<polygon fill="black" stroke="black" points="1523.4,-322.42 1513.03,-324.58 1522.48,-329.36 1523.4,-322.42"/>
<text text-anchor="middle" x="1532.11" y="-314.89" font-family="Times,serif" font-size="14.00">*0</text>
</g>
<!-- node12 -->
<g id="node16" class="node">
<title>node12</title>
<polygon fill="orange" stroke="black" points="1918.83,-302.54 1918.83,-317.46 1829.85,-328 1704,-328 1615.02,-317.46 1615.02,-302.54 1704,-292 1829.85,-292 1918.83,-302.54"/>
<text text-anchor="middle" x="1766.92" y="-306.3" font-family="Times,serif" font-size="14.00">#12 GetField : int_field : int</text>
</g>
<!-- node6&#45;&gt;node12 -->
<g id="edge27" class="edge">
<title>node6&#45;&gt;node12</title>
<path fill="none" stroke="black" d="M1911.86,-368.81C1885.82,-358.43 1849.05,-343.76 1819.05,-331.79"/>
<polygon fill="black" stroke="black" points="1820.16,-328.47 1809.58,-328.01 1817.57,-334.97 1820.16,-328.47"/>
<text text-anchor="middle" x="1829.54" y="-323.18" font-family="Times,serif" font-size="14.00">*0</text>
</g>
<!-- node11 -->
<g id="node17" class="node">
<title>node11</title>
<polygon fill="orange" stroke="black" points="2291.6,-302.54 2291.6,-317.46 2192.79,-328 2053.06,-328 1954.25,-317.46 1954.25,-302.54 2053.06,-292 2192.79,-292 2291.6,-302.54"/>
<text text-anchor="middle" x="2122.92" y="-306.3" font-family="Times,serif" font-size="14.00">#11 GetField : char_field : char</text>
</g>
<!-- node6&#45;&gt;node11 -->
<g id="edge29" class="edge">
<title>node6&#45;&gt;node11</title>
<path fill="none" stroke="black" d="M1977.99,-368.81C2004.02,-358.43 2040.8,-343.76 2070.8,-331.79"/>
<polygon fill="black" stroke="black" points="2072.28,-334.97 2080.27,-328.01 2069.69,-328.47 2072.28,-334.97"/>
<text text-anchor="middle" x="2066.57" y="-338.88" font-family="Times,serif" font-size="14.00">*0</text>
</g>
<!-- node10 -->
<g id="node18" class="node">
<title>node10</title>
<polygon fill="orange" stroke="black" points="2681.98,-302.54 2681.98,-317.46 2578.27,-328 2431.58,-328 2327.86,-317.46 2327.86,-302.54 2431.58,-292 2578.27,-292 2681.98,-302.54"/>
<text text-anchor="middle" x="2504.92" y="-306.3" font-family="Times,serif" font-size="14.00">#10 GetField : short_field : short</text>
</g>
<!-- node6&#45;&gt;node10 -->
<g id="edge31" class="edge">
<title>node6&#45;&gt;node10</title>
<path fill="none" stroke="black" d="M1996.85,-375.42C2085.34,-364.2 2267.42,-341.11 2387.84,-325.84"/>
<polygon fill="black" stroke="black" points="2388.37,-329.31 2397.85,-324.58 2387.49,-322.36 2388.37,-329.31"/>
<text text-anchor="middle" x="2380.93" y="-331.54" font-family="Times,serif" font-size="14.00">*0</text>
</g>
<!-- node9 -->
<g id="node19" class="node">
<title>node9</title>
<polygon fill="orange" stroke="black" points="3109.97,-302.54 3109.97,-317.46 2995.13,-328 2832.72,-328 2717.88,-317.46 2717.88,-302.54 2832.72,-292 2995.13,-292 3109.97,-302.54"/>
<text text-anchor="middle" x="2913.92" y="-306.3" font-family="Times,serif" font-size="14.00">#9 GetField : boolean_field : boolean</text>
</g>
<!-- node6&#45;&gt;node9 -->
<g id="edge33" class="edge">
<title>node6&#45;&gt;node9</title>
<path fill="none" stroke="black" d="M1997.39,-378.27C2119.2,-369.6 2430.64,-347.34 2690.92,-328 2712.85,-326.37 2735.98,-324.63 2758.72,-322.91"/>
<polygon fill="black" stroke="black" points="2759.08,-326.39 2768.78,-322.15 2758.55,-319.41 2759.08,-326.39"/>
<text text-anchor="middle" x="2751.35" y="-328.24" font-family="Times,serif" font-size="14.00">*0</text>
</g>
<!-- node8&#45;&gt;node9 -->
<g id="edge34" class="edge">
<title>node8&#45;&gt;node9</title>
<path fill="none" stroke="green" d="M3145.31,-310C3136.98,-310 3128.65,-310 3120.32,-310"/>
<polygon fill="green" stroke="green" points="3120.15,-306.5 3110.15,-310 3120.15,-313.5 3120.15,-306.5"/>
</g>
<!-- node20 -->
<g id="node20" class="node">
<title>node20</title>
<polygon fill="lightgrey" stroke="black" points="2368.42,-109 1519.42,-109 1519.42,-73 2368.42,-73 2368.42,-109"/>
<text text-anchor="middle" x="1943.92" y="-87.3" font-family="Times,serif" font-size="14.00">#20 Invoke static simple_method_return_boolean : (byte,boolean,short,char,int,long,float,double,String,int[])boolean</text>
</g>
<!-- node8&#45;&gt;node20 -->
<g id="edge36" class="edge">
<title>node8&#45;&gt;node20</title>
<path fill="none" stroke="black" d="M3217.11,-294.55C2977.49,-256.43 2328.3,-153.15 2061.17,-110.65"/>
<polygon fill="black" stroke="black" points="2061.48,-107.16 2051.06,-109.04 2060.38,-114.07 2061.48,-107.16"/>
<text text-anchor="middle" x="2070.28" y="-99.84" font-family="Times,serif" font-size="14.00">*1</text>
</g>
<!-- node7&#45;&gt;node8 -->
<g id="edge9" class="edge">
<title>node7&#45;&gt;node8</title>
<path fill="none" stroke="green" d="M784.04,-328.07C809.97,-335.36 841.2,-342.89 869.92,-346.5 993.4,-362.01 2986,-357.83 3109.92,-346.5 3147.15,-343.1 3187.83,-336.17 3222.58,-329.25"/>
<polygon fill="green" stroke="green" points="3223.58,-332.62 3232.68,-327.21 3222.19,-325.76 3223.58,-332.62"/>
</g>
<!-- node18 -->
<g id="node8" class="node">
<title>node18</title>
<polygon fill="lightgrey" stroke="black" points="1216.92,-255 1088.92,-255 1088.92,-219 1216.92,-219 1216.92,-255"/>
<text text-anchor="middle" x="1152.92" y="-233.3" font-family="Times,serif" font-size="14.00">#18 LabelNode</text>
</g>
<!-- node7&#45;&gt;node18 -->
<g id="edge13" class="edge">
<title>node7&#45;&gt;node18</title>
<path fill="none" stroke="red" d="M828.96,-291.99C905.91,-279.17 1009.68,-261.87 1078.82,-250.35"/>
<polygon fill="red" stroke="red" points="1079.47,-253.79 1088.76,-248.69 1078.32,-246.89 1079.47,-253.79"/>
</g>
<!-- node19 -->
<g id="node9" class="node">
<title>node19</title>
<polygon fill="lightgrey" stroke="black" points="1564.92,-182 1450.92,-182 1450.92,-146 1564.92,-146 1564.92,-182"/>
<text text-anchor="middle" x="1507.92" y="-160.3" font-family="Times,serif" font-size="14.00">#19 ClassInit</text>
</g>
<!-- node18&#45;&gt;node19 -->
<g id="edge16" class="edge">
<title>node18&#45;&gt;node19</title>
<path fill="none" stroke="red" d="M1217.21,-223.14C1280.46,-210.49 1376.63,-191.26 1440.84,-178.42"/>
<polygon fill="red" stroke="red" points="1441.74,-181.81 1450.86,-176.41 1440.36,-174.94 1441.74,-181.81"/>
</g>
<!-- node19&#45;&gt;node20 -->
<g id="edge35" class="edge">
<title>node19&#45;&gt;node20</title>
<path fill="none" stroke="black" d="M1528.71,-145.94C1543.91,-138.98 1564.07,-131.52 1582.92,-127 1610.9,-120.29 1640.46,-114.86 1670.15,-110.47"/>
<polygon fill="black" stroke="black" points="1670.82,-113.91 1680.22,-109.03 1669.83,-106.99 1670.82,-113.91"/>
<text text-anchor="middle" x="1663.48" y="-116.27" font-family="Times,serif" font-size="14.00">*0</text>
</g>
<!-- node19&#45;&gt;node20 -->
<g id="edge46" class="edge">
<title>node19&#45;&gt;node20</title>
<path fill="none" stroke="green" d="M1545.2,-145.94C1561.91,-138.98 1582.07,-131.52 1600.92,-127 1628.9,-120.29 1658.46,-114.86 1688.03,-110.47"/>
<polygon fill="green" stroke="green" points="1688.66,-113.92 1698.06,-109.03 1687.66,-106.99 1688.66,-113.92"/>
</g>
<!-- node19&#45;&gt;node20 -->
<g id="edge47" class="edge">
<title>node19&#45;&gt;node20</title>
<path fill="none" stroke="red" d="M1561.69,-145.94C1579.91,-138.98 1600.07,-131.52 1618.92,-127 1646.9,-120.29 1676.46,-114.86 1705.91,-110.47"/>
<polygon fill="red" stroke="red" points="1706.5,-113.93 1715.89,-109.03 1705.49,-107 1706.5,-113.93"/>
</g>
<!-- node3&#45;&gt;node19 -->
<g id="edge14" class="edge">
<title>node3&#45;&gt;node19</title>
<path fill="none" stroke="black" d="M171.92,-510.78C171.92,-496.41 171.92,-475.37 171.92,-457 171.92,-457 171.92,-457 171.92,-236 171.92,-171.79 1168.99,-165.53 1440.41,-165.02"/>
<polygon fill="black" stroke="black" points="1440.52,-168.52 1450.52,-165 1440.51,-161.52 1440.52,-168.52"/>
<text text-anchor="middle" x="1432.41" y="-169.79" font-family="Times,serif" font-size="14.00">*0</text>
</g>
<!-- node17&#45;&gt;node19 -->
<g id="edge15" class="edge">
<title>node17&#45;&gt;node19</title>
<path fill="none" stroke="green" d="M3541.23,-296.99C3520.79,-295.16 3499.76,-293.41 3479.92,-292 2645.94,-232.67 2418.84,-374.36 1600.92,-201 1585.09,-197.64 1568.41,-191.93 1553.62,-186.04"/>
<polygon fill="green" stroke="green" points="1554.78,-182.73 1544.2,-182.16 1552.12,-189.21 1554.78,-182.73"/>
</g>
<!-- node17&#45;&gt;node20 -->
<g id="edge45" class="edge">
<title>node17&#45;&gt;node20</title>
<path fill="none" stroke="black" d="M3558.91,-295.19C3345.8,-266.44 2837.75,-198.5 2410.92,-146 2309.62,-133.54 2195.84,-120.36 2105.95,-110.15"/>
<polygon fill="black" stroke="black" points="2106.28,-106.66 2095.95,-109.01 2105.49,-113.62 2106.28,-106.66"/>
<text text-anchor="middle" x="2114.91" y="-98.96" font-family="Times,serif" font-size="14.00">*10</text>
</g>
<!-- node16&#45;&gt;node17 -->
<g id="edge18" class="edge">
<title>node16&#45;&gt;node17</title>
<path fill="none" stroke="green" d="M3868.36,-310C3860.05,-310 3851.74,-310 3843.43,-310"/>
<polygon fill="green" stroke="green" points="3843.3,-306.5 3833.3,-310 3843.3,-313.5 3843.3,-306.5"/>
</g>
<!-- node16&#45;&gt;node20 -->
<g id="edge44" class="edge">
<title>node16&#45;&gt;node20</title>
<path fill="none" stroke="black" d="M3940.12,-295.54C3690.39,-266.47 3079.01,-196.35 2565.92,-146 2432.41,-132.9 2282.6,-119.84 2163.47,-109.85"/>
<polygon fill="black" stroke="black" points="2163.75,-106.36 2153.5,-109.02 2163.17,-113.34 2163.75,-106.36"/>
<text text-anchor="middle" x="2172.26" y="-98.41" font-family="Times,serif" font-size="14.00">*9</text>
</g>
<!-- node15&#45;&gt;node16 -->
<g id="edge20" class="edge">
<title>node15&#45;&gt;node16</title>
<path fill="none" stroke="green" d="M474.53,-327.74C513.05,-335.14 559.62,-342.85 601.92,-346.5 780.76,-361.93 3654.02,-361.11 3832.92,-346.5 3874.74,-343.09 3920.54,-336.11 3959.63,-329.17"/>
<polygon fill="green" stroke="green" points="3960.72,-332.53 3969.94,-327.31 3959.47,-325.64 3960.72,-332.53"/>
</g>
<!-- node15&#45;&gt;node20 -->
<g id="edge43" class="edge">
<title>node15&#45;&gt;node20</title>
<path fill="none" stroke="black" d="M482.08,-292.93C681.74,-257.88 1176.55,-173.95 1593.92,-127 1646.23,-121.12 1702.99,-115.23 1755.28,-110"/>
<polygon fill="black" stroke="black" points="1755.73,-113.48 1765.33,-109 1755.03,-106.51 1755.73,-113.48"/>
<text text-anchor="middle" x="1748.13" y="-115.51" font-family="Times,serif" font-size="14.00">*8</text>
</g>
<!-- node14&#45;&gt;node15 -->
<g id="edge22" class="edge">
<title>node14&#45;&gt;node15</title>
<path fill="none" stroke="green" d="M965.69,-327.69C931.37,-335.1 889.79,-342.84 851.92,-346.5 741.33,-357.19 712.62,-356.05 601.92,-346.5 563.25,-343.16 521.02,-336.43 484.63,-329.65"/>
<polygon fill="green" stroke="green" points="485.01,-326.16 474.53,-327.74 483.71,-333.04 485.01,-326.16"/>
</g>
<!-- node14&#45;&gt;node20 -->
<g id="edge42" class="edge">
<title>node14&#45;&gt;node20</title>
<path fill="none" stroke="black" d="M1110.78,-292.08C1213.5,-267.85 1408.24,-221.82 1573.92,-182 1674.2,-157.9 1789.65,-129.75 1864.56,-111.44"/>
<polygon fill="black" stroke="black" points="1865.51,-114.81 1874.39,-109.03 1863.85,-108.01 1865.51,-114.81"/>
<text text-anchor="middle" x="1858.8" y="-117.85" font-family="Times,serif" font-size="14.00">*7</text>
</g>
<!-- node13&#45;&gt;node14 -->
<g id="edge24" class="edge">
<title>node13&#45;&gt;node14</title>
<path fill="none" stroke="green" d="M1242.75,-310C1234.48,-310 1226.21,-310 1217.94,-310"/>
<polygon fill="green" stroke="green" points="1217.85,-306.5 1207.85,-310 1217.85,-313.5 1217.85,-306.5"/>
</g>
<!-- node13&#45;&gt;node20 -->
<g id="edge41" class="edge">
<title>node13&#45;&gt;node20</title>
<path fill="none" stroke="black" d="M1532.54,-297.48C1564.48,-292.31 1598.5,-284.82 1628.92,-274 1686.87,-253.4 1838.96,-158.81 1908.42,-114.73"/>
<polygon fill="black" stroke="black" points="1910.69,-117.43 1917.25,-109.11 1906.94,-111.52 1910.69,-117.43"/>
<text text-anchor="middle" x="1906.49" y="-122.27" font-family="Times,serif" font-size="14.00">*6</text>
</g>
<!-- node12&#45;&gt;node13 -->
<g id="edge26" class="edge">
<title>node12&#45;&gt;node13</title>
<path fill="none" stroke="green" d="M1614.76,-310C1606.24,-310 1597.71,-310 1589.19,-310"/>
<polygon fill="green" stroke="green" points="1589.19,-306.5 1579.19,-310 1589.19,-313.5 1589.19,-306.5"/>
</g>
<!-- node12&#45;&gt;node20 -->
<g id="edge40" class="edge">
<title>node12&#45;&gt;node20</title>
<path fill="none" stroke="black" d="M1780.81,-291.97C1811.89,-253.88 1887.13,-161.63 1923.53,-117"/>
<polygon fill="black" stroke="black" points="1926.25,-119.21 1929.86,-109.25 1920.82,-114.79 1926.25,-119.21"/>
<text text-anchor="middle" x="1924.95" y="-124.94" font-family="Times,serif" font-size="14.00">*5</text>
</g>
<!-- node11&#45;&gt;node12 -->
<g id="edge28" class="edge">
<title>node11&#45;&gt;node12</title>
<path fill="none" stroke="green" d="M1953.93,-310C1945.61,-310 1937.3,-310 1928.99,-310"/>
<polygon fill="green" stroke="green" points="1928.85,-306.5 1918.85,-310 1928.85,-313.5 1928.85,-306.5"/>
</g>
<!-- node11&#45;&gt;node20 -->
<g id="edge39" class="edge">
<title>node11&#45;&gt;node20</title>
<path fill="none" stroke="black" d="M2108.88,-291.97C2077.46,-253.88 2001.36,-161.63 1964.55,-117"/>
<polygon fill="black" stroke="black" points="1967.22,-114.74 1958.15,-109.25 1961.82,-119.19 1967.22,-114.74"/>
<text text-anchor="middle" x="1976.21" y="-114.15" font-family="Times,serif" font-size="14.00">*4</text>
</g>
<!-- node10&#45;&gt;node11 -->
<g id="edge30" class="edge">
<title>node10&#45;&gt;node11</title>
<path fill="none" stroke="green" d="M2327.69,-310C2319.12,-310 2310.55,-310 2301.98,-310"/>
<polygon fill="green" stroke="green" points="2301.91,-306.5 2291.91,-310 2301.91,-313.5 2301.91,-306.5"/>
</g>
<!-- node10&#45;&gt;node20 -->
<g id="edge38" class="edge">
<title>node10&#45;&gt;node20</title>
<path fill="none" stroke="black" d="M2460.9,-291.97C2359.23,-252.64 2108.33,-155.6 1997.75,-112.82"/>
<polygon fill="black" stroke="black" points="1998.72,-109.44 1988.13,-109.1 1996.19,-115.97 1998.72,-109.44"/>
<text text-anchor="middle" x="2008.08" y="-104.05" font-family="Times,serif" font-size="14.00">*3</text>
</g>
<!-- node9&#45;&gt;node10 -->
<g id="edge32" class="edge">
<title>node9&#45;&gt;node10</title>
<path fill="none" stroke="green" d="M2717.56,-310C2709.19,-310 2700.83,-310 2692.47,-310"/>
<polygon fill="green" stroke="green" points="2692.26,-306.5 2682.26,-310 2692.26,-313.5 2692.26,-306.5"/>
</g>
<!-- node9&#45;&gt;node20 -->
<g id="edge37" class="edge">
<title>node9&#45;&gt;node20</title>
<path fill="none" stroke="black" d="M2837.81,-291.97C2659.78,-252.15 2217.14,-153.12 2029.83,-111.22"/>
<polygon fill="black" stroke="black" points="2030.54,-107.79 2020.02,-109.02 2029.01,-114.62 2030.54,-107.79"/>
<text text-anchor="middle" x="2039.55" y="-101.03" font-family="Times,serif" font-size="14.00">*2</text>
</g>
<!-- node21 -->
<g id="node21" class="node">
<title>node21</title>
<polygon fill="lightgrey" stroke="black" points="2030.42,-36 1857.42,-36 1857.42,0 2030.42,0 2030.42,-36"/>
<text text-anchor="middle" x="1943.92" y="-14.3" font-family="Times,serif" font-size="14.00">#21 ReturnValue : int</text>
</g>
<!-- node20&#45;&gt;node21 -->
<g id="edge48" class="edge">
<title>node20&#45;&gt;node21</title>
<path fill="none" stroke="black" d="M1932.17,-72.81C1930.49,-64.79 1930.02,-55.05 1930.77,-46.07"/>
<polygon fill="black" stroke="black" points="1934.25,-46.42 1932.2,-36.03 1927.32,-45.43 1934.25,-46.42"/>
<text text-anchor="middle" x="1938.01" y="-51.47" font-family="Times,serif" font-size="14.00">*0</text>
</g>
<!-- node20&#45;&gt;node21 -->
<g id="edge49" class="edge">
<title>node20&#45;&gt;node21</title>
<path fill="none" stroke="red" d="M1943.92,-72.81C1943.92,-64.79 1943.92,-55.05 1943.92,-46.07"/>
<polygon fill="red" stroke="red" points="1947.42,-46.03 1943.92,-36.03 1940.42,-46.03 1947.42,-46.03"/>
</g>
<!-- node20&#45;&gt;node21 -->
<g id="edge50" class="edge">
<title>node20&#45;&gt;node21</title>
<path fill="none" stroke="green" d="M1955.68,-72.81C1957.36,-64.79 1957.83,-55.05 1957.08,-46.07"/>
<polygon fill="green" stroke="green" points="1960.53,-45.43 1955.65,-36.03 1953.6,-46.42 1960.53,-45.43"/>
</g>
<!-- c0 -->
<!-- c1 -->
<!-- c0&#45;&gt;c1 -->
<g id="edge52" class="edge">
<title>c0&#45;&gt;c1</title>
<path fill="none" stroke="red" d="M1480.82,-611C1492.03,-611 1550.17,-611 1575.78,-611"/>
<polygon fill="red" stroke="red" points="1575.98,-614.5 1585.98,-611 1575.98,-607.5 1575.98,-614.5"/>
<text text-anchor="middle" x="1533.42" y="-617.8" font-family="Times,serif" font-size="14.00">Control flow</text>
</g>
<!-- c2 -->
<!-- c3 -->
<!-- c2&#45;&gt;c3 -->
<g id="edge53" class="edge">
<title>c2&#45;&gt;c3</title>
<path fill="none" stroke="red" stroke-dasharray="5,2" d="M1274,-611C1290.97,-611 1407.13,-611 1445.01,-611"/>
<polygon fill="red" stroke="red" points="1445.09,-614.5 1455.09,-611 1445.09,-607.5 1445.09,-614.5"/>
<text text-anchor="middle" x="1364.42" y="-617.8" font-family="Times,serif" font-size="14.00">Control flow back edge</text>
</g>
<!-- d0 -->
<!-- d1 -->
<!-- d0&#45;&gt;d1 -->
<g id="edge54" class="edge">
<title>d0&#45;&gt;d1</title>
<path fill="none" stroke="black" d="M1162.78,-611C1172.33,-611 1216.23,-611 1237.84,-611"/>
<polygon fill="black" stroke="black" points="1238.08,-614.5 1248.08,-611 1238.08,-607.5 1238.08,-614.5"/>
<text text-anchor="middle" x="1205.42" y="-617.8" font-family="Times,serif" font-size="14.00">Data flow</text>
</g>
<!-- d2 -->
<!-- d3 -->
<!-- d2&#45;&gt;d3 -->
<g id="edge55" class="edge">
<title>d2&#45;&gt;d3</title>
<path fill="none" stroke="black" stroke-dasharray="1,5" d="M1036.73,-611C1047.38,-611 1102.39,-611 1127,-611"/>
<polygon fill="black" stroke="black" points="1127.07,-614.5 1137.07,-611 1127.07,-607.5 1127.07,-614.5"/>
<text text-anchor="middle" x="1086.92" y="-617.8" font-family="Times,serif" font-size="14.00">Declaration</text>
</g>
<!-- d4 -->
<!-- d5 -->
<!-- d4&#45;&gt;d5 -->
<g id="edge56" class="edge">
<title>d4&#45;&gt;d5</title>
<path fill="none" stroke="blue" d="M894.02,-611C906.65,-611 972.81,-611 1000.6,-611"/>
<polygon fill="blue" stroke="blue" points="1000.77,-614.5 1010.77,-611 1000.77,-607.5 1000.77,-614.5"/>
<text text-anchor="middle" x="952.42" y="-617.8" font-family="Times,serif" font-size="14.00">PHI Data flow</text>
</g>
<!-- d6 -->
<!-- d7 -->
<!-- d6&#45;&gt;d7 -->
<g id="edge57" class="edge">
<title>d6&#45;&gt;d7</title>
<path fill="none" stroke="green" d="M756.92,-611C768.86,-611 831.22,-611 857.85,-611"/>
<polygon fill="green" stroke="green" points="857.87,-614.5 867.87,-611 857.87,-607.5 857.87,-614.5"/>
<text text-anchor="middle" x="812.42" y="-617.8" font-family="Times,serif" font-size="14.00">Memory flow</text>
</g>
</g>
</svg>
