<?xml version="1.0" encoding="UTF-8" standalone="no"?>
<!DOCTYPE svg PUBLIC "-//W3C//DTD SVG 1.1//EN"
 "http://www.w3.org/Graphics/SVG/1.1/DTD/svg11.dtd">
<!-- Generated by graphviz version 2.43.0 (0)
 -->
<!-- Title: debugoutput Pages: 1 -->
<svg width="2464pt" height="1308pt"
 viewBox="0.00 0.00 2464.00 1307.80" xmlns="http://www.w3.org/2000/svg" xmlns:xlink="http://www.w3.org/1999/xlink">
<g id="graph0" class="graph" transform="scale(1 1) rotate(0) translate(4 1303.8)">
<title>debugoutput</title>
<polygon fill="white" stroke="transparent" points="-4,4 -4,-1303.8 2460,-1303.8 2460,4 -4,4"/>
<g id="clust1" class="cluster">
<title>cluster_000</title>
<polygon fill="none" stroke="black" points="1609,-1249.2 1609,-1291.8 2448,-1291.8 2448,-1249.2 1609,-1249.2"/>
<text text-anchor="middle" x="2028.5" y="-1276.6" font-family="Times,serif" font-size="14.00">Legend</text>
</g>
<!-- node0 -->
<g id="node1" class="node">
<title>node0</title>
<polygon fill="lightgrey" stroke="black" points="1599,-1277 1433,-1277 1433,-1241 1599,-1241 1599,-1277"/>
<text text-anchor="middle" x="1516" y="-1255.3" font-family="Times,serif" font-size="14.00">#0 Method Order : 0</text>
</g>
<!-- node1 -->
<g id="node2" class="node">
<title>node1</title>
<polygon fill="lightgrey" stroke="black" points="1145,-1131 971,-1131 971,-1095 1145,-1095 1145,-1131"/>
<text text-anchor="middle" x="1058" y="-1109.3" font-family="Times,serif" font-size="14.00">#1 ClassInit Order : 5</text>
</g>
<!-- node0&#45;&gt;node1 -->
<g id="edge4" class="edge">
<title>node0&#45;&gt;node1</title>
<path fill="none" stroke="black" d="M1432.87,-1258.13C1247.83,-1257.62 815.05,-1251.39 771,-1204 711.87,-1140.37 856.21,-1121.6 960.98,-1116.14"/>
<polygon fill="black" stroke="black" points="961.17,-1119.63 970.98,-1115.65 960.82,-1112.64 961.17,-1119.63"/>
</g>
<!-- node17 -->
<g id="node3" class="node">
<title>node17</title>
<polygon fill="lightgreen" stroke="black" points="1285.17,-1178.54 1285.17,-1193.46 1139.79,-1204 934.21,-1204 788.83,-1193.46 788.83,-1178.54 934.21,-1168 1139.79,-1168 1285.17,-1178.54"/>
<text text-anchor="middle" x="1037" y="-1182.3" font-family="Times,serif" font-size="14.00">#17 Class MethodInvokeTest$Source Order : 2</text>
</g>
<!-- node0&#45;&gt;node17 -->
<g id="edge49" class="edge">
<title>node0&#45;&gt;node17</title>
<path fill="none" stroke="black" stroke-dasharray="1,5" d="M1432.83,-1246.43C1355.8,-1235.28 1240.51,-1218.24 1154.17,-1205.25"/>
<polygon fill="black" stroke="black" points="1154.46,-1201.76 1144.05,-1203.73 1153.42,-1208.68 1154.46,-1201.76"/>
</g>
<!-- node16 -->
<g id="node4" class="node">
<title>node16</title>
<polygon fill="lightgrey" stroke="black" points="1500.5,-1204 1303.5,-1204 1303.5,-1168 1500.5,-1168 1500.5,-1204"/>
<text text-anchor="middle" x="1402" y="-1182.3" font-family="Times,serif" font-size="14.00">#16 LabelNode Order : 3</text>
</g>
<!-- node0&#45;&gt;node16 -->
<g id="edge47" class="edge">
<title>node0&#45;&gt;node16</title>
<path fill="none" stroke="red" d="M1482.83,-1240.99C1466.87,-1231.67 1447.93,-1219.97 1432.35,-1209.86"/>
<polygon fill="red" stroke="red" points="1433.89,-1206.68 1423.61,-1204.11 1430.04,-1212.53 1433.89,-1206.68"/>
</g>
<!-- node15 -->
<g id="node18" class="node">
<title>node15</title>
<polygon fill="lightgrey" stroke="black" points="1811.5,-1204 1518.5,-1204 1518.5,-1168 1811.5,-1168 1811.5,-1204"/>
<text text-anchor="middle" x="1665" y="-1182.3" font-family="Times,serif" font-size="14.00">#15 this : MethodInvokeTest Order : 4</text>
</g>
<!-- node0&#45;&gt;node15 -->
<g id="edge45" class="edge">
<title>node0&#45;&gt;node15</title>
<path fill="none" stroke="black" d="M1545.83,-1240.99C1565.37,-1231.19 1591.31,-1218.77 1614.03,-1208.31"/>
<polygon fill="black" stroke="black" points="1615.57,-1211.45 1623.22,-1204.11 1612.67,-1205.09 1615.57,-1211.45"/>
<text text-anchor="middle" x="1610.24" y="-1215.64" font-family="Times,serif" font-size="14.00">*0</text>
</g>
<!-- node18 -->
<g id="node19" class="node">
<title>node18</title>
<polygon fill="lightgreen" stroke="black" points="2244.56,-1178.54 2244.56,-1193.46 2122.97,-1204 1951.03,-1204 1829.44,-1193.46 1829.44,-1178.54 1951.03,-1168 2122.97,-1168 2244.56,-1178.54"/>
<text text-anchor="middle" x="2037" y="-1182.3" font-family="Times,serif" font-size="14.00">#18 Class MethodInvokeTest Order : 1</text>
</g>
<!-- node0&#45;&gt;node18 -->
<g id="edge51" class="edge">
<title>node0&#45;&gt;node18</title>
<path fill="none" stroke="black" stroke-dasharray="1,5" d="M1596.28,-1240.96C1696.26,-1225.18 1809.81,-1211.14 1896.64,-1201.34"/>
<polygon fill="black" stroke="black" points="1897.28,-1204.79 1906.83,-1200.2 1896.5,-1197.84 1897.28,-1204.79"/>
</g>
<!-- node1&#45;&gt;node0 -->
<g id="edge1" class="edge">
<title>node1&#45;&gt;node0</title>
<path fill="none" stroke="green" stroke-width="2" d="M970.57,-1116.31C871.31,-1121.98 730.46,-1141.01 789,-1204 831.53,-1249.76 1236.45,-1257.14 1422.92,-1258.06"/>
<polygon fill="green" stroke="green" stroke-width="2" points="1422.97,-1261.56 1432.99,-1258.1 1423,-1254.56 1422.97,-1261.56"/>
</g>
<!-- node2 -->
<g id="node5" class="node">
<title>node2</title>
<polygon fill="lightgrey" stroke="black" points="1956.5,-985 1637.5,-985 1637.5,-949 1956.5,-949 1956.5,-985"/>
<text text-anchor="middle" x="1797" y="-963.3" font-family="Times,serif" font-size="14.00">#2 Invoke special &lt;init&gt; : ()void Order : 7</text>
</g>
<!-- node1&#45;&gt;node2 -->
<g id="edge7" class="edge">
<title>node1&#45;&gt;node2</title>
<path fill="none" stroke="red" d="M1145.23,-1111.77C1279.2,-1110.5 1528.85,-1104.35 1614,-1077 1670.94,-1058.71 1727.99,-1017.58 1763.07,-991.4"/>
<polygon fill="red" stroke="red" points="1765.6,-993.88 1771.51,-985.09 1761.4,-988.27 1765.6,-993.88"/>
</g>
<!-- node4 -->
<g id="node6" class="node">
<title>node4</title>
<polygon fill="orange" stroke="black" points="1158.7,-1032.54 1158.7,-1047.46 1099.71,-1058 1016.29,-1058 957.3,-1047.46 957.3,-1032.54 1016.29,-1022 1099.71,-1022 1158.7,-1032.54"/>
<text text-anchor="middle" x="1058" y="-1036.3" font-family="Times,serif" font-size="14.00">#4 New Order : 6</text>
</g>
<!-- node1&#45;&gt;node4 -->
<g id="edge12" class="edge">
<title>node1&#45;&gt;node4</title>
<path fill="none" stroke="black" d="M1046.24,-1094.81C1044.56,-1086.79 1044.1,-1077.05 1044.84,-1068.07"/>
<polygon fill="black" stroke="black" points="1048.33,-1068.42 1046.28,-1058.03 1041.4,-1067.43 1048.33,-1068.42"/>
<text text-anchor="middle" x="1052.08" y="-1073.47" font-family="Times,serif" font-size="14.00">*0</text>
</g>
<!-- node1&#45;&gt;node4 -->
<g id="edge13" class="edge">
<title>node1&#45;&gt;node4</title>
<path fill="none" stroke="black" d="M1069.76,-1094.81C1071.44,-1086.79 1071.9,-1077.05 1071.16,-1068.07"/>
<polygon fill="black" stroke="black" points="1074.6,-1067.43 1069.72,-1058.03 1067.67,-1068.42 1074.6,-1067.43"/>
</g>
<!-- node17&#45;&gt;node0 -->
<g id="edge48" class="edge">
<title>node17&#45;&gt;node0</title>
<path fill="none" stroke="green" stroke-width="2" d="M1151.67,-1203.14C1234.6,-1215.23 1345.19,-1231.63 1422.72,-1243.35"/>
<polygon fill="green" stroke="green" stroke-width="2" points="1422.55,-1246.86 1432.96,-1244.89 1423.6,-1239.94 1422.55,-1246.86"/>
</g>
<!-- node17&#45;&gt;node1 -->
<g id="edge2" class="edge">
<title>node17&#45;&gt;node1</title>
<path fill="none" stroke="black" d="M1042.08,-1167.81C1044.48,-1159.7 1047.4,-1149.84 1050.08,-1140.78"/>
<polygon fill="black" stroke="black" points="1053.48,-1141.61 1052.96,-1131.03 1046.77,-1139.63 1053.48,-1141.61"/>
<text text-anchor="middle" x="1055.93" y="-1147.11" font-family="Times,serif" font-size="14.00">*0</text>
</g>
<!-- node16&#45;&gt;node0 -->
<g id="edge46" class="edge">
<title>node16&#45;&gt;node0</title>
<path fill="none" stroke="green" stroke-width="2" d="M1435.35,-1204.11C1451.34,-1213.46 1470.27,-1225.15 1485.83,-1235.26"/>
<polygon fill="green" stroke="green" stroke-width="2" points="1484.27,-1238.42 1494.55,-1240.99 1488.12,-1232.57 1484.27,-1238.42"/>
</g>
<!-- node16&#45;&gt;node1 -->
<g id="edge3" class="edge">
<title>node16&#45;&gt;node1</title>
<path fill="none" stroke="red" d="M1319.6,-1167.99C1268.72,-1157.49 1203.32,-1143.99 1150.64,-1133.12"/>
<polygon fill="red" stroke="red" points="1151.12,-1129.65 1140.62,-1131.05 1149.7,-1136.5 1151.12,-1129.65"/>
</g>
<!-- node2&#45;&gt;node1 -->
<g id="edge5" class="edge">
<title>node2&#45;&gt;node1</title>
<path fill="none" stroke="green" stroke-width="2" d="M1783.04,-985.09C1755.66,-1010.44 1693.77,-1057.16 1632,-1077 1546.59,-1104.43 1295.68,-1110.54 1155.47,-1111.78"/>
<polygon fill="green" stroke="green" stroke-width="2" points="1155.13,-1108.29 1145.16,-1111.87 1155.19,-1115.29 1155.13,-1108.29"/>
</g>
<!-- node3 -->
<g id="node7" class="node">
<title>node3</title>
<polygon fill="lightgrey" stroke="black" points="1971,-912 1783,-912 1783,-876 1971,-876 1971,-912"/>
<text text-anchor="middle" x="1877" y="-890.3" font-family="Times,serif" font-size="14.00">#3 LabelNode Order : 8</text>
</g>
<!-- node2&#45;&gt;node3 -->
<g id="edge10" class="edge">
<title>node2&#45;&gt;node3</title>
<path fill="none" stroke="red" d="M1810.49,-948.81C1819.76,-939.74 1832.28,-928.48 1844.01,-918.6"/>
<polygon fill="red" stroke="red" points="1846.48,-921.1 1851.95,-912.03 1842.01,-915.71 1846.48,-921.1"/>
</g>
<!-- node5 -->
<g id="node8" class="node">
<title>node5</title>
<polygon fill="orange" stroke="black" points="1727.1,-886.54 1727.1,-901.46 1603.44,-912 1428.56,-912 1304.9,-901.46 1304.9,-886.54 1428.56,-876 1603.44,-876 1727.1,-886.54"/>
<text text-anchor="middle" x="1516" y="-890.3" font-family="Times,serif" font-size="14.00">#5 GetField : byte_field : byte Order : 9</text>
</g>
<!-- node2&#45;&gt;node5 -->
<g id="edge16" class="edge">
<title>node2&#45;&gt;node5</title>
<path fill="none" stroke="black" d="M1729.69,-948.99C1688.72,-938.64 1636.23,-925.38 1593.52,-914.59"/>
<polygon fill="black" stroke="black" points="1594.28,-911.17 1583.73,-912.11 1592.57,-917.96 1594.28,-911.17"/>
</g>
<!-- node4&#45;&gt;node1 -->
<g id="edge11" class="edge">
<title>node4&#45;&gt;node1</title>
<path fill="none" stroke="green" stroke-width="2" d="M1058,-1058.03C1058,-1066.03 1058,-1075.77 1058,-1084.75"/>
<polygon fill="green" stroke="green" stroke-width="2" points="1054.5,-1084.81 1058,-1094.81 1061.5,-1084.81 1054.5,-1084.81"/>
</g>
<!-- node4&#45;&gt;node2 -->
<g id="edge6" class="edge">
<title>node4&#45;&gt;node2</title>
<path fill="none" stroke="black" d="M1145.46,-1030.15C1263.63,-1018.57 1476.68,-998.07 1626.94,-983.79"/>
<polygon fill="black" stroke="black" points="1627.57,-987.24 1637.2,-982.81 1626.91,-980.28 1627.57,-987.24"/>
<text text-anchor="middle" x="1619.95" y="-989.24" font-family="Times,serif" font-size="14.00">*0</text>
</g>
<!-- node4&#45;&gt;node2 -->
<g id="edge8" class="edge">
<title>node4&#45;&gt;node2</title>
<path fill="none" stroke="black" d="M1148.74,-1030.72C1267.57,-1019.53 1478.16,-999.34 1627.04,-984.89"/>
<polygon fill="black" stroke="black" points="1627.59,-988.35 1637.2,-983.9 1626.91,-981.39 1627.59,-988.35"/>
</g>
<!-- node4&#45;&gt;node5 -->
<g id="edge15" class="edge">
<title>node4&#45;&gt;node5</title>
<path fill="none" stroke="black" d="M1107.89,-1023.32C1191.43,-997.05 1359.55,-944.19 1451.8,-915.18"/>
<polygon fill="black" stroke="black" points="1453.09,-918.45 1461.58,-912.11 1450.99,-911.77 1453.09,-918.45"/>
<text text-anchor="middle" x="1446.82" y="-921.91" font-family="Times,serif" font-size="14.00">*0</text>
</g>
<!-- node6 -->
<g id="node9" class="node">
<title>node6</title>
<polygon fill="orange" stroke="black" points="1575.29,-813.54 1575.29,-828.46 1428.09,-839 1219.91,-839 1072.71,-828.46 1072.71,-813.54 1219.91,-803 1428.09,-803 1575.29,-813.54"/>
<text text-anchor="middle" x="1324" y="-817.3" font-family="Times,serif" font-size="14.00">#6 GetField : boolean_field : boolean Order : 10</text>
</g>
<!-- node4&#45;&gt;node6 -->
<g id="edge18" class="edge">
<title>node4&#45;&gt;node6</title>
<path fill="none" stroke="black" d="M1061.34,-1021.74C1069.38,-985.11 1093.41,-899.46 1149,-857 1157.66,-850.38 1174.78,-844.76 1195.05,-840.08"/>
<polygon fill="black" stroke="black" points="1195.88,-843.49 1204.9,-837.93 1194.39,-836.65 1195.88,-843.49"/>
<text text-anchor="middle" x="1189" y="-846.36" font-family="Times,serif" font-size="14.00">*0</text>
</g>
<!-- node7 -->
<g id="node10" class="node">
<title>node7</title>
<polygon fill="orange" stroke="black" points="1537.69,-375.54 1537.69,-390.46 1396.7,-401 1197.3,-401 1056.31,-390.46 1056.31,-375.54 1197.3,-365 1396.7,-365 1537.69,-375.54"/>
<text text-anchor="middle" x="1297" y="-379.3" font-family="Times,serif" font-size="14.00">#7 GetField : double_field : double Order : 16</text>
</g>
<!-- node4&#45;&gt;node7 -->
<g id="edge21" class="edge">
<title>node4&#45;&gt;node7</title>
<path fill="none" stroke="black" d="M1053.09,-1021.94C1049.4,-1007.66 1045,-986.67 1045,-968 1045,-968 1045,-968 1045,-857 1045,-831.56 1052.96,-825.92 1064,-803 1138.87,-647.57 1198.8,-631.14 1270,-474 1279.23,-453.63 1286.32,-429.27 1290.91,-411.03"/>
<polygon fill="black" stroke="black" points="1294.37,-411.62 1293.32,-401.07 1287.57,-409.97 1294.37,-411.62"/>
<text text-anchor="middle" x="1297.27" y="-416.98" font-family="Times,serif" font-size="14.00">*0</text>
</g>
<!-- node11 -->
<g id="node11" class="node">
<title>node11</title>
<polygon fill="orange" stroke="black" points="1260.92,-448.54 1260.92,-463.46 1129.75,-474 944.25,-474 813.08,-463.46 813.08,-448.54 944.25,-438 1129.75,-438 1260.92,-448.54"/>
<text text-anchor="middle" x="1037" y="-452.3" font-family="Times,serif" font-size="14.00">#11 GetField : float_field : float Order : 15</text>
</g>
<!-- node4&#45;&gt;node11 -->
<g id="edge33" class="edge">
<title>node4&#45;&gt;node11</title>
<path fill="none" stroke="black" d="M1036.37,-1021.84C1022.47,-1008.76 1007,-989.4 1007,-968 1007,-968 1007,-968 1007,-857 1007,-785.63 1076,-783.37 1076,-712 1076,-712 1076,-712 1076,-528 1076,-511.55 1067.85,-495.3 1059.01,-482.51"/>
<polygon fill="black" stroke="black" points="1061.64,-480.19 1052.86,-474.25 1056.02,-484.36 1061.64,-480.19"/>
<text text-anchor="middle" x="1070.46" y="-480.05" font-family="Times,serif" font-size="14.00">*0</text>
</g>
<!-- node8 -->
<g id="node12" class="node">
<title>node8</title>
<polygon fill="orange" stroke="black" points="971.64,-740.54 971.64,-755.46 839.46,-766 652.54,-766 520.36,-755.46 520.36,-740.54 652.54,-730 839.46,-730 971.64,-740.54"/>
<text text-anchor="middle" x="746" y="-744.3" font-family="Times,serif" font-size="14.00">#8 GetField : short_field : short Order : 11</text>
</g>
<!-- node4&#45;&gt;node8 -->
<g id="edge24" class="edge">
<title>node4&#45;&gt;node8</title>
<path fill="none" stroke="black" d="M964.41,-1031.09C927.17,-1022.3 893,-1004.33 893,-968 893,-968 893,-968 893,-820 893,-795.96 876.86,-780.06 855.29,-769.54"/>
<polygon fill="black" stroke="black" points="856.65,-766.31 846.08,-765.49 853.83,-772.72 856.65,-766.31"/>
<text text-anchor="middle" x="866.08" y="-761.35" font-family="Times,serif" font-size="14.00">*0</text>
</g>
<!-- node9 -->
<g id="node13" class="node">
<title>node9</title>
<polygon fill="orange" stroke="black" points="462.26,-667.54 462.26,-682.46 334.99,-693 155.01,-693 27.74,-682.46 27.74,-667.54 155.01,-657 334.99,-657 462.26,-667.54"/>
<text text-anchor="middle" x="245" y="-671.3" font-family="Times,serif" font-size="14.00">#9 GetField : char_field : char Order : 12</text>
</g>
<!-- node4&#45;&gt;node9 -->
<g id="edge27" class="edge">
<title>node4&#45;&gt;node9</title>
<path fill="none" stroke="black" d="M969.95,-1030.21C930.02,-1024.86 882.55,-1016.55 841,-1004 671.35,-952.77 627.99,-933.38 478,-839 402.96,-791.78 400.37,-757.68 325,-711 316.97,-706.02 308.1,-701.4 299.28,-697.24"/>
<polygon fill="black" stroke="black" points="300.7,-694.04 290.15,-693.09 297.81,-700.41 300.7,-694.04"/>
<text text-anchor="middle" x="310.15" y="-689.2" font-family="Times,serif" font-size="14.00">*0</text>
</g>
<!-- node10 -->
<g id="node14" class="node">
<title>node10</title>
<polygon fill="orange" stroke="black" points="1576.1,-302.54 1576.1,-317.46 1434.87,-328 1235.13,-328 1093.9,-317.46 1093.9,-302.54 1235.13,-292 1434.87,-292 1576.1,-302.54"/>
<text text-anchor="middle" x="1335" y="-306.3" font-family="Times,serif" font-size="14.00">#10 GetField : string_field : String Order : 17</text>
</g>
<!-- node4&#45;&gt;node10 -->
<g id="edge30" class="edge">
<title>node4&#45;&gt;node10</title>
<path fill="none" stroke="black" d="M1071.47,-1021.91C1098.51,-988.76 1162.83,-915.54 1233,-876 1259.97,-860.81 1269.49,-862.23 1300,-857 1331.16,-851.66 1558.79,-858.08 1584,-839 1604.29,-823.65 1603,-810.44 1603,-785 1603,-785 1603,-785 1603,-455 1603,-407.89 1585.02,-392.82 1547,-365 1524.24,-348.35 1496.86,-336.81 1469.44,-328.82"/>
<polygon fill="black" stroke="black" points="1470.31,-325.43 1459.74,-326.14 1468.45,-332.18 1470.31,-325.43"/>
<text text-anchor="middle" x="1479.47" y="-319.13" font-family="Times,serif" font-size="14.00">*0</text>
</g>
<!-- node12 -->
<g id="node15" class="node">
<title>node12</title>
<polygon fill="orange" stroke="black" points="757.01,-521.54 757.01,-536.46 626.38,-547 441.62,-547 310.99,-536.46 310.99,-521.54 441.62,-511 626.38,-511 757.01,-521.54"/>
<text text-anchor="middle" x="534" y="-525.3" font-family="Times,serif" font-size="14.00">#12 GetField : long_field : long Order : 14</text>
</g>
<!-- node4&#45;&gt;node12 -->
<g id="edge36" class="edge">
<title>node4&#45;&gt;node12</title>
<path fill="none" stroke="black" d="M1013.5,-1022.48C991.25,-1011.05 969,-993.3 969,-968 969,-968 969,-968 969,-857 969,-797.12 1046.02,-780.61 1014,-730 941.6,-615.56 789.24,-566.56 675.49,-545.61"/>
<polygon fill="black" stroke="black" points="676.11,-542.17 665.64,-543.85 674.87,-549.06 676.11,-542.17"/>
<text text-anchor="middle" x="684.98" y="-535.02" font-family="Times,serif" font-size="14.00">*0</text>
</g>
<!-- node13 -->
<g id="node16" class="node">
<title>node13</title>
<polygon fill="orange" stroke="black" points="696.65,-594.54 696.65,-609.46 575.6,-620 404.4,-620 283.35,-609.46 283.35,-594.54 404.4,-584 575.6,-584 696.65,-594.54"/>
<text text-anchor="middle" x="490" y="-598.3" font-family="Times,serif" font-size="14.00">#13 GetField : int_field : int Order : 13</text>
</g>
<!-- node4&#45;&gt;node13 -->
<g id="edge39" class="edge">
<title>node4&#45;&gt;node13</title>
<path fill="none" stroke="black" d="M975.71,-1029.24C951.56,-1024.06 925.8,-1016.13 904,-1004 863.63,-981.53 868.25,-957.33 831,-930 702.14,-835.47 598.03,-900.03 511,-766 495.49,-742.11 510.15,-665.82 504,-638 503.4,-635.28 502.61,-632.49 501.71,-629.74"/>
<polygon fill="black" stroke="black" points="504.89,-628.25 498.13,-620.09 498.33,-630.69 504.89,-628.25"/>
<text text-anchor="middle" x="512.36" y="-630.44" font-family="Times,serif" font-size="14.00">*0</text>
</g>
<!-- node14 -->
<g id="node17" class="node">
<title>node14</title>
<polygon fill="orange" stroke="black" points="1855.46,-229.54 1855.46,-244.46 1722.22,-255 1533.78,-255 1400.54,-244.46 1400.54,-229.54 1533.78,-219 1722.22,-219 1855.46,-229.54"/>
<text text-anchor="middle" x="1628" y="-233.3" font-family="Times,serif" font-size="14.00">#14 GetField : array_field : int[] Order : 18</text>
</g>
<!-- node4&#45;&gt;node14 -->
<g id="edge42" class="edge">
<title>node4&#45;&gt;node14</title>
<path fill="none" stroke="black" d="M1091.45,-1021.98C1133.64,-999.72 1207.38,-958.07 1263,-912 1279.72,-898.15 1276.63,-885.79 1296,-876 1452.17,-797.12 1679,-959.96 1679,-785 1679,-785 1679,-785 1679,-309 1679,-291.28 1668.39,-274.95 1656.85,-262.44"/>
<polygon fill="black" stroke="black" points="1659.16,-259.79 1649.63,-255.16 1654.19,-264.72 1659.16,-259.79"/>
<text text-anchor="middle" x="1668.39" y="-258.37" font-family="Times,serif" font-size="14.00">*0</text>
</g>
<!-- node3&#45;&gt;node2 -->
<g id="edge9" class="edge">
<title>node3&#45;&gt;node2</title>
<path fill="none" stroke="green" stroke-width="2" d="M1863.67,-912.03C1854.44,-921.07 1841.94,-932.33 1830.2,-942.23"/>
<polygon fill="green" stroke="green" stroke-width="2" points="1827.71,-939.74 1822.24,-948.81 1832.18,-945.13 1827.71,-939.74"/>
</g>
<!-- node19 -->
<g id="node20" class="node">
<title>node19</title>
<polygon fill="lightgrey" stroke="black" points="2061,-182 1869,-182 1869,-146 2061,-146 2061,-182"/>
<text text-anchor="middle" x="1965" y="-160.3" font-family="Times,serif" font-size="14.00">#19 ClassInit Order : 19</text>
</g>
<!-- node3&#45;&gt;node19 -->
<g id="edge55" class="edge">
<title>node3&#45;&gt;node19</title>
<path fill="none" stroke="red" d="M1903.05,-875.75C1918.86,-863.02 1936,-844.12 1936,-822 1936,-822 1936,-822 1936,-236 1936,-220.25 1942.19,-203.9 1948.85,-190.86"/>
<polygon fill="red" stroke="red" points="1951.97,-192.46 1953.7,-182.01 1945.83,-189.1 1951.97,-192.46"/>
</g>
<!-- node5&#45;&gt;node1 -->
<g id="edge14" class="edge">
<title>node5&#45;&gt;node1</title>
<path fill="none" stroke="green" stroke-width="2" d="M1498.61,-912.16C1460.16,-949 1363.52,-1035.64 1265,-1077 1230.6,-1091.44 1190.6,-1099.93 1155,-1104.92"/>
<polygon fill="green" stroke="green" stroke-width="2" points="1154.53,-1101.45 1145.08,-1106.23 1155.45,-1108.39 1154.53,-1101.45"/>
</g>
<!-- node5&#45;&gt;node6 -->
<g id="edge19" class="edge">
<title>node5&#45;&gt;node6</title>
<path fill="none" stroke="black" d="M1470.01,-875.99C1442.9,-865.97 1408.41,-853.21 1379.75,-842.62"/>
<polygon fill="black" stroke="black" points="1380.87,-839.3 1370.28,-839.11 1378.44,-845.86 1380.87,-839.3"/>
</g>
<!-- node20 -->
<g id="node21" class="node">
<title>node20</title>
<polygon fill="lightgrey" stroke="black" points="1817.5,-109 890.5,-109 890.5,-73 1817.5,-73 1817.5,-109"/>
<text text-anchor="middle" x="1354" y="-87.3" font-family="Times,serif" font-size="14.00">#20 Invoke static simple_method_return_boolean : (byte,boolean,short,char,int,long,float,double,String,int[])boolean Order : 20</text>
</g>
<!-- node5&#45;&gt;node20 -->
<g id="edge58" class="edge">
<title>node5&#45;&gt;node20</title>
<path fill="none" stroke="black" d="M1610.91,-876.56C1662.95,-864.74 1717,-846.56 1717,-822 1717,-822 1717,-822 1717,-492 1717,-354.19 1948.86,-327.58 1864,-219 1821.05,-164.04 1647.49,-129.43 1514.65,-110.46"/>
<polygon fill="black" stroke="black" points="1514.74,-106.94 1504.35,-109.01 1513.77,-113.87 1514.74,-106.94"/>
<text text-anchor="middle" x="1523.48" y="-99.47" font-family="Times,serif" font-size="14.00">*1</text>
</g>
<!-- node6&#45;&gt;node1 -->
<g id="edge17" class="edge">
<title>node6&#45;&gt;node1</title>
<path fill="none" stroke="green" stroke-width="2" d="M1231.49,-839C1213.92,-843.97 1199.11,-849.99 1193,-857 1133.86,-924.87 1220.24,-984.69 1168,-1058 1157.94,-1072.12 1143.13,-1082.72 1127.63,-1090.62"/>
<polygon fill="green" stroke="green" stroke-width="2" points="1125.99,-1087.52 1118.44,-1094.96 1128.98,-1093.85 1125.99,-1087.52"/>
</g>
<!-- node6&#45;&gt;node8 -->
<g id="edge25" class="edge">
<title>node6&#45;&gt;node8</title>
<path fill="none" stroke="black" d="M1198.23,-804.55C1103.29,-792.89 973.38,-776.93 877.15,-765.11"/>
<polygon fill="black" stroke="black" points="877.42,-761.62 867.06,-763.87 876.56,-768.56 877.42,-761.62"/>
</g>
<!-- node6&#45;&gt;node20 -->
<g id="edge59" class="edge">
<title>node6&#45;&gt;node20</title>
<path fill="none" stroke="black" d="M1423.12,-802.97C1474.65,-791.2 1527,-773.27 1527,-749 1527,-749 1527,-749 1527,-492 1527,-399.45 1643.96,-363.34 1585,-292 1529.36,-224.68 1454.97,-315.52 1392,-255 1382.2,-245.58 1366.43,-162.88 1358.65,-119.04"/>
<polygon fill="black" stroke="black" points="1362.07,-118.29 1356.9,-109.05 1355.18,-119.5 1362.07,-118.29"/>
<text text-anchor="middle" x="1368.36" y="-121.74" font-family="Times,serif" font-size="14.00">*2</text>
</g>
<!-- node7&#45;&gt;node1 -->
<g id="edge20" class="edge">
<title>node7&#45;&gt;node1</title>
<path fill="none" stroke="green" stroke-width="2" d="M1423.63,-399.04C1521.71,-418.58 1641,-463.27 1641,-565 1641,-785 1641,-785 1641,-785 1641,-811.26 1638.58,-824.02 1617,-839 1552.02,-884.1 1320.85,-822.06 1263,-876 1199.26,-935.44 1242.83,-988.68 1190,-1058 1178.98,-1072.46 1163.43,-1083.06 1146.85,-1090.84"/>
<polygon fill="green" stroke="green" stroke-width="2" points="1145.34,-1087.68 1137.56,-1094.87 1148.12,-1094.1 1145.34,-1087.68"/>
</g>
<!-- node7&#45;&gt;node10 -->
<g id="edge31" class="edge">
<title>node7&#45;&gt;node10</title>
<path fill="none" stroke="black" d="M1306.2,-364.81C1310.68,-356.44 1316.16,-346.2 1321.14,-336.9"/>
<polygon fill="black" stroke="black" points="1324.25,-338.5 1325.89,-328.03 1318.08,-335.19 1324.25,-338.5"/>
</g>
<!-- node7&#45;&gt;node20 -->
<g id="edge65" class="edge">
<title>node7&#45;&gt;node20</title>
<path fill="none" stroke="black" d="M1179.47,-366.25C1122.4,-355.18 1066,-337.54 1066,-311 1066,-311 1066,-311 1066,-163 1066,-137.79 1108.12,-121.48 1160.15,-110.95"/>
<polygon fill="black" stroke="black" points="1160.82,-114.38 1169.97,-109.05 1159.49,-107.51 1160.82,-114.38"/>
<text text-anchor="middle" x="1153.78" y="-117.09" font-family="Times,serif" font-size="14.00">*8</text>
</g>
<!-- node11&#45;&gt;node1 -->
<g id="edge32" class="edge">
<title>node11&#45;&gt;node1</title>
<path fill="none" stroke="green" stroke-width="2" d="M1037.38,-474.21C1037.73,-522.98 1033.85,-665.05 981,-766 933.19,-857.32 817,-826.92 817,-930 817,-1041 817,-1041 817,-1041 817,-1072.53 893.87,-1091.09 960.78,-1101.28"/>
<polygon fill="green" stroke="green" stroke-width="2" points="960.59,-1104.79 970.99,-1102.78 961.61,-1097.86 960.59,-1104.79"/>
</g>
<!-- node11&#45;&gt;node7 -->
<g id="edge22" class="edge">
<title>node11&#45;&gt;node7</title>
<path fill="none" stroke="black" d="M1099.28,-437.99C1136.95,-427.71 1185.14,-414.55 1224.52,-403.79"/>
<polygon fill="black" stroke="black" points="1225.61,-407.12 1234.33,-401.11 1223.76,-400.37 1225.61,-407.12"/>
</g>
<!-- node11&#45;&gt;node20 -->
<g id="edge64" class="edge">
<title>node11&#45;&gt;node20</title>
<path fill="none" stroke="black" d="M1033.6,-437.86C1031.05,-423.53 1028,-402.51 1028,-384 1028,-384 1028,-384 1028,-163 1028,-137.82 1065.61,-121.55 1115.28,-111.05"/>
<polygon fill="black" stroke="black" points="1116.25,-114.42 1125.37,-109.02 1114.88,-107.56 1116.25,-114.42"/>
<text text-anchor="middle" x="1109.26" y="-117.18" font-family="Times,serif" font-size="14.00">*7</text>
</g>
<!-- node8&#45;&gt;node1 -->
<g id="edge23" class="edge">
<title>node8&#45;&gt;node1</title>
<path fill="none" stroke="green" stroke-width="2" d="M640.21,-765.09C585.49,-776.5 530,-794.39 530,-820 530,-1041 530,-1041 530,-1041 530,-1083.95 807.93,-1101.95 960.5,-1108.6"/>
<polygon fill="green" stroke="green" stroke-width="2" points="960.67,-1112.11 970.81,-1109.04 960.97,-1105.11 960.67,-1112.11"/>
</g>
<!-- node8&#45;&gt;node9 -->
<g id="edge28" class="edge">
<title>node8&#45;&gt;node9</title>
<path fill="none" stroke="black" d="M635.43,-731.33C554.99,-719.93 446.21,-704.51 363.89,-692.85"/>
<polygon fill="black" stroke="black" points="364.38,-689.38 353.99,-691.45 363.4,-696.31 364.38,-689.38"/>
</g>
<!-- node8&#45;&gt;node20 -->
<g id="edge60" class="edge">
<title>node8&#45;&gt;node20</title>
<path fill="none" stroke="black" d="M761.86,-729.75C772.66,-716.18 785,-696.25 785,-676 785,-676 785,-676 785,-163 785,-137.09 879.1,-120.51 990.77,-109.96"/>
<polygon fill="black" stroke="black" points="991.29,-113.43 1000.93,-109.02 990.65,-106.46 991.29,-113.43"/>
<text text-anchor="middle" x="983.65" y="-115.41" font-family="Times,serif" font-size="14.00">*3</text>
</g>
<!-- node9&#45;&gt;node1 -->
<g id="edge26" class="edge">
<title>node9&#45;&gt;node1</title>
<path fill="none" stroke="green" stroke-width="2" d="M274.91,-693.09C292.37,-705.5 311,-724.11 311,-747 311,-1041 311,-1041 311,-1041 311,-1105.54 758.56,-1112.7 960.82,-1112.65"/>
<polygon fill="green" stroke="green" stroke-width="2" points="960.85,-1116.15 970.85,-1112.64 960.84,-1109.15 960.85,-1116.15"/>
</g>
<!-- node9&#45;&gt;node13 -->
<g id="edge40" class="edge">
<title>node9&#45;&gt;node13</title>
<path fill="none" stroke="black" d="M303.68,-656.99C339.03,-646.75 384.21,-633.66 421.23,-622.93"/>
<polygon fill="black" stroke="black" points="422.32,-626.26 430.95,-620.11 420.37,-619.54 422.32,-626.26"/>
</g>
<!-- node9&#45;&gt;node20 -->
<g id="edge61" class="edge">
<title>node9&#45;&gt;node20</title>
<path fill="none" stroke="black" d="M245,-656.78C245,-642.41 245,-621.37 245,-603 245,-603 245,-603 245,-163 245,-106.04 143.27,-149.22 435,-127 579.39,-116 736.83,-108.4 879.94,-103.18"/>
<polygon fill="black" stroke="black" points="880.35,-106.67 890.22,-102.81 880.1,-99.67 880.35,-106.67"/>
<text text-anchor="middle" x="872.41" y="-108.21" font-family="Times,serif" font-size="14.00">*4</text>
</g>
<!-- node10&#45;&gt;node1 -->
<g id="edge29" class="edge">
<title>node10&#45;&gt;node1</title>
<path fill="none" stroke="green" stroke-width="2" d="M1522.89,-321.46C1634.72,-339.03 1755,-383.22 1755,-492 1755,-858 1755,-858 1755,-858 1755,-883.44 1754.04,-894.06 1736,-912 1700.32,-947.48 1676.23,-931.65 1629,-949 1473.92,-1005.97 1441.5,-1042.15 1280,-1077 1239.47,-1085.75 1194.35,-1093.26 1155.42,-1099.06"/>
<polygon fill="green" stroke="green" stroke-width="2" points="1154.52,-1095.65 1145.14,-1100.57 1155.54,-1102.58 1154.52,-1095.65"/>
</g>
<!-- node10&#45;&gt;node14 -->
<g id="edge43" class="edge">
<title>node10&#45;&gt;node14</title>
<path fill="none" stroke="black" d="M1405.18,-291.99C1448.07,-281.6 1503.07,-268.27 1547.69,-257.46"/>
<polygon fill="black" stroke="black" points="1548.74,-260.81 1557.63,-255.05 1547.09,-254.01 1548.74,-260.81"/>
</g>
<!-- node10&#45;&gt;node20 -->
<g id="edge66" class="edge">
<title>node10&#45;&gt;node20</title>
<path fill="none" stroke="black" d="M1336.49,-291.97C1339.77,-254.51 1347.64,-164.68 1351.61,-119.26"/>
<polygon fill="black" stroke="black" points="1355.1,-119.52 1352.49,-109.25 1348.13,-118.91 1355.1,-119.52"/>
<text text-anchor="middle" x="1359.33" y="-124.34" font-family="Times,serif" font-size="14.00">*9</text>
</g>
<!-- node12&#45;&gt;node1 -->
<g id="edge35" class="edge">
<title>node12&#45;&gt;node1</title>
<path fill="none" stroke="green" stroke-width="2" d="M334.78,-538.42C183.03,-547.61 0,-565.96 0,-601 0,-1041 0,-1041 0,-1041 0,-1088.89 699.08,-1105.84 960.72,-1110.5"/>
<polygon fill="green" stroke="green" stroke-width="2" points="960.91,-1114.01 970.97,-1110.68 961.03,-1107.01 960.91,-1114.01"/>
</g>
<!-- node12&#45;&gt;node11 -->
<g id="edge34" class="edge">
<title>node12&#45;&gt;node11</title>
<path fill="none" stroke="black" d="M644.39,-512.42C724.84,-501.06 833.77,-485.69 916.48,-474.01"/>
<polygon fill="black" stroke="black" points="917.03,-477.47 926.44,-472.61 916.05,-470.54 917.03,-477.47"/>
</g>
<!-- node12&#45;&gt;node20 -->
<g id="edge63" class="edge">
<title>node12&#45;&gt;node20</title>
<path fill="none" stroke="black" d="M593.51,-510.99C617.67,-500.12 640,-483.03 640,-457 640,-457 640,-457 640,-163 640,-131.98 748.06,-114.36 880.11,-104.39"/>
<polygon fill="black" stroke="black" points="880.76,-107.85 890.47,-103.63 880.24,-100.87 880.76,-107.85"/>
<text text-anchor="middle" x="873.02" y="-109.69" font-family="Times,serif" font-size="14.00">*6</text>
</g>
<!-- node13&#45;&gt;node1 -->
<g id="edge38" class="edge">
<title>node13&#45;&gt;node1</title>
<path fill="none" stroke="green" stroke-width="2" d="M488.13,-620.08C485.71,-638.55 480.61,-668.64 471,-693 453.65,-736.96 416,-736.74 416,-784 416,-1041 416,-1041 416,-1041 416,-1095.11 780.91,-1107.99 960.5,-1111.05"/>
<polygon fill="green" stroke="green" stroke-width="2" points="960.69,-1114.55 970.75,-1111.21 960.81,-1107.55 960.69,-1114.55"/>
</g>
<!-- node13&#45;&gt;node12 -->
<g id="edge37" class="edge">
<title>node13&#45;&gt;node12</title>
<path fill="none" stroke="black" d="M500.65,-583.81C505.89,-575.35 512.32,-564.98 518.13,-555.61"/>
<polygon fill="black" stroke="black" points="521.15,-557.37 523.45,-547.03 515.2,-553.69 521.15,-557.37"/>
</g>
<!-- node13&#45;&gt;node20 -->
<g id="edge62" class="edge">
<title>node13&#45;&gt;node20</title>
<path fill="none" stroke="black" d="M392.26,-585.01C338.66,-573.37 283,-555.22 283,-530 283,-530 283,-530 283,-163 283,-130.89 593.61,-112.77 880.29,-102.89"/>
<polygon fill="black" stroke="black" points="880.6,-106.38 890.47,-102.54 880.36,-99.38 880.6,-106.38"/>
<text text-anchor="middle" x="872.65" y="-107.91" font-family="Times,serif" font-size="14.00">*5</text>
</g>
<!-- node14&#45;&gt;node1 -->
<g id="edge41" class="edge">
<title>node14&#45;&gt;node1</title>
<path fill="none" stroke="green" stroke-width="2" d="M1682.6,-255.07C1756.8,-281.37 1887.39,-339.39 1950,-438 2050.5,-596.28 1999,-669.51 1999,-857 1999,-1041 1999,-1041 1999,-1041 1999,-1082.97 1395.99,-1103.24 1155.4,-1109.66"/>
<polygon fill="green" stroke="green" stroke-width="2" points="1155.16,-1106.17 1145.26,-1109.93 1155.35,-1113.16 1155.16,-1106.17"/>
</g>
<!-- node14&#45;&gt;node19 -->
<g id="edge54" class="edge">
<title>node14&#45;&gt;node19</title>
<path fill="none" stroke="black" d="M1708.72,-218.99C1758.57,-208.49 1822.64,-194.99 1874.25,-184.12"/>
<polygon fill="black" stroke="black" points="1875,-187.54 1884.06,-182.05 1873.56,-180.69 1875,-187.54"/>
</g>
<!-- node14&#45;&gt;node20 -->
<g id="edge67" class="edge">
<title>node14&#45;&gt;node20</title>
<path fill="none" stroke="black" d="M1595.49,-218.92C1545.64,-192.72 1450.35,-142.64 1395.55,-113.84"/>
<polygon fill="black" stroke="black" points="1396.95,-110.62 1386.47,-109.06 1393.69,-116.81 1396.95,-110.62"/>
<text text-anchor="middle" x="1406.44" y="-106.31" font-family="Times,serif" font-size="14.00">*10</text>
</g>
<!-- node15&#45;&gt;node0 -->
<g id="edge44" class="edge">
<title>node15&#45;&gt;node0</title>
<path fill="none" stroke="green" stroke-width="2" d="M1634.96,-1204.11C1615.37,-1213.94 1589.42,-1226.36 1566.72,-1236.8"/>
<polygon fill="green" stroke="green" stroke-width="2" points="1565.19,-1233.65 1557.55,-1240.99 1568.1,-1240.02 1565.19,-1233.65"/>
</g>
<!-- node18&#45;&gt;node0 -->
<g id="edge50" class="edge">
<title>node18&#45;&gt;node0</title>
<path fill="none" stroke="green" stroke-width="2" d="M1915.34,-1200.96C1830.69,-1210.79 1715.35,-1225 1614,-1241 1612.49,-1241.24 1610.98,-1241.48 1609.45,-1241.73"/>
<polygon fill="green" stroke="green" stroke-width="2" points="1608.5,-1238.34 1599.22,-1243.45 1609.66,-1245.24 1608.5,-1238.34"/>
</g>
<!-- node18&#45;&gt;node19 -->
<g id="edge53" class="edge">
<title>node18&#45;&gt;node19</title>
<path fill="none" stroke="black" d="M2037,-1167.78C2037,-1153.41 2037,-1132.37 2037,-1114 2037,-1114 2037,-1114 2037,-236 2037,-216.12 2022.91,-199.93 2007.19,-188.06"/>
<polygon fill="black" stroke="black" points="2009.09,-185.12 1998.89,-182.25 2005.08,-190.85 2009.09,-185.12"/>
<text text-anchor="middle" x="2018.59" y="-182.02" font-family="Times,serif" font-size="14.00">*0</text>
</g>
<!-- node19&#45;&gt;node0 -->
<g id="edge52" class="edge">
<title>node19&#45;&gt;node0</title>
<path fill="none" stroke="green" stroke-width="2" d="M2061.19,-168.86C2151.56,-175.18 2273,-191.89 2273,-236 2273,-1187 2273,-1187 2273,-1187 2273,-1258.85 1719.94,-1233.83 1609.58,-1240.84"/>
<polygon fill="green" stroke="green" stroke-width="2" points="1608.98,-1237.38 1599.33,-1241.74 1609.59,-1244.35 1608.98,-1237.38"/>
</g>
<!-- node19&#45;&gt;node20 -->
<g id="edge57" class="edge">
<title>node19&#45;&gt;node20</title>
<path fill="none" stroke="black" d="M1904.78,-145.93C1883.33,-138.88 1859.28,-131.36 1837,-127 1802.39,-120.24 1766.21,-114.73 1729.89,-110.27"/>
<polygon fill="black" stroke="black" points="1729.99,-106.75 1719.64,-109.03 1729.15,-113.7 1729.99,-106.75"/>
<text text-anchor="middle" x="1738.65" y="-99.11" font-family="Times,serif" font-size="14.00">*0</text>
</g>
<!-- node19&#45;&gt;node20 -->
<g id="edge68" class="edge">
<title>node19&#45;&gt;node20</title>
<path fill="none" stroke="black" d="M1921.24,-145.93C1901.33,-138.88 1877.28,-131.36 1855,-127 1820.39,-120.24 1784.21,-114.73 1747.82,-110.27"/>
<polygon fill="black" stroke="black" points="1747.89,-106.75 1737.55,-109.03 1747.06,-113.7 1747.89,-106.75"/>
</g>
<!-- node19&#45;&gt;node20 -->
<g id="edge69" class="edge">
<title>node19&#45;&gt;node20</title>
<path fill="none" stroke="red" d="M1937.69,-145.93C1919.33,-138.88 1895.28,-131.36 1873,-127 1838.39,-120.24 1802.21,-114.73 1765.75,-110.27"/>
<polygon fill="red" stroke="red" points="1765.8,-106.75 1755.46,-109.03 1764.97,-113.7 1765.8,-106.75"/>
</g>
<!-- node20&#45;&gt;node0 -->
<g id="edge56" class="edge">
<title>node20&#45;&gt;node0</title>
<path fill="none" stroke="green" stroke-width="2" d="M1817.78,-106.83C2061.84,-117.87 2311,-135.8 2311,-163 2311,-1187 2311,-1187 2311,-1187 2311,-1263.06 1724.2,-1234.51 1609.43,-1240.88"/>
<polygon fill="green" stroke="green" stroke-width="2" points="1609.02,-1237.4 1599.32,-1241.67 1609.56,-1244.38 1609.02,-1237.4"/>
</g>
<!-- node21 -->
<g id="node22" class="node">
<title>node21</title>
<polygon fill="lightgrey" stroke="black" points="1479.5,-36 1228.5,-36 1228.5,0 1479.5,0 1479.5,-36"/>
<text text-anchor="middle" x="1354" y="-14.3" font-family="Times,serif" font-size="14.00">#21 ReturnValue : int Order : 21</text>
</g>
<!-- node20&#45;&gt;node21 -->
<g id="edge71" class="edge">
<title>node20&#45;&gt;node21</title>
<path fill="none" stroke="black" d="M1336.37,-72.81C1333.85,-64.79 1333.15,-55.05 1334.27,-46.07"/>
<polygon fill="black" stroke="black" points="1337.74,-46.54 1336.42,-36.03 1330.9,-45.07 1337.74,-46.54"/>
<text text-anchor="middle" x="1340.89" y="-51.82" font-family="Times,serif" font-size="14.00">*0</text>
</g>
<!-- node20&#45;&gt;node21 -->
<g id="edge72" class="edge">
<title>node20&#45;&gt;node21</title>
<path fill="none" stroke="red" d="M1359.88,-72.81C1360.72,-64.79 1360.95,-55.05 1360.58,-46.07"/>
<polygon fill="red" stroke="red" points="1364.06,-45.75 1359.86,-36.03 1357.08,-46.25 1364.06,-45.75"/>
</g>
<!-- node20&#45;&gt;node21 -->
<g id="edge73" class="edge">
<title>node20&#45;&gt;node21</title>
<path fill="none" stroke="black" d="M1371.63,-72.81C1374.15,-64.79 1374.85,-55.05 1373.73,-46.07"/>
<polygon fill="black" stroke="black" points="1377.1,-45.07 1371.58,-36.03 1370.26,-46.54 1377.1,-45.07"/>
</g>
<!-- node21&#45;&gt;node20 -->
<g id="edge70" class="edge">
<title>node21&#45;&gt;node20</title>
<path fill="none" stroke="green" stroke-width="2" d="M1348.14,-36.03C1347.29,-44.03 1347.05,-53.77 1347.41,-62.75"/>
<polygon fill="green" stroke="green" stroke-width="2" points="1343.93,-63.08 1348.12,-72.81 1350.91,-62.59 1343.93,-63.08"/>
</g>
<!-- c0 -->
<!-- c1 -->
<!-- c0&#45;&gt;c1 -->
<g id="edge74" class="edge">
<title>c0&#45;&gt;c1</title>
<path fill="none" stroke="red" d="M2330.89,-1259C2342.11,-1259 2400.24,-1259 2425.86,-1259"/>
<polygon fill="red" stroke="red" points="2426.06,-1262.5 2436.06,-1259 2426.06,-1255.5 2426.06,-1262.5"/>
<text text-anchor="middle" x="2383.5" y="-1265.8" font-family="Times,serif" font-size="14.00">Control flow</text>
</g>
<!-- c2 -->
<!-- c3 -->
<!-- c2&#45;&gt;c3 -->
<g id="edge75" class="edge">
<title>c2&#45;&gt;c3</title>
<path fill="none" stroke="red" stroke-dasharray="5,2" d="M2124.08,-1259C2141.05,-1259 2257.21,-1259 2295.08,-1259"/>
<polygon fill="red" stroke="red" points="2295.17,-1262.5 2305.17,-1259 2295.17,-1255.5 2295.17,-1262.5"/>
<text text-anchor="middle" x="2214.5" y="-1265.8" font-family="Times,serif" font-size="14.00">Control flow back edge</text>
</g>
<!-- d0 -->
<!-- d1 -->
<!-- d0&#45;&gt;d1 -->
<g id="edge76" class="edge">
<title>d0&#45;&gt;d1</title>
<path fill="none" stroke="black" d="M2012.86,-1259C2022.41,-1259 2066.31,-1259 2087.92,-1259"/>
<polygon fill="black" stroke="black" points="2088.15,-1262.5 2098.15,-1259 2088.15,-1255.5 2088.15,-1262.5"/>
<text text-anchor="middle" x="2055.5" y="-1265.8" font-family="Times,serif" font-size="14.00">Data flow</text>
</g>
<!-- d2 -->
<!-- d3 -->
<!-- d2&#45;&gt;d3 -->
<g id="edge77" class="edge">
<title>d2&#45;&gt;d3</title>
<path fill="none" stroke="black" stroke-dasharray="1,5" d="M1886.81,-1259C1897.46,-1259 1952.46,-1259 1977.08,-1259"/>
<polygon fill="black" stroke="black" points="1977.15,-1262.5 1987.15,-1259 1977.15,-1255.5 1977.15,-1262.5"/>
<text text-anchor="middle" x="1937" y="-1265.8" font-family="Times,serif" font-size="14.00">Declaration</text>
</g>
<!-- d4 -->
<!-- d5 -->
<!-- d4&#45;&gt;d5 -->
<g id="edge78" class="edge">
<title>d4&#45;&gt;d5</title>
<path fill="none" stroke="blue" d="M1744.1,-1259C1756.72,-1259 1822.88,-1259 1850.68,-1259"/>
<polygon fill="blue" stroke="blue" points="1850.84,-1262.5 1860.84,-1259 1850.84,-1255.5 1850.84,-1262.5"/>
<text text-anchor="middle" x="1802.5" y="-1265.8" font-family="Times,serif" font-size="14.00">PHI Data flow</text>
</g>
<!-- d6 -->
<!-- d7 -->
<!-- d6&#45;&gt;d7 -->
<g id="edge79" class="edge">
<title>d6&#45;&gt;d7</title>
<path fill="none" stroke="green" d="M1621.11,-1259C1632.15,-1259 1683.67,-1259 1707.66,-1259"/>
<polygon fill="green" stroke="green" points="1707.9,-1262.5 1717.9,-1259 1707.9,-1255.5 1707.9,-1262.5"/>
<text text-anchor="middle" x="1669.5" y="-1265.8" font-family="Times,serif" font-size="14.00">Dominance</text>
</g>
</g>
</svg>
