<?xml version="1.0" encoding="UTF-8" standalone="no"?>
<!DOCTYPE svg PUBLIC "-//W3C//DTD SVG 1.1//EN"
 "http://www.w3.org/Graphics/SVG/1.1/DTD/svg11.dtd">
<!-- Generated by graphviz version 2.43.0 (0)
 -->
<!-- Title: debugoutput Pages: 1 -->
<svg width="2683pt" height="1308pt"
 viewBox="0.00 0.00 2682.88 1307.80" xmlns="http://www.w3.org/2000/svg" xmlns:xlink="http://www.w3.org/1999/xlink">
<g id="graph0" class="graph" transform="scale(1 1) rotate(0) translate(4 1303.8)">
<title>debugoutput</title>
<polygon fill="white" stroke="transparent" points="-4,4 -4,-1303.8 2678.88,-1303.8 2678.88,4 -4,4"/>
<g id="clust1" class="cluster">
<title>cluster_000</title>
<polygon fill="none" stroke="black" points="1827.88,-1249.2 1827.88,-1291.8 2666.88,-1291.8 2666.88,-1249.2 1827.88,-1249.2"/>
<text text-anchor="middle" x="2247.38" y="-1276.6" font-family="Times,serif" font-size="14.00">Legend</text>
</g>
<!-- node0 -->
<g id="node1" class="node">
<title>node0</title>
<polygon fill="lightgrey" stroke="black" points="1817.88,-1277 1651.88,-1277 1651.88,-1241 1817.88,-1241 1817.88,-1277"/>
<text text-anchor="middle" x="1734.88" y="-1255.3" font-family="Times,serif" font-size="14.00">#0 Method Order : 0</text>
</g>
<!-- node1 -->
<g id="node2" class="node">
<title>node1</title>
<polygon fill="lightgrey" stroke="black" points="1120.88,-1131 946.88,-1131 946.88,-1095 1120.88,-1095 1120.88,-1131"/>
<text text-anchor="middle" x="1033.88" y="-1109.3" font-family="Times,serif" font-size="14.00">#1 ClassInit Order : 5</text>
</g>
<!-- node0&#45;&gt;node1 -->
<g id="edge4" class="edge">
<title>node0&#45;&gt;node1</title>
<path fill="none" stroke="black" d="M1651.76,-1257.97C1470.26,-1257.07 1051.59,-1250.05 1008.88,-1204 993.07,-1186.95 1000.6,-1159.92 1011.63,-1139.93"/>
<polygon fill="black" stroke="black" points="1014.67,-1141.67 1016.87,-1131.31 1008.68,-1138.04 1014.67,-1141.67"/>
</g>
<!-- node21 -->
<g id="node3" class="node">
<title>node21</title>
<polygon fill="lightgreen" stroke="black" points="1523.05,-1178.54 1523.05,-1193.46 1377.68,-1204 1172.09,-1204 1026.72,-1193.46 1026.72,-1178.54 1172.09,-1168 1377.68,-1168 1523.05,-1178.54"/>
<text text-anchor="middle" x="1274.88" y="-1182.3" font-family="Times,serif" font-size="14.00">#21 Class MethodInvokeTest$Source Order : 1</text>
</g>
<!-- node0&#45;&gt;node21 -->
<g id="edge73" class="edge">
<title>node0&#45;&gt;node21</title>
<path fill="none" stroke="black" stroke-dasharray="1,5" d="M1651.63,-1245.96C1578.25,-1234.9 1470.71,-1218.34 1389.27,-1205.58"/>
<polygon fill="black" stroke="black" points="1389.39,-1202.06 1378.97,-1203.97 1388.3,-1208.98 1389.39,-1202.06"/>
</g>
<!-- node16 -->
<g id="node4" class="node">
<title>node16</title>
<polygon fill="lightgrey" stroke="black" points="1738.38,-1204 1541.38,-1204 1541.38,-1168 1738.38,-1168 1738.38,-1204"/>
<text text-anchor="middle" x="1639.88" y="-1182.3" font-family="Times,serif" font-size="14.00">#16 LabelNode Order : 3</text>
</g>
<!-- node0&#45;&gt;node16 -->
<g id="edge47" class="edge">
<title>node0&#45;&gt;node16</title>
<path fill="none" stroke="red" d="M1706.27,-1240.99C1693.05,-1231.84 1677.58,-1220.41 1664.84,-1210.43"/>
<polygon fill="red" stroke="red" points="1666.91,-1207.61 1656.91,-1204.11 1662.55,-1213.08 1666.91,-1207.61"/>
</g>
<!-- node15 -->
<g id="node18" class="node">
<title>node15</title>
<polygon fill="lightgrey" stroke="black" points="2560.38,-1204 2267.38,-1204 2267.38,-1168 2560.38,-1168 2560.38,-1204"/>
<text text-anchor="middle" x="2413.88" y="-1182.3" font-family="Times,serif" font-size="14.00">#15 this : MethodInvokeTest Order : 4</text>
</g>
<!-- node0&#45;&gt;node15 -->
<g id="edge45" class="edge">
<title>node0&#45;&gt;node15</title>
<path fill="none" stroke="black" d="M1815.16,-1240.97C2004.5,-1219.07 2054.78,-1247.91 2243.88,-1223 2272.71,-1219.2 2304,-1212.75 2331.82,-1206.36"/>
<polygon fill="black" stroke="black" points="2332.96,-1209.68 2341.9,-1204.01 2331.37,-1202.87 2332.96,-1209.68"/>
<text text-anchor="middle" x="2326.17" y="-1212.65" font-family="Times,serif" font-size="14.00">*0</text>
</g>
<!-- node17 -->
<g id="node19" class="node">
<title>node17</title>
<polygon fill="lightgreen" stroke="black" points="2210.44,-1178.54 2210.44,-1193.46 2088.86,-1204 1916.91,-1204 1795.32,-1193.46 1795.32,-1178.54 1916.91,-1168 2088.86,-1168 2210.44,-1178.54"/>
<text text-anchor="middle" x="2002.88" y="-1182.3" font-family="Times,serif" font-size="14.00">#17 Class MethodInvokeTest Order : 2</text>
</g>
<!-- node0&#45;&gt;node17 -->
<g id="edge49" class="edge">
<title>node0&#45;&gt;node17</title>
<path fill="none" stroke="black" stroke-dasharray="1,5" d="M1793.22,-1240.99C1831.12,-1230.66 1880.97,-1217.43 1922.58,-1206.66"/>
<polygon fill="black" stroke="black" points="1923.61,-1210 1932.42,-1204.11 1921.86,-1203.23 1923.61,-1210"/>
</g>
<!-- node1&#45;&gt;node0 -->
<g id="edge1" class="edge">
<title>node1&#45;&gt;node0</title>
<path fill="none" stroke="green" stroke-width="2" d="M1029.69,-1131.31C1021.46,-1151.41 1008.64,-1184.34 1026.88,-1204 1068.07,-1248.41 1458.91,-1256.52 1641.64,-1257.84"/>
<polygon fill="green" stroke="green" stroke-width="2" points="1641.76,-1261.35 1651.78,-1257.91 1641.81,-1254.35 1641.76,-1261.35"/>
</g>
<!-- node2 -->
<g id="node5" class="node">
<title>node2</title>
<polygon fill="lightgrey" stroke="black" points="1624.38,-985 1305.38,-985 1305.38,-949 1624.38,-949 1624.38,-985"/>
<text text-anchor="middle" x="1464.88" y="-963.3" font-family="Times,serif" font-size="14.00">#2 Invoke special &lt;init&gt; : ()void Order : 7</text>
</g>
<!-- node1&#45;&gt;node2 -->
<g id="edge7" class="edge">
<title>node1&#45;&gt;node2</title>
<path fill="none" stroke="red" d="M1120.97,-1110.96C1173.89,-1107.67 1241.92,-1098.89 1298.88,-1077 1350.35,-1057.22 1401.14,-1017.2 1432.92,-991.55"/>
<polygon fill="red" stroke="red" points="1435.39,-994.05 1440.97,-985.04 1430.99,-988.6 1435.39,-994.05"/>
</g>
<!-- node4 -->
<g id="node6" class="node">
<title>node4</title>
<polygon fill="orange" stroke="black" points="1134.58,-1032.54 1134.58,-1047.46 1075.59,-1058 992.17,-1058 933.18,-1047.46 933.18,-1032.54 992.17,-1022 1075.59,-1022 1134.58,-1032.54"/>
<text text-anchor="middle" x="1033.88" y="-1036.3" font-family="Times,serif" font-size="14.00">#4 New Order : 6</text>
</g>
<!-- node1&#45;&gt;node4 -->
<g id="edge12" class="edge">
<title>node1&#45;&gt;node4</title>
<path fill="none" stroke="black" d="M1022.13,-1094.81C1020.45,-1086.79 1019.98,-1077.05 1020.73,-1068.07"/>
<polygon fill="black" stroke="black" points="1024.21,-1068.42 1022.16,-1058.03 1017.28,-1067.43 1024.21,-1068.42"/>
<text text-anchor="middle" x="1027.97" y="-1073.47" font-family="Times,serif" font-size="14.00">*0</text>
</g>
<!-- node1&#45;&gt;node4 -->
<g id="edge13" class="edge">
<title>node1&#45;&gt;node4</title>
<path fill="none" stroke="black" d="M1045.64,-1094.81C1047.32,-1086.79 1047.79,-1077.05 1047.04,-1068.07"/>
<polygon fill="black" stroke="black" points="1050.48,-1067.43 1045.61,-1058.03 1043.55,-1068.42 1050.48,-1067.43"/>
</g>
<!-- node21&#45;&gt;node0 -->
<g id="edge72" class="edge">
<title>node21&#45;&gt;node0</title>
<path fill="none" stroke="green" stroke-width="2" d="M1386.86,-1203.39C1464.91,-1215.23 1567.81,-1231.12 1641.46,-1242.71"/>
<polygon fill="green" stroke="green" stroke-width="2" points="1641.23,-1246.21 1651.65,-1244.31 1642.32,-1239.3 1641.23,-1246.21"/>
</g>
<!-- node21&#45;&gt;node1 -->
<g id="edge2" class="edge">
<title>node21&#45;&gt;node1</title>
<path fill="none" stroke="black" d="M1217.16,-1167.99C1182.54,-1157.79 1138.32,-1144.77 1102,-1134.07"/>
<polygon fill="black" stroke="black" points="1102.55,-1130.58 1091.97,-1131.11 1100.58,-1137.3 1102.55,-1130.58"/>
<text text-anchor="middle" x="1111.75" y="-1124.43" font-family="Times,serif" font-size="14.00">*0</text>
</g>
<!-- node16&#45;&gt;node0 -->
<g id="edge46" class="edge">
<title>node16&#45;&gt;node0</title>
<path fill="none" stroke="green" stroke-width="2" d="M1668.53,-1204.03C1681.72,-1213.16 1697.13,-1224.55 1709.85,-1234.51"/>
<polygon fill="green" stroke="green" stroke-width="2" points="1707.76,-1237.32 1717.77,-1240.81 1712.12,-1231.85 1707.76,-1237.32"/>
</g>
<!-- node16&#45;&gt;node1 -->
<g id="edge3" class="edge">
<title>node16&#45;&gt;node1</title>
<path fill="none" stroke="red" d="M1541.32,-1169.29C1538.14,-1168.84 1534.99,-1168.41 1531.88,-1168 1393.11,-1149.57 1231.96,-1132.96 1131.44,-1123.18"/>
<polygon fill="red" stroke="red" points="1131.59,-1119.68 1121.3,-1122.19 1130.91,-1126.64 1131.59,-1119.68"/>
</g>
<!-- node2&#45;&gt;node1 -->
<g id="edge5" class="edge">
<title>node2&#45;&gt;node1</title>
<path fill="none" stroke="green" stroke-width="2" d="M1452.61,-985.04C1428.21,-1009.89 1372.94,-1055.45 1316.88,-1077 1257.99,-1099.64 1187.27,-1108.25 1131.2,-1111.28"/>
<polygon fill="green" stroke="green" stroke-width="2" points="1130.73,-1107.79 1120.91,-1111.78 1131.07,-1114.79 1130.73,-1107.79"/>
</g>
<!-- node3 -->
<g id="node7" class="node">
<title>node3</title>
<polygon fill="lightgrey" stroke="black" points="1558.88,-912 1370.88,-912 1370.88,-876 1558.88,-876 1558.88,-912"/>
<text text-anchor="middle" x="1464.88" y="-890.3" font-family="Times,serif" font-size="14.00">#3 LabelNode Order : 8</text>
</g>
<!-- node2&#45;&gt;node3 -->
<g id="edge10" class="edge">
<title>node2&#45;&gt;node3</title>
<path fill="none" stroke="red" d="M1459.01,-948.81C1458.17,-940.79 1457.93,-931.05 1458.31,-922.07"/>
<polygon fill="red" stroke="red" points="1461.8,-922.25 1459.02,-912.03 1454.82,-921.75 1461.8,-922.25"/>
</g>
<!-- node8 -->
<g id="node13" class="node">
<title>node8</title>
<polygon fill="orange" stroke="black" points="944.98,-886.54 944.98,-901.46 821.32,-912 646.44,-912 522.79,-901.46 522.79,-886.54 646.44,-876 821.32,-876 944.98,-886.54"/>
<text text-anchor="middle" x="733.88" y="-890.3" font-family="Times,serif" font-size="14.00">#8 GetField : byte_field : byte Order : 9</text>
</g>
<!-- node2&#45;&gt;node8 -->
<g id="edge25" class="edge">
<title>node2&#45;&gt;node8</title>
<path fill="none" stroke="black" d="M1305.37,-950.51C1178.19,-938.15 1001.6,-921 878.51,-909.05"/>
<polygon fill="black" stroke="black" points="878.54,-905.53 868.25,-908.05 877.87,-912.5 878.54,-905.53"/>
</g>
<!-- node4&#45;&gt;node1 -->
<g id="edge11" class="edge">
<title>node4&#45;&gt;node1</title>
<path fill="none" stroke="green" stroke-width="2" d="M1033.88,-1058.03C1033.88,-1066.03 1033.88,-1075.77 1033.88,-1084.75"/>
<polygon fill="green" stroke="green" stroke-width="2" points="1030.38,-1084.81 1033.88,-1094.81 1037.38,-1084.81 1030.38,-1084.81"/>
</g>
<!-- node4&#45;&gt;node2 -->
<g id="edge6" class="edge">
<title>node4&#45;&gt;node2</title>
<path fill="none" stroke="black" d="M1102.73,-1026.79C1168.08,-1015.75 1267.57,-999.32 1345.77,-986.63"/>
<polygon fill="black" stroke="black" points="1346.37,-990.08 1355.68,-985.02 1345.25,-983.17 1346.37,-990.08"/>
<text text-anchor="middle" x="1339.14" y="-992.57" font-family="Times,serif" font-size="14.00">*0</text>
</g>
<!-- node4&#45;&gt;node2 -->
<g id="edge8" class="edge">
<title>node4&#45;&gt;node2</title>
<path fill="none" stroke="black" d="M1107.76,-1027.67C1176.33,-1016.67 1279.18,-999.78 1356.94,-986.78"/>
<polygon fill="black" stroke="black" points="1357.97,-990.15 1367.25,-985.05 1356.81,-983.25 1357.97,-990.15"/>
</g>
<!-- node5 -->
<g id="node8" class="node">
<title>node5</title>
<polygon fill="orange" stroke="black" points="695.37,-594.54 695.37,-609.46 577.93,-620 411.84,-620 294.39,-609.46 294.39,-594.54 411.84,-584 577.93,-584 695.37,-594.54"/>
<text text-anchor="middle" x="494.88" y="-598.3" font-family="Times,serif" font-size="14.00">#5 GetField : int_field : int Order : 13</text>
</g>
<!-- node4&#45;&gt;node5 -->
<g id="edge15" class="edge">
<title>node4&#45;&gt;node5</title>
<path fill="none" stroke="black" d="M1033.24,-1021.79C1030.31,-969.22 1013.95,-809.44 922.88,-730 846.18,-663.09 735.54,-631.4 645.97,-616.41"/>
<polygon fill="black" stroke="black" points="646.42,-612.94 635.98,-614.8 645.3,-619.85 646.42,-612.94"/>
<text text-anchor="middle" x="655.23" y="-605.65" font-family="Times,serif" font-size="14.00">*0</text>
</g>
<!-- node10 -->
<g id="node9" class="node">
<title>node10</title>
<polygon fill="orange" stroke="black" points="656.81,-667.54 656.81,-682.46 525.63,-693 340.13,-693 208.96,-682.46 208.96,-667.54 340.13,-657 525.63,-657 656.81,-667.54"/>
<text text-anchor="middle" x="432.88" y="-671.3" font-family="Times,serif" font-size="14.00">#10 GetField : char_field : char Order : 12</text>
</g>
<!-- node4&#45;&gt;node10 -->
<g id="edge30" class="edge">
<title>node4&#45;&gt;node10</title>
<path fill="none" stroke="black" d="M945.06,-1030.35C810.88,-1015.24 566.54,-979.06 513.88,-912 460.91,-844.53 597.47,-851.45 605.88,-839 614.84,-825.74 615.78,-815.57 605.88,-803 562.62,-748.02 501.89,-815.93 452.88,-766 436.73,-749.54 432.42,-723.09 431.75,-703.12"/>
<polygon fill="black" stroke="black" points="435.25,-703.05 431.69,-693.07 428.25,-703.09 435.25,-703.05"/>
<text text-anchor="middle" x="440.25" y="-707.45" font-family="Times,serif" font-size="14.00">*0</text>
</g>
<!-- node6 -->
<g id="node10" class="node">
<title>node6</title>
<polygon fill="orange" stroke="black" points="1401.57,-375.54 1401.57,-390.46 1260.58,-401 1061.19,-401 920.19,-390.46 920.19,-375.54 1061.19,-365 1260.58,-365 1401.57,-375.54"/>
<text text-anchor="middle" x="1160.88" y="-379.3" font-family="Times,serif" font-size="14.00">#6 GetField : double_field : double Order : 16</text>
</g>
<!-- node4&#45;&gt;node6 -->
<g id="edge18" class="edge">
<title>node4&#45;&gt;node6</title>
<path fill="none" stroke="black" d="M1057.26,-1021.87C1087.65,-997.42 1136.88,-949.4 1136.88,-895 1136.88,-895 1136.88,-895 1136.88,-638 1136.88,-599.75 1172.91,-606.44 1203.88,-584 1261.16,-542.5 1295.58,-540.78 1318.88,-474 1324.15,-458.89 1328.19,-451.02 1318.88,-438 1308.36,-423.28 1293.57,-412.52 1277.22,-404.68"/>
<polygon fill="black" stroke="black" points="1278.55,-401.44 1267.99,-400.61 1275.73,-407.85 1278.55,-401.44"/>
<text text-anchor="middle" x="1287.99" y="-396.49" font-family="Times,serif" font-size="14.00">*0</text>
</g>
<!-- node14 -->
<g id="node11" class="node">
<title>node14</title>
<polygon fill="orange" stroke="black" points="1309.81,-448.54 1309.81,-463.46 1178.63,-474 993.13,-474 861.96,-463.46 861.96,-448.54 993.13,-438 1178.63,-438 1309.81,-448.54"/>
<text text-anchor="middle" x="1085.88" y="-452.3" font-family="Times,serif" font-size="14.00">#14 GetField : float_field : float Order : 15</text>
</g>
<!-- node4&#45;&gt;node14 -->
<g id="edge42" class="edge">
<title>node4&#45;&gt;node14</title>
<path fill="none" stroke="black" d="M1048.38,-1021.7C1052.29,-1016.31 1056.18,-1010.15 1058.88,-1004 1062.35,-996.1 1061.36,-993.49 1062.88,-985 1078.84,-896.32 1064.14,-652.32 1122.88,-584 1141.08,-562.84 1226.31,-569.45 1242.88,-547 1267.23,-514.01 1225.95,-491.27 1179.63,-476.9"/>
<polygon fill="black" stroke="black" points="1180.59,-473.53 1170,-474.04 1178.6,-480.24 1180.59,-473.53"/>
<text text-anchor="middle" x="1189.78" y="-467.39" font-family="Times,serif" font-size="14.00">*0</text>
</g>
<!-- node7 -->
<g id="node12" class="node">
<title>node7</title>
<polygon fill="orange" stroke="black" points="1451.82,-302.54 1451.82,-317.46 1314.2,-328 1119.57,-328 981.95,-317.46 981.95,-302.54 1119.57,-292 1314.2,-292 1451.82,-302.54"/>
<text text-anchor="middle" x="1216.88" y="-306.3" font-family="Times,serif" font-size="14.00">#7 GetField : string_field : String Order : 17</text>
</g>
<!-- node4&#45;&gt;node7 -->
<g id="edge21" class="edge">
<title>node4&#45;&gt;node7</title>
<path fill="none" stroke="black" d="M1062.74,-1021.99C1072.35,-1016.3 1083.09,-1009.9 1092.88,-1004 1164.81,-960.63 1212.88,-941.99 1212.88,-858 1212.88,-858 1212.88,-858 1212.88,-711 1212.88,-652.45 1220.62,-635.81 1247.88,-584 1253.02,-574.23 1255.38,-572.04 1263.88,-565 1276.45,-554.59 1283.49,-557.61 1295.88,-547 1368.57,-484.78 1468.76,-441.19 1410.88,-365 1399.79,-350.4 1365.23,-338.7 1328.29,-329.97"/>
<polygon fill="black" stroke="black" points="1328.87,-326.52 1318.34,-327.71 1327.31,-333.34 1328.87,-326.52"/>
<text text-anchor="middle" x="1337.89" y="-319.8" font-family="Times,serif" font-size="14.00">*0</text>
</g>
<!-- node4&#45;&gt;node8 -->
<g id="edge24" class="edge">
<title>node4&#45;&gt;node8</title>
<path fill="none" stroke="black" d="M996.83,-1021.84C984.72,-1016.19 971.21,-1009.86 958.88,-1004 895.94,-974.07 823.43,-938.8 778.13,-916.67"/>
<polygon fill="black" stroke="black" points="779.4,-913.4 768.88,-912.15 776.33,-919.69 779.4,-913.4"/>
<text text-anchor="middle" x="788.88" y="-908.82" font-family="Times,serif" font-size="14.00">*0</text>
</g>
<!-- node9 -->
<g id="node14" class="node">
<title>node9</title>
<polygon fill="orange" stroke="black" points="913.53,-740.54 913.53,-755.46 781.35,-766 594.42,-766 462.24,-755.46 462.24,-740.54 594.42,-730 781.35,-730 913.53,-740.54"/>
<text text-anchor="middle" x="687.88" y="-744.3" font-family="Times,serif" font-size="14.00">#9 GetField : short_field : short Order : 11</text>
</g>
<!-- node4&#45;&gt;node9 -->
<g id="edge27" class="edge">
<title>node4&#45;&gt;node9</title>
<path fill="none" stroke="black" d="M1012.02,-1021.67C1006.5,-1016.46 1000.98,-1010.41 996.88,-1004 964.57,-953.43 993.67,-920.93 953.88,-876 905.04,-820.84 826.99,-787.55 768.04,-768.98"/>
<polygon fill="black" stroke="black" points="768.97,-765.61 758.38,-766.02 766.92,-772.3 768.97,-765.61"/>
<text text-anchor="middle" x="778.19" y="-759.56" font-family="Times,serif" font-size="14.00">*0</text>
</g>
<!-- node12 -->
<g id="node15" class="node">
<title>node12</title>
<polygon fill="orange" stroke="black" points="597.34,-813.54 597.34,-828.46 446.53,-839 233.24,-839 82.43,-828.46 82.43,-813.54 233.24,-803 446.53,-803 597.34,-813.54"/>
<text text-anchor="middle" x="339.88" y="-817.3" font-family="Times,serif" font-size="14.00">#12 GetField : boolean_field : boolean Order : 10</text>
</g>
<!-- node4&#45;&gt;node12 -->
<g id="edge36" class="edge">
<title>node4&#45;&gt;node12</title>
<path fill="none" stroke="black" d="M933.01,-1035.73C797.39,-1030.76 569.12,-1020.13 533.88,-1004 450.16,-965.67 457.75,-916.98 387.88,-857 383.27,-853.04 378.24,-849.05 373.22,-845.25"/>
<polygon fill="black" stroke="black" points="375,-842.21 364.88,-839.08 370.84,-847.84 375,-842.21"/>
<text text-anchor="middle" x="384.48" y="-839.36" font-family="Times,serif" font-size="14.00">*0</text>
</g>
<!-- node11 -->
<g id="node16" class="node">
<title>node11</title>
<polygon fill="orange" stroke="black" points="1233.9,-521.54 1233.9,-536.46 1103.26,-547 918.51,-547 787.87,-536.46 787.87,-521.54 918.51,-511 1103.26,-511 1233.9,-521.54"/>
<text text-anchor="middle" x="1010.88" y="-525.3" font-family="Times,serif" font-size="14.00">#11 GetField : long_field : long Order : 14</text>
</g>
<!-- node4&#45;&gt;node11 -->
<g id="edge33" class="edge">
<title>node4&#45;&gt;node11</title>
<path fill="none" stroke="black" d="M1039.55,-1022C1043.8,-1007.74 1048.88,-986.77 1048.88,-968 1048.88,-968 1048.88,-968 1048.88,-601 1048.88,-584.53 1040.84,-568.18 1032.15,-555.33"/>
<polygon fill="black" stroke="black" points="1034.83,-553.07 1026.12,-547.04 1029.17,-557.18 1034.83,-553.07"/>
<text text-anchor="middle" x="1043.61" y="-553.03" font-family="Times,serif" font-size="14.00">*0</text>
</g>
<!-- node13 -->
<g id="node17" class="node">
<title>node13</title>
<polygon fill="orange" stroke="black" points="1556.34,-229.54 1556.34,-244.46 1423.1,-255 1234.67,-255 1101.43,-244.46 1101.43,-229.54 1234.67,-219 1423.1,-219 1556.34,-229.54"/>
<text text-anchor="middle" x="1328.88" y="-233.3" font-family="Times,serif" font-size="14.00">#13 GetField : array_field : int[] Order : 18</text>
</g>
<!-- node4&#45;&gt;node13 -->
<g id="edge39" class="edge">
<title>node4&#45;&gt;node13</title>
<path fill="none" stroke="black" d="M1087.62,-1024.11C1112.98,-1015.38 1142.69,-1002.56 1165.88,-985 1198.7,-960.15 1205.18,-949.16 1222.88,-912 1276.61,-799.19 1231.12,-750.31 1285.88,-638 1327.02,-553.65 1370.47,-554.39 1418.88,-474 1432.34,-451.65 1434.1,-444.9 1441.88,-420 1459.05,-365.11 1492.94,-339.75 1460.88,-292 1451.25,-277.65 1437.06,-267.11 1421.51,-259.37"/>
<polygon fill="black" stroke="black" points="1422.77,-256.1 1412.22,-255.13 1419.86,-262.47 1422.77,-256.1"/>
<text text-anchor="middle" x="1432.22" y="-251.27" font-family="Times,serif" font-size="14.00">*0</text>
</g>
<!-- node3&#45;&gt;node2 -->
<g id="edge9" class="edge">
<title>node3&#45;&gt;node2</title>
<path fill="none" stroke="green" stroke-width="2" d="M1470.75,-912.03C1471.59,-920.03 1471.83,-929.77 1471.47,-938.75"/>
<polygon fill="green" stroke="green" stroke-width="2" points="1467.97,-938.59 1470.76,-948.81 1474.95,-939.08 1467.97,-938.59"/>
</g>
<!-- node18 -->
<g id="node20" class="node">
<title>node18</title>
<polygon fill="lightgrey" stroke="black" points="1424.88,-182 1232.88,-182 1232.88,-146 1424.88,-146 1424.88,-182"/>
<text text-anchor="middle" x="1328.88" y="-160.3" font-family="Times,serif" font-size="14.00">#18 ClassInit Order : 19</text>
</g>
<!-- node3&#45;&gt;node18 -->
<g id="edge53" class="edge">
<title>node3&#45;&gt;node18</title>
<path fill="none" stroke="red" d="M1559.03,-879.89C1589.17,-869.96 1614.88,-852.54 1614.88,-822 1614.88,-822 1614.88,-822 1614.88,-236 1614.88,-197.61 1516.59,-179.83 1435.25,-171.69"/>
<polygon fill="red" stroke="red" points="1435.2,-168.17 1424.91,-170.7 1434.53,-175.14 1435.2,-168.17"/>
</g>
<!-- node5&#45;&gt;node1 -->
<g id="edge14" class="edge">
<title>node5&#45;&gt;node1</title>
<path fill="none" stroke="green" stroke-width="2" d="M325.69,-612.31C188.18,-630.12 16.88,-680.33 16.88,-820 16.88,-1041 16.88,-1041 16.88,-1041 16.88,-1086.8 681.86,-1104.95 936.39,-1110.23"/>
<polygon fill="green" stroke="green" stroke-width="2" points="936.67,-1113.73 946.74,-1110.44 936.81,-1106.73 936.67,-1113.73"/>
</g>
<!-- node5&#45;&gt;node11 -->
<g id="edge34" class="edge">
<title>node5&#45;&gt;node11</title>
<path fill="none" stroke="black" d="M602.74,-586.16C686.23,-574.67 801.91,-558.75 888.79,-546.8"/>
<polygon fill="black" stroke="black" points="889.28,-550.27 898.71,-545.44 888.32,-543.33 889.28,-550.27"/>
</g>
<!-- node19 -->
<g id="node21" class="node">
<title>node19</title>
<polygon fill="lightgrey" stroke="black" points="1380.38,-109 453.38,-109 453.38,-73 1380.38,-73 1380.38,-109"/>
<text text-anchor="middle" x="916.88" y="-87.3" font-family="Times,serif" font-size="14.00">#19 Invoke static simple_method_return_boolean : (byte,boolean,short,char,int,long,float,double,String,int[])boolean Order : 20</text>
</g>
<!-- node5&#45;&gt;node19 -->
<g id="edge60" class="edge">
<title>node5&#45;&gt;node19</title>
<path fill="none" stroke="black" d="M545.17,-583.93C567.95,-572.71 589.88,-555.33 589.88,-530 589.88,-530 589.88,-530 589.88,-163 589.88,-137.81 627.41,-121.54 677.03,-111.04"/>
<polygon fill="black" stroke="black" points="677.99,-114.41 687.11,-109.01 676.62,-107.55 677.99,-114.41"/>
<text text-anchor="middle" x="671" y="-117.17" font-family="Times,serif" font-size="14.00">*5</text>
</g>
<!-- node10&#45;&gt;node1 -->
<g id="edge29" class="edge">
<title>node10&#45;&gt;node1</title>
<path fill="none" stroke="green" stroke-width="2" d="M284.3,-688.56C178.46,-706.61 54.88,-750.5 54.88,-857 54.88,-1041 54.88,-1041 54.88,-1041 54.88,-1084.89 688.93,-1104.12 936.5,-1109.96"/>
<polygon fill="green" stroke="green" stroke-width="2" points="936.49,-1113.46 946.57,-1110.19 936.66,-1106.46 936.49,-1113.46"/>
</g>
<!-- node10&#45;&gt;node5 -->
<g id="edge16" class="edge">
<title>node10&#45;&gt;node5</title>
<path fill="none" stroke="black" d="M447.89,-656.81C455.51,-648.09 464.9,-637.34 473.27,-627.75"/>
<polygon fill="black" stroke="black" points="476.07,-629.86 480.01,-620.03 470.8,-625.26 476.07,-629.86"/>
</g>
<!-- node10&#45;&gt;node19 -->
<g id="edge59" class="edge">
<title>node10&#45;&gt;node19</title>
<path fill="none" stroke="black" d="M229.84,-665.85C151.27,-656.96 79.88,-638.98 79.88,-603 79.88,-603 79.88,-603 79.88,-163 79.88,-139.38 294.29,-121.48 506.07,-109.56"/>
<polygon fill="black" stroke="black" points="506.37,-113.05 516.16,-109 505.98,-106.06 506.37,-113.05"/>
<text text-anchor="middle" x="498.53" y="-114.75" font-family="Times,serif" font-size="14.00">*4</text>
</g>
<!-- node6&#45;&gt;node1 -->
<g id="edge17" class="edge">
<title>node6&#45;&gt;node1</title>
<path fill="none" stroke="green" stroke-width="2" d="M1265.22,-400.73C1409.65,-426.88 1652.88,-483.09 1652.88,-565 1652.88,-1041 1652.88,-1041 1652.88,-1041 1652.88,-1092.87 1305.41,-1106.87 1131.14,-1110.63"/>
<polygon fill="green" stroke="green" stroke-width="2" points="1130.86,-1107.14 1120.93,-1110.84 1131,-1114.13 1130.86,-1107.14"/>
</g>
<!-- node6&#45;&gt;node7 -->
<g id="edge22" class="edge">
<title>node6&#45;&gt;node7</title>
<path fill="none" stroke="black" d="M1174.44,-364.81C1181.25,-356.18 1189.63,-345.56 1197.14,-336.03"/>
<polygon fill="black" stroke="black" points="1200.01,-338.05 1203.45,-328.03 1194.51,-333.71 1200.01,-338.05"/>
</g>
<!-- node6&#45;&gt;node19 -->
<g id="edge63" class="edge">
<title>node6&#45;&gt;node19</title>
<path fill="none" stroke="black" d="M1051.38,-365.69C996.63,-354.33 941.88,-336.58 941.88,-311 941.88,-311 941.88,-311 941.88,-163 941.88,-147.69 936.65,-131.53 930.97,-118.49"/>
<polygon fill="black" stroke="black" points="934.03,-116.78 926.62,-109.21 927.69,-119.75 934.03,-116.78"/>
<text text-anchor="middle" x="941.96" y="-118.34" font-family="Times,serif" font-size="14.00">*8</text>
</g>
<!-- node14&#45;&gt;node1 -->
<g id="edge41" class="edge">
<title>node14&#45;&gt;node1</title>
<path fill="none" stroke="green" stroke-width="2" d="M1190.06,-473.11C1244.49,-484.58 1299.88,-502.51 1299.88,-528 1299.88,-712 1299.88,-712 1299.88,-712 1299.88,-802.16 1281.34,-823.17 1265.88,-912 1258.6,-953.86 1269.17,-973.21 1239.88,-1004 1236.04,-1008.04 1168.66,-1063.12 1139.88,-1077 1128.66,-1082.41 1116.38,-1087.32 1104.3,-1091.62"/>
<polygon fill="green" stroke="green" stroke-width="2" points="1102.98,-1088.38 1094.66,-1094.95 1105.26,-1094.99 1102.98,-1088.38"/>
</g>
<!-- node14&#45;&gt;node6 -->
<g id="edge19" class="edge">
<title>node14&#45;&gt;node6</title>
<path fill="none" stroke="black" d="M1104.04,-437.81C1113.44,-428.92 1125.06,-417.91 1135.35,-408.17"/>
<polygon fill="black" stroke="black" points="1138.04,-410.45 1142.9,-401.03 1133.23,-405.36 1138.04,-410.45"/>
</g>
<!-- node14&#45;&gt;node19 -->
<g id="edge62" class="edge">
<title>node14&#45;&gt;node19</title>
<path fill="none" stroke="black" d="M994,-437.96C943.85,-425.95 891.88,-407.76 891.88,-384 891.88,-384 891.88,-384 891.88,-163 891.88,-147.69 897.12,-131.53 902.8,-118.49"/>
<polygon fill="black" stroke="black" points="906.08,-119.75 907.15,-109.21 899.74,-116.78 906.08,-119.75"/>
<text text-anchor="middle" x="907.11" y="-125.51" font-family="Times,serif" font-size="14.00">*7</text>
</g>
<!-- node7&#45;&gt;node1 -->
<g id="edge20" class="edge">
<title>node7&#45;&gt;node1</title>
<path fill="none" stroke="green" stroke-width="2" d="M1349.55,-325.32C1489.78,-348.68 1690.88,-409.32 1690.88,-565 1690.88,-1041 1690.88,-1041 1690.88,-1041 1690.88,-1096.6 1314.22,-1108.71 1131.29,-1111.31"/>
<polygon fill="green" stroke="green" stroke-width="2" points="1131.08,-1107.81 1121.13,-1111.45 1131.17,-1114.81 1131.08,-1107.81"/>
</g>
<!-- node7&#45;&gt;node13 -->
<g id="edge40" class="edge">
<title>node7&#45;&gt;node13</title>
<path fill="none" stroke="black" d="M1243.71,-291.99C1258.56,-282.58 1277.21,-270.76 1293.27,-260.57"/>
<polygon fill="black" stroke="black" points="1295.32,-263.42 1301.89,-255.11 1291.57,-257.51 1295.32,-263.42"/>
</g>
<!-- node7&#45;&gt;node19 -->
<g id="edge64" class="edge">
<title>node7&#45;&gt;node19</title>
<path fill="none" stroke="black" d="M1167.52,-291.98C1143.96,-282.76 1115.94,-270.14 1092.88,-255 1023.23,-209.26 1017.34,-183.28 955.88,-127 951.96,-123.41 947.79,-119.63 943.7,-115.93"/>
<polygon fill="black" stroke="black" points="945.77,-113.1 936,-109.01 941.09,-118.3 945.77,-113.1"/>
<text text-anchor="middle" x="955.13" y="-111.14" font-family="Times,serif" font-size="14.00">*9</text>
</g>
<!-- node8&#45;&gt;node1 -->
<g id="edge23" class="edge">
<title>node8&#45;&gt;node1</title>
<path fill="none" stroke="green" stroke-width="2" d="M750.76,-912.11C782.55,-943.71 854.39,-1012.2 923.88,-1058 942.58,-1070.32 964.51,-1081.64 983.84,-1090.7"/>
<polygon fill="green" stroke="green" stroke-width="2" points="982.55,-1093.96 993.09,-1094.96 985.47,-1087.6 982.55,-1093.96"/>
</g>
<!-- node8&#45;&gt;node12 -->
<g id="edge37" class="edge">
<title>node8&#45;&gt;node12</title>
<path fill="none" stroke="black" d="M641.51,-876.35C582.47,-865.72 505.78,-851.89 444.5,-840.85"/>
<polygon fill="black" stroke="black" points="444.88,-837.36 434.42,-839.04 443.64,-844.25 444.88,-837.36"/>
</g>
<!-- node8&#45;&gt;node19 -->
<g id="edge56" class="edge">
<title>node8&#45;&gt;node19</title>
<path fill="none" stroke="black" d="M782.42,-875.83C827.99,-856.81 893.42,-821.3 922.88,-766 989.34,-641.28 759.88,-634.32 759.88,-493 759.88,-493 759.88,-493 759.88,-163 759.88,-139.68 774.44,-123.98 794.7,-113.42"/>
<polygon fill="black" stroke="black" points="796.45,-116.46 804.03,-109.06 793.49,-110.12 796.45,-116.46"/>
<text text-anchor="middle" x="791.19" y="-120.68" font-family="Times,serif" font-size="14.00">*1</text>
</g>
<!-- node9&#45;&gt;node1 -->
<g id="edge26" class="edge">
<title>node9&#45;&gt;node1</title>
<path fill="none" stroke="green" stroke-width="2" d="M676.07,-766.06C661.56,-785.93 635.22,-818.62 605.88,-839 542.15,-883.27 456.88,-852.4 456.88,-930 456.88,-1041 456.88,-1041 456.88,-1041 456.88,-1088.76 772.34,-1104.71 936.75,-1109.78"/>
<polygon fill="green" stroke="green" stroke-width="2" points="936.78,-1113.28 946.88,-1110.08 936.99,-1106.28 936.78,-1113.28"/>
</g>
<!-- node9&#45;&gt;node10 -->
<g id="edge31" class="edge">
<title>node9&#45;&gt;node10</title>
<path fill="none" stroke="black" d="M626.8,-729.99C590.02,-719.75 542.99,-706.66 504.46,-695.93"/>
<polygon fill="black" stroke="black" points="504.92,-692.42 494.35,-693.11 503.04,-699.17 504.92,-692.42"/>
</g>
<!-- node9&#45;&gt;node19 -->
<g id="edge58" class="edge">
<title>node9&#45;&gt;node19</title>
<path fill="none" stroke="black" d="M691.78,-729.86C700.71,-689.06 721.88,-582.87 721.88,-493 721.88,-493 721.88,-493 721.88,-163 721.88,-143.77 729.93,-137.74 745.88,-127 754.09,-121.48 762.97,-116.8 772.24,-112.83"/>
<polygon fill="black" stroke="black" points="773.63,-116.05 781.62,-109.1 771.04,-109.54 773.63,-116.05"/>
<text text-anchor="middle" x="767.91" y="-119.95" font-family="Times,serif" font-size="14.00">*3</text>
</g>
<!-- node12&#45;&gt;node1 -->
<g id="edge35" class="edge">
<title>node12&#45;&gt;node1</title>
<path fill="none" stroke="green" stroke-width="2" d="M353.32,-839.01C362.82,-852.76 373.88,-873.05 373.88,-893 373.88,-1041 373.88,-1041 373.88,-1041 373.88,-1075.59 409.55,-1067.77 442.88,-1077 532.97,-1101.93 793.38,-1109.11 936.61,-1111.17"/>
<polygon fill="green" stroke="green" stroke-width="2" points="936.67,-1114.67 946.72,-1111.31 936.77,-1107.67 936.67,-1114.67"/>
</g>
<!-- node12&#45;&gt;node9 -->
<g id="edge28" class="edge">
<title>node12&#45;&gt;node9</title>
<path fill="none" stroke="black" d="M423.24,-802.99C474.82,-792.47 541.15,-778.94 594.5,-768.05"/>
<polygon fill="black" stroke="black" points="595.21,-771.48 604.31,-766.05 593.81,-764.62 595.21,-771.48"/>
</g>
<!-- node12&#45;&gt;node19 -->
<g id="edge57" class="edge">
<title>node12&#45;&gt;node19</title>
<path fill="none" stroke="black" d="M170.86,-807.33C103.6,-797.47 41.88,-779.98 41.88,-749 41.88,-749 41.88,-749 41.88,-163 41.88,-99.72 -138.6,-157.14 256.88,-127 344.97,-120.29 439.77,-114.45 529.27,-109.56"/>
<polygon fill="black" stroke="black" points="529.52,-113.05 539.31,-109.01 529.14,-106.06 529.52,-113.05"/>
<text text-anchor="middle" x="521.67" y="-114.74" font-family="Times,serif" font-size="14.00">*2</text>
</g>
<!-- node11&#45;&gt;node1 -->
<g id="edge32" class="edge">
<title>node11&#45;&gt;node1</title>
<path fill="none" stroke="green" stroke-width="2" d="M1127.01,-545.11C1153.93,-555.45 1174.88,-572.61 1174.88,-601 1174.88,-858 1174.88,-858 1174.88,-858 1174.88,-947.95 1197.18,-985.54 1143.88,-1058 1133.56,-1072.04 1118.58,-1082.62 1102.98,-1090.53"/>
<polygon fill="green" stroke="green" stroke-width="2" points="1101.3,-1087.45 1093.75,-1094.88 1104.29,-1093.78 1101.3,-1087.45"/>
</g>
<!-- node11&#45;&gt;node14 -->
<g id="edge43" class="edge">
<title>node11&#45;&gt;node14</title>
<path fill="none" stroke="black" d="M1029.04,-510.81C1038.44,-501.92 1050.06,-490.91 1060.35,-481.17"/>
<polygon fill="black" stroke="black" points="1063.04,-483.45 1067.9,-474.03 1058.23,-478.36 1063.04,-483.45"/>
</g>
<!-- node11&#45;&gt;node19 -->
<g id="edge61" class="edge">
<title>node11&#45;&gt;node19</title>
<path fill="none" stroke="black" d="M881.78,-513.87C854.56,-503.43 833.88,-485.97 833.88,-457 833.88,-457 833.88,-457 833.88,-163 833.88,-141.98 849.45,-125.85 867.1,-114.32"/>
<polygon fill="black" stroke="black" points="869.12,-117.19 875.87,-109.02 865.5,-111.19 869.12,-117.19"/>
<text text-anchor="middle" x="864.72" y="-121.92" font-family="Times,serif" font-size="14.00">*6</text>
</g>
<!-- node13&#45;&gt;node1 -->
<g id="edge38" class="edge">
<title>node13&#45;&gt;node1</title>
<path fill="none" stroke="green" stroke-width="2" d="M1411.6,-255.09C1427.4,-259.83 1443.48,-265.73 1457.88,-273 1615.96,-352.76 1728.88,-387.94 1728.88,-565 1728.88,-1041 1728.88,-1041 1728.88,-1041 1728.88,-1100.35 1322.54,-1110.45 1131.26,-1111.92"/>
<polygon fill="green" stroke="green" stroke-width="2" points="1131.18,-1108.42 1121.2,-1111.99 1131.23,-1115.42 1131.18,-1108.42"/>
</g>
<!-- node13&#45;&gt;node18 -->
<g id="edge52" class="edge">
<title>node13&#45;&gt;node18</title>
<path fill="none" stroke="black" d="M1328.88,-218.81C1328.88,-210.79 1328.88,-201.05 1328.88,-192.07"/>
<polygon fill="black" stroke="black" points="1332.38,-192.03 1328.88,-182.03 1325.38,-192.03 1332.38,-192.03"/>
</g>
<!-- node13&#45;&gt;node19 -->
<g id="edge65" class="edge">
<title>node13&#45;&gt;node19</title>
<path fill="none" stroke="black" d="M1283.11,-218.98C1223.93,-197.09 1117.57,-158.2 1025.88,-127 1011.38,-122.06 995.72,-116.92 980.92,-112.15"/>
<polygon fill="black" stroke="black" points="981.93,-108.8 971.34,-109.08 979.79,-115.47 981.93,-108.8"/>
<text text-anchor="middle" x="991.18" y="-102.87" font-family="Times,serif" font-size="14.00">*10</text>
</g>
<!-- node15&#45;&gt;node0 -->
<g id="edge44" class="edge">
<title>node15&#45;&gt;node0</title>
<path fill="none" stroke="green" stroke-width="2" d="M2358.31,-1204.01C2329.72,-1211.13 2294.26,-1218.74 2261.88,-1223 2072.68,-1247.92 2022.45,-1219.04 1832.88,-1241 1831.37,-1241.18 1829.84,-1241.36 1828.31,-1241.56"/>
<polygon fill="green" stroke="green" stroke-width="2" points="1827.46,-1238.14 1818.04,-1242.99 1828.43,-1245.07 1827.46,-1238.14"/>
</g>
<!-- node17&#45;&gt;node0 -->
<g id="edge48" class="edge">
<title>node17&#45;&gt;node0</title>
<path fill="none" stroke="green" stroke-width="2" d="M1944.16,-1204.11C1906.18,-1214.46 1856.31,-1227.7 1814.76,-1238.46"/>
<polygon fill="green" stroke="green" stroke-width="2" points="1813.74,-1235.1 1804.94,-1240.99 1815.49,-1241.88 1813.74,-1235.1"/>
</g>
<!-- node17&#45;&gt;node18 -->
<g id="edge51" class="edge">
<title>node17&#45;&gt;node18</title>
<path fill="none" stroke="black" d="M1949.33,-1167.94C1926,-1156.85 1903.88,-1139.59 1903.88,-1114 1903.88,-1114 1903.88,-1114 1903.88,-236 1903.88,-189.33 1601.6,-173.01 1435.38,-167.57"/>
<polygon fill="black" stroke="black" points="1435.23,-164.06 1425.13,-167.24 1435.01,-171.06 1435.23,-164.06"/>
<text text-anchor="middle" x="1443.51" y="-155.67" font-family="Times,serif" font-size="14.00">*0</text>
</g>
<!-- node18&#45;&gt;node0 -->
<g id="edge50" class="edge">
<title>node18&#45;&gt;node0</title>
<path fill="none" stroke="green" stroke-width="2" d="M1425,-171.13C1553.94,-180.67 1766.88,-201.62 1766.88,-236 1766.88,-1187 1766.88,-1187 1766.88,-1187 1766.88,-1202.88 1760.14,-1219.14 1752.85,-1232.09"/>
<polygon fill="green" stroke="green" stroke-width="2" points="1749.72,-1230.51 1747.53,-1240.87 1755.7,-1234.13 1749.72,-1230.51"/>
</g>
<!-- node18&#45;&gt;node19 -->
<g id="edge55" class="edge">
<title>node18&#45;&gt;node19</title>
<path fill="none" stroke="black" d="M1232.8,-147.16C1197.95,-140.65 1158.57,-133.2 1122.88,-127 1090.6,-121.39 1055.63,-115.73 1023.75,-110.64"/>
<polygon fill="black" stroke="black" points="1023.94,-107.13 1013.52,-109.01 1022.84,-114.04 1023.94,-107.13"/>
<text text-anchor="middle" x="1032.75" y="-99.81" font-family="Times,serif" font-size="14.00">*0</text>
</g>
<!-- node18&#45;&gt;node19 -->
<g id="edge66" class="edge">
<title>node18&#45;&gt;node19</title>
<path fill="none" stroke="black" d="M1243.36,-145.98C1211.27,-139.77 1174.44,-132.83 1140.88,-127 1108.46,-121.36 1073.33,-115.68 1040.71,-110.57"/>
<polygon fill="black" stroke="black" points="1041.09,-107.09 1030.67,-109.01 1040.02,-114.01 1041.09,-107.09"/>
</g>
<!-- node18&#45;&gt;node19 -->
<g id="edge67" class="edge">
<title>node18&#45;&gt;node19</title>
<path fill="none" stroke="red" d="M1260.21,-145.98C1229.27,-139.77 1192.44,-132.83 1158.88,-127 1126.46,-121.36 1091.33,-115.68 1058.08,-110.57"/>
<polygon fill="red" stroke="red" points="1058.25,-107.06 1047.83,-109.01 1057.19,-113.98 1058.25,-107.06"/>
</g>
<!-- node19&#45;&gt;node0 -->
<g id="edge54" class="edge">
<title>node19&#45;&gt;node0</title>
<path fill="none" stroke="green" stroke-width="2" d="M1380.65,-95.78C1761.65,-102.09 2238.88,-118.81 2238.88,-163 2238.88,-1187 2238.88,-1187 2238.88,-1187 2238.88,-1198.33 2230.27,-1199.47 2219.88,-1204 2060.88,-1273.4 2001.12,-1218.29 1828.15,-1240.49"/>
<polygon fill="green" stroke="green" stroke-width="2" points="1827.66,-1237.02 1818.22,-1241.83 1828.6,-1243.96 1827.66,-1237.02"/>
</g>
<!-- node20 -->
<g id="node22" class="node">
<title>node20</title>
<polygon fill="lightgrey" stroke="black" points="1042.38,-36 791.38,-36 791.38,0 1042.38,0 1042.38,-36"/>
<text text-anchor="middle" x="916.88" y="-14.3" font-family="Times,serif" font-size="14.00">#20 ReturnValue : int Order : 21</text>
</g>
<!-- node19&#45;&gt;node20 -->
<g id="edge69" class="edge">
<title>node19&#45;&gt;node20</title>
<path fill="none" stroke="black" d="M899.25,-72.81C896.73,-64.79 896.03,-55.05 897.15,-46.07"/>
<polygon fill="black" stroke="black" points="900.63,-46.54 899.3,-36.03 893.78,-45.07 900.63,-46.54"/>
<text text-anchor="middle" x="903.77" y="-51.82" font-family="Times,serif" font-size="14.00">*0</text>
</g>
<!-- node19&#45;&gt;node20 -->
<g id="edge70" class="edge">
<title>node19&#45;&gt;node20</title>
<path fill="none" stroke="red" d="M922.76,-72.81C923.6,-64.79 923.83,-55.05 923.46,-46.07"/>
<polygon fill="red" stroke="red" points="926.95,-45.75 922.75,-36.03 919.97,-46.25 926.95,-45.75"/>
</g>
<!-- node19&#45;&gt;node20 -->
<g id="edge71" class="edge">
<title>node19&#45;&gt;node20</title>
<path fill="none" stroke="black" d="M934.52,-72.81C937.04,-64.79 937.74,-55.05 936.62,-46.07"/>
<polygon fill="black" stroke="black" points="939.98,-45.07 934.47,-36.03 933.14,-46.54 939.98,-45.07"/>
</g>
<!-- node20&#45;&gt;node19 -->
<g id="edge68" class="edge">
<title>node20&#45;&gt;node19</title>
<path fill="none" stroke="green" stroke-width="2" d="M911.02,-36.03C910.17,-44.03 909.93,-53.77 910.3,-62.75"/>
<polygon fill="green" stroke="green" stroke-width="2" points="906.81,-63.08 911.01,-72.81 913.8,-62.59 906.81,-63.08"/>
</g>
<!-- c0 -->
<!-- c1 -->
<!-- c0&#45;&gt;c1 -->
<g id="edge74" class="edge">
<title>c0&#45;&gt;c1</title>
<path fill="none" stroke="red" d="M2549.78,-1259C2560.99,-1259 2619.13,-1259 2644.74,-1259"/>
<polygon fill="red" stroke="red" points="2644.94,-1262.5 2654.94,-1259 2644.94,-1255.5 2644.94,-1262.5"/>
<text text-anchor="middle" x="2602.38" y="-1265.8" font-family="Times,serif" font-size="14.00">Control flow</text>
</g>
<!-- c2 -->
<!-- c3 -->
<!-- c2&#45;&gt;c3 -->
<g id="edge75" class="edge">
<title>c2&#45;&gt;c3</title>
<path fill="none" stroke="red" stroke-dasharray="5,2" d="M2342.96,-1259C2359.93,-1259 2476.09,-1259 2513.97,-1259"/>
<polygon fill="red" stroke="red" points="2514.05,-1262.5 2524.05,-1259 2514.05,-1255.5 2514.05,-1262.5"/>
<text text-anchor="middle" x="2433.38" y="-1265.8" font-family="Times,serif" font-size="14.00">Control flow back edge</text>
</g>
<!-- d0 -->
<!-- d1 -->
<!-- d0&#45;&gt;d1 -->
<g id="edge76" class="edge">
<title>d0&#45;&gt;d1</title>
<path fill="none" stroke="black" d="M2231.74,-1259C2241.29,-1259 2285.19,-1259 2306.8,-1259"/>
<polygon fill="black" stroke="black" points="2307.03,-1262.5 2317.03,-1259 2307.03,-1255.5 2307.03,-1262.5"/>
<text text-anchor="middle" x="2274.38" y="-1265.8" font-family="Times,serif" font-size="14.00">Data flow</text>
</g>
<!-- d2 -->
<!-- d3 -->
<!-- d2&#45;&gt;d3 -->
<g id="edge77" class="edge">
<title>d2&#45;&gt;d3</title>
<path fill="none" stroke="black" stroke-dasharray="1,5" d="M2105.69,-1259C2116.34,-1259 2171.35,-1259 2195.96,-1259"/>
<polygon fill="black" stroke="black" points="2196.03,-1262.5 2206.03,-1259 2196.03,-1255.5 2196.03,-1262.5"/>
<text text-anchor="middle" x="2155.88" y="-1265.8" font-family="Times,serif" font-size="14.00">Declaration</text>
</g>
<!-- d4 -->
<!-- d5 -->
<!-- d4&#45;&gt;d5 -->
<g id="edge78" class="edge">
<title>d4&#45;&gt;d5</title>
<path fill="none" stroke="blue" d="M1962.98,-1259C1975.61,-1259 2041.76,-1259 2069.56,-1259"/>
<polygon fill="blue" stroke="blue" points="2069.73,-1262.5 2079.73,-1259 2069.73,-1255.5 2069.73,-1262.5"/>
<text text-anchor="middle" x="2021.38" y="-1265.8" font-family="Times,serif" font-size="14.00">PHI Data flow</text>
</g>
<!-- d6 -->
<!-- d7 -->
<!-- d6&#45;&gt;d7 -->
<g id="edge79" class="edge">
<title>d6&#45;&gt;d7</title>
<path fill="none" stroke="green" d="M1839.99,-1259C1851.03,-1259 1902.55,-1259 1926.54,-1259"/>
<polygon fill="green" stroke="green" points="1926.79,-1262.5 1936.79,-1259 1926.79,-1255.5 1926.79,-1262.5"/>
<text text-anchor="middle" x="1888.38" y="-1265.8" font-family="Times,serif" font-size="14.00">Dominance</text>
</g>
</g>
</svg>
