<?xml version="1.0" encoding="UTF-8" standalone="no"?>
<!DOCTYPE svg PUBLIC "-//W3C//DTD SVG 1.1//EN"
 "http://www.w3.org/Graphics/SVG/1.1/DTD/svg11.dtd">
<!-- Generated by graphviz version 2.43.0 (0)
 -->
<!-- Title: debugoutput Pages: 1 -->
<svg width="786pt" height="359pt"
 viewBox="0.00 0.00 785.50 358.80" xmlns="http://www.w3.org/2000/svg" xmlns:xlink="http://www.w3.org/1999/xlink">
<g id="graph0" class="graph" transform="scale(1 1) rotate(0) translate(4 354.8)">
<title>debugoutput</title>
<polygon fill="white" stroke="transparent" points="-4,4 -4,-354.8 781.5,-354.8 781.5,4 -4,4"/>
<g id="clust1" class="cluster">
<title>cluster_000</title>
<polygon fill="none" stroke="black" points="310.5,-300.2 310.5,-342.8 769.5,-342.8 769.5,-300.2 310.5,-300.2"/>
<text text-anchor="middle" x="540" y="-327.6" font-family="Times,serif" font-size="14.00">Legend</text>
</g>
<!-- node0 -->
<g id="node1" class="node">
<title>node0</title>
<polygon fill="lightgrey" stroke="black" points="300.5,-328 134.5,-328 134.5,-292 300.5,-292 300.5,-328"/>
<text text-anchor="middle" x="217.5" y="-306.3" font-family="Times,serif" font-size="14.00">#0 Method Order : 0</text>
</g>
<!-- node1 -->
<g id="node2" class="node">
<title>node1</title>
<polygon fill="lightgrey" stroke="black" points="311.5,-255 123.5,-255 123.5,-219 311.5,-219 311.5,-255"/>
<text text-anchor="middle" x="217.5" y="-233.3" font-family="Times,serif" font-size="14.00">#1 LabelNode Order : 1</text>
</g>
<!-- node0&#45;&gt;node1 -->
<g id="edge2" class="edge">
<title>node0&#45;&gt;node1</title>
<path fill="none" stroke="red" d="M211.62,-291.81C210.78,-283.79 210.55,-274.05 210.92,-265.07"/>
<polygon fill="red" stroke="red" points="214.42,-265.25 211.64,-255.03 207.44,-264.75 214.42,-265.25"/>
</g>
<!-- node1&#45;&gt;node0 -->
<g id="edge1" class="edge">
<title>node1&#45;&gt;node0</title>
<path fill="none" stroke="fuchsia" stroke-width="2" d="M223.36,-255.03C224.21,-263.03 224.45,-272.77 224.09,-281.75"/>
<polygon fill="fuchsia" stroke="fuchsia" stroke-width="2" points="220.59,-281.59 223.38,-291.81 227.57,-282.08 220.59,-281.59"/>
</g>
<!-- node2 -->
<g id="node3" class="node">
<title>node2</title>
<polygon fill="lightgrey" stroke="black" points="304.5,-182 130.5,-182 130.5,-146 304.5,-146 304.5,-182"/>
<text text-anchor="middle" x="217.5" y="-160.3" font-family="Times,serif" font-size="14.00">#2 ClassInit Order : 2</text>
</g>
<!-- node1&#45;&gt;node2 -->
<g id="edge4" class="edge">
<title>node1&#45;&gt;node2</title>
<path fill="none" stroke="red" d="M211.62,-218.81C210.78,-210.79 210.55,-201.05 210.92,-192.07"/>
<polygon fill="red" stroke="red" points="214.42,-192.25 211.64,-182.03 207.44,-191.75 214.42,-192.25"/>
</g>
<!-- node2&#45;&gt;node1 -->
<g id="edge3" class="edge">
<title>node2&#45;&gt;node1</title>
<path fill="none" stroke="fuchsia" stroke-width="2" d="M223.36,-182.03C224.21,-190.03 224.45,-199.77 224.09,-208.75"/>
<polygon fill="fuchsia" stroke="fuchsia" stroke-width="2" points="220.59,-208.59 223.38,-218.81 227.57,-209.08 220.59,-208.59"/>
</g>
<!-- node3 -->
<g id="node4" class="node">
<title>node3</title>
<polygon fill="lightgrey" stroke="black" points="435,-109 0,-109 0,-73 435,-73 435,-109"/>
<text text-anchor="middle" x="217.5" y="-87.3" font-family="Times,serif" font-size="14.00">#3 Invoke static staticReturnShort : (short)short Order : 3</text>
</g>
<!-- node2&#45;&gt;node3 -->
<g id="edge6" class="edge">
<title>node2&#45;&gt;node3</title>
<path fill="none" stroke="red" d="M211.62,-145.81C210.78,-137.79 210.55,-128.05 210.92,-119.07"/>
<polygon fill="red" stroke="red" points="214.42,-119.25 211.64,-109.03 207.44,-118.75 214.42,-119.25"/>
</g>
<!-- node3&#45;&gt;node2 -->
<g id="edge5" class="edge">
<title>node3&#45;&gt;node2</title>
<path fill="none" stroke="fuchsia" stroke-width="2" d="M223.36,-109.03C224.21,-117.03 224.45,-126.77 224.09,-135.75"/>
<polygon fill="fuchsia" stroke="fuchsia" stroke-width="2" points="220.59,-135.59 223.38,-145.81 227.57,-136.08 220.59,-135.59"/>
</g>
<!-- node4 -->
<g id="node5" class="node">
<title>node4</title>
<polygon fill="lightgrey" stroke="black" points="334,-36 101,-36 101,0 334,0 334,-36"/>
<text text-anchor="middle" x="217.5" y="-14.3" font-family="Times,serif" font-size="14.00">#4 ReturnValue : int Order : 4</text>
</g>
<!-- node3&#45;&gt;node4 -->
<g id="edge8" class="edge">
<title>node3&#45;&gt;node4</title>
<path fill="none" stroke="red" d="M211.62,-72.81C210.78,-64.79 210.55,-55.05 210.92,-46.07"/>
<polygon fill="red" stroke="red" points="214.42,-46.25 211.64,-36.03 207.44,-45.75 214.42,-46.25"/>
</g>
<!-- node4&#45;&gt;node3 -->
<g id="edge7" class="edge">
<title>node4&#45;&gt;node3</title>
<path fill="none" stroke="fuchsia" stroke-width="2" d="M223.36,-36.03C224.21,-44.03 224.45,-53.77 224.09,-62.75"/>
<polygon fill="fuchsia" stroke="fuchsia" stroke-width="2" points="220.59,-62.59 223.38,-72.81 227.57,-63.08 220.59,-62.59"/>
</g>
<!-- c0 -->
<!-- c1 -->
<!-- c0&#45;&gt;c1 -->
<g id="edge9" class="edge">
<title>c0&#45;&gt;c1</title>
<path fill="none" stroke="red" d="M652.39,-310C663.61,-310 721.74,-310 747.36,-310"/>
<polygon fill="red" stroke="red" points="747.56,-313.5 757.56,-310 747.56,-306.5 747.56,-313.5"/>
<text text-anchor="middle" x="705" y="-316.8" font-family="Times,serif" font-size="14.00">Control flow</text>
</g>
<!-- c2 -->
<!-- c3 -->
<!-- c2&#45;&gt;c3 -->
<g id="edge10" class="edge">
<title>c2&#45;&gt;c3</title>
<path fill="none" stroke="red" stroke-dasharray="5,2" d="M445.58,-310C462.55,-310 578.71,-310 616.58,-310"/>
<polygon fill="red" stroke="red" points="616.67,-313.5 626.67,-310 616.67,-306.5 616.67,-313.5"/>
<text text-anchor="middle" x="536" y="-316.8" font-family="Times,serif" font-size="14.00">Control flow back edge</text>
</g>
<!-- d8 -->
<!-- d9 -->
<!-- d8&#45;&gt;d9 -->
<g id="edge11" class="edge">
<title>d8&#45;&gt;d9</title>
<path fill="none" stroke="fuchsia" d="M322.61,-310C333.65,-310 385.17,-310 409.16,-310"/>
<polygon fill="fuchsia" stroke="fuchsia" points="409.4,-313.5 419.4,-310 409.4,-306.5 409.4,-313.5"/>
<text text-anchor="middle" x="371" y="-316.8" font-family="Times,serif" font-size="14.00">Dominance</text>
</g>
</g>
</svg>
