<?xml version="1.0" encoding="UTF-8" standalone="no"?>
<!DOCTYPE svg PUBLIC "-//W3C//DTD SVG 1.1//EN"
 "http://www.w3.org/Graphics/SVG/1.1/DTD/svg11.dtd">
<!-- Generated by graphviz version 2.43.0 (0)
 -->
<!-- Title: debugoutput Pages: 1 -->
<svg width="1614pt" height="359pt"
 viewBox="0.00 0.00 1614.00 358.80" xmlns="http://www.w3.org/2000/svg" xmlns:xlink="http://www.w3.org/1999/xlink">
<g id="graph0" class="graph" transform="scale(1 1) rotate(0) translate(4 354.8)">
<title>debugoutput</title>
<polygon fill="white" stroke="transparent" points="-4,4 -4,-354.8 1610,-354.8 1610,4 -4,4"/>
<g id="clust1" class="cluster">
<title>cluster_000</title>
<polygon fill="none" stroke="black" points="622,-300.2 622,-342.8 1598,-342.8 1598,-300.2 622,-300.2"/>
<text text-anchor="middle" x="1110" y="-327.6" font-family="Times,serif" font-size="14.00">Legend</text>
</g>
<!-- node0 -->
<g id="node1" class="node">
<title>node0</title>
<polygon fill="lightgrey" stroke="black" points="612,-328 446,-328 446,-292 612,-292 612,-328"/>
<text text-anchor="middle" x="529" y="-306.3" font-family="Times,serif" font-size="14.00">#0 Method Order : 0</text>
</g>
<!-- node1 -->
<g id="node2" class="node">
<title>node1</title>
<polygon fill="lightgrey" stroke="black" points="284,-255 0,-255 0,-219 284,-219 284,-255"/>
<text text-anchor="middle" x="142" y="-233.3" font-family="Times,serif" font-size="14.00">#1 this : MethodInvokeTest Order : 4</text>
</g>
<!-- node0&#45;&gt;node1 -->
<g id="edge2" class="edge">
<title>node0&#45;&gt;node1</title>
<path fill="none" stroke="black" d="M445.61,-294.72C384.9,-283.84 302.55,-268.76 238.91,-256.89"/>
<polygon fill="black" stroke="black" points="239.34,-253.41 228.86,-255.01 238.05,-260.29 239.34,-253.41"/>
<text text-anchor="middle" x="248.23" y="-246.33" font-family="Times,serif" font-size="14.00">*0</text>
</g>
<!-- node2 -->
<g id="node3" class="node">
<title>node2</title>
<polygon fill="lightgrey" stroke="black" points="490,-255 302,-255 302,-219 490,-219 490,-255"/>
<text text-anchor="middle" x="396" y="-233.3" font-family="Times,serif" font-size="14.00">#2 LabelNode Order : 2</text>
</g>
<!-- node0&#45;&gt;node2 -->
<g id="edge4" class="edge">
<title>node0&#45;&gt;node2</title>
<path fill="none" stroke="red" d="M491.28,-291.99C472.3,-282.4 449.51,-270.32 430.93,-260.01"/>
<polygon fill="red" stroke="red" points="432.62,-256.94 422.19,-255.11 429.2,-263.05 432.62,-256.94"/>
</g>
<!-- node3 -->
<g id="node4" class="node">
<title>node3</title>
<polygon fill="lightgreen" stroke="black" points="910.4,-229.54 910.4,-244.46 792.42,-255 625.58,-255 507.6,-244.46 507.6,-229.54 625.58,-219 792.42,-219 910.4,-229.54"/>
<text text-anchor="middle" x="709" y="-233.3" font-family="Times,serif" font-size="14.00">#3 Class MethodInvokeTest Order : 1</text>
</g>
<!-- node0&#45;&gt;node3 -->
<g id="edge6" class="edge">
<title>node0&#45;&gt;node3</title>
<path fill="none" stroke="black" stroke-dasharray="1,5" d="M566.26,-291.99C590.5,-282.01 622.56,-269.32 650.18,-258.76"/>
<polygon fill="black" stroke="black" points="651.64,-261.94 659.74,-255.11 649.15,-255.4 651.64,-261.94"/>
</g>
<!-- node4 -->
<g id="node5" class="node">
<title>node4</title>
<polygon fill="lightgrey" stroke="black" points="796,-182 622,-182 622,-146 796,-146 796,-182"/>
<text text-anchor="middle" x="709" y="-160.3" font-family="Times,serif" font-size="14.00">#4 ClassInit Order : 5</text>
</g>
<!-- node0&#45;&gt;node4 -->
<g id="edge9" class="edge">
<title>node0&#45;&gt;node4</title>
<path fill="none" stroke="green" d="M609.39,-291.94C676.32,-281.65 865.44,-305.38 910,-255 948.33,-211.68 874.84,-188.51 806.16,-176.59"/>
<polygon fill="green" stroke="green" points="806.52,-173.1 796.08,-174.91 805.37,-180 806.52,-173.1"/>
</g>
<!-- node1&#45;&gt;node0 -->
<g id="edge1" class="edge">
<title>node1&#45;&gt;node0</title>
<path fill="none" stroke="fuchsia" stroke-width="2" d="M240.61,-255.02C300.67,-265.82 376.91,-279.8 435.93,-290.83"/>
<polygon fill="fuchsia" stroke="fuchsia" stroke-width="2" points="435.52,-294.31 446,-292.71 436.81,-287.43 435.52,-294.31"/>
</g>
<!-- node2&#45;&gt;node0 -->
<g id="edge3" class="edge">
<title>node2&#45;&gt;node0</title>
<path fill="none" stroke="fuchsia" stroke-width="2" d="M433.93,-255.11C452.94,-264.72 475.72,-276.81 494.27,-287.1"/>
<polygon fill="fuchsia" stroke="fuchsia" stroke-width="2" points="492.57,-290.16 503,-291.99 495.99,-284.05 492.57,-290.16"/>
</g>
<!-- node2&#45;&gt;node4 -->
<g id="edge10" class="edge">
<title>node2&#45;&gt;node4</title>
<path fill="none" stroke="red" d="M470.97,-218.99C516.98,-208.56 576.04,-195.16 623.81,-184.32"/>
<polygon fill="red" stroke="red" points="624.85,-187.68 633.83,-182.05 623.3,-180.85 624.85,-187.68"/>
</g>
<!-- node5 -->
<g id="node6" class="node">
<title>node5</title>
<polygon fill="lightgreen" stroke="black" points="503.77,-156.54 503.77,-171.46 440.64,-182 351.36,-182 288.23,-171.46 288.23,-156.54 351.36,-146 440.64,-146 503.77,-156.54"/>
<text text-anchor="middle" x="396" y="-160.3" font-family="Times,serif" font-size="14.00">#5 int 10 Order : 3</text>
</g>
<!-- node2&#45;&gt;node5 -->
<g id="edge12" class="edge">
<title>node2&#45;&gt;node5</title>
<path fill="none" stroke="black" stroke-dasharray="1,5" d="M390.12,-218.81C389.28,-210.79 389.05,-201.05 389.42,-192.07"/>
<polygon fill="black" stroke="black" points="392.92,-192.25 390.14,-182.03 385.94,-191.75 392.92,-192.25"/>
</g>
<!-- node3&#45;&gt;node0 -->
<g id="edge5" class="edge">
<title>node3&#45;&gt;node0</title>
<path fill="none" stroke="fuchsia" stroke-width="2" d="M671.48,-255.11C647.18,-265.11 615.12,-277.81 587.53,-288.36"/>
<polygon fill="fuchsia" stroke="fuchsia" stroke-width="2" points="586.07,-285.17 577.97,-291.99 588.56,-291.71 586.07,-285.17"/>
</g>
<!-- node3&#45;&gt;node4 -->
<g id="edge8" class="edge">
<title>node3&#45;&gt;node4</title>
<path fill="none" stroke="black" d="M709,-218.81C709,-210.79 709,-201.05 709,-192.07"/>
<polygon fill="black" stroke="black" points="712.5,-192.03 709,-182.03 705.5,-192.03 712.5,-192.03"/>
<text text-anchor="middle" x="717.45" y="-196.45" font-family="Times,serif" font-size="14.00">*0</text>
</g>
<!-- node4&#45;&gt;node0 -->
<g id="edge7" class="edge">
<title>node4&#45;&gt;node0</title>
<path fill="none" stroke="fuchsia" stroke-width="2" d="M796,-172.88C874.29,-183.4 970.77,-206.65 928,-255 883.35,-305.48 693.58,-281.56 627,-292 625.49,-292.24 623.98,-292.48 622.45,-292.73"/>
<polygon fill="fuchsia" stroke="fuchsia" stroke-width="2" points="621.51,-289.34 612.22,-294.44 622.66,-296.24 621.51,-289.34"/>
</g>
<!-- node6 -->
<g id="node7" class="node">
<title>node6</title>
<polygon fill="lightgrey" stroke="black" points="926.5,-109 491.5,-109 491.5,-73 926.5,-73 926.5,-109"/>
<text text-anchor="middle" x="709" y="-87.3" font-family="Times,serif" font-size="14.00">#6 Invoke static staticReturnShort : (short)short Order : 6</text>
</g>
<!-- node4&#45;&gt;node6 -->
<g id="edge14" class="edge">
<title>node4&#45;&gt;node6</title>
<path fill="none" stroke="black" d="M697.24,-145.81C695.56,-137.79 695.1,-128.05 695.84,-119.07"/>
<polygon fill="black" stroke="black" points="699.33,-119.42 697.28,-109.03 692.4,-118.43 699.33,-119.42"/>
<text text-anchor="middle" x="703.08" y="-124.47" font-family="Times,serif" font-size="14.00">*0</text>
</g>
<!-- node4&#45;&gt;node6 -->
<g id="edge16" class="edge">
<title>node4&#45;&gt;node6</title>
<path fill="none" stroke="green" d="M709,-145.81C709,-137.79 709,-128.05 709,-119.07"/>
<polygon fill="green" stroke="green" points="712.5,-119.03 709,-109.03 705.5,-119.03 712.5,-119.03"/>
</g>
<!-- node4&#45;&gt;node6 -->
<g id="edge17" class="edge">
<title>node4&#45;&gt;node6</title>
<path fill="none" stroke="red" d="M720.76,-145.81C722.44,-137.79 722.9,-128.05 722.16,-119.07"/>
<polygon fill="red" stroke="red" points="725.6,-118.43 720.72,-109.03 718.67,-119.42 725.6,-118.43"/>
</g>
<!-- node5&#45;&gt;node2 -->
<g id="edge11" class="edge">
<title>node5&#45;&gt;node2</title>
<path fill="none" stroke="fuchsia" stroke-width="2" d="M401.86,-182.03C402.71,-190.03 402.95,-199.77 402.59,-208.75"/>
<polygon fill="fuchsia" stroke="fuchsia" stroke-width="2" points="399.09,-208.59 401.88,-218.81 406.07,-209.08 399.09,-208.59"/>
</g>
<!-- node5&#45;&gt;node6 -->
<g id="edge15" class="edge">
<title>node5&#45;&gt;node6</title>
<path fill="none" stroke="black" d="M458.21,-148.89C505.7,-138.12 571.64,-123.16 623.99,-111.28"/>
<polygon fill="black" stroke="black" points="624.96,-114.65 633.93,-109.03 623.41,-107.83 624.96,-114.65"/>
<text text-anchor="middle" x="618.13" y="-117.58" font-family="Times,serif" font-size="14.00">*1</text>
</g>
<!-- node6&#45;&gt;node0 -->
<g id="edge13" class="edge">
<title>node6&#45;&gt;node0</title>
<path fill="none" stroke="fuchsia" stroke-width="2" d="M782.68,-109.1C868.04,-132.73 991.61,-181.02 947,-255 937.66,-270.49 928.42,-269.11 911,-274 788.57,-308.34 749.43,-277.39 622.43,-291.55"/>
<polygon fill="fuchsia" stroke="fuchsia" stroke-width="2" points="621.84,-288.09 612.33,-292.75 622.67,-295.05 621.84,-288.09"/>
</g>
<!-- node7 -->
<g id="node8" class="node">
<title>node7</title>
<polygon fill="lightgrey" stroke="black" points="825.5,-36 592.5,-36 592.5,0 825.5,0 825.5,-36"/>
<text text-anchor="middle" x="709" y="-14.3" font-family="Times,serif" font-size="14.00">#7 ReturnValue : int Order : 7</text>
</g>
<!-- node6&#45;&gt;node7 -->
<g id="edge19" class="edge">
<title>node6&#45;&gt;node7</title>
<path fill="none" stroke="black" d="M691.37,-72.81C688.85,-64.79 688.15,-55.05 689.27,-46.07"/>
<polygon fill="black" stroke="black" points="692.74,-46.54 691.42,-36.03 685.9,-45.07 692.74,-46.54"/>
<text text-anchor="middle" x="695.89" y="-51.82" font-family="Times,serif" font-size="14.00">*0</text>
</g>
<!-- node6&#45;&gt;node7 -->
<g id="edge20" class="edge">
<title>node6&#45;&gt;node7</title>
<path fill="none" stroke="red" d="M714.88,-72.81C715.72,-64.79 715.95,-55.05 715.58,-46.07"/>
<polygon fill="red" stroke="red" points="719.06,-45.75 714.86,-36.03 712.08,-46.25 719.06,-45.75"/>
</g>
<!-- node6&#45;&gt;node7 -->
<g id="edge21" class="edge">
<title>node6&#45;&gt;node7</title>
<path fill="none" stroke="green" d="M726.63,-72.81C729.15,-64.79 729.85,-55.05 728.73,-46.07"/>
<polygon fill="green" stroke="green" points="732.1,-45.07 726.58,-36.03 725.26,-46.54 732.1,-45.07"/>
</g>
<!-- node7&#45;&gt;node6 -->
<g id="edge18" class="edge">
<title>node7&#45;&gt;node6</title>
<path fill="none" stroke="fuchsia" stroke-width="2" d="M703.14,-36.03C702.29,-44.03 702.05,-53.77 702.41,-62.75"/>
<polygon fill="fuchsia" stroke="fuchsia" stroke-width="2" points="698.93,-63.08 703.12,-72.81 705.91,-62.59 698.93,-63.08"/>
</g>
<!-- c0 -->
<!-- c1 -->
<!-- c0&#45;&gt;c1 -->
<g id="edge22" class="edge">
<title>c0&#45;&gt;c1</title>
<path fill="none" stroke="red" d="M1480.89,-310C1492.11,-310 1550.24,-310 1575.86,-310"/>
<polygon fill="red" stroke="red" points="1576.06,-313.5 1586.06,-310 1576.06,-306.5 1576.06,-313.5"/>
<text text-anchor="middle" x="1533.5" y="-316.8" font-family="Times,serif" font-size="14.00">Control flow</text>
</g>
<!-- c2 -->
<!-- c3 -->
<!-- c2&#45;&gt;c3 -->
<g id="edge23" class="edge">
<title>c2&#45;&gt;c3</title>
<path fill="none" stroke="red" stroke-dasharray="5,2" d="M1274.08,-310C1291.05,-310 1407.21,-310 1445.08,-310"/>
<polygon fill="red" stroke="red" points="1445.17,-313.5 1455.17,-310 1445.17,-306.5 1445.17,-313.5"/>
<text text-anchor="middle" x="1364.5" y="-316.8" font-family="Times,serif" font-size="14.00">Control flow back edge</text>
</g>
<!-- d0 -->
<!-- d1 -->
<!-- d0&#45;&gt;d1 -->
<g id="edge24" class="edge">
<title>d0&#45;&gt;d1</title>
<path fill="none" stroke="black" d="M1162.86,-310C1172.41,-310 1216.31,-310 1237.92,-310"/>
<polygon fill="black" stroke="black" points="1238.15,-313.5 1248.15,-310 1238.15,-306.5 1238.15,-313.5"/>
<text text-anchor="middle" x="1205.5" y="-316.8" font-family="Times,serif" font-size="14.00">Data flow</text>
</g>
<!-- d2 -->
<!-- d3 -->
<!-- d2&#45;&gt;d3 -->
<g id="edge25" class="edge">
<title>d2&#45;&gt;d3</title>
<path fill="none" stroke="black" stroke-dasharray="1,5" d="M1036.81,-310C1047.46,-310 1102.46,-310 1127.08,-310"/>
<polygon fill="black" stroke="black" points="1127.15,-313.5 1137.15,-310 1127.15,-306.5 1127.15,-313.5"/>
<text text-anchor="middle" x="1087" y="-316.8" font-family="Times,serif" font-size="14.00">Declaration</text>
</g>
<!-- d4 -->
<!-- d5 -->
<!-- d4&#45;&gt;d5 -->
<g id="edge26" class="edge">
<title>d4&#45;&gt;d5</title>
<path fill="none" stroke="blue" d="M894.1,-310C906.72,-310 972.88,-310 1000.68,-310"/>
<polygon fill="blue" stroke="blue" points="1000.84,-313.5 1010.84,-310 1000.84,-306.5 1000.84,-313.5"/>
<text text-anchor="middle" x="952.5" y="-316.8" font-family="Times,serif" font-size="14.00">PHI Data flow</text>
</g>
<!-- d6 -->
<!-- d7 -->
<!-- d6&#45;&gt;d7 -->
<g id="edge27" class="edge">
<title>d6&#45;&gt;d7</title>
<path fill="none" stroke="green" d="M757,-310C768.94,-310 831.3,-310 857.93,-310"/>
<polygon fill="green" stroke="green" points="857.95,-313.5 867.95,-310 857.95,-306.5 857.95,-313.5"/>
<text text-anchor="middle" x="812.5" y="-316.8" font-family="Times,serif" font-size="14.00">Memory flow</text>
</g>
<!-- d8 -->
<!-- d9 -->
<!-- d8&#45;&gt;d9 -->
<g id="edge28" class="edge">
<title>d8&#45;&gt;d9</title>
<path fill="none" stroke="fuchsia" d="M634.11,-310C645.15,-310 696.67,-310 720.66,-310"/>
<polygon fill="fuchsia" stroke="fuchsia" points="720.9,-313.5 730.9,-310 720.9,-306.5 720.9,-313.5"/>
<text text-anchor="middle" x="682.5" y="-316.8" font-family="Times,serif" font-size="14.00">Dominance</text>
</g>
</g>
</svg>
