<?xml version="1.0" encoding="UTF-8" standalone="no"?>
<!DOCTYPE svg PUBLIC "-//W3C//DTD SVG 1.1//EN"
 "http://www.w3.org/Graphics/SVG/1.1/DTD/svg11.dtd">
<!-- Generated by graphviz version 2.43.0 (0)
 -->
<!-- Title: %3 Pages: 1 -->
<svg width="1640pt" height="443pt"
 viewBox="0.00 0.00 1639.80 443.00" xmlns="http://www.w3.org/2000/svg" xmlns:xlink="http://www.w3.org/1999/xlink">
<g id="graph0" class="graph" transform="scale(1 1) rotate(0) translate(4 439)">
<title>%3</title>
<polygon fill="white" stroke="transparent" points="-4,4 -4,-439 1635.8,-439 1635.8,4 -4,4"/>
<g id="clust1" class="cluster">
<title>cluster_0</title>
<polygon fill="none" stroke="lightgray" points="384.8,-284 384.8,-427 762.8,-427 762.8,-284 384.8,-284"/>
</g>
<g id="clust2" class="cluster">
<title>cluster_000</title>
<polygon fill="none" stroke="black" points="770.8,-382.2 770.8,-424.8 1623.8,-424.8 1623.8,-382.2 770.8,-382.2"/>
<text text-anchor="middle" x="1197.3" y="-409.6" font-family="Times,serif" font-size="14.00">Legend</text>
</g>
<!-- node0 -->
<g id="node1" class="node">
<title>node0</title>
<polygon fill="lightgrey" stroke="transparent" points="608.3,-419 441.3,-419 441.3,-365 608.3,-365 608.3,-419"/>
<polygon fill="none" stroke="black" points="441.8,-392 441.8,-419 608.8,-419 608.8,-392 441.8,-392"/>
<text text-anchor="start" x="484.8" y="-401.8" font-family="Times,serif" font-size="14.00">#0 Method</text>
<polygon fill="yellow" stroke="transparent" points="441.8,-365 441.8,-392 608.8,-392 608.8,-365 441.8,-365"/>
<polygon fill="none" stroke="black" points="441.8,-365 441.8,-392 608.8,-392 608.8,-365 441.8,-365"/>
<text text-anchor="start" x="447.8" y="-374.8" font-family="Times,serif" font-size="14.00">this : FieldAccessTest</text>
</g>
<!-- node7 -->
<g id="node2" class="node">
<title>node7</title>
<polygon fill="lightgrey" stroke="black" points="375.3,-328 256.3,-328 256.3,-292 375.3,-292 375.3,-328"/>
<text text-anchor="middle" x="315.8" y="-306.3" font-family="Times,serif" font-size="14.00">#7 LabelNode</text>
</g>
<!-- node0&#45;&gt;node7 -->
<g id="edge1" class="edge">
<title>node0&#45;&gt;node7</title>
<path fill="none" stroke="red" d="M456.66,-364.92C428.54,-354.15 396.42,-341.86 369.95,-331.73"/>
<polygon fill="red" stroke="red" points="371.07,-328.41 360.48,-328.1 368.57,-334.94 371.07,-328.41"/>
</g>
<!-- node1 -->
<g id="node3" class="node">
<title>node1</title>
<polygon fill="lightgrey" stroke="black" points="496.3,-255 391.3,-255 391.3,-219 496.3,-219 496.3,-255"/>
<text text-anchor="middle" x="443.8" y="-233.3" font-family="Times,serif" font-size="14.00">#1 ClassInit</text>
</g>
<!-- node0&#45;&gt;node1 -->
<g id="edge4" class="edge">
<title>node0&#45;&gt;node1</title>
<path fill="none" stroke="green" d="M608.62,-382.11C695.96,-369.6 813.67,-341.55 763.8,-284 731.21,-246.39 590.19,-238.81 506.62,-237.71"/>
<polygon fill="green" stroke="green" points="506.51,-234.21 496.48,-237.6 506.44,-241.21 506.51,-234.21"/>
</g>
<!-- node8 -->
<g id="node4" class="node">
<title>node8</title>
<polygon fill="lightgreen" stroke="black" points="754.4,-302.54 754.4,-317.46 648.61,-328 499,-328 393.21,-317.46 393.21,-302.54 499,-292 648.61,-292 754.4,-302.54"/>
<text text-anchor="middle" x="573.8" y="-306.3" font-family="Times,serif" font-size="14.00">#8 Class FieldAccessTest$Source</text>
</g>
<!-- node0&#45;&gt;node8 -->
<g id="edge5" class="edge">
<title>node0&#45;&gt;node8</title>
<path fill="none" stroke="black" stroke-dasharray="1,5" d="M540.85,-364.81C546.37,-355.78 552.55,-345.69 558.06,-336.71"/>
<polygon fill="black" stroke="black" points="561.05,-338.53 563.28,-328.17 555.08,-334.87 561.05,-338.53"/>
</g>
<!-- node7&#45;&gt;node1 -->
<g id="edge3" class="edge">
<title>node7&#45;&gt;node1</title>
<path fill="none" stroke="red" d="M346.46,-291.99C363.75,-282.4 385.54,-270.32 404.12,-260.01"/>
<polygon fill="red" stroke="red" points="405.9,-263.02 412.95,-255.11 402.51,-256.9 405.9,-263.02"/>
</g>
<!-- node3 -->
<g id="node5" class="node">
<title>node3</title>
<polygon fill="orange" stroke="black" points="455.92,-156.54 455.92,-171.46 425.39,-182 382.22,-182 351.69,-171.46 351.69,-156.54 382.22,-146 425.39,-146 455.92,-156.54"/>
<text text-anchor="middle" x="403.8" y="-160.3" font-family="Times,serif" font-size="14.00">#3 New</text>
</g>
<!-- node1&#45;&gt;node3 -->
<g id="edge6" class="edge">
<title>node1&#45;&gt;node3</title>
<path fill="none" stroke="black" d="M428.24,-218.81C422.71,-210.53 416.79,-200.41 412.02,-191.19"/>
<polygon fill="black" stroke="black" points="415.08,-189.47 407.54,-182.03 408.79,-192.55 415.08,-189.47"/>
<text text-anchor="middle" x="423.1" y="-190.89" font-family="Times,serif" font-size="14.00">*0</text>
</g>
<!-- node1&#45;&gt;node3 -->
<g id="edge7" class="edge">
<title>node1&#45;&gt;node3</title>
<path fill="none" stroke="green" d="M440,-218.81C436.12,-210.35 430.49,-199.98 424.74,-190.61"/>
<polygon fill="green" stroke="green" points="427.59,-188.57 419.26,-182.03 421.69,-192.34 427.59,-188.57"/>
</g>
<!-- node2 -->
<g id="node6" class="node">
<title>node2</title>
<polygon fill="lightgrey" stroke="black" points="608.8,-109 358.8,-109 358.8,-73 608.8,-73 608.8,-109"/>
<text text-anchor="middle" x="483.8" y="-87.3" font-family="Times,serif" font-size="14.00">#2 Invoke special &lt;init&gt; : ()void</text>
</g>
<!-- node1&#45;&gt;node2 -->
<g id="edge9" class="edge">
<title>node1&#45;&gt;node2</title>
<path fill="none" stroke="red" d="M451.34,-218.74C455.71,-208.26 461.07,-194.53 464.8,-182 470.99,-161.24 475.95,-137.22 479.25,-119.22"/>
<polygon fill="red" stroke="red" points="482.74,-119.58 481.04,-109.13 475.85,-118.36 482.74,-119.58"/>
</g>
<!-- node8&#45;&gt;node1 -->
<g id="edge2" class="edge">
<title>node8&#45;&gt;node1</title>
<path fill="none" stroke="black" d="M542.67,-291.99C525.11,-282.4 502.97,-270.32 484.1,-260.01"/>
<polygon fill="black" stroke="black" points="485.59,-256.84 475.14,-255.11 482.24,-262.98 485.59,-256.84"/>
<text text-anchor="middle" x="495.1" y="-252.68" font-family="Times,serif" font-size="14.00">*0</text>
</g>
<!-- node3&#45;&gt;node2 -->
<g id="edge8" class="edge">
<title>node3&#45;&gt;node2</title>
<path fill="none" stroke="black" d="M417.29,-145.81C426.56,-136.74 439.08,-125.48 450.81,-115.6"/>
<polygon fill="black" stroke="black" points="453.28,-118.1 458.75,-109.03 448.82,-112.71 453.28,-118.1"/>
<text text-anchor="middle" x="450.18" y="-123.4" font-family="Times,serif" font-size="14.00">*0</text>
</g>
<!-- node3&#45;&gt;node2 -->
<g id="edge10" class="edge">
<title>node3&#45;&gt;node2</title>
<path fill="none" stroke="green" d="M428.16,-146.53C439.34,-137.5 452.35,-126.13 463.06,-116.12"/>
<polygon fill="green" stroke="green" points="465.57,-118.56 470.39,-109.12 460.74,-113.5 465.57,-118.56"/>
</g>
<!-- node4 -->
<g id="node8" class="node">
<title>node4</title>
<polygon fill="orange" stroke="black" points="323.41,-83.54 323.41,-98.46 228.74,-109 94.86,-109 0.2,-98.46 0.2,-83.54 94.86,-73 228.74,-73 323.41,-83.54"/>
<text text-anchor="middle" x="161.8" y="-87.3" font-family="Times,serif" font-size="14.00">#4 GetField : long_field : long</text>
</g>
<!-- node3&#45;&gt;node4 -->
<g id="edge14" class="edge">
<title>node3&#45;&gt;node4</title>
<path fill="none" stroke="black" d="M365.46,-151.75C329.03,-141.06 273.46,-124.76 229.56,-111.88"/>
<polygon fill="black" stroke="black" points="230.39,-108.48 219.81,-109.02 228.42,-115.19 230.39,-108.48"/>
<text text-anchor="middle" x="239.59" y="-102.31" font-family="Times,serif" font-size="14.00">*0</text>
</g>
<!-- node5 -->
<g id="node7" class="node">
<title>node5</title>
<polygon fill="lightgrey" stroke="black" points="410.3,-36 235.3,-36 235.3,0 410.3,0 410.3,-36"/>
<text text-anchor="middle" x="322.8" y="-14.3" font-family="Times,serif" font-size="14.00">#5 ReturnValue : long</text>
</g>
<!-- node2&#45;&gt;node5 -->
<g id="edge12" class="edge">
<title>node2&#45;&gt;node5</title>
<path fill="none" stroke="red" d="M445.24,-72.99C422.9,-63.14 394.59,-50.66 370.81,-40.17"/>
<polygon fill="red" stroke="red" points="372.17,-36.95 361.61,-36.11 369.35,-43.35 372.17,-36.95"/>
</g>
<!-- node2&#45;&gt;node4 -->
<g id="edge15" class="edge">
<title>node2&#45;&gt;node4</title>
<path fill="none" stroke="green" d="M358.51,-91C350.2,-91 341.89,-91 333.57,-91"/>
<polygon fill="green" stroke="green" points="333.43,-87.5 323.43,-91 333.43,-94.5 333.43,-87.5"/>
</g>
<!-- node4&#45;&gt;node5 -->
<g id="edge11" class="edge">
<title>node4&#45;&gt;node5</title>
<path fill="none" stroke="black" d="M194.51,-72.99C215.89,-63.1 244.24,-50.54 268.88,-40.03"/>
<polygon fill="black" stroke="black" points="270.29,-43.24 278.13,-36.11 267.55,-36.8 270.29,-43.24"/>
<text text-anchor="middle" x="264.74" y="-47.27" font-family="Times,serif" font-size="14.00">*0</text>
</g>
<!-- node4&#45;&gt;node5 -->
<g id="edge13" class="edge">
<title>node4&#45;&gt;node5</title>
<path fill="none" stroke="green" d="M206.23,-72.99C229.51,-63.19 257.8,-50.77 280.72,-40.31"/>
<polygon fill="green" stroke="green" points="282.24,-43.47 289.87,-36.11 279.32,-37.11 282.24,-43.47"/>
</g>
<!-- c0 -->
<!-- c1 -->
<!-- c0&#45;&gt;c1 -->
<g id="edge16" class="edge">
<title>c0&#45;&gt;c1</title>
<path fill="none" stroke="red" d="M1506.7,-392C1517.91,-392 1576.05,-392 1601.66,-392"/>
<polygon fill="red" stroke="red" points="1601.86,-395.5 1611.86,-392 1601.86,-388.5 1601.86,-395.5"/>
<text text-anchor="middle" x="1559.3" y="-398.8" font-family="Times,serif" font-size="14.00">Control flow</text>
</g>
<!-- c2 -->
<!-- c3 -->
<!-- c2&#45;&gt;c3 -->
<g id="edge17" class="edge">
<title>c2&#45;&gt;c3</title>
<path fill="none" stroke="red" stroke-dasharray="5,2" d="M1299.88,-392C1316.85,-392 1433.01,-392 1470.89,-392"/>
<polygon fill="red" stroke="red" points="1470.97,-395.5 1480.97,-392 1470.97,-388.5 1470.97,-395.5"/>
<text text-anchor="middle" x="1390.3" y="-398.8" font-family="Times,serif" font-size="14.00">Control flow back edge</text>
</g>
<!-- d0 -->
<!-- d1 -->
<!-- d0&#45;&gt;d1 -->
<g id="edge18" class="edge">
<title>d0&#45;&gt;d1</title>
<path fill="none" stroke="black" d="M1188.66,-392C1198.21,-392 1242.11,-392 1263.72,-392"/>
<polygon fill="black" stroke="black" points="1263.95,-395.5 1273.95,-392 1263.95,-388.5 1263.95,-395.5"/>
<text text-anchor="middle" x="1231.3" y="-398.8" font-family="Times,serif" font-size="14.00">Data flow</text>
</g>
<!-- d2 -->
<!-- d3 -->
<!-- d2&#45;&gt;d3 -->
<g id="edge19" class="edge">
<title>d2&#45;&gt;d3</title>
<path fill="none" stroke="black" stroke-dasharray="1,5" d="M1062.61,-392C1073.26,-392 1128.27,-392 1152.88,-392"/>
<polygon fill="black" stroke="black" points="1152.95,-395.5 1162.95,-392 1152.95,-388.5 1152.95,-395.5"/>
<text text-anchor="middle" x="1112.8" y="-398.8" font-family="Times,serif" font-size="14.00">Declaration</text>
</g>
<!-- d4 -->
<!-- d5 -->
<!-- d4&#45;&gt;d5 -->
<g id="edge20" class="edge">
<title>d4&#45;&gt;d5</title>
<path fill="none" stroke="blue" d="M919.9,-392C932.52,-392 998.68,-392 1026.48,-392"/>
<polygon fill="blue" stroke="blue" points="1026.65,-395.5 1036.65,-392 1026.65,-388.5 1026.65,-395.5"/>
<text text-anchor="middle" x="978.3" y="-398.8" font-family="Times,serif" font-size="14.00">PHI Data flow</text>
</g>
<!-- d6 -->
<!-- d7 -->
<!-- d6&#45;&gt;d7 -->
<g id="edge21" class="edge">
<title>d6&#45;&gt;d7</title>
<path fill="none" stroke="green" d="M782.8,-392C794.74,-392 857.1,-392 883.73,-392"/>
<polygon fill="green" stroke="green" points="883.75,-395.5 893.75,-392 883.75,-388.5 883.75,-395.5"/>
<text text-anchor="middle" x="838.3" y="-398.8" font-family="Times,serif" font-size="14.00">Memory flow</text>
</g>
</g>
</svg>
