<?xml version="1.0" encoding="UTF-8" standalone="no"?>
<!DOCTYPE svg PUBLIC "-//W3C//DTD SVG 1.1//EN"
 "http://www.w3.org/Graphics/SVG/1.1/DTD/svg11.dtd">
<!-- Generated by graphviz version 2.43.0 (0)
 -->
<!-- Title: %3 Pages: 1 -->
<svg width="1386pt" height="514pt"
 viewBox="0.00 0.00 1385.80 513.80" xmlns="http://www.w3.org/2000/svg" xmlns:xlink="http://www.w3.org/1999/xlink">
<g id="graph0" class="graph" transform="scale(1 1) rotate(0) translate(4 509.8)">
<title>%3</title>
<polygon fill="white" stroke="transparent" points="-4,4 -4,-509.8 1381.8,-509.8 1381.8,4 -4,4"/>
<g id="clust1" class="cluster">
<title>cluster_0</title>
<polygon fill="none" stroke="lightgray" points="144.8,-284 144.8,-409 522.8,-409 522.8,-284 144.8,-284"/>
</g>
<g id="clust2" class="cluster">
<title>cluster_000</title>
<polygon fill="none" stroke="black" points="516.8,-455.2 516.8,-497.8 1369.8,-497.8 1369.8,-455.2 516.8,-455.2"/>
<text text-anchor="middle" x="943.3" y="-482.6" font-family="Times,serif" font-size="14.00">Legend</text>
</g>
<!-- node0 -->
<g id="node1" class="node">
<title>node0</title>
<polygon fill="lightgrey" stroke="transparent" points="507.3,-492 340.3,-492 340.3,-438 507.3,-438 507.3,-492"/>
<polygon fill="none" stroke="black" points="340.8,-465 340.8,-492 507.8,-492 507.8,-465 340.8,-465"/>
<text text-anchor="start" x="383.8" y="-474.8" font-family="Times,serif" font-size="14.00">#0 Method</text>
<polygon fill="yellow" stroke="transparent" points="340.8,-438 340.8,-465 507.8,-465 507.8,-438 340.8,-438"/>
<polygon fill="none" stroke="black" points="340.8,-438 340.8,-465 507.8,-465 507.8,-438 340.8,-438"/>
<text text-anchor="start" x="346.8" y="-447.8" font-family="Times,serif" font-size="14.00">this : FieldAccessTest</text>
</g>
<!-- node4 -->
<g id="node2" class="node">
<title>node4</title>
<polygon fill="lightgrey" stroke="black" points="496.3,-255 391.3,-255 391.3,-219 496.3,-219 496.3,-255"/>
<text text-anchor="middle" x="443.8" y="-233.3" font-family="Times,serif" font-size="14.00">#4 ClassInit</text>
</g>
<!-- node0&#45;&gt;node4 -->
<g id="edge3" class="edge">
<title>node0&#45;&gt;node4</title>
<path fill="none" stroke="green" d="M340.12,-460.9C236.06,-454.17 79.19,-432.8 140.8,-365 198.76,-301.23 468.85,-391.77 526.8,-328 539.95,-313.53 536.73,-300.85 526.8,-284 521.05,-274.23 512.39,-266.39 502.8,-260.14"/>
<polygon fill="green" stroke="green" points="504.57,-257.13 494.18,-255.06 501.02,-263.15 504.57,-257.13"/>
</g>
<!-- node2 -->
<g id="node4" class="node">
<title>node2</title>
<polygon fill="lightgrey" stroke="black" points="483.3,-401 364.3,-401 364.3,-365 483.3,-365 483.3,-401"/>
<text text-anchor="middle" x="423.8" y="-379.3" font-family="Times,serif" font-size="14.00">#2 LabelNode</text>
</g>
<!-- node0&#45;&gt;node2 -->
<g id="edge4" class="edge">
<title>node0&#45;&gt;node2</title>
<path fill="none" stroke="red" d="M423.8,-437.81C423.8,-429.35 423.8,-419.95 423.8,-411.4"/>
<polygon fill="red" stroke="red" points="427.3,-411.17 423.8,-401.17 420.3,-411.17 427.3,-411.17"/>
</g>
<!-- node5 -->
<g id="node5" class="node">
<title>node5</title>
<polygon fill="orange" stroke="black" points="455.92,-156.54 455.92,-171.46 425.39,-182 382.22,-182 351.69,-171.46 351.69,-156.54 382.22,-146 425.39,-146 455.92,-156.54"/>
<text text-anchor="middle" x="403.8" y="-160.3" font-family="Times,serif" font-size="14.00">#5 New</text>
</g>
<!-- node4&#45;&gt;node5 -->
<g id="edge6" class="edge">
<title>node4&#45;&gt;node5</title>
<path fill="none" stroke="black" d="M428.24,-218.81C422.71,-210.53 416.79,-200.41 412.02,-191.19"/>
<polygon fill="black" stroke="black" points="415.08,-189.47 407.54,-182.03 408.79,-192.55 415.08,-189.47"/>
<text text-anchor="middle" x="423.1" y="-190.89" font-family="Times,serif" font-size="14.00">*0</text>
</g>
<!-- node4&#45;&gt;node5 -->
<g id="edge7" class="edge">
<title>node4&#45;&gt;node5</title>
<path fill="none" stroke="green" d="M440,-218.81C436.12,-210.35 430.49,-199.98 424.74,-190.61"/>
<polygon fill="green" stroke="green" points="427.59,-188.57 419.26,-182.03 421.69,-192.34 427.59,-188.57"/>
</g>
<!-- node6 -->
<g id="node7" class="node">
<title>node6</title>
<polygon fill="lightgrey" stroke="black" points="608.8,-109 358.8,-109 358.8,-73 608.8,-73 608.8,-109"/>
<text text-anchor="middle" x="483.8" y="-87.3" font-family="Times,serif" font-size="14.00">#6 Invoke special &lt;init&gt; : ()void</text>
</g>
<!-- node4&#45;&gt;node6 -->
<g id="edge11" class="edge">
<title>node4&#45;&gt;node6</title>
<path fill="none" stroke="red" d="M451.34,-218.74C455.71,-208.26 461.07,-194.53 464.8,-182 470.99,-161.24 475.95,-137.22 479.25,-119.22"/>
<polygon fill="red" stroke="red" points="482.74,-119.58 481.04,-109.13 475.85,-118.36 482.74,-119.58"/>
</g>
<!-- node3 -->
<g id="node3" class="node">
<title>node3</title>
<polygon fill="lightgreen" stroke="black" points="514.4,-302.54 514.4,-317.46 408.61,-328 259,-328 153.21,-317.46 153.21,-302.54 259,-292 408.61,-292 514.4,-302.54"/>
<text text-anchor="middle" x="333.8" y="-306.3" font-family="Times,serif" font-size="14.00">#3 Class FieldAccessTest$Source</text>
</g>
<!-- node3&#45;&gt;node4 -->
<g id="edge1" class="edge">
<title>node3&#45;&gt;node4</title>
<path fill="none" stroke="black" d="M360.15,-291.99C374.74,-282.58 393.06,-270.76 408.83,-260.57"/>
<polygon fill="black" stroke="black" points="410.79,-263.48 417.29,-255.11 406.99,-257.6 410.79,-263.48"/>
<text text-anchor="middle" x="406.64" y="-268.34" font-family="Times,serif" font-size="14.00">*0</text>
</g>
<!-- node2&#45;&gt;node4 -->
<g id="edge2" class="edge">
<title>node2&#45;&gt;node4</title>
<path fill="none" stroke="red" d="M483.32,-374.37C516.34,-368.79 552.74,-359.91 562.8,-347 580.09,-324.82 573.61,-306.55 556.8,-284 544.52,-267.51 525.29,-256.91 506.16,-250.11"/>
<polygon fill="red" stroke="red" points="507.1,-246.73 496.51,-246.97 504.94,-253.39 507.1,-246.73"/>
</g>
<!-- node2&#45;&gt;node3 -->
<g id="edge5" class="edge">
<title>node2&#45;&gt;node3</title>
<path fill="none" stroke="black" stroke-dasharray="1,5" d="M402.02,-364.81C390.41,-355.66 375.96,-344.26 363.36,-334.32"/>
<polygon fill="black" stroke="black" points="365.41,-331.47 355.39,-328.03 361.07,-336.97 365.41,-331.47"/>
</g>
<!-- node7 -->
<g id="node6" class="node">
<title>node7</title>
<polygon fill="orange" stroke="black" points="323.41,-83.54 323.41,-98.46 228.74,-109 94.86,-109 0.2,-98.46 0.2,-83.54 94.86,-73 228.74,-73 323.41,-83.54"/>
<text text-anchor="middle" x="161.8" y="-87.3" font-family="Times,serif" font-size="14.00">#7 GetField : long_field : long</text>
</g>
<!-- node5&#45;&gt;node7 -->
<g id="edge8" class="edge">
<title>node5&#45;&gt;node7</title>
<path fill="none" stroke="black" d="M365.46,-151.75C329.03,-141.06 273.46,-124.76 229.56,-111.88"/>
<polygon fill="black" stroke="black" points="230.39,-108.48 219.81,-109.02 228.42,-115.19 230.39,-108.48"/>
<text text-anchor="middle" x="239.59" y="-102.31" font-family="Times,serif" font-size="14.00">*0</text>
</g>
<!-- node5&#45;&gt;node6 -->
<g id="edge10" class="edge">
<title>node5&#45;&gt;node6</title>
<path fill="none" stroke="black" d="M417.29,-145.81C426.56,-136.74 439.08,-125.48 450.81,-115.6"/>
<polygon fill="black" stroke="black" points="453.28,-118.1 458.75,-109.03 448.82,-112.71 453.28,-118.1"/>
<text text-anchor="middle" x="450.18" y="-123.4" font-family="Times,serif" font-size="14.00">*0</text>
</g>
<!-- node5&#45;&gt;node6 -->
<g id="edge12" class="edge">
<title>node5&#45;&gt;node6</title>
<path fill="none" stroke="green" d="M428.16,-146.53C439.34,-137.5 452.35,-126.13 463.06,-116.12"/>
<polygon fill="green" stroke="green" points="465.57,-118.56 470.39,-109.12 460.74,-113.5 465.57,-118.56"/>
</g>
<!-- node8 -->
<g id="node8" class="node">
<title>node8</title>
<polygon fill="lightgrey" stroke="black" points="410.3,-36 235.3,-36 235.3,0 410.3,0 410.3,-36"/>
<text text-anchor="middle" x="322.8" y="-14.3" font-family="Times,serif" font-size="14.00">#8 ReturnValue : long</text>
</g>
<!-- node7&#45;&gt;node8 -->
<g id="edge13" class="edge">
<title>node7&#45;&gt;node8</title>
<path fill="none" stroke="black" d="M194.51,-72.99C215.89,-63.1 244.24,-50.54 268.88,-40.03"/>
<polygon fill="black" stroke="black" points="270.29,-43.24 278.13,-36.11 267.55,-36.8 270.29,-43.24"/>
<text text-anchor="middle" x="264.74" y="-47.27" font-family="Times,serif" font-size="14.00">*0</text>
</g>
<!-- node7&#45;&gt;node8 -->
<g id="edge15" class="edge">
<title>node7&#45;&gt;node8</title>
<path fill="none" stroke="green" d="M206.23,-72.99C229.51,-63.19 257.8,-50.77 280.72,-40.31"/>
<polygon fill="green" stroke="green" points="282.24,-43.47 289.87,-36.11 279.32,-37.11 282.24,-43.47"/>
</g>
<!-- node6&#45;&gt;node7 -->
<g id="edge9" class="edge">
<title>node6&#45;&gt;node7</title>
<path fill="none" stroke="green" d="M358.51,-91C350.2,-91 341.89,-91 333.57,-91"/>
<polygon fill="green" stroke="green" points="333.43,-87.5 323.43,-91 333.43,-94.5 333.43,-87.5"/>
</g>
<!-- node6&#45;&gt;node8 -->
<g id="edge14" class="edge">
<title>node6&#45;&gt;node8</title>
<path fill="none" stroke="red" d="M445.24,-72.99C422.9,-63.14 394.59,-50.66 370.81,-40.17"/>
<polygon fill="red" stroke="red" points="372.17,-36.95 361.61,-36.11 369.35,-43.35 372.17,-36.95"/>
</g>
<!-- c0 -->
<!-- c1 -->
<!-- c0&#45;&gt;c1 -->
<g id="edge16" class="edge">
<title>c0&#45;&gt;c1</title>
<path fill="none" stroke="red" d="M1252.7,-465C1263.91,-465 1322.05,-465 1347.66,-465"/>
<polygon fill="red" stroke="red" points="1347.86,-468.5 1357.86,-465 1347.86,-461.5 1347.86,-468.5"/>
<text text-anchor="middle" x="1305.3" y="-471.8" font-family="Times,serif" font-size="14.00">Control flow</text>
</g>
<!-- c2 -->
<!-- c3 -->
<!-- c2&#45;&gt;c3 -->
<g id="edge17" class="edge">
<title>c2&#45;&gt;c3</title>
<path fill="none" stroke="red" stroke-dasharray="5,2" d="M1045.88,-465C1062.85,-465 1179.01,-465 1216.89,-465"/>
<polygon fill="red" stroke="red" points="1216.97,-468.5 1226.97,-465 1216.97,-461.5 1216.97,-468.5"/>
<text text-anchor="middle" x="1136.3" y="-471.8" font-family="Times,serif" font-size="14.00">Control flow back edge</text>
</g>
<!-- d0 -->
<!-- d1 -->
<!-- d0&#45;&gt;d1 -->
<g id="edge18" class="edge">
<title>d0&#45;&gt;d1</title>
<path fill="none" stroke="black" d="M934.66,-465C944.21,-465 988.11,-465 1009.72,-465"/>
<polygon fill="black" stroke="black" points="1009.95,-468.5 1019.95,-465 1009.95,-461.5 1009.95,-468.5"/>
<text text-anchor="middle" x="977.3" y="-471.8" font-family="Times,serif" font-size="14.00">Data flow</text>
</g>
<!-- d2 -->
<!-- d3 -->
<!-- d2&#45;&gt;d3 -->
<g id="edge19" class="edge">
<title>d2&#45;&gt;d3</title>
<path fill="none" stroke="black" stroke-dasharray="1,5" d="M808.61,-465C819.26,-465 874.27,-465 898.88,-465"/>
<polygon fill="black" stroke="black" points="898.95,-468.5 908.95,-465 898.95,-461.5 898.95,-468.5"/>
<text text-anchor="middle" x="858.8" y="-471.8" font-family="Times,serif" font-size="14.00">Declaration</text>
</g>
<!-- d4 -->
<!-- d5 -->
<!-- d4&#45;&gt;d5 -->
<g id="edge20" class="edge">
<title>d4&#45;&gt;d5</title>
<path fill="none" stroke="blue" d="M665.9,-465C678.52,-465 744.68,-465 772.48,-465"/>
<polygon fill="blue" stroke="blue" points="772.65,-468.5 782.65,-465 772.65,-461.5 772.65,-468.5"/>
<text text-anchor="middle" x="724.3" y="-471.8" font-family="Times,serif" font-size="14.00">PHI Data flow</text>
</g>
<!-- d6 -->
<!-- d7 -->
<!-- d6&#45;&gt;d7 -->
<g id="edge21" class="edge">
<title>d6&#45;&gt;d7</title>
<path fill="none" stroke="green" d="M528.8,-465C540.74,-465 603.1,-465 629.73,-465"/>
<polygon fill="green" stroke="green" points="629.75,-468.5 639.75,-465 629.75,-461.5 629.75,-468.5"/>
<text text-anchor="middle" x="584.3" y="-471.8" font-family="Times,serif" font-size="14.00">Memory flow</text>
</g>
</g>
</svg>
