<?xml version="1.0" encoding="UTF-8" standalone="no"?>
<!DOCTYPE svg PUBLIC "-//W3C//DTD SVG 1.1//EN"
 "http://www.w3.org/Graphics/SVG/1.1/DTD/svg11.dtd">
<!-- Generated by graphviz version 2.43.0 (0)
 -->
<!-- Title: %3 Pages: 1 -->
<svg width="1645pt" height="605pt"
 viewBox="0.00 0.00 1644.50 604.80" xmlns="http://www.w3.org/2000/svg" xmlns:xlink="http://www.w3.org/1999/xlink">
<g id="graph0" class="graph" transform="scale(1 1) rotate(0) translate(4 600.8)">
<title>%3</title>
<polygon fill="white" stroke="transparent" points="-4,4 -4,-600.8 1640.5,-600.8 1640.5,4 -4,4"/>
<g id="clust1" class="cluster">
<title>cluster_0</title>
<polygon fill="none" stroke="lightgray" points="274.5,-302 274.5,-427 418.5,-427 418.5,-302 274.5,-302"/>
</g>
<g id="clust2" class="cluster">
<title>cluster_1</title>
<polygon fill="none" stroke="lightgray" points="640.5,-302 640.5,-427 1057.5,-427 1057.5,-302 640.5,-302"/>
</g>
<g id="clust3" class="cluster">
<title>cluster_2</title>
<polygon fill="none" stroke="lightgray" points="426.5,-375 426.5,-500 562.5,-500 562.5,-375 426.5,-375"/>
</g>
<g id="clust4" class="cluster">
<title>cluster_000</title>
<polygon fill="none" stroke="black" points="775.5,-546.2 775.5,-588.8 1628.5,-588.8 1628.5,-546.2 775.5,-546.2"/>
<text text-anchor="middle" x="1202" y="-573.6" font-family="Times,serif" font-size="14.00">Legend</text>
</g>
<!-- node0 -->
<g id="node1" class="node">
<title>node0</title>
<polygon fill="lightgrey" stroke="transparent" points="766,-583 529,-583 529,-529 766,-529 766,-583"/>
<polygon fill="none" stroke="black" points="529.5,-556 529.5,-583 766.5,-583 766.5,-556 529.5,-556"/>
<text text-anchor="start" x="607.5" y="-565.8" font-family="Times,serif" font-size="14.00">#0 Method</text>
<polygon fill="yellow" stroke="transparent" points="529.5,-529 529.5,-556 608.5,-556 608.5,-529 529.5,-529"/>
<polygon fill="none" stroke="black" points="529.5,-529 529.5,-556 608.5,-556 608.5,-529 529.5,-529"/>
<text text-anchor="start" x="535.5" y="-538.8" font-family="Times,serif" font-size="14.00">arg0 : int</text>
<polygon fill="yellow" stroke="transparent" points="608.5,-529 608.5,-556 687.5,-556 687.5,-529 608.5,-529"/>
<polygon fill="none" stroke="black" points="608.5,-529 608.5,-556 687.5,-556 687.5,-529 608.5,-529"/>
<text text-anchor="start" x="614.5" y="-538.8" font-family="Times,serif" font-size="14.00">arg1 : int</text>
<polygon fill="yellow" stroke="transparent" points="687.5,-529 687.5,-556 766.5,-556 766.5,-529 687.5,-529"/>
<polygon fill="none" stroke="black" points="687.5,-529 687.5,-556 766.5,-556 766.5,-529 687.5,-529"/>
<text text-anchor="start" x="693.5" y="-538.8" font-family="Times,serif" font-size="14.00">arg2 : int</text>
</g>
<!-- node12 -->
<g id="node2" class="node">
<title>node12</title>
<polygon fill="orange" stroke="black" points="862.32,-247.54 862.32,-262.46 772.8,-273 646.2,-273 556.68,-262.46 556.68,-247.54 646.2,-237 772.8,-237 862.32,-247.54"/>
<text text-anchor="middle" x="709.5" y="-251.3" font-family="Times,serif" font-size="14.00">#12 NumericCondition : GE</text>
</g>
<!-- node0&#45;&gt;node12 -->
<g id="edge2" class="edge">
<title>node0:prj3&#45;&gt;node12</title>
<path fill="none" stroke="black" d="M568.5,-529C568.5,-504.21 582.5,-499.79 582.5,-475 582.5,-475 582.5,-475 582.5,-364 582.5,-323.48 620.48,-294.98 654.9,-277.47"/>
<polygon fill="black" stroke="black" points="656.55,-280.56 664.01,-273.04 653.49,-274.27 656.55,-280.56"/>
<text text-anchor="middle" x="651.4" y="-284.87" font-family="Times,serif" font-size="14.00">*1</text>
</g>
<!-- node4 -->
<g id="node13" class="node">
<title>node4</title>
<polygon fill="lightgrey" stroke="black" points="554,-492 435,-492 435,-456 554,-456 554,-492"/>
<text text-anchor="middle" x="494.5" y="-470.3" font-family="Times,serif" font-size="14.00">#4 LabelNode</text>
</g>
<!-- node0&#45;&gt;node4 -->
<g id="edge17" class="edge">
<title>node0&#45;&gt;node4</title>
<path fill="none" stroke="red" d="M597.4,-528.81C577.63,-518.47 555.18,-506.73 536.3,-496.86"/>
<polygon fill="red" stroke="red" points="537.83,-493.71 527.35,-492.17 534.59,-499.91 537.83,-493.71"/>
</g>
<!-- node5 -->
<g id="node18" class="node">
<title>node5</title>
<polygon fill="orange" stroke="black" points="799.92,-466.54 799.92,-481.46 757.5,-492 697.5,-492 655.08,-481.46 655.08,-466.54 697.5,-456 757.5,-456 799.92,-466.54"/>
<text text-anchor="middle" x="727.5" y="-470.3" font-family="Times,serif" font-size="14.00">#5 Add : int</text>
</g>
<!-- node0&#45;&gt;node5 -->
<g id="edge26" class="edge">
<title>node0:prj1&#45;&gt;node5</title>
<path fill="none" stroke="black" d="M648.5,-529C648.5,-513.04 659.62,-501.46 673.52,-493.21"/>
<polygon fill="black" stroke="black" points="675.25,-496.26 682.46,-488.5 671.98,-490.06 675.25,-496.26"/>
<text text-anchor="middle" x="670.37" y="-500.73" font-family="Times,serif" font-size="14.00">*0</text>
</g>
<!-- node0&#45;&gt;node5 -->
<g id="edge27" class="edge">
<title>node0:prj2&#45;&gt;node5</title>
<path fill="none" stroke="black" d="M727.5,-529C727.5,-520.3 727.5,-510.81 727.5,-502.25"/>
<polygon fill="black" stroke="black" points="731,-502.02 727.5,-492.02 724,-502.02 731,-502.02"/>
<text text-anchor="middle" x="735.95" y="-506.45" font-family="Times,serif" font-size="14.00">*1</text>
</g>
<!-- node19 -->
<g id="node20" class="node">
<title>node19</title>
<polygon fill="lightgrey" stroke="black" points="173,-36 0,-36 0,0 173,0 173,-36"/>
<text text-anchor="middle" x="86.5" y="-14.3" font-family="Times,serif" font-size="14.00">#19 ReturnValue : int</text>
</g>
<!-- node0&#45;&gt;node19 -->
<g id="edge30" class="edge">
<title>node0:prj3&#45;&gt;node19</title>
<path fill="none" stroke="black" d="M528.5,-542C467.96,-542 60.5,-526.54 60.5,-475 60.5,-475 60.5,-475 60.5,-90 60.5,-75.05 64.11,-58.81 68.88,-45.63"/>
<polygon fill="black" stroke="black" points="72.18,-46.81 72.72,-36.23 65.7,-44.17 72.18,-46.81"/>
<text text-anchor="middle" x="73.7" y="-52.51" font-family="Times,serif" font-size="14.00">*0</text>
</g>
<!-- node0&#45;&gt;node19 -->
<g id="edge32" class="edge">
<title>node0&#45;&gt;node19</title>
<path fill="none" stroke="green" d="M528.25,-542C484.37,-541.94 78.5,-526.44 78.5,-475 78.5,-475 78.5,-475 78.5,-90 78.5,-75.2 82.04,-59.13 85.03,-46.02"/>
<polygon fill="green" stroke="green" points="88.45,-46.76 87.24,-36.23 81.62,-45.22 88.45,-46.76"/>
</g>
<!-- node14 -->
<g id="node10" class="node">
<title>node14</title>
<polygon fill="lightgrey" stroke="transparent" points="327,-200 238,-200 238,-146 327,-146 327,-200"/>
<polygon fill="none" stroke="black" points="238.5,-173 238.5,-200 327.5,-200 327.5,-173 238.5,-173"/>
<text text-anchor="start" x="260" y="-182.8" font-family="Times,serif" font-size="14.00">#14 If</text>
<polygon fill="yellow" stroke="transparent" points="238.5,-146 238.5,-173 284.5,-173 284.5,-146 238.5,-146"/>
<polygon fill="none" stroke="black" points="238.5,-146 238.5,-173 284.5,-173 284.5,-146 238.5,-146"/>
<text text-anchor="start" x="244.5" y="-155.8" font-family="Times,serif" font-size="14.00">false</text>
<polygon fill="yellow" stroke="transparent" points="284.5,-146 284.5,-173 327.5,-173 327.5,-146 284.5,-146"/>
<polygon fill="none" stroke="black" points="284.5,-146 284.5,-173 327.5,-173 327.5,-146 284.5,-146"/>
<text text-anchor="start" x="290.5" y="-155.8" font-family="Times,serif" font-size="14.00">true</text>
</g>
<!-- node12&#45;&gt;node14 -->
<g id="edge11" class="edge">
<title>node12&#45;&gt;node14</title>
<path fill="none" stroke="black" d="M629.18,-238.95C543.81,-222.96 411.14,-198.1 337.13,-184.23"/>
<polygon fill="black" stroke="black" points="337.56,-180.75 327.08,-182.35 336.27,-187.63 337.56,-180.75"/>
<text text-anchor="middle" x="346.45" y="-173.68" font-family="Times,serif" font-size="14.00">*0</text>
</g>
<!-- node11 -->
<g id="node3" class="node">
<title>node11</title>
<polygon fill="orange" stroke="black" points="770,-320.54 770,-335.46 734.56,-346 684.44,-346 649,-335.46 649,-320.54 684.44,-310 734.56,-310 770,-320.54"/>
<text text-anchor="middle" x="709.5" y="-324.3" font-family="Times,serif" font-size="14.00">#11 Φ int</text>
</g>
<!-- node11&#45;&gt;node12 -->
<g id="edge1" class="edge">
<title>node11&#45;&gt;node12</title>
<path fill="none" stroke="black" d="M709.5,-309.81C709.5,-301.79 709.5,-292.05 709.5,-283.07"/>
<polygon fill="black" stroke="black" points="713,-283.03 709.5,-273.03 706,-283.03 713,-283.03"/>
<text text-anchor="middle" x="717.95" y="-287.45" font-family="Times,serif" font-size="14.00">*0</text>
</g>
<!-- node24 -->
<g id="node6" class="node">
<title>node24</title>
<polygon fill="orange" stroke="black" points="539.08,-247.54 539.08,-262.46 493.05,-273 427.95,-273 381.92,-262.46 381.92,-247.54 427.95,-237 493.05,-237 539.08,-247.54"/>
<text text-anchor="middle" x="460.5" y="-251.3" font-family="Times,serif" font-size="14.00">#24 Add : int</text>
</g>
<!-- node11&#45;&gt;node24 -->
<g id="edge6" class="edge">
<title>node11&#45;&gt;node24</title>
<path fill="none" stroke="black" d="M671.49,-313.81C659.69,-309.86 646.6,-305.61 634.5,-302 628.79,-300.3 568.14,-284.3 520.03,-271.64"/>
<polygon fill="black" stroke="black" points="520.85,-268.24 510.29,-269.08 519.07,-275.01 520.85,-268.24"/>
<text text-anchor="middle" x="529.97" y="-261.82" font-family="Times,serif" font-size="14.00">*0</text>
</g>
<!-- node13 -->
<g id="node17" class="node">
<title>node13</title>
<polygon fill="orange" stroke="black" points="1076.08,-247.54 1076.08,-262.46 1030.05,-273 964.95,-273 918.92,-262.46 918.92,-247.54 964.95,-237 1030.05,-237 1076.08,-247.54"/>
<text text-anchor="middle" x="997.5" y="-251.3" font-family="Times,serif" font-size="14.00">#13 Add : int</text>
</g>
<!-- node11&#45;&gt;node13 -->
<g id="edge24" class="edge">
<title>node11&#45;&gt;node13</title>
<path fill="none" stroke="black" d="M750.53,-314.71C765.01,-310.5 781.43,-305.89 796.5,-302 841.46,-290.4 892.46,-278.75 931.84,-270.07"/>
<polygon fill="black" stroke="black" points="932.83,-273.44 941.85,-267.88 931.33,-266.6 932.83,-273.44"/>
<text text-anchor="middle" x="925.95" y="-276.32" font-family="Times,serif" font-size="14.00">*0</text>
</g>
<!-- node6 -->
<g id="node4" class="node">
<title>node6</title>
<polygon fill="lightgrey" stroke="black" points="769,-419 650,-419 650,-383 769,-383 769,-419"/>
<text text-anchor="middle" x="709.5" y="-397.3" font-family="Times,serif" font-size="14.00">#6 LabelNode</text>
</g>
<!-- node6&#45;&gt;node11 -->
<g id="edge3" class="edge">
<title>node6&#45;&gt;node11</title>
<path fill="none" stroke="black" stroke-dasharray="1,5" d="M709.5,-382.81C709.5,-374.79 709.5,-365.05 709.5,-356.07"/>
<polygon fill="black" stroke="black" points="713,-356.03 709.5,-346.03 706,-356.03 713,-356.03"/>
</g>
<!-- node10 -->
<g id="node5" class="node">
<title>node10</title>
<polygon fill="lightgreen" stroke="black" points="923.69,-320.54 923.69,-335.46 889.02,-346 839.98,-346 805.31,-335.46 805.31,-320.54 839.98,-310 889.02,-310 923.69,-320.54"/>
<text text-anchor="middle" x="864.5" y="-324.3" font-family="Times,serif" font-size="14.00">#10 int 0</text>
</g>
<!-- node6&#45;&gt;node10 -->
<g id="edge28" class="edge">
<title>node6&#45;&gt;node10</title>
<path fill="none" stroke="black" stroke-dasharray="1,5" d="M746.63,-382.99C769.71,-372.42 799.43,-358.8 823.25,-347.89"/>
<polygon fill="black" stroke="black" points="824.76,-351.05 832.4,-343.7 821.85,-344.69 824.76,-351.05"/>
</g>
<!-- node8 -->
<g id="node11" class="node">
<title>node8</title>
<polygon fill="lightgrey" stroke="black" points="364,-273 169,-273 169,-237 364,-237 364,-273"/>
<text text-anchor="middle" x="266.5" y="-251.3" font-family="Times,serif" font-size="14.00">#8 LoopHeader : Loop14</text>
</g>
<!-- node6&#45;&gt;node8 -->
<g id="edge13" class="edge">
<title>node6&#45;&gt;node8</title>
<path fill="none" stroke="red" d="M661.72,-382.99C604.92,-362.94 507.17,-328.93 422.5,-302 394.46,-293.08 363.4,-283.8 336.43,-275.93"/>
<polygon fill="red" stroke="red" points="337.26,-272.53 326.69,-273.1 335.31,-279.26 337.26,-272.53"/>
</g>
<!-- node9 -->
<g id="node15" class="node">
<title>node9</title>
<polygon fill="orange" stroke="black" points="1049.84,-320.54 1049.84,-335.46 1018.01,-346 972.99,-346 941.16,-335.46 941.16,-320.54 972.99,-310 1018.01,-310 1049.84,-320.54"/>
<text text-anchor="middle" x="995.5" y="-324.3" font-family="Times,serif" font-size="14.00">#9 Φ int</text>
</g>
<!-- node6&#45;&gt;node9 -->
<g id="edge19" class="edge">
<title>node6&#45;&gt;node9</title>
<path fill="none" stroke="black" stroke-dasharray="1,5" d="M769.23,-385.98C814.2,-375.32 877.32,-360.12 932.5,-346 936.57,-344.96 940.79,-343.86 945.03,-342.74"/>
<polygon fill="black" stroke="black" points="946.11,-346.08 954.87,-340.13 944.31,-339.31 946.11,-346.08"/>
</g>
<!-- node10&#45;&gt;node11 -->
<g id="edge4" class="edge">
<title>node10&#45;&gt;node11</title>
<path fill="none" stroke="blue" d="M805.1,-328C796.79,-328 788.49,-328 780.18,-328"/>
<polygon fill="blue" stroke="blue" points="780.05,-324.5 770.05,-328 780.05,-331.5 780.05,-324.5"/>
<text text-anchor="middle" x="788.17" y="-315.85" font-family="Times,serif" font-size="14.00">if #6</text>
</g>
<!-- node24&#45;&gt;node11 -->
<g id="edge5" class="edge">
<title>node24&#45;&gt;node11</title>
<path fill="none" stroke="blue" stroke-dasharray="5,2" d="M512.55,-268.7C547.28,-277.43 593.84,-289.64 634.5,-302 643.28,-304.67 652.58,-307.65 661.54,-310.59"/>
<polygon fill="blue" stroke="blue" points="660.49,-313.93 671.09,-313.76 662.7,-307.29 660.49,-313.93"/>
<text text-anchor="middle" x="651.22" y="-312.37" font-family="Times,serif" font-size="14.00">if #22</text>
</g>
<!-- node23 -->
<g id="node7" class="node">
<title>node23</title>
<polygon fill="lightgreen" stroke="black" points="408.69,-320.54 408.69,-335.46 374.02,-346 324.98,-346 290.31,-335.46 290.31,-320.54 324.98,-310 374.02,-310 408.69,-320.54"/>
<text text-anchor="middle" x="349.5" y="-324.3" font-family="Times,serif" font-size="14.00">#23 int 1</text>
</g>
<!-- node23&#45;&gt;node24 -->
<g id="edge7" class="edge">
<title>node23&#45;&gt;node24</title>
<path fill="none" stroke="black" d="M375.52,-310.35C390.34,-300.88 409.1,-288.88 425.22,-278.56"/>
<polygon fill="black" stroke="black" points="427.33,-281.37 433.87,-273.04 423.56,-275.48 427.33,-281.37"/>
<text text-anchor="middle" x="423.15" y="-286.22" font-family="Times,serif" font-size="14.00">*1</text>
</g>
<!-- node21 -->
<g id="node8" class="node">
<title>node21</title>
<polygon fill="lightgrey" stroke="black" points="410.5,-419 282.5,-419 282.5,-383 410.5,-383 410.5,-419"/>
<text text-anchor="middle" x="346.5" y="-397.3" font-family="Times,serif" font-size="14.00">#21 LabelNode</text>
</g>
<!-- node21&#45;&gt;node23 -->
<g id="edge8" class="edge">
<title>node21&#45;&gt;node23</title>
<path fill="none" stroke="black" stroke-dasharray="1,5" d="M347.23,-382.81C347.57,-374.79 347.98,-365.05 348.36,-356.07"/>
<polygon fill="black" stroke="black" points="351.86,-356.17 348.78,-346.03 344.86,-355.87 351.86,-356.17"/>
</g>
<!-- node22 -->
<g id="node12" class="node">
<title>node22</title>
<polygon fill="lightgrey" stroke="black" points="266,-346 181,-346 181,-310 266,-310 266,-346"/>
<text text-anchor="middle" x="223.5" y="-324.3" font-family="Times,serif" font-size="14.00">#22 Goto</text>
</g>
<!-- node21&#45;&gt;node22 -->
<g id="edge15" class="edge">
<title>node21&#45;&gt;node22</title>
<path fill="none" stroke="red" d="M282.38,-387.97C267.37,-382.81 252.33,-375.47 240.5,-365 237.44,-362.3 234.89,-358.92 232.77,-355.33"/>
<polygon fill="red" stroke="red" points="235.87,-353.7 228.37,-346.23 229.57,-356.75 235.87,-353.7"/>
</g>
<!-- node20 -->
<g id="node9" class="node">
<title>node20</title>
<polygon fill="lightgrey" stroke="black" points="234.5,-109 106.5,-109 106.5,-73 234.5,-73 234.5,-109"/>
<text text-anchor="middle" x="170.5" y="-87.3" font-family="Times,serif" font-size="14.00">#20 LabelNode</text>
</g>
<!-- node20&#45;&gt;node21 -->
<g id="edge9" class="edge">
<title>node20&#45;&gt;node21</title>
<path fill="none" stroke="red" d="M160.36,-109.14C151.99,-124.92 141.5,-149.25 141.5,-172 141.5,-329 141.5,-329 141.5,-329 141.5,-357.62 213.73,-377.28 272.44,-388.53"/>
<polygon fill="red" stroke="red" points="272.01,-392.01 282.48,-390.4 273.29,-385.13 272.01,-392.01"/>
</g>
<!-- node14&#45;&gt;node20 -->
<g id="edge10" class="edge">
<title>node14:prj17&#45;&gt;node20</title>
<path fill="none" stroke="red" d="M237.5,-159C213.33,-159 194.83,-136.92 183.46,-118.11"/>
<polygon fill="red" stroke="red" points="186.42,-116.24 178.45,-109.25 180.32,-119.68 186.42,-116.24"/>
</g>
<!-- node18 -->
<g id="node19" class="node">
<title>node18</title>
<polygon fill="lightgrey" stroke="black" points="380.5,-109 252.5,-109 252.5,-73 380.5,-73 380.5,-109"/>
<text text-anchor="middle" x="316.5" y="-87.3" font-family="Times,serif" font-size="14.00">#18 LabelNode</text>
</g>
<!-- node14&#45;&gt;node18 -->
<g id="edge29" class="edge">
<title>node14:prj16&#45;&gt;node18</title>
<path fill="none" stroke="red" d="M306.5,-146C306.5,-137.19 307.8,-127.7 309.47,-119.17"/>
<polygon fill="red" stroke="red" points="312.9,-119.88 311.62,-109.36 306.06,-118.38 312.9,-119.88"/>
</g>
<!-- node8&#45;&gt;node14 -->
<g id="edge12" class="edge">
<title>node8&#45;&gt;node14</title>
<path fill="none" stroke="red" d="M269.97,-236.64C271.54,-228.81 273.45,-219.26 275.3,-209.99"/>
<polygon fill="red" stroke="red" points="278.74,-210.64 277.27,-200.15 271.88,-209.27 278.74,-210.64"/>
</g>
<!-- node22&#45;&gt;node8 -->
<g id="edge14" class="edge">
<title>node22&#45;&gt;node8</title>
<path fill="none" stroke="red" stroke-dasharray="5,2" d="M233.91,-309.81C239.03,-301.35 245.31,-290.98 250.99,-281.61"/>
<polygon fill="red" stroke="red" points="254,-283.4 256.19,-273.03 248.01,-279.77 254,-283.4"/>
</g>
<!-- node4&#45;&gt;node6 -->
<g id="edge16" class="edge">
<title>node4&#45;&gt;node6</title>
<path fill="none" stroke="red" d="M546,-455.99C576.62,-445.88 615.66,-432.99 647.9,-422.34"/>
<polygon fill="red" stroke="red" points="649.28,-425.57 657.68,-419.11 647.08,-418.93 649.28,-425.57"/>
</g>
<!-- node7 -->
<g id="node14" class="node">
<title>node7</title>
<polygon fill="lightgreen" stroke="black" points="553.69,-393.54 553.69,-408.46 519.02,-419 469.98,-419 435.31,-408.46 435.31,-393.54 469.98,-383 519.02,-383 553.69,-393.54"/>
<text text-anchor="middle" x="494.5" y="-397.3" font-family="Times,serif" font-size="14.00">#7 int 10</text>
</g>
<!-- node4&#45;&gt;node7 -->
<g id="edge18" class="edge">
<title>node4&#45;&gt;node7</title>
<path fill="none" stroke="black" stroke-dasharray="1,5" d="M494.5,-455.81C494.5,-447.79 494.5,-438.05 494.5,-429.07"/>
<polygon fill="black" stroke="black" points="498,-429.03 494.5,-419.03 491,-429.03 498,-429.03"/>
</g>
<!-- node7&#45;&gt;node9 -->
<g id="edge20" class="edge">
<title>node7&#45;&gt;node9</title>
<path fill="none" stroke="blue" d="M543.64,-390.39C570.92,-385.3 605.5,-379.24 636.5,-375 767.47,-357.08 802.46,-369.74 932.5,-346 937.13,-345.15 941.92,-344.13 946.69,-343.02"/>
<polygon fill="blue" stroke="blue" points="947.54,-346.42 956.41,-340.63 945.86,-339.62 947.54,-346.42"/>
<text text-anchor="middle" x="940.83" y="-349.47" font-family="Times,serif" font-size="14.00">if #6</text>
</g>
<!-- node15 -->
<g id="node16" class="node">
<title>node15</title>
<polygon fill="orange" stroke="black" points="1150.08,-165.54 1150.08,-180.46 1104.05,-191 1038.95,-191 992.92,-180.46 992.92,-165.54 1038.95,-155 1104.05,-155 1150.08,-165.54"/>
<text text-anchor="middle" x="1071.5" y="-169.3" font-family="Times,serif" font-size="14.00">#15 Add : int</text>
</g>
<!-- node9&#45;&gt;node15 -->
<g id="edge22" class="edge">
<title>node9&#45;&gt;node15</title>
<path fill="none" stroke="black" d="M1032.8,-314.82C1052.21,-306.37 1074.19,-292.98 1085.5,-273 1097.99,-250.93 1091.67,-221.81 1083.93,-200.87"/>
<polygon fill="black" stroke="black" points="1087.07,-199.29 1080.1,-191.32 1080.58,-201.9 1087.07,-199.29"/>
<text text-anchor="middle" x="1094.7" y="-201.29" font-family="Times,serif" font-size="14.00">*0</text>
</g>
<!-- node15&#45;&gt;node9 -->
<g id="edge21" class="edge">
<title>node15&#45;&gt;node9</title>
<path fill="none" stroke="blue" stroke-dasharray="5,2" d="M1002.31,-182.64C968.36,-190.75 930.37,-206.49 909.5,-237 900.47,-250.21 901.76,-259 909.5,-273 918.41,-289.12 934.38,-301.08 950.15,-309.59"/>
<polygon fill="blue" stroke="blue" points="948.86,-312.85 959.36,-314.2 951.99,-306.59 948.86,-312.85"/>
<text text-anchor="middle" x="939.37" y="-309.94" font-family="Times,serif" font-size="14.00">if #22</text>
</g>
<!-- node13&#45;&gt;node15 -->
<g id="edge23" class="edge">
<title>node13&#45;&gt;node15</title>
<path fill="none" stroke="black" d="M1013.56,-236.64C1023.81,-225.56 1037.26,-211.02 1048.62,-198.74"/>
<polygon fill="black" stroke="black" points="1051.51,-200.77 1055.73,-191.05 1046.37,-196.01 1051.51,-200.77"/>
<text text-anchor="middle" x="1049.63" y="-206.4" font-family="Times,serif" font-size="14.00">*1</text>
</g>
<!-- node5&#45;&gt;node13 -->
<g id="edge25" class="edge">
<title>node5&#45;&gt;node13</title>
<path fill="none" stroke="black" d="M799.95,-473.66C887.8,-472.73 1028.28,-465.11 1061.5,-427 1098.01,-385.12 1086.85,-351.44 1061.5,-302 1056.77,-292.78 1049.24,-284.98 1040.97,-278.58"/>
<polygon fill="black" stroke="black" points="1042.73,-275.54 1032.54,-272.64 1038.7,-281.26 1042.73,-275.54"/>
<text text-anchor="middle" x="1052.23" y="-272.47" font-family="Times,serif" font-size="14.00">*1</text>
</g>
<!-- node18&#45;&gt;node19 -->
<g id="edge31" class="edge">
<title>node18&#45;&gt;node19</title>
<path fill="none" stroke="red" d="M261.41,-72.99C228.37,-62.79 186.17,-49.77 151.5,-39.07"/>
<polygon fill="red" stroke="red" points="152.53,-35.72 141.94,-36.11 150.46,-42.41 152.53,-35.72"/>
</g>
<!-- c0 -->
<!-- c1 -->
<!-- c0&#45;&gt;c1 -->
<g id="edge33" class="edge">
<title>c0&#45;&gt;c1</title>
<path fill="none" stroke="red" d="M1511.39,-556C1522.61,-556 1580.74,-556 1606.36,-556"/>
<polygon fill="red" stroke="red" points="1606.56,-559.5 1616.56,-556 1606.56,-552.5 1606.56,-559.5"/>
<text text-anchor="middle" x="1564" y="-562.8" font-family="Times,serif" font-size="14.00">Control flow</text>
</g>
<!-- c2 -->
<!-- c3 -->
<!-- c2&#45;&gt;c3 -->
<g id="edge34" class="edge">
<title>c2&#45;&gt;c3</title>
<path fill="none" stroke="red" stroke-dasharray="5,2" d="M1304.58,-556C1321.55,-556 1437.71,-556 1475.58,-556"/>
<polygon fill="red" stroke="red" points="1475.67,-559.5 1485.67,-556 1475.67,-552.5 1475.67,-559.5"/>
<text text-anchor="middle" x="1395" y="-562.8" font-family="Times,serif" font-size="14.00">Control flow back edge</text>
</g>
<!-- d0 -->
<!-- d1 -->
<!-- d0&#45;&gt;d1 -->
<g id="edge35" class="edge">
<title>d0&#45;&gt;d1</title>
<path fill="none" stroke="black" d="M1193.36,-556C1202.91,-556 1246.81,-556 1268.42,-556"/>
<polygon fill="black" stroke="black" points="1268.65,-559.5 1278.65,-556 1268.65,-552.5 1268.65,-559.5"/>
<text text-anchor="middle" x="1236" y="-562.8" font-family="Times,serif" font-size="14.00">Data flow</text>
</g>
<!-- d2 -->
<!-- d3 -->
<!-- d2&#45;&gt;d3 -->
<g id="edge36" class="edge">
<title>d2&#45;&gt;d3</title>
<path fill="none" stroke="black" stroke-dasharray="1,5" d="M1067.31,-556C1077.96,-556 1132.96,-556 1157.58,-556"/>
<polygon fill="black" stroke="black" points="1157.65,-559.5 1167.65,-556 1157.65,-552.5 1157.65,-559.5"/>
<text text-anchor="middle" x="1117.5" y="-562.8" font-family="Times,serif" font-size="14.00">Declaration</text>
</g>
<!-- d4 -->
<!-- d5 -->
<!-- d4&#45;&gt;d5 -->
<g id="edge37" class="edge">
<title>d4&#45;&gt;d5</title>
<path fill="none" stroke="blue" d="M924.6,-556C937.22,-556 1003.38,-556 1031.18,-556"/>
<polygon fill="blue" stroke="blue" points="1031.34,-559.5 1041.34,-556 1031.34,-552.5 1031.34,-559.5"/>
<text text-anchor="middle" x="983" y="-562.8" font-family="Times,serif" font-size="14.00">PHI Data flow</text>
</g>
<!-- d6 -->
<!-- d7 -->
<!-- d6&#45;&gt;d7 -->
<g id="edge38" class="edge">
<title>d6&#45;&gt;d7</title>
<path fill="none" stroke="green" d="M787.5,-556C799.44,-556 861.8,-556 888.43,-556"/>
<polygon fill="green" stroke="green" points="888.45,-559.5 898.45,-556 888.45,-552.5 888.45,-559.5"/>
<text text-anchor="middle" x="843" y="-562.8" font-family="Times,serif" font-size="14.00">Memory flow</text>
</g>
</g>
</svg>
