<?xml version="1.0" encoding="UTF-8" standalone="no"?>
<!DOCTYPE svg PUBLIC "-//W3C//DTD SVG 1.1//EN"
 "http://www.w3.org/Graphics/SVG/1.1/DTD/svg11.dtd">
<!-- Generated by graphviz version 2.43.0 (0)
 -->
<!-- Title: debugoutput Pages: 1 -->
<svg width="927pt" height="651pt"
 viewBox="0.00 0.00 927.00 650.80" xmlns="http://www.w3.org/2000/svg" xmlns:xlink="http://www.w3.org/1999/xlink">
<g id="graph0" class="graph" transform="scale(1 1) rotate(0) translate(4 646.8)">
<title>debugoutput</title>
<polygon fill="white" stroke="transparent" points="-4,4 -4,-646.8 923,-646.8 923,4 -4,4"/>
<g id="clust1" class="cluster">
<title>cluster_000</title>
<polygon fill="none" stroke="black" points="452,-592.2 452,-634.8 911,-634.8 911,-592.2 452,-592.2"/>
<text text-anchor="middle" x="681.5" y="-619.6" font-family="Times,serif" font-size="14.00">Legend</text>
</g>
<!-- node0 -->
<g id="node1" class="node">
<title>node0</title>
<polygon fill="lightgrey" stroke="black" points="442,-620 276,-620 276,-584 442,-584 442,-620"/>
<text text-anchor="middle" x="359" y="-598.3" font-family="Times,serif" font-size="14.00">#0 Method Order : 0</text>
</g>
<!-- node1 -->
<g id="node2" class="node">
<title>node1</title>
<polygon fill="lightgrey" stroke="black" points="453,-547 265,-547 265,-511 453,-511 453,-547"/>
<text text-anchor="middle" x="359" y="-525.3" font-family="Times,serif" font-size="14.00">#1 LabelNode Order : 1</text>
</g>
<!-- node0&#45;&gt;node1 -->
<g id="edge2" class="edge">
<title>node0&#45;&gt;node1</title>
<path fill="none" stroke="red" d="M353.12,-583.81C352.28,-575.79 352.05,-566.05 352.42,-557.07"/>
<polygon fill="red" stroke="red" points="355.92,-557.25 353.14,-547.03 348.94,-556.75 355.92,-557.25"/>
</g>
<!-- node1&#45;&gt;node0 -->
<g id="edge1" class="edge">
<title>node1&#45;&gt;node0</title>
<path fill="none" stroke="fuchsia" stroke-width="2" d="M364.86,-547.03C365.71,-555.03 365.95,-564.77 365.59,-573.75"/>
<polygon fill="fuchsia" stroke="fuchsia" stroke-width="2" points="362.09,-573.59 364.88,-583.81 369.07,-574.08 362.09,-573.59"/>
</g>
<!-- node2 -->
<g id="node3" class="node">
<title>node2</title>
<polygon fill="lightgrey" stroke="black" points="453,-474 265,-474 265,-438 453,-438 453,-474"/>
<text text-anchor="middle" x="359" y="-452.3" font-family="Times,serif" font-size="14.00">#2 LabelNode Order : 2</text>
</g>
<!-- node1&#45;&gt;node2 -->
<g id="edge4" class="edge">
<title>node1&#45;&gt;node2</title>
<path fill="none" stroke="red" d="M353.12,-510.81C352.28,-502.79 352.05,-493.05 352.42,-484.07"/>
<polygon fill="red" stroke="red" points="355.92,-484.25 353.14,-474.03 348.94,-483.75 355.92,-484.25"/>
</g>
<!-- node2&#45;&gt;node1 -->
<g id="edge3" class="edge">
<title>node2&#45;&gt;node1</title>
<path fill="none" stroke="fuchsia" stroke-width="2" d="M364.86,-474.03C365.71,-482.03 365.95,-491.77 365.59,-500.75"/>
<polygon fill="fuchsia" stroke="fuchsia" stroke-width="2" points="362.09,-500.59 364.88,-510.81 369.07,-501.08 362.09,-500.59"/>
</g>
<!-- node3 -->
<g id="node4" class="node">
<title>node3</title>
<polygon fill="lightgrey" stroke="black" points="491,-401 227,-401 227,-365 491,-365 491,-401"/>
<text text-anchor="middle" x="359" y="-379.3" font-family="Times,serif" font-size="14.00">#3 LoopHeader : Loop14 Order : 3</text>
</g>
<!-- node2&#45;&gt;node3 -->
<g id="edge6" class="edge">
<title>node2&#45;&gt;node3</title>
<path fill="none" stroke="red" d="M353.12,-437.81C352.28,-429.79 352.05,-420.05 352.42,-411.07"/>
<polygon fill="red" stroke="red" points="355.92,-411.25 353.14,-401.03 348.94,-410.75 355.92,-411.25"/>
</g>
<!-- node3&#45;&gt;node2 -->
<g id="edge5" class="edge">
<title>node3&#45;&gt;node2</title>
<path fill="none" stroke="fuchsia" stroke-width="2" d="M364.86,-401.03C365.71,-409.03 365.95,-418.77 365.59,-427.75"/>
<polygon fill="fuchsia" stroke="fuchsia" stroke-width="2" points="362.09,-427.59 364.88,-437.81 369.07,-428.08 362.09,-427.59"/>
</g>
<!-- node4 -->
<g id="node6" class="node">
<title>node4</title>
<polygon fill="lightgrey" stroke="black" points="420,-328 298,-328 298,-292 420,-292 420,-328"/>
<text text-anchor="middle" x="359" y="-306.3" font-family="Times,serif" font-size="14.00">#4 If Order : 4</text>
</g>
<!-- node3&#45;&gt;node4 -->
<g id="edge9" class="edge">
<title>node3&#45;&gt;node4</title>
<path fill="none" stroke="red" d="M353.12,-364.81C352.28,-356.79 352.05,-347.05 352.42,-338.07"/>
<polygon fill="red" stroke="red" points="355.92,-338.25 353.14,-328.03 348.94,-337.75 355.92,-338.25"/>
</g>
<!-- node11 -->
<g id="node5" class="node">
<title>node11</title>
<polygon fill="lightgrey" stroke="black" points="440.5,-36 277.5,-36 277.5,0 440.5,0 440.5,-36"/>
<text text-anchor="middle" x="359" y="-14.3" font-family="Times,serif" font-size="14.00">#11 Goto Order : 11</text>
</g>
<!-- node11&#45;&gt;node3 -->
<g id="edge7" class="edge">
<title>node11&#45;&gt;node3</title>
<path fill="none" stroke="red" stroke-dasharray="5,2" d="M439.07,-36.13C464.43,-46.61 486,-63.35 486,-90 486,-311 486,-311 486,-311 486,-334.32 469.49,-350.05 448.37,-360.64"/>
<polygon fill="red" stroke="red" points="446.72,-357.54 439.07,-364.87 449.62,-363.91 446.72,-357.54"/>
</g>
<!-- node9 -->
<g id="node11" class="node">
<title>node9</title>
<polygon fill="lightgrey" stroke="black" points="457.5,-109 260.5,-109 260.5,-73 457.5,-73 457.5,-109"/>
<text text-anchor="middle" x="359" y="-87.3" font-family="Times,serif" font-size="14.00">#9 LabelNode Order : 10</text>
</g>
<!-- node11&#45;&gt;node9 -->
<g id="edge22" class="edge">
<title>node11&#45;&gt;node9</title>
<path fill="none" stroke="fuchsia" stroke-width="2" d="M364.86,-36.03C365.71,-44.03 365.95,-53.77 365.59,-62.75"/>
<polygon fill="fuchsia" stroke="fuchsia" stroke-width="2" points="362.09,-62.59 364.88,-72.81 369.07,-63.08 362.09,-62.59"/>
</g>
<!-- node4&#45;&gt;node3 -->
<g id="edge8" class="edge">
<title>node4&#45;&gt;node3</title>
<path fill="none" stroke="fuchsia" stroke-width="2" d="M364.86,-328.03C365.71,-336.03 365.95,-345.77 365.59,-354.75"/>
<polygon fill="fuchsia" stroke="fuchsia" stroke-width="2" points="362.09,-354.59 364.88,-364.81 369.07,-355.08 362.09,-354.59"/>
</g>
<!-- node5 -->
<g id="node7" class="node">
<title>node5</title>
<polygon fill="lightgrey" stroke="black" points="431.5,-255 286.5,-255 286.5,-219 431.5,-219 431.5,-255"/>
<text text-anchor="middle" x="359" y="-233.3" font-family="Times,serif" font-size="14.00">#5 false Order : 8</text>
</g>
<!-- node4&#45;&gt;node5 -->
<g id="edge11" class="edge">
<title>node4&#45;&gt;node5</title>
<path fill="none" stroke="red" d="M353.12,-291.81C352.28,-283.79 352.05,-274.05 352.42,-265.07"/>
<polygon fill="red" stroke="red" points="355.92,-265.25 353.14,-255.03 348.94,-264.75 355.92,-265.25"/>
</g>
<!-- node6 -->
<g id="node8" class="node">
<title>node6</title>
<polygon fill="lightgrey" stroke="black" points="253.5,-255 112.5,-255 112.5,-219 253.5,-219 253.5,-255"/>
<text text-anchor="middle" x="183" y="-233.3" font-family="Times,serif" font-size="14.00">#6 true Order : 5</text>
</g>
<!-- node4&#45;&gt;node6 -->
<g id="edge13" class="edge">
<title>node4&#45;&gt;node6</title>
<path fill="none" stroke="red" d="M310.98,-291.99C285.41,-282.1 254.17,-269.54 228.91,-259.03"/>
<polygon fill="red" stroke="red" points="230.13,-255.75 219.55,-255.11 227.42,-262.2 230.13,-255.75"/>
</g>
<!-- node5&#45;&gt;node4 -->
<g id="edge10" class="edge">
<title>node5&#45;&gt;node4</title>
<path fill="none" stroke="fuchsia" stroke-width="2" d="M364.86,-255.03C365.71,-263.03 365.95,-272.77 365.59,-281.75"/>
<polygon fill="fuchsia" stroke="fuchsia" stroke-width="2" points="362.09,-281.59 364.88,-291.81 369.07,-282.08 362.09,-281.59"/>
</g>
<!-- node7 -->
<g id="node9" class="node">
<title>node7</title>
<polygon fill="lightgrey" stroke="black" points="453,-182 265,-182 265,-146 453,-146 453,-182"/>
<text text-anchor="middle" x="359" y="-160.3" font-family="Times,serif" font-size="14.00">#7 LabelNode Order : 9</text>
</g>
<!-- node5&#45;&gt;node7 -->
<g id="edge15" class="edge">
<title>node5&#45;&gt;node7</title>
<path fill="none" stroke="red" d="M353.12,-218.81C352.28,-210.79 352.05,-201.05 352.42,-192.07"/>
<polygon fill="red" stroke="red" points="355.92,-192.25 353.14,-182.03 348.94,-191.75 355.92,-192.25"/>
</g>
<!-- node6&#45;&gt;node4 -->
<g id="edge12" class="edge">
<title>node6&#45;&gt;node4</title>
<path fill="none" stroke="fuchsia" stroke-width="2" d="M231.29,-255.11C256.91,-265.03 288.15,-277.58 313.36,-288.08"/>
<polygon fill="fuchsia" stroke="fuchsia" stroke-width="2" points="312.13,-291.36 322.7,-291.99 314.83,-284.9 312.13,-291.36"/>
</g>
<!-- node8 -->
<g id="node10" class="node">
<title>node8</title>
<polygon fill="lightgrey" stroke="black" points="239,-182 51,-182 51,-146 239,-146 239,-182"/>
<text text-anchor="middle" x="145" y="-160.3" font-family="Times,serif" font-size="14.00">#8 LabelNode Order : 6</text>
</g>
<!-- node6&#45;&gt;node8 -->
<g id="edge17" class="edge">
<title>node6&#45;&gt;node8</title>
<path fill="none" stroke="red" d="M167.92,-218.81C162.62,-210.53 156.99,-200.41 152.48,-191.19"/>
<polygon fill="red" stroke="red" points="155.62,-189.64 148.25,-182.03 149.26,-192.58 155.62,-189.64"/>
</g>
<!-- node7&#45;&gt;node5 -->
<g id="edge14" class="edge">
<title>node7&#45;&gt;node5</title>
<path fill="none" stroke="fuchsia" stroke-width="2" d="M364.86,-182.03C365.71,-190.03 365.95,-199.77 365.59,-208.75"/>
<polygon fill="fuchsia" stroke="fuchsia" stroke-width="2" points="362.09,-208.59 364.88,-218.81 369.07,-209.08 362.09,-208.59"/>
</g>
<!-- node7&#45;&gt;node9 -->
<g id="edge19" class="edge">
<title>node7&#45;&gt;node9</title>
<path fill="none" stroke="red" d="M353.12,-145.81C352.28,-137.79 352.05,-128.05 352.42,-119.07"/>
<polygon fill="red" stroke="red" points="355.92,-119.25 353.14,-109.03 348.94,-118.75 355.92,-119.25"/>
</g>
<!-- node8&#45;&gt;node6 -->
<g id="edge16" class="edge">
<title>node8&#45;&gt;node6</title>
<path fill="none" stroke="fuchsia" stroke-width="2" d="M159.98,-182.03C165.27,-190.29 170.91,-200.4 175.43,-209.63"/>
<polygon fill="fuchsia" stroke="fuchsia" stroke-width="2" points="172.31,-211.2 179.68,-218.81 178.66,-208.27 172.31,-211.2"/>
</g>
<!-- node10 -->
<g id="node12" class="node">
<title>node10</title>
<polygon fill="lightgrey" stroke="black" points="242,-109 0,-109 0,-73 242,-73 242,-109"/>
<text text-anchor="middle" x="121" y="-87.3" font-family="Times,serif" font-size="14.00">#10 ReturnValue : int Order : 7</text>
</g>
<!-- node8&#45;&gt;node10 -->
<g id="edge21" class="edge">
<title>node8&#45;&gt;node10</title>
<path fill="none" stroke="red" d="M133.31,-145.81C129.72,-137.7 126.16,-127.84 123.49,-118.78"/>
<polygon fill="red" stroke="red" points="126.85,-117.79 120.89,-109.03 120.08,-119.59 126.85,-117.79"/>
</g>
<!-- node9&#45;&gt;node11 -->
<g id="edge23" class="edge">
<title>node9&#45;&gt;node11</title>
<path fill="none" stroke="red" d="M353.12,-72.81C352.28,-64.79 352.05,-55.05 352.42,-46.07"/>
<polygon fill="red" stroke="red" points="355.92,-46.25 353.14,-36.03 348.94,-45.75 355.92,-46.25"/>
</g>
<!-- node9&#45;&gt;node7 -->
<g id="edge18" class="edge">
<title>node9&#45;&gt;node7</title>
<path fill="none" stroke="fuchsia" stroke-width="2" d="M364.86,-109.03C365.71,-117.03 365.95,-126.77 365.59,-135.75"/>
<polygon fill="fuchsia" stroke="fuchsia" stroke-width="2" points="362.09,-135.59 364.88,-145.81 369.07,-136.08 362.09,-135.59"/>
</g>
<!-- node10&#45;&gt;node8 -->
<g id="edge20" class="edge">
<title>node10&#45;&gt;node8</title>
<path fill="none" stroke="fuchsia" stroke-width="2" d="M132.62,-109.03C136.21,-117.12 139.78,-126.98 142.46,-136.05"/>
<polygon fill="fuchsia" stroke="fuchsia" stroke-width="2" points="139.11,-137.05 145.07,-145.81 145.87,-135.25 139.11,-137.05"/>
</g>
<!-- c0 -->
<!-- c1 -->
<!-- c0&#45;&gt;c1 -->
<g id="edge24" class="edge">
<title>c0&#45;&gt;c1</title>
<path fill="none" stroke="red" d="M793.89,-602C805.11,-602 863.24,-602 888.86,-602"/>
<polygon fill="red" stroke="red" points="889.06,-605.5 899.06,-602 889.06,-598.5 889.06,-605.5"/>
<text text-anchor="middle" x="846.5" y="-608.8" font-family="Times,serif" font-size="14.00">Control flow</text>
</g>
<!-- c2 -->
<!-- c3 -->
<!-- c2&#45;&gt;c3 -->
<g id="edge25" class="edge">
<title>c2&#45;&gt;c3</title>
<path fill="none" stroke="red" stroke-dasharray="5,2" d="M587.08,-602C604.05,-602 720.21,-602 758.08,-602"/>
<polygon fill="red" stroke="red" points="758.17,-605.5 768.17,-602 758.17,-598.5 758.17,-605.5"/>
<text text-anchor="middle" x="677.5" y="-608.8" font-family="Times,serif" font-size="14.00">Control flow back edge</text>
</g>
<!-- d8 -->
<!-- d9 -->
<!-- d8&#45;&gt;d9 -->
<g id="edge26" class="edge">
<title>d8&#45;&gt;d9</title>
<path fill="none" stroke="fuchsia" d="M464.11,-602C475.15,-602 526.67,-602 550.66,-602"/>
<polygon fill="fuchsia" stroke="fuchsia" points="550.9,-605.5 560.9,-602 550.9,-598.5 550.9,-605.5"/>
<text text-anchor="middle" x="512.5" y="-608.8" font-family="Times,serif" font-size="14.00">Dominance</text>
</g>
</g>
</svg>
