<?xml version="1.0" encoding="UTF-8" standalone="no"?>
<!DOCTYPE svg PUBLIC "-//W3C//DTD SVG 1.1//EN"
 "http://www.w3.org/Graphics/SVG/1.1/DTD/svg11.dtd">
<!-- Generated by graphviz version 2.43.0 (0)
 -->
<!-- Title: debugoutput Pages: 1 -->
<svg width="2050pt" height="797pt"
 viewBox="0.00 0.00 2050.00 796.80" xmlns="http://www.w3.org/2000/svg" xmlns:xlink="http://www.w3.org/1999/xlink">
<g id="graph0" class="graph" transform="scale(1 1) rotate(0) translate(4 792.8)">
<title>debugoutput</title>
<polygon fill="white" stroke="transparent" points="-4,4 -4,-792.8 2046,-792.8 2046,4 -4,4"/>
<g id="clust1" class="cluster">
<title>cluster_000</title>
<polygon fill="none" stroke="black" points="1058,-738.2 1058,-780.8 2034,-780.8 2034,-738.2 1058,-738.2"/>
<text text-anchor="middle" x="1546" y="-765.6" font-family="Times,serif" font-size="14.00">Legend</text>
</g>
<!-- node0 -->
<g id="node1" class="node">
<title>node0</title>
<polygon fill="lightgrey" stroke="black" points="1048,-766 882,-766 882,-730 1048,-730 1048,-766"/>
<text text-anchor="middle" x="965" y="-744.3" font-family="Times,serif" font-size="14.00">#0 Method Order : 0</text>
</g>
<!-- node1 -->
<g id="node2" class="node">
<title>node1</title>
<polygon fill="lightgrey" stroke="black" points="446.5,-693 269.5,-693 269.5,-657 446.5,-657 446.5,-693"/>
<text text-anchor="middle" x="358" y="-671.3" font-family="Times,serif" font-size="14.00">#1 arg0 : int Order : 9</text>
</g>
<!-- node0&#45;&gt;node1 -->
<g id="edge2" class="edge">
<title>node0&#45;&gt;node1</title>
<path fill="none" stroke="black" d="M881.63,-746.53C782.71,-744.77 613.46,-737.85 471,-712 450.09,-708.21 427.66,-702.18 408.28,-696.13"/>
<polygon fill="black" stroke="black" points="409.34,-692.79 398.75,-693.07 407.2,-699.46 409.34,-692.79"/>
<text text-anchor="middle" x="418.59" y="-686.86" font-family="Times,serif" font-size="14.00">*0</text>
</g>
<!-- node2 -->
<g id="node3" class="node">
<title>node2</title>
<polygon fill="lightgrey" stroke="black" points="1238.5,-693 1061.5,-693 1061.5,-657 1238.5,-657 1238.5,-693"/>
<text text-anchor="middle" x="1150" y="-671.3" font-family="Times,serif" font-size="14.00">#2 arg1 : int Order : 7</text>
</g>
<!-- node0&#45;&gt;node2 -->
<g id="edge4" class="edge">
<title>node0&#45;&gt;node2</title>
<path fill="none" stroke="black" d="M1003.45,-729.99C1028.51,-719.97 1061.64,-707.21 1090.09,-696.62"/>
<polygon fill="black" stroke="black" points="1091.38,-699.87 1099.54,-693.11 1088.94,-693.31 1091.38,-699.87"/>
<text text-anchor="middle" x="1085.48" y="-703.64" font-family="Times,serif" font-size="14.00">*0</text>
</g>
<!-- node3 -->
<g id="node4" class="node">
<title>node3</title>
<polygon fill="lightgrey" stroke="black" points="1433.5,-693 1256.5,-693 1256.5,-657 1433.5,-657 1433.5,-693"/>
<text text-anchor="middle" x="1345" y="-671.3" font-family="Times,serif" font-size="14.00">#3 arg2 : int Order : 6</text>
</g>
<!-- node0&#45;&gt;node3 -->
<g id="edge6" class="edge">
<title>node0&#45;&gt;node3</title>
<path fill="none" stroke="black" d="M1045.38,-729.93C1112.29,-717.33 1187.85,-703.32 1246.4,-692.73"/>
<polygon fill="black" stroke="black" points="1247.16,-696.15 1256.38,-690.93 1245.92,-689.26 1247.16,-696.15"/>
<text text-anchor="middle" x="1240.05" y="-698.77" font-family="Times,serif" font-size="14.00">*0</text>
</g>
<!-- node4 -->
<g id="node5" class="node">
<title>node4</title>
<polygon fill="lightgrey" stroke="black" points="968,-693 780,-693 780,-657 968,-657 968,-693"/>
<text text-anchor="middle" x="874" y="-671.3" font-family="Times,serif" font-size="14.00">#4 LabelNode Order : 1</text>
</g>
<!-- node0&#45;&gt;node4 -->
<g id="edge8" class="edge">
<title>node0&#45;&gt;node4</title>
<path fill="none" stroke="red" d="M937.34,-729.99C924.76,-720.93 910.1,-709.63 897.98,-699.71"/>
<polygon fill="red" stroke="red" points="899.99,-696.83 890.06,-693.11 895.51,-702.2 899.99,-696.83"/>
</g>
<!-- node20 -->
<g id="node23" class="node">
<title>node20</title>
<polygon fill="lightgrey" stroke="black" points="279.5,-182 28.5,-182 28.5,-146 279.5,-146 279.5,-182"/>
<text text-anchor="middle" x="154" y="-160.3" font-family="Times,serif" font-size="14.00">#20 ReturnValue : int Order : 14</text>
</g>
<!-- node0&#45;&gt;node20 -->
<g id="edge52" class="edge">
<title>node0&#45;&gt;node20</title>
<path fill="none" stroke="green" d="M881.89,-744.23C719.93,-738.1 368,-721.63 251,-693 143.94,-666.8 38,-676.22 38,-566 38,-566 38,-566 38,-273 38,-234.88 72.05,-205.4 103.36,-186.94"/>
<polygon fill="green" stroke="green" points="105.08,-189.98 112.08,-182.03 101.65,-183.89 105.08,-189.98"/>
</g>
<!-- node1&#45;&gt;node0 -->
<g id="edge1" class="edge">
<title>node1&#45;&gt;node0</title>
<path fill="none" stroke="fuchsia" stroke-width="2" d="M415.22,-693.07C438.03,-700.08 464.56,-707.56 489,-712 620.77,-735.91 775.47,-743.63 871.94,-746.04"/>
<polygon fill="fuchsia" stroke="fuchsia" stroke-width="2" points="871.88,-749.54 881.96,-746.27 872.04,-742.54 871.88,-749.54"/>
</g>
<!-- node12 -->
<g id="node16" class="node">
<title>node12</title>
<polygon fill="orange" stroke="black" points="544.56,-448.54 544.56,-463.46 422.97,-474 251.03,-474 129.44,-463.46 129.44,-448.54 251.03,-438 422.97,-438 544.56,-448.54"/>
<text text-anchor="middle" x="337" y="-452.3" font-family="Times,serif" font-size="14.00">#12 NumericCondition : GE Order : 10</text>
</g>
<!-- node1&#45;&gt;node12 -->
<g id="edge31" class="edge">
<title>node1&#45;&gt;node12</title>
<path fill="none" stroke="black" d="M356.35,-656.97C352.73,-619.51 344.03,-529.68 339.64,-484.26"/>
<polygon fill="black" stroke="black" points="343.12,-483.87 338.67,-474.25 336.15,-484.54 343.12,-483.87"/>
<text text-anchor="middle" x="348.83" y="-487.78" font-family="Times,serif" font-size="14.00">*1</text>
</g>
<!-- node1&#45;&gt;node20 -->
<g id="edge50" class="edge">
<title>node1&#45;&gt;node20</title>
<path fill="none" stroke="black" d="M269.36,-666.99C192.66,-658.4 94,-640.14 94,-603 94,-603 94,-603 94,-236 94,-217.38 106.18,-201.13 119.57,-188.88"/>
<polygon fill="black" stroke="black" points="122.15,-191.29 127.51,-182.15 117.62,-185.95 122.15,-191.29"/>
<text text-anchor="middle" x="119.15" y="-196.62" font-family="Times,serif" font-size="14.00">*0</text>
</g>
<!-- node2&#45;&gt;node0 -->
<g id="edge3" class="edge">
<title>node2&#45;&gt;node0</title>
<path fill="none" stroke="fuchsia" stroke-width="2" d="M1111.28,-693.11C1086.16,-703.16 1053.03,-715.92 1024.61,-726.5"/>
<polygon fill="fuchsia" stroke="fuchsia" stroke-width="2" points="1023.33,-723.24 1015.17,-729.99 1025.76,-729.8 1023.33,-723.24"/>
</g>
<!-- node5 -->
<g id="node6" class="node">
<title>node5</title>
<polygon fill="orange" stroke="black" points="1424,-594.54 1424,-609.46 1353.12,-620 1252.88,-620 1182,-609.46 1182,-594.54 1252.88,-584 1353.12,-584 1424,-594.54"/>
<text text-anchor="middle" x="1303" y="-598.3" font-family="Times,serif" font-size="14.00">#5 Add : int Order : 8</text>
</g>
<!-- node2&#45;&gt;node5 -->
<g id="edge10" class="edge">
<title>node2&#45;&gt;node5</title>
<path fill="none" stroke="black" d="M1186.65,-656.99C1207.69,-647.23 1234.31,-634.88 1256.78,-624.45"/>
<polygon fill="black" stroke="black" points="1258.52,-627.5 1266.12,-620.11 1255.58,-621.15 1258.52,-627.5"/>
<text text-anchor="middle" x="1253.24" y="-631.71" font-family="Times,serif" font-size="14.00">*0</text>
</g>
<!-- node3&#45;&gt;node0 -->
<g id="edge5" class="edge">
<title>node3&#45;&gt;node0</title>
<path fill="none" stroke="fuchsia" stroke-width="2" d="M1260.36,-693.02C1204.37,-703.59 1129.4,-717.5 1063,-730 1061.5,-730.28 1059.99,-730.57 1058.47,-730.85"/>
<polygon fill="fuchsia" stroke="fuchsia" stroke-width="2" points="1057.46,-727.48 1048.28,-732.78 1058.75,-734.36 1057.46,-727.48"/>
</g>
<!-- node3&#45;&gt;node5 -->
<g id="edge11" class="edge">
<title>node3&#45;&gt;node5</title>
<path fill="none" stroke="black" d="M1334.83,-656.81C1329.88,-648.44 1323.82,-638.2 1318.32,-628.9"/>
<polygon fill="black" stroke="black" points="1321.18,-626.85 1313.07,-620.03 1315.15,-630.42 1321.18,-626.85"/>
<text text-anchor="middle" x="1329.58" y="-627.63" font-family="Times,serif" font-size="14.00">*1</text>
</g>
<!-- node4&#45;&gt;node0 -->
<g id="edge7" class="edge">
<title>node4&#45;&gt;node0</title>
<path fill="none" stroke="fuchsia" stroke-width="2" d="M901.69,-693.03C914.24,-702.07 928.85,-713.33 940.94,-723.23"/>
<polygon fill="fuchsia" stroke="fuchsia" stroke-width="2" points="938.93,-726.1 948.85,-729.81 943.41,-720.72 938.93,-726.1"/>
</g>
<!-- node6 -->
<g id="node7" class="node">
<title>node6</title>
<polygon fill="lightgrey" stroke="black" points="1100,-620 912,-620 912,-584 1100,-584 1100,-620"/>
<text text-anchor="middle" x="1006" y="-598.3" font-family="Times,serif" font-size="14.00">#6 LabelNode Order : 3</text>
</g>
<!-- node4&#45;&gt;node6 -->
<g id="edge13" class="edge">
<title>node4&#45;&gt;node6</title>
<path fill="none" stroke="red" d="M899.76,-656.99C916.72,-647.32 939.3,-635.1 959.32,-624.73"/>
<polygon fill="red" stroke="red" points="961.02,-627.8 968.31,-620.11 957.82,-621.57 961.02,-627.8"/>
</g>
<!-- node7 -->
<g id="node8" class="node">
<title>node7</title>
<polygon fill="lightgreen" stroke="black" points="893.77,-594.54 893.77,-609.46 830.64,-620 741.36,-620 678.23,-609.46 678.23,-594.54 741.36,-584 830.64,-584 893.77,-594.54"/>
<text text-anchor="middle" x="786" y="-598.3" font-family="Times,serif" font-size="14.00">#7 int 10 Order : 2</text>
</g>
<!-- node4&#45;&gt;node7 -->
<g id="edge15" class="edge">
<title>node4&#45;&gt;node7</title>
<path fill="none" stroke="black" stroke-dasharray="1,5" d="M846.82,-656.81C834.63,-647.74 820.49,-636.48 808.85,-626.6"/>
<polygon fill="black" stroke="black" points="811.1,-623.92 801.24,-620.03 806.52,-629.22 811.1,-623.92"/>
</g>
<!-- node5&#45;&gt;node0 -->
<g id="edge9" class="edge">
<title>node5&#45;&gt;node0</title>
<path fill="none" stroke="fuchsia" stroke-width="2" d="M1218.46,-614.96C1157.12,-624.8 1080.32,-639.87 1053,-657 1026.71,-673.48 1031.97,-690.09 1010,-712 1006.06,-715.93 1001.68,-719.83 997.24,-723.51"/>
<polygon fill="fuchsia" stroke="fuchsia" stroke-width="2" points="994.9,-720.9 989.27,-729.87 999.27,-726.37 994.9,-720.9"/>
</g>
<!-- node13 -->
<g id="node17" class="node">
<title>node13</title>
<polygon fill="orange" stroke="black" points="1593.83,-448.54 1593.83,-463.46 1515.43,-474 1404.57,-474 1326.17,-463.46 1326.17,-448.54 1404.57,-438 1515.43,-438 1593.83,-448.54"/>
<text text-anchor="middle" x="1460" y="-452.3" font-family="Times,serif" font-size="14.00">#13 Add : int Order : 21</text>
</g>
<!-- node5&#45;&gt;node13 -->
<g id="edge34" class="edge">
<title>node5&#45;&gt;node13</title>
<path fill="none" stroke="black" d="M1342.61,-583.93C1361.07,-574.73 1382.53,-562.15 1399,-547 1418.94,-528.66 1435.69,-502.6 1446.57,-483.23"/>
<polygon fill="black" stroke="black" points="1449.71,-484.79 1451.42,-474.33 1443.56,-481.44 1449.71,-484.79"/>
<text text-anchor="middle" x="1450.16" y="-490.59" font-family="Times,serif" font-size="14.00">*1</text>
</g>
<!-- node6&#45;&gt;node4 -->
<g id="edge12" class="edge">
<title>node6&#45;&gt;node4</title>
<path fill="none" stroke="fuchsia" stroke-width="2" d="M980.05,-620.11C963.05,-629.81 940.46,-642.03 920.46,-652.38"/>
<polygon fill="fuchsia" stroke="fuchsia" stroke-width="2" points="918.77,-649.31 911.48,-656.99 921.97,-655.54 918.77,-649.31"/>
</g>
<!-- node8 -->
<g id="node9" class="node">
<title>node8</title>
<polygon fill="lightgrey" stroke="black" points="522,-36 258,-36 258,0 522,0 522,-36"/>
<text text-anchor="middle" x="390" y="-14.3" font-family="Times,serif" font-size="14.00">#8 LoopHeader : Loop14 Order : 5</text>
</g>
<!-- node6&#45;&gt;node8 -->
<g id="edge17" class="edge">
<title>node6&#45;&gt;node8</title>
<path fill="none" stroke="red" d="M911.99,-585.37C908.96,-584.9 905.96,-584.44 903,-584 842.46,-574.9 670.28,-593.11 630,-547 482.56,-378.23 949.81,-241.45 802,-73 784.04,-52.54 644.03,-37.43 532.13,-28.48"/>
<polygon fill="red" stroke="red" points="532.33,-24.98 522.08,-27.69 531.78,-31.96 532.33,-24.98"/>
</g>
<!-- node9 -->
<g id="node11" class="node">
<title>node9</title>
<polygon fill="orange" stroke="black" points="1357.08,-521.54 1357.08,-536.46 1293.18,-547 1202.82,-547 1138.92,-536.46 1138.92,-521.54 1202.82,-511 1293.18,-511 1357.08,-521.54"/>
<text text-anchor="middle" x="1248" y="-525.3" font-family="Times,serif" font-size="14.00">#9 Φ int Order : 23</text>
</g>
<!-- node6&#45;&gt;node9 -->
<g id="edge20" class="edge">
<title>node6&#45;&gt;node9</title>
<path fill="none" stroke="black" stroke-dasharray="1,5" d="M1058.11,-583.99C1094.2,-573.06 1142.49,-558.89 1181.37,-547.81"/>
<polygon fill="black" stroke="black" points="1182.38,-551.16 1191.04,-545.06 1180.46,-544.42 1182.38,-551.16"/>
</g>
<!-- node10 -->
<g id="node13" class="node">
<title>node10</title>
<polygon fill="lightgreen" stroke="black" points="854.77,-521.54 854.77,-536.46 791.64,-547 702.36,-547 639.23,-536.46 639.23,-521.54 702.36,-511 791.64,-511 854.77,-521.54"/>
<text text-anchor="middle" x="747" y="-525.3" font-family="Times,serif" font-size="14.00">#10 int 0 Order : 4</text>
</g>
<!-- node6&#45;&gt;node10 -->
<g id="edge24" class="edge">
<title>node6&#45;&gt;node10</title>
<path fill="none" stroke="black" stroke-dasharray="1,5" d="M938.1,-583.99C898.07,-573.33 847.84,-559.57 808.89,-548.62"/>
<polygon fill="black" stroke="black" points="809.82,-545.24 799.25,-545.89 807.92,-551.98 809.82,-545.24"/>
</g>
<!-- node11 -->
<g id="node14" class="node">
<title>node11</title>
<polygon fill="orange" stroke="black" points="1121.25,-521.54 1121.25,-536.46 1053.74,-547 958.26,-547 890.75,-536.46 890.75,-521.54 958.26,-511 1053.74,-511 1121.25,-521.54"/>
<text text-anchor="middle" x="1006" y="-525.3" font-family="Times,serif" font-size="14.00">#11 Φ int Order : 20</text>
</g>
<!-- node6&#45;&gt;node11 -->
<g id="edge26" class="edge">
<title>node6&#45;&gt;node11</title>
<path fill="none" stroke="black" stroke-dasharray="1,5" d="M1000.12,-583.81C999.28,-575.79 999.05,-566.05 999.42,-557.07"/>
<polygon fill="black" stroke="black" points="1002.92,-557.25 1000.14,-547.03 995.94,-556.75 1002.92,-557.25"/>
</g>
<!-- node7&#45;&gt;node4 -->
<g id="edge14" class="edge">
<title>node7&#45;&gt;node4</title>
<path fill="none" stroke="fuchsia" stroke-width="2" d="M812.97,-620.03C825.14,-629.07 839.28,-640.33 850.95,-650.23"/>
<polygon fill="fuchsia" stroke="fuchsia" stroke-width="2" points="848.72,-652.93 858.58,-656.81 853.29,-647.63 848.72,-652.93"/>
</g>
<!-- node7&#45;&gt;node9 -->
<g id="edge21" class="edge">
<title>node7&#45;&gt;node9</title>
<path fill="none" stroke="blue" d="M862.29,-589.28C944.51,-576.64 1075.12,-556.57 1161.2,-543.34"/>
<polygon fill="blue" stroke="blue" points="1161.86,-546.78 1171.21,-541.8 1160.8,-539.86 1161.86,-546.78"/>
<text text-anchor="middle" x="1154.58" y="-549.21" font-family="Times,serif" font-size="14.00">if #6</text>
</g>
<!-- node8&#45;&gt;node0 -->
<g id="edge16" class="edge">
<title>node8&#45;&gt;node0</title>
<path fill="none" stroke="fuchsia" stroke-width="2" d="M257.96,-30.75C144.82,-42.67 0,-63.16 0,-90 0,-676 0,-676 0,-676 0,-719.42 629.6,-739.02 871.7,-744.95"/>
<polygon fill="fuchsia" stroke="fuchsia" stroke-width="2" points="871.81,-748.45 881.89,-745.2 871.98,-741.46 871.81,-748.45"/>
</g>
<!-- node14 -->
<g id="node18" class="node">
<title>node14</title>
<polygon fill="lightgrey" stroke="black" points="426,-401 286,-401 286,-365 426,-365 426,-401"/>
<text text-anchor="middle" x="356" y="-379.3" font-family="Times,serif" font-size="14.00">#14 If Order : 11</text>
</g>
<!-- node8&#45;&gt;node14 -->
<g id="edge37" class="edge">
<title>node8&#45;&gt;node14</title>
<path fill="none" stroke="red" d="M376.56,-36.01C367.06,-49.76 356,-70.05 356,-90 356,-311 356,-311 356,-311 356,-325.35 356,-341.33 356,-354.49"/>
<polygon fill="red" stroke="red" points="352.5,-354.78 356,-364.78 359.5,-354.78 352.5,-354.78"/>
</g>
<!-- node22 -->
<g id="node10" class="node">
<title>node22</title>
<polygon fill="lightgrey" stroke="black" points="547.5,-109 384.5,-109 384.5,-73 547.5,-73 547.5,-109"/>
<text text-anchor="middle" x="466" y="-87.3" font-family="Times,serif" font-size="14.00">#22 Goto Order : 24</text>
</g>
<!-- node22&#45;&gt;node8 -->
<g id="edge18" class="edge">
<title>node22&#45;&gt;node8</title>
<path fill="none" stroke="red" stroke-dasharray="5,2" d="M447.6,-72.81C437.99,-63.83 426.07,-52.69 415.57,-42.89"/>
<polygon fill="red" stroke="red" points="417.92,-40.3 408.23,-36.03 413.15,-45.41 417.92,-40.3"/>
</g>
<!-- node21 -->
<g id="node24" class="node">
<title>node21</title>
<polygon fill="lightgrey" stroke="black" points="590,-182 384,-182 384,-146 590,-146 590,-182"/>
<text text-anchor="middle" x="487" y="-160.3" font-family="Times,serif" font-size="14.00">#21 LabelNode Order : 17</text>
</g>
<!-- node22&#45;&gt;node21 -->
<g id="edge55" class="edge">
<title>node22&#45;&gt;node21</title>
<path fill="none" stroke="fuchsia" stroke-width="2" d="M476.9,-109.03C480.15,-117.12 483.3,-126.98 485.6,-136.05"/>
<polygon fill="fuchsia" stroke="fuchsia" stroke-width="2" points="482.19,-136.82 487.79,-145.81 489.02,-135.29 482.19,-136.82"/>
</g>
<!-- node9&#45;&gt;node6 -->
<g id="edge19" class="edge">
<title>node9&#45;&gt;node6</title>
<path fill="none" stroke="fuchsia" stroke-width="2" d="M1197.97,-546.38C1163.85,-556.73 1118.16,-570.16 1079.89,-581.12"/>
<polygon fill="fuchsia" stroke="fuchsia" stroke-width="2" points="1078.48,-577.88 1069.82,-583.99 1080.4,-584.61 1078.48,-577.88"/>
</g>
<!-- node15 -->
<g id="node12" class="node">
<title>node15</title>
<polygon fill="orange" stroke="black" points="1431.83,-375.54 1431.83,-390.46 1353.43,-401 1242.57,-401 1164.17,-390.46 1164.17,-375.54 1242.57,-365 1353.43,-365 1431.83,-375.54"/>
<text text-anchor="middle" x="1298" y="-379.3" font-family="Times,serif" font-size="14.00">#15 Add : int Order : 22</text>
</g>
<!-- node9&#45;&gt;node15 -->
<g id="edge39" class="edge">
<title>node9&#45;&gt;node15</title>
<path fill="none" stroke="black" d="M1247.02,-510.9C1251.04,-489.34 1263.25,-451.2 1275,-419 1276.04,-416.14 1277.17,-413.17 1278.37,-410.21"/>
<polygon fill="black" stroke="black" points="1281.59,-411.57 1282.43,-401.01 1275.19,-408.75 1281.59,-411.57"/>
<text text-anchor="middle" x="1282.84" y="-417.3" font-family="Times,serif" font-size="14.00">*0</text>
</g>
<!-- node15&#45;&gt;node0 -->
<g id="edge38" class="edge">
<title>node15&#45;&gt;node0</title>
<path fill="none" stroke="fuchsia" stroke-width="2" d="M1298.12,-401.25C1299.01,-420.43 1302.78,-451.63 1317,-474 1331.64,-497.03 1353.84,-486.57 1366,-511 1373.13,-525.32 1376.19,-534.67 1366,-547 1310.36,-614.32 1255.02,-553.98 1173,-584 1142.35,-595.22 1138.31,-605.65 1109,-620 1070.89,-638.65 1053.28,-629.47 1021,-657 1000.66,-674.34 985.38,-700.97 975.96,-720.77"/>
<polygon fill="fuchsia" stroke="fuchsia" stroke-width="2" points="972.77,-719.32 971.81,-729.87 979.14,-722.23 972.77,-719.32"/>
</g>
<!-- node15&#45;&gt;node9 -->
<g id="edge22" class="edge">
<title>node15&#45;&gt;node9</title>
<path fill="none" stroke="blue" stroke-dasharray="5,2" d="M1299.48,-401.01C1297.66,-406.7 1295.15,-413.1 1293,-419 1282.81,-446.93 1272.28,-479.31 1263.48,-501.48"/>
<polygon fill="blue" stroke="blue" points="1260.17,-500.32 1259.56,-510.9 1266.63,-503.01 1260.17,-500.32"/>
<text text-anchor="middle" x="1258.72" y="-487.21" font-family="Times,serif" font-size="14.00">if #22</text>
</g>
<!-- node10&#45;&gt;node6 -->
<g id="edge23" class="edge">
<title>node10&#45;&gt;node6</title>
<path fill="none" stroke="fuchsia" stroke-width="2" d="M806.23,-544.7C846.18,-555.29 898.87,-569.68 940.13,-581.27"/>
<polygon fill="fuchsia" stroke="fuchsia" stroke-width="2" points="939.25,-584.65 949.82,-583.99 941.14,-577.91 939.25,-584.65"/>
</g>
<!-- node10&#45;&gt;node11 -->
<g id="edge27" class="edge">
<title>node10&#45;&gt;node11</title>
<path fill="none" stroke="blue" d="M854.75,-529C863.31,-529 871.88,-529 880.44,-529"/>
<polygon fill="blue" stroke="blue" points="880.49,-532.5 890.49,-529 880.49,-525.5 880.49,-532.5"/>
<text text-anchor="middle" x="872.37" y="-533.75" font-family="Times,serif" font-size="14.00">if #6</text>
</g>
<!-- node11&#45;&gt;node6 -->
<g id="edge25" class="edge">
<title>node11&#45;&gt;node6</title>
<path fill="none" stroke="fuchsia" stroke-width="2" d="M1011.86,-547.03C1012.71,-555.03 1012.95,-564.77 1012.59,-573.75"/>
<polygon fill="fuchsia" stroke="fuchsia" stroke-width="2" points="1009.09,-573.59 1011.88,-583.81 1016.07,-574.08 1009.09,-573.59"/>
</g>
<!-- node24 -->
<g id="node15" class="node">
<title>node24</title>
<polygon fill="orange" stroke="black" points="1139.83,-10.54 1139.83,-25.46 1061.43,-36 950.57,-36 872.17,-25.46 872.17,-10.54 950.57,0 1061.43,0 1139.83,-10.54"/>
<text text-anchor="middle" x="1006" y="-14.3" font-family="Times,serif" font-size="14.00">#24 Add : int Order : 19</text>
</g>
<!-- node11&#45;&gt;node24 -->
<g id="edge60" class="edge">
<title>node11&#45;&gt;node24</title>
<path fill="none" stroke="black" d="M998.77,-510.78C997,-496.41 997,-475.37 997,-457 997,-457 997,-457 997,-90 997,-75.65 997,-59.67 997.85,-46.51"/>
<polygon fill="black" stroke="black" points="1001.36,-46.49 998.77,-36.22 994.39,-45.86 1001.36,-46.49"/>
<text text-anchor="middle" x="1005.56" y="-51.33" font-family="Times,serif" font-size="14.00">*0</text>
</g>
<!-- node11&#45;&gt;node12 -->
<g id="edge30" class="edge">
<title>node11&#45;&gt;node12</title>
<path fill="none" stroke="black" d="M918.16,-517.25C900.25,-515.12 881.52,-512.95 864,-511 734.05,-496.56 585.91,-481.51 479.85,-470.97"/>
<polygon fill="black" stroke="black" points="480.02,-467.47 469.72,-469.97 479.33,-474.44 480.02,-467.47"/>
<text text-anchor="middle" x="488.6" y="-459.65" font-family="Times,serif" font-size="14.00">*0</text>
</g>
<!-- node11&#45;&gt;node13 -->
<g id="edge33" class="edge">
<title>node11&#45;&gt;node13</title>
<path fill="none" stroke="black" d="M1084.3,-515.75C1162.43,-503.54 1282.5,-484.76 1365.79,-471.73"/>
<polygon fill="black" stroke="black" points="1366.42,-475.18 1375.76,-470.17 1365.34,-468.26 1366.42,-475.18"/>
<text text-anchor="middle" x="1359.16" y="-477.63" font-family="Times,serif" font-size="14.00">*0</text>
</g>
<!-- node24&#45;&gt;node0 -->
<g id="edge59" class="edge">
<title>node24&#45;&gt;node0</title>
<path fill="none" stroke="fuchsia" stroke-width="2" d="M1140.04,-21.34C1321.25,-26.33 1622,-41.86 1622,-90 1622,-676 1622,-676 1622,-676 1622,-736.92 1155.63,-723.64 1058.31,-729.86"/>
<polygon fill="fuchsia" stroke="fuchsia" stroke-width="2" points="1057.99,-726.38 1048.32,-730.72 1058.59,-733.35 1057.99,-726.38"/>
</g>
<!-- node24&#45;&gt;node11 -->
<g id="edge28" class="edge">
<title>node24&#45;&gt;node11</title>
<path fill="none" stroke="blue" stroke-dasharray="5,2" d="M1013.23,-36.22C1015,-50.59 1015,-71.63 1015,-90 1015,-457 1015,-457 1015,-457 1015,-471.35 1015,-487.33 1014.15,-500.49"/>
<polygon fill="blue" stroke="blue" points="1010.64,-500.51 1013.23,-510.78 1017.61,-501.14 1010.64,-500.51"/>
<text text-anchor="middle" x="1006.44" y="-488.27" font-family="Times,serif" font-size="14.00">if #22</text>
</g>
<!-- node12&#45;&gt;node0 -->
<g id="edge29" class="edge">
<title>node12&#45;&gt;node0</title>
<path fill="none" stroke="fuchsia" stroke-width="2" d="M445.18,-472.2C472.38,-482.48 494,-499.58 494,-528 494,-676 494,-676 494,-676 494,-709.02 527.41,-702.37 559,-712 615.35,-729.18 770.19,-738.82 871.54,-743.46"/>
<polygon fill="fuchsia" stroke="fuchsia" stroke-width="2" points="871.64,-746.97 881.79,-743.92 871.95,-739.97 871.64,-746.97"/>
</g>
<!-- node12&#45;&gt;node14 -->
<g id="edge36" class="edge">
<title>node12&#45;&gt;node14</title>
<path fill="none" stroke="black" d="M341.6,-437.81C343.77,-429.7 346.41,-419.84 348.83,-410.78"/>
<polygon fill="black" stroke="black" points="352.24,-411.59 351.44,-401.03 345.48,-409.78 352.24,-411.59"/>
<text text-anchor="middle" x="354.92" y="-417.02" font-family="Times,serif" font-size="14.00">*0</text>
</g>
<!-- node13&#45;&gt;node0 -->
<g id="edge32" class="edge">
<title>node13&#45;&gt;node0</title>
<path fill="none" stroke="fuchsia" stroke-width="2" d="M1460.38,-474.22C1460.66,-488.59 1461,-509.63 1461,-528 1461,-676 1461,-676 1461,-676 1461,-687 1453.02,-688.45 1443,-693 1287.85,-763.37 1228.21,-707.67 1058.36,-729.48"/>
<polygon fill="fuchsia" stroke="fuchsia" stroke-width="2" points="1057.78,-726.02 1048.34,-730.84 1058.72,-732.96 1057.78,-726.02"/>
</g>
<!-- node13&#45;&gt;node15 -->
<g id="edge40" class="edge">
<title>node13&#45;&gt;node15</title>
<path fill="none" stroke="black" d="M1421.2,-437.99C1398.72,-428.14 1370.23,-415.66 1346.31,-405.17"/>
<polygon fill="black" stroke="black" points="1347.61,-401.92 1337.05,-401.11 1344.8,-408.33 1347.61,-401.92"/>
<text text-anchor="middle" x="1357.04" y="-396.95" font-family="Times,serif" font-size="14.00">*1</text>
</g>
<!-- node14&#45;&gt;node0 -->
<g id="edge35" class="edge">
<title>node14&#45;&gt;node0</title>
<path fill="none" stroke="fuchsia" stroke-width="2" d="M426.15,-393.33C489.55,-403.79 573,-423.54 573,-455 573,-676 573,-676 573,-676 573,-706.24 755.98,-728.3 871.91,-739.24"/>
<polygon fill="fuchsia" stroke="fuchsia" stroke-width="2" points="871.59,-742.73 881.87,-740.17 872.23,-735.76 871.59,-742.73"/>
</g>
<!-- node16 -->
<g id="node19" class="node">
<title>node16</title>
<polygon fill="lightgrey" stroke="black" points="553.5,-328 390.5,-328 390.5,-292 553.5,-292 553.5,-328"/>
<text text-anchor="middle" x="472" y="-306.3" font-family="Times,serif" font-size="14.00">#16 false Order : 15</text>
</g>
<!-- node14&#45;&gt;node16 -->
<g id="edge42" class="edge">
<title>node14&#45;&gt;node16</title>
<path fill="none" stroke="red" d="M377.93,-364.99C392.44,-355.49 411.82,-343.54 429.26,-333.29"/>
<polygon fill="red" stroke="red" points="431.28,-336.17 438.17,-328.11 427.77,-330.11 431.28,-336.17"/>
</g>
<!-- node17 -->
<g id="node20" class="node">
<title>node17</title>
<polygon fill="lightgrey" stroke="black" points="316.5,-328 157.5,-328 157.5,-292 316.5,-292 316.5,-328"/>
<text text-anchor="middle" x="237" y="-306.3" font-family="Times,serif" font-size="14.00">#17 true Order : 12</text>
</g>
<!-- node14&#45;&gt;node17 -->
<g id="edge44" class="edge">
<title>node14&#45;&gt;node17</title>
<path fill="none" stroke="red" d="M321.64,-364.99C304.86,-355.58 284.88,-343.76 268.5,-333.57"/>
<polygon fill="red" stroke="red" points="270.14,-330.47 259.81,-328.11 266.42,-336.4 270.14,-330.47"/>
</g>
<!-- node16&#45;&gt;node14 -->
<g id="edge41" class="edge">
<title>node16&#45;&gt;node14</title>
<path fill="none" stroke="fuchsia" stroke-width="2" d="M449.91,-328.11C435.36,-337.63 415.97,-349.59 398.54,-359.82"/>
<polygon fill="fuchsia" stroke="fuchsia" stroke-width="2" points="396.53,-356.94 389.64,-364.99 400.05,-363 396.53,-356.94"/>
</g>
<!-- node18 -->
<g id="node21" class="node">
<title>node18</title>
<polygon fill="lightgrey" stroke="black" points="590,-255 384,-255 384,-219 590,-219 590,-255"/>
<text text-anchor="middle" x="487" y="-233.3" font-family="Times,serif" font-size="14.00">#18 LabelNode Order : 16</text>
</g>
<!-- node16&#45;&gt;node18 -->
<g id="edge46" class="edge">
<title>node16&#45;&gt;node18</title>
<path fill="none" stroke="red" d="M469.75,-291.81C470.62,-283.7 472.47,-273.84 474.78,-264.78"/>
<polygon fill="red" stroke="red" points="478.18,-265.6 477.54,-255.03 471.45,-263.7 478.18,-265.6"/>
</g>
<!-- node17&#45;&gt;node14 -->
<g id="edge43" class="edge">
<title>node17&#45;&gt;node14</title>
<path fill="none" stroke="fuchsia" stroke-width="2" d="M271.55,-328.11C288.36,-337.55 308.33,-349.37 324.69,-359.54"/>
<polygon fill="fuchsia" stroke="fuchsia" stroke-width="2" points="323.03,-362.63 333.36,-364.99 326.75,-356.71 323.03,-362.63"/>
</g>
<!-- node19 -->
<g id="node22" class="node">
<title>node19</title>
<polygon fill="lightgrey" stroke="black" points="328,-255 122,-255 122,-219 328,-219 328,-255"/>
<text text-anchor="middle" x="225" y="-233.3" font-family="Times,serif" font-size="14.00">#19 LabelNode Order : 13</text>
</g>
<!-- node17&#45;&gt;node19 -->
<g id="edge48" class="edge">
<title>node17&#45;&gt;node19</title>
<path fill="none" stroke="red" d="M228.22,-291.81C226.02,-283.79 224.14,-274.05 223,-265.07"/>
<polygon fill="red" stroke="red" points="226.47,-264.64 222.02,-255.03 219.51,-265.32 226.47,-264.64"/>
</g>
<!-- node18&#45;&gt;node16 -->
<g id="edge45" class="edge">
<title>node18&#45;&gt;node16</title>
<path fill="none" stroke="fuchsia" stroke-width="2" d="M489.26,-255.03C488.41,-263.12 486.57,-272.98 484.27,-282.05"/>
<polygon fill="fuchsia" stroke="fuchsia" stroke-width="2" points="480.86,-281.24 481.51,-291.81 487.6,-283.14 480.86,-281.24"/>
</g>
<!-- node18&#45;&gt;node21 -->
<g id="edge54" class="edge">
<title>node18&#45;&gt;node21</title>
<path fill="none" stroke="red" d="M481.12,-218.81C480.28,-210.79 480.05,-201.05 480.42,-192.07"/>
<polygon fill="red" stroke="red" points="483.92,-192.25 481.14,-182.03 476.94,-191.75 483.92,-192.25"/>
</g>
<!-- node19&#45;&gt;node17 -->
<g id="edge47" class="edge">
<title>node19&#45;&gt;node17</title>
<path fill="none" stroke="fuchsia" stroke-width="2" d="M233.74,-255.03C235.94,-263.03 237.83,-272.77 238.98,-281.75"/>
<polygon fill="fuchsia" stroke="fuchsia" stroke-width="2" points="235.51,-282.21 239.97,-291.81 242.47,-281.52 235.51,-282.21"/>
</g>
<!-- node19&#45;&gt;node20 -->
<g id="edge51" class="edge">
<title>node19&#45;&gt;node20</title>
<path fill="none" stroke="red" d="M207.81,-218.81C198.92,-209.92 187.91,-198.91 178.17,-189.17"/>
<polygon fill="red" stroke="red" points="180.57,-186.63 171.03,-182.03 175.63,-191.57 180.57,-186.63"/>
</g>
<!-- node20&#45;&gt;node0 -->
<g id="edge49" class="edge">
<title>node20&#45;&gt;node0</title>
<path fill="none" stroke="fuchsia" stroke-width="2" d="M125.85,-182.03C96.76,-199.93 56,-231.3 56,-273 56,-566 56,-566 56,-566 56,-676.22 161.94,-666.8 269,-693 381.08,-720.43 708.75,-736.69 871.35,-743.4"/>
<polygon fill="fuchsia" stroke="fuchsia" stroke-width="2" points="871.68,-746.92 881.82,-743.83 871.97,-739.92 871.68,-746.92"/>
</g>
<!-- node21&#45;&gt;node22 -->
<g id="edge56" class="edge">
<title>node21&#45;&gt;node22</title>
<path fill="none" stroke="red" d="M476.04,-145.81C472.83,-137.79 469.71,-128.05 467.43,-119.07"/>
<polygon fill="red" stroke="red" points="470.78,-118.02 465.18,-109.03 463.95,-119.55 470.78,-118.02"/>
</g>
<!-- node21&#45;&gt;node18 -->
<g id="edge53" class="edge">
<title>node21&#45;&gt;node18</title>
<path fill="none" stroke="fuchsia" stroke-width="2" d="M492.86,-182.03C493.71,-190.03 493.95,-199.77 493.59,-208.75"/>
<polygon fill="fuchsia" stroke="fuchsia" stroke-width="2" points="490.09,-208.59 492.88,-218.81 497.07,-209.08 490.09,-208.59"/>
</g>
<!-- node23 -->
<g id="node25" class="node">
<title>node23</title>
<polygon fill="lightgreen" stroke="black" points="792.93,-83.54 792.93,-98.46 726.19,-109 631.81,-109 565.07,-98.46 565.07,-83.54 631.81,-73 726.19,-73 792.93,-83.54"/>
<text text-anchor="middle" x="679" y="-87.3" font-family="Times,serif" font-size="14.00">#23 int 1 Order : 18</text>
</g>
<!-- node21&#45;&gt;node23 -->
<g id="edge58" class="edge">
<title>node21&#45;&gt;node23</title>
<path fill="none" stroke="black" stroke-dasharray="1,5" d="M527.13,-145.99C553.77,-135.74 589.13,-122.63 619.07,-111.9"/>
<polygon fill="black" stroke="black" points="620.33,-115.16 628.57,-108.5 617.98,-108.57 620.33,-115.16"/>
</g>
<!-- node23&#45;&gt;node24 -->
<g id="edge61" class="edge">
<title>node23&#45;&gt;node24</title>
<path fill="none" stroke="black" d="M744.39,-75.8C796.78,-64.43 870.51,-48.42 926.35,-36.29"/>
<polygon fill="black" stroke="black" points="927.17,-39.7 936.2,-34.15 925.69,-32.86 927.17,-39.7"/>
<text text-anchor="middle" x="920.28" y="-42.56" font-family="Times,serif" font-size="14.00">*1</text>
</g>
<!-- node23&#45;&gt;node21 -->
<g id="edge57" class="edge">
<title>node23&#45;&gt;node21</title>
<path fill="none" stroke="fuchsia" stroke-width="2" d="M638.59,-109.11C612.48,-119.16 578.09,-131.92 548.63,-142.5"/>
<polygon fill="fuchsia" stroke="fuchsia" stroke-width="2" points="547.09,-139.33 538.85,-145.99 549.44,-145.92 547.09,-139.33"/>
</g>
<!-- c0 -->
<!-- c1 -->
<!-- c0&#45;&gt;c1 -->
<g id="edge62" class="edge">
<title>c0&#45;&gt;c1</title>
<path fill="none" stroke="red" d="M1916.89,-748C1928.11,-748 1986.24,-748 2011.86,-748"/>
<polygon fill="red" stroke="red" points="2012.06,-751.5 2022.06,-748 2012.06,-744.5 2012.06,-751.5"/>
<text text-anchor="middle" x="1969.5" y="-754.8" font-family="Times,serif" font-size="14.00">Control flow</text>
</g>
<!-- c2 -->
<!-- c3 -->
<!-- c2&#45;&gt;c3 -->
<g id="edge63" class="edge">
<title>c2&#45;&gt;c3</title>
<path fill="none" stroke="red" stroke-dasharray="5,2" d="M1710.08,-748C1727.05,-748 1843.21,-748 1881.08,-748"/>
<polygon fill="red" stroke="red" points="1881.17,-751.5 1891.17,-748 1881.17,-744.5 1881.17,-751.5"/>
<text text-anchor="middle" x="1800.5" y="-754.8" font-family="Times,serif" font-size="14.00">Control flow back edge</text>
</g>
<!-- d0 -->
<!-- d1 -->
<!-- d0&#45;&gt;d1 -->
<g id="edge64" class="edge">
<title>d0&#45;&gt;d1</title>
<path fill="none" stroke="black" d="M1598.86,-748C1608.41,-748 1652.31,-748 1673.92,-748"/>
<polygon fill="black" stroke="black" points="1674.15,-751.5 1684.15,-748 1674.15,-744.5 1674.15,-751.5"/>
<text text-anchor="middle" x="1641.5" y="-754.8" font-family="Times,serif" font-size="14.00">Data flow</text>
</g>
<!-- d2 -->
<!-- d3 -->
<!-- d2&#45;&gt;d3 -->
<g id="edge65" class="edge">
<title>d2&#45;&gt;d3</title>
<path fill="none" stroke="black" stroke-dasharray="1,5" d="M1472.81,-748C1483.46,-748 1538.46,-748 1563.08,-748"/>
<polygon fill="black" stroke="black" points="1563.15,-751.5 1573.15,-748 1563.15,-744.5 1563.15,-751.5"/>
<text text-anchor="middle" x="1523" y="-754.8" font-family="Times,serif" font-size="14.00">Declaration</text>
</g>
<!-- d4 -->
<!-- d5 -->
<!-- d4&#45;&gt;d5 -->
<g id="edge66" class="edge">
<title>d4&#45;&gt;d5</title>
<path fill="none" stroke="blue" d="M1330.1,-748C1342.72,-748 1408.88,-748 1436.68,-748"/>
<polygon fill="blue" stroke="blue" points="1436.84,-751.5 1446.84,-748 1436.84,-744.5 1436.84,-751.5"/>
<text text-anchor="middle" x="1388.5" y="-754.8" font-family="Times,serif" font-size="14.00">PHI Data flow</text>
</g>
<!-- d6 -->
<!-- d7 -->
<!-- d6&#45;&gt;d7 -->
<g id="edge67" class="edge">
<title>d6&#45;&gt;d7</title>
<path fill="none" stroke="green" d="M1193,-748C1204.94,-748 1267.3,-748 1293.93,-748"/>
<polygon fill="green" stroke="green" points="1293.95,-751.5 1303.95,-748 1293.95,-744.5 1293.95,-751.5"/>
<text text-anchor="middle" x="1248.5" y="-754.8" font-family="Times,serif" font-size="14.00">Memory flow</text>
</g>
<!-- d8 -->
<!-- d9 -->
<!-- d8&#45;&gt;d9 -->
<g id="edge68" class="edge">
<title>d8&#45;&gt;d9</title>
<path fill="none" stroke="fuchsia" d="M1070.11,-748C1081.15,-748 1132.67,-748 1156.66,-748"/>
<polygon fill="fuchsia" stroke="fuchsia" points="1156.9,-751.5 1166.9,-748 1156.9,-744.5 1156.9,-751.5"/>
<text text-anchor="middle" x="1118.5" y="-754.8" font-family="Times,serif" font-size="14.00">Dominance</text>
</g>
</g>
</svg>
