<?xml version="1.0" encoding="UTF-8" standalone="no"?>
<!DOCTYPE svg PUBLIC "-//W3C//DTD SVG 1.1//EN"
 "http://www.w3.org/Graphics/SVG/1.1/DTD/svg11.dtd">
<!-- Generated by graphviz version 2.43.0 (0)
 -->
<!-- Title: %3 Pages: 1 -->
<svg width="1384pt" height="443pt"
 viewBox="0.00 0.00 1383.50 443.00" xmlns="http://www.w3.org/2000/svg" xmlns:xlink="http://www.w3.org/1999/xlink">
<g id="graph0" class="graph" transform="scale(1 1) rotate(0) translate(4 439)">
<title>%3</title>
<polygon fill="white" stroke="transparent" points="-4,4 -4,-439 1379.5,-439 1379.5,4 -4,4"/>
<g id="clust1" class="cluster">
<title>cluster_0</title>
<polygon fill="none" stroke="lightgray" points="128.5,-284 128.5,-427 506.5,-427 506.5,-284 128.5,-284"/>
</g>
<g id="clust2" class="cluster">
<title>cluster_000</title>
<polygon fill="none" stroke="black" points="514.5,-382.2 514.5,-424.8 1367.5,-424.8 1367.5,-382.2 514.5,-382.2"/>
<text text-anchor="middle" x="941" y="-409.6" font-family="Times,serif" font-size="14.00">Legend</text>
</g>
<!-- node0 -->
<g id="node1" class="node">
<title>node0</title>
<polygon fill="lightgrey" stroke="transparent" points="352,-419 185,-419 185,-365 352,-365 352,-419"/>
<polygon fill="none" stroke="black" points="185.5,-392 185.5,-419 352.5,-419 352.5,-392 185.5,-392"/>
<text text-anchor="start" x="228.5" y="-401.8" font-family="Times,serif" font-size="14.00">#0 Method</text>
<polygon fill="yellow" stroke="transparent" points="185.5,-365 185.5,-392 352.5,-392 352.5,-365 185.5,-365"/>
<polygon fill="none" stroke="black" points="185.5,-365 185.5,-392 352.5,-392 352.5,-365 185.5,-365"/>
<text text-anchor="start" x="191.5" y="-374.8" font-family="Times,serif" font-size="14.00">this : FieldAccessTest</text>
</g>
<!-- node2 -->
<g id="node2" class="node">
<title>node2</title>
<polygon fill="lightgrey" stroke="black" points="119,-328 0,-328 0,-292 119,-292 119,-328"/>
<text text-anchor="middle" x="59.5" y="-306.3" font-family="Times,serif" font-size="14.00">#2 LabelNode</text>
</g>
<!-- node0&#45;&gt;node2 -->
<g id="edge1" class="edge">
<title>node0&#45;&gt;node2</title>
<path fill="none" stroke="red" d="M200.35,-364.92C172.24,-354.15 140.12,-341.86 113.65,-331.73"/>
<polygon fill="red" stroke="red" points="114.77,-328.41 104.17,-328.1 112.26,-334.94 114.77,-328.41"/>
</g>
<!-- node4 -->
<g id="node3" class="node">
<title>node4</title>
<polygon fill="lightgrey" stroke="black" points="240,-255 135,-255 135,-219 240,-219 240,-255"/>
<text text-anchor="middle" x="187.5" y="-233.3" font-family="Times,serif" font-size="14.00">#4 ClassInit</text>
</g>
<!-- node0&#45;&gt;node4 -->
<g id="edge4" class="edge">
<title>node0&#45;&gt;node4</title>
<path fill="none" stroke="green" d="M352.32,-382.11C439.66,-369.6 557.37,-341.55 507.5,-284 474.91,-246.39 333.89,-238.81 250.32,-237.71"/>
<polygon fill="green" stroke="green" points="250.21,-234.21 240.18,-237.6 250.14,-241.21 250.21,-234.21"/>
</g>
<!-- node3 -->
<g id="node4" class="node">
<title>node3</title>
<polygon fill="lightgreen" stroke="black" points="498.1,-302.54 498.1,-317.46 392.31,-328 242.69,-328 136.9,-317.46 136.9,-302.54 242.69,-292 392.31,-292 498.1,-302.54"/>
<text text-anchor="middle" x="317.5" y="-306.3" font-family="Times,serif" font-size="14.00">#3 Class FieldAccessTest$Source</text>
</g>
<!-- node0&#45;&gt;node3 -->
<g id="edge5" class="edge">
<title>node0&#45;&gt;node3</title>
<path fill="none" stroke="black" stroke-dasharray="1,5" d="M284.54,-364.81C290.07,-355.78 296.25,-345.69 301.75,-336.71"/>
<polygon fill="black" stroke="black" points="304.74,-338.53 306.98,-328.17 298.77,-334.87 304.74,-338.53"/>
</g>
<!-- node2&#45;&gt;node4 -->
<g id="edge3" class="edge">
<title>node2&#45;&gt;node4</title>
<path fill="none" stroke="red" d="M90.16,-291.99C107.45,-282.4 129.24,-270.32 147.82,-260.01"/>
<polygon fill="red" stroke="red" points="149.6,-263.02 156.65,-255.11 146.2,-256.9 149.6,-263.02"/>
</g>
<!-- node6 -->
<g id="node5" class="node">
<title>node6</title>
<polygon fill="lightgrey" stroke="black" points="295.5,-109 45.5,-109 45.5,-73 295.5,-73 295.5,-109"/>
<text text-anchor="middle" x="170.5" y="-87.3" font-family="Times,serif" font-size="14.00">#6 Invoke special &lt;init&gt; : ()void</text>
</g>
<!-- node4&#45;&gt;node6 -->
<g id="edge7" class="edge">
<title>node4&#45;&gt;node6</title>
<path fill="none" stroke="red" d="M185.48,-218.92C182.57,-194.23 177.15,-148.35 173.69,-119.04"/>
<polygon fill="red" stroke="red" points="177.16,-118.58 172.51,-109.06 170.21,-119.4 177.16,-118.58"/>
</g>
<!-- node5 -->
<g id="node6" class="node">
<title>node5</title>
<polygon fill="orange" stroke="black" points="302.62,-156.54 302.62,-171.46 272.09,-182 228.91,-182 198.38,-171.46 198.38,-156.54 228.91,-146 272.09,-146 302.62,-156.54"/>
<text text-anchor="middle" x="250.5" y="-160.3" font-family="Times,serif" font-size="14.00">#5 New</text>
</g>
<!-- node4&#45;&gt;node5 -->
<g id="edge9" class="edge">
<title>node4&#45;&gt;node5</title>
<path fill="none" stroke="black" d="M196.87,-218.81C203.77,-210 213.23,-199.13 222.35,-189.46"/>
<polygon fill="black" stroke="black" points="225.09,-191.65 229.53,-182.03 220.06,-186.79 225.09,-191.65"/>
<text text-anchor="middle" x="223.01" y="-197.24" font-family="Times,serif" font-size="14.00">*0</text>
</g>
<!-- node4&#45;&gt;node5 -->
<g id="edge10" class="edge">
<title>node4&#45;&gt;node5</title>
<path fill="none" stroke="green" d="M208.63,-218.81C217.19,-210.18 226.82,-199.56 234.77,-190.03"/>
<polygon fill="green" stroke="green" points="237.68,-192 241.25,-182.03 232.24,-187.6 237.68,-192"/>
</g>
<!-- node3&#45;&gt;node4 -->
<g id="edge2" class="edge">
<title>node3&#45;&gt;node4</title>
<path fill="none" stroke="black" d="M286.36,-291.99C268.8,-282.4 246.67,-270.32 227.8,-260.01"/>
<polygon fill="black" stroke="black" points="229.29,-256.84 218.83,-255.11 225.93,-262.98 229.29,-256.84"/>
<text text-anchor="middle" x="238.79" y="-252.68" font-family="Times,serif" font-size="14.00">*0</text>
</g>
<!-- node7 -->
<g id="node7" class="node">
<title>node7</title>
<polygon fill="orange" stroke="black" points="691.69,-83.54 691.69,-98.46 586.14,-109 436.86,-109 331.31,-98.46 331.31,-83.54 436.86,-73 586.14,-73 691.69,-83.54"/>
<text text-anchor="middle" x="511.5" y="-87.3" font-family="Times,serif" font-size="14.00">#7 GetField : string_field : String</text>
</g>
<!-- node6&#45;&gt;node7 -->
<g id="edge12" class="edge">
<title>node6&#45;&gt;node7</title>
<path fill="none" stroke="green" d="M295.71,-91C304.1,-91 312.49,-91 320.88,-91"/>
<polygon fill="green" stroke="green" points="321.11,-94.5 331.11,-91 321.11,-87.5 321.11,-94.5"/>
</g>
<!-- node8 -->
<g id="node8" class="node">
<title>node8</title>
<polygon fill="lightgrey" stroke="black" points="435,-36 246,-36 246,0 435,0 435,-36"/>
<text text-anchor="middle" x="340.5" y="-14.3" font-family="Times,serif" font-size="14.00">#8 ReturnValue : String</text>
</g>
<!-- node6&#45;&gt;node8 -->
<g id="edge14" class="edge">
<title>node6&#45;&gt;node8</title>
<path fill="none" stroke="red" d="M211.22,-72.99C234.91,-63.1 264.97,-50.54 290.14,-40.03"/>
<polygon fill="red" stroke="red" points="291.65,-43.2 299.52,-36.11 288.95,-36.74 291.65,-43.2"/>
</g>
<!-- node5&#45;&gt;node6 -->
<g id="edge6" class="edge">
<title>node5&#45;&gt;node6</title>
<path fill="none" stroke="black" d="M226.14,-146.53C214.97,-137.5 201.95,-126.13 191.25,-116.12"/>
<polygon fill="black" stroke="black" points="193.57,-113.5 183.92,-109.12 188.73,-118.56 193.57,-113.5"/>
<text text-anchor="middle" x="202.86" y="-111.83" font-family="Times,serif" font-size="14.00">*0</text>
</g>
<!-- node5&#45;&gt;node6 -->
<g id="edge8" class="edge">
<title>node5&#45;&gt;node6</title>
<path fill="none" stroke="green" d="M237.01,-145.81C227.74,-136.74 215.22,-125.48 203.49,-115.6"/>
<polygon fill="green" stroke="green" points="205.49,-112.71 195.55,-109.03 201.02,-118.1 205.49,-112.71"/>
</g>
<!-- node5&#45;&gt;node7 -->
<g id="edge11" class="edge">
<title>node5&#45;&gt;node7</title>
<path fill="none" stroke="black" d="M290.14,-152.22C329.56,-141.49 390.95,-124.79 439.09,-111.7"/>
<polygon fill="black" stroke="black" points="440.11,-115.05 448.84,-109.05 438.27,-108.29 440.11,-115.05"/>
<text text-anchor="middle" x="433.57" y="-118.26" font-family="Times,serif" font-size="14.00">*0</text>
</g>
<!-- node7&#45;&gt;node8 -->
<g id="edge13" class="edge">
<title>node7&#45;&gt;node8</title>
<path fill="none" stroke="black" d="M464.68,-72.99C439.91,-63.14 409.71,-50.66 385.26,-40.17"/>
<polygon fill="black" stroke="black" points="386.42,-36.86 375.85,-36.11 383.64,-43.29 386.42,-36.86"/>
<text text-anchor="middle" x="395.84" y="-31.83" font-family="Times,serif" font-size="14.00">*0</text>
</g>
<!-- node7&#45;&gt;node8 -->
<g id="edge15" class="edge">
<title>node7&#45;&gt;node8</title>
<path fill="none" stroke="green" d="M476.4,-72.99C453.52,-63.06 423.24,-50.43 397.04,-39.89"/>
<polygon fill="green" stroke="green" points="398.17,-36.58 387.59,-36.11 395.57,-43.08 398.17,-36.58"/>
</g>
<!-- c0 -->
<!-- c1 -->
<!-- c0&#45;&gt;c1 -->
<g id="edge16" class="edge">
<title>c0&#45;&gt;c1</title>
<path fill="none" stroke="red" d="M1250.39,-392C1261.61,-392 1319.74,-392 1345.36,-392"/>
<polygon fill="red" stroke="red" points="1345.56,-395.5 1355.56,-392 1345.56,-388.5 1345.56,-395.5"/>
<text text-anchor="middle" x="1303" y="-398.8" font-family="Times,serif" font-size="14.00">Control flow</text>
</g>
<!-- c2 -->
<!-- c3 -->
<!-- c2&#45;&gt;c3 -->
<g id="edge17" class="edge">
<title>c2&#45;&gt;c3</title>
<path fill="none" stroke="red" stroke-dasharray="5,2" d="M1043.58,-392C1060.55,-392 1176.71,-392 1214.58,-392"/>
<polygon fill="red" stroke="red" points="1214.67,-395.5 1224.67,-392 1214.67,-388.5 1214.67,-395.5"/>
<text text-anchor="middle" x="1134" y="-398.8" font-family="Times,serif" font-size="14.00">Control flow back edge</text>
</g>
<!-- d0 -->
<!-- d1 -->
<!-- d0&#45;&gt;d1 -->
<g id="edge18" class="edge">
<title>d0&#45;&gt;d1</title>
<path fill="none" stroke="black" d="M932.36,-392C941.91,-392 985.81,-392 1007.42,-392"/>
<polygon fill="black" stroke="black" points="1007.65,-395.5 1017.65,-392 1007.65,-388.5 1007.65,-395.5"/>
<text text-anchor="middle" x="975" y="-398.8" font-family="Times,serif" font-size="14.00">Data flow</text>
</g>
<!-- d2 -->
<!-- d3 -->
<!-- d2&#45;&gt;d3 -->
<g id="edge19" class="edge">
<title>d2&#45;&gt;d3</title>
<path fill="none" stroke="black" stroke-dasharray="1,5" d="M806.31,-392C816.96,-392 871.96,-392 896.58,-392"/>
<polygon fill="black" stroke="black" points="896.65,-395.5 906.65,-392 896.65,-388.5 896.65,-395.5"/>
<text text-anchor="middle" x="856.5" y="-398.8" font-family="Times,serif" font-size="14.00">Declaration</text>
</g>
<!-- d4 -->
<!-- d5 -->
<!-- d4&#45;&gt;d5 -->
<g id="edge20" class="edge">
<title>d4&#45;&gt;d5</title>
<path fill="none" stroke="blue" d="M663.6,-392C676.22,-392 742.38,-392 770.18,-392"/>
<polygon fill="blue" stroke="blue" points="770.34,-395.5 780.34,-392 770.34,-388.5 770.34,-395.5"/>
<text text-anchor="middle" x="722" y="-398.8" font-family="Times,serif" font-size="14.00">PHI Data flow</text>
</g>
<!-- d6 -->
<!-- d7 -->
<!-- d6&#45;&gt;d7 -->
<g id="edge21" class="edge">
<title>d6&#45;&gt;d7</title>
<path fill="none" stroke="green" d="M526.5,-392C538.44,-392 600.8,-392 627.43,-392"/>
<polygon fill="green" stroke="green" points="627.45,-395.5 637.45,-392 627.45,-388.5 627.45,-395.5"/>
<text text-anchor="middle" x="582" y="-398.8" font-family="Times,serif" font-size="14.00">Memory flow</text>
</g>
</g>
</svg>
