<?xml version="1.0" encoding="UTF-8" standalone="no"?>
<!DOCTYPE svg PUBLIC "-//W3C//DTD SVG 1.1//EN"
 "http://www.w3.org/Graphics/SVG/1.1/DTD/svg11.dtd">
<!-- Generated by graphviz version 2.43.0 (0)
 -->
<!-- Title: %3 Pages: 1 -->
<svg width="1423pt" height="514pt"
 viewBox="0.00 0.00 1423.09 513.80" xmlns="http://www.w3.org/2000/svg" xmlns:xlink="http://www.w3.org/1999/xlink">
<g id="graph0" class="graph" transform="scale(1 1) rotate(0) translate(4 509.8)">
<title>%3</title>
<polygon fill="white" stroke="transparent" points="-4,4 -4,-509.8 1419.09,-509.8 1419.09,4 -4,4"/>
<g id="clust1" class="cluster">
<title>cluster_0</title>
<polygon fill="none" stroke="lightgray" points="182.09,-284 182.09,-409 560.09,-409 560.09,-284 182.09,-284"/>
</g>
<g id="clust2" class="cluster">
<title>cluster_000</title>
<polygon fill="none" stroke="black" points="554.09,-455.2 554.09,-497.8 1407.09,-497.8 1407.09,-455.2 554.09,-455.2"/>
<text text-anchor="middle" x="980.59" y="-482.6" font-family="Times,serif" font-size="14.00">Legend</text>
</g>
<!-- node0 -->
<g id="node1" class="node">
<title>node0</title>
<polygon fill="lightgrey" stroke="transparent" points="544.59,-492 377.59,-492 377.59,-438 544.59,-438 544.59,-492"/>
<polygon fill="none" stroke="black" points="378.09,-465 378.09,-492 545.09,-492 545.09,-465 378.09,-465"/>
<text text-anchor="start" x="421.09" y="-474.8" font-family="Times,serif" font-size="14.00">#0 Method</text>
<polygon fill="yellow" stroke="transparent" points="378.09,-438 378.09,-465 545.09,-465 545.09,-438 378.09,-438"/>
<polygon fill="none" stroke="black" points="378.09,-438 378.09,-465 545.09,-465 545.09,-438 378.09,-438"/>
<text text-anchor="start" x="384.09" y="-447.8" font-family="Times,serif" font-size="14.00">this : FieldAccessTest</text>
</g>
<!-- node4 -->
<g id="node2" class="node">
<title>node4</title>
<polygon fill="lightgrey" stroke="black" points="533.59,-255 428.59,-255 428.59,-219 533.59,-219 533.59,-255"/>
<text text-anchor="middle" x="481.09" y="-233.3" font-family="Times,serif" font-size="14.00">#4 ClassInit</text>
</g>
<!-- node0&#45;&gt;node4 -->
<g id="edge3" class="edge">
<title>node0&#45;&gt;node4</title>
<path fill="none" stroke="green" d="M377.41,-460.9C273.35,-454.17 116.48,-432.8 178.09,-365 236.05,-301.23 506.14,-391.77 564.09,-328 577.25,-313.53 574.02,-300.85 564.09,-284 558.34,-274.23 549.68,-266.39 540.09,-260.14"/>
<polygon fill="green" stroke="green" points="541.86,-257.13 531.47,-255.06 538.31,-263.15 541.86,-257.13"/>
</g>
<!-- node2 -->
<g id="node4" class="node">
<title>node2</title>
<polygon fill="lightgrey" stroke="black" points="520.59,-401 401.59,-401 401.59,-365 520.59,-365 520.59,-401"/>
<text text-anchor="middle" x="461.09" y="-379.3" font-family="Times,serif" font-size="14.00">#2 LabelNode</text>
</g>
<!-- node0&#45;&gt;node2 -->
<g id="edge4" class="edge">
<title>node0&#45;&gt;node2</title>
<path fill="none" stroke="red" d="M461.09,-437.81C461.09,-429.35 461.09,-419.95 461.09,-411.4"/>
<polygon fill="red" stroke="red" points="464.59,-411.17 461.09,-401.17 457.59,-411.17 464.59,-411.17"/>
</g>
<!-- node5 -->
<g id="node5" class="node">
<title>node5</title>
<polygon fill="orange" stroke="black" points="493.21,-156.54 493.21,-171.46 462.68,-182 419.51,-182 388.98,-171.46 388.98,-156.54 419.51,-146 462.68,-146 493.21,-156.54"/>
<text text-anchor="middle" x="441.09" y="-160.3" font-family="Times,serif" font-size="14.00">#5 New</text>
</g>
<!-- node4&#45;&gt;node5 -->
<g id="edge6" class="edge">
<title>node4&#45;&gt;node5</title>
<path fill="none" stroke="black" d="M465.53,-218.81C460,-210.53 454.08,-200.41 449.31,-191.19"/>
<polygon fill="black" stroke="black" points="452.37,-189.47 444.83,-182.03 446.08,-192.55 452.37,-189.47"/>
<text text-anchor="middle" x="460.39" y="-190.89" font-family="Times,serif" font-size="14.00">*0</text>
</g>
<!-- node4&#45;&gt;node5 -->
<g id="edge7" class="edge">
<title>node4&#45;&gt;node5</title>
<path fill="none" stroke="green" d="M477.29,-218.81C473.41,-210.35 467.78,-199.98 462.04,-190.61"/>
<polygon fill="green" stroke="green" points="464.88,-188.57 456.55,-182.03 458.99,-192.34 464.88,-188.57"/>
</g>
<!-- node6 -->
<g id="node7" class="node">
<title>node6</title>
<polygon fill="lightgrey" stroke="black" points="646.09,-109 396.09,-109 396.09,-73 646.09,-73 646.09,-109"/>
<text text-anchor="middle" x="521.09" y="-87.3" font-family="Times,serif" font-size="14.00">#6 Invoke special &lt;init&gt; : ()void</text>
</g>
<!-- node4&#45;&gt;node6 -->
<g id="edge11" class="edge">
<title>node4&#45;&gt;node6</title>
<path fill="none" stroke="red" d="M488.64,-218.74C493,-208.26 498.36,-194.53 502.09,-182 508.28,-161.24 513.24,-137.22 516.54,-119.22"/>
<polygon fill="red" stroke="red" points="520.03,-119.58 518.34,-109.13 513.14,-118.36 520.03,-119.58"/>
</g>
<!-- node3 -->
<g id="node3" class="node">
<title>node3</title>
<polygon fill="lightgreen" stroke="black" points="551.69,-302.54 551.69,-317.46 445.9,-328 296.29,-328 190.5,-317.46 190.5,-302.54 296.29,-292 445.9,-292 551.69,-302.54"/>
<text text-anchor="middle" x="371.09" y="-306.3" font-family="Times,serif" font-size="14.00">#3 Class FieldAccessTest$Source</text>
</g>
<!-- node3&#45;&gt;node4 -->
<g id="edge1" class="edge">
<title>node3&#45;&gt;node4</title>
<path fill="none" stroke="black" d="M397.44,-291.99C412.03,-282.58 430.35,-270.76 446.12,-260.57"/>
<polygon fill="black" stroke="black" points="448.08,-263.48 454.58,-255.11 444.28,-257.6 448.08,-263.48"/>
<text text-anchor="middle" x="443.93" y="-268.34" font-family="Times,serif" font-size="14.00">*0</text>
</g>
<!-- node2&#45;&gt;node4 -->
<g id="edge2" class="edge">
<title>node2&#45;&gt;node4</title>
<path fill="none" stroke="red" d="M520.61,-374.37C553.63,-368.79 590.04,-359.91 600.09,-347 617.38,-324.82 610.9,-306.55 594.09,-284 581.81,-267.51 562.58,-256.91 543.46,-250.11"/>
<polygon fill="red" stroke="red" points="544.39,-246.73 533.8,-246.97 542.23,-253.39 544.39,-246.73"/>
</g>
<!-- node2&#45;&gt;node3 -->
<g id="edge5" class="edge">
<title>node2&#45;&gt;node3</title>
<path fill="none" stroke="black" stroke-dasharray="1,5" d="M439.31,-364.81C427.7,-355.66 413.25,-344.26 400.65,-334.32"/>
<polygon fill="black" stroke="black" points="402.7,-331.47 392.68,-328.03 398.36,-336.97 402.7,-331.47"/>
</g>
<!-- node7 -->
<g id="node6" class="node">
<title>node7</title>
<polygon fill="orange" stroke="black" points="360.28,-83.54 360.28,-98.46 254.73,-109 105.46,-109 -0.09,-98.46 -0.09,-83.54 105.46,-73 254.73,-73 360.28,-83.54"/>
<text text-anchor="middle" x="180.09" y="-87.3" font-family="Times,serif" font-size="14.00">#7 GetField : string_field : String</text>
</g>
<!-- node5&#45;&gt;node7 -->
<g id="edge8" class="edge">
<title>node5&#45;&gt;node7</title>
<path fill="none" stroke="black" d="M401.45,-152.22C362.03,-141.49 300.64,-124.79 252.51,-111.7"/>
<polygon fill="black" stroke="black" points="253.32,-108.29 242.76,-109.05 251.49,-115.05 253.32,-108.29"/>
<text text-anchor="middle" x="262.47" y="-101.95" font-family="Times,serif" font-size="14.00">*0</text>
</g>
<!-- node5&#45;&gt;node6 -->
<g id="edge10" class="edge">
<title>node5&#45;&gt;node6</title>
<path fill="none" stroke="black" d="M454.58,-145.81C463.85,-136.74 476.37,-125.48 488.1,-115.6"/>
<polygon fill="black" stroke="black" points="490.57,-118.1 496.05,-109.03 486.11,-112.71 490.57,-118.1"/>
<text text-anchor="middle" x="487.47" y="-123.4" font-family="Times,serif" font-size="14.00">*0</text>
</g>
<!-- node5&#45;&gt;node6 -->
<g id="edge12" class="edge">
<title>node5&#45;&gt;node6</title>
<path fill="none" stroke="green" d="M465.45,-146.53C476.63,-137.5 489.64,-126.13 500.35,-116.12"/>
<polygon fill="green" stroke="green" points="502.86,-118.56 507.68,-109.12 498.03,-113.5 502.86,-118.56"/>
</g>
<!-- node8 -->
<g id="node8" class="node">
<title>node8</title>
<polygon fill="lightgrey" stroke="black" points="444.59,-36 255.59,-36 255.59,0 444.59,0 444.59,-36"/>
<text text-anchor="middle" x="350.09" y="-14.3" font-family="Times,serif" font-size="14.00">#8 ReturnValue : String</text>
</g>
<!-- node7&#45;&gt;node8 -->
<g id="edge13" class="edge">
<title>node7&#45;&gt;node8</title>
<path fill="none" stroke="black" d="M214.95,-72.99C237.7,-63.06 267.8,-50.43 293.85,-39.89"/>
<polygon fill="black" stroke="black" points="295.28,-43.09 303.25,-36.11 292.66,-36.6 295.28,-43.09"/>
<text text-anchor="middle" x="289.59" y="-47.02" font-family="Times,serif" font-size="14.00">*0</text>
</g>
<!-- node7&#45;&gt;node8 -->
<g id="edge15" class="edge">
<title>node7&#45;&gt;node8</title>
<path fill="none" stroke="green" d="M226.67,-72.99C251.3,-63.14 281.33,-50.66 305.64,-40.17"/>
<polygon fill="green" stroke="green" points="307.21,-43.31 314.99,-36.11 304.42,-36.88 307.21,-43.31"/>
</g>
<!-- node6&#45;&gt;node7 -->
<g id="edge9" class="edge">
<title>node6&#45;&gt;node7</title>
<path fill="none" stroke="green" d="M396.06,-91C387.48,-91 378.9,-91 370.32,-91"/>
<polygon fill="green" stroke="green" points="370.25,-87.5 360.25,-91 370.25,-94.5 370.25,-87.5"/>
</g>
<!-- node6&#45;&gt;node8 -->
<g id="edge14" class="edge">
<title>node6&#45;&gt;node8</title>
<path fill="none" stroke="red" d="M480.14,-72.99C456.3,-63.1 426.07,-50.54 400.75,-40.03"/>
<polygon fill="red" stroke="red" points="401.89,-36.72 391.31,-36.11 399.2,-43.18 401.89,-36.72"/>
</g>
<!-- c0 -->
<!-- c1 -->
<!-- c0&#45;&gt;c1 -->
<g id="edge16" class="edge">
<title>c0&#45;&gt;c1</title>
<path fill="none" stroke="red" d="M1289.99,-465C1301.2,-465 1359.34,-465 1384.95,-465"/>
<polygon fill="red" stroke="red" points="1385.15,-468.5 1395.15,-465 1385.15,-461.5 1385.15,-468.5"/>
<text text-anchor="middle" x="1342.59" y="-471.8" font-family="Times,serif" font-size="14.00">Control flow</text>
</g>
<!-- c2 -->
<!-- c3 -->
<!-- c2&#45;&gt;c3 -->
<g id="edge17" class="edge">
<title>c2&#45;&gt;c3</title>
<path fill="none" stroke="red" stroke-dasharray="5,2" d="M1083.17,-465C1100.14,-465 1216.3,-465 1254.18,-465"/>
<polygon fill="red" stroke="red" points="1254.26,-468.5 1264.26,-465 1254.26,-461.5 1254.26,-468.5"/>
<text text-anchor="middle" x="1173.59" y="-471.8" font-family="Times,serif" font-size="14.00">Control flow back edge</text>
</g>
<!-- d0 -->
<!-- d1 -->
<!-- d0&#45;&gt;d1 -->
<g id="edge18" class="edge">
<title>d0&#45;&gt;d1</title>
<path fill="none" stroke="black" d="M971.95,-465C981.5,-465 1025.4,-465 1047.01,-465"/>
<polygon fill="black" stroke="black" points="1047.25,-468.5 1057.25,-465 1047.25,-461.5 1047.25,-468.5"/>
<text text-anchor="middle" x="1014.59" y="-471.8" font-family="Times,serif" font-size="14.00">Data flow</text>
</g>
<!-- d2 -->
<!-- d3 -->
<!-- d2&#45;&gt;d3 -->
<g id="edge19" class="edge">
<title>d2&#45;&gt;d3</title>
<path fill="none" stroke="black" stroke-dasharray="1,5" d="M845.9,-465C856.55,-465 911.56,-465 936.17,-465"/>
<polygon fill="black" stroke="black" points="936.24,-468.5 946.24,-465 936.24,-461.5 936.24,-468.5"/>
<text text-anchor="middle" x="896.09" y="-471.8" font-family="Times,serif" font-size="14.00">Declaration</text>
</g>
<!-- d4 -->
<!-- d5 -->
<!-- d4&#45;&gt;d5 -->
<g id="edge20" class="edge">
<title>d4&#45;&gt;d5</title>
<path fill="none" stroke="blue" d="M703.19,-465C715.82,-465 781.97,-465 809.77,-465"/>
<polygon fill="blue" stroke="blue" points="809.94,-468.5 819.94,-465 809.94,-461.5 809.94,-468.5"/>
<text text-anchor="middle" x="761.59" y="-471.8" font-family="Times,serif" font-size="14.00">PHI Data flow</text>
</g>
<!-- d6 -->
<!-- d7 -->
<!-- d6&#45;&gt;d7 -->
<g id="edge21" class="edge">
<title>d6&#45;&gt;d7</title>
<path fill="none" stroke="green" d="M566.09,-465C578.03,-465 640.39,-465 667.02,-465"/>
<polygon fill="green" stroke="green" points="667.04,-468.5 677.04,-465 667.04,-461.5 667.04,-468.5"/>
<text text-anchor="middle" x="621.59" y="-471.8" font-family="Times,serif" font-size="14.00">Memory flow</text>
</g>
</g>
</svg>
