<?xml version="1.0" encoding="UTF-8" standalone="no"?>
<!DOCTYPE svg PUBLIC "-//W3C//DTD SVG 1.1//EN"
 "http://www.w3.org/Graphics/SVG/1.1/DTD/svg11.dtd">
<!-- Generated by graphviz version 2.43.0 (0)
 -->
<!-- Title: %3 Pages: 1 -->
<svg width="1423pt" height="589pt"
 viewBox="0.00 0.00 1423.09 589.00" xmlns="http://www.w3.org/2000/svg" xmlns:xlink="http://www.w3.org/1999/xlink">
<g id="graph0" class="graph" transform="scale(1 1) rotate(0) translate(4 585)">
<title>%3</title>
<polygon fill="white" stroke="transparent" points="-4,4 -4,-585 1419.09,-585 1419.09,4 -4,4"/>
<g id="clust1" class="cluster">
<title>cluster_0</title>
<polygon fill="none" stroke="lightgray" points="152.09,-430 152.09,-573 546.09,-573 546.09,-430 152.09,-430"/>
</g>
<g id="clust2" class="cluster">
<title>cluster_000</title>
<polygon fill="none" stroke="black" points="554.09,-528.2 554.09,-570.8 1407.09,-570.8 1407.09,-528.2 554.09,-528.2"/>
<text text-anchor="middle" x="980.59" y="-555.6" font-family="Times,serif" font-size="14.00">Legend</text>
</g>
<!-- node0 -->
<g id="node1" class="node">
<title>node0</title>
<polygon fill="lightgrey" stroke="transparent" points="343.59,-565 220.59,-565 220.59,-511 343.59,-511 343.59,-565"/>
<polygon fill="none" stroke="black" points="221.09,-538 221.09,-565 344.09,-565 344.09,-538 221.09,-538"/>
<text text-anchor="start" x="242.09" y="-547.8" font-family="Times,serif" font-size="14.00">#0 Method</text>
<polygon fill="yellow" stroke="transparent" points="221.09,-511 221.09,-538 344.09,-538 344.09,-511 221.09,-511"/>
<polygon fill="none" stroke="black" points="221.09,-511 221.09,-538 344.09,-538 344.09,-511 221.09,-511"/>
<text text-anchor="start" x="227.09" y="-520.8" font-family="Times,serif" font-size="14.00">this : ArrayTest</text>
</g>
<!-- node4 -->
<g id="node2" class="node">
<title>node4</title>
<polygon fill="orange" stroke="black" points="684.72,-375.54 684.72,-390.46 612.3,-401 509.88,-401 437.46,-390.46 437.46,-375.54 509.88,-365 612.3,-365 684.72,-375.54"/>
<text text-anchor="middle" x="561.09" y="-379.3" font-family="Times,serif" font-size="14.00">#4 NewArray : short[]</text>
</g>
<!-- node0&#45;&gt;node4 -->
<g id="edge2" class="edge">
<title>node0&#45;&gt;node4</title>
<path fill="none" stroke="green" d="M220.25,-532.8C122.65,-524.03 -49.8,-498.52 14.09,-430 45.54,-396.27 382.2,-405.54 428.09,-401 439.77,-399.85 452,-398.49 464.11,-397.05"/>
<polygon fill="green" stroke="green" points="464.74,-400.5 474.25,-395.83 463.9,-393.55 464.74,-400.5"/>
</g>
<!-- node6 -->
<g id="node3" class="node">
<title>node6</title>
<polygon fill="lightgreen" stroke="black" points="402.28,-448.54 402.28,-463.46 367.61,-474 318.58,-474 283.91,-463.46 283.91,-448.54 318.58,-438 367.61,-438 402.28,-448.54"/>
<text text-anchor="middle" x="343.09" y="-452.3" font-family="Times,serif" font-size="14.00">#6 int 10</text>
</g>
<!-- node0&#45;&gt;node6 -->
<g id="edge3" class="edge">
<title>node0&#45;&gt;node6</title>
<path fill="none" stroke="black" stroke-dasharray="1,5" d="M302.07,-510.81C309.09,-501.59 316.96,-491.27 323.92,-482.15"/>
<polygon fill="black" stroke="black" points="326.72,-484.25 330,-474.17 321.15,-480 326.72,-484.25"/>
</g>
<!-- node8 -->
<g id="node6" class="node">
<title>node8</title>
<polygon fill="lightgreen" stroke="black" points="265.62,-448.54 265.62,-463.46 234.85,-474 191.34,-474 160.57,-463.46 160.57,-448.54 191.34,-438 234.85,-438 265.62,-448.54"/>
<text text-anchor="middle" x="213.09" y="-452.3" font-family="Times,serif" font-size="14.00">#8 int 0</text>
</g>
<!-- node0&#45;&gt;node8 -->
<g id="edge12" class="edge">
<title>node0&#45;&gt;node8</title>
<path fill="none" stroke="black" stroke-dasharray="1,5" d="M259.5,-510.81C251.47,-501.5 242.47,-491.06 234.54,-481.87"/>
<polygon fill="black" stroke="black" points="237.09,-479.46 227.9,-474.17 231.79,-484.03 237.09,-479.46"/>
</g>
<!-- node2 -->
<g id="node8" class="node">
<title>node2</title>
<polygon fill="lightgrey" stroke="black" points="142.59,-474 23.59,-474 23.59,-438 142.59,-438 142.59,-474"/>
<text text-anchor="middle" x="83.09" y="-452.3" font-family="Times,serif" font-size="14.00">#2 LabelNode</text>
</g>
<!-- node0&#45;&gt;node2 -->
<g id="edge11" class="edge">
<title>node0&#45;&gt;node2</title>
<path fill="none" stroke="red" d="M220.49,-512.24C193.04,-501.2 161.07,-488.35 134.87,-477.82"/>
<polygon fill="red" stroke="red" points="136.09,-474.53 125.51,-474.05 133.48,-481.03 136.09,-474.53"/>
</g>
<!-- node10 -->
<g id="node10" class="node">
<title>node10</title>
<polygon fill="lightgreen" stroke="black" points="538.28,-448.54 538.28,-463.46 503.61,-474 454.58,-474 419.91,-463.46 419.91,-448.54 454.58,-438 503.61,-438 538.28,-448.54"/>
<text text-anchor="middle" x="479.09" y="-452.3" font-family="Times,serif" font-size="14.00">#10 int 1</text>
</g>
<!-- node0&#45;&gt;node10 -->
<g id="edge17" class="edge">
<title>node0&#45;&gt;node10</title>
<path fill="none" stroke="black" stroke-dasharray="1,5" d="M343.61,-512.02C373.17,-500.01 407.93,-485.9 434.84,-474.97"/>
<polygon fill="black" stroke="black" points="436.43,-478.1 444.38,-471.1 433.79,-471.62 436.43,-478.1"/>
</g>
<!-- node9 -->
<g id="node5" class="node">
<title>node9</title>
<polygon fill="lightgrey" stroke="black" points="400.09,-328 218.09,-328 218.09,-292 400.09,-292 400.09,-328"/>
<text text-anchor="middle" x="309.09" y="-306.3" font-family="Times,serif" font-size="14.00">#9 ArrayStore : short[]</text>
</g>
<!-- node4&#45;&gt;node9 -->
<g id="edge5" class="edge">
<title>node4&#45;&gt;node9</title>
<path fill="none" stroke="black" d="M500.09,-366.42C461.72,-355.96 412.34,-342.08 373.36,-330.83"/>
<polygon fill="black" stroke="black" points="374.27,-327.45 363.69,-328.04 372.32,-334.18 374.27,-327.45"/>
<text text-anchor="middle" x="383.45" y="-321.26" font-family="Times,serif" font-size="14.00">*0</text>
</g>
<!-- node4&#45;&gt;node9 -->
<g id="edge8" class="edge">
<title>node4&#45;&gt;node9</title>
<path fill="none" stroke="green" d="M507.52,-365.26C472.02,-354.95 424.96,-341.66 385.56,-330.82"/>
<polygon fill="green" stroke="green" points="386.29,-327.39 375.72,-328.12 384.43,-334.14 386.29,-327.39"/>
</g>
<!-- node11 -->
<g id="node9" class="node">
<title>node11</title>
<polygon fill="lightgrey" stroke="black" points="742.09,-255 566.09,-255 566.09,-219 742.09,-219 742.09,-255"/>
<text text-anchor="middle" x="654.09" y="-233.3" font-family="Times,serif" font-size="14.00">#11 ArrayLoad : short</text>
</g>
<!-- node4&#45;&gt;node11 -->
<g id="edge13" class="edge">
<title>node4&#45;&gt;node11</title>
<path fill="none" stroke="black" d="M594.67,-364.88C609.22,-355.81 625.16,-343.36 635.09,-328 647.19,-309.31 651.74,-284.28 653.38,-265.37"/>
<polygon fill="black" stroke="black" points="656.88,-265.5 654.04,-255.3 649.9,-265.05 656.88,-265.5"/>
<text text-anchor="middle" x="661.3" y="-270.23" font-family="Times,serif" font-size="14.00">*0</text>
</g>
<!-- node5 -->
<g id="node15" class="node">
<title>node5</title>
<polygon fill="orange" stroke="black" points="625.81,-302.54 625.81,-317.46 571.5,-328 494.69,-328 440.37,-317.46 440.37,-302.54 494.69,-292 571.5,-292 625.81,-302.54"/>
<text text-anchor="middle" x="533.09" y="-306.3" font-family="Times,serif" font-size="14.00">#5 ArrayLength</text>
</g>
<!-- node4&#45;&gt;node5 -->
<g id="edge23" class="edge">
<title>node4&#45;&gt;node5</title>
<path fill="none" stroke="black" d="M554.31,-364.81C551.08,-356.62 547.14,-346.62 543.54,-337.48"/>
<polygon fill="black" stroke="black" points="546.73,-336.05 539.81,-328.03 540.22,-338.62 546.73,-336.05"/>
<text text-anchor="middle" x="554.32" y="-338.09" font-family="Times,serif" font-size="14.00">*0</text>
</g>
<!-- node6&#45;&gt;node4 -->
<g id="edge1" class="edge">
<title>node6&#45;&gt;node4</title>
<path fill="none" stroke="black" d="M378.96,-441.4C389.29,-437.59 400.6,-433.53 411.09,-430 438.44,-420.79 468.85,-411.32 495.1,-403.39"/>
<polygon fill="black" stroke="black" points="496.37,-406.66 504.94,-400.42 494.36,-399.95 496.37,-406.66"/>
<text text-anchor="middle" x="490.02" y="-410.04" font-family="Times,serif" font-size="14.00">*0</text>
</g>
<!-- node7 -->
<g id="node4" class="node">
<title>node7</title>
<polygon fill="orange" stroke="black" points="419.49,-375.54 419.49,-390.46 354.82,-401 263.36,-401 198.7,-390.46 198.7,-375.54 263.36,-365 354.82,-365 419.49,-375.54"/>
<text text-anchor="middle" x="309.09" y="-379.3" font-family="Times,serif" font-size="14.00">#7 Truncate : short</text>
</g>
<!-- node6&#45;&gt;node7 -->
<g id="edge4" class="edge">
<title>node6&#45;&gt;node7</title>
<path fill="none" stroke="black" d="M334.86,-437.81C330.89,-429.53 326.05,-419.41 321.64,-410.19"/>
<polygon fill="black" stroke="black" points="324.72,-408.54 317.25,-401.03 318.41,-411.56 324.72,-408.54"/>
<text text-anchor="middle" x="332.7" y="-410.03" font-family="Times,serif" font-size="14.00">*0</text>
</g>
<!-- node7&#45;&gt;node9 -->
<g id="edge7" class="edge">
<title>node7&#45;&gt;node9</title>
<path fill="none" stroke="black" d="M309.09,-364.81C309.09,-356.79 309.09,-347.05 309.09,-338.07"/>
<polygon fill="black" stroke="black" points="312.59,-338.03 309.09,-328.03 305.59,-338.03 312.59,-338.03"/>
<text text-anchor="middle" x="317.54" y="-342.45" font-family="Times,serif" font-size="14.00">*2</text>
</g>
<!-- node9&#45;&gt;node11 -->
<g id="edge15" class="edge">
<title>node9&#45;&gt;node11</title>
<path fill="none" stroke="green" d="M385.87,-291.99C436.07,-281.43 502.06,-267.84 556.05,-256.93"/>
<polygon fill="green" stroke="green" points="556.87,-260.34 565.98,-254.93 555.49,-253.48 556.87,-260.34"/>
</g>
<!-- node9&#45;&gt;node11 -->
<g id="edge16" class="edge">
<title>node9&#45;&gt;node11</title>
<path fill="none" stroke="red" d="M397.59,-291.99C449.73,-281.49 515.39,-267.99 567.25,-257.12"/>
<polygon fill="red" stroke="red" points="568.03,-260.53 577.1,-255.05 566.59,-253.68 568.03,-260.53"/>
</g>
<!-- node8&#45;&gt;node9 -->
<g id="edge6" class="edge">
<title>node8&#45;&gt;node9</title>
<path fill="none" stroke="black" d="M201.19,-437.79C189.57,-418.67 175.59,-387.5 190.09,-365 199.34,-350.65 213.43,-340.07 228.71,-332.29"/>
<polygon fill="black" stroke="black" points="230.25,-335.43 237.83,-328.02 227.28,-329.09 230.25,-335.43"/>
<text text-anchor="middle" x="225" y="-339.66" font-family="Times,serif" font-size="14.00">*1</text>
</g>
<!-- node3 -->
<g id="node7" class="node">
<title>node3</title>
<polygon fill="lightgrey" stroke="black" points="142.59,-401 23.59,-401 23.59,-365 142.59,-365 142.59,-401"/>
<text text-anchor="middle" x="83.09" y="-379.3" font-family="Times,serif" font-size="14.00">#3 LabelNode</text>
</g>
<!-- node3&#45;&gt;node9 -->
<g id="edge9" class="edge">
<title>node3&#45;&gt;node9</title>
<path fill="none" stroke="red" d="M114.11,-364.97C127.1,-358.35 142.54,-351.14 157.09,-346 173.9,-340.06 192.11,-334.87 209.89,-330.42"/>
<polygon fill="red" stroke="red" points="210.82,-333.8 219.71,-328.03 209.17,-326.99 210.82,-333.8"/>
</g>
<!-- node2&#45;&gt;node3 -->
<g id="edge10" class="edge">
<title>node2&#45;&gt;node3</title>
<path fill="none" stroke="red" d="M83.09,-437.81C83.09,-429.79 83.09,-420.05 83.09,-411.07"/>
<polygon fill="red" stroke="red" points="86.59,-411.03 83.09,-401.03 79.59,-411.03 86.59,-411.03"/>
</g>
<!-- node12 -->
<g id="node11" class="node">
<title>node12</title>
<polygon fill="orange" stroke="black" points="963.54,-156.54 963.54,-171.46 890.05,-182 786.13,-182 712.65,-171.46 712.65,-156.54 786.13,-146 890.05,-146 963.54,-156.54"/>
<text text-anchor="middle" x="838.09" y="-160.3" font-family="Times,serif" font-size="14.00">#12 Extend : SIGN int</text>
</g>
<!-- node11&#45;&gt;node12 -->
<g id="edge18" class="edge">
<title>node11&#45;&gt;node12</title>
<path fill="none" stroke="black" d="M726.69,-218.99C743.85,-214.02 761.87,-208.01 778.09,-201 786.85,-197.21 795.89,-192.36 804.21,-187.45"/>
<polygon fill="black" stroke="black" points="806.19,-190.35 812.9,-182.15 802.54,-184.37 806.19,-190.35"/>
<text text-anchor="middle" x="801.83" y="-195.1" font-family="Times,serif" font-size="14.00">*0</text>
</g>
<!-- node15 -->
<g id="node12" class="node">
<title>node15</title>
<polygon fill="lightgrey" stroke="black" points="643.59,-36 542.59,-36 542.59,0 643.59,0 643.59,-36"/>
<text text-anchor="middle" x="593.09" y="-14.3" font-family="Times,serif" font-size="14.00">#15 Return</text>
</g>
<!-- node11&#45;&gt;node15 -->
<g id="edge20" class="edge">
<title>node11&#45;&gt;node15</title>
<path fill="none" stroke="green" d="M663.14,-218.82C672.11,-199.13 682.36,-166.9 666.09,-146 624.98,-93.17 561.2,-161.83 520.09,-109 510.27,-96.37 512.89,-87.29 520.09,-73 526.49,-60.31 537.43,-49.87 548.92,-41.66"/>
<polygon fill="green" stroke="green" points="550.93,-44.52 557.33,-36.07 547.06,-38.69 550.93,-44.52"/>
</g>
<!-- node13 -->
<g id="node14" class="node">
<title>node13</title>
<polygon fill="lightgrey" stroke="black" points="657.09,-182 529.09,-182 529.09,-146 657.09,-146 657.09,-182"/>
<text text-anchor="middle" x="593.09" y="-160.3" font-family="Times,serif" font-size="14.00">#13 LabelNode</text>
</g>
<!-- node11&#45;&gt;node13 -->
<g id="edge22" class="edge">
<title>node11&#45;&gt;node13</title>
<path fill="none" stroke="red" d="M639.33,-218.81C631.83,-210.09 622.6,-199.34 614.35,-189.75"/>
<polygon fill="red" stroke="red" points="616.89,-187.33 607.72,-182.03 611.58,-191.89 616.89,-187.33"/>
</g>
<!-- node10&#45;&gt;node11 -->
<g id="edge14" class="edge">
<title>node10&#45;&gt;node11</title>
<path fill="none" stroke="black" d="M537.8,-448.34C594.66,-440.54 675.01,-425.47 694.09,-401 725.68,-360.5 694.81,-298.51 672.51,-263.81"/>
<polygon fill="black" stroke="black" points="675.24,-261.59 666.79,-255.2 669.41,-265.46 675.24,-261.59"/>
<text text-anchor="middle" x="683.86" y="-261.92" font-family="Times,serif" font-size="14.00">*1</text>
</g>
<!-- node14 -->
<g id="node13" class="node">
<title>node14</title>
<polygon fill="lightgrey" stroke="black" points="657.09,-109 529.09,-109 529.09,-73 657.09,-73 657.09,-109"/>
<text text-anchor="middle" x="593.09" y="-87.3" font-family="Times,serif" font-size="14.00">#14 LabelNode</text>
</g>
<!-- node14&#45;&gt;node15 -->
<g id="edge19" class="edge">
<title>node14&#45;&gt;node15</title>
<path fill="none" stroke="red" d="M593.09,-72.81C593.09,-64.79 593.09,-55.05 593.09,-46.07"/>
<polygon fill="red" stroke="red" points="596.59,-46.03 593.09,-36.03 589.59,-46.03 596.59,-46.03"/>
</g>
<!-- node13&#45;&gt;node14 -->
<g id="edge21" class="edge">
<title>node13&#45;&gt;node14</title>
<path fill="none" stroke="red" d="M593.09,-145.81C593.09,-137.79 593.09,-128.05 593.09,-119.07"/>
<polygon fill="red" stroke="red" points="596.59,-119.03 593.09,-109.03 589.59,-119.03 596.59,-119.03"/>
</g>
<!-- c0 -->
<!-- c1 -->
<!-- c0&#45;&gt;c1 -->
<g id="edge24" class="edge">
<title>c0&#45;&gt;c1</title>
<path fill="none" stroke="red" d="M1289.98,-538C1301.2,-538 1359.34,-538 1384.95,-538"/>
<polygon fill="red" stroke="red" points="1385.15,-541.5 1395.15,-538 1385.15,-534.5 1385.15,-541.5"/>
<text text-anchor="middle" x="1342.59" y="-544.8" font-family="Times,serif" font-size="14.00">Control flow</text>
</g>
<!-- c2 -->
<!-- c3 -->
<!-- c2&#45;&gt;c3 -->
<g id="edge25" class="edge">
<title>c2&#45;&gt;c3</title>
<path fill="none" stroke="red" stroke-dasharray="5,2" d="M1083.17,-538C1100.14,-538 1216.3,-538 1254.18,-538"/>
<polygon fill="red" stroke="red" points="1254.26,-541.5 1264.26,-538 1254.26,-534.5 1254.26,-541.5"/>
<text text-anchor="middle" x="1173.59" y="-544.8" font-family="Times,serif" font-size="14.00">Control flow back edge</text>
</g>
<!-- d0 -->
<!-- d1 -->
<!-- d0&#45;&gt;d1 -->
<g id="edge26" class="edge">
<title>d0&#45;&gt;d1</title>
<path fill="none" stroke="black" d="M971.95,-538C981.5,-538 1025.4,-538 1047.01,-538"/>
<polygon fill="black" stroke="black" points="1047.24,-541.5 1057.24,-538 1047.24,-534.5 1047.24,-541.5"/>
<text text-anchor="middle" x="1014.59" y="-544.8" font-family="Times,serif" font-size="14.00">Data flow</text>
</g>
<!-- d2 -->
<!-- d3 -->
<!-- d2&#45;&gt;d3 -->
<g id="edge27" class="edge">
<title>d2&#45;&gt;d3</title>
<path fill="none" stroke="black" stroke-dasharray="1,5" d="M845.9,-538C856.55,-538 911.56,-538 936.17,-538"/>
<polygon fill="black" stroke="black" points="936.24,-541.5 946.24,-538 936.24,-534.5 936.24,-541.5"/>
<text text-anchor="middle" x="896.09" y="-544.8" font-family="Times,serif" font-size="14.00">Declaration</text>
</g>
<!-- d4 -->
<!-- d5 -->
<!-- d4&#45;&gt;d5 -->
<g id="edge28" class="edge">
<title>d4&#45;&gt;d5</title>
<path fill="none" stroke="blue" d="M703.19,-538C715.81,-538 781.97,-538 809.77,-538"/>
<polygon fill="blue" stroke="blue" points="809.93,-541.5 819.93,-538 809.93,-534.5 809.93,-541.5"/>
<text text-anchor="middle" x="761.59" y="-544.8" font-family="Times,serif" font-size="14.00">PHI Data flow</text>
</g>
<!-- d6 -->
<!-- d7 -->
<!-- d6&#45;&gt;d7 -->
<g id="edge29" class="edge">
<title>d6&#45;&gt;d7</title>
<path fill="none" stroke="green" d="M566.09,-538C578.03,-538 640.39,-538 667.02,-538"/>
<polygon fill="green" stroke="green" points="667.04,-541.5 677.04,-538 667.04,-534.5 667.04,-541.5"/>
<text text-anchor="middle" x="621.59" y="-544.8" font-family="Times,serif" font-size="14.00">Memory flow</text>
</g>
</g>
</svg>
