<?xml version="1.0" encoding="UTF-8" standalone="no"?>
<!DOCTYPE svg PUBLIC "-//W3C//DTD SVG 1.1//EN"
 "http://www.w3.org/Graphics/SVG/1.1/DTD/svg11.dtd">
<!-- Generated by graphviz version 2.43.0 (0)
 -->
<!-- Title: %3 Pages: 1 -->
<svg width="1154pt" height="660pt"
 viewBox="0.00 0.00 1153.81 659.80" xmlns="http://www.w3.org/2000/svg" xmlns:xlink="http://www.w3.org/1999/xlink">
<g id="graph0" class="graph" transform="scale(1 1) rotate(0) translate(4 655.8)">
<title>%3</title>
<polygon fill="white" stroke="transparent" points="-4,4 -4,-655.8 1149.81,-655.8 1149.81,4 -4,4"/>
<g id="clust1" class="cluster">
<title>cluster_0</title>
<polygon fill="none" stroke="lightgray" points="322.81,-357 322.81,-482 580.81,-482 580.81,-357 322.81,-357"/>
</g>
<g id="clust2" class="cluster">
<title>cluster_1</title>
<polygon fill="none" stroke="lightgray" points="246.81,-138 246.81,-263 454.81,-263 454.81,-138 246.81,-138"/>
</g>
<g id="clust3" class="cluster">
<title>cluster_2</title>
<polygon fill="none" stroke="lightgray" points="145.81,-430 145.81,-555 281.81,-555 281.81,-430 145.81,-430"/>
</g>
<g id="clust4" class="cluster">
<title>cluster_000</title>
<polygon fill="none" stroke="black" points="284.81,-601.2 284.81,-643.8 1137.81,-643.8 1137.81,-601.2 284.81,-601.2"/>
<text text-anchor="middle" x="711.31" y="-628.6" font-family="Times,serif" font-size="14.00">Legend</text>
</g>
<!-- node0 -->
<g id="node1" class="node">
<title>node0</title>
<polygon fill="lightgrey" stroke="transparent" points="275.31,-638 152.31,-638 152.31,-584 275.31,-584 275.31,-638"/>
<polygon fill="none" stroke="black" points="152.81,-611 152.81,-638 275.81,-638 275.81,-611 152.81,-611"/>
<text text-anchor="start" x="173.81" y="-620.8" font-family="Times,serif" font-size="14.00">#0 Method</text>
<polygon fill="yellow" stroke="transparent" points="152.81,-584 152.81,-611 275.81,-611 275.81,-584 152.81,-584"/>
<polygon fill="none" stroke="black" points="152.81,-584 152.81,-611 275.81,-611 275.81,-584 152.81,-584"/>
<text text-anchor="start" x="158.81" y="-593.8" font-family="Times,serif" font-size="14.00">this : ArrayTest</text>
</g>
<!-- node2 -->
<g id="node2" class="node">
<title>node2</title>
<polygon fill="lightgrey" stroke="black" points="273.31,-547 154.31,-547 154.31,-511 273.31,-511 273.31,-547"/>
<text text-anchor="middle" x="213.81" y="-525.3" font-family="Times,serif" font-size="14.00">#2 LabelNode</text>
</g>
<!-- node0&#45;&gt;node2 -->
<g id="edge1" class="edge">
<title>node0&#45;&gt;node2</title>
<path fill="none" stroke="red" d="M213.81,-583.81C213.81,-575.35 213.81,-565.95 213.81,-557.4"/>
<polygon fill="red" stroke="red" points="217.31,-557.17 213.81,-547.17 210.31,-557.17 217.31,-557.17"/>
</g>
<!-- node5 -->
<g id="node7" class="node">
<title>node5</title>
<polygon fill="orange" stroke="black" points="247.44,-302.54 247.44,-317.46 175.02,-328 72.61,-328 0.19,-317.46 0.19,-302.54 72.61,-292 175.02,-292 247.44,-302.54"/>
<text text-anchor="middle" x="123.81" y="-306.3" font-family="Times,serif" font-size="14.00">#5 NewArray : short[]</text>
</g>
<!-- node0&#45;&gt;node5 -->
<g id="edge11" class="edge">
<title>node0&#45;&gt;node5</title>
<path fill="none" stroke="green" d="M275.47,-585.95C277.27,-585.29 279.05,-584.64 280.81,-584 414.84,-535.54 501.6,-597.7 584.81,-482 617.25,-436.9 622.1,-398.19 584.81,-357 584.81,-357 370,-335.57 233.65,-321.96"/>
<polygon fill="green" stroke="green" points="233.86,-318.46 223.56,-320.95 233.16,-325.43 233.86,-318.46"/>
</g>
<!-- node3 -->
<g id="node3" class="node">
<title>node3</title>
<polygon fill="lightgrey" stroke="black" points="450.31,-474 331.31,-474 331.31,-438 450.31,-438 450.31,-474"/>
<text text-anchor="middle" x="390.81" y="-452.3" font-family="Times,serif" font-size="14.00">#3 LabelNode</text>
</g>
<!-- node2&#45;&gt;node3 -->
<g id="edge2" class="edge">
<title>node2&#45;&gt;node3</title>
<path fill="none" stroke="red" d="M246.09,-510.93C258.63,-504.6 273.23,-497.61 286.81,-492 299.23,-486.87 312.7,-481.92 325.7,-477.42"/>
<polygon fill="red" stroke="red" points="327.18,-480.62 335.52,-474.08 324.93,-473.99 327.18,-480.62"/>
</g>
<!-- node4 -->
<g id="node9" class="node">
<title>node4</title>
<polygon fill="lightgreen" stroke="black" points="272,-448.54 272,-463.46 237.33,-474 188.3,-474 153.63,-463.46 153.63,-448.54 188.3,-438 237.33,-438 272,-448.54"/>
<text text-anchor="middle" x="212.81" y="-452.3" font-family="Times,serif" font-size="14.00">#4 int 10</text>
</g>
<!-- node2&#45;&gt;node4 -->
<g id="edge12" class="edge">
<title>node2&#45;&gt;node4</title>
<path fill="none" stroke="black" stroke-dasharray="1,5" d="M213.57,-510.81C213.46,-502.79 213.32,-493.05 213.2,-484.07"/>
<polygon fill="black" stroke="black" points="216.7,-483.98 213.05,-474.03 209.7,-484.08 216.7,-483.98"/>
</g>
<!-- node7 -->
<g id="node4" class="node">
<title>node7</title>
<polygon fill="lightgreen" stroke="black" points="449,-375.54 449,-390.46 414.33,-401 365.3,-401 330.63,-390.46 330.63,-375.54 365.3,-365 414.33,-365 449,-375.54"/>
<text text-anchor="middle" x="389.81" y="-379.3" font-family="Times,serif" font-size="14.00">#7 int 10</text>
</g>
<!-- node3&#45;&gt;node7 -->
<g id="edge3" class="edge">
<title>node3&#45;&gt;node7</title>
<path fill="none" stroke="black" stroke-dasharray="1,5" d="M390.57,-437.81C390.46,-429.79 390.32,-420.05 390.2,-411.07"/>
<polygon fill="black" stroke="black" points="393.7,-410.98 390.05,-401.03 386.7,-411.08 393.7,-410.98"/>
</g>
<!-- node10 -->
<g id="node6" class="node">
<title>node10</title>
<polygon fill="lightgrey" stroke="black" points="446.31,-255 255.31,-255 255.31,-219 446.31,-219 446.31,-255"/>
<text text-anchor="middle" x="350.81" y="-233.3" font-family="Times,serif" font-size="14.00">#10 ArrayStore : short[]</text>
</g>
<!-- node3&#45;&gt;node10 -->
<g id="edge9" class="edge">
<title>node3&#45;&gt;node10</title>
<path fill="none" stroke="red" d="M362.2,-437.96C348.41,-428.53 332.58,-415.74 321.81,-401 301.42,-373.06 300.91,-362.05 294.81,-328 292,-312.25 288.56,-306.73 294.81,-292 299.73,-280.44 308.45,-270.16 317.58,-261.75"/>
<polygon fill="red" stroke="red" points="319.97,-264.31 325.27,-255.13 315.4,-259 319.97,-264.31"/>
</g>
<!-- node6 -->
<g id="node8" class="node">
<title>node6</title>
<polygon fill="lightgreen" stroke="black" points="572.34,-375.54 572.34,-390.46 541.57,-401 498.06,-401 467.29,-390.46 467.29,-375.54 498.06,-365 541.57,-365 572.34,-375.54"/>
<text text-anchor="middle" x="519.81" y="-379.3" font-family="Times,serif" font-size="14.00">#6 int 0</text>
</g>
<!-- node3&#45;&gt;node6 -->
<g id="edge23" class="edge">
<title>node3&#45;&gt;node6</title>
<path fill="none" stroke="black" stroke-dasharray="1,5" d="M421.71,-437.99C440.25,-427.79 463.91,-414.77 483.36,-404.07"/>
<polygon fill="black" stroke="black" points="485.17,-407.06 492.24,-399.18 481.79,-400.93 485.17,-407.06"/>
</g>
<!-- node9 -->
<g id="node5" class="node">
<title>node9</title>
<polygon fill="orange" stroke="black" points="524.21,-302.54 524.21,-317.46 459.54,-328 368.09,-328 303.42,-317.46 303.42,-302.54 368.09,-292 459.54,-292 524.21,-302.54"/>
<text text-anchor="middle" x="413.81" y="-306.3" font-family="Times,serif" font-size="14.00">#9 Truncate : short</text>
</g>
<!-- node7&#45;&gt;node9 -->
<g id="edge4" class="edge">
<title>node7&#45;&gt;node9</title>
<path fill="none" stroke="black" d="M395.62,-364.81C398.37,-356.7 401.7,-346.84 404.76,-337.78"/>
<polygon fill="black" stroke="black" points="408.17,-338.62 408.06,-328.03 401.54,-336.38 408.17,-338.62"/>
<text text-anchor="middle" x="410.26" y="-344.21" font-family="Times,serif" font-size="14.00">*0</text>
</g>
<!-- node9&#45;&gt;node10 -->
<g id="edge7" class="edge">
<title>node9&#45;&gt;node10</title>
<path fill="none" stroke="black" d="M398.56,-291.81C390.83,-283.09 381.29,-272.34 372.77,-262.75"/>
<polygon fill="black" stroke="black" points="375.18,-260.19 365.92,-255.03 369.94,-264.83 375.18,-260.19"/>
<text text-anchor="middle" x="384.28" y="-259.28" font-family="Times,serif" font-size="14.00">*2</text>
</g>
<!-- node13 -->
<g id="node11" class="node">
<title>node13</title>
<polygon fill="lightgrey" stroke="black" points="271.81,-109 95.81,-109 95.81,-73 271.81,-73 271.81,-109"/>
<text text-anchor="middle" x="183.81" y="-87.3" font-family="Times,serif" font-size="14.00">#13 ArrayLoad : short</text>
</g>
<!-- node10&#45;&gt;node13 -->
<g id="edge16" class="edge">
<title>node10&#45;&gt;node13</title>
<path fill="none" stroke="green" d="M313.53,-218.98C295.09,-209.57 273.13,-196.78 255.81,-182 233.77,-163.19 213.63,-136.86 200.29,-117.54"/>
<polygon fill="green" stroke="green" points="203.15,-115.53 194.65,-109.2 197.36,-119.45 203.15,-115.53"/>
</g>
<!-- node12 -->
<g id="node12" class="node">
<title>node12</title>
<polygon fill="lightgreen" stroke="black" points="383,-156.54 383,-171.46 348.33,-182 299.3,-182 264.63,-171.46 264.63,-156.54 299.3,-146 348.33,-146 383,-156.54"/>
<text text-anchor="middle" x="323.81" y="-160.3" font-family="Times,serif" font-size="14.00">#12 int 1</text>
</g>
<!-- node10&#45;&gt;node12 -->
<g id="edge17" class="edge">
<title>node10&#45;&gt;node12</title>
<path fill="none" stroke="black" stroke-dasharray="1,5" d="M344.28,-218.81C341.16,-210.62 337.36,-200.62 333.89,-191.48"/>
<polygon fill="black" stroke="black" points="337.12,-190.13 330.29,-182.03 330.57,-192.62 337.12,-190.13"/>
</g>
<!-- node11 -->
<g id="node15" class="node">
<title>node11</title>
<polygon fill="lightgrey" stroke="black" points="590.81,-182 462.81,-182 462.81,-146 590.81,-146 590.81,-182"/>
<text text-anchor="middle" x="526.81" y="-160.3" font-family="Times,serif" font-size="14.00">#11 LabelNode</text>
</g>
<!-- node10&#45;&gt;node11 -->
<g id="edge21" class="edge">
<title>node10&#45;&gt;node11</title>
<path fill="none" stroke="red" d="M392.97,-218.99C417.61,-209.06 448.89,-196.43 475.02,-185.89"/>
<polygon fill="red" stroke="red" points="476.43,-189.1 484.39,-182.11 473.81,-182.61 476.43,-189.1"/>
</g>
<!-- node5&#45;&gt;node10 -->
<g id="edge5" class="edge">
<title>node5&#45;&gt;node10</title>
<path fill="none" stroke="black" d="M172.33,-291.99C203.86,-281.79 245.41,-268.77 280.51,-258.07"/>
<polygon fill="black" stroke="black" points="281.68,-261.37 290.23,-255.11 279.64,-254.67 281.68,-261.37"/>
<text text-anchor="middle" x="275.34" y="-264.77" font-family="Times,serif" font-size="14.00">*0</text>
</g>
<!-- node5&#45;&gt;node10 -->
<g id="edge8" class="edge">
<title>node5&#45;&gt;node10</title>
<path fill="none" stroke="green" d="M181.38,-292.8C215.29,-282.56 258.02,-269.23 292.12,-258.29"/>
<polygon fill="green" stroke="green" points="293.5,-261.52 301.95,-255.12 291.36,-254.86 293.5,-261.52"/>
</g>
<!-- node8 -->
<g id="node10" class="node">
<title>node8</title>
<polygon fill="orange" stroke="black" points="237.54,-229.54 237.54,-244.46 183.22,-255 106.41,-255 52.09,-244.46 52.09,-229.54 106.41,-219 183.22,-219 237.54,-229.54"/>
<text text-anchor="middle" x="144.81" y="-233.3" font-family="Times,serif" font-size="14.00">#8 ArrayLength</text>
</g>
<!-- node5&#45;&gt;node8 -->
<g id="edge13" class="edge">
<title>node5&#45;&gt;node8</title>
<path fill="none" stroke="black" d="M128.9,-291.81C131.3,-283.7 134.22,-273.84 136.89,-264.78"/>
<polygon fill="black" stroke="black" points="140.3,-265.61 139.78,-255.03 133.59,-263.63 140.3,-265.61"/>
<text text-anchor="middle" x="142.74" y="-271.11" font-family="Times,serif" font-size="14.00">*0</text>
</g>
<!-- node5&#45;&gt;node13 -->
<g id="edge14" class="edge">
<title>node5&#45;&gt;node13</title>
<path fill="none" stroke="black" d="M75.05,-291.93C62.32,-285 50.14,-275.58 42.81,-263 32.98,-246.1 34.86,-236.87 42.81,-219 63.35,-172.86 109.86,-136.44 143.86,-114.64"/>
<polygon fill="black" stroke="black" points="146.02,-117.42 152.65,-109.15 142.32,-111.48 146.02,-117.42"/>
<text text-anchor="middle" x="141.75" y="-122.22" font-family="Times,serif" font-size="14.00">*0</text>
</g>
<!-- node6&#45;&gt;node10 -->
<g id="edge6" class="edge">
<title>node6&#45;&gt;node10</title>
<path fill="none" stroke="black" d="M528.99,-364.94C538.12,-345.37 548.68,-313.25 532.81,-292 522.36,-278 489.35,-266.33 454.25,-257.47"/>
<polygon fill="black" stroke="black" points="454.86,-254.01 444.32,-255.04 453.2,-260.81 454.86,-254.01"/>
<text text-anchor="middle" x="463.93" y="-247.43" font-family="Times,serif" font-size="14.00">*1</text>
</g>
<!-- node4&#45;&gt;node5 -->
<g id="edge10" class="edge">
<title>node4&#45;&gt;node5</title>
<path fill="none" stroke="black" d="M202.26,-437.92C186.8,-412.91 157.89,-366.14 139.82,-336.89"/>
<polygon fill="black" stroke="black" points="142.59,-334.73 134.36,-328.06 136.64,-338.41 142.59,-334.73"/>
<text text-anchor="middle" x="151.08" y="-335.34" font-family="Times,serif" font-size="14.00">*0</text>
</g>
<!-- node16 -->
<g id="node13" class="node">
<title>node16</title>
<polygon fill="lightgrey" stroke="black" points="577.31,-36 476.31,-36 476.31,0 577.31,0 577.31,-36"/>
<text text-anchor="middle" x="526.81" y="-14.3" font-family="Times,serif" font-size="14.00">#16 Return</text>
</g>
<!-- node13&#45;&gt;node16 -->
<g id="edge19" class="edge">
<title>node13&#45;&gt;node16</title>
<path fill="none" stroke="green" d="M265.97,-72.99C327.54,-60.25 410.43,-43.09 466.09,-31.57"/>
<polygon fill="green" stroke="green" points="467.08,-34.94 476.16,-29.49 465.66,-28.08 467.08,-34.94"/>
</g>
<!-- node15 -->
<g id="node16" class="node">
<title>node15</title>
<polygon fill="orange" stroke="black" points="309.26,-10.54 309.26,-25.46 235.78,-36 131.85,-36 58.37,-25.46 58.37,-10.54 131.85,0 235.78,0 309.26,-10.54"/>
<text text-anchor="middle" x="183.81" y="-14.3" font-family="Times,serif" font-size="14.00">#15 Extend : SIGN int</text>
</g>
<!-- node13&#45;&gt;node15 -->
<g id="edge22" class="edge">
<title>node13&#45;&gt;node15</title>
<path fill="none" stroke="black" d="M183.81,-72.81C183.81,-64.79 183.81,-55.05 183.81,-46.07"/>
<polygon fill="black" stroke="black" points="187.31,-46.03 183.81,-36.03 180.31,-46.03 187.31,-46.03"/>
<text text-anchor="middle" x="192.27" y="-50.45" font-family="Times,serif" font-size="14.00">*0</text>
</g>
<!-- node12&#45;&gt;node13 -->
<g id="edge15" class="edge">
<title>node12&#45;&gt;node13</title>
<path fill="none" stroke="black" d="M293.44,-147.59C273.87,-137.67 248.16,-124.63 226.55,-113.67"/>
<polygon fill="black" stroke="black" points="228.07,-110.52 217.57,-109.12 224.9,-116.76 228.07,-110.52"/>
<text text-anchor="middle" x="237.56" y="-106.08" font-family="Times,serif" font-size="14.00">*1</text>
</g>
<!-- node14 -->
<g id="node14" class="node">
<title>node14</title>
<polygon fill="lightgrey" stroke="black" points="590.81,-109 462.81,-109 462.81,-73 590.81,-73 590.81,-109"/>
<text text-anchor="middle" x="526.81" y="-87.3" font-family="Times,serif" font-size="14.00">#14 LabelNode</text>
</g>
<!-- node14&#45;&gt;node16 -->
<g id="edge18" class="edge">
<title>node14&#45;&gt;node16</title>
<path fill="none" stroke="red" d="M526.81,-72.81C526.81,-64.79 526.81,-55.05 526.81,-46.07"/>
<polygon fill="red" stroke="red" points="530.31,-46.03 526.81,-36.03 523.31,-46.03 530.31,-46.03"/>
</g>
<!-- node11&#45;&gt;node14 -->
<g id="edge20" class="edge">
<title>node11&#45;&gt;node14</title>
<path fill="none" stroke="red" d="M526.81,-145.81C526.81,-137.79 526.81,-128.05 526.81,-119.07"/>
<polygon fill="red" stroke="red" points="530.31,-119.03 526.81,-109.03 523.31,-119.03 530.31,-119.03"/>
</g>
<!-- c0 -->
<!-- c1 -->
<!-- c0&#45;&gt;c1 -->
<g id="edge24" class="edge">
<title>c0&#45;&gt;c1</title>
<path fill="none" stroke="red" d="M1020.71,-611C1031.92,-611 1090.06,-611 1115.67,-611"/>
<polygon fill="red" stroke="red" points="1115.87,-614.5 1125.87,-611 1115.87,-607.5 1115.87,-614.5"/>
<text text-anchor="middle" x="1073.31" y="-617.8" font-family="Times,serif" font-size="14.00">Control flow</text>
</g>
<!-- c2 -->
<!-- c3 -->
<!-- c2&#45;&gt;c3 -->
<g id="edge25" class="edge">
<title>c2&#45;&gt;c3</title>
<path fill="none" stroke="red" stroke-dasharray="5,2" d="M813.89,-611C830.86,-611 947.02,-611 984.9,-611"/>
<polygon fill="red" stroke="red" points="984.98,-614.5 994.98,-611 984.98,-607.5 984.98,-614.5"/>
<text text-anchor="middle" x="904.31" y="-617.8" font-family="Times,serif" font-size="14.00">Control flow back edge</text>
</g>
<!-- d0 -->
<!-- d1 -->
<!-- d0&#45;&gt;d1 -->
<g id="edge26" class="edge">
<title>d0&#45;&gt;d1</title>
<path fill="none" stroke="black" d="M702.67,-611C712.22,-611 756.12,-611 777.73,-611"/>
<polygon fill="black" stroke="black" points="777.97,-614.5 787.97,-611 777.97,-607.5 777.97,-614.5"/>
<text text-anchor="middle" x="745.31" y="-617.8" font-family="Times,serif" font-size="14.00">Data flow</text>
</g>
<!-- d2 -->
<!-- d3 -->
<!-- d2&#45;&gt;d3 -->
<g id="edge27" class="edge">
<title>d2&#45;&gt;d3</title>
<path fill="none" stroke="black" stroke-dasharray="1,5" d="M576.62,-611C587.27,-611 642.28,-611 666.89,-611"/>
<polygon fill="black" stroke="black" points="666.96,-614.5 676.96,-611 666.96,-607.5 666.96,-614.5"/>
<text text-anchor="middle" x="626.81" y="-617.8" font-family="Times,serif" font-size="14.00">Declaration</text>
</g>
<!-- d4 -->
<!-- d5 -->
<!-- d4&#45;&gt;d5 -->
<g id="edge28" class="edge">
<title>d4&#45;&gt;d5</title>
<path fill="none" stroke="blue" d="M433.91,-611C446.54,-611 512.7,-611 540.49,-611"/>
<polygon fill="blue" stroke="blue" points="540.66,-614.5 550.66,-611 540.66,-607.5 540.66,-614.5"/>
<text text-anchor="middle" x="492.31" y="-617.8" font-family="Times,serif" font-size="14.00">PHI Data flow</text>
</g>
<!-- d6 -->
<!-- d7 -->
<!-- d6&#45;&gt;d7 -->
<g id="edge29" class="edge">
<title>d6&#45;&gt;d7</title>
<path fill="none" stroke="green" d="M296.81,-611C308.75,-611 371.11,-611 397.74,-611"/>
<polygon fill="green" stroke="green" points="397.76,-614.5 407.76,-611 397.76,-607.5 397.76,-614.5"/>
<text text-anchor="middle" x="352.31" y="-617.8" font-family="Times,serif" font-size="14.00">Memory flow</text>
</g>
</g>
</svg>
