<?xml version="1.0" encoding="UTF-8" standalone="no"?>
<!DOCTYPE svg PUBLIC "-//W3C//DTD SVG 1.1//EN"
 "http://www.w3.org/Graphics/SVG/1.1/DTD/svg11.dtd">
<!-- Generated by graphviz version 2.43.0 (0)
 -->
<!-- Title: %3 Pages: 1 -->
<svg width="1353pt" height="806pt"
 viewBox="0.00 0.00 1352.87 805.80" xmlns="http://www.w3.org/2000/svg" xmlns:xlink="http://www.w3.org/1999/xlink">
<g id="graph0" class="graph" transform="scale(1 1) rotate(0) translate(4 801.8)">
<title>%3</title>
<polygon fill="white" stroke="transparent" points="-4,4 -4,-801.8 1348.87,-801.8 1348.87,4 -4,4"/>
<g id="clust1" class="cluster">
<title>cluster_0</title>
<polygon fill="none" stroke="lightgray" points="67.87,-503 67.87,-628 325.87,-628 325.87,-503 67.87,-503"/>
</g>
<g id="clust2" class="cluster">
<title>cluster_1</title>
<polygon fill="none" stroke="lightgray" points="150.87,-284 150.87,-409 358.87,-409 358.87,-284 150.87,-284"/>
</g>
<g id="clust3" class="cluster">
<title>cluster_2</title>
<polygon fill="none" stroke="lightgray" points="344.87,-576 344.87,-701 480.87,-701 480.87,-576 344.87,-576"/>
</g>
<g id="clust4" class="cluster">
<title>cluster_000</title>
<polygon fill="none" stroke="black" points="483.87,-747.2 483.87,-789.8 1336.87,-789.8 1336.87,-747.2 483.87,-747.2"/>
<text text-anchor="middle" x="910.37" y="-774.6" font-family="Times,serif" font-size="14.00">Legend</text>
</g>
<!-- node0 -->
<g id="node1" class="node">
<title>node0</title>
<polygon fill="lightgrey" stroke="transparent" points="474.37,-784 351.37,-784 351.37,-730 474.37,-730 474.37,-784"/>
<polygon fill="none" stroke="black" points="351.87,-757 351.87,-784 474.87,-784 474.87,-757 351.87,-757"/>
<text text-anchor="start" x="372.87" y="-766.8" font-family="Times,serif" font-size="14.00">#0 Method</text>
<polygon fill="yellow" stroke="transparent" points="351.87,-730 351.87,-757 474.87,-757 474.87,-730 351.87,-730"/>
<polygon fill="none" stroke="black" points="351.87,-730 351.87,-757 474.87,-757 474.87,-730 351.87,-730"/>
<text text-anchor="start" x="357.87" y="-739.8" font-family="Times,serif" font-size="14.00">this : ArrayTest</text>
</g>
<!-- node2 -->
<g id="node2" class="node">
<title>node2</title>
<polygon fill="lightgrey" stroke="black" points="472.37,-693 353.37,-693 353.37,-657 472.37,-657 472.37,-693"/>
<text text-anchor="middle" x="412.87" y="-671.3" font-family="Times,serif" font-size="14.00">#2 LabelNode</text>
</g>
<!-- node0&#45;&gt;node2 -->
<g id="edge1" class="edge">
<title>node0&#45;&gt;node2</title>
<path fill="none" stroke="red" d="M412.87,-729.81C412.87,-721.35 412.87,-711.95 412.87,-703.4"/>
<polygon fill="red" stroke="red" points="416.37,-703.17 412.87,-693.17 409.37,-703.17 416.37,-703.17"/>
</g>
<!-- node5 -->
<g id="node4" class="node">
<title>node5</title>
<polygon fill="orange" stroke="black" points="544.5,-448.54 544.5,-463.46 472.08,-474 369.66,-474 297.24,-463.46 297.24,-448.54 369.66,-438 472.08,-438 544.5,-448.54"/>
<text text-anchor="middle" x="420.87" y="-452.3" font-family="Times,serif" font-size="14.00">#5 NewArray : short[]</text>
</g>
<!-- node0&#45;&gt;node5 -->
<g id="edge4" class="edge">
<title>node0&#45;&gt;node5</title>
<path fill="none" stroke="green" d="M460.26,-729.75C470.17,-721.88 479.29,-712.28 484.87,-701 521.72,-626.47 468.72,-528.3 438.86,-482.53"/>
<polygon fill="green" stroke="green" points="441.7,-480.47 433.24,-474.1 435.88,-484.36 441.7,-480.47"/>
</g>
<!-- node4 -->
<g id="node3" class="node">
<title>node4</title>
<polygon fill="lightgreen" stroke="black" points="472.06,-594.54 472.06,-609.46 437.38,-620 388.35,-620 353.68,-609.46 353.68,-594.54 388.35,-584 437.38,-584 472.06,-594.54"/>
<text text-anchor="middle" x="412.87" y="-598.3" font-family="Times,serif" font-size="14.00">#4 int 10</text>
</g>
<!-- node2&#45;&gt;node4 -->
<g id="edge2" class="edge">
<title>node2&#45;&gt;node4</title>
<path fill="none" stroke="black" stroke-dasharray="1,5" d="M412.87,-656.81C412.87,-648.79 412.87,-639.05 412.87,-630.07"/>
<polygon fill="black" stroke="black" points="416.37,-630.03 412.87,-620.03 409.37,-630.03 416.37,-630.03"/>
</g>
<!-- node3 -->
<g id="node10" class="node">
<title>node3</title>
<polygon fill="lightgrey" stroke="black" points="256.37,-620 137.37,-620 137.37,-584 256.37,-584 256.37,-620"/>
<text text-anchor="middle" x="196.87" y="-598.3" font-family="Times,serif" font-size="14.00">#3 LabelNode</text>
</g>
<!-- node2&#45;&gt;node3 -->
<g id="edge14" class="edge">
<title>node2&#45;&gt;node3</title>
<path fill="none" stroke="red" d="M361.13,-656.99C330.37,-646.88 291.15,-633.99 258.75,-623.34"/>
<polygon fill="red" stroke="red" points="259.53,-619.91 248.93,-620.11 257.34,-626.56 259.53,-619.91"/>
</g>
<!-- node4&#45;&gt;node5 -->
<g id="edge3" class="edge">
<title>node4&#45;&gt;node5</title>
<path fill="none" stroke="black" d="M413.82,-583.92C415.18,-559.34 417.72,-513.75 419.34,-484.43"/>
<polygon fill="black" stroke="black" points="422.86,-484.24 419.92,-474.06 415.87,-483.85 422.86,-484.24"/>
<text text-anchor="middle" x="427.35" y="-488.93" font-family="Times,serif" font-size="14.00">*0</text>
</g>
<!-- node12 -->
<g id="node5" class="node">
<title>node12</title>
<polygon fill="lightgrey" stroke="black" points="323.87,-255 147.87,-255 147.87,-219 323.87,-219 323.87,-255"/>
<text text-anchor="middle" x="235.87" y="-233.3" font-family="Times,serif" font-size="14.00">#12 ArrayLoad : short</text>
</g>
<!-- node5&#45;&gt;node12 -->
<g id="edge5" class="edge">
<title>node5&#45;&gt;node12</title>
<path fill="none" stroke="black" d="M411.33,-437.88C406.84,-429.37 401.66,-418.83 397.87,-409 377.1,-355.18 402.12,-326.29 362.87,-284 353.08,-273.46 340.69,-265.32 327.51,-259.05"/>
<polygon fill="black" stroke="black" points="328.85,-255.82 318.28,-255 326.03,-262.23 328.85,-255.82"/>
<text text-anchor="middle" x="338.28" y="-250.85" font-family="Times,serif" font-size="14.00">*0</text>
</g>
<!-- node10 -->
<g id="node7" class="node">
<title>node10</title>
<polygon fill="lightgrey" stroke="black" points="350.37,-401 159.37,-401 159.37,-365 350.37,-365 350.37,-401"/>
<text text-anchor="middle" x="254.87" y="-379.3" font-family="Times,serif" font-size="14.00">#10 ArrayStore : short[]</text>
</g>
<!-- node5&#45;&gt;node10 -->
<g id="edge9" class="edge">
<title>node5&#45;&gt;node10</title>
<path fill="none" stroke="black" d="M375.25,-437.99C351.28,-428.19 322.11,-415.77 298.45,-405.31"/>
<polygon fill="black" stroke="black" points="299.57,-401.98 289.01,-401.11 296.72,-408.38 299.57,-401.98"/>
<text text-anchor="middle" x="309.01" y="-397.06" font-family="Times,serif" font-size="14.00">*0</text>
</g>
<!-- node5&#45;&gt;node10 -->
<g id="edge12" class="edge">
<title>node5&#45;&gt;node10</title>
<path fill="none" stroke="green" d="M386.97,-437.99C364.88,-428.1 335.65,-415.54 310.27,-405.03"/>
<polygon fill="green" stroke="green" points="311.33,-401.68 300.75,-401.11 308.66,-408.16 311.33,-401.68"/>
</g>
<!-- node8 -->
<g id="node16" class="node">
<title>node8</title>
<polygon fill="orange" stroke="black" points="592.59,-375.54 592.59,-390.46 538.28,-401 461.46,-401 407.15,-390.46 407.15,-375.54 461.46,-365 538.28,-365 592.59,-375.54"/>
<text text-anchor="middle" x="499.87" y="-379.3" font-family="Times,serif" font-size="14.00">#8 ArrayLength</text>
</g>
<!-- node5&#45;&gt;node8 -->
<g id="edge24" class="edge">
<title>node5&#45;&gt;node8</title>
<path fill="none" stroke="black" d="M439.99,-437.81C449.99,-428.83 462.38,-417.69 473.29,-407.89"/>
<polygon fill="black" stroke="black" points="475.82,-410.32 480.92,-401.03 471.14,-405.11 475.82,-410.32"/>
<text text-anchor="middle" x="473.09" y="-415.73" font-family="Times,serif" font-size="14.00">*0</text>
</g>
<!-- node14 -->
<g id="node12" class="node">
<title>node14</title>
<polygon fill="lightgrey" stroke="black" points="532.87,-182 404.87,-182 404.87,-146 532.87,-146 532.87,-182"/>
<text text-anchor="middle" x="468.87" y="-160.3" font-family="Times,serif" font-size="14.00">#14 LabelNode</text>
</g>
<!-- node12&#45;&gt;node14 -->
<g id="edge19" class="edge">
<title>node12&#45;&gt;node14</title>
<path fill="none" stroke="red" d="M291.68,-218.99C325.15,-208.79 367.9,-195.77 403.02,-185.07"/>
<polygon fill="red" stroke="red" points="404.16,-188.38 412.71,-182.11 402.12,-181.68 404.16,-188.38"/>
</g>
<!-- node16 -->
<g id="node14" class="node">
<title>node16</title>
<polygon fill="lightgrey" stroke="black" points="519.37,-36 418.37,-36 418.37,0 519.37,0 519.37,-36"/>
<text text-anchor="middle" x="468.87" y="-14.3" font-family="Times,serif" font-size="14.00">#16 Return</text>
</g>
<!-- node12&#45;&gt;node16 -->
<g id="edge22" class="edge">
<title>node12&#45;&gt;node16</title>
<path fill="none" stroke="green" d="M284.47,-218.93C307.66,-209.7 335.22,-197.09 357.87,-182 377.23,-169.1 375.49,-157.22 395.87,-146 454.51,-113.71 500.76,-161.83 541.87,-109 551.69,-96.37 549.07,-87.29 541.87,-73 535.47,-60.31 524.53,-49.87 513.04,-41.66"/>
<polygon fill="green" stroke="green" points="514.9,-38.69 504.63,-36.07 511.03,-44.52 514.9,-38.69"/>
</g>
<!-- node13 -->
<g id="node15" class="node">
<title>node13</title>
<polygon fill="orange" stroke="black" points="349.31,-156.54 349.31,-171.46 275.83,-182 171.91,-182 98.42,-171.46 98.42,-156.54 171.91,-146 275.83,-146 349.31,-156.54"/>
<text text-anchor="middle" x="223.87" y="-160.3" font-family="Times,serif" font-size="14.00">#13 Extend : SIGN int</text>
</g>
<!-- node12&#45;&gt;node13 -->
<g id="edge23" class="edge">
<title>node12&#45;&gt;node13</title>
<path fill="none" stroke="black" d="M232.96,-218.81C231.61,-210.79 229.96,-201.05 228.44,-192.07"/>
<polygon fill="black" stroke="black" points="231.86,-191.31 226.75,-182.03 224.96,-192.47 231.86,-191.31"/>
<text text-anchor="middle" x="238.1" y="-194.79" font-family="Times,serif" font-size="14.00">*0</text>
</g>
<!-- node11 -->
<g id="node6" class="node">
<title>node11</title>
<polygon fill="lightgreen" stroke="black" points="351.06,-302.54 351.06,-317.46 316.38,-328 267.35,-328 232.68,-317.46 232.68,-302.54 267.35,-292 316.38,-292 351.06,-302.54"/>
<text text-anchor="middle" x="291.87" y="-306.3" font-family="Times,serif" font-size="14.00">#11 int 1</text>
</g>
<!-- node11&#45;&gt;node12 -->
<g id="edge6" class="edge">
<title>node11&#45;&gt;node12</title>
<path fill="none" stroke="black" d="M278.31,-291.81C271.5,-283.18 263.12,-272.56 255.61,-263.03"/>
<polygon fill="black" stroke="black" points="258.24,-260.71 249.3,-255.03 252.74,-265.05 258.24,-260.71"/>
<text text-anchor="middle" x="267.16" y="-260.33" font-family="Times,serif" font-size="14.00">*1</text>
</g>
<!-- node10&#45;&gt;node12 -->
<g id="edge7" class="edge">
<title>node10&#45;&gt;node12</title>
<path fill="none" stroke="green" d="M233.79,-364.55C225.94,-354.45 218.38,-341.16 214.87,-328 209.28,-307.05 213.16,-282.64 219.34,-264.52"/>
<polygon fill="green" stroke="green" points="222.62,-265.76 222.97,-255.17 216.09,-263.23 222.62,-265.76"/>
</g>
<!-- node10&#45;&gt;node12 -->
<g id="edge8" class="edge">
<title>node10&#45;&gt;node12</title>
<path fill="none" stroke="red" d="M249.65,-364.55C243.94,-354.45 236.38,-341.16 232.87,-328 227.33,-307.25 231.09,-283.09 234.46,-265.03"/>
<polygon fill="red" stroke="red" points="237.9,-265.65 236.32,-255.17 231.03,-264.35 237.9,-265.65"/>
</g>
<!-- node10&#45;&gt;node11 -->
<g id="edge18" class="edge">
<title>node10&#45;&gt;node11</title>
<path fill="none" stroke="black" stroke-dasharray="1,5" d="M263.83,-364.81C268.19,-356.44 273.53,-346.2 278.37,-336.9"/>
<polygon fill="black" stroke="black" points="281.48,-338.51 282.99,-328.03 275.27,-335.28 281.48,-338.51"/>
</g>
<!-- node7 -->
<g id="node8" class="node">
<title>node7</title>
<polygon fill="lightgreen" stroke="black" points="317.39,-521.54 317.39,-536.46 286.62,-547 243.11,-547 212.34,-536.46 212.34,-521.54 243.11,-511 286.62,-511 317.39,-521.54"/>
<text text-anchor="middle" x="264.87" y="-525.3" font-family="Times,serif" font-size="14.00">#7 int 0</text>
</g>
<!-- node7&#45;&gt;node10 -->
<g id="edge10" class="edge">
<title>node7&#45;&gt;node10</title>
<path fill="none" stroke="black" d="M263.68,-510.92C261.97,-486.23 258.78,-440.35 256.75,-411.04"/>
<polygon fill="black" stroke="black" points="260.24,-410.8 256.05,-401.06 253.25,-411.28 260.24,-410.8"/>
<text text-anchor="middle" x="265.74" y="-414.86" font-family="Times,serif" font-size="14.00">*1</text>
</g>
<!-- node9 -->
<g id="node9" class="node">
<title>node9</title>
<polygon fill="orange" stroke="black" points="241.27,-448.54 241.27,-463.46 176.6,-474 85.14,-474 20.47,-463.46 20.47,-448.54 85.14,-438 176.6,-438 241.27,-448.54"/>
<text text-anchor="middle" x="130.87" y="-452.3" font-family="Times,serif" font-size="14.00">#9 Truncate : short</text>
</g>
<!-- node9&#45;&gt;node10 -->
<g id="edge11" class="edge">
<title>node9&#45;&gt;node10</title>
<path fill="none" stroke="black" d="M160.57,-437.99C177.17,-428.49 198.04,-416.54 215.94,-406.29"/>
<polygon fill="black" stroke="black" points="218.04,-409.12 224.98,-401.11 214.56,-403.05 218.04,-409.12"/>
<text text-anchor="middle" x="213.45" y="-413.76" font-family="Times,serif" font-size="14.00">*2</text>
</g>
<!-- node3&#45;&gt;node10 -->
<g id="edge13" class="edge">
<title>node3&#45;&gt;node10</title>
<path fill="none" stroke="red" d="M137.67,-583.94C114.13,-575.31 87.73,-563.17 66.87,-547 23.98,-513.76 -22.09,-480.33 11.87,-438 29.44,-416.1 91.78,-402.52 148.92,-394.45"/>
<polygon fill="red" stroke="red" points="149.71,-397.88 159.15,-393.06 148.76,-390.94 149.71,-397.88"/>
</g>
<!-- node3&#45;&gt;node7 -->
<g id="edge15" class="edge">
<title>node3&#45;&gt;node7</title>
<path fill="none" stroke="black" stroke-dasharray="1,5" d="M213.33,-583.81C221.77,-575 232.19,-564.13 241.44,-554.46"/>
<polygon fill="black" stroke="black" points="244.17,-556.67 248.56,-547.03 239.11,-551.83 244.17,-556.67"/>
</g>
<!-- node6 -->
<g id="node11" class="node">
<title>node6</title>
<polygon fill="lightgreen" stroke="black" points="194.06,-521.54 194.06,-536.46 159.38,-547 110.35,-547 75.68,-536.46 75.68,-521.54 110.35,-511 159.38,-511 194.06,-521.54"/>
<text text-anchor="middle" x="134.87" y="-525.3" font-family="Times,serif" font-size="14.00">#6 int 10</text>
</g>
<!-- node3&#45;&gt;node6 -->
<g id="edge16" class="edge">
<title>node3&#45;&gt;node6</title>
<path fill="none" stroke="black" stroke-dasharray="1,5" d="M181.86,-583.81C174.24,-575.09 164.86,-564.34 156.48,-554.75"/>
<polygon fill="black" stroke="black" points="158.95,-552.26 149.74,-547.03 153.68,-556.86 158.95,-552.26"/>
</g>
<!-- node6&#45;&gt;node9 -->
<g id="edge17" class="edge">
<title>node6&#45;&gt;node9</title>
<path fill="none" stroke="black" d="M133.9,-510.81C133.45,-502.79 132.9,-493.05 132.39,-484.07"/>
<polygon fill="black" stroke="black" points="135.88,-483.82 131.83,-474.03 128.9,-484.21 135.88,-483.82"/>
<text text-anchor="middle" x="141.29" y="-487.95" font-family="Times,serif" font-size="14.00">*0</text>
</g>
<!-- node15 -->
<g id="node13" class="node">
<title>node15</title>
<polygon fill="lightgrey" stroke="black" points="532.87,-109 404.87,-109 404.87,-73 532.87,-73 532.87,-109"/>
<text text-anchor="middle" x="468.87" y="-87.3" font-family="Times,serif" font-size="14.00">#15 LabelNode</text>
</g>
<!-- node14&#45;&gt;node15 -->
<g id="edge20" class="edge">
<title>node14&#45;&gt;node15</title>
<path fill="none" stroke="red" d="M468.87,-145.81C468.87,-137.79 468.87,-128.05 468.87,-119.07"/>
<polygon fill="red" stroke="red" points="472.37,-119.03 468.87,-109.03 465.37,-119.03 472.37,-119.03"/>
</g>
<!-- node15&#45;&gt;node16 -->
<g id="edge21" class="edge">
<title>node15&#45;&gt;node16</title>
<path fill="none" stroke="red" d="M468.87,-72.81C468.87,-64.79 468.87,-55.05 468.87,-46.07"/>
<polygon fill="red" stroke="red" points="472.37,-46.03 468.87,-36.03 465.37,-46.03 472.37,-46.03"/>
</g>
<!-- c0 -->
<!-- c1 -->
<!-- c0&#45;&gt;c1 -->
<g id="edge25" class="edge">
<title>c0&#45;&gt;c1</title>
<path fill="none" stroke="red" d="M1219.76,-757C1230.97,-757 1289.11,-757 1314.73,-757"/>
<polygon fill="red" stroke="red" points="1314.92,-760.5 1324.92,-757 1314.92,-753.5 1314.92,-760.5"/>
<text text-anchor="middle" x="1272.37" y="-763.8" font-family="Times,serif" font-size="14.00">Control flow</text>
</g>
<!-- c2 -->
<!-- c3 -->
<!-- c2&#45;&gt;c3 -->
<g id="edge26" class="edge">
<title>c2&#45;&gt;c3</title>
<path fill="none" stroke="red" stroke-dasharray="5,2" d="M1012.95,-757C1029.92,-757 1146.07,-757 1183.95,-757"/>
<polygon fill="red" stroke="red" points="1184.04,-760.5 1194.04,-757 1184.04,-753.5 1184.04,-760.5"/>
<text text-anchor="middle" x="1103.37" y="-763.8" font-family="Times,serif" font-size="14.00">Control flow back edge</text>
</g>
<!-- d0 -->
<!-- d1 -->
<!-- d0&#45;&gt;d1 -->
<g id="edge27" class="edge">
<title>d0&#45;&gt;d1</title>
<path fill="none" stroke="black" d="M901.73,-757C911.27,-757 955.18,-757 976.79,-757"/>
<polygon fill="black" stroke="black" points="977.02,-760.5 987.02,-757 977.02,-753.5 977.02,-760.5"/>
<text text-anchor="middle" x="944.37" y="-763.8" font-family="Times,serif" font-size="14.00">Data flow</text>
</g>
<!-- d2 -->
<!-- d3 -->
<!-- d2&#45;&gt;d3 -->
<g id="edge28" class="edge">
<title>d2&#45;&gt;d3</title>
<path fill="none" stroke="black" stroke-dasharray="1,5" d="M775.67,-757C786.32,-757 841.33,-757 865.94,-757"/>
<polygon fill="black" stroke="black" points="866.01,-760.5 876.01,-757 866.01,-753.5 866.01,-760.5"/>
<text text-anchor="middle" x="825.87" y="-763.8" font-family="Times,serif" font-size="14.00">Declaration</text>
</g>
<!-- d4 -->
<!-- d5 -->
<!-- d4&#45;&gt;d5 -->
<g id="edge29" class="edge">
<title>d4&#45;&gt;d5</title>
<path fill="none" stroke="blue" d="M632.97,-757C645.59,-757 711.75,-757 739.55,-757"/>
<polygon fill="blue" stroke="blue" points="739.71,-760.5 749.71,-757 739.71,-753.5 739.71,-760.5"/>
<text text-anchor="middle" x="691.37" y="-763.8" font-family="Times,serif" font-size="14.00">PHI Data flow</text>
</g>
<!-- d6 -->
<!-- d7 -->
<!-- d6&#45;&gt;d7 -->
<g id="edge30" class="edge">
<title>d6&#45;&gt;d7</title>
<path fill="none" stroke="green" d="M495.86,-757C507.81,-757 570.17,-757 596.8,-757"/>
<polygon fill="green" stroke="green" points="596.82,-760.5 606.82,-757 596.82,-753.5 596.82,-760.5"/>
<text text-anchor="middle" x="551.37" y="-763.8" font-family="Times,serif" font-size="14.00">Memory flow</text>
</g>
</g>
</svg>
