<?xml version="1.0" encoding="UTF-8" standalone="no"?>
<!DOCTYPE svg PUBLIC "-//W3C//DTD SVG 1.1//EN"
 "http://www.w3.org/Graphics/SVG/1.1/DTD/svg11.dtd">
<!-- Generated by graphviz version 2.43.0 (0)
 -->
<!-- Title: %3 Pages: 1 -->
<svg width="1401pt" height="806pt"
 viewBox="0.00 0.00 1401.14 805.80" xmlns="http://www.w3.org/2000/svg" xmlns:xlink="http://www.w3.org/1999/xlink">
<g id="graph0" class="graph" transform="scale(1 1) rotate(0) translate(4 801.8)">
<title>%3</title>
<polygon fill="white" stroke="transparent" points="-4,4 -4,-801.8 1397.14,-801.8 1397.14,4 -4,4"/>
<g id="clust1" class="cluster">
<title>cluster_0</title>
<polygon fill="none" stroke="lightgray" points="53.14,-503 53.14,-628 311.14,-628 311.14,-503 53.14,-503"/>
</g>
<g id="clust2" class="cluster">
<title>cluster_1</title>
<polygon fill="none" stroke="lightgray" points="393.14,-576 393.14,-701 529.14,-701 529.14,-576 393.14,-576"/>
</g>
<g id="clust3" class="cluster">
<title>cluster_2</title>
<polygon fill="none" stroke="lightgray" points="122.14,-284 122.14,-409 330.14,-409 330.14,-284 122.14,-284"/>
</g>
<g id="clust4" class="cluster">
<title>cluster_000</title>
<polygon fill="none" stroke="black" points="532.14,-747.2 532.14,-789.8 1385.14,-789.8 1385.14,-747.2 532.14,-747.2"/>
<text text-anchor="middle" x="958.64" y="-774.6" font-family="Times,serif" font-size="14.00">Legend</text>
</g>
<!-- node0 -->
<g id="node1" class="node">
<title>node0</title>
<polygon fill="lightgrey" stroke="transparent" points="522.64,-784 399.64,-784 399.64,-730 522.64,-730 522.64,-784"/>
<polygon fill="none" stroke="black" points="400.14,-757 400.14,-784 523.14,-784 523.14,-757 400.14,-757"/>
<text text-anchor="start" x="421.14" y="-766.8" font-family="Times,serif" font-size="14.00">#0 Method</text>
<polygon fill="yellow" stroke="transparent" points="400.14,-730 400.14,-757 523.14,-757 523.14,-730 400.14,-730"/>
<polygon fill="none" stroke="black" points="400.14,-730 400.14,-757 523.14,-757 523.14,-730 400.14,-730"/>
<text text-anchor="start" x="406.14" y="-739.8" font-family="Times,serif" font-size="14.00">this : ArrayTest</text>
</g>
<!-- node5 -->
<g id="node2" class="node">
<title>node5</title>
<polygon fill="orange" stroke="black" points="601.77,-448.54 601.77,-463.46 529.35,-474 426.94,-474 354.52,-463.46 354.52,-448.54 426.94,-438 529.35,-438 601.77,-448.54"/>
<text text-anchor="middle" x="478.14" y="-452.3" font-family="Times,serif" font-size="14.00">#5 NewArray : short[]</text>
</g>
<!-- node0&#45;&gt;node5 -->
<g id="edge2" class="edge">
<title>node0&#45;&gt;node5</title>
<path fill="none" stroke="green" d="M413.75,-729.75C403.85,-721.88 394.72,-712.28 389.14,-701 364.52,-651.2 371.61,-628.72 389.14,-576 401.53,-538.77 430.6,-503.78 452.17,-481.51"/>
<polygon fill="green" stroke="green" points="454.89,-483.74 459.45,-474.18 449.92,-478.81 454.89,-483.74"/>
</g>
<!-- node2 -->
<g id="node4" class="node">
<title>node2</title>
<polygon fill="lightgrey" stroke="black" points="520.64,-693 401.64,-693 401.64,-657 520.64,-657 520.64,-693"/>
<text text-anchor="middle" x="461.14" y="-671.3" font-family="Times,serif" font-size="14.00">#2 LabelNode</text>
</g>
<!-- node0&#45;&gt;node2 -->
<g id="edge4" class="edge">
<title>node0&#45;&gt;node2</title>
<path fill="none" stroke="red" d="M461.14,-729.81C461.14,-721.35 461.14,-711.95 461.14,-703.4"/>
<polygon fill="red" stroke="red" points="464.65,-703.17 461.14,-693.17 457.65,-703.17 464.65,-703.17"/>
</g>
<!-- node10 -->
<g id="node8" class="node">
<title>node10</title>
<polygon fill="lightgrey" stroke="black" points="321.64,-401 130.64,-401 130.64,-365 321.64,-365 321.64,-401"/>
<text text-anchor="middle" x="226.14" y="-379.3" font-family="Times,serif" font-size="14.00">#10 ArrayStore : short[]</text>
</g>
<!-- node5&#45;&gt;node10 -->
<g id="edge8" class="edge">
<title>node5&#45;&gt;node10</title>
<path fill="none" stroke="black" d="M409.48,-440.5C384.6,-434.47 356.46,-427.2 331.14,-420 314.04,-415.13 295.61,-409.49 279.01,-404.14"/>
<polygon fill="black" stroke="black" points="280.05,-400.8 269.46,-401.03 277.88,-407.46 280.05,-400.8"/>
<text text-anchor="middle" x="289.31" y="-394.91" font-family="Times,serif" font-size="14.00">*0</text>
</g>
<!-- node5&#45;&gt;node10 -->
<g id="edge11" class="edge">
<title>node5&#45;&gt;node10</title>
<path fill="none" stroke="green" d="M420.11,-438.95C397.87,-433.24 372.32,-426.59 349.14,-420 332.04,-415.13 313.61,-409.49 296.33,-404.14"/>
<polygon fill="green" stroke="green" points="296.89,-400.65 286.3,-401.03 294.82,-407.34 296.89,-400.65"/>
</g>
<!-- node12 -->
<g id="node11" class="node">
<title>node12</title>
<polygon fill="lightgrey" stroke="black" points="288.14,-255 112.14,-255 112.14,-219 288.14,-219 288.14,-255"/>
<text text-anchor="middle" x="200.14" y="-233.3" font-family="Times,serif" font-size="14.00">#12 ArrayLoad : short</text>
</g>
<!-- node5&#45;&gt;node12 -->
<g id="edge15" class="edge">
<title>node5&#45;&gt;node12</title>
<path fill="none" stroke="black" d="M420.96,-438.87C404.68,-431.92 388.14,-422.25 376.14,-409 336.82,-365.55 375.45,-325.58 334.14,-284 323.72,-273.51 310.8,-265.41 297.14,-259.15"/>
<polygon fill="black" stroke="black" points="298.15,-255.78 287.58,-255.11 295.42,-262.23 298.15,-255.78"/>
<text text-anchor="middle" x="307.56" y="-250.69" font-family="Times,serif" font-size="14.00">*0</text>
</g>
<!-- node8 -->
<g id="node16" class="node">
<title>node8</title>
<polygon fill="orange" stroke="black" points="570.87,-375.54 570.87,-390.46 516.55,-401 439.74,-401 385.42,-390.46 385.42,-375.54 439.74,-365 516.55,-365 570.87,-375.54"/>
<text text-anchor="middle" x="478.14" y="-379.3" font-family="Times,serif" font-size="14.00">#8 ArrayLength</text>
</g>
<!-- node5&#45;&gt;node8 -->
<g id="edge24" class="edge">
<title>node5&#45;&gt;node8</title>
<path fill="none" stroke="black" d="M478.14,-437.81C478.14,-429.79 478.14,-420.05 478.14,-411.07"/>
<polygon fill="black" stroke="black" points="481.65,-411.03 478.14,-401.03 474.65,-411.03 481.65,-411.03"/>
<text text-anchor="middle" x="486.6" y="-415.45" font-family="Times,serif" font-size="14.00">*0</text>
</g>
<!-- node4 -->
<g id="node3" class="node">
<title>node4</title>
<polygon fill="lightgreen" stroke="black" points="521.33,-594.54 521.33,-609.46 486.66,-620 437.63,-620 402.96,-609.46 402.96,-594.54 437.63,-584 486.66,-584 521.33,-594.54"/>
<text text-anchor="middle" x="462.14" y="-598.3" font-family="Times,serif" font-size="14.00">#4 int 10</text>
</g>
<!-- node4&#45;&gt;node5 -->
<g id="edge1" class="edge">
<title>node4&#45;&gt;node5</title>
<path fill="none" stroke="black" d="M464.04,-583.92C466.79,-559.23 471.88,-513.35 475.14,-484.04"/>
<polygon fill="black" stroke="black" points="478.62,-484.39 476.25,-474.06 471.67,-483.61 478.62,-484.39"/>
<text text-anchor="middle" x="482.65" y="-489.31" font-family="Times,serif" font-size="14.00">*0</text>
</g>
<!-- node2&#45;&gt;node4 -->
<g id="edge3" class="edge">
<title>node2&#45;&gt;node4</title>
<path fill="none" stroke="black" stroke-dasharray="1,5" d="M461.39,-656.81C461.5,-648.79 461.64,-639.05 461.76,-630.07"/>
<polygon fill="black" stroke="black" points="465.26,-630.08 461.91,-620.03 458.26,-629.98 465.26,-630.08"/>
</g>
<!-- node3 -->
<g id="node5" class="node">
<title>node3</title>
<polygon fill="lightgrey" stroke="black" points="180.64,-620 61.64,-620 61.64,-584 180.64,-584 180.64,-620"/>
<text text-anchor="middle" x="121.14" y="-598.3" font-family="Times,serif" font-size="14.00">#3 LabelNode</text>
</g>
<!-- node2&#45;&gt;node3 -->
<g id="edge5" class="edge">
<title>node2&#45;&gt;node3</title>
<path fill="none" stroke="red" d="M401.53,-661.55C342.72,-649.27 252.85,-630.5 190.79,-617.54"/>
<polygon fill="red" stroke="red" points="191.19,-614.05 180.69,-615.43 189.76,-620.9 191.19,-614.05"/>
</g>
<!-- node7 -->
<g id="node6" class="node">
<title>node7</title>
<polygon fill="lightgreen" stroke="black" points="303.33,-521.54 303.33,-536.46 268.66,-547 219.63,-547 184.96,-536.46 184.96,-521.54 219.63,-511 268.66,-511 303.33,-521.54"/>
<text text-anchor="middle" x="244.14" y="-525.3" font-family="Times,serif" font-size="14.00">#7 int 10</text>
</g>
<!-- node3&#45;&gt;node7 -->
<g id="edge6" class="edge">
<title>node3&#45;&gt;node7</title>
<path fill="none" stroke="black" stroke-dasharray="1,5" d="M150.61,-583.99C167.55,-574.21 189,-561.83 207.08,-551.39"/>
<polygon fill="black" stroke="black" points="209.28,-554.17 216.19,-546.14 205.78,-548.1 209.28,-554.17"/>
</g>
<!-- node3&#45;&gt;node10 -->
<g id="edge12" class="edge">
<title>node3&#45;&gt;node10</title>
<path fill="none" stroke="red" d="M88.02,-583.98C74.25,-575 59.74,-562.59 52.14,-547 43.58,-529.42 46.51,-521.73 52.14,-503 65.98,-457 77.64,-441.37 120.14,-419 130.6,-413.5 142.08,-408.64 153.51,-404.42"/>
<polygon fill="red" stroke="red" points="154.82,-407.66 163.07,-401.02 152.48,-401.07 154.82,-407.66"/>
</g>
<!-- node6 -->
<g id="node9" class="node">
<title>node6</title>
<polygon fill="lightgreen" stroke="black" points="166.67,-521.54 166.67,-536.46 135.9,-547 92.39,-547 61.62,-536.46 61.62,-521.54 92.39,-511 135.9,-511 166.67,-521.54"/>
<text text-anchor="middle" x="114.14" y="-525.3" font-family="Times,serif" font-size="14.00">#6 int 0</text>
</g>
<!-- node3&#45;&gt;node6 -->
<g id="edge13" class="edge">
<title>node3&#45;&gt;node6</title>
<path fill="none" stroke="black" stroke-dasharray="1,5" d="M119.45,-583.81C118.66,-575.79 117.7,-566.05 116.81,-557.07"/>
<polygon fill="black" stroke="black" points="120.29,-556.64 115.82,-547.03 113.32,-557.32 120.29,-556.64"/>
</g>
<!-- node9 -->
<g id="node7" class="node">
<title>node9</title>
<polygon fill="orange" stroke="black" points="336.54,-448.54 336.54,-463.46 271.87,-474 180.42,-474 115.75,-463.46 115.75,-448.54 180.42,-438 271.87,-438 336.54,-448.54"/>
<text text-anchor="middle" x="226.14" y="-452.3" font-family="Times,serif" font-size="14.00">#9 Truncate : short</text>
</g>
<!-- node7&#45;&gt;node9 -->
<g id="edge7" class="edge">
<title>node7&#45;&gt;node9</title>
<path fill="none" stroke="black" d="M239.79,-510.81C237.73,-502.7 235.23,-492.84 232.93,-483.78"/>
<polygon fill="black" stroke="black" points="236.31,-482.86 230.46,-474.03 229.53,-484.58 236.31,-482.86"/>
<text text-anchor="middle" x="243.11" y="-485.82" font-family="Times,serif" font-size="14.00">*0</text>
</g>
<!-- node9&#45;&gt;node10 -->
<g id="edge10" class="edge">
<title>node9&#45;&gt;node10</title>
<path fill="none" stroke="black" d="M226.14,-437.81C226.14,-429.79 226.14,-420.05 226.14,-411.07"/>
<polygon fill="black" stroke="black" points="229.65,-411.03 226.14,-401.03 222.65,-411.03 229.65,-411.03"/>
<text text-anchor="middle" x="234.6" y="-415.45" font-family="Times,serif" font-size="14.00">*2</text>
</g>
<!-- node11 -->
<g id="node10" class="node">
<title>node11</title>
<polygon fill="lightgreen" stroke="black" points="322.33,-302.54 322.33,-317.46 287.66,-328 238.63,-328 203.96,-317.46 203.96,-302.54 238.63,-292 287.66,-292 322.33,-302.54"/>
<text text-anchor="middle" x="263.14" y="-306.3" font-family="Times,serif" font-size="14.00">#11 int 1</text>
</g>
<!-- node10&#45;&gt;node11 -->
<g id="edge14" class="edge">
<title>node10&#45;&gt;node11</title>
<path fill="none" stroke="black" stroke-dasharray="1,5" d="M235.1,-364.81C239.46,-356.44 244.8,-346.2 249.65,-336.9"/>
<polygon fill="black" stroke="black" points="252.75,-338.51 254.27,-328.03 246.55,-335.28 252.75,-338.51"/>
</g>
<!-- node10&#45;&gt;node12 -->
<g id="edge17" class="edge">
<title>node10&#45;&gt;node12</title>
<path fill="none" stroke="green" d="M205.07,-364.55C197.22,-354.45 189.65,-341.16 186.14,-328 180.65,-307.4 182.42,-283.23 186.64,-265.13"/>
<polygon fill="green" stroke="green" points="190.08,-265.82 189.37,-255.24 183.33,-263.95 190.08,-265.82"/>
</g>
<!-- node10&#45;&gt;node12 -->
<g id="edge18" class="edge">
<title>node10&#45;&gt;node12</title>
<path fill="none" stroke="red" d="M220.92,-364.55C215.22,-354.45 207.65,-341.16 204.14,-328 198.68,-307.49 200.41,-283.45 201.9,-265.38"/>
<polygon fill="red" stroke="red" points="205.41,-265.49 202.72,-255.24 198.43,-264.93 205.41,-265.49"/>
</g>
<!-- node6&#45;&gt;node10 -->
<g id="edge9" class="edge">
<title>node6&#45;&gt;node10</title>
<path fill="none" stroke="black" d="M107.05,-510.91C100.27,-491.6 92.97,-460 107.14,-438 116.39,-423.65 130.48,-413.07 145.77,-405.29"/>
<polygon fill="black" stroke="black" points="147.31,-408.43 154.88,-401.02 144.34,-402.09 147.31,-408.43"/>
<text text-anchor="middle" x="142.05" y="-412.66" font-family="Times,serif" font-size="14.00">*1</text>
</g>
<!-- node11&#45;&gt;node12 -->
<g id="edge16" class="edge">
<title>node11&#45;&gt;node12</title>
<path fill="none" stroke="black" d="M247.89,-291.81C240.16,-283.09 230.62,-272.34 222.1,-262.75"/>
<polygon fill="black" stroke="black" points="224.51,-260.19 215.26,-255.03 219.27,-264.83 224.51,-260.19"/>
<text text-anchor="middle" x="233.61" y="-259.28" font-family="Times,serif" font-size="14.00">*1</text>
</g>
<!-- node16 -->
<g id="node12" class="node">
<title>node16</title>
<polygon fill="lightgrey" stroke="black" points="399.64,-36 298.64,-36 298.64,0 399.64,0 399.64,-36"/>
<text text-anchor="middle" x="349.14" y="-14.3" font-family="Times,serif" font-size="14.00">#16 Return</text>
</g>
<!-- node12&#45;&gt;node16 -->
<g id="edge20" class="edge">
<title>node12&#45;&gt;node16</title>
<path fill="none" stroke="green" d="M112.12,-225.76C47.74,-214.38 -23.31,-191.28 8.14,-146 71.44,-54.88 208.37,-29.01 288.12,-21.75"/>
<polygon fill="green" stroke="green" points="288.83,-25.2 298.5,-20.88 288.24,-18.23 288.83,-25.2"/>
</g>
<!-- node14 -->
<g id="node14" class="node">
<title>node14</title>
<polygon fill="lightgrey" stroke="black" points="413.14,-182 285.14,-182 285.14,-146 413.14,-146 413.14,-182"/>
<text text-anchor="middle" x="349.14" y="-160.3" font-family="Times,serif" font-size="14.00">#14 LabelNode</text>
</g>
<!-- node12&#45;&gt;node14 -->
<g id="edge22" class="edge">
<title>node12&#45;&gt;node14</title>
<path fill="none" stroke="red" d="M235.83,-218.99C256.32,-209.23 282.25,-196.88 304.13,-186.45"/>
<polygon fill="red" stroke="red" points="305.71,-189.57 313.23,-182.11 302.7,-183.26 305.71,-189.57"/>
</g>
<!-- node13 -->
<g id="node15" class="node">
<title>node13</title>
<polygon fill="orange" stroke="black" points="267.59,-156.54 267.59,-171.46 194.11,-182 90.18,-182 16.7,-171.46 16.7,-156.54 90.18,-146 194.11,-146 267.59,-156.54"/>
<text text-anchor="middle" x="142.14" y="-160.3" font-family="Times,serif" font-size="14.00">#13 Extend : SIGN int</text>
</g>
<!-- node12&#45;&gt;node13 -->
<g id="edge23" class="edge">
<title>node12&#45;&gt;node13</title>
<path fill="none" stroke="black" d="M186.1,-218.81C179.05,-210.18 170.37,-199.56 162.6,-190.03"/>
<polygon fill="black" stroke="black" points="165.09,-187.56 156.06,-182.03 159.67,-191.99 165.09,-187.56"/>
<text text-anchor="middle" x="174.07" y="-187.02" font-family="Times,serif" font-size="14.00">*0</text>
</g>
<!-- node15 -->
<g id="node13" class="node">
<title>node15</title>
<polygon fill="lightgrey" stroke="black" points="413.14,-109 285.14,-109 285.14,-73 413.14,-73 413.14,-109"/>
<text text-anchor="middle" x="349.14" y="-87.3" font-family="Times,serif" font-size="14.00">#15 LabelNode</text>
</g>
<!-- node15&#45;&gt;node16 -->
<g id="edge19" class="edge">
<title>node15&#45;&gt;node16</title>
<path fill="none" stroke="red" d="M349.14,-72.81C349.14,-64.79 349.14,-55.05 349.14,-46.07"/>
<polygon fill="red" stroke="red" points="352.65,-46.03 349.14,-36.03 345.65,-46.03 352.65,-46.03"/>
</g>
<!-- node14&#45;&gt;node15 -->
<g id="edge21" class="edge">
<title>node14&#45;&gt;node15</title>
<path fill="none" stroke="red" d="M349.14,-145.81C349.14,-137.79 349.14,-128.05 349.14,-119.07"/>
<polygon fill="red" stroke="red" points="352.65,-119.03 349.14,-109.03 345.65,-119.03 352.65,-119.03"/>
</g>
<!-- c0 -->
<!-- c1 -->
<!-- c0&#45;&gt;c1 -->
<g id="edge25" class="edge">
<title>c0&#45;&gt;c1</title>
<path fill="none" stroke="red" d="M1268.04,-757C1279.25,-757 1337.39,-757 1363,-757"/>
<polygon fill="red" stroke="red" points="1363.2,-760.5 1373.2,-757 1363.2,-753.5 1363.2,-760.5"/>
<text text-anchor="middle" x="1320.64" y="-763.8" font-family="Times,serif" font-size="14.00">Control flow</text>
</g>
<!-- c2 -->
<!-- c3 -->
<!-- c2&#45;&gt;c3 -->
<g id="edge26" class="edge">
<title>c2&#45;&gt;c3</title>
<path fill="none" stroke="red" stroke-dasharray="5,2" d="M1061.22,-757C1078.19,-757 1194.35,-757 1232.23,-757"/>
<polygon fill="red" stroke="red" points="1232.31,-760.5 1242.31,-757 1232.31,-753.5 1232.31,-760.5"/>
<text text-anchor="middle" x="1151.64" y="-763.8" font-family="Times,serif" font-size="14.00">Control flow back edge</text>
</g>
<!-- d0 -->
<!-- d1 -->
<!-- d0&#45;&gt;d1 -->
<g id="edge27" class="edge">
<title>d0&#45;&gt;d1</title>
<path fill="none" stroke="black" d="M950,-757C959.55,-757 1003.45,-757 1025.06,-757"/>
<polygon fill="black" stroke="black" points="1025.3,-760.5 1035.3,-757 1025.3,-753.5 1025.3,-760.5"/>
<text text-anchor="middle" x="992.64" y="-763.8" font-family="Times,serif" font-size="14.00">Data flow</text>
</g>
<!-- d2 -->
<!-- d3 -->
<!-- d2&#45;&gt;d3 -->
<g id="edge28" class="edge">
<title>d2&#45;&gt;d3</title>
<path fill="none" stroke="black" stroke-dasharray="1,5" d="M823.95,-757C834.6,-757 889.61,-757 914.22,-757"/>
<polygon fill="black" stroke="black" points="914.29,-760.5 924.29,-757 914.29,-753.5 914.29,-760.5"/>
<text text-anchor="middle" x="874.14" y="-763.8" font-family="Times,serif" font-size="14.00">Declaration</text>
</g>
<!-- d4 -->
<!-- d5 -->
<!-- d4&#45;&gt;d5 -->
<g id="edge29" class="edge">
<title>d4&#45;&gt;d5</title>
<path fill="none" stroke="blue" d="M681.25,-757C693.87,-757 760.03,-757 787.82,-757"/>
<polygon fill="blue" stroke="blue" points="787.99,-760.5 797.99,-757 787.99,-753.5 787.99,-760.5"/>
<text text-anchor="middle" x="739.64" y="-763.8" font-family="Times,serif" font-size="14.00">PHI Data flow</text>
</g>
<!-- d6 -->
<!-- d7 -->
<!-- d6&#45;&gt;d7 -->
<g id="edge30" class="edge">
<title>d6&#45;&gt;d7</title>
<path fill="none" stroke="green" d="M544.14,-757C556.08,-757 618.44,-757 645.07,-757"/>
<polygon fill="green" stroke="green" points="645.09,-760.5 655.09,-757 645.09,-753.5 645.09,-760.5"/>
<text text-anchor="middle" x="599.64" y="-763.8" font-family="Times,serif" font-size="14.00">Memory flow</text>
</g>
</g>
</svg>
