<?xml version="1.0" encoding="UTF-8" standalone="no"?>
<!DOCTYPE svg PUBLIC "-//W3C//DTD SVG 1.1//EN"
 "http://www.w3.org/Graphics/SVG/1.1/DTD/svg11.dtd">
<!-- Generated by graphviz version 2.43.0 (0)
 -->
<!-- Title: debugoutput Pages: 1 -->
<svg width="1638pt" height="432pt"
 viewBox="0.00 0.00 1637.50 431.80" xmlns="http://www.w3.org/2000/svg" xmlns:xlink="http://www.w3.org/1999/xlink">
<g id="graph0" class="graph" transform="scale(1 1) rotate(0) translate(4 427.8)">
<title>debugoutput</title>
<polygon fill="white" stroke="transparent" points="-4,4 -4,-427.8 1633.5,-427.8 1633.5,4 -4,4"/>
<g id="clust1" class="cluster">
<title>cluster_000</title>
<polygon fill="none" stroke="black" points="628,-373.2 628,-415.8 1604,-415.8 1604,-373.2 628,-373.2"/>
<text text-anchor="middle" x="1116" y="-400.6" font-family="Times,serif" font-size="14.00">Legend</text>
</g>
<!-- node0 -->
<g id="node1" class="node">
<title>node0</title>
<polygon fill="lightgrey" stroke="black" points="618,-401 452,-401 452,-365 618,-365 618,-401"/>
<text text-anchor="middle" x="535" y="-379.3" font-family="Times,serif" font-size="14.00">#0 Method Order : 0</text>
</g>
<!-- node1 -->
<g id="node2" class="node">
<title>node1</title>
<polygon fill="lightgrey" stroke="black" points="230,-328 0,-328 0,-292 230,-292 230,-328"/>
<text text-anchor="middle" x="115" y="-306.3" font-family="Times,serif" font-size="14.00">#1 this : ArrayTest Order : 16</text>
</g>
<!-- node0&#45;&gt;node1 -->
<g id="edge2" class="edge">
<title>node0&#45;&gt;node1</title>
<path fill="none" stroke="black" d="M451.77,-376.07C391.12,-370.68 307.37,-361.36 235,-347 213.54,-342.74 190.42,-336.75 170.22,-330.87"/>
<polygon fill="black" stroke="black" points="171.14,-327.49 160.55,-328.01 169.15,-334.21 171.14,-327.49"/>
<text text-anchor="middle" x="180.34" y="-321.36" font-family="Times,serif" font-size="14.00">*0</text>
</g>
<!-- node2 -->
<g id="node3" class="node">
<title>node2</title>
<polygon fill="lightgrey" stroke="black" points="697,-328 509,-328 509,-292 697,-292 697,-328"/>
<text text-anchor="middle" x="603" y="-306.3" font-family="Times,serif" font-size="14.00">#2 LabelNode Order : 1</text>
</g>
<!-- node0&#45;&gt;node2 -->
<g id="edge4" class="edge">
<title>node0&#45;&gt;node2</title>
<path fill="none" stroke="red" d="M545.58,-364.81C553.17,-355.92 563.53,-344.91 573.41,-335.17"/>
<polygon fill="red" stroke="red" points="576.06,-337.49 580.83,-328.03 571.2,-332.45 576.06,-337.49"/>
</g>
<!-- node5 -->
<g id="node6" class="node">
<title>node5</title>
<polygon fill="orange" stroke="black" points="630.21,-156.54 630.21,-171.46 529.33,-182 386.67,-182 285.79,-171.46 285.79,-156.54 386.67,-146 529.33,-146 630.21,-156.54"/>
<text text-anchor="middle" x="458" y="-160.3" font-family="Times,serif" font-size="14.00">#5 NewArray : short[] Order : 3</text>
</g>
<!-- node0&#45;&gt;node5 -->
<g id="edge11" class="edge">
<title>node0&#45;&gt;node5</title>
<path fill="none" stroke="green" d="M513.94,-364.82C505.5,-354.59 496.75,-341.09 491,-328 471.06,-282.56 459.09,-225.69 455.92,-192.54"/>
<polygon fill="green" stroke="green" points="459.39,-191.98 455.18,-182.26 452.41,-192.48 459.39,-191.98"/>
</g>
<!-- node1&#45;&gt;node0 -->
<g id="edge1" class="edge">
<title>node1&#45;&gt;node0</title>
<path fill="none" stroke="fuchsia" stroke-width="2" d="M177.15,-328.01C200.82,-334.74 228.03,-342.04 253,-347 315.49,-359.4 386.47,-368.05 441.62,-373.64"/>
<polygon fill="fuchsia" stroke="fuchsia" stroke-width="2" points="441.43,-377.14 451.73,-374.65 442.13,-370.17 441.43,-377.14"/>
</g>
<!-- node2&#45;&gt;node0 -->
<g id="edge3" class="edge">
<title>node2&#45;&gt;node0</title>
<path fill="none" stroke="fuchsia" stroke-width="2" d="M592.55,-328.03C585,-336.9 574.65,-347.9 564.76,-357.65"/>
<polygon fill="fuchsia" stroke="fuchsia" stroke-width="2" points="562.11,-355.35 557.34,-364.81 566.97,-360.39 562.11,-355.35"/>
</g>
<!-- node3 -->
<g id="node4" class="node">
<title>node3</title>
<polygon fill="lightgrey" stroke="black" points="1071,-255 883,-255 883,-219 1071,-219 1071,-255"/>
<text text-anchor="middle" x="977" y="-233.3" font-family="Times,serif" font-size="14.00">#3 LabelNode Order : 5</text>
</g>
<!-- node2&#45;&gt;node3 -->
<g id="edge6" class="edge">
<title>node2&#45;&gt;node3</title>
<path fill="none" stroke="red" d="M686.72,-291.99C741.77,-281.33 814.17,-267.57 872.91,-256.62"/>
<polygon fill="red" stroke="red" points="873.77,-260.02 882.96,-254.74 872.49,-253.14 873.77,-260.02"/>
</g>
<!-- node4 -->
<g id="node5" class="node">
<title>node4</title>
<polygon fill="lightgreen" stroke="black" points="710.77,-229.54 710.77,-244.46 647.64,-255 558.36,-255 495.23,-244.46 495.23,-229.54 558.36,-219 647.64,-219 710.77,-229.54"/>
<text text-anchor="middle" x="603" y="-233.3" font-family="Times,serif" font-size="14.00">#4 int 10 Order : 2</text>
</g>
<!-- node2&#45;&gt;node4 -->
<g id="edge8" class="edge">
<title>node2&#45;&gt;node4</title>
<path fill="none" stroke="black" stroke-dasharray="1,5" d="M597.12,-291.81C596.28,-283.79 596.05,-274.05 596.42,-265.07"/>
<polygon fill="black" stroke="black" points="599.92,-265.25 597.14,-255.03 592.94,-264.75 599.92,-265.25"/>
</g>
<!-- node3&#45;&gt;node2 -->
<g id="edge5" class="edge">
<title>node3&#45;&gt;node2</title>
<path fill="none" stroke="fuchsia" stroke-width="2" d="M893.24,-255.01C838.33,-265.65 766.17,-279.36 707.51,-290.3"/>
<polygon fill="fuchsia" stroke="fuchsia" stroke-width="2" points="706.66,-286.9 697.47,-292.17 707.94,-293.78 706.66,-286.9"/>
</g>
<!-- node6 -->
<g id="node7" class="node">
<title>node6</title>
<polygon fill="lightgrey" stroke="black" points="1520.5,-182 1323.5,-182 1323.5,-146 1520.5,-146 1520.5,-182"/>
<text text-anchor="middle" x="1422" y="-160.3" font-family="Times,serif" font-size="14.00">#6 LabelNode Order : 13</text>
</g>
<!-- node3&#45;&gt;node6 -->
<g id="edge13" class="edge">
<title>node3&#45;&gt;node6</title>
<path fill="none" stroke="red" d="M1071.13,-220.07C1141.88,-208.57 1238.9,-193.08 1313.01,-181.46"/>
<polygon fill="red" stroke="red" points="1313.98,-184.86 1323.31,-179.85 1312.89,-177.94 1313.98,-184.86"/>
</g>
<!-- node7 -->
<g id="node8" class="node">
<title>node7</title>
<polygon fill="lightgreen" stroke="black" points="851.11,-156.54 851.11,-171.46 791.88,-182 708.12,-182 648.89,-171.46 648.89,-156.54 708.12,-146 791.88,-146 851.11,-156.54"/>
<text text-anchor="middle" x="750" y="-160.3" font-family="Times,serif" font-size="14.00">#7 int 0 Order : 9</text>
</g>
<!-- node3&#45;&gt;node7 -->
<g id="edge15" class="edge">
<title>node3&#45;&gt;node7</title>
<path fill="none" stroke="black" stroke-dasharray="1,5" d="M916.77,-218.99C882.36,-208.58 839.55,-195.21 805.88,-184.38"/>
<polygon fill="black" stroke="black" points="806.79,-181 796.2,-181.26 804.64,-187.66 806.79,-181"/>
</g>
<!-- node8 -->
<g id="node9" class="node">
<title>node8</title>
<polygon fill="lightgreen" stroke="black" points="1084.77,-156.54 1084.77,-171.46 1021.64,-182 932.36,-182 869.23,-171.46 869.23,-156.54 932.36,-146 1021.64,-146 1084.77,-156.54"/>
<text text-anchor="middle" x="977" y="-160.3" font-family="Times,serif" font-size="14.00">#8 int 10 Order : 7</text>
</g>
<!-- node3&#45;&gt;node8 -->
<g id="edge17" class="edge">
<title>node3&#45;&gt;node8</title>
<path fill="none" stroke="black" stroke-dasharray="1,5" d="M971.12,-218.81C970.28,-210.79 970.05,-201.05 970.42,-192.07"/>
<polygon fill="black" stroke="black" points="973.92,-192.25 971.14,-182.03 966.94,-191.75 973.92,-192.25"/>
</g>
<!-- node9 -->
<g id="node10" class="node">
<title>node9</title>
<polygon fill="lightgreen" stroke="black" points="1305.11,-156.54 1305.11,-171.46 1245.88,-182 1162.12,-182 1102.89,-171.46 1102.89,-156.54 1162.12,-146 1245.88,-146 1305.11,-156.54"/>
<text text-anchor="middle" x="1204" y="-160.3" font-family="Times,serif" font-size="14.00">#9 int 1 Order : 6</text>
</g>
<!-- node3&#45;&gt;node9 -->
<g id="edge19" class="edge">
<title>node3&#45;&gt;node9</title>
<path fill="none" stroke="black" stroke-dasharray="1,5" d="M1025.51,-218.99C1059.01,-208.16 1103.82,-194.13 1140.2,-183.09"/>
<polygon fill="black" stroke="black" points="1141.66,-186.3 1150.22,-180.06 1139.63,-179.6 1141.66,-186.3"/>
</g>
<!-- node4&#45;&gt;node2 -->
<g id="edge7" class="edge">
<title>node4&#45;&gt;node2</title>
<path fill="none" stroke="fuchsia" stroke-width="2" d="M608.86,-255.03C609.71,-263.03 609.95,-272.77 609.59,-281.75"/>
<polygon fill="fuchsia" stroke="fuchsia" stroke-width="2" points="606.09,-281.59 608.88,-291.81 613.07,-282.08 606.09,-281.59"/>
</g>
<!-- node4&#45;&gt;node5 -->
<g id="edge10" class="edge">
<title>node4&#45;&gt;node5</title>
<path fill="none" stroke="black" d="M568.27,-218.99C548.42,-209.27 523.32,-196.99 502.09,-186.59"/>
<polygon fill="black" stroke="black" points="503.47,-183.37 492.95,-182.11 500.39,-189.65 503.47,-183.37"/>
<text text-anchor="middle" x="512.95" y="-178.79" font-family="Times,serif" font-size="14.00">*0</text>
</g>
<!-- node5&#45;&gt;node0 -->
<g id="edge9" class="edge">
<title>node5&#45;&gt;node0</title>
<path fill="none" stroke="fuchsia" stroke-width="2" d="M465.94,-182.26C474.49,-212.68 486.8,-277.43 509,-328 513.22,-337.62 519.06,-347.45 524.32,-356.05"/>
<polygon fill="fuchsia" stroke="fuchsia" stroke-width="2" points="521.48,-358.12 529.69,-364.82 527.45,-354.46 521.48,-358.12"/>
</g>
<!-- node10 -->
<g id="node11" class="node">
<title>node10</title>
<polygon fill="orange" stroke="black" points="646.97,-83.54 646.97,-98.46 560.29,-109 437.71,-109 351.03,-98.46 351.03,-83.54 437.71,-73 560.29,-73 646.97,-83.54"/>
<text text-anchor="middle" x="499" y="-87.3" font-family="Times,serif" font-size="14.00">#10 ArrayLength Order : 4</text>
</g>
<!-- node5&#45;&gt;node10 -->
<g id="edge21" class="edge">
<title>node5&#45;&gt;node10</title>
<path fill="none" stroke="black" d="M462.05,-145.81C466.05,-137.35 471.82,-126.98 477.7,-117.61"/>
<polygon fill="black" stroke="black" points="480.77,-119.32 483.3,-109.03 474.91,-115.49 480.77,-119.32"/>
<text text-anchor="middle" x="480.47" y="-125.13" font-family="Times,serif" font-size="14.00">*0</text>
</g>
<!-- node13 -->
<g id="node14" class="node">
<title>node13</title>
<polygon fill="lightgrey" stroke="black" points="646.5,-36 377.5,-36 377.5,0 646.5,0 646.5,-36"/>
<text text-anchor="middle" x="512" y="-14.3" font-family="Times,serif" font-size="14.00">#13 ArrayStore : short[] Order : 10</text>
</g>
<!-- node5&#45;&gt;node13 -->
<g id="edge27" class="edge">
<title>node5&#45;&gt;node13</title>
<path fill="none" stroke="black" d="M381.74,-146.39C362.45,-138.31 344.11,-126.42 333,-109 324.4,-95.51 323.55,-85.91 333,-73 343.39,-58.79 357.55,-48.23 373.39,-40.4"/>
<polygon fill="black" stroke="black" points="375.23,-43.41 382.9,-36.1 372.34,-37.03 375.23,-43.41"/>
<text text-anchor="middle" x="369.87" y="-47.57" font-family="Times,serif" font-size="14.00">*0</text>
</g>
<!-- node5&#45;&gt;node13 -->
<g id="edge30" class="edge">
<title>node5&#45;&gt;node13</title>
<path fill="none" stroke="green" d="M397.99,-145.99C379.86,-137.92 361.93,-126.14 351,-109 342.4,-95.51 341.55,-85.91 351,-73 361.39,-58.79 375.55,-48.23 391.2,-40.4"/>
<polygon fill="green" stroke="green" points="392.93,-43.45 400.56,-36.1 390.01,-37.09 392.93,-43.45"/>
</g>
<!-- node14 -->
<g id="node15" class="node">
<title>node14</title>
<polygon fill="lightgrey" stroke="black" points="1331,-109 1077,-109 1077,-73 1331,-73 1331,-109"/>
<text text-anchor="middle" x="1204" y="-87.3" font-family="Times,serif" font-size="14.00">#14 ArrayLoad : short Order : 11</text>
</g>
<!-- node5&#45;&gt;node14 -->
<g id="edge32" class="edge">
<title>node5&#45;&gt;node14</title>
<path fill="none" stroke="black" d="M581.34,-151.36C600.96,-149.55 621.04,-147.71 640,-146 826.91,-129.19 876.44,-129.07 1066.91,-109.09"/>
<polygon fill="black" stroke="black" points="1067.39,-112.56 1076.97,-108.03 1066.66,-105.6 1067.39,-112.56"/>
<text text-anchor="middle" x="1059.83" y="-114.64" font-family="Times,serif" font-size="14.00">*0</text>
</g>
<!-- node6&#45;&gt;node3 -->
<g id="edge12" class="edge">
<title>node6&#45;&gt;node3</title>
<path fill="none" stroke="fuchsia" stroke-width="2" d="M1323.24,-181.69C1251.43,-193.35 1154.46,-208.81 1081.38,-220.26"/>
<polygon fill="fuchsia" stroke="fuchsia" stroke-width="2" points="1080.58,-216.84 1071.24,-221.85 1081.66,-223.76 1080.58,-216.84"/>
</g>
<!-- node11 -->
<g id="node12" class="node">
<title>node11</title>
<polygon fill="lightgrey" stroke="black" points="1555,-109 1349,-109 1349,-73 1555,-73 1555,-109"/>
<text text-anchor="middle" x="1452" y="-87.3" font-family="Times,serif" font-size="14.00">#11 LabelNode Order : 14</text>
</g>
<!-- node6&#45;&gt;node11 -->
<g id="edge23" class="edge">
<title>node6&#45;&gt;node11</title>
<path fill="none" stroke="red" d="M1423.38,-145.81C1426.02,-137.53 1430.07,-127.41 1434.39,-118.19"/>
<polygon fill="red" stroke="red" points="1437.63,-119.54 1438.94,-109.03 1431.36,-116.43 1437.63,-119.54"/>
</g>
<!-- node7&#45;&gt;node3 -->
<g id="edge14" class="edge">
<title>node7&#45;&gt;node3</title>
<path fill="none" stroke="fuchsia" stroke-width="2" d="M803.78,-180.06C838.4,-190.48 883.3,-204.48 918.76,-215.86"/>
<polygon fill="fuchsia" stroke="fuchsia" stroke-width="2" points="917.9,-219.26 928.49,-218.99 920.04,-212.6 917.9,-219.26"/>
</g>
<!-- node7&#45;&gt;node13 -->
<g id="edge28" class="edge">
<title>node7&#45;&gt;node13</title>
<path fill="none" stroke="black" d="M736.01,-145.92C718.94,-126.03 688.33,-93.32 656,-73 633.75,-59.01 607.32,-47.8 583.22,-39.29"/>
<polygon fill="black" stroke="black" points="584.35,-35.98 573.75,-36.05 582.08,-42.6 584.35,-35.98"/>
<text text-anchor="middle" x="593.64" y="-30.23" font-family="Times,serif" font-size="14.00">*1</text>
</g>
<!-- node8&#45;&gt;node3 -->
<g id="edge16" class="edge">
<title>node8&#45;&gt;node3</title>
<path fill="none" stroke="fuchsia" stroke-width="2" d="M982.86,-182.03C983.71,-190.03 983.95,-199.77 983.59,-208.75"/>
<polygon fill="fuchsia" stroke="fuchsia" stroke-width="2" points="980.09,-208.59 982.88,-218.81 987.07,-209.08 980.09,-208.59"/>
</g>
<!-- node12 -->
<g id="node13" class="node">
<title>node12</title>
<polygon fill="orange" stroke="black" points="1059.14,-83.54 1059.14,-98.46 962.4,-109 825.6,-109 728.86,-98.46 728.86,-83.54 825.6,-73 962.4,-73 1059.14,-83.54"/>
<text text-anchor="middle" x="894" y="-87.3" font-family="Times,serif" font-size="14.00">#12 Truncate : short Order : 8</text>
</g>
<!-- node8&#45;&gt;node12 -->
<g id="edge25" class="edge">
<title>node8&#45;&gt;node12</title>
<path fill="none" stroke="black" d="M951.03,-145.81C939.59,-136.83 926.39,-125.69 915.5,-115.89"/>
<polygon fill="black" stroke="black" points="917.78,-113.22 908.05,-109.03 913.04,-118.37 917.78,-113.22"/>
<text text-anchor="middle" x="927.11" y="-111.37" font-family="Times,serif" font-size="14.00">*0</text>
</g>
<!-- node9&#45;&gt;node3 -->
<g id="edge18" class="edge">
<title>node9&#45;&gt;node3</title>
<path fill="none" stroke="fuchsia" stroke-width="2" d="M1157.8,-181.26C1125.98,-191.57 1083.18,-205 1047.19,-215.97"/>
<polygon fill="fuchsia" stroke="fuchsia" stroke-width="2" points="1045.78,-212.74 1037.23,-218.99 1047.82,-219.44 1045.78,-212.74"/>
</g>
<!-- node9&#45;&gt;node14 -->
<g id="edge33" class="edge">
<title>node9&#45;&gt;node14</title>
<path fill="none" stroke="black" d="M1204,-145.81C1204,-137.79 1204,-128.05 1204,-119.07"/>
<polygon fill="black" stroke="black" points="1207.5,-119.03 1204,-109.03 1200.5,-119.03 1207.5,-119.03"/>
<text text-anchor="middle" x="1212.45" y="-123.45" font-family="Times,serif" font-size="14.00">*1</text>
</g>
<!-- node10&#45;&gt;node5 -->
<g id="edge20" class="edge">
<title>node10&#45;&gt;node5</title>
<path fill="none" stroke="fuchsia" stroke-width="2" d="M495.03,-109.03C491.05,-117.46 485.28,-127.83 479.41,-137.21"/>
<polygon fill="fuchsia" stroke="fuchsia" stroke-width="2" points="476.33,-135.52 473.8,-145.81 482.2,-139.35 476.33,-135.52"/>
</g>
<!-- node11&#45;&gt;node6 -->
<g id="edge22" class="edge">
<title>node11&#45;&gt;node6</title>
<path fill="none" stroke="fuchsia" stroke-width="2" d="M1450.67,-109.03C1448.05,-117.29 1444.01,-127.4 1439.69,-136.63"/>
<polygon fill="fuchsia" stroke="fuchsia" stroke-width="2" points="1436.44,-135.3 1435.14,-145.81 1442.72,-138.41 1436.44,-135.3"/>
</g>
<!-- node15 -->
<g id="node16" class="node">
<title>node15</title>
<polygon fill="lightgrey" stroke="black" points="1629.5,-36 1450.5,-36 1450.5,0 1629.5,0 1629.5,-36"/>
<text text-anchor="middle" x="1540" y="-14.3" font-family="Times,serif" font-size="14.00">#15 Return Order : 15</text>
</g>
<!-- node11&#45;&gt;node15 -->
<g id="edge36" class="edge">
<title>node11&#45;&gt;node15</title>
<path fill="none" stroke="red" d="M1473.3,-72.81C1484.65,-63.66 1498.78,-52.26 1511.1,-42.32"/>
<polygon fill="red" stroke="red" points="1513.31,-45.03 1518.89,-36.03 1508.91,-39.58 1513.31,-45.03"/>
</g>
<!-- node12&#45;&gt;node8 -->
<g id="edge24" class="edge">
<title>node12&#45;&gt;node8</title>
<path fill="none" stroke="fuchsia" stroke-width="2" d="M919.77,-109.03C931.19,-117.99 944.39,-129.12 955.3,-138.94"/>
<polygon fill="fuchsia" stroke="fuchsia" stroke-width="2" points="953.05,-141.63 962.79,-145.81 957.79,-136.47 953.05,-141.63"/>
</g>
<!-- node12&#45;&gt;node13 -->
<g id="edge29" class="edge">
<title>node12&#45;&gt;node13</title>
<path fill="none" stroke="black" d="M813.07,-74.31C779.9,-67.92 741.12,-60.53 706,-54 677.41,-48.68 646.42,-43.04 617.78,-37.87"/>
<polygon fill="black" stroke="black" points="618.21,-34.39 607.75,-36.06 616.97,-41.28 618.21,-34.39"/>
<text text-anchor="middle" x="627.09" y="-27.26" font-family="Times,serif" font-size="14.00">*2</text>
</g>
<!-- node13&#45;&gt;node0 -->
<g id="edge26" class="edge">
<title>node13&#45;&gt;node0</title>
<path fill="none" stroke="fuchsia" stroke-width="2" d="M377.19,-33.84C316.4,-44.42 258,-61.9 258,-90 258,-311 258,-311 258,-311 258,-349.8 361.28,-367.69 441.71,-375.74"/>
<polygon fill="fuchsia" stroke="fuchsia" stroke-width="2" points="441.6,-379.24 451.89,-376.72 442.27,-372.28 441.6,-379.24"/>
</g>
<!-- node13&#45;&gt;node14 -->
<g id="edge34" class="edge">
<title>node13&#45;&gt;node14</title>
<path fill="none" stroke="green" d="M646.65,-31.03C756.78,-41.12 916.88,-56.34 1066.66,-72.87"/>
<polygon fill="green" stroke="green" points="1066.64,-76.39 1076.96,-74.01 1067.41,-69.43 1066.64,-76.39"/>
</g>
<!-- node14&#45;&gt;node0 -->
<g id="edge31" class="edge">
<title>node14&#45;&gt;node0</title>
<path fill="none" stroke="fuchsia" stroke-width="2" d="M1327.23,-109.03C1411.6,-121.27 1511.47,-137.12 1530,-146 1540.22,-150.9 1549,-151.67 1549,-163 1549,-311 1549,-311 1549,-311 1549,-360.47 742.03,-358.87 628.62,-364.96"/>
<polygon fill="fuchsia" stroke="fuchsia" stroke-width="2" points="628.03,-361.49 618.33,-365.74 628.56,-368.47 628.03,-361.49"/>
</g>
<!-- node14&#45;&gt;node15 -->
<g id="edge37" class="edge">
<title>node14&#45;&gt;node15</title>
<path fill="none" stroke="green" d="M1284.48,-72.99C1334.18,-62.49 1398.06,-48.99 1449.52,-38.12"/>
<polygon fill="green" stroke="green" points="1450.24,-41.54 1459.3,-36.05 1448.8,-34.7 1450.24,-41.54"/>
</g>
<!-- node16 -->
<g id="node17" class="node">
<title>node16</title>
<polygon fill="orange" stroke="black" points="1384.19,-10.54 1384.19,-25.46 1278.64,-36 1129.36,-36 1023.81,-25.46 1023.81,-10.54 1129.36,0 1278.64,0 1384.19,-10.54"/>
<text text-anchor="middle" x="1204" y="-14.3" font-family="Times,serif" font-size="14.00">#16 Extend : SIGN int Order : 12</text>
</g>
<!-- node14&#45;&gt;node16 -->
<g id="edge39" class="edge">
<title>node14&#45;&gt;node16</title>
<path fill="none" stroke="black" d="M1198.12,-72.81C1197.28,-64.79 1197.05,-55.05 1197.42,-46.07"/>
<polygon fill="black" stroke="black" points="1200.92,-46.25 1198.14,-36.03 1193.94,-45.75 1200.92,-46.25"/>
<text text-anchor="middle" x="1205.28" y="-51.01" font-family="Times,serif" font-size="14.00">*0</text>
</g>
<!-- node15&#45;&gt;node0 -->
<g id="edge35" class="edge">
<title>node15&#45;&gt;node0</title>
<path fill="none" stroke="fuchsia" stroke-width="2" d="M1559.66,-36.21C1572.54,-49.46 1587,-69.01 1587,-90 1587,-311 1587,-311 1587,-311 1587,-369.55 1384.46,-343.72 1326,-347 1017.74,-364.31 936.06,-332.31 628.42,-364.58"/>
<polygon fill="fuchsia" stroke="fuchsia" stroke-width="2" points="627.89,-361.12 618.32,-365.66 628.63,-368.08 627.89,-361.12"/>
</g>
<!-- node16&#45;&gt;node14 -->
<g id="edge38" class="edge">
<title>node16&#45;&gt;node14</title>
<path fill="none" stroke="fuchsia" stroke-width="2" d="M1209.86,-36.03C1210.71,-44.03 1210.95,-53.77 1210.59,-62.75"/>
<polygon fill="fuchsia" stroke="fuchsia" stroke-width="2" points="1207.09,-62.59 1209.88,-72.81 1214.07,-63.08 1207.09,-62.59"/>
</g>
<!-- c0 -->
<!-- c1 -->
<!-- c0&#45;&gt;c1 -->
<g id="edge40" class="edge">
<title>c0&#45;&gt;c1</title>
<path fill="none" stroke="red" d="M1486.89,-383C1498.11,-383 1556.24,-383 1581.86,-383"/>
<polygon fill="red" stroke="red" points="1582.06,-386.5 1592.06,-383 1582.06,-379.5 1582.06,-386.5"/>
<text text-anchor="middle" x="1539.5" y="-389.8" font-family="Times,serif" font-size="14.00">Control flow</text>
</g>
<!-- c2 -->
<!-- c3 -->
<!-- c2&#45;&gt;c3 -->
<g id="edge41" class="edge">
<title>c2&#45;&gt;c3</title>
<path fill="none" stroke="red" stroke-dasharray="5,2" d="M1280.08,-383C1297.05,-383 1413.21,-383 1451.08,-383"/>
<polygon fill="red" stroke="red" points="1451.17,-386.5 1461.17,-383 1451.17,-379.5 1451.17,-386.5"/>
<text text-anchor="middle" x="1370.5" y="-389.8" font-family="Times,serif" font-size="14.00">Control flow back edge</text>
</g>
<!-- d0 -->
<!-- d1 -->
<!-- d0&#45;&gt;d1 -->
<g id="edge42" class="edge">
<title>d0&#45;&gt;d1</title>
<path fill="none" stroke="black" d="M1168.86,-383C1178.41,-383 1222.31,-383 1243.92,-383"/>
<polygon fill="black" stroke="black" points="1244.15,-386.5 1254.15,-383 1244.15,-379.5 1244.15,-386.5"/>
<text text-anchor="middle" x="1211.5" y="-389.8" font-family="Times,serif" font-size="14.00">Data flow</text>
</g>
<!-- d2 -->
<!-- d3 -->
<!-- d2&#45;&gt;d3 -->
<g id="edge43" class="edge">
<title>d2&#45;&gt;d3</title>
<path fill="none" stroke="black" stroke-dasharray="1,5" d="M1042.81,-383C1053.46,-383 1108.46,-383 1133.08,-383"/>
<polygon fill="black" stroke="black" points="1133.15,-386.5 1143.15,-383 1133.15,-379.5 1133.15,-386.5"/>
<text text-anchor="middle" x="1093" y="-389.8" font-family="Times,serif" font-size="14.00">Declaration</text>
</g>
<!-- d4 -->
<!-- d5 -->
<!-- d4&#45;&gt;d5 -->
<g id="edge44" class="edge">
<title>d4&#45;&gt;d5</title>
<path fill="none" stroke="blue" d="M900.1,-383C912.72,-383 978.88,-383 1006.68,-383"/>
<polygon fill="blue" stroke="blue" points="1006.84,-386.5 1016.84,-383 1006.84,-379.5 1006.84,-386.5"/>
<text text-anchor="middle" x="958.5" y="-389.8" font-family="Times,serif" font-size="14.00">PHI Data flow</text>
</g>
<!-- d6 -->
<!-- d7 -->
<!-- d6&#45;&gt;d7 -->
<g id="edge45" class="edge">
<title>d6&#45;&gt;d7</title>
<path fill="none" stroke="green" d="M763,-383C774.94,-383 837.3,-383 863.93,-383"/>
<polygon fill="green" stroke="green" points="863.95,-386.5 873.95,-383 863.95,-379.5 863.95,-386.5"/>
<text text-anchor="middle" x="818.5" y="-389.8" font-family="Times,serif" font-size="14.00">Memory flow</text>
</g>
<!-- d8 -->
<!-- d9 -->
<!-- d8&#45;&gt;d9 -->
<g id="edge46" class="edge">
<title>d8&#45;&gt;d9</title>
<path fill="none" stroke="fuchsia" d="M640.11,-383C651.15,-383 702.67,-383 726.66,-383"/>
<polygon fill="fuchsia" stroke="fuchsia" points="726.9,-386.5 736.9,-383 726.9,-379.5 726.9,-386.5"/>
<text text-anchor="middle" x="688.5" y="-389.8" font-family="Times,serif" font-size="14.00">Dominance</text>
</g>
</g>
</svg>
