<?xml version="1.0" encoding="UTF-8" standalone="no"?>
<!DOCTYPE svg PUBLIC "-//W3C//DTD SVG 1.1//EN"
 "http://www.w3.org/Graphics/SVG/1.1/DTD/svg11.dtd">
<!-- Generated by graphviz version 2.43.0 (0)
 -->
<!-- Title: debugoutput Pages: 1 -->
<svg width="1262pt" height="797pt"
 viewBox="0.00 0.00 1262.00 796.80" xmlns="http://www.w3.org/2000/svg" xmlns:xlink="http://www.w3.org/1999/xlink">
<g id="graph0" class="graph" transform="scale(1 1) rotate(0) translate(4 792.8)">
<title>debugoutput</title>
<polygon fill="white" stroke="transparent" points="-4,4 -4,-792.8 1258,-792.8 1258,4 -4,4"/>
<g id="clust1" class="cluster">
<title>cluster_000</title>
<polygon fill="none" stroke="black" points="407,-738.2 407,-780.8 1246,-780.8 1246,-738.2 407,-738.2"/>
<text text-anchor="middle" x="826.5" y="-765.6" font-family="Times,serif" font-size="14.00">Legend</text>
</g>
<!-- node0 -->
<g id="node1" class="node">
<title>node0</title>
<polygon fill="lightgrey" stroke="black" points="397,-766 231,-766 231,-730 397,-730 397,-766"/>
<text text-anchor="middle" x="314" y="-744.3" font-family="Times,serif" font-size="14.00">#0 Method Order : 0</text>
</g>
<!-- node1 -->
<g id="node2" class="node">
<title>node1</title>
<polygon fill="lightgrey" stroke="black" points="230,-693 0,-693 0,-657 230,-657 230,-693"/>
<text text-anchor="middle" x="115" y="-671.3" font-family="Times,serif" font-size="14.00">#1 this : ArrayTest Order : 16</text>
</g>
<!-- node0&#45;&gt;node1 -->
<g id="edge2" class="edge">
<title>node0&#45;&gt;node1</title>
<path fill="none" stroke="black" d="M260.48,-729.99C231.31,-719.97 195.45,-707.21 166.59,-696.62"/>
<polygon fill="black" stroke="black" points="167.69,-693.29 157.1,-693.11 165.27,-699.86 167.69,-693.29"/>
<text text-anchor="middle" x="177.03" y="-687.76" font-family="Times,serif" font-size="14.00">*0</text>
</g>
<!-- node2 -->
<g id="node3" class="node">
<title>node2</title>
<polygon fill="lightgrey" stroke="black" points="506,-693 318,-693 318,-657 506,-657 506,-693"/>
<text text-anchor="middle" x="412" y="-671.3" font-family="Times,serif" font-size="14.00">#2 LabelNode Order : 1</text>
</g>
<!-- node0&#45;&gt;node2 -->
<g id="edge4" class="edge">
<title>node0&#45;&gt;node2</title>
<path fill="none" stroke="red" d="M331.84,-729.81C343.75,-720.48 359.68,-708.83 374.25,-698.75"/>
<polygon fill="red" stroke="red" points="376.35,-701.56 382.63,-693.03 372.4,-695.78 376.35,-701.56"/>
</g>
<!-- node5 -->
<g id="node6" class="node">
<title>node5</title>
<polygon fill="orange" stroke="black" points="439.21,-521.54 439.21,-536.46 338.33,-547 195.67,-547 94.79,-536.46 94.79,-521.54 195.67,-511 338.33,-511 439.21,-521.54"/>
<text text-anchor="middle" x="267" y="-525.3" font-family="Times,serif" font-size="14.00">#5 NewArray : short[] Order : 3</text>
</g>
<!-- node0&#45;&gt;node5 -->
<g id="edge11" class="edge">
<title>node0&#45;&gt;node5</title>
<path fill="none" stroke="black" d="M306.47,-729.97C294.77,-692.51 275.04,-602.68 268.25,-557.26"/>
<polygon fill="black" stroke="black" points="271.7,-556.68 266.87,-547.25 264.76,-557.63 271.7,-556.68"/>
</g>
<!-- node1&#45;&gt;node0 -->
<g id="edge1" class="edge">
<title>node1&#45;&gt;node0</title>
<path fill="none" stroke="green" stroke-width="2" d="M168.84,-693.11C198.05,-703.16 233.91,-715.92 262.71,-726.5"/>
<polygon fill="green" stroke="green" stroke-width="2" points="261.6,-729.82 272.19,-729.99 264.02,-723.25 261.6,-729.82"/>
</g>
<!-- node2&#45;&gt;node0 -->
<g id="edge3" class="edge">
<title>node2&#45;&gt;node0</title>
<path fill="none" stroke="green" stroke-width="2" d="M394.25,-693.11C382.33,-702.46 366.35,-714.15 351.74,-724.26"/>
<polygon fill="green" stroke="green" stroke-width="2" points="349.62,-721.47 343.33,-729.99 353.57,-727.25 349.62,-721.47"/>
</g>
<!-- node3 -->
<g id="node4" class="node">
<title>node3</title>
<polygon fill="lightgrey" stroke="black" points="726,-620 538,-620 538,-584 726,-584 726,-620"/>
<text text-anchor="middle" x="632" y="-598.3" font-family="Times,serif" font-size="14.00">#3 LabelNode Order : 5</text>
</g>
<!-- node2&#45;&gt;node3 -->
<g id="edge6" class="edge">
<title>node2&#45;&gt;node3</title>
<path fill="none" stroke="red" d="M458.84,-656.99C489.23,-646.84 529.28,-633.88 563.24,-623.2"/>
<polygon fill="red" stroke="red" points="564.61,-626.44 573.1,-620.11 562.51,-619.76 564.61,-626.44"/>
</g>
<!-- node4 -->
<g id="node5" class="node">
<title>node4</title>
<polygon fill="lightgreen" stroke="black" points="519.77,-594.54 519.77,-609.46 456.64,-620 367.36,-620 304.23,-609.46 304.23,-594.54 367.36,-584 456.64,-584 519.77,-594.54"/>
<text text-anchor="middle" x="412" y="-598.3" font-family="Times,serif" font-size="14.00">#4 int 10 Order : 2</text>
</g>
<!-- node2&#45;&gt;node4 -->
<g id="edge8" class="edge">
<title>node2&#45;&gt;node4</title>
<path fill="none" stroke="black" stroke-dasharray="1,5" d="M406.12,-656.81C405.28,-648.79 405.05,-639.05 405.42,-630.07"/>
<polygon fill="black" stroke="black" points="408.92,-630.25 406.14,-620.03 401.94,-629.75 408.92,-630.25"/>
</g>
<!-- node3&#45;&gt;node2 -->
<g id="edge5" class="edge">
<title>node3&#45;&gt;node2</title>
<path fill="none" stroke="green" stroke-width="2" d="M584.84,-620.11C554.38,-630.29 514.32,-643.25 480.4,-653.91"/>
<polygon fill="green" stroke="green" stroke-width="2" points="479.05,-650.66 470.55,-656.99 481.14,-657.34 479.05,-650.66"/>
</g>
<!-- node6 -->
<g id="node7" class="node">
<title>node6</title>
<polygon fill="lightgreen" stroke="black" points="697.11,-521.54 697.11,-536.46 637.88,-547 554.12,-547 494.89,-536.46 494.89,-521.54 554.12,-511 637.88,-511 697.11,-521.54"/>
<text text-anchor="middle" x="596" y="-525.3" font-family="Times,serif" font-size="14.00">#6 int 0 Order : 8</text>
</g>
<!-- node3&#45;&gt;node6 -->
<g id="edge13" class="edge">
<title>node3&#45;&gt;node6</title>
<path fill="none" stroke="black" stroke-dasharray="1,5" d="M617.41,-583.81C612.39,-575.62 607.1,-565.62 602.88,-556.48"/>
<polygon fill="black" stroke="black" points="605.96,-554.81 598.77,-547.03 599.54,-557.6 605.96,-554.81"/>
</g>
<!-- node7 -->
<g id="node8" class="node">
<title>node7</title>
<polygon fill="lightgreen" stroke="black" points="930.77,-521.54 930.77,-536.46 867.64,-547 778.36,-547 715.23,-536.46 715.23,-521.54 778.36,-511 867.64,-511 930.77,-521.54"/>
<text text-anchor="middle" x="823" y="-525.3" font-family="Times,serif" font-size="14.00">#7 int 10 Order : 6</text>
</g>
<!-- node3&#45;&gt;node7 -->
<g id="edge15" class="edge">
<title>node3&#45;&gt;node7</title>
<path fill="none" stroke="black" stroke-dasharray="1,5" d="M671.89,-583.99C698.58,-573.67 734.07,-560.44 763.99,-549.66"/>
<polygon fill="black" stroke="black" points="765.26,-552.93 773.49,-546.26 762.89,-546.34 765.26,-552.93"/>
</g>
<!-- node10 -->
<g id="node11" class="node">
<title>node10</title>
<polygon fill="lightgrey" stroke="black" points="654,-401 394,-401 394,-365 654,-365 654,-401"/>
<text text-anchor="middle" x="524" y="-379.3" font-family="Times,serif" font-size="14.00">#10 ArrayStore : short[] Order : 9</text>
</g>
<!-- node3&#45;&gt;node10 -->
<g id="edge25" class="edge">
<title>node3&#45;&gt;node10</title>
<path fill="none" stroke="red" d="M537.76,-584.83C517.48,-576.82 498.43,-564.85 486,-547 456.81,-505.08 485.63,-443.87 506.55,-409.63"/>
<polygon fill="red" stroke="red" points="509.54,-411.45 511.92,-401.13 503.62,-407.71 509.54,-411.45"/>
</g>
<!-- node4&#45;&gt;node2 -->
<g id="edge7" class="edge">
<title>node4&#45;&gt;node2</title>
<path fill="none" stroke="green" stroke-width="2" d="M417.86,-620.03C418.71,-628.03 418.95,-637.77 418.59,-646.75"/>
<polygon fill="green" stroke="green" stroke-width="2" points="415.09,-646.59 417.88,-656.81 422.07,-647.08 415.09,-646.59"/>
</g>
<!-- node4&#45;&gt;node5 -->
<g id="edge10" class="edge">
<title>node4&#45;&gt;node5</title>
<path fill="none" stroke="black" d="M377.27,-583.99C357.42,-574.27 332.32,-561.99 311.09,-551.59"/>
<polygon fill="black" stroke="black" points="312.47,-548.37 301.95,-547.11 309.39,-554.65 312.47,-548.37"/>
<text text-anchor="middle" x="321.95" y="-543.79" font-family="Times,serif" font-size="14.00">*0</text>
</g>
<!-- node5&#45;&gt;node0 -->
<g id="edge9" class="edge">
<title>node5&#45;&gt;node0</title>
<path fill="none" stroke="green" stroke-width="2" d="M274.6,-547.25C286.33,-584.92 306.05,-674.77 312.79,-720"/>
<polygon fill="green" stroke="green" stroke-width="2" points="309.33,-720.54 314.16,-729.97 316.27,-719.59 309.33,-720.54"/>
</g>
<!-- node8 -->
<g id="node9" class="node">
<title>node8</title>
<polygon fill="orange" stroke="black" points="408.3,-448.54 408.3,-463.46 325.53,-474 208.47,-474 125.7,-463.46 125.7,-448.54 208.47,-438 325.53,-438 408.3,-448.54"/>
<text text-anchor="middle" x="267" y="-452.3" font-family="Times,serif" font-size="14.00">#8 ArrayLength Order : 4</text>
</g>
<!-- node5&#45;&gt;node8 -->
<g id="edge17" class="edge">
<title>node5&#45;&gt;node8</title>
<path fill="none" stroke="black" d="M261.12,-510.81C260.28,-502.79 260.05,-493.05 260.42,-484.07"/>
<polygon fill="black" stroke="black" points="263.92,-484.25 261.14,-474.03 256.94,-483.75 263.92,-484.25"/>
<text text-anchor="middle" x="268.28" y="-489.01" font-family="Times,serif" font-size="14.00">*0</text>
</g>
<!-- node5&#45;&gt;node10 -->
<g id="edge21" class="edge">
<title>node5&#45;&gt;node10</title>
<path fill="none" stroke="black" d="M322.86,-510.96C349.66,-502.14 381.52,-489.86 408,-474 439.32,-455.24 440.89,-442.29 469,-419 473.77,-415.05 478.91,-410.97 484.09,-407.06"/>
<polygon fill="black" stroke="black" points="486.24,-409.82 492.22,-401.08 482.09,-404.18 486.24,-409.82"/>
<text text-anchor="middle" x="482.62" y="-414.92" font-family="Times,serif" font-size="14.00">*0</text>
</g>
<!-- node5&#45;&gt;node10 -->
<g id="edge24" class="edge">
<title>node5&#45;&gt;node10</title>
<path fill="none" stroke="black" d="M339.37,-510.96C367.66,-502.14 399.52,-489.86 426,-474 457.32,-455.24 458.89,-442.29 487,-419 491.65,-415.14 496.66,-411.17 501.48,-407.34"/>
<polygon fill="black" stroke="black" points="503.7,-410.05 509.33,-401.08 499.33,-404.58 503.7,-410.05"/>
</g>
<!-- node12 -->
<g id="node13" class="node">
<title>node12</title>
<polygon fill="lightgrey" stroke="black" points="699,-255 445,-255 445,-219 699,-219 699,-255"/>
<text text-anchor="middle" x="572" y="-233.3" font-family="Times,serif" font-size="14.00">#12 ArrayLoad : short Order : 11</text>
</g>
<!-- node5&#45;&gt;node12 -->
<g id="edge29" class="edge">
<title>node5&#45;&gt;node12</title>
<path fill="none" stroke="black" d="M151.94,-515.42C122.01,-505.36 98,-487.71 98,-457 98,-457 98,-457 98,-309 98,-274.67 295,-255.09 435,-245.52"/>
<polygon fill="black" stroke="black" points="435.23,-249.01 444.98,-244.85 434.76,-242.03 435.23,-249.01"/>
<text text-anchor="middle" x="427.46" y="-250.8" font-family="Times,serif" font-size="14.00">*0</text>
</g>
<!-- node6&#45;&gt;node3 -->
<g id="edge12" class="edge">
<title>node6&#45;&gt;node3</title>
<path fill="none" stroke="green" stroke-width="2" d="M610.5,-547.03C615.56,-555.29 620.92,-565.4 625.18,-574.63"/>
<polygon fill="green" stroke="green" stroke-width="2" points="621.97,-576.03 629.16,-583.81 628.39,-573.25 621.97,-576.03"/>
</g>
<!-- node6&#45;&gt;node10 -->
<g id="edge22" class="edge">
<title>node6&#45;&gt;node10</title>
<path fill="none" stroke="black" d="M587.46,-510.92C575.01,-486.02 551.77,-439.54 537.14,-410.27"/>
<polygon fill="black" stroke="black" points="540.13,-408.44 532.53,-401.06 533.87,-411.57 540.13,-408.44"/>
<text text-anchor="middle" x="548.2" y="-409.79" font-family="Times,serif" font-size="14.00">*1</text>
</g>
<!-- node7&#45;&gt;node3 -->
<g id="edge14" class="edge">
<title>node7&#45;&gt;node3</title>
<path fill="none" stroke="green" stroke-width="2" d="M782.83,-547.11C756.87,-557.16 722.65,-569.92 693.34,-580.5"/>
<polygon fill="green" stroke="green" stroke-width="2" points="691.84,-577.32 683.61,-583.99 694.2,-583.91 691.84,-577.32"/>
</g>
<!-- node9 -->
<g id="node10" class="node">
<title>node9</title>
<polygon fill="orange" stroke="black" points="930.98,-448.54 930.98,-463.46 837.85,-474 706.15,-474 613.02,-463.46 613.02,-448.54 706.15,-438 837.85,-438 930.98,-448.54"/>
<text text-anchor="middle" x="772" y="-452.3" font-family="Times,serif" font-size="14.00">#9 Truncate : short Order : 7</text>
</g>
<!-- node7&#45;&gt;node9 -->
<g id="edge19" class="edge">
<title>node7&#45;&gt;node9</title>
<path fill="none" stroke="black" d="M804.78,-510.81C797.81,-502.35 790.15,-491.98 783.89,-482.61"/>
<polygon fill="black" stroke="black" points="786.72,-480.55 778.37,-474.03 780.83,-484.33 786.72,-480.55"/>
<text text-anchor="middle" x="795.28" y="-481.01" font-family="Times,serif" font-size="14.00">*0</text>
</g>
<!-- node8&#45;&gt;node5 -->
<g id="edge16" class="edge">
<title>node8&#45;&gt;node5</title>
<path fill="none" stroke="green" stroke-width="2" d="M272.86,-474.03C273.71,-482.03 273.95,-491.77 273.59,-500.75"/>
<polygon fill="green" stroke="green" stroke-width="2" points="270.09,-500.59 272.88,-510.81 277.07,-501.08 270.09,-500.59"/>
</g>
<!-- node9&#45;&gt;node7 -->
<g id="edge18" class="edge">
<title>node9&#45;&gt;node7</title>
<path fill="none" stroke="green" stroke-width="2" d="M790.09,-474.03C797.05,-482.46 804.71,-492.83 811,-502.21"/>
<polygon fill="green" stroke="green" stroke-width="2" points="808.18,-504.3 816.53,-510.81 814.06,-500.51 808.18,-504.3"/>
</g>
<!-- node9&#45;&gt;node10 -->
<g id="edge23" class="edge">
<title>node9&#45;&gt;node10</title>
<path fill="none" stroke="black" d="M712.6,-437.99C676.82,-427.75 631.08,-414.66 593.61,-403.93"/>
<polygon fill="black" stroke="black" points="594.35,-400.5 583.78,-401.11 592.43,-407.23 594.35,-400.5"/>
<text text-anchor="middle" x="603.53" y="-394.28" font-family="Times,serif" font-size="14.00">*2</text>
</g>
<!-- node10&#45;&gt;node0 -->
<g id="edge20" class="edge">
<title>node10&#45;&gt;node0</title>
<path fill="none" stroke="green" stroke-width="2" d="M654.22,-392.93C782.38,-403.53 959,-423.79 959,-455 959,-676 959,-676 959,-676 959,-735.58 503.25,-722.39 407.4,-729.8"/>
<polygon fill="green" stroke="green" stroke-width="2" points="406.93,-726.33 397.34,-730.84 407.65,-733.29 406.93,-726.33"/>
</g>
<!-- node11 -->
<g id="node12" class="node">
<title>node11</title>
<polygon fill="lightgreen" stroke="black" points="534.93,-302.54 534.93,-317.46 468.19,-328 373.81,-328 307.07,-317.46 307.07,-302.54 373.81,-292 468.19,-292 534.93,-302.54"/>
<text text-anchor="middle" x="421" y="-306.3" font-family="Times,serif" font-size="14.00">#11 int 1 Order : 10</text>
</g>
<!-- node10&#45;&gt;node11 -->
<g id="edge27" class="edge">
<title>node10&#45;&gt;node11</title>
<path fill="none" stroke="black" stroke-dasharray="1,5" d="M493.47,-364.99C479.08,-355.75 462.14,-344.19 448.2,-334.14"/>
<polygon fill="black" stroke="black" points="450.09,-331.19 439.96,-328.11 445.96,-336.84 450.09,-331.19"/>
</g>
<!-- node10&#45;&gt;node12 -->
<g id="edge31" class="edge">
<title>node10&#45;&gt;node12</title>
<path fill="none" stroke="black" d="M522.9,-364.57C525.72,-354.04 530.81,-340.3 535,-328 542.25,-306.7 549.79,-282.31 556.62,-264.3"/>
<polygon fill="black" stroke="black" points="559.87,-265.59 560.33,-255.01 553.37,-263 559.87,-265.59"/>
</g>
<!-- node10&#45;&gt;node12 -->
<g id="edge32" class="edge">
<title>node10&#45;&gt;node12</title>
<path fill="none" stroke="red" d="M538.54,-364.57C543.72,-354.04 548.81,-340.3 553,-328 560.15,-306.99 567.59,-282.98 571.66,-265.05"/>
<polygon fill="red" stroke="red" points="575.13,-265.5 573.68,-255.01 568.27,-264.12 575.13,-265.5"/>
</g>
<!-- node11&#45;&gt;node10 -->
<g id="edge26" class="edge">
<title>node11&#45;&gt;node10</title>
<path fill="none" stroke="green" stroke-width="2" d="M451.57,-328.03C465.91,-337.25 482.8,-348.77 496.71,-358.8"/>
<polygon fill="green" stroke="green" stroke-width="2" points="494.81,-361.74 504.94,-364.81 498.94,-356.09 494.81,-361.74"/>
</g>
<!-- node11&#45;&gt;node12 -->
<g id="edge30" class="edge">
<title>node11&#45;&gt;node12</title>
<path fill="none" stroke="black" d="M457.17,-291.99C477.93,-282.23 504.21,-269.88 526.38,-259.45"/>
<polygon fill="black" stroke="black" points="528.04,-262.54 535.6,-255.11 525.06,-256.2 528.04,-262.54"/>
<text text-anchor="middle" x="522.8" y="-266.78" font-family="Times,serif" font-size="14.00">*1</text>
</g>
<!-- node12&#45;&gt;node0 -->
<g id="edge28" class="edge">
<title>node12&#45;&gt;node0</title>
<path fill="none" stroke="green" stroke-width="2" d="M699.23,-247.21C824.44,-258.04 997,-278.49 997,-309 997,-676 997,-676 997,-676 997,-731.68 932.25,-705.11 877,-712 671.07,-737.7 614.23,-707.14 407.29,-729.58"/>
<polygon fill="green" stroke="green" stroke-width="2" points="406.87,-726.11 397.32,-730.69 407.65,-733.06 406.87,-726.11"/>
</g>
<!-- node13 -->
<g id="node14" class="node">
<title>node13</title>
<polygon fill="orange" stroke="black" points="451.19,-156.54 451.19,-171.46 345.64,-182 196.36,-182 90.81,-171.46 90.81,-156.54 196.36,-146 345.64,-146 451.19,-156.54"/>
<text text-anchor="middle" x="271" y="-160.3" font-family="Times,serif" font-size="14.00">#13 Extend : SIGN int Order : 15</text>
</g>
<!-- node12&#45;&gt;node13 -->
<g id="edge34" class="edge">
<title>node12&#45;&gt;node13</title>
<path fill="none" stroke="black" d="M494.04,-218.99C448.88,-208.6 392.3,-195.27 347.4,-184.46"/>
<polygon fill="black" stroke="black" points="347.97,-181 337.43,-182.05 346.33,-187.8 347.97,-181"/>
<text text-anchor="middle" x="357.03" y="-174.39" font-family="Times,serif" font-size="14.00">*0</text>
</g>
<!-- node14 -->
<g id="node15" class="node">
<title>node14</title>
<polygon fill="lightgrey" stroke="black" points="675,-182 469,-182 469,-146 675,-146 675,-182"/>
<text text-anchor="middle" x="572" y="-160.3" font-family="Times,serif" font-size="14.00">#14 LabelNode Order : 12</text>
</g>
<!-- node12&#45;&gt;node14 -->
<g id="edge36" class="edge">
<title>node12&#45;&gt;node14</title>
<path fill="none" stroke="red" d="M566.12,-218.81C565.28,-210.79 565.05,-201.05 565.42,-192.07"/>
<polygon fill="red" stroke="red" points="568.92,-192.25 566.14,-182.03 561.94,-191.75 568.92,-192.25"/>
</g>
<!-- node16 -->
<g id="node17" class="node">
<title>node16</title>
<polygon fill="lightgrey" stroke="black" points="801.5,-36 622.5,-36 622.5,0 801.5,0 801.5,-36"/>
<text text-anchor="middle" x="712" y="-14.3" font-family="Times,serif" font-size="14.00">#16 Return Order : 14</text>
</g>
<!-- node12&#45;&gt;node16 -->
<g id="edge41" class="edge">
<title>node12&#45;&gt;node16</title>
<path fill="none" stroke="black" d="M624.28,-218.99C642.87,-210.77 662.27,-198.89 675,-182 704.94,-142.27 707.18,-81.66 708.29,-46.63"/>
<polygon fill="black" stroke="black" points="711.8,-46.33 708.64,-36.21 704.81,-46.09 711.8,-46.33"/>
</g>
<!-- node13&#45;&gt;node12 -->
<g id="edge33" class="edge">
<title>node13&#45;&gt;node12</title>
<path fill="none" stroke="green" stroke-width="2" d="M348.09,-181.81C393.53,-192.26 450.75,-205.74 496,-216.64"/>
<polygon fill="green" stroke="green" stroke-width="2" points="495.22,-220.05 505.76,-218.99 496.86,-213.24 495.22,-220.05"/>
</g>
<!-- node14&#45;&gt;node12 -->
<g id="edge35" class="edge">
<title>node14&#45;&gt;node12</title>
<path fill="none" stroke="green" stroke-width="2" d="M577.86,-182.03C578.71,-190.03 578.95,-199.77 578.59,-208.75"/>
<polygon fill="green" stroke="green" stroke-width="2" points="575.09,-208.59 577.88,-218.81 582.07,-209.08 575.09,-208.59"/>
</g>
<!-- node15 -->
<g id="node16" class="node">
<title>node15</title>
<polygon fill="lightgrey" stroke="black" points="675,-109 469,-109 469,-73 675,-73 675,-109"/>
<text text-anchor="middle" x="572" y="-87.3" font-family="Times,serif" font-size="14.00">#15 LabelNode Order : 13</text>
</g>
<!-- node14&#45;&gt;node15 -->
<g id="edge38" class="edge">
<title>node14&#45;&gt;node15</title>
<path fill="none" stroke="red" d="M566.12,-145.81C565.28,-137.79 565.05,-128.05 565.42,-119.07"/>
<polygon fill="red" stroke="red" points="568.92,-119.25 566.14,-109.03 561.94,-118.75 568.92,-119.25"/>
</g>
<!-- node15&#45;&gt;node14 -->
<g id="edge37" class="edge">
<title>node15&#45;&gt;node14</title>
<path fill="none" stroke="green" stroke-width="2" d="M577.86,-109.03C578.71,-117.03 578.95,-126.77 578.59,-135.75"/>
<polygon fill="green" stroke="green" stroke-width="2" points="575.09,-135.59 577.88,-145.81 582.07,-136.08 575.09,-135.59"/>
</g>
<!-- node15&#45;&gt;node16 -->
<g id="edge40" class="edge">
<title>node15&#45;&gt;node16</title>
<path fill="none" stroke="red" d="M605.53,-72.99C624.61,-63.32 648.71,-51.1 669.15,-40.73"/>
<polygon fill="red" stroke="red" points="670.92,-43.76 678.25,-36.11 667.75,-37.52 670.92,-43.76"/>
</g>
<!-- node16&#45;&gt;node12 -->
<g id="edge39" class="edge">
<title>node16&#45;&gt;node12</title>
<path fill="none" stroke="green" stroke-width="2" d="M719.05,-36.21C725.34,-68.3 726.18,-137.97 693,-182 682.26,-196.25 666.77,-206.93 650.42,-214.86"/>
<polygon fill="green" stroke="green" stroke-width="2" points="648.95,-211.69 641.27,-218.99 651.83,-218.07 648.95,-211.69"/>
</g>
<!-- c0 -->
<!-- c1 -->
<!-- c0&#45;&gt;c1 -->
<g id="edge42" class="edge">
<title>c0&#45;&gt;c1</title>
<path fill="none" stroke="red" d="M1128.89,-748C1140.11,-748 1198.24,-748 1223.86,-748"/>
<polygon fill="red" stroke="red" points="1224.06,-751.5 1234.06,-748 1224.06,-744.5 1224.06,-751.5"/>
<text text-anchor="middle" x="1181.5" y="-754.8" font-family="Times,serif" font-size="14.00">Control flow</text>
</g>
<!-- c2 -->
<!-- c3 -->
<!-- c2&#45;&gt;c3 -->
<g id="edge43" class="edge">
<title>c2&#45;&gt;c3</title>
<path fill="none" stroke="red" stroke-dasharray="5,2" d="M922.08,-748C939.05,-748 1055.21,-748 1093.08,-748"/>
<polygon fill="red" stroke="red" points="1093.17,-751.5 1103.17,-748 1093.17,-744.5 1093.17,-751.5"/>
<text text-anchor="middle" x="1012.5" y="-754.8" font-family="Times,serif" font-size="14.00">Control flow back edge</text>
</g>
<!-- d0 -->
<!-- d1 -->
<!-- d0&#45;&gt;d1 -->
<g id="edge44" class="edge">
<title>d0&#45;&gt;d1</title>
<path fill="none" stroke="black" d="M810.86,-748C820.41,-748 864.31,-748 885.92,-748"/>
<polygon fill="black" stroke="black" points="886.15,-751.5 896.15,-748 886.15,-744.5 886.15,-751.5"/>
<text text-anchor="middle" x="853.5" y="-754.8" font-family="Times,serif" font-size="14.00">Data flow</text>
</g>
<!-- d2 -->
<!-- d3 -->
<!-- d2&#45;&gt;d3 -->
<g id="edge45" class="edge">
<title>d2&#45;&gt;d3</title>
<path fill="none" stroke="black" stroke-dasharray="1,5" d="M684.81,-748C695.46,-748 750.46,-748 775.08,-748"/>
<polygon fill="black" stroke="black" points="775.15,-751.5 785.15,-748 775.15,-744.5 775.15,-751.5"/>
<text text-anchor="middle" x="735" y="-754.8" font-family="Times,serif" font-size="14.00">Declaration</text>
</g>
<!-- d4 -->
<!-- d5 -->
<!-- d4&#45;&gt;d5 -->
<g id="edge46" class="edge">
<title>d4&#45;&gt;d5</title>
<path fill="none" stroke="blue" d="M542.1,-748C554.72,-748 620.88,-748 648.68,-748"/>
<polygon fill="blue" stroke="blue" points="648.84,-751.5 658.84,-748 648.84,-744.5 648.84,-751.5"/>
<text text-anchor="middle" x="600.5" y="-754.8" font-family="Times,serif" font-size="14.00">PHI Data flow</text>
</g>
<!-- d6 -->
<!-- d7 -->
<!-- d6&#45;&gt;d7 -->
<g id="edge47" class="edge">
<title>d6&#45;&gt;d7</title>
<path fill="none" stroke="green" d="M419.11,-748C430.15,-748 481.67,-748 505.66,-748"/>
<polygon fill="green" stroke="green" points="505.9,-751.5 515.9,-748 505.9,-744.5 505.9,-751.5"/>
<text text-anchor="middle" x="467.5" y="-754.8" font-family="Times,serif" font-size="14.00">Dominance</text>
</g>
</g>
</svg>
