<?xml version="1.0" encoding="UTF-8" standalone="no"?>
<!DOCTYPE svg PUBLIC "-//W3C//DTD SVG 1.1//EN"
 "http://www.w3.org/Graphics/SVG/1.1/DTD/svg11.dtd">
<!-- Generated by graphviz version 2.43.0 (0)
 -->
<!-- Title: debugoutput Pages: 1 -->
<svg width="1622pt" height="797pt"
 viewBox="0.00 0.00 1622.36 796.80" xmlns="http://www.w3.org/2000/svg" xmlns:xlink="http://www.w3.org/1999/xlink">
<g id="graph0" class="graph" transform="scale(1 1) rotate(0) translate(4 792.8)">
<title>debugoutput</title>
<polygon fill="white" stroke="transparent" points="-4,4 -4,-792.8 1618.36,-792.8 1618.36,4 -4,4"/>
<g id="clust1" class="cluster">
<title>cluster_000</title>
<polygon fill="none" stroke="black" points="630.36,-738.2 630.36,-780.8 1606.36,-780.8 1606.36,-738.2 630.36,-738.2"/>
<text text-anchor="middle" x="1118.36" y="-765.6" font-family="Times,serif" font-size="14.00">Legend</text>
</g>
<!-- node0 -->
<g id="node1" class="node">
<title>node0</title>
<polygon fill="lightgrey" stroke="black" points="620.36,-766 454.36,-766 454.36,-730 620.36,-730 620.36,-766"/>
<text text-anchor="middle" x="537.36" y="-744.3" font-family="Times,serif" font-size="14.00">#0 Method Order : 0</text>
</g>
<!-- node1 -->
<g id="node2" class="node">
<title>node1</title>
<polygon fill="lightgrey" stroke="black" points="369.36,-693 139.36,-693 139.36,-657 369.36,-657 369.36,-693"/>
<text text-anchor="middle" x="254.36" y="-671.3" font-family="Times,serif" font-size="14.00">#1 this : ArrayTest Order : 16</text>
</g>
<!-- node0&#45;&gt;node1 -->
<g id="edge2" class="edge">
<title>node0&#45;&gt;node1</title>
<path fill="none" stroke="black" d="M463.71,-729.99C421.44,-719.66 368.62,-706.43 326.59,-695.66"/>
<polygon fill="black" stroke="black" points="327.25,-692.21 316.7,-693.11 325.51,-698.99 327.25,-692.21"/>
<text text-anchor="middle" x="336.36" y="-685.74" font-family="Times,serif" font-size="14.00">*0</text>
</g>
<!-- node2 -->
<g id="node3" class="node">
<title>node2</title>
<polygon fill="lightgrey" stroke="black" points="631.36,-693 443.36,-693 443.36,-657 631.36,-657 631.36,-693"/>
<text text-anchor="middle" x="537.36" y="-671.3" font-family="Times,serif" font-size="14.00">#2 LabelNode Order : 1</text>
</g>
<!-- node0&#45;&gt;node2 -->
<g id="edge4" class="edge">
<title>node0&#45;&gt;node2</title>
<path fill="none" stroke="red" d="M531.48,-729.81C530.64,-721.79 530.4,-712.05 530.78,-703.07"/>
<polygon fill="red" stroke="red" points="534.27,-703.25 531.49,-693.03 527.29,-702.75 534.27,-703.25"/>
</g>
<!-- node5 -->
<g id="node6" class="node">
<title>node5</title>
<polygon fill="orange" stroke="black" points="344.57,-521.54 344.57,-536.46 243.69,-547 101.02,-547 0.14,-536.46 0.14,-521.54 101.02,-511 243.69,-511 344.57,-521.54"/>
<text text-anchor="middle" x="172.36" y="-525.3" font-family="Times,serif" font-size="14.00">#5 NewArray : short[] Order : 3</text>
</g>
<!-- node0&#45;&gt;node5 -->
<g id="edge11" class="edge">
<title>node0&#45;&gt;node5</title>
<path fill="none" stroke="green" d="M495.23,-729.99C473.84,-719.71 447.87,-706.1 425.36,-693 399.78,-678.12 396.74,-668.2 369.36,-657 294.56,-626.42 251.19,-674.31 191.36,-620 173.9,-604.15 167.22,-577.63 166.33,-557.47"/>
<polygon fill="green" stroke="green" points="169.83,-557.33 166.37,-547.32 162.83,-557.3 169.83,-557.33"/>
</g>
<!-- node1&#45;&gt;node0 -->
<g id="edge1" class="edge">
<title>node1&#45;&gt;node0</title>
<path fill="none" stroke="fuchsia" stroke-width="2" d="M328.19,-693.05C370.57,-703.41 423.5,-716.67 465.54,-727.45"/>
<polygon fill="fuchsia" stroke="fuchsia" stroke-width="2" points="464.87,-730.89 475.43,-729.99 466.62,-724.11 464.87,-730.89"/>
</g>
<!-- node2&#45;&gt;node0 -->
<g id="edge3" class="edge">
<title>node2&#45;&gt;node0</title>
<path fill="none" stroke="fuchsia" stroke-width="2" d="M543.22,-693.03C544.06,-701.03 544.31,-710.77 543.94,-719.75"/>
<polygon fill="fuchsia" stroke="fuchsia" stroke-width="2" points="540.44,-719.59 543.23,-729.81 547.43,-720.08 540.44,-719.59"/>
</g>
<!-- node3 -->
<g id="node4" class="node">
<title>node3</title>
<polygon fill="lightgrey" stroke="black" points="631.36,-620 443.36,-620 443.36,-584 631.36,-584 631.36,-620"/>
<text text-anchor="middle" x="537.36" y="-598.3" font-family="Times,serif" font-size="14.00">#3 LabelNode Order : 5</text>
</g>
<!-- node2&#45;&gt;node3 -->
<g id="edge6" class="edge">
<title>node2&#45;&gt;node3</title>
<path fill="none" stroke="red" d="M531.48,-656.81C530.64,-648.79 530.4,-639.05 530.78,-630.07"/>
<polygon fill="red" stroke="red" points="534.27,-630.25 531.49,-620.03 527.29,-629.75 534.27,-630.25"/>
</g>
<!-- node4 -->
<g id="node5" class="node">
<title>node4</title>
<polygon fill="lightgreen" stroke="black" points="425.12,-594.54 425.12,-609.46 361.99,-620 272.72,-620 209.59,-609.46 209.59,-594.54 272.72,-584 361.99,-584 425.12,-594.54"/>
<text text-anchor="middle" x="317.36" y="-598.3" font-family="Times,serif" font-size="14.00">#4 int 10 Order : 2</text>
</g>
<!-- node2&#45;&gt;node4 -->
<g id="edge8" class="edge">
<title>node2&#45;&gt;node4</title>
<path fill="none" stroke="black" stroke-dasharray="1,5" d="M478.8,-656.99C446.15,-646.81 405.76,-633.8 373.51,-623.11"/>
<polygon fill="black" stroke="black" points="374.37,-619.71 363.78,-619.87 372.16,-626.35 374.37,-619.71"/>
</g>
<!-- node3&#45;&gt;node2 -->
<g id="edge5" class="edge">
<title>node3&#45;&gt;node2</title>
<path fill="none" stroke="fuchsia" stroke-width="2" d="M543.22,-620.03C544.06,-628.03 544.31,-637.77 543.94,-646.75"/>
<polygon fill="fuchsia" stroke="fuchsia" stroke-width="2" points="540.44,-646.59 543.23,-656.81 547.43,-647.08 540.44,-646.59"/>
</g>
<!-- node6 -->
<g id="node7" class="node">
<title>node6</title>
<polygon fill="lightgreen" stroke="black" points="614.46,-521.54 614.46,-536.46 555.24,-547 471.48,-547 412.25,-536.46 412.25,-521.54 471.48,-511 555.24,-511 614.46,-521.54"/>
<text text-anchor="middle" x="513.36" y="-525.3" font-family="Times,serif" font-size="14.00">#6 int 0 Order : 8</text>
</g>
<!-- node3&#45;&gt;node6 -->
<g id="edge13" class="edge">
<title>node3&#45;&gt;node6</title>
<path fill="none" stroke="black" stroke-dasharray="1,5" d="M525.67,-583.81C522.08,-575.7 518.51,-565.84 515.84,-556.78"/>
<polygon fill="black" stroke="black" points="519.2,-555.79 513.25,-547.03 512.44,-557.59 519.2,-555.79"/>
</g>
<!-- node7 -->
<g id="node8" class="node">
<title>node7</title>
<polygon fill="lightgreen" stroke="black" points="848.12,-521.54 848.12,-536.46 784.99,-547 695.72,-547 632.59,-536.46 632.59,-521.54 695.72,-511 784.99,-511 848.12,-521.54"/>
<text text-anchor="middle" x="740.36" y="-525.3" font-family="Times,serif" font-size="14.00">#7 int 10 Order : 6</text>
</g>
<!-- node3&#45;&gt;node7 -->
<g id="edge15" class="edge">
<title>node3&#45;&gt;node7</title>
<path fill="none" stroke="black" stroke-dasharray="1,5" d="M580.12,-583.99C608.88,-573.55 647.15,-560.13 679.12,-549.29"/>
<polygon fill="black" stroke="black" points="680.46,-552.53 688.82,-546.02 678.22,-545.9 680.46,-552.53"/>
</g>
<!-- node10 -->
<g id="node11" class="node">
<title>node10</title>
<polygon fill="lightgrey" stroke="black" points="632.36,-401 372.36,-401 372.36,-365 632.36,-365 632.36,-401"/>
<text text-anchor="middle" x="502.36" y="-379.3" font-family="Times,serif" font-size="14.00">#10 ArrayStore : short[] Order : 9</text>
</g>
<!-- node3&#45;&gt;node10 -->
<g id="edge25" class="edge">
<title>node3&#45;&gt;node10</title>
<path fill="none" stroke="red" d="M452.44,-583.99C433.19,-576 415,-564.25 403.36,-547 370.68,-498.61 430,-439.54 470.08,-407.46"/>
<polygon fill="red" stroke="red" points="472.33,-410.15 478.05,-401.23 468.02,-404.63 472.33,-410.15"/>
</g>
<!-- node4&#45;&gt;node2 -->
<g id="edge7" class="edge">
<title>node4&#45;&gt;node2</title>
<path fill="none" stroke="fuchsia" stroke-width="2" d="M371.18,-618.53C404.46,-628.88 447.03,-642.57 480.8,-653.76"/>
<polygon fill="fuchsia" stroke="fuchsia" stroke-width="2" points="479.93,-657.16 490.52,-656.99 482.14,-650.52 479.93,-657.16"/>
</g>
<!-- node4&#45;&gt;node5 -->
<g id="edge10" class="edge">
<title>node4&#45;&gt;node5</title>
<path fill="none" stroke="black" d="M282.62,-583.99C262.77,-574.27 237.68,-561.99 216.45,-551.59"/>
<polygon fill="black" stroke="black" points="217.83,-548.37 207.31,-547.11 214.75,-554.65 217.83,-548.37"/>
<text text-anchor="middle" x="227.3" y="-543.79" font-family="Times,serif" font-size="14.00">*0</text>
</g>
<!-- node5&#45;&gt;node0 -->
<g id="edge9" class="edge">
<title>node5&#45;&gt;node0</title>
<path fill="none" stroke="fuchsia" stroke-width="2" d="M179.1,-547.32C183.17,-567.75 188.76,-601.3 209.36,-620 269.19,-674.31 312.56,-626.42 387.36,-657 414.74,-668.2 417.78,-678.12 443.36,-693 462.52,-704.16 484.21,-715.68 502.01,-725.21"/>
<polygon fill="fuchsia" stroke="fuchsia" stroke-width="2" points="500.46,-728.35 510.93,-729.99 503.77,-722.18 500.46,-728.35"/>
</g>
<!-- node8 -->
<g id="node9" class="node">
<title>node8</title>
<polygon fill="orange" stroke="black" points="313.66,-448.54 313.66,-463.46 230.89,-474 113.83,-474 31.05,-463.46 31.05,-448.54 113.83,-438 230.89,-438 313.66,-448.54"/>
<text text-anchor="middle" x="172.36" y="-452.3" font-family="Times,serif" font-size="14.00">#8 ArrayLength Order : 4</text>
</g>
<!-- node5&#45;&gt;node8 -->
<g id="edge17" class="edge">
<title>node5&#45;&gt;node8</title>
<path fill="none" stroke="black" d="M166.48,-510.81C165.64,-502.79 165.4,-493.05 165.78,-484.07"/>
<polygon fill="black" stroke="black" points="169.27,-484.25 166.49,-474.03 162.29,-483.75 169.27,-484.25"/>
<text text-anchor="middle" x="173.64" y="-489.01" font-family="Times,serif" font-size="14.00">*0</text>
</g>
<!-- node5&#45;&gt;node10 -->
<g id="edge21" class="edge">
<title>node5&#45;&gt;node10</title>
<path fill="none" stroke="black" d="M228.22,-510.96C255.01,-502.14 286.88,-489.86 313.36,-474 344.67,-455.24 342.49,-436.82 374.36,-419 384.56,-413.29 395.79,-408.43 407.24,-404.32"/>
<polygon fill="black" stroke="black" points="408.55,-407.57 416.88,-401.03 406.29,-400.94 408.55,-407.57"/>
<text text-anchor="middle" x="402.45" y="-411.17" font-family="Times,serif" font-size="14.00">*0</text>
</g>
<!-- node5&#45;&gt;node10 -->
<g id="edge24" class="edge">
<title>node5&#45;&gt;node10</title>
<path fill="none" stroke="green" d="M244.73,-510.96C273.01,-502.14 304.88,-489.86 331.36,-474 362.67,-455.24 360.49,-436.82 392.36,-419 402.56,-413.29 413.79,-408.43 425.06,-404.32"/>
<polygon fill="green" stroke="green" points="426.23,-407.62 434.52,-401.03 423.93,-401.01 426.23,-407.62"/>
</g>
<!-- node12 -->
<g id="node13" class="node">
<title>node12</title>
<polygon fill="lightgrey" stroke="black" points="723.36,-255 469.36,-255 469.36,-219 723.36,-219 723.36,-255"/>
<text text-anchor="middle" x="596.36" y="-233.3" font-family="Times,serif" font-size="14.00">#12 ArrayLoad : short Order : 11</text>
</g>
<!-- node5&#45;&gt;node12 -->
<g id="edge29" class="edge">
<title>node5&#45;&gt;node12</title>
<path fill="none" stroke="black" d="M57.29,-515.42C27.37,-505.36 3.36,-487.71 3.36,-457 3.36,-457 3.36,-457 3.36,-309 3.36,-263.36 283.9,-246.91 459.06,-241.09"/>
<polygon fill="black" stroke="black" points="459.26,-244.59 469.14,-240.77 459.03,-237.59 459.26,-244.59"/>
<text text-anchor="middle" x="451.3" y="-246.1" font-family="Times,serif" font-size="14.00">*0</text>
</g>
<!-- node6&#45;&gt;node3 -->
<g id="edge12" class="edge">
<title>node6&#45;&gt;node3</title>
<path fill="none" stroke="fuchsia" stroke-width="2" d="M524.97,-547.03C528.56,-555.12 532.13,-564.98 534.82,-574.05"/>
<polygon fill="fuchsia" stroke="fuchsia" stroke-width="2" points="531.46,-575.05 537.42,-583.81 538.23,-573.25 531.46,-575.05"/>
</g>
<!-- node6&#45;&gt;node10 -->
<g id="edge22" class="edge">
<title>node6&#45;&gt;node10</title>
<path fill="none" stroke="black" d="M512.05,-510.92C510.17,-486.23 506.66,-440.35 504.42,-411.04"/>
<polygon fill="black" stroke="black" points="507.91,-410.77 503.66,-401.06 500.93,-411.3 507.91,-410.77"/>
<text text-anchor="middle" x="513.47" y="-414.79" font-family="Times,serif" font-size="14.00">*1</text>
</g>
<!-- node7&#45;&gt;node3 -->
<g id="edge14" class="edge">
<title>node7&#45;&gt;node3</title>
<path fill="none" stroke="fuchsia" stroke-width="2" d="M697.3,-547.11C669.39,-557.25 632.63,-570.14 601.35,-580.77"/>
<polygon fill="fuchsia" stroke="fuchsia" stroke-width="2" points="600.19,-577.47 591.84,-583.99 602.43,-584.1 600.19,-577.47"/>
</g>
<!-- node9 -->
<g id="node10" class="node">
<title>node9</title>
<polygon fill="orange" stroke="black" points="848.33,-448.54 848.33,-463.46 755.21,-474 623.5,-474 530.38,-463.46 530.38,-448.54 623.5,-438 755.21,-438 848.33,-448.54"/>
<text text-anchor="middle" x="689.36" y="-452.3" font-family="Times,serif" font-size="14.00">#9 Truncate : short Order : 7</text>
</g>
<!-- node7&#45;&gt;node9 -->
<g id="edge19" class="edge">
<title>node7&#45;&gt;node9</title>
<path fill="none" stroke="black" d="M722.13,-510.81C715.17,-502.35 707.51,-491.98 701.24,-482.61"/>
<polygon fill="black" stroke="black" points="704.08,-480.55 695.73,-474.03 698.19,-484.33 704.08,-480.55"/>
<text text-anchor="middle" x="712.64" y="-481.01" font-family="Times,serif" font-size="14.00">*0</text>
</g>
<!-- node8&#45;&gt;node5 -->
<g id="edge16" class="edge">
<title>node8&#45;&gt;node5</title>
<path fill="none" stroke="fuchsia" stroke-width="2" d="M178.22,-474.03C179.06,-482.03 179.31,-491.77 178.94,-500.75"/>
<polygon fill="fuchsia" stroke="fuchsia" stroke-width="2" points="175.44,-500.59 178.23,-510.81 182.43,-501.08 175.44,-500.59"/>
</g>
<!-- node9&#45;&gt;node7 -->
<g id="edge18" class="edge">
<title>node9&#45;&gt;node7</title>
<path fill="none" stroke="fuchsia" stroke-width="2" d="M707.45,-474.03C714.4,-482.46 722.07,-492.83 728.35,-502.21"/>
<polygon fill="fuchsia" stroke="fuchsia" stroke-width="2" points="725.53,-504.3 733.89,-510.81 731.42,-500.51 725.53,-504.3"/>
</g>
<!-- node9&#45;&gt;node10 -->
<g id="edge23" class="edge">
<title>node9&#45;&gt;node10</title>
<path fill="none" stroke="black" d="M644.56,-437.99C618.27,-428.01 584.86,-415.32 557.02,-404.76"/>
<polygon fill="black" stroke="black" points="558.02,-401.39 547.43,-401.11 555.54,-407.94 558.02,-401.39"/>
<text text-anchor="middle" x="567.38" y="-395.95" font-family="Times,serif" font-size="14.00">*2</text>
</g>
<!-- node10&#45;&gt;node0 -->
<g id="edge20" class="edge">
<title>node10&#45;&gt;node0</title>
<path fill="none" stroke="fuchsia" stroke-width="2" d="M632.38,-384.57C740.35,-388.68 876.36,-403.99 876.36,-455 876.36,-676 876.36,-676 876.36,-676 876.36,-679.15 730.94,-708.63 630.59,-728.6"/>
<polygon fill="fuchsia" stroke="fuchsia" stroke-width="2" points="629.84,-725.18 620.72,-730.56 631.21,-732.04 629.84,-725.18"/>
</g>
<!-- node11 -->
<g id="node12" class="node">
<title>node11</title>
<polygon fill="lightgreen" stroke="black" points="616.29,-302.54 616.29,-317.46 549.55,-328 455.16,-328 388.42,-317.46 388.42,-302.54 455.16,-292 549.55,-292 616.29,-302.54"/>
<text text-anchor="middle" x="502.36" y="-306.3" font-family="Times,serif" font-size="14.00">#11 int 1 Order : 10</text>
</g>
<!-- node10&#45;&gt;node11 -->
<g id="edge27" class="edge">
<title>node10&#45;&gt;node11</title>
<path fill="none" stroke="black" stroke-dasharray="1,5" d="M496.48,-364.81C495.64,-356.79 495.4,-347.05 495.78,-338.07"/>
<polygon fill="black" stroke="black" points="499.27,-338.25 496.49,-328.03 492.29,-337.75 499.27,-338.25"/>
</g>
<!-- node10&#45;&gt;node12 -->
<g id="edge31" class="edge">
<title>node10&#45;&gt;node12</title>
<path fill="none" stroke="green" d="M568.61,-364.96C587.09,-356.93 605.13,-345.18 616.36,-328 629.1,-308.48 618.78,-282.92 608.6,-264.03"/>
<polygon fill="green" stroke="green" points="611.52,-262.09 603.57,-255.09 605.42,-265.52 611.52,-262.09"/>
</g>
<!-- node10&#45;&gt;node12 -->
<g id="edge32" class="edge">
<title>node10&#45;&gt;node12</title>
<path fill="none" stroke="red" d="M585.88,-364.96C605.09,-356.93 623.13,-345.18 634.36,-328 647.34,-308.13 636.4,-281.99 622.8,-263"/>
<polygon fill="red" stroke="red" points="625.56,-260.84 616.66,-255.09 620.03,-265.14 625.56,-260.84"/>
</g>
<!-- node11&#45;&gt;node10 -->
<g id="edge26" class="edge">
<title>node11&#45;&gt;node10</title>
<path fill="none" stroke="fuchsia" stroke-width="2" d="M508.22,-328.03C509.06,-336.03 509.31,-345.77 508.94,-354.75"/>
<polygon fill="fuchsia" stroke="fuchsia" stroke-width="2" points="505.44,-354.59 508.23,-364.81 512.43,-355.08 505.44,-354.59"/>
</g>
<!-- node11&#45;&gt;node12 -->
<g id="edge30" class="edge">
<title>node11&#45;&gt;node12</title>
<path fill="none" stroke="black" d="M525.11,-291.81C537.23,-282.66 552.32,-271.26 565.49,-261.32"/>
<polygon fill="black" stroke="black" points="567.94,-263.85 573.81,-255.03 563.72,-258.26 567.94,-263.85"/>
<text text-anchor="middle" x="564.44" y="-269" font-family="Times,serif" font-size="14.00">*1</text>
</g>
<!-- node12&#45;&gt;node0 -->
<g id="edge28" class="edge">
<title>node12&#45;&gt;node0</title>
<path fill="none" stroke="fuchsia" stroke-width="2" d="M723.41,-243.3C811.98,-250.6 914.36,-267.92 914.36,-309 914.36,-676 914.36,-676 914.36,-676 914.36,-738.19 710.15,-720.57 631.02,-729.54"/>
<polygon fill="fuchsia" stroke="fuchsia" stroke-width="2" points="630.13,-726.14 620.72,-731 631.11,-733.07 630.13,-726.14"/>
</g>
<!-- node13 -->
<g id="node14" class="node">
<title>node13</title>
<polygon fill="orange" stroke="black" points="475.54,-156.54 475.54,-171.46 369.99,-182 220.72,-182 115.17,-171.46 115.17,-156.54 220.72,-146 369.99,-146 475.54,-156.54"/>
<text text-anchor="middle" x="295.36" y="-160.3" font-family="Times,serif" font-size="14.00">#13 Extend : SIGN int Order : 15</text>
</g>
<!-- node12&#45;&gt;node13 -->
<g id="edge34" class="edge">
<title>node12&#45;&gt;node13</title>
<path fill="none" stroke="black" d="M518.4,-218.99C473.24,-208.6 416.66,-195.27 371.76,-184.46"/>
<polygon fill="black" stroke="black" points="372.32,-181 361.78,-182.05 370.68,-187.8 372.32,-181"/>
<text text-anchor="middle" x="381.39" y="-174.39" font-family="Times,serif" font-size="14.00">*0</text>
</g>
<!-- node14 -->
<g id="node15" class="node">
<title>node14</title>
<polygon fill="lightgrey" stroke="black" points="699.36,-182 493.36,-182 493.36,-146 699.36,-146 699.36,-182"/>
<text text-anchor="middle" x="596.36" y="-160.3" font-family="Times,serif" font-size="14.00">#14 LabelNode Order : 12</text>
</g>
<!-- node12&#45;&gt;node14 -->
<g id="edge36" class="edge">
<title>node12&#45;&gt;node14</title>
<path fill="none" stroke="red" d="M590.48,-218.81C589.64,-210.79 589.4,-201.05 589.78,-192.07"/>
<polygon fill="red" stroke="red" points="593.27,-192.25 590.49,-182.03 586.29,-191.75 593.27,-192.25"/>
</g>
<!-- node16 -->
<g id="node17" class="node">
<title>node16</title>
<polygon fill="lightgrey" stroke="black" points="755.86,-36 576.86,-36 576.86,0 755.86,0 755.86,-36"/>
<text text-anchor="middle" x="666.36" y="-14.3" font-family="Times,serif" font-size="14.00">#16 Return Order : 14</text>
</g>
<!-- node12&#45;&gt;node16 -->
<g id="edge41" class="edge">
<title>node12&#45;&gt;node16</title>
<path fill="none" stroke="green" d="M653.2,-218.88C670.98,-210.78 688.68,-199 699.36,-182 725.12,-140.97 715.08,-118.82 699.36,-73 695.77,-62.55 689.25,-52.57 682.83,-44.09"/>
<polygon fill="green" stroke="green" points="685.5,-41.83 676.55,-36.15 680.01,-46.17 685.5,-41.83"/>
</g>
<!-- node13&#45;&gt;node12 -->
<g id="edge33" class="edge">
<title>node13&#45;&gt;node12</title>
<path fill="none" stroke="fuchsia" stroke-width="2" d="M372.44,-181.81C417.88,-192.26 475.11,-205.74 520.36,-216.64"/>
<polygon fill="fuchsia" stroke="fuchsia" stroke-width="2" points="519.58,-220.05 530.12,-218.99 521.22,-213.24 519.58,-220.05"/>
</g>
<!-- node14&#45;&gt;node12 -->
<g id="edge35" class="edge">
<title>node14&#45;&gt;node12</title>
<path fill="none" stroke="fuchsia" stroke-width="2" d="M602.22,-182.03C603.06,-190.03 603.31,-199.77 602.94,-208.75"/>
<polygon fill="fuchsia" stroke="fuchsia" stroke-width="2" points="599.44,-208.59 602.23,-218.81 606.43,-209.08 599.44,-208.59"/>
</g>
<!-- node15 -->
<g id="node16" class="node">
<title>node15</title>
<polygon fill="lightgrey" stroke="black" points="699.36,-109 493.36,-109 493.36,-73 699.36,-73 699.36,-109"/>
<text text-anchor="middle" x="596.36" y="-87.3" font-family="Times,serif" font-size="14.00">#15 LabelNode Order : 13</text>
</g>
<!-- node14&#45;&gt;node15 -->
<g id="edge38" class="edge">
<title>node14&#45;&gt;node15</title>
<path fill="none" stroke="red" d="M590.48,-145.81C589.64,-137.79 589.4,-128.05 589.78,-119.07"/>
<polygon fill="red" stroke="red" points="593.27,-119.25 590.49,-109.03 586.29,-118.75 593.27,-119.25"/>
</g>
<!-- node15&#45;&gt;node14 -->
<g id="edge37" class="edge">
<title>node15&#45;&gt;node14</title>
<path fill="none" stroke="fuchsia" stroke-width="2" d="M602.22,-109.03C603.06,-117.03 603.31,-126.77 602.94,-135.75"/>
<polygon fill="fuchsia" stroke="fuchsia" stroke-width="2" points="599.44,-135.59 602.23,-145.81 606.43,-136.08 599.44,-135.59"/>
</g>
<!-- node15&#45;&gt;node16 -->
<g id="edge40" class="edge">
<title>node15&#45;&gt;node16</title>
<path fill="none" stroke="red" d="M613.3,-72.81C622.07,-63.92 632.92,-52.91 642.52,-43.17"/>
<polygon fill="red" stroke="red" points="645.04,-45.61 649.57,-36.03 640.05,-40.69 645.04,-45.61"/>
</g>
<!-- node16&#45;&gt;node12 -->
<g id="edge39" class="edge">
<title>node16&#45;&gt;node12</title>
<path fill="none" stroke="fuchsia" stroke-width="2" d="M692.5,-36.15C702.57,-45.97 712.58,-59.07 717.36,-73 733.08,-118.82 743.12,-140.97 717.36,-182 708.43,-196.21 694.6,-206.77 679.41,-214.59"/>
<polygon fill="fuchsia" stroke="fuchsia" stroke-width="2" points="677.88,-211.44 670.33,-218.88 680.87,-217.77 677.88,-211.44"/>
</g>
<!-- c0 -->
<!-- c1 -->
<!-- c0&#45;&gt;c1 -->
<g id="edge42" class="edge">
<title>c0&#45;&gt;c1</title>
<path fill="none" stroke="red" d="M1489.25,-748C1500.46,-748 1558.6,-748 1584.21,-748"/>
<polygon fill="red" stroke="red" points="1584.41,-751.5 1594.41,-748 1584.41,-744.5 1584.41,-751.5"/>
<text text-anchor="middle" x="1541.86" y="-754.8" font-family="Times,serif" font-size="14.00">Control flow</text>
</g>
<!-- c2 -->
<!-- c3 -->
<!-- c2&#45;&gt;c3 -->
<g id="edge43" class="edge">
<title>c2&#45;&gt;c3</title>
<path fill="none" stroke="red" stroke-dasharray="5,2" d="M1282.43,-748C1299.4,-748 1415.56,-748 1453.44,-748"/>
<polygon fill="red" stroke="red" points="1453.52,-751.5 1463.52,-748 1453.52,-744.5 1453.52,-751.5"/>
<text text-anchor="middle" x="1372.86" y="-754.8" font-family="Times,serif" font-size="14.00">Control flow back edge</text>
</g>
<!-- d0 -->
<!-- d1 -->
<!-- d0&#45;&gt;d1 -->
<g id="edge44" class="edge">
<title>d0&#45;&gt;d1</title>
<path fill="none" stroke="black" d="M1171.21,-748C1180.76,-748 1224.66,-748 1246.27,-748"/>
<polygon fill="black" stroke="black" points="1246.51,-751.5 1256.51,-748 1246.51,-744.5 1246.51,-751.5"/>
<text text-anchor="middle" x="1213.86" y="-754.8" font-family="Times,serif" font-size="14.00">Data flow</text>
</g>
<!-- d2 -->
<!-- d3 -->
<!-- d2&#45;&gt;d3 -->
<g id="edge45" class="edge">
<title>d2&#45;&gt;d3</title>
<path fill="none" stroke="black" stroke-dasharray="1,5" d="M1045.16,-748C1055.81,-748 1110.82,-748 1135.43,-748"/>
<polygon fill="black" stroke="black" points="1135.5,-751.5 1145.5,-748 1135.5,-744.5 1135.5,-751.5"/>
<text text-anchor="middle" x="1095.36" y="-754.8" font-family="Times,serif" font-size="14.00">Declaration</text>
</g>
<!-- d4 -->
<!-- d5 -->
<!-- d4&#45;&gt;d5 -->
<g id="edge46" class="edge">
<title>d4&#45;&gt;d5</title>
<path fill="none" stroke="blue" d="M902.46,-748C915.08,-748 981.24,-748 1009.04,-748"/>
<polygon fill="blue" stroke="blue" points="1009.2,-751.5 1019.2,-748 1009.2,-744.5 1009.2,-751.5"/>
<text text-anchor="middle" x="960.86" y="-754.8" font-family="Times,serif" font-size="14.00">PHI Data flow</text>
</g>
<!-- d6 -->
<!-- d7 -->
<!-- d6&#45;&gt;d7 -->
<g id="edge47" class="edge">
<title>d6&#45;&gt;d7</title>
<path fill="none" stroke="green" d="M765.35,-748C777.29,-748 839.66,-748 866.28,-748"/>
<polygon fill="green" stroke="green" points="866.3,-751.5 876.3,-748 866.3,-744.5 866.3,-751.5"/>
<text text-anchor="middle" x="820.86" y="-754.8" font-family="Times,serif" font-size="14.00">Memory flow</text>
</g>
<!-- d8 -->
<!-- d9 -->
<!-- d8&#45;&gt;d9 -->
<g id="edge48" class="edge">
<title>d8&#45;&gt;d9</title>
<path fill="none" stroke="fuchsia" d="M642.47,-748C653.5,-748 705.03,-748 729.01,-748"/>
<polygon fill="fuchsia" stroke="fuchsia" points="729.26,-751.5 739.26,-748 729.26,-744.5 729.26,-751.5"/>
<text text-anchor="middle" x="690.86" y="-754.8" font-family="Times,serif" font-size="14.00">Dominance</text>
</g>
</g>
</svg>
