<?xml version="1.0" encoding="UTF-8" standalone="no"?>
<!DOCTYPE svg PUBLIC "-//W3C//DTD SVG 1.1//EN"
 "http://www.w3.org/Graphics/SVG/1.1/DTD/svg11.dtd">
<!-- Generated by graphviz version 2.43.0 (0)
 -->
<!-- Title: %3 Pages: 1 -->
<svg width="1341pt" height="870pt"
 viewBox="0.00 0.00 1341.00 869.80" xmlns="http://www.w3.org/2000/svg" xmlns:xlink="http://www.w3.org/1999/xlink">
<g id="graph0" class="graph" transform="scale(1 1) rotate(0) translate(4 865.8)">
<title>%3</title>
<polygon fill="white" stroke="transparent" points="-4,4 -4,-865.8 1337,-865.8 1337,4 -4,4"/>
<g id="clust1" class="cluster">
<title>cluster_000</title>
<polygon fill="none" stroke="black" points="989,-811.2 989,-853.8 1325,-853.8 1325,-811.2 989,-811.2"/>
<text text-anchor="middle" x="1157" y="-838.6" font-family="Times,serif" font-size="14.00">Legend</text>
</g>
<!-- node0 -->
<g id="node1" class="node">
<title>node0</title>
<polygon fill="lightgrey" stroke="black" points="961.5,-839 556.5,-839 556.5,-803 961.5,-803 961.5,-839"/>
<text text-anchor="middle" x="759" y="-817.3" font-family="Times,serif" font-size="14.00">#0 LocalVariable[name=min, slot=0, type=I] Order: 0</text>
</g>
<!-- node0&#45;&gt;node0 -->
<g id="edge1" class="edge">
<title>node0&#45;&gt;node0</title>
<path fill="none" stroke="fuchsia" d="M961.64,-825.52C972.84,-824.42 979.5,-822.92 979.5,-821 979.5,-819.77 976.77,-818.71 971.86,-817.82"/>
<polygon fill="fuchsia" stroke="fuchsia" points="972.01,-814.31 961.64,-816.48 971.1,-821.25 972.01,-814.31"/>
</g>
<!-- node1 -->
<g id="node2" class="node">
<title>node1</title>
<polygon fill="lightgrey" stroke="black" points="1016,-766 502,-766 502,-730 1016,-730 1016,-766"/>
<text text-anchor="middle" x="759" y="-744.3" font-family="Times,serif" font-size="14.00">#1 LocalVariable[name=t, slot=1, type=Ljava/lang/Integer;] Order: 1</text>
</g>
<!-- node0&#45;&gt;node1 -->
<g id="edge2" class="edge">
<title>node0&#45;&gt;node1</title>
<path fill="none" stroke="red" d="M753.12,-802.81C752.28,-794.79 752.05,-785.05 752.42,-776.07"/>
<polygon fill="red" stroke="red" points="755.92,-776.25 753.14,-766.03 748.94,-775.75 755.92,-776.25"/>
</g>
<!-- node1&#45;&gt;node0 -->
<g id="edge3" class="edge">
<title>node1&#45;&gt;node0</title>
<path fill="none" stroke="fuchsia" d="M764.86,-766.03C765.71,-774.03 765.95,-783.77 765.59,-792.75"/>
<polygon fill="fuchsia" stroke="fuchsia" points="762.09,-792.59 764.88,-802.81 769.07,-793.08 762.09,-792.59"/>
</g>
<!-- node2 -->
<g id="node3" class="node">
<title>node2</title>
<polygon fill="lightgrey" stroke="black" points="998.5,-693 519.5,-693 519.5,-657 998.5,-657 998.5,-693"/>
<text text-anchor="middle" x="759" y="-671.3" font-family="Times,serif" font-size="14.00">#2 Label[context=CodeModel[id=1682031750], bci=0] Order: 2</text>
</g>
<!-- node1&#45;&gt;node2 -->
<g id="edge4" class="edge">
<title>node1&#45;&gt;node2</title>
<path fill="none" stroke="red" d="M753.12,-729.81C752.28,-721.79 752.05,-712.05 752.42,-703.07"/>
<polygon fill="red" stroke="red" points="755.92,-703.25 753.14,-693.03 748.94,-702.75 755.92,-703.25"/>
</g>
<!-- node2&#45;&gt;node1 -->
<g id="edge5" class="edge">
<title>node2&#45;&gt;node1</title>
<path fill="none" stroke="fuchsia" d="M764.86,-693.03C765.71,-701.03 765.95,-710.77 765.59,-719.75"/>
<polygon fill="fuchsia" stroke="fuchsia" points="762.09,-719.59 764.88,-729.81 769.07,-720.08 762.09,-719.59"/>
</g>
<!-- node3 -->
<g id="node4" class="node">
<title>node3</title>
<polygon fill="lightgrey" stroke="black" points="890.5,-620 627.5,-620 627.5,-584 890.5,-584 890.5,-620"/>
<text text-anchor="middle" x="759" y="-598.3" font-family="Times,serif" font-size="14.00">#3 LineNumber[line=11] Order: 3</text>
</g>
<!-- node2&#45;&gt;node3 -->
<g id="edge6" class="edge">
<title>node2&#45;&gt;node3</title>
<path fill="none" stroke="red" d="M753.12,-656.81C752.28,-648.79 752.05,-639.05 752.42,-630.07"/>
<polygon fill="red" stroke="red" points="755.92,-630.25 753.14,-620.03 748.94,-629.75 755.92,-630.25"/>
</g>
<!-- node3&#45;&gt;node2 -->
<g id="edge7" class="edge">
<title>node3&#45;&gt;node2</title>
<path fill="none" stroke="fuchsia" d="M764.86,-620.03C765.71,-628.03 765.95,-637.77 765.59,-646.75"/>
<polygon fill="fuchsia" stroke="fuchsia" points="762.09,-646.59 764.88,-656.81 769.07,-647.08 762.09,-646.59"/>
</g>
<!-- node4 -->
<g id="node5" class="node">
<title>node4</title>
<polygon fill="lightgrey" stroke="black" points="913,-547 605,-547 605,-511 913,-511 913,-547"/>
<text text-anchor="middle" x="759" y="-525.3" font-family="Times,serif" font-size="14.00">#4 Load[OP=ALOAD_1, slot=1] Order: 4</text>
</g>
<!-- node3&#45;&gt;node4 -->
<g id="edge8" class="edge">
<title>node3&#45;&gt;node4</title>
<path fill="none" stroke="red" d="M753.12,-583.81C752.28,-575.79 752.05,-566.05 752.42,-557.07"/>
<polygon fill="red" stroke="red" points="755.92,-557.25 753.14,-547.03 748.94,-556.75 755.92,-557.25"/>
</g>
<!-- node4&#45;&gt;node3 -->
<g id="edge9" class="edge">
<title>node4&#45;&gt;node3</title>
<path fill="none" stroke="fuchsia" d="M764.86,-547.03C765.71,-555.03 765.95,-564.77 765.59,-573.75"/>
<polygon fill="fuchsia" stroke="fuchsia" points="762.09,-573.59 764.88,-583.81 769.07,-574.08 762.09,-573.59"/>
</g>
<!-- node5 -->
<g id="node6" class="node">
<title>node5</title>
<polygon fill="lightgrey" stroke="black" points="1036,-474 482,-474 482,-438 1036,-438 1036,-474"/>
<text text-anchor="middle" x="759" y="-452.3" font-family="Times,serif" font-size="14.00">#5 Invoke[OP=INVOKEVIRTUAL, m=java/lang/Integer.intValue()I] Order: 5</text>
</g>
<!-- node4&#45;&gt;node5 -->
<g id="edge10" class="edge">
<title>node4&#45;&gt;node5</title>
<path fill="none" stroke="red" d="M753.12,-510.81C752.28,-502.79 752.05,-493.05 752.42,-484.07"/>
<polygon fill="red" stroke="red" points="755.92,-484.25 753.14,-474.03 748.94,-483.75 755.92,-484.25"/>
</g>
<!-- node5&#45;&gt;node4 -->
<g id="edge11" class="edge">
<title>node5&#45;&gt;node4</title>
<path fill="none" stroke="fuchsia" d="M764.86,-474.03C765.71,-482.03 765.95,-491.77 765.59,-500.75"/>
<polygon fill="fuchsia" stroke="fuchsia" points="762.09,-500.59 764.88,-510.81 769.07,-501.08 762.09,-500.59"/>
</g>
<!-- node6 -->
<g id="node7" class="node">
<title>node6</title>
<polygon fill="lightgrey" stroke="black" points="910.5,-401 607.5,-401 607.5,-365 910.5,-365 910.5,-401"/>
<text text-anchor="middle" x="759" y="-379.3" font-family="Times,serif" font-size="14.00">#6 Load[OP=ILOAD_0, slot=0] Order: 6</text>
</g>
<!-- node5&#45;&gt;node6 -->
<g id="edge12" class="edge">
<title>node5&#45;&gt;node6</title>
<path fill="none" stroke="red" d="M753.12,-437.81C752.28,-429.79 752.05,-420.05 752.42,-411.07"/>
<polygon fill="red" stroke="red" points="755.92,-411.25 753.14,-401.03 748.94,-410.75 755.92,-411.25"/>
</g>
<!-- node6&#45;&gt;node5 -->
<g id="edge13" class="edge">
<title>node6&#45;&gt;node5</title>
<path fill="none" stroke="fuchsia" d="M764.86,-401.03C765.71,-409.03 765.95,-418.77 765.59,-427.75"/>
<polygon fill="fuchsia" stroke="fuchsia" points="762.09,-427.59 764.88,-437.81 769.07,-428.08 762.09,-427.59"/>
</g>
<!-- node7 -->
<g id="node8" class="node">
<title>node7</title>
<polygon fill="lightgrey" stroke="black" points="899,-328 619,-328 619,-292 899,-292 899,-328"/>
<text text-anchor="middle" x="759" y="-306.3" font-family="Times,serif" font-size="14.00">#7 Branch[OP=IF_ICMPLT] Order: 7</text>
</g>
<!-- node6&#45;&gt;node7 -->
<g id="edge14" class="edge">
<title>node6&#45;&gt;node7</title>
<path fill="none" stroke="red" d="M753.12,-364.81C752.28,-356.79 752.05,-347.05 752.42,-338.07"/>
<polygon fill="red" stroke="red" points="755.92,-338.25 753.14,-328.03 748.94,-337.75 755.92,-338.25"/>
</g>
<!-- node7&#45;&gt;node6 -->
<g id="edge15" class="edge">
<title>node7&#45;&gt;node6</title>
<path fill="none" stroke="fuchsia" d="M764.86,-328.03C765.71,-336.03 765.95,-345.77 765.59,-354.75"/>
<polygon fill="fuchsia" stroke="fuchsia" points="762.09,-354.59 764.88,-364.81 769.07,-355.08 762.09,-354.59"/>
</g>
<!-- node8 -->
<g id="node9" class="node">
<title>node8</title>
<polygon fill="lightgrey" stroke="black" points="488,-255 0,-255 0,-219 488,-219 488,-255"/>
<text text-anchor="middle" x="244" y="-233.3" font-family="Times,serif" font-size="14.00">#8 UnboundIntrinsicConstantInstruction[op=ICONST_1] Order: 8</text>
</g>
<!-- node7&#45;&gt;node8 -->
<g id="edge16" class="edge">
<title>node7&#45;&gt;node8</title>
<path fill="none" stroke="red" d="M629.79,-291.99C550.88,-281.27 450.43,-267.43 371.79,-256.45"/>
<polygon fill="red" stroke="red" points="372.21,-252.97 361.82,-255.05 371.24,-259.9 372.21,-252.97"/>
</g>
<!-- node10 -->
<g id="node11" class="node">
<title>node10</title>
<polygon fill="lightgrey" stroke="black" points="1012,-255 506,-255 506,-219 1012,-219 1012,-255"/>
<text text-anchor="middle" x="759" y="-233.3" font-family="Times,serif" font-size="14.00">#10 Label[context=CodeModel[id=1682031750], bci=12] Order: 10</text>
</g>
<!-- node7&#45;&gt;node10 -->
<g id="edge20" class="edge">
<title>node7&#45;&gt;node10</title>
<path fill="none" stroke="red" d="M753.12,-291.81C752.28,-283.79 752.05,-274.05 752.42,-265.07"/>
<polygon fill="red" stroke="red" points="755.92,-265.25 753.14,-255.03 748.94,-264.75 755.92,-265.25"/>
</g>
<!-- node8&#45;&gt;node7 -->
<g id="edge17" class="edge">
<title>node8&#45;&gt;node7</title>
<path fill="none" stroke="fuchsia" d="M373.55,-255.05C452.51,-265.78 552.97,-279.62 631.55,-290.6"/>
<polygon fill="fuchsia" stroke="fuchsia" points="631.12,-294.08 641.5,-291.99 632.08,-287.14 631.12,-294.08"/>
</g>
<!-- node9 -->
<g id="node10" class="node">
<title>node9</title>
<polygon fill="lightgrey" stroke="black" points="366,-182 122,-182 122,-146 366,-146 366,-182"/>
<text text-anchor="middle" x="244" y="-160.3" font-family="Times,serif" font-size="14.00">#9 Branch[OP=GOTO] Order: 9</text>
</g>
<!-- node8&#45;&gt;node9 -->
<g id="edge18" class="edge">
<title>node8&#45;&gt;node9</title>
<path fill="none" stroke="red" d="M238.12,-218.81C237.28,-210.79 237.05,-201.05 237.42,-192.07"/>
<polygon fill="red" stroke="red" points="240.92,-192.25 238.14,-182.03 233.94,-191.75 240.92,-192.25"/>
</g>
<!-- node9&#45;&gt;node8 -->
<g id="edge19" class="edge">
<title>node9&#45;&gt;node8</title>
<path fill="none" stroke="fuchsia" d="M249.86,-182.03C250.71,-190.03 250.95,-199.77 250.59,-208.75"/>
<polygon fill="fuchsia" stroke="fuchsia" points="247.09,-208.59 249.88,-218.81 254.07,-209.08 247.09,-208.59"/>
</g>
<!-- node12 -->
<g id="node13" class="node">
<title>node12</title>
<polygon fill="lightgrey" stroke="black" points="1012,-109 506,-109 506,-73 1012,-73 1012,-109"/>
<text text-anchor="middle" x="759" y="-87.3" font-family="Times,serif" font-size="14.00">#12 Label[context=CodeModel[id=1682031750], bci=13] Order: 12</text>
</g>
<!-- node9&#45;&gt;node12 -->
<g id="edge24" class="edge">
<title>node9&#45;&gt;node12</title>
<path fill="none" stroke="red" d="M366.05,-146.17C444.06,-135.42 545.27,-121.47 625.43,-110.41"/>
<polygon fill="red" stroke="red" points="626.17,-113.85 635.6,-109.01 625.21,-106.91 626.17,-113.85"/>
</g>
<!-- node10&#45;&gt;node7 -->
<g id="edge21" class="edge">
<title>node10&#45;&gt;node7</title>
<path fill="none" stroke="fuchsia" d="M764.86,-255.03C765.71,-263.03 765.95,-272.77 765.59,-281.75"/>
<polygon fill="fuchsia" stroke="fuchsia" points="762.09,-281.59 764.88,-291.81 769.07,-282.08 762.09,-281.59"/>
</g>
<!-- node11 -->
<g id="node12" class="node">
<title>node11</title>
<polygon fill="lightgrey" stroke="black" points="1012,-182 506,-182 506,-146 1012,-146 1012,-182"/>
<text text-anchor="middle" x="759" y="-160.3" font-family="Times,serif" font-size="14.00">#11 UnboundIntrinsicConstantInstruction[op=ICONST_0] Order: 11</text>
</g>
<!-- node10&#45;&gt;node11 -->
<g id="edge22" class="edge">
<title>node10&#45;&gt;node11</title>
<path fill="none" stroke="red" d="M753.12,-218.81C752.28,-210.79 752.05,-201.05 752.42,-192.07"/>
<polygon fill="red" stroke="red" points="755.92,-192.25 753.14,-182.03 748.94,-191.75 755.92,-192.25"/>
</g>
<!-- node11&#45;&gt;node10 -->
<g id="edge23" class="edge">
<title>node11&#45;&gt;node10</title>
<path fill="none" stroke="fuchsia" d="M764.86,-182.03C765.71,-190.03 765.95,-199.77 765.59,-208.75"/>
<polygon fill="fuchsia" stroke="fuchsia" points="762.09,-208.59 764.88,-218.81 769.07,-209.08 762.09,-208.59"/>
</g>
<!-- node11&#45;&gt;node12 -->
<g id="edge25" class="edge">
<title>node11&#45;&gt;node12</title>
<path fill="none" stroke="red" d="M759,-145.81C759,-137.79 759,-128.05 759,-119.07"/>
<polygon fill="red" stroke="red" points="762.5,-119.03 759,-109.03 755.5,-119.03 762.5,-119.03"/>
</g>
<!-- node12&#45;&gt;node7 -->
<g id="edge26" class="edge">
<title>node12&#45;&gt;node7</title>
<path fill="none" stroke="fuchsia" d="M923.7,-109.05C967.81,-117.18 1007.14,-128.99 1021,-146 1051.6,-183.55 1051.6,-217.45 1021,-255 1005.63,-273.86 958.96,-286.33 909.19,-294.47"/>
<polygon fill="fuchsia" stroke="fuchsia" points="908.53,-291.03 899.2,-296.05 909.62,-297.95 908.53,-291.03"/>
</g>
<!-- node13 -->
<g id="node14" class="node">
<title>node13</title>
<polygon fill="lightgrey" stroke="black" points="902.5,-36 615.5,-36 615.5,0 902.5,0 902.5,-36"/>
<text text-anchor="middle" x="759" y="-14.3" font-family="Times,serif" font-size="14.00">#13 Return[OP=IRETURN] Order: 13</text>
</g>
<!-- node12&#45;&gt;node13 -->
<g id="edge27" class="edge">
<title>node12&#45;&gt;node13</title>
<path fill="none" stroke="red" d="M753.12,-72.81C752.28,-64.79 752.05,-55.05 752.42,-46.07"/>
<polygon fill="red" stroke="red" points="755.92,-46.25 753.14,-36.03 748.94,-45.75 755.92,-46.25"/>
</g>
<!-- node13&#45;&gt;node12 -->
<g id="edge28" class="edge">
<title>node13&#45;&gt;node12</title>
<path fill="none" stroke="fuchsia" d="M764.86,-36.03C765.71,-44.03 765.95,-53.77 765.59,-62.75"/>
<polygon fill="fuchsia" stroke="fuchsia" points="762.09,-62.59 764.88,-72.81 769.07,-63.08 762.09,-62.59"/>
</g>
<!-- c0 -->
<!-- c1 -->
<!-- c0&#45;&gt;c1 -->
<g id="edge29" class="edge">
<title>c0&#45;&gt;c1</title>
<path fill="none" stroke="red" d="M1207.89,-821C1219.11,-821 1277.24,-821 1302.86,-821"/>
<polygon fill="red" stroke="red" points="1303.06,-824.5 1313.06,-821 1303.06,-817.5 1303.06,-824.5"/>
<text text-anchor="middle" x="1260.5" y="-827.8" font-family="Times,serif" font-size="14.00">Control flow</text>
</g>
<!-- c2 -->
<!-- c3 -->
<!-- c2&#45;&gt;c3 -->
<g id="edge30" class="edge">
<title>c2&#45;&gt;c3</title>
<path fill="none" stroke="red" stroke-dasharray="5,2" d="M1001.08,-821C1018.05,-821 1134.21,-821 1172.08,-821"/>
<polygon fill="red" stroke="red" points="1172.17,-824.5 1182.17,-821 1172.17,-817.5 1172.17,-824.5"/>
<text text-anchor="middle" x="1091.5" y="-827.8" font-family="Times,serif" font-size="14.00">Control flow back edge</text>
</g>
</g>
</svg>
