<?xml version="1.0" encoding="UTF-8" standalone="no"?>
<!DOCTYPE svg PUBLIC "-//W3C//DTD SVG 1.1//EN"
 "http://www.w3.org/Graphics/SVG/1.1/DTD/svg11.dtd">
<!-- Generated by graphviz version 2.43.0 (0)
 -->
<!-- Title: %3 Pages: 1 -->
<svg width="1337pt" height="870pt"
 viewBox="0.00 0.00 1337.00 869.80" xmlns="http://www.w3.org/2000/svg" xmlns:xlink="http://www.w3.org/1999/xlink">
<g id="graph0" class="graph" transform="scale(1 1) rotate(0) translate(4 865.8)">
<title>%3</title>
<polygon fill="white" stroke="transparent" points="-4,4 -4,-865.8 1333,-865.8 1333,4 -4,4"/>
<g id="clust1" class="cluster">
<title>cluster_000</title>
<polygon fill="none" stroke="black" points="985,-811.2 985,-853.8 1321,-853.8 1321,-811.2 985,-811.2"/>
<text text-anchor="middle" x="1153" y="-838.6" font-family="Times,serif" font-size="14.00">Legend</text>
</g>
<!-- node0 -->
<g id="node1" class="node">
<title>node0</title>
<polygon fill="lightgrey" stroke="black" points="957.5,-839 552.5,-839 552.5,-803 957.5,-803 957.5,-839"/>
<text text-anchor="middle" x="755" y="-817.3" font-family="Times,serif" font-size="14.00">#0 LocalVariable[name=min, slot=0, type=I] Order: 0</text>
</g>
<!-- node0&#45;&gt;node0 -->
<g id="edge1" class="edge">
<title>node0&#45;&gt;node0</title>
<path fill="none" stroke="fuchsia" d="M957.64,-825.52C968.84,-824.42 975.5,-822.92 975.5,-821 975.5,-819.77 972.77,-818.71 967.86,-817.82"/>
<polygon fill="fuchsia" stroke="fuchsia" points="968.01,-814.31 957.64,-816.48 967.1,-821.25 968.01,-814.31"/>
</g>
<!-- node1 -->
<g id="node2" class="node">
<title>node1</title>
<polygon fill="lightgrey" stroke="black" points="1012,-766 498,-766 498,-730 1012,-730 1012,-766"/>
<text text-anchor="middle" x="755" y="-744.3" font-family="Times,serif" font-size="14.00">#1 LocalVariable[name=t, slot=1, type=Ljava/lang/Integer;] Order: 1</text>
</g>
<!-- node0&#45;&gt;node1 -->
<g id="edge2" class="edge">
<title>node0&#45;&gt;node1</title>
<path fill="none" stroke="red" d="M749.12,-802.81C748.28,-794.79 748.05,-785.05 748.42,-776.07"/>
<polygon fill="red" stroke="red" points="751.92,-776.25 749.14,-766.03 744.94,-775.75 751.92,-776.25"/>
</g>
<!-- node1&#45;&gt;node0 -->
<g id="edge3" class="edge">
<title>node1&#45;&gt;node0</title>
<path fill="none" stroke="fuchsia" d="M760.86,-766.03C761.71,-774.03 761.95,-783.77 761.59,-792.75"/>
<polygon fill="fuchsia" stroke="fuchsia" points="758.09,-792.59 760.88,-802.81 765.07,-793.08 758.09,-792.59"/>
</g>
<!-- node2 -->
<g id="node3" class="node">
<title>node2</title>
<polygon fill="lightgrey" stroke="black" points="990,-693 520,-693 520,-657 990,-657 990,-693"/>
<text text-anchor="middle" x="755" y="-671.3" font-family="Times,serif" font-size="14.00">#2 Label[context=CodeModel[id=231351829], bci=0] Order: 2</text>
</g>
<!-- node1&#45;&gt;node2 -->
<g id="edge4" class="edge">
<title>node1&#45;&gt;node2</title>
<path fill="none" stroke="red" d="M749.12,-729.81C748.28,-721.79 748.05,-712.05 748.42,-703.07"/>
<polygon fill="red" stroke="red" points="751.92,-703.25 749.14,-693.03 744.94,-702.75 751.92,-703.25"/>
</g>
<!-- node2&#45;&gt;node1 -->
<g id="edge5" class="edge">
<title>node2&#45;&gt;node1</title>
<path fill="none" stroke="fuchsia" d="M760.86,-693.03C761.71,-701.03 761.95,-710.77 761.59,-719.75"/>
<polygon fill="fuchsia" stroke="fuchsia" points="758.09,-719.59 760.88,-729.81 765.07,-720.08 758.09,-719.59"/>
</g>
<!-- node3 -->
<g id="node4" class="node">
<title>node3</title>
<polygon fill="lightgrey" stroke="black" points="886.5,-620 623.5,-620 623.5,-584 886.5,-584 886.5,-620"/>
<text text-anchor="middle" x="755" y="-598.3" font-family="Times,serif" font-size="14.00">#3 LineNumber[line=11] Order: 3</text>
</g>
<!-- node2&#45;&gt;node3 -->
<g id="edge6" class="edge">
<title>node2&#45;&gt;node3</title>
<path fill="none" stroke="red" d="M749.12,-656.81C748.28,-648.79 748.05,-639.05 748.42,-630.07"/>
<polygon fill="red" stroke="red" points="751.92,-630.25 749.14,-620.03 744.94,-629.75 751.92,-630.25"/>
</g>
<!-- node3&#45;&gt;node2 -->
<g id="edge7" class="edge">
<title>node3&#45;&gt;node2</title>
<path fill="none" stroke="fuchsia" d="M760.86,-620.03C761.71,-628.03 761.95,-637.77 761.59,-646.75"/>
<polygon fill="fuchsia" stroke="fuchsia" points="758.09,-646.59 760.88,-656.81 765.07,-647.08 758.09,-646.59"/>
</g>
<!-- node4 -->
<g id="node5" class="node">
<title>node4</title>
<polygon fill="lightgrey" stroke="black" points="909,-547 601,-547 601,-511 909,-511 909,-547"/>
<text text-anchor="middle" x="755" y="-525.3" font-family="Times,serif" font-size="14.00">#4 Load[OP=ALOAD_1, slot=1] Order: 4</text>
</g>
<!-- node3&#45;&gt;node4 -->
<g id="edge8" class="edge">
<title>node3&#45;&gt;node4</title>
<path fill="none" stroke="red" d="M749.12,-583.81C748.28,-575.79 748.05,-566.05 748.42,-557.07"/>
<polygon fill="red" stroke="red" points="751.92,-557.25 749.14,-547.03 744.94,-556.75 751.92,-557.25"/>
</g>
<!-- node4&#45;&gt;node3 -->
<g id="edge9" class="edge">
<title>node4&#45;&gt;node3</title>
<path fill="none" stroke="fuchsia" d="M760.86,-547.03C761.71,-555.03 761.95,-564.77 761.59,-573.75"/>
<polygon fill="fuchsia" stroke="fuchsia" points="758.09,-573.59 760.88,-583.81 765.07,-574.08 758.09,-573.59"/>
</g>
<!-- node5 -->
<g id="node6" class="node">
<title>node5</title>
<polygon fill="lightgrey" stroke="black" points="1032,-474 478,-474 478,-438 1032,-438 1032,-474"/>
<text text-anchor="middle" x="755" y="-452.3" font-family="Times,serif" font-size="14.00">#5 Invoke[OP=INVOKEVIRTUAL, m=java/lang/Integer.intValue()I] Order: 5</text>
</g>
<!-- node4&#45;&gt;node5 -->
<g id="edge10" class="edge">
<title>node4&#45;&gt;node5</title>
<path fill="none" stroke="red" d="M749.12,-510.81C748.28,-502.79 748.05,-493.05 748.42,-484.07"/>
<polygon fill="red" stroke="red" points="751.92,-484.25 749.14,-474.03 744.94,-483.75 751.92,-484.25"/>
</g>
<!-- node5&#45;&gt;node4 -->
<g id="edge11" class="edge">
<title>node5&#45;&gt;node4</title>
<path fill="none" stroke="fuchsia" d="M760.86,-474.03C761.71,-482.03 761.95,-491.77 761.59,-500.75"/>
<polygon fill="fuchsia" stroke="fuchsia" points="758.09,-500.59 760.88,-510.81 765.07,-501.08 758.09,-500.59"/>
</g>
<!-- node6 -->
<g id="node7" class="node">
<title>node6</title>
<polygon fill="lightgrey" stroke="black" points="906.5,-401 603.5,-401 603.5,-365 906.5,-365 906.5,-401"/>
<text text-anchor="middle" x="755" y="-379.3" font-family="Times,serif" font-size="14.00">#6 Load[OP=ILOAD_0, slot=0] Order: 6</text>
</g>
<!-- node5&#45;&gt;node6 -->
<g id="edge12" class="edge">
<title>node5&#45;&gt;node6</title>
<path fill="none" stroke="red" d="M749.12,-437.81C748.28,-429.79 748.05,-420.05 748.42,-411.07"/>
<polygon fill="red" stroke="red" points="751.92,-411.25 749.14,-401.03 744.94,-410.75 751.92,-411.25"/>
</g>
<!-- node6&#45;&gt;node5 -->
<g id="edge13" class="edge">
<title>node6&#45;&gt;node5</title>
<path fill="none" stroke="fuchsia" d="M760.86,-401.03C761.71,-409.03 761.95,-418.77 761.59,-427.75"/>
<polygon fill="fuchsia" stroke="fuchsia" points="758.09,-427.59 760.88,-437.81 765.07,-428.08 758.09,-427.59"/>
</g>
<!-- node7 -->
<g id="node8" class="node">
<title>node7</title>
<polygon fill="lightgrey" stroke="black" points="895,-328 615,-328 615,-292 895,-292 895,-328"/>
<text text-anchor="middle" x="755" y="-306.3" font-family="Times,serif" font-size="14.00">#7 Branch[OP=IF_ICMPLT] Order: 7</text>
</g>
<!-- node6&#45;&gt;node7 -->
<g id="edge14" class="edge">
<title>node6&#45;&gt;node7</title>
<path fill="none" stroke="red" d="M749.12,-364.81C748.28,-356.79 748.05,-347.05 748.42,-338.07"/>
<polygon fill="red" stroke="red" points="751.92,-338.25 749.14,-328.03 744.94,-337.75 751.92,-338.25"/>
</g>
<!-- node7&#45;&gt;node6 -->
<g id="edge15" class="edge">
<title>node7&#45;&gt;node6</title>
<path fill="none" stroke="fuchsia" d="M760.86,-328.03C761.71,-336.03 761.95,-345.77 761.59,-354.75"/>
<polygon fill="fuchsia" stroke="fuchsia" points="758.09,-354.59 760.88,-364.81 765.07,-355.08 758.09,-354.59"/>
</g>
<!-- node8 -->
<g id="node9" class="node">
<title>node8</title>
<polygon fill="lightgrey" stroke="black" points="488,-255 0,-255 0,-219 488,-219 488,-255"/>
<text text-anchor="middle" x="244" y="-233.3" font-family="Times,serif" font-size="14.00">#8 UnboundIntrinsicConstantInstruction[op=ICONST_1] Order: 8</text>
</g>
<!-- node7&#45;&gt;node8 -->
<g id="edge16" class="edge">
<title>node7&#45;&gt;node8</title>
<path fill="none" stroke="red" d="M626.74,-291.99C548.61,-281.29 449.18,-267.49 371.23,-256.51"/>
<polygon fill="red" stroke="red" points="371.25,-252.98 360.86,-255.05 370.28,-259.91 371.25,-252.98"/>
</g>
<!-- node10 -->
<g id="node11" class="node">
<title>node10</title>
<polygon fill="lightgrey" stroke="black" points="1003.5,-255 506.5,-255 506.5,-219 1003.5,-219 1003.5,-255"/>
<text text-anchor="middle" x="755" y="-233.3" font-family="Times,serif" font-size="14.00">#10 Label[context=CodeModel[id=231351829], bci=12] Order: 10</text>
</g>
<!-- node7&#45;&gt;node10 -->
<g id="edge20" class="edge">
<title>node7&#45;&gt;node10</title>
<path fill="none" stroke="red" d="M749.12,-291.81C748.28,-283.79 748.05,-274.05 748.42,-265.07"/>
<polygon fill="red" stroke="red" points="751.92,-265.25 749.14,-255.03 744.94,-264.75 751.92,-265.25"/>
</g>
<!-- node8&#45;&gt;node7 -->
<g id="edge17" class="edge">
<title>node8&#45;&gt;node7</title>
<path fill="none" stroke="fuchsia" d="M372.59,-255.05C450.79,-265.76 550.22,-279.57 628.11,-290.53"/>
<polygon fill="fuchsia" stroke="fuchsia" points="628.07,-294.06 638.46,-291.99 629.05,-287.13 628.07,-294.06"/>
</g>
<!-- node9 -->
<g id="node10" class="node">
<title>node9</title>
<polygon fill="lightgrey" stroke="black" points="366,-182 122,-182 122,-146 366,-146 366,-182"/>
<text text-anchor="middle" x="244" y="-160.3" font-family="Times,serif" font-size="14.00">#9 Branch[OP=GOTO] Order: 9</text>
</g>
<!-- node8&#45;&gt;node9 -->
<g id="edge18" class="edge">
<title>node8&#45;&gt;node9</title>
<path fill="none" stroke="red" d="M238.12,-218.81C237.28,-210.79 237.05,-201.05 237.42,-192.07"/>
<polygon fill="red" stroke="red" points="240.92,-192.25 238.14,-182.03 233.94,-191.75 240.92,-192.25"/>
</g>
<!-- node9&#45;&gt;node8 -->
<g id="edge19" class="edge">
<title>node9&#45;&gt;node8</title>
<path fill="none" stroke="fuchsia" d="M249.86,-182.03C250.71,-190.03 250.95,-199.77 250.59,-208.75"/>
<polygon fill="fuchsia" stroke="fuchsia" points="247.09,-208.59 249.88,-218.81 254.07,-209.08 247.09,-208.59"/>
</g>
<!-- node12 -->
<g id="node13" class="node">
<title>node12</title>
<polygon fill="lightgrey" stroke="black" points="1001.5,-109 504.5,-109 504.5,-73 1001.5,-73 1001.5,-109"/>
<text text-anchor="middle" x="753" y="-87.3" font-family="Times,serif" font-size="14.00">#12 Label[context=CodeModel[id=231351829], bci=13] Order: 12</text>
</g>
<!-- node9&#45;&gt;node12 -->
<g id="edge24" class="edge">
<title>node9&#45;&gt;node12</title>
<path fill="none" stroke="red" d="M365.92,-145.99C442.78,-135.27 542.01,-121.43 620.77,-110.45"/>
<polygon fill="red" stroke="red" points="621.33,-113.9 630.75,-109.05 620.37,-106.97 621.33,-113.9"/>
</g>
<!-- node10&#45;&gt;node7 -->
<g id="edge21" class="edge">
<title>node10&#45;&gt;node7</title>
<path fill="none" stroke="fuchsia" d="M760.86,-255.03C761.71,-263.03 761.95,-272.77 761.59,-281.75"/>
<polygon fill="fuchsia" stroke="fuchsia" points="758.09,-281.59 760.88,-291.81 765.07,-282.08 758.09,-281.59"/>
</g>
<!-- node11 -->
<g id="node12" class="node">
<title>node11</title>
<polygon fill="lightgrey" stroke="black" points="1006,-182 500,-182 500,-146 1006,-146 1006,-182"/>
<text text-anchor="middle" x="753" y="-160.3" font-family="Times,serif" font-size="14.00">#11 UnboundIntrinsicConstantInstruction[op=ICONST_0] Order: 11</text>
</g>
<!-- node10&#45;&gt;node11 -->
<g id="edge22" class="edge">
<title>node10&#45;&gt;node11</title>
<path fill="none" stroke="red" d="M748.64,-218.81C747.57,-210.79 747.06,-201.05 747.18,-192.07"/>
<polygon fill="red" stroke="red" points="750.68,-192.17 747.62,-182.03 743.69,-191.87 750.68,-192.17"/>
</g>
<!-- node11&#45;&gt;node10 -->
<g id="edge23" class="edge">
<title>node11&#45;&gt;node10</title>
<path fill="none" stroke="fuchsia" d="M759.34,-182.03C760.41,-190.03 760.93,-199.77 760.82,-208.75"/>
<polygon fill="fuchsia" stroke="fuchsia" points="757.32,-208.67 760.39,-218.81 764.31,-208.97 757.32,-208.67"/>
</g>
<!-- node11&#45;&gt;node12 -->
<g id="edge25" class="edge">
<title>node11&#45;&gt;node12</title>
<path fill="none" stroke="red" d="M753,-145.81C753,-137.79 753,-128.05 753,-119.07"/>
<polygon fill="red" stroke="red" points="756.5,-119.03 753,-109.03 749.5,-119.03 756.5,-119.03"/>
</g>
<!-- node12&#45;&gt;node7 -->
<g id="edge26" class="edge">
<title>node12&#45;&gt;node7</title>
<path fill="none" stroke="fuchsia" d="M917.7,-109.05C961.81,-117.18 1001.14,-128.99 1015,-146 1045.61,-183.56 1044.06,-217.81 1013,-255 997.9,-273.07 953.25,-285.34 905.25,-293.55"/>
<polygon fill="fuchsia" stroke="fuchsia" points="904.59,-290.11 895.29,-295.19 905.72,-297.02 904.59,-290.11"/>
</g>
<!-- node13 -->
<g id="node14" class="node">
<title>node13</title>
<polygon fill="lightgrey" stroke="black" points="896.5,-36 609.5,-36 609.5,0 896.5,0 896.5,-36"/>
<text text-anchor="middle" x="753" y="-14.3" font-family="Times,serif" font-size="14.00">#13 Return[OP=IRETURN] Order: 13</text>
</g>
<!-- node12&#45;&gt;node13 -->
<g id="edge27" class="edge">
<title>node12&#45;&gt;node13</title>
<path fill="none" stroke="red" d="M747.12,-72.81C746.28,-64.79 746.05,-55.05 746.42,-46.07"/>
<polygon fill="red" stroke="red" points="749.92,-46.25 747.14,-36.03 742.94,-45.75 749.92,-46.25"/>
</g>
<!-- node13&#45;&gt;node12 -->
<g id="edge28" class="edge">
<title>node13&#45;&gt;node12</title>
<path fill="none" stroke="fuchsia" d="M758.86,-36.03C759.71,-44.03 759.95,-53.77 759.59,-62.75"/>
<polygon fill="fuchsia" stroke="fuchsia" points="756.09,-62.59 758.88,-72.81 763.07,-63.08 756.09,-62.59"/>
</g>
<!-- c0 -->
<!-- c1 -->
<!-- c0&#45;&gt;c1 -->
<g id="edge29" class="edge">
<title>c0&#45;&gt;c1</title>
<path fill="none" stroke="red" d="M1203.89,-821C1215.11,-821 1273.24,-821 1298.86,-821"/>
<polygon fill="red" stroke="red" points="1299.06,-824.5 1309.06,-821 1299.06,-817.5 1299.06,-824.5"/>
<text text-anchor="middle" x="1256.5" y="-827.8" font-family="Times,serif" font-size="14.00">Control flow</text>
</g>
<!-- c2 -->
<!-- c3 -->
<!-- c2&#45;&gt;c3 -->
<g id="edge30" class="edge">
<title>c2&#45;&gt;c3</title>
<path fill="none" stroke="red" stroke-dasharray="5,2" d="M997.08,-821C1014.05,-821 1130.21,-821 1168.08,-821"/>
<polygon fill="red" stroke="red" points="1168.17,-824.5 1178.17,-821 1168.17,-817.5 1168.17,-824.5"/>
<text text-anchor="middle" x="1087.5" y="-827.8" font-family="Times,serif" font-size="14.00">Control flow back edge</text>
</g>
</g>
</svg>
