<?xml version="1.0" encoding="UTF-8" standalone="no"?>
<!DOCTYPE svg PUBLIC "-//W3C//DTD SVG 1.1//EN"
 "http://www.w3.org/Graphics/SVG/1.1/DTD/svg11.dtd">
<!-- Generated by graphviz version 2.43.0 (0)
 -->
<!-- Title: %3 Pages: 1 -->
<svg width="1065pt" height="870pt"
 viewBox="0.00 0.00 1065.00 869.80" xmlns="http://www.w3.org/2000/svg" xmlns:xlink="http://www.w3.org/1999/xlink">
<g id="graph0" class="graph" transform="scale(1 1) rotate(0) translate(4 865.8)">
<title>%3</title>
<polygon fill="white" stroke="transparent" points="-4,4 -4,-865.8 1061,-865.8 1061,4 -4,4"/>
<g id="clust1" class="cluster">
<title>cluster_000</title>
<polygon fill="none" stroke="black" points="713,-811.2 713,-853.8 1049,-853.8 1049,-811.2 713,-811.2"/>
<text text-anchor="middle" x="881" y="-838.6" font-family="Times,serif" font-size="14.00">Legend</text>
</g>
<!-- node0 -->
<g id="node1" class="node">
<title>node0</title>
<polygon fill="lightgrey" stroke="black" points="703.5,-839 298.5,-839 298.5,-803 703.5,-803 703.5,-839"/>
<text text-anchor="middle" x="501" y="-817.3" font-family="Times,serif" font-size="14.00">#0 LocalVariable[name=min, slot=0, type=I] Order: 0</text>
</g>
<!-- node1 -->
<g id="node2" class="node">
<title>node1</title>
<polygon fill="lightgrey" stroke="black" points="758,-766 244,-766 244,-730 758,-730 758,-766"/>
<text text-anchor="middle" x="501" y="-744.3" font-family="Times,serif" font-size="14.00">#1 LocalVariable[name=t, slot=1, type=Ljava/lang/Integer;] Order: 1</text>
</g>
<!-- node0&#45;&gt;node1 -->
<g id="edge1" class="edge">
<title>node0&#45;&gt;node1</title>
<path fill="none" stroke="red" d="M501,-802.81C501,-794.79 501,-785.05 501,-776.07"/>
<polygon fill="red" stroke="red" points="504.5,-776.03 501,-766.03 497.5,-776.03 504.5,-776.03"/>
</g>
<!-- node2 -->
<g id="node3" class="node">
<title>node2</title>
<polygon fill="lightgrey" stroke="black" points="740.5,-693 261.5,-693 261.5,-657 740.5,-657 740.5,-693"/>
<text text-anchor="middle" x="501" y="-671.3" font-family="Times,serif" font-size="14.00">#2 Label[context=CodeModel[id=1251219927], bci=0] Order: 2</text>
</g>
<!-- node1&#45;&gt;node2 -->
<g id="edge2" class="edge">
<title>node1&#45;&gt;node2</title>
<path fill="none" stroke="red" d="M501,-729.81C501,-721.79 501,-712.05 501,-703.07"/>
<polygon fill="red" stroke="red" points="504.5,-703.03 501,-693.03 497.5,-703.03 504.5,-703.03"/>
</g>
<!-- node3 -->
<g id="node4" class="node">
<title>node3</title>
<polygon fill="lightgrey" stroke="black" points="632.5,-620 369.5,-620 369.5,-584 632.5,-584 632.5,-620"/>
<text text-anchor="middle" x="501" y="-598.3" font-family="Times,serif" font-size="14.00">#3 LineNumber[line=11] Order: 3</text>
</g>
<!-- node2&#45;&gt;node3 -->
<g id="edge3" class="edge">
<title>node2&#45;&gt;node3</title>
<path fill="none" stroke="red" d="M501,-656.81C501,-648.79 501,-639.05 501,-630.07"/>
<polygon fill="red" stroke="red" points="504.5,-630.03 501,-620.03 497.5,-630.03 504.5,-630.03"/>
</g>
<!-- node4 -->
<g id="node5" class="node">
<title>node4</title>
<polygon fill="lightgrey" stroke="black" points="655,-547 347,-547 347,-511 655,-511 655,-547"/>
<text text-anchor="middle" x="501" y="-525.3" font-family="Times,serif" font-size="14.00">#4 Load[OP=ALOAD_1, slot=1] Order: 4</text>
</g>
<!-- node3&#45;&gt;node4 -->
<g id="edge4" class="edge">
<title>node3&#45;&gt;node4</title>
<path fill="none" stroke="red" d="M501,-583.81C501,-575.79 501,-566.05 501,-557.07"/>
<polygon fill="red" stroke="red" points="504.5,-557.03 501,-547.03 497.5,-557.03 504.5,-557.03"/>
</g>
<!-- node5 -->
<g id="node6" class="node">
<title>node5</title>
<polygon fill="lightgrey" stroke="black" points="778,-474 224,-474 224,-438 778,-438 778,-474"/>
<text text-anchor="middle" x="501" y="-452.3" font-family="Times,serif" font-size="14.00">#5 Invoke[OP=INVOKEVIRTUAL, m=java/lang/Integer.intValue()I] Order: 5</text>
</g>
<!-- node4&#45;&gt;node5 -->
<g id="edge5" class="edge">
<title>node4&#45;&gt;node5</title>
<path fill="none" stroke="red" d="M501,-510.81C501,-502.79 501,-493.05 501,-484.07"/>
<polygon fill="red" stroke="red" points="504.5,-484.03 501,-474.03 497.5,-484.03 504.5,-484.03"/>
</g>
<!-- node6 -->
<g id="node7" class="node">
<title>node6</title>
<polygon fill="lightgrey" stroke="black" points="652.5,-401 349.5,-401 349.5,-365 652.5,-365 652.5,-401"/>
<text text-anchor="middle" x="501" y="-379.3" font-family="Times,serif" font-size="14.00">#6 Load[OP=ILOAD_0, slot=0] Order: 6</text>
</g>
<!-- node5&#45;&gt;node6 -->
<g id="edge6" class="edge">
<title>node5&#45;&gt;node6</title>
<path fill="none" stroke="red" d="M501,-437.81C501,-429.79 501,-420.05 501,-411.07"/>
<polygon fill="red" stroke="red" points="504.5,-411.03 501,-401.03 497.5,-411.03 504.5,-411.03"/>
</g>
<!-- node7 -->
<g id="node8" class="node">
<title>node7</title>
<polygon fill="lightgrey" stroke="black" points="641,-328 361,-328 361,-292 641,-292 641,-328"/>
<text text-anchor="middle" x="501" y="-306.3" font-family="Times,serif" font-size="14.00">#7 Branch[OP=IF_ICMPLT] Order: 7</text>
</g>
<!-- node6&#45;&gt;node7 -->
<g id="edge7" class="edge">
<title>node6&#45;&gt;node7</title>
<path fill="none" stroke="red" d="M501,-364.81C501,-356.79 501,-347.05 501,-338.07"/>
<polygon fill="red" stroke="red" points="504.5,-338.03 501,-328.03 497.5,-338.03 504.5,-338.03"/>
</g>
<!-- node8 -->
<g id="node9" class="node">
<title>node8</title>
<polygon fill="lightgrey" stroke="black" points="488,-255 0,-255 0,-219 488,-219 488,-255"/>
<text text-anchor="middle" x="244" y="-233.3" font-family="Times,serif" font-size="14.00">#8 UnboundIntrinsicConstantInstruction[op=ICONST_1] Order: 8</text>
</g>
<!-- node7&#45;&gt;node8 -->
<g id="edge8" class="edge">
<title>node7&#45;&gt;node8</title>
<path fill="none" stroke="red" d="M439.44,-291.99C402.21,-281.71 354.57,-268.55 315.64,-257.79"/>
<polygon fill="red" stroke="red" points="316.52,-254.4 305.95,-255.11 314.65,-261.15 316.52,-254.4"/>
</g>
<!-- node10 -->
<g id="node11" class="node">
<title>node10</title>
<polygon fill="lightgrey" stroke="black" points="1012,-255 506,-255 506,-219 1012,-219 1012,-255"/>
<text text-anchor="middle" x="759" y="-233.3" font-family="Times,serif" font-size="14.00">#10 Label[context=CodeModel[id=1251219927], bci=12] Order: 10</text>
</g>
<!-- node7&#45;&gt;node10 -->
<g id="edge10" class="edge">
<title>node7&#45;&gt;node10</title>
<path fill="none" stroke="red" d="M562.8,-291.99C600.18,-281.71 648,-268.55 687.08,-257.79"/>
<polygon fill="red" stroke="red" points="688.1,-261.14 696.81,-255.11 686.24,-254.39 688.1,-261.14"/>
</g>
<!-- node9 -->
<g id="node10" class="node">
<title>node9</title>
<polygon fill="lightgrey" stroke="black" points="457,-182 213,-182 213,-146 457,-146 457,-182"/>
<text text-anchor="middle" x="335" y="-160.3" font-family="Times,serif" font-size="14.00">#9 Branch[OP=GOTO] Order: 9</text>
</g>
<!-- node8&#45;&gt;node9 -->
<g id="edge9" class="edge">
<title>node8&#45;&gt;node9</title>
<path fill="none" stroke="red" d="M266.03,-218.81C277.77,-209.66 292.37,-198.26 305.12,-188.32"/>
<polygon fill="red" stroke="red" points="307.44,-190.94 313.17,-182.03 303.14,-185.42 307.44,-190.94"/>
</g>
<!-- node12 -->
<g id="node13" class="node">
<title>node12</title>
<polygon fill="lightgrey" stroke="black" points="784,-109 278,-109 278,-73 784,-73 784,-109"/>
<text text-anchor="middle" x="531" y="-87.3" font-family="Times,serif" font-size="14.00">#12 Label[context=CodeModel[id=1251219927], bci=13] Order: 12</text>
</g>
<!-- node9&#45;&gt;node12 -->
<g id="edge12" class="edge">
<title>node9&#45;&gt;node12</title>
<path fill="none" stroke="red" d="M381.95,-145.99C409.62,-135.97 444.84,-123.21 474.09,-112.62"/>
<polygon fill="red" stroke="red" points="475.55,-115.81 483.76,-109.11 473.16,-109.23 475.55,-115.81"/>
</g>
<!-- node11 -->
<g id="node12" class="node">
<title>node11</title>
<polygon fill="lightgrey" stroke="black" points="996,-182 490,-182 490,-146 996,-146 996,-182"/>
<text text-anchor="middle" x="743" y="-160.3" font-family="Times,serif" font-size="14.00">#11 UnboundIntrinsicConstantInstruction[op=ICONST_0] Order: 11</text>
</g>
<!-- node10&#45;&gt;node11 -->
<g id="edge11" class="edge">
<title>node10&#45;&gt;node11</title>
<path fill="none" stroke="red" d="M755.13,-218.81C753.32,-210.79 751.12,-201.05 749.1,-192.07"/>
<polygon fill="red" stroke="red" points="752.45,-191.01 746.84,-182.03 745.62,-192.55 752.45,-191.01"/>
</g>
<!-- node11&#45;&gt;node12 -->
<g id="edge13" class="edge">
<title>node11&#45;&gt;node12</title>
<path fill="none" stroke="red" d="M692.22,-145.99C662.03,-135.88 623.54,-122.99 591.74,-112.34"/>
<polygon fill="red" stroke="red" points="592.69,-108.97 582.1,-109.11 590.47,-115.61 592.69,-108.97"/>
</g>
<!-- node13 -->
<g id="node14" class="node">
<title>node13</title>
<polygon fill="lightgrey" stroke="black" points="674.5,-36 387.5,-36 387.5,0 674.5,0 674.5,-36"/>
<text text-anchor="middle" x="531" y="-14.3" font-family="Times,serif" font-size="14.00">#13 Return[OP=IRETURN] Order: 13</text>
</g>
<!-- node12&#45;&gt;node13 -->
<g id="edge14" class="edge">
<title>node12&#45;&gt;node13</title>
<path fill="none" stroke="red" d="M531,-72.81C531,-64.79 531,-55.05 531,-46.07"/>
<polygon fill="red" stroke="red" points="534.5,-46.03 531,-36.03 527.5,-46.03 534.5,-46.03"/>
</g>
<!-- c0 -->
<!-- c1 -->
<!-- c0&#45;&gt;c1 -->
<g id="edge15" class="edge">
<title>c0&#45;&gt;c1</title>
<path fill="none" stroke="red" d="M931.89,-821C943.11,-821 1001.24,-821 1026.86,-821"/>
<polygon fill="red" stroke="red" points="1027.06,-824.5 1037.06,-821 1027.06,-817.5 1027.06,-824.5"/>
<text text-anchor="middle" x="984.5" y="-827.8" font-family="Times,serif" font-size="14.00">Control flow</text>
</g>
<!-- c2 -->
<!-- c3 -->
<!-- c2&#45;&gt;c3 -->
<g id="edge16" class="edge">
<title>c2&#45;&gt;c3</title>
<path fill="none" stroke="red" stroke-dasharray="5,2" d="M725.08,-821C742.05,-821 858.21,-821 896.08,-821"/>
<polygon fill="red" stroke="red" points="896.17,-824.5 906.17,-821 896.17,-817.5 896.17,-824.5"/>
<text text-anchor="middle" x="815.5" y="-827.8" font-family="Times,serif" font-size="14.00">Control flow back edge</text>
</g>
</g>
</svg>
