<?xml version="1.0" encoding="UTF-8" standalone="no"?>
<!DOCTYPE svg PUBLIC "-//W3C//DTD SVG 1.1//EN"
 "http://www.w3.org/Graphics/SVG/1.1/DTD/svg11.dtd">
<!-- Generated by graphviz version 2.43.0 (0)
 -->
<!-- Title: %3 Pages: 1 -->
<svg width="1261pt" height="678pt"
 viewBox="0.00 0.00 1260.51 677.80" xmlns="http://www.w3.org/2000/svg" xmlns:xlink="http://www.w3.org/1999/xlink">
<g id="graph0" class="graph" transform="scale(1 1) rotate(0) translate(4 673.8)">
<title>%3</title>
<polygon fill="white" stroke="transparent" points="-4,4 -4,-673.8 1256.51,-673.8 1256.51,4 -4,4"/>
<g id="clust1" class="cluster">
<title>cluster_0</title>
<polygon fill="none" stroke="lightgray" points="207.51,-65 207.51,-190 399.51,-190 399.51,-65 207.51,-65"/>
</g>
<g id="clust2" class="cluster">
<title>cluster_1</title>
<polygon fill="none" stroke="lightgray" points="157.51,-211 157.51,-263 291.51,-263 291.51,-211 157.51,-211"/>
</g>
<g id="clust3" class="cluster">
<title>cluster_2</title>
<polygon fill="none" stroke="lightgray" points="437.51,-138 437.51,-263 573.51,-263 573.51,-138 437.51,-138"/>
</g>
<g id="clust4" class="cluster">
<title>cluster_000</title>
<polygon fill="none" stroke="black" points="391.51,-619.2 391.51,-661.8 1244.51,-661.8 1244.51,-619.2 391.51,-619.2"/>
<text text-anchor="middle" x="818.01" y="-646.6" font-family="Times,serif" font-size="14.00">Legend</text>
</g>
<!-- node0 -->
<g id="node1" class="node">
<title>node0</title>
<polygon fill="lightgrey" stroke="transparent" points="382.01,-656 191.01,-656 191.01,-602 382.01,-602 382.01,-656"/>
<polygon fill="none" stroke="black" points="191.51,-629 191.51,-656 382.51,-656 382.51,-629 191.51,-629"/>
<text text-anchor="start" x="246.51" y="-638.8" font-family="Times,serif" font-size="14.00">#0 Method</text>
<polygon fill="yellow" stroke="transparent" points="191.51,-602 191.51,-629 270.51,-629 270.51,-602 191.51,-602"/>
<polygon fill="none" stroke="black" points="191.51,-602 191.51,-629 270.51,-629 270.51,-602 191.51,-602"/>
<text text-anchor="start" x="197.51" y="-611.8" font-family="Times,serif" font-size="14.00">arg0 : int</text>
<polygon fill="yellow" stroke="transparent" points="270.51,-602 270.51,-629 382.51,-629 382.51,-602 270.51,-602"/>
<polygon fill="none" stroke="black" points="270.51,-602 270.51,-629 382.51,-629 382.51,-602 270.51,-602"/>
<text text-anchor="start" x="276.51" y="-611.8" font-family="Times,serif" font-size="14.00">arg1 : Integer</text>
</g>
<!-- node3 -->
<g id="node2" class="node">
<title>node3</title>
<polygon fill="lightgrey" stroke="black" points="346.01,-565 227.01,-565 227.01,-529 346.01,-529 346.01,-565"/>
<text text-anchor="middle" x="286.51" y="-543.3" font-family="Times,serif" font-size="14.00">#3 LabelNode</text>
</g>
<!-- node0&#45;&gt;node3 -->
<g id="edge1" class="edge">
<title>node0&#45;&gt;node3</title>
<path fill="none" stroke="red" d="M286.51,-601.81C286.51,-593.35 286.51,-583.95 286.51,-575.4"/>
<polygon fill="red" stroke="red" points="290.01,-575.17 286.51,-565.17 283.01,-575.17 290.01,-575.17"/>
</g>
<!-- node4 -->
<g id="node3" class="node">
<title>node4</title>
<polygon fill="lightgrey" stroke="black" points="484.51,-492 236.51,-492 236.51,-456 484.51,-456 484.51,-492"/>
<text text-anchor="middle" x="360.51" y="-470.3" font-family="Times,serif" font-size="14.00">#4 Invoke virtual intValue : ()int</text>
</g>
<!-- node0&#45;&gt;node4 -->
<g id="edge2" class="edge">
<title>node0:prj2&#45;&gt;node4</title>
<path fill="none" stroke="black" d="M383.51,-615C388.36,-615 369.8,-542.99 362.23,-502.26"/>
<polygon fill="black" stroke="black" points="365.63,-501.43 360.48,-492.17 358.73,-502.62 365.63,-501.43"/>
<text text-anchor="middle" x="371.89" y="-504.89" font-family="Times,serif" font-size="14.00">*0</text>
</g>
<!-- node0&#45;&gt;node4 -->
<g id="edge4" class="edge">
<title>node0&#45;&gt;node4</title>
<path fill="none" stroke="green" d="M383.8,-614.99C401.21,-614.21 386.11,-541.94 372.95,-501.56"/>
<polygon fill="green" stroke="green" points="376.24,-500.36 369.67,-492.04 369.62,-502.64 376.24,-500.36"/>
</g>
<!-- node5 -->
<g id="node10" class="node">
<title>node5</title>
<polygon fill="orange" stroke="black" points="341.13,-393.54 341.13,-408.46 257.58,-419 139.44,-419 55.89,-408.46 55.89,-393.54 139.44,-383 257.58,-383 341.13,-393.54"/>
<text text-anchor="middle" x="198.51" y="-397.3" font-family="Times,serif" font-size="14.00">#5 NumericCondition : LT</text>
</g>
<!-- node0&#45;&gt;node5 -->
<g id="edge14" class="edge">
<title>node0:prj1&#45;&gt;node5</title>
<path fill="none" stroke="black" d="M190.51,-615C116.68,-615 162.79,-485.62 186.73,-428.53"/>
<polygon fill="black" stroke="black" points="190.06,-429.64 190.77,-419.07 183.63,-426.89 190.06,-429.64"/>
<text text-anchor="middle" x="191.42" y="-435.36" font-family="Times,serif" font-size="14.00">*1</text>
</g>
<!-- node3&#45;&gt;node4 -->
<g id="edge3" class="edge">
<title>node3&#45;&gt;node4</title>
<path fill="none" stroke="red" d="M304.42,-528.81C313.69,-519.92 325.17,-508.91 335.32,-499.17"/>
<polygon fill="red" stroke="red" points="337.97,-501.48 342.76,-492.03 333.12,-496.43 337.97,-501.48"/>
</g>
<!-- node15 -->
<g id="node4" class="node">
<title>node15</title>
<polygon fill="lightgrey" stroke="black" points="459.01,-36 286.01,-36 286.01,0 459.01,0 459.01,-36"/>
<text text-anchor="middle" x="372.51" y="-14.3" font-family="Times,serif" font-size="14.00">#15 ReturnValue : int</text>
</g>
<!-- node4&#45;&gt;node15 -->
<g id="edge7" class="edge">
<title>node4&#45;&gt;node15</title>
<path fill="none" stroke="green" d="M236.29,-467.66C159.46,-461.45 70.97,-448.03 46.51,-419 -15.37,-345.57 -43.56,-331.57 153.51,-211 201.07,-181.9 365.77,-231.04 403.51,-190 441.11,-149.11 419.74,-118.13 403.51,-65 401.3,-57.78 397.54,-50.67 393.39,-44.28"/>
<polygon fill="green" stroke="green" points="396.21,-42.21 387.58,-36.07 390.5,-46.25 396.21,-42.21"/>
</g>
<!-- node6 -->
<g id="node9" class="node">
<title>node6</title>
<polygon fill="lightgrey" stroke="transparent" points="410.01,-346 321.01,-346 321.01,-292 410.01,-292 410.01,-346"/>
<polygon fill="none" stroke="black" points="321.51,-319 321.51,-346 410.51,-346 410.51,-319 321.51,-319"/>
<text text-anchor="start" x="347.51" y="-328.8" font-family="Times,serif" font-size="14.00">#6 If</text>
<polygon fill="yellow" stroke="transparent" points="321.51,-292 321.51,-319 367.51,-319 367.51,-292 321.51,-292"/>
<polygon fill="none" stroke="black" points="321.51,-292 321.51,-319 367.51,-319 367.51,-292 321.51,-292"/>
<text text-anchor="start" x="327.51" y="-301.8" font-family="Times,serif" font-size="14.00">false</text>
<polygon fill="yellow" stroke="transparent" points="367.51,-292 367.51,-319 410.51,-319 410.51,-292 367.51,-292"/>
<polygon fill="none" stroke="black" points="367.51,-292 367.51,-319 410.51,-319 410.51,-292 367.51,-292"/>
<text text-anchor="start" x="373.51" y="-301.8" font-family="Times,serif" font-size="14.00">true</text>
</g>
<!-- node4&#45;&gt;node6 -->
<g id="edge12" class="edge">
<title>node4&#45;&gt;node6</title>
<path fill="none" stroke="red" d="M361.07,-455.75C361.86,-431.73 363.3,-387.65 364.33,-356.24"/>
<polygon fill="red" stroke="red" points="367.83,-356.23 364.66,-346.12 360.83,-356 367.83,-356.23"/>
</g>
<!-- node4&#45;&gt;node5 -->
<g id="edge13" class="edge">
<title>node4&#45;&gt;node5</title>
<path fill="none" stroke="black" d="M321.71,-455.99C299.23,-446.14 270.74,-433.66 246.82,-423.17"/>
<polygon fill="black" stroke="black" points="248.12,-419.92 237.56,-419.11 245.31,-426.33 248.12,-419.92"/>
<text text-anchor="middle" x="257.55" y="-414.95" font-family="Times,serif" font-size="14.00">*0</text>
</g>
<!-- node14 -->
<g id="node5" class="node">
<title>node14</title>
<polygon fill="lightgreen" stroke="black" points="377.01,-83.54 377.01,-98.46 341.57,-109 291.45,-109 256.01,-98.46 256.01,-83.54 291.45,-73 341.57,-73 377.01,-83.54"/>
<text text-anchor="middle" x="316.51" y="-87.3" font-family="Times,serif" font-size="14.00">#14 Φ int</text>
</g>
<!-- node14&#45;&gt;node15 -->
<g id="edge5" class="edge">
<title>node14&#45;&gt;node15</title>
<path fill="none" stroke="black" d="M330.07,-72.81C336.88,-64.18 345.25,-53.56 352.76,-44.03"/>
<polygon fill="black" stroke="black" points="355.63,-46.05 359.08,-36.03 350.14,-41.71 355.63,-46.05"/>
<text text-anchor="middle" x="354.49" y="-51.8" font-family="Times,serif" font-size="14.00">*0</text>
</g>
<!-- node12 -->
<g id="node6" class="node">
<title>node12</title>
<polygon fill="lightgrey" stroke="black" points="391.51,-182 215.51,-182 215.51,-146 391.51,-146 391.51,-182"/>
<text text-anchor="middle" x="303.51" y="-160.3" font-family="Times,serif" font-size="14.00">#12 Merge : Merge12</text>
</g>
<!-- node12&#45;&gt;node15 -->
<g id="edge6" class="edge">
<title>node12&#45;&gt;node15</title>
<path fill="none" stroke="red" d="M337.21,-145.84C353.42,-136.47 372.35,-123.76 386.51,-109 405.82,-88.87 411.14,-81.91 418.51,-55 419.56,-51.17 419.21,-47.66 417.87,-44.48"/>
<polygon fill="red" stroke="red" points="420.57,-42.25 411.78,-36.34 414.96,-46.44 420.57,-42.25"/>
</g>
<!-- node12&#45;&gt;node14 -->
<g id="edge17" class="edge">
<title>node12&#45;&gt;node14</title>
<path fill="none" stroke="black" stroke-dasharray="1,5" d="M306.66,-145.81C308.13,-137.79 309.91,-128.05 311.55,-119.07"/>
<polygon fill="black" stroke="black" points="315.03,-119.5 313.39,-109.03 308.15,-118.23 315.03,-119.5"/>
</g>
<!-- node10 -->
<g id="node7" class="node">
<title>node10</title>
<polygon fill="lightgrey" stroke="black" points="387.01,-255 302.01,-255 302.01,-219 387.01,-219 387.01,-255"/>
<text text-anchor="middle" x="344.51" y="-233.3" font-family="Times,serif" font-size="14.00">#10 Goto</text>
</g>
<!-- node10&#45;&gt;node12 -->
<g id="edge8" class="edge">
<title>node10&#45;&gt;node12</title>
<path fill="none" stroke="red" d="M334.58,-218.81C329.75,-210.44 323.83,-200.2 318.47,-190.9"/>
<polygon fill="red" stroke="red" points="321.37,-188.94 313.34,-182.03 315.31,-192.44 321.37,-188.94"/>
</g>
<!-- node9 -->
<g id="node8" class="node">
<title>node9</title>
<polygon fill="lightgrey" stroke="black" points="565.01,-255 446.01,-255 446.01,-219 565.01,-219 565.01,-255"/>
<text text-anchor="middle" x="505.51" y="-233.3" font-family="Times,serif" font-size="14.00">#9 LabelNode</text>
</g>
<!-- node9&#45;&gt;node12 -->
<g id="edge9" class="edge">
<title>node9&#45;&gt;node12</title>
<path fill="none" stroke="red" d="M457.13,-218.99C428.48,-208.92 392,-196.1 361.77,-185.48"/>
<polygon fill="red" stroke="red" points="362.79,-182.13 352.2,-182.11 360.47,-188.73 362.79,-182.13"/>
</g>
<!-- node13 -->
<g id="node12" class="node">
<title>node13</title>
<polygon fill="lightgreen" stroke="black" points="565.7,-156.54 565.7,-171.46 531.03,-182 481.99,-182 447.32,-171.46 447.32,-156.54 481.99,-146 531.03,-146 565.7,-156.54"/>
<text text-anchor="middle" x="506.51" y="-160.3" font-family="Times,serif" font-size="14.00">#13 int 0</text>
</g>
<!-- node9&#45;&gt;node13 -->
<g id="edge20" class="edge">
<title>node9&#45;&gt;node13</title>
<path fill="none" stroke="black" stroke-dasharray="1,5" d="M505.75,-218.81C505.86,-210.79 506,-201.05 506.13,-192.07"/>
<polygon fill="black" stroke="black" points="509.63,-192.08 506.27,-182.03 502.63,-191.98 509.63,-192.08"/>
</g>
<!-- node6&#45;&gt;node10 -->
<g id="edge15" class="edge">
<title>node6:prj8&#45;&gt;node10</title>
<path fill="none" stroke="red" d="M344.51,-292C344.51,-283.3 344.51,-273.81 344.51,-265.25"/>
<polygon fill="red" stroke="red" points="348.01,-265.02 344.51,-255.02 341.01,-265.02 348.01,-265.02"/>
</g>
<!-- node6&#45;&gt;node9 -->
<g id="edge10" class="edge">
<title>node6:prj7&#45;&gt;node9</title>
<path fill="none" stroke="red" d="M411.51,-305C441.63,-305 468.78,-281.91 486.07,-262.84"/>
<polygon fill="red" stroke="red" points="488.74,-265.1 492.64,-255.25 483.44,-260.52 488.74,-265.1"/>
</g>
<!-- node11 -->
<g id="node11" class="node">
<title>node11</title>
<polygon fill="lightgreen" stroke="black" points="283.7,-229.54 283.7,-244.46 249.03,-255 199.99,-255 165.32,-244.46 165.32,-229.54 199.99,-219 249.03,-219 283.7,-229.54"/>
<text text-anchor="middle" x="224.51" y="-233.3" font-family="Times,serif" font-size="14.00">#11 int 1</text>
</g>
<!-- node6&#45;&gt;node11 -->
<g id="edge16" class="edge">
<title>node6:prj8&#45;&gt;node11</title>
<path fill="none" stroke="black" stroke-dasharray="1,5" d="M320.51,-305C289.96,-305 262.2,-281.91 244.47,-262.84"/>
<polygon fill="black" stroke="black" points="247,-260.41 237.74,-255.25 241.76,-265.06 247,-260.41"/>
</g>
<!-- node5&#45;&gt;node6 -->
<g id="edge11" class="edge">
<title>node5&#45;&gt;node6</title>
<path fill="none" stroke="black" d="M234.34,-382.84C256.87,-372.04 286.37,-357.91 311.69,-345.78"/>
<polygon fill="black" stroke="black" points="313.3,-348.89 320.8,-341.42 310.27,-342.58 313.3,-348.89"/>
<text text-anchor="middle" x="308.11" y="-353.17" font-family="Times,serif" font-size="14.00">*0</text>
</g>
<!-- node11&#45;&gt;node14 -->
<g id="edge18" class="edge">
<title>node11&#45;&gt;node14</title>
<path fill="none" stroke="blue" d="M257.85,-221.64C268.72,-217.53 280.95,-213.5 292.51,-211 323.55,-204.29 555.9,-213.26 577.51,-190 593.24,-173.07 592.37,-155.7 577.51,-138 553.67,-109.59 456.34,-98.72 387.54,-94.56"/>
<polygon fill="blue" stroke="blue" points="387.36,-91.05 377.18,-93.98 386.97,-98.04 387.36,-91.05"/>
<text text-anchor="middle" x="395.76" y="-82.86" font-family="Times,serif" font-size="14.00">if #10</text>
</g>
<!-- node13&#45;&gt;node14 -->
<g id="edge19" class="edge">
<title>node13&#45;&gt;node14</title>
<path fill="none" stroke="blue" d="M470.32,-149.48C439.75,-138.05 395.78,-121.62 362.67,-109.25"/>
<polygon fill="blue" stroke="blue" points="363.8,-105.94 353.21,-105.71 361.35,-112.49 363.8,-105.94"/>
<text text-anchor="middle" x="373.14" y="-100.44" font-family="Times,serif" font-size="14.00">if #9</text>
</g>
<!-- c0 -->
<!-- c1 -->
<!-- c0&#45;&gt;c1 -->
<g id="edge21" class="edge">
<title>c0&#45;&gt;c1</title>
<path fill="none" stroke="red" d="M1127.4,-629C1138.62,-629 1196.75,-629 1222.37,-629"/>
<polygon fill="red" stroke="red" points="1222.57,-632.5 1232.57,-629 1222.57,-625.5 1222.57,-632.5"/>
<text text-anchor="middle" x="1180.01" y="-635.8" font-family="Times,serif" font-size="14.00">Control flow</text>
</g>
<!-- c2 -->
<!-- c3 -->
<!-- c2&#45;&gt;c3 -->
<g id="edge22" class="edge">
<title>c2&#45;&gt;c3</title>
<path fill="none" stroke="red" stroke-dasharray="5,2" d="M920.59,-629C937.56,-629 1053.71,-629 1091.59,-629"/>
<polygon fill="red" stroke="red" points="1091.68,-632.5 1101.68,-629 1091.68,-625.5 1091.68,-632.5"/>
<text text-anchor="middle" x="1011.01" y="-635.8" font-family="Times,serif" font-size="14.00">Control flow back edge</text>
</g>
<!-- d0 -->
<!-- d1 -->
<!-- d0&#45;&gt;d1 -->
<g id="edge23" class="edge">
<title>d0&#45;&gt;d1</title>
<path fill="none" stroke="black" d="M809.37,-629C818.92,-629 862.82,-629 884.43,-629"/>
<polygon fill="black" stroke="black" points="884.66,-632.5 894.66,-629 884.66,-625.5 884.66,-632.5"/>
<text text-anchor="middle" x="852.01" y="-635.8" font-family="Times,serif" font-size="14.00">Data flow</text>
</g>
<!-- d2 -->
<!-- d3 -->
<!-- d2&#45;&gt;d3 -->
<g id="edge24" class="edge">
<title>d2&#45;&gt;d3</title>
<path fill="none" stroke="black" stroke-dasharray="1,5" d="M683.31,-629C693.97,-629 748.97,-629 773.58,-629"/>
<polygon fill="black" stroke="black" points="773.65,-632.5 783.65,-629 773.65,-625.5 773.65,-632.5"/>
<text text-anchor="middle" x="733.51" y="-635.8" font-family="Times,serif" font-size="14.00">Declaration</text>
</g>
<!-- d4 -->
<!-- d5 -->
<!-- d4&#45;&gt;d5 -->
<g id="edge25" class="edge">
<title>d4&#45;&gt;d5</title>
<path fill="none" stroke="blue" d="M540.61,-629C553.23,-629 619.39,-629 647.19,-629"/>
<polygon fill="blue" stroke="blue" points="647.35,-632.5 657.35,-629 647.35,-625.5 647.35,-632.5"/>
<text text-anchor="middle" x="599.01" y="-635.8" font-family="Times,serif" font-size="14.00">PHI Data flow</text>
</g>
<!-- d6 -->
<!-- d7 -->
<!-- d6&#45;&gt;d7 -->
<g id="edge26" class="edge">
<title>d6&#45;&gt;d7</title>
<path fill="none" stroke="green" d="M403.51,-629C415.45,-629 477.81,-629 504.44,-629"/>
<polygon fill="green" stroke="green" points="504.46,-632.5 514.46,-629 504.46,-625.5 504.46,-632.5"/>
<text text-anchor="middle" x="459.01" y="-635.8" font-family="Times,serif" font-size="14.00">Memory flow</text>
</g>
</g>
</svg>
