<?xml version="1.0" encoding="UTF-8" standalone="no"?>
<!DOCTYPE svg PUBLIC "-//W3C//DTD SVG 1.1//EN"
 "http://www.w3.org/Graphics/SVG/1.1/DTD/svg11.dtd">
<!-- Generated by graphviz version 2.43.0 (0)
 -->
<!-- Title: %3 Pages: 1 -->
<svg width="1554pt" height="680pt"
 viewBox="0.00 0.00 1553.77 680.00" xmlns="http://www.w3.org/2000/svg" xmlns:xlink="http://www.w3.org/1999/xlink">
<g id="graph0" class="graph" transform="scale(1 1) rotate(0) translate(4 676)">
<title>%3</title>
<polygon fill="white" stroke="transparent" points="-4,4 -4,-676 1549.77,-676 1549.77,4 -4,4"/>
<g id="clust1" class="cluster">
<title>cluster_0</title>
<polygon fill="none" stroke="lightgray" points="430.77,-521 430.77,-664 676.77,-664 676.77,-521 430.77,-521"/>
</g>
<g id="clust2" class="cluster">
<title>cluster_1</title>
<polygon fill="none" stroke="lightgray" points="105.77,-65 105.77,-190 297.77,-190 297.77,-65 105.77,-65"/>
</g>
<g id="clust3" class="cluster">
<title>cluster_000</title>
<polygon fill="none" stroke="black" points="684.77,-619.2 684.77,-661.8 1537.77,-661.8 1537.77,-619.2 684.77,-619.2"/>
<text text-anchor="middle" x="1111.27" y="-646.6" font-family="Times,serif" font-size="14.00">Legend</text>
</g>
<!-- node0 -->
<g id="node1" class="node">
<title>node0</title>
<polygon fill="lightgrey" stroke="transparent" points="630.27,-656 439.27,-656 439.27,-602 630.27,-602 630.27,-656"/>
<polygon fill="none" stroke="black" points="439.77,-629 439.77,-656 630.77,-656 630.77,-629 439.77,-629"/>
<text text-anchor="start" x="494.77" y="-638.8" font-family="Times,serif" font-size="14.00">#0 Method</text>
<polygon fill="yellow" stroke="transparent" points="439.77,-602 439.77,-629 518.77,-629 518.77,-602 439.77,-602"/>
<polygon fill="none" stroke="black" points="439.77,-602 439.77,-629 518.77,-629 518.77,-602 439.77,-602"/>
<text text-anchor="start" x="445.77" y="-611.8" font-family="Times,serif" font-size="14.00">arg0 : int</text>
<polygon fill="yellow" stroke="transparent" points="518.77,-602 518.77,-629 630.77,-629 630.77,-602 518.77,-602"/>
<polygon fill="none" stroke="black" points="518.77,-602 518.77,-629 630.77,-629 630.77,-602 518.77,-602"/>
<text text-anchor="start" x="524.77" y="-611.8" font-family="Times,serif" font-size="14.00">arg1 : Integer</text>
</g>
<!-- node4 -->
<g id="node2" class="node">
<title>node4</title>
<polygon fill="lightgrey" stroke="black" points="382.77,-492 134.77,-492 134.77,-456 382.77,-456 382.77,-492"/>
<text text-anchor="middle" x="258.77" y="-470.3" font-family="Times,serif" font-size="14.00">#4 Invoke virtual intValue : ()int</text>
</g>
<!-- node0&#45;&gt;node4 -->
<g id="edge1" class="edge">
<title>node0:prj2&#45;&gt;node4</title>
<path fill="none" stroke="black" d="M574.77,-602C574.77,-575.59 361.46,-595.69 337.77,-584 303.95,-567.31 281.38,-528.35 269.31,-501.82"/>
<polygon fill="black" stroke="black" points="272.39,-500.12 265.2,-492.34 265.96,-502.91 272.39,-500.12"/>
<text text-anchor="middle" x="280.16" y="-501.91" font-family="Times,serif" font-size="14.00">*0</text>
</g>
<!-- node0&#45;&gt;node4 -->
<g id="edge3" class="edge">
<title>node0&#45;&gt;node4</title>
<path fill="none" stroke="green" d="M439.02,-602.44C424.51,-597.16 409.98,-591.02 396.77,-584 353.29,-560.88 309.81,-523.62 283.6,-499.22"/>
<polygon fill="green" stroke="green" points="285.71,-496.4 276.04,-492.09 280.91,-501.49 285.71,-496.4"/>
</g>
<!-- node3 -->
<g id="node3" class="node">
<title>node3</title>
<polygon fill="lightgrey" stroke="black" points="249.27,-565 130.27,-565 130.27,-529 249.27,-529 249.27,-565"/>
<text text-anchor="middle" x="189.77" y="-543.3" font-family="Times,serif" font-size="14.00">#3 LabelNode</text>
</g>
<!-- node0&#45;&gt;node3 -->
<g id="edge4" class="edge">
<title>node0&#45;&gt;node3</title>
<path fill="none" stroke="red" d="M439.13,-619.37C386.51,-612.91 320.57,-602 263.77,-584 252.07,-580.29 239.88,-575.02 228.86,-569.64"/>
<polygon fill="red" stroke="red" points="230.41,-566.51 219.91,-565.14 227.27,-572.76 230.41,-566.51"/>
</g>
<!-- node7 -->
<g id="node4" class="node">
<title>node7</title>
<polygon fill="orange" stroke="black" points="553.39,-393.54 553.39,-408.46 469.85,-419 351.7,-419 268.15,-408.46 268.15,-393.54 351.7,-383 469.85,-383 553.39,-393.54"/>
<text text-anchor="middle" x="410.77" y="-397.3" font-family="Times,serif" font-size="14.00">#7 NumericCondition : LT</text>
</g>
<!-- node0&#45;&gt;node7 -->
<g id="edge5" class="edge">
<title>node0:prj1&#45;&gt;node7</title>
<path fill="none" stroke="black" d="M438.77,-615C401.72,-615 405.32,-486.69 408.78,-429.24"/>
<polygon fill="black" stroke="black" points="412.29,-429.28 409.44,-419.07 405.3,-428.82 412.29,-429.28"/>
<text text-anchor="middle" x="416.71" y="-434" font-family="Times,serif" font-size="14.00">*0</text>
</g>
<!-- node5 -->
<g id="node11" class="node">
<title>node5</title>
<polygon fill="lightgreen" stroke="black" points="544.3,-539.54 544.3,-554.46 513.53,-565 470.02,-565 439.25,-554.46 439.25,-539.54 470.02,-529 513.53,-529 544.3,-539.54"/>
<text text-anchor="middle" x="491.77" y="-543.3" font-family="Times,serif" font-size="14.00">#5 int 1</text>
</g>
<!-- node0&#45;&gt;node5 -->
<g id="edge20" class="edge">
<title>node0&#45;&gt;node5</title>
<path fill="none" stroke="black" stroke-dasharray="1,5" d="M520.69,-601.81C515.89,-592.88 510.53,-582.9 505.74,-573.99"/>
<polygon fill="black" stroke="black" points="508.82,-572.33 501,-565.17 502.66,-575.64 508.82,-572.33"/>
</g>
<!-- node6 -->
<g id="node12" class="node">
<title>node6</title>
<polygon fill="lightgreen" stroke="black" points="668.3,-539.54 668.3,-554.46 637.53,-565 594.02,-565 563.25,-554.46 563.25,-539.54 594.02,-529 637.53,-529 668.3,-539.54"/>
<text text-anchor="middle" x="615.77" y="-543.3" font-family="Times,serif" font-size="14.00">#6 int 0</text>
</g>
<!-- node0&#45;&gt;node6 -->
<g id="edge19" class="edge">
<title>node0&#45;&gt;node6</title>
<path fill="none" stroke="black" stroke-dasharray="1,5" d="M561.3,-601.81C570.91,-592.31 581.72,-581.64 591.16,-572.31"/>
<polygon fill="black" stroke="black" points="593.73,-574.69 598.38,-565.17 588.81,-569.71 593.73,-574.69"/>
</g>
<!-- node4&#45;&gt;node7 -->
<g id="edge6" class="edge">
<title>node4&#45;&gt;node7</title>
<path fill="none" stroke="black" d="M295.18,-455.99C316.08,-446.23 342.53,-433.88 364.85,-423.45"/>
<polygon fill="black" stroke="black" points="366.56,-426.52 374.14,-419.11 363.59,-420.17 366.56,-426.52"/>
<text text-anchor="middle" x="361.29" y="-430.74" font-family="Times,serif" font-size="14.00">*1</text>
</g>
<!-- node8 -->
<g id="node5" class="node">
<title>node8</title>
<polygon fill="lightgrey" stroke="transparent" points="310.27,-346 221.27,-346 221.27,-292 310.27,-292 310.27,-346"/>
<polygon fill="none" stroke="black" points="221.77,-319 221.77,-346 310.77,-346 310.77,-319 221.77,-319"/>
<text text-anchor="start" x="247.77" y="-328.8" font-family="Times,serif" font-size="14.00">#8 If</text>
<polygon fill="yellow" stroke="transparent" points="221.77,-292 221.77,-319 267.77,-319 267.77,-292 221.77,-292"/>
<polygon fill="none" stroke="black" points="221.77,-292 221.77,-319 267.77,-319 267.77,-292 221.77,-292"/>
<text text-anchor="start" x="227.77" y="-301.8" font-family="Times,serif" font-size="14.00">false</text>
<polygon fill="yellow" stroke="transparent" points="267.77,-292 267.77,-319 310.77,-319 310.77,-292 267.77,-292"/>
<polygon fill="none" stroke="black" points="267.77,-292 267.77,-319 310.77,-319 310.77,-292 267.77,-292"/>
<text text-anchor="start" x="273.77" y="-301.8" font-family="Times,serif" font-size="14.00">true</text>
</g>
<!-- node4&#45;&gt;node8 -->
<g id="edge8" class="edge">
<title>node4&#45;&gt;node8</title>
<path fill="none" stroke="red" d="M258.21,-455.73C257.75,-437.6 257.37,-408.27 258.77,-383 259.25,-374.41 260.09,-365.19 261.02,-356.52"/>
<polygon fill="red" stroke="red" points="264.53,-356.64 262.19,-346.31 257.58,-355.84 264.53,-356.64"/>
</g>
<!-- node15 -->
<g id="node9" class="node">
<title>node15</title>
<polygon fill="lightgrey" stroke="black" points="245.27,-36 72.27,-36 72.27,0 245.27,0 245.27,-36"/>
<text text-anchor="middle" x="158.77" y="-14.3" font-family="Times,serif" font-size="14.00">#15 ReturnValue : int</text>
</g>
<!-- node4&#45;&gt;node15 -->
<g id="edge15" class="edge">
<title>node4&#45;&gt;node15</title>
<path fill="none" stroke="green" d="M383.15,-466.76C456.57,-460.18 539.58,-446.68 562.77,-419 573.05,-406.74 568.16,-398.06 562.77,-383 501.17,-210.85 452.95,-167.84 301.77,-65 285.89,-54.19 267.31,-45.8 248.9,-39.32"/>
<polygon fill="green" stroke="green" points="249.89,-35.96 239.3,-36.11 247.67,-42.6 249.89,-35.96"/>
</g>
<!-- node3&#45;&gt;node4 -->
<g id="edge2" class="edge">
<title>node3&#45;&gt;node4</title>
<path fill="none" stroke="red" d="M206.48,-528.81C215.04,-520 225.61,-509.13 235,-499.46"/>
<polygon fill="red" stroke="red" points="237.76,-501.64 242.22,-492.03 232.74,-496.76 237.76,-501.64"/>
</g>
<!-- node7&#45;&gt;node8 -->
<g id="edge7" class="edge">
<title>node7&#45;&gt;node8</title>
<path fill="none" stroke="black" d="M344.75,-383.85C331.24,-378.97 317.56,-372.77 305.77,-365 300.85,-361.76 296.16,-357.76 291.83,-353.5"/>
<polygon fill="black" stroke="black" points="294.33,-351.04 284.92,-346.16 289.23,-355.84 294.33,-351.04"/>
<text text-anchor="middle" x="303.5" y="-349.86" font-family="Times,serif" font-size="14.00">*0</text>
</g>
<!-- node12 -->
<g id="node6" class="node">
<title>node12</title>
<polygon fill="lightgrey" stroke="black" points="230.27,-255 145.27,-255 145.27,-219 230.27,-219 230.27,-255"/>
<text text-anchor="middle" x="187.77" y="-233.3" font-family="Times,serif" font-size="14.00">#12 Goto</text>
</g>
<!-- node8&#45;&gt;node12 -->
<g id="edge9" class="edge">
<title>node8:prj10&#45;&gt;node12</title>
<path fill="none" stroke="red" d="M220.77,-305C211.38,-305 202.04,-283.52 195.71,-264.88"/>
<polygon fill="red" stroke="red" points="199,-263.7 192.6,-255.25 192.34,-265.85 199,-263.7"/>
</g>
<!-- node11 -->
<g id="node8" class="node">
<title>node11</title>
<polygon fill="lightgrey" stroke="black" points="376.77,-255 248.77,-255 248.77,-219 376.77,-219 376.77,-255"/>
<text text-anchor="middle" x="312.77" y="-233.3" font-family="Times,serif" font-size="14.00">#11 LabelNode</text>
</g>
<!-- node8&#45;&gt;node11 -->
<g id="edge12" class="edge">
<title>node8:prj9&#45;&gt;node11</title>
<path fill="none" stroke="red" d="M289.77,-292C289.77,-282.52 292.81,-272.81 296.67,-264.27"/>
<polygon fill="red" stroke="red" points="299.86,-265.72 301.27,-255.22 293.62,-262.55 299.86,-265.72"/>
</g>
<!-- node13 -->
<g id="node7" class="node">
<title>node13</title>
<polygon fill="lightgrey" stroke="black" points="289.77,-182 113.77,-182 113.77,-146 289.77,-146 289.77,-182"/>
<text text-anchor="middle" x="201.77" y="-160.3" font-family="Times,serif" font-size="14.00">#13 Merge : Merge12</text>
</g>
<!-- node12&#45;&gt;node13 -->
<g id="edge10" class="edge">
<title>node12&#45;&gt;node13</title>
<path fill="none" stroke="red" d="M191.16,-218.81C192.74,-210.79 194.67,-201.05 196.44,-192.07"/>
<polygon fill="red" stroke="red" points="199.91,-192.52 198.42,-182.03 193.05,-191.16 199.91,-192.52"/>
</g>
<!-- node13&#45;&gt;node15 -->
<g id="edge14" class="edge">
<title>node13&#45;&gt;node15</title>
<path fill="none" stroke="red" d="M178.56,-145.97C167.6,-136.47 155.66,-123.61 149.77,-109 141.69,-88.94 144.91,-64.41 149.61,-46.03"/>
<polygon fill="red" stroke="red" points="153.02,-46.84 152.39,-36.26 146.28,-44.92 153.02,-46.84"/>
</g>
<!-- node14 -->
<g id="node10" class="node">
<title>node14</title>
<polygon fill="lightgreen" stroke="black" points="280.27,-83.54 280.27,-98.46 244.83,-109 194.71,-109 159.27,-98.46 159.27,-83.54 194.71,-73 244.83,-73 280.27,-83.54"/>
<text text-anchor="middle" x="219.77" y="-87.3" font-family="Times,serif" font-size="14.00">#14 Φ int</text>
</g>
<!-- node13&#45;&gt;node14 -->
<g id="edge16" class="edge">
<title>node13&#45;&gt;node14</title>
<path fill="none" stroke="black" stroke-dasharray="1,5" d="M206.13,-145.81C208.19,-137.7 210.69,-127.84 212.98,-118.78"/>
<polygon fill="black" stroke="black" points="216.39,-119.58 215.46,-109.03 209.61,-117.86 216.39,-119.58"/>
</g>
<!-- node11&#45;&gt;node13 -->
<g id="edge11" class="edge">
<title>node11&#45;&gt;node13</title>
<path fill="none" stroke="red" d="M286.19,-218.99C271.47,-209.58 252.98,-197.76 237.07,-187.57"/>
<polygon fill="red" stroke="red" points="238.84,-184.55 228.53,-182.11 235.07,-190.45 238.84,-184.55"/>
</g>
<!-- node14&#45;&gt;node15 -->
<g id="edge13" class="edge">
<title>node14&#45;&gt;node15</title>
<path fill="none" stroke="black" d="M205.01,-72.81C197.51,-64.09 188.28,-53.34 180.03,-43.75"/>
<polygon fill="black" stroke="black" points="182.58,-41.33 173.4,-36.03 177.27,-45.89 182.58,-41.33"/>
<text text-anchor="middle" x="191.63" y="-40.57" font-family="Times,serif" font-size="14.00">*0</text>
</g>
<!-- node5&#45;&gt;node14 -->
<g id="edge17" class="edge">
<title>node5&#45;&gt;node14</title>
<path fill="none" stroke="blue" d="M438.99,-540.68C333.19,-529.76 104.24,-504.78 92.77,-492 -15.7,-371.14 -37.27,-243.6 75.77,-127 86.81,-115.62 120.6,-107.08 152.67,-101.29"/>
<polygon fill="blue" stroke="blue" points="153.29,-104.74 162.54,-99.58 152.09,-97.84 153.29,-104.74"/>
<text text-anchor="middle" x="146.12" y="-107.3" font-family="Times,serif" font-size="14.00">if #12</text>
</g>
<!-- node6&#45;&gt;node14 -->
<g id="edge18" class="edge">
<title>node6&#45;&gt;node14</title>
<path fill="none" stroke="blue" d="M585.8,-531.7C575.83,-527.54 564.52,-523.46 553.77,-521 507.31,-510.34 159.51,-525.67 125.77,-492 16.74,-383.16 22.17,-276.04 104.77,-146 117.5,-125.97 139.83,-113.24 161.46,-105.21"/>
<polygon fill="blue" stroke="blue" points="162.66,-108.5 170.98,-101.94 160.39,-101.88 162.66,-108.5"/>
<text text-anchor="middle" x="156.58" y="-112.12" font-family="Times,serif" font-size="14.00">if #11</text>
</g>
<!-- c0 -->
<!-- c1 -->
<!-- c0&#45;&gt;c1 -->
<g id="edge21" class="edge">
<title>c0&#45;&gt;c1</title>
<path fill="none" stroke="red" d="M1420.67,-629C1431.88,-629 1490.02,-629 1515.63,-629"/>
<polygon fill="red" stroke="red" points="1515.83,-632.5 1525.83,-629 1515.83,-625.5 1515.83,-632.5"/>
<text text-anchor="middle" x="1473.27" y="-635.8" font-family="Times,serif" font-size="14.00">Control flow</text>
</g>
<!-- c2 -->
<!-- c3 -->
<!-- c2&#45;&gt;c3 -->
<g id="edge22" class="edge">
<title>c2&#45;&gt;c3</title>
<path fill="none" stroke="red" stroke-dasharray="5,2" d="M1213.85,-629C1230.82,-629 1346.98,-629 1384.86,-629"/>
<polygon fill="red" stroke="red" points="1384.94,-632.5 1394.94,-629 1384.94,-625.5 1384.94,-632.5"/>
<text text-anchor="middle" x="1304.27" y="-635.8" font-family="Times,serif" font-size="14.00">Control flow back edge</text>
</g>
<!-- d0 -->
<!-- d1 -->
<!-- d0&#45;&gt;d1 -->
<g id="edge23" class="edge">
<title>d0&#45;&gt;d1</title>
<path fill="none" stroke="black" d="M1102.63,-629C1112.18,-629 1156.08,-629 1177.69,-629"/>
<polygon fill="black" stroke="black" points="1177.92,-632.5 1187.92,-629 1177.92,-625.5 1177.92,-632.5"/>
<text text-anchor="middle" x="1145.27" y="-635.8" font-family="Times,serif" font-size="14.00">Data flow</text>
</g>
<!-- d2 -->
<!-- d3 -->
<!-- d2&#45;&gt;d3 -->
<g id="edge24" class="edge">
<title>d2&#45;&gt;d3</title>
<path fill="none" stroke="black" stroke-dasharray="1,5" d="M976.58,-629C987.23,-629 1042.24,-629 1066.85,-629"/>
<polygon fill="black" stroke="black" points="1066.92,-632.5 1076.92,-629 1066.92,-625.5 1066.92,-632.5"/>
<text text-anchor="middle" x="1026.77" y="-635.8" font-family="Times,serif" font-size="14.00">Declaration</text>
</g>
<!-- d4 -->
<!-- d5 -->
<!-- d4&#45;&gt;d5 -->
<g id="edge25" class="edge">
<title>d4&#45;&gt;d5</title>
<path fill="none" stroke="blue" d="M833.87,-629C846.49,-629 912.65,-629 940.45,-629"/>
<polygon fill="blue" stroke="blue" points="940.62,-632.5 950.62,-629 940.62,-625.5 940.62,-632.5"/>
<text text-anchor="middle" x="892.27" y="-635.8" font-family="Times,serif" font-size="14.00">PHI Data flow</text>
</g>
<!-- d6 -->
<!-- d7 -->
<!-- d6&#45;&gt;d7 -->
<g id="edge26" class="edge">
<title>d6&#45;&gt;d7</title>
<path fill="none" stroke="green" d="M696.77,-629C708.71,-629 771.07,-629 797.7,-629"/>
<polygon fill="green" stroke="green" points="797.72,-632.5 807.72,-629 797.72,-625.5 797.72,-632.5"/>
<text text-anchor="middle" x="752.27" y="-635.8" font-family="Times,serif" font-size="14.00">Memory flow</text>
</g>
</g>
</svg>
