<?xml version="1.0" encoding="UTF-8" standalone="no"?>
<!DOCTYPE svg PUBLIC "-//W3C//DTD SVG 1.1//EN"
 "http://www.w3.org/Graphics/SVG/1.1/DTD/svg11.dtd">
<!-- Generated by graphviz version 2.43.0 (0)
 -->
<!-- Title: debugoutput Pages: 1 -->
<svg width="826pt" height="578pt"
 viewBox="0.00 0.00 825.50 577.80" xmlns="http://www.w3.org/2000/svg" xmlns:xlink="http://www.w3.org/1999/xlink">
<g id="graph0" class="graph" transform="scale(1 1) rotate(0) translate(4 573.8)">
<title>debugoutput</title>
<polygon fill="white" stroke="transparent" points="-4,4 -4,-573.8 821.5,-573.8 821.5,4 -4,4"/>
<g id="clust1" class="cluster">
<title>cluster_000</title>
<polygon fill="none" stroke="black" points="350.5,-519.2 350.5,-561.8 809.5,-561.8 809.5,-519.2 350.5,-519.2"/>
<text text-anchor="middle" x="580" y="-546.6" font-family="Times,serif" font-size="14.00">Legend</text>
</g>
<!-- node0 -->
<g id="node1" class="node">
<title>node0</title>
<polygon fill="lightgrey" stroke="black" points="340.5,-547 174.5,-547 174.5,-511 340.5,-511 340.5,-547"/>
<text text-anchor="middle" x="257.5" y="-525.3" font-family="Times,serif" font-size="14.00">#0 Method Order : 0</text>
</g>
<!-- node1 -->
<g id="node2" class="node">
<title>node1</title>
<polygon fill="lightgrey" stroke="black" points="351.5,-474 163.5,-474 163.5,-438 351.5,-438 351.5,-474"/>
<text text-anchor="middle" x="257.5" y="-452.3" font-family="Times,serif" font-size="14.00">#1 LabelNode Order : 1</text>
</g>
<!-- node0&#45;&gt;node1 -->
<g id="edge2" class="edge">
<title>node0&#45;&gt;node1</title>
<path fill="none" stroke="red" d="M251.62,-510.81C250.78,-502.79 250.55,-493.05 250.92,-484.07"/>
<polygon fill="red" stroke="red" points="254.42,-484.25 251.64,-474.03 247.44,-483.75 254.42,-484.25"/>
</g>
<!-- node1&#45;&gt;node0 -->
<g id="edge1" class="edge">
<title>node1&#45;&gt;node0</title>
<path fill="none" stroke="fuchsia" stroke-width="2" d="M263.36,-474.03C264.21,-482.03 264.45,-491.77 264.09,-500.75"/>
<polygon fill="fuchsia" stroke="fuchsia" stroke-width="2" points="260.59,-500.59 263.38,-510.81 267.57,-501.08 260.59,-500.59"/>
</g>
<!-- node2 -->
<g id="node3" class="node">
<title>node2</title>
<polygon fill="lightgrey" stroke="black" points="416,-401 99,-401 99,-365 416,-365 416,-401"/>
<text text-anchor="middle" x="257.5" y="-379.3" font-family="Times,serif" font-size="14.00">#2 Invoke virtual intValue : ()int Order : 2</text>
</g>
<!-- node1&#45;&gt;node2 -->
<g id="edge4" class="edge">
<title>node1&#45;&gt;node2</title>
<path fill="none" stroke="red" d="M251.62,-437.81C250.78,-429.79 250.55,-420.05 250.92,-411.07"/>
<polygon fill="red" stroke="red" points="254.42,-411.25 251.64,-401.03 247.44,-410.75 254.42,-411.25"/>
</g>
<!-- node2&#45;&gt;node1 -->
<g id="edge3" class="edge">
<title>node2&#45;&gt;node1</title>
<path fill="none" stroke="fuchsia" stroke-width="2" d="M263.36,-401.03C264.21,-409.03 264.45,-418.77 264.09,-427.75"/>
<polygon fill="fuchsia" stroke="fuchsia" stroke-width="2" points="260.59,-427.59 263.38,-437.81 267.57,-428.08 260.59,-427.59"/>
</g>
<!-- node3 -->
<g id="node4" class="node">
<title>node3</title>
<polygon fill="lightgrey" stroke="black" points="318.5,-328 196.5,-328 196.5,-292 318.5,-292 318.5,-328"/>
<text text-anchor="middle" x="257.5" y="-306.3" font-family="Times,serif" font-size="14.00">#3 If Order : 3</text>
</g>
<!-- node2&#45;&gt;node3 -->
<g id="edge6" class="edge">
<title>node2&#45;&gt;node3</title>
<path fill="none" stroke="red" d="M251.62,-364.81C250.78,-356.79 250.55,-347.05 250.92,-338.07"/>
<polygon fill="red" stroke="red" points="254.42,-338.25 251.64,-328.03 247.44,-337.75 254.42,-338.25"/>
</g>
<!-- node3&#45;&gt;node2 -->
<g id="edge5" class="edge">
<title>node3&#45;&gt;node2</title>
<path fill="none" stroke="fuchsia" stroke-width="2" d="M263.36,-328.03C264.21,-336.03 264.45,-345.77 264.09,-354.75"/>
<polygon fill="fuchsia" stroke="fuchsia" stroke-width="2" points="260.59,-354.59 263.38,-364.81 267.57,-355.08 260.59,-354.59"/>
</g>
<!-- node4 -->
<g id="node5" class="node">
<title>node4</title>
<polygon fill="lightgrey" stroke="black" points="163,-255 18,-255 18,-219 163,-219 163,-255"/>
<text text-anchor="middle" x="90.5" y="-233.3" font-family="Times,serif" font-size="14.00">#4 false Order : 6</text>
</g>
<!-- node3&#45;&gt;node4 -->
<g id="edge8" class="edge">
<title>node3&#45;&gt;node4</title>
<path fill="none" stroke="red" d="M211.64,-291.99C187.42,-282.14 157.93,-269.66 134.06,-259.17"/>
<polygon fill="red" stroke="red" points="135.44,-255.96 124.88,-255.11 132.61,-262.36 135.44,-255.96"/>
</g>
<!-- node5 -->
<g id="node6" class="node">
<title>node5</title>
<polygon fill="lightgrey" stroke="black" points="328,-255 187,-255 187,-219 328,-219 328,-255"/>
<text text-anchor="middle" x="257.5" y="-233.3" font-family="Times,serif" font-size="14.00">#5 true Order : 4</text>
</g>
<!-- node3&#45;&gt;node5 -->
<g id="edge10" class="edge">
<title>node3&#45;&gt;node5</title>
<path fill="none" stroke="red" d="M251.62,-291.81C250.78,-283.79 250.55,-274.05 250.92,-265.07"/>
<polygon fill="red" stroke="red" points="254.42,-265.25 251.64,-255.03 247.44,-264.75 254.42,-265.25"/>
</g>
<!-- node4&#45;&gt;node3 -->
<g id="edge7" class="edge">
<title>node4&#45;&gt;node3</title>
<path fill="none" stroke="fuchsia" stroke-width="2" d="M136.62,-255.11C160.88,-264.98 190.37,-277.47 214.2,-287.94"/>
<polygon fill="fuchsia" stroke="fuchsia" stroke-width="2" points="212.8,-291.15 223.36,-291.99 215.63,-284.75 212.8,-291.15"/>
</g>
<!-- node6 -->
<g id="node7" class="node">
<title>node6</title>
<polygon fill="lightgrey" stroke="black" points="145,-182 0,-182 0,-146 145,-146 145,-182"/>
<text text-anchor="middle" x="72.5" y="-160.3" font-family="Times,serif" font-size="14.00">#6 Goto Order : 7</text>
</g>
<!-- node4&#45;&gt;node6 -->
<g id="edge12" class="edge">
<title>node4&#45;&gt;node6</title>
<path fill="none" stroke="red" d="M80.26,-218.81C77.39,-210.79 74.69,-201.05 72.78,-192.07"/>
<polygon fill="red" stroke="red" points="76.19,-191.24 70.96,-182.03 69.3,-192.49 76.19,-191.24"/>
</g>
<!-- node5&#45;&gt;node3 -->
<g id="edge9" class="edge">
<title>node5&#45;&gt;node3</title>
<path fill="none" stroke="fuchsia" stroke-width="2" d="M263.36,-255.03C264.21,-263.03 264.45,-272.77 264.09,-281.75"/>
<polygon fill="fuchsia" stroke="fuchsia" stroke-width="2" points="260.59,-281.59 263.38,-291.81 267.57,-282.08 260.59,-281.59"/>
</g>
<!-- node7 -->
<g id="node8" class="node">
<title>node7</title>
<polygon fill="lightgrey" stroke="black" points="351.5,-182 163.5,-182 163.5,-146 351.5,-146 351.5,-182"/>
<text text-anchor="middle" x="257.5" y="-160.3" font-family="Times,serif" font-size="14.00">#7 LabelNode Order : 5</text>
</g>
<!-- node5&#45;&gt;node7 -->
<g id="edge14" class="edge">
<title>node5&#45;&gt;node7</title>
<path fill="none" stroke="red" d="M251.62,-218.81C250.78,-210.79 250.55,-201.05 250.92,-192.07"/>
<polygon fill="red" stroke="red" points="254.42,-192.25 251.64,-182.03 247.44,-191.75 254.42,-192.25"/>
</g>
<!-- node6&#45;&gt;node4 -->
<g id="edge11" class="edge">
<title>node6&#45;&gt;node4</title>
<path fill="none" stroke="fuchsia" stroke-width="2" d="M82.68,-182.03C85.55,-190.03 88.26,-199.77 90.18,-208.75"/>
<polygon fill="fuchsia" stroke="fuchsia" stroke-width="2" points="86.78,-209.61 92.02,-218.81 93.66,-208.35 86.78,-209.61"/>
</g>
<!-- node8 -->
<g id="node9" class="node">
<title>node8</title>
<polygon fill="lightgrey" stroke="black" points="375.5,-109 139.5,-109 139.5,-73 375.5,-73 375.5,-109"/>
<text text-anchor="middle" x="257.5" y="-87.3" font-family="Times,serif" font-size="14.00">#8 Merge : Merge12 Order : 8</text>
</g>
<!-- node6&#45;&gt;node8 -->
<g id="edge16" class="edge">
<title>node6&#45;&gt;node8</title>
<path fill="none" stroke="red" d="M116.81,-145.99C142.82,-136.01 175.88,-123.32 203.42,-112.76"/>
<polygon fill="red" stroke="red" points="204.83,-115.96 212.91,-109.11 202.32,-109.43 204.83,-115.96"/>
</g>
<!-- node7&#45;&gt;node5 -->
<g id="edge13" class="edge">
<title>node7&#45;&gt;node5</title>
<path fill="none" stroke="fuchsia" stroke-width="2" d="M263.36,-182.03C264.21,-190.03 264.45,-199.77 264.09,-208.75"/>
<polygon fill="fuchsia" stroke="fuchsia" stroke-width="2" points="260.59,-208.59 263.38,-218.81 267.57,-209.08 260.59,-208.59"/>
</g>
<!-- node7&#45;&gt;node8 -->
<g id="edge17" class="edge">
<title>node7&#45;&gt;node8</title>
<path fill="none" stroke="red" d="M257.5,-145.81C257.5,-137.79 257.5,-128.05 257.5,-119.07"/>
<polygon fill="red" stroke="red" points="261,-119.03 257.5,-109.03 254,-119.03 261,-119.03"/>
</g>
<!-- node8&#45;&gt;node3 -->
<g id="edge15" class="edge">
<title>node8&#45;&gt;node3</title>
<path fill="none" stroke="fuchsia" stroke-width="2" d="M315.34,-109.1C332.94,-117.31 350.31,-129.16 360.5,-146 386.17,-188.45 366.3,-215.34 336.5,-255 327.17,-267.41 314.13,-277.95 301.33,-286.34"/>
<polygon fill="fuchsia" stroke="fuchsia" stroke-width="2" points="299.2,-283.55 292.55,-291.8 302.89,-289.49 299.2,-283.55"/>
</g>
<!-- node9 -->
<g id="node10" class="node">
<title>node9</title>
<polygon fill="lightgrey" stroke="black" points="374,-36 141,-36 141,0 374,0 374,-36"/>
<text text-anchor="middle" x="257.5" y="-14.3" font-family="Times,serif" font-size="14.00">#9 ReturnValue : int Order : 9</text>
</g>
<!-- node8&#45;&gt;node9 -->
<g id="edge19" class="edge">
<title>node8&#45;&gt;node9</title>
<path fill="none" stroke="red" d="M251.62,-72.81C250.78,-64.79 250.55,-55.05 250.92,-46.07"/>
<polygon fill="red" stroke="red" points="254.42,-46.25 251.64,-36.03 247.44,-45.75 254.42,-46.25"/>
</g>
<!-- node9&#45;&gt;node8 -->
<g id="edge18" class="edge">
<title>node9&#45;&gt;node8</title>
<path fill="none" stroke="fuchsia" stroke-width="2" d="M263.36,-36.03C264.21,-44.03 264.45,-53.77 264.09,-62.75"/>
<polygon fill="fuchsia" stroke="fuchsia" stroke-width="2" points="260.59,-62.59 263.38,-72.81 267.57,-63.08 260.59,-62.59"/>
</g>
<!-- c0 -->
<!-- c1 -->
<!-- c0&#45;&gt;c1 -->
<g id="edge20" class="edge">
<title>c0&#45;&gt;c1</title>
<path fill="none" stroke="red" d="M692.39,-529C703.61,-529 761.74,-529 787.36,-529"/>
<polygon fill="red" stroke="red" points="787.56,-532.5 797.56,-529 787.56,-525.5 787.56,-532.5"/>
<text text-anchor="middle" x="745" y="-535.8" font-family="Times,serif" font-size="14.00">Control flow</text>
</g>
<!-- c2 -->
<!-- c3 -->
<!-- c2&#45;&gt;c3 -->
<g id="edge21" class="edge">
<title>c2&#45;&gt;c3</title>
<path fill="none" stroke="red" stroke-dasharray="5,2" d="M485.58,-529C502.55,-529 618.71,-529 656.58,-529"/>
<polygon fill="red" stroke="red" points="656.67,-532.5 666.67,-529 656.67,-525.5 656.67,-532.5"/>
<text text-anchor="middle" x="576" y="-535.8" font-family="Times,serif" font-size="14.00">Control flow back edge</text>
</g>
<!-- d8 -->
<!-- d9 -->
<!-- d8&#45;&gt;d9 -->
<g id="edge22" class="edge">
<title>d8&#45;&gt;d9</title>
<path fill="none" stroke="fuchsia" d="M362.61,-529C373.65,-529 425.17,-529 449.16,-529"/>
<polygon fill="fuchsia" stroke="fuchsia" points="449.4,-532.5 459.4,-529 449.4,-525.5 449.4,-532.5"/>
<text text-anchor="middle" x="411" y="-535.8" font-family="Times,serif" font-size="14.00">Dominance</text>
</g>
</g>
</svg>
