<?xml version="1.0" encoding="UTF-8" standalone="no"?>
<!DOCTYPE svg PUBLIC "-//W3C//DTD SVG 1.1//EN"
 "http://www.w3.org/Graphics/SVG/1.1/DTD/svg11.dtd">
<!-- Generated by graphviz version 2.43.0 (0)
 -->
<!-- Title: debugoutput Pages: 1 -->
<svg width="1591pt" height="724pt"
 viewBox="0.00 0.00 1591.00 723.80" xmlns="http://www.w3.org/2000/svg" xmlns:xlink="http://www.w3.org/1999/xlink">
<g id="graph0" class="graph" transform="scale(1 1) rotate(0) translate(4 719.8)">
<title>debugoutput</title>
<polygon fill="white" stroke="transparent" points="-4,4 -4,-719.8 1587,-719.8 1587,4 -4,4"/>
<g id="clust1" class="cluster">
<title>cluster_000</title>
<polygon fill="none" stroke="black" points="736,-665.2 736,-707.8 1575,-707.8 1575,-665.2 736,-665.2"/>
<text text-anchor="middle" x="1155.5" y="-692.6" font-family="Times,serif" font-size="14.00">Legend</text>
</g>
<!-- node0 -->
<g id="node1" class="node">
<title>node0</title>
<polygon fill="lightgrey" stroke="black" points="726,-693 560,-693 560,-657 726,-657 726,-693"/>
<text text-anchor="middle" x="643" y="-671.3" font-family="Times,serif" font-size="14.00">#0 Method Order : 0</text>
</g>
<!-- node1 -->
<g id="node2" class="node">
<title>node1</title>
<polygon fill="lightgrey" stroke="black" points="1357,-620 1147,-620 1147,-584 1357,-584 1357,-620"/>
<text text-anchor="middle" x="1252" y="-598.3" font-family="Times,serif" font-size="14.00">#1 arg1 : Integer Order : 5</text>
</g>
<!-- node0&#45;&gt;node1 -->
<g id="edge2" class="edge">
<title>node0&#45;&gt;node1</title>
<path fill="none" stroke="black" d="M723.26,-656.96C902.47,-631.76 949.19,-641.58 1129,-620 1131.56,-619.69 1134.16,-619.37 1136.78,-619.04"/>
<polygon fill="black" stroke="black" points="1137.5,-622.48 1146.97,-617.72 1136.6,-615.54 1137.5,-622.48"/>
<text text-anchor="middle" x="1130.08" y="-624.73" font-family="Times,serif" font-size="14.00">*0</text>
</g>
<!-- node2 -->
<g id="node3" class="node">
<title>node2</title>
<polygon fill="lightgrey" stroke="black" points="314.5,-620 137.5,-620 137.5,-584 314.5,-584 314.5,-620"/>
<text text-anchor="middle" x="226" y="-598.3" font-family="Times,serif" font-size="14.00">#2 arg0 : int Order : 4</text>
</g>
<!-- node0&#45;&gt;node2 -->
<g id="edge4" class="edge">
<title>node0&#45;&gt;node2</title>
<path fill="none" stroke="black" d="M559.9,-670.44C493.77,-666.26 399.46,-657.41 319,-639 302.17,-635.15 284.28,-629.42 268.67,-623.66"/>
<polygon fill="black" stroke="black" points="269.87,-620.37 259.28,-620.09 267.38,-626.92 269.87,-620.37"/>
<text text-anchor="middle" x="279.22" y="-614.93" font-family="Times,serif" font-size="14.00">*0</text>
</g>
<!-- node3 -->
<g id="node4" class="node">
<title>node3</title>
<polygon fill="lightgrey" stroke="black" points="801.5,-547 484.5,-547 484.5,-511 801.5,-511 801.5,-547"/>
<text text-anchor="middle" x="643" y="-525.3" font-family="Times,serif" font-size="14.00">#3 Invoke virtual intValue : ()int Order : 6</text>
</g>
<!-- node0&#45;&gt;node3 -->
<g id="edge8" class="edge">
<title>node0&#45;&gt;node3</title>
<path fill="none" stroke="black" d="M638.45,-656.92C635.84,-632.23 635.55,-586.35 637.59,-557.04"/>
<polygon fill="black" stroke="black" points="641.08,-557.32 638.45,-547.06 634.11,-556.73 641.08,-557.32"/>
</g>
<!-- node11 -->
<g id="node5" class="node">
<title>node11</title>
<polygon fill="lightgrey" stroke="black" points="605.5,-620 408.5,-620 408.5,-584 605.5,-584 605.5,-620"/>
<text text-anchor="middle" x="507" y="-598.3" font-family="Times,serif" font-size="14.00">#11 LabelNode Order : 3</text>
</g>
<!-- node0&#45;&gt;node11 -->
<g id="edge27" class="edge">
<title>node0&#45;&gt;node11</title>
<path fill="none" stroke="red" d="M604.57,-656.99C585.18,-647.4 561.88,-635.32 542.86,-625.01"/>
<polygon fill="red" stroke="red" points="544.36,-621.84 533.91,-620.11 541,-627.98 544.36,-621.84"/>
</g>
<!-- node12 -->
<g id="node13" class="node">
<title>node12</title>
<polygon fill="lightgreen" stroke="black" points="895.77,-594.54 895.77,-609.46 832.64,-620 743.36,-620 680.23,-609.46 680.23,-594.54 743.36,-584 832.64,-584 895.77,-594.54"/>
<text text-anchor="middle" x="788" y="-598.3" font-family="Times,serif" font-size="14.00">#12 int 0 Order : 2</text>
</g>
<!-- node0&#45;&gt;node12 -->
<g id="edge29" class="edge">
<title>node0&#45;&gt;node12</title>
<path fill="none" stroke="black" stroke-dasharray="1,5" d="M671.87,-656.99C690.78,-647.23 715.87,-634.88 737.94,-624.45"/>
<polygon fill="black" stroke="black" points="739.61,-627.53 747.18,-620.11 736.64,-621.19 739.61,-627.53"/>
</g>
<!-- node13 -->
<g id="node14" class="node">
<title>node13</title>
<polygon fill="lightgreen" stroke="black" points="1128.77,-594.54 1128.77,-609.46 1065.64,-620 976.36,-620 913.23,-609.46 913.23,-594.54 976.36,-584 1065.64,-584 1128.77,-594.54"/>
<text text-anchor="middle" x="1021" y="-598.3" font-family="Times,serif" font-size="14.00">#13 int 1 Order : 1</text>
</g>
<!-- node0&#45;&gt;node13 -->
<g id="edge31" class="edge">
<title>node0&#45;&gt;node13</title>
<path fill="none" stroke="black" stroke-dasharray="1,5" d="M723.38,-656.93C795.53,-643.3 877.78,-627.95 937.57,-617.12"/>
<polygon fill="black" stroke="black" points="938.49,-620.51 947.71,-615.29 937.25,-613.62 938.49,-620.51"/>
</g>
<!-- node1&#45;&gt;node0 -->
<g id="edge1" class="edge">
<title>node1&#45;&gt;node0</title>
<path fill="none" stroke="green" stroke-width="2" d="M1146.74,-620.03C967.05,-641.58 920.34,-631.76 741,-657 739.49,-657.21 737.97,-657.43 736.44,-657.66"/>
<polygon fill="green" stroke="green" stroke-width="2" points="735.53,-654.26 726.19,-659.26 736.61,-661.18 735.53,-654.26"/>
</g>
<!-- node1&#45;&gt;node3 -->
<g id="edge6" class="edge">
<title>node1&#45;&gt;node3</title>
<path fill="none" stroke="black" d="M1183.75,-583.92C1154.17,-577.09 1119.05,-569.74 1087,-565 996.5,-551.62 894.81,-543.14 811.61,-537.87"/>
<polygon fill="black" stroke="black" points="811.76,-534.38 801.56,-537.25 811.32,-541.36 811.76,-534.38"/>
<text text-anchor="middle" x="820.17" y="-526.24" font-family="Times,serif" font-size="14.00">*0</text>
</g>
<!-- node2&#45;&gt;node0 -->
<g id="edge3" class="edge">
<title>node2&#45;&gt;node0</title>
<path fill="none" stroke="green" stroke-width="2" d="M275.81,-620.09C294.81,-626.96 316.68,-634.35 337,-639 407.5,-655.13 488.64,-663.93 549.69,-668.66"/>
<polygon fill="green" stroke="green" stroke-width="2" points="549.46,-672.16 559.7,-669.42 549.99,-665.18 549.46,-672.16"/>
</g>
<!-- node10 -->
<g id="node7" class="node">
<title>node10</title>
<polygon fill="orange" stroke="black" points="423.86,-448.54 423.86,-463.46 307.96,-474 144.04,-474 28.14,-463.46 28.14,-448.54 144.04,-438 307.96,-438 423.86,-448.54"/>
<text text-anchor="middle" x="226" y="-452.3" font-family="Times,serif" font-size="14.00">#10 NumericCondition : LT Order : 7</text>
</g>
<!-- node2&#45;&gt;node10 -->
<g id="edge24" class="edge">
<title>node2&#45;&gt;node10</title>
<path fill="none" stroke="black" d="M226,-583.92C226,-559.34 226,-513.75 226,-484.43"/>
<polygon fill="black" stroke="black" points="229.5,-484.06 226,-474.06 222.5,-484.06 229.5,-484.06"/>
<text text-anchor="middle" x="234.45" y="-488.49" font-family="Times,serif" font-size="14.00">*0</text>
</g>
<!-- node3&#45;&gt;node0 -->
<g id="edge5" class="edge">
<title>node3&#45;&gt;node0</title>
<path fill="none" stroke="green" stroke-width="2" d="M647.55,-547.06C650.16,-571.73 650.45,-617.61 648.41,-646.93"/>
<polygon fill="green" stroke="green" stroke-width="2" points="644.92,-646.65 647.55,-656.92 651.9,-647.25 644.92,-646.65"/>
</g>
<!-- node4 -->
<g id="node6" class="node">
<title>node4</title>
<polygon fill="lightgrey" stroke="black" points="459,-401 337,-401 337,-365 459,-365 459,-401"/>
<text text-anchor="middle" x="398" y="-379.3" font-family="Times,serif" font-size="14.00">#4 If Order : 8</text>
</g>
<!-- node3&#45;&gt;node4 -->
<g id="edge11" class="edge">
<title>node3&#45;&gt;node4</title>
<path fill="none" stroke="red" d="M616.69,-510.92C582.45,-488.9 520.53,-449.77 466,-419 458.19,-414.59 449.76,-410.07 441.59,-405.81"/>
<polygon fill="red" stroke="red" points="443.01,-402.6 432.52,-401.12 439.79,-408.82 443.01,-402.6"/>
</g>
<!-- node3&#45;&gt;node10 -->
<g id="edge25" class="edge">
<title>node3&#45;&gt;node10</title>
<path fill="none" stroke="black" d="M543.12,-510.99C478.6,-500.01 394.84,-485.75 329.6,-474.64"/>
<polygon fill="black" stroke="black" points="330.15,-471.18 319.71,-472.95 328.98,-478.08 330.15,-471.18"/>
<text text-anchor="middle" x="338.99" y="-463.96" font-family="Times,serif" font-size="14.00">*1</text>
</g>
<!-- node15 -->
<g id="node16" class="node">
<title>node15</title>
<polygon fill="lightgrey" stroke="black" points="693.5,-36 442.5,-36 442.5,0 693.5,0 693.5,-36"/>
<text text-anchor="middle" x="568" y="-14.3" font-family="Times,serif" font-size="14.00">#15 ReturnValue : int Order : 15</text>
</g>
<!-- node3&#45;&gt;node15 -->
<g id="edge39" class="edge">
<title>node3&#45;&gt;node15</title>
<path fill="none" stroke="black" d="M665.78,-510.74C680.15,-497.75 696,-478.53 696,-457 696,-457 696,-457 696,-90 696,-66.65 679.51,-50.92 658.37,-40.34"/>
<polygon fill="black" stroke="black" points="659.62,-37.06 649.06,-36.12 656.72,-43.44 659.62,-37.06"/>
</g>
<!-- node11&#45;&gt;node0 -->
<g id="edge26" class="edge">
<title>node11&#45;&gt;node0</title>
<path fill="none" stroke="green" stroke-width="2" d="M545.65,-620.11C565.07,-629.72 588.36,-641.81 607.35,-652.1"/>
<polygon fill="green" stroke="green" stroke-width="2" points="605.83,-655.26 616.28,-656.99 609.19,-649.12 605.83,-655.26"/>
</g>
<!-- node11&#45;&gt;node3 -->
<g id="edge7" class="edge">
<title>node11&#45;&gt;node3</title>
<path fill="none" stroke="red" d="M539.58,-583.99C558.03,-574.36 581.31,-562.21 601.11,-551.87"/>
<polygon fill="red" stroke="red" points="602.97,-554.84 610.22,-547.11 599.73,-548.64 602.97,-554.84"/>
</g>
<!-- node4&#45;&gt;node0 -->
<g id="edge9" class="edge">
<title>node4&#45;&gt;node0</title>
<path fill="none" stroke="green" stroke-width="2" d="M412.82,-401.19C420.47,-411.21 429.01,-424.5 433,-438 437.54,-453.34 438.22,-458.88 433,-474 426.18,-493.75 411.49,-491.49 404,-511 393.43,-538.53 389.98,-608.77 399,-620 418.01,-643.67 489.16,-657.6 549.76,-665.37"/>
<polygon fill="green" stroke="green" stroke-width="2" points="549.42,-668.85 559.78,-666.61 550.28,-661.9 549.42,-668.85"/>
</g>
<!-- node5 -->
<g id="node8" class="node">
<title>node5</title>
<polygon fill="lightgrey" stroke="black" points="550,-328 400,-328 400,-292 550,-292 550,-328"/>
<text text-anchor="middle" x="475" y="-306.3" font-family="Times,serif" font-size="14.00">#5 true Order : 11</text>
</g>
<!-- node4&#45;&gt;node5 -->
<g id="edge13" class="edge">
<title>node4&#45;&gt;node5</title>
<path fill="none" stroke="red" d="M410.76,-364.81C419.65,-355.74 431.69,-344.48 443,-334.6"/>
<polygon fill="red" stroke="red" points="445.36,-337.19 450.67,-328.03 440.8,-331.88 445.36,-337.19"/>
</g>
<!-- node7 -->
<g id="node10" class="node">
<title>node7</title>
<polygon fill="lightgrey" stroke="black" points="336.5,-328 191.5,-328 191.5,-292 336.5,-292 336.5,-328"/>
<text text-anchor="middle" x="264" y="-306.3" font-family="Times,serif" font-size="14.00">#7 false Order : 9</text>
</g>
<!-- node4&#45;&gt;node7 -->
<g id="edge17" class="edge">
<title>node4&#45;&gt;node7</title>
<path fill="none" stroke="red" d="M360.04,-364.99C340.93,-355.4 317.97,-343.32 299.24,-333.01"/>
<polygon fill="red" stroke="red" points="300.87,-329.91 290.43,-328.11 297.47,-336.03 300.87,-329.91"/>
</g>
<!-- node10&#45;&gt;node0 -->
<g id="edge23" class="edge">
<title>node10&#45;&gt;node0</title>
<path fill="none" stroke="green" stroke-width="2" d="M239.18,-474.31C273.61,-519.51 363.76,-637.72 366,-639 396.55,-656.51 481.65,-665.42 549.54,-669.85"/>
<polygon fill="green" stroke="green" stroke-width="2" points="549.64,-673.36 559.84,-670.5 550.08,-666.38 549.64,-673.36"/>
</g>
<!-- node10&#45;&gt;node4 -->
<g id="edge10" class="edge">
<title>node10&#45;&gt;node4</title>
<path fill="none" stroke="black" d="M267.2,-437.99C291.17,-428.1 321.58,-415.54 347.05,-405.03"/>
<polygon fill="black" stroke="black" points="348.63,-408.16 356.54,-401.11 345.96,-401.69 348.63,-408.16"/>
<text text-anchor="middle" x="343.01" y="-412.14" font-family="Times,serif" font-size="14.00">*0</text>
</g>
<!-- node5&#45;&gt;node4 -->
<g id="edge12" class="edge">
<title>node5&#45;&gt;node4</title>
<path fill="none" stroke="green" stroke-width="2" d="M462.39,-328.03C453.54,-337.07 441.51,-348.33 430.19,-358.23"/>
<polygon fill="green" stroke="green" stroke-width="2" points="427.83,-355.64 422.52,-364.81 432.39,-360.96 427.83,-355.64"/>
</g>
<!-- node6 -->
<g id="node9" class="node">
<title>node6</title>
<polygon fill="lightgrey" stroke="black" points="591.5,-255 394.5,-255 394.5,-219 591.5,-219 591.5,-255"/>
<text text-anchor="middle" x="493" y="-233.3" font-family="Times,serif" font-size="14.00">#6 LabelNode Order : 12</text>
</g>
<!-- node5&#45;&gt;node6 -->
<g id="edge15" class="edge">
<title>node5&#45;&gt;node6</title>
<path fill="none" stroke="red" d="M473.48,-291.81C474.69,-283.7 476.96,-273.84 479.65,-264.78"/>
<polygon fill="red" stroke="red" points="483.05,-265.62 482.82,-255.03 476.4,-263.45 483.05,-265.62"/>
</g>
<!-- node6&#45;&gt;node5 -->
<g id="edge14" class="edge">
<title>node6&#45;&gt;node5</title>
<path fill="none" stroke="green" stroke-width="2" d="M494.54,-255.03C493.35,-263.12 491.09,-272.98 488.41,-282.05"/>
<polygon fill="green" stroke="green" stroke-width="2" points="484.99,-281.22 485.24,-291.81 491.65,-283.38 484.99,-281.22"/>
</g>
<!-- node9 -->
<g id="node12" class="node">
<title>node9</title>
<polygon fill="lightgrey" stroke="black" points="499.5,-182 254.5,-182 254.5,-146 499.5,-146 499.5,-182"/>
<text text-anchor="middle" x="377" y="-160.3" font-family="Times,serif" font-size="14.00">#9 Merge : Merge12 Order : 13</text>
</g>
<!-- node6&#45;&gt;node9 -->
<g id="edge22" class="edge">
<title>node6&#45;&gt;node9</title>
<path fill="none" stroke="red" d="M465.22,-218.99C449.83,-209.58 430.52,-197.76 413.88,-187.57"/>
<polygon fill="red" stroke="red" points="415.32,-184.35 404.96,-182.11 411.66,-190.32 415.32,-184.35"/>
</g>
<!-- node7&#45;&gt;node4 -->
<g id="edge16" class="edge">
<title>node7&#45;&gt;node4</title>
<path fill="none" stroke="green" stroke-width="2" d="M302.17,-328.11C321.31,-337.72 344.27,-349.81 362.96,-360.1"/>
<polygon fill="green" stroke="green" stroke-width="2" points="361.32,-363.2 371.76,-364.99 364.72,-357.08 361.32,-363.2"/>
</g>
<!-- node8 -->
<g id="node11" class="node">
<title>node8</title>
<polygon fill="lightgrey" stroke="black" points="338,-255 184,-255 184,-219 338,-219 338,-255"/>
<text text-anchor="middle" x="261" y="-233.3" font-family="Times,serif" font-size="14.00">#8 Goto Order : 10</text>
</g>
<!-- node7&#45;&gt;node8 -->
<g id="edge19" class="edge">
<title>node7&#45;&gt;node8</title>
<path fill="none" stroke="red" d="M257.4,-291.81C256.22,-283.79 255.57,-274.05 255.57,-265.07"/>
<polygon fill="red" stroke="red" points="259.07,-265.13 255.86,-255.03 252.07,-264.92 259.07,-265.13"/>
</g>
<!-- node8&#45;&gt;node7 -->
<g id="edge18" class="edge">
<title>node8&#45;&gt;node7</title>
<path fill="none" stroke="green" stroke-width="2" d="M267.58,-255.03C268.77,-263.03 269.42,-272.77 269.43,-281.75"/>
<polygon fill="green" stroke="green" stroke-width="2" points="265.93,-281.72 269.15,-291.81 272.93,-281.91 265.93,-281.72"/>
</g>
<!-- node8&#45;&gt;node9 -->
<g id="edge21" class="edge">
<title>node8&#45;&gt;node9</title>
<path fill="none" stroke="red" d="M288.78,-218.99C304.17,-209.58 323.48,-197.76 340.12,-187.57"/>
<polygon fill="red" stroke="red" points="342.34,-190.32 349.04,-182.11 338.68,-184.35 342.34,-190.32"/>
</g>
<!-- node9&#45;&gt;node4 -->
<g id="edge20" class="edge">
<title>node9&#45;&gt;node4</title>
<path fill="none" stroke="green" stroke-width="2" d="M378.23,-182.15C380.41,-211.89 385.28,-274.91 391,-328 391.95,-336.82 393.14,-346.43 394.28,-355.07"/>
<polygon fill="green" stroke="green" stroke-width="2" points="390.81,-355.55 395.6,-365 397.75,-354.62 390.81,-355.55"/>
</g>
<!-- node14 -->
<g id="node15" class="node">
<title>node14</title>
<polygon fill="lightgreen" stroke="black" points="492.25,-83.54 492.25,-98.46 424.74,-109 329.26,-109 261.75,-98.46 261.75,-83.54 329.26,-73 424.74,-73 492.25,-83.54"/>
<text text-anchor="middle" x="377" y="-87.3" font-family="Times,serif" font-size="14.00">#14 Φ int Order : 14</text>
</g>
<!-- node9&#45;&gt;node14 -->
<g id="edge33" class="edge">
<title>node9&#45;&gt;node14</title>
<path fill="none" stroke="black" stroke-dasharray="1,5" d="M377,-145.81C377,-137.79 377,-128.05 377,-119.07"/>
<polygon fill="black" stroke="black" points="380.5,-119.03 377,-109.03 373.5,-119.03 380.5,-119.03"/>
</g>
<!-- node9&#45;&gt;node15 -->
<g id="edge38" class="edge">
<title>node9&#45;&gt;node15</title>
<path fill="none" stroke="red" d="M432.56,-145.89C455.26,-137.17 480.86,-124.98 501,-109 523.26,-91.33 541.91,-64.57 553.83,-44.82"/>
<polygon fill="red" stroke="red" points="556.95,-46.43 558.98,-36.03 550.91,-42.89 556.95,-46.43"/>
</g>
<!-- node12&#45;&gt;node0 -->
<g id="edge28" class="edge">
<title>node12&#45;&gt;node0</title>
<path fill="none" stroke="green" stroke-width="2" d="M758.92,-620.11C739.97,-629.9 714.86,-642.25 692.82,-652.66"/>
<polygon fill="green" stroke="green" stroke-width="2" points="691.16,-649.58 683.59,-656.99 694.13,-655.92 691.16,-649.58"/>
</g>
<!-- node12&#45;&gt;node14 -->
<g id="edge35" class="edge">
<title>node12&#45;&gt;node14</title>
<path fill="none" stroke="blue" d="M692.34,-592.43C595.65,-582.77 458.21,-565.94 442,-547 389.39,-485.54 635.19,-291.85 600,-219 571.72,-160.46 503.23,-127.39 449.55,-109.78"/>
<polygon fill="blue" stroke="blue" points="450.31,-106.35 439.72,-106.67 448.2,-113.02 450.31,-106.35"/>
<text text-anchor="middle" x="459.55" y="-100.38" font-family="Times,serif" font-size="14.00">if #6</text>
</g>
<!-- node13&#45;&gt;node0 -->
<g id="edge30" class="edge">
<title>node13&#45;&gt;node0</title>
<path fill="none" stroke="green" stroke-width="2" d="M955.25,-616.57C898.5,-627.44 814.48,-643.12 741,-657 739.5,-657.28 737.99,-657.57 736.47,-657.86"/>
<polygon fill="green" stroke="green" stroke-width="2" points="735.45,-654.49 726.28,-659.79 736.76,-661.36 735.45,-654.49"/>
</g>
<!-- node13&#45;&gt;node14 -->
<g id="edge34" class="edge">
<title>node13&#45;&gt;node14</title>
<path fill="none" stroke="blue" d="M944.96,-589.19C931.66,-587.32 917.94,-585.5 905,-584 857.37,-578.47 507.42,-582.33 475,-547 425.54,-493.1 448.25,-600.82 586,-328 608.65,-283.15 629.97,-267.27 616,-219 611,-201.73 587.96,-162.43 566,-146 539.13,-125.9 505.02,-113.27 473.2,-105.34"/>
<polygon fill="blue" stroke="blue" points="473.94,-101.92 463.4,-103.03 472.33,-108.74 473.94,-101.92"/>
<text text-anchor="middle" x="482.99" y="-95.27" font-family="Times,serif" font-size="14.00">if #8</text>
</g>
<!-- node14&#45;&gt;node0 -->
<g id="edge32" class="edge">
<title>node14&#45;&gt;node0</title>
<path fill="none" stroke="green" stroke-width="2" d="M261.58,-91.87C150.74,-94.97 0,-109.09 0,-163 0,-603 0,-603 0,-603 0,-657.64 371.54,-670.24 549.77,-673.14"/>
<polygon fill="green" stroke="green" stroke-width="2" points="549.87,-676.64 559.93,-673.29 549.98,-669.64 549.87,-676.64"/>
</g>
<!-- node14&#45;&gt;node15 -->
<g id="edge37" class="edge">
<title>node14&#45;&gt;node15</title>
<path fill="none" stroke="black" d="M422.75,-72.99C449.72,-62.97 484.03,-50.21 512.54,-39.62"/>
<polygon fill="black" stroke="black" points="513.81,-42.88 521.96,-36.11 511.37,-36.32 513.81,-42.88"/>
<text text-anchor="middle" x="507.92" y="-46.65" font-family="Times,serif" font-size="14.00">*0</text>
</g>
<!-- node15&#45;&gt;node0 -->
<g id="edge36" class="edge">
<title>node15&#45;&gt;node0</title>
<path fill="none" stroke="green" stroke-width="2" d="M693.87,-23.61C923.04,-32.86 1385,-55.74 1385,-90 1385,-603 1385,-603 1385,-603 1385,-673.24 844.36,-649.86 736.36,-656.85"/>
<polygon fill="green" stroke="green" stroke-width="2" points="735.98,-653.37 726.33,-657.74 736.6,-660.34 735.98,-653.37"/>
</g>
<!-- c0 -->
<!-- c1 -->
<!-- c0&#45;&gt;c1 -->
<g id="edge40" class="edge">
<title>c0&#45;&gt;c1</title>
<path fill="none" stroke="red" d="M1457.89,-675C1469.11,-675 1527.24,-675 1552.86,-675"/>
<polygon fill="red" stroke="red" points="1553.06,-678.5 1563.06,-675 1553.06,-671.5 1553.06,-678.5"/>
<text text-anchor="middle" x="1510.5" y="-681.8" font-family="Times,serif" font-size="14.00">Control flow</text>
</g>
<!-- c2 -->
<!-- c3 -->
<!-- c2&#45;&gt;c3 -->
<g id="edge41" class="edge">
<title>c2&#45;&gt;c3</title>
<path fill="none" stroke="red" stroke-dasharray="5,2" d="M1251.08,-675C1268.05,-675 1384.21,-675 1422.08,-675"/>
<polygon fill="red" stroke="red" points="1422.17,-678.5 1432.17,-675 1422.17,-671.5 1422.17,-678.5"/>
<text text-anchor="middle" x="1341.5" y="-681.8" font-family="Times,serif" font-size="14.00">Control flow back edge</text>
</g>
<!-- d0 -->
<!-- d1 -->
<!-- d0&#45;&gt;d1 -->
<g id="edge42" class="edge">
<title>d0&#45;&gt;d1</title>
<path fill="none" stroke="black" d="M1139.86,-675C1149.41,-675 1193.31,-675 1214.92,-675"/>
<polygon fill="black" stroke="black" points="1215.15,-678.5 1225.15,-675 1215.15,-671.5 1215.15,-678.5"/>
<text text-anchor="middle" x="1182.5" y="-681.8" font-family="Times,serif" font-size="14.00">Data flow</text>
</g>
<!-- d2 -->
<!-- d3 -->
<!-- d2&#45;&gt;d3 -->
<g id="edge43" class="edge">
<title>d2&#45;&gt;d3</title>
<path fill="none" stroke="black" stroke-dasharray="1,5" d="M1013.81,-675C1024.46,-675 1079.46,-675 1104.08,-675"/>
<polygon fill="black" stroke="black" points="1104.15,-678.5 1114.15,-675 1104.15,-671.5 1104.15,-678.5"/>
<text text-anchor="middle" x="1064" y="-681.8" font-family="Times,serif" font-size="14.00">Declaration</text>
</g>
<!-- d4 -->
<!-- d5 -->
<!-- d4&#45;&gt;d5 -->
<g id="edge44" class="edge">
<title>d4&#45;&gt;d5</title>
<path fill="none" stroke="blue" d="M871.1,-675C883.72,-675 949.88,-675 977.68,-675"/>
<polygon fill="blue" stroke="blue" points="977.84,-678.5 987.84,-675 977.84,-671.5 977.84,-678.5"/>
<text text-anchor="middle" x="929.5" y="-681.8" font-family="Times,serif" font-size="14.00">PHI Data flow</text>
</g>
<!-- d6 -->
<!-- d7 -->
<!-- d6&#45;&gt;d7 -->
<g id="edge45" class="edge">
<title>d6&#45;&gt;d7</title>
<path fill="none" stroke="green" d="M748.11,-675C759.15,-675 810.67,-675 834.66,-675"/>
<polygon fill="green" stroke="green" points="834.9,-678.5 844.9,-675 834.9,-671.5 834.9,-678.5"/>
<text text-anchor="middle" x="796.5" y="-681.8" font-family="Times,serif" font-size="14.00">Dominance</text>
</g>
</g>
</svg>
