<?xml version="1.0" encoding="UTF-8" standalone="no"?>
<!DOCTYPE svg PUBLIC "-//W3C//DTD SVG 1.1//EN"
 "http://www.w3.org/Graphics/SVG/1.1/DTD/svg11.dtd">
<!-- Generated by graphviz version 2.43.0 (0)
 -->
<!-- Title: debugoutput Pages: 1 -->
<svg width="1530pt" height="724pt"
 viewBox="0.00 0.00 1530.00 723.80" xmlns="http://www.w3.org/2000/svg" xmlns:xlink="http://www.w3.org/1999/xlink">
<g id="graph0" class="graph" transform="scale(1 1) rotate(0) translate(4 719.8)">
<title>debugoutput</title>
<polygon fill="white" stroke="transparent" points="-4,4 -4,-719.8 1526,-719.8 1526,4 -4,4"/>
<g id="clust1" class="cluster">
<title>cluster_000</title>
<polygon fill="none" stroke="black" points="538,-665.2 538,-707.8 1514,-707.8 1514,-665.2 538,-665.2"/>
<text text-anchor="middle" x="1026" y="-692.6" font-family="Times,serif" font-size="14.00">Legend</text>
</g>
<!-- node0 -->
<g id="node1" class="node">
<title>node0</title>
<polygon fill="lightgrey" stroke="black" points="528,-693 362,-693 362,-657 528,-657 528,-693"/>
<text text-anchor="middle" x="445" y="-671.3" font-family="Times,serif" font-size="14.00">#0 Method Order : 0</text>
</g>
<!-- node1 -->
<g id="node2" class="node">
<title>node1</title>
<polygon fill="lightgrey" stroke="black" points="550,-620 340,-620 340,-584 550,-584 550,-620"/>
<text text-anchor="middle" x="445" y="-598.3" font-family="Times,serif" font-size="14.00">#1 arg1 : Integer Order : 3</text>
</g>
<!-- node0&#45;&gt;node1 -->
<g id="edge2" class="edge">
<title>node0&#45;&gt;node1</title>
<path fill="none" stroke="black" d="M439.12,-656.81C438.28,-648.79 438.05,-639.05 438.42,-630.07"/>
<polygon fill="black" stroke="black" points="441.92,-630.25 439.14,-620.03 434.93,-629.75 441.92,-630.25"/>
<text text-anchor="middle" x="446.28" y="-635.01" font-family="Times,serif" font-size="14.00">*0</text>
</g>
<!-- node2 -->
<g id="node3" class="node">
<title>node2</title>
<polygon fill="lightgrey" stroke="black" points="321.5,-620 144.5,-620 144.5,-584 321.5,-584 321.5,-620"/>
<text text-anchor="middle" x="233" y="-598.3" font-family="Times,serif" font-size="14.00">#2 arg0 : int Order : 2</text>
</g>
<!-- node0&#45;&gt;node2 -->
<g id="edge4" class="edge">
<title>node0&#45;&gt;node2</title>
<path fill="none" stroke="black" d="M388.36,-656.99C357.23,-646.92 318.83,-634.1 287.97,-623.48"/>
<polygon fill="black" stroke="black" points="288.82,-620.07 278.23,-620.11 286.54,-626.69 288.82,-620.07"/>
<text text-anchor="middle" x="298.12" y="-614.35" font-family="Times,serif" font-size="14.00">*0</text>
</g>
<!-- node3 -->
<g id="node4" class="node">
<title>node3</title>
<polygon fill="lightgrey" stroke="black" points="756,-620 568,-620 568,-584 756,-584 756,-620"/>
<text text-anchor="middle" x="662" y="-598.3" font-family="Times,serif" font-size="14.00">#3 LabelNode Order : 1</text>
</g>
<!-- node0&#45;&gt;node3 -->
<g id="edge6" class="edge">
<title>node0&#45;&gt;node3</title>
<path fill="none" stroke="red" d="M491.12,-656.99C521.08,-646.84 560.58,-633.88 594.09,-623.2"/>
<polygon fill="red" stroke="red" points="595.35,-626.48 603.82,-620.11 593.23,-619.8 595.35,-626.48"/>
</g>
<!-- node4 -->
<g id="node5" class="node">
<title>node4</title>
<polygon fill="lightgrey" stroke="black" points="811.5,-547 494.5,-547 494.5,-511 811.5,-511 811.5,-547"/>
<text text-anchor="middle" x="653" y="-525.3" font-family="Times,serif" font-size="14.00">#4 Invoke virtual intValue : ()int Order : 4</text>
</g>
<!-- node0&#45;&gt;node4 -->
<g id="edge10" class="edge">
<title>node0&#45;&gt;node4</title>
<path fill="none" stroke="green" d="M525.3,-656.95C576.77,-648.06 722.34,-659.48 756,-620 766.38,-607.82 764.51,-597.55 756,-584 747.16,-569.92 733.5,-559.43 718.97,-551.63"/>
<polygon fill="green" stroke="green" points="720.36,-548.42 709.84,-547.12 717.25,-554.69 720.36,-548.42"/>
</g>
<!-- node1&#45;&gt;node0 -->
<g id="edge1" class="edge">
<title>node1&#45;&gt;node0</title>
<path fill="none" stroke="fuchsia" stroke-width="2" d="M450.86,-620.03C451.71,-628.03 451.95,-637.77 451.58,-646.75"/>
<polygon fill="fuchsia" stroke="fuchsia" stroke-width="2" points="448.09,-646.59 450.88,-656.81 455.07,-647.08 448.09,-646.59"/>
</g>
<!-- node1&#45;&gt;node4 -->
<g id="edge8" class="edge">
<title>node1&#45;&gt;node4</title>
<path fill="none" stroke="black" d="M494.82,-583.99C524.32,-573.92 561.88,-561.1 593,-550.48"/>
<polygon fill="black" stroke="black" points="594.53,-553.66 602.86,-547.11 592.27,-547.03 594.53,-553.66"/>
<text text-anchor="middle" x="588.44" y="-557.27" font-family="Times,serif" font-size="14.00">*0</text>
</g>
<!-- node2&#45;&gt;node0 -->
<g id="edge3" class="edge">
<title>node2&#45;&gt;node0</title>
<path fill="none" stroke="fuchsia" stroke-width="2" d="M289.97,-620.11C321.15,-630.2 359.55,-643.03 390.36,-653.63"/>
<polygon fill="fuchsia" stroke="fuchsia" stroke-width="2" points="389.48,-657.03 400.08,-656.99 391.77,-650.42 389.48,-657.03"/>
</g>
<!-- node5 -->
<g id="node6" class="node">
<title>node5</title>
<polygon fill="orange" stroke="black" points="852.2,-448.54 852.2,-463.46 740.2,-474 581.8,-474 469.8,-463.46 469.8,-448.54 581.8,-438 740.2,-438 852.2,-448.54"/>
<text text-anchor="middle" x="661" y="-452.3" font-family="Times,serif" font-size="14.00">#5 NumericCondition : LT Order : 5</text>
</g>
<!-- node2&#45;&gt;node5 -->
<g id="edge13" class="edge">
<title>node2&#45;&gt;node5</title>
<path fill="none" stroke="black" d="M278.77,-583.95C329.1,-565.36 412.47,-535.07 485,-511 520.46,-499.23 560.24,-486.95 593,-477.08"/>
<polygon fill="black" stroke="black" points="594.35,-480.33 602.92,-474.1 592.34,-473.62 594.35,-480.33"/>
<text text-anchor="middle" x="588" y="-483.71" font-family="Times,serif" font-size="14.00">*1</text>
</g>
<!-- node3&#45;&gt;node0 -->
<g id="edge5" class="edge">
<title>node3&#45;&gt;node0</title>
<path fill="none" stroke="fuchsia" stroke-width="2" d="M615.56,-620.11C585.53,-630.29 546.02,-643.25 512.55,-653.91"/>
<polygon fill="fuchsia" stroke="fuchsia" stroke-width="2" points="511.31,-650.63 502.83,-656.99 513.43,-657.3 511.31,-650.63"/>
</g>
<!-- node3&#45;&gt;node4 -->
<g id="edge9" class="edge">
<title>node3&#45;&gt;node4</title>
<path fill="none" stroke="red" d="M659.82,-583.81C658.8,-575.79 657.57,-566.05 656.43,-557.07"/>
<polygon fill="red" stroke="red" points="659.89,-556.51 655.16,-547.03 652.94,-557.39 659.89,-556.51"/>
</g>
<!-- node4&#45;&gt;node0 -->
<g id="edge7" class="edge">
<title>node4&#45;&gt;node0</title>
<path fill="none" stroke="fuchsia" stroke-width="2" d="M726.98,-547.12C745.62,-555.22 763.32,-567 774,-584 782.51,-597.55 784.38,-607.82 774,-620 740.27,-659.56 594.2,-648.01 543,-657 541.5,-657.26 539.98,-657.53 538.46,-657.8"/>
<polygon fill="fuchsia" stroke="fuchsia" stroke-width="2" points="537.47,-654.42 528.25,-659.64 538.71,-661.31 537.47,-654.42"/>
</g>
<!-- node4&#45;&gt;node5 -->
<g id="edge12" class="edge">
<title>node4&#45;&gt;node5</title>
<path fill="none" stroke="black" d="M654.94,-510.81C655.84,-502.79 656.94,-493.05 657.95,-484.07"/>
<polygon fill="black" stroke="black" points="661.44,-484.36 659.08,-474.03 654.48,-483.57 661.44,-484.36"/>
<text text-anchor="middle" x="665.45" y="-489.29" font-family="Times,serif" font-size="14.00">*0</text>
</g>
<!-- node6 -->
<g id="node7" class="node">
<title>node6</title>
<polygon fill="lightgrey" stroke="black" points="505,-401 383,-401 383,-365 505,-365 505,-401"/>
<text text-anchor="middle" x="444" y="-379.3" font-family="Times,serif" font-size="14.00">#6 If Order : 6</text>
</g>
<!-- node4&#45;&gt;node6 -->
<g id="edge16" class="edge">
<title>node4&#45;&gt;node6</title>
<path fill="none" stroke="red" d="M518.7,-510.95C496.98,-502.78 476.55,-490.98 461,-474 445.68,-457.28 442.15,-431.26 442.03,-411.49"/>
<polygon fill="red" stroke="red" points="445.54,-411.33 442.26,-401.25 438.54,-411.17 445.54,-411.33"/>
</g>
<!-- node15 -->
<g id="node16" class="node">
<title>node15</title>
<polygon fill="lightgrey" stroke="black" points="548.5,-36 297.5,-36 297.5,0 548.5,0 548.5,-36"/>
<text text-anchor="middle" x="423" y="-14.3" font-family="Times,serif" font-size="14.00">#15 ReturnValue : int Order : 15</text>
</g>
<!-- node4&#45;&gt;node15 -->
<g id="edge39" class="edge">
<title>node4&#45;&gt;node15</title>
<path fill="none" stroke="green" d="M494.21,-521.59C336.62,-511.49 110.86,-485.68 56,-420 -22.07,-326.54 -14.64,-245.2 56,-146 108.13,-72.79 205.48,-41.39 286.82,-28.11"/>
<polygon fill="green" stroke="green" points="287.82,-31.49 297.16,-26.5 286.74,-24.58 287.82,-31.49"/>
</g>
<!-- node5&#45;&gt;node0 -->
<g id="edge11" class="edge">
<title>node5&#45;&gt;node0</title>
<path fill="none" stroke="fuchsia" stroke-width="2" d="M765.32,-471.76C787.08,-479.84 807.49,-492.19 821,-511 850.3,-551.82 825,-583 791,-620 753.94,-660.33 607.19,-650.43 538.63,-656.65"/>
<polygon fill="fuchsia" stroke="fuchsia" stroke-width="2" points="537.88,-653.22 528.33,-657.8 538.66,-660.17 537.88,-653.22"/>
</g>
<!-- node5&#45;&gt;node6 -->
<g id="edge15" class="edge">
<title>node5&#45;&gt;node6</title>
<path fill="none" stroke="black" d="M609.02,-437.99C578.11,-427.88 538.72,-414.99 506.17,-404.34"/>
<polygon fill="black" stroke="black" points="506.9,-400.9 496.3,-401.11 504.72,-407.55 506.9,-400.9"/>
<text text-anchor="middle" x="516.16" y="-395.02" font-family="Times,serif" font-size="14.00">*0</text>
</g>
<!-- node6&#45;&gt;node0 -->
<g id="edge14" class="edge">
<title>node6&#45;&gt;node0</title>
<path fill="none" stroke="fuchsia" stroke-width="2" d="M382.88,-384.94C288.23,-388.08 117,-401.19 117,-455 117,-603 117,-603 117,-603 117,-651.32 254.71,-666.83 351.67,-671.76"/>
<polygon fill="fuchsia" stroke="fuchsia" stroke-width="2" points="351.65,-675.27 361.81,-672.25 351.99,-668.28 351.65,-675.27"/>
</g>
<!-- node7 -->
<g id="node8" class="node">
<title>node7</title>
<polygon fill="lightgrey" stroke="black" points="346,-328 196,-328 196,-292 346,-292 346,-328"/>
<text text-anchor="middle" x="271" y="-306.3" font-family="Times,serif" font-size="14.00">#7 true Order : 10</text>
</g>
<!-- node6&#45;&gt;node7 -->
<g id="edge18" class="edge">
<title>node6&#45;&gt;node7</title>
<path fill="none" stroke="red" d="M396.7,-364.99C371.65,-355.14 341.1,-342.66 316.35,-332.17"/>
<polygon fill="red" stroke="red" points="317.4,-328.81 306.83,-328.11 314.65,-335.25 317.4,-328.81"/>
</g>
<!-- node8 -->
<g id="node9" class="node">
<title>node8</title>
<polygon fill="lightgrey" stroke="black" points="516.5,-328 371.5,-328 371.5,-292 516.5,-292 516.5,-328"/>
<text text-anchor="middle" x="444" y="-306.3" font-family="Times,serif" font-size="14.00">#8 false Order : 7</text>
</g>
<!-- node6&#45;&gt;node8 -->
<g id="edge20" class="edge">
<title>node6&#45;&gt;node8</title>
<path fill="none" stroke="red" d="M438.12,-364.81C437.28,-356.79 437.05,-347.05 437.42,-338.07"/>
<polygon fill="red" stroke="red" points="440.92,-338.25 438.14,-328.03 433.93,-337.75 440.92,-338.25"/>
</g>
<!-- node7&#45;&gt;node6 -->
<g id="edge17" class="edge">
<title>node7&#45;&gt;node6</title>
<path fill="none" stroke="fuchsia" stroke-width="2" d="M318.57,-328.11C343.66,-337.98 374.21,-350.47 398.92,-360.94"/>
<polygon fill="fuchsia" stroke="fuchsia" stroke-width="2" points="397.85,-364.29 408.42,-364.99 400.59,-357.85 397.85,-364.29"/>
</g>
<!-- node9 -->
<g id="node10" class="node">
<title>node9</title>
<polygon fill="lightgrey" stroke="black" points="348.5,-255 151.5,-255 151.5,-219 348.5,-219 348.5,-255"/>
<text text-anchor="middle" x="250" y="-233.3" font-family="Times,serif" font-size="14.00">#9 LabelNode Order : 11</text>
</g>
<!-- node7&#45;&gt;node9 -->
<g id="edge22" class="edge">
<title>node7&#45;&gt;node9</title>
<path fill="none" stroke="red" d="M260.04,-291.81C256.82,-283.79 253.71,-274.05 251.43,-265.07"/>
<polygon fill="red" stroke="red" points="254.78,-264.02 249.17,-255.03 247.95,-265.55 254.78,-264.02"/>
</g>
<!-- node8&#45;&gt;node6 -->
<g id="edge19" class="edge">
<title>node8&#45;&gt;node6</title>
<path fill="none" stroke="fuchsia" stroke-width="2" d="M449.86,-328.03C450.71,-336.03 450.95,-345.77 450.58,-354.75"/>
<polygon fill="fuchsia" stroke="fuchsia" stroke-width="2" points="447.09,-354.59 449.88,-364.81 454.07,-355.08 447.09,-354.59"/>
</g>
<!-- node10 -->
<g id="node11" class="node">
<title>node10</title>
<polygon fill="lightgrey" stroke="black" points="521,-255 367,-255 367,-219 521,-219 521,-255"/>
<text text-anchor="middle" x="444" y="-233.3" font-family="Times,serif" font-size="14.00">#10 Goto Order : 9</text>
</g>
<!-- node8&#45;&gt;node10 -->
<g id="edge24" class="edge">
<title>node8&#45;&gt;node10</title>
<path fill="none" stroke="red" d="M438.12,-291.81C437.28,-283.79 437.05,-274.05 437.42,-265.07"/>
<polygon fill="red" stroke="red" points="440.92,-265.25 438.14,-255.03 433.93,-264.75 440.92,-265.25"/>
</g>
<!-- node11 -->
<g id="node12" class="node">
<title>node11</title>
<polygon fill="lightgreen" stroke="black" points="754.77,-229.54 754.77,-244.46 691.64,-255 602.36,-255 539.23,-244.46 539.23,-229.54 602.36,-219 691.64,-219 754.77,-229.54"/>
<text text-anchor="middle" x="647" y="-233.3" font-family="Times,serif" font-size="14.00">#11 int 1 Order : 8</text>
</g>
<!-- node8&#45;&gt;node11 -->
<g id="edge26" class="edge">
<title>node8&#45;&gt;node11</title>
<path fill="none" stroke="black" stroke-dasharray="1,5" d="M486.76,-291.99C515.52,-281.55 553.8,-268.13 585.76,-257.29"/>
<polygon fill="black" stroke="black" points="587.11,-260.53 595.46,-254.02 584.87,-253.9 587.11,-260.53"/>
</g>
<!-- node9&#45;&gt;node7 -->
<g id="edge21" class="edge">
<title>node9&#45;&gt;node7</title>
<path fill="none" stroke="fuchsia" stroke-width="2" d="M260.9,-255.03C264.15,-263.12 267.3,-272.98 269.6,-282.05"/>
<polygon fill="fuchsia" stroke="fuchsia" stroke-width="2" points="266.19,-282.82 271.79,-291.81 273.02,-281.29 266.19,-282.82"/>
</g>
<!-- node12 -->
<g id="node13" class="node">
<title>node12</title>
<polygon fill="lightgrey" stroke="black" points="636,-182 382,-182 382,-146 636,-146 636,-182"/>
<text text-anchor="middle" x="509" y="-160.3" font-family="Times,serif" font-size="14.00">#12 Merge : Merge12 Order : 13</text>
</g>
<!-- node9&#45;&gt;node12 -->
<g id="edge29" class="edge">
<title>node9&#45;&gt;node12</title>
<path fill="none" stroke="red" d="M312.04,-218.99C349.56,-208.71 397.57,-195.55 436.8,-184.79"/>
<polygon fill="red" stroke="red" points="437.85,-188.13 446.57,-182.11 436,-181.38 437.85,-188.13"/>
</g>
<!-- node13 -->
<g id="node14" class="node">
<title>node13</title>
<polygon fill="lightgreen" stroke="black" points="363.93,-156.54 363.93,-171.46 297.19,-182 202.81,-182 136.07,-171.46 136.07,-156.54 202.81,-146 297.19,-146 363.93,-156.54"/>
<text text-anchor="middle" x="250" y="-160.3" font-family="Times,serif" font-size="14.00">#13 int 0 Order : 12</text>
</g>
<!-- node9&#45;&gt;node13 -->
<g id="edge31" class="edge">
<title>node9&#45;&gt;node13</title>
<path fill="none" stroke="black" stroke-dasharray="1,5" d="M244.12,-218.81C243.28,-210.79 243.05,-201.05 243.42,-192.07"/>
<polygon fill="black" stroke="black" points="246.92,-192.25 244.14,-182.03 239.93,-191.75 246.92,-192.25"/>
</g>
<!-- node10&#45;&gt;node8 -->
<g id="edge23" class="edge">
<title>node10&#45;&gt;node8</title>
<path fill="none" stroke="fuchsia" stroke-width="2" d="M449.86,-255.03C450.71,-263.03 450.95,-272.77 450.58,-281.75"/>
<polygon fill="fuchsia" stroke="fuchsia" stroke-width="2" points="447.09,-281.59 449.88,-291.81 454.07,-282.08 447.09,-281.59"/>
</g>
<!-- node10&#45;&gt;node12 -->
<g id="edge28" class="edge">
<title>node10&#45;&gt;node12</title>
<path fill="none" stroke="red" d="M459.73,-218.81C467.8,-210 477.76,-199.13 486.61,-189.46"/>
<polygon fill="red" stroke="red" points="489.24,-191.77 493.41,-182.03 484.07,-187.04 489.24,-191.77"/>
</g>
<!-- node11&#45;&gt;node8 -->
<g id="edge25" class="edge">
<title>node11&#45;&gt;node8</title>
<path fill="none" stroke="fuchsia" stroke-width="2" d="M603.94,-255.11C576.04,-265.25 539.27,-278.14 508,-288.77"/>
<polygon fill="fuchsia" stroke="fuchsia" stroke-width="2" points="506.83,-285.47 498.48,-291.99 509.08,-292.1 506.83,-285.47"/>
</g>
<!-- node14 -->
<g id="node15" class="node">
<title>node14</title>
<polygon fill="lightgreen" stroke="black" points="681.24,-83.54 681.24,-98.46 613.73,-109 518.26,-109 450.75,-98.46 450.75,-83.54 518.26,-73 613.73,-73 681.24,-83.54"/>
<text text-anchor="middle" x="566" y="-87.3" font-family="Times,serif" font-size="14.00">#14 Φ int Order : 14</text>
</g>
<!-- node11&#45;&gt;node14 -->
<g id="edge34" class="edge">
<title>node11&#45;&gt;node14</title>
<path fill="none" stroke="blue" d="M570.29,-224.26C556.88,-222.38 543.04,-220.55 530,-219 485.34,-213.71 157.31,-215.22 127,-182 116.21,-170.18 116.4,-157.98 127,-146 147.61,-122.7 318.07,-107.26 440.39,-99.06"/>
<polygon fill="blue" stroke="blue" points="440.84,-102.54 450.59,-98.39 440.38,-95.56 440.84,-102.54"/>
<text text-anchor="middle" x="433.06" y="-104.32" font-family="Times,serif" font-size="14.00">if #10</text>
</g>
<!-- node12&#45;&gt;node6 -->
<g id="edge27" class="edge">
<title>node12&#45;&gt;node6</title>
<path fill="none" stroke="fuchsia" stroke-width="2" d="M636.23,-169.66C717.72,-177.89 801.71,-199.46 764,-255 708.49,-336.75 591.21,-365.88 515.1,-376.26"/>
<polygon fill="fuchsia" stroke="fuchsia" stroke-width="2" points="514.58,-372.8 505.11,-377.54 515.47,-379.74 514.58,-372.8"/>
</g>
<!-- node12&#45;&gt;node14 -->
<g id="edge33" class="edge">
<title>node12&#45;&gt;node14</title>
<path fill="none" stroke="black" stroke-dasharray="1,5" d="M522.8,-145.81C529.73,-137.18 538.26,-126.56 545.9,-117.03"/>
<polygon fill="black" stroke="black" points="548.8,-119.02 552.33,-109.03 543.34,-114.64 548.8,-119.02"/>
</g>
<!-- node12&#45;&gt;node15 -->
<g id="edge38" class="edge">
<title>node12&#45;&gt;node15</title>
<path fill="none" stroke="red" d="M479.62,-145.94C466.17,-136.67 451.22,-124.03 442,-109 430.36,-90.02 425.76,-65.02 423.99,-46.19"/>
<polygon fill="red" stroke="red" points="427.48,-45.89 423.25,-36.17 420.49,-46.4 427.48,-45.89"/>
</g>
<!-- node13&#45;&gt;node9 -->
<g id="edge30" class="edge">
<title>node13&#45;&gt;node9</title>
<path fill="none" stroke="fuchsia" stroke-width="2" d="M255.86,-182.03C256.71,-190.03 256.95,-199.77 256.58,-208.75"/>
<polygon fill="fuchsia" stroke="fuchsia" stroke-width="2" points="253.09,-208.59 255.88,-218.81 260.07,-209.08 253.09,-208.59"/>
</g>
<!-- node13&#45;&gt;node14 -->
<g id="edge35" class="edge">
<title>node13&#45;&gt;node14</title>
<path fill="none" stroke="blue" d="M330.3,-151.18C344.51,-149.3 359.17,-147.48 373,-146 399.04,-143.21 590.2,-147.21 608,-128 611.64,-124.07 611.7,-120.14 609.56,-116.4"/>
<polygon fill="blue" stroke="blue" points="611.98,-113.86 602.54,-109.05 606.92,-118.7 611.98,-113.86"/>
<text text-anchor="middle" x="621.17" y="-112.62" font-family="Times,serif" font-size="14.00">if #9</text>
</g>
<!-- node14&#45;&gt;node6 -->
<g id="edge32" class="edge">
<title>node14&#45;&gt;node6</title>
<path fill="none" stroke="fuchsia" stroke-width="2" d="M664.22,-101.14C736.06,-110.64 821,-129.05 821,-163 821,-311 821,-311 821,-311 821,-372.46 625.08,-382.2 515.71,-382.86"/>
<polygon fill="fuchsia" stroke="fuchsia" stroke-width="2" points="515.4,-379.36 505.41,-382.89 515.42,-386.36 515.4,-379.36"/>
</g>
<!-- node14&#45;&gt;node15 -->
<g id="edge37" class="edge">
<title>node14&#45;&gt;node15</title>
<path fill="none" stroke="black" d="M531.75,-72.99C512.17,-63.27 487.42,-50.99 466.48,-40.59"/>
<polygon fill="black" stroke="black" points="467.98,-37.43 457.47,-36.11 464.87,-43.7 467.98,-37.43"/>
<text text-anchor="middle" x="477.46" y="-32.9" font-family="Times,serif" font-size="14.00">*0</text>
</g>
<!-- node15&#45;&gt;node0 -->
<g id="edge36" class="edge">
<title>node15&#45;&gt;node0</title>
<path fill="none" stroke="fuchsia" stroke-width="2" d="M297.05,-21.03C195.68,-26.21 70,-42.26 70,-90 70,-603 70,-603 70,-603 70,-660.19 240.49,-672.53 351.55,-674.51"/>
<polygon fill="fuchsia" stroke="fuchsia" stroke-width="2" points="351.72,-678.01 361.77,-674.67 351.83,-671.01 351.72,-678.01"/>
</g>
<!-- c0 -->
<!-- c1 -->
<!-- c0&#45;&gt;c1 -->
<g id="edge40" class="edge">
<title>c0&#45;&gt;c1</title>
<path fill="none" stroke="red" d="M1396.89,-675C1408.11,-675 1466.24,-675 1491.86,-675"/>
<polygon fill="red" stroke="red" points="1492.05,-678.5 1502.05,-675 1492.05,-671.5 1492.05,-678.5"/>
<text text-anchor="middle" x="1449.5" y="-681.8" font-family="Times,serif" font-size="14.00">Control flow</text>
</g>
<!-- c2 -->
<!-- c3 -->
<!-- c2&#45;&gt;c3 -->
<g id="edge41" class="edge">
<title>c2&#45;&gt;c3</title>
<path fill="none" stroke="red" stroke-dasharray="5,2" d="M1190.08,-675C1207.05,-675 1323.2,-675 1361.08,-675"/>
<polygon fill="red" stroke="red" points="1361.17,-678.5 1371.17,-675 1361.17,-671.5 1361.17,-678.5"/>
<text text-anchor="middle" x="1280.5" y="-681.8" font-family="Times,serif" font-size="14.00">Control flow back edge</text>
</g>
<!-- d0 -->
<!-- d1 -->
<!-- d0&#45;&gt;d1 -->
<g id="edge42" class="edge">
<title>d0&#45;&gt;d1</title>
<path fill="none" stroke="black" d="M1078.86,-675C1088.4,-675 1132.31,-675 1153.92,-675"/>
<polygon fill="black" stroke="black" points="1154.15,-678.5 1164.15,-675 1154.15,-671.5 1154.15,-678.5"/>
<text text-anchor="middle" x="1121.5" y="-681.8" font-family="Times,serif" font-size="14.00">Data flow</text>
</g>
<!-- d2 -->
<!-- d3 -->
<!-- d2&#45;&gt;d3 -->
<g id="edge43" class="edge">
<title>d2&#45;&gt;d3</title>
<path fill="none" stroke="black" stroke-dasharray="1,5" d="M952.8,-675C963.45,-675 1018.46,-675 1043.07,-675"/>
<polygon fill="black" stroke="black" points="1043.14,-678.5 1053.14,-675 1043.14,-671.5 1043.14,-678.5"/>
<text text-anchor="middle" x="1003" y="-681.8" font-family="Times,serif" font-size="14.00">Declaration</text>
</g>
<!-- d4 -->
<!-- d5 -->
<!-- d4&#45;&gt;d5 -->
<g id="edge44" class="edge">
<title>d4&#45;&gt;d5</title>
<path fill="none" stroke="blue" d="M810.1,-675C822.72,-675 888.88,-675 916.68,-675"/>
<polygon fill="blue" stroke="blue" points="916.84,-678.5 926.84,-675 916.84,-671.5 916.84,-678.5"/>
<text text-anchor="middle" x="868.5" y="-681.8" font-family="Times,serif" font-size="14.00">PHI Data flow</text>
</g>
<!-- d6 -->
<!-- d7 -->
<!-- d6&#45;&gt;d7 -->
<g id="edge45" class="edge">
<title>d6&#45;&gt;d7</title>
<path fill="none" stroke="green" d="M672.99,-675C684.94,-675 747.3,-675 773.93,-675"/>
<polygon fill="green" stroke="green" points="773.95,-678.5 783.95,-675 773.95,-671.5 773.95,-678.5"/>
<text text-anchor="middle" x="728.5" y="-681.8" font-family="Times,serif" font-size="14.00">Memory flow</text>
</g>
<!-- d8 -->
<!-- d9 -->
<!-- d8&#45;&gt;d9 -->
<g id="edge46" class="edge">
<title>d8&#45;&gt;d9</title>
<path fill="none" stroke="fuchsia" d="M550.11,-675C561.15,-675 612.67,-675 636.65,-675"/>
<polygon fill="fuchsia" stroke="fuchsia" points="636.9,-678.5 646.9,-675 636.9,-671.5 636.9,-678.5"/>
<text text-anchor="middle" x="598.5" y="-681.8" font-family="Times,serif" font-size="14.00">Dominance</text>
</g>
</g>
</svg>
