<?xml version="1.0" encoding="UTF-8" standalone="no"?>
<!DOCTYPE svg PUBLIC "-//W3C//DTD SVG 1.1//EN"
 "http://www.w3.org/Graphics/SVG/1.1/DTD/svg11.dtd">
<!-- Generated by graphviz version 2.43.0 (0)
 -->
<!-- Title: debugoutput Pages: 1 -->
<svg width="1594pt" height="724pt"
 viewBox="0.00 0.00 1594.00 723.80" xmlns="http://www.w3.org/2000/svg" xmlns:xlink="http://www.w3.org/1999/xlink">
<g id="graph0" class="graph" transform="scale(1 1) rotate(0) translate(4 719.8)">
<title>debugoutput</title>
<polygon fill="white" stroke="transparent" points="-4,4 -4,-719.8 1590,-719.8 1590,4 -4,4"/>
<g id="clust1" class="cluster">
<title>cluster_000</title>
<polygon fill="none" stroke="black" points="602,-665.2 602,-707.8 1578,-707.8 1578,-665.2 602,-665.2"/>
<text text-anchor="middle" x="1090" y="-692.6" font-family="Times,serif" font-size="14.00">Legend</text>
</g>
<!-- node0 -->
<g id="node1" class="node">
<title>node0</title>
<polygon fill="lightgrey" stroke="black" points="592,-693 426,-693 426,-657 592,-657 592,-693"/>
<text text-anchor="middle" x="509" y="-671.3" font-family="Times,serif" font-size="14.00">#0 Method Order : 0</text>
</g>
<!-- node1 -->
<g id="node2" class="node">
<title>node1</title>
<polygon fill="lightgrey" stroke="black" points="316,-620 106,-620 106,-584 316,-584 316,-620"/>
<text text-anchor="middle" x="211" y="-598.3" font-family="Times,serif" font-size="14.00">#1 arg1 : Integer Order : 3</text>
</g>
<!-- node0&#45;&gt;node1 -->
<g id="edge2" class="edge">
<title>node0&#45;&gt;node1</title>
<path fill="none" stroke="black" d="M431.76,-656.99C387.04,-646.6 331.02,-633.27 286.58,-622.46"/>
<polygon fill="black" stroke="black" points="287.25,-619.02 276.71,-620.05 285.59,-625.82 287.25,-619.02"/>
<text text-anchor="middle" x="296.32" y="-612.43" font-family="Times,serif" font-size="14.00">*0</text>
</g>
<!-- node2 -->
<g id="node3" class="node">
<title>node2</title>
<polygon fill="lightgrey" stroke="black" points="810.5,-620 633.5,-620 633.5,-584 810.5,-584 810.5,-620"/>
<text text-anchor="middle" x="722" y="-598.3" font-family="Times,serif" font-size="14.00">#2 arg0 : int Order : 2</text>
</g>
<!-- node0&#45;&gt;node2 -->
<g id="edge4" class="edge">
<title>node0&#45;&gt;node2</title>
<path fill="none" stroke="black" d="M555.9,-656.92C573.23,-651.33 592.98,-645.02 611,-639 625.76,-634.07 641.65,-628.56 656.69,-623.36"/>
<polygon fill="black" stroke="black" points="658.13,-626.57 666.44,-620 655.85,-619.95 658.13,-626.57"/>
<text text-anchor="middle" x="652.06" y="-630.2" font-family="Times,serif" font-size="14.00">*0</text>
</g>
<!-- node3 -->
<g id="node4" class="node">
<title>node3</title>
<polygon fill="lightgrey" stroke="black" points="522,-620 334,-620 334,-584 522,-584 522,-620"/>
<text text-anchor="middle" x="428" y="-598.3" font-family="Times,serif" font-size="14.00">#3 LabelNode Order : 1</text>
</g>
<!-- node0&#45;&gt;node3 -->
<g id="edge6" class="edge">
<title>node0&#45;&gt;node3</title>
<path fill="none" stroke="red" d="M483.51,-656.81C472.43,-647.92 459.69,-636.91 449.14,-627.17"/>
<polygon fill="red" stroke="red" points="451.24,-624.34 441.57,-620.03 446.44,-629.44 451.24,-624.34"/>
</g>
<!-- node4 -->
<g id="node5" class="node">
<title>node4</title>
<polygon fill="lightgrey" stroke="black" points="577.5,-547 260.5,-547 260.5,-511 577.5,-511 577.5,-547"/>
<text text-anchor="middle" x="419" y="-525.3" font-family="Times,serif" font-size="14.00">#4 Invoke virtual intValue : ()int Order : 4</text>
</g>
<!-- node0&#45;&gt;node4 -->
<g id="edge10" class="edge">
<title>node0&#45;&gt;node4</title>
<path fill="none" stroke="green" d="M513.96,-656.83C522.73,-637.74 536.2,-606.61 522,-584 513.16,-569.92 499.5,-559.43 484.97,-551.63"/>
<polygon fill="green" stroke="green" points="486.36,-548.42 475.84,-547.12 483.26,-554.69 486.36,-548.42"/>
</g>
<!-- node1&#45;&gt;node0 -->
<g id="edge1" class="edge">
<title>node1&#45;&gt;node0</title>
<path fill="none" stroke="fuchsia" stroke-width="2" d="M288.43,-620.05C333.19,-630.45 389.21,-643.78 433.61,-654.59"/>
<polygon fill="fuchsia" stroke="fuchsia" stroke-width="2" points="432.94,-658.02 443.48,-656.99 434.59,-651.22 432.94,-658.02"/>
</g>
<!-- node1&#45;&gt;node4 -->
<g id="edge8" class="edge">
<title>node1&#45;&gt;node4</title>
<path fill="none" stroke="black" d="M260.82,-583.99C290.32,-573.92 327.89,-561.1 359.01,-550.48"/>
<polygon fill="black" stroke="black" points="360.53,-553.66 368.86,-547.11 358.27,-547.03 360.53,-553.66"/>
<text text-anchor="middle" x="354.44" y="-557.27" font-family="Times,serif" font-size="14.00">*0</text>
</g>
<!-- node2&#45;&gt;node0 -->
<g id="edge3" class="edge">
<title>node2&#45;&gt;node0</title>
<path fill="none" stroke="fuchsia" stroke-width="2" d="M683.33,-620C666.66,-626.12 646.99,-632.99 629,-639 614.22,-643.94 598.28,-649.07 582.96,-653.84"/>
<polygon fill="fuchsia" stroke="fuchsia" stroke-width="2" points="581.53,-650.62 573,-656.92 583.59,-657.31 581.53,-650.62"/>
</g>
<!-- node5 -->
<g id="node6" class="node">
<title>node5</title>
<polygon fill="orange" stroke="black" points="804.2,-448.54 804.2,-463.46 692.2,-474 533.8,-474 421.8,-463.46 421.8,-448.54 533.8,-438 692.2,-438 804.2,-448.54"/>
<text text-anchor="middle" x="613" y="-452.3" font-family="Times,serif" font-size="14.00">#5 NumericCondition : LT Order : 5</text>
</g>
<!-- node2&#45;&gt;node5 -->
<g id="edge13" class="edge">
<title>node2&#45;&gt;node5</title>
<path fill="none" stroke="black" d="M709.07,-583.92C689.97,-558.69 654.12,-511.33 632.03,-482.14"/>
<polygon fill="black" stroke="black" points="634.74,-479.92 625.91,-474.06 629.16,-484.15 634.74,-479.92"/>
<text text-anchor="middle" x="643.59" y="-479.71" font-family="Times,serif" font-size="14.00">*1</text>
</g>
<!-- node3&#45;&gt;node0 -->
<g id="edge5" class="edge">
<title>node3&#45;&gt;node0</title>
<path fill="none" stroke="fuchsia" stroke-width="2" d="M453.29,-620.03C464.46,-628.99 477.35,-640.12 487.98,-649.94"/>
<polygon fill="fuchsia" stroke="fuchsia" stroke-width="2" points="485.59,-652.5 495.27,-656.81 490.39,-647.41 485.59,-652.5"/>
</g>
<!-- node3&#45;&gt;node4 -->
<g id="edge9" class="edge">
<title>node3&#45;&gt;node4</title>
<path fill="none" stroke="red" d="M425.82,-583.81C424.8,-575.79 423.57,-566.05 422.43,-557.07"/>
<polygon fill="red" stroke="red" points="425.89,-556.51 421.16,-547.03 418.94,-557.39 425.89,-556.51"/>
</g>
<!-- node4&#45;&gt;node0 -->
<g id="edge7" class="edge">
<title>node4&#45;&gt;node0</title>
<path fill="none" stroke="fuchsia" stroke-width="2" d="M492.98,-547.12C511.62,-555.22 529.32,-567 540,-584 552.26,-603.52 543.9,-629.39 532.58,-648.38"/>
<polygon fill="fuchsia" stroke="fuchsia" stroke-width="2" points="529.6,-646.55 527.06,-656.83 535.46,-650.38 529.6,-646.55"/>
</g>
<!-- node4&#45;&gt;node5 -->
<g id="edge12" class="edge">
<title>node4&#45;&gt;node5</title>
<path fill="none" stroke="black" d="M465.47,-510.99C492.86,-500.97 527.71,-488.21 556.67,-477.62"/>
<polygon fill="black" stroke="black" points="558.05,-480.84 566.24,-474.11 555.65,-474.26 558.05,-480.84"/>
<text text-anchor="middle" x="552.12" y="-484.58" font-family="Times,serif" font-size="14.00">*0</text>
</g>
<!-- node6 -->
<g id="node7" class="node">
<title>node6</title>
<polygon fill="lightgrey" stroke="black" points="429,-401 307,-401 307,-365 429,-365 429,-401"/>
<text text-anchor="middle" x="368" y="-379.3" font-family="Times,serif" font-size="14.00">#6 If Order : 6</text>
</g>
<!-- node4&#45;&gt;node6 -->
<g id="edge16" class="edge">
<title>node4&#45;&gt;node6</title>
<path fill="none" stroke="red" d="M412.95,-510.92C404.17,-486.12 387.81,-439.95 377.44,-410.66"/>
<polygon fill="red" stroke="red" points="380.68,-409.32 374.04,-401.06 374.08,-411.66 380.68,-409.32"/>
</g>
<!-- node15 -->
<g id="node16" class="node">
<title>node15</title>
<polygon fill="lightgrey" stroke="black" points="510.5,-36 259.5,-36 259.5,0 510.5,0 510.5,-36"/>
<text text-anchor="middle" x="385" y="-14.3" font-family="Times,serif" font-size="14.00">#15 ReturnValue : int Order : 15</text>
</g>
<!-- node4&#45;&gt;node15 -->
<g id="edge39" class="edge">
<title>node4&#45;&gt;node15</title>
<path fill="none" stroke="green" d="M412.38,-510.74C406.2,-491.57 399.75,-460.36 413,-438 464.92,-350.4 537.41,-395.11 614,-328 684.57,-266.16 774.35,-223.19 721,-146 675.96,-80.83 592.9,-49.07 520.63,-33.6"/>
<polygon fill="green" stroke="green" points="521,-30.11 510.51,-31.53 519.6,-36.96 521,-30.11"/>
</g>
<!-- node5&#45;&gt;node0 -->
<g id="edge11" class="edge">
<title>node5&#45;&gt;node0</title>
<path fill="none" stroke="fuchsia" stroke-width="2" d="M610.84,-474.09C605.82,-508.27 590.78,-586.26 553,-639 550.16,-642.96 546.76,-646.7 543.13,-650.16"/>
<polygon fill="fuchsia" stroke="fuchsia" stroke-width="2" points="540.68,-647.66 535.43,-656.86 545.27,-652.94 540.68,-647.66"/>
</g>
<!-- node5&#45;&gt;node6 -->
<g id="edge15" class="edge">
<title>node5&#45;&gt;node6</title>
<path fill="none" stroke="black" d="M554.32,-437.99C518.97,-427.75 473.79,-414.66 436.77,-403.93"/>
<polygon fill="black" stroke="black" points="437.63,-400.54 427.05,-401.11 435.68,-407.26 437.63,-400.54"/>
<text text-anchor="middle" x="446.82" y="-394.34" font-family="Times,serif" font-size="14.00">*0</text>
</g>
<!-- node6&#45;&gt;node0 -->
<g id="edge14" class="edge">
<title>node6&#45;&gt;node0</title>
<path fill="none" stroke="fuchsia" stroke-width="2" d="M306.85,-386.7C221.77,-392.15 78,-408.28 78,-455 78,-603 78,-603 78,-603 78,-636.96 289.07,-658.16 415.79,-667.83"/>
<polygon fill="fuchsia" stroke="fuchsia" stroke-width="2" points="415.66,-671.33 425.9,-668.59 416.19,-664.35 415.66,-671.33"/>
</g>
<!-- node7 -->
<g id="node8" class="node">
<title>node7</title>
<polygon fill="lightgrey" stroke="black" points="363,-328 209,-328 209,-292 363,-292 363,-328"/>
<text text-anchor="middle" x="286" y="-306.3" font-family="Times,serif" font-size="14.00">#7 false Order : 10</text>
</g>
<!-- node6&#45;&gt;node7 -->
<g id="edge18" class="edge">
<title>node6&#45;&gt;node7</title>
<path fill="none" stroke="red" d="M342.27,-364.81C330.96,-355.83 317.92,-344.69 307.17,-334.89"/>
<polygon fill="red" stroke="red" points="309.51,-332.28 299.81,-328.03 304.74,-337.41 309.51,-332.28"/>
</g>
<!-- node8 -->
<g id="node9" class="node">
<title>node8</title>
<polygon fill="lightgrey" stroke="black" points="604.5,-328 463.5,-328 463.5,-292 604.5,-292 604.5,-328"/>
<text text-anchor="middle" x="534" y="-306.3" font-family="Times,serif" font-size="14.00">#8 true Order : 7</text>
</g>
<!-- node6&#45;&gt;node8 -->
<g id="edge20" class="edge">
<title>node6&#45;&gt;node8</title>
<path fill="none" stroke="red" d="M401.9,-364.99C423.99,-355.1 453.22,-342.54 478.6,-332.03"/>
<polygon fill="red" stroke="red" points="480.2,-335.16 488.12,-328.11 477.54,-328.68 480.2,-335.16"/>
</g>
<!-- node7&#45;&gt;node6 -->
<g id="edge17" class="edge">
<title>node7&#45;&gt;node6</title>
<path fill="none" stroke="fuchsia" stroke-width="2" d="M311.53,-328.03C322.82,-336.99 335.87,-348.12 346.64,-357.94"/>
<polygon fill="fuchsia" stroke="fuchsia" stroke-width="2" points="344.32,-360.56 354.03,-364.81 349.09,-355.44 344.32,-360.56"/>
</g>
<!-- node9 -->
<g id="node10" class="node">
<title>node9</title>
<polygon fill="lightgrey" stroke="black" points="154,-255 0,-255 0,-219 154,-219 154,-255"/>
<text text-anchor="middle" x="77" y="-233.3" font-family="Times,serif" font-size="14.00">#9 Goto Order : 12</text>
</g>
<!-- node7&#45;&gt;node9 -->
<g id="edge22" class="edge">
<title>node7&#45;&gt;node9</title>
<path fill="none" stroke="red" d="M230.08,-291.99C199.37,-281.92 161.52,-269.1 131.1,-258.48"/>
<polygon fill="red" stroke="red" points="132.1,-255.12 121.51,-255.11 129.78,-261.73 132.1,-255.12"/>
</g>
<!-- node10 -->
<g id="node11" class="node">
<title>node10</title>
<polygon fill="lightgreen" stroke="black" points="399.93,-229.54 399.93,-244.46 333.19,-255 238.81,-255 172.07,-244.46 172.07,-229.54 238.81,-219 333.19,-219 399.93,-229.54"/>
<text text-anchor="middle" x="286" y="-233.3" font-family="Times,serif" font-size="14.00">#10 int 1 Order : 11</text>
</g>
<!-- node7&#45;&gt;node10 -->
<g id="edge24" class="edge">
<title>node7&#45;&gt;node10</title>
<path fill="none" stroke="black" stroke-dasharray="1,5" d="M280.12,-291.81C279.28,-283.79 279.05,-274.05 279.42,-265.07"/>
<polygon fill="black" stroke="black" points="282.92,-265.25 280.14,-255.03 275.94,-264.75 282.92,-265.25"/>
</g>
<!-- node8&#45;&gt;node6 -->
<g id="edge19" class="edge">
<title>node8&#45;&gt;node6</title>
<path fill="none" stroke="fuchsia" stroke-width="2" d="M499.86,-328.11C477.72,-338.03 448.48,-350.58 423.13,-361.08"/>
<polygon fill="fuchsia" stroke="fuchsia" stroke-width="2" points="421.54,-357.95 413.62,-364.99 424.2,-364.42 421.54,-357.95"/>
</g>
<!-- node11 -->
<g id="node12" class="node">
<title>node11</title>
<polygon fill="lightgrey" stroke="black" points="653.5,-255 456.5,-255 456.5,-219 653.5,-219 653.5,-255"/>
<text text-anchor="middle" x="555" y="-233.3" font-family="Times,serif" font-size="14.00">#11 LabelNode Order : 8</text>
</g>
<!-- node8&#45;&gt;node11 -->
<g id="edge26" class="edge">
<title>node8&#45;&gt;node11</title>
<path fill="none" stroke="red" d="M533.21,-291.81C534.77,-283.62 537.5,-273.62 540.61,-264.48"/>
<polygon fill="red" stroke="red" points="543.92,-265.62 544.1,-255.03 537.36,-263.2 543.92,-265.62"/>
</g>
<!-- node9&#45;&gt;node7 -->
<g id="edge21" class="edge">
<title>node9&#45;&gt;node7</title>
<path fill="none" stroke="fuchsia" stroke-width="2" d="M133.25,-255.11C164.01,-265.2 201.86,-278.03 232.22,-288.63"/>
<polygon fill="fuchsia" stroke="fuchsia" stroke-width="2" points="231.2,-291.99 241.8,-291.99 233.52,-285.38 231.2,-291.99"/>
</g>
<!-- node12 -->
<g id="node13" class="node">
<title>node12</title>
<polygon fill="lightgrey" stroke="black" points="440,-182 186,-182 186,-146 440,-146 440,-182"/>
<text text-anchor="middle" x="313" y="-160.3" font-family="Times,serif" font-size="14.00">#12 Merge : Merge12 Order : 13</text>
</g>
<!-- node9&#45;&gt;node12 -->
<g id="edge28" class="edge">
<title>node9&#45;&gt;node12</title>
<path fill="none" stroke="red" d="M133.53,-218.99C167.43,-208.79 210.73,-195.77 246.3,-185.07"/>
<polygon fill="red" stroke="red" points="247.55,-188.35 256.12,-182.11 245.53,-181.64 247.55,-188.35"/>
</g>
<!-- node10&#45;&gt;node7 -->
<g id="edge23" class="edge">
<title>node10&#45;&gt;node7</title>
<path fill="none" stroke="fuchsia" stroke-width="2" d="M291.86,-255.03C292.71,-263.03 292.95,-272.77 292.59,-281.75"/>
<polygon fill="fuchsia" stroke="fuchsia" stroke-width="2" points="289.09,-281.59 291.88,-291.81 296.07,-282.08 289.09,-281.59"/>
</g>
<!-- node14 -->
<g id="node15" class="node">
<title>node14</title>
<polygon fill="lightgreen" stroke="black" points="500.25,-83.54 500.25,-98.46 432.74,-109 337.26,-109 269.75,-98.46 269.75,-83.54 337.26,-73 432.74,-73 500.25,-83.54"/>
<text text-anchor="middle" x="385" y="-87.3" font-family="Times,serif" font-size="14.00">#14 Φ int Order : 14</text>
</g>
<!-- node10&#45;&gt;node14 -->
<g id="edge34" class="edge">
<title>node10&#45;&gt;node14</title>
<path fill="none" stroke="blue" d="M378.65,-226.03C405.7,-218.32 432.42,-204.96 449,-182 458.37,-169.03 455.74,-160.51 449,-146 443.39,-133.93 433.61,-123.59 423.36,-115.28"/>
<polygon fill="blue" stroke="blue" points="425.2,-112.29 415.11,-109.06 420.99,-117.88 425.2,-112.29"/>
<text text-anchor="middle" x="434.67" y="-109.53" font-family="Times,serif" font-size="14.00">if #9</text>
</g>
<!-- node11&#45;&gt;node8 -->
<g id="edge25" class="edge">
<title>node11&#45;&gt;node8</title>
<path fill="none" stroke="fuchsia" stroke-width="2" d="M555.82,-255.03C554.27,-263.2 551.55,-273.19 548.45,-282.34"/>
<polygon fill="fuchsia" stroke="fuchsia" stroke-width="2" points="545.13,-281.22 544.96,-291.81 551.7,-283.64 545.13,-281.22"/>
</g>
<!-- node11&#45;&gt;node12 -->
<g id="edge29" class="edge">
<title>node11&#45;&gt;node12</title>
<path fill="none" stroke="red" d="M503.11,-218.95C483.96,-212.79 462.05,-205.91 442,-200 424.53,-194.85 405.66,-189.57 387.87,-184.72"/>
<polygon fill="red" stroke="red" points="388.69,-181.32 378.12,-182.08 386.85,-188.07 388.69,-181.32"/>
</g>
<!-- node13 -->
<g id="node14" class="node">
<title>node13</title>
<polygon fill="lightgreen" stroke="black" points="711.77,-156.54 711.77,-171.46 648.64,-182 559.36,-182 496.23,-171.46 496.23,-156.54 559.36,-146 648.64,-146 711.77,-156.54"/>
<text text-anchor="middle" x="604" y="-160.3" font-family="Times,serif" font-size="14.00">#13 int 0 Order : 9</text>
</g>
<!-- node11&#45;&gt;node13 -->
<g id="edge31" class="edge">
<title>node11&#45;&gt;node13</title>
<path fill="none" stroke="black" stroke-dasharray="1,5" d="M560.98,-218.81C566.04,-210.18 573.17,-199.56 580.24,-190.03"/>
<polygon fill="black" stroke="black" points="583.07,-192.09 586.39,-182.03 577.52,-187.83 583.07,-192.09"/>
</g>
<!-- node12&#45;&gt;node6 -->
<g id="edge27" class="edge">
<title>node12&#45;&gt;node6</title>
<path fill="none" stroke="fuchsia" stroke-width="2" d="M365.24,-182.08C382.25,-190.41 399.25,-202.33 409,-219 434.58,-262.75 406.59,-322.15 385.93,-355.84"/>
<polygon fill="fuchsia" stroke="fuchsia" stroke-width="2" points="382.76,-354.31 380.35,-364.63 388.67,-358.06 382.76,-354.31"/>
</g>
<!-- node12&#45;&gt;node14 -->
<g id="edge33" class="edge">
<title>node12&#45;&gt;node14</title>
<path fill="none" stroke="black" stroke-dasharray="1,5" d="M324.55,-145.81C332.72,-136.83 343.83,-125.69 354.36,-115.89"/>
<polygon fill="black" stroke="black" points="356.84,-118.36 361.87,-109.03 352.12,-113.19 356.84,-118.36"/>
</g>
<!-- node12&#45;&gt;node15 -->
<g id="edge38" class="edge">
<title>node12&#45;&gt;node15</title>
<path fill="none" stroke="red" d="M277.26,-145.86C270.73,-141.03 264.78,-135.11 261,-128 249.51,-106.42 247.6,-93.45 261,-73 270.41,-58.63 284.57,-48.07 299.99,-40.31"/>
<polygon fill="red" stroke="red" points="301.58,-43.43 309.19,-36.05 298.65,-37.07 301.58,-43.43"/>
</g>
<!-- node13&#45;&gt;node11 -->
<g id="edge30" class="edge">
<title>node13&#45;&gt;node11</title>
<path fill="none" stroke="fuchsia" stroke-width="2" d="M598.11,-182.03C593.08,-190.64 585.96,-201.26 578.89,-210.79"/>
<polygon fill="fuchsia" stroke="fuchsia" stroke-width="2" points="576.05,-208.75 572.74,-218.81 581.6,-213.01 576.05,-208.75"/>
</g>
<!-- node13&#45;&gt;node14 -->
<g id="edge35" class="edge">
<title>node13&#45;&gt;node14</title>
<path fill="none" stroke="blue" d="M554.03,-146.8C521.97,-136.41 480.14,-122.84 446.11,-111.81"/>
<polygon fill="blue" stroke="blue" points="446.87,-108.38 436.27,-108.62 444.71,-115.04 446.87,-108.38"/>
<text text-anchor="middle" x="456.12" y="-102.47" font-family="Times,serif" font-size="14.00">if #11</text>
</g>
<!-- node14&#45;&gt;node12 -->
<g id="edge32" class="edge">
<title>node14&#45;&gt;node12</title>
<path fill="none" stroke="fuchsia" stroke-width="2" d="M373.59,-109.03C365.46,-117.99 354.36,-129.12 343.83,-138.94"/>
<polygon fill="fuchsia" stroke="fuchsia" stroke-width="2" points="341.33,-136.48 336.31,-145.81 346.05,-141.65 341.33,-136.48"/>
</g>
<!-- node14&#45;&gt;node15 -->
<g id="edge37" class="edge">
<title>node14&#45;&gt;node15</title>
<path fill="none" stroke="black" d="M385,-72.81C385,-64.79 385,-55.05 385,-46.07"/>
<polygon fill="black" stroke="black" points="388.5,-46.03 385,-36.03 381.5,-46.03 388.5,-46.03"/>
<text text-anchor="middle" x="393.45" y="-50.45" font-family="Times,serif" font-size="14.00">*0</text>
</g>
<!-- node15&#45;&gt;node0 -->
<g id="edge36" class="edge">
<title>node15&#45;&gt;node0</title>
<path fill="none" stroke="fuchsia" stroke-width="2" d="M510.58,-26.68C644.65,-36.62 838,-56.71 838,-90 838,-603 838,-603 838,-603 838,-654.89 670.24,-648.25 602.36,-656.54"/>
<polygon fill="fuchsia" stroke="fuchsia" stroke-width="2" points="601.75,-653.1 592.37,-658.01 602.77,-660.02 601.75,-653.1"/>
</g>
<!-- c0 -->
<!-- c1 -->
<!-- c0&#45;&gt;c1 -->
<g id="edge40" class="edge">
<title>c0&#45;&gt;c1</title>
<path fill="none" stroke="red" d="M1460.89,-675C1472.11,-675 1530.24,-675 1555.86,-675"/>
<polygon fill="red" stroke="red" points="1556.06,-678.5 1566.06,-675 1556.06,-671.5 1556.06,-678.5"/>
<text text-anchor="middle" x="1513.5" y="-681.8" font-family="Times,serif" font-size="14.00">Control flow</text>
</g>
<!-- c2 -->
<!-- c3 -->
<!-- c2&#45;&gt;c3 -->
<g id="edge41" class="edge">
<title>c2&#45;&gt;c3</title>
<path fill="none" stroke="red" stroke-dasharray="5,2" d="M1254.08,-675C1271.05,-675 1387.21,-675 1425.08,-675"/>
<polygon fill="red" stroke="red" points="1425.17,-678.5 1435.17,-675 1425.17,-671.5 1425.17,-678.5"/>
<text text-anchor="middle" x="1344.5" y="-681.8" font-family="Times,serif" font-size="14.00">Control flow back edge</text>
</g>
<!-- d0 -->
<!-- d1 -->
<!-- d0&#45;&gt;d1 -->
<g id="edge42" class="edge">
<title>d0&#45;&gt;d1</title>
<path fill="none" stroke="black" d="M1142.86,-675C1152.41,-675 1196.31,-675 1217.92,-675"/>
<polygon fill="black" stroke="black" points="1218.15,-678.5 1228.15,-675 1218.15,-671.5 1218.15,-678.5"/>
<text text-anchor="middle" x="1185.5" y="-681.8" font-family="Times,serif" font-size="14.00">Data flow</text>
</g>
<!-- d2 -->
<!-- d3 -->
<!-- d2&#45;&gt;d3 -->
<g id="edge43" class="edge">
<title>d2&#45;&gt;d3</title>
<path fill="none" stroke="black" stroke-dasharray="1,5" d="M1016.81,-675C1027.46,-675 1082.46,-675 1107.08,-675"/>
<polygon fill="black" stroke="black" points="1107.15,-678.5 1117.15,-675 1107.15,-671.5 1107.15,-678.5"/>
<text text-anchor="middle" x="1067" y="-681.8" font-family="Times,serif" font-size="14.00">Declaration</text>
</g>
<!-- d4 -->
<!-- d5 -->
<!-- d4&#45;&gt;d5 -->
<g id="edge44" class="edge">
<title>d4&#45;&gt;d5</title>
<path fill="none" stroke="blue" d="M874.1,-675C886.72,-675 952.88,-675 980.68,-675"/>
<polygon fill="blue" stroke="blue" points="980.84,-678.5 990.84,-675 980.84,-671.5 980.84,-678.5"/>
<text text-anchor="middle" x="932.5" y="-681.8" font-family="Times,serif" font-size="14.00">PHI Data flow</text>
</g>
<!-- d6 -->
<!-- d7 -->
<!-- d6&#45;&gt;d7 -->
<g id="edge45" class="edge">
<title>d6&#45;&gt;d7</title>
<path fill="none" stroke="green" d="M737,-675C748.94,-675 811.3,-675 837.93,-675"/>
<polygon fill="green" stroke="green" points="837.95,-678.5 847.95,-675 837.95,-671.5 837.95,-678.5"/>
<text text-anchor="middle" x="792.5" y="-681.8" font-family="Times,serif" font-size="14.00">Memory flow</text>
</g>
<!-- d8 -->
<!-- d9 -->
<!-- d8&#45;&gt;d9 -->
<g id="edge46" class="edge">
<title>d8&#45;&gt;d9</title>
<path fill="none" stroke="fuchsia" d="M614.11,-675C625.15,-675 676.67,-675 700.66,-675"/>
<polygon fill="fuchsia" stroke="fuchsia" points="700.9,-678.5 710.9,-675 700.9,-671.5 700.9,-678.5"/>
<text text-anchor="middle" x="662.5" y="-681.8" font-family="Times,serif" font-size="14.00">Dominance</text>
</g>
</g>
</svg>
