<?xml version="1.0" encoding="UTF-8" standalone="no"?>
<!DOCTYPE svg PUBLIC "-//W3C//DTD SVG 1.1//EN"
 "http://www.w3.org/Graphics/SVG/1.1/DTD/svg11.dtd">
<!-- Generated by graphviz version 2.43.0 (0)
 -->
<!-- Title: debugoutput Pages: 1 -->
<svg width="1438pt" height="724pt"
 viewBox="0.00 0.00 1437.85 723.80" xmlns="http://www.w3.org/2000/svg" xmlns:xlink="http://www.w3.org/1999/xlink">
<g id="graph0" class="graph" transform="scale(1 1) rotate(0) translate(4 719.8)">
<title>debugoutput</title>
<polygon fill="white" stroke="transparent" points="-4,4 -4,-719.8 1433.85,-719.8 1433.85,4 -4,4"/>
<g id="clust1" class="cluster">
<title>cluster_000</title>
<polygon fill="none" stroke="black" points="445.85,-665.2 445.85,-707.8 1421.85,-707.8 1421.85,-665.2 445.85,-665.2"/>
<text text-anchor="middle" x="933.85" y="-692.6" font-family="Times,serif" font-size="14.00">Legend</text>
</g>
<!-- node0 -->
<g id="node1" class="node">
<title>node0</title>
<polygon fill="lightgrey" stroke="black" points="435.85,-693 269.85,-693 269.85,-657 435.85,-657 435.85,-693"/>
<text text-anchor="middle" x="352.85" y="-671.3" font-family="Times,serif" font-size="14.00">#0 Method Order : 0</text>
</g>
<!-- node1 -->
<g id="node2" class="node">
<title>node1</title>
<polygon fill="lightgrey" stroke="black" points="642.35,-620 465.35,-620 465.35,-584 642.35,-584 642.35,-620"/>
<text text-anchor="middle" x="553.85" y="-598.3" font-family="Times,serif" font-size="14.00">#1 arg0 : int Order : 4</text>
</g>
<!-- node0&#45;&gt;node1 -->
<g id="edge2" class="edge">
<title>node0&#45;&gt;node1</title>
<path fill="none" stroke="black" d="M395.14,-656.99C422.58,-646.92 458.77,-634.1 489.7,-623.48"/>
<polygon fill="black" stroke="black" points="491.21,-626.66 499.54,-620.11 488.94,-620.04 491.21,-626.66"/>
<text text-anchor="middle" x="485.12" y="-630.28" font-family="Times,serif" font-size="14.00">*0</text>
</g>
<!-- node2 -->
<g id="node3" class="node">
<title>node2</title>
<polygon fill="lightgrey" stroke="black" points="240.85,-620 30.85,-620 30.85,-584 240.85,-584 240.85,-620"/>
<text text-anchor="middle" x="135.85" y="-598.3" font-family="Times,serif" font-size="14.00">#2 arg1 : Integer Order : 2</text>
</g>
<!-- node0&#45;&gt;node2 -->
<g id="edge4" class="edge">
<title>node0&#45;&gt;node2</title>
<path fill="none" stroke="black" d="M295.02,-656.99C263.04,-646.88 223.54,-633.99 191.85,-623.34"/>
<polygon fill="black" stroke="black" points="192.88,-619.99 182.29,-620.11 190.64,-626.63 192.88,-619.99"/>
<text text-anchor="middle" x="202.17" y="-614.2" font-family="Times,serif" font-size="14.00">*0</text>
</g>
<!-- node3 -->
<g id="node4" class="node">
<title>node3</title>
<polygon fill="lightgrey" stroke="black" points="446.85,-620 258.85,-620 258.85,-584 446.85,-584 446.85,-620"/>
<text text-anchor="middle" x="352.85" y="-598.3" font-family="Times,serif" font-size="14.00">#3 LabelNode Order : 1</text>
</g>
<!-- node0&#45;&gt;node3 -->
<g id="edge6" class="edge">
<title>node0&#45;&gt;node3</title>
<path fill="none" stroke="red" d="M346.98,-656.81C346.14,-648.79 345.9,-639.05 346.28,-630.07"/>
<polygon fill="red" stroke="red" points="349.77,-630.25 346.99,-620.03 342.79,-629.75 349.77,-630.25"/>
</g>
<!-- node4 -->
<g id="node5" class="node">
<title>node4</title>
<polygon fill="lightgrey" stroke="black" points="451.35,-547 134.35,-547 134.35,-511 451.35,-511 451.35,-547"/>
<text text-anchor="middle" x="292.85" y="-525.3" font-family="Times,serif" font-size="14.00">#4 Invoke virtual intValue : ()int Order : 3</text>
</g>
<!-- node0&#45;&gt;node4 -->
<g id="edge10" class="edge">
<title>node0&#45;&gt;node4</title>
<path fill="none" stroke="green" d="M269.58,-672.55C179.56,-669.08 44.81,-657.6 12.85,-620 -29.19,-570.55 42.66,-548.14 124.1,-538.04"/>
<polygon fill="green" stroke="green" points="124.55,-541.51 134.07,-536.87 123.73,-534.56 124.55,-541.51"/>
</g>
<!-- node1&#45;&gt;node0 -->
<g id="edge1" class="edge">
<title>node1&#45;&gt;node0</title>
<path fill="none" stroke="fuchsia" stroke-width="2" d="M511.28,-620.11C483.78,-630.2 447.57,-643.03 416.68,-653.63"/>
<polygon fill="fuchsia" stroke="fuchsia" stroke-width="2" points="415.19,-650.45 406.86,-656.99 417.45,-657.07 415.19,-650.45"/>
</g>
<!-- node5 -->
<g id="node6" class="node">
<title>node5</title>
<polygon fill="orange" stroke="black" points="712.05,-448.54 712.05,-463.46 600.05,-474 441.66,-474 329.65,-463.46 329.65,-448.54 441.66,-438 600.05,-438 712.05,-448.54"/>
<text text-anchor="middle" x="520.85" y="-452.3" font-family="Times,serif" font-size="14.00">#5 NumericCondition : LT Order : 5</text>
</g>
<!-- node1&#45;&gt;node5 -->
<g id="edge13" class="edge">
<title>node1&#45;&gt;node5</title>
<path fill="none" stroke="black" d="M549.94,-583.92C544.28,-559.23 533.77,-513.35 527.05,-484.04"/>
<polygon fill="black" stroke="black" points="530.41,-483.03 524.76,-474.06 523.59,-484.59 530.41,-483.03"/>
<text text-anchor="middle" x="537.05" y="-486.14" font-family="Times,serif" font-size="14.00">*1</text>
</g>
<!-- node2&#45;&gt;node0 -->
<g id="edge3" class="edge">
<title>node2&#45;&gt;node0</title>
<path fill="none" stroke="fuchsia" stroke-width="2" d="M194.03,-620.11C226.06,-630.25 265.56,-643.14 297.19,-653.77"/>
<polygon fill="fuchsia" stroke="fuchsia" stroke-width="2" points="296.14,-657.11 306.74,-656.99 298.38,-650.48 296.14,-657.11"/>
</g>
<!-- node2&#45;&gt;node4 -->
<g id="edge8" class="edge">
<title>node2&#45;&gt;node4</title>
<path fill="none" stroke="black" d="M173.46,-583.99C195.15,-574.19 222.61,-561.77 245.73,-551.31"/>
<polygon fill="black" stroke="black" points="247.34,-554.42 255.01,-547.11 244.46,-548.05 247.34,-554.42"/>
<text text-anchor="middle" x="241.98" y="-558.58" font-family="Times,serif" font-size="14.00">*0</text>
</g>
<!-- node3&#45;&gt;node0 -->
<g id="edge5" class="edge">
<title>node3&#45;&gt;node0</title>
<path fill="none" stroke="fuchsia" stroke-width="2" d="M358.72,-620.03C359.56,-628.03 359.8,-637.77 359.44,-646.75"/>
<polygon fill="fuchsia" stroke="fuchsia" stroke-width="2" points="355.94,-646.59 358.73,-656.81 362.92,-647.08 355.94,-646.59"/>
</g>
<!-- node3&#45;&gt;node4 -->
<g id="edge9" class="edge">
<title>node3&#45;&gt;node4</title>
<path fill="none" stroke="red" d="M338.33,-583.81C330.96,-575.09 321.87,-564.34 313.77,-554.75"/>
<polygon fill="red" stroke="red" points="316.37,-552.41 307.24,-547.03 311.03,-556.93 316.37,-552.41"/>
</g>
<!-- node4&#45;&gt;node0 -->
<g id="edge7" class="edge">
<title>node4&#45;&gt;node0</title>
<path fill="none" stroke="fuchsia" stroke-width="2" d="M133.95,-538.8C57.24,-549.24 -10.17,-571.75 30.85,-620 60.07,-654.37 175.18,-666.92 259.51,-671.47"/>
<polygon fill="fuchsia" stroke="fuchsia" stroke-width="2" points="259.47,-674.97 269.64,-671.98 259.83,-667.98 259.47,-674.97"/>
</g>
<!-- node4&#45;&gt;node5 -->
<g id="edge12" class="edge">
<title>node4&#45;&gt;node5</title>
<path fill="none" stroke="black" d="M347.47,-510.99C380.08,-500.84 421.69,-487.88 455.97,-477.2"/>
<polygon fill="black" stroke="black" points="457.39,-480.43 465.9,-474.11 455.31,-473.75 457.39,-480.43"/>
<text text-anchor="middle" x="451.1" y="-483.87" font-family="Times,serif" font-size="14.00">*0</text>
</g>
<!-- node6 -->
<g id="node7" class="node">
<title>node6</title>
<polygon fill="lightgrey" stroke="black" points="581.85,-401 459.85,-401 459.85,-365 581.85,-365 581.85,-401"/>
<text text-anchor="middle" x="520.85" y="-379.3" font-family="Times,serif" font-size="14.00">#6 If Order : 6</text>
</g>
<!-- node4&#45;&gt;node6 -->
<g id="edge16" class="edge">
<title>node4&#45;&gt;node6</title>
<path fill="none" stroke="red" d="M287.06,-510.89C286.04,-490.65 291.81,-457.29 311.85,-438 348.11,-403.1 404.47,-390.22 449.61,-385.71"/>
<polygon fill="red" stroke="red" points="449.99,-389.19 459.65,-384.83 449.38,-382.22 449.99,-389.19"/>
</g>
<!-- node4&#45;&gt;node6 -->
<g id="edge17" class="edge">
<title>node4&#45;&gt;node6</title>
<path fill="none" stroke="green" d="M299.79,-510.89C304.04,-490.65 309.81,-457.29 329.85,-438 361.98,-407.07 409.9,-393.43 449.76,-387.59"/>
<polygon fill="green" stroke="green" points="450.26,-391.06 459.71,-386.27 449.33,-384.12 450.26,-391.06"/>
</g>
<!-- node5&#45;&gt;node0 -->
<g id="edge11" class="edge">
<title>node5&#45;&gt;node0</title>
<path fill="none" stroke="fuchsia" stroke-width="2" d="M552.55,-474.09C604.03,-503.98 695.85,-567.58 651.85,-620 623.18,-654.17 503.69,-649.21 446.2,-656.52"/>
<polygon fill="fuchsia" stroke="fuchsia" stroke-width="2" points="445.58,-653.07 436.23,-658.04 446.64,-659.99 445.58,-653.07"/>
</g>
<!-- node5&#45;&gt;node6 -->
<g id="edge15" class="edge">
<title>node5&#45;&gt;node6</title>
<path fill="none" stroke="black" d="M520.85,-437.81C520.85,-429.79 520.85,-420.05 520.85,-411.07"/>
<polygon fill="black" stroke="black" points="524.35,-411.03 520.85,-401.03 517.35,-411.03 524.35,-411.03"/>
<text text-anchor="middle" x="529.31" y="-415.45" font-family="Times,serif" font-size="14.00">*0</text>
</g>
<!-- node6&#45;&gt;node0 -->
<g id="edge14" class="edge">
<title>node6&#45;&gt;node0</title>
<path fill="none" stroke="fuchsia" stroke-width="2" d="M581.86,-391.68C646.66,-401.58 739.85,-421.63 739.85,-455 739.85,-603 739.85,-603 739.85,-603 739.85,-667.41 527.94,-649.28 446.36,-656.68"/>
<polygon fill="fuchsia" stroke="fuchsia" stroke-width="2" points="445.73,-653.22 436.19,-657.84 446.52,-660.18 445.73,-653.22"/>
</g>
<!-- node7 -->
<g id="node8" class="node">
<title>node7</title>
<polygon fill="lightgrey" stroke="black" points="418.85,-328 268.85,-328 268.85,-292 418.85,-292 418.85,-328"/>
<text text-anchor="middle" x="343.85" y="-306.3" font-family="Times,serif" font-size="14.00">#7 true Order : 10</text>
</g>
<!-- node6&#45;&gt;node7 -->
<g id="edge19" class="edge">
<title>node6&#45;&gt;node7</title>
<path fill="none" stroke="red" d="M472.6,-364.99C446.88,-355.1 415.46,-342.54 390.06,-332.03"/>
<polygon fill="red" stroke="red" points="391.22,-328.73 380.65,-328.11 388.53,-335.19 391.22,-328.73"/>
</g>
<!-- node8 -->
<g id="node9" class="node">
<title>node8</title>
<polygon fill="lightgrey" stroke="black" points="593.35,-328 448.35,-328 448.35,-292 593.35,-292 593.35,-328"/>
<text text-anchor="middle" x="520.85" y="-306.3" font-family="Times,serif" font-size="14.00">#8 false Order : 7</text>
</g>
<!-- node6&#45;&gt;node8 -->
<g id="edge21" class="edge">
<title>node6&#45;&gt;node8</title>
<path fill="none" stroke="red" d="M514.98,-364.81C514.14,-356.79 513.9,-347.05 514.28,-338.07"/>
<polygon fill="red" stroke="red" points="517.77,-338.25 514.99,-328.03 510.79,-337.75 517.77,-338.25"/>
</g>
<!-- node15 -->
<g id="node16" class="node">
<title>node15</title>
<polygon fill="lightgrey" stroke="black" points="799.35,-36 548.35,-36 548.35,0 799.35,0 799.35,-36"/>
<text text-anchor="middle" x="673.85" y="-14.3" font-family="Times,serif" font-size="14.00">#15 ReturnValue : int Order : 15</text>
</g>
<!-- node6&#45;&gt;node15 -->
<g id="edge40" class="edge">
<title>node6&#45;&gt;node15</title>
<path fill="none" stroke="green" d="M459.66,-379.99C402.3,-375.91 316.07,-363.77 250.85,-328 172.74,-285.16 112.19,-216.35 166.85,-146 211.78,-88.17 403.83,-52.29 538.24,-33.98"/>
<polygon fill="green" stroke="green" points="538.77,-37.44 548.22,-32.64 537.84,-30.51 538.77,-37.44"/>
</g>
<!-- node7&#45;&gt;node6 -->
<g id="edge18" class="edge">
<title>node7&#45;&gt;node6</title>
<path fill="none" stroke="fuchsia" stroke-width="2" d="M392.39,-328.11C418.15,-338.03 449.56,-350.58 474.92,-361.08"/>
<polygon fill="fuchsia" stroke="fuchsia" stroke-width="2" points="473.74,-364.38 484.32,-364.99 476.43,-357.92 473.74,-364.38"/>
</g>
<!-- node9 -->
<g id="node10" class="node">
<title>node9</title>
<polygon fill="lightgrey" stroke="black" points="395.35,-255 198.35,-255 198.35,-219 395.35,-219 395.35,-255"/>
<text text-anchor="middle" x="296.85" y="-233.3" font-family="Times,serif" font-size="14.00">#9 LabelNode Order : 11</text>
</g>
<!-- node7&#45;&gt;node9 -->
<g id="edge23" class="edge">
<title>node7&#45;&gt;node9</title>
<path fill="none" stroke="red" d="M326.6,-291.81C320.18,-283.44 313.18,-273.2 307.47,-263.9"/>
<polygon fill="red" stroke="red" points="310.35,-261.88 302.26,-255.03 304.31,-265.42 310.35,-261.88"/>
</g>
<!-- node8&#45;&gt;node6 -->
<g id="edge20" class="edge">
<title>node8&#45;&gt;node6</title>
<path fill="none" stroke="fuchsia" stroke-width="2" d="M526.72,-328.03C527.56,-336.03 527.8,-345.77 527.44,-354.75"/>
<polygon fill="fuchsia" stroke="fuchsia" stroke-width="2" points="523.94,-354.59 526.73,-364.81 530.92,-355.08 523.94,-354.59"/>
</g>
<!-- node10 -->
<g id="node11" class="node">
<title>node10</title>
<polygon fill="lightgrey" stroke="black" points="800.85,-255 646.85,-255 646.85,-219 800.85,-219 800.85,-255"/>
<text text-anchor="middle" x="723.85" y="-233.3" font-family="Times,serif" font-size="14.00">#10 Goto Order : 9</text>
</g>
<!-- node8&#45;&gt;node10 -->
<g id="edge25" class="edge">
<title>node8&#45;&gt;node10</title>
<path fill="none" stroke="red" d="M563.62,-291.99C591.46,-281.88 628.21,-268.99 659.53,-258.34"/>
<polygon fill="red" stroke="red" points="660.7,-261.64 669.05,-255.11 658.46,-255.01 660.7,-261.64"/>
</g>
<!-- node11 -->
<g id="node12" class="node">
<title>node11</title>
<polygon fill="lightgreen" stroke="black" points="628.62,-229.54 628.62,-244.46 565.49,-255 476.21,-255 413.08,-244.46 413.08,-229.54 476.21,-219 565.49,-219 628.62,-229.54"/>
<text text-anchor="middle" x="520.85" y="-233.3" font-family="Times,serif" font-size="14.00">#11 int 1 Order : 8</text>
</g>
<!-- node8&#45;&gt;node11 -->
<g id="edge27" class="edge">
<title>node8&#45;&gt;node11</title>
<path fill="none" stroke="black" stroke-dasharray="1,5" d="M514.98,-291.81C514.14,-283.79 513.9,-274.05 514.28,-265.07"/>
<polygon fill="black" stroke="black" points="517.77,-265.25 514.99,-255.03 510.79,-264.75 517.77,-265.25"/>
</g>
<!-- node9&#45;&gt;node7 -->
<g id="edge22" class="edge">
<title>node9&#45;&gt;node7</title>
<path fill="none" stroke="fuchsia" stroke-width="2" d="M313.99,-255.03C320.4,-263.38 327.4,-273.61 333.12,-282.92"/>
<polygon fill="fuchsia" stroke="fuchsia" stroke-width="2" points="330.27,-284.97 338.35,-291.81 336.3,-281.42 330.27,-284.97"/>
</g>
<!-- node12 -->
<g id="node13" class="node">
<title>node12</title>
<polygon fill="lightgrey" stroke="black" points="838.85,-182 584.85,-182 584.85,-146 838.85,-146 838.85,-182"/>
<text text-anchor="middle" x="711.85" y="-160.3" font-family="Times,serif" font-size="14.00">#12 Merge : Merge12 Order : 13</text>
</g>
<!-- node9&#45;&gt;node12 -->
<g id="edge30" class="edge">
<title>node9&#45;&gt;node12</title>
<path fill="none" stroke="red" d="M395.47,-219.13C457.59,-208.5 537.87,-194.77 602.02,-183.79"/>
<polygon fill="red" stroke="red" points="602.91,-187.19 612.17,-182.05 601.73,-180.29 602.91,-187.19"/>
</g>
<!-- node13 -->
<g id="node14" class="node">
<title>node13</title>
<polygon fill="lightgreen" stroke="black" points="412.79,-156.54 412.79,-171.46 346.05,-182 251.66,-182 184.92,-171.46 184.92,-156.54 251.66,-146 346.05,-146 412.79,-156.54"/>
<text text-anchor="middle" x="298.85" y="-160.3" font-family="Times,serif" font-size="14.00">#13 int 0 Order : 12</text>
</g>
<!-- node9&#45;&gt;node13 -->
<g id="edge32" class="edge">
<title>node9&#45;&gt;node13</title>
<path fill="none" stroke="black" stroke-dasharray="1,5" d="M291.46,-218.81C290.85,-210.79 290.89,-201.05 291.51,-192.07"/>
<polygon fill="black" stroke="black" points="295.01,-192.33 292.51,-182.03 288.04,-191.63 295.01,-192.33"/>
</g>
<!-- node10&#45;&gt;node8 -->
<g id="edge24" class="edge">
<title>node10&#45;&gt;node8</title>
<path fill="none" stroke="fuchsia" stroke-width="2" d="M680.79,-255.11C652.89,-265.25 616.13,-278.14 584.85,-288.77"/>
<polygon fill="fuchsia" stroke="fuchsia" stroke-width="2" points="583.69,-285.47 575.34,-291.99 585.93,-292.1 583.69,-285.47"/>
</g>
<!-- node10&#45;&gt;node12 -->
<g id="edge29" class="edge">
<title>node10&#45;&gt;node12</title>
<path fill="none" stroke="red" d="M720.95,-218.81C719.59,-210.79 717.95,-201.05 716.43,-192.07"/>
<polygon fill="red" stroke="red" points="719.85,-191.31 714.73,-182.03 712.95,-192.47 719.85,-191.31"/>
</g>
<!-- node11&#45;&gt;node8 -->
<g id="edge26" class="edge">
<title>node11&#45;&gt;node8</title>
<path fill="none" stroke="fuchsia" stroke-width="2" d="M526.72,-255.03C527.56,-263.03 527.8,-272.77 527.44,-281.75"/>
<polygon fill="fuchsia" stroke="fuchsia" stroke-width="2" points="523.94,-281.59 526.73,-291.81 530.92,-282.08 523.94,-281.59"/>
</g>
<!-- node14 -->
<g id="node15" class="node">
<title>node14</title>
<polygon fill="lightgreen" stroke="black" points="932.1,-83.54 932.1,-98.46 864.59,-109 769.12,-109 701.61,-98.46 701.61,-83.54 769.12,-73 864.59,-73 932.1,-83.54"/>
<text text-anchor="middle" x="816.85" y="-87.3" font-family="Times,serif" font-size="14.00">#14 Φ int Order : 14</text>
</g>
<!-- node11&#45;&gt;node14 -->
<g id="edge35" class="edge">
<title>node11&#45;&gt;node14</title>
<path fill="none" stroke="blue" d="M526.6,-218.85C534.41,-198.26 550.39,-164.23 575.85,-146 609.83,-121.67 652.87,-108.04 693.15,-100.49"/>
<polygon fill="blue" stroke="blue" points="693.81,-103.93 703.05,-98.74 692.59,-97.03 693.81,-103.93"/>
<text text-anchor="middle" x="686.66" y="-106.52" font-family="Times,serif" font-size="14.00">if #10</text>
</g>
<!-- node12&#45;&gt;node6 -->
<g id="edge28" class="edge">
<title>node12&#45;&gt;node6</title>
<path fill="none" stroke="fuchsia" stroke-width="2" d="M765.67,-182.09C782.86,-190.38 799.97,-202.27 809.85,-219 817.99,-232.78 818.6,-241.6 809.85,-255 761.88,-328.48 660.85,-359.73 591.91,-372.82"/>
<polygon fill="fuchsia" stroke="fuchsia" stroke-width="2" points="591.2,-369.4 581.98,-374.63 592.45,-376.28 591.2,-369.4"/>
</g>
<!-- node12&#45;&gt;node14 -->
<g id="edge34" class="edge">
<title>node12&#45;&gt;node14</title>
<path fill="none" stroke="black" stroke-dasharray="1,5" d="M737,-145.99C750.8,-136.67 768.09,-124.97 783.05,-114.86"/>
<polygon fill="black" stroke="black" points="785.22,-117.61 791.55,-109.11 781.3,-111.82 785.22,-117.61"/>
</g>
<!-- node12&#45;&gt;node15 -->
<g id="edge39" class="edge">
<title>node12&#45;&gt;node15</title>
<path fill="none" stroke="red" d="M705.11,-145.67C701.18,-135.17 696.34,-121.44 692.85,-109 687.01,-88.15 682.03,-64.13 678.63,-46.15"/>
<polygon fill="red" stroke="red" points="682.03,-45.28 676.77,-36.08 675.14,-46.55 682.03,-45.28"/>
</g>
<!-- node13&#45;&gt;node9 -->
<g id="edge31" class="edge">
<title>node13&#45;&gt;node9</title>
<path fill="none" stroke="fuchsia" stroke-width="2" d="M304.24,-182.03C304.86,-190.03 304.82,-199.77 304.21,-208.75"/>
<polygon fill="fuchsia" stroke="fuchsia" stroke-width="2" points="300.71,-208.52 303.22,-218.81 307.68,-209.2 300.71,-208.52"/>
</g>
<!-- node13&#45;&gt;node14 -->
<g id="edge36" class="edge">
<title>node13&#45;&gt;node14</title>
<path fill="none" stroke="blue" d="M381.79,-151.63C474.96,-138.86 625.84,-118.18 723.18,-104.84"/>
<polygon fill="blue" stroke="blue" points="723.88,-108.28 733.31,-103.45 722.92,-101.34 723.88,-108.28"/>
<text text-anchor="middle" x="716.5" y="-110.59" font-family="Times,serif" font-size="14.00">if #9</text>
</g>
<!-- node14&#45;&gt;node6 -->
<g id="edge33" class="edge">
<title>node14&#45;&gt;node6</title>
<path fill="none" stroke="fuchsia" stroke-width="2" d="M838.06,-109.24C851.69,-122.36 866.85,-141.74 866.85,-163 866.85,-311 866.85,-311 866.85,-311 866.85,-366.58 693.37,-379.05 592.08,-381.59"/>
<polygon fill="fuchsia" stroke="fuchsia" stroke-width="2" points="591.83,-378.09 581.92,-381.82 591.99,-385.09 591.83,-378.09"/>
</g>
<!-- node14&#45;&gt;node15 -->
<g id="edge38" class="edge">
<title>node14&#45;&gt;node15</title>
<path fill="none" stroke="black" d="M782.6,-72.99C763.02,-63.27 738.28,-50.99 717.34,-40.59"/>
<polygon fill="black" stroke="black" points="718.84,-37.43 708.32,-36.11 715.72,-43.7 718.84,-37.43"/>
<text text-anchor="middle" x="728.32" y="-32.9" font-family="Times,serif" font-size="14.00">*0</text>
</g>
<!-- node15&#45;&gt;node6 -->
<g id="edge37" class="edge">
<title>node15&#45;&gt;node6</title>
<path fill="none" stroke="fuchsia" stroke-width="2" d="M548.18,-34.45C418.58,-52.9 229.4,-88.67 184.85,-146 130.19,-216.35 190.74,-285.16 268.85,-328 325.05,-358.82 396.85,-372.1 449.48,-377.79"/>
<polygon fill="fuchsia" stroke="fuchsia" stroke-width="2" points="449.44,-381.31 459.74,-378.83 450.15,-374.34 449.44,-381.31"/>
</g>
<!-- c0 -->
<!-- c1 -->
<!-- c0&#45;&gt;c1 -->
<g id="edge41" class="edge">
<title>c0&#45;&gt;c1</title>
<path fill="none" stroke="red" d="M1304.75,-675C1315.96,-675 1374.1,-675 1399.71,-675"/>
<polygon fill="red" stroke="red" points="1399.91,-678.5 1409.91,-675 1399.91,-671.5 1399.91,-678.5"/>
<text text-anchor="middle" x="1357.35" y="-681.8" font-family="Times,serif" font-size="14.00">Control flow</text>
</g>
<!-- c2 -->
<!-- c3 -->
<!-- c2&#45;&gt;c3 -->
<g id="edge42" class="edge">
<title>c2&#45;&gt;c3</title>
<path fill="none" stroke="red" stroke-dasharray="5,2" d="M1097.93,-675C1114.9,-675 1231.06,-675 1268.94,-675"/>
<polygon fill="red" stroke="red" points="1269.02,-678.5 1279.02,-675 1269.02,-671.5 1269.02,-678.5"/>
<text text-anchor="middle" x="1188.35" y="-681.8" font-family="Times,serif" font-size="14.00">Control flow back edge</text>
</g>
<!-- d0 -->
<!-- d1 -->
<!-- d0&#45;&gt;d1 -->
<g id="edge43" class="edge">
<title>d0&#45;&gt;d1</title>
<path fill="none" stroke="black" d="M986.71,-675C996.26,-675 1040.16,-675 1061.77,-675"/>
<polygon fill="black" stroke="black" points="1062.01,-678.5 1072.01,-675 1062.01,-671.5 1062.01,-678.5"/>
<text text-anchor="middle" x="1029.35" y="-681.8" font-family="Times,serif" font-size="14.00">Data flow</text>
</g>
<!-- d2 -->
<!-- d3 -->
<!-- d2&#45;&gt;d3 -->
<g id="edge44" class="edge">
<title>d2&#45;&gt;d3</title>
<path fill="none" stroke="black" stroke-dasharray="1,5" d="M860.66,-675C871.31,-675 926.32,-675 950.93,-675"/>
<polygon fill="black" stroke="black" points="951,-678.5 961,-675 951,-671.5 951,-678.5"/>
<text text-anchor="middle" x="910.85" y="-681.8" font-family="Times,serif" font-size="14.00">Declaration</text>
</g>
<!-- d4 -->
<!-- d5 -->
<!-- d4&#45;&gt;d5 -->
<g id="edge45" class="edge">
<title>d4&#45;&gt;d5</title>
<path fill="none" stroke="blue" d="M717.95,-675C730.58,-675 796.73,-675 824.53,-675"/>
<polygon fill="blue" stroke="blue" points="824.7,-678.5 834.7,-675 824.7,-671.5 824.7,-678.5"/>
<text text-anchor="middle" x="776.35" y="-681.8" font-family="Times,serif" font-size="14.00">PHI Data flow</text>
</g>
<!-- d6 -->
<!-- d7 -->
<!-- d6&#45;&gt;d7 -->
<g id="edge46" class="edge">
<title>d6&#45;&gt;d7</title>
<path fill="none" stroke="green" d="M580.85,-675C592.79,-675 655.15,-675 681.78,-675"/>
<polygon fill="green" stroke="green" points="681.8,-678.5 691.8,-675 681.8,-671.5 681.8,-678.5"/>
<text text-anchor="middle" x="636.35" y="-681.8" font-family="Times,serif" font-size="14.00">Memory flow</text>
</g>
<!-- d8 -->
<!-- d9 -->
<!-- d8&#45;&gt;d9 -->
<g id="edge47" class="edge">
<title>d8&#45;&gt;d9</title>
<path fill="none" stroke="fuchsia" d="M457.96,-675C469,-675 520.52,-675 544.51,-675"/>
<polygon fill="fuchsia" stroke="fuchsia" points="544.76,-678.5 554.76,-675 544.76,-671.5 544.76,-678.5"/>
<text text-anchor="middle" x="506.35" y="-681.8" font-family="Times,serif" font-size="14.00">Dominance</text>
</g>
</g>
</svg>
