<?xml version="1.0" encoding="UTF-8" standalone="no"?>
<!DOCTYPE svg PUBLIC "-//W3C//DTD SVG 1.1//EN"
 "http://www.w3.org/Graphics/SVG/1.1/DTD/svg11.dtd">
<!-- Generated by graphviz version 2.43.0 (0)
 -->
<!-- Title: %3 Pages: 1 -->
<svg width="1071pt" height="295pt"
 viewBox="0.00 0.00 1071.00 294.80" xmlns="http://www.w3.org/2000/svg" xmlns:xlink="http://www.w3.org/1999/xlink">
<g id="graph0" class="graph" transform="scale(1 1) rotate(0) translate(4 290.8)">
<title>%3</title>
<polygon fill="white" stroke="transparent" points="-4,4 -4,-290.8 1067,-290.8 1067,4 -4,4"/>
<g id="clust1" class="cluster">
<title>cluster_0</title>
<polygon fill="none" stroke="lightgray" points="8,-65 8,-190 202,-190 202,-65 8,-65"/>
</g>
<g id="clust2" class="cluster">
<title>cluster_000</title>
<polygon fill="none" stroke="black" points="202,-236.2 202,-278.8 1055,-278.8 1055,-236.2 202,-236.2"/>
<text text-anchor="middle" x="628.5" y="-263.6" font-family="Times,serif" font-size="14.00">Legend</text>
</g>
<!-- node0 -->
<g id="node1" class="node">
<title>node0</title>
<polygon fill="lightgrey" stroke="transparent" points="192.5,-273 59.5,-273 59.5,-219 192.5,-219 192.5,-273"/>
<polygon fill="none" stroke="black" points="60,-246 60,-273 193,-273 193,-246 60,-246"/>
<text text-anchor="start" x="86" y="-255.8" font-family="Times,serif" font-size="14.00">#0 Method</text>
<polygon fill="yellow" stroke="transparent" points="60,-219 60,-246 193,-246 193,-219 60,-219"/>
<polygon fill="none" stroke="black" points="60,-219 60,-246 193,-246 193,-219 60,-219"/>
<text text-anchor="start" x="66" y="-228.8" font-family="Times,serif" font-size="14.00">this : ReturnTest</text>
</g>
<!-- node2 -->
<g id="node2" class="node">
<title>node2</title>
<polygon fill="lightgrey" stroke="black" points="185.5,-182 66.5,-182 66.5,-146 185.5,-146 185.5,-182"/>
<text text-anchor="middle" x="126" y="-160.3" font-family="Times,serif" font-size="14.00">#2 LabelNode</text>
</g>
<!-- node0&#45;&gt;node2 -->
<g id="edge1" class="edge">
<title>node0&#45;&gt;node2</title>
<path fill="none" stroke="red" d="M126,-218.81C126,-210.35 126,-200.95 126,-192.4"/>
<polygon fill="red" stroke="red" points="129.5,-192.17 126,-182.17 122.5,-192.17 129.5,-192.17"/>
</g>
<!-- node4 -->
<g id="node3" class="node">
<title>node4</title>
<polygon fill="lightgrey" stroke="black" points="259,-36 67,-36 67,0 259,0 259,-36"/>
<text text-anchor="middle" x="163" y="-14.3" font-family="Times,serif" font-size="14.00">#4 ReturnValue : double</text>
</g>
<!-- node0&#45;&gt;node4 -->
<g id="edge4" class="edge">
<title>node0&#45;&gt;node4</title>
<path fill="none" stroke="green" d="M177.23,-218.92C188.28,-211.04 198.79,-201.4 206,-190 235.85,-142.79 236.27,-118.12 219,-65 216.2,-56.4 210.56,-49 203.9,-42.81"/>
<polygon fill="green" stroke="green" points="205.66,-39.73 195.71,-36.1 201.22,-45.14 205.66,-39.73"/>
</g>
<!-- node2&#45;&gt;node4 -->
<g id="edge3" class="edge">
<title>node2&#45;&gt;node4</title>
<path fill="none" stroke="red" d="M164.48,-145.89C179.33,-137.15 194.71,-124.93 203,-109 212.02,-91.65 209.85,-83.32 203,-65 200.13,-57.33 195.35,-50.1 190.06,-43.74"/>
<polygon fill="red" stroke="red" points="192.52,-41.24 183.21,-36.18 187.33,-45.94 192.52,-41.24"/>
</g>
<!-- node3 -->
<g id="node4" class="node">
<title>node3</title>
<polygon fill="lightgreen" stroke="black" points="193.78,-83.54 193.78,-98.46 141.77,-109 68.23,-109 16.22,-98.46 16.22,-83.54 68.23,-73 141.77,-73 193.78,-83.54"/>
<text text-anchor="middle" x="105" y="-87.3" font-family="Times,serif" font-size="14.00">#3 double 10.0</text>
</g>
<!-- node2&#45;&gt;node3 -->
<g id="edge5" class="edge">
<title>node2&#45;&gt;node3</title>
<path fill="none" stroke="black" stroke-dasharray="1,5" d="M120.92,-145.81C118.52,-137.7 115.6,-127.84 112.92,-118.78"/>
<polygon fill="black" stroke="black" points="116.23,-117.63 110.04,-109.03 109.52,-119.61 116.23,-117.63"/>
</g>
<!-- node3&#45;&gt;node4 -->
<g id="edge2" class="edge">
<title>node3&#45;&gt;node4</title>
<path fill="none" stroke="black" d="M119.04,-72.81C126.09,-64.18 134.77,-53.56 142.55,-44.03"/>
<polygon fill="black" stroke="black" points="145.47,-45.99 149.09,-36.03 140.05,-41.56 145.47,-45.99"/>
<text text-anchor="middle" x="144.17" y="-51.71" font-family="Times,serif" font-size="14.00">*0</text>
</g>
<!-- c0 -->
<!-- c1 -->
<!-- c0&#45;&gt;c1 -->
<g id="edge6" class="edge">
<title>c0&#45;&gt;c1</title>
<path fill="none" stroke="red" d="M937.89,-246C949.11,-246 1007.24,-246 1032.86,-246"/>
<polygon fill="red" stroke="red" points="1033.06,-249.5 1043.06,-246 1033.06,-242.5 1033.06,-249.5"/>
<text text-anchor="middle" x="990.5" y="-252.8" font-family="Times,serif" font-size="14.00">Control flow</text>
</g>
<!-- c2 -->
<!-- c3 -->
<!-- c2&#45;&gt;c3 -->
<g id="edge7" class="edge">
<title>c2&#45;&gt;c3</title>
<path fill="none" stroke="red" stroke-dasharray="5,2" d="M731.08,-246C748.05,-246 864.21,-246 902.08,-246"/>
<polygon fill="red" stroke="red" points="902.17,-249.5 912.17,-246 902.17,-242.5 902.17,-249.5"/>
<text text-anchor="middle" x="821.5" y="-252.8" font-family="Times,serif" font-size="14.00">Control flow back edge</text>
</g>
<!-- d0 -->
<!-- d1 -->
<!-- d0&#45;&gt;d1 -->
<g id="edge8" class="edge">
<title>d0&#45;&gt;d1</title>
<path fill="none" stroke="black" d="M619.86,-246C629.41,-246 673.31,-246 694.92,-246"/>
<polygon fill="black" stroke="black" points="695.15,-249.5 705.15,-246 695.15,-242.5 695.15,-249.5"/>
<text text-anchor="middle" x="662.5" y="-252.8" font-family="Times,serif" font-size="14.00">Data flow</text>
</g>
<!-- d2 -->
<!-- d3 -->
<!-- d2&#45;&gt;d3 -->
<g id="edge9" class="edge">
<title>d2&#45;&gt;d3</title>
<path fill="none" stroke="black" stroke-dasharray="1,5" d="M493.81,-246C504.46,-246 559.46,-246 584.08,-246"/>
<polygon fill="black" stroke="black" points="584.15,-249.5 594.15,-246 584.15,-242.5 584.15,-249.5"/>
<text text-anchor="middle" x="544" y="-252.8" font-family="Times,serif" font-size="14.00">Declaration</text>
</g>
<!-- d4 -->
<!-- d5 -->
<!-- d4&#45;&gt;d5 -->
<g id="edge10" class="edge">
<title>d4&#45;&gt;d5</title>
<path fill="none" stroke="blue" d="M351.1,-246C363.72,-246 429.88,-246 457.68,-246"/>
<polygon fill="blue" stroke="blue" points="457.84,-249.5 467.84,-246 457.84,-242.5 457.84,-249.5"/>
<text text-anchor="middle" x="409.5" y="-252.8" font-family="Times,serif" font-size="14.00">PHI Data flow</text>
</g>
<!-- d6 -->
<!-- d7 -->
<!-- d6&#45;&gt;d7 -->
<g id="edge11" class="edge">
<title>d6&#45;&gt;d7</title>
<path fill="none" stroke="green" d="M214,-246C225.94,-246 288.3,-246 314.93,-246"/>
<polygon fill="green" stroke="green" points="314.95,-249.5 324.95,-246 314.95,-242.5 314.95,-249.5"/>
<text text-anchor="middle" x="269.5" y="-252.8" font-family="Times,serif" font-size="14.00">Memory flow</text>
</g>
</g>
</svg>
