<?xml version="1.0" encoding="UTF-8" standalone="no"?>
<!DOCTYPE svg PUBLIC "-//W3C//DTD SVG 1.1//EN"
 "http://www.w3.org/Graphics/SVG/1.1/DTD/svg11.dtd">
<!-- Generated by graphviz version 2.43.0 (0)
 -->
<!-- Title: debugoutput Pages: 1 -->
<svg width="699pt" height="213pt"
 viewBox="0.00 0.00 698.50 212.80" xmlns="http://www.w3.org/2000/svg" xmlns:xlink="http://www.w3.org/1999/xlink">
<g id="graph0" class="graph" transform="scale(1 1) rotate(0) translate(4 208.8)">
<title>debugoutput</title>
<polygon fill="white" stroke="transparent" points="-4,4 -4,-208.8 694.5,-208.8 694.5,4 -4,4"/>
<g id="clust1" class="cluster">
<title>cluster_000</title>
<polygon fill="none" stroke="black" points="223.5,-154.2 223.5,-196.8 682.5,-196.8 682.5,-154.2 223.5,-154.2"/>
<text text-anchor="middle" x="453" y="-181.6" font-family="Times,serif" font-size="14.00">Legend</text>
</g>
<!-- node0 -->
<g id="node1" class="node">
<title>node0</title>
<polygon fill="lightgrey" stroke="black" points="213.5,-182 47.5,-182 47.5,-146 213.5,-146 213.5,-182"/>
<text text-anchor="middle" x="130.5" y="-160.3" font-family="Times,serif" font-size="14.00">#0 Method Order : 0</text>
</g>
<!-- node1 -->
<g id="node2" class="node">
<title>node1</title>
<polygon fill="lightgrey" stroke="black" points="224.5,-109 36.5,-109 36.5,-73 224.5,-73 224.5,-109"/>
<text text-anchor="middle" x="130.5" y="-87.3" font-family="Times,serif" font-size="14.00">#1 LabelNode Order : 1</text>
</g>
<!-- node0&#45;&gt;node1 -->
<g id="edge2" class="edge">
<title>node0&#45;&gt;node1</title>
<path fill="none" stroke="red" d="M124.62,-145.81C123.78,-137.79 123.55,-128.05 123.92,-119.07"/>
<polygon fill="red" stroke="red" points="127.42,-119.25 124.64,-109.03 120.44,-118.75 127.42,-119.25"/>
</g>
<!-- node1&#45;&gt;node0 -->
<g id="edge1" class="edge">
<title>node1&#45;&gt;node0</title>
<path fill="none" stroke="fuchsia" stroke-width="2" d="M136.36,-109.03C137.21,-117.03 137.45,-126.77 137.09,-135.75"/>
<polygon fill="fuchsia" stroke="fuchsia" stroke-width="2" points="133.59,-135.59 136.38,-145.81 140.57,-136.08 133.59,-135.59"/>
</g>
<!-- node2 -->
<g id="node3" class="node">
<title>node2</title>
<polygon fill="lightgrey" stroke="black" points="261,-36 0,-36 0,0 261,0 261,-36"/>
<text text-anchor="middle" x="130.5" y="-14.3" font-family="Times,serif" font-size="14.00">#2 ReturnValue : double Order : 2</text>
</g>
<!-- node1&#45;&gt;node2 -->
<g id="edge4" class="edge">
<title>node1&#45;&gt;node2</title>
<path fill="none" stroke="red" d="M124.62,-72.81C123.78,-64.79 123.55,-55.05 123.92,-46.07"/>
<polygon fill="red" stroke="red" points="127.42,-46.25 124.64,-36.03 120.44,-45.75 127.42,-46.25"/>
</g>
<!-- node2&#45;&gt;node1 -->
<g id="edge3" class="edge">
<title>node2&#45;&gt;node1</title>
<path fill="none" stroke="fuchsia" stroke-width="2" d="M136.36,-36.03C137.21,-44.03 137.45,-53.77 137.09,-62.75"/>
<polygon fill="fuchsia" stroke="fuchsia" stroke-width="2" points="133.59,-62.59 136.38,-72.81 140.57,-63.08 133.59,-62.59"/>
</g>
<!-- c0 -->
<!-- c1 -->
<!-- c0&#45;&gt;c1 -->
<g id="edge5" class="edge">
<title>c0&#45;&gt;c1</title>
<path fill="none" stroke="red" d="M565.39,-164C576.61,-164 634.74,-164 660.36,-164"/>
<polygon fill="red" stroke="red" points="660.56,-167.5 670.56,-164 660.56,-160.5 660.56,-167.5"/>
<text text-anchor="middle" x="618" y="-170.8" font-family="Times,serif" font-size="14.00">Control flow</text>
</g>
<!-- c2 -->
<!-- c3 -->
<!-- c2&#45;&gt;c3 -->
<g id="edge6" class="edge">
<title>c2&#45;&gt;c3</title>
<path fill="none" stroke="red" stroke-dasharray="5,2" d="M358.58,-164C375.55,-164 491.71,-164 529.58,-164"/>
<polygon fill="red" stroke="red" points="529.67,-167.5 539.67,-164 529.67,-160.5 529.67,-167.5"/>
<text text-anchor="middle" x="449" y="-170.8" font-family="Times,serif" font-size="14.00">Control flow back edge</text>
</g>
<!-- d8 -->
<!-- d9 -->
<!-- d8&#45;&gt;d9 -->
<g id="edge7" class="edge">
<title>d8&#45;&gt;d9</title>
<path fill="none" stroke="fuchsia" d="M235.61,-164C246.65,-164 298.17,-164 322.16,-164"/>
<polygon fill="fuchsia" stroke="fuchsia" points="322.4,-167.5 332.4,-164 322.4,-160.5 322.4,-167.5"/>
<text text-anchor="middle" x="284" y="-170.8" font-family="Times,serif" font-size="14.00">Dominance</text>
</g>
</g>
</svg>
