<?xml version="1.0" encoding="UTF-8" standalone="no"?>
<!DOCTYPE svg PUBLIC "-//W3C//DTD SVG 1.1//EN"
 "http://www.w3.org/Graphics/SVG/1.1/DTD/svg11.dtd">
<!-- Generated by graphviz version 2.43.0 (0)
 -->
<!-- Title: %3 Pages: 1 -->
<svg width="1212pt" height="943pt"
 viewBox="0.00 0.00 1212.00 942.80" xmlns="http://www.w3.org/2000/svg" xmlns:xlink="http://www.w3.org/1999/xlink">
<g id="graph0" class="graph" transform="scale(1 1) rotate(0) translate(4 938.8)">
<title>%3</title>
<polygon fill="white" stroke="transparent" points="-4,4 -4,-938.8 1208,-938.8 1208,4 -4,4"/>
<g id="clust1" class="cluster">
<title>cluster_000</title>
<polygon fill="none" stroke="black" points="860,-884.2 860,-926.8 1196,-926.8 1196,-884.2 860,-884.2"/>
<text text-anchor="middle" x="1028" y="-911.6" font-family="Times,serif" font-size="14.00">Legend</text>
</g>
<!-- node0 -->
<g id="node1" class="node">
<title>node0</title>
<polygon fill="lightgrey" stroke="black" points="832.5,-912 57.5,-912 57.5,-876 832.5,-876 832.5,-912"/>
<text text-anchor="middle" x="445" y="-890.3" font-family="Times,serif" font-size="14.00">#0 LocalVariable[name=this, slot=0, type=Lde/mirkosertic/metair/ir/examples/FieldAccessTest;] Order: 0</text>
</g>
<!-- node0&#45;&gt;node0 -->
<g id="edge1" class="edge">
<title>node0&#45;&gt;node0</title>
<path fill="none" stroke="fuchsia" d="M832.68,-897.52C844.06,-896.56 850.5,-895.39 850.5,-894 850.5,-893.11 847.86,-892.31 842.97,-891.59"/>
<polygon fill="fuchsia" stroke="fuchsia" points="843,-888.08 832.68,-890.48 842.24,-895.04 843,-888.08"/>
</g>
<!-- node1 -->
<g id="node2" class="node">
<title>node1</title>
<polygon fill="lightgrey" stroke="black" points="684.5,-839 205.5,-839 205.5,-803 684.5,-803 684.5,-839"/>
<text text-anchor="middle" x="445" y="-817.3" font-family="Times,serif" font-size="14.00">#1 Label[context=CodeModel[id=2121199924], bci=0] Order: 1</text>
</g>
<!-- node0&#45;&gt;node1 -->
<g id="edge2" class="edge">
<title>node0&#45;&gt;node1</title>
<path fill="none" stroke="red" d="M439.12,-875.81C438.28,-867.79 438.05,-858.05 438.42,-849.07"/>
<polygon fill="red" stroke="red" points="441.92,-849.25 439.14,-839.03 434.94,-848.75 441.92,-849.25"/>
</g>
<!-- node1&#45;&gt;node0 -->
<g id="edge3" class="edge">
<title>node1&#45;&gt;node0</title>
<path fill="none" stroke="fuchsia" d="M450.86,-839.03C451.71,-847.03 451.95,-856.77 451.59,-865.75"/>
<polygon fill="fuchsia" stroke="fuchsia" points="448.09,-865.59 450.88,-875.81 455.07,-866.08 448.09,-865.59"/>
</g>
<!-- node2 -->
<g id="node3" class="node">
<title>node2</title>
<polygon fill="lightgrey" stroke="black" points="576.5,-766 313.5,-766 313.5,-730 576.5,-730 576.5,-766"/>
<text text-anchor="middle" x="445" y="-744.3" font-family="Times,serif" font-size="14.00">#2 LineNumber[line=63] Order: 2</text>
</g>
<!-- node1&#45;&gt;node2 -->
<g id="edge4" class="edge">
<title>node1&#45;&gt;node2</title>
<path fill="none" stroke="red" d="M439.12,-802.81C438.28,-794.79 438.05,-785.05 438.42,-776.07"/>
<polygon fill="red" stroke="red" points="441.92,-776.25 439.14,-766.03 434.94,-775.75 441.92,-776.25"/>
</g>
<!-- node2&#45;&gt;node1 -->
<g id="edge5" class="edge">
<title>node2&#45;&gt;node1</title>
<path fill="none" stroke="fuchsia" d="M450.86,-766.03C451.71,-774.03 451.95,-783.77 451.59,-792.75"/>
<polygon fill="fuchsia" stroke="fuchsia" points="448.09,-792.59 450.88,-802.81 455.07,-793.08 448.09,-792.59"/>
</g>
<!-- node3 -->
<g id="node4" class="node">
<title>node3</title>
<polygon fill="lightgrey" stroke="black" points="818.5,-693 71.5,-693 71.5,-657 818.5,-657 818.5,-693"/>
<text text-anchor="middle" x="445" y="-671.3" font-family="Times,serif" font-size="14.00">#3 NewObj[OP=NEW, type=de/mirkosertic/metair/ir/examples/FieldAccessTest$Destination] Order: 3</text>
</g>
<!-- node2&#45;&gt;node3 -->
<g id="edge6" class="edge">
<title>node2&#45;&gt;node3</title>
<path fill="none" stroke="red" d="M439.12,-729.81C438.28,-721.79 438.05,-712.05 438.42,-703.07"/>
<polygon fill="red" stroke="red" points="441.92,-703.25 439.14,-693.03 434.94,-702.75 441.92,-703.25"/>
</g>
<!-- node3&#45;&gt;node2 -->
<g id="edge7" class="edge">
<title>node3&#45;&gt;node2</title>
<path fill="none" stroke="fuchsia" d="M450.86,-693.03C451.71,-701.03 451.95,-710.77 451.59,-719.75"/>
<polygon fill="fuchsia" stroke="fuchsia" points="448.09,-719.59 450.88,-729.81 455.07,-720.08 448.09,-719.59"/>
</g>
<!-- node4 -->
<g id="node5" class="node">
<title>node4</title>
<polygon fill="lightgrey" stroke="black" points="626.5,-620 263.5,-620 263.5,-584 626.5,-584 626.5,-620"/>
<text text-anchor="middle" x="445" y="-598.3" font-family="Times,serif" font-size="14.00">#4 UnboundStackInstruction[op=DUP] Order: 4</text>
</g>
<!-- node3&#45;&gt;node4 -->
<g id="edge8" class="edge">
<title>node3&#45;&gt;node4</title>
<path fill="none" stroke="red" d="M439.12,-656.81C438.28,-648.79 438.05,-639.05 438.42,-630.07"/>
<polygon fill="red" stroke="red" points="441.92,-630.25 439.14,-620.03 434.94,-629.75 441.92,-630.25"/>
</g>
<!-- node4&#45;&gt;node3 -->
<g id="edge9" class="edge">
<title>node4&#45;&gt;node3</title>
<path fill="none" stroke="fuchsia" d="M450.86,-620.03C451.71,-628.03 451.95,-637.77 451.59,-646.75"/>
<polygon fill="fuchsia" stroke="fuchsia" points="448.09,-646.59 450.88,-656.81 455.07,-647.08 448.09,-646.59"/>
</g>
<!-- node5 -->
<g id="node6" class="node">
<title>node5</title>
<polygon fill="lightgrey" stroke="black" points="885.5,-547 4.5,-547 4.5,-511 885.5,-511 885.5,-547"/>
<text text-anchor="middle" x="445" y="-525.3" font-family="Times,serif" font-size="14.00">#5 Invoke[OP=INVOKESPECIAL, m=de/mirkosertic/metair/ir/examples/FieldAccessTest$Destination.&lt;init&gt;()V] Order: 5</text>
</g>
<!-- node4&#45;&gt;node5 -->
<g id="edge10" class="edge">
<title>node4&#45;&gt;node5</title>
<path fill="none" stroke="red" d="M439.12,-583.81C438.28,-575.79 438.05,-566.05 438.42,-557.07"/>
<polygon fill="red" stroke="red" points="441.92,-557.25 439.14,-547.03 434.94,-556.75 441.92,-557.25"/>
</g>
<!-- node5&#45;&gt;node4 -->
<g id="edge11" class="edge">
<title>node5&#45;&gt;node4</title>
<path fill="none" stroke="fuchsia" d="M450.86,-547.03C451.71,-555.03 451.95,-564.77 451.59,-573.75"/>
<polygon fill="fuchsia" stroke="fuchsia" points="448.09,-573.59 450.88,-583.81 455.07,-574.08 448.09,-573.59"/>
</g>
<!-- node6 -->
<g id="node7" class="node">
<title>node6</title>
<polygon fill="lightgrey" stroke="black" points="802,-474 88,-474 88,-438 802,-438 802,-474"/>
<text text-anchor="middle" x="445" y="-452.3" font-family="Times,serif" font-size="14.00">#6 NewObj[OP=NEW, type=de/mirkosertic/metair/ir/examples/FieldAccessTest$Source] Order: 6</text>
</g>
<!-- node5&#45;&gt;node6 -->
<g id="edge12" class="edge">
<title>node5&#45;&gt;node6</title>
<path fill="none" stroke="red" d="M439.12,-510.81C438.28,-502.79 438.05,-493.05 438.42,-484.07"/>
<polygon fill="red" stroke="red" points="441.92,-484.25 439.14,-474.03 434.94,-483.75 441.92,-484.25"/>
</g>
<!-- node6&#45;&gt;node5 -->
<g id="edge13" class="edge">
<title>node6&#45;&gt;node5</title>
<path fill="none" stroke="fuchsia" d="M450.86,-474.03C451.71,-482.03 451.95,-491.77 451.59,-500.75"/>
<polygon fill="fuchsia" stroke="fuchsia" points="448.09,-500.59 450.88,-510.81 455.07,-501.08 448.09,-500.59"/>
</g>
<!-- node7 -->
<g id="node8" class="node">
<title>node7</title>
<polygon fill="lightgrey" stroke="black" points="626.5,-401 263.5,-401 263.5,-365 626.5,-365 626.5,-401"/>
<text text-anchor="middle" x="445" y="-379.3" font-family="Times,serif" font-size="14.00">#7 UnboundStackInstruction[op=DUP] Order: 7</text>
</g>
<!-- node6&#45;&gt;node7 -->
<g id="edge14" class="edge">
<title>node6&#45;&gt;node7</title>
<path fill="none" stroke="red" d="M439.12,-437.81C438.28,-429.79 438.05,-420.05 438.42,-411.07"/>
<polygon fill="red" stroke="red" points="441.92,-411.25 439.14,-401.03 434.94,-410.75 441.92,-411.25"/>
</g>
<!-- node7&#45;&gt;node6 -->
<g id="edge15" class="edge">
<title>node7&#45;&gt;node6</title>
<path fill="none" stroke="fuchsia" d="M450.86,-401.03C451.71,-409.03 451.95,-418.77 451.59,-427.75"/>
<polygon fill="fuchsia" stroke="fuchsia" points="448.09,-427.59 450.88,-437.81 455.07,-428.08 448.09,-427.59"/>
</g>
<!-- node8 -->
<g id="node9" class="node">
<title>node8</title>
<polygon fill="lightgrey" stroke="black" points="869,-328 21,-328 21,-292 869,-292 869,-328"/>
<text text-anchor="middle" x="445" y="-306.3" font-family="Times,serif" font-size="14.00">#8 Invoke[OP=INVOKESPECIAL, m=de/mirkosertic/metair/ir/examples/FieldAccessTest$Source.&lt;init&gt;()V] Order: 8</text>
</g>
<!-- node7&#45;&gt;node8 -->
<g id="edge16" class="edge">
<title>node7&#45;&gt;node8</title>
<path fill="none" stroke="red" d="M439.12,-364.81C438.28,-356.79 438.05,-347.05 438.42,-338.07"/>
<polygon fill="red" stroke="red" points="441.92,-338.25 439.14,-328.03 434.94,-337.75 441.92,-338.25"/>
</g>
<!-- node8&#45;&gt;node7 -->
<g id="edge17" class="edge">
<title>node8&#45;&gt;node7</title>
<path fill="none" stroke="fuchsia" d="M450.86,-328.03C451.71,-336.03 451.95,-345.77 451.59,-354.75"/>
<polygon fill="fuchsia" stroke="fuchsia" points="448.09,-354.59 450.88,-364.81 455.07,-355.08 448.09,-354.59"/>
</g>
<!-- node9 -->
<g id="node10" class="node">
<title>node9</title>
<polygon fill="lightgrey" stroke="black" points="864.5,-255 25.5,-255 25.5,-219 864.5,-219 864.5,-255"/>
<text text-anchor="middle" x="445" y="-233.3" font-family="Times,serif" font-size="14.00">#9 Field[OP=GETFIELD, field=de/mirkosertic/metair/ir/examples/FieldAccessTest$Source.double_field:D] Order: 9</text>
</g>
<!-- node8&#45;&gt;node9 -->
<g id="edge18" class="edge">
<title>node8&#45;&gt;node9</title>
<path fill="none" stroke="red" d="M439.12,-291.81C438.28,-283.79 438.05,-274.05 438.42,-265.07"/>
<polygon fill="red" stroke="red" points="441.92,-265.25 439.14,-255.03 434.94,-264.75 441.92,-265.25"/>
</g>
<!-- node9&#45;&gt;node8 -->
<g id="edge19" class="edge">
<title>node9&#45;&gt;node8</title>
<path fill="none" stroke="fuchsia" d="M450.86,-255.03C451.71,-263.03 451.95,-272.77 451.59,-281.75"/>
<polygon fill="fuchsia" stroke="fuchsia" points="448.09,-281.59 450.88,-291.81 455.07,-282.08 448.09,-281.59"/>
</g>
<!-- node10 -->
<g id="node11" class="node">
<title>node10</title>
<polygon fill="lightgrey" stroke="black" points="890,-182 0,-182 0,-146 890,-146 890,-182"/>
<text text-anchor="middle" x="445" y="-160.3" font-family="Times,serif" font-size="14.00">#10 Field[OP=PUTFIELD, field=de/mirkosertic/metair/ir/examples/FieldAccessTest$Destination.double_field:D] Order: 10</text>
</g>
<!-- node9&#45;&gt;node10 -->
<g id="edge20" class="edge">
<title>node9&#45;&gt;node10</title>
<path fill="none" stroke="red" d="M439.12,-218.81C438.28,-210.79 438.05,-201.05 438.42,-192.07"/>
<polygon fill="red" stroke="red" points="441.92,-192.25 439.14,-182.03 434.94,-191.75 441.92,-192.25"/>
</g>
<!-- node10&#45;&gt;node9 -->
<g id="edge21" class="edge">
<title>node10&#45;&gt;node9</title>
<path fill="none" stroke="fuchsia" d="M450.86,-182.03C451.71,-190.03 451.95,-199.77 451.59,-208.75"/>
<polygon fill="fuchsia" stroke="fuchsia" points="448.09,-208.59 450.88,-218.81 455.07,-209.08 448.09,-208.59"/>
</g>
<!-- node11 -->
<g id="node12" class="node">
<title>node11</title>
<polygon fill="lightgrey" stroke="black" points="585.5,-109 304.5,-109 304.5,-73 585.5,-73 585.5,-109"/>
<text text-anchor="middle" x="445" y="-87.3" font-family="Times,serif" font-size="14.00">#11 LineNumber[line=64] Order: 11</text>
</g>
<!-- node10&#45;&gt;node11 -->
<g id="edge22" class="edge">
<title>node10&#45;&gt;node11</title>
<path fill="none" stroke="red" d="M439.12,-145.81C438.28,-137.79 438.05,-128.05 438.42,-119.07"/>
<polygon fill="red" stroke="red" points="441.92,-119.25 439.14,-109.03 434.94,-118.75 441.92,-119.25"/>
</g>
<!-- node11&#45;&gt;node10 -->
<g id="edge23" class="edge">
<title>node11&#45;&gt;node10</title>
<path fill="none" stroke="fuchsia" d="M450.86,-109.03C451.71,-117.03 451.95,-126.77 451.59,-135.75"/>
<polygon fill="fuchsia" stroke="fuchsia" points="448.09,-135.59 450.88,-145.81 455.07,-136.08 448.09,-135.59"/>
</g>
<!-- node12 -->
<g id="node13" class="node">
<title>node12</title>
<polygon fill="lightgrey" stroke="black" points="586,-36 304,-36 304,0 586,0 586,-36"/>
<text text-anchor="middle" x="445" y="-14.3" font-family="Times,serif" font-size="14.00">#12 Return[OP=RETURN] Order: 12</text>
</g>
<!-- node11&#45;&gt;node12 -->
<g id="edge24" class="edge">
<title>node11&#45;&gt;node12</title>
<path fill="none" stroke="red" d="M439.12,-72.81C438.28,-64.79 438.05,-55.05 438.42,-46.07"/>
<polygon fill="red" stroke="red" points="441.92,-46.25 439.14,-36.03 434.94,-45.75 441.92,-46.25"/>
</g>
<!-- node12&#45;&gt;node11 -->
<g id="edge25" class="edge">
<title>node12&#45;&gt;node11</title>
<path fill="none" stroke="fuchsia" d="M450.86,-36.03C451.71,-44.03 451.95,-53.77 451.59,-62.75"/>
<polygon fill="fuchsia" stroke="fuchsia" points="448.09,-62.59 450.88,-72.81 455.07,-63.08 448.09,-62.59"/>
</g>
<!-- c0 -->
<!-- c1 -->
<!-- c0&#45;&gt;c1 -->
<g id="edge26" class="edge">
<title>c0&#45;&gt;c1</title>
<path fill="none" stroke="red" d="M1078.89,-894C1090.11,-894 1148.24,-894 1173.86,-894"/>
<polygon fill="red" stroke="red" points="1174.06,-897.5 1184.06,-894 1174.06,-890.5 1174.06,-897.5"/>
<text text-anchor="middle" x="1131.5" y="-900.8" font-family="Times,serif" font-size="14.00">Control flow</text>
</g>
<!-- c2 -->
<!-- c3 -->
<!-- c2&#45;&gt;c3 -->
<g id="edge27" class="edge">
<title>c2&#45;&gt;c3</title>
<path fill="none" stroke="red" stroke-dasharray="5,2" d="M872.08,-894C889.05,-894 1005.21,-894 1043.08,-894"/>
<polygon fill="red" stroke="red" points="1043.17,-897.5 1053.17,-894 1043.17,-890.5 1043.17,-897.5"/>
<text text-anchor="middle" x="962.5" y="-900.8" font-family="Times,serif" font-size="14.00">Control flow back edge</text>
</g>
</g>
</svg>
