<?xml version="1.0" encoding="UTF-8" standalone="no"?>
<!DOCTYPE svg PUBLIC "-//W3C//DTD SVG 1.1//EN"
 "http://www.w3.org/Graphics/SVG/1.1/DTD/svg11.dtd">
<!-- Generated by graphviz version 2.43.0 (0)
 -->
<!-- Title: %3 Pages: 1 -->
<svg width="1483pt" height="879pt"
 viewBox="0.00 0.00 1483.05 878.80" xmlns="http://www.w3.org/2000/svg" xmlns:xlink="http://www.w3.org/1999/xlink">
<g id="graph0" class="graph" transform="scale(1 1) rotate(0) translate(4 874.8)">
<title>%3</title>
<polygon fill="white" stroke="transparent" points="-4,4 -4,-874.8 1479.05,-874.8 1479.05,4 -4,4"/>
<g id="clust1" class="cluster">
<title>cluster_0</title>
<polygon fill="none" stroke="lightgray" points="381.05,-649 381.05,-774 805.05,-774 805.05,-649 381.05,-649"/>
</g>
<g id="clust2" class="cluster">
<title>cluster_1</title>
<polygon fill="none" stroke="lightgray" points="309.05,-357 309.05,-482 687.05,-482 687.05,-357 309.05,-357"/>
</g>
<g id="clust3" class="cluster">
<title>cluster_000</title>
<polygon fill="none" stroke="black" points="614.05,-820.2 614.05,-862.8 1467.05,-862.8 1467.05,-820.2 614.05,-820.2"/>
<text text-anchor="middle" x="1040.55" y="-847.6" font-family="Times,serif" font-size="14.00">Legend</text>
</g>
<!-- node0 -->
<g id="node1" class="node">
<title>node0</title>
<polygon fill="lightgrey" stroke="transparent" points="604.55,-857 437.55,-857 437.55,-803 604.55,-803 604.55,-857"/>
<polygon fill="none" stroke="black" points="438.05,-830 438.05,-857 605.05,-857 605.05,-830 438.05,-830"/>
<text text-anchor="start" x="481.05" y="-839.8" font-family="Times,serif" font-size="14.00">#0 Method</text>
<polygon fill="yellow" stroke="transparent" points="438.05,-803 438.05,-830 605.05,-830 605.05,-803 438.05,-803"/>
<polygon fill="none" stroke="black" points="438.05,-803 438.05,-830 605.05,-830 605.05,-803 438.05,-803"/>
<text text-anchor="start" x="444.05" y="-812.8" font-family="Times,serif" font-size="14.00">this : FieldAccessTest</text>
</g>
<!-- node2 -->
<g id="node2" class="node">
<title>node2</title>
<polygon fill="lightgrey" stroke="black" points="580.55,-766 461.55,-766 461.55,-730 580.55,-730 580.55,-766"/>
<text text-anchor="middle" x="521.05" y="-744.3" font-family="Times,serif" font-size="14.00">#2 LabelNode</text>
</g>
<!-- node0&#45;&gt;node2 -->
<g id="edge1" class="edge">
<title>node0&#45;&gt;node2</title>
<path fill="none" stroke="red" d="M521.05,-802.81C521.05,-794.35 521.05,-784.95 521.05,-776.4"/>
<polygon fill="red" stroke="red" points="524.55,-776.17 521.05,-766.17 517.55,-776.17 524.55,-776.17"/>
</g>
<!-- node4 -->
<g id="node4" class="node">
<title>node4</title>
<polygon fill="lightgrey" stroke="black" points="567.55,-620 462.55,-620 462.55,-584 567.55,-584 567.55,-620"/>
<text text-anchor="middle" x="515.05" y="-598.3" font-family="Times,serif" font-size="14.00">#4 ClassInit</text>
</g>
<!-- node0&#45;&gt;node4 -->
<g id="edge5" class="edge">
<title>node0&#45;&gt;node4</title>
<path fill="none" stroke="green" d="M604.82,-804.18C606.58,-803.77 608.32,-803.38 610.05,-803 653.72,-793.49 779.82,-807.8 809.05,-774 845.39,-731.98 845.17,-691.21 809.05,-649 779.92,-614.96 655.29,-605.93 577.95,-603.64"/>
<polygon fill="green" stroke="green" points="577.92,-600.14 567.83,-603.38 577.73,-607.14 577.92,-600.14"/>
</g>
<!-- node3 -->
<g id="node3" class="node">
<title>node3</title>
<polygon fill="lightgreen" stroke="black" points="797.08,-667.54 797.08,-682.46 677.56,-693 508.54,-693 389.03,-682.46 389.03,-667.54 508.54,-657 677.56,-657 797.08,-667.54"/>
<text text-anchor="middle" x="593.05" y="-671.3" font-family="Times,serif" font-size="14.00">#3 Class FieldAccessTest$Destination</text>
</g>
<!-- node2&#45;&gt;node3 -->
<g id="edge2" class="edge">
<title>node2&#45;&gt;node3</title>
<path fill="none" stroke="black" stroke-dasharray="1,5" d="M538.48,-729.81C547.5,-720.92 558.67,-709.91 568.54,-700.17"/>
<polygon fill="black" stroke="black" points="571.12,-702.54 575.78,-693.03 566.21,-697.56 571.12,-702.54"/>
</g>
<!-- node2&#45;&gt;node4 -->
<g id="edge4" class="edge">
<title>node2&#45;&gt;node4</title>
<path fill="none" stroke="red" d="M461.22,-739.93C431.59,-733.07 398.33,-719.56 380.05,-693 368.97,-676.89 368.67,-664.9 380.05,-649 396.6,-625.88 425.47,-614.24 452.27,-608.44"/>
<polygon fill="red" stroke="red" points="453.25,-611.82 462.41,-606.5 451.93,-604.95 453.25,-611.82"/>
</g>
<!-- node3&#45;&gt;node4 -->
<g id="edge3" class="edge">
<title>node3&#45;&gt;node4</title>
<path fill="none" stroke="black" d="M574.17,-656.81C564.3,-647.83 552.07,-636.69 541.29,-626.89"/>
<polygon fill="black" stroke="black" points="543.51,-624.17 533.76,-620.03 538.8,-629.35 543.51,-624.17"/>
<text text-anchor="middle" x="552.86" y="-622.28" font-family="Times,serif" font-size="14.00">*0</text>
</g>
<!-- node6 -->
<g id="node5" class="node">
<title>node6</title>
<polygon fill="lightgrey" stroke="black" points="623.05,-474 373.05,-474 373.05,-438 623.05,-438 623.05,-474"/>
<text text-anchor="middle" x="498.05" y="-452.3" font-family="Times,serif" font-size="14.00">#6 Invoke special &lt;init&gt; : ()void</text>
</g>
<!-- node4&#45;&gt;node6 -->
<g id="edge7" class="edge">
<title>node4&#45;&gt;node6</title>
<path fill="none" stroke="red" d="M513.04,-583.92C510.12,-559.23 504.71,-513.35 501.25,-484.04"/>
<polygon fill="red" stroke="red" points="504.72,-483.58 500.07,-474.06 497.76,-484.4 504.72,-483.58"/>
</g>
<!-- node5 -->
<g id="node6" class="node">
<title>node5</title>
<polygon fill="orange" stroke="black" points="630.17,-521.54 630.17,-536.46 599.64,-547 556.47,-547 525.94,-536.46 525.94,-521.54 556.47,-511 599.64,-511 630.17,-521.54"/>
<text text-anchor="middle" x="578.05" y="-525.3" font-family="Times,serif" font-size="14.00">#5 New</text>
</g>
<!-- node4&#45;&gt;node5 -->
<g id="edge9" class="edge">
<title>node4&#45;&gt;node5</title>
<path fill="none" stroke="black" d="M524.43,-583.81C531.32,-575 540.78,-564.13 549.9,-554.46"/>
<polygon fill="black" stroke="black" points="552.65,-556.65 557.08,-547.03 547.62,-551.79 552.65,-556.65"/>
<text text-anchor="middle" x="550.56" y="-562.24" font-family="Times,serif" font-size="14.00">*0</text>
</g>
<!-- node4&#45;&gt;node5 -->
<g id="edge10" class="edge">
<title>node4&#45;&gt;node5</title>
<path fill="none" stroke="green" d="M536.18,-583.81C544.75,-575.18 554.37,-564.56 562.32,-555.03"/>
<polygon fill="green" stroke="green" points="565.23,-557 568.8,-547.03 559.79,-552.6 565.23,-557"/>
</g>
<!-- node8 -->
<g id="node11" class="node">
<title>node8</title>
<polygon fill="lightgrey" stroke="black" points="532.55,-328 427.55,-328 427.55,-292 532.55,-292 532.55,-328"/>
<text text-anchor="middle" x="480.05" y="-306.3" font-family="Times,serif" font-size="14.00">#8 ClassInit</text>
</g>
<!-- node6&#45;&gt;node8 -->
<g id="edge21" class="edge">
<title>node6&#45;&gt;node8</title>
<path fill="none" stroke="red" d="M390.2,-437.98C349.8,-429.01 310.84,-416.6 299.05,-401 287.27,-385.4 287.15,-372.51 299.05,-357 313.3,-338.44 370.85,-325.74 417.36,-318.47"/>
<polygon fill="red" stroke="red" points="418.04,-321.91 427.4,-316.95 416.99,-314.98 418.04,-321.91"/>
</g>
<!-- node6&#45;&gt;node8 -->
<g id="edge22" class="edge">
<title>node6&#45;&gt;node8</title>
<path fill="none" stroke="green" d="M406.61,-437.98C367.8,-429.01 328.84,-416.6 317.05,-401 305.27,-385.4 305.15,-372.51 317.05,-357 329.79,-340.41 377.13,-328.5 417.6,-320.97"/>
<polygon fill="green" stroke="green" points="418.23,-324.41 427.45,-319.19 416.99,-317.52 418.23,-324.41"/>
</g>
<!-- node7 -->
<g id="node12" class="node">
<title>node7</title>
<polygon fill="lightgreen" stroke="black" points="678.65,-375.54 678.65,-390.46 572.86,-401 423.25,-401 317.46,-390.46 317.46,-375.54 423.25,-365 572.86,-365 678.65,-375.54"/>
<text text-anchor="middle" x="498.05" y="-379.3" font-family="Times,serif" font-size="14.00">#7 Class FieldAccessTest$Source</text>
</g>
<!-- node6&#45;&gt;node7 -->
<g id="edge23" class="edge">
<title>node6&#45;&gt;node7</title>
<path fill="none" stroke="black" stroke-dasharray="1,5" d="M498.05,-437.81C498.05,-429.79 498.05,-420.05 498.05,-411.07"/>
<polygon fill="black" stroke="black" points="501.55,-411.03 498.05,-401.03 494.55,-411.03 501.55,-411.03"/>
</g>
<!-- node5&#45;&gt;node6 -->
<g id="edge6" class="edge">
<title>node5&#45;&gt;node6</title>
<path fill="none" stroke="black" d="M553.7,-511.53C542.52,-502.5 529.5,-491.13 518.8,-481.12"/>
<polygon fill="black" stroke="black" points="521.12,-478.5 511.47,-474.12 516.28,-483.56 521.12,-478.5"/>
<text text-anchor="middle" x="530.42" y="-476.83" font-family="Times,serif" font-size="14.00">*0</text>
</g>
<!-- node5&#45;&gt;node6 -->
<g id="edge8" class="edge">
<title>node5&#45;&gt;node6</title>
<path fill="none" stroke="green" d="M564.57,-510.81C555.3,-501.74 542.78,-490.48 531.05,-480.6"/>
<polygon fill="green" stroke="green" points="533.04,-477.71 523.1,-474.03 528.58,-483.1 533.04,-477.71"/>
</g>
<!-- node12 -->
<g id="node7" class="node">
<title>node12</title>
<polygon fill="lightgrey" stroke="black" points="685.05,-109 413.05,-109 413.05,-73 685.05,-73 685.05,-109"/>
<text text-anchor="middle" x="549.05" y="-87.3" font-family="Times,serif" font-size="14.00">#12 PutField : double_field : double</text>
</g>
<!-- node5&#45;&gt;node12 -->
<g id="edge11" class="edge">
<title>node5&#45;&gt;node12</title>
<path fill="none" stroke="black" d="M628.3,-520.78C664.52,-512.41 707.05,-494.58 707.05,-457 707.05,-457 707.05,-457 707.05,-163 707.05,-139.69 692.56,-123.98 672.36,-113.41"/>
<polygon fill="black" stroke="black" points="673.58,-110.12 663.04,-109.05 670.61,-116.46 673.58,-110.12"/>
<text text-anchor="middle" x="683.04" y="-105.38" font-family="Times,serif" font-size="14.00">*0</text>
</g>
<!-- node13 -->
<g id="node13" class="node">
<title>node13</title>
<polygon fill="lightgrey" stroke="black" points="599.55,-36 498.55,-36 498.55,0 599.55,0 599.55,-36"/>
<text text-anchor="middle" x="549.05" y="-14.3" font-family="Times,serif" font-size="14.00">#13 Return</text>
</g>
<!-- node12&#45;&gt;node13 -->
<g id="edge26" class="edge">
<title>node12&#45;&gt;node13</title>
<path fill="none" stroke="red" d="M543.18,-72.81C542.34,-64.79 542.1,-55.05 542.48,-46.07"/>
<polygon fill="red" stroke="red" points="545.97,-46.25 543.19,-36.03 538.99,-45.75 545.97,-46.25"/>
</g>
<!-- node12&#45;&gt;node13 -->
<g id="edge27" class="edge">
<title>node12&#45;&gt;node13</title>
<path fill="none" stroke="green" d="M554.93,-72.81C555.77,-64.79 556,-55.05 555.63,-46.07"/>
<polygon fill="green" stroke="green" points="559.12,-45.75 554.92,-36.03 552.14,-46.25 559.12,-45.75"/>
</g>
<!-- node11 -->
<g id="node8" class="node">
<title>node11</title>
<polygon fill="orange" stroke="black" points="384.16,-156.54 384.16,-171.46 271.63,-182 112.48,-182 -0.05,-171.46 -0.05,-156.54 112.48,-146 271.63,-146 384.16,-156.54"/>
<text text-anchor="middle" x="192.05" y="-160.3" font-family="Times,serif" font-size="14.00">#11 GetField : double_field : double</text>
</g>
<!-- node11&#45;&gt;node12 -->
<g id="edge12" class="edge">
<title>node11&#45;&gt;node12</title>
<path fill="none" stroke="black" d="M271.7,-145.99C323.61,-135.45 391.77,-121.88 447.54,-110.98"/>
<polygon fill="black" stroke="black" points="448.3,-114.4 457.45,-109.05 446.96,-107.53 448.3,-114.4"/>
<text text-anchor="middle" x="441.28" y="-117.12" font-family="Times,serif" font-size="14.00">*1</text>
</g>
<!-- node11&#45;&gt;node12 -->
<g id="edge13" class="edge">
<title>node11&#45;&gt;node12</title>
<path fill="none" stroke="green" d="M279.74,-146.71C334.32,-136.09 404.3,-122.19 459.27,-111.06"/>
<polygon fill="green" stroke="green" points="460.25,-114.43 469.35,-109.02 458.86,-107.57 460.25,-114.43"/>
</g>
<!-- node10 -->
<g id="node9" class="node">
<title>node10</title>
<polygon fill="lightgrey" stroke="black" points="678.55,-182 419.55,-182 419.55,-146 678.55,-146 678.55,-182"/>
<text text-anchor="middle" x="549.05" y="-160.3" font-family="Times,serif" font-size="14.00">#10 Invoke special &lt;init&gt; : ()void</text>
</g>
<!-- node10&#45;&gt;node12 -->
<g id="edge14" class="edge">
<title>node10&#45;&gt;node12</title>
<path fill="none" stroke="red" d="M549.05,-145.81C549.05,-137.79 549.05,-128.05 549.05,-119.07"/>
<polygon fill="red" stroke="red" points="552.55,-119.03 549.05,-109.03 545.55,-119.03 552.55,-119.03"/>
</g>
<!-- node10&#45;&gt;node11 -->
<g id="edge25" class="edge">
<title>node10&#45;&gt;node11</title>
<path fill="none" stroke="green" d="M419.26,-164C410.94,-164 402.62,-164 394.3,-164"/>
<polygon fill="green" stroke="green" points="394.15,-160.5 384.15,-164 394.15,-167.5 394.15,-160.5"/>
</g>
<!-- node9 -->
<g id="node10" class="node">
<title>node9</title>
<polygon fill="orange" stroke="black" points="521.17,-229.54 521.17,-244.46 490.64,-255 447.47,-255 416.94,-244.46 416.94,-229.54 447.47,-219 490.64,-219 521.17,-229.54"/>
<text text-anchor="middle" x="469.05" y="-233.3" font-family="Times,serif" font-size="14.00">#9 New</text>
</g>
<!-- node9&#45;&gt;node11 -->
<g id="edge24" class="edge">
<title>node9&#45;&gt;node11</title>
<path fill="none" stroke="black" d="M428.18,-225.52C386.26,-214.78 320.07,-197.81 268.41,-184.57"/>
<polygon fill="black" stroke="black" points="269.18,-181.15 258.62,-182.06 267.44,-187.94 269.18,-181.15"/>
<text text-anchor="middle" x="278.28" y="-174.67" font-family="Times,serif" font-size="14.00">*0</text>
</g>
<!-- node9&#45;&gt;node10 -->
<g id="edge15" class="edge">
<title>node9&#45;&gt;node10</title>
<path fill="none" stroke="black" d="M482.54,-218.81C491.81,-209.74 504.33,-198.48 516.06,-188.6"/>
<polygon fill="black" stroke="black" points="518.53,-191.1 524,-182.03 514.07,-185.71 518.53,-191.1"/>
<text text-anchor="middle" x="515.43" y="-196.4" font-family="Times,serif" font-size="14.00">*0</text>
</g>
<!-- node9&#45;&gt;node10 -->
<g id="edge17" class="edge">
<title>node9&#45;&gt;node10</title>
<path fill="none" stroke="green" d="M493.41,-219.53C504.59,-210.5 517.6,-199.13 528.31,-189.12"/>
<polygon fill="green" stroke="green" points="530.82,-191.56 535.64,-182.12 525.99,-186.5 530.82,-191.56"/>
</g>
<!-- node8&#45;&gt;node10 -->
<g id="edge16" class="edge">
<title>node8&#45;&gt;node10</title>
<path fill="none" stroke="red" d="M500.42,-291.96C510.81,-282.18 522.77,-269.07 530.05,-255 540.18,-235.44 544.91,-210.83 547.12,-192.29"/>
<polygon fill="red" stroke="red" points="550.62,-192.46 548.15,-182.16 543.65,-191.75 550.62,-192.46"/>
</g>
<!-- node8&#45;&gt;node9 -->
<g id="edge18" class="edge">
<title>node8&#45;&gt;node9</title>
<path fill="none" stroke="black" d="M471.51,-291.81C469.43,-283.79 467.69,-274.05 466.67,-265.07"/>
<polygon fill="black" stroke="black" points="470.15,-264.7 465.83,-255.03 463.18,-265.29 470.15,-264.7"/>
<text text-anchor="middle" x="475.76" y="-268.69" font-family="Times,serif" font-size="14.00">*0</text>
</g>
<!-- node8&#45;&gt;node9 -->
<g id="edge19" class="edge">
<title>node8&#45;&gt;node9</title>
<path fill="none" stroke="green" d="M483.27,-291.81C482.87,-283.79 481.59,-274.05 479.83,-265.07"/>
<polygon fill="green" stroke="green" points="483.17,-264.01 477.55,-255.03 476.35,-265.55 483.17,-264.01"/>
</g>
<!-- node7&#45;&gt;node8 -->
<g id="edge20" class="edge">
<title>node7&#45;&gt;node8</title>
<path fill="none" stroke="black" d="M493.7,-364.81C491.64,-356.7 489.14,-346.84 486.84,-337.78"/>
<polygon fill="black" stroke="black" points="490.22,-336.86 484.37,-328.03 483.44,-338.58 490.22,-336.86"/>
<text text-anchor="middle" x="497.02" y="-339.82" font-family="Times,serif" font-size="14.00">*0</text>
</g>
<!-- c0 -->
<!-- c1 -->
<!-- c0&#45;&gt;c1 -->
<g id="edge28" class="edge">
<title>c0&#45;&gt;c1</title>
<path fill="none" stroke="red" d="M1349.95,-830C1361.16,-830 1419.3,-830 1444.91,-830"/>
<polygon fill="red" stroke="red" points="1445.11,-833.5 1455.11,-830 1445.11,-826.5 1445.11,-833.5"/>
<text text-anchor="middle" x="1402.55" y="-836.8" font-family="Times,serif" font-size="14.00">Control flow</text>
</g>
<!-- c2 -->
<!-- c3 -->
<!-- c2&#45;&gt;c3 -->
<g id="edge29" class="edge">
<title>c2&#45;&gt;c3</title>
<path fill="none" stroke="red" stroke-dasharray="5,2" d="M1143.13,-830C1160.1,-830 1276.26,-830 1314.14,-830"/>
<polygon fill="red" stroke="red" points="1314.22,-833.5 1324.22,-830 1314.22,-826.5 1314.22,-833.5"/>
<text text-anchor="middle" x="1233.55" y="-836.8" font-family="Times,serif" font-size="14.00">Control flow back edge</text>
</g>
<!-- d0 -->
<!-- d1 -->
<!-- d0&#45;&gt;d1 -->
<g id="edge30" class="edge">
<title>d0&#45;&gt;d1</title>
<path fill="none" stroke="black" d="M1031.91,-830C1041.46,-830 1085.36,-830 1106.97,-830"/>
<polygon fill="black" stroke="black" points="1107.2,-833.5 1117.2,-830 1107.2,-826.5 1107.2,-833.5"/>
<text text-anchor="middle" x="1074.55" y="-836.8" font-family="Times,serif" font-size="14.00">Data flow</text>
</g>
<!-- d2 -->
<!-- d3 -->
<!-- d2&#45;&gt;d3 -->
<g id="edge31" class="edge">
<title>d2&#45;&gt;d3</title>
<path fill="none" stroke="black" stroke-dasharray="1,5" d="M905.86,-830C916.51,-830 971.52,-830 996.13,-830"/>
<polygon fill="black" stroke="black" points="996.2,-833.5 1006.2,-830 996.2,-826.5 996.2,-833.5"/>
<text text-anchor="middle" x="956.05" y="-836.8" font-family="Times,serif" font-size="14.00">Declaration</text>
</g>
<!-- d4 -->
<!-- d5 -->
<!-- d4&#45;&gt;d5 -->
<g id="edge32" class="edge">
<title>d4&#45;&gt;d5</title>
<path fill="none" stroke="blue" d="M763.15,-830C775.78,-830 841.93,-830 869.73,-830"/>
<polygon fill="blue" stroke="blue" points="869.9,-833.5 879.9,-830 869.9,-826.5 869.9,-833.5"/>
<text text-anchor="middle" x="821.55" y="-836.8" font-family="Times,serif" font-size="14.00">PHI Data flow</text>
</g>
<!-- d6 -->
<!-- d7 -->
<!-- d6&#45;&gt;d7 -->
<g id="edge33" class="edge">
<title>d6&#45;&gt;d7</title>
<path fill="none" stroke="green" d="M626.05,-830C637.99,-830 700.35,-830 726.98,-830"/>
<polygon fill="green" stroke="green" points="727,-833.5 737,-830 727,-826.5 727,-833.5"/>
<text text-anchor="middle" x="681.55" y="-836.8" font-family="Times,serif" font-size="14.00">Memory flow</text>
</g>
</g>
</svg>
