<?xml version="1.0" encoding="UTF-8" standalone="no"?>
<!DOCTYPE svg PUBLIC "-//W3C//DTD SVG 1.1//EN"
 "http://www.w3.org/Graphics/SVG/1.1/DTD/svg11.dtd">
<!-- Generated by graphviz version 2.43.0 (0)
 -->
<!-- Title: %3 Pages: 1 -->
<svg width="1717pt" height="662pt"
 viewBox="0.00 0.00 1716.50 662.00" xmlns="http://www.w3.org/2000/svg" xmlns:xlink="http://www.w3.org/1999/xlink">
<g id="graph0" class="graph" transform="scale(1 1) rotate(0) translate(4 658)">
<title>%3</title>
<polygon fill="white" stroke="transparent" points="-4,4 -4,-658 1712.5,-658 1712.5,4 -4,4"/>
<g id="clust1" class="cluster">
<title>cluster_0</title>
<polygon fill="none" stroke="lightgray" points="35.5,-503 35.5,-646 839.5,-646 839.5,-503 35.5,-503"/>
</g>
<g id="clust2" class="cluster">
<title>cluster_000</title>
<polygon fill="none" stroke="black" points="847.5,-601.2 847.5,-643.8 1700.5,-643.8 1700.5,-601.2 847.5,-601.2"/>
<text text-anchor="middle" x="1274" y="-628.6" font-family="Times,serif" font-size="14.00">Legend</text>
</g>
<!-- node0 -->
<g id="node1" class="node">
<title>node0</title>
<polygon fill="lightgrey" stroke="transparent" points="711,-638 544,-638 544,-584 711,-584 711,-638"/>
<polygon fill="none" stroke="black" points="544.5,-611 544.5,-638 711.5,-638 711.5,-611 544.5,-611"/>
<text text-anchor="start" x="587.5" y="-620.8" font-family="Times,serif" font-size="14.00">#0 Method</text>
<polygon fill="yellow" stroke="transparent" points="544.5,-584 544.5,-611 711.5,-611 711.5,-584 544.5,-584"/>
<polygon fill="none" stroke="black" points="544.5,-584 544.5,-611 711.5,-611 711.5,-584 544.5,-584"/>
<text text-anchor="start" x="550.5" y="-593.8" font-family="Times,serif" font-size="14.00">this : FieldAccessTest</text>
</g>
<!-- node2 -->
<g id="node2" class="node">
<title>node2</title>
<polygon fill="lightgrey" stroke="black" points="969,-547 850,-547 850,-511 969,-511 969,-547"/>
<text text-anchor="middle" x="909.5" y="-525.3" font-family="Times,serif" font-size="14.00">#2 LabelNode</text>
</g>
<!-- node0&#45;&gt;node2 -->
<g id="edge1" class="edge">
<title>node0&#45;&gt;node2</title>
<path fill="none" stroke="red" d="M711.35,-586.21C752.36,-574.58 801.13,-560.74 840.03,-549.71"/>
<polygon fill="red" stroke="red" points="841.03,-553.06 849.69,-546.97 839.12,-546.33 841.03,-553.06"/>
</g>
<!-- node4 -->
<g id="node3" class="node">
<title>node4</title>
<polygon fill="lightgrey" stroke="black" points="682,-474 577,-474 577,-438 682,-438 682,-474"/>
<text text-anchor="middle" x="629.5" y="-452.3" font-family="Times,serif" font-size="14.00">#4 ClassInit</text>
</g>
<!-- node0&#45;&gt;node4 -->
<g id="edge4" class="edge">
<title>node0&#45;&gt;node4</title>
<path fill="none" stroke="green" d="M543.81,-607.19C388.4,-601.11 67.93,-584.17 34.5,-547 21.42,-532.46 21.22,-517.35 34.5,-503 70.11,-464.53 421.31,-458.14 566.84,-457.15"/>
<polygon fill="green" stroke="green" points="566.98,-460.64 576.95,-457.08 566.93,-453.65 566.98,-460.64"/>
</g>
<!-- node3 -->
<g id="node4" class="node">
<title>node3</title>
<polygon fill="lightgreen" stroke="black" points="831.53,-521.54 831.53,-536.46 712.01,-547 542.99,-547 423.47,-536.46 423.47,-521.54 542.99,-511 712.01,-511 831.53,-521.54"/>
<text text-anchor="middle" x="627.5" y="-525.3" font-family="Times,serif" font-size="14.00">#3 Class FieldAccessTest$Destination</text>
</g>
<!-- node0&#45;&gt;node3 -->
<g id="edge5" class="edge">
<title>node0&#45;&gt;node3</title>
<path fill="none" stroke="black" stroke-dasharray="1,5" d="M627.5,-583.81C627.5,-575.35 627.5,-565.95 627.5,-557.4"/>
<polygon fill="black" stroke="black" points="631,-557.17 627.5,-547.17 624,-557.17 631,-557.17"/>
</g>
<!-- node5 -->
<g id="node8" class="node">
<title>node5</title>
<polygon fill="lightgreen" stroke="black" points="405.1,-521.54 405.1,-536.46 299.31,-547 149.69,-547 43.9,-536.46 43.9,-521.54 149.69,-511 299.31,-511 405.1,-521.54"/>
<text text-anchor="middle" x="224.5" y="-525.3" font-family="Times,serif" font-size="14.00">#5 Class FieldAccessTest$Source</text>
</g>
<!-- node0&#45;&gt;node5 -->
<g id="edge14" class="edge">
<title>node0&#45;&gt;node5</title>
<path fill="none" stroke="black" stroke-dasharray="1,5" d="M544,-593.42C477.75,-580.27 385.22,-561.9 316.78,-548.32"/>
<polygon fill="black" stroke="black" points="317.35,-544.86 306.86,-546.35 315.99,-551.73 317.35,-544.86"/>
</g>
<!-- node2&#45;&gt;node4 -->
<g id="edge3" class="edge">
<title>node2&#45;&gt;node4</title>
<path fill="none" stroke="red" d="M867.22,-510.91C859.4,-508.06 851.26,-505.29 843.5,-503 793.39,-488.22 735.39,-476.04 692.42,-467.94"/>
<polygon fill="red" stroke="red" points="692.85,-464.46 682.38,-466.07 691.57,-471.35 692.85,-464.46"/>
</g>
<!-- node6 -->
<g id="node5" class="node">
<title>node6</title>
<polygon fill="orange" stroke="black" points="682.62,-375.54 682.62,-390.46 652.09,-401 608.91,-401 578.38,-390.46 578.38,-375.54 608.91,-365 652.09,-365 682.62,-375.54"/>
<text text-anchor="middle" x="630.5" y="-379.3" font-family="Times,serif" font-size="14.00">#6 New</text>
</g>
<!-- node4&#45;&gt;node6 -->
<g id="edge6" class="edge">
<title>node4&#45;&gt;node6</title>
<path fill="none" stroke="black" d="M623.86,-437.81C623.14,-429.79 623.04,-420.05 623.54,-411.07"/>
<polygon fill="black" stroke="black" points="627.03,-411.29 624.4,-401.03 620.06,-410.69 627.03,-411.29"/>
<text text-anchor="middle" x="631.28" y="-416.11" font-family="Times,serif" font-size="14.00">*0</text>
</g>
<!-- node4&#45;&gt;node6 -->
<g id="edge7" class="edge">
<title>node4&#45;&gt;node6</title>
<path fill="none" stroke="green" d="M635.62,-437.81C636.57,-429.79 636.94,-420.05 636.7,-411.07"/>
<polygon fill="green" stroke="green" points="640.19,-410.81 636.12,-401.03 633.2,-411.21 640.19,-410.81"/>
</g>
<!-- node7 -->
<g id="node6" class="node">
<title>node7</title>
<polygon fill="lightgrey" stroke="black" points="675.5,-328 425.5,-328 425.5,-292 675.5,-292 675.5,-328"/>
<text text-anchor="middle" x="550.5" y="-306.3" font-family="Times,serif" font-size="14.00">#7 Invoke special &lt;init&gt; : ()void</text>
</g>
<!-- node4&#45;&gt;node7 -->
<g id="edge9" class="edge">
<title>node4&#45;&gt;node7</title>
<path fill="none" stroke="red" d="M603.8,-437.81C591.61,-428.34 577.9,-415.57 569.5,-401 558.43,-381.8 553.78,-356.97 551.84,-338.26"/>
<polygon fill="red" stroke="red" points="555.31,-337.71 550.98,-328.03 548.33,-338.29 555.31,-337.71"/>
</g>
<!-- node3&#45;&gt;node4 -->
<g id="edge2" class="edge">
<title>node3&#45;&gt;node4</title>
<path fill="none" stroke="black" d="M627.98,-510.81C628.21,-502.79 628.48,-493.05 628.74,-484.07"/>
<polygon fill="black" stroke="black" points="632.24,-484.12 629.02,-474.03 625.24,-483.93 632.24,-484.12"/>
<text text-anchor="middle" x="636.96" y="-488.69" font-family="Times,serif" font-size="14.00">*0</text>
</g>
<!-- node6&#45;&gt;node7 -->
<g id="edge8" class="edge">
<title>node6&#45;&gt;node7</title>
<path fill="none" stroke="black" d="M606.14,-365.53C594.97,-356.5 581.95,-345.13 571.25,-335.12"/>
<polygon fill="black" stroke="black" points="573.57,-332.5 563.92,-328.12 568.73,-337.56 573.57,-332.5"/>
<text text-anchor="middle" x="582.86" y="-330.83" font-family="Times,serif" font-size="14.00">*0</text>
</g>
<!-- node6&#45;&gt;node7 -->
<g id="edge10" class="edge">
<title>node6&#45;&gt;node7</title>
<path fill="none" stroke="green" d="M617.01,-364.81C607.74,-355.74 595.22,-344.48 583.49,-334.6"/>
<polygon fill="green" stroke="green" points="585.49,-331.71 575.55,-328.03 581.02,-337.1 585.49,-331.71"/>
</g>
<!-- node12 -->
<g id="node12" class="node">
<title>node12</title>
<polygon fill="lightgrey" stroke="black" points="732.5,-36 460.5,-36 460.5,0 732.5,0 732.5,-36"/>
<text text-anchor="middle" x="596.5" y="-14.3" font-family="Times,serif" font-size="14.00">#12 PutField : double_field : double</text>
</g>
<!-- node6&#45;&gt;node12 -->
<g id="edge22" class="edge">
<title>node6&#45;&gt;node12</title>
<path fill="none" stroke="black" d="M661.41,-368.05C682.45,-356.22 706.5,-337 706.5,-311 706.5,-311 706.5,-311 706.5,-90 706.5,-67.13 689.5,-51.27 668.88,-40.44"/>
<polygon fill="black" stroke="black" points="670.38,-37.28 659.85,-36.1 667.35,-43.59 670.38,-37.28"/>
<text text-anchor="middle" x="679.85" y="-32.64" font-family="Times,serif" font-size="14.00">*0</text>
</g>
<!-- node8 -->
<g id="node7" class="node">
<title>node8</title>
<polygon fill="lightgrey" stroke="black" points="277,-255 172,-255 172,-219 277,-219 277,-255"/>
<text text-anchor="middle" x="224.5" y="-233.3" font-family="Times,serif" font-size="14.00">#8 ClassInit</text>
</g>
<!-- node7&#45;&gt;node8 -->
<g id="edge12" class="edge">
<title>node7&#45;&gt;node8</title>
<path fill="none" stroke="red" d="M466.56,-291.99C410.55,-280.07 338.15,-264.29 287.15,-252.87"/>
<polygon fill="red" stroke="red" points="287.77,-249.42 277.24,-250.64 286.23,-256.25 287.77,-249.42"/>
</g>
<!-- node7&#45;&gt;node8 -->
<g id="edge13" class="edge">
<title>node7&#45;&gt;node8</title>
<path fill="none" stroke="green" d="M478.27,-291.99C420.93,-279.21 341.66,-261.99 287.01,-250.46"/>
<polygon fill="green" stroke="green" points="287.61,-247.01 277.1,-248.38 286.17,-253.86 287.61,-247.01"/>
</g>
<!-- node10 -->
<g id="node9" class="node">
<title>node10</title>
<polygon fill="lightgrey" stroke="black" points="259,-109 0,-109 0,-73 259,-73 259,-109"/>
<text text-anchor="middle" x="129.5" y="-87.3" font-family="Times,serif" font-size="14.00">#10 Invoke special &lt;init&gt; : ()void</text>
</g>
<!-- node8&#45;&gt;node10 -->
<g id="edge16" class="edge">
<title>node8&#45;&gt;node10</title>
<path fill="none" stroke="red" d="M199.91,-218.78C187.61,-209.14 173.3,-196.21 163.5,-182 150.22,-162.74 141.29,-137.62 135.93,-118.81"/>
<polygon fill="red" stroke="red" points="139.29,-117.83 133.32,-109.09 132.54,-119.65 139.29,-117.83"/>
</g>
<!-- node9 -->
<g id="node10" class="node">
<title>node9</title>
<polygon fill="orange" stroke="black" points="276.62,-156.54 276.62,-171.46 246.09,-182 202.91,-182 172.38,-171.46 172.38,-156.54 202.91,-146 246.09,-146 276.62,-156.54"/>
<text text-anchor="middle" x="224.5" y="-160.3" font-family="Times,serif" font-size="14.00">#9 New</text>
</g>
<!-- node8&#45;&gt;node9 -->
<g id="edge18" class="edge">
<title>node8&#45;&gt;node9</title>
<path fill="none" stroke="black" d="M218.62,-218.81C217.78,-210.79 217.55,-201.05 217.92,-192.07"/>
<polygon fill="black" stroke="black" points="221.42,-192.25 218.64,-182.03 214.44,-191.75 221.42,-192.25"/>
<text text-anchor="middle" x="225.78" y="-197.01" font-family="Times,serif" font-size="14.00">*0</text>
</g>
<!-- node8&#45;&gt;node9 -->
<g id="edge19" class="edge">
<title>node8&#45;&gt;node9</title>
<path fill="none" stroke="green" d="M230.38,-218.81C231.22,-210.79 231.45,-201.05 231.08,-192.07"/>
<polygon fill="green" stroke="green" points="234.56,-191.75 230.36,-182.03 227.58,-192.25 234.56,-191.75"/>
</g>
<!-- node5&#45;&gt;node8 -->
<g id="edge11" class="edge">
<title>node5&#45;&gt;node8</title>
<path fill="none" stroke="black" d="M224.5,-510.78C224.5,-496.41 224.5,-475.37 224.5,-457 224.5,-457 224.5,-457 224.5,-309 224.5,-294.65 224.5,-278.67 224.5,-265.51"/>
<polygon fill="black" stroke="black" points="228,-265.22 224.5,-255.22 221,-265.22 228,-265.22"/>
<text text-anchor="middle" x="232.95" y="-269.64" font-family="Times,serif" font-size="14.00">*0</text>
</g>
<!-- node11 -->
<g id="node11" class="node">
<title>node11</title>
<polygon fill="orange" stroke="black" points="678.61,-83.54 678.61,-98.46 566.07,-109 406.93,-109 294.39,-98.46 294.39,-83.54 406.93,-73 566.07,-73 678.61,-83.54"/>
<text text-anchor="middle" x="486.5" y="-87.3" font-family="Times,serif" font-size="14.00">#11 GetField : double_field : double</text>
</g>
<!-- node10&#45;&gt;node11 -->
<g id="edge21" class="edge">
<title>node10&#45;&gt;node11</title>
<path fill="none" stroke="green" d="M259.19,-91C267.5,-91 275.81,-91 284.13,-91"/>
<polygon fill="green" stroke="green" points="284.26,-94.5 294.26,-91 284.26,-87.5 284.26,-94.5"/>
</g>
<!-- node13 -->
<g id="node13" class="node">
<title>node13</title>
<polygon fill="lightgrey" stroke="black" points="180,-36 79,-36 79,0 180,0 180,-36"/>
<text text-anchor="middle" x="129.5" y="-14.3" font-family="Times,serif" font-size="14.00">#13 Return</text>
</g>
<!-- node10&#45;&gt;node13 -->
<g id="edge25" class="edge">
<title>node10&#45;&gt;node13</title>
<path fill="none" stroke="red" d="M129.5,-72.81C129.5,-64.79 129.5,-55.05 129.5,-46.07"/>
<polygon fill="red" stroke="red" points="133,-46.03 129.5,-36.03 126,-46.03 133,-46.03"/>
</g>
<!-- node9&#45;&gt;node10 -->
<g id="edge15" class="edge">
<title>node9&#45;&gt;node10</title>
<path fill="none" stroke="black" d="M198.21,-147.59C184.52,-138.2 167.97,-126.02 154.49,-115.45"/>
<polygon fill="black" stroke="black" points="156.54,-112.61 146.53,-109.12 152.18,-118.09 156.54,-112.61"/>
<text text-anchor="middle" x="165.98" y="-110.1" font-family="Times,serif" font-size="14.00">*0</text>
</g>
<!-- node9&#45;&gt;node10 -->
<g id="edge17" class="edge">
<title>node9&#45;&gt;node10</title>
<path fill="none" stroke="green" d="M207.38,-145.81C195.98,-136.57 180.72,-125.04 166.68,-115.03"/>
<polygon fill="green" stroke="green" points="168.34,-111.92 158.15,-109.03 164.31,-117.64 168.34,-111.92"/>
</g>
<!-- node9&#45;&gt;node11 -->
<g id="edge20" class="edge">
<title>node9&#45;&gt;node11</title>
<path fill="none" stroke="black" d="M264.29,-152.22C303.87,-141.49 365.49,-124.79 413.81,-111.7"/>
<polygon fill="black" stroke="black" points="414.86,-115.04 423.6,-109.05 413.03,-108.28 414.86,-115.04"/>
<text text-anchor="middle" x="408.31" y="-118.25" font-family="Times,serif" font-size="14.00">*0</text>
</g>
<!-- node11&#45;&gt;node12 -->
<g id="edge23" class="edge">
<title>node11&#45;&gt;node12</title>
<path fill="none" stroke="black" d="M506.99,-72.99C520.58,-63.58 538.74,-51.76 555.19,-41.57"/>
<polygon fill="black" stroke="black" points="557.41,-44.32 564.12,-36.11 553.76,-38.35 557.41,-44.32"/>
<text text-anchor="middle" x="553.06" y="-49.08" font-family="Times,serif" font-size="14.00">*1</text>
</g>
<!-- node11&#45;&gt;node12 -->
<g id="edge24" class="edge">
<title>node11&#45;&gt;node12</title>
<path fill="none" stroke="green" d="M518.71,-72.99C534.15,-63.67 552.43,-51.97 567.44,-41.86"/>
<polygon fill="green" stroke="green" points="569.57,-44.64 575.86,-36.11 565.62,-38.86 569.57,-44.64"/>
</g>
<!-- node12&#45;&gt;node13 -->
<g id="edge26" class="edge">
<title>node12&#45;&gt;node13</title>
<path fill="none" stroke="green" d="M460.28,-18C370.27,-18 280.26,-18 190.25,-18"/>
<polygon fill="green" stroke="green" points="190.12,-14.5 180.12,-18 190.12,-21.5 190.12,-14.5"/>
</g>
<!-- c0 -->
<!-- c1 -->
<!-- c0&#45;&gt;c1 -->
<g id="edge27" class="edge">
<title>c0&#45;&gt;c1</title>
<path fill="none" stroke="red" d="M1583.39,-611C1594.61,-611 1652.74,-611 1678.36,-611"/>
<polygon fill="red" stroke="red" points="1678.56,-614.5 1688.56,-611 1678.56,-607.5 1678.56,-614.5"/>
<text text-anchor="middle" x="1636" y="-617.8" font-family="Times,serif" font-size="14.00">Control flow</text>
</g>
<!-- c2 -->
<!-- c3 -->
<!-- c2&#45;&gt;c3 -->
<g id="edge28" class="edge">
<title>c2&#45;&gt;c3</title>
<path fill="none" stroke="red" stroke-dasharray="5,2" d="M1376.58,-611C1393.55,-611 1509.71,-611 1547.58,-611"/>
<polygon fill="red" stroke="red" points="1547.67,-614.5 1557.67,-611 1547.67,-607.5 1547.67,-614.5"/>
<text text-anchor="middle" x="1467" y="-617.8" font-family="Times,serif" font-size="14.00">Control flow back edge</text>
</g>
<!-- d0 -->
<!-- d1 -->
<!-- d0&#45;&gt;d1 -->
<g id="edge29" class="edge">
<title>d0&#45;&gt;d1</title>
<path fill="none" stroke="black" d="M1265.36,-611C1274.91,-611 1318.81,-611 1340.42,-611"/>
<polygon fill="black" stroke="black" points="1340.65,-614.5 1350.65,-611 1340.65,-607.5 1340.65,-614.5"/>
<text text-anchor="middle" x="1308" y="-617.8" font-family="Times,serif" font-size="14.00">Data flow</text>
</g>
<!-- d2 -->
<!-- d3 -->
<!-- d2&#45;&gt;d3 -->
<g id="edge30" class="edge">
<title>d2&#45;&gt;d3</title>
<path fill="none" stroke="black" stroke-dasharray="1,5" d="M1139.31,-611C1149.96,-611 1204.96,-611 1229.58,-611"/>
<polygon fill="black" stroke="black" points="1229.65,-614.5 1239.65,-611 1229.65,-607.5 1229.65,-614.5"/>
<text text-anchor="middle" x="1189.5" y="-617.8" font-family="Times,serif" font-size="14.00">Declaration</text>
</g>
<!-- d4 -->
<!-- d5 -->
<!-- d4&#45;&gt;d5 -->
<g id="edge31" class="edge">
<title>d4&#45;&gt;d5</title>
<path fill="none" stroke="blue" d="M996.6,-611C1009.22,-611 1075.38,-611 1103.18,-611"/>
<polygon fill="blue" stroke="blue" points="1103.34,-614.5 1113.34,-611 1103.34,-607.5 1103.34,-614.5"/>
<text text-anchor="middle" x="1055" y="-617.8" font-family="Times,serif" font-size="14.00">PHI Data flow</text>
</g>
<!-- d6 -->
<!-- d7 -->
<!-- d6&#45;&gt;d7 -->
<g id="edge32" class="edge">
<title>d6&#45;&gt;d7</title>
<path fill="none" stroke="green" d="M859.5,-611C871.44,-611 933.8,-611 960.43,-611"/>
<polygon fill="green" stroke="green" points="960.45,-614.5 970.45,-611 960.45,-607.5 960.45,-614.5"/>
<text text-anchor="middle" x="915" y="-617.8" font-family="Times,serif" font-size="14.00">Memory flow</text>
</g>
</g>
</svg>
