<?xml version="1.0" encoding="UTF-8" standalone="no"?>
<!DOCTYPE svg PUBLIC "-//W3C//DTD SVG 1.1//EN"
 "http://www.w3.org/Graphics/SVG/1.1/DTD/svg11.dtd">
<!-- Generated by graphviz version 2.43.0 (0)
 -->
<!-- Title: %3 Pages: 1 -->
<svg width="1348pt" height="879pt"
 viewBox="0.00 0.00 1348.00 878.80" xmlns="http://www.w3.org/2000/svg" xmlns:xlink="http://www.w3.org/1999/xlink">
<g id="graph0" class="graph" transform="scale(1 1) rotate(0) translate(4 874.8)">
<title>%3</title>
<polygon fill="white" stroke="transparent" points="-4,4 -4,-874.8 1344,-874.8 1344,4 -4,4"/>
<g id="clust1" class="cluster">
<title>cluster_0</title>
<polygon fill="none" stroke="lightgray" points="192,-357 192,-482 570,-482 570,-357 192,-357"/>
</g>
<g id="clust2" class="cluster">
<title>cluster_1</title>
<polygon fill="none" stroke="lightgray" points="246,-649 246,-774 670,-774 670,-649 246,-649"/>
</g>
<g id="clust3" class="cluster">
<title>cluster_000</title>
<polygon fill="none" stroke="black" points="479,-820.2 479,-862.8 1332,-862.8 1332,-820.2 479,-820.2"/>
<text text-anchor="middle" x="905.5" y="-847.6" font-family="Times,serif" font-size="14.00">Legend</text>
</g>
<!-- node0 -->
<g id="node1" class="node">
<title>node0</title>
<polygon fill="lightgrey" stroke="transparent" points="469.5,-857 302.5,-857 302.5,-803 469.5,-803 469.5,-857"/>
<polygon fill="none" stroke="black" points="303,-830 303,-857 470,-857 470,-830 303,-830"/>
<text text-anchor="start" x="346" y="-839.8" font-family="Times,serif" font-size="14.00">#0 Method</text>
<polygon fill="yellow" stroke="transparent" points="303,-803 303,-830 470,-830 470,-803 303,-803"/>
<polygon fill="none" stroke="black" points="303,-803 303,-830 470,-830 470,-803 303,-803"/>
<text text-anchor="start" x="309" y="-812.8" font-family="Times,serif" font-size="14.00">this : FieldAccessTest</text>
</g>
<!-- node4 -->
<g id="node2" class="node">
<title>node4</title>
<polygon fill="lightgrey" stroke="black" points="337.5,-620 232.5,-620 232.5,-584 337.5,-584 337.5,-620"/>
<text text-anchor="middle" x="285" y="-598.3" font-family="Times,serif" font-size="14.00">#4 ClassInit</text>
</g>
<!-- node0&#45;&gt;node4 -->
<g id="edge3" class="edge">
<title>node0&#45;&gt;node4</title>
<path fill="none" stroke="green" d="M302.37,-815.43C278.98,-807.36 256.11,-794.5 242,-774 210.49,-728.24 221.61,-700.68 242,-649 245.05,-641.28 250.07,-634.09 255.63,-627.8"/>
<polygon fill="green" stroke="green" points="258.41,-629.96 262.85,-620.33 253.38,-625.09 258.41,-629.96"/>
</g>
<!-- node2 -->
<g id="node4" class="node">
<title>node2</title>
<polygon fill="lightgrey" stroke="black" points="445.5,-766 326.5,-766 326.5,-730 445.5,-730 445.5,-766"/>
<text text-anchor="middle" x="386" y="-744.3" font-family="Times,serif" font-size="14.00">#2 LabelNode</text>
</g>
<!-- node0&#45;&gt;node2 -->
<g id="edge4" class="edge">
<title>node0&#45;&gt;node2</title>
<path fill="none" stroke="red" d="M386,-802.81C386,-794.35 386,-784.95 386,-776.4"/>
<polygon fill="red" stroke="red" points="389.5,-776.17 386,-766.17 382.5,-776.17 389.5,-776.17"/>
</g>
<!-- node5 -->
<g id="node5" class="node">
<title>node5</title>
<polygon fill="orange" stroke="black" points="297.12,-521.54 297.12,-536.46 266.59,-547 223.41,-547 192.88,-536.46 192.88,-521.54 223.41,-511 266.59,-511 297.12,-521.54"/>
<text text-anchor="middle" x="245" y="-525.3" font-family="Times,serif" font-size="14.00">#5 New</text>
</g>
<!-- node4&#45;&gt;node5 -->
<g id="edge6" class="edge">
<title>node4&#45;&gt;node5</title>
<path fill="none" stroke="black" d="M269.44,-583.81C263.9,-575.53 257.98,-565.41 253.22,-556.19"/>
<polygon fill="black" stroke="black" points="256.27,-554.47 248.73,-547.03 249.98,-557.55 256.27,-554.47"/>
<text text-anchor="middle" x="264.29" y="-555.89" font-family="Times,serif" font-size="14.00">*0</text>
</g>
<!-- node4&#45;&gt;node5 -->
<g id="edge7" class="edge">
<title>node4&#45;&gt;node5</title>
<path fill="none" stroke="green" d="M281.2,-583.81C277.31,-575.35 271.68,-564.98 265.94,-555.61"/>
<polygon fill="green" stroke="green" points="268.79,-553.57 260.46,-547.03 262.89,-557.34 268.79,-553.57"/>
</g>
<!-- node6 -->
<g id="node12" class="node">
<title>node6</title>
<polygon fill="lightgrey" stroke="black" points="450,-474 200,-474 200,-438 450,-438 450,-474"/>
<text text-anchor="middle" x="325" y="-452.3" font-family="Times,serif" font-size="14.00">#6 Invoke special &lt;init&gt; : ()void</text>
</g>
<!-- node4&#45;&gt;node6 -->
<g id="edge21" class="edge">
<title>node4&#45;&gt;node6</title>
<path fill="none" stroke="red" d="M292.54,-583.74C296.91,-573.26 302.27,-559.53 306,-547 312.18,-526.24 317.15,-502.22 320.45,-484.22"/>
<polygon fill="red" stroke="red" points="323.94,-484.58 322.24,-474.13 317.05,-483.36 323.94,-484.58"/>
</g>
<!-- node3 -->
<g id="node3" class="node">
<title>node3</title>
<polygon fill="lightgreen" stroke="black" points="662.03,-667.54 662.03,-682.46 542.51,-693 373.49,-693 253.97,-682.46 253.97,-667.54 373.49,-657 542.51,-657 662.03,-667.54"/>
<text text-anchor="middle" x="458" y="-671.3" font-family="Times,serif" font-size="14.00">#3 Class FieldAccessTest$Destination</text>
</g>
<!-- node3&#45;&gt;node4 -->
<g id="edge1" class="edge">
<title>node3&#45;&gt;node4</title>
<path fill="none" stroke="black" d="M416.56,-656.99C392.45,-647.1 361.86,-634.54 336.25,-624.03"/>
<polygon fill="black" stroke="black" points="337.28,-620.67 326.7,-620.11 334.62,-627.15 337.28,-620.67"/>
<text text-anchor="middle" x="346.68" y="-615.48" font-family="Times,serif" font-size="14.00">*0</text>
</g>
<!-- node2&#45;&gt;node4 -->
<g id="edge2" class="edge">
<title>node2&#45;&gt;node4</title>
<path fill="none" stroke="red" d="M326.3,-732.38C299.63,-723.87 268.9,-711.15 245,-693 221.21,-674.94 214.36,-667.36 205,-639 200.66,-625.84 209.51,-617.49 222.73,-612.18"/>
<polygon fill="red" stroke="red" points="224.06,-615.43 232.46,-608.98 221.87,-608.78 224.06,-615.43"/>
</g>
<!-- node2&#45;&gt;node3 -->
<g id="edge5" class="edge">
<title>node2&#45;&gt;node3</title>
<path fill="none" stroke="black" stroke-dasharray="1,5" d="M403.43,-729.81C412.45,-720.92 423.61,-709.91 433.49,-700.17"/>
<polygon fill="black" stroke="black" points="436.07,-702.54 440.73,-693.03 431.15,-697.56 436.07,-702.54"/>
</g>
<!-- node12 -->
<g id="node6" class="node">
<title>node12</title>
<polygon fill="lightgrey" stroke="black" points="356,-109 84,-109 84,-73 356,-73 356,-109"/>
<text text-anchor="middle" x="220" y="-87.3" font-family="Times,serif" font-size="14.00">#12 PutField : double_field : double</text>
</g>
<!-- node5&#45;&gt;node12 -->
<g id="edge8" class="edge">
<title>node5&#45;&gt;node12</title>
<path fill="none" stroke="black" d="M192.74,-523.45C120.79,-515.71 0,-496.8 0,-457 0,-457 0,-457 0,-163 0,-139.48 46.1,-122.62 96.1,-111.24"/>
<polygon fill="black" stroke="black" points="97.12,-114.6 106.13,-109.04 95.62,-107.77 97.12,-114.6"/>
<text text-anchor="middle" x="90.24" y="-117.48" font-family="Times,serif" font-size="14.00">*0</text>
</g>
<!-- node5&#45;&gt;node6 -->
<g id="edge20" class="edge">
<title>node5&#45;&gt;node6</title>
<path fill="none" stroke="black" d="M258.49,-510.81C267.76,-501.74 280.28,-490.48 292.01,-480.6"/>
<polygon fill="black" stroke="black" points="294.48,-483.1 299.95,-474.03 290.01,-477.71 294.48,-483.1"/>
<text text-anchor="middle" x="291.37" y="-488.4" font-family="Times,serif" font-size="14.00">*0</text>
</g>
<!-- node5&#45;&gt;node6 -->
<g id="edge22" class="edge">
<title>node5&#45;&gt;node6</title>
<path fill="none" stroke="green" d="M269.36,-511.53C280.53,-502.5 293.55,-491.13 304.25,-481.12"/>
<polygon fill="green" stroke="green" points="306.77,-483.56 311.58,-474.12 301.93,-478.5 306.77,-483.56"/>
</g>
<!-- node13 -->
<g id="node13" class="node">
<title>node13</title>
<polygon fill="lightgrey" stroke="black" points="270.5,-36 169.5,-36 169.5,0 270.5,0 270.5,-36"/>
<text text-anchor="middle" x="220" y="-14.3" font-family="Times,serif" font-size="14.00">#13 Return</text>
</g>
<!-- node12&#45;&gt;node13 -->
<g id="edge26" class="edge">
<title>node12&#45;&gt;node13</title>
<path fill="none" stroke="red" d="M214.12,-72.81C213.28,-64.79 213.05,-55.05 213.42,-46.07"/>
<polygon fill="red" stroke="red" points="216.92,-46.25 214.14,-36.03 209.94,-45.75 216.92,-46.25"/>
</g>
<!-- node12&#45;&gt;node13 -->
<g id="edge27" class="edge">
<title>node12&#45;&gt;node13</title>
<path fill="none" stroke="green" d="M225.88,-72.81C226.72,-64.79 226.95,-55.05 226.58,-46.07"/>
<polygon fill="green" stroke="green" points="230.06,-45.75 225.86,-36.03 223.08,-46.25 230.06,-45.75"/>
</g>
<!-- node11 -->
<g id="node7" class="node">
<title>node11</title>
<polygon fill="orange" stroke="black" points="412.11,-156.54 412.11,-171.46 299.57,-182 140.43,-182 27.89,-171.46 27.89,-156.54 140.43,-146 299.57,-146 412.11,-156.54"/>
<text text-anchor="middle" x="220" y="-160.3" font-family="Times,serif" font-size="14.00">#11 GetField : double_field : double</text>
</g>
<!-- node11&#45;&gt;node12 -->
<g id="edge9" class="edge">
<title>node11&#45;&gt;node12</title>
<path fill="none" stroke="black" d="M214.12,-145.81C213.28,-137.79 213.05,-128.05 213.42,-119.07"/>
<polygon fill="black" stroke="black" points="216.92,-119.25 214.14,-109.03 209.94,-118.75 216.92,-119.25"/>
<text text-anchor="middle" x="221.28" y="-124.01" font-family="Times,serif" font-size="14.00">*1</text>
</g>
<!-- node11&#45;&gt;node12 -->
<g id="edge10" class="edge">
<title>node11&#45;&gt;node12</title>
<path fill="none" stroke="green" d="M225.88,-145.81C226.72,-137.79 226.95,-128.05 226.58,-119.07"/>
<polygon fill="green" stroke="green" points="230.06,-118.75 225.86,-109.03 223.08,-119.25 230.06,-118.75"/>
</g>
<!-- node10 -->
<g id="node8" class="node">
<title>node10</title>
<polygon fill="lightgrey" stroke="black" points="706.5,-182 447.5,-182 447.5,-146 706.5,-146 706.5,-182"/>
<text text-anchor="middle" x="577" y="-160.3" font-family="Times,serif" font-size="14.00">#10 Invoke special &lt;init&gt; : ()void</text>
</g>
<!-- node10&#45;&gt;node12 -->
<g id="edge11" class="edge">
<title>node10&#45;&gt;node12</title>
<path fill="none" stroke="red" d="M491.49,-145.99C438.57,-135.47 370.53,-121.94 315.8,-111.05"/>
<polygon fill="red" stroke="red" points="316.23,-107.57 305.74,-109.05 314.87,-114.44 316.23,-107.57"/>
</g>
<!-- node10&#45;&gt;node11 -->
<g id="edge25" class="edge">
<title>node10&#45;&gt;node11</title>
<path fill="none" stroke="green" d="M447.2,-164C438.88,-164 430.56,-164 422.24,-164"/>
<polygon fill="green" stroke="green" points="422.1,-160.5 412.1,-164 422.1,-167.5 422.1,-160.5"/>
</g>
<!-- node9 -->
<g id="node9" class="node">
<title>node9</title>
<polygon fill="orange" stroke="black" points="433.12,-229.54 433.12,-244.46 402.59,-255 359.41,-255 328.88,-244.46 328.88,-229.54 359.41,-219 402.59,-219 433.12,-229.54"/>
<text text-anchor="middle" x="381" y="-233.3" font-family="Times,serif" font-size="14.00">#9 New</text>
</g>
<!-- node9&#45;&gt;node11 -->
<g id="edge24" class="edge">
<title>node9&#45;&gt;node11</title>
<path fill="none" stroke="black" d="M349.58,-222.14C326.43,-211.93 294.53,-197.87 268.17,-186.24"/>
<polygon fill="black" stroke="black" points="269.3,-182.92 258.74,-182.08 266.48,-189.32 269.3,-182.92"/>
<text text-anchor="middle" x="278.74" y="-177.96" font-family="Times,serif" font-size="14.00">*0</text>
</g>
<!-- node9&#45;&gt;node10 -->
<g id="edge12" class="edge">
<title>node9&#45;&gt;node10</title>
<path fill="none" stroke="black" d="M412.89,-222.48C440.25,-212.04 480.35,-197.43 514.09,-185.55"/>
<polygon fill="black" stroke="black" points="515.6,-188.73 523.88,-182.11 513.29,-182.12 515.6,-188.73"/>
<text text-anchor="middle" x="509.57" y="-192.39" font-family="Times,serif" font-size="14.00">*0</text>
</g>
<!-- node9&#45;&gt;node10 -->
<g id="edge14" class="edge">
<title>node9&#45;&gt;node10</title>
<path fill="none" stroke="green" d="M418.53,-224.28C449.11,-213.81 492.44,-198.24 526.11,-185.68"/>
<polygon fill="green" stroke="green" points="527.64,-188.84 535.78,-182.06 525.19,-182.29 527.64,-188.84"/>
</g>
<!-- node8 -->
<g id="node10" class="node">
<title>node8</title>
<polygon fill="lightgrey" stroke="black" points="433.5,-328 328.5,-328 328.5,-292 433.5,-292 433.5,-328"/>
<text text-anchor="middle" x="381" y="-306.3" font-family="Times,serif" font-size="14.00">#8 ClassInit</text>
</g>
<!-- node8&#45;&gt;node10 -->
<g id="edge13" class="edge">
<title>node8&#45;&gt;node10</title>
<path fill="none" stroke="red" d="M404.25,-291.92C439.32,-266.15 505.83,-217.29 545.31,-188.28"/>
<polygon fill="red" stroke="red" points="547.79,-190.8 553.78,-182.06 543.65,-185.16 547.79,-190.8"/>
</g>
<!-- node8&#45;&gt;node9 -->
<g id="edge15" class="edge">
<title>node8&#45;&gt;node9</title>
<path fill="none" stroke="black" d="M375.12,-291.81C374.28,-283.79 374.05,-274.05 374.42,-265.07"/>
<polygon fill="black" stroke="black" points="377.92,-265.25 375.14,-255.03 370.94,-264.75 377.92,-265.25"/>
<text text-anchor="middle" x="382.28" y="-270.01" font-family="Times,serif" font-size="14.00">*0</text>
</g>
<!-- node8&#45;&gt;node9 -->
<g id="edge16" class="edge">
<title>node8&#45;&gt;node9</title>
<path fill="none" stroke="green" d="M386.88,-291.81C387.72,-283.79 387.95,-274.05 387.58,-265.07"/>
<polygon fill="green" stroke="green" points="391.06,-264.75 386.86,-255.03 384.08,-265.25 391.06,-264.75"/>
</g>
<!-- node7 -->
<g id="node11" class="node">
<title>node7</title>
<polygon fill="lightgreen" stroke="black" points="561.6,-375.54 561.6,-390.46 455.81,-401 306.19,-401 200.4,-390.46 200.4,-375.54 306.19,-365 455.81,-365 561.6,-375.54"/>
<text text-anchor="middle" x="381" y="-379.3" font-family="Times,serif" font-size="14.00">#7 Class FieldAccessTest$Source</text>
</g>
<!-- node7&#45;&gt;node8 -->
<g id="edge17" class="edge">
<title>node7&#45;&gt;node8</title>
<path fill="none" stroke="black" d="M381,-364.81C381,-356.79 381,-347.05 381,-338.07"/>
<polygon fill="black" stroke="black" points="384.5,-338.03 381,-328.03 377.5,-338.03 384.5,-338.03"/>
<text text-anchor="middle" x="389.45" y="-342.45" font-family="Times,serif" font-size="14.00">*0</text>
</g>
<!-- node6&#45;&gt;node8 -->
<g id="edge18" class="edge">
<title>node6&#45;&gt;node8</title>
<path fill="none" stroke="red" d="M231.39,-437.99C211.83,-430 193.65,-418.25 182,-401 171.06,-384.79 169.91,-372.37 182,-357 198.48,-336.06 266.23,-323.5 318.23,-316.92"/>
<polygon fill="red" stroke="red" points="318.9,-320.36 328.4,-315.68 318.05,-313.42 318.9,-320.36"/>
</g>
<!-- node6&#45;&gt;node8 -->
<g id="edge19" class="edge">
<title>node6&#45;&gt;node8</title>
<path fill="none" stroke="green" d="M248.78,-437.99C229.83,-430 211.65,-418.25 200,-401 189.06,-384.79 187.91,-372.37 200,-357 214.96,-337.99 272.16,-325.89 318.38,-318.9"/>
<polygon fill="green" stroke="green" points="318.96,-322.35 328.35,-317.44 317.95,-315.42 318.96,-322.35"/>
</g>
<!-- node6&#45;&gt;node7 -->
<g id="edge23" class="edge">
<title>node6&#45;&gt;node7</title>
<path fill="none" stroke="black" stroke-dasharray="1,5" d="M338.56,-437.81C345.37,-429.18 353.75,-418.56 361.25,-409.03"/>
<polygon fill="black" stroke="black" points="364.12,-411.05 367.57,-401.03 358.63,-406.71 364.12,-411.05"/>
</g>
<!-- c0 -->
<!-- c1 -->
<!-- c0&#45;&gt;c1 -->
<g id="edge28" class="edge">
<title>c0&#45;&gt;c1</title>
<path fill="none" stroke="red" d="M1214.89,-830C1226.11,-830 1284.24,-830 1309.86,-830"/>
<polygon fill="red" stroke="red" points="1310.06,-833.5 1320.06,-830 1310.06,-826.5 1310.06,-833.5"/>
<text text-anchor="middle" x="1267.5" y="-836.8" font-family="Times,serif" font-size="14.00">Control flow</text>
</g>
<!-- c2 -->
<!-- c3 -->
<!-- c2&#45;&gt;c3 -->
<g id="edge29" class="edge">
<title>c2&#45;&gt;c3</title>
<path fill="none" stroke="red" stroke-dasharray="5,2" d="M1008.08,-830C1025.05,-830 1141.21,-830 1179.08,-830"/>
<polygon fill="red" stroke="red" points="1179.17,-833.5 1189.17,-830 1179.17,-826.5 1179.17,-833.5"/>
<text text-anchor="middle" x="1098.5" y="-836.8" font-family="Times,serif" font-size="14.00">Control flow back edge</text>
</g>
<!-- d0 -->
<!-- d1 -->
<!-- d0&#45;&gt;d1 -->
<g id="edge30" class="edge">
<title>d0&#45;&gt;d1</title>
<path fill="none" stroke="black" d="M896.86,-830C906.41,-830 950.31,-830 971.92,-830"/>
<polygon fill="black" stroke="black" points="972.15,-833.5 982.15,-830 972.15,-826.5 972.15,-833.5"/>
<text text-anchor="middle" x="939.5" y="-836.8" font-family="Times,serif" font-size="14.00">Data flow</text>
</g>
<!-- d2 -->
<!-- d3 -->
<!-- d2&#45;&gt;d3 -->
<g id="edge31" class="edge">
<title>d2&#45;&gt;d3</title>
<path fill="none" stroke="black" stroke-dasharray="1,5" d="M770.81,-830C781.46,-830 836.46,-830 861.08,-830"/>
<polygon fill="black" stroke="black" points="861.15,-833.5 871.15,-830 861.15,-826.5 861.15,-833.5"/>
<text text-anchor="middle" x="821" y="-836.8" font-family="Times,serif" font-size="14.00">Declaration</text>
</g>
<!-- d4 -->
<!-- d5 -->
<!-- d4&#45;&gt;d5 -->
<g id="edge32" class="edge">
<title>d4&#45;&gt;d5</title>
<path fill="none" stroke="blue" d="M628.1,-830C640.72,-830 706.88,-830 734.68,-830"/>
<polygon fill="blue" stroke="blue" points="734.84,-833.5 744.84,-830 734.84,-826.5 734.84,-833.5"/>
<text text-anchor="middle" x="686.5" y="-836.8" font-family="Times,serif" font-size="14.00">PHI Data flow</text>
</g>
<!-- d6 -->
<!-- d7 -->
<!-- d6&#45;&gt;d7 -->
<g id="edge33" class="edge">
<title>d6&#45;&gt;d7</title>
<path fill="none" stroke="green" d="M491,-830C502.94,-830 565.3,-830 591.93,-830"/>
<polygon fill="green" stroke="green" points="591.95,-833.5 601.95,-830 591.95,-826.5 591.95,-833.5"/>
<text text-anchor="middle" x="546.5" y="-836.8" font-family="Times,serif" font-size="14.00">Memory flow</text>
</g>
</g>
</svg>
