<?xml version="1.0" encoding="UTF-8" standalone="no"?>
<!DOCTYPE svg PUBLIC "-//W3C//DTD SVG 1.1//EN"
 "http://www.w3.org/Graphics/SVG/1.1/DTD/svg11.dtd">
<!-- Generated by graphviz version 2.43.0 (0)
 -->
<!-- Title: %3 Pages: 1 -->
<svg width="1811pt" height="735pt"
 viewBox="0.00 0.00 1810.50 735.00" xmlns="http://www.w3.org/2000/svg" xmlns:xlink="http://www.w3.org/1999/xlink">
<g id="graph0" class="graph" transform="scale(1 1) rotate(0) translate(4 731)">
<title>%3</title>
<polygon fill="white" stroke="transparent" points="-4,4 -4,-731 1806.5,-731 1806.5,4 -4,4"/>
<g id="clust1" class="cluster">
<title>cluster_0</title>
<polygon fill="none" stroke="lightgray" points="129.5,-576 129.5,-719 933.5,-719 933.5,-576 129.5,-576"/>
</g>
<g id="clust2" class="cluster">
<title>cluster_000</title>
<polygon fill="none" stroke="black" points="941.5,-674.2 941.5,-716.8 1794.5,-716.8 1794.5,-674.2 941.5,-674.2"/>
<text text-anchor="middle" x="1368" y="-701.6" font-family="Times,serif" font-size="14.00">Legend</text>
</g>
<!-- node0 -->
<g id="node1" class="node">
<title>node0</title>
<polygon fill="lightgrey" stroke="transparent" points="425,-711 258,-711 258,-657 425,-657 425,-711"/>
<polygon fill="none" stroke="black" points="258.5,-684 258.5,-711 425.5,-711 425.5,-684 258.5,-684"/>
<text text-anchor="start" x="301.5" y="-693.8" font-family="Times,serif" font-size="14.00">#0 Method</text>
<polygon fill="yellow" stroke="transparent" points="258.5,-657 258.5,-684 425.5,-684 425.5,-657 258.5,-657"/>
<polygon fill="none" stroke="black" points="258.5,-657 258.5,-684 425.5,-684 425.5,-657 258.5,-657"/>
<text text-anchor="start" x="264.5" y="-666.8" font-family="Times,serif" font-size="14.00">this : FieldAccessTest</text>
</g>
<!-- node2 -->
<g id="node2" class="node">
<title>node2</title>
<polygon fill="lightgrey" stroke="black" points="119,-620 0,-620 0,-584 119,-584 119,-620"/>
<text text-anchor="middle" x="59.5" y="-598.3" font-family="Times,serif" font-size="14.00">#2 LabelNode</text>
</g>
<!-- node0&#45;&gt;node2 -->
<g id="edge1" class="edge">
<title>node0&#45;&gt;node2</title>
<path fill="none" stroke="red" d="M257.65,-659.21C216.64,-647.58 167.87,-633.74 128.97,-622.71"/>
<polygon fill="red" stroke="red" points="129.88,-619.33 119.31,-619.97 127.97,-626.06 129.88,-619.33"/>
</g>
<!-- node5 -->
<g id="node3" class="node">
<title>node5</title>
<polygon fill="lightgrey" stroke="black" points="379,-547 274,-547 274,-511 379,-511 379,-547"/>
<text text-anchor="middle" x="326.5" y="-525.3" font-family="Times,serif" font-size="14.00">#5 ClassInit</text>
</g>
<!-- node0&#45;&gt;node5 -->
<g id="edge4" class="edge">
<title>node0&#45;&gt;node5</title>
<path fill="none" stroke="green" d="M425.19,-680.19C580.6,-674.11 901.07,-657.17 934.5,-620 947.58,-605.46 947.8,-590.34 934.5,-576 897.99,-536.63 537.49,-530.77 389.45,-530.03"/>
<polygon fill="green" stroke="green" points="389.18,-526.53 379.17,-529.99 389.15,-533.53 389.18,-526.53"/>
</g>
<!-- node4 -->
<g id="node4" class="node">
<title>node4</title>
<polygon fill="lightgreen" stroke="black" points="545.53,-594.54 545.53,-609.46 426.01,-620 256.99,-620 137.47,-609.46 137.47,-594.54 256.99,-584 426.01,-584 545.53,-594.54"/>
<text text-anchor="middle" x="341.5" y="-598.3" font-family="Times,serif" font-size="14.00">#4 Class FieldAccessTest$Destination</text>
</g>
<!-- node0&#45;&gt;node4 -->
<g id="edge5" class="edge">
<title>node0&#45;&gt;node4</title>
<path fill="none" stroke="black" stroke-dasharray="1,5" d="M341.5,-656.81C341.5,-648.35 341.5,-638.95 341.5,-630.4"/>
<polygon fill="black" stroke="black" points="345,-630.17 341.5,-620.17 338,-630.17 345,-630.17"/>
</g>
<!-- node3 -->
<g id="node12" class="node">
<title>node3</title>
<polygon fill="lightgreen" stroke="black" points="925.1,-594.54 925.1,-609.46 819.31,-620 669.69,-620 563.9,-609.46 563.9,-594.54 669.69,-584 819.31,-584 925.1,-594.54"/>
<text text-anchor="middle" x="744.5" y="-598.3" font-family="Times,serif" font-size="14.00">#3 Class FieldAccessTest$Source</text>
</g>
<!-- node0&#45;&gt;node3 -->
<g id="edge23" class="edge">
<title>node0&#45;&gt;node3</title>
<path fill="none" stroke="black" stroke-dasharray="1,5" d="M425,-666.42C491.25,-653.27 583.78,-634.9 652.22,-621.32"/>
<polygon fill="black" stroke="black" points="653.01,-624.73 662.14,-619.35 651.65,-617.86 653.01,-624.73"/>
</g>
<!-- node2&#45;&gt;node5 -->
<g id="edge3" class="edge">
<title>node2&#45;&gt;node5</title>
<path fill="none" stroke="red" d="M101.81,-583.99C109.62,-581.13 117.76,-578.34 125.5,-576 171.31,-562.15 224.08,-550.23 264.05,-541.99"/>
<polygon fill="red" stroke="red" points="264.83,-545.4 273.93,-539.97 263.43,-538.54 264.83,-545.4"/>
</g>
<!-- node7 -->
<g id="node5" class="node">
<title>node7</title>
<polygon fill="lightgrey" stroke="black" points="527.5,-401 277.5,-401 277.5,-365 527.5,-365 527.5,-401"/>
<text text-anchor="middle" x="402.5" y="-379.3" font-family="Times,serif" font-size="14.00">#7 Invoke special &lt;init&gt; : ()void</text>
</g>
<!-- node5&#45;&gt;node7 -->
<g id="edge7" class="edge">
<title>node5&#45;&gt;node7</title>
<path fill="none" stroke="red" d="M350.62,-510.8C362.27,-501.24 375.44,-488.39 383.5,-474 394.26,-454.78 398.94,-430.14 400.97,-411.51"/>
<polygon fill="red" stroke="red" points="404.47,-411.59 401.88,-401.32 397.5,-410.96 404.47,-411.59"/>
</g>
<!-- node6 -->
<g id="node6" class="node">
<title>node6</title>
<polygon fill="orange" stroke="black" points="374.62,-448.54 374.62,-463.46 344.09,-474 300.91,-474 270.38,-463.46 270.38,-448.54 300.91,-438 344.09,-438 374.62,-448.54"/>
<text text-anchor="middle" x="322.5" y="-452.3" font-family="Times,serif" font-size="14.00">#6 New</text>
</g>
<!-- node5&#45;&gt;node6 -->
<g id="edge9" class="edge">
<title>node5&#45;&gt;node6</title>
<path fill="none" stroke="black" d="M319.65,-510.81C318.36,-502.79 317.58,-493.05 317.45,-484.07"/>
<polygon fill="black" stroke="black" points="320.95,-484.08 317.6,-474.03 313.95,-483.98 320.95,-484.08"/>
<text text-anchor="middle" x="325.78" y="-488.58" font-family="Times,serif" font-size="14.00">*0</text>
</g>
<!-- node5&#45;&gt;node6 -->
<g id="edge10" class="edge">
<title>node5&#45;&gt;node6</title>
<path fill="none" stroke="green" d="M331.41,-510.81C331.8,-502.79 331.48,-493.05 330.6,-484.07"/>
<polygon fill="green" stroke="green" points="334.06,-483.5 329.32,-474.03 327.12,-484.39 334.06,-483.5"/>
</g>
<!-- node4&#45;&gt;node5 -->
<g id="edge2" class="edge">
<title>node4&#45;&gt;node5</title>
<path fill="none" stroke="black" d="M337.87,-583.81C336.17,-575.79 334.12,-566.05 332.22,-557.07"/>
<polygon fill="black" stroke="black" points="335.59,-556.09 330.1,-547.03 328.74,-557.54 335.59,-556.09"/>
<text text-anchor="middle" x="342.11" y="-559.32" font-family="Times,serif" font-size="14.00">*0</text>
</g>
<!-- node8 -->
<g id="node11" class="node">
<title>node8</title>
<polygon fill="lightgrey" stroke="black" points="797,-328 692,-328 692,-292 797,-292 797,-328"/>
<text text-anchor="middle" x="744.5" y="-306.3" font-family="Times,serif" font-size="14.00">#8 ClassInit</text>
</g>
<!-- node7&#45;&gt;node8 -->
<g id="edge21" class="edge">
<title>node7&#45;&gt;node8</title>
<path fill="none" stroke="red" d="M478.56,-364.99C539.72,-352.01 624.55,-334.45 681.86,-322.93"/>
<polygon fill="red" stroke="red" points="682.75,-326.32 691.87,-320.92 681.38,-319.45 682.75,-326.32"/>
</g>
<!-- node7&#45;&gt;node8 -->
<g id="edge22" class="edge">
<title>node7&#45;&gt;node8</title>
<path fill="none" stroke="green" d="M490.28,-364.99C550.23,-352.81 628.19,-336.61 681.92,-325.14"/>
<polygon fill="green" stroke="green" points="682.95,-328.5 692,-322.98 681.49,-321.65 682.95,-328.5"/>
</g>
<!-- node6&#45;&gt;node7 -->
<g id="edge6" class="edge">
<title>node6&#45;&gt;node7</title>
<path fill="none" stroke="black" d="M335.99,-437.81C345.26,-428.74 357.78,-417.48 369.51,-407.6"/>
<polygon fill="black" stroke="black" points="371.98,-410.1 377.45,-401.03 367.51,-404.71 371.98,-410.1"/>
<text text-anchor="middle" x="368.87" y="-415.4" font-family="Times,serif" font-size="14.00">*0</text>
</g>
<!-- node6&#45;&gt;node7 -->
<g id="edge8" class="edge">
<title>node6&#45;&gt;node7</title>
<path fill="none" stroke="green" d="M346.86,-438.53C358.03,-429.5 371.05,-418.13 381.75,-408.12"/>
<polygon fill="green" stroke="green" points="384.27,-410.56 389.08,-401.12 379.43,-405.5 384.27,-410.56"/>
</g>
<!-- node12 -->
<g id="node7" class="node">
<title>node12</title>
<polygon fill="lightgrey" stroke="black" points="604.5,-109 332.5,-109 332.5,-73 604.5,-73 604.5,-109"/>
<text text-anchor="middle" x="468.5" y="-87.3" font-family="Times,serif" font-size="14.00">#12 PutField : double_field : double</text>
</g>
<!-- node6&#45;&gt;node12 -->
<g id="edge11" class="edge">
<title>node6&#45;&gt;node12</title>
<path fill="none" stroke="black" d="M292.4,-440.84C271.91,-428.9 248.5,-409.64 248.5,-384 248.5,-384 248.5,-384 248.5,-163 248.5,-139.48 294.6,-122.62 344.6,-111.24"/>
<polygon fill="black" stroke="black" points="345.62,-114.6 354.63,-109.04 344.12,-107.77 345.62,-114.6"/>
<text text-anchor="middle" x="338.74" y="-117.48" font-family="Times,serif" font-size="14.00">*0</text>
</g>
<!-- node13 -->
<g id="node13" class="node">
<title>node13</title>
<polygon fill="lightgrey" stroke="black" points="519,-36 418,-36 418,0 519,0 519,-36"/>
<text text-anchor="middle" x="468.5" y="-14.3" font-family="Times,serif" font-size="14.00">#13 Return</text>
</g>
<!-- node12&#45;&gt;node13 -->
<g id="edge26" class="edge">
<title>node12&#45;&gt;node13</title>
<path fill="none" stroke="red" d="M462.62,-72.81C461.78,-64.79 461.55,-55.05 461.92,-46.07"/>
<polygon fill="red" stroke="red" points="465.42,-46.25 462.64,-36.03 458.44,-45.75 465.42,-46.25"/>
</g>
<!-- node12&#45;&gt;node13 -->
<g id="edge27" class="edge">
<title>node12&#45;&gt;node13</title>
<path fill="none" stroke="green" d="M474.38,-72.81C475.22,-64.79 475.45,-55.05 475.08,-46.07"/>
<polygon fill="green" stroke="green" points="478.56,-45.75 474.36,-36.03 471.58,-46.25 478.56,-45.75"/>
</g>
<!-- node11 -->
<g id="node8" class="node">
<title>node11</title>
<polygon fill="orange" stroke="black" points="660.61,-156.54 660.61,-171.46 548.07,-182 388.93,-182 276.39,-171.46 276.39,-156.54 388.93,-146 548.07,-146 660.61,-156.54"/>
<text text-anchor="middle" x="468.5" y="-160.3" font-family="Times,serif" font-size="14.00">#11 GetField : double_field : double</text>
</g>
<!-- node11&#45;&gt;node12 -->
<g id="edge12" class="edge">
<title>node11&#45;&gt;node12</title>
<path fill="none" stroke="black" d="M462.62,-145.81C461.78,-137.79 461.55,-128.05 461.92,-119.07"/>
<polygon fill="black" stroke="black" points="465.42,-119.25 462.64,-109.03 458.44,-118.75 465.42,-119.25"/>
<text text-anchor="middle" x="469.78" y="-124.01" font-family="Times,serif" font-size="14.00">*1</text>
</g>
<!-- node11&#45;&gt;node12 -->
<g id="edge13" class="edge">
<title>node11&#45;&gt;node12</title>
<path fill="none" stroke="green" d="M474.38,-145.81C475.22,-137.79 475.45,-128.05 475.08,-119.07"/>
<polygon fill="green" stroke="green" points="478.56,-118.75 474.36,-109.03 471.58,-119.25 478.56,-118.75"/>
</g>
<!-- node10 -->
<g id="node9" class="node">
<title>node10</title>
<polygon fill="lightgrey" stroke="black" points="955,-182 696,-182 696,-146 955,-146 955,-182"/>
<text text-anchor="middle" x="825.5" y="-160.3" font-family="Times,serif" font-size="14.00">#10 Invoke special &lt;init&gt; : ()void</text>
</g>
<!-- node10&#45;&gt;node12 -->
<g id="edge14" class="edge">
<title>node10&#45;&gt;node12</title>
<path fill="none" stroke="red" d="M739.99,-145.99C687.07,-135.47 619.03,-121.94 564.3,-111.05"/>
<polygon fill="red" stroke="red" points="564.73,-107.57 554.24,-109.05 563.37,-114.44 564.73,-107.57"/>
</g>
<!-- node10&#45;&gt;node11 -->
<g id="edge25" class="edge">
<title>node10&#45;&gt;node11</title>
<path fill="none" stroke="green" d="M695.7,-164C687.38,-164 679.06,-164 670.74,-164"/>
<polygon fill="green" stroke="green" points="670.6,-160.5 660.6,-164 670.6,-167.5 670.6,-160.5"/>
</g>
<!-- node9 -->
<g id="node10" class="node">
<title>node9</title>
<polygon fill="orange" stroke="black" points="796.62,-229.54 796.62,-244.46 766.09,-255 722.91,-255 692.38,-244.46 692.38,-229.54 722.91,-219 766.09,-219 796.62,-229.54"/>
<text text-anchor="middle" x="744.5" y="-233.3" font-family="Times,serif" font-size="14.00">#9 New</text>
</g>
<!-- node9&#45;&gt;node11 -->
<g id="edge24" class="edge">
<title>node9&#45;&gt;node11</title>
<path fill="none" stroke="black" d="M703.78,-225.52C662.01,-214.78 596.05,-197.81 544.59,-184.57"/>
<polygon fill="black" stroke="black" points="545.38,-181.16 534.83,-182.06 543.64,-187.94 545.38,-181.16"/>
<text text-anchor="middle" x="554.49" y="-174.69" font-family="Times,serif" font-size="14.00">*0</text>
</g>
<!-- node9&#45;&gt;node10 -->
<g id="edge15" class="edge">
<title>node9&#45;&gt;node10</title>
<path fill="none" stroke="black" d="M758.23,-218.81C767.63,-209.74 780.31,-198.48 792.17,-188.6"/>
<polygon fill="black" stroke="black" points="794.69,-191.07 800.21,-182.03 790.25,-185.65 794.69,-191.07"/>
<text text-anchor="middle" x="791.53" y="-196.35" font-family="Times,serif" font-size="14.00">*0</text>
</g>
<!-- node9&#45;&gt;node10 -->
<g id="edge17" class="edge">
<title>node9&#45;&gt;node10</title>
<path fill="none" stroke="green" d="M769.09,-219.53C780.39,-210.5 793.57,-199.13 804.41,-189.12"/>
<polygon fill="green" stroke="green" points="806.97,-191.53 811.84,-182.12 802.16,-186.43 806.97,-191.53"/>
</g>
<!-- node8&#45;&gt;node10 -->
<g id="edge16" class="edge">
<title>node8&#45;&gt;node10</title>
<path fill="none" stroke="red" d="M770.56,-291.85C782.94,-282.4 796.88,-269.62 805.5,-255 816.83,-235.77 821.75,-210.8 823.88,-192.03"/>
<polygon fill="red" stroke="red" points="827.37,-192.35 824.82,-182.06 820.4,-191.69 827.37,-192.35"/>
</g>
<!-- node8&#45;&gt;node9 -->
<g id="edge18" class="edge">
<title>node8&#45;&gt;node9</title>
<path fill="none" stroke="black" d="M738.62,-291.81C737.78,-283.79 737.55,-274.05 737.92,-265.07"/>
<polygon fill="black" stroke="black" points="741.42,-265.25 738.64,-255.03 734.44,-264.75 741.42,-265.25"/>
<text text-anchor="middle" x="745.78" y="-270.01" font-family="Times,serif" font-size="14.00">*0</text>
</g>
<!-- node8&#45;&gt;node9 -->
<g id="edge19" class="edge">
<title>node8&#45;&gt;node9</title>
<path fill="none" stroke="green" d="M750.38,-291.81C751.22,-283.79 751.45,-274.05 751.08,-265.07"/>
<polygon fill="green" stroke="green" points="754.56,-264.75 750.36,-255.03 747.58,-265.25 754.56,-264.75"/>
</g>
<!-- node3&#45;&gt;node8 -->
<g id="edge20" class="edge">
<title>node3&#45;&gt;node8</title>
<path fill="none" stroke="black" d="M744.5,-583.78C744.5,-569.41 744.5,-548.37 744.5,-530 744.5,-530 744.5,-530 744.5,-382 744.5,-367.65 744.5,-351.67 744.5,-338.51"/>
<polygon fill="black" stroke="black" points="748,-338.22 744.5,-328.22 741,-338.22 748,-338.22"/>
<text text-anchor="middle" x="752.95" y="-342.64" font-family="Times,serif" font-size="14.00">*0</text>
</g>
<!-- c0 -->
<!-- c1 -->
<!-- c0&#45;&gt;c1 -->
<g id="edge28" class="edge">
<title>c0&#45;&gt;c1</title>
<path fill="none" stroke="red" d="M1677.39,-684C1688.61,-684 1746.74,-684 1772.36,-684"/>
<polygon fill="red" stroke="red" points="1772.56,-687.5 1782.56,-684 1772.56,-680.5 1772.56,-687.5"/>
<text text-anchor="middle" x="1730" y="-690.8" font-family="Times,serif" font-size="14.00">Control flow</text>
</g>
<!-- c2 -->
<!-- c3 -->
<!-- c2&#45;&gt;c3 -->
<g id="edge29" class="edge">
<title>c2&#45;&gt;c3</title>
<path fill="none" stroke="red" stroke-dasharray="5,2" d="M1470.58,-684C1487.55,-684 1603.71,-684 1641.58,-684"/>
<polygon fill="red" stroke="red" points="1641.67,-687.5 1651.67,-684 1641.67,-680.5 1641.67,-687.5"/>
<text text-anchor="middle" x="1561" y="-690.8" font-family="Times,serif" font-size="14.00">Control flow back edge</text>
</g>
<!-- d0 -->
<!-- d1 -->
<!-- d0&#45;&gt;d1 -->
<g id="edge30" class="edge">
<title>d0&#45;&gt;d1</title>
<path fill="none" stroke="black" d="M1359.36,-684C1368.91,-684 1412.81,-684 1434.42,-684"/>
<polygon fill="black" stroke="black" points="1434.65,-687.5 1444.65,-684 1434.65,-680.5 1434.65,-687.5"/>
<text text-anchor="middle" x="1402" y="-690.8" font-family="Times,serif" font-size="14.00">Data flow</text>
</g>
<!-- d2 -->
<!-- d3 -->
<!-- d2&#45;&gt;d3 -->
<g id="edge31" class="edge">
<title>d2&#45;&gt;d3</title>
<path fill="none" stroke="black" stroke-dasharray="1,5" d="M1233.31,-684C1243.96,-684 1298.96,-684 1323.58,-684"/>
<polygon fill="black" stroke="black" points="1323.65,-687.5 1333.65,-684 1323.65,-680.5 1323.65,-687.5"/>
<text text-anchor="middle" x="1283.5" y="-690.8" font-family="Times,serif" font-size="14.00">Declaration</text>
</g>
<!-- d4 -->
<!-- d5 -->
<!-- d4&#45;&gt;d5 -->
<g id="edge32" class="edge">
<title>d4&#45;&gt;d5</title>
<path fill="none" stroke="blue" d="M1090.6,-684C1103.22,-684 1169.38,-684 1197.18,-684"/>
<polygon fill="blue" stroke="blue" points="1197.34,-687.5 1207.34,-684 1197.34,-680.5 1197.34,-687.5"/>
<text text-anchor="middle" x="1149" y="-690.8" font-family="Times,serif" font-size="14.00">PHI Data flow</text>
</g>
<!-- d6 -->
<!-- d7 -->
<!-- d6&#45;&gt;d7 -->
<g id="edge33" class="edge">
<title>d6&#45;&gt;d7</title>
<path fill="none" stroke="green" d="M953.5,-684C965.44,-684 1027.8,-684 1054.43,-684"/>
<polygon fill="green" stroke="green" points="1054.45,-687.5 1064.45,-684 1054.45,-680.5 1054.45,-687.5"/>
<text text-anchor="middle" x="1009" y="-690.8" font-family="Times,serif" font-size="14.00">Memory flow</text>
</g>
</g>
</svg>
