<?xml version="1.0" encoding="UTF-8" standalone="no"?>
<!DOCTYPE svg PUBLIC "-//W3C//DTD SVG 1.1//EN"
 "http://www.w3.org/Graphics/SVG/1.1/DTD/svg11.dtd">
<!-- Generated by graphviz version 2.43.0 (0)
 -->
<!-- Title: %3 Pages: 1 -->
<svg width="1849pt" height="735pt"
 viewBox="0.00 0.00 1848.50 735.00" xmlns="http://www.w3.org/2000/svg" xmlns:xlink="http://www.w3.org/1999/xlink">
<g id="graph0" class="graph" transform="scale(1 1) rotate(0) translate(4 731)">
<title>%3</title>
<polygon fill="white" stroke="transparent" points="-4,4 -4,-731 1844.5,-731 1844.5,4 -4,4"/>
<g id="clust1" class="cluster">
<title>cluster_0</title>
<polygon fill="none" stroke="lightgray" points="167.5,-576 167.5,-719 971.5,-719 971.5,-576 167.5,-576"/>
</g>
<g id="clust2" class="cluster">
<title>cluster_000</title>
<polygon fill="none" stroke="black" points="979.5,-674.2 979.5,-716.8 1832.5,-716.8 1832.5,-674.2 979.5,-674.2"/>
<text text-anchor="middle" x="1406" y="-701.6" font-family="Times,serif" font-size="14.00">Legend</text>
</g>
<!-- node0 -->
<g id="node1" class="node">
<title>node0</title>
<polygon fill="lightgrey" stroke="transparent" points="463,-711 296,-711 296,-657 463,-657 463,-711"/>
<polygon fill="none" stroke="black" points="296.5,-684 296.5,-711 463.5,-711 463.5,-684 296.5,-684"/>
<text text-anchor="start" x="339.5" y="-693.8" font-family="Times,serif" font-size="14.00">#0 Method</text>
<polygon fill="yellow" stroke="transparent" points="296.5,-657 296.5,-684 463.5,-684 463.5,-657 296.5,-657"/>
<polygon fill="none" stroke="black" points="296.5,-657 296.5,-684 463.5,-684 463.5,-657 296.5,-657"/>
<text text-anchor="start" x="302.5" y="-666.8" font-family="Times,serif" font-size="14.00">this : FieldAccessTest</text>
</g>
<!-- node4 -->
<g id="node2" class="node">
<title>node4</title>
<polygon fill="lightgreen" stroke="black" points="583.53,-594.54 583.53,-609.46 464.01,-620 294.99,-620 175.47,-609.46 175.47,-594.54 294.99,-584 464.01,-584 583.53,-594.54"/>
<text text-anchor="middle" x="379.5" y="-598.3" font-family="Times,serif" font-size="14.00">#4 Class FieldAccessTest$Destination</text>
</g>
<!-- node0&#45;&gt;node4 -->
<g id="edge1" class="edge">
<title>node0&#45;&gt;node4</title>
<path fill="none" stroke="black" stroke-dasharray="1,5" d="M379.5,-656.81C379.5,-648.35 379.5,-638.95 379.5,-630.4"/>
<polygon fill="black" stroke="black" points="383,-630.17 379.5,-620.17 376,-630.17 383,-630.17"/>
</g>
<!-- node5 -->
<g id="node3" class="node">
<title>node5</title>
<polygon fill="lightgrey" stroke="black" points="421,-547 316,-547 316,-511 421,-511 421,-547"/>
<text text-anchor="middle" x="368.5" y="-525.3" font-family="Times,serif" font-size="14.00">#5 ClassInit</text>
</g>
<!-- node0&#45;&gt;node5 -->
<g id="edge4" class="edge">
<title>node0&#45;&gt;node5</title>
<path fill="none" stroke="green" d="M295.89,-668.83C243.3,-658.02 182.45,-641.36 166.5,-620 154.8,-604.33 154.3,-591.29 166.5,-576 170.96,-570.41 247.99,-553.98 305.6,-542.36"/>
<polygon fill="green" stroke="green" points="306.64,-545.72 315.75,-540.32 305.26,-538.86 306.64,-545.72"/>
</g>
<!-- node2 -->
<g id="node4" class="node">
<title>node2</title>
<polygon fill="lightgrey" stroke="black" points="119,-620 0,-620 0,-584 119,-584 119,-620"/>
<text text-anchor="middle" x="59.5" y="-598.3" font-family="Times,serif" font-size="14.00">#2 LabelNode</text>
</g>
<!-- node0&#45;&gt;node2 -->
<g id="edge5" class="edge">
<title>node0&#45;&gt;node2</title>
<path fill="none" stroke="red" d="M295.92,-677.29C243.37,-671.69 174.89,-660.66 117.5,-639 108.46,-635.59 99.3,-630.7 91.01,-625.62"/>
<polygon fill="red" stroke="red" points="92.7,-622.55 82.4,-620.09 88.92,-628.44 92.7,-622.55"/>
</g>
<!-- node3 -->
<g id="node12" class="node">
<title>node3</title>
<polygon fill="lightgreen" stroke="black" points="963.1,-594.54 963.1,-609.46 857.31,-620 707.69,-620 601.9,-609.46 601.9,-594.54 707.69,-584 857.31,-584 963.1,-594.54"/>
<text text-anchor="middle" x="782.5" y="-598.3" font-family="Times,serif" font-size="14.00">#3 Class FieldAccessTest$Source</text>
</g>
<!-- node0&#45;&gt;node3 -->
<g id="edge23" class="edge">
<title>node0&#45;&gt;node3</title>
<path fill="none" stroke="black" stroke-dasharray="1,5" d="M463,-666.42C529.25,-653.27 621.78,-634.9 690.22,-621.32"/>
<polygon fill="black" stroke="black" points="691.01,-624.73 700.14,-619.35 689.65,-617.86 691.01,-624.73"/>
</g>
<!-- node4&#45;&gt;node5 -->
<g id="edge2" class="edge">
<title>node4&#45;&gt;node5</title>
<path fill="none" stroke="black" d="M376.84,-583.81C375.59,-575.79 374.08,-566.05 372.69,-557.07"/>
<polygon fill="black" stroke="black" points="376.13,-556.38 371.14,-547.03 369.21,-557.45 376.13,-556.38"/>
<text text-anchor="middle" x="382.27" y="-559.95" font-family="Times,serif" font-size="14.00">*0</text>
</g>
<!-- node7 -->
<g id="node5" class="node">
<title>node7</title>
<polygon fill="lightgrey" stroke="black" points="568.5,-401 318.5,-401 318.5,-365 568.5,-365 568.5,-401"/>
<text text-anchor="middle" x="443.5" y="-379.3" font-family="Times,serif" font-size="14.00">#7 Invoke special &lt;init&gt; : ()void</text>
</g>
<!-- node5&#45;&gt;node7 -->
<g id="edge7" class="edge">
<title>node5&#45;&gt;node7</title>
<path fill="none" stroke="red" d="M391.91,-510.95C403.42,-501.35 416.52,-488.41 424.5,-474 435.17,-454.73 439.86,-430.1 441.91,-411.48"/>
<polygon fill="red" stroke="red" points="445.42,-411.57 442.84,-401.29 438.45,-410.93 445.42,-411.57"/>
</g>
<!-- node6 -->
<g id="node6" class="node">
<title>node6</title>
<polygon fill="orange" stroke="black" points="415.62,-448.54 415.62,-463.46 385.09,-474 341.91,-474 311.38,-463.46 311.38,-448.54 341.91,-438 385.09,-438 415.62,-448.54"/>
<text text-anchor="middle" x="363.5" y="-452.3" font-family="Times,serif" font-size="14.00">#6 New</text>
</g>
<!-- node5&#45;&gt;node6 -->
<g id="edge9" class="edge">
<title>node5&#45;&gt;node6</title>
<path fill="none" stroke="black" d="M361.41,-510.81C360.01,-502.79 359.09,-493.05 358.83,-484.07"/>
<polygon fill="black" stroke="black" points="362.33,-484.03 358.84,-474.03 355.33,-484.03 362.33,-484.03"/>
<text text-anchor="middle" x="367.27" y="-488.46" font-family="Times,serif" font-size="14.00">*0</text>
</g>
<!-- node5&#45;&gt;node6 -->
<g id="edge10" class="edge">
<title>node5&#45;&gt;node6</title>
<path fill="none" stroke="green" d="M373.17,-510.81C373.44,-502.79 372.99,-493.05 371.98,-484.07"/>
<polygon fill="green" stroke="green" points="375.43,-483.44 370.56,-474.03 368.5,-484.42 375.43,-483.44"/>
</g>
<!-- node2&#45;&gt;node5 -->
<g id="edge3" class="edge">
<title>node2&#45;&gt;node5</title>
<path fill="none" stroke="red" d="M106.99,-583.92C115.74,-581.07 124.85,-578.3 133.5,-576 191.27,-560.66 258.27,-548.04 305.92,-539.93"/>
<polygon fill="red" stroke="red" points="306.5,-543.38 315.78,-538.26 305.34,-536.47 306.5,-543.38"/>
</g>
<!-- node8 -->
<g id="node11" class="node">
<title>node8</title>
<polygon fill="lightgrey" stroke="black" points="835,-328 730,-328 730,-292 835,-292 835,-328"/>
<text text-anchor="middle" x="782.5" y="-306.3" font-family="Times,serif" font-size="14.00">#8 ClassInit</text>
</g>
<!-- node7&#45;&gt;node8 -->
<g id="edge21" class="edge">
<title>node7&#45;&gt;node8</title>
<path fill="none" stroke="red" d="M518.84,-364.99C579.28,-352.05 663.04,-334.55 719.85,-323.03"/>
<polygon fill="red" stroke="red" points="720.67,-326.43 729.78,-321.02 719.29,-319.57 720.67,-326.43"/>
</g>
<!-- node7&#45;&gt;node8 -->
<g id="edge22" class="edge">
<title>node7&#45;&gt;node8</title>
<path fill="none" stroke="green" d="M530.56,-364.99C589.81,-352.85 666.79,-336.71 720.01,-325.25"/>
<polygon fill="green" stroke="green" points="720.96,-328.62 730,-323.09 719.49,-321.78 720.96,-328.62"/>
</g>
<!-- node6&#45;&gt;node7 -->
<g id="edge6" class="edge">
<title>node6&#45;&gt;node7</title>
<path fill="none" stroke="black" d="M376.99,-437.81C386.26,-428.74 398.78,-417.48 410.51,-407.6"/>
<polygon fill="black" stroke="black" points="412.98,-410.1 418.45,-401.03 408.51,-404.71 412.98,-410.1"/>
<text text-anchor="middle" x="409.87" y="-415.4" font-family="Times,serif" font-size="14.00">*0</text>
</g>
<!-- node6&#45;&gt;node7 -->
<g id="edge8" class="edge">
<title>node6&#45;&gt;node7</title>
<path fill="none" stroke="green" d="M387.86,-438.53C399.03,-429.5 412.05,-418.13 422.75,-408.12"/>
<polygon fill="green" stroke="green" points="425.27,-410.56 430.08,-401.12 420.43,-405.5 425.27,-410.56"/>
</g>
<!-- node12 -->
<g id="node7" class="node">
<title>node12</title>
<polygon fill="lightgrey" stroke="black" points="645.5,-109 373.5,-109 373.5,-73 645.5,-73 645.5,-109"/>
<text text-anchor="middle" x="509.5" y="-87.3" font-family="Times,serif" font-size="14.00">#12 PutField : double_field : double</text>
</g>
<!-- node6&#45;&gt;node12 -->
<g id="edge11" class="edge">
<title>node6&#45;&gt;node12</title>
<path fill="none" stroke="black" d="M333.4,-440.84C312.91,-428.9 289.5,-409.64 289.5,-384 289.5,-384 289.5,-384 289.5,-163 289.5,-139.48 335.6,-122.62 385.6,-111.24"/>
<polygon fill="black" stroke="black" points="386.62,-114.6 395.63,-109.04 385.12,-107.77 386.62,-114.6"/>
<text text-anchor="middle" x="379.74" y="-117.48" font-family="Times,serif" font-size="14.00">*0</text>
</g>
<!-- node13 -->
<g id="node13" class="node">
<title>node13</title>
<polygon fill="lightgrey" stroke="black" points="560,-36 459,-36 459,0 560,0 560,-36"/>
<text text-anchor="middle" x="509.5" y="-14.3" font-family="Times,serif" font-size="14.00">#13 Return</text>
</g>
<!-- node12&#45;&gt;node13 -->
<g id="edge26" class="edge">
<title>node12&#45;&gt;node13</title>
<path fill="none" stroke="red" d="M503.62,-72.81C502.78,-64.79 502.55,-55.05 502.92,-46.07"/>
<polygon fill="red" stroke="red" points="506.42,-46.25 503.64,-36.03 499.44,-45.75 506.42,-46.25"/>
</g>
<!-- node12&#45;&gt;node13 -->
<g id="edge27" class="edge">
<title>node12&#45;&gt;node13</title>
<path fill="none" stroke="green" d="M515.38,-72.81C516.22,-64.79 516.45,-55.05 516.08,-46.07"/>
<polygon fill="green" stroke="green" points="519.56,-45.75 515.36,-36.03 512.58,-46.25 519.56,-45.75"/>
</g>
<!-- node11 -->
<g id="node8" class="node">
<title>node11</title>
<polygon fill="orange" stroke="black" points="701.61,-156.54 701.61,-171.46 589.07,-182 429.93,-182 317.39,-171.46 317.39,-156.54 429.93,-146 589.07,-146 701.61,-156.54"/>
<text text-anchor="middle" x="509.5" y="-160.3" font-family="Times,serif" font-size="14.00">#11 GetField : double_field : double</text>
</g>
<!-- node11&#45;&gt;node12 -->
<g id="edge12" class="edge">
<title>node11&#45;&gt;node12</title>
<path fill="none" stroke="black" d="M503.62,-145.81C502.78,-137.79 502.55,-128.05 502.92,-119.07"/>
<polygon fill="black" stroke="black" points="506.42,-119.25 503.64,-109.03 499.44,-118.75 506.42,-119.25"/>
<text text-anchor="middle" x="510.78" y="-124.01" font-family="Times,serif" font-size="14.00">*1</text>
</g>
<!-- node11&#45;&gt;node12 -->
<g id="edge13" class="edge">
<title>node11&#45;&gt;node12</title>
<path fill="none" stroke="green" d="M515.38,-145.81C516.22,-137.79 516.45,-128.05 516.08,-119.07"/>
<polygon fill="green" stroke="green" points="519.56,-118.75 515.36,-109.03 512.58,-119.25 519.56,-118.75"/>
</g>
<!-- node10 -->
<g id="node9" class="node">
<title>node10</title>
<polygon fill="lightgrey" stroke="black" points="996,-182 737,-182 737,-146 996,-146 996,-182"/>
<text text-anchor="middle" x="866.5" y="-160.3" font-family="Times,serif" font-size="14.00">#10 Invoke special &lt;init&gt; : ()void</text>
</g>
<!-- node10&#45;&gt;node12 -->
<g id="edge14" class="edge">
<title>node10&#45;&gt;node12</title>
<path fill="none" stroke="red" d="M780.99,-145.99C728.07,-135.47 660.03,-121.94 605.3,-111.05"/>
<polygon fill="red" stroke="red" points="605.73,-107.57 595.24,-109.05 604.37,-114.44 605.73,-107.57"/>
</g>
<!-- node10&#45;&gt;node11 -->
<g id="edge25" class="edge">
<title>node10&#45;&gt;node11</title>
<path fill="none" stroke="green" d="M736.7,-164C728.38,-164 720.06,-164 711.74,-164"/>
<polygon fill="green" stroke="green" points="711.6,-160.5 701.6,-164 711.6,-167.5 711.6,-160.5"/>
</g>
<!-- node9 -->
<g id="node10" class="node">
<title>node9</title>
<polygon fill="orange" stroke="black" points="834.62,-229.54 834.62,-244.46 804.09,-255 760.91,-255 730.38,-244.46 730.38,-229.54 760.91,-219 804.09,-219 834.62,-229.54"/>
<text text-anchor="middle" x="782.5" y="-233.3" font-family="Times,serif" font-size="14.00">#9 New</text>
</g>
<!-- node9&#45;&gt;node11 -->
<g id="edge24" class="edge">
<title>node9&#45;&gt;node11</title>
<path fill="none" stroke="black" d="M741.92,-225.45C700.64,-214.71 635.67,-197.81 584.91,-184.61"/>
<polygon fill="black" stroke="black" points="585.52,-181.15 574.96,-182.02 583.76,-187.93 585.52,-181.15"/>
<text text-anchor="middle" x="594.63" y="-174.71" font-family="Times,serif" font-size="14.00">*0</text>
</g>
<!-- node9&#45;&gt;node10 -->
<g id="edge15" class="edge">
<title>node9&#45;&gt;node10</title>
<path fill="none" stroke="black" d="M796.96,-218.81C806.83,-209.66 820.15,-198.26 832.53,-188.32"/>
<polygon fill="black" stroke="black" points="834.81,-190.97 840.49,-182.03 830.47,-185.48 834.81,-190.97"/>
<text text-anchor="middle" x="831.51" y="-196.2" font-family="Times,serif" font-size="14.00">*0</text>
</g>
<!-- node9&#45;&gt;node10 -->
<g id="edge17" class="edge">
<title>node9&#45;&gt;node10</title>
<path fill="none" stroke="green" d="M807.32,-219.89C819.22,-210.71 833.24,-199.05 844.72,-188.83"/>
<polygon fill="green" stroke="green" points="847.15,-191.35 852.21,-182.04 842.45,-186.17 847.15,-191.35"/>
</g>
<!-- node8&#45;&gt;node10 -->
<g id="edge16" class="edge">
<title>node8&#45;&gt;node10</title>
<path fill="none" stroke="red" d="M808.06,-291.97C820.47,-282.47 834.58,-269.61 843.5,-255 855.22,-235.81 860.99,-210.83 863.82,-192.06"/>
<polygon fill="red" stroke="red" points="867.3,-192.45 865.14,-182.08 860.36,-191.53 867.3,-192.45"/>
</g>
<!-- node8&#45;&gt;node9 -->
<g id="edge18" class="edge">
<title>node8&#45;&gt;node9</title>
<path fill="none" stroke="black" d="M776.62,-291.81C775.78,-283.79 775.55,-274.05 775.92,-265.07"/>
<polygon fill="black" stroke="black" points="779.42,-265.25 776.64,-255.03 772.44,-264.75 779.42,-265.25"/>
<text text-anchor="middle" x="783.78" y="-270.01" font-family="Times,serif" font-size="14.00">*0</text>
</g>
<!-- node8&#45;&gt;node9 -->
<g id="edge19" class="edge">
<title>node8&#45;&gt;node9</title>
<path fill="none" stroke="green" d="M788.38,-291.81C789.22,-283.79 789.45,-274.05 789.08,-265.07"/>
<polygon fill="green" stroke="green" points="792.56,-264.75 788.36,-255.03 785.58,-265.25 792.56,-264.75"/>
</g>
<!-- node3&#45;&gt;node8 -->
<g id="edge20" class="edge">
<title>node3&#45;&gt;node8</title>
<path fill="none" stroke="black" d="M782.5,-583.78C782.5,-569.41 782.5,-548.37 782.5,-530 782.5,-530 782.5,-530 782.5,-382 782.5,-367.65 782.5,-351.67 782.5,-338.51"/>
<polygon fill="black" stroke="black" points="786,-338.22 782.5,-328.22 779,-338.22 786,-338.22"/>
<text text-anchor="middle" x="790.95" y="-342.64" font-family="Times,serif" font-size="14.00">*0</text>
</g>
<!-- c0 -->
<!-- c1 -->
<!-- c0&#45;&gt;c1 -->
<g id="edge28" class="edge">
<title>c0&#45;&gt;c1</title>
<path fill="none" stroke="red" d="M1715.39,-684C1726.61,-684 1784.74,-684 1810.36,-684"/>
<polygon fill="red" stroke="red" points="1810.56,-687.5 1820.56,-684 1810.56,-680.5 1810.56,-687.5"/>
<text text-anchor="middle" x="1768" y="-690.8" font-family="Times,serif" font-size="14.00">Control flow</text>
</g>
<!-- c2 -->
<!-- c3 -->
<!-- c2&#45;&gt;c3 -->
<g id="edge29" class="edge">
<title>c2&#45;&gt;c3</title>
<path fill="none" stroke="red" stroke-dasharray="5,2" d="M1508.58,-684C1525.55,-684 1641.71,-684 1679.58,-684"/>
<polygon fill="red" stroke="red" points="1679.67,-687.5 1689.67,-684 1679.67,-680.5 1679.67,-687.5"/>
<text text-anchor="middle" x="1599" y="-690.8" font-family="Times,serif" font-size="14.00">Control flow back edge</text>
</g>
<!-- d0 -->
<!-- d1 -->
<!-- d0&#45;&gt;d1 -->
<g id="edge30" class="edge">
<title>d0&#45;&gt;d1</title>
<path fill="none" stroke="black" d="M1397.36,-684C1406.91,-684 1450.81,-684 1472.42,-684"/>
<polygon fill="black" stroke="black" points="1472.65,-687.5 1482.65,-684 1472.65,-680.5 1472.65,-687.5"/>
<text text-anchor="middle" x="1440" y="-690.8" font-family="Times,serif" font-size="14.00">Data flow</text>
</g>
<!-- d2 -->
<!-- d3 -->
<!-- d2&#45;&gt;d3 -->
<g id="edge31" class="edge">
<title>d2&#45;&gt;d3</title>
<path fill="none" stroke="black" stroke-dasharray="1,5" d="M1271.31,-684C1281.96,-684 1336.96,-684 1361.58,-684"/>
<polygon fill="black" stroke="black" points="1361.65,-687.5 1371.65,-684 1361.65,-680.5 1361.65,-687.5"/>
<text text-anchor="middle" x="1321.5" y="-690.8" font-family="Times,serif" font-size="14.00">Declaration</text>
</g>
<!-- d4 -->
<!-- d5 -->
<!-- d4&#45;&gt;d5 -->
<g id="edge32" class="edge">
<title>d4&#45;&gt;d5</title>
<path fill="none" stroke="blue" d="M1128.6,-684C1141.22,-684 1207.38,-684 1235.18,-684"/>
<polygon fill="blue" stroke="blue" points="1235.34,-687.5 1245.34,-684 1235.34,-680.5 1235.34,-687.5"/>
<text text-anchor="middle" x="1187" y="-690.8" font-family="Times,serif" font-size="14.00">PHI Data flow</text>
</g>
<!-- d6 -->
<!-- d7 -->
<!-- d6&#45;&gt;d7 -->
<g id="edge33" class="edge">
<title>d6&#45;&gt;d7</title>
<path fill="none" stroke="green" d="M991.5,-684C1003.44,-684 1065.8,-684 1092.43,-684"/>
<polygon fill="green" stroke="green" points="1092.45,-687.5 1102.45,-684 1092.45,-680.5 1092.45,-687.5"/>
<text text-anchor="middle" x="1047" y="-690.8" font-family="Times,serif" font-size="14.00">Memory flow</text>
</g>
</g>
</svg>
