<?xml version="1.0" encoding="UTF-8" standalone="no"?>
<!DOCTYPE svg PUBLIC "-//W3C//DTD SVG 1.1//EN"
 "http://www.w3.org/Graphics/SVG/1.1/DTD/svg11.dtd">
<!-- Generated by graphviz version 2.43.0 (0)
 -->
<!-- Title: debugoutput Pages: 1 -->
<svg width="734pt" height="578pt"
 viewBox="0.00 0.00 734.00 577.80" xmlns="http://www.w3.org/2000/svg" xmlns:xlink="http://www.w3.org/1999/xlink">
<g id="graph0" class="graph" transform="scale(1 1) rotate(0) translate(4 573.8)">
<title>debugoutput</title>
<polygon fill="white" stroke="transparent" points="-4,4 -4,-573.8 730,-573.8 730,4 -4,4"/>
<g id="clust1" class="cluster">
<title>cluster_000</title>
<polygon fill="none" stroke="black" points="259,-519.2 259,-561.8 718,-561.8 718,-519.2 259,-519.2"/>
<text text-anchor="middle" x="488.5" y="-546.6" font-family="Times,serif" font-size="14.00">Legend</text>
</g>
<!-- node0 -->
<g id="node1" class="node">
<title>node0</title>
<polygon fill="lightgrey" stroke="black" points="249,-547 83,-547 83,-511 249,-511 249,-547"/>
<text text-anchor="middle" x="166" y="-525.3" font-family="Times,serif" font-size="14.00">#0 Method Order : 0</text>
</g>
<!-- node1 -->
<g id="node2" class="node">
<title>node1</title>
<polygon fill="lightgrey" stroke="black" points="260,-474 72,-474 72,-438 260,-438 260,-474"/>
<text text-anchor="middle" x="166" y="-452.3" font-family="Times,serif" font-size="14.00">#1 LabelNode Order : 1</text>
</g>
<!-- node0&#45;&gt;node1 -->
<g id="edge2" class="edge">
<title>node0&#45;&gt;node1</title>
<path fill="none" stroke="red" d="M160.12,-510.81C159.28,-502.79 159.05,-493.05 159.42,-484.07"/>
<polygon fill="red" stroke="red" points="162.92,-484.25 160.14,-474.03 155.94,-483.75 162.92,-484.25"/>
</g>
<!-- node1&#45;&gt;node0 -->
<g id="edge1" class="edge">
<title>node1&#45;&gt;node0</title>
<path fill="none" stroke="fuchsia" stroke-width="2" d="M171.86,-474.03C172.71,-482.03 172.95,-491.77 172.59,-500.75"/>
<polygon fill="fuchsia" stroke="fuchsia" stroke-width="2" points="169.09,-500.59 171.88,-510.81 176.07,-501.08 169.09,-500.59"/>
</g>
<!-- node2 -->
<g id="node3" class="node">
<title>node2</title>
<polygon fill="lightgrey" stroke="black" points="253,-401 79,-401 79,-365 253,-365 253,-401"/>
<text text-anchor="middle" x="166" y="-379.3" font-family="Times,serif" font-size="14.00">#2 ClassInit Order : 2</text>
</g>
<!-- node1&#45;&gt;node2 -->
<g id="edge4" class="edge">
<title>node1&#45;&gt;node2</title>
<path fill="none" stroke="red" d="M160.12,-437.81C159.28,-429.79 159.05,-420.05 159.42,-411.07"/>
<polygon fill="red" stroke="red" points="162.92,-411.25 160.14,-401.03 155.94,-410.75 162.92,-411.25"/>
</g>
<!-- node2&#45;&gt;node1 -->
<g id="edge3" class="edge">
<title>node2&#45;&gt;node1</title>
<path fill="none" stroke="fuchsia" stroke-width="2" d="M171.86,-401.03C172.71,-409.03 172.95,-418.77 172.59,-427.75"/>
<polygon fill="fuchsia" stroke="fuchsia" stroke-width="2" points="169.09,-427.59 171.88,-437.81 176.07,-428.08 169.09,-427.59"/>
</g>
<!-- node3 -->
<g id="node4" class="node">
<title>node3</title>
<polygon fill="lightgrey" stroke="black" points="325.5,-328 6.5,-328 6.5,-292 325.5,-292 325.5,-328"/>
<text text-anchor="middle" x="166" y="-306.3" font-family="Times,serif" font-size="14.00">#3 Invoke special &lt;init&gt; : ()void Order : 3</text>
</g>
<!-- node2&#45;&gt;node3 -->
<g id="edge6" class="edge">
<title>node2&#45;&gt;node3</title>
<path fill="none" stroke="red" d="M160.12,-364.81C159.28,-356.79 159.05,-347.05 159.42,-338.07"/>
<polygon fill="red" stroke="red" points="162.92,-338.25 160.14,-328.03 155.94,-337.75 162.92,-338.25"/>
</g>
<!-- node3&#45;&gt;node2 -->
<g id="edge5" class="edge">
<title>node3&#45;&gt;node2</title>
<path fill="none" stroke="fuchsia" stroke-width="2" d="M171.86,-328.03C172.71,-336.03 172.95,-345.77 172.59,-354.75"/>
<polygon fill="fuchsia" stroke="fuchsia" stroke-width="2" points="169.09,-354.59 171.88,-364.81 176.07,-355.08 169.09,-354.59"/>
</g>
<!-- node4 -->
<g id="node5" class="node">
<title>node4</title>
<polygon fill="lightgrey" stroke="black" points="253,-255 79,-255 79,-219 253,-219 253,-255"/>
<text text-anchor="middle" x="166" y="-233.3" font-family="Times,serif" font-size="14.00">#4 ClassInit Order : 4</text>
</g>
<!-- node3&#45;&gt;node4 -->
<g id="edge8" class="edge">
<title>node3&#45;&gt;node4</title>
<path fill="none" stroke="red" d="M160.12,-291.81C159.28,-283.79 159.05,-274.05 159.42,-265.07"/>
<polygon fill="red" stroke="red" points="162.92,-265.25 160.14,-255.03 155.94,-264.75 162.92,-265.25"/>
</g>
<!-- node4&#45;&gt;node3 -->
<g id="edge7" class="edge">
<title>node4&#45;&gt;node3</title>
<path fill="none" stroke="fuchsia" stroke-width="2" d="M171.86,-255.03C172.71,-263.03 172.95,-272.77 172.59,-281.75"/>
<polygon fill="fuchsia" stroke="fuchsia" stroke-width="2" points="169.09,-281.59 171.88,-291.81 176.07,-282.08 169.09,-281.59"/>
</g>
<!-- node5 -->
<g id="node6" class="node">
<title>node5</title>
<polygon fill="lightgrey" stroke="black" points="325.5,-182 6.5,-182 6.5,-146 325.5,-146 325.5,-182"/>
<text text-anchor="middle" x="166" y="-160.3" font-family="Times,serif" font-size="14.00">#5 Invoke special &lt;init&gt; : ()void Order : 5</text>
</g>
<!-- node4&#45;&gt;node5 -->
<g id="edge10" class="edge">
<title>node4&#45;&gt;node5</title>
<path fill="none" stroke="red" d="M160.12,-218.81C159.28,-210.79 159.05,-201.05 159.42,-192.07"/>
<polygon fill="red" stroke="red" points="162.92,-192.25 160.14,-182.03 155.94,-191.75 162.92,-192.25"/>
</g>
<!-- node5&#45;&gt;node4 -->
<g id="edge9" class="edge">
<title>node5&#45;&gt;node4</title>
<path fill="none" stroke="fuchsia" stroke-width="2" d="M171.86,-182.03C172.71,-190.03 172.95,-199.77 172.59,-208.75"/>
<polygon fill="fuchsia" stroke="fuchsia" stroke-width="2" points="169.09,-208.59 171.88,-218.81 176.07,-209.08 169.09,-208.59"/>
</g>
<!-- node6 -->
<g id="node7" class="node">
<title>node6</title>
<polygon fill="lightgrey" stroke="black" points="332,-109 0,-109 0,-73 332,-73 332,-109"/>
<text text-anchor="middle" x="166" y="-87.3" font-family="Times,serif" font-size="14.00">#6 PutField : double_field : double Order : 6</text>
</g>
<!-- node5&#45;&gt;node6 -->
<g id="edge12" class="edge">
<title>node5&#45;&gt;node6</title>
<path fill="none" stroke="red" d="M160.12,-145.81C159.28,-137.79 159.05,-128.05 159.42,-119.07"/>
<polygon fill="red" stroke="red" points="162.92,-119.25 160.14,-109.03 155.94,-118.75 162.92,-119.25"/>
</g>
<!-- node6&#45;&gt;node5 -->
<g id="edge11" class="edge">
<title>node6&#45;&gt;node5</title>
<path fill="none" stroke="fuchsia" stroke-width="2" d="M171.86,-109.03C172.71,-117.03 172.95,-126.77 172.59,-135.75"/>
<polygon fill="fuchsia" stroke="fuchsia" stroke-width="2" points="169.09,-135.59 171.88,-145.81 176.07,-136.08 169.09,-135.59"/>
</g>
<!-- node7 -->
<g id="node8" class="node">
<title>node7</title>
<polygon fill="lightgrey" stroke="black" points="246.5,-36 85.5,-36 85.5,0 246.5,0 246.5,-36"/>
<text text-anchor="middle" x="166" y="-14.3" font-family="Times,serif" font-size="14.00">#7 Return Order : 7</text>
</g>
<!-- node6&#45;&gt;node7 -->
<g id="edge14" class="edge">
<title>node6&#45;&gt;node7</title>
<path fill="none" stroke="red" d="M160.12,-72.81C159.28,-64.79 159.05,-55.05 159.42,-46.07"/>
<polygon fill="red" stroke="red" points="162.92,-46.25 160.14,-36.03 155.94,-45.75 162.92,-46.25"/>
</g>
<!-- node7&#45;&gt;node6 -->
<g id="edge13" class="edge">
<title>node7&#45;&gt;node6</title>
<path fill="none" stroke="fuchsia" stroke-width="2" d="M171.86,-36.03C172.71,-44.03 172.95,-53.77 172.59,-62.75"/>
<polygon fill="fuchsia" stroke="fuchsia" stroke-width="2" points="169.09,-62.59 171.88,-72.81 176.07,-63.08 169.09,-62.59"/>
</g>
<!-- c0 -->
<!-- c1 -->
<!-- c0&#45;&gt;c1 -->
<g id="edge15" class="edge">
<title>c0&#45;&gt;c1</title>
<path fill="none" stroke="red" d="M600.89,-529C612.11,-529 670.24,-529 695.86,-529"/>
<polygon fill="red" stroke="red" points="696.06,-532.5 706.06,-529 696.06,-525.5 696.06,-532.5"/>
<text text-anchor="middle" x="653.5" y="-535.8" font-family="Times,serif" font-size="14.00">Control flow</text>
</g>
<!-- c2 -->
<!-- c3 -->
<!-- c2&#45;&gt;c3 -->
<g id="edge16" class="edge">
<title>c2&#45;&gt;c3</title>
<path fill="none" stroke="red" stroke-dasharray="5,2" d="M394.08,-529C411.05,-529 527.21,-529 565.08,-529"/>
<polygon fill="red" stroke="red" points="565.17,-532.5 575.17,-529 565.17,-525.5 565.17,-532.5"/>
<text text-anchor="middle" x="484.5" y="-535.8" font-family="Times,serif" font-size="14.00">Control flow back edge</text>
</g>
<!-- d8 -->
<!-- d9 -->
<!-- d8&#45;&gt;d9 -->
<g id="edge17" class="edge">
<title>d8&#45;&gt;d9</title>
<path fill="none" stroke="fuchsia" d="M271.11,-529C282.15,-529 333.67,-529 357.66,-529"/>
<polygon fill="fuchsia" stroke="fuchsia" points="357.9,-532.5 367.9,-529 357.9,-525.5 357.9,-532.5"/>
<text text-anchor="middle" x="319.5" y="-535.8" font-family="Times,serif" font-size="14.00">Dominance</text>
</g>
</g>
</svg>
