<?xml version="1.0" encoding="UTF-8" standalone="no"?>
<!DOCTYPE svg PUBLIC "-//W3C//DTD SVG 1.1//EN"
 "http://www.w3.org/Graphics/SVG/1.1/DTD/svg11.dtd">
<!-- Generated by graphviz version 2.43.0 (0)
 -->
<!-- Title: debugoutput Pages: 1 -->
<svg width="1762pt" height="797pt"
 viewBox="0.00 0.00 1762.16 796.80" xmlns="http://www.w3.org/2000/svg" xmlns:xlink="http://www.w3.org/1999/xlink">
<g id="graph0" class="graph" transform="scale(1 1) rotate(0) translate(4 792.8)">
<title>debugoutput</title>
<polygon fill="white" stroke="transparent" points="-4,4 -4,-792.8 1758.16,-792.8 1758.16,4 -4,4"/>
<g id="clust1" class="cluster">
<title>cluster_000</title>
<polygon fill="none" stroke="black" points="907.16,-738.2 907.16,-780.8 1746.16,-780.8 1746.16,-738.2 907.16,-738.2"/>
<text text-anchor="middle" x="1326.66" y="-765.6" font-family="Times,serif" font-size="14.00">Legend</text>
</g>
<!-- node0 -->
<g id="node1" class="node">
<title>node0</title>
<polygon fill="lightgrey" stroke="black" points="897.16,-766 731.16,-766 731.16,-730 897.16,-730 897.16,-766"/>
<text text-anchor="middle" x="814.16" y="-744.3" font-family="Times,serif" font-size="14.00">#0 Method Order : 0</text>
</g>
<!-- node1 -->
<g id="node2" class="node">
<title>node1</title>
<polygon fill="lightgrey" stroke="black" points="731.16,-620 557.16,-620 557.16,-584 731.16,-584 731.16,-620"/>
<text text-anchor="middle" x="644.16" y="-598.3" font-family="Times,serif" font-size="14.00">#1 ClassInit Order : 5</text>
</g>
<!-- node0&#45;&gt;node1 -->
<g id="edge4" class="edge">
<title>node0&#45;&gt;node1</title>
<path fill="none" stroke="black" d="M731.12,-747.62C535.05,-748.29 56.51,-744.74 8.16,-693 -2.76,-681.31 -2.66,-668.79 8.16,-657 43.56,-618.42 377.56,-607.34 546.87,-604.21"/>
<polygon fill="black" stroke="black" points="547.1,-607.7 557.03,-604.02 546.97,-600.7 547.1,-607.7"/>
</g>
<!-- node6 -->
<g id="node3" class="node">
<title>node6</title>
<polygon fill="lightgreen" stroke="black" points="531.77,-667.54 531.77,-682.46 383.79,-693 174.53,-693 26.55,-682.46 26.55,-667.54 174.53,-657 383.79,-657 531.77,-667.54"/>
<text text-anchor="middle" x="279.16" y="-671.3" font-family="Times,serif" font-size="14.00">#6 Class FieldAccessTest$Destination Order : 2</text>
</g>
<!-- node0&#45;&gt;node6 -->
<g id="edge17" class="edge">
<title>node0&#45;&gt;node6</title>
<path fill="none" stroke="black" stroke-dasharray="1,5" d="M731.15,-736.64C644,-725.34 506.01,-707.07 405.38,-693.54"/>
<polygon fill="black" stroke="black" points="405.83,-690.07 395.46,-692.2 404.9,-697 405.83,-690.07"/>
</g>
<!-- node5 -->
<g id="node4" class="node">
<title>node5</title>
<polygon fill="lightgrey" stroke="black" points="738.16,-693 550.16,-693 550.16,-657 738.16,-657 738.16,-693"/>
<text text-anchor="middle" x="644.16" y="-671.3" font-family="Times,serif" font-size="14.00">#5 LabelNode Order : 3</text>
</g>
<!-- node0&#45;&gt;node5 -->
<g id="edge15" class="edge">
<title>node0&#45;&gt;node5</title>
<path fill="none" stroke="red" d="M767.58,-729.99C742.95,-720.14 712.93,-707.66 688.62,-697.17"/>
<polygon fill="red" stroke="red" points="689.83,-693.88 679.27,-693.11 687.05,-700.31 689.83,-693.88"/>
</g>
<!-- node4 -->
<g id="node7" class="node">
<title>node4</title>
<polygon fill="lightgrey" stroke="black" points="1574.16,-693 1308.16,-693 1308.16,-657 1574.16,-657 1574.16,-693"/>
<text text-anchor="middle" x="1441.16" y="-671.3" font-family="Times,serif" font-size="14.00">#4 this : FieldAccessTest Order : 4</text>
</g>
<!-- node0&#45;&gt;node4 -->
<g id="edge13" class="edge">
<title>node0&#45;&gt;node4</title>
<path fill="none" stroke="red" d="M894.41,-729.97C1066.97,-709.66 1113.06,-736.79 1285.16,-712 1311.22,-708.25 1339.4,-701.92 1364.59,-695.6"/>
<polygon fill="red" stroke="red" points="1365.62,-698.95 1374.45,-693.09 1363.89,-692.17 1365.62,-698.95"/>
</g>
<!-- node7 -->
<g id="node8" class="node">
<title>node7</title>
<polygon fill="lightgreen" stroke="black" points="1214.34,-667.54 1214.34,-682.46 1080.09,-693 890.23,-693 755.98,-682.46 755.98,-667.54 890.23,-657 1080.09,-657 1214.34,-667.54"/>
<text text-anchor="middle" x="985.16" y="-671.3" font-family="Times,serif" font-size="14.00">#7 Class FieldAccessTest$Source Order : 1</text>
</g>
<!-- node0&#45;&gt;node7 -->
<g id="edge19" class="edge">
<title>node0&#45;&gt;node7</title>
<path fill="none" stroke="black" stroke-dasharray="1,5" d="M849.26,-729.99C872.14,-720.06 902.42,-707.43 928.62,-696.89"/>
<polygon fill="black" stroke="black" points="930.09,-700.08 938.07,-693.11 927.49,-693.58 930.09,-700.08"/>
</g>
<!-- node1&#45;&gt;node0 -->
<g id="edge1" class="edge">
<title>node1&#45;&gt;node0</title>
<path fill="none" stroke="green" stroke-width="2" d="M557.09,-604.21C395.27,-607.35 61.55,-618.43 26.16,-657 15.34,-668.79 15.24,-681.31 26.16,-693 72.93,-743.05 522.19,-748.01 720.71,-747.67"/>
<polygon fill="green" stroke="green" stroke-width="2" points="720.84,-751.17 730.84,-747.64 720.83,-744.17 720.84,-751.17"/>
</g>
<!-- node2 -->
<g id="node5" class="node">
<title>node2</title>
<polygon fill="lightgrey" stroke="black" points="947.66,-474 628.66,-474 628.66,-438 947.66,-438 947.66,-474"/>
<text text-anchor="middle" x="788.16" y="-452.3" font-family="Times,serif" font-size="14.00">#2 Invoke special &lt;init&gt; : ()void Order : 7</text>
</g>
<!-- node1&#45;&gt;node2 -->
<g id="edge7" class="edge">
<title>node1&#45;&gt;node2</title>
<path fill="none" stroke="red" d="M690.04,-583.93C709.13,-575.47 730.21,-563.45 745.16,-547 761.16,-529.4 769.88,-503.53 776.02,-484.04"/>
<polygon fill="red" stroke="red" points="779.44,-484.82 779.1,-474.23 772.76,-482.72 779.44,-484.82"/>
</g>
<!-- node3 -->
<g id="node6" class="node">
<title>node3</title>
<polygon fill="orange" stroke="black" points="744.86,-521.54 744.86,-536.46 685.87,-547 602.45,-547 543.46,-536.46 543.46,-521.54 602.45,-511 685.87,-511 744.86,-521.54"/>
<text text-anchor="middle" x="644.16" y="-525.3" font-family="Times,serif" font-size="14.00">#3 New Order : 6</text>
</g>
<!-- node1&#45;&gt;node3 -->
<g id="edge10" class="edge">
<title>node1&#45;&gt;node3</title>
<path fill="none" stroke="black" d="M632.4,-583.81C630.72,-575.79 630.26,-566.05 631,-557.07"/>
<polygon fill="black" stroke="black" points="634.49,-557.42 632.44,-547.03 627.56,-556.43 634.49,-557.42"/>
<text text-anchor="middle" x="638.24" y="-562.47" font-family="Times,serif" font-size="14.00">*0</text>
</g>
<!-- node1&#45;&gt;node3 -->
<g id="edge11" class="edge">
<title>node1&#45;&gt;node3</title>
<path fill="none" stroke="black" d="M655.92,-583.81C657.6,-575.79 658.06,-566.05 657.32,-557.07"/>
<polygon fill="black" stroke="black" points="660.76,-556.43 655.88,-547.03 653.83,-557.42 660.76,-556.43"/>
</g>
<!-- node6&#45;&gt;node0 -->
<g id="edge16" class="edge">
<title>node6&#45;&gt;node0</title>
<path fill="none" stroke="green" stroke-width="2" d="M402.92,-691.67C499.95,-704.35 632.82,-721.99 720.99,-733.92"/>
<polygon fill="green" stroke="green" stroke-width="2" points="720.6,-737.4 730.98,-735.28 721.54,-730.47 720.6,-737.4"/>
</g>
<!-- node6&#45;&gt;node1 -->
<g id="edge2" class="edge">
<title>node6&#45;&gt;node1</title>
<path fill="none" stroke="black" d="M366.59,-656.99C421,-646.41 491.06,-632.78 547.18,-621.86"/>
<polygon fill="black" stroke="black" points="547.98,-625.27 557.13,-619.93 546.65,-618.4 547.98,-625.27"/>
<text text-anchor="middle" x="540.95" y="-627.99" font-family="Times,serif" font-size="14.00">*0</text>
</g>
<!-- node5&#45;&gt;node0 -->
<g id="edge14" class="edge">
<title>node5&#45;&gt;node0</title>
<path fill="none" stroke="green" stroke-width="2" d="M691.01,-693.11C715.68,-702.98 745.7,-715.47 769.97,-725.94"/>
<polygon fill="green" stroke="green" stroke-width="2" points="768.73,-729.22 779.3,-729.99 771.52,-722.8 768.73,-729.22"/>
</g>
<!-- node5&#45;&gt;node1 -->
<g id="edge3" class="edge">
<title>node5&#45;&gt;node1</title>
<path fill="none" stroke="red" d="M644.16,-656.81C644.16,-648.79 644.16,-639.05 644.16,-630.07"/>
<polygon fill="red" stroke="red" points="647.66,-630.03 644.16,-620.03 640.66,-630.03 647.66,-630.03"/>
</g>
<!-- node2&#45;&gt;node1 -->
<g id="edge5" class="edge">
<title>node2&#45;&gt;node1</title>
<path fill="none" stroke="green" stroke-width="2" d="M792.02,-474.23C790.78,-493.97 782.04,-526.24 763.16,-547 750.54,-560.88 733.57,-571.6 716.37,-579.7"/>
<polygon fill="green" stroke="green" stroke-width="2" points="714.54,-576.68 706.81,-583.93 717.37,-583.08 714.54,-576.68"/>
</g>
<!-- node8 -->
<g id="node9" class="node">
<title>node8</title>
<polygon fill="lightgrey" stroke="black" points="1006.16,-401 832.16,-401 832.16,-365 1006.16,-365 1006.16,-401"/>
<text text-anchor="middle" x="919.16" y="-379.3" font-family="Times,serif" font-size="14.00">#8 ClassInit Order : 8</text>
</g>
<!-- node2&#45;&gt;node8 -->
<g id="edge22" class="edge">
<title>node2&#45;&gt;node8</title>
<path fill="none" stroke="red" d="M813.68,-437.99C830.51,-428.32 852.91,-416.1 872.79,-405.73"/>
<polygon fill="red" stroke="red" points="874.44,-408.82 881.71,-401.11 871.22,-402.6 874.44,-408.82"/>
</g>
<!-- node2&#45;&gt;node8 -->
<g id="edge23" class="edge">
<title>node2&#45;&gt;node8</title>
<path fill="none" stroke="black" d="M825.4,-437.99C843.94,-428.49 866.15,-416.54 884.35,-406.29"/>
<polygon fill="black" stroke="black" points="886.49,-409.1 893.45,-401.11 883.03,-403.01 886.49,-409.1"/>
</g>
<!-- node3&#45;&gt;node1 -->
<g id="edge9" class="edge">
<title>node3&#45;&gt;node1</title>
<path fill="none" stroke="green" stroke-width="2" d="M644.16,-547.03C644.16,-555.03 644.16,-564.77 644.16,-573.75"/>
<polygon fill="green" stroke="green" stroke-width="2" points="640.66,-573.81 644.16,-583.81 647.66,-573.81 640.66,-573.81"/>
</g>
<!-- node3&#45;&gt;node2 -->
<g id="edge6" class="edge">
<title>node3&#45;&gt;node2</title>
<path fill="none" stroke="black" d="M672.79,-510.99C691.56,-501.23 716.48,-488.88 738.4,-478.45"/>
<polygon fill="black" stroke="black" points="740.03,-481.55 747.58,-474.11 737.04,-475.22 740.03,-481.55"/>
<text text-anchor="middle" x="734.8" y="-485.8" font-family="Times,serif" font-size="14.00">*0</text>
</g>
<!-- node3&#45;&gt;node2 -->
<g id="edge8" class="edge">
<title>node3&#45;&gt;node2</title>
<path fill="none" stroke="black" d="M684.51,-510.99C705.16,-501.32 730.09,-489.1 750.36,-478.73"/>
<polygon fill="black" stroke="black" points="752.04,-481.81 759.32,-474.11 748.83,-475.58 752.04,-481.81"/>
</g>
<!-- node12 -->
<g id="node13" class="node">
<title>node12</title>
<polygon fill="lightgrey" stroke="black" points="1174.16,-109 824.16,-109 824.16,-73 1174.16,-73 1174.16,-109"/>
<text text-anchor="middle" x="999.16" y="-87.3" font-family="Times,serif" font-size="14.00">#12 PutField : double_field : double Order : 12</text>
</g>
<!-- node3&#45;&gt;node12 -->
<g id="edge35" class="edge">
<title>node3&#45;&gt;node12</title>
<path fill="none" stroke="black" d="M626.01,-510.83C613.89,-497.46 600.16,-477.74 600.16,-457 600.16,-457 600.16,-457 600.16,-163 600.16,-139.4 709.76,-121.03 814.08,-108.9"/>
<polygon fill="black" stroke="black" points="814.62,-112.36 824.15,-107.74 813.82,-105.41 814.62,-112.36"/>
<text text-anchor="middle" x="807.11" y="-114.51" font-family="Times,serif" font-size="14.00">*0</text>
</g>
<!-- node4&#45;&gt;node0 -->
<g id="edge12" class="edge">
<title>node4&#45;&gt;node0</title>
<path fill="none" stroke="green" stroke-width="2" d="M1390.88,-693.09C1364.92,-700.19 1332.68,-707.75 1303.16,-712 1130.98,-736.81 1084.92,-709.63 912.16,-730 910.65,-730.18 909.12,-730.37 907.58,-730.57"/>
<polygon fill="green" stroke="green" stroke-width="2" points="906.74,-727.15 897.32,-732.01 907.71,-734.08 906.74,-727.15"/>
</g>
<!-- node7&#45;&gt;node0 -->
<g id="edge18" class="edge">
<title>node7&#45;&gt;node0</title>
<path fill="none" stroke="green" stroke-width="2" d="M949.81,-693.11C926.88,-703.07 896.59,-715.69 870.41,-726.22"/>
<polygon fill="green" stroke="green" stroke-width="2" points="868.96,-723.03 860.98,-729.99 871.56,-729.53 868.96,-723.03"/>
</g>
<!-- node7&#45;&gt;node8 -->
<g id="edge21" class="edge">
<title>node7&#45;&gt;node8</title>
<path fill="none" stroke="black" d="M984.4,-656.79C983.84,-642.41 983.16,-621.37 983.16,-603 983.16,-603 983.16,-603 983.16,-455 983.16,-435.82 970.11,-419.48 955.8,-407.33"/>
<polygon fill="black" stroke="black" points="957.81,-404.46 947.79,-401.02 953.48,-409.96 957.81,-404.46"/>
<text text-anchor="middle" x="967.26" y="-401.9" font-family="Times,serif" font-size="14.00">*0</text>
</g>
<!-- node8&#45;&gt;node0 -->
<g id="edge20" class="edge">
<title>node8&#45;&gt;node0</title>
<path fill="none" stroke="green" stroke-width="2" d="M1006.57,-386.26C1102.23,-391.17 1242.16,-406.63 1242.16,-455 1242.16,-676 1242.16,-676 1242.16,-676 1242.16,-749.38 998.26,-720.87 907.54,-729.66"/>
<polygon fill="green" stroke="green" stroke-width="2" points="907.01,-726.2 897.51,-730.89 907.86,-733.15 907.01,-726.2"/>
</g>
<!-- node9 -->
<g id="node10" class="node">
<title>node9</title>
<polygon fill="lightgrey" stroke="black" points="962.16,-255 634.16,-255 634.16,-219 962.16,-219 962.16,-255"/>
<text text-anchor="middle" x="798.16" y="-233.3" font-family="Times,serif" font-size="14.00">#9 Invoke special &lt;init&gt; : ()void Order : 10</text>
</g>
<!-- node8&#45;&gt;node9 -->
<g id="edge26" class="edge">
<title>node8&#45;&gt;node9</title>
<path fill="none" stroke="red" d="M843.17,-364.87C824.02,-356.78 805.68,-345.01 794.16,-328 781.79,-309.74 781.53,-284.32 785.29,-265.15"/>
<polygon fill="red" stroke="red" points="788.74,-265.77 787.74,-255.22 781.94,-264.09 788.74,-265.77"/>
</g>
<!-- node10 -->
<g id="node11" class="node">
<title>node10</title>
<polygon fill="orange" stroke="black" points="1026.02,-302.54 1026.02,-317.46 963.42,-328 874.9,-328 812.3,-317.46 812.3,-302.54 874.9,-292 963.42,-292 1026.02,-302.54"/>
<text text-anchor="middle" x="919.16" y="-306.3" font-family="Times,serif" font-size="14.00">#10 New Order : 9</text>
</g>
<!-- node8&#45;&gt;node10 -->
<g id="edge29" class="edge">
<title>node8&#45;&gt;node10</title>
<path fill="none" stroke="black" d="M907.4,-364.81C905.72,-356.79 905.26,-347.05 906,-338.07"/>
<polygon fill="black" stroke="black" points="909.49,-338.42 907.44,-328.03 902.56,-337.43 909.49,-338.42"/>
<text text-anchor="middle" x="913.24" y="-343.47" font-family="Times,serif" font-size="14.00">*0</text>
</g>
<!-- node8&#45;&gt;node10 -->
<g id="edge30" class="edge">
<title>node8&#45;&gt;node10</title>
<path fill="none" stroke="black" d="M930.92,-364.81C932.6,-356.79 933.06,-347.05 932.32,-338.07"/>
<polygon fill="black" stroke="black" points="935.76,-337.43 930.88,-328.03 928.83,-338.42 935.76,-337.43"/>
</g>
<!-- node9&#45;&gt;node8 -->
<g id="edge24" class="edge">
<title>node9&#45;&gt;node8</title>
<path fill="none" stroke="green" stroke-width="2" d="M800.74,-255.22C799.84,-274.65 797.51,-306.36 812.16,-328 821.7,-342.09 835.92,-352.58 850.92,-360.37"/>
<polygon fill="green" stroke="green" stroke-width="2" points="849.79,-363.71 860.33,-364.87 852.82,-357.4 849.79,-363.71"/>
</g>
<!-- node11 -->
<g id="node12" class="node">
<title>node11</title>
<polygon fill="orange" stroke="black" points="1246.01,-156.54 1246.01,-171.46 1101.41,-182 896.91,-182 752.31,-171.46 752.31,-156.54 896.91,-146 1101.41,-146 1246.01,-156.54"/>
<text text-anchor="middle" x="999.16" y="-160.3" font-family="Times,serif" font-size="14.00">#11 GetField : double_field : double Order : 11</text>
</g>
<!-- node9&#45;&gt;node11 -->
<g id="edge33" class="edge">
<title>node9&#45;&gt;node11</title>
<path fill="none" stroke="black" d="M846.3,-218.99C874.81,-208.92 911.11,-196.1 941.18,-185.48"/>
<polygon fill="black" stroke="black" points="942.45,-188.74 950.71,-182.11 940.12,-182.14 942.45,-188.74"/>
</g>
<!-- node9&#45;&gt;node12 -->
<g id="edge38" class="edge">
<title>node9&#45;&gt;node12</title>
<path fill="none" stroke="red" d="M775.04,-218.86C752.48,-200.07 724.13,-169.47 743.16,-146 755.88,-130.32 790.65,-119.01 830.62,-110.94"/>
<polygon fill="red" stroke="red" points="831.45,-114.34 840.6,-109.01 830.11,-107.47 831.45,-114.34"/>
</g>
<!-- node10&#45;&gt;node8 -->
<g id="edge28" class="edge">
<title>node10&#45;&gt;node8</title>
<path fill="none" stroke="green" stroke-width="2" d="M919.16,-328.03C919.16,-336.03 919.16,-345.77 919.16,-354.75"/>
<polygon fill="green" stroke="green" stroke-width="2" points="915.66,-354.81 919.16,-364.81 922.66,-354.81 915.66,-354.81"/>
</g>
<!-- node10&#45;&gt;node9 -->
<g id="edge25" class="edge">
<title>node10&#45;&gt;node9</title>
<path fill="none" stroke="black" d="M884.32,-291.99C867.27,-282.58 846.97,-270.76 830.3,-260.57"/>
<polygon fill="black" stroke="black" points="831.8,-257.39 821.45,-255.11 828.12,-263.35 831.8,-257.39"/>
<text text-anchor="middle" x="841.32" y="-253.75" font-family="Times,serif" font-size="14.00">*0</text>
</g>
<!-- node10&#45;&gt;node9 -->
<g id="edge27" class="edge">
<title>node10&#45;&gt;node9</title>
<path fill="none" stroke="black" d="M896.04,-291.99C880.71,-282.4 860.26,-270.32 841.97,-260.01"/>
<polygon fill="black" stroke="black" points="843.63,-256.93 833.2,-255.11 840.22,-263.04 843.63,-256.93"/>
</g>
<!-- node10&#45;&gt;node11 -->
<g id="edge32" class="edge">
<title>node10&#45;&gt;node11</title>
<path fill="none" stroke="black" d="M939.83,-291.81C950.49,-281.99 962.94,-268.89 971.16,-255 982.7,-235.48 989.95,-210.72 994.18,-192.12"/>
<polygon fill="black" stroke="black" points="997.62,-192.73 996.27,-182.22 990.78,-191.28 997.62,-192.73"/>
<text text-anchor="middle" x="1000.79" y="-198.01" font-family="Times,serif" font-size="14.00">*0</text>
</g>
<!-- node11&#45;&gt;node8 -->
<g id="edge31" class="edge">
<title>node11&#45;&gt;node8</title>
<path fill="none" stroke="green" stroke-width="2" d="M1010.7,-182.16C1030.23,-213.56 1064.92,-281.33 1035.16,-328 1026.03,-342.33 1011.99,-352.91 996.81,-360.72"/>
<polygon fill="green" stroke="green" stroke-width="2" points="995.3,-357.56 987.76,-364.99 998.3,-363.88 995.3,-357.56"/>
</g>
<!-- node11&#45;&gt;node12 -->
<g id="edge36" class="edge">
<title>node11&#45;&gt;node12</title>
<path fill="none" stroke="black" d="M993.28,-145.81C992.44,-137.79 992.21,-128.05 992.58,-119.07"/>
<polygon fill="black" stroke="black" points="996.08,-119.25 993.3,-109.03 989.1,-118.75 996.08,-119.25"/>
<text text-anchor="middle" x="1000.44" y="-124.01" font-family="Times,serif" font-size="14.00">*1</text>
</g>
<!-- node11&#45;&gt;node12 -->
<g id="edge37" class="edge">
<title>node11&#45;&gt;node12</title>
<path fill="none" stroke="black" d="M1005.04,-145.81C1005.88,-137.79 1006.11,-128.05 1005.74,-119.07"/>
<polygon fill="black" stroke="black" points="1009.22,-118.75 1005.02,-109.03 1002.24,-119.25 1009.22,-118.75"/>
</g>
<!-- node12&#45;&gt;node0 -->
<g id="edge34" class="edge">
<title>node12&#45;&gt;node0</title>
<path fill="none" stroke="green" stroke-width="2" d="M1174.33,-108.87C1231.3,-119.34 1280.16,-136.14 1280.16,-163 1280.16,-676 1280.16,-676 1280.16,-676 1280.16,-705.96 1251.7,-702.87 1223.16,-712 1158.24,-732.78 989.24,-722.3 907.89,-729.64"/>
<polygon fill="green" stroke="green" stroke-width="2" points="907.06,-726.21 897.49,-730.74 907.8,-733.17 907.06,-726.21"/>
</g>
<!-- node13 -->
<g id="node14" class="node">
<title>node13</title>
<polygon fill="lightgrey" stroke="black" points="1088.66,-36 909.66,-36 909.66,0 1088.66,0 1088.66,-36"/>
<text text-anchor="middle" x="999.16" y="-14.3" font-family="Times,serif" font-size="14.00">#13 Return Order : 13</text>
</g>
<!-- node12&#45;&gt;node13 -->
<g id="edge40" class="edge">
<title>node12&#45;&gt;node13</title>
<path fill="none" stroke="red" d="M987.4,-72.81C985.72,-64.79 985.26,-55.05 986,-46.07"/>
<polygon fill="red" stroke="red" points="989.49,-46.42 987.44,-36.03 982.56,-45.43 989.49,-46.42"/>
</g>
<!-- node12&#45;&gt;node13 -->
<g id="edge41" class="edge">
<title>node12&#45;&gt;node13</title>
<path fill="none" stroke="black" d="M1010.92,-72.81C1012.6,-64.79 1013.06,-55.05 1012.32,-46.07"/>
<polygon fill="black" stroke="black" points="1015.76,-45.43 1010.88,-36.03 1008.83,-46.42 1015.76,-45.43"/>
</g>
<!-- node13&#45;&gt;node12 -->
<g id="edge39" class="edge">
<title>node13&#45;&gt;node12</title>
<path fill="none" stroke="green" stroke-width="2" d="M999.16,-36.03C999.16,-44.03 999.16,-53.77 999.16,-62.75"/>
<polygon fill="green" stroke="green" stroke-width="2" points="995.66,-62.81 999.16,-72.81 1002.66,-62.81 995.66,-62.81"/>
</g>
<!-- c0 -->
<!-- c1 -->
<!-- c0&#45;&gt;c1 -->
<g id="edge42" class="edge">
<title>c0&#45;&gt;c1</title>
<path fill="none" stroke="red" d="M1629.05,-748C1640.27,-748 1698.4,-748 1724.02,-748"/>
<polygon fill="red" stroke="red" points="1724.22,-751.5 1734.22,-748 1724.22,-744.5 1724.22,-751.5"/>
<text text-anchor="middle" x="1681.66" y="-754.8" font-family="Times,serif" font-size="14.00">Control flow</text>
</g>
<!-- c2 -->
<!-- c3 -->
<!-- c2&#45;&gt;c3 -->
<g id="edge43" class="edge">
<title>c2&#45;&gt;c3</title>
<path fill="none" stroke="red" stroke-dasharray="5,2" d="M1422.24,-748C1439.21,-748 1555.37,-748 1593.24,-748"/>
<polygon fill="red" stroke="red" points="1593.33,-751.5 1603.33,-748 1593.33,-744.5 1593.33,-751.5"/>
<text text-anchor="middle" x="1512.66" y="-754.8" font-family="Times,serif" font-size="14.00">Control flow back edge</text>
</g>
<!-- d0 -->
<!-- d1 -->
<!-- d0&#45;&gt;d1 -->
<g id="edge44" class="edge">
<title>d0&#45;&gt;d1</title>
<path fill="none" stroke="black" d="M1311.02,-748C1320.57,-748 1364.47,-748 1386.08,-748"/>
<polygon fill="black" stroke="black" points="1386.31,-751.5 1396.31,-748 1386.31,-744.5 1386.31,-751.5"/>
<text text-anchor="middle" x="1353.66" y="-754.8" font-family="Times,serif" font-size="14.00">Data flow</text>
</g>
<!-- d2 -->
<!-- d3 -->
<!-- d2&#45;&gt;d3 -->
<g id="edge45" class="edge">
<title>d2&#45;&gt;d3</title>
<path fill="none" stroke="black" stroke-dasharray="1,5" d="M1184.97,-748C1195.62,-748 1250.62,-748 1275.23,-748"/>
<polygon fill="black" stroke="black" points="1275.31,-751.5 1285.31,-748 1275.31,-744.5 1275.31,-751.5"/>
<text text-anchor="middle" x="1235.16" y="-754.8" font-family="Times,serif" font-size="14.00">Declaration</text>
</g>
<!-- d4 -->
<!-- d5 -->
<!-- d4&#45;&gt;d5 -->
<g id="edge46" class="edge">
<title>d4&#45;&gt;d5</title>
<path fill="none" stroke="blue" d="M1042.26,-748C1054.88,-748 1121.04,-748 1148.84,-748"/>
<polygon fill="blue" stroke="blue" points="1149,-751.5 1159,-748 1149,-744.5 1149,-751.5"/>
<text text-anchor="middle" x="1100.66" y="-754.8" font-family="Times,serif" font-size="14.00">PHI Data flow</text>
</g>
<!-- d6 -->
<!-- d7 -->
<!-- d6&#45;&gt;d7 -->
<g id="edge47" class="edge">
<title>d6&#45;&gt;d7</title>
<path fill="none" stroke="green" d="M919.27,-748C930.31,-748 981.83,-748 1005.82,-748"/>
<polygon fill="green" stroke="green" points="1006.06,-751.5 1016.06,-748 1006.06,-744.5 1006.06,-751.5"/>
<text text-anchor="middle" x="967.66" y="-754.8" font-family="Times,serif" font-size="14.00">Dominance</text>
</g>
</g>
</svg>
