<?xml version="1.0" encoding="UTF-8" standalone="no"?>
<!DOCTYPE svg PUBLIC "-//W3C//DTD SVG 1.1//EN"
 "http://www.w3.org/Graphics/SVG/1.1/DTD/svg11.dtd">
<!-- Generated by graphviz version 2.43.0 (0)
 -->
<!-- Title: %3 Pages: 1 -->
<svg width="1035pt" height="224pt"
 viewBox="0.00 0.00 1035.00 224.00" xmlns="http://www.w3.org/2000/svg" xmlns:xlink="http://www.w3.org/1999/xlink">
<g id="graph0" class="graph" transform="scale(1 1) rotate(0) translate(4 220)">
<title>%3</title>
<polygon fill="white" stroke="transparent" points="-4,4 -4,-220 1031,-220 1031,4 -4,4"/>
<g id="clust1" class="cluster">
<title>cluster_0</title>
<polygon fill="none" stroke="lightgray" points="8,-65 8,-208 158,-208 158,-65 8,-65"/>
</g>
<g id="clust2" class="cluster">
<title>cluster_000</title>
<polygon fill="none" stroke="black" points="166,-163.2 166,-205.8 1019,-205.8 1019,-163.2 166,-163.2"/>
<text text-anchor="middle" x="592.5" y="-190.6" font-family="Times,serif" font-size="14.00">Legend</text>
</g>
<!-- node0 -->
<g id="node1" class="node">
<title>node0</title>
<polygon fill="lightgrey" stroke="transparent" points="149.5,-200 16.5,-200 16.5,-146 149.5,-146 149.5,-200"/>
<polygon fill="none" stroke="black" points="17,-173 17,-200 150,-200 150,-173 17,-173"/>
<text text-anchor="start" x="43" y="-182.8" font-family="Times,serif" font-size="14.00">#0 Method</text>
<polygon fill="yellow" stroke="transparent" points="17,-146 17,-173 150,-173 150,-146 17,-146"/>
<polygon fill="none" stroke="black" points="17,-146 17,-173 150,-173 150,-146 17,-146"/>
<text text-anchor="start" x="23" y="-155.8" font-family="Times,serif" font-size="14.00">this : ReturnTest</text>
</g>
<!-- node4 -->
<g id="node2" class="node">
<title>node4</title>
<polygon fill="lightgrey" stroke="black" points="204,-36 40,-36 40,0 204,0 204,-36"/>
<text text-anchor="middle" x="122" y="-14.3" font-family="Times,serif" font-size="14.00">#4 ReturnValue : int</text>
</g>
<!-- node0&#45;&gt;node4 -->
<g id="edge3" class="edge">
<title>node0&#45;&gt;node4</title>
<path fill="none" stroke="green" d="M119.3,-145.73C130.33,-135.63 141.1,-123.09 147,-109 154.55,-90.96 151.82,-83.95 147,-65 145.25,-58.13 142.26,-51.19 138.93,-44.84"/>
<polygon fill="green" stroke="green" points="141.91,-43.01 133.92,-36.06 135.83,-46.48 141.91,-43.01"/>
</g>
<!-- node3 -->
<g id="node3" class="node">
<title>node3</title>
<polygon fill="lightgreen" stroke="black" points="138.19,-83.54 138.19,-98.46 103.52,-109 54.48,-109 19.81,-98.46 19.81,-83.54 54.48,-73 103.52,-73 138.19,-83.54"/>
<text text-anchor="middle" x="79" y="-87.3" font-family="Times,serif" font-size="14.00">#3 int 10</text>
</g>
<!-- node0&#45;&gt;node3 -->
<g id="edge5" class="edge">
<title>node0&#45;&gt;node3</title>
<path fill="none" stroke="black" stroke-dasharray="1,5" d="M81.69,-145.81C81.27,-137.35 80.8,-127.95 80.37,-119.4"/>
<polygon fill="black" stroke="black" points="83.85,-118.99 79.86,-109.17 76.86,-119.34 83.85,-118.99"/>
</g>
<!-- node2 -->
<g id="node4" class="node">
<title>node2</title>
<polygon fill="lightgrey" stroke="black" points="313.5,-109 194.5,-109 194.5,-73 313.5,-73 313.5,-109"/>
<text text-anchor="middle" x="254" y="-87.3" font-family="Times,serif" font-size="14.00">#2 LabelNode</text>
</g>
<!-- node0&#45;&gt;node2 -->
<g id="edge4" class="edge">
<title>node0&#45;&gt;node2</title>
<path fill="none" stroke="red" d="M138.99,-145.81C161.48,-135.29 187.06,-123.31 208.39,-113.34"/>
<polygon fill="red" stroke="red" points="209.97,-116.46 217.55,-109.05 207.01,-110.12 209.97,-116.46"/>
</g>
<!-- node3&#45;&gt;node4 -->
<g id="edge1" class="edge">
<title>node3&#45;&gt;node4</title>
<path fill="none" stroke="black" d="M89.41,-72.81C94.53,-64.35 100.81,-53.98 106.49,-44.61"/>
<polygon fill="black" stroke="black" points="109.5,-46.4 111.69,-36.03 103.51,-42.77 109.5,-46.4"/>
<text text-anchor="middle" x="109.53" y="-52.21" font-family="Times,serif" font-size="14.00">*0</text>
</g>
<!-- node2&#45;&gt;node4 -->
<g id="edge2" class="edge">
<title>node2&#45;&gt;node4</title>
<path fill="none" stroke="red" d="M222.38,-72.99C204.47,-63.36 181.88,-51.21 162.66,-40.87"/>
<polygon fill="red" stroke="red" points="164.28,-37.77 153.82,-36.11 160.97,-43.93 164.28,-37.77"/>
</g>
<!-- c0 -->
<!-- c1 -->
<!-- c0&#45;&gt;c1 -->
<g id="edge6" class="edge">
<title>c0&#45;&gt;c1</title>
<path fill="none" stroke="red" d="M901.89,-173C913.11,-173 971.24,-173 996.86,-173"/>
<polygon fill="red" stroke="red" points="997.06,-176.5 1007.06,-173 997.06,-169.5 997.06,-176.5"/>
<text text-anchor="middle" x="954.5" y="-179.8" font-family="Times,serif" font-size="14.00">Control flow</text>
</g>
<!-- c2 -->
<!-- c3 -->
<!-- c2&#45;&gt;c3 -->
<g id="edge7" class="edge">
<title>c2&#45;&gt;c3</title>
<path fill="none" stroke="red" stroke-dasharray="5,2" d="M695.08,-173C712.05,-173 828.21,-173 866.08,-173"/>
<polygon fill="red" stroke="red" points="866.17,-176.5 876.17,-173 866.17,-169.5 866.17,-176.5"/>
<text text-anchor="middle" x="785.5" y="-179.8" font-family="Times,serif" font-size="14.00">Control flow back edge</text>
</g>
<!-- d0 -->
<!-- d1 -->
<!-- d0&#45;&gt;d1 -->
<g id="edge8" class="edge">
<title>d0&#45;&gt;d1</title>
<path fill="none" stroke="black" d="M583.86,-173C593.41,-173 637.31,-173 658.92,-173"/>
<polygon fill="black" stroke="black" points="659.15,-176.5 669.15,-173 659.15,-169.5 659.15,-176.5"/>
<text text-anchor="middle" x="626.5" y="-179.8" font-family="Times,serif" font-size="14.00">Data flow</text>
</g>
<!-- d2 -->
<!-- d3 -->
<!-- d2&#45;&gt;d3 -->
<g id="edge9" class="edge">
<title>d2&#45;&gt;d3</title>
<path fill="none" stroke="black" stroke-dasharray="1,5" d="M457.81,-173C468.46,-173 523.46,-173 548.08,-173"/>
<polygon fill="black" stroke="black" points="548.15,-176.5 558.15,-173 548.15,-169.5 548.15,-176.5"/>
<text text-anchor="middle" x="508" y="-179.8" font-family="Times,serif" font-size="14.00">Declaration</text>
</g>
<!-- d4 -->
<!-- d5 -->
<!-- d4&#45;&gt;d5 -->
<g id="edge10" class="edge">
<title>d4&#45;&gt;d5</title>
<path fill="none" stroke="blue" d="M315.1,-173C327.72,-173 393.88,-173 421.68,-173"/>
<polygon fill="blue" stroke="blue" points="421.84,-176.5 431.84,-173 421.84,-169.5 421.84,-176.5"/>
<text text-anchor="middle" x="373.5" y="-179.8" font-family="Times,serif" font-size="14.00">PHI Data flow</text>
</g>
<!-- d6 -->
<!-- d7 -->
<!-- d6&#45;&gt;d7 -->
<g id="edge11" class="edge">
<title>d6&#45;&gt;d7</title>
<path fill="none" stroke="green" d="M178,-173C189.94,-173 252.3,-173 278.93,-173"/>
<polygon fill="green" stroke="green" points="278.95,-176.5 288.95,-173 278.95,-169.5 278.95,-176.5"/>
<text text-anchor="middle" x="233.5" y="-179.8" font-family="Times,serif" font-size="14.00">Memory flow</text>
</g>
</g>
</svg>
