<?xml version="1.0" encoding="UTF-8" standalone="no"?>
<!DOCTYPE svg PUBLIC "-//W3C//DTD SVG 1.1//EN"
 "http://www.w3.org/Graphics/SVG/1.1/DTD/svg11.dtd">
<!-- Generated by graphviz version 2.43.0 (0)
 -->
<!-- Title: %3 Pages: 1 -->
<svg width="1249pt" height="2330pt"
 viewBox="0.00 0.00 1248.50 2329.80" xmlns="http://www.w3.org/2000/svg" xmlns:xlink="http://www.w3.org/1999/xlink">
<g id="graph0" class="graph" transform="scale(1 1) rotate(0) translate(4 2325.8)">
<title>%3</title>
<polygon fill="white" stroke="transparent" points="-4,4 -4,-2325.8 1244.5,-2325.8 1244.5,4 -4,4"/>
<g id="clust1" class="cluster">
<title>cluster_000</title>
<polygon fill="none" stroke="black" points="896.5,-2271.2 896.5,-2313.8 1232.5,-2313.8 1232.5,-2271.2 896.5,-2271.2"/>
<text text-anchor="middle" x="1064.5" y="-2298.6" font-family="Times,serif" font-size="14.00">Legend</text>
</g>
<!-- node0 -->
<g id="node1" class="node">
<title>node0</title>
<polygon fill="lightgrey" stroke="black" points="869,-2299 446,-2299 446,-2263 869,-2263 869,-2299"/>
<text text-anchor="middle" x="657.5" y="-2277.3" font-family="Times,serif" font-size="14.00">#0 LocalVariable[name=check, slot=0, type=Z] Order: 0</text>
</g>
<!-- node0&#45;&gt;node0 -->
<g id="edge1" class="edge">
<title>node0&#45;&gt;node0</title>
<path fill="none" stroke="fuchsia" d="M869.05,-2285.46C880.32,-2284.37 887,-2282.88 887,-2281 887,-2279.8 884.26,-2278.75 879.32,-2277.87"/>
<polygon fill="fuchsia" stroke="fuchsia" points="879.42,-2274.35 869.05,-2276.54 878.51,-2281.29 879.42,-2274.35"/>
</g>
<!-- node1 -->
<g id="node2" class="node">
<title>node1</title>
<polygon fill="lightgrey" stroke="black" points="850.5,-2226 464.5,-2226 464.5,-2190 850.5,-2190 850.5,-2226"/>
<text text-anchor="middle" x="657.5" y="-2204.3" font-family="Times,serif" font-size="14.00">#1 LocalVariable[name=a, slot=1, type=I] Order: 1</text>
</g>
<!-- node0&#45;&gt;node1 -->
<g id="edge2" class="edge">
<title>node0&#45;&gt;node1</title>
<path fill="none" stroke="red" d="M651.62,-2262.81C650.78,-2254.79 650.55,-2245.05 650.92,-2236.07"/>
<polygon fill="red" stroke="red" points="654.42,-2236.25 651.64,-2226.03 647.44,-2235.75 654.42,-2236.25"/>
</g>
<!-- node1&#45;&gt;node0 -->
<g id="edge3" class="edge">
<title>node1&#45;&gt;node0</title>
<path fill="none" stroke="fuchsia" d="M663.36,-2226.03C664.21,-2234.03 664.45,-2243.77 664.09,-2252.75"/>
<polygon fill="fuchsia" stroke="fuchsia" points="660.59,-2252.59 663.38,-2262.81 667.57,-2253.08 660.59,-2252.59"/>
</g>
<!-- node2 -->
<g id="node3" class="node">
<title>node2</title>
<polygon fill="lightgrey" stroke="black" points="851,-2153 464,-2153 464,-2117 851,-2117 851,-2153"/>
<text text-anchor="middle" x="657.5" y="-2131.3" font-family="Times,serif" font-size="14.00">#2 LocalVariable[name=b, slot=2, type=I] Order: 2</text>
</g>
<!-- node1&#45;&gt;node2 -->
<g id="edge4" class="edge">
<title>node1&#45;&gt;node2</title>
<path fill="none" stroke="red" d="M651.62,-2189.81C650.78,-2181.79 650.55,-2172.05 650.92,-2163.07"/>
<polygon fill="red" stroke="red" points="654.42,-2163.25 651.64,-2153.03 647.44,-2162.75 654.42,-2163.25"/>
</g>
<!-- node2&#45;&gt;node1 -->
<g id="edge5" class="edge">
<title>node2&#45;&gt;node1</title>
<path fill="none" stroke="fuchsia" d="M663.36,-2153.03C664.21,-2161.03 664.45,-2170.77 664.09,-2179.75"/>
<polygon fill="fuchsia" stroke="fuchsia" points="660.59,-2179.59 663.38,-2189.81 667.57,-2180.08 660.59,-2179.59"/>
</g>
<!-- node3 -->
<g id="node4" class="node">
<title>node3</title>
<polygon fill="lightgrey" stroke="black" points="853.5,-2080 461.5,-2080 461.5,-2044 853.5,-2044 853.5,-2080"/>
<text text-anchor="middle" x="657.5" y="-2058.3" font-family="Times,serif" font-size="14.00">#3 LocalVariable[name=x, slot=3, type=[I] Order: 3</text>
</g>
<!-- node2&#45;&gt;node3 -->
<g id="edge6" class="edge">
<title>node2&#45;&gt;node3</title>
<path fill="none" stroke="red" d="M651.62,-2116.81C650.78,-2108.79 650.55,-2099.05 650.92,-2090.07"/>
<polygon fill="red" stroke="red" points="654.42,-2090.25 651.64,-2080.03 647.44,-2089.75 654.42,-2090.25"/>
</g>
<!-- node3&#45;&gt;node2 -->
<g id="edge7" class="edge">
<title>node3&#45;&gt;node2</title>
<path fill="none" stroke="fuchsia" d="M663.36,-2080.03C664.21,-2088.03 664.45,-2097.77 664.09,-2106.75"/>
<polygon fill="fuchsia" stroke="fuchsia" points="660.59,-2106.59 663.38,-2116.81 667.57,-2107.08 660.59,-2106.59"/>
</g>
<!-- node4 -->
<g id="node5" class="node">
<title>node4</title>
<polygon fill="lightgrey" stroke="black" points="888,-2007 427,-2007 427,-1971 888,-1971 888,-2007"/>
<text text-anchor="middle" x="657.5" y="-1985.3" font-family="Times,serif" font-size="14.00">#4 Label[context=CodeModel[id=50720817], bci=0] Order: 4</text>
</g>
<!-- node3&#45;&gt;node4 -->
<g id="edge8" class="edge">
<title>node3&#45;&gt;node4</title>
<path fill="none" stroke="red" d="M651.62,-2043.81C650.78,-2035.79 650.55,-2026.05 650.92,-2017.07"/>
<polygon fill="red" stroke="red" points="654.42,-2017.25 651.64,-2007.03 647.44,-2016.75 654.42,-2017.25"/>
</g>
<!-- node4&#45;&gt;node3 -->
<g id="edge9" class="edge">
<title>node4&#45;&gt;node3</title>
<path fill="none" stroke="fuchsia" d="M663.36,-2007.03C664.21,-2015.03 664.45,-2024.77 664.09,-2033.75"/>
<polygon fill="fuchsia" stroke="fuchsia" points="660.59,-2033.59 663.38,-2043.81 667.57,-2034.08 660.59,-2033.59"/>
</g>
<!-- node5 -->
<g id="node6" class="node">
<title>node5</title>
<polygon fill="lightgrey" stroke="black" points="784.5,-1934 530.5,-1934 530.5,-1898 784.5,-1898 784.5,-1934"/>
<text text-anchor="middle" x="657.5" y="-1912.3" font-family="Times,serif" font-size="14.00">#5 LineNumber[line=9] Order: 5</text>
</g>
<!-- node4&#45;&gt;node5 -->
<g id="edge10" class="edge">
<title>node4&#45;&gt;node5</title>
<path fill="none" stroke="red" d="M651.62,-1970.81C650.78,-1962.79 650.55,-1953.05 650.92,-1944.07"/>
<polygon fill="red" stroke="red" points="654.42,-1944.25 651.64,-1934.03 647.44,-1943.75 654.42,-1944.25"/>
</g>
<!-- node5&#45;&gt;node4 -->
<g id="edge11" class="edge">
<title>node5&#45;&gt;node4</title>
<path fill="none" stroke="fuchsia" d="M663.36,-1934.03C664.21,-1942.03 664.45,-1951.77 664.09,-1960.75"/>
<polygon fill="fuchsia" stroke="fuchsia" points="660.59,-1960.59 663.38,-1970.81 667.57,-1961.08 660.59,-1960.59"/>
</g>
<!-- node6 -->
<g id="node7" class="node">
<title>node6</title>
<polygon fill="lightgrey" stroke="black" points="859.5,-1861 455.5,-1861 455.5,-1825 859.5,-1825 859.5,-1861"/>
<text text-anchor="middle" x="657.5" y="-1839.3" font-family="Times,serif" font-size="14.00">#6 ArgumentConstant[OP=BIPUSH, val=10] Order: 6</text>
</g>
<!-- node5&#45;&gt;node6 -->
<g id="edge12" class="edge">
<title>node5&#45;&gt;node6</title>
<path fill="none" stroke="red" d="M651.62,-1897.81C650.78,-1889.79 650.55,-1880.05 650.92,-1871.07"/>
<polygon fill="red" stroke="red" points="654.42,-1871.25 651.64,-1861.03 647.44,-1870.75 654.42,-1871.25"/>
</g>
<!-- node6&#45;&gt;node5 -->
<g id="edge13" class="edge">
<title>node6&#45;&gt;node5</title>
<path fill="none" stroke="fuchsia" d="M663.36,-1861.03C664.21,-1869.03 664.45,-1878.77 664.09,-1887.75"/>
<polygon fill="fuchsia" stroke="fuchsia" points="660.59,-1887.59 663.38,-1897.81 667.57,-1888.08 660.59,-1887.59"/>
</g>
<!-- node7 -->
<g id="node8" class="node">
<title>node7</title>
<polygon fill="lightgrey" stroke="black" points="883,-1788 432,-1788 432,-1752 883,-1752 883,-1788"/>
<text text-anchor="middle" x="657.5" y="-1766.3" font-family="Times,serif" font-size="14.00">#7 NewPrimitiveArray[OP=NEWARRAY, type=INT] Order: 7</text>
</g>
<!-- node6&#45;&gt;node7 -->
<g id="edge14" class="edge">
<title>node6&#45;&gt;node7</title>
<path fill="none" stroke="red" d="M651.62,-1824.81C650.78,-1816.79 650.55,-1807.05 650.92,-1798.07"/>
<polygon fill="red" stroke="red" points="654.42,-1798.25 651.64,-1788.03 647.44,-1797.75 654.42,-1798.25"/>
</g>
<!-- node7&#45;&gt;node6 -->
<g id="edge15" class="edge">
<title>node7&#45;&gt;node6</title>
<path fill="none" stroke="fuchsia" d="M663.36,-1788.03C664.21,-1796.03 664.45,-1805.77 664.09,-1814.75"/>
<polygon fill="fuchsia" stroke="fuchsia" points="660.59,-1814.59 663.38,-1824.81 667.57,-1815.08 660.59,-1814.59"/>
</g>
<!-- node8 -->
<g id="node9" class="node">
<title>node8</title>
<polygon fill="lightgrey" stroke="black" points="818.5,-1715 496.5,-1715 496.5,-1679 818.5,-1679 818.5,-1715"/>
<text text-anchor="middle" x="657.5" y="-1693.3" font-family="Times,serif" font-size="14.00">#8 Store[OP=ASTORE_3, slot=3] Order: 8</text>
</g>
<!-- node7&#45;&gt;node8 -->
<g id="edge16" class="edge">
<title>node7&#45;&gt;node8</title>
<path fill="none" stroke="red" d="M651.62,-1751.81C650.78,-1743.79 650.55,-1734.05 650.92,-1725.07"/>
<polygon fill="red" stroke="red" points="654.42,-1725.25 651.64,-1715.03 647.44,-1724.75 654.42,-1725.25"/>
</g>
<!-- node8&#45;&gt;node7 -->
<g id="edge17" class="edge">
<title>node8&#45;&gt;node7</title>
<path fill="none" stroke="fuchsia" d="M663.36,-1715.03C664.21,-1723.03 664.45,-1732.77 664.09,-1741.75"/>
<polygon fill="fuchsia" stroke="fuchsia" points="660.59,-1741.59 663.38,-1751.81 667.57,-1742.08 660.59,-1741.59"/>
</g>
<!-- node9 -->
<g id="node10" class="node">
<title>node9</title>
<polygon fill="lightgrey" stroke="black" points="888,-1642 427,-1642 427,-1606 888,-1606 888,-1642"/>
<text text-anchor="middle" x="657.5" y="-1620.3" font-family="Times,serif" font-size="14.00">#9 Label[context=CodeModel[id=50720817], bci=5] Order: 9</text>
</g>
<!-- node8&#45;&gt;node9 -->
<g id="edge18" class="edge">
<title>node8&#45;&gt;node9</title>
<path fill="none" stroke="red" d="M651.62,-1678.81C650.78,-1670.79 650.55,-1661.05 650.92,-1652.07"/>
<polygon fill="red" stroke="red" points="654.42,-1652.25 651.64,-1642.03 647.44,-1651.75 654.42,-1652.25"/>
</g>
<!-- node9&#45;&gt;node8 -->
<g id="edge19" class="edge">
<title>node9&#45;&gt;node8</title>
<path fill="none" stroke="fuchsia" d="M663.36,-1642.03C664.21,-1650.03 664.45,-1659.77 664.09,-1668.75"/>
<polygon fill="fuchsia" stroke="fuchsia" points="660.59,-1668.59 663.38,-1678.81 667.57,-1669.08 660.59,-1668.59"/>
</g>
<!-- node10 -->
<g id="node11" class="node">
<title>node10</title>
<polygon fill="lightgrey" stroke="black" points="798,-1569 517,-1569 517,-1533 798,-1533 798,-1569"/>
<text text-anchor="middle" x="657.5" y="-1547.3" font-family="Times,serif" font-size="14.00">#10 LineNumber[line=10] Order: 10</text>
</g>
<!-- node9&#45;&gt;node10 -->
<g id="edge20" class="edge">
<title>node9&#45;&gt;node10</title>
<path fill="none" stroke="red" d="M651.62,-1605.81C650.78,-1597.79 650.55,-1588.05 650.92,-1579.07"/>
<polygon fill="red" stroke="red" points="654.42,-1579.25 651.64,-1569.03 647.44,-1578.75 654.42,-1579.25"/>
</g>
<!-- node10&#45;&gt;node9 -->
<g id="edge21" class="edge">
<title>node10&#45;&gt;node9</title>
<path fill="none" stroke="fuchsia" d="M663.36,-1569.03C664.21,-1577.03 664.45,-1586.77 664.09,-1595.75"/>
<polygon fill="fuchsia" stroke="fuchsia" points="660.59,-1595.59 663.38,-1605.81 667.57,-1596.08 660.59,-1595.59"/>
</g>
<!-- node11 -->
<g id="node12" class="node">
<title>node11</title>
<polygon fill="lightgrey" stroke="black" points="820.5,-1496 494.5,-1496 494.5,-1460 820.5,-1460 820.5,-1496"/>
<text text-anchor="middle" x="657.5" y="-1474.3" font-family="Times,serif" font-size="14.00">#11 Load[OP=ALOAD_3, slot=3] Order: 11</text>
</g>
<!-- node10&#45;&gt;node11 -->
<g id="edge22" class="edge">
<title>node10&#45;&gt;node11</title>
<path fill="none" stroke="red" d="M651.62,-1532.81C650.78,-1524.79 650.55,-1515.05 650.92,-1506.07"/>
<polygon fill="red" stroke="red" points="654.42,-1506.25 651.64,-1496.03 647.44,-1505.75 654.42,-1506.25"/>
</g>
<!-- node11&#45;&gt;node10 -->
<g id="edge23" class="edge">
<title>node11&#45;&gt;node10</title>
<path fill="none" stroke="fuchsia" d="M663.36,-1496.03C664.21,-1504.03 664.45,-1513.77 664.09,-1522.75"/>
<polygon fill="fuchsia" stroke="fuchsia" points="660.59,-1522.59 663.38,-1532.81 667.57,-1523.08 660.59,-1522.59"/>
</g>
<!-- node12 -->
<g id="node13" class="node">
<title>node12</title>
<polygon fill="lightgrey" stroke="black" points="818,-1423 497,-1423 497,-1387 818,-1387 818,-1423"/>
<text text-anchor="middle" x="657.5" y="-1401.3" font-family="Times,serif" font-size="14.00">#12 Load[OP=ILOAD_1, slot=1] Order: 12</text>
</g>
<!-- node11&#45;&gt;node12 -->
<g id="edge24" class="edge">
<title>node11&#45;&gt;node12</title>
<path fill="none" stroke="red" d="M651.62,-1459.81C650.78,-1451.79 650.55,-1442.05 650.92,-1433.07"/>
<polygon fill="red" stroke="red" points="654.42,-1433.25 651.64,-1423.03 647.44,-1432.75 654.42,-1433.25"/>
</g>
<!-- node12&#45;&gt;node11 -->
<g id="edge25" class="edge">
<title>node12&#45;&gt;node11</title>
<path fill="none" stroke="fuchsia" d="M663.36,-1423.03C664.21,-1431.03 664.45,-1440.77 664.09,-1449.75"/>
<polygon fill="fuchsia" stroke="fuchsia" points="660.59,-1449.59 663.38,-1459.81 667.57,-1450.08 660.59,-1449.59"/>
</g>
<!-- node13 -->
<g id="node14" class="node">
<title>node13</title>
<polygon fill="lightgrey" stroke="black" points="868.5,-1350 446.5,-1350 446.5,-1314 868.5,-1314 868.5,-1350"/>
<text text-anchor="middle" x="657.5" y="-1328.3" font-family="Times,serif" font-size="14.00">#13 ArgumentConstant[OP=BIPUSH, val=10] Order: 13</text>
</g>
<!-- node12&#45;&gt;node13 -->
<g id="edge26" class="edge">
<title>node12&#45;&gt;node13</title>
<path fill="none" stroke="red" d="M651.62,-1386.81C650.78,-1378.79 650.55,-1369.05 650.92,-1360.07"/>
<polygon fill="red" stroke="red" points="654.42,-1360.25 651.64,-1350.03 647.44,-1359.75 654.42,-1360.25"/>
</g>
<!-- node13&#45;&gt;node12 -->
<g id="edge27" class="edge">
<title>node13&#45;&gt;node12</title>
<path fill="none" stroke="fuchsia" d="M663.36,-1350.03C664.21,-1358.03 664.45,-1367.77 664.09,-1376.75"/>
<polygon fill="fuchsia" stroke="fuchsia" points="660.59,-1376.59 663.38,-1386.81 667.57,-1377.08 660.59,-1376.59"/>
</g>
<!-- node14 -->
<g id="node15" class="node">
<title>node14</title>
<polygon fill="lightgrey" stroke="black" points="884,-1277 431,-1277 431,-1241 884,-1241 884,-1277"/>
<text text-anchor="middle" x="657.5" y="-1255.3" font-family="Times,serif" font-size="14.00">#14 UnboundArrayStoreInstruction[op=IASTORE] Order: 14</text>
</g>
<!-- node13&#45;&gt;node14 -->
<g id="edge28" class="edge">
<title>node13&#45;&gt;node14</title>
<path fill="none" stroke="red" d="M651.62,-1313.81C650.78,-1305.79 650.55,-1296.05 650.92,-1287.07"/>
<polygon fill="red" stroke="red" points="654.42,-1287.25 651.64,-1277.03 647.44,-1286.75 654.42,-1287.25"/>
</g>
<!-- node14&#45;&gt;node13 -->
<g id="edge29" class="edge">
<title>node14&#45;&gt;node13</title>
<path fill="none" stroke="fuchsia" d="M663.36,-1277.03C664.21,-1285.03 664.45,-1294.77 664.09,-1303.75"/>
<polygon fill="fuchsia" stroke="fuchsia" points="660.59,-1303.59 663.38,-1313.81 667.57,-1304.08 660.59,-1303.59"/>
</g>
<!-- node15 -->
<g id="node16" class="node">
<title>node15</title>
<polygon fill="lightgrey" stroke="black" points="798,-1204 517,-1204 517,-1168 798,-1168 798,-1204"/>
<text text-anchor="middle" x="657.5" y="-1182.3" font-family="Times,serif" font-size="14.00">#15 LineNumber[line=11] Order: 15</text>
</g>
<!-- node14&#45;&gt;node15 -->
<g id="edge30" class="edge">
<title>node14&#45;&gt;node15</title>
<path fill="none" stroke="red" d="M651.62,-1240.81C650.78,-1232.79 650.55,-1223.05 650.92,-1214.07"/>
<polygon fill="red" stroke="red" points="654.42,-1214.25 651.64,-1204.03 647.44,-1213.75 654.42,-1214.25"/>
</g>
<!-- node15&#45;&gt;node14 -->
<g id="edge31" class="edge">
<title>node15&#45;&gt;node14</title>
<path fill="none" stroke="fuchsia" d="M663.36,-1204.03C664.21,-1212.03 664.45,-1221.77 664.09,-1230.75"/>
<polygon fill="fuchsia" stroke="fuchsia" points="660.59,-1230.59 663.38,-1240.81 667.57,-1231.08 660.59,-1230.59"/>
</g>
<!-- node16 -->
<g id="node17" class="node">
<title>node16</title>
<polygon fill="lightgrey" stroke="black" points="818,-1131 497,-1131 497,-1095 818,-1095 818,-1131"/>
<text text-anchor="middle" x="657.5" y="-1109.3" font-family="Times,serif" font-size="14.00">#16 Load[OP=ILOAD_0, slot=0] Order: 16</text>
</g>
<!-- node15&#45;&gt;node16 -->
<g id="edge32" class="edge">
<title>node15&#45;&gt;node16</title>
<path fill="none" stroke="red" d="M651.62,-1167.81C650.78,-1159.79 650.55,-1150.05 650.92,-1141.07"/>
<polygon fill="red" stroke="red" points="654.42,-1141.25 651.64,-1131.03 647.44,-1140.75 654.42,-1141.25"/>
</g>
<!-- node16&#45;&gt;node15 -->
<g id="edge33" class="edge">
<title>node16&#45;&gt;node15</title>
<path fill="none" stroke="fuchsia" d="M663.36,-1131.03C664.21,-1139.03 664.45,-1148.77 664.09,-1157.75"/>
<polygon fill="fuchsia" stroke="fuchsia" points="660.59,-1157.59 663.38,-1167.81 667.57,-1158.08 660.59,-1157.59"/>
</g>
<!-- node17 -->
<g id="node18" class="node">
<title>node17</title>
<polygon fill="lightgrey" stroke="black" points="785.5,-1058 529.5,-1058 529.5,-1022 785.5,-1022 785.5,-1058"/>
<text text-anchor="middle" x="657.5" y="-1036.3" font-family="Times,serif" font-size="14.00">#17 Branch[OP=IFEQ] Order: 17</text>
</g>
<!-- node16&#45;&gt;node17 -->
<g id="edge34" class="edge">
<title>node16&#45;&gt;node17</title>
<path fill="none" stroke="red" d="M651.62,-1094.81C650.78,-1086.79 650.55,-1077.05 650.92,-1068.07"/>
<polygon fill="red" stroke="red" points="654.42,-1068.25 651.64,-1058.03 647.44,-1067.75 654.42,-1068.25"/>
</g>
<!-- node17&#45;&gt;node16 -->
<g id="edge35" class="edge">
<title>node17&#45;&gt;node16</title>
<path fill="none" stroke="fuchsia" d="M663.36,-1058.03C664.21,-1066.03 664.45,-1075.77 664.09,-1084.75"/>
<polygon fill="fuchsia" stroke="fuchsia" points="660.59,-1084.59 663.38,-1094.81 667.57,-1085.08 660.59,-1084.59"/>
</g>
<!-- node18 -->
<g id="node19" class="node">
<title>node18</title>
<polygon fill="lightgrey" stroke="black" points="394,-985 113,-985 113,-949 394,-949 394,-985"/>
<text text-anchor="middle" x="253.5" y="-963.3" font-family="Times,serif" font-size="14.00">#18 LineNumber[line=12] Order: 18</text>
</g>
<!-- node17&#45;&gt;node18 -->
<g id="edge36" class="edge">
<title>node17&#45;&gt;node18</title>
<path fill="none" stroke="red" d="M554.87,-1021.99C493.49,-1011.4 415.84,-997.77 354.71,-986.85"/>
<polygon fill="red" stroke="red" points="355.12,-983.37 344.66,-985.05 353.89,-990.26 355.12,-983.37"/>
</g>
<!-- node26 -->
<g id="node27" class="node">
<title>node26</title>
<polygon fill="lightgrey" stroke="black" points="901.5,-985 413.5,-985 413.5,-949 901.5,-949 901.5,-985"/>
<text text-anchor="middle" x="657.5" y="-963.3" font-family="Times,serif" font-size="14.00">#26 Label[context=CodeModel[id=50720817], bci=23] Order: 26</text>
</g>
<!-- node17&#45;&gt;node26 -->
<g id="edge52" class="edge">
<title>node17&#45;&gt;node26</title>
<path fill="none" stroke="red" d="M651.62,-1021.81C650.78,-1013.79 650.55,-1004.05 650.92,-995.07"/>
<polygon fill="red" stroke="red" points="654.42,-995.25 651.64,-985.03 647.44,-994.75 654.42,-995.25"/>
</g>
<!-- node18&#45;&gt;node17 -->
<g id="edge37" class="edge">
<title>node18&#45;&gt;node17</title>
<path fill="none" stroke="fuchsia" d="M356.39,-985.05C417.82,-995.65 495.47,-1009.29 556.55,-1020.2"/>
<polygon fill="fuchsia" stroke="fuchsia" points="556.13,-1023.68 566.59,-1021.99 557.36,-1016.79 556.13,-1023.68"/>
</g>
<!-- node19 -->
<g id="node20" class="node">
<title>node19</title>
<polygon fill="lightgrey" stroke="black" points="395.5,-912 69.5,-912 69.5,-876 395.5,-876 395.5,-912"/>
<text text-anchor="middle" x="232.5" y="-890.3" font-family="Times,serif" font-size="14.00">#19 Load[OP=ALOAD_3, slot=3] Order: 19</text>
</g>
<!-- node18&#45;&gt;node19 -->
<g id="edge38" class="edge">
<title>node18&#45;&gt;node19</title>
<path fill="none" stroke="red" d="M242.54,-948.81C239.33,-940.79 236.21,-931.05 233.93,-922.07"/>
<polygon fill="red" stroke="red" points="237.28,-921.02 231.68,-912.03 230.45,-922.55 237.28,-921.02"/>
</g>
<!-- node19&#45;&gt;node18 -->
<g id="edge39" class="edge">
<title>node19&#45;&gt;node18</title>
<path fill="none" stroke="fuchsia" d="M243.4,-912.03C246.65,-920.12 249.8,-929.98 252.1,-939.05"/>
<polygon fill="fuchsia" stroke="fuchsia" points="248.69,-939.82 254.29,-948.81 255.52,-938.29 248.69,-939.82"/>
</g>
<!-- node20 -->
<g id="node21" class="node">
<title>node20</title>
<polygon fill="lightgrey" stroke="black" points="388,-839 67,-839 67,-803 388,-803 388,-839"/>
<text text-anchor="middle" x="227.5" y="-817.3" font-family="Times,serif" font-size="14.00">#20 Load[OP=ILOAD_2, slot=2] Order: 20</text>
</g>
<!-- node19&#45;&gt;node20 -->
<g id="edge40" class="edge">
<title>node19&#45;&gt;node20</title>
<path fill="none" stroke="red" d="M225.41,-875.81C224.01,-867.79 223.09,-858.05 222.83,-849.07"/>
<polygon fill="red" stroke="red" points="226.33,-849.03 222.84,-839.03 219.33,-849.03 226.33,-849.03"/>
</g>
<!-- node20&#45;&gt;node19 -->
<g id="edge41" class="edge">
<title>node20&#45;&gt;node19</title>
<path fill="none" stroke="fuchsia" d="M234.56,-839.03C235.97,-847.03 236.9,-856.77 237.17,-865.75"/>
<polygon fill="fuchsia" stroke="fuchsia" points="233.67,-865.81 237.17,-875.81 240.67,-865.81 233.67,-865.81"/>
</g>
<!-- node21 -->
<g id="node22" class="node">
<title>node21</title>
<polygon fill="lightgrey" stroke="black" points="387,-766 66,-766 66,-730 387,-730 387,-766"/>
<text text-anchor="middle" x="226.5" y="-744.3" font-family="Times,serif" font-size="14.00">#21 Load[OP=ILOAD_1, slot=1] Order: 21</text>
</g>
<!-- node20&#45;&gt;node21 -->
<g id="edge42" class="edge">
<title>node20&#45;&gt;node21</title>
<path fill="none" stroke="red" d="M221.38,-802.81C220.43,-794.79 220.06,-785.05 220.3,-776.07"/>
<polygon fill="red" stroke="red" points="223.8,-776.21 220.88,-766.03 216.81,-775.81 223.8,-776.21"/>
</g>
<!-- node21&#45;&gt;node20 -->
<g id="edge43" class="edge">
<title>node21&#45;&gt;node20</title>
<path fill="none" stroke="fuchsia" d="M232.6,-766.03C233.56,-774.03 233.94,-783.77 233.7,-792.75"/>
<polygon fill="fuchsia" stroke="fuchsia" points="230.2,-792.63 233.14,-802.81 237.19,-793.03 230.2,-792.63"/>
</g>
<!-- node22 -->
<g id="node23" class="node">
<title>node22</title>
<polygon fill="lightgrey" stroke="black" points="387,-693 66,-693 66,-657 387,-657 387,-693"/>
<text text-anchor="middle" x="226.5" y="-671.3" font-family="Times,serif" font-size="14.00">#22 Load[OP=ILOAD_2, slot=2] Order: 22</text>
</g>
<!-- node21&#45;&gt;node22 -->
<g id="edge44" class="edge">
<title>node21&#45;&gt;node22</title>
<path fill="none" stroke="red" d="M220.62,-729.81C219.78,-721.79 219.55,-712.05 219.92,-703.07"/>
<polygon fill="red" stroke="red" points="223.42,-703.25 220.64,-693.03 216.44,-702.75 223.42,-703.25"/>
</g>
<!-- node22&#45;&gt;node21 -->
<g id="edge45" class="edge">
<title>node22&#45;&gt;node21</title>
<path fill="none" stroke="fuchsia" d="M232.36,-693.03C233.21,-701.03 233.45,-710.77 233.09,-719.75"/>
<polygon fill="fuchsia" stroke="fuchsia" points="229.59,-719.59 232.38,-729.81 236.57,-720.08 229.59,-719.59"/>
</g>
<!-- node23 -->
<g id="node24" class="node">
<title>node23</title>
<polygon fill="lightgrey" stroke="black" points="431.5,-620 21.5,-620 21.5,-584 431.5,-584 431.5,-620"/>
<text text-anchor="middle" x="226.5" y="-598.3" font-family="Times,serif" font-size="14.00">#23 UnboundOperatorInstruction[op=IADD] Order: 23</text>
</g>
<!-- node22&#45;&gt;node23 -->
<g id="edge46" class="edge">
<title>node22&#45;&gt;node23</title>
<path fill="none" stroke="red" d="M220.62,-656.81C219.78,-648.79 219.55,-639.05 219.92,-630.07"/>
<polygon fill="red" stroke="red" points="223.42,-630.25 220.64,-620.03 216.44,-629.75 223.42,-630.25"/>
</g>
<!-- node23&#45;&gt;node22 -->
<g id="edge47" class="edge">
<title>node23&#45;&gt;node22</title>
<path fill="none" stroke="fuchsia" d="M232.36,-620.03C233.21,-628.03 233.45,-637.77 233.09,-646.75"/>
<polygon fill="fuchsia" stroke="fuchsia" points="229.59,-646.59 232.38,-656.81 236.57,-647.08 229.59,-646.59"/>
</g>
<!-- node24 -->
<g id="node25" class="node">
<title>node24</title>
<polygon fill="lightgrey" stroke="black" points="453,-547 0,-547 0,-511 453,-511 453,-547"/>
<text text-anchor="middle" x="226.5" y="-525.3" font-family="Times,serif" font-size="14.00">#24 UnboundArrayStoreInstruction[op=IASTORE] Order: 24</text>
</g>
<!-- node23&#45;&gt;node24 -->
<g id="edge48" class="edge">
<title>node23&#45;&gt;node24</title>
<path fill="none" stroke="red" d="M220.62,-583.81C219.78,-575.79 219.55,-566.05 219.92,-557.07"/>
<polygon fill="red" stroke="red" points="223.42,-557.25 220.64,-547.03 216.44,-556.75 223.42,-557.25"/>
</g>
<!-- node24&#45;&gt;node23 -->
<g id="edge49" class="edge">
<title>node24&#45;&gt;node23</title>
<path fill="none" stroke="fuchsia" d="M232.36,-547.03C233.21,-555.03 233.45,-564.77 233.09,-573.75"/>
<polygon fill="fuchsia" stroke="fuchsia" points="229.59,-573.59 232.38,-583.81 236.57,-574.08 229.59,-573.59"/>
</g>
<!-- node25 -->
<g id="node26" class="node">
<title>node25</title>
<polygon fill="lightgrey" stroke="black" points="357.5,-474 95.5,-474 95.5,-438 357.5,-438 357.5,-474"/>
<text text-anchor="middle" x="226.5" y="-452.3" font-family="Times,serif" font-size="14.00">#25 Branch[OP=GOTO] Order: 25</text>
</g>
<!-- node24&#45;&gt;node25 -->
<g id="edge50" class="edge">
<title>node24&#45;&gt;node25</title>
<path fill="none" stroke="red" d="M220.62,-510.81C219.78,-502.79 219.55,-493.05 219.92,-484.07"/>
<polygon fill="red" stroke="red" points="223.42,-484.25 220.64,-474.03 216.44,-483.75 223.42,-484.25"/>
</g>
<!-- node25&#45;&gt;node24 -->
<g id="edge51" class="edge">
<title>node25&#45;&gt;node24</title>
<path fill="none" stroke="fuchsia" d="M232.36,-474.03C233.21,-482.03 233.45,-491.77 233.09,-500.75"/>
<polygon fill="fuchsia" stroke="fuchsia" points="229.59,-500.59 232.38,-510.81 236.57,-501.08 229.59,-500.59"/>
</g>
<!-- node34 -->
<g id="node35" class="node">
<title>node34</title>
<polygon fill="lightgrey" stroke="black" points="919.5,-401 431.5,-401 431.5,-365 919.5,-365 919.5,-401"/>
<text text-anchor="middle" x="675.5" y="-379.3" font-family="Times,serif" font-size="14.00">#34 Label[context=CodeModel[id=50720817], bci=29] Order: 34</text>
</g>
<!-- node25&#45;&gt;node34 -->
<g id="edge68" class="edge">
<title>node25&#45;&gt;node34</title>
<path fill="none" stroke="red" d="M334.05,-437.99C401.43,-427.34 488.32,-413.6 557.58,-402.65"/>
<polygon fill="red" stroke="red" points="558.33,-406.07 567.66,-401.05 557.24,-399.16 558.33,-406.07"/>
</g>
<!-- node26&#45;&gt;node17 -->
<g id="edge53" class="edge">
<title>node26&#45;&gt;node17</title>
<path fill="none" stroke="fuchsia" d="M663.36,-985.03C664.21,-993.03 664.45,-1002.77 664.09,-1011.75"/>
<polygon fill="fuchsia" stroke="fuchsia" points="660.59,-1011.59 663.38,-1021.81 667.57,-1012.08 660.59,-1011.59"/>
</g>
<!-- node27 -->
<g id="node28" class="node">
<title>node27</title>
<polygon fill="lightgrey" stroke="black" points="799,-912 518,-912 518,-876 799,-876 799,-912"/>
<text text-anchor="middle" x="658.5" y="-890.3" font-family="Times,serif" font-size="14.00">#27 LineNumber[line=14] Order: 27</text>
</g>
<!-- node26&#45;&gt;node27 -->
<g id="edge54" class="edge">
<title>node26&#45;&gt;node27</title>
<path fill="none" stroke="red" d="M651.86,-948.81C651.14,-940.79 651.04,-931.05 651.54,-922.07"/>
<polygon fill="red" stroke="red" points="655.03,-922.29 652.4,-912.03 648.06,-921.69 655.03,-922.29"/>
</g>
<!-- node27&#45;&gt;node26 -->
<g id="edge55" class="edge">
<title>node27&#45;&gt;node26</title>
<path fill="none" stroke="fuchsia" d="M664.12,-912.03C664.86,-920.03 664.96,-929.77 664.47,-938.75"/>
<polygon fill="fuchsia" stroke="fuchsia" points="660.97,-938.55 663.62,-948.81 667.95,-939.14 660.97,-938.55"/>
</g>
<!-- node28 -->
<g id="node29" class="node">
<title>node28</title>
<polygon fill="lightgrey" stroke="black" points="822.5,-839 496.5,-839 496.5,-803 822.5,-803 822.5,-839"/>
<text text-anchor="middle" x="659.5" y="-817.3" font-family="Times,serif" font-size="14.00">#28 Load[OP=ALOAD_3, slot=3] Order: 28</text>
</g>
<!-- node27&#45;&gt;node28 -->
<g id="edge56" class="edge">
<title>node27&#45;&gt;node28</title>
<path fill="none" stroke="red" d="M652.86,-875.81C652.14,-867.79 652.04,-858.05 652.54,-849.07"/>
<polygon fill="red" stroke="red" points="656.03,-849.29 653.4,-839.03 649.06,-848.69 656.03,-849.29"/>
</g>
<!-- node28&#45;&gt;node27 -->
<g id="edge57" class="edge">
<title>node28&#45;&gt;node27</title>
<path fill="none" stroke="fuchsia" d="M665.12,-839.03C665.86,-847.03 665.96,-856.77 665.47,-865.75"/>
<polygon fill="fuchsia" stroke="fuchsia" points="661.97,-865.55 664.62,-875.81 668.95,-866.14 661.97,-865.55"/>
</g>
<!-- node29 -->
<g id="node30" class="node">
<title>node29</title>
<polygon fill="lightgrey" stroke="black" points="822,-766 501,-766 501,-730 822,-730 822,-766"/>
<text text-anchor="middle" x="661.5" y="-744.3" font-family="Times,serif" font-size="14.00">#29 Load[OP=ILOAD_2, slot=2] Order: 29</text>
</g>
<!-- node28&#45;&gt;node29 -->
<g id="edge58" class="edge">
<title>node28&#45;&gt;node29</title>
<path fill="none" stroke="red" d="M654.11,-802.81C653.49,-794.79 653.53,-785.05 654.16,-776.07"/>
<polygon fill="red" stroke="red" points="657.65,-776.33 655.16,-766.03 650.69,-775.63 657.65,-776.33"/>
</g>
<!-- node29&#45;&gt;node28 -->
<g id="edge59" class="edge">
<title>node29&#45;&gt;node28</title>
<path fill="none" stroke="fuchsia" d="M666.88,-766.03C667.5,-774.03 667.47,-783.77 666.85,-792.75"/>
<polygon fill="fuchsia" stroke="fuchsia" points="663.36,-792.52 665.86,-802.81 670.33,-793.2 663.36,-792.52"/>
</g>
<!-- node30 -->
<g id="node31" class="node">
<title>node30</title>
<polygon fill="lightgrey" stroke="black" points="826,-693 505,-693 505,-657 826,-657 826,-693"/>
<text text-anchor="middle" x="665.5" y="-671.3" font-family="Times,serif" font-size="14.00">#30 Load[OP=ILOAD_1, slot=1] Order: 30</text>
</g>
<!-- node29&#45;&gt;node30 -->
<g id="edge60" class="edge">
<title>node29&#45;&gt;node30</title>
<path fill="none" stroke="red" d="M656.59,-729.81C656.2,-721.79 656.52,-712.05 657.4,-703.07"/>
<polygon fill="red" stroke="red" points="660.88,-703.39 658.68,-693.03 653.94,-702.5 660.88,-703.39"/>
</g>
<!-- node30&#45;&gt;node29 -->
<g id="edge61" class="edge">
<title>node30&#45;&gt;node29</title>
<path fill="none" stroke="fuchsia" d="M670.4,-693.03C670.8,-701.03 670.49,-710.77 669.62,-719.75"/>
<polygon fill="fuchsia" stroke="fuchsia" points="666.13,-719.45 668.35,-729.81 673.07,-720.33 666.13,-719.45"/>
</g>
<!-- node31 -->
<g id="node32" class="node">
<title>node31</title>
<polygon fill="lightgrey" stroke="black" points="836,-620 515,-620 515,-584 836,-584 836,-620"/>
<text text-anchor="middle" x="675.5" y="-598.3" font-family="Times,serif" font-size="14.00">#31 Load[OP=ILOAD_2, slot=2] Order: 31</text>
</g>
<!-- node30&#45;&gt;node31 -->
<g id="edge62" class="edge">
<title>node30&#45;&gt;node31</title>
<path fill="none" stroke="red" d="M662.04,-656.81C662.33,-648.79 663.47,-639.05 665.11,-630.07"/>
<polygon fill="red" stroke="red" points="668.59,-630.54 667.24,-620.03 661.74,-629.08 668.59,-630.54"/>
</g>
<!-- node31&#45;&gt;node30 -->
<g id="edge63" class="edge">
<title>node31&#45;&gt;node30</title>
<path fill="none" stroke="fuchsia" d="M678.96,-620.03C678.68,-628.03 677.55,-637.77 675.92,-646.75"/>
<polygon fill="fuchsia" stroke="fuchsia" points="672.44,-646.31 673.8,-656.81 679.29,-647.75 672.44,-646.31"/>
</g>
<!-- node32 -->
<g id="node33" class="node">
<title>node32</title>
<polygon fill="lightgrey" stroke="black" points="880.5,-547 470.5,-547 470.5,-511 880.5,-511 880.5,-547"/>
<text text-anchor="middle" x="675.5" y="-525.3" font-family="Times,serif" font-size="14.00">#32 UnboundOperatorInstruction[op=ISUB] Order: 32</text>
</g>
<!-- node31&#45;&gt;node32 -->
<g id="edge64" class="edge">
<title>node31&#45;&gt;node32</title>
<path fill="none" stroke="red" d="M669.62,-583.81C668.78,-575.79 668.55,-566.05 668.92,-557.07"/>
<polygon fill="red" stroke="red" points="672.42,-557.25 669.64,-547.03 665.44,-556.75 672.42,-557.25"/>
</g>
<!-- node32&#45;&gt;node31 -->
<g id="edge65" class="edge">
<title>node32&#45;&gt;node31</title>
<path fill="none" stroke="fuchsia" d="M681.36,-547.03C682.21,-555.03 682.45,-564.77 682.09,-573.75"/>
<polygon fill="fuchsia" stroke="fuchsia" points="678.59,-573.59 681.38,-583.81 685.57,-574.08 678.59,-573.59"/>
</g>
<!-- node33 -->
<g id="node34" class="node">
<title>node33</title>
<polygon fill="lightgrey" stroke="black" points="902,-474 449,-474 449,-438 902,-438 902,-474"/>
<text text-anchor="middle" x="675.5" y="-452.3" font-family="Times,serif" font-size="14.00">#33 UnboundArrayStoreInstruction[op=IASTORE] Order: 33</text>
</g>
<!-- node32&#45;&gt;node33 -->
<g id="edge66" class="edge">
<title>node32&#45;&gt;node33</title>
<path fill="none" stroke="red" d="M669.62,-510.81C668.78,-502.79 668.55,-493.05 668.92,-484.07"/>
<polygon fill="red" stroke="red" points="672.42,-484.25 669.64,-474.03 665.44,-483.75 672.42,-484.25"/>
</g>
<!-- node33&#45;&gt;node32 -->
<g id="edge67" class="edge">
<title>node33&#45;&gt;node32</title>
<path fill="none" stroke="fuchsia" d="M681.36,-474.03C682.21,-482.03 682.45,-491.77 682.09,-500.75"/>
<polygon fill="fuchsia" stroke="fuchsia" points="678.59,-500.59 681.38,-510.81 685.57,-501.08 678.59,-500.59"/>
</g>
<!-- node33&#45;&gt;node34 -->
<g id="edge69" class="edge">
<title>node33&#45;&gt;node34</title>
<path fill="none" stroke="red" d="M675.5,-437.81C675.5,-429.79 675.5,-420.05 675.5,-411.07"/>
<polygon fill="red" stroke="red" points="679,-411.03 675.5,-401.03 672,-411.03 679,-411.03"/>
</g>
<!-- node34&#45;&gt;node17 -->
<g id="edge70" class="edge">
<title>node34&#45;&gt;node17</title>
<path fill="none" stroke="fuchsia" d="M822.52,-401.07C878.69,-411.82 929.5,-428.79 929.5,-455 929.5,-968 929.5,-968 929.5,-968 929.5,-998.93 862.81,-1016.64 795.47,-1026.64"/>
<polygon fill="fuchsia" stroke="fuchsia" points="794.94,-1023.18 785.54,-1028.06 795.93,-1030.11 794.94,-1023.18"/>
</g>
<!-- node35 -->
<g id="node36" class="node">
<title>node35</title>
<polygon fill="lightgrey" stroke="black" points="816,-328 535,-328 535,-292 816,-292 816,-328"/>
<text text-anchor="middle" x="675.5" y="-306.3" font-family="Times,serif" font-size="14.00">#35 LineNumber[line=16] Order: 35</text>
</g>
<!-- node34&#45;&gt;node35 -->
<g id="edge71" class="edge">
<title>node34&#45;&gt;node35</title>
<path fill="none" stroke="red" d="M669.62,-364.81C668.78,-356.79 668.55,-347.05 668.92,-338.07"/>
<polygon fill="red" stroke="red" points="672.42,-338.25 669.64,-328.03 665.44,-337.75 672.42,-338.25"/>
</g>
<!-- node35&#45;&gt;node34 -->
<g id="edge72" class="edge">
<title>node35&#45;&gt;node34</title>
<path fill="none" stroke="fuchsia" d="M681.36,-328.03C682.21,-336.03 682.45,-345.77 682.09,-354.75"/>
<polygon fill="fuchsia" stroke="fuchsia" points="678.59,-354.59 681.38,-364.81 685.57,-355.08 678.59,-354.59"/>
</g>
<!-- node36 -->
<g id="node37" class="node">
<title>node36</title>
<polygon fill="lightgrey" stroke="black" points="838.5,-255 512.5,-255 512.5,-219 838.5,-219 838.5,-255"/>
<text text-anchor="middle" x="675.5" y="-233.3" font-family="Times,serif" font-size="14.00">#36 Load[OP=ALOAD_3, slot=3] Order: 36</text>
</g>
<!-- node35&#45;&gt;node36 -->
<g id="edge73" class="edge">
<title>node35&#45;&gt;node36</title>
<path fill="none" stroke="red" d="M669.62,-291.81C668.78,-283.79 668.55,-274.05 668.92,-265.07"/>
<polygon fill="red" stroke="red" points="672.42,-265.25 669.64,-255.03 665.44,-264.75 672.42,-265.25"/>
</g>
<!-- node36&#45;&gt;node35 -->
<g id="edge74" class="edge">
<title>node36&#45;&gt;node35</title>
<path fill="none" stroke="fuchsia" d="M681.36,-255.03C682.21,-263.03 682.45,-272.77 682.09,-281.75"/>
<polygon fill="fuchsia" stroke="fuchsia" points="678.59,-281.59 681.38,-291.81 685.57,-282.08 678.59,-281.59"/>
</g>
<!-- node37 -->
<g id="node38" class="node">
<title>node37</title>
<polygon fill="lightgrey" stroke="black" points="836,-182 515,-182 515,-146 836,-146 836,-182"/>
<text text-anchor="middle" x="675.5" y="-160.3" font-family="Times,serif" font-size="14.00">#37 Load[OP=ILOAD_2, slot=2] Order: 37</text>
</g>
<!-- node36&#45;&gt;node37 -->
<g id="edge75" class="edge">
<title>node36&#45;&gt;node37</title>
<path fill="none" stroke="red" d="M669.62,-218.81C668.78,-210.79 668.55,-201.05 668.92,-192.07"/>
<polygon fill="red" stroke="red" points="672.42,-192.25 669.64,-182.03 665.44,-191.75 672.42,-192.25"/>
</g>
<!-- node37&#45;&gt;node36 -->
<g id="edge76" class="edge">
<title>node37&#45;&gt;node36</title>
<path fill="none" stroke="fuchsia" d="M681.36,-182.03C682.21,-190.03 682.45,-199.77 682.09,-208.75"/>
<polygon fill="fuchsia" stroke="fuchsia" points="678.59,-208.59 681.38,-218.81 685.57,-209.08 678.59,-208.59"/>
</g>
<!-- node38 -->
<g id="node39" class="node">
<title>node38</title>
<polygon fill="lightgrey" stroke="black" points="895,-109 456,-109 456,-73 895,-73 895,-109"/>
<text text-anchor="middle" x="675.5" y="-87.3" font-family="Times,serif" font-size="14.00">#38 UnboundArrayLoadInstruction[op=IALOAD] Order: 38</text>
</g>
<!-- node37&#45;&gt;node38 -->
<g id="edge77" class="edge">
<title>node37&#45;&gt;node38</title>
<path fill="none" stroke="red" d="M669.62,-145.81C668.78,-137.79 668.55,-128.05 668.92,-119.07"/>
<polygon fill="red" stroke="red" points="672.42,-119.25 669.64,-109.03 665.44,-118.75 672.42,-119.25"/>
</g>
<!-- node38&#45;&gt;node37 -->
<g id="edge78" class="edge">
<title>node38&#45;&gt;node37</title>
<path fill="none" stroke="fuchsia" d="M681.36,-109.03C682.21,-117.03 682.45,-126.77 682.09,-135.75"/>
<polygon fill="fuchsia" stroke="fuchsia" points="678.59,-135.59 681.38,-145.81 685.57,-136.08 678.59,-135.59"/>
</g>
<!-- node39 -->
<g id="node40" class="node">
<title>node39</title>
<polygon fill="lightgrey" stroke="black" points="819,-36 532,-36 532,0 819,0 819,-36"/>
<text text-anchor="middle" x="675.5" y="-14.3" font-family="Times,serif" font-size="14.00">#39 Return[OP=IRETURN] Order: 39</text>
</g>
<!-- node38&#45;&gt;node39 -->
<g id="edge79" class="edge">
<title>node38&#45;&gt;node39</title>
<path fill="none" stroke="red" d="M669.62,-72.81C668.78,-64.79 668.55,-55.05 668.92,-46.07"/>
<polygon fill="red" stroke="red" points="672.42,-46.25 669.64,-36.03 665.44,-45.75 672.42,-46.25"/>
</g>
<!-- node39&#45;&gt;node38 -->
<g id="edge80" class="edge">
<title>node39&#45;&gt;node38</title>
<path fill="none" stroke="fuchsia" d="M681.36,-36.03C682.21,-44.03 682.45,-53.77 682.09,-62.75"/>
<polygon fill="fuchsia" stroke="fuchsia" points="678.59,-62.59 681.38,-72.81 685.57,-63.08 678.59,-62.59"/>
</g>
<!-- c0 -->
<!-- c1 -->
<!-- c0&#45;&gt;c1 -->
<g id="edge81" class="edge">
<title>c0&#45;&gt;c1</title>
<path fill="none" stroke="red" d="M1115.39,-2281C1126.61,-2281 1184.74,-2281 1210.36,-2281"/>
<polygon fill="red" stroke="red" points="1210.56,-2284.5 1220.56,-2281 1210.56,-2277.5 1210.56,-2284.5"/>
<text text-anchor="middle" x="1168" y="-2287.8" font-family="Times,serif" font-size="14.00">Control flow</text>
</g>
<!-- c2 -->
<!-- c3 -->
<!-- c2&#45;&gt;c3 -->
<g id="edge82" class="edge">
<title>c2&#45;&gt;c3</title>
<path fill="none" stroke="red" stroke-dasharray="5,2" d="M908.58,-2281C925.55,-2281 1041.71,-2281 1079.58,-2281"/>
<polygon fill="red" stroke="red" points="1079.67,-2284.5 1089.67,-2281 1079.67,-2277.5 1079.67,-2284.5"/>
<text text-anchor="middle" x="999" y="-2287.8" font-family="Times,serif" font-size="14.00">Control flow back edge</text>
</g>
</g>
</svg>
