<?xml version="1.0" encoding="UTF-8" standalone="no"?>
<!DOCTYPE svg PUBLIC "-//W3C//DTD SVG 1.1//EN"
 "http://www.w3.org/Graphics/SVG/1.1/DTD/svg11.dtd">
<!-- Generated by graphviz version 2.43.0 (0)
 -->
<!-- Title: %3 Pages: 1 -->
<svg width="1048pt" height="2184pt"
 viewBox="0.00 0.00 1047.50 2183.80" xmlns="http://www.w3.org/2000/svg" xmlns:xlink="http://www.w3.org/1999/xlink">
<g id="graph0" class="graph" transform="scale(1 1) rotate(0) translate(4 2179.8)">
<title>%3</title>
<polygon fill="white" stroke="transparent" points="-4,4 -4,-2179.8 1043.5,-2179.8 1043.5,4 -4,4"/>
<g id="clust1" class="cluster">
<title>cluster_000</title>
<polygon fill="none" stroke="black" points="695.5,-2125.2 695.5,-2167.8 1031.5,-2167.8 1031.5,-2125.2 695.5,-2125.2"/>
<text text-anchor="middle" x="863.5" y="-2152.6" font-family="Times,serif" font-size="14.00">Legend</text>
</g>
<!-- node0 -->
<g id="node1" class="node">
<title>node0</title>
<polygon fill="lightgrey" stroke="black" points="686,-2153 263,-2153 263,-2117 686,-2117 686,-2153"/>
<text text-anchor="middle" x="474.5" y="-2131.3" font-family="Times,serif" font-size="14.00">#0 LocalVariable[name=check, slot=0, type=Z] Order: 0</text>
</g>
<!-- node1 -->
<g id="node2" class="node">
<title>node1</title>
<polygon fill="lightgrey" stroke="black" points="667.5,-2080 281.5,-2080 281.5,-2044 667.5,-2044 667.5,-2080"/>
<text text-anchor="middle" x="474.5" y="-2058.3" font-family="Times,serif" font-size="14.00">#1 LocalVariable[name=a, slot=1, type=I] Order: 1</text>
</g>
<!-- node0&#45;&gt;node1 -->
<g id="edge1" class="edge">
<title>node0&#45;&gt;node1</title>
<path fill="none" stroke="red" d="M474.5,-2116.81C474.5,-2108.79 474.5,-2099.05 474.5,-2090.07"/>
<polygon fill="red" stroke="red" points="478,-2090.03 474.5,-2080.03 471,-2090.03 478,-2090.03"/>
</g>
<!-- node2 -->
<g id="node3" class="node">
<title>node2</title>
<polygon fill="lightgrey" stroke="black" points="668,-2007 281,-2007 281,-1971 668,-1971 668,-2007"/>
<text text-anchor="middle" x="474.5" y="-1985.3" font-family="Times,serif" font-size="14.00">#2 LocalVariable[name=b, slot=2, type=I] Order: 2</text>
</g>
<!-- node1&#45;&gt;node2 -->
<g id="edge2" class="edge">
<title>node1&#45;&gt;node2</title>
<path fill="none" stroke="red" d="M474.5,-2043.81C474.5,-2035.79 474.5,-2026.05 474.5,-2017.07"/>
<polygon fill="red" stroke="red" points="478,-2017.03 474.5,-2007.03 471,-2017.03 478,-2017.03"/>
</g>
<!-- node3 -->
<g id="node4" class="node">
<title>node3</title>
<polygon fill="lightgrey" stroke="black" points="670.5,-1934 278.5,-1934 278.5,-1898 670.5,-1898 670.5,-1934"/>
<text text-anchor="middle" x="474.5" y="-1912.3" font-family="Times,serif" font-size="14.00">#3 LocalVariable[name=x, slot=3, type=[I] Order: 3</text>
</g>
<!-- node2&#45;&gt;node3 -->
<g id="edge3" class="edge">
<title>node2&#45;&gt;node3</title>
<path fill="none" stroke="red" d="M474.5,-1970.81C474.5,-1962.79 474.5,-1953.05 474.5,-1944.07"/>
<polygon fill="red" stroke="red" points="478,-1944.03 474.5,-1934.03 471,-1944.03 478,-1944.03"/>
</g>
<!-- node4 -->
<g id="node5" class="node">
<title>node4</title>
<polygon fill="lightgrey" stroke="black" points="714,-1861 235,-1861 235,-1825 714,-1825 714,-1861"/>
<text text-anchor="middle" x="474.5" y="-1839.3" font-family="Times,serif" font-size="14.00">#4 Label[context=CodeModel[id=1108889615], bci=0] Order: 4</text>
</g>
<!-- node3&#45;&gt;node4 -->
<g id="edge4" class="edge">
<title>node3&#45;&gt;node4</title>
<path fill="none" stroke="red" d="M474.5,-1897.81C474.5,-1889.79 474.5,-1880.05 474.5,-1871.07"/>
<polygon fill="red" stroke="red" points="478,-1871.03 474.5,-1861.03 471,-1871.03 478,-1871.03"/>
</g>
<!-- node5 -->
<g id="node6" class="node">
<title>node5</title>
<polygon fill="lightgrey" stroke="black" points="601.5,-1788 347.5,-1788 347.5,-1752 601.5,-1752 601.5,-1788"/>
<text text-anchor="middle" x="474.5" y="-1766.3" font-family="Times,serif" font-size="14.00">#5 LineNumber[line=9] Order: 5</text>
</g>
<!-- node4&#45;&gt;node5 -->
<g id="edge5" class="edge">
<title>node4&#45;&gt;node5</title>
<path fill="none" stroke="red" d="M474.5,-1824.81C474.5,-1816.79 474.5,-1807.05 474.5,-1798.07"/>
<polygon fill="red" stroke="red" points="478,-1798.03 474.5,-1788.03 471,-1798.03 478,-1798.03"/>
</g>
<!-- node6 -->
<g id="node7" class="node">
<title>node6</title>
<polygon fill="lightgrey" stroke="black" points="676.5,-1715 272.5,-1715 272.5,-1679 676.5,-1679 676.5,-1715"/>
<text text-anchor="middle" x="474.5" y="-1693.3" font-family="Times,serif" font-size="14.00">#6 ArgumentConstant[OP=BIPUSH, val=10] Order: 6</text>
</g>
<!-- node5&#45;&gt;node6 -->
<g id="edge6" class="edge">
<title>node5&#45;&gt;node6</title>
<path fill="none" stroke="red" d="M474.5,-1751.81C474.5,-1743.79 474.5,-1734.05 474.5,-1725.07"/>
<polygon fill="red" stroke="red" points="478,-1725.03 474.5,-1715.03 471,-1725.03 478,-1725.03"/>
</g>
<!-- node7 -->
<g id="node8" class="node">
<title>node7</title>
<polygon fill="lightgrey" stroke="black" points="700,-1642 249,-1642 249,-1606 700,-1606 700,-1642"/>
<text text-anchor="middle" x="474.5" y="-1620.3" font-family="Times,serif" font-size="14.00">#7 NewPrimitiveArray[OP=NEWARRAY, type=INT] Order: 7</text>
</g>
<!-- node6&#45;&gt;node7 -->
<g id="edge7" class="edge">
<title>node6&#45;&gt;node7</title>
<path fill="none" stroke="red" d="M474.5,-1678.81C474.5,-1670.79 474.5,-1661.05 474.5,-1652.07"/>
<polygon fill="red" stroke="red" points="478,-1652.03 474.5,-1642.03 471,-1652.03 478,-1652.03"/>
</g>
<!-- node8 -->
<g id="node9" class="node">
<title>node8</title>
<polygon fill="lightgrey" stroke="black" points="635.5,-1569 313.5,-1569 313.5,-1533 635.5,-1533 635.5,-1569"/>
<text text-anchor="middle" x="474.5" y="-1547.3" font-family="Times,serif" font-size="14.00">#8 Store[OP=ASTORE_3, slot=3] Order: 8</text>
</g>
<!-- node7&#45;&gt;node8 -->
<g id="edge8" class="edge">
<title>node7&#45;&gt;node8</title>
<path fill="none" stroke="red" d="M474.5,-1605.81C474.5,-1597.79 474.5,-1588.05 474.5,-1579.07"/>
<polygon fill="red" stroke="red" points="478,-1579.03 474.5,-1569.03 471,-1579.03 478,-1579.03"/>
</g>
<!-- node9 -->
<g id="node10" class="node">
<title>node9</title>
<polygon fill="lightgrey" stroke="black" points="714,-1496 235,-1496 235,-1460 714,-1460 714,-1496"/>
<text text-anchor="middle" x="474.5" y="-1474.3" font-family="Times,serif" font-size="14.00">#9 Label[context=CodeModel[id=1108889615], bci=5] Order: 9</text>
</g>
<!-- node8&#45;&gt;node9 -->
<g id="edge9" class="edge">
<title>node8&#45;&gt;node9</title>
<path fill="none" stroke="red" d="M474.5,-1532.81C474.5,-1524.79 474.5,-1515.05 474.5,-1506.07"/>
<polygon fill="red" stroke="red" points="478,-1506.03 474.5,-1496.03 471,-1506.03 478,-1506.03"/>
</g>
<!-- node10 -->
<g id="node11" class="node">
<title>node10</title>
<polygon fill="lightgrey" stroke="black" points="615,-1423 334,-1423 334,-1387 615,-1387 615,-1423"/>
<text text-anchor="middle" x="474.5" y="-1401.3" font-family="Times,serif" font-size="14.00">#10 LineNumber[line=10] Order: 10</text>
</g>
<!-- node9&#45;&gt;node10 -->
<g id="edge10" class="edge">
<title>node9&#45;&gt;node10</title>
<path fill="none" stroke="red" d="M474.5,-1459.81C474.5,-1451.79 474.5,-1442.05 474.5,-1433.07"/>
<polygon fill="red" stroke="red" points="478,-1433.03 474.5,-1423.03 471,-1433.03 478,-1433.03"/>
</g>
<!-- node11 -->
<g id="node12" class="node">
<title>node11</title>
<polygon fill="lightgrey" stroke="black" points="637.5,-1350 311.5,-1350 311.5,-1314 637.5,-1314 637.5,-1350"/>
<text text-anchor="middle" x="474.5" y="-1328.3" font-family="Times,serif" font-size="14.00">#11 Load[OP=ALOAD_3, slot=3] Order: 11</text>
</g>
<!-- node10&#45;&gt;node11 -->
<g id="edge11" class="edge">
<title>node10&#45;&gt;node11</title>
<path fill="none" stroke="red" d="M474.5,-1386.81C474.5,-1378.79 474.5,-1369.05 474.5,-1360.07"/>
<polygon fill="red" stroke="red" points="478,-1360.03 474.5,-1350.03 471,-1360.03 478,-1360.03"/>
</g>
<!-- node12 -->
<g id="node13" class="node">
<title>node12</title>
<polygon fill="lightgrey" stroke="black" points="635,-1277 314,-1277 314,-1241 635,-1241 635,-1277"/>
<text text-anchor="middle" x="474.5" y="-1255.3" font-family="Times,serif" font-size="14.00">#12 Load[OP=ILOAD_1, slot=1] Order: 12</text>
</g>
<!-- node11&#45;&gt;node12 -->
<g id="edge12" class="edge">
<title>node11&#45;&gt;node12</title>
<path fill="none" stroke="red" d="M474.5,-1313.81C474.5,-1305.79 474.5,-1296.05 474.5,-1287.07"/>
<polygon fill="red" stroke="red" points="478,-1287.03 474.5,-1277.03 471,-1287.03 478,-1287.03"/>
</g>
<!-- node13 -->
<g id="node14" class="node">
<title>node13</title>
<polygon fill="lightgrey" stroke="black" points="685.5,-1204 263.5,-1204 263.5,-1168 685.5,-1168 685.5,-1204"/>
<text text-anchor="middle" x="474.5" y="-1182.3" font-family="Times,serif" font-size="14.00">#13 ArgumentConstant[OP=BIPUSH, val=10] Order: 13</text>
</g>
<!-- node12&#45;&gt;node13 -->
<g id="edge13" class="edge">
<title>node12&#45;&gt;node13</title>
<path fill="none" stroke="red" d="M474.5,-1240.81C474.5,-1232.79 474.5,-1223.05 474.5,-1214.07"/>
<polygon fill="red" stroke="red" points="478,-1214.03 474.5,-1204.03 471,-1214.03 478,-1214.03"/>
</g>
<!-- node14 -->
<g id="node15" class="node">
<title>node14</title>
<polygon fill="lightgrey" stroke="black" points="701,-1131 248,-1131 248,-1095 701,-1095 701,-1131"/>
<text text-anchor="middle" x="474.5" y="-1109.3" font-family="Times,serif" font-size="14.00">#14 UnboundArrayStoreInstruction[op=IASTORE] Order: 14</text>
</g>
<!-- node13&#45;&gt;node14 -->
<g id="edge14" class="edge">
<title>node13&#45;&gt;node14</title>
<path fill="none" stroke="red" d="M474.5,-1167.81C474.5,-1159.79 474.5,-1150.05 474.5,-1141.07"/>
<polygon fill="red" stroke="red" points="478,-1141.03 474.5,-1131.03 471,-1141.03 478,-1141.03"/>
</g>
<!-- node15 -->
<g id="node16" class="node">
<title>node15</title>
<polygon fill="lightgrey" stroke="black" points="615,-1058 334,-1058 334,-1022 615,-1022 615,-1058"/>
<text text-anchor="middle" x="474.5" y="-1036.3" font-family="Times,serif" font-size="14.00">#15 LineNumber[line=11] Order: 15</text>
</g>
<!-- node14&#45;&gt;node15 -->
<g id="edge15" class="edge">
<title>node14&#45;&gt;node15</title>
<path fill="none" stroke="red" d="M474.5,-1094.81C474.5,-1086.79 474.5,-1077.05 474.5,-1068.07"/>
<polygon fill="red" stroke="red" points="478,-1068.03 474.5,-1058.03 471,-1068.03 478,-1068.03"/>
</g>
<!-- node16 -->
<g id="node17" class="node">
<title>node16</title>
<polygon fill="lightgrey" stroke="black" points="635,-985 314,-985 314,-949 635,-949 635,-985"/>
<text text-anchor="middle" x="474.5" y="-963.3" font-family="Times,serif" font-size="14.00">#16 Load[OP=ILOAD_0, slot=0] Order: 16</text>
</g>
<!-- node15&#45;&gt;node16 -->
<g id="edge16" class="edge">
<title>node15&#45;&gt;node16</title>
<path fill="none" stroke="red" d="M474.5,-1021.81C474.5,-1013.79 474.5,-1004.05 474.5,-995.07"/>
<polygon fill="red" stroke="red" points="478,-995.03 474.5,-985.03 471,-995.03 478,-995.03"/>
</g>
<!-- node17 -->
<g id="node18" class="node">
<title>node17</title>
<polygon fill="lightgrey" stroke="black" points="602.5,-912 346.5,-912 346.5,-876 602.5,-876 602.5,-912"/>
<text text-anchor="middle" x="474.5" y="-890.3" font-family="Times,serif" font-size="14.00">#17 Branch[OP=IFEQ] Order: 17</text>
</g>
<!-- node16&#45;&gt;node17 -->
<g id="edge17" class="edge">
<title>node16&#45;&gt;node17</title>
<path fill="none" stroke="red" d="M474.5,-948.81C474.5,-940.79 474.5,-931.05 474.5,-922.07"/>
<polygon fill="red" stroke="red" points="478,-922.03 474.5,-912.03 471,-922.03 478,-922.03"/>
</g>
<!-- node18 -->
<g id="node19" class="node">
<title>node18</title>
<polygon fill="lightgrey" stroke="black" points="410,-839 129,-839 129,-803 410,-803 410,-839"/>
<text text-anchor="middle" x="269.5" y="-817.3" font-family="Times,serif" font-size="14.00">#18 LineNumber[line=12] Order: 18</text>
</g>
<!-- node17&#45;&gt;node18 -->
<g id="edge18" class="edge">
<title>node17&#45;&gt;node18</title>
<path fill="none" stroke="red" d="M425.4,-875.99C396.32,-865.92 359.3,-853.1 328.63,-842.48"/>
<polygon fill="red" stroke="red" points="329.51,-839.08 318.91,-839.11 327.22,-845.69 329.51,-839.08"/>
</g>
<!-- node24 -->
<g id="node25" class="node">
<title>node24</title>
<polygon fill="lightgrey" stroke="black" points="934.5,-839 428.5,-839 428.5,-803 934.5,-803 934.5,-839"/>
<text text-anchor="middle" x="681.5" y="-817.3" font-family="Times,serif" font-size="14.00">#24 Label[context=CodeModel[id=1108889615], bci=22] Order: 24</text>
</g>
<!-- node17&#45;&gt;node24 -->
<g id="edge24" class="edge">
<title>node17&#45;&gt;node24</title>
<path fill="none" stroke="red" d="M524.08,-875.99C553.44,-865.92 590.82,-853.1 621.79,-842.48"/>
<polygon fill="red" stroke="red" points="623.28,-845.67 631.61,-839.11 621.01,-839.05 623.28,-845.67"/>
</g>
<!-- node19 -->
<g id="node20" class="node">
<title>node19</title>
<polygon fill="lightgrey" stroke="black" points="399.5,-766 73.5,-766 73.5,-730 399.5,-730 399.5,-766"/>
<text text-anchor="middle" x="236.5" y="-744.3" font-family="Times,serif" font-size="14.00">#19 Load[OP=ALOAD_3, slot=3] Order: 19</text>
</g>
<!-- node18&#45;&gt;node19 -->
<g id="edge19" class="edge">
<title>node18&#45;&gt;node19</title>
<path fill="none" stroke="red" d="M261.51,-802.81C257.66,-794.53 252.96,-784.41 248.67,-775.19"/>
<polygon fill="red" stroke="red" points="251.8,-773.62 244.41,-766.03 245.46,-776.57 251.8,-773.62"/>
</g>
<!-- node20 -->
<g id="node21" class="node">
<title>node20</title>
<polygon fill="lightgrey" stroke="black" points="389,-693 68,-693 68,-657 389,-657 389,-693"/>
<text text-anchor="middle" x="228.5" y="-671.3" font-family="Times,serif" font-size="14.00">#20 Load[OP=ILOAD_2, slot=2] Order: 20</text>
</g>
<!-- node19&#45;&gt;node20 -->
<g id="edge20" class="edge">
<title>node19&#45;&gt;node20</title>
<path fill="none" stroke="red" d="M234.56,-729.81C233.66,-721.79 232.56,-712.05 231.55,-703.07"/>
<polygon fill="red" stroke="red" points="235.02,-702.57 230.42,-693.03 228.06,-703.36 235.02,-702.57"/>
</g>
<!-- node21 -->
<g id="node22" class="node">
<title>node21</title>
<polygon fill="lightgrey" stroke="black" points="437.5,-620 15.5,-620 15.5,-584 437.5,-584 437.5,-620"/>
<text text-anchor="middle" x="226.5" y="-598.3" font-family="Times,serif" font-size="14.00">#21 ArgumentConstant[OP=BIPUSH, val=20] Order: 21</text>
</g>
<!-- node20&#45;&gt;node21 -->
<g id="edge21" class="edge">
<title>node20&#45;&gt;node21</title>
<path fill="none" stroke="red" d="M228.02,-656.81C227.79,-648.79 227.52,-639.05 227.26,-630.07"/>
<polygon fill="red" stroke="red" points="230.76,-629.93 226.98,-620.03 223.76,-630.12 230.76,-629.93"/>
</g>
<!-- node22 -->
<g id="node23" class="node">
<title>node22</title>
<polygon fill="lightgrey" stroke="black" points="453,-547 0,-547 0,-511 453,-511 453,-547"/>
<text text-anchor="middle" x="226.5" y="-525.3" font-family="Times,serif" font-size="14.00">#22 UnboundArrayStoreInstruction[op=IASTORE] Order: 22</text>
</g>
<!-- node21&#45;&gt;node22 -->
<g id="edge22" class="edge">
<title>node21&#45;&gt;node22</title>
<path fill="none" stroke="red" d="M226.5,-583.81C226.5,-575.79 226.5,-566.05 226.5,-557.07"/>
<polygon fill="red" stroke="red" points="230,-557.03 226.5,-547.03 223,-557.03 230,-557.03"/>
</g>
<!-- node23 -->
<g id="node24" class="node">
<title>node23</title>
<polygon fill="lightgrey" stroke="black" points="417.5,-474 155.5,-474 155.5,-438 417.5,-438 417.5,-474"/>
<text text-anchor="middle" x="286.5" y="-452.3" font-family="Times,serif" font-size="14.00">#23 Branch[OP=GOTO] Order: 23</text>
</g>
<!-- node22&#45;&gt;node23 -->
<g id="edge23" class="edge">
<title>node22&#45;&gt;node23</title>
<path fill="none" stroke="red" d="M241.02,-510.81C248.39,-502.09 257.48,-491.34 265.59,-481.75"/>
<polygon fill="red" stroke="red" points="268.33,-483.93 272.11,-474.03 262.98,-479.41 268.33,-483.93"/>
</g>
<!-- node30 -->
<g id="node31" class="node">
<title>node30</title>
<polygon fill="lightgrey" stroke="black" points="726.5,-401 220.5,-401 220.5,-365 726.5,-365 726.5,-401"/>
<text text-anchor="middle" x="473.5" y="-379.3" font-family="Times,serif" font-size="14.00">#30 Label[context=CodeModel[id=1108889615], bci=27] Order: 30</text>
</g>
<!-- node23&#45;&gt;node30 -->
<g id="edge30" class="edge">
<title>node23&#45;&gt;node30</title>
<path fill="none" stroke="red" d="M331.29,-437.99C357.58,-428.01 391,-415.32 418.83,-404.76"/>
<polygon fill="red" stroke="red" points="420.32,-407.94 428.43,-401.11 417.84,-401.39 420.32,-407.94"/>
</g>
<!-- node25 -->
<g id="node26" class="node">
<title>node25</title>
<polygon fill="lightgrey" stroke="black" points="822,-766 541,-766 541,-730 822,-730 822,-766"/>
<text text-anchor="middle" x="681.5" y="-744.3" font-family="Times,serif" font-size="14.00">#25 LineNumber[line=14] Order: 25</text>
</g>
<!-- node24&#45;&gt;node25 -->
<g id="edge25" class="edge">
<title>node24&#45;&gt;node25</title>
<path fill="none" stroke="red" d="M681.5,-802.81C681.5,-794.79 681.5,-785.05 681.5,-776.07"/>
<polygon fill="red" stroke="red" points="685,-776.03 681.5,-766.03 678,-776.03 685,-776.03"/>
</g>
<!-- node26 -->
<g id="node27" class="node">
<title>node26</title>
<polygon fill="lightgrey" stroke="black" points="844.5,-693 518.5,-693 518.5,-657 844.5,-657 844.5,-693"/>
<text text-anchor="middle" x="681.5" y="-671.3" font-family="Times,serif" font-size="14.00">#26 Load[OP=ALOAD_3, slot=3] Order: 26</text>
</g>
<!-- node25&#45;&gt;node26 -->
<g id="edge26" class="edge">
<title>node25&#45;&gt;node26</title>
<path fill="none" stroke="red" d="M681.5,-729.81C681.5,-721.79 681.5,-712.05 681.5,-703.07"/>
<polygon fill="red" stroke="red" points="685,-703.03 681.5,-693.03 678,-703.03 685,-703.03"/>
</g>
<!-- node27 -->
<g id="node28" class="node">
<title>node27</title>
<polygon fill="lightgrey" stroke="black" points="842,-620 521,-620 521,-584 842,-584 842,-620"/>
<text text-anchor="middle" x="681.5" y="-598.3" font-family="Times,serif" font-size="14.00">#27 Load[OP=ILOAD_2, slot=2] Order: 27</text>
</g>
<!-- node26&#45;&gt;node27 -->
<g id="edge27" class="edge">
<title>node26&#45;&gt;node27</title>
<path fill="none" stroke="red" d="M681.5,-656.81C681.5,-648.79 681.5,-639.05 681.5,-630.07"/>
<polygon fill="red" stroke="red" points="685,-630.03 681.5,-620.03 678,-630.03 685,-630.03"/>
</g>
<!-- node28 -->
<g id="node29" class="node">
<title>node28</title>
<polygon fill="lightgrey" stroke="black" points="893.5,-547 471.5,-547 471.5,-511 893.5,-511 893.5,-547"/>
<text text-anchor="middle" x="682.5" y="-525.3" font-family="Times,serif" font-size="14.00">#28 ArgumentConstant[OP=BIPUSH, val=30] Order: 28</text>
</g>
<!-- node27&#45;&gt;node28 -->
<g id="edge28" class="edge">
<title>node27&#45;&gt;node28</title>
<path fill="none" stroke="red" d="M681.74,-583.81C681.86,-575.79 681.99,-566.05 682.12,-557.07"/>
<polygon fill="red" stroke="red" points="685.62,-557.08 682.26,-547.03 678.62,-556.98 685.62,-557.08"/>
</g>
<!-- node29 -->
<g id="node30" class="node">
<title>node29</title>
<polygon fill="lightgrey" stroke="black" points="899,-474 446,-474 446,-438 899,-438 899,-474"/>
<text text-anchor="middle" x="672.5" y="-452.3" font-family="Times,serif" font-size="14.00">#29 UnboundArrayStoreInstruction[op=IASTORE] Order: 29</text>
</g>
<!-- node28&#45;&gt;node29 -->
<g id="edge29" class="edge">
<title>node28&#45;&gt;node29</title>
<path fill="none" stroke="red" d="M680.08,-510.81C678.95,-502.79 677.58,-493.05 676.31,-484.07"/>
<polygon fill="red" stroke="red" points="679.76,-483.44 674.9,-474.03 672.83,-484.42 679.76,-483.44"/>
</g>
<!-- node29&#45;&gt;node30 -->
<g id="edge31" class="edge">
<title>node29&#45;&gt;node30</title>
<path fill="none" stroke="red" d="M624.83,-437.99C596.61,-427.92 560.67,-415.1 530.9,-404.48"/>
<polygon fill="red" stroke="red" points="532.06,-401.18 521.47,-401.11 529.71,-407.77 532.06,-401.18"/>
</g>
<!-- node31 -->
<g id="node32" class="node">
<title>node31</title>
<polygon fill="lightgrey" stroke="black" points="614,-328 333,-328 333,-292 614,-292 614,-328"/>
<text text-anchor="middle" x="473.5" y="-306.3" font-family="Times,serif" font-size="14.00">#31 LineNumber[line=16] Order: 31</text>
</g>
<!-- node30&#45;&gt;node31 -->
<g id="edge32" class="edge">
<title>node30&#45;&gt;node31</title>
<path fill="none" stroke="red" d="M473.5,-364.81C473.5,-356.79 473.5,-347.05 473.5,-338.07"/>
<polygon fill="red" stroke="red" points="477,-338.03 473.5,-328.03 470,-338.03 477,-338.03"/>
</g>
<!-- node32 -->
<g id="node33" class="node">
<title>node32</title>
<polygon fill="lightgrey" stroke="black" points="636.5,-255 310.5,-255 310.5,-219 636.5,-219 636.5,-255"/>
<text text-anchor="middle" x="473.5" y="-233.3" font-family="Times,serif" font-size="14.00">#32 Load[OP=ALOAD_3, slot=3] Order: 32</text>
</g>
<!-- node31&#45;&gt;node32 -->
<g id="edge33" class="edge">
<title>node31&#45;&gt;node32</title>
<path fill="none" stroke="red" d="M473.5,-291.81C473.5,-283.79 473.5,-274.05 473.5,-265.07"/>
<polygon fill="red" stroke="red" points="477,-265.03 473.5,-255.03 470,-265.03 477,-265.03"/>
</g>
<!-- node33 -->
<g id="node34" class="node">
<title>node33</title>
<polygon fill="lightgrey" stroke="black" points="634,-182 313,-182 313,-146 634,-146 634,-182"/>
<text text-anchor="middle" x="473.5" y="-160.3" font-family="Times,serif" font-size="14.00">#33 Load[OP=ILOAD_2, slot=2] Order: 33</text>
</g>
<!-- node32&#45;&gt;node33 -->
<g id="edge34" class="edge">
<title>node32&#45;&gt;node33</title>
<path fill="none" stroke="red" d="M473.5,-218.81C473.5,-210.79 473.5,-201.05 473.5,-192.07"/>
<polygon fill="red" stroke="red" points="477,-192.03 473.5,-182.03 470,-192.03 477,-192.03"/>
</g>
<!-- node34 -->
<g id="node35" class="node">
<title>node34</title>
<polygon fill="lightgrey" stroke="black" points="693,-109 254,-109 254,-73 693,-73 693,-109"/>
<text text-anchor="middle" x="473.5" y="-87.3" font-family="Times,serif" font-size="14.00">#34 UnboundArrayLoadInstruction[op=IALOAD] Order: 34</text>
</g>
<!-- node33&#45;&gt;node34 -->
<g id="edge35" class="edge">
<title>node33&#45;&gt;node34</title>
<path fill="none" stroke="red" d="M473.5,-145.81C473.5,-137.79 473.5,-128.05 473.5,-119.07"/>
<polygon fill="red" stroke="red" points="477,-119.03 473.5,-109.03 470,-119.03 477,-119.03"/>
</g>
<!-- node35 -->
<g id="node36" class="node">
<title>node35</title>
<polygon fill="lightgrey" stroke="black" points="617,-36 330,-36 330,0 617,0 617,-36"/>
<text text-anchor="middle" x="473.5" y="-14.3" font-family="Times,serif" font-size="14.00">#35 Return[OP=IRETURN] Order: 35</text>
</g>
<!-- node34&#45;&gt;node35 -->
<g id="edge36" class="edge">
<title>node34&#45;&gt;node35</title>
<path fill="none" stroke="red" d="M473.5,-72.81C473.5,-64.79 473.5,-55.05 473.5,-46.07"/>
<polygon fill="red" stroke="red" points="477,-46.03 473.5,-36.03 470,-46.03 477,-46.03"/>
</g>
<!-- c0 -->
<!-- c1 -->
<!-- c0&#45;&gt;c1 -->
<g id="edge37" class="edge">
<title>c0&#45;&gt;c1</title>
<path fill="none" stroke="red" d="M914.39,-2135C925.61,-2135 983.74,-2135 1009.36,-2135"/>
<polygon fill="red" stroke="red" points="1009.56,-2138.5 1019.56,-2135 1009.56,-2131.5 1009.56,-2138.5"/>
<text text-anchor="middle" x="967" y="-2141.8" font-family="Times,serif" font-size="14.00">Control flow</text>
</g>
<!-- c2 -->
<!-- c3 -->
<!-- c2&#45;&gt;c3 -->
<g id="edge38" class="edge">
<title>c2&#45;&gt;c3</title>
<path fill="none" stroke="red" stroke-dasharray="5,2" d="M707.58,-2135C724.55,-2135 840.71,-2135 878.58,-2135"/>
<polygon fill="red" stroke="red" points="878.67,-2138.5 888.67,-2135 878.67,-2131.5 878.67,-2138.5"/>
<text text-anchor="middle" x="798" y="-2141.8" font-family="Times,serif" font-size="14.00">Control flow back edge</text>
</g>
</g>
</svg>
