<?xml version="1.0" encoding="UTF-8" standalone="no"?>
<!DOCTYPE svg PUBLIC "-//W3C//DTD SVG 1.1//EN"
 "http://www.w3.org/Graphics/SVG/1.1/DTD/svg11.dtd">
<!-- Generated by graphviz version 2.43.0 (0)
 -->
<!-- Title: %3 Pages: 1 -->
<svg width="1458pt" height="1043pt"
 viewBox="0.00 0.00 1457.66 1042.80" xmlns="http://www.w3.org/2000/svg" xmlns:xlink="http://www.w3.org/1999/xlink">
<g id="graph0" class="graph" transform="scale(1 1) rotate(0) translate(4 1038.8)">
<title>%3</title>
<polygon fill="white" stroke="transparent" points="-4,4 -4,-1038.8 1453.66,-1038.8 1453.66,4 -4,4"/>
<g id="clust1" class="cluster">
<title>cluster_0</title>
<polygon fill="none" stroke="lightgray" points="469.66,-284 469.66,-409 615.66,-409 615.66,-284 469.66,-284"/>
</g>
<g id="clust2" class="cluster">
<title>cluster_1</title>
<polygon fill="none" stroke="lightgray" points="348.66,-813 348.66,-938 484.66,-938 484.66,-813 348.66,-813"/>
</g>
<g id="clust3" class="cluster">
<title>cluster_2</title>
<polygon fill="none" stroke="lightgray" points="245.66,-357 245.66,-409 391.66,-409 391.66,-357 245.66,-357"/>
</g>
<g id="clust4" class="cluster">
<title>cluster_3</title>
<polygon fill="none" stroke="lightgray" points="149.66,-594 149.66,-719 329.66,-719 329.66,-594 149.66,-594"/>
</g>
<g id="clust5" class="cluster">
<title>cluster_4</title>
<polygon fill="none" stroke="lightgray" points="67.66,-740 67.66,-865 203.66,-865 203.66,-740 67.66,-740"/>
</g>
<g id="clust6" class="cluster">
<title>cluster_000</title>
<polygon fill="none" stroke="black" points="588.66,-984.2 588.66,-1026.8 1441.66,-1026.8 1441.66,-984.2 588.66,-984.2"/>
<text text-anchor="middle" x="1015.16" y="-1011.6" font-family="Times,serif" font-size="14.00">Legend</text>
</g>
<!-- node0 -->
<g id="node1" class="node">
<title>node0</title>
<polygon fill="lightgrey" stroke="transparent" points="579.16,-1021 342.16,-1021 342.16,-967 579.16,-967 579.16,-1021"/>
<polygon fill="none" stroke="black" points="342.66,-994 342.66,-1021 579.66,-1021 579.66,-994 342.66,-994"/>
<text text-anchor="start" x="420.66" y="-1003.8" font-family="Times,serif" font-size="14.00">#0 Method</text>
<polygon fill="yellow" stroke="transparent" points="342.66,-967 342.66,-994 421.66,-994 421.66,-967 342.66,-967"/>
<polygon fill="none" stroke="black" points="342.66,-967 342.66,-994 421.66,-994 421.66,-967 342.66,-967"/>
<text text-anchor="start" x="348.66" y="-976.8" font-family="Times,serif" font-size="14.00">arg0 : int</text>
<polygon fill="yellow" stroke="transparent" points="421.66,-967 421.66,-994 500.66,-994 500.66,-967 421.66,-967"/>
<polygon fill="none" stroke="black" points="421.66,-967 421.66,-994 500.66,-994 500.66,-967 421.66,-967"/>
<text text-anchor="start" x="427.66" y="-976.8" font-family="Times,serif" font-size="14.00">arg1 : int</text>
<polygon fill="yellow" stroke="transparent" points="500.66,-967 500.66,-994 579.66,-994 579.66,-967 500.66,-967"/>
<polygon fill="none" stroke="black" points="500.66,-967 500.66,-994 579.66,-994 579.66,-967 500.66,-967"/>
<text text-anchor="start" x="506.66" y="-976.8" font-family="Times,serif" font-size="14.00">arg2 : int</text>
</g>
<!-- node7 -->
<g id="node2" class="node">
<title>node7</title>
<polygon fill="orange" stroke="black" points="527.96,-758.54 527.96,-773.46 462.76,-784 370.55,-784 305.35,-773.46 305.35,-758.54 370.55,-748 462.76,-748 527.96,-758.54"/>
<text text-anchor="middle" x="416.66" y="-762.3" font-family="Times,serif" font-size="14.00">#7 NewArray : int[]</text>
</g>
<!-- node0&#45;&gt;node7 -->
<g id="edge2" class="edge">
<title>node0&#45;&gt;node7</title>
<path fill="none" stroke="green" d="M375.65,-966.94C363.35,-959.52 352.28,-950.05 344.66,-938 314.96,-891.05 317.97,-861.72 344.66,-813 349.79,-803.63 357.73,-795.9 366.49,-789.62"/>
<polygon fill="green" stroke="green" points="368.6,-792.42 375.08,-784.03 364.79,-786.55 368.6,-792.42"/>
</g>
<!-- node4 -->
<g id="node4" class="node">
<title>node4</title>
<polygon fill="lightgrey" stroke="black" points="476.16,-930 357.16,-930 357.16,-894 476.16,-894 476.16,-930"/>
<text text-anchor="middle" x="416.66" y="-908.3" font-family="Times,serif" font-size="14.00">#4 LabelNode</text>
</g>
<!-- node0&#45;&gt;node4 -->
<g id="edge4" class="edge">
<title>node0&#45;&gt;node4</title>
<path fill="none" stroke="red" d="M446.25,-966.81C441.34,-957.88 435.85,-947.9 430.95,-938.99"/>
<polygon fill="red" stroke="red" points="433.99,-937.25 426.1,-930.17 427.86,-940.62 433.99,-937.25"/>
</g>
<!-- node9 -->
<g id="node6" class="node">
<title>node9</title>
<polygon fill="lightgrey" stroke="black" points="321.66,-711 157.66,-711 157.66,-675 321.66,-675 321.66,-711"/>
<text text-anchor="middle" x="239.66" y="-689.3" font-family="Times,serif" font-size="14.00">#9 ArrayStore : int[]</text>
</g>
<!-- node0&#45;&gt;node9 -->
<g id="edge7" class="edge">
<title>node0:prj1&#45;&gt;node9</title>
<path fill="none" stroke="black" d="M461.66,-967C461.66,-941.57 372.85,-956.84 348.66,-949 315,-938.09 277.66,-948.38 277.66,-913 277.66,-913 277.66,-913 277.66,-765 277.66,-748.53 269.61,-732.18 260.92,-719.33"/>
<polygon fill="black" stroke="black" points="263.6,-717.07 254.89,-711.04 257.94,-721.18 263.6,-717.07"/>
<text text-anchor="middle" x="272.39" y="-717.03" font-family="Times,serif" font-size="14.00">*1</text>
</g>
<!-- node11 -->
<g id="node9" class="node">
<title>node11</title>
<polygon fill="orange" stroke="black" points="305.47,-539.54 305.47,-554.46 215.96,-565 89.36,-565 -0.16,-554.46 -0.16,-539.54 89.36,-529 215.96,-529 305.47,-539.54"/>
<text text-anchor="middle" x="152.66" y="-543.3" font-family="Times,serif" font-size="14.00">#11 NumericCondition : EQ</text>
</g>
<!-- node0&#45;&gt;node11 -->
<g id="edge13" class="edge">
<title>node0:prj2&#45;&gt;node11</title>
<path fill="none" stroke="black" d="M341.66,-980C308.15,-980 47.66,-946.5 47.66,-913 47.66,-913 47.66,-913 47.66,-619 47.66,-596.38 64.59,-580.48 84.85,-569.55"/>
<polygon fill="black" stroke="black" points="86.6,-572.58 94.02,-565.02 83.5,-566.31 86.6,-572.58"/>
<text text-anchor="middle" x="81.51" y="-576.92" font-family="Times,serif" font-size="14.00">*0</text>
</g>
<!-- node17 -->
<g id="node12" class="node">
<title>node17</title>
<polygon fill="lightgrey" stroke="black" points="421.16,-328 248.16,-328 248.16,-292 421.16,-292 421.16,-328"/>
<text text-anchor="middle" x="334.66" y="-306.3" font-family="Times,serif" font-size="14.00">#17 ArrayStore : int[]</text>
</g>
<!-- node0&#45;&gt;node17 -->
<g id="edge19" class="edge">
<title>node0:prj3&#45;&gt;node17</title>
<path fill="none" stroke="black" d="M540.66,-967C540.66,-942.09 555.66,-937.91 555.66,-913 555.66,-913 555.66,-913 555.66,-802 555.66,-595.96 548.77,-522.22 425.66,-357 418.23,-347.03 408.03,-339.07 397.14,-332.77"/>
<polygon fill="black" stroke="black" points="398.76,-329.67 388.29,-328.06 395.47,-335.85 398.76,-329.67"/>
<text text-anchor="middle" x="408.26" y="-325.41" font-family="Times,serif" font-size="14.00">*1</text>
</g>
<!-- node22 -->
<g id="node13" class="node">
<title>node22</title>
<polygon fill="lightgrey" stroke="black" points="864.66,-109 706.66,-109 706.66,-73 864.66,-73 864.66,-109"/>
<text text-anchor="middle" x="785.66" y="-87.3" font-family="Times,serif" font-size="14.00">#22 ArrayLoad : int</text>
</g>
<!-- node0&#45;&gt;node22 -->
<g id="edge24" class="edge">
<title>node0:prj3&#45;&gt;node22</title>
<path fill="none" stroke="black" d="M580.66,-980C586.7,-980 580.2,-971.09 584.66,-967 626.71,-928.44 835.66,-970.05 835.66,-913 835.66,-913 835.66,-913 835.66,-163 835.66,-145.4 825.26,-129.08 813.94,-116.54"/>
<polygon fill="black" stroke="black" points="816.34,-113.98 806.86,-109.24 811.31,-118.86 816.34,-113.98"/>
<text text-anchor="middle" x="825.55" y="-112.67" font-family="Times,serif" font-size="14.00">*1</text>
</g>
<!-- node19 -->
<g id="node16" class="node">
<title>node19</title>
<polygon fill="lightgrey" stroke="black" points="696.16,-255 523.16,-255 523.16,-219 696.16,-219 696.16,-255"/>
<text text-anchor="middle" x="609.66" y="-233.3" font-family="Times,serif" font-size="14.00">#19 ArrayStore : int[]</text>
</g>
<!-- node0&#45;&gt;node19 -->
<g id="edge32" class="edge">
<title>node0:prj3&#45;&gt;node19</title>
<path fill="none" stroke="black" d="M580.66,-980C586.7,-980 580.62,-971.5 584.66,-967 625.05,-921.93 709.66,-973.52 709.66,-913 709.66,-913 709.66,-913 709.66,-309 709.66,-286.65 692.85,-270.69 673.01,-259.64"/>
<polygon fill="black" stroke="black" points="674.54,-256.5 664.05,-255.05 671.35,-262.73 674.54,-256.5"/>
<text text-anchor="middle" x="684.03" y="-252.09" font-family="Times,serif" font-size="14.00">*1</text>
</g>
<!-- node7&#45;&gt;node9 -->
<g id="edge6" class="edge">
<title>node7&#45;&gt;node9</title>
<path fill="none" stroke="black" d="M368.87,-748.17C343.06,-738.25 311.39,-725.6 285.83,-715.02"/>
<polygon fill="black" stroke="black" points="286.94,-711.69 276.36,-711.07 284.25,-718.15 286.94,-711.69"/>
<text text-anchor="middle" x="296.34" y="-706.54" font-family="Times,serif" font-size="14.00">*0</text>
</g>
<!-- node7&#45;&gt;node9 -->
<g id="edge9" class="edge">
<title>node7&#45;&gt;node9</title>
<path fill="none" stroke="green" d="M380.12,-747.99C356.3,-738.01 324.78,-725.32 297.6,-714.76"/>
<polygon fill="green" stroke="green" points="298.78,-711.46 288.19,-711.11 296.25,-717.99 298.78,-711.46"/>
</g>
<!-- node7&#45;&gt;node17 -->
<g id="edge18" class="edge">
<title>node7&#45;&gt;node17</title>
<path fill="none" stroke="black" d="M414.77,-747.81C413.35,-733.44 411.66,-712.41 411.66,-694 411.66,-694 411.66,-694 411.66,-382 411.66,-361.72 397.04,-345.63 380.54,-333.93"/>
<polygon fill="black" stroke="black" points="382.09,-330.76 371.8,-328.21 378.25,-336.62 382.09,-330.76"/>
<text text-anchor="middle" x="391.6" y="-327.37" font-family="Times,serif" font-size="14.00">*0</text>
</g>
<!-- node7&#45;&gt;node22 -->
<g id="edge23" class="edge">
<title>node7&#45;&gt;node22</title>
<path fill="none" stroke="black" d="M527.87,-764.73C636.52,-761.37 785.66,-747.09 785.66,-694 785.66,-694 785.66,-694 785.66,-163 785.66,-148.65 785.66,-132.67 785.66,-119.51"/>
<polygon fill="black" stroke="black" points="789.16,-119.22 785.66,-109.22 782.16,-119.22 789.16,-119.22"/>
<text text-anchor="middle" x="794.11" y="-123.64" font-family="Times,serif" font-size="14.00">*0</text>
</g>
<!-- node7&#45;&gt;node19 -->
<g id="edge31" class="edge">
<title>node7&#45;&gt;node19</title>
<path fill="none" stroke="black" d="M513.06,-756.1C585.27,-746.67 671.66,-728.24 671.66,-694 671.66,-694 671.66,-694 671.66,-309 671.66,-290.08 659.02,-273.77 645.15,-261.57"/>
<polygon fill="black" stroke="black" points="647.35,-258.85 637.39,-255.23 642.92,-264.27 647.35,-258.85"/>
<text text-anchor="middle" x="656.78" y="-256.46" font-family="Times,serif" font-size="14.00">*0</text>
</g>
<!-- node6 -->
<g id="node3" class="node">
<title>node6</title>
<polygon fill="lightgreen" stroke="black" points="475.84,-831.54 475.84,-846.46 441.17,-857 392.14,-857 357.47,-846.46 357.47,-831.54 392.14,-821 441.17,-821 475.84,-831.54"/>
<text text-anchor="middle" x="416.66" y="-835.3" font-family="Times,serif" font-size="14.00">#6 int 10</text>
</g>
<!-- node6&#45;&gt;node7 -->
<g id="edge1" class="edge">
<title>node6&#45;&gt;node7</title>
<path fill="none" stroke="black" d="M416.66,-820.81C416.66,-812.79 416.66,-803.05 416.66,-794.07"/>
<polygon fill="black" stroke="black" points="420.16,-794.03 416.66,-784.03 413.16,-794.03 420.16,-794.03"/>
<text text-anchor="middle" x="425.11" y="-798.45" font-family="Times,serif" font-size="14.00">*0</text>
</g>
<!-- node4&#45;&gt;node6 -->
<g id="edge3" class="edge">
<title>node4&#45;&gt;node6</title>
<path fill="none" stroke="black" stroke-dasharray="1,5" d="M416.66,-893.81C416.66,-885.79 416.66,-876.05 416.66,-867.07"/>
<polygon fill="black" stroke="black" points="420.16,-867.03 416.66,-857.03 413.16,-867.03 420.16,-867.03"/>
</g>
<!-- node5 -->
<g id="node5" class="node">
<title>node5</title>
<polygon fill="lightgrey" stroke="black" points="195.16,-857 76.16,-857 76.16,-821 195.16,-821 195.16,-857"/>
<text text-anchor="middle" x="135.66" y="-835.3" font-family="Times,serif" font-size="14.00">#5 LabelNode</text>
</g>
<!-- node4&#45;&gt;node5 -->
<g id="edge5" class="edge">
<title>node4&#45;&gt;node5</title>
<path fill="none" stroke="red" d="M357.07,-895.94C312.55,-884.69 251.58,-869.29 204.9,-857.5"/>
<polygon fill="red" stroke="red" points="205.72,-854.09 195.16,-855.04 204,-860.88 205.72,-854.09"/>
</g>
<!-- node5&#45;&gt;node9 -->
<g id="edge10" class="edge">
<title>node5&#45;&gt;node9</title>
<path fill="none" stroke="red" d="M164.17,-820.88C177.93,-811.44 193.77,-798.65 204.66,-784 218.66,-765.15 227.82,-739.99 233.24,-721.06"/>
<polygon fill="red" stroke="red" points="236.66,-721.83 235.87,-711.27 229.9,-720.01 236.66,-721.83"/>
</g>
<!-- node8 -->
<g id="node7" class="node">
<title>node8</title>
<polygon fill="lightgreen" stroke="black" points="195.84,-758.54 195.84,-773.46 161.17,-784 112.14,-784 77.47,-773.46 77.47,-758.54 112.14,-748 161.17,-748 195.84,-758.54"/>
<text text-anchor="middle" x="136.66" y="-762.3" font-family="Times,serif" font-size="14.00">#8 int 10</text>
</g>
<!-- node5&#45;&gt;node8 -->
<g id="edge11" class="edge">
<title>node5&#45;&gt;node8</title>
<path fill="none" stroke="black" stroke-dasharray="1,5" d="M135.9,-820.81C136.01,-812.79 136.15,-803.05 136.28,-794.07"/>
<polygon fill="black" stroke="black" points="139.78,-794.08 136.42,-784.03 132.78,-793.98 139.78,-794.08"/>
</g>
<!-- node10 -->
<g id="node8" class="node">
<title>node10</title>
<polygon fill="lightgreen" stroke="black" points="285.84,-612.54 285.84,-627.46 251.17,-638 202.14,-638 167.47,-627.46 167.47,-612.54 202.14,-602 251.17,-602 285.84,-612.54"/>
<text text-anchor="middle" x="226.66" y="-616.3" font-family="Times,serif" font-size="14.00">#10 int 0</text>
</g>
<!-- node9&#45;&gt;node10 -->
<g id="edge12" class="edge">
<title>node9&#45;&gt;node10</title>
<path fill="none" stroke="black" stroke-dasharray="1,5" d="M236.51,-674.81C235.04,-666.79 233.26,-657.05 231.61,-648.07"/>
<polygon fill="black" stroke="black" points="235.02,-647.23 229.78,-638.03 228.13,-648.5 235.02,-647.23"/>
</g>
<!-- node12 -->
<g id="node10" class="node">
<title>node12</title>
<polygon fill="lightgrey" stroke="transparent" points="378.16,-492 289.16,-492 289.16,-438 378.16,-438 378.16,-492"/>
<polygon fill="none" stroke="black" points="289.66,-465 289.66,-492 378.66,-492 378.66,-465 289.66,-465"/>
<text text-anchor="start" x="311.16" y="-474.8" font-family="Times,serif" font-size="14.00">#12 If</text>
<polygon fill="yellow" stroke="transparent" points="289.66,-438 289.66,-465 335.66,-465 335.66,-438 289.66,-438"/>
<polygon fill="none" stroke="black" points="289.66,-438 289.66,-465 335.66,-465 335.66,-438 289.66,-438"/>
<text text-anchor="start" x="295.66" y="-447.8" font-family="Times,serif" font-size="14.00">false</text>
<polygon fill="yellow" stroke="transparent" points="335.66,-438 335.66,-465 378.66,-465 378.66,-438 335.66,-438"/>
<polygon fill="none" stroke="black" points="335.66,-438 335.66,-465 378.66,-465 378.66,-438 335.66,-438"/>
<text text-anchor="start" x="341.66" y="-447.8" font-family="Times,serif" font-size="14.00">true</text>
</g>
<!-- node9&#45;&gt;node12 -->
<g id="edge16" class="edge">
<title>node9&#45;&gt;node12</title>
<path fill="none" stroke="red" d="M262.02,-674.91C273.3,-665.21 286.32,-652.19 294.66,-638 319.5,-595.71 328.52,-539 331.8,-502.47"/>
<polygon fill="red" stroke="red" points="335.3,-502.52 332.61,-492.28 328.32,-501.97 335.3,-502.52"/>
</g>
<!-- node9&#45;&gt;node17 -->
<g id="edge21" class="edge">
<title>node9&#45;&gt;node17</title>
<path fill="none" stroke="green" d="M321.73,-685.8C446.38,-674.48 674.19,-645.72 723.66,-584 787.18,-504.74 700.5,-411.54 619.66,-357 611.69,-351.62 510.89,-336.17 431.4,-324.65"/>
<polygon fill="green" stroke="green" points="431.73,-321.16 421.33,-323.19 430.72,-328.08 431.73,-321.16"/>
</g>
<!-- node9&#45;&gt;node19 -->
<g id="edge34" class="edge">
<title>node9&#45;&gt;node19</title>
<path fill="none" stroke="green" d="M321.75,-690.79C473.57,-686.54 788.39,-667.6 849.66,-584 937.82,-463.71 846.05,-358.22 723.66,-273 715.78,-267.51 707.01,-262.86 697.93,-258.93"/>
<polygon fill="green" stroke="green" points="698.97,-255.58 688.39,-255.09 696.36,-262.07 698.97,-255.58"/>
</g>
<!-- node8&#45;&gt;node9 -->
<g id="edge8" class="edge">
<title>node8&#45;&gt;node9</title>
<path fill="none" stroke="black" d="M161.33,-747.99C174.86,-738.67 191.82,-726.97 206.5,-716.86"/>
<polygon fill="black" stroke="black" points="208.58,-719.67 214.83,-711.11 204.61,-713.91 208.58,-719.67"/>
<text text-anchor="middle" x="204.7" y="-724.66" font-family="Times,serif" font-size="14.00">*2</text>
</g>
<!-- node10&#45;&gt;node11 -->
<g id="edge14" class="edge">
<title>node10&#45;&gt;node11</title>
<path fill="none" stroke="black" d="M208.74,-601.81C199.47,-592.92 188,-581.91 177.85,-572.17"/>
<polygon fill="black" stroke="black" points="180.05,-569.43 170.41,-565.03 175.2,-574.48 180.05,-569.43"/>
<text text-anchor="middle" x="189.34" y="-567.78" font-family="Times,serif" font-size="14.00">*1</text>
</g>
<!-- node11&#45;&gt;node12 -->
<g id="edge15" class="edge">
<title>node11&#45;&gt;node12</title>
<path fill="none" stroke="black" d="M191.49,-528.84C217.15,-517.49 251.15,-502.47 279.47,-489.95"/>
<polygon fill="black" stroke="black" points="281.1,-493.06 288.83,-485.81 278.27,-486.65 281.1,-493.06"/>
<text text-anchor="middle" x="275.67" y="-497.17" font-family="Times,serif" font-size="14.00">*0</text>
</g>
<!-- node16 -->
<g id="node11" class="node">
<title>node16</title>
<polygon fill="lightgreen" stroke="black" points="384.01,-375.54 384.01,-390.46 345.73,-401 291.59,-401 253.31,-390.46 253.31,-375.54 291.59,-365 345.73,-365 384.01,-375.54"/>
<text text-anchor="middle" x="318.66" y="-379.3" font-family="Times,serif" font-size="14.00">#16 int 20</text>
</g>
<!-- node12&#45;&gt;node16 -->
<g id="edge17" class="edge">
<title>node12:prj14&#45;&gt;node16</title>
<path fill="none" stroke="black" stroke-dasharray="1,5" d="M312.66,-438C312.66,-429.38 313.42,-420.03 314.41,-411.57"/>
<polygon fill="black" stroke="black" points="317.9,-411.82 315.73,-401.46 310.96,-410.92 317.9,-411.82"/>
</g>
<!-- node12&#45;&gt;node17 -->
<g id="edge22" class="edge">
<title>node12:prj14&#45;&gt;node17</title>
<path fill="none" stroke="red" d="M288.66,-451C241.95,-451 217.02,-396.68 241.66,-357 247.76,-347.18 256.65,-339.39 266.54,-333.23"/>
<polygon fill="red" stroke="red" points="268.45,-336.18 275.45,-328.23 265.02,-330.07 268.45,-336.18"/>
</g>
<!-- node15 -->
<g id="node18" class="node">
<title>node15</title>
<polygon fill="lightgrey" stroke="black" points="605.66,-401 477.66,-401 477.66,-365 605.66,-365 605.66,-401"/>
<text text-anchor="middle" x="541.66" y="-379.3" font-family="Times,serif" font-size="14.00">#15 LabelNode</text>
</g>
<!-- node12&#45;&gt;node15 -->
<g id="edge36" class="edge">
<title>node12:prj13&#45;&gt;node15</title>
<path fill="none" stroke="red" d="M379.66,-451C427.17,-451 476.97,-426.09 508.6,-406.65"/>
<polygon fill="red" stroke="red" points="510.83,-409.38 517.42,-401.08 507.1,-403.46 510.83,-409.38"/>
</g>
<!-- node16&#45;&gt;node17 -->
<g id="edge20" class="edge">
<title>node16&#45;&gt;node17</title>
<path fill="none" stroke="black" d="M322.53,-364.81C324.34,-356.79 326.53,-347.05 328.56,-338.07"/>
<polygon fill="black" stroke="black" points="332.04,-338.55 330.82,-328.03 325.21,-337.01 332.04,-338.55"/>
<text text-anchor="middle" x="335.08" y="-343.87" font-family="Times,serif" font-size="14.00">*2</text>
</g>
<!-- node21 -->
<g id="node14" class="node">
<title>node21</title>
<polygon fill="lightgrey" stroke="black" points="697.66,-182 521.66,-182 521.66,-146 697.66,-146 697.66,-182"/>
<text text-anchor="middle" x="609.66" y="-160.3" font-family="Times,serif" font-size="14.00">#21 Merge : Merge30</text>
</g>
<!-- node17&#45;&gt;node21 -->
<g id="edge29" class="edge">
<title>node17&#45;&gt;node21</title>
<path fill="none" stroke="green" d="M419.43,-291.95C434.78,-289.11 450.67,-286.33 465.66,-284 518.74,-275.74 670.02,-295.2 705.66,-255 716.27,-243.03 713.74,-232.81 705.66,-219 697.66,-205.32 684.78,-194.84 671.02,-186.92"/>
<polygon fill="green" stroke="green" points="672.37,-183.68 661.9,-182.08 669.09,-189.86 672.37,-183.68"/>
</g>
<!-- node20 -->
<g id="node15" class="node">
<title>node20</title>
<polygon fill="lightgrey" stroke="black" points="475.16,-255 390.16,-255 390.16,-219 475.16,-219 475.16,-255"/>
<text text-anchor="middle" x="432.66" y="-233.3" font-family="Times,serif" font-size="14.00">#20 Goto</text>
</g>
<!-- node17&#45;&gt;node20 -->
<g id="edge38" class="edge">
<title>node17&#45;&gt;node20</title>
<path fill="none" stroke="red" d="M358.38,-291.81C371.14,-282.57 387.05,-271.04 400.87,-261.03"/>
<polygon fill="red" stroke="red" points="403.11,-263.73 409.15,-255.03 399,-258.06 403.11,-263.73"/>
</g>
<!-- node23 -->
<g id="node19" class="node">
<title>node23</title>
<polygon fill="lightgrey" stroke="black" points="872.16,-36 699.16,-36 699.16,0 872.16,0 872.16,-36"/>
<text text-anchor="middle" x="785.66" y="-14.3" font-family="Times,serif" font-size="14.00">#23 ReturnValue : int</text>
</g>
<!-- node22&#45;&gt;node23 -->
<g id="edge39" class="edge">
<title>node22&#45;&gt;node23</title>
<path fill="none" stroke="black" d="M773.9,-72.81C772.22,-64.79 771.76,-55.05 772.5,-46.07"/>
<polygon fill="black" stroke="black" points="775.99,-46.42 773.93,-36.03 769.06,-45.43 775.99,-46.42"/>
<text text-anchor="middle" x="779.74" y="-51.47" font-family="Times,serif" font-size="14.00">*0</text>
</g>
<!-- node22&#45;&gt;node23 -->
<g id="edge40" class="edge">
<title>node22&#45;&gt;node23</title>
<path fill="none" stroke="red" d="M785.66,-72.81C785.66,-64.79 785.66,-55.05 785.66,-46.07"/>
<polygon fill="red" stroke="red" points="789.16,-46.03 785.66,-36.03 782.16,-46.03 789.16,-46.03"/>
</g>
<!-- node22&#45;&gt;node23 -->
<g id="edge41" class="edge">
<title>node22&#45;&gt;node23</title>
<path fill="none" stroke="green" d="M797.41,-72.81C799.09,-64.79 799.56,-55.05 798.81,-46.07"/>
<polygon fill="green" stroke="green" points="802.26,-45.43 797.38,-36.03 795.33,-46.42 802.26,-45.43"/>
</g>
<!-- node21&#45;&gt;node22 -->
<g id="edge25" class="edge">
<title>node21&#45;&gt;node22</title>
<path fill="none" stroke="green" d="M645.96,-145.99C669.64,-136.01 700.98,-123.32 728,-112.76"/>
<polygon fill="green" stroke="green" points="729.31,-116 737.36,-109.11 726.78,-109.48 729.31,-116"/>
</g>
<!-- node21&#45;&gt;node22 -->
<g id="edge26" class="edge">
<title>node21&#45;&gt;node22</title>
<path fill="none" stroke="red" d="M657.67,-145.99C683.25,-136.1 714.49,-123.54 739.75,-113.03"/>
<polygon fill="red" stroke="red" points="741.23,-116.2 749.11,-109.11 738.53,-109.75 741.23,-116.2"/>
</g>
<!-- node20&#45;&gt;node21 -->
<g id="edge27" class="edge">
<title>node20&#45;&gt;node21</title>
<path fill="none" stroke="red" d="M475.05,-218.99C499.83,-209.06 531.29,-196.43 557.57,-185.89"/>
<polygon fill="red" stroke="red" points="559.02,-189.08 566.99,-182.11 556.41,-182.59 559.02,-189.08"/>
</g>
<!-- node19&#45;&gt;node21 -->
<g id="edge28" class="edge">
<title>node19&#45;&gt;node21</title>
<path fill="none" stroke="red" d="M603.78,-218.81C602.94,-210.79 602.71,-201.05 603.08,-192.07"/>
<polygon fill="red" stroke="red" points="606.58,-192.25 603.8,-182.03 599.59,-191.75 606.58,-192.25"/>
</g>
<!-- node19&#45;&gt;node21 -->
<g id="edge30" class="edge">
<title>node19&#45;&gt;node21</title>
<path fill="none" stroke="green" d="M615.54,-218.81C616.38,-210.79 616.61,-201.05 616.24,-192.07"/>
<polygon fill="green" stroke="green" points="619.72,-191.75 615.52,-182.03 612.74,-192.25 619.72,-191.75"/>
</g>
<!-- node18 -->
<g id="node17" class="node">
<title>node18</title>
<polygon fill="lightgreen" stroke="black" points="608.01,-302.54 608.01,-317.46 569.73,-328 515.59,-328 477.31,-317.46 477.31,-302.54 515.59,-292 569.73,-292 608.01,-302.54"/>
<text text-anchor="middle" x="542.66" y="-306.3" font-family="Times,serif" font-size="14.00">#18 int 30</text>
</g>
<!-- node18&#45;&gt;node19 -->
<g id="edge33" class="edge">
<title>node18&#45;&gt;node19</title>
<path fill="none" stroke="black" d="M558.88,-291.81C567.19,-283 577.46,-272.13 586.58,-262.46"/>
<polygon fill="black" stroke="black" points="589.27,-264.7 593.59,-255.03 584.18,-259.9 589.27,-264.7"/>
<text text-anchor="middle" x="587.3" y="-270.31" font-family="Times,serif" font-size="14.00">*2</text>
</g>
<!-- node15&#45;&gt;node19 -->
<g id="edge35" class="edge">
<title>node15&#45;&gt;node19</title>
<path fill="none" stroke="red" d="M505.89,-364.93C491.57,-356.07 476.61,-343.77 468.66,-328 459.85,-310.54 457.17,-299.83 468.66,-284 479.63,-268.88 495.71,-258.63 513.12,-251.71"/>
<polygon fill="red" stroke="red" points="514.68,-254.87 522.91,-248.2 512.31,-248.29 514.68,-254.87"/>
</g>
<!-- node15&#45;&gt;node18 -->
<g id="edge37" class="edge">
<title>node15&#45;&gt;node18</title>
<path fill="none" stroke="black" stroke-dasharray="1,5" d="M541.9,-364.81C542.01,-356.79 542.15,-347.05 542.28,-338.07"/>
<polygon fill="black" stroke="black" points="545.78,-338.08 542.42,-328.03 538.78,-337.98 545.78,-338.08"/>
</g>
<!-- c0 -->
<!-- c1 -->
<!-- c0&#45;&gt;c1 -->
<g id="edge42" class="edge">
<title>c0&#45;&gt;c1</title>
<path fill="none" stroke="red" d="M1324.55,-994C1335.76,-994 1393.9,-994 1419.52,-994"/>
<polygon fill="red" stroke="red" points="1419.71,-997.5 1429.71,-994 1419.71,-990.5 1419.71,-997.5"/>
<text text-anchor="middle" x="1377.16" y="-1000.8" font-family="Times,serif" font-size="14.00">Control flow</text>
</g>
<!-- c2 -->
<!-- c3 -->
<!-- c2&#45;&gt;c3 -->
<g id="edge43" class="edge">
<title>c2&#45;&gt;c3</title>
<path fill="none" stroke="red" stroke-dasharray="5,2" d="M1117.74,-994C1134.71,-994 1250.86,-994 1288.74,-994"/>
<polygon fill="red" stroke="red" points="1288.83,-997.5 1298.83,-994 1288.83,-990.5 1288.83,-997.5"/>
<text text-anchor="middle" x="1208.16" y="-1000.8" font-family="Times,serif" font-size="14.00">Control flow back edge</text>
</g>
<!-- d0 -->
<!-- d1 -->
<!-- d0&#45;&gt;d1 -->
<g id="edge44" class="edge">
<title>d0&#45;&gt;d1</title>
<path fill="none" stroke="black" d="M1006.52,-994C1016.06,-994 1059.97,-994 1081.58,-994"/>
<polygon fill="black" stroke="black" points="1081.81,-997.5 1091.81,-994 1081.81,-990.5 1081.81,-997.5"/>
<text text-anchor="middle" x="1049.16" y="-1000.8" font-family="Times,serif" font-size="14.00">Data flow</text>
</g>
<!-- d2 -->
<!-- d3 -->
<!-- d2&#45;&gt;d3 -->
<g id="edge45" class="edge">
<title>d2&#45;&gt;d3</title>
<path fill="none" stroke="black" stroke-dasharray="1,5" d="M880.46,-994C891.11,-994 946.12,-994 970.73,-994"/>
<polygon fill="black" stroke="black" points="970.8,-997.5 980.8,-994 970.8,-990.5 970.8,-997.5"/>
<text text-anchor="middle" x="930.66" y="-1000.8" font-family="Times,serif" font-size="14.00">Declaration</text>
</g>
<!-- d4 -->
<!-- d5 -->
<!-- d4&#45;&gt;d5 -->
<g id="edge46" class="edge">
<title>d4&#45;&gt;d5</title>
<path fill="none" stroke="blue" d="M737.76,-994C750.38,-994 816.54,-994 844.34,-994"/>
<polygon fill="blue" stroke="blue" points="844.5,-997.5 854.5,-994 844.5,-990.5 844.5,-997.5"/>
<text text-anchor="middle" x="796.16" y="-1000.8" font-family="Times,serif" font-size="14.00">PHI Data flow</text>
</g>
<!-- d6 -->
<!-- d7 -->
<!-- d6&#45;&gt;d7 -->
<g id="edge47" class="edge">
<title>d6&#45;&gt;d7</title>
<path fill="none" stroke="green" d="M600.65,-994C612.59,-994 674.96,-994 701.59,-994"/>
<polygon fill="green" stroke="green" points="701.61,-997.5 711.61,-994 701.61,-990.5 701.61,-997.5"/>
<text text-anchor="middle" x="656.16" y="-1000.8" font-family="Times,serif" font-size="14.00">Memory flow</text>
</g>
</g>
</svg>
