<?xml version="1.0" encoding="UTF-8" standalone="no"?>
<!DOCTYPE svg PUBLIC "-//W3C//DTD SVG 1.1//EN"
 "http://www.w3.org/Graphics/SVG/1.1/DTD/svg11.dtd">
<!-- Generated by graphviz version 2.43.0 (0)
 -->
<!-- Title: %3 Pages: 1 -->
<svg width="1676pt" height="897pt"
 viewBox="0.00 0.00 1676.00 896.80" xmlns="http://www.w3.org/2000/svg" xmlns:xlink="http://www.w3.org/1999/xlink">
<g id="graph0" class="graph" transform="scale(1 1) rotate(0) translate(4 892.8)">
<title>%3</title>
<polygon fill="white" stroke="transparent" points="-4,4 -4,-892.8 1672,-892.8 1672,4 -4,4"/>
<g id="clust1" class="cluster">
<title>cluster_0</title>
<polygon fill="none" stroke="lightgray" points="310,-448 310,-573 500,-573 500,-448 310,-448"/>
</g>
<g id="clust2" class="cluster">
<title>cluster_1</title>
<polygon fill="none" stroke="lightgray" points="327,-594 327,-719 473,-719 473,-594 327,-594"/>
</g>
<g id="clust3" class="cluster">
<title>cluster_2</title>
<polygon fill="none" stroke="lightgray" points="183,-667 183,-792 319,-792 319,-667 183,-667"/>
</g>
<g id="clust4" class="cluster">
<title>cluster_000</title>
<polygon fill="none" stroke="black" points="807,-838.2 807,-880.8 1660,-880.8 1660,-838.2 807,-838.2"/>
<text text-anchor="middle" x="1233.5" y="-865.6" font-family="Times,serif" font-size="14.00">Legend</text>
</g>
<!-- node0 -->
<g id="node1" class="node">
<title>node0</title>
<polygon fill="lightgrey" stroke="transparent" points="797.5,-875 560.5,-875 560.5,-821 797.5,-821 797.5,-875"/>
<polygon fill="none" stroke="black" points="561,-848 561,-875 798,-875 798,-848 561,-848"/>
<text text-anchor="start" x="639" y="-857.8" font-family="Times,serif" font-size="14.00">#0 Method</text>
<polygon fill="yellow" stroke="transparent" points="561,-821 561,-848 640,-848 640,-821 561,-821"/>
<polygon fill="none" stroke="black" points="561,-821 561,-848 640,-848 640,-821 561,-821"/>
<text text-anchor="start" x="567" y="-830.8" font-family="Times,serif" font-size="14.00">arg0 : int</text>
<polygon fill="yellow" stroke="transparent" points="640,-821 640,-848 719,-848 719,-821 640,-821"/>
<polygon fill="none" stroke="black" points="640,-821 640,-848 719,-848 719,-821 640,-821"/>
<text text-anchor="start" x="646" y="-830.8" font-family="Times,serif" font-size="14.00">arg1 : int</text>
<polygon fill="yellow" stroke="transparent" points="719,-821 719,-848 798,-848 798,-821 719,-821"/>
<polygon fill="none" stroke="black" points="719,-821 719,-848 798,-848 798,-821 719,-821"/>
<text text-anchor="start" x="725" y="-830.8" font-family="Times,serif" font-size="14.00">arg2 : int</text>
</g>
<!-- node4 -->
<g id="node2" class="node">
<title>node4</title>
<polygon fill="lightgrey" stroke="black" points="310.5,-784 191.5,-784 191.5,-748 310.5,-748 310.5,-784"/>
<text text-anchor="middle" x="251" y="-762.3" font-family="Times,serif" font-size="14.00">#4 LabelNode</text>
</g>
<!-- node0&#45;&gt;node4 -->
<g id="edge1" class="edge">
<title>node0&#45;&gt;node4</title>
<path fill="none" stroke="red" d="M560.35,-824.82C483.32,-810.42 385.58,-792.16 320.81,-780.05"/>
<polygon fill="red" stroke="red" points="321.17,-776.56 310.7,-778.16 319.89,-783.44 321.17,-776.56"/>
</g>
<!-- node11 -->
<g id="node4" class="node">
<title>node11</title>
<polygon fill="lightgrey" stroke="black" points="491.5,-565 318.5,-565 318.5,-529 491.5,-529 491.5,-565"/>
<text text-anchor="middle" x="405" y="-543.3" font-family="Times,serif" font-size="14.00">#11 ArrayStore : int[]</text>
</g>
<!-- node0&#45;&gt;node11 -->
<g id="edge4" class="edge">
<title>node0:prj2&#45;&gt;node11</title>
<path fill="none" stroke="black" d="M680,-821C680,-777.28 619.9,-819.61 586,-792 508.11,-728.57 545.67,-667.31 477,-594 468.6,-585.04 458.1,-577.06 447.74,-570.36"/>
<polygon fill="black" stroke="black" points="449.47,-567.32 439.12,-565.05 445.8,-573.28 449.47,-567.32"/>
<text text-anchor="middle" x="458.98" y="-563.66" font-family="Times,serif" font-size="14.00">*1</text>
</g>
<!-- node9 -->
<g id="node5" class="node">
<title>node9</title>
<polygon fill="orange" stroke="black" points="279.3,-612.54 279.3,-627.46 214.1,-638 121.9,-638 56.7,-627.46 56.7,-612.54 121.9,-602 214.1,-602 279.3,-612.54"/>
<text text-anchor="middle" x="168" y="-616.3" font-family="Times,serif" font-size="14.00">#9 NewArray : int[]</text>
</g>
<!-- node0&#45;&gt;node9 -->
<g id="edge9" class="edge">
<title>node0&#45;&gt;node9</title>
<path fill="none" stroke="green" d="M580.86,-820.91C570.86,-815.92 561.34,-810 553,-803 499.98,-758.47 533.97,-706.35 477,-667 468.11,-660.86 350.55,-644.54 263.06,-633.09"/>
<polygon fill="green" stroke="green" points="263.45,-629.61 253.09,-631.79 262.55,-636.55 263.45,-629.61"/>
</g>
<!-- node16 -->
<g id="node8" class="node">
<title>node16</title>
<polygon fill="lightgrey" stroke="black" points="649.5,-255 476.5,-255 476.5,-219 649.5,-219 649.5,-255"/>
<text text-anchor="middle" x="563" y="-233.3" font-family="Times,serif" font-size="14.00">#16 ArrayStore : int[]</text>
</g>
<!-- node0&#45;&gt;node16 -->
<g id="edge12" class="edge">
<title>node0:prj3&#45;&gt;node16</title>
<path fill="none" stroke="black" d="M799,-834C805.05,-834 798.51,-825.05 803,-821 851.76,-776.94 892.29,-826.86 948,-792 959.83,-784.6 967,-780.96 967,-767 967,-767 967,-767 967,-318 967,-310.2 779.09,-275.83 659.58,-254.76"/>
<polygon fill="black" stroke="black" points="660.12,-251.3 649.67,-253.01 658.91,-258.19 660.12,-251.3"/>
<text text-anchor="middle" x="668.99" y="-244.13" font-family="Times,serif" font-size="14.00">*1</text>
</g>
<!-- node5 -->
<g id="node9" class="node">
<title>node5</title>
<polygon fill="orange" stroke="black" points="739.42,-758.54 739.42,-773.46 697,-784 637,-784 594.58,-773.46 594.58,-758.54 637,-748 697,-748 739.42,-758.54"/>
<text text-anchor="middle" x="667" y="-762.3" font-family="Times,serif" font-size="14.00">#5 Add : int</text>
</g>
<!-- node0&#45;&gt;node5 -->
<g id="edge29" class="edge">
<title>node0:prj2&#45;&gt;node5</title>
<path fill="none" stroke="black" d="M680,-821C680,-812.09 678.31,-802.57 676.14,-794.05"/>
<polygon fill="black" stroke="black" points="679.46,-792.91 673.35,-784.26 672.72,-794.83 679.46,-792.91"/>
<text text-anchor="middle" x="686.45" y="-795.67" font-family="Times,serif" font-size="14.00">*0</text>
</g>
<!-- node0&#45;&gt;node5 -->
<g id="edge30" class="edge">
<title>node0:prj3&#45;&gt;node5</title>
<path fill="none" stroke="black" d="M759,-821C759,-809.48 737.29,-796.41 714.96,-786.01"/>
<polygon fill="black" stroke="black" points="716.31,-782.78 705.75,-781.88 713.44,-789.17 716.31,-782.78"/>
<text text-anchor="middle" x="725.75" y="-777.89" font-family="Times,serif" font-size="14.00">*1</text>
</g>
<!-- node13 -->
<g id="node11" class="node">
<title>node13</title>
<polygon fill="orange" stroke="black" points="662.82,-393.54 662.82,-408.46 573.3,-419 446.7,-419 357.18,-408.46 357.18,-393.54 446.7,-383 573.3,-383 662.82,-393.54"/>
<text text-anchor="middle" x="510" y="-397.3" font-family="Times,serif" font-size="14.00">#13 NumericCondition : EQ</text>
</g>
<!-- node0&#45;&gt;node13 -->
<g id="edge18" class="edge">
<title>node0:prj1&#45;&gt;node13</title>
<path fill="none" stroke="black" d="M560,-834C399.42,-834 569,-599.29 569,-584 569,-584 569,-584 569,-473 569,-454.51 557.02,-438.27 543.86,-426"/>
<polygon fill="black" stroke="black" points="545.9,-423.14 536.05,-419.25 541.32,-428.44 545.9,-423.14"/>
<text text-anchor="middle" x="555.29" y="-421.01" font-family="Times,serif" font-size="14.00">*0</text>
</g>
<!-- node20 -->
<g id="node14" class="node">
<title>node20</title>
<polygon fill="lightgrey" stroke="black" points="823.5,-182 650.5,-182 650.5,-146 823.5,-146 823.5,-182"/>
<text text-anchor="middle" x="737" y="-160.3" font-family="Times,serif" font-size="14.00">#20 ArrayStore : int[]</text>
</g>
<!-- node0&#45;&gt;node20 -->
<g id="edge23" class="edge">
<title>node0:prj3&#45;&gt;node20</title>
<path fill="none" stroke="black" d="M799,-834C805.05,-834 798.46,-824.99 803,-821 817.22,-808.49 953.57,-799.42 971,-792 988.26,-784.65 1005,-785.76 1005,-767 1005,-767 1005,-767 1005,-236 1005,-199.44 910.61,-181.26 833.86,-172.53"/>
<polygon fill="black" stroke="black" points="833.96,-169.02 823.64,-171.41 833.2,-175.98 833.96,-169.02"/>
<text text-anchor="middle" x="842.58" y="-161.29" font-family="Times,serif" font-size="14.00">*1</text>
</g>
<!-- node6 -->
<g id="node15" class="node">
<title>node6</title>
<polygon fill="orange" stroke="black" points="939.42,-758.54 939.42,-773.46 897,-784 837,-784 794.58,-773.46 794.58,-758.54 837,-748 897,-748 939.42,-758.54"/>
<text text-anchor="middle" x="867" y="-762.3" font-family="Times,serif" font-size="14.00">#6 Sub : int</text>
</g>
<!-- node0&#45;&gt;node6 -->
<g id="edge27" class="edge">
<title>node0:prj2&#45;&gt;node6</title>
<path fill="none" stroke="black" d="M680,-821C680,-808 747.6,-791.11 801.51,-779.71"/>
<polygon fill="black" stroke="black" points="802.33,-783.11 811.4,-777.65 800.9,-776.26 802.33,-783.11"/>
<text text-anchor="middle" x="795.38" y="-785.92" font-family="Times,serif" font-size="14.00">*0</text>
</g>
<!-- node0&#45;&gt;node6 -->
<g id="edge28" class="edge">
<title>node0:prj3&#45;&gt;node6</title>
<path fill="none" stroke="black" d="M799,-834C805.05,-834 799.67,-826.04 803,-821 810.67,-809.4 821.54,-798.94 832.15,-790.37"/>
<polygon fill="black" stroke="black" points="834.36,-793.08 840.15,-784.21 830.09,-787.54 834.36,-793.08"/>
<text text-anchor="middle" x="830.95" y="-798.26" font-family="Times,serif" font-size="14.00">*1</text>
</g>
<!-- node22 -->
<g id="node16" class="node">
<title>node22</title>
<polygon fill="lightgrey" stroke="black" points="300,-565 142,-565 142,-529 300,-529 300,-565"/>
<text text-anchor="middle" x="221" y="-543.3" font-family="Times,serif" font-size="14.00">#22 ArrayLoad : int</text>
</g>
<!-- node0&#45;&gt;node22 -->
<g id="edge32" class="edge">
<title>node0:prj3&#45;&gt;node22</title>
<path fill="none" stroke="black" d="M759,-821C759,-788.19 766.58,-775.05 748,-748 669.57,-633.8 608.52,-637.51 477,-594 404.3,-569.95 380.98,-588.52 306,-573 298.77,-571.5 291.27,-569.69 283.85,-567.73"/>
<polygon fill="black" stroke="black" points="284.74,-564.35 274.17,-565.09 282.89,-571.1 284.74,-564.35"/>
<text text-anchor="middle" x="293.88" y="-558.01" font-family="Times,serif" font-size="14.00">*1</text>
</g>
<!-- node7 -->
<g id="node3" class="node">
<title>node7</title>
<polygon fill="lightgrey" stroke="black" points="454.5,-711 335.5,-711 335.5,-675 454.5,-675 454.5,-711"/>
<text text-anchor="middle" x="395" y="-689.3" font-family="Times,serif" font-size="14.00">#7 LabelNode</text>
</g>
<!-- node4&#45;&gt;node7 -->
<g id="edge2" class="edge">
<title>node4&#45;&gt;node7</title>
<path fill="none" stroke="red" d="M285.49,-747.99C305.21,-738.27 330.13,-725.99 351.21,-715.59"/>
<polygon fill="red" stroke="red" points="352.87,-718.68 360.29,-711.11 349.77,-712.4 352.87,-718.68"/>
</g>
<!-- node8 -->
<g id="node7" class="node">
<title>node8</title>
<polygon fill="lightgreen" stroke="black" points="309.19,-685.54 309.19,-700.46 274.52,-711 225.48,-711 190.81,-700.46 190.81,-685.54 225.48,-675 274.52,-675 309.19,-685.54"/>
<text text-anchor="middle" x="250" y="-689.3" font-family="Times,serif" font-size="14.00">#8 int 10</text>
</g>
<!-- node4&#45;&gt;node8 -->
<g id="edge10" class="edge">
<title>node4&#45;&gt;node8</title>
<path fill="none" stroke="black" stroke-dasharray="1,5" d="M250.76,-747.81C250.64,-739.79 250.51,-730.05 250.38,-721.07"/>
<polygon fill="black" stroke="black" points="253.88,-720.98 250.24,-711.03 246.88,-721.08 253.88,-720.98"/>
</g>
<!-- node7&#45;&gt;node11 -->
<g id="edge7" class="edge">
<title>node7&#45;&gt;node11</title>
<path fill="none" stroke="red" d="M361.87,-674.98C348.11,-666 333.6,-653.59 326,-638 317.43,-620.42 316.25,-610.95 326,-594 331.51,-584.41 339.87,-576.64 349.13,-570.4"/>
<polygon fill="red" stroke="red" points="351.11,-573.29 357.82,-565.09 347.46,-567.31 351.11,-573.29"/>
</g>
<!-- node10 -->
<g id="node6" class="node">
<title>node10</title>
<polygon fill="lightgreen" stroke="black" points="465.35,-612.54 465.35,-627.46 427.07,-638 372.93,-638 334.65,-627.46 334.65,-612.54 372.93,-602 427.07,-602 465.35,-612.54"/>
<text text-anchor="middle" x="400" y="-616.3" font-family="Times,serif" font-size="14.00">#10 int 10</text>
</g>
<!-- node7&#45;&gt;node10 -->
<g id="edge42" class="edge">
<title>node7&#45;&gt;node10</title>
<path fill="none" stroke="black" stroke-dasharray="1,5" d="M396.21,-674.81C396.78,-666.79 397.46,-657.05 398.09,-648.07"/>
<polygon fill="black" stroke="black" points="401.59,-648.25 398.8,-638.03 394.61,-647.76 401.59,-648.25"/>
</g>
<!-- node11&#45;&gt;node16 -->
<g id="edge14" class="edge">
<title>node11&#45;&gt;node16</title>
<path fill="none" stroke="green" d="M318.41,-530.54C315.24,-530.02 312.09,-529.5 309,-529 254.46,-520.18 236.34,-533.76 186,-511 117.03,-479.82 54.04,-424.14 100,-364 144.22,-306.14 343.99,-268.54 466.22,-250.52"/>
<polygon fill="green" stroke="green" points="466.95,-253.95 476.34,-249.04 465.94,-247.02 466.95,-253.95"/>
</g>
<!-- node14 -->
<g id="node10" class="node">
<title>node14</title>
<polygon fill="lightgrey" stroke="transparent" points="584.5,-346 495.5,-346 495.5,-292 584.5,-292 584.5,-346"/>
<polygon fill="none" stroke="black" points="496,-319 496,-346 585,-346 585,-319 496,-319"/>
<text text-anchor="start" x="517.5" y="-328.8" font-family="Times,serif" font-size="14.00">#14 If</text>
<polygon fill="yellow" stroke="transparent" points="496,-292 496,-319 542,-319 542,-292 496,-292"/>
<polygon fill="none" stroke="black" points="496,-292 496,-319 542,-319 542,-292 496,-292"/>
<text text-anchor="start" x="502" y="-301.8" font-family="Times,serif" font-size="14.00">false</text>
<polygon fill="yellow" stroke="transparent" points="542,-292 542,-319 585,-319 585,-292 542,-292"/>
<polygon fill="none" stroke="black" points="542,-292 542,-319 585,-319 585,-292 542,-292"/>
<text text-anchor="start" x="548" y="-301.8" font-family="Times,serif" font-size="14.00">true</text>
</g>
<!-- node11&#45;&gt;node14 -->
<g id="edge17" class="edge">
<title>node11&#45;&gt;node14</title>
<path fill="none" stroke="red" d="M421.83,-528.73C439.9,-508.05 463.66,-473.05 445,-448 418.12,-411.91 374.88,-455.09 348,-419 338.44,-406.17 338.61,-395.96 348,-383 379.03,-340.17 440.09,-325.93 485.06,-321.47"/>
<polygon fill="red" stroke="red" points="485.59,-324.94 495.26,-320.6 484.99,-317.96 485.59,-324.94"/>
</g>
<!-- node12 -->
<g id="node12" class="node">
<title>node12</title>
<polygon fill="lightgreen" stroke="black" points="436.19,-466.54 436.19,-481.46 401.52,-492 352.48,-492 317.81,-481.46 317.81,-466.54 352.48,-456 401.52,-456 436.19,-466.54"/>
<text text-anchor="middle" x="377" y="-470.3" font-family="Times,serif" font-size="14.00">#12 int 0</text>
</g>
<!-- node11&#45;&gt;node12 -->
<g id="edge20" class="edge">
<title>node11&#45;&gt;node12</title>
<path fill="none" stroke="black" stroke-dasharray="1,5" d="M398.22,-528.81C394.99,-520.62 391.05,-510.62 387.44,-501.48"/>
<polygon fill="black" stroke="black" points="390.64,-500.05 383.72,-492.03 384.13,-502.62 390.64,-500.05"/>
</g>
<!-- node11&#45;&gt;node20 -->
<g id="edge25" class="edge">
<title>node11&#45;&gt;node20</title>
<path fill="none" stroke="green" d="M348.78,-528.98C306.88,-512.95 252.8,-484.34 228,-438 212.48,-409 211.87,-392.66 228,-364 288.95,-255.73 351.23,-264.09 467,-219 498.18,-206.86 576.02,-191.84 640.15,-180.73"/>
<polygon fill="green" stroke="green" points="641.05,-184.13 650.31,-178.98 639.87,-177.23 641.05,-184.13"/>
</g>
<!-- node9&#45;&gt;node11 -->
<g id="edge3" class="edge">
<title>node9&#45;&gt;node11</title>
<path fill="none" stroke="black" d="M217.46,-602.44C250.73,-592.14 295.08,-578.82 332.33,-567.93"/>
<polygon fill="black" stroke="black" points="333.51,-571.23 342.13,-565.08 331.55,-564.51 333.51,-571.23"/>
<text text-anchor="middle" x="327.09" y="-574.56" font-family="Times,serif" font-size="14.00">*0</text>
</g>
<!-- node9&#45;&gt;node11 -->
<g id="edge6" class="edge">
<title>node9&#45;&gt;node11</title>
<path fill="none" stroke="green" d="M224.8,-603.68C260.91,-593.24 307.57,-579.31 344.39,-568"/>
<polygon fill="green" stroke="green" points="345.48,-571.32 354.01,-565.03 343.42,-564.63 345.48,-571.32"/>
</g>
<!-- node9&#45;&gt;node16 -->
<g id="edge11" class="edge">
<title>node9&#45;&gt;node16</title>
<path fill="none" stroke="black" d="M68.33,-610.54C32.16,-601.49 0,-583.46 0,-548 0,-548 0,-548 0,-318 0,-271.51 304.81,-250.12 465.87,-242.07"/>
<polygon fill="black" stroke="black" points="466.45,-245.54 476.27,-241.55 466.11,-238.55 466.45,-245.54"/>
<text text-anchor="middle" x="458.58" y="-247.19" font-family="Times,serif" font-size="14.00">*0</text>
</g>
<!-- node9&#45;&gt;node20 -->
<g id="edge22" class="edge">
<title>node9&#45;&gt;node20</title>
<path fill="none" stroke="black" d="M144.79,-601.83C130.15,-588.88 114,-569.68 114,-548 114,-548 114,-548 114,-236 114,-180.12 558.54,-188.83 614,-182 622.55,-180.95 631.43,-179.81 640.32,-178.64"/>
<polygon fill="black" stroke="black" points="640.9,-182.09 650.36,-177.3 639.98,-175.15 640.9,-182.09"/>
<text text-anchor="middle" x="633.5" y="-184.37" font-family="Times,serif" font-size="14.00">*0</text>
</g>
<!-- node9&#45;&gt;node22 -->
<g id="edge31" class="edge">
<title>node9&#45;&gt;node22</title>
<path fill="none" stroke="black" d="M180.83,-601.81C187.21,-593.27 195.05,-582.77 202.1,-573.32"/>
<polygon fill="black" stroke="black" points="205.11,-575.14 208.29,-565.03 199.5,-570.95 205.11,-575.14"/>
<text text-anchor="middle" x="204.22" y="-580.91" font-family="Times,serif" font-size="14.00">*0</text>
</g>
<!-- node10&#45;&gt;node11 -->
<g id="edge5" class="edge">
<title>node10&#45;&gt;node11</title>
<path fill="none" stroke="black" d="M401.21,-601.81C401.78,-593.79 402.46,-584.05 403.09,-575.07"/>
<polygon fill="black" stroke="black" points="406.59,-575.25 403.8,-565.03 399.61,-574.76 406.59,-575.25"/>
<text text-anchor="middle" x="410.96" y="-580" font-family="Times,serif" font-size="14.00">*2</text>
</g>
<!-- node8&#45;&gt;node9 -->
<g id="edge8" class="edge">
<title>node8&#45;&gt;node9</title>
<path fill="none" stroke="black" d="M230.15,-674.81C219.67,-665.74 206.66,-654.48 195.26,-644.6"/>
<polygon fill="black" stroke="black" points="197.52,-641.93 187.67,-638.03 192.94,-647.22 197.52,-641.93"/>
<text text-anchor="middle" x="206.9" y="-639.8" font-family="Times,serif" font-size="14.00">*0</text>
</g>
<!-- node21 -->
<g id="node17" class="node">
<title>node21</title>
<polygon fill="lightgrey" stroke="black" points="651,-109 475,-109 475,-73 651,-73 651,-109"/>
<text text-anchor="middle" x="563" y="-87.3" font-family="Times,serif" font-size="14.00">#21 Merge : Merge34</text>
</g>
<!-- node16&#45;&gt;node21 -->
<g id="edge36" class="edge">
<title>node16&#45;&gt;node21</title>
<path fill="none" stroke="green" d="M539.78,-218.97C528.83,-209.47 516.89,-196.61 511,-182 505.02,-167.16 505.02,-160.84 511,-146 515.55,-134.7 523.73,-124.45 532.27,-115.99"/>
<polygon fill="green" stroke="green" points="534.82,-118.39 539.78,-109.03 530.07,-113.25 534.82,-118.39"/>
</g>
<!-- node18 -->
<g id="node18" class="node">
<title>node18</title>
<polygon fill="lightgrey" stroke="black" points="605.5,-182 520.5,-182 520.5,-146 605.5,-146 605.5,-182"/>
<text text-anchor="middle" x="563" y="-160.3" font-family="Times,serif" font-size="14.00">#18 Goto</text>
</g>
<!-- node16&#45;&gt;node18 -->
<g id="edge38" class="edge">
<title>node16&#45;&gt;node18</title>
<path fill="none" stroke="red" d="M563,-218.81C563,-210.79 563,-201.05 563,-192.07"/>
<polygon fill="red" stroke="red" points="566.5,-192.03 563,-182.03 559.5,-192.03 566.5,-192.03"/>
</g>
<!-- node5&#45;&gt;node16 -->
<g id="edge13" class="edge">
<title>node5&#45;&gt;node16</title>
<path fill="none" stroke="black" d="M694.74,-747.77C711.24,-735.18 729,-716.42 729,-694 729,-694 729,-694 729,-318 729,-295.45 678.66,-273.48 633.43,-258.28"/>
<polygon fill="black" stroke="black" points="634.46,-254.94 623.87,-255.14 632.28,-261.59 634.46,-254.94"/>
<text text-anchor="middle" x="643.73" y="-249.07" font-family="Times,serif" font-size="14.00">*2</text>
</g>
<!-- node14&#45;&gt;node16 -->
<g id="edge15" class="edge">
<title>node14:prj15&#45;&gt;node16</title>
<path fill="none" stroke="red" d="M519,-292C519,-280.8 524.76,-270.63 532.12,-262.22"/>
<polygon fill="red" stroke="red" points="534.69,-264.59 539.2,-255 529.69,-259.69 534.69,-264.59"/>
</g>
<!-- node19 -->
<g id="node13" class="node">
<title>node19</title>
<polygon fill="lightgrey" stroke="black" points="801,-255 673,-255 673,-219 801,-219 801,-255"/>
<text text-anchor="middle" x="737" y="-233.3" font-family="Times,serif" font-size="14.00">#19 LabelNode</text>
</g>
<!-- node14&#45;&gt;node19 -->
<g id="edge21" class="edge">
<title>node14:prj17&#45;&gt;node19</title>
<path fill="none" stroke="red" d="M586,-305C630.58,-305 676.68,-280.3 706.03,-260.9"/>
<polygon fill="red" stroke="red" points="708.28,-263.6 714.58,-255.08 704.35,-257.81 708.28,-263.6"/>
</g>
<!-- node13&#45;&gt;node14 -->
<g id="edge16" class="edge">
<title>node13&#45;&gt;node14</title>
<path fill="none" stroke="black" d="M516.51,-382.64C519.48,-374.73 523.11,-365.05 526.61,-355.7"/>
<polygon fill="black" stroke="black" points="529.96,-356.74 530.2,-346.15 523.41,-354.28 529.96,-356.74"/>
<text text-anchor="middle" x="531.74" y="-362.39" font-family="Times,serif" font-size="14.00">*0</text>
</g>
<!-- node12&#45;&gt;node13 -->
<g id="edge19" class="edge">
<title>node12&#45;&gt;node13</title>
<path fill="none" stroke="black" d="M406.19,-457.42C424.62,-447.58 448.71,-434.72 469.05,-423.86"/>
<polygon fill="black" stroke="black" points="470.92,-426.83 478.09,-419.04 467.62,-420.66 470.92,-426.83"/>
<text text-anchor="middle" x="466.08" y="-431.33" font-family="Times,serif" font-size="14.00">*1</text>
</g>
<!-- node19&#45;&gt;node20 -->
<g id="edge26" class="edge">
<title>node19&#45;&gt;node20</title>
<path fill="none" stroke="red" d="M737,-218.81C737,-210.79 737,-201.05 737,-192.07"/>
<polygon fill="red" stroke="red" points="740.5,-192.03 737,-182.03 733.5,-192.03 740.5,-192.03"/>
</g>
<!-- node20&#45;&gt;node21 -->
<g id="edge35" class="edge">
<title>node20&#45;&gt;node21</title>
<path fill="none" stroke="red" d="M689.46,-145.99C664.16,-136.1 633.28,-123.54 608.32,-113.03"/>
<polygon fill="red" stroke="red" points="609.64,-109.79 599.07,-109.11 606.91,-116.24 609.64,-109.79"/>
</g>
<!-- node20&#45;&gt;node21 -->
<g id="edge37" class="edge">
<title>node20&#45;&gt;node21</title>
<path fill="none" stroke="green" d="M701.18,-145.99C677.88,-136.06 647.07,-123.43 620.42,-112.89"/>
<polygon fill="green" stroke="green" points="621.4,-109.52 610.81,-109.11 618.83,-116.03 621.4,-109.52"/>
</g>
<!-- node6&#45;&gt;node20 -->
<g id="edge24" class="edge">
<title>node6&#45;&gt;node20</title>
<path fill="none" stroke="black" d="M867,-747.78C867,-733.41 867,-712.37 867,-694 867,-694 867,-694 867,-236 867,-212.6 850.57,-196.86 829.4,-186.3"/>
<polygon fill="black" stroke="black" points="830.62,-183.01 820.07,-182.08 827.74,-189.39 830.62,-183.01"/>
<text text-anchor="middle" x="840.07" y="-178.14" font-family="Times,serif" font-size="14.00">*2</text>
</g>
<!-- node23 -->
<g id="node19" class="node">
<title>node23</title>
<polygon fill="lightgrey" stroke="black" points="354.5,-36 181.5,-36 181.5,0 354.5,0 354.5,-36"/>
<text text-anchor="middle" x="268" y="-14.3" font-family="Times,serif" font-size="14.00">#23 ReturnValue : int</text>
</g>
<!-- node22&#45;&gt;node23 -->
<g id="edge39" class="edge">
<title>node22&#45;&gt;node23</title>
<path fill="none" stroke="black" d="M225.53,-528.76C232.24,-514.88 242,-494.54 242,-475 242,-475 242,-475 242,-90 242,-75.05 245.61,-58.81 250.38,-45.63"/>
<polygon fill="black" stroke="black" points="253.68,-46.81 254.22,-36.23 247.2,-44.17 253.68,-46.81"/>
<text text-anchor="middle" x="255.2" y="-52.51" font-family="Times,serif" font-size="14.00">*0</text>
</g>
<!-- node22&#45;&gt;node23 -->
<g id="edge41" class="edge">
<title>node22&#45;&gt;node23</title>
<path fill="none" stroke="green" d="M240.19,-528.76C250.24,-514.88 260,-494.54 260,-475 260,-475 260,-475 260,-90 260,-75.2 263.54,-59.13 266.53,-46.02"/>
<polygon fill="green" stroke="green" points="269.95,-46.76 268.74,-36.23 263.12,-45.22 269.95,-46.76"/>
</g>
<!-- node21&#45;&gt;node22 -->
<g id="edge33" class="edge">
<title>node21&#45;&gt;node22</title>
<path fill="none" stroke="green" d="M651.15,-97.78C720.89,-104.41 810.19,-118.18 833,-146 864.39,-184.29 833.84,-211.61 810,-255 787.07,-296.75 710.19,-390.53 672,-419 606.73,-467.66 581.84,-468.15 504,-492 421.5,-517.28 395.75,-512.41 310.07,-528.26"/>
<polygon fill="green" stroke="green" points="309.35,-524.83 300.17,-530.13 310.65,-531.71 309.35,-524.83"/>
</g>
<!-- node21&#45;&gt;node23 -->
<g id="edge40" class="edge">
<title>node21&#45;&gt;node23</title>
<path fill="none" stroke="red" d="M492.34,-72.99C449.16,-62.6 393.78,-49.27 348.85,-38.46"/>
<polygon fill="red" stroke="red" points="349.39,-34.99 338.85,-36.05 347.75,-41.79 349.39,-34.99"/>
</g>
<!-- node18&#45;&gt;node21 -->
<g id="edge34" class="edge">
<title>node18&#45;&gt;node21</title>
<path fill="none" stroke="red" d="M563,-145.81C563,-137.79 563,-128.05 563,-119.07"/>
<polygon fill="red" stroke="red" points="566.5,-119.03 563,-109.03 559.5,-119.03 566.5,-119.03"/>
</g>
<!-- c0 -->
<!-- c1 -->
<!-- c0&#45;&gt;c1 -->
<g id="edge43" class="edge">
<title>c0&#45;&gt;c1</title>
<path fill="none" stroke="red" d="M1542.89,-848C1554.11,-848 1612.24,-848 1637.86,-848"/>
<polygon fill="red" stroke="red" points="1638.06,-851.5 1648.06,-848 1638.06,-844.5 1638.06,-851.5"/>
<text text-anchor="middle" x="1595.5" y="-854.8" font-family="Times,serif" font-size="14.00">Control flow</text>
</g>
<!-- c2 -->
<!-- c3 -->
<!-- c2&#45;&gt;c3 -->
<g id="edge44" class="edge">
<title>c2&#45;&gt;c3</title>
<path fill="none" stroke="red" stroke-dasharray="5,2" d="M1336.08,-848C1353.05,-848 1469.21,-848 1507.08,-848"/>
<polygon fill="red" stroke="red" points="1507.17,-851.5 1517.17,-848 1507.17,-844.5 1507.17,-851.5"/>
<text text-anchor="middle" x="1426.5" y="-854.8" font-family="Times,serif" font-size="14.00">Control flow back edge</text>
</g>
<!-- d0 -->
<!-- d1 -->
<!-- d0&#45;&gt;d1 -->
<g id="edge45" class="edge">
<title>d0&#45;&gt;d1</title>
<path fill="none" stroke="black" d="M1224.86,-848C1234.41,-848 1278.31,-848 1299.92,-848"/>
<polygon fill="black" stroke="black" points="1300.15,-851.5 1310.15,-848 1300.15,-844.5 1300.15,-851.5"/>
<text text-anchor="middle" x="1267.5" y="-854.8" font-family="Times,serif" font-size="14.00">Data flow</text>
</g>
<!-- d2 -->
<!-- d3 -->
<!-- d2&#45;&gt;d3 -->
<g id="edge46" class="edge">
<title>d2&#45;&gt;d3</title>
<path fill="none" stroke="black" stroke-dasharray="1,5" d="M1098.81,-848C1109.46,-848 1164.46,-848 1189.08,-848"/>
<polygon fill="black" stroke="black" points="1189.15,-851.5 1199.15,-848 1189.15,-844.5 1189.15,-851.5"/>
<text text-anchor="middle" x="1149" y="-854.8" font-family="Times,serif" font-size="14.00">Declaration</text>
</g>
<!-- d4 -->
<!-- d5 -->
<!-- d4&#45;&gt;d5 -->
<g id="edge47" class="edge">
<title>d4&#45;&gt;d5</title>
<path fill="none" stroke="blue" d="M956.1,-848C968.72,-848 1034.88,-848 1062.68,-848"/>
<polygon fill="blue" stroke="blue" points="1062.84,-851.5 1072.84,-848 1062.84,-844.5 1062.84,-851.5"/>
<text text-anchor="middle" x="1014.5" y="-854.8" font-family="Times,serif" font-size="14.00">PHI Data flow</text>
</g>
<!-- d6 -->
<!-- d7 -->
<!-- d6&#45;&gt;d7 -->
<g id="edge48" class="edge">
<title>d6&#45;&gt;d7</title>
<path fill="none" stroke="green" d="M819,-848C830.94,-848 893.3,-848 919.93,-848"/>
<polygon fill="green" stroke="green" points="919.95,-851.5 929.95,-848 919.95,-844.5 919.95,-851.5"/>
<text text-anchor="middle" x="874.5" y="-854.8" font-family="Times,serif" font-size="14.00">Memory flow</text>
</g>
</g>
</svg>
