<?xml version="1.0" encoding="UTF-8" standalone="no"?>
<!DOCTYPE svg PUBLIC "-//W3C//DTD SVG 1.1//EN"
 "http://www.w3.org/Graphics/SVG/1.1/DTD/svg11.dtd">
<!-- Generated by graphviz version 2.43.0 (0)
 -->
<!-- Title: %3 Pages: 1 -->
<svg width="1798pt" height="678pt"
 viewBox="0.00 0.00 1797.58 677.80" xmlns="http://www.w3.org/2000/svg" xmlns:xlink="http://www.w3.org/1999/xlink">
<g id="graph0" class="graph" transform="scale(1 1) rotate(0) translate(4 673.8)">
<title>%3</title>
<polygon fill="white" stroke="transparent" points="-4,4 -4,-673.8 1793.58,-673.8 1793.58,4 -4,4"/>
<g id="clust1" class="cluster">
<title>cluster_0</title>
<polygon fill="none" stroke="lightgray" points="364.58,-375 364.58,-500 634.58,-500 634.58,-375 364.58,-375"/>
</g>
<g id="clust2" class="cluster">
<title>cluster_1</title>
<polygon fill="none" stroke="lightgray" points="15.58,-65 15.58,-190 161.58,-190 161.58,-65 15.58,-65"/>
</g>
<g id="clust3" class="cluster">
<title>cluster_2</title>
<polygon fill="none" stroke="lightgray" points="220.58,-448 220.58,-573 356.58,-573 356.58,-448 220.58,-448"/>
</g>
<g id="clust4" class="cluster">
<title>cluster_3</title>
<polygon fill="none" stroke="lightgray" points="169.58,-138 169.58,-190 315.58,-190 315.58,-138 169.58,-138"/>
</g>
<g id="clust5" class="cluster">
<title>cluster_000</title>
<polygon fill="none" stroke="black" points="928.58,-619.2 928.58,-661.8 1781.58,-661.8 1781.58,-619.2 928.58,-619.2"/>
<text text-anchor="middle" x="1355.08" y="-646.6" font-family="Times,serif" font-size="14.00">Legend</text>
</g>
<!-- node0 -->
<g id="node1" class="node">
<title>node0</title>
<polygon fill="lightgrey" stroke="transparent" points="919.08,-656 682.08,-656 682.08,-602 919.08,-602 919.08,-656"/>
<polygon fill="none" stroke="black" points="682.58,-629 682.58,-656 919.58,-656 919.58,-629 682.58,-629"/>
<text text-anchor="start" x="760.58" y="-638.8" font-family="Times,serif" font-size="14.00">#0 Method</text>
<polygon fill="yellow" stroke="transparent" points="682.58,-602 682.58,-629 761.58,-629 761.58,-602 682.58,-602"/>
<polygon fill="none" stroke="black" points="682.58,-602 682.58,-629 761.58,-629 761.58,-602 682.58,-602"/>
<text text-anchor="start" x="688.58" y="-611.8" font-family="Times,serif" font-size="14.00">arg0 : int</text>
<polygon fill="yellow" stroke="transparent" points="761.58,-602 761.58,-629 840.58,-629 840.58,-602 761.58,-602"/>
<polygon fill="none" stroke="black" points="761.58,-602 761.58,-629 840.58,-629 840.58,-602 761.58,-602"/>
<text text-anchor="start" x="767.58" y="-611.8" font-family="Times,serif" font-size="14.00">arg1 : int</text>
<polygon fill="yellow" stroke="transparent" points="840.58,-602 840.58,-629 919.58,-629 919.58,-602 840.58,-602"/>
<polygon fill="none" stroke="black" points="840.58,-602 840.58,-629 919.58,-629 919.58,-602 840.58,-602"/>
<text text-anchor="start" x="846.58" y="-611.8" font-family="Times,serif" font-size="14.00">arg2 : int</text>
</g>
<!-- node4 -->
<g id="node2" class="node">
<title>node4</title>
<polygon fill="lightgrey" stroke="black" points="348.08,-565 229.08,-565 229.08,-529 348.08,-529 348.08,-565"/>
<text text-anchor="middle" x="288.58" y="-543.3" font-family="Times,serif" font-size="14.00">#4 LabelNode</text>
</g>
<!-- node0&#45;&gt;node4 -->
<g id="edge1" class="edge">
<title>node0&#45;&gt;node4</title>
<path fill="none" stroke="red" d="M681.83,-609.45C581.58,-593.78 441.47,-571.89 358.37,-558.91"/>
<polygon fill="red" stroke="red" points="358.7,-555.41 348.28,-557.33 357.62,-562.33 358.7,-555.41"/>
</g>
<!-- node7 -->
<g id="node4" class="node">
<title>node7</title>
<polygon fill="orange" stroke="black" points="353.88,-393.54 353.88,-408.46 288.68,-419 196.47,-419 131.27,-408.46 131.27,-393.54 196.47,-383 288.68,-383 353.88,-393.54"/>
<text text-anchor="middle" x="242.58" y="-397.3" font-family="Times,serif" font-size="14.00">#7 NewArray : int[]</text>
</g>
<!-- node0&#45;&gt;node7 -->
<g id="edge4" class="edge">
<title>node0&#45;&gt;node7</title>
<path fill="none" stroke="green" d="M732.41,-601.77C723.79,-596.68 715.56,-590.78 708.58,-584 659.81,-536.64 694.69,-486.37 638.58,-448 587.3,-412.94 422.22,-426.65 360.58,-419 351.12,-417.83 341.26,-416.53 331.43,-415.18"/>
<polygon fill="green" stroke="green" points="331.61,-411.67 321.22,-413.77 330.65,-418.61 331.61,-411.67"/>
</g>
<!-- node18 -->
<g id="node5" class="node">
<title>node18</title>
<polygon fill="lightgrey" stroke="black" points="564.08,-109 391.08,-109 391.08,-73 564.08,-73 564.08,-109"/>
<text text-anchor="middle" x="477.58" y="-87.3" font-family="Times,serif" font-size="14.00">#18 ArrayStore : int[]</text>
</g>
<!-- node0&#45;&gt;node18 -->
<g id="edge6" class="edge">
<title>node0:prj1&#45;&gt;node18</title>
<path fill="none" stroke="black" d="M920.58,-615C926.62,-615 921.41,-607.15 924.58,-602 942.68,-572.54 980.58,-582.58 980.58,-548 980.58,-548 980.58,-548 980.58,-327 980.58,-234.7 699.03,-148.97 557.21,-111.64"/>
<polygon fill="black" stroke="black" points="557.81,-108.18 547.25,-109.04 556.04,-114.96 557.81,-108.18"/>
<text text-anchor="middle" x="566.93" y="-101.75" font-family="Times,serif" font-size="14.00">*1</text>
</g>
<!-- node9 -->
<g id="node8" class="node">
<title>node9</title>
<polygon fill="orange" stroke="black" points="738.73,-320.54 738.73,-335.46 653.11,-346 532.04,-346 446.42,-335.46 446.42,-320.54 532.04,-310 653.11,-310 738.73,-320.54"/>
<text text-anchor="middle" x="592.58" y="-324.3" font-family="Times,serif" font-size="14.00">#9 NumericCondition : EQ</text>
</g>
<!-- node0&#45;&gt;node9 -->
<g id="edge19" class="edge">
<title>node0:prj2&#45;&gt;node9</title>
<path fill="none" stroke="black" d="M721.58,-602C721.58,-500.59 758.41,-456.87 698.58,-375 690.79,-364.35 680.02,-356.14 668.3,-349.81"/>
<polygon fill="black" stroke="black" points="669.71,-346.61 659.19,-345.34 666.62,-352.89 669.71,-346.61"/>
<text text-anchor="middle" x="679.18" y="-342.05" font-family="Times,serif" font-size="14.00">*0</text>
</g>
<!-- node11 -->
<g id="node10" class="node">
<title>node11</title>
<polygon fill="lightgrey" stroke="black" points="428.08,-346 255.08,-346 255.08,-310 428.08,-310 428.08,-346"/>
<text text-anchor="middle" x="341.58" y="-324.3" font-family="Times,serif" font-size="14.00">#11 ArrayStore : int[]</text>
</g>
<!-- node0&#45;&gt;node11 -->
<g id="edge13" class="edge">
<title>node0:prj3&#45;&gt;node11</title>
<path fill="none" stroke="black" d="M801.58,-602C801.58,-539.9 691.66,-407.23 638.58,-375 564.14,-329.8 529.19,-358.15 438.32,-345.96"/>
<polygon fill="black" stroke="black" points="438.57,-342.46 428.16,-344.46 437.54,-349.39 438.57,-342.46"/>
<text text-anchor="middle" x="447.33" y="-335.05" font-family="Times,serif" font-size="14.00">*1</text>
</g>
<!-- node20 -->
<g id="node16" class="node">
<title>node20</title>
<polygon fill="lightgrey" stroke="black" points="717.08,-36 544.08,-36 544.08,0 717.08,0 717.08,-36"/>
<text text-anchor="middle" x="630.58" y="-14.3" font-family="Times,serif" font-size="14.00">#20 ArrayStore : int[]</text>
</g>
<!-- node0&#45;&gt;node20 -->
<g id="edge28" class="edge">
<title>node0:prj1&#45;&gt;node20</title>
<path fill="none" stroke="black" d="M920.58,-615C926.62,-615 920.59,-606.55 924.58,-602 940.44,-583.87 1018.58,-572.09 1018.58,-548 1018.58,-548 1018.58,-548 1018.58,-364 1018.58,-189.88 797.66,-82.1 689.22,-39.68"/>
<polygon fill="black" stroke="black" points="690.31,-36.35 679.72,-36.02 687.79,-42.88 690.31,-36.35"/>
<text text-anchor="middle" x="699.67" y="-30.95" font-family="Times,serif" font-size="14.00">*1</text>
</g>
<!-- node22 -->
<g id="node18" class="node">
<title>node22</title>
<polygon fill="lightgrey" stroke="black" points="952.58,-346 794.58,-346 794.58,-310 952.58,-310 952.58,-346"/>
<text text-anchor="middle" x="873.58" y="-324.3" font-family="Times,serif" font-size="14.00">#22 ArrayLoad : int</text>
</g>
<!-- node0&#45;&gt;node22 -->
<g id="edge34" class="edge">
<title>node0:prj1&#45;&gt;node22</title>
<path fill="none" stroke="black" d="M880.58,-602C880.58,-577.98 878.58,-572.02 878.58,-548 878.58,-548 878.58,-548 878.58,-400 878.58,-385.62 877.54,-369.63 876.41,-356.48"/>
<polygon fill="black" stroke="black" points="879.87,-355.83 875.47,-346.19 872.9,-356.47 879.87,-355.83"/>
<text text-anchor="middle" x="885.55" y="-359.77" font-family="Times,serif" font-size="14.00">*1</text>
</g>
<!-- node6 -->
<g id="node3" class="node">
<title>node6</title>
<polygon fill="lightgreen" stroke="black" points="346.76,-466.54 346.76,-481.46 312.09,-492 263.06,-492 228.39,-481.46 228.39,-466.54 263.06,-456 312.09,-456 346.76,-466.54"/>
<text text-anchor="middle" x="287.58" y="-470.3" font-family="Times,serif" font-size="14.00">#6 int 10</text>
</g>
<!-- node4&#45;&gt;node6 -->
<g id="edge2" class="edge">
<title>node4&#45;&gt;node6</title>
<path fill="none" stroke="black" stroke-dasharray="1,5" d="M288.33,-528.81C288.22,-520.79 288.08,-511.05 287.96,-502.07"/>
<polygon fill="black" stroke="black" points="291.46,-501.98 287.82,-492.03 284.46,-502.08 291.46,-501.98"/>
</g>
<!-- node5 -->
<g id="node9" class="node">
<title>node5</title>
<polygon fill="lightgrey" stroke="black" points="561.08,-492 442.08,-492 442.08,-456 561.08,-456 561.08,-492"/>
<text text-anchor="middle" x="501.58" y="-470.3" font-family="Times,serif" font-size="14.00">#5 LabelNode</text>
</g>
<!-- node4&#45;&gt;node5 -->
<g id="edge17" class="edge">
<title>node4&#45;&gt;node5</title>
<path fill="none" stroke="red" d="M339.59,-528.99C369.93,-518.88 408.6,-505.99 440.55,-495.34"/>
<polygon fill="red" stroke="red" points="441.85,-498.6 450.23,-492.11 439.64,-491.96 441.85,-498.6"/>
</g>
<!-- node6&#45;&gt;node7 -->
<g id="edge3" class="edge">
<title>node6&#45;&gt;node7</title>
<path fill="none" stroke="black" d="M276.68,-455.81C271.32,-447.35 264.75,-436.98 258.81,-427.61"/>
<polygon fill="black" stroke="black" points="261.68,-425.6 253.37,-419.03 255.77,-429.35 261.68,-425.6"/>
<text text-anchor="middle" x="270.21" y="-426.11" font-family="Times,serif" font-size="14.00">*0</text>
</g>
<!-- node7&#45;&gt;node18 -->
<g id="edge5" class="edge">
<title>node7&#45;&gt;node18</title>
<path fill="none" stroke="black" d="M223.62,-382.74C219.13,-377.52 214.96,-371.46 212.58,-365 204.09,-342.07 196.72,-328.61 212.58,-310 279.72,-231.19 365.85,-342.52 442.58,-273 485.59,-234.02 485.22,-159.42 481.35,-119.24"/>
<polygon fill="black" stroke="black" points="484.81,-118.66 480.23,-109.11 477.85,-119.43 484.81,-118.66"/>
<text text-anchor="middle" x="490.63" y="-122.5" font-family="Times,serif" font-size="14.00">*0</text>
</g>
<!-- node7&#45;&gt;node11 -->
<g id="edge12" class="edge">
<title>node7&#45;&gt;node11</title>
<path fill="none" stroke="black" d="M260.66,-382.81C272.7,-373.48 288.79,-361.83 303.51,-351.75"/>
<polygon fill="black" stroke="black" points="305.65,-354.53 311.97,-346.03 301.72,-348.73 305.65,-354.53"/>
<text text-anchor="middle" x="301.69" y="-359.48" font-family="Times,serif" font-size="14.00">*0</text>
</g>
<!-- node7&#45;&gt;node11 -->
<g id="edge15" class="edge">
<title>node7&#45;&gt;node11</title>
<path fill="none" stroke="green" d="M272.15,-382.99C285.88,-373.84 302,-362.41 315.3,-352.43"/>
<polygon fill="green" stroke="green" points="317.75,-354.96 323.58,-346.11 313.51,-349.39 317.75,-354.96"/>
</g>
<!-- node7&#45;&gt;node20 -->
<g id="edge27" class="edge">
<title>node7&#45;&gt;node20</title>
<path fill="none" stroke="black" d="M237.33,-382.76C232.41,-362.71 228.13,-329.84 245.58,-310 254.01,-300.4 461.94,-280.09 472.58,-273 556.84,-216.83 604.41,-98.86 622.29,-45.82"/>
<polygon fill="black" stroke="black" points="625.68,-46.71 625.47,-36.12 619.03,-44.53 625.68,-46.71"/>
<text text-anchor="middle" x="627.86" y="-52.28" font-family="Times,serif" font-size="14.00">*0</text>
</g>
<!-- node7&#45;&gt;node22 -->
<g id="edge33" class="edge">
<title>node7&#45;&gt;node22</title>
<path fill="none" stroke="black" d="M303.85,-385.39C322.02,-381.5 342.02,-377.65 360.58,-375 531.33,-350.63 576.03,-363.98 747.58,-346 759.41,-344.76 771.85,-343.29 784.11,-341.74"/>
<polygon fill="black" stroke="black" points="784.88,-345.17 794.35,-340.42 783.98,-338.22 784.88,-345.17"/>
<text text-anchor="middle" x="777.45" y="-347.42" font-family="Times,serif" font-size="14.00">*0</text>
</g>
<!-- node21 -->
<g id="node14" class="node">
<title>node21</title>
<polygon fill="lightgrey" stroke="black" points="355.58,-109 179.58,-109 179.58,-73 355.58,-73 355.58,-109"/>
<text text-anchor="middle" x="267.58" y="-87.3" font-family="Times,serif" font-size="14.00">#21 Merge : Merge30</text>
</g>
<!-- node18&#45;&gt;node21 -->
<g id="edge25" class="edge">
<title>node18&#45;&gt;node21</title>
<path fill="none" stroke="green" d="M390.97,-91C382.63,-91 374.28,-91 365.94,-91"/>
<polygon fill="green" stroke="green" points="365.76,-87.5 355.76,-91 365.76,-94.5 365.76,-87.5"/>
</g>
<!-- node17 -->
<g id="node6" class="node">
<title>node17</title>
<polygon fill="lightgreen" stroke="black" points="307.93,-156.54 307.93,-171.46 269.64,-182 215.51,-182 177.23,-171.46 177.23,-156.54 215.51,-146 269.64,-146 307.93,-156.54"/>
<text text-anchor="middle" x="242.58" y="-160.3" font-family="Times,serif" font-size="14.00">#17 int 20</text>
</g>
<!-- node17&#45;&gt;node18 -->
<g id="edge7" class="edge">
<title>node17&#45;&gt;node18</title>
<path fill="none" stroke="black" d="M282.02,-149.29C293.16,-145.52 305.31,-141.51 316.58,-138 345.62,-128.95 377.83,-119.61 405.76,-111.73"/>
<polygon fill="black" stroke="black" points="406.76,-115.08 415.44,-109.01 404.87,-108.35 406.76,-115.08"/>
<text text-anchor="middle" x="400.28" y="-118.35" font-family="Times,serif" font-size="14.00">*2</text>
</g>
<!-- node12 -->
<g id="node7" class="node">
<title>node12</title>
<polygon fill="lightgrey" stroke="transparent" points="434.08,-273 345.08,-273 345.08,-219 434.08,-219 434.08,-273"/>
<polygon fill="none" stroke="black" points="345.58,-246 345.58,-273 434.58,-273 434.58,-246 345.58,-246"/>
<text text-anchor="start" x="367.08" y="-255.8" font-family="Times,serif" font-size="14.00">#12 If</text>
<polygon fill="yellow" stroke="transparent" points="345.58,-219 345.58,-246 391.58,-246 391.58,-219 345.58,-219"/>
<polygon fill="none" stroke="black" points="345.58,-219 345.58,-246 391.58,-246 391.58,-219 345.58,-219"/>
<text text-anchor="start" x="351.58" y="-228.8" font-family="Times,serif" font-size="14.00">false</text>
<polygon fill="yellow" stroke="transparent" points="391.58,-219 391.58,-246 434.58,-246 434.58,-219 391.58,-219"/>
<polygon fill="none" stroke="black" points="391.58,-219 391.58,-246 434.58,-246 434.58,-219 391.58,-219"/>
<text text-anchor="start" x="397.58" y="-228.8" font-family="Times,serif" font-size="14.00">true</text>
</g>
<!-- node12&#45;&gt;node18 -->
<g id="edge8" class="edge">
<title>node12&#45;&gt;node18</title>
<path fill="none" stroke="green" d="M345.06,-245.45C254.61,-245.33 54.26,-239.34 11.58,-190 -3.54,-172.52 -4.08,-155 11.58,-138 38.24,-109.06 325.48,-113.54 364.58,-109 369.93,-108.38 375.43,-107.7 380.97,-106.97"/>
<polygon fill="green" stroke="green" points="381.53,-110.43 390.97,-105.64 380.6,-103.49 381.53,-110.43"/>
</g>
<!-- node12&#45;&gt;node17 -->
<g id="edge21" class="edge">
<title>node12:prj14&#45;&gt;node17</title>
<path fill="none" stroke="black" stroke-dasharray="1,5" d="M344.58,-232C312.59,-232 282.86,-208.7 263.85,-189.58"/>
<polygon fill="black" stroke="black" points="266.29,-187.08 256.86,-182.25 261.23,-191.91 266.29,-187.08"/>
</g>
<!-- node16 -->
<g id="node13" class="node">
<title>node16</title>
<polygon fill="lightgrey" stroke="black" points="411.08,-182 326.08,-182 326.08,-146 411.08,-146 411.08,-182"/>
<text text-anchor="middle" x="368.58" y="-160.3" font-family="Times,serif" font-size="14.00">#16 Goto</text>
</g>
<!-- node12&#45;&gt;node16 -->
<g id="edge22" class="edge">
<title>node12:prj14&#45;&gt;node16</title>
<path fill="none" stroke="red" d="M368.58,-219C368.58,-210.3 368.58,-200.81 368.58,-192.25"/>
<polygon fill="red" stroke="red" points="372.08,-192.02 368.58,-182.02 365.08,-192.02 372.08,-192.02"/>
</g>
<!-- node15 -->
<g id="node15" class="node">
<title>node15</title>
<polygon fill="lightgrey" stroke="black" points="153.58,-182 25.58,-182 25.58,-146 153.58,-146 153.58,-182"/>
<text text-anchor="middle" x="89.58" y="-160.3" font-family="Times,serif" font-size="14.00">#15 LabelNode</text>
</g>
<!-- node12&#45;&gt;node15 -->
<g id="edge32" class="edge">
<title>node12:prj13&#45;&gt;node15</title>
<path fill="none" stroke="red" d="M413.58,-219C413.58,-215.53 168.96,-190.75 165.58,-190 159.34,-188.63 152.9,-186.94 146.53,-185.1"/>
<polygon fill="red" stroke="red" points="147.18,-181.64 136.6,-182.1 145.16,-188.34 147.18,-181.64"/>
</g>
<!-- node12&#45;&gt;node20 -->
<g id="edge30" class="edge">
<title>node12&#45;&gt;node20</title>
<path fill="none" stroke="green" d="M427.84,-218.99C474.27,-187.01 549.25,-133.93 572.58,-109 590.61,-89.72 606.48,-64.14 617.04,-45.18"/>
<polygon fill="green" stroke="green" points="620.23,-46.65 621.93,-36.19 614.08,-43.31 620.23,-46.65"/>
</g>
<!-- node9&#45;&gt;node12 -->
<g id="edge9" class="edge">
<title>node9&#45;&gt;node12</title>
<path fill="none" stroke="black" d="M549.03,-309.84C518.17,-297.68 476.57,-281.28 443.6,-268.29"/>
<polygon fill="black" stroke="black" points="444.69,-264.96 434.1,-264.55 442.12,-271.47 444.69,-264.96"/>
<text text-anchor="middle" x="454.07" y="-259.63" font-family="Times,serif" font-size="14.00">*0</text>
</g>
<!-- node5&#45;&gt;node12 -->
<g id="edge10" class="edge">
<title>node5&#45;&gt;node12</title>
<path fill="none" stroke="red" d="M561.17,-459.28C652.06,-435.68 808.68,-382.79 747.58,-310 709.48,-264.62 534.68,-251.92 444.2,-248.37"/>
<polygon fill="red" stroke="red" points="444.25,-244.87 434.13,-248 443.99,-251.86 444.25,-244.87"/>
</g>
<!-- node10 -->
<g id="node11" class="node">
<title>node10</title>
<polygon fill="lightgreen" stroke="black" points="502.93,-393.54 502.93,-408.46 464.64,-419 410.51,-419 372.23,-408.46 372.23,-393.54 410.51,-383 464.64,-383 502.93,-393.54"/>
<text text-anchor="middle" x="437.58" y="-397.3" font-family="Times,serif" font-size="14.00">#10 int 10</text>
</g>
<!-- node5&#45;&gt;node10 -->
<g id="edge16" class="edge">
<title>node5&#45;&gt;node10</title>
<path fill="none" stroke="black" stroke-dasharray="1,5" d="M486.08,-455.81C478.14,-447 468.34,-436.13 459.62,-426.46"/>
<polygon fill="black" stroke="black" points="462.22,-424.11 452.93,-419.03 457.02,-428.8 462.22,-424.11"/>
</g>
<!-- node8 -->
<g id="node12" class="node">
<title>node8</title>
<polygon fill="lightgreen" stroke="black" points="626.1,-393.54 626.1,-408.46 595.33,-419 551.82,-419 521.05,-408.46 521.05,-393.54 551.82,-383 595.33,-383 626.1,-393.54"/>
<text text-anchor="middle" x="573.58" y="-397.3" font-family="Times,serif" font-size="14.00">#8 int 0</text>
</g>
<!-- node5&#45;&gt;node8 -->
<g id="edge18" class="edge">
<title>node5&#45;&gt;node8</title>
<path fill="none" stroke="black" stroke-dasharray="1,5" d="M519,-455.81C528.03,-446.92 539.19,-435.91 549.06,-426.17"/>
<polygon fill="black" stroke="black" points="551.64,-428.54 556.31,-419.03 546.73,-423.56 551.64,-428.54"/>
</g>
<!-- node11&#45;&gt;node12 -->
<g id="edge11" class="edge">
<title>node11&#45;&gt;node12</title>
<path fill="none" stroke="green" d="M351.99,-309.64C356.89,-301.48 362.91,-291.44 368.69,-281.81"/>
<polygon fill="green" stroke="green" points="371.74,-283.52 373.89,-273.15 365.74,-279.92 371.74,-283.52"/>
</g>
<!-- node10&#45;&gt;node11 -->
<g id="edge14" class="edge">
<title>node10&#45;&gt;node11</title>
<path fill="none" stroke="black" d="M414.34,-382.81C401.84,-373.57 386.25,-362.04 372.72,-352.03"/>
<polygon fill="black" stroke="black" points="374.72,-349.16 364.6,-346.03 370.56,-354.79 374.72,-349.16"/>
<text text-anchor="middle" x="384.2" y="-346.31" font-family="Times,serif" font-size="14.00">*2</text>
</g>
<!-- node8&#45;&gt;node9 -->
<g id="edge20" class="edge">
<title>node8&#45;&gt;node9</title>
<path fill="none" stroke="black" d="M578.17,-382.81C580.35,-374.7 582.99,-364.84 585.41,-355.78"/>
<polygon fill="black" stroke="black" points="588.81,-356.59 588.02,-346.03 582.05,-354.78 588.81,-356.59"/>
<text text-anchor="middle" x="591.5" y="-362.02" font-family="Times,serif" font-size="14.00">*1</text>
</g>
<!-- node16&#45;&gt;node21 -->
<g id="edge23" class="edge">
<title>node16&#45;&gt;node21</title>
<path fill="none" stroke="red" d="M344.38,-145.99C331.24,-136.75 314.79,-125.19 300.5,-115.14"/>
<polygon fill="red" stroke="red" points="302.11,-112 291.92,-109.11 298.09,-117.73 302.11,-112"/>
</g>
<!-- node21&#45;&gt;node22 -->
<g id="edge35" class="edge">
<title>node21&#45;&gt;node22</title>
<path fill="none" stroke="green" d="M329.05,-109.08C356.9,-117.2 390.12,-127.44 419.58,-138 570.75,-192.19 744.88,-268.78 826.61,-305.6"/>
<polygon fill="green" stroke="green" points="825.56,-308.97 836.11,-309.89 828.44,-302.59 825.56,-308.97"/>
</g>
<!-- node23 -->
<g id="node19" class="node">
<title>node23</title>
<polygon fill="lightgrey" stroke="black" points="1016.08,-36 843.08,-36 843.08,0 1016.08,0 1016.08,-36"/>
<text text-anchor="middle" x="929.58" y="-14.3" font-family="Times,serif" font-size="14.00">#23 ReturnValue : int</text>
</g>
<!-- node21&#45;&gt;node23 -->
<g id="edge37" class="edge">
<title>node21&#45;&gt;node23</title>
<path fill="none" stroke="red" d="M338.46,-72.94C352.67,-69.95 367.55,-67.12 381.58,-65 382.96,-64.79 675.93,-40.24 832.88,-27.1"/>
<polygon fill="red" stroke="red" points="833.34,-30.57 843.01,-26.25 832.76,-23.6 833.34,-30.57"/>
</g>
<!-- node15&#45;&gt;node21 -->
<g id="edge24" class="edge">
<title>node15&#45;&gt;node21</title>
<path fill="none" stroke="red" d="M132.21,-145.99C157.13,-136.06 188.77,-123.43 215.19,-112.89"/>
<polygon fill="red" stroke="red" points="216.68,-116.07 224.67,-109.11 214.09,-109.57 216.68,-116.07"/>
</g>
<!-- node19 -->
<g id="node17" class="node">
<title>node19</title>
<polygon fill="lightgreen" stroke="black" points="153.93,-83.54 153.93,-98.46 115.64,-109 61.51,-109 23.23,-98.46 23.23,-83.54 61.51,-73 115.64,-73 153.93,-83.54"/>
<text text-anchor="middle" x="88.58" y="-87.3" font-family="Times,serif" font-size="14.00">#19 int 30</text>
</g>
<!-- node15&#45;&gt;node19 -->
<g id="edge31" class="edge">
<title>node15&#45;&gt;node19</title>
<path fill="none" stroke="black" stroke-dasharray="1,5" d="M89.33,-145.81C89.22,-137.79 89.08,-128.05 88.96,-119.07"/>
<polygon fill="black" stroke="black" points="92.46,-118.98 88.82,-109.03 85.46,-119.08 92.46,-118.98"/>
</g>
<!-- node20&#45;&gt;node21 -->
<g id="edge26" class="edge">
<title>node20&#45;&gt;node21</title>
<path fill="none" stroke="green" d="M544.01,-34.26C496.07,-42.9 435.44,-54.12 381.58,-65 372.44,-66.85 362.9,-68.84 353.4,-70.86"/>
<polygon fill="green" stroke="green" points="352.58,-67.45 343.54,-72.97 354.05,-74.3 352.58,-67.45"/>
</g>
<!-- node19&#45;&gt;node20 -->
<g id="edge29" class="edge">
<title>node19&#45;&gt;node20</title>
<path fill="none" stroke="black" d="M127.8,-76.33C141.22,-72.11 156.42,-67.84 170.58,-65 294.53,-40.16 440.09,-28.47 533.75,-23.16"/>
<polygon fill="black" stroke="black" points="533.98,-26.65 543.77,-22.6 533.6,-19.66 533.98,-26.65"/>
<text text-anchor="middle" x="526.14" y="-28.34" font-family="Times,serif" font-size="14.00">*2</text>
</g>
<!-- node22&#45;&gt;node23 -->
<g id="edge36" class="edge">
<title>node22&#45;&gt;node23</title>
<path fill="none" stroke="black" d="M896.26,-309.72C914.8,-295.7 937.58,-273.89 937.58,-247 937.58,-247 937.58,-247 937.58,-90 937.58,-75.2 934.04,-59.13 931.04,-46.02"/>
<polygon fill="black" stroke="black" points="934.45,-45.22 928.84,-36.23 927.62,-46.76 934.45,-45.22"/>
<text text-anchor="middle" x="941.07" y="-48.36" font-family="Times,serif" font-size="14.00">*0</text>
</g>
<!-- node22&#45;&gt;node23 -->
<g id="edge38" class="edge">
<title>node22&#45;&gt;node23</title>
<path fill="none" stroke="green" d="M911.12,-309.72C932.8,-295.7 955.58,-273.89 955.58,-247 955.58,-247 955.58,-247 955.58,-90 955.58,-75.05 951.97,-58.81 947.2,-45.63"/>
<polygon fill="green" stroke="green" points="950.38,-44.17 943.36,-36.23 943.9,-46.81 950.38,-44.17"/>
</g>
<!-- c0 -->
<!-- c1 -->
<!-- c0&#45;&gt;c1 -->
<g id="edge39" class="edge">
<title>c0&#45;&gt;c1</title>
<path fill="none" stroke="red" d="M1664.47,-629C1675.68,-629 1733.82,-629 1759.43,-629"/>
<polygon fill="red" stroke="red" points="1759.63,-632.5 1769.63,-629 1759.63,-625.5 1759.63,-632.5"/>
<text text-anchor="middle" x="1717.08" y="-635.8" font-family="Times,serif" font-size="14.00">Control flow</text>
</g>
<!-- c2 -->
<!-- c3 -->
<!-- c2&#45;&gt;c3 -->
<g id="edge40" class="edge">
<title>c2&#45;&gt;c3</title>
<path fill="none" stroke="red" stroke-dasharray="5,2" d="M1457.65,-629C1474.62,-629 1590.78,-629 1628.66,-629"/>
<polygon fill="red" stroke="red" points="1628.74,-632.5 1638.74,-629 1628.74,-625.5 1628.74,-632.5"/>
<text text-anchor="middle" x="1548.08" y="-635.8" font-family="Times,serif" font-size="14.00">Control flow back edge</text>
</g>
<!-- d0 -->
<!-- d1 -->
<!-- d0&#45;&gt;d1 -->
<g id="edge41" class="edge">
<title>d0&#45;&gt;d1</title>
<path fill="none" stroke="black" d="M1346.43,-629C1355.98,-629 1399.88,-629 1421.49,-629"/>
<polygon fill="black" stroke="black" points="1421.73,-632.5 1431.73,-629 1421.73,-625.5 1421.73,-632.5"/>
<text text-anchor="middle" x="1389.08" y="-635.8" font-family="Times,serif" font-size="14.00">Data flow</text>
</g>
<!-- d2 -->
<!-- d3 -->
<!-- d2&#45;&gt;d3 -->
<g id="edge42" class="edge">
<title>d2&#45;&gt;d3</title>
<path fill="none" stroke="black" stroke-dasharray="1,5" d="M1220.38,-629C1231.03,-629 1286.04,-629 1310.65,-629"/>
<polygon fill="black" stroke="black" points="1310.72,-632.5 1320.72,-629 1310.72,-625.5 1310.72,-632.5"/>
<text text-anchor="middle" x="1270.58" y="-635.8" font-family="Times,serif" font-size="14.00">Declaration</text>
</g>
<!-- d4 -->
<!-- d5 -->
<!-- d4&#45;&gt;d5 -->
<g id="edge43" class="edge">
<title>d4&#45;&gt;d5</title>
<path fill="none" stroke="blue" d="M1077.68,-629C1090.3,-629 1156.46,-629 1184.26,-629"/>
<polygon fill="blue" stroke="blue" points="1184.42,-632.5 1194.42,-629 1184.42,-625.5 1184.42,-632.5"/>
<text text-anchor="middle" x="1136.08" y="-635.8" font-family="Times,serif" font-size="14.00">PHI Data flow</text>
</g>
<!-- d6 -->
<!-- d7 -->
<!-- d6&#45;&gt;d7 -->
<g id="edge44" class="edge">
<title>d6&#45;&gt;d7</title>
<path fill="none" stroke="green" d="M940.57,-629C952.51,-629 1014.88,-629 1041.5,-629"/>
<polygon fill="green" stroke="green" points="1041.52,-632.5 1051.52,-629 1041.52,-625.5 1041.52,-632.5"/>
<text text-anchor="middle" x="996.08" y="-635.8" font-family="Times,serif" font-size="14.00">Memory flow</text>
</g>
</g>
</svg>
