<?xml version="1.0" encoding="UTF-8" standalone="no"?>
<!DOCTYPE svg PUBLIC "-//W3C//DTD SVG 1.1//EN"
 "http://www.w3.org/Graphics/SVG/1.1/DTD/svg11.dtd">
<!-- Generated by graphviz version 2.43.0 (0)
 -->
<!-- Title: %3 Pages: 1 -->
<svg width="1516pt" height="897pt"
 viewBox="0.00 0.00 1516.18 896.80" xmlns="http://www.w3.org/2000/svg" xmlns:xlink="http://www.w3.org/1999/xlink">
<g id="graph0" class="graph" transform="scale(1 1) rotate(0) translate(4 892.8)">
<title>%3</title>
<polygon fill="white" stroke="transparent" points="-4,4 -4,-892.8 1512.18,-892.8 1512.18,4 -4,4"/>
<g id="clust1" class="cluster">
<title>cluster_0</title>
<polygon fill="none" stroke="lightgray" points="19.18,-594 19.18,-719 165.18,-719 165.18,-594 19.18,-594"/>
</g>
<g id="clust2" class="cluster">
<title>cluster_1</title>
<polygon fill="none" stroke="lightgray" points="443.18,-667 443.18,-792 579.18,-792 579.18,-667 443.18,-667"/>
</g>
<g id="clust3" class="cluster">
<title>cluster_2</title>
<polygon fill="none" stroke="lightgray" points="76.18,-448 76.18,-573 266.18,-573 266.18,-448 76.18,-448"/>
</g>
<g id="clust4" class="cluster">
<title>cluster_000</title>
<polygon fill="none" stroke="black" points="647.18,-838.2 647.18,-880.8 1500.18,-880.8 1500.18,-838.2 647.18,-838.2"/>
<text text-anchor="middle" x="1073.68" y="-865.6" font-family="Times,serif" font-size="14.00">Legend</text>
</g>
<!-- node0 -->
<g id="node1" class="node">
<title>node0</title>
<polygon fill="lightgrey" stroke="transparent" points="637.68,-875 400.68,-875 400.68,-821 637.68,-821 637.68,-875"/>
<polygon fill="none" stroke="black" points="401.18,-848 401.18,-875 638.18,-875 638.18,-848 401.18,-848"/>
<text text-anchor="start" x="479.18" y="-857.8" font-family="Times,serif" font-size="14.00">#0 Method</text>
<polygon fill="yellow" stroke="transparent" points="401.18,-821 401.18,-848 480.18,-848 480.18,-821 401.18,-821"/>
<polygon fill="none" stroke="black" points="401.18,-821 401.18,-848 480.18,-848 480.18,-821 401.18,-821"/>
<text text-anchor="start" x="407.18" y="-830.8" font-family="Times,serif" font-size="14.00">arg0 : int</text>
<polygon fill="yellow" stroke="transparent" points="480.18,-821 480.18,-848 559.18,-848 559.18,-821 480.18,-821"/>
<polygon fill="none" stroke="black" points="480.18,-821 480.18,-848 559.18,-848 559.18,-821 480.18,-821"/>
<text text-anchor="start" x="486.18" y="-830.8" font-family="Times,serif" font-size="14.00">arg1 : int</text>
<polygon fill="yellow" stroke="transparent" points="559.18,-821 559.18,-848 638.18,-848 638.18,-821 559.18,-821"/>
<polygon fill="none" stroke="black" points="559.18,-821 559.18,-848 638.18,-848 638.18,-821 559.18,-821"/>
<text text-anchor="start" x="565.18" y="-830.8" font-family="Times,serif" font-size="14.00">arg2 : int</text>
</g>
<!-- node9 -->
<g id="node2" class="node">
<title>node9</title>
<polygon fill="orange" stroke="black" points="611.48,-612.54 611.48,-627.46 546.28,-638 454.07,-638 388.87,-627.46 388.87,-612.54 454.07,-602 546.28,-602 611.48,-612.54"/>
<text text-anchor="middle" x="500.18" y="-616.3" font-family="Times,serif" font-size="14.00">#9 NewArray : int[]</text>
</g>
<!-- node0&#45;&gt;node9 -->
<g id="edge2" class="edge">
<title>node0&#45;&gt;node9</title>
<path fill="none" stroke="green" d="M400.45,-845.75C323.85,-842.12 234.03,-831.63 209.18,-803 187.62,-778.16 190.4,-756 209.18,-729 249.85,-670.52 326.1,-643.64 390.34,-631.32"/>
<polygon fill="green" stroke="green" points="391.33,-634.69 400.54,-629.46 390.08,-627.81 391.33,-634.69"/>
</g>
<!-- node4 -->
<g id="node4" class="node">
<title>node4</title>
<polygon fill="lightgrey" stroke="black" points="570.68,-784 451.68,-784 451.68,-748 570.68,-748 570.68,-784"/>
<text text-anchor="middle" x="511.18" y="-762.3" font-family="Times,serif" font-size="14.00">#4 LabelNode</text>
</g>
<!-- node0&#45;&gt;node4 -->
<g id="edge4" class="edge">
<title>node0&#45;&gt;node4</title>
<path fill="none" stroke="red" d="M516.56,-820.81C515.71,-812.35 514.77,-802.95 513.92,-794.4"/>
<polygon fill="red" stroke="red" points="517.37,-793.78 512.89,-784.17 510.41,-794.47 517.37,-793.78"/>
</g>
<!-- node11 -->
<g id="node6" class="node">
<title>node11</title>
<polygon fill="lightgrey" stroke="black" points="257.68,-565 84.68,-565 84.68,-529 257.68,-529 257.68,-565"/>
<text text-anchor="middle" x="171.18" y="-543.3" font-family="Times,serif" font-size="14.00">#11 ArrayStore : int[]</text>
</g>
<!-- node0&#45;&gt;node11 -->
<g id="edge7" class="edge">
<title>node0:prj3&#45;&gt;node11</title>
<path fill="none" stroke="black" d="M520.18,-821C520.18,-767.28 323.19,-824.18 280.18,-792 239.68,-761.71 212.26,-628.49 190.18,-583 188.8,-580.17 187.31,-577.24 185.8,-574.33"/>
<polygon fill="black" stroke="black" points="188.76,-572.45 180.96,-565.28 182.59,-575.75 188.76,-572.45"/>
<text text-anchor="middle" x="196.96" y="-573.58" font-family="Times,serif" font-size="14.00">*1</text>
</g>
<!-- node5 -->
<g id="node8" class="node">
<title>node5</title>
<polygon fill="orange" stroke="black" points="433.6,-758.54 433.6,-773.46 391.17,-784 331.18,-784 288.76,-773.46 288.76,-758.54 331.18,-748 391.17,-748 433.6,-758.54"/>
<text text-anchor="middle" x="361.18" y="-762.3" font-family="Times,serif" font-size="14.00">#5 Add : int</text>
</g>
<!-- node0&#45;&gt;node5 -->
<g id="edge12" class="edge">
<title>node0:prj3&#45;&gt;node5</title>
<path fill="none" stroke="black" d="M520.18,-821C520.18,-819.56 459.78,-799.39 413.43,-784.11"/>
<polygon fill="black" stroke="black" points="414.38,-780.74 403.79,-780.94 412.19,-787.39 414.38,-780.74"/>
<text text-anchor="middle" x="423.65" y="-774.88" font-family="Times,serif" font-size="14.00">*0</text>
</g>
<!-- node0&#45;&gt;node5 -->
<g id="edge13" class="edge">
<title>node0:prj1&#45;&gt;node5</title>
<path fill="none" stroke="black" d="M599.18,-821C599.18,-784.87 474.23,-800.76 439.18,-792 430.36,-789.8 421.09,-787.14 412.13,-784.39"/>
<polygon fill="black" stroke="black" points="413.17,-781.04 402.58,-781.38 411.07,-787.72 413.17,-781.04"/>
<text text-anchor="middle" x="422.41" y="-775.06" font-family="Times,serif" font-size="14.00">*1</text>
</g>
<!-- node19 -->
<g id="node9" class="node">
<title>node19</title>
<polygon fill="lightgrey" stroke="black" points="710.68,-182 537.68,-182 537.68,-146 710.68,-146 710.68,-182"/>
<text text-anchor="middle" x="624.18" y="-160.3" font-family="Times,serif" font-size="14.00">#19 ArrayStore : int[]</text>
</g>
<!-- node0&#45;&gt;node19 -->
<g id="edge15" class="edge">
<title>node0:prj1&#45;&gt;node19</title>
<path fill="none" stroke="black" d="M639.18,-834C645.22,-834 638.71,-825.08 643.18,-821 689.12,-779.01 740.99,-840.35 780.18,-792 792.49,-776.81 780.67,-767.55 780.18,-748 777.51,-642.57 768.18,-616.47 768.18,-511 768.18,-511 768.18,-511 768.18,-236 768.18,-208.45 746.71,-191.59 720.35,-181.27"/>
<polygon fill="black" stroke="black" points="721.44,-177.94 710.85,-177.89 719.1,-184.54 721.44,-177.94"/>
<text text-anchor="middle" x="730.76" y="-172.31" font-family="Times,serif" font-size="14.00">*1</text>
</g>
<!-- node6 -->
<g id="node10" class="node">
<title>node6</title>
<polygon fill="orange" stroke="black" points="771.6,-758.54 771.6,-773.46 729.17,-784 669.18,-784 626.76,-773.46 626.76,-758.54 669.18,-748 729.17,-748 771.6,-758.54"/>
<text text-anchor="middle" x="699.18" y="-762.3" font-family="Times,serif" font-size="14.00">#6 Sub : int</text>
</g>
<!-- node0&#45;&gt;node6 -->
<g id="edge41" class="edge">
<title>node0:prj3&#45;&gt;node6</title>
<path fill="none" stroke="black" d="M520.18,-821C520.18,-808.61 583.83,-791.8 635.22,-780.24"/>
<polygon fill="black" stroke="black" points="635.98,-783.65 644.98,-778.07 634.46,-776.82 635.98,-783.65"/>
<text text-anchor="middle" x="629.12" y="-786.55" font-family="Times,serif" font-size="14.00">*0</text>
</g>
<!-- node0&#45;&gt;node6 -->
<g id="edge42" class="edge">
<title>node0:prj1&#45;&gt;node6</title>
<path fill="none" stroke="black" d="M639.18,-834C645.22,-834 640.01,-826.15 643.18,-821 649.97,-809.94 659.56,-799.58 668.88,-790.94"/>
<polygon fill="black" stroke="black" points="671.41,-793.37 676.58,-784.12 666.77,-788.13 671.41,-793.37"/>
<text text-anchor="middle" x="668.62" y="-798.77" font-family="Times,serif" font-size="14.00">*1</text>
</g>
<!-- node13 -->
<g id="node13" class="node">
<title>node13</title>
<polygon fill="orange" stroke="black" points="358.99,-393.54 358.99,-408.46 269.47,-419 142.88,-419 53.36,-408.46 53.36,-393.54 142.88,-383 269.47,-383 358.99,-393.54"/>
<text text-anchor="middle" x="206.18" y="-397.3" font-family="Times,serif" font-size="14.00">#13 NumericCondition : EQ</text>
</g>
<!-- node0&#45;&gt;node13 -->
<g id="edge22" class="edge">
<title>node0:prj2&#45;&gt;node13</title>
<path fill="none" stroke="black" d="M400.18,-834C364.7,-834 269.47,-818.75 246.18,-792 145.53,-676.42 340.1,-584.38 270.18,-448 265.54,-438.96 258.21,-431.29 250.14,-424.97"/>
<polygon fill="black" stroke="black" points="252.06,-422.04 241.89,-419.08 248,-427.74 252.06,-422.04"/>
<text text-anchor="middle" x="261.56" y="-419.03" font-family="Times,serif" font-size="14.00">*0</text>
</g>
<!-- node17 -->
<g id="node15" class="node">
<title>node17</title>
<polygon fill="lightgrey" stroke="black" points="556.68,-255 383.68,-255 383.68,-219 556.68,-219 556.68,-255"/>
<text text-anchor="middle" x="470.18" y="-233.3" font-family="Times,serif" font-size="14.00">#17 ArrayStore : int[]</text>
</g>
<!-- node0&#45;&gt;node17 -->
<g id="edge26" class="edge">
<title>node0:prj1&#45;&gt;node17</title>
<path fill="none" stroke="black" d="M599.18,-821C599.18,-714.18 639.18,-690.82 639.18,-584 639.18,-584 639.18,-584 639.18,-437 639.18,-357.04 558.93,-292.79 509.03,-260.56"/>
<polygon fill="black" stroke="black" points="510.71,-257.49 500.39,-255.1 506.98,-263.4 510.71,-257.49"/>
<text text-anchor="middle" x="520.23" y="-253.94" font-family="Times,serif" font-size="14.00">*1</text>
</g>
<!-- node22 -->
<g id="node19" class="node">
<title>node22</title>
<polygon fill="lightgrey" stroke="black" points="954.18,-565 796.18,-565 796.18,-529 954.18,-529 954.18,-565"/>
<text text-anchor="middle" x="875.18" y="-543.3" font-family="Times,serif" font-size="14.00">#22 ArrayLoad : int</text>
</g>
<!-- node0&#45;&gt;node22 -->
<g id="edge39" class="edge">
<title>node0:prj1&#45;&gt;node22</title>
<path fill="none" stroke="black" d="M639.18,-834C645.22,-834 638.51,-824.84 643.18,-821 672.5,-796.85 779.98,-821.47 813.18,-803 830.89,-793.15 841.18,-787.27 841.18,-767 841.18,-767 841.18,-767 841.18,-619 841.18,-602.94 848.34,-586.67 856.09,-573.76"/>
<polygon fill="black" stroke="black" points="859.25,-575.31 861.74,-565.01 853.37,-571.51 859.25,-575.31"/>
<text text-anchor="middle" x="859.01" y="-581.12" font-family="Times,serif" font-size="14.00">*1</text>
</g>
<!-- node9&#45;&gt;node11 -->
<g id="edge6" class="edge">
<title>node9&#45;&gt;node11</title>
<path fill="none" stroke="black" d="M432.08,-605.48C380.47,-594.66 309.36,-579.36 254.39,-567.27"/>
<polygon fill="black" stroke="black" points="254.84,-563.78 244.32,-565.05 253.33,-570.62 254.84,-563.78"/>
<text text-anchor="middle" x="263.84" y="-557" font-family="Times,serif" font-size="14.00">*0</text>
</g>
<!-- node9&#45;&gt;node11 -->
<g id="edge9" class="edge">
<title>node9&#45;&gt;node11</title>
<path fill="none" stroke="green" d="M438.37,-604.46C389.75,-593.67 321.24,-578.85 265.74,-567.1"/>
<polygon fill="green" stroke="green" points="266.4,-563.66 255.9,-565.02 264.96,-570.51 266.4,-563.66"/>
</g>
<!-- node9&#45;&gt;node19 -->
<g id="edge14" class="edge">
<title>node9&#45;&gt;node19</title>
<path fill="none" stroke="black" d="M553.04,-603.04C577.48,-592.07 601.18,-574.58 601.18,-548 601.18,-548 601.18,-548 601.18,-437 601.18,-347.12 613.8,-241.13 620.34,-192.23"/>
<polygon fill="black" stroke="black" points="623.83,-192.52 621.71,-182.14 616.9,-191.58 623.83,-192.52"/>
<text text-anchor="middle" x="627.65" y="-197.54" font-family="Times,serif" font-size="14.00">*0</text>
</g>
<!-- node9&#45;&gt;node17 -->
<g id="edge25" class="edge">
<title>node9&#45;&gt;node17</title>
<path fill="none" stroke="black" d="M491.2,-601.86C480.56,-580.92 462.91,-544.19 452.18,-511 424.2,-424.51 448.11,-314.76 461.97,-264.86"/>
<polygon fill="black" stroke="black" points="465.36,-265.73 464.75,-255.16 458.63,-263.81 465.36,-265.73"/>
<text text-anchor="middle" x="467.88" y="-271.21" font-family="Times,serif" font-size="14.00">*0</text>
</g>
<!-- node9&#45;&gt;node22 -->
<g id="edge38" class="edge">
<title>node9&#45;&gt;node22</title>
<path fill="none" stroke="black" d="M570.27,-605.73C631.27,-594.18 720,-577.38 786.03,-564.88"/>
<polygon fill="black" stroke="black" points="786.84,-568.29 796.01,-562.99 785.54,-561.41 786.84,-568.29"/>
<text text-anchor="middle" x="779.78" y="-570.96" font-family="Times,serif" font-size="14.00">*0</text>
</g>
<!-- node8 -->
<g id="node3" class="node">
<title>node8</title>
<polygon fill="lightgreen" stroke="black" points="569.36,-685.54 569.36,-700.46 534.69,-711 485.66,-711 450.99,-700.46 450.99,-685.54 485.66,-675 534.69,-675 569.36,-685.54"/>
<text text-anchor="middle" x="510.18" y="-689.3" font-family="Times,serif" font-size="14.00">#8 int 10</text>
</g>
<!-- node8&#45;&gt;node9 -->
<g id="edge1" class="edge">
<title>node8&#45;&gt;node9</title>
<path fill="none" stroke="black" d="M507.76,-674.81C506.63,-666.79 505.25,-657.05 503.99,-648.07"/>
<polygon fill="black" stroke="black" points="507.44,-647.44 502.57,-638.03 500.5,-648.42 507.44,-647.44"/>
<text text-anchor="middle" x="513.47" y="-651.1" font-family="Times,serif" font-size="14.00">*0</text>
</g>
<!-- node4&#45;&gt;node8 -->
<g id="edge3" class="edge">
<title>node4&#45;&gt;node8</title>
<path fill="none" stroke="black" stroke-dasharray="1,5" d="M510.93,-747.81C510.82,-739.79 510.68,-730.05 510.56,-721.07"/>
<polygon fill="black" stroke="black" points="514.06,-720.98 510.42,-711.03 507.06,-721.08 514.06,-720.98"/>
</g>
<!-- node7 -->
<g id="node5" class="node">
<title>node7</title>
<polygon fill="lightgrey" stroke="black" points="156.68,-711 37.68,-711 37.68,-675 156.68,-675 156.68,-711"/>
<text text-anchor="middle" x="97.18" y="-689.3" font-family="Times,serif" font-size="14.00">#7 LabelNode</text>
</g>
<!-- node4&#45;&gt;node7 -->
<g id="edge5" class="edge">
<title>node4&#45;&gt;node7</title>
<path fill="none" stroke="red" d="M451.41,-749.94C448.29,-749.26 445.2,-748.61 442.18,-748 347.43,-728.95 236.91,-712.69 166.99,-703.13"/>
<polygon fill="red" stroke="red" points="167.36,-699.64 156.98,-701.76 166.42,-706.58 167.36,-699.64"/>
</g>
<!-- node7&#45;&gt;node11 -->
<g id="edge10" class="edge">
<title>node7&#45;&gt;node11</title>
<path fill="none" stroke="red" d="M129.91,-674.78C143.59,-665.76 158.15,-653.37 166.18,-638 176.27,-618.66 176.86,-593.69 175.29,-574.96"/>
<polygon fill="red" stroke="red" points="178.77,-574.58 174.21,-565.01 171.81,-575.33 178.77,-574.58"/>
</g>
<!-- node10 -->
<g id="node7" class="node">
<title>node10</title>
<polygon fill="lightgreen" stroke="black" points="157.53,-612.54 157.53,-627.46 119.24,-638 65.11,-638 26.83,-627.46 26.83,-612.54 65.11,-602 119.24,-602 157.53,-612.54"/>
<text text-anchor="middle" x="92.18" y="-616.3" font-family="Times,serif" font-size="14.00">#10 int 10</text>
</g>
<!-- node7&#45;&gt;node10 -->
<g id="edge11" class="edge">
<title>node7&#45;&gt;node10</title>
<path fill="none" stroke="black" stroke-dasharray="1,5" d="M95.97,-674.81C95.4,-666.79 94.71,-657.05 94.08,-648.07"/>
<polygon fill="black" stroke="black" points="97.57,-647.76 93.38,-638.03 90.59,-648.25 97.57,-647.76"/>
</g>
<!-- node11&#45;&gt;node19 -->
<g id="edge17" class="edge">
<title>node11&#45;&gt;node19</title>
<path fill="none" stroke="green" d="M144.34,-529C129.84,-519.13 112.11,-505.93 98.18,-492 59.95,-453.77 9.32,-424.33 44.18,-383 75.57,-345.77 212.75,-357.07 260.18,-346 398.35,-313.74 452.68,-340.15 566.18,-255 587.9,-238.7 603.72,-211.69 613.3,-191.51"/>
<polygon fill="green" stroke="green" points="616.56,-192.78 617.5,-182.23 610.18,-189.89 616.56,-192.78"/>
</g>
<!-- node14 -->
<g id="node12" class="node">
<title>node14</title>
<polygon fill="lightgrey" stroke="transparent" points="251.68,-346 162.68,-346 162.68,-292 251.68,-292 251.68,-346"/>
<polygon fill="none" stroke="black" points="163.18,-319 163.18,-346 252.18,-346 252.18,-319 163.18,-319"/>
<text text-anchor="start" x="184.68" y="-328.8" font-family="Times,serif" font-size="14.00">#14 If</text>
<polygon fill="yellow" stroke="transparent" points="163.18,-292 163.18,-319 209.18,-319 209.18,-292 163.18,-292"/>
<polygon fill="none" stroke="black" points="163.18,-292 163.18,-319 209.18,-319 209.18,-292 163.18,-292"/>
<text text-anchor="start" x="169.18" y="-301.8" font-family="Times,serif" font-size="14.00">false</text>
<polygon fill="yellow" stroke="transparent" points="209.18,-292 209.18,-319 252.18,-319 252.18,-292 209.18,-292"/>
<polygon fill="none" stroke="black" points="209.18,-292 209.18,-319 252.18,-319 252.18,-292 209.18,-292"/>
<text text-anchor="start" x="215.18" y="-301.8" font-family="Times,serif" font-size="14.00">true</text>
</g>
<!-- node11&#45;&gt;node14 -->
<g id="edge21" class="edge">
<title>node11&#45;&gt;node14</title>
<path fill="none" stroke="red" d="M120.59,-528.92C99.9,-520.18 76.75,-507.97 59.18,-492 19.99,-456.41 -20.01,-425.78 11.18,-383 43.18,-339.1 106.28,-325.12 152.26,-321.01"/>
<polygon fill="red" stroke="red" points="152.68,-324.49 162.38,-320.24 152.15,-317.51 152.68,-324.49"/>
</g>
<!-- node12 -->
<g id="node14" class="node">
<title>node12</title>
<polygon fill="lightgreen" stroke="black" points="225.36,-466.54 225.36,-481.46 190.69,-492 141.66,-492 106.99,-481.46 106.99,-466.54 141.66,-456 190.69,-456 225.36,-466.54"/>
<text text-anchor="middle" x="166.18" y="-470.3" font-family="Times,serif" font-size="14.00">#12 int 0</text>
</g>
<!-- node11&#45;&gt;node12 -->
<g id="edge24" class="edge">
<title>node11&#45;&gt;node12</title>
<path fill="none" stroke="black" stroke-dasharray="1,5" d="M169.97,-528.81C169.4,-520.79 168.71,-511.05 168.08,-502.07"/>
<polygon fill="black" stroke="black" points="171.57,-501.76 167.38,-492.03 164.59,-502.25 171.57,-501.76"/>
</g>
<!-- node11&#45;&gt;node17 -->
<g id="edge28" class="edge">
<title>node11&#45;&gt;node17</title>
<path fill="none" stroke="green" d="M214.55,-528.92C259.44,-509.08 328.44,-472.11 368.18,-419 408.7,-364.84 369.65,-326.4 411.18,-273 414.6,-268.59 418.75,-264.63 423.25,-261.09"/>
<polygon fill="green" stroke="green" points="425.47,-263.8 431.62,-255.17 421.44,-258.08 425.47,-263.8"/>
</g>
<!-- node10&#45;&gt;node11 -->
<g id="edge8" class="edge">
<title>node10&#45;&gt;node11</title>
<path fill="none" stroke="black" d="M111.3,-601.81C121.29,-592.83 133.69,-581.69 144.6,-571.89"/>
<polygon fill="black" stroke="black" points="147.13,-574.32 152.23,-565.03 142.45,-569.11 147.13,-574.32"/>
<text text-anchor="middle" x="144.4" y="-579.73" font-family="Times,serif" font-size="14.00">*2</text>
</g>
<!-- node5&#45;&gt;node17 -->
<g id="edge27" class="edge">
<title>node5&#45;&gt;node17</title>
<path fill="none" stroke="black" d="M360.1,-747.76C358.77,-716.06 358.85,-646.91 380.18,-594 412.88,-512.87 500.18,-525.47 500.18,-438 500.18,-438 500.18,-438 500.18,-318 500.18,-299.26 492.87,-279.54 485.47,-264.36"/>
<polygon fill="black" stroke="black" points="488.38,-262.37 480.67,-255.1 482.16,-265.59 488.38,-262.37"/>
<text text-anchor="middle" x="496.52" y="-263.6" font-family="Times,serif" font-size="14.00">*2</text>
</g>
<!-- node21 -->
<g id="node17" class="node">
<title>node21</title>
<polygon fill="lightgrey" stroke="black" points="712.18,-109 536.18,-109 536.18,-73 712.18,-73 712.18,-109"/>
<text text-anchor="middle" x="624.18" y="-87.3" font-family="Times,serif" font-size="14.00">#21 Merge : Merge34</text>
</g>
<!-- node19&#45;&gt;node21 -->
<g id="edge32" class="edge">
<title>node19&#45;&gt;node21</title>
<path fill="none" stroke="red" d="M618.3,-145.81C617.46,-137.79 617.23,-128.05 617.6,-119.07"/>
<polygon fill="red" stroke="red" points="621.09,-119.25 618.31,-109.03 614.11,-118.75 621.09,-119.25"/>
</g>
<!-- node19&#45;&gt;node21 -->
<g id="edge34" class="edge">
<title>node19&#45;&gt;node21</title>
<path fill="none" stroke="green" d="M630.05,-145.81C630.89,-137.79 631.13,-128.05 630.75,-119.07"/>
<polygon fill="green" stroke="green" points="634.24,-118.75 630.04,-109.03 627.26,-119.25 634.24,-118.75"/>
</g>
<!-- node6&#45;&gt;node19 -->
<g id="edge16" class="edge">
<title>node6&#45;&gt;node19</title>
<path fill="none" stroke="black" d="M699.18,-747.78C699.18,-733.41 699.18,-712.37 699.18,-694 699.18,-694 699.18,-694 699.18,-236 699.18,-215.85 684.72,-199.7 668.49,-187.93"/>
<polygon fill="black" stroke="black" points="670.17,-184.84 659.92,-182.18 666.27,-190.66 670.17,-184.84"/>
<text text-anchor="middle" x="679.68" y="-181.56" font-family="Times,serif" font-size="14.00">*2</text>
</g>
<!-- node18 -->
<g id="node11" class="node">
<title>node18</title>
<polygon fill="lightgrey" stroke="black" points="363.18,-255 235.18,-255 235.18,-219 363.18,-219 363.18,-255"/>
<text text-anchor="middle" x="299.18" y="-233.3" font-family="Times,serif" font-size="14.00">#18 LabelNode</text>
</g>
<!-- node18&#45;&gt;node19 -->
<g id="edge18" class="edge">
<title>node18&#45;&gt;node19</title>
<path fill="none" stroke="red" d="M363.4,-221.4C367.05,-220.58 370.66,-219.78 374.18,-219 427.2,-207.26 486.62,-194.42 534.22,-184.2"/>
<polygon fill="red" stroke="red" points="535.15,-187.58 544.19,-182.06 533.68,-180.74 535.15,-187.58"/>
</g>
<!-- node14&#45;&gt;node18 -->
<g id="edge19" class="edge">
<title>node14:prj15&#45;&gt;node18</title>
<path fill="none" stroke="red" d="M253.18,-305C273.63,-305 285.67,-283.52 292.26,-264.88"/>
<polygon fill="red" stroke="red" points="295.63,-265.84 295.31,-255.25 288.96,-263.73 295.63,-265.84"/>
</g>
<!-- node14&#45;&gt;node17 -->
<g id="edge29" class="edge">
<title>node14:prj16&#45;&gt;node17</title>
<path fill="none" stroke="red" d="M186.18,-292C186.18,-253.67 213.03,-278.6 372.18,-255 372.65,-254.93 373.12,-254.86 373.59,-254.79"/>
<polygon fill="red" stroke="red" points="374.29,-258.22 383.64,-253.25 373.23,-251.3 374.29,-258.22"/>
</g>
<!-- node13&#45;&gt;node14 -->
<g id="edge20" class="edge">
<title>node13&#45;&gt;node14</title>
<path fill="none" stroke="black" d="M206.39,-382.64C206.49,-374.9 206.61,-365.46 206.72,-356.29"/>
<polygon fill="black" stroke="black" points="210.22,-356.19 206.85,-346.15 203.22,-356.1 210.22,-356.19"/>
<text text-anchor="middle" x="215.07" y="-360.68" font-family="Times,serif" font-size="14.00">*0</text>
</g>
<!-- node12&#45;&gt;node13 -->
<g id="edge23" class="edge">
<title>node12&#45;&gt;node13</title>
<path fill="none" stroke="black" d="M175.86,-455.81C180.58,-447.44 186.35,-437.2 191.58,-427.9"/>
<polygon fill="black" stroke="black" points="194.72,-429.46 196.58,-419.03 188.62,-426.02 194.72,-429.46"/>
<text text-anchor="middle" x="195.05" y="-435.27" font-family="Times,serif" font-size="14.00">*1</text>
</g>
<!-- node20 -->
<g id="node16" class="node">
<title>node20</title>
<polygon fill="lightgrey" stroke="black" points="518.68,-182 433.68,-182 433.68,-146 518.68,-146 518.68,-182"/>
<text text-anchor="middle" x="476.18" y="-160.3" font-family="Times,serif" font-size="14.00">#20 Goto</text>
</g>
<!-- node17&#45;&gt;node20 -->
<g id="edge30" class="edge">
<title>node17&#45;&gt;node20</title>
<path fill="none" stroke="red" d="M471.63,-218.81C472.31,-210.79 473.13,-201.05 473.89,-192.07"/>
<polygon fill="red" stroke="red" points="477.38,-192.29 474.74,-182.03 470.41,-191.7 477.38,-192.29"/>
</g>
<!-- node17&#45;&gt;node21 -->
<g id="edge33" class="edge">
<title>node17&#45;&gt;node21</title>
<path fill="none" stroke="green" d="M556.73,-228.74C620.56,-221.38 699.71,-207.35 720.18,-182 730.22,-169.55 728.25,-159.81 720.18,-146 712.18,-132.32 699.3,-121.84 685.54,-113.92"/>
<polygon fill="green" stroke="green" points="686.89,-110.68 676.42,-109.08 683.61,-116.86 686.89,-110.68"/>
</g>
<!-- node20&#45;&gt;node21 -->
<g id="edge31" class="edge">
<title>node20&#45;&gt;node21</title>
<path fill="none" stroke="red" d="M511.63,-145.99C531.98,-136.23 557.73,-123.88 579.46,-113.45"/>
<polygon fill="red" stroke="red" points="581,-116.59 588.5,-109.11 577.97,-110.28 581,-116.59"/>
</g>
<!-- node23 -->
<g id="node18" class="node">
<title>node23</title>
<polygon fill="lightgrey" stroke="black" points="821.68,-36 648.68,-36 648.68,0 821.68,0 821.68,-36"/>
<text text-anchor="middle" x="735.18" y="-14.3" font-family="Times,serif" font-size="14.00">#23 ReturnValue : int</text>
</g>
<!-- node21&#45;&gt;node23 -->
<g id="edge36" class="edge">
<title>node21&#45;&gt;node23</title>
<path fill="none" stroke="red" d="M650.76,-72.99C665.48,-63.58 683.97,-51.76 699.88,-41.57"/>
<polygon fill="red" stroke="red" points="701.88,-44.45 708.42,-36.11 698.11,-38.55 701.88,-44.45"/>
</g>
<!-- node21&#45;&gt;node22 -->
<g id="edge40" class="edge">
<title>node21&#45;&gt;node22</title>
<path fill="none" stroke="green" d="M682.22,-109.16C694.57,-114.02 707.19,-119.94 718.18,-127 728.22,-133.45 732.61,-134.97 737.18,-146 743.3,-160.78 741.97,-166.73 737.18,-182 704.57,-285.87 639.14,-282.55 597.18,-383 587.6,-405.92 573.02,-417.58 587.18,-438 631.59,-502.08 719.02,-528.2 785.95,-538.81"/>
<polygon fill="green" stroke="green" points="785.69,-542.31 796.09,-540.33 786.72,-535.39 785.69,-542.31"/>
</g>
<!-- node22&#45;&gt;node23 -->
<g id="edge35" class="edge">
<title>node22&#45;&gt;node23</title>
<path fill="none" stroke="black" d="M856.58,-528.99C846.74,-515.08 837.18,-494.57 837.18,-475 837.18,-475 837.18,-475 837.18,-90 837.18,-67.18 820.33,-51.37 800.29,-40.56"/>
<polygon fill="black" stroke="black" points="801.75,-37.38 791.23,-36.09 798.65,-43.65 801.75,-37.38"/>
<text text-anchor="middle" x="811.22" y="-32.84" font-family="Times,serif" font-size="14.00">*0</text>
</g>
<!-- node22&#45;&gt;node23 -->
<g id="edge37" class="edge">
<title>node22&#45;&gt;node23</title>
<path fill="none" stroke="green" d="M871.18,-528.99C864.74,-515.08 855.18,-494.57 855.18,-475 855.18,-475 855.18,-475 855.18,-90 855.18,-67.08 838.18,-51.23 816.94,-40.42"/>
<polygon fill="green" stroke="green" points="818.16,-37.13 807.62,-36.09 815.21,-43.47 818.16,-37.13"/>
</g>
<!-- c0 -->
<!-- c1 -->
<!-- c0&#45;&gt;c1 -->
<g id="edge43" class="edge">
<title>c0&#45;&gt;c1</title>
<path fill="none" stroke="red" d="M1383.07,-848C1394.28,-848 1452.42,-848 1478.03,-848"/>
<polygon fill="red" stroke="red" points="1478.23,-851.5 1488.23,-848 1478.23,-844.5 1478.23,-851.5"/>
<text text-anchor="middle" x="1435.68" y="-854.8" font-family="Times,serif" font-size="14.00">Control flow</text>
</g>
<!-- c2 -->
<!-- c3 -->
<!-- c2&#45;&gt;c3 -->
<g id="edge44" class="edge">
<title>c2&#45;&gt;c3</title>
<path fill="none" stroke="red" stroke-dasharray="5,2" d="M1176.25,-848C1193.22,-848 1309.38,-848 1347.26,-848"/>
<polygon fill="red" stroke="red" points="1347.35,-851.5 1357.35,-848 1347.35,-844.5 1347.35,-851.5"/>
<text text-anchor="middle" x="1266.68" y="-854.8" font-family="Times,serif" font-size="14.00">Control flow back edge</text>
</g>
<!-- d0 -->
<!-- d1 -->
<!-- d0&#45;&gt;d1 -->
<g id="edge45" class="edge">
<title>d0&#45;&gt;d1</title>
<path fill="none" stroke="black" d="M1065.04,-848C1074.58,-848 1118.49,-848 1140.09,-848"/>
<polygon fill="black" stroke="black" points="1140.33,-851.5 1150.33,-848 1140.33,-844.5 1140.33,-851.5"/>
<text text-anchor="middle" x="1107.68" y="-854.8" font-family="Times,serif" font-size="14.00">Data flow</text>
</g>
<!-- d2 -->
<!-- d3 -->
<!-- d2&#45;&gt;d3 -->
<g id="edge46" class="edge">
<title>d2&#45;&gt;d3</title>
<path fill="none" stroke="black" stroke-dasharray="1,5" d="M938.98,-848C949.63,-848 1004.64,-848 1029.25,-848"/>
<polygon fill="black" stroke="black" points="1029.32,-851.5 1039.32,-848 1029.32,-844.5 1029.32,-851.5"/>
<text text-anchor="middle" x="989.18" y="-854.8" font-family="Times,serif" font-size="14.00">Declaration</text>
</g>
<!-- d4 -->
<!-- d5 -->
<!-- d4&#45;&gt;d5 -->
<g id="edge47" class="edge">
<title>d4&#45;&gt;d5</title>
<path fill="none" stroke="blue" d="M796.28,-848C808.9,-848 875.06,-848 902.86,-848"/>
<polygon fill="blue" stroke="blue" points="903.02,-851.5 913.02,-848 903.02,-844.5 903.02,-851.5"/>
<text text-anchor="middle" x="854.68" y="-854.8" font-family="Times,serif" font-size="14.00">PHI Data flow</text>
</g>
<!-- d6 -->
<!-- d7 -->
<!-- d6&#45;&gt;d7 -->
<g id="edge48" class="edge">
<title>d6&#45;&gt;d7</title>
<path fill="none" stroke="green" d="M659.17,-848C671.11,-848 733.48,-848 760.1,-848"/>
<polygon fill="green" stroke="green" points="760.13,-851.5 770.13,-848 760.13,-844.5 760.13,-851.5"/>
<text text-anchor="middle" x="714.68" y="-854.8" font-family="Times,serif" font-size="14.00">Memory flow</text>
</g>
</g>
</svg>
