<?xml version="1.0" encoding="UTF-8" standalone="no"?>
<!DOCTYPE svg PUBLIC "-//W3C//DTD SVG 1.1//EN"
 "http://www.w3.org/Graphics/SVG/1.1/DTD/svg11.dtd">
<!-- Generated by graphviz version 2.43.0 (0)
 -->
<!-- Title: %3 Pages: 1 -->
<svg width="1372pt" height="897pt"
 viewBox="0.00 0.00 1372.00 896.80" xmlns="http://www.w3.org/2000/svg" xmlns:xlink="http://www.w3.org/1999/xlink">
<g id="graph0" class="graph" transform="scale(1 1) rotate(0) translate(4 892.8)">
<title>%3</title>
<polygon fill="white" stroke="transparent" points="-4,4 -4,-892.8 1368,-892.8 1368,4 -4,4"/>
<g id="clust1" class="cluster">
<title>cluster_0</title>
<polygon fill="none" stroke="lightgray" points="196,-667 196,-792 332,-792 332,-667 196,-667"/>
</g>
<g id="clust2" class="cluster">
<title>cluster_1</title>
<polygon fill="none" stroke="lightgray" points="151,-448 151,-573 341,-573 341,-448 151,-448"/>
</g>
<g id="clust3" class="cluster">
<title>cluster_2</title>
<polygon fill="none" stroke="lightgray" points="396,-594 396,-719 542,-719 542,-594 396,-594"/>
</g>
<g id="clust4" class="cluster">
<title>cluster_000</title>
<polygon fill="none" stroke="black" points="503,-838.2 503,-880.8 1356,-880.8 1356,-838.2 503,-838.2"/>
<text text-anchor="middle" x="929.5" y="-865.6" font-family="Times,serif" font-size="14.00">Legend</text>
</g>
<!-- node0 -->
<g id="node1" class="node">
<title>node0</title>
<polygon fill="lightgrey" stroke="transparent" points="493.5,-875 256.5,-875 256.5,-821 493.5,-821 493.5,-875"/>
<polygon fill="none" stroke="black" points="257,-848 257,-875 494,-875 494,-848 257,-848"/>
<text text-anchor="start" x="335" y="-857.8" font-family="Times,serif" font-size="14.00">#0 Method</text>
<polygon fill="yellow" stroke="transparent" points="257,-821 257,-848 336,-848 336,-821 257,-821"/>
<polygon fill="none" stroke="black" points="257,-821 257,-848 336,-848 336,-821 257,-821"/>
<text text-anchor="start" x="263" y="-830.8" font-family="Times,serif" font-size="14.00">arg0 : int</text>
<polygon fill="yellow" stroke="transparent" points="336,-821 336,-848 415,-848 415,-821 336,-821"/>
<polygon fill="none" stroke="black" points="336,-821 336,-848 415,-848 415,-821 336,-821"/>
<text text-anchor="start" x="342" y="-830.8" font-family="Times,serif" font-size="14.00">arg1 : int</text>
<polygon fill="yellow" stroke="transparent" points="415,-821 415,-848 494,-848 494,-821 415,-821"/>
<polygon fill="none" stroke="black" points="415,-821 415,-848 494,-848 494,-821 415,-821"/>
<text text-anchor="start" x="421" y="-830.8" font-family="Times,serif" font-size="14.00">arg2 : int</text>
</g>
<!-- node16 -->
<g id="node2" class="node">
<title>node16</title>
<polygon fill="lightgrey" stroke="black" points="348.5,-255 175.5,-255 175.5,-219 348.5,-219 348.5,-255"/>
<text text-anchor="middle" x="262" y="-233.3" font-family="Times,serif" font-size="14.00">#16 ArrayStore : int[]</text>
</g>
<!-- node0&#45;&gt;node16 -->
<g id="edge2" class="edge">
<title>node0:prj3&#45;&gt;node16</title>
<path fill="none" stroke="black" d="M455,-821C455,-800.75 110.94,-806.48 91,-803 48.15,-795.51 0,-810.49 0,-767 0,-767 0,-767 0,-318 0,-282.16 90.83,-260.79 165.53,-249.27"/>
<polygon fill="black" stroke="black" points="166.11,-252.73 175.49,-247.78 165.08,-245.8 166.11,-252.73"/>
<text text-anchor="middle" x="158.81" y="-255.13" font-family="Times,serif" font-size="14.00">*1</text>
</g>
<!-- node9 -->
<g id="node3" class="node">
<title>node9</title>
<polygon fill="orange" stroke="black" points="385.3,-612.54 385.3,-627.46 320.1,-638 227.9,-638 162.7,-627.46 162.7,-612.54 227.9,-602 320.1,-602 385.3,-612.54"/>
<text text-anchor="middle" x="274" y="-616.3" font-family="Times,serif" font-size="14.00">#9 NewArray : int[]</text>
</g>
<!-- node0&#45;&gt;node9 -->
<g id="edge17" class="edge">
<title>node0&#45;&gt;node9</title>
<path fill="none" stroke="green" d="M256.16,-823C226.73,-814.56 201.01,-804.11 192,-792 158.85,-747.42 163.93,-714.94 192,-667 197.81,-657.09 206.62,-649.15 216.34,-642.85"/>
<polygon fill="green" stroke="green" points="218.22,-645.8 225.07,-637.72 214.68,-639.76 218.22,-645.8"/>
</g>
<!-- node5 -->
<g id="node4" class="node">
<title>node5</title>
<polygon fill="orange" stroke="black" points="486.42,-758.54 486.42,-773.46 444,-784 384,-784 341.58,-773.46 341.58,-758.54 384,-748 444,-748 486.42,-758.54"/>
<text text-anchor="middle" x="414" y="-762.3" font-family="Times,serif" font-size="14.00">#5 Add : int</text>
</g>
<!-- node0&#45;&gt;node5 -->
<g id="edge33" class="edge">
<title>node0:prj2&#45;&gt;node5</title>
<path fill="none" stroke="black" d="M376,-821C376,-810.51 380.85,-800.62 387.09,-792.24"/>
<polygon fill="black" stroke="black" points="389.92,-794.31 393.67,-784.4 384.56,-789.82 389.92,-794.31"/>
<text text-anchor="middle" x="388.5" y="-800.02" font-family="Times,serif" font-size="14.00">*0</text>
</g>
<!-- node0&#45;&gt;node5 -->
<g id="edge34" class="edge">
<title>node0:prj3&#45;&gt;node5</title>
<path fill="none" stroke="black" d="M455,-821C455,-810.12 449.65,-800.05 442.82,-791.63"/>
<polygon fill="black" stroke="black" points="445.27,-789.12 435.94,-784.09 440.1,-793.84 445.27,-789.12"/>
<text text-anchor="middle" x="454.4" y="-788.09" font-family="Times,serif" font-size="14.00">*1</text>
</g>
<!-- node11 -->
<g id="node5" class="node">
<title>node11</title>
<polygon fill="lightgrey" stroke="black" points="332.5,-565 159.5,-565 159.5,-529 332.5,-529 332.5,-565"/>
<text text-anchor="middle" x="246" y="-543.3" font-family="Times,serif" font-size="14.00">#11 ArrayStore : int[]</text>
</g>
<!-- node0&#45;&gt;node11 -->
<g id="edge9" class="edge">
<title>node0:prj2&#45;&gt;node11</title>
<path fill="none" stroke="black" d="M376,-821C376,-800.3 207.74,-805.44 192,-792 122.97,-733.07 98.63,-673.73 142,-594 147.38,-584.11 155.53,-576.34 164.94,-570.24"/>
<polygon fill="black" stroke="black" points="166.97,-573.11 173.9,-565.1 163.48,-567.04 166.97,-573.11"/>
<text text-anchor="middle" x="162.39" y="-577.75" font-family="Times,serif" font-size="14.00">*1</text>
</g>
<!-- node13 -->
<g id="node7" class="node">
<title>node13</title>
<polygon fill="orange" stroke="black" points="371.82,-393.54 371.82,-408.46 282.3,-419 155.7,-419 66.18,-408.46 66.18,-393.54 155.7,-383 282.3,-383 371.82,-393.54"/>
<text text-anchor="middle" x="219" y="-397.3" font-family="Times,serif" font-size="14.00">#13 NumericCondition : EQ</text>
</g>
<!-- node0&#45;&gt;node13 -->
<g id="edge41" class="edge">
<title>node0:prj1&#45;&gt;node13</title>
<path fill="none" stroke="black" d="M256,-834C209.76,-834 59,-813.24 59,-767 59,-767 59,-767 59,-656 59,-555.62 82.24,-524.69 147,-448 154.62,-438.97 164.48,-431.11 174.43,-424.56"/>
<polygon fill="black" stroke="black" points="176.5,-427.39 183.15,-419.14 172.81,-421.44 176.5,-427.39"/>
<text text-anchor="middle" x="172.21" y="-432.19" font-family="Times,serif" font-size="14.00">*0</text>
</g>
<!-- node4 -->
<g id="node10" class="node">
<title>node4</title>
<polygon fill="lightgrey" stroke="black" points="323.5,-784 204.5,-784 204.5,-748 323.5,-748 323.5,-784"/>
<text text-anchor="middle" x="264" y="-762.3" font-family="Times,serif" font-size="14.00">#4 LabelNode</text>
</g>
<!-- node0&#45;&gt;node4 -->
<g id="edge14" class="edge">
<title>node0&#45;&gt;node4</title>
<path fill="none" stroke="red" d="M338.65,-820.81C324.96,-810.94 309.5,-799.79 296.21,-790.21"/>
<polygon fill="red" stroke="red" points="297.99,-787.18 287.83,-784.17 293.9,-792.86 297.99,-787.18"/>
</g>
<!-- node22 -->
<g id="node12" class="node">
<title>node22</title>
<polygon fill="lightgrey" stroke="black" points="863,-565 705,-565 705,-529 863,-529 863,-565"/>
<text text-anchor="middle" x="784" y="-543.3" font-family="Times,serif" font-size="14.00">#22 ArrayLoad : int</text>
</g>
<!-- node0&#45;&gt;node22 -->
<g id="edge19" class="edge">
<title>node0:prj3&#45;&gt;node22</title>
<path fill="none" stroke="black" d="M495,-834C501.05,-834 494.31,-824.81 499,-821 532.24,-793.96 649.62,-814.14 691,-803 727.87,-793.08 769,-805.18 769,-767 769,-767 769,-767 769,-619 769,-604.19 772.16,-588.01 775.59,-574.84"/>
<polygon fill="black" stroke="black" points="779.01,-575.58 778.33,-565 772.27,-573.7 779.01,-575.58"/>
<text text-anchor="middle" x="781.6" y="-581.03" font-family="Times,serif" font-size="14.00">*1</text>
</g>
<!-- node20 -->
<g id="node15" class="node">
<title>node20</title>
<polygon fill="lightgrey" stroke="black" points="683.5,-182 510.5,-182 510.5,-146 683.5,-146 683.5,-182"/>
<text text-anchor="middle" x="597" y="-160.3" font-family="Times,serif" font-size="14.00">#20 ArrayStore : int[]</text>
</g>
<!-- node0&#45;&gt;node20 -->
<g id="edge26" class="edge">
<title>node0:prj3&#45;&gt;node20</title>
<path fill="none" stroke="black" d="M495,-834C501.05,-834 494.48,-825.01 499,-821 552.7,-773.29 596.79,-829.59 658,-792 669.89,-784.7 677,-780.96 677,-767 677,-767 677,-767 677,-236 677,-215.25 661.76,-199.09 644.59,-187.47"/>
<polygon fill="black" stroke="black" points="646.39,-184.47 636.06,-182.12 642.68,-190.4 646.39,-184.47"/>
<text text-anchor="middle" x="655.91" y="-180.89" font-family="Times,serif" font-size="14.00">*1</text>
</g>
<!-- node6 -->
<g id="node16" class="node">
<title>node6</title>
<polygon fill="orange" stroke="black" points="649.42,-758.54 649.42,-773.46 607,-784 547,-784 504.58,-773.46 504.58,-758.54 547,-748 607,-748 649.42,-758.54"/>
<text text-anchor="middle" x="577" y="-762.3" font-family="Times,serif" font-size="14.00">#6 Sub : int</text>
</g>
<!-- node0&#45;&gt;node6 -->
<g id="edge31" class="edge">
<title>node0:prj2&#45;&gt;node6</title>
<path fill="none" stroke="black" d="M376,-821C376,-803.21 436.74,-807.31 454,-803 477.03,-797.26 502.22,-790.05 523.77,-783.59"/>
<polygon fill="black" stroke="black" points="524.84,-786.93 533.4,-780.69 522.82,-780.23 524.84,-786.93"/>
<text text-anchor="middle" x="518.49" y="-790.32" font-family="Times,serif" font-size="14.00">*0</text>
</g>
<!-- node0&#45;&gt;node6 -->
<g id="edge32" class="edge">
<title>node0:prj3&#45;&gt;node6</title>
<path fill="none" stroke="black" d="M495,-834C501.05,-834 495.43,-825.88 499,-821 508.5,-808.03 522.09,-797.1 535.28,-788.54"/>
<polygon fill="black" stroke="black" points="537.17,-791.48 543.84,-783.25 533.49,-785.53 537.17,-791.48"/>
<text text-anchor="middle" x="532.85" y="-796.27" font-family="Times,serif" font-size="14.00">*1</text>
</g>
<!-- node21 -->
<g id="node13" class="node">
<title>node21</title>
<polygon fill="lightgrey" stroke="black" points="685,-109 509,-109 509,-73 685,-73 685,-109"/>
<text text-anchor="middle" x="597" y="-87.3" font-family="Times,serif" font-size="14.00">#21 Merge : Merge34</text>
</g>
<!-- node16&#45;&gt;node21 -->
<g id="edge23" class="edge">
<title>node16&#45;&gt;node21</title>
<path fill="none" stroke="green" d="M301.74,-218.92C363.2,-192.5 481.13,-141.81 547.85,-113.13"/>
<polygon fill="green" stroke="green" points="549.5,-116.23 557.31,-109.06 546.74,-109.8 549.5,-116.23"/>
</g>
<!-- node18 -->
<g id="node14" class="node">
<title>node18</title>
<polygon fill="lightgrey" stroke="black" points="366.5,-182 281.5,-182 281.5,-146 366.5,-146 366.5,-182"/>
<text text-anchor="middle" x="324" y="-160.3" font-family="Times,serif" font-size="14.00">#18 Goto</text>
</g>
<!-- node16&#45;&gt;node18 -->
<g id="edge35" class="edge">
<title>node16&#45;&gt;node18</title>
<path fill="none" stroke="red" d="M277.01,-218.81C284.62,-210.09 294.01,-199.34 302.39,-189.75"/>
<polygon fill="red" stroke="red" points="305.19,-191.86 309.13,-182.03 299.92,-187.26 305.19,-191.86"/>
</g>
<!-- node9&#45;&gt;node16 -->
<g id="edge1" class="edge">
<title>node9&#45;&gt;node16</title>
<path fill="none" stroke="black" d="M185.11,-608.91C118.22,-598.76 38,-579.93 38,-548 38,-548 38,-548 38,-318 38,-289.15 104.73,-267.96 165.34,-254.67"/>
<polygon fill="black" stroke="black" points="166.35,-258.03 175.4,-252.52 164.89,-251.18 166.35,-258.03"/>
<text text-anchor="middle" x="159.43" y="-260.87" font-family="Times,serif" font-size="14.00">*0</text>
</g>
<!-- node9&#45;&gt;node11 -->
<g id="edge8" class="edge">
<title>node9&#45;&gt;node11</title>
<path fill="none" stroke="black" d="M261.34,-601.81C257.3,-593.7 253.18,-583.84 249.99,-574.78"/>
<polygon fill="black" stroke="black" points="253.25,-573.47 246.85,-565.03 246.59,-575.62 253.25,-573.47"/>
<text text-anchor="middle" x="260.46" y="-575.99" font-family="Times,serif" font-size="14.00">*0</text>
</g>
<!-- node9&#45;&gt;node11 -->
<g id="edge11" class="edge">
<title>node9&#45;&gt;node11</title>
<path fill="none" stroke="green" d="M273.1,-601.81C270.7,-593.53 266.93,-583.41 262.87,-574.19"/>
<polygon fill="green" stroke="green" points="265.99,-572.6 258.58,-565.03 259.65,-575.57 265.99,-572.6"/>
</g>
<!-- node9&#45;&gt;node22 -->
<g id="edge18" class="edge">
<title>node9&#45;&gt;node22</title>
<path fill="none" stroke="black" d="M334.96,-604.38C353.21,-600.46 373.33,-596.6 392,-594 456.86,-584.97 473.89,-590.99 539,-584 590.77,-578.44 648.39,-570.09 694.74,-562.82"/>
<polygon fill="black" stroke="black" points="695.42,-566.26 704.76,-561.24 694.33,-559.35 695.42,-566.26"/>
<text text-anchor="middle" x="688.17" y="-568.72" font-family="Times,serif" font-size="14.00">*0</text>
</g>
<!-- node9&#45;&gt;node20 -->
<g id="edge25" class="edge">
<title>node9&#45;&gt;node20</title>
<path fill="none" stroke="black" d="M336.04,-604.54C410.37,-586.77 525,-557.79 525,-548 525,-548 525,-548 525,-364 525,-298.46 559.96,-227.64 581.16,-190.71"/>
<polygon fill="black" stroke="black" points="584.18,-192.48 586.22,-182.08 578.14,-188.94 584.18,-192.48"/>
<text text-anchor="middle" x="584.34" y="-198.29" font-family="Times,serif" font-size="14.00">*0</text>
</g>
<!-- node5&#45;&gt;node16 -->
<g id="edge3" class="edge">
<title>node5&#45;&gt;node16</title>
<path fill="none" stroke="black" d="M466.1,-753.39C498.7,-744.95 536.3,-732.65 546,-719 578.18,-673.71 557.01,-648.45 546,-594 538.06,-554.76 525.8,-548.2 511,-511 472.58,-414.43 504.15,-363.8 429,-292 416.16,-279.73 380.4,-267.44 345.25,-257.7"/>
<polygon fill="black" stroke="black" points="345.94,-254.26 335.37,-255.01 344.11,-261.01 345.94,-254.26"/>
<text text-anchor="middle" x="355.08" y="-247.9" font-family="Times,serif" font-size="14.00">*2</text>
</g>
<!-- node11&#45;&gt;node16 -->
<g id="edge4" class="edge">
<title>node11&#45;&gt;node16</title>
<path fill="none" stroke="green" d="M272.86,-528.86C317.29,-498.53 403.7,-430.54 429,-346 435.88,-323.01 443.12,-311.41 429,-292 419.21,-278.54 387.38,-266.74 354.09,-257.63"/>
<polygon fill="green" stroke="green" points="354.77,-254.19 344.21,-255.01 352.98,-260.96 354.77,-254.19"/>
</g>
<!-- node14 -->
<g id="node6" class="node">
<title>node14</title>
<polygon fill="lightgrey" stroke="transparent" points="420.5,-346 331.5,-346 331.5,-292 420.5,-292 420.5,-346"/>
<polygon fill="none" stroke="black" points="332,-319 332,-346 421,-346 421,-319 332,-319"/>
<text text-anchor="start" x="353.5" y="-328.8" font-family="Times,serif" font-size="14.00">#14 If</text>
<polygon fill="yellow" stroke="transparent" points="332,-292 332,-319 378,-319 378,-292 332,-292"/>
<polygon fill="none" stroke="black" points="332,-292 332,-319 378,-319 378,-292 332,-292"/>
<text text-anchor="start" x="338" y="-301.8" font-family="Times,serif" font-size="14.00">false</text>
<polygon fill="yellow" stroke="transparent" points="378,-292 378,-319 421,-319 421,-292 378,-292"/>
<polygon fill="none" stroke="black" points="378,-292 378,-319 421,-319 421,-292 378,-292"/>
<text text-anchor="start" x="384" y="-301.8" font-family="Times,serif" font-size="14.00">true</text>
</g>
<!-- node11&#45;&gt;node14 -->
<g id="edge7" class="edge">
<title>node11&#45;&gt;node14</title>
<path fill="none" stroke="red" d="M275.29,-528.89C308.12,-507.81 359.55,-468.62 381,-419 389.45,-399.45 388.56,-375.67 385.39,-356.31"/>
<polygon fill="red" stroke="red" points="388.8,-355.52 383.5,-346.35 381.92,-356.83 388.8,-355.52"/>
</g>
<!-- node11&#45;&gt;node20 -->
<g id="edge28" class="edge">
<title>node11&#45;&gt;node20</title>
<path fill="none" stroke="green" d="M332.58,-537.52C449.21,-524.11 647.26,-493.62 691,-438 751.88,-360.58 663.93,-241.18 619.75,-189.85"/>
<polygon fill="green" stroke="green" points="622.28,-187.43 613.06,-182.21 617.02,-192.04 622.28,-187.43"/>
</g>
<!-- node12 -->
<g id="node19" class="node">
<title>node12</title>
<polygon fill="lightgreen" stroke="black" points="287.19,-466.54 287.19,-481.46 252.52,-492 203.48,-492 168.81,-481.46 168.81,-466.54 203.48,-456 252.52,-456 287.19,-466.54"/>
<text text-anchor="middle" x="228" y="-470.3" font-family="Times,serif" font-size="14.00">#12 int 0</text>
</g>
<!-- node11&#45;&gt;node12 -->
<g id="edge40" class="edge">
<title>node11&#45;&gt;node12</title>
<path fill="none" stroke="black" stroke-dasharray="1,5" d="M241.64,-528.81C239.59,-520.7 237.09,-510.84 234.79,-501.78"/>
<polygon fill="black" stroke="black" points="238.17,-500.86 232.32,-492.03 231.38,-502.58 238.17,-500.86"/>
</g>
<!-- node14&#45;&gt;node16 -->
<g id="edge5" class="edge">
<title>node14:prj15&#45;&gt;node16</title>
<path fill="none" stroke="red" d="M331,-305C306.46,-305 287.36,-282.92 275.54,-264.11"/>
<polygon fill="red" stroke="red" points="278.41,-262.1 270.33,-255.25 272.38,-265.65 278.41,-262.1"/>
</g>
<!-- node19 -->
<g id="node17" class="node">
<title>node19</title>
<polygon fill="lightgrey" stroke="black" points="495,-255 367,-255 367,-219 495,-219 495,-255"/>
<text text-anchor="middle" x="431" y="-233.3" font-family="Times,serif" font-size="14.00">#19 LabelNode</text>
</g>
<!-- node14&#45;&gt;node19 -->
<g id="edge30" class="edge">
<title>node14:prj17&#45;&gt;node19</title>
<path fill="none" stroke="red" d="M422,-305C438.93,-305 439.64,-283.72 437.03,-265.14"/>
<polygon fill="red" stroke="red" points="440.47,-264.51 435.32,-255.25 433.57,-265.7 440.47,-264.51"/>
</g>
<!-- node13&#45;&gt;node14 -->
<g id="edge6" class="edge">
<title>node13&#45;&gt;node14</title>
<path fill="none" stroke="black" d="M252.68,-382.84C272.96,-372.5 299.25,-359.11 322.34,-347.34"/>
<polygon fill="black" stroke="black" points="324.02,-350.41 331.35,-342.75 320.85,-344.18 324.02,-350.41"/>
<text text-anchor="middle" x="319.03" y="-354.81" font-family="Times,serif" font-size="14.00">*0</text>
</g>
<!-- node10 -->
<g id="node8" class="node">
<title>node10</title>
<polygon fill="lightgreen" stroke="black" points="534.35,-612.54 534.35,-627.46 496.07,-638 441.93,-638 403.65,-627.46 403.65,-612.54 441.93,-602 496.07,-602 534.35,-612.54"/>
<text text-anchor="middle" x="469" y="-616.3" font-family="Times,serif" font-size="14.00">#10 int 10</text>
</g>
<!-- node10&#45;&gt;node11 -->
<g id="edge10" class="edge">
<title>node10&#45;&gt;node11</title>
<path fill="none" stroke="black" d="M428.96,-605.49C417.67,-601.72 405.37,-597.66 394,-594 367.09,-585.33 337.33,-576.03 311.61,-568.08"/>
<polygon fill="black" stroke="black" points="312.54,-564.7 301.96,-565.1 310.48,-571.39 312.54,-564.7"/>
<text text-anchor="middle" x="321.77" y="-558.67" font-family="Times,serif" font-size="14.00">*2</text>
</g>
<!-- node7 -->
<g id="node9" class="node">
<title>node7</title>
<polygon fill="lightgrey" stroke="black" points="523.5,-711 404.5,-711 404.5,-675 523.5,-675 523.5,-711"/>
<text text-anchor="middle" x="464" y="-689.3" font-family="Times,serif" font-size="14.00">#7 LabelNode</text>
</g>
<!-- node7&#45;&gt;node11 -->
<g id="edge12" class="edge">
<title>node7&#45;&gt;node11</title>
<path fill="none" stroke="red" d="M404.49,-679.93C382.95,-675.68 358.41,-670.97 336,-667 295.67,-659.85 180.58,-669.15 154,-638 141.31,-623.12 143.72,-610.63 154,-594 160.1,-584.13 169.03,-576.31 178.96,-570.13"/>
<polygon fill="red" stroke="red" points="180.89,-573.06 187.9,-565.11 177.46,-566.96 180.89,-573.06"/>
</g>
<!-- node7&#45;&gt;node10 -->
<g id="edge39" class="edge">
<title>node7&#45;&gt;node10</title>
<path fill="none" stroke="black" stroke-dasharray="1,5" d="M465.21,-674.81C465.78,-666.79 466.46,-657.05 467.09,-648.07"/>
<polygon fill="black" stroke="black" points="470.59,-648.25 467.8,-638.03 463.61,-647.76 470.59,-648.25"/>
</g>
<!-- node4&#45;&gt;node7 -->
<g id="edge13" class="edge">
<title>node4&#45;&gt;node7</title>
<path fill="none" stroke="red" d="M311.9,-747.99C340.27,-737.92 376.39,-725.1 406.31,-714.48"/>
<polygon fill="red" stroke="red" points="407.54,-717.76 415.79,-711.11 405.2,-711.16 407.54,-717.76"/>
</g>
<!-- node8 -->
<g id="node11" class="node">
<title>node8</title>
<polygon fill="lightgreen" stroke="black" points="323.19,-685.54 323.19,-700.46 288.52,-711 239.48,-711 204.81,-700.46 204.81,-685.54 239.48,-675 288.52,-675 323.19,-685.54"/>
<text text-anchor="middle" x="264" y="-689.3" font-family="Times,serif" font-size="14.00">#8 int 10</text>
</g>
<!-- node4&#45;&gt;node8 -->
<g id="edge15" class="edge">
<title>node4&#45;&gt;node8</title>
<path fill="none" stroke="black" stroke-dasharray="1,5" d="M264,-747.81C264,-739.79 264,-730.05 264,-721.07"/>
<polygon fill="black" stroke="black" points="267.5,-721.03 264,-711.03 260.5,-721.03 267.5,-721.03"/>
</g>
<!-- node8&#45;&gt;node9 -->
<g id="edge16" class="edge">
<title>node8&#45;&gt;node9</title>
<path fill="none" stroke="black" d="M266.42,-674.81C267.55,-666.79 268.92,-657.05 270.19,-648.07"/>
<polygon fill="black" stroke="black" points="273.67,-648.42 271.6,-638.03 266.74,-647.44 273.67,-648.42"/>
<text text-anchor="middle" x="277.44" y="-653.46" font-family="Times,serif" font-size="14.00">*0</text>
</g>
<!-- node23 -->
<g id="node18" class="node">
<title>node23</title>
<polygon fill="lightgrey" stroke="black" points="784.5,-36 611.5,-36 611.5,0 784.5,0 784.5,-36"/>
<text text-anchor="middle" x="698" y="-14.3" font-family="Times,serif" font-size="14.00">#23 ReturnValue : int</text>
</g>
<!-- node22&#45;&gt;node23 -->
<g id="edge36" class="edge">
<title>node22&#45;&gt;node23</title>
<path fill="none" stroke="black" d="M774.51,-528.82C771.03,-514.46 769,-493.43 769,-475 769,-475 769,-475 769,-90 769,-69.44 754.04,-53.39 737.79,-41.79"/>
<polygon fill="black" stroke="black" points="739.51,-38.73 729.24,-36.12 735.64,-44.56 739.51,-38.73"/>
<text text-anchor="middle" x="749.02" y="-35.39" font-family="Times,serif" font-size="14.00">*0</text>
</g>
<!-- node22&#45;&gt;node23 -->
<g id="edge38" class="edge">
<title>node22&#45;&gt;node23</title>
<path fill="none" stroke="green" d="M788.96,-528.82C789.03,-514.46 787,-493.43 787,-475 787,-475 787,-475 787,-90 787,-69.25 771.76,-53.09 753.84,-41.47"/>
<polygon fill="green" stroke="green" points="755.27,-38.24 744.88,-36.12 751.68,-44.25 755.27,-38.24"/>
</g>
<!-- node21&#45;&gt;node22 -->
<g id="edge20" class="edge">
<title>node21&#45;&gt;node22</title>
<path fill="none" stroke="green" d="M545.54,-109.08C528.62,-117.42 511.68,-129.36 502,-146 485.01,-175.21 565.36,-412.05 587,-438 621.83,-479.78 677.17,-508.09 720.34,-525.21"/>
<polygon fill="green" stroke="green" points="719.32,-528.56 729.91,-528.9 721.84,-522.03 719.32,-528.56"/>
</g>
<!-- node21&#45;&gt;node23 -->
<g id="edge37" class="edge">
<title>node21&#45;&gt;node23</title>
<path fill="none" stroke="red" d="M621.19,-72.99C634.34,-63.75 650.78,-52.19 665.08,-42.14"/>
<polygon fill="red" stroke="red" points="667.49,-44.73 673.66,-36.11 663.46,-39 667.49,-44.73"/>
</g>
<!-- node18&#45;&gt;node21 -->
<g id="edge21" class="edge">
<title>node18&#45;&gt;node21</title>
<path fill="none" stroke="red" d="M366.66,-151.91C408.06,-141.14 471.79,-124.56 521.73,-111.58"/>
<polygon fill="red" stroke="red" points="522.73,-114.93 531.52,-109.03 520.96,-108.16 522.73,-114.93"/>
</g>
<!-- node20&#45;&gt;node21 -->
<g id="edge22" class="edge">
<title>node20&#45;&gt;node21</title>
<path fill="none" stroke="red" d="M591.12,-145.81C590.28,-137.79 590.05,-128.05 590.42,-119.07"/>
<polygon fill="red" stroke="red" points="593.92,-119.25 591.14,-109.03 586.94,-118.75 593.92,-119.25"/>
</g>
<!-- node20&#45;&gt;node21 -->
<g id="edge24" class="edge">
<title>node20&#45;&gt;node21</title>
<path fill="none" stroke="green" d="M602.88,-145.81C603.72,-137.79 603.95,-128.05 603.58,-119.07"/>
<polygon fill="green" stroke="green" points="607.06,-118.75 602.86,-109.03 600.08,-119.25 607.06,-118.75"/>
</g>
<!-- node6&#45;&gt;node20 -->
<g id="edge27" class="edge">
<title>node6&#45;&gt;node20</title>
<path fill="none" stroke="black" d="M586.35,-747.75C593.09,-733.7 601,-713.13 601,-694 601,-694 601,-694 601,-236 601,-221.63 600.17,-205.65 599.27,-192.49"/>
<polygon fill="black" stroke="black" points="602.74,-191.92 598.51,-182.2 595.76,-192.43 602.74,-191.92"/>
<text text-anchor="middle" x="608.27" y="-195.96" font-family="Times,serif" font-size="14.00">*2</text>
</g>
<!-- node19&#45;&gt;node20 -->
<g id="edge29" class="edge">
<title>node19&#45;&gt;node20</title>
<path fill="none" stroke="red" d="M470.76,-218.99C493.79,-209.14 522.99,-196.66 547.5,-186.17"/>
<polygon fill="red" stroke="red" points="549.17,-189.26 556.99,-182.11 546.42,-182.83 549.17,-189.26"/>
</g>
<!-- node12&#45;&gt;node13 -->
<g id="edge42" class="edge">
<title>node12&#45;&gt;node13</title>
<path fill="none" stroke="black" d="M225.82,-455.81C224.8,-447.79 223.57,-438.05 222.43,-429.07"/>
<polygon fill="black" stroke="black" points="225.89,-428.51 221.16,-419.03 218.94,-429.39 225.89,-428.51"/>
<text text-anchor="middle" x="231.82" y="-432.25" font-family="Times,serif" font-size="14.00">*1</text>
</g>
<!-- c0 -->
<!-- c1 -->
<!-- c0&#45;&gt;c1 -->
<g id="edge43" class="edge">
<title>c0&#45;&gt;c1</title>
<path fill="none" stroke="red" d="M1238.89,-848C1250.11,-848 1308.24,-848 1333.86,-848"/>
<polygon fill="red" stroke="red" points="1334.06,-851.5 1344.06,-848 1334.06,-844.5 1334.06,-851.5"/>
<text text-anchor="middle" x="1291.5" y="-854.8" font-family="Times,serif" font-size="14.00">Control flow</text>
</g>
<!-- c2 -->
<!-- c3 -->
<!-- c2&#45;&gt;c3 -->
<g id="edge44" class="edge">
<title>c2&#45;&gt;c3</title>
<path fill="none" stroke="red" stroke-dasharray="5,2" d="M1032.08,-848C1049.05,-848 1165.21,-848 1203.08,-848"/>
<polygon fill="red" stroke="red" points="1203.17,-851.5 1213.17,-848 1203.17,-844.5 1203.17,-851.5"/>
<text text-anchor="middle" x="1122.5" y="-854.8" font-family="Times,serif" font-size="14.00">Control flow back edge</text>
</g>
<!-- d0 -->
<!-- d1 -->
<!-- d0&#45;&gt;d1 -->
<g id="edge45" class="edge">
<title>d0&#45;&gt;d1</title>
<path fill="none" stroke="black" d="M920.86,-848C930.41,-848 974.31,-848 995.92,-848"/>
<polygon fill="black" stroke="black" points="996.15,-851.5 1006.15,-848 996.15,-844.5 996.15,-851.5"/>
<text text-anchor="middle" x="963.5" y="-854.8" font-family="Times,serif" font-size="14.00">Data flow</text>
</g>
<!-- d2 -->
<!-- d3 -->
<!-- d2&#45;&gt;d3 -->
<g id="edge46" class="edge">
<title>d2&#45;&gt;d3</title>
<path fill="none" stroke="black" stroke-dasharray="1,5" d="M794.81,-848C805.46,-848 860.46,-848 885.08,-848"/>
<polygon fill="black" stroke="black" points="885.15,-851.5 895.15,-848 885.15,-844.5 885.15,-851.5"/>
<text text-anchor="middle" x="845" y="-854.8" font-family="Times,serif" font-size="14.00">Declaration</text>
</g>
<!-- d4 -->
<!-- d5 -->
<!-- d4&#45;&gt;d5 -->
<g id="edge47" class="edge">
<title>d4&#45;&gt;d5</title>
<path fill="none" stroke="blue" d="M652.1,-848C664.72,-848 730.88,-848 758.68,-848"/>
<polygon fill="blue" stroke="blue" points="758.84,-851.5 768.84,-848 758.84,-844.5 758.84,-851.5"/>
<text text-anchor="middle" x="710.5" y="-854.8" font-family="Times,serif" font-size="14.00">PHI Data flow</text>
</g>
<!-- d6 -->
<!-- d7 -->
<!-- d6&#45;&gt;d7 -->
<g id="edge48" class="edge">
<title>d6&#45;&gt;d7</title>
<path fill="none" stroke="green" d="M515,-848C526.94,-848 589.3,-848 615.93,-848"/>
<polygon fill="green" stroke="green" points="615.95,-851.5 625.95,-848 615.95,-844.5 615.95,-851.5"/>
<text text-anchor="middle" x="570.5" y="-854.8" font-family="Times,serif" font-size="14.00">Memory flow</text>
</g>
</g>
</svg>
