<?xml version="1.0" encoding="UTF-8" standalone="no"?>
<!DOCTYPE svg PUBLIC "-//W3C//DTD SVG 1.1//EN"
 "http://www.w3.org/Graphics/SVG/1.1/DTD/svg11.dtd">
<!-- Generated by graphviz version 2.43.0 (0)
 -->
<!-- Title: %3 Pages: 1 -->
<svg width="1559pt" height="753pt"
 viewBox="0.00 0.00 1559.00 753.00" xmlns="http://www.w3.org/2000/svg" xmlns:xlink="http://www.w3.org/1999/xlink">
<g id="graph0" class="graph" transform="scale(1 1) rotate(0) translate(4 749)">
<title>%3</title>
<polygon fill="white" stroke="transparent" points="-4,4 -4,-749 1555,-749 1555,4 -4,4"/>
<g id="clust1" class="cluster">
<title>cluster_0</title>
<polygon fill="none" stroke="lightgray" points="127,-594 127,-737 682,-737 682,-594 127,-594"/>
</g>
<g id="clust2" class="cluster">
<title>cluster_000</title>
<polygon fill="none" stroke="black" points="690,-692.2 690,-734.8 1543,-734.8 1543,-692.2 690,-692.2"/>
<text text-anchor="middle" x="1116.5" y="-719.6" font-family="Times,serif" font-size="14.00">Legend</text>
</g>
<!-- node0 -->
<g id="node1" class="node">
<title>node0</title>
<polygon fill="lightgrey" stroke="transparent" points="644.5,-729 407.5,-729 407.5,-675 644.5,-675 644.5,-729"/>
<polygon fill="none" stroke="black" points="408,-702 408,-729 645,-729 645,-702 408,-702"/>
<text text-anchor="start" x="486" y="-711.8" font-family="Times,serif" font-size="14.00">#0 Method</text>
<polygon fill="yellow" stroke="transparent" points="408,-675 408,-702 487,-702 487,-675 408,-675"/>
<polygon fill="none" stroke="black" points="408,-675 408,-702 487,-702 487,-675 408,-675"/>
<text text-anchor="start" x="414" y="-684.8" font-family="Times,serif" font-size="14.00">arg0 : int</text>
<polygon fill="yellow" stroke="transparent" points="487,-675 487,-702 566,-702 566,-675 487,-675"/>
<polygon fill="none" stroke="black" points="487,-675 487,-702 566,-702 566,-675 487,-675"/>
<text text-anchor="start" x="493" y="-684.8" font-family="Times,serif" font-size="14.00">arg1 : int</text>
<polygon fill="yellow" stroke="transparent" points="566,-675 566,-702 645,-702 645,-675 566,-675"/>
<polygon fill="none" stroke="black" points="566,-675 566,-702 645,-702 645,-675 566,-675"/>
<text text-anchor="start" x="572" y="-684.8" font-family="Times,serif" font-size="14.00">arg2 : int</text>
</g>
<!-- node17 -->
<g id="node2" class="node">
<title>node17</title>
<polygon fill="lightgreen" stroke="black" points="265.35,-612.54 265.35,-627.46 227.07,-638 172.93,-638 134.65,-627.46 134.65,-612.54 172.93,-602 227.07,-602 265.35,-612.54"/>
<text text-anchor="middle" x="200" y="-616.3" font-family="Times,serif" font-size="14.00">#17 int 20</text>
</g>
<!-- node0&#45;&gt;node17 -->
<g id="edge1" class="edge">
<title>node0&#45;&gt;node17</title>
<path fill="none" stroke="black" stroke-dasharray="1,5" d="M419.71,-674.92C365.47,-661.61 301.65,-645.95 256.82,-634.94"/>
<polygon fill="black" stroke="black" points="257.53,-631.51 246.98,-632.53 255.86,-638.31 257.53,-631.51"/>
</g>
<!-- node18 -->
<g id="node3" class="node">
<title>node18</title>
<polygon fill="lightgrey" stroke="black" points="267.5,-328 94.5,-328 94.5,-292 267.5,-292 267.5,-328"/>
<text text-anchor="middle" x="181" y="-306.3" font-family="Times,serif" font-size="14.00">#18 ArrayStore : int[]</text>
</g>
<!-- node0&#45;&gt;node18 -->
<g id="edge3" class="edge">
<title>node0:prj1&#45;&gt;node18</title>
<path fill="none" stroke="black" d="M606,-675C606,-649.48 172.27,-660.55 147,-657 80.39,-647.63 0,-688.26 0,-621 0,-621 0,-621 0,-437 0,-382.69 55.58,-349.88 105.14,-331.42"/>
<polygon fill="black" stroke="black" points="106.39,-334.69 114.63,-328.02 104.04,-328.09 106.39,-334.69"/>
<text text-anchor="middle" x="100.41" y="-338.38" font-family="Times,serif" font-size="14.00">*1</text>
</g>
<!-- node6 -->
<g id="node4" class="node">
<title>node6</title>
<polygon fill="orange" stroke="black" points="598.3,-539.54 598.3,-554.46 533.1,-565 440.9,-565 375.7,-554.46 375.7,-539.54 440.9,-529 533.1,-529 598.3,-539.54"/>
<text text-anchor="middle" x="487" y="-543.3" font-family="Times,serif" font-size="14.00">#6 NewArray : int[]</text>
</g>
<!-- node0&#45;&gt;node6 -->
<g id="edge17" class="edge">
<title>node0&#45;&gt;node6</title>
<path fill="none" stroke="green" d="M407.39,-698.77C302.82,-694 161.69,-679.75 126,-638 61.73,-562.81 182.81,-589.13 367,-565 376.7,-563.73 386.84,-562.36 396.93,-560.97"/>
<polygon fill="green" stroke="green" points="397.57,-564.41 406.99,-559.57 396.61,-557.48 397.57,-564.41"/>
</g>
<!-- node11 -->
<g id="node5" class="node">
<title>node11</title>
<polygon fill="lightgrey" stroke="black" points="792.5,-492 619.5,-492 619.5,-456 792.5,-456 792.5,-492"/>
<text text-anchor="middle" x="706" y="-470.3" font-family="Times,serif" font-size="14.00">#11 ArrayStore : int[]</text>
</g>
<!-- node0&#45;&gt;node11 -->
<g id="edge10" class="edge">
<title>node0:prj3&#45;&gt;node11</title>
<path fill="none" stroke="black" d="M527,-675C527,-657.19 671,-651.17 683,-638 716.76,-600.96 715.06,-538.18 710.64,-502.31"/>
<polygon fill="black" stroke="black" points="714.06,-501.52 709.22,-492.09 707.13,-502.48 714.06,-501.52"/>
<text text-anchor="middle" x="720.09" y="-505.18" font-family="Times,serif" font-size="14.00">*1</text>
</g>
<!-- node9 -->
<g id="node7" class="node">
<title>node9</title>
<polygon fill="orange" stroke="black" points="358.15,-539.54 358.15,-554.46 272.54,-565 151.46,-565 65.85,-554.46 65.85,-539.54 151.46,-529 272.54,-529 358.15,-539.54"/>
<text text-anchor="middle" x="212" y="-543.3" font-family="Times,serif" font-size="14.00">#9 NumericCondition : EQ</text>
</g>
<!-- node0&#45;&gt;node9 -->
<g id="edge38" class="edge">
<title>node0:prj2&#45;&gt;node9</title>
<path fill="none" stroke="black" d="M407,-688C343.57,-688 166.73,-686.62 126,-638 113.44,-623.01 115.95,-610.77 126,-594 131.86,-584.23 140.58,-576.41 150.25,-570.2"/>
<polygon fill="black" stroke="black" points="152.06,-573.2 158.95,-565.15 148.54,-567.15 152.06,-573.2"/>
<text text-anchor="middle" x="147.52" y="-577.87" font-family="Times,serif" font-size="14.00">*0</text>
</g>
<!-- node10 -->
<g id="node8" class="node">
<title>node10</title>
<polygon fill="lightgreen" stroke="black" points="537.35,-612.54 537.35,-627.46 499.07,-638 444.93,-638 406.65,-627.46 406.65,-612.54 444.93,-602 499.07,-602 537.35,-612.54"/>
<text text-anchor="middle" x="472" y="-616.3" font-family="Times,serif" font-size="14.00">#10 int 10</text>
</g>
<!-- node0&#45;&gt;node10 -->
<g id="edge18" class="edge">
<title>node0&#45;&gt;node10</title>
<path fill="none" stroke="black" stroke-dasharray="1,5" d="M508.32,-674.81C502.23,-665.78 495.42,-655.69 489.35,-646.71"/>
<polygon fill="black" stroke="black" points="492.09,-644.5 483.59,-638.17 486.29,-648.42 492.09,-644.5"/>
</g>
<!-- node4 -->
<g id="node10" class="node">
<title>node4</title>
<polygon fill="lightgrey" stroke="black" points="849.5,-638 730.5,-638 730.5,-602 849.5,-602 849.5,-638"/>
<text text-anchor="middle" x="790" y="-616.3" font-family="Times,serif" font-size="14.00">#4 LabelNode</text>
</g>
<!-- node0&#45;&gt;node4 -->
<g id="edge15" class="edge">
<title>node0&#45;&gt;node4</title>
<path fill="none" stroke="red" d="M644.51,-677.9C668.46,-672.03 693.26,-665.05 716,-657 727.25,-653.02 739.04,-647.8 749.81,-642.58"/>
<polygon fill="red" stroke="red" points="751.59,-645.61 758.98,-638.02 748.47,-639.34 751.59,-645.61"/>
</g>
<!-- node21 -->
<g id="node11" class="node">
<title>node21</title>
<polygon fill="lightgrey" stroke="black" points="406,-109 248,-109 248,-73 406,-73 406,-109"/>
<text text-anchor="middle" x="327" y="-87.3" font-family="Times,serif" font-size="14.00">#21 ArrayLoad : int</text>
</g>
<!-- node0&#45;&gt;node21 -->
<g id="edge20" class="edge">
<title>node0:prj1&#45;&gt;node21</title>
<path fill="none" stroke="black" d="M646,-688C664.69,-688 667.69,-678.77 686,-675 771.25,-657.44 797.24,-680.64 881,-657 915.81,-647.17 954,-657.18 954,-621 954,-621 954,-621 954,-163 954,-109.53 589.32,-96.32 416.21,-93.06"/>
<polygon fill="black" stroke="black" points="416.15,-89.56 406.09,-92.88 416.03,-96.56 416.15,-89.56"/>
<text text-anchor="middle" x="424.37" y="-81.06" font-family="Times,serif" font-size="14.00">*1</text>
</g>
<!-- node12 -->
<g id="node14" class="node">
<title>node12</title>
<polygon fill="lightgrey" stroke="black" points="573.5,-255 400.5,-255 400.5,-219 573.5,-219 573.5,-255"/>
<text text-anchor="middle" x="487" y="-233.3" font-family="Times,serif" font-size="14.00">#12 ArrayStore : int[]</text>
</g>
<!-- node0&#45;&gt;node12 -->
<g id="edge28" class="edge">
<title>node0:prj1&#45;&gt;node12</title>
<path fill="none" stroke="black" d="M646,-688C664.69,-688 667.95,-679.85 686,-675 771.61,-652 878,-709.64 878,-621 878,-621 878,-621 878,-309 878,-279.17 699.52,-257.24 583.73,-246.15"/>
<polygon fill="black" stroke="black" points="584.06,-242.66 573.78,-245.21 583.4,-249.63 584.06,-242.66"/>
<text text-anchor="middle" x="592.62" y="-234.8" font-family="Times,serif" font-size="14.00">*1</text>
</g>
<!-- node7 -->
<g id="node15" class="node">
<title>node7</title>
<polygon fill="lightgreen" stroke="black" points="674.19,-612.54 674.19,-627.46 639.52,-638 590.48,-638 555.81,-627.46 555.81,-612.54 590.48,-602 639.52,-602 674.19,-612.54"/>
<text text-anchor="middle" x="615" y="-616.3" font-family="Times,serif" font-size="14.00">#7 int 30</text>
</g>
<!-- node0&#45;&gt;node7 -->
<g id="edge33" class="edge">
<title>node0&#45;&gt;node7</title>
<path fill="none" stroke="black" stroke-dasharray="1,5" d="M555.14,-674.81C565.81,-665.22 577.81,-654.43 588.26,-645.04"/>
<polygon fill="black" stroke="black" points="590.8,-647.46 595.89,-638.17 586.12,-642.26 590.8,-647.46"/>
</g>
<!-- node8 -->
<g id="node18" class="node">
<title>node8</title>
<polygon fill="lightgreen" stroke="black" points="388.52,-612.54 388.52,-627.46 357.76,-638 314.24,-638 283.48,-627.46 283.48,-612.54 314.24,-602 357.76,-602 388.52,-612.54"/>
<text text-anchor="middle" x="336" y="-616.3" font-family="Times,serif" font-size="14.00">#8 int 0</text>
</g>
<!-- node0&#45;&gt;node8 -->
<g id="edge40" class="edge">
<title>node0&#45;&gt;node8</title>
<path fill="none" stroke="black" stroke-dasharray="1,5" d="M464.05,-674.92C435.63,-662.95 402.69,-649.08 377.34,-638.41"/>
<polygon fill="black" stroke="black" points="378.6,-635.14 368.03,-634.48 375.88,-641.59 378.6,-635.14"/>
</g>
<!-- node17&#45;&gt;node18 -->
<g id="edge4" class="edge">
<title>node17&#45;&gt;node18</title>
<path fill="none" stroke="black" d="M137.51,-611.74C107.93,-604.81 75.18,-591.3 57,-565 2.99,-486.87 101.54,-381.68 152.83,-335.01"/>
<polygon fill="black" stroke="black" points="155.21,-337.58 160.33,-328.3 150.54,-332.36 155.21,-337.58"/>
<text text-anchor="middle" x="152.46" y="-342.99" font-family="Times,serif" font-size="14.00">*2</text>
</g>
<!-- node20 -->
<g id="node12" class="node">
<title>node20</title>
<polygon fill="lightgrey" stroke="black" points="415,-182 239,-182 239,-146 415,-146 415,-182"/>
<text text-anchor="middle" x="327" y="-160.3" font-family="Times,serif" font-size="14.00">#20 Merge : Merge30</text>
</g>
<!-- node18&#45;&gt;node20 -->
<g id="edge25" class="edge">
<title>node18&#45;&gt;node20</title>
<path fill="none" stroke="green" d="M230.93,-291.95C250.39,-283.32 271.65,-271.18 287,-255 303.76,-237.33 314.25,-211.47 320.26,-192"/>
<polygon fill="green" stroke="green" points="323.68,-192.78 323.08,-182.2 316.95,-190.85 323.68,-192.78"/>
</g>
<!-- node19 -->
<g id="node13" class="node">
<title>node19</title>
<polygon fill="lightgrey" stroke="black" points="277.5,-255 192.5,-255 192.5,-219 277.5,-219 277.5,-255"/>
<text text-anchor="middle" x="235" y="-233.3" font-family="Times,serif" font-size="14.00">#19 Goto</text>
</g>
<!-- node18&#45;&gt;node19 -->
<g id="edge34" class="edge">
<title>node18&#45;&gt;node19</title>
<path fill="none" stroke="red" d="M194.07,-291.81C200.64,-283.18 208.72,-272.56 215.96,-263.03"/>
<polygon fill="red" stroke="red" points="218.78,-265.11 222.05,-255.03 213.21,-260.87 218.78,-265.11"/>
</g>
<!-- node6&#45;&gt;node18 -->
<g id="edge2" class="edge">
<title>node6&#45;&gt;node18</title>
<path fill="none" stroke="black" d="M451.36,-528.93C407.28,-506.91 331.08,-465.83 274,-419 244.32,-394.65 216.45,-360.14 199.1,-336.73"/>
<polygon fill="black" stroke="black" points="201.71,-334.36 192.99,-328.35 196.05,-338.49 201.71,-334.36"/>
<text text-anchor="middle" x="210.5" y="-334.31" font-family="Times,serif" font-size="14.00">*0</text>
</g>
<!-- node6&#45;&gt;node11 -->
<g id="edge9" class="edge">
<title>node6&#45;&gt;node11</title>
<path fill="none" stroke="black" d="M533.6,-528.99C563.85,-518.84 603.72,-505.88 637.52,-495.2"/>
<polygon fill="black" stroke="black" points="638.85,-498.45 647.34,-492.11 636.75,-491.78 638.85,-498.45"/>
<text text-anchor="middle" x="632.59" y="-501.92" font-family="Times,serif" font-size="14.00">*0</text>
</g>
<!-- node6&#45;&gt;node11 -->
<g id="edge12" class="edge">
<title>node6&#45;&gt;node11</title>
<path fill="none" stroke="green" d="M541.32,-530.24C574.3,-519.94 616.24,-506.39 649.58,-495.29"/>
<polygon fill="green" stroke="green" points="650.81,-498.57 659.19,-492.08 648.6,-491.93 650.81,-498.57"/>
</g>
<!-- node6&#45;&gt;node21 -->
<g id="edge19" class="edge">
<title>node6&#45;&gt;node21</title>
<path fill="none" stroke="black" d="M431.39,-530.35C308.78,-494.2 26,-401.06 26,-311 26,-311 26,-311 26,-163 26,-119.06 149.07,-102.28 237.82,-95.9"/>
<polygon fill="black" stroke="black" points="238.18,-99.38 247.92,-95.2 237.7,-92.4 238.18,-99.38"/>
<text text-anchor="middle" x="230.41" y="-101.18" font-family="Times,serif" font-size="14.00">*0</text>
</g>
<!-- node6&#45;&gt;node12 -->
<g id="edge27" class="edge">
<title>node6&#45;&gt;node12</title>
<path fill="none" stroke="black" d="M487,-528.78C487,-514.41 487,-493.37 487,-475 487,-475 487,-475 487,-309 487,-294.65 487,-278.67 487,-265.51"/>
<polygon fill="black" stroke="black" points="490.5,-265.22 487,-255.22 483.5,-265.22 490.5,-265.22"/>
<text text-anchor="middle" x="495.45" y="-269.64" font-family="Times,serif" font-size="14.00">*0</text>
</g>
<!-- node11&#45;&gt;node18 -->
<g id="edge5" class="edge">
<title>node11&#45;&gt;node18</title>
<path fill="none" stroke="green" d="M657.55,-455.94C594.28,-433.88 479.93,-394.77 381,-365 340.53,-352.82 295.08,-340.45 257.74,-330.62"/>
<polygon fill="green" stroke="green" points="258.5,-327.2 247.94,-328.05 256.72,-333.97 258.5,-327.2"/>
</g>
<!-- node13 -->
<g id="node6" class="node">
<title>node13</title>
<polygon fill="lightgrey" stroke="transparent" points="371.5,-419 282.5,-419 282.5,-365 371.5,-365 371.5,-419"/>
<polygon fill="none" stroke="black" points="283,-392 283,-419 372,-419 372,-392 283,-392"/>
<text text-anchor="start" x="304.5" y="-401.8" font-family="Times,serif" font-size="14.00">#13 If</text>
<polygon fill="yellow" stroke="transparent" points="283,-365 283,-392 329,-392 329,-365 283,-365"/>
<polygon fill="none" stroke="black" points="283,-365 283,-392 329,-392 329,-365 283,-365"/>
<text text-anchor="start" x="289" y="-374.8" font-family="Times,serif" font-size="14.00">false</text>
<polygon fill="yellow" stroke="transparent" points="329,-365 329,-392 372,-392 372,-365 329,-365"/>
<polygon fill="none" stroke="black" points="329,-365 329,-392 372,-392 372,-365 329,-365"/>
<text text-anchor="start" x="335" y="-374.8" font-family="Times,serif" font-size="14.00">true</text>
</g>
<!-- node11&#45;&gt;node13 -->
<g id="edge8" class="edge">
<title>node11&#45;&gt;node13</title>
<path fill="none" stroke="red" d="M625.16,-455.94C551.7,-440.43 445.33,-417.98 381.49,-404.5"/>
<polygon fill="red" stroke="red" points="382.12,-401.06 371.62,-402.42 380.68,-407.91 382.12,-401.06"/>
</g>
<!-- node11&#45;&gt;node12 -->
<g id="edge30" class="edge">
<title>node11&#45;&gt;node12</title>
<path fill="none" stroke="green" d="M702.26,-455.92C692.91,-417.36 664.86,-322.99 605,-273 598.33,-267.43 590.79,-262.74 582.84,-258.8"/>
<polygon fill="green" stroke="green" points="584.27,-255.6 573.71,-254.66 581.38,-261.98 584.27,-255.6"/>
</g>
<!-- node13&#45;&gt;node18 -->
<g id="edge6" class="edge">
<title>node13:prj16&#45;&gt;node18</title>
<path fill="none" stroke="red" d="M282,-378C250.23,-378 220.81,-354.7 202.01,-335.58"/>
<polygon fill="red" stroke="red" points="204.51,-333.13 195.11,-328.25 199.42,-337.93 204.51,-333.13"/>
</g>
<!-- node15 -->
<g id="node16" class="node">
<title>node15</title>
<polygon fill="lightgrey" stroke="black" points="441,-328 313,-328 313,-292 441,-292 441,-328"/>
<text text-anchor="middle" x="377" y="-306.3" font-family="Times,serif" font-size="14.00">#15 LabelNode</text>
</g>
<!-- node13&#45;&gt;node15 -->
<g id="edge32" class="edge">
<title>node13:prj14&#45;&gt;node15</title>
<path fill="none" stroke="red" d="M351,-365C351,-355.22 354.51,-345.34 358.94,-336.75"/>
<polygon fill="red" stroke="red" points="362.02,-338.42 364,-328.01 355.96,-334.91 362.02,-338.42"/>
</g>
<!-- node9&#45;&gt;node13 -->
<g id="edge7" class="edge">
<title>node9&#45;&gt;node13</title>
<path fill="none" stroke="black" d="M214.82,-528.71C219.34,-505.57 230.16,-464.28 253,-437 258.85,-430.01 266.11,-423.86 273.77,-418.54"/>
<polygon fill="black" stroke="black" points="275.7,-421.46 282.2,-413.09 271.9,-415.58 275.7,-421.46"/>
<text text-anchor="middle" x="271.57" y="-426.33" font-family="Times,serif" font-size="14.00">*0</text>
</g>
<!-- node10&#45;&gt;node6 -->
<g id="edge16" class="edge">
<title>node10&#45;&gt;node6</title>
<path fill="none" stroke="black" d="M475.63,-601.81C477.33,-593.79 479.38,-584.05 481.28,-575.07"/>
<polygon fill="black" stroke="black" points="484.76,-575.54 483.4,-565.03 477.91,-574.09 484.76,-575.54"/>
<text text-anchor="middle" x="487.93" y="-580.81" font-family="Times,serif" font-size="14.00">*0</text>
</g>
<!-- node10&#45;&gt;node11 -->
<g id="edge11" class="edge">
<title>node10&#45;&gt;node11</title>
<path fill="none" stroke="black" d="M511.04,-605.14C544.72,-592.87 590.47,-575.34 607,-565 636.2,-546.72 664.8,-519.42 683.69,-499.68"/>
<polygon fill="black" stroke="black" points="686.37,-501.93 690.67,-492.25 681.27,-497.14 686.37,-501.93"/>
<text text-anchor="middle" x="684.4" y="-507.55" font-family="Times,serif" font-size="14.00">*2</text>
</g>
<!-- node5 -->
<g id="node9" class="node">
<title>node5</title>
<polygon fill="lightgrey" stroke="black" points="849.5,-565 730.5,-565 730.5,-529 849.5,-529 849.5,-565"/>
<text text-anchor="middle" x="790" y="-543.3" font-family="Times,serif" font-size="14.00">#5 LabelNode</text>
</g>
<!-- node5&#45;&gt;node11 -->
<g id="edge13" class="edge">
<title>node5&#45;&gt;node11</title>
<path fill="none" stroke="red" d="M769.67,-528.81C758.94,-519.74 745.61,-508.48 733.92,-498.6"/>
<polygon fill="red" stroke="red" points="736.04,-495.81 726.15,-492.03 731.52,-501.16 736.04,-495.81"/>
</g>
<!-- node4&#45;&gt;node5 -->
<g id="edge14" class="edge">
<title>node4&#45;&gt;node5</title>
<path fill="none" stroke="red" d="M790,-601.81C790,-593.79 790,-584.05 790,-575.07"/>
<polygon fill="red" stroke="red" points="793.5,-575.03 790,-565.03 786.5,-575.03 793.5,-575.03"/>
</g>
<!-- node22 -->
<g id="node17" class="node">
<title>node22</title>
<polygon fill="lightgrey" stroke="black" points="413.5,-36 240.5,-36 240.5,0 413.5,0 413.5,-36"/>
<text text-anchor="middle" x="327" y="-14.3" font-family="Times,serif" font-size="14.00">#22 ReturnValue : int</text>
</g>
<!-- node21&#45;&gt;node22 -->
<g id="edge35" class="edge">
<title>node21&#45;&gt;node22</title>
<path fill="none" stroke="black" d="M315.24,-72.81C313.56,-64.79 313.1,-55.05 313.84,-46.07"/>
<polygon fill="black" stroke="black" points="317.33,-46.42 315.28,-36.03 310.4,-45.43 317.33,-46.42"/>
<text text-anchor="middle" x="321.08" y="-51.47" font-family="Times,serif" font-size="14.00">*0</text>
</g>
<!-- node21&#45;&gt;node22 -->
<g id="edge36" class="edge">
<title>node21&#45;&gt;node22</title>
<path fill="none" stroke="red" d="M327,-72.81C327,-64.79 327,-55.05 327,-46.07"/>
<polygon fill="red" stroke="red" points="330.5,-46.03 327,-36.03 323.5,-46.03 330.5,-46.03"/>
</g>
<!-- node21&#45;&gt;node22 -->
<g id="edge37" class="edge">
<title>node21&#45;&gt;node22</title>
<path fill="none" stroke="green" d="M338.76,-72.81C340.44,-64.79 340.9,-55.05 340.16,-46.07"/>
<polygon fill="green" stroke="green" points="343.6,-45.43 338.72,-36.03 336.67,-46.42 343.6,-45.43"/>
</g>
<!-- node20&#45;&gt;node21 -->
<g id="edge21" class="edge">
<title>node20&#45;&gt;node21</title>
<path fill="none" stroke="green" d="M321.12,-145.81C320.28,-137.79 320.05,-128.05 320.42,-119.07"/>
<polygon fill="green" stroke="green" points="323.92,-119.25 321.14,-109.03 316.94,-118.75 323.92,-119.25"/>
</g>
<!-- node20&#45;&gt;node21 -->
<g id="edge22" class="edge">
<title>node20&#45;&gt;node21</title>
<path fill="none" stroke="red" d="M332.88,-145.81C333.72,-137.79 333.95,-128.05 333.58,-119.07"/>
<polygon fill="red" stroke="red" points="337.06,-118.75 332.86,-109.03 330.08,-119.25 337.06,-118.75"/>
</g>
<!-- node19&#45;&gt;node20 -->
<g id="edge23" class="edge">
<title>node19&#45;&gt;node20</title>
<path fill="none" stroke="red" d="M257.27,-218.81C269.14,-209.66 283.9,-198.26 296.79,-188.32"/>
<polygon fill="red" stroke="red" points="299.16,-190.91 304.93,-182.03 294.88,-185.37 299.16,-190.91"/>
</g>
<!-- node12&#45;&gt;node20 -->
<g id="edge24" class="edge">
<title>node12&#45;&gt;node20</title>
<path fill="none" stroke="red" d="M442.82,-218.99C419.67,-209.19 391.56,-196.77 368.78,-186.31"/>
<polygon fill="red" stroke="red" points="370.24,-183.13 359.7,-182.11 367.3,-189.49 370.24,-183.13"/>
</g>
<!-- node12&#45;&gt;node20 -->
<g id="edge26" class="edge">
<title>node12&#45;&gt;node20</title>
<path fill="none" stroke="green" d="M454.54,-218.99C433.38,-209.14 405.37,-196.66 380.95,-186.17"/>
<polygon fill="green" stroke="green" points="382.01,-182.82 371.44,-182.11 379.26,-189.26 382.01,-182.82"/>
</g>
<!-- node7&#45;&gt;node12 -->
<g id="edge29" class="edge">
<title>node7&#45;&gt;node12</title>
<path fill="none" stroke="black" d="M613.9,-601.7C612.65,-583.54 610.33,-554.19 607,-529 601.62,-488.29 591,-479.06 591,-438 591,-438 591,-438 591,-309 591,-286.43 574.09,-270.52 553.91,-259.57"/>
<polygon fill="black" stroke="black" points="555.29,-256.35 544.78,-255.02 552.17,-262.61 555.29,-256.35"/>
<text text-anchor="middle" x="564.77" y="-251.83" font-family="Times,serif" font-size="14.00">*2</text>
</g>
<!-- node15&#45;&gt;node12 -->
<g id="edge31" class="edge">
<title>node15&#45;&gt;node12</title>
<path fill="none" stroke="red" d="M403.35,-291.99C417.93,-282.58 436.25,-270.76 452.02,-260.57"/>
<polygon fill="red" stroke="red" points="453.98,-263.48 460.49,-255.11 450.19,-257.6 453.98,-263.48"/>
</g>
<!-- node8&#45;&gt;node9 -->
<g id="edge39" class="edge">
<title>node8&#45;&gt;node9</title>
<path fill="none" stroke="black" d="M309.09,-603.59C292,-593.81 269.6,-580.98 250.62,-570.11"/>
<polygon fill="black" stroke="black" points="252.31,-567.05 241.9,-565.12 248.83,-573.12 252.31,-567.05"/>
<text text-anchor="middle" x="261.83" y="-563.09" font-family="Times,serif" font-size="14.00">*1</text>
</g>
<!-- c0 -->
<!-- c1 -->
<!-- c0&#45;&gt;c1 -->
<g id="edge41" class="edge">
<title>c0&#45;&gt;c1</title>
<path fill="none" stroke="red" d="M1425.89,-702C1437.11,-702 1495.24,-702 1520.86,-702"/>
<polygon fill="red" stroke="red" points="1521.06,-705.5 1531.06,-702 1521.06,-698.5 1521.06,-705.5"/>
<text text-anchor="middle" x="1478.5" y="-708.8" font-family="Times,serif" font-size="14.00">Control flow</text>
</g>
<!-- c2 -->
<!-- c3 -->
<!-- c2&#45;&gt;c3 -->
<g id="edge42" class="edge">
<title>c2&#45;&gt;c3</title>
<path fill="none" stroke="red" stroke-dasharray="5,2" d="M1219.08,-702C1236.05,-702 1352.21,-702 1390.08,-702"/>
<polygon fill="red" stroke="red" points="1390.17,-705.5 1400.17,-702 1390.17,-698.5 1390.17,-705.5"/>
<text text-anchor="middle" x="1309.5" y="-708.8" font-family="Times,serif" font-size="14.00">Control flow back edge</text>
</g>
<!-- d0 -->
<!-- d1 -->
<!-- d0&#45;&gt;d1 -->
<g id="edge43" class="edge">
<title>d0&#45;&gt;d1</title>
<path fill="none" stroke="black" d="M1107.86,-702C1117.41,-702 1161.31,-702 1182.92,-702"/>
<polygon fill="black" stroke="black" points="1183.15,-705.5 1193.15,-702 1183.15,-698.5 1183.15,-705.5"/>
<text text-anchor="middle" x="1150.5" y="-708.8" font-family="Times,serif" font-size="14.00">Data flow</text>
</g>
<!-- d2 -->
<!-- d3 -->
<!-- d2&#45;&gt;d3 -->
<g id="edge44" class="edge">
<title>d2&#45;&gt;d3</title>
<path fill="none" stroke="black" stroke-dasharray="1,5" d="M981.81,-702C992.46,-702 1047.46,-702 1072.08,-702"/>
<polygon fill="black" stroke="black" points="1072.15,-705.5 1082.15,-702 1072.15,-698.5 1072.15,-705.5"/>
<text text-anchor="middle" x="1032" y="-708.8" font-family="Times,serif" font-size="14.00">Declaration</text>
</g>
<!-- d4 -->
<!-- d5 -->
<!-- d4&#45;&gt;d5 -->
<g id="edge45" class="edge">
<title>d4&#45;&gt;d5</title>
<path fill="none" stroke="blue" d="M839.1,-702C851.72,-702 917.88,-702 945.68,-702"/>
<polygon fill="blue" stroke="blue" points="945.84,-705.5 955.84,-702 945.84,-698.5 945.84,-705.5"/>
<text text-anchor="middle" x="897.5" y="-708.8" font-family="Times,serif" font-size="14.00">PHI Data flow</text>
</g>
<!-- d6 -->
<!-- d7 -->
<!-- d6&#45;&gt;d7 -->
<g id="edge46" class="edge">
<title>d6&#45;&gt;d7</title>
<path fill="none" stroke="green" d="M702,-702C713.94,-702 776.3,-702 802.93,-702"/>
<polygon fill="green" stroke="green" points="802.95,-705.5 812.95,-702 802.95,-698.5 802.95,-705.5"/>
<text text-anchor="middle" x="757.5" y="-708.8" font-family="Times,serif" font-size="14.00">Memory flow</text>
</g>
</g>
</svg>
