<?xml version="1.0" encoding="UTF-8" standalone="no"?>
<!DOCTYPE svg PUBLIC "-//W3C//DTD SVG 1.1//EN"
 "http://www.w3.org/Graphics/SVG/1.1/DTD/svg11.dtd">
<!-- Generated by graphviz version 2.43.0 (0)
 -->
<!-- Title: debugoutput Pages: 1 -->
<svg width="914pt" height="724pt"
 viewBox="0.00 0.00 913.50 723.80" xmlns="http://www.w3.org/2000/svg" xmlns:xlink="http://www.w3.org/1999/xlink">
<g id="graph0" class="graph" transform="scale(1 1) rotate(0) translate(4 719.8)">
<title>debugoutput</title>
<polygon fill="white" stroke="transparent" points="-4,4 -4,-719.8 909.5,-719.8 909.5,4 -4,4"/>
<g id="clust1" class="cluster">
<title>cluster_000</title>
<polygon fill="none" stroke="black" points="438.5,-665.2 438.5,-707.8 897.5,-707.8 897.5,-665.2 438.5,-665.2"/>
<text text-anchor="middle" x="668" y="-692.6" font-family="Times,serif" font-size="14.00">Legend</text>
</g>
<!-- node0 -->
<g id="node1" class="node">
<title>node0</title>
<polygon fill="lightgrey" stroke="black" points="428.5,-693 262.5,-693 262.5,-657 428.5,-657 428.5,-693"/>
<text text-anchor="middle" x="345.5" y="-671.3" font-family="Times,serif" font-size="14.00">#0 Method Order : 0</text>
</g>
<!-- node1 -->
<g id="node2" class="node">
<title>node1</title>
<polygon fill="lightgrey" stroke="black" points="439.5,-620 251.5,-620 251.5,-584 439.5,-584 439.5,-620"/>
<text text-anchor="middle" x="345.5" y="-598.3" font-family="Times,serif" font-size="14.00">#1 LabelNode Order : 1</text>
</g>
<!-- node0&#45;&gt;node1 -->
<g id="edge2" class="edge">
<title>node0&#45;&gt;node1</title>
<path fill="none" stroke="red" d="M339.62,-656.81C338.78,-648.79 338.55,-639.05 338.92,-630.07"/>
<polygon fill="red" stroke="red" points="342.42,-630.25 339.64,-620.03 335.44,-629.75 342.42,-630.25"/>
</g>
<!-- node1&#45;&gt;node0 -->
<g id="edge1" class="edge">
<title>node1&#45;&gt;node0</title>
<path fill="none" stroke="fuchsia" stroke-width="2" d="M351.36,-620.03C352.21,-628.03 352.45,-637.77 352.09,-646.75"/>
<polygon fill="fuchsia" stroke="fuchsia" stroke-width="2" points="348.59,-646.59 351.38,-656.81 355.57,-647.08 348.59,-646.59"/>
</g>
<!-- node2 -->
<g id="node3" class="node">
<title>node2</title>
<polygon fill="lightgrey" stroke="black" points="439.5,-547 251.5,-547 251.5,-511 439.5,-511 439.5,-547"/>
<text text-anchor="middle" x="345.5" y="-525.3" font-family="Times,serif" font-size="14.00">#2 LabelNode Order : 2</text>
</g>
<!-- node1&#45;&gt;node2 -->
<g id="edge4" class="edge">
<title>node1&#45;&gt;node2</title>
<path fill="none" stroke="red" d="M339.62,-583.81C338.78,-575.79 338.55,-566.05 338.92,-557.07"/>
<polygon fill="red" stroke="red" points="342.42,-557.25 339.64,-547.03 335.44,-556.75 342.42,-557.25"/>
</g>
<!-- node2&#45;&gt;node1 -->
<g id="edge3" class="edge">
<title>node2&#45;&gt;node1</title>
<path fill="none" stroke="fuchsia" stroke-width="2" d="M351.36,-547.03C352.21,-555.03 352.45,-564.77 352.09,-573.75"/>
<polygon fill="fuchsia" stroke="fuchsia" stroke-width="2" points="348.59,-573.59 351.38,-583.81 355.57,-574.08 348.59,-573.59"/>
</g>
<!-- node3 -->
<g id="node4" class="node">
<title>node3</title>
<polygon fill="lightgrey" stroke="black" points="462,-474 229,-474 229,-438 462,-438 462,-474"/>
<text text-anchor="middle" x="345.5" y="-452.3" font-family="Times,serif" font-size="14.00">#3 ArrayStore : int[] Order : 3</text>
</g>
<!-- node2&#45;&gt;node3 -->
<g id="edge6" class="edge">
<title>node2&#45;&gt;node3</title>
<path fill="none" stroke="red" d="M339.62,-510.81C338.78,-502.79 338.55,-493.05 338.92,-484.07"/>
<polygon fill="red" stroke="red" points="342.42,-484.25 339.64,-474.03 335.44,-483.75 342.42,-484.25"/>
</g>
<!-- node3&#45;&gt;node2 -->
<g id="edge5" class="edge">
<title>node3&#45;&gt;node2</title>
<path fill="none" stroke="fuchsia" stroke-width="2" d="M351.36,-474.03C352.21,-482.03 352.45,-491.77 352.09,-500.75"/>
<polygon fill="fuchsia" stroke="fuchsia" stroke-width="2" points="348.59,-500.59 351.38,-510.81 355.57,-501.08 348.59,-500.59"/>
</g>
<!-- node4 -->
<g id="node5" class="node">
<title>node4</title>
<polygon fill="lightgrey" stroke="black" points="406.5,-401 284.5,-401 284.5,-365 406.5,-365 406.5,-401"/>
<text text-anchor="middle" x="345.5" y="-379.3" font-family="Times,serif" font-size="14.00">#4 If Order : 4</text>
</g>
<!-- node3&#45;&gt;node4 -->
<g id="edge8" class="edge">
<title>node3&#45;&gt;node4</title>
<path fill="none" stroke="red" d="M339.62,-437.81C338.78,-429.79 338.55,-420.05 338.92,-411.07"/>
<polygon fill="red" stroke="red" points="342.42,-411.25 339.64,-401.03 335.44,-410.75 342.42,-411.25"/>
</g>
<!-- node4&#45;&gt;node3 -->
<g id="edge7" class="edge">
<title>node4&#45;&gt;node3</title>
<path fill="none" stroke="fuchsia" stroke-width="2" d="M351.36,-401.03C352.21,-409.03 352.45,-418.77 352.09,-427.75"/>
<polygon fill="fuchsia" stroke="fuchsia" stroke-width="2" points="348.59,-427.59 351.38,-437.81 355.57,-428.08 348.59,-427.59"/>
</g>
<!-- node5 -->
<g id="node6" class="node">
<title>node5</title>
<polygon fill="lightgrey" stroke="black" points="240,-328 95,-328 95,-292 240,-292 240,-328"/>
<text text-anchor="middle" x="167.5" y="-306.3" font-family="Times,serif" font-size="14.00">#5 false Order : 8</text>
</g>
<!-- node4&#45;&gt;node5 -->
<g id="edge10" class="edge">
<title>node4&#45;&gt;node5</title>
<path fill="none" stroke="red" d="M297.01,-364.99C271.15,-355.1 239.55,-342.54 214.01,-332.03"/>
<polygon fill="red" stroke="red" points="215.11,-328.7 204.53,-328.11 212.44,-335.17 215.11,-328.7"/>
</g>
<!-- node6 -->
<g id="node7" class="node">
<title>node6</title>
<polygon fill="lightgrey" stroke="black" points="416,-328 275,-328 275,-292 416,-292 416,-328"/>
<text text-anchor="middle" x="345.5" y="-306.3" font-family="Times,serif" font-size="14.00">#6 true Order : 5</text>
</g>
<!-- node4&#45;&gt;node6 -->
<g id="edge12" class="edge">
<title>node4&#45;&gt;node6</title>
<path fill="none" stroke="red" d="M339.62,-364.81C338.78,-356.79 338.55,-347.05 338.92,-338.07"/>
<polygon fill="red" stroke="red" points="342.42,-338.25 339.64,-328.03 335.44,-337.75 342.42,-338.25"/>
</g>
<!-- node5&#45;&gt;node4 -->
<g id="edge9" class="edge">
<title>node5&#45;&gt;node4</title>
<path fill="none" stroke="fuchsia" stroke-width="2" d="M216.27,-328.11C242.17,-338.03 273.77,-350.58 299.27,-361.08"/>
<polygon fill="fuchsia" stroke="fuchsia" stroke-width="2" points="298.15,-364.4 308.72,-364.99 300.82,-357.94 298.15,-364.4"/>
</g>
<!-- node7 -->
<g id="node8" class="node">
<title>node7</title>
<polygon fill="lightgrey" stroke="black" points="233,-255 0,-255 0,-219 233,-219 233,-255"/>
<text text-anchor="middle" x="116.5" y="-233.3" font-family="Times,serif" font-size="14.00">#7 ArrayStore : int[] Order : 9</text>
</g>
<!-- node5&#45;&gt;node7 -->
<g id="edge14" class="edge">
<title>node5&#45;&gt;node7</title>
<path fill="none" stroke="red" d="M149.28,-291.81C142.31,-283.35 134.65,-272.98 128.39,-263.61"/>
<polygon fill="red" stroke="red" points="131.22,-261.55 122.87,-255.03 125.33,-265.33 131.22,-261.55"/>
</g>
<!-- node6&#45;&gt;node4 -->
<g id="edge11" class="edge">
<title>node6&#45;&gt;node4</title>
<path fill="none" stroke="fuchsia" stroke-width="2" d="M351.36,-328.03C352.21,-336.03 352.45,-345.77 352.09,-354.75"/>
<polygon fill="fuchsia" stroke="fuchsia" stroke-width="2" points="348.59,-354.59 351.38,-364.81 355.57,-355.08 348.59,-354.59"/>
</g>
<!-- node8 -->
<g id="node9" class="node">
<title>node8</title>
<polygon fill="lightgrey" stroke="black" points="439.5,-255 251.5,-255 251.5,-219 439.5,-219 439.5,-255"/>
<text text-anchor="middle" x="345.5" y="-233.3" font-family="Times,serif" font-size="14.00">#8 LabelNode Order : 6</text>
</g>
<!-- node6&#45;&gt;node8 -->
<g id="edge16" class="edge">
<title>node6&#45;&gt;node8</title>
<path fill="none" stroke="red" d="M339.62,-291.81C338.78,-283.79 338.55,-274.05 338.92,-265.07"/>
<polygon fill="red" stroke="red" points="342.42,-265.25 339.64,-255.03 335.44,-264.75 342.42,-265.25"/>
</g>
<!-- node7&#45;&gt;node5 -->
<g id="edge13" class="edge">
<title>node7&#45;&gt;node5</title>
<path fill="none" stroke="fuchsia" stroke-width="2" d="M134.59,-255.03C141.55,-263.46 149.21,-273.83 155.5,-283.21"/>
<polygon fill="fuchsia" stroke="fuchsia" stroke-width="2" points="152.68,-285.3 161.03,-291.81 158.56,-281.51 152.68,-285.3"/>
</g>
<!-- node9 -->
<g id="node10" class="node">
<title>node9</title>
<polygon fill="lightgrey" stroke="black" points="193.5,-182 39.5,-182 39.5,-146 193.5,-146 193.5,-182"/>
<text text-anchor="middle" x="116.5" y="-160.3" font-family="Times,serif" font-size="14.00">#9 Goto Order : 10</text>
</g>
<!-- node7&#45;&gt;node9 -->
<g id="edge18" class="edge">
<title>node7&#45;&gt;node9</title>
<path fill="none" stroke="red" d="M110.62,-218.81C109.78,-210.79 109.55,-201.05 109.92,-192.07"/>
<polygon fill="red" stroke="red" points="113.42,-192.25 110.64,-182.03 106.44,-191.75 113.42,-192.25"/>
</g>
<!-- node8&#45;&gt;node6 -->
<g id="edge15" class="edge">
<title>node8&#45;&gt;node6</title>
<path fill="none" stroke="fuchsia" stroke-width="2" d="M351.36,-255.03C352.21,-263.03 352.45,-272.77 352.09,-281.75"/>
<polygon fill="fuchsia" stroke="fuchsia" stroke-width="2" points="348.59,-281.59 351.38,-291.81 355.57,-282.08 348.59,-281.59"/>
</g>
<!-- node10 -->
<g id="node11" class="node">
<title>node10</title>
<polygon fill="lightgrey" stroke="black" points="459.5,-182 217.5,-182 217.5,-146 459.5,-146 459.5,-182"/>
<text text-anchor="middle" x="338.5" y="-160.3" font-family="Times,serif" font-size="14.00">#10 ArrayStore : int[] Order : 7</text>
</g>
<!-- node8&#45;&gt;node10 -->
<g id="edge20" class="edge">
<title>node8&#45;&gt;node10</title>
<path fill="none" stroke="red" d="M337.93,-218.81C336.3,-210.79 335.1,-201.05 334.59,-192.07"/>
<polygon fill="red" stroke="red" points="338.09,-191.93 334.32,-182.03 331.09,-192.12 338.09,-191.93"/>
</g>
<!-- node9&#45;&gt;node7 -->
<g id="edge17" class="edge">
<title>node9&#45;&gt;node7</title>
<path fill="none" stroke="fuchsia" stroke-width="2" d="M122.36,-182.03C123.21,-190.03 123.45,-199.77 123.09,-208.75"/>
<polygon fill="fuchsia" stroke="fuchsia" stroke-width="2" points="119.59,-208.59 122.38,-218.81 126.57,-209.08 119.59,-208.59"/>
</g>
<!-- node11 -->
<g id="node12" class="node">
<title>node11</title>
<polygon fill="lightgrey" stroke="black" points="465.5,-109 211.5,-109 211.5,-73 465.5,-73 465.5,-109"/>
<text text-anchor="middle" x="338.5" y="-87.3" font-family="Times,serif" font-size="14.00">#11 Merge : Merge34 Order : 11</text>
</g>
<!-- node9&#45;&gt;node11 -->
<g id="edge22" class="edge">
<title>node9&#45;&gt;node11</title>
<path fill="none" stroke="red" d="M169.67,-145.99C201.43,-135.84 241.95,-122.88 275.33,-112.2"/>
<polygon fill="red" stroke="red" points="276.53,-115.49 284.99,-109.11 274.4,-108.83 276.53,-115.49"/>
</g>
<!-- node10&#45;&gt;node8 -->
<g id="edge19" class="edge">
<title>node10&#45;&gt;node8</title>
<path fill="none" stroke="fuchsia" stroke-width="2" d="M346.04,-182.03C347.68,-190.03 348.88,-199.77 349.4,-208.75"/>
<polygon fill="fuchsia" stroke="fuchsia" stroke-width="2" points="345.9,-208.92 349.68,-218.81 352.9,-208.72 345.9,-208.92"/>
</g>
<!-- node10&#45;&gt;node11 -->
<g id="edge23" class="edge">
<title>node10&#45;&gt;node11</title>
<path fill="none" stroke="red" d="M338.5,-145.81C338.5,-137.79 338.5,-128.05 338.5,-119.07"/>
<polygon fill="red" stroke="red" points="342,-119.03 338.5,-109.03 335,-119.03 342,-119.03"/>
</g>
<!-- node11&#45;&gt;node4 -->
<g id="edge21" class="edge">
<title>node11&#45;&gt;node4</title>
<path fill="none" stroke="fuchsia" stroke-width="2" d="M442.39,-109.12C467.62,-119.52 487.5,-136.21 487.5,-163 487.5,-311 487.5,-311 487.5,-311 487.5,-346.27 452.02,-364.02 416.53,-372.95"/>
<polygon fill="fuchsia" stroke="fuchsia" stroke-width="2" points="415.51,-369.6 406.54,-375.25 417.07,-376.42 415.51,-369.6"/>
</g>
<!-- node12 -->
<g id="node13" class="node">
<title>node12</title>
<polygon fill="lightgrey" stroke="black" points="464,-36 213,-36 213,0 464,0 464,-36"/>
<text text-anchor="middle" x="338.5" y="-14.3" font-family="Times,serif" font-size="14.00">#12 ReturnValue : int Order : 12</text>
</g>
<!-- node11&#45;&gt;node12 -->
<g id="edge25" class="edge">
<title>node11&#45;&gt;node12</title>
<path fill="none" stroke="red" d="M332.62,-72.81C331.78,-64.79 331.55,-55.05 331.92,-46.07"/>
<polygon fill="red" stroke="red" points="335.42,-46.25 332.64,-36.03 328.44,-45.75 335.42,-46.25"/>
</g>
<!-- node12&#45;&gt;node11 -->
<g id="edge24" class="edge">
<title>node12&#45;&gt;node11</title>
<path fill="none" stroke="fuchsia" stroke-width="2" d="M344.36,-36.03C345.21,-44.03 345.45,-53.77 345.09,-62.75"/>
<polygon fill="fuchsia" stroke="fuchsia" stroke-width="2" points="341.59,-62.59 344.38,-72.81 348.57,-63.08 341.59,-62.59"/>
</g>
<!-- c0 -->
<!-- c1 -->
<!-- c0&#45;&gt;c1 -->
<g id="edge26" class="edge">
<title>c0&#45;&gt;c1</title>
<path fill="none" stroke="red" d="M780.39,-675C791.61,-675 849.74,-675 875.36,-675"/>
<polygon fill="red" stroke="red" points="875.56,-678.5 885.56,-675 875.56,-671.5 875.56,-678.5"/>
<text text-anchor="middle" x="833" y="-681.8" font-family="Times,serif" font-size="14.00">Control flow</text>
</g>
<!-- c2 -->
<!-- c3 -->
<!-- c2&#45;&gt;c3 -->
<g id="edge27" class="edge">
<title>c2&#45;&gt;c3</title>
<path fill="none" stroke="red" stroke-dasharray="5,2" d="M573.58,-675C590.55,-675 706.71,-675 744.58,-675"/>
<polygon fill="red" stroke="red" points="744.67,-678.5 754.67,-675 744.67,-671.5 744.67,-678.5"/>
<text text-anchor="middle" x="664" y="-681.8" font-family="Times,serif" font-size="14.00">Control flow back edge</text>
</g>
<!-- d8 -->
<!-- d9 -->
<!-- d8&#45;&gt;d9 -->
<g id="edge28" class="edge">
<title>d8&#45;&gt;d9</title>
<path fill="none" stroke="fuchsia" d="M450.61,-675C461.65,-675 513.17,-675 537.16,-675"/>
<polygon fill="fuchsia" stroke="fuchsia" points="537.4,-678.5 547.4,-675 537.4,-671.5 537.4,-678.5"/>
<text text-anchor="middle" x="499" y="-681.8" font-family="Times,serif" font-size="14.00">Dominance</text>
</g>
</g>
</svg>
