<?xml version="1.0" encoding="UTF-8" standalone="no"?>
<!DOCTYPE svg PUBLIC "-//W3C//DTD SVG 1.1//EN"
 "http://www.w3.org/Graphics/SVG/1.1/DTD/svg11.dtd">
<!-- Generated by graphviz version 2.43.0 (0)
 -->
<!-- Title: debugoutput Pages: 1 -->
<svg width="1899pt" height="797pt"
 viewBox="0.00 0.00 1899.00 796.80" xmlns="http://www.w3.org/2000/svg" xmlns:xlink="http://www.w3.org/1999/xlink">
<g id="graph0" class="graph" transform="scale(1 1) rotate(0) translate(4 792.8)">
<title>debugoutput</title>
<polygon fill="white" stroke="transparent" points="-4,4 -4,-792.8 1895,-792.8 1895,4 -4,4"/>
<g id="clust1" class="cluster">
<title>cluster_000</title>
<polygon fill="none" stroke="black" points="888,-738.2 888,-780.8 1727,-780.8 1727,-738.2 888,-738.2"/>
<text text-anchor="middle" x="1307.5" y="-765.6" font-family="Times,serif" font-size="14.00">Legend</text>
</g>
<!-- node0 -->
<g id="node1" class="node">
<title>node0</title>
<polygon fill="lightgrey" stroke="black" points="878,-766 712,-766 712,-730 878,-730 878,-766"/>
<text text-anchor="middle" x="795" y="-744.3" font-family="Times,serif" font-size="14.00">#0 Method Order : 0</text>
</g>
<!-- node1 -->
<g id="node2" class="node">
<title>node1</title>
<polygon fill="lightgrey" stroke="black" points="888,-693 702,-693 702,-657 888,-657 888,-693"/>
<text text-anchor="middle" x="795" y="-671.3" font-family="Times,serif" font-size="14.00">#1 arg0 : int Order : 11</text>
</g>
<!-- node0&#45;&gt;node1 -->
<g id="edge2" class="edge">
<title>node0&#45;&gt;node1</title>
<path fill="none" stroke="black" d="M789.12,-729.81C788.28,-721.79 788.05,-712.05 788.42,-703.07"/>
<polygon fill="black" stroke="black" points="791.92,-703.25 789.14,-693.03 784.94,-702.75 791.92,-703.25"/>
<text text-anchor="middle" x="796.28" y="-708.01" font-family="Times,serif" font-size="14.00">*0</text>
</g>
<!-- node2 -->
<g id="node3" class="node">
<title>node2</title>
<polygon fill="lightgrey" stroke="black" points="1082.5,-693 905.5,-693 905.5,-657 1082.5,-657 1082.5,-693"/>
<text text-anchor="middle" x="994" y="-671.3" font-family="Times,serif" font-size="14.00">#2 arg1 : int Order : 9</text>
</g>
<!-- node0&#45;&gt;node2 -->
<g id="edge4" class="edge">
<title>node0&#45;&gt;node2</title>
<path fill="none" stroke="black" d="M836.81,-729.99C863.96,-719.92 899.79,-707.1 930.42,-696.48"/>
<polygon fill="black" stroke="black" points="931.85,-699.69 940.16,-693.11 929.57,-693.07 931.85,-699.69"/>
<text text-anchor="middle" x="925.79" y="-703.32" font-family="Times,serif" font-size="14.00">*0</text>
</g>
<!-- node3 -->
<g id="node4" class="node">
<title>node3</title>
<polygon fill="lightgrey" stroke="black" points="204.5,-401 27.5,-401 27.5,-365 204.5,-365 204.5,-401"/>
<text text-anchor="middle" x="116" y="-379.3" font-family="Times,serif" font-size="14.00">#3 arg2 : int Order : 8</text>
</g>
<!-- node0&#45;&gt;node3 -->
<g id="edge6" class="edge">
<title>node0&#45;&gt;node3</title>
<path fill="none" stroke="black" d="M711.95,-747.63C515.32,-748.14 38,-742.69 38,-676 38,-676 38,-676 38,-455 38,-435.24 51.91,-418.91 68.06,-406.91"/>
<polygon fill="black" stroke="black" points="70.37,-409.57 76.65,-401.04 66.42,-403.8 70.37,-409.57"/>
<text text-anchor="middle" x="66.46" y="-414.55" font-family="Times,serif" font-size="14.00">*0</text>
</g>
<!-- node4 -->
<g id="node5" class="node">
<title>node4</title>
<polygon fill="lightgrey" stroke="black" points="1289,-693 1101,-693 1101,-657 1289,-657 1289,-693"/>
<text text-anchor="middle" x="1195" y="-671.3" font-family="Times,serif" font-size="14.00">#4 LabelNode Order : 6</text>
</g>
<!-- node0&#45;&gt;node4 -->
<g id="edge8" class="edge">
<title>node0&#45;&gt;node4</title>
<path fill="none" stroke="red" d="M875.4,-729.93C947.14,-716.85 1028.27,-702.79 1090.88,-692.31"/>
<polygon fill="red" stroke="red" points="1091.48,-695.76 1100.76,-690.66 1090.32,-688.85 1091.48,-695.76"/>
</g>
<!-- node6 -->
<g id="node7" class="node">
<title>node6</title>
<polygon fill="orange" stroke="black" points="1628.89,-594.54 1628.89,-609.46 1535.23,-620 1402.77,-620 1309.11,-609.46 1309.11,-594.54 1402.77,-584 1535.23,-584 1628.89,-594.54"/>
<text text-anchor="middle" x="1469" y="-598.3" font-family="Times,serif" font-size="14.00">#6 NewArray : int[] Order : 5</text>
</g>
<!-- node0&#45;&gt;node6 -->
<g id="edge13" class="edge">
<title>node0&#45;&gt;node6</title>
<path fill="none" stroke="black" d="M875.23,-729.98C915.04,-725.99 1529.65,-739.06 1556,-712 1573.05,-694.49 1567.62,-678.51 1556,-657 1548.69,-643.47 1536.49,-633.11 1523.48,-625.26"/>
<polygon fill="black" stroke="black" points="1524.84,-622.01 1514.4,-620.23 1521.45,-628.14 1524.84,-622.01"/>
</g>
<!-- node7 -->
<g id="node8" class="node">
<title>node7</title>
<polygon fill="lightgreen" stroke="black" points="1522.77,-667.54 1522.77,-682.46 1459.64,-693 1370.36,-693 1307.23,-682.46 1307.23,-667.54 1370.36,-657 1459.64,-657 1522.77,-667.54"/>
<text text-anchor="middle" x="1415" y="-671.3" font-family="Times,serif" font-size="14.00">#7 int 10 Order : 4</text>
</g>
<!-- node0&#45;&gt;node7 -->
<g id="edge15" class="edge">
<title>node0&#45;&gt;node7</title>
<path fill="none" stroke="black" stroke-dasharray="1,5" d="M875.27,-729.96C1058,-704.43 1105.61,-714.5 1289,-693 1300.47,-691.66 1312.54,-690.08 1324.5,-688.44"/>
<polygon fill="black" stroke="black" points="1325.08,-691.9 1334.51,-687.06 1324.12,-684.96 1325.08,-691.9"/>
</g>
<!-- node9 -->
<g id="node10" class="node">
<title>node9</title>
<polygon fill="lightgreen" stroke="black" points="684.11,-667.54 684.11,-682.46 624.88,-693 541.12,-693 481.89,-682.46 481.89,-667.54 541.12,-657 624.88,-657 684.11,-667.54"/>
<text text-anchor="middle" x="583" y="-671.3" font-family="Times,serif" font-size="14.00">#9 int 0 Order : 3</text>
</g>
<!-- node0&#45;&gt;node9 -->
<g id="edge23" class="edge">
<title>node0&#45;&gt;node9</title>
<path fill="none" stroke="black" stroke-dasharray="1,5" d="M738.36,-729.99C706.88,-719.81 667.98,-706.82 636.95,-696.13"/>
<polygon fill="black" stroke="black" points="637.76,-692.71 627.17,-692.74 635.47,-699.32 637.76,-692.71"/>
</g>
<!-- node15 -->
<g id="node16" class="node">
<title>node15</title>
<polygon fill="lightgreen" stroke="black" points="1862.93,-667.54 1862.93,-682.46 1796.19,-693 1701.81,-693 1635.07,-682.46 1635.07,-667.54 1701.81,-657 1796.19,-657 1862.93,-667.54"/>
<text text-anchor="middle" x="1749" y="-671.3" font-family="Times,serif" font-size="14.00">#15 int 30 Order : 2</text>
</g>
<!-- node0&#45;&gt;node15 -->
<g id="edge37" class="edge">
<title>node0&#45;&gt;node15</title>
<path fill="none" stroke="black" stroke-dasharray="1,5" d="M875.48,-729.95C1038.7,-712.62 1450.15,-736.34 1612,-712 1636.17,-708.36 1662.24,-701.58 1685.14,-694.87"/>
<polygon fill="black" stroke="black" points="1686.16,-698.22 1694.75,-692.01 1684.17,-691.51 1686.16,-698.22"/>
</g>
<!-- node17 -->
<g id="node18" class="node">
<title>node17</title>
<polygon fill="lightgreen" stroke="black" points="311.93,-667.54 311.93,-682.46 245.19,-693 150.81,-693 84.07,-682.46 84.07,-667.54 150.81,-657 245.19,-657 311.93,-667.54"/>
<text text-anchor="middle" x="198" y="-671.3" font-family="Times,serif" font-size="14.00">#17 int 20 Order : 1</text>
</g>
<!-- node0&#45;&gt;node17 -->
<g id="edge45" class="edge">
<title>node0&#45;&gt;node17</title>
<path fill="none" stroke="black" stroke-dasharray="1,5" d="M711.69,-745.96C615.67,-743.61 453.7,-736.08 317,-712 295.02,-708.13 271.39,-702.05 250.97,-695.98"/>
<polygon fill="black" stroke="black" points="251.81,-692.57 241.22,-693.01 249.77,-699.27 251.81,-692.57"/>
</g>
<!-- node1&#45;&gt;node0 -->
<g id="edge1" class="edge">
<title>node1&#45;&gt;node0</title>
<path fill="none" stroke="green" stroke-width="2" d="M800.86,-693.03C801.71,-701.03 801.95,-710.77 801.59,-719.75"/>
<polygon fill="green" stroke="green" stroke-width="2" points="798.09,-719.59 800.88,-729.81 805.07,-720.08 798.09,-719.59"/>
</g>
<!-- node10 -->
<g id="node11" class="node">
<title>node10</title>
<polygon fill="orange" stroke="black" points="859.56,-594.54 859.56,-609.46 737.97,-620 566.03,-620 444.44,-609.46 444.44,-594.54 566.03,-584 737.97,-584 859.56,-594.54"/>
<text text-anchor="middle" x="652" y="-598.3" font-family="Times,serif" font-size="14.00">#10 NumericCondition : EQ Order : 12</text>
</g>
<!-- node1&#45;&gt;node10 -->
<g id="edge25" class="edge">
<title>node1&#45;&gt;node10</title>
<path fill="none" stroke="black" d="M760.75,-656.99C741.17,-647.27 716.42,-634.99 695.48,-624.59"/>
<polygon fill="black" stroke="black" points="696.98,-621.43 686.47,-620.11 693.87,-627.7 696.98,-621.43"/>
<text text-anchor="middle" x="706.46" y="-616.9" font-family="Times,serif" font-size="14.00">*0</text>
</g>
<!-- node2&#45;&gt;node0 -->
<g id="edge3" class="edge">
<title>node2&#45;&gt;node0</title>
<path fill="none" stroke="green" stroke-width="2" d="M951.9,-693.11C924.69,-703.2 888.84,-716.03 858.25,-726.63"/>
<polygon fill="green" stroke="green" stroke-width="2" points="856.83,-723.42 848.52,-729.99 859.12,-730.04 856.83,-723.42"/>
</g>
<!-- node8 -->
<g id="node9" class="node">
<title>node8</title>
<polygon fill="lightgrey" stroke="black" points="1087,-547 845,-547 845,-511 1087,-511 1087,-547"/>
<text text-anchor="middle" x="966" y="-525.3" font-family="Times,serif" font-size="14.00">#8 ArrayStore : int[] Order : 10</text>
</g>
<!-- node2&#45;&gt;node8 -->
<g id="edge18" class="edge">
<title>node2&#45;&gt;node8</title>
<path fill="none" stroke="black" d="M990.68,-656.92C985.88,-632.23 976.96,-586.35 971.26,-557.04"/>
<polygon fill="black" stroke="black" points="974.66,-556.21 969.32,-547.06 967.79,-557.55 974.66,-556.21"/>
<text text-anchor="middle" x="981.07" y="-559.54" font-family="Times,serif" font-size="14.00">*1</text>
</g>
<!-- node3&#45;&gt;node0 -->
<g id="edge5" class="edge">
<title>node3&#45;&gt;node0</title>
<path fill="none" stroke="green" stroke-width="2" d="M92.01,-401.04C75.19,-413.32 56,-431.8 56,-455 56,-676 56,-676 56,-676 56,-740.55 503.16,-747.73 701.85,-747.66"/>
<polygon fill="green" stroke="green" stroke-width="2" points="701.99,-751.16 711.98,-747.65 701.98,-744.16 701.99,-751.16"/>
</g>
<!-- node16 -->
<g id="node17" class="node">
<title>node16</title>
<polygon fill="lightgrey" stroke="black" points="772.5,-255 521.5,-255 521.5,-219 772.5,-219 772.5,-255"/>
<text text-anchor="middle" x="647" y="-233.3" font-family="Times,serif" font-size="14.00">#16 ArrayStore : int[] Order : 16</text>
</g>
<!-- node3&#45;&gt;node16 -->
<g id="edge40" class="edge">
<title>node3&#45;&gt;node16</title>
<path fill="none" stroke="black" d="M204.59,-380.41C262.42,-375.78 337.58,-362.71 395,-328 421.79,-311.81 412.01,-288.86 439,-273 452.53,-265.05 480.32,-258.5 511.31,-253.3"/>
<polygon fill="black" stroke="black" points="512.15,-256.71 521.47,-251.66 511.04,-249.8 512.15,-256.71"/>
<text text-anchor="middle" x="504.92" y="-259.19" font-family="Times,serif" font-size="14.00">*1</text>
</g>
<!-- node18 -->
<g id="node19" class="node">
<title>node18</title>
<polygon fill="lightgrey" stroke="black" points="386.5,-328 135.5,-328 135.5,-292 386.5,-292 386.5,-328"/>
<text text-anchor="middle" x="261" y="-306.3" font-family="Times,serif" font-size="14.00">#18 ArrayStore : int[] Order : 18</text>
</g>
<!-- node3&#45;&gt;node18 -->
<g id="edge48" class="edge">
<title>node3&#45;&gt;node18</title>
<path fill="none" stroke="black" d="M150.73,-364.99C170.58,-355.27 195.68,-342.99 216.91,-332.59"/>
<polygon fill="black" stroke="black" points="218.61,-335.65 226.05,-328.11 215.53,-329.37 218.61,-335.65"/>
<text text-anchor="middle" x="213.49" y="-339.98" font-family="Times,serif" font-size="14.00">*1</text>
</g>
<!-- node21 -->
<g id="node22" class="node">
<title>node21</title>
<polygon fill="lightgrey" stroke="black" points="592,-109 356,-109 356,-73 592,-73 592,-109"/>
<text text-anchor="middle" x="474" y="-87.3" font-family="Times,serif" font-size="14.00">#21 ArrayLoad : int Order : 21</text>
</g>
<!-- node3&#45;&gt;node21 -->
<g id="edge61" class="edge">
<title>node3&#45;&gt;node21</title>
<path fill="none" stroke="black" d="M78.37,-364.91C58.42,-353.02 38,-334.99 38,-311 38,-311 38,-311 38,-163 38,-131.57 216.79,-111.28 345.39,-100.75"/>
<polygon fill="black" stroke="black" points="346.04,-104.21 355.72,-99.91 345.48,-97.23 346.04,-104.21"/>
<text text-anchor="middle" x="338.34" y="-106.1" font-family="Times,serif" font-size="14.00">*1</text>
</g>
<!-- node4&#45;&gt;node0 -->
<g id="edge7" class="edge">
<title>node4&#45;&gt;node0</title>
<path fill="none" stroke="green" stroke-width="2" d="M1102.24,-693.02C1042.49,-703.44 963.22,-717.2 893,-730 891.5,-730.27 889.99,-730.55 888.46,-730.83"/>
<polygon fill="green" stroke="green" stroke-width="2" points="887.46,-727.46 878.27,-732.71 888.74,-734.34 887.46,-727.46"/>
</g>
<!-- node5 -->
<g id="node6" class="node">
<title>node5</title>
<polygon fill="lightgrey" stroke="black" points="1215,-620 1027,-620 1027,-584 1215,-584 1215,-620"/>
<text text-anchor="middle" x="1121" y="-598.3" font-family="Times,serif" font-size="14.00">#5 LabelNode Order : 7</text>
</g>
<!-- node4&#45;&gt;node5 -->
<g id="edge10" class="edge">
<title>node4&#45;&gt;node5</title>
<path fill="none" stroke="red" d="M1171.21,-656.81C1161.11,-648 1149.58,-637.13 1140.04,-627.46"/>
<polygon fill="red" stroke="red" points="1142.34,-624.8 1132.89,-620.03 1137.3,-629.66 1142.34,-624.8"/>
</g>
<!-- node5&#45;&gt;node4 -->
<g id="edge9" class="edge">
<title>node5&#45;&gt;node4</title>
<path fill="none" stroke="green" stroke-width="2" d="M1144.61,-620.03C1154.69,-628.81 1166.23,-639.69 1175.79,-649.37"/>
<polygon fill="green" stroke="green" stroke-width="2" points="1173.5,-652.04 1182.96,-656.81 1178.54,-647.18 1173.5,-652.04"/>
</g>
<!-- node5&#45;&gt;node8 -->
<g id="edge21" class="edge">
<title>node5&#45;&gt;node8</title>
<path fill="none" stroke="red" d="M1083.87,-583.99C1062.46,-574.19 1035.35,-561.77 1012.52,-551.31"/>
<polygon fill="red" stroke="red" points="1013.91,-548.1 1003.36,-547.11 1010.99,-554.46 1013.91,-548.1"/>
</g>
<!-- node6&#45;&gt;node0 -->
<g id="edge11" class="edge">
<title>node6&#45;&gt;node0</title>
<path fill="none" stroke="green" stroke-width="2" d="M1531.1,-620.1C1548.44,-628.38 1564.96,-640.26 1574,-657 1585.62,-678.51 1591.05,-694.49 1574,-712 1547.59,-739.11 930.63,-725.94 893,-730 891.48,-730.16 889.96,-730.34 888.42,-730.53"/>
<polygon fill="green" stroke="green" stroke-width="2" points="887.6,-727.1 878.15,-731.9 888.53,-734.04 887.6,-727.1"/>
</g>
<!-- node6&#45;&gt;node8 -->
<g id="edge17" class="edge">
<title>node6&#45;&gt;node8</title>
<path fill="none" stroke="black" d="M1392.08,-585.16C1359.39,-578.23 1320.9,-570.45 1286,-565 1224.04,-555.32 1155.08,-547.53 1097.07,-541.78"/>
<polygon fill="black" stroke="black" points="1097.41,-538.29 1087.11,-540.8 1096.72,-545.26 1097.41,-538.29"/>
<text text-anchor="middle" x="1105.98" y="-530.46" font-family="Times,serif" font-size="14.00">*0</text>
</g>
<!-- node6&#45;&gt;node8 -->
<g id="edge20" class="edge">
<title>node6&#45;&gt;node8</title>
<path fill="none" stroke="black" d="M1403.1,-583.97C1373.03,-577.35 1336.92,-570.14 1304,-565 1236.26,-554.42 1160.16,-546.09 1097.32,-540.22"/>
<polygon fill="black" stroke="black" points="1097.63,-536.74 1087.35,-539.3 1096.98,-543.71 1097.63,-536.74"/>
</g>
<!-- node6&#45;&gt;node16 -->
<g id="edge39" class="edge">
<title>node6&#45;&gt;node16</title>
<path fill="none" stroke="black" d="M1457.14,-583.76C1448.76,-569.88 1439,-549.54 1439,-530 1439,-530 1439,-530 1439,-309 1439,-276.48 1009.69,-253.36 783.23,-243.42"/>
<polygon fill="black" stroke="black" points="783.08,-239.91 772.93,-242.98 782.77,-246.91 783.08,-239.91"/>
<text text-anchor="middle" x="791.41" y="-231.62" font-family="Times,serif" font-size="14.00">*0</text>
</g>
<!-- node6&#45;&gt;node18 -->
<g id="edge47" class="edge">
<title>node6&#45;&gt;node18</title>
<path fill="none" stroke="black" d="M1335.82,-591.52C1179.3,-580.04 929.11,-560.58 836,-547 677.9,-523.95 625.61,-547.98 484,-474 453.07,-457.84 451.92,-444.42 427,-420 394,-387.66 392.74,-371.17 354,-346 345.95,-340.77 337,-336.16 327.93,-332.14"/>
<polygon fill="black" stroke="black" points="329.03,-328.81 318.46,-328.18 326.33,-335.27 329.03,-328.81"/>
<text text-anchor="middle" x="338.44" y="-323.69" font-family="Times,serif" font-size="14.00">*0</text>
</g>
<!-- node6&#45;&gt;node21 -->
<g id="edge60" class="edge">
<title>node6&#45;&gt;node21</title>
<path fill="none" stroke="black" d="M1564.85,-587.32C1594.24,-577.3 1619,-559.96 1619,-530 1619,-530 1619,-530 1619,-163 1619,-112.54 901.17,-97.47 602.24,-93.39"/>
<polygon fill="black" stroke="black" points="602.27,-89.89 592.22,-93.25 602.17,-96.89 602.27,-89.89"/>
<text text-anchor="middle" x="610.46" y="-81.35" font-family="Times,serif" font-size="14.00">*0</text>
</g>
<!-- node7&#45;&gt;node0 -->
<g id="edge14" class="edge">
<title>node7&#45;&gt;node0</title>
<path fill="none" stroke="green" stroke-width="2" d="M1342.47,-688.42C1330.65,-690.07 1318.52,-691.65 1307,-693 1123.52,-714.51 1075.95,-704.42 893,-730 891.49,-730.21 889.97,-730.43 888.44,-730.66"/>
<polygon fill="green" stroke="green" stroke-width="2" points="887.54,-727.26 878.19,-732.25 888.61,-734.17 887.54,-727.26"/>
</g>
<!-- node7&#45;&gt;node6 -->
<g id="edge12" class="edge">
<title>node7&#45;&gt;node6</title>
<path fill="none" stroke="black" d="M1428.07,-656.81C1434.64,-648.18 1442.72,-637.56 1449.96,-628.03"/>
<polygon fill="black" stroke="black" points="1452.78,-630.11 1456.05,-620.03 1447.21,-625.87 1452.78,-630.11"/>
<text text-anchor="middle" x="1451.8" y="-635.87" font-family="Times,serif" font-size="14.00">*0</text>
</g>
<!-- node7&#45;&gt;node8 -->
<g id="edge19" class="edge">
<title>node7&#45;&gt;node8</title>
<path fill="none" stroke="black" d="M1359.2,-658.7C1330.58,-649.62 1295.78,-636.61 1267,-620 1245.41,-607.54 1246.43,-594.88 1224,-584 1184.83,-565 1139.15,-552.66 1097.21,-544.66"/>
<polygon fill="black" stroke="black" points="1097.66,-541.19 1087.19,-542.82 1096.4,-548.07 1097.66,-541.19"/>
<text text-anchor="middle" x="1106.55" y="-534.09" font-family="Times,serif" font-size="14.00">*2</text>
</g>
<!-- node8&#45;&gt;node0 -->
<g id="edge16" class="edge">
<title>node8&#45;&gt;node0</title>
<path fill="none" stroke="green" stroke-width="2" d="M1087.05,-546.14C1120.85,-551.38 1157.48,-557.74 1191,-565 1221.67,-571.65 1231.41,-569.05 1259,-584 1280.32,-595.55 1278.05,-609.69 1300,-620 1394.5,-664.41 1464.23,-577.57 1532,-657 1542.38,-669.17 1542.99,-681.37 1532,-693 1484.27,-743.53 993.03,-722.81 888.42,-729.83"/>
<polygon fill="green" stroke="green" stroke-width="2" points="887.97,-726.35 878.33,-730.74 888.6,-733.33 887.97,-726.35"/>
</g>
<!-- node11 -->
<g id="node12" class="node">
<title>node11</title>
<polygon fill="lightgrey" stroke="black" points="633,-474 493,-474 493,-438 633,-438 633,-474"/>
<text text-anchor="middle" x="563" y="-452.3" font-family="Times,serif" font-size="14.00">#11 If Order : 13</text>
</g>
<!-- node8&#45;&gt;node11 -->
<g id="edge29" class="edge">
<title>node8&#45;&gt;node11</title>
<path fill="none" stroke="red" d="M844.8,-523.14C784.56,-518.61 711.12,-509.86 647,-493 633.17,-489.36 618.67,-483.83 605.68,-478.18"/>
<polygon fill="red" stroke="red" points="607.08,-474.97 596.52,-474.07 604.21,-481.35 607.08,-474.97"/>
</g>
<!-- node8&#45;&gt;node16 -->
<g id="edge42" class="edge">
<title>node8&#45;&gt;node16</title>
<path fill="none" stroke="black" d="M939.51,-510.85C923.44,-498.16 906,-479.27 906,-457 906,-457 906,-457 906,-309 906,-280.12 845.36,-262.57 782.76,-252.14"/>
<polygon fill="black" stroke="black" points="783.13,-248.65 772.71,-250.53 782.03,-255.57 783.13,-248.65"/>
</g>
<!-- node8&#45;&gt;node18 -->
<g id="edge50" class="edge">
<title>node8&#45;&gt;node18</title>
<path fill="none" stroke="black" d="M913.52,-510.91C853.79,-490.11 754.74,-451.44 679,-401 659.64,-388.11 661.95,-375.11 641,-365 598.78,-344.62 488.15,-330.32 397.08,-321.59"/>
<polygon fill="black" stroke="black" points="397.21,-318.08 386.92,-320.63 396.55,-325.05 397.21,-318.08"/>
</g>
<!-- node9&#45;&gt;node0 -->
<g id="edge22" class="edge">
<title>node9&#45;&gt;node0</title>
<path fill="none" stroke="green" stroke-width="2" d="M634.71,-691.41C666.72,-701.72 707.71,-715.4 740.27,-726.6"/>
<polygon fill="green" stroke="green" stroke-width="2" points="739.49,-730.03 750.08,-729.99 741.77,-723.42 739.49,-730.03"/>
</g>
<!-- node9&#45;&gt;node10 -->
<g id="edge26" class="edge">
<title>node9&#45;&gt;node10</title>
<path fill="none" stroke="black" d="M599.7,-656.81C608.26,-648 618.84,-637.13 628.23,-627.46"/>
<polygon fill="black" stroke="black" points="630.99,-629.64 635.45,-620.03 625.97,-624.76 630.99,-629.64"/>
<text text-anchor="middle" x="628.88" y="-635.22" font-family="Times,serif" font-size="14.00">*1</text>
</g>
<!-- node10&#45;&gt;node0 -->
<g id="edge24" class="edge">
<title>node10&#45;&gt;node0</title>
<path fill="none" stroke="green" stroke-width="2" d="M554.44,-619.09C497.22,-632.73 441.77,-656.09 473,-693 501.85,-727.09 617.21,-739.68 701.63,-744.31"/>
<polygon fill="green" stroke="green" stroke-width="2" points="701.6,-747.81 711.76,-744.84 701.96,-740.82 701.6,-747.81"/>
</g>
<!-- node10&#45;&gt;node11 -->
<g id="edge28" class="edge">
<title>node10&#45;&gt;node11</title>
<path fill="none" stroke="black" d="M641.44,-583.92C625.98,-558.91 597.08,-512.14 579,-482.89"/>
<polygon fill="black" stroke="black" points="581.78,-480.73 573.55,-474.06 575.83,-484.41 581.78,-480.73"/>
<text text-anchor="middle" x="590.26" y="-481.34" font-family="Times,serif" font-size="14.00">*0</text>
</g>
<!-- node11&#45;&gt;node0 -->
<g id="edge27" class="edge">
<title>node11&#45;&gt;node0</title>
<path fill="none" stroke="green" stroke-width="2" d="M535.75,-474.11C504.61,-495.46 455.34,-535.16 435,-584 415.89,-629.88 427.28,-655.59 460,-693 490.99,-728.44 613.88,-740.68 701.83,-744.87"/>
<polygon fill="green" stroke="green" stroke-width="2" points="701.69,-748.37 711.83,-745.32 702,-741.37 701.69,-748.37"/>
</g>
<!-- node12 -->
<g id="node13" class="node">
<title>node12</title>
<polygon fill="lightgrey" stroke="black" points="632.5,-401 469.5,-401 469.5,-365 632.5,-365 632.5,-401"/>
<text text-anchor="middle" x="551" y="-379.3" font-family="Times,serif" font-size="14.00">#12 false Order : 17</text>
</g>
<!-- node11&#45;&gt;node12 -->
<g id="edge31" class="edge">
<title>node11&#45;&gt;node12</title>
<path fill="none" stroke="red" d="M554.22,-437.81C552.02,-429.79 550.14,-420.05 549,-411.07"/>
<polygon fill="red" stroke="red" points="552.47,-410.64 548.02,-401.03 545.51,-411.32 552.47,-410.64"/>
</g>
<!-- node13 -->
<g id="node14" class="node">
<title>node13</title>
<polygon fill="lightgrey" stroke="black" points="847.5,-401 688.5,-401 688.5,-365 847.5,-365 847.5,-401"/>
<text text-anchor="middle" x="768" y="-379.3" font-family="Times,serif" font-size="14.00">#13 true Order : 14</text>
</g>
<!-- node11&#45;&gt;node13 -->
<g id="edge33" class="edge">
<title>node11&#45;&gt;node13</title>
<path fill="none" stroke="red" d="M606.24,-437.99C634.37,-427.88 671.48,-414.99 703.1,-404.34"/>
<polygon fill="red" stroke="red" points="704.35,-407.61 712.72,-401.11 702.12,-400.98 704.35,-407.61"/>
</g>
<!-- node12&#45;&gt;node11 -->
<g id="edge30" class="edge">
<title>node12&#45;&gt;node11</title>
<path fill="none" stroke="green" stroke-width="2" d="M559.74,-401.03C561.94,-409.03 563.83,-418.77 564.98,-427.75"/>
<polygon fill="green" stroke="green" stroke-width="2" points="561.51,-428.21 565.97,-437.81 568.47,-427.52 561.51,-428.21"/>
</g>
<!-- node12&#45;&gt;node18 -->
<g id="edge51" class="edge">
<title>node12&#45;&gt;node18</title>
<path fill="none" stroke="red" d="M488.02,-365C464.79,-358.85 438.24,-351.96 414,-346 392.54,-340.73 369.33,-335.29 347.63,-330.31"/>
<polygon fill="red" stroke="red" points="348.3,-326.87 337.77,-328.06 346.74,-333.7 348.3,-326.87"/>
</g>
<!-- node13&#45;&gt;node11 -->
<g id="edge32" class="edge">
<title>node13&#45;&gt;node11</title>
<path fill="none" stroke="green" stroke-width="2" d="M724.46,-401.11C696.27,-411.25 659.14,-424.14 627.57,-434.77"/>
<polygon fill="green" stroke="green" stroke-width="2" points="626.33,-431.5 617.96,-437.99 628.56,-438.13 626.33,-431.5"/>
</g>
<!-- node14 -->
<g id="node15" class="node">
<title>node14</title>
<polygon fill="lightgrey" stroke="black" points="871,-328 665,-328 665,-292 871,-292 871,-328"/>
<text text-anchor="middle" x="768" y="-306.3" font-family="Times,serif" font-size="14.00">#14 LabelNode Order : 15</text>
</g>
<!-- node13&#45;&gt;node14 -->
<g id="edge35" class="edge">
<title>node13&#45;&gt;node14</title>
<path fill="none" stroke="red" d="M762.12,-364.81C761.28,-356.79 761.05,-347.05 761.42,-338.07"/>
<polygon fill="red" stroke="red" points="764.92,-338.25 762.14,-328.03 757.94,-337.75 764.92,-338.25"/>
</g>
<!-- node14&#45;&gt;node13 -->
<g id="edge34" class="edge">
<title>node14&#45;&gt;node13</title>
<path fill="none" stroke="green" stroke-width="2" d="M773.86,-328.03C774.71,-336.03 774.95,-345.77 774.59,-354.75"/>
<polygon fill="green" stroke="green" stroke-width="2" points="771.09,-354.59 773.88,-364.81 778.07,-355.08 771.09,-354.59"/>
</g>
<!-- node14&#45;&gt;node16 -->
<g id="edge43" class="edge">
<title>node14&#45;&gt;node16</title>
<path fill="none" stroke="red" d="M739.02,-291.99C722.82,-282.49 702.45,-270.54 684.99,-260.29"/>
<polygon fill="red" stroke="red" points="686.56,-257.16 676.17,-255.11 683.02,-263.19 686.56,-257.16"/>
</g>
<!-- node15&#45;&gt;node0 -->
<g id="edge36" class="edge">
<title>node15&#45;&gt;node0</title>
<path fill="none" stroke="green" stroke-width="2" d="M1707.65,-693.04C1685,-700.32 1656.37,-708.03 1630,-712 1468,-736.37 1055.9,-712.57 893,-730 891.48,-730.16 889.96,-730.34 888.42,-730.52"/>
<polygon fill="green" stroke="green" stroke-width="2" points="887.6,-727.1 878.15,-731.89 888.52,-734.04 887.6,-727.1"/>
</g>
<!-- node15&#45;&gt;node16 -->
<g id="edge41" class="edge">
<title>node15&#45;&gt;node16</title>
<path fill="none" stroke="black" d="M1701.38,-657.06C1678.93,-645.74 1657,-628.22 1657,-603 1657,-603 1657,-603 1657,-419 1657,-312.2 1554.02,-326.65 1453,-292 1332.88,-250.8 979.35,-240.87 782.76,-238.58"/>
<polygon fill="black" stroke="black" points="782.69,-235.08 772.65,-238.47 782.61,-242.08 782.69,-235.08"/>
<text text-anchor="middle" x="790.87" y="-226.52" font-family="Times,serif" font-size="14.00">*2</text>
</g>
<!-- node16&#45;&gt;node0 -->
<g id="edge38" class="edge">
<title>node16&#45;&gt;node0</title>
<path fill="none" stroke="green" stroke-width="2" d="M604.22,-255C560.6,-274.69 494.57,-311.41 460,-365 431.42,-409.29 370.59,-617.95 431,-693 463.98,-733.98 605.15,-744.58 701.67,-746.93"/>
<polygon fill="green" stroke="green" stroke-width="2" points="701.67,-750.43 711.74,-747.15 701.82,-743.43 701.67,-750.43"/>
</g>
<!-- node20 -->
<g id="node21" class="node">
<title>node20</title>
<polygon fill="lightgrey" stroke="black" points="601,-182 347,-182 347,-146 601,-146 601,-182"/>
<text text-anchor="middle" x="474" y="-160.3" font-family="Times,serif" font-size="14.00">#20 Merge : Merge30 Order : 20</text>
</g>
<!-- node16&#45;&gt;node20 -->
<g id="edge56" class="edge">
<title>node16&#45;&gt;node20</title>
<path fill="none" stroke="red" d="M599.7,-218.99C574.65,-209.14 544.1,-196.66 519.35,-186.17"/>
<polygon fill="red" stroke="red" points="520.4,-182.81 509.83,-182.11 517.66,-189.25 520.4,-182.81"/>
</g>
<!-- node16&#45;&gt;node20 -->
<g id="edge58" class="edge">
<title>node16&#45;&gt;node20</title>
<path fill="none" stroke="black" d="M611.42,-218.99C588.26,-209.06 557.63,-196.43 531.12,-185.89"/>
<polygon fill="black" stroke="black" points="532.16,-182.54 521.57,-182.11 529.58,-189.05 532.16,-182.54"/>
</g>
<!-- node17&#45;&gt;node0 -->
<g id="edge44" class="edge">
<title>node17&#45;&gt;node0</title>
<path fill="none" stroke="green" stroke-width="2" d="M253.59,-691.8C278.39,-699.12 307.95,-707.24 335,-712 460.76,-734.15 607.89,-742.3 701.3,-745.29"/>
<polygon fill="green" stroke="green" stroke-width="2" points="701.47,-748.79 711.57,-745.6 701.69,-741.8 701.47,-748.79"/>
</g>
<!-- node17&#45;&gt;node18 -->
<g id="edge49" class="edge">
<title>node17&#45;&gt;node18</title>
<path fill="none" stroke="black" d="M218.5,-656.95C231.92,-643.79 247,-624.27 247,-603 247,-603 247,-603 247,-382 247,-367.23 249.95,-351.05 253.15,-337.87"/>
<polygon fill="black" stroke="black" points="256.58,-338.59 255.71,-328.03 249.8,-336.83 256.58,-338.59"/>
<text text-anchor="middle" x="259.32" y="-344" font-family="Times,serif" font-size="14.00">*2</text>
</g>
<!-- node18&#45;&gt;node0 -->
<g id="edge46" class="edge">
<title>node18&#45;&gt;node0</title>
<path fill="none" stroke="green" stroke-width="2" d="M299.57,-328.25C319.63,-340.09 340,-358.03 340,-382 340,-676 340,-676 340,-676 340,-695.23 347.43,-702.25 364,-712 392.33,-728.67 583.64,-738.91 701.65,-743.72"/>
<polygon fill="green" stroke="green" stroke-width="2" points="701.65,-747.22 711.78,-744.13 701.93,-740.23 701.65,-747.22"/>
</g>
<!-- node19 -->
<g id="node20" class="node">
<title>node19</title>
<polygon fill="lightgrey" stroke="black" points="452.5,-255 289.5,-255 289.5,-219 452.5,-219 452.5,-255"/>
<text text-anchor="middle" x="371" y="-233.3" font-family="Times,serif" font-size="14.00">#19 Goto Order : 19</text>
</g>
<!-- node18&#45;&gt;node19 -->
<g id="edge53" class="edge">
<title>node18&#45;&gt;node19</title>
<path fill="none" stroke="red" d="M281.49,-291.99C295.08,-282.58 313.24,-270.76 329.69,-260.57"/>
<polygon fill="red" stroke="red" points="331.91,-263.32 338.62,-255.11 328.26,-257.35 331.91,-263.32"/>
</g>
<!-- node18&#45;&gt;node20 -->
<g id="edge57" class="edge">
<title>node18&#45;&gt;node20</title>
<path fill="none" stroke="black" d="M259.69,-291.7C259.17,-271.6 261.53,-238.68 280,-219 295.58,-202.4 315.78,-190.75 337.25,-182.61"/>
<polygon fill="black" stroke="black" points="338.59,-185.85 346.86,-179.22 336.26,-179.25 338.59,-185.85"/>
</g>
<!-- node19&#45;&gt;node18 -->
<g id="edge52" class="edge">
<title>node19&#45;&gt;node18</title>
<path fill="none" stroke="green" stroke-width="2" d="M350.36,-255.11C336.73,-264.55 318.56,-276.37 302.12,-286.54"/>
<polygon fill="green" stroke="green" stroke-width="2" points="299.91,-283.79 293.21,-291.99 303.56,-289.76 299.91,-283.79"/>
</g>
<!-- node19&#45;&gt;node20 -->
<g id="edge55" class="edge">
<title>node19&#45;&gt;node20</title>
<path fill="none" stroke="red" d="M395.67,-218.99C409.2,-209.67 426.16,-197.97 440.84,-187.86"/>
<polygon fill="red" stroke="red" points="442.93,-190.67 449.17,-182.11 438.95,-184.91 442.93,-190.67"/>
</g>
<!-- node20&#45;&gt;node0 -->
<g id="edge54" class="edge">
<title>node20&#45;&gt;node0</title>
<path fill="none" stroke="green" stroke-width="2" d="M375.5,-182.03C236.62,-208.89 0,-266.34 0,-346 0,-676 0,-676 0,-676 0,-724.91 55.84,-703.42 104,-712 215.88,-731.93 539.89,-741.52 701.31,-745.17"/>
<polygon fill="green" stroke="green" stroke-width="2" points="701.63,-748.67 711.7,-745.4 701.78,-741.68 701.63,-748.67"/>
</g>
<!-- node20&#45;&gt;node21 -->
<g id="edge62" class="edge">
<title>node20&#45;&gt;node21</title>
<path fill="none" stroke="black" d="M468.12,-145.81C467.28,-137.79 467.05,-128.05 467.42,-119.07"/>
<polygon fill="black" stroke="black" points="470.92,-119.25 468.14,-109.03 463.94,-118.75 470.92,-119.25"/>
</g>
<!-- node20&#45;&gt;node21 -->
<g id="edge63" class="edge">
<title>node20&#45;&gt;node21</title>
<path fill="none" stroke="red" d="M479.88,-145.81C480.72,-137.79 480.95,-128.05 480.58,-119.07"/>
<polygon fill="red" stroke="red" points="484.06,-118.75 479.86,-109.03 477.08,-119.25 484.06,-118.75"/>
</g>
<!-- node21&#45;&gt;node0 -->
<g id="edge59" class="edge">
<title>node21&#45;&gt;node0</title>
<path fill="none" stroke="green" stroke-width="2" d="M592.07,-91.79C932.37,-91.95 1891,-98.17 1891,-163 1891,-676 1891,-676 1891,-676 1891,-731.25 1700.17,-709.04 1645,-712 1310.47,-729.94 1222.13,-694.84 888.27,-729.6"/>
<polygon fill="green" stroke="green" stroke-width="2" points="887.89,-726.12 878.32,-730.65 888.63,-733.09 887.89,-726.12"/>
</g>
<!-- node22 -->
<g id="node23" class="node">
<title>node22</title>
<polygon fill="lightgrey" stroke="black" points="599.5,-36 348.5,-36 348.5,0 599.5,0 599.5,-36"/>
<text text-anchor="middle" x="474" y="-14.3" font-family="Times,serif" font-size="14.00">#22 ReturnValue : int Order : 22</text>
</g>
<!-- node21&#45;&gt;node22 -->
<g id="edge65" class="edge">
<title>node21&#45;&gt;node22</title>
<path fill="none" stroke="black" d="M456.37,-72.81C453.85,-64.79 453.15,-55.05 454.27,-46.07"/>
<polygon fill="black" stroke="black" points="457.74,-46.54 456.42,-36.03 450.9,-45.07 457.74,-46.54"/>
<text text-anchor="middle" x="460.89" y="-51.82" font-family="Times,serif" font-size="14.00">*0</text>
</g>
<!-- node21&#45;&gt;node22 -->
<g id="edge66" class="edge">
<title>node21&#45;&gt;node22</title>
<path fill="none" stroke="red" d="M479.88,-72.81C480.72,-64.79 480.95,-55.05 480.58,-46.07"/>
<polygon fill="red" stroke="red" points="484.06,-45.75 479.86,-36.03 477.08,-46.25 484.06,-45.75"/>
</g>
<!-- node21&#45;&gt;node22 -->
<g id="edge67" class="edge">
<title>node21&#45;&gt;node22</title>
<path fill="none" stroke="black" d="M491.63,-72.81C494.15,-64.79 494.85,-55.05 493.73,-46.07"/>
<polygon fill="black" stroke="black" points="497.1,-45.07 491.58,-36.03 490.26,-46.54 497.1,-45.07"/>
</g>
<!-- node22&#45;&gt;node21 -->
<g id="edge64" class="edge">
<title>node22&#45;&gt;node21</title>
<path fill="none" stroke="green" stroke-width="2" d="M468.14,-36.03C467.29,-44.03 467.05,-53.77 467.41,-62.75"/>
<polygon fill="green" stroke="green" stroke-width="2" points="463.93,-63.08 468.12,-72.81 470.91,-62.59 463.93,-63.08"/>
</g>
<!-- c0 -->
<!-- c1 -->
<!-- c0&#45;&gt;c1 -->
<g id="edge68" class="edge">
<title>c0&#45;&gt;c1</title>
<path fill="none" stroke="red" d="M1609.89,-748C1621.11,-748 1679.24,-748 1704.86,-748"/>
<polygon fill="red" stroke="red" points="1705.06,-751.5 1715.06,-748 1705.06,-744.5 1705.06,-751.5"/>
<text text-anchor="middle" x="1662.5" y="-754.8" font-family="Times,serif" font-size="14.00">Control flow</text>
</g>
<!-- c2 -->
<!-- c3 -->
<!-- c2&#45;&gt;c3 -->
<g id="edge69" class="edge">
<title>c2&#45;&gt;c3</title>
<path fill="none" stroke="red" stroke-dasharray="5,2" d="M1403.08,-748C1420.05,-748 1536.21,-748 1574.08,-748"/>
<polygon fill="red" stroke="red" points="1574.17,-751.5 1584.17,-748 1574.17,-744.5 1574.17,-751.5"/>
<text text-anchor="middle" x="1493.5" y="-754.8" font-family="Times,serif" font-size="14.00">Control flow back edge</text>
</g>
<!-- d0 -->
<!-- d1 -->
<!-- d0&#45;&gt;d1 -->
<g id="edge70" class="edge">
<title>d0&#45;&gt;d1</title>
<path fill="none" stroke="black" d="M1291.86,-748C1301.41,-748 1345.31,-748 1366.92,-748"/>
<polygon fill="black" stroke="black" points="1367.15,-751.5 1377.15,-748 1367.15,-744.5 1367.15,-751.5"/>
<text text-anchor="middle" x="1334.5" y="-754.8" font-family="Times,serif" font-size="14.00">Data flow</text>
</g>
<!-- d2 -->
<!-- d3 -->
<!-- d2&#45;&gt;d3 -->
<g id="edge71" class="edge">
<title>d2&#45;&gt;d3</title>
<path fill="none" stroke="black" stroke-dasharray="1,5" d="M1165.81,-748C1176.46,-748 1231.46,-748 1256.08,-748"/>
<polygon fill="black" stroke="black" points="1256.15,-751.5 1266.15,-748 1256.15,-744.5 1256.15,-751.5"/>
<text text-anchor="middle" x="1216" y="-754.8" font-family="Times,serif" font-size="14.00">Declaration</text>
</g>
<!-- d4 -->
<!-- d5 -->
<!-- d4&#45;&gt;d5 -->
<g id="edge72" class="edge">
<title>d4&#45;&gt;d5</title>
<path fill="none" stroke="blue" d="M1023.1,-748C1035.72,-748 1101.88,-748 1129.68,-748"/>
<polygon fill="blue" stroke="blue" points="1129.84,-751.5 1139.84,-748 1129.84,-744.5 1129.84,-751.5"/>
<text text-anchor="middle" x="1081.5" y="-754.8" font-family="Times,serif" font-size="14.00">PHI Data flow</text>
</g>
<!-- d6 -->
<!-- d7 -->
<!-- d6&#45;&gt;d7 -->
<g id="edge73" class="edge">
<title>d6&#45;&gt;d7</title>
<path fill="none" stroke="green" d="M900.11,-748C911.15,-748 962.67,-748 986.66,-748"/>
<polygon fill="green" stroke="green" points="986.9,-751.5 996.9,-748 986.9,-744.5 986.9,-751.5"/>
<text text-anchor="middle" x="948.5" y="-754.8" font-family="Times,serif" font-size="14.00">Dominance</text>
</g>
</g>
</svg>
