<?xml version="1.0" encoding="UTF-8" standalone="no"?>
<!DOCTYPE svg PUBLIC "-//W3C//DTD SVG 1.1//EN"
 "http://www.w3.org/Graphics/SVG/1.1/DTD/svg11.dtd">
<!-- Generated by graphviz version 2.43.0 (0)
 -->
<!-- Title: debugoutput Pages: 1 -->
<svg width="2023pt" height="797pt"
 viewBox="0.00 0.00 2022.86 796.80" xmlns="http://www.w3.org/2000/svg" xmlns:xlink="http://www.w3.org/1999/xlink">
<g id="graph0" class="graph" transform="scale(1 1) rotate(0) translate(4 792.8)">
<title>debugoutput</title>
<polygon fill="white" stroke="transparent" points="-4,4 -4,-792.8 2018.86,-792.8 2018.86,4 -4,4"/>
<g id="clust1" class="cluster">
<title>cluster_000</title>
<polygon fill="none" stroke="black" points="1167.86,-738.2 1167.86,-780.8 2006.86,-780.8 2006.86,-738.2 1167.86,-738.2"/>
<text text-anchor="middle" x="1587.36" y="-765.6" font-family="Times,serif" font-size="14.00">Legend</text>
</g>
<!-- node0 -->
<g id="node1" class="node">
<title>node0</title>
<polygon fill="lightgrey" stroke="black" points="1157.86,-766 991.86,-766 991.86,-730 1157.86,-730 1157.86,-766"/>
<text text-anchor="middle" x="1074.86" y="-744.3" font-family="Times,serif" font-size="14.00">#0 Method Order : 0</text>
</g>
<!-- node1 -->
<g id="node2" class="node">
<title>node1</title>
<polygon fill="lightgrey" stroke="black" points="962.86,-693 776.86,-693 776.86,-657 962.86,-657 962.86,-693"/>
<text text-anchor="middle" x="869.86" y="-671.3" font-family="Times,serif" font-size="14.00">#1 arg1 : int Order : 11</text>
</g>
<!-- node0&#45;&gt;node1 -->
<g id="edge2" class="edge">
<title>node0&#45;&gt;node1</title>
<path fill="none" stroke="red" d="M1019.9,-729.99C989.89,-719.97 952.95,-707.21 923.2,-696.62"/>
<polygon fill="red" stroke="red" points="924,-693.19 913.4,-693.11 921.64,-699.78 924,-693.19"/>
</g>
<!-- node2 -->
<g id="node3" class="node">
<title>node2</title>
<polygon fill="lightgrey" stroke="black" points="463.36,-693 286.36,-693 286.36,-657 463.36,-657 463.36,-693"/>
<text text-anchor="middle" x="374.86" y="-671.3" font-family="Times,serif" font-size="14.00">#2 arg0 : int Order : 9</text>
</g>
<!-- node0&#45;&gt;node2 -->
<g id="edge4" class="edge">
<title>node0&#45;&gt;node2</title>
<path fill="none" stroke="red" d="M991.79,-745.16C849.44,-741.42 565.09,-731.6 467.86,-712 450.48,-708.5 432.05,-702.68 416.16,-696.74"/>
<polygon fill="red" stroke="red" points="417.21,-693.39 406.62,-693.04 414.68,-699.92 417.21,-693.39"/>
</g>
<!-- node3 -->
<g id="node4" class="node">
<title>node3</title>
<polygon fill="lightgrey" stroke="black" points="1669.36,-401 1492.36,-401 1492.36,-365 1669.36,-365 1669.36,-401"/>
<text text-anchor="middle" x="1580.86" y="-379.3" font-family="Times,serif" font-size="14.00">#3 arg2 : int Order : 8</text>
</g>
<!-- node0&#45;&gt;node3 -->
<g id="edge6" class="edge">
<title>node0&#45;&gt;node3</title>
<path fill="none" stroke="red" d="M1155.32,-729.95C1195.56,-725.37 1468.87,-728.48 1503.86,-712 1523.5,-702.75 1536.86,-697.71 1536.86,-676 1536.86,-676 1536.86,-676 1536.86,-455 1536.86,-438.65 1544.42,-422.17 1553.41,-409.21"/>
<polygon fill="red" stroke="red" points="1556.21,-411.31 1559.46,-401.23 1550.63,-407.08 1556.21,-411.31"/>
</g>
<!-- node4 -->
<g id="node5" class="node">
<title>node4</title>
<polygon fill="lightgrey" stroke="black" points="1168.86,-693 980.86,-693 980.86,-657 1168.86,-657 1168.86,-693"/>
<text text-anchor="middle" x="1074.86" y="-671.3" font-family="Times,serif" font-size="14.00">#4 LabelNode Order : 6</text>
</g>
<!-- node0&#45;&gt;node4 -->
<g id="edge8" class="edge">
<title>node0&#45;&gt;node4</title>
<path fill="none" stroke="red" d="M1068.98,-729.81C1068.14,-721.79 1067.91,-712.05 1068.28,-703.07"/>
<polygon fill="red" stroke="red" points="1071.78,-703.25 1069,-693.03 1064.8,-702.75 1071.78,-703.25"/>
</g>
<!-- node6 -->
<g id="node7" class="node">
<title>node6</title>
<polygon fill="orange" stroke="black" points="1470.75,-594.54 1470.75,-609.46 1377.09,-620 1244.64,-620 1150.98,-609.46 1150.98,-594.54 1244.64,-584 1377.09,-584 1470.75,-594.54"/>
<text text-anchor="middle" x="1310.86" y="-598.3" font-family="Times,serif" font-size="14.00">#6 NewArray : int[] Order : 5</text>
</g>
<!-- node0&#45;&gt;node6 -->
<g id="edge13" class="edge">
<title>node0&#45;&gt;node6</title>
<path fill="none" stroke="black" d="M1155.2,-729.94C1213.07,-720.48 1376.69,-736.99 1414.86,-693 1425.35,-680.92 1423.39,-670.53 1414.86,-657 1405.98,-642.91 1392.3,-632.42 1377.72,-624.63"/>
<polygon fill="black" stroke="black" points="1379.08,-621.4 1368.56,-620.12 1375.99,-627.68 1379.08,-621.4"/>
</g>
<!-- node11 -->
<g id="node8" class="node">
<title>node11</title>
<polygon fill="lightgreen" stroke="black" points="1414.79,-667.54 1414.79,-682.46 1348.05,-693 1253.67,-693 1186.93,-682.46 1186.93,-667.54 1253.67,-657 1348.05,-657 1414.79,-667.54"/>
<text text-anchor="middle" x="1300.86" y="-671.3" font-family="Times,serif" font-size="14.00">#11 int 10 Order : 1</text>
</g>
<!-- node0&#45;&gt;node11 -->
<g id="edge24" class="edge">
<title>node0&#45;&gt;node11</title>
<path fill="none" stroke="black" stroke-dasharray="1,5" d="M1123.14,-729.99C1155.79,-719.38 1199.25,-705.71 1235.05,-694.78"/>
<polygon fill="black" stroke="black" points="1236.38,-698.03 1244.93,-691.77 1234.34,-691.34 1236.38,-698.03"/>
</g>
<!-- node7 -->
<g id="node9" class="node">
<title>node7</title>
<polygon fill="lightgreen" stroke="black" points="720.97,-667.54 720.97,-682.46 661.74,-693 577.98,-693 518.76,-682.46 518.76,-667.54 577.98,-657 661.74,-657 720.97,-667.54"/>
<text text-anchor="middle" x="619.86" y="-671.3" font-family="Times,serif" font-size="14.00">#7 int 0 Order : 4</text>
</g>
<!-- node0&#45;&gt;node7 -->
<g id="edge15" class="edge">
<title>node0&#45;&gt;node7</title>
<path fill="none" stroke="black" stroke-dasharray="1,5" d="M991.53,-743.53C920.23,-739.35 815.37,-730.42 725.86,-712 706.67,-708.05 686.13,-702.17 668.24,-696.31"/>
<polygon fill="black" stroke="black" points="669.19,-692.93 658.59,-693.06 666.95,-699.57 669.19,-692.93"/>
</g>
<!-- node9 -->
<g id="node11" class="node">
<title>node9</title>
<polygon fill="lightgreen" stroke="black" points="230.63,-667.54 230.63,-682.46 167.5,-693 78.22,-693 15.09,-682.46 15.09,-667.54 78.22,-657 167.5,-657 230.63,-667.54"/>
<text text-anchor="middle" x="122.86" y="-671.3" font-family="Times,serif" font-size="14.00">#9 int 30 Order : 3</text>
</g>
<!-- node0&#45;&gt;node9 -->
<g id="edge20" class="edge">
<title>node0&#45;&gt;node9</title>
<path fill="none" stroke="black" stroke-dasharray="1,5" d="M991.55,-746.14C808.97,-743.78 378.85,-735.74 235.86,-712 214.52,-708.46 191.65,-702.35 172.05,-696.17"/>
<polygon fill="black" stroke="black" points="173.01,-692.8 162.42,-693.04 170.85,-699.46 173.01,-692.8"/>
</g>
<!-- node10 -->
<g id="node12" class="node">
<title>node10</title>
<polygon fill="lightgreen" stroke="black" points="1810.79,-667.54 1810.79,-682.46 1744.05,-693 1649.67,-693 1582.93,-682.46 1582.93,-667.54 1649.67,-657 1744.05,-657 1810.79,-667.54"/>
<text text-anchor="middle" x="1696.86" y="-671.3" font-family="Times,serif" font-size="14.00">#10 int 20 Order : 2</text>
</g>
<!-- node0&#45;&gt;node10 -->
<g id="edge22" class="edge">
<title>node0&#45;&gt;node10</title>
<path fill="none" stroke="black" stroke-dasharray="1,5" d="M1155.12,-729.97C1333.86,-709.07 1382.05,-740.57 1559.86,-712 1583.79,-708.16 1609.61,-701.41 1632.38,-694.79"/>
<polygon fill="black" stroke="black" points="1633.67,-698.06 1642.26,-691.87 1631.68,-691.35 1633.67,-698.06"/>
</g>
<!-- node1&#45;&gt;node0 -->
<g id="edge1" class="edge">
<title>node1&#45;&gt;node0</title>
<path fill="none" stroke="green" stroke-width="2" d="M925.14,-693.11C955.2,-703.16 992.14,-715.92 1021.84,-726.5"/>
<polygon fill="green" stroke="green" stroke-width="2" points="1021.02,-729.92 1031.62,-729.99 1023.38,-723.33 1021.02,-729.92"/>
</g>
<!-- node12 -->
<g id="node13" class="node">
<title>node12</title>
<polygon fill="lightgrey" stroke="black" points="1248.36,-547 997.36,-547 997.36,-511 1248.36,-511 1248.36,-547"/>
<text text-anchor="middle" x="1122.86" y="-525.3" font-family="Times,serif" font-size="14.00">#12 ArrayStore : int[] Order : 12</text>
</g>
<!-- node1&#45;&gt;node12 -->
<g id="edge27" class="edge">
<title>node1&#45;&gt;node12</title>
<path fill="none" stroke="black" d="M870.34,-656.79C871.87,-636.46 877.55,-603.01 897.86,-584 913.34,-569.52 954.29,-557.8 997.08,-549.02"/>
<polygon fill="black" stroke="black" points="997.98,-552.41 1007.1,-547.03 996.61,-545.55 997.98,-552.41"/>
<text text-anchor="middle" x="990.98" y="-555.16" font-family="Times,serif" font-size="14.00">*1</text>
</g>
<!-- node2&#45;&gt;node0 -->
<g id="edge3" class="edge">
<title>node2&#45;&gt;node0</title>
<path fill="none" stroke="green" stroke-width="2" d="M423.03,-693.04C442.35,-700.17 464.88,-707.77 485.86,-712 578.3,-730.63 839.83,-740.43 981.32,-744.56"/>
<polygon fill="green" stroke="green" stroke-width="2" points="981.62,-748.07 991.71,-744.86 981.82,-741.07 981.62,-748.07"/>
</g>
<!-- node8 -->
<g id="node10" class="node">
<title>node8</title>
<polygon fill="orange" stroke="black" points="719.26,-594.54 719.26,-609.46 601.28,-620 434.44,-620 316.46,-609.46 316.46,-594.54 434.44,-584 601.28,-584 719.26,-594.54"/>
<text text-anchor="middle" x="517.86" y="-598.3" font-family="Times,serif" font-size="14.00">#8 NumericCondition : EQ Order : 10</text>
</g>
<!-- node2&#45;&gt;node8 -->
<g id="edge17" class="edge">
<title>node2&#45;&gt;node8</title>
<path fill="none" stroke="black" d="M409.11,-656.99C428.69,-647.27 453.44,-634.99 474.38,-624.59"/>
<polygon fill="black" stroke="black" points="475.99,-627.7 483.39,-620.11 472.88,-621.43 475.99,-627.7"/>
<text text-anchor="middle" x="470.92" y="-632.04" font-family="Times,serif" font-size="14.00">*0</text>
</g>
<!-- node3&#45;&gt;node0 -->
<g id="edge5" class="edge">
<title>node3&#45;&gt;node0</title>
<path fill="none" stroke="green" stroke-width="2" d="M1574.19,-401.23C1566.09,-414.94 1554.86,-435.07 1554.86,-455 1554.86,-676 1554.86,-676 1554.86,-676 1554.86,-697.71 1541.5,-702.75 1521.86,-712 1486.73,-728.55 1211.41,-725.35 1172.86,-730 1171.35,-730.18 1169.82,-730.38 1168.29,-730.58"/>
<polygon fill="green" stroke="green" stroke-width="2" points="1167.43,-727.16 1158.03,-732.04 1168.42,-734.09 1167.43,-727.16"/>
</g>
<!-- node13 -->
<g id="node14" class="node">
<title>node13</title>
<polygon fill="lightgrey" stroke="black" points="1590.36,-328 1339.36,-328 1339.36,-292 1590.36,-292 1590.36,-328"/>
<text text-anchor="middle" x="1464.86" y="-306.3" font-family="Times,serif" font-size="14.00">#13 ArrayStore : int[] Order : 18</text>
</g>
<!-- node3&#45;&gt;node13 -->
<g id="edge33" class="edge">
<title>node3&#45;&gt;node13</title>
<path fill="none" stroke="black" d="M1553.08,-364.99C1537.69,-355.58 1518.38,-343.76 1501.74,-333.57"/>
<polygon fill="black" stroke="black" points="1503.18,-330.35 1492.82,-328.11 1499.52,-336.32 1503.18,-330.35"/>
<text text-anchor="middle" x="1512.69" y="-326.67" font-family="Times,serif" font-size="14.00">*1</text>
</g>
<!-- node15 -->
<g id="node17" class="node">
<title>node15</title>
<polygon fill="lightgrey" stroke="black" points="1350.36,-255 1099.36,-255 1099.36,-219 1350.36,-219 1350.36,-255"/>
<text text-anchor="middle" x="1224.86" y="-233.3" font-family="Times,serif" font-size="14.00">#15 ArrayStore : int[] Order : 17</text>
</g>
<!-- node3&#45;&gt;node15 -->
<g id="edge41" class="edge">
<title>node3&#45;&gt;node15</title>
<path fill="none" stroke="black" d="M1492.34,-373.6C1442.87,-366.33 1381.24,-352.85 1330.86,-328 1313.4,-319.38 1275.86,-285.89 1250.47,-262.29"/>
<polygon fill="black" stroke="black" points="1252.72,-259.6 1243.02,-255.33 1247.93,-264.71 1252.72,-259.6"/>
<text text-anchor="middle" x="1262.03" y="-257.83" font-family="Times,serif" font-size="14.00">*1</text>
</g>
<!-- node17 -->
<g id="node20" class="node">
<title>node17</title>
<polygon fill="lightgrey" stroke="black" points="1664.86,-109 1428.86,-109 1428.86,-73 1664.86,-73 1664.86,-109"/>
<text text-anchor="middle" x="1546.86" y="-87.3" font-family="Times,serif" font-size="14.00">#17 ArrayLoad : int Order : 21</text>
</g>
<!-- node3&#45;&gt;node17 -->
<g id="edge52" class="edge">
<title>node3&#45;&gt;node17</title>
<path fill="none" stroke="black" d="M1669.39,-369.89C1730.53,-358.95 1800.86,-340.05 1800.86,-311 1800.86,-311 1800.86,-311 1800.86,-163 1800.86,-133.88 1738.16,-116.17 1675.06,-105.72"/>
<polygon fill="black" stroke="black" points="1675.37,-102.22 1664.94,-104.1 1674.26,-109.14 1675.37,-102.22"/>
<text text-anchor="middle" x="1684.17" y="-94.91" font-family="Times,serif" font-size="14.00">*1</text>
</g>
<!-- node4&#45;&gt;node0 -->
<g id="edge7" class="edge">
<title>node4&#45;&gt;node0</title>
<path fill="none" stroke="green" stroke-width="2" d="M1080.72,-693.03C1081.57,-701.03 1081.81,-710.77 1081.45,-719.75"/>
<polygon fill="green" stroke="green" stroke-width="2" points="1077.95,-719.59 1080.74,-729.81 1084.93,-720.08 1077.95,-719.59"/>
</g>
<!-- node5 -->
<g id="node6" class="node">
<title>node5</title>
<polygon fill="lightgrey" stroke="black" points="1094.86,-620 906.86,-620 906.86,-584 1094.86,-584 1094.86,-620"/>
<text text-anchor="middle" x="1000.86" y="-598.3" font-family="Times,serif" font-size="14.00">#5 LabelNode Order : 7</text>
</g>
<!-- node4&#45;&gt;node5 -->
<g id="edge10" class="edge">
<title>node4&#45;&gt;node5</title>
<path fill="none" stroke="red" d="M1051.07,-656.81C1040.97,-648 1029.44,-637.13 1019.9,-627.46"/>
<polygon fill="red" stroke="red" points="1022.21,-624.8 1012.75,-620.03 1017.16,-629.66 1022.21,-624.8"/>
</g>
<!-- node5&#45;&gt;node4 -->
<g id="edge9" class="edge">
<title>node5&#45;&gt;node4</title>
<path fill="none" stroke="green" stroke-width="2" d="M1024.47,-620.03C1034.56,-628.81 1046.09,-639.69 1055.65,-649.37"/>
<polygon fill="green" stroke="green" stroke-width="2" points="1053.37,-652.04 1062.83,-656.81 1058.41,-647.18 1053.37,-652.04"/>
</g>
<!-- node5&#45;&gt;node12 -->
<g id="edge30" class="edge">
<title>node5&#45;&gt;node12</title>
<path fill="none" stroke="red" d="M1030.08,-583.99C1046.41,-574.49 1066.95,-562.54 1084.56,-552.29"/>
<polygon fill="red" stroke="red" points="1086.57,-555.17 1093.46,-547.11 1083.05,-549.12 1086.57,-555.17"/>
</g>
<!-- node6&#45;&gt;node0 -->
<g id="edge11" class="edge">
<title>node6&#45;&gt;node0</title>
<path fill="none" stroke="green" stroke-width="2" d="M1383.89,-619.35C1403.25,-627.46 1421.79,-639.43 1432.86,-657 1441.39,-670.53 1443.35,-680.92 1432.86,-693 1394.61,-737.08 1230.43,-720.41 1172.86,-730 1171.36,-730.25 1169.84,-730.51 1168.31,-730.77"/>
<polygon fill="green" stroke="green" stroke-width="2" points="1167.35,-727.38 1158.1,-732.54 1168.55,-734.28 1167.35,-727.38"/>
</g>
<!-- node6&#45;&gt;node12 -->
<g id="edge26" class="edge">
<title>node6&#45;&gt;node12</title>
<path fill="none" stroke="black" d="M1259.97,-583.99C1232.6,-574.06 1199.06,-561.43 1171.97,-550.89"/>
<polygon fill="black" stroke="black" points="1172.89,-547.5 1162.31,-547.11 1170.34,-554.02 1172.89,-547.5"/>
<text text-anchor="middle" x="1182.27" y="-542.14" font-family="Times,serif" font-size="14.00">*0</text>
</g>
<!-- node6&#45;&gt;node12 -->
<g id="edge29" class="edge">
<title>node6&#45;&gt;node12</title>
<path fill="none" stroke="black" d="M1271.69,-583.99C1246.21,-573.97 1212.54,-561.21 1183.65,-550.62"/>
<polygon fill="black" stroke="black" points="1184.64,-547.25 1174.05,-547.11 1182.24,-553.83 1184.64,-547.25"/>
</g>
<!-- node6&#45;&gt;node13 -->
<g id="edge32" class="edge">
<title>node6&#45;&gt;node13</title>
<path fill="none" stroke="black" d="M1343.4,-583.8C1361.68,-571.56 1380.86,-553.2 1380.86,-530 1380.86,-530 1380.86,-530 1380.86,-382 1380.86,-361 1396.37,-344.93 1414.06,-333.44"/>
<polygon fill="black" stroke="black" points="1416.08,-336.31 1422.86,-328.17 1412.49,-330.31 1416.08,-336.31"/>
<text text-anchor="middle" x="1411.66" y="-341.04" font-family="Times,serif" font-size="14.00">*0</text>
</g>
<!-- node6&#45;&gt;node15 -->
<g id="edge40" class="edge">
<title>node6&#45;&gt;node15</title>
<path fill="none" stroke="black" d="M1306.83,-583.98C1293.12,-526.12 1248.23,-336.65 1231.36,-265.41"/>
<polygon fill="black" stroke="black" points="1234.7,-264.33 1228.99,-255.41 1227.89,-265.94 1234.7,-264.33"/>
<text text-anchor="middle" x="1241.39" y="-267.4" font-family="Times,serif" font-size="14.00">*0</text>
</g>
<!-- node6&#45;&gt;node17 -->
<g id="edge51" class="edge">
<title>node6&#45;&gt;node17</title>
<path fill="none" stroke="black" d="M1192.61,-589.8C1130.58,-581.79 1053.95,-568.51 987.86,-547 918.88,-524.55 886.61,-531.1 841.86,-474 791.15,-409.3 758.91,-357.29 808.86,-292 882.61,-195.61 1227.52,-134.88 1418.6,-108.05"/>
<polygon fill="black" stroke="black" points="1419.29,-111.48 1428.71,-106.64 1418.32,-104.55 1419.29,-111.48"/>
<text text-anchor="middle" x="1411.92" y="-113.81" font-family="Times,serif" font-size="14.00">*0</text>
</g>
<!-- node11&#45;&gt;node0 -->
<g id="edge23" class="edge">
<title>node11&#45;&gt;node0</title>
<path fill="none" stroke="green" stroke-width="2" d="M1252.64,-692.99C1221.15,-703.22 1179.59,-716.31 1144.55,-727.04"/>
<polygon fill="green" stroke="green" stroke-width="2" points="1143.4,-723.73 1134.85,-729.99 1145.44,-730.42 1143.4,-723.73"/>
</g>
<!-- node11&#45;&gt;node6 -->
<g id="edge12" class="edge">
<title>node11&#45;&gt;node6</title>
<path fill="none" stroke="black" d="M1303.28,-656.81C1304.41,-648.79 1305.78,-639.05 1307.05,-630.07"/>
<polygon fill="black" stroke="black" points="1310.53,-630.42 1308.46,-620.03 1303.6,-629.44 1310.53,-630.42"/>
<text text-anchor="middle" x="1314.31" y="-635.46" font-family="Times,serif" font-size="14.00">*0</text>
</g>
<!-- node11&#45;&gt;node12 -->
<g id="edge28" class="edge">
<title>node11&#45;&gt;node12</title>
<path fill="none" stroke="black" d="M1217.25,-662.57C1189.7,-654.82 1161.21,-641.81 1141.86,-620 1126.75,-602.97 1122.58,-576.99 1121.85,-557.31"/>
<polygon fill="black" stroke="black" points="1125.35,-557.09 1121.75,-547.12 1118.35,-557.16 1125.35,-557.09"/>
<text text-anchor="middle" x="1130.38" y="-561.47" font-family="Times,serif" font-size="14.00">*2</text>
</g>
<!-- node7&#45;&gt;node0 -->
<g id="edge14" class="edge">
<title>node7&#45;&gt;node0</title>
<path fill="none" stroke="green" stroke-width="2" d="M670.28,-691.49C692.69,-698.78 719.37,-706.96 743.86,-712 823.33,-728.36 914.9,-737.22 981.61,-741.94"/>
<polygon fill="green" stroke="green" stroke-width="2" points="981.46,-745.44 991.68,-742.63 981.94,-738.45 981.46,-745.44"/>
</g>
<!-- node7&#45;&gt;node8 -->
<g id="edge18" class="edge">
<title>node7&#45;&gt;node8</title>
<path fill="none" stroke="black" d="M595.43,-656.99C582.03,-647.67 565.23,-635.97 550.7,-625.86"/>
<polygon fill="black" stroke="black" points="552.65,-622.95 542.45,-620.11 548.66,-628.7 552.65,-622.95"/>
<text text-anchor="middle" x="562.15" y="-619.83" font-family="Times,serif" font-size="14.00">*1</text>
</g>
<!-- node8&#45;&gt;node0 -->
<g id="edge16" class="edge">
<title>node8&#45;&gt;node0</title>
<path fill="none" stroke="green" stroke-width="2" d="M509.54,-620.32C501.23,-640.44 492.03,-673.38 509.86,-693 540.9,-727.15 829.03,-740.23 981.39,-744.8"/>
<polygon fill="green" stroke="green" stroke-width="2" points="981.57,-748.31 991.67,-745.1 981.78,-741.31 981.57,-748.31"/>
</g>
<!-- node19 -->
<g id="node22" class="node">
<title>node19</title>
<polygon fill="lightgrey" stroke="black" points="990.86,-474 850.86,-474 850.86,-438 990.86,-438 990.86,-474"/>
<text text-anchor="middle" x="920.86" y="-452.3" font-family="Times,serif" font-size="14.00">#19 If Order : 13</text>
</g>
<!-- node8&#45;&gt;node19 -->
<g id="edge60" class="edge">
<title>node8&#45;&gt;node19</title>
<path fill="none" stroke="black" d="M565.67,-583.92C640.21,-557.28 783.8,-505.97 863.69,-477.43"/>
<polygon fill="black" stroke="black" points="864.87,-480.72 873.11,-474.06 862.52,-474.13 864.87,-480.72"/>
<text text-anchor="middle" x="858.89" y="-484.42" font-family="Times,serif" font-size="14.00">*0</text>
</g>
<!-- node9&#45;&gt;node0 -->
<g id="edge19" class="edge">
<title>node9&#45;&gt;node0</title>
<path fill="none" stroke="green" stroke-width="2" d="M174.92,-691.82C198.81,-699.34 227.5,-707.62 253.86,-712 391.75,-734.9 796.67,-743.19 981.29,-745.86"/>
<polygon fill="green" stroke="green" stroke-width="2" points="981.47,-749.36 991.52,-746.01 981.57,-742.36 981.47,-749.36"/>
</g>
<!-- node9&#45;&gt;node15 -->
<g id="edge42" class="edge">
<title>node9&#45;&gt;node15</title>
<path fill="none" stroke="black" d="M157.22,-656.86C176.16,-644.76 195.86,-626.51 195.86,-603 195.86,-603 195.86,-603 195.86,-309 195.86,-264.75 809.44,-246.5 1088.99,-240.49"/>
<polygon fill="black" stroke="black" points="1089.28,-243.98 1099.2,-240.27 1089.13,-236.98 1089.28,-243.98"/>
<text text-anchor="middle" x="1081.26" y="-245.41" font-family="Times,serif" font-size="14.00">*2</text>
</g>
<!-- node10&#45;&gt;node0 -->
<g id="edge21" class="edge">
<title>node10&#45;&gt;node0</title>
<path fill="none" stroke="green" stroke-width="2" d="M1654.59,-693.09C1632.07,-700.23 1603.84,-707.83 1577.86,-712 1399.97,-740.58 1351.82,-709.04 1172.86,-730 1171.35,-730.18 1169.82,-730.37 1168.29,-730.56"/>
<polygon fill="green" stroke="green" stroke-width="2" points="1167.44,-727.15 1158.02,-732 1168.41,-734.08 1167.44,-727.15"/>
</g>
<!-- node10&#45;&gt;node13 -->
<g id="edge34" class="edge">
<title>node10&#45;&gt;node13</title>
<path fill="none" stroke="black" d="M1696.86,-656.78C1696.86,-642.41 1696.86,-621.37 1696.86,-603 1696.86,-603 1696.86,-603 1696.86,-382 1696.86,-357.96 1650.74,-341.24 1599.62,-330.1"/>
<polygon fill="black" stroke="black" points="1600.2,-326.64 1589.69,-328.01 1598.76,-333.49 1600.2,-326.64"/>
<text text-anchor="middle" x="1609.17" y="-319.76" font-family="Times,serif" font-size="14.00">*2</text>
</g>
<!-- node12&#45;&gt;node0 -->
<g id="edge25" class="edge">
<title>node12&#45;&gt;node0</title>
<path fill="none" stroke="green" stroke-width="2" d="M1013.04,-547.02C985.69,-552.05 956.57,-558.09 929.86,-565 849.7,-585.75 806.38,-583.7 767.86,-657 760.42,-671.16 757.57,-680.75 767.86,-693 794.81,-725.1 901.51,-738.12 981.61,-743.4"/>
<polygon fill="green" stroke="green" stroke-width="2" points="981.53,-746.91 991.73,-744.04 981.97,-739.92 981.53,-746.91"/>
</g>
<!-- node12&#45;&gt;node13 -->
<g id="edge35" class="edge">
<title>node12&#45;&gt;node13</title>
<path fill="none" stroke="black" d="M1186.65,-510.96C1199.49,-506.16 1212.51,-500.22 1223.86,-493 1300.78,-444.09 1290.18,-395.27 1366.86,-346 1375.24,-340.62 1384.55,-335.93 1394.01,-331.89"/>
<polygon fill="black" stroke="black" points="1395.53,-335.05 1403.49,-328.06 1392.91,-328.56 1395.53,-335.05"/>
</g>
<!-- node12&#45;&gt;node15 -->
<g id="edge43" class="edge">
<title>node12&#45;&gt;node15</title>
<path fill="none" stroke="black" d="M1166.87,-510.94C1188.45,-499.43 1209.86,-481.76 1209.86,-457 1209.86,-457 1209.86,-457 1209.86,-309 1209.86,-294.19 1213.03,-278.01 1216.45,-264.84"/>
<polygon fill="black" stroke="black" points="1219.87,-265.58 1219.19,-255 1213.13,-263.7 1219.87,-265.58"/>
</g>
<!-- node12&#45;&gt;node19 -->
<g id="edge61" class="edge">
<title>node12&#45;&gt;node19</title>
<path fill="none" stroke="red" d="M1074.48,-510.99C1045.83,-500.92 1009.35,-488.1 979.13,-477.48"/>
<polygon fill="red" stroke="red" points="980.15,-474.13 969.55,-474.11 977.82,-480.73 980.15,-474.13"/>
</g>
<!-- node13&#45;&gt;node0 -->
<g id="edge31" class="edge">
<title>node13&#45;&gt;node0</title>
<path fill="none" stroke="green" stroke-width="2" d="M1468.6,-328.3C1478.19,-375.56 1501.45,-510.67 1479.86,-620 1473.07,-654.41 1473.3,-666.9 1449.86,-693 1408.97,-738.54 1243.27,-723.25 1168.17,-729.71"/>
<polygon fill="green" stroke="green" stroke-width="2" points="1167.76,-726.24 1158.19,-730.78 1168.51,-733.2 1167.76,-726.24"/>
</g>
<!-- node14 -->
<g id="node16" class="node">
<title>node14</title>
<polygon fill="lightgrey" stroke="black" points="1546.36,-255 1383.36,-255 1383.36,-219 1546.36,-219 1546.36,-255"/>
<text text-anchor="middle" x="1464.86" y="-233.3" font-family="Times,serif" font-size="14.00">#14 Goto Order : 19</text>
</g>
<!-- node13&#45;&gt;node14 -->
<g id="edge38" class="edge">
<title>node13&#45;&gt;node14</title>
<path fill="none" stroke="red" d="M1458.98,-291.81C1458.14,-283.79 1457.91,-274.05 1458.28,-265.07"/>
<polygon fill="red" stroke="red" points="1461.78,-265.25 1459,-255.03 1454.8,-264.75 1461.78,-265.25"/>
</g>
<!-- node16 -->
<g id="node19" class="node">
<title>node16</title>
<polygon fill="lightgrey" stroke="black" points="1673.86,-182 1419.86,-182 1419.86,-146 1673.86,-146 1673.86,-182"/>
<text text-anchor="middle" x="1546.86" y="-160.3" font-family="Times,serif" font-size="14.00">#16 Merge : Merge30 Order : 20</text>
</g>
<!-- node13&#45;&gt;node16 -->
<g id="edge48" class="edge">
<title>node13&#45;&gt;node16</title>
<path fill="none" stroke="black" d="M1513.49,-291.81C1529.94,-283.4 1546.5,-271.44 1555.86,-255 1566.74,-235.89 1563.03,-210.75 1557.42,-191.9"/>
<polygon fill="black" stroke="black" points="1560.66,-190.55 1554.2,-182.15 1554.02,-192.74 1560.66,-190.55"/>
</g>
<!-- node20 -->
<g id="node15" class="node">
<title>node20</title>
<polygon fill="lightgrey" stroke="black" points="1181.36,-401 1018.36,-401 1018.36,-365 1181.36,-365 1181.36,-401"/>
<text text-anchor="middle" x="1099.86" y="-379.3" font-family="Times,serif" font-size="14.00">#20 false Order : 16</text>
</g>
<!-- node20&#45;&gt;node13 -->
<g id="edge36" class="edge">
<title>node20&#45;&gt;node13</title>
<path fill="none" stroke="red" d="M1178.98,-364.98C1208.14,-358.82 1241.47,-351.94 1271.86,-346 1299.82,-340.54 1330.1,-334.91 1358.22,-329.81"/>
<polygon fill="red" stroke="red" points="1358.85,-333.25 1368.07,-328.03 1357.6,-326.36 1358.85,-333.25"/>
</g>
<!-- node20&#45;&gt;node19 -->
<g id="edge62" class="edge">
<title>node20&#45;&gt;node19</title>
<path fill="none" stroke="green" stroke-width="2" d="M1062.59,-401.11C1038.43,-411.11 1006.54,-423.81 979.1,-434.36"/>
<polygon fill="green" stroke="green" stroke-width="2" points="977.68,-431.15 969.6,-437.99 980.19,-437.69 977.68,-431.15"/>
</g>
<!-- node14&#45;&gt;node13 -->
<g id="edge37" class="edge">
<title>node14&#45;&gt;node13</title>
<path fill="none" stroke="green" stroke-width="2" d="M1470.72,-255.03C1471.57,-263.03 1471.81,-272.77 1471.45,-281.75"/>
<polygon fill="green" stroke="green" stroke-width="2" points="1467.95,-281.59 1470.74,-291.81 1474.93,-282.08 1467.95,-281.59"/>
</g>
<!-- node14&#45;&gt;node16 -->
<g id="edge46" class="edge">
<title>node14&#45;&gt;node16</title>
<path fill="none" stroke="red" d="M1484.71,-218.81C1495.19,-209.74 1508.2,-198.48 1519.61,-188.6"/>
<polygon fill="red" stroke="red" points="1521.93,-191.22 1527.19,-182.03 1517.34,-185.93 1521.93,-191.22"/>
</g>
<!-- node15&#45;&gt;node0 -->
<g id="edge39" class="edge">
<title>node15&#45;&gt;node0</title>
<path fill="none" stroke="green" stroke-width="2" d="M1099.26,-240.94C830.03,-247.72 218.72,-265.9 181.86,-292 34.88,-396.07 45.98,-481.43 5.86,-657 2.3,-672.6 -4.98,-681.23 5.86,-693 75.97,-769.08 134.6,-705.62 237.86,-712 507.48,-728.67 826.45,-739.57 981.24,-744.3"/>
<polygon fill="green" stroke="green" stroke-width="2" points="981.54,-747.82 991.65,-744.62 981.76,-740.82 981.54,-747.82"/>
</g>
<!-- node15&#45;&gt;node16 -->
<g id="edge47" class="edge">
<title>node15&#45;&gt;node16</title>
<path fill="none" stroke="red" d="M1296.13,-218.99C1342.55,-208.51 1403.54,-195.05 1453.77,-184.19"/>
<polygon fill="red" stroke="red" points="1454.63,-187.58 1463.66,-182.05 1453.15,-180.74 1454.63,-187.58"/>
</g>
<!-- node15&#45;&gt;node16 -->
<g id="edge49" class="edge">
<title>node15&#45;&gt;node16</title>
<path fill="none" stroke="black" d="M1307.85,-218.99C1356.39,-208.53 1417.37,-195.11 1465.61,-184.26"/>
<polygon fill="black" stroke="black" points="1466.41,-187.66 1475.39,-182.05 1464.87,-180.84 1466.41,-187.66"/>
</g>
<!-- node22 -->
<g id="node18" class="node">
<title>node22</title>
<polygon fill="lightgrey" stroke="black" points="1023.86,-328 817.86,-328 817.86,-292 1023.86,-292 1023.86,-328"/>
<text text-anchor="middle" x="920.86" y="-306.3" font-family="Times,serif" font-size="14.00">#22 LabelNode Order : 15</text>
</g>
<!-- node22&#45;&gt;node15 -->
<g id="edge44" class="edge">
<title>node22&#45;&gt;node15</title>
<path fill="none" stroke="red" d="M993.68,-291.99C1038.27,-281.58 1095.48,-268.22 1141.83,-257.39"/>
<polygon fill="red" stroke="red" points="1142.91,-260.73 1151.85,-255.05 1141.32,-253.92 1142.91,-260.73"/>
</g>
<!-- node21 -->
<g id="node23" class="node">
<title>node21</title>
<polygon fill="lightgrey" stroke="black" points="1000.36,-401 841.36,-401 841.36,-365 1000.36,-365 1000.36,-401"/>
<text text-anchor="middle" x="920.86" y="-379.3" font-family="Times,serif" font-size="14.00">#21 true Order : 14</text>
</g>
<!-- node22&#45;&gt;node21 -->
<g id="edge66" class="edge">
<title>node22&#45;&gt;node21</title>
<path fill="none" stroke="green" stroke-width="2" d="M926.72,-328.03C927.57,-336.03 927.81,-345.77 927.45,-354.75"/>
<polygon fill="green" stroke="green" stroke-width="2" points="923.95,-354.59 926.74,-364.81 930.93,-355.08 923.95,-354.59"/>
</g>
<!-- node16&#45;&gt;node0 -->
<g id="edge45" class="edge">
<title>node16&#45;&gt;node0</title>
<path fill="none" stroke="green" stroke-width="2" d="M1639.25,-182.01C1724.8,-203.72 1838.86,-250.57 1838.86,-346 1838.86,-676 1838.86,-676 1838.86,-676 1838.86,-748.67 1278.93,-723.26 1168.21,-729.87"/>
<polygon fill="green" stroke="green" stroke-width="2" points="1167.86,-726.39 1158.18,-730.7 1168.44,-733.37 1167.86,-726.39"/>
</g>
<!-- node16&#45;&gt;node17 -->
<g id="edge53" class="edge">
<title>node16&#45;&gt;node17</title>
<path fill="none" stroke="black" d="M1540.98,-145.81C1540.14,-137.79 1539.91,-128.05 1540.28,-119.07"/>
<polygon fill="black" stroke="black" points="1543.78,-119.25 1541,-109.03 1536.8,-118.75 1543.78,-119.25"/>
</g>
<!-- node16&#45;&gt;node17 -->
<g id="edge54" class="edge">
<title>node16&#45;&gt;node17</title>
<path fill="none" stroke="red" d="M1552.74,-145.81C1553.58,-137.79 1553.81,-128.05 1553.44,-119.07"/>
<polygon fill="red" stroke="red" points="1556.93,-118.75 1552.72,-109.03 1549.94,-119.25 1556.93,-118.75"/>
</g>
<!-- node17&#45;&gt;node0 -->
<g id="edge50" class="edge">
<title>node17&#45;&gt;node0</title>
<path fill="none" stroke="green" stroke-width="2" d="M1665.07,-95.52C1759.76,-101.67 1876.86,-118.32 1876.86,-163 1876.86,-676 1876.86,-676 1876.86,-676 1876.86,-723.24 1823.59,-705.07 1776.86,-712 1510.54,-751.49 1436.6,-701.58 1168.22,-729.59"/>
<polygon fill="green" stroke="green" stroke-width="2" points="1167.75,-726.12 1158.18,-730.67 1168.5,-733.08 1167.75,-726.12"/>
</g>
<!-- node18 -->
<g id="node21" class="node">
<title>node18</title>
<polygon fill="lightgrey" stroke="black" points="1672.36,-36 1421.36,-36 1421.36,0 1672.36,0 1672.36,-36"/>
<text text-anchor="middle" x="1546.86" y="-14.3" font-family="Times,serif" font-size="14.00">#18 ReturnValue : int Order : 22</text>
</g>
<!-- node17&#45;&gt;node18 -->
<g id="edge56" class="edge">
<title>node17&#45;&gt;node18</title>
<path fill="none" stroke="black" d="M1529.23,-72.81C1526.71,-64.79 1526.01,-55.05 1527.13,-46.07"/>
<polygon fill="black" stroke="black" points="1530.61,-46.54 1529.28,-36.03 1523.76,-45.07 1530.61,-46.54"/>
<text text-anchor="middle" x="1533.75" y="-51.82" font-family="Times,serif" font-size="14.00">*0</text>
</g>
<!-- node17&#45;&gt;node18 -->
<g id="edge57" class="edge">
<title>node17&#45;&gt;node18</title>
<path fill="none" stroke="red" d="M1552.74,-72.81C1553.58,-64.79 1553.81,-55.05 1553.44,-46.07"/>
<polygon fill="red" stroke="red" points="1556.93,-45.75 1552.72,-36.03 1549.94,-46.25 1556.93,-45.75"/>
</g>
<!-- node17&#45;&gt;node18 -->
<g id="edge58" class="edge">
<title>node17&#45;&gt;node18</title>
<path fill="none" stroke="black" d="M1564.5,-72.81C1567.01,-64.79 1567.71,-55.05 1566.6,-46.07"/>
<polygon fill="black" stroke="black" points="1569.96,-45.07 1564.45,-36.03 1563.12,-46.54 1569.96,-45.07"/>
</g>
<!-- node18&#45;&gt;node17 -->
<g id="edge55" class="edge">
<title>node18&#45;&gt;node17</title>
<path fill="none" stroke="green" stroke-width="2" d="M1541,-36.03C1540.15,-44.03 1539.91,-53.77 1540.28,-62.75"/>
<polygon fill="green" stroke="green" stroke-width="2" points="1536.79,-63.08 1540.98,-72.81 1543.77,-62.59 1536.79,-63.08"/>
</g>
<!-- node19&#45;&gt;node0 -->
<g id="edge59" class="edge">
<title>node19&#45;&gt;node0</title>
<path fill="none" stroke="green" stroke-width="2" d="M850.64,-457.3C680.27,-458.94 258.86,-468.98 258.86,-528 258.86,-676 258.86,-676 258.86,-676 258.86,-771.57 375.58,-704.58 470.86,-712 651.48,-726.07 862.88,-737.07 981.6,-742.75"/>
<polygon fill="green" stroke="green" stroke-width="2" points="981.59,-746.25 991.75,-743.23 981.92,-739.26 981.59,-746.25"/>
</g>
<!-- node19&#45;&gt;node20 -->
<g id="edge63" class="edge">
<title>node19&#45;&gt;node20</title>
<path fill="none" stroke="red" d="M957.88,-437.99C981.98,-428.01 1013.86,-415.32 1041.33,-404.76"/>
<polygon fill="red" stroke="red" points="1042.76,-407.96 1050.85,-401.11 1040.26,-401.42 1042.76,-407.96"/>
</g>
<!-- node19&#45;&gt;node21 -->
<g id="edge65" class="edge">
<title>node19&#45;&gt;node21</title>
<path fill="none" stroke="red" d="M914.98,-437.81C914.14,-429.79 913.91,-420.05 914.28,-411.07"/>
<polygon fill="red" stroke="red" points="917.78,-411.25 915,-401.03 910.8,-410.75 917.78,-411.25"/>
</g>
<!-- node21&#45;&gt;node22 -->
<g id="edge67" class="edge">
<title>node21&#45;&gt;node22</title>
<path fill="none" stroke="red" d="M914.98,-364.81C914.14,-356.79 913.91,-347.05 914.28,-338.07"/>
<polygon fill="red" stroke="red" points="917.78,-338.25 915,-328.03 910.8,-337.75 917.78,-338.25"/>
</g>
<!-- node21&#45;&gt;node19 -->
<g id="edge64" class="edge">
<title>node21&#45;&gt;node19</title>
<path fill="none" stroke="green" stroke-width="2" d="M926.72,-401.03C927.57,-409.03 927.81,-418.77 927.45,-427.75"/>
<polygon fill="green" stroke="green" stroke-width="2" points="923.95,-427.59 926.74,-437.81 930.93,-428.08 923.95,-427.59"/>
</g>
<!-- c0 -->
<!-- c1 -->
<!-- c0&#45;&gt;c1 -->
<g id="edge68" class="edge">
<title>c0&#45;&gt;c1</title>
<path fill="none" stroke="red" d="M1889.75,-748C1900.97,-748 1959.11,-748 1984.72,-748"/>
<polygon fill="red" stroke="red" points="1984.92,-751.5 1994.92,-748 1984.92,-744.5 1984.92,-751.5"/>
<text text-anchor="middle" x="1942.36" y="-754.8" font-family="Times,serif" font-size="14.00">Control flow</text>
</g>
<!-- c2 -->
<!-- c3 -->
<!-- c2&#45;&gt;c3 -->
<g id="edge69" class="edge">
<title>c2&#45;&gt;c3</title>
<path fill="none" stroke="red" stroke-dasharray="5,2" d="M1682.94,-748C1699.91,-748 1816.07,-748 1853.95,-748"/>
<polygon fill="red" stroke="red" points="1854.03,-751.5 1864.03,-748 1854.03,-744.5 1854.03,-751.5"/>
<text text-anchor="middle" x="1773.36" y="-754.8" font-family="Times,serif" font-size="14.00">Control flow back edge</text>
</g>
<!-- d0 -->
<!-- d1 -->
<!-- d0&#45;&gt;d1 -->
<g id="edge70" class="edge">
<title>d0&#45;&gt;d1</title>
<path fill="none" stroke="black" d="M1571.72,-748C1581.27,-748 1625.17,-748 1646.78,-748"/>
<polygon fill="black" stroke="black" points="1647.01,-751.5 1657.01,-748 1647.01,-744.5 1647.01,-751.5"/>
<text text-anchor="middle" x="1614.36" y="-754.8" font-family="Times,serif" font-size="14.00">Data flow</text>
</g>
<!-- d2 -->
<!-- d3 -->
<!-- d2&#45;&gt;d3 -->
<g id="edge71" class="edge">
<title>d2&#45;&gt;d3</title>
<path fill="none" stroke="black" stroke-dasharray="1,5" d="M1445.67,-748C1456.32,-748 1511.33,-748 1535.94,-748"/>
<polygon fill="black" stroke="black" points="1536.01,-751.5 1546.01,-748 1536.01,-744.5 1536.01,-751.5"/>
<text text-anchor="middle" x="1495.86" y="-754.8" font-family="Times,serif" font-size="14.00">Declaration</text>
</g>
<!-- d4 -->
<!-- d5 -->
<!-- d4&#45;&gt;d5 -->
<g id="edge72" class="edge">
<title>d4&#45;&gt;d5</title>
<path fill="none" stroke="blue" d="M1302.96,-748C1315.58,-748 1381.74,-748 1409.54,-748"/>
<polygon fill="blue" stroke="blue" points="1409.7,-751.5 1419.7,-748 1409.7,-744.5 1409.7,-751.5"/>
<text text-anchor="middle" x="1361.36" y="-754.8" font-family="Times,serif" font-size="14.00">PHI Data flow</text>
</g>
<!-- d6 -->
<!-- d7 -->
<!-- d6&#45;&gt;d7 -->
<g id="edge73" class="edge">
<title>d6&#45;&gt;d7</title>
<path fill="none" stroke="green" d="M1179.97,-748C1191.01,-748 1242.53,-748 1266.52,-748"/>
<polygon fill="green" stroke="green" points="1266.76,-751.5 1276.76,-748 1266.76,-744.5 1266.76,-751.5"/>
<text text-anchor="middle" x="1228.36" y="-754.8" font-family="Times,serif" font-size="14.00">Dominance</text>
</g>
</g>
</svg>
