<?xml version="1.0" encoding="UTF-8" standalone="no"?>
<!DOCTYPE svg PUBLIC "-//W3C//DTD SVG 1.1//EN"
 "http://www.w3.org/Graphics/SVG/1.1/DTD/svg11.dtd">
<!-- Generated by graphviz version 2.43.0 (0)
 -->
<!-- Title: debugoutput Pages: 1 -->
<svg width="2047pt" height="943pt"
 viewBox="0.00 0.00 2046.53 942.80" xmlns="http://www.w3.org/2000/svg" xmlns:xlink="http://www.w3.org/1999/xlink">
<g id="graph0" class="graph" transform="scale(1 1) rotate(0) translate(4 938.8)">
<title>debugoutput</title>
<polygon fill="white" stroke="transparent" points="-4,4 -4,-938.8 2042.53,-938.8 2042.53,4 -4,4"/>
<g id="clust1" class="cluster">
<title>cluster_000</title>
<polygon fill="none" stroke="black" points="1054.53,-884.2 1054.53,-926.8 2030.53,-926.8 2030.53,-884.2 1054.53,-884.2"/>
<text text-anchor="middle" x="1542.53" y="-911.6" font-family="Times,serif" font-size="14.00">Legend</text>
</g>
<!-- node0 -->
<g id="node1" class="node">
<title>node0</title>
<polygon fill="lightgrey" stroke="black" points="1044.53,-912 878.53,-912 878.53,-876 1044.53,-876 1044.53,-912"/>
<text text-anchor="middle" x="961.53" y="-890.3" font-family="Times,serif" font-size="14.00">#0 Method Order : 0</text>
</g>
<!-- node1 -->
<g id="node2" class="node">
<title>node1</title>
<polygon fill="lightgrey" stroke="black" points="745.03,-839 568.03,-839 568.03,-803 745.03,-803 745.03,-839"/>
<text text-anchor="middle" x="656.53" y="-817.3" font-family="Times,serif" font-size="14.00">#1 arg1 : int Order : 8</text>
</g>
<!-- node0&#45;&gt;node1 -->
<g id="edge2" class="edge">
<title>node0&#45;&gt;node1</title>
<path fill="none" stroke="black" d="M878.11,-883.1C838.65,-877.26 791.23,-868.87 749.53,-858 733.43,-853.8 716.26,-848.2 701.06,-842.67"/>
<polygon fill="black" stroke="black" points="701.98,-839.27 691.38,-839.05 699.53,-845.83 701.98,-839.27"/>
<text text-anchor="middle" x="711.32" y="-833.77" font-family="Times,serif" font-size="14.00">*0</text>
</g>
<!-- node2 -->
<g id="node3" class="node">
<title>node2</title>
<polygon fill="lightgrey" stroke="black" points="513.03,-839 336.03,-839 336.03,-803 513.03,-803 513.03,-839"/>
<text text-anchor="middle" x="424.53" y="-817.3" font-family="Times,serif" font-size="14.00">#2 arg0 : int Order : 7</text>
</g>
<!-- node0&#45;&gt;node2 -->
<g id="edge4" class="edge">
<title>node0&#45;&gt;node2</title>
<path fill="none" stroke="black" d="M878.32,-892.8C788.25,-891.2 641.1,-884.31 517.53,-858 500.34,-854.34 482.09,-848.55 466.29,-842.67"/>
<polygon fill="black" stroke="black" points="467.39,-839.34 456.8,-839.01 464.87,-845.87 467.39,-839.34"/>
<text text-anchor="middle" x="476.75" y="-833.94" font-family="Times,serif" font-size="14.00">*0</text>
</g>
<!-- node3 -->
<g id="node4" class="node">
<title>node3</title>
<polygon fill="lightgrey" stroke="black" points="1351.03,-839 1174.03,-839 1174.03,-803 1351.03,-803 1351.03,-839"/>
<text text-anchor="middle" x="1262.53" y="-817.3" font-family="Times,serif" font-size="14.00">#3 arg2 : int Order : 6</text>
</g>
<!-- node0&#45;&gt;node3 -->
<g id="edge6" class="edge">
<title>node0&#45;&gt;node3</title>
<path fill="none" stroke="black" d="M1041.82,-875.95C1090.36,-867.36 1103.63,-870.27 1151.53,-858 1167.88,-853.81 1185.31,-848.13 1201.45,-842.52"/>
<polygon fill="black" stroke="black" points="1203.04,-845.67 1211.31,-839.05 1200.71,-839.07 1203.04,-845.67"/>
<text text-anchor="middle" x="1197.02" y="-849.34" font-family="Times,serif" font-size="14.00">*0</text>
</g>
<!-- node4 -->
<g id="node5" class="node">
<title>node4</title>
<polygon fill="lightgrey" stroke="black" points="1055.53,-839 867.53,-839 867.53,-803 1055.53,-803 1055.53,-839"/>
<text text-anchor="middle" x="961.53" y="-817.3" font-family="Times,serif" font-size="14.00">#4 LabelNode Order : 1</text>
</g>
<!-- node0&#45;&gt;node4 -->
<g id="edge8" class="edge">
<title>node0&#45;&gt;node4</title>
<path fill="none" stroke="red" d="M955.65,-875.81C954.81,-867.79 954.58,-858.05 954.95,-849.07"/>
<polygon fill="red" stroke="red" points="958.45,-849.25 955.67,-839.03 951.47,-848.75 958.45,-849.25"/>
</g>
<!-- node9 -->
<g id="node10" class="node">
<title>node9</title>
<polygon fill="orange" stroke="black" points="1143.42,-667.54 1143.42,-682.46 1049.76,-693 917.3,-693 823.64,-682.46 823.64,-667.54 917.3,-657 1049.76,-657 1143.42,-667.54"/>
<text text-anchor="middle" x="983.53" y="-671.3" font-family="Times,serif" font-size="14.00">#9 NewArray : int[] Order : 3</text>
</g>
<!-- node0&#45;&gt;node9 -->
<g id="edge21" class="edge">
<title>node0&#45;&gt;node9</title>
<path fill="none" stroke="green" d="M1006.49,-875.96C1024.22,-867.58 1043.19,-855.62 1055.53,-839 1075.22,-812.48 1066.41,-798.89 1069.53,-766 1071.04,-750.07 1077.58,-743.83 1069.53,-730 1061.63,-716.41 1048.89,-705.97 1035.58,-698.05"/>
<polygon fill="green" stroke="green" points="1037.24,-694.97 1026.79,-693.2 1033.86,-701.1 1037.24,-694.97"/>
</g>
<!-- node1&#45;&gt;node0 -->
<g id="edge1" class="edge">
<title>node1&#45;&gt;node0</title>
<path fill="none" stroke="fuchsia" stroke-width="2" d="M708.03,-839.05C726.68,-845.68 747.9,-852.88 767.53,-858 800.01,-866.47 835.95,-873.43 868.01,-878.85"/>
<polygon fill="fuchsia" stroke="fuchsia" stroke-width="2" points="867.84,-882.37 878.28,-880.56 868.99,-875.47 867.84,-882.37"/>
</g>
<!-- node5 -->
<g id="node6" class="node">
<title>node5</title>
<polygon fill="orange" stroke="black" points="1511.69,-740.54 1511.69,-755.46 1437.2,-766 1331.86,-766 1257.37,-755.46 1257.37,-740.54 1331.86,-730 1437.2,-730 1511.69,-740.54"/>
<text text-anchor="middle" x="1384.53" y="-744.3" font-family="Times,serif" font-size="14.00">#5 Add : int Order : 18</text>
</g>
<!-- node1&#45;&gt;node5 -->
<g id="edge10" class="edge">
<title>node1&#45;&gt;node5</title>
<path fill="none" stroke="black" d="M745.07,-811.36C877.36,-798.46 1126.56,-774.16 1271.73,-760"/>
<polygon fill="black" stroke="black" points="1272.38,-763.45 1281.99,-759 1271.7,-756.49 1272.38,-763.45"/>
<text text-anchor="middle" x="1264.77" y="-765.47" font-family="Times,serif" font-size="14.00">*0</text>
</g>
<!-- node6 -->
<g id="node7" class="node">
<title>node6</title>
<polygon fill="orange" stroke="black" points="553.53,-740.54 553.53,-755.46 482.65,-766 382.41,-766 311.53,-755.46 311.53,-740.54 382.41,-730 482.65,-730 553.53,-740.54"/>
<text text-anchor="middle" x="432.53" y="-744.3" font-family="Times,serif" font-size="14.00">#6 Sub : int Order : 9</text>
</g>
<!-- node1&#45;&gt;node6 -->
<g id="edge13" class="edge">
<title>node1&#45;&gt;node6</title>
<path fill="none" stroke="black" d="M602.88,-802.99C570.48,-792.73 529.05,-779.59 495.16,-768.85"/>
<polygon fill="black" stroke="black" points="495.95,-765.43 485.36,-765.74 493.83,-772.1 495.95,-765.43"/>
<text text-anchor="middle" x="505.19" y="-759.46" font-family="Times,serif" font-size="14.00">*0</text>
</g>
<!-- node11 -->
<g id="node12" class="node">
<title>node11</title>
<polygon fill="lightgrey" stroke="black" points="726.03,-620 475.03,-620 475.03,-584 726.03,-584 726.03,-620"/>
<text text-anchor="middle" x="600.53" y="-598.3" font-family="Times,serif" font-size="14.00">#11 ArrayStore : int[] Order : 10</text>
</g>
<!-- node1&#45;&gt;node11 -->
<g id="edge26" class="edge">
<title>node1&#45;&gt;node11</title>
<path fill="none" stroke="black" d="M640.49,-802.87C618.53,-779.73 579.86,-740.21 562.53,-730 539.27,-716.3 524.11,-730.58 504.53,-712 498,-705.8 499.11,-701.86 497.53,-693 493.24,-668.94 483.3,-657.87 497.53,-638 500.83,-633.39 504.77,-629.39 509.16,-625.9"/>
<polygon fill="black" stroke="black" points="511.23,-628.72 517.49,-620.17 507.27,-622.95 511.23,-628.72"/>
<text text-anchor="middle" x="507.34" y="-633.71" font-family="Times,serif" font-size="14.00">*1</text>
</g>
<!-- node2&#45;&gt;node0 -->
<g id="edge3" class="edge">
<title>node2&#45;&gt;node0</title>
<path fill="none" stroke="fuchsia" stroke-width="2" d="M473.25,-839.01C492.47,-846.05 514.78,-853.58 535.53,-858 648.51,-882.06 781.21,-889.87 868.16,-892.26"/>
<polygon fill="fuchsia" stroke="fuchsia" stroke-width="2" points="868.19,-895.76 878.27,-892.52 868.37,-888.76 868.19,-895.76"/>
</g>
<!-- node13 -->
<g id="node14" class="node">
<title>node13</title>
<polygon fill="orange" stroke="black" points="415.09,-448.54 415.09,-463.46 293.5,-474 121.56,-474 -0.03,-463.46 -0.03,-448.54 121.56,-438 293.5,-438 415.09,-448.54"/>
<text text-anchor="middle" x="207.53" y="-452.3" font-family="Times,serif" font-size="14.00">#13 NumericCondition : EQ Order : 12</text>
</g>
<!-- node2&#45;&gt;node13 -->
<g id="edge33" class="edge">
<title>node2&#45;&gt;node13</title>
<path fill="none" stroke="black" d="M335.82,-816.72C290.81,-809.75 245.53,-792.04 245.53,-749 245.53,-749 245.53,-749 245.53,-528 245.53,-511.53 237.48,-495.18 228.79,-482.33"/>
<polygon fill="black" stroke="black" points="231.48,-480.07 222.77,-474.04 225.81,-484.18 231.48,-480.07"/>
<text text-anchor="middle" x="240.26" y="-480.03" font-family="Times,serif" font-size="14.00">*0</text>
</g>
<!-- node3&#45;&gt;node0 -->
<g id="edge5" class="edge">
<title>node3&#45;&gt;node0</title>
<path fill="none" stroke="fuchsia" stroke-width="2" d="M1227.7,-839.14C1210.4,-845.77 1189.18,-852.97 1169.53,-858 1121.54,-870.29 1108.31,-867.35 1059.53,-876 1058.03,-876.27 1056.52,-876.54 1054.99,-876.81"/>
<polygon fill="fuchsia" stroke="fuchsia" stroke-width="2" points="1054,-873.43 1044.79,-878.66 1055.25,-880.32 1054,-873.43"/>
</g>
<!-- node3&#45;&gt;node5 -->
<g id="edge11" class="edge">
<title>node3&#45;&gt;node5</title>
<path fill="none" stroke="black" d="M1291.75,-802.99C1308.08,-793.49 1328.62,-781.54 1346.23,-771.29"/>
<polygon fill="black" stroke="black" points="1348.24,-774.17 1355.12,-766.11 1344.72,-768.12 1348.24,-774.17"/>
<text text-anchor="middle" x="1343.71" y="-778.84" font-family="Times,serif" font-size="14.00">*1</text>
</g>
<!-- node3&#45;&gt;node6 -->
<g id="edge14" class="edge">
<title>node3&#45;&gt;node6</title>
<path fill="none" stroke="black" d="M1173.82,-812.38C1139.66,-809.44 1100.28,-806.06 1064.53,-803 883.73,-787.51 673.82,-769.59 547.19,-758.78"/>
<polygon fill="black" stroke="black" points="547.35,-755.28 537.09,-757.92 546.76,-762.26 547.35,-755.28"/>
<text text-anchor="middle" x="555.87" y="-747.34" font-family="Times,serif" font-size="14.00">*1</text>
</g>
<!-- node16 -->
<g id="node17" class="node">
<title>node16</title>
<polygon fill="lightgrey" stroke="black" points="1489.03,-255 1238.03,-255 1238.03,-219 1489.03,-219 1489.03,-255"/>
<text text-anchor="middle" x="1363.53" y="-233.3" font-family="Times,serif" font-size="14.00">#16 ArrayStore : int[] Order : 19</text>
</g>
<!-- node3&#45;&gt;node16 -->
<g id="edge42" class="edge">
<title>node3&#45;&gt;node16</title>
<path fill="none" stroke="black" d="M1256.89,-802.7C1253.76,-792.21 1250.17,-778.48 1248.53,-766 1241.17,-710.04 1247.53,-695.45 1247.53,-639 1247.53,-639 1247.53,-639 1247.53,-309 1247.53,-285.86 1264.53,-270.03 1285.51,-259.31"/>
<polygon fill="black" stroke="black" points="1287.13,-262.42 1294.71,-255.02 1284.17,-256.07 1287.13,-262.42"/>
<text text-anchor="middle" x="1281.86" y="-266.64" font-family="Times,serif" font-size="14.00">*1</text>
</g>
<!-- node20 -->
<g id="node21" class="node">
<title>node20</title>
<polygon fill="lightgrey" stroke="black" points="1164.03,-182 913.03,-182 913.03,-146 1164.03,-146 1164.03,-182"/>
<text text-anchor="middle" x="1038.53" y="-160.3" font-family="Times,serif" font-size="14.00">#20 ArrayStore : int[] Order : 17</text>
</g>
<!-- node3&#45;&gt;node20 -->
<g id="edge54" class="edge">
<title>node3&#45;&gt;node20</title>
<path fill="none" stroke="black" d="M1253.78,-802.52C1238.72,-770.78 1209.53,-701.21 1209.53,-639 1209.53,-639 1209.53,-639 1209.53,-236 1209.53,-211.67 1194.58,-195.52 1173.53,-184.84"/>
<polygon fill="black" stroke="black" points="1174.71,-181.53 1164.15,-180.59 1171.82,-187.91 1174.71,-181.53"/>
<text text-anchor="middle" x="1184.15" y="-176.68" font-family="Times,serif" font-size="14.00">*1</text>
</g>
<!-- node22 -->
<g id="node23" class="node">
<title>node22</title>
<polygon fill="lightgrey" stroke="black" points="1587.53,-620 1351.53,-620 1351.53,-584 1587.53,-584 1587.53,-620"/>
<text text-anchor="middle" x="1469.53" y="-598.3" font-family="Times,serif" font-size="14.00">#22 ArrayLoad : int Order : 22</text>
</g>
<!-- node3&#45;&gt;node22 -->
<g id="edge65" class="edge">
<title>node3&#45;&gt;node22</title>
<path fill="none" stroke="black" d="M1351.15,-813.2C1417.12,-806.08 1499.29,-792.15 1520.53,-766 1553.62,-725.26 1516.57,-662.94 1490.56,-628.35"/>
<polygon fill="black" stroke="black" points="1493.12,-625.94 1484.23,-620.18 1487.59,-630.23 1493.12,-625.94"/>
<text text-anchor="middle" x="1502.01" y="-625.63" font-family="Times,serif" font-size="14.00">*1</text>
</g>
<!-- node4&#45;&gt;node0 -->
<g id="edge7" class="edge">
<title>node4&#45;&gt;node0</title>
<path fill="none" stroke="fuchsia" stroke-width="2" d="M967.39,-839.03C968.24,-847.03 968.48,-856.77 968.12,-865.75"/>
<polygon fill="fuchsia" stroke="fuchsia" stroke-width="2" points="964.62,-865.59 967.41,-875.81 971.6,-866.08 964.62,-865.59"/>
</g>
<!-- node7 -->
<g id="node8" class="node">
<title>node7</title>
<polygon fill="lightgrey" stroke="black" points="835.53,-766 647.53,-766 647.53,-730 835.53,-730 835.53,-766"/>
<text text-anchor="middle" x="741.53" y="-744.3" font-family="Times,serif" font-size="14.00">#7 LabelNode Order : 4</text>
</g>
<!-- node4&#45;&gt;node7 -->
<g id="edge16" class="edge">
<title>node4&#45;&gt;node7</title>
<path fill="none" stroke="red" d="M902.98,-802.99C870.57,-792.88 830.52,-779.99 798.39,-769.34"/>
<polygon fill="red" stroke="red" points="799.28,-765.95 788.69,-766.11 797.07,-772.59 799.28,-765.95"/>
</g>
<!-- node8 -->
<g id="node9" class="node">
<title>node8</title>
<polygon fill="lightgreen" stroke="black" points="1069.3,-740.54 1069.3,-755.46 1006.17,-766 916.89,-766 853.76,-755.46 853.76,-740.54 916.89,-730 1006.17,-730 1069.3,-740.54"/>
<text text-anchor="middle" x="961.53" y="-744.3" font-family="Times,serif" font-size="14.00">#8 int 10 Order : 2</text>
</g>
<!-- node4&#45;&gt;node8 -->
<g id="edge18" class="edge">
<title>node4&#45;&gt;node8</title>
<path fill="none" stroke="black" stroke-dasharray="1,5" d="M955.65,-802.81C954.81,-794.79 954.58,-785.05 954.95,-776.07"/>
<polygon fill="black" stroke="black" points="958.45,-776.25 955.67,-766.03 951.47,-775.75 958.45,-776.25"/>
</g>
<!-- node5&#45;&gt;node0 -->
<g id="edge9" class="edge">
<title>node5&#45;&gt;node0</title>
<path fill="none" stroke="fuchsia" stroke-width="2" d="M1385.26,-766.18C1385.11,-786.81 1381.42,-820.88 1360.53,-839 1310.37,-882.51 1135.08,-866.9 1055.06,-875.57"/>
<polygon fill="fuchsia" stroke="fuchsia" stroke-width="2" points="1054.34,-872.14 1044.88,-876.9 1055.25,-879.08 1054.34,-872.14"/>
</g>
<!-- node5&#45;&gt;node16 -->
<g id="edge43" class="edge">
<title>node5&#45;&gt;node16</title>
<path fill="none" stroke="black" d="M1357.6,-729.95C1341.26,-717.31 1323.53,-698.43 1323.53,-676 1323.53,-676 1323.53,-676 1323.53,-309 1323.53,-292.45 1331.89,-276.19 1340.96,-263.42"/>
<polygon fill="black" stroke="black" points="1343.97,-265.25 1347.26,-255.18 1338.41,-261 1343.97,-265.25"/>
<text text-anchor="middle" x="1342.97" y="-271.01" font-family="Times,serif" font-size="14.00">*2</text>
</g>
<!-- node6&#45;&gt;node0 -->
<g id="edge12" class="edge">
<title>node6&#45;&gt;node0</title>
<path fill="none" stroke="fuchsia" stroke-width="2" d="M374.72,-764.98C356.04,-773.18 337.38,-785.3 326.53,-803 318.17,-816.64 315.78,-827.15 326.53,-839 362.15,-878.28 700.53,-889.01 868.24,-891.93"/>
<polygon fill="fuchsia" stroke="fuchsia" stroke-width="2" points="868.24,-895.43 878.3,-892.09 868.36,-888.43 868.24,-895.43"/>
</g>
<!-- node6&#45;&gt;node20 -->
<g id="edge55" class="edge">
<title>node6&#45;&gt;node20</title>
<path fill="none" stroke="black" d="M411.33,-729.76C397.7,-716.64 382.53,-697.26 382.53,-676 382.53,-676 382.53,-676 382.53,-565 382.53,-375.92 767.53,-573.08 767.53,-384 767.53,-384 767.53,-384 767.53,-236 767.53,-204.88 835.23,-187.13 902.96,-177.16"/>
<polygon fill="black" stroke="black" points="903.54,-180.62 912.95,-175.75 902.55,-173.69 903.54,-180.62"/>
<text text-anchor="middle" x="896.19" y="-182.96" font-family="Times,serif" font-size="14.00">*2</text>
</g>
<!-- node7&#45;&gt;node4 -->
<g id="edge15" class="edge">
<title>node7&#45;&gt;node4</title>
<path fill="none" stroke="fuchsia" stroke-width="2" d="M800.43,-766.11C832.89,-776.25 872.94,-789.14 905.01,-799.77"/>
<polygon fill="fuchsia" stroke="fuchsia" stroke-width="2" points="904.1,-803.16 914.69,-802.99 906.31,-796.52 904.1,-803.16"/>
</g>
<!-- node10 -->
<g id="node11" class="node">
<title>node10</title>
<polygon fill="lightgreen" stroke="black" points="805.46,-667.54 805.46,-682.46 738.72,-693 644.34,-693 577.6,-682.46 577.6,-667.54 644.34,-657 738.72,-657 805.46,-667.54"/>
<text text-anchor="middle" x="691.53" y="-671.3" font-family="Times,serif" font-size="14.00">#10 int 10 Order : 5</text>
</g>
<!-- node7&#45;&gt;node10 -->
<g id="edge23" class="edge">
<title>node7&#45;&gt;node10</title>
<path fill="none" stroke="black" stroke-dasharray="1,5" d="M723.55,-729.81C716.71,-721.35 709.19,-710.98 703.06,-701.61"/>
<polygon fill="black" stroke="black" points="705.95,-699.63 697.66,-693.03 700.02,-703.36 705.95,-699.63"/>
</g>
<!-- node7&#45;&gt;node11 -->
<g id="edge29" class="edge">
<title>node7&#45;&gt;node11</title>
<path fill="none" stroke="red" d="M654.98,-730C617.46,-720.7 579.58,-708.02 568.53,-693 554.39,-673.77 566.27,-647.71 579.38,-628.58"/>
<polygon fill="red" stroke="red" points="582.33,-630.47 585.4,-620.33 576.68,-626.34 582.33,-630.47"/>
</g>
<!-- node8&#45;&gt;node4 -->
<g id="edge17" class="edge">
<title>node8&#45;&gt;node4</title>
<path fill="none" stroke="fuchsia" stroke-width="2" d="M967.39,-766.03C968.24,-774.03 968.48,-783.77 968.12,-792.75"/>
<polygon fill="fuchsia" stroke="fuchsia" stroke-width="2" points="964.62,-792.59 967.41,-802.81 971.6,-793.08 964.62,-792.59"/>
</g>
<!-- node8&#45;&gt;node9 -->
<g id="edge20" class="edge">
<title>node8&#45;&gt;node9</title>
<path fill="none" stroke="black" d="M966.86,-729.81C969.37,-721.7 972.43,-711.84 975.23,-702.78"/>
<polygon fill="black" stroke="black" points="978.64,-703.62 978.25,-693.03 971.95,-701.54 978.64,-703.62"/>
<text text-anchor="middle" x="980.96" y="-709.14" font-family="Times,serif" font-size="14.00">*0</text>
</g>
<!-- node9&#45;&gt;node0 -->
<g id="edge19" class="edge">
<title>node9&#45;&gt;node0</title>
<path fill="none" stroke="fuchsia" stroke-width="2" d="M1043.43,-693.08C1060.91,-701.42 1077.85,-713.36 1087.53,-730 1095.58,-743.83 1089.04,-750.07 1087.53,-766 1084.41,-798.89 1093.22,-812.48 1073.53,-839 1063.22,-852.89 1048.27,-863.53 1032.61,-871.54"/>
<polygon fill="fuchsia" stroke="fuchsia" stroke-width="2" points="1030.85,-868.5 1023.33,-875.96 1033.86,-874.82 1030.85,-868.5"/>
</g>
<!-- node9&#45;&gt;node11 -->
<g id="edge25" class="edge">
<title>node9&#45;&gt;node11</title>
<path fill="none" stroke="black" d="M897.63,-659.12C837.99,-648.31 758.53,-633.61 696.77,-621.96"/>
<polygon fill="black" stroke="black" points="697.1,-618.46 686.62,-620.05 695.8,-625.34 697.1,-618.46"/>
<text text-anchor="middle" x="706" y="-611.4" font-family="Times,serif" font-size="14.00">*0</text>
</g>
<!-- node9&#45;&gt;node11 -->
<g id="edge28" class="edge">
<title>node9&#45;&gt;node11</title>
<path fill="none" stroke="green" d="M904.71,-658.33C847.95,-647.57 770.74,-633.24 708.3,-621.86"/>
<polygon fill="green" stroke="green" points="708.87,-618.4 698.41,-620.06 707.62,-625.29 708.87,-618.4"/>
</g>
<!-- node9&#45;&gt;node16 -->
<g id="edge41" class="edge">
<title>node9&#45;&gt;node16</title>
<path fill="none" stroke="black" d="M1037.92,-656.95C1061.37,-645.89 1083.53,-628.66 1083.53,-603 1083.53,-603 1083.53,-603 1083.53,-492 1083.53,-374.02 1137.28,-341.22 1233.53,-273 1241.31,-267.48 1249.92,-262.83 1258.89,-258.92"/>
<polygon fill="black" stroke="black" points="1260.39,-262.09 1268.35,-255.1 1257.77,-255.6 1260.39,-262.09"/>
<text text-anchor="middle" x="1254.71" y="-266.02" font-family="Times,serif" font-size="14.00">*0</text>
</g>
<!-- node9&#45;&gt;node20 -->
<g id="edge53" class="edge">
<title>node9&#45;&gt;node20</title>
<path fill="none" stroke="black" d="M982.77,-656.79C982.21,-642.41 981.53,-621.37 981.53,-603 981.53,-603 981.53,-603 981.53,-236 981.53,-217.63 993.27,-201.31 1006.1,-188.96"/>
<polygon fill="black" stroke="black" points="1008.58,-191.44 1013.7,-182.17 1003.91,-186.23 1008.58,-191.44"/>
<text text-anchor="middle" x="1005.82" y="-196.85" font-family="Times,serif" font-size="14.00">*0</text>
</g>
<!-- node9&#45;&gt;node22 -->
<g id="edge64" class="edge">
<title>node9&#45;&gt;node22</title>
<path fill="none" stroke="black" d="M1078.1,-660.18C1153.59,-649.16 1260.07,-633.6 1342.91,-621.5"/>
<polygon fill="black" stroke="black" points="1343.51,-624.95 1352.9,-620.04 1342.49,-618.02 1343.51,-624.95"/>
<text text-anchor="middle" x="1336.18" y="-627.32" font-family="Times,serif" font-size="14.00">*0</text>
</g>
<!-- node10&#45;&gt;node7 -->
<g id="edge22" class="edge">
<title>node10&#45;&gt;node7</title>
<path fill="none" stroke="fuchsia" stroke-width="2" d="M709.38,-693.03C716.22,-701.46 723.74,-711.83 729.89,-721.21"/>
<polygon fill="fuchsia" stroke="fuchsia" stroke-width="2" points="727.02,-723.22 735.3,-729.81 732.94,-719.49 727.02,-723.22"/>
</g>
<!-- node10&#45;&gt;node11 -->
<g id="edge27" class="edge">
<title>node10&#45;&gt;node11</title>
<path fill="none" stroke="black" d="M669.5,-656.81C657.77,-647.66 643.16,-636.26 630.41,-626.32"/>
<polygon fill="black" stroke="black" points="632.39,-623.42 622.36,-620.03 628.09,-628.94 632.39,-623.42"/>
<text text-anchor="middle" x="641.85" y="-620.81" font-family="Times,serif" font-size="14.00">*2</text>
</g>
<!-- node11&#45;&gt;node0 -->
<g id="edge24" class="edge">
<title>node11&#45;&gt;node0</title>
<path fill="none" stroke="fuchsia" stroke-width="2" d="M584.04,-620.23C579.13,-625.72 573.9,-631.94 569.53,-638 554.95,-658.22 548.47,-670.19 558.53,-693 559.74,-695.75 635.93,-764.49 638.53,-766 684.98,-792.93 703.28,-784.09 753.53,-803 810.36,-824.38 874.27,-852.69 916.06,-871.81"/>
<polygon fill="fuchsia" stroke="fuchsia" stroke-width="2" points="914.6,-874.99 925.15,-875.98 917.52,-868.63 914.6,-874.99"/>
</g>
<!-- node12 -->
<g id="node13" class="node">
<title>node12</title>
<polygon fill="lightgreen" stroke="black" points="714.46,-521.54 714.46,-536.46 647.72,-547 553.34,-547 486.6,-536.46 486.6,-521.54 553.34,-511 647.72,-511 714.46,-521.54"/>
<text text-anchor="middle" x="600.53" y="-525.3" font-family="Times,serif" font-size="14.00">#12 int 0 Order : 11</text>
</g>
<!-- node11&#45;&gt;node12 -->
<g id="edge31" class="edge">
<title>node11&#45;&gt;node12</title>
<path fill="none" stroke="black" stroke-dasharray="1,5" d="M594.65,-583.81C593.81,-575.79 593.58,-566.05 593.95,-557.07"/>
<polygon fill="black" stroke="black" points="597.45,-557.25 594.67,-547.03 590.47,-556.75 597.45,-557.25"/>
</g>
<!-- node14 -->
<g id="node15" class="node">
<title>node14</title>
<polygon fill="lightgrey" stroke="black" points="548.53,-401 408.53,-401 408.53,-365 548.53,-365 548.53,-401"/>
<text text-anchor="middle" x="478.53" y="-379.3" font-family="Times,serif" font-size="14.00">#14 If Order : 13</text>
</g>
<!-- node11&#45;&gt;node14 -->
<g id="edge37" class="edge">
<title>node11&#45;&gt;node14</title>
<path fill="none" stroke="red" d="M675.42,-583.96C694.27,-575.93 712.31,-564.18 723.53,-547 732.28,-533.6 731.84,-524.67 723.53,-511 687.83,-452.28 615.21,-419.49 558.25,-402.01"/>
<polygon fill="red" stroke="red" points="559.12,-398.61 548.54,-399.12 557.13,-405.32 559.12,-398.61"/>
</g>
<!-- node11&#45;&gt;node16 -->
<g id="edge44" class="edge">
<title>node11&#45;&gt;node16</title>
<path fill="none" stroke="green" d="M493.25,-583.84C474.04,-575.8 456.38,-564.07 444.53,-547 430.26,-526.45 437.17,-507.85 456.53,-492 526.83,-434.41 560.88,-446.41 647.53,-419 708.65,-399.67 1111.25,-300.08 1284.49,-257.42"/>
<polygon fill="green" stroke="green" points="1285.44,-260.79 1294.32,-255 1283.77,-254 1285.44,-260.79"/>
</g>
<!-- node11&#45;&gt;node20 -->
<g id="edge56" class="edge">
<title>node11&#45;&gt;node20</title>
<path fill="none" stroke="green" d="M525.64,-583.96C506.79,-575.93 488.75,-564.18 477.53,-547 468.78,-533.6 468.24,-524.03 477.53,-511 499.3,-480.47 764.62,-420.68 796.53,-401 892.9,-341.59 981.45,-237.7 1019.24,-190.11"/>
<polygon fill="green" stroke="green" points="1022.06,-192.19 1025.49,-182.16 1016.56,-187.86 1022.06,-192.19"/>
</g>
<!-- node12&#45;&gt;node11 -->
<g id="edge30" class="edge">
<title>node12&#45;&gt;node11</title>
<path fill="none" stroke="fuchsia" stroke-width="2" d="M606.39,-547.03C607.24,-555.03 607.48,-564.77 607.12,-573.75"/>
<polygon fill="fuchsia" stroke="fuchsia" stroke-width="2" points="603.62,-573.59 606.41,-583.81 610.6,-574.08 603.62,-573.59"/>
</g>
<!-- node12&#45;&gt;node13 -->
<g id="edge34" class="edge">
<title>node12&#45;&gt;node13</title>
<path fill="none" stroke="black" d="M527.99,-514.89C466.48,-503.78 377.57,-487.72 308.99,-475.33"/>
<polygon fill="black" stroke="black" points="309.49,-471.86 299.03,-473.53 308.25,-478.75 309.49,-471.86"/>
<text text-anchor="middle" x="318.37" y="-464.74" font-family="Times,serif" font-size="14.00">*1</text>
</g>
<!-- node13&#45;&gt;node0 -->
<g id="edge32" class="edge">
<title>node13&#45;&gt;node0</title>
<path fill="none" stroke="fuchsia" stroke-width="2" d="M207.53,-474.22C207.53,-488.59 207.53,-509.63 207.53,-528 207.53,-822 207.53,-822 207.53,-822 207.53,-887.63 666.14,-894.07 868.03,-893.73"/>
<polygon fill="fuchsia" stroke="fuchsia" stroke-width="2" points="868.33,-897.23 878.32,-893.71 868.31,-890.23 868.33,-897.23"/>
</g>
<!-- node13&#45;&gt;node14 -->
<g id="edge36" class="edge">
<title>node13&#45;&gt;node14</title>
<path fill="none" stroke="black" d="M272.44,-437.99C311.87,-427.66 362.37,-414.43 403.51,-403.66"/>
<polygon fill="black" stroke="black" points="404.42,-407.03 413.21,-401.11 402.65,-400.26 404.42,-407.03"/>
<text text-anchor="middle" x="397.82" y="-410.18" font-family="Times,serif" font-size="14.00">*0</text>
</g>
<!-- node14&#45;&gt;node0 -->
<g id="edge35" class="edge">
<title>node14&#45;&gt;node0</title>
<path fill="none" stroke="fuchsia" stroke-width="2" d="M471.12,-401.1C462.14,-420.42 445.58,-452.02 424.53,-474 403.9,-495.55 386.34,-487.07 368.53,-511 262.87,-652.97 278.61,-737.7 302.53,-766 366.25,-841.39 433.5,-758.34 521.53,-803 541.99,-813.38 537.9,-828.97 558.53,-839 611.47,-864.73 766.46,-879.86 868.08,-887.27"/>
<polygon fill="fuchsia" stroke="fuchsia" stroke-width="2" points="868.13,-890.78 878.35,-888.01 868.63,-883.8 868.13,-890.78"/>
</g>
<!-- node15 -->
<g id="node16" class="node">
<title>node15</title>
<polygon fill="lightgrey" stroke="black" points="739.03,-328 576.03,-328 576.03,-292 739.03,-292 739.03,-328"/>
<text text-anchor="middle" x="657.53" y="-306.3" font-family="Times,serif" font-size="14.00">#15 false Order : 16</text>
</g>
<!-- node14&#45;&gt;node15 -->
<g id="edge39" class="edge">
<title>node14&#45;&gt;node15</title>
<path fill="none" stroke="red" d="M515.55,-364.99C539.65,-355.01 571.53,-342.32 599,-331.76"/>
<polygon fill="red" stroke="red" points="600.43,-334.96 608.51,-328.11 597.92,-328.42 600.43,-334.96"/>
</g>
<!-- node17 -->
<g id="node18" class="node">
<title>node17</title>
<polygon fill="lightgrey" stroke="black" points="558.03,-328 399.03,-328 399.03,-292 558.03,-292 558.03,-328"/>
<text text-anchor="middle" x="478.53" y="-306.3" font-family="Times,serif" font-size="14.00">#17 true Order : 14</text>
</g>
<!-- node14&#45;&gt;node17 -->
<g id="edge47" class="edge">
<title>node14&#45;&gt;node17</title>
<path fill="none" stroke="red" d="M472.65,-364.81C471.81,-356.79 471.58,-347.05 471.95,-338.07"/>
<polygon fill="red" stroke="red" points="475.45,-338.25 472.67,-328.03 468.47,-337.75 475.45,-338.25"/>
</g>
<!-- node15&#45;&gt;node14 -->
<g id="edge38" class="edge">
<title>node15&#45;&gt;node14</title>
<path fill="none" stroke="fuchsia" stroke-width="2" d="M620.26,-328.11C596.09,-338.11 564.21,-350.81 536.77,-361.36"/>
<polygon fill="fuchsia" stroke="fuchsia" stroke-width="2" points="535.35,-358.15 527.26,-364.99 537.85,-364.69 535.35,-358.15"/>
</g>
<!-- node15&#45;&gt;node16 -->
<g id="edge45" class="edge">
<title>node15&#45;&gt;node16</title>
<path fill="none" stroke="red" d="M739.21,-300.79C858.75,-288.76 1082.83,-266.23 1227.49,-251.68"/>
<polygon fill="red" stroke="red" points="1228.17,-255.13 1237.77,-250.65 1227.47,-248.17 1228.17,-255.13"/>
</g>
<!-- node16&#45;&gt;node0 -->
<g id="edge40" class="edge">
<title>node16&#45;&gt;node0</title>
<path fill="none" stroke="fuchsia" stroke-width="2" d="M1402.35,-255.06C1473.04,-289.06 1615.53,-372.42 1615.53,-492 1615.53,-639 1615.53,-639 1615.53,-639 1615.53,-796.99 1489.83,-824.06 1335.53,-858 1214.84,-884.54 1178.36,-861.35 1055.07,-875.52"/>
<polygon fill="fuchsia" stroke="fuchsia" stroke-width="2" points="1054.37,-872.08 1044.86,-876.75 1055.21,-879.03 1054.37,-872.08"/>
</g>
<!-- node18 -->
<g id="node19" class="node">
<title>node18</title>
<polygon fill="lightgrey" stroke="black" points="1445.03,-182 1282.03,-182 1282.03,-146 1445.03,-146 1445.03,-182"/>
<text text-anchor="middle" x="1363.53" y="-160.3" font-family="Times,serif" font-size="14.00">#18 Goto Order : 20</text>
</g>
<!-- node16&#45;&gt;node18 -->
<g id="edge49" class="edge">
<title>node16&#45;&gt;node18</title>
<path fill="none" stroke="red" d="M1357.65,-218.81C1356.81,-210.79 1356.58,-201.05 1356.95,-192.07"/>
<polygon fill="red" stroke="red" points="1360.45,-192.25 1357.67,-182.03 1353.47,-191.75 1360.45,-192.25"/>
</g>
<!-- node21 -->
<g id="node22" class="node">
<title>node21</title>
<polygon fill="lightgrey" stroke="black" points="1545.53,-109 1291.53,-109 1291.53,-73 1545.53,-73 1545.53,-109"/>
<text text-anchor="middle" x="1418.53" y="-87.3" font-family="Times,serif" font-size="14.00">#21 Merge : Merge34 Order : 21</text>
</g>
<!-- node16&#45;&gt;node21 -->
<g id="edge61" class="edge">
<title>node16&#45;&gt;node21</title>
<path fill="none" stroke="green" d="M1315.9,-218.94C1299.47,-210.49 1282.87,-198.49 1273.53,-182 1265.65,-168.08 1264.4,-159.14 1273.53,-146 1283.52,-131.62 1297.83,-121.05 1313.61,-113.3"/>
<polygon fill="green" stroke="green" points="1315.37,-116.35 1323.05,-109.06 1312.49,-109.97 1315.37,-116.35"/>
</g>
<!-- node17&#45;&gt;node14 -->
<g id="edge46" class="edge">
<title>node17&#45;&gt;node14</title>
<path fill="none" stroke="fuchsia" stroke-width="2" d="M484.39,-328.03C485.24,-336.03 485.48,-345.77 485.12,-354.75"/>
<polygon fill="fuchsia" stroke="fuchsia" stroke-width="2" points="481.62,-354.59 484.41,-364.81 488.6,-355.08 481.62,-354.59"/>
</g>
<!-- node19 -->
<g id="node20" class="node">
<title>node19</title>
<polygon fill="lightgrey" stroke="black" points="581.53,-255 375.53,-255 375.53,-219 581.53,-219 581.53,-255"/>
<text text-anchor="middle" x="478.53" y="-233.3" font-family="Times,serif" font-size="14.00">#19 LabelNode Order : 15</text>
</g>
<!-- node17&#45;&gt;node19 -->
<g id="edge51" class="edge">
<title>node17&#45;&gt;node19</title>
<path fill="none" stroke="red" d="M472.65,-291.81C471.81,-283.79 471.58,-274.05 471.95,-265.07"/>
<polygon fill="red" stroke="red" points="475.45,-265.25 472.67,-255.03 468.47,-264.75 475.45,-265.25"/>
</g>
<!-- node18&#45;&gt;node16 -->
<g id="edge48" class="edge">
<title>node18&#45;&gt;node16</title>
<path fill="none" stroke="fuchsia" stroke-width="2" d="M1369.39,-182.03C1370.24,-190.03 1370.48,-199.77 1370.12,-208.75"/>
<polygon fill="fuchsia" stroke="fuchsia" stroke-width="2" points="1366.62,-208.59 1369.41,-218.81 1373.6,-209.08 1366.62,-208.59"/>
</g>
<!-- node18&#45;&gt;node21 -->
<g id="edge59" class="edge">
<title>node18&#45;&gt;node21</title>
<path fill="none" stroke="red" d="M1376.84,-145.81C1383.53,-137.18 1391.76,-126.56 1399.14,-117.03"/>
<polygon fill="red" stroke="red" points="1401.98,-119.08 1405.34,-109.03 1396.45,-114.79 1401.98,-119.08"/>
</g>
<!-- node19&#45;&gt;node17 -->
<g id="edge50" class="edge">
<title>node19&#45;&gt;node17</title>
<path fill="none" stroke="fuchsia" stroke-width="2" d="M484.39,-255.03C485.24,-263.03 485.48,-272.77 485.12,-281.75"/>
<polygon fill="fuchsia" stroke="fuchsia" stroke-width="2" points="481.62,-281.59 484.41,-291.81 488.6,-282.08 481.62,-281.59"/>
</g>
<!-- node19&#45;&gt;node20 -->
<g id="edge57" class="edge">
<title>node19&#45;&gt;node20</title>
<path fill="none" stroke="red" d="M538.05,-218.95C564.09,-212.08 595.12,-204.69 623.53,-200 715.89,-184.74 820.97,-175.96 902.28,-171.02"/>
<polygon fill="red" stroke="red" points="902.81,-174.49 912.58,-170.4 902.39,-167.5 902.81,-174.49"/>
</g>
<!-- node20&#45;&gt;node0 -->
<g id="edge52" class="edge">
<title>node20&#45;&gt;node0</title>
<path fill="none" stroke="fuchsia" stroke-width="2" d="M1063.37,-182.17C1078.73,-194.98 1095.53,-214.03 1095.53,-236 1095.53,-347 1095.53,-347 1095.53,-347 1095.53,-417.44 1159.53,-421.56 1159.53,-492 1159.53,-603 1159.53,-603 1159.53,-603 1159.53,-711.91 1159.66,-752.46 1093.53,-839 1082.43,-853.52 1066.76,-864.16 1050.07,-871.95"/>
<polygon fill="fuchsia" stroke="fuchsia" stroke-width="2" points="1048.51,-868.81 1040.71,-875.99 1051.28,-875.24 1048.51,-868.81"/>
</g>
<!-- node20&#45;&gt;node21 -->
<g id="edge60" class="edge">
<title>node20&#45;&gt;node21</title>
<path fill="none" stroke="red" d="M1123.69,-145.99C1179.13,-135.43 1251.86,-121.82 1311.24,-110.92"/>
<polygon fill="red" stroke="red" points="1312.2,-114.3 1321.4,-109.05 1310.93,-107.41 1312.2,-114.3"/>
</g>
<!-- node20&#45;&gt;node21 -->
<g id="edge62" class="edge">
<title>node20&#45;&gt;node21</title>
<path fill="none" stroke="green" d="M1135.41,-145.99C1192.97,-135.45 1265.65,-121.88 1322.98,-110.98"/>
<polygon fill="green" stroke="green" points="1323.96,-114.36 1333.13,-109.05 1322.65,-107.48 1323.96,-114.36"/>
</g>
<!-- node21&#45;&gt;node0 -->
<g id="edge58" class="edge">
<title>node21&#45;&gt;node0</title>
<path fill="none" stroke="fuchsia" stroke-width="2" d="M1453.46,-109.1C1518.92,-143.9 1653.53,-229.6 1653.53,-346 1653.53,-712 1653.53,-712 1653.53,-712 1653.53,-807.02 1570.64,-805.99 1481.53,-839 1304.33,-904.65 1243.39,-853.96 1054.81,-875.55"/>
<polygon fill="fuchsia" stroke="fuchsia" stroke-width="2" points="1054.37,-872.08 1044.86,-876.75 1055.2,-879.03 1054.37,-872.08"/>
</g>
<!-- node21&#45;&gt;node22 -->
<g id="edge66" class="edge">
<title>node21&#45;&gt;node22</title>
<path fill="none" stroke="green" d="M1435.15,-109.3C1451.86,-128.8 1472.72,-160.58 1454.53,-182 1388.94,-259.26 1313.97,-162.96 1229.53,-219 1123.4,-289.43 1071.05,-389.67 1145.53,-493 1189.97,-554.66 1271.15,-581.65 1341.13,-593.23"/>
<polygon fill="green" stroke="green" points="1340.95,-596.74 1351.37,-594.83 1342.03,-589.83 1340.95,-596.74"/>
</g>
<!-- node23 -->
<g id="node24" class="node">
<title>node23</title>
<polygon fill="lightgrey" stroke="black" points="1732.03,-36 1481.03,-36 1481.03,0 1732.03,0 1732.03,-36"/>
<text text-anchor="middle" x="1606.53" y="-14.3" font-family="Times,serif" font-size="14.00">#23 ReturnValue : int Order : 23</text>
</g>
<!-- node21&#45;&gt;node23 -->
<g id="edge69" class="edge">
<title>node21&#45;&gt;node23</title>
<path fill="none" stroke="red" d="M1463.56,-72.99C1489.99,-63.01 1523.59,-50.32 1551.57,-39.76"/>
<polygon fill="red" stroke="red" points="1553.1,-42.92 1561.22,-36.11 1550.62,-36.37 1553.1,-42.92"/>
</g>
<!-- node22&#45;&gt;node0 -->
<g id="edge63" class="edge">
<title>node22&#45;&gt;node0</title>
<path fill="none" stroke="fuchsia" stroke-width="2" d="M1494.93,-620.17C1556.64,-663.83 1704.1,-781.07 1629.53,-858 1608.33,-879.87 1137.42,-873.31 1054.98,-876.1"/>
<polygon fill="fuchsia" stroke="fuchsia" stroke-width="2" points="1054.63,-872.61 1044.85,-876.67 1055.03,-879.6 1054.63,-872.61"/>
</g>
<!-- node22&#45;&gt;node23 -->
<g id="edge68" class="edge">
<title>node22&#45;&gt;node23</title>
<path fill="none" stroke="black" d="M1481.86,-583.95C1514.33,-545.38 1597.53,-446.95 1597.53,-347 1597.53,-347 1597.53,-347 1597.53,-90 1597.53,-75.65 1597.53,-59.67 1598.38,-46.51"/>
<polygon fill="black" stroke="black" points="1601.89,-46.49 1599.3,-36.22 1594.92,-45.86 1601.89,-46.49"/>
<text text-anchor="middle" x="1606.09" y="-51.33" font-family="Times,serif" font-size="14.00">*0</text>
</g>
<!-- node22&#45;&gt;node23 -->
<g id="edge70" class="edge">
<title>node22&#45;&gt;node23</title>
<path fill="none" stroke="green" d="M1491.35,-583.95C1532.33,-545.38 1615.53,-446.95 1615.53,-347 1615.53,-347 1615.53,-347 1615.53,-90 1615.53,-75.65 1615.53,-59.67 1614.68,-46.51"/>
<polygon fill="green" stroke="green" points="1618.14,-45.86 1613.76,-36.22 1611.17,-46.49 1618.14,-45.86"/>
</g>
<!-- node23&#45;&gt;node0 -->
<g id="edge67" class="edge">
<title>node23&#45;&gt;node0</title>
<path fill="none" stroke="fuchsia" stroke-width="2" d="M1649.03,-36.04C1670.28,-47.64 1691.53,-65.39 1691.53,-90 1691.53,-822 1691.53,-822 1691.53,-822 1691.53,-848.67 1668.7,-849.18 1643.53,-858 1583.75,-878.94 1151.79,-869.6 1054.95,-875.83"/>
<polygon fill="fuchsia" stroke="fuchsia" stroke-width="2" points="1054.52,-872.35 1044.85,-876.67 1055.1,-879.33 1054.52,-872.35"/>
</g>
<!-- c0 -->
<!-- c1 -->
<!-- c0&#45;&gt;c1 -->
<g id="edge71" class="edge">
<title>c0&#45;&gt;c1</title>
<path fill="none" stroke="red" d="M1913.42,-894C1924.64,-894 1982.77,-894 2008.39,-894"/>
<polygon fill="red" stroke="red" points="2008.59,-897.5 2018.59,-894 2008.59,-890.5 2008.59,-897.5"/>
<text text-anchor="middle" x="1966.03" y="-900.8" font-family="Times,serif" font-size="14.00">Control flow</text>
</g>
<!-- c2 -->
<!-- c3 -->
<!-- c2&#45;&gt;c3 -->
<g id="edge72" class="edge">
<title>c2&#45;&gt;c3</title>
<path fill="none" stroke="red" stroke-dasharray="5,2" d="M1706.61,-894C1723.58,-894 1839.74,-894 1877.61,-894"/>
<polygon fill="red" stroke="red" points="1877.7,-897.5 1887.7,-894 1877.7,-890.5 1877.7,-897.5"/>
<text text-anchor="middle" x="1797.03" y="-900.8" font-family="Times,serif" font-size="14.00">Control flow back edge</text>
</g>
<!-- d0 -->
<!-- d1 -->
<!-- d0&#45;&gt;d1 -->
<g id="edge73" class="edge">
<title>d0&#45;&gt;d1</title>
<path fill="none" stroke="black" d="M1595.39,-894C1604.94,-894 1648.84,-894 1670.45,-894"/>
<polygon fill="black" stroke="black" points="1670.68,-897.5 1680.68,-894 1670.68,-890.5 1670.68,-897.5"/>
<text text-anchor="middle" x="1638.03" y="-900.8" font-family="Times,serif" font-size="14.00">Data flow</text>
</g>
<!-- d2 -->
<!-- d3 -->
<!-- d2&#45;&gt;d3 -->
<g id="edge74" class="edge">
<title>d2&#45;&gt;d3</title>
<path fill="none" stroke="black" stroke-dasharray="1,5" d="M1469.34,-894C1479.99,-894 1535,-894 1559.61,-894"/>
<polygon fill="black" stroke="black" points="1559.68,-897.5 1569.68,-894 1559.68,-890.5 1559.68,-897.5"/>
<text text-anchor="middle" x="1519.53" y="-900.8" font-family="Times,serif" font-size="14.00">Declaration</text>
</g>
<!-- d4 -->
<!-- d5 -->
<!-- d4&#45;&gt;d5 -->
<g id="edge75" class="edge">
<title>d4&#45;&gt;d5</title>
<path fill="none" stroke="blue" d="M1326.63,-894C1339.25,-894 1405.41,-894 1433.21,-894"/>
<polygon fill="blue" stroke="blue" points="1433.37,-897.5 1443.37,-894 1433.37,-890.5 1433.37,-897.5"/>
<text text-anchor="middle" x="1385.03" y="-900.8" font-family="Times,serif" font-size="14.00">PHI Data flow</text>
</g>
<!-- d6 -->
<!-- d7 -->
<!-- d6&#45;&gt;d7 -->
<g id="edge76" class="edge">
<title>d6&#45;&gt;d7</title>
<path fill="none" stroke="green" d="M1189.53,-894C1201.47,-894 1263.83,-894 1290.46,-894"/>
<polygon fill="green" stroke="green" points="1290.48,-897.5 1300.48,-894 1290.48,-890.5 1290.48,-897.5"/>
<text text-anchor="middle" x="1245.03" y="-900.8" font-family="Times,serif" font-size="14.00">Memory flow</text>
</g>
<!-- d8 -->
<!-- d9 -->
<!-- d8&#45;&gt;d9 -->
<g id="edge77" class="edge">
<title>d8&#45;&gt;d9</title>
<path fill="none" stroke="fuchsia" d="M1066.64,-894C1077.68,-894 1129.2,-894 1153.19,-894"/>
<polygon fill="fuchsia" stroke="fuchsia" points="1153.43,-897.5 1163.43,-894 1153.43,-890.5 1153.43,-897.5"/>
<text text-anchor="middle" x="1115.03" y="-900.8" font-family="Times,serif" font-size="14.00">Dominance</text>
</g>
</g>
</svg>
