<?xml version="1.0" encoding="UTF-8" standalone="no"?>
<!DOCTYPE svg PUBLIC "-//W3C//DTD SVG 1.1//EN"
 "http://www.w3.org/Graphics/SVG/1.1/DTD/svg11.dtd">
<!-- Generated by graphviz version 2.43.0 (0)
 -->
<!-- Title: debugoutput Pages: 1 -->
<svg width="2047pt" height="943pt"
 viewBox="0.00 0.00 2046.53 942.80" xmlns="http://www.w3.org/2000/svg" xmlns:xlink="http://www.w3.org/1999/xlink">
<g id="graph0" class="graph" transform="scale(1 1) rotate(0) translate(4 938.8)">
<title>debugoutput</title>
<polygon fill="white" stroke="transparent" points="-4,4 -4,-938.8 2042.53,-938.8 2042.53,4 -4,4"/>
<g id="clust1" class="cluster">
<title>cluster_000</title>
<polygon fill="none" stroke="black" points="1054.53,-884.2 1054.53,-926.8 2030.53,-926.8 2030.53,-884.2 1054.53,-884.2"/>
<text text-anchor="middle" x="1542.53" y="-911.6" font-family="Times,serif" font-size="14.00">Legend</text>
</g>
<!-- node0 -->
<g id="node1" class="node">
<title>node0</title>
<polygon fill="lightgrey" stroke="black" points="1044.53,-912 878.53,-912 878.53,-876 1044.53,-876 1044.53,-912"/>
<text text-anchor="middle" x="961.53" y="-890.3" font-family="Times,serif" font-size="14.00">#0 Method Order : 0</text>
</g>
<!-- node1 -->
<g id="node2" class="node">
<title>node1</title>
<polygon fill="lightgrey" stroke="black" points="522.53,-839 336.53,-839 336.53,-803 522.53,-803 522.53,-839"/>
<text text-anchor="middle" x="429.53" y="-817.3" font-family="Times,serif" font-size="14.00">#1 arg0 : int Order : 12</text>
</g>
<!-- node0&#45;&gt;node1 -->
<g id="edge2" class="edge">
<title>node0&#45;&gt;node1</title>
<path fill="none" stroke="black" d="M878.17,-892.25C790,-890.12 647.53,-882.75 527.53,-858 509.56,-854.29 490.42,-848.48 473.81,-842.6"/>
<polygon fill="black" stroke="black" points="474.95,-839.29 464.36,-839.15 472.55,-845.87 474.95,-839.29"/>
<text text-anchor="middle" x="484.28" y="-833.73" font-family="Times,serif" font-size="14.00">*0</text>
</g>
<!-- node2 -->
<g id="node3" class="node">
<title>node2</title>
<polygon fill="lightgrey" stroke="black" points="755.03,-839 578.03,-839 578.03,-803 755.03,-803 755.03,-839"/>
<text text-anchor="middle" x="666.53" y="-817.3" font-family="Times,serif" font-size="14.00">#2 arg1 : int Order : 7</text>
</g>
<!-- node0&#45;&gt;node2 -->
<g id="edge4" class="edge">
<title>node0&#45;&gt;node2</title>
<path fill="none" stroke="black" d="M878.07,-882.21C841.29,-876.34 797.88,-868.17 759.53,-858 743.6,-853.77 726.6,-848.21 711.5,-842.73"/>
<polygon fill="black" stroke="black" points="712.48,-839.36 701.89,-839.15 710.04,-845.92 712.48,-839.36"/>
<text text-anchor="middle" x="721.82" y="-833.85" font-family="Times,serif" font-size="14.00">*0</text>
</g>
<!-- node3 -->
<g id="node4" class="node">
<title>node3</title>
<polygon fill="lightgrey" stroke="black" points="1351.03,-839 1174.03,-839 1174.03,-803 1351.03,-803 1351.03,-839"/>
<text text-anchor="middle" x="1262.53" y="-817.3" font-family="Times,serif" font-size="14.00">#3 arg2 : int Order : 6</text>
</g>
<!-- node0&#45;&gt;node3 -->
<g id="edge6" class="edge">
<title>node0&#45;&gt;node3</title>
<path fill="none" stroke="black" d="M1041.82,-875.95C1090.36,-867.36 1103.63,-870.27 1151.53,-858 1167.88,-853.81 1185.31,-848.13 1201.45,-842.52"/>
<polygon fill="black" stroke="black" points="1203.04,-845.67 1211.31,-839.05 1200.71,-839.07 1203.04,-845.67"/>
<text text-anchor="middle" x="1197.02" y="-849.34" font-family="Times,serif" font-size="14.00">*0</text>
</g>
<!-- node4 -->
<g id="node5" class="node">
<title>node4</title>
<polygon fill="lightgrey" stroke="black" points="1055.53,-839 867.53,-839 867.53,-803 1055.53,-803 1055.53,-839"/>
<text text-anchor="middle" x="961.53" y="-817.3" font-family="Times,serif" font-size="14.00">#4 LabelNode Order : 1</text>
</g>
<!-- node0&#45;&gt;node4 -->
<g id="edge8" class="edge">
<title>node0&#45;&gt;node4</title>
<path fill="none" stroke="red" d="M955.65,-875.81C954.81,-867.79 954.58,-858.05 954.95,-849.07"/>
<polygon fill="red" stroke="red" points="958.45,-849.25 955.67,-839.03 951.47,-848.75 958.45,-849.25"/>
</g>
<!-- node9 -->
<g id="node10" class="node">
<title>node9</title>
<polygon fill="orange" stroke="black" points="1148.42,-667.54 1148.42,-682.46 1054.76,-693 922.3,-693 828.64,-682.46 828.64,-667.54 922.3,-657 1054.76,-657 1148.42,-667.54"/>
<text text-anchor="middle" x="988.53" y="-671.3" font-family="Times,serif" font-size="14.00">#9 NewArray : int[] Order : 3</text>
</g>
<!-- node0&#45;&gt;node9 -->
<g id="edge21" class="edge">
<title>node0&#45;&gt;node9</title>
<path fill="none" stroke="green" d="M1006.49,-875.96C1024.22,-867.58 1043.19,-855.62 1055.53,-839 1075.22,-812.48 1066.41,-798.89 1069.53,-766 1071.04,-750.07 1077.41,-743.92 1069.53,-730 1061.94,-716.6 1049.56,-706.16 1036.7,-698.19"/>
<polygon fill="green" stroke="green" points="1038.18,-695.01 1027.77,-693.06 1034.69,-701.08 1038.18,-695.01"/>
</g>
<!-- node1&#45;&gt;node0 -->
<g id="edge1" class="edge">
<title>node1&#45;&gt;node0</title>
<path fill="none" stroke="fuchsia" stroke-width="2" d="M480.58,-839.06C500.66,-846.06 523.94,-853.55 545.53,-858 655.1,-880.59 783.39,-888.71 868.28,-891.57"/>
<polygon fill="fuchsia" stroke="fuchsia" stroke-width="2" points="868.31,-895.07 878.41,-891.89 868.53,-888.07 868.31,-895.07"/>
</g>
<!-- node13 -->
<g id="node14" class="node">
<title>node13</title>
<polygon fill="orange" stroke="black" points="415.09,-448.54 415.09,-463.46 293.5,-474 121.56,-474 -0.03,-463.46 -0.03,-448.54 121.56,-438 293.5,-438 415.09,-448.54"/>
<text text-anchor="middle" x="207.53" y="-452.3" font-family="Times,serif" font-size="14.00">#13 NumericCondition : EQ Order : 13</text>
</g>
<!-- node1&#45;&gt;node13 -->
<g id="edge33" class="edge">
<title>node1&#45;&gt;node13</title>
<path fill="none" stroke="black" d="M336.2,-811.98C312.98,-806.77 289.14,-798.39 269.53,-785 253.65,-774.16 245.53,-768.23 245.53,-749 245.53,-749 245.53,-749 245.53,-528 245.53,-511.53 237.48,-495.18 228.79,-482.33"/>
<polygon fill="black" stroke="black" points="231.48,-480.07 222.77,-474.04 225.81,-484.18 231.48,-480.07"/>
<text text-anchor="middle" x="240.26" y="-480.03" font-family="Times,serif" font-size="14.00">*0</text>
</g>
<!-- node2&#45;&gt;node0 -->
<g id="edge3" class="edge">
<title>node2&#45;&gt;node0</title>
<path fill="none" stroke="fuchsia" stroke-width="2" d="M718.31,-839.06C736.91,-845.65 758.02,-852.82 777.53,-858 806.83,-865.77 839.08,-872.37 868.32,-877.67"/>
<polygon fill="fuchsia" stroke="fuchsia" stroke-width="2" points="868.06,-881.18 878.52,-879.49 869.29,-874.29 868.06,-881.18"/>
</g>
<!-- node5 -->
<g id="node6" class="node">
<title>node5</title>
<polygon fill="orange" stroke="black" points="1511.69,-740.54 1511.69,-755.46 1437.2,-766 1331.86,-766 1257.37,-755.46 1257.37,-740.54 1331.86,-730 1437.2,-730 1511.69,-740.54"/>
<text text-anchor="middle" x="1384.53" y="-744.3" font-family="Times,serif" font-size="14.00">#5 Add : int Order : 11</text>
</g>
<!-- node2&#45;&gt;node5 -->
<g id="edge10" class="edge">
<title>node2&#45;&gt;node5</title>
<path fill="none" stroke="black" d="M755.29,-811.22C885.91,-798.31 1129.83,-774.19 1272.58,-760.07"/>
<polygon fill="black" stroke="black" points="1273.07,-763.54 1282.68,-759.07 1272.38,-756.57 1273.07,-763.54"/>
<text text-anchor="middle" x="1265.47" y="-765.57" font-family="Times,serif" font-size="14.00">*0</text>
</g>
<!-- node6 -->
<g id="node7" class="node">
<title>node6</title>
<polygon fill="orange" stroke="black" points="553.53,-740.54 553.53,-755.46 482.65,-766 382.41,-766 311.53,-755.46 311.53,-740.54 382.41,-730 482.65,-730 553.53,-740.54"/>
<text text-anchor="middle" x="432.53" y="-744.3" font-family="Times,serif" font-size="14.00">#6 Sub : int Order : 8</text>
</g>
<!-- node2&#45;&gt;node6 -->
<g id="edge13" class="edge">
<title>node2&#45;&gt;node6</title>
<path fill="none" stroke="black" d="M610.48,-802.99C576.25,-792.61 532.35,-779.29 496.73,-768.48"/>
<polygon fill="black" stroke="black" points="497.5,-765.05 486.91,-765.5 495.47,-771.75 497.5,-765.05"/>
<text text-anchor="middle" x="506.71" y="-758.98" font-family="Times,serif" font-size="14.00">*0</text>
</g>
<!-- node11 -->
<g id="node12" class="node">
<title>node11</title>
<polygon fill="lightgrey" stroke="black" points="692.53,-620 450.53,-620 450.53,-584 692.53,-584 692.53,-620"/>
<text text-anchor="middle" x="571.53" y="-598.3" font-family="Times,serif" font-size="14.00">#11 ArrayStore : int[] Order : 9</text>
</g>
<!-- node2&#45;&gt;node11 -->
<g id="edge26" class="edge">
<title>node2&#45;&gt;node11</title>
<path fill="none" stroke="black" d="M647.14,-802.88C618.38,-777.54 567.27,-732.72 562.53,-730 540.95,-717.63 527.34,-729.36 509.53,-712 491.51,-694.43 501.88,-639.06 502.53,-638 505.27,-633.54 508.78,-629.62 512.76,-626.19"/>
<polygon fill="black" stroke="black" points="514.94,-628.93 520.9,-620.17 510.78,-623.3 514.94,-628.93"/>
<text text-anchor="middle" x="511.35" y="-634.04" font-family="Times,serif" font-size="14.00">*1</text>
</g>
<!-- node3&#45;&gt;node0 -->
<g id="edge5" class="edge">
<title>node3&#45;&gt;node0</title>
<path fill="none" stroke="fuchsia" stroke-width="2" d="M1227.7,-839.14C1210.4,-845.77 1189.18,-852.97 1169.53,-858 1121.54,-870.29 1108.31,-867.35 1059.53,-876 1058.03,-876.27 1056.52,-876.54 1054.99,-876.81"/>
<polygon fill="fuchsia" stroke="fuchsia" stroke-width="2" points="1054,-873.43 1044.79,-878.66 1055.25,-880.32 1054,-873.43"/>
</g>
<!-- node3&#45;&gt;node5 -->
<g id="edge11" class="edge">
<title>node3&#45;&gt;node5</title>
<path fill="none" stroke="black" d="M1291.75,-802.99C1308.08,-793.49 1328.62,-781.54 1346.23,-771.29"/>
<polygon fill="black" stroke="black" points="1348.24,-774.17 1355.12,-766.11 1344.72,-768.12 1348.24,-774.17"/>
<text text-anchor="middle" x="1343.71" y="-778.84" font-family="Times,serif" font-size="14.00">*1</text>
</g>
<!-- node3&#45;&gt;node6 -->
<g id="edge14" class="edge">
<title>node3&#45;&gt;node6</title>
<path fill="none" stroke="black" d="M1173.82,-812.38C1139.66,-809.44 1100.28,-806.06 1064.53,-803 883.73,-787.51 673.82,-769.59 547.19,-758.78"/>
<polygon fill="black" stroke="black" points="547.35,-755.28 537.09,-757.92 546.76,-762.26 547.35,-755.28"/>
<text text-anchor="middle" x="555.87" y="-747.34" font-family="Times,serif" font-size="14.00">*1</text>
</g>
<!-- node16 -->
<g id="node17" class="node">
<title>node16</title>
<polygon fill="lightgrey" stroke="black" points="1494.03,-255 1243.03,-255 1243.03,-219 1494.03,-219 1494.03,-255"/>
<text text-anchor="middle" x="1368.53" y="-233.3" font-family="Times,serif" font-size="14.00">#16 ArrayStore : int[] Order : 19</text>
</g>
<!-- node3&#45;&gt;node16 -->
<g id="edge42" class="edge">
<title>node3&#45;&gt;node16</title>
<path fill="none" stroke="black" d="M1256.85,-802.71C1253.71,-792.22 1250.12,-778.49 1248.53,-766 1246.51,-750.13 1248.18,-746 1248.53,-730 1249.42,-689.53 1252.53,-679.48 1252.53,-639 1252.53,-639 1252.53,-639 1252.53,-309 1252.53,-285.86 1269.53,-270.03 1290.51,-259.31"/>
<polygon fill="black" stroke="black" points="1292.13,-262.42 1299.71,-255.02 1289.17,-256.07 1292.13,-262.42"/>
<text text-anchor="middle" x="1286.86" y="-266.64" font-family="Times,serif" font-size="14.00">*1</text>
</g>
<!-- node20 -->
<g id="node21" class="node">
<title>node20</title>
<polygon fill="lightgrey" stroke="black" points="1169.03,-182 918.03,-182 918.03,-146 1169.03,-146 1169.03,-182"/>
<text text-anchor="middle" x="1043.53" y="-160.3" font-family="Times,serif" font-size="14.00">#20 ArrayStore : int[] Order : 17</text>
</g>
<!-- node3&#45;&gt;node20 -->
<g id="edge54" class="edge">
<title>node3&#45;&gt;node20</title>
<path fill="none" stroke="black" d="M1254.82,-802.93C1241.25,-771.29 1214.53,-701.09 1214.53,-639 1214.53,-639 1214.53,-639 1214.53,-236 1214.53,-211.67 1199.58,-195.52 1178.53,-184.84"/>
<polygon fill="black" stroke="black" points="1179.71,-181.53 1169.15,-180.59 1176.82,-187.91 1179.71,-181.53"/>
<text text-anchor="middle" x="1189.15" y="-176.68" font-family="Times,serif" font-size="14.00">*1</text>
</g>
<!-- node22 -->
<g id="node23" class="node">
<title>node22</title>
<polygon fill="lightgrey" stroke="black" points="1587.53,-620 1351.53,-620 1351.53,-584 1587.53,-584 1587.53,-620"/>
<text text-anchor="middle" x="1469.53" y="-598.3" font-family="Times,serif" font-size="14.00">#22 ArrayLoad : int Order : 22</text>
</g>
<!-- node3&#45;&gt;node22 -->
<g id="edge65" class="edge">
<title>node3&#45;&gt;node22</title>
<path fill="none" stroke="black" d="M1351.15,-813.2C1417.12,-806.08 1499.29,-792.15 1520.53,-766 1553.62,-725.26 1516.57,-662.94 1490.56,-628.35"/>
<polygon fill="black" stroke="black" points="1493.12,-625.94 1484.23,-620.18 1487.59,-630.23 1493.12,-625.94"/>
<text text-anchor="middle" x="1502.01" y="-625.63" font-family="Times,serif" font-size="14.00">*1</text>
</g>
<!-- node4&#45;&gt;node0 -->
<g id="edge7" class="edge">
<title>node4&#45;&gt;node0</title>
<path fill="none" stroke="fuchsia" stroke-width="2" d="M967.39,-839.03C968.24,-847.03 968.48,-856.77 968.12,-865.75"/>
<polygon fill="fuchsia" stroke="fuchsia" stroke-width="2" points="964.62,-865.59 967.41,-875.81 971.6,-866.08 964.62,-865.59"/>
</g>
<!-- node7 -->
<g id="node8" class="node">
<title>node7</title>
<polygon fill="lightgrey" stroke="black" points="835.53,-766 647.53,-766 647.53,-730 835.53,-730 835.53,-766"/>
<text text-anchor="middle" x="741.53" y="-744.3" font-family="Times,serif" font-size="14.00">#7 LabelNode Order : 4</text>
</g>
<!-- node4&#45;&gt;node7 -->
<g id="edge16" class="edge">
<title>node4&#45;&gt;node7</title>
<path fill="none" stroke="red" d="M902.98,-802.99C870.57,-792.88 830.52,-779.99 798.39,-769.34"/>
<polygon fill="red" stroke="red" points="799.28,-765.95 788.69,-766.11 797.07,-772.59 799.28,-765.95"/>
</g>
<!-- node8 -->
<g id="node9" class="node">
<title>node8</title>
<polygon fill="lightgreen" stroke="black" points="1069.3,-740.54 1069.3,-755.46 1006.17,-766 916.89,-766 853.76,-755.46 853.76,-740.54 916.89,-730 1006.17,-730 1069.3,-740.54"/>
<text text-anchor="middle" x="961.53" y="-744.3" font-family="Times,serif" font-size="14.00">#8 int 10 Order : 2</text>
</g>
<!-- node4&#45;&gt;node8 -->
<g id="edge18" class="edge">
<title>node4&#45;&gt;node8</title>
<path fill="none" stroke="black" stroke-dasharray="1,5" d="M955.65,-802.81C954.81,-794.79 954.58,-785.05 954.95,-776.07"/>
<polygon fill="black" stroke="black" points="958.45,-776.25 955.67,-766.03 951.47,-775.75 958.45,-776.25"/>
</g>
<!-- node5&#45;&gt;node0 -->
<g id="edge9" class="edge">
<title>node5&#45;&gt;node0</title>
<path fill="none" stroke="fuchsia" stroke-width="2" d="M1385.26,-766.18C1385.11,-786.81 1381.42,-820.88 1360.53,-839 1310.37,-882.51 1135.08,-866.9 1055.06,-875.57"/>
<polygon fill="fuchsia" stroke="fuchsia" stroke-width="2" points="1054.34,-872.14 1044.88,-876.9 1055.25,-879.08 1054.34,-872.14"/>
</g>
<!-- node5&#45;&gt;node16 -->
<g id="edge43" class="edge">
<title>node5&#45;&gt;node16</title>
<path fill="none" stroke="black" d="M1357.6,-729.95C1341.26,-717.31 1323.53,-698.43 1323.53,-676 1323.53,-676 1323.53,-676 1323.53,-309 1323.53,-291.88 1332.98,-275.54 1343.22,-262.86"/>
<polygon fill="black" stroke="black" points="1346.05,-264.94 1349.97,-255.09 1340.77,-260.35 1346.05,-264.94"/>
<text text-anchor="middle" x="1344.47" y="-270.62" font-family="Times,serif" font-size="14.00">*2</text>
</g>
<!-- node6&#45;&gt;node0 -->
<g id="edge12" class="edge">
<title>node6&#45;&gt;node0</title>
<path fill="none" stroke="fuchsia" stroke-width="2" d="M375.53,-764.98C356.93,-773.19 338.31,-785.33 327.53,-803 319.2,-816.66 316.76,-827.17 327.53,-839 363.18,-878.14 700.98,-888.94 868.4,-891.9"/>
<polygon fill="fuchsia" stroke="fuchsia" stroke-width="2" points="868.39,-895.4 878.44,-892.07 868.5,-888.4 868.39,-895.4"/>
</g>
<!-- node6&#45;&gt;node20 -->
<g id="edge55" class="edge">
<title>node6&#45;&gt;node20</title>
<path fill="none" stroke="black" d="M428.75,-729.88C425.92,-715.56 422.53,-694.55 422.53,-676 422.53,-676 422.53,-676 422.53,-565 422.53,-375.92 807.53,-573.08 807.53,-384 807.53,-384 807.53,-384 807.53,-236 807.53,-211.33 855.42,-194.48 908.06,-183.41"/>
<polygon fill="black" stroke="black" points="908.82,-186.82 917.93,-181.41 907.43,-179.96 908.82,-186.82"/>
<text text-anchor="middle" x="901.84" y="-189.59" font-family="Times,serif" font-size="14.00">*2</text>
</g>
<!-- node7&#45;&gt;node4 -->
<g id="edge15" class="edge">
<title>node7&#45;&gt;node4</title>
<path fill="none" stroke="fuchsia" stroke-width="2" d="M800.43,-766.11C832.89,-776.25 872.94,-789.14 905.01,-799.77"/>
<polygon fill="fuchsia" stroke="fuchsia" stroke-width="2" points="904.1,-803.16 914.69,-802.99 906.31,-796.52 904.1,-803.16"/>
</g>
<!-- node10 -->
<g id="node11" class="node">
<title>node10</title>
<polygon fill="lightgreen" stroke="black" points="810.46,-667.54 810.46,-682.46 743.72,-693 649.34,-693 582.6,-682.46 582.6,-667.54 649.34,-657 743.72,-657 810.46,-667.54"/>
<text text-anchor="middle" x="696.53" y="-671.3" font-family="Times,serif" font-size="14.00">#10 int 10 Order : 5</text>
</g>
<!-- node7&#45;&gt;node10 -->
<g id="edge23" class="edge">
<title>node7&#45;&gt;node10</title>
<path fill="none" stroke="black" stroke-dasharray="1,5" d="M724.76,-729.81C718.58,-721.44 711.87,-711.2 706.42,-701.9"/>
<polygon fill="black" stroke="black" points="709.4,-700.05 701.46,-693.03 703.29,-703.47 709.4,-700.05"/>
</g>
<!-- node7&#45;&gt;node11 -->
<g id="edge29" class="edge">
<title>node7&#45;&gt;node11</title>
<path fill="none" stroke="red" d="M658.97,-729.95C622.12,-720.52 584.52,-707.73 573.53,-693 560.28,-675.24 561.09,-649.56 564.45,-630.17"/>
<polygon fill="red" stroke="red" points="567.93,-630.63 566.51,-620.13 561.07,-629.23 567.93,-630.63"/>
</g>
<!-- node8&#45;&gt;node4 -->
<g id="edge17" class="edge">
<title>node8&#45;&gt;node4</title>
<path fill="none" stroke="fuchsia" stroke-width="2" d="M967.39,-766.03C968.24,-774.03 968.48,-783.77 968.12,-792.75"/>
<polygon fill="fuchsia" stroke="fuchsia" stroke-width="2" points="964.62,-792.59 967.41,-802.81 971.6,-793.08 964.62,-792.59"/>
</g>
<!-- node8&#45;&gt;node9 -->
<g id="edge20" class="edge">
<title>node8&#45;&gt;node9</title>
<path fill="none" stroke="black" d="M968.07,-729.81C971.18,-721.62 974.98,-711.62 978.46,-702.48"/>
<polygon fill="black" stroke="black" points="981.77,-703.62 982.05,-693.03 975.23,-701.13 981.77,-703.62"/>
<text text-anchor="middle" x="983.51" y="-709.28" font-family="Times,serif" font-size="14.00">*0</text>
</g>
<!-- node9&#45;&gt;node0 -->
<g id="edge19" class="edge">
<title>node9&#45;&gt;node0</title>
<path fill="none" stroke="fuchsia" stroke-width="2" d="M1044.56,-693.06C1061.59,-701.51 1078.19,-713.51 1087.53,-730 1095.41,-743.92 1089.04,-750.07 1087.53,-766 1084.41,-798.89 1093.22,-812.48 1073.53,-839 1063.22,-852.89 1048.27,-863.53 1032.61,-871.54"/>
<polygon fill="fuchsia" stroke="fuchsia" stroke-width="2" points="1030.85,-868.5 1023.33,-875.96 1033.86,-874.82 1030.85,-868.5"/>
</g>
<!-- node9&#45;&gt;node11 -->
<g id="edge25" class="edge">
<title>node9&#45;&gt;node11</title>
<path fill="none" stroke="black" d="M898.6,-659.63C833.1,-648.72 744.26,-633.62 675.69,-621.76"/>
<polygon fill="black" stroke="black" points="676.17,-618.29 665.72,-620.04 674.98,-625.19 676.17,-618.29"/>
<text text-anchor="middle" x="685.02" y="-611.1" font-family="Times,serif" font-size="14.00">*0</text>
</g>
<!-- node9&#45;&gt;node11 -->
<g id="edge28" class="edge">
<title>node9&#45;&gt;node11</title>
<path fill="none" stroke="green" d="M905.23,-658.86C842.84,-648.01 756.74,-633.33 687.61,-621.74"/>
<polygon fill="green" stroke="green" points="687.98,-618.25 677.54,-620.05 686.83,-625.15 687.98,-618.25"/>
</g>
<!-- node9&#45;&gt;node16 -->
<g id="edge41" class="edge">
<title>node9&#45;&gt;node16</title>
<path fill="none" stroke="black" d="M1042.92,-656.95C1066.37,-645.89 1088.53,-628.66 1088.53,-603 1088.53,-603 1088.53,-603 1088.53,-492 1088.53,-374.02 1142.28,-341.22 1238.53,-273 1246.31,-267.48 1254.92,-262.83 1263.89,-258.92"/>
<polygon fill="black" stroke="black" points="1265.39,-262.09 1273.35,-255.1 1262.77,-255.6 1265.39,-262.09"/>
<text text-anchor="middle" x="1259.71" y="-266.02" font-family="Times,serif" font-size="14.00">*0</text>
</g>
<!-- node9&#45;&gt;node20 -->
<g id="edge53" class="edge">
<title>node9&#45;&gt;node20</title>
<path fill="none" stroke="black" d="M987.77,-656.79C987.21,-642.41 986.53,-621.37 986.53,-603 986.53,-603 986.53,-603 986.53,-236 986.53,-217.63 998.27,-201.31 1011.1,-188.96"/>
<polygon fill="black" stroke="black" points="1013.58,-191.44 1018.7,-182.17 1008.91,-186.23 1013.58,-191.44"/>
<text text-anchor="middle" x="1010.82" y="-196.85" font-family="Times,serif" font-size="14.00">*0</text>
</g>
<!-- node9&#45;&gt;node22 -->
<g id="edge64" class="edge">
<title>node9&#45;&gt;node22</title>
<path fill="none" stroke="black" d="M1082.7,-660.1C1157.19,-649.1 1261.89,-633.65 1343.58,-621.59"/>
<polygon fill="black" stroke="black" points="1344.55,-624.99 1353.93,-620.06 1343.53,-618.06 1344.55,-624.99"/>
<text text-anchor="middle" x="1337.23" y="-627.37" font-family="Times,serif" font-size="14.00">*0</text>
</g>
<!-- node10&#45;&gt;node7 -->
<g id="edge22" class="edge">
<title>node10&#45;&gt;node7</title>
<path fill="none" stroke="fuchsia" stroke-width="2" d="M713.18,-693.03C719.36,-701.38 726.07,-711.61 731.54,-720.92"/>
<polygon fill="fuchsia" stroke="fuchsia" stroke-width="2" points="728.58,-722.8 736.52,-729.81 734.68,-719.38 728.58,-722.8"/>
</g>
<!-- node10&#45;&gt;node11 -->
<g id="edge27" class="edge">
<title>node10&#45;&gt;node11</title>
<path fill="none" stroke="black" d="M666.59,-656.99C649.86,-647.49 628.81,-635.54 610.78,-625.29"/>
<polygon fill="black" stroke="black" points="612.08,-622.01 601.66,-620.11 608.63,-628.1 612.08,-622.01"/>
<text text-anchor="middle" x="621.6" y="-618.02" font-family="Times,serif" font-size="14.00">*2</text>
</g>
<!-- node11&#45;&gt;node0 -->
<g id="edge24" class="edge">
<title>node11&#45;&gt;node0</title>
<path fill="none" stroke="fuchsia" stroke-width="2" d="M563.65,-620.34C556.35,-639.04 548.08,-669.31 558.53,-693 559.74,-695.75 635.91,-764.52 638.53,-766 688.99,-794.47 709.25,-782.74 763.53,-803 818.22,-823.41 879.07,-852 918.69,-871.43"/>
<polygon fill="fuchsia" stroke="fuchsia" stroke-width="2" points="917.28,-874.64 927.8,-875.92 920.38,-868.36 917.28,-874.64"/>
</g>
<!-- node12 -->
<g id="node13" class="node">
<title>node12</title>
<polygon fill="lightgreen" stroke="black" points="678.46,-521.54 678.46,-536.46 611.72,-547 517.34,-547 450.6,-536.46 450.6,-521.54 517.34,-511 611.72,-511 678.46,-521.54"/>
<text text-anchor="middle" x="564.53" y="-525.3" font-family="Times,serif" font-size="14.00">#12 int 0 Order : 10</text>
</g>
<!-- node11&#45;&gt;node12 -->
<g id="edge31" class="edge">
<title>node11&#45;&gt;node12</title>
<path fill="none" stroke="black" stroke-dasharray="1,5" d="M563.96,-583.81C562.33,-575.79 561.13,-566.05 560.62,-557.07"/>
<polygon fill="black" stroke="black" points="564.12,-556.93 560.35,-547.03 557.12,-557.12 564.12,-556.93"/>
</g>
<!-- node14 -->
<g id="node15" class="node">
<title>node14</title>
<polygon fill="lightgrey" stroke="black" points="588.53,-401 448.53,-401 448.53,-365 588.53,-365 588.53,-401"/>
<text text-anchor="middle" x="518.53" y="-379.3" font-family="Times,serif" font-size="14.00">#14 If Order : 14</text>
</g>
<!-- node11&#45;&gt;node14 -->
<g id="edge37" class="edge">
<title>node11&#45;&gt;node14</title>
<path fill="none" stroke="red" d="M692.57,-588.69C714.17,-583.37 728.95,-575.8 725.53,-565 701.15,-487.99 618.56,-433.71 565.37,-405.75"/>
<polygon fill="red" stroke="red" points="566.94,-402.62 556.45,-401.16 563.74,-408.85 566.94,-402.62"/>
</g>
<!-- node11&#45;&gt;node16 -->
<g id="edge44" class="edge">
<title>node11&#45;&gt;node16</title>
<path fill="none" stroke="green" d="M640.13,-583.99C658.67,-575.92 676.6,-564.14 687.53,-547 696.13,-533.51 698.48,-522.66 687.53,-511 643.77,-464.41 361.49,-542.61 400.53,-492 407.54,-482.91 1063.57,-315.5 1291.53,-257.55"/>
<polygon fill="green" stroke="green" points="1292.58,-260.89 1301.4,-255.04 1290.85,-254.11 1292.58,-260.89"/>
</g>
<!-- node11&#45;&gt;node20 -->
<g id="edge56" class="edge">
<title>node11&#45;&gt;node20</title>
<path fill="none" stroke="green" d="M666.97,-583.95C683.73,-575.92 698.16,-564.17 705.53,-547 711.84,-532.3 715.44,-523.56 705.53,-511 684.24,-484 612.3,-521.15 630.53,-492 679.55,-413.64 742.84,-455.45 817.53,-401 905.35,-336.97 988.29,-236.61 1024.48,-190.15"/>
<polygon fill="green" stroke="green" points="1027.34,-192.18 1030.68,-182.12 1021.8,-187.9 1027.34,-192.18"/>
</g>
<!-- node12&#45;&gt;node11 -->
<g id="edge30" class="edge">
<title>node12&#45;&gt;node11</title>
<path fill="none" stroke="fuchsia" stroke-width="2" d="M572.07,-547.03C573.71,-555.03 574.91,-564.77 575.43,-573.75"/>
<polygon fill="fuchsia" stroke="fuchsia" stroke-width="2" points="571.93,-573.92 575.71,-583.81 578.93,-573.72 571.93,-573.92"/>
</g>
<!-- node12&#45;&gt;node13 -->
<g id="edge34" class="edge">
<title>node12&#45;&gt;node13</title>
<path fill="none" stroke="black" d="M495.7,-514.31C441,-503.43 363.86,-488.09 303.16,-476.02"/>
<polygon fill="black" stroke="black" points="303.67,-472.55 293.18,-474.03 302.31,-479.42 303.67,-472.55"/>
<text text-anchor="middle" x="312.61" y="-465.58" font-family="Times,serif" font-size="14.00">*1</text>
</g>
<!-- node13&#45;&gt;node0 -->
<g id="edge32" class="edge">
<title>node13&#45;&gt;node0</title>
<path fill="none" stroke="fuchsia" stroke-width="2" d="M207.53,-474.22C207.53,-488.59 207.53,-509.63 207.53,-528 207.53,-822 207.53,-822 207.53,-822 207.53,-887.63 666.14,-894.07 868.03,-893.73"/>
<polygon fill="fuchsia" stroke="fuchsia" stroke-width="2" points="868.33,-897.23 878.32,-893.71 868.31,-890.23 868.33,-897.23"/>
</g>
<!-- node13&#45;&gt;node14 -->
<g id="edge36" class="edge">
<title>node13&#45;&gt;node14</title>
<path fill="none" stroke="black" d="M282.02,-437.99C329.26,-427.21 390.34,-413.26 438.6,-402.25"/>
<polygon fill="black" stroke="black" points="439.41,-405.65 448.38,-400.02 437.85,-398.83 439.41,-405.65"/>
<text text-anchor="middle" x="432.59" y="-408.59" font-family="Times,serif" font-size="14.00">*0</text>
</g>
<!-- node14&#45;&gt;node0 -->
<g id="edge35" class="edge">
<title>node14&#45;&gt;node0</title>
<path fill="none" stroke="fuchsia" stroke-width="2" d="M502.44,-401.28C484.39,-420.21 453.81,-450.92 424.53,-474 412.91,-483.16 407.44,-482.01 396.53,-492 336.03,-547.43 283.53,-555.95 283.53,-638 283.53,-749 283.53,-749 283.53,-749 283.53,-861.8 430.75,-752.32 531.53,-803 552.03,-813.31 547.91,-828.94 568.53,-839 619.76,-864.01 769.11,-879.26 868.23,-886.91"/>
<polygon fill="fuchsia" stroke="fuchsia" stroke-width="2" points="868.02,-890.4 878.26,-887.67 868.55,-883.42 868.02,-890.4"/>
</g>
<!-- node15 -->
<g id="node16" class="node">
<title>node15</title>
<polygon fill="lightgrey" stroke="black" points="779.03,-328 616.03,-328 616.03,-292 779.03,-292 779.03,-328"/>
<text text-anchor="middle" x="697.53" y="-306.3" font-family="Times,serif" font-size="14.00">#15 false Order : 18</text>
</g>
<!-- node14&#45;&gt;node15 -->
<g id="edge39" class="edge">
<title>node14&#45;&gt;node15</title>
<path fill="none" stroke="red" d="M555.55,-364.99C579.65,-355.01 611.53,-342.32 639,-331.76"/>
<polygon fill="red" stroke="red" points="640.43,-334.96 648.51,-328.11 637.92,-328.42 640.43,-334.96"/>
</g>
<!-- node17 -->
<g id="node18" class="node">
<title>node17</title>
<polygon fill="lightgrey" stroke="black" points="598.03,-328 439.03,-328 439.03,-292 598.03,-292 598.03,-328"/>
<text text-anchor="middle" x="518.53" y="-306.3" font-family="Times,serif" font-size="14.00">#17 true Order : 15</text>
</g>
<!-- node14&#45;&gt;node17 -->
<g id="edge47" class="edge">
<title>node14&#45;&gt;node17</title>
<path fill="none" stroke="red" d="M512.65,-364.81C511.81,-356.79 511.58,-347.05 511.95,-338.07"/>
<polygon fill="red" stroke="red" points="515.45,-338.25 512.67,-328.03 508.47,-337.75 515.45,-338.25"/>
</g>
<!-- node15&#45;&gt;node14 -->
<g id="edge38" class="edge">
<title>node15&#45;&gt;node14</title>
<path fill="none" stroke="fuchsia" stroke-width="2" d="M660.26,-328.11C636.09,-338.11 604.21,-350.81 576.77,-361.36"/>
<polygon fill="fuchsia" stroke="fuchsia" stroke-width="2" points="575.35,-358.15 567.26,-364.99 577.85,-364.69 575.35,-358.15"/>
</g>
<!-- node15&#45;&gt;node16 -->
<g id="edge45" class="edge">
<title>node15&#45;&gt;node16</title>
<path fill="none" stroke="red" d="M779.14,-300.36C891.92,-288.43 1096.89,-266.74 1232.9,-252.35"/>
<polygon fill="red" stroke="red" points="1233.4,-255.82 1242.98,-251.29 1232.66,-248.86 1233.4,-255.82"/>
</g>
<!-- node16&#45;&gt;node0 -->
<g id="edge40" class="edge">
<title>node16&#45;&gt;node0</title>
<path fill="none" stroke="fuchsia" stroke-width="2" d="M1406.04,-255.01C1475.14,-289.2 1615.53,-373.29 1615.53,-492 1615.53,-639 1615.53,-639 1615.53,-639 1615.53,-796.99 1489.83,-824.06 1335.53,-858 1214.84,-884.54 1178.36,-861.35 1055.07,-875.52"/>
<polygon fill="fuchsia" stroke="fuchsia" stroke-width="2" points="1054.37,-872.08 1044.86,-876.75 1055.21,-879.03 1054.37,-872.08"/>
</g>
<!-- node18 -->
<g id="node19" class="node">
<title>node18</title>
<polygon fill="lightgrey" stroke="black" points="1450.03,-182 1287.03,-182 1287.03,-146 1450.03,-146 1450.03,-182"/>
<text text-anchor="middle" x="1368.53" y="-160.3" font-family="Times,serif" font-size="14.00">#18 Goto Order : 20</text>
</g>
<!-- node16&#45;&gt;node18 -->
<g id="edge49" class="edge">
<title>node16&#45;&gt;node18</title>
<path fill="none" stroke="red" d="M1362.65,-218.81C1361.81,-210.79 1361.58,-201.05 1361.95,-192.07"/>
<polygon fill="red" stroke="red" points="1365.45,-192.25 1362.67,-182.03 1358.47,-191.75 1365.45,-192.25"/>
</g>
<!-- node21 -->
<g id="node22" class="node">
<title>node21</title>
<polygon fill="lightgrey" stroke="black" points="1548.53,-109 1294.53,-109 1294.53,-73 1548.53,-73 1548.53,-109"/>
<text text-anchor="middle" x="1421.53" y="-87.3" font-family="Times,serif" font-size="14.00">#21 Merge : Merge34 Order : 21</text>
</g>
<!-- node16&#45;&gt;node21 -->
<g id="edge61" class="edge">
<title>node16&#45;&gt;node21</title>
<path fill="none" stroke="green" d="M1320.9,-218.94C1304.47,-210.49 1287.87,-198.49 1278.53,-182 1270.65,-168.08 1269.43,-159.16 1278.53,-146 1288.5,-131.58 1302.84,-121.01 1318.63,-113.26"/>
<polygon fill="green" stroke="green" points="1320.39,-116.31 1328.08,-109.01 1317.52,-109.92 1320.39,-116.31"/>
</g>
<!-- node17&#45;&gt;node14 -->
<g id="edge46" class="edge">
<title>node17&#45;&gt;node14</title>
<path fill="none" stroke="fuchsia" stroke-width="2" d="M524.39,-328.03C525.24,-336.03 525.48,-345.77 525.12,-354.75"/>
<polygon fill="fuchsia" stroke="fuchsia" stroke-width="2" points="521.62,-354.59 524.41,-364.81 528.6,-355.08 521.62,-354.59"/>
</g>
<!-- node19 -->
<g id="node20" class="node">
<title>node19</title>
<polygon fill="lightgrey" stroke="black" points="621.53,-255 415.53,-255 415.53,-219 621.53,-219 621.53,-255"/>
<text text-anchor="middle" x="518.53" y="-233.3" font-family="Times,serif" font-size="14.00">#19 LabelNode Order : 16</text>
</g>
<!-- node17&#45;&gt;node19 -->
<g id="edge51" class="edge">
<title>node17&#45;&gt;node19</title>
<path fill="none" stroke="red" d="M512.65,-291.81C511.81,-283.79 511.58,-274.05 511.95,-265.07"/>
<polygon fill="red" stroke="red" points="515.45,-265.25 512.67,-255.03 508.47,-264.75 515.45,-265.25"/>
</g>
<!-- node18&#45;&gt;node16 -->
<g id="edge48" class="edge">
<title>node18&#45;&gt;node16</title>
<path fill="none" stroke="fuchsia" stroke-width="2" d="M1374.39,-182.03C1375.24,-190.03 1375.48,-199.77 1375.12,-208.75"/>
<polygon fill="fuchsia" stroke="fuchsia" stroke-width="2" points="1371.62,-208.59 1374.41,-218.81 1378.6,-209.08 1371.62,-208.59"/>
</g>
<!-- node18&#45;&gt;node21 -->
<g id="edge59" class="edge">
<title>node18&#45;&gt;node21</title>
<path fill="none" stroke="red" d="M1381.36,-145.81C1387.74,-137.27 1395.58,-126.77 1402.63,-117.32"/>
<polygon fill="red" stroke="red" points="1405.64,-119.14 1408.82,-109.03 1400.03,-114.95 1405.64,-119.14"/>
</g>
<!-- node19&#45;&gt;node17 -->
<g id="edge50" class="edge">
<title>node19&#45;&gt;node17</title>
<path fill="none" stroke="fuchsia" stroke-width="2" d="M524.39,-255.03C525.24,-263.03 525.48,-272.77 525.12,-281.75"/>
<polygon fill="fuchsia" stroke="fuchsia" stroke-width="2" points="521.62,-281.59 524.41,-291.81 528.6,-282.08 521.62,-281.59"/>
</g>
<!-- node19&#45;&gt;node20 -->
<g id="edge57" class="edge">
<title>node19&#45;&gt;node20</title>
<path fill="none" stroke="red" d="M543.34,-218.95C555.01,-211.82 569.44,-204.22 583.53,-200 642.09,-182.47 794.36,-173.4 907.77,-168.94"/>
<polygon fill="red" stroke="red" points="908.07,-172.43 917.93,-168.54 907.8,-165.43 908.07,-172.43"/>
</g>
<!-- node20&#45;&gt;node0 -->
<g id="edge52" class="edge">
<title>node20&#45;&gt;node0</title>
<path fill="none" stroke="fuchsia" stroke-width="2" d="M1068.37,-182.17C1083.73,-194.98 1100.53,-214.03 1100.53,-236 1100.53,-347 1100.53,-347 1100.53,-347 1100.53,-417.44 1164.53,-421.56 1164.53,-492 1164.53,-603 1164.53,-603 1164.53,-603 1164.53,-712.53 1161.29,-752.94 1093.53,-839 1082.16,-853.44 1066.28,-864.05 1049.46,-871.83"/>
<polygon fill="fuchsia" stroke="fuchsia" stroke-width="2" points="1047.86,-868.71 1040.04,-875.87 1050.61,-875.15 1047.86,-868.71"/>
</g>
<!-- node20&#45;&gt;node21 -->
<g id="edge60" class="edge">
<title>node20&#45;&gt;node21</title>
<path fill="none" stroke="red" d="M1128.21,-145.99C1183.35,-135.43 1255.7,-121.82 1314.77,-110.92"/>
<polygon fill="red" stroke="red" points="1315.68,-114.31 1324.88,-109.05 1314.41,-107.42 1315.68,-114.31"/>
</g>
<!-- node20&#45;&gt;node21 -->
<g id="edge62" class="edge">
<title>node20&#45;&gt;node21</title>
<path fill="none" stroke="green" d="M1139.93,-145.99C1197.2,-135.45 1269.49,-121.88 1326.51,-110.98"/>
<polygon fill="green" stroke="green" points="1327.45,-114.37 1336.61,-109.05 1326.13,-107.49 1327.45,-114.37"/>
</g>
<!-- node21&#45;&gt;node0 -->
<g id="edge58" class="edge">
<title>node21&#45;&gt;node0</title>
<path fill="none" stroke="fuchsia" stroke-width="2" d="M1455.76,-109.09C1520.3,-144.01 1653.53,-230.14 1653.53,-346 1653.53,-712 1653.53,-712 1653.53,-712 1653.53,-807.02 1570.64,-805.99 1481.53,-839 1304.33,-904.65 1243.39,-853.96 1054.81,-875.55"/>
<polygon fill="fuchsia" stroke="fuchsia" stroke-width="2" points="1054.37,-872.08 1044.86,-876.75 1055.2,-879.03 1054.37,-872.08"/>
</g>
<!-- node21&#45;&gt;node22 -->
<g id="edge66" class="edge">
<title>node21&#45;&gt;node22</title>
<path fill="none" stroke="green" d="M1438.76,-109.24C1456.11,-128.69 1477.86,-160.41 1459.53,-182 1393.94,-259.26 1318.97,-162.96 1234.53,-219 1128.4,-289.43 1076.3,-389.5 1150.53,-493 1193.81,-553.34 1272.66,-580.39 1341.13,-592.33"/>
<polygon fill="green" stroke="green" points="1340.72,-595.81 1351.16,-593.99 1341.86,-588.91 1340.72,-595.81"/>
</g>
<!-- node23 -->
<g id="node24" class="node">
<title>node23</title>
<polygon fill="lightgrey" stroke="black" points="1732.03,-36 1481.03,-36 1481.03,0 1732.03,0 1732.03,-36"/>
<text text-anchor="middle" x="1606.53" y="-14.3" font-family="Times,serif" font-size="14.00">#23 ReturnValue : int Order : 23</text>
</g>
<!-- node21&#45;&gt;node23 -->
<g id="edge69" class="edge">
<title>node21&#45;&gt;node23</title>
<path fill="none" stroke="red" d="M1465.84,-72.99C1491.85,-63.01 1524.91,-50.32 1552.45,-39.76"/>
<polygon fill="red" stroke="red" points="1553.86,-42.96 1561.94,-36.11 1551.35,-36.43 1553.86,-42.96"/>
</g>
<!-- node22&#45;&gt;node0 -->
<g id="edge63" class="edge">
<title>node22&#45;&gt;node0</title>
<path fill="none" stroke="fuchsia" stroke-width="2" d="M1494.93,-620.17C1556.64,-663.83 1704.1,-781.07 1629.53,-858 1608.33,-879.87 1137.42,-873.31 1054.98,-876.1"/>
<polygon fill="fuchsia" stroke="fuchsia" stroke-width="2" points="1054.63,-872.61 1044.85,-876.67 1055.03,-879.6 1054.63,-872.61"/>
</g>
<!-- node22&#45;&gt;node23 -->
<g id="edge68" class="edge">
<title>node22&#45;&gt;node23</title>
<path fill="none" stroke="black" d="M1481.86,-583.95C1514.33,-545.38 1597.53,-446.95 1597.53,-347 1597.53,-347 1597.53,-347 1597.53,-90 1597.53,-75.65 1597.53,-59.67 1598.38,-46.51"/>
<polygon fill="black" stroke="black" points="1601.89,-46.49 1599.3,-36.22 1594.92,-45.86 1601.89,-46.49"/>
<text text-anchor="middle" x="1606.09" y="-51.33" font-family="Times,serif" font-size="14.00">*0</text>
</g>
<!-- node22&#45;&gt;node23 -->
<g id="edge70" class="edge">
<title>node22&#45;&gt;node23</title>
<path fill="none" stroke="green" d="M1491.35,-583.95C1532.33,-545.38 1615.53,-446.95 1615.53,-347 1615.53,-347 1615.53,-347 1615.53,-90 1615.53,-75.65 1615.53,-59.67 1614.68,-46.51"/>
<polygon fill="green" stroke="green" points="1618.14,-45.86 1613.76,-36.22 1611.17,-46.49 1618.14,-45.86"/>
</g>
<!-- node23&#45;&gt;node0 -->
<g id="edge67" class="edge">
<title>node23&#45;&gt;node0</title>
<path fill="none" stroke="fuchsia" stroke-width="2" d="M1649.03,-36.04C1670.28,-47.64 1691.53,-65.39 1691.53,-90 1691.53,-822 1691.53,-822 1691.53,-822 1691.53,-848.67 1668.7,-849.18 1643.53,-858 1583.75,-878.94 1151.79,-869.6 1054.95,-875.83"/>
<polygon fill="fuchsia" stroke="fuchsia" stroke-width="2" points="1054.52,-872.35 1044.85,-876.67 1055.1,-879.33 1054.52,-872.35"/>
</g>
<!-- c0 -->
<!-- c1 -->
<!-- c0&#45;&gt;c1 -->
<g id="edge71" class="edge">
<title>c0&#45;&gt;c1</title>
<path fill="none" stroke="red" d="M1913.42,-894C1924.64,-894 1982.77,-894 2008.39,-894"/>
<polygon fill="red" stroke="red" points="2008.59,-897.5 2018.59,-894 2008.59,-890.5 2008.59,-897.5"/>
<text text-anchor="middle" x="1966.03" y="-900.8" font-family="Times,serif" font-size="14.00">Control flow</text>
</g>
<!-- c2 -->
<!-- c3 -->
<!-- c2&#45;&gt;c3 -->
<g id="edge72" class="edge">
<title>c2&#45;&gt;c3</title>
<path fill="none" stroke="red" stroke-dasharray="5,2" d="M1706.61,-894C1723.58,-894 1839.74,-894 1877.61,-894"/>
<polygon fill="red" stroke="red" points="1877.7,-897.5 1887.7,-894 1877.7,-890.5 1877.7,-897.5"/>
<text text-anchor="middle" x="1797.03" y="-900.8" font-family="Times,serif" font-size="14.00">Control flow back edge</text>
</g>
<!-- d0 -->
<!-- d1 -->
<!-- d0&#45;&gt;d1 -->
<g id="edge73" class="edge">
<title>d0&#45;&gt;d1</title>
<path fill="none" stroke="black" d="M1595.39,-894C1604.94,-894 1648.84,-894 1670.45,-894"/>
<polygon fill="black" stroke="black" points="1670.68,-897.5 1680.68,-894 1670.68,-890.5 1670.68,-897.5"/>
<text text-anchor="middle" x="1638.03" y="-900.8" font-family="Times,serif" font-size="14.00">Data flow</text>
</g>
<!-- d2 -->
<!-- d3 -->
<!-- d2&#45;&gt;d3 -->
<g id="edge74" class="edge">
<title>d2&#45;&gt;d3</title>
<path fill="none" stroke="black" stroke-dasharray="1,5" d="M1469.34,-894C1479.99,-894 1535,-894 1559.61,-894"/>
<polygon fill="black" stroke="black" points="1559.68,-897.5 1569.68,-894 1559.68,-890.5 1559.68,-897.5"/>
<text text-anchor="middle" x="1519.53" y="-900.8" font-family="Times,serif" font-size="14.00">Declaration</text>
</g>
<!-- d4 -->
<!-- d5 -->
<!-- d4&#45;&gt;d5 -->
<g id="edge75" class="edge">
<title>d4&#45;&gt;d5</title>
<path fill="none" stroke="blue" d="M1326.63,-894C1339.25,-894 1405.41,-894 1433.21,-894"/>
<polygon fill="blue" stroke="blue" points="1433.37,-897.5 1443.37,-894 1433.37,-890.5 1433.37,-897.5"/>
<text text-anchor="middle" x="1385.03" y="-900.8" font-family="Times,serif" font-size="14.00">PHI Data flow</text>
</g>
<!-- d6 -->
<!-- d7 -->
<!-- d6&#45;&gt;d7 -->
<g id="edge76" class="edge">
<title>d6&#45;&gt;d7</title>
<path fill="none" stroke="green" d="M1189.53,-894C1201.47,-894 1263.83,-894 1290.46,-894"/>
<polygon fill="green" stroke="green" points="1290.48,-897.5 1300.48,-894 1290.48,-890.5 1290.48,-897.5"/>
<text text-anchor="middle" x="1245.03" y="-900.8" font-family="Times,serif" font-size="14.00">Memory flow</text>
</g>
<!-- d8 -->
<!-- d9 -->
<!-- d8&#45;&gt;d9 -->
<g id="edge77" class="edge">
<title>d8&#45;&gt;d9</title>
<path fill="none" stroke="fuchsia" d="M1066.64,-894C1077.68,-894 1129.2,-894 1153.19,-894"/>
<polygon fill="fuchsia" stroke="fuchsia" points="1153.43,-897.5 1163.43,-894 1153.43,-890.5 1153.43,-897.5"/>
<text text-anchor="middle" x="1115.03" y="-900.8" font-family="Times,serif" font-size="14.00">Dominance</text>
</g>
</g>
</svg>
