<?xml version="1.0" encoding="UTF-8" standalone="no"?>
<!DOCTYPE svg PUBLIC "-//W3C//DTD SVG 1.1//EN"
 "http://www.w3.org/Graphics/SVG/1.1/DTD/svg11.dtd">
<!-- Generated by graphviz version 2.43.0 (0)
 -->
<!-- Title: debugoutput Pages: 1 -->
<svg width="1887pt" height="797pt"
 viewBox="0.00 0.00 1887.00 796.80" xmlns="http://www.w3.org/2000/svg" xmlns:xlink="http://www.w3.org/1999/xlink">
<g id="graph0" class="graph" transform="scale(1 1) rotate(0) translate(4 792.8)">
<title>debugoutput</title>
<polygon fill="white" stroke="transparent" points="-4,4 -4,-792.8 1883,-792.8 1883,4 -4,4"/>
<g id="clust1" class="cluster">
<title>cluster_000</title>
<polygon fill="none" stroke="black" points="915,-738.2 915,-780.8 1754,-780.8 1754,-738.2 915,-738.2"/>
<text text-anchor="middle" x="1334.5" y="-765.6" font-family="Times,serif" font-size="14.00">Legend</text>
</g>
<!-- node0 -->
<g id="node1" class="node">
<title>node0</title>
<polygon fill="lightgrey" stroke="black" points="905,-766 739,-766 739,-730 905,-730 905,-766"/>
<text text-anchor="middle" x="822" y="-744.3" font-family="Times,serif" font-size="14.00">#0 Method Order : 0</text>
</g>
<!-- node1 -->
<g id="node2" class="node">
<title>node1</title>
<polygon fill="lightgrey" stroke="black" points="1321,-693 1135,-693 1135,-657 1321,-657 1321,-693"/>
<text text-anchor="middle" x="1228" y="-671.3" font-family="Times,serif" font-size="14.00">#1 arg0 : int Order : 11</text>
</g>
<!-- node0&#45;&gt;node1 -->
<g id="edge2" class="edge">
<title>node0&#45;&gt;node1</title>
<path fill="none" stroke="red" d="M902.41,-729.93C944.03,-722.41 1045.93,-705.13 1124.8,-692.14"/>
<polygon fill="red" stroke="red" points="1125.48,-695.58 1134.78,-690.5 1124.35,-688.67 1125.48,-695.58"/>
</g>
<!-- node2 -->
<g id="node3" class="node">
<title>node2</title>
<polygon fill="lightgrey" stroke="black" points="910.5,-693 733.5,-693 733.5,-657 910.5,-657 910.5,-693"/>
<text text-anchor="middle" x="822" y="-671.3" font-family="Times,serif" font-size="14.00">#2 arg1 : int Order : 9</text>
</g>
<!-- node0&#45;&gt;node2 -->
<g id="edge4" class="edge">
<title>node0&#45;&gt;node2</title>
<path fill="none" stroke="red" d="M816.12,-729.81C815.28,-721.79 815.05,-712.05 815.42,-703.07"/>
<polygon fill="red" stroke="red" points="818.92,-703.25 816.14,-693.03 811.94,-702.75 818.92,-703.25"/>
</g>
<!-- node3 -->
<g id="node4" class="node">
<title>node3</title>
<polygon fill="lightgrey" stroke="black" points="258.5,-401 81.5,-401 81.5,-365 258.5,-365 258.5,-401"/>
<text text-anchor="middle" x="170" y="-379.3" font-family="Times,serif" font-size="14.00">#3 arg2 : int Order : 8</text>
</g>
<!-- node0&#45;&gt;node3 -->
<g id="edge6" class="edge">
<title>node0&#45;&gt;node3</title>
<path fill="none" stroke="red" d="M738.57,-742.09C635.01,-735.6 453.27,-723.63 298,-712 181.67,-703.28 38,-792.66 38,-676 38,-676 38,-676 38,-455 38,-431.6 54.91,-415.79 76.65,-405.16"/>
<polygon fill="red" stroke="red" points="78.16,-408.31 85.88,-401.05 75.32,-401.92 78.16,-408.31"/>
</g>
<!-- node4 -->
<g id="node5" class="node">
<title>node4</title>
<polygon fill="lightgrey" stroke="black" points="1117,-693 929,-693 929,-657 1117,-657 1117,-693"/>
<text text-anchor="middle" x="1023" y="-671.3" font-family="Times,serif" font-size="14.00">#4 LabelNode Order : 6</text>
</g>
<!-- node0&#45;&gt;node4 -->
<g id="edge8" class="edge">
<title>node0&#45;&gt;node4</title>
<path fill="none" stroke="red" d="M864.29,-729.99C891.72,-719.92 927.92,-707.1 958.84,-696.48"/>
<polygon fill="red" stroke="red" points="960.35,-699.66 968.68,-693.11 958.09,-693.04 960.35,-699.66"/>
</g>
<!-- node6 -->
<g id="node7" class="node">
<title>node6</title>
<polygon fill="orange" stroke="black" points="713.89,-594.54 713.89,-609.46 620.23,-620 487.77,-620 394.11,-609.46 394.11,-594.54 487.77,-584 620.23,-584 713.89,-594.54"/>
<text text-anchor="middle" x="554" y="-598.3" font-family="Times,serif" font-size="14.00">#6 NewArray : int[] Order : 5</text>
</g>
<!-- node0&#45;&gt;node6 -->
<g id="edge13" class="edge">
<title>node0&#45;&gt;node6</title>
<path fill="none" stroke="black" d="M738.98,-745.99C622.19,-743.7 421.27,-736.23 399,-712 365.66,-675.73 426.92,-643.25 482.05,-623.37"/>
<polygon fill="black" stroke="black" points="483.25,-626.66 491.53,-620.05 480.94,-620.05 483.25,-626.66"/>
</g>
<!-- node11 -->
<g id="node8" class="node">
<title>node11</title>
<polygon fill="lightgreen" stroke="black" points="677.93,-667.54 677.93,-682.46 611.19,-693 516.81,-693 450.07,-682.46 450.07,-667.54 516.81,-657 611.19,-657 677.93,-667.54"/>
<text text-anchor="middle" x="564" y="-671.3" font-family="Times,serif" font-size="14.00">#11 int 10 Order : 1</text>
</g>
<!-- node0&#45;&gt;node11 -->
<g id="edge24" class="edge">
<title>node0&#45;&gt;node11</title>
<path fill="none" stroke="black" stroke-dasharray="1,5" d="M749.62,-729.96C728.08,-724.3 704.52,-717.92 683,-712 663.67,-706.68 642.72,-700.82 623.83,-695.41"/>
<polygon fill="black" stroke="black" points="624.73,-692.03 614.16,-692.63 622.8,-698.76 624.73,-692.03"/>
</g>
<!-- node7 -->
<g id="node9" class="node">
<title>node7</title>
<polygon fill="lightgreen" stroke="black" points="1850.77,-667.54 1850.77,-682.46 1787.64,-693 1698.36,-693 1635.23,-682.46 1635.23,-667.54 1698.36,-657 1787.64,-657 1850.77,-667.54"/>
<text text-anchor="middle" x="1743" y="-671.3" font-family="Times,serif" font-size="14.00">#7 int 30 Order : 4</text>
</g>
<!-- node0&#45;&gt;node7 -->
<g id="edge15" class="edge">
<title>node0&#45;&gt;node7</title>
<path fill="none" stroke="black" stroke-dasharray="1,5" d="M902.46,-729.95C1059.7,-713.18 1456.24,-736.52 1612,-712 1634.98,-708.38 1659.72,-701.64 1681.49,-694.97"/>
<polygon fill="black" stroke="black" points="1682.77,-698.23 1691.27,-691.91 1680.68,-691.55 1682.77,-698.23"/>
</g>
<!-- node8 -->
<g id="node10" class="node">
<title>node8</title>
<polygon fill="lightgreen" stroke="black" points="299.77,-667.54 299.77,-682.46 236.64,-693 147.36,-693 84.23,-682.46 84.23,-667.54 147.36,-657 236.64,-657 299.77,-667.54"/>
<text text-anchor="middle" x="192" y="-671.3" font-family="Times,serif" font-size="14.00">#8 int 20 Order : 3</text>
</g>
<!-- node0&#45;&gt;node8 -->
<g id="edge17" class="edge">
<title>node0&#45;&gt;node8</title>
<path fill="none" stroke="black" stroke-dasharray="1,5" d="M738.56,-746.89C635.64,-745.57 455.96,-739.14 305,-712 283.99,-708.22 261.45,-702.17 242.02,-696.09"/>
<polygon fill="black" stroke="black" points="243.05,-692.74 232.46,-693.02 240.91,-699.41 243.05,-692.74"/>
</g>
<!-- node9 -->
<g id="node11" class="node">
<title>node9</title>
<polygon fill="lightgreen" stroke="black" points="1541.11,-667.54 1541.11,-682.46 1481.88,-693 1398.12,-693 1338.89,-682.46 1338.89,-667.54 1398.12,-657 1481.88,-657 1541.11,-667.54"/>
<text text-anchor="middle" x="1440" y="-671.3" font-family="Times,serif" font-size="14.00">#9 int 0 Order : 2</text>
</g>
<!-- node0&#45;&gt;node9 -->
<g id="edge19" class="edge">
<title>node0&#45;&gt;node9</title>
<path fill="none" stroke="black" stroke-dasharray="1,5" d="M902.27,-729.96C1087.21,-704.22 1135.5,-715.5 1321,-693 1331.72,-691.7 1343,-690.16 1354.19,-688.54"/>
<polygon fill="black" stroke="black" points="1355.02,-691.95 1364.41,-687.04 1354.01,-685.03 1355.02,-691.95"/>
</g>
<!-- node1&#45;&gt;node0 -->
<g id="edge1" class="edge">
<title>node1&#45;&gt;node0</title>
<path fill="none" stroke="green" stroke-width="2" d="M1134.93,-692.87C1059.92,-705.81 960.59,-722.67 920,-730 918.5,-730.27 916.99,-730.55 915.46,-730.82"/>
<polygon fill="green" stroke="green" stroke-width="2" points="914.47,-727.45 905.26,-732.7 915.73,-734.33 914.47,-727.45"/>
</g>
<!-- node10 -->
<g id="node12" class="node">
<title>node10</title>
<polygon fill="orange" stroke="black" points="1564.56,-594.54 1564.56,-609.46 1442.97,-620 1271.03,-620 1149.44,-609.46 1149.44,-594.54 1271.03,-584 1442.97,-584 1564.56,-594.54"/>
<text text-anchor="middle" x="1357" y="-598.3" font-family="Times,serif" font-size="14.00">#10 NumericCondition : EQ Order : 12</text>
</g>
<!-- node1&#45;&gt;node10 -->
<g id="edge21" class="edge">
<title>node1&#45;&gt;node10</title>
<path fill="none" stroke="black" d="M1258.9,-656.99C1276.32,-647.4 1298.28,-635.32 1317.01,-625.01"/>
<polygon fill="black" stroke="black" points="1318.83,-628 1325.91,-620.11 1315.46,-621.87 1318.83,-628"/>
<text text-anchor="middle" x="1314.1" y="-632.56" font-family="Times,serif" font-size="14.00">*0</text>
</g>
<!-- node2&#45;&gt;node0 -->
<g id="edge3" class="edge">
<title>node2&#45;&gt;node0</title>
<path fill="none" stroke="green" stroke-width="2" d="M827.86,-693.03C828.71,-701.03 828.95,-710.77 828.59,-719.75"/>
<polygon fill="green" stroke="green" stroke-width="2" points="825.09,-719.59 827.88,-729.81 832.07,-720.08 825.09,-719.59"/>
</g>
<!-- node12 -->
<g id="node13" class="node">
<title>node12</title>
<polygon fill="lightgrey" stroke="black" points="886.5,-547 635.5,-547 635.5,-511 886.5,-511 886.5,-547"/>
<text text-anchor="middle" x="761" y="-525.3" font-family="Times,serif" font-size="14.00">#12 ArrayStore : int[] Order : 10</text>
</g>
<!-- node2&#45;&gt;node12 -->
<g id="edge27" class="edge">
<title>node2&#45;&gt;node12</title>
<path fill="none" stroke="black" d="M820.27,-656.78C817.45,-634.43 810.41,-594.77 794,-565 792.06,-561.48 789.68,-558.05 787.1,-554.79"/>
<polygon fill="black" stroke="black" points="789.61,-552.35 780.4,-547.12 784.34,-556.95 789.61,-552.35"/>
<text text-anchor="middle" x="798.69" y="-551.51" font-family="Times,serif" font-size="14.00">*1</text>
</g>
<!-- node3&#45;&gt;node0 -->
<g id="edge5" class="edge">
<title>node3&#45;&gt;node0</title>
<path fill="none" stroke="green" stroke-width="2" d="M102.53,-401.05C77.89,-411.57 56,-428.37 56,-455 56,-676 56,-676 56,-676 56,-792.66 199.67,-703.28 316,-712 460.07,-722.79 626.92,-733.87 728.48,-740.6"/>
<polygon fill="green" stroke="green" stroke-width="2" points="728.5,-744.11 738.71,-741.28 728.96,-737.12 728.5,-744.11"/>
</g>
<!-- node13 -->
<g id="node14" class="node">
<title>node13</title>
<polygon fill="lightgrey" stroke="black" points="487.5,-328 236.5,-328 236.5,-292 487.5,-292 487.5,-328"/>
<text text-anchor="middle" x="362" y="-306.3" font-family="Times,serif" font-size="14.00">#13 ArrayStore : int[] Order : 15</text>
</g>
<!-- node3&#45;&gt;node13 -->
<g id="edge33" class="edge">
<title>node3&#45;&gt;node13</title>
<path fill="none" stroke="black" d="M215.99,-364.99C243.1,-354.97 277.59,-342.21 306.25,-331.62"/>
<polygon fill="black" stroke="black" points="307.56,-334.86 315.72,-328.11 305.13,-328.3 307.56,-334.86"/>
<text text-anchor="middle" x="301.65" y="-338.63" font-family="Times,serif" font-size="14.00">*1</text>
</g>
<!-- node15 -->
<g id="node17" class="node">
<title>node15</title>
<polygon fill="lightgrey" stroke="black" points="881.5,-255 630.5,-255 630.5,-219 881.5,-219 881.5,-255"/>
<text text-anchor="middle" x="756" y="-233.3" font-family="Times,serif" font-size="14.00">#15 ArrayStore : int[] Order : 19</text>
</g>
<!-- node3&#45;&gt;node15 -->
<g id="edge41" class="edge">
<title>node3&#45;&gt;node15</title>
<path fill="none" stroke="black" d="M178.55,-364.83C190.66,-341.24 212.92,-300.71 227,-292 259.73,-271.75 474.26,-254.97 619.87,-245.73"/>
<polygon fill="black" stroke="black" points="620.47,-249.2 630.23,-245.08 620.03,-242.21 620.47,-249.2"/>
<text text-anchor="middle" x="612.67" y="-250.95" font-family="Times,serif" font-size="14.00">*1</text>
</g>
<!-- node17 -->
<g id="node20" class="node">
<title>node17</title>
<polygon fill="lightgrey" stroke="black" points="517,-109 281,-109 281,-73 517,-73 517,-109"/>
<text text-anchor="middle" x="399" y="-87.3" font-family="Times,serif" font-size="14.00">#17 ArrayLoad : int Order : 21</text>
</g>
<!-- node3&#45;&gt;node17 -->
<g id="edge52" class="edge">
<title>node3&#45;&gt;node17</title>
<path fill="none" stroke="black" d="M170,-364.78C170,-350.41 170,-329.37 170,-311 170,-311 170,-311 170,-163 170,-138.46 218.58,-121.46 270.99,-110.27"/>
<polygon fill="black" stroke="black" points="271.72,-113.69 280.81,-108.24 270.31,-106.83 271.72,-113.69"/>
<text text-anchor="middle" x="264.76" y="-116.48" font-family="Times,serif" font-size="14.00">*1</text>
</g>
<!-- node4&#45;&gt;node0 -->
<g id="edge7" class="edge">
<title>node4&#45;&gt;node0</title>
<path fill="none" stroke="green" stroke-width="2" d="M980.42,-693.11C952.92,-703.2 916.72,-716.03 885.83,-726.63"/>
<polygon fill="green" stroke="green" stroke-width="2" points="884.33,-723.45 876,-729.99 886.6,-730.07 884.33,-723.45"/>
</g>
<!-- node5 -->
<g id="node6" class="node">
<title>node5</title>
<polygon fill="lightgrey" stroke="black" points="1117,-620 929,-620 929,-584 1117,-584 1117,-620"/>
<text text-anchor="middle" x="1023" y="-598.3" font-family="Times,serif" font-size="14.00">#5 LabelNode Order : 7</text>
</g>
<!-- node4&#45;&gt;node5 -->
<g id="edge10" class="edge">
<title>node4&#45;&gt;node5</title>
<path fill="none" stroke="red" d="M1017.12,-656.81C1016.28,-648.79 1016.05,-639.05 1016.42,-630.07"/>
<polygon fill="red" stroke="red" points="1019.92,-630.25 1017.14,-620.03 1012.94,-629.75 1019.92,-630.25"/>
</g>
<!-- node5&#45;&gt;node4 -->
<g id="edge9" class="edge">
<title>node5&#45;&gt;node4</title>
<path fill="none" stroke="green" stroke-width="2" d="M1028.86,-620.03C1029.71,-628.03 1029.95,-637.77 1029.59,-646.75"/>
<polygon fill="green" stroke="green" stroke-width="2" points="1026.09,-646.59 1028.88,-656.81 1033.07,-647.08 1026.09,-646.59"/>
</g>
<!-- node5&#45;&gt;node12 -->
<g id="edge30" class="edge">
<title>node5&#45;&gt;node12</title>
<path fill="none" stroke="red" d="M960.24,-583.99C922.28,-573.71 873.72,-560.55 834.04,-549.79"/>
<polygon fill="red" stroke="red" points="834.72,-546.35 824.15,-547.11 832.89,-553.11 834.72,-546.35"/>
</g>
<!-- node6&#45;&gt;node0 -->
<g id="edge11" class="edge">
<title>node6&#45;&gt;node0</title>
<path fill="none" stroke="green" stroke-width="2" d="M504.5,-620.14C452.11,-639.61 381.79,-673.69 417,-712 437.88,-734.72 615.76,-742.7 728.77,-745.5"/>
<polygon fill="green" stroke="green" stroke-width="2" points="728.74,-749 738.82,-745.74 728.91,-742 728.74,-749"/>
</g>
<!-- node6&#45;&gt;node12 -->
<g id="edge26" class="edge">
<title>node6&#45;&gt;node12</title>
<path fill="none" stroke="black" d="M597.72,-583.99C626.13,-573.88 663.61,-560.99 695.53,-550.34"/>
<polygon fill="black" stroke="black" points="696.85,-553.59 705.23,-547.11 694.64,-546.95 696.85,-553.59"/>
<text text-anchor="middle" x="690.7" y="-557.15" font-family="Times,serif" font-size="14.00">*0</text>
</g>
<!-- node6&#45;&gt;node12 -->
<g id="edge29" class="edge">
<title>node6&#45;&gt;node12</title>
<path fill="none" stroke="black" d="M609.44,-583.99C639.87,-573.92 677.36,-561.1 707.48,-550.48"/>
<polygon fill="black" stroke="black" points="708.72,-553.75 716.98,-547.11 706.38,-547.15 708.72,-553.75"/>
</g>
<!-- node6&#45;&gt;node13 -->
<g id="edge32" class="edge">
<title>node6&#45;&gt;node13</title>
<path fill="none" stroke="black" d="M487.94,-583.94C463.21,-573.23 441,-556.3 441,-530 441,-530 441,-530 441,-382 441,-361.59 426.23,-345.55 409.46,-333.92"/>
<polygon fill="black" stroke="black" points="410.89,-330.68 400.57,-328.25 407.12,-336.58 410.89,-330.68"/>
<text text-anchor="middle" x="420.4" y="-327.19" font-family="Times,serif" font-size="14.00">*0</text>
</g>
<!-- node6&#45;&gt;node15 -->
<g id="edge40" class="edge">
<title>node6&#45;&gt;node15</title>
<path fill="none" stroke="black" d="M538.76,-583.96C528.19,-570.36 516,-550.27 516,-530 516,-530 516,-530 516,-309 516,-283.59 566.11,-266.57 620.54,-255.59"/>
<polygon fill="black" stroke="black" points="621.23,-259.02 630.38,-253.68 619.89,-252.15 621.23,-259.02"/>
<text text-anchor="middle" x="614.2" y="-261.73" font-family="Times,serif" font-size="14.00">*0</text>
</g>
<!-- node6&#45;&gt;node17 -->
<g id="edge51" class="edge">
<title>node6&#45;&gt;node17</title>
<path fill="none" stroke="black" d="M554,-583.78C554,-569.41 554,-548.37 554,-530 554,-530 554,-530 554,-163 554,-139.56 539.17,-123.83 518.68,-113.28"/>
<polygon fill="black" stroke="black" points="520.13,-110.09 509.58,-109.07 517.19,-116.45 520.13,-110.09"/>
<text text-anchor="middle" x="529.58" y="-105.31" font-family="Times,serif" font-size="14.00">*0</text>
</g>
<!-- node11&#45;&gt;node0 -->
<g id="edge23" class="edge">
<title>node11&#45;&gt;node0</title>
<path fill="none" stroke="green" stroke-width="2" d="M624.84,-690.93C648.7,-697.46 676.18,-705.17 701,-712 719.16,-717 738.77,-722.32 756.83,-727.26"/>
<polygon fill="green" stroke="green" stroke-width="2" points="756.12,-730.69 766.69,-729.96 757.97,-723.94 756.12,-730.69"/>
</g>
<!-- node11&#45;&gt;node6 -->
<g id="edge12" class="edge">
<title>node11&#45;&gt;node6</title>
<path fill="none" stroke="black" d="M561.58,-656.81C560.45,-648.79 559.08,-639.05 557.81,-630.07"/>
<polygon fill="black" stroke="black" points="561.26,-629.44 556.4,-620.03 554.33,-630.42 561.26,-629.44"/>
<text text-anchor="middle" x="567.3" y="-633.1" font-family="Times,serif" font-size="14.00">*0</text>
</g>
<!-- node11&#45;&gt;node12 -->
<g id="edge28" class="edge">
<title>node11&#45;&gt;node12</title>
<path fill="none" stroke="black" d="M640.9,-661.68C669.52,-653.8 700.48,-640.95 723,-620 740.87,-603.37 750.66,-577 755.8,-557.09"/>
<polygon fill="black" stroke="black" points="759.21,-557.89 758.09,-547.35 752.4,-556.29 759.21,-557.89"/>
<text text-anchor="middle" x="762.17" y="-563.23" font-family="Times,serif" font-size="14.00">*2</text>
</g>
<!-- node7&#45;&gt;node0 -->
<g id="edge14" class="edge">
<title>node7&#45;&gt;node0</title>
<path fill="none" stroke="green" stroke-width="2" d="M1704.03,-693.04C1682.49,-700.32 1655.2,-708.03 1630,-712 1474.09,-736.54 1076.93,-713.14 920,-730 918.48,-730.16 916.96,-730.34 915.42,-730.52"/>
<polygon fill="green" stroke="green" stroke-width="2" points="914.6,-727.1 905.15,-731.89 915.52,-734.04 914.6,-727.1"/>
</g>
<!-- node7&#45;&gt;node15 -->
<g id="edge42" class="edge">
<title>node7&#45;&gt;node15</title>
<path fill="none" stroke="black" d="M1722.5,-656.95C1709.08,-643.79 1694,-624.27 1694,-603 1694,-603 1694,-603 1694,-309 1694,-272.82 1656.06,-281.93 1621,-273 1552.5,-255.56 1117.63,-244.85 891.79,-240.4"/>
<polygon fill="black" stroke="black" points="891.59,-236.9 881.53,-240.2 891.46,-243.89 891.59,-236.9"/>
<text text-anchor="middle" x="899.81" y="-228.4" font-family="Times,serif" font-size="14.00">*2</text>
</g>
<!-- node8&#45;&gt;node0 -->
<g id="edge16" class="edge">
<title>node8&#45;&gt;node0</title>
<path fill="none" stroke="green" stroke-width="2" d="M244.7,-691.72C268.48,-699.11 296.92,-707.31 323,-712 463.06,-737.18 627.84,-744.53 728.63,-746.52"/>
<polygon fill="green" stroke="green" stroke-width="2" points="728.72,-750.02 738.79,-746.71 728.85,-743.02 728.72,-750.02"/>
</g>
<!-- node8&#45;&gt;node13 -->
<g id="edge34" class="edge">
<title>node8&#45;&gt;node13</title>
<path fill="none" stroke="black" d="M241.41,-657.74C264.93,-646.59 288,-629.02 288,-603 288,-603 288,-603 288,-382 288,-361.84 302.48,-345.62 318.64,-333.8"/>
<polygon fill="black" stroke="black" points="320.85,-336.53 327.17,-328.02 316.92,-330.73 320.85,-336.53"/>
<text text-anchor="middle" x="316.9" y="-341.48" font-family="Times,serif" font-size="14.00">*2</text>
</g>
<!-- node9&#45;&gt;node0 -->
<g id="edge18" class="edge">
<title>node9&#45;&gt;node0</title>
<path fill="none" stroke="green" stroke-width="2" d="M1372.36,-688.49C1361.25,-690.12 1349.84,-691.69 1339,-693 1153.41,-715.51 1105.16,-704.21 920,-730 918.49,-730.21 916.97,-730.43 915.44,-730.66"/>
<polygon fill="green" stroke="green" stroke-width="2" points="914.54,-727.25 905.19,-732.25 915.61,-734.17 914.54,-727.25"/>
</g>
<!-- node9&#45;&gt;node10 -->
<g id="edge22" class="edge">
<title>node9&#45;&gt;node10</title>
<path fill="none" stroke="black" d="M1419.91,-656.81C1409.31,-647.74 1396.13,-636.48 1384.59,-626.6"/>
<polygon fill="black" stroke="black" points="1386.78,-623.87 1376.91,-620.03 1382.23,-629.19 1386.78,-623.87"/>
<text text-anchor="middle" x="1396.18" y="-621.69" font-family="Times,serif" font-size="14.00">*1</text>
</g>
<!-- node10&#45;&gt;node0 -->
<g id="edge20" class="edge">
<title>node10&#45;&gt;node0</title>
<path fill="none" stroke="green" stroke-width="2" d="M1461.52,-618.43C1524.26,-631.89 1585.59,-655.29 1550,-693 1502.95,-742.85 1018.51,-722.85 915.29,-729.84"/>
<polygon fill="green" stroke="green" stroke-width="2" points="914.97,-726.35 905.33,-730.74 915.6,-733.32 914.97,-726.35"/>
</g>
<!-- node19 -->
<g id="node22" class="node">
<title>node19</title>
<polygon fill="lightgrey" stroke="black" points="831,-474 691,-474 691,-438 831,-438 831,-474"/>
<text text-anchor="middle" x="761" y="-452.3" font-family="Times,serif" font-size="14.00">#19 If Order : 13</text>
</g>
<!-- node10&#45;&gt;node19 -->
<g id="edge60" class="edge">
<title>node10&#45;&gt;node19</title>
<path fill="none" stroke="black" d="M1286.58,-583.99C1175.09,-557.05 958.57,-504.74 841.24,-476.39"/>
<polygon fill="black" stroke="black" points="841.78,-472.92 831.24,-473.97 840.13,-479.72 841.78,-472.92"/>
<text text-anchor="middle" x="850.84" y="-466.31" font-family="Times,serif" font-size="14.00">*0</text>
</g>
<!-- node12&#45;&gt;node0 -->
<g id="edge25" class="edge">
<title>node12&#45;&gt;node0</title>
<path fill="none" stroke="green" stroke-width="2" d="M765.44,-547.23C766.43,-553.18 766.94,-559.89 766,-566 762.18,-590.87 759.94,-597.34 749,-620 740.37,-637.87 729.81,-638.02 724,-657 719.32,-672.3 715.86,-679.22 724,-693 732.11,-706.72 745.08,-717.19 758.97,-725.09"/>
<polygon fill="green" stroke="green" stroke-width="2" points="757.7,-728.38 768.19,-729.91 760.95,-722.18 757.7,-728.38"/>
</g>
<!-- node12&#45;&gt;node13 -->
<g id="edge35" class="edge">
<title>node12&#45;&gt;node13</title>
<path fill="none" stroke="black" d="M735.66,-510.82C684.31,-476.49 563.62,-398.24 455,-346 444.54,-340.97 433.15,-336.16 422.05,-331.82"/>
<polygon fill="black" stroke="black" points="422.98,-328.43 412.39,-328.12 420.48,-334.96 422.98,-328.43"/>
</g>
<!-- node12&#45;&gt;node15 -->
<g id="edge43" class="edge">
<title>node12&#45;&gt;node15</title>
<path fill="none" stroke="black" d="M881.15,-510.98C935.6,-499.78 988,-482.39 988,-457 988,-457 988,-457 988,-309 988,-284.96 941.88,-268.24 890.76,-257.1"/>
<polygon fill="black" stroke="black" points="891.33,-253.64 880.83,-255.01 889.9,-260.49 891.33,-253.64"/>
</g>
<!-- node12&#45;&gt;node19 -->
<g id="edge61" class="edge">
<title>node12&#45;&gt;node19</title>
<path fill="none" stroke="red" d="M761,-510.81C761,-502.79 761,-493.05 761,-484.07"/>
<polygon fill="red" stroke="red" points="764.5,-484.03 761,-474.03 757.5,-484.03 764.5,-484.03"/>
</g>
<!-- node13&#45;&gt;node0 -->
<g id="edge31" class="edge">
<title>node13&#45;&gt;node0</title>
<path fill="none" stroke="green" stroke-width="2" d="M348.56,-328.01C339.06,-341.76 328,-362.05 328,-382 328,-676 328,-676 328,-676 328,-713.38 367.91,-702.28 404,-712 463.04,-727.89 624.45,-737.99 728.55,-743.06"/>
<polygon fill="green" stroke="green" stroke-width="2" points="728.6,-746.57 738.75,-743.55 728.93,-739.58 728.6,-746.57"/>
</g>
<!-- node14 -->
<g id="node16" class="node">
<title>node14</title>
<polygon fill="lightgrey" stroke="black" points="443.5,-255 280.5,-255 280.5,-219 443.5,-219 443.5,-255"/>
<text text-anchor="middle" x="362" y="-233.3" font-family="Times,serif" font-size="14.00">#14 Goto Order : 16</text>
</g>
<!-- node13&#45;&gt;node14 -->
<g id="edge38" class="edge">
<title>node13&#45;&gt;node14</title>
<path fill="none" stroke="red" d="M356.12,-291.81C355.28,-283.79 355.05,-274.05 355.42,-265.07"/>
<polygon fill="red" stroke="red" points="358.92,-265.25 356.14,-255.03 351.94,-264.75 358.92,-265.25"/>
</g>
<!-- node16 -->
<g id="node19" class="node">
<title>node16</title>
<polygon fill="lightgrey" stroke="black" points="526,-182 272,-182 272,-146 526,-146 526,-182"/>
<text text-anchor="middle" x="399" y="-160.3" font-family="Times,serif" font-size="14.00">#16 Merge : Merge30 Order : 20</text>
</g>
<!-- node13&#45;&gt;node16 -->
<g id="edge48" class="edge">
<title>node13&#45;&gt;node16</title>
<path fill="none" stroke="black" d="M409.63,-291.94C426.06,-283.49 442.66,-271.49 452,-255 459.88,-241.08 458.05,-233.81 452,-219 447.39,-207.71 439.15,-197.51 430.53,-189.1"/>
<polygon fill="black" stroke="black" points="432.68,-186.32 422.93,-182.17 427.97,-191.5 432.68,-186.32"/>
</g>
<!-- node22 -->
<g id="node15" class="node">
<title>node22</title>
<polygon fill="lightgrey" stroke="black" points="783.5,-401 620.5,-401 620.5,-365 783.5,-365 783.5,-401"/>
<text text-anchor="middle" x="702" y="-379.3" font-family="Times,serif" font-size="14.00">#22 false Order : 14</text>
</g>
<!-- node22&#45;&gt;node13 -->
<g id="edge36" class="edge">
<title>node22&#45;&gt;node13</title>
<path fill="none" stroke="red" d="M662.45,-364.97C645.36,-358.19 624.97,-350.86 606,-346 571.33,-337.12 533.26,-330.31 497.73,-325.16"/>
<polygon fill="red" stroke="red" points="498.17,-321.69 487.78,-323.75 497.19,-328.62 498.17,-321.69"/>
</g>
<!-- node22&#45;&gt;node19 -->
<g id="edge66" class="edge">
<title>node22&#45;&gt;node19</title>
<path fill="none" stroke="green" stroke-width="2" d="M722.01,-401.03C730.08,-409.64 739.11,-420.26 746.54,-429.79"/>
<polygon fill="green" stroke="green" stroke-width="2" points="743.78,-431.94 752.6,-437.81 749.37,-427.72 743.78,-431.94"/>
</g>
<!-- node14&#45;&gt;node13 -->
<g id="edge37" class="edge">
<title>node14&#45;&gt;node13</title>
<path fill="none" stroke="green" stroke-width="2" d="M367.86,-255.03C368.71,-263.03 368.95,-272.77 368.59,-281.75"/>
<polygon fill="green" stroke="green" stroke-width="2" points="365.09,-281.59 367.88,-291.81 372.07,-282.08 365.09,-281.59"/>
</g>
<!-- node14&#45;&gt;node16 -->
<g id="edge46" class="edge">
<title>node14&#45;&gt;node16</title>
<path fill="none" stroke="red" d="M370.96,-218.81C375.32,-210.44 380.66,-200.2 385.5,-190.9"/>
<polygon fill="red" stroke="red" points="388.61,-192.51 390.13,-182.03 382.4,-189.28 388.61,-192.51"/>
</g>
<!-- node15&#45;&gt;node0 -->
<g id="edge39" class="edge">
<title>node15&#45;&gt;node0</title>
<path fill="none" stroke="green" stroke-width="2" d="M881.57,-242.15C1118.29,-250.81 1607,-273.05 1607,-309 1607,-676 1607,-676 1607,-676 1607,-750.99 1028.52,-723.55 915.29,-729.89"/>
<polygon fill="green" stroke="green" stroke-width="2" points="915.02,-726.4 905.32,-730.67 915.56,-733.38 915.02,-726.4"/>
</g>
<!-- node15&#45;&gt;node16 -->
<g id="edge47" class="edge">
<title>node15&#45;&gt;node16</title>
<path fill="none" stroke="red" d="M664.63,-218.99C610.6,-208.47 542.48,-194.94 488.74,-184.05"/>
<polygon fill="red" stroke="red" points="489.37,-180.61 478.88,-182.05 487.98,-187.47 489.37,-180.61"/>
</g>
<!-- node15&#45;&gt;node16 -->
<g id="edge49" class="edge">
<title>node15&#45;&gt;node16</title>
<path fill="none" stroke="black" d="M676.35,-218.99C624.44,-208.45 556.29,-194.88 500.51,-183.98"/>
<polygon fill="black" stroke="black" points="501.09,-180.53 490.6,-182.05 499.75,-187.4 501.09,-180.53"/>
</g>
<!-- node21 -->
<g id="node18" class="node">
<title>node21</title>
<polygon fill="lightgrey" stroke="black" points="960,-328 754,-328 754,-292 960,-292 960,-328"/>
<text text-anchor="middle" x="857" y="-306.3" font-family="Times,serif" font-size="14.00">#21 LabelNode Order : 18</text>
</g>
<!-- node21&#45;&gt;node15 -->
<g id="edge44" class="edge">
<title>node21&#45;&gt;node15</title>
<path fill="none" stroke="red" d="M832.81,-291.99C819.66,-282.75 803.22,-271.19 788.92,-261.14"/>
<polygon fill="red" stroke="red" points="790.54,-258 780.34,-255.11 786.51,-263.73 790.54,-258"/>
</g>
<!-- node20 -->
<g id="node23" class="node">
<title>node20</title>
<polygon fill="lightgrey" stroke="black" points="960.5,-401 801.5,-401 801.5,-365 960.5,-365 960.5,-401"/>
<text text-anchor="middle" x="881" y="-379.3" font-family="Times,serif" font-size="14.00">#20 true Order : 17</text>
</g>
<!-- node21&#45;&gt;node20 -->
<g id="edge64" class="edge">
<title>node21&#45;&gt;node20</title>
<path fill="none" stroke="green" stroke-width="2" d="M868.62,-328.03C872.21,-336.12 875.78,-345.98 878.46,-355.05"/>
<polygon fill="green" stroke="green" stroke-width="2" points="875.11,-356.05 881.07,-364.81 881.87,-354.25 875.11,-356.05"/>
</g>
<!-- node16&#45;&gt;node0 -->
<g id="edge45" class="edge">
<title>node16&#45;&gt;node0</title>
<path fill="none" stroke="green" stroke-width="2" d="M271.93,-175.67C155.13,-187.25 0,-207.92 0,-236 0,-676 0,-676 0,-676 0,-712.22 513.26,-735.53 728.63,-743.72"/>
<polygon fill="green" stroke="green" stroke-width="2" points="728.53,-747.22 738.66,-744.1 728.8,-740.22 728.53,-747.22"/>
</g>
<!-- node16&#45;&gt;node17 -->
<g id="edge53" class="edge">
<title>node16&#45;&gt;node17</title>
<path fill="none" stroke="black" d="M393.12,-145.81C392.28,-137.79 392.05,-128.05 392.42,-119.07"/>
<polygon fill="black" stroke="black" points="395.92,-119.25 393.14,-109.03 388.94,-118.75 395.92,-119.25"/>
</g>
<!-- node16&#45;&gt;node17 -->
<g id="edge54" class="edge">
<title>node16&#45;&gt;node17</title>
<path fill="none" stroke="red" d="M404.88,-145.81C405.72,-137.79 405.95,-128.05 405.58,-119.07"/>
<polygon fill="red" stroke="red" points="409.06,-118.75 404.86,-109.03 402.08,-119.25 409.06,-118.75"/>
</g>
<!-- node17&#45;&gt;node0 -->
<g id="edge50" class="edge">
<title>node17&#45;&gt;node0</title>
<path fill="none" stroke="green" stroke-width="2" d="M517.3,-91.53C868.21,-90.89 1879,-94.97 1879,-163 1879,-676 1879,-676 1879,-676 1879,-728.61 1697.53,-709.04 1645,-712 1322.54,-730.18 1237.21,-695.99 915.4,-729.59"/>
<polygon fill="green" stroke="green" stroke-width="2" points="914.89,-726.12 905.32,-730.66 915.63,-733.08 914.89,-726.12"/>
</g>
<!-- node18 -->
<g id="node21" class="node">
<title>node18</title>
<polygon fill="lightgrey" stroke="black" points="524.5,-36 273.5,-36 273.5,0 524.5,0 524.5,-36"/>
<text text-anchor="middle" x="399" y="-14.3" font-family="Times,serif" font-size="14.00">#18 ReturnValue : int Order : 22</text>
</g>
<!-- node17&#45;&gt;node18 -->
<g id="edge56" class="edge">
<title>node17&#45;&gt;node18</title>
<path fill="none" stroke="black" d="M381.37,-72.81C378.85,-64.79 378.15,-55.05 379.27,-46.07"/>
<polygon fill="black" stroke="black" points="382.74,-46.54 381.42,-36.03 375.9,-45.07 382.74,-46.54"/>
<text text-anchor="middle" x="385.89" y="-51.82" font-family="Times,serif" font-size="14.00">*0</text>
</g>
<!-- node17&#45;&gt;node18 -->
<g id="edge57" class="edge">
<title>node17&#45;&gt;node18</title>
<path fill="none" stroke="red" d="M404.88,-72.81C405.72,-64.79 405.95,-55.05 405.58,-46.07"/>
<polygon fill="red" stroke="red" points="409.06,-45.75 404.86,-36.03 402.08,-46.25 409.06,-45.75"/>
</g>
<!-- node17&#45;&gt;node18 -->
<g id="edge58" class="edge">
<title>node17&#45;&gt;node18</title>
<path fill="none" stroke="black" d="M416.63,-72.81C419.15,-64.79 419.85,-55.05 418.73,-46.07"/>
<polygon fill="black" stroke="black" points="422.1,-45.07 416.58,-36.03 415.26,-46.54 422.1,-45.07"/>
</g>
<!-- node18&#45;&gt;node17 -->
<g id="edge55" class="edge">
<title>node18&#45;&gt;node17</title>
<path fill="none" stroke="green" stroke-width="2" d="M393.14,-36.03C392.29,-44.03 392.05,-53.77 392.41,-62.75"/>
<polygon fill="green" stroke="green" stroke-width="2" points="388.93,-63.08 393.12,-72.81 395.91,-62.59 388.93,-63.08"/>
</g>
<!-- node19&#45;&gt;node0 -->
<g id="edge59" class="edge">
<title>node19&#45;&gt;node0</title>
<path fill="none" stroke="green" stroke-width="2" d="M690.72,-458.37C570.32,-464.13 341.5,-491.82 385,-620 398.14,-658.72 405.69,-672.38 441,-693 488.43,-720.7 632.12,-735.09 728.84,-741.85"/>
<polygon fill="green" stroke="green" stroke-width="2" points="728.71,-745.35 738.92,-742.54 729.19,-738.36 728.71,-745.35"/>
</g>
<!-- node19&#45;&gt;node22 -->
<g id="edge67" class="edge">
<title>node19&#45;&gt;node22</title>
<path fill="none" stroke="red" d="M740.84,-437.81C732.76,-429.18 723.73,-418.56 716.32,-409.03"/>
<polygon fill="red" stroke="red" points="719.1,-406.91 710.29,-401.03 713.51,-411.12 719.1,-406.91"/>
</g>
<!-- node19&#45;&gt;node20 -->
<g id="edge63" class="edge">
<title>node19&#45;&gt;node20</title>
<path fill="none" stroke="red" d="M783.88,-437.99C798.94,-428.49 818.99,-416.54 837.01,-406.29"/>
<polygon fill="red" stroke="red" points="839.21,-409.07 846.21,-401.11 835.77,-402.97 839.21,-409.07"/>
</g>
<!-- node20&#45;&gt;node21 -->
<g id="edge65" class="edge">
<title>node20&#45;&gt;node21</title>
<path fill="none" stroke="red" d="M869.31,-364.81C865.72,-356.7 862.16,-346.84 859.49,-337.78"/>
<polygon fill="red" stroke="red" points="862.85,-336.79 856.89,-328.03 856.08,-338.59 862.85,-336.79"/>
</g>
<!-- node20&#45;&gt;node19 -->
<g id="edge62" class="edge">
<title>node20&#45;&gt;node19</title>
<path fill="none" stroke="green" stroke-width="2" d="M857.95,-401.11C842.86,-410.63 822.79,-422.59 804.79,-432.82"/>
<polygon fill="green" stroke="green" stroke-width="2" points="802.6,-430.04 795.6,-437.99 806.03,-436.14 802.6,-430.04"/>
</g>
<!-- c0 -->
<!-- c1 -->
<!-- c0&#45;&gt;c1 -->
<g id="edge68" class="edge">
<title>c0&#45;&gt;c1</title>
<path fill="none" stroke="red" d="M1636.89,-748C1648.11,-748 1706.24,-748 1731.86,-748"/>
<polygon fill="red" stroke="red" points="1732.06,-751.5 1742.06,-748 1732.06,-744.5 1732.06,-751.5"/>
<text text-anchor="middle" x="1689.5" y="-754.8" font-family="Times,serif" font-size="14.00">Control flow</text>
</g>
<!-- c2 -->
<!-- c3 -->
<!-- c2&#45;&gt;c3 -->
<g id="edge69" class="edge">
<title>c2&#45;&gt;c3</title>
<path fill="none" stroke="red" stroke-dasharray="5,2" d="M1430.08,-748C1447.05,-748 1563.21,-748 1601.08,-748"/>
<polygon fill="red" stroke="red" points="1601.17,-751.5 1611.17,-748 1601.17,-744.5 1601.17,-751.5"/>
<text text-anchor="middle" x="1520.5" y="-754.8" font-family="Times,serif" font-size="14.00">Control flow back edge</text>
</g>
<!-- d0 -->
<!-- d1 -->
<!-- d0&#45;&gt;d1 -->
<g id="edge70" class="edge">
<title>d0&#45;&gt;d1</title>
<path fill="none" stroke="black" d="M1318.86,-748C1328.41,-748 1372.31,-748 1393.92,-748"/>
<polygon fill="black" stroke="black" points="1394.15,-751.5 1404.15,-748 1394.15,-744.5 1394.15,-751.5"/>
<text text-anchor="middle" x="1361.5" y="-754.8" font-family="Times,serif" font-size="14.00">Data flow</text>
</g>
<!-- d2 -->
<!-- d3 -->
<!-- d2&#45;&gt;d3 -->
<g id="edge71" class="edge">
<title>d2&#45;&gt;d3</title>
<path fill="none" stroke="black" stroke-dasharray="1,5" d="M1192.81,-748C1203.46,-748 1258.46,-748 1283.08,-748"/>
<polygon fill="black" stroke="black" points="1283.15,-751.5 1293.15,-748 1283.15,-744.5 1283.15,-751.5"/>
<text text-anchor="middle" x="1243" y="-754.8" font-family="Times,serif" font-size="14.00">Declaration</text>
</g>
<!-- d4 -->
<!-- d5 -->
<!-- d4&#45;&gt;d5 -->
<g id="edge72" class="edge">
<title>d4&#45;&gt;d5</title>
<path fill="none" stroke="blue" d="M1050.1,-748C1062.72,-748 1128.88,-748 1156.68,-748"/>
<polygon fill="blue" stroke="blue" points="1156.84,-751.5 1166.84,-748 1156.84,-744.5 1156.84,-751.5"/>
<text text-anchor="middle" x="1108.5" y="-754.8" font-family="Times,serif" font-size="14.00">PHI Data flow</text>
</g>
<!-- d6 -->
<!-- d7 -->
<!-- d6&#45;&gt;d7 -->
<g id="edge73" class="edge">
<title>d6&#45;&gt;d7</title>
<path fill="none" stroke="green" d="M927.11,-748C938.15,-748 989.67,-748 1013.66,-748"/>
<polygon fill="green" stroke="green" points="1013.9,-751.5 1023.9,-748 1013.9,-744.5 1013.9,-751.5"/>
<text text-anchor="middle" x="975.5" y="-754.8" font-family="Times,serif" font-size="14.00">Dominance</text>
</g>
</g>
</svg>
