<?xml version="1.0" encoding="UTF-8" standalone="no"?>
<!DOCTYPE svg PUBLIC "-//W3C//DTD SVG 1.1//EN"
 "http://www.w3.org/Graphics/SVG/1.1/DTD/svg11.dtd">
<!-- Generated by graphviz version 2.43.0 (0)
 -->
<!-- Title: debugoutput Pages: 1 -->
<svg width="1876pt" height="724pt"
 viewBox="0.00 0.00 1876.00 723.80" xmlns="http://www.w3.org/2000/svg" xmlns:xlink="http://www.w3.org/1999/xlink">
<g id="graph0" class="graph" transform="scale(1 1) rotate(0) translate(4 719.8)">
<title>debugoutput</title>
<polygon fill="white" stroke="transparent" points="-4,4 -4,-719.8 1872,-719.8 1872,4 -4,4"/>
<g id="clust1" class="cluster">
<title>cluster_000</title>
<polygon fill="none" stroke="black" points="884,-665.2 884,-707.8 1860,-707.8 1860,-665.2 884,-665.2"/>
<text text-anchor="middle" x="1372" y="-692.6" font-family="Times,serif" font-size="14.00">Legend</text>
</g>
<!-- node0 -->
<g id="node1" class="node">
<title>node0</title>
<polygon fill="lightgrey" stroke="black" points="874,-693 708,-693 708,-657 874,-657 874,-693"/>
<text text-anchor="middle" x="791" y="-671.3" font-family="Times,serif" font-size="14.00">#0 Method Order : 0</text>
</g>
<!-- node1 -->
<g id="node2" class="node">
<title>node1</title>
<polygon fill="lightgrey" stroke="black" points="739,-474 553,-474 553,-438 739,-438 739,-474"/>
<text text-anchor="middle" x="646" y="-452.3" font-family="Times,serif" font-size="14.00">#1 arg2 : int Order : 18</text>
</g>
<!-- node0&#45;&gt;node1 -->
<g id="edge2" class="edge">
<title>node0&#45;&gt;node1</title>
<path fill="none" stroke="black" d="M730.58,-656.9C711.48,-648.46 692.04,-636.46 679,-620 647.56,-580.32 639.44,-519.69 640.26,-484.64"/>
<polygon fill="black" stroke="black" points="643.78,-484.4 640.83,-474.22 636.79,-484.02 643.78,-484.4"/>
<text text-anchor="middle" x="648.29" y="-489.08" font-family="Times,serif" font-size="14.00">*0</text>
</g>
<!-- node2 -->
<g id="node3" class="node">
<title>node2</title>
<polygon fill="lightgrey" stroke="black" points="1551.5,-620 1374.5,-620 1374.5,-584 1551.5,-584 1551.5,-620"/>
<text text-anchor="middle" x="1463" y="-598.3" font-family="Times,serif" font-size="14.00">#2 arg0 : int Order : 9</text>
</g>
<!-- node0&#45;&gt;node2 -->
<g id="edge4" class="edge">
<title>node0&#45;&gt;node2</title>
<path fill="none" stroke="black" d="M871.31,-656.96C1083.62,-632.91 1141.96,-679.04 1352,-639 1369.73,-635.62 1388.53,-629.7 1405.57,-623.63"/>
<polygon fill="black" stroke="black" points="1407.18,-626.77 1415.38,-620.05 1404.79,-620.19 1407.18,-626.77"/>
<text text-anchor="middle" x="1401.24" y="-630.5" font-family="Times,serif" font-size="14.00">*0</text>
</g>
<!-- node3 -->
<g id="node4" class="node">
<title>node3</title>
<polygon fill="lightgrey" stroke="black" points="326.5,-620 149.5,-620 149.5,-584 326.5,-584 326.5,-620"/>
<text text-anchor="middle" x="238" y="-598.3" font-family="Times,serif" font-size="14.00">#3 arg1 : int Order : 7</text>
</g>
<!-- node0&#45;&gt;node3 -->
<g id="edge6" class="edge">
<title>node0&#45;&gt;node3</title>
<path fill="none" stroke="black" d="M707.95,-673.52C616.31,-671.69 465.15,-664.62 338,-639 319.63,-635.3 300.04,-629.46 283.06,-623.55"/>
<polygon fill="black" stroke="black" points="283.99,-620.16 273.4,-620.08 281.63,-626.75 283.99,-620.16"/>
<text text-anchor="middle" x="293.31" y="-614.55" font-family="Times,serif" font-size="14.00">*0</text>
</g>
<!-- node4 -->
<g id="node5" class="node">
<title>node4</title>
<polygon fill="lightgrey" stroke="black" points="885,-620 697,-620 697,-584 885,-584 885,-620"/>
<text text-anchor="middle" x="791" y="-598.3" font-family="Times,serif" font-size="14.00">#4 LabelNode Order : 1</text>
</g>
<!-- node0&#45;&gt;node4 -->
<g id="edge8" class="edge">
<title>node0&#45;&gt;node4</title>
<path fill="none" stroke="red" d="M785.12,-656.81C784.28,-648.79 784.05,-639.05 784.42,-630.07"/>
<polygon fill="red" stroke="red" points="787.92,-630.25 785.14,-620.03 780.94,-629.75 787.92,-630.25"/>
</g>
<!-- node7 -->
<g id="node8" class="node">
<title>node7</title>
<polygon fill="orange" stroke="black" points="534.89,-448.54 534.89,-463.46 441.23,-474 308.77,-474 215.11,-463.46 215.11,-448.54 308.77,-438 441.23,-438 534.89,-448.54"/>
<text text-anchor="middle" x="375" y="-452.3" font-family="Times,serif" font-size="14.00">#7 NewArray : int[] Order : 3</text>
</g>
<!-- node0&#45;&gt;node7 -->
<g id="edge15" class="edge">
<title>node0&#45;&gt;node7</title>
<path fill="none" stroke="green" d="M707.69,-672.31C595.98,-669.16 409.23,-660.64 387,-639 345.58,-598.67 352.39,-523.86 363.05,-483.87"/>
<polygon fill="green" stroke="green" points="366.48,-484.61 365.96,-474.03 359.76,-482.62 366.48,-484.61"/>
</g>
<!-- node1&#45;&gt;node0 -->
<g id="edge1" class="edge">
<title>node1&#45;&gt;node0</title>
<path fill="none" stroke="fuchsia" stroke-width="2" d="M651.23,-474.22C655.95,-506.32 662.16,-576.02 697,-620 707.8,-633.63 722.99,-644.2 738.05,-652.23"/>
<polygon fill="fuchsia" stroke="fuchsia" stroke-width="2" points="736.87,-655.55 747.37,-656.9 740,-649.29 736.87,-655.55"/>
</g>
<!-- node18 -->
<g id="node19" class="node">
<title>node18</title>
<polygon fill="lightgrey" stroke="black" points="599.5,-109 348.5,-109 348.5,-73 599.5,-73 599.5,-109"/>
<text text-anchor="middle" x="474" y="-87.3" font-family="Times,serif" font-size="14.00">#18 ArrayStore : int[] Order : 19</text>
</g>
<!-- node1&#45;&gt;node18 -->
<g id="edge44" class="edge">
<title>node1&#45;&gt;node18</title>
<path fill="none" stroke="black" d="M616.09,-437.91C598.63,-425.5 580,-406.89 580,-384 580,-384 580,-384 580,-163 580,-140.33 563.06,-124.44 542.72,-113.53"/>
<polygon fill="black" stroke="black" points="544.03,-110.27 533.51,-109.01 540.94,-116.55 544.03,-110.27"/>
<text text-anchor="middle" x="553.5" y="-105.71" font-family="Times,serif" font-size="14.00">*1</text>
</g>
<!-- node20 -->
<g id="node21" class="node">
<title>node20</title>
<polygon fill="lightgrey" stroke="black" points="426.5,-36 175.5,-36 175.5,0 426.5,0 426.5,-36"/>
<text text-anchor="middle" x="301" y="-14.3" font-family="Times,serif" font-size="14.00">#20 ArrayStore : int[] Order : 20</text>
</g>
<!-- node1&#45;&gt;node20 -->
<g id="edge51" class="edge">
<title>node1&#45;&gt;node20</title>
<path fill="none" stroke="black" d="M616.28,-437.97C608.06,-432.67 599.37,-426.5 592,-420 583.72,-412.7 583.03,-409.51 576,-401 469.5,-272.18 425.03,-252.3 339,-109 326.92,-88.88 316.8,-64.21 310.04,-45.8"/>
<polygon fill="black" stroke="black" points="313.3,-44.52 306.65,-36.28 306.71,-46.87 313.3,-44.52"/>
<text text-anchor="middle" x="320.7" y="-46.81" font-family="Times,serif" font-size="14.00">*1</text>
</g>
<!-- node22 -->
<g id="node23" class="node">
<title>node22</title>
<polygon fill="lightgrey" stroke="black" points="879,-401 643,-401 643,-365 879,-365 879,-401"/>
<text text-anchor="middle" x="761" y="-379.3" font-family="Times,serif" font-size="14.00">#22 ArrayLoad : int Order : 22</text>
</g>
<!-- node1&#45;&gt;node22 -->
<g id="edge61" class="edge">
<title>node1&#45;&gt;node22</title>
<path fill="none" stroke="black" d="M673.55,-437.99C688.8,-428.58 707.95,-416.76 724.44,-406.57"/>
<polygon fill="black" stroke="black" points="726.61,-409.35 733.28,-401.11 722.93,-403.39 726.61,-409.35"/>
<text text-anchor="middle" x="722.3" y="-414.13" font-family="Times,serif" font-size="14.00">*1</text>
</g>
<!-- node2&#45;&gt;node0 -->
<g id="edge3" class="edge">
<title>node2&#45;&gt;node0</title>
<path fill="none" stroke="fuchsia" stroke-width="2" d="M1431.75,-620.05C1413.95,-627.28 1391.21,-634.96 1370,-639 1159.86,-679.06 1101.56,-632.86 889,-657 887.49,-657.17 885.96,-657.36 884.42,-657.55"/>
<polygon fill="fuchsia" stroke="fuchsia" stroke-width="2" points="883.58,-654.13 874.16,-658.96 884.54,-661.07 883.58,-654.13"/>
</g>
<!-- node9 -->
<g id="node10" class="node">
<title>node9</title>
<polygon fill="orange" stroke="black" points="1551.4,-375.54 1551.4,-390.46 1433.42,-401 1266.58,-401 1148.6,-390.46 1148.6,-375.54 1266.58,-365 1433.42,-365 1551.4,-375.54"/>
<text text-anchor="middle" x="1350" y="-379.3" font-family="Times,serif" font-size="14.00">#9 NumericCondition : EQ Order : 10</text>
</g>
<!-- node2&#45;&gt;node9 -->
<g id="edge19" class="edge">
<title>node2&#45;&gt;node9</title>
<path fill="none" stroke="black" d="M1454.13,-583.97C1434.46,-546.19 1387.05,-455.16 1363.6,-410.12"/>
<polygon fill="black" stroke="black" points="1366.71,-408.5 1358.98,-401.25 1360.5,-411.73 1366.71,-408.5"/>
<text text-anchor="middle" x="1374.85" y="-409.72" font-family="Times,serif" font-size="14.00">*0</text>
</g>
<!-- node3&#45;&gt;node0 -->
<g id="edge5" class="edge">
<title>node3&#45;&gt;node0</title>
<path fill="none" stroke="fuchsia" stroke-width="2" d="M289.87,-620.08C310.31,-627.08 334.02,-634.57 356,-639 472.41,-662.46 608.95,-670.37 697.62,-672.94"/>
<polygon fill="fuchsia" stroke="fuchsia" stroke-width="2" points="697.56,-676.44 707.66,-673.21 697.75,-669.44 697.56,-676.44"/>
</g>
<!-- node11 -->
<g id="node12" class="node">
<title>node11</title>
<polygon fill="lightgrey" stroke="black" points="270,-401 28,-401 28,-365 270,-365 270,-401"/>
<text text-anchor="middle" x="149" y="-379.3" font-family="Times,serif" font-size="14.00">#11 ArrayStore : int[] Order : 8</text>
</g>
<!-- node3&#45;&gt;node11 -->
<g id="edge25" class="edge">
<title>node3&#45;&gt;node11</title>
<path fill="none" stroke="black" d="M227.74,-583.87C213.78,-559.97 188.72,-514.92 173,-474 165.1,-453.43 158.81,-429.26 154.65,-411.15"/>
<polygon fill="black" stroke="black" points="158.04,-410.27 152.46,-401.26 151.21,-411.78 158.04,-410.27"/>
<text text-anchor="middle" x="164.64" y="-413.42" font-family="Times,serif" font-size="14.00">*1</text>
</g>
<!-- node4&#45;&gt;node0 -->
<g id="edge7" class="edge">
<title>node4&#45;&gt;node0</title>
<path fill="none" stroke="fuchsia" stroke-width="2" d="M796.86,-620.03C797.71,-628.03 797.95,-637.77 797.59,-646.75"/>
<polygon fill="fuchsia" stroke="fuchsia" stroke-width="2" points="794.09,-646.59 796.88,-656.81 801.07,-647.08 794.09,-646.59"/>
</g>
<!-- node5 -->
<g id="node6" class="node">
<title>node5</title>
<polygon fill="lightgrey" stroke="black" points="1105,-547 917,-547 917,-511 1105,-511 1105,-547"/>
<text text-anchor="middle" x="1011" y="-525.3" font-family="Times,serif" font-size="14.00">#5 LabelNode Order : 4</text>
</g>
<!-- node4&#45;&gt;node5 -->
<g id="edge10" class="edge">
<title>node4&#45;&gt;node5</title>
<path fill="none" stroke="red" d="M837.84,-583.99C868.23,-573.84 908.28,-560.88 942.24,-550.2"/>
<polygon fill="red" stroke="red" points="943.61,-553.44 952.1,-547.11 941.51,-546.76 943.61,-553.44"/>
</g>
<!-- node6 -->
<g id="node7" class="node">
<title>node6</title>
<polygon fill="lightgreen" stroke="black" points="898.77,-521.54 898.77,-536.46 835.64,-547 746.36,-547 683.23,-536.46 683.23,-521.54 746.36,-511 835.64,-511 898.77,-521.54"/>
<text text-anchor="middle" x="791" y="-525.3" font-family="Times,serif" font-size="14.00">#6 int 10 Order : 2</text>
</g>
<!-- node4&#45;&gt;node6 -->
<g id="edge12" class="edge">
<title>node4&#45;&gt;node6</title>
<path fill="none" stroke="black" stroke-dasharray="1,5" d="M785.12,-583.81C784.28,-575.79 784.05,-566.05 784.42,-557.07"/>
<polygon fill="black" stroke="black" points="787.92,-557.25 785.14,-547.03 780.94,-556.75 787.92,-557.25"/>
</g>
<!-- node5&#45;&gt;node4 -->
<g id="edge9" class="edge">
<title>node5&#45;&gt;node4</title>
<path fill="none" stroke="fuchsia" stroke-width="2" d="M963.84,-547.11C933.38,-557.29 893.32,-570.25 859.4,-580.91"/>
<polygon fill="fuchsia" stroke="fuchsia" stroke-width="2" points="858.05,-577.66 849.55,-583.99 860.14,-584.34 858.05,-577.66"/>
</g>
<!-- node8 -->
<g id="node9" class="node">
<title>node8</title>
<polygon fill="lightgreen" stroke="black" points="1243.11,-448.54 1243.11,-463.46 1183.88,-474 1100.12,-474 1040.89,-463.46 1040.89,-448.54 1100.12,-438 1183.88,-438 1243.11,-448.54"/>
<text text-anchor="middle" x="1142" y="-452.3" font-family="Times,serif" font-size="14.00">#8 int 0 Order : 6</text>
</g>
<!-- node5&#45;&gt;node8 -->
<g id="edge17" class="edge">
<title>node5&#45;&gt;node8</title>
<path fill="none" stroke="black" stroke-dasharray="1,5" d="M1036.52,-510.99C1053.35,-501.32 1075.75,-489.1 1095.63,-478.73"/>
<polygon fill="black" stroke="black" points="1097.28,-481.82 1104.55,-474.11 1094.06,-475.6 1097.28,-481.82"/>
</g>
<!-- node10 -->
<g id="node11" class="node">
<title>node10</title>
<polygon fill="lightgreen" stroke="black" points="984.93,-448.54 984.93,-463.46 918.19,-474 823.81,-474 757.07,-463.46 757.07,-448.54 823.81,-438 918.19,-438 984.93,-448.54"/>
<text text-anchor="middle" x="871" y="-452.3" font-family="Times,serif" font-size="14.00">#10 int 10 Order : 5</text>
</g>
<!-- node5&#45;&gt;node10 -->
<g id="edge22" class="edge">
<title>node5&#45;&gt;node10</title>
<path fill="none" stroke="black" stroke-dasharray="1,5" d="M971.61,-510.99C951.59,-501.36 927.48,-489.21 907.84,-478.87"/>
<polygon fill="black" stroke="black" points="909.35,-475.71 898.87,-474.11 906.07,-481.89 909.35,-475.71"/>
</g>
<!-- node12 -->
<g id="node13" class="node">
<title>node12</title>
<polygon fill="lightgrey" stroke="black" points="1226,-328 1086,-328 1086,-292 1226,-292 1226,-328"/>
<text text-anchor="middle" x="1156" y="-306.3" font-family="Times,serif" font-size="14.00">#12 If Order : 11</text>
</g>
<!-- node5&#45;&gt;node12 -->
<g id="edge30" class="edge">
<title>node5&#45;&gt;node12</title>
<path fill="none" stroke="red" d="M1012.65,-510.98C1014.98,-492.28 1020.33,-461.76 1032,-438 1055.26,-390.65 1068.53,-382.1 1107,-346 1111.35,-341.92 1116.19,-337.92 1121.09,-334.17"/>
<polygon fill="red" stroke="red" points="1123.33,-336.87 1129.31,-328.12 1119.18,-331.23 1123.33,-336.87"/>
</g>
<!-- node6&#45;&gt;node4 -->
<g id="edge11" class="edge">
<title>node6&#45;&gt;node4</title>
<path fill="none" stroke="fuchsia" stroke-width="2" d="M796.86,-547.03C797.71,-555.03 797.95,-564.77 797.59,-573.75"/>
<polygon fill="fuchsia" stroke="fuchsia" stroke-width="2" points="794.09,-573.59 796.88,-583.81 801.07,-574.08 794.09,-573.59"/>
</g>
<!-- node6&#45;&gt;node7 -->
<g id="edge14" class="edge">
<title>node6&#45;&gt;node7</title>
<path fill="none" stroke="black" d="M718.54,-515.63C650.03,-503.94 546.78,-486.32 471.36,-473.45"/>
<polygon fill="black" stroke="black" points="471.82,-469.97 461.38,-471.74 470.65,-476.87 471.82,-469.97"/>
<text text-anchor="middle" x="480.67" y="-462.76" font-family="Times,serif" font-size="14.00">*0</text>
</g>
<!-- node7&#45;&gt;node0 -->
<g id="edge13" class="edge">
<title>node7&#45;&gt;node0</title>
<path fill="none" stroke="fuchsia" stroke-width="2" d="M375.63,-474.03C371.99,-510.22 359.88,-595.06 405,-639 425.75,-659.21 589.98,-667.98 697.48,-671.61"/>
<polygon fill="fuchsia" stroke="fuchsia" stroke-width="2" points="697.59,-675.11 707.7,-671.94 697.82,-668.12 697.59,-675.11"/>
</g>
<!-- node7&#45;&gt;node11 -->
<g id="edge24" class="edge">
<title>node7&#45;&gt;node11</title>
<path fill="none" stroke="black" d="M315.01,-437.99C281.6,-427.84 240.26,-414.88 207.15,-404.2"/>
<polygon fill="black" stroke="black" points="208.2,-400.86 197.6,-401.11 206.04,-407.52 208.2,-400.86"/>
<text text-anchor="middle" x="217.45" y="-394.95" font-family="Times,serif" font-size="14.00">*0</text>
</g>
<!-- node7&#45;&gt;node11 -->
<g id="edge27" class="edge">
<title>node7&#45;&gt;node11</title>
<path fill="none" stroke="green" d="M326.73,-437.99C295.34,-427.79 253.98,-414.77 219.02,-404.07"/>
<polygon fill="green" stroke="green" points="219.93,-400.68 209.34,-401.11 217.89,-407.38 219.93,-400.68"/>
</g>
<!-- node7&#45;&gt;node18 -->
<g id="edge43" class="edge">
<title>node7&#45;&gt;node18</title>
<path fill="none" stroke="black" d="M379.64,-437.98C395.42,-380.12 447.1,-190.65 466.52,-119.41"/>
<polygon fill="black" stroke="black" points="470,-119.98 469.25,-109.41 463.24,-118.13 470,-119.98"/>
<text text-anchor="middle" x="472.64" y="-125.42" font-family="Times,serif" font-size="14.00">*0</text>
</g>
<!-- node7&#45;&gt;node20 -->
<g id="edge50" class="edge">
<title>node7&#45;&gt;node20</title>
<path fill="none" stroke="black" d="M358.8,-437.53C332.16,-406.9 282,-340.42 282,-274 282,-274 282,-274 282,-90 282,-75.1 285.95,-59.02 290.25,-45.93"/>
<polygon fill="black" stroke="black" points="293.67,-46.76 293.71,-36.16 287.08,-44.43 293.67,-46.76"/>
<text text-anchor="middle" x="295.64" y="-52.37" font-family="Times,serif" font-size="14.00">*0</text>
</g>
<!-- node7&#45;&gt;node22 -->
<g id="edge60" class="edge">
<title>node7&#45;&gt;node22</title>
<path fill="none" stroke="black" d="M457.81,-439.77C516.58,-428.96 595.85,-414.38 658.6,-402.84"/>
<polygon fill="black" stroke="black" points="659.32,-406.26 668.52,-401.01 658.05,-399.38 659.32,-406.26"/>
<text text-anchor="middle" x="652.22" y="-408.9" font-family="Times,serif" font-size="14.00">*0</text>
</g>
<!-- node8&#45;&gt;node5 -->
<g id="edge16" class="edge">
<title>node8&#45;&gt;node5</title>
<path fill="none" stroke="fuchsia" stroke-width="2" d="M1116.29,-474.11C1099.43,-483.81 1077.01,-496.03 1057.15,-506.38"/>
<polygon fill="fuchsia" stroke="fuchsia" stroke-width="2" points="1055.51,-503.29 1048.24,-510.99 1058.73,-509.51 1055.51,-503.29"/>
</g>
<!-- node8&#45;&gt;node9 -->
<g id="edge20" class="edge">
<title>node8&#45;&gt;node9</title>
<path fill="none" stroke="black" d="M1189.2,-438.89C1219.18,-428.66 1258.24,-415.32 1290.36,-404.36"/>
<polygon fill="black" stroke="black" points="1291.75,-407.58 1300.09,-401.04 1289.49,-400.96 1291.75,-407.58"/>
<text text-anchor="middle" x="1285.66" y="-411.19" font-family="Times,serif" font-size="14.00">*1</text>
</g>
<!-- node9&#45;&gt;node0 -->
<g id="edge18" class="edge">
<title>node9&#45;&gt;node0</title>
<path fill="none" stroke="fuchsia" stroke-width="2" d="M1348.87,-401.21C1348.02,-415.58 1347,-436.62 1347,-455 1347,-603 1347,-603 1347,-603 1347,-622.23 1339.77,-629.58 1323,-639 1282.14,-661.94 962.49,-652.43 884.37,-656.89"/>
<polygon fill="fuchsia" stroke="fuchsia" stroke-width="2" points="884.01,-653.41 874.32,-657.7 884.57,-660.39 884.01,-653.41"/>
</g>
<!-- node9&#45;&gt;node12 -->
<g id="edge29" class="edge">
<title>node9&#45;&gt;node12</title>
<path fill="none" stroke="black" d="M1303.53,-364.99C1276.14,-354.97 1241.29,-342.21 1212.33,-331.62"/>
<polygon fill="black" stroke="black" points="1213.35,-328.26 1202.76,-328.11 1210.95,-334.84 1213.35,-328.26"/>
<text text-anchor="middle" x="1222.69" y="-322.71" font-family="Times,serif" font-size="14.00">*0</text>
</g>
<!-- node10&#45;&gt;node5 -->
<g id="edge21" class="edge">
<title>node10&#45;&gt;node5</title>
<path fill="none" stroke="fuchsia" stroke-width="2" d="M910.62,-474.11C930.66,-483.77 954.77,-495.92 974.38,-506.24"/>
<polygon fill="fuchsia" stroke="fuchsia" stroke-width="2" points="972.85,-509.4 983.33,-510.99 976.13,-503.21 972.85,-509.4"/>
</g>
<!-- node10&#45;&gt;node11 -->
<g id="edge26" class="edge">
<title>node10&#45;&gt;node11</title>
<path fill="none" stroke="black" d="M790.02,-443.25C776.02,-441.38 761.6,-439.55 748,-438 587.31,-419.66 401.78,-403.75 280.3,-394.03"/>
<polygon fill="black" stroke="black" points="280.45,-390.54 270.21,-393.23 279.9,-397.51 280.45,-390.54"/>
<text text-anchor="middle" x="288.95" y="-382.54" font-family="Times,serif" font-size="14.00">*2</text>
</g>
<!-- node11&#45;&gt;node0 -->
<g id="edge23" class="edge">
<title>node11&#45;&gt;node0</title>
<path fill="none" stroke="fuchsia" stroke-width="2" d="M133.76,-401.04C123.19,-414.64 111,-434.73 111,-455 111,-603 111,-603 111,-603 111,-661.31 511.68,-671.94 697.9,-673.73"/>
<polygon fill="fuchsia" stroke="fuchsia" stroke-width="2" points="697.93,-677.23 707.96,-673.82 697.99,-670.23 697.93,-677.23"/>
</g>
<!-- node11&#45;&gt;node12 -->
<g id="edge31" class="edge">
<title>node11&#45;&gt;node12</title>
<path fill="none" stroke="green" d="M270.47,-373.44C478.96,-358.74 899.46,-329.09 1075.56,-316.67"/>
<polygon fill="green" stroke="green" points="1076.06,-320.15 1085.79,-315.95 1075.56,-313.16 1076.06,-320.15"/>
</g>
<!-- node12&#45;&gt;node0 -->
<g id="edge28" class="edge">
<title>node12&#45;&gt;node0</title>
<path fill="none" stroke="fuchsia" stroke-width="2" d="M1145.9,-328.08C1135.77,-347.67 1123.83,-379.8 1140,-401 1144.72,-407.18 1267.74,-435.22 1275,-438 1290.78,-444.04 1309,-438.11 1309,-455 1309,-603 1309,-603 1309,-603 1309,-648.7 963.99,-650.83 884.4,-656.8"/>
<polygon fill="fuchsia" stroke="fuchsia" stroke-width="2" points="883.95,-653.33 874.33,-657.76 884.61,-660.3 883.95,-653.33"/>
</g>
<!-- node13 -->
<g id="node14" class="node">
<title>node13</title>
<polygon fill="lightgrey" stroke="black" points="1420.5,-255 1261.5,-255 1261.5,-219 1420.5,-219 1420.5,-255"/>
<text text-anchor="middle" x="1341" y="-233.3" font-family="Times,serif" font-size="14.00">#13 true Order : 15</text>
</g>
<!-- node12&#45;&gt;node13 -->
<g id="edge33" class="edge">
<title>node12&#45;&gt;node13</title>
<path fill="none" stroke="red" d="M1194.45,-291.99C1219.51,-281.97 1252.64,-269.21 1281.09,-258.62"/>
<polygon fill="red" stroke="red" points="1282.38,-261.87 1290.54,-255.11 1279.94,-255.31 1282.38,-261.87"/>
</g>
<!-- node14 -->
<g id="node15" class="node">
<title>node14</title>
<polygon fill="lightgrey" stroke="black" points="1237.5,-255 1074.5,-255 1074.5,-219 1237.5,-219 1237.5,-255"/>
<text text-anchor="middle" x="1156" y="-233.3" font-family="Times,serif" font-size="14.00">#14 false Order : 12</text>
</g>
<!-- node12&#45;&gt;node14 -->
<g id="edge35" class="edge">
<title>node12&#45;&gt;node14</title>
<path fill="none" stroke="red" d="M1150.12,-291.81C1149.28,-283.79 1149.05,-274.05 1149.42,-265.07"/>
<polygon fill="red" stroke="red" points="1152.92,-265.25 1150.14,-255.03 1145.94,-264.75 1152.92,-265.25"/>
</g>
<!-- node12&#45;&gt;node18 -->
<g id="edge46" class="edge">
<title>node12&#45;&gt;node18</title>
<path fill="none" stroke="green" d="M1085.83,-307.68C924.81,-304.32 541.13,-294.22 522,-274 505.19,-256.23 515.7,-242.01 524,-219 541.44,-170.67 624.83,-168.1 594,-127 590.54,-122.39 586.51,-118.36 582.06,-114.84"/>
<polygon fill="green" stroke="green" points="583.85,-111.82 573.63,-109.03 579.88,-117.59 583.85,-111.82"/>
</g>
<!-- node12&#45;&gt;node20 -->
<g id="edge53" class="edge">
<title>node12&#45;&gt;node20</title>
<path fill="none" stroke="green" d="M1085.88,-300.29C982.2,-285.81 795.91,-253.11 756,-201 741.14,-181.59 741.71,-165.83 756,-146 786.41,-103.81 836.59,-151.19 867,-109 876.36,-96.02 877.76,-84.84 867,-73 838.59,-41.75 595.28,-28.15 437.04,-22.57"/>
<polygon fill="green" stroke="green" points="436.86,-19.06 426.75,-22.21 436.62,-26.06 436.86,-19.06"/>
</g>
<!-- node13&#45;&gt;node12 -->
<g id="edge32" class="edge">
<title>node13&#45;&gt;node12</title>
<path fill="none" stroke="fuchsia" stroke-width="2" d="M1302.28,-255.11C1277.16,-265.16 1244.03,-277.92 1215.61,-288.5"/>
<polygon fill="fuchsia" stroke="fuchsia" stroke-width="2" points="1214.33,-285.24 1206.17,-291.99 1216.76,-291.8 1214.33,-285.24"/>
</g>
<!-- node15 -->
<g id="node16" class="node">
<title>node15</title>
<polygon fill="lightgrey" stroke="black" points="1462,-182 1256,-182 1256,-146 1462,-146 1462,-182"/>
<text text-anchor="middle" x="1359" y="-160.3" font-family="Times,serif" font-size="14.00">#15 LabelNode Order : 16</text>
</g>
<!-- node13&#45;&gt;node15 -->
<g id="edge37" class="edge">
<title>node13&#45;&gt;node15</title>
<path fill="none" stroke="red" d="M1339.48,-218.81C1340.69,-210.7 1342.96,-200.84 1345.65,-191.78"/>
<polygon fill="red" stroke="red" points="1349.05,-192.62 1348.82,-182.03 1342.4,-190.45 1349.05,-192.62"/>
</g>
<!-- node14&#45;&gt;node12 -->
<g id="edge34" class="edge">
<title>node14&#45;&gt;node12</title>
<path fill="none" stroke="fuchsia" stroke-width="2" d="M1161.86,-255.03C1162.71,-263.03 1162.95,-272.77 1162.59,-281.75"/>
<polygon fill="fuchsia" stroke="fuchsia" stroke-width="2" points="1159.09,-281.59 1161.88,-291.81 1166.07,-282.08 1159.09,-281.59"/>
</g>
<!-- node16 -->
<g id="node17" class="node">
<title>node16</title>
<polygon fill="lightgrey" stroke="black" points="1237.5,-182 1074.5,-182 1074.5,-146 1237.5,-146 1237.5,-182"/>
<text text-anchor="middle" x="1156" y="-160.3" font-family="Times,serif" font-size="14.00">#16 Goto Order : 14</text>
</g>
<!-- node14&#45;&gt;node16 -->
<g id="edge39" class="edge">
<title>node14&#45;&gt;node16</title>
<path fill="none" stroke="red" d="M1150.12,-218.81C1149.28,-210.79 1149.05,-201.05 1149.42,-192.07"/>
<polygon fill="red" stroke="red" points="1152.92,-192.25 1150.14,-182.03 1145.94,-191.75 1152.92,-192.25"/>
</g>
<!-- node17 -->
<g id="node18" class="node">
<title>node17</title>
<polygon fill="lightgreen" stroke="black" points="1056.09,-156.54 1056.09,-171.46 985.74,-182 886.26,-182 815.91,-171.46 815.91,-156.54 886.26,-146 985.74,-146 1056.09,-156.54"/>
<text text-anchor="middle" x="936" y="-160.3" font-family="Times,serif" font-size="14.00">#17 int 20 Order : 13</text>
</g>
<!-- node14&#45;&gt;node17 -->
<g id="edge41" class="edge">
<title>node14&#45;&gt;node17</title>
<path fill="none" stroke="black" stroke-dasharray="1,5" d="M1097.45,-218.99C1065.04,-208.88 1024.99,-195.99 992.86,-185.34"/>
<polygon fill="black" stroke="black" points="993.75,-181.95 983.16,-182.11 991.54,-188.59 993.75,-181.95"/>
</g>
<!-- node15&#45;&gt;node13 -->
<g id="edge36" class="edge">
<title>node15&#45;&gt;node13</title>
<path fill="none" stroke="fuchsia" stroke-width="2" d="M1360.54,-182.03C1359.35,-190.12 1357.09,-199.98 1354.41,-209.05"/>
<polygon fill="fuchsia" stroke="fuchsia" stroke-width="2" points="1350.99,-208.22 1351.24,-218.81 1357.65,-210.38 1350.99,-208.22"/>
</g>
<!-- node19 -->
<g id="node20" class="node">
<title>node19</title>
<polygon fill="lightgreen" stroke="black" points="858.09,-83.54 858.09,-98.46 787.74,-109 688.26,-109 617.91,-98.46 617.91,-83.54 688.26,-73 787.74,-73 858.09,-83.54"/>
<text text-anchor="middle" x="738" y="-87.3" font-family="Times,serif" font-size="14.00">#19 int 30 Order : 17</text>
</g>
<!-- node15&#45;&gt;node19 -->
<g id="edge48" class="edge">
<title>node15&#45;&gt;node19</title>
<path fill="none" stroke="black" stroke-dasharray="1,5" d="M1255.95,-148.41C1249.87,-147.56 1243.85,-146.75 1238,-146 1103.37,-128.65 948.18,-112.78 846.81,-102.8"/>
<polygon fill="black" stroke="black" points="846.86,-99.29 836.56,-101.79 846.17,-106.25 846.86,-99.29"/>
</g>
<!-- node21 -->
<g id="node22" class="node">
<title>node21</title>
<polygon fill="lightgrey" stroke="black" points="1486,-109 1232,-109 1232,-73 1486,-73 1486,-109"/>
<text text-anchor="middle" x="1359" y="-87.3" font-family="Times,serif" font-size="14.00">#21 Merge : Merge30 Order : 21</text>
</g>
<!-- node15&#45;&gt;node21 -->
<g id="edge56" class="edge">
<title>node15&#45;&gt;node21</title>
<path fill="none" stroke="red" d="M1359,-145.81C1359,-137.79 1359,-128.05 1359,-119.07"/>
<polygon fill="red" stroke="red" points="1362.5,-119.03 1359,-109.03 1355.5,-119.03 1362.5,-119.03"/>
</g>
<!-- node16&#45;&gt;node14 -->
<g id="edge38" class="edge">
<title>node16&#45;&gt;node14</title>
<path fill="none" stroke="fuchsia" stroke-width="2" d="M1161.86,-182.03C1162.71,-190.03 1162.95,-199.77 1162.59,-208.75"/>
<polygon fill="fuchsia" stroke="fuchsia" stroke-width="2" points="1159.09,-208.59 1161.88,-218.81 1166.07,-209.08 1159.09,-208.59"/>
</g>
<!-- node16&#45;&gt;node21 -->
<g id="edge55" class="edge">
<title>node16&#45;&gt;node21</title>
<path fill="none" stroke="red" d="M1204.62,-145.99C1233.41,-135.92 1270.08,-123.1 1300.45,-112.48"/>
<polygon fill="red" stroke="red" points="1301.79,-115.72 1310.07,-109.11 1299.47,-109.11 1301.79,-115.72"/>
</g>
<!-- node17&#45;&gt;node14 -->
<g id="edge40" class="edge">
<title>node17&#45;&gt;node14</title>
<path fill="none" stroke="fuchsia" stroke-width="2" d="M991.76,-181.14C1024.8,-191.42 1066.48,-204.83 1099.62,-215.82"/>
<polygon fill="fuchsia" stroke="fuchsia" stroke-width="2" points="1098.57,-219.16 1109.16,-218.99 1100.78,-212.51 1098.57,-219.16"/>
</g>
<!-- node17&#45;&gt;node18 -->
<g id="edge45" class="edge">
<title>node17&#45;&gt;node18</title>
<path fill="none" stroke="black" d="M855.26,-150.59C783.31,-139.53 676.99,-123.19 594.89,-110.58"/>
<polygon fill="black" stroke="black" points="595.42,-107.12 585,-109.06 594.35,-114.04 595.42,-107.12"/>
<text text-anchor="middle" x="604.2" y="-99.76" font-family="Times,serif" font-size="14.00">*2</text>
</g>
<!-- node18&#45;&gt;node0 -->
<g id="edge42" class="edge">
<title>node18&#45;&gt;node0</title>
<path fill="none" stroke="fuchsia" stroke-width="2" d="M464.7,-109.3C433.17,-167.48 329.55,-354.99 279,-401 252.1,-425.49 225.04,-407.01 206,-438 197.63,-451.63 196.69,-460.98 206,-474 264.2,-555.41 547.98,-624.33 697.85,-655.77"/>
<polygon fill="fuchsia" stroke="fuchsia" stroke-width="2" points="697.46,-659.26 707.96,-657.87 698.89,-652.41 697.46,-659.26"/>
</g>
<!-- node18&#45;&gt;node21 -->
<g id="edge57" class="edge">
<title>node18&#45;&gt;node21</title>
<path fill="none" stroke="green" d="M531.53,-109.07C557.63,-116.36 589.08,-123.89 618,-127.5 833.05,-154.33 1085.52,-130.12 1233.32,-110.38"/>
<polygon fill="green" stroke="green" points="1233.9,-113.83 1243.34,-109.03 1232.96,-106.9 1233.9,-113.83"/>
</g>
<!-- node19&#45;&gt;node15 -->
<g id="edge47" class="edge">
<title>node19&#45;&gt;node15</title>
<path fill="none" stroke="fuchsia" stroke-width="2" d="M841.88,-101C944.18,-110.56 1104.95,-126.76 1245.58,-144.67"/>
<polygon fill="fuchsia" stroke="fuchsia" stroke-width="2" points="1245.31,-148.16 1255.67,-145.96 1246.2,-141.22 1245.31,-148.16"/>
</g>
<!-- node19&#45;&gt;node20 -->
<g id="edge52" class="edge">
<title>node19&#45;&gt;node20</title>
<path fill="none" stroke="black" d="M659.62,-77.27C591.81,-66.25 492.84,-50.17 416.04,-37.69"/>
<polygon fill="black" stroke="black" points="416.27,-34.18 405.84,-36.03 415.15,-41.09 416.27,-34.18"/>
<text text-anchor="middle" x="425.09" y="-26.9" font-family="Times,serif" font-size="14.00">*2</text>
</g>
<!-- node20&#45;&gt;node0 -->
<g id="edge49" class="edge">
<title>node20&#45;&gt;node0</title>
<path fill="none" stroke="fuchsia" stroke-width="2" d="M175.09,-26.02C92.61,-34.2 0,-51.88 0,-90 0,-603 0,-603 0,-603 0,-681.1 94.57,-628.77 172,-639 357.4,-663.5 576.26,-670.87 697.76,-673.07"/>
<polygon fill="fuchsia" stroke="fuchsia" stroke-width="2" points="697.72,-676.57 707.78,-673.24 697.84,-669.57 697.72,-676.57"/>
</g>
<!-- node20&#45;&gt;node21 -->
<g id="edge58" class="edge">
<title>node20&#45;&gt;node21</title>
<path fill="none" stroke="green" d="M426.75,-27.44C626.59,-40.85 1015.16,-66.93 1221.9,-80.8"/>
<polygon fill="green" stroke="green" points="1221.69,-84.29 1231.91,-81.47 1222.16,-77.31 1221.69,-84.29"/>
</g>
<!-- node21&#45;&gt;node0 -->
<g id="edge54" class="edge">
<title>node21&#45;&gt;node0</title>
<path fill="none" stroke="fuchsia" stroke-width="2" d="M1472.87,-109.04C1526.55,-120.4 1579,-137.92 1579,-163 1579,-603 1579,-603 1579,-603 1579,-690.69 1472.47,-632.73 1385,-639 1164.27,-654.83 1104.9,-632.53 884.27,-656.58"/>
<polygon fill="fuchsia" stroke="fuchsia" stroke-width="2" points="883.87,-653.1 874.32,-657.68 884.64,-660.06 883.87,-653.1"/>
</g>
<!-- node21&#45;&gt;node22 -->
<g id="edge62" class="edge">
<title>node21&#45;&gt;node22</title>
<path fill="none" stroke="green" d="M1231.66,-98.51C971.98,-113.1 400.86,-152.47 344,-219 256.25,-321.67 479.73,-360.06 632.37,-374.13"/>
<polygon fill="green" stroke="green" points="632.5,-377.66 642.77,-375.06 633.13,-370.68 632.5,-377.66"/>
</g>
<!-- node23 -->
<g id="node24" class="node">
<title>node23</title>
<polygon fill="lightgrey" stroke="black" points="1484.5,-36 1233.5,-36 1233.5,0 1484.5,0 1484.5,-36"/>
<text text-anchor="middle" x="1359" y="-14.3" font-family="Times,serif" font-size="14.00">#23 ReturnValue : int Order : 23</text>
</g>
<!-- node21&#45;&gt;node23 -->
<g id="edge65" class="edge">
<title>node21&#45;&gt;node23</title>
<path fill="none" stroke="red" d="M1359,-72.81C1359,-64.79 1359,-55.05 1359,-46.07"/>
<polygon fill="red" stroke="red" points="1362.5,-46.03 1359,-36.03 1355.5,-46.03 1362.5,-46.03"/>
</g>
<!-- node22&#45;&gt;node0 -->
<g id="edge59" class="edge">
<title>node22&#45;&gt;node0</title>
<path fill="none" stroke="fuchsia" stroke-width="2" d="M879.14,-390.44C1015.08,-398.87 1223.37,-415.27 1252,-438 1271.93,-453.82 1271,-466.56 1271,-492 1271,-603 1271,-603 1271,-603 1271,-644.54 958.98,-649.45 884.49,-656.7"/>
<polygon fill="fuchsia" stroke="fuchsia" stroke-width="2" points="883.86,-653.26 874.36,-657.94 884.71,-660.2 883.86,-653.26"/>
</g>
<!-- node22&#45;&gt;node23 -->
<g id="edge64" class="edge">
<title>node22&#45;&gt;node23</title>
<path fill="none" stroke="black" d="M760.65,-364.8C763.98,-350.61 770,-329.82 770,-311 770,-311 770,-311 770,-200 770,-172.97 776.63,-162.56 798,-146 833.37,-118.59 1097.46,-65.96 1250.4,-37.83"/>
<polygon fill="black" stroke="black" points="1251.11,-41.26 1260.31,-36.01 1249.85,-34.37 1251.11,-41.26"/>
<text text-anchor="middle" x="1244.01" y="-43.89" font-family="Times,serif" font-size="14.00">*0</text>
</g>
<!-- node22&#45;&gt;node23 -->
<g id="edge66" class="edge">
<title>node22&#45;&gt;node23</title>
<path fill="none" stroke="green" d="M775.17,-364.8C781.98,-350.61 788,-329.82 788,-311 788,-311 788,-311 788,-200 788,-172.97 794.63,-162.56 816,-146 851.33,-118.62 1114.93,-66.07 1261.5,-37.91"/>
<polygon fill="green" stroke="green" points="1262.25,-41.33 1271.41,-36.01 1260.93,-34.46 1262.25,-41.33"/>
</g>
<!-- node23&#45;&gt;node0 -->
<g id="edge63" class="edge">
<title>node23&#45;&gt;node0</title>
<path fill="none" stroke="fuchsia" stroke-width="2" d="M1484.51,-29.88C1555.02,-39.6 1629,-57.53 1629,-90 1629,-603 1629,-603 1629,-603 1629,-700.76 1509.53,-632.21 1412,-639 1179.33,-655.2 1116.88,-631.42 884.44,-656.57"/>
<polygon fill="fuchsia" stroke="fuchsia" stroke-width="2" points="883.88,-653.11 874.32,-657.68 884.64,-660.06 883.88,-653.11"/>
</g>
<!-- c0 -->
<!-- c1 -->
<!-- c0&#45;&gt;c1 -->
<g id="edge67" class="edge">
<title>c0&#45;&gt;c1</title>
<path fill="none" stroke="red" d="M1742.89,-675C1754.11,-675 1812.24,-675 1837.86,-675"/>
<polygon fill="red" stroke="red" points="1838.06,-678.5 1848.06,-675 1838.06,-671.5 1838.06,-678.5"/>
<text text-anchor="middle" x="1795.5" y="-681.8" font-family="Times,serif" font-size="14.00">Control flow</text>
</g>
<!-- c2 -->
<!-- c3 -->
<!-- c2&#45;&gt;c3 -->
<g id="edge68" class="edge">
<title>c2&#45;&gt;c3</title>
<path fill="none" stroke="red" stroke-dasharray="5,2" d="M1536.08,-675C1553.05,-675 1669.21,-675 1707.08,-675"/>
<polygon fill="red" stroke="red" points="1707.17,-678.5 1717.17,-675 1707.17,-671.5 1707.17,-678.5"/>
<text text-anchor="middle" x="1626.5" y="-681.8" font-family="Times,serif" font-size="14.00">Control flow back edge</text>
</g>
<!-- d0 -->
<!-- d1 -->
<!-- d0&#45;&gt;d1 -->
<g id="edge69" class="edge">
<title>d0&#45;&gt;d1</title>
<path fill="none" stroke="black" d="M1424.86,-675C1434.41,-675 1478.31,-675 1499.92,-675"/>
<polygon fill="black" stroke="black" points="1500.15,-678.5 1510.15,-675 1500.15,-671.5 1500.15,-678.5"/>
<text text-anchor="middle" x="1467.5" y="-681.8" font-family="Times,serif" font-size="14.00">Data flow</text>
</g>
<!-- d2 -->
<!-- d3 -->
<!-- d2&#45;&gt;d3 -->
<g id="edge70" class="edge">
<title>d2&#45;&gt;d3</title>
<path fill="none" stroke="black" stroke-dasharray="1,5" d="M1298.81,-675C1309.46,-675 1364.46,-675 1389.08,-675"/>
<polygon fill="black" stroke="black" points="1389.15,-678.5 1399.15,-675 1389.15,-671.5 1389.15,-678.5"/>
<text text-anchor="middle" x="1349" y="-681.8" font-family="Times,serif" font-size="14.00">Declaration</text>
</g>
<!-- d4 -->
<!-- d5 -->
<!-- d4&#45;&gt;d5 -->
<g id="edge71" class="edge">
<title>d4&#45;&gt;d5</title>
<path fill="none" stroke="blue" d="M1156.1,-675C1168.72,-675 1234.88,-675 1262.68,-675"/>
<polygon fill="blue" stroke="blue" points="1262.84,-678.5 1272.84,-675 1262.84,-671.5 1262.84,-678.5"/>
<text text-anchor="middle" x="1214.5" y="-681.8" font-family="Times,serif" font-size="14.00">PHI Data flow</text>
</g>
<!-- d6 -->
<!-- d7 -->
<!-- d6&#45;&gt;d7 -->
<g id="edge72" class="edge">
<title>d6&#45;&gt;d7</title>
<path fill="none" stroke="green" d="M1019,-675C1030.94,-675 1093.3,-675 1119.93,-675"/>
<polygon fill="green" stroke="green" points="1119.95,-678.5 1129.95,-675 1119.95,-671.5 1119.95,-678.5"/>
<text text-anchor="middle" x="1074.5" y="-681.8" font-family="Times,serif" font-size="14.00">Memory flow</text>
</g>
<!-- d8 -->
<!-- d9 -->
<!-- d8&#45;&gt;d9 -->
<g id="edge73" class="edge">
<title>d8&#45;&gt;d9</title>
<path fill="none" stroke="fuchsia" d="M896.11,-675C907.15,-675 958.67,-675 982.66,-675"/>
<polygon fill="fuchsia" stroke="fuchsia" points="982.9,-678.5 992.9,-675 982.9,-671.5 982.9,-678.5"/>
<text text-anchor="middle" x="944.5" y="-681.8" font-family="Times,serif" font-size="14.00">Dominance</text>
</g>
</g>
</svg>
