<?xml version="1.0" encoding="UTF-8" standalone="no"?>
<!DOCTYPE svg PUBLIC "-//W3C//DTD SVG 1.1//EN"
 "http://www.w3.org/Graphics/SVG/1.1/DTD/svg11.dtd">
<!-- Generated by graphviz version 2.43.0 (0)
 -->
<!-- Title: debugoutput Pages: 1 -->
<svg width="1722pt" height="1016pt"
 viewBox="0.00 0.00 1722.00 1015.80" xmlns="http://www.w3.org/2000/svg" xmlns:xlink="http://www.w3.org/1999/xlink">
<g id="graph0" class="graph" transform="scale(1 1) rotate(0) translate(4 1011.8)">
<title>debugoutput</title>
<polygon fill="white" stroke="transparent" points="-4,4 -4,-1011.8 1718,-1011.8 1718,4 -4,4"/>
<g id="clust1" class="cluster">
<title>cluster_000</title>
<polygon fill="none" stroke="black" points="730,-957.2 730,-999.8 1706,-999.8 1706,-957.2 730,-957.2"/>
<text text-anchor="middle" x="1218" y="-984.6" font-family="Times,serif" font-size="14.00">Legend</text>
</g>
<!-- node0 -->
<g id="node1" class="node">
<title>node0</title>
<polygon fill="lightgrey" stroke="black" points="720,-985 554,-985 554,-949 720,-949 720,-985"/>
<text text-anchor="middle" x="637" y="-963.3" font-family="Times,serif" font-size="14.00">#0 Method Order : 0</text>
</g>
<!-- node1 -->
<g id="node2" class="node">
<title>node1</title>
<polygon fill="lightgrey" stroke="black" points="1172,-766 986,-766 986,-730 1172,-730 1172,-766"/>
<text text-anchor="middle" x="1079" y="-744.3" font-family="Times,serif" font-size="14.00">#1 arg2 : int Order : 17</text>
</g>
<!-- node0&#45;&gt;node1 -->
<g id="edge2" class="edge">
<title>node0&#45;&gt;node1</title>
<path fill="none" stroke="black" d="M717.32,-948.96C771.91,-941.92 916.54,-959.88 963,-931 1020.37,-895.34 1050.59,-816.69 1066.38,-775.44"/>
<polygon fill="black" stroke="black" points="1069.67,-776.63 1070,-766.04 1063.14,-774.12 1069.67,-776.63"/>
<text text-anchor="middle" x="1071.37" y="-782.29" font-family="Times,serif" font-size="14.00">*0</text>
</g>
<!-- node2 -->
<g id="node3" class="node">
<title>node2</title>
<polygon fill="lightgrey" stroke="black" points="524.5,-912 347.5,-912 347.5,-876 524.5,-876 524.5,-912"/>
<text text-anchor="middle" x="436" y="-890.3" font-family="Times,serif" font-size="14.00">#2 arg1 : int Order : 7</text>
</g>
<!-- node0&#45;&gt;node2 -->
<g id="edge4" class="edge">
<title>node0&#45;&gt;node2</title>
<path fill="none" stroke="black" d="M583,-948.99C553.55,-938.97 517.33,-926.21 488.17,-915.62"/>
<polygon fill="black" stroke="black" points="489.17,-912.26 478.58,-912.11 486.77,-918.83 489.17,-912.26"/>
<text text-anchor="middle" x="498.5" y="-906.69" font-family="Times,serif" font-size="14.00">*0</text>
</g>
<!-- node3 -->
<g id="node4" class="node">
<title>node3</title>
<polygon fill="lightgrey" stroke="black" points="242.5,-912 65.5,-912 65.5,-876 242.5,-876 242.5,-912"/>
<text text-anchor="middle" x="154" y="-890.3" font-family="Times,serif" font-size="14.00">#3 arg0 : int Order : 6</text>
</g>
<!-- node0&#45;&gt;node3 -->
<g id="edge6" class="edge">
<title>node0&#45;&gt;node3</title>
<path fill="none" stroke="black" d="M553.82,-964.52C474.08,-961.74 350.98,-953.76 247,-931 229.99,-927.28 211.91,-921.53 196.21,-915.7"/>
<polygon fill="black" stroke="black" points="197.35,-912.4 186.76,-912.09 194.85,-918.93 197.35,-912.4"/>
<text text-anchor="middle" x="206.71" y="-906.98" font-family="Times,serif" font-size="14.00">*0</text>
</g>
<!-- node4 -->
<g id="node5" class="node">
<title>node4</title>
<polygon fill="lightgrey" stroke="black" points="731,-912 543,-912 543,-876 731,-876 731,-912"/>
<text text-anchor="middle" x="637" y="-890.3" font-family="Times,serif" font-size="14.00">#4 LabelNode Order : 1</text>
</g>
<!-- node0&#45;&gt;node4 -->
<g id="edge8" class="edge">
<title>node0&#45;&gt;node4</title>
<path fill="none" stroke="red" d="M631.12,-948.81C630.28,-940.79 630.05,-931.05 630.42,-922.07"/>
<polygon fill="red" stroke="red" points="633.92,-922.25 631.14,-912.03 626.94,-921.75 633.92,-922.25"/>
</g>
<!-- node7 -->
<g id="node8" class="node">
<title>node7</title>
<polygon fill="orange" stroke="black" points="929.89,-740.54 929.89,-755.46 836.23,-766 703.77,-766 610.11,-755.46 610.11,-740.54 703.77,-730 836.23,-730 929.89,-740.54"/>
<text text-anchor="middle" x="770" y="-744.3" font-family="Times,serif" font-size="14.00">#7 NewArray : int[] Order : 3</text>
</g>
<!-- node0&#45;&gt;node7 -->
<g id="edge15" class="edge">
<title>node0&#45;&gt;node7</title>
<path fill="none" stroke="green" d="M676.94,-948.96C718.73,-929.94 781.07,-894.35 804,-839 810.12,-824.22 809.28,-818.1 804,-803 800.32,-792.48 793.64,-782.48 787.06,-774"/>
<polygon fill="green" stroke="green" points="789.64,-771.63 780.62,-766.08 784.21,-776.04 789.64,-771.63"/>
</g>
<!-- node1&#45;&gt;node0 -->
<g id="edge1" class="edge">
<title>node1&#45;&gt;node0</title>
<path fill="none" stroke="fuchsia" stroke-width="2" d="M1079.48,-766.04C1073.39,-803.43 1043.1,-892.4 981,-931 934.45,-959.94 789.34,-941.85 735,-949 733.49,-949.2 731.97,-949.41 730.43,-949.62"/>
<polygon fill="fuchsia" stroke="fuchsia" stroke-width="2" points="729.55,-946.22 720.18,-951.16 730.59,-953.14 729.55,-946.22"/>
</g>
<!-- node17 -->
<g id="node18" class="node">
<title>node17</title>
<polygon fill="lightgrey" stroke="black" points="908.5,-255 657.5,-255 657.5,-219 908.5,-219 908.5,-255"/>
<text text-anchor="middle" x="783" y="-233.3" font-family="Times,serif" font-size="14.00">#17 ArrayStore : int[] Order : 19</text>
</g>
<!-- node1&#45;&gt;node17 -->
<g id="edge42" class="edge">
<title>node1&#45;&gt;node17</title>
<path fill="none" stroke="black" d="M1055.79,-729.83C1041.15,-716.88 1025,-697.68 1025,-676 1025,-676 1025,-676 1025,-309 1025,-283.24 973.86,-266.16 918.6,-255.22"/>
<polygon fill="black" stroke="black" points="919.09,-251.75 908.61,-253.32 917.78,-258.63 919.09,-251.75"/>
<text text-anchor="middle" x="928" y="-244.71" font-family="Times,serif" font-size="14.00">*1</text>
</g>
<!-- node19 -->
<g id="node20" class="node">
<title>node19</title>
<polygon fill="lightgrey" stroke="black" points="615.5,-182 364.5,-182 364.5,-146 615.5,-146 615.5,-182"/>
<text text-anchor="middle" x="490" y="-160.3" font-family="Times,serif" font-size="14.00">#19 ArrayStore : int[] Order : 18</text>
</g>
<!-- node1&#45;&gt;node19 -->
<g id="edge50" class="edge">
<title>node1&#45;&gt;node19</title>
<path fill="none" stroke="black" d="M1021.22,-729.98C997.28,-719.04 975,-701.91 975,-676 975,-676 975,-676 975,-236 975,-218.26 769.23,-193.51 625.75,-178.4"/>
<polygon fill="black" stroke="black" points="625.84,-174.9 615.53,-177.33 625.11,-181.86 625.84,-174.9"/>
<text text-anchor="middle" x="634.44" y="-167.12" font-family="Times,serif" font-size="14.00">*1</text>
</g>
<!-- node22 -->
<g id="node23" class="node">
<title>node22</title>
<polygon fill="lightgrey" stroke="black" points="1289,-693 1053,-693 1053,-657 1289,-657 1289,-693"/>
<text text-anchor="middle" x="1171" y="-671.3" font-family="Times,serif" font-size="14.00">#22 ArrayLoad : int Order : 22</text>
</g>
<!-- node1&#45;&gt;node22 -->
<g id="edge63" class="edge">
<title>node1&#45;&gt;node22</title>
<path fill="none" stroke="black" d="M1101.27,-729.81C1113.14,-720.66 1127.9,-709.26 1140.79,-699.32"/>
<polygon fill="black" stroke="black" points="1143.16,-701.91 1148.93,-693.03 1138.88,-696.37 1143.16,-701.91"/>
<text text-anchor="middle" x="1139.75" y="-707.09" font-family="Times,serif" font-size="14.00">*1</text>
</g>
<!-- node2&#45;&gt;node0 -->
<g id="edge3" class="edge">
<title>node2&#45;&gt;node0</title>
<path fill="none" stroke="fuchsia" stroke-width="2" d="M490.32,-912.11C519.81,-922.16 556.03,-934.92 585.14,-945.5"/>
<polygon fill="fuchsia" stroke="fuchsia" stroke-width="2" points="584.12,-948.85 594.71,-948.99 586.52,-942.28 584.12,-948.85"/>
</g>
<!-- node9 -->
<g id="node10" class="node">
<title>node9</title>
<polygon fill="lightgrey" stroke="black" points="496.5,-693 263.5,-693 263.5,-657 496.5,-657 496.5,-693"/>
<text text-anchor="middle" x="380" y="-671.3" font-family="Times,serif" font-size="14.00">#9 ArrayStore : int[] Order : 8</text>
</g>
<!-- node2&#45;&gt;node9 -->
<g id="edge20" class="edge">
<title>node2&#45;&gt;node9</title>
<path fill="none" stroke="black" d="M408.74,-875.8C396.03,-866.42 381.8,-853.71 373,-839 347.87,-796.98 351.93,-778.7 357,-730 357.89,-721.42 358.02,-719.1 361,-711 362.06,-708.11 363.33,-705.16 364.7,-702.27"/>
<polygon fill="black" stroke="black" points="367.84,-703.83 369.3,-693.34 361.61,-700.63 367.84,-703.83"/>
<text text-anchor="middle" x="368.52" y="-709.62" font-family="Times,serif" font-size="14.00">*1</text>
</g>
<!-- node3&#45;&gt;node0 -->
<g id="edge5" class="edge">
<title>node3&#45;&gt;node0</title>
<path fill="none" stroke="fuchsia" stroke-width="2" d="M203.26,-912.09C222.36,-919.05 244.45,-926.5 265,-931 358.77,-951.52 468.08,-960.03 543.89,-963.54"/>
<polygon fill="fuchsia" stroke="fuchsia" stroke-width="2" points="543.75,-967.04 553.9,-963.99 544.06,-960.05 543.75,-967.04"/>
</g>
<!-- node11 -->
<g id="node12" class="node">
<title>node11</title>
<polygon fill="orange" stroke="black" points="519.56,-521.54 519.56,-536.46 397.97,-547 226.03,-547 104.44,-536.46 104.44,-521.54 226.03,-511 397.97,-511 519.56,-521.54"/>
<text text-anchor="middle" x="312" y="-525.3" font-family="Times,serif" font-size="14.00">#11 NumericCondition : EQ Order : 10</text>
</g>
<!-- node3&#45;&gt;node11 -->
<g id="edge27" class="edge">
<title>node3&#45;&gt;node11</title>
<path fill="none" stroke="black" d="M162.06,-875.91C167.98,-861.78 175,-841.02 175,-822 175,-822 175,-822 175,-601 175,-577.22 191.47,-561.39 212.99,-550.87"/>
<polygon fill="black" stroke="black" points="214.42,-554.06 222.15,-546.81 211.59,-547.66 214.42,-554.06"/>
<text text-anchor="middle" x="209" y="-558.18" font-family="Times,serif" font-size="14.00">*0</text>
</g>
<!-- node4&#45;&gt;node0 -->
<g id="edge7" class="edge">
<title>node4&#45;&gt;node0</title>
<path fill="none" stroke="fuchsia" stroke-width="2" d="M642.86,-912.03C643.71,-920.03 643.95,-929.77 643.59,-938.75"/>
<polygon fill="fuchsia" stroke="fuchsia" stroke-width="2" points="640.09,-938.59 642.88,-948.81 647.07,-939.08 640.09,-938.59"/>
</g>
<!-- node5 -->
<g id="node6" class="node">
<title>node5</title>
<polygon fill="lightgrey" stroke="black" points="570,-839 382,-839 382,-803 570,-803 570,-839"/>
<text text-anchor="middle" x="476" y="-817.3" font-family="Times,serif" font-size="14.00">#5 LabelNode Order : 4</text>
</g>
<!-- node4&#45;&gt;node5 -->
<g id="edge10" class="edge">
<title>node4&#45;&gt;node5</title>
<path fill="none" stroke="red" d="M592.58,-875.99C569.3,-866.19 541,-853.77 518.08,-843.31"/>
<polygon fill="red" stroke="red" points="519.48,-840.11 508.94,-839.11 516.56,-846.47 519.48,-840.11"/>
</g>
<!-- node6 -->
<g id="node7" class="node">
<title>node6</title>
<polygon fill="lightgreen" stroke="black" points="803.77,-813.54 803.77,-828.46 740.64,-839 651.36,-839 588.23,-828.46 588.23,-813.54 651.36,-803 740.64,-803 803.77,-813.54"/>
<text text-anchor="middle" x="696" y="-817.3" font-family="Times,serif" font-size="14.00">#6 int 10 Order : 2</text>
</g>
<!-- node4&#45;&gt;node6 -->
<g id="edge12" class="edge">
<title>node4&#45;&gt;node6</title>
<path fill="none" stroke="black" stroke-dasharray="1,5" d="M645.4,-875.81C651.8,-867 660.65,-856.13 669.22,-846.46"/>
<polygon fill="black" stroke="black" points="671.84,-848.78 675.99,-839.03 666.67,-844.07 671.84,-848.78"/>
</g>
<!-- node5&#45;&gt;node4 -->
<g id="edge9" class="edge">
<title>node5&#45;&gt;node4</title>
<path fill="none" stroke="fuchsia" stroke-width="2" d="M520.68,-839.11C543.99,-848.94 572.29,-861.36 595.17,-871.8"/>
<polygon fill="fuchsia" stroke="fuchsia" stroke-width="2" points="593.75,-875 604.3,-875.99 596.67,-868.64 593.75,-875"/>
</g>
<!-- node8 -->
<g id="node9" class="node">
<title>node8</title>
<polygon fill="lightgreen" stroke="black" points="592.77,-740.54 592.77,-755.46 529.64,-766 440.36,-766 377.23,-755.46 377.23,-740.54 440.36,-730 529.64,-730 592.77,-740.54"/>
<text text-anchor="middle" x="485" y="-744.3" font-family="Times,serif" font-size="14.00">#8 int 10 Order : 5</text>
</g>
<!-- node5&#45;&gt;node8 -->
<g id="edge17" class="edge">
<title>node5&#45;&gt;node8</title>
<path fill="none" stroke="black" stroke-dasharray="1,5" d="M472.3,-802.81C472.48,-794.79 473.48,-785.05 474.99,-776.07"/>
<polygon fill="black" stroke="black" points="478.47,-776.52 476.98,-766.03 471.6,-775.16 478.47,-776.52"/>
</g>
<!-- node5&#45;&gt;node9 -->
<g id="edge23" class="edge">
<title>node5&#45;&gt;node9</title>
<path fill="none" stroke="red" d="M414,-802.89C396.04,-794.74 378.47,-782.94 368,-766 356.34,-747.13 361.12,-721.82 367.8,-702.84"/>
<polygon fill="red" stroke="red" points="371.14,-703.89 371.49,-693.3 364.62,-701.36 371.14,-703.89"/>
</g>
<!-- node6&#45;&gt;node4 -->
<g id="edge11" class="edge">
<title>node6&#45;&gt;node4</title>
<path fill="none" stroke="fuchsia" stroke-width="2" d="M687.71,-839.03C681.34,-847.81 672.51,-858.69 663.93,-868.37"/>
<polygon fill="fuchsia" stroke="fuchsia" stroke-width="2" points="661.3,-866.06 657.16,-875.81 666.48,-870.77 661.3,-866.06"/>
</g>
<!-- node6&#45;&gt;node7 -->
<g id="edge14" class="edge">
<title>node6&#45;&gt;node7</title>
<path fill="none" stroke="black" d="M713.91,-802.81C723.18,-793.92 734.66,-782.91 744.81,-773.17"/>
<polygon fill="black" stroke="black" points="747.46,-775.48 752.25,-766.03 742.61,-770.43 747.46,-775.48"/>
<text text-anchor="middle" x="745.02" y="-780.98" font-family="Times,serif" font-size="14.00">*0</text>
</g>
<!-- node7&#45;&gt;node0 -->
<g id="edge13" class="edge">
<title>node7&#45;&gt;node0</title>
<path fill="none" stroke="fuchsia" stroke-width="2" d="M796.57,-766.08C806.86,-775.86 817.1,-788.97 822,-803 827.28,-818.1 828.12,-824.22 822,-839 800.6,-890.68 744.84,-925.12 700.01,-944.95"/>
<polygon fill="fuchsia" stroke="fuchsia" stroke-width="2" points="698.45,-941.81 690.63,-948.96 701.2,-948.25 698.45,-941.81"/>
</g>
<!-- node7&#45;&gt;node9 -->
<g id="edge19" class="edge">
<title>node7&#45;&gt;node9</title>
<path fill="none" stroke="black" d="M683.11,-732.2C622.21,-721.36 540.77,-706.56 477.62,-694.87"/>
<polygon fill="black" stroke="black" points="478.12,-691.41 467.65,-693.02 476.85,-698.29 478.12,-691.41"/>
<text text-anchor="middle" x="487.01" y="-684.32" font-family="Times,serif" font-size="14.00">*0</text>
</g>
<!-- node7&#45;&gt;node9 -->
<g id="edge22" class="edge">
<title>node7&#45;&gt;node9</title>
<path fill="none" stroke="green" d="M690.11,-731.42C632.22,-720.65 553.29,-706.26 489.53,-694.84"/>
<polygon fill="green" stroke="green" points="489.9,-691.35 479.44,-693.04 488.66,-698.24 489.9,-691.35"/>
</g>
<!-- node7&#45;&gt;node17 -->
<g id="edge41" class="edge">
<title>node7&#45;&gt;node17</title>
<path fill="none" stroke="black" d="M774.91,-729.94C778.6,-715.66 783,-694.67 783,-676 783,-676 783,-676 783,-309 783,-294.65 783,-278.67 783,-265.51"/>
<polygon fill="black" stroke="black" points="786.5,-265.22 783,-255.22 779.5,-265.22 786.5,-265.22"/>
<text text-anchor="middle" x="791.45" y="-269.64" font-family="Times,serif" font-size="14.00">*0</text>
</g>
<!-- node7&#45;&gt;node19 -->
<g id="edge49" class="edge">
<title>node7&#45;&gt;node19</title>
<path fill="none" stroke="black" d="M714.77,-729.95C691.19,-718.93 669,-701.72 669,-676 669,-676 669,-676 669,-346 669,-270.59 589.48,-215.3 536.44,-186.8"/>
<polygon fill="black" stroke="black" points="538.01,-183.67 527.52,-182.13 534.76,-189.87 538.01,-183.67"/>
<text text-anchor="middle" x="547.5" y="-179.36" font-family="Times,serif" font-size="14.00">*0</text>
</g>
<!-- node7&#45;&gt;node22 -->
<g id="edge62" class="edge">
<title>node7&#45;&gt;node22</title>
<path fill="none" stroke="black" d="M854.55,-732.03C915.86,-721.17 999.2,-706.42 1064.97,-694.77"/>
<polygon fill="black" stroke="black" points="1065.71,-698.2 1074.95,-693.01 1064.49,-691.3 1065.71,-698.2"/>
<text text-anchor="middle" x="1058.58" y="-700.79" font-family="Times,serif" font-size="14.00">*0</text>
</g>
<!-- node8&#45;&gt;node5 -->
<g id="edge16" class="edge">
<title>node8&#45;&gt;node5</title>
<path fill="none" stroke="fuchsia" stroke-width="2" d="M488.7,-766.03C488.54,-774.03 487.54,-783.77 486.04,-792.75"/>
<polygon fill="fuchsia" stroke="fuchsia" stroke-width="2" points="482.56,-792.32 484.06,-802.81 489.42,-793.68 482.56,-792.32"/>
</g>
<!-- node8&#45;&gt;node9 -->
<g id="edge21" class="edge">
<title>node8&#45;&gt;node9</title>
<path fill="none" stroke="black" d="M459.85,-729.99C446.05,-720.67 428.76,-708.97 413.8,-698.86"/>
<polygon fill="black" stroke="black" points="415.55,-695.82 405.31,-693.11 411.63,-701.61 415.55,-695.82"/>
<text text-anchor="middle" x="425.06" y="-692.57" font-family="Times,serif" font-size="14.00">*2</text>
</g>
<!-- node9&#45;&gt;node0 -->
<g id="edge18" class="edge">
<title>node9&#45;&gt;node0</title>
<path fill="none" stroke="fuchsia" stroke-width="2" d="M366.9,-693.43C360.23,-703.52 352.92,-716.81 350,-730 309.99,-911.05 323.91,-895.14 338,-912 363.9,-942.99 465.79,-956.23 543.5,-961.86"/>
<polygon fill="fuchsia" stroke="fuchsia" stroke-width="2" points="543.59,-965.38 553.81,-962.58 544.08,-958.39 543.59,-965.38"/>
</g>
<!-- node10 -->
<g id="node11" class="node">
<title>node10</title>
<polygon fill="lightgreen" stroke="black" points="478.77,-594.54 478.77,-609.46 415.64,-620 326.36,-620 263.23,-609.46 263.23,-594.54 326.36,-584 415.64,-584 478.77,-594.54"/>
<text text-anchor="middle" x="371" y="-598.3" font-family="Times,serif" font-size="14.00">#10 int 0 Order : 9</text>
</g>
<!-- node9&#45;&gt;node10 -->
<g id="edge25" class="edge">
<title>node9&#45;&gt;node10</title>
<path fill="none" stroke="black" stroke-dasharray="1,5" d="M371.94,-656.81C370.09,-648.79 368.62,-639.05 367.85,-630.07"/>
<polygon fill="black" stroke="black" points="371.35,-629.82 367.3,-620.03 364.36,-630.21 371.35,-629.82"/>
</g>
<!-- node12 -->
<g id="node13" class="node">
<title>node12</title>
<polygon fill="lightgrey" stroke="black" points="382,-474 242,-474 242,-438 382,-438 382,-474"/>
<text text-anchor="middle" x="312" y="-452.3" font-family="Times,serif" font-size="14.00">#12 If Order : 11</text>
</g>
<!-- node9&#45;&gt;node12 -->
<g id="edge31" class="edge">
<title>node9&#45;&gt;node12</title>
<path fill="none" stroke="red" d="M496.6,-669.51C535.49,-664.82 568.52,-655.66 566,-638 557.69,-579.8 571.39,-551.74 529,-511 509.28,-492.04 445.52,-477.6 392.17,-468.43"/>
<polygon fill="red" stroke="red" points="392.45,-464.93 382.01,-466.73 391.29,-471.84 392.45,-464.93"/>
</g>
<!-- node9&#45;&gt;node17 -->
<g id="edge44" class="edge">
<title>node9&#45;&gt;node17</title>
<path fill="none" stroke="green" d="M442,-656.89C459.96,-648.74 477.53,-636.94 488,-620 496.41,-606.39 498.78,-595.83 488,-584 458.98,-552.14 265.72,-596.62 295,-565 330.44,-526.73 493.56,-585.27 529,-547 539.87,-535.26 536.29,-525.24 529,-511 522.64,-498.58 495.72,-503.24 504,-492 506.53,-488.57 794.47,-404.43 797,-401 826.43,-361.04 809.16,-299.68 795.23,-264.76"/>
<polygon fill="green" stroke="green" points="798.34,-263.11 791.25,-255.24 791.88,-265.81 798.34,-263.11"/>
</g>
<!-- node9&#45;&gt;node19 -->
<g id="edge52" class="edge">
<title>node9&#45;&gt;node19</title>
<path fill="none" stroke="green" d="M442.1,-656.99C456.84,-652.01 472.27,-645.98 486,-639 714.98,-522.56 842.02,-500.39 918,-255 922.73,-239.72 928.58,-231 918,-219 908.21,-207.9 747.36,-189.92 625.71,-177.79"/>
<polygon fill="green" stroke="green" points="625.85,-174.29 615.55,-176.78 625.15,-181.25 625.85,-174.29"/>
</g>
<!-- node10&#45;&gt;node9 -->
<g id="edge24" class="edge">
<title>node10&#45;&gt;node9</title>
<path fill="none" stroke="fuchsia" stroke-width="2" d="M379.02,-620.03C380.88,-628.03 382.36,-637.77 383.13,-646.75"/>
<polygon fill="fuchsia" stroke="fuchsia" stroke-width="2" points="379.64,-647.03 383.7,-656.81 386.63,-646.63 379.64,-647.03"/>
</g>
<!-- node10&#45;&gt;node11 -->
<g id="edge28" class="edge">
<title>node10&#45;&gt;node11</title>
<path fill="none" stroke="black" d="M356.72,-583.81C349.47,-575.09 340.54,-564.34 332.56,-554.75"/>
<polygon fill="black" stroke="black" points="335.23,-552.48 326.15,-547.03 329.85,-556.96 335.23,-552.48"/>
<text text-anchor="middle" x="344.24" y="-551.87" font-family="Times,serif" font-size="14.00">*1</text>
</g>
<!-- node11&#45;&gt;node0 -->
<g id="edge26" class="edge">
<title>node11&#45;&gt;node0</title>
<path fill="none" stroke="fuchsia" stroke-width="2" d="M274.85,-547.21C255.16,-559.15 235,-577.18 235,-601 235,-785 235,-785 235,-785 235,-852.92 268.18,-868.09 320,-912 353.04,-939.99 462.42,-953.89 543.5,-960.49"/>
<polygon fill="fuchsia" stroke="fuchsia" stroke-width="2" points="543.5,-964 553.74,-961.3 544.05,-957.02 543.5,-964"/>
</g>
<!-- node11&#45;&gt;node12 -->
<g id="edge30" class="edge">
<title>node11&#45;&gt;node12</title>
<path fill="none" stroke="black" d="M312,-510.81C312,-502.79 312,-493.05 312,-484.07"/>
<polygon fill="black" stroke="black" points="315.5,-484.03 312,-474.03 308.5,-484.03 315.5,-484.03"/>
<text text-anchor="middle" x="320.45" y="-488.45" font-family="Times,serif" font-size="14.00">*0</text>
</g>
<!-- node12&#45;&gt;node0 -->
<g id="edge29" class="edge">
<title>node12&#45;&gt;node0</title>
<path fill="none" stroke="fuchsia" stroke-width="2" d="M241.79,-461.36C160.61,-468.37 38,-485.92 38,-528 38,-895 38,-895 38,-895 38,-945.29 375.2,-960.08 543.61,-964.34"/>
<polygon fill="fuchsia" stroke="fuchsia" stroke-width="2" points="543.63,-967.84 553.71,-964.58 543.8,-960.84 543.63,-967.84"/>
</g>
<!-- node13 -->
<g id="node14" class="node">
<title>node13</title>
<polygon fill="lightgrey" stroke="black" points="343.5,-401 184.5,-401 184.5,-365 343.5,-365 343.5,-401"/>
<text text-anchor="middle" x="264" y="-379.3" font-family="Times,serif" font-size="14.00">#13 true Order : 14</text>
</g>
<!-- node12&#45;&gt;node13 -->
<g id="edge33" class="edge">
<title>node12&#45;&gt;node13</title>
<path fill="none" stroke="red" d="M294.5,-437.81C287.9,-429.35 280.68,-418.98 274.8,-409.61"/>
<polygon fill="red" stroke="red" points="277.8,-407.8 269.65,-401.03 271.8,-411.4 277.8,-407.8"/>
</g>
<!-- node14 -->
<g id="node15" class="node">
<title>node14</title>
<polygon fill="lightgrey" stroke="black" points="602.5,-401 439.5,-401 439.5,-365 602.5,-365 602.5,-401"/>
<text text-anchor="middle" x="521" y="-379.3" font-family="Times,serif" font-size="14.00">#14 false Order : 12</text>
</g>
<!-- node12&#45;&gt;node14 -->
<g id="edge35" class="edge">
<title>node12&#45;&gt;node14</title>
<path fill="none" stroke="red" d="M356.2,-437.99C384.9,-427.88 422.74,-414.99 454.95,-404.34"/>
<polygon fill="red" stroke="red" points="456.35,-407.57 464.75,-401.11 454.16,-400.92 456.35,-407.57"/>
</g>
<!-- node13&#45;&gt;node12 -->
<g id="edge32" class="edge">
<title>node13&#45;&gt;node12</title>
<path fill="none" stroke="fuchsia" stroke-width="2" d="M281.37,-401.03C287.97,-409.46 295.2,-419.83 301.09,-429.21"/>
<polygon fill="fuchsia" stroke="fuchsia" stroke-width="2" points="298.11,-431.05 306.26,-437.81 304.1,-427.44 298.11,-431.05"/>
</g>
<!-- node15 -->
<g id="node16" class="node">
<title>node15</title>
<polygon fill="lightgrey" stroke="black" points="345,-328 139,-328 139,-292 345,-292 345,-328"/>
<text text-anchor="middle" x="242" y="-306.3" font-family="Times,serif" font-size="14.00">#15 LabelNode Order : 15</text>
</g>
<!-- node13&#45;&gt;node15 -->
<g id="edge37" class="edge">
<title>node13&#45;&gt;node15</title>
<path fill="none" stroke="red" d="M252.8,-364.81C249.43,-356.7 246.15,-346.84 243.73,-337.78"/>
<polygon fill="red" stroke="red" points="247.13,-336.95 241.41,-328.03 240.32,-338.57 247.13,-336.95"/>
</g>
<!-- node14&#45;&gt;node12 -->
<g id="edge34" class="edge">
<title>node14&#45;&gt;node12</title>
<path fill="none" stroke="fuchsia" stroke-width="2" d="M476.49,-401.11C447.73,-411.25 409.88,-424.14 377.71,-434.77"/>
<polygon fill="fuchsia" stroke="fuchsia" stroke-width="2" points="376.32,-431.54 367.92,-437.99 378.51,-438.19 376.32,-431.54"/>
</g>
<!-- node16 -->
<g id="node17" class="node">
<title>node16</title>
<polygon fill="lightgreen" stroke="black" points="641.09,-302.54 641.09,-317.46 570.74,-328 471.26,-328 400.91,-317.46 400.91,-302.54 471.26,-292 570.74,-292 641.09,-302.54"/>
<text text-anchor="middle" x="521" y="-306.3" font-family="Times,serif" font-size="14.00">#16 int 20 Order : 13</text>
</g>
<!-- node14&#45;&gt;node16 -->
<g id="edge39" class="edge">
<title>node14&#45;&gt;node16</title>
<path fill="none" stroke="black" stroke-dasharray="1,5" d="M515.12,-364.81C514.28,-356.79 514.05,-347.05 514.42,-338.07"/>
<polygon fill="black" stroke="black" points="517.92,-338.25 515.14,-328.03 510.94,-337.75 517.92,-338.25"/>
</g>
<!-- node14&#45;&gt;node17 -->
<g id="edge45" class="edge">
<title>node14&#45;&gt;node17</title>
<path fill="none" stroke="red" d="M568.01,-364.92C592.93,-355.22 623.73,-342.2 650,-328 686.96,-308.02 726.49,-280.38 752.76,-261.01"/>
<polygon fill="red" stroke="red" points="754.86,-263.81 760.8,-255.04 750.69,-258.19 754.86,-263.81"/>
</g>
<!-- node15&#45;&gt;node13 -->
<g id="edge36" class="edge">
<title>node15&#45;&gt;node13</title>
<path fill="none" stroke="fuchsia" stroke-width="2" d="M253.14,-328.03C256.5,-336.12 259.79,-345.98 262.22,-355.05"/>
<polygon fill="fuchsia" stroke="fuchsia" stroke-width="2" points="258.83,-355.9 264.55,-364.81 265.63,-354.27 258.83,-355.9"/>
</g>
<!-- node18 -->
<g id="node19" class="node">
<title>node18</title>
<polygon fill="lightgreen" stroke="black" points="362.09,-229.54 362.09,-244.46 291.74,-255 192.26,-255 121.91,-244.46 121.91,-229.54 192.26,-219 291.74,-219 362.09,-229.54"/>
<text text-anchor="middle" x="242" y="-233.3" font-family="Times,serif" font-size="14.00">#18 int 30 Order : 16</text>
</g>
<!-- node15&#45;&gt;node18 -->
<g id="edge47" class="edge">
<title>node15&#45;&gt;node18</title>
<path fill="none" stroke="black" stroke-dasharray="1,5" d="M236.12,-291.81C235.28,-283.79 235.05,-274.05 235.42,-265.07"/>
<polygon fill="black" stroke="black" points="238.92,-265.25 236.14,-255.03 231.94,-264.75 238.92,-265.25"/>
</g>
<!-- node15&#45;&gt;node19 -->
<g id="edge53" class="edge">
<title>node15&#45;&gt;node19</title>
<path fill="none" stroke="red" d="M290.85,-291.89C315.57,-282.41 345.64,-269.59 371,-255 404.54,-235.71 439.46,-208.28 462.73,-188.79"/>
<polygon fill="red" stroke="red" points="465.08,-191.38 470.45,-182.25 460.55,-186.04 465.08,-191.38"/>
</g>
<!-- node16&#45;&gt;node14 -->
<g id="edge38" class="edge">
<title>node16&#45;&gt;node14</title>
<path fill="none" stroke="fuchsia" stroke-width="2" d="M526.86,-328.03C527.71,-336.03 527.95,-345.77 527.59,-354.75"/>
<polygon fill="fuchsia" stroke="fuchsia" stroke-width="2" points="524.09,-354.59 526.88,-364.81 531.07,-355.08 524.09,-354.59"/>
</g>
<!-- node16&#45;&gt;node17 -->
<g id="edge43" class="edge">
<title>node16&#45;&gt;node17</title>
<path fill="none" stroke="black" d="M544.78,-291.96C555.4,-285.09 568.36,-277.7 581,-273 602,-265.19 624.88,-259.11 647.45,-254.37"/>
<polygon fill="black" stroke="black" points="648.33,-257.77 657.44,-252.36 646.95,-250.9 648.33,-257.77"/>
<text text-anchor="middle" x="641.34" y="-260.53" font-family="Times,serif" font-size="14.00">*2</text>
</g>
<!-- node17&#45;&gt;node0 -->
<g id="edge40" class="edge">
<title>node17&#45;&gt;node0</title>
<path fill="none" stroke="fuchsia" stroke-width="2" d="M892.46,-255.08C917.54,-265.49 937,-282.21 937,-309 937,-639 937,-639 937,-639 937,-704.12 958,-718.88 958,-784 958,-895 958,-895 958,-895 958,-900.88 824.79,-928.65 730,-947.67"/>
<polygon fill="fuchsia" stroke="fuchsia" stroke-width="2" points="729.2,-944.25 720.08,-949.65 730.58,-951.12 729.2,-944.25"/>
</g>
<!-- node20 -->
<g id="node21" class="node">
<title>node20</title>
<polygon fill="lightgrey" stroke="black" points="864.5,-182 701.5,-182 701.5,-146 864.5,-146 864.5,-182"/>
<text text-anchor="middle" x="783" y="-160.3" font-family="Times,serif" font-size="14.00">#20 Goto Order : 20</text>
</g>
<!-- node17&#45;&gt;node20 -->
<g id="edge55" class="edge">
<title>node17&#45;&gt;node20</title>
<path fill="none" stroke="red" d="M777.12,-218.81C776.28,-210.79 776.05,-201.05 776.42,-192.07"/>
<polygon fill="red" stroke="red" points="779.92,-192.25 777.14,-182.03 772.94,-191.75 779.92,-192.25"/>
</g>
<!-- node21 -->
<g id="node22" class="node">
<title>node21</title>
<polygon fill="lightgrey" stroke="black" points="1152,-109 898,-109 898,-73 1152,-73 1152,-109"/>
<text text-anchor="middle" x="1025" y="-87.3" font-family="Times,serif" font-size="14.00">#21 Merge : Merge30 Order : 21</text>
</g>
<!-- node17&#45;&gt;node21 -->
<g id="edge59" class="edge">
<title>node17&#45;&gt;node21</title>
<path fill="none" stroke="green" d="M734.37,-218.81C717.92,-210.4 701.36,-198.44 692,-182 684.08,-168.1 681.63,-158.19 692,-146 695.51,-141.88 806.05,-124.5 898.82,-110.56"/>
<polygon fill="green" stroke="green" points="899.51,-113.99 908.88,-109.05 898.48,-107.07 899.51,-113.99"/>
</g>
<!-- node18&#45;&gt;node15 -->
<g id="edge46" class="edge">
<title>node18&#45;&gt;node15</title>
<path fill="none" stroke="fuchsia" stroke-width="2" d="M247.86,-255.03C248.71,-263.03 248.95,-272.77 248.59,-281.75"/>
<polygon fill="fuchsia" stroke="fuchsia" stroke-width="2" points="245.09,-281.59 247.88,-291.81 252.07,-282.08 245.09,-281.59"/>
</g>
<!-- node18&#45;&gt;node19 -->
<g id="edge51" class="edge">
<title>node18&#45;&gt;node19</title>
<path fill="none" stroke="black" d="M298.28,-219.89C334.64,-209.48 382.21,-195.86 420.87,-184.79"/>
<polygon fill="black" stroke="black" points="421.84,-188.15 430.49,-182.04 419.91,-181.42 421.84,-188.15"/>
<text text-anchor="middle" x="415.39" y="-191.45" font-family="Times,serif" font-size="14.00">*2</text>
</g>
<!-- node19&#45;&gt;node0 -->
<g id="edge48" class="edge">
<title>node19&#45;&gt;node0</title>
<path fill="none" stroke="fuchsia" stroke-width="2" d="M364.45,-171.09C219.27,-179.86 0,-199.2 0,-236 0,-895 0,-895 0,-895 0,-949.03 366.68,-961.95 543.64,-965.03"/>
<polygon fill="fuchsia" stroke="fuchsia" stroke-width="2" points="543.67,-968.53 553.72,-965.2 543.78,-961.53 543.67,-968.53"/>
</g>
<!-- node19&#45;&gt;node21 -->
<g id="edge58" class="edge">
<title>node19&#45;&gt;node21</title>
<path fill="none" stroke="red" d="M612.29,-145.99C694.37,-134.94 802.61,-120.58 887.66,-109.44"/>
<polygon fill="red" stroke="red" points="888.19,-112.9 897.65,-108.14 887.28,-105.96 888.19,-112.9"/>
</g>
<!-- node19&#45;&gt;node21 -->
<g id="edge60" class="edge">
<title>node19&#45;&gt;node21</title>
<path fill="none" stroke="green" d="M615.8,-147.07C699,-136.19 807.86,-121.76 892.4,-110.39"/>
<polygon fill="green" stroke="green" points="892.89,-113.86 902.33,-109.06 891.95,-106.92 892.89,-113.86"/>
</g>
<!-- node20&#45;&gt;node17 -->
<g id="edge54" class="edge">
<title>node20&#45;&gt;node17</title>
<path fill="none" stroke="fuchsia" stroke-width="2" d="M788.86,-182.03C789.71,-190.03 789.95,-199.77 789.59,-208.75"/>
<polygon fill="fuchsia" stroke="fuchsia" stroke-width="2" points="786.09,-208.59 788.88,-218.81 793.07,-209.08 786.09,-208.59"/>
</g>
<!-- node20&#45;&gt;node21 -->
<g id="edge57" class="edge">
<title>node20&#45;&gt;node21</title>
<path fill="none" stroke="red" d="M840.97,-145.99C875.88,-135.75 920.51,-122.66 957.07,-111.93"/>
<polygon fill="red" stroke="red" points="958.06,-115.29 966.67,-109.11 956.09,-108.57 958.06,-115.29"/>
</g>
<!-- node21&#45;&gt;node0 -->
<g id="edge56" class="edge">
<title>node21&#45;&gt;node0</title>
<path fill="none" stroke="fuchsia" stroke-width="2" d="M1117.39,-109.01C1202.94,-130.72 1317,-177.57 1317,-273 1317,-712 1317,-712 1317,-712 1317,-875.15 1136.25,-893.41 995,-931 882.37,-960.97 846.79,-935.22 730.34,-948.55"/>
<polygon fill="fuchsia" stroke="fuchsia" stroke-width="2" points="729.83,-945.08 720.33,-949.76 730.68,-952.03 729.83,-945.08"/>
</g>
<!-- node21&#45;&gt;node22 -->
<g id="edge64" class="edge">
<title>node21&#45;&gt;node22</title>
<path fill="none" stroke="green" d="M1002.57,-109.07C974.22,-129.75 923.16,-164.04 874,-182 667.61,-257.39 524.94,-117.05 392,-292 343.06,-356.41 444.7,-413.51 391,-474 302.99,-573.15 182.74,-411.61 95,-511 84.41,-522.99 86.36,-533.53 95,-547 136.97,-612.46 178.56,-601.17 254,-620 399.55,-656.33 826.44,-668.43 1042.54,-672.29"/>
<polygon fill="green" stroke="green" points="1042.6,-675.79 1052.66,-672.46 1042.73,-668.79 1042.6,-675.79"/>
</g>
<!-- node23 -->
<g id="node24" class="node">
<title>node23</title>
<polygon fill="lightgrey" stroke="black" points="1395.5,-36 1144.5,-36 1144.5,0 1395.5,0 1395.5,-36"/>
<text text-anchor="middle" x="1270" y="-14.3" font-family="Times,serif" font-size="14.00">#23 ReturnValue : int Order : 23</text>
</g>
<!-- node21&#45;&gt;node23 -->
<g id="edge67" class="edge">
<title>node21&#45;&gt;node23</title>
<path fill="none" stroke="red" d="M1083.68,-72.99C1119.03,-62.75 1164.21,-49.66 1201.23,-38.93"/>
<polygon fill="red" stroke="red" points="1202.32,-42.26 1210.95,-36.11 1200.37,-35.54 1202.32,-42.26"/>
</g>
<!-- node22&#45;&gt;node0 -->
<g id="edge61" class="edge">
<title>node22&#45;&gt;node0</title>
<path fill="none" stroke="fuchsia" stroke-width="2" d="M1232.57,-693.12C1256.83,-703.95 1279,-720.97 1279,-747 1279,-895 1279,-895 1279,-895 1279,-914.23 1271.8,-921.64 1255,-931 1205.83,-958.4 819.79,-943.85 730.49,-948.88"/>
<polygon fill="fuchsia" stroke="fuchsia" stroke-width="2" points="730.01,-945.41 720.32,-949.68 730.56,-952.38 730.01,-945.41"/>
</g>
<!-- node22&#45;&gt;node23 -->
<g id="edge66" class="edge">
<title>node22&#45;&gt;node23</title>
<path fill="none" stroke="black" d="M1216.51,-656.94C1238.88,-645.85 1261,-628.59 1261,-603 1261,-603 1261,-603 1261,-90 1261,-75.65 1261,-59.67 1261.85,-46.51"/>
<polygon fill="black" stroke="black" points="1265.36,-46.49 1262.77,-36.22 1258.39,-45.86 1265.36,-46.49"/>
<text text-anchor="middle" x="1269.56" y="-51.33" font-family="Times,serif" font-size="14.00">*0</text>
</g>
<!-- node22&#45;&gt;node23 -->
<g id="edge68" class="edge">
<title>node22&#45;&gt;node23</title>
<path fill="none" stroke="green" d="M1232.61,-656.94C1256.88,-645.85 1279,-628.59 1279,-603 1279,-603 1279,-603 1279,-90 1279,-75.65 1279,-59.67 1278.15,-46.51"/>
<polygon fill="green" stroke="green" points="1281.61,-45.86 1277.23,-36.22 1274.64,-46.49 1281.61,-45.86"/>
</g>
<!-- node23&#45;&gt;node0 -->
<g id="edge65" class="edge">
<title>node23&#45;&gt;node0</title>
<path fill="none" stroke="fuchsia" stroke-width="2" d="M1312.5,-36.04C1333.75,-47.64 1355,-65.39 1355,-90 1355,-895 1355,-895 1355,-895 1355,-962.61 835.4,-942.84 730.34,-948.88"/>
<polygon fill="fuchsia" stroke="fuchsia" stroke-width="2" points="730.01,-945.4 720.32,-949.68 730.56,-952.38 730.01,-945.4"/>
</g>
<!-- c0 -->
<!-- c1 -->
<!-- c0&#45;&gt;c1 -->
<g id="edge69" class="edge">
<title>c0&#45;&gt;c1</title>
<path fill="none" stroke="red" d="M1588.89,-967C1600.11,-967 1658.24,-967 1683.86,-967"/>
<polygon fill="red" stroke="red" points="1684.06,-970.5 1694.06,-967 1684.06,-963.5 1684.06,-970.5"/>
<text text-anchor="middle" x="1641.5" y="-973.8" font-family="Times,serif" font-size="14.00">Control flow</text>
</g>
<!-- c2 -->
<!-- c3 -->
<!-- c2&#45;&gt;c3 -->
<g id="edge70" class="edge">
<title>c2&#45;&gt;c3</title>
<path fill="none" stroke="red" stroke-dasharray="5,2" d="M1382.08,-967C1399.05,-967 1515.21,-967 1553.08,-967"/>
<polygon fill="red" stroke="red" points="1553.17,-970.5 1563.17,-967 1553.17,-963.5 1553.17,-970.5"/>
<text text-anchor="middle" x="1472.5" y="-973.8" font-family="Times,serif" font-size="14.00">Control flow back edge</text>
</g>
<!-- d0 -->
<!-- d1 -->
<!-- d0&#45;&gt;d1 -->
<g id="edge71" class="edge">
<title>d0&#45;&gt;d1</title>
<path fill="none" stroke="black" d="M1270.86,-967C1280.41,-967 1324.31,-967 1345.92,-967"/>
<polygon fill="black" stroke="black" points="1346.15,-970.5 1356.15,-967 1346.15,-963.5 1346.15,-970.5"/>
<text text-anchor="middle" x="1313.5" y="-973.8" font-family="Times,serif" font-size="14.00">Data flow</text>
</g>
<!-- d2 -->
<!-- d3 -->
<!-- d2&#45;&gt;d3 -->
<g id="edge72" class="edge">
<title>d2&#45;&gt;d3</title>
<path fill="none" stroke="black" stroke-dasharray="1,5" d="M1144.81,-967C1155.46,-967 1210.46,-967 1235.08,-967"/>
<polygon fill="black" stroke="black" points="1235.15,-970.5 1245.15,-967 1235.15,-963.5 1235.15,-970.5"/>
<text text-anchor="middle" x="1195" y="-973.8" font-family="Times,serif" font-size="14.00">Declaration</text>
</g>
<!-- d4 -->
<!-- d5 -->
<!-- d4&#45;&gt;d5 -->
<g id="edge73" class="edge">
<title>d4&#45;&gt;d5</title>
<path fill="none" stroke="blue" d="M1002.1,-967C1014.72,-967 1080.88,-967 1108.68,-967"/>
<polygon fill="blue" stroke="blue" points="1108.84,-970.5 1118.84,-967 1108.84,-963.5 1108.84,-970.5"/>
<text text-anchor="middle" x="1060.5" y="-973.8" font-family="Times,serif" font-size="14.00">PHI Data flow</text>
</g>
<!-- d6 -->
<!-- d7 -->
<!-- d6&#45;&gt;d7 -->
<g id="edge74" class="edge">
<title>d6&#45;&gt;d7</title>
<path fill="none" stroke="green" d="M865,-967C876.94,-967 939.3,-967 965.93,-967"/>
<polygon fill="green" stroke="green" points="965.95,-970.5 975.95,-967 965.95,-963.5 965.95,-970.5"/>
<text text-anchor="middle" x="920.5" y="-973.8" font-family="Times,serif" font-size="14.00">Memory flow</text>
</g>
<!-- d8 -->
<!-- d9 -->
<!-- d8&#45;&gt;d9 -->
<g id="edge75" class="edge">
<title>d8&#45;&gt;d9</title>
<path fill="none" stroke="fuchsia" d="M742.11,-967C753.15,-967 804.67,-967 828.66,-967"/>
<polygon fill="fuchsia" stroke="fuchsia" points="828.9,-970.5 838.9,-967 828.9,-963.5 828.9,-970.5"/>
<text text-anchor="middle" x="790.5" y="-973.8" font-family="Times,serif" font-size="14.00">Dominance</text>
</g>
</g>
</svg>
