<?xml version="1.0" encoding="UTF-8" standalone="no"?>
<!DOCTYPE svg PUBLIC "-//W3C//DTD SVG 1.1//EN"
 "http://www.w3.org/Graphics/SVG/1.1/DTD/svg11.dtd">
<!-- Generated by graphviz version 2.43.0 (0)
 -->
<!-- Title: debugoutput Pages: 1 -->
<svg width="1470pt" height="286pt"
 viewBox="0.00 0.00 1470.00 285.80" xmlns="http://www.w3.org/2000/svg" xmlns:xlink="http://www.w3.org/1999/xlink">
<g id="graph0" class="graph" transform="scale(1 1) rotate(0) translate(4 281.8)">
<title>debugoutput</title>
<polygon fill="white" stroke="transparent" points="-4,4 -4,-281.8 1466,-281.8 1466,4 -4,4"/>
<g id="clust1" class="cluster">
<title>cluster_000</title>
<polygon fill="none" stroke="black" points="615,-227.2 615,-269.8 1454,-269.8 1454,-227.2 615,-227.2"/>
<text text-anchor="middle" x="1034.5" y="-254.6" font-family="Times,serif" font-size="14.00">Legend</text>
</g>
<!-- node0 -->
<g id="node1" class="node">
<title>node0</title>
<polygon fill="lightgrey" stroke="black" points="605,-255 439,-255 439,-219 605,-219 605,-255"/>
<text text-anchor="middle" x="522" y="-233.3" font-family="Times,serif" font-size="14.00">#0 Method Order : 0</text>
</g>
<!-- node1 -->
<g id="node2" class="node">
<title>node1</title>
<polygon fill="lightgrey" stroke="black" points="838,-182 650,-182 650,-146 838,-146 838,-182"/>
<text text-anchor="middle" x="744" y="-160.3" font-family="Times,serif" font-size="14.00">#1 arg1 : long Order : 4</text>
</g>
<!-- node0&#45;&gt;node1 -->
<g id="edge2" class="edge">
<title>node0&#45;&gt;node1</title>
<path fill="none" stroke="black" d="M569.32,-218.99C599.99,-208.84 640.41,-195.88 674.67,-185.2"/>
<polygon fill="black" stroke="black" points="676.11,-188.42 684.62,-182.11 674.03,-181.74 676.11,-188.42"/>
<text text-anchor="middle" x="669.82" y="-191.86" font-family="Times,serif" font-size="14.00">*0</text>
</g>
<!-- node2 -->
<g id="node3" class="node">
<title>node2</title>
<polygon fill="lightgrey" stroke="black" points="188,-182 0,-182 0,-146 188,-146 188,-182"/>
<text text-anchor="middle" x="94" y="-160.3" font-family="Times,serif" font-size="14.00">#2 arg0 : long Order : 3</text>
</g>
<!-- node0&#45;&gt;node2 -->
<g id="edge4" class="edge">
<title>node0&#45;&gt;node2</title>
<path fill="none" stroke="black" d="M438.9,-223.1C370.18,-211.97 272.28,-195.77 198.3,-183.3"/>
<polygon fill="black" stroke="black" points="198.47,-179.78 188.03,-181.56 197.31,-186.68 198.47,-179.78"/>
<text text-anchor="middle" x="207.31" y="-172.54" font-family="Times,serif" font-size="14.00">*0</text>
</g>
<!-- node3 -->
<g id="node4" class="node">
<title>node3</title>
<polygon fill="lightgrey" stroke="black" points="631.5,-182 412.5,-182 412.5,-146 631.5,-146 631.5,-182"/>
<text text-anchor="middle" x="522" y="-160.3" font-family="Times,serif" font-size="14.00">#3 this : MathTest Order : 2</text>
</g>
<!-- node0&#45;&gt;node3 -->
<g id="edge6" class="edge">
<title>node0&#45;&gt;node3</title>
<path fill="none" stroke="black" d="M516.12,-218.81C515.28,-210.79 515.05,-201.05 515.42,-192.07"/>
<polygon fill="black" stroke="black" points="518.92,-192.25 516.14,-182.03 511.94,-191.75 518.92,-192.25"/>
<text text-anchor="middle" x="523.28" y="-197.01" font-family="Times,serif" font-size="14.00">*0</text>
</g>
<!-- node4 -->
<g id="node5" class="node">
<title>node4</title>
<polygon fill="lightgrey" stroke="black" points="394,-182 206,-182 206,-146 394,-146 394,-182"/>
<text text-anchor="middle" x="300" y="-160.3" font-family="Times,serif" font-size="14.00">#4 LabelNode Order : 1</text>
</g>
<!-- node0&#45;&gt;node4 -->
<g id="edge8" class="edge">
<title>node0&#45;&gt;node4</title>
<path fill="none" stroke="red" d="M462.97,-218.99C430.27,-208.88 389.86,-195.99 357.43,-185.34"/>
<polygon fill="red" stroke="red" points="358.23,-181.92 347.64,-182.11 356.04,-188.57 358.23,-181.92"/>
</g>
<!-- node6 -->
<g id="node7" class="node">
<title>node6</title>
<polygon fill="lightgrey" stroke="black" points="953,-36 709,-36 709,0 953,0 953,-36"/>
<text text-anchor="middle" x="831" y="-14.3" font-family="Times,serif" font-size="14.00">#6 ReturnValue : long Order : 6</text>
</g>
<!-- node0&#45;&gt;node6 -->
<g id="edge16" class="edge">
<title>node0&#45;&gt;node6</title>
<path fill="none" stroke="black" d="M602.33,-218.96C658.93,-211.37 820.08,-226.68 855,-182 885.24,-143.32 891.14,-118.63 873,-73 868.62,-61.99 860.82,-51.93 853.03,-43.55"/>
<polygon fill="black" stroke="black" points="855.47,-41.05 845.97,-36.35 850.47,-45.95 855.47,-41.05"/>
</g>
<!-- node1&#45;&gt;node0 -->
<g id="edge1" class="edge">
<title>node1&#45;&gt;node0</title>
<path fill="none" stroke="green" stroke-width="2" d="M696.36,-182.11C665.61,-192.29 625.18,-205.25 590.97,-215.91"/>
<polygon fill="green" stroke="green" stroke-width="2" points="589.55,-212.69 581.03,-218.99 591.62,-219.37 589.55,-212.69"/>
</g>
<!-- node5 -->
<g id="node6" class="node">
<title>node5</title>
<polygon fill="orange" stroke="black" points="872.85,-83.54 872.85,-98.46 799.13,-109 694.87,-109 621.15,-98.46 621.15,-83.54 694.87,-73 799.13,-73 872.85,-83.54"/>
<text text-anchor="middle" x="747" y="-87.3" font-family="Times,serif" font-size="14.00">#5 Div : long Order : 5</text>
</g>
<!-- node1&#45;&gt;node5 -->
<g id="edge11" class="edge">
<title>node1&#45;&gt;node5</title>
<path fill="none" stroke="black" d="M744.73,-145.81C745.07,-137.79 745.48,-128.05 745.86,-119.07"/>
<polygon fill="black" stroke="black" points="749.36,-119.17 746.28,-109.03 742.36,-118.87 749.36,-119.17"/>
<text text-anchor="middle" x="753.96" y="-123.8" font-family="Times,serif" font-size="14.00">*1</text>
</g>
<!-- node2&#45;&gt;node0 -->
<g id="edge3" class="edge">
<title>node2&#45;&gt;node0</title>
<path fill="none" stroke="green" stroke-width="2" d="M188.16,-179.69C259.76,-191.33 357.73,-207.57 429.03,-219.62"/>
<polygon fill="green" stroke="green" stroke-width="2" points="428.47,-223.07 438.91,-221.29 429.64,-216.17 428.47,-223.07"/>
</g>
<!-- node2&#45;&gt;node5 -->
<g id="edge10" class="edge">
<title>node2&#45;&gt;node5</title>
<path fill="none" stroke="black" d="M188.26,-147.19C191.21,-146.78 194.12,-146.38 197,-146 344.36,-126.63 514.78,-110.93 626.39,-101.55"/>
<polygon fill="black" stroke="black" points="626.99,-105.01 636.67,-100.69 626.41,-98.03 626.99,-105.01"/>
<text text-anchor="middle" x="619.31" y="-106.92" font-family="Times,serif" font-size="14.00">*0</text>
</g>
<!-- node3&#45;&gt;node0 -->
<g id="edge5" class="edge">
<title>node3&#45;&gt;node0</title>
<path fill="none" stroke="green" stroke-width="2" d="M527.86,-182.03C528.71,-190.03 528.95,-199.77 528.59,-208.75"/>
<polygon fill="green" stroke="green" stroke-width="2" points="525.09,-208.59 527.88,-218.81 532.07,-209.08 525.09,-208.59"/>
</g>
<!-- node4&#45;&gt;node0 -->
<g id="edge7" class="edge">
<title>node4&#45;&gt;node0</title>
<path fill="none" stroke="green" stroke-width="2" d="M359.38,-182.11C392.13,-192.25 432.54,-205.14 464.91,-215.77"/>
<polygon fill="green" stroke="green" stroke-width="2" points="464.09,-219.19 474.68,-218.99 466.28,-212.54 464.09,-219.19"/>
</g>
<!-- node4&#45;&gt;node5 -->
<g id="edge12" class="edge">
<title>node4&#45;&gt;node5</title>
<path fill="none" stroke="red" d="M394.02,-147.45C397.05,-146.96 400.05,-146.48 403,-146 488.19,-132.28 585.32,-117.08 654.59,-106.3"/>
<polygon fill="red" stroke="red" points="655.26,-109.74 664.61,-104.75 654.19,-102.83 655.26,-109.74"/>
</g>
<!-- node5&#45;&gt;node0 -->
<g id="edge9" class="edge">
<title>node5&#45;&gt;node0</title>
<path fill="none" stroke="green" stroke-width="2" d="M801.62,-108.72C819.25,-116.99 836.84,-128.97 847,-146 855.2,-159.74 857.4,-169.84 847,-182 814.38,-220.13 679.28,-211.11 615.65,-218.53"/>
<polygon fill="green" stroke="green" stroke-width="2" points="614.77,-215.12 605.36,-219.99 615.76,-222.05 614.77,-215.12"/>
</g>
<!-- node5&#45;&gt;node6 -->
<g id="edge14" class="edge">
<title>node5&#45;&gt;node6</title>
<path fill="none" stroke="black" d="M761.46,-72.81C771.33,-63.66 784.65,-52.26 797.03,-42.32"/>
<polygon fill="black" stroke="black" points="799.31,-44.97 804.99,-36.03 794.97,-39.48 799.31,-44.97"/>
<text text-anchor="middle" x="796.01" y="-50.2" font-family="Times,serif" font-size="14.00">*0</text>
</g>
<!-- node5&#45;&gt;node6 -->
<g id="edge15" class="edge">
<title>node5&#45;&gt;node6</title>
<path fill="none" stroke="red" d="M773.21,-72.81C784.78,-63.83 798.14,-52.69 809.16,-42.89"/>
<polygon fill="red" stroke="red" points="811.66,-45.34 816.71,-36.03 806.96,-40.16 811.66,-45.34"/>
</g>
<!-- node6&#45;&gt;node0 -->
<g id="edge13" class="edge">
<title>node6&#45;&gt;node0</title>
<path fill="none" stroke="green" stroke-width="2" d="M861.83,-36.12C873.53,-45.64 885.24,-58.5 891,-73 909.14,-118.63 903.24,-143.32 873,-182 838.01,-226.77 676.3,-211.31 620,-219 618.49,-219.21 616.97,-219.42 615.43,-219.64"/>
<polygon fill="green" stroke="green" stroke-width="2" points="614.54,-216.24 605.19,-221.22 615.6,-223.16 614.54,-216.24"/>
</g>
<!-- c0 -->
<!-- c1 -->
<!-- c0&#45;&gt;c1 -->
<g id="edge17" class="edge">
<title>c0&#45;&gt;c1</title>
<path fill="none" stroke="red" d="M1336.89,-237C1348.11,-237 1406.24,-237 1431.86,-237"/>
<polygon fill="red" stroke="red" points="1432.06,-240.5 1442.06,-237 1432.06,-233.5 1432.06,-240.5"/>
<text text-anchor="middle" x="1389.5" y="-243.8" font-family="Times,serif" font-size="14.00">Control flow</text>
</g>
<!-- c2 -->
<!-- c3 -->
<!-- c2&#45;&gt;c3 -->
<g id="edge18" class="edge">
<title>c2&#45;&gt;c3</title>
<path fill="none" stroke="red" stroke-dasharray="5,2" d="M1130.08,-237C1147.05,-237 1263.21,-237 1301.08,-237"/>
<polygon fill="red" stroke="red" points="1301.17,-240.5 1311.17,-237 1301.17,-233.5 1301.17,-240.5"/>
<text text-anchor="middle" x="1220.5" y="-243.8" font-family="Times,serif" font-size="14.00">Control flow back edge</text>
</g>
<!-- d0 -->
<!-- d1 -->
<!-- d0&#45;&gt;d1 -->
<g id="edge19" class="edge">
<title>d0&#45;&gt;d1</title>
<path fill="none" stroke="black" d="M1018.86,-237C1028.41,-237 1072.31,-237 1093.92,-237"/>
<polygon fill="black" stroke="black" points="1094.15,-240.5 1104.15,-237 1094.15,-233.5 1094.15,-240.5"/>
<text text-anchor="middle" x="1061.5" y="-243.8" font-family="Times,serif" font-size="14.00">Data flow</text>
</g>
<!-- d2 -->
<!-- d3 -->
<!-- d2&#45;&gt;d3 -->
<g id="edge20" class="edge">
<title>d2&#45;&gt;d3</title>
<path fill="none" stroke="black" stroke-dasharray="1,5" d="M892.81,-237C903.46,-237 958.46,-237 983.08,-237"/>
<polygon fill="black" stroke="black" points="983.15,-240.5 993.15,-237 983.15,-233.5 983.15,-240.5"/>
<text text-anchor="middle" x="943" y="-243.8" font-family="Times,serif" font-size="14.00">Declaration</text>
</g>
<!-- d4 -->
<!-- d5 -->
<!-- d4&#45;&gt;d5 -->
<g id="edge21" class="edge">
<title>d4&#45;&gt;d5</title>
<path fill="none" stroke="blue" d="M750.1,-237C762.72,-237 828.88,-237 856.68,-237"/>
<polygon fill="blue" stroke="blue" points="856.84,-240.5 866.84,-237 856.84,-233.5 856.84,-240.5"/>
<text text-anchor="middle" x="808.5" y="-243.8" font-family="Times,serif" font-size="14.00">PHI Data flow</text>
</g>
<!-- d6 -->
<!-- d7 -->
<!-- d6&#45;&gt;d7 -->
<g id="edge22" class="edge">
<title>d6&#45;&gt;d7</title>
<path fill="none" stroke="green" d="M627.11,-237C638.15,-237 689.67,-237 713.66,-237"/>
<polygon fill="green" stroke="green" points="713.9,-240.5 723.9,-237 713.9,-233.5 713.9,-240.5"/>
<text text-anchor="middle" x="675.5" y="-243.8" font-family="Times,serif" font-size="14.00">Dominance</text>
</g>
</g>
</svg>
