<?xml version="1.0" encoding="UTF-8" standalone="no"?>
<!DOCTYPE svg PUBLIC "-//W3C//DTD SVG 1.1//EN"
 "http://www.w3.org/Graphics/SVG/1.1/DTD/svg11.dtd">
<!-- Generated by graphviz version 2.43.0 (0)
 -->
<!-- Title: %3 Pages: 1 -->
<svg width="1454pt" height="443pt"
 viewBox="0.00 0.00 1453.72 443.00" xmlns="http://www.w3.org/2000/svg" xmlns:xlink="http://www.w3.org/1999/xlink">
<g id="graph0" class="graph" transform="scale(1 1) rotate(0) translate(4 439)">
<title>%3</title>
<polygon fill="white" stroke="transparent" points="-4,4 -4,-439 1449.72,-439 1449.72,4 -4,4"/>
<g id="clust1" class="cluster">
<title>cluster_0</title>
<polygon fill="none" stroke="lightgray" points="198.72,-284 198.72,-427 576.72,-427 576.72,-284 198.72,-284"/>
</g>
<g id="clust2" class="cluster">
<title>cluster_000</title>
<polygon fill="none" stroke="black" points="584.72,-382.2 584.72,-424.8 1437.72,-424.8 1437.72,-382.2 584.72,-382.2"/>
<text text-anchor="middle" x="1011.22" y="-409.6" font-family="Times,serif" font-size="14.00">Legend</text>
</g>
<!-- node0 -->
<g id="node1" class="node">
<title>node0</title>
<polygon fill="lightgrey" stroke="transparent" points="542.22,-419 375.22,-419 375.22,-365 542.22,-365 542.22,-419"/>
<polygon fill="none" stroke="black" points="375.72,-392 375.72,-419 542.72,-419 542.72,-392 375.72,-392"/>
<text text-anchor="start" x="418.72" y="-401.8" font-family="Times,serif" font-size="14.00">#0 Method</text>
<polygon fill="yellow" stroke="transparent" points="375.72,-365 375.72,-392 542.72,-392 542.72,-365 375.72,-365"/>
<polygon fill="none" stroke="black" points="375.72,-365 375.72,-392 542.72,-392 542.72,-365 375.72,-365"/>
<text text-anchor="start" x="381.72" y="-374.8" font-family="Times,serif" font-size="14.00">this : FieldAccessTest</text>
</g>
<!-- node4 -->
<g id="node2" class="node">
<title>node4</title>
<polygon fill="lightgrey" stroke="black" points="544.22,-255 439.22,-255 439.22,-219 544.22,-219 544.22,-255"/>
<text text-anchor="middle" x="491.72" y="-233.3" font-family="Times,serif" font-size="14.00">#4 ClassInit</text>
</g>
<!-- node0&#45;&gt;node4 -->
<g id="edge3" class="edge">
<title>node0&#45;&gt;node4</title>
<path fill="none" stroke="green" d="M537.06,-364.99C553.22,-355.88 568.2,-343.82 577.72,-328 587.81,-311.25 587.77,-300.77 577.72,-284 571.8,-274.11 562.95,-266.23 553.14,-259.99"/>
<polygon fill="green" stroke="green" points="554.74,-256.87 544.33,-254.92 551.25,-262.94 554.74,-256.87"/>
</g>
<!-- node3 -->
<g id="node3" class="node">
<title>node3</title>
<polygon fill="lightgreen" stroke="black" points="568.32,-302.54 568.32,-317.46 462.53,-328 312.92,-328 207.13,-317.46 207.13,-302.54 312.92,-292 462.53,-292 568.32,-302.54"/>
<text text-anchor="middle" x="387.72" y="-306.3" font-family="Times,serif" font-size="14.00">#3 Class FieldAccessTest$Source</text>
</g>
<!-- node0&#45;&gt;node3 -->
<g id="edge5" class="edge">
<title>node0&#45;&gt;node3</title>
<path fill="none" stroke="black" stroke-dasharray="1,5" d="M435.47,-364.81C427.22,-355.5 417.95,-345.06 409.79,-335.87"/>
<polygon fill="black" stroke="black" points="412.22,-333.33 402.96,-328.17 406.98,-337.98 412.22,-333.33"/>
</g>
<!-- node2 -->
<g id="node4" class="node">
<title>node2</title>
<polygon fill="lightgrey" stroke="black" points="744.22,-328 625.22,-328 625.22,-292 744.22,-292 744.22,-328"/>
<text text-anchor="middle" x="684.72" y="-306.3" font-family="Times,serif" font-size="14.00">#2 LabelNode</text>
</g>
<!-- node0&#45;&gt;node2 -->
<g id="edge4" class="edge">
<title>node0&#45;&gt;node2</title>
<path fill="none" stroke="red" d="M532.41,-364.92C563.08,-354.06 598.16,-341.64 626.92,-331.46"/>
<polygon fill="red" stroke="red" points="628.15,-334.74 636.41,-328.1 625.82,-328.14 628.15,-334.74"/>
</g>
<!-- node5 -->
<g id="node5" class="node">
<title>node5</title>
<polygon fill="orange" stroke="black" points="503.84,-156.54 503.84,-171.46 473.31,-182 430.13,-182 399.61,-171.46 399.61,-156.54 430.13,-146 473.31,-146 503.84,-156.54"/>
<text text-anchor="middle" x="451.72" y="-160.3" font-family="Times,serif" font-size="14.00">#5 New</text>
</g>
<!-- node4&#45;&gt;node5 -->
<g id="edge6" class="edge">
<title>node4&#45;&gt;node5</title>
<path fill="none" stroke="black" d="M476.16,-218.81C470.63,-210.53 464.71,-200.41 459.94,-191.19"/>
<polygon fill="black" stroke="black" points="462.99,-189.47 455.45,-182.03 456.71,-192.55 462.99,-189.47"/>
<text text-anchor="middle" x="471.01" y="-190.89" font-family="Times,serif" font-size="14.00">*0</text>
</g>
<!-- node4&#45;&gt;node5 -->
<g id="edge7" class="edge">
<title>node4&#45;&gt;node5</title>
<path fill="none" stroke="green" d="M487.92,-218.81C484.04,-210.35 478.41,-199.98 472.66,-190.61"/>
<polygon fill="green" stroke="green" points="475.51,-188.57 467.18,-182.03 469.61,-192.34 475.51,-188.57"/>
</g>
<!-- node6 -->
<g id="node7" class="node">
<title>node6</title>
<polygon fill="lightgrey" stroke="black" points="656.72,-109 406.72,-109 406.72,-73 656.72,-73 656.72,-109"/>
<text text-anchor="middle" x="531.72" y="-87.3" font-family="Times,serif" font-size="14.00">#6 Invoke special &lt;init&gt; : ()void</text>
</g>
<!-- node4&#45;&gt;node6 -->
<g id="edge11" class="edge">
<title>node4&#45;&gt;node6</title>
<path fill="none" stroke="red" d="M499.26,-218.74C503.63,-208.26 508.99,-194.53 512.72,-182 518.9,-161.24 523.87,-137.22 527.17,-119.22"/>
<polygon fill="red" stroke="red" points="530.66,-119.58 528.96,-109.13 523.77,-118.36 530.66,-119.58"/>
</g>
<!-- node3&#45;&gt;node4 -->
<g id="edge1" class="edge">
<title>node3&#45;&gt;node4</title>
<path fill="none" stroke="black" d="M412.63,-291.99C426.3,-282.67 443.42,-270.97 458.24,-260.86"/>
<polygon fill="black" stroke="black" points="460.37,-263.64 466.65,-255.11 456.42,-257.86 460.37,-263.64"/>
<text text-anchor="middle" x="456.45" y="-268.61" font-family="Times,serif" font-size="14.00">*0</text>
</g>
<!-- node2&#45;&gt;node4 -->
<g id="edge2" class="edge">
<title>node2&#45;&gt;node4</title>
<path fill="none" stroke="red" d="M638.49,-291.99C611.24,-281.97 576.57,-269.21 547.77,-258.62"/>
<polygon fill="red" stroke="red" points="548.84,-255.28 538.24,-255.11 546.42,-261.85 548.84,-255.28"/>
</g>
<!-- node7 -->
<g id="node6" class="node">
<title>node7</title>
<polygon fill="orange" stroke="black" points="371.67,-83.54 371.67,-98.46 262.74,-109 108.7,-109 -0.22,-98.46 -0.22,-83.54 108.7,-73 262.74,-73 371.67,-83.54"/>
<text text-anchor="middle" x="185.72" y="-87.3" font-family="Times,serif" font-size="14.00">#7 GetField : double_field : double</text>
</g>
<!-- node5&#45;&gt;node7 -->
<g id="edge8" class="edge">
<title>node5&#45;&gt;node7</title>
<path fill="none" stroke="black" d="M411.61,-152.29C371.42,-141.57 308.62,-124.8 259.43,-111.67"/>
<polygon fill="black" stroke="black" points="260.04,-108.21 249.47,-109.02 258.23,-114.98 260.04,-108.21"/>
<text text-anchor="middle" x="269.17" y="-101.82" font-family="Times,serif" font-size="14.00">*0</text>
</g>
<!-- node5&#45;&gt;node6 -->
<g id="edge10" class="edge">
<title>node5&#45;&gt;node6</title>
<path fill="none" stroke="black" d="M465.21,-145.81C474.48,-136.74 487,-125.48 498.73,-115.6"/>
<polygon fill="black" stroke="black" points="501.2,-118.1 506.67,-109.03 496.74,-112.71 501.2,-118.1"/>
<text text-anchor="middle" x="498.09" y="-123.4" font-family="Times,serif" font-size="14.00">*0</text>
</g>
<!-- node5&#45;&gt;node6 -->
<g id="edge12" class="edge">
<title>node5&#45;&gt;node6</title>
<path fill="none" stroke="green" d="M476.08,-146.53C487.25,-137.5 500.27,-126.13 510.98,-116.12"/>
<polygon fill="green" stroke="green" points="513.49,-118.56 518.3,-109.12 508.66,-113.5 513.49,-118.56"/>
</g>
<!-- node8 -->
<g id="node8" class="node">
<title>node8</title>
<polygon fill="lightgrey" stroke="black" points="454.72,-36 262.72,-36 262.72,0 454.72,0 454.72,-36"/>
<text text-anchor="middle" x="358.72" y="-14.3" font-family="Times,serif" font-size="14.00">#8 ReturnValue : double</text>
</g>
<!-- node7&#45;&gt;node8 -->
<g id="edge13" class="edge">
<title>node7&#45;&gt;node8</title>
<path fill="none" stroke="black" d="M221.3,-72.99C244.46,-63.06 275.1,-50.43 301.6,-39.89"/>
<polygon fill="black" stroke="black" points="303.14,-43.05 311.15,-36.11 300.57,-36.54 303.14,-43.05"/>
<text text-anchor="middle" x="297.41" y="-46.94" font-family="Times,serif" font-size="14.00">*0</text>
</g>
<!-- node7&#45;&gt;node8 -->
<g id="edge15" class="edge">
<title>node7&#45;&gt;node8</title>
<path fill="none" stroke="green" d="M233.02,-72.99C258.07,-63.14 288.62,-50.66 313.37,-40.17"/>
<polygon fill="green" stroke="green" points="315.07,-43.25 322.89,-36.11 312.32,-36.81 315.07,-43.25"/>
</g>
<!-- node6&#45;&gt;node7 -->
<g id="edge9" class="edge">
<title>node6&#45;&gt;node7</title>
<path fill="none" stroke="green" d="M406.6,-91C398.29,-91 389.99,-91 381.69,-91"/>
<polygon fill="green" stroke="green" points="381.56,-87.5 371.56,-91 381.56,-94.5 381.56,-87.5"/>
</g>
<!-- node6&#45;&gt;node8 -->
<g id="edge14" class="edge">
<title>node6&#45;&gt;node8</title>
<path fill="none" stroke="red" d="M490.28,-72.99C466.17,-63.1 435.59,-50.54 409.97,-40.03"/>
<polygon fill="red" stroke="red" points="411,-36.67 400.42,-36.11 408.34,-43.15 411,-36.67"/>
</g>
<!-- c0 -->
<!-- c1 -->
<!-- c0&#45;&gt;c1 -->
<g id="edge16" class="edge">
<title>c0&#45;&gt;c1</title>
<path fill="none" stroke="red" d="M1320.61,-392C1331.83,-392 1389.97,-392 1415.58,-392"/>
<polygon fill="red" stroke="red" points="1415.78,-395.5 1425.78,-392 1415.78,-388.5 1415.78,-395.5"/>
<text text-anchor="middle" x="1373.22" y="-398.8" font-family="Times,serif" font-size="14.00">Control flow</text>
</g>
<!-- c2 -->
<!-- c3 -->
<!-- c2&#45;&gt;c3 -->
<g id="edge17" class="edge">
<title>c2&#45;&gt;c3</title>
<path fill="none" stroke="red" stroke-dasharray="5,2" d="M1113.8,-392C1130.77,-392 1246.93,-392 1284.81,-392"/>
<polygon fill="red" stroke="red" points="1284.89,-395.5 1294.89,-392 1284.89,-388.5 1284.89,-395.5"/>
<text text-anchor="middle" x="1204.22" y="-398.8" font-family="Times,serif" font-size="14.00">Control flow back edge</text>
</g>
<!-- d0 -->
<!-- d1 -->
<!-- d0&#45;&gt;d1 -->
<g id="edge18" class="edge">
<title>d0&#45;&gt;d1</title>
<path fill="none" stroke="black" d="M1002.58,-392C1012.13,-392 1056.03,-392 1077.64,-392"/>
<polygon fill="black" stroke="black" points="1077.87,-395.5 1087.87,-392 1077.87,-388.5 1077.87,-395.5"/>
<text text-anchor="middle" x="1045.22" y="-398.8" font-family="Times,serif" font-size="14.00">Data flow</text>
</g>
<!-- d2 -->
<!-- d3 -->
<!-- d2&#45;&gt;d3 -->
<g id="edge19" class="edge">
<title>d2&#45;&gt;d3</title>
<path fill="none" stroke="black" stroke-dasharray="1,5" d="M876.53,-392C887.18,-392 942.19,-392 966.8,-392"/>
<polygon fill="black" stroke="black" points="966.87,-395.5 976.87,-392 966.87,-388.5 966.87,-395.5"/>
<text text-anchor="middle" x="926.72" y="-398.8" font-family="Times,serif" font-size="14.00">Declaration</text>
</g>
<!-- d4 -->
<!-- d5 -->
<!-- d4&#45;&gt;d5 -->
<g id="edge20" class="edge">
<title>d4&#45;&gt;d5</title>
<path fill="none" stroke="blue" d="M733.82,-392C746.44,-392 812.6,-392 840.4,-392"/>
<polygon fill="blue" stroke="blue" points="840.56,-395.5 850.56,-392 840.56,-388.5 840.56,-395.5"/>
<text text-anchor="middle" x="792.22" y="-398.8" font-family="Times,serif" font-size="14.00">PHI Data flow</text>
</g>
<!-- d6 -->
<!-- d7 -->
<!-- d6&#45;&gt;d7 -->
<g id="edge21" class="edge">
<title>d6&#45;&gt;d7</title>
<path fill="none" stroke="green" d="M596.72,-392C608.66,-392 671.02,-392 697.65,-392"/>
<polygon fill="green" stroke="green" points="697.67,-395.5 707.67,-392 697.67,-388.5 697.67,-395.5"/>
<text text-anchor="middle" x="652.22" y="-398.8" font-family="Times,serif" font-size="14.00">Memory flow</text>
</g>
</g>
</svg>
