<?xml version="1.0" encoding="UTF-8" standalone="no"?>
<!DOCTYPE svg PUBLIC "-//W3C//DTD SVG 1.1//EN"
 "http://www.w3.org/Graphics/SVG/1.1/DTD/svg11.dtd">
<!-- Generated by graphviz version 2.43.0 (0)
 -->
<!-- Title: %3 Pages: 1 -->
<svg width="1688pt" height="443pt"
 viewBox="0.00 0.00 1687.72 443.00" xmlns="http://www.w3.org/2000/svg" xmlns:xlink="http://www.w3.org/1999/xlink">
<g id="graph0" class="graph" transform="scale(1 1) rotate(0) translate(4 439)">
<title>%3</title>
<polygon fill="white" stroke="transparent" points="-4,4 -4,-439 1683.72,-439 1683.72,4 -4,4"/>
<g id="clust1" class="cluster">
<title>cluster_0</title>
<polygon fill="none" stroke="lightgray" points="432.72,-284 432.72,-427 810.72,-427 810.72,-284 432.72,-284"/>
</g>
<g id="clust2" class="cluster">
<title>cluster_000</title>
<polygon fill="none" stroke="black" points="818.72,-382.2 818.72,-424.8 1671.72,-424.8 1671.72,-382.2 818.72,-382.2"/>
<text text-anchor="middle" x="1245.22" y="-409.6" font-family="Times,serif" font-size="14.00">Legend</text>
</g>
<!-- node0 -->
<g id="node1" class="node">
<title>node0</title>
<polygon fill="lightgrey" stroke="transparent" points="656.22,-419 489.22,-419 489.22,-365 656.22,-365 656.22,-419"/>
<polygon fill="none" stroke="black" points="489.72,-392 489.72,-419 656.72,-419 656.72,-392 489.72,-392"/>
<text text-anchor="start" x="532.72" y="-401.8" font-family="Times,serif" font-size="14.00">#0 Method</text>
<polygon fill="yellow" stroke="transparent" points="489.72,-365 489.72,-392 656.72,-392 656.72,-365 489.72,-365"/>
<polygon fill="none" stroke="black" points="489.72,-365 489.72,-392 656.72,-392 656.72,-365 489.72,-365"/>
<text text-anchor="start" x="495.72" y="-374.8" font-family="Times,serif" font-size="14.00">this : FieldAccessTest</text>
</g>
<!-- node7 -->
<g id="node2" class="node">
<title>node7</title>
<polygon fill="lightgrey" stroke="black" points="423.22,-328 304.22,-328 304.22,-292 423.22,-292 423.22,-328"/>
<text text-anchor="middle" x="363.72" y="-306.3" font-family="Times,serif" font-size="14.00">#7 LabelNode</text>
</g>
<!-- node0&#45;&gt;node7 -->
<g id="edge1" class="edge">
<title>node0&#45;&gt;node7</title>
<path fill="none" stroke="red" d="M504.58,-364.92C476.46,-354.15 444.34,-341.86 417.87,-331.73"/>
<polygon fill="red" stroke="red" points="418.99,-328.41 408.4,-328.1 416.48,-334.94 418.99,-328.41"/>
</g>
<!-- node1 -->
<g id="node3" class="node">
<title>node1</title>
<polygon fill="lightgrey" stroke="black" points="544.22,-255 439.22,-255 439.22,-219 544.22,-219 544.22,-255"/>
<text text-anchor="middle" x="491.72" y="-233.3" font-family="Times,serif" font-size="14.00">#1 ClassInit</text>
</g>
<!-- node0&#45;&gt;node1 -->
<g id="edge4" class="edge">
<title>node0&#45;&gt;node1</title>
<path fill="none" stroke="green" d="M656.54,-382.11C743.88,-369.6 861.59,-341.55 811.72,-284 779.13,-246.39 638.11,-238.81 554.54,-237.71"/>
<polygon fill="green" stroke="green" points="554.43,-234.21 544.4,-237.6 554.36,-241.21 554.43,-234.21"/>
</g>
<!-- node8 -->
<g id="node4" class="node">
<title>node8</title>
<polygon fill="lightgreen" stroke="black" points="802.32,-302.54 802.32,-317.46 696.53,-328 546.92,-328 441.13,-317.46 441.13,-302.54 546.92,-292 696.53,-292 802.32,-302.54"/>
<text text-anchor="middle" x="621.72" y="-306.3" font-family="Times,serif" font-size="14.00">#8 Class FieldAccessTest$Source</text>
</g>
<!-- node0&#45;&gt;node8 -->
<g id="edge5" class="edge">
<title>node0&#45;&gt;node8</title>
<path fill="none" stroke="black" stroke-dasharray="1,5" d="M588.77,-364.81C594.29,-355.78 600.47,-345.69 605.98,-336.71"/>
<polygon fill="black" stroke="black" points="608.96,-338.53 611.2,-328.17 602.99,-334.87 608.96,-338.53"/>
</g>
<!-- node7&#45;&gt;node1 -->
<g id="edge3" class="edge">
<title>node7&#45;&gt;node1</title>
<path fill="none" stroke="red" d="M394.38,-291.99C411.67,-282.4 433.46,-270.32 452.04,-260.01"/>
<polygon fill="red" stroke="red" points="453.82,-263.02 460.87,-255.11 450.43,-256.9 453.82,-263.02"/>
</g>
<!-- node3 -->
<g id="node5" class="node">
<title>node3</title>
<polygon fill="orange" stroke="black" points="503.84,-156.54 503.84,-171.46 473.31,-182 430.13,-182 399.61,-171.46 399.61,-156.54 430.13,-146 473.31,-146 503.84,-156.54"/>
<text text-anchor="middle" x="451.72" y="-160.3" font-family="Times,serif" font-size="14.00">#3 New</text>
</g>
<!-- node1&#45;&gt;node3 -->
<g id="edge6" class="edge">
<title>node1&#45;&gt;node3</title>
<path fill="none" stroke="black" d="M476.16,-218.81C470.63,-210.53 464.71,-200.41 459.94,-191.19"/>
<polygon fill="black" stroke="black" points="462.99,-189.47 455.45,-182.03 456.71,-192.55 462.99,-189.47"/>
<text text-anchor="middle" x="471.01" y="-190.89" font-family="Times,serif" font-size="14.00">*0</text>
</g>
<!-- node1&#45;&gt;node3 -->
<g id="edge7" class="edge">
<title>node1&#45;&gt;node3</title>
<path fill="none" stroke="green" d="M487.92,-218.81C484.04,-210.35 478.41,-199.98 472.66,-190.61"/>
<polygon fill="green" stroke="green" points="475.51,-188.57 467.18,-182.03 469.61,-192.34 475.51,-188.57"/>
</g>
<!-- node2 -->
<g id="node6" class="node">
<title>node2</title>
<polygon fill="lightgrey" stroke="black" points="656.72,-109 406.72,-109 406.72,-73 656.72,-73 656.72,-109"/>
<text text-anchor="middle" x="531.72" y="-87.3" font-family="Times,serif" font-size="14.00">#2 Invoke special &lt;init&gt; : ()void</text>
</g>
<!-- node1&#45;&gt;node2 -->
<g id="edge9" class="edge">
<title>node1&#45;&gt;node2</title>
<path fill="none" stroke="red" d="M499.26,-218.74C503.63,-208.26 508.99,-194.53 512.72,-182 518.9,-161.24 523.87,-137.22 527.17,-119.22"/>
<polygon fill="red" stroke="red" points="530.66,-119.58 528.96,-109.13 523.77,-118.36 530.66,-119.58"/>
</g>
<!-- node8&#45;&gt;node1 -->
<g id="edge2" class="edge">
<title>node8&#45;&gt;node1</title>
<path fill="none" stroke="black" d="M590.58,-291.99C573.03,-282.4 550.89,-270.32 532.02,-260.01"/>
<polygon fill="black" stroke="black" points="533.51,-256.84 523.06,-255.11 530.16,-262.98 533.51,-256.84"/>
<text text-anchor="middle" x="543.02" y="-252.68" font-family="Times,serif" font-size="14.00">*0</text>
</g>
<!-- node3&#45;&gt;node2 -->
<g id="edge8" class="edge">
<title>node3&#45;&gt;node2</title>
<path fill="none" stroke="black" d="M465.21,-145.81C474.48,-136.74 487,-125.48 498.73,-115.6"/>
<polygon fill="black" stroke="black" points="501.2,-118.1 506.67,-109.03 496.74,-112.71 501.2,-118.1"/>
<text text-anchor="middle" x="498.09" y="-123.4" font-family="Times,serif" font-size="14.00">*0</text>
</g>
<!-- node3&#45;&gt;node2 -->
<g id="edge10" class="edge">
<title>node3&#45;&gt;node2</title>
<path fill="none" stroke="green" d="M476.08,-146.53C487.25,-137.5 500.27,-126.13 510.98,-116.12"/>
<polygon fill="green" stroke="green" points="513.49,-118.56 518.3,-109.12 508.66,-113.5 513.49,-118.56"/>
</g>
<!-- node4 -->
<g id="node8" class="node">
<title>node4</title>
<polygon fill="orange" stroke="black" points="371.67,-83.54 371.67,-98.46 262.74,-109 108.7,-109 -0.22,-98.46 -0.22,-83.54 108.7,-73 262.74,-73 371.67,-83.54"/>
<text text-anchor="middle" x="185.72" y="-87.3" font-family="Times,serif" font-size="14.00">#4 GetField : double_field : double</text>
</g>
<!-- node3&#45;&gt;node4 -->
<g id="edge14" class="edge">
<title>node3&#45;&gt;node4</title>
<path fill="none" stroke="black" d="M411.61,-152.29C371.42,-141.57 308.62,-124.8 259.43,-111.67"/>
<polygon fill="black" stroke="black" points="260.04,-108.21 249.47,-109.02 258.23,-114.98 260.04,-108.21"/>
<text text-anchor="middle" x="269.17" y="-101.82" font-family="Times,serif" font-size="14.00">*0</text>
</g>
<!-- node5 -->
<g id="node7" class="node">
<title>node5</title>
<polygon fill="lightgrey" stroke="black" points="454.72,-36 262.72,-36 262.72,0 454.72,0 454.72,-36"/>
<text text-anchor="middle" x="358.72" y="-14.3" font-family="Times,serif" font-size="14.00">#5 ReturnValue : double</text>
</g>
<!-- node2&#45;&gt;node5 -->
<g id="edge12" class="edge">
<title>node2&#45;&gt;node5</title>
<path fill="none" stroke="red" d="M490.28,-72.99C466.17,-63.1 435.59,-50.54 409.97,-40.03"/>
<polygon fill="red" stroke="red" points="411,-36.67 400.42,-36.11 408.34,-43.15 411,-36.67"/>
</g>
<!-- node2&#45;&gt;node4 -->
<g id="edge15" class="edge">
<title>node2&#45;&gt;node4</title>
<path fill="none" stroke="green" d="M406.6,-91C398.29,-91 389.99,-91 381.69,-91"/>
<polygon fill="green" stroke="green" points="381.56,-87.5 371.56,-91 381.56,-94.5 381.56,-87.5"/>
</g>
<!-- node4&#45;&gt;node5 -->
<g id="edge11" class="edge">
<title>node4&#45;&gt;node5</title>
<path fill="none" stroke="black" d="M221.3,-72.99C244.46,-63.06 275.1,-50.43 301.6,-39.89"/>
<polygon fill="black" stroke="black" points="303.14,-43.05 311.15,-36.11 300.57,-36.54 303.14,-43.05"/>
<text text-anchor="middle" x="297.41" y="-46.94" font-family="Times,serif" font-size="14.00">*0</text>
</g>
<!-- node4&#45;&gt;node5 -->
<g id="edge13" class="edge">
<title>node4&#45;&gt;node5</title>
<path fill="none" stroke="green" d="M233.02,-72.99C258.07,-63.14 288.62,-50.66 313.37,-40.17"/>
<polygon fill="green" stroke="green" points="315.07,-43.25 322.89,-36.11 312.32,-36.81 315.07,-43.25"/>
</g>
<!-- c0 -->
<!-- c1 -->
<!-- c0&#45;&gt;c1 -->
<g id="edge16" class="edge">
<title>c0&#45;&gt;c1</title>
<path fill="none" stroke="red" d="M1554.61,-392C1565.83,-392 1623.97,-392 1649.58,-392"/>
<polygon fill="red" stroke="red" points="1649.78,-395.5 1659.78,-392 1649.78,-388.5 1649.78,-395.5"/>
<text text-anchor="middle" x="1607.22" y="-398.8" font-family="Times,serif" font-size="14.00">Control flow</text>
</g>
<!-- c2 -->
<!-- c3 -->
<!-- c2&#45;&gt;c3 -->
<g id="edge17" class="edge">
<title>c2&#45;&gt;c3</title>
<path fill="none" stroke="red" stroke-dasharray="5,2" d="M1347.8,-392C1364.77,-392 1480.93,-392 1518.81,-392"/>
<polygon fill="red" stroke="red" points="1518.89,-395.5 1528.89,-392 1518.89,-388.5 1518.89,-395.5"/>
<text text-anchor="middle" x="1438.22" y="-398.8" font-family="Times,serif" font-size="14.00">Control flow back edge</text>
</g>
<!-- d0 -->
<!-- d1 -->
<!-- d0&#45;&gt;d1 -->
<g id="edge18" class="edge">
<title>d0&#45;&gt;d1</title>
<path fill="none" stroke="black" d="M1236.58,-392C1246.13,-392 1290.03,-392 1311.64,-392"/>
<polygon fill="black" stroke="black" points="1311.87,-395.5 1321.87,-392 1311.87,-388.5 1311.87,-395.5"/>
<text text-anchor="middle" x="1279.22" y="-398.8" font-family="Times,serif" font-size="14.00">Data flow</text>
</g>
<!-- d2 -->
<!-- d3 -->
<!-- d2&#45;&gt;d3 -->
<g id="edge19" class="edge">
<title>d2&#45;&gt;d3</title>
<path fill="none" stroke="black" stroke-dasharray="1,5" d="M1110.53,-392C1121.18,-392 1176.19,-392 1200.8,-392"/>
<polygon fill="black" stroke="black" points="1200.87,-395.5 1210.87,-392 1200.87,-388.5 1200.87,-395.5"/>
<text text-anchor="middle" x="1160.72" y="-398.8" font-family="Times,serif" font-size="14.00">Declaration</text>
</g>
<!-- d4 -->
<!-- d5 -->
<!-- d4&#45;&gt;d5 -->
<g id="edge20" class="edge">
<title>d4&#45;&gt;d5</title>
<path fill="none" stroke="blue" d="M967.82,-392C980.44,-392 1046.6,-392 1074.4,-392"/>
<polygon fill="blue" stroke="blue" points="1074.56,-395.5 1084.56,-392 1074.56,-388.5 1074.56,-395.5"/>
<text text-anchor="middle" x="1026.22" y="-398.8" font-family="Times,serif" font-size="14.00">PHI Data flow</text>
</g>
<!-- d6 -->
<!-- d7 -->
<!-- d6&#45;&gt;d7 -->
<g id="edge21" class="edge">
<title>d6&#45;&gt;d7</title>
<path fill="none" stroke="green" d="M830.72,-392C842.66,-392 905.02,-392 931.65,-392"/>
<polygon fill="green" stroke="green" points="931.67,-395.5 941.67,-392 931.67,-388.5 931.67,-395.5"/>
<text text-anchor="middle" x="886.22" y="-398.8" font-family="Times,serif" font-size="14.00">Memory flow</text>
</g>
</g>
</svg>
