<?xml version="1.0" encoding="UTF-8" standalone="no"?>
<!DOCTYPE svg PUBLIC "-//W3C//DTD SVG 1.1//EN"
 "http://www.w3.org/Graphics/SVG/1.1/DTD/svg11.dtd">
<!-- Generated by graphviz version 2.43.0 (0)
 -->
<!-- Title: %3 Pages: 1 -->
<svg width="1377pt" height="587pt"
 viewBox="0.00 0.00 1376.86 586.80" xmlns="http://www.w3.org/2000/svg" xmlns:xlink="http://www.w3.org/1999/xlink">
<g id="graph0" class="graph" transform="scale(1 1) rotate(0) translate(4 582.8)">
<title>%3</title>
<polygon fill="white" stroke="transparent" points="-4,4 -4,-582.8 1372.86,-582.8 1372.86,4 -4,4"/>
<g id="clust1" class="cluster">
<title>cluster_0</title>
<polygon fill="none" stroke="lightgray" points="233.86,-138 233.86,-263 441.86,-263 441.86,-138 233.86,-138"/>
</g>
<g id="clust2" class="cluster">
<title>cluster_1</title>
<polygon fill="none" stroke="lightgray" points="347.86,-284 347.86,-409 483.86,-409 483.86,-284 347.86,-284"/>
</g>
<g id="clust3" class="cluster">
<title>cluster_2</title>
<polygon fill="none" stroke="lightgray" points="173.86,-357 173.86,-482 309.86,-482 309.86,-357 173.86,-357"/>
</g>
<g id="clust4" class="cluster">
<title>cluster_000</title>
<polygon fill="none" stroke="black" points="507.86,-528.2 507.86,-570.8 1360.86,-570.8 1360.86,-528.2 507.86,-528.2"/>
<text text-anchor="middle" x="934.36" y="-555.6" font-family="Times,serif" font-size="14.00">Legend</text>
</g>
<!-- node0 -->
<g id="node1" class="node">
<title>node0</title>
<polygon fill="lightgrey" stroke="transparent" points="498.36,-565 375.36,-565 375.36,-511 498.36,-511 498.36,-565"/>
<polygon fill="none" stroke="black" points="375.86,-538 375.86,-565 498.86,-565 498.86,-538 375.86,-538"/>
<text text-anchor="start" x="396.86" y="-547.8" font-family="Times,serif" font-size="14.00">#0 Method</text>
<polygon fill="yellow" stroke="transparent" points="375.86,-511 375.86,-538 498.86,-538 498.86,-511 375.86,-511"/>
<polygon fill="none" stroke="black" points="375.86,-511 375.86,-538 498.86,-538 498.86,-511 375.86,-511"/>
<text text-anchor="start" x="381.86" y="-520.8" font-family="Times,serif" font-size="14.00">this : ArrayTest</text>
</g>
<!-- node5 -->
<g id="node2" class="node">
<title>node5</title>
<polygon fill="orange" stroke="black" points="277.15,-302.54 277.15,-317.46 200.83,-328 92.89,-328 16.57,-317.46 16.57,-302.54 92.89,-292 200.83,-292 277.15,-302.54"/>
<text text-anchor="middle" x="146.86" y="-306.3" font-family="Times,serif" font-size="14.00">#5 NewArray : Object[]</text>
</g>
<!-- node0&#45;&gt;node5 -->
<g id="edge2" class="edge">
<title>node0&#45;&gt;node5</title>
<path fill="none" stroke="green" d="M375.31,-533.11C304.68,-527.21 195.28,-513.18 169.86,-482 92.88,-387.55 268.05,-464.96 313.86,-409 328.5,-391.12 327.87,-375.38 313.86,-357 303.95,-343.99 272.32,-333.73 239.21,-326.24"/>
<polygon fill="green" stroke="green" points="239.89,-322.8 229.38,-324.1 238.41,-329.64 239.89,-322.8"/>
</g>
<!-- node2 -->
<g id="node4" class="node">
<title>node2</title>
<polygon fill="lightgrey" stroke="black" points="301.36,-474 182.36,-474 182.36,-438 301.36,-438 301.36,-474"/>
<text text-anchor="middle" x="241.86" y="-452.3" font-family="Times,serif" font-size="14.00">#2 LabelNode</text>
</g>
<!-- node0&#45;&gt;node2 -->
<g id="edge4" class="edge">
<title>node0&#45;&gt;node2</title>
<path fill="none" stroke="red" d="M375.16,-511.69C348.65,-500.81 318.03,-488.25 292.83,-477.91"/>
<polygon fill="red" stroke="red" points="294.03,-474.62 283.45,-474.06 291.38,-481.1 294.03,-474.62"/>
</g>
<!-- node7 -->
<g id="node7" class="node">
<title>node7</title>
<polygon fill="lightgrey" stroke="black" points="433.36,-255 242.36,-255 242.36,-219 433.36,-219 433.36,-255"/>
<text text-anchor="middle" x="337.86" y="-233.3" font-family="Times,serif" font-size="14.00">#7 ArrayStore : Object[]</text>
</g>
<!-- node0&#45;&gt;node7 -->
<g id="edge9" class="edge">
<title>node0:prj1&#45;&gt;node7</title>
<path fill="none" stroke="black" d="M499.86,-524C503.59,-524 503.86,-460.73 503.86,-457 503.86,-457 503.86,-457 503.86,-309 503.86,-276.19 476.11,-258.34 443.3,-248.7"/>
<polygon fill="black" stroke="black" points="444.03,-245.28 433.46,-246.08 442.22,-252.04 444.03,-245.28"/>
<text text-anchor="middle" x="453.15" y="-238.88" font-family="Times,serif" font-size="14.00">*2</text>
</g>
<!-- node5&#45;&gt;node7 -->
<g id="edge7" class="edge">
<title>node5&#45;&gt;node7</title>
<path fill="none" stroke="black" d="M186.75,-291.99C212.66,-281.97 246.86,-269.21 276.21,-258.62"/>
<polygon fill="black" stroke="black" points="277.73,-261.79 285.95,-255.11 275.36,-255.2 277.73,-261.79"/>
<text text-anchor="middle" x="271.75" y="-265.5" font-family="Times,serif" font-size="14.00">*0</text>
</g>
<!-- node5&#45;&gt;node7 -->
<g id="edge10" class="edge">
<title>node5&#45;&gt;node7</title>
<path fill="none" stroke="green" d="M198.47,-291.99C226.38,-282.01 260.63,-269.32 288.23,-258.76"/>
<polygon fill="green" stroke="green" points="289.62,-261.97 297.69,-255.11 287.1,-255.44 289.62,-261.97"/>
</g>
<!-- node11 -->
<g id="node11" class="node">
<title>node11</title>
<polygon fill="lightgrey" stroke="black" points="337.36,-109 152.36,-109 152.36,-73 337.36,-73 337.36,-109"/>
<text text-anchor="middle" x="244.86" y="-87.3" font-family="Times,serif" font-size="14.00">#11 ArrayLoad : Object</text>
</g>
<!-- node5&#45;&gt;node11 -->
<g id="edge16" class="edge">
<title>node5&#45;&gt;node11</title>
<path fill="none" stroke="black" d="M169.52,-291.81C178.56,-283.92 188.34,-273.89 194.86,-263 224.51,-213.51 213.14,-193.21 229.86,-138 231.7,-131.92 233.76,-125.42 235.75,-119.28"/>
<polygon fill="black" stroke="black" points="239.2,-120.01 238.99,-109.42 232.55,-117.83 239.2,-120.01"/>
<text text-anchor="middle" x="241.37" y="-125.58" font-family="Times,serif" font-size="14.00">*0</text>
</g>
<!-- node8 -->
<g id="node13" class="node">
<title>node8</title>
<polygon fill="orange" stroke="black" points="185.58,-229.54 185.58,-244.46 131.27,-255 54.45,-255 0.14,-244.46 0.14,-229.54 54.45,-219 131.27,-219 185.58,-229.54"/>
<text text-anchor="middle" x="92.86" y="-233.3" font-family="Times,serif" font-size="14.00">#8 ArrayLength</text>
</g>
<!-- node5&#45;&gt;node8 -->
<g id="edge20" class="edge">
<title>node5&#45;&gt;node8</title>
<path fill="none" stroke="black" d="M133.79,-291.81C127.22,-283.18 119.14,-272.56 111.9,-263.03"/>
<polygon fill="black" stroke="black" points="114.65,-260.87 105.81,-255.03 109.08,-265.11 114.65,-260.87"/>
<text text-anchor="middle" x="123.51" y="-260.64" font-family="Times,serif" font-size="14.00">*0</text>
</g>
<!-- node4 -->
<g id="node3" class="node">
<title>node4</title>
<polygon fill="lightgreen" stroke="black" points="300.05,-375.54 300.05,-390.46 265.38,-401 216.34,-401 181.67,-390.46 181.67,-375.54 216.34,-365 265.38,-365 300.05,-375.54"/>
<text text-anchor="middle" x="240.86" y="-379.3" font-family="Times,serif" font-size="14.00">#4 int 10</text>
</g>
<!-- node4&#45;&gt;node5 -->
<g id="edge1" class="edge">
<title>node4&#45;&gt;node5</title>
<path fill="none" stroke="black" d="M218.11,-364.81C205.98,-355.66 190.9,-344.26 177.73,-334.32"/>
<polygon fill="black" stroke="black" points="179.5,-331.26 169.41,-328.03 175.28,-336.85 179.5,-331.26"/>
<text text-anchor="middle" x="188.96" y="-328.51" font-family="Times,serif" font-size="14.00">*0</text>
</g>
<!-- node2&#45;&gt;node4 -->
<g id="edge3" class="edge">
<title>node2&#45;&gt;node4</title>
<path fill="none" stroke="black" stroke-dasharray="1,5" d="M241.62,-437.81C241.51,-429.79 241.37,-420.05 241.24,-411.07"/>
<polygon fill="black" stroke="black" points="244.74,-410.98 241.1,-401.03 237.74,-411.08 244.74,-410.98"/>
</g>
<!-- node3 -->
<g id="node5" class="node">
<title>node3</title>
<polygon fill="lightgrey" stroke="black" points="475.36,-401 356.36,-401 356.36,-365 475.36,-365 475.36,-401"/>
<text text-anchor="middle" x="415.86" y="-379.3" font-family="Times,serif" font-size="14.00">#3 LabelNode</text>
</g>
<!-- node2&#45;&gt;node3 -->
<g id="edge5" class="edge">
<title>node2&#45;&gt;node3</title>
<path fill="none" stroke="red" d="M301.37,-440.3C319.85,-434.87 340.03,-428.05 357.86,-420 366.26,-416.21 374.9,-411.4 382.87,-406.54"/>
<polygon fill="red" stroke="red" points="384.94,-409.38 391.53,-401.08 381.21,-403.45 384.94,-409.38"/>
</g>
<!-- node6 -->
<g id="node6" class="node">
<title>node6</title>
<polygon fill="lightgreen" stroke="black" points="464.39,-302.54 464.39,-317.46 433.62,-328 390.1,-328 359.34,-317.46 359.34,-302.54 390.1,-292 433.62,-292 464.39,-302.54"/>
<text text-anchor="middle" x="411.86" y="-306.3" font-family="Times,serif" font-size="14.00">#6 int 0</text>
</g>
<!-- node3&#45;&gt;node6 -->
<g id="edge6" class="edge">
<title>node3&#45;&gt;node6</title>
<path fill="none" stroke="black" stroke-dasharray="1,5" d="M414.89,-364.81C414.44,-356.79 413.89,-347.05 413.39,-338.07"/>
<polygon fill="black" stroke="black" points="416.88,-337.82 412.82,-328.03 409.89,-338.21 416.88,-337.82"/>
</g>
<!-- node3&#45;&gt;node7 -->
<g id="edge11" class="edge">
<title>node3&#45;&gt;node7</title>
<path fill="none" stroke="red" d="M386.08,-364.91C372.81,-355.71 358.3,-343.13 349.86,-328 339.21,-308.9 336.58,-284.06 336.4,-265.32"/>
<polygon fill="red" stroke="red" points="339.9,-265.12 336.54,-255.08 332.91,-265.03 339.9,-265.12"/>
</g>
<!-- node6&#45;&gt;node7 -->
<g id="edge8" class="edge">
<title>node6&#45;&gt;node7</title>
<path fill="none" stroke="black" d="M393.95,-291.81C384.68,-282.92 373.2,-271.91 363.05,-262.17"/>
<polygon fill="black" stroke="black" points="365.25,-259.43 355.61,-255.03 360.4,-264.48 365.25,-259.43"/>
<text text-anchor="middle" x="374.54" y="-257.78" font-family="Times,serif" font-size="14.00">*1</text>
</g>
<!-- node9 -->
<g id="node8" class="node">
<title>node9</title>
<polygon fill="lightgrey" stroke="black" points="569.36,-182 450.36,-182 450.36,-146 569.36,-146 569.36,-182"/>
<text text-anchor="middle" x="509.86" y="-160.3" font-family="Times,serif" font-size="14.00">#9 LabelNode</text>
</g>
<!-- node7&#45;&gt;node9 -->
<g id="edge12" class="edge">
<title>node7&#45;&gt;node9</title>
<path fill="none" stroke="red" d="M379.06,-218.99C403.03,-209.1 433.44,-196.54 458.91,-186.03"/>
<polygon fill="red" stroke="red" points="460.49,-189.16 468.4,-182.11 457.82,-182.69 460.49,-189.16"/>
</g>
<!-- node7&#45;&gt;node11 -->
<g id="edge18" class="edge">
<title>node7&#45;&gt;node11</title>
<path fill="none" stroke="green" d="M352.75,-218.74C368.68,-198.06 389.44,-163.06 371.86,-138 364.69,-127.77 355,-119.81 344.16,-113.62"/>
<polygon fill="green" stroke="green" points="345.74,-110.49 335.24,-109.01 342.53,-116.71 345.74,-110.49"/>
</g>
<!-- node10 -->
<g id="node12" class="node">
<title>node10</title>
<polygon fill="lightgreen" stroke="black" points="363.05,-156.54 363.05,-171.46 328.38,-182 279.34,-182 244.67,-171.46 244.67,-156.54 279.34,-146 328.38,-146 363.05,-156.54"/>
<text text-anchor="middle" x="303.86" y="-160.3" font-family="Times,serif" font-size="14.00">#10 int 1</text>
</g>
<!-- node7&#45;&gt;node10 -->
<g id="edge19" class="edge">
<title>node7&#45;&gt;node10</title>
<path fill="none" stroke="black" stroke-dasharray="1,5" d="M329.52,-218.93C326.75,-213.23 323.66,-206.85 320.86,-201 319.4,-197.95 317.87,-194.74 316.36,-191.56"/>
<polygon fill="black" stroke="black" points="319.39,-189.77 311.95,-182.23 313.06,-192.77 319.39,-189.77"/>
</g>
<!-- node12 -->
<g id="node9" class="node">
<title>node12</title>
<polygon fill="lightgrey" stroke="black" points="573.86,-109 445.86,-109 445.86,-73 573.86,-73 573.86,-109"/>
<text text-anchor="middle" x="509.86" y="-87.3" font-family="Times,serif" font-size="14.00">#12 LabelNode</text>
</g>
<!-- node9&#45;&gt;node12 -->
<g id="edge13" class="edge">
<title>node9&#45;&gt;node12</title>
<path fill="none" stroke="red" d="M509.86,-145.81C509.86,-137.79 509.86,-128.05 509.86,-119.07"/>
<polygon fill="red" stroke="red" points="513.36,-119.03 509.86,-109.03 506.36,-119.03 513.36,-119.03"/>
</g>
<!-- node13 -->
<g id="node10" class="node">
<title>node13</title>
<polygon fill="lightgrey" stroke="black" points="560.36,-36 459.36,-36 459.36,0 560.36,0 560.36,-36"/>
<text text-anchor="middle" x="509.86" y="-14.3" font-family="Times,serif" font-size="14.00">#13 Return</text>
</g>
<!-- node12&#45;&gt;node13 -->
<g id="edge14" class="edge">
<title>node12&#45;&gt;node13</title>
<path fill="none" stroke="red" d="M509.86,-72.81C509.86,-64.79 509.86,-55.05 509.86,-46.07"/>
<polygon fill="red" stroke="red" points="513.36,-46.03 509.86,-36.03 506.36,-46.03 513.36,-46.03"/>
</g>
<!-- node11&#45;&gt;node13 -->
<g id="edge15" class="edge">
<title>node11&#45;&gt;node13</title>
<path fill="none" stroke="green" d="M308.34,-72.99C351.15,-61.52 407.29,-46.48 449.45,-35.19"/>
<polygon fill="green" stroke="green" points="450.55,-38.51 459.3,-32.55 448.74,-31.75 450.55,-38.51"/>
</g>
<!-- node10&#45;&gt;node11 -->
<g id="edge17" class="edge">
<title>node10&#45;&gt;node11</title>
<path fill="none" stroke="black" d="M289.58,-145.81C282.33,-137.09 273.4,-126.34 265.42,-116.75"/>
<polygon fill="black" stroke="black" points="268.09,-114.48 259.01,-109.03 262.71,-118.96 268.09,-114.48"/>
<text text-anchor="middle" x="277.1" y="-113.87" font-family="Times,serif" font-size="14.00">*1</text>
</g>
<!-- c0 -->
<!-- c1 -->
<!-- c0&#45;&gt;c1 -->
<g id="edge21" class="edge">
<title>c0&#45;&gt;c1</title>
<path fill="none" stroke="red" d="M1243.75,-538C1254.97,-538 1313.1,-538 1338.72,-538"/>
<polygon fill="red" stroke="red" points="1338.92,-541.5 1348.92,-538 1338.92,-534.5 1338.92,-541.5"/>
<text text-anchor="middle" x="1296.36" y="-544.8" font-family="Times,serif" font-size="14.00">Control flow</text>
</g>
<!-- c2 -->
<!-- c3 -->
<!-- c2&#45;&gt;c3 -->
<g id="edge22" class="edge">
<title>c2&#45;&gt;c3</title>
<path fill="none" stroke="red" stroke-dasharray="5,2" d="M1036.94,-538C1053.91,-538 1170.07,-538 1207.95,-538"/>
<polygon fill="red" stroke="red" points="1208.03,-541.5 1218.03,-538 1208.03,-534.5 1208.03,-541.5"/>
<text text-anchor="middle" x="1127.36" y="-544.8" font-family="Times,serif" font-size="14.00">Control flow back edge</text>
</g>
<!-- d0 -->
<!-- d1 -->
<!-- d0&#45;&gt;d1 -->
<g id="edge23" class="edge">
<title>d0&#45;&gt;d1</title>
<path fill="none" stroke="black" d="M925.72,-538C935.27,-538 979.17,-538 1000.78,-538"/>
<polygon fill="black" stroke="black" points="1001.01,-541.5 1011.01,-538 1001.01,-534.5 1001.01,-541.5"/>
<text text-anchor="middle" x="968.36" y="-544.8" font-family="Times,serif" font-size="14.00">Data flow</text>
</g>
<!-- d2 -->
<!-- d3 -->
<!-- d2&#45;&gt;d3 -->
<g id="edge24" class="edge">
<title>d2&#45;&gt;d3</title>
<path fill="none" stroke="black" stroke-dasharray="1,5" d="M799.67,-538C810.32,-538 865.33,-538 889.94,-538"/>
<polygon fill="black" stroke="black" points="890.01,-541.5 900.01,-538 890.01,-534.5 890.01,-541.5"/>
<text text-anchor="middle" x="849.86" y="-544.8" font-family="Times,serif" font-size="14.00">Declaration</text>
</g>
<!-- d4 -->
<!-- d5 -->
<!-- d4&#45;&gt;d5 -->
<g id="edge25" class="edge">
<title>d4&#45;&gt;d5</title>
<path fill="none" stroke="blue" d="M656.96,-538C669.58,-538 735.74,-538 763.54,-538"/>
<polygon fill="blue" stroke="blue" points="763.7,-541.5 773.7,-538 763.7,-534.5 763.7,-541.5"/>
<text text-anchor="middle" x="715.36" y="-544.8" font-family="Times,serif" font-size="14.00">PHI Data flow</text>
</g>
<!-- d6 -->
<!-- d7 -->
<!-- d6&#45;&gt;d7 -->
<g id="edge26" class="edge">
<title>d6&#45;&gt;d7</title>
<path fill="none" stroke="green" d="M519.86,-538C531.8,-538 594.16,-538 620.79,-538"/>
<polygon fill="green" stroke="green" points="620.81,-541.5 630.81,-538 620.81,-534.5 620.81,-541.5"/>
<text text-anchor="middle" x="575.36" y="-544.8" font-family="Times,serif" font-size="14.00">Memory flow</text>
</g>
</g>
</svg>
