<?xml version="1.0" encoding="UTF-8" standalone="no"?>
<!DOCTYPE svg PUBLIC "-//W3C//DTD SVG 1.1//EN"
 "http://www.w3.org/Graphics/SVG/1.1/DTD/svg11.dtd">
<!-- Generated by graphviz version 2.43.0 (0)
 -->
<!-- Title: %3 Pages: 1 -->
<svg width="1261pt" height="587pt"
 viewBox="0.00 0.00 1260.86 586.80" xmlns="http://www.w3.org/2000/svg" xmlns:xlink="http://www.w3.org/1999/xlink">
<g id="graph0" class="graph" transform="scale(1 1) rotate(0) translate(4 582.8)">
<title>%3</title>
<polygon fill="white" stroke="transparent" points="-4,4 -4,-582.8 1256.86,-582.8 1256.86,4 -4,4"/>
<g id="clust1" class="cluster">
<title>cluster_0</title>
<polygon fill="none" stroke="lightgray" points="329.86,-284 329.86,-409 465.86,-409 465.86,-284 329.86,-284"/>
</g>
<g id="clust2" class="cluster">
<title>cluster_1</title>
<polygon fill="none" stroke="lightgray" points="234.86,-138 234.86,-263 442.86,-263 442.86,-138 234.86,-138"/>
</g>
<g id="clust3" class="cluster">
<title>cluster_2</title>
<polygon fill="none" stroke="lightgray" points="185.86,-357 185.86,-482 321.86,-482 321.86,-357 185.86,-357"/>
</g>
<g id="clust4" class="cluster">
<title>cluster_000</title>
<polygon fill="none" stroke="black" points="391.86,-528.2 391.86,-570.8 1244.86,-570.8 1244.86,-528.2 391.86,-528.2"/>
<text text-anchor="middle" x="818.36" y="-555.6" font-family="Times,serif" font-size="14.00">Legend</text>
</g>
<!-- node0 -->
<g id="node1" class="node">
<title>node0</title>
<polygon fill="lightgrey" stroke="transparent" points="382.36,-565 259.36,-565 259.36,-511 382.36,-511 382.36,-565"/>
<polygon fill="none" stroke="black" points="259.86,-538 259.86,-565 382.86,-565 382.86,-538 259.86,-538"/>
<text text-anchor="start" x="280.86" y="-547.8" font-family="Times,serif" font-size="14.00">#0 Method</text>
<polygon fill="yellow" stroke="transparent" points="259.86,-511 259.86,-538 382.86,-538 382.86,-511 259.86,-511"/>
<polygon fill="none" stroke="black" points="259.86,-511 259.86,-538 382.86,-538 382.86,-511 259.86,-511"/>
<text text-anchor="start" x="265.86" y="-520.8" font-family="Times,serif" font-size="14.00">this : ArrayTest</text>
</g>
<!-- node2 -->
<g id="node2" class="node">
<title>node2</title>
<polygon fill="lightgrey" stroke="black" points="313.36,-474 194.36,-474 194.36,-438 313.36,-438 313.36,-474"/>
<text text-anchor="middle" x="253.86" y="-452.3" font-family="Times,serif" font-size="14.00">#2 LabelNode</text>
</g>
<!-- node0&#45;&gt;node2 -->
<g id="edge1" class="edge">
<title>node0&#45;&gt;node2</title>
<path fill="none" stroke="red" d="M298.92,-510.81C291.13,-501.5 282.39,-491.06 274.69,-481.87"/>
<polygon fill="red" stroke="red" points="277.35,-479.59 268.24,-474.17 271.98,-484.09 277.35,-479.59"/>
</g>
<!-- node5 -->
<g id="node4" class="node">
<title>node5</title>
<polygon fill="orange" stroke="black" points="296.15,-302.54 296.15,-317.46 219.83,-328 111.89,-328 35.57,-317.46 35.57,-302.54 111.89,-292 219.83,-292 296.15,-302.54"/>
<text text-anchor="middle" x="165.86" y="-306.3" font-family="Times,serif" font-size="14.00">#5 NewArray : Object[]</text>
</g>
<!-- node0&#45;&gt;node5 -->
<g id="edge4" class="edge">
<title>node0&#45;&gt;node5</title>
<path fill="none" stroke="green" d="M369.31,-510.96C428.78,-475.73 516.35,-411.05 469.86,-357 463.22,-349.28 356.33,-334.4 271.16,-323.65"/>
<polygon fill="green" stroke="green" points="271.51,-320.17 261.15,-322.39 270.64,-327.11 271.51,-320.17"/>
</g>
<!-- node7 -->
<g id="node7" class="node">
<title>node7</title>
<polygon fill="lightgrey" stroke="black" points="434.36,-255 243.36,-255 243.36,-219 434.36,-219 434.36,-255"/>
<text text-anchor="middle" x="338.86" y="-233.3" font-family="Times,serif" font-size="14.00">#7 ArrayStore : Object[]</text>
</g>
<!-- node0&#45;&gt;node7 -->
<g id="edge10" class="edge">
<title>node0:prj1&#45;&gt;node7</title>
<path fill="none" stroke="black" d="M383.86,-524C389.91,-524 383.76,-515.44 387.86,-511 431.98,-463.22 523.86,-522.03 523.86,-457 523.86,-457 523.86,-457 523.86,-309 523.86,-287.32 479.02,-269.78 433.49,-257.55"/>
<polygon fill="black" stroke="black" points="434.34,-254.16 423.78,-255.03 432.58,-260.93 434.34,-254.16"/>
<text text-anchor="middle" x="443.45" y="-247.71" font-family="Times,serif" font-size="14.00">*2</text>
</g>
<!-- node4 -->
<g id="node3" class="node">
<title>node4</title>
<polygon fill="lightgreen" stroke="black" points="312.05,-375.54 312.05,-390.46 277.38,-401 228.34,-401 193.67,-390.46 193.67,-375.54 228.34,-365 277.38,-365 312.05,-375.54"/>
<text text-anchor="middle" x="252.86" y="-379.3" font-family="Times,serif" font-size="14.00">#4 int 10</text>
</g>
<!-- node2&#45;&gt;node4 -->
<g id="edge2" class="edge">
<title>node2&#45;&gt;node4</title>
<path fill="none" stroke="black" stroke-dasharray="1,5" d="M253.62,-437.81C253.51,-429.79 253.37,-420.05 253.24,-411.07"/>
<polygon fill="black" stroke="black" points="256.74,-410.98 253.1,-401.03 249.74,-411.08 256.74,-410.98"/>
</g>
<!-- node3 -->
<g id="node9" class="node">
<title>node3</title>
<polygon fill="lightgrey" stroke="black" points="457.36,-401 338.36,-401 338.36,-365 457.36,-365 457.36,-401"/>
<text text-anchor="middle" x="397.86" y="-379.3" font-family="Times,serif" font-size="14.00">#3 LabelNode</text>
</g>
<!-- node2&#45;&gt;node3 -->
<g id="edge13" class="edge">
<title>node2&#45;&gt;node3</title>
<path fill="none" stroke="red" d="M288.35,-437.99C308.07,-428.27 332.99,-415.99 354.07,-405.59"/>
<polygon fill="red" stroke="red" points="355.73,-408.68 363.15,-401.11 352.63,-402.4 355.73,-408.68"/>
</g>
<!-- node4&#45;&gt;node5 -->
<g id="edge3" class="edge">
<title>node4&#45;&gt;node5</title>
<path fill="none" stroke="black" d="M231.8,-364.81C220.69,-355.74 206.88,-344.48 194.78,-334.6"/>
<polygon fill="black" stroke="black" points="196.69,-331.64 186.73,-328.03 192.26,-337.06 196.69,-331.64"/>
<text text-anchor="middle" x="206.11" y="-329.24" font-family="Times,serif" font-size="14.00">*0</text>
</g>
<!-- node11 -->
<g id="node5" class="node">
<title>node11</title>
<polygon fill="lightgrey" stroke="black" points="383.36,-109 198.36,-109 198.36,-73 383.36,-73 383.36,-109"/>
<text text-anchor="middle" x="290.86" y="-87.3" font-family="Times,serif" font-size="14.00">#11 ArrayLoad : Object</text>
</g>
<!-- node5&#45;&gt;node11 -->
<g id="edge5" class="edge">
<title>node5&#45;&gt;node11</title>
<path fill="none" stroke="black" d="M178.37,-291.74C184.01,-283.37 190.38,-272.99 194.86,-263 218.51,-210.25 198.29,-185.76 230.86,-138 236.74,-129.38 244.75,-121.68 253.01,-115.15"/>
<polygon fill="black" stroke="black" points="255.32,-117.8 261.28,-109.03 251.16,-112.17 255.32,-117.8"/>
<text text-anchor="middle" x="251.74" y="-122.91" font-family="Times,serif" font-size="14.00">*0</text>
</g>
<!-- node5&#45;&gt;node7 -->
<g id="edge8" class="edge">
<title>node5&#45;&gt;node7</title>
<path fill="none" stroke="black" d="M201.44,-291.99C224.6,-282.06 255.24,-269.43 281.74,-258.89"/>
<polygon fill="black" stroke="black" points="283.28,-262.05 291.29,-255.11 280.7,-255.54 283.28,-262.05"/>
<text text-anchor="middle" x="277.55" y="-265.94" font-family="Times,serif" font-size="14.00">*0</text>
</g>
<!-- node5&#45;&gt;node7 -->
<g id="edge11" class="edge">
<title>node5&#45;&gt;node7</title>
<path fill="none" stroke="green" d="M213.16,-291.99C238.21,-282.14 268.76,-269.66 293.51,-259.17"/>
<polygon fill="green" stroke="green" points="295.2,-262.25 303.03,-255.11 292.46,-255.81 295.2,-262.25"/>
</g>
<!-- node8 -->
<g id="node13" class="node">
<title>node8</title>
<polygon fill="orange" stroke="black" points="185.58,-229.54 185.58,-244.46 131.27,-255 54.45,-255 0.14,-244.46 0.14,-229.54 54.45,-219 131.27,-219 185.58,-229.54"/>
<text text-anchor="middle" x="92.86" y="-233.3" font-family="Times,serif" font-size="14.00">#8 ArrayLength</text>
</g>
<!-- node5&#45;&gt;node8 -->
<g id="edge20" class="edge">
<title>node5&#45;&gt;node8</title>
<path fill="none" stroke="black" d="M148.19,-291.81C139.04,-282.92 127.73,-271.91 117.71,-262.17"/>
<polygon fill="black" stroke="black" points="119.98,-259.49 110.37,-255.03 115.1,-264.51 119.98,-259.49"/>
<text text-anchor="middle" x="129.26" y="-257.91" font-family="Times,serif" font-size="14.00">*0</text>
</g>
<!-- node13 -->
<g id="node12" class="node">
<title>node13</title>
<polygon fill="lightgrey" stroke="black" points="561.36,-36 460.36,-36 460.36,0 561.36,0 561.36,-36"/>
<text text-anchor="middle" x="510.86" y="-14.3" font-family="Times,serif" font-size="14.00">#13 Return</text>
</g>
<!-- node11&#45;&gt;node13 -->
<g id="edge19" class="edge">
<title>node11&#45;&gt;node13</title>
<path fill="none" stroke="green" d="M343.56,-72.99C375.72,-62.61 416.95,-49.31 450.44,-38.5"/>
<polygon fill="green" stroke="green" points="451.67,-41.78 460.11,-35.38 449.52,-35.12 451.67,-41.78"/>
</g>
<!-- node10 -->
<g id="node6" class="node">
<title>node10</title>
<polygon fill="lightgreen" stroke="black" points="398.05,-156.54 398.05,-171.46 363.38,-182 314.34,-182 279.67,-171.46 279.67,-156.54 314.34,-146 363.38,-146 398.05,-156.54"/>
<text text-anchor="middle" x="338.86" y="-160.3" font-family="Times,serif" font-size="14.00">#10 int 1</text>
</g>
<!-- node10&#45;&gt;node11 -->
<g id="edge6" class="edge">
<title>node10&#45;&gt;node11</title>
<path fill="none" stroke="black" d="M327.24,-145.81C321.46,-137.27 314.37,-126.77 307.98,-117.32"/>
<polygon fill="black" stroke="black" points="310.87,-115.35 302.37,-109.03 305.07,-119.27 310.87,-115.35"/>
<text text-anchor="middle" x="319.53" y="-115.61" font-family="Times,serif" font-size="14.00">*1</text>
</g>
<!-- node7&#45;&gt;node11 -->
<g id="edge7" class="edge">
<title>node7&#45;&gt;node11</title>
<path fill="none" stroke="green" d="M306.2,-218.87C292.64,-209.88 278.33,-197.48 270.86,-182 261.08,-161.75 268.06,-136.61 276.35,-118.06"/>
<polygon fill="green" stroke="green" points="279.52,-119.54 280.72,-109.02 273.22,-116.5 279.52,-119.54"/>
</g>
<!-- node7&#45;&gt;node10 -->
<g id="edge15" class="edge">
<title>node7&#45;&gt;node10</title>
<path fill="none" stroke="black" stroke-dasharray="1,5" d="M338.86,-218.81C338.86,-210.79 338.86,-201.05 338.86,-192.07"/>
<polygon fill="black" stroke="black" points="342.36,-192.03 338.86,-182.03 335.36,-192.03 342.36,-192.03"/>
</g>
<!-- node9 -->
<g id="node10" class="node">
<title>node9</title>
<polygon fill="lightgrey" stroke="black" points="570.36,-182 451.36,-182 451.36,-146 570.36,-146 570.36,-182"/>
<text text-anchor="middle" x="510.86" y="-160.3" font-family="Times,serif" font-size="14.00">#9 LabelNode</text>
</g>
<!-- node7&#45;&gt;node9 -->
<g id="edge16" class="edge">
<title>node7&#45;&gt;node9</title>
<path fill="none" stroke="red" d="M380.06,-218.99C404.03,-209.1 434.44,-196.54 459.91,-186.03"/>
<polygon fill="red" stroke="red" points="461.49,-189.16 469.4,-182.11 458.82,-182.69 461.49,-189.16"/>
</g>
<!-- node6 -->
<g id="node8" class="node">
<title>node6</title>
<polygon fill="lightgreen" stroke="black" points="457.39,-302.54 457.39,-317.46 426.62,-328 383.1,-328 352.34,-317.46 352.34,-302.54 383.1,-292 426.62,-292 457.39,-302.54"/>
<text text-anchor="middle" x="404.86" y="-306.3" font-family="Times,serif" font-size="14.00">#6 int 0</text>
</g>
<!-- node6&#45;&gt;node7 -->
<g id="edge9" class="edge">
<title>node6&#45;&gt;node7</title>
<path fill="none" stroke="black" d="M388.88,-291.81C380.7,-283 370.58,-272.13 361.6,-262.46"/>
<polygon fill="black" stroke="black" points="364.06,-259.97 354.69,-255.03 358.94,-264.74 364.06,-259.97"/>
<text text-anchor="middle" x="373.22" y="-258.85" font-family="Times,serif" font-size="14.00">*1</text>
</g>
<!-- node3&#45;&gt;node7 -->
<g id="edge12" class="edge">
<title>node3&#45;&gt;node7</title>
<path fill="none" stroke="red" d="M373.32,-364.89C361.9,-355.45 349.4,-342.67 342.86,-328 334.07,-308.3 333.59,-283.7 335.02,-265.2"/>
<polygon fill="red" stroke="red" points="338.52,-265.4 336.03,-255.1 331.55,-264.7 338.52,-265.4"/>
</g>
<!-- node3&#45;&gt;node6 -->
<g id="edge14" class="edge">
<title>node3&#45;&gt;node6</title>
<path fill="none" stroke="black" stroke-dasharray="1,5" d="M399.56,-364.81C400.35,-356.79 401.31,-347.05 402.19,-338.07"/>
<polygon fill="black" stroke="black" points="405.68,-338.32 403.18,-328.03 398.72,-337.64 405.68,-338.32"/>
</g>
<!-- node12 -->
<g id="node11" class="node">
<title>node12</title>
<polygon fill="lightgrey" stroke="black" points="574.86,-109 446.86,-109 446.86,-73 574.86,-73 574.86,-109"/>
<text text-anchor="middle" x="510.86" y="-87.3" font-family="Times,serif" font-size="14.00">#12 LabelNode</text>
</g>
<!-- node9&#45;&gt;node12 -->
<g id="edge17" class="edge">
<title>node9&#45;&gt;node12</title>
<path fill="none" stroke="red" d="M510.86,-145.81C510.86,-137.79 510.86,-128.05 510.86,-119.07"/>
<polygon fill="red" stroke="red" points="514.36,-119.03 510.86,-109.03 507.36,-119.03 514.36,-119.03"/>
</g>
<!-- node12&#45;&gt;node13 -->
<g id="edge18" class="edge">
<title>node12&#45;&gt;node13</title>
<path fill="none" stroke="red" d="M510.86,-72.81C510.86,-64.79 510.86,-55.05 510.86,-46.07"/>
<polygon fill="red" stroke="red" points="514.36,-46.03 510.86,-36.03 507.36,-46.03 514.36,-46.03"/>
</g>
<!-- c0 -->
<!-- c1 -->
<!-- c0&#45;&gt;c1 -->
<g id="edge21" class="edge">
<title>c0&#45;&gt;c1</title>
<path fill="none" stroke="red" d="M1127.75,-538C1138.97,-538 1197.1,-538 1222.72,-538"/>
<polygon fill="red" stroke="red" points="1222.92,-541.5 1232.92,-538 1222.92,-534.5 1222.92,-541.5"/>
<text text-anchor="middle" x="1180.36" y="-544.8" font-family="Times,serif" font-size="14.00">Control flow</text>
</g>
<!-- c2 -->
<!-- c3 -->
<!-- c2&#45;&gt;c3 -->
<g id="edge22" class="edge">
<title>c2&#45;&gt;c3</title>
<path fill="none" stroke="red" stroke-dasharray="5,2" d="M920.94,-538C937.91,-538 1054.07,-538 1091.95,-538"/>
<polygon fill="red" stroke="red" points="1092.03,-541.5 1102.03,-538 1092.03,-534.5 1092.03,-541.5"/>
<text text-anchor="middle" x="1011.36" y="-544.8" font-family="Times,serif" font-size="14.00">Control flow back edge</text>
</g>
<!-- d0 -->
<!-- d1 -->
<!-- d0&#45;&gt;d1 -->
<g id="edge23" class="edge">
<title>d0&#45;&gt;d1</title>
<path fill="none" stroke="black" d="M809.72,-538C819.27,-538 863.17,-538 884.78,-538"/>
<polygon fill="black" stroke="black" points="885.01,-541.5 895.01,-538 885.01,-534.5 885.01,-541.5"/>
<text text-anchor="middle" x="852.36" y="-544.8" font-family="Times,serif" font-size="14.00">Data flow</text>
</g>
<!-- d2 -->
<!-- d3 -->
<!-- d2&#45;&gt;d3 -->
<g id="edge24" class="edge">
<title>d2&#45;&gt;d3</title>
<path fill="none" stroke="black" stroke-dasharray="1,5" d="M683.67,-538C694.32,-538 749.33,-538 773.94,-538"/>
<polygon fill="black" stroke="black" points="774.01,-541.5 784.01,-538 774.01,-534.5 774.01,-541.5"/>
<text text-anchor="middle" x="733.86" y="-544.8" font-family="Times,serif" font-size="14.00">Declaration</text>
</g>
<!-- d4 -->
<!-- d5 -->
<!-- d4&#45;&gt;d5 -->
<g id="edge25" class="edge">
<title>d4&#45;&gt;d5</title>
<path fill="none" stroke="blue" d="M540.96,-538C553.58,-538 619.74,-538 647.54,-538"/>
<polygon fill="blue" stroke="blue" points="647.7,-541.5 657.7,-538 647.7,-534.5 647.7,-541.5"/>
<text text-anchor="middle" x="599.36" y="-544.8" font-family="Times,serif" font-size="14.00">PHI Data flow</text>
</g>
<!-- d6 -->
<!-- d7 -->
<!-- d6&#45;&gt;d7 -->
<g id="edge26" class="edge">
<title>d6&#45;&gt;d7</title>
<path fill="none" stroke="green" d="M403.86,-538C415.8,-538 478.16,-538 504.79,-538"/>
<polygon fill="green" stroke="green" points="504.81,-541.5 514.81,-538 504.81,-534.5 504.81,-541.5"/>
<text text-anchor="middle" x="459.36" y="-544.8" font-family="Times,serif" font-size="14.00">Memory flow</text>
</g>
</g>
</svg>
