<?xml version="1.0" encoding="UTF-8" standalone="no"?>
<!DOCTYPE svg PUBLIC "-//W3C//DTD SVG 1.1//EN"
 "http://www.w3.org/Graphics/SVG/1.1/DTD/svg11.dtd">
<!-- Generated by graphviz version 2.43.0 (0)
 -->
<!-- Title: %3 Pages: 1 -->
<svg width="1438pt" height="589pt"
 viewBox="0.00 0.00 1437.89 589.00" xmlns="http://www.w3.org/2000/svg" xmlns:xlink="http://www.w3.org/1999/xlink">
<g id="graph0" class="graph" transform="scale(1 1) rotate(0) translate(4 585)">
<title>%3</title>
<polygon fill="white" stroke="transparent" points="-4,4 -4,-585 1433.89,-585 1433.89,4 -4,4"/>
<g id="clust1" class="cluster">
<title>cluster_0</title>
<polygon fill="none" stroke="lightgray" points="166.89,-430 166.89,-573 560.89,-573 560.89,-430 166.89,-430"/>
</g>
<g id="clust2" class="cluster">
<title>cluster_000</title>
<polygon fill="none" stroke="black" points="568.89,-528.2 568.89,-570.8 1421.89,-570.8 1421.89,-528.2 568.89,-528.2"/>
<text text-anchor="middle" x="995.39" y="-555.6" font-family="Times,serif" font-size="14.00">Legend</text>
</g>
<!-- node0 -->
<g id="node1" class="node">
<title>node0</title>
<polygon fill="lightgrey" stroke="transparent" points="298.39,-565 175.39,-565 175.39,-511 298.39,-511 298.39,-565"/>
<polygon fill="none" stroke="black" points="175.89,-538 175.89,-565 298.89,-565 298.89,-538 175.89,-538"/>
<text text-anchor="start" x="196.89" y="-547.8" font-family="Times,serif" font-size="14.00">#0 Method</text>
<polygon fill="yellow" stroke="transparent" points="175.89,-511 175.89,-538 298.89,-538 298.89,-511 175.89,-511"/>
<polygon fill="none" stroke="black" points="175.89,-511 175.89,-538 298.89,-538 298.89,-511 175.89,-511"/>
<text text-anchor="start" x="181.89" y="-520.8" font-family="Times,serif" font-size="14.00">this : ArrayTest</text>
</g>
<!-- node4 -->
<g id="node2" class="node">
<title>node4</title>
<polygon fill="orange" stroke="black" points="474.19,-375.54 474.19,-390.46 397.86,-401 289.93,-401 213.6,-390.46 213.6,-375.54 289.93,-365 397.86,-365 474.19,-375.54"/>
<text text-anchor="middle" x="343.89" y="-379.3" font-family="Times,serif" font-size="14.00">#4 NewArray : Object[]</text>
</g>
<!-- node0&#45;&gt;node4 -->
<g id="edge2" class="edge">
<title>node0&#45;&gt;node4</title>
<path fill="none" stroke="green" d="M175.29,-528.08C98.32,-514.45 -17.92,-484.14 28.89,-430 35.85,-421.96 148.17,-406.98 236.73,-396.29"/>
<polygon fill="green" stroke="green" points="237.34,-399.74 246.86,-395.08 236.51,-392.79 237.34,-399.74"/>
</g>
<!-- node13 -->
<g id="node3" class="node">
<title>node13</title>
<polygon fill="lightgreen" stroke="black" points="429.24,-448.54 429.24,-463.46 390.96,-474 336.83,-474 298.55,-463.46 298.55,-448.54 336.83,-438 390.96,-438 429.24,-448.54"/>
<text text-anchor="middle" x="363.89" y="-452.3" font-family="Times,serif" font-size="14.00">#13 int 10</text>
</g>
<!-- node0&#45;&gt;node13 -->
<g id="edge3" class="edge">
<title>node0&#45;&gt;node13</title>
<path fill="none" stroke="black" stroke-dasharray="1,5" d="M278.48,-510.81C294.44,-500.75 312.52,-489.37 327.91,-479.67"/>
<polygon fill="black" stroke="black" points="330.04,-482.47 336.63,-474.17 326.3,-476.54 330.04,-482.47"/>
</g>
<!-- node8 -->
<g id="node6" class="node">
<title>node8</title>
<polygon fill="lightgreen" stroke="black" points="552.42,-448.54 552.42,-463.46 521.65,-474 478.14,-474 447.37,-463.46 447.37,-448.54 478.14,-438 521.65,-438 552.42,-448.54"/>
<text text-anchor="middle" x="499.89" y="-452.3" font-family="Times,serif" font-size="14.00">#8 int 1</text>
</g>
<!-- node0&#45;&gt;node8 -->
<g id="edge17" class="edge">
<title>node0&#45;&gt;node8</title>
<path fill="none" stroke="black" stroke-dasharray="1,5" d="M298.56,-518.24C345.46,-503.98 409.07,-484.63 452.14,-471.53"/>
<polygon fill="black" stroke="black" points="453.27,-474.84 461.81,-468.58 451.23,-468.15 453.27,-474.84"/>
</g>
<!-- node7 -->
<g id="node7" class="node">
<title>node7</title>
<polygon fill="lightgrey" stroke="black" points="231.39,-328 40.39,-328 40.39,-292 231.39,-292 231.39,-328"/>
<text text-anchor="middle" x="135.89" y="-306.3" font-family="Times,serif" font-size="14.00">#7 ArrayStore : Object[]</text>
</g>
<!-- node0&#45;&gt;node7 -->
<g id="edge11" class="edge">
<title>node0:prj1&#45;&gt;node7</title>
<path fill="none" stroke="black" d="M174.89,-524C137.64,-524 33.75,-506.13 14.89,-474 -9.82,-431.87 -0.97,-403.65 28.89,-365 39.69,-351.03 55.08,-340.39 70.84,-332.4"/>
<polygon fill="black" stroke="black" points="72.59,-335.45 80.13,-328 69.59,-329.12 72.59,-335.45"/>
<text text-anchor="middle" x="67.36" y="-339.7" font-family="Times,serif" font-size="14.00">*2</text>
</g>
<!-- node6 -->
<g id="node8" class="node">
<title>node6</title>
<polygon fill="lightgreen" stroke="black" points="280.42,-448.54 280.42,-463.46 249.65,-474 206.14,-474 175.37,-463.46 175.37,-448.54 206.14,-438 249.65,-438 280.42,-448.54"/>
<text text-anchor="middle" x="227.89" y="-452.3" font-family="Times,serif" font-size="14.00">#6 int 0</text>
</g>
<!-- node0&#45;&gt;node6 -->
<g id="edge16" class="edge">
<title>node0&#45;&gt;node6</title>
<path fill="none" stroke="black" stroke-dasharray="1,5" d="M233.95,-510.81C232.99,-502.25 231.92,-492.74 230.95,-484.12"/>
<polygon fill="black" stroke="black" points="234.42,-483.72 229.83,-474.17 227.47,-484.5 234.42,-483.72"/>
</g>
<!-- node2 -->
<g id="node10" class="node">
<title>node2</title>
<polygon fill="lightgrey" stroke="black" points="157.39,-474 38.39,-474 38.39,-438 157.39,-438 157.39,-474"/>
<text text-anchor="middle" x="97.89" y="-452.3" font-family="Times,serif" font-size="14.00">#2 LabelNode</text>
</g>
<!-- node0&#45;&gt;node2 -->
<g id="edge15" class="edge">
<title>node0&#45;&gt;node2</title>
<path fill="none" stroke="red" d="M191.38,-510.81C173.74,-500.65 153.76,-489.15 136.81,-479.4"/>
<polygon fill="red" stroke="red" points="138.15,-476.13 127.74,-474.17 134.66,-482.2 138.15,-476.13"/>
</g>
<!-- node5 -->
<g id="node4" class="node">
<title>node5</title>
<polygon fill="orange" stroke="black" points="473.62,-302.54 473.62,-317.46 419.3,-328 342.49,-328 288.17,-317.46 288.17,-302.54 342.49,-292 419.3,-292 473.62,-302.54"/>
<text text-anchor="middle" x="380.89" y="-306.3" font-family="Times,serif" font-size="14.00">#5 ArrayLength</text>
</g>
<!-- node4&#45;&gt;node5 -->
<g id="edge4" class="edge">
<title>node4&#45;&gt;node5</title>
<path fill="none" stroke="black" d="M352.85,-364.81C357.21,-356.44 362.55,-346.2 367.4,-336.9"/>
<polygon fill="black" stroke="black" points="370.5,-338.51 372.02,-328.03 364.3,-335.28 370.5,-338.51"/>
<text text-anchor="middle" x="371.14" y="-344.31" font-family="Times,serif" font-size="14.00">*0</text>
</g>
<!-- node9 -->
<g id="node5" class="node">
<title>node9</title>
<polygon fill="lightgrey" stroke="black" points="347.89,-255 171.89,-255 171.89,-219 347.89,-219 347.89,-255"/>
<text text-anchor="middle" x="259.89" y="-233.3" font-family="Times,serif" font-size="14.00">#9 ArrayLoad : Object</text>
</g>
<!-- node4&#45;&gt;node9 -->
<g id="edge5" class="edge">
<title>node4&#45;&gt;node9</title>
<path fill="none" stroke="black" d="M315.39,-364.76C302.35,-355.45 287.84,-342.82 278.89,-328 267.39,-308.94 262.79,-283.94 260.97,-265.14"/>
<polygon fill="black" stroke="black" points="264.46,-264.84 260.21,-255.13 257.48,-265.37 264.46,-264.84"/>
<text text-anchor="middle" x="270.01" y="-268.87" font-family="Times,serif" font-size="14.00">*0</text>
</g>
<!-- node4&#45;&gt;node7 -->
<g id="edge9" class="edge">
<title>node4&#45;&gt;node7</title>
<path fill="none" stroke="black" d="M288.49,-365.08C257.81,-354.98 219.91,-342.08 189.52,-331.41"/>
<polygon fill="black" stroke="black" points="190.53,-328.06 179.93,-328.03 188.2,-334.66 190.53,-328.06"/>
<text text-anchor="middle" x="199.84" y="-322.39" font-family="Times,serif" font-size="14.00">*0</text>
</g>
<!-- node4&#45;&gt;node7 -->
<g id="edge12" class="edge">
<title>node4&#45;&gt;node7</title>
<path fill="none" stroke="green" d="M299.93,-364.99C271.38,-354.88 233.72,-341.99 201.66,-331.34"/>
<polygon fill="green" stroke="green" points="202.49,-327.93 191.9,-328.11 200.3,-334.58 202.49,-327.93"/>
</g>
<!-- node13&#45;&gt;node4 -->
<g id="edge1" class="edge">
<title>node13&#45;&gt;node4</title>
<path fill="none" stroke="black" d="M359.05,-437.81C356.77,-429.7 353.99,-419.84 351.44,-410.78"/>
<polygon fill="black" stroke="black" points="354.77,-409.71 348.69,-401.03 348.03,-411.6 354.77,-409.71"/>
<text text-anchor="middle" x="361.74" y="-412.48" font-family="Times,serif" font-size="14.00">*0</text>
</g>
<!-- node10 -->
<g id="node11" class="node">
<title>node10</title>
<polygon fill="lightgrey" stroke="black" points="323.89,-182 195.89,-182 195.89,-146 323.89,-146 323.89,-182"/>
<text text-anchor="middle" x="259.89" y="-160.3" font-family="Times,serif" font-size="14.00">#10 LabelNode</text>
</g>
<!-- node9&#45;&gt;node10 -->
<g id="edge18" class="edge">
<title>node9&#45;&gt;node10</title>
<path fill="none" stroke="red" d="M259.89,-218.81C259.89,-210.79 259.89,-201.05 259.89,-192.07"/>
<polygon fill="red" stroke="red" points="263.4,-192.03 259.89,-182.03 256.4,-192.03 263.4,-192.03"/>
</g>
<!-- node12 -->
<g id="node13" class="node">
<title>node12</title>
<polygon fill="lightgrey" stroke="black" points="310.39,-36 209.39,-36 209.39,0 310.39,0 310.39,-36"/>
<text text-anchor="middle" x="259.89" y="-14.3" font-family="Times,serif" font-size="14.00">#12 Return</text>
</g>
<!-- node9&#45;&gt;node12 -->
<g id="edge21" class="edge">
<title>node9&#45;&gt;node12</title>
<path fill="none" stroke="green" d="M295.66,-218.93C309.98,-210.07 324.95,-197.77 332.89,-182 354.7,-138.74 354.7,-116.26 332.89,-73 326.5,-60.31 315.56,-49.87 304.07,-41.66"/>
<polygon fill="green" stroke="green" points="305.93,-38.69 295.66,-36.07 302.05,-44.52 305.93,-38.69"/>
</g>
<!-- node8&#45;&gt;node9 -->
<g id="edge6" class="edge">
<title>node8&#45;&gt;node9</title>
<path fill="none" stroke="black" d="M503.88,-437.75C510.35,-404.99 519.04,-333.34 482.89,-292 466.02,-272.7 409.75,-259.16 357.96,-250.46"/>
<polygon fill="black" stroke="black" points="358.44,-247 348.01,-248.84 357.32,-253.91 358.44,-247"/>
<text text-anchor="middle" x="367.26" y="-239.72" font-family="Times,serif" font-size="14.00">*1</text>
</g>
<!-- node7&#45;&gt;node9 -->
<g id="edge7" class="edge">
<title>node7&#45;&gt;node9</title>
<path fill="none" stroke="green" d="M159.74,-291.99C175.47,-282.4 196.43,-270.32 215.16,-260.01"/>
<polygon fill="green" stroke="green" points="217.03,-262.97 224.14,-255.11 213.68,-256.83 217.03,-262.97"/>
</g>
<!-- node7&#45;&gt;node9 -->
<g id="edge8" class="edge">
<title>node7&#45;&gt;node9</title>
<path fill="none" stroke="red" d="M171.46,-291.99C189.06,-282.49 210.09,-270.54 227.28,-260.29"/>
<polygon fill="red" stroke="red" points="229.12,-263.27 235.88,-255.11 225.5,-257.27 229.12,-263.27"/>
</g>
<!-- node6&#45;&gt;node7 -->
<g id="edge10" class="edge">
<title>node6&#45;&gt;node7</title>
<path fill="none" stroke="black" d="M216.98,-437.92C200.93,-412.8 170.86,-365.73 152.2,-336.51"/>
<polygon fill="black" stroke="black" points="155.13,-334.6 146.8,-328.06 149.23,-338.37 155.13,-334.6"/>
<text text-anchor="middle" x="163.68" y="-335.09" font-family="Times,serif" font-size="14.00">*1</text>
</g>
<!-- node3 -->
<g id="node9" class="node">
<title>node3</title>
<polygon fill="lightgrey" stroke="black" points="157.39,-401 38.39,-401 38.39,-365 157.39,-365 157.39,-401"/>
<text text-anchor="middle" x="97.89" y="-379.3" font-family="Times,serif" font-size="14.00">#3 LabelNode</text>
</g>
<!-- node3&#45;&gt;node7 -->
<g id="edge13" class="edge">
<title>node3&#45;&gt;node7</title>
<path fill="none" stroke="red" d="M107.09,-364.81C111.57,-356.44 117.06,-346.2 122.03,-336.9"/>
<polygon fill="red" stroke="red" points="125.15,-338.5 126.78,-328.03 118.98,-335.19 125.15,-338.5"/>
</g>
<!-- node2&#45;&gt;node3 -->
<g id="edge14" class="edge">
<title>node2&#45;&gt;node3</title>
<path fill="none" stroke="red" d="M97.89,-437.81C97.89,-429.79 97.89,-420.05 97.89,-411.07"/>
<polygon fill="red" stroke="red" points="101.4,-411.03 97.89,-401.03 94.4,-411.03 101.4,-411.03"/>
</g>
<!-- node11 -->
<g id="node12" class="node">
<title>node11</title>
<polygon fill="lightgrey" stroke="black" points="323.89,-109 195.89,-109 195.89,-73 323.89,-73 323.89,-109"/>
<text text-anchor="middle" x="259.89" y="-87.3" font-family="Times,serif" font-size="14.00">#11 LabelNode</text>
</g>
<!-- node10&#45;&gt;node11 -->
<g id="edge19" class="edge">
<title>node10&#45;&gt;node11</title>
<path fill="none" stroke="red" d="M259.89,-145.81C259.89,-137.79 259.89,-128.05 259.89,-119.07"/>
<polygon fill="red" stroke="red" points="263.4,-119.03 259.89,-109.03 256.4,-119.03 263.4,-119.03"/>
</g>
<!-- node11&#45;&gt;node12 -->
<g id="edge20" class="edge">
<title>node11&#45;&gt;node12</title>
<path fill="none" stroke="red" d="M259.89,-72.81C259.89,-64.79 259.89,-55.05 259.89,-46.07"/>
<polygon fill="red" stroke="red" points="263.4,-46.03 259.89,-36.03 256.4,-46.03 263.4,-46.03"/>
</g>
<!-- c0 -->
<!-- c1 -->
<!-- c0&#45;&gt;c1 -->
<g id="edge22" class="edge">
<title>c0&#45;&gt;c1</title>
<path fill="none" stroke="red" d="M1304.79,-538C1316,-538 1374.14,-538 1399.75,-538"/>
<polygon fill="red" stroke="red" points="1399.95,-541.5 1409.95,-538 1399.95,-534.5 1399.95,-541.5"/>
<text text-anchor="middle" x="1357.39" y="-544.8" font-family="Times,serif" font-size="14.00">Control flow</text>
</g>
<!-- c2 -->
<!-- c3 -->
<!-- c2&#45;&gt;c3 -->
<g id="edge23" class="edge">
<title>c2&#45;&gt;c3</title>
<path fill="none" stroke="red" stroke-dasharray="5,2" d="M1097.97,-538C1114.94,-538 1231.1,-538 1268.98,-538"/>
<polygon fill="red" stroke="red" points="1269.06,-541.5 1279.06,-538 1269.06,-534.5 1269.06,-541.5"/>
<text text-anchor="middle" x="1188.39" y="-544.8" font-family="Times,serif" font-size="14.00">Control flow back edge</text>
</g>
<!-- d0 -->
<!-- d1 -->
<!-- d0&#45;&gt;d1 -->
<g id="edge24" class="edge">
<title>d0&#45;&gt;d1</title>
<path fill="none" stroke="black" d="M986.75,-538C996.3,-538 1040.2,-538 1061.81,-538"/>
<polygon fill="black" stroke="black" points="1062.05,-541.5 1072.05,-538 1062.05,-534.5 1062.05,-541.5"/>
<text text-anchor="middle" x="1029.39" y="-544.8" font-family="Times,serif" font-size="14.00">Data flow</text>
</g>
<!-- d2 -->
<!-- d3 -->
<!-- d2&#45;&gt;d3 -->
<g id="edge25" class="edge">
<title>d2&#45;&gt;d3</title>
<path fill="none" stroke="black" stroke-dasharray="1,5" d="M860.7,-538C871.35,-538 926.36,-538 950.97,-538"/>
<polygon fill="black" stroke="black" points="951.04,-541.5 961.04,-538 951.04,-534.5 951.04,-541.5"/>
<text text-anchor="middle" x="910.89" y="-544.8" font-family="Times,serif" font-size="14.00">Declaration</text>
</g>
<!-- d4 -->
<!-- d5 -->
<!-- d4&#45;&gt;d5 -->
<g id="edge26" class="edge">
<title>d4&#45;&gt;d5</title>
<path fill="none" stroke="blue" d="M718,-538C730.62,-538 796.78,-538 824.57,-538"/>
<polygon fill="blue" stroke="blue" points="824.74,-541.5 834.74,-538 824.74,-534.5 824.74,-541.5"/>
<text text-anchor="middle" x="776.39" y="-544.8" font-family="Times,serif" font-size="14.00">PHI Data flow</text>
</g>
<!-- d6 -->
<!-- d7 -->
<!-- d6&#45;&gt;d7 -->
<g id="edge27" class="edge">
<title>d6&#45;&gt;d7</title>
<path fill="none" stroke="green" d="M580.89,-538C592.83,-538 655.19,-538 681.82,-538"/>
<polygon fill="green" stroke="green" points="681.84,-541.5 691.84,-538 681.84,-534.5 681.84,-541.5"/>
<text text-anchor="middle" x="636.39" y="-544.8" font-family="Times,serif" font-size="14.00">Memory flow</text>
</g>
</g>
</svg>
