<?xml version="1.0" encoding="UTF-8" standalone="no"?>
<!DOCTYPE svg PUBLIC "-//W3C//DTD SVG 1.1//EN"
 "http://www.w3.org/Graphics/SVG/1.1/DTD/svg11.dtd">
<!-- Generated by graphviz version 2.43.0 (0)
 -->
<!-- Title: %3 Pages: 1 -->
<svg width="1396pt" height="587pt"
 viewBox="0.00 0.00 1395.86 586.80" xmlns="http://www.w3.org/2000/svg" xmlns:xlink="http://www.w3.org/1999/xlink">
<g id="graph0" class="graph" transform="scale(1 1) rotate(0) translate(4 582.8)">
<title>%3</title>
<polygon fill="white" stroke="transparent" points="-4,4 -4,-582.8 1391.86,-582.8 1391.86,4 -4,4"/>
<g id="clust1" class="cluster">
<title>cluster_0</title>
<polygon fill="none" stroke="lightgray" points="192.86,-357 192.86,-482 328.86,-482 328.86,-357 192.86,-357"/>
</g>
<g id="clust2" class="cluster">
<title>cluster_1</title>
<polygon fill="none" stroke="lightgray" points="234.86,-138 234.86,-263 442.86,-263 442.86,-138 234.86,-138"/>
</g>
<g id="clust3" class="cluster">
<title>cluster_2</title>
<polygon fill="none" stroke="lightgray" points="366.86,-284 366.86,-409 502.86,-409 502.86,-284 366.86,-284"/>
</g>
<g id="clust4" class="cluster">
<title>cluster_000</title>
<polygon fill="none" stroke="black" points="526.86,-528.2 526.86,-570.8 1379.86,-570.8 1379.86,-528.2 526.86,-528.2"/>
<text text-anchor="middle" x="953.36" y="-555.6" font-family="Times,serif" font-size="14.00">Legend</text>
</g>
<!-- node0 -->
<g id="node1" class="node">
<title>node0</title>
<polygon fill="lightgrey" stroke="transparent" points="517.36,-565 394.36,-565 394.36,-511 517.36,-511 517.36,-565"/>
<polygon fill="none" stroke="black" points="394.86,-538 394.86,-565 517.86,-565 517.86,-538 394.86,-538"/>
<text text-anchor="start" x="415.86" y="-547.8" font-family="Times,serif" font-size="14.00">#0 Method</text>
<polygon fill="yellow" stroke="transparent" points="394.86,-511 394.86,-538 517.86,-538 517.86,-511 394.86,-511"/>
<polygon fill="none" stroke="black" points="394.86,-511 394.86,-538 517.86,-538 517.86,-511 394.86,-511"/>
<text text-anchor="start" x="400.86" y="-520.8" font-family="Times,serif" font-size="14.00">this : ArrayTest</text>
</g>
<!-- node5 -->
<g id="node2" class="node">
<title>node5</title>
<polygon fill="orange" stroke="black" points="296.15,-302.54 296.15,-317.46 219.83,-328 111.89,-328 35.57,-317.46 35.57,-302.54 111.89,-292 219.83,-292 296.15,-302.54"/>
<text text-anchor="middle" x="165.86" y="-306.3" font-family="Times,serif" font-size="14.00">#5 NewArray : Object[]</text>
</g>
<!-- node0&#45;&gt;node5 -->
<g id="edge2" class="edge">
<title>node0&#45;&gt;node5</title>
<path fill="none" stroke="green" d="M394.31,-533.11C323.68,-527.21 214.28,-513.18 188.86,-482 111.88,-387.55 287.05,-464.96 332.86,-409 347.5,-391.12 346.87,-375.38 332.86,-357 322.95,-343.99 291.32,-333.73 258.21,-326.24"/>
<polygon fill="green" stroke="green" points="258.89,-322.8 248.38,-324.1 257.41,-329.64 258.89,-322.8"/>
</g>
<!-- node2 -->
<g id="node4" class="node">
<title>node2</title>
<polygon fill="lightgrey" stroke="black" points="320.36,-474 201.36,-474 201.36,-438 320.36,-438 320.36,-474"/>
<text text-anchor="middle" x="260.86" y="-452.3" font-family="Times,serif" font-size="14.00">#2 LabelNode</text>
</g>
<!-- node0&#45;&gt;node2 -->
<g id="edge4" class="edge">
<title>node0&#45;&gt;node2</title>
<path fill="none" stroke="red" d="M394.16,-511.69C367.65,-500.81 337.03,-488.25 311.83,-477.91"/>
<polygon fill="red" stroke="red" points="313.03,-474.62 302.45,-474.06 310.38,-481.1 313.03,-474.62"/>
</g>
<!-- node7 -->
<g id="node7" class="node">
<title>node7</title>
<polygon fill="lightgrey" stroke="black" points="434.36,-255 243.36,-255 243.36,-219 434.36,-219 434.36,-255"/>
<text text-anchor="middle" x="338.86" y="-233.3" font-family="Times,serif" font-size="14.00">#7 ArrayStore : Object[]</text>
</g>
<!-- node0&#45;&gt;node7 -->
<g id="edge9" class="edge">
<title>node0:prj1&#45;&gt;node7</title>
<path fill="none" stroke="black" d="M518.86,-524C522.59,-524 522.86,-460.73 522.86,-457 522.86,-457 522.86,-457 522.86,-309 522.86,-295.81 517.49,-291.82 506.86,-284 488.51,-270.5 466.4,-260.96 444.35,-254.22"/>
<polygon fill="black" stroke="black" points="445.15,-250.8 434.57,-251.4 443.22,-257.53 445.15,-250.8"/>
<text text-anchor="middle" x="454.33" y="-244.59" font-family="Times,serif" font-size="14.00">*2</text>
</g>
<!-- node5&#45;&gt;node7 -->
<g id="edge7" class="edge">
<title>node5&#45;&gt;node7</title>
<path fill="none" stroke="black" d="M201.44,-291.99C224.6,-282.06 255.24,-269.43 281.74,-258.89"/>
<polygon fill="black" stroke="black" points="283.28,-262.05 291.29,-255.11 280.7,-255.54 283.28,-262.05"/>
<text text-anchor="middle" x="277.55" y="-265.94" font-family="Times,serif" font-size="14.00">*0</text>
</g>
<!-- node5&#45;&gt;node7 -->
<g id="edge10" class="edge">
<title>node5&#45;&gt;node7</title>
<path fill="none" stroke="green" d="M213.16,-291.99C238.21,-282.14 268.76,-269.66 293.51,-259.17"/>
<polygon fill="green" stroke="green" points="295.2,-262.25 303.03,-255.11 292.46,-255.81 295.2,-262.25"/>
</g>
<!-- node11 -->
<g id="node9" class="node">
<title>node11</title>
<polygon fill="lightgrey" stroke="black" points="383.36,-109 198.36,-109 198.36,-73 383.36,-73 383.36,-109"/>
<text text-anchor="middle" x="290.86" y="-87.3" font-family="Times,serif" font-size="14.00">#11 ArrayLoad : Object</text>
</g>
<!-- node5&#45;&gt;node11 -->
<g id="edge13" class="edge">
<title>node5&#45;&gt;node11</title>
<path fill="none" stroke="black" d="M178.37,-291.74C184.01,-283.37 190.38,-272.99 194.86,-263 218.51,-210.25 198.29,-185.76 230.86,-138 236.74,-129.38 244.75,-121.68 253.01,-115.15"/>
<polygon fill="black" stroke="black" points="255.32,-117.8 261.28,-109.03 251.16,-112.17 255.32,-117.8"/>
<text text-anchor="middle" x="251.74" y="-122.91" font-family="Times,serif" font-size="14.00">*0</text>
</g>
<!-- node8 -->
<g id="node13" class="node">
<title>node8</title>
<polygon fill="orange" stroke="black" points="185.58,-229.54 185.58,-244.46 131.27,-255 54.45,-255 0.14,-244.46 0.14,-229.54 54.45,-219 131.27,-219 185.58,-229.54"/>
<text text-anchor="middle" x="92.86" y="-233.3" font-family="Times,serif" font-size="14.00">#8 ArrayLength</text>
</g>
<!-- node5&#45;&gt;node8 -->
<g id="edge20" class="edge">
<title>node5&#45;&gt;node8</title>
<path fill="none" stroke="black" d="M148.19,-291.81C139.04,-282.92 127.73,-271.91 117.71,-262.17"/>
<polygon fill="black" stroke="black" points="119.98,-259.49 110.37,-255.03 115.1,-264.51 119.98,-259.49"/>
<text text-anchor="middle" x="129.26" y="-257.91" font-family="Times,serif" font-size="14.00">*0</text>
</g>
<!-- node4 -->
<g id="node3" class="node">
<title>node4</title>
<polygon fill="lightgreen" stroke="black" points="319.05,-375.54 319.05,-390.46 284.38,-401 235.34,-401 200.67,-390.46 200.67,-375.54 235.34,-365 284.38,-365 319.05,-375.54"/>
<text text-anchor="middle" x="259.86" y="-379.3" font-family="Times,serif" font-size="14.00">#4 int 10</text>
</g>
<!-- node4&#45;&gt;node5 -->
<g id="edge1" class="edge">
<title>node4&#45;&gt;node5</title>
<path fill="none" stroke="black" d="M237.11,-364.81C224.98,-355.66 209.9,-344.26 196.73,-334.32"/>
<polygon fill="black" stroke="black" points="198.5,-331.26 188.41,-328.03 194.28,-336.85 198.5,-331.26"/>
<text text-anchor="middle" x="207.96" y="-328.51" font-family="Times,serif" font-size="14.00">*0</text>
</g>
<!-- node2&#45;&gt;node4 -->
<g id="edge3" class="edge">
<title>node2&#45;&gt;node4</title>
<path fill="none" stroke="black" stroke-dasharray="1,5" d="M260.62,-437.81C260.51,-429.79 260.37,-420.05 260.24,-411.07"/>
<polygon fill="black" stroke="black" points="263.74,-410.98 260.1,-401.03 256.74,-411.08 263.74,-410.98"/>
</g>
<!-- node3 -->
<g id="node5" class="node">
<title>node3</title>
<polygon fill="lightgrey" stroke="black" points="494.36,-401 375.36,-401 375.36,-365 494.36,-365 494.36,-401"/>
<text text-anchor="middle" x="434.86" y="-379.3" font-family="Times,serif" font-size="14.00">#3 LabelNode</text>
</g>
<!-- node2&#45;&gt;node3 -->
<g id="edge5" class="edge">
<title>node2&#45;&gt;node3</title>
<path fill="none" stroke="red" d="M320.37,-440.3C338.85,-434.87 359.03,-428.05 376.86,-420 385.26,-416.21 393.9,-411.4 401.87,-406.54"/>
<polygon fill="red" stroke="red" points="403.94,-409.38 410.53,-401.08 400.21,-403.45 403.94,-409.38"/>
</g>
<!-- node6 -->
<g id="node6" class="node">
<title>node6</title>
<polygon fill="lightgreen" stroke="black" points="483.39,-302.54 483.39,-317.46 452.62,-328 409.1,-328 378.34,-317.46 378.34,-302.54 409.1,-292 452.62,-292 483.39,-302.54"/>
<text text-anchor="middle" x="430.86" y="-306.3" font-family="Times,serif" font-size="14.00">#6 int 0</text>
</g>
<!-- node3&#45;&gt;node6 -->
<g id="edge6" class="edge">
<title>node3&#45;&gt;node6</title>
<path fill="none" stroke="black" stroke-dasharray="1,5" d="M433.89,-364.81C433.44,-356.79 432.89,-347.05 432.39,-338.07"/>
<polygon fill="black" stroke="black" points="435.88,-337.82 431.82,-328.03 428.89,-338.21 435.88,-337.82"/>
</g>
<!-- node3&#45;&gt;node7 -->
<g id="edge11" class="edge">
<title>node3&#45;&gt;node7</title>
<path fill="none" stroke="red" d="M407.31,-364.86C394.07,-355.41 378.94,-342.63 368.86,-328 355.83,-309.09 348.1,-284.09 343.75,-265.23"/>
<polygon fill="red" stroke="red" points="347.12,-264.26 341.62,-255.2 340.28,-265.71 347.12,-264.26"/>
</g>
<!-- node6&#45;&gt;node7 -->
<g id="edge8" class="edge">
<title>node6&#45;&gt;node7</title>
<path fill="none" stroke="black" d="M408.59,-291.81C396.72,-282.66 381.96,-271.26 369.07,-261.32"/>
<polygon fill="black" stroke="black" points="370.98,-258.37 360.93,-255.03 366.7,-263.91 370.98,-258.37"/>
<text text-anchor="middle" x="380.44" y="-255.71" font-family="Times,serif" font-size="14.00">*1</text>
</g>
<!-- node10 -->
<g id="node8" class="node">
<title>node10</title>
<polygon fill="lightgreen" stroke="black" points="398.05,-156.54 398.05,-171.46 363.38,-182 314.34,-182 279.67,-171.46 279.67,-156.54 314.34,-146 363.38,-146 398.05,-156.54"/>
<text text-anchor="middle" x="338.86" y="-160.3" font-family="Times,serif" font-size="14.00">#10 int 1</text>
</g>
<!-- node7&#45;&gt;node10 -->
<g id="edge12" class="edge">
<title>node7&#45;&gt;node10</title>
<path fill="none" stroke="black" stroke-dasharray="1,5" d="M338.86,-218.81C338.86,-210.79 338.86,-201.05 338.86,-192.07"/>
<polygon fill="black" stroke="black" points="342.36,-192.03 338.86,-182.03 335.36,-192.03 342.36,-192.03"/>
</g>
<!-- node7&#45;&gt;node11 -->
<g id="edge15" class="edge">
<title>node7&#45;&gt;node11</title>
<path fill="none" stroke="green" d="M306.2,-218.87C292.64,-209.88 278.33,-197.48 270.86,-182 261.08,-161.75 268.06,-136.61 276.35,-118.06"/>
<polygon fill="green" stroke="green" points="279.52,-119.54 280.72,-109.02 273.22,-116.5 279.52,-119.54"/>
</g>
<!-- node9 -->
<g id="node12" class="node">
<title>node9</title>
<polygon fill="lightgrey" stroke="black" points="570.36,-182 451.36,-182 451.36,-146 570.36,-146 570.36,-182"/>
<text text-anchor="middle" x="510.86" y="-160.3" font-family="Times,serif" font-size="14.00">#9 LabelNode</text>
</g>
<!-- node7&#45;&gt;node9 -->
<g id="edge19" class="edge">
<title>node7&#45;&gt;node9</title>
<path fill="none" stroke="red" d="M380.06,-218.99C404.03,-209.1 434.44,-196.54 459.91,-186.03"/>
<polygon fill="red" stroke="red" points="461.49,-189.16 469.4,-182.11 458.82,-182.69 461.49,-189.16"/>
</g>
<!-- node10&#45;&gt;node11 -->
<g id="edge14" class="edge">
<title>node10&#45;&gt;node11</title>
<path fill="none" stroke="black" d="M327.24,-145.81C321.46,-137.27 314.37,-126.77 307.98,-117.32"/>
<polygon fill="black" stroke="black" points="310.87,-115.35 302.37,-109.03 305.07,-119.27 310.87,-115.35"/>
<text text-anchor="middle" x="319.53" y="-115.61" font-family="Times,serif" font-size="14.00">*1</text>
</g>
<!-- node13 -->
<g id="node10" class="node">
<title>node13</title>
<polygon fill="lightgrey" stroke="black" points="561.36,-36 460.36,-36 460.36,0 561.36,0 561.36,-36"/>
<text text-anchor="middle" x="510.86" y="-14.3" font-family="Times,serif" font-size="14.00">#13 Return</text>
</g>
<!-- node11&#45;&gt;node13 -->
<g id="edge17" class="edge">
<title>node11&#45;&gt;node13</title>
<path fill="none" stroke="green" d="M343.56,-72.99C375.72,-62.61 416.95,-49.31 450.44,-38.5"/>
<polygon fill="green" stroke="green" points="451.67,-41.78 460.11,-35.38 449.52,-35.12 451.67,-41.78"/>
</g>
<!-- node12 -->
<g id="node11" class="node">
<title>node12</title>
<polygon fill="lightgrey" stroke="black" points="574.86,-109 446.86,-109 446.86,-73 574.86,-73 574.86,-109"/>
<text text-anchor="middle" x="510.86" y="-87.3" font-family="Times,serif" font-size="14.00">#12 LabelNode</text>
</g>
<!-- node12&#45;&gt;node13 -->
<g id="edge16" class="edge">
<title>node12&#45;&gt;node13</title>
<path fill="none" stroke="red" d="M510.86,-72.81C510.86,-64.79 510.86,-55.05 510.86,-46.07"/>
<polygon fill="red" stroke="red" points="514.36,-46.03 510.86,-36.03 507.36,-46.03 514.36,-46.03"/>
</g>
<!-- node9&#45;&gt;node12 -->
<g id="edge18" class="edge">
<title>node9&#45;&gt;node12</title>
<path fill="none" stroke="red" d="M510.86,-145.81C510.86,-137.79 510.86,-128.05 510.86,-119.07"/>
<polygon fill="red" stroke="red" points="514.36,-119.03 510.86,-109.03 507.36,-119.03 514.36,-119.03"/>
</g>
<!-- c0 -->
<!-- c1 -->
<!-- c0&#45;&gt;c1 -->
<g id="edge21" class="edge">
<title>c0&#45;&gt;c1</title>
<path fill="none" stroke="red" d="M1262.75,-538C1273.97,-538 1332.1,-538 1357.72,-538"/>
<polygon fill="red" stroke="red" points="1357.92,-541.5 1367.92,-538 1357.92,-534.5 1357.92,-541.5"/>
<text text-anchor="middle" x="1315.36" y="-544.8" font-family="Times,serif" font-size="14.00">Control flow</text>
</g>
<!-- c2 -->
<!-- c3 -->
<!-- c2&#45;&gt;c3 -->
<g id="edge22" class="edge">
<title>c2&#45;&gt;c3</title>
<path fill="none" stroke="red" stroke-dasharray="5,2" d="M1055.94,-538C1072.91,-538 1189.07,-538 1226.95,-538"/>
<polygon fill="red" stroke="red" points="1227.03,-541.5 1237.03,-538 1227.03,-534.5 1227.03,-541.5"/>
<text text-anchor="middle" x="1146.36" y="-544.8" font-family="Times,serif" font-size="14.00">Control flow back edge</text>
</g>
<!-- d0 -->
<!-- d1 -->
<!-- d0&#45;&gt;d1 -->
<g id="edge23" class="edge">
<title>d0&#45;&gt;d1</title>
<path fill="none" stroke="black" d="M944.72,-538C954.27,-538 998.17,-538 1019.78,-538"/>
<polygon fill="black" stroke="black" points="1020.01,-541.5 1030.01,-538 1020.01,-534.5 1020.01,-541.5"/>
<text text-anchor="middle" x="987.36" y="-544.8" font-family="Times,serif" font-size="14.00">Data flow</text>
</g>
<!-- d2 -->
<!-- d3 -->
<!-- d2&#45;&gt;d3 -->
<g id="edge24" class="edge">
<title>d2&#45;&gt;d3</title>
<path fill="none" stroke="black" stroke-dasharray="1,5" d="M818.67,-538C829.32,-538 884.33,-538 908.94,-538"/>
<polygon fill="black" stroke="black" points="909.01,-541.5 919.01,-538 909.01,-534.5 909.01,-541.5"/>
<text text-anchor="middle" x="868.86" y="-544.8" font-family="Times,serif" font-size="14.00">Declaration</text>
</g>
<!-- d4 -->
<!-- d5 -->
<!-- d4&#45;&gt;d5 -->
<g id="edge25" class="edge">
<title>d4&#45;&gt;d5</title>
<path fill="none" stroke="blue" d="M675.96,-538C688.58,-538 754.74,-538 782.54,-538"/>
<polygon fill="blue" stroke="blue" points="782.7,-541.5 792.7,-538 782.7,-534.5 782.7,-541.5"/>
<text text-anchor="middle" x="734.36" y="-544.8" font-family="Times,serif" font-size="14.00">PHI Data flow</text>
</g>
<!-- d6 -->
<!-- d7 -->
<!-- d6&#45;&gt;d7 -->
<g id="edge26" class="edge">
<title>d6&#45;&gt;d7</title>
<path fill="none" stroke="green" d="M538.86,-538C550.8,-538 613.16,-538 639.79,-538"/>
<polygon fill="green" stroke="green" points="639.81,-541.5 649.81,-538 639.81,-534.5 639.81,-541.5"/>
<text text-anchor="middle" x="594.36" y="-544.8" font-family="Times,serif" font-size="14.00">Memory flow</text>
</g>
</g>
</svg>
