<?xml version="1.0" encoding="UTF-8" standalone="no"?>
<!DOCTYPE svg PUBLIC "-//W3C//DTD SVG 1.1//EN"
 "http://www.w3.org/Graphics/SVG/1.1/DTD/svg11.dtd">
<!-- Generated by graphviz version 2.43.0 (0)
 -->
<!-- Title: %3 Pages: 1 -->
<svg width="1289pt" height="733pt"
 viewBox="0.00 0.00 1288.58 732.80" xmlns="http://www.w3.org/2000/svg" xmlns:xlink="http://www.w3.org/1999/xlink">
<g id="graph0" class="graph" transform="scale(1 1) rotate(0) translate(4 728.8)">
<title>%3</title>
<polygon fill="white" stroke="transparent" points="-4,4 -4,-728.8 1284.58,-728.8 1284.58,4 -4,4"/>
<g id="clust1" class="cluster">
<title>cluster_0</title>
<polygon fill="none" stroke="lightgray" points="9.58,-430 9.58,-555 267.58,-555 267.58,-430 9.58,-430"/>
</g>
<g id="clust2" class="cluster">
<title>cluster_1</title>
<polygon fill="none" stroke="lightgray" points="86.58,-284 86.58,-409 266.58,-409 266.58,-284 86.58,-284"/>
</g>
<g id="clust3" class="cluster">
<title>cluster_2</title>
<polygon fill="none" stroke="lightgray" points="280.58,-503 280.58,-628 416.58,-628 416.58,-503 280.58,-503"/>
</g>
<g id="clust4" class="cluster">
<title>cluster_000</title>
<polygon fill="none" stroke="black" points="419.58,-674.2 419.58,-716.8 1272.58,-716.8 1272.58,-674.2 419.58,-674.2"/>
<text text-anchor="middle" x="846.08" y="-701.6" font-family="Times,serif" font-size="14.00">Legend</text>
</g>
<!-- node0 -->
<g id="node1" class="node">
<title>node0</title>
<polygon fill="lightgrey" stroke="transparent" points="410.08,-711 287.08,-711 287.08,-657 410.08,-657 410.08,-711"/>
<polygon fill="none" stroke="black" points="287.58,-684 287.58,-711 410.58,-711 410.58,-684 287.58,-684"/>
<text text-anchor="start" x="308.58" y="-693.8" font-family="Times,serif" font-size="14.00">#0 Method</text>
<polygon fill="yellow" stroke="transparent" points="287.58,-657 287.58,-684 410.58,-684 410.58,-657 287.58,-657"/>
<polygon fill="none" stroke="black" points="287.58,-657 287.58,-684 410.58,-684 410.58,-657 287.58,-657"/>
<text text-anchor="start" x="293.58" y="-666.8" font-family="Times,serif" font-size="14.00">this : ArrayTest</text>
</g>
<!-- node2 -->
<g id="node2" class="node">
<title>node2</title>
<polygon fill="lightgrey" stroke="black" points="408.08,-620 289.08,-620 289.08,-584 408.08,-584 408.08,-620"/>
<text text-anchor="middle" x="348.58" y="-598.3" font-family="Times,serif" font-size="14.00">#2 LabelNode</text>
</g>
<!-- node0&#45;&gt;node2 -->
<g id="edge1" class="edge">
<title>node0&#45;&gt;node2</title>
<path fill="none" stroke="red" d="M348.58,-656.81C348.58,-648.35 348.58,-638.95 348.58,-630.4"/>
<polygon fill="red" stroke="red" points="352.08,-630.17 348.58,-620.17 345.08,-630.17 352.08,-630.17"/>
</g>
<!-- node5 -->
<g id="node4" class="node">
<title>node5</title>
<polygon fill="orange" stroke="black" points="499.89,-448.54 499.89,-463.46 434.69,-474 342.48,-474 277.28,-463.46 277.28,-448.54 342.48,-438 434.69,-438 499.89,-448.54"/>
<text text-anchor="middle" x="388.58" y="-452.3" font-family="Times,serif" font-size="14.00">#5 NewArray : int[]</text>
</g>
<!-- node0&#45;&gt;node5 -->
<g id="edge4" class="edge">
<title>node0&#45;&gt;node5</title>
<path fill="none" stroke="green" d="M395.97,-656.75C405.88,-648.88 415,-639.28 420.58,-628 445.21,-578.2 437.21,-556.01 420.58,-503 418.34,-495.85 414.55,-488.84 410.35,-482.54"/>
<polygon fill="green" stroke="green" points="413.17,-480.47 404.47,-474.42 407.51,-484.57 413.17,-480.47"/>
</g>
<!-- node4 -->
<g id="node3" class="node">
<title>node4</title>
<polygon fill="lightgreen" stroke="black" points="407.77,-521.54 407.77,-536.46 373.1,-547 324.07,-547 289.4,-536.46 289.4,-521.54 324.07,-511 373.1,-511 407.77,-521.54"/>
<text text-anchor="middle" x="348.58" y="-525.3" font-family="Times,serif" font-size="14.00">#4 int 10</text>
</g>
<!-- node2&#45;&gt;node4 -->
<g id="edge2" class="edge">
<title>node2&#45;&gt;node4</title>
<path fill="none" stroke="black" stroke-dasharray="1,5" d="M348.58,-583.81C348.58,-575.79 348.58,-566.05 348.58,-557.07"/>
<polygon fill="black" stroke="black" points="352.08,-557.03 348.58,-547.03 345.08,-557.03 352.08,-557.03"/>
</g>
<!-- node3 -->
<g id="node8" class="node">
<title>node3</title>
<polygon fill="lightgrey" stroke="black" points="198.08,-547 79.08,-547 79.08,-511 198.08,-511 198.08,-547"/>
<text text-anchor="middle" x="138.58" y="-525.3" font-family="Times,serif" font-size="14.00">#3 LabelNode</text>
</g>
<!-- node2&#45;&gt;node3 -->
<g id="edge10" class="edge">
<title>node2&#45;&gt;node3</title>
<path fill="none" stroke="red" d="M298.28,-583.99C268.37,-573.88 230.24,-560.99 198.75,-550.34"/>
<polygon fill="red" stroke="red" points="199.79,-547 189.2,-547.11 197.55,-553.63 199.79,-547"/>
</g>
<!-- node4&#45;&gt;node5 -->
<g id="edge3" class="edge">
<title>node4&#45;&gt;node5</title>
<path fill="none" stroke="black" d="M358.27,-510.81C362.98,-502.44 368.75,-492.2 373.99,-482.9"/>
<polygon fill="black" stroke="black" points="377.13,-484.46 378.99,-474.03 371.03,-481.02 377.13,-484.46"/>
<text text-anchor="middle" x="377.46" y="-490.27" font-family="Times,serif" font-size="14.00">*0</text>
</g>
<!-- node8 -->
<g id="node5" class="node">
<title>node8</title>
<polygon fill="lightgrey" stroke="black" points="258.58,-401 94.58,-401 94.58,-365 258.58,-365 258.58,-401"/>
<text text-anchor="middle" x="176.58" y="-379.3" font-family="Times,serif" font-size="14.00">#8 ArrayStore : int[]</text>
</g>
<!-- node5&#45;&gt;node8 -->
<g id="edge5" class="edge">
<title>node5&#45;&gt;node8</title>
<path fill="none" stroke="black" d="M328.58,-440.21C307.78,-434.23 284.51,-427.07 263.58,-420 249.74,-415.32 234.91,-409.94 221.44,-404.79"/>
<polygon fill="black" stroke="black" points="222.49,-401.45 211.9,-401.1 219.96,-407.98 222.49,-401.45"/>
<text text-anchor="middle" x="231.86" y="-396.07" font-family="Times,serif" font-size="14.00">*0</text>
</g>
<!-- node5&#45;&gt;node8 -->
<g id="edge8" class="edge">
<title>node5&#45;&gt;node8</title>
<path fill="none" stroke="green" d="M339.36,-438.39C321.15,-432.8 300.41,-426.36 281.58,-420 267.61,-415.28 252.62,-409.84 238.43,-404.64"/>
<polygon fill="green" stroke="green" points="239.36,-401.25 228.76,-401.1 236.95,-407.83 239.36,-401.25"/>
</g>
<!-- node11 -->
<g id="node9" class="node">
<title>node11</title>
<polygon fill="lightgrey" stroke="black" points="215.58,-255 57.58,-255 57.58,-219 215.58,-219 215.58,-255"/>
<text text-anchor="middle" x="136.58" y="-233.3" font-family="Times,serif" font-size="14.00">#11 ArrayLoad : int</text>
</g>
<!-- node5&#45;&gt;node11 -->
<g id="edge13" class="edge">
<title>node5&#45;&gt;node11</title>
<path fill="none" stroke="black" d="M342.9,-437.87C329.22,-430.78 315.29,-421.28 305.58,-409 269.81,-363.74 310.18,-325.95 270.58,-284 258.26,-270.95 242.07,-261.6 225.22,-254.9"/>
<polygon fill="black" stroke="black" points="226.41,-251.61 215.82,-251.45 224,-258.18 226.41,-251.61"/>
<text text-anchor="middle" x="235.75" y="-246.06" font-family="Times,serif" font-size="14.00">*0</text>
</g>
<!-- node9 -->
<g id="node14" class="node">
<title>node9</title>
<polygon fill="orange" stroke="black" points="500.3,-375.54 500.3,-390.46 445.99,-401 369.18,-401 314.86,-390.46 314.86,-375.54 369.18,-365 445.99,-365 500.3,-375.54"/>
<text text-anchor="middle" x="407.58" y="-379.3" font-family="Times,serif" font-size="14.00">#9 ArrayLength</text>
</g>
<!-- node5&#45;&gt;node9 -->
<g id="edge22" class="edge">
<title>node5&#45;&gt;node9</title>
<path fill="none" stroke="black" d="M393.18,-437.81C395.35,-429.7 397.99,-419.84 400.42,-410.78"/>
<polygon fill="black" stroke="black" points="403.82,-411.59 403.03,-401.03 397.06,-409.78 403.82,-411.59"/>
<text text-anchor="middle" x="406.5" y="-417.02" font-family="Times,serif" font-size="14.00">*0</text>
</g>
<!-- node8&#45;&gt;node11 -->
<g id="edge15" class="edge">
<title>node8&#45;&gt;node11</title>
<path fill="none" stroke="green" d="M148.9,-364.85C138.28,-355.13 127.69,-342.11 122.58,-328 115.24,-307.73 117.25,-283.22 122.07,-264.9"/>
<polygon fill="green" stroke="green" points="125.47,-265.75 125.09,-255.17 118.78,-263.68 125.47,-265.75"/>
</g>
<!-- node8&#45;&gt;node11 -->
<g id="edge16" class="edge">
<title>node8&#45;&gt;node11</title>
<path fill="none" stroke="red" d="M164.69,-364.61C156.11,-354.92 145.65,-342 140.58,-328 133.28,-307.83 135.23,-283.45 137.24,-265.16"/>
<polygon fill="red" stroke="red" points="140.72,-265.49 138.36,-255.17 133.77,-264.71 140.72,-265.49"/>
</g>
<!-- node10 -->
<g id="node10" class="node">
<title>node10</title>
<polygon fill="lightgreen" stroke="black" points="258.77,-302.54 258.77,-317.46 224.1,-328 175.07,-328 140.4,-317.46 140.4,-302.54 175.07,-292 224.1,-292 258.77,-302.54"/>
<text text-anchor="middle" x="199.58" y="-306.3" font-family="Times,serif" font-size="14.00">#10 int 1</text>
</g>
<!-- node8&#45;&gt;node10 -->
<g id="edge17" class="edge">
<title>node8&#45;&gt;node10</title>
<path fill="none" stroke="black" stroke-dasharray="1,5" d="M182.15,-364.81C184.78,-356.7 187.97,-346.84 190.91,-337.78"/>
<polygon fill="black" stroke="black" points="194.31,-338.62 194.07,-328.03 187.65,-336.46 194.31,-338.62"/>
</g>
<!-- node7 -->
<g id="node6" class="node">
<title>node7</title>
<polygon fill="lightgreen" stroke="black" points="259.11,-448.54 259.11,-463.46 228.34,-474 184.83,-474 154.06,-463.46 154.06,-448.54 184.83,-438 228.34,-438 259.11,-448.54"/>
<text text-anchor="middle" x="206.58" y="-452.3" font-family="Times,serif" font-size="14.00">#7 int 0</text>
</g>
<!-- node7&#45;&gt;node8 -->
<g id="edge6" class="edge">
<title>node7&#45;&gt;node8</title>
<path fill="none" stroke="black" d="M199.32,-437.81C195.86,-429.62 191.63,-419.62 187.77,-410.48"/>
<polygon fill="black" stroke="black" points="190.89,-408.88 183.78,-401.03 184.45,-411.6 190.89,-408.88"/>
<text text-anchor="middle" x="198.62" y="-410.74" font-family="Times,serif" font-size="14.00">*1</text>
</g>
<!-- node6 -->
<g id="node7" class="node">
<title>node6</title>
<polygon fill="lightgreen" stroke="black" points="135.77,-448.54 135.77,-463.46 101.1,-474 52.07,-474 17.4,-463.46 17.4,-448.54 52.07,-438 101.1,-438 135.77,-448.54"/>
<text text-anchor="middle" x="76.58" y="-452.3" font-family="Times,serif" font-size="14.00">#6 int 10</text>
</g>
<!-- node6&#45;&gt;node8 -->
<g id="edge7" class="edge">
<title>node6&#45;&gt;node8</title>
<path fill="none" stroke="black" d="M100.53,-437.99C113.55,-428.75 129.83,-417.19 143.99,-407.14"/>
<polygon fill="black" stroke="black" points="146.35,-409.76 152.48,-401.11 142.3,-404.05 146.35,-409.76"/>
<text text-anchor="middle" x="142.59" y="-414.8" font-family="Times,serif" font-size="14.00">*2</text>
</g>
<!-- node3&#45;&gt;node8 -->
<g id="edge9" class="edge">
<title>node3&#45;&gt;node8</title>
<path fill="none" stroke="red" d="M78.93,-518.47C52.73,-510.99 24.39,-497.68 8.58,-474 -2.27,-457.73 -3.28,-445.55 8.58,-430 18.64,-416.82 50.92,-406.49 84.52,-398.98"/>
<polygon fill="red" stroke="red" points="85.45,-402.36 94.5,-396.85 83.99,-395.52 85.45,-402.36"/>
</g>
<!-- node3&#45;&gt;node7 -->
<g id="edge11" class="edge">
<title>node3&#45;&gt;node7</title>
<path fill="none" stroke="black" stroke-dasharray="1,5" d="M155.04,-510.81C163.48,-502 173.9,-491.13 183.16,-481.46"/>
<polygon fill="black" stroke="black" points="185.88,-483.67 190.27,-474.03 180.83,-478.83 185.88,-483.67"/>
</g>
<!-- node3&#45;&gt;node6 -->
<g id="edge12" class="edge">
<title>node3&#45;&gt;node6</title>
<path fill="none" stroke="black" stroke-dasharray="1,5" d="M123.57,-510.81C115.96,-502.09 106.57,-491.34 98.19,-481.75"/>
<polygon fill="black" stroke="black" points="100.67,-479.26 91.45,-474.03 95.39,-483.86 100.67,-479.26"/>
</g>
<!-- node12 -->
<g id="node11" class="node">
<title>node12</title>
<polygon fill="lightgrey" stroke="black" points="200.58,-182 72.58,-182 72.58,-146 200.58,-146 200.58,-182"/>
<text text-anchor="middle" x="136.58" y="-160.3" font-family="Times,serif" font-size="14.00">#12 LabelNode</text>
</g>
<!-- node11&#45;&gt;node12 -->
<g id="edge18" class="edge">
<title>node11&#45;&gt;node12</title>
<path fill="none" stroke="red" d="M136.58,-218.81C136.58,-210.79 136.58,-201.05 136.58,-192.07"/>
<polygon fill="red" stroke="red" points="140.08,-192.03 136.58,-182.03 133.08,-192.03 140.08,-192.03"/>
</g>
<!-- node14 -->
<g id="node13" class="node">
<title>node14</title>
<polygon fill="lightgrey" stroke="black" points="187.08,-36 86.08,-36 86.08,0 187.08,0 187.08,-36"/>
<text text-anchor="middle" x="136.58" y="-14.3" font-family="Times,serif" font-size="14.00">#14 Return</text>
</g>
<!-- node11&#45;&gt;node14 -->
<g id="edge21" class="edge">
<title>node11&#45;&gt;node14</title>
<path fill="none" stroke="green" d="M172.35,-218.93C186.67,-210.07 201.63,-197.77 209.58,-182 231.39,-138.74 231.39,-116.26 209.58,-73 203.19,-60.31 192.25,-49.87 180.75,-41.66"/>
<polygon fill="green" stroke="green" points="182.61,-38.69 172.35,-36.07 178.74,-44.52 182.61,-38.69"/>
</g>
<!-- node10&#45;&gt;node11 -->
<g id="edge14" class="edge">
<title>node10&#45;&gt;node11</title>
<path fill="none" stroke="black" d="M184.33,-291.81C176.59,-283.09 167.05,-272.34 158.54,-262.75"/>
<polygon fill="black" stroke="black" points="160.95,-260.19 151.69,-255.03 155.71,-264.83 160.95,-260.19"/>
<text text-anchor="middle" x="170.05" y="-259.28" font-family="Times,serif" font-size="14.00">*1</text>
</g>
<!-- node13 -->
<g id="node12" class="node">
<title>node13</title>
<polygon fill="lightgrey" stroke="black" points="200.58,-109 72.58,-109 72.58,-73 200.58,-73 200.58,-109"/>
<text text-anchor="middle" x="136.58" y="-87.3" font-family="Times,serif" font-size="14.00">#13 LabelNode</text>
</g>
<!-- node12&#45;&gt;node13 -->
<g id="edge19" class="edge">
<title>node12&#45;&gt;node13</title>
<path fill="none" stroke="red" d="M136.58,-145.81C136.58,-137.79 136.58,-128.05 136.58,-119.07"/>
<polygon fill="red" stroke="red" points="140.08,-119.03 136.58,-109.03 133.08,-119.03 140.08,-119.03"/>
</g>
<!-- node13&#45;&gt;node14 -->
<g id="edge20" class="edge">
<title>node13&#45;&gt;node14</title>
<path fill="none" stroke="red" d="M136.58,-72.81C136.58,-64.79 136.58,-55.05 136.58,-46.07"/>
<polygon fill="red" stroke="red" points="140.08,-46.03 136.58,-36.03 133.08,-46.03 140.08,-46.03"/>
</g>
<!-- c0 -->
<!-- c1 -->
<!-- c0&#45;&gt;c1 -->
<g id="edge23" class="edge">
<title>c0&#45;&gt;c1</title>
<path fill="none" stroke="red" d="M1155.47,-684C1166.69,-684 1224.83,-684 1250.44,-684"/>
<polygon fill="red" stroke="red" points="1250.64,-687.5 1260.64,-684 1250.64,-680.5 1250.64,-687.5"/>
<text text-anchor="middle" x="1208.08" y="-690.8" font-family="Times,serif" font-size="14.00">Control flow</text>
</g>
<!-- c2 -->
<!-- c3 -->
<!-- c2&#45;&gt;c3 -->
<g id="edge24" class="edge">
<title>c2&#45;&gt;c3</title>
<path fill="none" stroke="red" stroke-dasharray="5,2" d="M948.66,-684C965.63,-684 1081.79,-684 1119.67,-684"/>
<polygon fill="red" stroke="red" points="1119.75,-687.5 1129.75,-684 1119.75,-680.5 1119.75,-687.5"/>
<text text-anchor="middle" x="1039.08" y="-690.8" font-family="Times,serif" font-size="14.00">Control flow back edge</text>
</g>
<!-- d0 -->
<!-- d1 -->
<!-- d0&#45;&gt;d1 -->
<g id="edge25" class="edge">
<title>d0&#45;&gt;d1</title>
<path fill="none" stroke="black" d="M837.44,-684C846.99,-684 890.89,-684 912.5,-684"/>
<polygon fill="black" stroke="black" points="912.73,-687.5 922.73,-684 912.73,-680.5 912.73,-687.5"/>
<text text-anchor="middle" x="880.08" y="-690.8" font-family="Times,serif" font-size="14.00">Data flow</text>
</g>
<!-- d2 -->
<!-- d3 -->
<!-- d2&#45;&gt;d3 -->
<g id="edge26" class="edge">
<title>d2&#45;&gt;d3</title>
<path fill="none" stroke="black" stroke-dasharray="1,5" d="M711.39,-684C722.04,-684 777.05,-684 801.66,-684"/>
<polygon fill="black" stroke="black" points="801.73,-687.5 811.73,-684 801.73,-680.5 801.73,-687.5"/>
<text text-anchor="middle" x="761.58" y="-690.8" font-family="Times,serif" font-size="14.00">Declaration</text>
</g>
<!-- d4 -->
<!-- d5 -->
<!-- d4&#45;&gt;d5 -->
<g id="edge27" class="edge">
<title>d4&#45;&gt;d5</title>
<path fill="none" stroke="blue" d="M568.68,-684C581.3,-684 647.46,-684 675.26,-684"/>
<polygon fill="blue" stroke="blue" points="675.42,-687.5 685.42,-684 675.42,-680.5 675.42,-687.5"/>
<text text-anchor="middle" x="627.08" y="-690.8" font-family="Times,serif" font-size="14.00">PHI Data flow</text>
</g>
<!-- d6 -->
<!-- d7 -->
<!-- d6&#45;&gt;d7 -->
<g id="edge28" class="edge">
<title>d6&#45;&gt;d7</title>
<path fill="none" stroke="green" d="M431.58,-684C443.52,-684 505.88,-684 532.51,-684"/>
<polygon fill="green" stroke="green" points="532.53,-687.5 542.53,-684 532.53,-680.5 532.53,-687.5"/>
<text text-anchor="middle" x="487.08" y="-690.8" font-family="Times,serif" font-size="14.00">Memory flow</text>
</g>
</g>
</svg>
