<?xml version="1.0" encoding="UTF-8" standalone="no"?>
<!DOCTYPE svg PUBLIC "-//W3C//DTD SVG 1.1//EN"
 "http://www.w3.org/Graphics/SVG/1.1/DTD/svg11.dtd">
<!-- Generated by graphviz version 2.43.0 (0)
 -->
<!-- Title: %3 Pages: 1 -->
<svg width="1288pt" height="733pt"
 viewBox="0.00 0.00 1288.14 732.80" xmlns="http://www.w3.org/2000/svg" xmlns:xlink="http://www.w3.org/1999/xlink">
<g id="graph0" class="graph" transform="scale(1 1) rotate(0) translate(4 728.8)">
<title>%3</title>
<polygon fill="white" stroke="transparent" points="-4,4 -4,-728.8 1284.14,-728.8 1284.14,4 -4,4"/>
<g id="clust1" class="cluster">
<title>cluster_0</title>
<polygon fill="none" stroke="lightgray" points="280.14,-503 280.14,-628 416.14,-628 416.14,-503 280.14,-503"/>
</g>
<g id="clust2" class="cluster">
<title>cluster_1</title>
<polygon fill="none" stroke="lightgray" points="31.14,-284 31.14,-409 211.14,-409 211.14,-284 31.14,-284"/>
</g>
<g id="clust3" class="cluster">
<title>cluster_2</title>
<polygon fill="none" stroke="lightgray" points="9.14,-430 9.14,-555 267.14,-555 267.14,-430 9.14,-430"/>
</g>
<g id="clust4" class="cluster">
<title>cluster_000</title>
<polygon fill="none" stroke="black" points="419.14,-674.2 419.14,-716.8 1272.14,-716.8 1272.14,-674.2 419.14,-674.2"/>
<text text-anchor="middle" x="845.64" y="-701.6" font-family="Times,serif" font-size="14.00">Legend</text>
</g>
<!-- node0 -->
<g id="node1" class="node">
<title>node0</title>
<polygon fill="lightgrey" stroke="transparent" points="409.64,-711 286.64,-711 286.64,-657 409.64,-657 409.64,-711"/>
<polygon fill="none" stroke="black" points="287.14,-684 287.14,-711 410.14,-711 410.14,-684 287.14,-684"/>
<text text-anchor="start" x="308.14" y="-693.8" font-family="Times,serif" font-size="14.00">#0 Method</text>
<polygon fill="yellow" stroke="transparent" points="287.14,-657 287.14,-684 410.14,-684 410.14,-657 287.14,-657"/>
<polygon fill="none" stroke="black" points="287.14,-657 287.14,-684 410.14,-684 410.14,-657 287.14,-657"/>
<text text-anchor="start" x="293.14" y="-666.8" font-family="Times,serif" font-size="14.00">this : ArrayTest</text>
</g>
<!-- node2 -->
<g id="node2" class="node">
<title>node2</title>
<polygon fill="lightgrey" stroke="black" points="407.64,-620 288.64,-620 288.64,-584 407.64,-584 407.64,-620"/>
<text text-anchor="middle" x="348.14" y="-598.3" font-family="Times,serif" font-size="14.00">#2 LabelNode</text>
</g>
<!-- node0&#45;&gt;node2 -->
<g id="edge1" class="edge">
<title>node0&#45;&gt;node2</title>
<path fill="none" stroke="red" d="M348.14,-656.81C348.14,-648.35 348.14,-638.95 348.14,-630.4"/>
<polygon fill="red" stroke="red" points="351.64,-630.17 348.14,-620.17 344.64,-630.17 351.64,-630.17"/>
</g>
<!-- node5 -->
<g id="node6" class="node">
<title>node5</title>
<polygon fill="orange" stroke="black" points="499.44,-448.54 499.44,-463.46 434.24,-474 342.04,-474 276.84,-463.46 276.84,-448.54 342.04,-438 434.24,-438 499.44,-448.54"/>
<text text-anchor="middle" x="388.14" y="-452.3" font-family="Times,serif" font-size="14.00">#5 NewArray : int[]</text>
</g>
<!-- node0&#45;&gt;node5 -->
<g id="edge10" class="edge">
<title>node0&#45;&gt;node5</title>
<path fill="none" stroke="green" d="M395.53,-656.75C405.44,-648.88 414.56,-639.28 420.14,-628 444.76,-578.2 436.76,-556.01 420.14,-503 417.9,-495.85 414.11,-488.84 409.91,-482.54"/>
<polygon fill="green" stroke="green" points="412.73,-480.47 404.03,-474.42 407.06,-484.57 412.73,-480.47"/>
</g>
<!-- node3 -->
<g id="node3" class="node">
<title>node3</title>
<polygon fill="lightgrey" stroke="black" points="193.64,-547 74.64,-547 74.64,-511 193.64,-511 193.64,-547"/>
<text text-anchor="middle" x="134.14" y="-525.3" font-family="Times,serif" font-size="14.00">#3 LabelNode</text>
</g>
<!-- node2&#45;&gt;node3 -->
<g id="edge2" class="edge">
<title>node2&#45;&gt;node3</title>
<path fill="none" stroke="red" d="M296.88,-583.99C266.4,-573.88 227.55,-560.99 195.45,-550.34"/>
<polygon fill="red" stroke="red" points="196.31,-546.94 185.72,-547.11 194.11,-553.58 196.31,-546.94"/>
</g>
<!-- node4 -->
<g id="node8" class="node">
<title>node4</title>
<polygon fill="lightgreen" stroke="black" points="407.33,-521.54 407.33,-536.46 372.66,-547 323.62,-547 288.95,-536.46 288.95,-521.54 323.62,-511 372.66,-511 407.33,-521.54"/>
<text text-anchor="middle" x="348.14" y="-525.3" font-family="Times,serif" font-size="14.00">#4 int 10</text>
</g>
<!-- node2&#45;&gt;node4 -->
<g id="edge11" class="edge">
<title>node2&#45;&gt;node4</title>
<path fill="none" stroke="black" stroke-dasharray="1,5" d="M348.14,-583.81C348.14,-575.79 348.14,-566.05 348.14,-557.07"/>
<polygon fill="black" stroke="black" points="351.64,-557.03 348.14,-547.03 344.64,-557.03 351.64,-557.03"/>
</g>
<!-- node7 -->
<g id="node4" class="node">
<title>node7</title>
<polygon fill="lightgreen" stroke="black" points="259.33,-448.54 259.33,-463.46 224.66,-474 175.62,-474 140.95,-463.46 140.95,-448.54 175.62,-438 224.66,-438 259.33,-448.54"/>
<text text-anchor="middle" x="200.14" y="-452.3" font-family="Times,serif" font-size="14.00">#7 int 10</text>
</g>
<!-- node3&#45;&gt;node7 -->
<g id="edge3" class="edge">
<title>node3&#45;&gt;node7</title>
<path fill="none" stroke="black" stroke-dasharray="1,5" d="M150.12,-510.81C158.3,-502 168.42,-491.13 177.4,-481.46"/>
<polygon fill="black" stroke="black" points="180.06,-483.74 184.31,-474.03 174.94,-478.97 180.06,-483.74"/>
</g>
<!-- node8 -->
<g id="node5" class="node">
<title>node8</title>
<polygon fill="lightgrey" stroke="black" points="203.14,-401 39.14,-401 39.14,-365 203.14,-365 203.14,-401"/>
<text text-anchor="middle" x="121.14" y="-379.3" font-family="Times,serif" font-size="14.00">#8 ArrayStore : int[]</text>
</g>
<!-- node3&#45;&gt;node8 -->
<g id="edge8" class="edge">
<title>node3&#45;&gt;node8</title>
<path fill="none" stroke="red" d="M74.63,-517.49C49.69,-509.84 23.07,-496.65 8.14,-474 -2.63,-457.67 -2.78,-446.23 8.14,-430 14.93,-419.91 24.36,-412.03 34.9,-405.88"/>
<polygon fill="red" stroke="red" points="36.76,-408.85 43.98,-401.11 33.5,-402.66 36.76,-408.85"/>
</g>
<!-- node6 -->
<g id="node7" class="node">
<title>node6</title>
<polygon fill="lightgreen" stroke="black" points="122.66,-448.54 122.66,-463.46 91.9,-474 48.38,-474 17.61,-463.46 17.61,-448.54 48.38,-438 91.9,-438 122.66,-448.54"/>
<text text-anchor="middle" x="70.14" y="-452.3" font-family="Times,serif" font-size="14.00">#6 int 0</text>
</g>
<!-- node3&#45;&gt;node6 -->
<g id="edge22" class="edge">
<title>node3&#45;&gt;node6</title>
<path fill="none" stroke="black" stroke-dasharray="1,5" d="M118.65,-510.81C110.71,-502 100.9,-491.13 92.19,-481.46"/>
<polygon fill="black" stroke="black" points="94.78,-479.11 85.49,-474.03 89.58,-483.8 94.78,-479.11"/>
</g>
<!-- node7&#45;&gt;node8 -->
<g id="edge6" class="edge">
<title>node7&#45;&gt;node8</title>
<path fill="none" stroke="black" d="M181.02,-437.81C171.02,-428.83 158.63,-417.69 147.72,-407.89"/>
<polygon fill="black" stroke="black" points="149.86,-405.11 140.09,-401.03 145.18,-410.32 149.86,-405.11"/>
<text text-anchor="middle" x="159.22" y="-403.16" font-family="Times,serif" font-size="14.00">*2</text>
</g>
<!-- node11 -->
<g id="node10" class="node">
<title>node11</title>
<polygon fill="lightgrey" stroke="black" points="160.14,-255 2.14,-255 2.14,-219 160.14,-219 160.14,-255"/>
<text text-anchor="middle" x="81.14" y="-233.3" font-family="Times,serif" font-size="14.00">#11 ArrayLoad : int</text>
</g>
<!-- node8&#45;&gt;node11 -->
<g id="edge15" class="edge">
<title>node8&#45;&gt;node11</title>
<path fill="none" stroke="green" d="M93.46,-364.85C82.84,-355.13 72.25,-342.11 67.14,-328 59.8,-307.73 61.81,-283.22 66.63,-264.9"/>
<polygon fill="green" stroke="green" points="70.03,-265.75 69.65,-255.17 63.34,-263.68 70.03,-265.75"/>
</g>
<!-- node8&#45;&gt;node11 -->
<g id="edge16" class="edge">
<title>node8&#45;&gt;node11</title>
<path fill="none" stroke="red" d="M109.25,-364.61C100.66,-354.92 90.21,-342 85.14,-328 77.84,-307.83 79.79,-283.45 81.8,-265.16"/>
<polygon fill="red" stroke="red" points="85.28,-265.49 82.91,-255.17 78.32,-264.71 85.28,-265.49"/>
</g>
<!-- node10 -->
<g id="node11" class="node">
<title>node10</title>
<polygon fill="lightgreen" stroke="black" points="203.33,-302.54 203.33,-317.46 168.66,-328 119.62,-328 84.95,-317.46 84.95,-302.54 119.62,-292 168.66,-292 203.33,-302.54"/>
<text text-anchor="middle" x="144.14" y="-306.3" font-family="Times,serif" font-size="14.00">#10 int 1</text>
</g>
<!-- node8&#45;&gt;node10 -->
<g id="edge17" class="edge">
<title>node8&#45;&gt;node10</title>
<path fill="none" stroke="black" stroke-dasharray="1,5" d="M126.71,-364.81C129.33,-356.7 132.53,-346.84 135.46,-337.78"/>
<polygon fill="black" stroke="black" points="138.87,-338.62 138.62,-328.03 132.21,-336.46 138.87,-338.62"/>
</g>
<!-- node5&#45;&gt;node8 -->
<g id="edge4" class="edge">
<title>node5&#45;&gt;node8</title>
<path fill="none" stroke="black" d="M324.84,-440.67C288.94,-431.69 243.41,-419.79 203.14,-409 196.91,-407.33 190.44,-405.58 183.99,-403.82"/>
<polygon fill="black" stroke="black" points="184.47,-400.32 173.9,-401.05 182.62,-407.07 184.47,-400.32"/>
<text text-anchor="middle" x="193.62" y="-394" font-family="Times,serif" font-size="14.00">*0</text>
</g>
<!-- node5&#45;&gt;node8 -->
<g id="edge7" class="edge">
<title>node5&#45;&gt;node8</title>
<path fill="none" stroke="green" d="M334.56,-439.11C301.78,-430.34 259.12,-419.18 221.14,-409 214.76,-407.29 208.13,-405.5 201.46,-403.69"/>
<polygon fill="green" stroke="green" points="202.24,-400.28 191.67,-401.05 200.41,-407.04 202.24,-400.28"/>
</g>
<!-- node9 -->
<g id="node9" class="node">
<title>node9</title>
<polygon fill="orange" stroke="black" points="406.86,-375.54 406.86,-390.46 352.55,-401 275.73,-401 221.42,-390.46 221.42,-375.54 275.73,-365 352.55,-365 406.86,-375.54"/>
<text text-anchor="middle" x="314.14" y="-379.3" font-family="Times,serif" font-size="14.00">#9 ArrayLength</text>
</g>
<!-- node5&#45;&gt;node9 -->
<g id="edge12" class="edge">
<title>node5&#45;&gt;node9</title>
<path fill="none" stroke="black" d="M370.23,-437.81C360.95,-428.92 349.48,-417.91 339.33,-408.17"/>
<polygon fill="black" stroke="black" points="341.53,-405.43 331.89,-401.03 336.68,-410.48 341.53,-405.43"/>
<text text-anchor="middle" x="350.82" y="-403.78" font-family="Times,serif" font-size="14.00">*0</text>
</g>
<!-- node5&#45;&gt;node11 -->
<g id="edge13" class="edge">
<title>node5&#45;&gt;node11</title>
<path fill="none" stroke="black" d="M401.72,-437.8C415.05,-418.67 431.34,-387.51 416.14,-365 361.99,-284.79 249.91,-255.17 170.32,-244.27"/>
<polygon fill="black" stroke="black" points="170.66,-240.78 160.29,-242.97 169.76,-247.73 170.66,-240.78"/>
<text text-anchor="middle" x="179.36" y="-233.22" font-family="Times,serif" font-size="14.00">*0</text>
</g>
<!-- node6&#45;&gt;node8 -->
<g id="edge5" class="edge">
<title>node6&#45;&gt;node8</title>
<path fill="none" stroke="black" d="M82.48,-437.81C88.62,-429.27 96.16,-418.77 102.95,-409.32"/>
<polygon fill="black" stroke="black" points="105.92,-411.19 108.91,-401.03 100.23,-407.11 105.92,-411.19"/>
<text text-anchor="middle" x="105.2" y="-416.98" font-family="Times,serif" font-size="14.00">*1</text>
</g>
<!-- node4&#45;&gt;node5 -->
<g id="edge9" class="edge">
<title>node4&#45;&gt;node5</title>
<path fill="none" stroke="black" d="M357.82,-510.81C362.54,-502.44 368.31,-492.2 373.55,-482.9"/>
<polygon fill="black" stroke="black" points="376.69,-484.46 378.55,-474.03 370.59,-481.02 376.69,-484.46"/>
<text text-anchor="middle" x="377.01" y="-490.27" font-family="Times,serif" font-size="14.00">*0</text>
</g>
<!-- node12 -->
<g id="node12" class="node">
<title>node12</title>
<polygon fill="lightgrey" stroke="black" points="145.14,-182 17.14,-182 17.14,-146 145.14,-146 145.14,-182"/>
<text text-anchor="middle" x="81.14" y="-160.3" font-family="Times,serif" font-size="14.00">#12 LabelNode</text>
</g>
<!-- node11&#45;&gt;node12 -->
<g id="edge18" class="edge">
<title>node11&#45;&gt;node12</title>
<path fill="none" stroke="red" d="M81.14,-218.81C81.14,-210.79 81.14,-201.05 81.14,-192.07"/>
<polygon fill="red" stroke="red" points="84.64,-192.03 81.14,-182.03 77.64,-192.03 84.64,-192.03"/>
</g>
<!-- node14 -->
<g id="node14" class="node">
<title>node14</title>
<polygon fill="lightgrey" stroke="black" points="131.64,-36 30.64,-36 30.64,0 131.64,0 131.64,-36"/>
<text text-anchor="middle" x="81.14" y="-14.3" font-family="Times,serif" font-size="14.00">#14 Return</text>
</g>
<!-- node11&#45;&gt;node14 -->
<g id="edge21" class="edge">
<title>node11&#45;&gt;node14</title>
<path fill="none" stroke="green" d="M116.9,-218.93C131.22,-210.07 146.19,-197.77 154.14,-182 175.95,-138.74 175.95,-116.26 154.14,-73 147.74,-60.31 136.8,-49.87 125.31,-41.66"/>
<polygon fill="green" stroke="green" points="127.17,-38.69 116.9,-36.07 123.3,-44.52 127.17,-38.69"/>
</g>
<!-- node10&#45;&gt;node11 -->
<g id="edge14" class="edge">
<title>node10&#45;&gt;node11</title>
<path fill="none" stroke="black" d="M128.89,-291.81C121.15,-283.09 111.61,-272.34 103.1,-262.75"/>
<polygon fill="black" stroke="black" points="105.5,-260.19 96.25,-255.03 100.27,-264.83 105.5,-260.19"/>
<text text-anchor="middle" x="114.6" y="-259.28" font-family="Times,serif" font-size="14.00">*1</text>
</g>
<!-- node13 -->
<g id="node13" class="node">
<title>node13</title>
<polygon fill="lightgrey" stroke="black" points="145.14,-109 17.14,-109 17.14,-73 145.14,-73 145.14,-109"/>
<text text-anchor="middle" x="81.14" y="-87.3" font-family="Times,serif" font-size="14.00">#13 LabelNode</text>
</g>
<!-- node12&#45;&gt;node13 -->
<g id="edge19" class="edge">
<title>node12&#45;&gt;node13</title>
<path fill="none" stroke="red" d="M81.14,-145.81C81.14,-137.79 81.14,-128.05 81.14,-119.07"/>
<polygon fill="red" stroke="red" points="84.64,-119.03 81.14,-109.03 77.64,-119.03 84.64,-119.03"/>
</g>
<!-- node13&#45;&gt;node14 -->
<g id="edge20" class="edge">
<title>node13&#45;&gt;node14</title>
<path fill="none" stroke="red" d="M81.14,-72.81C81.14,-64.79 81.14,-55.05 81.14,-46.07"/>
<polygon fill="red" stroke="red" points="84.64,-46.03 81.14,-36.03 77.64,-46.03 84.64,-46.03"/>
</g>
<!-- c0 -->
<!-- c1 -->
<!-- c0&#45;&gt;c1 -->
<g id="edge23" class="edge">
<title>c0&#45;&gt;c1</title>
<path fill="none" stroke="red" d="M1155.03,-684C1166.25,-684 1224.38,-684 1250,-684"/>
<polygon fill="red" stroke="red" points="1250.2,-687.5 1260.2,-684 1250.2,-680.5 1250.2,-687.5"/>
<text text-anchor="middle" x="1207.64" y="-690.8" font-family="Times,serif" font-size="14.00">Control flow</text>
</g>
<!-- c2 -->
<!-- c3 -->
<!-- c2&#45;&gt;c3 -->
<g id="edge24" class="edge">
<title>c2&#45;&gt;c3</title>
<path fill="none" stroke="red" stroke-dasharray="5,2" d="M948.22,-684C965.19,-684 1081.34,-684 1119.22,-684"/>
<polygon fill="red" stroke="red" points="1119.31,-687.5 1129.31,-684 1119.31,-680.5 1119.31,-687.5"/>
<text text-anchor="middle" x="1038.64" y="-690.8" font-family="Times,serif" font-size="14.00">Control flow back edge</text>
</g>
<!-- d0 -->
<!-- d1 -->
<!-- d0&#45;&gt;d1 -->
<g id="edge25" class="edge">
<title>d0&#45;&gt;d1</title>
<path fill="none" stroke="black" d="M837,-684C846.54,-684 890.45,-684 912.06,-684"/>
<polygon fill="black" stroke="black" points="912.29,-687.5 922.29,-684 912.29,-680.5 912.29,-687.5"/>
<text text-anchor="middle" x="879.64" y="-690.8" font-family="Times,serif" font-size="14.00">Data flow</text>
</g>
<!-- d2 -->
<!-- d3 -->
<!-- d2&#45;&gt;d3 -->
<g id="edge26" class="edge">
<title>d2&#45;&gt;d3</title>
<path fill="none" stroke="black" stroke-dasharray="1,5" d="M710.94,-684C721.6,-684 776.6,-684 801.21,-684"/>
<polygon fill="black" stroke="black" points="801.28,-687.5 811.28,-684 801.28,-680.5 801.28,-687.5"/>
<text text-anchor="middle" x="761.14" y="-690.8" font-family="Times,serif" font-size="14.00">Declaration</text>
</g>
<!-- d4 -->
<!-- d5 -->
<!-- d4&#45;&gt;d5 -->
<g id="edge27" class="edge">
<title>d4&#45;&gt;d5</title>
<path fill="none" stroke="blue" d="M568.24,-684C580.86,-684 647.02,-684 674.82,-684"/>
<polygon fill="blue" stroke="blue" points="674.98,-687.5 684.98,-684 674.98,-680.5 674.98,-687.5"/>
<text text-anchor="middle" x="626.64" y="-690.8" font-family="Times,serif" font-size="14.00">PHI Data flow</text>
</g>
<!-- d6 -->
<!-- d7 -->
<!-- d6&#45;&gt;d7 -->
<g id="edge28" class="edge">
<title>d6&#45;&gt;d7</title>
<path fill="none" stroke="green" d="M431.14,-684C443.08,-684 505.44,-684 532.07,-684"/>
<polygon fill="green" stroke="green" points="532.09,-687.5 542.09,-684 532.09,-680.5 532.09,-687.5"/>
<text text-anchor="middle" x="486.64" y="-690.8" font-family="Times,serif" font-size="14.00">Memory flow</text>
</g>
</g>
</svg>
