<?xml version="1.0" encoding="UTF-8" standalone="no"?>
<!DOCTYPE svg PUBLIC "-//W3C//DTD SVG 1.1//EN"
 "http://www.w3.org/Graphics/SVG/1.1/DTD/svg11.dtd">
<!-- Generated by graphviz version 2.43.0 (0)
 -->
<!-- Title: %3 Pages: 1 -->
<svg width="1571pt" height="441pt"
 viewBox="0.00 0.00 1571.00 440.80" xmlns="http://www.w3.org/2000/svg" xmlns:xlink="http://www.w3.org/1999/xlink">
<g id="graph0" class="graph" transform="scale(1 1) rotate(0) translate(4 436.8)">
<title>%3</title>
<polygon fill="white" stroke="transparent" points="-4,4 -4,-436.8 1567,-436.8 1567,4 -4,4"/>
<g id="clust1" class="cluster">
<title>cluster_0</title>
<polygon fill="none" stroke="lightgray" points="563,-211 563,-336 699,-336 699,-211 563,-211"/>
</g>
<g id="clust2" class="cluster">
<title>cluster_1</title>
<polygon fill="none" stroke="lightgray" points="133,-138 133,-263 515,-263 515,-138 133,-138"/>
</g>
<g id="clust3" class="cluster">
<title>cluster_000</title>
<polygon fill="none" stroke="black" points="702,-382.2 702,-424.8 1555,-424.8 1555,-382.2 702,-382.2"/>
<text text-anchor="middle" x="1128.5" y="-409.6" font-family="Times,serif" font-size="14.00">Legend</text>
</g>
<!-- node0 -->
<g id="node1" class="node">
<title>node0</title>
<polygon fill="lightgrey" stroke="transparent" points="692.5,-419 569.5,-419 569.5,-365 692.5,-365 692.5,-419"/>
<polygon fill="none" stroke="black" points="570,-392 570,-419 693,-419 693,-392 570,-392"/>
<text text-anchor="start" x="591" y="-401.8" font-family="Times,serif" font-size="14.00">#0 Method</text>
<polygon fill="yellow" stroke="transparent" points="570,-365 570,-392 693,-392 693,-365 570,-365"/>
<polygon fill="none" stroke="black" points="570,-365 570,-392 693,-392 693,-365 570,-365"/>
<text text-anchor="start" x="576" y="-374.8" font-family="Times,serif" font-size="14.00">this : ArrayTest</text>
</g>
<!-- node5 -->
<g id="node2" class="node">
<title>node5</title>
<polygon fill="orange" stroke="black" points="747.3,-156.54 747.3,-171.46 682.1,-182 589.9,-182 524.7,-171.46 524.7,-156.54 589.9,-146 682.1,-146 747.3,-156.54"/>
<text text-anchor="middle" x="636" y="-160.3" font-family="Times,serif" font-size="14.00">#5 NewArray : int[]</text>
</g>
<!-- node0&#45;&gt;node5 -->
<g id="edge2" class="edge">
<title>node0&#45;&gt;node5</title>
<path fill="none" stroke="green" d="M678.39,-364.75C688.3,-356.88 697.42,-347.28 703,-336 711.67,-318.47 715.39,-307.13 703,-292 661.64,-241.48 600.36,-313.52 559,-263 544.36,-245.12 547.59,-231.1 559,-211 564.41,-201.46 572.68,-193.69 581.81,-187.43"/>
<polygon fill="green" stroke="green" points="583.74,-190.35 590.39,-182.11 580.05,-184.41 583.74,-190.35"/>
</g>
<!-- node2 -->
<g id="node4" class="node">
<title>node2</title>
<polygon fill="lightgrey" stroke="black" points="690.5,-328 571.5,-328 571.5,-292 690.5,-292 690.5,-328"/>
<text text-anchor="middle" x="631" y="-306.3" font-family="Times,serif" font-size="14.00">#2 LabelNode</text>
</g>
<!-- node0&#45;&gt;node2 -->
<g id="edge4" class="edge">
<title>node0&#45;&gt;node2</title>
<path fill="none" stroke="red" d="M631,-364.81C631,-356.35 631,-346.95 631,-338.4"/>
<polygon fill="red" stroke="red" points="634.5,-338.17 631,-328.17 627.5,-338.17 634.5,-338.17"/>
</g>
<!-- node11 -->
<g id="node7" class="node">
<title>node11</title>
<polygon fill="lightgrey" stroke="black" points="366.5,-109 193.5,-109 193.5,-73 366.5,-73 366.5,-109"/>
<text text-anchor="middle" x="280" y="-87.3" font-family="Times,serif" font-size="14.00">#11 ArrayStore : int[]</text>
</g>
<!-- node5&#45;&gt;node11 -->
<g id="edge7" class="edge">
<title>node5&#45;&gt;node11</title>
<path fill="none" stroke="black" d="M566.41,-149.72C548,-145.87 528.22,-141.7 510,-138 464.76,-128.81 414.61,-119.09 372.68,-110.96"/>
<polygon fill="black" stroke="black" points="373.24,-107.51 362.76,-109.04 371.91,-114.38 373.24,-107.51"/>
<text text-anchor="middle" x="382.16" y="-100.49" font-family="Times,serif" font-size="14.00">*0</text>
</g>
<!-- node5&#45;&gt;node11 -->
<g id="edge10" class="edge">
<title>node5&#45;&gt;node11</title>
<path fill="none" stroke="green" d="M576.44,-148.16C560.72,-144.76 543.78,-141.2 528,-138 478.23,-127.89 422.52,-117.14 376.48,-108.57"/>
<polygon fill="green" stroke="green" points="376.98,-105.1 366.51,-106.72 375.7,-111.99 376.98,-105.1"/>
</g>
<!-- node12 -->
<g id="node9" class="node">
<title>node12</title>
<polygon fill="lightgrey" stroke="black" points="560,-109 402,-109 402,-73 560,-73 560,-109"/>
<text text-anchor="middle" x="481" y="-87.3" font-family="Times,serif" font-size="14.00">#12 ArrayLoad : int</text>
</g>
<!-- node5&#45;&gt;node12 -->
<g id="edge12" class="edge">
<title>node5&#45;&gt;node12</title>
<path fill="none" stroke="black" d="M602.88,-145.88C590.73,-139.75 576.82,-132.9 564,-127 553.88,-122.34 542.98,-117.57 532.5,-113.11"/>
<polygon fill="black" stroke="black" points="533.6,-109.77 523.03,-109.1 530.88,-116.22 533.6,-109.77"/>
<text text-anchor="middle" x="543.02" y="-104.68" font-family="Times,serif" font-size="14.00">*0</text>
</g>
<!-- node10 -->
<g id="node14" class="node">
<title>node10</title>
<polygon fill="orange" stroke="black" points="776.39,-83.54 776.39,-98.46 718.17,-109 635.83,-109 577.61,-98.46 577.61,-83.54 635.83,-73 718.17,-73 776.39,-83.54"/>
<text text-anchor="middle" x="677" y="-87.3" font-family="Times,serif" font-size="14.00">#10 ArrayLength</text>
</g>
<!-- node5&#45;&gt;node10 -->
<g id="edge20" class="edge">
<title>node5&#45;&gt;node10</title>
<path fill="none" stroke="black" d="M645.92,-145.81C650.76,-137.44 656.67,-127.2 662.04,-117.9"/>
<polygon fill="black" stroke="black" points="665.2,-119.44 667.17,-109.03 659.13,-115.94 665.2,-119.44"/>
<text text-anchor="middle" x="665.42" y="-125.25" font-family="Times,serif" font-size="14.00">*0</text>
</g>
<!-- node4 -->
<g id="node3" class="node">
<title>node4</title>
<polygon fill="lightgreen" stroke="black" points="691.19,-229.54 691.19,-244.46 656.52,-255 607.48,-255 572.81,-244.46 572.81,-229.54 607.48,-219 656.52,-219 691.19,-229.54"/>
<text text-anchor="middle" x="632" y="-233.3" font-family="Times,serif" font-size="14.00">#4 int 10</text>
</g>
<!-- node4&#45;&gt;node5 -->
<g id="edge1" class="edge">
<title>node4&#45;&gt;node5</title>
<path fill="none" stroke="black" d="M632.97,-218.81C633.42,-210.79 633.97,-201.05 634.47,-192.07"/>
<polygon fill="black" stroke="black" points="637.97,-192.21 635.04,-182.03 630.98,-191.82 637.97,-192.21"/>
<text text-anchor="middle" x="642.46" y="-196.9" font-family="Times,serif" font-size="14.00">*0</text>
</g>
<!-- node2&#45;&gt;node4 -->
<g id="edge3" class="edge">
<title>node2&#45;&gt;node4</title>
<path fill="none" stroke="black" stroke-dasharray="1,5" d="M631.24,-291.81C631.36,-283.79 631.49,-274.05 631.62,-265.07"/>
<polygon fill="black" stroke="black" points="635.12,-265.08 631.76,-255.03 628.12,-264.98 635.12,-265.08"/>
</g>
<!-- node3 -->
<g id="node5" class="node">
<title>node3</title>
<polygon fill="lightgrey" stroke="black" points="383.5,-255 264.5,-255 264.5,-219 383.5,-219 383.5,-255"/>
<text text-anchor="middle" x="324" y="-233.3" font-family="Times,serif" font-size="14.00">#3 LabelNode</text>
</g>
<!-- node2&#45;&gt;node3 -->
<g id="edge5" class="edge">
<title>node2&#45;&gt;node3</title>
<path fill="none" stroke="red" d="M571.44,-295.23C520.47,-283.44 447.05,-266.46 393.43,-254.06"/>
<polygon fill="red" stroke="red" points="394.18,-250.64 383.65,-251.8 392.61,-257.46 394.18,-250.64"/>
</g>
<!-- node9 -->
<g id="node6" class="node">
<title>node9</title>
<polygon fill="lightgreen" stroke="black" points="246.52,-156.54 246.52,-171.46 215.76,-182 172.24,-182 141.48,-171.46 141.48,-156.54 172.24,-146 215.76,-146 246.52,-156.54"/>
<text text-anchor="middle" x="194" y="-160.3" font-family="Times,serif" font-size="14.00">#9 int 0</text>
</g>
<!-- node3&#45;&gt;node9 -->
<g id="edge6" class="edge">
<title>node3&#45;&gt;node9</title>
<path fill="none" stroke="black" stroke-dasharray="1,5" d="M292.86,-218.99C274.19,-208.79 250.34,-195.77 230.74,-185.07"/>
<polygon fill="black" stroke="black" points="232.24,-181.9 221.79,-180.18 228.89,-188.04 232.24,-181.9"/>
</g>
<!-- node8 -->
<g id="node8" class="node">
<title>node8</title>
<polygon fill="lightgreen" stroke="black" points="383.19,-156.54 383.19,-171.46 348.52,-182 299.48,-182 264.81,-171.46 264.81,-156.54 299.48,-146 348.52,-146 383.19,-156.54"/>
<text text-anchor="middle" x="324" y="-160.3" font-family="Times,serif" font-size="14.00">#8 int 10</text>
</g>
<!-- node3&#45;&gt;node8 -->
<g id="edge11" class="edge">
<title>node3&#45;&gt;node8</title>
<path fill="none" stroke="black" stroke-dasharray="1,5" d="M324,-218.81C324,-210.79 324,-201.05 324,-192.07"/>
<polygon fill="black" stroke="black" points="327.5,-192.03 324,-182.03 320.5,-192.03 327.5,-192.03"/>
</g>
<!-- node7 -->
<g id="node10" class="node">
<title>node7</title>
<polygon fill="lightgreen" stroke="black" points="506.52,-156.54 506.52,-171.46 475.76,-182 432.24,-182 401.48,-171.46 401.48,-156.54 432.24,-146 475.76,-146 506.52,-156.54"/>
<text text-anchor="middle" x="454" y="-160.3" font-family="Times,serif" font-size="14.00">#7 int 1</text>
</g>
<!-- node3&#45;&gt;node7 -->
<g id="edge15" class="edge">
<title>node3&#45;&gt;node7</title>
<path fill="none" stroke="black" stroke-dasharray="1,5" d="M355.14,-218.99C373.81,-208.79 397.66,-195.77 417.26,-185.07"/>
<polygon fill="black" stroke="black" points="419.11,-188.04 426.21,-180.18 415.76,-181.9 419.11,-188.04"/>
</g>
<!-- node6 -->
<g id="node13" class="node">
<title>node6</title>
<polygon fill="lightgrey" stroke="black" points="123.5,-182 4.5,-182 4.5,-146 123.5,-146 123.5,-182"/>
<text text-anchor="middle" x="64" y="-160.3" font-family="Times,serif" font-size="14.00">#6 LabelNode</text>
</g>
<!-- node3&#45;&gt;node6 -->
<g id="edge19" class="edge">
<title>node3&#45;&gt;node6</title>
<path fill="none" stroke="red" d="M264.46,-231.74C206.25,-226.73 122.36,-217 94,-201 89.04,-198.2 84.55,-194.24 80.64,-189.97"/>
<polygon fill="red" stroke="red" points="83.28,-187.67 74.26,-182.11 77.85,-192.08 83.28,-187.67"/>
</g>
<!-- node9&#45;&gt;node11 -->
<g id="edge8" class="edge">
<title>node9&#45;&gt;node11</title>
<path fill="none" stroke="black" d="M214.82,-145.81C225.8,-136.74 239.45,-125.48 251.41,-115.6"/>
<polygon fill="black" stroke="black" points="253.89,-118.09 259.37,-109.03 249.43,-112.7 253.89,-118.09"/>
<text text-anchor="middle" x="250.78" y="-123.39" font-family="Times,serif" font-size="14.00">*1</text>
</g>
<!-- node11&#45;&gt;node12 -->
<g id="edge14" class="edge">
<title>node11&#45;&gt;node12</title>
<path fill="none" stroke="green" d="M366.76,-91C375.01,-91 383.26,-91 391.51,-91"/>
<polygon fill="green" stroke="green" points="391.57,-94.5 401.57,-91 391.57,-87.5 391.57,-94.5"/>
</g>
<!-- node8&#45;&gt;node11 -->
<g id="edge9" class="edge">
<title>node8&#45;&gt;node11</title>
<path fill="none" stroke="black" d="M313.35,-145.81C308.11,-137.35 301.68,-126.98 295.87,-117.61"/>
<polygon fill="black" stroke="black" points="298.8,-115.69 290.55,-109.03 292.85,-119.37 298.8,-115.69"/>
<text text-anchor="middle" x="307.29" y="-116.28" font-family="Times,serif" font-size="14.00">*2</text>
</g>
<!-- node14 -->
<g id="node11" class="node">
<title>node14</title>
<polygon fill="lightgrey" stroke="black" points="114.5,-36 13.5,-36 13.5,0 114.5,0 114.5,-36"/>
<text text-anchor="middle" x="64" y="-14.3" font-family="Times,serif" font-size="14.00">#14 Return</text>
</g>
<!-- node12&#45;&gt;node14 -->
<g id="edge17" class="edge">
<title>node12&#45;&gt;node14</title>
<path fill="none" stroke="green" d="M401.58,-76.48C320.9,-62.74 197.7,-41.76 124.57,-29.31"/>
<polygon fill="green" stroke="green" points="125.04,-25.84 114.59,-27.61 123.86,-32.74 125.04,-25.84"/>
</g>
<!-- node7&#45;&gt;node12 -->
<g id="edge13" class="edge">
<title>node7&#45;&gt;node12</title>
<path fill="none" stroke="black" d="M460.54,-145.81C463.65,-137.62 467.45,-127.62 470.93,-118.48"/>
<polygon fill="black" stroke="black" points="474.24,-119.62 474.52,-109.03 467.7,-117.13 474.24,-119.62"/>
<text text-anchor="middle" x="475.98" y="-125.28" font-family="Times,serif" font-size="14.00">*1</text>
</g>
<!-- node13 -->
<g id="node12" class="node">
<title>node13</title>
<polygon fill="lightgrey" stroke="black" points="128,-109 0,-109 0,-73 128,-73 128,-109"/>
<text text-anchor="middle" x="64" y="-87.3" font-family="Times,serif" font-size="14.00">#13 LabelNode</text>
</g>
<!-- node13&#45;&gt;node14 -->
<g id="edge16" class="edge">
<title>node13&#45;&gt;node14</title>
<path fill="none" stroke="red" d="M64,-72.81C64,-64.79 64,-55.05 64,-46.07"/>
<polygon fill="red" stroke="red" points="67.5,-46.03 64,-36.03 60.5,-46.03 67.5,-46.03"/>
</g>
<!-- node6&#45;&gt;node13 -->
<g id="edge18" class="edge">
<title>node6&#45;&gt;node13</title>
<path fill="none" stroke="red" d="M64,-145.81C64,-137.79 64,-128.05 64,-119.07"/>
<polygon fill="red" stroke="red" points="67.5,-119.03 64,-109.03 60.5,-119.03 67.5,-119.03"/>
</g>
<!-- c0 -->
<!-- c1 -->
<!-- c0&#45;&gt;c1 -->
<g id="edge21" class="edge">
<title>c0&#45;&gt;c1</title>
<path fill="none" stroke="red" d="M1437.89,-392C1449.11,-392 1507.24,-392 1532.86,-392"/>
<polygon fill="red" stroke="red" points="1533.06,-395.5 1543.06,-392 1533.06,-388.5 1533.06,-395.5"/>
<text text-anchor="middle" x="1490.5" y="-398.8" font-family="Times,serif" font-size="14.00">Control flow</text>
</g>
<!-- c2 -->
<!-- c3 -->
<!-- c2&#45;&gt;c3 -->
<g id="edge22" class="edge">
<title>c2&#45;&gt;c3</title>
<path fill="none" stroke="red" stroke-dasharray="5,2" d="M1231.08,-392C1248.05,-392 1364.21,-392 1402.08,-392"/>
<polygon fill="red" stroke="red" points="1402.17,-395.5 1412.17,-392 1402.17,-388.5 1402.17,-395.5"/>
<text text-anchor="middle" x="1321.5" y="-398.8" font-family="Times,serif" font-size="14.00">Control flow back edge</text>
</g>
<!-- d0 -->
<!-- d1 -->
<!-- d0&#45;&gt;d1 -->
<g id="edge23" class="edge">
<title>d0&#45;&gt;d1</title>
<path fill="none" stroke="black" d="M1119.86,-392C1129.41,-392 1173.31,-392 1194.92,-392"/>
<polygon fill="black" stroke="black" points="1195.15,-395.5 1205.15,-392 1195.15,-388.5 1195.15,-395.5"/>
<text text-anchor="middle" x="1162.5" y="-398.8" font-family="Times,serif" font-size="14.00">Data flow</text>
</g>
<!-- d2 -->
<!-- d3 -->
<!-- d2&#45;&gt;d3 -->
<g id="edge24" class="edge">
<title>d2&#45;&gt;d3</title>
<path fill="none" stroke="black" stroke-dasharray="1,5" d="M993.81,-392C1004.46,-392 1059.46,-392 1084.08,-392"/>
<polygon fill="black" stroke="black" points="1084.15,-395.5 1094.15,-392 1084.15,-388.5 1084.15,-395.5"/>
<text text-anchor="middle" x="1044" y="-398.8" font-family="Times,serif" font-size="14.00">Declaration</text>
</g>
<!-- d4 -->
<!-- d5 -->
<!-- d4&#45;&gt;d5 -->
<g id="edge25" class="edge">
<title>d4&#45;&gt;d5</title>
<path fill="none" stroke="blue" d="M851.1,-392C863.72,-392 929.88,-392 957.68,-392"/>
<polygon fill="blue" stroke="blue" points="957.84,-395.5 967.84,-392 957.84,-388.5 957.84,-395.5"/>
<text text-anchor="middle" x="909.5" y="-398.8" font-family="Times,serif" font-size="14.00">PHI Data flow</text>
</g>
<!-- d6 -->
<!-- d7 -->
<!-- d6&#45;&gt;d7 -->
<g id="edge26" class="edge">
<title>d6&#45;&gt;d7</title>
<path fill="none" stroke="green" d="M714,-392C725.94,-392 788.3,-392 814.93,-392"/>
<polygon fill="green" stroke="green" points="814.95,-395.5 824.95,-392 814.95,-388.5 814.95,-395.5"/>
<text text-anchor="middle" x="769.5" y="-398.8" font-family="Times,serif" font-size="14.00">Memory flow</text>
</g>
</g>
</svg>
