<?xml version="1.0" encoding="UTF-8" standalone="no"?>
<!DOCTYPE svg PUBLIC "-//W3C//DTD SVG 1.1//EN"
 "http://www.w3.org/Graphics/SVG/1.1/DTD/svg11.dtd">
<!-- Generated by graphviz version 2.43.0 (0)
 -->
<!-- Title: %3 Pages: 1 -->
<svg width="1074pt" height="587pt"
 viewBox="0.00 0.00 1074.15 586.80" xmlns="http://www.w3.org/2000/svg" xmlns:xlink="http://www.w3.org/1999/xlink">
<g id="graph0" class="graph" transform="scale(1 1) rotate(0) translate(4 582.8)">
<title>%3</title>
<polygon fill="white" stroke="transparent" points="-4,4 -4,-582.8 1070.15,-582.8 1070.15,4 -4,4"/>
<g id="clust1" class="cluster">
<title>cluster_0</title>
<polygon fill="none" stroke="lightgray" points="285.15,-138 285.15,-263 465.15,-263 465.15,-138 285.15,-138"/>
</g>
<g id="clust2" class="cluster">
<title>cluster_1</title>
<polygon fill="none" stroke="lightgray" points="66.15,-357 66.15,-482 202.15,-482 202.15,-357 66.15,-357"/>
</g>
<g id="clust3" class="cluster">
<title>cluster_2</title>
<polygon fill="none" stroke="lightgray" points="232.15,-284 232.15,-409 490.15,-409 490.15,-284 232.15,-284"/>
</g>
<g id="clust4" class="cluster">
<title>cluster_000</title>
<polygon fill="none" stroke="black" points="205.15,-528.2 205.15,-570.8 1058.15,-570.8 1058.15,-528.2 205.15,-528.2"/>
<text text-anchor="middle" x="631.65" y="-555.6" font-family="Times,serif" font-size="14.00">Legend</text>
</g>
<!-- node0 -->
<g id="node1" class="node">
<title>node0</title>
<polygon fill="lightgrey" stroke="transparent" points="195.65,-565 72.65,-565 72.65,-511 195.65,-511 195.65,-565"/>
<polygon fill="none" stroke="black" points="73.15,-538 73.15,-565 196.15,-565 196.15,-538 73.15,-538"/>
<text text-anchor="start" x="94.15" y="-547.8" font-family="Times,serif" font-size="14.00">#0 Method</text>
<polygon fill="yellow" stroke="transparent" points="73.15,-511 73.15,-538 196.15,-538 196.15,-511 73.15,-511"/>
<polygon fill="none" stroke="black" points="73.15,-511 73.15,-538 196.15,-538 196.15,-511 73.15,-511"/>
<text text-anchor="start" x="79.15" y="-520.8" font-family="Times,serif" font-size="14.00">this : ArrayTest</text>
</g>
<!-- node2 -->
<g id="node2" class="node">
<title>node2</title>
<polygon fill="lightgrey" stroke="black" points="193.65,-474 74.65,-474 74.65,-438 193.65,-438 193.65,-474"/>
<text text-anchor="middle" x="134.15" y="-452.3" font-family="Times,serif" font-size="14.00">#2 LabelNode</text>
</g>
<!-- node0&#45;&gt;node2 -->
<g id="edge1" class="edge">
<title>node0&#45;&gt;node2</title>
<path fill="none" stroke="red" d="M134.15,-510.81C134.15,-502.35 134.15,-492.95 134.15,-484.4"/>
<polygon fill="red" stroke="red" points="137.65,-484.17 134.15,-474.17 130.65,-484.17 137.65,-484.17"/>
</g>
<!-- node5 -->
<g id="node6" class="node">
<title>node5</title>
<polygon fill="orange" stroke="black" points="222.46,-302.54 222.46,-317.46 157.26,-328 65.05,-328 -0.15,-317.46 -0.15,-302.54 65.05,-292 157.26,-292 222.46,-302.54"/>
<text text-anchor="middle" x="111.15" y="-306.3" font-family="Times,serif" font-size="14.00">#5 NewArray : int[]</text>
</g>
<!-- node0&#45;&gt;node5 -->
<g id="edge10" class="edge">
<title>node0&#45;&gt;node5</title>
<path fill="none" stroke="green" d="M195.82,-512.98C197.61,-512.31 199.4,-511.65 201.15,-511 339.22,-460.2 592.38,-466.52 494.15,-357 454.45,-312.73 287.14,-335.5 228.15,-328 218.93,-326.83 209.32,-325.54 199.73,-324.21"/>
<polygon fill="green" stroke="green" points="200.16,-320.74 189.77,-322.82 199.19,-327.67 200.16,-320.74"/>
</g>
<!-- node3 -->
<g id="node3" class="node">
<title>node3</title>
<polygon fill="lightgrey" stroke="black" points="435.65,-401 316.65,-401 316.65,-365 435.65,-365 435.65,-401"/>
<text text-anchor="middle" x="376.15" y="-379.3" font-family="Times,serif" font-size="14.00">#3 LabelNode</text>
</g>
<!-- node2&#45;&gt;node3 -->
<g id="edge2" class="edge">
<title>node2&#45;&gt;node3</title>
<path fill="none" stroke="red" d="M164.31,-437.98C177.19,-431.28 192.59,-424.01 207.15,-419 238.97,-408.06 275.4,-399.98 306.27,-394.36"/>
<polygon fill="red" stroke="red" points="307.27,-397.74 316.51,-392.55 306.05,-390.84 307.27,-397.74"/>
</g>
<!-- node4 -->
<g id="node8" class="node">
<title>node4</title>
<polygon fill="lightgreen" stroke="black" points="192.34,-375.54 192.34,-390.46 157.67,-401 108.64,-401 73.96,-390.46 73.96,-375.54 108.64,-365 157.67,-365 192.34,-375.54"/>
<text text-anchor="middle" x="133.15" y="-379.3" font-family="Times,serif" font-size="14.00">#4 int 10</text>
</g>
<!-- node2&#45;&gt;node4 -->
<g id="edge11" class="edge">
<title>node2&#45;&gt;node4</title>
<path fill="none" stroke="black" stroke-dasharray="1,5" d="M133.91,-437.81C133.8,-429.79 133.66,-420.05 133.53,-411.07"/>
<polygon fill="black" stroke="black" points="137.03,-410.98 133.39,-401.03 130.03,-411.08 137.03,-410.98"/>
</g>
<!-- node7 -->
<g id="node4" class="node">
<title>node7</title>
<polygon fill="lightgreen" stroke="black" points="358.34,-302.54 358.34,-317.46 323.67,-328 274.64,-328 239.96,-317.46 239.96,-302.54 274.64,-292 323.67,-292 358.34,-302.54"/>
<text text-anchor="middle" x="299.15" y="-306.3" font-family="Times,serif" font-size="14.00">#7 int 10</text>
</g>
<!-- node3&#45;&gt;node7 -->
<g id="edge3" class="edge">
<title>node3&#45;&gt;node7</title>
<path fill="none" stroke="black" stroke-dasharray="1,5" d="M357.51,-364.81C347.77,-355.83 335.69,-344.69 325.06,-334.89"/>
<polygon fill="black" stroke="black" points="327.34,-332.23 317.62,-328.03 322.6,-337.38 327.34,-332.23"/>
</g>
<!-- node8 -->
<g id="node5" class="node">
<title>node8</title>
<polygon fill="lightgrey" stroke="black" points="457.15,-255 293.15,-255 293.15,-219 457.15,-219 457.15,-255"/>
<text text-anchor="middle" x="375.15" y="-233.3" font-family="Times,serif" font-size="14.00">#8 ArrayStore : int[]</text>
</g>
<!-- node3&#45;&gt;node8 -->
<g id="edge8" class="edge">
<title>node3&#45;&gt;node8</title>
<path fill="none" stroke="red" d="M435.72,-368.32C456.95,-360.27 478.68,-347.64 491.15,-328 501.64,-311.49 502.14,-300.18 491.15,-284 484.3,-273.92 474.87,-266.05 464.31,-259.9"/>
<polygon fill="red" stroke="red" points="465.69,-256.67 455.2,-255.13 462.44,-262.87 465.69,-256.67"/>
</g>
<!-- node6 -->
<g id="node7" class="node">
<title>node6</title>
<polygon fill="lightgreen" stroke="black" points="481.68,-302.54 481.68,-317.46 450.91,-328 407.4,-328 376.63,-317.46 376.63,-302.54 407.4,-292 450.91,-292 481.68,-302.54"/>
<text text-anchor="middle" x="429.15" y="-306.3" font-family="Times,serif" font-size="14.00">#6 int 0</text>
</g>
<!-- node3&#45;&gt;node6 -->
<g id="edge21" class="edge">
<title>node3&#45;&gt;node6</title>
<path fill="none" stroke="black" stroke-dasharray="1,5" d="M388.98,-364.81C395.36,-356.27 403.2,-345.77 410.25,-336.32"/>
<polygon fill="black" stroke="black" points="413.26,-338.14 416.44,-328.03 407.65,-333.95 413.26,-338.14"/>
</g>
<!-- node7&#45;&gt;node8 -->
<g id="edge6" class="edge">
<title>node7&#45;&gt;node8</title>
<path fill="none" stroke="black" d="M317.55,-291.81C327.16,-282.83 339.09,-271.69 349.58,-261.89"/>
<polygon fill="black" stroke="black" points="352.01,-264.41 356.92,-255.03 347.23,-259.3 352.01,-264.41"/>
<text text-anchor="middle" x="349.45" y="-269.88" font-family="Times,serif" font-size="14.00">*2</text>
</g>
<!-- node12 -->
<g id="node9" class="node">
<title>node12</title>
<polygon fill="lightgrey" stroke="black" points="234.15,-109 76.15,-109 76.15,-73 234.15,-73 234.15,-109"/>
<text text-anchor="middle" x="155.15" y="-87.3" font-family="Times,serif" font-size="14.00">#12 ArrayLoad : int</text>
</g>
<!-- node8&#45;&gt;node12 -->
<g id="edge14" class="edge">
<title>node8&#45;&gt;node12</title>
<path fill="none" stroke="green" d="M347.88,-218.89C331.15,-208.34 309.35,-194.49 290.15,-182 255.43,-159.4 216.04,-133.06 188.81,-114.74"/>
<polygon fill="green" stroke="green" points="190.67,-111.77 180.42,-109.09 186.76,-117.58 190.67,-111.77"/>
</g>
<!-- node11 -->
<g id="node10" class="node">
<title>node11</title>
<polygon fill="lightgreen" stroke="black" points="417.34,-156.54 417.34,-171.46 382.67,-182 333.64,-182 298.96,-171.46 298.96,-156.54 333.64,-146 382.67,-146 417.34,-156.54"/>
<text text-anchor="middle" x="358.15" y="-160.3" font-family="Times,serif" font-size="14.00">#11 int 1</text>
</g>
<!-- node8&#45;&gt;node11 -->
<g id="edge15" class="edge">
<title>node8&#45;&gt;node11</title>
<path fill="none" stroke="black" stroke-dasharray="1,5" d="M371.04,-218.81C369.09,-210.7 366.73,-200.84 364.56,-191.78"/>
<polygon fill="black" stroke="black" points="367.96,-190.94 362.23,-182.03 361.15,-192.57 367.96,-190.94"/>
</g>
<!-- node10 -->
<g id="node13" class="node">
<title>node10</title>
<polygon fill="lightgrey" stroke="black" points="601.15,-182 473.15,-182 473.15,-146 601.15,-146 601.15,-182"/>
<text text-anchor="middle" x="537.15" y="-160.3" font-family="Times,serif" font-size="14.00">#10 LabelNode</text>
</g>
<!-- node8&#45;&gt;node10 -->
<g id="edge19" class="edge">
<title>node8&#45;&gt;node10</title>
<path fill="none" stroke="red" d="M413.95,-218.99C436.43,-209.14 464.92,-196.66 488.84,-186.17"/>
<polygon fill="red" stroke="red" points="490.35,-189.33 498.1,-182.11 487.54,-182.92 490.35,-189.33"/>
</g>
<!-- node5&#45;&gt;node8 -->
<g id="edge4" class="edge">
<title>node5&#45;&gt;node8</title>
<path fill="none" stroke="black" d="M164.06,-292.94C196.2,-284.16 237.95,-273.06 275.15,-263 281.53,-261.28 288.15,-259.48 294.82,-257.67"/>
<polygon fill="black" stroke="black" points="295.87,-261.01 304.61,-255.01 294.04,-254.25 295.87,-261.01"/>
<text text-anchor="middle" x="289.33" y="-264.21" font-family="Times,serif" font-size="14.00">*0</text>
</g>
<!-- node5&#45;&gt;node8 -->
<g id="edge7" class="edge">
<title>node5&#45;&gt;node8</title>
<path fill="none" stroke="green" d="M173.49,-294.61C208.79,-285.6 253.55,-273.7 293.15,-263 299.38,-261.32 305.84,-259.56 312.29,-257.79"/>
<polygon fill="green" stroke="green" points="313.67,-261.04 322.38,-255.01 311.81,-254.3 313.67,-261.04"/>
</g>
<!-- node5&#45;&gt;node12 -->
<g id="edge12" class="edge">
<title>node5&#45;&gt;node12</title>
<path fill="none" stroke="black" d="M96.08,-291.93C89.86,-283.77 83.36,-273.5 80.15,-263 74.44,-244.3 75,-237.86 80.15,-219 90.72,-180.33 116.41,-141.47 134.77,-117.1"/>
<polygon fill="black" stroke="black" points="137.6,-119.17 140.93,-109.11 132.05,-114.9 137.6,-119.17"/>
<text text-anchor="middle" x="136.56" y="-124.93" font-family="Times,serif" font-size="14.00">*0</text>
</g>
<!-- node9 -->
<g id="node14" class="node">
<title>node9</title>
<polygon fill="orange" stroke="black" points="274.87,-229.54 274.87,-244.46 220.56,-255 143.75,-255 89.43,-244.46 89.43,-229.54 143.75,-219 220.56,-219 274.87,-229.54"/>
<text text-anchor="middle" x="182.15" y="-233.3" font-family="Times,serif" font-size="14.00">#9 ArrayLength</text>
</g>
<!-- node5&#45;&gt;node9 -->
<g id="edge20" class="edge">
<title>node5&#45;&gt;node9</title>
<path fill="none" stroke="black" d="M128.34,-291.81C137.23,-282.92 148.24,-271.91 157.98,-262.17"/>
<polygon fill="black" stroke="black" points="160.53,-264.57 165.12,-255.03 155.58,-259.63 160.53,-264.57"/>
<text text-anchor="middle" x="158.28" y="-270.12" font-family="Times,serif" font-size="14.00">*0</text>
</g>
<!-- node6&#45;&gt;node8 -->
<g id="edge5" class="edge">
<title>node6&#45;&gt;node8</title>
<path fill="none" stroke="black" d="M416.08,-291.81C409.51,-283.18 401.43,-272.56 394.19,-263.03"/>
<polygon fill="black" stroke="black" points="396.94,-260.87 388.1,-255.03 391.37,-265.11 396.94,-260.87"/>
<text text-anchor="middle" x="405.8" y="-260.64" font-family="Times,serif" font-size="14.00">*1</text>
</g>
<!-- node4&#45;&gt;node5 -->
<g id="edge9" class="edge">
<title>node4&#45;&gt;node5</title>
<path fill="none" stroke="black" d="M127.83,-364.81C125.31,-356.7 122.26,-346.84 119.45,-337.78"/>
<polygon fill="black" stroke="black" points="122.73,-336.54 116.43,-328.03 116.05,-338.62 122.73,-336.54"/>
<text text-anchor="middle" x="129.87" y="-339.14" font-family="Times,serif" font-size="14.00">*0</text>
</g>
<!-- node14 -->
<g id="node11" class="node">
<title>node14</title>
<polygon fill="lightgrey" stroke="black" points="587.65,-36 486.65,-36 486.65,0 587.65,0 587.65,-36"/>
<text text-anchor="middle" x="537.15" y="-14.3" font-family="Times,serif" font-size="14.00">#14 Return</text>
</g>
<!-- node12&#45;&gt;node14 -->
<g id="edge17" class="edge">
<title>node12&#45;&gt;node14</title>
<path fill="none" stroke="green" d="M234.3,-75.29C306.18,-61.93 410.69,-42.51 476.24,-30.32"/>
<polygon fill="green" stroke="green" points="477.22,-33.7 486.41,-28.43 475.94,-26.82 477.22,-33.7"/>
</g>
<!-- node11&#45;&gt;node12 -->
<g id="edge13" class="edge">
<title>node11&#45;&gt;node12</title>
<path fill="none" stroke="black" d="M320.44,-149.81C290.37,-139.29 247.72,-124.37 213.27,-112.33"/>
<polygon fill="black" stroke="black" points="214.39,-109.01 203.79,-109.01 212.08,-115.62 214.39,-109.01"/>
<text text-anchor="middle" x="223.69" y="-103.32" font-family="Times,serif" font-size="14.00">*1</text>
</g>
<!-- node13 -->
<g id="node12" class="node">
<title>node13</title>
<polygon fill="lightgrey" stroke="black" points="601.15,-109 473.15,-109 473.15,-73 601.15,-73 601.15,-109"/>
<text text-anchor="middle" x="537.15" y="-87.3" font-family="Times,serif" font-size="14.00">#13 LabelNode</text>
</g>
<!-- node13&#45;&gt;node14 -->
<g id="edge16" class="edge">
<title>node13&#45;&gt;node14</title>
<path fill="none" stroke="red" d="M537.15,-72.81C537.15,-64.79 537.15,-55.05 537.15,-46.07"/>
<polygon fill="red" stroke="red" points="540.65,-46.03 537.15,-36.03 533.65,-46.03 540.65,-46.03"/>
</g>
<!-- node10&#45;&gt;node13 -->
<g id="edge18" class="edge">
<title>node10&#45;&gt;node13</title>
<path fill="none" stroke="red" d="M537.15,-145.81C537.15,-137.79 537.15,-128.05 537.15,-119.07"/>
<polygon fill="red" stroke="red" points="540.65,-119.03 537.15,-109.03 533.65,-119.03 540.65,-119.03"/>
</g>
<!-- c0 -->
<!-- c1 -->
<!-- c0&#45;&gt;c1 -->
<g id="edge22" class="edge">
<title>c0&#45;&gt;c1</title>
<path fill="none" stroke="red" d="M941.04,-538C952.26,-538 1010.39,-538 1036.01,-538"/>
<polygon fill="red" stroke="red" points="1036.21,-541.5 1046.21,-538 1036.21,-534.5 1036.21,-541.5"/>
<text text-anchor="middle" x="993.65" y="-544.8" font-family="Times,serif" font-size="14.00">Control flow</text>
</g>
<!-- c2 -->
<!-- c3 -->
<!-- c2&#45;&gt;c3 -->
<g id="edge23" class="edge">
<title>c2&#45;&gt;c3</title>
<path fill="none" stroke="red" stroke-dasharray="5,2" d="M734.23,-538C751.2,-538 867.36,-538 905.24,-538"/>
<polygon fill="red" stroke="red" points="905.32,-541.5 915.32,-538 905.32,-534.5 905.32,-541.5"/>
<text text-anchor="middle" x="824.65" y="-544.8" font-family="Times,serif" font-size="14.00">Control flow back edge</text>
</g>
<!-- d0 -->
<!-- d1 -->
<!-- d0&#45;&gt;d1 -->
<g id="edge24" class="edge">
<title>d0&#45;&gt;d1</title>
<path fill="none" stroke="black" d="M623.01,-538C632.56,-538 676.46,-538 698.07,-538"/>
<polygon fill="black" stroke="black" points="698.3,-541.5 708.3,-538 698.3,-534.5 698.3,-541.5"/>
<text text-anchor="middle" x="665.65" y="-544.8" font-family="Times,serif" font-size="14.00">Data flow</text>
</g>
<!-- d2 -->
<!-- d3 -->
<!-- d2&#45;&gt;d3 -->
<g id="edge25" class="edge">
<title>d2&#45;&gt;d3</title>
<path fill="none" stroke="black" stroke-dasharray="1,5" d="M496.96,-538C507.61,-538 562.62,-538 587.23,-538"/>
<polygon fill="black" stroke="black" points="587.3,-541.5 597.3,-538 587.3,-534.5 587.3,-541.5"/>
<text text-anchor="middle" x="547.15" y="-544.8" font-family="Times,serif" font-size="14.00">Declaration</text>
</g>
<!-- d4 -->
<!-- d5 -->
<!-- d4&#45;&gt;d5 -->
<g id="edge26" class="edge">
<title>d4&#45;&gt;d5</title>
<path fill="none" stroke="blue" d="M354.25,-538C366.87,-538 433.03,-538 460.83,-538"/>
<polygon fill="blue" stroke="blue" points="460.99,-541.5 470.99,-538 460.99,-534.5 460.99,-541.5"/>
<text text-anchor="middle" x="412.65" y="-544.8" font-family="Times,serif" font-size="14.00">PHI Data flow</text>
</g>
<!-- d6 -->
<!-- d7 -->
<!-- d6&#45;&gt;d7 -->
<g id="edge27" class="edge">
<title>d6&#45;&gt;d7</title>
<path fill="none" stroke="green" d="M217.15,-538C229.09,-538 291.45,-538 318.08,-538"/>
<polygon fill="green" stroke="green" points="318.1,-541.5 328.1,-538 318.1,-534.5 318.1,-541.5"/>
<text text-anchor="middle" x="272.65" y="-544.8" font-family="Times,serif" font-size="14.00">Memory flow</text>
</g>
</g>
</svg>
