<?xml version="1.0" encoding="UTF-8" standalone="no"?>
<!DOCTYPE svg PUBLIC "-//W3C//DTD SVG 1.1//EN"
 "http://www.w3.org/Graphics/SVG/1.1/DTD/svg11.dtd">
<!-- Generated by graphviz version 2.43.0 (0)
 -->
<!-- Title: %3 Pages: 1 -->
<svg width="1074pt" height="587pt"
 viewBox="0.00 0.00 1074.15 586.80" xmlns="http://www.w3.org/2000/svg" xmlns:xlink="http://www.w3.org/1999/xlink">
<g id="graph0" class="graph" transform="scale(1 1) rotate(0) translate(4 582.8)">
<title>%3</title>
<polygon fill="white" stroke="transparent" points="-4,4 -4,-582.8 1070.15,-582.8 1070.15,4 -4,4"/>
<g id="clust1" class="cluster">
<title>cluster_0</title>
<polygon fill="none" stroke="lightgray" points="268.15,-138 268.15,-263 448.15,-263 448.15,-138 268.15,-138"/>
</g>
<g id="clust2" class="cluster">
<title>cluster_1</title>
<polygon fill="none" stroke="lightgray" points="232.15,-284 232.15,-409 490.15,-409 490.15,-284 232.15,-284"/>
</g>
<g id="clust3" class="cluster">
<title>cluster_2</title>
<polygon fill="none" stroke="lightgray" points="66.15,-357 66.15,-482 202.15,-482 202.15,-357 66.15,-357"/>
</g>
<g id="clust4" class="cluster">
<title>cluster_000</title>
<polygon fill="none" stroke="black" points="205.15,-528.2 205.15,-570.8 1058.15,-570.8 1058.15,-528.2 205.15,-528.2"/>
<text text-anchor="middle" x="631.65" y="-555.6" font-family="Times,serif" font-size="14.00">Legend</text>
</g>
<!-- node0 -->
<g id="node1" class="node">
<title>node0</title>
<polygon fill="lightgrey" stroke="transparent" points="195.65,-565 72.65,-565 72.65,-511 195.65,-511 195.65,-565"/>
<polygon fill="none" stroke="black" points="73.15,-538 73.15,-565 196.15,-565 196.15,-538 73.15,-538"/>
<text text-anchor="start" x="94.15" y="-547.8" font-family="Times,serif" font-size="14.00">#0 Method</text>
<polygon fill="yellow" stroke="transparent" points="73.15,-511 73.15,-538 196.15,-538 196.15,-511 73.15,-511"/>
<polygon fill="none" stroke="black" points="73.15,-511 73.15,-538 196.15,-538 196.15,-511 73.15,-511"/>
<text text-anchor="start" x="79.15" y="-520.8" font-family="Times,serif" font-size="14.00">this : ArrayTest</text>
</g>
<!-- node2 -->
<g id="node2" class="node">
<title>node2</title>
<polygon fill="lightgrey" stroke="black" points="193.65,-474 74.65,-474 74.65,-438 193.65,-438 193.65,-474"/>
<text text-anchor="middle" x="134.15" y="-452.3" font-family="Times,serif" font-size="14.00">#2 LabelNode</text>
</g>
<!-- node0&#45;&gt;node2 -->
<g id="edge1" class="edge">
<title>node0&#45;&gt;node2</title>
<path fill="none" stroke="red" d="M134.15,-510.81C134.15,-502.35 134.15,-492.95 134.15,-484.4"/>
<polygon fill="red" stroke="red" points="137.65,-484.17 134.15,-474.17 130.65,-484.17 137.65,-484.17"/>
</g>
<!-- node5 -->
<g id="node4" class="node">
<title>node5</title>
<polygon fill="orange" stroke="black" points="222.46,-302.54 222.46,-317.46 157.26,-328 65.05,-328 -0.15,-317.46 -0.15,-302.54 65.05,-292 157.26,-292 222.46,-302.54"/>
<text text-anchor="middle" x="111.15" y="-306.3" font-family="Times,serif" font-size="14.00">#5 NewArray : int[]</text>
</g>
<!-- node0&#45;&gt;node5 -->
<g id="edge4" class="edge">
<title>node0&#45;&gt;node5</title>
<path fill="none" stroke="green" d="M195.82,-512.98C197.61,-512.31 199.4,-511.65 201.15,-511 339.22,-460.2 592.38,-466.52 494.15,-357 454.45,-312.73 287.14,-335.5 228.15,-328 218.93,-326.83 209.32,-325.54 199.73,-324.21"/>
<polygon fill="green" stroke="green" points="200.16,-320.74 189.77,-322.82 199.19,-327.67 200.16,-320.74"/>
</g>
<!-- node4 -->
<g id="node3" class="node">
<title>node4</title>
<polygon fill="lightgreen" stroke="black" points="192.34,-375.54 192.34,-390.46 157.67,-401 108.64,-401 73.96,-390.46 73.96,-375.54 108.64,-365 157.67,-365 192.34,-375.54"/>
<text text-anchor="middle" x="133.15" y="-379.3" font-family="Times,serif" font-size="14.00">#4 int 10</text>
</g>
<!-- node2&#45;&gt;node4 -->
<g id="edge2" class="edge">
<title>node2&#45;&gt;node4</title>
<path fill="none" stroke="black" stroke-dasharray="1,5" d="M133.91,-437.81C133.8,-429.79 133.66,-420.05 133.53,-411.07"/>
<polygon fill="black" stroke="black" points="137.03,-410.98 133.39,-401.03 130.03,-411.08 137.03,-410.98"/>
</g>
<!-- node3 -->
<g id="node11" class="node">
<title>node3</title>
<polygon fill="lightgrey" stroke="black" points="432.65,-401 313.65,-401 313.65,-365 432.65,-365 432.65,-401"/>
<text text-anchor="middle" x="373.15" y="-379.3" font-family="Times,serif" font-size="14.00">#3 LabelNode</text>
</g>
<!-- node2&#45;&gt;node3 -->
<g id="edge14" class="edge">
<title>node2&#45;&gt;node3</title>
<path fill="none" stroke="red" d="M164.68,-437.82C177.48,-431.17 192.73,-423.99 207.15,-419 238.04,-408.32 273.33,-400.32 303.42,-394.69"/>
<polygon fill="red" stroke="red" points="304.19,-398.1 313.4,-392.87 302.94,-391.22 304.19,-398.1"/>
</g>
<!-- node4&#45;&gt;node5 -->
<g id="edge3" class="edge">
<title>node4&#45;&gt;node5</title>
<path fill="none" stroke="black" d="M127.83,-364.81C125.31,-356.7 122.26,-346.84 119.45,-337.78"/>
<polygon fill="black" stroke="black" points="122.73,-336.54 116.43,-328.03 116.05,-338.62 122.73,-336.54"/>
<text text-anchor="middle" x="129.87" y="-339.14" font-family="Times,serif" font-size="14.00">*0</text>
</g>
<!-- node9 -->
<g id="node5" class="node">
<title>node9</title>
<polygon fill="orange" stroke="black" points="257.87,-229.54 257.87,-244.46 203.56,-255 126.75,-255 72.43,-244.46 72.43,-229.54 126.75,-219 203.56,-219 257.87,-229.54"/>
<text text-anchor="middle" x="165.15" y="-233.3" font-family="Times,serif" font-size="14.00">#9 ArrayLength</text>
</g>
<!-- node5&#45;&gt;node9 -->
<g id="edge5" class="edge">
<title>node5&#45;&gt;node9</title>
<path fill="none" stroke="black" d="M124.22,-291.81C130.79,-283.18 138.87,-272.56 146.11,-263.03"/>
<polygon fill="black" stroke="black" points="148.93,-265.11 152.2,-255.03 143.36,-260.87 148.93,-265.11"/>
<text text-anchor="middle" x="147.95" y="-270.87" font-family="Times,serif" font-size="14.00">*0</text>
</g>
<!-- node12 -->
<g id="node6" class="node">
<title>node12</title>
<polygon fill="lightgrey" stroke="black" points="217.15,-109 59.15,-109 59.15,-73 217.15,-73 217.15,-109"/>
<text text-anchor="middle" x="138.15" y="-87.3" font-family="Times,serif" font-size="14.00">#12 ArrayLoad : int</text>
</g>
<!-- node5&#45;&gt;node12 -->
<g id="edge6" class="edge">
<title>node5&#45;&gt;node12</title>
<path fill="none" stroke="black" d="M86.22,-291.93C77.18,-284.26 68,-274.36 63.15,-263 55.48,-245.01 58,-237.86 63.15,-219 73.72,-180.33 99.41,-141.47 117.77,-117.1"/>
<polygon fill="black" stroke="black" points="120.6,-119.17 123.93,-109.11 115.05,-114.9 120.6,-119.17"/>
<text text-anchor="middle" x="119.56" y="-124.93" font-family="Times,serif" font-size="14.00">*0</text>
</g>
<!-- node8 -->
<g id="node8" class="node">
<title>node8</title>
<polygon fill="lightgrey" stroke="black" points="440.15,-255 276.15,-255 276.15,-219 440.15,-219 440.15,-255"/>
<text text-anchor="middle" x="358.15" y="-233.3" font-family="Times,serif" font-size="14.00">#8 ArrayStore : int[]</text>
</g>
<!-- node5&#45;&gt;node8 -->
<g id="edge9" class="edge">
<title>node5&#45;&gt;node8</title>
<path fill="none" stroke="black" d="M162.04,-292.71C196.98,-282.33 243.88,-268.82 283.08,-257.82"/>
<polygon fill="black" stroke="black" points="284.18,-261.14 292.87,-255.08 282.3,-254.4 284.18,-261.14"/>
<text text-anchor="middle" x="277.69" y="-264.4" font-family="Times,serif" font-size="14.00">*0</text>
</g>
<!-- node5&#45;&gt;node8 -->
<g id="edge12" class="edge">
<title>node5&#45;&gt;node8</title>
<path fill="none" stroke="green" d="M169.48,-293.86C207.21,-283.38 256.24,-269.33 294.89,-257.95"/>
<polygon fill="green" stroke="green" points="295.88,-261.3 304.48,-255.11 293.9,-254.59 295.88,-261.3"/>
</g>
<!-- node14 -->
<g id="node14" class="node">
<title>node14</title>
<polygon fill="lightgrey" stroke="black" points="570.65,-36 469.65,-36 469.65,0 570.65,0 570.65,-36"/>
<text text-anchor="middle" x="520.15" y="-14.3" font-family="Times,serif" font-size="14.00">#14 Return</text>
</g>
<!-- node12&#45;&gt;node14 -->
<g id="edge21" class="edge">
<title>node12&#45;&gt;node14</title>
<path fill="none" stroke="green" d="M217.3,-75.29C289.18,-61.93 393.69,-42.51 459.24,-30.32"/>
<polygon fill="green" stroke="green" points="460.22,-33.7 469.41,-28.43 458.94,-26.82 460.22,-33.7"/>
</g>
<!-- node11 -->
<g id="node7" class="node">
<title>node11</title>
<polygon fill="lightgreen" stroke="black" points="400.34,-156.54 400.34,-171.46 365.67,-182 316.64,-182 281.96,-171.46 281.96,-156.54 316.64,-146 365.67,-146 400.34,-156.54"/>
<text text-anchor="middle" x="341.15" y="-160.3" font-family="Times,serif" font-size="14.00">#11 int 1</text>
</g>
<!-- node11&#45;&gt;node12 -->
<g id="edge7" class="edge">
<title>node11&#45;&gt;node12</title>
<path fill="none" stroke="black" d="M303.44,-149.81C273.37,-139.29 230.72,-124.37 196.27,-112.33"/>
<polygon fill="black" stroke="black" points="197.39,-109.01 186.79,-109.01 195.08,-115.62 197.39,-109.01"/>
<text text-anchor="middle" x="206.69" y="-103.32" font-family="Times,serif" font-size="14.00">*1</text>
</g>
<!-- node8&#45;&gt;node12 -->
<g id="edge8" class="edge">
<title>node8&#45;&gt;node12</title>
<path fill="none" stroke="green" d="M330.88,-218.89C314.15,-208.34 292.35,-194.49 273.15,-182 238.43,-159.4 199.04,-133.06 171.81,-114.74"/>
<polygon fill="green" stroke="green" points="173.67,-111.77 163.42,-109.09 169.76,-117.58 173.67,-111.77"/>
</g>
<!-- node8&#45;&gt;node11 -->
<g id="edge17" class="edge">
<title>node8&#45;&gt;node11</title>
<path fill="none" stroke="black" stroke-dasharray="1,5" d="M354.04,-218.81C352.09,-210.7 349.73,-200.84 347.56,-191.78"/>
<polygon fill="black" stroke="black" points="350.96,-190.94 345.23,-182.03 344.15,-192.57 350.96,-190.94"/>
</g>
<!-- node10 -->
<g id="node12" class="node">
<title>node10</title>
<polygon fill="lightgrey" stroke="black" points="584.15,-182 456.15,-182 456.15,-146 584.15,-146 584.15,-182"/>
<text text-anchor="middle" x="520.15" y="-160.3" font-family="Times,serif" font-size="14.00">#10 LabelNode</text>
</g>
<!-- node8&#45;&gt;node10 -->
<g id="edge18" class="edge">
<title>node8&#45;&gt;node10</title>
<path fill="none" stroke="red" d="M396.95,-218.99C419.43,-209.14 447.92,-196.66 471.84,-186.17"/>
<polygon fill="red" stroke="red" points="473.35,-189.33 481.1,-182.11 470.54,-182.92 473.35,-189.33"/>
</g>
<!-- node7 -->
<g id="node9" class="node">
<title>node7</title>
<polygon fill="lightgreen" stroke="black" points="345.68,-302.54 345.68,-317.46 314.91,-328 271.4,-328 240.63,-317.46 240.63,-302.54 271.4,-292 314.91,-292 345.68,-302.54"/>
<text text-anchor="middle" x="293.15" y="-306.3" font-family="Times,serif" font-size="14.00">#7 int 0</text>
</g>
<!-- node7&#45;&gt;node8 -->
<g id="edge10" class="edge">
<title>node7&#45;&gt;node8</title>
<path fill="none" stroke="black" d="M308.89,-291.81C316.95,-283 326.91,-272.13 335.76,-262.46"/>
<polygon fill="black" stroke="black" points="338.39,-264.77 342.56,-255.03 333.23,-260.04 338.39,-264.77"/>
<text text-anchor="middle" x="336.56" y="-270.41" font-family="Times,serif" font-size="14.00">*1</text>
</g>
<!-- node6 -->
<g id="node10" class="node">
<title>node6</title>
<polygon fill="lightgreen" stroke="black" points="482.34,-302.54 482.34,-317.46 447.67,-328 398.64,-328 363.96,-317.46 363.96,-302.54 398.64,-292 447.67,-292 482.34,-302.54"/>
<text text-anchor="middle" x="423.15" y="-306.3" font-family="Times,serif" font-size="14.00">#6 int 10</text>
</g>
<!-- node6&#45;&gt;node8 -->
<g id="edge11" class="edge">
<title>node6&#45;&gt;node8</title>
<path fill="none" stroke="black" d="M407.42,-291.81C399.35,-283 389.39,-272.13 380.54,-262.46"/>
<polygon fill="black" stroke="black" points="383.08,-260.04 373.74,-255.03 377.91,-264.77 383.08,-260.04"/>
<text text-anchor="middle" x="392.22" y="-258.99" font-family="Times,serif" font-size="14.00">*2</text>
</g>
<!-- node3&#45;&gt;node8 -->
<g id="edge13" class="edge">
<title>node3&#45;&gt;node8</title>
<path fill="none" stroke="red" d="M432.69,-369.25C454.95,-361.28 478.01,-348.47 491.15,-328 501.72,-311.54 502.5,-299.93 491.15,-284 481.02,-269.78 466.18,-259.91 450.05,-253.08"/>
<polygon fill="red" stroke="red" points="451.02,-249.7 440.43,-249.39 448.52,-256.24 451.02,-249.7"/>
</g>
<!-- node3&#45;&gt;node7 -->
<g id="edge15" class="edge">
<title>node3&#45;&gt;node7</title>
<path fill="none" stroke="black" stroke-dasharray="1,5" d="M353.79,-364.81C343.66,-355.83 331.12,-344.69 320.07,-334.89"/>
<polygon fill="black" stroke="black" points="322.14,-332.05 312.34,-328.03 317.5,-337.28 322.14,-332.05"/>
</g>
<!-- node3&#45;&gt;node6 -->
<g id="edge16" class="edge">
<title>node3&#45;&gt;node6</title>
<path fill="none" stroke="black" stroke-dasharray="1,5" d="M385.26,-364.81C391.27,-356.27 398.67,-345.77 405.32,-336.32"/>
<polygon fill="black" stroke="black" points="408.26,-338.22 411.16,-328.03 402.54,-334.19 408.26,-338.22"/>
</g>
<!-- node13 -->
<g id="node13" class="node">
<title>node13</title>
<polygon fill="lightgrey" stroke="black" points="584.15,-109 456.15,-109 456.15,-73 584.15,-73 584.15,-109"/>
<text text-anchor="middle" x="520.15" y="-87.3" font-family="Times,serif" font-size="14.00">#13 LabelNode</text>
</g>
<!-- node10&#45;&gt;node13 -->
<g id="edge19" class="edge">
<title>node10&#45;&gt;node13</title>
<path fill="none" stroke="red" d="M520.15,-145.81C520.15,-137.79 520.15,-128.05 520.15,-119.07"/>
<polygon fill="red" stroke="red" points="523.65,-119.03 520.15,-109.03 516.65,-119.03 523.65,-119.03"/>
</g>
<!-- node13&#45;&gt;node14 -->
<g id="edge20" class="edge">
<title>node13&#45;&gt;node14</title>
<path fill="none" stroke="red" d="M520.15,-72.81C520.15,-64.79 520.15,-55.05 520.15,-46.07"/>
<polygon fill="red" stroke="red" points="523.65,-46.03 520.15,-36.03 516.65,-46.03 523.65,-46.03"/>
</g>
<!-- c0 -->
<!-- c1 -->
<!-- c0&#45;&gt;c1 -->
<g id="edge22" class="edge">
<title>c0&#45;&gt;c1</title>
<path fill="none" stroke="red" d="M941.04,-538C952.26,-538 1010.39,-538 1036.01,-538"/>
<polygon fill="red" stroke="red" points="1036.21,-541.5 1046.21,-538 1036.21,-534.5 1036.21,-541.5"/>
<text text-anchor="middle" x="993.65" y="-544.8" font-family="Times,serif" font-size="14.00">Control flow</text>
</g>
<!-- c2 -->
<!-- c3 -->
<!-- c2&#45;&gt;c3 -->
<g id="edge23" class="edge">
<title>c2&#45;&gt;c3</title>
<path fill="none" stroke="red" stroke-dasharray="5,2" d="M734.23,-538C751.2,-538 867.36,-538 905.24,-538"/>
<polygon fill="red" stroke="red" points="905.32,-541.5 915.32,-538 905.32,-534.5 905.32,-541.5"/>
<text text-anchor="middle" x="824.65" y="-544.8" font-family="Times,serif" font-size="14.00">Control flow back edge</text>
</g>
<!-- d0 -->
<!-- d1 -->
<!-- d0&#45;&gt;d1 -->
<g id="edge24" class="edge">
<title>d0&#45;&gt;d1</title>
<path fill="none" stroke="black" d="M623.01,-538C632.56,-538 676.46,-538 698.07,-538"/>
<polygon fill="black" stroke="black" points="698.3,-541.5 708.3,-538 698.3,-534.5 698.3,-541.5"/>
<text text-anchor="middle" x="665.65" y="-544.8" font-family="Times,serif" font-size="14.00">Data flow</text>
</g>
<!-- d2 -->
<!-- d3 -->
<!-- d2&#45;&gt;d3 -->
<g id="edge25" class="edge">
<title>d2&#45;&gt;d3</title>
<path fill="none" stroke="black" stroke-dasharray="1,5" d="M496.96,-538C507.61,-538 562.62,-538 587.23,-538"/>
<polygon fill="black" stroke="black" points="587.3,-541.5 597.3,-538 587.3,-534.5 587.3,-541.5"/>
<text text-anchor="middle" x="547.15" y="-544.8" font-family="Times,serif" font-size="14.00">Declaration</text>
</g>
<!-- d4 -->
<!-- d5 -->
<!-- d4&#45;&gt;d5 -->
<g id="edge26" class="edge">
<title>d4&#45;&gt;d5</title>
<path fill="none" stroke="blue" d="M354.25,-538C366.87,-538 433.03,-538 460.83,-538"/>
<polygon fill="blue" stroke="blue" points="460.99,-541.5 470.99,-538 460.99,-534.5 460.99,-541.5"/>
<text text-anchor="middle" x="412.65" y="-544.8" font-family="Times,serif" font-size="14.00">PHI Data flow</text>
</g>
<!-- d6 -->
<!-- d7 -->
<!-- d6&#45;&gt;d7 -->
<g id="edge27" class="edge">
<title>d6&#45;&gt;d7</title>
<path fill="none" stroke="green" d="M217.15,-538C229.09,-538 291.45,-538 318.08,-538"/>
<polygon fill="green" stroke="green" points="318.1,-541.5 328.1,-538 318.1,-534.5 318.1,-541.5"/>
<text text-anchor="middle" x="272.65" y="-544.8" font-family="Times,serif" font-size="14.00">Memory flow</text>
</g>
</g>
</svg>
