<?xml version="1.0" encoding="UTF-8" standalone="no"?>
<!DOCTYPE svg PUBLIC "-//W3C//DTD SVG 1.1//EN"
 "http://www.w3.org/Graphics/SVG/1.1/DTD/svg11.dtd">
<!-- Generated by graphviz version 2.43.0 (0)
 -->
<!-- Title: %3 Pages: 1 -->
<svg width="1323pt" height="733pt"
 viewBox="0.00 0.00 1323.26 732.80" xmlns="http://www.w3.org/2000/svg" xmlns:xlink="http://www.w3.org/1999/xlink">
<g id="graph0" class="graph" transform="scale(1 1) rotate(0) translate(4 728.8)">
<title>%3</title>
<polygon fill="white" stroke="transparent" points="-4,4 -4,-728.8 1319.26,-728.8 1319.26,4 -4,4"/>
<g id="clust1" class="cluster">
<title>cluster_0</title>
<polygon fill="none" stroke="lightgray" points="315.26,-503 315.26,-628 451.26,-628 451.26,-503 315.26,-503"/>
</g>
<g id="clust2" class="cluster">
<title>cluster_1</title>
<polygon fill="none" stroke="lightgray" points="9.26,-430 9.26,-555 267.26,-555 267.26,-430 9.26,-430"/>
</g>
<g id="clust3" class="cluster">
<title>cluster_2</title>
<polygon fill="none" stroke="lightgray" points="88.26,-284 88.26,-409 268.26,-409 268.26,-284 88.26,-284"/>
</g>
<g id="clust4" class="cluster">
<title>cluster_000</title>
<polygon fill="none" stroke="black" points="454.26,-674.2 454.26,-716.8 1307.26,-716.8 1307.26,-674.2 454.26,-674.2"/>
<text text-anchor="middle" x="880.76" y="-701.6" font-family="Times,serif" font-size="14.00">Legend</text>
</g>
<!-- node0 -->
<g id="node1" class="node">
<title>node0</title>
<polygon fill="lightgrey" stroke="transparent" points="444.76,-711 321.76,-711 321.76,-657 444.76,-657 444.76,-711"/>
<polygon fill="none" stroke="black" points="322.26,-684 322.26,-711 445.26,-711 445.26,-684 322.26,-684"/>
<text text-anchor="start" x="343.26" y="-693.8" font-family="Times,serif" font-size="14.00">#0 Method</text>
<polygon fill="yellow" stroke="transparent" points="322.26,-657 322.26,-684 445.26,-684 445.26,-657 322.26,-657"/>
<polygon fill="none" stroke="black" points="322.26,-657 322.26,-684 445.26,-684 445.26,-657 322.26,-657"/>
<text text-anchor="start" x="328.26" y="-666.8" font-family="Times,serif" font-size="14.00">this : ArrayTest</text>
</g>
<!-- node5 -->
<g id="node2" class="node">
<title>node5</title>
<polygon fill="orange" stroke="black" points="499.57,-448.54 499.57,-463.46 434.36,-474 342.16,-474 276.96,-463.46 276.96,-448.54 342.16,-438 434.36,-438 499.57,-448.54"/>
<text text-anchor="middle" x="388.26" y="-452.3" font-family="Times,serif" font-size="14.00">#5 NewArray : int[]</text>
</g>
<!-- node0&#45;&gt;node5 -->
<g id="edge2" class="edge">
<title>node0&#45;&gt;node5</title>
<path fill="none" stroke="green" d="M335.87,-656.75C325.96,-648.88 316.84,-639.28 311.26,-628 286.64,-578.2 283.84,-551.32 311.26,-503 316.67,-493.46 324.94,-485.69 334.07,-479.43"/>
<polygon fill="green" stroke="green" points="336,-482.35 342.65,-474.11 332.31,-476.41 336,-482.35"/>
</g>
<!-- node2 -->
<g id="node4" class="node">
<title>node2</title>
<polygon fill="lightgrey" stroke="black" points="442.76,-620 323.76,-620 323.76,-584 442.76,-584 442.76,-620"/>
<text text-anchor="middle" x="383.26" y="-598.3" font-family="Times,serif" font-size="14.00">#2 LabelNode</text>
</g>
<!-- node0&#45;&gt;node2 -->
<g id="edge4" class="edge">
<title>node0&#45;&gt;node2</title>
<path fill="none" stroke="red" d="M383.26,-656.81C383.26,-648.35 383.26,-638.95 383.26,-630.4"/>
<polygon fill="red" stroke="red" points="386.76,-630.17 383.26,-620.17 379.76,-630.17 386.76,-630.17"/>
</g>
<!-- node8 -->
<g id="node7" class="node">
<title>node8</title>
<polygon fill="lightgrey" stroke="black" points="260.26,-401 96.26,-401 96.26,-365 260.26,-365 260.26,-401"/>
<text text-anchor="middle" x="178.26" y="-379.3" font-family="Times,serif" font-size="14.00">#8 ArrayStore : int[]</text>
</g>
<!-- node5&#45;&gt;node8 -->
<g id="edge7" class="edge">
<title>node5&#45;&gt;node8</title>
<path fill="none" stroke="black" d="M328.87,-440.06C308.5,-434.09 285.74,-426.98 265.26,-420 251.43,-415.29 236.6,-409.9 223.13,-404.75"/>
<polygon fill="black" stroke="black" points="224.19,-401.4 213.6,-401.05 221.66,-407.93 224.19,-401.4"/>
<text text-anchor="middle" x="233.55" y="-396.02" font-family="Times,serif" font-size="14.00">*0</text>
</g>
<!-- node5&#45;&gt;node8 -->
<g id="edge10" class="edge">
<title>node5&#45;&gt;node8</title>
<path fill="none" stroke="green" d="M340.05,-438.32C322.16,-432.73 301.78,-426.31 283.26,-420 269.3,-415.24 254.31,-409.79 240.13,-404.6"/>
<polygon fill="green" stroke="green" points="241.05,-401.21 230.46,-401.05 238.64,-407.78 241.05,-401.21"/>
</g>
<!-- node11 -->
<g id="node9" class="node">
<title>node11</title>
<polygon fill="lightgrey" stroke="black" points="217.26,-255 59.26,-255 59.26,-219 217.26,-219 217.26,-255"/>
<text text-anchor="middle" x="138.26" y="-233.3" font-family="Times,serif" font-size="14.00">#11 ArrayLoad : int</text>
</g>
<!-- node5&#45;&gt;node11 -->
<g id="edge13" class="edge">
<title>node5&#45;&gt;node11</title>
<path fill="none" stroke="black" d="M344.1,-437.89C330.61,-430.76 316.82,-421.23 307.26,-409 271.72,-363.55 311.86,-325.95 272.26,-284 259.94,-270.95 243.75,-261.6 226.9,-254.9"/>
<polygon fill="black" stroke="black" points="228.09,-251.61 217.5,-251.45 225.68,-258.18 228.09,-251.61"/>
<text text-anchor="middle" x="237.43" y="-246.06" font-family="Times,serif" font-size="14.00">*0</text>
</g>
<!-- node9 -->
<g id="node14" class="node">
<title>node9</title>
<polygon fill="orange" stroke="black" points="501.98,-375.54 501.98,-390.46 447.67,-401 370.85,-401 316.54,-390.46 316.54,-375.54 370.85,-365 447.67,-365 501.98,-375.54"/>
<text text-anchor="middle" x="409.26" y="-379.3" font-family="Times,serif" font-size="14.00">#9 ArrayLength</text>
</g>
<!-- node5&#45;&gt;node9 -->
<g id="edge22" class="edge">
<title>node5&#45;&gt;node9</title>
<path fill="none" stroke="black" d="M393.34,-437.81C395.74,-429.7 398.66,-419.84 401.34,-410.78"/>
<polygon fill="black" stroke="black" points="404.74,-411.61 404.22,-401.03 398.03,-409.63 404.74,-411.61"/>
<text text-anchor="middle" x="407.19" y="-417.11" font-family="Times,serif" font-size="14.00">*0</text>
</g>
<!-- node4 -->
<g id="node3" class="node">
<title>node4</title>
<polygon fill="lightgreen" stroke="black" points="443.45,-521.54 443.45,-536.46 408.78,-547 359.75,-547 325.07,-536.46 325.07,-521.54 359.75,-511 408.78,-511 443.45,-521.54"/>
<text text-anchor="middle" x="384.26" y="-525.3" font-family="Times,serif" font-size="14.00">#4 int 10</text>
</g>
<!-- node4&#45;&gt;node5 -->
<g id="edge1" class="edge">
<title>node4&#45;&gt;node5</title>
<path fill="none" stroke="black" d="M385.23,-510.81C385.68,-502.79 386.23,-493.05 386.74,-484.07"/>
<polygon fill="black" stroke="black" points="390.23,-484.21 387.3,-474.03 383.24,-483.82 390.23,-484.21"/>
<text text-anchor="middle" x="394.72" y="-488.9" font-family="Times,serif" font-size="14.00">*0</text>
</g>
<!-- node2&#45;&gt;node4 -->
<g id="edge3" class="edge">
<title>node2&#45;&gt;node4</title>
<path fill="none" stroke="black" stroke-dasharray="1,5" d="M383.5,-583.81C383.62,-575.79 383.75,-566.05 383.88,-557.07"/>
<polygon fill="black" stroke="black" points="387.38,-557.08 384.02,-547.03 380.38,-556.98 387.38,-557.08"/>
</g>
<!-- node3 -->
<g id="node5" class="node">
<title>node3</title>
<polygon fill="lightgrey" stroke="black" points="161.76,-547 42.76,-547 42.76,-511 161.76,-511 161.76,-547"/>
<text text-anchor="middle" x="102.26" y="-525.3" font-family="Times,serif" font-size="14.00">#3 LabelNode</text>
</g>
<!-- node2&#45;&gt;node3 -->
<g id="edge5" class="edge">
<title>node2&#45;&gt;node3</title>
<path fill="none" stroke="red" d="M323.67,-585.94C279.15,-574.69 218.19,-559.29 171.5,-547.5"/>
<polygon fill="red" stroke="red" points="172.32,-544.09 161.77,-545.04 170.61,-550.88 172.32,-544.09"/>
</g>
<!-- node7 -->
<g id="node6" class="node">
<title>node7</title>
<polygon fill="lightgreen" stroke="black" points="259.45,-448.54 259.45,-463.46 224.78,-474 175.75,-474 141.07,-463.46 141.07,-448.54 175.75,-438 224.78,-438 259.45,-448.54"/>
<text text-anchor="middle" x="200.26" y="-452.3" font-family="Times,serif" font-size="14.00">#7 int 10</text>
</g>
<!-- node3&#45;&gt;node7 -->
<g id="edge6" class="edge">
<title>node3&#45;&gt;node7</title>
<path fill="none" stroke="black" stroke-dasharray="1,5" d="M125.98,-510.81C138.74,-501.57 154.65,-490.04 168.47,-480.03"/>
<polygon fill="black" stroke="black" points="170.71,-482.73 176.76,-474.03 166.61,-477.06 170.71,-482.73"/>
</g>
<!-- node3&#45;&gt;node8 -->
<g id="edge11" class="edge">
<title>node3&#45;&gt;node8</title>
<path fill="none" stroke="red" d="M51.58,-510.92C34.75,-502.56 17.88,-490.61 8.26,-474 -1.53,-457.07 -3.62,-445.53 8.26,-430 18.54,-416.58 51.66,-406.17 85.97,-398.67"/>
<polygon fill="red" stroke="red" points="87.07,-402.01 96.14,-396.54 85.64,-395.16 87.07,-402.01"/>
</g>
<!-- node6 -->
<g id="node8" class="node">
<title>node6</title>
<polygon fill="lightgreen" stroke="black" points="122.79,-448.54 122.79,-463.46 92.02,-474 48.5,-474 17.74,-463.46 17.74,-448.54 48.5,-438 92.02,-438 122.79,-448.54"/>
<text text-anchor="middle" x="70.26" y="-452.3" font-family="Times,serif" font-size="14.00">#6 int 0</text>
</g>
<!-- node3&#45;&gt;node6 -->
<g id="edge12" class="edge">
<title>node3&#45;&gt;node6</title>
<path fill="none" stroke="black" stroke-dasharray="1,5" d="M94.51,-510.81C90.78,-502.53 86.22,-492.41 82.07,-483.19"/>
<polygon fill="black" stroke="black" points="85.24,-481.71 77.94,-474.03 78.85,-484.58 85.24,-481.71"/>
</g>
<!-- node7&#45;&gt;node8 -->
<g id="edge9" class="edge">
<title>node7&#45;&gt;node8</title>
<path fill="none" stroke="black" d="M194.94,-437.81C192.42,-429.7 189.37,-419.84 186.56,-410.78"/>
<polygon fill="black" stroke="black" points="189.84,-409.54 183.54,-401.03 183.15,-411.62 189.84,-409.54"/>
<text text-anchor="middle" x="196.98" y="-412.14" font-family="Times,serif" font-size="14.00">*2</text>
</g>
<!-- node8&#45;&gt;node11 -->
<g id="edge15" class="edge">
<title>node8&#45;&gt;node11</title>
<path fill="none" stroke="green" d="M150.58,-364.85C139.96,-355.13 129.37,-342.11 124.26,-328 116.92,-307.73 118.93,-283.22 123.75,-264.9"/>
<polygon fill="green" stroke="green" points="127.15,-265.75 126.77,-255.17 120.46,-263.68 127.15,-265.75"/>
</g>
<!-- node8&#45;&gt;node11 -->
<g id="edge16" class="edge">
<title>node8&#45;&gt;node11</title>
<path fill="none" stroke="red" d="M166.37,-364.61C157.79,-354.92 147.33,-342 142.26,-328 134.96,-307.83 136.91,-283.45 138.92,-265.16"/>
<polygon fill="red" stroke="red" points="142.4,-265.49 140.04,-255.17 135.45,-264.71 142.4,-265.49"/>
</g>
<!-- node10 -->
<g id="node10" class="node">
<title>node10</title>
<polygon fill="lightgreen" stroke="black" points="260.45,-302.54 260.45,-317.46 225.78,-328 176.75,-328 142.07,-317.46 142.07,-302.54 176.75,-292 225.78,-292 260.45,-302.54"/>
<text text-anchor="middle" x="201.26" y="-306.3" font-family="Times,serif" font-size="14.00">#10 int 1</text>
</g>
<!-- node8&#45;&gt;node10 -->
<g id="edge17" class="edge">
<title>node8&#45;&gt;node10</title>
<path fill="none" stroke="black" stroke-dasharray="1,5" d="M183.83,-364.81C186.46,-356.7 189.65,-346.84 192.59,-337.78"/>
<polygon fill="black" stroke="black" points="195.99,-338.62 195.74,-328.03 189.33,-336.46 195.99,-338.62"/>
</g>
<!-- node6&#45;&gt;node8 -->
<g id="edge8" class="edge">
<title>node6&#45;&gt;node8</title>
<path fill="none" stroke="black" d="M94.77,-438.89C109.26,-429.36 127.84,-417.15 143.8,-406.66"/>
<polygon fill="black" stroke="black" points="145.91,-409.46 152.35,-401.04 142.07,-403.61 145.91,-409.46"/>
<text text-anchor="middle" x="141.84" y="-414.36" font-family="Times,serif" font-size="14.00">*1</text>
</g>
<!-- node14 -->
<g id="node11" class="node">
<title>node14</title>
<polygon fill="lightgrey" stroke="black" points="188.76,-36 87.76,-36 87.76,0 188.76,0 188.76,-36"/>
<text text-anchor="middle" x="138.26" y="-14.3" font-family="Times,serif" font-size="14.00">#14 Return</text>
</g>
<!-- node11&#45;&gt;node14 -->
<g id="edge19" class="edge">
<title>node11&#45;&gt;node14</title>
<path fill="none" stroke="green" d="M102.5,-218.93C88.18,-210.07 73.21,-197.77 65.26,-182 43.45,-138.74 43.45,-116.26 65.26,-73 71.66,-60.31 82.6,-49.87 94.09,-41.66"/>
<polygon fill="green" stroke="green" points="96.1,-44.52 102.5,-36.07 92.23,-38.69 96.1,-44.52"/>
</g>
<!-- node12 -->
<g id="node13" class="node">
<title>node12</title>
<polygon fill="lightgrey" stroke="black" points="202.26,-182 74.26,-182 74.26,-146 202.26,-146 202.26,-182"/>
<text text-anchor="middle" x="138.26" y="-160.3" font-family="Times,serif" font-size="14.00">#12 LabelNode</text>
</g>
<!-- node11&#45;&gt;node12 -->
<g id="edge21" class="edge">
<title>node11&#45;&gt;node12</title>
<path fill="none" stroke="red" d="M138.26,-218.81C138.26,-210.79 138.26,-201.05 138.26,-192.07"/>
<polygon fill="red" stroke="red" points="141.76,-192.03 138.26,-182.03 134.76,-192.03 141.76,-192.03"/>
</g>
<!-- node10&#45;&gt;node11 -->
<g id="edge14" class="edge">
<title>node10&#45;&gt;node11</title>
<path fill="none" stroke="black" d="M186.01,-291.81C178.27,-283.09 168.73,-272.34 160.22,-262.75"/>
<polygon fill="black" stroke="black" points="162.63,-260.19 153.37,-255.03 157.39,-264.83 162.63,-260.19"/>
<text text-anchor="middle" x="171.72" y="-259.28" font-family="Times,serif" font-size="14.00">*1</text>
</g>
<!-- node13 -->
<g id="node12" class="node">
<title>node13</title>
<polygon fill="lightgrey" stroke="black" points="202.26,-109 74.26,-109 74.26,-73 202.26,-73 202.26,-109"/>
<text text-anchor="middle" x="138.26" y="-87.3" font-family="Times,serif" font-size="14.00">#13 LabelNode</text>
</g>
<!-- node13&#45;&gt;node14 -->
<g id="edge18" class="edge">
<title>node13&#45;&gt;node14</title>
<path fill="none" stroke="red" d="M138.26,-72.81C138.26,-64.79 138.26,-55.05 138.26,-46.07"/>
<polygon fill="red" stroke="red" points="141.76,-46.03 138.26,-36.03 134.76,-46.03 141.76,-46.03"/>
</g>
<!-- node12&#45;&gt;node13 -->
<g id="edge20" class="edge">
<title>node12&#45;&gt;node13</title>
<path fill="none" stroke="red" d="M138.26,-145.81C138.26,-137.79 138.26,-128.05 138.26,-119.07"/>
<polygon fill="red" stroke="red" points="141.76,-119.03 138.26,-109.03 134.76,-119.03 141.76,-119.03"/>
</g>
<!-- c0 -->
<!-- c1 -->
<!-- c0&#45;&gt;c1 -->
<g id="edge23" class="edge">
<title>c0&#45;&gt;c1</title>
<path fill="none" stroke="red" d="M1190.15,-684C1201.37,-684 1259.5,-684 1285.12,-684"/>
<polygon fill="red" stroke="red" points="1285.32,-687.5 1295.32,-684 1285.32,-680.5 1285.32,-687.5"/>
<text text-anchor="middle" x="1242.76" y="-690.8" font-family="Times,serif" font-size="14.00">Control flow</text>
</g>
<!-- c2 -->
<!-- c3 -->
<!-- c2&#45;&gt;c3 -->
<g id="edge24" class="edge">
<title>c2&#45;&gt;c3</title>
<path fill="none" stroke="red" stroke-dasharray="5,2" d="M983.34,-684C1000.31,-684 1116.47,-684 1154.35,-684"/>
<polygon fill="red" stroke="red" points="1154.43,-687.5 1164.43,-684 1154.43,-680.5 1154.43,-687.5"/>
<text text-anchor="middle" x="1073.76" y="-690.8" font-family="Times,serif" font-size="14.00">Control flow back edge</text>
</g>
<!-- d0 -->
<!-- d1 -->
<!-- d0&#45;&gt;d1 -->
<g id="edge25" class="edge">
<title>d0&#45;&gt;d1</title>
<path fill="none" stroke="black" d="M872.12,-684C881.67,-684 925.57,-684 947.18,-684"/>
<polygon fill="black" stroke="black" points="947.41,-687.5 957.41,-684 947.41,-680.5 947.41,-687.5"/>
<text text-anchor="middle" x="914.76" y="-690.8" font-family="Times,serif" font-size="14.00">Data flow</text>
</g>
<!-- d2 -->
<!-- d3 -->
<!-- d2&#45;&gt;d3 -->
<g id="edge26" class="edge">
<title>d2&#45;&gt;d3</title>
<path fill="none" stroke="black" stroke-dasharray="1,5" d="M746.07,-684C756.72,-684 811.73,-684 836.34,-684"/>
<polygon fill="black" stroke="black" points="836.41,-687.5 846.41,-684 836.41,-680.5 836.41,-687.5"/>
<text text-anchor="middle" x="796.26" y="-690.8" font-family="Times,serif" font-size="14.00">Declaration</text>
</g>
<!-- d4 -->
<!-- d5 -->
<!-- d4&#45;&gt;d5 -->
<g id="edge27" class="edge">
<title>d4&#45;&gt;d5</title>
<path fill="none" stroke="blue" d="M603.36,-684C615.98,-684 682.14,-684 709.94,-684"/>
<polygon fill="blue" stroke="blue" points="710.1,-687.5 720.1,-684 710.1,-680.5 710.1,-687.5"/>
<text text-anchor="middle" x="661.76" y="-690.8" font-family="Times,serif" font-size="14.00">PHI Data flow</text>
</g>
<!-- d6 -->
<!-- d7 -->
<!-- d6&#45;&gt;d7 -->
<g id="edge28" class="edge">
<title>d6&#45;&gt;d7</title>
<path fill="none" stroke="green" d="M466.26,-684C478.2,-684 540.56,-684 567.19,-684"/>
<polygon fill="green" stroke="green" points="567.21,-687.5 577.21,-684 567.21,-680.5 567.21,-687.5"/>
<text text-anchor="middle" x="521.76" y="-690.8" font-family="Times,serif" font-size="14.00">Memory flow</text>
</g>
</g>
</svg>
