<?xml version="1.0" encoding="UTF-8" standalone="no"?>
<!DOCTYPE svg PUBLIC "-//W3C//DTD SVG 1.1//EN"
 "http://www.w3.org/Graphics/SVG/1.1/DTD/svg11.dtd">
<!-- Generated by graphviz version 2.43.0 (0)
 -->
<!-- Title: debugoutput Pages: 1 -->
<svg width="1401pt" height="578pt"
 viewBox="0.00 0.00 1401.00 577.80" xmlns="http://www.w3.org/2000/svg" xmlns:xlink="http://www.w3.org/1999/xlink">
<g id="graph0" class="graph" transform="scale(1 1) rotate(0) translate(4 573.8)">
<title>debugoutput</title>
<polygon fill="white" stroke="transparent" points="-4,4 -4,-573.8 1397,-573.8 1397,4 -4,4"/>
<g id="clust1" class="cluster">
<title>cluster_000</title>
<polygon fill="none" stroke="black" points="409,-519.2 409,-561.8 1385,-561.8 1385,-519.2 409,-519.2"/>
<text text-anchor="middle" x="897" y="-546.6" font-family="Times,serif" font-size="14.00">Legend</text>
</g>
<!-- node0 -->
<g id="node1" class="node">
<title>node0</title>
<polygon fill="lightgrey" stroke="black" points="399,-547 233,-547 233,-511 399,-511 399,-547"/>
<text text-anchor="middle" x="316" y="-525.3" font-family="Times,serif" font-size="14.00">#0 Method Order : 0</text>
</g>
<!-- node1 -->
<g id="node2" class="node">
<title>node1</title>
<polygon fill="lightgrey" stroke="black" points="230,-474 0,-474 0,-438 230,-438 230,-474"/>
<text text-anchor="middle" x="115" y="-452.3" font-family="Times,serif" font-size="14.00">#1 this : ArrayTest Order : 14</text>
</g>
<!-- node0&#45;&gt;node1 -->
<g id="edge2" class="edge">
<title>node0&#45;&gt;node1</title>
<path fill="none" stroke="black" d="M262,-510.99C232.55,-500.97 196.33,-488.21 167.17,-477.62"/>
<polygon fill="black" stroke="black" points="168.17,-474.26 157.58,-474.11 165.77,-480.83 168.17,-474.26"/>
<text text-anchor="middle" x="177.5" y="-468.69" font-family="Times,serif" font-size="14.00">*0</text>
</g>
<!-- node2 -->
<g id="node3" class="node">
<title>node2</title>
<polygon fill="lightgrey" stroke="black" points="582,-474 394,-474 394,-438 582,-438 582,-474"/>
<text text-anchor="middle" x="488" y="-452.3" font-family="Times,serif" font-size="14.00">#2 LabelNode Order : 1</text>
</g>
<!-- node0&#45;&gt;node2 -->
<g id="edge4" class="edge">
<title>node0&#45;&gt;node2</title>
<path fill="none" stroke="red" d="M351.34,-510.99C374.36,-501.06 404.82,-488.43 431.17,-477.89"/>
<polygon fill="red" stroke="red" points="432.67,-481.06 440.67,-474.11 430.09,-474.56 432.67,-481.06"/>
</g>
<!-- node5 -->
<g id="node6" class="node">
<title>node5</title>
<polygon fill="orange" stroke="black" points="643.89,-302.54 643.89,-317.46 550.23,-328 417.77,-328 324.11,-317.46 324.11,-302.54 417.77,-292 550.23,-292 643.89,-302.54"/>
<text text-anchor="middle" x="484" y="-306.3" font-family="Times,serif" font-size="14.00">#5 NewArray : int[] Order : 3</text>
</g>
<!-- node0&#45;&gt;node5 -->
<g id="edge11" class="edge">
<title>node0&#45;&gt;node5</title>
<path fill="none" stroke="green" d="M312.26,-510.58C312.04,-478.14 323.96,-407.91 362,-365 374.41,-351 391.25,-340.31 408.48,-332.28"/>
<polygon fill="green" stroke="green" points="410.3,-335.31 418.06,-328.1 407.5,-328.89 410.3,-335.31"/>
</g>
<!-- node1&#45;&gt;node0 -->
<g id="edge1" class="edge">
<title>node1&#45;&gt;node0</title>
<path fill="none" stroke="fuchsia" stroke-width="2" d="M169.32,-474.11C198.81,-484.16 235.03,-496.92 264.14,-507.5"/>
<polygon fill="fuchsia" stroke="fuchsia" stroke-width="2" points="263.12,-510.85 273.71,-510.99 265.52,-504.28 263.12,-510.85"/>
</g>
<!-- node2&#45;&gt;node0 -->
<g id="edge3" class="edge">
<title>node2&#45;&gt;node0</title>
<path fill="none" stroke="fuchsia" stroke-width="2" d="M452.41,-474.11C429.34,-484.07 398.87,-496.69 372.55,-507.22"/>
<polygon fill="fuchsia" stroke="fuchsia" stroke-width="2" points="371.06,-504.05 363.06,-510.99 373.64,-510.55 371.06,-504.05"/>
</g>
<!-- node3 -->
<g id="node4" class="node">
<title>node3</title>
<polygon fill="lightgrey" stroke="black" points="895,-401 707,-401 707,-365 895,-365 895,-401"/>
<text text-anchor="middle" x="801" y="-379.3" font-family="Times,serif" font-size="14.00">#3 LabelNode Order : 5</text>
</g>
<!-- node2&#45;&gt;node3 -->
<g id="edge6" class="edge">
<title>node2&#45;&gt;node3</title>
<path fill="none" stroke="red" d="M557.11,-437.99C602.11,-427.53 661.24,-414.11 710.03,-403.26"/>
<polygon fill="red" stroke="red" points="710.96,-406.64 719.96,-401.05 709.44,-399.8 710.96,-406.64"/>
</g>
<!-- node4 -->
<g id="node5" class="node">
<title>node4</title>
<polygon fill="lightgreen" stroke="black" points="595.77,-375.54 595.77,-390.46 532.64,-401 443.36,-401 380.23,-390.46 380.23,-375.54 443.36,-365 532.64,-365 595.77,-375.54"/>
<text text-anchor="middle" x="488" y="-379.3" font-family="Times,serif" font-size="14.00">#4 int 10 Order : 2</text>
</g>
<!-- node2&#45;&gt;node4 -->
<g id="edge8" class="edge">
<title>node2&#45;&gt;node4</title>
<path fill="none" stroke="black" stroke-dasharray="1,5" d="M482.12,-437.81C481.28,-429.79 481.05,-420.05 481.42,-411.07"/>
<polygon fill="black" stroke="black" points="484.92,-411.25 482.14,-401.03 477.94,-410.75 484.92,-411.25"/>
</g>
<!-- node3&#45;&gt;node2 -->
<g id="edge5" class="edge">
<title>node3&#45;&gt;node2</title>
<path fill="none" stroke="fuchsia" stroke-width="2" d="M731.69,-401.05C686.65,-411.52 627.52,-424.95 578.75,-435.79"/>
<polygon fill="fuchsia" stroke="fuchsia" stroke-width="2" points="577.83,-432.41 568.83,-437.99 579.35,-439.24 577.83,-432.41"/>
</g>
<!-- node6 -->
<g id="node7" class="node">
<title>node6</title>
<polygon fill="lightgreen" stroke="black" points="902.11,-302.54 902.11,-317.46 842.88,-328 759.12,-328 699.89,-317.46 699.89,-302.54 759.12,-292 842.88,-292 902.11,-302.54"/>
<text text-anchor="middle" x="801" y="-306.3" font-family="Times,serif" font-size="14.00">#6 int 0 Order : 7</text>
</g>
<!-- node3&#45;&gt;node6 -->
<g id="edge13" class="edge">
<title>node3&#45;&gt;node6</title>
<path fill="none" stroke="black" stroke-dasharray="1,5" d="M795.12,-364.81C794.28,-356.79 794.05,-347.05 794.42,-338.07"/>
<polygon fill="black" stroke="black" points="797.92,-338.25 795.14,-328.03 790.94,-337.75 797.92,-338.25"/>
</g>
<!-- node7 -->
<g id="node8" class="node">
<title>node7</title>
<polygon fill="lightgreen" stroke="black" points="1135.77,-302.54 1135.77,-317.46 1072.64,-328 983.36,-328 920.23,-317.46 920.23,-302.54 983.36,-292 1072.64,-292 1135.77,-302.54"/>
<text text-anchor="middle" x="1028" y="-306.3" font-family="Times,serif" font-size="14.00">#7 int 10 Order : 6</text>
</g>
<!-- node3&#45;&gt;node7 -->
<g id="edge15" class="edge">
<title>node3&#45;&gt;node7</title>
<path fill="none" stroke="black" stroke-dasharray="1,5" d="M849.51,-364.99C882.66,-354.27 926.89,-340.42 963.06,-329.43"/>
<polygon fill="black" stroke="black" points="964.48,-332.66 973.04,-326.41 962.45,-325.96 964.48,-332.66"/>
</g>
<!-- node8 -->
<g id="node9" class="node">
<title>node8</title>
<polygon fill="lightgrey" stroke="black" points="917.5,-255 684.5,-255 684.5,-219 917.5,-219 917.5,-255"/>
<text text-anchor="middle" x="801" y="-233.3" font-family="Times,serif" font-size="14.00">#8 ArrayStore : int[] Order : 8</text>
</g>
<!-- node3&#45;&gt;node8 -->
<g id="edge21" class="edge">
<title>node3&#45;&gt;node8</title>
<path fill="none" stroke="red" d="M737.31,-364.89C719.22,-356.76 701.58,-344.97 691,-328 682.54,-314.42 682.54,-305.58 691,-292 699.76,-277.94 713.36,-267.44 728.05,-259.64"/>
<polygon fill="red" stroke="red" points="729.86,-262.65 737.31,-255.11 726.78,-256.36 729.86,-262.65"/>
</g>
<!-- node4&#45;&gt;node2 -->
<g id="edge7" class="edge">
<title>node4&#45;&gt;node2</title>
<path fill="none" stroke="fuchsia" stroke-width="2" d="M493.86,-401.03C494.71,-409.03 494.95,-418.77 494.59,-427.75"/>
<polygon fill="fuchsia" stroke="fuchsia" stroke-width="2" points="491.09,-427.59 493.88,-437.81 498.07,-428.08 491.09,-427.59"/>
</g>
<!-- node4&#45;&gt;node5 -->
<g id="edge10" class="edge">
<title>node4&#45;&gt;node5</title>
<path fill="none" stroke="black" d="M487.03,-364.81C486.58,-356.79 486.03,-347.05 485.53,-338.07"/>
<polygon fill="black" stroke="black" points="489.02,-337.82 484.96,-328.03 482.03,-338.21 489.02,-337.82"/>
<text text-anchor="middle" x="494.42" y="-341.95" font-family="Times,serif" font-size="14.00">*0</text>
</g>
<!-- node5&#45;&gt;node0 -->
<g id="edge9" class="edge">
<title>node5&#45;&gt;node0</title>
<path fill="none" stroke="fuchsia" stroke-width="2" d="M434.92,-328.1C415.64,-336.46 394.71,-348.4 380,-365 345.53,-403.89 332.51,-465.22 324.88,-500.51"/>
<polygon fill="fuchsia" stroke="fuchsia" stroke-width="2" points="321.39,-500.06 322.67,-510.58 328.23,-501.56 321.39,-500.06"/>
</g>
<!-- node5&#45;&gt;node8 -->
<g id="edge17" class="edge">
<title>node5&#45;&gt;node8</title>
<path fill="none" stroke="black" d="M552.89,-292.26C598.69,-281.75 659.29,-268.16 709.16,-257.21"/>
<polygon fill="black" stroke="black" points="709.97,-260.62 718.99,-255.06 708.47,-253.78 709.97,-260.62"/>
<text text-anchor="middle" x="703.09" y="-263.49" font-family="Times,serif" font-size="14.00">*0</text>
</g>
<!-- node5&#45;&gt;node8 -->
<g id="edge20" class="edge">
<title>node5&#45;&gt;node8</title>
<path fill="none" stroke="green" d="M560.88,-293.07C609.32,-282.49 671.7,-268.54 720.76,-257.33"/>
<polygon fill="green" stroke="green" points="721.74,-260.7 730.7,-255.06 720.18,-253.88 721.74,-260.7"/>
</g>
<!-- node9 -->
<g id="node10" class="node">
<title>node9</title>
<polygon fill="orange" stroke="black" points="606.3,-229.54 606.3,-244.46 523.53,-255 406.47,-255 323.7,-244.46 323.7,-229.54 406.47,-219 523.53,-219 606.3,-229.54"/>
<text text-anchor="middle" x="465" y="-233.3" font-family="Times,serif" font-size="14.00">#9 ArrayLength Order : 4</text>
</g>
<!-- node5&#45;&gt;node9 -->
<g id="edge23" class="edge">
<title>node5&#45;&gt;node9</title>
<path fill="none" stroke="black" d="M473.52,-291.81C470.54,-283.79 467.7,-274.05 465.67,-265.07"/>
<polygon fill="black" stroke="black" points="469.06,-264.17 463.7,-255.03 462.19,-265.52 469.06,-264.17"/>
<text text-anchor="middle" x="475.48" y="-267.49" font-family="Times,serif" font-size="14.00">*0</text>
</g>
<!-- node12 -->
<g id="node13" class="node">
<title>node12</title>
<polygon fill="lightgrey" stroke="black" points="752,-109 516,-109 516,-73 752,-73 752,-109"/>
<text text-anchor="middle" x="634" y="-87.3" font-family="Times,serif" font-size="14.00">#12 ArrayLoad : int Order : 12</text>
</g>
<!-- node5&#45;&gt;node12 -->
<g id="edge29" class="edge">
<title>node5&#45;&gt;node12</title>
<path fill="none" stroke="black" d="M559.93,-293C580.81,-284.96 601.42,-272.95 615,-255 644.92,-215.47 642.94,-154.38 638.61,-119.29"/>
<polygon fill="black" stroke="black" points="642.06,-118.71 637.22,-109.29 635.13,-119.68 642.06,-118.71"/>
<text text-anchor="middle" x="648.09" y="-122.38" font-family="Times,serif" font-size="14.00">*0</text>
</g>
<!-- node6&#45;&gt;node3 -->
<g id="edge12" class="edge">
<title>node6&#45;&gt;node3</title>
<path fill="none" stroke="fuchsia" stroke-width="2" d="M806.86,-328.03C807.71,-336.03 807.95,-345.77 807.59,-354.75"/>
<polygon fill="fuchsia" stroke="fuchsia" stroke-width="2" points="804.09,-354.59 806.88,-364.81 811.07,-355.08 804.09,-354.59"/>
</g>
<!-- node6&#45;&gt;node8 -->
<g id="edge18" class="edge">
<title>node6&#45;&gt;node8</title>
<path fill="none" stroke="black" d="M801,-291.81C801,-283.79 801,-274.05 801,-265.07"/>
<polygon fill="black" stroke="black" points="804.5,-265.03 801,-255.03 797.5,-265.03 804.5,-265.03"/>
<text text-anchor="middle" x="809.45" y="-269.45" font-family="Times,serif" font-size="14.00">*1</text>
</g>
<!-- node7&#45;&gt;node3 -->
<g id="edge14" class="edge">
<title>node7&#45;&gt;node3</title>
<path fill="none" stroke="fuchsia" stroke-width="2" d="M980.67,-327.62C948.94,-337.9 906.67,-351.15 871.08,-362"/>
<polygon fill="fuchsia" stroke="fuchsia" stroke-width="2" points="869.78,-358.74 861.23,-364.99 871.82,-365.44 869.78,-358.74"/>
</g>
<!-- node7&#45;&gt;node8 -->
<g id="edge19" class="edge">
<title>node7&#45;&gt;node8</title>
<path fill="none" stroke="black" d="M976.77,-292.98C943.78,-282.66 900.63,-269.16 865.34,-258.12"/>
<polygon fill="black" stroke="black" points="866.19,-254.72 855.6,-255.08 864.1,-261.4 866.19,-254.72"/>
<text text-anchor="middle" x="875.43" y="-248.72" font-family="Times,serif" font-size="14.00">*2</text>
</g>
<!-- node8&#45;&gt;node0 -->
<g id="edge16" class="edge">
<title>node8&#45;&gt;node0</title>
<path fill="none" stroke="fuchsia" stroke-width="2" d="M917.85,-238.87C1023.97,-242.92 1164,-257.95 1164,-309 1164,-457 1164,-457 1164,-457 1164,-497.42 508.56,-504.91 409.37,-510.95"/>
<polygon fill="fuchsia" stroke="fuchsia" stroke-width="2" points="409.01,-507.47 399.33,-511.77 409.58,-514.44 409.01,-507.47"/>
</g>
<!-- node10 -->
<g id="node11" class="node">
<title>node10</title>
<polygon fill="lightgrey" stroke="black" points="1102,-182 896,-182 896,-146 1102,-146 1102,-182"/>
<text text-anchor="middle" x="999" y="-160.3" font-family="Times,serif" font-size="14.00">#10 LabelNode Order : 10</text>
</g>
<!-- node8&#45;&gt;node10 -->
<g id="edge25" class="edge">
<title>node8&#45;&gt;node10</title>
<path fill="none" stroke="red" d="M842.57,-218.99C869.58,-208.92 905.23,-196.1 935.71,-185.48"/>
<polygon fill="red" stroke="red" points="937.1,-188.7 945.4,-182.11 934.81,-182.09 937.1,-188.7"/>
</g>
<!-- node11 -->
<g id="node12" class="node">
<title>node11</title>
<polygon fill="lightgreen" stroke="black" points="877.77,-156.54 877.77,-171.46 814.64,-182 725.36,-182 662.23,-171.46 662.23,-156.54 725.36,-146 814.64,-146 877.77,-156.54"/>
<text text-anchor="middle" x="770" y="-160.3" font-family="Times,serif" font-size="14.00">#11 int 1 Order : 9</text>
</g>
<!-- node8&#45;&gt;node11 -->
<g id="edge27" class="edge">
<title>node8&#45;&gt;node11</title>
<path fill="none" stroke="black" stroke-dasharray="1,5" d="M787.62,-218.81C783.18,-210.62 778.59,-200.62 775.01,-191.48"/>
<polygon fill="black" stroke="black" points="778.28,-190.23 771.57,-182.03 771.7,-192.62 778.28,-190.23"/>
</g>
<!-- node8&#45;&gt;node12 -->
<g id="edge31" class="edge">
<title>node8&#45;&gt;node12</title>
<path fill="none" stroke="green" d="M710.35,-218.99C688.91,-211 667.96,-199.25 653,-182 638.08,-164.8 633.89,-138.84 633.1,-119.21"/>
<polygon fill="green" stroke="green" points="636.6,-119.01 632.96,-109.05 629.6,-119.1 636.6,-119.01"/>
</g>
<!-- node9&#45;&gt;node5 -->
<g id="edge22" class="edge">
<title>node9&#45;&gt;node5</title>
<path fill="none" stroke="fuchsia" stroke-width="2" d="M475.42,-255.03C478.41,-263.03 481.25,-272.77 483.29,-281.75"/>
<polygon fill="fuchsia" stroke="fuchsia" stroke-width="2" points="479.91,-282.68 485.28,-291.81 486.78,-281.32 479.91,-282.68"/>
</g>
<!-- node10&#45;&gt;node8 -->
<g id="edge24" class="edge">
<title>node10&#45;&gt;node8</title>
<path fill="none" stroke="fuchsia" stroke-width="2" d="M957.15,-182.11C930.07,-192.2 894.41,-205.03 863.97,-215.63"/>
<polygon fill="fuchsia" stroke="fuchsia" stroke-width="2" points="862.59,-212.41 854.29,-218.99 864.88,-219.02 862.59,-212.41"/>
</g>
<!-- node13 -->
<g id="node14" class="node">
<title>node13</title>
<polygon fill="lightgrey" stroke="black" points="1102,-109 896,-109 896,-73 1102,-73 1102,-109"/>
<text text-anchor="middle" x="999" y="-87.3" font-family="Times,serif" font-size="14.00">#13 LabelNode Order : 11</text>
</g>
<!-- node10&#45;&gt;node13 -->
<g id="edge33" class="edge">
<title>node10&#45;&gt;node13</title>
<path fill="none" stroke="red" d="M993.12,-145.81C992.28,-137.79 992.05,-128.05 992.42,-119.07"/>
<polygon fill="red" stroke="red" points="995.92,-119.25 993.14,-109.03 988.94,-118.75 995.92,-119.25"/>
</g>
<!-- node11&#45;&gt;node8 -->
<g id="edge26" class="edge">
<title>node11&#45;&gt;node8</title>
<path fill="none" stroke="fuchsia" stroke-width="2" d="M783.3,-182.03C787.73,-190.2 792.32,-200.19 795.92,-209.34"/>
<polygon fill="fuchsia" stroke="fuchsia" stroke-width="2" points="792.66,-210.62 799.37,-218.81 799.24,-208.22 792.66,-210.62"/>
</g>
<!-- node11&#45;&gt;node12 -->
<g id="edge30" class="edge">
<title>node11&#45;&gt;node12</title>
<path fill="none" stroke="black" d="M737.42,-145.99C718.97,-136.36 695.69,-124.21 675.89,-113.87"/>
<polygon fill="black" stroke="black" points="677.27,-110.64 666.78,-109.11 674.03,-116.84 677.27,-110.64"/>
<text text-anchor="middle" x="686.76" y="-106.31" font-family="Times,serif" font-size="14.00">*1</text>
</g>
<!-- node12&#45;&gt;node0 -->
<g id="edge28" class="edge">
<title>node12&#45;&gt;node0</title>
<path fill="none" stroke="fuchsia" stroke-width="2" d="M515.78,-94.84C418.31,-100.51 296,-116.83 296,-163 296,-457 296,-457 296,-457 296,-472.1 300.24,-488.36 304.82,-501.5"/>
<polygon fill="fuchsia" stroke="fuchsia" stroke-width="2" points="301.55,-502.73 308.32,-510.87 308.1,-500.28 301.55,-502.73"/>
</g>
<!-- node14 -->
<g id="node15" class="node">
<title>node14</title>
<polygon fill="lightgrey" stroke="black" points="359.5,-36 180.5,-36 180.5,0 359.5,0 359.5,-36"/>
<text text-anchor="middle" x="270" y="-14.3" font-family="Times,serif" font-size="14.00">#14 Return Order : 13</text>
</g>
<!-- node12&#45;&gt;node14 -->
<g id="edge36" class="edge">
<title>node12&#45;&gt;node14</title>
<path fill="none" stroke="green" d="M546.81,-72.99C492.75,-62.45 423.19,-48.88 367.33,-37.98"/>
<polygon fill="green" stroke="green" points="367.91,-34.53 357.42,-36.05 366.57,-41.4 367.91,-34.53"/>
</g>
<!-- node13&#45;&gt;node10 -->
<g id="edge32" class="edge">
<title>node13&#45;&gt;node10</title>
<path fill="none" stroke="fuchsia" stroke-width="2" d="M1004.86,-109.03C1005.71,-117.03 1005.95,-126.77 1005.59,-135.75"/>
<polygon fill="fuchsia" stroke="fuchsia" stroke-width="2" points="1002.09,-135.59 1004.88,-145.81 1009.07,-136.08 1002.09,-135.59"/>
</g>
<!-- node13&#45;&gt;node14 -->
<g id="edge35" class="edge">
<title>node13&#45;&gt;node14</title>
<path fill="none" stroke="red" d="M895.71,-79.94C755.85,-66.32 507.87,-42.17 369.82,-28.72"/>
<polygon fill="red" stroke="red" points="369.96,-25.22 359.66,-27.73 369.28,-32.19 369.96,-25.22"/>
</g>
<!-- node14&#45;&gt;node0 -->
<g id="edge34" class="edge">
<title>node14&#45;&gt;node0</title>
<path fill="none" stroke="fuchsia" stroke-width="2" d="M265.46,-36.08C262.07,-50.38 258,-71.37 258,-90 258,-457 258,-457 258,-457 258,-475.49 269.95,-491.83 283,-504.15"/>
<polygon fill="fuchsia" stroke="fuchsia" stroke-width="2" points="280.9,-506.97 290.73,-510.93 285.52,-501.7 280.9,-506.97"/>
</g>
<!-- c0 -->
<!-- c1 -->
<!-- c0&#45;&gt;c1 -->
<g id="edge37" class="edge">
<title>c0&#45;&gt;c1</title>
<path fill="none" stroke="red" d="M1267.89,-529C1279.11,-529 1337.24,-529 1362.86,-529"/>
<polygon fill="red" stroke="red" points="1363.06,-532.5 1373.06,-529 1363.06,-525.5 1363.06,-532.5"/>
<text text-anchor="middle" x="1320.5" y="-535.8" font-family="Times,serif" font-size="14.00">Control flow</text>
</g>
<!-- c2 -->
<!-- c3 -->
<!-- c2&#45;&gt;c3 -->
<g id="edge38" class="edge">
<title>c2&#45;&gt;c3</title>
<path fill="none" stroke="red" stroke-dasharray="5,2" d="M1061.08,-529C1078.05,-529 1194.21,-529 1232.08,-529"/>
<polygon fill="red" stroke="red" points="1232.17,-532.5 1242.17,-529 1232.17,-525.5 1232.17,-532.5"/>
<text text-anchor="middle" x="1151.5" y="-535.8" font-family="Times,serif" font-size="14.00">Control flow back edge</text>
</g>
<!-- d0 -->
<!-- d1 -->
<!-- d0&#45;&gt;d1 -->
<g id="edge39" class="edge">
<title>d0&#45;&gt;d1</title>
<path fill="none" stroke="black" d="M949.86,-529C959.41,-529 1003.31,-529 1024.92,-529"/>
<polygon fill="black" stroke="black" points="1025.15,-532.5 1035.15,-529 1025.15,-525.5 1025.15,-532.5"/>
<text text-anchor="middle" x="992.5" y="-535.8" font-family="Times,serif" font-size="14.00">Data flow</text>
</g>
<!-- d2 -->
<!-- d3 -->
<!-- d2&#45;&gt;d3 -->
<g id="edge40" class="edge">
<title>d2&#45;&gt;d3</title>
<path fill="none" stroke="black" stroke-dasharray="1,5" d="M823.81,-529C834.46,-529 889.46,-529 914.08,-529"/>
<polygon fill="black" stroke="black" points="914.15,-532.5 924.15,-529 914.15,-525.5 914.15,-532.5"/>
<text text-anchor="middle" x="874" y="-535.8" font-family="Times,serif" font-size="14.00">Declaration</text>
</g>
<!-- d4 -->
<!-- d5 -->
<!-- d4&#45;&gt;d5 -->
<g id="edge41" class="edge">
<title>d4&#45;&gt;d5</title>
<path fill="none" stroke="blue" d="M681.1,-529C693.72,-529 759.88,-529 787.68,-529"/>
<polygon fill="blue" stroke="blue" points="787.84,-532.5 797.84,-529 787.84,-525.5 787.84,-532.5"/>
<text text-anchor="middle" x="739.5" y="-535.8" font-family="Times,serif" font-size="14.00">PHI Data flow</text>
</g>
<!-- d6 -->
<!-- d7 -->
<!-- d6&#45;&gt;d7 -->
<g id="edge42" class="edge">
<title>d6&#45;&gt;d7</title>
<path fill="none" stroke="green" d="M544,-529C555.94,-529 618.3,-529 644.93,-529"/>
<polygon fill="green" stroke="green" points="644.95,-532.5 654.95,-529 644.95,-525.5 644.95,-532.5"/>
<text text-anchor="middle" x="599.5" y="-535.8" font-family="Times,serif" font-size="14.00">Memory flow</text>
</g>
<!-- d8 -->
<!-- d9 -->
<!-- d8&#45;&gt;d9 -->
<g id="edge43" class="edge">
<title>d8&#45;&gt;d9</title>
<path fill="none" stroke="fuchsia" d="M421.11,-529C432.15,-529 483.67,-529 507.66,-529"/>
<polygon fill="fuchsia" stroke="fuchsia" points="507.9,-532.5 517.9,-529 507.9,-525.5 507.9,-532.5"/>
<text text-anchor="middle" x="469.5" y="-535.8" font-family="Times,serif" font-size="14.00">Dominance</text>
</g>
</g>
</svg>
