<?xml version="1.0" encoding="UTF-8" standalone="no"?>
<!DOCTYPE svg PUBLIC "-//W3C//DTD SVG 1.1//EN"
 "http://www.w3.org/Graphics/SVG/1.1/DTD/svg11.dtd">
<!-- Generated by graphviz version 2.43.0 (0)
 -->
<!-- Title: debugoutput Pages: 1 -->
<svg width="1687pt" height="432pt"
 viewBox="0.00 0.00 1687.00 431.80" xmlns="http://www.w3.org/2000/svg" xmlns:xlink="http://www.w3.org/1999/xlink">
<g id="graph0" class="graph" transform="scale(1 1) rotate(0) translate(4 427.8)">
<title>debugoutput</title>
<polygon fill="white" stroke="transparent" points="-4,4 -4,-427.8 1683,-427.8 1683,4 -4,4"/>
<g id="clust1" class="cluster">
<title>cluster_000</title>
<polygon fill="none" stroke="black" points="695,-373.2 695,-415.8 1671,-415.8 1671,-373.2 695,-373.2"/>
<text text-anchor="middle" x="1183" y="-400.6" font-family="Times,serif" font-size="14.00">Legend</text>
</g>
<!-- node0 -->
<g id="node1" class="node">
<title>node0</title>
<polygon fill="lightgrey" stroke="black" points="685,-401 519,-401 519,-365 685,-365 685,-401"/>
<text text-anchor="middle" x="602" y="-379.3" font-family="Times,serif" font-size="14.00">#0 Method Order : 0</text>
</g>
<!-- node1 -->
<g id="node2" class="node">
<title>node1</title>
<polygon fill="lightgrey" stroke="black" points="230,-328 0,-328 0,-292 230,-292 230,-328"/>
<text text-anchor="middle" x="115" y="-306.3" font-family="Times,serif" font-size="14.00">#1 this : ArrayTest Order : 14</text>
</g>
<!-- node0&#45;&gt;node1 -->
<g id="edge2" class="edge">
<title>node0&#45;&gt;node1</title>
<path fill="none" stroke="black" d="M518.75,-378.41C443.83,-374.07 331.22,-364.99 235,-347 213.2,-342.92 189.73,-336.89 169.34,-330.92"/>
<polygon fill="black" stroke="black" points="170.17,-327.51 159.59,-328 168.17,-334.22 170.17,-327.51"/>
<text text-anchor="middle" x="179.38" y="-321.4" font-family="Times,serif" font-size="14.00">*0</text>
</g>
<!-- node2 -->
<g id="node3" class="node">
<title>node2</title>
<polygon fill="lightgrey" stroke="black" points="861,-328 673,-328 673,-292 861,-292 861,-328"/>
<text text-anchor="middle" x="767" y="-306.3" font-family="Times,serif" font-size="14.00">#2 LabelNode Order : 1</text>
</g>
<!-- node0&#45;&gt;node2 -->
<g id="edge4" class="edge">
<title>node0&#45;&gt;node2</title>
<path fill="none" stroke="red" d="M635.66,-364.99C657.61,-355.1 686.66,-342.54 711.9,-332.03"/>
<polygon fill="red" stroke="red" points="713.46,-335.17 721.36,-328.11 710.78,-328.71 713.46,-335.17"/>
</g>
<!-- node5 -->
<g id="node6" class="node">
<title>node5</title>
<polygon fill="orange" stroke="black" points="605.89,-156.54 605.89,-171.46 512.23,-182 379.77,-182 286.11,-171.46 286.11,-156.54 379.77,-146 512.23,-146 605.89,-156.54"/>
<text text-anchor="middle" x="446" y="-160.3" font-family="Times,serif" font-size="14.00">#5 NewArray : int[] Order : 3</text>
</g>
<!-- node0&#45;&gt;node5 -->
<g id="edge11" class="edge">
<title>node0&#45;&gt;node5</title>
<path fill="none" stroke="green" d="M585.92,-364.97C555.08,-327.12 489.18,-235.77 460.02,-190.84"/>
<polygon fill="green" stroke="green" points="462.86,-188.8 454.54,-182.25 456.96,-192.56 462.86,-188.8"/>
</g>
<!-- node1&#45;&gt;node0 -->
<g id="edge1" class="edge">
<title>node1&#45;&gt;node0</title>
<path fill="none" stroke="fuchsia" stroke-width="2" d="M176.12,-328C200.01,-334.86 227.63,-342.26 253,-347 339.01,-363.08 438.11,-372.04 508.73,-376.86"/>
<polygon fill="fuchsia" stroke="fuchsia" stroke-width="2" points="508.72,-380.37 518.94,-377.54 509.19,-373.38 508.72,-380.37"/>
</g>
<!-- node2&#45;&gt;node0 -->
<g id="edge3" class="edge">
<title>node2&#45;&gt;node0</title>
<path fill="none" stroke="fuchsia" stroke-width="2" d="M733.1,-328.11C711.1,-338.03 682.04,-350.58 656.83,-361.08"/>
<polygon fill="fuchsia" stroke="fuchsia" stroke-width="2" points="655.28,-357.93 647.38,-364.99 657.96,-364.4 655.28,-357.93"/>
</g>
<!-- node3 -->
<g id="node4" class="node">
<title>node3</title>
<polygon fill="lightgrey" stroke="black" points="1081,-255 893,-255 893,-219 1081,-219 1081,-255"/>
<text text-anchor="middle" x="987" y="-233.3" font-family="Times,serif" font-size="14.00">#3 LabelNode Order : 5</text>
</g>
<!-- node2&#45;&gt;node3 -->
<g id="edge6" class="edge">
<title>node2&#45;&gt;node3</title>
<path fill="none" stroke="red" d="M813.84,-291.99C844.23,-281.84 884.28,-268.88 918.24,-258.2"/>
<polygon fill="red" stroke="red" points="919.61,-261.44 928.1,-255.11 917.51,-254.76 919.61,-261.44"/>
</g>
<!-- node4 -->
<g id="node5" class="node">
<title>node4</title>
<polygon fill="lightgreen" stroke="black" points="874.77,-229.54 874.77,-244.46 811.64,-255 722.36,-255 659.23,-244.46 659.23,-229.54 722.36,-219 811.64,-219 874.77,-229.54"/>
<text text-anchor="middle" x="767" y="-233.3" font-family="Times,serif" font-size="14.00">#4 int 10 Order : 2</text>
</g>
<!-- node2&#45;&gt;node4 -->
<g id="edge8" class="edge">
<title>node2&#45;&gt;node4</title>
<path fill="none" stroke="black" stroke-dasharray="1,5" d="M761.12,-291.81C760.28,-283.79 760.05,-274.05 760.42,-265.07"/>
<polygon fill="black" stroke="black" points="763.92,-265.25 761.14,-255.03 756.94,-264.75 763.92,-265.25"/>
</g>
<!-- node3&#45;&gt;node2 -->
<g id="edge5" class="edge">
<title>node3&#45;&gt;node2</title>
<path fill="none" stroke="fuchsia" stroke-width="2" d="M939.84,-255.11C909.38,-265.29 869.32,-278.25 835.4,-288.91"/>
<polygon fill="fuchsia" stroke="fuchsia" stroke-width="2" points="834.05,-285.66 825.55,-291.99 836.14,-292.34 834.05,-285.66"/>
</g>
<!-- node6 -->
<g id="node7" class="node">
<title>node6</title>
<polygon fill="lightgrey" stroke="black" points="1079.5,-182 882.5,-182 882.5,-146 1079.5,-146 1079.5,-182"/>
<text text-anchor="middle" x="981" y="-160.3" font-family="Times,serif" font-size="14.00">#6 LabelNode Order : 11</text>
</g>
<!-- node3&#45;&gt;node6 -->
<g id="edge13" class="edge">
<title>node3&#45;&gt;node6</title>
<path fill="none" stroke="red" d="M979.67,-218.81C978.15,-210.79 977.1,-201.05 976.71,-192.07"/>
<polygon fill="red" stroke="red" points="980.21,-191.98 976.58,-182.03 973.21,-192.07 980.21,-191.98"/>
</g>
<!-- node7 -->
<g id="node8" class="node">
<title>node7</title>
<polygon fill="lightgreen" stroke="black" points="864.11,-156.54 864.11,-171.46 804.88,-182 721.12,-182 661.89,-171.46 661.89,-156.54 721.12,-146 804.88,-146 864.11,-156.54"/>
<text text-anchor="middle" x="763" y="-160.3" font-family="Times,serif" font-size="14.00">#7 int 1 Order : 9</text>
</g>
<!-- node3&#45;&gt;node7 -->
<g id="edge15" class="edge">
<title>node3&#45;&gt;node7</title>
<path fill="none" stroke="black" stroke-dasharray="1,5" d="M927.49,-218.99C893.64,-208.61 851.57,-195.31 818.42,-184.5"/>
<polygon fill="black" stroke="black" points="819.48,-181.16 808.88,-181.38 817.3,-187.82 819.48,-181.16"/>
</g>
<!-- node8 -->
<g id="node9" class="node">
<title>node8</title>
<polygon fill="lightgreen" stroke="black" points="1312.77,-156.54 1312.77,-171.46 1249.64,-182 1160.36,-182 1097.23,-171.46 1097.23,-156.54 1160.36,-146 1249.64,-146 1312.77,-156.54"/>
<text text-anchor="middle" x="1205" y="-160.3" font-family="Times,serif" font-size="14.00">#8 int 10 Order : 7</text>
</g>
<!-- node3&#45;&gt;node8 -->
<g id="edge17" class="edge">
<title>node3&#45;&gt;node8</title>
<path fill="none" stroke="black" stroke-dasharray="1,5" d="M1033.36,-218.99C1064.93,-208.34 1107.03,-194.61 1141.67,-183.66"/>
<polygon fill="black" stroke="black" points="1142.74,-187 1151.23,-180.65 1140.64,-180.32 1142.74,-187"/>
</g>
<!-- node9 -->
<g id="node10" class="node">
<title>node9</title>
<polygon fill="lightgreen" stroke="black" points="1533.11,-156.54 1533.11,-171.46 1473.88,-182 1390.12,-182 1330.89,-171.46 1330.89,-156.54 1390.12,-146 1473.88,-146 1533.11,-156.54"/>
<text text-anchor="middle" x="1432" y="-160.3" font-family="Times,serif" font-size="14.00">#9 int 0 Order : 6</text>
</g>
<!-- node3&#45;&gt;node9 -->
<g id="edge19" class="edge">
<title>node3&#45;&gt;node9</title>
<path fill="none" stroke="black" stroke-dasharray="1,5" d="M1081.13,-220.07C1159.84,-207.27 1271.09,-189.54 1347.11,-177.7"/>
<polygon fill="black" stroke="black" points="1347.79,-181.13 1357.13,-176.14 1346.71,-174.22 1347.79,-181.13"/>
</g>
<!-- node4&#45;&gt;node2 -->
<g id="edge7" class="edge">
<title>node4&#45;&gt;node2</title>
<path fill="none" stroke="fuchsia" stroke-width="2" d="M772.86,-255.03C773.71,-263.03 773.95,-272.77 773.59,-281.75"/>
<polygon fill="fuchsia" stroke="fuchsia" stroke-width="2" points="770.09,-281.59 772.88,-291.81 777.07,-282.08 770.09,-281.59"/>
</g>
<!-- node4&#45;&gt;node5 -->
<g id="edge10" class="edge">
<title>node4&#45;&gt;node5</title>
<path fill="none" stroke="black" d="M703.96,-222.06C654.03,-211.01 583.84,-195.49 529.28,-183.42"/>
<polygon fill="black" stroke="black" points="529.81,-179.95 519.29,-181.21 528.29,-186.79 529.81,-179.95"/>
<text text-anchor="middle" x="538.81" y="-173.17" font-family="Times,serif" font-size="14.00">*0</text>
</g>
<!-- node5&#45;&gt;node0 -->
<g id="edge9" class="edge">
<title>node5&#45;&gt;node0</title>
<path fill="none" stroke="fuchsia" stroke-width="2" d="M462.26,-182.25C493.23,-220.31 559.13,-311.67 588.15,-356.42"/>
<polygon fill="fuchsia" stroke="fuchsia" stroke-width="2" points="585.28,-358.42 593.6,-364.97 591.18,-354.66 585.28,-358.42"/>
</g>
<!-- node10 -->
<g id="node11" class="node">
<title>node10</title>
<polygon fill="orange" stroke="black" points="605.97,-83.54 605.97,-98.46 519.29,-109 396.71,-109 310.03,-98.46 310.03,-83.54 396.71,-73 519.29,-73 605.97,-83.54"/>
<text text-anchor="middle" x="458" y="-87.3" font-family="Times,serif" font-size="14.00">#10 ArrayLength Order : 4</text>
</g>
<!-- node5&#45;&gt;node10 -->
<g id="edge21" class="edge">
<title>node5&#45;&gt;node10</title>
<path fill="none" stroke="black" d="M443.03,-145.81C443.55,-137.7 444.99,-127.84 446.91,-118.78"/>
<polygon fill="black" stroke="black" points="450.32,-119.57 449.26,-109.03 443.51,-117.93 450.32,-119.57"/>
<text text-anchor="middle" x="453.23" y="-124.93" font-family="Times,serif" font-size="14.00">*0</text>
</g>
<!-- node11 -->
<g id="node12" class="node">
<title>node11</title>
<polygon fill="lightgrey" stroke="black" points="1425,-109 1183,-109 1183,-73 1425,-73 1425,-109"/>
<text text-anchor="middle" x="1304" y="-87.3" font-family="Times,serif" font-size="14.00">#11 ArrayStore : int[] Order : 8</text>
</g>
<!-- node5&#45;&gt;node11 -->
<g id="edge23" class="edge">
<title>node5&#45;&gt;node11</title>
<path fill="none" stroke="black" d="M569.47,-152.37C729.88,-138.9 1008.7,-115.83 1172.81,-102.45"/>
<polygon fill="black" stroke="black" points="1173.29,-105.92 1182.97,-101.62 1172.72,-98.94 1173.29,-105.92"/>
<text text-anchor="middle" x="1165.59" y="-107.82" font-family="Times,serif" font-size="14.00">*0</text>
</g>
<!-- node5&#45;&gt;node11 -->
<g id="edge26" class="edge">
<title>node5&#45;&gt;node11</title>
<path fill="none" stroke="green" d="M573.37,-152.87C734.39,-139.74 1010.1,-116.93 1172.88,-103.27"/>
<polygon fill="green" stroke="green" points="1173.29,-106.75 1182.96,-102.43 1172.7,-99.77 1173.29,-106.75"/>
</g>
<!-- node12 -->
<g id="node13" class="node">
<title>node12</title>
<polygon fill="lightgrey" stroke="black" points="292,-109 56,-109 56,-73 292,-73 292,-109"/>
<text text-anchor="middle" x="174" y="-87.3" font-family="Times,serif" font-size="14.00">#12 ArrayLoad : int Order : 10</text>
</g>
<!-- node5&#45;&gt;node12 -->
<g id="edge28" class="edge">
<title>node5&#45;&gt;node12</title>
<path fill="none" stroke="black" d="M380.85,-145.99C341.27,-135.66 290.59,-122.43 249.3,-111.66"/>
<polygon fill="black" stroke="black" points="250.12,-108.25 239.56,-109.11 248.35,-115.03 250.12,-108.25"/>
<text text-anchor="middle" x="259.24" y="-101.81" font-family="Times,serif" font-size="14.00">*0</text>
</g>
<!-- node6&#45;&gt;node3 -->
<g id="edge12" class="edge">
<title>node6&#45;&gt;node3</title>
<path fill="none" stroke="fuchsia" stroke-width="2" d="M988.3,-182.03C989.82,-190.03 990.89,-199.77 991.28,-208.75"/>
<polygon fill="fuchsia" stroke="fuchsia" stroke-width="2" points="987.78,-208.86 991.43,-218.81 994.78,-208.76 987.78,-208.86"/>
</g>
<!-- node13 -->
<g id="node14" class="node">
<title>node13</title>
<polygon fill="lightgrey" stroke="black" points="1084,-109 878,-109 878,-73 1084,-73 1084,-109"/>
<text text-anchor="middle" x="981" y="-87.3" font-family="Times,serif" font-size="14.00">#13 LabelNode Order : 12</text>
</g>
<!-- node6&#45;&gt;node13 -->
<g id="edge32" class="edge">
<title>node6&#45;&gt;node13</title>
<path fill="none" stroke="red" d="M975.12,-145.81C974.28,-137.79 974.05,-128.05 974.42,-119.07"/>
<polygon fill="red" stroke="red" points="977.92,-119.25 975.14,-109.03 970.94,-118.75 977.92,-119.25"/>
</g>
<!-- node7&#45;&gt;node3 -->
<g id="edge14" class="edge">
<title>node7&#45;&gt;node3</title>
<path fill="none" stroke="fuchsia" stroke-width="2" d="M816.14,-180.06C850.32,-190.48 894.64,-204.48 929.61,-215.86"/>
<polygon fill="fuchsia" stroke="fuchsia" stroke-width="2" points="928.61,-219.22 939.21,-218.99 930.79,-212.56 928.61,-219.22"/>
</g>
<!-- node7&#45;&gt;node12 -->
<g id="edge29" class="edge">
<title>node7&#45;&gt;node12</title>
<path fill="none" stroke="black" d="M679.38,-153.4C571.23,-140.95 387.57,-119.7 302.42,-109.16"/>
<polygon fill="black" stroke="black" points="302.65,-105.66 292.29,-107.9 301.79,-112.61 302.65,-105.66"/>
<text text-anchor="middle" x="311.33" y="-98.05" font-family="Times,serif" font-size="14.00">*1</text>
</g>
<!-- node8&#45;&gt;node3 -->
<g id="edge16" class="edge">
<title>node8&#45;&gt;node3</title>
<path fill="none" stroke="fuchsia" stroke-width="2" d="M1159.05,-181.87C1128.81,-192.07 1088.78,-205.14 1054.91,-215.89"/>
<polygon fill="fuchsia" stroke="fuchsia" stroke-width="2" points="1053.56,-212.64 1045.08,-218.99 1055.67,-219.32 1053.56,-212.64"/>
</g>
<!-- node8&#45;&gt;node11 -->
<g id="edge25" class="edge">
<title>node8&#45;&gt;node11</title>
<path fill="none" stroke="black" d="M1228.71,-145.99C1241.6,-136.75 1257.72,-125.19 1271.73,-115.14"/>
<polygon fill="black" stroke="black" points="1274.05,-117.79 1280.14,-109.11 1269.97,-112.1 1274.05,-117.79"/>
<text text-anchor="middle" x="1270.33" y="-122.85" font-family="Times,serif" font-size="14.00">*2</text>
</g>
<!-- node9&#45;&gt;node3 -->
<g id="edge18" class="edge">
<title>node9&#45;&gt;node3</title>
<path fill="none" stroke="fuchsia" stroke-width="2" d="M1361.97,-177.01C1289.21,-188.91 1174.64,-207.22 1091.25,-220.28"/>
<polygon fill="fuchsia" stroke="fuchsia" stroke-width="2" points="1090.58,-216.84 1081.24,-221.85 1091.66,-223.76 1090.58,-216.84"/>
</g>
<!-- node9&#45;&gt;node11 -->
<g id="edge24" class="edge">
<title>node9&#45;&gt;node11</title>
<path fill="none" stroke="black" d="M1401.34,-145.99C1384.05,-136.4 1362.26,-124.32 1343.68,-114.01"/>
<polygon fill="black" stroke="black" points="1345.3,-110.9 1334.85,-109.11 1341.9,-117.02 1345.3,-110.9"/>
<text text-anchor="middle" x="1354.8" y="-106.81" font-family="Times,serif" font-size="14.00">*1</text>
</g>
<!-- node10&#45;&gt;node5 -->
<g id="edge20" class="edge">
<title>node10&#45;&gt;node5</title>
<path fill="none" stroke="fuchsia" stroke-width="2" d="M460.98,-109.03C460.47,-117.12 459.04,-126.98 457.13,-136.05"/>
<polygon fill="fuchsia" stroke="fuchsia" stroke-width="2" points="453.72,-135.27 454.78,-145.81 460.52,-136.91 453.72,-135.27"/>
</g>
<!-- node11&#45;&gt;node0 -->
<g id="edge22" class="edge">
<title>node11&#45;&gt;node0</title>
<path fill="none" stroke="fuchsia" stroke-width="2" d="M1425.35,-104.16C1491.89,-114.32 1561,-132.28 1561,-163 1561,-311 1561,-311 1561,-311 1561,-357.49 803.55,-358.91 695.37,-364.97"/>
<polygon fill="fuchsia" stroke="fuchsia" stroke-width="2" points="695.02,-361.48 685.33,-365.75 695.57,-368.46 695.02,-361.48"/>
</g>
<!-- node11&#45;&gt;node12 -->
<g id="edge30" class="edge">
<title>node11&#45;&gt;node12</title>
<path fill="none" stroke="green" d="M1215.83,-109.03C1175.79,-116.34 1127.7,-123.9 1084,-127.5 912.58,-141.62 480.52,-149.98 310,-127.5 286.14,-124.35 260.53,-118.23 238.03,-111.89"/>
<polygon fill="green" stroke="green" points="238.84,-108.48 228.26,-109.06 236.9,-115.2 238.84,-108.48"/>
</g>
<!-- node12&#45;&gt;node0 -->
<g id="edge27" class="edge">
<title>node12&#45;&gt;node0</title>
<path fill="none" stroke="fuchsia" stroke-width="2" d="M216,-109.17C237,-120.81 258,-138.56 258,-163 258,-311 258,-311 258,-311 258,-362.34 406.84,-376.86 508.71,-380.79"/>
<polygon fill="fuchsia" stroke="fuchsia" stroke-width="2" points="508.61,-384.28 518.73,-381.14 508.86,-377.29 508.61,-384.28"/>
</g>
<!-- node14 -->
<g id="node15" class="node">
<title>node14</title>
<polygon fill="lightgrey" stroke="black" points="735.5,-36 556.5,-36 556.5,0 735.5,0 735.5,-36"/>
<text text-anchor="middle" x="646" y="-14.3" font-family="Times,serif" font-size="14.00">#14 Return Order : 13</text>
</g>
<!-- node12&#45;&gt;node14 -->
<g id="edge35" class="edge">
<title>node12&#45;&gt;node14</title>
<path fill="none" stroke="green" d="M287.06,-72.99C366.01,-61.12 470.44,-45.41 546.29,-34"/>
<polygon fill="green" stroke="green" points="546.96,-37.44 556.33,-32.49 545.92,-30.52 546.96,-37.44"/>
</g>
<!-- node13&#45;&gt;node6 -->
<g id="edge31" class="edge">
<title>node13&#45;&gt;node6</title>
<path fill="none" stroke="fuchsia" stroke-width="2" d="M986.86,-109.03C987.71,-117.03 987.95,-126.77 987.59,-135.75"/>
<polygon fill="fuchsia" stroke="fuchsia" stroke-width="2" points="984.09,-135.59 986.88,-145.81 991.07,-136.08 984.09,-135.59"/>
</g>
<!-- node13&#45;&gt;node14 -->
<g id="edge34" class="edge">
<title>node13&#45;&gt;node14</title>
<path fill="none" stroke="red" d="M900.76,-72.99C851.31,-62.51 787.78,-49.05 736.53,-38.19"/>
<polygon fill="red" stroke="red" points="736.96,-34.7 726.46,-36.05 735.51,-41.55 736.96,-34.7"/>
</g>
<!-- node14&#45;&gt;node0 -->
<g id="edge33" class="edge">
<title>node14&#45;&gt;node0</title>
<path fill="none" stroke="fuchsia" stroke-width="2" d="M643.89,-36.41C636.82,-94.73 613.93,-283.57 605.32,-354.62"/>
<polygon fill="fuchsia" stroke="fuchsia" stroke-width="2" points="601.79,-354.63 604.06,-364.98 608.74,-355.47 601.79,-354.63"/>
</g>
<!-- c0 -->
<!-- c1 -->
<!-- c0&#45;&gt;c1 -->
<g id="edge36" class="edge">
<title>c0&#45;&gt;c1</title>
<path fill="none" stroke="red" d="M1553.89,-383C1565.11,-383 1623.24,-383 1648.86,-383"/>
<polygon fill="red" stroke="red" points="1649.06,-386.5 1659.06,-383 1649.06,-379.5 1649.06,-386.5"/>
<text text-anchor="middle" x="1606.5" y="-389.8" font-family="Times,serif" font-size="14.00">Control flow</text>
</g>
<!-- c2 -->
<!-- c3 -->
<!-- c2&#45;&gt;c3 -->
<g id="edge37" class="edge">
<title>c2&#45;&gt;c3</title>
<path fill="none" stroke="red" stroke-dasharray="5,2" d="M1347.08,-383C1364.05,-383 1480.21,-383 1518.08,-383"/>
<polygon fill="red" stroke="red" points="1518.17,-386.5 1528.17,-383 1518.17,-379.5 1518.17,-386.5"/>
<text text-anchor="middle" x="1437.5" y="-389.8" font-family="Times,serif" font-size="14.00">Control flow back edge</text>
</g>
<!-- d0 -->
<!-- d1 -->
<!-- d0&#45;&gt;d1 -->
<g id="edge38" class="edge">
<title>d0&#45;&gt;d1</title>
<path fill="none" stroke="black" d="M1235.86,-383C1245.41,-383 1289.31,-383 1310.92,-383"/>
<polygon fill="black" stroke="black" points="1311.15,-386.5 1321.15,-383 1311.15,-379.5 1311.15,-386.5"/>
<text text-anchor="middle" x="1278.5" y="-389.8" font-family="Times,serif" font-size="14.00">Data flow</text>
</g>
<!-- d2 -->
<!-- d3 -->
<!-- d2&#45;&gt;d3 -->
<g id="edge39" class="edge">
<title>d2&#45;&gt;d3</title>
<path fill="none" stroke="black" stroke-dasharray="1,5" d="M1109.81,-383C1120.46,-383 1175.46,-383 1200.08,-383"/>
<polygon fill="black" stroke="black" points="1200.15,-386.5 1210.15,-383 1200.15,-379.5 1200.15,-386.5"/>
<text text-anchor="middle" x="1160" y="-389.8" font-family="Times,serif" font-size="14.00">Declaration</text>
</g>
<!-- d4 -->
<!-- d5 -->
<!-- d4&#45;&gt;d5 -->
<g id="edge40" class="edge">
<title>d4&#45;&gt;d5</title>
<path fill="none" stroke="blue" d="M967.1,-383C979.72,-383 1045.88,-383 1073.68,-383"/>
<polygon fill="blue" stroke="blue" points="1073.84,-386.5 1083.84,-383 1073.84,-379.5 1073.84,-386.5"/>
<text text-anchor="middle" x="1025.5" y="-389.8" font-family="Times,serif" font-size="14.00">PHI Data flow</text>
</g>
<!-- d6 -->
<!-- d7 -->
<!-- d6&#45;&gt;d7 -->
<g id="edge41" class="edge">
<title>d6&#45;&gt;d7</title>
<path fill="none" stroke="green" d="M830,-383C841.94,-383 904.3,-383 930.93,-383"/>
<polygon fill="green" stroke="green" points="930.95,-386.5 940.95,-383 930.95,-379.5 930.95,-386.5"/>
<text text-anchor="middle" x="885.5" y="-389.8" font-family="Times,serif" font-size="14.00">Memory flow</text>
</g>
<!-- d8 -->
<!-- d9 -->
<!-- d8&#45;&gt;d9 -->
<g id="edge42" class="edge">
<title>d8&#45;&gt;d9</title>
<path fill="none" stroke="fuchsia" d="M707.11,-383C718.15,-383 769.67,-383 793.66,-383"/>
<polygon fill="fuchsia" stroke="fuchsia" points="793.9,-386.5 803.9,-383 793.9,-379.5 793.9,-386.5"/>
<text text-anchor="middle" x="755.5" y="-389.8" font-family="Times,serif" font-size="14.00">Dominance</text>
</g>
</g>
</svg>
