<?xml version="1.0" encoding="UTF-8" standalone="no"?>
<!DOCTYPE svg PUBLIC "-//W3C//DTD SVG 1.1//EN"
 "http://www.w3.org/Graphics/SVG/1.1/DTD/svg11.dtd">
<!-- Generated by graphviz version 2.43.0 (0)
 -->
<!-- Title: debugoutput Pages: 1 -->
<svg width="1475pt" height="359pt"
 viewBox="0.00 0.00 1474.50 358.80" xmlns="http://www.w3.org/2000/svg" xmlns:xlink="http://www.w3.org/1999/xlink">
<g id="graph0" class="graph" transform="scale(1 1) rotate(0) translate(4 354.8)">
<title>debugoutput</title>
<polygon fill="white" stroke="transparent" points="-4,4 -4,-354.8 1470.5,-354.8 1470.5,4 -4,4"/>
<g id="clust1" class="cluster">
<title>cluster_000</title>
<polygon fill="none" stroke="black" points="482.5,-300.2 482.5,-342.8 1458.5,-342.8 1458.5,-300.2 482.5,-300.2"/>
<text text-anchor="middle" x="970.5" y="-327.6" font-family="Times,serif" font-size="14.00">Legend</text>
</g>
<!-- node0 -->
<g id="node1" class="node">
<title>node0</title>
<polygon fill="lightgrey" stroke="black" points="472.5,-328 306.5,-328 306.5,-292 472.5,-292 472.5,-328"/>
<text text-anchor="middle" x="389.5" y="-306.3" font-family="Times,serif" font-size="14.00">#0 Method Order : 0</text>
</g>
<!-- node1 -->
<g id="node2" class="node">
<title>node1</title>
<polygon fill="lightgrey" stroke="black" points="478,-255 301,-255 301,-219 478,-219 478,-255"/>
<text text-anchor="middle" x="389.5" y="-233.3" font-family="Times,serif" font-size="14.00">#1 arg0 : int Order : 4</text>
</g>
<!-- node0&#45;&gt;node1 -->
<g id="edge2" class="edge">
<title>node0&#45;&gt;node1</title>
<path fill="none" stroke="black" d="M383.62,-291.81C382.78,-283.79 382.55,-274.05 382.92,-265.07"/>
<polygon fill="black" stroke="black" points="386.42,-265.25 383.64,-255.03 379.44,-264.75 386.42,-265.25"/>
<text text-anchor="middle" x="390.78" y="-270.01" font-family="Times,serif" font-size="14.00">*0</text>
</g>
<!-- node2 -->
<g id="node3" class="node">
<title>node2</title>
<polygon fill="lightgrey" stroke="black" points="811.5,-255 533.5,-255 533.5,-219 811.5,-219 811.5,-255"/>
<text text-anchor="middle" x="672.5" y="-233.3" font-family="Times,serif" font-size="14.00">#2 this : SynchronizedTest Order : 3</text>
</g>
<!-- node0&#45;&gt;node2 -->
<g id="edge4" class="edge">
<title>node0&#45;&gt;node2</title>
<path fill="none" stroke="black" d="M451.43,-291.99C491.75,-281.6 544.79,-268.27 588.84,-257.46"/>
<polygon fill="black" stroke="black" points="589.79,-260.83 598.67,-255.05 588.12,-254.03 589.79,-260.83"/>
<text text-anchor="middle" x="583.07" y="-263.87" font-family="Times,serif" font-size="14.00">*0</text>
</g>
<!-- node3 -->
<g id="node4" class="node">
<title>node3</title>
<polygon fill="lightgrey" stroke="black" points="282.5,-255 94.5,-255 94.5,-219 282.5,-219 282.5,-255"/>
<text text-anchor="middle" x="188.5" y="-233.3" font-family="Times,serif" font-size="14.00">#3 LabelNode Order : 1</text>
</g>
<!-- node0&#45;&gt;node3 -->
<g id="edge6" class="edge">
<title>node0&#45;&gt;node3</title>
<path fill="none" stroke="red" d="M335.5,-291.99C306.05,-281.97 269.83,-269.21 240.67,-258.62"/>
<polygon fill="red" stroke="red" points="241.67,-255.26 231.08,-255.11 239.27,-261.83 241.67,-255.26"/>
</g>
<!-- node6 -->
<g id="node7" class="node">
<title>node6</title>
<polygon fill="lightgrey" stroke="black" points="233,-36 0,-36 0,0 233,0 233,-36"/>
<text text-anchor="middle" x="116.5" y="-14.3" font-family="Times,serif" font-size="14.00">#6 ReturnValue : int Order : 6</text>
</g>
<!-- node0&#45;&gt;node6 -->
<g id="edge15" class="edge">
<title>node0&#45;&gt;node6</title>
<path fill="none" stroke="green" d="M306.5,-306.27C223.7,-301.61 104.99,-289 76.5,-255 25.74,-194.43 68.12,-92.64 96.56,-45.03"/>
<polygon fill="green" stroke="green" points="99.71,-46.6 102.03,-36.26 93.77,-42.89 99.71,-46.6"/>
</g>
<!-- node1&#45;&gt;node0 -->
<g id="edge1" class="edge">
<title>node1&#45;&gt;node0</title>
<path fill="none" stroke="fuchsia" stroke-width="2" d="M395.36,-255.03C396.21,-263.03 396.45,-272.77 396.09,-281.75"/>
<polygon fill="fuchsia" stroke="fuchsia" stroke-width="2" points="392.59,-281.59 395.38,-291.81 399.57,-282.08 392.59,-281.59"/>
</g>
<!-- node5 -->
<g id="node6" class="node">
<title>node5</title>
<polygon fill="orange" stroke="black" points="442.5,-83.54 442.5,-98.46 371.62,-109 271.38,-109 200.5,-98.46 200.5,-83.54 271.38,-73 371.62,-73 442.5,-83.54"/>
<text text-anchor="middle" x="321.5" y="-87.3" font-family="Times,serif" font-size="14.00">#5 Add : int Order : 5</text>
</g>
<!-- node1&#45;&gt;node5 -->
<g id="edge10" class="edge">
<title>node1&#45;&gt;node5</title>
<path fill="none" stroke="black" d="M384.21,-218.99C378.22,-200.56 367.7,-170.53 355.5,-146 350.81,-136.58 344.92,-126.71 339.37,-118.03"/>
<polygon fill="black" stroke="black" points="342.17,-115.92 333.76,-109.48 336.32,-119.76 342.17,-115.92"/>
<text text-anchor="middle" x="350.77" y="-116.31" font-family="Times,serif" font-size="14.00">*0</text>
</g>
<!-- node2&#45;&gt;node0 -->
<g id="edge3" class="edge">
<title>node2&#45;&gt;node0</title>
<path fill="none" stroke="fuchsia" stroke-width="2" d="M610.16,-255.11C569.82,-265.51 516.89,-278.81 472.95,-289.59"/>
<polygon fill="fuchsia" stroke="fuchsia" stroke-width="2" points="472.02,-286.22 463.14,-291.99 473.69,-293.01 472.02,-286.22"/>
</g>
<!-- node3&#45;&gt;node0 -->
<g id="edge5" class="edge">
<title>node3&#45;&gt;node0</title>
<path fill="none" stroke="fuchsia" stroke-width="2" d="M242.82,-255.11C272.31,-265.16 308.53,-277.92 337.64,-288.5"/>
<polygon fill="fuchsia" stroke="fuchsia" stroke-width="2" points="336.62,-291.85 347.21,-291.99 339.02,-285.28 336.62,-291.85"/>
</g>
<!-- node4 -->
<g id="node5" class="node">
<title>node4</title>
<polygon fill="lightgreen" stroke="black" points="346.61,-156.54 346.61,-171.46 287.38,-182 203.62,-182 144.39,-171.46 144.39,-156.54 203.62,-146 287.38,-146 346.61,-156.54"/>
<text text-anchor="middle" x="245.5" y="-160.3" font-family="Times,serif" font-size="14.00">#4 int 1 Order : 2</text>
</g>
<!-- node3&#45;&gt;node4 -->
<g id="edge8" class="edge">
<title>node3&#45;&gt;node4</title>
<path fill="none" stroke="black" stroke-dasharray="1,5" d="M196.42,-218.81C202.51,-210.09 210.94,-199.34 219.17,-189.75"/>
<polygon fill="black" stroke="black" points="221.98,-191.85 225.97,-182.03 216.73,-187.22 221.98,-191.85"/>
</g>
<!-- node3&#45;&gt;node6 -->
<g id="edge14" class="edge">
<title>node3&#45;&gt;node6</title>
<path fill="none" stroke="red" d="M165.82,-218.99C154.77,-209.4 142.41,-196.46 135.5,-182 114.43,-137.93 113.06,-79.78 114.45,-46.18"/>
<polygon fill="red" stroke="red" points="117.95,-46.35 114.98,-36.18 110.96,-45.98 117.95,-46.35"/>
</g>
<!-- node4&#45;&gt;node3 -->
<g id="edge7" class="edge">
<title>node4&#45;&gt;node3</title>
<path fill="none" stroke="fuchsia" stroke-width="2" d="M237.69,-182.03C231.63,-190.73 223.21,-201.47 214.98,-211.08"/>
<polygon fill="fuchsia" stroke="fuchsia" stroke-width="2" points="212.16,-208.99 208.18,-218.81 217.41,-213.62 212.16,-208.99"/>
</g>
<!-- node4&#45;&gt;node5 -->
<g id="edge11" class="edge">
<title>node4&#45;&gt;node5</title>
<path fill="none" stroke="black" d="M263.9,-145.81C273.51,-136.83 285.43,-125.69 295.93,-115.89"/>
<polygon fill="black" stroke="black" points="298.35,-118.41 303.27,-109.03 293.58,-113.3 298.35,-118.41"/>
<text text-anchor="middle" x="295.8" y="-123.88" font-family="Times,serif" font-size="14.00">*1</text>
</g>
<!-- node5&#45;&gt;node0 -->
<g id="edge9" class="edge">
<title>node5&#45;&gt;node0</title>
<path fill="none" stroke="fuchsia" stroke-width="2" d="M360.7,-109.17C400.7,-129.1 460.48,-166.13 486.5,-219 493.57,-233.36 494.61,-241.21 486.5,-255 478.45,-268.7 465.52,-279.17 451.7,-287.08"/>
<polygon fill="fuchsia" stroke="fuchsia" stroke-width="2" points="449.74,-284.16 442.52,-291.92 453,-290.35 449.74,-284.16"/>
</g>
<!-- node5&#45;&gt;node6 -->
<g id="edge13" class="edge">
<title>node5&#45;&gt;node6</title>
<path fill="none" stroke="black" d="M272.4,-72.99C243.32,-62.92 206.3,-50.1 175.63,-39.48"/>
<polygon fill="black" stroke="black" points="176.51,-36.08 165.91,-36.11 174.22,-42.69 176.51,-36.08"/>
<text text-anchor="middle" x="185.81" y="-30.36" font-family="Times,serif" font-size="14.00">*0</text>
</g>
<!-- node6&#45;&gt;node0 -->
<g id="edge12" class="edge">
<title>node6&#45;&gt;node0</title>
<path fill="none" stroke="fuchsia" stroke-width="2" d="M110.93,-36.26C92.19,-78.89 40.35,-190.39 94.5,-255 120.24,-285.72 219.64,-298.97 296.06,-304.69"/>
<polygon fill="fuchsia" stroke="fuchsia" stroke-width="2" points="295.98,-308.19 306.21,-305.41 296.48,-301.21 295.98,-308.19"/>
</g>
<!-- c0 -->
<!-- c1 -->
<!-- c0&#45;&gt;c1 -->
<g id="edge16" class="edge">
<title>c0&#45;&gt;c1</title>
<path fill="none" stroke="red" d="M1341.39,-310C1352.61,-310 1410.74,-310 1436.36,-310"/>
<polygon fill="red" stroke="red" points="1436.56,-313.5 1446.56,-310 1436.56,-306.5 1436.56,-313.5"/>
<text text-anchor="middle" x="1394" y="-316.8" font-family="Times,serif" font-size="14.00">Control flow</text>
</g>
<!-- c2 -->
<!-- c3 -->
<!-- c2&#45;&gt;c3 -->
<g id="edge17" class="edge">
<title>c2&#45;&gt;c3</title>
<path fill="none" stroke="red" stroke-dasharray="5,2" d="M1134.58,-310C1151.55,-310 1267.71,-310 1305.58,-310"/>
<polygon fill="red" stroke="red" points="1305.67,-313.5 1315.67,-310 1305.67,-306.5 1305.67,-313.5"/>
<text text-anchor="middle" x="1225" y="-316.8" font-family="Times,serif" font-size="14.00">Control flow back edge</text>
</g>
<!-- d0 -->
<!-- d1 -->
<!-- d0&#45;&gt;d1 -->
<g id="edge18" class="edge">
<title>d0&#45;&gt;d1</title>
<path fill="none" stroke="black" d="M1023.36,-310C1032.91,-310 1076.81,-310 1098.42,-310"/>
<polygon fill="black" stroke="black" points="1098.65,-313.5 1108.65,-310 1098.65,-306.5 1098.65,-313.5"/>
<text text-anchor="middle" x="1066" y="-316.8" font-family="Times,serif" font-size="14.00">Data flow</text>
</g>
<!-- d2 -->
<!-- d3 -->
<!-- d2&#45;&gt;d3 -->
<g id="edge19" class="edge">
<title>d2&#45;&gt;d3</title>
<path fill="none" stroke="black" stroke-dasharray="1,5" d="M897.31,-310C907.96,-310 962.96,-310 987.58,-310"/>
<polygon fill="black" stroke="black" points="987.65,-313.5 997.65,-310 987.65,-306.5 987.65,-313.5"/>
<text text-anchor="middle" x="947.5" y="-316.8" font-family="Times,serif" font-size="14.00">Declaration</text>
</g>
<!-- d4 -->
<!-- d5 -->
<!-- d4&#45;&gt;d5 -->
<g id="edge20" class="edge">
<title>d4&#45;&gt;d5</title>
<path fill="none" stroke="blue" d="M754.6,-310C767.22,-310 833.38,-310 861.18,-310"/>
<polygon fill="blue" stroke="blue" points="861.34,-313.5 871.34,-310 861.34,-306.5 861.34,-313.5"/>
<text text-anchor="middle" x="813" y="-316.8" font-family="Times,serif" font-size="14.00">PHI Data flow</text>
</g>
<!-- d6 -->
<!-- d7 -->
<!-- d6&#45;&gt;d7 -->
<g id="edge21" class="edge">
<title>d6&#45;&gt;d7</title>
<path fill="none" stroke="green" d="M617.5,-310C629.44,-310 691.8,-310 718.43,-310"/>
<polygon fill="green" stroke="green" points="718.45,-313.5 728.45,-310 718.45,-306.5 718.45,-313.5"/>
<text text-anchor="middle" x="673" y="-316.8" font-family="Times,serif" font-size="14.00">Memory flow</text>
</g>
<!-- d8 -->
<!-- d9 -->
<!-- d8&#45;&gt;d9 -->
<g id="edge22" class="edge">
<title>d8&#45;&gt;d9</title>
<path fill="none" stroke="fuchsia" d="M494.61,-310C505.65,-310 557.17,-310 581.16,-310"/>
<polygon fill="fuchsia" stroke="fuchsia" points="581.4,-313.5 591.4,-310 581.4,-306.5 581.4,-313.5"/>
<text text-anchor="middle" x="543" y="-316.8" font-family="Times,serif" font-size="14.00">Dominance</text>
</g>
</g>
</svg>
