<?xml version="1.0" encoding="UTF-8" standalone="no"?>
<!DOCTYPE svg PUBLIC "-//W3C//DTD SVG 1.1//EN"
 "http://www.w3.org/Graphics/SVG/1.1/DTD/svg11.dtd">
<!-- Generated by graphviz version 2.43.0 (0)
 -->
<!-- Title: debugoutput Pages: 1 -->
<svg width="1374pt" height="359pt"
 viewBox="0.00 0.00 1373.50 358.80" xmlns="http://www.w3.org/2000/svg" xmlns:xlink="http://www.w3.org/1999/xlink">
<g id="graph0" class="graph" transform="scale(1 1) rotate(0) translate(4 354.8)">
<title>debugoutput</title>
<polygon fill="white" stroke="transparent" points="-4,4 -4,-354.8 1369.5,-354.8 1369.5,4 -4,4"/>
<g id="clust1" class="cluster">
<title>cluster_000</title>
<polygon fill="none" stroke="black" points="518.5,-300.2 518.5,-342.8 1357.5,-342.8 1357.5,-300.2 518.5,-300.2"/>
<text text-anchor="middle" x="938" y="-327.6" font-family="Times,serif" font-size="14.00">Legend</text>
</g>
<!-- node0 -->
<g id="node1" class="node">
<title>node0</title>
<polygon fill="lightgrey" stroke="black" points="508.5,-328 342.5,-328 342.5,-292 508.5,-292 508.5,-328"/>
<text text-anchor="middle" x="425.5" y="-306.3" font-family="Times,serif" font-size="14.00">#0 Method Order : 0</text>
</g>
<!-- node1 -->
<g id="node2" class="node">
<title>node1</title>
<polygon fill="lightgrey" stroke="black" points="514,-255 337,-255 337,-219 514,-219 514,-255"/>
<text text-anchor="middle" x="425.5" y="-233.3" font-family="Times,serif" font-size="14.00">#1 arg0 : int Order : 4</text>
</g>
<!-- node0&#45;&gt;node1 -->
<g id="edge2" class="edge">
<title>node0&#45;&gt;node1</title>
<path fill="none" stroke="black" d="M419.62,-291.81C418.78,-283.79 418.55,-274.05 418.92,-265.07"/>
<polygon fill="black" stroke="black" points="422.42,-265.25 419.64,-255.03 415.44,-264.75 422.42,-265.25"/>
<text text-anchor="middle" x="426.78" y="-270.01" font-family="Times,serif" font-size="14.00">*0</text>
</g>
<!-- node2 -->
<g id="node3" class="node">
<title>node2</title>
<polygon fill="lightgrey" stroke="black" points="847.5,-255 569.5,-255 569.5,-219 847.5,-219 847.5,-255"/>
<text text-anchor="middle" x="708.5" y="-233.3" font-family="Times,serif" font-size="14.00">#2 this : SynchronizedTest Order : 3</text>
</g>
<!-- node0&#45;&gt;node2 -->
<g id="edge4" class="edge">
<title>node0&#45;&gt;node2</title>
<path fill="none" stroke="black" d="M487.43,-291.99C527.75,-281.6 580.79,-268.27 624.84,-257.46"/>
<polygon fill="black" stroke="black" points="625.79,-260.83 634.67,-255.05 624.12,-254.03 625.79,-260.83"/>
<text text-anchor="middle" x="619.07" y="-263.87" font-family="Times,serif" font-size="14.00">*0</text>
</g>
<!-- node3 -->
<g id="node4" class="node">
<title>node3</title>
<polygon fill="lightgrey" stroke="black" points="318.5,-255 130.5,-255 130.5,-219 318.5,-219 318.5,-255"/>
<text text-anchor="middle" x="224.5" y="-233.3" font-family="Times,serif" font-size="14.00">#3 LabelNode Order : 1</text>
</g>
<!-- node0&#45;&gt;node3 -->
<g id="edge6" class="edge">
<title>node0&#45;&gt;node3</title>
<path fill="none" stroke="red" d="M371.5,-291.99C342.05,-281.97 305.83,-269.21 276.67,-258.62"/>
<polygon fill="red" stroke="red" points="277.67,-255.26 267.08,-255.11 275.27,-261.83 277.67,-255.26"/>
</g>
<!-- node6 -->
<g id="node7" class="node">
<title>node6</title>
<polygon fill="lightgrey" stroke="black" points="233,-36 0,-36 0,0 233,0 233,-36"/>
<text text-anchor="middle" x="116.5" y="-14.3" font-family="Times,serif" font-size="14.00">#6 ReturnValue : int Order : 6</text>
</g>
<!-- node0&#45;&gt;node6 -->
<g id="edge15" class="edge">
<title>node0&#45;&gt;node6</title>
<path fill="none" stroke="black" d="M342.42,-307.73C241.42,-303.98 84.5,-289.87 84.5,-238 84.5,-238 84.5,-238 84.5,-90 84.5,-74.57 89.48,-58.13 95.71,-44.96"/>
<polygon fill="black" stroke="black" points="98.86,-46.49 100.41,-36.01 92.66,-43.23 98.86,-46.49"/>
</g>
<!-- node1&#45;&gt;node0 -->
<g id="edge1" class="edge">
<title>node1&#45;&gt;node0</title>
<path fill="none" stroke="green" stroke-width="2" d="M431.36,-255.03C432.21,-263.03 432.45,-272.77 432.09,-281.75"/>
<polygon fill="green" stroke="green" stroke-width="2" points="428.59,-281.59 431.38,-291.81 435.57,-282.08 428.59,-281.59"/>
</g>
<!-- node5 -->
<g id="node6" class="node">
<title>node5</title>
<polygon fill="orange" stroke="black" points="475.5,-83.54 475.5,-98.46 404.62,-109 304.38,-109 233.5,-98.46 233.5,-83.54 304.38,-73 404.62,-73 475.5,-83.54"/>
<text text-anchor="middle" x="354.5" y="-87.3" font-family="Times,serif" font-size="14.00">#5 Add : int Order : 5</text>
</g>
<!-- node1&#45;&gt;node5 -->
<g id="edge10" class="edge">
<title>node1&#45;&gt;node5</title>
<path fill="none" stroke="black" d="M417.08,-218.92C404.8,-194.02 381.89,-147.54 367.45,-118.27"/>
<polygon fill="black" stroke="black" points="370.47,-116.48 362.91,-109.06 364.2,-119.58 370.47,-116.48"/>
<text text-anchor="middle" x="378.51" y="-117.88" font-family="Times,serif" font-size="14.00">*0</text>
</g>
<!-- node2&#45;&gt;node0 -->
<g id="edge3" class="edge">
<title>node2&#45;&gt;node0</title>
<path fill="none" stroke="green" stroke-width="2" d="M646.16,-255.11C605.82,-265.51 552.89,-278.81 508.95,-289.59"/>
<polygon fill="green" stroke="green" stroke-width="2" points="508.02,-286.22 499.14,-291.99 509.69,-293.01 508.02,-286.22"/>
</g>
<!-- node3&#45;&gt;node0 -->
<g id="edge5" class="edge">
<title>node3&#45;&gt;node0</title>
<path fill="none" stroke="green" stroke-width="2" d="M278.82,-255.11C308.31,-265.16 344.53,-277.92 373.64,-288.5"/>
<polygon fill="green" stroke="green" stroke-width="2" points="372.62,-291.85 383.21,-291.99 375.02,-285.28 372.62,-291.85"/>
</g>
<!-- node4 -->
<g id="node5" class="node">
<title>node4</title>
<polygon fill="lightgreen" stroke="black" points="370.61,-156.54 370.61,-171.46 311.38,-182 227.62,-182 168.39,-171.46 168.39,-156.54 227.62,-146 311.38,-146 370.61,-156.54"/>
<text text-anchor="middle" x="269.5" y="-160.3" font-family="Times,serif" font-size="14.00">#4 int 1 Order : 2</text>
</g>
<!-- node3&#45;&gt;node4 -->
<g id="edge8" class="edge">
<title>node3&#45;&gt;node4</title>
<path fill="none" stroke="black" stroke-dasharray="1,5" d="M229.52,-218.81C234.04,-210.27 240.48,-199.77 246.95,-190.32"/>
<polygon fill="black" stroke="black" points="249.91,-192.21 252.85,-182.03 244.2,-188.15 249.91,-192.21"/>
</g>
<!-- node3&#45;&gt;node6 -->
<g id="edge14" class="edge">
<title>node3&#45;&gt;node6</title>
<path fill="none" stroke="red" d="M196.64,-218.8C183.59,-209.42 168.89,-196.72 159.5,-182 132.38,-139.47 122.28,-80.33 118.59,-46.22"/>
<polygon fill="red" stroke="red" points="122.05,-45.69 117.6,-36.07 115.08,-46.37 122.05,-45.69"/>
</g>
<!-- node4&#45;&gt;node3 -->
<g id="edge7" class="edge">
<title>node4&#45;&gt;node3</title>
<path fill="none" stroke="green" stroke-width="2" d="M264.57,-182.03C260.07,-190.55 253.64,-201.04 247.17,-210.5"/>
<polygon fill="green" stroke="green" stroke-width="2" points="244.2,-208.63 241.27,-218.81 249.91,-212.68 244.2,-208.63"/>
</g>
<!-- node4&#45;&gt;node5 -->
<g id="edge11" class="edge">
<title>node4&#45;&gt;node5</title>
<path fill="none" stroke="black" d="M290.08,-145.81C300.93,-136.74 314.42,-125.48 326.25,-115.6"/>
<polygon fill="black" stroke="black" points="328.68,-118.13 334.11,-109.03 324.19,-112.75 328.68,-118.13"/>
<text text-anchor="middle" x="325.62" y="-123.44" font-family="Times,serif" font-size="14.00">*1</text>
</g>
<!-- node5&#45;&gt;node0 -->
<g id="edge9" class="edge">
<title>node5&#45;&gt;node0</title>
<path fill="none" stroke="green" stroke-width="2" d="M394.77,-109.16C435.47,-128.97 496.03,-165.81 522.5,-219 529.63,-233.32 530.61,-241.21 522.5,-255 514.45,-268.7 501.52,-279.17 487.7,-287.08"/>
<polygon fill="green" stroke="green" stroke-width="2" points="485.74,-284.16 478.52,-291.92 489,-290.35 485.74,-284.16"/>
</g>
<!-- node5&#45;&gt;node6 -->
<g id="edge13" class="edge">
<title>node5&#45;&gt;node6</title>
<path fill="none" stroke="black" d="M299.6,-73.62C264.94,-63.28 219.95,-49.86 183.24,-38.91"/>
<polygon fill="black" stroke="black" points="184.19,-35.54 173.61,-36.04 182.19,-42.25 184.19,-35.54"/>
<text text-anchor="middle" x="193.4" y="-29.42" font-family="Times,serif" font-size="14.00">*0</text>
</g>
<!-- node6&#45;&gt;node0 -->
<g id="edge12" class="edge">
<title>node6&#45;&gt;node0</title>
<path fill="none" stroke="green" stroke-width="2" d="M114.93,-36.01C110.19,-50.09 102.5,-70.82 102.5,-90 102.5,-238 102.5,-238 102.5,-238 102.5,-285.91 236.4,-301.61 331.82,-306.68"/>
<polygon fill="green" stroke="green" stroke-width="2" points="331.93,-310.19 342.09,-307.19 332.28,-303.2 331.93,-310.19"/>
</g>
<!-- c0 -->
<!-- c1 -->
<!-- c0&#45;&gt;c1 -->
<g id="edge16" class="edge">
<title>c0&#45;&gt;c1</title>
<path fill="none" stroke="red" d="M1240.39,-310C1251.61,-310 1309.74,-310 1335.36,-310"/>
<polygon fill="red" stroke="red" points="1335.56,-313.5 1345.56,-310 1335.56,-306.5 1335.56,-313.5"/>
<text text-anchor="middle" x="1293" y="-316.8" font-family="Times,serif" font-size="14.00">Control flow</text>
</g>
<!-- c2 -->
<!-- c3 -->
<!-- c2&#45;&gt;c3 -->
<g id="edge17" class="edge">
<title>c2&#45;&gt;c3</title>
<path fill="none" stroke="red" stroke-dasharray="5,2" d="M1033.58,-310C1050.55,-310 1166.71,-310 1204.58,-310"/>
<polygon fill="red" stroke="red" points="1204.67,-313.5 1214.67,-310 1204.67,-306.5 1204.67,-313.5"/>
<text text-anchor="middle" x="1124" y="-316.8" font-family="Times,serif" font-size="14.00">Control flow back edge</text>
</g>
<!-- d0 -->
<!-- d1 -->
<!-- d0&#45;&gt;d1 -->
<g id="edge18" class="edge">
<title>d0&#45;&gt;d1</title>
<path fill="none" stroke="black" d="M922.36,-310C931.91,-310 975.81,-310 997.42,-310"/>
<polygon fill="black" stroke="black" points="997.65,-313.5 1007.65,-310 997.65,-306.5 997.65,-313.5"/>
<text text-anchor="middle" x="965" y="-316.8" font-family="Times,serif" font-size="14.00">Data flow</text>
</g>
<!-- d2 -->
<!-- d3 -->
<!-- d2&#45;&gt;d3 -->
<g id="edge19" class="edge">
<title>d2&#45;&gt;d3</title>
<path fill="none" stroke="black" stroke-dasharray="1,5" d="M796.31,-310C806.96,-310 861.96,-310 886.58,-310"/>
<polygon fill="black" stroke="black" points="886.65,-313.5 896.65,-310 886.65,-306.5 886.65,-313.5"/>
<text text-anchor="middle" x="846.5" y="-316.8" font-family="Times,serif" font-size="14.00">Declaration</text>
</g>
<!-- d4 -->
<!-- d5 -->
<!-- d4&#45;&gt;d5 -->
<g id="edge20" class="edge">
<title>d4&#45;&gt;d5</title>
<path fill="none" stroke="blue" d="M653.6,-310C666.22,-310 732.38,-310 760.18,-310"/>
<polygon fill="blue" stroke="blue" points="760.34,-313.5 770.34,-310 760.34,-306.5 760.34,-313.5"/>
<text text-anchor="middle" x="712" y="-316.8" font-family="Times,serif" font-size="14.00">PHI Data flow</text>
</g>
<!-- d6 -->
<!-- d7 -->
<!-- d6&#45;&gt;d7 -->
<g id="edge21" class="edge">
<title>d6&#45;&gt;d7</title>
<path fill="none" stroke="green" d="M530.61,-310C541.65,-310 593.17,-310 617.16,-310"/>
<polygon fill="green" stroke="green" points="617.4,-313.5 627.4,-310 617.4,-306.5 617.4,-313.5"/>
<text text-anchor="middle" x="579" y="-316.8" font-family="Times,serif" font-size="14.00">Dominance</text>
</g>
</g>
</svg>
