<?xml version="1.0" encoding="UTF-8" standalone="no"?>
<!DOCTYPE svg PUBLIC "-//W3C//DTD SVG 1.1//EN"
 "http://www.w3.org/Graphics/SVG/1.1/DTD/svg11.dtd">
<!-- Generated by graphviz version 2.43.0 (0)
 -->
<!-- Title: debugoutput Pages: 1 -->
<svg width="1403pt" height="359pt"
 viewBox="0.00 0.00 1402.71 358.80" xmlns="http://www.w3.org/2000/svg" xmlns:xlink="http://www.w3.org/1999/xlink">
<g id="graph0" class="graph" transform="scale(1 1) rotate(0) translate(4 354.8)">
<title>debugoutput</title>
<polygon fill="white" stroke="transparent" points="-4,4 -4,-354.8 1398.71,-354.8 1398.71,4 -4,4"/>
<g id="clust1" class="cluster">
<title>cluster_000</title>
<polygon fill="none" stroke="black" points="547.71,-300.2 547.71,-342.8 1386.71,-342.8 1386.71,-300.2 547.71,-300.2"/>
<text text-anchor="middle" x="967.21" y="-327.6" font-family="Times,serif" font-size="14.00">Legend</text>
</g>
<!-- node0 -->
<g id="node1" class="node">
<title>node0</title>
<polygon fill="lightgrey" stroke="black" points="537.71,-328 371.71,-328 371.71,-292 537.71,-292 537.71,-328"/>
<text text-anchor="middle" x="454.71" y="-306.3" font-family="Times,serif" font-size="14.00">#0 Method Order : 0</text>
</g>
<!-- node1 -->
<g id="node2" class="node">
<title>node1</title>
<polygon fill="lightgrey" stroke="black" points="310.71,-182 136.71,-182 136.71,-146 310.71,-146 310.71,-182"/>
<text text-anchor="middle" x="223.71" y="-160.3" font-family="Times,serif" font-size="14.00">#1 ClassInit Order : 4</text>
</g>
<!-- node0&#45;&gt;node1 -->
<g id="edge3" class="edge">
<title>node0&#45;&gt;node1</title>
<path fill="none" stroke="black" d="M371.55,-307.68C280.74,-304.36 144.08,-293.02 111.71,-255 101.34,-242.82 103.43,-232.69 111.71,-219 120.15,-205.05 133.51,-194.53 148.13,-186.66"/>
<polygon fill="black" stroke="black" points="149.95,-189.66 157.37,-182.1 146.85,-183.39 149.95,-189.66"/>
</g>
<!-- node4 -->
<g id="node3" class="node">
<title>node4</title>
<polygon fill="lightgreen" stroke="black" points="853.48,-229.54 853.48,-244.46 701.9,-255 487.52,-255 335.94,-244.46 335.94,-229.54 487.52,-219 701.9,-219 853.48,-229.54"/>
<text text-anchor="middle" x="594.71" y="-233.3" font-family="Times,serif" font-size="14.00">#4 Class StaticFieldAccessTest$Source Order : 1</text>
</g>
<!-- node0&#45;&gt;node4 -->
<g id="edge10" class="edge">
<title>node0&#45;&gt;node4</title>
<path fill="none" stroke="black" stroke-dasharray="1,5" d="M482.38,-291.99C500.52,-282.27 524.61,-269.99 545.87,-259.59"/>
<polygon fill="black" stroke="black" points="547.63,-262.63 555.1,-255.11 544.57,-256.33 547.63,-262.63"/>
</g>
<!-- node3 -->
<g id="node4" class="node">
<title>node3</title>
<polygon fill="lightgrey" stroke="black" points="317.71,-255 129.71,-255 129.71,-219 317.71,-219 317.71,-255"/>
<text text-anchor="middle" x="223.71" y="-233.3" font-family="Times,serif" font-size="14.00">#3 LabelNode Order : 2</text>
</g>
<!-- node0&#45;&gt;node3 -->
<g id="edge8" class="edge">
<title>node0&#45;&gt;node3</title>
<path fill="none" stroke="red" d="M393.52,-291.99C359.4,-281.84 317.14,-268.88 283.28,-258.2"/>
<polygon fill="red" stroke="red" points="284.11,-254.79 273.52,-255.11 282,-261.47 284.11,-254.79"/>
</g>
<!-- node2 -->
<g id="node5" class="node">
<title>node2</title>
<polygon fill="lightgrey" stroke="black" points="1217.71,-255 909.71,-255 909.71,-219 1217.71,-219 1217.71,-255"/>
<text text-anchor="middle" x="1063.71" y="-233.3" font-family="Times,serif" font-size="14.00">#2 this : StaticFieldAccessTest Order : 3</text>
</g>
<!-- node0&#45;&gt;node2 -->
<g id="edge6" class="edge">
<title>node0&#45;&gt;node2</title>
<path fill="none" stroke="black" d="M535.17,-291.95C690.32,-273.3 731.56,-294.46 886.71,-274 916.6,-270.06 949.08,-263.62 978,-257.26"/>
<polygon fill="black" stroke="black" points="979.07,-260.61 988.07,-255.03 977.55,-253.78 979.07,-260.61"/>
<text text-anchor="middle" x="972.21" y="-263.51" font-family="Times,serif" font-size="14.00">*0</text>
</g>
<!-- node1&#45;&gt;node0 -->
<g id="edge1" class="edge">
<title>node1&#45;&gt;node0</title>
<path fill="none" stroke="green" stroke-width="2" d="M174.37,-182.1C157.27,-190.31 139.9,-202.16 129.71,-219 121.43,-232.69 119.34,-242.82 129.71,-255 159.3,-289.76 276.08,-302.22 361.26,-306.64"/>
<polygon fill="green" stroke="green" stroke-width="2" points="361.32,-310.15 371.48,-307.14 361.66,-303.16 361.32,-310.15"/>
</g>
<!-- node5 -->
<g id="node6" class="node">
<title>node5</title>
<polygon fill="orange" stroke="black" points="447.63,-83.54 447.63,-98.46 316.46,-109 130.96,-109 -0.21,-98.46 -0.21,-83.54 130.96,-73 316.46,-73 447.63,-83.54"/>
<text text-anchor="middle" x="223.71" y="-87.3" font-family="Times,serif" font-size="14.00">#5 GetStaticField : int_field : int Order : 5</text>
</g>
<!-- node1&#45;&gt;node5 -->
<g id="edge13" class="edge">
<title>node1&#45;&gt;node5</title>
<path fill="none" stroke="black" d="M223.71,-145.81C223.71,-137.79 223.71,-128.05 223.71,-119.07"/>
<polygon fill="black" stroke="black" points="227.21,-119.03 223.71,-109.03 220.21,-119.03 227.21,-119.03"/>
</g>
<!-- node6 -->
<g id="node7" class="node">
<title>node6</title>
<polygon fill="lightgrey" stroke="black" points="466.21,-36 233.21,-36 233.21,0 466.21,0 466.21,-36"/>
<text text-anchor="middle" x="349.71" y="-14.3" font-family="Times,serif" font-size="14.00">#6 ReturnValue : int Order : 6</text>
</g>
<!-- node1&#45;&gt;node6 -->
<g id="edge16" class="edge">
<title>node1&#45;&gt;node6</title>
<path fill="none" stroke="red" d="M310.88,-154.06C369.17,-146.07 438.43,-132 456.71,-109 466.67,-96.47 465.1,-86.63 456.71,-73 448.09,-58.99 434.58,-48.48 420.03,-40.64"/>
<polygon fill="red" stroke="red" points="421.38,-37.41 410.87,-36.11 418.27,-43.68 421.38,-37.41"/>
</g>
<!-- node4&#45;&gt;node0 -->
<g id="edge9" class="edge">
<title>node4&#45;&gt;node0</title>
<path fill="none" stroke="green" stroke-width="2" d="M566.84,-255.11C548.66,-264.85 524.55,-277.14 503.32,-287.52"/>
<polygon fill="green" stroke="green" stroke-width="2" points="501.57,-284.48 494.1,-291.99 504.63,-290.78 501.57,-284.48"/>
</g>
<!-- node4&#45;&gt;node1 -->
<g id="edge2" class="edge">
<title>node4&#45;&gt;node1</title>
<path fill="none" stroke="black" d="M505.85,-218.99C450.13,-208.33 378.28,-194.58 321.04,-183.63"/>
<polygon fill="black" stroke="black" points="321.37,-180.13 310.89,-181.68 320.05,-187 321.37,-180.13"/>
<text text-anchor="middle" x="330.28" y="-173.09" font-family="Times,serif" font-size="14.00">*0</text>
</g>
<!-- node4&#45;&gt;node5 -->
<g id="edge12" class="edge">
<title>node4&#45;&gt;node5</title>
<path fill="none" stroke="black" d="M550.7,-218.92C482.36,-192.39 350.96,-141.39 277.24,-112.78"/>
<polygon fill="black" stroke="black" points="278.26,-109.42 267.67,-109.06 275.72,-115.94 278.26,-109.42"/>
<text text-anchor="middle" x="287.63" y="-104.04" font-family="Times,serif" font-size="14.00">*0</text>
</g>
<!-- node3&#45;&gt;node0 -->
<g id="edge7" class="edge">
<title>node3&#45;&gt;node0</title>
<path fill="none" stroke="green" stroke-width="2" d="M285.26,-255.11C319.44,-265.29 361.7,-278.25 395.49,-288.91"/>
<polygon fill="green" stroke="green" stroke-width="2" points="394.65,-292.31 405.24,-291.99 396.76,-285.64 394.65,-292.31"/>
</g>
<!-- node3&#45;&gt;node1 -->
<g id="edge4" class="edge">
<title>node3&#45;&gt;node1</title>
<path fill="none" stroke="red" d="M223.71,-218.81C223.71,-210.79 223.71,-201.05 223.71,-192.07"/>
<polygon fill="red" stroke="red" points="227.21,-192.03 223.71,-182.03 220.21,-192.03 227.21,-192.03"/>
</g>
<!-- node2&#45;&gt;node0 -->
<g id="edge5" class="edge">
<title>node2&#45;&gt;node0</title>
<path fill="none" stroke="green" stroke-width="2" d="M1004.52,-255.03C974.78,-262.06 938.13,-269.59 904.71,-274 749.41,-294.48 708.23,-273.26 552.71,-292 551.2,-292.18 549.67,-292.38 548.14,-292.58"/>
<polygon fill="green" stroke="green" stroke-width="2" points="547.28,-289.16 537.88,-294.04 548.27,-296.09 547.28,-289.16"/>
</g>
<!-- node5&#45;&gt;node0 -->
<g id="edge11" class="edge">
<title>node5&#45;&gt;node0</title>
<path fill="none" stroke="green" stroke-width="2" d="M176.59,-109.03C158.9,-117.61 140.09,-129.71 127.71,-146 124.24,-150.56 94.72,-229.81 109.71,-255 134.98,-297.48 268.03,-307.75 361.3,-309.61"/>
<polygon fill="green" stroke="green" stroke-width="2" points="361.27,-313.11 371.33,-309.78 361.39,-306.11 361.27,-313.11"/>
</g>
<!-- node5&#45;&gt;node6 -->
<g id="edge15" class="edge">
<title>node5&#45;&gt;node6</title>
<path fill="none" stroke="black" d="M248.03,-72.99C264.1,-63.36 285.53,-51.21 304.61,-40.87"/>
<polygon fill="black" stroke="black" points="306.32,-43.93 313.47,-36.11 303,-37.76 306.32,-43.93"/>
<text text-anchor="middle" x="301.5" y="-48.44" font-family="Times,serif" font-size="14.00">*0</text>
</g>
<!-- node5&#45;&gt;node6 -->
<g id="edge17" class="edge">
<title>node5&#45;&gt;node6</title>
<path fill="none" stroke="black" d="M259.75,-72.99C277.62,-63.49 298.99,-51.54 316.47,-41.29"/>
<polygon fill="black" stroke="black" points="318.39,-44.22 325.21,-36.11 314.82,-38.2 318.39,-44.22"/>
</g>
<!-- node6&#45;&gt;node0 -->
<g id="edge14" class="edge">
<title>node6&#45;&gt;node0</title>
<path fill="none" stroke="green" stroke-width="2" d="M466.46,-23.15C623.06,-30.3 881.71,-48.42 881.71,-90 881.71,-238 881.71,-238 881.71,-238 881.71,-311.17 638.53,-282.87 548.06,-291.66"/>
<polygon fill="green" stroke="green" stroke-width="2" points="547.56,-288.2 538.06,-292.89 548.41,-295.14 547.56,-288.2"/>
</g>
<!-- c0 -->
<!-- c1 -->
<!-- c0&#45;&gt;c1 -->
<g id="edge18" class="edge">
<title>c0&#45;&gt;c1</title>
<path fill="none" stroke="red" d="M1269.6,-310C1280.82,-310 1338.95,-310 1364.57,-310"/>
<polygon fill="red" stroke="red" points="1364.77,-313.5 1374.77,-310 1364.77,-306.5 1364.77,-313.5"/>
<text text-anchor="middle" x="1322.21" y="-316.8" font-family="Times,serif" font-size="14.00">Control flow</text>
</g>
<!-- c2 -->
<!-- c3 -->
<!-- c2&#45;&gt;c3 -->
<g id="edge19" class="edge">
<title>c2&#45;&gt;c3</title>
<path fill="none" stroke="red" stroke-dasharray="5,2" d="M1062.79,-310C1079.76,-310 1195.92,-310 1233.79,-310"/>
<polygon fill="red" stroke="red" points="1233.88,-313.5 1243.88,-310 1233.88,-306.5 1233.88,-313.5"/>
<text text-anchor="middle" x="1153.21" y="-316.8" font-family="Times,serif" font-size="14.00">Control flow back edge</text>
</g>
<!-- d0 -->
<!-- d1 -->
<!-- d0&#45;&gt;d1 -->
<g id="edge20" class="edge">
<title>d0&#45;&gt;d1</title>
<path fill="none" stroke="black" d="M951.57,-310C961.12,-310 1005.02,-310 1026.63,-310"/>
<polygon fill="black" stroke="black" points="1026.86,-313.5 1036.86,-310 1026.86,-306.5 1026.86,-313.5"/>
<text text-anchor="middle" x="994.21" y="-316.8" font-family="Times,serif" font-size="14.00">Data flow</text>
</g>
<!-- d2 -->
<!-- d3 -->
<!-- d2&#45;&gt;d3 -->
<g id="edge21" class="edge">
<title>d2&#45;&gt;d3</title>
<path fill="none" stroke="black" stroke-dasharray="1,5" d="M825.52,-310C836.17,-310 891.18,-310 915.79,-310"/>
<polygon fill="black" stroke="black" points="915.86,-313.5 925.86,-310 915.86,-306.5 915.86,-313.5"/>
<text text-anchor="middle" x="875.71" y="-316.8" font-family="Times,serif" font-size="14.00">Declaration</text>
</g>
<!-- d4 -->
<!-- d5 -->
<!-- d4&#45;&gt;d5 -->
<g id="edge22" class="edge">
<title>d4&#45;&gt;d5</title>
<path fill="none" stroke="blue" d="M682.81,-310C695.43,-310 761.59,-310 789.39,-310"/>
<polygon fill="blue" stroke="blue" points="789.55,-313.5 799.55,-310 789.55,-306.5 789.55,-313.5"/>
<text text-anchor="middle" x="741.21" y="-316.8" font-family="Times,serif" font-size="14.00">PHI Data flow</text>
</g>
<!-- d6 -->
<!-- d7 -->
<!-- d6&#45;&gt;d7 -->
<g id="edge23" class="edge">
<title>d6&#45;&gt;d7</title>
<path fill="none" stroke="green" d="M559.82,-310C570.86,-310 622.38,-310 646.37,-310"/>
<polygon fill="green" stroke="green" points="646.61,-313.5 656.61,-310 646.61,-306.5 646.61,-313.5"/>
<text text-anchor="middle" x="608.21" y="-316.8" font-family="Times,serif" font-size="14.00">Dominance</text>
</g>
</g>
</svg>
