<?xml version="1.0" encoding="UTF-8" standalone="no"?>
<!DOCTYPE svg PUBLIC "-//W3C//DTD SVG 1.1//EN"
 "http://www.w3.org/Graphics/SVG/1.1/DTD/svg11.dtd">
<!-- Generated by graphviz version 2.43.0 (0)
 -->
<!-- Title: %3 Pages: 1 -->
<svg width="1544pt" height="589pt"
 viewBox="0.00 0.00 1543.79 589.00" xmlns="http://www.w3.org/2000/svg" xmlns:xlink="http://www.w3.org/1999/xlink">
<g id="graph0" class="graph" transform="scale(1 1) rotate(0) translate(4 585)">
<title>%3</title>
<polygon fill="white" stroke="transparent" points="-4,4 -4,-585 1539.79,-585 1539.79,4 -4,4"/>
<g id="clust1" class="cluster">
<title>cluster_0</title>
<polygon fill="none" stroke="lightgray" points="12.79,-430 12.79,-573 666.79,-573 666.79,-430 12.79,-430"/>
</g>
<g id="clust2" class="cluster">
<title>cluster_000</title>
<polygon fill="none" stroke="black" points="674.79,-528.2 674.79,-570.8 1527.79,-570.8 1527.79,-528.2 674.79,-528.2"/>
<text text-anchor="middle" x="1101.29" y="-555.6" font-family="Times,serif" font-size="14.00">Legend</text>
</g>
<!-- node0 -->
<g id="node1" class="node">
<title>node0</title>
<polygon fill="lightgrey" stroke="transparent" points="464.29,-565 341.29,-565 341.29,-511 464.29,-511 464.29,-565"/>
<polygon fill="none" stroke="black" points="341.79,-538 341.79,-565 464.79,-565 464.79,-538 341.79,-538"/>
<text text-anchor="start" x="362.79" y="-547.8" font-family="Times,serif" font-size="14.00">#0 Method</text>
<polygon fill="yellow" stroke="transparent" points="341.79,-511 341.79,-538 464.79,-538 464.79,-511 341.79,-511"/>
<polygon fill="none" stroke="black" points="341.79,-511 341.79,-538 464.79,-538 464.79,-511 341.79,-511"/>
<text text-anchor="start" x="347.79" y="-520.8" font-family="Times,serif" font-size="14.00">this : ArrayTest</text>
</g>
<!-- node10 -->
<g id="node2" class="node">
<title>node10</title>
<polygon fill="lightgreen" stroke="black" points="658.97,-448.54 658.97,-463.46 624.3,-474 575.27,-474 540.6,-463.46 540.6,-448.54 575.27,-438 624.3,-438 658.97,-448.54"/>
<text text-anchor="middle" x="599.79" y="-452.3" font-family="Times,serif" font-size="14.00">#10 int 5</text>
</g>
<!-- node0&#45;&gt;node10 -->
<g id="edge1" class="edge">
<title>node0&#45;&gt;node10</title>
<path fill="none" stroke="black" stroke-dasharray="1,5" d="M464.31,-512.02C493.87,-500.01 528.63,-485.9 555.54,-474.97"/>
<polygon fill="black" stroke="black" points="557.12,-478.1 565.07,-471.1 554.49,-471.62 557.12,-478.1"/>
</g>
<!-- node4 -->
<g id="node4" class="node">
<title>node4</title>
<polygon fill="orange" stroke="black" points="418.61,-375.54 418.61,-390.46 322.64,-401 186.93,-401 90.96,-390.46 90.96,-375.54 186.93,-365 322.64,-365 418.61,-375.54"/>
<text text-anchor="middle" x="254.79" y="-379.3" font-family="Times,serif" font-size="14.00">#4 NewMultiArray : Object[][]</text>
</g>
<!-- node0&#45;&gt;node4 -->
<g id="edge6" class="edge">
<title>node0&#45;&gt;node4</title>
<path fill="none" stroke="green" d="M341.17,-536.38C241.88,-533.94 53.36,-522.81 11.79,-474 -26.45,-429.11 38.18,-406.59 110.36,-395.31"/>
<polygon fill="green" stroke="green" points="111.21,-398.72 120.59,-393.79 110.18,-391.79 111.21,-398.72"/>
</g>
<!-- node9 -->
<g id="node5" class="node">
<title>node9</title>
<polygon fill="lightgreen" stroke="black" points="398.97,-448.54 398.97,-463.46 364.3,-474 315.27,-474 280.6,-463.46 280.6,-448.54 315.27,-438 364.3,-438 398.97,-448.54"/>
<text text-anchor="middle" x="339.79" y="-452.3" font-family="Times,serif" font-size="14.00">#9 int 20</text>
</g>
<!-- node0&#45;&gt;node9 -->
<g id="edge8" class="edge">
<title>node0&#45;&gt;node9</title>
<path fill="none" stroke="black" stroke-dasharray="1,5" d="M382.16,-510.81C374.9,-501.59 366.77,-491.27 359.59,-482.15"/>
<polygon fill="black" stroke="black" points="362.25,-479.87 353.31,-474.17 356.75,-484.2 362.25,-479.87"/>
</g>
<!-- node7 -->
<g id="node6" class="node">
<title>node7</title>
<polygon fill="lightgreen" stroke="black" points="262.97,-448.54 262.97,-463.46 228.3,-474 179.27,-474 144.6,-463.46 144.6,-448.54 179.27,-438 228.3,-438 262.97,-448.54"/>
<text text-anchor="middle" x="203.79" y="-452.3" font-family="Times,serif" font-size="14.00">#7 int 10</text>
</g>
<!-- node0&#45;&gt;node7 -->
<g id="edge7" class="edge">
<title>node0&#45;&gt;node7</title>
<path fill="none" stroke="black" stroke-dasharray="1,5" d="M341.18,-512.24C310.96,-500.08 275.25,-485.73 247.81,-474.7"/>
<polygon fill="black" stroke="black" points="249.06,-471.43 238.47,-470.94 246.45,-477.92 249.06,-471.43"/>
</g>
<!-- node8 -->
<g id="node8" class="node">
<title>node8</title>
<polygon fill="lightgreen" stroke="black" points="522.31,-448.54 522.31,-463.46 491.54,-474 448.03,-474 417.26,-463.46 417.26,-448.54 448.03,-438 491.54,-438 522.31,-448.54"/>
<text text-anchor="middle" x="469.79" y="-452.3" font-family="Times,serif" font-size="14.00">#8 int 0</text>
</g>
<!-- node0&#45;&gt;node8 -->
<g id="edge16" class="edge">
<title>node0&#45;&gt;node8</title>
<path fill="none" stroke="black" stroke-dasharray="1,5" d="M424.72,-510.81C432.52,-501.5 441.26,-491.06 448.96,-481.87"/>
<polygon fill="black" stroke="black" points="451.66,-484.09 455.4,-474.17 446.3,-479.59 451.66,-484.09"/>
</g>
<!-- node2 -->
<g id="node10" class="node">
<title>node2</title>
<polygon fill="lightgrey" stroke="black" points="840.29,-474 721.29,-474 721.29,-438 840.29,-438 840.29,-474"/>
<text text-anchor="middle" x="780.79" y="-452.3" font-family="Times,serif" font-size="14.00">#2 LabelNode</text>
</g>
<!-- node0&#45;&gt;node2 -->
<g id="edge15" class="edge">
<title>node0&#45;&gt;node2</title>
<path fill="none" stroke="red" d="M464.44,-530.73C521.44,-524.12 608.19,-512 681.79,-493 697.62,-488.91 714.47,-483.29 729.69,-477.7"/>
<polygon fill="red" stroke="red" points="731.3,-480.84 739.44,-474.05 728.85,-474.28 731.3,-480.84"/>
</g>
<!-- node6 -->
<g id="node12" class="node">
<title>node6</title>
<polygon fill="lightgreen" stroke="black" points="126.31,-448.54 126.31,-463.46 95.54,-474 52.03,-474 21.26,-463.46 21.26,-448.54 52.03,-438 95.54,-438 126.31,-448.54"/>
<text text-anchor="middle" x="73.79" y="-452.3" font-family="Times,serif" font-size="14.00">#6 int 1</text>
</g>
<!-- node0&#45;&gt;node6 -->
<g id="edge21" class="edge">
<title>node0&#45;&gt;node6</title>
<path fill="none" stroke="black" stroke-dasharray="1,5" d="M341.12,-523.11C286.91,-510.74 205.93,-491.89 135.79,-474 131.65,-472.95 127.36,-471.83 123.07,-470.69"/>
<polygon fill="black" stroke="black" points="123.65,-467.22 113.09,-468 121.84,-473.98 123.65,-467.22"/>
</g>
<!-- node11 -->
<g id="node3" class="node">
<title>node11</title>
<polygon fill="orange" stroke="black" points="747.24,-375.54 747.24,-390.46 667.31,-401 554.26,-401 474.33,-390.46 474.33,-375.54 554.26,-365 667.31,-365 747.24,-375.54"/>
<text text-anchor="middle" x="610.79" y="-379.3" font-family="Times,serif" font-size="14.00">#11 NewArray : Object[]</text>
</g>
<!-- node10&#45;&gt;node11 -->
<g id="edge2" class="edge">
<title>node10&#45;&gt;node11</title>
<path fill="none" stroke="black" d="M602.45,-437.81C603.69,-429.79 605.2,-420.05 606.59,-411.07"/>
<polygon fill="black" stroke="black" points="610.07,-411.45 608.15,-401.03 603.16,-410.38 610.07,-411.45"/>
<text text-anchor="middle" x="613.72" y="-416.54" font-family="Times,serif" font-size="14.00">*0</text>
</g>
<!-- node12 -->
<g id="node7" class="node">
<title>node12</title>
<polygon fill="lightgrey" stroke="black" points="576.29,-328 365.29,-328 365.29,-292 576.29,-292 576.29,-328"/>
<text text-anchor="middle" x="470.79" y="-306.3" font-family="Times,serif" font-size="14.00">#12 ArrayStore : Object[][]</text>
</g>
<!-- node11&#45;&gt;node12 -->
<g id="edge11" class="edge">
<title>node11&#45;&gt;node12</title>
<path fill="none" stroke="black" d="M571.39,-364.99C551.38,-355.36 527.27,-343.21 507.62,-332.87"/>
<polygon fill="black" stroke="black" points="509.13,-329.71 498.66,-328.11 505.85,-335.89 509.13,-329.71"/>
<text text-anchor="middle" x="518.63" y="-325.44" font-family="Times,serif" font-size="14.00">*2</text>
</g>
<!-- node11&#45;&gt;node12 -->
<g id="edge12" class="edge">
<title>node11&#45;&gt;node12</title>
<path fill="none" stroke="green" d="M583.11,-364.99C564.98,-355.27 540.88,-342.99 519.62,-332.59"/>
<polygon fill="green" stroke="green" points="520.93,-329.33 510.4,-328.11 517.87,-335.63 520.93,-329.33"/>
</g>
<!-- node4&#45;&gt;node11 -->
<g id="edge3" class="edge">
<title>node4&#45;&gt;node11</title>
<path fill="none" stroke="green" d="M418.88,-383C433.8,-383 448.72,-383 463.65,-383"/>
<polygon fill="green" stroke="green" points="463.98,-386.5 473.98,-383 463.98,-379.5 463.98,-386.5"/>
</g>
<!-- node4&#45;&gt;node12 -->
<g id="edge9" class="edge">
<title>node4&#45;&gt;node12</title>
<path fill="none" stroke="black" d="M306.52,-364.99C337.29,-354.88 376.5,-341.99 408.9,-331.34"/>
<polygon fill="black" stroke="black" points="410.31,-334.56 418.72,-328.11 408.13,-327.91 410.31,-334.56"/>
<text text-anchor="middle" x="404.14" y="-338.1" font-family="Times,serif" font-size="14.00">*0</text>
</g>
<!-- node13 -->
<g id="node11" class="node">
<title>node13</title>
<polygon fill="lightgrey" stroke="black" points="231.79,-255 35.79,-255 35.79,-219 231.79,-219 231.79,-255"/>
<text text-anchor="middle" x="133.79" y="-233.3" font-family="Times,serif" font-size="14.00">#13 ArrayLoad : Object[]</text>
</g>
<!-- node4&#45;&gt;node13 -->
<g id="edge17" class="edge">
<title>node4&#45;&gt;node13</title>
<path fill="none" stroke="black" d="M202.61,-364.97C184.33,-356.56 165.27,-344.56 152.79,-328 139.3,-310.12 134.89,-284.81 133.66,-265.59"/>
<polygon fill="black" stroke="black" points="137.14,-265.2 133.26,-255.35 130.15,-265.48 137.14,-265.2"/>
<text text-anchor="middle" x="142.41" y="-269.43" font-family="Times,serif" font-size="14.00">*0</text>
</g>
<!-- node5 -->
<g id="node16" class="node">
<title>node5</title>
<polygon fill="orange" stroke="black" points="347.51,-302.54 347.51,-317.46 293.19,-328 216.38,-328 162.06,-317.46 162.06,-302.54 216.38,-292 293.19,-292 347.51,-302.54"/>
<text text-anchor="middle" x="254.79" y="-306.3" font-family="Times,serif" font-size="14.00">#5 ArrayLength</text>
</g>
<!-- node4&#45;&gt;node5 -->
<g id="edge26" class="edge">
<title>node4&#45;&gt;node5</title>
<path fill="none" stroke="black" d="M254.79,-364.81C254.79,-356.79 254.79,-347.05 254.79,-338.07"/>
<polygon fill="black" stroke="black" points="258.29,-338.03 254.79,-328.03 251.29,-338.03 258.29,-338.03"/>
<text text-anchor="middle" x="263.24" y="-342.45" font-family="Times,serif" font-size="14.00">*0</text>
</g>
<!-- node9&#45;&gt;node4 -->
<g id="edge4" class="edge">
<title>node9&#45;&gt;node4</title>
<path fill="none" stroke="black" d="M319.21,-437.81C308.35,-428.74 294.86,-417.48 283.04,-407.6"/>
<polygon fill="black" stroke="black" points="285.09,-404.75 275.17,-401.03 280.6,-410.13 285.09,-404.75"/>
<text text-anchor="middle" x="294.5" y="-402.46" font-family="Times,serif" font-size="14.00">*0</text>
</g>
<!-- node7&#45;&gt;node4 -->
<g id="edge5" class="edge">
<title>node7&#45;&gt;node4</title>
<path fill="none" stroke="black" d="M216.13,-437.81C222.27,-429.27 229.81,-418.77 236.6,-409.32"/>
<polygon fill="black" stroke="black" points="239.56,-411.19 242.55,-401.03 233.88,-407.11 239.56,-411.19"/>
<text text-anchor="middle" x="238.84" y="-416.98" font-family="Times,serif" font-size="14.00">*1</text>
</g>
<!-- node12&#45;&gt;node13 -->
<g id="edge19" class="edge">
<title>node12&#45;&gt;node13</title>
<path fill="none" stroke="green" d="M384.21,-291.99C333.35,-281.51 269.37,-268.05 218.79,-257.19"/>
<polygon fill="green" stroke="green" points="219.37,-253.73 208.86,-255.05 217.9,-260.58 219.37,-253.73"/>
</g>
<!-- node12&#45;&gt;node13 -->
<g id="edge20" class="edge">
<title>node12&#45;&gt;node13</title>
<path fill="none" stroke="red" d="M395.92,-291.99C347.19,-281.49 283.19,-267.99 230.6,-257.12"/>
<polygon fill="red" stroke="red" points="231.09,-253.65 220.59,-255.05 229.67,-260.5 231.09,-253.65"/>
</g>
<!-- node8&#45;&gt;node12 -->
<g id="edge10" class="edge">
<title>node8&#45;&gt;node12</title>
<path fill="none" stroke="black" d="M468.2,-437.99C467.29,-427.37 466.24,-413.4 465.79,-401 465.19,-385.01 465.05,-380.98 465.79,-365 466.18,-356.4 466.93,-347.06 467.73,-338.6"/>
<polygon fill="black" stroke="black" points="471.23,-338.78 468.75,-328.48 464.27,-338.08 471.23,-338.78"/>
<text text-anchor="middle" x="475.35" y="-343.66" font-family="Times,serif" font-size="14.00">*1</text>
</g>
<!-- node3 -->
<g id="node9" class="node">
<title>node3</title>
<polygon fill="lightgrey" stroke="black" points="884.29,-401 765.29,-401 765.29,-365 884.29,-365 884.29,-401"/>
<text text-anchor="middle" x="824.79" y="-379.3" font-family="Times,serif" font-size="14.00">#3 LabelNode</text>
</g>
<!-- node3&#45;&gt;node12 -->
<g id="edge13" class="edge">
<title>node3&#45;&gt;node12</title>
<path fill="none" stroke="red" d="M764.99,-367.06C761.88,-366.35 758.8,-365.66 755.79,-365 697.07,-352.21 631.17,-339.62 577.54,-329.81"/>
<polygon fill="red" stroke="red" points="578.14,-326.36 567.68,-328.01 576.89,-333.25 578.14,-326.36"/>
</g>
<!-- node2&#45;&gt;node3 -->
<g id="edge14" class="edge">
<title>node2&#45;&gt;node3</title>
<path fill="none" stroke="red" d="M791.44,-437.81C796.68,-429.35 803.11,-418.98 808.91,-409.61"/>
<polygon fill="red" stroke="red" points="811.94,-411.37 814.23,-401.03 805.99,-407.69 811.94,-411.37"/>
</g>
<!-- node14 -->
<g id="node13" class="node">
<title>node14</title>
<polygon fill="lightgrey" stroke="black" points="197.79,-182 69.79,-182 69.79,-146 197.79,-146 197.79,-182"/>
<text text-anchor="middle" x="133.79" y="-160.3" font-family="Times,serif" font-size="14.00">#14 LabelNode</text>
</g>
<!-- node13&#45;&gt;node14 -->
<g id="edge22" class="edge">
<title>node13&#45;&gt;node14</title>
<path fill="none" stroke="red" d="M133.79,-218.81C133.79,-210.79 133.79,-201.05 133.79,-192.07"/>
<polygon fill="red" stroke="red" points="137.29,-192.03 133.79,-182.03 130.29,-192.03 137.29,-192.03"/>
</g>
<!-- node16 -->
<g id="node15" class="node">
<title>node16</title>
<polygon fill="lightgrey" stroke="black" points="184.29,-36 83.29,-36 83.29,0 184.29,0 184.29,-36"/>
<text text-anchor="middle" x="133.79" y="-14.3" font-family="Times,serif" font-size="14.00">#16 Return</text>
</g>
<!-- node13&#45;&gt;node16 -->
<g id="edge25" class="edge">
<title>node13&#45;&gt;node16</title>
<path fill="none" stroke="green" d="M98.02,-218.93C83.7,-210.07 68.73,-197.77 60.79,-182 38.98,-138.74 38.98,-116.26 60.79,-73 67.18,-60.31 78.12,-49.87 89.61,-41.66"/>
<polygon fill="green" stroke="green" points="91.63,-44.52 98.02,-36.07 87.75,-38.69 91.63,-44.52"/>
</g>
<!-- node6&#45;&gt;node13 -->
<g id="edge18" class="edge">
<title>node6&#45;&gt;node13</title>
<path fill="none" stroke="black" d="M73.79,-437.83C74.15,-419.54 75.74,-389.84 81.79,-365 90.59,-328.83 108.02,-289.5 120.26,-264.34"/>
<polygon fill="black" stroke="black" points="123.53,-265.63 124.83,-255.11 117.26,-262.52 123.53,-265.63"/>
<text text-anchor="middle" x="124.36" y="-271.41" font-family="Times,serif" font-size="14.00">*1</text>
</g>
<!-- node15 -->
<g id="node14" class="node">
<title>node15</title>
<polygon fill="lightgrey" stroke="black" points="197.79,-109 69.79,-109 69.79,-73 197.79,-73 197.79,-109"/>
<text text-anchor="middle" x="133.79" y="-87.3" font-family="Times,serif" font-size="14.00">#15 LabelNode</text>
</g>
<!-- node14&#45;&gt;node15 -->
<g id="edge23" class="edge">
<title>node14&#45;&gt;node15</title>
<path fill="none" stroke="red" d="M133.79,-145.81C133.79,-137.79 133.79,-128.05 133.79,-119.07"/>
<polygon fill="red" stroke="red" points="137.29,-119.03 133.79,-109.03 130.29,-119.03 137.29,-119.03"/>
</g>
<!-- node15&#45;&gt;node16 -->
<g id="edge24" class="edge">
<title>node15&#45;&gt;node16</title>
<path fill="none" stroke="red" d="M133.79,-72.81C133.79,-64.79 133.79,-55.05 133.79,-46.07"/>
<polygon fill="red" stroke="red" points="137.29,-46.03 133.79,-36.03 130.29,-46.03 137.29,-46.03"/>
</g>
<!-- c0 -->
<!-- c1 -->
<!-- c0&#45;&gt;c1 -->
<g id="edge27" class="edge">
<title>c0&#45;&gt;c1</title>
<path fill="none" stroke="red" d="M1410.68,-538C1421.89,-538 1480.03,-538 1505.64,-538"/>
<polygon fill="red" stroke="red" points="1505.84,-541.5 1515.84,-538 1505.84,-534.5 1505.84,-541.5"/>
<text text-anchor="middle" x="1463.29" y="-544.8" font-family="Times,serif" font-size="14.00">Control flow</text>
</g>
<!-- c2 -->
<!-- c3 -->
<!-- c2&#45;&gt;c3 -->
<g id="edge28" class="edge">
<title>c2&#45;&gt;c3</title>
<path fill="none" stroke="red" stroke-dasharray="5,2" d="M1203.86,-538C1220.83,-538 1336.99,-538 1374.87,-538"/>
<polygon fill="red" stroke="red" points="1374.95,-541.5 1384.95,-538 1374.95,-534.5 1374.95,-541.5"/>
<text text-anchor="middle" x="1294.29" y="-544.8" font-family="Times,serif" font-size="14.00">Control flow back edge</text>
</g>
<!-- d0 -->
<!-- d1 -->
<!-- d0&#45;&gt;d1 -->
<g id="edge29" class="edge">
<title>d0&#45;&gt;d1</title>
<path fill="none" stroke="black" d="M1092.64,-538C1102.19,-538 1146.09,-538 1167.7,-538"/>
<polygon fill="black" stroke="black" points="1167.94,-541.5 1177.94,-538 1167.94,-534.5 1167.94,-541.5"/>
<text text-anchor="middle" x="1135.29" y="-544.8" font-family="Times,serif" font-size="14.00">Data flow</text>
</g>
<!-- d2 -->
<!-- d3 -->
<!-- d2&#45;&gt;d3 -->
<g id="edge30" class="edge">
<title>d2&#45;&gt;d3</title>
<path fill="none" stroke="black" stroke-dasharray="1,5" d="M966.59,-538C977.24,-538 1032.25,-538 1056.86,-538"/>
<polygon fill="black" stroke="black" points="1056.93,-541.5 1066.93,-538 1056.93,-534.5 1056.93,-541.5"/>
<text text-anchor="middle" x="1016.79" y="-544.8" font-family="Times,serif" font-size="14.00">Declaration</text>
</g>
<!-- d4 -->
<!-- d5 -->
<!-- d4&#45;&gt;d5 -->
<g id="edge31" class="edge">
<title>d4&#45;&gt;d5</title>
<path fill="none" stroke="blue" d="M823.89,-538C836.51,-538 902.67,-538 930.46,-538"/>
<polygon fill="blue" stroke="blue" points="930.63,-541.5 940.63,-538 930.63,-534.5 930.63,-541.5"/>
<text text-anchor="middle" x="882.29" y="-544.8" font-family="Times,serif" font-size="14.00">PHI Data flow</text>
</g>
<!-- d6 -->
<!-- d7 -->
<!-- d6&#45;&gt;d7 -->
<g id="edge32" class="edge">
<title>d6&#45;&gt;d7</title>
<path fill="none" stroke="green" d="M686.78,-538C698.72,-538 761.08,-538 787.71,-538"/>
<polygon fill="green" stroke="green" points="787.73,-541.5 797.73,-538 787.73,-534.5 787.73,-541.5"/>
<text text-anchor="middle" x="742.29" y="-544.8" font-family="Times,serif" font-size="14.00">Memory flow</text>
</g>
</g>
</svg>
