<?xml version="1.0" encoding="UTF-8" standalone="no"?>
<!DOCTYPE svg PUBLIC "-//W3C//DTD SVG 1.1//EN"
 "http://www.w3.org/Graphics/SVG/1.1/DTD/svg11.dtd">
<!-- Generated by graphviz version 2.43.0 (0)
 -->
<!-- Title: %3 Pages: 1 -->
<svg width="1754pt" height="589pt"
 viewBox="0.00 0.00 1753.50 589.00" xmlns="http://www.w3.org/2000/svg" xmlns:xlink="http://www.w3.org/1999/xlink">
<g id="graph0" class="graph" transform="scale(1 1) rotate(0) translate(4 585)">
<title>%3</title>
<polygon fill="white" stroke="transparent" points="-4,4 -4,-585 1749.5,-585 1749.5,4 -4,4"/>
<g id="clust1" class="cluster">
<title>cluster_0</title>
<polygon fill="none" stroke="lightgray" points="222.5,-430 222.5,-573 876.5,-573 876.5,-430 222.5,-430"/>
</g>
<g id="clust2" class="cluster">
<title>cluster_000</title>
<polygon fill="none" stroke="black" points="884.5,-528.2 884.5,-570.8 1737.5,-570.8 1737.5,-528.2 884.5,-528.2"/>
<text text-anchor="middle" x="1311" y="-555.6" font-family="Times,serif" font-size="14.00">Legend</text>
</g>
<!-- node0 -->
<g id="node1" class="node">
<title>node0</title>
<polygon fill="lightgrey" stroke="transparent" points="546,-565 423,-565 423,-511 546,-511 546,-565"/>
<polygon fill="none" stroke="black" points="423.5,-538 423.5,-565 546.5,-565 546.5,-538 423.5,-538"/>
<text text-anchor="start" x="444.5" y="-547.8" font-family="Times,serif" font-size="14.00">#0 Method</text>
<polygon fill="yellow" stroke="transparent" points="423.5,-511 423.5,-538 546.5,-538 546.5,-511 423.5,-511"/>
<polygon fill="none" stroke="black" points="423.5,-511 423.5,-538 546.5,-538 546.5,-511 423.5,-511"/>
<text text-anchor="start" x="429.5" y="-520.8" font-family="Times,serif" font-size="14.00">this : ArrayTest</text>
</g>
<!-- node10 -->
<g id="node2" class="node">
<title>node10</title>
<polygon fill="lightgreen" stroke="black" points="348.69,-448.54 348.69,-463.46 314.02,-474 264.98,-474 230.31,-463.46 230.31,-448.54 264.98,-438 314.02,-438 348.69,-448.54"/>
<text text-anchor="middle" x="289.5" y="-452.3" font-family="Times,serif" font-size="14.00">#10 int 5</text>
</g>
<!-- node0&#45;&gt;node10 -->
<g id="edge1" class="edge">
<title>node0&#45;&gt;node10</title>
<path fill="none" stroke="black" stroke-dasharray="1,5" d="M422.8,-511.69C393.68,-499.74 359.62,-485.77 333.22,-474.93"/>
<polygon fill="black" stroke="black" points="334.44,-471.65 323.86,-471.1 331.78,-478.13 334.44,-471.65"/>
</g>
<!-- node4 -->
<g id="node4" class="node">
<title>node4</title>
<polygon fill="orange" stroke="black" points="793.33,-375.54 793.33,-390.46 697.36,-401 561.64,-401 465.67,-390.46 465.67,-375.54 561.64,-365 697.36,-365 793.33,-375.54"/>
<text text-anchor="middle" x="629.5" y="-379.3" font-family="Times,serif" font-size="14.00">#4 NewMultiArray : Object[][]</text>
</g>
<!-- node0&#45;&gt;node4 -->
<g id="edge6" class="edge">
<title>node0&#45;&gt;node4</title>
<path fill="none" stroke="green" d="M422.71,-536.85C319.83,-535.15 120.35,-525.15 76.5,-474 63.77,-459.15 63.26,-444.39 76.5,-430 77.38,-429.05 327.49,-408.55 491,-395.24"/>
<polygon fill="green" stroke="green" points="491.47,-398.71 501.16,-394.41 490.9,-391.73 491.47,-398.71"/>
</g>
<!-- node7 -->
<g id="node5" class="node">
<title>node7</title>
<polygon fill="lightgreen" stroke="black" points="608.69,-448.54 608.69,-463.46 574.02,-474 524.98,-474 490.31,-463.46 490.31,-448.54 524.98,-438 574.02,-438 608.69,-448.54"/>
<text text-anchor="middle" x="549.5" y="-452.3" font-family="Times,serif" font-size="14.00">#7 int 20</text>
</g>
<!-- node0&#45;&gt;node7 -->
<g id="edge8" class="edge">
<title>node0&#45;&gt;node7</title>
<path fill="none" stroke="black" stroke-dasharray="1,5" d="M505.78,-510.81C513.27,-501.59 521.66,-491.27 529.07,-482.15"/>
<polygon fill="black" stroke="black" points="531.96,-484.14 535.55,-474.17 526.52,-479.73 531.96,-484.14"/>
</g>
<!-- node6 -->
<g id="node6" class="node">
<title>node6</title>
<polygon fill="lightgreen" stroke="black" points="744.69,-448.54 744.69,-463.46 710.02,-474 660.98,-474 626.31,-463.46 626.31,-448.54 660.98,-438 710.02,-438 744.69,-448.54"/>
<text text-anchor="middle" x="685.5" y="-452.3" font-family="Times,serif" font-size="14.00">#6 int 10</text>
</g>
<!-- node0&#45;&gt;node6 -->
<g id="edge7" class="edge">
<title>node0&#45;&gt;node6</title>
<path fill="none" stroke="black" stroke-dasharray="1,5" d="M546.17,-512.45C576.83,-500.25 613.19,-485.78 641.07,-474.68"/>
<polygon fill="black" stroke="black" points="642.56,-477.86 650.56,-470.91 639.97,-471.35 642.56,-477.86"/>
</g>
<!-- node8 -->
<g id="node8" class="node">
<title>node8</title>
<polygon fill="lightgreen" stroke="black" points="868.02,-448.54 868.02,-463.46 837.26,-474 793.74,-474 762.98,-463.46 762.98,-448.54 793.74,-438 837.26,-438 868.02,-448.54"/>
<text text-anchor="middle" x="815.5" y="-452.3" font-family="Times,serif" font-size="14.00">#8 int 1</text>
</g>
<!-- node0&#45;&gt;node8 -->
<g id="edge21" class="edge">
<title>node0&#45;&gt;node8</title>
<path fill="none" stroke="black" stroke-dasharray="1,5" d="M546.09,-523.27C600.72,-510.92 682.61,-492.01 753.5,-474 757.64,-472.95 761.92,-471.83 766.22,-470.69"/>
<polygon fill="black" stroke="black" points="767.45,-473.99 776.2,-468.01 765.64,-467.23 767.45,-473.99"/>
</g>
<!-- node9 -->
<g id="node10" class="node">
<title>node9</title>
<polygon fill="lightgreen" stroke="black" points="472.02,-448.54 472.02,-463.46 441.26,-474 397.74,-474 366.98,-463.46 366.98,-448.54 397.74,-438 441.26,-438 472.02,-448.54"/>
<text text-anchor="middle" x="419.5" y="-452.3" font-family="Times,serif" font-size="14.00">#9 int 0</text>
</g>
<!-- node0&#45;&gt;node9 -->
<g id="edge20" class="edge">
<title>node0&#45;&gt;node9</title>
<path fill="none" stroke="black" stroke-dasharray="1,5" d="M463.22,-510.81C455.73,-501.59 447.34,-491.27 439.93,-482.15"/>
<polygon fill="black" stroke="black" points="442.48,-479.73 433.45,-474.17 437.04,-484.14 442.48,-479.73"/>
</g>
<!-- node2 -->
<g id="node12" class="node">
<title>node2</title>
<polygon fill="lightgrey" stroke="black" points="205,-474 86,-474 86,-438 205,-438 205,-474"/>
<text text-anchor="middle" x="145.5" y="-452.3" font-family="Times,serif" font-size="14.00">#2 LabelNode</text>
</g>
<!-- node0&#45;&gt;node2 -->
<g id="edge19" class="edge">
<title>node0&#45;&gt;node2</title>
<path fill="none" stroke="red" d="M422.72,-522.42C364.1,-508.59 276.15,-487.83 215.09,-473.42"/>
<polygon fill="red" stroke="red" points="215.69,-469.97 205.15,-471.08 214.08,-476.78 215.69,-469.97"/>
</g>
<!-- node11 -->
<g id="node3" class="node">
<title>node11</title>
<polygon fill="orange" stroke="black" points="409.96,-375.54 409.96,-390.46 330.02,-401 216.98,-401 137.04,-390.46 137.04,-375.54 216.98,-365 330.02,-365 409.96,-375.54"/>
<text text-anchor="middle" x="273.5" y="-379.3" font-family="Times,serif" font-size="14.00">#11 NewArray : Object[]</text>
</g>
<!-- node10&#45;&gt;node11 -->
<g id="edge2" class="edge">
<title>node10&#45;&gt;node11</title>
<path fill="none" stroke="black" d="M285.63,-437.81C283.82,-429.79 281.62,-420.05 279.6,-411.07"/>
<polygon fill="black" stroke="black" points="282.95,-410.01 277.34,-401.03 276.12,-411.55 282.95,-410.01"/>
<text text-anchor="middle" x="289.57" y="-413.15" font-family="Times,serif" font-size="14.00">*0</text>
</g>
<!-- node12 -->
<g id="node9" class="node">
<title>node12</title>
<polygon fill="lightgrey" stroke="black" points="543,-328 332,-328 332,-292 543,-292 543,-328"/>
<text text-anchor="middle" x="437.5" y="-306.3" font-family="Times,serif" font-size="14.00">#12 ArrayStore : Object[][]</text>
</g>
<!-- node11&#45;&gt;node12 -->
<g id="edge15" class="edge">
<title>node11&#45;&gt;node12</title>
<path fill="none" stroke="black" d="M306.92,-364.99C328.73,-355.1 357.6,-342.54 382.69,-332.03"/>
<polygon fill="black" stroke="black" points="384.21,-335.19 392.1,-328.11 381.52,-328.73 384.21,-335.19"/>
<text text-anchor="middle" x="378.62" y="-339.19" font-family="Times,serif" font-size="14.00">*2</text>
</g>
<!-- node11&#45;&gt;node12 -->
<g id="edge16" class="edge">
<title>node11&#45;&gt;node12</title>
<path fill="none" stroke="green" d="M318.64,-364.99C342.34,-355.19 371.15,-342.77 394.52,-332.31"/>
<polygon fill="green" stroke="green" points="396.16,-335.41 403.84,-328.11 393.29,-329.03 396.16,-335.41"/>
</g>
<!-- node4&#45;&gt;node11 -->
<g id="edge3" class="edge">
<title>node4&#45;&gt;node11</title>
<path fill="none" stroke="green" d="M465.4,-383C450.43,-383 435.46,-383 420.49,-383"/>
<polygon fill="green" stroke="green" points="420.13,-379.5 410.13,-383 420.13,-386.5 420.13,-379.5"/>
</g>
<!-- node13 -->
<g id="node7" class="node">
<title>node13</title>
<polygon fill="lightgrey" stroke="black" points="673.5,-255 477.5,-255 477.5,-219 673.5,-219 673.5,-255"/>
<text text-anchor="middle" x="575.5" y="-233.3" font-family="Times,serif" font-size="14.00">#13 ArrayLoad : Object[]</text>
</g>
<!-- node4&#45;&gt;node13 -->
<g id="edge9" class="edge">
<title>node4&#45;&gt;node13</title>
<path fill="none" stroke="black" d="M616.09,-364.91C608.71,-354.72 599.96,-341.22 594.5,-328 586.14,-307.76 581.29,-283.39 578.58,-265.12"/>
<polygon fill="black" stroke="black" points="582.04,-264.57 577.23,-255.14 575.1,-265.52 582.04,-264.57"/>
<text text-anchor="middle" x="588.04" y="-268.26" font-family="Times,serif" font-size="14.00">*0</text>
</g>
<!-- node4&#45;&gt;node12 -->
<g id="edge13" class="edge">
<title>node4&#45;&gt;node12</title>
<path fill="none" stroke="black" d="M583.51,-364.99C556.4,-354.97 521.91,-342.21 493.25,-331.62"/>
<polygon fill="black" stroke="black" points="494.37,-328.3 483.78,-328.11 491.94,-334.86 494.37,-328.3"/>
<text text-anchor="middle" x="503.71" y="-322.77" font-family="Times,serif" font-size="14.00">*0</text>
</g>
<!-- node5 -->
<g id="node16" class="node">
<title>node5</title>
<polygon fill="orange" stroke="black" points="789.22,-302.54 789.22,-317.46 734.91,-328 658.09,-328 603.78,-317.46 603.78,-302.54 658.09,-292 734.91,-292 789.22,-302.54"/>
<text text-anchor="middle" x="696.5" y="-306.3" font-family="Times,serif" font-size="14.00">#5 ArrayLength</text>
</g>
<!-- node4&#45;&gt;node5 -->
<g id="edge26" class="edge">
<title>node4&#45;&gt;node5</title>
<path fill="none" stroke="black" d="M645.72,-364.81C654.03,-356 664.3,-345.13 673.42,-335.46"/>
<polygon fill="black" stroke="black" points="676.11,-337.7 680.43,-328.03 671.02,-332.9 676.11,-337.7"/>
<text text-anchor="middle" x="674.14" y="-343.31" font-family="Times,serif" font-size="14.00">*0</text>
</g>
<!-- node7&#45;&gt;node4 -->
<g id="edge4" class="edge">
<title>node7&#45;&gt;node4</title>
<path fill="none" stroke="black" d="M568.87,-437.81C578.99,-428.83 591.54,-417.69 602.59,-407.89"/>
<polygon fill="black" stroke="black" points="605.16,-410.28 610.31,-401.03 600.51,-405.05 605.16,-410.28"/>
<text text-anchor="middle" x="602.37" y="-415.68" font-family="Times,serif" font-size="14.00">*0</text>
</g>
<!-- node6&#45;&gt;node4 -->
<g id="edge5" class="edge">
<title>node6&#45;&gt;node4</title>
<path fill="none" stroke="black" d="M671.94,-437.81C665.13,-429.18 656.75,-418.56 649.25,-409.03"/>
<polygon fill="black" stroke="black" points="651.87,-406.71 642.93,-401.03 646.38,-411.05 651.87,-406.71"/>
<text text-anchor="middle" x="660.79" y="-406.33" font-family="Times,serif" font-size="14.00">*1</text>
</g>
<!-- node14 -->
<g id="node13" class="node">
<title>node14</title>
<polygon fill="lightgrey" stroke="black" points="639.5,-182 511.5,-182 511.5,-146 639.5,-146 639.5,-182"/>
<text text-anchor="middle" x="575.5" y="-160.3" font-family="Times,serif" font-size="14.00">#14 LabelNode</text>
</g>
<!-- node13&#45;&gt;node14 -->
<g id="edge22" class="edge">
<title>node13&#45;&gt;node14</title>
<path fill="none" stroke="red" d="M575.5,-218.81C575.5,-210.79 575.5,-201.05 575.5,-192.07"/>
<polygon fill="red" stroke="red" points="579,-192.03 575.5,-182.03 572,-192.03 579,-192.03"/>
</g>
<!-- node16 -->
<g id="node15" class="node">
<title>node16</title>
<polygon fill="lightgrey" stroke="black" points="626,-36 525,-36 525,0 626,0 626,-36"/>
<text text-anchor="middle" x="575.5" y="-14.3" font-family="Times,serif" font-size="14.00">#16 Return</text>
</g>
<!-- node13&#45;&gt;node16 -->
<g id="edge25" class="edge">
<title>node13&#45;&gt;node16</title>
<path fill="none" stroke="green" d="M539.74,-218.93C525.41,-210.07 510.45,-197.77 502.5,-182 480.69,-138.74 480.69,-116.26 502.5,-73 508.9,-60.31 519.84,-49.87 531.33,-41.66"/>
<polygon fill="green" stroke="green" points="533.34,-44.52 539.74,-36.07 529.47,-38.69 533.34,-44.52"/>
</g>
<!-- node8&#45;&gt;node13 -->
<g id="edge10" class="edge">
<title>node8&#45;&gt;node13</title>
<path fill="none" stroke="black" d="M819.49,-437.75C825.95,-404.99 834.65,-333.34 798.5,-292 782.71,-273.94 732.41,-260.92 683.57,-252.2"/>
<polygon fill="black" stroke="black" points="683.96,-248.71 673.51,-250.45 682.76,-255.61 683.96,-248.71"/>
<text text-anchor="middle" x="692.81" y="-241.52" font-family="Times,serif" font-size="14.00">*1</text>
</g>
<!-- node12&#45;&gt;node13 -->
<g id="edge11" class="edge">
<title>node12&#45;&gt;node13</title>
<path fill="none" stroke="green" d="M464.7,-291.99C482.56,-282.27 506.3,-269.99 527.27,-259.59"/>
<polygon fill="green" stroke="green" points="528.94,-262.67 536.37,-255.11 525.85,-256.39 528.94,-262.67"/>
</g>
<!-- node12&#45;&gt;node13 -->
<g id="edge12" class="edge">
<title>node12&#45;&gt;node13</title>
<path fill="none" stroke="red" d="M476.41,-291.99C496.16,-282.36 519.92,-270.21 539.28,-259.87"/>
<polygon fill="red" stroke="red" points="540.96,-262.94 548.11,-255.11 537.64,-256.78 540.96,-262.94"/>
</g>
<!-- node9&#45;&gt;node12 -->
<g id="edge14" class="edge">
<title>node9&#45;&gt;node12</title>
<path fill="none" stroke="black" d="M421.64,-437.92C424.72,-413.23 430.46,-367.35 434.12,-338.04"/>
<polygon fill="black" stroke="black" points="437.6,-338.42 435.37,-328.06 430.65,-337.55 437.6,-338.42"/>
<text text-anchor="middle" x="441.51" y="-343.4" font-family="Times,serif" font-size="14.00">*1</text>
</g>
<!-- node3 -->
<g id="node11" class="node">
<title>node3</title>
<polygon fill="lightgrey" stroke="black" points="119,-401 0,-401 0,-365 119,-365 119,-401"/>
<text text-anchor="middle" x="59.5" y="-379.3" font-family="Times,serif" font-size="14.00">#3 LabelNode</text>
</g>
<!-- node3&#45;&gt;node12 -->
<g id="edge17" class="edge">
<title>node3&#45;&gt;node12</title>
<path fill="none" stroke="red" d="M119.28,-367.01C122.39,-366.31 125.48,-365.63 128.5,-365 192.1,-351.62 263.56,-338.98 321.73,-329.3"/>
<polygon fill="red" stroke="red" points="322.39,-332.74 331.68,-327.65 321.25,-325.83 322.39,-332.74"/>
</g>
<!-- node2&#45;&gt;node3 -->
<g id="edge18" class="edge">
<title>node2&#45;&gt;node3</title>
<path fill="none" stroke="red" d="M124.68,-437.81C113.7,-428.74 100.05,-417.48 88.09,-407.6"/>
<polygon fill="red" stroke="red" points="90.07,-404.7 80.13,-401.03 85.61,-410.09 90.07,-404.7"/>
</g>
<!-- node15 -->
<g id="node14" class="node">
<title>node15</title>
<polygon fill="lightgrey" stroke="black" points="639.5,-109 511.5,-109 511.5,-73 639.5,-73 639.5,-109"/>
<text text-anchor="middle" x="575.5" y="-87.3" font-family="Times,serif" font-size="14.00">#15 LabelNode</text>
</g>
<!-- node14&#45;&gt;node15 -->
<g id="edge23" class="edge">
<title>node14&#45;&gt;node15</title>
<path fill="none" stroke="red" d="M575.5,-145.81C575.5,-137.79 575.5,-128.05 575.5,-119.07"/>
<polygon fill="red" stroke="red" points="579,-119.03 575.5,-109.03 572,-119.03 579,-119.03"/>
</g>
<!-- node15&#45;&gt;node16 -->
<g id="edge24" class="edge">
<title>node15&#45;&gt;node16</title>
<path fill="none" stroke="red" d="M575.5,-72.81C575.5,-64.79 575.5,-55.05 575.5,-46.07"/>
<polygon fill="red" stroke="red" points="579,-46.03 575.5,-36.03 572,-46.03 579,-46.03"/>
</g>
<!-- c0 -->
<!-- c1 -->
<!-- c0&#45;&gt;c1 -->
<g id="edge27" class="edge">
<title>c0&#45;&gt;c1</title>
<path fill="none" stroke="red" d="M1620.39,-538C1631.61,-538 1689.74,-538 1715.36,-538"/>
<polygon fill="red" stroke="red" points="1715.56,-541.5 1725.56,-538 1715.56,-534.5 1715.56,-541.5"/>
<text text-anchor="middle" x="1673" y="-544.8" font-family="Times,serif" font-size="14.00">Control flow</text>
</g>
<!-- c2 -->
<!-- c3 -->
<!-- c2&#45;&gt;c3 -->
<g id="edge28" class="edge">
<title>c2&#45;&gt;c3</title>
<path fill="none" stroke="red" stroke-dasharray="5,2" d="M1413.58,-538C1430.55,-538 1546.71,-538 1584.58,-538"/>
<polygon fill="red" stroke="red" points="1584.67,-541.5 1594.67,-538 1584.67,-534.5 1584.67,-541.5"/>
<text text-anchor="middle" x="1504" y="-544.8" font-family="Times,serif" font-size="14.00">Control flow back edge</text>
</g>
<!-- d0 -->
<!-- d1 -->
<!-- d0&#45;&gt;d1 -->
<g id="edge29" class="edge">
<title>d0&#45;&gt;d1</title>
<path fill="none" stroke="black" d="M1302.36,-538C1311.91,-538 1355.81,-538 1377.42,-538"/>
<polygon fill="black" stroke="black" points="1377.65,-541.5 1387.65,-538 1377.65,-534.5 1377.65,-541.5"/>
<text text-anchor="middle" x="1345" y="-544.8" font-family="Times,serif" font-size="14.00">Data flow</text>
</g>
<!-- d2 -->
<!-- d3 -->
<!-- d2&#45;&gt;d3 -->
<g id="edge30" class="edge">
<title>d2&#45;&gt;d3</title>
<path fill="none" stroke="black" stroke-dasharray="1,5" d="M1176.31,-538C1186.96,-538 1241.96,-538 1266.58,-538"/>
<polygon fill="black" stroke="black" points="1266.65,-541.5 1276.65,-538 1266.65,-534.5 1266.65,-541.5"/>
<text text-anchor="middle" x="1226.5" y="-544.8" font-family="Times,serif" font-size="14.00">Declaration</text>
</g>
<!-- d4 -->
<!-- d5 -->
<!-- d4&#45;&gt;d5 -->
<g id="edge31" class="edge">
<title>d4&#45;&gt;d5</title>
<path fill="none" stroke="blue" d="M1033.6,-538C1046.22,-538 1112.38,-538 1140.18,-538"/>
<polygon fill="blue" stroke="blue" points="1140.34,-541.5 1150.34,-538 1140.34,-534.5 1140.34,-541.5"/>
<text text-anchor="middle" x="1092" y="-544.8" font-family="Times,serif" font-size="14.00">PHI Data flow</text>
</g>
<!-- d6 -->
<!-- d7 -->
<!-- d6&#45;&gt;d7 -->
<g id="edge32" class="edge">
<title>d6&#45;&gt;d7</title>
<path fill="none" stroke="green" d="M896.5,-538C908.44,-538 970.8,-538 997.43,-538"/>
<polygon fill="green" stroke="green" points="997.45,-541.5 1007.45,-538 997.45,-534.5 997.45,-541.5"/>
<text text-anchor="middle" x="952" y="-544.8" font-family="Times,serif" font-size="14.00">Memory flow</text>
</g>
</g>
</svg>
