<?xml version="1.0" encoding="UTF-8" standalone="no"?>
<!DOCTYPE svg PUBLIC "-//W3C//DTD SVG 1.1//EN"
 "http://www.w3.org/Graphics/SVG/1.1/DTD/svg11.dtd">
<!-- Generated by graphviz version 2.43.0 (0)
 -->
<!-- Title: %3 Pages: 1 -->
<svg width="1312pt" height="660pt"
 viewBox="0.00 0.00 1312.36 659.80" xmlns="http://www.w3.org/2000/svg" xmlns:xlink="http://www.w3.org/1999/xlink">
<g id="graph0" class="graph" transform="scale(1 1) rotate(0) translate(4 655.8)">
<title>%3</title>
<polygon fill="white" stroke="transparent" points="-4,4 -4,-655.8 1308.36,-655.8 1308.36,4 -4,4"/>
<g id="clust1" class="cluster">
<title>cluster_0</title>
<polygon fill="none" stroke="lightgray" points="142.36,-138 142.36,-263 370.36,-263 370.36,-138 142.36,-138"/>
</g>
<g id="clust2" class="cluster">
<title>cluster_1</title>
<polygon fill="none" stroke="lightgray" points="8.36,-357 8.36,-482 254.36,-482 254.36,-357 8.36,-357"/>
</g>
<g id="clust3" class="cluster">
<title>cluster_2</title>
<polygon fill="none" stroke="lightgray" points="304.36,-430 304.36,-555 574.36,-555 574.36,-430 304.36,-430"/>
</g>
<g id="clust4" class="cluster">
<title>cluster_000</title>
<polygon fill="none" stroke="black" points="443.36,-601.2 443.36,-643.8 1296.36,-643.8 1296.36,-601.2 443.36,-601.2"/>
<text text-anchor="middle" x="869.86" y="-628.6" font-family="Times,serif" font-size="14.00">Legend</text>
</g>
<!-- node0 -->
<g id="node1" class="node">
<title>node0</title>
<polygon fill="lightgrey" stroke="transparent" points="433.86,-638 310.86,-638 310.86,-584 433.86,-584 433.86,-638"/>
<polygon fill="none" stroke="black" points="311.36,-611 311.36,-638 434.36,-638 434.36,-611 311.36,-611"/>
<text text-anchor="start" x="332.36" y="-620.8" font-family="Times,serif" font-size="14.00">#0 Method</text>
<polygon fill="yellow" stroke="transparent" points="311.36,-584 311.36,-611 434.36,-611 434.36,-584 311.36,-584"/>
<polygon fill="none" stroke="black" points="311.36,-584 311.36,-611 434.36,-611 434.36,-584 311.36,-584"/>
<text text-anchor="start" x="317.36" y="-593.8" font-family="Times,serif" font-size="14.00">this : ArrayTest</text>
</g>
<!-- node2 -->
<g id="node2" class="node">
<title>node2</title>
<polygon fill="lightgrey" stroke="black" points="431.86,-547 312.86,-547 312.86,-511 431.86,-511 431.86,-547"/>
<text text-anchor="middle" x="372.36" y="-525.3" font-family="Times,serif" font-size="14.00">#2 LabelNode</text>
</g>
<!-- node0&#45;&gt;node2 -->
<g id="edge1" class="edge">
<title>node0&#45;&gt;node2</title>
<path fill="none" stroke="red" d="M372.36,-583.81C372.36,-575.35 372.36,-565.95 372.36,-557.4"/>
<polygon fill="red" stroke="red" points="375.86,-557.17 372.36,-547.17 368.86,-557.17 375.86,-557.17"/>
</g>
<!-- node6 -->
<g id="node6" class="node">
<title>node6</title>
<polygon fill="orange" stroke="black" points="671.19,-302.54 671.19,-317.46 575.22,-328 439.5,-328 343.53,-317.46 343.53,-302.54 439.5,-292 575.22,-292 671.19,-302.54"/>
<text text-anchor="middle" x="507.36" y="-306.3" font-family="Times,serif" font-size="14.00">#6 NewMultiArray : Object[][]</text>
</g>
<!-- node0&#45;&gt;node6 -->
<g id="edge8" class="edge">
<title>node0&#45;&gt;node6</title>
<path fill="none" stroke="green" d="M433.93,-585.67C435.75,-585.09 437.57,-584.53 439.36,-584 499.87,-566.08 538.55,-603.97 578.36,-555 632.05,-488.96 564.5,-383.89 527.95,-336.12"/>
<polygon fill="green" stroke="green" points="530.65,-333.88 521.74,-328.15 525.13,-338.19 530.65,-333.88"/>
</g>
<!-- node3 -->
<g id="node3" class="node">
<title>node3</title>
<polygon fill="lightgrey" stroke="black" points="245.86,-474 126.86,-474 126.86,-438 245.86,-438 245.86,-474"/>
<text text-anchor="middle" x="186.36" y="-452.3" font-family="Times,serif" font-size="14.00">#3 LabelNode</text>
</g>
<!-- node2&#45;&gt;node3 -->
<g id="edge2" class="edge">
<title>node2&#45;&gt;node3</title>
<path fill="none" stroke="red" d="M327.81,-510.99C301.66,-501.01 268.42,-488.32 240.73,-477.76"/>
<polygon fill="red" stroke="red" points="241.79,-474.41 231.19,-474.11 239.29,-480.95 241.79,-474.41"/>
</g>
<!-- node5 -->
<g id="node7" class="node">
<title>node5</title>
<polygon fill="lightgreen" stroke="black" points="566.55,-448.54 566.55,-463.46 531.88,-474 482.85,-474 448.17,-463.46 448.17,-448.54 482.85,-438 531.88,-438 566.55,-448.54"/>
<text text-anchor="middle" x="507.36" y="-452.3" font-family="Times,serif" font-size="14.00">#5 int 20</text>
</g>
<!-- node2&#45;&gt;node5 -->
<g id="edge10" class="edge">
<title>node2&#45;&gt;node5</title>
<path fill="none" stroke="black" stroke-dasharray="1,5" d="M404.7,-510.99C423.91,-500.89 448.39,-488.01 468.63,-477.37"/>
<polygon fill="black" stroke="black" points="470.38,-480.41 477.6,-472.65 467.12,-474.21 470.38,-480.41"/>
</g>
<!-- node4 -->
<g id="node8" class="node">
<title>node4</title>
<polygon fill="lightgreen" stroke="black" points="430.55,-448.54 430.55,-463.46 395.88,-474 346.85,-474 312.17,-463.46 312.17,-448.54 346.85,-438 395.88,-438 430.55,-448.54"/>
<text text-anchor="middle" x="371.36" y="-452.3" font-family="Times,serif" font-size="14.00">#4 int 10</text>
</g>
<!-- node2&#45;&gt;node4 -->
<g id="edge9" class="edge">
<title>node2&#45;&gt;node4</title>
<path fill="none" stroke="black" stroke-dasharray="1,5" d="M372.12,-510.81C372.01,-502.79 371.87,-493.05 371.74,-484.07"/>
<polygon fill="black" stroke="black" points="375.24,-483.98 371.6,-474.03 368.24,-484.08 375.24,-483.98"/>
</g>
<!-- node8 -->
<g id="node4" class="node">
<title>node8</title>
<polygon fill="lightgreen" stroke="black" points="245.89,-375.54 245.89,-390.46 215.12,-401 171.61,-401 140.84,-390.46 140.84,-375.54 171.61,-365 215.12,-365 245.89,-375.54"/>
<text text-anchor="middle" x="193.36" y="-379.3" font-family="Times,serif" font-size="14.00">#8 int 5</text>
</g>
<!-- node3&#45;&gt;node8 -->
<g id="edge3" class="edge">
<title>node3&#45;&gt;node8</title>
<path fill="none" stroke="black" stroke-dasharray="1,5" d="M188.06,-437.81C188.85,-429.79 189.81,-420.05 190.69,-411.07"/>
<polygon fill="black" stroke="black" points="194.18,-411.32 191.68,-401.03 187.22,-410.64 194.18,-411.32"/>
</g>
<!-- node11 -->
<g id="node10" class="node">
<title>node11</title>
<polygon fill="lightgrey" stroke="black" points="361.86,-255 150.86,-255 150.86,-219 361.86,-219 361.86,-255"/>
<text text-anchor="middle" x="256.36" y="-233.3" font-family="Times,serif" font-size="14.00">#11 ArrayStore : Object[][]</text>
</g>
<!-- node3&#45;&gt;node11 -->
<g id="edge16" class="edge">
<title>node3&#45;&gt;node11</title>
<path fill="none" stroke="red" d="M213.02,-437.92C226.77,-428.22 243.18,-415.2 255.36,-401 279.6,-372.76 286.94,-364 296.36,-328 300.41,-312.52 301.38,-307.19 296.36,-292 292.96,-281.7 286.75,-271.75 280.22,-263.27"/>
<polygon fill="red" stroke="red" points="282.74,-260.81 273.68,-255.31 277.33,-265.26 282.74,-260.81"/>
</g>
<!-- node7 -->
<g id="node11" class="node">
<title>node7</title>
<polygon fill="lightgreen" stroke="black" points="121.89,-375.54 121.89,-390.46 91.12,-401 47.61,-401 16.84,-390.46 16.84,-375.54 47.61,-365 91.12,-365 121.89,-375.54"/>
<text text-anchor="middle" x="69.36" y="-379.3" font-family="Times,serif" font-size="14.00">#7 int 0</text>
</g>
<!-- node3&#45;&gt;node7 -->
<g id="edge17" class="edge">
<title>node3&#45;&gt;node7</title>
<path fill="none" stroke="black" stroke-dasharray="1,5" d="M158.34,-437.99C141.99,-428.07 121.23,-415.48 103.88,-404.95"/>
<polygon fill="black" stroke="black" points="105.52,-401.85 95.16,-399.65 101.89,-407.83 105.52,-401.85"/>
</g>
<!-- node10 -->
<g id="node5" class="node">
<title>node10</title>
<polygon fill="orange" stroke="black" points="287.82,-302.54 287.82,-317.46 207.88,-328 94.84,-328 14.91,-317.46 14.91,-302.54 94.84,-292 207.88,-292 287.82,-302.54"/>
<text text-anchor="middle" x="151.36" y="-306.3" font-family="Times,serif" font-size="14.00">#10 NewArray : Object[]</text>
</g>
<!-- node8&#45;&gt;node10 -->
<g id="edge4" class="edge">
<title>node8&#45;&gt;node10</title>
<path fill="none" stroke="black" d="M183.19,-364.81C178.24,-356.44 172.18,-346.2 166.68,-336.9"/>
<polygon fill="black" stroke="black" points="169.54,-334.85 161.44,-328.03 163.51,-338.42 169.54,-334.85"/>
<text text-anchor="middle" x="177.94" y="-335.63" font-family="Times,serif" font-size="14.00">*0</text>
</g>
<!-- node10&#45;&gt;node11 -->
<g id="edge14" class="edge">
<title>node10&#45;&gt;node11</title>
<path fill="none" stroke="black" d="M170.9,-291.81C183.84,-282.39 201.13,-270.61 216.81,-260.47"/>
<polygon fill="black" stroke="black" points="218.78,-263.36 225.32,-255.03 215.01,-257.46 218.78,-263.36"/>
<text text-anchor="middle" x="214.6" y="-268.21" font-family="Times,serif" font-size="14.00">*2</text>
</g>
<!-- node10&#45;&gt;node11 -->
<g id="edge15" class="edge">
<title>node10&#45;&gt;node11</title>
<path fill="none" stroke="green" d="M182.37,-291.99C197.02,-282.75 214.28,-271.19 228.51,-261.14"/>
<polygon fill="green" stroke="green" points="230.83,-263.78 236.92,-255.11 226.76,-258.09 230.83,-263.78"/>
</g>
<!-- node6&#45;&gt;node10 -->
<g id="edge5" class="edge">
<title>node6&#45;&gt;node10</title>
<path fill="none" stroke="green" d="M343.26,-310C328.29,-310 313.32,-310 298.35,-310"/>
<polygon fill="green" stroke="green" points="297.99,-306.5 287.99,-310 297.99,-313.5 297.99,-306.5"/>
</g>
<!-- node9 -->
<g id="node9" class="node">
<title>node9</title>
<polygon fill="orange" stroke="black" points="565.08,-229.54 565.08,-244.46 510.77,-255 433.95,-255 379.64,-244.46 379.64,-229.54 433.95,-219 510.77,-219 565.08,-229.54"/>
<text text-anchor="middle" x="472.36" y="-233.3" font-family="Times,serif" font-size="14.00">#9 ArrayLength</text>
</g>
<!-- node6&#45;&gt;node9 -->
<g id="edge11" class="edge">
<title>node6&#45;&gt;node9</title>
<path fill="none" stroke="black" d="M498.89,-291.81C494.81,-283.53 489.82,-273.41 485.27,-264.19"/>
<polygon fill="black" stroke="black" points="488.32,-262.45 480.76,-255.03 482.04,-265.55 488.32,-262.45"/>
<text text-anchor="middle" x="496.35" y="-263.85" font-family="Times,serif" font-size="14.00">*0</text>
</g>
<!-- node6&#45;&gt;node11 -->
<g id="edge12" class="edge">
<title>node6&#45;&gt;node11</title>
<path fill="none" stroke="black" d="M447.24,-291.99C411.03,-281.75 364.74,-268.66 326.82,-257.93"/>
<polygon fill="black" stroke="black" points="327.44,-254.47 316.86,-255.11 325.53,-261.2 327.44,-254.47"/>
<text text-anchor="middle" x="336.6" y="-248.21" font-family="Times,serif" font-size="14.00">*0</text>
</g>
<!-- node14 -->
<g id="node15" class="node">
<title>node14</title>
<polygon fill="lightgrey" stroke="black" points="621.36,-109 425.36,-109 425.36,-73 621.36,-73 621.36,-109"/>
<text text-anchor="middle" x="523.36" y="-87.3" font-family="Times,serif" font-size="14.00">#14 ArrayLoad : Object[]</text>
</g>
<!-- node6&#45;&gt;node14 -->
<g id="edge22" class="edge">
<title>node6&#45;&gt;node14</title>
<path fill="none" stroke="black" d="M545.42,-291.82C556.82,-284.65 567.99,-275.11 574.36,-263 599.73,-214.81 566.21,-152.17 542.72,-117.65"/>
<polygon fill="black" stroke="black" points="545.32,-115.27 536.71,-109.1 539.59,-119.29 545.32,-115.27"/>
<text text-anchor="middle" x="554.04" y="-115.37" font-family="Times,serif" font-size="14.00">*0</text>
</g>
<!-- node5&#45;&gt;node6 -->
<g id="edge6" class="edge">
<title>node5&#45;&gt;node6</title>
<path fill="none" stroke="black" d="M507.36,-437.92C507.36,-413.34 507.36,-367.75 507.36,-338.43"/>
<polygon fill="black" stroke="black" points="510.86,-338.06 507.36,-328.06 503.86,-338.06 510.86,-338.06"/>
<text text-anchor="middle" x="515.81" y="-342.49" font-family="Times,serif" font-size="14.00">*0</text>
</g>
<!-- node4&#45;&gt;node6 -->
<g id="edge7" class="edge">
<title>node4&#45;&gt;node6</title>
<path fill="none" stroke="black" d="M387.5,-437.92C411.52,-412.48 456.82,-364.51 484.33,-335.39"/>
<polygon fill="black" stroke="black" points="486.93,-337.74 491.25,-328.06 481.84,-332.93 486.93,-337.74"/>
<text text-anchor="middle" x="484.95" y="-343.34" font-family="Times,serif" font-size="14.00">*1</text>
</g>
<!-- node12 -->
<g id="node12" class="node">
<title>node12</title>
<polygon fill="lightgrey" stroke="black" points="134.36,-182 6.36,-182 6.36,-146 134.36,-146 134.36,-182"/>
<text text-anchor="middle" x="70.36" y="-160.3" font-family="Times,serif" font-size="14.00">#12 LabelNode</text>
</g>
<!-- node11&#45;&gt;node12 -->
<g id="edge18" class="edge">
<title>node11&#45;&gt;node12</title>
<path fill="none" stroke="red" d="M211.81,-218.99C185.66,-209.01 152.42,-196.32 124.73,-185.76"/>
<polygon fill="red" stroke="red" points="125.79,-182.41 115.19,-182.11 123.29,-188.95 125.79,-182.41"/>
</g>
<!-- node11&#45;&gt;node14 -->
<g id="edge24" class="edge">
<title>node11&#45;&gt;node14</title>
<path fill="none" stroke="green" d="M289.38,-218.89C309.63,-208.35 336.05,-194.5 359.36,-182 402,-159.12 450.56,-132.39 483.7,-114.04"/>
<polygon fill="green" stroke="green" points="485.58,-117 492.63,-109.09 482.18,-110.88 485.58,-117"/>
</g>
<!-- node13 -->
<g id="node16" class="node">
<title>node13</title>
<polygon fill="lightgreen" stroke="black" points="350.55,-156.54 350.55,-171.46 315.88,-182 266.85,-182 232.17,-171.46 232.17,-156.54 266.85,-146 315.88,-146 350.55,-156.54"/>
<text text-anchor="middle" x="291.36" y="-160.3" font-family="Times,serif" font-size="14.00">#13 int 1</text>
</g>
<!-- node11&#45;&gt;node13 -->
<g id="edge25" class="edge">
<title>node11&#45;&gt;node13</title>
<path fill="none" stroke="black" stroke-dasharray="1,5" d="M264.83,-218.81C268.92,-210.53 273.91,-200.41 278.45,-191.19"/>
<polygon fill="black" stroke="black" points="281.68,-192.55 282.97,-182.03 275.41,-189.45 281.68,-192.55"/>
</g>
<!-- node7&#45;&gt;node11 -->
<g id="edge13" class="edge">
<title>node7&#45;&gt;node11</title>
<path fill="none" stroke="black" d="M44.56,-365.92C19.26,-347.53 -13.64,-316.79 6.36,-292 23.79,-270.4 83.8,-257.02 140.65,-248.98"/>
<polygon fill="black" stroke="black" points="141.41,-252.41 150.85,-247.59 140.47,-245.48 141.41,-252.41"/>
<text text-anchor="middle" x="134.03" y="-254.72" font-family="Times,serif" font-size="14.00">*1</text>
</g>
<!-- node15 -->
<g id="node13" class="node">
<title>node15</title>
<polygon fill="lightgrey" stroke="black" points="134.36,-109 6.36,-109 6.36,-73 134.36,-73 134.36,-109"/>
<text text-anchor="middle" x="70.36" y="-87.3" font-family="Times,serif" font-size="14.00">#15 LabelNode</text>
</g>
<!-- node12&#45;&gt;node15 -->
<g id="edge19" class="edge">
<title>node12&#45;&gt;node15</title>
<path fill="none" stroke="red" d="M70.36,-145.81C70.36,-137.79 70.36,-128.05 70.36,-119.07"/>
<polygon fill="red" stroke="red" points="73.86,-119.03 70.36,-109.03 66.86,-119.03 73.86,-119.03"/>
</g>
<!-- node16 -->
<g id="node14" class="node">
<title>node16</title>
<polygon fill="lightgrey" stroke="black" points="120.86,-36 19.86,-36 19.86,0 120.86,0 120.86,-36"/>
<text text-anchor="middle" x="70.36" y="-14.3" font-family="Times,serif" font-size="14.00">#16 Return</text>
</g>
<!-- node15&#45;&gt;node16 -->
<g id="edge20" class="edge">
<title>node15&#45;&gt;node16</title>
<path fill="none" stroke="red" d="M70.36,-72.81C70.36,-64.79 70.36,-55.05 70.36,-46.07"/>
<polygon fill="red" stroke="red" points="73.86,-46.03 70.36,-36.03 66.86,-46.03 73.86,-46.03"/>
</g>
<!-- node14&#45;&gt;node16 -->
<g id="edge21" class="edge">
<title>node14&#45;&gt;node16</title>
<path fill="none" stroke="green" d="M425.35,-74.64C335.9,-60.62 206.5,-40.34 131.15,-28.53"/>
<polygon fill="green" stroke="green" points="131.3,-25.01 120.88,-26.92 130.22,-31.92 131.3,-25.01"/>
</g>
<!-- node13&#45;&gt;node14 -->
<g id="edge23" class="edge">
<title>node13&#45;&gt;node14</title>
<path fill="none" stroke="black" d="M331.51,-150.71C366.33,-140.06 417.38,-124.43 458.07,-111.98"/>
<polygon fill="black" stroke="black" points="459.11,-115.32 467.65,-109.05 457.06,-108.63 459.11,-115.32"/>
<text text-anchor="middle" x="452.79" y="-118.74" font-family="Times,serif" font-size="14.00">*1</text>
</g>
<!-- c0 -->
<!-- c1 -->
<!-- c0&#45;&gt;c1 -->
<g id="edge26" class="edge">
<title>c0&#45;&gt;c1</title>
<path fill="none" stroke="red" d="M1179.25,-611C1190.47,-611 1248.6,-611 1274.22,-611"/>
<polygon fill="red" stroke="red" points="1274.42,-614.5 1284.42,-611 1274.42,-607.5 1274.42,-614.5"/>
<text text-anchor="middle" x="1231.86" y="-617.8" font-family="Times,serif" font-size="14.00">Control flow</text>
</g>
<!-- c2 -->
<!-- c3 -->
<!-- c2&#45;&gt;c3 -->
<g id="edge27" class="edge">
<title>c2&#45;&gt;c3</title>
<path fill="none" stroke="red" stroke-dasharray="5,2" d="M972.44,-611C989.41,-611 1105.57,-611 1143.45,-611"/>
<polygon fill="red" stroke="red" points="1143.53,-614.5 1153.53,-611 1143.53,-607.5 1143.53,-614.5"/>
<text text-anchor="middle" x="1062.86" y="-617.8" font-family="Times,serif" font-size="14.00">Control flow back edge</text>
</g>
<!-- d0 -->
<!-- d1 -->
<!-- d0&#45;&gt;d1 -->
<g id="edge28" class="edge">
<title>d0&#45;&gt;d1</title>
<path fill="none" stroke="black" d="M861.22,-611C870.77,-611 914.67,-611 936.28,-611"/>
<polygon fill="black" stroke="black" points="936.51,-614.5 946.51,-611 936.51,-607.5 936.51,-614.5"/>
<text text-anchor="middle" x="903.86" y="-617.8" font-family="Times,serif" font-size="14.00">Data flow</text>
</g>
<!-- d2 -->
<!-- d3 -->
<!-- d2&#45;&gt;d3 -->
<g id="edge29" class="edge">
<title>d2&#45;&gt;d3</title>
<path fill="none" stroke="black" stroke-dasharray="1,5" d="M735.17,-611C745.82,-611 800.83,-611 825.44,-611"/>
<polygon fill="black" stroke="black" points="825.51,-614.5 835.51,-611 825.51,-607.5 825.51,-614.5"/>
<text text-anchor="middle" x="785.36" y="-617.8" font-family="Times,serif" font-size="14.00">Declaration</text>
</g>
<!-- d4 -->
<!-- d5 -->
<!-- d4&#45;&gt;d5 -->
<g id="edge30" class="edge">
<title>d4&#45;&gt;d5</title>
<path fill="none" stroke="blue" d="M592.46,-611C605.08,-611 671.24,-611 699.04,-611"/>
<polygon fill="blue" stroke="blue" points="699.2,-614.5 709.2,-611 699.2,-607.5 699.2,-614.5"/>
<text text-anchor="middle" x="650.86" y="-617.8" font-family="Times,serif" font-size="14.00">PHI Data flow</text>
</g>
<!-- d6 -->
<!-- d7 -->
<!-- d6&#45;&gt;d7 -->
<g id="edge31" class="edge">
<title>d6&#45;&gt;d7</title>
<path fill="none" stroke="green" d="M455.36,-611C467.3,-611 529.66,-611 556.29,-611"/>
<polygon fill="green" stroke="green" points="556.31,-614.5 566.31,-611 556.31,-607.5 556.31,-614.5"/>
<text text-anchor="middle" x="510.86" y="-617.8" font-family="Times,serif" font-size="14.00">Memory flow</text>
</g>
</g>
</svg>
