<?xml version="1.0" encoding="UTF-8" standalone="no"?>
<!DOCTYPE svg PUBLIC "-//W3C//DTD SVG 1.1//EN"
 "http://www.w3.org/Graphics/SVG/1.1/DTD/svg11.dtd">
<!-- Generated by graphviz version 2.43.0 (0)
 -->
<!-- Title: debugoutput Pages: 1 -->
<svg width="1494pt" height="651pt"
 viewBox="0.00 0.00 1494.02 650.80" xmlns="http://www.w3.org/2000/svg" xmlns:xlink="http://www.w3.org/1999/xlink">
<g id="graph0" class="graph" transform="scale(1 1) rotate(0) translate(4 646.8)">
<title>debugoutput</title>
<polygon fill="white" stroke="transparent" points="-4,4 -4,-646.8 1490.02,-646.8 1490.02,4 -4,4"/>
<g id="clust1" class="cluster">
<title>cluster_000</title>
<polygon fill="none" stroke="black" points="447,-592.2 447,-634.8 1423,-634.8 1423,-592.2 447,-592.2"/>
<text text-anchor="middle" x="935" y="-619.6" font-family="Times,serif" font-size="14.00">Legend</text>
</g>
<!-- node0 -->
<g id="node1" class="node">
<title>node0</title>
<polygon fill="lightgrey" stroke="black" points="437,-620 271,-620 271,-584 437,-584 437,-620"/>
<text text-anchor="middle" x="354" y="-598.3" font-family="Times,serif" font-size="14.00">#0 Method Order : 0</text>
</g>
<!-- node1 -->
<g id="node2" class="node">
<title>node1</title>
<polygon fill="lightgrey" stroke="black" points="230,-547 0,-547 0,-511 230,-511 230,-547"/>
<text text-anchor="middle" x="115" y="-525.3" font-family="Times,serif" font-size="14.00">#1 this : ArrayTest Order : 16</text>
</g>
<!-- node0&#45;&gt;node1 -->
<g id="edge2" class="edge">
<title>node0&#45;&gt;node1</title>
<path fill="none" stroke="black" d="M290.89,-583.99C255.48,-573.79 211.53,-560.77 176.4,-550.07"/>
<polygon fill="black" stroke="black" points="177.32,-546.69 166.74,-547.11 175.28,-553.38 177.32,-546.69"/>
<text text-anchor="middle" x="186.54" y="-540.63" font-family="Times,serif" font-size="14.00">*0</text>
</g>
<!-- node2 -->
<g id="node3" class="node">
<title>node2</title>
<polygon fill="lightgrey" stroke="black" points="700,-547 512,-547 512,-511 700,-511 700,-547"/>
<text text-anchor="middle" x="606" y="-525.3" font-family="Times,serif" font-size="14.00">#2 LabelNode Order : 1</text>
</g>
<!-- node0&#45;&gt;node2 -->
<g id="edge4" class="edge">
<title>node0&#45;&gt;node2</title>
<path fill="none" stroke="red" d="M408.5,-583.99C443.92,-573.71 490.55,-560.55 529.63,-549.79"/>
<polygon fill="red" stroke="red" points="530.67,-553.14 539.39,-547.11 528.82,-546.38 530.67,-553.14"/>
</g>
<!-- node6 -->
<g id="node7" class="node">
<title>node6</title>
<polygon fill="orange" stroke="black" points="748.41,-375.54 748.41,-390.46 623.98,-401 448.02,-401 323.59,-390.46 323.59,-375.54 448.02,-365 623.98,-365 748.41,-375.54"/>
<text text-anchor="middle" x="536" y="-379.3" font-family="Times,serif" font-size="14.00">#6 NewMultiArray : Object[][] Order : 4</text>
</g>
<!-- node0&#45;&gt;node6 -->
<g id="edge14" class="edge">
<title>node0&#45;&gt;node6</title>
<path fill="none" stroke="green" d="M346.61,-583.93C339.48,-551.47 337.22,-480.32 373,-438 386.2,-422.38 404.21,-411.28 423.45,-403.38"/>
<polygon fill="green" stroke="green" points="424.88,-406.59 432.99,-399.76 422.4,-400.04 424.88,-406.59"/>
</g>
<!-- node1&#45;&gt;node0 -->
<g id="edge1" class="edge">
<title>node1&#45;&gt;node0</title>
<path fill="none" stroke="fuchsia" stroke-width="2" d="M178.48,-547.11C213.95,-557.33 257.9,-570.36 292.97,-581.05"/>
<polygon fill="fuchsia" stroke="fuchsia" stroke-width="2" points="292.03,-584.42 302.61,-583.99 294.07,-577.72 292.03,-584.42"/>
</g>
<!-- node2&#45;&gt;node0 -->
<g id="edge3" class="edge">
<title>node2&#45;&gt;node0</title>
<path fill="none" stroke="fuchsia" stroke-width="2" d="M551.13,-547.11C515.63,-557.42 468.99,-570.58 429.97,-581.32"/>
<polygon fill="fuchsia" stroke="fuchsia" stroke-width="2" points="428.94,-577.97 420.22,-583.99 430.79,-584.72 428.94,-577.97"/>
</g>
<!-- node3 -->
<g id="node4" class="node">
<title>node3</title>
<polygon fill="lightgrey" stroke="black" points="1046,-474 858,-474 858,-438 1046,-438 1046,-474"/>
<text text-anchor="middle" x="952" y="-452.3" font-family="Times,serif" font-size="14.00">#3 LabelNode Order : 6</text>
</g>
<!-- node2&#45;&gt;node3 -->
<g id="edge6" class="edge">
<title>node2&#45;&gt;node3</title>
<path fill="none" stroke="red" d="M683.02,-510.99C733.19,-500.47 799.07,-486.94 853.09,-476.05"/>
<polygon fill="red" stroke="red" points="853.92,-479.46 863.04,-474.05 852.54,-472.59 853.92,-479.46"/>
</g>
<!-- node4 -->
<g id="node5" class="node">
<title>node4</title>
<polygon fill="lightgreen" stroke="black" points="606.77,-448.54 606.77,-463.46 543.64,-474 454.36,-474 391.23,-463.46 391.23,-448.54 454.36,-438 543.64,-438 606.77,-448.54"/>
<text text-anchor="middle" x="499" y="-452.3" font-family="Times,serif" font-size="14.00">#4 int 10 Order : 3</text>
</g>
<!-- node2&#45;&gt;node4 -->
<g id="edge8" class="edge">
<title>node2&#45;&gt;node4</title>
<path fill="none" stroke="black" stroke-dasharray="1,5" d="M574.51,-510.99C559.6,-501.75 542.01,-490.19 527.5,-480.14"/>
<polygon fill="black" stroke="black" points="529.12,-477 518.92,-474.11 525.09,-482.73 529.12,-477"/>
</g>
<!-- node5 -->
<g id="node6" class="node">
<title>node5</title>
<polygon fill="lightgreen" stroke="black" points="839.77,-448.54 839.77,-463.46 776.64,-474 687.36,-474 624.23,-463.46 624.23,-448.54 687.36,-438 776.64,-438 839.77,-448.54"/>
<text text-anchor="middle" x="732" y="-452.3" font-family="Times,serif" font-size="14.00">#5 int 20 Order : 2</text>
</g>
<!-- node2&#45;&gt;node5 -->
<g id="edge10" class="edge">
<title>node2&#45;&gt;node5</title>
<path fill="none" stroke="black" stroke-dasharray="1,5" d="M630.32,-510.99C646.39,-501.36 667.82,-489.21 686.9,-478.87"/>
<polygon fill="black" stroke="black" points="688.6,-481.93 695.76,-474.11 685.29,-475.76 688.6,-481.93"/>
</g>
<!-- node3&#45;&gt;node2 -->
<g id="edge5" class="edge">
<title>node3&#45;&gt;node2</title>
<path fill="none" stroke="fuchsia" stroke-width="2" d="M874.77,-474.05C824.55,-484.58 758.66,-498.12 704.67,-509"/>
<polygon fill="fuchsia" stroke="fuchsia" stroke-width="2" points="703.85,-505.59 694.73,-510.99 705.23,-512.45 703.85,-505.59"/>
</g>
<!-- node7 -->
<g id="node8" class="node">
<title>node7</title>
<polygon fill="lightgreen" stroke="black" points="1227.11,-375.54 1227.11,-390.46 1167.88,-401 1084.12,-401 1024.89,-390.46 1024.89,-375.54 1084.12,-365 1167.88,-365 1227.11,-375.54"/>
<text text-anchor="middle" x="1126" y="-379.3" font-family="Times,serif" font-size="14.00">#7 int 5 Order : 8</text>
</g>
<!-- node3&#45;&gt;node7 -->
<g id="edge16" class="edge">
<title>node3&#45;&gt;node7</title>
<path fill="none" stroke="black" stroke-dasharray="1,5" d="M987.82,-437.99C1011.74,-427.79 1043.57,-414.76 1070.69,-404.06"/>
<polygon fill="black" stroke="black" points="1072.04,-407.29 1080.07,-400.38 1069.48,-400.77 1072.04,-407.29"/>
</g>
<!-- node8 -->
<g id="node9" class="node">
<title>node8</title>
<polygon fill="lightgreen" stroke="black" points="969.11,-375.54 969.11,-390.46 909.88,-401 826.12,-401 766.89,-390.46 766.89,-375.54 826.12,-365 909.88,-365 969.11,-375.54"/>
<text text-anchor="middle" x="868" y="-379.3" font-family="Times,serif" font-size="14.00">#8 int 0 Order : 7</text>
</g>
<!-- node3&#45;&gt;node8 -->
<g id="edge18" class="edge">
<title>node3&#45;&gt;node8</title>
<path fill="none" stroke="black" stroke-dasharray="1,5" d="M925.79,-437.81C914.22,-428.83 900.86,-417.69 889.84,-407.89"/>
<polygon fill="black" stroke="black" points="892.04,-405.16 882.29,-401.03 887.34,-410.34 892.04,-405.16"/>
</g>
<!-- node11 -->
<g id="node12" class="node">
<title>node11</title>
<polygon fill="lightgrey" stroke="black" points="1012.5,-255 723.5,-255 723.5,-219 1012.5,-219 1012.5,-255"/>
<text text-anchor="middle" x="868" y="-233.3" font-family="Times,serif" font-size="14.00">#11 ArrayStore : Object[][] Order : 10</text>
</g>
<!-- node3&#45;&gt;node11 -->
<g id="edge29" class="edge">
<title>node3&#45;&gt;node11</title>
<path fill="none" stroke="red" d="M963.47,-437.83C974.19,-419.53 987.26,-389.84 978,-365 962.21,-322.65 925.23,-285.03 898.5,-261.94"/>
<polygon fill="red" stroke="red" points="900.47,-259.02 890.56,-255.25 895.95,-264.37 900.47,-259.02"/>
</g>
<!-- node4&#45;&gt;node2 -->
<g id="edge7" class="edge">
<title>node4&#45;&gt;node2</title>
<path fill="none" stroke="fuchsia" stroke-width="2" d="M530.66,-474.11C545.59,-483.37 563.18,-494.94 577.66,-504.97"/>
<polygon fill="fuchsia" stroke="fuchsia" stroke-width="2" points="576.04,-508.11 586.23,-510.99 580.06,-502.38 576.04,-508.11"/>
</g>
<!-- node4&#45;&gt;node6 -->
<g id="edge13" class="edge">
<title>node4&#45;&gt;node6</title>
<path fill="none" stroke="black" d="M507.96,-437.81C512.32,-429.44 517.66,-419.2 522.5,-409.9"/>
<polygon fill="black" stroke="black" points="525.61,-411.51 527.13,-401.03 519.4,-408.28 525.61,-411.51"/>
<text text-anchor="middle" x="526.24" y="-417.31" font-family="Times,serif" font-size="14.00">*1</text>
</g>
<!-- node5&#45;&gt;node2 -->
<g id="edge9" class="edge">
<title>node5&#45;&gt;node2</title>
<path fill="none" stroke="fuchsia" stroke-width="2" d="M707.5,-474.11C691.39,-483.77 669.95,-495.92 650.89,-506.24"/>
<polygon fill="fuchsia" stroke="fuchsia" stroke-width="2" points="649.19,-503.18 642.04,-510.99 652.51,-509.35 649.19,-503.18"/>
</g>
<!-- node5&#45;&gt;node6 -->
<g id="edge12" class="edge">
<title>node5&#45;&gt;node6</title>
<path fill="none" stroke="black" d="M685.55,-438.17C657.79,-428.12 622.3,-415.26 592.87,-404.6"/>
<polygon fill="black" stroke="black" points="593.73,-401.19 583.14,-401.07 591.35,-407.77 593.73,-401.19"/>
<text text-anchor="middle" x="603.06" y="-395.6" font-family="Times,serif" font-size="14.00">*0</text>
</g>
<!-- node6&#45;&gt;node0 -->
<g id="edge11" class="edge">
<title>node6&#45;&gt;node0</title>
<path fill="none" stroke="fuchsia" stroke-width="2" d="M447.19,-400.93C426.16,-408.93 405.63,-420.69 391,-438 358.58,-476.35 357.39,-538.39 357.02,-573.84"/>
<polygon fill="fuchsia" stroke="fuchsia" stroke-width="2" points="353.52,-573.89 356.9,-583.93 360.52,-573.98 353.52,-573.89"/>
</g>
<!-- node9 -->
<g id="node10" class="node">
<title>node9</title>
<polygon fill="orange" stroke="black" points="708.3,-302.54 708.3,-317.46 625.53,-328 508.47,-328 425.7,-317.46 425.7,-302.54 508.47,-292 625.53,-292 708.3,-302.54"/>
<text text-anchor="middle" x="567" y="-306.3" font-family="Times,serif" font-size="14.00">#9 ArrayLength Order : 5</text>
</g>
<!-- node6&#45;&gt;node9 -->
<g id="edge20" class="edge">
<title>node6&#45;&gt;node9</title>
<path fill="none" stroke="black" d="M537.63,-364.81C540.38,-356.53 544.57,-346.41 549.02,-337.19"/>
<polygon fill="black" stroke="black" points="552.27,-338.53 553.7,-328.03 546.04,-335.34 552.27,-338.53"/>
<text text-anchor="middle" x="552.99" y="-344.32" font-family="Times,serif" font-size="14.00">*0</text>
</g>
<!-- node10 -->
<g id="node11" class="node">
<title>node10</title>
<polygon fill="orange" stroke="black" points="1486.04,-302.54 1486.04,-317.46 1377.64,-328 1224.36,-328 1115.96,-317.46 1115.96,-302.54 1224.36,-292 1377.64,-292 1486.04,-302.54"/>
<text text-anchor="middle" x="1301" y="-306.3" font-family="Times,serif" font-size="14.00">#10 NewArray : Object[] Order : 9</text>
</g>
<!-- node6&#45;&gt;node10 -->
<g id="edge23" class="edge">
<title>node6&#45;&gt;node10</title>
<path fill="none" stroke="green" d="M674.09,-369.18C812.23,-356.36 1023.54,-336.75 1162,-323.9"/>
<polygon fill="green" stroke="green" points="1162.62,-327.36 1172.25,-322.95 1161.97,-320.39 1162.62,-327.36"/>
</g>
<!-- node6&#45;&gt;node11 -->
<g id="edge25" class="edge">
<title>node6&#45;&gt;node11</title>
<path fill="none" stroke="black" d="M607.94,-364.93C641.74,-355.81 682.17,-343.29 717,-328 759.86,-309.18 805.56,-280.61 835.31,-260.73"/>
<polygon fill="black" stroke="black" points="837.31,-263.6 843.64,-255.11 833.39,-257.8 837.31,-263.6"/>
<text text-anchor="middle" x="833.34" y="-268.55" font-family="Times,serif" font-size="14.00">*0</text>
</g>
<!-- node14 -->
<g id="node15" class="node">
<title>node14</title>
<polygon fill="lightgrey" stroke="black" points="560,-109 286,-109 286,-73 560,-73 560,-109"/>
<text text-anchor="middle" x="423" y="-87.3" font-family="Times,serif" font-size="14.00">#14 ArrayLoad : Object[] Order : 14</text>
</g>
<!-- node6&#45;&gt;node14 -->
<g id="edge35" class="edge">
<title>node6&#45;&gt;node14</title>
<path fill="none" stroke="black" d="M445.11,-365.21C419.27,-354.84 398,-338.08 398,-311 398,-311 398,-311 398,-163 398,-147.69 403.23,-131.53 408.91,-118.49"/>
<polygon fill="black" stroke="black" points="412.19,-119.75 413.26,-109.21 405.85,-116.78 412.19,-119.75"/>
<text text-anchor="middle" x="413.23" y="-125.51" font-family="Times,serif" font-size="14.00">*0</text>
</g>
<!-- node7&#45;&gt;node3 -->
<g id="edge15" class="edge">
<title>node7&#45;&gt;node3</title>
<path fill="none" stroke="fuchsia" stroke-width="2" d="M1089.93,-401.11C1066.58,-411.07 1035.75,-423.69 1009.13,-434.22"/>
<polygon fill="fuchsia" stroke="fuchsia" stroke-width="2" points="1007.56,-431.08 999.54,-437.99 1010.12,-437.59 1007.56,-431.08"/>
</g>
<!-- node7&#45;&gt;node10 -->
<g id="edge22" class="edge">
<title>node7&#45;&gt;node10</title>
<path fill="none" stroke="black" d="M1167.92,-364.99C1192.41,-355.06 1223.52,-342.43 1249.5,-331.89"/>
<polygon fill="black" stroke="black" points="1250.87,-335.12 1258.82,-328.11 1248.24,-328.63 1250.87,-335.12"/>
<text text-anchor="middle" x="1245.2" y="-339.06" font-family="Times,serif" font-size="14.00">*0</text>
</g>
<!-- node8&#45;&gt;node3 -->
<g id="edge17" class="edge">
<title>node8&#45;&gt;node3</title>
<path fill="none" stroke="fuchsia" stroke-width="2" d="M894.01,-401.03C905.55,-409.99 918.91,-421.12 929.96,-430.94"/>
<polygon fill="fuchsia" stroke="fuchsia" stroke-width="2" points="927.78,-433.69 937.54,-437.81 932.49,-428.5 927.78,-433.69"/>
</g>
<!-- node8&#45;&gt;node11 -->
<g id="edge26" class="edge">
<title>node8&#45;&gt;node11</title>
<path fill="none" stroke="black" d="M868,-364.92C868,-340.34 868,-294.75 868,-265.43"/>
<polygon fill="black" stroke="black" points="871.5,-265.06 868,-255.06 864.5,-265.06 871.5,-265.06"/>
<text text-anchor="middle" x="876.45" y="-269.49" font-family="Times,serif" font-size="14.00">*1</text>
</g>
<!-- node9&#45;&gt;node6 -->
<g id="edge19" class="edge">
<title>node9&#45;&gt;node6</title>
<path fill="none" stroke="fuchsia" stroke-width="2" d="M565.43,-328.03C562.69,-336.29 558.51,-346.4 554.06,-355.63"/>
<polygon fill="fuchsia" stroke="fuchsia" stroke-width="2" points="550.8,-354.31 549.38,-364.81 557.04,-357.49 550.8,-354.31"/>
</g>
<!-- node10&#45;&gt;node0 -->
<g id="edge21" class="edge">
<title>node10&#45;&gt;node0</title>
<path fill="none" stroke="fuchsia" stroke-width="2" d="M1299.11,-328.19C1297.69,-342.56 1296,-363.59 1296,-382 1296,-530 1296,-530 1296,-530 1296,-550 1286.79,-556.86 1269,-566 1229.89,-586.09 549.52,-579.78 447.32,-584.03"/>
<polygon fill="fuchsia" stroke="fuchsia" stroke-width="2" points="447.08,-580.53 437.32,-584.65 447.51,-587.52 447.08,-580.53"/>
</g>
<!-- node10&#45;&gt;node11 -->
<g id="edge27" class="edge">
<title>node10&#45;&gt;node11</title>
<path fill="none" stroke="black" d="M1209.54,-293.37C1173.2,-286.83 1131.1,-279.29 1093,-273 1058.88,-267.36 1021.89,-261.65 987.94,-256.52"/>
<polygon fill="black" stroke="black" points="988.39,-253.05 977.98,-255.02 987.34,-259.97 988.39,-253.05"/>
<text text-anchor="middle" x="997.16" y="-245.66" font-family="Times,serif" font-size="14.00">*2</text>
</g>
<!-- node10&#45;&gt;node11 -->
<g id="edge28" class="edge">
<title>node10&#45;&gt;node11</title>
<path fill="none" stroke="green" d="M1220.34,-292.29C1186.62,-286.01 1147.03,-278.95 1111,-273 1076.88,-267.36 1039.89,-261.65 1005.3,-256.52"/>
<polygon fill="green" stroke="green" points="1005.53,-253.01 995.13,-255.02 1004.51,-259.94 1005.53,-253.01"/>
</g>
<!-- node11&#45;&gt;node0 -->
<g id="edge24" class="edge">
<title>node11&#45;&gt;node0</title>
<path fill="none" stroke="fuchsia" stroke-width="2" d="M910.37,-255.14C957.86,-274.08 1037.34,-304.94 1107,-328 1163.62,-346.75 1192.6,-324.09 1236,-365 1254.51,-382.45 1255,-393.56 1255,-419 1255,-530 1255,-530 1255,-530 1255,-573.31 550.92,-577.92 447.37,-583.96"/>
<polygon fill="fuchsia" stroke="fuchsia" stroke-width="2" points="447.02,-580.47 437.33,-584.76 447.58,-587.45 447.02,-580.47"/>
</g>
<!-- node12 -->
<g id="node13" class="node">
<title>node12</title>
<polygon fill="lightgrey" stroke="black" points="971,-182 765,-182 765,-146 971,-146 971,-182"/>
<text text-anchor="middle" x="868" y="-160.3" font-family="Times,serif" font-size="14.00">#12 LabelNode Order : 12</text>
</g>
<!-- node11&#45;&gt;node12 -->
<g id="edge31" class="edge">
<title>node11&#45;&gt;node12</title>
<path fill="none" stroke="red" d="M862.12,-218.81C861.28,-210.79 861.05,-201.05 861.42,-192.07"/>
<polygon fill="red" stroke="red" points="864.92,-192.25 862.14,-182.03 857.94,-191.75 864.92,-192.25"/>
</g>
<!-- node13 -->
<g id="node14" class="node">
<title>node13</title>
<polygon fill="lightgreen" stroke="black" points="746.93,-156.54 746.93,-171.46 680.19,-182 585.81,-182 519.07,-171.46 519.07,-156.54 585.81,-146 680.19,-146 746.93,-156.54"/>
<text text-anchor="middle" x="633" y="-160.3" font-family="Times,serif" font-size="14.00">#13 int 1 Order : 11</text>
</g>
<!-- node11&#45;&gt;node13 -->
<g id="edge33" class="edge">
<title>node11&#45;&gt;node13</title>
<path fill="none" stroke="black" stroke-dasharray="1,5" d="M805.85,-218.99C770.78,-208.73 727.22,-195.59 692.57,-184.85"/>
<polygon fill="black" stroke="black" points="693.18,-181.37 682.59,-181.74 691.1,-188.06 693.18,-181.37"/>
</g>
<!-- node11&#45;&gt;node14 -->
<g id="edge37" class="edge">
<title>node11&#45;&gt;node14</title>
<path fill="none" stroke="green" d="M723.34,-223.65C640.9,-214.77 546.87,-201.01 510,-182 480.8,-166.95 455.75,-138.29 440.13,-117.34"/>
<polygon fill="green" stroke="green" points="442.92,-115.23 434.22,-109.18 437.25,-119.33 442.92,-115.23"/>
</g>
<!-- node12&#45;&gt;node11 -->
<g id="edge30" class="edge">
<title>node12&#45;&gt;node11</title>
<path fill="none" stroke="fuchsia" stroke-width="2" d="M873.86,-182.03C874.71,-190.03 874.95,-199.77 874.59,-208.75"/>
<polygon fill="fuchsia" stroke="fuchsia" stroke-width="2" points="871.09,-208.59 873.88,-218.81 878.07,-209.08 871.09,-208.59"/>
</g>
<!-- node15 -->
<g id="node16" class="node">
<title>node15</title>
<polygon fill="lightgrey" stroke="black" points="971,-109 765,-109 765,-73 971,-73 971,-109"/>
<text text-anchor="middle" x="868" y="-87.3" font-family="Times,serif" font-size="14.00">#15 LabelNode Order : 13</text>
</g>
<!-- node12&#45;&gt;node15 -->
<g id="edge39" class="edge">
<title>node12&#45;&gt;node15</title>
<path fill="none" stroke="red" d="M862.12,-145.81C861.28,-137.79 861.05,-128.05 861.42,-119.07"/>
<polygon fill="red" stroke="red" points="864.92,-119.25 862.14,-109.03 857.94,-118.75 864.92,-119.25"/>
</g>
<!-- node13&#45;&gt;node11 -->
<g id="edge32" class="edge">
<title>node13&#45;&gt;node11</title>
<path fill="none" stroke="fuchsia" stroke-width="2" d="M690.11,-180.53C725.72,-190.92 771.43,-204.68 807.63,-215.9"/>
<polygon fill="fuchsia" stroke="fuchsia" stroke-width="2" points="806.98,-219.37 817.57,-218.99 809.06,-212.68 806.98,-219.37"/>
</g>
<!-- node13&#45;&gt;node14 -->
<g id="edge36" class="edge">
<title>node13&#45;&gt;node14</title>
<path fill="none" stroke="black" d="M583.5,-146.26C553.5,-136.12 515.02,-123.11 483.25,-112.37"/>
<polygon fill="black" stroke="black" points="484.22,-109 473.63,-109.12 481.98,-115.64 484.22,-109"/>
<text text-anchor="middle" x="493.51" y="-103.22" font-family="Times,serif" font-size="14.00">*1</text>
</g>
<!-- node14&#45;&gt;node0 -->
<g id="edge34" class="edge">
<title>node14&#45;&gt;node0</title>
<path fill="none" stroke="fuchsia" stroke-width="2" d="M342.93,-109.13C317.57,-119.61 296,-136.35 296,-163 296,-530 296,-530 296,-530 296,-548.49 307.95,-564.83 321,-577.15"/>
<polygon fill="fuchsia" stroke="fuchsia" stroke-width="2" points="318.9,-579.97 328.73,-583.93 323.52,-574.7 318.9,-579.97"/>
</g>
<!-- node16 -->
<g id="node17" class="node">
<title>node16</title>
<polygon fill="lightgrey" stroke="black" points="359.5,-36 180.5,-36 180.5,0 359.5,0 359.5,-36"/>
<text text-anchor="middle" x="270" y="-14.3" font-family="Times,serif" font-size="14.00">#16 Return Order : 15</text>
</g>
<!-- node14&#45;&gt;node16 -->
<g id="edge42" class="edge">
<title>node14&#45;&gt;node16</title>
<path fill="none" stroke="green" d="M386.35,-72.99C365.31,-63.23 338.69,-50.88 316.22,-40.45"/>
<polygon fill="green" stroke="green" points="317.42,-37.15 306.88,-36.11 314.48,-43.5 317.42,-37.15"/>
</g>
<!-- node15&#45;&gt;node12 -->
<g id="edge38" class="edge">
<title>node15&#45;&gt;node12</title>
<path fill="none" stroke="fuchsia" stroke-width="2" d="M873.86,-109.03C874.71,-117.03 874.95,-126.77 874.59,-135.75"/>
<polygon fill="fuchsia" stroke="fuchsia" stroke-width="2" points="871.09,-135.59 873.88,-145.81 878.07,-136.08 871.09,-135.59"/>
</g>
<!-- node15&#45;&gt;node16 -->
<g id="edge41" class="edge">
<title>node15&#45;&gt;node16</title>
<path fill="none" stroke="red" d="M764.86,-77.75C654.05,-64.6 479.16,-43.83 369.7,-30.84"/>
<polygon fill="red" stroke="red" points="369.99,-27.35 359.65,-29.64 369.16,-34.3 369.99,-27.35"/>
</g>
<!-- node16&#45;&gt;node0 -->
<g id="edge40" class="edge">
<title>node16&#45;&gt;node0</title>
<path fill="none" stroke="fuchsia" stroke-width="2" d="M265.46,-36.08C262.07,-50.38 258,-71.37 258,-90 258,-530 258,-530 258,-530 258,-552.02 274.53,-567.99 293.87,-579.14"/>
<polygon fill="fuchsia" stroke="fuchsia" stroke-width="2" points="292.43,-582.34 302.91,-583.93 295.71,-576.16 292.43,-582.34"/>
</g>
<!-- c0 -->
<!-- c1 -->
<!-- c0&#45;&gt;c1 -->
<g id="edge43" class="edge">
<title>c0&#45;&gt;c1</title>
<path fill="none" stroke="red" d="M1305.89,-602C1317.11,-602 1375.24,-602 1400.86,-602"/>
<polygon fill="red" stroke="red" points="1401.06,-605.5 1411.06,-602 1401.06,-598.5 1401.06,-605.5"/>
<text text-anchor="middle" x="1358.5" y="-608.8" font-family="Times,serif" font-size="14.00">Control flow</text>
</g>
<!-- c2 -->
<!-- c3 -->
<!-- c2&#45;&gt;c3 -->
<g id="edge44" class="edge">
<title>c2&#45;&gt;c3</title>
<path fill="none" stroke="red" stroke-dasharray="5,2" d="M1099.08,-602C1116.05,-602 1232.21,-602 1270.08,-602"/>
<polygon fill="red" stroke="red" points="1270.17,-605.5 1280.17,-602 1270.17,-598.5 1270.17,-605.5"/>
<text text-anchor="middle" x="1189.5" y="-608.8" font-family="Times,serif" font-size="14.00">Control flow back edge</text>
</g>
<!-- d0 -->
<!-- d1 -->
<!-- d0&#45;&gt;d1 -->
<g id="edge45" class="edge">
<title>d0&#45;&gt;d1</title>
<path fill="none" stroke="black" d="M987.86,-602C997.41,-602 1041.31,-602 1062.92,-602"/>
<polygon fill="black" stroke="black" points="1063.15,-605.5 1073.15,-602 1063.15,-598.5 1063.15,-605.5"/>
<text text-anchor="middle" x="1030.5" y="-608.8" font-family="Times,serif" font-size="14.00">Data flow</text>
</g>
<!-- d2 -->
<!-- d3 -->
<!-- d2&#45;&gt;d3 -->
<g id="edge46" class="edge">
<title>d2&#45;&gt;d3</title>
<path fill="none" stroke="black" stroke-dasharray="1,5" d="M861.81,-602C872.46,-602 927.46,-602 952.08,-602"/>
<polygon fill="black" stroke="black" points="952.15,-605.5 962.15,-602 952.15,-598.5 952.15,-605.5"/>
<text text-anchor="middle" x="912" y="-608.8" font-family="Times,serif" font-size="14.00">Declaration</text>
</g>
<!-- d4 -->
<!-- d5 -->
<!-- d4&#45;&gt;d5 -->
<g id="edge47" class="edge">
<title>d4&#45;&gt;d5</title>
<path fill="none" stroke="blue" d="M719.1,-602C731.72,-602 797.88,-602 825.68,-602"/>
<polygon fill="blue" stroke="blue" points="825.84,-605.5 835.84,-602 825.84,-598.5 825.84,-605.5"/>
<text text-anchor="middle" x="777.5" y="-608.8" font-family="Times,serif" font-size="14.00">PHI Data flow</text>
</g>
<!-- d6 -->
<!-- d7 -->
<!-- d6&#45;&gt;d7 -->
<g id="edge48" class="edge">
<title>d6&#45;&gt;d7</title>
<path fill="none" stroke="green" d="M582,-602C593.94,-602 656.3,-602 682.93,-602"/>
<polygon fill="green" stroke="green" points="682.95,-605.5 692.95,-602 682.95,-598.5 682.95,-605.5"/>
<text text-anchor="middle" x="637.5" y="-608.8" font-family="Times,serif" font-size="14.00">Memory flow</text>
</g>
<!-- d8 -->
<!-- d9 -->
<!-- d8&#45;&gt;d9 -->
<g id="edge49" class="edge">
<title>d8&#45;&gt;d9</title>
<path fill="none" stroke="fuchsia" d="M459.11,-602C470.15,-602 521.67,-602 545.66,-602"/>
<polygon fill="fuchsia" stroke="fuchsia" points="545.9,-605.5 555.9,-602 545.9,-598.5 545.9,-605.5"/>
<text text-anchor="middle" x="507.5" y="-608.8" font-family="Times,serif" font-size="14.00">Dominance</text>
</g>
</g>
</svg>
