<?xml version="1.0" encoding="UTF-8" standalone="no"?>
<!DOCTYPE svg PUBLIC "-//W3C//DTD SVG 1.1//EN"
 "http://www.w3.org/Graphics/SVG/1.1/DTD/svg11.dtd">
<!-- Generated by graphviz version 2.43.0 (0)
 -->
<!-- Title: debugoutput Pages: 1 -->
<svg width="1832pt" height="651pt"
 viewBox="0.00 0.00 1832.00 650.80" xmlns="http://www.w3.org/2000/svg" xmlns:xlink="http://www.w3.org/1999/xlink">
<g id="graph0" class="graph" transform="scale(1 1) rotate(0) translate(4 646.8)">
<title>debugoutput</title>
<polygon fill="white" stroke="transparent" points="-4,4 -4,-646.8 1828,-646.8 1828,4 -4,4"/>
<g id="clust1" class="cluster">
<title>cluster_000</title>
<polygon fill="none" stroke="black" points="977,-592.2 977,-634.8 1816,-634.8 1816,-592.2 977,-592.2"/>
<text text-anchor="middle" x="1396.5" y="-619.6" font-family="Times,serif" font-size="14.00">Legend</text>
</g>
<!-- node0 -->
<g id="node1" class="node">
<title>node0</title>
<polygon fill="lightgrey" stroke="black" points="967,-620 801,-620 801,-584 967,-584 967,-620"/>
<text text-anchor="middle" x="884" y="-598.3" font-family="Times,serif" font-size="14.00">#0 Method Order : 0</text>
</g>
<!-- node1 -->
<g id="node2" class="node">
<title>node1</title>
<polygon fill="lightgrey" stroke="black" points="230,-547 0,-547 0,-511 230,-511 230,-547"/>
<text text-anchor="middle" x="115" y="-525.3" font-family="Times,serif" font-size="14.00">#1 this : ArrayTest Order : 16</text>
</g>
<!-- node0&#45;&gt;node1 -->
<g id="edge2" class="edge">
<title>node0&#45;&gt;node1</title>
<path fill="none" stroke="black" d="M800.97,-595.85C678.56,-587.62 442.54,-570.16 239.91,-548.09"/>
<polygon fill="black" stroke="black" points="240,-544.57 229.68,-546.96 239.23,-551.53 240,-544.57"/>
<text text-anchor="middle" x="248.62" y="-536.84" font-family="Times,serif" font-size="14.00">*0</text>
</g>
<!-- node2 -->
<g id="node3" class="node">
<title>node2</title>
<polygon fill="lightgrey" stroke="black" points="1476,-547 1288,-547 1288,-511 1476,-511 1476,-547"/>
<text text-anchor="middle" x="1382" y="-525.3" font-family="Times,serif" font-size="14.00">#2 LabelNode Order : 9</text>
</g>
<!-- node0&#45;&gt;node2 -->
<g id="edge4" class="edge">
<title>node0&#45;&gt;node2</title>
<path fill="none" stroke="red" d="M964.39,-583.95C1097.06,-567.44 1133.54,-591.38 1265,-566 1283.58,-562.41 1303.38,-556.47 1321.35,-550.44"/>
<polygon fill="red" stroke="red" points="1322.79,-553.64 1331.12,-547.09 1320.53,-547.02 1322.79,-553.64"/>
</g>
<!-- node13 -->
<g id="node6" class="node">
<title>node13</title>
<polygon fill="orange" stroke="black" points="993.57,-448.54 993.57,-463.46 865.54,-474 684.46,-474 556.43,-463.46 556.43,-448.54 684.46,-438 865.54,-438 993.57,-448.54"/>
<text text-anchor="middle" x="775" y="-452.3" font-family="Times,serif" font-size="14.00">#13 NewMultiArray : Object[][] Order : 6</text>
</g>
<!-- node0&#45;&gt;node13 -->
<g id="edge36" class="edge">
<title>node0&#45;&gt;node13</title>
<path fill="none" stroke="black" d="M800.8,-584.09C781.47,-576.07 763.29,-564.28 752,-547 739.65,-528.09 745.44,-502.25 754.54,-483.11"/>
<polygon fill="black" stroke="black" points="757.75,-484.53 759.36,-474.05 751.57,-481.24 757.75,-484.53"/>
</g>
<!-- node9 -->
<g id="node7" class="node">
<title>node9</title>
<polygon fill="lightgreen" stroke="black" points="450.11,-521.54 450.11,-536.46 390.88,-547 307.12,-547 247.89,-536.46 247.89,-521.54 307.12,-511 390.88,-511 450.11,-521.54"/>
<text text-anchor="middle" x="349" y="-525.3" font-family="Times,serif" font-size="14.00">#9 int 0 Order : 5</text>
</g>
<!-- node0&#45;&gt;node9 -->
<g id="edge26" class="edge">
<title>node0&#45;&gt;node9</title>
<path fill="none" stroke="black" stroke-dasharray="1,5" d="M800.95,-591.91C713.38,-581.65 571.71,-564.13 450,-547 442.83,-545.99 435.4,-544.91 427.98,-543.81"/>
<polygon fill="black" stroke="black" points="428.28,-540.31 417.87,-542.29 427.24,-547.24 428.28,-540.31"/>
</g>
<!-- node16 -->
<g id="node10" class="node">
<title>node16</title>
<polygon fill="lightgreen" stroke="black" points="1785.77,-521.54 1785.77,-536.46 1722.64,-547 1633.36,-547 1570.23,-536.46 1570.23,-521.54 1633.36,-511 1722.64,-511 1785.77,-521.54"/>
<text text-anchor="middle" x="1678" y="-525.3" font-family="Times,serif" font-size="14.00">#16 int 1 Order : 1</text>
</g>
<!-- node0&#45;&gt;node16 -->
<g id="edge43" class="edge">
<title>node0&#45;&gt;node16</title>
<path fill="none" stroke="black" stroke-dasharray="1,5" d="M964.38,-583.96C1221.74,-555.64 1291.16,-607 1547,-566 1569.97,-562.32 1594.7,-555.57 1616.48,-548.9"/>
<polygon fill="black" stroke="black" points="1617.75,-552.17 1626.26,-545.85 1615.67,-545.49 1617.75,-552.17"/>
</g>
<!-- node10 -->
<g id="node14" class="node">
<title>node10</title>
<polygon fill="lightgreen" stroke="black" points="997.93,-521.54 997.93,-536.46 931.19,-547 836.81,-547 770.07,-536.46 770.07,-521.54 836.81,-511 931.19,-511 997.93,-521.54"/>
<text text-anchor="middle" x="884" y="-525.3" font-family="Times,serif" font-size="14.00">#10 int 20 Order : 4</text>
</g>
<!-- node0&#45;&gt;node10 -->
<g id="edge28" class="edge">
<title>node0&#45;&gt;node10</title>
<path fill="none" stroke="black" stroke-dasharray="1,5" d="M878.12,-583.81C877.28,-575.79 877.05,-566.05 877.42,-557.07"/>
<polygon fill="black" stroke="black" points="880.92,-557.25 878.14,-547.03 873.94,-556.75 880.92,-557.25"/>
</g>
<!-- node11 -->
<g id="node15" class="node">
<title>node11</title>
<polygon fill="lightgreen" stroke="black" points="1231.77,-521.54 1231.77,-536.46 1168.64,-547 1079.36,-547 1016.23,-536.46 1016.23,-521.54 1079.36,-511 1168.64,-511 1231.77,-521.54"/>
<text text-anchor="middle" x="1124" y="-525.3" font-family="Times,serif" font-size="14.00">#11 int 5 Order : 3</text>
</g>
<!-- node0&#45;&gt;node11 -->
<g id="edge30" class="edge">
<title>node0&#45;&gt;node11</title>
<path fill="none" stroke="black" stroke-dasharray="1,5" d="M935.63,-583.99C971.26,-573.11 1018.9,-559.01 1057.38,-547.95"/>
<polygon fill="black" stroke="black" points="1058.81,-551.18 1067.46,-545.06 1056.89,-544.45 1058.81,-551.18"/>
</g>
<!-- node12 -->
<g id="node16" class="node">
<title>node12</title>
<polygon fill="lightgreen" stroke="black" points="695.93,-521.54 695.93,-536.46 629.19,-547 534.81,-547 468.07,-536.46 468.07,-521.54 534.81,-511 629.19,-511 695.93,-521.54"/>
<text text-anchor="middle" x="582" y="-525.3" font-family="Times,serif" font-size="14.00">#12 int 10 Order : 2</text>
</g>
<!-- node0&#45;&gt;node12 -->
<g id="edge32" class="edge">
<title>node0&#45;&gt;node12</title>
<path fill="none" stroke="black" stroke-dasharray="1,5" d="M800.89,-587.24C769.38,-581.24 733.35,-573.79 701,-566 680.93,-561.17 659.27,-555.32 639.95,-549.75"/>
<polygon fill="black" stroke="black" points="640.67,-546.32 630.09,-546.88 638.71,-553.04 640.67,-546.32"/>
</g>
<!-- node1&#45;&gt;node0 -->
<g id="edge1" class="edge">
<title>node1&#45;&gt;node0</title>
<path fill="none" stroke="green" stroke-width="2" d="M230.14,-544.93C236.19,-545.66 242.17,-546.36 248,-547 440.7,-568.26 666.61,-585.39 790.7,-594.3"/>
<polygon fill="green" stroke="green" stroke-width="2" points="790.69,-597.81 800.92,-595.03 791.19,-590.83 790.69,-597.81"/>
</g>
<!-- node2&#45;&gt;node0 -->
<g id="edge3" class="edge">
<title>node2&#45;&gt;node0</title>
<path fill="none" stroke="green" stroke-width="2" d="M1347.3,-547.19C1328.54,-554.26 1304.93,-561.77 1283,-566 1151.41,-591.41 1114.98,-567.39 982,-584 980.49,-584.19 978.96,-584.39 977.43,-584.6"/>
<polygon fill="green" stroke="green" stroke-width="2" points="976.56,-581.18 967.17,-586.09 977.57,-588.11 976.56,-581.18"/>
</g>
<!-- node3 -->
<g id="node4" class="node">
<title>node3</title>
<polygon fill="lightgrey" stroke="black" points="1475.5,-474 1278.5,-474 1278.5,-438 1475.5,-438 1475.5,-474"/>
<text text-anchor="middle" x="1377" y="-452.3" font-family="Times,serif" font-size="14.00">#3 LabelNode Order : 10</text>
</g>
<!-- node2&#45;&gt;node3 -->
<g id="edge6" class="edge">
<title>node2&#45;&gt;node3</title>
<path fill="none" stroke="red" d="M1374.91,-510.81C1373.51,-502.79 1372.59,-493.05 1372.33,-484.07"/>
<polygon fill="red" stroke="red" points="1375.83,-484.03 1372.34,-474.03 1368.83,-484.03 1375.83,-484.03"/>
</g>
<!-- node3&#45;&gt;node2 -->
<g id="edge5" class="edge">
<title>node3&#45;&gt;node2</title>
<path fill="none" stroke="green" stroke-width="2" d="M1384.06,-474.03C1385.47,-482.03 1386.4,-491.77 1386.67,-500.75"/>
<polygon fill="green" stroke="green" stroke-width="2" points="1383.17,-500.81 1386.67,-510.81 1390.17,-500.81 1383.17,-500.81"/>
</g>
<!-- node4 -->
<g id="node5" class="node">
<title>node4</title>
<polygon fill="lightgrey" stroke="black" points="1304,-328 1024,-328 1024,-292 1304,-292 1304,-328"/>
<text text-anchor="middle" x="1164" y="-306.3" font-family="Times,serif" font-size="14.00">#4 ArrayStore : Object[][] Order : 11</text>
</g>
<!-- node3&#45;&gt;node4 -->
<g id="edge12" class="edge">
<title>node3&#45;&gt;node4</title>
<path fill="none" stroke="red" d="M1378.31,-437.7C1378.83,-417.6 1376.47,-384.68 1358,-365 1344.39,-350.5 1327.25,-339.77 1308.82,-331.87"/>
<polygon fill="red" stroke="red" points="1309.96,-328.55 1299.38,-328.09 1307.36,-335.05 1309.96,-328.55"/>
</g>
<!-- node4&#45;&gt;node0 -->
<g id="edge7" class="edge">
<title>node4&#45;&gt;node0</title>
<path fill="none" stroke="green" stroke-width="2" d="M1304.25,-315.09C1397.91,-321.78 1504,-338.88 1504,-382 1504,-530 1504,-530 1504,-530 1504,-586.81 1070.68,-577.71 977.55,-583.83"/>
<polygon fill="green" stroke="green" stroke-width="2" points="976.98,-580.37 967.33,-584.73 977.59,-587.34 976.98,-580.37"/>
</g>
<!-- node5 -->
<g id="node9" class="node">
<title>node5</title>
<polygon fill="lightgrey" stroke="black" points="1296.5,-255 1031.5,-255 1031.5,-219 1296.5,-219 1296.5,-255"/>
<text text-anchor="middle" x="1164" y="-233.3" font-family="Times,serif" font-size="14.00">#5 ArrayLoad : Object[] Order : 12</text>
</g>
<!-- node4&#45;&gt;node5 -->
<g id="edge16" class="edge">
<title>node4&#45;&gt;node5</title>
<path fill="none" stroke="black" d="M1158.12,-291.81C1157.28,-283.79 1157.05,-274.05 1157.42,-265.07"/>
<polygon fill="black" stroke="black" points="1160.92,-265.25 1158.14,-255.03 1153.94,-264.75 1160.92,-265.25"/>
</g>
<!-- node4&#45;&gt;node5 -->
<g id="edge17" class="edge">
<title>node4&#45;&gt;node5</title>
<path fill="none" stroke="red" d="M1169.88,-291.81C1170.72,-283.79 1170.95,-274.05 1170.58,-265.07"/>
<polygon fill="red" stroke="red" points="1174.06,-264.75 1169.86,-255.03 1167.08,-265.25 1174.06,-264.75"/>
</g>
<!-- node13&#45;&gt;node0 -->
<g id="edge33" class="edge">
<title>node13&#45;&gt;node0</title>
<path fill="none" stroke="green" stroke-width="2" d="M772.37,-474.05C765.92,-493.33 755.56,-524.89 770,-547 779.29,-561.23 793.26,-571.73 808.29,-579.48"/>
<polygon fill="green" stroke="green" stroke-width="2" points="807.21,-582.84 817.74,-583.96 810.2,-576.51 807.21,-582.84"/>
</g>
<!-- node13&#45;&gt;node4 -->
<g id="edge8" class="edge">
<title>node13&#45;&gt;node4</title>
<path fill="none" stroke="black" d="M845.05,-437.9C873.27,-429.27 905.38,-417.13 932,-401 951.9,-388.94 949.75,-376.46 970,-365 996.79,-349.84 1028.1,-338.72 1057.65,-330.66"/>
<polygon fill="black" stroke="black" points="1058.82,-333.97 1067.6,-328.04 1057.04,-327.2 1058.82,-333.97"/>
<text text-anchor="middle" x="1052.22" y="-337.13" font-family="Times,serif" font-size="14.00">*0</text>
</g>
<!-- node15 -->
<g id="node8" class="node">
<title>node15</title>
<polygon fill="orange" stroke="black" points="1349.04,-375.54 1349.04,-390.46 1240.64,-401 1087.36,-401 978.96,-390.46 978.96,-375.54 1087.36,-365 1240.64,-365 1349.04,-375.54"/>
<text text-anchor="middle" x="1164" y="-379.3" font-family="Times,serif" font-size="14.00">#15 NewArray : Object[] Order : 7</text>
</g>
<!-- node13&#45;&gt;node15 -->
<g id="edge41" class="edge">
<title>node13&#45;&gt;node15</title>
<path fill="none" stroke="black" d="M867.68,-438.08C927.6,-427.15 1005.49,-412.93 1066.36,-401.82"/>
<polygon fill="black" stroke="black" points="1067.16,-405.23 1076.37,-399.99 1065.9,-398.35 1067.16,-405.23"/>
</g>
<!-- node13&#45;&gt;node5 -->
<g id="edge14" class="edge">
<title>node13&#45;&gt;node5</title>
<path fill="none" stroke="black" d="M692.28,-437.99C641.24,-423.64 590.35,-399.81 618,-365 667.46,-302.71 876.35,-268.19 1020.91,-251.37"/>
<polygon fill="black" stroke="black" points="1021.67,-254.81 1031.21,-250.19 1020.87,-247.85 1021.67,-254.81"/>
<text text-anchor="middle" x="1014.16" y="-256.95" font-family="Times,serif" font-size="14.00">*0</text>
</g>
<!-- node14 -->
<g id="node17" class="node">
<title>node14</title>
<polygon fill="orange" stroke="black" points="922.97,-375.54 922.97,-390.46 836.29,-401 713.71,-401 627.03,-390.46 627.03,-375.54 713.71,-365 836.29,-365 922.97,-375.54"/>
<text text-anchor="middle" x="775" y="-379.3" font-family="Times,serif" font-size="14.00">#14 ArrayLength Order : 8</text>
</g>
<!-- node13&#45;&gt;node14 -->
<g id="edge38" class="edge">
<title>node13&#45;&gt;node14</title>
<path fill="none" stroke="black" d="M769.12,-437.81C768.28,-429.79 768.05,-420.05 768.42,-411.07"/>
<polygon fill="black" stroke="black" points="771.92,-411.25 769.14,-401.03 764.94,-410.75 771.92,-411.25"/>
<text text-anchor="middle" x="776.28" y="-416.01" font-family="Times,serif" font-size="14.00">*0</text>
</g>
<!-- node9&#45;&gt;node0 -->
<g id="edge25" class="edge">
<title>node9&#45;&gt;node0</title>
<path fill="none" stroke="green" stroke-width="2" d="M425.83,-540.81C439.9,-542.93 454.41,-545.09 468,-547 578.94,-562.62 706.46,-578.55 790.81,-589.02"/>
<polygon fill="green" stroke="green" stroke-width="2" points="790.53,-592.51 800.88,-590.27 791.39,-585.57 790.53,-592.51"/>
</g>
<!-- node9&#45;&gt;node4 -->
<g id="edge9" class="edge">
<title>node9&#45;&gt;node4</title>
<path fill="none" stroke="black" d="M369.67,-510.91C412.72,-476.41 516.46,-398.84 618,-365 688.92,-341.37 878.1,-326.42 1013.88,-318.38"/>
<polygon fill="black" stroke="black" points="1014.19,-321.87 1023.97,-317.79 1013.78,-314.88 1014.19,-321.87"/>
<text text-anchor="middle" x="1006.37" y="-323.59" font-family="Times,serif" font-size="14.00">*1</text>
</g>
<!-- node15&#45;&gt;node0 -->
<g id="edge39" class="edge">
<title>node15&#45;&gt;node0</title>
<path fill="none" stroke="green" stroke-width="2" d="M1183.7,-401.22C1217.75,-433.02 1280.38,-501.81 1241,-547 1203.43,-590.11 1048.54,-575.86 977.59,-583.57"/>
<polygon fill="green" stroke="green" stroke-width="2" points="976.8,-580.15 967.36,-584.94 977.73,-587.08 976.8,-580.15"/>
</g>
<!-- node15&#45;&gt;node4 -->
<g id="edge10" class="edge">
<title>node15&#45;&gt;node4</title>
<path fill="none" stroke="black" d="M1158.12,-364.81C1157.28,-356.79 1157.05,-347.05 1157.42,-338.07"/>
<polygon fill="black" stroke="black" points="1160.92,-338.25 1158.14,-328.03 1153.94,-337.75 1160.92,-338.25"/>
<text text-anchor="middle" x="1165.28" y="-343.01" font-family="Times,serif" font-size="14.00">*2</text>
</g>
<!-- node15&#45;&gt;node4 -->
<g id="edge11" class="edge">
<title>node15&#45;&gt;node4</title>
<path fill="none" stroke="black" d="M1169.88,-364.81C1170.72,-356.79 1170.95,-347.05 1170.58,-338.07"/>
<polygon fill="black" stroke="black" points="1174.06,-337.75 1169.86,-328.03 1167.08,-338.25 1174.06,-337.75"/>
</g>
<!-- node5&#45;&gt;node0 -->
<g id="edge13" class="edge">
<title>node5&#45;&gt;node0</title>
<path fill="none" stroke="green" stroke-width="2" d="M1296.74,-238.37C1405.65,-242.39 1542,-257.67 1542,-309 1542,-530 1542,-530 1542,-530 1542,-591.03 1074.84,-577.93 977.32,-583.87"/>
<polygon fill="green" stroke="green" stroke-width="2" points="977,-580.39 967.32,-584.7 977.57,-587.36 977,-580.39"/>
</g>
<!-- node6 -->
<g id="node11" class="node">
<title>node6</title>
<polygon fill="lightgrey" stroke="black" points="1377.5,-182 1180.5,-182 1180.5,-146 1377.5,-146 1377.5,-182"/>
<text text-anchor="middle" x="1279" y="-160.3" font-family="Times,serif" font-size="14.00">#6 LabelNode Order : 13</text>
</g>
<!-- node5&#45;&gt;node6 -->
<g id="edge19" class="edge">
<title>node5&#45;&gt;node6</title>
<path fill="none" stroke="red" d="M1185.69,-218.99C1200.07,-209.49 1219.28,-197.54 1236.58,-187.29"/>
<polygon fill="red" stroke="red" points="1238.55,-190.19 1245.41,-182.11 1235.01,-184.15 1238.55,-190.19"/>
</g>
<!-- node8 -->
<g id="node13" class="node">
<title>node8</title>
<polygon fill="lightgrey" stroke="black" points="1228,-36 1058,-36 1058,0 1228,0 1228,-36"/>
<text text-anchor="middle" x="1143" y="-14.3" font-family="Times,serif" font-size="14.00">#8 Return Order : 15</text>
</g>
<!-- node5&#45;&gt;node8 -->
<g id="edge24" class="edge">
<title>node5&#45;&gt;node8</title>
<path fill="none" stroke="black" d="M1158.51,-218.97C1151.3,-181.51 1142.34,-91.68 1140.98,-46.26"/>
<polygon fill="black" stroke="black" points="1144.48,-46.19 1140.81,-36.25 1137.48,-46.31 1144.48,-46.19"/>
</g>
<!-- node16&#45;&gt;node0 -->
<g id="edge42" class="edge">
<title>node16&#45;&gt;node0</title>
<path fill="none" stroke="green" stroke-width="2" d="M1638.74,-547.08C1617.24,-554.31 1590.08,-561.98 1565,-566 1309.03,-607.02 1239.67,-555.59 982,-584 980.49,-584.17 978.96,-584.35 977.42,-584.53"/>
<polygon fill="green" stroke="green" stroke-width="2" points="976.59,-581.12 967.15,-585.93 977.53,-588.05 976.59,-581.12"/>
</g>
<!-- node16&#45;&gt;node5 -->
<g id="edge15" class="edge">
<title>node16&#45;&gt;node5</title>
<path fill="none" stroke="black" d="M1657.5,-510.95C1644.08,-497.79 1629,-478.27 1629,-457 1629,-457 1629,-457 1629,-309 1629,-272.82 1590.83,-282.77 1556,-273 1510.38,-260.2 1399.13,-250.99 1306.75,-245.25"/>
<polygon fill="black" stroke="black" points="1306.93,-241.75 1296.73,-244.63 1306.5,-248.74 1306.93,-241.75"/>
<text text-anchor="middle" x="1315.34" y="-233.61" font-family="Times,serif" font-size="14.00">*1</text>
</g>
<!-- node6&#45;&gt;node5 -->
<g id="edge18" class="edge">
<title>node6&#45;&gt;node5</title>
<path fill="none" stroke="green" stroke-width="2" d="M1257.15,-182.11C1242.73,-191.63 1223.51,-203.59 1206.23,-213.82"/>
<polygon fill="green" stroke="green" stroke-width="2" points="1204.26,-210.92 1197.4,-218.99 1207.8,-216.96 1204.26,-210.92"/>
</g>
<!-- node7 -->
<g id="node12" class="node">
<title>node7</title>
<polygon fill="lightgrey" stroke="black" points="1377.5,-109 1180.5,-109 1180.5,-73 1377.5,-73 1377.5,-109"/>
<text text-anchor="middle" x="1279" y="-87.3" font-family="Times,serif" font-size="14.00">#7 LabelNode Order : 14</text>
</g>
<!-- node6&#45;&gt;node7 -->
<g id="edge21" class="edge">
<title>node6&#45;&gt;node7</title>
<path fill="none" stroke="red" d="M1273.12,-145.81C1272.28,-137.79 1272.05,-128.05 1272.42,-119.07"/>
<polygon fill="red" stroke="red" points="1275.92,-119.25 1273.14,-109.03 1268.94,-118.75 1275.92,-119.25"/>
</g>
<!-- node7&#45;&gt;node6 -->
<g id="edge20" class="edge">
<title>node7&#45;&gt;node6</title>
<path fill="none" stroke="green" stroke-width="2" d="M1284.86,-109.03C1285.71,-117.03 1285.95,-126.77 1285.59,-135.75"/>
<polygon fill="green" stroke="green" stroke-width="2" points="1282.09,-135.59 1284.88,-145.81 1289.07,-136.08 1282.09,-135.59"/>
</g>
<!-- node7&#45;&gt;node8 -->
<g id="edge23" class="edge">
<title>node7&#45;&gt;node8</title>
<path fill="none" stroke="red" d="M1246.42,-72.99C1227.97,-63.36 1204.69,-51.21 1184.89,-40.87"/>
<polygon fill="red" stroke="red" points="1186.27,-37.64 1175.78,-36.11 1183.03,-43.84 1186.27,-37.64"/>
</g>
<!-- node8&#45;&gt;node5 -->
<g id="edge22" class="edge">
<title>node8&#45;&gt;node5</title>
<path fill="none" stroke="green" stroke-width="2" d="M1148.53,-36.25C1155.73,-73.84 1164.66,-163.39 1166.02,-208.72"/>
<polygon fill="green" stroke="green" stroke-width="2" points="1162.52,-209.03 1166.2,-218.97 1169.52,-208.91 1162.52,-209.03"/>
</g>
<!-- node10&#45;&gt;node0 -->
<g id="edge27" class="edge">
<title>node10&#45;&gt;node0</title>
<path fill="none" stroke="green" stroke-width="2" d="M889.86,-547.03C890.71,-555.03 890.95,-564.77 890.59,-573.75"/>
<polygon fill="green" stroke="green" stroke-width="2" points="887.09,-573.59 889.88,-583.81 894.07,-574.08 887.09,-573.59"/>
</g>
<!-- node10&#45;&gt;node13 -->
<g id="edge34" class="edge">
<title>node10&#45;&gt;node13</title>
<path fill="none" stroke="black" d="M857.89,-510.99C843.44,-501.58 825.29,-489.76 809.66,-479.57"/>
<polygon fill="black" stroke="black" points="811.56,-476.64 801.27,-474.11 807.74,-482.5 811.56,-476.64"/>
<text text-anchor="middle" x="821.07" y="-473.22" font-family="Times,serif" font-size="14.00">*0</text>
</g>
<!-- node11&#45;&gt;node0 -->
<g id="edge29" class="edge">
<title>node11&#45;&gt;node0</title>
<path fill="none" stroke="green" stroke-width="2" d="M1074.82,-546.26C1040.97,-556.62 995.47,-570.11 957.37,-581.11"/>
<polygon fill="green" stroke="green" stroke-width="2" points="955.99,-577.86 947.35,-583.99 957.92,-584.59 955.99,-577.86"/>
</g>
<!-- node11&#45;&gt;node15 -->
<g id="edge40" class="edge">
<title>node11&#45;&gt;node15</title>
<path fill="none" stroke="black" d="M1128.75,-510.92C1135.6,-486.23 1148.35,-440.35 1156.49,-411.04"/>
<polygon fill="black" stroke="black" points="1159.96,-411.63 1159.26,-401.06 1153.21,-409.76 1159.96,-411.63"/>
<text text-anchor="middle" x="1162.55" y="-417.09" font-family="Times,serif" font-size="14.00">*0</text>
</g>
<!-- node12&#45;&gt;node0 -->
<g id="edge31" class="edge">
<title>node12&#45;&gt;node0</title>
<path fill="none" stroke="green" stroke-width="2" d="M641.05,-545.25C665.23,-552.03 693.42,-559.84 719,-566 742.33,-571.62 767.57,-577.06 791.14,-581.91"/>
<polygon fill="green" stroke="green" stroke-width="2" points="790.63,-585.37 801.13,-583.95 792.03,-578.52 790.63,-585.37"/>
</g>
<!-- node12&#45;&gt;node13 -->
<g id="edge35" class="edge">
<title>node12&#45;&gt;node13</title>
<path fill="none" stroke="black" d="M628.23,-510.99C655.48,-500.97 690.15,-488.21 718.96,-477.62"/>
<polygon fill="black" stroke="black" points="720.3,-480.85 728.48,-474.11 717.89,-474.28 720.3,-480.85"/>
<text text-anchor="middle" x="714.39" y="-484.6" font-family="Times,serif" font-size="14.00">*1</text>
</g>
<!-- node14&#45;&gt;node13 -->
<g id="edge37" class="edge">
<title>node14&#45;&gt;node13</title>
<path fill="none" stroke="green" stroke-width="2" d="M780.86,-401.03C781.71,-409.03 781.95,-418.77 781.59,-427.75"/>
<polygon fill="green" stroke="green" stroke-width="2" points="778.09,-427.59 780.88,-437.81 785.07,-428.08 778.09,-427.59"/>
</g>
<!-- c0 -->
<!-- c1 -->
<!-- c0&#45;&gt;c1 -->
<g id="edge44" class="edge">
<title>c0&#45;&gt;c1</title>
<path fill="none" stroke="red" d="M1698.89,-602C1710.11,-602 1768.24,-602 1793.86,-602"/>
<polygon fill="red" stroke="red" points="1794.06,-605.5 1804.06,-602 1794.06,-598.5 1794.06,-605.5"/>
<text text-anchor="middle" x="1751.5" y="-608.8" font-family="Times,serif" font-size="14.00">Control flow</text>
</g>
<!-- c2 -->
<!-- c3 -->
<!-- c2&#45;&gt;c3 -->
<g id="edge45" class="edge">
<title>c2&#45;&gt;c3</title>
<path fill="none" stroke="red" stroke-dasharray="5,2" d="M1492.08,-602C1509.05,-602 1625.21,-602 1663.08,-602"/>
<polygon fill="red" stroke="red" points="1663.17,-605.5 1673.17,-602 1663.17,-598.5 1663.17,-605.5"/>
<text text-anchor="middle" x="1582.5" y="-608.8" font-family="Times,serif" font-size="14.00">Control flow back edge</text>
</g>
<!-- d0 -->
<!-- d1 -->
<!-- d0&#45;&gt;d1 -->
<g id="edge46" class="edge">
<title>d0&#45;&gt;d1</title>
<path fill="none" stroke="black" d="M1380.86,-602C1390.41,-602 1434.31,-602 1455.92,-602"/>
<polygon fill="black" stroke="black" points="1456.15,-605.5 1466.15,-602 1456.15,-598.5 1456.15,-605.5"/>
<text text-anchor="middle" x="1423.5" y="-608.8" font-family="Times,serif" font-size="14.00">Data flow</text>
</g>
<!-- d2 -->
<!-- d3 -->
<!-- d2&#45;&gt;d3 -->
<g id="edge47" class="edge">
<title>d2&#45;&gt;d3</title>
<path fill="none" stroke="black" stroke-dasharray="1,5" d="M1254.81,-602C1265.46,-602 1320.46,-602 1345.08,-602"/>
<polygon fill="black" stroke="black" points="1345.15,-605.5 1355.15,-602 1345.15,-598.5 1345.15,-605.5"/>
<text text-anchor="middle" x="1305" y="-608.8" font-family="Times,serif" font-size="14.00">Declaration</text>
</g>
<!-- d4 -->
<!-- d5 -->
<!-- d4&#45;&gt;d5 -->
<g id="edge48" class="edge">
<title>d4&#45;&gt;d5</title>
<path fill="none" stroke="blue" d="M1112.1,-602C1124.72,-602 1190.88,-602 1218.68,-602"/>
<polygon fill="blue" stroke="blue" points="1218.84,-605.5 1228.84,-602 1218.84,-598.5 1218.84,-605.5"/>
<text text-anchor="middle" x="1170.5" y="-608.8" font-family="Times,serif" font-size="14.00">PHI Data flow</text>
</g>
<!-- d6 -->
<!-- d7 -->
<!-- d6&#45;&gt;d7 -->
<g id="edge49" class="edge">
<title>d6&#45;&gt;d7</title>
<path fill="none" stroke="green" d="M989.11,-602C1000.15,-602 1051.67,-602 1075.66,-602"/>
<polygon fill="green" stroke="green" points="1075.9,-605.5 1085.9,-602 1075.9,-598.5 1075.9,-605.5"/>
<text text-anchor="middle" x="1037.5" y="-608.8" font-family="Times,serif" font-size="14.00">Dominance</text>
</g>
</g>
</svg>
