<?xml version="1.0" encoding="UTF-8" standalone="no"?>
<!DOCTYPE svg PUBLIC "-//W3C//DTD SVG 1.1//EN"
 "http://www.w3.org/Graphics/SVG/1.1/DTD/svg11.dtd">
<!-- Generated by graphviz version 2.43.0 (0)
 -->
<!-- Title: debugoutput Pages: 1 -->
<svg width="1928pt" height="651pt"
 viewBox="0.00 0.00 1928.00 650.80" xmlns="http://www.w3.org/2000/svg" xmlns:xlink="http://www.w3.org/1999/xlink">
<g id="graph0" class="graph" transform="scale(1 1) rotate(0) translate(4 646.8)">
<title>debugoutput</title>
<polygon fill="white" stroke="transparent" points="-4,4 -4,-646.8 1924,-646.8 1924,4 -4,4"/>
<g id="clust1" class="cluster">
<title>cluster_000</title>
<polygon fill="none" stroke="black" points="1073,-592.2 1073,-634.8 1912,-634.8 1912,-592.2 1073,-592.2"/>
<text text-anchor="middle" x="1492.5" y="-619.6" font-family="Times,serif" font-size="14.00">Legend</text>
</g>
<!-- node0 -->
<g id="node1" class="node">
<title>node0</title>
<polygon fill="lightgrey" stroke="black" points="1063,-620 897,-620 897,-584 1063,-584 1063,-620"/>
<text text-anchor="middle" x="980" y="-598.3" font-family="Times,serif" font-size="14.00">#0 Method Order : 0</text>
</g>
<!-- node1 -->
<g id="node2" class="node">
<title>node1</title>
<polygon fill="lightgrey" stroke="black" points="230,-547 0,-547 0,-511 230,-511 230,-547"/>
<text text-anchor="middle" x="115" y="-525.3" font-family="Times,serif" font-size="14.00">#1 this : ArrayTest Order : 16</text>
</g>
<!-- node0&#45;&gt;node1 -->
<g id="edge2" class="edge">
<title>node0&#45;&gt;node1</title>
<path fill="none" stroke="black" d="M896.82,-596.96C760.09,-589.69 479.43,-572.8 239.97,-548.04"/>
<polygon fill="black" stroke="black" points="239.98,-544.52 229.68,-546.97 239.26,-551.48 239.98,-544.52"/>
<text text-anchor="middle" x="248.58" y="-536.74" font-family="Times,serif" font-size="14.00">*0</text>
</g>
<!-- node2 -->
<g id="node3" class="node">
<title>node2</title>
<polygon fill="lightgrey" stroke="black" points="1697,-547 1509,-547 1509,-511 1697,-511 1697,-547"/>
<text text-anchor="middle" x="1603" y="-525.3" font-family="Times,serif" font-size="14.00">#2 LabelNode Order : 9</text>
</g>
<!-- node0&#45;&gt;node2 -->
<g id="edge4" class="edge">
<title>node0&#45;&gt;node2</title>
<path fill="none" stroke="red" d="M1060.3,-583.96C1161.67,-570.37 1187.95,-574.82 1290,-566 1379.4,-558.28 1402.01,-558.54 1491,-547 1493.56,-546.67 1496.15,-546.32 1498.76,-545.96"/>
<polygon fill="red" stroke="red" points="1499.53,-549.39 1508.93,-544.52 1498.54,-542.46 1499.53,-549.39"/>
</g>
<!-- node3 -->
<g id="node4" class="node">
<title>node3</title>
<polygon fill="lightgreen" stroke="black" points="1232.77,-521.54 1232.77,-536.46 1169.64,-547 1080.36,-547 1017.23,-536.46 1017.23,-521.54 1080.36,-511 1169.64,-511 1232.77,-521.54"/>
<text text-anchor="middle" x="1125" y="-525.3" font-family="Times,serif" font-size="14.00">#3 int 20 Order : 5</text>
</g>
<!-- node0&#45;&gt;node3 -->
<g id="edge6" class="edge">
<title>node0&#45;&gt;node3</title>
<path fill="none" stroke="black" stroke-dasharray="1,5" d="M1008.87,-583.99C1027.78,-574.23 1052.87,-561.88 1074.94,-551.45"/>
<polygon fill="black" stroke="black" points="1076.61,-554.53 1084.18,-547.11 1073.64,-548.19 1076.61,-554.53"/>
</g>
<!-- node4 -->
<g id="node5" class="node">
<title>node4</title>
<polygon fill="lightgreen" stroke="black" points="671.11,-521.54 671.11,-536.46 611.88,-547 528.12,-547 468.89,-536.46 468.89,-521.54 528.12,-511 611.88,-511 671.11,-521.54"/>
<text text-anchor="middle" x="570" y="-525.3" font-family="Times,serif" font-size="14.00">#4 int 5 Order : 4</text>
</g>
<!-- node0&#45;&gt;node4 -->
<g id="edge8" class="edge">
<title>node0&#45;&gt;node4</title>
<path fill="none" stroke="black" stroke-dasharray="1,5" d="M896.86,-595.89C835.23,-590.92 749.63,-581.75 676,-566 657.01,-561.94 636.68,-556.09 618.9,-550.28"/>
<polygon fill="black" stroke="black" points="619.9,-546.93 609.3,-547.07 617.68,-553.57 619.9,-546.93"/>
</g>
<!-- node5 -->
<g id="node6" class="node">
<title>node5</title>
<polygon fill="lightgreen" stroke="black" points="1491.11,-521.54 1491.11,-536.46 1431.88,-547 1348.12,-547 1288.89,-536.46 1288.89,-521.54 1348.12,-511 1431.88,-511 1491.11,-521.54"/>
<text text-anchor="middle" x="1390" y="-525.3" font-family="Times,serif" font-size="14.00">#5 int 0 Order : 3</text>
</g>
<!-- node0&#45;&gt;node5 -->
<g id="edge10" class="edge">
<title>node0&#45;&gt;node5</title>
<path fill="none" stroke="black" stroke-dasharray="1,5" d="M1060.27,-583.96C1151.08,-571.39 1175.93,-583.81 1266,-566 1287.16,-561.81 1309.94,-555.16 1330.18,-548.7"/>
<polygon fill="black" stroke="black" points="1331.46,-551.97 1339.9,-545.56 1329.3,-545.31 1331.46,-551.97"/>
</g>
<!-- node6 -->
<g id="node7" class="node">
<title>node6</title>
<polygon fill="lightgreen" stroke="black" points="450.11,-521.54 450.11,-536.46 390.88,-547 307.12,-547 247.89,-536.46 247.89,-521.54 307.12,-511 390.88,-511 450.11,-521.54"/>
<text text-anchor="middle" x="349" y="-525.3" font-family="Times,serif" font-size="14.00">#6 int 1 Order : 2</text>
</g>
<!-- node0&#45;&gt;node6 -->
<g id="edge12" class="edge">
<title>node0&#45;&gt;node6</title>
<path fill="none" stroke="black" stroke-dasharray="1,5" d="M896.61,-594.16C792.1,-584.88 607.87,-567.15 451,-547 443.32,-546.01 435.35,-544.92 427.4,-543.79"/>
<polygon fill="black" stroke="black" points="427.76,-540.3 417.36,-542.33 426.75,-547.23 427.76,-540.3"/>
</g>
<!-- node7 -->
<g id="node8" class="node">
<title>node7</title>
<polygon fill="lightgreen" stroke="black" points="942.77,-521.54 942.77,-536.46 879.64,-547 790.36,-547 727.23,-536.46 727.23,-521.54 790.36,-511 879.64,-511 942.77,-521.54"/>
<text text-anchor="middle" x="835" y="-525.3" font-family="Times,serif" font-size="14.00">#7 int 10 Order : 1</text>
</g>
<!-- node0&#45;&gt;node7 -->
<g id="edge14" class="edge">
<title>node0&#45;&gt;node7</title>
<path fill="none" stroke="black" stroke-dasharray="1,5" d="M939.41,-583.99C918.62,-574.32 893.52,-562.1 873.1,-551.73"/>
<polygon fill="black" stroke="black" points="874.58,-548.55 864.08,-547.11 871.39,-554.78 874.58,-548.55"/>
</g>
<!-- node8 -->
<g id="node9" class="node">
<title>node8</title>
<polygon fill="orange" stroke="black" points="1192.41,-448.54 1192.41,-463.46 1067.98,-474 892.02,-474 767.59,-463.46 767.59,-448.54 892.02,-438 1067.98,-438 1192.41,-448.54"/>
<text text-anchor="middle" x="980" y="-452.3" font-family="Times,serif" font-size="14.00">#8 NewMultiArray : Object[][] Order : 6</text>
</g>
<!-- node0&#45;&gt;node8 -->
<g id="edge18" class="edge">
<title>node0&#45;&gt;node8</title>
<path fill="none" stroke="black" d="M975.45,-583.92C972.84,-559.23 972.55,-513.35 974.59,-484.04"/>
<polygon fill="black" stroke="black" points="978.08,-484.32 975.45,-474.06 971.11,-483.73 978.08,-484.32"/>
</g>
<!-- node1&#45;&gt;node0 -->
<g id="edge1" class="edge">
<title>node1&#45;&gt;node0</title>
<path fill="none" stroke="green" stroke-width="2" d="M230.14,-545C236.18,-545.72 242.17,-546.39 248,-547 477.18,-571.04 747.37,-587.82 886.65,-595.77"/>
<polygon fill="green" stroke="green" stroke-width="2" points="886.68,-599.28 896.86,-596.35 887.08,-592.29 886.68,-599.28"/>
</g>
<!-- node2&#45;&gt;node0 -->
<g id="edge3" class="edge">
<title>node2&#45;&gt;node0</title>
<path fill="none" stroke="green" stroke-width="2" d="M1508.74,-547.03C1419.97,-558.53 1397.31,-558.28 1308,-566 1205.85,-574.82 1179.62,-570.36 1078,-584 1076.49,-584.2 1074.97,-584.41 1073.43,-584.63"/>
<polygon fill="green" stroke="green" stroke-width="2" points="1072.55,-581.23 1063.18,-586.19 1073.6,-588.15 1072.55,-581.23"/>
</g>
<!-- node9 -->
<g id="node10" class="node">
<title>node9</title>
<polygon fill="lightgrey" stroke="black" points="1696.5,-474 1499.5,-474 1499.5,-438 1696.5,-438 1696.5,-474"/>
<text text-anchor="middle" x="1598" y="-452.3" font-family="Times,serif" font-size="14.00">#9 LabelNode Order : 10</text>
</g>
<!-- node2&#45;&gt;node9 -->
<g id="edge20" class="edge">
<title>node2&#45;&gt;node9</title>
<path fill="none" stroke="red" d="M1595.91,-510.81C1594.51,-502.79 1593.59,-493.05 1593.33,-484.07"/>
<polygon fill="red" stroke="red" points="1596.83,-484.03 1593.34,-474.03 1589.83,-484.03 1596.83,-484.03"/>
</g>
<!-- node3&#45;&gt;node0 -->
<g id="edge5" class="edge">
<title>node3&#45;&gt;node0</title>
<path fill="none" stroke="green" stroke-width="2" d="M1095.92,-547.11C1076.97,-556.9 1051.86,-569.25 1029.82,-579.66"/>
<polygon fill="green" stroke="green" stroke-width="2" points="1028.16,-576.58 1020.59,-583.99 1031.13,-582.92 1028.16,-576.58"/>
</g>
<!-- node3&#45;&gt;node8 -->
<g id="edge16" class="edge">
<title>node3&#45;&gt;node8</title>
<path fill="none" stroke="black" d="M1090.27,-510.99C1070.42,-501.27 1045.32,-488.99 1024.09,-478.59"/>
<polygon fill="black" stroke="black" points="1025.47,-475.37 1014.95,-474.11 1022.39,-481.65 1025.47,-475.37"/>
<text text-anchor="middle" x="1034.95" y="-470.79" font-family="Times,serif" font-size="14.00">*0</text>
</g>
<!-- node4&#45;&gt;node0 -->
<g id="edge7" class="edge">
<title>node4&#45;&gt;node0</title>
<path fill="none" stroke="green" stroke-width="2" d="M621.02,-545.51C643.32,-552.72 669.76,-560.81 694,-566 757.74,-579.63 830.44,-588.34 886.64,-593.65"/>
<polygon fill="green" stroke="green" stroke-width="2" points="886.66,-597.17 896.94,-594.61 887.3,-590.2 886.66,-597.17"/>
</g>
<!-- node10 -->
<g id="node11" class="node">
<title>node10</title>
<polygon fill="orange" stroke="black" points="883.04,-375.54 883.04,-390.46 774.64,-401 621.36,-401 512.96,-390.46 512.96,-375.54 621.36,-365 774.64,-365 883.04,-375.54"/>
<text text-anchor="middle" x="698" y="-379.3" font-family="Times,serif" font-size="14.00">#10 NewArray : Object[] Order : 7</text>
</g>
<!-- node4&#45;&gt;node10 -->
<g id="edge22" class="edge">
<title>node4&#45;&gt;node10</title>
<path fill="none" stroke="black" d="M585.19,-510.92C607.7,-485.58 650.07,-437.92 675.99,-408.76"/>
<polygon fill="black" stroke="black" points="678.81,-410.86 682.83,-401.06 673.57,-406.21 678.81,-410.86"/>
<text text-anchor="middle" x="677.11" y="-416.53" font-family="Times,serif" font-size="14.00">*0</text>
</g>
<!-- node5&#45;&gt;node0 -->
<g id="edge9" class="edge">
<title>node5&#45;&gt;node0</title>
<path fill="none" stroke="green" stroke-width="2" d="M1351.84,-547.04C1331.87,-553.99 1306.99,-561.45 1284,-566 1193.84,-583.83 1169.03,-571.36 1078,-584 1076.49,-584.21 1074.97,-584.43 1073.43,-584.65"/>
<polygon fill="green" stroke="green" stroke-width="2" points="1072.54,-581.25 1063.19,-586.24 1073.61,-588.17 1072.54,-581.25"/>
</g>
<!-- node11 -->
<g id="node12" class="node">
<title>node11</title>
<polygon fill="lightgrey" stroke="black" points="1369.5,-328 1080.5,-328 1080.5,-292 1369.5,-292 1369.5,-328"/>
<text text-anchor="middle" x="1225" y="-306.3" font-family="Times,serif" font-size="14.00">#11 ArrayStore : Object[][] Order : 11</text>
</g>
<!-- node5&#45;&gt;node11 -->
<g id="edge26" class="edge">
<title>node5&#45;&gt;node11</title>
<path fill="none" stroke="black" d="M1382.38,-510.82C1366.55,-476.48 1327.33,-398.22 1277,-346 1272.89,-341.73 1268.17,-337.7 1263.3,-333.99"/>
<polygon fill="black" stroke="black" points="1265.19,-331.04 1255.02,-328.07 1261.12,-336.73 1265.19,-331.04"/>
<text text-anchor="middle" x="1274.68" y="-328.04" font-family="Times,serif" font-size="14.00">*1</text>
</g>
<!-- node6&#45;&gt;node0 -->
<g id="edge11" class="edge">
<title>node6&#45;&gt;node0</title>
<path fill="none" stroke="green" stroke-width="2" d="M425.52,-540.91C440,-543.06 454.98,-545.2 469,-547 614.71,-565.71 784.04,-582.35 886.6,-592.06"/>
<polygon fill="green" stroke="green" stroke-width="2" points="886.33,-595.55 896.62,-593 886.99,-588.58 886.33,-595.55"/>
</g>
<!-- node12 -->
<g id="node13" class="node">
<title>node12</title>
<polygon fill="lightgrey" stroke="black" points="1362,-255 1088,-255 1088,-219 1362,-219 1362,-255"/>
<text text-anchor="middle" x="1225" y="-233.3" font-family="Times,serif" font-size="14.00">#12 ArrayLoad : Object[] Order : 12</text>
</g>
<!-- node6&#45;&gt;node12 -->
<g id="edge32" class="edge">
<title>node6&#45;&gt;node12</title>
<path fill="none" stroke="black" d="M369.5,-510.95C382.92,-497.79 398,-478.27 398,-457 398,-457 398,-457 398,-309 398,-275.28 840.15,-252.91 1077.86,-243.32"/>
<polygon fill="black" stroke="black" points="1078.12,-246.82 1087.97,-242.92 1077.84,-239.82 1078.12,-246.82"/>
<text text-anchor="middle" x="1070.2" y="-248.39" font-family="Times,serif" font-size="14.00">*1</text>
</g>
<!-- node7&#45;&gt;node0 -->
<g id="edge13" class="edge">
<title>node7&#45;&gt;node0</title>
<path fill="none" stroke="green" stroke-width="2" d="M875.82,-547.11C896.64,-556.81 921.74,-569.03 942.12,-579.38"/>
<polygon fill="green" stroke="green" stroke-width="2" points="940.63,-582.55 951.13,-583.99 943.82,-576.32 940.63,-582.55"/>
</g>
<!-- node7&#45;&gt;node8 -->
<g id="edge17" class="edge">
<title>node7&#45;&gt;node8</title>
<path fill="none" stroke="black" d="M869.73,-510.99C889.58,-501.27 914.68,-488.99 935.91,-478.59"/>
<polygon fill="black" stroke="black" points="937.61,-481.65 945.05,-474.11 934.53,-475.37 937.61,-481.65"/>
<text text-anchor="middle" x="932.49" y="-485.98" font-family="Times,serif" font-size="14.00">*1</text>
</g>
<!-- node8&#45;&gt;node0 -->
<g id="edge15" class="edge">
<title>node8&#45;&gt;node0</title>
<path fill="none" stroke="green" stroke-width="2" d="M984.55,-474.06C987.16,-498.73 987.45,-544.61 985.41,-573.93"/>
<polygon fill="green" stroke="green" stroke-width="2" points="981.92,-573.65 984.55,-583.92 988.9,-574.25 981.92,-573.65"/>
</g>
<!-- node8&#45;&gt;node10 -->
<g id="edge23" class="edge">
<title>node8&#45;&gt;node10</title>
<path fill="none" stroke="black" d="M912.45,-437.99C871.34,-427.64 818.66,-414.38 775.8,-403.59"/>
<polygon fill="black" stroke="black" points="776.52,-400.16 765.97,-401.11 774.82,-406.95 776.52,-400.16"/>
</g>
<!-- node8&#45;&gt;node11 -->
<g id="edge25" class="edge">
<title>node8&#45;&gt;node11</title>
<path fill="none" stroke="black" d="M1090.82,-439.88C1139.45,-431.02 1189.29,-418.16 1206,-401 1222.06,-384.51 1226.06,-358.07 1226.49,-338.1"/>
<polygon fill="black" stroke="black" points="1229.99,-338.04 1226.42,-328.06 1222.99,-338.08 1229.99,-338.04"/>
<text text-anchor="middle" x="1234.99" y="-342.43" font-family="Times,serif" font-size="14.00">*0</text>
</g>
<!-- node8&#45;&gt;node12 -->
<g id="edge31" class="edge">
<title>node8&#45;&gt;node12</title>
<path fill="none" stroke="black" d="M798.5,-445.9C672.57,-437.68 523.98,-423.37 504,-401 493.34,-389.07 493.71,-377.26 504,-365 575.74,-279.52 888.33,-251.55 1077.58,-242.42"/>
<polygon fill="black" stroke="black" points="1077.79,-245.91 1087.61,-241.94 1077.46,-238.92 1077.79,-245.91"/>
<text text-anchor="middle" x="1069.9" y="-247.54" font-family="Times,serif" font-size="14.00">*0</text>
</g>
<!-- node13 -->
<g id="node14" class="node">
<title>node13</title>
<polygon fill="orange" stroke="black" points="1196.97,-375.54 1196.97,-390.46 1110.29,-401 987.71,-401 901.03,-390.46 901.03,-375.54 987.71,-365 1110.29,-365 1196.97,-375.54"/>
<text text-anchor="middle" x="1049" y="-379.3" font-family="Times,serif" font-size="14.00">#13 ArrayLength Order : 8</text>
</g>
<!-- node8&#45;&gt;node13 -->
<g id="edge36" class="edge">
<title>node8&#45;&gt;node13</title>
<path fill="none" stroke="black" d="M990.82,-437.81C998.54,-428.92 1009.05,-417.91 1019.07,-408.17"/>
<polygon fill="black" stroke="black" points="1021.75,-410.46 1026.59,-401.03 1016.93,-405.38 1021.75,-410.46"/>
<text text-anchor="middle" x="1019.27" y="-415.94" font-family="Times,serif" font-size="14.00">*0</text>
</g>
<!-- node9&#45;&gt;node2 -->
<g id="edge19" class="edge">
<title>node9&#45;&gt;node2</title>
<path fill="none" stroke="green" stroke-width="2" d="M1605.06,-474.03C1606.47,-482.03 1607.4,-491.77 1607.67,-500.75"/>
<polygon fill="green" stroke="green" stroke-width="2" points="1604.17,-500.81 1607.67,-510.81 1611.17,-500.81 1604.17,-500.81"/>
</g>
<!-- node9&#45;&gt;node11 -->
<g id="edge29" class="edge">
<title>node9&#45;&gt;node11</title>
<path fill="none" stroke="red" d="M1565.65,-437.96C1520.55,-414.74 1435.79,-372.95 1360,-346 1344.08,-340.34 1326.8,-335.16 1310.09,-330.63"/>
<polygon fill="red" stroke="red" points="1310.9,-327.22 1300.33,-328.03 1309.1,-333.99 1310.9,-327.22"/>
</g>
<!-- node10&#45;&gt;node0 -->
<g id="edge21" class="edge">
<title>node10&#45;&gt;node0</title>
<path fill="none" stroke="green" stroke-width="2" d="M694.31,-401.15C688.31,-434.07 680.6,-506.44 718,-547 740.72,-571.64 821.11,-585.66 886.92,-593.21"/>
<polygon fill="green" stroke="green" stroke-width="2" points="886.6,-596.69 896.92,-594.32 887.37,-589.74 886.6,-596.69"/>
</g>
<!-- node10&#45;&gt;node11 -->
<g id="edge27" class="edge">
<title>node10&#45;&gt;node11</title>
<path fill="none" stroke="black" d="M800.35,-367.46C880.78,-356.43 993.7,-341.2 1082.89,-329.34"/>
<polygon fill="black" stroke="black" points="1083.37,-332.81 1092.82,-328.02 1082.45,-325.87 1083.37,-332.81"/>
<text text-anchor="middle" x="1075.97" y="-335.09" font-family="Times,serif" font-size="14.00">*2</text>
</g>
<!-- node10&#45;&gt;node11 -->
<g id="edge28" class="edge">
<title>node10&#45;&gt;node11</title>
<path fill="none" stroke="black" d="M806.66,-368.1C890.09,-357.06 1005.58,-341.52 1094.1,-329.44"/>
<polygon fill="black" stroke="black" points="1094.77,-332.88 1104.21,-328.06 1093.83,-325.95 1094.77,-332.88"/>
</g>
<!-- node11&#45;&gt;node0 -->
<g id="edge24" class="edge">
<title>node11&#45;&gt;node0</title>
<path fill="none" stroke="green" stroke-width="2" d="M1233.37,-328.22C1252.71,-370.75 1294.94,-482.04 1242,-547 1240.6,-548.71 1148.01,-567.53 1073.3,-582.47"/>
<polygon fill="green" stroke="green" stroke-width="2" points="1072.47,-579.07 1063.35,-584.46 1073.85,-585.93 1072.47,-579.07"/>
</g>
<!-- node11&#45;&gt;node12 -->
<g id="edge33" class="edge">
<title>node11&#45;&gt;node12</title>
<path fill="none" stroke="black" d="M1219.12,-291.81C1218.28,-283.79 1218.05,-274.05 1218.42,-265.07"/>
<polygon fill="black" stroke="black" points="1221.92,-265.25 1219.14,-255.03 1214.94,-264.75 1221.92,-265.25"/>
</g>
<!-- node11&#45;&gt;node12 -->
<g id="edge34" class="edge">
<title>node11&#45;&gt;node12</title>
<path fill="none" stroke="red" d="M1230.88,-291.81C1231.72,-283.79 1231.95,-274.05 1231.58,-265.07"/>
<polygon fill="red" stroke="red" points="1235.06,-264.75 1230.86,-255.03 1228.08,-265.25 1235.06,-264.75"/>
</g>
<!-- node12&#45;&gt;node0 -->
<g id="edge30" class="edge">
<title>node12&#45;&gt;node0</title>
<path fill="none" stroke="green" stroke-width="2" d="M1362.29,-244.39C1510.31,-253.16 1725,-272.23 1725,-309 1725,-530 1725,-530 1725,-530 1725,-600.56 1181.88,-576.85 1073.41,-583.85"/>
<polygon fill="green" stroke="green" stroke-width="2" points="1072.98,-580.37 1063.33,-584.74 1073.6,-587.35 1072.98,-580.37"/>
</g>
<!-- node14 -->
<g id="node15" class="node">
<title>node14</title>
<polygon fill="lightgrey" stroke="black" points="1447,-182 1241,-182 1241,-146 1447,-146 1447,-182"/>
<text text-anchor="middle" x="1344" y="-160.3" font-family="Times,serif" font-size="14.00">#14 LabelNode Order : 13</text>
</g>
<!-- node12&#45;&gt;node14 -->
<g id="edge38" class="edge">
<title>node12&#45;&gt;node14</title>
<path fill="none" stroke="red" d="M1247.64,-218.99C1262.56,-209.49 1282.45,-197.54 1300.32,-187.29"/>
<polygon fill="red" stroke="red" points="1302.48,-190.09 1309.45,-182.11 1299.02,-184.01 1302.48,-190.09"/>
</g>
<!-- node16 -->
<g id="node17" class="node">
<title>node16</title>
<polygon fill="lightgrey" stroke="black" points="1293.5,-36 1114.5,-36 1114.5,0 1293.5,0 1293.5,-36"/>
<text text-anchor="middle" x="1204" y="-14.3" font-family="Times,serif" font-size="14.00">#16 Return Order : 15</text>
</g>
<!-- node12&#45;&gt;node16 -->
<g id="edge43" class="edge">
<title>node12&#45;&gt;node16</title>
<path fill="none" stroke="black" d="M1219.51,-218.97C1212.3,-181.51 1203.34,-91.68 1201.98,-46.26"/>
<polygon fill="black" stroke="black" points="1205.48,-46.19 1201.81,-36.25 1198.48,-46.31 1205.48,-46.19"/>
</g>
<!-- node13&#45;&gt;node8 -->
<g id="edge35" class="edge">
<title>node13&#45;&gt;node8</title>
<path fill="none" stroke="green" stroke-width="2" d="M1038.31,-401.03C1030.63,-409.9 1020.13,-420.9 1010.1,-430.65"/>
<polygon fill="green" stroke="green" stroke-width="2" points="1007.41,-428.38 1002.58,-437.81 1012.24,-433.46 1007.41,-428.38"/>
</g>
<!-- node14&#45;&gt;node12 -->
<g id="edge37" class="edge">
<title>node14&#45;&gt;node12</title>
<path fill="none" stroke="green" stroke-width="2" d="M1321.19,-182.11C1306.23,-191.63 1286.34,-203.59 1268.48,-213.82"/>
<polygon fill="green" stroke="green" stroke-width="2" points="1266.33,-211.02 1259.36,-218.99 1269.79,-217.1 1266.33,-211.02"/>
</g>
<!-- node15 -->
<g id="node16" class="node">
<title>node15</title>
<polygon fill="lightgrey" stroke="black" points="1447,-109 1241,-109 1241,-73 1447,-73 1447,-109"/>
<text text-anchor="middle" x="1344" y="-87.3" font-family="Times,serif" font-size="14.00">#15 LabelNode Order : 14</text>
</g>
<!-- node14&#45;&gt;node15 -->
<g id="edge40" class="edge">
<title>node14&#45;&gt;node15</title>
<path fill="none" stroke="red" d="M1338.12,-145.81C1337.28,-137.79 1337.05,-128.05 1337.42,-119.07"/>
<polygon fill="red" stroke="red" points="1340.92,-119.25 1338.14,-109.03 1333.94,-118.75 1340.92,-119.25"/>
</g>
<!-- node15&#45;&gt;node14 -->
<g id="edge39" class="edge">
<title>node15&#45;&gt;node14</title>
<path fill="none" stroke="green" stroke-width="2" d="M1349.86,-109.03C1350.71,-117.03 1350.95,-126.77 1350.59,-135.75"/>
<polygon fill="green" stroke="green" stroke-width="2" points="1347.09,-135.59 1349.88,-145.81 1354.07,-136.08 1347.09,-135.59"/>
</g>
<!-- node15&#45;&gt;node16 -->
<g id="edge42" class="edge">
<title>node15&#45;&gt;node16</title>
<path fill="none" stroke="red" d="M1310.47,-72.99C1291.39,-63.32 1267.29,-51.1 1246.85,-40.73"/>
<polygon fill="red" stroke="red" points="1248.25,-37.52 1237.75,-36.11 1245.08,-43.76 1248.25,-37.52"/>
</g>
<!-- node16&#45;&gt;node12 -->
<g id="edge41" class="edge">
<title>node16&#45;&gt;node12</title>
<path fill="none" stroke="green" stroke-width="2" d="M1209.53,-36.25C1216.73,-73.84 1225.66,-163.39 1227.02,-208.72"/>
<polygon fill="green" stroke="green" stroke-width="2" points="1223.52,-209.03 1227.2,-218.97 1230.52,-208.91 1223.52,-209.03"/>
</g>
<!-- c0 -->
<!-- c1 -->
<!-- c0&#45;&gt;c1 -->
<g id="edge44" class="edge">
<title>c0&#45;&gt;c1</title>
<path fill="none" stroke="red" d="M1794.89,-602C1806.11,-602 1864.24,-602 1889.86,-602"/>
<polygon fill="red" stroke="red" points="1890.06,-605.5 1900.06,-602 1890.06,-598.5 1890.06,-605.5"/>
<text text-anchor="middle" x="1847.5" y="-608.8" font-family="Times,serif" font-size="14.00">Control flow</text>
</g>
<!-- c2 -->
<!-- c3 -->
<!-- c2&#45;&gt;c3 -->
<g id="edge45" class="edge">
<title>c2&#45;&gt;c3</title>
<path fill="none" stroke="red" stroke-dasharray="5,2" d="M1588.08,-602C1605.05,-602 1721.21,-602 1759.08,-602"/>
<polygon fill="red" stroke="red" points="1759.17,-605.5 1769.17,-602 1759.17,-598.5 1759.17,-605.5"/>
<text text-anchor="middle" x="1678.5" y="-608.8" font-family="Times,serif" font-size="14.00">Control flow back edge</text>
</g>
<!-- d0 -->
<!-- d1 -->
<!-- d0&#45;&gt;d1 -->
<g id="edge46" class="edge">
<title>d0&#45;&gt;d1</title>
<path fill="none" stroke="black" d="M1476.86,-602C1486.41,-602 1530.31,-602 1551.92,-602"/>
<polygon fill="black" stroke="black" points="1552.15,-605.5 1562.15,-602 1552.15,-598.5 1552.15,-605.5"/>
<text text-anchor="middle" x="1519.5" y="-608.8" font-family="Times,serif" font-size="14.00">Data flow</text>
</g>
<!-- d2 -->
<!-- d3 -->
<!-- d2&#45;&gt;d3 -->
<g id="edge47" class="edge">
<title>d2&#45;&gt;d3</title>
<path fill="none" stroke="black" stroke-dasharray="1,5" d="M1350.81,-602C1361.46,-602 1416.46,-602 1441.08,-602"/>
<polygon fill="black" stroke="black" points="1441.15,-605.5 1451.15,-602 1441.15,-598.5 1441.15,-605.5"/>
<text text-anchor="middle" x="1401" y="-608.8" font-family="Times,serif" font-size="14.00">Declaration</text>
</g>
<!-- d4 -->
<!-- d5 -->
<!-- d4&#45;&gt;d5 -->
<g id="edge48" class="edge">
<title>d4&#45;&gt;d5</title>
<path fill="none" stroke="blue" d="M1208.1,-602C1220.72,-602 1286.88,-602 1314.68,-602"/>
<polygon fill="blue" stroke="blue" points="1314.84,-605.5 1324.84,-602 1314.84,-598.5 1314.84,-605.5"/>
<text text-anchor="middle" x="1266.5" y="-608.8" font-family="Times,serif" font-size="14.00">PHI Data flow</text>
</g>
<!-- d6 -->
<!-- d7 -->
<!-- d6&#45;&gt;d7 -->
<g id="edge49" class="edge">
<title>d6&#45;&gt;d7</title>
<path fill="none" stroke="green" d="M1085.11,-602C1096.15,-602 1147.67,-602 1171.66,-602"/>
<polygon fill="green" stroke="green" points="1171.9,-605.5 1181.9,-602 1171.9,-598.5 1171.9,-605.5"/>
<text text-anchor="middle" x="1133.5" y="-608.8" font-family="Times,serif" font-size="14.00">Dominance</text>
</g>
</g>
</svg>
