<?xml version="1.0" encoding="UTF-8" standalone="no"?>
<!DOCTYPE svg PUBLIC "-//W3C//DTD SVG 1.1//EN"
 "http://www.w3.org/Graphics/SVG/1.1/DTD/svg11.dtd">
<!-- Generated by graphviz version 2.43.0 (0)
 -->
<!-- Title: debugoutput Pages: 1 -->
<svg width="1593pt" height="797pt"
 viewBox="0.00 0.00 1593.00 796.80" xmlns="http://www.w3.org/2000/svg" xmlns:xlink="http://www.w3.org/1999/xlink">
<g id="graph0" class="graph" transform="scale(1 1) rotate(0) translate(4 792.8)">
<title>debugoutput</title>
<polygon fill="white" stroke="transparent" points="-4,4 -4,-792.8 1589,-792.8 1589,4 -4,4"/>
<g id="clust1" class="cluster">
<title>cluster_000</title>
<polygon fill="none" stroke="black" points="738,-738.2 738,-780.8 1577,-780.8 1577,-738.2 738,-738.2"/>
<text text-anchor="middle" x="1157.5" y="-765.6" font-family="Times,serif" font-size="14.00">Legend</text>
</g>
<!-- node0 -->
<g id="node1" class="node">
<title>node0</title>
<polygon fill="lightgrey" stroke="black" points="728,-766 562,-766 562,-730 728,-730 728,-766"/>
<text text-anchor="middle" x="645" y="-744.3" font-family="Times,serif" font-size="14.00">#0 Method Order : 0</text>
</g>
<!-- node1 -->
<g id="node2" class="node">
<title>node1</title>
<polygon fill="lightgrey" stroke="black" points="230,-693 0,-693 0,-657 230,-657 230,-693"/>
<text text-anchor="middle" x="115" y="-671.3" font-family="Times,serif" font-size="14.00">#1 this : ArrayTest Order : 16</text>
</g>
<!-- node0&#45;&gt;node1 -->
<g id="edge2" class="edge">
<title>node0&#45;&gt;node1</title>
<path fill="none" stroke="black" d="M562,-744.54C478.6,-740.95 346.9,-732.32 235,-712 213.08,-708.02 189.49,-701.98 169.04,-695.97"/>
<polygon fill="black" stroke="black" points="169.85,-692.56 159.26,-693.03 167.83,-699.26 169.85,-692.56"/>
<text text-anchor="middle" x="179.06" y="-686.46" font-family="Times,serif" font-size="14.00">*0</text>
</g>
<!-- node2 -->
<g id="node3" class="node">
<title>node2</title>
<polygon fill="lightgrey" stroke="black" points="739,-693 551,-693 551,-657 739,-657 739,-693"/>
<text text-anchor="middle" x="645" y="-671.3" font-family="Times,serif" font-size="14.00">#2 LabelNode Order : 1</text>
</g>
<!-- node0&#45;&gt;node2 -->
<g id="edge4" class="edge">
<title>node0&#45;&gt;node2</title>
<path fill="none" stroke="red" d="M639.12,-729.81C638.28,-721.79 638.05,-712.05 638.42,-703.07"/>
<polygon fill="red" stroke="red" points="641.92,-703.25 639.14,-693.03 634.94,-702.75 641.92,-703.25"/>
</g>
<!-- node6 -->
<g id="node7" class="node">
<title>node6</title>
<polygon fill="orange" stroke="black" points="487.41,-521.54 487.41,-536.46 362.98,-547 187.02,-547 62.59,-536.46 62.59,-521.54 187.02,-511 362.98,-511 487.41,-521.54"/>
<text text-anchor="middle" x="275" y="-525.3" font-family="Times,serif" font-size="14.00">#6 NewMultiArray : Object[][] Order : 4</text>
</g>
<!-- node0&#45;&gt;node6 -->
<g id="edge14" class="edge">
<title>node0&#45;&gt;node6</title>
<path fill="none" stroke="black" d="M561.98,-740.39C479.54,-729.28 355.85,-699.53 286,-620 270.94,-602.85 266.45,-576.88 266.99,-557.24"/>
<polygon fill="black" stroke="black" points="270.49,-557.31 267.76,-547.08 263.51,-556.78 270.49,-557.31"/>
</g>
<!-- node1&#45;&gt;node0 -->
<g id="edge1" class="edge">
<title>node1&#45;&gt;node0</title>
<path fill="none" stroke="green" stroke-width="2" d="M175.78,-693.03C199.73,-699.94 227.49,-707.37 253,-712 354.38,-730.41 472,-739.22 551.8,-743.39"/>
<polygon fill="green" stroke="green" stroke-width="2" points="551.67,-746.88 561.83,-743.9 552.02,-739.89 551.67,-746.88"/>
</g>
<!-- node2&#45;&gt;node0 -->
<g id="edge3" class="edge">
<title>node2&#45;&gt;node0</title>
<path fill="none" stroke="green" stroke-width="2" d="M650.86,-693.03C651.71,-701.03 651.95,-710.77 651.59,-719.75"/>
<polygon fill="green" stroke="green" stroke-width="2" points="648.09,-719.59 650.88,-729.81 655.07,-720.08 648.09,-719.59"/>
</g>
<!-- node3 -->
<g id="node4" class="node">
<title>node3</title>
<polygon fill="lightgrey" stroke="black" points="959,-620 771,-620 771,-584 959,-584 959,-620"/>
<text text-anchor="middle" x="865" y="-598.3" font-family="Times,serif" font-size="14.00">#3 LabelNode Order : 6</text>
</g>
<!-- node2&#45;&gt;node3 -->
<g id="edge6" class="edge">
<title>node2&#45;&gt;node3</title>
<path fill="none" stroke="red" d="M691.84,-656.99C722.23,-646.84 762.28,-633.88 796.24,-623.2"/>
<polygon fill="red" stroke="red" points="797.61,-626.44 806.1,-620.11 795.51,-619.76 797.61,-626.44"/>
</g>
<!-- node4 -->
<g id="node5" class="node">
<title>node4</title>
<polygon fill="lightgreen" stroke="black" points="519.77,-594.54 519.77,-609.46 456.64,-620 367.36,-620 304.23,-609.46 304.23,-594.54 367.36,-584 456.64,-584 519.77,-594.54"/>
<text text-anchor="middle" x="412" y="-598.3" font-family="Times,serif" font-size="14.00">#4 int 20 Order : 3</text>
</g>
<!-- node2&#45;&gt;node4 -->
<g id="edge8" class="edge">
<title>node2&#45;&gt;node4</title>
<path fill="none" stroke="black" stroke-dasharray="1,5" d="M583.33,-656.99C548.29,-646.65 504.73,-633.4 470.27,-622.62"/>
<polygon fill="black" stroke="black" points="470.93,-619.16 460.34,-619.5 468.84,-625.84 470.93,-619.16"/>
</g>
<!-- node5 -->
<g id="node6" class="node">
<title>node5</title>
<polygon fill="lightgreen" stroke="black" points="752.77,-594.54 752.77,-609.46 689.64,-620 600.36,-620 537.23,-609.46 537.23,-594.54 600.36,-584 689.64,-584 752.77,-594.54"/>
<text text-anchor="middle" x="645" y="-598.3" font-family="Times,serif" font-size="14.00">#5 int 10 Order : 2</text>
</g>
<!-- node2&#45;&gt;node5 -->
<g id="edge10" class="edge">
<title>node2&#45;&gt;node5</title>
<path fill="none" stroke="black" stroke-dasharray="1,5" d="M639.12,-656.81C638.28,-648.79 638.05,-639.05 638.42,-630.07"/>
<polygon fill="black" stroke="black" points="641.92,-630.25 639.14,-620.03 634.94,-629.75 641.92,-630.25"/>
</g>
<!-- node3&#45;&gt;node2 -->
<g id="edge5" class="edge">
<title>node3&#45;&gt;node2</title>
<path fill="none" stroke="green" stroke-width="2" d="M817.84,-620.11C787.38,-630.29 747.32,-643.25 713.4,-653.91"/>
<polygon fill="green" stroke="green" stroke-width="2" points="712.05,-650.66 703.55,-656.99 714.14,-657.34 712.05,-650.66"/>
</g>
<!-- node7 -->
<g id="node8" class="node">
<title>node7</title>
<polygon fill="lightgreen" stroke="black" points="966.11,-521.54 966.11,-536.46 906.88,-547 823.12,-547 763.89,-536.46 763.89,-521.54 823.12,-511 906.88,-511 966.11,-521.54"/>
<text text-anchor="middle" x="865" y="-525.3" font-family="Times,serif" font-size="14.00">#7 int 5 Order : 8</text>
</g>
<!-- node3&#45;&gt;node7 -->
<g id="edge16" class="edge">
<title>node3&#45;&gt;node7</title>
<path fill="none" stroke="black" stroke-dasharray="1,5" d="M859.12,-583.81C858.28,-575.79 858.05,-566.05 858.42,-557.07"/>
<polygon fill="black" stroke="black" points="861.92,-557.25 859.14,-547.03 854.94,-556.75 861.92,-557.25"/>
</g>
<!-- node8 -->
<g id="node9" class="node">
<title>node8</title>
<polygon fill="lightgreen" stroke="black" points="745.11,-521.54 745.11,-536.46 685.88,-547 602.12,-547 542.89,-536.46 542.89,-521.54 602.12,-511 685.88,-511 745.11,-521.54"/>
<text text-anchor="middle" x="644" y="-525.3" font-family="Times,serif" font-size="14.00">#8 int 0 Order : 7</text>
</g>
<!-- node3&#45;&gt;node8 -->
<g id="edge18" class="edge">
<title>node3&#45;&gt;node8</title>
<path fill="none" stroke="black" stroke-dasharray="1,5" d="M806.21,-583.99C773.06,-573.7 731.95,-560.52 699.37,-549.76"/>
<polygon fill="black" stroke="black" points="700.15,-546.33 689.56,-546.5 697.95,-552.97 700.15,-546.33"/>
</g>
<!-- node11 -->
<g id="node12" class="node">
<title>node11</title>
<polygon fill="lightgrey" stroke="black" points="841.5,-401 552.5,-401 552.5,-365 841.5,-365 841.5,-401"/>
<text text-anchor="middle" x="697" y="-379.3" font-family="Times,serif" font-size="14.00">#11 ArrayStore : Object[][] Order : 10</text>
</g>
<!-- node3&#45;&gt;node11 -->
<g id="edge29" class="edge">
<title>node3&#45;&gt;node11</title>
<path fill="none" stroke="red" d="M770.98,-585.47C767.95,-584.97 764.95,-584.48 762,-584 711.34,-575.71 567.26,-586.09 534,-547 487.96,-492.89 584.15,-435.44 647.46,-405.31"/>
<polygon fill="red" stroke="red" points="648.96,-408.47 656.54,-401.06 645.99,-402.13 648.96,-408.47"/>
</g>
<!-- node4&#45;&gt;node2 -->
<g id="edge7" class="edge">
<title>node4&#45;&gt;node2</title>
<path fill="none" stroke="green" stroke-width="2" d="M467.86,-618.3C503.27,-628.7 548.97,-642.58 585.12,-653.88"/>
<polygon fill="green" stroke="green" stroke-width="2" points="584.46,-657.34 595.05,-656.99 586.56,-650.66 584.46,-657.34"/>
</g>
<!-- node4&#45;&gt;node6 -->
<g id="edge12" class="edge">
<title>node4&#45;&gt;node6</title>
<path fill="none" stroke="black" d="M379.19,-583.99C360.51,-574.32 336.93,-562.1 316.93,-551.73"/>
<polygon fill="black" stroke="black" points="318.51,-548.61 308.02,-547.11 315.29,-554.82 318.51,-548.61"/>
<text text-anchor="middle" x="328" y="-544.25" font-family="Times,serif" font-size="14.00">*0</text>
</g>
<!-- node5&#45;&gt;node2 -->
<g id="edge9" class="edge">
<title>node5&#45;&gt;node2</title>
<path fill="none" stroke="green" stroke-width="2" d="M650.86,-620.03C651.71,-628.03 651.95,-637.77 651.59,-646.75"/>
<polygon fill="green" stroke="green" stroke-width="2" points="648.09,-646.59 650.88,-656.81 655.07,-647.08 648.09,-646.59"/>
</g>
<!-- node5&#45;&gt;node6 -->
<g id="edge13" class="edge">
<title>node5&#45;&gt;node6</title>
<path fill="none" stroke="black" d="M576.71,-587.89C519.72,-576.96 437.77,-561.23 373.65,-548.93"/>
<polygon fill="black" stroke="black" points="374,-545.43 363.52,-546.99 372.69,-552.31 374,-545.43"/>
<text text-anchor="middle" x="382.92" y="-538.4" font-family="Times,serif" font-size="14.00">*1</text>
</g>
<!-- node6&#45;&gt;node0 -->
<g id="edge11" class="edge">
<title>node6&#45;&gt;node0</title>
<path fill="none" stroke="green" stroke-width="2" d="M280.59,-547.08C283.15,-566.96 286.15,-599.68 304,-620 367.07,-691.81 474.05,-723.04 551.43,-736.6"/>
<polygon fill="green" stroke="green" stroke-width="2" points="551.23,-740.12 561.67,-738.33 552.39,-733.21 551.23,-740.12"/>
</g>
<!-- node9 -->
<g id="node10" class="node">
<title>node9</title>
<polygon fill="orange" stroke="black" points="411.3,-448.54 411.3,-463.46 328.53,-474 211.47,-474 128.7,-463.46 128.7,-448.54 211.47,-438 328.53,-438 411.3,-448.54"/>
<text text-anchor="middle" x="270" y="-452.3" font-family="Times,serif" font-size="14.00">#9 ArrayLength Order : 5</text>
</g>
<!-- node6&#45;&gt;node9 -->
<g id="edge20" class="edge">
<title>node6&#45;&gt;node9</title>
<path fill="none" stroke="black" d="M267.91,-510.81C266.51,-502.79 265.59,-493.05 265.33,-484.07"/>
<polygon fill="black" stroke="black" points="268.83,-484.03 265.34,-474.03 261.83,-484.03 268.83,-484.03"/>
<text text-anchor="middle" x="273.77" y="-488.46" font-family="Times,serif" font-size="14.00">*0</text>
</g>
<!-- node10 -->
<g id="node11" class="node">
<title>node10</title>
<polygon fill="orange" stroke="black" points="1004.04,-448.54 1004.04,-463.46 895.64,-474 742.36,-474 633.96,-463.46 633.96,-448.54 742.36,-438 895.64,-438 1004.04,-448.54"/>
<text text-anchor="middle" x="819" y="-452.3" font-family="Times,serif" font-size="14.00">#10 NewArray : Object[] Order : 9</text>
</g>
<!-- node6&#45;&gt;node10 -->
<g id="edge23" class="edge">
<title>node6&#45;&gt;node10</title>
<path fill="none" stroke="black" d="M388.71,-513.16C480.37,-501.2 608.81,-484.43 701.47,-472.34"/>
<polygon fill="black" stroke="black" points="701.99,-475.8 711.46,-471.04 701.09,-468.86 701.99,-475.8"/>
</g>
<!-- node6&#45;&gt;node11 -->
<g id="edge25" class="edge">
<title>node6&#45;&gt;node11</title>
<path fill="none" stroke="black" d="M406.73,-514.67C423.15,-509.46 439.04,-502.44 453,-493 485.47,-471.03 468.34,-440.68 501,-419 510.26,-412.85 527.24,-407.58 547.47,-403.14"/>
<polygon fill="black" stroke="black" points="548.24,-406.56 557.31,-401.09 546.81,-399.71 548.24,-406.56"/>
<text text-anchor="middle" x="541.29" y="-409.36" font-family="Times,serif" font-size="14.00">*0</text>
</g>
<!-- node13 -->
<g id="node14" class="node">
<title>node13</title>
<polygon fill="lightgrey" stroke="black" points="890,-255 616,-255 616,-219 890,-219 890,-255"/>
<text text-anchor="middle" x="753" y="-233.3" font-family="Times,serif" font-size="14.00">#13 ArrayLoad : Object[] Order : 12</text>
</g>
<!-- node6&#45;&gt;node13 -->
<g id="edge33" class="edge">
<title>node6&#45;&gt;node13</title>
<path fill="none" stroke="black" d="M390.24,-513.23C417.59,-502.93 439,-485.7 439,-457 439,-457 439,-457 439,-309 439,-271.82 523.83,-254.11 605.3,-245.67"/>
<polygon fill="black" stroke="black" points="606.13,-249.11 615.73,-244.64 605.44,-242.14 606.13,-249.11"/>
<text text-anchor="middle" x="598.53" y="-251.13" font-family="Times,serif" font-size="14.00">*0</text>
</g>
<!-- node7&#45;&gt;node3 -->
<g id="edge15" class="edge">
<title>node7&#45;&gt;node3</title>
<path fill="none" stroke="green" stroke-width="2" d="M870.86,-547.03C871.71,-555.03 871.95,-564.77 871.59,-573.75"/>
<polygon fill="green" stroke="green" stroke-width="2" points="868.09,-573.59 870.88,-583.81 875.07,-574.08 868.09,-573.59"/>
</g>
<!-- node7&#45;&gt;node10 -->
<g id="edge22" class="edge">
<title>node7&#45;&gt;node10</title>
<path fill="none" stroke="black" d="M853.86,-510.81C848.38,-502.35 841.67,-491.98 835.59,-482.61"/>
<polygon fill="black" stroke="black" points="838.41,-480.52 830.03,-474.03 832.53,-484.32 838.41,-480.52"/>
<text text-anchor="middle" x="846.98" y="-480.95" font-family="Times,serif" font-size="14.00">*0</text>
</g>
<!-- node8&#45;&gt;node3 -->
<g id="edge17" class="edge">
<title>node8&#45;&gt;node3</title>
<path fill="none" stroke="green" stroke-width="2" d="M696.89,-545.18C730.44,-555.55 773.75,-569.41 808.05,-580.72"/>
<polygon fill="green" stroke="green" stroke-width="2" points="807.33,-584.17 817.92,-583.99 809.53,-577.53 807.33,-584.17"/>
</g>
<!-- node8&#45;&gt;node11 -->
<g id="edge26" class="edge">
<title>node8&#45;&gt;node11</title>
<path fill="none" stroke="black" d="M634.04,-510.9C624.52,-492.14 613.22,-461.57 625,-438 631.3,-425.4 642.08,-414.98 653.42,-406.77"/>
<polygon fill="black" stroke="black" points="655.38,-409.67 661.71,-401.18 651.47,-403.87 655.38,-409.67"/>
<text text-anchor="middle" x="651.41" y="-414.62" font-family="Times,serif" font-size="14.00">*1</text>
</g>
<!-- node9&#45;&gt;node6 -->
<g id="edge19" class="edge">
<title>node9&#45;&gt;node6</title>
<path fill="none" stroke="green" stroke-width="2" d="M277.06,-474.03C278.47,-482.03 279.4,-491.77 279.67,-500.75"/>
<polygon fill="green" stroke="green" stroke-width="2" points="276.17,-500.81 279.67,-510.81 283.17,-500.81 276.17,-500.81"/>
</g>
<!-- node10&#45;&gt;node0 -->
<g id="edge21" class="edge">
<title>node10&#45;&gt;node0</title>
<path fill="none" stroke="green" stroke-width="2" d="M941.49,-469.61C970.9,-479.8 994,-497.51 994,-528 994,-676 994,-676 994,-676 994,-679.27 841.38,-709.26 738,-729.21"/>
<polygon fill="green" stroke="green" stroke-width="2" points="737.31,-725.78 728.15,-731.1 738.63,-732.65 737.31,-725.78"/>
</g>
<!-- node10&#45;&gt;node11 -->
<g id="edge27" class="edge">
<title>node10&#45;&gt;node11</title>
<path fill="none" stroke="black" d="M783.92,-437.99C766.74,-428.58 746.27,-416.76 729.45,-406.57"/>
<polygon fill="black" stroke="black" points="730.89,-403.35 720.54,-401.11 727.24,-409.32 730.89,-403.35"/>
<text text-anchor="middle" x="740.41" y="-399.67" font-family="Times,serif" font-size="14.00">*2</text>
</g>
<!-- node10&#45;&gt;node11 -->
<g id="edge28" class="edge">
<title>node10&#45;&gt;node11</title>
<path fill="none" stroke="black" d="M795.64,-437.99C780.18,-428.4 759.55,-416.32 741.12,-406.01"/>
<polygon fill="black" stroke="black" points="742.72,-402.9 732.28,-401.11 739.33,-409.02 742.72,-402.9"/>
</g>
<!-- node11&#45;&gt;node0 -->
<g id="edge24" class="edge">
<title>node11&#45;&gt;node0</title>
<path fill="none" stroke="green" stroke-width="2" d="M841.5,-388.93C932.17,-396.11 1032,-413.46 1032,-455 1032,-676 1032,-676 1032,-676 1032,-740.41 819.8,-720.51 738.49,-729.58"/>
<polygon fill="green" stroke="green" stroke-width="2" points="737.79,-726.14 728.36,-730.98 738.75,-733.07 737.79,-726.14"/>
</g>
<!-- node12 -->
<g id="node13" class="node">
<title>node12</title>
<polygon fill="lightgreen" stroke="black" points="715.93,-302.54 715.93,-317.46 649.19,-328 554.81,-328 488.07,-317.46 488.07,-302.54 554.81,-292 649.19,-292 715.93,-302.54"/>
<text text-anchor="middle" x="602" y="-306.3" font-family="Times,serif" font-size="14.00">#12 int 1 Order : 11</text>
</g>
<!-- node11&#45;&gt;node12 -->
<g id="edge31" class="edge">
<title>node11&#45;&gt;node12</title>
<path fill="none" stroke="black" stroke-dasharray="1,5" d="M668.39,-364.99C655.17,-355.84 639.7,-344.41 626.96,-334.43"/>
<polygon fill="black" stroke="black" points="629.03,-331.61 619.03,-328.11 624.67,-337.08 629.03,-331.61"/>
</g>
<!-- node11&#45;&gt;node13 -->
<g id="edge35" class="edge">
<title>node11&#45;&gt;node13</title>
<path fill="none" stroke="black" d="M699.06,-364.86C703.64,-354.42 710.78,-340.7 716,-328 724.56,-307.18 732,-282.76 738.45,-264.61"/>
<polygon fill="black" stroke="black" points="741.73,-265.83 741.94,-255.24 735.17,-263.39 741.73,-265.83"/>
</g>
<!-- node11&#45;&gt;node13 -->
<g id="edge36" class="edge">
<title>node11&#45;&gt;node13</title>
<path fill="none" stroke="red" d="M714.7,-364.86C721.64,-354.42 728.78,-340.7 734,-328 742.48,-307.38 749.86,-283.21 753.56,-265.12"/>
<polygon fill="red" stroke="red" points="757.01,-265.69 755.29,-255.24 750.12,-264.48 757.01,-265.69"/>
</g>
<!-- node12&#45;&gt;node11 -->
<g id="edge30" class="edge">
<title>node12&#45;&gt;node11</title>
<path fill="none" stroke="green" stroke-width="2" d="M630.65,-328.03C643.83,-337.16 659.25,-348.55 671.97,-358.51"/>
<polygon fill="green" stroke="green" stroke-width="2" points="669.88,-361.32 679.88,-364.81 674.24,-355.85 669.88,-361.32"/>
</g>
<!-- node12&#45;&gt;node13 -->
<g id="edge34" class="edge">
<title>node12&#45;&gt;node13</title>
<path fill="none" stroke="black" d="M638.17,-291.99C658.93,-282.23 685.21,-269.88 707.38,-259.45"/>
<polygon fill="black" stroke="black" points="709.04,-262.54 716.6,-255.11 706.06,-256.2 709.04,-262.54"/>
<text text-anchor="middle" x="703.8" y="-266.78" font-family="Times,serif" font-size="14.00">*1</text>
</g>
<!-- node13&#45;&gt;node0 -->
<g id="edge32" class="edge">
<title>node13&#45;&gt;node0</title>
<path fill="none" stroke="green" stroke-width="2" d="M890.2,-244.29C975.87,-252.11 1070,-269.66 1070,-309 1070,-676 1070,-676 1070,-676 1070,-748.74 828.52,-722.63 738.31,-729.75"/>
<polygon fill="green" stroke="green" stroke-width="2" points="737.93,-726.27 728.33,-730.76 738.63,-733.24 737.93,-726.27"/>
</g>
<!-- node14 -->
<g id="node15" class="node">
<title>node14</title>
<polygon fill="lightgrey" stroke="black" points="975,-182 769,-182 769,-146 975,-146 975,-182"/>
<text text-anchor="middle" x="872" y="-160.3" font-family="Times,serif" font-size="14.00">#14 LabelNode Order : 13</text>
</g>
<!-- node13&#45;&gt;node14 -->
<g id="edge38" class="edge">
<title>node13&#45;&gt;node14</title>
<path fill="none" stroke="red" d="M775.64,-218.99C790.56,-209.49 810.45,-197.54 828.32,-187.29"/>
<polygon fill="red" stroke="red" points="830.48,-190.09 837.45,-182.11 827.02,-184.01 830.48,-190.09"/>
</g>
<!-- node16 -->
<g id="node17" class="node">
<title>node16</title>
<polygon fill="lightgrey" stroke="black" points="821.5,-36 642.5,-36 642.5,0 821.5,0 821.5,-36"/>
<text text-anchor="middle" x="732" y="-14.3" font-family="Times,serif" font-size="14.00">#16 Return Order : 15</text>
</g>
<!-- node13&#45;&gt;node16 -->
<g id="edge43" class="edge">
<title>node13&#45;&gt;node16</title>
<path fill="none" stroke="black" d="M747.51,-218.97C740.3,-181.51 731.34,-91.68 729.98,-46.26"/>
<polygon fill="black" stroke="black" points="733.48,-46.19 729.81,-36.25 726.48,-46.31 733.48,-46.19"/>
</g>
<!-- node14&#45;&gt;node13 -->
<g id="edge37" class="edge">
<title>node14&#45;&gt;node13</title>
<path fill="none" stroke="green" stroke-width="2" d="M849.19,-182.11C834.23,-191.63 814.34,-203.59 796.48,-213.82"/>
<polygon fill="green" stroke="green" stroke-width="2" points="794.33,-211.02 787.36,-218.99 797.79,-217.1 794.33,-211.02"/>
</g>
<!-- node15 -->
<g id="node16" class="node">
<title>node15</title>
<polygon fill="lightgrey" stroke="black" points="975,-109 769,-109 769,-73 975,-73 975,-109"/>
<text text-anchor="middle" x="872" y="-87.3" font-family="Times,serif" font-size="14.00">#15 LabelNode Order : 14</text>
</g>
<!-- node14&#45;&gt;node15 -->
<g id="edge40" class="edge">
<title>node14&#45;&gt;node15</title>
<path fill="none" stroke="red" d="M866.12,-145.81C865.28,-137.79 865.05,-128.05 865.42,-119.07"/>
<polygon fill="red" stroke="red" points="868.92,-119.25 866.14,-109.03 861.94,-118.75 868.92,-119.25"/>
</g>
<!-- node15&#45;&gt;node14 -->
<g id="edge39" class="edge">
<title>node15&#45;&gt;node14</title>
<path fill="none" stroke="green" stroke-width="2" d="M877.86,-109.03C878.71,-117.03 878.95,-126.77 878.59,-135.75"/>
<polygon fill="green" stroke="green" stroke-width="2" points="875.09,-135.59 877.88,-145.81 882.07,-136.08 875.09,-135.59"/>
</g>
<!-- node15&#45;&gt;node16 -->
<g id="edge42" class="edge">
<title>node15&#45;&gt;node16</title>
<path fill="none" stroke="red" d="M838.47,-72.99C819.39,-63.32 795.29,-51.1 774.85,-40.73"/>
<polygon fill="red" stroke="red" points="776.25,-37.52 765.75,-36.11 773.08,-43.76 776.25,-37.52"/>
</g>
<!-- node16&#45;&gt;node13 -->
<g id="edge41" class="edge">
<title>node16&#45;&gt;node13</title>
<path fill="none" stroke="green" stroke-width="2" d="M737.53,-36.25C744.73,-73.84 753.66,-163.39 755.02,-208.72"/>
<polygon fill="green" stroke="green" stroke-width="2" points="751.52,-209.03 755.2,-218.97 758.52,-208.91 751.52,-209.03"/>
</g>
<!-- c0 -->
<!-- c1 -->
<!-- c0&#45;&gt;c1 -->
<g id="edge44" class="edge">
<title>c0&#45;&gt;c1</title>
<path fill="none" stroke="red" d="M1459.89,-748C1471.11,-748 1529.24,-748 1554.86,-748"/>
<polygon fill="red" stroke="red" points="1555.06,-751.5 1565.06,-748 1555.06,-744.5 1555.06,-751.5"/>
<text text-anchor="middle" x="1512.5" y="-754.8" font-family="Times,serif" font-size="14.00">Control flow</text>
</g>
<!-- c2 -->
<!-- c3 -->
<!-- c2&#45;&gt;c3 -->
<g id="edge45" class="edge">
<title>c2&#45;&gt;c3</title>
<path fill="none" stroke="red" stroke-dasharray="5,2" d="M1253.08,-748C1270.05,-748 1386.21,-748 1424.08,-748"/>
<polygon fill="red" stroke="red" points="1424.17,-751.5 1434.17,-748 1424.17,-744.5 1424.17,-751.5"/>
<text text-anchor="middle" x="1343.5" y="-754.8" font-family="Times,serif" font-size="14.00">Control flow back edge</text>
</g>
<!-- d0 -->
<!-- d1 -->
<!-- d0&#45;&gt;d1 -->
<g id="edge46" class="edge">
<title>d0&#45;&gt;d1</title>
<path fill="none" stroke="black" d="M1141.86,-748C1151.41,-748 1195.31,-748 1216.92,-748"/>
<polygon fill="black" stroke="black" points="1217.15,-751.5 1227.15,-748 1217.15,-744.5 1217.15,-751.5"/>
<text text-anchor="middle" x="1184.5" y="-754.8" font-family="Times,serif" font-size="14.00">Data flow</text>
</g>
<!-- d2 -->
<!-- d3 -->
<!-- d2&#45;&gt;d3 -->
<g id="edge47" class="edge">
<title>d2&#45;&gt;d3</title>
<path fill="none" stroke="black" stroke-dasharray="1,5" d="M1015.81,-748C1026.46,-748 1081.46,-748 1106.08,-748"/>
<polygon fill="black" stroke="black" points="1106.15,-751.5 1116.15,-748 1106.15,-744.5 1106.15,-751.5"/>
<text text-anchor="middle" x="1066" y="-754.8" font-family="Times,serif" font-size="14.00">Declaration</text>
</g>
<!-- d4 -->
<!-- d5 -->
<!-- d4&#45;&gt;d5 -->
<g id="edge48" class="edge">
<title>d4&#45;&gt;d5</title>
<path fill="none" stroke="blue" d="M873.1,-748C885.72,-748 951.88,-748 979.68,-748"/>
<polygon fill="blue" stroke="blue" points="979.84,-751.5 989.84,-748 979.84,-744.5 979.84,-751.5"/>
<text text-anchor="middle" x="931.5" y="-754.8" font-family="Times,serif" font-size="14.00">PHI Data flow</text>
</g>
<!-- d6 -->
<!-- d7 -->
<!-- d6&#45;&gt;d7 -->
<g id="edge49" class="edge">
<title>d6&#45;&gt;d7</title>
<path fill="none" stroke="green" d="M750.11,-748C761.15,-748 812.67,-748 836.66,-748"/>
<polygon fill="green" stroke="green" points="836.9,-751.5 846.9,-748 836.9,-744.5 836.9,-751.5"/>
<text text-anchor="middle" x="798.5" y="-754.8" font-family="Times,serif" font-size="14.00">Dominance</text>
</g>
</g>
</svg>
