<?xml version="1.0" encoding="UTF-8" standalone="no"?>
<!DOCTYPE svg PUBLIC "-//W3C//DTD SVG 1.1//EN"
 "http://www.w3.org/Graphics/SVG/1.1/DTD/svg11.dtd">
<!-- Generated by graphviz version 2.43.0 (0)
 -->
<!-- Title: debugoutput Pages: 1 -->
<svg width="1888pt" height="651pt"
 viewBox="0.00 0.00 1888.00 650.80" xmlns="http://www.w3.org/2000/svg" xmlns:xlink="http://www.w3.org/1999/xlink">
<g id="graph0" class="graph" transform="scale(1 1) rotate(0) translate(4 646.8)">
<title>debugoutput</title>
<polygon fill="white" stroke="transparent" points="-4,4 -4,-646.8 1884,-646.8 1884,4 -4,4"/>
<g id="clust1" class="cluster">
<title>cluster_000</title>
<polygon fill="none" stroke="black" points="1033,-592.2 1033,-634.8 1872,-634.8 1872,-592.2 1033,-592.2"/>
<text text-anchor="middle" x="1452.5" y="-619.6" font-family="Times,serif" font-size="14.00">Legend</text>
</g>
<!-- node0 -->
<g id="node1" class="node">
<title>node0</title>
<polygon fill="lightgrey" stroke="black" points="1023,-620 857,-620 857,-584 1023,-584 1023,-620"/>
<text text-anchor="middle" x="940" y="-598.3" font-family="Times,serif" font-size="14.00">#0 Method Order : 0</text>
</g>
<!-- node1 -->
<g id="node2" class="node">
<title>node1</title>
<polygon fill="lightgrey" stroke="black" points="230,-547 0,-547 0,-511 230,-511 230,-547"/>
<text text-anchor="middle" x="115" y="-525.3" font-family="Times,serif" font-size="14.00">#1 this : ArrayTest Order : 16</text>
</g>
<!-- node0&#45;&gt;node1 -->
<g id="edge2" class="edge">
<title>node0&#45;&gt;node1</title>
<path fill="none" stroke="red" d="M856.78,-596.53C725.82,-588.85 463.72,-571.68 239.64,-548.02"/>
<polygon fill="red" stroke="red" points="239.99,-544.54 229.68,-546.97 239.25,-551.5 239.99,-544.54"/>
</g>
<!-- node2 -->
<g id="node3" class="node">
<title>node2</title>
<polygon fill="lightgrey" stroke="black" points="436,-547 248,-547 248,-511 436,-511 436,-547"/>
<text text-anchor="middle" x="342" y="-525.3" font-family="Times,serif" font-size="14.00">#2 LabelNode Order : 9</text>
</g>
<!-- node0&#45;&gt;node2 -->
<g id="edge4" class="edge">
<title>node0&#45;&gt;node2</title>
<path fill="none" stroke="red" d="M856.84,-593.93C758.97,-584.89 591.59,-568.02 446.4,-548.41"/>
<polygon fill="red" stroke="red" points="446.81,-544.94 436.43,-547.06 445.87,-551.87 446.81,-544.94"/>
</g>
<!-- node4 -->
<g id="node5" class="node">
<title>node4</title>
<polygon fill="orange" stroke="black" points="1043.41,-448.54 1043.41,-463.46 918.98,-474 743.02,-474 618.59,-463.46 618.59,-448.54 743.02,-438 918.98,-438 1043.41,-448.54"/>
<text text-anchor="middle" x="831" y="-452.3" font-family="Times,serif" font-size="14.00">#4 NewMultiArray : Object[][] Order : 6</text>
</g>
<!-- node0&#45;&gt;node4 -->
<g id="edge10" class="edge">
<title>node0&#45;&gt;node4</title>
<path fill="none" stroke="black" d="M931.63,-583.86C926.3,-564.52 919.37,-532.88 903,-511 893.62,-498.46 880.43,-487.93 867.83,-479.59"/>
<polygon fill="black" stroke="black" points="869.58,-476.56 859.26,-474.17 865.84,-482.47 869.58,-476.56"/>
</g>
<!-- node8 -->
<g id="node6" class="node">
<title>node8</title>
<polygon fill="lightgreen" stroke="black" points="669.77,-521.54 669.77,-536.46 606.64,-547 517.36,-547 454.23,-536.46 454.23,-521.54 517.36,-511 606.64,-511 669.77,-521.54"/>
<text text-anchor="middle" x="562" y="-525.3" font-family="Times,serif" font-size="14.00">#8 int 20 Order : 4</text>
</g>
<!-- node0&#45;&gt;node8 -->
<g id="edge19" class="edge">
<title>node0&#45;&gt;node8</title>
<path fill="none" stroke="black" stroke-dasharray="1,5" d="M856.55,-586.37C791.33,-574.41 701.48,-557.54 638.18,-545.38"/>
<polygon fill="black" stroke="black" points="638.74,-541.92 628.26,-543.47 637.42,-548.79 638.74,-541.92"/>
</g>
<!-- node9 -->
<g id="node7" class="node">
<title>node9</title>
<polygon fill="lightgreen" stroke="black" points="902.77,-521.54 902.77,-536.46 839.64,-547 750.36,-547 687.23,-536.46 687.23,-521.54 750.36,-511 839.64,-511 902.77,-521.54"/>
<text text-anchor="middle" x="795" y="-525.3" font-family="Times,serif" font-size="14.00">#9 int 10 Order : 3</text>
</g>
<!-- node0&#45;&gt;node9 -->
<g id="edge21" class="edge">
<title>node0&#45;&gt;node9</title>
<path fill="none" stroke="black" stroke-dasharray="1,5" d="M899.41,-583.99C878.62,-574.32 853.52,-562.1 833.1,-551.73"/>
<polygon fill="black" stroke="black" points="834.58,-548.55 824.08,-547.11 831.39,-554.78 834.58,-548.55"/>
</g>
<!-- node6 -->
<g id="node9" class="node">
<title>node6</title>
<polygon fill="lightgreen" stroke="black" points="1179.11,-521.54 1179.11,-536.46 1119.88,-547 1036.12,-547 976.89,-536.46 976.89,-521.54 1036.12,-511 1119.88,-511 1179.11,-521.54"/>
<text text-anchor="middle" x="1078" y="-525.3" font-family="Times,serif" font-size="14.00">#6 int 5 Order : 5</text>
</g>
<!-- node0&#45;&gt;node6 -->
<g id="edge14" class="edge">
<title>node0&#45;&gt;node6</title>
<path fill="none" stroke="black" stroke-dasharray="1,5" d="M967.2,-583.99C985.06,-574.27 1008.8,-561.99 1029.77,-551.59"/>
<polygon fill="black" stroke="black" points="1031.44,-554.67 1038.87,-547.11 1028.35,-548.39 1031.44,-554.67"/>
</g>
<!-- node10 -->
<g id="node11" class="node">
<title>node10</title>
<polygon fill="lightgreen" stroke="black" points="1450.77,-521.54 1450.77,-536.46 1387.64,-547 1298.36,-547 1235.23,-536.46 1235.23,-521.54 1298.36,-511 1387.64,-511 1450.77,-521.54"/>
<text text-anchor="middle" x="1343" y="-525.3" font-family="Times,serif" font-size="14.00">#10 int 0 Order : 2</text>
</g>
<!-- node0&#45;&gt;node10 -->
<g id="edge23" class="edge">
<title>node0&#45;&gt;node10</title>
<path fill="none" stroke="black" stroke-dasharray="1,5" d="M1020.5,-583.93C1104.95,-571.99 1128,-582.17 1212,-566 1234.38,-561.69 1258.54,-555.01 1280,-548.56"/>
<polygon fill="black" stroke="black" points="1281.1,-551.88 1289.65,-545.63 1279.07,-545.19 1281.1,-551.88"/>
</g>
<!-- node12 -->
<g id="node13" class="node">
<title>node12</title>
<polygon fill="lightgreen" stroke="black" points="1722.77,-521.54 1722.77,-536.46 1659.64,-547 1570.36,-547 1507.23,-536.46 1507.23,-521.54 1570.36,-511 1659.64,-511 1722.77,-521.54"/>
<text text-anchor="middle" x="1615" y="-525.3" font-family="Times,serif" font-size="14.00">#12 int 1 Order : 1</text>
</g>
<!-- node0&#45;&gt;node12 -->
<g id="edge31" class="edge">
<title>node0&#45;&gt;node12</title>
<path fill="none" stroke="black" stroke-dasharray="1,5" d="M1020.3,-583.97C1225.1,-560.61 1280.45,-599.45 1484,-566 1506.87,-562.24 1531.48,-555.52 1553.19,-548.89"/>
<polygon fill="black" stroke="black" points="1554.44,-552.17 1562.95,-545.86 1552.36,-545.48 1554.44,-552.17"/>
</g>
<!-- node1&#45;&gt;node0 -->
<g id="edge1" class="edge">
<title>node1&#45;&gt;node0</title>
<path fill="none" stroke="green" stroke-width="2" d="M230.14,-544.97C236.18,-545.69 242.17,-546.38 248,-547 461.95,-569.89 713.65,-586.86 846.71,-595.21"/>
<polygon fill="green" stroke="green" stroke-width="2" points="846.67,-598.71 856.87,-595.85 847.11,-591.73 846.67,-598.71"/>
</g>
<!-- node2&#45;&gt;node0 -->
<g id="edge3" class="edge">
<title>node2&#45;&gt;node0</title>
<path fill="none" stroke="green" stroke-width="2" d="M436.08,-544.42C442.15,-545.33 448.16,-546.2 454,-547 590.49,-565.69 748.86,-582.04 846.82,-591.72"/>
<polygon fill="green" stroke="green" stroke-width="2" points="846.69,-595.22 856.99,-592.72 847.38,-588.25 846.69,-595.22"/>
</g>
<!-- node3 -->
<g id="node4" class="node">
<title>node3</title>
<polygon fill="lightgrey" stroke="black" points="440.5,-474 243.5,-474 243.5,-438 440.5,-438 440.5,-474"/>
<text text-anchor="middle" x="342" y="-452.3" font-family="Times,serif" font-size="14.00">#3 LabelNode Order : 10</text>
</g>
<!-- node2&#45;&gt;node3 -->
<g id="edge6" class="edge">
<title>node2&#45;&gt;node3</title>
<path fill="none" stroke="red" d="M336.12,-510.81C335.28,-502.79 335.05,-493.05 335.42,-484.07"/>
<polygon fill="red" stroke="red" points="338.92,-484.25 336.14,-474.03 331.94,-483.75 338.92,-484.25"/>
</g>
<!-- node3&#45;&gt;node2 -->
<g id="edge5" class="edge">
<title>node3&#45;&gt;node2</title>
<path fill="none" stroke="green" stroke-width="2" d="M347.86,-474.03C348.71,-482.03 348.95,-491.77 348.59,-500.75"/>
<polygon fill="green" stroke="green" stroke-width="2" points="345.09,-500.59 347.88,-510.81 352.07,-501.08 345.09,-500.59"/>
</g>
<!-- node11 -->
<g id="node12" class="node">
<title>node11</title>
<polygon fill="lightgrey" stroke="black" points="1351.5,-328 1062.5,-328 1062.5,-292 1351.5,-292 1351.5,-328"/>
<text text-anchor="middle" x="1207" y="-306.3" font-family="Times,serif" font-size="14.00">#11 ArrayStore : Object[][] Order : 11</text>
</g>
<!-- node3&#45;&gt;node11 -->
<g id="edge29" class="edge">
<title>node3&#45;&gt;node11</title>
<path fill="none" stroke="red" d="M395.72,-437.93C462.07,-417.5 578.72,-383.71 681,-365 804.89,-342.34 947.07,-328.46 1052.35,-320.45"/>
<polygon fill="red" stroke="red" points="1052.71,-323.94 1062.42,-319.7 1052.18,-316.96 1052.71,-323.94"/>
</g>
<!-- node4&#45;&gt;node0 -->
<g id="edge7" class="edge">
<title>node4&#45;&gt;node0</title>
<path fill="none" stroke="green" stroke-width="2" d="M875.67,-474.17C892.13,-483.18 909.46,-495.57 921,-511 934.75,-529.38 941.84,-554.63 943.95,-573.71"/>
<polygon fill="green" stroke="green" stroke-width="2" points="940.47,-574.12 944.64,-583.86 947.46,-573.65 940.47,-574.12"/>
</g>
<!-- node5 -->
<g id="node8" class="node">
<title>node5</title>
<polygon fill="orange" stroke="black" points="972.3,-375.54 972.3,-390.46 889.53,-401 772.47,-401 689.7,-390.46 689.7,-375.54 772.47,-365 889.53,-365 972.3,-375.54"/>
<text text-anchor="middle" x="831" y="-379.3" font-family="Times,serif" font-size="14.00">#5 ArrayLength Order : 8</text>
</g>
<!-- node4&#45;&gt;node5 -->
<g id="edge12" class="edge">
<title>node4&#45;&gt;node5</title>
<path fill="none" stroke="black" d="M825.12,-437.81C824.28,-429.79 824.05,-420.05 824.42,-411.07"/>
<polygon fill="black" stroke="black" points="827.92,-411.25 825.14,-401.03 820.94,-410.75 827.92,-411.25"/>
<text text-anchor="middle" x="832.28" y="-416.01" font-family="Times,serif" font-size="14.00">*0</text>
</g>
<!-- node7 -->
<g id="node10" class="node">
<title>node7</title>
<polygon fill="orange" stroke="black" points="1385.87,-375.54 1385.87,-390.46 1281.09,-401 1132.91,-401 1028.13,-390.46 1028.13,-375.54 1132.91,-365 1281.09,-365 1385.87,-375.54"/>
<text text-anchor="middle" x="1207" y="-379.3" font-family="Times,serif" font-size="14.00">#7 NewArray : Object[] Order : 7</text>
</g>
<!-- node4&#45;&gt;node7 -->
<g id="edge17" class="edge">
<title>node4&#45;&gt;node7</title>
<path fill="none" stroke="black" d="M920.58,-438.08C978.39,-427.17 1053.47,-412.99 1112.26,-401.89"/>
<polygon fill="black" stroke="black" points="1113.12,-405.29 1122.3,-399.99 1111.82,-398.41 1113.12,-405.29"/>
</g>
<!-- node4&#45;&gt;node11 -->
<g id="edge25" class="edge">
<title>node4&#45;&gt;node11</title>
<path fill="none" stroke="black" d="M896.42,-437.92C923.74,-429.18 955.08,-416.96 981,-401 1000.81,-388.8 998.8,-376.54 1019,-365 1045.36,-349.94 1076.23,-338.81 1105.26,-330.71"/>
<polygon fill="black" stroke="black" points="1106.27,-334.06 1115.02,-328.08 1104.45,-327.3 1106.27,-334.06"/>
<text text-anchor="middle" x="1099.72" y="-337.26" font-family="Times,serif" font-size="14.00">*0</text>
</g>
<!-- node13 -->
<g id="node14" class="node">
<title>node13</title>
<polygon fill="lightgrey" stroke="black" points="1344,-255 1070,-255 1070,-219 1344,-219 1344,-255"/>
<text text-anchor="middle" x="1207" y="-233.3" font-family="Times,serif" font-size="14.00">#13 ArrayLoad : Object[] Order : 12</text>
</g>
<!-- node4&#45;&gt;node13 -->
<g id="edge33" class="edge">
<title>node4&#45;&gt;node13</title>
<path fill="none" stroke="black" d="M753.94,-437.97C704.44,-423.37 654.04,-399.24 681,-365 727.42,-306.04 920.74,-271.21 1059.54,-253.35"/>
<polygon fill="black" stroke="black" points="1060.37,-256.78 1069.85,-252.05 1059.49,-249.83 1060.37,-256.78"/>
<text text-anchor="middle" x="1052.93" y="-259.01" font-family="Times,serif" font-size="14.00">*0</text>
</g>
<!-- node8&#45;&gt;node0 -->
<g id="edge18" class="edge">
<title>node8&#45;&gt;node0</title>
<path fill="none" stroke="green" stroke-width="2" d="M633.92,-542.52C694.35,-553.55 781.04,-569.79 846.78,-582.36"/>
<polygon fill="green" stroke="green" stroke-width="2" points="846.25,-585.82 856.73,-584.26 847.56,-578.95 846.25,-585.82"/>
</g>
<!-- node8&#45;&gt;node4 -->
<g id="edge8" class="edge">
<title>node8&#45;&gt;node4</title>
<path fill="none" stroke="black" d="M619.05,-512.94C659.19,-502.35 713.31,-488.06 756.81,-476.58"/>
<polygon fill="black" stroke="black" points="757.71,-479.97 766.48,-474.03 755.92,-473.2 757.71,-479.97"/>
<text text-anchor="middle" x="751.11" y="-483.13" font-family="Times,serif" font-size="14.00">*0</text>
</g>
<!-- node9&#45;&gt;node0 -->
<g id="edge20" class="edge">
<title>node9&#45;&gt;node0</title>
<path fill="none" stroke="green" stroke-width="2" d="M835.82,-547.11C856.64,-556.81 881.74,-569.03 902.12,-579.38"/>
<polygon fill="green" stroke="green" stroke-width="2" points="900.63,-582.55 911.13,-583.99 903.82,-576.32 900.63,-582.55"/>
</g>
<!-- node9&#45;&gt;node4 -->
<g id="edge9" class="edge">
<title>node9&#45;&gt;node4</title>
<path fill="none" stroke="black" d="M803.71,-510.81C807.92,-502.53 813.05,-492.41 817.72,-483.19"/>
<polygon fill="black" stroke="black" points="820.96,-484.53 822.37,-474.03 814.72,-481.37 820.96,-484.53"/>
<text text-anchor="middle" x="821.71" y="-490.32" font-family="Times,serif" font-size="14.00">*1</text>
</g>
<!-- node5&#45;&gt;node4 -->
<g id="edge11" class="edge">
<title>node5&#45;&gt;node4</title>
<path fill="none" stroke="green" stroke-width="2" d="M836.86,-401.03C837.71,-409.03 837.95,-418.77 837.59,-427.75"/>
<polygon fill="green" stroke="green" stroke-width="2" points="834.09,-427.59 836.88,-437.81 841.07,-428.08 834.09,-427.59"/>
</g>
<!-- node6&#45;&gt;node0 -->
<g id="edge13" class="edge">
<title>node6&#45;&gt;node0</title>
<path fill="none" stroke="green" stroke-width="2" d="M1050.61,-547.11C1032.7,-556.85 1008.95,-569.14 988,-579.52"/>
<polygon fill="green" stroke="green" stroke-width="2" points="986.34,-576.44 978.91,-583.99 989.43,-582.72 986.34,-576.44"/>
</g>
<!-- node6&#45;&gt;node7 -->
<g id="edge16" class="edge">
<title>node6&#45;&gt;node7</title>
<path fill="none" stroke="black" d="M1093.3,-510.92C1116,-485.58 1158.7,-437.92 1184.82,-408.76"/>
<polygon fill="black" stroke="black" points="1187.65,-410.85 1191.72,-401.06 1182.44,-406.17 1187.65,-410.85"/>
<text text-anchor="middle" x="1185.92" y="-416.5" font-family="Times,serif" font-size="14.00">*0</text>
</g>
<!-- node7&#45;&gt;node0 -->
<g id="edge15" class="edge">
<title>node7&#45;&gt;node0</title>
<path fill="none" stroke="green" stroke-width="2" d="M1210.77,-401.1C1216.93,-433.93 1225.02,-506.15 1188,-547 1185.26,-550.02 1102.57,-567.65 1033.42,-581.95"/>
<polygon fill="green" stroke="green" stroke-width="2" points="1032.41,-578.58 1023.32,-584.03 1033.83,-585.44 1032.41,-578.58"/>
</g>
<!-- node7&#45;&gt;node11 -->
<g id="edge27" class="edge">
<title>node7&#45;&gt;node11</title>
<path fill="none" stroke="black" d="M1201.12,-364.81C1200.28,-356.79 1200.05,-347.05 1200.42,-338.07"/>
<polygon fill="black" stroke="black" points="1203.92,-338.25 1201.14,-328.03 1196.94,-337.75 1203.92,-338.25"/>
<text text-anchor="middle" x="1208.28" y="-343.01" font-family="Times,serif" font-size="14.00">*2</text>
</g>
<!-- node7&#45;&gt;node11 -->
<g id="edge28" class="edge">
<title>node7&#45;&gt;node11</title>
<path fill="none" stroke="black" d="M1212.88,-364.81C1213.72,-356.79 1213.95,-347.05 1213.58,-338.07"/>
<polygon fill="black" stroke="black" points="1217.06,-337.75 1212.86,-328.03 1210.08,-338.25 1217.06,-337.75"/>
</g>
<!-- node10&#45;&gt;node0 -->
<g id="edge22" class="edge">
<title>node10&#45;&gt;node0</title>
<path fill="none" stroke="green" stroke-width="2" d="M1301.64,-547.01C1280.44,-553.92 1254.18,-561.34 1230,-566 1145.84,-582.2 1122.86,-571.95 1038,-584 1036.49,-584.21 1034.97,-584.44 1033.44,-584.67"/>
<polygon fill="green" stroke="green" stroke-width="2" points="1032.53,-581.27 1023.2,-586.28 1033.62,-588.18 1032.53,-581.27"/>
</g>
<!-- node10&#45;&gt;node11 -->
<g id="edge26" class="edge">
<title>node10&#45;&gt;node11</title>
<path fill="none" stroke="black" d="M1357.76,-510.83C1383.15,-479.11 1429.22,-410.44 1395,-365 1384.31,-350.81 1350.94,-339.19 1315.22,-330.42"/>
<polygon fill="black" stroke="black" points="1315.63,-326.92 1305.1,-328.02 1314.02,-333.73 1315.63,-326.92"/>
<text text-anchor="middle" x="1324.68" y="-320.28" font-family="Times,serif" font-size="14.00">*1</text>
</g>
<!-- node11&#45;&gt;node0 -->
<g id="edge24" class="edge">
<title>node11&#45;&gt;node0</title>
<path fill="none" stroke="green" stroke-width="2" d="M1351.76,-324.4C1416.72,-334.57 1479,-352.11 1479,-382 1479,-530 1479,-530 1479,-530 1479,-578 1115.52,-577.36 1033.34,-583.8"/>
<polygon fill="green" stroke="green" stroke-width="2" points="1032.93,-580.32 1023.33,-584.81 1033.64,-587.29 1032.93,-580.32"/>
</g>
<!-- node11&#45;&gt;node13 -->
<g id="edge35" class="edge">
<title>node11&#45;&gt;node13</title>
<path fill="none" stroke="black" d="M1201.12,-291.81C1200.28,-283.79 1200.05,-274.05 1200.42,-265.07"/>
<polygon fill="black" stroke="black" points="1203.92,-265.25 1201.14,-255.03 1196.94,-264.75 1203.92,-265.25"/>
</g>
<!-- node11&#45;&gt;node13 -->
<g id="edge36" class="edge">
<title>node11&#45;&gt;node13</title>
<path fill="none" stroke="red" d="M1212.88,-291.81C1213.72,-283.79 1213.95,-274.05 1213.58,-265.07"/>
<polygon fill="red" stroke="red" points="1217.06,-264.75 1212.86,-255.03 1210.08,-265.25 1217.06,-264.75"/>
</g>
<!-- node12&#45;&gt;node0 -->
<g id="edge30" class="edge">
<title>node12&#45;&gt;node0</title>
<path fill="none" stroke="green" stroke-width="2" d="M1575.45,-547.08C1553.99,-554.27 1526.95,-561.9 1502,-566 1298.35,-599.46 1243.04,-560.57 1038,-584 1036.49,-584.17 1034.96,-584.36 1033.42,-584.55"/>
<polygon fill="green" stroke="green" stroke-width="2" points="1032.58,-581.13 1023.16,-585.97 1033.54,-588.07 1032.58,-581.13"/>
</g>
<!-- node12&#45;&gt;node13 -->
<g id="edge34" class="edge">
<title>node12&#45;&gt;node13</title>
<path fill="none" stroke="black" d="M1594.5,-510.95C1581.08,-497.79 1566,-478.27 1566,-457 1566,-457 1566,-457 1566,-309 1566,-263.43 1453.28,-246.64 1354.16,-240.68"/>
<polygon fill="black" stroke="black" points="1354.19,-237.18 1344,-240.1 1353.79,-244.16 1354.19,-237.18"/>
<text text-anchor="middle" x="1362.58" y="-228.99" font-family="Times,serif" font-size="14.00">*1</text>
</g>
<!-- node13&#45;&gt;node0 -->
<g id="edge32" class="edge">
<title>node13&#45;&gt;node0</title>
<path fill="none" stroke="green" stroke-width="2" d="M1344.27,-242.69C1505.43,-250.07 1751,-268.04 1751,-309 1751,-530 1751,-530 1751,-530 1751,-582.61 1569.51,-562.71 1517,-566 1303.67,-579.35 1246.38,-560.17 1033.26,-583.58"/>
<polygon fill="green" stroke="green" stroke-width="2" points="1032.87,-580.1 1023.32,-584.69 1033.65,-587.06 1032.87,-580.1"/>
</g>
<!-- node14 -->
<g id="node15" class="node">
<title>node14</title>
<polygon fill="lightgrey" stroke="black" points="1429,-182 1223,-182 1223,-146 1429,-146 1429,-182"/>
<text text-anchor="middle" x="1326" y="-160.3" font-family="Times,serif" font-size="14.00">#14 LabelNode Order : 13</text>
</g>
<!-- node13&#45;&gt;node14 -->
<g id="edge38" class="edge">
<title>node13&#45;&gt;node14</title>
<path fill="none" stroke="red" d="M1229.64,-218.99C1244.56,-209.49 1264.45,-197.54 1282.32,-187.29"/>
<polygon fill="red" stroke="red" points="1284.48,-190.09 1291.45,-182.11 1281.02,-184.01 1284.48,-190.09"/>
</g>
<!-- node16 -->
<g id="node17" class="node">
<title>node16</title>
<polygon fill="lightgrey" stroke="black" points="1275.5,-36 1096.5,-36 1096.5,0 1275.5,0 1275.5,-36"/>
<text text-anchor="middle" x="1186" y="-14.3" font-family="Times,serif" font-size="14.00">#16 Return Order : 15</text>
</g>
<!-- node13&#45;&gt;node16 -->
<g id="edge43" class="edge">
<title>node13&#45;&gt;node16</title>
<path fill="none" stroke="black" d="M1201.51,-218.97C1194.3,-181.51 1185.34,-91.68 1183.98,-46.26"/>
<polygon fill="black" stroke="black" points="1187.48,-46.19 1183.81,-36.25 1180.48,-46.31 1187.48,-46.19"/>
</g>
<!-- node14&#45;&gt;node13 -->
<g id="edge37" class="edge">
<title>node14&#45;&gt;node13</title>
<path fill="none" stroke="green" stroke-width="2" d="M1303.19,-182.11C1288.23,-191.63 1268.34,-203.59 1250.48,-213.82"/>
<polygon fill="green" stroke="green" stroke-width="2" points="1248.33,-211.02 1241.36,-218.99 1251.79,-217.1 1248.33,-211.02"/>
</g>
<!-- node15 -->
<g id="node16" class="node">
<title>node15</title>
<polygon fill="lightgrey" stroke="black" points="1429,-109 1223,-109 1223,-73 1429,-73 1429,-109"/>
<text text-anchor="middle" x="1326" y="-87.3" font-family="Times,serif" font-size="14.00">#15 LabelNode Order : 14</text>
</g>
<!-- node14&#45;&gt;node15 -->
<g id="edge40" class="edge">
<title>node14&#45;&gt;node15</title>
<path fill="none" stroke="red" d="M1320.12,-145.81C1319.28,-137.79 1319.05,-128.05 1319.42,-119.07"/>
<polygon fill="red" stroke="red" points="1322.92,-119.25 1320.14,-109.03 1315.94,-118.75 1322.92,-119.25"/>
</g>
<!-- node15&#45;&gt;node14 -->
<g id="edge39" class="edge">
<title>node15&#45;&gt;node14</title>
<path fill="none" stroke="green" stroke-width="2" d="M1331.86,-109.03C1332.71,-117.03 1332.95,-126.77 1332.59,-135.75"/>
<polygon fill="green" stroke="green" stroke-width="2" points="1329.09,-135.59 1331.88,-145.81 1336.07,-136.08 1329.09,-135.59"/>
</g>
<!-- node15&#45;&gt;node16 -->
<g id="edge42" class="edge">
<title>node15&#45;&gt;node16</title>
<path fill="none" stroke="red" d="M1292.47,-72.99C1273.39,-63.32 1249.29,-51.1 1228.85,-40.73"/>
<polygon fill="red" stroke="red" points="1230.25,-37.52 1219.75,-36.11 1227.08,-43.76 1230.25,-37.52"/>
</g>
<!-- node16&#45;&gt;node13 -->
<g id="edge41" class="edge">
<title>node16&#45;&gt;node13</title>
<path fill="none" stroke="green" stroke-width="2" d="M1191.53,-36.25C1198.73,-73.84 1207.66,-163.39 1209.02,-208.72"/>
<polygon fill="green" stroke="green" stroke-width="2" points="1205.52,-209.03 1209.2,-218.97 1212.52,-208.91 1205.52,-209.03"/>
</g>
<!-- c0 -->
<!-- c1 -->
<!-- c0&#45;&gt;c1 -->
<g id="edge44" class="edge">
<title>c0&#45;&gt;c1</title>
<path fill="none" stroke="red" d="M1754.89,-602C1766.11,-602 1824.24,-602 1849.86,-602"/>
<polygon fill="red" stroke="red" points="1850.06,-605.5 1860.06,-602 1850.06,-598.5 1850.06,-605.5"/>
<text text-anchor="middle" x="1807.5" y="-608.8" font-family="Times,serif" font-size="14.00">Control flow</text>
</g>
<!-- c2 -->
<!-- c3 -->
<!-- c2&#45;&gt;c3 -->
<g id="edge45" class="edge">
<title>c2&#45;&gt;c3</title>
<path fill="none" stroke="red" stroke-dasharray="5,2" d="M1548.08,-602C1565.05,-602 1681.21,-602 1719.08,-602"/>
<polygon fill="red" stroke="red" points="1719.17,-605.5 1729.17,-602 1719.17,-598.5 1719.17,-605.5"/>
<text text-anchor="middle" x="1638.5" y="-608.8" font-family="Times,serif" font-size="14.00">Control flow back edge</text>
</g>
<!-- d0 -->
<!-- d1 -->
<!-- d0&#45;&gt;d1 -->
<g id="edge46" class="edge">
<title>d0&#45;&gt;d1</title>
<path fill="none" stroke="black" d="M1436.86,-602C1446.41,-602 1490.31,-602 1511.92,-602"/>
<polygon fill="black" stroke="black" points="1512.15,-605.5 1522.15,-602 1512.15,-598.5 1512.15,-605.5"/>
<text text-anchor="middle" x="1479.5" y="-608.8" font-family="Times,serif" font-size="14.00">Data flow</text>
</g>
<!-- d2 -->
<!-- d3 -->
<!-- d2&#45;&gt;d3 -->
<g id="edge47" class="edge">
<title>d2&#45;&gt;d3</title>
<path fill="none" stroke="black" stroke-dasharray="1,5" d="M1310.81,-602C1321.46,-602 1376.46,-602 1401.08,-602"/>
<polygon fill="black" stroke="black" points="1401.15,-605.5 1411.15,-602 1401.15,-598.5 1401.15,-605.5"/>
<text text-anchor="middle" x="1361" y="-608.8" font-family="Times,serif" font-size="14.00">Declaration</text>
</g>
<!-- d4 -->
<!-- d5 -->
<!-- d4&#45;&gt;d5 -->
<g id="edge48" class="edge">
<title>d4&#45;&gt;d5</title>
<path fill="none" stroke="blue" d="M1168.1,-602C1180.72,-602 1246.88,-602 1274.68,-602"/>
<polygon fill="blue" stroke="blue" points="1274.84,-605.5 1284.84,-602 1274.84,-598.5 1274.84,-605.5"/>
<text text-anchor="middle" x="1226.5" y="-608.8" font-family="Times,serif" font-size="14.00">PHI Data flow</text>
</g>
<!-- d6 -->
<!-- d7 -->
<!-- d6&#45;&gt;d7 -->
<g id="edge49" class="edge">
<title>d6&#45;&gt;d7</title>
<path fill="none" stroke="green" d="M1045.11,-602C1056.15,-602 1107.67,-602 1131.66,-602"/>
<polygon fill="green" stroke="green" points="1131.9,-605.5 1141.9,-602 1131.9,-598.5 1131.9,-605.5"/>
<text text-anchor="middle" x="1093.5" y="-608.8" font-family="Times,serif" font-size="14.00">Dominance</text>
</g>
</g>
</svg>
