<?xml version="1.0" encoding="UTF-8" standalone="no"?>
<!DOCTYPE svg PUBLIC "-//W3C//DTD SVG 1.1//EN"
 "http://www.w3.org/Graphics/SVG/1.1/DTD/svg11.dtd">
<!-- Generated by graphviz version 2.43.0 (0)
 -->
<!-- Title: debugoutput Pages: 1 -->
<svg width="1593pt" height="797pt"
 viewBox="0.00 0.00 1593.00 796.80" xmlns="http://www.w3.org/2000/svg" xmlns:xlink="http://www.w3.org/1999/xlink">
<g id="graph0" class="graph" transform="scale(1 1) rotate(0) translate(4 792.8)">
<title>debugoutput</title>
<polygon fill="white" stroke="transparent" points="-4,4 -4,-792.8 1589,-792.8 1589,4 -4,4"/>
<g id="clust1" class="cluster">
<title>cluster_000</title>
<polygon fill="none" stroke="black" points="738,-738.2 738,-780.8 1577,-780.8 1577,-738.2 738,-738.2"/>
<text text-anchor="middle" x="1157.5" y="-765.6" font-family="Times,serif" font-size="14.00">Legend</text>
</g>
<!-- node0 -->
<g id="node1" class="node">
<title>node0</title>
<polygon fill="lightgrey" stroke="black" points="728,-766 562,-766 562,-730 728,-730 728,-766"/>
<text text-anchor="middle" x="645" y="-744.3" font-family="Times,serif" font-size="14.00">#0 Method Order : 0</text>
</g>
<!-- node1 -->
<g id="node2" class="node">
<title>node1</title>
<polygon fill="lightgrey" stroke="black" points="230,-693 0,-693 0,-657 230,-657 230,-693"/>
<text text-anchor="middle" x="115" y="-671.3" font-family="Times,serif" font-size="14.00">#1 this : ArrayTest Order : 16</text>
</g>
<!-- node0&#45;&gt;node1 -->
<g id="edge2" class="edge">
<title>node0&#45;&gt;node1</title>
<path fill="none" stroke="black" d="M562,-744.54C478.6,-740.95 346.9,-732.32 235,-712 213.08,-708.02 189.49,-701.98 169.04,-695.97"/>
<polygon fill="black" stroke="black" points="169.85,-692.56 159.26,-693.03 167.83,-699.26 169.85,-692.56"/>
<text text-anchor="middle" x="179.06" y="-686.46" font-family="Times,serif" font-size="14.00">*0</text>
</g>
<!-- node2 -->
<g id="node3" class="node">
<title>node2</title>
<polygon fill="lightgrey" stroke="black" points="739,-693 551,-693 551,-657 739,-657 739,-693"/>
<text text-anchor="middle" x="645" y="-671.3" font-family="Times,serif" font-size="14.00">#2 LabelNode Order : 1</text>
</g>
<!-- node0&#45;&gt;node2 -->
<g id="edge4" class="edge">
<title>node0&#45;&gt;node2</title>
<path fill="none" stroke="red" d="M639.12,-729.81C638.28,-721.79 638.05,-712.05 638.42,-703.07"/>
<polygon fill="red" stroke="red" points="641.92,-703.25 639.14,-693.03 634.94,-702.75 641.92,-703.25"/>
</g>
<!-- node6 -->
<g id="node7" class="node">
<title>node6</title>
<polygon fill="orange" stroke="black" points="479.41,-521.54 479.41,-536.46 354.98,-547 179.02,-547 54.59,-536.46 54.59,-521.54 179.02,-511 354.98,-511 479.41,-521.54"/>
<text text-anchor="middle" x="267" y="-525.3" font-family="Times,serif" font-size="14.00">#6 NewMultiArray : Object[][] Order : 4</text>
</g>
<!-- node0&#45;&gt;node6 -->
<g id="edge14" class="edge">
<title>node0&#45;&gt;node6</title>
<path fill="none" stroke="black" d="M561.74,-739.01C480.38,-726.77 358.64,-696.1 286,-620 269.89,-603.12 263.04,-577.12 261.69,-557.4"/>
<polygon fill="black" stroke="black" points="265.18,-557.11 261.48,-547.19 258.18,-557.26 265.18,-557.11"/>
</g>
<!-- node1&#45;&gt;node0 -->
<g id="edge1" class="edge">
<title>node1&#45;&gt;node0</title>
<path fill="none" stroke="green" stroke-width="2" d="M175.78,-693.03C199.73,-699.94 227.49,-707.37 253,-712 354.38,-730.41 472,-739.22 551.8,-743.39"/>
<polygon fill="green" stroke="green" stroke-width="2" points="551.67,-746.88 561.83,-743.9 552.02,-739.89 551.67,-746.88"/>
</g>
<!-- node2&#45;&gt;node0 -->
<g id="edge3" class="edge">
<title>node2&#45;&gt;node0</title>
<path fill="none" stroke="green" stroke-width="2" d="M650.86,-693.03C651.71,-701.03 651.95,-710.77 651.59,-719.75"/>
<polygon fill="green" stroke="green" stroke-width="2" points="648.09,-719.59 650.88,-729.81 655.07,-720.08 648.09,-719.59"/>
</g>
<!-- node3 -->
<g id="node4" class="node">
<title>node3</title>
<polygon fill="lightgrey" stroke="black" points="959,-620 771,-620 771,-584 959,-584 959,-620"/>
<text text-anchor="middle" x="865" y="-598.3" font-family="Times,serif" font-size="14.00">#3 LabelNode Order : 6</text>
</g>
<!-- node2&#45;&gt;node3 -->
<g id="edge6" class="edge">
<title>node2&#45;&gt;node3</title>
<path fill="none" stroke="red" d="M691.84,-656.99C722.23,-646.84 762.28,-633.88 796.24,-623.2"/>
<polygon fill="red" stroke="red" points="797.61,-626.44 806.1,-620.11 795.51,-619.76 797.61,-626.44"/>
</g>
<!-- node4 -->
<g id="node5" class="node">
<title>node4</title>
<polygon fill="lightgreen" stroke="black" points="752.77,-594.54 752.77,-609.46 689.64,-620 600.36,-620 537.23,-609.46 537.23,-594.54 600.36,-584 689.64,-584 752.77,-594.54"/>
<text text-anchor="middle" x="645" y="-598.3" font-family="Times,serif" font-size="14.00">#4 int 20 Order : 3</text>
</g>
<!-- node2&#45;&gt;node4 -->
<g id="edge8" class="edge">
<title>node2&#45;&gt;node4</title>
<path fill="none" stroke="black" stroke-dasharray="1,5" d="M639.12,-656.81C638.28,-648.79 638.05,-639.05 638.42,-630.07"/>
<polygon fill="black" stroke="black" points="641.92,-630.25 639.14,-620.03 634.94,-629.75 641.92,-630.25"/>
</g>
<!-- node5 -->
<g id="node6" class="node">
<title>node5</title>
<polygon fill="lightgreen" stroke="black" points="519.77,-594.54 519.77,-609.46 456.64,-620 367.36,-620 304.23,-609.46 304.23,-594.54 367.36,-584 456.64,-584 519.77,-594.54"/>
<text text-anchor="middle" x="412" y="-598.3" font-family="Times,serif" font-size="14.00">#5 int 10 Order : 2</text>
</g>
<!-- node2&#45;&gt;node5 -->
<g id="edge10" class="edge">
<title>node2&#45;&gt;node5</title>
<path fill="none" stroke="black" stroke-dasharray="1,5" d="M583.33,-656.99C548.29,-646.65 504.73,-633.4 470.27,-622.62"/>
<polygon fill="black" stroke="black" points="470.93,-619.16 460.34,-619.5 468.84,-625.84 470.93,-619.16"/>
</g>
<!-- node3&#45;&gt;node2 -->
<g id="edge5" class="edge">
<title>node3&#45;&gt;node2</title>
<path fill="none" stroke="green" stroke-width="2" d="M817.84,-620.11C787.38,-630.29 747.32,-643.25 713.4,-653.91"/>
<polygon fill="green" stroke="green" stroke-width="2" points="712.05,-650.66 703.55,-656.99 714.14,-657.34 712.05,-650.66"/>
</g>
<!-- node7 -->
<g id="node8" class="node">
<title>node7</title>
<polygon fill="lightgreen" stroke="black" points="966.11,-521.54 966.11,-536.46 906.88,-547 823.12,-547 763.89,-536.46 763.89,-521.54 823.12,-511 906.88,-511 966.11,-521.54"/>
<text text-anchor="middle" x="865" y="-525.3" font-family="Times,serif" font-size="14.00">#7 int 0 Order : 9</text>
</g>
<!-- node3&#45;&gt;node7 -->
<g id="edge16" class="edge">
<title>node3&#45;&gt;node7</title>
<path fill="none" stroke="black" stroke-dasharray="1,5" d="M859.12,-583.81C858.28,-575.79 858.05,-566.05 858.42,-557.07"/>
<polygon fill="black" stroke="black" points="861.92,-557.25 859.14,-547.03 854.94,-556.75 861.92,-557.25"/>
</g>
<!-- node8 -->
<g id="node9" class="node">
<title>node8</title>
<polygon fill="lightgreen" stroke="black" points="708.11,-521.54 708.11,-536.46 648.88,-547 565.12,-547 505.89,-536.46 505.89,-521.54 565.12,-511 648.88,-511 708.11,-521.54"/>
<text text-anchor="middle" x="607" y="-525.3" font-family="Times,serif" font-size="14.00">#8 int 5 Order : 7</text>
</g>
<!-- node3&#45;&gt;node8 -->
<g id="edge18" class="edge">
<title>node3&#45;&gt;node8</title>
<path fill="none" stroke="black" stroke-dasharray="1,5" d="M783.06,-583.99C760.22,-578.54 735.53,-572.28 713,-566 695.48,-561.12 676.6,-555.4 659.65,-549.98"/>
<polygon fill="black" stroke="black" points="660.51,-546.58 649.92,-546.83 658.35,-553.24 660.51,-546.58"/>
</g>
<!-- node11 -->
<g id="node12" class="node">
<title>node11</title>
<polygon fill="lightgrey" stroke="black" points="913.5,-401 624.5,-401 624.5,-365 913.5,-365 913.5,-401"/>
<text text-anchor="middle" x="769" y="-379.3" font-family="Times,serif" font-size="14.00">#11 ArrayStore : Object[][] Order : 10</text>
</g>
<!-- node3&#45;&gt;node11 -->
<g id="edge29" class="edge">
<title>node3&#45;&gt;node11</title>
<path fill="none" stroke="red" d="M801.31,-583.89C783.22,-575.76 765.58,-563.97 755,-547 746.54,-533.42 747.36,-525.06 755,-511 769.41,-484.46 797.59,-500.54 812,-474 823.68,-452.49 809.35,-427.29 794.18,-409.04"/>
<polygon fill="red" stroke="red" points="796.48,-406.36 787.23,-401.18 791.23,-410.99 796.48,-406.36"/>
</g>
<!-- node4&#45;&gt;node2 -->
<g id="edge7" class="edge">
<title>node4&#45;&gt;node2</title>
<path fill="none" stroke="green" stroke-width="2" d="M650.86,-620.03C651.71,-628.03 651.95,-637.77 651.59,-646.75"/>
<polygon fill="green" stroke="green" stroke-width="2" points="648.09,-646.59 650.88,-656.81 655.07,-647.08 648.09,-646.59"/>
</g>
<!-- node4&#45;&gt;node6 -->
<g id="edge12" class="edge">
<title>node4&#45;&gt;node6</title>
<path fill="none" stroke="black" d="M575.67,-587.98C517.18,-576.99 432.72,-561.13 366.93,-548.77"/>
<polygon fill="black" stroke="black" points="367.43,-545.3 356.95,-546.9 366.13,-552.18 367.43,-545.3"/>
<text text-anchor="middle" x="376.33" y="-538.23" font-family="Times,serif" font-size="14.00">*0</text>
</g>
<!-- node5&#45;&gt;node2 -->
<g id="edge9" class="edge">
<title>node5&#45;&gt;node2</title>
<path fill="none" stroke="green" stroke-width="2" d="M467.86,-618.3C503.27,-628.7 548.97,-642.58 585.12,-653.88"/>
<polygon fill="green" stroke="green" stroke-width="2" points="584.46,-657.34 595.05,-656.99 586.56,-650.66 584.46,-657.34"/>
</g>
<!-- node5&#45;&gt;node6 -->
<g id="edge13" class="edge">
<title>node5&#45;&gt;node6</title>
<path fill="none" stroke="black" d="M377.27,-583.99C357.42,-574.27 332.32,-561.99 311.09,-551.59"/>
<polygon fill="black" stroke="black" points="312.47,-548.37 301.95,-547.11 309.39,-554.65 312.47,-548.37"/>
<text text-anchor="middle" x="321.95" y="-543.79" font-family="Times,serif" font-size="14.00">*1</text>
</g>
<!-- node6&#45;&gt;node0 -->
<g id="edge11" class="edge">
<title>node6&#45;&gt;node0</title>
<path fill="none" stroke="green" stroke-width="2" d="M274.3,-547.19C278.82,-567.18 284.9,-600 304,-620 369.68,-688.8 475.48,-720.47 551.88,-734.96"/>
<polygon fill="green" stroke="green" stroke-width="2" points="551.52,-738.45 561.99,-736.81 552.78,-731.57 551.52,-738.45"/>
</g>
<!-- node9 -->
<g id="node10" class="node">
<title>node9</title>
<polygon fill="orange" stroke="black" points="377.3,-448.54 377.3,-463.46 294.53,-474 177.47,-474 94.7,-463.46 94.7,-448.54 177.47,-438 294.53,-438 377.3,-448.54"/>
<text text-anchor="middle" x="236" y="-452.3" font-family="Times,serif" font-size="14.00">#9 ArrayLength Order : 5</text>
</g>
<!-- node6&#45;&gt;node9 -->
<g id="edge20" class="edge">
<title>node6&#45;&gt;node9</title>
<path fill="none" stroke="black" d="M253.62,-510.81C249.18,-502.62 244.59,-492.62 241.01,-483.48"/>
<polygon fill="black" stroke="black" points="244.28,-482.23 237.57,-474.03 237.7,-484.62 244.28,-482.23"/>
<text text-anchor="middle" x="251.71" y="-484.48" font-family="Times,serif" font-size="14.00">*0</text>
</g>
<!-- node10 -->
<g id="node11" class="node">
<title>node10</title>
<polygon fill="orange" stroke="black" points="803.04,-448.54 803.04,-463.46 694.64,-474 541.36,-474 432.96,-463.46 432.96,-448.54 541.36,-438 694.64,-438 803.04,-448.54"/>
<text text-anchor="middle" x="618" y="-452.3" font-family="Times,serif" font-size="14.00">#10 NewArray : Object[] Order : 8</text>
</g>
<!-- node6&#45;&gt;node10 -->
<g id="edge23" class="edge">
<title>node6&#45;&gt;node10</title>
<path fill="none" stroke="black" d="M351.07,-510.99C403.87,-500.32 471.97,-486.54 526.17,-475.57"/>
<polygon fill="black" stroke="black" points="527.02,-478.97 536.13,-473.56 525.63,-472.11 527.02,-478.97"/>
</g>
<!-- node6&#45;&gt;node11 -->
<g id="edge25" class="edge">
<title>node6&#45;&gt;node11</title>
<path fill="none" stroke="black" d="M313.81,-510.99C336.54,-501.69 363.69,-489.01 386,-474 405.3,-461.01 403.12,-448.26 424,-438 457.59,-421.49 539.01,-408.35 614.33,-399.16"/>
<polygon fill="black" stroke="black" points="614.92,-402.62 624.43,-397.95 614.09,-395.67 614.92,-402.62"/>
<text text-anchor="middle" x="607.44" y="-404.8" font-family="Times,serif" font-size="14.00">*0</text>
</g>
<!-- node13 -->
<g id="node14" class="node">
<title>node13</title>
<polygon fill="lightgrey" stroke="black" points="981,-255 707,-255 707,-219 981,-219 981,-255"/>
<text text-anchor="middle" x="844" y="-233.3" font-family="Times,serif" font-size="14.00">#13 ArrayLoad : Object[] Order : 12</text>
</g>
<!-- node6&#45;&gt;node13 -->
<g id="edge33" class="edge">
<title>node6&#45;&gt;node13</title>
<path fill="none" stroke="black" d="M172.56,-511.48C120.78,-499.64 67,-481.46 67,-457 67,-457 67,-457 67,-309 67,-277.73 471.29,-254.63 696.62,-244.18"/>
<polygon fill="black" stroke="black" points="697.05,-247.67 706.88,-243.71 696.73,-240.67 697.05,-247.67"/>
<text text-anchor="middle" x="689.16" y="-249.29" font-family="Times,serif" font-size="14.00">*0</text>
</g>
<!-- node7&#45;&gt;node3 -->
<g id="edge15" class="edge">
<title>node7&#45;&gt;node3</title>
<path fill="none" stroke="green" stroke-width="2" d="M870.86,-547.03C871.71,-555.03 871.95,-564.77 871.59,-573.75"/>
<polygon fill="green" stroke="green" stroke-width="2" points="868.09,-573.59 870.88,-583.81 875.07,-574.08 868.09,-573.59"/>
</g>
<!-- node7&#45;&gt;node11 -->
<g id="edge26" class="edge">
<title>node7&#45;&gt;node11</title>
<path fill="none" stroke="black" d="M866.43,-510.95C867.45,-487.71 865.89,-445.9 845,-419 841.35,-414.3 836.91,-410.2 832.05,-406.64"/>
<polygon fill="black" stroke="black" points="833.8,-403.61 823.5,-401.14 830.02,-409.5 833.8,-403.61"/>
<text text-anchor="middle" x="843.32" y="-400.15" font-family="Times,serif" font-size="14.00">*1</text>
</g>
<!-- node8&#45;&gt;node3 -->
<g id="edge17" class="edge">
<title>node8&#45;&gt;node3</title>
<path fill="none" stroke="green" stroke-width="2" d="M660.61,-544.94C682.49,-551.69 707.92,-559.57 731,-566 750.18,-571.34 770.94,-576.68 790.27,-581.51"/>
<polygon fill="green" stroke="green" stroke-width="2" points="789.69,-584.97 800.24,-583.99 791.38,-578.18 789.69,-584.97"/>
</g>
<!-- node8&#45;&gt;node10 -->
<g id="edge22" class="edge">
<title>node8&#45;&gt;node10</title>
<path fill="none" stroke="black" d="M609.66,-510.81C610.91,-502.79 612.42,-493.05 613.81,-484.07"/>
<polygon fill="black" stroke="black" points="617.29,-484.45 615.36,-474.03 610.37,-483.38 617.29,-484.45"/>
<text text-anchor="middle" x="620.94" y="-489.54" font-family="Times,serif" font-size="14.00">*0</text>
</g>
<!-- node9&#45;&gt;node6 -->
<g id="edge19" class="edge">
<title>node9&#45;&gt;node6</title>
<path fill="none" stroke="green" stroke-width="2" d="M249.3,-474.03C253.73,-482.2 258.32,-492.19 261.92,-501.34"/>
<polygon fill="green" stroke="green" stroke-width="2" points="258.66,-502.62 265.37,-510.81 265.24,-500.22 258.66,-502.62"/>
</g>
<!-- node10&#45;&gt;node0 -->
<g id="edge21" class="edge">
<title>node10&#45;&gt;node0</title>
<path fill="none" stroke="green" stroke-width="2" d="M781.94,-465.59C861.05,-472.89 945.18,-486.32 975,-511 994.6,-527.22 994,-539.56 994,-565 994,-676 994,-676 994,-676 994,-679.27 841.38,-709.26 738,-729.21"/>
<polygon fill="green" stroke="green" stroke-width="2" points="737.31,-725.78 728.15,-731.1 738.63,-732.65 737.31,-725.78"/>
</g>
<!-- node10&#45;&gt;node11 -->
<g id="edge27" class="edge">
<title>node10&#45;&gt;node11</title>
<path fill="none" stroke="black" d="M648.31,-437.99C668.13,-428.19 694.41,-415.77 717.43,-405.31"/>
<polygon fill="black" stroke="black" points="719.06,-408.42 726.73,-401.11 716.18,-402.04 719.06,-408.42"/>
<text text-anchor="middle" x="713.69" y="-412.57" font-family="Times,serif" font-size="14.00">*2</text>
</g>
<!-- node10&#45;&gt;node11 -->
<g id="edge28" class="edge">
<title>node10&#45;&gt;node11</title>
<path fill="none" stroke="black" d="M660.03,-437.99C681.73,-428.27 708,-415.99 729.35,-405.59"/>
<polygon fill="black" stroke="black" points="731.04,-408.66 738.47,-401.11 727.95,-402.38 731.04,-408.66"/>
</g>
<!-- node11&#45;&gt;node0 -->
<g id="edge24" class="edge">
<title>node11&#45;&gt;node0</title>
<path fill="none" stroke="green" stroke-width="2" d="M913.58,-398.93C974.69,-409.39 1032,-426.74 1032,-455 1032,-676 1032,-676 1032,-676 1032,-740.41 819.8,-720.51 738.49,-729.58"/>
<polygon fill="green" stroke="green" stroke-width="2" points="737.79,-726.14 728.36,-730.98 738.75,-733.07 737.79,-726.14"/>
</g>
<!-- node12 -->
<g id="node13" class="node">
<title>node12</title>
<polygon fill="lightgreen" stroke="black" points="806.93,-302.54 806.93,-317.46 740.19,-328 645.81,-328 579.07,-317.46 579.07,-302.54 645.81,-292 740.19,-292 806.93,-302.54"/>
<text text-anchor="middle" x="693" y="-306.3" font-family="Times,serif" font-size="14.00">#12 int 1 Order : 11</text>
</g>
<!-- node11&#45;&gt;node12 -->
<g id="edge31" class="edge">
<title>node11&#45;&gt;node12</title>
<path fill="none" stroke="black" stroke-dasharray="1,5" d="M744.72,-364.81C734.27,-355.92 722.3,-344.91 712.44,-335.17"/>
<polygon fill="black" stroke="black" points="714.89,-332.67 705.37,-328.03 709.92,-337.6 714.89,-332.67"/>
</g>
<!-- node11&#45;&gt;node13 -->
<g id="edge35" class="edge">
<title>node11&#45;&gt;node13</title>
<path fill="none" stroke="black" d="M779.22,-364.95C787.87,-354.97 799.37,-341.68 807,-328 818.1,-308.11 825.41,-283.23 831.21,-264.68"/>
<polygon fill="black" stroke="black" points="834.57,-265.69 834.3,-255.09 827.9,-263.54 834.57,-265.69"/>
</g>
<!-- node11&#45;&gt;node13 -->
<g id="edge36" class="edge">
<title>node11&#45;&gt;node13</title>
<path fill="none" stroke="red" d="M795.07,-364.95C805.87,-354.97 817.37,-341.68 825,-328 836,-308.29 843.27,-283.69 846.24,-265.2"/>
<polygon fill="red" stroke="red" points="849.73,-265.45 847.48,-255.09 842.78,-264.59 849.73,-265.45"/>
</g>
<!-- node12&#45;&gt;node11 -->
<g id="edge30" class="edge">
<title>node12&#45;&gt;node11</title>
<path fill="none" stroke="green" stroke-width="2" d="M717.09,-328.03C727.52,-336.9 739.5,-347.9 749.38,-357.65"/>
<polygon fill="green" stroke="green" stroke-width="2" points="746.95,-360.17 756.48,-364.81 751.93,-355.25 746.95,-360.17"/>
</g>
<!-- node12&#45;&gt;node13 -->
<g id="edge34" class="edge">
<title>node12&#45;&gt;node13</title>
<path fill="none" stroke="black" d="M729.17,-291.99C749.93,-282.23 776.21,-269.88 798.38,-259.45"/>
<polygon fill="black" stroke="black" points="800.04,-262.54 807.6,-255.11 797.06,-256.2 800.04,-262.54"/>
<text text-anchor="middle" x="794.8" y="-266.78" font-family="Times,serif" font-size="14.00">*1</text>
</g>
<!-- node13&#45;&gt;node0 -->
<g id="edge32" class="edge">
<title>node13&#45;&gt;node0</title>
<path fill="none" stroke="green" stroke-width="2" d="M963.29,-255.03C1017.62,-266.26 1070,-283.66 1070,-309 1070,-676 1070,-676 1070,-676 1070,-748.74 828.52,-722.63 738.31,-729.75"/>
<polygon fill="green" stroke="green" stroke-width="2" points="737.93,-726.27 728.33,-730.76 738.63,-733.24 737.93,-726.27"/>
</g>
<!-- node14 -->
<g id="node15" class="node">
<title>node14</title>
<polygon fill="lightgrey" stroke="black" points="842,-182 636,-182 636,-146 842,-146 842,-182"/>
<text text-anchor="middle" x="739" y="-160.3" font-family="Times,serif" font-size="14.00">#14 LabelNode Order : 13</text>
</g>
<!-- node13&#45;&gt;node14 -->
<g id="edge38" class="edge">
<title>node13&#45;&gt;node14</title>
<path fill="none" stroke="red" d="M812.99,-218.99C798.34,-209.75 781.08,-198.19 766.85,-188.14"/>
<polygon fill="red" stroke="red" points="768.61,-185.09 758.44,-182.11 764.53,-190.78 768.61,-185.09"/>
</g>
<!-- node16 -->
<g id="node17" class="node">
<title>node16</title>
<polygon fill="lightgrey" stroke="black" points="968.5,-36 789.5,-36 789.5,0 968.5,0 968.5,-36"/>
<text text-anchor="middle" x="879" y="-14.3" font-family="Times,serif" font-size="14.00">#16 Return Order : 15</text>
</g>
<!-- node13&#45;&gt;node16 -->
<g id="edge43" class="edge">
<title>node13&#45;&gt;node16</title>
<path fill="none" stroke="black" d="M842.9,-218.97C845.37,-181.43 859.64,-91.3 870.01,-45.98"/>
<polygon fill="black" stroke="black" points="873.41,-46.79 872.35,-36.25 866.61,-45.15 873.41,-46.79"/>
</g>
<!-- node14&#45;&gt;node13 -->
<g id="edge37" class="edge">
<title>node14&#45;&gt;node13</title>
<path fill="none" stroke="green" stroke-width="2" d="M770.05,-182.03C784.65,-191.25 801.86,-202.77 816.06,-212.8"/>
<polygon fill="green" stroke="green" stroke-width="2" points="814.29,-215.84 824.46,-218.81 818.37,-210.14 814.29,-215.84"/>
</g>
<!-- node15 -->
<g id="node16" class="node">
<title>node15</title>
<polygon fill="lightgrey" stroke="black" points="842,-109 636,-109 636,-73 842,-73 842,-109"/>
<text text-anchor="middle" x="739" y="-87.3" font-family="Times,serif" font-size="14.00">#15 LabelNode Order : 14</text>
</g>
<!-- node14&#45;&gt;node15 -->
<g id="edge40" class="edge">
<title>node14&#45;&gt;node15</title>
<path fill="none" stroke="red" d="M733.12,-145.81C732.28,-137.79 732.05,-128.05 732.42,-119.07"/>
<polygon fill="red" stroke="red" points="735.92,-119.25 733.14,-109.03 728.94,-118.75 735.92,-119.25"/>
</g>
<!-- node15&#45;&gt;node14 -->
<g id="edge39" class="edge">
<title>node15&#45;&gt;node14</title>
<path fill="none" stroke="green" stroke-width="2" d="M744.86,-109.03C745.71,-117.03 745.95,-126.77 745.59,-135.75"/>
<polygon fill="green" stroke="green" stroke-width="2" points="742.09,-135.59 744.88,-145.81 749.07,-136.08 742.09,-135.59"/>
</g>
<!-- node15&#45;&gt;node16 -->
<g id="edge42" class="edge">
<title>node15&#45;&gt;node16</title>
<path fill="none" stroke="red" d="M772.53,-72.99C791.61,-63.32 815.71,-51.1 836.15,-40.73"/>
<polygon fill="red" stroke="red" points="837.92,-43.76 845.25,-36.11 834.75,-37.52 837.92,-43.76"/>
</g>
<!-- node16&#45;&gt;node13 -->
<g id="edge41" class="edge">
<title>node16&#45;&gt;node13</title>
<path fill="none" stroke="green" stroke-width="2" d="M880.08,-36.25C877.58,-73.92 863.34,-163.77 853,-209"/>
<polygon fill="green" stroke="green" stroke-width="2" points="849.53,-208.43 850.59,-218.97 856.34,-210.07 849.53,-208.43"/>
</g>
<!-- c0 -->
<!-- c1 -->
<!-- c0&#45;&gt;c1 -->
<g id="edge44" class="edge">
<title>c0&#45;&gt;c1</title>
<path fill="none" stroke="red" d="M1459.89,-748C1471.11,-748 1529.24,-748 1554.86,-748"/>
<polygon fill="red" stroke="red" points="1555.06,-751.5 1565.06,-748 1555.06,-744.5 1555.06,-751.5"/>
<text text-anchor="middle" x="1512.5" y="-754.8" font-family="Times,serif" font-size="14.00">Control flow</text>
</g>
<!-- c2 -->
<!-- c3 -->
<!-- c2&#45;&gt;c3 -->
<g id="edge45" class="edge">
<title>c2&#45;&gt;c3</title>
<path fill="none" stroke="red" stroke-dasharray="5,2" d="M1253.08,-748C1270.05,-748 1386.21,-748 1424.08,-748"/>
<polygon fill="red" stroke="red" points="1424.17,-751.5 1434.17,-748 1424.17,-744.5 1424.17,-751.5"/>
<text text-anchor="middle" x="1343.5" y="-754.8" font-family="Times,serif" font-size="14.00">Control flow back edge</text>
</g>
<!-- d0 -->
<!-- d1 -->
<!-- d0&#45;&gt;d1 -->
<g id="edge46" class="edge">
<title>d0&#45;&gt;d1</title>
<path fill="none" stroke="black" d="M1141.86,-748C1151.41,-748 1195.31,-748 1216.92,-748"/>
<polygon fill="black" stroke="black" points="1217.15,-751.5 1227.15,-748 1217.15,-744.5 1217.15,-751.5"/>
<text text-anchor="middle" x="1184.5" y="-754.8" font-family="Times,serif" font-size="14.00">Data flow</text>
</g>
<!-- d2 -->
<!-- d3 -->
<!-- d2&#45;&gt;d3 -->
<g id="edge47" class="edge">
<title>d2&#45;&gt;d3</title>
<path fill="none" stroke="black" stroke-dasharray="1,5" d="M1015.81,-748C1026.46,-748 1081.46,-748 1106.08,-748"/>
<polygon fill="black" stroke="black" points="1106.15,-751.5 1116.15,-748 1106.15,-744.5 1106.15,-751.5"/>
<text text-anchor="middle" x="1066" y="-754.8" font-family="Times,serif" font-size="14.00">Declaration</text>
</g>
<!-- d4 -->
<!-- d5 -->
<!-- d4&#45;&gt;d5 -->
<g id="edge48" class="edge">
<title>d4&#45;&gt;d5</title>
<path fill="none" stroke="blue" d="M873.1,-748C885.72,-748 951.88,-748 979.68,-748"/>
<polygon fill="blue" stroke="blue" points="979.84,-751.5 989.84,-748 979.84,-744.5 979.84,-751.5"/>
<text text-anchor="middle" x="931.5" y="-754.8" font-family="Times,serif" font-size="14.00">PHI Data flow</text>
</g>
<!-- d6 -->
<!-- d7 -->
<!-- d6&#45;&gt;d7 -->
<g id="edge49" class="edge">
<title>d6&#45;&gt;d7</title>
<path fill="none" stroke="green" d="M750.11,-748C761.15,-748 812.67,-748 836.66,-748"/>
<polygon fill="green" stroke="green" points="836.9,-751.5 846.9,-748 836.9,-744.5 836.9,-751.5"/>
<text text-anchor="middle" x="798.5" y="-754.8" font-family="Times,serif" font-size="14.00">Dominance</text>
</g>
</g>
</svg>
